<?xml version="1.0" standalone="no"?>
<!DOCTYPE svg PUBLIC "-//W3C//DTD SVG 20010904//EN"
 "http://www.w3.org/TR/2001/REC-SVG-20010904/DTD/svg10.dtd">
<svg version="1.0" xmlns="http://www.w3.org/2000/svg"
 width="216.000000pt" height="376.000000pt" viewBox="0 0 216.000000 376.000000"
 preserveAspectRatio="xMidYMid meet">
<metadata>
Created by potrace 1.16, written by Peter Selinger 2001-2019
</metadata>
<g transform="translate(0.000000,376.000000) scale(0.100000,-0.100000)"
fill="#000000" stroke="none">
<path d="M1955 3751 c-2 -2 -131 -5 -287 -6 -877 -9 -1643 -18 -1645 -19 -1
-1 -4 -175 -7 -386 -6 -389 -6 -502 -5 -2322 l0 -1006 52 -5 c29 -3 311 -2
627 1 316 3 771 5 1011 3 337 -2 439 0 445 10 9 15 5 3640 -4 3716 -1 8 -33
13 -93 15 -50 2 -92 1 -94 -1z m165 -166 c0 -73 3 -147 6 -164 6 -29 4 -32
-32 -47 -113 -48 -263 8 -321 120 -22 42 -27 133 -11 181 l13 40 115 5 c63 3
141 3 173 2 l57 -4 0 -133z m-374 127 c-3 -5 -52 -8 -108 -6 -101 2 -95 0 30
-12 44 -4 62 -10 62 -20 0 -17 5 -17 -143 0 -137 16 -389 29 -297 16 30 -5
136 -16 234 -25 192 -18 209 -21 203 -39 -2 -7 -51 -13 -133 -17 -208 -10
-314 -20 -314 -31 0 -6 10 -8 23 -5 12 3 109 11 215 18 143 9 196 9 204 1 12
-12 -13 -25 -77 -42 -27 -8 -191 -55 -331 -96 -29 -8 -60 -21 -70 -28 -15 -12
235 56 401 108 70 22 79 20 93 -16 14 -38 22 -30 -86 -89 -41 -23 -72 -43 -69
-45 2 -2 42 16 88 40 62 33 87 42 96 34 18 -14 16 -26 -4 -33 -10 -3 -36 -22
-58 -41 -45 -40 -34 -36 39 13 44 30 51 32 64 19 13 -13 9 -22 -37 -72 -28
-32 -51 -63 -51 -68 1 -11 11 0 78 79 25 29 35 36 44 27 9 -9 2 -34 -30 -104
-23 -51 -42 -100 -41 -108 1 -10 3 -8 8 5 4 11 26 60 49 109 34 72 45 86 56
77 10 -8 12 -21 6 -44 -38 -154 -53 -212 -71 -275 -12 -40 -19 -76 -16 -79 6
-5 47 124 47 147 0 26 64 240 72 240 19 0 20 -38 4 -168 -9 -75 -19 -154 -22
-174 -4 -23 -3 -38 4 -38 12 0 29 115 38 258 5 76 11 105 21 109 8 3 18 2 22
-3 4 -5 5 -92 1 -194 -4 -102 -6 -187 -4 -189 11 -13 15 23 20 190 5 175 10
209 32 195 9 -5 23 -186 26 -334 0 -34 5 -62 10 -62 5 0 6 44 2 103 -3 56 -9
145 -12 198 -5 70 -3 98 5 104 19 11 23 1 26 -57 8 -180 19 -291 26 -263 9 41
9 40 10 -210 1 -880 -1 -985 -16 -985 -8 0 -26 18 -40 41 -39 61 -49 50 -69
-73 -8 -48 -17 -68 -31 -68 -8 0 -17 11 -21 25 -10 39 -36 26 -49 -25 -3 -14
-17 -33 -31 -43 l-24 -18 -15 35 c-9 20 -19 36 -24 36 -9 0 -26 -38 -37 -83
-5 -22 -11 -27 -26 -24 -13 4 -22 -1 -28 -18 -12 -32 -27 -39 -33 -15 -8 30
-26 24 -43 -15 -16 -40 -17 -40 -38 -19 -22 22 -33 11 -45 -46 -11 -53 -51
-125 -73 -133 -7 -2 -9 -8 -5 -13 5 -5 20 4 35 22 28 32 62 51 62 33 0 -19
-41 -89 -52 -89 -6 0 -8 -3 -5 -6 13 -14 40 23 82 111 24 50 47 103 50 118 8
28 25 37 25 12 0 -8 9 -19 21 -26 36 -19 85 40 95 115 4 32 24 61 24 35 0 -9
9 -24 20 -34 20 -18 21 -18 50 10 17 16 30 36 30 45 0 29 14 32 32 8 32 -42
67 6 83 114 l6 38 30 -35 c17 -19 37 -35 45 -35 11 0 14 -19 14 -88 0 -82 -2
-90 -22 -101 l-23 -11 23 6 c20 5 22 2 22 -43 0 -42 -4 -51 -37 -81 -96 -87
-173 -71 -117 23 14 25 43 55 67 69 23 14 38 25 32 25 -20 0 -90 -55 -113 -89
-25 -38 -26 -106 -1 -120 11 -6 14 -27 12 -82 -3 -114 -9 -132 -51 -162 -21
-14 -45 -26 -54 -26 -14 0 -15 5 -5 35 6 19 16 35 23 35 29 0 20 31 -22 74
-32 33 -51 46 -72 46 -15 0 -37 7 -48 15 -26 19 -34 19 -34 -4 0 -10 -7 -24
-15 -31 -14 -12 -14 -15 4 -34 28 -31 30 -59 4 -70 -12 -6 -24 -22 -27 -37 -6
-32 -42 -69 -67 -69 -9 0 -27 8 -39 18 l-22 18 31 31 c39 39 39 66 2 90 -37
23 -149 161 -153 188 -2 14 -12 21 -35 23 -21 2 -34 10 -38 22 -8 26 -89 98
-118 105 -17 5 -27 18 -35 42 -13 44 -11 48 33 63 19 6 35 15 35 20 0 5 -25
16 -56 25 -58 17 -109 44 -100 53 3 3 11 0 18 -6 13 -10 106 -39 160 -49 40
-8 92 14 117 47 12 17 17 30 12 30 -5 0 -11 9 -14 21 -3 12 -10 18 -16 15 -15
-10 -51 16 -51 36 0 10 -3 18 -7 19 -24 2 -43 8 -60 19 -17 11 -17 11 2 6 15
-4 12 1 -11 22 -17 15 -48 53 -68 85 -39 58 -56 76 -56 58 0 -5 5 -13 10 -16
9 -6 15 -55 6 -55 -2 0 -10 -2 -18 -5 -10 -4 -13 6 -13 40 0 46 -16 60 -42 34
-7 -7 -13 -7 -17 0 -9 14 28 32 51 25 10 -4 3 6 -16 22 -30 26 -33 35 -34 83
-1 41 -3 50 -12 38 -9 -13 -14 -12 -33 8 -30 31 -29 49 3 41 20 -5 25 -3 25
14 0 13 -6 19 -17 18 -33 -2 -63 2 -63 10 0 10 71 9 88 -2 9 -5 11 -17 7 -35
-5 -19 -3 -23 5 -15 6 6 12 21 13 33 1 11 7 21 13 21 12 0 84 80 84 93 0 4 -6
4 -14 1 -8 -3 -17 -1 -21 5 -3 7 0 8 10 5 12 -5 14 -2 8 12 -6 16 -5 17 9 6
13 -11 20 -11 37 0 29 18 40 2 44 -60 2 -34 10 -60 23 -74 11 -13 30 -45 43
-71 13 -27 29 -51 35 -53 7 -3 37 -36 66 -75 81 -106 142 -137 295 -146 133
-8 147 -7 159 8 6 8 25 15 43 15 18 1 40 9 49 18 30 31 -10 71 -48 47 -15 -9
-20 -9 -24 4 -4 8 -14 15 -23 14 -9 0 -11 -3 -5 -5 7 -3 10 -14 7 -24 -7 -25
14 -26 38 -4 11 10 25 14 36 9 16 -6 15 -9 -11 -29 -24 -20 -32 -22 -56 -13
-25 9 -31 8 -47 -11 -16 -20 -22 -21 -58 -11 -50 14 -65 26 -58 46 5 14 -2 15
-55 9 -57 -6 -62 -6 -62 13 0 10 6 21 13 24 9 3 9 7 -2 20 -15 19 -41 23 -41
7 0 -5 7 -10 15 -10 18 0 20 -17 3 -23 -19 -6 -62 24 -48 33 8 5 4 9 -9 13
-12 3 -19 2 -16 -3 3 -4 -9 -10 -25 -12 -17 -3 -30 -1 -30 4 0 4 5 8 11 8 6 0
9 7 5 15 -6 17 24 21 40 5 13 -13 44 -2 44 15 0 8 -10 22 -22 32 -25 20 -33
83 -11 83 7 0 10 7 7 15 -5 11 -2 13 11 9 16 -7 16 -6 0 20 -10 15 -16 28 -14
30 6 4 123 36 123 33 1 -1 7 -12 14 -25 8 -14 10 -36 6 -56 -5 -29 -2 -36 26
-56 37 -27 28 -46 -15 -30 -19 7 -32 7 -38 1 -16 -16 9 -38 49 -46 41 -7 41
-28 1 -33 -15 -2 -27 -7 -27 -12 0 -17 57 -20 99 -5 24 8 47 12 50 9 3 -4 0
-9 -7 -11 -6 -3 -9 -9 -6 -15 3 -5 -3 -12 -15 -15 -12 -3 -21 -9 -21 -14 0
-16 18 -19 50 -8 22 8 28 15 21 22 -6 6 -11 21 -11 34 0 21 -3 23 -40 17 -28
-5 -40 -3 -40 5 0 7 -7 19 -15 28 -14 14 -14 17 0 33 15 16 14 20 -16 42 -28
23 -30 28 -19 48 9 17 9 29 1 47 -6 13 -11 35 -11 50 0 20 3 24 18 18 41 -18
55 -11 64 29 14 68 32 79 109 71 37 -4 77 -4 88 0 17 5 34 32 36 57 0 3 3 10
8 14 10 11 9 24 -4 24 -5 0 -8 -4 -5 -9 3 -5 -14 -15 -38 -22 -47 -14 -53 -32
-8 -24 15 2 9 -2 -13 -9 l-40 -14 30 -4 c17 -3 -8 -3 -54 0 -67 4 -86 2 -95
-10 -6 -8 -21 -20 -33 -27 -33 -17 -30 5 4 41 23 25 25 31 13 39 -13 9 -13 10
0 6 8 -2 33 8 55 23 22 15 51 30 65 34 23 7 22 5 -7 -19 -18 -15 -33 -31 -33
-37 0 -6 7 -5 16 3 19 15 77 22 68 8 -7 -13 7 -11 35 5 24 13 24 14 3 25 -26
14 -42 14 -22 0 12 -8 11 -9 -5 -7 -24 4 -22 34 5 62 16 16 22 17 34 6 11 -8
16 -9 16 -1 0 22 2 26 17 44 15 15 15 17 0 17 -9 0 -19 -5 -22 -10 -4 -6 -10
-8 -15 -5 -4 3 -10 -4 -13 -15 -3 -11 -10 -20 -16 -20 -21 0 -11 21 25 54 38
35 44 74 10 68 -10 -2 -15 1 -12 6 3 5 -12 9 -33 10 -46 2 -68 -17 -52 -45 10
-17 10 -17 11 0 0 9 5 17 10 17 6 0 10 -9 10 -20 0 -11 -6 -20 -12 -20 -9 0
-10 -2 -2 -8 14 -9 27 -49 20 -61 -3 -5 -15 -7 -26 -4 -15 4 -18 11 -14 29 4
15 2 24 -5 24 -6 0 -11 -4 -11 -8 0 -4 -15 -14 -32 -21 l-33 -14 29 -6 c17 -3
29 -9 28 -13 -6 -24 0 -31 13 -14 7 10 18 15 24 11 19 -11 12 -24 -16 -31 -16
-4 -42 -18 -59 -31 -17 -12 -38 -23 -46 -23 -9 0 -31 -6 -49 -14 -63 -25 -228
-12 -301 25 -25 12 -28 11 -28 -8 -1 -16 -2 -16 -13 -2 -7 9 -19 14 -27 11
-13 -5 -13 -3 -1 12 14 17 32 17 75 0 9 -3 16 -1 16 5 0 6 -8 11 -18 11 -9 0
-29 11 -42 23 -48 45 -135 101 -190 123 -54 23 -81 46 -67 60 4 4 16 -1 26
-10 25 -22 67 -18 65 7 -2 14 1 15 12 6 8 -7 18 -9 22 -5 4 4 -2 15 -13 23
-19 15 -19 15 9 10 29 -5 48 6 54 32 2 8 -3 11 -12 8 -20 -8 -28 19 -12 36 10
10 12 25 6 55 l-7 41 98 61 c91 57 98 64 88 83 -9 17 -8 23 7 34 16 12 19 11
26 -4 11 -30 8 -39 -7 -19 -12 16 -15 17 -15 4 0 -9 5 -18 11 -20 9 -3 9 -10
0 -26 -9 -17 -9 -22 0 -22 7 0 5 -8 -6 -20 -10 -11 -21 -17 -26 -15 -13 9 -21
-14 -10 -32 6 -12 5 -27 -6 -48 l-16 -30 27 25 c20 18 26 31 21 48 -4 17 -2
22 6 16 7 -4 9 -3 6 3 -4 6 0 16 8 23 8 7 15 19 15 26 0 8 5 14 10 14 6 0 10
-7 10 -16 0 -14 7 -15 37 -11 21 4 43 14 50 23 14 19 6 82 -13 105 -8 8 -14
23 -14 33 0 9 -4 15 -10 11 -5 -3 -7 -12 -3 -20 3 -9 -1 -23 -8 -32 -13 -15
-12 -15 9 -4 18 10 23 9 28 -3 9 -23 0 -89 -12 -93 -7 -2 -11 3 -10 13 0 9 -8
21 -18 28 -58 33 -70 67 -29 84 19 7 29 72 12 72 -5 0 -9 -4 -9 -9 0 -23 -21
-62 -30 -56 -7 4 -7 11 -2 18 5 7 12 23 16 37 4 17 0 13 -14 -13 -11 -20 -29
-43 -40 -50 -11 -6 -20 -20 -20 -29 0 -10 -5 -18 -11 -18 -5 0 -7 5 -3 12 5 8
2 9 -10 5 -10 -4 -23 -7 -29 -7 -8 0 -7 -3 1 -9 11 -7 10 -9 -3 -14 -9 -4 -14
-3 -10 3 3 6 -1 13 -10 16 -12 5 -13 9 -4 20 13 16 33 19 24 4 -9 -15 2 -12
30 6 14 9 25 22 25 30 0 8 6 11 15 8 9 -4 15 0 15 10 0 9 5 16 11 16 6 0 8 7
5 15 -4 11 3 19 20 25 32 13 37 12 29 0 -3 -5 1 -10 9 -10 19 0 21 19 3 26
-23 8 -67 -14 -79 -41 -6 -14 -17 -25 -24 -25 -7 0 -16 -9 -19 -21 -4 -13 -12
-18 -22 -15 -8 3 -24 1 -36 -6 -12 -7 -47 -11 -78 -10 -62 2 -114 -15 -143
-47 -12 -13 -32 -21 -50 -21 -17 0 -37 -4 -44 -9 -18 -11 -42 -59 -42 -82 0
-11 -7 -19 -15 -19 -9 0 -19 -10 -24 -23 -5 -13 -16 -29 -25 -36 -22 -18 -20
-48 4 -61 35 -19 24 -47 -32 -85 -29 -19 -63 -35 -76 -35 -32 0 -76 -25 -95
-53 -17 -26 -249 -186 -332 -229 -28 -14 -93 -53 -145 -87 -52 -34 -98 -61
-103 -61 -5 0 -17 5 -28 10 -23 13 -69 -17 -99 -65 l-20 -30 0 220 c0 121 3
433 7 692 l6 473 336 2 c978 8 1372 8 1367 0z m383 -474 c-1 -86 -4 -111 -9
-84 -12 63 -12 206 -1 206 7 0 11 -43 10 -122z m-629 28 c0 -3 -4 -8 -10 -11
-5 -3 -10 -1 -10 4 0 6 5 11 10 11 6 0 10 -2 10 -4z m-214 -28 c-3 -7 -9 -21
-12 -30 -4 -10 -11 -18 -16 -18 -5 0 -6 5 -3 10 9 14 -19 12 -33 -2 -9 -9 -12
-9 -12 1 0 8 -7 10 -20 6 -30 -9 -24 2 10 20 36 19 46 19 31 1 -9 -11 -6 -12
13 -9 16 3 23 10 19 19 -3 9 1 14 12 14 10 0 14 -5 11 -12z m54 -3 c0 -8 -9
-15 -20 -15 -22 0 -27 15 -7 23 21 9 27 7 27 -8z m30 -39 c0 -2 -7 -6 -15 -10
-8 -3 -15 -1 -15 4 0 6 7 10 15 10 8 0 15 -2 15 -4z m50 0 c0 -3 -34 -25 -76
-50 l-75 -46 -29 20 c-15 11 -33 20 -38 20 -12 0 -24 28 -14 34 4 2 43 3 88 1
54 -2 88 2 105 11 25 14 39 17 39 10z m110 -26 c0 -5 -4 -10 -10 -10 -5 0 -10
5 -10 10 0 6 5 10 10 10 6 0 10 -4 10 -10z m45 0 c3 -5 -1 -10 -9 -10 -8 0
-18 5 -21 10 -3 6 1 10 9 10 8 0 18 -4 21 -10z m-433 -96 c9 -17 15 -39 12
-50 -3 -12 2 -26 12 -35 10 -8 15 -9 11 -2 -4 6 -3 14 2 18 6 3 7 13 4 22 -4
11 -3 14 6 9 7 -5 10 -14 8 -20 -3 -7 -2 -19 3 -26 5 -8 10 2 15 30 5 27 11
38 17 32 11 -11 0 -82 -14 -82 -5 0 -6 -4 -3 -10 11 -17 25 -11 25 12 0 12 3
19 6 15 11 -10 -7 -64 -21 -64 -8 0 -12 3 -10 7 2 3 -5 14 -16 23 -10 9 -19
13 -19 7 0 -5 5 -12 11 -16 6 -3 8 -17 5 -30 -4 -16 -1 -26 11 -33 17 -10 17
-10 0 -11 -10 0 -16 -4 -13 -9 3 -5 -1 -11 -9 -15 -9 -3 -15 0 -15 8 0 7 -7
19 -15 26 -16 14 -21 80 -5 80 5 0 6 8 3 17 -5 14 -8 14 -11 2 -3 -7 -9 -16
-13 -20 -5 -3 -10 -21 -13 -40 -3 -27 1 -37 18 -47 18 -11 18 -12 2 -10 -11 2
-22 -5 -27 -19 -6 -18 -4 -25 12 -34 13 -6 18 -16 15 -26 -5 -13 -4 -14 9 -3
9 7 18 10 22 6 3 -3 4 -7 2 -9 -105 -74 -138 -80 -208 -37 -64 40 -60 52 6 16
26 -15 39 -20 28 -11 -11 10 -37 25 -58 35 l-38 17 33 26 c30 24 34 25 40 9 4
-11 7 -4 7 20 1 37 19 88 30 88 4 0 17 -7 29 -16 12 -8 22 -11 22 -7 0 5 -25
21 -56 36 -57 28 -68 53 -21 50 23 -1 25 2 23 32 -3 26 2 35 20 44 13 6 24 18
24 26 0 9 10 20 23 25 20 8 20 9 2 10 -16 0 -17 2 -6 9 15 10 41 -17 73 -75z
m423 66 c3 -5 1 -10 -4 -10 -6 0 -11 5 -11 10 0 6 2 10 4 10 3 0 8 -4 11 -10z
m-385 -31 c0 -6 -4 -7 -10 -4 -5 3 -10 11 -10 16 0 6 5 7 10 4 6 -3 10 -11 10
-16z m0 -39 c0 -11 -5 -20 -12 -20 -6 0 -8 3 -5 7 4 3 2 12 -4 20 -9 10 -8 13
5 13 9 0 16 -8 16 -20z m30 -16 c0 -8 -4 -12 -10 -9 -5 3 -10 13 -10 21 0 8 5
12 10 9 6 -3 10 -13 10 -21z m60 -69 c0 -14 -2 -25 -4 -25 -2 0 -6 11 -8 25
-3 14 -1 25 3 25 5 0 9 -11 9 -25z m675 -165 c-3 -5 1 -10 9 -10 19 0 21 -21
4 -38 -20 -20 -28 -14 -28 23 0 19 5 35 11 35 5 0 7 -4 4 -10z m41 -46 c-4 -9
-9 -15 -11 -12 -3 3 -3 13 1 22 4 9 9 15 11 12 3 -3 3 -13 -1 -22z m-1095 -7
c-13 -13 -26 -3 -16 12 3 6 11 8 17 5 6 -4 6 -10 -1 -17z m-51 -17 c-24 -15
-36 -11 -14 4 10 8 21 12 24 10 2 -3 -2 -9 -10 -14z m330 1 c0 -5 -9 -11 -21
-14 -16 -4 -18 -3 -8 9 13 16 29 19 29 5z m-254 -16 c4 -8 10 -12 15 -9 5 3 9
0 9 -6 0 -6 4 -8 10 -5 6 4 7 -1 3 -12 -6 -16 -5 -16 10 -4 10 8 17 9 17 3 0
-6 -4 -14 -10 -17 -16 -10 -12 -25 5 -19 8 4 15 12 15 19 0 7 11 13 24 13 18
0 24 -6 24 -24 0 -30 -25 -38 -95 -29 -53 6 -55 7 -49 33 5 20 4 23 -4 12 -8
-13 -10 -13 -10 1 0 9 7 19 15 23 24 9 17 25 -7 19 -19 -4 -20 -3 -8 6 21 15
30 14 36 -4z m314 -5 c0 -5 -9 -10 -19 -10 -11 0 -23 5 -26 10 -4 6 5 10 19
10 14 0 26 -4 26 -10z m-105 -10 c3 -5 1 -10 -4 -10 -6 0 -11 5 -11 10 0 6 2
10 4 10 3 0 8 -4 11 -10z m205 -100 l-38 -35 21 -18 c22 -19 22 -19 -5 -3 -21
12 -33 13 -54 6 -15 -6 -29 -8 -32 -5 -3 2 -12 -1 -20 -8 -13 -10 -14 -9 -10
3 2 8 21 18 42 21 41 7 93 41 88 59 -1 6 2 9 7 6 5 -4 12 -2 16 4 6 10 -7 14
-34 11 -8 -2 -10 2 -6 9 4 7 2 16 -5 20 -7 4 -9 13 -6 19 5 7 19 0 41 -21 l33
-33 -38 -35z m-225 81 c3 -5 1 -12 -4 -15 -5 -3 -11 1 -15 9 -6 16 9 21 19 6z
m85 0 c0 -6 -8 -16 -17 -23 -10 -7 -18 -19 -19 -25 -2 -30 -5 -34 -14 -28 -15
9 -12 45 5 51 8 4 15 12 15 20 0 8 7 14 15 14 8 0 15 -4 15 -9z m73 -5 c3 3
11 -4 17 -16 9 -16 9 -25 1 -33 -8 -8 -11 -7 -11 5 0 17 -26 33 -61 37 -5 0
-8 5 -4 11 3 6 15 6 29 0 13 -5 26 -6 29 -4z m-473 -5 c0 -15 -29 -33 -41 -25
-9 5 -7 11 6 21 22 15 35 17 35 4z m267 -13 c-3 -8 -6 -5 -6 6 -1 11 2 17 5
13 3 -3 4 -12 1 -19z m-358 -11 c-2 -2 -20 -14 -39 -26 l-35 -23 30 26 c17 14
34 26 39 26 5 0 7 -1 5 -3z m131 -12 c10 6 11 1 6 -19 -3 -14 -2 -26 3 -26 15
0 23 -37 15 -62 -7 -22 -8 -21 -14 7 -3 17 -8 28 -11 25 -3 -3 -13 1 -21 8
-13 10 -18 9 -28 -3 -7 -9 -9 -19 -5 -23 4 -4 10 -2 12 4 4 13 43 7 43 -6 0
-5 -3 -15 -6 -24 -7 -17 -34 -22 -34 -6 0 6 -4 10 -10 10 -22 0 -8 -19 23 -29
25 -9 29 -14 17 -21 -8 -5 -27 -10 -42 -10 -21 0 -28 -5 -28 -20 0 -12 -5 -17
-13 -14 -21 8 -16 34 7 39 66 14 63 12 39 20 -13 4 -23 15 -23 24 0 9 -6 23
-12 29 -10 10 -10 17 0 32 7 11 8 20 2 20 -13 0 -1 27 15 34 8 3 21 -1 29 -9
21 -22 32 -18 13 3 -10 10 -14 22 -10 25 4 4 10 2 14 -4 4 -6 12 -8 19 -4z
m423 -8 c4 -11 -23 -46 -30 -39 -13 11 -42 -2 -46 -20 -4 -20 -4 -19 -6 5 0
16 4 27 12 27 8 0 19 11 25 25 11 25 36 26 45 2z m-513 -13 c0 -2 -9 -4 -20
-4 -11 0 -20 4 -20 9 0 5 9 7 20 4 11 -3 20 -7 20 -9z m145 6 c3 -5 1 -10 -4
-10 -6 0 -11 5 -11 10 0 6 2 10 4 10 3 0 8 -4 11 -10z m45 -21 c0 -5 -7 -9
-15 -9 -15 0 -20 12 -9 23 8 8 24 -1 24 -14z m-227 -3 c23 -18 21 -28 -5 -24
-13 2 -24 11 -26 21 -4 20 6 21 31 3z m347 4 c0 -15 -48 -43 -65 -36 -8 3 -12
12 -9 21 5 11 10 13 19 5 9 -7 16 -6 25 5 14 17 30 20 30 5z m74 -7 c9 -22 -6
-35 -35 -31 -29 4 -38 34 -12 41 33 9 41 7 47 -10z m-533 -21 c-15 -28 -99
-102 -115 -102 -9 0 -20 -9 -26 -21 -7 -11 -28 -27 -48 -35 -20 -8 -50 -21
-67 -29 -16 -7 -39 -17 -50 -20 -19 -6 -19 -7 -3 -16 10 -6 29 -27 43 -47 17
-25 25 -31 25 -19 0 10 -13 31 -29 47 l-28 29 28 -6 c24 -4 28 -3 23 10 -4 12
4 18 35 27 22 6 53 24 70 40 37 37 55 39 48 4 -5 -30 15 -43 39 -23 14 12 20
9 40 -16 23 -29 24 -29 38 -10 9 11 16 15 16 9 0 -5 -6 -19 -14 -29 -12 -16
-16 -17 -30 -6 -13 11 -16 11 -16 0 0 -8 -6 -5 -15 7 -14 18 -14 17 -8 -15 4
-25 3 -32 -5 -27 -7 4 -12 14 -12 22 0 8 -5 14 -10 14 -6 0 -8 -12 -5 -27 5
-27 5 -27 -6 -5 -17 31 -31 28 -24 -5 5 -26 5 -26 -4 -5 -6 12 -15 22 -21 22
-6 0 -3 -11 6 -25 18 -27 30 -27 88 1 37 18 66 18 66 0 0 -8 9 -24 20 -37 16
-20 19 -21 20 -6 0 9 5 17 10 17 6 0 8 -11 4 -27 -5 -19 -2 -30 12 -40 18 -13
18 -15 2 -24 -21 -12 -23 -32 -5 -48 11 -9 12 -25 2 -91 -11 -73 -25 -117 -25
-76 0 9 -4 14 -10 11 -13 -8 -13 16 0 49 6 16 6 27 0 31 -6 4 -10 15 -10 26 0
10 -4 19 -10 19 -5 0 -10 -13 -10 -29 0 -35 -9 -61 -21 -61 -5 0 -9 12 -9 26
0 14 -4 23 -10 19 -6 -4 -10 6 -10 24 0 16 5 33 10 36 13 8 13 45 1 45 -22 0
-41 -13 -41 -29 0 -13 -2 -14 -9 -2 -6 8 -6 24 0 38 5 14 5 23 -1 23 -6 0 -10
9 -10 20 0 26 -16 26 -23 -1 -3 -12 -10 -18 -16 -14 -6 3 -11 -1 -11 -9 0 -9
-4 -16 -10 -16 -10 0 -7 76 3 86 8 8 -22 54 -35 54 -5 0 -6 -9 -3 -20 4 -13 1
-22 -9 -26 -22 -9 -20 -23 3 -17 16 4 18 0 15 -34 -4 -52 9 -72 36 -55 29 18
40 15 40 -12 0 -24 24 -41 42 -30 6 4 7 -7 3 -28 -5 -24 -2 -39 7 -49 8 -8 17
-22 21 -32 5 -13 13 -16 27 -12 15 5 20 2 20 -14 0 -11 7 -26 15 -35 17 -17
19 -39 6 -64 -5 -9 -17 -55 -25 -101 -15 -79 -15 -86 1 -104 18 -19 18 -18 24
5 6 20 7 20 8 3 1 -21 32 -38 88 -50 42 -8 53 -23 60 -86 3 -30 17 -79 31
-109 31 -71 64 -222 52 -234 -16 -16 -11 -45 13 -80 19 -29 25 -32 51 -25 33
9 46 4 46 -17 0 -21 17 -17 23 6 3 11 11 20 19 19 10 0 10 -2 0 -6 -10 -4 -10
-7 1 -17 19 -14 30 -166 13 -166 -6 0 -4 -5 4 -10 8 -5 11 -10 6 -10 -5 0 -3
-6 3 -14 15 -18 3 -26 -34 -21 -35 3 -77 -14 -68 -28 4 -6 0 -8 -10 -4 -10 4
-17 1 -17 -6 -1 -22 -104 -77 -118 -63 -6 7 65 92 93 110 32 21 47 72 42 144
-3 39 0 63 7 66 6 2 2 5 -10 5 -20 1 -21 -3 -16 -74 3 -52 1 -75 -7 -75 -6 0
-11 -6 -11 -14 0 -25 -27 -43 -75 -50 -28 -5 -43 -11 -39 -18 4 -6 -1 -8 -12
-5 -11 3 -37 9 -59 12 -30 5 -36 4 -25 -4 8 -6 25 -11 38 -11 45 0 20 -16 -50
-33 -123 -29 -138 -29 -150 -1 -7 16 -20 24 -35 24 -14 0 -21 -4 -18 -10 4 -6
11 -8 16 -5 5 4 14 -6 19 -20 13 -34 14 -32 -12 -38 -12 -4 -19 -9 -16 -13 4
-3 22 1 40 10 30 16 34 16 45 0 7 -9 10 -20 8 -24 -6 -10 19 -20 48 -20 19 -1
18 -3 -8 -17 -16 -9 -25 -18 -18 -20 7 -2 22 1 34 7 15 9 19 9 14 1 -14 -24
-130 -74 -170 -74 -22 0 -49 -6 -60 -13 -28 -20 -41 -17 -22 4 10 10 17 26 17
35 0 18 -18 32 -28 22 -3 -3 0 -10 7 -14 11 -7 11 -13 -3 -32 -29 -42 -20 -54
53 -65 20 -3 43 -14 51 -25 11 -14 22 -18 35 -13 18 7 18 6 7 -8 -24 -29 10
-68 58 -68 10 0 20 -6 23 -13 3 -9 25 -14 63 -15 45 -1 62 -6 74 -21 8 -10 25
-22 38 -26 15 -4 22 -14 22 -31 0 -23 -3 -24 -59 -24 -33 0 -63 4 -66 10 -3 6
-24 10 -46 10 -22 0 -53 7 -70 15 -16 9 -37 14 -46 13 -11 -2 -19 7 -25 29
-10 39 -35 43 -44 8 -3 -14 -13 -25 -21 -25 -21 0 -113 -31 -118 -40 -3 -5
-19 -2 -35 6 -16 9 -35 12 -41 8 -6 -3 -25 9 -41 27 l-30 33 -27 -32 c-24 -30
-72 -52 -113 -52 -17 0 -18 50 -19 873 -1 982 -1 1018 11 1032 5 6 26 21 48
33 l39 21 33 -24 c19 -14 46 -25 60 -25 19 0 28 -7 37 -30 21 -55 75 -33 66
27 -5 29 -7 31 -30 22 -60 -23 -143 1 -143 41 0 9 9 5 24 -9 14 -13 32 -21 43
-18 15 4 14 5 -4 6 -14 1 -32 15 -47 38 -25 36 -27 58 -4 35 17 -17 63 -15 78
3 7 8 16 15 20 15 5 0 82 47 172 105 89 58 164 105 166 105 1 0 -2 -8 -7 -18z
m80 -9 c33 -20 37 -43 12 -65 -22 -19 -69 -28 -71 -14 -1 6 -4 23 -8 39 -6 27
8 57 28 57 6 0 23 -8 39 -17z m233 -45 c-8 -54 -19 -67 -22 -28 -2 28 12 70
23 70 3 0 2 -19 -1 -42z m174 26 c59 -41 -3 -139 -64 -99 -26 17 -30 44 -13
78 21 40 42 46 77 21z m102 -32 c0 -8 -6 -12 -15 -8 -9 3 -15 0 -15 -9 0 -8
-3 -15 -7 -15 -5 0 -9 -14 -10 -30 -1 -17 -9 -40 -18 -52 -8 -13 -15 -31 -15
-41 0 -10 -4 -15 -10 -12 -5 3 -10 15 -10 26 0 11 5 17 10 14 6 -3 10 -1 10 4
0 20 -5 26 -20 23 -10 -2 -8 4 6 16 13 11 25 37 29 63 10 60 21 72 46 51 10
-9 19 -23 19 -30z m220 28 c-33 -26 -60 -26 -29 0 13 10 31 19 39 19 10 1 6
-6 -10 -19z m-430 -5 c17 -20 5 -45 -20 -45 -12 0 -19 4 -16 9 4 5 0 11 -6 14
-10 3 -10 7 1 20 17 21 25 21 41 2z m500 11 c0 -3 -4 -8 -10 -11 -5 -3 -10 -1
-10 4 0 6 5 11 10 11 6 0 10 -2 10 -4z m-205 -38 l16 -33 -21 24 c-11 13 -20
27 -20 32 0 18 10 8 25 -23z m245 23 c0 -11 -25 -21 -56 -21 -17 0 -22 -4 -18
-15 8 -20 -35 -36 -58 -21 -22 13 -23 26 -4 26 8 0 17 6 19 13 4 9 8 9 15 -1
7 -11 10 -11 15 2 4 9 13 13 21 10 8 -3 23 -1 33 5 22 13 33 14 33 2z m190
-16 c-11 -13 -8 -18 10 -17 3 0 5 -17 5 -39 1 -21 -3 -39 -7 -39 -4 0 -8 9 -8
20 0 22 -1 23 -24 14 -9 -3 -16 -13 -16 -21 0 -13 -3 -13 -15 -3 -13 10 -15 9
-16 -11 -1 -14 -3 -18 -6 -8 -2 10 -15 16 -34 16 -16 0 -35 5 -41 11 -9 9 0
12 40 12 44 0 52 3 52 19 0 11 -10 22 -22 26 -20 6 -15 10 32 25 60 19 70 18
50 -5z m-132 2 c8 -10 6 -13 -9 -13 -19 0 -24 7 -12 19 8 9 9 9 21 -6z m-825
-11 c6 -16 -1 -26 -17 -26 -6 0 -4 5 4 10 10 6 11 10 3 10 -7 0 -13 5 -13 10
0 15 17 12 23 -4z m-152 -21 c0 -5 -9 -11 -21 -13 -20 -3 -27 8 -13 22 10 9
34 3 34 -9z m989 -4 c0 -5 -9 -7 -20 -4 -11 3 -20 7 -20 9 0 2 9 4 20 4 11 0
20 -4 20 -9z m-874 -17 c-3 -9 -6 -20 -6 -25 0 -5 -9 -9 -20 -9 -24 0 -25 8
-3 32 20 22 37 24 29 2z m489 6 c3 -5 2 -10 -4 -10 -5 0 -13 5 -16 10 -3 6 -2
10 4 10 5 0 13 -4 16 -10z m155 -24 c0 -15 -7 -26 -20 -29 -11 -3 -20 -1 -20
3 0 5 -3 15 -6 24 -4 11 -1 16 10 16 9 0 16 5 16 11 0 5 5 7 10 4 6 -3 10 -17
10 -29z m160 19 c5 3 10 -2 10 -11 0 -10 8 -26 18 -37 16 -20 16 -20 -1 -14
-10 4 -25 7 -32 7 -7 0 -20 11 -29 25 -19 29 -12 53 9 35 8 -7 19 -9 25 -5z
m-552 -1 c23 -7 32 -47 12 -59 -5 -3 -10 -1 -10 5 0 7 -8 9 -20 5 -15 -5 -18
-3 -14 9 4 9 1 23 -6 31 -14 17 -3 19 38 9z m-328 -24 c0 -11 -6 -20 -14 -20
-21 0 -31 21 -15 31 22 14 29 11 29 -11z m830 -9 c15 -29 12 -62 -7 -83 -20
-22 -42 -23 -71 -2 -28 19 -31 78 -4 93 29 17 70 13 82 -8z m-639 -20 c17 -16
18 -20 5 -30 -8 -7 -25 -11 -38 -9 -26 3 -39 38 -14 38 9 0 16 5 16 10 0 15 8
12 31 -9z m486 -75 c4 -7 0 -3 -9 7 -11 12 -18 34 -17 56 l1 36 9 -44 c4 -24
12 -48 16 -55z m-256 74 c22 -12 26 -35 5 -27 -9 4 -17 -2 -21 -14 -8 -25 -25
-25 -25 1 0 11 -5 20 -11 20 -8 0 -8 5 1 15 15 18 25 19 51 5z m-911 -24 c0
-2 -11 -11 -25 -20 -25 -17 -25 -16 -13 4 11 17 38 29 38 16z m761 -28 c4 -16
3 -30 -2 -33 -14 -10 -49 14 -49 34 0 41 40 40 51 -1z m470 -51 c-15 -15 -44
1 -37 20 4 9 1 20 -5 24 -9 5 -8 10 2 21 11 12 16 9 31 -21 11 -22 14 -39 9
-44z m146 40 c-2 -36 -22 -49 -41 -28 -15 16 -15 19 -1 24 8 4 15 13 15 21 0
9 6 13 14 10 8 -3 14 -15 13 -27z m-552 13 c-3 -5 -12 -10 -18 -10 -7 0 -6 4
3 10 19 12 23 12 15 0z m-193 -11 c30 11 65 -2 73 -29 9 -29 -4 -80 -21 -80
-8 0 -14 -4 -14 -10 0 -5 5 -10 12 -10 6 0 9 -2 6 -5 -6 -6 -66 19 -92 39 -10
8 -15 19 -11 25 3 6 0 11 -7 11 -11 0 -11 2 0 9 10 6 10 10 -2 20 -21 18 -9
44 14 31 11 -6 28 -7 42 -1z m-695 -31 c-3 -8 -6 -5 -6 6 -1 11 2 17 5 13 3
-3 4 -12 1 -19z m871 1 c3 -11 2 -11 -6 -1 -7 10 -12 6 -21 -17 -7 -16 -10
-35 -6 -40 5 -10 -43 -36 -51 -28 -9 9 11 48 32 62 13 8 24 22 24 31 0 19 22
14 28 -7z m527 -9 c3 -5 1 -10 -4 -10 -6 0 -11 -9 -11 -20 0 -21 -15 -27 -25
-10 -3 5 -12 7 -20 3 -21 -7 -19 17 3 33 20 16 48 18 57 4z m-105 -46 c0 -8
11 -19 25 -24 14 -5 25 -14 25 -20 0 -18 -57 28 -63 50 -3 11 -1 18 4 14 5 -3
9 -12 9 -20z m41 -4 c10 0 19 -4 19 -10 0 -15 -45 5 -46 21 -1 9 0 10 3 2 3
-7 13 -13 24 -13z m-447 -5 c-4 -8 -8 -15 -10 -15 -2 0 -4 7 -4 15 0 8 4 15
10 15 5 0 7 -7 4 -15z m544 -18 c2 -10 -3 -17 -12 -17 -9 0 -16 5 -16 11 0 5
-6 7 -12 3 -9 -5 -8 -2 1 9 16 21 35 17 39 -6z m-1206 -22 c19 6 21 5 10 -6
-16 -17 -46 -1 -49 27 -2 14 0 13 7 -4 8 -18 15 -22 32 -17z m663 5 c-10 -11
-14 -20 -9 -20 5 0 1 -5 -10 -11 -14 -9 -22 -7 -34 5 -15 15 -14 16 10 16 14
0 31 7 38 15 7 8 15 15 18 15 3 0 -3 -9 -13 -20z m55 10 c0 -5 -4 -10 -10 -10
-5 0 -10 5 -10 10 0 6 5 10 10 10 6 0 10 -4 10 -10z m-264 -20 c1 -8 3 -21 5
-29 2 -7 -2 -16 -10 -19 -10 -3 -13 1 -8 17 3 13 0 21 -8 21 -7 0 -16 7 -19
16 -4 11 0 15 16 12 11 -2 22 -10 24 -18z m71 -24 c-7 -7 -20 -13 -29 -13 -13
0 -15 4 -8 18 6 11 17 15 30 12 15 -4 17 -8 7 -17z m56 9 c1 -5 -6 -11 -15
-13 -11 -2 -18 3 -18 13 0 17 30 18 33 0z m147 4 c0 -5 -4 -8 -9 -5 -5 3 -12
-1 -15 -10 -5 -13 -9 -14 -21 -4 -23 19 -18 30 15 30 17 0 30 -5 30 -11z m434
-22 c6 -5 2 -7 -11 -4 -24 5 -32 -8 -10 -16 6 -2 8 -8 4 -13 -5 -5 -15 0 -23
11 -16 21 -13 41 5 38 6 -2 11 3 12 10 0 7 3 6 6 -3 3 -8 11 -19 17 -23z m231
13 c3 -5 -1 -10 -9 -10 -8 0 -18 5 -21 10 -3 6 1 10 9 10 8 0 18 -4 21 -10z
m-976 -9 c11 -7 9 -11 -8 -20 -18 -10 -21 -9 -21 9 0 22 7 25 29 11z m336 0
c3 -5 1 -12 -5 -16 -5 -3 -10 1 -10 9 0 18 6 21 15 7z m-171 -82 c3 -22 13
-42 21 -45 9 -4 15 -19 15 -36 0 -47 47 -123 113 -180 54 -46 61 -50 72 -35
15 21 26 22 19 2 -4 -8 -1 -15 5 -15 6 0 11 5 11 12 0 6 7 3 16 -8 12 -15 16
-16 21 -5 22 53 96 70 113 25 6 -14 15 -22 20 -19 16 10 41 -20 27 -34 -14
-14 -37 -14 -37 1 0 6 -7 4 -18 -5 -22 -20 -23 -20 -59 -5 -26 11 -39 13 -103
20 -14 2 -31 7 -39 12 -7 5 -16 5 -20 0 -9 -13 -31 -16 -31 -4 0 6 5 10 10 10
21 0 9 20 -15 26 -14 3 -25 12 -25 19 0 7 -7 19 -17 26 -9 8 -24 28 -35 44
-38 62 -15 7 31 -75 42 -74 53 -87 87 -98 51 -17 57 -24 45 -55 -23 -61 -93
-38 -89 29 2 23 -6 42 -30 70 -18 21 -30 44 -28 50 3 9 -1 11 -11 7 -12 -5
-15 -2 -10 10 3 9 2 17 -3 17 -5 0 -15 14 -24 30 -8 17 -11 28 -7 25 5 -2 8 9
7 24 -1 16 -3 28 -5 25 -8 -7 -41 17 -36 27 4 5 3 18 0 29 -10 32 -34 0 -42
-55 -6 -44 -6 -45 -21 -24 -14 20 -14 23 1 34 10 7 17 22 17 34 0 11 4 21 9
21 5 0 13 12 18 26 8 24 9 23 27 -26 10 -28 20 -49 23 -47 2 3 -3 22 -12 43
-9 22 -20 57 -25 79 -7 37 -8 38 -9 9 -1 -28 -41 -93 -41 -66 0 5 -10 8 -22 6
-20 -4 -21 -3 -4 4 12 5 16 11 9 15 -16 10 -41 -2 -46 -21 -3 -10 -5 -2 -6 16
-1 19 4 32 11 32 9 0 9 3 0 12 -16 16 -15 31 1 21 6 -4 20 -6 30 -5 13 3 17
-4 17 -27 0 -17 5 -31 10 -31 6 0 10 7 10 15 0 8 5 15 10 15 6 0 10 14 10 31
0 45 25 21 34 -32z m65 21 c0 -10 -3 -8 -9 5 -12 27 -12 43 0 25 5 -8 9 -22 9
-30z m-224 -45 c-10 -29 -14 -34 -15 -17 0 23 18 67 25 60 2 -2 -2 -22 -10
-43z m355 31 c0 -2 -7 -7 -16 -10 -8 -3 -12 -2 -9 4 6 10 25 14 25 6z m458
-22 c25 -17 30 -54 8 -54 -23 0 -70 45 -62 58 10 16 27 15 54 -4z m-571 -11
c0 -18 -23 -17 -30 1 -4 10 0 14 12 13 10 0 18 -7 18 -14z m53 7 c0 -5 -5 -10
-11 -10 -5 0 -7 5 -4 10 3 6 8 10 11 10 2 0 4 -4 4 -10z m-17 -47 c-4 -10 -2
-14 4 -10 13 8 43 -19 43 -38 0 -22 -41 -55 -67 -55 -49 0 -52 94 -3 107 17 5
18 8 8 22 -12 14 -11 14 4 3 10 -8 14 -20 11 -29z m89 -11 c17 -17 -4 -15 -28
2 -17 13 -17 14 -1 12 9 -1 23 -8 29 -14z m-277 -2 c-3 -5 -11 -10 -16 -10 -6
0 -7 5 -4 10 3 6 11 10 16 10 6 0 7 -4 4 -10z m795 0 c12 -8 9 -10 -12 -10
-16 0 -28 5 -28 10 0 13 20 13 40 0z m-870 -15 c0 -8 -4 -15 -10 -15 -5 0 -10
7 -10 15 0 8 5 15 10 15 6 0 10 -7 10 -15z m415 -21 c15 10 25 12 25 5 0 -6
-9 -13 -20 -16 -19 -5 -20 -6 -3 -19 10 -7 13 -14 6 -14 -6 0 -15 5 -18 10 -8
13 -45 13 -45 -1 0 -17 -26 14 -32 39 l-6 23 34 -22 c32 -20 36 -20 59 -5z
m545 4 c0 -5 -8 -4 -19 1 -10 6 -22 7 -26 3 -5 -4 -5 -2 -2 5 8 13 47 6 47 -9z
m-960 -74 c0 -47 -2 -54 -20 -54 -15 0 -20 7 -21 28 l-1 27 -8 -25 c-4 -14 -8
-36 -9 -49 -1 -20 2 -22 11 -13 21 21 47 15 41 -10 -4 -19 -3 -20 6 -8 9 12
11 11 11 -8 0 -13 4 -21 8 -18 9 5 8 -20 -1 -44 -3 -8 -8 -26 -10 -40 -2 -14
-5 2 -6 35 -1 43 -4 56 -11 45 -8 -13 -14 -10 -35 14 -14 16 -25 39 -26 50 -2
45 4 71 20 86 10 8 20 23 24 33 12 33 27 7 27 -49z m32 24 c-9 -9 -12 -7 -12
12 0 19 3 21 12 12 9 -9 9 -15 0 -24z m115 -8 c-13 -36 -37 -40 -37 -7 0 28 7
37 31 37 15 0 16 -4 6 -30z m348 -10 c13 -6 15 -9 5 -9 -8 0 -22 4 -30 9 -18
12 -2 12 25 0z m-150 -10 c3 -5 0 -10 -8 -10 -10 0 -13 -8 -9 -26 4 -20 1 -25
-9 -20 -8 3 -22 9 -32 12 -11 4 -16 13 -13 21 3 8 6 19 6 24 0 12 57 12 65 -1z
m-318 -47 c-3 -10 -5 -2 -5 17 0 19 2 27 5 18 2 -10 2 -26 0 -35z m78 -4 c8
-34 -8 -59 -35 -59 -33 0 -43 82 -13 99 23 12 40 -2 48 -40z m413 21 c2 -10
-5 -16 -17 -16 -11 0 -19 5 -18 11 1 5 -4 9 -11 7 -8 -1 -10 2 -7 8 10 16 49
8 53 -10z m-374 -5 c-4 -9 0 -15 10 -15 9 0 16 -4 16 -10 0 -5 -7 -10 -16 -10
-8 0 -12 -4 -9 -10 3 -5 2 -10 -3 -10 -11 0 -23 50 -15 62 8 14 22 8 17 -7z
m271 -14 c3 -5 1 -12 -5 -16 -5 -3 -10 -1 -10 5 0 6 -11 8 -27 4 -22 -4 -25
-3 -13 5 19 13 47 14 55 2z m165 -10 c0 -6 -4 -13 -10 -16 -5 -3 -10 1 -10 9
0 9 5 16 10 16 6 0 10 -4 10 -9z m-651 -88 c0 -21 -3 -31 -6 -23 -3 8 -11 18
-17 22 -8 5 -7 8 2 8 6 0 12 7 12 15 0 8 2 15 5 15 3 0 5 -17 4 -37z m261 33
c0 -2 -9 -6 -20 -9 -11 -3 -18 -1 -14 4 5 9 34 13 34 5z m-62 -18 c7 -7 12
-21 12 -32 0 -11 8 -28 18 -39 10 -12 11 -17 3 -12 -11 6 -13 3 -9 -13 4 -12
2 -20 -3 -16 -5 3 -9 15 -9 27 0 12 -4 28 -9 35 -6 11 -10 10 -15 -5 -7 -17
-8 -17 -17 0 -6 9 -14 15 -20 12 -5 -4 -8 4 -6 17 2 20 17 35 38 37 3 1 10 -4
17 -11z m126 -34 c12 -5 13 -10 4 -30 -11 -24 -28 -33 -28 -14 0 6 -7 10 -15
10 -8 0 -15 5 -15 10 0 6 7 10 15 10 8 0 15 5 15 10 0 12 3 12 24 4z m156 -68
c0 -3 -4 -8 -10 -11 -5 -3 -10 -1 -10 4 0 6 5 11 10 11 6 0 10 -2 10 -4z
m-135 -37 c0 -22 -33 -22 -44 0 -10 18 -8 19 17 17 15 -2 27 -9 27 -17z m-90
-9 c22 -11 52 -20 68 -20 24 0 28 -3 22 -17 -16 -42 -16 -75 -1 -113 9 -22 16
-52 16 -65 0 -14 4 -25 9 -25 10 0 -4 72 -20 102 -11 21 -2 81 11 73 4 -2 10
-19 14 -36 3 -18 12 -37 20 -43 8 -6 47 -36 87 -67 111 -85 163 -135 155 -148
-11 -16 -37 -13 -53 7 -13 16 -14 16 -26 -2 -7 -10 -22 -33 -34 -52 -12 -18
-16 -31 -9 -28 7 3 20 20 29 39 19 40 33 44 42 15 4 -12 15 -20 28 -19 21 0
21 1 2 9 -17 7 -15 9 11 9 17 1 37 -5 43 -13 7 -8 25 -17 40 -21 36 -8 79 -54
61 -65 -14 -9 7 -23 50 -33 14 -4 41 -20 60 -37 38 -34 49 -36 90 -15 27 14
29 14 23 -1 -4 -12 -1 -15 13 -12 16 3 19 12 18 58 -1 30 1 49 3 43 7 -18 23
-16 23 2 0 9 7 18 15 21 18 7 12 38 -14 68 -15 18 -15 19 14 12 30 -7 30 -7 8
9 -13 9 -23 23 -23 31 0 16 16 19 25 4 3 -5 19 -10 34 -10 32 0 81 -34 81 -56
0 -8 7 -14 15 -14 8 0 15 -5 15 -10 0 -6 -11 -8 -27 -4 -25 7 -27 6 -14 -10
12 -14 11 -22 -3 -55 -17 -35 -17 -41 -1 -89 18 -53 14 -122 -6 -122 -6 0 -7
-5 -4 -10 8 -14 24 -3 35 24 8 20 9 20 10 1 l1 -20 9 20 c8 19 9 19 9 1 1 -15
4 -16 16 -6 13 11 15 8 15 -16 0 -19 3 -25 9 -16 10 16 27 -1 33 -33 2 -13 10
-19 23 -17 18 2 20 -4 23 -59 1 -34 6 -67 11 -73 7 -10 23 -72 25 -101 1 -5
18 -11 39 -13 35 -3 38 -6 35 -30 -2 -22 -9 -28 -35 -30 -29 -3 -33 0 -33 22
0 14 -5 28 -12 32 -7 4 -8 3 -4 -5 13 -21 -22 -61 -52 -61 l-27 1 29 23 c25
21 28 29 23 60 -3 20 -17 50 -31 67 -14 16 -31 49 -37 72 -18 68 -21 74 -26
59 -3 -9 -12 -7 -33 8 -53 38 -103 47 -68 12 13 -13 8 -15 -16 -6 -8 3 -12 12
-9 20 3 8 0 14 -6 14 -6 0 -11 10 -12 23 0 12 -3 16 -6 10 -7 -18 -23 -16 -23
2 0 23 -26 29 -50 12 l-21 -15 23 -21 c12 -12 31 -20 40 -17 11 2 18 -1 18
-10 0 -11 -23 -14 -119 -14 -65 0 -142 -4 -171 -10 -29 -5 -57 -7 -63 -3 -13
8 18 21 54 22 15 1 40 8 55 16 16 8 37 15 46 15 24 0 48 11 48 21 0 13 -67 11
-91 -2 -36 -19 -59 -19 -59 -1 0 20 100 54 170 57 28 2 44 7 42 14 -1 7 2 21
8 31 9 16 7 20 -5 20 -8 0 -20 -11 -25 -25 -11 -28 -44 -34 -54 -9 -3 9 -11
12 -18 8 -7 -5 -9 -2 -5 9 3 8 -1 21 -9 27 -8 7 -14 9 -14 5 0 -3 -12 7 -26
24 -14 17 -43 36 -67 43 -44 13 -60 26 -50 41 3 5 0 8 -7 5 -26 -8 -22 -29 9
-41 42 -15 40 -42 -6 -89 -25 -26 -46 -38 -65 -38 -32 0 -97 -30 -98 -45 0
-12 -69 -35 -105 -35 -14 0 -25 -3 -25 -7 0 -5 20 -8 45 -8 24 0 50 -6 57 -13
9 -9 -2 -12 -54 -12 -65 0 -91 -12 -94 -44 0 -6 -2 -19 -2 -28 -2 -15 -15 -17
-104 -16 -77 0 -97 3 -82 11 10 6 52 12 92 13 76 3 96 9 86 25 -3 5 -27 7 -57
3 -67 -9 -55 3 30 31 67 21 68 22 67 56 -1 19 -6 52 -12 74 -6 22 -9 78 -6
125 11 178 11 182 -7 199 -9 9 -19 23 -22 31 -3 9 -6 3 -6 -12 -1 -16 3 -28 8
-28 31 0 10 -78 -26 -99 -17 -10 -17 -10 -1 -11 9 0 21 8 27 17 12 23 25 11
16 -16 -11 -35 -55 -58 -102 -53 -24 2 -41 8 -38 12 3 5 0 12 -6 16 -8 4 -7 9
2 15 11 7 10 9 -3 9 -10 0 -18 5 -18 10 0 6 10 10 23 9 44 -4 63 1 90 26 15
14 27 34 27 43 -1 13 -3 12 -13 -6 -15 -26 -43 -47 -74 -54 -26 -7 -29 -1 -49
97 -8 39 -27 102 -43 140 -16 39 -33 93 -38 122 -8 47 -7 52 11 62 31 15 48
13 91 -9z m263 -24 c2 -18 0 -26 -7 -21 -6 3 -11 2 -11 -3 0 -5 18 -14 40 -21
66 -20 150 -123 150 -185 0 -27 -19 -76 -30 -76 -3 0 -29 19 -57 43 -28 23
-85 67 -127 97 -59 43 -79 64 -92 97 -25 63 -10 89 47 84 8 -1 26 3 40 8 34
14 44 9 47 -23z m568 -17 c7 -12 -32 -57 -41 -47 -7 7 16 58 26 58 4 0 11 -5
15 -11z m-136 -86 c0 -25 -30 -73 -45 -73 -18 0 -18 6 -4 51 6 19 13 40 15 48
3 11 7 11 19 1 8 -7 15 -19 15 -27z m-208 -78 c3 -4 1 -25 -4 -47 -12 -54 -5
-84 9 -38 10 34 10 35 17 9 6 -20 0 -33 -31 -66 -35 -36 -40 -39 -61 -28 -16
9 -20 15 -12 20 19 12 50 87 50 123 0 29 16 43 32 27z m708 -20 c-7 -8 -22
-15 -34 -15 -20 1 -20 2 4 15 33 19 46 19 30 0z m-65 -6 c-4 -5 5 -21 19 -34
25 -23 26 -30 26 -122 1 -66 5 -106 15 -123 8 -14 14 -34 15 -45 0 -17 -8 -20
-52 -23 -28 -2 -55 -5 -60 -8 -11 -7 -10 -34 2 -34 6 0 10 7 10 15 0 8 7 15
16 15 13 0 14 -3 5 -14 -10 -12 -8 -13 8 -9 12 3 18 9 15 14 -6 10 2 11 34 3
18 -5 22 -13 22 -46 0 -42 -22 -51 -28 -11 -4 26 -20 33 -47 22 l-20 -8 20 -1
c11 -1 14 -4 8 -7 -19 -7 -16 -27 7 -41 11 -7 20 -18 20 -26 0 -11 -8 -10 -40
5 -26 13 -37 24 -34 33 3 9 -3 20 -15 28 -20 12 -29 38 -13 38 4 0 12 11 19
25 14 30 4 32 -25 5 -21 -20 -62 -28 -62 -12 0 4 9 15 20 25 11 9 20 21 20 27
0 13 -1 13 -44 -5 -51 -22 -67 -7 -17 16 23 10 41 22 41 26 0 5 10 10 22 10
17 2 19 0 8 -7 -31 -19 1 -21 44 -1 41 18 46 18 46 4 0 -21 29 -53 47 -53 20
0 16 21 -6 27 -16 4 -18 12 -13 72 5 71 -13 181 -29 181 -6 0 -8 -8 -6 -17 17
-61 17 -94 1 -120 -17 -27 -53 -62 -64 -63 -3 0 -4 46 -2 102 3 95 5 105 28
126 26 23 50 30 39 11z m75 -139 l-6 -65 -5 73 c-2 41 -2 76 0 78 12 12 17
-27 11 -86z m-603 -7 c35 -38 63 -72 62 -78 0 -5 -13 -20 -29 -32 -39 -31 -89
-23 -92 16 -2 45 -3 49 -11 57 -9 9 -9 104 0 104 4 0 35 -30 70 -67z m-37
-178 c10 -9 15 -25 13 -39 -4 -19 -15 -27 -48 -35 -62 -16 -63 -14 -27 18 17
17 32 39 32 50 0 25 8 26 30 6z m427 -23 c-24 -26 -21 -32 14 -32 28 0 30 -2
24 -28 -4 -21 -1 -33 12 -43 16 -13 17 -12 4 4 -8 9 -11 20 -8 23 9 9 56 -67
50 -82 -8 -22 -20 -17 -44 19 -13 17 -40 51 -61 74 -52 58 -49 77 11 82 11 1
11 -3 -2 -17z m-361 -51 c-8 -7 -19 -10 -25 -7 -18 12 -12 21 14 21 20 0 22
-2 11 -14z m-43 -22 c21 -5 35 -14 32 -19 -10 -17 -85 -32 -99 -21 -9 7 -16 7
-23 0 -14 -14 -115 -7 -121 9 -2 8 9 12 35 13 21 0 56 6 78 14 52 17 53 17 98
4z m-171 -74 c6 -10 18 -11 45 -4 55 13 62 11 56 -11 -7 -25 -55 -35 -132 -27
-64 7 -91 15 -91 27 0 15 40 22 55 10 8 -7 15 -7 19 -1 4 5 -3 12 -14 16 -11
3 -20 10 -20 15 0 12 74 -10 82 -25z m787 -77 l1 -56 -42 2 c-35 2 -44 6 -46
23 -4 29 31 65 48 50 10 -9 11 -6 6 16 -4 16 -2 27 4 27 5 0 10 8 11 18 1 43
18 -26 18 -80z m-59 67 c16 -19 1 -19 -24 0 -16 12 -17 15 -4 15 8 0 21 -7 28
-15z m-867 -67 c-4 -7 4 -9 23 -5 36 7 94 -26 94 -54 0 -13 7 -19 23 -19 32 0
48 -13 37 -30 -7 -12 -12 -12 -22 -2 -6 6 -22 12 -35 12 -13 0 -23 6 -23 14 0
31 -61 26 -89 -7 -20 -25 -66 -30 -100 -12 -41 21 -39 27 7 20 l37 -5 -35 13
c-33 13 -42 36 -12 29 8 -2 22 4 32 13 9 8 24 13 34 9 9 -3 16 -1 16 6 0 6
-12 11 -27 10 -42 -3 -53 -1 -53 9 0 10 65 19 87 13 7 -2 10 -9 6 -14z m122
11 c70 -18 72 -19 55 -29 -24 -15 -45 -12 -91 15 -48 27 -34 33 36 14z m478
-19 c41 0 47 -2 39 -16 -5 -9 -28 -24 -50 -34 -35 -16 -42 -17 -42 -4 0 18
-29 29 -98 37 -40 5 -52 3 -49 -6 2 -7 24 -13 50 -13 57 -2 84 -11 71 -24 -10
-10 -32 -11 -214 -6 -165 4 -170 5 -170 14 0 8 102 49 140 56 14 2 81 2 150 0
69 -2 147 -4 173 -4z m-1003 -26 c8 -20 15 -25 32 -21 11 3 17 2 12 -2 -26
-24 -134 -32 -134 -11 0 4 -17 4 -37 -1 -23 -5 -42 -4 -47 1 -6 6 -8 10 -5 11
2 0 36 11 74 24 90 30 94 30 105 -1z m1103 8 c41 -45 73 -196 46 -213 -19 -12
-59 -11 -59 0 0 5 10 11 23 13 37 5 34 51 -7 118 -47 75 -49 133 -3 82z m-796
2 c-3 -3 -12 -4 -19 -1 -8 3 -5 6 6 6 11 1 17 -2 13 -5z m786 -89 c29 -42 36
-60 31 -80 -3 -14 -12 -25 -20 -25 -7 0 -29 -9 -48 -21 -23 -14 -47 -19 -73
-17 l-38 4 28 12 c15 6 27 13 27 16 0 2 -23 4 -51 4 -28 0 -56 5 -62 11 -6 6
-26 11 -45 11 -22 0 -32 4 -30 13 3 7 37 16 82 22 43 6 75 13 71 17 -4 3 11 4
32 2 39 -5 74 9 59 23 -5 4 -11 2 -13 -4 -3 -7 -19 -13 -36 -12 -31 1 -31 1
-7 9 14 4 18 8 9 9 -9 1 -31 -4 -48 -10 -27 -10 -36 -9 -49 4 -14 15 -13 17 9
25 13 6 40 17 59 25 58 26 72 21 113 -38z m-820 18 c33 -26 51 -58 42 -73 -9
-14 -69 -20 -76 -9 -5 9 -14 9 -37 0 -30 -13 -77 -5 -190 30 -29 9 -56 8 -117
-8 -14 -3 -12 1 9 15 16 11 48 23 72 27 24 3 44 10 44 15 0 5 -15 4 -32 -1
-38 -11 -54 -12 -45 -3 14 14 127 32 208 33 79 1 89 -1 122 -26z m1055 -40 l3
-63 -31 0 c-16 0 -30 4 -30 10 0 5 8 7 18 4 9 -3 6 2 -8 10 -22 13 -22 15 -6
16 20 0 20 0 0 15 -18 14 -18 14 11 16 21 1 24 3 10 6 -23 6 -55 32 -55 45 0
5 19 8 43 6 l42 -3 3 -62z m-503 45 c67 -15 69 -16 55 -33 -14 -17 -76 -20
-85 -5 -6 10 -71 7 -154 -6 -33 -5 -43 4 -31 26 15 28 133 38 215 18z m-360
-8 c3 -5 -3 -10 -14 -10 -12 0 -21 5 -21 10 0 6 6 10 14 10 8 0 18 -4 21 -10z
m75 -31 c0 -5 -11 -9 -25 -9 -14 0 -25 6 -25 14 0 9 8 12 25 8 14 -2 25 -8 25
-13z m-75 2 c3 -5 2 -12 -3 -15 -12 -7 -52 4 -52 15 0 12 47 12 55 0z m-75
-11 c0 -15 -27 -23 -47 -15 -16 7 -15 9 7 15 36 11 40 11 40 0z m367 -9 c13
-1 34 -56 26 -65 -14 -14 -72 -5 -85 12 -10 14 -25 19 -65 18 -54 -1 -69 5
-61 26 4 9 29 13 89 12 46 -1 89 -2 96 -3z m-905 -13 c3 -9 18 -10 66 -1 37 7
72 8 89 3 15 -5 51 -15 78 -23 45 -14 47 -15 18 -16 -31 -1 -59 -21 -29 -21
23 0 20 -21 -4 -27 -11 -3 -20 -11 -20 -19 0 -7 -12 -17 -27 -20 -16 -4 -34
-11 -40 -17 -21 -16 -15 7 12 43 29 40 29 40 10 40 -8 0 -23 -17 -34 -39 -18
-35 -33 -45 -94 -65 -9 -3 -29 -1 -43 4 -17 7 -32 6 -47 -1 -21 -12 -21 -11
-4 8 9 11 17 24 17 29 0 5 28 24 63 42 53 27 57 31 27 26 -19 -3 -60 -14 -90
-24 -58 -20 -64 -18 -75 18 -5 17 -2 22 12 22 10 0 36 11 58 24 48 29 52 30
57 14z m683 2 c4 -6 -6 -10 -22 -10 -22 0 -25 2 -13 10 19 12 27 12 35 0z
m-65 -10 c0 -5 -11 -10 -24 -10 -14 0 -28 5 -31 10 -4 6 7 10 24 10 17 0 31
-4 31 -10z m728 -19 c9 -24 7 -32 -9 -47 -18 -17 -19 -16 -19 29 0 53 13 61
28 18z m-808 15 c0 -9 -40 -13 -46 -5 -3 5 6 9 20 9 14 0 26 -2 26 -4z m144
-12 c22 -9 10 -24 -20 -24 -23 0 -31 10 -17 23 8 9 17 9 37 1z m-214 -12 c0
-13 -12 -22 -22 -16 -10 6 -1 24 13 24 5 0 9 -4 9 -8z m150 -2 c0 -5 -11 -10
-25 -10 -14 0 -25 5 -25 10 0 6 11 10 25 10 14 0 25 -4 25 -10z m-82 -7 c-10
-2 -26 -2 -35 0 -10 3 -2 5 17 5 19 0 27 -2 18 -5z m292 -9 c0 -15 -92 -13
-97 2 -3 8 13 11 47 11 32 -1 50 -5 50 -13z m-290 -14 c0 -5 -11 -10 -25 -10
-14 0 -25 5 -25 10 0 6 11 10 25 10 14 0 25 -4 25 -10z m90 0 c0 -5 -13 -10
-30 -10 -16 0 -30 5 -30 10 0 6 14 10 30 10 17 0 30 -4 30 -10z m75 0 c-3 -5
-17 -10 -31 -10 -13 0 -24 5 -24 10 0 6 14 10 31 10 17 0 28 -4 24 -10z m-242
-7 c-7 -2 -19 -2 -25 0 -7 3 -2 5 12 5 14 0 19 -2 13 -5z m467 -4 c109 12 158
-1 131 -33 -10 -12 -8 -16 9 -21 12 -4 26 -2 33 3 7 5 34 15 60 22 37 10 54
10 74 1 18 -8 29 -9 37 -1 5 5 21 10 35 10 19 0 22 -3 13 -12 -8 -8 -9 -15 -1
-25 13 -15 45 -17 54 -3 12 19 22 10 17 -16 -5 -26 -5 -27 -76 -21 -77 5 -145
-1 -127 -12 6 -4 34 -6 61 -5 28 1 50 -2 50 -7 0 -5 -19 -10 -42 -10 -24 -1
-58 -2 -75 -3 -33 -2 -45 8 -20 17 6 2 -8 10 -33 16 -71 19 -100 32 -110 52
-8 13 -28 19 -87 24 -85 8 -96 11 -87 26 3 6 15 6 27 2 12 -4 38 -6 57 -4z
m-590 -19 c0 -5 7 -7 15 -4 10 4 15 0 15 -12 0 -24 -17 -51 -26 -41 -4 3 -1
13 6 22 18 22 4 19 -80 -19 -155 -69 -195 -81 -195 -56 0 8 36 33 85 58 47 24
89 47 95 53 12 12 85 12 85 -1z m210 6 c0 -8 -51 -13 -56 -5 -3 5 9 9 25 9 17
0 31 -2 31 -4z m75 -6 c-3 -5 -17 -10 -31 -10 -14 0 -22 4 -19 10 3 6 17 10
31 10 14 0 22 -4 19 -10z m83 3 c-10 -2 -28 -2 -40 0 -13 2 -5 4 17 4 22 1 32
-1 23 -4z m112 -14 c0 -5 -4 -9 -10 -9 -5 0 -10 7 -10 16 0 8 5 12 10 9 6 -3
10 -10 10 -16z m-390 0 c0 -6 8 -8 19 -4 14 4 21 0 26 -16 9 -27 -7 -43 -34
-34 -28 8 -27 22 2 28 19 4 18 4 -5 6 -18 0 -28 7 -28 16 0 8 5 15 10 15 6 0
10 -5 10 -11z m115 -9 c4 -6 -6 -10 -22 -10 -22 0 -25 2 -13 10 19 12 27 12
35 0z m213 -9 c3 -10 0 -12 -12 -8 -10 4 -32 8 -49 8 l-32 1 30 8 c40 10 57 8
63 -9z m249 -17 c12 -14 36 -27 53 -30 17 -4 33 -10 35 -15 10 -14 -58 10 -96
36 -25 16 -53 25 -81 26 -24 0 -52 5 -63 10 -13 6 6 7 55 3 62 -5 79 -11 97
-30z m-372 16 c-3 -5 -12 -7 -20 -3 -21 7 -19 13 6 13 11 0 18 -4 14 -10z
m-245 -40 l-8 -35 -1 31 c-1 17 2 34 6 37 11 12 12 3 3 -33z m200 16 c0 -8 -4
-18 -10 -21 -5 -3 -10 3 -10 14 0 12 5 21 10 21 6 0 10 -6 10 -14z m121 4 c11
0 17 -4 14 -10 -11 -17 -65 -12 -65 6 0 11 5 14 16 10 9 -3 25 -6 35 -6z m197
3 c-10 -2 -28 -2 -40 0 -13 2 -5 4 17 4 22 1 32 -1 23 -4z m557 -3 c-28 -12
-57 -12 -50 0 3 6 21 10 38 9 27 0 29 -2 12 -9z m-925 -4 c0 -2 -7 -7 -16 -10
-8 -3 -12 -2 -9 4 6 10 25 14 25 6z m98 -24 c2 -13 -2 -22 -10 -23 -7 0 -4 -4
7 -9 19 -8 19 -9 -1 -9 -15 -1 -24 7 -28 24 -4 14 -4 30 0 36 9 16 29 5 32
-19z m212 -3 c0 -11 -4 -17 -10 -14 -5 3 -10 13 -10 21 0 8 5 14 10 14 6 0 10
-9 10 -21z m135 11 c4 -6 -13 -10 -44 -10 -28 0 -51 5 -51 10 0 6 20 10 44 10
25 0 48 -4 51 -10z m-625 -10 c0 -5 -5 -10 -11 -10 -5 0 -7 5 -4 10 3 6 8 10
11 10 2 0 4 -4 4 -10z m365 -9 c-8 -13 -65 -15 -65 -2 0 6 15 11 33 13 38 4
41 3 32 -11z m750 9 c-3 -5 -22 -10 -41 -10 -21 0 -33 4 -29 10 3 6 22 10 41
10 21 0 33 -4 29 -10z m-932 -7 c-7 -2 -19 -2 -25 0 -7 3 -2 5 12 5 14 0 19
-2 13 -5z m489 -32 l4 -27 -64 8 c-82 10 -96 22 -19 16 31 -3 57 -1 57 4 0 4
-17 8 -37 9 -77 2 -91 17 -17 17 71 0 72 0 76 -27z m-667 9 c3 -6 -4 -10 -17
-10 -18 0 -20 2 -8 10 19 12 18 12 25 0z m235 0 c0 -5 -11 -10 -25 -10 -14 0
-25 5 -25 10 0 6 11 10 25 10 14 0 25 -4 25 -10z m865 0 c-11 -5 -45 -8 -75
-8 -53 1 -54 1 -15 8 22 4 56 7 75 8 28 0 31 -1 15 -8z m-1078 -22 c-3 -8 -6
-5 -6 6 -1 11 2 17 5 13 3 -3 4 -12 1 -19z m71 15 c-10 -2 -26 -2 -35 0 -10 3
-2 5 17 5 19 0 27 -2 18 -5z m69 1 c-3 -3 -12 -4 -19 -1 -8 3 -5 6 6 6 11 1
17 -2 13 -5z m193 -4 c0 -5 -11 -10 -25 -10 -14 0 -25 5 -25 10 0 6 11 10 25
10 14 0 25 -4 25 -10z m110 -15 c19 -7 59 -13 89 -14 30 0 58 -4 63 -9 4 -4
-8 -6 -28 -4 -25 3 -35 1 -30 -6 4 -6 13 -9 21 -6 7 3 22 1 32 -5 14 -8 0 -10
-59 -11 -51 0 -78 -4 -78 -11 0 -8 18 -10 58 -6 31 3 66 2 77 -3 11 -5 16 -9
10 -10 -28 -5 -117 2 -172 12 -66 12 -88 33 -28 26 19 -2 35 -1 35 4 0 4 -16
10 -35 14 -44 8 -46 22 -2 17 24 -3 29 -2 17 6 -8 6 -23 11 -32 11 -9 0 -20 5
-23 10 -8 12 30 6 85 -15z m-620 5 c0 -5 -2 -10 -4 -10 -3 0 -8 5 -11 10 -3 6
-1 10 4 10 6 0 11 -4 11 -10z m1070 -2 c0 -4 -13 -8 -30 -8 -16 0 -30 5 -30
10 0 6 14 9 30 8 17 -1 30 -6 30 -10z m200 -3 c0 -11 -12 -15 -42 -16 l-43 -2
35 -7 c35 -6 31 -12 -15 -24 -11 -3 -1 -4 23 -2 44 4 57 -8 21 -19 -31 -10
-209 5 -209 17 0 7 25 9 73 6 39 -3 63 -3 52 -1 -11 3 -24 10 -30 15 -7 7 -1
9 18 4 16 -4 27 -2 27 4 0 5 -9 10 -20 10 -11 0 -20 4 -20 10 0 5 28 11 63 13
34 2 63 4 65 5 1 1 2 -5 2 -13z m-1120 -16 c0 -5 -7 -9 -15 -9 -15 0 -20 12
-9 23 8 8 24 -1 24 -14z m280 11 c11 -7 1 -9 -33 -8 -26 1 -50 5 -53 10 -7 11
68 10 86 -2z m-756 -69 c11 1 34 -3 49 -9 16 -7 43 -12 62 -12 19 0 37 -4 40
-10 3 -5 27 -10 53 -11 26 -1 58 -4 71 -8 34 -9 39 -31 7 -31 -14 0 -26 5 -26
10 0 6 -5 10 -11 10 -5 0 -7 -4 -4 -10 4 -7 -122 -10 -369 -10 -361 0 -376 1
-376 19 0 14 14 22 59 35 40 11 64 24 75 41 21 31 30 31 44 0 9 -19 19 -25 42
-25 38 0 73 -17 64 -31 -3 -6 -12 -8 -20 -5 -7 3 -16 0 -20 -6 -5 -7 4 -8 27
-3 36 8 99 8 219 1 l75 -4 -68 7 c-87 10 -95 18 -63 66 14 21 26 43 27 49 1 6
6 -6 11 -27 8 -30 15 -38 32 -36z m386 59 c0 -5 -4 -10 -10 -10 -5 0 -10 5
-10 10 0 6 5 10 10 10 6 0 10 -4 10 -10z m212 -25 c2 -16 -3 -21 -31 -23 -24
-3 -32 0 -29 10 3 7 15 12 26 10 12 -2 22 2 22 8 0 6 -4 8 -10 5 -11 -7 -14 8
-3 18 9 10 21 -4 25 -28z m48 25 c0 -5 -7 -10 -15 -10 -8 0 -15 5 -15 10 0 6
7 10 15 10 8 0 15 -4 15 -10z m193 -4 c-3 -11 -53 -18 -53 -7 0 14 14 22 35
19 11 -2 19 -7 18 -12z m-413 -16 c0 -5 -17 -11 -37 -12 l-38 -1 38 -4 c50 -6
48 -23 -3 -23 -33 0 -40 3 -40 19 0 15 8 21 33 24 17 2 35 5 40 5 4 1 7 -2 7
-8z m329 1 c12 -8 9 -11 -11 -16 -14 -4 -37 -5 -49 -2 -19 3 -16 5 11 7 l35 3
-35 7 -35 7 35 2 c19 0 42 -3 49 -8z m-279 -10 c0 -5 -7 -11 -15 -15 -15 -5
-20 5 -8 17 9 10 23 9 23 -2z m170 1 c0 -13 -12 -22 -22 -16 -10 6 -1 24 13
24 5 0 9 -4 9 -8z m200 -12 c0 -19 -31 -23 -48 -6 -15 15 -14 16 16 16 18 0
32 -5 32 -10z m420 0 c0 -5 -4 -10 -10 -10 -5 0 -10 5 -10 10 0 6 5 10 10 10
6 0 10 -4 10 -10z m-130 -10 c0 -5 -5 -10 -11 -10 -5 0 -7 5 -4 10 3 6 8 10
11 10 2 0 4 -4 4 -10z m-1230 -10 c0 -15 -47 -31 -67 -23 -14 6 -12 9 12 19
37 16 55 17 55 4z m855 0 c-29 -13 -94 -13 -75 0 8 5 33 9 55 9 31 0 36 -2 20
-9z m-285 -10 c0 -5 -4 -10 -9 -10 -6 0 -13 5 -16 10 -3 6 1 10 9 10 9 0 16
-4 16 -10z m130 1 c2 -1 -1 -6 -7 -12 -6 -6 -22 -7 -38 -3 -44 11 -6 24 45 15z
m40 -1 c0 -5 -4 -10 -10 -10 -5 0 -10 5 -10 10 0 6 5 10 10 10 6 0 10 -4 10
-10z m892 0 c42 0 57 -3 52 -11 -8 -14 -199 -3 -223 12 -11 7 3 9 48 5 35 -3
91 -6 123 -6z m-1112 -10 c0 -12 -44 -12 -80 0 -20 6 -14 8 28 9 28 1 52 -3
52 -9z m420 0 c0 -5 -6 -10 -14 -10 -8 0 -18 5 -21 10 -3 6 3 10 14 10 12 0
21 -4 21 -10z m185 -9 c88 -8 89 -12 5 -15 -77 -4 -89 -7 -55 -16 l30 -8 -30
-1 c-17 0 -35 3 -40 8 -6 5 -23 11 -40 14 -26 3 -24 4 10 6 42 1 39 16 -5 24
-14 2 -9 2 10 0 19 -2 71 -8 115 -12z m-260 -1 c-28 -12 -95 -12 -95 0 0 6 25
10 58 9 41 0 51 -3 37 -9z m-415 -4 c0 -3 -4 -8 -10 -11 -5 -3 -10 -1 -10 4 0
6 5 11 10 11 6 0 10 -2 10 -4z m120 -6 c0 -5 -4 -10 -10 -10 -5 0 -10 5 -10
10 0 6 5 10 10 10 6 0 10 -4 10 -10z m96 0 c23 0 33 -4 29 -11 -6 -9 -80 -11
-98 -2 -13 8 5 25 20 19 8 -3 30 -6 49 -6z m84 0 c0 -5 -7 -10 -15 -10 -8 0
-15 5 -15 10 0 6 7 10 15 10 8 0 15 -4 15 -10z m567 -12 c-3 -8 -6 -5 -6 6 -1
11 2 17 5 13 3 -3 4 -12 1 -19z m-789 -5 c-2 -14 -15 -19 -51 -21 -31 -2 -47
1 -47 8 0 8 16 11 45 8 51 -4 62 9 13 15 -32 4 -32 4 5 5 32 2 38 -1 35 -15z
m409 11 c-3 -3 -12 -4 -19 -1 -8 3 -5 6 6 6 11 1 17 -2 13 -5z m748 -4 c-3 -5
-17 -7 -30 -4 -13 3 -32 1 -43 -5 -11 -6 -22 -7 -26 -4 -3 3 -36 5 -74 4 -39
-1 -62 2 -54 7 19 13 235 15 227 2z m-805 -9 c0 -8 -90 -3 -99 5 -2 2 19 4 47
4 29 0 52 -4 52 -9z m-310 -11 c0 -5 -2 -10 -4 -10 -3 0 -8 5 -11 10 -3 6 -1
10 4 10 6 0 11 -4 11 -10z m177 4 c-3 -3 -12 -4 -19 -1 -8 3 -5 6 6 6 11 1 17
-2 13 -5z m426 -1 c-13 -2 -33 -2 -45 0 -13 2 -3 4 22 4 25 0 35 -2 23 -4z
m519 -60 c2 -21 2 -79 0 -130 l-3 -92 -417 2 c-229 1 -685 1 -1012 -1 -327 -2
-611 -3 -631 -3 l-37 1 -1 125 0 125 487 3 c268 1 740 3 1049 5 l562 2 3 -37z"/>
<path d="M1033 3609 c-60 -22 -44 -99 21 -99 25 0 36 6 46 25 25 47 -16 93
-67 74z m46 -31 c11 -29 -4 -58 -29 -58 -13 0 -22 9 -26 25 -12 47 39 77 55
33z"/>
<path d="M1620 3481 c-116 -51 -320 -151 -320 -156 0 -8 72 24 405 180 69 32
-7 11 -85 -24z"/>
<path d="M1622 3338 c-14 -14 -16 -68 -3 -68 4 0 6 11 3 25 -2 14 0 25 6 25
16 0 25 -39 13 -54 -12 -15 -4 -76 10 -76 10 0 12 12 11 48 -1 26 4 27 38 7
l25 -14 -29 -1 c-36 0 -32 -5 12 -13 40 -8 42 7 5 31 -21 13 -27 24 -25 43 5
44 -39 74 -66 47z"/>
<path d="M1530 3234 c0 -8 5 -12 10 -9 6 3 10 10 10 16 0 5 -4 9 -10 9 -5 0
-10 -7 -10 -16z"/>
<path d="M1675 3200 c8 -13 -13 -42 -25 -35 -5 3 -5 -8 0 -25 5 -19 5 -30 -1
-30 -6 0 -7 -5 -4 -10 4 -6 1 -17 -5 -25 -8 -10 -9 -15 -2 -15 20 0 42 43 35
69 -9 39 10 15 23 -27 8 -28 7 -50 -3 -90 -8 -29 -12 -56 -9 -61 3 -4 -34 -16
-82 -25 l-87 -17 -17 21 c-10 12 -18 28 -18 36 0 8 -4 14 -10 14 -17 0 -11
-28 13 -56 l24 -27 71 11 c39 7 86 12 105 12 25 0 44 9 66 29 29 27 31 34 31
96 0 81 -19 119 -74 147 -21 11 -35 14 -31 8z m55 -45 c8 -10 9 -19 4 -25 -5
-5 -16 2 -27 16 -14 19 -15 24 -4 24 8 0 20 -7 27 -15z m15 -45 c-3 -5 -1 -10
6 -10 7 0 9 -3 6 -6 -3 -4 -2 -15 3 -25 8 -13 6 -21 -7 -31 -19 -14 -28 -38
-15 -38 4 0 14 6 22 13 8 6 5 1 -6 -13 -12 -14 -19 -31 -16 -39 4 -12 3 -12
-10 -1 -16 15 -22 50 -8 50 5 0 7 7 4 15 -4 8 -2 15 3 15 5 0 9 14 8 30 0 17
-4 30 -10 30 -5 0 -3 5 5 10 19 12 23 12 15 0z"/>
<path d="M1566 3081 c-4 -5 -2 -12 3 -15 5 -4 12 -2 15 3 4 5 2 12 -3 15 -5 4
-12 2 -15 -3z"/>
<path d="M1555 3050 c-34 -5 -40 -7 -20 -9 37 -2 72 -21 39 -21 -24 0 -48 -24
-58 -57 -6 -17 -3 -23 9 -23 9 0 13 4 10 10 -3 6 1 7 9 4 9 -3 13 -10 10 -15
-7 -12 0 -11 46 7 27 11 40 22 40 35 0 12 7 19 20 19 11 0 20 5 20 10 0 6 -9
10 -19 10 -11 0 -22 4 -26 10 -3 5 -13 6 -23 3 -15 -6 -15 -5 -3 10 7 9 10 16
5 15 -5 0 -31 -4 -59 -8z"/>
<path d="M1064 3068 c1 -30 46 -39 46 -10 0 18 -18 32 -39 32 -5 0 -8 -10 -7
-22z"/>
<path d="M1065 2744 c-27 -13 -39 -21 -25 -18 29 8 80 32 80 39 0 6 4 8 -55
-21z"/>
<path d="M242 2358 c3 -7 16 -15 31 -19 16 -4 25 -3 21 2 -3 5 -12 9 -20 9 -8
0 -14 5 -14 10 0 6 -5 10 -11 10 -6 0 -9 -5 -7 -12z"/>
<path d="M364 2284 c-4 -10 -12 -22 -18 -26 -7 -5 -7 -8 -1 -8 6 1 19 7 29 15
15 12 17 18 8 27 -9 9 -13 7 -18 -8z"/>
<path d="M510 1217 c0 -26 -29 -57 -77 -81 -27 -14 -37 -14 -77 -2 -25 8 -44
10 -41 5 3 -5 23 -14 45 -20 33 -10 45 -9 77 6 48 22 83 54 83 75 0 9 2 19 5
22 9 9 70 -26 102 -59 16 -17 52 -38 79 -47 64 -21 190 -23 209 -4 4 3 -31 6
-77 5 -90 -1 -158 21 -208 67 -28 26 -86 56 -107 56 -7 0 -13 -10 -13 -23z"/>
<path d="M281 1135 c-1 -20 -36 -59 -118 -130 -38 -33 -47 -37 -80 -31 l-38 6
34 -15 c18 -8 35 -15 37 -15 2 0 29 23 59 50 30 28 59 50 63 50 14 0 54 69 49
87 -4 16 -5 15 -6 -2z"/>
<path d="M1010 1090 c0 -5 5 -10 10 -10 6 0 10 5 10 10 0 6 -4 10 -10 10 -5 0
-10 -4 -10 -10z"/>
<path d="M1016 1061 c-8 -12 3 -41 15 -41 12 0 12 37 0 45 -5 3 -12 1 -15 -4z"/>
<path d="M402 1046 c-43 -12 -91 -56 -92 -85 0 -8 -7 -23 -17 -33 -15 -17 -15
-21 2 -58 10 -22 30 -46 44 -53 19 -9 25 -20 23 -36 -1 -13 5 -32 14 -42 19
-21 41 -15 24 6 -15 18 23 40 62 37 21 -2 26 1 22 13 -4 9 -19 15 -41 15 -19
0 -43 5 -53 10 -18 10 -18 11 6 35 31 31 32 47 2 36 -13 -5 -22 -16 -20 -25 2
-9 -1 -16 -7 -16 -5 0 -16 -3 -25 -6 -14 -5 -46 40 -46 66 0 6 33 26 73 45 43
20 64 34 52 36 -25 2 -25 2 -59 -7 l-29 -7 19 26 c14 18 32 27 69 32 70 11 87
8 113 -21 12 -14 29 -24 36 -21 8 3 22 -1 33 -8 17 -13 16 -14 -12 -15 -41 0
-115 -22 -92 -28 9 -2 33 2 52 8 37 12 61 5 102 -33 13 -11 26 -18 29 -15 8 9
-27 59 -37 52 -5 -3 -6 1 -3 9 6 17 -36 47 -66 47 -11 0 -20 4 -20 8 0 15 -58
42 -87 41 -15 -1 -47 -7 -71 -13z"/>
<path d="M1022 988 c6 -18 28 -21 28 -4 0 9 -7 16 -16 16 -9 0 -14 -5 -12 -12z"/>
<path d="M435 930 c-3 -5 1 -10 9 -10 9 0 16 5 16 10 0 6 -4 10 -9 10 -6 0
-13 -4 -16 -10z"/>
<path d="M493 757 c-40 -12 -73 -25 -73 -30 0 -9 4 -8 93 18 31 10 57 22 57
26 0 5 -1 8 -2 8 -2 -1 -36 -11 -75 -22z"/>
<path d="M1202 1827 c-13 -15 -4 -31 22 -40 17 -7 17 -6 5 9 -12 15 -11 16 11
10 23 -7 24 -6 7 7 -14 11 -15 16 -5 20 7 3 3 6 -8 6 -12 1 -26 -5 -32 -12z"/>
<path d="M1780 1290 c0 -5 7 -10 15 -10 8 0 15 5 15 10 0 6 -7 10 -15 10 -8 0
-15 -4 -15 -10z"/>
<path d="M1785 1230 c-3 -5 -1 -10 4 -10 6 0 11 5 11 10 0 6 -2 10 -4 10 -3 0
-8 -4 -11 -10z"/>
<path d="M1800 1130 c-15 -29 -5 -71 16 -63 13 5 13 7 0 22 -11 12 -12 21 -4
34 5 10 8 21 5 24 -3 2 -11 -5 -17 -17z"/>
<path d="M1770 1064 c0 -10 -7 -26 -17 -36 -9 -10 -11 -18 -6 -18 22 0 49 55
33 65 -6 4 -10 -2 -10 -11z"/>
<path d="M1720 1039 c0 -5 5 -7 10 -4 6 3 10 8 10 11 0 2 -4 4 -10 4 -5 0 -10
-5 -10 -11z"/>
<path d="M1790 1024 c0 -8 5 -12 10 -9 6 3 10 10 10 16 0 5 -4 9 -10 9 -5 0
-10 -7 -10 -16z"/>
<path d="M1710 989 c0 -5 5 -7 10 -4 6 3 10 8 10 11 0 2 -4 4 -10 4 -5 0 -10
-5 -10 -11z"/>
<path d="M1817 983 c-4 -3 -7 -11 -7 -17 0 -6 5 -5 12 2 6 6 9 14 7 17 -3 3
-9 2 -12 -2z"/>
<path d="M1620 915 c0 -19 27 -26 39 -11 9 11 6 15 -14 18 -16 3 -25 1 -25 -7z"/>
<path d="M1174 754 c-18 -14 -18 -15 4 -4 12 6 22 13 22 15 0 8 -5 6 -26 -11z"/>
<path d="M830 619 c0 -5 5 -7 10 -4 6 3 10 8 10 11 0 2 -4 4 -10 4 -5 0 -10
-5 -10 -11z"/>
<path d="M1485 420 c3 -5 15 -10 26 -10 10 0 19 5 19 10 0 6 -12 10 -26 10
-14 0 -23 -4 -19 -10z"/>
<path d="M615 332 c28 -13 135 -21 135 -10 0 4 -24 8 -52 8 -29 0 -64 3 -78 5
-21 5 -22 4 -5 -3z"/>
<path d="M1401 222 c-70 -35 -56 -117 22 -135 48 -12 110 17 115 51 5 35 -16
78 -44 91 -34 15 -53 14 -93 -7z m80 -5 c42 -32 22 -117 -28 -117 -70 0 -86
93 -20 120 29 11 29 11 48 -3z"/>
<path d="M612 218 c-11 -4 -12 -7 -3 -7 10 -1 12 -17 9 -71 l-4 -70 53 0 c39
0 55 4 60 15 7 19 -5 34 -15 19 -4 -6 -19 -14 -34 -18 -25 -6 -28 -3 -28 17 0
30 10 40 26 26 10 -9 15 -7 20 4 8 23 -5 41 -20 28 -16 -14 -26 -4 -26 26 0
18 5 23 25 23 14 0 25 -4 25 -10 0 -5 5 -10 10 -10 6 0 10 9 10 20 0 18 -5 20
-45 18 -25 -2 -53 -6 -63 -10z"/>
<path d="M954 219 c-3 -5 2 -9 10 -9 13 0 16 -12 16 -53 0 -29 -5 -58 -12 -65
-17 -17 -9 -19 40 -14 39 4 61 22 27 22 -9 0 -15 10 -15 26 0 19 4 25 15 21
17 -7 29 8 19 24 -4 8 -9 7 -15 -2 -8 -12 -10 -12 -18 0 -14 22 -3 39 31 43
24 4 32 0 41 -19 l11 -25 8 23 c6 15 4 25 -4 31 -17 10 -147 8 -154 -3z"/>
<path d="M1170 202 c-16 -17 -30 -39 -30 -50 0 -56 86 -90 148 -58 26 13 32
23 32 49 -1 47 -28 77 -78 84 -36 5 -45 2 -72 -25z m99 -6 c7 -8 11 -32 9 -53
-3 -37 -4 -38 -43 -38 -33 0 -41 4 -48 25 -14 40 7 80 42 80 15 0 34 -6 40
-14z"/>
<path d="M1576 222 c16 -10 26 -110 12 -118 -19 -12 26 -23 70 -17 41 5 83 45
63 57 -5 3 -16 -6 -26 -20 -11 -17 -24 -24 -38 -22 -20 3 -22 9 -22 66 l0 62
-35 0 c-19 0 -30 -4 -24 -8z"/>
<path d="M210 200 c0 -11 5 -20 10 -20 6 0 10 7 10 15 0 9 9 15 21 15 19 0 20
-5 17 -65 -3 -60 -1 -65 18 -65 19 0 20 5 16 60 -4 49 -1 61 12 66 10 4 25 -1
36 -11 19 -17 20 -17 20 3 0 21 -5 22 -80 22 -73 0 -80 -2 -80 -20z"/>
<path d="M409 211 c10 -6 12 -26 9 -73 -4 -63 -3 -63 22 -62 19 1 24 6 21 20
-9 45 -6 49 32 52 37 3 37 3 37 -35 0 -33 3 -38 25 -39 14 -1 25 2 25 7 0 5
-5 9 -11 9 -7 0 -10 23 -7 65 3 61 2 65 -19 65 -18 0 -21 -5 -20 -27 2 -26 -1
-28 -37 -31 -38 -3 -38 -3 -34 27 4 29 2 31 -26 31 -22 0 -27 -3 -17 -9z"/>
<path d="M1832 118 c-18 -18 -14 -28 8 -28 11 0 20 6 20 14 0 21 -15 27 -28
14z"/>
</g>
</svg>
