<?xml version="1.0" standalone="no"?>
<!DOCTYPE svg PUBLIC "-//W3C//DTD SVG 20010904//EN"
 "http://www.w3.org/TR/2001/REC-SVG-20010904/DTD/svg10.dtd">
<svg version="1.0" xmlns="http://www.w3.org/2000/svg"
 width="224.000000pt" height="385.000000pt" viewBox="0 0 224.000000 385.000000"
 preserveAspectRatio="xMidYMid meet">
<metadata>
Created by potrace 1.16, written by Peter Selinger 2001-2019
</metadata>
<g transform="translate(0.000000,385.000000) scale(0.100000,-0.100000)"
fill="#000000" stroke="none">
<path d="M34 3839 c-6 -10 -6 -1280 0 -1287 3 -3 6 124 6 281 0 237 2 287 14
287 9 0 13 13 13 43 0 63 14 130 31 150 8 9 12 20 8 24 -4 4 -10 3 -14 -3 -4
-6 -16 -14 -27 -17 -17 -6 -20 -2 -22 28 -1 20 2 33 8 29 5 -3 7 -10 4 -15 -4
-5 14 -9 39 -9 25 0 46 -4 46 -10 0 -5 -4 -10 -10 -10 -5 0 -10 -7 -10 -15 0
-9 9 -15 25 -15 15 0 25 -6 25 -14 0 -15 -35 -16 -58 -2 -7 4 -12 1 -12 -9 0
-9 7 -16 18 -14 32 3 42 -1 42 -17 0 -11 5 -14 16 -10 8 3 24 1 35 -4 13 -7
19 -7 19 0 0 5 -6 10 -13 10 -7 0 -19 16 -26 35 -15 42 -5 67 16 40 12 -18 13
-18 13 3 0 22 -24 30 -35 12 -10 -15 -35 -12 -35 5 0 9 9 15 23 15 17 0 19 2
7 10 -8 5 -26 6 -40 3 -24 -6 -24 -5 -7 14 18 21 24 63 8 63 -5 0 -7 -8 -4
-19 6 -23 -25 -61 -49 -61 -24 0 -23 8 5 31 19 16 19 18 5 19 -10 0 -18 7 -18
15 0 8 3 14 8 14 23 -4 33 4 12 10 -19 6 -29 3 -42 -13 -14 -16 -18 -18 -18
-5 0 8 6 24 14 34 12 17 17 18 40 7 43 -19 54 -14 17 9 -18 11 -39 18 -47 15
-10 -4 -12 10 -10 62 3 71 21 122 43 122 7 0 13 9 13 20 0 11 -3 19 -7 19 -22
-4 -24 3 -8 27 9 15 13 24 7 20 -6 -3 -18 -3 -28 1 -16 6 -16 7 2 20 16 12 16
13 1 13 -29 0 -19 20 11 21 15 0 37 2 50 5 14 2 21 0 17 -6 -3 -5 -14 -10 -24
-10 -10 0 -20 -3 -24 -6 -8 -8 18 -34 33 -34 7 0 9 -8 5 -20 -3 -10 1 -32 9
-47 10 -19 15 -22 16 -11 0 9 -4 20 -10 23 -12 8 -12 16 -1 34 11 17 51 5 51
-15 0 -8 -4 -12 -10 -9 -6 4 -10 -6 -10 -24 0 -16 -6 -31 -12 -34 -9 -3 -10
-8 -2 -16 6 -6 8 -26 6 -44 l-5 -32 -11 39 c-6 22 -18 42 -26 44 -13 5 -13 3
0 -13 16 -20 12 -20 -45 -1 -11 4 -3 -2 18 -14 42 -23 48 -45 13 -48 -19 -1
-23 2 -19 18 3 11 0 20 -6 20 -5 0 -8 -6 -5 -14 3 -8 1 -17 -5 -21 -17 -10
-13 -25 8 -25 11 0 22 -10 26 -22 7 -22 8 -21 14 7 4 20 9 26 14 18 5 -7 6
-17 3 -22 -3 -5 1 -14 9 -21 11 -9 15 -9 15 -1 0 7 5 9 10 6 6 -3 10 1 10 10
0 21 39 16 53 -7 8 -12 7 -21 -3 -33 -8 -10 -13 -33 -11 -56 1 -21 -2 -39 -7
-39 -13 0 -19 26 -18 72 1 21 -2 34 -6 30 -5 -5 -9 -25 -10 -45 -1 -24 -6 -37
-15 -37 -7 0 -13 -7 -13 -16 0 -8 4 -13 9 -9 5 3 12 1 15 -4 4 -5 12 -8 19 -7
26 4 37 19 37 52 0 19 5 43 12 53 20 32 -4 71 -43 71 -20 0 -29 4 -26 13 2 6
11 11 20 9 8 -1 19 2 22 8 4 7 0 10 -10 8 -26 -4 -30 19 -6 32 27 14 27 34 1
27 -16 -4 -18 -2 -11 11 4 10 7 23 5 30 -1 7 0 8 3 2 2 -5 10 -7 15 -4 7 4 8
2 4 -4 -11 -18 19 -15 34 3 7 9 22 13 34 10 12 -3 15 -2 8 1 -10 5 -8 12 9 30
12 13 26 24 31 24 14 0 9 -22 -9 -36 -10 -7 -13 -14 -6 -14 6 0 14 4 17 8 3 5
19 7 36 4 23 -3 30 -9 30 -28 0 -27 17 -41 33 -25 8 8 8 11 -1 11 -18 0 -15
59 3 66 8 4 15 12 15 20 0 8 5 14 10 14 6 0 10 -7 10 -15 0 -8 -4 -15 -9 -15
-5 0 -12 -7 -15 -16 -4 -10 -2 -13 6 -8 8 5 9 -1 4 -20 -4 -18 -3 -25 4 -21 5
3 10 11 10 17 0 11 39 63 48 63 3 0 6 -10 7 -22 1 -14 -4 -23 -13 -23 -7 0
-16 -9 -19 -20 -3 -11 -9 -20 -13 -20 -15 0 -21 -33 -14 -77 4 -31 11 -43 23
-43 9 0 24 -12 32 -27 l17 -26 17 26 c10 16 15 38 12 53 -3 18 0 27 12 32 24
9 30 22 25 60 -3 28 -1 33 13 30 10 -2 17 -10 15 -17 -1 -7 2 -10 8 -6 15 9
12 35 -4 35 -24 0 -29 20 -10 41 31 35 40 12 47 -121 2 -36 9 -75 15 -87 11
-20 18 -22 74 -18 79 5 106 27 90 74 -6 18 -18 39 -27 47 -19 20 -19 34 0 34
8 0 15 5 15 10 0 7 -6 7 -18 1 -21 -11 -41 2 -62 42 -12 25 -12 29 0 38 13 8
13 10 1 18 -15 10 -42 4 -53 -12 -6 -10 -38 14 -38 27 0 3 23 6 50 6 28 0 50
-4 50 -10 0 -5 7 -10 15 -10 18 0 19 -5 3 -29 -6 -10 -8 -26 -5 -35 6 -16 9
-16 29 -2 30 21 52 21 44 -1 -4 -9 -1 -20 6 -25 24 -15 38 -8 38 18 0 19 -7
28 -30 37 -35 13 -39 27 -9 27 12 0 18 -4 13 -11 -4 -7 -1 -10 7 -7 8 3 14 11
14 19 0 19 39 25 187 28 119 2 127 1 138 -19 6 -11 15 -18 21 -15 5 4 7 10 4
15 -3 4 4 10 15 13 11 3 20 3 20 0 0 -10 -30 -33 -54 -43 -28 -10 -33 -24 -14
-36 7 -4 8 -3 4 4 -4 7 -2 12 3 12 15 0 14 -26 -1 -50 -10 -16 -10 -23 4 -36
15 -15 17 -14 32 9 9 13 16 29 15 33 -5 28 2 33 27 23 23 -8 25 -7 16 4 -7 8
-9 17 -5 20 12 13 23 7 23 -13 0 -24 22 -26 44 -5 8 8 21 12 30 9 12 -5 10
-10 -11 -28 -31 -27 -27 -58 7 -49 18 5 20 2 15 -18 -7 -31 3 -46 37 -54 23
-6 26 -4 23 17 -1 12 -6 31 -10 42 -5 11 -3 21 6 27 12 8 11 12 -3 23 -22 16
-23 26 -4 26 8 0 22 -10 30 -22 9 -12 16 -19 16 -15 0 12 -33 61 -47 70 -19
12 -16 27 6 27 11 0 22 -9 26 -19 7 -23 43 -37 57 -23 6 6 6 17 -1 30 -14 26
-14 32 -1 32 6 0 10 -7 10 -15 0 -8 5 -15 10 -15 6 0 10 -12 10 -26 0 -21 4
-25 19 -21 15 4 18 -1 18 -33 0 -27 -4 -37 -12 -33 -16 6 -29 -13 -15 -22 6
-4 18 -1 26 6 12 10 18 8 30 -9 18 -26 64 -29 99 -6 29 19 45 12 38 -16 -3
-11 -3 -27 1 -35 5 -15 9 -14 37 2 18 10 38 33 45 51 17 39 32 41 36 5 2 -14
9 -28 16 -31 11 -3 12 0 3 17 -8 15 -9 27 -1 40 14 27 13 34 -5 28 -8 -4 -17
-2 -20 2 -7 13 42 20 54 8 8 -8 11 -6 11 5 0 9 -5 18 -10 20 -12 4 -2 68 11
68 5 0 6 -13 3 -29 -4 -18 2 -46 15 -76 23 -52 26 -80 11 -90 -6 -4 -10 6 -10
22 0 15 -5 35 -10 43 -7 11 -10 11 -10 2 0 -7 -4 -11 -8 -8 -13 8 -11 -28 2
-36 7 -4 4 -13 -7 -26 -9 -10 -17 -27 -17 -36 0 -14 5 -17 25 -12 27 7 35 -10
14 -31 -8 -8 -8 -13 1 -18 7 -4 14 2 17 15 4 16 8 18 14 8 14 -21 11 -24 -41
-46 -27 -12 -50 -26 -50 -32 0 -6 7 -4 16 5 20 19 40 5 30 -20 -5 -13 -13 -15
-32 -11 -24 6 -26 5 -20 -18 3 -14 2 -28 -4 -31 -5 -3 -10 -11 -10 -18 0 -6 7
-2 16 9 9 11 17 15 20 8 3 -6 11 -20 19 -30 15 -18 16 -18 36 6 19 22 22 23
30 7 14 -24 32 -21 24 3 -4 12 -2 20 5 20 19 0 23 -29 5 -46 -15 -15 -17 -15
-30 2 -13 18 -14 18 -21 -1 -11 -28 -37 -47 -46 -32 -4 6 -11 8 -15 3 -4 -5
-2 -11 5 -13 6 -3 12 -10 12 -17 0 -23 25 -66 43 -72 19 -6 21 -13 8 -33 -5
-7 -14 -10 -21 -6 -8 5 -11 1 -8 -11 2 -11 12 -19 22 -19 31 0 29 -20 -4 -32
-23 -9 -30 -18 -30 -37 0 -30 7 -32 32 -9 10 9 18 11 18 5 0 -6 -4 -13 -9 -16
-5 -3 -11 -15 -14 -26 -4 -16 -2 -18 13 -10 14 7 17 6 16 -8 0 -9 -7 -22 -15
-28 -8 -6 -11 -16 -7 -22 11 -18 26 -14 19 5 -4 11 -3 14 5 9 18 -11 15 -103
-3 -110 -8 -3 -15 -10 -15 -17 0 -6 7 -9 15 -5 9 3 15 0 15 -9 0 -8 4 -15 8
-15 5 0 7 14 4 30 -5 35 14 42 21 8 4 -20 4 -19 6 5 0 15 -5 36 -11 48 -11 17
-10 22 7 35 12 9 19 26 19 49 0 19 6 37 13 39 20 8 15 26 -7 26 -26 0 -25 3 5
36 l25 26 10 -26 c5 -15 10 -32 10 -37 0 -6 4 -8 9 -5 15 9 -10 75 -31 82 -10
3 -18 10 -18 15 0 6 9 7 20 4 26 -8 26 7 -1 31 -16 15 -19 25 -14 54 4 19 11
38 16 41 16 9 -9 60 -32 66 -11 3 -18 11 -15 19 8 22 -17 64 -36 58 -9 -2 -19
0 -23 6 -3 5 -15 10 -26 10 -10 0 -19 4 -19 8 0 4 12 7 28 6 15 -1 40 -3 56
-3 20 -1 27 -5 23 -15 -3 -8 1 -17 9 -20 9 -3 14 -12 11 -19 -5 -15 10 -47 23
-47 6 0 10 7 10 15 0 8 -5 15 -11 15 -6 0 3 12 20 26 36 30 39 49 12 64 -13 6
-17 17 -14 30 6 23 23 27 23 5 0 -9 6 -12 16 -8 16 6 17 -34 13 -503 -2 -280
-2 -729 -1 -999 2 -424 -7 -1666 -12 -1672 -1 -1 -27 1 -57 5 l-54 7 45 6 c45
6 45 6 8 7 -49 2 -49 20 0 25 l37 4 -42 1 c-57 3 -66 22 -11 23 24 1 34 3 23
6 -11 2 -30 6 -43 9 -31 6 -18 24 18 24 31 0 50 17 28 25 -43 16 -63 10 -77
-22 -9 -20 -22 -33 -33 -33 -22 0 -23 13 -3 30 27 22 19 42 -15 35 -44 -10
-90 3 -90 25 0 9 7 23 15 30 12 10 15 10 15 -2 0 -8 7 -23 15 -34 14 -18 14
-17 3 9 -10 23 -9 30 6 45 15 15 18 15 26 2 6 -8 8 -23 6 -32 -2 -11 2 -18 9
-18 11 0 12 6 3 30 -13 38 -22 44 -48 30 -16 -8 -20 -8 -20 3 0 8 -7 20 -15
27 -13 11 -14 8 -9 -18 4 -17 1 -32 -5 -36 -19 -12 -12 -55 10 -67 17 -9 19
-13 8 -20 -9 -5 -10 -9 -2 -9 6 0 19 -3 27 -6 12 -5 15 -2 9 12 -5 13 -3 16
10 11 9 -3 19 -2 22 3 8 13 25 13 25 0 0 -6 -11 -15 -25 -20 -14 -5 -30 -21
-35 -36 -14 -37 -52 -30 -57 11 -2 17 -6 40 -8 53 -5 21 -6 21 -30 6 -14 -9
-32 -14 -40 -10 -8 3 -15 1 -15 -4 0 -13 22 -13 53 -1 23 9 25 7 29 -26 3 -22
-1 -41 -10 -49 -8 -8 -15 -22 -16 -32 -2 -9 -8 -17 -14 -17 -7 0 -12 -3 -12
-7 0 -5 0 -10 0 -13 0 -3 9 -1 21 5 11 7 18 18 15 25 -5 15 14 25 47 25 11 0
28 6 36 13 13 11 22 10 49 -4 32 -16 32 -18 11 -24 -15 -5 -25 -2 -31 10 -8
14 -12 12 -27 -17 -21 -40 -15 -60 10 -29 10 12 20 17 24 11 3 -5 17 -10 31
-10 27 0 34 -20 7 -21 -10 0 -54 -3 -98 -5 -101 -6 -151 1 -135 21 6 8 10 22
8 32 -4 26 10 43 35 44 21 0 21 1 2 9 -18 7 -18 9 -3 15 9 4 22 3 29 -1 8 -4
9 -3 5 5 -5 7 -19 10 -36 6 -20 -4 -35 0 -56 18 -16 13 -35 22 -41 20 -14 -5
-30 24 -19 34 3 3 13 0 23 -8 12 -9 10 -3 -6 19 -28 40 -55 58 -100 67 -19 4
-42 17 -52 28 l-16 21 -7 -22 c-4 -12 -12 -22 -17 -22 -11 0 -11 6 0 28 5 9
15 31 22 47 8 17 18 33 24 37 6 5 4 8 -4 8 -10 0 -8 7 8 24 25 27 21 43 -13
56 -14 5 -27 3 -39 -8 -9 -8 -17 -10 -17 -5 0 6 7 16 15 23 16 13 20 42 8 54
-4 4 -6 84 -5 179 3 179 5 215 23 410 8 84 8 121 0 130 -7 9 -7 17 0 24 6 6
12 73 15 153 2 78 6 146 9 151 11 17 54 -22 66 -59 20 -66 40 -100 66 -117 23
-15 26 -15 44 1 15 13 19 14 23 3 13 -43 16 -49 27 -49 8 0 10 18 6 60 -5 64
-15 80 -124 207 -29 33 -53 64 -53 67 0 3 -11 29 -25 58 -14 28 -25 60 -25 70
0 10 -24 44 -52 76 -29 31 -69 85 -88 119 -19 35 -38 63 -42 63 -17 0 -6 -38
20 -70 16 -19 42 -58 59 -85 l30 -50 -20 -26 c-10 -15 -17 -35 -15 -45 3 -16
7 -14 20 11 9 18 25 31 37 32 30 2 26 -18 -9 -52 -53 -51 -57 -70 -55 -310 1
-230 7 -265 44 -265 11 0 22 -7 25 -16 6 -15 4 -15 -10 -3 -16 13 -16 10 -9
-36 5 -28 8 -59 8 -70 0 -11 -3 -129 -7 -263 l-6 -243 -26 -27 -26 -27 5 48
c2 26 12 56 22 67 16 17 16 19 -4 29 -20 11 -34 7 -105 -27 -5 -3 -7 5 -3 17
7 27 -28 30 -42 2 -6 -10 -24 -21 -41 -24 -35 -7 -40 -32 -8 -43 20 -6 19 -7
-10 -20 -18 -7 -32 -16 -32 -19 0 -3 9 -1 19 5 35 18 71 11 102 -19 16 -16 29
-26 29 -21 0 11 -79 75 -103 83 -10 4 -15 11 -12 17 8 13 82 13 90 0 8 -14 25
-13 25 1 0 18 32 38 63 39 32 0 31 2 11 -40 -12 -24 -15 -46 -10 -86 5 -40 2
-63 -9 -84 l-16 -30 -45 25 c-43 24 -98 33 -108 17 -2 -4 14 -6 36 -4 44 5 44
4 7 -49 -10 -14 -16 -29 -12 -33 3 -3 1 -6 -5 -6 -16 0 -48 -63 -34 -68 7 -2
7 -14 2 -33 -5 -16 -9 -32 -9 -35 1 -14 -9 -13 -21 1 -18 22 -33 18 -20 -5 25
-47 63 -8 74 75 7 59 13 65 63 75 37 6 40 5 53 -23 10 -24 10 -31 -1 -38 -10
-6 -8 -9 9 -9 12 0 22 -5 22 -10 0 -12 -48 -3 -67 13 -23 17 -15 -41 7 -61 12
-9 24 -17 28 -17 13 0 61 -52 55 -59 -10 -10 -25 -7 -18 4 3 6 -3 10 -14 10
-22 0 -28 -14 -11 -25 22 -14 8 -25 -26 -21 -35 5 -36 4 -29 -22 4 -15 8 -41
8 -58 0 -28 3 -30 18 -21 9 6 14 17 11 26 -4 11 -1 13 12 8 10 -4 19 -7 22 -7
8 0 35 -62 30 -68 -3 -3 -6 0 -6 7 0 7 -4 10 -9 7 -5 -3 -11 3 -14 14 -5 21
-27 28 -27 9 0 -5 -4 -7 -10 -4 -5 3 -10 -2 -10 -11 0 -10 3 -14 7 -11 7 8 33
-11 33 -24 0 -16 -32 -10 -46 9 -13 16 -13 16 -14 0 0 -21 -20 -24 -20 -4 0 8
-6 17 -12 20 -10 5 -10 7 -1 12 7 3 13 12 13 20 0 8 5 14 10 14 6 0 10 5 10
11 0 5 -4 8 -9 4 -6 -3 -9 3 -9 12 1 10 -2 33 -6 52 -8 33 -8 34 23 29 36 -5
41 9 11 35 -18 15 -20 15 -20 1 0 -21 -30 -43 -48 -37 -10 4 -9 10 5 27 14 16
14 18 2 8 -9 -7 -39 -14 -67 -16 -48 -4 -51 -2 -55 23 -2 14 -5 2 -6 -27 -1
-38 -5 -54 -17 -59 -22 -8 -34 15 -23 45 7 18 6 29 -6 42 -8 9 -15 22 -15 28
0 21 -49 26 -69 8 -13 -12 -21 -14 -26 -6 -8 12 23 52 35 45 4 -2 13 8 19 23
13 26 13 27 -8 8 -11 -10 -33 -20 -47 -22 -15 -1 -39 -14 -53 -29 -22 -22 -23
-25 -6 -19 11 4 25 15 32 23 8 10 12 11 13 4 0 -6 -5 -15 -10 -18 -15 -9 -12
-25 5 -25 8 0 15 -4 15 -8 0 -5 16 -8 35 -8 34 1 47 10 23 18 -8 3 -7 6 3 10
10 4 15 -1 17 -18 2 -22 -2 -24 -38 -24 -22 0 -40 -4 -40 -10 0 -5 -4 -10 -10
-10 -5 0 -10 7 -10 15 0 17 -30 35 -62 35 -21 1 -20 3 14 35 22 20 35 41 32
49 -3 8 0 17 7 22 9 5 10 2 6 -10 -6 -14 -3 -15 14 -6 15 9 24 8 35 -1 11 -9
14 -8 14 5 0 9 -7 19 -16 23 -15 6 -15 7 1 19 10 8 14 18 9 26 -4 7 3 4 15 -7
l23 -20 -3 20 c-3 13 -14 21 -31 23 -23 3 -27 -1 -33 -38 l-7 -40 -18 23 c-12
15 -17 32 -13 45 7 30 -15 80 -39 88 -20 6 -20 29 1 29 19 0 62 -86 55 -109
-4 -12 -2 -16 5 -12 15 10 14 25 -4 59 -8 15 -12 34 -9 41 3 7 -2 16 -10 19
-9 4 -16 18 -16 34 0 27 0 27 20 -10 11 -20 19 -43 18 -49 -2 -7 2 -12 9 -11
8 2 10 -4 6 -13 -4 -11 -2 -15 6 -13 7 3 13 9 13 14 0 6 5 16 11 24 9 12 9 13
0 7 -15 -8 -17 3 -3 24 5 9 5 19 -2 27 -6 8 -8 16 -5 20 4 3 12 -6 18 -21 11
-24 14 -25 29 -11 20 18 46 11 61 -17 16 -29 2 -34 -25 -9 -20 19 -25 20 -35
7 -21 -26 -49 -86 -40 -86 5 0 9 5 9 10 0 6 9 10 20 10 17 0 19 3 10 19 -13
26 2 34 34 20 20 -9 29 -9 42 2 14 11 16 10 12 -11 -1 -14 -6 -23 -10 -20 -4
3 -15 -5 -23 -17 -9 -13 -22 -20 -30 -17 -16 7 -21 -11 -6 -20 5 -3 11 -14 14
-25 4 -16 0 -19 -29 -16 -19 1 -34 -2 -34 -6 0 -5 15 -9 34 -9 28 0 36 -5 46
-30 7 -17 10 -33 7 -36 -10 -10 -27 7 -27 27 0 10 -4 19 -8 19 -5 0 -7 -14 -4
-30 2 -17 9 -30 15 -30 6 0 19 -8 30 -18 11 -9 17 -11 13 -4 -5 8 0 12 13 12
12 0 21 4 21 9 0 5 -9 7 -20 4 -29 -8 -25 12 8 36 21 17 23 21 8 19 -10 -2
-21 3 -23 10 -3 6 2 12 11 12 8 0 17 4 20 8 3 5 -7 7 -23 4 -32 -4 -64 24 -42
37 7 5 13 12 14 17 1 5 17 8 35 6 30 -3 32 -1 23 17 -7 13 -8 22 -1 26 5 3 10
1 10 -5 0 -6 4 -8 10 -5 6 4 5 13 -2 25 -7 10 -16 17 -20 14 -4 -3 -18 4 -30
15 l-22 21 26 0 c15 0 28 -6 31 -12 3 -10 7 -10 19 -1 18 16 74 2 95 -24 13
-16 13 -16 3 5 -13 27 -24 32 -81 37 -24 2 -46 4 -48 4 -2 1 2 8 9 16 8 10 9
15 1 15 -16 0 -44 47 -35 61 5 9 10 7 15 -7 6 -15 8 -15 8 -3 1 10 13 19 31
22 38 8 38 29 0 44 -17 6 -30 19 -30 29 0 9 -7 22 -16 28 -11 8 -13 20 -9 39
9 34 25 30 45 -9 8 -16 21 -33 28 -37 8 -5 10 -17 6 -30 -6 -19 -5 -20 9 -9 8
7 20 11 27 10 19 -4 35 51 22 73 -12 19 0 35 17 25 11 -7 37 22 45 52 6 17 3
22 -11 22 -11 0 -14 -3 -7 -8 20 -13 -2 -52 -29 -52 -28 0 -54 -24 -37 -35 12
-7 14 -65 2 -65 -5 0 -17 9 -28 21 -16 17 -16 22 -4 30 12 8 10 10 -8 6 -17
-4 -22 -2 -18 8 2 7 -2 16 -9 19 -19 7 -8 36 14 36 9 0 23 -6 30 -12 10 -11
16 -8 31 12 21 28 18 39 -6 19 -9 -7 -29 -12 -44 -11 -19 2 -32 -3 -39 -15 -9
-15 -10 -11 -11 22 0 38 3 42 35 54 31 11 34 16 31 44 -2 24 -9 33 -29 38 -24
7 -25 6 -14 -15 7 -11 16 -24 21 -27 13 -10 -3 -29 -25 -29 -10 0 -19 6 -19
14 0 14 -29 30 -38 21 -3 -3 0 -5 6 -5 7 0 12 -4 12 -10 0 -5 -7 -10 -16 -10
-9 0 -12 -5 -8 -12 5 -8 3 -8 -7 -2 -16 10 -1 10 -392 13 -159 1 -291 0 -295
-3 -3 -3 88 -6 201 -6 114 0 207 -3 207 -7 0 -5 -22 -32 -48 -60 l-48 -53
-393 0 c-217 -1 -395 1 -398 3 -2 2 -1 30 3 61 l7 56 61 1 c33 1 134 0 222 -1
114 -1 164 2 169 10 10 17 -3 26 -23 15 -10 -6 -104 -9 -224 -7 -207 3 -208 3
-208 25 l0 22 252 -3 c153 -2 257 -7 263 -13 7 -7 4 -8 -9 -3 -14 5 -17 3 -14
-7 2 -8 17 -15 31 -17 22 -3 27 1 27 17 0 20 6 21 104 21 58 0 116 -4 130 -10
16 -6 27 -6 31 0 4 6 67 10 146 10 123 0 139 2 139 17 0 15 2 15 18 1 12 -11
27 -14 52 -9 38 7 40 9 47 94 7 70 23 75 23 7 0 -27 5 -50 10 -50 6 0 10 22
10 49 0 34 4 51 15 55 20 7 19 50 0 66 -12 10 -21 10 -40 2 -27 -12 -39 -4
-24 18 5 8 9 58 9 110 0 57 4 89 9 80 5 -8 8 -52 8 -98 1 -77 6 -103 18 -90 3
3 2 128 -2 279 -8 272 -20 294 -22 40 -1 -63 -4 -111 -8 -107 -8 8 -6 836 2
844 8 8 73 -56 100 -98 12 -20 26 -50 29 -68 7 -30 22 -49 32 -40 2 3 -3 28
-11 56 -12 38 -32 69 -77 117 -33 36 -69 65 -79 65 -10 0 -21 5 -25 11 -4 7
-20 8 -41 4 -19 -3 -40 -2 -46 4 -7 5 -16 9 -22 8 -5 -1 -11 7 -13 17 -4 16 0
18 27 13 18 -4 33 -2 37 5 4 7 3 8 -4 4 -7 -4 -12 -1 -12 8 0 10 6 13 16 9 14
-5 15 -3 4 17 -6 12 -10 36 -8 52 8 51 -10 129 -34 155 -51 55 -103 66 -183
39 -47 -16 -75 -60 -75 -119 0 -21 -4 -46 -9 -55 -12 -23 17 -88 46 -101 24
-11 30 -26 13 -36 -6 -4 -36 22 -68 56 -31 35 -72 78 -90 96 -18 18 -39 48
-47 67 -8 19 -23 41 -33 48 -10 7 -26 32 -35 54 -8 23 -30 63 -46 89 -17 27
-34 64 -37 82 -6 32 -32 91 -52 116 -5 7 -12 25 -16 42 -9 36 -72 115 -92 115
-11 0 -14 18 -15 83 -1 45 -2 91 -3 102 -2 25 -27 75 -38 75 -14 0 -9 -19 10
-38 15 -15 19 -37 21 -121 2 -94 1 -102 -16 -99 -15 3 -18 15 -20 83 0 44 -4
87 -6 95 -3 8 -7 22 -10 30 -3 8 -2 -31 1 -87 4 -79 2 -106 -9 -119 -31 -37
-36 -66 -18 -101 10 -19 22 -39 27 -46 6 -7 12 -51 13 -99 2 -48 5 -85 8 -82
4 3 4 46 2 96 -3 89 -3 90 18 79 18 -10 21 -21 21 -81 0 -46 -4 -70 -12 -70
-6 0 -3 -9 7 -20 18 -20 18 -21 1 -38 -16 -16 -18 -16 -32 2 -8 11 -14 16 -14
10 1 -14 26 -44 37 -44 20 0 32 48 29 123 -1 42 1 77 4 77 17 0 29 -77 19
-114 -7 -27 -7 -41 1 -51 6 -8 13 -24 15 -37 5 -31 28 -92 41 -109 6 -8 14
-26 18 -41 3 -16 11 -28 16 -28 6 0 10 -8 10 -19 0 -10 6 -24 14 -30 10 -9 16
-41 19 -104 2 -51 6 -128 10 -172 3 -44 9 -145 13 -225 3 -80 10 -149 15 -154
12 -14 11 -113 -1 -121 -5 -3 -10 1 -10 9 0 23 -43 31 -145 29 -149 -4 -188
-25 -146 -79 12 -16 38 -62 57 -104 31 -66 33 -78 22 -98 -11 -21 -10 -26 5
-37 12 -9 17 -27 17 -68 0 -84 -3 -88 -53 -63 -70 35 -201 27 -310 -19 -17 -7
-17 7 -12 269 4 192 3 276 -4 276 -8 0 -11 -225 -12 -737 0 -406 -2 -799 -3
-873 -2 -74 -4 -225 -5 -335 l-3 -200 1106 -3 1106 -2 1 482 c0 266 3 573 5
683 8 292 6 2452 -2 2570 l-6 101 -847 3 c-465 1 -956 3 -1089 4 -134 1 -246
-1 -248 -4z m166 -34 c18 -21 1 -35 -29 -24 -19 8 -21 12 -11 24 16 19 24 19
40 0z m158 -8 c1 -21 -2 -23 -29 -19 -32 5 -61 -20 -52 -45 7 -18 -22 -16 -41
3 -20 20 -20 34 -1 34 9 0 15 -10 16 -22 1 -20 2 -21 6 -4 3 12 -2 25 -12 32
-27 20 -9 33 40 29 25 -1 45 1 45 6 0 21 26 7 28 -14z m64 -2 c0 -18 -31 -30
-43 -18 -19 19 -3 44 21 35 12 -4 21 -12 22 -17z m43 7 c0 -18 -20 -15 -23 4
-3 10 1 15 10 12 7 -3 13 -10 13 -16z m208 -1 c8 -8 5 -11 -10 -11 -12 0 -25
-4 -28 -10 -11 -17 -25 -11 -25 11 0 18 -2 19 -15 9 -8 -7 -15 -22 -15 -33 0
-20 -1 -20 -13 -2 -9 12 -22 16 -39 13 -23 -4 -48 16 -48 38 0 11 181 -3 193
-15z m868 9 c5 0 9 -9 9 -20 0 -23 -15 -27 -24 -5 -3 8 -16 15 -28 15 -19 0
-20 2 -8 10 8 5 21 8 28 5 8 -3 18 -5 23 -5z m-653 -7 c-10 -2 -28 -2 -40 0
-13 2 -5 4 17 4 22 1 32 -1 23 -4z m452 -3 c0 -5 -4 -10 -10 -10 -5 0 -10 5
-10 10 0 6 5 10 10 10 6 0 10 -4 10 -10z m113 1 c4 -1 7 -6 7 -12 0 -6 -6 -9
-13 -6 -8 3 -20 1 -28 -5 -11 -8 -11 -9 3 -5 9 3 27 -3 39 -14 l23 -20 -28 5
c-33 6 -56 23 -56 41 0 8 -6 16 -12 18 -7 3 3 4 22 2 19 -2 38 -4 43 -4z m181
3 c22 -9 20 -37 -4 -52 -23 -14 -26 -2 -8 31 10 20 10 21 -5 8 -16 -13 -25 -2
-10 12 8 8 8 8 27 1z m390 -18 c-5 -14 -9 -15 -15 -5 -5 8 -3 17 4 21 15 9 19
4 11 -16z m-647 -22 c1 -16 -1 -21 -3 -11 -3 9 -10 17 -15 17 -5 0 -9 7 -9 16
0 28 25 8 27 -22z m320 14 c-3 -8 -6 -5 -6 6 -1 11 2 17 5 13 3 -3 4 -12 1
-19z m103 2 c0 -24 -26 -38 -42 -22 -7 7 -6 15 3 26 20 22 39 20 39 -4z m304
8 c-3 -4 -15 -8 -27 -8 -15 0 -18 3 -9 8 17 11 43 11 36 0z m86 8 c0 -3 -4 -8
-10 -11 -5 -3 -10 -1 -10 4 0 6 5 11 10 11 6 0 10 -2 10 -4z m-296 -78 c-3 -5
-12 -8 -20 -8 -11 0 -13 7 -8 28 11 53 17 58 25 22 4 -19 5 -38 3 -42z m56 58
c0 -21 -11 -46 -20 -46 -14 0 -21 32 -9 46 15 18 29 18 29 0z m-1109 -19 c-13
-13 -26 -3 -16 12 3 6 11 8 17 5 6 -4 6 -10 -1 -17z m489 13 c0 -5 -7 -10 -15
-10 -8 0 -15 5 -15 10 0 6 7 10 15 10 8 0 15 -4 15 -10z m504 -5 c-4 -8 -8
-15 -10 -15 -2 0 -4 7 -4 15 0 8 4 15 10 15 5 0 7 -7 4 -15z m301 5 c3 -5 1
-10 -4 -10 -6 0 -11 5 -11 10 0 6 2 10 4 10 3 0 8 -4 11 -10z m-1811 -15 c-4
-8 -10 -15 -15 -15 -5 0 -9 7 -9 15 0 8 7 15 15 15 9 0 12 -6 9 -15z m126 9
c0 -10 -31 -36 -37 -31 -10 10 6 37 22 37 8 0 15 -3 15 -6z m310 2 c0 -11 -19
-15 -25 -6 -3 5 1 10 9 10 9 0 16 -2 16 -4z m1444 -12 c3 -9 6 -23 6 -32 -1
-15 -2 -15 -11 1 -5 9 -19 17 -29 17 -11 0 -20 4 -20 8 0 25 45 30 54 6z
m-1584 -6 c0 -14 -46 -39 -55 -30 -3 3 7 14 22 24 33 21 33 21 33 6z m105 -21
c0 -40 -19 -38 -23 2 -3 24 0 32 10 29 7 -3 13 -17 13 -31z m1025 18 c60 -31
25 -117 -44 -112 -14 1 -26 6 -25 11 0 5 -6 13 -15 18 -36 20 -10 79 28 65 15
-6 11 -47 -5 -47 -5 0 -6 7 -3 15 5 11 2 13 -10 9 -32 -12 -4 -47 31 -38 18 5
20 10 13 35 -9 30 -2 37 18 17 6 -6 14 -9 17 -6 3 3 -9 15 -27 27 -38 24 -21
28 22 6z m110 11 c0 -3 -4 -8 -10 -11 -5 -3 -10 -1 -10 4 0 6 5 11 10 11 6 0
10 -2 10 -4z m203 -33 c-3 -7 -9 -13 -14 -13 -11 0 -12 34 -2 43 9 10 22 -13
16 -30z m-1985 15 c-2 -6 -10 -14 -16 -16 -7 -2 -10 2 -6 12 7 18 28 22 22 4z
m322 2 c0 -5 -2 -10 -4 -10 -3 0 -8 5 -11 10 -3 6 -1 10 4 10 6 0 11 -4 11
-10z m510 -10 c0 -11 -4 -20 -10 -20 -5 0 -10 9 -10 20 0 11 5 20 10 20 6 0
10 -9 10 -20z m1113 -10 c3 -11 1 -20 -4 -20 -5 0 -9 9 -9 20 0 11 2 20 4 20
2 0 6 -9 9 -20z m-567 -7 c-4 -9 -1 -20 6 -24 7 -4 9 -11 5 -16 -5 -4 -12 -1
-16 6 -6 8 -16 11 -31 6 -30 -10 -22 16 11 32 31 16 32 16 25 -4z m684 11 c0
-8 -19 -13 -24 -6 -3 5 1 9 9 9 8 0 15 -2 15 -3z m-875 -34 c-5 -16 -10 -19
-18 -11 -7 7 -6 15 3 26 17 20 24 13 15 -15z m840 10 c9 -27 -3 -60 -21 -60
-10 0 -14 12 -14 40 0 43 23 57 35 20z m85 14 c0 -16 -23 -44 -35 -44 -8 0
-15 -7 -15 -15 0 -8 -4 -15 -10 -15 -13 0 -13 1 5 44 10 24 22 36 35 36 11 0
20 -3 20 -6z m-1623 -20 c3 -8 0 -21 -7 -27 -10 -10 -12 -8 -7 6 10 26 -6 20
-20 -8 -6 -14 -8 -25 -3 -25 12 0 -4 -63 -18 -68 -16 -5 -16 30 1 47 10 11 10
14 0 18 -18 6 -16 20 5 48 20 28 40 32 49 9z m32 -1 c-12 -14 -12 -16 1 -11
12 4 16 -1 15 -21 0 -19 -6 -27 -23 -29 -20 -3 -22 -8 -17 -35 4 -21 1 -39 -9
-52 -14 -19 -15 -19 -21 8 -8 29 8 80 34 111 9 10 15 20 14 22 -7 10 -2 24 8
24 8 0 7 -6 -2 -17z m1239 -23 c4 -41 -5 -80 -19 -80 -11 0 -9 16 6 53 5 12 2
17 -9 17 -16 0 -22 30 -9 44 14 14 28 -2 31 -34z m-1758 26 c0 -2 -7 -9 -15
-16 -12 -10 -15 -10 -15 4 0 9 7 16 15 16 8 0 15 -2 15 -4z m733 -38 c-2 -5
-11 -8 -20 -8 -11 0 -8 -7 12 -26 26 -24 26 -26 10 -45 -20 -21 -14 -24 15 -9
16 8 18 7 14 -4 -7 -18 -38 -30 -42 -17 -5 14 -42 14 -42 1 0 -16 -37 -12 -43
5 -8 20 11 29 28 15 12 -10 15 -8 15 11 0 17 -3 20 -9 10 -6 -9 -11 -10 -15
-2 -9 14 18 25 40 17 13 -5 14 -9 4 -21 -7 -8 -8 -15 -2 -15 5 0 15 7 22 15
15 18 5 31 -25 37 -32 5 -31 44 2 60 24 12 29 12 34 -2 4 -8 5 -18 2 -22z
m-68 22 c-3 -5 -13 -10 -21 -10 -8 0 -12 5 -9 10 3 6 13 10 21 10 8 0 12 -4 9
-10z m1135 -31 c0 -9 -7 -22 -15 -29 -13 -11 -15 -7 -15 22 0 19 3 38 7 41 8
9 23 -13 23 -34z m174 25 c4 -10 1 -14 -6 -12 -15 5 -23 28 -10 28 5 0 13 -7
16 -16z m145 -29 c-2 -25 -6 -45 -10 -45 -9 0 -39 29 -39 37 0 5 41 49 48 52
2 1 2 -19 1 -44z m-709 -29 c0 -6 -7 -2 -15 8 -8 11 -15 25 -15 30 0 6 7 2 15
-8 8 -11 15 -25 15 -30z m-760 12 c0 -16 -3 -19 -11 -11 -6 6 -8 16 -5 22 11
17 16 13 16 -11z m117 7 c8 -23 -4 -30 -22 -12 -19 20 -19 27 0 27 9 0 18 -7
22 -15z m611 -20 c-3 -3 -9 2 -12 12 -6 14 -5 15 5 6 7 -7 10 -15 7 -18z m681
16 c11 -1 11 -4 1 -16 -9 -11 -17 -12 -32 -4 -11 6 -26 8 -35 5 -8 -3 -21 0
-28 8 -14 14 -14 14 94 7z m-62 -56 c-10 -7 -16 -21 -16 -31 1 -15 2 -15 6 -3
4 17 49 46 58 38 9 -9 -40 -69 -56 -69 -30 0 -35 64 -7 81 19 12 33 -3 15 -16z
m-57 5 c0 -5 -5 -10 -11 -10 -5 0 -7 5 -4 10 3 6 8 10 11 10 2 0 4 -4 4 -10z
m167 -7 c4 -10 11 -21 16 -24 5 -4 5 -9 -2 -13 -6 -4 -11 -2 -11 3 0 6 -6 11
-14 11 -18 0 -29 16 -21 30 10 15 25 12 32 -7z m-2002 -23 c3 -5 1 -10 -4 -10
-6 0 -11 5 -11 10 0 6 2 10 4 10 3 0 8 -4 11 -10z m1975 -4 c0 -18 -33 -75
-40 -71 -15 9 -12 36 7 57 14 16 33 24 33 14z m-62 -73 c10 -18 9 -20 -7 -16
-11 3 -18 12 -16 21 2 10 4 19 4 21 1 6 7 -1 19 -26z m-38 2 c0 -8 -7 -15 -15
-15 -8 0 -15 7 -15 15 0 8 7 15 15 15 8 0 15 -7 15 -15z m108 -46 c-2 -6 -8
-10 -13 -10 -5 0 -11 4 -13 10 -2 6 4 11 13 11 9 0 15 -5 13 -11z m-1809 -23
c9 -11 6 -12 -14 -8 -14 2 -25 8 -25 13 0 14 26 11 39 -5z m83 -21 c20 -19 39
-43 42 -52 2 -10 14 -51 26 -91 14 -48 18 -78 12 -85 -9 -12 -26 -70 -27 -94
0 -6 -4 -15 -8 -19 -7 -8 -12 24 -8 64 1 12 -3 22 -9 22 -6 0 -8 5 -5 11 11
16 -17 129 -32 129 -14 0 -35 34 -26 44 4 3 15 -2 26 -11 20 -18 20 -18 4 7
-9 13 -17 33 -17 43 0 10 -12 29 -26 42 -24 22 -25 25 -8 25 10 0 36 -16 56
-35z m1598 4 c0 -5 -7 -9 -15 -9 -9 0 -15 9 -15 21 0 18 2 19 15 9 8 -7 15
-16 15 -21z m-1643 -23 c11 -11 -1 -13 -44 -8 -24 2 -43 9 -43 14 0 11 76 5
87 -6z m-7 -26 c8 -5 12 -11 10 -13 -8 -8 -70 5 -70 14 0 12 41 11 60 -1z
m-15 -30 c18 -8 17 -9 -7 -9 -16 -1 -28 4 -28 9 0 12 8 12 35 0z m1745 6 c0
-2 2 -11 5 -19 4 -10 -2 -14 -25 -14 -28 0 -39 15 -23 30 7 8 43 10 43 3z
m-2051 -38 c-5 -18 -9 -34 -9 -35 0 -2 -4 -3 -10 -3 -15 0 -12 22 6 48 21 30
24 28 13 -10z m1962 -11 c-8 -8 -11 -7 -11 4 0 20 13 34 18 19 3 -7 -1 -17 -7
-23z m-21 15 c0 -13 -12 -22 -22 -16 -10 6 -1 24 13 24 5 0 9 -4 9 -8z m-1820
-21 c0 -6 -4 -13 -10 -16 -5 -3 -10 1 -10 9 0 9 5 16 10 16 6 0 10 -4 10 -9z
m1914 -40 c-10 -17 -22 -31 -27 -31 -4 0 -5 5 -1 11 4 7 -2 9 -17 7 -18 -2
-24 2 -24 17 0 15 6 19 21 17 12 -1 27 4 34 13 23 28 34 0 14 -34z m-84 14 c0
-8 -4 -15 -10 -15 -5 0 -10 7 -10 15 0 8 5 15 10 15 6 0 10 -7 10 -15z m-1960
-9 c0 -3 -4 -8 -10 -11 -5 -3 -10 -1 -10 4 0 6 5 11 10 11 6 0 10 -2 10 -4z
m504 -144 c3 -3 6 0 6 6 0 7 5 12 10 12 6 0 10 -5 10 -11 0 -6 7 -27 16 -46
13 -27 14 -39 5 -59 -25 -53 -30 -71 -35 -107 -8 -71 -15 -50 -14 39 1 91 -9
164 -21 164 -10 0 -11 27 -4 70 l6 35 8 -48 c4 -27 10 -52 13 -55z m1496 78
c0 -5 -4 -10 -10 -10 -5 0 -10 5 -10 10 0 6 5 10 10 10 6 0 10 -4 10 -10z
m-2013 -22 c-3 -8 -6 -5 -6 6 -1 11 2 17 5 13 3 -3 4 -12 1 -19z m2053 -19 c0
-17 -4 -28 -10 -24 -5 3 -10 17 -10 31 0 13 5 24 10 24 6 0 10 -14 10 -31z
m-88 -41 c-7 -7 -12 -8 -12 -2 0 14 12 26 19 19 2 -3 -1 -11 -7 -17z m58 -25
c0 -25 -1 -26 -16 -11 -9 9 -13 21 -10 27 13 20 26 11 26 -16z m16 -68 c-5
-14 -9 -15 -21 -5 -12 10 -13 16 -4 27 15 18 34 1 25 -22z m-1575 -28 c-13
-13 -15 1 -4 30 7 17 8 17 11 -1 2 -10 -1 -23 -7 -29z m139 -9 c0 -5 12 -25
26 -44 26 -34 27 -37 21 -142 -3 -59 -9 -116 -13 -126 -7 -18 -8 -18 -21 0 -7
10 -13 25 -13 33 1 11 6 7 16 -9 8 -14 13 -17 10 -7 -3 10 -6 37 -7 60 -1 33
-2 37 -8 18 -18 -64 -51 -4 -51 92 0 30 -4 46 -10 42 -6 -4 -10 6 -10 22 l0
27 16 -22 c8 -12 20 -20 25 -17 14 9 11 36 -6 49 -9 7 -12 19 -9 34 5 18 9 20
20 11 8 -6 14 -16 14 -21z m357 16 c-3 -3 -12 -4 -19 -1 -8 3 -5 6 6 6 11 1
17 -2 13 -5z m-460 -51 c-4 -17 -4 -17 -12 0 -4 9 -4 25 0 35 8 16 8 16 12 0
3 -10 3 -26 0 -35z m370 -5 c-3 -8 -6 -5 -6 6 -1 11 2 17 5 13 3 -3 4 -12 1
-19z m116 -38 c60 0 87 -4 77 -9 -8 -6 -18 -7 -22 -5 -4 3 -8 0 -8 -5 0 -6 6
-11 14 -11 17 0 26 -69 13 -102 -14 -40 -57 -88 -78 -88 -30 0 -76 51 -89 99
-15 58 -10 75 25 82 l30 7 -30 1 c-19 1 -35 9 -44 22 -11 19 -11 21 4 15 9 -3
58 -6 108 -6z m-306 -87 c-3 -10 -5 -4 -5 12 0 17 2 24 5 18 2 -7 2 -21 0 -30z
m52 -10 c12 -26 18 -320 6 -331 -2 -2 0 -12 5 -21 5 -10 10 -51 11 -92 5 -177
24 -188 25 -16 0 68 4 136 8 151 6 24 4 28 -10 22 -15 -6 -16 3 -10 106 4 62
10 116 13 121 11 19 27 -16 28 -61 5 -185 5 -184 20 -178 13 5 15 -47 15 -444
-1 -440 -1 -450 -20 -450 -18 0 -20 7 -20 75 0 43 -4 75 -10 75 -6 0 -10 -32
-10 -75 l0 -75 -34 0 -34 0 -7 76 c-4 42 -4 111 -1 153 11 111 7 754 -3 764
-6 6 -10 -163 -11 -419 0 -236 -2 -445 -4 -464 -2 -19 -4 -52 -5 -72 0 -21 -4
-38 -8 -38 -5 0 -6 133 -4 296 2 206 0 299 -8 307 -8 8 -11 -54 -11 -229 0
-303 -6 -374 -31 -374 -11 0 -20 6 -21 13 -2 18 -5 197 -7 417 -2 216 4 280
25 280 25 0 31 35 37 205 6 159 14 244 23 254 2 2 4 -10 4 -27 0 -18 5 -32 10
-32 6 0 10 25 10 55 0 60 10 70 29 28z m-160 -143 c-1 -41 -5 -86 -9 -100 -6
-18 -8 -9 -8 35 1 33 -2 89 -6 125 -6 61 -6 63 8 40 10 -17 15 -50 15 -100z
m399 11 c15 -8 28 -9 41 -1 16 8 21 6 26 -11 5 -16 13 -20 32 -16 18 3 23 1
19 -10 -4 -8 -9 -25 -12 -38 -5 -20 -15 -25 -52 -30 -54 -8 -57 -8 -94 -6 -22
1 -31 9 -43 37 -19 46 -19 74 0 74 10 0 15 10 15 27 l0 26 23 -20 c12 -11 32
-26 45 -32z m213 -97 c3 -27 7 -176 8 -331 l2 -282 -39 -26 c-37 -24 -45 -26
-114 -19 -62 5 -77 4 -91 -10 -24 -24 -54 -12 -71 29 -11 26 -15 101 -16 339
l-1 306 25 -25 c28 -28 49 -30 143 -12 66 12 67 12 87 59 19 43 23 46 41 34
14 -9 22 -29 26 -62z m-549 -24 c-7 -45 -18 -36 -14 11 3 23 8 36 11 30 4 -6
6 -25 3 -41z m-45 -87 c-2 -16 -4 -5 -4 22 0 28 2 40 4 28 2 -13 2 -35 0 -50z
m49 -20 c-2 -16 -5 -30 -5 -33 -1 -3 -6 2 -11 10 -15 23 -12 50 5 50 12 0 14
-7 11 -27z m-6 -63 c0 -10 -6 -23 -14 -29 -11 -9 -15 -7 -20 11 -10 38 -7 46
14 41 11 -3 20 -13 20 -23z m940 -292 c14 -23 16 -38 9 -66 -4 -20 -8 -38 -9
-39 0 -2 0 -15 0 -29 0 -14 -4 -23 -9 -20 -4 3 -6 18 -3 33 2 16 1 25 -3 21
-5 -5 -9 -25 -11 -45 -4 -73 -3 -70 -14 -53 -18 28 -23 -19 -18 -159 3 -75 3
-145 -1 -156 -7 -19 -9 -18 -22 5 -29 51 -19 500 11 500 4 0 12 12 18 26 14
29 26 25 52 -18z m-1058 -4 c30 -9 20 -32 -18 -43 -42 -12 -203 -6 -217 8 -14
14 1 31 26 30 20 -1 20 -2 -3 -8 -21 -6 -22 -8 -7 -14 19 -7 67 8 67 22 0 10
124 14 152 5z m53 -260 l0 -214 -51 0 -51 0 -7 77 c-6 65 -5 78 9 86 13 7 15
17 10 44 -4 22 0 53 11 86 23 70 64 151 72 142 4 -4 7 -103 7 -221z m-120 181
l-40 -15 48 5 c26 3 47 2 47 0 0 -3 -15 -12 -32 -20 -31 -14 -31 -15 -5 -10
l27 6 -14 -36 c-8 -19 -13 -35 -10 -35 2 0 -3 -16 -11 -36 -11 -27 -12 -40 -4
-50 6 -7 7 -19 3 -26 -6 -9 -10 -6 -14 11 -8 34 -30 39 -30 7 0 -13 5 -28 10
-31 6 -3 10 -14 10 -23 0 -14 -2 -15 -10 -2 -5 8 -11 12 -14 9 -3 -3 -6 -76
-7 -162 -1 -128 -3 -157 -15 -157 -8 0 -14 -5 -14 -11 0 -5 5 -7 10 -4 6 3 10
-1 10 -9 0 -18 -27 -21 -50 -6 -12 7 -12 13 -4 27 18 29 33 111 43 228 5 61
13 121 17 134 5 18 4 23 -7 19 -8 -3 -13 -14 -11 -24 2 -16 1 -16 -7 -4 -6 8
-8 22 -6 31 3 9 -10 51 -30 93 -19 42 -35 82 -35 89 0 10 24 14 93 15 91 1 92
1 52 -13z m1218 -49 c31 -35 54 -66 50 -69 -3 -4 6 -22 21 -42 15 -19 23 -35
18 -35 -11 0 -66 50 -81 75 -11 19 -12 18 -6 -5 16 -60 17 -70 7 -70 -5 0 -15
20 -21 45 -7 28 -20 51 -36 61 -20 13 -25 24 -25 60 0 24 4 44 9 44 5 0 34
-29 64 -64z m-475 -43 c-2 -9 -19 -24 -38 -34 -27 -14 -43 -16 -73 -9 -28 6
-48 4 -72 -5 -18 -8 -35 -11 -39 -8 -3 4 -6 1 -6 -5 0 -7 6 -12 13 -13 17 -1
-24 -17 -46 -18 -23 -1 -15 31 16 62 21 21 50 24 118 12 27 -5 46 -2 75 14 48
25 56 26 52 4z m-302 -38 c4 -8 10 -12 15 -9 5 3 9 0 9 -5 0 -6 -6 -11 -13
-11 -14 0 -37 20 -37 32 0 14 20 9 26 -7z m304 -16 c0 -5 -5 -7 -10 -4 -12 7
-26 -22 -16 -33 4 -3 11 0 16 8 7 10 9 -10 9 -60 -1 -64 -2 -69 -9 -35 -4 22
-6 45 -3 51 2 6 -10 20 -28 31 l-32 21 29 15 c36 19 44 20 44 6z m-100 -22 c0
-1 -18 -2 -40 -2 -43 0 -54 11 -17 17 18 3 57 -7 57 -15z m-215 -60 c3 -21 10
-35 14 -32 10 6 21 -43 21 -96 0 -35 -3 -39 -24 -39 -24 0 -25 0 -24 113 0
114 2 121 13 54z m852 31 c13 -12 23 -25 23 -30 0 -17 -17 -7 -38 22 -26 35
-18 39 15 8z m-672 -40 c0 -32 5 -53 12 -55 10 -4 11 7 7 41 -4 27 -3 46 3 46
5 0 10 -37 12 -82 2 -84 6 -102 21 -93 5 3 6 39 3 80 -6 75 -6 75 18 72 16 -3
24 -11 24 -28 3 -58 6 -70 15 -64 6 3 10 3 11 -2 0 -4 2 -23 4 -42 l3 -34 -95
5 c-74 4 -97 2 -109 -9 -8 -8 -14 -10 -14 -4 0 6 -9 11 -19 11 -17 0 -20 9
-23 63 -1 34 0 78 3 97 l6 35 2 -32 c1 -44 21 -42 21 1 0 37 -1 36 80 44 13 2
16 -9 15 -50z m733 -33 c0 -29 0 -29 -8 -5 -4 14 -8 39 -8 55 0 29 0 29 8 5 4
-14 8 -38 8 -55z m-63 35 c17 -19 16 -21 -17 -24 -7 -1 -14 9 -14 22 -2 27 7
28 31 2z m-188 -57 c-3 -10 -5 -2 -5 17 0 19 2 27 5 18 2 -10 2 -26 0 -35z
m-1105 -26 c1 -20 -1 -39 -5 -43 -4 -4 -7 14 -7 41 0 56 8 57 12 2z m-275 -44
c-12 -12 -31 -16 -67 -14 -55 2 -65 -9 -22 -28 l27 -13 -30 -23 c-16 -13 -27
-26 -24 -29 3 -3 31 2 62 11 53 15 61 15 109 -1 28 -9 53 -14 56 -11 3 2 -3
16 -12 30 -11 17 -13 25 -5 25 7 0 9 3 6 7 -4 3 -25 0 -46 -7 -23 -7 -51 -10
-68 -5 -27 6 -27 7 -9 21 23 16 62 19 71 4 4 -6 11 -8 16 -4 6 3 2 12 -10 21
-33 22 -25 35 17 27 96 -17 136 -61 97 -104 -60 -66 -313 -61 -339 7 -16 41
77 101 159 103 27 0 28 -1 12 -17z m287 -75 c8 -73 24 -128 37 -128 5 0 9 -7
9 -15 0 -8 -16 -19 -37 -24 -52 -15 -55 -14 -43 8 5 11 10 65 10 120 0 113 14
135 24 39z m-332 40 c-9 -9 -15 -9 -24 0 -9 9 -7 12 12 12 19 0 21 -3 12 -12z
m788 -17 c33 -1 41 -4 30 -11 -8 -5 -64 -11 -125 -12 -96 -1 -102 -2 -50 -8
79 -9 64 -11 -80 -12 l-120 -1 110 -7 c143 -10 135 -8 135 -20 0 -5 -15 -11
-32 -11 -24 -1 -27 -3 -10 -6 32 -6 27 -21 -13 -40 -25 -12 -35 -23 -35 -40 0
-31 45 -32 70 -1 10 12 28 23 41 23 13 1 38 9 56 18 34 18 177 25 171 8 -1 -5
-29 -36 -61 -70 -57 -59 -58 -60 -130 -68 -99 -11 -297 4 -297 23 0 8 -4 14
-10 14 -5 0 -10 -6 -10 -14 0 -8 -5 -18 -11 -22 -8 -4 -9 1 -4 17 7 23 7 24
-13 6 -18 -16 -41 -18 -253 -16 -129 1 -242 2 -251 2 -18 1 -20 6 -20 77 0 73
-1 71 29 59 36 -13 229 -13 273 0 43 13 40 14 40 -2 0 -7 -9 -23 -20 -35 -11
-12 -20 -23 -20 -26 0 -8 61 -35 94 -41 33 -7 146 29 146 45 0 5 -10 17 -23
27 -13 10 -27 31 -31 46 -5 23 -3 27 16 28 l23 2 -22 4 c-38 7 -26 23 20 25
l42 1 -45 6 c-38 5 -30 6 45 11 l90 6 -93 2 c-51 1 -91 5 -89 10 4 6 296 8
437 3z m220 -20 c-24 -19 -70 -29 -102 -23 -24 5 -23 22 1 22 11 0 23 5 26 10
3 6 27 10 53 10 l47 0 -25 -19z m-994 0 c-3 -5 -15 -11 -26 -14 -17 -4 -19 -3
-9 9 12 15 44 20 35 5z m115 -8 c12 -15 12 -16 -4 -10 -10 4 -23 7 -28 7 -5 0
-9 5 -9 10 0 16 26 12 41 -7z m616 -9 c-3 -3 -12 -4 -19 -1 -8 3 -5 6 6 6 11
1 17 -2 13 -5z m63 -13 c-8 -5 -26 -12 -40 -15 -24 -7 -24 -6 -6 8 11 9 29 16
40 16 17 -1 18 -2 6 -9z m84 -13 c-5 -8 -2 -9 12 -3 17 8 66 10 152 6 43 -1
38 -25 -6 -28 -80 -6 -202 -4 -213 3 -9 5 -7 11 6 21 23 16 59 18 49 1z m249
-13 c7 -16 -8 -29 -23 -20 -15 9 -12 35 4 35 8 0 16 -7 19 -15z m-405 -33 c6
-18 -15 -14 -22 4 -4 10 -1 14 6 12 6 -2 14 -10 16 -16z m309 -57 c-4 -8 -14
-15 -23 -15 -16 0 -16 2 1 20 20 22 31 20 22 -5z m-407 -1 c0 -8 -5 -12 -10
-9 -6 4 -8 11 -5 16 9 14 15 11 15 -7z m417 -71 c-3 -10 -5 -2 -5 17 0 19 2
27 5 18 2 -10 2 -26 0 -35z m-189 -131 c3 -22 22 -31 22 -11 0 5 5 7 11 3 6
-3 9 -19 5 -35 -3 -16 -2 -29 3 -29 12 0 21 64 10 68 -5 2 -9 8 -9 14 0 7 4 7
13 0 7 -6 22 -9 33 -7 49 12 95 -86 64 -135 -8 -12 -10 -11 -10 6 0 12 -7 25
-16 28 -13 5 -15 15 -11 49 5 38 4 40 -9 23 -8 -11 -14 -26 -14 -33 0 -7 -8
-13 -17 -13 -11 -1 -6 -6 13 -14 18 -8 36 -26 43 -44 15 -35 42 -52 34 -21 -7
27 6 24 16 -3 6 -16 4 -28 -4 -38 -8 -8 -14 -19 -14 -25 0 -5 -4 -11 -9 -13
-15 -5 -23 41 -9 50 8 5 7 8 -5 8 -11 0 -18 -8 -18 -19 0 -11 -5 -23 -10 -26
-6 -4 -8 -21 -5 -38 3 -18 1 -39 -5 -47 -9 -13 -12 -12 -25 4 -15 20 -15 20
-15 0 -1 -18 -1 -18 -14 -1 -7 9 -16 17 -19 17 -3 0 -8 -8 -10 -17 -3 -13 -5
-12 -6 5 0 13 -5 21 -10 18 -14 -9 -36 23 -24 35 7 7 15 5 24 -9 16 -22 81
-29 73 -8 -3 8 -15 11 -29 9 -26 -5 -49 14 -79 66 l-18 33 28 23 c16 13 33 21
38 18 5 -4 6 -1 2 5 -8 14 -36 4 -57 -20 -9 -10 -23 -16 -32 -12 -15 5 -44
-31 -39 -49 1 -4 -5 -10 -13 -13 -8 -4 -15 -11 -15 -16 0 -7 5 -6 13 1 8 6 17
7 22 3 4 -4 6 2 3 14 -3 11 1 29 9 40 12 16 15 17 24 4 5 -8 7 -28 4 -45 -3
-20 -2 -25 4 -16 14 22 31 3 25 -28 -4 -18 0 -33 11 -44 9 -10 12 -17 7 -17
-6 0 -8 -8 -5 -18 2 -10 -5 -26 -16 -36 -27 -25 -27 -44 2 -57 19 -9 22 -19
24 -72 2 -34 0 -69 -2 -78 -9 -29 -126 -62 -139 -40 -10 16 -26 13 -26 -4 0
-8 9 -15 20 -15 26 0 27 -36 1 -50 -23 -12 -36 2 -27 27 4 9 2 19 -4 23 -18
11 0 38 30 45 16 3 37 1 47 -6 15 -9 26 -8 51 5 32 16 37 31 26 74 -8 29 -18
28 -35 -5 -8 -16 -20 -32 -27 -36 -10 -7 -10 -12 -2 -22 10 -12 6 -12 -19 -2
-28 10 -29 13 -24 59 5 41 3 48 -11 48 -10 0 -15 4 -12 8 9 14 -12 35 -28 29
-24 -10 -19 -26 14 -45 36 -21 37 -27 5 -48 -14 -9 -25 -25 -25 -35 0 -28 -20
-33 -43 -11 -18 18 -19 24 -7 51 7 17 16 31 21 31 5 0 9 40 9 90 0 78 2 91 19
100 26 14 28 13 34 -11 3 -11 15 -23 26 -26 26 -7 26 -7 0 -43 -23 -30 -20
-60 6 -60 9 0 15 -9 15 -25 0 -14 3 -25 6 -25 14 0 44 22 44 32 0 9 -3 9 -12
0 -7 -7 -16 -12 -20 -12 -12 0 -10 48 2 55 6 3 10 11 10 17 0 6 -9 3 -20 -7
-34 -31 -39 -7 -8 38 11 16 9 22 -16 41 -21 18 -27 29 -21 45 5 16 12 20 30
15 12 -3 26 -1 29 5 4 7 -1 11 -13 11 -10 0 -26 3 -35 6 -11 4 -16 1 -16 -11
0 -9 -4 -13 -10 -10 -16 10 1 68 36 115 47 65 104 118 104 98 0 -9 -4 -20 -10
-23 -5 -3 -9 -14 -9 -23 1 -14 2 -14 6 1 4 14 11 17 29 13 27 -7 33 8 8 18 -9
3 -14 13 -10 21 3 8 1 17 -4 20 -6 4 -10 15 -10 26 0 27 24 19 28 -9z m192
-24 c-1 -30 -3 -38 -9 -28 -8 14 -4 70 5 70 2 0 4 -19 4 -42z m-1066 -89 c-3
-5 0 -9 7 -9 7 0 10 -2 7 -5 -9 -9 -38 7 -38 21 0 8 6 11 15 8 8 -4 12 -10 9
-15z m76 12 c0 -16 -15 -20 -40 -14 -22 6 -23 7 -4 14 27 11 44 11 44 0z m75
-1 c8 -13 -25 -21 -46 -10 -10 6 -19 12 -19 14 0 7 60 4 65 -4z m203 -1 c-7
-5 -28 -9 -45 -9 -20 0 -33 -5 -33 -12 0 -9 -3 -9 -9 1 -8 13 -12 13 -26 1 -9
-7 -14 -22 -12 -32 4 -12 0 -18 -12 -18 -13 0 -16 8 -13 39 l4 38 80 0 c47 0
74 -3 66 -8z m182 -1 c0 -9 3 -9 12 0 7 7 36 12 65 12 l53 0 0 -45 0 -45 -115
0 -115 0 0 39 c0 22 5 42 13 44 25 11 87 7 87 -5z m-585 -8 c-3 -5 -10 -10
-16 -10 -5 0 -9 5 -9 10 0 6 7 10 16 10 8 0 12 -4 9 -10z m465 -25 c0 -42 -14
-50 -61 -36 l-34 10 35 -2 c34 -2 35 -1 33 31 -1 22 3 32 13 32 9 0 14 -11 14
-35z m-533 -22 c-3 -10 -5 -2 -5 17 0 19 2 27 5 18 2 -10 2 -26 0 -35z m195
25 c-7 -7 -12 -8 -12 -2 0 14 12 26 19 19 2 -3 -1 -11 -7 -17z m303 1 c-10
-15 -25 -10 -19 6 4 8 10 12 15 9 5 -3 7 -10 4 -15z m-399 0 c3 -6 18 -9 32
-6 14 3 33 0 43 -6 13 -8 28 -7 58 5 41 16 41 16 41 -7 0 -22 -3 -23 -51 -19
-33 3 -48 1 -44 -6 4 -6 -17 -10 -59 -10 -36 0 -66 -4 -66 -9 0 -5 104 -8 230
-7 211 1 230 0 230 -16 0 -10 8 -25 19 -35 28 -27 42 -83 39 -156 -3 -62 -5
-66 -23 -61 -29 9 -30 11 -15 39 10 19 11 30 2 50 -6 14 -16 25 -22 25 -15 0
-12 -17 5 -24 16 -6 21 -46 7 -46 -5 0 -14 10 -20 23 -6 12 -11 16 -11 9 -1
-7 4 -22 9 -33 9 -16 7 -19 -12 -19 -17 0 -19 3 -9 9 9 6 10 11 2 15 -11 7
-15 -6 -12 -32 2 -8 -5 -12 -16 -10 -10 2 -19 13 -21 25 -2 12 -11 27 -20 34
-14 11 -15 11 -4 -1 19 -21 15 -30 -14 -30 -23 0 -26 3 -22 25 3 14 1 25 -3
25 -5 0 -9 -11 -9 -26 0 -19 7 -28 33 -37 l32 -12 -47 -5 -46 -5 14 -34 c12
-28 16 -31 29 -21 8 7 15 18 15 24 0 6 -4 5 -9 -3 -8 -13 -31 -8 -31 7 0 18
41 9 55 -11 l16 -22 22 28 c13 15 31 27 40 27 10 0 16 -3 14 -7 -3 -5 1 -14 9
-21 12 -11 14 -10 14 3 0 17 2 18 24 9 19 -7 21 -40 4 -47 -7 -3 -3 -6 9 -6
12 -1 27 -11 34 -22 8 -15 8 -19 0 -15 -6 4 -14 0 -17 -9 -6 -14 -11 -12 -35
11 -26 25 -27 25 -22 4 3 -12 12 -24 19 -27 7 -2 10 -12 7 -21 -3 -12 -2 -13
4 -5 6 8 14 9 23 3 12 -8 12 -10 1 -10 -10 0 -11 -4 -3 -13 6 -7 12 -30 15
-52 3 -35 4 -34 5 13 1 33 6 51 12 47 6 -4 8 -11 5 -16 -4 -5 0 -9 7 -9 8 0 9
-3 3 -8 -5 -4 -11 -20 -12 -37 0 -16 -4 -49 -8 -72 -5 -30 -4 -43 4 -43 6 0
11 13 11 30 0 22 4 28 15 24 10 -4 15 0 15 11 0 9 -4 13 -10 10 -11 -7 -14 18
-4 28 13 13 44 -37 44 -70 0 -36 -13 -43 -29 -15 -9 15 -10 13 -8 -8 1 -19 -3
-26 -20 -28 -13 -2 -23 -8 -23 -13 0 -6 4 -7 10 -4 5 3 10 1 10 -4 0 -6 3 -10
8 -10 19 3 42 -2 42 -9 0 -10 -44 -10 -51 0 -3 5 -18 4 -33 -2 -25 -9 -27 -8
-21 11 10 31 13 169 4 163 -5 -3 -6 10 -3 28 5 30 4 31 -9 15 -8 -10 -13 -28
-10 -40 2 -12 -7 1 -21 28 -14 28 -26 54 -26 59 0 25 -35 46 -77 46 -34 0 -48
-5 -66 -26 -12 -14 -22 -31 -22 -37 0 -7 -4 -18 -8 -24 -5 -8 -3 -13 4 -13 8
0 9 -11 5 -32 -5 -29 -4 -31 8 -15 13 17 14 16 19 -3 4 -15 13 -20 36 -20 22
0 31 -5 31 -17 0 -14 4 -13 23 5 13 12 27 19 32 15 4 -5 6 0 2 9 -6 18 21 34
35 20 10 -10 0 -62 -11 -62 -4 0 -13 6 -20 13 -11 10 -11 8 -2 -10 6 -13 16
-23 20 -23 5 0 7 -9 4 -20 -3 -11 0 -20 6 -20 6 0 12 5 12 10 1 6 2 14 3 19 0
5 4 12 7 15 12 12 7 -31 -9 -67 -13 -33 -17 -36 -25 -21 -10 17 -11 17 -18 -1
-5 -15 -7 -12 -6 12 0 26 3 31 13 22 7 -6 4 7 -7 30 -11 23 -25 41 -32 41 -9
0 -9 -2 0 -8 17 -11 20 -44 4 -50 -8 -3 -11 0 -7 7 5 7 -3 9 -25 4 -23 -4 -30
-3 -25 6 6 8 1 8 -18 -1 -20 -8 -32 -8 -51 0 -33 15 -32 26 8 46 l32 17 -35
-3 c-42 -3 -51 -14 -40 -44 8 -19 6 -22 -7 -17 -11 4 -14 2 -9 -5 4 -8 2 -10
-8 -6 -8 3 -23 1 -34 -5 -15 -8 -21 -8 -24 1 -3 7 -10 8 -17 4 -22 -14 9 -27
47 -20 24 5 32 3 32 -9 0 -21 -26 -41 -35 -27 -4 6 -13 9 -21 6 -8 -3 -14 0
-15 7 0 7 -4 3 -9 -8 -8 -19 -8 -19 -18 5 -9 22 -11 23 -17 8 -10 -24 -20 -22
-22 4 -1 11 -7 24 -13 28 -7 4 -6 16 4 36 14 25 14 30 1 37 -8 4 -15 17 -15
29 0 17 3 18 15 8 8 -7 12 -17 8 -23 -3 -6 -1 -7 6 -3 6 4 18 0 27 -9 15 -15
15 -18 -5 -39 -22 -23 -28 -46 -12 -46 5 0 11 8 14 18 6 24 47 37 47 15 0 -8
6 -13 13 -10 6 2 11 14 9 25 -3 22 12 30 23 12 12 -19 22 -10 17 16 -3 19 -7
22 -14 12 -7 -10 -11 -9 -23 7 -14 18 -16 18 -32 2 -15 -15 -18 -15 -36 6 -48
55 -69 88 -63 102 7 19 -4 19 -28 2 -14 -10 -18 -26 -18 -64 1 -42 -1 -50 -16
-49 -23 1 -44 30 -36 50 8 21 21 20 27 -1 4 -16 5 -16 6 -1 0 9 -6 23 -14 32
-21 20 -21 43 0 26 21 -17 20 8 -1 38 -8 12 -14 32 -11 45 3 21 4 21 15 -5 10
-23 21 -27 50 -19 1 1 -5 9 -13 19 -64 73 -76 92 -61 92 14 0 49 -44 59 -75 2
-5 11 -2 21 8 10 9 22 17 27 17 13 0 11 -54 -4 -69 -10 -11 -9 -13 3 -9 20 6
32 78 14 85 -7 2 -21 0 -33 -6 -33 -18 -34 -16 -14 37 7 21 9 31 11 58 1 11 8
29 16 39 13 19 15 18 24 -15 6 -19 10 -26 11 -15 0 11 -6 38 -14 60 -8 22 -15
54 -15 70 0 23 -3 27 -10 15 -8 -12 -10 -11 -10 8 0 12 5 22 10 22 6 0 10 5
10 10 0 6 -11 10 -25 10 -17 0 -29 -8 -37 -25 -13 -28 -16 -29 -40 -11 -25 18
-24 56 2 56 14 0 21 9 26 34 5 31 14 40 46 45 4 0 10 -4 14 -10z m341 4 c-9
-2 -15 -8 -12 -13 6 -9 -53 -22 -66 -14 -17 10 -9 25 10 19 11 -3 22 -1 26 5
3 5 18 9 33 9 17 -1 21 -3 9 -6z m133 -104 c0 -12 -5 -16 -14 -13 -17 7 -28
32 -20 45 8 14 34 -10 34 -32z m620 21 c0 -11 -4 -20 -10 -20 -5 0 -10 9 -10
20 0 11 5 20 10 20 6 0 10 -9 10 -20z m-570 -5 c0 -8 -4 -15 -10 -15 -5 0 -10
7 -10 15 0 8 5 15 10 15 6 0 10 -7 10 -15z m14 -42 c-10 -7 -20 -10 -23 -7 -3
3 2 10 12 15 9 6 18 20 18 32 2 20 2 20 6 -2 3 -16 -1 -29 -13 -38z m156 37
c-12 -23 -30 -27 -30 -7 0 17 10 27 27 27 11 0 11 -5 3 -20z m444 14 c9 -3 13
-10 10 -15 -8 -14 -31 -11 -38 6 -6 16 3 19 28 9z m-533 -48 c5 -6 9 -1 9 14
0 23 1 23 17 7 25 -25 4 -43 -35 -31 -27 8 -29 11 -19 34 9 23 10 23 14 5 3
-11 9 -24 14 -29z m424 14 c3 -5 -1 -10 -9 -10 -9 0 -16 5 -16 10 0 6 4 10 9
10 6 0 13 -4 16 -10z m-1045 -4 c0 -3 -4 -8 -10 -11 -5 -3 -10 -1 -10 4 0 6 5
11 10 11 6 0 10 -2 10 -4z m1089 -28 c12 -15 11 -18 -3 -18 -10 0 -16 8 -16
22 0 12 1 19 3 17 1 -2 9 -12 16 -21z m-1124 -51 c5 -23 9 -28 13 -16 5 11 14
13 32 9 21 -6 22 -8 8 -14 -11 -5 -17 -19 -16 -44 0 -37 -16 -92 -27 -92 -3 0
-3 15 0 33 15 76 13 87 -9 87 -15 0 -26 11 -39 41 -10 22 -15 45 -11 50 10 16
41 -18 49 -54z m25 29 c0 -3 -4 -8 -10 -11 -5 -3 -10 -1 -10 4 0 6 5 11 10 11
6 0 10 -2 10 -4z m1125 -15 c3 -5 -4 -13 -16 -16 -23 -8 -34 -1 -24 14 8 13
32 14 40 2z m-157 -35 c-2 -10 -7 -13 -17 -7 -8 6 -11 16 -7 27 8 21 30 4 24
-20z m466 -41 c-4 -44 -2 -56 10 -61 20 -8 20 -46 1 -84 -15 -29 -52 -57 -62
-46 -9 9 8 116 19 116 6 0 8 -18 5 -47 -6 -44 -5 -45 4 -13 5 19 14 43 19 52
11 19 3 27 -22 23 -22 -4 -23 11 -3 31 10 11 12 21 6 32 -6 10 -5 22 2 34 20
31 26 20 21 -37z m-1454 -35 c0 -28 0 -28 -30 -14 -32 17 -33 18 -24 51 6 21
7 21 30 6 16 -10 24 -25 24 -43z m1480 39 c0 -5 -4 -9 -10 -9 -5 0 -10 7 -10
16 0 8 5 12 10 9 6 -3 10 -10 10 -16z m44 -65 c4 -9 -2 -14 -17 -14 -18 0 -19
2 -7 10 10 6 11 10 3 10 -7 0 -13 4 -13 10 0 14 27 1 34 -16z m-764 0 c0 -8
-4 -12 -10 -9 -5 3 -10 10 -10 16 0 5 5 9 10 9 6 0 10 -7 10 -16z m-782 -12
c2 -7 -2 -10 -12 -6 -9 3 -16 11 -16 16 0 13 23 5 28 -10z m642 -17 c0 -5 -5
-3 -10 5 -8 12 -10 12 -10 -5 -1 -34 -17 -51 -18 -19 0 37 17 61 29 42 5 -7 9
-17 9 -23z m34 19 c9 -24 7 -36 -6 -32 -13 5 -22 48 -9 48 5 0 12 -7 15 -16z
m694 3 c19 -12 14 -27 -8 -27 -11 0 -20 2 -20 4 0 2 -3 11 -6 19 -6 16 11 18
34 4z m-38 -17 c0 -9 -31 -30 -44 -30 -8 0 27 38 37 39 4 1 7 -3 7 -9z m84
-42 c-9 -14 -24 2 -24 25 1 21 1 21 15 3 8 -10 12 -23 9 -28z m-494 -24 c0
-13 -4 -24 -9 -24 -13 0 -24 37 -16 50 10 16 25 1 25 -26z m596 9 c-10 -10
-19 5 -10 18 6 11 8 11 12 0 2 -7 1 -15 -2 -18z m-844 -28 c-13 -28 -42 -34
-42 -8 0 22 32 53 44 42 6 -5 5 -18 -2 -34z m-101 18 c13 -15 12 -15 -8 -4
-24 12 -29 21 -14 21 5 0 15 -7 22 -17z m206 -25 c-3 -7 -5 -2 -5 12 0 14 2
19 5 13 2 -7 2 -19 0 -25z m363 7 c14 -19 14 -19 -2 -6 -10 7 -18 18 -18 24 0
6 1 8 3 6 1 -2 9 -13 17 -24z m360 -8 c0 -17 -38 -53 -46 -44 -7 6 27 56 39
57 4 0 7 -6 7 -13z m-1140 -32 c0 -15 -29 -35 -51 -35 -7 0 -2 11 11 25 27 28
40 32 40 10z m78 -5 c6 0 12 -8 12 -18 0 -10 6 -24 13 -31 8 -8 1 -7 -18 3
-16 8 -38 17 -47 20 -10 3 -18 13 -18 22 0 12 6 15 23 10 12 -3 28 -6 35 -6z
m230 -21 c-3 -8 -7 -3 -11 10 -4 17 -3 21 5 13 5 -5 8 -16 6 -23z m72 15 c0
-8 -4 -12 -10 -9 -5 3 -10 10 -10 16 0 5 5 9 10 9 6 0 10 -7 10 -16z m627 10
c-3 -3 -12 -4 -19 -1 -8 3 -5 6 6 6 11 1 17 -2 13 -5z m28 -14 c3 -5 1 -10 -4
-10 -6 0 -11 5 -11 10 0 6 2 10 4 10 3 0 8 -4 11 -10z m155 -26 c0 -7 4 -16
10 -19 6 -3 7 1 4 9 -3 9 -2 16 4 16 12 0 24 -29 16 -41 -3 -5 -1 -9 5 -9 5 0
11 5 13 12 3 7 7 5 11 -6 5 -13 2 -19 -12 -23 -11 -3 -21 -17 -25 -36 -6 -28
-7 -29 -19 -13 -12 16 -13 16 -14 -3 -2 -28 14 -36 28 -13 11 18 12 18 34 -4
12 -12 25 -29 28 -38 4 -9 13 -13 21 -10 8 3 23 1 34 -5 16 -9 21 -7 25 11 4
14 3 18 -4 11 -14 -14 -59 -4 -59 13 0 7 9 18 19 24 24 12 44 13 37 1 -3 -5 2
-8 12 -7 13 1 18 -9 22 -39 6 -44 -7 -98 -21 -89 -5 3 -9 0 -9 -5 0 -21 -27
-11 -38 14 -6 14 -17 25 -23 25 -7 0 -4 -9 7 -22 19 -21 19 -21 -3 -16 -13 4
-23 3 -23 -1 0 -11 -36 -7 -52 6 -21 16 -48 23 -48 13 0 -6 7 -10 15 -10 8 0
15 -4 15 -8 0 -4 -9 -8 -20 -8 -11 0 -20 3 -20 7 0 3 -12 4 -26 1 -32 -6 -30
17 3 33 11 6 18 15 16 22 -6 17 16 26 32 13 16 -14 18 -10 9 14 -3 9 -13 16
-21 16 -11 0 -14 7 -10 21 3 12 1 32 -5 45 -8 18 -8 28 3 41 8 10 0 6 -17 -7
-17 -14 -35 -34 -40 -45 -6 -11 -15 -19 -22 -17 -7 1 -12 -5 -12 -13 0 -8 -4
-15 -10 -15 -15 0 -12 11 8 33 13 15 14 21 4 24 -10 4 -9 9 4 24 9 10 14 19
10 19 -4 0 -4 5 0 11 4 8 9 7 15 -2 5 -8 2 -20 -7 -30 -11 -12 -12 -19 -4 -24
6 -3 9 -2 8 4 -2 5 6 17 17 25 12 9 15 15 7 16 -7 0 -11 4 -7 10 3 5 12 7 20
3 8 -3 15 0 15 7 0 7 -8 10 -20 7 -11 -3 -22 -2 -25 3 -7 12 37 21 50 10 8 -7
10 0 7 23 -5 29 -3 31 12 18 9 -7 16 -19 16 -27z m-657 -1 c3 -16 0 -34 -6
-42 -10 -12 -9 -13 7 -8 15 6 17 5 8 -6 -7 -8 -9 -17 -5 -20 3 -4 11 0 17 9
10 14 14 13 30 -5 20 -22 14 -61 -9 -61 -19 0 -108 87 -96 94 6 4 8 13 4 21
-8 23 4 45 26 45 12 0 20 -9 24 -27z m-486 -9 c10 10 33 -15 33 -35 0 -25 -47
-26 -53 -1 -4 13 -5 14 -6 1 0 -8 8 -25 18 -36 11 -12 17 -23 14 -26 -8 -9
-48 32 -49 51 -4 64 -5 67 -13 54 -4 -7 -5 -31 -1 -53 5 -28 4 -39 -4 -36 -6
2 -13 12 -15 23 -2 10 -9 23 -17 27 -18 10 -18 27 0 27 7 0 19 7 26 15 11 14
15 14 37 -1 14 -8 27 -13 30 -10z m293 15 c0 -6 7 -8 16 -5 21 8 45 -11 37
-30 -3 -8 1 -14 8 -14 7 0 10 -3 7 -6 -4 -3 -16 0 -28 6 -18 10 -20 14 -9 21
8 5 9 9 3 9 -6 0 -17 -7 -24 -15 -7 -8 -17 -15 -22 -15 -6 0 -4 7 3 17 11 13
11 17 2 20 -15 5 -17 23 -3 23 6 0 10 -5 10 -11z m751 -2 c-6 -8 -8 -17 -4
-20 3 -4 -3 -7 -15 -7 -20 0 -21 2 -10 20 7 11 19 20 27 20 10 0 11 -3 2 -13z
m-1391 -17 c0 -5 -5 -10 -11 -10 -5 0 -7 5 -4 10 3 6 8 10 11 10 2 0 4 -4 4
-10z m610 -11 c0 -4 -7 -6 -15 -3 -8 4 -15 10 -15 15 0 4 7 6 15 3 8 -4 15
-10 15 -15z m980 -4 c7 -8 10 -15 7 -15 -3 0 -1 -15 3 -34 7 -31 5 -35 -17
-41 -44 -11 -60 20 -23 43 12 7 18 17 15 22 -3 6 -1 10 6 10 7 0 4 7 -7 15
-10 8 -14 15 -8 15 6 0 17 -7 24 -15z m-825 -16 c-6 -16 -45 -43 -52 -36 -2 3
8 17 23 31 30 27 38 28 29 5z m-752 -14 c-3 -11 -7 -27 -8 -35 0 -8 -6 -23
-11 -33 -9 -15 -11 -8 -13 36 -1 50 1 56 19 54 15 -1 18 -6 13 -22z m564 13
c0 -7 3 -24 7 -38 6 -24 6 -24 -9 3 -9 15 -13 32 -10 37 8 13 12 13 12 -2z
m332 -4 c1 -1 1 -7 0 -13 -2 -5 -15 0 -29 11 l-25 21 25 -8 c14 -4 27 -9 29
-11z m-244 -4 c3 -5 1 -10 -4 -10 -6 0 -11 5 -11 10 0 6 2 10 4 10 3 0 8 -4
11 -10z m-24 -58 c1 -28 6 -49 11 -46 4 3 8 -2 8 -10 0 -20 -17 -30 -23 -14
-4 8 -6 7 -6 -3 -1 -9 -7 -19 -15 -22 -21 -8 -19 112 2 136 8 9 17 16 18 14 2
-2 4 -26 5 -55z m401 34 c-7 -38 49 -87 61 -53 2 6 8 9 12 4 5 -4 3 -17 -4
-30 -16 -30 7 -76 46 -93 28 -12 28 -12 -14 -13 -37 -1 -43 2 -43 19 0 13 -10
24 -25 30 -22 8 -24 12 -13 29 9 15 8 24 -5 45 -10 14 -22 26 -28 26 -6 0 -1
-12 10 -26 25 -32 16 -50 -28 -56 -21 -3 -28 -1 -24 9 3 7 -2 13 -11 13 -27 0
-15 53 15 62 20 6 19 7 -8 5 -26 -3 -30 -1 -22 9 6 7 7 19 3 25 -5 9 1 10 24
6 20 -4 32 -2 32 4 0 6 6 9 13 6 6 -2 11 -12 9 -21z m147 -3 c-12 -15 -12 -16
4 -10 22 8 22 -1 0 -25 -13 -14 -14 -21 -5 -30 9 -9 12 -8 12 4 0 10 7 16 19
15 11 0 18 -4 15 -8 -2 -4 0 -10 6 -14 21 -13 9 -25 -21 -21 -35 3 -54 27 -46
57 6 23 -8 26 -17 3 -7 -18 -26 -10 -26 12 0 8 10 14 24 14 14 0 28 5 31 10 3
6 9 10 12 10 3 0 -1 -8 -8 -17z m-419 -3 c0 -5 6 -10 14 -10 13 0 31 -29 23
-37 -8 -8 -37 10 -37 23 0 20 -17 17 -37 -6 -10 -11 -23 -20 -30 -20 -6 0 -15
-5 -19 -12 -5 -8 0 -9 14 -6 12 4 25 2 28 -3 3 -5 -6 -9 -20 -9 -15 0 -30 8
-36 20 -9 17 -8 20 10 20 11 0 20 5 20 10 0 6 7 10 15 10 9 0 18 7 21 15 7 17
34 21 34 5z m150 -44 c-24 -44 -25 -53 -4 -35 13 10 17 10 25 -2 23 -36 -15
-53 -42 -18 -15 20 -16 25 -3 32 8 4 14 16 14 25 0 10 5 23 12 30 20 20 20 6
-2 -32z m-970 6 c16 4 32 -49 18 -58 -11 -7 -28 13 -28 33 0 6 -8 9 -19 6 -15
-4 -19 0 -17 20 1 23 3 24 17 11 9 -8 22 -14 29 -12z m2047 12 c-3 -3 -12 -4
-19 -1 -8 3 -5 6 6 6 11 1 17 -2 13 -5z m-1862 -13 c7 -12 -12 -24 -25 -16
-11 7 -4 25 10 25 5 0 11 -4 15 -9z m815 -12 c0 -5 -4 -9 -10 -9 -5 0 -10 7
-10 16 0 8 5 12 10 9 6 -3 10 -10 10 -16z m400 17 c0 -37 -54 -51 -63 -16 -4
17 0 20 29 20 19 0 34 -2 34 -4z m80 -21 c0 -8 -7 -15 -16 -15 -9 0 -14 -6
-11 -12 2 -7 0 -21 -5 -31 -9 -18 -10 -18 -23 0 -19 23 -18 33 0 33 8 0 19 9
25 20 13 24 30 26 30 5z m-1400 -4 c0 -5 -8 -17 -17 -27 -20 -20 -32 -1 -13
21 14 17 30 20 30 6z m755 -1 c3 -6 17 -7 31 -4 24 6 34 -9 14 -21 -5 -3 -10
-15 -10 -26 0 -10 -7 -19 -15 -19 -8 0 -15 6 -15 14 0 8 -11 17 -25 20 -31 8
-35 46 -6 46 11 0 23 -5 26 -10z m369 -5 c3 -8 0 -15 -6 -15 -7 0 -5 -7 4 -17
23 -28 30 -53 13 -53 -22 0 -51 48 -37 62 6 6 8 17 5 24 -3 8 -1 14 5 14 5 0
12 -7 16 -15z m-1226 -32 c-4 -34 -28 -43 -28 -10 0 25 7 37 22 37 5 0 8 -12
6 -27z m944 -6 c3 -26 0 -33 -15 -34 -26 -2 -33 24 -12 47 10 11 19 20 20 20
2 0 5 -15 7 -33z m578 10 c0 -12 -35 -57 -45 -57 -3 0 3 16 13 35 17 35 32 45
32 22z m-715 -7 c3 -6 -5 -14 -19 -20 -16 -6 -26 -17 -26 -29 0 -26 -9 -30
-43 -24 -31 6 -34 35 -4 41 12 3 15 -1 10 -14 -4 -12 -3 -15 5 -10 7 4 12 18
12 31 0 13 6 26 13 28 21 9 46 7 52 -3z m490 0 c3 -5 1 -10 -4 -10 -6 0 -11 5
-11 10 0 6 2 10 4 10 3 0 8 -4 11 -10z m-974 -22 c6 -13 8 -20 5 -16 -4 3 -17
-3 -27 -13 -24 -24 -45 -20 -41 7 3 19 28 44 44 44 4 0 13 -10 19 -22z m-253
5 c-10 -2 -26 -2 -35 0 -10 3 -2 5 17 5 19 0 27 -2 18 -5z m354 -18 c21 -25
23 -42 3 -25 -8 7 -24 10 -34 7 -11 -3 -28 1 -38 9 -10 7 -13 14 -8 14 6 0 4
4 -3 8 -8 5 2 8 25 8 25 -1 44 -8 55 -21z m225 18 c-4 -3 1 -12 11 -19 22 -17
-1 -19 -31 -2 -21 11 -21 11 -2 19 26 10 30 10 22 2z m193 -3 c0 -5 -2 -10 -4
-10 -3 0 -8 5 -11 10 -3 6 -1 10 4 10 6 0 11 -4 11 -10z m283 -25 c29 -27 33
-35 18 -35 -11 0 -61 44 -61 54 0 12 16 5 43 -19z m157 13 c0 -6 7 -20 17 -30
15 -17 15 -18 -4 -18 -20 0 -33 18 -33 46 0 8 5 14 10 14 6 0 10 -5 10 -12z
m-1220 -13 c-7 -8 -19 -15 -26 -15 -8 0 -14 7 -14 15 0 10 10 15 26 15 22 0
25 -2 14 -15z m760 0 c0 -5 -12 -13 -25 -17 -20 -5 -25 -3 -25 14 0 15 6 19
25 16 14 -2 25 -7 25 -13z m274 -26 c-10 -17 -44 -10 -44 9 0 10 3 22 7 25 9
9 44 -23 37 -34z m-1089 21 c3 -5 2 -10 -4 -10 -5 0 -13 5 -16 10 -3 6 -2 10
4 10 5 0 13 -4 16 -10z m95 2 c0 -13 -12 -22 -22 -16 -10 6 -1 24 13 24 5 0 9
-4 9 -8z m888 -14 c2 -11 -5 -15 -23 -15 -28 0 -31 7 -13 25 15 15 32 10 36
-10z m-120 -7 c3 -8 -1 -12 -9 -9 -7 2 -15 10 -17 17 -3 8 1 12 9 9 7 -2 15
-10 17 -17z m172 4 c0 -9 -9 -15 -22 -15 -22 1 -23 1 -4 15 25 19 26 19 26 0z
m-213 -11 c-3 -3 -12 -4 -19 -1 -8 3 -5 6 6 6 11 1 17 -2 13 -5z m1293 -4 c0
-11 -21 -11 -65 0 -27 7 -25 8 18 9 26 0 47 -3 47 -9z m-1135 -15 c319 -4 627
-8 685 -10 58 -2 188 -4 289 -4 l184 -1 -6 -117 c-4 -65 -7 -122 -7 -127 0 -5
-296 -6 -712 -3 -392 4 -878 7 -1080 7 l-368 0 0 128 c0 71 3 132 7 136 4 4
102 5 218 2 115 -3 471 -8 790 -11z"/>
<path d="M634 2795 c-5 -39 0 -85 10 -74 2 2 6 30 9 62 7 67 -9 78 -19 12z"/>
<path d="M1055 2840 c-3 -5 -1 -10 4 -10 6 0 11 5 11 10 0 6 -2 10 -4 10 -3 0
-8 -4 -11 -10z"/>
<path d="M953 2805 c0 -11 8 -15 24 -13 13 2 24 8 24 13 0 6 -11 11 -24 13
-16 2 -24 -2 -24 -13z"/>
<path d="M1058 2813 c-14 -3 -18 -15 -18 -48 0 -38 -3 -43 -17 -38 -15 5 -16
3 -5 -8 16 -17 29 -3 34 36 2 20 9 30 20 30 20 0 37 15 17 15 -11 0 -11 2 1
10 13 9 13 10 0 9 -8 -1 -23 -3 -32 -6z"/>
<path d="M1008 2690 c13 -6 31 -6 45 0 18 7 14 9 -23 9 -37 0 -41 -2 -22 -9z"/>
<path d="M849 2368 c-5 -420 -4 -577 3 -570 14 14 22 662 9 662 -7 0 -11 -33
-12 -92z"/>
<path d="M1573 2048 c-15 -19 -33 -77 -33 -105 0 -30 27 -62 35 -41 18 48 32
108 25 108 -8 0 -25 -40 -33 -75 -3 -13 -5 -10 -6 10 0 17 8 49 19 73 18 40
14 57 -7 30z"/>
<path d="M1069 1766 c-8 -8 3 -156 12 -156 11 0 12 130 1 148 -5 7 -10 10 -13
8z"/>
<path d="M320 1581 c0 -5 9 -7 20 -4 11 3 20 7 20 9 0 2 -9 4 -20 4 -11 0 -20
-4 -20 -9z"/>
<path d="M490 1405 c0 -8 4 -15 10 -15 5 0 7 7 4 15 -4 8 -8 15 -10 15 -2 0
-4 -7 -4 -15z"/>
<path d="M578 1493 c6 -2 18 -2 25 0 6 3 1 5 -13 5 -14 0 -19 -2 -12 -5z"/>
<path d="M678 1483 c18 -2 45 -2 60 0 15 2 0 4 -33 4 -33 0 -45 -2 -27 -4z"/>
<path d="M1115 1080 c5 -14 3 -20 -3 -16 -6 4 -8 -2 -5 -14 3 -11 9 -17 14
-14 12 7 11 1 -1 -31 -8 -20 -7 -26 2 -23 7 3 16 21 19 41 3 20 2 34 -3 31 -4
-3 -8 4 -8 15 0 11 -5 23 -11 27 -8 4 -9 -1 -4 -16z"/>
<path d="M1022 1058 c-16 -16 -15 -34 4 -63 16 -25 44 -34 44 -15 0 6 -7 10
-15 10 -16 0 -31 43 -20 59 11 19 23 12 30 -18 6 -27 27 -46 38 -34 3 2 -4 20
-15 39 -21 35 -45 43 -66 22z"/>
<path d="M951 923 c1 -17 3 -21 6 -10 2 9 9 17 14 17 6 0 7 5 4 10 -12 19 -25
10 -24 -17z"/>
<path d="M954 884 c-18 -14 -18 -15 4 -4 12 6 22 13 22 15 0 8 -5 6 -26 -11z"/>
<path d="M968 869 c-19 -11 -24 -29 -8 -29 5 0 14 9 20 20 12 23 12 23 -12 9z"/>
<path d="M950 774 c0 -8 5 -12 10 -9 6 4 8 11 5 16 -9 14 -15 11 -15 -7z"/>
<path d="M810 690 l-25 -8 28 -1 c15 -1 27 4 27 9 0 6 -1 10 -2 9 -2 -1 -14
-5 -28 -9z"/>
<path d="M669 1068 c0 -2 -2 -14 -5 -27 -4 -19 -2 -22 10 -12 11 9 15 9 19 -1
4 -8 6 -7 6 5 1 10 -6 17 -16 17 -15 0 -16 2 -3 10 10 6 11 10 3 10 -7 0 -13
-1 -14 -2z"/>
<path d="M734 1062 c4 -7 1 -12 -8 -12 -9 0 -16 -8 -16 -17 0 -15 2 -16 10 -3
6 10 10 11 10 3 0 -7 5 -13 10 -13 14 0 13 37 -2 46 -7 4 -8 3 -4 -4z"/>
<path d="M132 1029 c8 -4 28 -4 44 0 26 8 25 9 -15 9 -29 0 -39 -3 -29 -9z"/>
<path d="M171 938 c2 -2 20 -16 39 -33 l35 -30 -29 33 c-17 17 -34 32 -40 32
-5 0 -7 -1 -5 -2z"/>
<path d="M266 875 c-15 -12 -17 -18 -8 -27 9 -9 9 -15 -1 -26 -10 -12 -9 -14
3 -10 9 3 15 17 15 34 0 38 26 39 39 2 15 -42 -16 -72 -66 -64 l-37 6 9 -30
c7 -25 5 -32 -10 -40 -25 -14 -50 -13 -50 2 0 9 -3 9 -12 0 -10 -10 -10 -15 2
-22 20 -13 47 -12 55 1 5 6 11 4 19 -7 12 -15 16 -16 44 -3 35 15 48 37 32 53
-18 18 -10 28 19 21 23 -5 32 -2 45 17 9 12 15 32 15 43 -1 20 -1 20 -6 0 -7
-27 -23 -45 -40 -45 -21 0 -8 50 19 73 11 10 18 20 14 24 -3 4 -12 -1 -19 -11
-12 -16 -14 -16 -31 3 -22 25 -25 25 -50 6z m-7 -114 c8 -5 11 -16 8 -26 -6
-13 -3 -15 13 -10 29 9 24 -4 -6 -15 -32 -12 -50 -4 -33 16 8 10 8 14 0 14 -6
0 -11 7 -11 15 0 17 9 19 29 6z"/>
<path d="M206 855 c9 -14 21 -25 27 -25 6 0 0 11 -13 25 -13 14 -25 25 -27 25
-2 0 4 -11 13 -25z"/>
<path d="M337 702 c-19 -21 -22 -48 -6 -58 8 -4 9 1 4 15 -4 15 -1 29 11 42 9
10 15 19 12 19 -3 0 -12 -8 -21 -18z"/>
<path d="M360 665 c-8 -9 -8 -15 -2 -15 12 0 26 19 19 26 -2 2 -10 -2 -17 -11z"/>
<path d="M272 644 c-22 -15 -28 -48 -13 -72 7 -11 9 -11 13 0 8 21 56 21 61 0
4 -13 5 -11 6 6 1 15 -5 22 -18 22 -14 0 -17 6 -14 24 6 31 -8 39 -35 20z m28
-18 c0 -20 -26 -40 -35 -26 -10 16 2 40 20 40 8 0 15 -6 15 -14z"/>
<path d="M174 575 c-3 -7 -4 -28 -1 -47 3 -30 4 -29 5 10 3 64 32 49 32 -17 0
-15 6 -36 14 -47 13 -16 17 -17 28 -5 9 10 9 12 1 7 -7 -4 -13 -2 -13 5 0 7 8
9 21 6 16 -4 18 -3 9 8 -6 7 -20 10 -32 7 -15 -3 -19 -1 -16 9 5 16 80 21 90
5 5 -7 8 -4 8 7 0 13 -7 18 -22 16 -32 -3 -81 19 -75 34 3 7 -5 13 -20 13 -13
1 -27 -4 -29 -11z"/>
<path d="M286 562 c-3 -4 4 -9 15 -9 23 -2 25 3 4 10 -8 4 -16 3 -19 -1z"/>
<path d="M333 493 c-3 -10 -8 -21 -10 -25 -2 -5 0 -8 5 -8 5 0 12 11 14 25 6
29 0 33 -9 8z"/>
<path d="M410 427 c0 -2 6 -10 14 -16 11 -9 16 -9 22 1 4 7 4 10 -1 6 -4 -4
-14 -3 -22 3 -7 6 -13 9 -13 6z"/>
<path d="M1646 391 c-6 -8 5 -20 32 -35 6 -4 12 -2 12 3 0 6 -7 11 -15 11 -18
0 -20 16 -2 23 7 3 6 6 -5 6 -9 1 -19 -3 -22 -8z"/>
<path d="M1683 336 c-13 -12 -23 -26 -23 -31 0 -6 5 -3 10 5 5 8 13 15 17 15
4 0 16 5 27 11 14 8 15 12 5 16 -8 3 -24 -5 -36 -16z"/>
<path d="M937 522 c-17 -18 -14 -32 6 -32 6 0 7 3 4 6 -3 4 -2 15 4 25 12 24
7 24 -14 1z"/>
<path d="M470 526 c0 -2 7 -6 15 -10 8 -3 15 -1 15 4 0 6 -7 10 -15 10 -8 0
-15 -2 -15 -4z"/>
<path d="M377 224 c-4 -4 -7 -38 -7 -76 0 -61 2 -68 20 -68 16 0 20 7 20 36 0
31 3 35 23 32 17 -2 23 -11 25 -35 2 -21 9 -33 18 -33 11 0 14 16 14 70 0 63
-2 70 -20 70 -16 0 -20 -7 -20 -30 0 -23 -5 -30 -19 -30 -15 0 -21 8 -23 32
-3 31 -17 45 -31 32z"/>
<path d="M520 167 c0 -36 -2 -71 -5 -79 -4 -10 5 -12 40 -10 38 3 45 7 45 26
-1 19 -2 19 -11 4 -15 -27 -39 -22 -39 7 0 14 5 25 10 25 6 0 10 7 10 15 0 8
-4 15 -10 15 -5 0 -10 9 -10 20 0 22 20 26 38 8 9 -9 12 -8 12 5 0 11 -8 17
-24 17 -13 0 -31 3 -40 6 -14 5 -16 -4 -16 -59z"/>
<path d="M223 208 c2 -7 12 -12 22 -10 32 6 37 -17 20 -104 -4 -17 -1 -20 18
-17 20 4 22 9 19 60 -4 61 8 84 33 63 12 -10 15 -10 15 4 0 13 -12 16 -66 16
-48 0 -65 -3 -61 -12z"/>
<path d="M698 213 c7 -3 12 -26 12 -63 0 -47 -3 -59 -17 -63 -10 -3 0 -5 22
-6 25 0 35 2 27 8 -9 5 -12 23 -10 51 l3 44 35 -52 c19 -28 38 -52 41 -52 5 0
19 25 35 65 7 16 9 11 12 -22 3 -39 6 -43 29 -43 20 0 23 3 14 13 -16 21 -23
97 -10 113 9 11 7 14 -13 14 -19 0 -26 -8 -37 -45 -7 -25 -17 -47 -21 -50 -4
-3 -22 18 -40 45 -28 43 -36 50 -64 49 -17 0 -25 -3 -18 -6z"/>
<path d="M949 211 c12 -8 13 -18 2 -65 -7 -30 -18 -57 -24 -60 -7 -2 -1 -5 13
-5 22 -1 26 3 25 26 0 40 30 42 50 4 9 -18 24 -31 34 -31 16 0 15 6 -11 56
-15 31 -28 63 -28 70 0 9 -12 14 -37 14 -27 0 -34 -3 -24 -9z m39 -60 c-15 -5
-21 7 -13 26 7 17 8 17 15 -2 4 -11 3 -22 -2 -24z"/>
<path d="M1095 195 c-50 -49 -17 -115 57 -115 36 0 38 2 38 30 0 26 -4 30 -27
30 -25 0 -26 -1 -8 -13 13 -10 15 -16 6 -21 -17 -11 -51 22 -51 50 0 43 50 69
50 26 1 -15 2 -15 15 2 19 25 11 36 -26 36 -18 0 -39 -9 -54 -25z"/>
<path d="M1228 211 c10 -6 13 -26 10 -72 -2 -52 0 -64 12 -64 12 0 16 16 18
73 l3 72 -28 0 c-19 0 -24 -3 -15 -9z"/>
<path d="M1343 205 c-52 -22 -57 -89 -9 -121 18 -11 30 -12 50 -5 32 13 34 20
3 14 -33 -7 -59 22 -55 61 2 24 8 32 27 34 13 2 28 -1 34 -7 16 -16 27 -13 27
8 0 10 -7 22 -16 25 -21 8 -24 8 -61 -9z"/>
<path d="M1450 210 c0 -5 4 -10 10 -10 5 0 10 -28 12 -62 2 -38 8 -63 16 -66
9 -3 12 16 12 72 0 74 -1 76 -25 76 -14 0 -25 -4 -25 -10z"/>
<path d="M1695 211 c-3 -6 1 -11 9 -11 13 0 16 -12 16 -59 0 -38 -4 -61 -12
-64 -7 -3 -3 -6 9 -6 19 -1 21 3 16 39 -7 50 7 51 33 3 11 -21 28 -39 37 -41
15 -3 17 6 17 61 0 43 4 67 13 70 6 3 3 6 -8 6 -18 1 -20 -4 -17 -44 2 -25 0
-45 -4 -45 -5 0 -20 21 -34 48 -25 46 -60 67 -75 43z"/>
<path d="M1553 154 c-2 -31 -8 -63 -14 -70 -9 -11 -7 -14 10 -14 17 0 20 4 15
29 -5 23 -2 29 15 34 24 6 47 -24 37 -49 -4 -11 4 -14 32 -14 27 1 33 3 21 10
-8 5 -24 36 -34 70 -17 57 -20 60 -49 60 -31 0 -31 -1 -33 -56z m47 4 c0 -5
-7 -8 -15 -8 -15 0 -20 21 -8 33 7 7 23 -11 23 -25z"/>
<path d="M1890 80 c0 -5 5 -10 10 -10 6 0 10 5 10 10 0 6 -4 10 -10 10 -5 0
-10 -4 -10 -10z"/>
<path d="M1030 3770 c0 -5 9 -10 20 -10 17 0 20 -7 20 -45 0 -34 -4 -47 -17
-52 -24 -10 33 -24 64 -17 26 7 31 24 8 24 -11 0 -15 11 -15 43 0 36 4 46 23
55 18 9 12 11 -40 11 -36 1 -63 -3 -63 -9z"/>
<path d="M1560 3719 c0 -5 5 -7 10 -4 6 3 10 8 10 11 0 2 -4 4 -10 4 -5 0 -10
-5 -10 -11z"/>
<path d="M1590 3685 c0 -8 5 -15 10 -15 6 0 10 7 10 15 0 8 -4 15 -10 15 -5 0
-10 -7 -10 -15z"/>
<path d="M1845 3569 c-10 -15 3 -25 16 -12 7 7 7 13 1 17 -6 3 -14 1 -17 -5z"/>
<path d="M1795 3549 c-10 -15 1 -23 20 -15 9 3 13 10 10 16 -8 13 -22 13 -30
-1z"/>
<path d="M70 3519 c0 -5 5 -7 10 -4 6 3 10 8 10 11 0 2 -4 4 -10 4 -5 0 -10
-5 -10 -11z"/>
<path d="M130 3499 c0 -5 5 -7 10 -4 6 3 10 8 10 11 0 2 -4 4 -10 4 -5 0 -10
-5 -10 -11z"/>
<path d="M150 3459 c0 -5 5 -7 10 -4 6 3 10 8 10 11 0 2 -4 4 -10 4 -5 0 -10
-5 -10 -11z"/>
<path d="M1890 3401 c0 -6 4 -13 10 -16 6 -3 7 1 4 9 -7 18 -14 21 -14 7z"/>
<path d="M2166 3365 c4 -8 1 -22 -6 -30 -15 -18 1 -20 18 -3 17 17 15 48 -3
48 -9 0 -12 -6 -9 -15z"/>
<path d="M1941 3344 c0 -11 3 -14 6 -6 3 7 2 16 -1 19 -3 4 -6 -2 -5 -13z"/>
<path d="M1910 3320 c0 -5 5 -10 11 -10 5 0 7 5 4 10 -3 6 -8 10 -11 10 -2 0
-4 -4 -4 -10z"/>
<path d="M73 3192 c-4 -16 -2 -27 5 -30 18 -6 14 -27 -8 -47 -11 -10 -20 -21
-20 -24 0 -4 9 -7 20 -7 14 0 20 7 20 23 0 15 6 23 16 23 11 0 15 -6 11 -19
-4 -17 -2 -18 13 -8 10 6 16 15 13 20 -3 5 1 14 8 19 11 7 9 9 -7 5 -27 -6
-41 3 -46 28 -2 17 2 19 25 17 15 -1 27 2 27 7 0 6 -7 8 -15 5 -8 -4 -15 -2
-15 3 0 5 -9 9 -20 10 -14 1 -22 -6 -27 -25z"/>
<path d="M236 3195 c8 -20 -13 -45 -40 -46 -18 -1 -18 -2 -3 -6 10 -3 27 3 38
13 20 18 26 54 9 54 -5 0 -7 -7 -4 -15z"/>
<path d="M166 3191 c-3 -5 1 -11 9 -14 9 -4 12 -1 8 9 -6 16 -10 17 -17 5z"/>
<path d="M838 3139 c-36 -27 -36 -62 -2 -94 35 -32 78 -32 138 0 57 30 60 30
97 4 36 -25 104 -27 148 -5 26 14 31 22 31 52 0 31 -4 37 -37 50 -41 18 -86
13 -147 -17 -40 -19 -40 -19 -63 3 -34 32 -128 36 -165 7z m363 -9 c43 -24 8
-80 -50 -80 -20 0 -51 9 -70 21 -30 18 -32 22 -19 35 8 8 34 18 59 23 61 12
58 12 80 1z m-226 -14 c19 -8 35 -18 35 -21 0 -13 -67 -45 -95 -45 -31 0 -75
24 -75 40 0 37 74 51 135 26z"/>
<path d="M230 3132 c0 -6 -8 -13 -17 -15 -16 -4 -16 -5 -1 -6 18 -1 34 16 24
26 -3 4 -6 1 -6 -5z"/>
<path d="M181 3103 c0 -6 -10 -9 -21 -6 -11 3 -20 0 -20 -6 0 -6 -12 -16 -27
-22 -16 -7 -23 -13 -15 -16 6 -3 12 -18 12 -35 0 -25 3 -29 20 -25 13 3 20 0
20 -9 0 -8 -9 -19 -20 -26 -22 -14 -27 -57 -10 -89 20 -36 60 -18 66 29 2 17
-1 34 -6 37 -17 11 -11 23 15 29 18 5 25 13 24 29 -1 18 -2 19 -6 4 -3 -12
-10 -16 -21 -12 -8 3 -19 0 -24 -7 -6 -11 -8 -11 -8 0 0 7 11 23 25 36 14 13
25 30 25 37 -1 10 -4 9 -11 -3 -10 -18 -44 -25 -52 -10 -2 4 -2 2 -1 -5 2 -6
-4 -17 -12 -23 -22 -19 -18 26 5 56 18 23 20 24 30 7 12 -23 24 -12 18 19 -2
12 -5 18 -6 11z m-13 -186 c5 -44 -4 -60 -27 -48 -17 10 -26 54 -14 74 11 18
38 0 41 -26z"/>
<path d="M205 2940 c-3 -5 -1 -10 4 -10 6 0 11 5 11 10 0 6 -2 10 -4 10 -3 0
-8 -4 -11 -10z"/>
<path d="M2086 2922 c-6 -10 31 -59 39 -51 7 8 -15 59 -26 59 -4 0 -10 -4 -13
-8z"/>
<path d="M1980 2905 c-7 -9 -11 -17 -9 -20 3 -2 10 5 17 15 14 24 10 26 -8 5z"/>
<path d="M2013 2891 c-6 -18 -7 -31 -2 -31 12 0 22 24 17 45 -2 12 -7 7 -15
-14z"/>
<path d="M2086 2795 c-3 -8 -3 -22 0 -30 4 -8 1 -15 -5 -15 -6 0 -11 9 -11 20
0 22 -15 27 -26 9 -3 -6 -1 -16 5 -22 15 -15 14 -44 -1 -50 -10 -3 -8 -10 5
-24 17 -20 17 -21 0 -28 -16 -6 -16 -8 4 -16 26 -10 22 -35 -8 -44 -29 -10
-25 -45 6 -45 21 0 25 -5 25 -30 0 -36 -7 -38 -20 -7 -9 22 -9 22 -9 1 -1 -23
21 -48 32 -37 4 3 7 19 7 34 0 21 4 27 15 23 17 -7 22 31 5 41 -6 4 -7 -1 -3
-11 5 -14 3 -15 -15 -5 -11 6 -29 8 -39 5 -13 -4 -11 0 7 15 14 11 29 21 34
21 4 0 6 9 3 21 -4 15 -2 19 9 15 16 -6 38 29 29 45 -4 5 -1 17 6 25 6 8 9 17
6 21 -12 11 -37 -19 -37 -43 0 -28 -17 -31 -36 -6 -11 14 -10 19 8 33 13 10
21 29 23 53 2 38 -9 57 -19 31z"/>
<path d="M25 2478 c-7 -54 -1 -306 8 -315 4 -3 7 75 7 175 0 100 -2 182 -4
182 -3 0 -7 -19 -11 -42z"/>
<path d="M1278 2425 c-2 -2 -3 -48 -1 -102 2 -54 3 -104 3 -110 0 -7 5 -13 10
-13 7 0 10 39 9 110 -1 98 -7 129 -21 115z"/>
<path d="M1405 2249 c-6 -37 -2 -59 10 -48 10 11 17 89 7 89 -6 0 -13 -18 -17
-41z"/>
<path d="M1398 2133 c-2 -5 -5 -142 -7 -307 -1 -210 1 -297 9 -294 14 4 24
594 11 603 -5 3 -11 2 -13 -2z"/>
<path d="M1597 872 c-26 -28 -20 -38 7 -13 18 17 25 19 29 9 4 -9 6 -7 6 5 1
22 -21 22 -42 -1z"/>
<path d="M1719 829 c-16 -17 -29 -40 -29 -50 0 -32 -44 -18 -48 16 -2 17 0 25
7 20 6 -3 11 -13 11 -22 0 -9 2 -14 5 -11 4 3 3 18 -1 32 -5 21 -9 24 -20 15
-18 -15 -18 -49 2 -77 8 -12 11 -22 4 -22 -12 0 8 -39 29 -56 10 -8 11 -13 3
-18 -19 -11 -14 -46 6 -46 14 0 14 2 3 9 -20 13 -7 38 23 43 14 3 26 2 26 -2
0 -5 8 -6 19 -3 13 3 24 -6 40 -32 21 -35 31 -75 11 -45 -8 12 -10 11 -10 -7
0 -12 -6 -24 -12 -27 -7 -3 -3 -3 10 0 14 3 22 1 23 -8 0 -7 4 -5 8 6 6 17 10
15 36 -15 15 -19 26 -27 23 -19 -3 8 4 25 16 38 17 19 17 22 3 16 -9 -3 -17
-10 -17 -15 0 -17 -29 -9 -40 11 -9 16 -8 18 5 14 10 -4 15 0 16 12 3 45 -11
67 -37 57 -8 -3 -11 4 -10 21 2 14 -1 23 -5 20 -5 -3 -9 2 -9 10 0 9 -5 16
-11 16 -8 0 -8 5 1 15 7 8 18 15 24 15 6 0 4 -5 -4 -10 -13 -8 -12 -10 4 -10
13 0 16 5 12 16 -4 9 -1 23 5 30 15 18 8 18 -27 -1 -41 -21 -69 -19 -82 8 -9
18 -11 19 -11 4 -1 -20 -21 -13 -21 7 0 17 39 58 50 51 4 -3 10 2 14 10 9 25
-14 17 -45 -16z m34 -90 c29 -13 49 -50 37 -68 -5 -10 -9 -10 -14 -2 -4 6 -12
8 -18 5 -6 -4 -8 -2 -4 4 3 6 2 13 -4 17 -5 3 -10 1 -10 -4 0 -6 -13 -11 -30
-11 -29 0 -40 13 -20 25 6 3 10 12 10 18 0 7 -4 6 -10 -3 -11 -18 -25 -7 -17
15 7 18 46 20 80 4z m107 -130 c0 -24 -23 -21 -28 4 -2 10 3 17 12 17 10 0 16
-9 16 -21z"/>
<path d="M1722 718 c-7 -7 -12 -16 -12 -21 0 -5 7 -1 16 8 9 9 14 18 12 20 -2
3 -10 -1 -16 -7z"/>
<path d="M1800 850 c-14 -4 -18 -9 -10 -9 13 -1 12 -4 -1 -14 -14 -11 -15 -17
-5 -35 7 -13 15 -20 19 -16 4 4 2 13 -4 21 -14 16 17 57 38 49 7 -3 13 -1 13
4 0 11 -14 11 -50 0z"/>
<path d="M1974 838 l-19 -23 23 19 c20 18 22 18 22 2 0 -10 -9 -20 -20 -23
-11 -3 -20 -12 -20 -20 0 -10 -6 -13 -16 -9 -9 3 -24 6 -35 6 -10 0 -19 6 -19
14 0 8 -3 17 -7 19 -5 3 -8 -10 -8 -28 0 -18 2 -31 4 -29 2 2 10 -1 18 -8 7
-6 16 -8 20 -4 3 3 1 6 -5 6 -7 0 -12 5 -12 10 0 6 9 10 20 10 15 0 19 -5 16
-22 -2 -13 -10 -22 -17 -20 -10 3 -10 0 0 -12 11 -13 10 -17 -10 -25 -15 -6
-18 -10 -8 -10 19 -1 21 -31 2 -31 -8 0 -11 5 -8 10 3 6 1 10 -4 10 -18 0 -12
-17 12 -34 12 -9 17 -14 11 -12 -7 3 -14 -1 -18 -9 -6 -18 -2 -19 26 -4 16 8
19 17 14 40 -3 15 -1 31 4 34 6 4 8 10 5 15 -3 5 0 12 6 16 8 4 9 3 5 -4 -4
-7 -3 -12 3 -12 5 0 12 8 14 18 3 10 5 6 6 -10 0 -16 6 -28 11 -28 13 0 13 13
-2 45 -8 18 -14 22 -19 13 -4 -7 -11 -9 -15 -5 -4 4 3 17 15 28 28 26 42 15
48 -37 2 -23 -1 -40 -9 -45 -10 -7 -10 -11 0 -21 16 -16 16 -51 0 -46 -7 3
-14 16 -16 29 -2 14 -12 30 -22 37 -18 11 -20 9 -20 -24 0 -20 9 -49 21 -65
17 -24 24 -27 40 -19 12 7 19 22 20 43 0 18 3 26 6 20 2 -7 9 -13 14 -13 6 0
7 5 4 10 -11 18 6 32 23 18 12 -10 14 -10 8 0 -11 19 3 35 20 21 12 -9 12 -15
2 -27 -11 -13 -10 -15 5 -9 10 4 20 7 23 7 2 0 1 7 -2 15 -4 9 0 15 9 15 17 0
43 28 34 37 -4 3 -32 7 -62 9 -31 2 -59 6 -64 9 -14 8 -31 65 -20 65 5 0 9 -4
9 -10 0 -15 17 -12 23 4 3 7 0 13 -6 13 -38 -1 -47 4 -47 28 0 31 -11 32 -36
3z m116 -138 c0 -10 -37 -20 -44 -12 -3 3 -6 13 -6 23 0 16 3 17 25 7 14 -6
25 -14 25 -18z m61 10 c5 0 9 -4 9 -9 0 -13 -43 -22 -53 -12 -13 13 2 33 20
27 8 -3 19 -6 24 -6z m-111 -40 c0 -5 -2 -10 -4 -10 -3 0 -8 5 -11 10 -3 6 -1
10 4 10 6 0 11 -4 11 -10z m-67 -30 c-7 -28 -13 -25 -13 6 0 14 4 23 9 20 5
-3 7 -15 4 -26z m36 -29 c9 -6 10 -11 2 -15 -13 -8 -31 1 -31 15 0 11 11 11
29 0z"/>
<path d="M1473 810 c0 -25 2 -35 4 -22 2 12 2 32 0 45 -2 12 -4 2 -4 -23z"/>
<path d="M1607 824 c-10 -13 -13 -24 -8 -24 10 0 36 39 29 45 -2 2 -11 -8 -21
-21z"/>
<path d="M1735 810 c-3 -6 1 -7 9 -4 18 7 21 14 7 14 -6 0 -13 -4 -16 -10z"/>
<path d="M1851 804 c0 -11 3 -14 6 -6 3 7 2 16 -1 19 -3 4 -6 -2 -5 -13z"/>
<path d="M2086 779 c-10 -10 -16 -24 -13 -31 4 -10 6 -10 6 1 1 8 9 20 18 27
10 7 16 14 13 17 -3 2 -13 -4 -24 -14z"/>
<path d="M1847 689 c4 -13 8 -18 11 -10 2 7 -1 18 -6 23 -8 8 -9 4 -5 -13z"/>
<path d="M1397 674 c-4 -4 -7 -14 -7 -23 0 -11 3 -12 11 -4 6 6 10 16 7 23 -2
6 -7 8 -11 4z"/>
<path d="M2145 635 c-3 -8 -7 -22 -10 -31 -7 -21 -27 -13 -42 17 l-13 24 0
-30 c-1 -29 -1 -29 -16 -10 l-16 20 4 -20 c3 -14 11 -19 27 -17 13 1 32 -5 42
-13 20 -19 24 -14 33 38 7 36 0 52 -9 22z"/>
<path d="M1769 626 c20 -24 -1 -45 -26 -26 -17 13 -17 13 -2 -3 20 -23 51 -12
47 16 -2 11 -10 23 -18 25 -13 5 -13 3 -1 -12z"/>
<path d="M1267 594 c-8 -8 11 -34 24 -34 5 0 9 7 9 16 0 8 -4 13 -9 10 -5 -4
-11 -1 -13 5 -2 5 -7 7 -11 3z"/>
<path d="M2054 520 c0 -11 1 -20 3 -20 1 0 7 9 13 20 8 15 8 20 -3 20 -7 0
-13 -9 -13 -20z"/>
<path d="M1807 480 c-9 -11 -13 -20 -7 -20 5 0 13 6 17 14 4 7 15 16 23 19 13
5 13 6 0 6 -9 1 -23 -8 -33 -19z"/>
</g>
</svg>
