<?xml version="1.0" standalone="no"?>
<!DOCTYPE svg PUBLIC "-//W3C//DTD SVG 20010904//EN"
 "http://www.w3.org/TR/2001/REC-SVG-20010904/DTD/svg10.dtd">
<svg version="1.0" xmlns="http://www.w3.org/2000/svg"
 width="214.000000pt" height="371.000000pt" viewBox="0 0 214.000000 371.000000"
 preserveAspectRatio="xMidYMid meet">
<metadata>
Created by potrace 1.16, written by Peter Selinger 2001-2019
</metadata>
<g transform="translate(0.000000,371.000000) scale(0.100000,-0.100000)"
fill="#000000" stroke="none">
<path d="M14 1856 l1 -1841 850 4 c468 1 941 4 1052 5 l202 1 4 1833 5 1832
-372 2 c-204 0 -679 2 -1057 3 l-685 3 0 -1842z m259 1825 c15 -1 16 -4 6 -22
-6 -12 -9 -38 -5 -60 3 -21 2 -40 -4 -44 -5 -3 -10 -16 -9 -28 0 -19 2 -19 11
6 5 15 13 27 17 27 4 0 7 21 7 47 -1 65 20 75 156 71 l103 -3 -35 -22 c-44
-29 -27 -30 20 -2 32 19 33 20 18 2 -10 -10 -40 -27 -68 -37 -27 -10 -48 -21
-46 -24 2 -4 -9 -7 -25 -8 -38 -1 -59 -20 -59 -52 l0 -26 16 22 c8 12 22 22
30 22 8 0 12 4 9 10 -3 6 1 7 10 4 21 -8 1 -34 -26 -34 -11 0 -18 -5 -16 -12
1 -6 -6 -14 -15 -16 -13 -2 -18 3 -18 17 0 11 -4 22 -9 26 -6 3 -8 -12 -7 -35
2 -22 -1 -43 -5 -46 -14 -8 -10 -51 6 -64 21 -17 9 -30 -28 -30 -27 1 -36 8
-60 47 -15 25 -33 65 -39 89 -8 28 -18 44 -28 44 -13 0 -13 -1 0 -10 13 -8 12
-10 -2 -10 -10 0 -18 6 -18 13 0 7 -26 25 -57 40 -32 15 -50 21 -40 14 21 -17
21 -24 2 -44 -14 -14 -14 -17 1 -34 9 -11 22 -19 27 -19 6 0 2 6 -9 14 -24 18
-16 26 15 15 15 -6 21 -14 17 -24 -3 -8 -1 -15 4 -15 6 0 10 -5 10 -11 0 -7 8
-18 18 -26 15 -13 15 -14 1 -10 -13 4 -15 1 -12 -14 3 -10 1 -19 -4 -19 -21 0
-92 63 -93 83 0 4 15 -3 33 -17 19 -15 38 -26 43 -26 5 0 -8 11 -28 25 -40 27
-68 65 -48 65 6 0 8 5 5 10 -3 6 0 10 7 10 8 1 7 5 -5 14 -13 10 -17 24 -15
53 6 64 8 65 122 59 55 -2 109 -5 119 -5z m367 -12 c0 -6 -16 -27 -35 -46 -19
-19 -28 -33 -20 -29 8 3 15 2 15 -3 0 -11 -16 -24 -63 -50 -36 -20 -38 -20
-33 -3 5 16 2 18 -24 14 -18 -3 -30 0 -30 7 0 13 41 31 72 31 18 0 19 -2 7
-17 -8 -10 10 5 38 32 29 28 53 56 53 63 0 6 5 12 10 12 6 0 10 -5 10 -11z
m156 -5 c47 -18 57 -35 57 -96 0 -25 -9 -49 -28 -73 -32 -42 -67 -59 -112 -51
-24 3 -33 1 -33 -10 0 -8 -7 -14 -15 -14 -27 0 -16 -20 15 -26 41 -9 74 -62
65 -106 l-6 -33 26 33 c31 37 38 39 70 14 l23 -18 -24 -74 c-21 -63 -22 -76
-11 -85 8 -6 18 -21 22 -35 4 -14 17 -38 28 -53 16 -24 19 -39 13 -90 -5 -57
-3 -65 24 -106 35 -52 37 -70 10 -94 -11 -9 -20 -21 -20 -26 0 -15 29 -33 45
-27 11 4 15 -2 15 -27 0 -24 -9 -40 -37 -65 l-38 -34 42 29 c41 27 43 30 43
79 0 43 5 56 33 87 23 27 36 35 46 28 12 -8 12 -12 -2 -26 -11 -11 -17 -33
-17 -65 0 -45 2 -49 31 -59 29 -10 32 -31 5 -31 -8 0 -13 -6 -12 -14 0 -8 -3
-15 -9 -15 -5 0 -9 7 -9 15 1 8 -6 14 -16 14 -13 0 -17 -5 -13 -20 4 -16 0
-20 -17 -20 -20 0 -21 2 -9 17 10 12 5 11 -17 -5 -17 -11 -51 -26 -75 -31 -80
-18 -163 -51 -229 -90 -94 -57 -208 -166 -254 -244 -21 -37 -43 -64 -49 -60
-6 4 -4 11 6 18 24 17 21 28 -3 13 -10 -7 -18 -21 -17 -33 2 -18 -3 -20 -40
-17 -36 3 -43 0 -43 -15 0 -11 3 -14 8 -7 4 7 25 11 47 11 l41 -2 -19 -70
c-30 -107 -28 -103 -38 -77 -12 31 -16 27 -11 -12 3 -26 -1 -37 -19 -50 -18
-12 -20 -16 -7 -16 9 0 23 9 31 20 13 19 15 11 15 -77 1 -54 8 -125 17 -157 8
-32 14 -61 12 -63 -2 -2 -17 3 -33 12 -16 8 -47 14 -69 14 l-40 -1 46 -8 c61
-10 88 -26 99 -56 12 -32 4 -51 -28 -63 -21 -7 -22 -10 -8 -10 11 -1 29 8 41
19 l22 21 37 -63 c51 -87 126 -170 212 -234 41 -30 77 -54 81 -54 5 0 14 -4
22 -9 21 -13 -53 -83 -111 -106 -26 -9 -46 -21 -43 -25 9 -14 60 -18 119 -9
98 16 235 -5 331 -50 109 -51 156 -71 184 -76 12 -2 39 -14 58 -25 47 -27 72
-30 103 -11 65 41 221 164 256 202 21 23 82 86 134 138 52 53 113 118 134 144
35 43 39 53 37 97 -1 46 11 67 22 38 3 -8 6 -7 6 4 1 9 -3 20 -9 23 -5 3 -10
16 -10 27 0 30 22 98 31 98 5 0 24 -14 43 -31 39 -34 69 -35 74 -2 2 12 -6 53
-17 91 -12 38 -21 83 -21 99 0 17 -9 50 -19 74 -11 24 -28 78 -39 119 -19 72
-20 74 -31 46 -12 -29 -5 -126 9 -126 4 0 6 21 4 48 l-4 47 15 -53 c8 -29 20
-62 26 -73 8 -17 7 -23 -7 -33 -19 -14 -13 -46 8 -46 8 0 22 -32 34 -77 12
-43 25 -85 28 -95 11 -25 -25 -28 -50 -4 -11 12 -38 34 -58 49 -21 16 -41 39
-46 50 -6 15 -9 17 -9 6 -1 -9 8 -28 19 -42 13 -17 17 -28 10 -32 -6 -4 -10
-14 -9 -23 1 -10 1 -26 0 -36 -1 -18 -2 -18 -21 -1 -37 33 -110 12 -129 -38
-5 -12 -28 -45 -53 -72 -24 -28 -63 -76 -86 -107 -23 -32 -45 -58 -48 -58 -7
0 5 19 41 65 18 22 48 71 67 108 35 66 99 147 118 147 5 0 17 16 25 37 13 30
14 49 4 121 -8 63 -8 86 0 92 9 5 9 14 1 34 -5 15 -10 35 -10 44 0 29 29 -19
36 -60 4 -21 10 -38 14 -38 11 0 -6 71 -27 115 -9 19 -20 35 -25 35 -10 0 -11
-14 -8 -186 2 -139 2 -141 -25 -172 -34 -41 -47 -41 -32 1 7 18 12 90 12 172
0 153 -11 200 -79 330 -42 81 -41 78 -18 66 34 -18 133 -13 175 8 36 18 38 18
47 1 6 -11 28 -22 52 -27 35 -7 43 -13 50 -39 4 -18 18 -35 33 -42 15 -7 22
-17 19 -25 -3 -8 6 -23 20 -35 l26 -20 0 -797 c0 -723 -1 -797 -16 -791 -9 3
-23 7 -32 7 -9 1 -3 5 13 9 l30 8 -27 1 c-40 2 -45 21 -6 22 l33 1 -30 11 -30
11 30 7 30 7 -30 2 c-29 2 -29 2 -5 9 37 10 32 35 -7 39 -28 3 -33 0 -33 -17
0 -13 -7 -21 -16 -21 -13 0 -15 -6 -10 -27 4 -16 7 -38 7 -50 -1 -12 4 -25 9
-28 6 -4 8 -11 5 -16 -12 -18 -22 -8 -23 23 -1 34 -33 85 -51 80 -6 -1 -11 2
-11 7 0 5 -18 11 -39 15 -45 7 -57 26 -27 42 12 5 20 17 20 26 -1 9 8 21 20
28 28 16 96 98 96 116 0 12 -6 11 -40 -2 -45 -18 -64 -12 -34 11 38 29 -3 14
-66 -25 -98 -59 -112 -67 -145 -74 -44 -11 -22 8 66 54 88 47 84 53 -7 10 -34
-17 -88 -53 -118 -81 l-54 -50 -16 23 c-9 12 -16 28 -16 34 0 6 -12 11 -27 11
-16 0 -42 6 -58 13 -29 12 -33 11 -67 -21 -20 -19 -42 -45 -48 -59 -18 -35
-30 -90 -19 -90 5 0 6 -12 3 -27 -7 -25 -6 -26 30 -20 32 5 36 4 26 -8 -7 -8
-27 -16 -44 -16 -27 -2 -28 -2 -6 -7 23 -4 24 -5 5 -13 -14 -5 -2 -8 38 -8 58
-1 63 1 104 53 7 8 10 22 7 30 -3 8 -1 23 5 33 9 15 11 13 12 -17 l1 -35 8 35
c7 28 5 39 -10 54 -17 18 -40 15 -40 -5 0 -6 5 -7 10 -4 6 3 10 -1 10 -9 0 -9
-4 -16 -10 -16 -5 0 -10 -7 -10 -15 0 -8 -4 -15 -9 -15 -5 0 -7 9 -4 20 3 11
0 20 -6 20 -6 0 -11 -8 -12 -17 0 -10 -3 -13 -5 -7 -3 7 -15 10 -27 7 -20 -4
-21 -3 -5 10 16 13 15 14 -11 13 -16 -1 -27 -4 -24 -8 2 -5 0 -8 -5 -8 -34 0
-10 70 40 118 l34 32 23 -31 23 -30 -21 -6 c-12 -3 -21 -9 -21 -14 0 -16 18
-19 49 -8 26 9 30 15 25 35 -5 18 -2 24 11 24 12 0 16 -6 12 -20 -3 -12 0 -20
8 -20 25 0 35 -25 19 -48 -8 -12 -11 -22 -6 -22 6 0 13 7 16 16 3 8 10 12 16
9 5 -3 7 0 4 8 -3 8 1 21 9 28 36 35 66 57 71 52 3 -3 25 2 50 10 26 9 46 12
46 7 0 -6 -20 -15 -45 -21 -25 -6 -48 -15 -51 -20 -7 -12 -1 -11 32 1 24 9 25
9 14 -5 -7 -8 -19 -15 -26 -15 -8 0 -14 -6 -14 -14 0 -8 -14 -17 -30 -21 -17
-4 -34 -14 -39 -24 -5 -9 -21 -23 -35 -31 -14 -7 -26 -18 -26 -23 0 -5 7 -3
17 4 11 10 17 10 20 3 13 -40 29 -47 87 -40 53 7 57 9 52 30 -5 20 -2 23 23
23 16 0 36 7 45 16 13 13 22 14 49 5 17 -6 33 -12 35 -13 2 -1 -13 -12 -33
-24 -24 -14 -37 -30 -41 -51 -6 -28 -10 -30 -51 -30 -29 0 -42 -4 -38 -11 4
-6 27 -9 51 -8 26 2 49 -2 56 -10 11 -10 10 -12 -2 -11 -30 4 -40 0 -40 -20 0
-18 5 -19 78 -13 84 6 112 16 112 38 0 8 7 15 15 15 11 0 15 -11 15 -40 0 -22
5 -40 10 -40 6 0 10 19 10 43 0 40 1 42 30 42 l30 0 0 -67 0 -68 -82 2 c-46 0
-447 -2 -891 -6 -444 -4 -817 -4 -828 -1 -10 4 -26 22 -34 41 -10 25 -20 34
-37 34 -19 0 -20 2 -8 10 13 9 13 10 -1 10 -17 0 -39 -19 -39 -33 0 -5 15 -6
34 -3 29 6 35 4 34 -11 0 -10 1 -24 3 -31 3 -9 -24 -13 -111 -14 l-115 -3 3
240 c1 132 2 247 2 255 0 9 14 21 30 27 19 7 30 18 29 30 -1 16 -2 16 -6 1 -4
-15 -40 -35 -47 -26 -2 1 -6 29 -9 60 -5 55 -5 57 14 45 10 -6 19 -17 19 -23
0 -13 30 -28 38 -19 3 3 0 5 -6 5 -7 0 -12 5 -12 11 0 6 -11 20 -25 31 -14 11
-25 26 -25 33 0 11 7 10 33 -4 17 -11 48 -23 67 -27 l35 -8 -40 -12 c-32 -10
-35 -13 -14 -13 23 -1 76 -30 54 -31 -5 0 1 -7 13 -16 12 -8 27 -12 32 -9 15
9 112 -57 101 -68 -11 -11 -71 10 -71 25 0 5 6 6 13 2 8 -5 7 -2 -2 10 -8 9
-20 15 -27 12 -18 -7 -86 13 -109 32 -18 16 -19 16 -6 0 7 -9 10 -22 6 -28 -7
-12 59 -80 78 -80 6 0 2 7 -9 16 -18 15 -18 15 11 10 l30 -6 -28 15 c-15 9
-27 20 -27 25 0 14 8 13 51 -12 27 -15 35 -24 27 -30 -9 -5 -8 -8 5 -8 9 0 17
-3 17 -7 0 -9 57 -43 71 -43 5 0 9 5 9 10 0 6 -9 10 -19 10 -11 0 -23 5 -26
10 -4 6 6 10 22 10 23 1 25 2 11 11 -9 5 -15 16 -12 24 4 8 10 12 15 9 5 -3 9
2 9 10 0 9 7 16 15 16 8 0 15 -8 15 -17 0 -10 3 -29 7 -42 5 -19 3 -23 -8 -19
-17 6 -24 -28 -8 -37 18 -12 9 -25 -17 -25 -32 0 -66 18 -59 30 4 6 -6 7 -23
4 -17 -4 -32 -1 -36 5 -4 6 0 11 11 12 16 0 16 1 -2 9 -28 12 -37 12 -30 0 3
-5 0 -10 -7 -10 -10 0 -10 -2 1 -9 17 -11 -3 -25 -24 -17 -40 15 7 -35 55 -59
31 -16 33 -16 21 -2 -12 15 -10 17 18 17 19 0 34 -6 37 -15 4 -8 12 -15 20
-15 16 0 19 -16 5 -25 -6 -3 -15 4 -21 15 -6 11 -18 20 -28 19 -10 0 -12 -3
-4 -6 6 -2 12 -11 12 -18 0 -14 10 -19 67 -30 18 -4 36 -12 40 -18 10 -16 67
-47 85 -47 7 0 24 9 38 20 l25 19 -24 25 c-25 26 -23 29 14 27 11 -1 29 5 40
14 19 14 18 15 -8 3 -21 -9 -30 -9 -39 0 -8 8 -15 8 -24 1 -10 -8 -18 -3 -34
23 -11 18 -23 44 -26 58 -23 103 -34 126 -76 161 -24 19 -74 54 -113 77 -38
22 -83 53 -99 68 -16 15 -27 21 -24 13 2 -8 34 -34 71 -59 36 -24 65 -46 63
-48 -2 -1 -32 11 -68 29 -64 31 -88 60 -88 103 0 17 2 18 10 6 15 -23 12 -7
-6 36 -21 48 -28 32 -16 -35 11 -60 3 -64 -51 -24 -36 28 -36 29 -37 100 0 63
3 74 23 88 20 15 20 16 2 13 -20 -3 -20 2 -18 262 1 146 4 289 8 318 6 48 9
54 46 72 64 33 89 134 45 179 -14 13 -13 16 7 26 12 6 28 23 35 38 13 27 54
38 67 17 3 -5 26 -10 51 -10 37 0 44 3 44 20 0 32 1 34 18 53 15 17 16 17 27
-4 11 -20 12 -20 19 -3 4 11 2 22 -7 29 -11 8 -11 15 -1 40 18 41 17 120 -1
154 -8 16 -28 34 -44 41 -29 12 -30 13 -14 36 14 23 14 28 -1 66 -15 40 -15
43 4 63 11 12 20 26 20 31 0 6 23 9 59 6 39 -3 67 1 86 11 27 13 30 13 45 -5
17 -22 49 -26 93 -15 28 8 29 7 25 -30 -2 -31 0 -38 17 -41 l20 -4 -20 16
c-20 15 -20 15 3 16 22 0 65 -19 100 -44 10 -7 10 -11 1 -17 -8 -5 -5 -10 10
-18 16 -9 21 -9 21 1 -1 17 -35 58 -49 58 -5 0 -26 9 -45 21 -25 15 -36 28
-36 45 0 17 -6 24 -20 24 -11 0 -20 -4 -20 -10 0 -17 -66 -11 -83 8 -11 12
-14 29 -10 60 5 41 15 52 28 32 3 -5 14 -10 23 -9 14 0 14 2 -2 8 -19 7 -19 8
-1 15 13 5 24 1 32 -10 7 -10 16 -14 20 -10 4 4 0 12 -10 17 -23 13 -13 29 19
29 15 0 24 6 24 15 0 8 7 15 15 15 25 0 76 -30 70 -40 -4 -6 -1 -10 6 -10 23
0 49 -33 49 -60 0 -36 -21 -52 -57 -45 -27 5 -27 5 -4 -7 35 -18 75 7 79 51 4
34 -19 71 -45 71 -7 0 -13 4 -13 9 0 5 -16 16 -35 25 -21 10 -35 24 -35 35 0
10 -28 58 -62 107 -47 66 -62 96 -59 117 1 15 -3 34 -9 42 -9 10 -7 21 5 45
15 28 15 32 -1 48 -10 9 -33 22 -52 27 -31 9 -35 14 -36 43 -1 33 10 50 48 76
18 12 18 13 -5 12 -19 -1 -23 3 -21 19 2 11 9 23 15 27 7 4 8 8 3 8 -5 0 1 11
14 25 12 13 27 22 31 19 11 -6 12 -37 2 -31 -5 2 -18 -7 -30 -19 -12 -13 -17
-24 -10 -27 13 -4 82 71 73 80 -3 3 -6 1 -6 -6 0 -8 -5 -7 -16 4 -15 14 -19
13 -50 -15 -19 -16 -40 -30 -47 -30 -7 1 -5 6 6 14 9 7 17 19 16 27 0 10 -2
11 -6 1 -2 -6 -9 -9 -15 -6 -5 4 7 16 28 29 27 15 43 19 52 12 6 -5 12 -6 12
-1 0 5 10 20 21 34 21 25 21 19 2 -27 -3 -7 0 -13 7 -13 6 0 8 5 5 10 -3 6 0
13 9 16 8 3 17 12 20 20 3 8 2 13 -3 10 -5 -3 -12 5 -15 19 -7 28 10 63 34 68
44 9 87 6 126 -9z m597 -13 c-18 -16 -35 -41 -39 -55 -5 -20 -12 -26 -33 -26
-15 0 -32 -5 -38 -11 -7 -7 -21 -6 -48 5 -21 9 -49 16 -64 16 -20 -1 -15 -5
24 -19 28 -11 68 -26 90 -34 49 -18 85 -61 67 -79 -10 -10 -20 -8 -47 6 -19
11 -35 23 -35 28 0 11 39 1 58 -14 8 -7 12 -7 12 0 0 6 -26 20 -57 32 -32 12
-62 25 -68 29 -5 5 -26 11 -45 15 -31 6 -33 5 -15 -8 11 -8 23 -12 28 -9 9 5
77 -35 77 -46 0 -15 -45 -4 -48 12 -2 9 -11 17 -19 17 -14 0 -12 -4 5 -23 27
-29 14 -47 -34 -47 -38 0 -77 -29 -94 -70 -11 -28 -17 -30 -64 -31 -28 -1 -65
-1 -81 0 -20 1 -37 -5 -49 -18 -17 -18 -20 -19 -34 -5 -10 10 -25 14 -44 10
-25 -5 -30 -1 -43 30 -8 20 -24 38 -35 41 -32 9 -17 27 26 33 107 15 166 138
108 228 l-14 22 292 0 292 0 -31 -29z m214 15 c-2 -6 -12 -11 -22 -11 -10 0
-20 5 -22 11 -2 7 7 12 22 12 15 0 24 -5 22 -12z m218 -19 c20 -29 19 -53 -2
-60 -10 -4 -35 -13 -57 -21 -21 -8 -43 -13 -50 -10 -31 11 -56 -38 -56 -110 0
-59 -7 -86 -22 -86 -6 0 -7 19 -3 50 8 58 -7 106 -36 115 -10 4 -19 16 -19 27
0 13 -5 18 -14 15 -8 -3 -33 -11 -55 -17 -23 -6 -41 -14 -41 -19 0 -4 -14 -22
-31 -40 -36 -38 -55 -35 -87 14 -12 19 -29 35 -38 35 -8 0 -12 5 -9 10 4 6 18
9 32 8 21 -2 28 3 37 29 16 48 39 65 93 70 40 4 54 0 82 -21 l35 -26 29 30
c27 28 34 30 77 24 26 -3 50 -2 53 3 10 16 67 2 82 -20z m224 27 c63 -7 85
-24 31 -24 -17 0 -43 -6 -58 -14 -39 -19 -85 -29 -77 -16 3 5 16 10 28 11 12
0 16 3 10 6 -7 2 -37 -5 -68 -16 l-55 -21 0 25 c0 13 -4 27 -10 30 -39 24 59
33 199 19z m-1449 -23 c-11 -21 -64 -51 -89 -51 -9 1 -1 7 18 16 19 8 41 23
48 34 18 26 37 27 23 1z m1490 -21 c-8 -5 -24 -9 -35 -9 l-20 0 20 9 c11 5 27
9 35 9 13 1 13 0 0 -9z m-37 -20 c21 -1 21 -1 -3 -15 -35 -20 -49 -18 -47 5 1
13 6 19 15 15 7 -3 23 -5 35 -5z m57 -180 l0 -189 -26 25 c-21 22 -31 25 -62
19 -115 -20 -138 -37 -150 -106 -6 -38 -11 -44 -33 -47 -20 -2 -28 2 -32 18
-3 13 -10 18 -21 14 -22 -8 -46 13 -45 40 0 21 0 21 9 -1 10 -25 19 -30 16
-10 0 6 4 13 9 14 6 1 9 -5 7 -12 -2 -10 3 -13 13 -9 18 7 20 20 4 29 -6 4 -8
13 -5 20 3 8 0 15 -7 18 -6 2 -3 6 7 10 10 4 15 3 11 -3 -3 -6 -1 -10 5 -10 7
0 14 8 17 19 2 10 16 24 29 30 13 6 30 23 36 38 7 16 23 41 35 56 13 16 23 33
23 39 0 6 18 30 40 54 22 24 40 50 40 58 0 15 58 76 73 76 4 0 7 -85 7 -190z
m-133 153 c2 -6 -8 -19 -24 -27 -37 -20 -21 -20 18 0 17 8 34 13 37 10 7 -8
-3 -17 -50 -45 -28 -17 -38 -19 -39 -9 -1 7 -2 20 -3 28 -2 22 -63 30 -105 14
l-36 -14 45 6 c50 7 46 -6 -6 -24 -25 -8 -33 -7 -42 7 -10 14 -15 12 -41 -19
-25 -28 -31 -44 -31 -84 0 -32 -7 -61 -21 -83 l-21 -34 21 -23 c11 -12 21 -32
21 -44 0 -13 6 -25 13 -27 8 -4 12 -32 12 -93 0 -71 -3 -87 -15 -87 -8 0 -20
-6 -26 -14 -9 -12 -13 -8 -19 20 -4 19 -11 39 -16 45 -6 7 -11 26 -12 43 -3
38 -17 41 -17 4 -1 -25 -2 -26 -14 -10 -7 9 -17 17 -23 17 -14 0 -58 50 -77
87 -26 51 -20 93 19 149 53 74 41 128 -19 89 -14 -10 -26 -13 -26 -7 0 6 6 13
13 15 6 3 0 6 -15 6 -20 1 -26 -3 -22 -14 4 -10 0 -15 -12 -14 -11 0 -14 3 -6
6 6 2 10 9 7 14 -7 11 51 69 70 69 7 0 21 3 31 7 11 4 15 3 11 -4 -4 -6 4 -14
18 -17 38 -10 57 -55 46 -113 -10 -54 -8 -63 19 -63 23 0 30 19 30 86 0 57 23
119 41 108 9 -5 43 4 94 27 79 35 163 41 172 12z m-1852 -24 c12 -19 -5 -23
-22 -6 -16 16 -16 17 -1 17 9 0 20 -5 23 -11z m1773 -27 c4 -13 -49 -42 -78
-42 -32 0 -23 17 15 30 19 6 35 16 35 22 0 13 23 5 28 -10z m-1408 -1 c0 -9
-23 -21 -40 -21 -4 0 -10 7 -14 15 -4 11 2 15 24 15 17 0 30 -4 30 -9z m1263
-38 c-9 -14 -19 -21 -21 -15 -5 16 17 53 28 47 6 -4 2 -17 -7 -32z m-1572 10
c19 -5 23 -53 5 -53 -7 0 -21 7 -32 15 -18 14 -18 14 0 15 16 0 16 2 -5 21
-21 18 -21 20 -4 14 11 -4 27 -9 36 -12z m249 7 c0 -5 10 -10 23 -10 12 0 29
-4 37 -10 12 -8 12 -10 -4 -16 -16 -6 -17 -8 -2 -16 20 -11 21 -38 1 -38 -18
0 -15 -38 4 -49 9 -6 3 -10 -16 -14 -28 -5 -48 2 -27 10 6 2 9 14 7 27 -3 13
0 33 6 44 9 17 7 25 -11 42 -24 22 -34 25 -43 10 -12 -20 -26 -10 -15 10 11
21 40 28 40 10z m1570 1 c0 -32 -168 -126 -188 -106 -10 10 18 23 42 19 13 -3
11 0 -7 7 -20 8 -31 8 -41 -1 -10 -7 -16 -8 -21 0 -9 14 20 23 54 17 20 -4 31
-2 35 8 3 9 -1 15 -9 15 -23 0 -18 16 10 28 18 8 25 8 25 1 0 -7 9 -9 23 -4
12 4 30 7 39 6 10 0 20 4 23 10 8 12 15 12 15 0z m-215 -31 c-4 -6 6 -7 25 -4
20 4 30 3 30 -6 0 -7 -13 -11 -37 -9 -27 2 -37 -1 -35 -10 1 -7 -7 -15 -18
-18 -11 -3 -17 -9 -14 -14 3 -5 -2 -9 -12 -9 -14 0 -14 2 -3 16 10 13 10 17
-2 25 -9 5 -10 9 -2 9 6 0 15 -4 18 -10 3 -5 11 -10 17 -10 6 0 8 3 5 6 -8 9
11 44 24 44 6 0 7 -4 4 -10z m-1350 -39 c1 -19 -6 -36 -15 -41 -10 -6 -11 -10
-2 -10 6 0 12 -5 12 -11 0 -7 -10 -9 -26 -5 -23 6 -24 5 -14 -14 10 -18 24
-24 58 -23 6 1 12 -8 12 -18 0 -15 -8 -19 -42 -20 -26 -1 -33 -4 -19 -6 20 -4
22 -9 17 -35 -3 -17 -6 -38 -7 -47 0 -12 -2 -12 -10 4 -7 16 -8 13 -4 -13 3
-24 1 -32 -8 -30 -6 3 -13 19 -15 36 -2 24 1 32 13 32 9 0 13 5 10 10 -3 6
-21 10 -38 10 -38 0 -62 13 -53 29 5 7 -4 11 -24 11 -21 0 -30 4 -28 13 7 19
47 21 67 3 23 -21 36 -8 14 16 -9 10 -11 18 -6 18 6 0 16 -7 23 -15 7 -8 22
-15 34 -14 20 0 20 1 1 8 -40 16 -32 119 10 140 30 14 40 8 40 -28z m840 9
c22 -11 45 -20 51 -20 17 0 24 -24 12 -41 -8 -11 -9 -11 -5 3 4 10 -1 18 -14
21 -16 4 -18 3 -9 -8 13 -16 4 -39 -11 -29 -5 3 -7 9 -4 14 3 5 0 12 -7 17
-16 10 -63 63 -57 63 3 0 22 -9 44 -20z m270 -13 c-4 -12 -20 -41 -37 -65 -27
-39 -30 -50 -26 -98 5 -57 -6 -71 -22 -29 -5 14 -20 30 -32 35 -13 5 -17 9 -8
9 8 1 20 12 26 25 10 21 9 25 -8 30 -11 2 -18 8 -15 13 3 4 -2 17 -10 28 -14
17 -15 18 -9 2 5 -15 2 -17 -17 -12 -18 6 -16 2 11 -21 24 -22 30 -33 23 -44
-9 -12 -16 -13 -43 -3 -30 11 -31 11 -13 -2 11 -8 25 -18 30 -23 6 -4 18 -11
28 -15 9 -3 17 -11 17 -17 0 -6 -6 -8 -12 -4 -10 6 -10 4 0 -8 7 -9 25 -19 39
-23 24 -6 92 -69 93 -87 0 -3 -8 -9 -17 -11 -15 -4 -15 -5 2 -6 26 -2 81 -89
61 -97 -7 -3 -29 0 -47 5 l-34 11 40 -5 c28 -3 35 -2 25 5 -26 16 -64 11 -92
-13 -26 -22 -26 -24 -7 -35 16 -10 19 -9 19 4 0 11 8 14 28 12 23 -3 27 -7 24
-30 -3 -31 0 -33 29 -18 13 7 19 7 19 0 0 -5 -4 -10 -10 -10 -5 0 -10 -10 -10
-22 -1 -43 -23 -59 -71 -53 l-44 5 45 -13 c25 -8 52 -17 61 -21 13 -6 20 1 29
29 22 65 94 119 115 85 3 -5 10 -10 16 -10 14 0 11 26 -5 39 -11 9 -12 19 -4
45 l11 33 51 -19 c28 -11 62 -22 76 -23 14 -2 45 -6 70 -10 40 -6 48 -4 70 20
14 15 37 33 53 41 42 22 32 34 -28 34 -40 0 -56 -4 -63 -17 -8 -14 -16 -14
-51 -5 -31 7 -41 7 -38 -1 2 -7 32 -14 68 -17 l64 -5 -46 -8 c-49 -8 -93 3
-102 25 -4 10 -8 10 -16 -2 -7 -10 -6 -18 1 -27 14 -18 -4 -16 -28 2 -14 10
-15 14 -4 15 10 0 11 3 4 10 -8 8 -19 7 -39 0 -35 -13 -41 -7 -48 48 -5 39 4
55 18 32 3 -5 14 -10 23 -10 9 0 26 -7 37 -16 17 -13 18 -16 5 -25 -11 -7 -4
-9 25 -5 22 3 42 5 45 6 3 0 -2 5 -10 10 -12 8 -11 10 7 10 19 0 20 3 10 29
-21 57 21 99 107 108 41 4 56 1 76 -15 24 -19 25 -24 23 -108 -2 -49 -3 -302
-3 -562 0 -337 -3 -471 -11 -466 -6 3 -8 16 -5 29 5 19 1 24 -24 28 -38 8 -53
53 -25 73 25 18 12 29 -16 14 -34 -18 -97 3 -105 36 -6 25 -3 55 11 87 4 10 3
17 -4 17 -7 0 -23 -25 -36 -55 -30 -68 -66 -89 -137 -83 -51 5 -101 41 -114
80 -3 10 -10 18 -15 18 -6 0 -7 -9 -3 -22 5 -16 -13 -5 -60 39 -36 35 -80 70
-96 78 -17 9 -30 21 -30 29 0 7 -19 19 -42 26 -45 13 -162 50 -188 58 -8 3
-21 4 -29 3 -7 -1 -10 2 -6 8 10 17 -11 13 -25 -4 -11 -13 -15 -12 -31 6 -16
18 -19 19 -19 6 0 -10 -4 -17 -10 -17 -15 0 -12 27 6 44 25 26 72 20 105 -13
16 -16 29 -24 29 -18 0 19 -67 87 -85 87 -31 0 -65 46 -65 89 0 52 47 96 93
87 25 -5 28 -4 17 9 -17 21 -31 19 -71 -8 -19 -13 -41 -21 -48 -19 -9 3 -11 0
-6 -8 5 -8 3 -11 -5 -8 -8 2 -16 11 -18 19 -3 8 -1 11 3 7 5 -4 28 11 52 33
l44 40 36 -21 c46 -27 55 -19 10 9 -43 27 -46 26 -80 -4 -15 -14 -27 -23 -27
-19 0 3 -8 0 -17 -7 -15 -12 -16 -12 -10 6 l7 20 -16 -20 c-16 -19 -16 -19
-11 10 5 27 4 28 -9 10 -12 -17 -14 -17 -14 -2 0 10 16 34 35 55 19 20 42 46
50 57 16 20 16 20 6 -2 -20 -40 -11 -39 14 2 13 22 24 45 24 50 0 6 -4 2 -10
-8 -6 -9 -14 -15 -18 -12 -5 2 -14 -2 -21 -10 -17 -21 -30 -19 -30 4 0 21 40
37 51 20 4 -7 9 -5 12 5 4 9 12 15 18 14 6 -2 14 3 17 11 2 8 0 11 -6 7 -5 -3
-10 0 -9 7 1 45 -2 49 -38 43 -44 -9 -46 8 -4 23 47 16 65 15 49 -4 -8 -10 -9
-15 -2 -15 6 0 9 -7 6 -15 -11 -27 4 -16 25 21 23 39 26 48 11 39 -5 -3 -10
-1 -10 6 0 19 -52 132 -71 154 -17 21 -12 56 11 70 25 15 80 15 86 0 10 -26
32 -18 26 10 -3 15 0 25 8 25 14 0 49 -40 50 -57 0 -7 4 -13 9 -13 5 0 12 -7
15 -16 3 -8 2 -12 -4 -9 -13 8 -31 -30 -24 -52 4 -13 3 -15 -4 -5 -7 11 -14 6
-31 -21 -25 -41 -25 -44 -6 -44 9 0 14 6 11 12 -2 7 0 18 6 26 7 11 8 9 4 -6
-5 -16 -3 -16 14 5 22 28 28 15 6 -15 -17 -26 -156 -266 -156 -271 0 -16 18 3
34 36 11 22 22 40 26 40 3 0 26 -17 51 -37 l44 -37 -42 45 c-24 25 -43 48 -43
53 0 5 45 84 100 176 55 93 100 176 100 185 0 20 39 11 57 -14 31 -44 42 -55
43 -45 0 6 -9 23 -21 38 -19 24 -19 26 -2 26 10 0 29 6 43 14 31 16 43 11 35
-17z m-1450 -21 c28 -17 48 -23 72 -19 41 7 45 -12 4 -20 -16 -3 -36 -13 -44
-22 -10 -9 -18 -11 -22 -5 -3 5 -2 10 3 10 6 0 13 7 16 16 4 11 1 14 -12 10
-12 -4 -28 4 -47 24 -35 36 -24 38 30 6z m132 9 c3 -9 2 -19 -2 -23 -4 -4 -10
-2 -12 5 -3 8 -15 10 -34 6 -17 -3 -29 -1 -29 5 0 24 68 30 77 7z m1153 0 c0
-9 -6 -12 -15 -9 -8 4 -12 10 -9 15 8 14 24 10 24 -6z m525 -41 c-16 -13 -43
-31 -60 -39 -16 -8 -24 -15 -17 -15 7 0 22 5 33 10 24 13 25 -2 2 -22 -42 -36
-56 -37 -98 -5 -39 29 -39 29 -10 23 16 -4 33 -13 37 -19 4 -7 8 -8 8 -2 0 6
-10 19 -22 30 -21 18 -21 20 -5 23 10 2 25 -2 33 -9 8 -6 18 -9 21 -5 11 10
-16 24 -61 32 -27 4 -34 9 -25 15 14 8 56 2 74 -11 6 -5 33 -1 60 9 28 9 52
15 55 13 3 -2 -8 -15 -25 -28z m-1395 11 c0 -8 -4 -15 -10 -15 -5 0 -10 7 -10
15 0 8 5 15 10 15 6 0 10 -7 10 -15z m1229 -34 c-6 -2 -15 3 -20 10 -15 24
-10 29 11 11 12 -10 16 -18 9 -21z m-1650 -6 c11 -19 27 -35 35 -35 9 0 12 -7
9 -19 -3 -13 2 -21 17 -26 11 -4 25 -18 31 -31 5 -14 13 -22 19 -19 6 4 10 -7
10 -27 0 -20 11 -50 27 -73 18 -27 26 -50 25 -75 -2 -27 5 -42 28 -67 27 -29
37 -33 78 -31 46 1 46 1 8 5 -21 3 -44 10 -51 16 -7 7 -22 20 -34 29 -23 19
-28 54 -10 60 7 2 -3 25 -25 56 -42 60 -48 110 -16 142 11 11 24 20 29 20 11
0 21 -25 21 -56 0 -13 5 -24 12 -24 6 0 8 -3 5 -6 -3 -4 0 -16 8 -26 11 -17
11 -26 0 -58 -12 -34 -12 -40 4 -54 10 -9 27 -16 39 -16 12 0 37 -7 55 -16 33
-16 36 -16 65 6 17 13 28 28 25 33 -3 6 -1 7 5 3 6 -3 13 -2 17 4 3 5 1 10 -4
10 -6 0 -11 5 -11 10 0 20 33 5 70 -30 20 -19 56 -66 80 -103 47 -75 47 -79
-15 -111 -29 -15 -30 -15 -37 7 -6 20 -6 20 -7 -5 -2 -56 -20 -35 -37 42 -9
44 -21 80 -25 80 -4 0 -2 -21 6 -47 8 -27 14 -57 14 -68 -1 -13 -5 -9 -12 13
-12 37 -69 92 -95 91 -10 0 -4 -6 15 -15 50 -22 64 -50 62 -133 -2 -82 -10
-94 -70 -113 -40 -12 -45 -11 -111 17 -14 6 -18 2 -18 -16 -1 -30 -17 -51 -55
-68 l-30 -14 27 -9 c28 -10 52 -57 41 -84 -3 -8 -15 -19 -26 -26 -19 -10 -17
-11 19 -24 62 -21 77 -47 72 -126 -4 -75 -21 -107 -79 -146 -27 -19 -46 -23
-89 -22 -72 3 -72 3 -61 -19 13 -23 0 -36 -46 -46 -18 -3 -33 -8 -33 -10 0 -2
14 -17 30 -33 42 -42 42 -101 1 -143 -16 -16 -39 -29 -50 -29 l-21 0 0 528 1
528 36 29 c20 17 46 35 57 42 27 16 79 16 94 1 17 -17 28 -2 12 17 -24 28
-116 11 -149 -29 -8 -9 -23 -22 -33 -27 -17 -9 -18 -2 -18 140 l0 150 29 -17
c16 -9 27 -22 24 -29 -3 -7 0 -13 6 -13 5 0 19 -10 31 -22 28 -30 35 -17 9 16
-12 15 -19 30 -15 33 3 3 -9 13 -27 22 -40 20 -62 59 -53 94 9 37 30 34 55 -8z
m170 17 c12 -23 -3 -42 -33 -42 -19 0 -19 0 0 21 18 20 18 20 -11 14 -29 -6
-29 -6 -11 9 26 21 43 20 55 -2z m-92 -29 c-9 -9 -19 -14 -23 -11 -10 10 6 28
24 28 15 0 15 -1 -1 -17z m1152 -23 c-12 -22 -24 -38 -26 -36 -4 4 37 76 44
76 2 0 -6 -18 -18 -40z m-1142 -7 c-14 -15 -29 -24 -33 -21 -3 4 6 19 21 33
14 15 29 24 33 21 3 -4 -6 -19 -21 -33z m313 9 c0 -15 -2 -15 -10 -2 -13 20
-13 33 0 25 6 -3 10 -14 10 -23z m583 -25 c-3 -20 -10 -37 -14 -37 -13 0 -11
54 3 68 16 16 18 11 11 -31z m614 11 c-3 -7 -5 -2 -5 12 0 14 2 19 5 13 2 -7
2 -19 0 -25z m33 3 c0 -17 -4 -33 -10 -36 -6 -4 -10 8 -10 29 0 20 5 36 10 36
6 0 10 -13 10 -29z m-791 -23 c-2 -35 -3 -37 -6 -13 -3 17 -9 36 -15 43 -8 9
-6 12 6 12 12 0 16 -9 15 -42z m101 -4 c0 -19 -4 -34 -10 -34 -5 0 -10 18 -10
41 0 24 4 38 10 34 6 -3 10 -22 10 -41z m-840 11 c-7 -9 -15 -13 -18 -10 -3 2
1 11 8 20 7 9 15 13 18 10 3 -2 -1 -11 -8 -20z m46 9 c-3 -9 -6 -20 -6 -25 0
-5 -4 -9 -10 -9 -11 0 -14 33 -3 43 12 13 25 7 19 -9z m744 -20 c0 -45 -24
-42 -28 4 -2 24 1 32 12 32 12 0 16 -10 16 -36z m126 1 c-7 -18 -26 -20 -26
-2 0 18 24 41 28 27 2 -6 1 -17 -2 -25z m654 -22 l0 -38 -15 29 c-15 28 -13
46 6 46 5 0 9 -17 9 -37z m30 16 c0 -6 -4 -7 -10 -4 -5 3 -10 11 -10 16 0 6 5
7 10 4 6 -3 10 -11 10 -16z m-1280 -8 c43 -14 56 -23 58 -41 2 -12 -1 -27 -7
-33 -6 -6 -11 -19 -11 -29 0 -10 -10 -23 -22 -28 -13 -5 -17 -9 -8 -9 10 -1 4
-10 -15 -26 -16 -13 -26 -24 -21 -25 5 0 3 -7 -4 -15 -7 -8 -18 -15 -24 -15
-6 0 -2 7 8 15 23 17 14 20 -16 4 -23 -12 -79 5 -75 24 1 6 -8 13 -20 15 -33
5 -28 19 15 41 36 18 42 19 82 5 23 -8 45 -13 47 -10 3 3 -13 10 -36 16 -44
12 -47 18 -35 93 7 42 9 42 84 18z m387 -3 c-3 -8 -6 -5 -6 6 -1 11 2 17 5 13
3 -3 4 -12 1 -19z m-687 -13 c10 -12 10 -15 -4 -15 -9 0 -16 7 -16 15 0 8 2
15 4 15 2 0 9 -7 16 -15z m920 -5 c13 -9 13 -11 0 -20 -22 -14 -50 -12 -50 4
0 12 13 23 30 25 3 0 12 -4 20 -9z m600 -5 c0 -8 -4 -15 -10 -15 -5 0 -10 7
-10 15 0 8 5 15 10 15 6 0 10 -7 10 -15z m-1389 -37 c0 -30 3 -37 8 -24 7 18
8 18 14 2 4 -10 5 -22 1 -27 -9 -14 -31 -10 -38 7 -10 25 -7 84 4 84 6 0 10
-19 11 -42z m16 10 c-3 -8 -6 -5 -6 6 -1 11 2 17 5 13 3 -3 4 -12 1 -19z m551
5 c2 -9 -7 -13 -27 -13 -31 0 -42 14 -18 23 19 8 40 3 45 -10z m38 1 c-2 -25
21 -28 29 -5 5 17 15 21 52 21 l46 0 -7 -41 c-10 -60 -34 -91 -69 -84 -19 3
-26 1 -21 -6 4 -6 21 -9 39 -6 l33 5 -5 -41 c-7 -60 -23 -108 -34 -101 -17 10
-50 86 -59 133 -4 25 -14 60 -21 77 -12 31 -8 64 10 64 5 0 8 -7 7 -16z m209
-25 c9 -14 7 -15 -43 -23 -46 -7 -51 7 -8 24 29 12 44 12 51 -1z m-247 -21
c20 -20 14 -24 -28 -20 -26 3 -40 9 -40 18 0 17 51 19 68 2z m-328 -60 c0 -19
-2 -20 -10 -8 -13 19 -13 30 0 30 6 0 10 -10 10 -22z m348 12 c8 0 12 -6 10
-12 -4 -12 -76 -13 -88 -2 -9 10 25 24 45 19 11 -2 26 -5 33 -5z m730 -102 c6
-21 9 -38 7 -38 -16 0 -35 15 -35 28 0 9 -9 25 -19 36 -11 12 -23 35 -27 51
l-7 30 36 -35 c19 -19 40 -52 45 -72z m-548 62 c0 -15 -7 -20 -25 -20 -40 0
-25 27 23 39 1 1 2 -8 2 -19z m-753 -17 c1 -26 0 -27 -13 -8 -17 23 -18 35 -1
35 6 0 13 -12 14 -27z m586 -7 c3 -8 4 -16 1 -19 -9 -8 -67 8 -72 21 -6 18 64
16 71 -2z m-538 -8 c14 -6 25 -15 25 -19 0 -11 -38 1 -51 17 -14 17 -8 18 26
2z m1528 -35 c-7 -2 -19 -2 -25 0 -7 3 -2 5 12 5 14 0 19 -2 13 -5z m-973 -19
c0 -9 -7 -14 -17 -12 -25 5 -28 28 -4 28 12 0 21 -6 21 -16z m43 -60 c10 2 16
1 14 -2 -2 -4 -10 -22 -17 -39 -8 -18 -21 -33 -30 -33 -9 0 -21 -5 -28 -12
-10 -10 -16 -8 -32 7 -16 17 -18 29 -13 77 l6 56 41 -29 c23 -17 48 -28 59
-25z m700 26 c-44 -8 -80 -38 -98 -82 -9 -22 -18 -38 -21 -35 -7 6 22 65 44
90 14 15 13 17 -4 18 -10 1 -25 1 -33 0 -7 -2 -10 2 -6 8 3 6 26 11 50 11 24
0 47 4 50 10 4 6 13 5 26 -3 19 -11 18 -12 -8 -17z m-713 0 c8 -5 11 -12 7
-16 -4 -4 -15 0 -24 9 -18 18 -8 23 17 7z m52 -12 c-7 -7 -12 -8 -12 -2 0 14
12 26 19 19 2 -3 -1 -11 -7 -17z m-32 -114 c0 -2 -9 -4 -20 -4 -11 0 -20 4
-20 9 0 5 9 7 20 4 11 -3 20 -7 20 -9z m-48 -19 c0 -5 -5 -11 -11 -13 -6 -2
-11 4 -11 13 0 9 5 15 11 13 6 -2 11 -8 11 -13z m27 -32 c-6 -16 -16 -35 -23
-43 -7 -8 -16 -23 -19 -33 -7 -20 -28 -19 -35 2 -2 7 5 15 15 17 11 3 28 23
37 45 20 44 41 54 25 12z m136 -150 c20 -12 20 -12 -1 -12 -41 -2 -74 22 -74
53 l0 28 28 -28 c15 -16 36 -34 47 -41z m100 -124 c28 -6 82 -26 121 -45 186
-88 307 -227 369 -424 73 -233 11 -494 -161 -679 -48 -52 -61 -61 -102 -67
-65 -9 -102 -30 -114 -65 -13 -38 -43 -53 -152 -74 -358 -71 -709 131 -817
468 -87 272 -9 559 201 734 82 69 224 139 315 157 79 16 259 13 340 -5z m-902
-339 c-3 -11 -14 -20 -24 -20 -24 0 -24 9 -1 26 24 19 31 17 25 -6z m1567
-616 c15 -43 6 -114 -21 -170 -18 -37 -119 -137 -243 -239 -27 -22 -63 -53
-79 -70 -20 -21 -28 -24 -23 -11 5 14 3 17 -11 11 -56 -21 -162 -44 -253 -55
-91 -11 -117 -10 -195 4 -157 29 -267 38 -370 32 l-100 -5 40 20 c22 11 54 37
72 57 l31 36 36 -32 c33 -29 43 -32 98 -32 34 0 85 7 114 17 51 16 55 16 109
-5 59 -23 79 -22 150 5 89 34 100 42 114 88 18 60 39 77 94 74 28 -2 61 4 86
16 23 10 44 16 47 12 9 -9 -24 -64 -48 -81 -12 -9 -38 -16 -58 -16 -51 0 -105
-31 -105 -61 0 -21 5 -24 40 -26 31 -2 35 0 20 7 -17 7 -15 9 15 11 l35 2 -35
7 c-19 4 -28 8 -20 9 12 1 12 3 2 10 -16 9 30 21 84 21 25 0 38 7 53 29 12 16
21 34 21 40 0 33 76 155 139 223 39 42 71 81 71 87 0 5 10 17 22 25 29 20 53
6 68 -40z m-1017 -426 c64 -13 56 -18 -17 -10 -38 5 -61 12 -64 21 -3 10 0 12
14 7 10 -4 41 -12 67 -18z m624 -89 c8 -8 17 -8 32 0 42 23 19 1 -81 -78 -57
-45 -111 -81 -121 -81 -11 0 -31 8 -45 19 -15 10 -52 27 -82 39 -30 11 -68 27
-85 35 -16 7 -41 19 -55 26 -24 11 -24 11 5 4 17 -4 65 -7 107 -8 47 0 82 -5
90 -13 19 -19 48 -14 84 13 18 14 39 25 47 25 8 0 30 7 48 15 42 18 42 18 56
4z m-1457 -29 c9 -16 8 -20 -5 -20 -8 0 -15 9 -15 20 0 11 2 20 5 20 2 0 9 -9
15 -20z m76 -22 c22 -17 156 -78 167 -77 23 3 40 -1 34 -8 -4 -3 15 -19 42
-34 42 -24 50 -34 60 -76 7 -26 17 -65 22 -85 5 -20 30 -61 54 -92 25 -30 45
-57 45 -60 0 -2 -16 -2 -35 1 -24 4 -35 2 -35 -6 0 -7 -5 -9 -10 -6 -6 4 -1
14 12 25 19 15 21 21 10 32 -11 11 -12 10 -6 -5 6 -15 3 -17 -20 -11 -21 5
-25 3 -20 -10 3 -9 1 -16 -5 -16 -12 0 -14 11 -5 34 3 9 12 16 19 16 10 0 6
18 -14 63 -16 34 -32 85 -36 113 -6 47 -9 51 -33 51 -45 0 -96 9 -120 22 -32
17 -22 24 14 10 16 -6 43 -13 59 -14 23 -2 25 -1 10 5 -11 4 -44 17 -73 28
-28 11 -50 17 -48 13 3 -4 1 -13 -3 -19 -6 -10 -14 -8 -32 8 l-24 22 23 -5
c31 -7 28 7 -5 23 -16 8 -40 22 -54 32 -14 10 -28 15 -31 13 -2 -2 -4 4 -5 15
-2 19 17 18 43 -2z m1204 12 c0 -5 -7 -10 -15 -10 -8 0 -15 5 -15 10 0 6 7 10
15 10 8 0 15 -4 15 -10z m-1170 -186 c0 -8 -4 -12 -10 -9 -5 3 -10 10 -10 16
0 5 5 9 10 9 6 0 10 -7 10 -16z m184 1 c-7 -18 -12 -18 -44 0 l-25 14 37 1
c29 0 36 -3 32 -15z m1608 -59 c-3 -5 3 -6 14 -3 11 4 4 -7 -18 -28 -36 -33
-58 -44 -58 -27 0 4 13 16 29 27 45 29 30 30 -29 0 -28 -14 -57 -24 -63 -22
-7 3 12 16 41 30 29 14 47 27 40 29 -7 3 1 5 19 4 17 -1 28 -5 25 -10z m-1542
-47 c0 -6 -4 -7 -10 -4 -5 3 -10 11 -10 16 0 6 5 7 10 4 6 -3 10 -11 10 -16z
m-95 -25 c19 -15 18 -16 -15 -12 -19 3 -44 8 -55 13 l-20 8 20 -16 c20 -17 10
-22 -19 -11 -13 5 -14 9 -5 20 15 19 69 17 94 -2z m105 -4 c0 -5 -4 -10 -10
-10 -5 0 -10 5 -10 10 0 6 5 10 10 10 6 0 10 -4 10 -10z m1405 0 c-3 -5 -14
-10 -23 -10 -15 0 -15 2 -2 10 20 13 33 13 25 0z m55 -20 c-32 -18 -33 -19
-10 -20 52 0 2 -18 -70 -25 -53 -4 -71 -3 -60 4 8 6 23 11 33 11 10 0 16 4 13
9 -4 5 2 7 11 5 10 -3 32 5 48 16 17 11 39 20 50 20 15 -1 11 -6 -15 -20z
m-1500 -10 c0 -5 -6 -10 -14 -10 -8 0 -18 5 -21 10 -3 6 3 10 14 10 12 0 21
-4 21 -10z m44 0 c32 -12 35 -34 4 -25 -18 5 -20 4 -8 -4 23 -17 -7 -33 -32
-18 -22 14 -24 27 -3 27 9 0 12 6 9 15 -7 18 -4 18 30 5z m1414 -58 c4 -14
-51 -16 -113 -4 -39 7 -38 7 25 13 78 7 83 6 88 -9z m235 1 c-7 -2 -19 -2 -25
0 -7 3 -2 5 12 5 14 0 19 -2 13 -5z m-386 -40 c0 -17 -12 -17 -27 1 -9 12 -8
15 8 13 10 0 19 -7 19 -14z m91 10 c-10 -2 -28 -2 -40 0 -13 2 -5 4 17 4 22 1
32 -1 23 -4z m-40 -36 c4 -20 -9 -22 -26 -5 -17 17 -15 27 6 24 9 -2 18 -10
20 -19z m292 13 c0 -5 -2 -10 -4 -10 -3 0 -8 5 -11 10 -3 6 -1 10 4 10 6 0 11
-4 11 -10z m-45 -58 c3 -21 2 -49 -4 -62 -5 -14 -10 -20 -10 -14 -1 6 -12 9
-25 7 -35 -7 -86 18 -92 44 -12 46 21 77 57 55 32 -20 51 -15 43 10 -6 20 -5
21 9 10 8 -7 18 -30 22 -50z m-541 39 c6 -10 -33 -20 -52 -13 -7 2 -12 8 -12
13 0 12 57 12 64 0z m216 -6 c0 -8 -4 -15 -10 -15 -5 0 -10 7 -10 15 0 8 5 15
10 15 6 0 10 -7 10 -15z m40 -6 c0 -6 -4 -7 -10 -4 -5 3 -10 11 -10 16 0 6 5
7 10 4 6 -3 10 -11 10 -16z m-229 -23 c16 10 10 -13 -8 -27 -15 -12 -16 -12
-10 4 3 9 2 17 -3 17 -6 0 -10 -4 -10 -10 0 -5 -5 -10 -12 -10 -6 0 -3 9 8 21
10 11 20 16 22 10 2 -6 8 -9 13 -5z m619 -32 c0 -2 -9 -4 -21 -4 -11 0 -18 4
-14 10 5 8 35 3 35 -6z m-195 -54 c4 -6 -10 -10 -37 -9 -40 1 -41 2 -13 9 43
11 43 11 50 0z m215 -240 l0 -130 -497 -1 c-274 -1 -561 -3 -638 -4 -183 -4
-927 -6 -930 -3 -2 2 -5 46 -7 98 -2 78 0 95 12 95 8 0 24 -26 38 -62 23 -61
42 -81 42 -45 1 9 7 28 14 42 l14 24 21 -34 c11 -19 21 -38 21 -42 0 -5 4 -8
9 -8 5 0 12 17 16 37 4 21 14 51 23 68 l17 30 6 -55 c3 -30 2 -63 -3 -72 -7
-14 -4 -18 12 -18 17 0 20 6 20 40 0 36 3 40 25 40 14 0 25 -6 26 -12 1 -7 2
-24 2 -37 1 -13 7 -26 14 -28 9 -3 12 18 12 76 0 65 -3 79 -15 74 -8 -3 -14
-18 -14 -34 0 -24 -4 -29 -25 -29 -21 0 -25 5 -25 29 0 28 -2 30 -39 28 -29
-1 -37 -5 -34 -17 2 -8 -2 -31 -10 -49 l-15 -35 -17 33 c-9 19 -15 42 -12 52
4 16 0 19 -26 19 -28 0 -29 -1 -13 -13 18 -13 18 -15 1 -48 l-18 -34 -13 30
c-7 17 -13 38 -14 48 0 12 -8 17 -31 17 -26 0 -30 3 -27 23 l3 22 490 3 c270
1 537 3 595 5 58 1 304 3 548 5 l442 3 0 -131z"/>
<path d="M60 3626 c14 -7 36 -16 50 -20 19 -5 16 -2 -10 13 -19 11 -42 20 -50
20 -8 0 -4 -6 10 -13z"/>
<path d="M381 3606 c-19 -7 -37 -19 -40 -27 -4 -12 -2 -12 12 -1 9 8 36 20 59
27 24 8 34 14 23 14 -11 0 -35 -6 -54 -13z"/>
<path d="M196 3576 c30 -13 44 -38 44 -80 0 -22 40 -110 46 -103 3 2 -2 17
-11 33 -8 16 -19 52 -25 81 -11 53 -37 83 -70 83 -8 -1 -1 -7 16 -14z"/>
<path d="M652 3635 c-7 -15 -8 -24 -2 -20 5 3 10 0 10 -7 1 -7 8 0 16 15 9 16
13 31 10 35 -3 3 -6 -1 -6 -9 0 -11 -2 -11 -8 -1 -6 9 -12 5 -20 -13z"/>
<path d="M713 2823 c9 -2 23 -2 30 0 6 3 -1 5 -18 5 -16 0 -22 -2 -12 -5z"/>
<path d="M594 2577 c-32 -28 -31 -57 1 -32 19 14 19 15 1 8 -32 -11 -8 17 28
33 17 7 23 13 14 14 -9 0 -29 -10 -44 -23z"/>
<path d="M655 2582 c-2 -3 7 -11 22 -19 14 -7 28 -11 31 -8 3 3 0 5 -6 5 -19
0 -14 18 6 23 9 2 2 4 -15 4 -18 0 -35 -2 -38 -5z"/>
<path d="M623 2558 c0 -7 -2 -19 -4 -27 -2 -7 2 -15 9 -16 7 -2 8 -1 2 2 -16
8 -1 23 23 23 20 0 20 0 1 15 -24 18 -31 19 -31 3z"/>
<path d="M828 2553 c6 -2 18 -2 25 0 6 3 1 5 -13 5 -14 0 -19 -2 -12 -5z"/>
<path d="M678 2513 c12 -2 30 -2 40 0 9 3 -1 5 -23 4 -22 0 -30 -2 -17 -4z"/>
<path d="M355 2210 c-3 -5 -1 -10 4 -10 6 0 11 5 11 10 0 6 -2 10 -4 10 -3 0
-8 -4 -11 -10z"/>
<path d="M224 2135 c-8 -19 10 -41 39 -48 20 -5 19 -4 -5 14 -16 12 -25 26
-21 34 3 8 2 15 -1 15 -4 0 -9 -7 -12 -15z"/>
<path d="M316 2085 c4 -8 0 -23 -7 -33 -13 -15 -12 -16 4 -3 19 15 22 36 7 46
-6 3 -7 -1 -4 -10z"/>
<path d="M286 2063 c-6 -14 -5 -15 5 -6 7 7 10 15 7 18 -3 3 -9 -2 -12 -12z"/>
<path d="M192 2051 c-23 -14 -9 -45 26 -63 47 -23 50 -28 27 -45 -20 -15 -20
-15 0 -11 34 6 24 41 -17 61 -41 19 -48 40 -20 56 9 6 13 10 7 11 -5 0 -16 -4
-23 -9z"/>
<path d="M268 2033 c7 -3 16 -2 19 1 4 3 -2 6 -13 5 -11 0 -14 -3 -6 -6z"/>
<path d="M178 1933 c7 -3 16 -2 19 1 4 3 -2 6 -13 5 -11 0 -14 -3 -6 -6z"/>
<path d="M128 1904 c-13 -28 -2 -58 23 -60 8 0 9 1 2 3 -20 7 -24 35 -8 59 9
14 11 24 5 24 -6 0 -16 -12 -22 -26z"/>
<path d="M1905 1910 c-8 -13 25 -13 45 0 12 8 9 10 -12 10 -15 0 -30 -4 -33
-10z"/>
<path d="M177 1903 c-23 -6 -17 -27 9 -31 15 -3 16 -1 4 7 -13 9 -13 10 0 15
42 13 44 14 25 14 -11 0 -28 -2 -38 -5z"/>
<path d="M235 1853 c60 -32 70 -70 29 -102 -31 -24 -19 -29 14 -5 38 27 24 82
-28 109 -39 20 -53 18 -15 -2z"/>
<path d="M210 1827 c18 -9 25 -21 25 -40 -1 -29 18 -32 23 -4 4 20 -32 57 -55
57 -13 0 -11 -4 7 -13z"/>
<path d="M1880 1830 c-13 -9 -12 -12 4 -25 11 -8 25 -15 32 -15 22 0 28 23 9
37 -22 16 -25 16 -45 3z m40 -20 c0 -5 -7 -7 -15 -4 -8 4 -15 8 -15 10 0 2 7
4 15 4 8 0 15 -4 15 -10z"/>
<path d="M183 1753 c9 -2 23 -2 30 0 6 3 -1 5 -18 5 -16 0 -22 -2 -12 -5z"/>
<path d="M100 1743 c-30 -11 -50 -37 -50 -63 0 -26 32 -70 50 -70 5 0 -2 11
-15 25 -47 46 -28 87 50 106 27 6 27 7 5 7 -14 0 -32 -2 -40 -5z"/>
<path d="M118 1709 c-10 -5 -18 -15 -18 -22 0 -9 2 -9 8 0 4 7 19 16 32 22 14
5 18 10 10 10 -8 0 -23 -4 -32 -10z"/>
<path d="M110 1662 c0 -13 56 -35 72 -29 7 3 4 6 -7 6 -11 1 -31 8 -43 17 -12
8 -22 11 -22 6z"/>
<path d="M188 1613 c12 -2 32 -2 45 0 12 2 2 4 -23 4 -25 0 -35 -2 -22 -4z"/>
<path d="M138 1603 c7 -3 16 -2 19 1 4 3 -2 6 -13 5 -11 0 -14 -3 -6 -6z"/>
<path d="M274 1597 c24 -18 17 -50 -14 -58 -22 -6 -22 -7 -4 -8 11 -1 29 8 38
18 14 15 15 24 6 40 -6 12 -18 21 -27 21 -15 0 -15 -1 1 -13z"/>
<path d="M178 1512 c-58 -35 -53 -108 9 -137 20 -10 54 -20 77 -22 51 -7 76
-28 76 -63 0 -35 17 -49 56 -48 38 1 54 -8 54 -30 0 -14 2 -15 9 -2 12 18 5
29 -24 40 -17 6 -22 14 -18 29 14 53 -73 123 -150 120 -25 -1 -22 -3 17 -10
50 -8 91 -31 110 -62 8 -13 6 -20 -9 -32 -11 -9 -14 -14 -7 -10 8 4 12 -1 12
-14 0 -12 -4 -21 -8 -21 -16 0 -32 25 -32 51 0 36 -19 49 -97 65 -78 16 -106
40 -101 88 2 22 13 37 37 53 39 26 30 31 -11 5z"/>
<path d="M213 1490 c-23 -14 -33 -27 -32 -42 l2 -23 4 23 c4 22 27 39 72 53
21 6 22 7 6 8 -11 1 -35 -8 -52 -19z"/>
<path d="M114 1251 c38 -6 55 -15 79 -41 26 -29 29 -38 24 -77 l-5 -45 35 7
c41 7 63 -7 63 -41 0 -13 5 -24 11 -24 6 0 9 -9 6 -20 -6 -22 0 -25 22 -11 11
7 9 13 -7 29 -11 11 -18 23 -15 26 3 3 -2 17 -11 31 -11 17 -26 25 -45 25 -26
0 -29 4 -34 42 -4 32 -15 51 -41 75 -31 28 -43 33 -83 32 l-48 -2 49 -6z"/>
<path d="M2052 1059 c-12 -5 -30 -22 -40 -39 -9 -16 -25 -30 -34 -30 -10 0
-27 -10 -38 -22 l-21 -23 -25 33 c-54 69 -141 83 -220 37 -53 -31 -74 -68 -74
-129 l0 -45 -32 13 c-39 17 -84 4 -93 -26 -5 -12 -12 -17 -22 -13 -9 3 -27 -2
-40 -10 -13 -9 -40 -15 -61 -14 -83 4 -100 -1 -138 -36 -37 -35 -37 -35 -32
-100 5 -52 3 -65 -9 -65 -7 0 -25 -11 -37 -24 -14 -13 -41 -25 -65 -29 -40 -5
-41 -4 -41 23 0 62 -44 109 -117 125 -29 6 -31 9 -23 30 20 53 -30 115 -93
115 -19 0 -26 7 -31 28 -13 62 -108 87 -167 43 -24 -18 -33 -20 -44 -11 -8 7
-19 9 -25 5 -5 -3 -10 1 -10 10 0 55 -66 116 -123 114 -15 0 -10 -5 18 -15 59
-22 77 -44 78 -98 2 -47 6 -53 23 -36 18 18 44 0 44 -31 0 -16 5 -29 10 -29 6
0 10 11 10 24 0 34 53 76 94 76 45 0 91 -48 82 -85 -6 -25 -5 -25 32 -19 44 7
77 -15 87 -57 5 -21 0 -33 -27 -59 -22 -22 -26 -31 -13 -25 57 25 131 -2 158
-57 16 -32 17 -43 7 -73 -6 -19 -23 -44 -38 -55 -22 -17 -23 -20 -7 -16 16 5
25 -2 40 -27 21 -36 33 -47 55 -47 12 1 11 3 -3 11 -9 5 -24 24 -33 40 -14 28
-14 33 0 54 23 35 53 41 87 16 l29 -22 0 26 c0 38 36 68 71 61 33 -6 37 7 14
38 -30 39 -10 117 37 150 27 19 77 21 113 4 21 -10 27 -9 39 7 9 12 20 16 37
12 27 -7 43 0 51 24 4 9 19 19 35 22 22 5 32 1 46 -18 28 -37 47 -22 47 38 0
82 16 112 77 143 84 42 154 21 198 -59 24 -44 32 -46 41 -12 10 39 37 49 67
25 14 -11 30 -20 36 -20 16 0 13 17 -4 24 -36 13 -3 86 38 86 9 0 17 4 17 9 0
16 -14 19 -38 10z"/>
<path d="M1953 835 c0 -11 4 -12 14 -4 7 6 13 13 13 15 0 2 -6 4 -13 4 -8 0
-14 -7 -14 -15z"/>
<path d="M1900 825 c-14 -8 -20 -14 -15 -14 6 0 21 6 35 14 14 8 21 14 15 14
-5 0 -21 -6 -35 -14z"/>
<path d="M646 781 c18 -36 11 -56 -27 -71 -27 -12 -32 -10 -58 14 -28 27 -41
26 -41 -4 0 -18 45 -62 54 -53 3 3 -6 15 -20 25 -14 11 -23 23 -20 26 3 3 15
-3 26 -13 19 -17 25 -17 53 -6 33 13 81 26 59 15 -6 -3 -10 -10 -6 -15 3 -5 0
-9 -5 -9 -6 0 -11 -5 -11 -11 0 -7 11 -4 26 6 17 11 37 15 55 11 40 -8 37 1
-3 12 -29 7 -33 12 -30 39 4 34 -19 63 -48 63 -17 0 -17 -2 -4 -29z m44 -33
c0 -10 -4 -18 -10 -18 -5 0 -10 9 -10 19 0 11 -3 28 -6 38 -5 16 -4 16 10 -1
9 -11 16 -28 16 -38z"/>
<path d="M120 781 c0 -6 4 -13 10 -16 6 -3 7 1 4 9 -7 18 -14 21 -14 7z"/>
<path d="M2030 755 c-16 -17 -23 -36 -22 -58 1 -27 -7 -42 -38 -72 -29 -28
-36 -41 -27 -47 19 -12 22 -11 57 40 18 26 44 59 58 74 13 14 21 31 18 37 -4
6 -2 20 4 31 16 30 -20 27 -50 -5z m20 -49 c-8 -8 -10 -7 -5 7 5 10 2 17 -5
17 -9 0 -9 4 1 17 13 15 14 14 17 -7 2 -12 -1 -27 -8 -34z m-50 -79 c0 -2 -12
-14 -27 -28 l-28 -24 24 28 c23 25 31 32 31 24z"/>
<path d="M168 743 c7 -3 16 -2 19 1 4 3 -2 6 -13 5 -11 0 -14 -3 -6 -6z"/>
<path d="M625 670 c3 -5 8 -10 11 -10 2 0 4 5 4 10 0 6 -5 10 -11 10 -5 0 -7
-4 -4 -10z"/>
<path d="M705 648 c4 -13 9 -38 12 -56 l5 -34 -38 4 c-34 3 -39 0 -42 -19 -3
-17 1 -23 15 -22 10 0 13 3 6 6 -19 7 -16 19 6 19 11 0 17 -6 14 -12 -2 -7 5
-18 17 -24 15 -8 20 -18 17 -31 -3 -10 -1 -17 4 -13 14 8 11 25 -8 46 -25 28
-4 38 80 38 l67 0 -6 -42 c-3 -24 -12 -65 -20 -92 -9 -27 -13 -55 -10 -63 3
-8 2 -12 -2 -9 -11 6 -38 -11 -30 -19 4 -4 16 -4 27 0 15 4 23 21 31 63 7 31
19 68 27 81 8 13 11 21 5 17 -5 -3 -12 1 -16 9 -7 18 3 45 15 45 6 0 6 -7 0
-18 -7 -14 -6 -19 4 -19 21 0 13 37 -10 50 -11 6 -47 10 -80 8 -56 -2 -60 -1
-62 21 -4 47 -16 88 -25 88 -6 0 -7 -9 -3 -22z m132 -280 c-3 -8 -6 -5 -6 6
-1 11 2 17 5 13 3 -3 4 -12 1 -19z"/>
<path d="M1400 640 c0 -5 5 -10 11 -10 5 0 7 5 4 10 -3 6 -8 10 -11 10 -2 0
-4 -4 -4 -10z"/>
<path d="M1567 633 c-4 -3 -7 -11 -7 -17 0 -6 5 -5 12 2 6 6 9 14 7 17 -3 3
-9 2 -12 -2z"/>
<path d="M625 620 c4 -6 11 -8 16 -5 14 9 11 15 -7 15 -8 0 -12 -5 -9 -10z"/>
<path d="M188 613 c7 -3 16 -2 19 1 4 3 -2 6 -13 5 -11 0 -14 -3 -6 -6z"/>
<path d="M134 588 l-19 -23 25 20 c14 11 27 21 29 22 2 2 0 3 -6 3 -5 0 -18
-10 -29 -22z"/>
<path d="M238 603 c7 -3 16 -2 19 1 4 3 -2 6 -13 5 -11 0 -14 -3 -6 -6z"/>
<path d="M1255 550 c-8 -16 -29 -37 -45 -45 -40 -20 -38 -24 4 -11 19 6 34 13
34 16 -1 3 5 18 12 33 12 25 18 28 44 23 22 -4 27 -3 16 4 -27 17 -49 11 -65
-20z"/>
<path d="M71 532 c-11 -16 -25 -49 -30 -73 -12 -54 5 -89 44 -89 18 0 25 -5
25 -20 0 -14 6 -20 23 -19 18 1 19 2 4 6 -13 3 -17 11 -14 24 5 18 -8 25 -37
20 -4 -1 -14 4 -22 10 -22 18 -17 78 11 126 29 49 27 57 -4 15z"/>
<path d="M607 524 c3 -9 6 -32 7 -53 l1 -36 58 -3 c51 -3 57 -5 58 -25 1 -18
2 -19 6 -3 7 27 -12 40 -54 38 -42 -2 -69 10 -59 27 10 16 26 13 26 -5 0 -8 4
-13 10 -9 15 9 0 35 -21 35 -14 0 -19 7 -19 25 0 14 -4 25 -10 25 -5 0 -7 -7
-3 -16z"/>
<path d="M218 478 c35 -25 52 -60 33 -66 -8 -3 -5 -10 8 -19 12 -8 21 -22 21
-32 0 -9 5 -22 12 -29 14 -14 48 -16 48 -3 0 5 -9 7 -20 4 -13 -3 -22 1 -26
11 -9 24 1 29 28 17 20 -10 21 -10 4 1 -10 7 -28 21 -40 31 -20 18 -20 18 -1
13 19 -6 19 -5 3 8 -10 7 -18 18 -18 24 0 13 -58 62 -73 62 -7 0 3 -10 21 -22z"/>
<path d="M1268 493 c7 -3 16 -2 19 1 4 3 -2 6 -13 5 -11 0 -14 -3 -6 -6z"/>
<path d="M1308 483 c7 -3 16 -2 19 1 4 3 -2 6 -13 5 -11 0 -14 -3 -6 -6z"/>
<path d="M1147 466 c-4 -10 -1 -13 9 -9 7 3 14 9 14 14 0 14 -17 10 -23 -5z"/>
<path d="M1547 446 c-12 -17 -28 -22 -83 -27 l-69 -6 66 -1 c44 -1 71 3 85 13
10 8 29 15 42 15 30 0 28 16 -3 22 -17 4 -29 -1 -38 -16z"/>
<path d="M745 450 c-4 -6 -1 -9 6 -8 18 4 24 -33 7 -43 -8 -5 -9 -9 -2 -9 7 0
19 10 27 23 14 21 13 24 -4 35 -23 15 -26 15 -34 2z"/>
<path d="M1213 453 c9 -2 23 -2 30 0 6 3 -1 5 -18 5 -16 0 -22 -2 -12 -5z"/>
<path d="M1296 453 l-29 -5 23 -11 c36 -18 38 -39 3 -27 -41 14 -163 28 -168
20 -3 -4 29 -10 70 -14 41 -4 88 -12 105 -17 20 -8 35 -8 43 -1 6 5 21 12 32
15 13 3 8 5 -14 6 -28 1 -33 4 -28 21 3 11 2 19 -1 19 -4 -1 -20 -4 -36 -6z"/>
<path d="M60 440 c0 -13 49 -44 57 -36 3 3 1 6 -5 6 -7 0 -21 9 -32 20 -11 11
-20 16 -20 10z"/>
<path d="M152 415 c-13 -7 -19 -15 -14 -19 5 -3 17 3 27 14 21 23 19 23 -13 5z"/>
<path d="M490 408 c0 -15 -11 -18 -67 -20 l-68 -1 80 -7 c44 -3 80 -6 81 -5 0
0 -5 11 -13 25 -9 19 -13 20 -13 8z"/>
<path d="M318 393 c7 -3 16 -2 19 1 4 3 -2 6 -13 5 -11 0 -14 -3 -6 -6z"/>
<path d="M610 374 c-78 -12 -80 -13 -22 -10 58 4 62 3 62 -18 0 -19 6 -22 53
-24 28 -1 59 3 67 8 17 11 5 13 -67 10 -52 -2 -57 15 -10 35 37 17 31 16 -83
-1z"/>
<path d="M173 333 c9 -2 25 -2 35 0 9 3 1 5 -18 5 -19 0 -27 -2 -17 -5z"/>
<path d="M967 3628 c-7 -5 -1 -8 15 -8 18 0 35 -10 51 -32 l25 -32 -21 -27
c-12 -15 -33 -29 -47 -32 -14 -2 16 -5 65 -5 50 -1 97 3 105 8 12 8 11 10 -7
10 -12 0 -31 12 -42 26 -19 24 -19 28 -5 55 10 20 22 29 39 29 14 0 25 3 25 8
0 9 -188 9 -203 0z m133 -17 c0 -5 -7 -14 -15 -21 -12 -10 -18 -10 -30 0 -23
19 -18 30 15 30 17 0 30 -4 30 -9z m-15 -92 c0 -8 -10 -15 -22 -17 -25 -4 -30
7 -11 26 15 15 33 10 33 -9z"/>
<path d="M1887 3585 c-16 -12 -15 -13 10 -18 30 -6 53 0 53 14 0 14 -30 11
-31 -3 0 -7 -3 -5 -7 4 -6 14 -10 14 -25 3z"/>
<path d="M1940 3490 c-9 -6 -10 -10 -3 -10 6 0 15 5 18 10 8 12 4 12 -15 0z"/>
<path d="M1885 3480 c-4 -6 3 -10 14 -10 25 0 27 6 6 13 -8 4 -17 2 -20 -3z"/>
<path d="M1876 3444 c-4 -10 -1 -14 6 -12 15 5 23 28 10 28 -5 0 -13 -7 -16
-16z"/>
<path d="M385 3440 c-3 -5 1 -10 9 -10 9 0 16 5 16 10 0 6 -4 10 -9 10 -6 0
-13 -4 -16 -10z"/>
<path d="M1430 3389 c8 -8 21 -21 29 -29 12 -12 11 -10 0 9 -9 14 -22 27 -30
29 -11 3 -11 2 1 -9z"/>
<path d="M1370 3330 c8 -5 24 -10 34 -10 26 0 18 6 -19 14 -22 5 -26 4 -15 -4z"/>
<path d="M1445 3290 c-3 -5 -1 -10 4 -10 6 0 11 5 11 10 0 6 -2 10 -4 10 -3 0
-8 -4 -11 -10z"/>
<path d="M1199 3204 c-6 -7 -8 -18 -5 -23 4 -6 -5 -29 -19 -52 -15 -22 -24
-43 -22 -46 3 -2 19 21 37 51 17 31 35 58 41 61 5 4 9 10 9 14 0 12 -29 9 -41
-5z"/>
<path d="M1452 3093 c1 -37 1 -37 5 -6 3 26 9 33 31 36 24 4 24 4 -5 6 -32 1
-33 0 -31 -36z"/>
<path d="M1780 3101 c0 -5 5 -13 10 -16 6 -3 10 -2 10 4 0 5 -4 13 -10 16 -5
3 -10 2 -10 -4z"/>
<path d="M1913 3093 c9 -2 25 -2 35 0 9 3 1 5 -18 5 -19 0 -27 -2 -17 -5z"/>
<path d="M1460 3033 c0 -10 -21 -40 -45 -66 -55 -59 -58 -84 -11 -92 19 -4 42
-5 53 -2 11 3 5 5 -14 6 -38 1 -64 10 -58 20 2 4 28 4 57 0 29 -4 64 -7 78 -7
23 0 22 1 -5 8 -16 4 -48 8 -71 9 -22 0 -44 4 -47 8 -4 3 11 26 33 49 34 37
53 84 35 84 -3 0 -5 -8 -5 -17z"/>
<path d="M1185 2980 c-3 -5 -1 -10 4 -10 6 0 11 5 11 10 0 6 -2 10 -4 10 -3 0
-8 -4 -11 -10z"/>
<path d="M1277 2949 c4 -13 8 -18 11 -10 2 7 -1 18 -6 23 -8 8 -9 4 -5 -13z"/>
<path d="M1286 2893 c-4 -14 -20 -26 -39 -32 -23 -7 -26 -9 -11 -10 28 -1 68
31 62 50 -3 10 -7 7 -12 -8z"/>
<path d="M1296 2775 c50 -51 64 -72 64 -96 0 -17 4 -28 10 -24 18 11 90 -16
115 -43 42 -45 29 -105 -25 -125 -10 -4 -9 -6 6 -6 46 -2 73 62 49 112 -17 36
-35 48 -100 70 -25 9 -41 21 -44 33 -9 46 -95 144 -126 144 -7 0 16 -29 51
-65z"/>
<path d="M1337 2627 c-3 -7 -3 -33 0 -58 l5 -44 59 -3 c55 -3 59 -2 65 21 8
35 -11 66 -51 83 -43 18 -71 18 -78 1z m68 -12 c35 -14 57 -48 48 -72 -6 -14
-61 -17 -79 -5 -22 14 -29 92 -8 92 3 0 20 -7 39 -15z"/>
<path d="M1250 2570 c14 -10 27 -16 30 -13 6 6 -30 33 -44 33 -6 0 0 -9 14
-20z"/>
<path d="M561 3041 c16 -22 24 -49 27 -91 2 -33 9 -63 14 -66 7 -4 8 13 3 47
-9 77 -22 112 -46 127 -19 12 -19 12 2 -17z"/>
<path d="M438 2733 c6 -2 18 -2 25 0 6 3 1 5 -13 5 -14 0 -19 -2 -12 -5z"/>
<path d="M1017 3223 c-4 -3 -7 -16 -7 -29 0 -12 -6 -25 -12 -27 -8 -3 -6 -6 5
-6 10 -1 17 6 17 18 0 10 9 21 20 24 11 3 20 10 20 16 0 12 -33 15 -43 4z"/>
<path d="M987 3139 c8 -8 16 -8 30 0 16 9 14 10 -11 11 -22 0 -27 -3 -19 -11z"/>
<path d="M997 2503 c-31 -5 -32 -28 -1 -28 32 0 44 -14 44 -51 0 -28 4 -35 18
-32 12 2 18 14 20 41 3 34 6 37 33 37 19 0 29 5 29 15 0 11 -11 15 -37 15 -21
0 -47 2 -58 4 -11 2 -33 1 -48 -1z"/>
<path d="M634 2349 c-10 -12 -34 -28 -53 -36 -22 -10 -30 -18 -24 -24 7 -7 27
-1 59 17 30 17 49 23 52 16 8 -25 39 -55 50 -48 13 8 -34 96 -52 96 -7 0 -21
-10 -32 -21z"/>
<path d="M1467 2329 c8 -8 7 -19 -1 -41 -10 -26 -8 -32 13 -49 26 -21 57 -26
45 -7 -4 7 -7 27 -6 46 3 40 -12 62 -41 62 -15 0 -18 -3 -10 -11z"/>
<path d="M893 2311 c-224 -64 -371 -283 -350 -520 5 -50 17 -86 49 -149 91
-177 262 -286 443 -283 142 3 265 53 354 145 75 77 90 99 117 176 47 136 32
289 -41 414 -36 62 -142 159 -209 190 -103 49 -248 60 -363 27z m260 -16 c221
-57 372 -265 354 -485 -14 -165 -118 -313 -271 -386 -100 -46 -254 -56 -257
-16 -1 16 -2 15 -6 0 -5 -22 -7 -22 -70 -3 -242 72 -388 338 -314 574 26 85
61 140 129 203 120 111 282 153 435 113z"/>
<path d="M1030 2245 c0 -25 -4 -45 -10 -45 -5 0 -10 9 -10 19 0 11 -4 23 -10
26 -14 8 -13 -48 1 -62 8 -8 6 -18 -6 -37 -16 -24 -16 -26 9 -49 31 -29 33
-41 6 -34 -31 8 -35 -12 -5 -23 34 -13 28 -29 -15 -45 -19 -7 -42 -15 -50 -18
-20 -7 -170 163 -170 192 0 25 -12 27 -30 6 -11 -13 -7 -21 23 -48 19 -17 63
-63 96 -100 l60 -68 -25 -49 c-23 -47 -27 -50 -63 -50 -30 0 -42 6 -54 24 -23
35 -65 39 -94 10 -26 -26 -59 -32 -66 -11 -6 16 -13 8 -21 -25 -5 -21 -3 -28
9 -28 8 0 15 5 15 10 0 18 32 10 62 -15 36 -30 48 -31 81 -5 32 26 117 29 117
4 0 -9 7 -31 16 -50 l17 -35 -64 -67 c-73 -76 -102 -102 -118 -102 -14 0 -14
-13 1 -28 16 -16 28 -15 28 1 0 7 38 50 84 96 l84 84 35 -16 c19 -10 42 -17
51 -17 13 0 16 -11 16 -56 0 -51 -2 -56 -20 -51 -11 3 -23 1 -26 -4 -3 -5 -10
-6 -16 -3 -6 4 -9 1 -6 -7 3 -8 16 -14 29 -15 42 -2 45 -4 25 -19 -14 -11 -23
-12 -33 -4 -10 9 -13 8 -13 -4 0 -18 34 -32 51 -21 9 5 11 -6 6 -44 -6 -48 -2
-57 21 -49 4 1 6 20 4 43 -3 39 -2 40 34 50 21 5 40 15 42 23 3 10 0 11 -13 4
-23 -13 -65 -4 -65 13 0 17 12 18 27 3 9 -9 16 -8 27 4 21 21 20 30 -2 18 -31
-16 -52 10 -52 65 0 49 0 49 40 62 39 12 42 11 64 -15 13 -16 43 -48 66 -73
23 -25 53 -62 67 -83 20 -29 29 -35 39 -26 20 16 17 39 -5 39 -10 0 -30 17
-44 38 -15 20 -49 59 -77 87 -53 53 -59 65 -35 85 8 7 20 30 25 51 10 38 40
56 40 24 0 -8 7 -15 15 -15 8 0 15 7 15 15 0 30 28 14 34 -20 4 -19 13 -35 20
-35 7 0 38 14 69 30 58 31 87 38 87 20 0 -5 5 -10 10 -10 6 0 10 14 10 30 0
31 -9 37 -27 19 -8 -8 -29 -1 -75 25 -36 20 -70 36 -76 36 -7 0 -12 -13 -12
-30 0 -23 -5 -30 -19 -30 -14 0 -18 5 -14 20 3 11 0 20 -5 20 -6 0 -16 -9 -22
-20 -6 -11 -16 -20 -23 -20 -14 0 -48 61 -46 83 1 19 178 172 194 169 18 -3
19 3 5 29 -11 20 -30 26 -30 8 0 -6 -6 -16 -13 -22 -8 -7 -50 -47 -94 -90
l-80 -79 -39 21 c-21 12 -44 21 -51 21 -17 0 -17 37 0 44 10 5 10 7 0 12 -17
8 -16 24 3 45 16 18 11 59 -7 59 -5 0 -2 11 7 25 17 25 12 61 -6 50 -5 -3 -10
1 -10 9 0 8 5 18 10 21 17 10 11 25 -10 25 -17 0 -20 -7 -20 -45z m0 -110 c0
-8 -4 -15 -10 -15 -5 0 -10 7 -10 15 0 8 5 15 10 15 6 0 10 -7 10 -15z m-3
-213 c1 -28 -1 -52 -5 -52 -8 0 -72 76 -72 85 0 9 43 24 60 22 11 -2 15 -17
17 -55z m68 44 c19 -8 35 -19 35 -25 0 -10 -70 -71 -82 -71 -5 0 -8 25 -8 55
0 60 3 62 55 41z m-139 -104 c-26 -2 -51 -1 -54 3 -3 3 2 22 12 42 l18 38 36
-40 37 -40 -49 -3z m210 33 c8 -32 9 -31 -45 -38 l-43 -5 33 34 c39 41 47 42
55 9z m-411 -15 c4 -6 -8 -10 -29 -10 -20 0 -36 5 -36 10 0 6 13 10 29 10 17
0 33 -4 36 -10z m625 -22 c0 -10 -12 -10 -34 -2 -9 3 -16 12 -16 20 0 11 5 11
25 2 14 -6 25 -15 25 -20z m-640 -18 c0 -5 -9 -10 -20 -10 -11 0 -20 5 -20 10
0 6 9 10 20 10 11 0 20 -4 20 -10z m249 -27 c-29 -34 -51 -53 -59 -53 -9 0
-30 47 -30 65 0 11 14 15 57 15 l56 0 -24 -27z m181 5 c0 -15 -30 -68 -38 -68
-4 0 -25 18 -46 39 l-39 40 44 3 c52 4 79 -1 79 -14z m220 12 c18 0 -15 -24
-47 -34 -18 -6 -23 -3 -23 12 0 26 11 34 35 28 11 -3 27 -6 35 -6z m-360 -65
c0 -40 -2 -45 -22 -45 -13 0 -30 5 -38 10 -12 8 -9 15 20 45 18 19 35 35 37
35 2 0 3 -20 3 -45z m72 -36 c-4 -4 -17 -10 -29 -14 -22 -6 -23 -3 -23 39 l0
46 29 -32 c16 -18 27 -36 23 -39z"/>
<path d="M597 2274 c-8 -8 24 -64 35 -64 13 0 9 33 -6 53 -14 19 -19 20 -29
11z"/>
<path d="M382 1924 c-33 -23 -31 -88 3 -110 28 -18 85 -13 105 11 15 18 16 65
1 93 -14 27 -75 30 -109 6z m81 -35 c15 -24 1 -49 -27 -49 -31 0 -40 14 -32
46 8 29 42 30 59 3z"/>
<path d="M1576 1885 c-5 -15 0 -18 62 -40 7 -3 12 -15 10 -27 -2 -16 -14 -25
-42 -33 -22 -7 -42 -17 -44 -24 -3 -10 9 -12 59 -6 96 11 104 16 104 61 0 32
-3 38 -17 36 -10 -2 -18 2 -18 7 0 8 -87 41 -106 41 -1 0 -5 -7 -8 -15z m114
-70 c0 -8 -4 -15 -10 -15 -5 0 -10 7 -10 15 0 8 5 15 10 15 6 0 10 -7 10 -15z"/>
<path d="M1420 1464 c0 -9 9 -27 20 -41 16 -21 21 -23 26 -10 6 16 -24 66 -38
67 -5 0 -8 -7 -8 -16z"/>
<path d="M617 1429 c-40 -44 -46 -66 -22 -75 8 -4 15 -12 15 -20 0 -8 7 -14
15 -14 18 0 19 23 4 51 -8 16 -5 26 20 55 35 39 37 44 18 44 -8 0 -30 -18 -50
-41z"/>
<path d="M1350 1412 c0 -14 67 -85 76 -81 30 13 84 56 84 67 0 14 -31 2 -62
-25 -16 -14 -20 -12 -44 16 -24 29 -54 42 -54 23z"/>
<path d="M957 1323 c-4 -3 5 -21 19 -40 23 -30 24 -35 10 -49 -26 -25 -4 -51
50 -59 25 -3 50 -3 54 2 5 4 10 41 12 81 3 69 2 72 -19 72 -19 0 -23 -5 -23
-34 0 -50 -14 -51 -44 -6 -25 38 -44 49 -59 33z m97 -112 c8 -13 -3 -19 -24
-14 -11 3 -17 9 -14 14 7 11 31 12 38 0z"/>
<path d="M1826 1472 c-8 -15 -37 -47 -65 -70 -28 -24 -70 -71 -93 -105 -83
-124 -119 -156 -178 -158 -27 -1 -29 -3 -10 -6 65 -13 125 34 199 153 29 48
81 97 128 123 22 11 53 59 53 81 0 20 -20 10 -34 -18z"/>
<path d="M1050 168 c0 -69 2 -79 16 -74 9 3 21 6 27 6 8 0 7 4 -1 12 -19 19
-15 49 6 46 10 -2 17 3 17 12 0 9 -7 14 -17 12 -13 -2 -18 4 -18 23 0 21 5 25
30 25 20 0 30 -5 30 -15 0 -8 5 -15 10 -15 6 0 10 9 10 20 0 16 -7 20 -32 21
-18 1 -43 3 -55 4 -22 2 -23 -1 -23 -77z"/>
<path d="M1205 225 c-47 -46 -19 -125 45 -125 63 0 93 90 44 129 -35 27 -59
26 -89 -4z m73 3 c15 -15 16 -90 1 -105 -20 -20 -56 -3 -63 29 -9 45 -8 55 10
72 19 19 36 20 52 4z"/>
<path d="M1865 240 c-3 -5 -1 -10 4 -10 6 0 11 -19 11 -42 l0 -43 -30 48 c-21
33 -37 47 -53 47 -21 0 -22 -4 -22 -70 l0 -70 30 1 c17 0 24 3 18 6 -8 3 -13
22 -12 46 0 37 2 40 12 23 22 -35 59 -76 68 -76 5 0 9 29 9 65 0 45 4 65 13
66 6 0 3 4 -8 9 -27 12 -33 12 -40 0z"/>
<path d="M1947 243 c-4 -3 -7 -38 -7 -77 l0 -71 45 3 c40 4 45 7 45 28 0 13
-4 24 -10 24 -5 0 -10 -7 -10 -15 0 -8 -9 -15 -20 -15 -13 0 -20 7 -20 20 0
13 5 18 15 14 11 -5 15 1 15 20 0 27 -15 35 -23 14 -3 -7 -6 -1 -6 15 -1 29
16 36 37 15 9 -9 12 -7 12 10 0 18 -6 22 -33 22 -19 0 -37 -3 -40 -7z"/>
<path d="M400 164 l0 -75 42 3 c23 2 43 9 46 16 3 11 0 11 -16 1 -27 -17 -52
-5 -52 26 0 22 4 25 20 20 14 -5 20 -2 20 10 0 12 -6 15 -20 10 -17 -5 -20 -2
-20 25 0 30 2 32 30 28 17 -3 30 -1 30 4 0 4 -18 8 -40 8 l-40 0 0 -76z"/>
<path d="M504 162 l1 -77 38 4 c30 2 37 7 37 25 -1 20 -2 20 -14 4 -16 -22
-36 -23 -36 -4 0 8 -3 22 -7 31 -5 14 -2 16 17 10 16 -5 21 -4 18 6 -3 8 -11
14 -19 14 -9 0 -14 11 -13 33 1 20 -3 32 -11 32 -9 0 -12 -22 -11 -78z"/>
<path d="M604 178 c2 -35 5 -69 5 -75 2 -24 91 -11 91 13 0 8 -4 14 -10 14 -5
0 -10 -4 -10 -10 0 -5 -12 -10 -26 -10 -25 0 -26 1 -22 65 3 57 1 65 -15 65
-15 0 -17 -8 -13 -62z"/>
<path d="M1348 165 c3 -65 6 -75 22 -75 16 0 18 6 13 35 -6 39 9 48 27 15 13
-23 58 -55 67 -47 3 4 -9 18 -26 33 -29 24 -31 28 -16 44 20 22 19 56 -1 64
-9 3 -32 6 -52 6 l-37 0 3 -75z m70 38 c-2 -17 -10 -29 -20 -31 -14 -3 -18 3
-18 27 0 25 4 31 21 31 16 0 20 -5 17 -27z"/>
<path d="M1470 225 c0 -12 7 -14 26 -9 l27 7 -5 -67 c-3 -58 -2 -66 14 -66 15
0 17 8 15 63 -2 59 -1 62 21 61 12 0 22 5 22 13 0 9 -17 13 -60 13 -47 0 -60
-3 -60 -15z"/>
<path d="M1618 183 c4 -63 31 -100 61 -87 9 4 28 6 44 5 30 -1 37 13 11 23
-13 5 -16 17 -12 61 4 49 3 55 -15 55 -15 0 -17 -3 -8 -14 13 -15 5 -93 -11
-102 -20 -13 -38 19 -38 67 0 41 -3 49 -18 49 -16 0 -18 -7 -14 -57z"/>
<path d="M566 215 c4 -8 8 -15 10 -15 2 0 4 7 4 15 0 8 -4 15 -10 15 -5 0 -7
-7 -4 -15z"/>
<path d="M892 207 c-8 -9 -7 -20 3 -37 38 -67 39 -71 27 -91 -10 -16 -9 -19 3
-19 17 0 31 43 20 61 -4 6 -2 15 5 19 7 4 9 13 5 19 -5 8 -11 9 -19 2 -9 -7
-16 -7 -24 1 -15 15 -15 35 0 40 8 3 9 6 1 11 -6 4 -16 1 -21 -6z"/>
<path d="M834 135 c-7 -18 13 -45 33 -45 19 0 28 27 13 45 -16 19 -39 19 -46
0z m36 -15 c0 -5 -7 -10 -15 -10 -8 0 -15 5 -15 10 0 6 7 10 15 10 8 0 15 -4
15 -10z"/>
<path d="M2057 123 c-12 -11 -8 -23 8 -23 8 0 15 7 15 15 0 16 -12 20 -23 8z"/>
</g>
</svg>
