<?xml version="1.0" standalone="no"?>
<!DOCTYPE svg PUBLIC "-//W3C//DTD SVG 20010904//EN"
 "http://www.w3.org/TR/2001/REC-SVG-20010904/DTD/svg10.dtd">
<svg version="1.0" xmlns="http://www.w3.org/2000/svg"
 width="220.000000pt" height="381.000000pt" viewBox="0 0 220.000000 381.000000"
 preserveAspectRatio="xMidYMid meet">
<metadata>
Created by potrace 1.16, written by Peter Selinger 2001-2019
</metadata>
<g transform="translate(0.000000,381.000000) scale(0.100000,-0.100000)"
fill="#000000" stroke="none">
<path d="M26 3784 c-3 -9 -7 -660 -9 -1448 -1 -787 -4 -1629 -7 -1871 -3 -286
-2 -442 5 -447 11 -8 2145 -6 2150 2 3 5 18 1749 20 2355 1 171 3 557 4 858 2
302 1 551 -2 553 -3 3 -489 7 -1080 10 -986 4 -1075 3 -1081 -12z m44 -376 c0
-204 2 -369 4 -367 2 2 6 138 7 301 2 163 5 329 7 367 l4 71 49 0 c50 0 58 -7
37 -28 -7 -7 -8 -12 -4 -12 5 0 17 10 27 22 l19 21 0 -27 c0 -16 4 -25 10 -21
5 3 10 15 10 26 0 14 7 19 26 19 23 0 25 -3 19 -27 -5 -21 -4 -24 7 -16 7 5
21 13 30 16 16 6 17 -18 18 -322 0 -320 2 -367 16 -380 4 -3 4 50 0 119 -5 97
-9 471 -6 593 0 9 5 17 10 17 7 0 10 -140 9 -402 -1 -222 -5 -387 -9 -368 -4
19 -7 -65 -6 -188 1 -217 1 -223 -19 -220 -16 2 -21 12 -24 48 l-5 45 -5 -44
c-3 -25 -12 -46 -19 -49 -11 -3 -12 77 -7 439 3 244 8 455 11 467 3 15 1 21
-6 17 -6 -4 -10 -70 -10 -179 0 -95 -3 -308 -7 -474 -6 -286 -7 -301 -26 -306
-10 -2 -29 0 -42 6 -13 6 -35 8 -50 4 -23 -6 -26 -11 -23 -44 l3 -37 70 3 c46
2 65 -1 56 -7 -16 -10 -23 -70 -10 -86 4 -6 10 -24 13 -40 3 -15 10 -31 15
-34 15 -10 24 -58 12 -65 -18 -12 -12 -45 10 -56 11 -7 32 -9 45 -6 l24 6 -2
-422 c-1 -233 -5 -380 -8 -328 -5 71 -7 36 -8 -132 -1 -147 2 -228 8 -228 6 0
10 -8 10 -19 0 -20 -39 -31 -95 -26 -16 1 -54 3 -82 4 l-53 1 -2 63 -2 62 -3
-63 c-4 -59 -6 -63 -26 -60 -21 3 -22 7 -21 98 3 232 2 1478 -1 1508 -2 18 -5
35 -7 38 -3 2 -5 -365 -5 -816 -1 -541 -4 -825 -11 -833 -6 -7 -12 -28 -14
-47 -2 -19 -2 590 0 1355 2 765 5 1396 7 1403 3 6 9 12 15 12 7 0 10 -123 10
-372z m250 362 c0 -5 -4 -10 -10 -10 -5 0 -10 5 -10 10 0 6 5 10 10 10 6 0 10
-4 10 -10z m1478 -28 c5 -45 -28 -92 -99 -144 -242 -178 -387 -225 -684 -221
-68 1 -111 7 -175 28 -80 25 -251 97 -313 131 -15 9 -38 21 -51 28 -13 6 -39
27 -60 46 -34 33 -36 37 -36 100 l0 66 708 -2 707 -2 3 -30z m64 33 c10 -4 13
-24 12 -78 l-2 -72 7 68 c4 38 13 72 20 76 6 4 37 6 69 5 31 -1 74 -3 95 -3
20 -1 37 -6 37 -12 0 -5 -4 -7 -10 -4 -6 4 -10 -14 -9 -47 2 -50 2 -51 10 -18
4 19 6 -201 4 -490 -3 -289 -5 -643 -5 -788 0 -173 -3 -261 -10 -257 -6 4 -10
-7 -10 -25 0 -18 -4 -29 -10 -25 -5 3 -10 0 -10 -7 -1 -7 -2 -53 -5 -103 -2
-58 0 -78 5 -55 l7 35 3 -45 c2 -30 4 -36 7 -20 8 45 23 46 23 3 0 -23 -4 -45
-10 -48 -5 -3 -10 -23 -11 -43 0 -34 -1 -35 -10 -13 -5 14 -7 31 -5 38 3 7 -1
13 -9 13 -18 0 -20 16 -2 23 7 3 6 6 -5 6 -9 1 -20 -3 -23 -9 -3 -5 -26 -10
-50 -10 -40 0 -44 2 -55 34 -7 21 -7 42 -1 58 5 13 7 36 4 51 -6 31 13 37 32
10 20 -26 34 -7 28 40 -9 65 -21 77 -17 16 l3 -54 -9 58 c-10 63 -33 107 -74
146 -14 14 -26 30 -26 36 0 7 -9 24 -20 38 -20 26 -21 37 -21 715 0 642 5 777
22 697 6 -25 7 -23 8 18 1 49 1 50 23 42z m303 -1057 c-7 -1045 -13 -1790 -14
-1796 -1 -1 -10 2 -22 8 -14 8 -17 15 -11 23 15 18 9 107 -8 117 -12 8 -15 43
-15 194 0 179 1 185 23 209 20 21 22 29 13 46 -7 12 -17 21 -23 21 -7 0 -9
151 -4 533 4 292 8 794 9 1115 l1 582 29 0 29 0 -7 -1052z m-419 876 c-15 -14
-30 -23 -34 -20 -3 4 7 18 23 31 39 30 47 22 11 -11z m53 -24 c-2 -48 -19 -74
-19 -28 l0 22 -20 -22 c-11 -12 -19 -25 -18 -29 3 -15 -15 -68 -32 -93 -19
-28 -146 -276 -184 -360 -14 -30 -40 -81 -57 -113 -29 -51 -31 -60 -17 -73 17
-17 52 -8 44 12 -3 8 0 14 5 14 7 0 4 10 -5 25 -9 14 -12 25 -7 25 5 0 13 -4
16 -10 3 -5 11 -10 16 -10 6 0 3 10 -5 21 -13 20 -13 26 5 60 11 22 26 39 34
39 8 0 15 5 15 10 0 6 -4 10 -10 10 -9 0 -3 22 23 82 8 20 15 24 24 16 9 -7
13 -7 13 1 0 6 -4 11 -10 11 -5 0 -10 5 -10 10 0 6 10 10 22 10 17 0 19 3 10
12 -18 18 -14 30 8 23 11 -4 20 -2 20 4 0 6 -4 11 -10 11 -5 0 -10 5 -10 10 0
6 10 10 22 10 17 0 19 3 10 12 -17 17 -15 31 3 25 17 -7 30 9 15 18 -6 4 -8
11 -4 16 3 5 10 6 16 3 7 -5 9 0 6 14 -4 12 -1 25 5 29 12 7 2 -83 -11 -101
-5 -6 -14 -42 -21 -81 -26 -144 -32 -168 -61 -228 -27 -52 -31 -70 -28 -126 2
-49 0 -65 -9 -64 -18 4 -16 -7 3 -21 24 -18 3 -66 -28 -60 l-23 5 23 -12 c18
-10 25 -9 40 4 16 15 20 15 40 1 13 -9 22 -11 22 -4 0 6 -11 16 -25 22 -21 9
-25 18 -25 51 0 27 4 38 13 34 6 -2 23 -8 37 -12 22 -7 23 -6 12 8 -7 8 -24
18 -37 21 -14 4 -25 10 -25 15 0 9 27 7 53 -4 10 -4 20 -5 23 -2 3 3 -13 13
-35 23 -23 10 -41 21 -41 26 0 12 14 10 28 -4 9 -9 12 -9 12 1 0 8 -8 20 -17
28 -16 13 -16 14 7 8 23 -6 23 -5 8 8 -22 17 -23 27 -3 27 8 0 23 -10 35 -22
11 -12 20 -17 20 -11 0 6 -14 23 -30 36 -17 14 -26 29 -20 32 5 3 14 4 19 0 5
-3 12 -1 16 4 3 6 13 7 23 4 15 -6 15 -4 4 9 -9 11 -10 23 -4 35 5 10 15 44
22 76 9 41 17 56 27 53 7 -3 13 -1 13 4 0 6 -5 10 -10 10 -7 0 -8 31 -3 87 4
64 3 84 -5 79 -7 -4 -12 -1 -12 8 0 9 5 15 12 14 15 -4 27 44 15 60 -7 8 -5
12 7 12 15 0 16 -50 16 -555 l0 -555 -28 0 c-27 0 -49 14 -117 72 -35 30 -75
48 -107 48 -11 0 -33 11 -50 25 -16 14 -38 25 -48 25 -10 0 -22 4 -25 10 -5 8
-72 44 -85 45 -18 2 -70 44 -61 49 12 8 15 106 4 106 -16 0 -18 180 -2 224 16
45 6 58 -48 60 -32 1 -38 -2 -41 -21 -2 -15 -10 -23 -23 -23 -14 0 -19 7 -19
30 0 30 -1 30 -54 30 -58 0 -72 -10 -67 -47 2 -19 -2 -23 -23 -23 -21 0 -26 5
-26 25 0 28 -17 32 -69 14 -36 -13 -38 -23 -14 -70 17 -34 23 -167 9 -233 -6
-31 2 -76 13 -76 3 0 5 24 4 52 l-2 53 9 -45 c11 -60 6 -75 -27 -77 -16 0 -34
-10 -42 -22 -7 -12 -20 -21 -27 -21 -8 0 -14 -4 -14 -10 0 -5 -12 -13 -27 -16
-33 -8 -43 -20 -43 -51 0 -13 -6 -23 -14 -23 -8 0 -22 -7 -31 -16 -15 -15 -52
-28 -115 -41 -18 -3 -31 2 -44 16 -14 15 -31 21 -63 21 -23 0 -43 -4 -43 -9 0
-6 15 -7 34 -4 18 3 36 1 39 -3 3 -5 -15 -10 -39 -10 -42 -1 -44 0 -54 35 -20
71 -8 85 54 61 19 -7 30 -5 47 9 21 17 22 21 10 50 -10 22 -20 31 -37 31 -12
0 -25 -4 -28 -8 -3 -5 -22 -8 -43 -7 -44 3 -41 -12 -45 203 l-3 122 25 0 c14
0 32 5 40 11 11 8 7 9 -17 5 -19 -3 -33 -1 -33 4 0 6 12 11 28 11 l27 1 -30 7
c-29 7 -29 7 -7 15 21 7 32 36 12 36 -5 0 -6 8 -3 17 5 12 2 15 -10 10 -11 -4
-17 -1 -17 8 0 8 7 15 15 15 8 0 15 7 15 16 0 14 -3 14 -15 4 -18 -15 -20 1
-3 18 7 7 8 12 2 12 -5 0 -10 33 -11 73 l-1 72 14 -45 c8 -25 22 -89 31 -142
9 -54 19 -98 23 -98 8 0 -16 162 -30 204 -8 23 -7 31 8 42 16 12 15 13 -8 14
-24 1 -24 1 -6 15 17 13 17 15 3 15 -10 0 -14 5 -11 15 5 11 1 14 -12 9 -16
-5 -17 -4 -4 6 11 9 12 13 3 17 -8 3 -13 23 -12 51 0 42 1 44 10 22 6 -14 23
-50 38 -80 16 -30 36 -78 45 -107 9 -28 23 -57 31 -63 11 -9 11 -17 -1 -48
-13 -33 -13 -35 1 -18 8 11 15 27 15 35 1 11 8 8 25 -12 17 -19 25 -40 25 -65
0 -60 19 -110 67 -183 37 -55 49 -67 59 -58 8 6 14 18 14 26 0 13 -3 13 -15 3
-13 -10 -15 -9 -15 10 0 12 10 30 23 40 12 10 19 21 16 25 -4 3 -16 -4 -27
-16 -12 -13 -27 -19 -36 -16 -14 6 -14 10 4 39 22 36 25 48 12 48 -5 0 -15
-15 -24 -32 l-15 -33 -18 35 c-20 38 -36 148 -23 156 4 3 8 12 8 21 0 13 -3
13 -15 3 -15 -13 -19 -8 -16 22 2 12 -3 16 -12 12 -23 -9 -75 55 -62 76 3 6 1
10 -4 10 -6 0 -11 8 -11 18 0 9 -11 34 -25 54 -35 52 -31 57 12 15 20 -20 40
-37 45 -37 4 0 9 -8 9 -17 1 -17 2 -17 6 0 3 12 -10 31 -41 58 -25 23 -46 48
-47 57 0 11 -2 12 -6 4 -2 -6 -9 -10 -13 -7 -5 3 -7 12 -4 19 3 8 -5 21 -17
30 -13 8 -20 19 -16 23 4 4 33 -18 65 -49 39 -39 84 -69 143 -97 47 -23 93
-41 100 -41 8 0 39 -9 69 -19 79 -27 170 -37 181 -20 12 19 11 49 -1 49 -5 0
-10 -9 -10 -20 0 -11 -4 -20 -9 -20 -4 0 -6 12 -3 26 3 19 1 25 -7 20 -6 -4
-11 -16 -11 -27 0 -13 -7 -19 -23 -19 -20 0 -23 4 -21 33 2 17 1 23 -2 12 -9
-32 -20 -38 -56 -30 -18 5 -27 10 -20 12 6 3 12 14 11 26 0 21 -1 21 -9 2 -8
-20 -9 -20 -9 1 -1 26 -29 27 -37 2 -6 -20 -9 -21 -41 -12 -16 5 -23 14 -24
33 0 25 0 25 -9 4 -12 -31 -24 -29 -18 2 3 14 1 25 -3 25 -5 0 -9 -7 -9 -15 0
-8 -5 -15 -10 -15 -6 0 -8 12 -5 28 5 25 5 25 -4 5 -14 -32 -29 -29 -24 5 3
26 3 26 -7 4 -12 -28 -28 -21 -25 10 1 13 0 15 -2 5 -5 -20 -40 -19 -36 1 2 7
-2 11 -9 9 -8 -1 -12 12 -11 38 l1 40 -8 -35 c-7 -32 -8 -33 -15 -13 -4 13
-11 20 -16 17 -5 -3 -23 8 -40 25 -22 23 -32 43 -35 76 -4 44 10 63 22 30 3
-8 49 -42 103 -74 53 -33 107 -68 121 -79 54 -42 201 -67 228 -40 18 18 15 33
-4 17 -13 -10 -17 -10 -25 2 -6 10 -9 10 -9 2 0 -7 -4 -13 -10 -13 -5 0 -10 7
-10 15 0 8 -4 15 -10 15 -5 0 -10 -7 -10 -16 0 -9 -6 -14 -12 -11 -7 2 -12 11
-10 21 2 9 -2 16 -8 16 -5 0 -10 -7 -10 -15 0 -17 -4 -18 -37 -9 -16 5 -23 14
-23 33 -1 25 -1 26 -16 6 -15 -19 -15 -19 -9 8 5 17 3 27 -4 27 -6 0 -11 -7
-11 -15 0 -8 -5 -15 -11 -15 -6 0 -8 9 -4 20 4 11 2 20 -4 20 -6 0 -11 -4 -11
-10 0 -5 -5 -10 -11 -10 -6 0 -9 7 -5 15 3 8 1 15 -4 15 -6 0 -10 -5 -10 -11
0 -6 -6 -9 -12 -6 -7 2 -12 15 -10 28 3 23 3 23 -11 5 -16 -21 -33 -7 -23 19
3 8 1 15 -4 15 -6 0 -10 -4 -10 -10 0 -5 -5 -10 -11 -10 -6 0 -8 9 -4 23 5 20
5 20 -7 5 -19 -22 -52 -5 -43 23 7 21 -10 27 -19 7 -3 -7 -3 -3 0 10 3 12 1
22 -5 22 -6 0 -11 -4 -11 -10 0 -5 -4 -10 -9 -10 -8 0 -22 71 -15 79 2 2 21
-12 42 -31 49 -44 236 -135 373 -181 127 -43 204 -49 369 -31 138 15 213 33
299 70 53 24 79 39 180 106 34 23 46 27 52 16 13 -20 11 -28 -6 -22 -9 4 -15
0 -15 -10 0 -10 -5 -13 -16 -9 -14 5 -15 3 -5 -15 8 -15 8 -22 1 -22 -5 0 -10
5 -10 10 0 6 -5 10 -10 10 -7 0 -7 -7 0 -21 15 -28 2 -39 -16 -14 -13 17 -16
18 -24 5 -14 -21 -12 -30 5 -30 13 0 14 -4 4 -21 l-11 -21 -14 21 c-9 12 -20
21 -26 21 -6 0 -2 -10 10 -23 l22 -24 -20 -18 c-11 -10 -21 -16 -23 -14 -1 2
-8 15 -16 29 l-14 25 22 -19 c23 -21 27 -16 9 13 -10 17 -13 17 -39 2 -34 -19
-34 -21 -13 -47 15 -18 15 -18 9 11 l-6 30 20 -25 c14 -18 16 -27 8 -32 -22
-14 -49 -8 -54 12 -3 11 -9 20 -14 20 -5 0 -6 -12 -3 -26 5 -19 4 -25 -5 -20
-6 4 -11 14 -11 22 0 8 -5 14 -11 14 -7 0 -9 -9 -6 -22 6 -23 6 -23 -10 -3
-15 19 -15 19 -10 -8 6 -36 -10 -46 -19 -12 -4 17 -10 23 -16 17 -6 -6 -6 -17
1 -31 10 -17 9 -21 -5 -21 -9 0 -18 9 -21 20 -7 27 -22 16 -17 -13 l5 -22 -10
23 c-15 32 -24 27 -16 -8 7 -34 -13 -44 -22 -10 -3 11 -10 17 -15 14 -5 -3 -7
-12 -4 -19 3 -8 0 -15 -5 -17 -6 -2 -7 -11 -3 -21 4 -11 10 -14 18 -8 21 16
191 90 232 101 57 14 104 55 181 155 36 47 72 85 80 85 8 0 11 5 8 10 -6 9 11
40 21 40 2 0 3 -22 3 -50z m-13 -85 c10 -26 -1 -35 -13 -10 -6 14 -7 25 -2 25
5 0 12 -7 15 -15z m-26 -25 c0 -5 -5 -10 -11 -10 -5 0 -7 5 -4 10 3 6 8 10 11
10 2 0 4 -4 4 -10z m-20 -44 c0 -3 -4 -8 -10 -11 -5 -3 -10 -1 -10 4 0 6 5 11
10 11 6 0 10 -2 10 -4z m10 -96 c0 -5 -4 -10 -10 -10 -5 0 -10 5 -10 10 0 6 5
10 10 10 6 0 10 -4 10 -10z m-17 -42 c-10 -17 -11 -32 0 -39 5 -4 7 -14 5 -23
-2 -14 -6 -15 -19 -4 -13 10 -14 20 -7 46 5 17 13 32 19 32 6 0 7 -5 2 -12z
m-973 -48 c0 -5 -5 -10 -11 -10 -5 0 -7 5 -4 10 3 6 8 10 11 10 2 0 4 -4 4
-10z m969 -44 c8 -10 9 -16 1 -21 -13 -8 -30 3 -30 21 0 18 14 18 29 0z m-14
-46 c3 -5 -1 -10 -9 -10 -9 0 -16 5 -16 10 0 6 4 10 9 10 6 0 13 -4 16 -10z
m-7 -38 c2 -7 -2 -10 -12 -6 -9 3 -16 11 -16 16 0 13 23 5 28 -10z m-8 -32 c0
-5 -7 -10 -15 -10 -8 0 -15 5 -15 10 0 6 7 10 15 10 8 0 15 -4 15 -10z m-24
-57 c-10 -10 -19 5 -10 18 6 11 8 11 12 0 2 -7 1 -15 -2 -18z m-586 -24 c0 -6
7 -9 15 -5 8 3 15 1 15 -4 0 -6 -6 -10 -14 -10 -9 0 -12 -7 -9 -20 3 -11 10
-20 15 -20 5 0 6 6 2 13 -6 10 -4 10 7 0 23 -23 68 -16 81 12 12 27 27 32 46
13 17 -17 15 -31 -3 -24 -8 3 -15 1 -15 -3 0 -5 6 -12 13 -14 6 -3 1 -6 -13
-7 -24 -1 -24 -1 -6 -15 19 -14 19 -15 1 -15 -18 0 -18 -1 1 -15 19 -14 18
-14 -3 -15 -13 0 -23 -4 -23 -10 0 -5 9 -10 20 -10 11 0 20 -3 20 -7 0 -5 -69
-8 -154 -8 -128 0 -150 2 -137 13 14 12 13 13 -9 8 -21 -4 -22 -3 -9 7 16 13
12 58 -6 59 -5 0 -9 4 -7 9 1 5 -4 12 -13 15 -12 5 -12 8 0 20 15 15 45 19 45
6 0 -5 6 -16 13 -26 10 -14 21 -16 50 -11 20 4 34 11 31 16 -3 5 0 9 7 9 10 0
10 3 1 12 -17 17 -15 26 6 31 29 8 32 7 32 -4z m388 -114 c-3 -3 -9 2 -12 12
-6 14 -5 15 5 6 7 -7 10 -15 7 -18z m-346 -66 c-21 -8 -23 -15 -21 -56 2 -41
0 -48 -15 -46 -11 0 -15 -4 -12 -13 4 -9 -3 -18 -17 -24 -19 -7 -16 -9 18 -10
35 -2 37 -3 15 -10 l-25 -8 26 -1 c25 -1 48 24 30 31 -5 2 -7 26 -4 54 5 50 6
51 29 40 58 -27 1 -166 -68 -166 -27 0 -78 40 -78 61 0 13 -28 11 -36 -2 -3
-6 -1 -16 5 -22 9 -9 10 -7 5 7 -5 13 -4 17 4 12 20 -12 14 -45 -8 -43 -11 1
-20 8 -20 17 0 8 -5 22 -10 30 -8 11 -9 7 -5 -15 4 -24 3 -26 -4 -10 -13 28
-14 98 -1 90 6 -4 8 -11 5 -16 -4 -5 -1 -9 4 -9 6 0 11 21 11 48 0 31 3 42 9
33 7 -11 10 -10 13 6 3 20 3 20 23 0 17 -17 17 -19 3 -14 -10 4 -18 2 -18 -3
0 -13 42 -17 68 -6 12 5 22 15 22 22 0 16 -43 29 -65 20 -9 -3 -13 -2 -10 4 3
6 39 10 78 9 55 0 66 -2 49 -10z m81 -15 c-3 -8 0 -14 6 -14 6 0 11 -5 11 -11
0 -5 -4 -8 -9 -5 -14 9 -20 -35 -11 -84 l7 -45 3 50 c3 41 4 44 7 16 6 -45 -3
-77 -23 -85 -13 -5 -15 -1 -9 27 3 17 3 27 -2 20 -4 -6 -7 17 -6 50 1 34 2 72
3 84 0 15 5 21 14 17 8 -3 12 -12 9 -20z m-276 -41 c-4 -17 -4 -17 -12 0 -4 9
-4 25 0 35 8 16 8 16 12 0 3 -10 3 -26 0 -35z m310 -85 c-2 -18 -4 -4 -4 32 0
36 2 50 4 33 2 -18 2 -48 0 -65z m9 -46 c-15 -15 -15 -15 -4 10 7 15 15 23 17
17 2 -6 -4 -18 -13 -27z m-86 -45 c0 -16 9 -27 33 -37 17 -7 35 -15 39 -18 12
-6 -4 62 -16 70 -8 5 -7 8 2 8 7 0 15 -7 18 -15 4 -8 12 -15 19 -15 7 0 19 -8
26 -17 13 -17 13 -17 -5 -3 -18 14 -19 13 -13 -2 3 -10 2 -18 -4 -18 -6 0 -8
-4 -5 -9 3 -5 -1 -12 -10 -15 -8 -3 -12 -10 -9 -16 3 -5 -1 -10 -9 -10 -9 0
-16 -4 -16 -10 0 -5 -7 -7 -15 -4 -8 4 -15 1 -15 -5 0 -6 -7 -11 -16 -11 -8 0
-12 4 -9 10 4 6 -1 7 -11 3 -11 -4 -13 -8 -6 -11 7 -2 12 -10 12 -17 0 -24 62
7 108 54 32 33 46 41 55 32 8 -8 8 -11 -2 -11 -7 0 -10 -4 -7 -9 4 -5 0 -11
-6 -14 -10 -3 -10 -7 -1 -19 11 -12 9 -17 -11 -26 -17 -7 -27 -7 -35 1 -8 8
-11 7 -11 -3 0 -10 -12 -16 -32 -17 -17 -1 -36 -8 -42 -14 -23 -24 90 2 155
37 76 39 82 40 103 18 15 -14 16 -14 16 2 0 14 3 15 12 6 8 -8 8 -15 -1 -26
-9 -11 -9 -16 0 -21 6 -4 15 -2 19 6 7 10 11 10 24 0 9 -7 22 -11 29 -8 19 7
80 -21 72 -33 -8 -13 -65 -13 -65 1 0 5 4 8 9 4 5 -3 12 -1 16 5 7 11 -5 13
-29 4 -9 -3 -16 -14 -16 -23 -1 -11 -5 -8 -15 9 l-14 25 -1 -27 c0 -16 -5 -28
-11 -28 -5 0 -8 4 -5 9 11 17 -5 39 -25 34 -16 -4 -19 0 -19 25 0 25 -3 29
-19 25 -13 -3 -18 -10 -14 -21 4 -10 2 -13 -5 -8 -7 4 -12 1 -13 -6 0 -10 -2
-10 -6 0 -8 20 -26 14 -20 -8 3 -11 1 -20 -4 -20 -5 0 -9 8 -10 18 0 10 -3 12
-6 4 -2 -6 -9 -10 -14 -6 -5 3 -9 -2 -9 -11 0 -25 30 -30 66 -10 30 16 34 16
48 2 23 -22 20 -28 -12 -25 -15 1 -34 -2 -42 -7 -8 -5 -45 -10 -82 -12 l-68
-3 -1 27 c-2 25 -2 25 -6 5 -4 -18 -10 -23 -31 -20 -20 2 -28 11 -34 36 -5 20
-18 37 -31 42 -17 7 -18 9 -4 9 9 1 17 6 17 11 0 6 -8 10 -17 10 -10 0 -30 7
-45 14 -16 8 -28 10 -28 5 0 -5 11 -14 25 -19 31 -12 33 -22 3 -11 -13 4 -27
18 -33 29 -5 12 -13 22 -18 22 -4 0 -5 5 -1 12 4 6 3 8 -3 5 -6 -4 -13 0 -17
8 -3 8 -1 15 5 15 6 0 8 4 4 9 -5 10 33 27 49 22 6 -1 19 2 30 8 59 28 86 27
86 -2z m-832 5 c8 -5 -1 -8 -22 -8 -19 1 -32 4 -29 9 6 9 35 9 51 -1z m639
-22 c-7 -33 38 -100 82 -122 31 -15 31 -17 9 -20 -16 -2 -25 -12 -29 -33 -4
-16 -7 -23 -8 -15 -1 13 -2 13 -11 0 -8 -13 -10 -12 -10 3 0 9 4 17 9 17 15 0
6 32 -13 42 -22 12 -36 1 -16 -12 13 -8 13 -10 -1 -10 -21 0 -59 33 -59 52 0
8 5 19 12 26 9 9 9 12 -3 12 -8 0 -15 9 -15 20 0 16 11 9 48 -32 26 -29 47
-49 48 -44 0 15 -84 115 -98 116 -10 0 -10 3 0 14 7 8 23 14 36 13 20 -1 23
-6 19 -27z m-802 0 c3 -5 24 -10 45 -10 41 0 61 -14 34 -24 -9 -3 -28 -6 -44
-6 -16 0 -30 -5 -32 -12 -5 -15 -37 -3 -44 17 -11 27 27 58 41 35z m323 1 c8
-5 12 -17 10 -27 -3 -15 -11 -18 -38 -16 -19 1 -49 3 -67 5 -50 3 -51 17 -1
17 28 0 50 6 58 15 14 17 20 18 38 6z m377 -23 c-6 -16 -4 -20 7 -15 8 3 15
-1 15 -8 0 -9 -11 -13 -29 -12 -15 1 -28 6 -28 10 0 5 -4 5 -10 2 -5 -3 -10
-1 -10 4 0 6 9 11 20 11 11 0 20 7 20 15 0 8 5 15 11 15 6 0 8 -9 4 -22z
m-540 2 c-3 -5 -16 -10 -28 -9 -20 1 -20 2 3 9 14 4 26 8 28 9 2 1 0 -3 -3 -9z
m-20 -29 c-16 -7 -12 -10 21 -15 39 -7 43 -10 52 -49 6 -23 8 -54 5 -69 -5
-28 11 -40 20 -15 11 26 26 -15 16 -42 -21 -55 -41 -63 -64 -27 -12 17 -13 30
-6 49 8 19 6 28 -5 38 -11 9 -14 22 -10 41 8 38 -2 58 -29 58 -14 0 -25 7 -28
20 -4 16 0 20 21 19 24 0 25 -1 7 -8z m530 -21 c17 0 25 -4 19 -8 -6 -4 -13
-15 -17 -25 -9 -23 -28 -12 -20 11 4 13 2 13 -10 -3 -15 -18 -16 -18 -17 -2 0
9 -5 17 -11 17 -5 0 -7 -4 -4 -10 3 -5 2 -10 -3 -10 -12 0 -23 26 -14 35 4 3
16 4 27 1 11 -3 34 -6 50 -6z m525 -4 c0 -2 -9 -6 -20 -9 -11 -3 -18 -1 -14 4
5 9 34 13 34 5z m-1092 -15 c9 -5 26 -13 37 -17 19 -7 19 -7 2 -11 -29 -7 -67
6 -67 22 0 17 4 18 28 6z m619 -7 c-3 -3 -12 -4 -19 -1 -8 3 -5 6 6 6 11 1 17
-2 13 -5z m13 -38 c0 -21 -10 -25 -41 -16 -37 11 -38 -5 -1 -18 27 -10 27 -10
-10 -11 -20 -1 -38 4 -40 10 -6 17 -79 19 -85 3 -3 -8 -11 -14 -19 -14 -8 0
-11 -7 -8 -17 5 -16 3 -15 -10 1 -9 11 -19 16 -23 12 -4 -4 -3 -10 3 -14 6 -4
14 -15 17 -26 7 -16 14 -18 60 -12 28 3 63 6 76 6 16 0 21 4 17 15 -4 10 1 15
14 15 12 0 20 -7 21 -17 0 -15 2 -15 9 2 5 11 9 15 9 8 1 -9 20 -11 69 -8 l67
4 -60 -9 c-33 -4 -87 -20 -118 -34 -103 -45 -156 -42 -198 11 -13 17 -13 17 7
1 30 -26 73 -30 124 -13 l45 15 -40 -7 c-61 -10 -93 -7 -114 11 -10 9 -25 14
-34 10 -10 -3 -20 2 -26 15 -16 29 -14 34 10 28 21 -6 64 15 85 41 7 10 30 13
81 10 49 -2 69 0 66 8 -3 7 5 10 21 7 14 -3 26 -11 26 -17z m-592 -14 c2 -7
-2 -10 -10 -8 -7 2 -26 7 -41 10 -15 4 -25 10 -23 15 8 12 69 -2 74 -17z m812
-26 c0 -13 3 -31 6 -40 5 -13 -2 -16 -35 -16 -40 0 -41 1 -41 33 0 41 5 47 42
47 23 0 28 -4 28 -24z m-825 4 c4 -6 -5 -9 -19 -8 -15 1 -26 6 -26 10 0 12 38
10 45 -2z m685 -16 c0 -8 -4 -12 -10 -9 -5 3 -10 10 -10 16 0 5 5 9 10 9 6 0
10 -7 10 -16z m-455 -4 c4 -7 -3 -8 -22 -4 -38 9 -42 14 -10 14 14 0 29 -5 32
-10z m275 3 c0 -5 -5 -15 -10 -23 -8 -12 -10 -12 -10 5 -1 20 -1 20 -15 1 -15
-19 -15 -19 -15 2 0 17 6 22 25 22 14 0 25 -3 25 -7z m120 -9 c0 -8 -4 -12
-10 -9 -5 3 -10 10 -10 16 0 5 5 9 10 9 6 0 10 -7 10 -16z m700 0 c0 -8 -4
-12 -10 -9 -5 3 -10 10 -10 16 0 5 5 9 10 9 6 0 10 -7 10 -16z m-880 -1 c0 -5
-5 -15 -10 -23 -8 -12 -10 -11 -10 8 0 12 5 22 10 22 6 0 10 -3 10 -7z m-447
-10 c-7 -2 -21 -2 -30 0 -10 3 -4 5 12 5 17 0 24 -2 18 -5z m167 -52 c0 -44
-4 -62 -17 -72 -17 -13 -17 -13 -3 5 14 18 13 18 -10 11 l-25 -8 20 23 20 24
-25 -17 c-38 -26 -41 -20 -9 14 16 17 29 42 29 55 0 13 5 24 10 24 6 0 10 -26
10 -59z m132 42 c10 -9 18 -22 18 -30 0 -7 6 -13 13 -14 6 0 3 -4 -8 -9 -19
-8 -19 -9 2 -9 12 -1 25 -6 29 -12 5 -9 -2 -10 -22 -6 -26 6 -27 5 -7 -4 27
-14 38 -49 15 -49 -13 0 -12 -3 4 -15 16 -12 17 -14 2 -15 -9 0 -29 22 -47 55
-36 63 -38 75 -13 76 14 0 14 2 -3 9 -12 5 -14 9 -6 9 11 1 10 5 -5 16 -13 10
-15 14 -5 15 8 0 23 -7 33 -17z m978 7 c0 -5 -7 -7 -15 -4 -8 4 -15 1 -15 -6
0 -7 -6 -10 -14 -7 -8 3 -17 3 -21 -1 -4 -4 -48 -7 -98 -8 -54 -1 -84 2 -72 7
11 4 48 8 82 8 34 1 65 6 68 11 8 13 85 13 85 0z m-1046 -6 c22 -8 21 -44 -1
-44 -16 -1 -16 -2 1 -15 19 -15 19 -15 -5 -16 -20 -1 -18 -3 11 -12 l35 -10
-30 -7 -30 -7 35 -5 35 -5 -37 -1 c-21 -1 -38 -6 -38 -12 0 -5 8 -9 18 -8 35
3 72 -2 72 -10 0 -4 -19 -7 -42 -5 -39 2 -40 1 -13 -6 l30 -9 -30 -1 c-30 -2
-29 -2 10 -16 22 -8 41 -15 43 -15 1 0 2 -4 2 -10 0 -6 -9 -6 -26 0 -14 6 -33
10 -42 9 -9 0 -3 -6 15 -12 41 -15 56 -32 21 -23 -14 3 -33 9 -42 12 -9 3 -16
2 -16 -3 0 -5 14 -13 32 -18 17 -6 34 -16 36 -24 3 -10 0 -12 -13 -8 -9 4 -29
9 -43 12 -19 4 -16 1 11 -11 20 -9 37 -20 37 -25 0 -11 -3 -11 -34 1 -14 5
-26 6 -26 1 0 -5 11 -12 25 -15 14 -4 25 -11 25 -17 0 -7 -10 -9 -25 -5 -14 4
-25 2 -25 -4 0 -5 9 -10 19 -10 32 0 35 -20 4 -21 l-28 -1 33 -10 c39 -13 41
-25 5 -31 -26 -4 -26 -4 5 -6 36 -1 44 -20 10 -22 -23 -2 -23 -2 1 -6 13 -3
37 -13 54 -24 l32 -19 -38 2 c-20 1 -37 5 -37 10 0 5 -9 7 -19 3 -15 -4 -24 1
-34 22 -34 67 -44 178 -30 351 6 81 7 83 30 78 31 -8 29 0 -4 18 -28 15 -12
23 21 10z m1179 -23 c11 -11 -2 -41 -18 -41 -18 0 -32 -51 -39 -142 -5 -66 -3
-79 12 -87 16 -10 16 -10 -1 -11 -10 0 -15 -4 -12 -10 3 -5 18 -10 33 -10 21
0 24 2 12 10 -13 8 -12 10 3 10 10 0 17 -8 17 -20 0 -17 -5 -19 -32 -14 -54 9
-57 11 -51 36 3 13 -15 -5 -41 -42 -32 -46 -55 -94 -77 -162 -30 -97 -50 -130
-64 -107 -4 6 -1 15 6 20 11 7 10 11 -6 23 -20 15 -20 15 3 9 32 -8 27 4 -10
23 -20 11 -28 19 -20 22 8 2 19 -1 25 -7 14 -14 27 -14 27 0 0 5 -16 17 -36
25 -20 8 -34 18 -30 21 3 3 19 0 36 -7 50 -21 46 -3 -5 19 -38 17 -45 24 -36
35 9 10 22 11 58 5 25 -5 48 -7 51 -4 5 5 -2 8 -58 24 -32 10 -30 10 18 5 36
-3 52 -1 47 6 -3 5 -17 10 -30 10 -13 0 -26 4 -29 9 -3 5 16 7 42 5 l47 -4
-40 13 c-24 8 -35 16 -28 20 6 4 23 3 38 -3 35 -13 38 -13 31 5 -4 10 2 19 17
26 18 8 14 9 -21 5 -30 -3 -40 -1 -35 7 4 7 8 17 9 24 1 6 7 28 14 48 7 20 9
39 5 43 -4 4 -10 1 -12 -6 -3 -6 -9 -10 -14 -6 -14 8 -11 24 6 24 8 0 15 5 15
10 0 6 -6 10 -12 10 -9 0 -10 2 -2 8 6 4 14 17 18 30 4 12 14 22 22 22 8 0 14
5 14 11 0 6 -9 8 -22 4 -16 -5 -13 0 10 14 18 12 36 21 41 21 9 0 -29 -123
-54 -177 -17 -36 -19 -57 -5 -48 6 3 7 -1 4 -9 -5 -12 1 -16 22 -16 23 0 26 2
14 10 -10 6 -11 10 -2 10 6 0 12 5 12 10 0 6 -9 10 -20 10 -11 0 -20 4 -20 10
0 5 15 7 33 4 31 -4 31 -4 7 7 l-25 12 30 6 30 7 -25 8 -25 8 25 7 c24 7 24 7
5 19 -19 11 -19 11 -1 12 15 0 16 3 6 15 -10 12 -9 15 5 15 13 0 16 6 13 25
-3 14 -1 28 4 31 4 3 6 9 3 14 -6 10 23 22 36 14 5 -3 9 0 9 5 0 6 -12 11 -26
11 -15 0 -23 4 -18 11 6 11 52 4 67 -10z m-483 -1 c0 -5 -7 -7 -15 -4 -8 4
-15 8 -15 10 0 2 7 4 15 4 8 0 15 -4 15 -10z m-904 -36 c-3 -8 -10 -12 -16 -9
-7 4 -6 14 2 28 12 24 24 8 14 -19z m711 -11 c-3 -10 -5 -2 -5 17 0 19 2 27 5
18 2 -10 2 -26 0 -35z m87 -15 c3 -35 9 -130 12 -211 4 -82 10 -145 13 -140 4
4 2 99 -3 211 -6 111 -8 202 -5 202 6 0 25 -229 32 -375 2 -39 4 -27 5 34 1
52 4 92 6 90 3 -3 7 -76 9 -164 2 -88 2 -140 0 -115 -2 25 -9 50 -14 55 -13
13 -1 -106 12 -119 12 -13 -9 -36 -33 -36 -10 0 -17 -3 -15 -7 4 -8 -29 -45
-48 -53 -5 -3 -9 -8 -7 -12 1 -5 -2 -8 -8 -8 -5 0 -10 4 -10 9 0 6 -12 6 -32
0 -18 -5 -34 -9 -35 -9 -1 0 0 6 3 14 4 11 -1 14 -20 12 -14 -2 -26 1 -26 5 0
5 31 9 69 9 46 0 72 4 80 14 10 11 4 14 -36 14 -88 0 -133 6 -123 16 6 6 55 9
115 7 69 -2 105 1 105 8 0 6 -12 8 -29 5 -28 -6 -28 -5 -34 52 -8 73 0 85 9
15 13 -98 16 -42 5 101 -14 195 -21 438 -11 438 4 0 10 -28 14 -62z m139 -40
c3 -32 1 -48 -7 -48 -8 0 -8 -2 0 -8 15 -10 29 -212 15 -212 -6 0 -11 -4 -11
-10 0 -5 5 -9 11 -7 6 1 13 -8 15 -20 3 -16 -1 -23 -12 -23 -8 0 -12 -5 -9
-10 4 -6 10 -8 14 -6 4 3 8 -14 10 -36 2 -42 16 -78 35 -90 6 -4 7 -11 2 -15
-5 -4 -11 -2 -13 4 -3 8 -14 11 -31 7 -26 -6 -26 -6 -7 10 16 13 17 17 6 25
-8 5 -14 23 -15 40 0 17 -4 31 -8 31 -9 0 -3 104 7 121 6 9 3 11 -9 6 -11 -5
-15 -3 -10 5 12 19 13 79 2 72 -8 -5 -9 6 -6 34 5 34 3 41 -13 45 -10 3 -19
11 -19 17 0 10 3 10 15 0 12 -10 15 -10 15 3 0 8 3 23 7 33 4 12 3 15 -5 10
-16 -9 -15 7 0 22 9 9 8 12 -5 12 -9 0 -21 9 -27 20 -7 14 -7 20 0 20 5 0 10
-5 10 -11 0 -5 5 -7 11 -4 6 4 8 13 5 21 -3 8 -2 22 1 31 5 14 8 11 14 -12 4
-17 9 -51 12 -77z m35 71 c2 -13 8 -28 13 -34 6 -6 7 3 3 23 -4 19 -2 32 3 32
18 0 31 -103 28 -235 -2 -90 0 -113 5 -75 l8 55 -3 -67 c-1 -37 1 -65 6 -63
10 7 28 -81 22 -106 -3 -10 0 -19 6 -19 6 0 17 -13 26 -30 l16 -30 -36 0 c-26
0 -35 4 -35 16 0 14 3 14 15 4 9 -7 18 -10 22 -6 3 3 1 6 -6 6 -7 0 -9 5 -6
10 4 6 -6 10 -23 10 -28 0 -43 15 -42 43 1 7 8 1 16 -13 l15 -25 -7 30 c-13
62 -23 174 -25 295 l-3 125 -5 -95 c-6 -92 -6 -93 -13 -40 -4 30 -6 73 -4 95
2 38 -3 68 -20 109 -5 14 -3 17 7 14 8 -2 16 -15 17 -29z m497 10 c-3 -4 -14
-6 -25 -4 -12 2 -20 -2 -20 -10 0 -8 -4 -16 -9 -19 -13 -8 -8 19 7 37 13 15
56 12 47 -4z m-871 -36 c-6 -49 -9 -85 -14 -163 l-3 -45 -7 40 c-3 22 -6 -22
-6 -100 1 -142 -7 -215 -24 -215 -6 0 -6 10 0 26 12 31 13 44 2 44 -5 0 -14
-18 -21 -40 -6 -21 -16 -42 -21 -45 -5 -3 0 19 11 50 10 30 19 67 18 82 -1 20
-5 11 -14 -26 -19 -76 -45 -130 -66 -136 -9 -3 -34 -17 -53 -30 -47 -32 -46
-20 2 21 33 28 43 46 63 116 13 46 25 75 27 66 2 -9 -8 -49 -22 -89 -14 -40
-21 -68 -16 -63 5 5 19 36 31 69 17 48 22 88 25 200 3 100 1 136 -7 125 -15
-22 -1 77 17 115 l14 30 -3 -32 c-2 -18 0 -33 5 -33 4 0 8 11 8 24 0 27 24 56
46 56 12 0 13 -10 8 -47z m76 12 c-14 -17 -40 -9 -40 14 1 14 2 14 14 -2 13
-16 14 -16 20 5 5 15 9 18 13 10 3 -7 0 -19 -7 -27z m69 -140 c-1 -97 1 -179
5 -182 3 -4 7 77 8 178 1 183 1 183 8 69 12 -177 15 -358 7 -366 -4 -4 -7 -34
-7 -66 l0 -58 -40 0 c-35 0 -40 3 -39 23 1 17 2 18 6 4 2 -9 9 -15 14 -12 12
8 12 72 -1 80 -12 8 -13 55 -1 55 16 0 20 45 21 242 1 176 4 208 17 208 2 0 3
-79 2 -175z m98 138 c-3 -10 -5 -4 -5 12 0 17 2 24 5 18 2 -7 2 -21 0 -30z
m652 -2 c-15 -5 -22 6 -14 19 6 9 10 9 16 -1 5 -8 4 -15 -2 -18z m24 -26 c40
-28 80 -96 83 -143 l4 -47 -16 42 c-16 44 -75 104 -82 84 -2 -6 6 -23 17 -37
21 -27 28 -54 14 -53 -17 1 -73 83 -73 106 0 13 -4 21 -10 18 -5 -3 -10 2 -10
12 -1 17 -2 17 -15 -1 -17 -23 -20 -4 -4 25 8 17 16 19 42 13 18 -3 40 -12 50
-19z m-1537 -4 c0 -11 -4 -17 -8 -15 -10 7 -10 34 0 34 4 0 8 -9 8 -19z m34
-1 c0 -11 -4 -20 -9 -20 -6 0 -9 9 -8 20 1 11 5 20 9 20 4 0 8 -9 8 -20z m669
3 c3 -221 -6 -406 -21 -412 -6 -2 -5 -7 2 -11 9 -6 10 -18 4 -46 -8 -30 -16
-40 -44 -50 -44 -16 -90 -17 -90 -3 0 7 11 8 30 4 33 -7 39 1 13 20 -15 11
-15 15 -4 29 7 9 18 16 23 16 6 0 5 -7 -2 -15 -17 -21 0 -18 29 4 l24 18 -27
7 c-22 5 -26 12 -26 40 0 41 8 66 22 66 6 0 8 -7 4 -15 -7 -19 -1 -19 18 1 17
17 22 39 7 30 -5 -4 -16 -3 -25 0 -17 7 -21 63 -7 99 8 19 8 19 19 -2 15 -28
15 -36 0 -27 -8 5 -9 2 -5 -9 4 -10 2 -17 -5 -17 -7 0 -6 -5 2 -15 18 -22 39
3 34 43 -3 20 0 31 5 27 5 -3 9 3 8 14 -1 16 -6 19 -29 14 -17 -3 -28 -1 -28
6 0 6 11 11 24 11 27 0 47 21 27 28 -9 3 -9 7 0 18 15 18 7 27 -14 18 -9 -3
-15 -13 -14 -22 1 -10 -1 -18 -5 -19 -5 -2 -8 -1 -8 2 0 3 0 17 0 31 0 16 5
24 12 22 14 -5 41 60 32 74 -6 9 2 38 10 38 3 0 5 -8 5 -17z m-36 -19 c4 -23
3 -24 -10 -11 -9 8 -12 20 -9 26 10 16 13 14 19 -15z m204 -41 c-2 -16 -4 -5
-4 22 0 28 2 40 4 28 2 -13 2 -35 0 -50z m524 44 c-10 -9 -11 -8 -5 6 3 10 9
15 12 12 3 -3 0 -11 -7 -18z m25 -12 c-10 -50 1 -78 26 -72 16 5 17 3 6 -10
-11 -13 -14 -12 -30 7 -19 23 -22 49 -12 88 10 35 17 26 10 -13z m-1293 -36
c-16 -7 -16 -8 2 -9 l20 -1 -20 -9 c-17 -7 -17 -9 -2 -9 9 -1 17 -5 17 -11 0
-5 -7 -7 -15 -4 -8 4 -15 1 -15 -5 0 -6 8 -11 18 -11 14 0 15 -2 2 -10 -10 -6
-11 -10 -2 -10 16 0 11 -23 -8 -31 -12 -5 -9 -9 10 -17 21 -9 22 -11 5 -12
-17 0 -17 -2 -5 -10 13 -8 13 -10 -2 -10 -24 0 -26 6 -32 90 -4 53 -2 76 7 83
9 7 9 10 0 14 -7 2 -13 10 -13 16 0 6 11 0 25 -13 24 -22 24 -25 8 -31z m537
0 c0 -5 -4 -9 -10 -9 -5 0 -10 7 -10 16 0 8 5 12 10 9 6 -3 10 -10 10 -16z
m-363 -15 c-3 -3 -12 -4 -19 -1 -8 3 -5 6 6 6 11 1 17 -2 13 -5z m1097 -10 c9
-24 7 -28 -9 -14 -17 14 -20 30 -6 30 5 0 12 -7 15 -16z m-1044 -19 c0 -8 -8
-15 -17 -16 -12 -1 -10 -4 7 -9 l25 -8 -27 -1 c-29 -1 -33 5 -22 33 8 20 34
21 34 1z m850 -5 c8 -5 11 -12 7 -16 -4 -4 -15 0 -24 9 -18 18 -8 23 17 7z
m280 -18 c-8 -3 -27 -18 -42 -34 -29 -31 -41 -27 -27 10 5 13 17 22 29 22 11
0 23 7 27 16 4 12 8 13 17 3 8 -8 7 -13 -4 -17z m-560 -33 c0 -16 -4 -29 -10
-29 -5 0 -10 16 -10 36 0 21 4 33 10 29 6 -3 10 -19 10 -36z m460 32 c0 -6 -4
-13 -10 -16 -5 -3 -10 1 -10 9 0 9 5 16 10 16 6 0 10 -4 10 -9z m-180 -21 c0
-13 -52 -22 -63 -11 -8 8 -4 11 11 11 12 0 22 4 22 10 0 5 7 7 15 4 8 -4 15
-10 15 -14z m-745 0 c3 -5 1 -10 -4 -10 -6 0 -11 5 -11 10 0 6 2 10 4 10 3 0
8 -4 11 -10z m-336 -183 c43 -122 118 -223 179 -242 12 -3 22 -10 22 -14 0
-14 -59 -51 -65 -41 -3 6 -12 10 -18 10 -7 0 -4 -7 6 -14 16 -13 14 -17 -33
-59 -47 -42 -50 -48 -50 -92 0 -38 4 -48 20 -52 14 -4 20 -14 21 -37 0 -17 2
-77 4 -133 3 -64 0 -103 -6 -103 -5 0 -28 9 -50 21 -23 11 -43 18 -47 15 -3
-3 17 -16 45 -28 l51 -23 6 -59 c11 -110 8 -135 -18 -147 -18 -9 -30 -7 -55 5
-29 16 -31 20 -31 75 0 51 -3 59 -21 64 -21 6 -21 9 -15 189 3 101 5 264 6
362 l0 180 32 -33 c35 -36 88 -67 88 -52 0 6 -10 15 -22 22 -13 6 -40 27 -60
47 l-38 36 1 146 c1 106 4 131 9 95 4 -27 21 -90 39 -138z m224 176 c-7 -2
-21 -2 -30 0 -10 3 -4 5 12 5 17 0 24 -2 18 -5z m1222 -23 c11 0 15 5 11 15
-3 8 -1 15 4 15 6 0 10 -9 10 -20 0 -42 -61 -36 -68 6 -3 18 -2 18 11 2 8 -10
22 -18 32 -18z m-1235 2 l-35 -5 30 -7 30 -8 -32 -1 c-23 -1 -33 4 -33 14 0
11 10 15 38 13 l37 -1 -35 -5z m1060 -2 c0 -5 -2 -10 -4 -10 -3 0 -8 5 -11 10
-3 6 -1 10 4 10 6 0 11 -4 11 -10z m-211 -16 c2 -2 2 -7 -1 -10 -4 -3 -19 2
-35 11 l-28 16 30 -6 c16 -4 32 -9 34 -11z m-259 -41 c0 -32 -13 -22 -18 13
-2 16 1 23 8 19 5 -3 10 -18 10 -32z m600 24 c0 -7 -5 -18 -12 -25 -9 -9 -9
-15 0 -24 15 -15 15 -68 -1 -89 -15 -20 -57 -31 -57 -16 0 22 53 167 62 167 4
0 8 -6 8 -13z m-365 -7 c8 -13 -15 -13 -35 0 -12 8 -11 10 7 10 12 0 25 -4 28
-10z m-735 -10 c0 -5 -4 -10 -10 -10 -5 0 -10 5 -10 10 0 6 5 10 10 10 6 0 10
-4 10 -10z m1337 -12 c-3 -8 -6 -5 -6 6 -1 11 2 17 5 13 3 -3 4 -12 1 -19z
m-1467 -8 c0 -11 -4 -20 -10 -20 -5 0 -10 9 -10 20 0 11 5 20 10 20 6 0 10 -9
10 -20z m68 13 c-10 -2 -26 -2 -35 0 -10 3 -2 5 17 5 19 0 27 -2 18 -5z m1216
1 c9 -3 16 -13 16 -21 0 -10 -6 -13 -16 -9 -9 3 -24 6 -35 6 -10 0 -19 7 -19
15 0 15 26 20 54 9z m-1431 -11 c-7 -2 -19 -2 -25 0 -7 3 -2 5 12 5 14 0 19
-2 13 -5z m347 -3 c12 -8 9 -10 -12 -10 -16 0 -28 5 -28 10 0 13 20 13 40 0z
m237 -22 c-3 -7 -5 -2 -5 12 0 14 2 19 5 13 2 -7 2 -19 0 -25z m662 16 c2 -2
-14 -4 -37 -4 -22 0 -44 5 -47 10 -6 10 73 3 84 -6z m-1024 -1 c-11 -3 -25 -9
-32 -15 -7 -5 -13 -5 -17 0 -9 15 5 22 38 21 21 -1 25 -3 11 -6z m-210 -13 c3
-6 -4 -10 -17 -10 -18 0 -20 2 -8 10 19 12 18 12 25 0z m965 0 c0 -5 -11 -10
-25 -10 -14 0 -25 5 -25 10 0 6 11 10 25 10 14 0 25 -4 25 -10z m310 0 c0 -5
-5 -10 -11 -10 -5 0 -7 -4 -4 -10 3 -5 -1 -10 -10 -10 -9 0 -13 -4 -10 -10 3
-6 -1 -7 -9 -4 -9 3 -16 1 -16 -5 0 -6 5 -11 12 -11 6 0 9 -2 6 -5 -3 -3 -13
-3 -22 1 -15 6 -13 11 15 40 33 35 49 42 49 24z m-135 -8 c-18 -13 -16 -40 2
-45 11 -3 8 -5 -9 -6 -16 0 -28 4 -28 10 0 19 20 49 33 49 7 0 8 -3 2 -8z
m265 -37 c0 -33 4 -45 15 -45 18 0 18 1 4 -39 -8 -23 -17 -31 -36 -31 -23 0
-24 2 -18 38 4 20 9 56 12 80 7 56 23 54 23 -3z m-1060 31 c0 -2 -9 -6 -20 -9
-11 -3 -20 -1 -20 4 0 5 9 9 20 9 11 0 20 -2 20 -4z m432 -26 c5 -32 -3 -38
-21 -16 -9 11 -9 15 1 19 10 4 10 8 -2 16 -13 9 -13 11 1 11 11 0 18 -11 21
-30z m425 24 c-3 -3 -12 -4 -19 -1 -8 3 -5 6 6 6 11 1 17 -2 13 -5z m84 -25
c-9 -22 -10 -22 -10 -3 -1 11 2 24 6 27 12 12 14 0 4 -24z m-1286 11 c-3 -5
-11 -10 -16 -10 -6 0 -7 5 -4 10 3 6 11 10 16 10 6 0 7 -4 4 -10z m1175 -10
c0 -5 -7 -7 -15 -4 -8 4 -15 8 -15 10 0 2 7 4 15 4 8 0 15 -4 15 -10z m-1010
-4 c0 -11 -19 -15 -25 -6 -3 5 1 10 9 10 9 0 16 -2 16 -4z m170 0 c0 -3 -4 -8
-10 -11 -5 -3 -10 -1 -10 4 0 6 5 11 10 11 6 0 10 -2 10 -4z m-90 -26 c0 -5
-4 -10 -10 -10 -5 0 -10 5 -10 10 0 6 5 10 10 10 6 0 10 -4 10 -10z m607 -12
c-3 -8 -6 -5 -6 6 -1 11 2 17 5 13 3 -3 4 -12 1 -19z m-827 2 c0 -5 -8 -10
-17 -10 -15 0 -16 2 -3 10 19 12 20 12 20 0z m153 3 c-7 -2 -19 -2 -25 0 -7 3
-2 5 12 5 14 0 19 -2 13 -5z m967 -9 c0 -2 -11 -4 -25 -4 -14 0 -25 4 -25 9 0
4 11 6 25 3 14 -2 25 -6 25 -8z m-380 -8 c0 -8 3 -22 7 -32 4 -11 3 -15 -4
-11 -13 8 -23 57 -12 57 5 0 9 -6 9 -14z m-454 -23 c-10 -10 -19 5 -10 18 6
11 8 11 12 0 2 -7 1 -15 -2 -18z m885 14 c-1 -12 -15 -9 -19 4 -3 6 1 10 8 8
6 -3 11 -8 11 -12z m-1166 -7 c-3 -5 -12 -10 -18 -10 -7 0 -6 4 3 10 19 12 23
12 15 0z m1085 0 c12 -8 11 -10 -7 -10 -13 0 -23 5 -23 10 0 13 11 13 30 0z
m120 -19 c0 -6 -5 -13 -10 -16 -6 -4 -8 -11 -5 -16 4 -5 -1 -9 -9 -9 -19 0
-21 21 -4 38 14 14 28 16 28 3z m80 -21 c0 -23 -4 -28 -17 -24 -16 5 -16 4 0
-10 18 -14 19 -33 14 -367 -3 -252 -7 -354 -16 -357 -6 -2 -11 -27 -11 -62 l0
-58 -46 -26 c-44 -25 -47 -25 -60 -9 -7 10 -14 23 -14 29 0 5 -11 39 -25 75
-23 56 -26 83 -31 225 -4 138 -3 164 10 177 9 9 16 20 16 26 0 7 8 7 26 1 36
-14 98 4 118 35 22 33 20 42 -11 57 -29 14 -35 30 -52 137 l-11 73 35 42 c20
22 40 47 46 54 17 21 29 13 29 -18z m225 -12 c-28 -216 -38 -259 -64 -279 -24
-19 -25 -22 -10 -47 20 -37 56 -54 104 -49 l40 4 -2 -91 c-1 -50 -4 -120 -7
-156 -2 -36 -5 -77 -5 -92 l-1 -27 -122 0 -123 -1 2 73 c2 47 0 65 -6 52 -5
-11 -6 -33 -4 -50 2 -16 0 -41 -6 -55 -8 -18 -10 56 -6 280 7 461 7 477 12
453 2 -12 11 -27 19 -33 8 -7 14 -30 14 -52 0 -32 3 -39 18 -36 11 2 18 14 20
38 1 19 7 44 11 55 5 11 12 28 15 38 4 13 17 17 56 17 l50 0 -5 -42z m-1490
22 c-3 -5 -13 -10 -21 -10 -8 0 -12 5 -9 10 3 6 13 10 21 10 8 0 12 -4 9 -10z
m215 6 c0 -2 -9 -6 -20 -9 -11 -3 -20 -1 -20 4 0 5 9 9 20 9 11 0 20 -2 20 -4z
m840 -6 c12 -8 11 -10 -7 -10 -13 0 -23 5 -23 10 0 13 11 13 30 0z m73 -22
c-8 -46 -13 -48 -13 -5 0 21 4 37 10 37 5 0 7 -14 3 -32z m-1097 -4 c-23 -16
-50 -19 -41 -3 8 12 48 29 55 22 3 -3 -4 -11 -14 -19z m110 -26 c4 -14 -2 -29
-22 -49 -33 -35 -13 -40 25 -6 l26 22 -24 -27 c-12 -14 -20 -31 -16 -37 10
-16 -7 -13 -32 7 l-23 17 30 32 c28 29 32 63 9 63 -5 0 -9 5 -9 11 0 17 28 -9
36 -33z m593 18 c-1 -18 -17 -52 -20 -41 -8 34 -4 62 8 58 7 -3 13 -10 12 -17z
m361 4 c0 -5 -4 -10 -10 -10 -5 0 -10 5 -10 10 0 6 5 10 10 10 6 0 10 -4 10
-10z m-1026 -34 c-16 -14 -33 -26 -38 -26 -5 0 6 13 25 29 18 17 35 28 37 26
3 -2 -9 -15 -24 -29z m21 -16 c-16 -16 -32 -30 -37 -30 -8 0 53 59 61 60 3 0
-8 -13 -24 -30z m980 14 c-9 -9 -18 -14 -21 -11 -9 9 6 27 22 27 13 0 13 -2
-1 -16z m272 -26 c-3 -7 -5 -2 -5 12 0 14 2 19 5 13 2 -7 2 -19 0 -25z m-247
-8 c0 -12 -7 -20 -16 -20 -10 0 -14 -6 -11 -14 4 -11 1 -13 -11 -9 -15 6 -16
5 -2 -12 14 -17 13 -18 -8 -12 -17 4 -22 2 -18 -8 6 -16 -21 -28 -30 -14 -5 8
67 90 94 107 1 1 2 -7 2 -18z m480 -12 c0 -25 -3 -29 -10 -18 -13 20 -13 50 0
50 6 0 10 -15 10 -32z m-1240 12 c0 -5 -4 -10 -9 -10 -6 0 -13 5 -16 10 -3 6
1 10 9 10 9 0 16 -4 16 -10z m1175 -187 c-3 -15 -13 -23 -26 -23 -15 0 -19 5
-15 18 3 9 10 46 16 82 19 114 25 121 28 30 2 -47 0 -95 -3 -107z m-765 172
c0 -3 -9 -14 -19 -24 -17 -17 -20 -17 -25 -4 -3 8 -4 19 0 24 5 9 44 13 44 4z
m290 1 c0 -2 -7 -9 -15 -16 -13 -11 -14 -10 -9 4 5 14 24 23 24 12z m-758 -36
c-16 -14 -34 -43 -40 -65 -14 -49 -22 -146 -12 -140 12 8 20 -37 13 -78 -7
-43 -16 -53 -35 -34 -7 7 -20 16 -29 19 -12 5 -18 23 -21 64 -6 72 -1 95 20
87 12 -5 14 -1 10 15 -4 15 0 25 10 32 14 8 12 9 -12 10 -21 0 -27 -4 -22 -15
3 -8 1 -15 -4 -15 -16 0 -12 27 6 45 14 13 19 14 25 3 8 -12 13 -4 10 15 0 4
5 7 12 7 6 0 20 14 29 30 9 17 13 30 7 30 -6 0 -7 5 -4 10 4 6 20 9 36 8 l30
-2 -29 -26z m589 6 c6 3 19 -2 31 -12 l20 -19 -24 -6 c-17 -4 -27 1 -39 20 -9
14 -14 31 -10 36 3 6 7 2 9 -8 2 -9 8 -14 13 -11z m698 -148 c1 -12 -6 -18
-19 -18 -23 0 -25 22 -13 131 l7 64 12 -80 c7 -44 13 -88 13 -97z m-883 125
c-10 -10 -19 5 -10 18 6 11 8 11 12 0 2 -7 1 -15 -2 -18z m480 -80 c6 -48 5
-55 -10 -51 -9 1 -17 6 -17 11 1 4 1 40 2 80 1 80 12 62 25 -40z m-326 75 c31
-33 26 -48 -17 -47 -35 0 -36 1 -15 11 12 6 22 15 22 20 0 17 -45 -4 -79 -38
-19 -19 -40 -34 -47 -34 -18 0 -62 -95 -78 -170 -8 -36 -23 -87 -35 -113 -24
-55 -25 -61 -11 -52 16 10 12 -18 -9 -59 -15 -29 -16 -36 -5 -32 9 3 14 -1 14
-14 0 -11 -4 -20 -10 -20 -5 0 -10 -5 -10 -11 0 -5 5 -7 10 -4 6 3 10 -1 10
-9 0 -9 -5 -16 -12 -16 -8 0 -9 -3 -2 -10 7 -7 8 -30 2 -67 -5 -30 -7 -58 -4
-60 12 -13 27 47 36 149 12 144 34 301 49 356 11 37 14 41 31 32 11 -6 32 -8
47 -5 23 4 24 4 8 -4 -11 -5 -33 -10 -48 -10 -16 -1 -26 -5 -22 -10 3 -5 22
-8 43 -5 28 3 32 2 17 -5 -11 -5 -30 -10 -42 -10 -13 -1 -23 -5 -23 -11 0 -13
17 -12 65 5 22 8 43 15 48 15 15 0 6 -17 -15 -29 -22 -11 -22 -11 3 -6 22 4
27 1 31 -20 4 -19 1 -25 -13 -25 -10 0 -21 -5 -25 -11 -5 -9 1 -10 20 -5 32 8
35 -7 4 -22 -23 -11 -23 -11 3 -11 24 -1 27 -6 33 -48 10 -77 26 -296 23 -318
-1 -12 5 -21 18 -23 17 -4 18 -2 5 13 -8 10 -10 19 -4 23 11 9 16 82 4 82 -4
0 -8 20 -8 45 1 25 5 45 10 45 16 0 8 20 -9 21 -17 1 -17 2 0 6 9 2 17 8 17
13 0 5 -7 7 -15 4 -21 -8 -19 16 3 33 16 14 16 14 0 9 -10 -3 -18 -3 -18 1 0
3 8 12 18 20 16 14 16 14 0 9 -24 -7 -32 11 -11 23 17 10 17 10 1 11 -10 0
-18 5 -18 10 0 6 8 11 18 11 16 1 16 2 0 6 -19 5 -25 23 -8 23 6 0 10 5 10 11
0 6 -7 9 -14 6 -16 -6 -21 4 -31 71 -6 36 -10 43 -26 39 -10 -3 -18 -2 -17 2
4 34 -3 38 -47 33 -31 -3 -45 -1 -45 7 0 8 11 10 35 5 22 -4 35 -2 35 4 0 6
-12 13 -27 15 -27 4 -27 4 3 6 24 1 36 -5 48 -24 20 -30 42 -35 26 -6 -15 29
-13 36 15 37 21 2 24 -1 14 -12 -8 -9 -8 -14 -1 -14 13 0 43 41 37 50 -2 4
-25 7 -50 8 -34 0 -45 -3 -42 -13 4 -8 -3 -12 -19 -12 -13 0 -24 3 -24 8 0 5
6 9 14 9 7 0 19 7 26 15 7 9 21 13 34 9 14 -3 31 3 46 16 l25 22 5 -59 c5 -63
3 -75 -9 -54 -6 8 -11 9 -15 3 -3 -6 -2 -13 4 -17 5 -3 10 -15 10 -25 0 -19
37 -47 47 -36 3 3 2 13 -2 23 -5 10 -8 21 -7 24 0 3 -3 22 -8 42 -7 33 -5 39
16 56 28 22 31 36 9 45 -14 5 -19 -5 -16 -31 1 -7 -3 -13 -9 -13 -5 0 -10 8
-10 18 1 49 53 58 58 10 2 -19 -3 -31 -17 -40 -15 -9 -17 -15 -9 -25 16 -20
31 -16 25 7 -3 11 -1 20 3 20 12 0 23 -37 15 -50 -3 -5 -1 -10 5 -10 7 0 10
-6 7 -14 -3 -8 -1 -16 4 -18 5 -2 4 -12 -5 -23 -12 -16 -16 -17 -30 -6 -14 12
-16 11 -16 -8 0 -15 -6 -21 -23 -21 l-23 0 4 -271 c3 -150 1 -274 -4 -279 -5
-5 -17 -2 -28 6 -19 14 -19 14 2 14 12 0 22 4 22 8 0 12 -40 9 -41 -3 -1 -5 0
-39 1 -75 1 -52 8 -75 31 -113 26 -42 27 -48 11 -43 -11 4 -32 2 -47 -4 -20
-7 -31 -8 -39 0 -7 7 -1 10 18 10 15 0 25 4 21 10 -3 6 -15 10 -25 10 -10 0
-21 4 -25 9 -3 6 9 7 31 4 l37 -6 -22 22 c-16 16 -26 20 -33 13 -6 -6 -17 -8
-26 -5 -12 5 -14 1 -10 -20 3 -15 1 -27 -3 -27 -5 0 -9 7 -9 16 0 8 -4 12 -10
9 -5 -3 -10 -1 -10 4 0 6 -5 11 -11 11 -5 0 -8 -4 -5 -8 3 -5 -11 -9 -30 -10
-20 -1 -32 3 -29 8 3 6 13 10 21 10 8 0 12 5 9 10 -3 6 -15 10 -26 10 -22 0
-26 15 -4 23 16 7 55 87 54 114 0 13 -3 12 -11 -7 -30 -73 -58 -109 -85 -110
-7 0 -24 23 -39 51 -14 28 -20 48 -14 44 15 -10 39 12 56 53 16 40 18 52 5 52
-5 0 -15 -17 -21 -37 -14 -44 -30 -65 -30 -41 0 9 5 20 10 23 6 3 10 11 10 17
0 7 -5 6 -15 -2 -20 -16 -31 -7 -60 51 l-25 49 29 0 c17 0 33 5 36 10 4 6 -10
10 -34 10 -23 0 -41 5 -41 11 0 5 4 8 10 4 11 -7 60 4 60 14 0 4 -17 6 -37 4
l-38 -4 30 15 30 14 -40 1 c-30 1 -36 4 -27 13 13 13 16 32 4 24 -4 -2 -13 4
-20 15 -7 11 -8 19 -2 19 5 0 10 5 10 10 0 6 -7 10 -16 10 -13 0 -14 3 -5 14
9 11 9 15 0 18 -8 3 -9 9 -4 18 6 10 11 9 22 -5 17 -24 17 -6 -1 31 -29 60
-28 69 7 83 17 7 27 15 20 18 -7 2 -21 -1 -32 -7 -27 -14 -27 1 0 18 27 17 18
27 -10 12 -24 -13 -30 4 -6 18 16 8 11 42 -6 42 -13 0 -11 -18 4 -23 7 -3 6
-6 -5 -6 -24 -1 -34 20 -14 31 9 5 16 14 16 19 0 6 -4 7 -10 4 -6 -4 -7 1 -3
11 5 13 2 15 -16 9 -20 -6 -22 -4 -16 14 4 12 2 21 -4 21 -6 0 -8 7 -5 15 5
11 -1 15 -22 15 -22 0 -25 3 -16 12 17 17 15 28 -5 21 -11 -4 -14 -3 -9 5 4 7
12 12 17 12 14 0 91 -79 122 -126 15 -22 36 -50 47 -61 10 -12 16 -24 12 -29
-4 -4 1 -4 11 -1 12 4 17 1 18 -11 0 -10 3 -12 6 -4 9 22 25 13 17 -10 -6 -20
-5 -21 10 -9 20 17 20 13 0 -34 -8 -20 -14 -41 -12 -47 2 -5 14 15 27 46 l23
56 -24 20 -23 19 23 -6 c16 -4 22 -1 22 10 0 20 -19 26 -48 16 -28 -11 -52 1
-81 38 -14 16 -19 33 -15 46 5 14 2 19 -7 15 -17 -7 -54 38 -39 47 5 3 10 2
10 -3 0 -15 78 -24 103 -11 12 6 39 27 59 47 21 20 41 32 45 28 4 -4 0 -12
-10 -17 -9 -6 -15 -14 -12 -20 4 -5 -1 -9 -9 -9 -9 0 -15 -6 -13 -12 1 -7 -4
-12 -10 -11 -7 2 -13 -2 -13 -7 0 -5 -7 -10 -15 -10 -8 0 -15 -4 -15 -9 0 -8
-37 -24 -52 -22 -5 1 -8 -8 -8 -19 0 -11 4 -20 9 -20 5 0 17 -3 26 -7 14 -5
16 -2 10 15 -9 31 3 28 15 -3 5 -14 14 -25 20 -25 13 0 13 6 -1 32 -8 14 -8
23 0 31 8 8 11 6 11 -6 0 -25 22 -67 31 -61 5 3 9 0 9 -5 0 -6 4 -11 10 -11 5
0 7 6 4 13 -3 8 10 42 28 77 30 57 40 67 102 101 40 21 62 39 55 42 -10 4 -10
6 -2 6 7 1 21 -9 33 -21z m-60 8 c0 -11 -19 -15 -25 -6 -3 5 1 10 9 10 9 0 16
-2 16 -4z m-560 -10 c0 -11 -19 -15 -25 -6 -3 5 1 10 9 10 9 0 16 -2 16 -4z
m147 -11 c45 -19 64 -35 57 -46 -3 -5 -16 0 -29 13 -13 12 -38 28 -57 34 -18
7 -27 13 -20 13 7 1 29 -6 49 -14z m373 5 c0 -5 -4 -10 -10 -10 -5 0 -10 5
-10 10 0 6 5 10 10 10 6 0 10 -4 10 -10z m-30 -21 c0 -5 -4 -9 -10 -9 -5 0
-10 7 -10 16 0 8 5 12 10 9 6 -3 10 -10 10 -16z m-327 -27 c9 -8 17 -20 17
-25 0 -6 -11 0 -24 13 -17 15 -33 21 -50 18 -18 -4 -23 -1 -18 10 4 11 1 13
-8 7 -8 -5 -11 -4 -6 3 8 13 61 -3 89 -26z m697 -2 c0 -47 -9 -51 -32 -12 -16
26 -16 29 0 39 28 19 32 15 32 -27z m30 -64 c-9 -8 -10 -1 -5 32 5 30 3 42 -5
42 -9 0 -9 5 1 17 12 14 14 11 17 -32 2 -27 -2 -53 -8 -59z m-996 47 c-7 -21
-13 -46 -14 -55 0 -15 -9 -18 -52 -18 l-53 1 59 54 c32 30 62 55 66 55 4 0 2
-17 -6 -37z m566 27 c0 -5 -7 -10 -16 -10 -11 0 -14 -6 -9 -20 3 -11 2 -20 -4
-20 -20 0 -23 22 -5 41 19 21 34 25 34 9z m-125 -10 c3 -5 1 -10 -4 -10 -6 0
-11 5 -11 10 0 6 2 10 4 10 3 0 8 -4 11 -10z m481 -31 c21 -33 21 -35 3 -36
-13 -1 -24 10 -34 34 -18 43 -18 46 -3 41 6 -2 22 -20 34 -39z m-736 -20 c0
-5 -12 -9 -27 -9 -27 1 -27 1 -9 15 19 14 36 12 36 -6z m327 -9 c7 -10 9 -21
5 -24 -4 -2 -12 7 -19 20 -13 29 -3 32 14 4z m-271 -48 c4 -20 12 -48 19 -62
11 -21 55 -171 55 -185 0 -3 -7 -5 -15 -5 -18 0 -20 20 -2 21 6 0 1 5 -13 10
-20 8 -22 12 -10 20 13 8 13 10 0 19 -13 9 -13 11 0 20 14 9 7 15 -14 11 -5
-1 -4 4 3 13 8 10 9 16 1 21 -6 3 -8 10 -5 15 3 4 -2 10 -10 14 -8 3 -15 16
-15 28 0 27 -15 54 -23 41 -9 -15 30 -173 68 -273 35 -91 41 -130 11 -73 -16
31 -46 62 -46 46 0 -5 8 -19 17 -33 12 -17 13 -25 5 -28 -19 -6 -14 -21 6 -15
13 3 23 -7 39 -44 11 -26 32 -75 47 -108 22 -49 23 -56 7 -35 -12 14 -21 28
-21 33 0 4 -7 7 -16 7 -10 0 -14 6 -11 15 4 8 2 17 -4 20 -5 4 -7 11 -4 16 8
12 -6 11 -25 -1 -12 -7 -12 -10 -1 -10 7 0 11 -6 7 -15 -3 -8 -1 -15 5 -15 6
0 9 -7 5 -15 -3 -8 -1 -15 5 -15 6 0 9 -7 5 -15 -3 -8 -1 -15 4 -15 14 0 12
-27 -2 -33 -7 -3 -3 -6 10 -6 24 -1 31 -21 7 -21 -8 0 -15 -4 -15 -9 0 -5 9
-7 20 -4 25 7 26 -12 3 -26 -16 -9 -16 -10 -2 -11 13 0 18 -12 21 -47 2 -27 0
-50 -4 -51 -16 -7 3 -22 27 -22 13 0 27 -4 30 -10 3 -5 20 -10 38 -10 22 0 28
-3 20 -11 -8 -8 -21 -6 -47 6 -35 17 -70 17 -121 0 -14 -4 -12 -2 5 9 16 10
19 15 10 16 -9 0 -26 -7 -38 -16 -19 -13 -22 -13 -22 -1 0 8 7 17 15 21 15 5
22 36 8 36 -4 0 -16 -11 -28 -24 -15 -19 -25 -22 -40 -16 l-20 9 20 1 c16 1
15 4 -9 14 l-29 13 29 8 c26 7 27 8 9 15 -16 7 -16 9 -3 9 11 1 15 7 11 21 -7
25 -30 26 -36 3 -3 -10 -5 23 -6 72 -1 50 -7 110 -14 135 -7 25 -11 60 -9 78
3 27 7 32 28 32 14 0 23 4 20 9 -3 5 -15 7 -26 4 -17 -5 -20 0 -20 31 0 29 4
36 20 36 11 0 20 5 20 10 0 6 -9 10 -20 10 -11 0 -20 5 -20 10 0 6 9 10 20 10
11 0 20 5 20 11 0 6 -6 9 -14 6 -19 -7 -34 12 -42 52 -4 17 -10 34 -15 36 -15
10 -19 -14 -7 -42 7 -15 15 -89 19 -163 4 -74 10 -147 14 -162 6 -24 4 -28
-13 -28 -12 0 -24 5 -27 10 -3 6 1 10 9 10 9 0 16 9 16 20 0 12 -7 20 -16 20
-14 0 -14 3 -4 15 10 12 10 15 -4 15 -21 0 -20 9 2 26 16 13 16 13 -3 14 -19
1 -19 1 -2 14 18 14 18 15 0 25 -10 6 -12 11 -5 11 19 0 14 20 -5 20 -16 1
-16 2 2 16 19 14 19 15 -3 21 -21 5 -21 6 -5 19 17 13 17 13 -1 14 -20 0 -20
0 0 15 18 14 18 14 -6 15 -23 1 -24 2 -7 14 9 7 17 16 17 20 0 3 -8 7 -17 7
-17 1 -17 2 0 6 9 2 17 9 17 14 0 12 -7 11 -31 -1 -16 -9 -19 -7 -19 14 0 13
7 26 15 30 18 7 20 27 3 22 -7 -1 -10 -1 -5 1 4 3 7 12 7 21 1 15 2 15 11 0
14 -24 46 -23 59 3 7 11 9 23 6 26 -9 9 14 43 29 43 8 0 15 5 15 11 0 6 -9 8
-20 4 -14 -4 -20 -2 -20 9 0 9 6 13 14 10 9 -4 14 3 14 20 0 19 -6 26 -19 26
-11 0 -19 4 -19 9 0 4 13 8 30 7 16 -1 30 -4 30 -8 0 -5 5 -8 10 -8 6 0 10 7
10 16 0 28 19 4 26 -34z m256 -10 c-4 -11 -6 -11 -13 0 -5 7 -9 22 -9 32 0 19
0 19 14 1 8 -11 11 -25 8 -33z m398 18 c0 -5 -4 -10 -9 -10 -6 0 -13 5 -16 10
-3 6 1 10 9 10 9 0 16 -4 16 -10z m220 2 c0 -18 -26 -32 -57 -32 -40 0 -45 19
-5 22 15 1 -2 4 -38 8 l-65 7 83 1 c45 1 82 -2 82 -6z m294 -24 c-6 -10 -69
-2 -89 10 -5 4 4 9 20 12 33 7 78 -8 69 -22z m-1438 11 c3 -6 1 -16 -5 -22 -8
-8 -11 -6 -11 7 0 12 -5 16 -15 12 -8 -3 -15 -1 -15 4 0 14 37 13 46 -1z m921
-33 c-4 -9 1 -17 11 -19 16 -4 16 -5 0 -6 -19 -1 -32 14 -23 29 9 15 18 12 12
-4z m63 -16 c0 -5 -2 -10 -4 -10 -3 0 -8 5 -11 10 -3 6 -1 10 4 10 6 0 11 -4
11 -10z m-93 -34 c4 -7 15 -16 23 -19 9 -3 3 -6 -13 -6 -35 -1 -26 -21 11 -22
l27 -1 -30 -8 c-29 -7 -28 -9 15 -23 8 -3 -1 -6 -20 -8 l-35 -2 33 -6 c41 -8
42 -27 1 -22 -21 2 -29 -1 -25 -8 4 -6 18 -11 32 -11 14 0 22 -4 19 -10 -3 -5
-15 -10 -26 -10 -33 0 -21 -20 14 -21 l32 -1 -33 -8 c-48 -11 -51 -20 -6 -21
40 -1 39 -3 -10 -14 -38 -8 -24 -20 20 -16 19 1 34 -2 34 -8 0 -6 -13 -11 -29
-11 -17 0 -33 -4 -36 -10 -3 -5 2 -9 12 -8 33 2 53 -2 53 -12 0 -5 -11 -10
-24 -10 -14 0 -28 -5 -32 -11 -4 -7 6 -10 31 -7 38 3 38 3 56 -52 20 -58 32
-86 55 -133 8 -16 14 -37 14 -47 0 -10 14 -27 30 -37 17 -9 30 -24 30 -31 0
-12 3 -12 15 -2 14 11 19 7 16 -13 -1 -4 3 -17 9 -27 14 -26 80 -29 80 -4 0
10 -6 14 -15 10 -9 -3 -15 0 -15 9 0 21 14 19 35 -5 20 -22 29 -90 13 -90 -6
0 -8 3 -5 7 10 9 -25 32 -49 33 -12 0 -34 12 -50 27 -24 22 -29 24 -32 10 -4
-20 -4 -20 -37 -5 -22 10 -26 17 -21 40 3 18 2 27 -4 23 -6 -3 -10 -14 -11
-23 0 -10 -3 -12 -5 -5 -3 7 0 21 6 32 7 15 7 21 0 21 -6 0 -14 -10 -19 -22
-5 -15 -10 -18 -16 -9 -4 8 1 24 13 40 18 25 19 31 6 52 -14 26 -34 67 -64
137 -15 34 -24 42 -45 42 -25 0 -26 -2 -20 -39 5 -33 4 -39 -14 -44 -20 -5
-21 -1 -22 121 0 156 -7 291 -15 303 -3 5 4 9 15 9 11 0 24 -6 28 -14z m-860
-28 c-3 -8 -6 -5 -6 6 -1 11 2 17 5 13 3 -3 4 -12 1 -19z m813 -28 c0 -37 -4
-50 -14 -50 -8 0 -18 5 -21 10 -3 6 1 10 9 10 24 0 19 18 -6 23 l-23 4 23 8
c12 4 22 11 22 16 0 5 -10 9 -22 9 -19 0 -20 2 -8 10 31 20 40 11 40 -40z
m-843 -207 c-3 -24 -1 -40 4 -37 13 7 11 3 -11 -44 -11 -22 -20 -50 -20 -60 0
-11 -6 -32 -14 -47 -12 -23 -15 -25 -20 -8 -7 23 -4 395 3 387 3 -3 7 -24 8
-46 2 -23 7 -44 13 -48 5 -3 7 -19 5 -35 -2 -17 0 -55 5 -85 7 -51 8 -47 9 43
1 63 -3 96 -9 92 -6 -4 -10 8 -10 29 0 20 5 36 11 36 5 0 9 8 8 18 -1 9 0 24
1 32 5 29 21 -186 17 -227z m43 197 c0 -5 -8 -10 -17 -10 -15 0 -16 2 -3 10
19 12 20 12 20 0z m-283 -42 c-3 -8 -6 -5 -6 6 -1 11 2 17 5 13 3 -3 4 -12 1
-19z m278 3 c-3 -6 -11 -8 -17 -5 -6 4 -5 9 3 15 16 10 23 4 14 -10z m808 -31
c-3 -11 -13 -20 -22 -19 -11 0 -12 2 -3 6 10 4 10 8 1 19 -9 11 -7 14 9 14 15
0 19 -5 15 -20z m-783 -42 c0 -7 -5 -20 -10 -28 -8 -12 -10 -9 -10 13 0 15 5
27 10 27 6 0 10 -6 10 -12z m785 -8 c3 -5 -1 -10 -9 -10 -9 0 -19 0 -23 -1 -4
0 -9 4 -11 10 -5 14 35 14 43 1z m-784 -50 c-11 -6 -8 -9 10 -13 23 -4 22 -4
-3 -6 -16 0 -28 3 -28 7 0 12 23 33 29 26 3 -3 -1 -9 -8 -14z m787 -117 c2
-61 -1 -103 -7 -103 -5 0 -16 -3 -25 -6 -25 -9 -19 12 7 24 l22 11 -25 1 c-24
1 -24 1 -6 15 17 13 18 15 3 15 -24 0 -21 19 6 30 22 9 22 9 -3 10 -25 1 -25
1 -5 16 15 12 17 18 6 21 -11 5 -11 7 0 14 12 8 11 11 -1 19 -13 8 -12 10 5
10 18 1 18 2 -2 10 -13 5 -23 12 -23 15 0 4 10 5 23 3 21 -3 22 -8 25 -105z
m-765 70 c-7 -2 -19 -2 -25 0 -7 3 -2 5 12 5 14 0 19 -2 13 -5z m16 -29 c2 -2
6 -48 9 -102 l4 -98 37 4 c29 2 33 1 19 -8 -24 -15 -23 -29 2 -23 15 4 20 0
20 -13 0 -42 -12 -62 -41 -68 -16 -3 -40 -13 -53 -21 -21 -14 -23 -22 -20 -73
3 -56 -5 -71 -33 -72 -8 0 -13 13 -13 30 0 31 -19 43 -21 13 0 -11 -3 -13 -6
-5 -8 20 -43 14 -53 -10 -5 -13 -9 -17 -9 -10 -1 6 -6 12 -11 12 -6 0 -10 -8
-8 -17 2 -10 -5 -19 -16 -21 -20 -4 -36 13 -35 38 0 10 2 11 6 3 2 -7 12 -13
21 -13 14 1 13 4 -6 20 -14 11 -18 21 -12 25 6 4 17 1 25 -5 10 -8 15 -9 15
-2 0 6 -4 14 -10 17 -18 11 -10 23 13 18 21 -4 22 -4 3 11 -19 15 -19 16 -2
16 15 0 16 3 6 15 -6 8 -9 18 -6 23 3 5 -10 14 -29 20 -37 11 -47 0 -17 -18
13 -9 10 -10 -18 -5 -33 6 -34 5 -16 -10 11 -8 24 -15 30 -15 5 0 7 -2 4 -5
-3 -3 -16 -1 -30 4 -14 5 -31 6 -39 1 -11 -8 -11 -10 1 -14 8 -2 22 -7 30 -9
8 -3 1 -6 -17 -6 -33 -1 -60 27 -44 45 5 5 14 26 21 47 6 20 18 37 25 37 15 0
117 51 140 70 8 7 12 16 9 21 -3 5 0 8 7 7 7 -2 19 18 28 45 14 41 19 48 39
44 12 -2 22 0 22 5 0 5 -10 13 -22 19 -21 9 -21 9 4 4 34 -7 46 11 13 19 -14
4 -25 11 -25 16 0 9 47 4 59 -6z m867 -118 c9 -28 22 -58 29 -66 15 -18 17
-68 2 -77 -6 -4 -8 0 -4 10 3 10 2 17 -2 17 -5 0 -19 29 -31 65 -12 36 -26 65
-32 65 -6 0 -8 -6 -5 -12 2 -7 8 -24 12 -38 7 -22 6 -23 -9 -11 -17 14 -24
110 -9 125 11 11 30 -20 49 -78z m434 62 c0 21 16 13 28 -15 l12 -28 -5 33
c-6 40 11 34 20 -8 4 -17 11 -30 16 -30 5 0 9 -4 9 -10 0 -6 -45 -10 -115 -10
l-115 0 -1 33 c-2 31 -2 31 -6 4 -3 -19 -9 -27 -18 -23 -8 3 -16 0 -18 -7 -9
-23 -42 8 -44 41 l-1 31 106 3 c83 2 110 0 120 -11 8 -10 12 -11 12 -3z m80
-8 c0 -11 -2 -20 -4 -20 -2 0 -6 9 -9 20 -3 11 -1 20 4 20 5 0 9 -9 9 -20z
m-1950 -5 c0 -9 -6 -12 -15 -9 -8 4 -15 10 -15 15 0 5 7 9 15 9 8 0 15 -7 15
-15z m27 -37 c-2 -13 -4 -5 -4 17 -1 22 1 32 4 23 2 -10 2 -28 0 -40z m170 30
c21 -19 26 -20 34 -8 8 11 9 7 4 -15 -4 -16 -8 -31 -9 -32 -1 -2 -32 0 -69 4
-47 4 -67 10 -67 19 0 8 -4 14 -10 14 -5 0 -10 -7 -10 -15 0 -8 -4 -15 -10
-15 -11 0 -14 53 -3 63 3 4 31 7 62 7 43 0 60 -5 78 -22z m-250 -30 c-3 -7 -5
-2 -5 12 0 14 2 19 5 13 2 -7 2 -19 0 -25z m1926 -48 c3 -11 10 -20 16 -20 9
0 9 5 1 20 -9 16 -8 20 4 20 9 0 19 -12 22 -26 4 -14 12 -23 19 -21 6 3 18 1
26 -4 10 -6 6 -9 -16 -9 -16 -1 -106 -4 -198 -6 -168 -5 -188 -1 -135 27 15 8
19 8 14 0 -14 -21 23 -11 40 12 11 15 15 16 11 5 -8 -22 -4 -22 36 -3 30 13
64 20 128 23 19 2 28 -4 32 -18z m-1947 1 c22 18 17 4 -6 -16 -19 -18 -20 -17
-19 6 0 13 3 18 6 11 4 -10 8 -10 19 -1z m102 -13 c11 20 20 22 82 22 39 0 70
-4 70 -9 0 -8 32 -23 57 -25 6 -1 15 -5 19 -9 4 -4 -71 -7 -167 -6 -137 1
-166 3 -136 11 21 6 41 18 45 27 5 13 7 11 12 -9 l6 -25 12 23z m1958 -3 c19
-17 22 -25 12 -25 -9 0 -18 7 -22 15 -3 9 -16 20 -28 25 -17 6 -18 9 -6 9 9 1
29 -10 44 -24z m-1711 -5 c10 -11 16 -20 13 -20 -3 0 -13 9 -23 20 -10 11 -16
20 -13 20 3 0 13 -9 23 -20z m1048 -7 c3 -16 1 -33 -4 -40 -7 -7 -5 -13 3 -17
10 -5 10 -7 1 -12 -7 -3 -13 -10 -13 -15 0 -6 5 -7 12 -3 8 5 9 0 6 -14 -4
-12 -2 -22 3 -22 5 0 9 -7 9 -15 0 -8 5 -15 11 -15 6 0 8 -9 4 -21 -6 -19 -5
-20 14 -9 16 8 21 8 19 -1 -2 -6 7 -13 20 -15 26 -4 29 10 6 28 -46 37 -64 59
-64 78 0 12 7 20 17 20 13 0 14 -3 6 -11 -16 -16 5 -38 30 -31 16 4 16 6 2 28
-8 13 -15 31 -15 41 0 15 -1 15 -13 -2 -20 -26 -37 -10 -37 36 0 31 4 40 16
37 8 -2 15 -7 14 -11 0 -4 6 -15 15 -23 8 -9 15 -25 15 -37 0 -16 3 -18 12 -9
19 19 31 14 26 -13 -3 -14 -1 -25 4 -25 5 0 14 -13 19 -30 6 -16 17 -30 25
-30 8 0 14 -4 14 -8 0 -5 18 -17 40 -28 30 -14 40 -24 38 -39 -2 -11 -11 -21
-22 -23 -20 -4 -44 14 -32 25 4 4 11 1 15 -6 5 -8 14 -10 21 -6 16 10 -14 35
-41 35 -10 0 -34 15 -54 34 -35 33 -65 51 -65 40 0 -4 11 -14 23 -24 18 -14
23 -26 19 -48 -4 -29 -4 -29 -52 -19 -47 9 -70 33 -70 72 0 8 -4 15 -10 15 -5
0 -10 12 -10 28 0 15 -5 34 -10 42 -6 11 -9 1 -7 -30 2 -25 7 -52 12 -60 5 -8
16 -28 25 -45 12 -23 25 -32 58 -38 42 -8 59 -27 23 -27 -26 0 -81 20 -81 30
0 5 -9 12 -21 15 -17 6 -18 9 -7 23 11 13 11 15 -3 10 -11 -4 -20 1 -28 18 -6
13 -16 24 -23 24 -9 0 -9 -3 0 -12 7 -7 12 -19 12 -27 -1 -13 -4 -12 -15 3
-23 30 -19 56 8 53 20 -2 22 3 25 55 2 45 7 60 23 68 11 6 17 15 14 21 -4 5
-2 9 3 9 5 0 12 -12 15 -27z m-470 -17 c4 -10 1 -13 -9 -9 -15 6 -19 23 -5 23
5 0 11 -7 14 -14z m577 4 c0 -5 -4 -10 -10 -10 -5 0 -10 5 -10 10 0 6 5 10 10
10 6 0 10 -4 10 -10z m-510 -31 c0 -6 -4 -7 -10 -4 -5 3 -10 11 -10 16 0 6 5
7 10 4 6 -3 10 -11 10 -16z m-980 -4 c0 -20 10 -19 26 3 12 16 13 15 14 -5 0
-14 -6 -23 -15 -23 -11 0 -15 -11 -16 -37 0 -31 -2 -34 -9 -18 -5 11 -9 32 -9
48 -1 43 -19 31 -24 -15 -3 -41 -4 -41 -5 10 -2 46 0 52 18 52 11 0 20 -7 20
-15z m210 -40 l0 -55 -65 0 -65 0 0 41 c0 24 -4 38 -10 34 -5 -3 -10 3 -10 14
0 19 6 21 75 21 l75 0 0 -55z m130 45 c0 -5 -5 -10 -11 -10 -5 0 -7 5 -4 10 3
6 8 10 11 10 2 0 4 -4 4 -10z m1291 -30 c5 0 9 8 10 18 0 14 2 14 9 -3 8 -19
8 -19 18 5 l11 25 1 -25 c0 -14 5 -32 10 -40 7 -11 10 -6 10 20 0 26 3 31 10
20 5 -8 7 -23 4 -32 -3 -10 -1 -18 5 -18 11 0 15 12 12 43 -1 9 3 17 8 17 6 0
11 -12 12 -27 1 -28 1 -28 11 5 10 29 15 32 48 32 27 0 40 -5 45 -17 7 -17 8
-16 15 2 7 17 9 17 9 3 1 -10 5 -18 10 -18 5 0 12 8 14 18 3 9 5 2 6 -15 1
-41 21 -44 21 -3 0 17 5 30 10 30 6 0 10 -18 10 -39 0 -22 5 -43 10 -46 6 -4
10 12 10 39 0 25 5 46 10 46 6 0 10 -20 10 -45 0 -25 5 -45 10 -45 6 0 10 20
10 45 0 25 5 45 10 45 6 0 10 -18 10 -39 0 -22 5 -43 10 -46 6 -4 10 12 10 39
0 34 4 46 15 46 11 0 15 -12 15 -50 l0 -50 -149 0 c-205 0 -323 31 -320 84 2
20 2 20 6 -1 2 -13 9 -23 14 -23z m-1380 0 c5 0 9 7 9 15 0 8 4 15 8 15 4 0 6
-15 4 -34 -2 -18 1 -37 7 -40 7 -5 11 2 11 18 0 14 5 26 10 26 13 0 13 -26 0
-51 -14 -25 -24 -24 -38 4 l-11 22 0 -23 c-1 -13 -5 -20 -11 -17 -5 3 -9 27
-9 53 1 26 3 39 6 30 2 -10 9 -18 14 -18z m724 -23 c31 -55 31 -67 0 -67 -14
0 -25 5 -25 11 0 6 9 8 21 4 20 -7 20 -6 4 24 -18 35 -30 41 -20 11 4 -11 2
-20 -4 -20 -6 0 -11 4 -11 9 0 5 -3 17 -7 27 -5 12 -3 15 6 9 10 -5 11 -2 6
14 -10 34 2 24 30 -22z m326 16 c-11 -4 -11 -7 0 -14 7 -4 10 -11 7 -14 -10
-10 -28 4 -28 21 0 8 8 14 18 13 12 0 13 -2 3 -6z m-1241 -48 c0 -8 -7 -15
-15 -15 -26 0 -18 20 13 29 1 1 2 -6 2 -14z m1640 -11 c0 -8 -5 -12 -10 -9 -6
4 -8 11 -5 16 9 14 15 11 15 -7z m-982 -49 c2 -42 1 -45 -23 -45 -29 0 -33 15
-8 28 15 9 15 11 1 26 -9 9 -23 16 -30 16 -10 0 -9 3 2 10 8 5 24 10 35 10 17
0 20 -8 23 -45z m1275 28 c-7 -2 -13 -13 -13 -23 0 -11 -10 -20 -25 -24 -14
-4 -25 -11 -25 -16 0 -6 11 -10 25 -10 35 0 31 -17 -5 -25 -39 -9 -38 -21 3
-30 l32 -8 -29 -6 c-31 -6 -48 -31 -22 -31 9 0 16 5 16 11 0 16 35 6 36 -11 5
-48 7 -52 13 -20 5 32 9 35 44 38 l37 3 0 -44 0 -44 -207 -7 c-115 -4 -275 -5
-358 -2 -82 3 -465 6 -851 6 -385 0 -703 2 -705 4 -2 2 -3 56 -1 120 l3 116
160 0 c158 0 160 0 168 -24 10 -26 30 -36 68 -36 19 0 24 -4 19 -16 -3 -8 1
-30 8 -49 17 -39 48 -51 90 -36 15 6 47 11 70 11 26 0 53 7 67 18 47 35 79 44
118 31 20 -6 45 -22 57 -36 l21 -24 38 25 c40 27 87 35 82 14 -1 -7 4 -12 11
-10 8 1 11 -2 7 -7 -3 -6 -11 -8 -18 -5 -7 2 -23 -5 -36 -17 -16 -15 -32 -20
-57 -17 -21 2 -33 0 -31 -6 8 -24 68 -17 124 14 30 17 62 29 70 26 8 -3 33 -2
57 4 24 5 117 12 207 15 90 3 228 10 306 16 78 5 149 6 157 3 9 -3 32 -3 52 1
l36 6 -6 48 c-3 26 -3 50 1 54 3 4 49 7 102 6 53 0 90 -3 84 -6z m87 -59 c0
-56 -2 -65 -16 -60 -9 3 -28 7 -42 7 -23 1 -22 3 8 9 l35 7 -33 2 c-42 1 -33
20 11 22 30 2 30 2 -8 9 l-40 7 35 3 35 3 -35 6 -35 7 34 7 c24 5 32 11 27 22
-3 9 0 15 9 15 12 0 15 -15 15 -66z m-1035 26 c10 -11 15 -20 12 -20 -4 0 -16
9 -27 20 -11 11 -16 20 -12 20 5 0 17 -9 27 -20z m508 -18 c9 -8 17 -20 17
-26 0 -6 -5 -3 -11 8 -9 15 -13 16 -20 5 -7 -11 -9 -9 -9 6 0 17 -2 17 -10 5
-8 -12 -10 -10 -10 8 0 24 9 23 43 -6z m114 6 c-3 -8 -6 -5 -6 6 -1 11 2 17 5
13 3 -3 4 -12 1 -19z m-307 -22 c0 -3 -4 -8 -10 -11 -5 -3 -10 -1 -10 4 0 6 5
11 10 11 6 0 10 -2 10 -4z m685 -66 c4 -6 -5 -10 -19 -10 -14 0 -26 5 -26 10
0 6 9 10 19 10 11 0 23 -4 26 -10z m-2044 -162 c2 -34 3 -37 6 -13 6 43 23 56
23 17 0 -42 20 -42 21 1 1 31 2 31 10 -8 4 -22 8 -60 8 -84 1 -75 12 -38 13
45 1 72 2 75 9 35 12 -60 19 -63 19 -7 0 29 4 45 10 41 6 -3 10 -19 10 -36 0
-16 4 -29 8 -29 4 0 6 16 4 35 -3 21 0 35 7 35 6 0 11 -15 11 -34 0 -19 5 -38
10 -41 6 -4 10 12 10 39 0 25 5 46 10 46 11 0 14 -23 10 -87 -1 -26 3 -43 9
-43 11 0 12 8 15 82 1 41 20 48 22 8 3 -64 4 -73 10 -67 7 6 10 30 13 80 1 18
5 26 12 21 7 -4 9 -23 5 -50 -8 -62 11 -64 22 -2 l10 53 1 -63 c1 -79 20 -74
23 6 2 57 2 57 5 10 2 -27 8 -48 13 -48 13 0 18 22 12 58 -4 25 -1 32 12 32
13 0 16 -11 16 -55 0 -30 5 -55 10 -55 6 0 10 25 10 55 0 32 4 55 11 55 6 0
10 -27 9 -72 -2 -104 -2 -106 10 -88 5 8 10 51 11 95 1 68 2 75 10 45 5 -19 7
-55 4 -80 -3 -25 -1 -52 5 -60 10 -16 15 31 11 118 -1 24 2 42 8 42 7 0 11
-29 11 -76 0 -53 3 -73 11 -68 8 4 10 30 6 75 -3 38 -1 71 4 74 10 7 13 -143
3 -169 -5 -12 -20 -16 -60 -16 -51 0 -54 1 -54 25 0 14 -4 25 -10 25 -5 0 -10
-11 -10 -25 0 -28 -26 -34 -49 -12 -11 10 -14 10 -18 0 -7 -20 -23 -15 -23 7
0 22 -15 27 -23 8 -3 -8 -6 -6 -6 5 -1 24 -21 22 -21 -3 0 -16 -7 -20 -35 -20
-35 0 -42 11 -36 58 1 6 -3 12 -9 12 -5 0 -10 -16 -10 -37 0 -41 -9 -41 -12 0
-3 38 -18 34 -19 -5 -1 -18 -3 -25 -6 -15 -5 21 -23 23 -23 2 0 -11 -12 -15
-45 -15 l-45 0 0 41 c0 25 -4 38 -10 34 -6 -4 -8 -21 -4 -42 5 -28 4 -35 -7
-31 -8 2 -15 19 -17 36 -2 18 -8 32 -14 32 -6 0 -8 -13 -6 -30 3 -16 1 -30 -4
-30 -4 0 -8 37 -7 83 l1 82 13 -50 c13 -46 14 -47 13 -15 0 59 2 70 12 70 6 0
11 -19 11 -42z m571 -39 c-2 -21 1 -39 7 -43 8 -5 11 11 11 53 0 33 5 63 10
66 6 4 10 -28 11 -87 1 -74 3 -87 10 -63 6 17 8 50 5 76 -2 25 0 52 5 60 6 10
9 1 9 -28 0 -59 20 -54 21 5 l2 47 10 -47 c13 -61 29 -63 20 -3 -5 38 -3 45
11 45 13 0 16 -11 16 -52 0 -57 8 -98 19 -98 4 0 5 32 3 70 -3 51 -1 70 8 70
9 0 11 -10 7 -30 -4 -16 -2 -32 3 -35 6 -4 10 6 10 22 0 15 5 35 10 43 7 11
10 7 10 -17 0 -40 20 -45 20 -5 l1 27 14 -30 13 -30 1 27 c1 41 21 45 21 4 0
-19 5 -38 10 -41 6 -4 10 8 10 29 0 19 5 38 10 41 6 4 10 -10 10 -34 0 -22 4
-42 9 -45 5 -3 8 13 7 37 -1 36 2 42 21 45 17 3 24 -3 29 -22 7 -30 24 -35 24
-8 0 14 8 18 40 18 39 1 40 0 40 -33 0 -18 5 -33 10 -33 6 0 10 16 10 35 0 19
5 35 10 35 6 0 10 -15 10 -34 0 -19 5 -38 10 -41 6 -4 10 10 10 34 0 63 16 49
26 -21 l8 -63 3 50 c2 28 6 57 10 65 10 26 23 -41 17 -86 -3 -25 -1 -45 5 -49
7 -4 12 11 13 42 1 26 2 58 2 70 1 11 4 25 9 29 4 4 7 -27 7 -69 0 -42 5 -79
10 -82 6 -4 10 23 10 74 0 47 4 81 10 81 6 0 10 -33 10 -80 0 -102 18 -105 22
-3 2 50 7 78 16 81 9 3 12 -15 12 -66 0 -102 0 -102 -86 -102 -59 0 -72 3 -68
14 3 8 1 17 -5 21 -7 3 -11 -2 -11 -15 0 -19 -5 -21 -57 -18 l-57 3 -8 40 c-6
26 -5 41 2 43 14 5 12 33 -4 54 -18 24 -26 12 -26 -38 0 -24 -4 -45 -8 -48 -5
-3 -6 8 -4 25 3 17 0 29 -7 29 -11 0 -12 -9 -15 -75 -1 -26 -5 -30 -33 -33
-24 -2 -33 1 -33 11 0 8 -7 17 -15 21 -10 4 -15 -1 -15 -15 0 -17 -5 -20 -37
-17 -35 3 -38 6 -41 36 -2 17 -8 32 -13 32 -6 0 -7 -14 -3 -35 5 -31 4 -35
-14 -35 -11 0 -22 6 -25 13 -3 8 -9 6 -19 -7 -15 -19 -15 -19 -27 0 -10 18
-12 18 -21 2 -14 -23 -58 -23 -82 -1 -17 15 -18 15 -18 -1 0 -9 -3 -15 -7 -13
-5 3 -6 47 -4 99 2 58 6 84 11 68 4 -14 5 -41 2 -61z m805 13 c-3 -31 -2 -64
3 -72 7 -11 10 -6 10 20 0 59 12 111 24 107 7 -2 10 -26 7 -65 -2 -41 1 -62 8
-62 7 0 11 23 11 59 0 33 5 63 10 66 6 4 10 -7 10 -24 0 -35 20 -43 21 -8 0
12 3 16 6 10 8 -20 23 -15 23 7 0 34 20 22 21 -12 1 -22 3 -26 6 -13 14 55 43
58 43 5 0 -45 17 -54 23 -12 2 15 2 -4 -1 -43 -2 -38 -7 -73 -9 -77 -8 -15
-23 -8 -23 12 0 11 -5 20 -11 20 -6 0 -8 -9 -4 -22 6 -18 4 -20 -5 -12 -6 7
-12 28 -13 48 -1 50 -17 45 -19 -6 l-1 -43 -4 43 c-5 56 -23 54 -23 -3 0 -41
-2 -45 -24 -45 -13 0 -27 6 -29 13 -4 9 -8 8 -16 -3 -9 -12 -11 -10 -11 10
l-1 25 -10 -23 c-10 -26 -29 -21 -29 9 0 10 -4 19 -10 19 -5 0 -10 -9 -10 -20
0 -11 -3 -20 -8 -20 -7 0 -8 33 -4 133 2 31 6 37 23 37 21 0 21 -4 16 -58z
m276 8 l4 -35 1 38 c1 20 7 37 12 37 6 0 11 -17 11 -37 l2 -38 6 38 c6 35 28
51 24 17 -6 -44 -6 -121 0 -127 4 -3 7 18 8 48 0 56 17 119 18 72 1 -13 5 -23
10 -23 5 0 9 6 8 13 -1 32 4 48 13 42 6 -3 10 -40 10 -81 0 -46 4 -74 11 -74
6 0 8 8 5 18 -3 9 -1 44 3 77 l8 60 2 -80 c1 -73 3 -78 16 -61 14 19 15 19 15
-8 0 -25 -3 -27 -37 -24 -37 3 -38 4 -41 46 -2 23 -7 42 -13 42 -10 0 -13 -20
-10 -62 2 -27 0 -28 -42 -28 -43 0 -45 1 -43 28 2 38 -17 44 -25 7 -4 -16 -5
6 -3 50 2 44 4 84 4 90 0 23 19 -13 23 -45z m215 -27 c-1 -55 -3 -64 -5 -30
-4 51 -19 63 -26 20 -2 -16 -4 -3 -4 27 -1 30 1 47 4 38 4 -17 24 -26 22 -10
-2 14 1 32 6 32 3 0 4 -35 3 -77z m42 -11 c0 -51 3 -72 10 -62 5 8 7 45 4 82
-4 54 -3 68 9 68 9 0 12 -9 9 -30 -3 -18 0 -30 7 -30 6 0 11 14 11 30 0 17 5
30 11 30 9 0 10 -24 5 -85 -5 -57 -4 -85 3 -85 7 0 11 27 11 69 0 72 6 101 21
101 5 0 9 -41 9 -90 l0 -91 -67 3 c-47 2 -68 7 -67 16 1 6 2 46 3 88 1 100 21
88 21 -14z m150 -2 c0 -68 -3 -90 -13 -90 -10 0 -13 22 -13 90 1 65 4 90 14
90 9 0 12 -25 12 -90z m17 48 c-3 -7 -5 -2 -5 12 0 14 2 19 5 13 2 -7 2 -19 0
-25z m-1067 -118 c0 -5 -4 -10 -10 -10 -5 0 -10 5 -10 10 0 6 5 10 10 10 6 0
10 -4 10 -10z m1064 -164 l0 -129 -1057 -2 c-581 -1 -1057 0 -1057 4 0 3 -3
43 -6 89 -4 46 -3 103 1 129 l7 45 1056 -4 1057 -4 -1 -128z"/>
<path d="M110 3600 c-3 -96 -2 -195 1 -220 8 -70 15 131 9 275 l-6 120 -4
-175z"/>
<path d="M142 3635 c0 -71 3 -143 7 -160 4 -16 5 35 3 115 -4 187 -10 212 -10
45z"/>
<path d="M314 3555 c0 -104 2 -146 3 -92 2 54 2 139 0 190 -1 51 -3 7 -3 -98z"/>
<path d="M190 3710 c0 -5 5 -10 11 -10 5 0 7 5 4 10 -3 6 -8 10 -11 10 -2 0
-4 -4 -4 -10z"/>
<path d="M282 3700 c0 -14 2 -19 5 -12 2 6 2 18 0 25 -3 6 -5 1 -5 -13z"/>
<path d="M131 3273 c2 -108 6 -100 11 20 2 42 0 77 -4 77 -5 0 -7 -44 -7 -97z"/>
<path d="M97 3027 c-5 -165 -6 -301 -4 -303 6 -6 20 508 15 561 -2 22 -7 -94
-11 -258z"/>
<path d="M307 3157 c-3 -24 -2 -57 3 -73 7 -23 8 -14 9 44 1 39 -1 72 -3 72
-2 0 -6 -20 -9 -43z"/>
<path d="M122 3060 c0 -19 2 -27 5 -17 2 9 2 25 0 35 -3 9 -5 1 -5 -18z"/>
<path d="M70 2930 c-3 -58 -4 -107 -3 -109 10 -15 13 19 11 110 l-3 104 -5
-105z"/>
<path d="M124 2785 c0 -104 2 -146 3 -92 2 54 2 139 0 190 -1 51 -3 7 -3 -98z"/>
<path d="M307 2923 c-4 -3 -7 -40 -6 -82 1 -87 14 -63 18 32 2 57 0 63 -12 50z"/>
<path d="M302 2720 c0 -14 2 -19 5 -12 2 6 2 18 0 25 -3 6 -5 1 -5 -13z"/>
<path d="M92 2563 c0 -57 3 -103 7 -103 3 0 5 37 3 83 -4 124 -10 135 -10 20z"/>
<path d="M120 2439 c0 -5 5 -7 10 -4 6 3 10 8 10 11 0 2 -4 4 -10 4 -5 0 -10
-5 -10 -11z"/>
<path d="M95 2160 c0 -109 4 -202 8 -206 10 -10 9 378 -1 393 -4 7 -8 -77 -7
-187z"/>
<path d="M133 2245 c0 -22 2 -30 4 -17 2 12 2 30 0 40 -3 9 -5 -1 -4 -23z"/>
<path d="M340 2141 c0 -65 -7 -94 -21 -85 -5 3 -9 1 -9 -5 0 -5 4 -11 10 -13
6 -2 12 -85 16 -203 3 -110 7 -202 10 -204 2 -2 4 125 4 282 0 158 -2 287 -5
287 -3 0 -5 -27 -5 -59z"/>
<path d="M313 2130 c0 -25 2 -35 4 -22 2 12 2 32 0 45 -2 12 -4 2 -4 -23z"/>
<path d="M307 1943 c-9 -17 -5 -343 4 -343 6 0 9 68 9 175 -1 96 -3 175 -5
175 -2 0 -6 -3 -8 -7z"/>
<path d="M98 1923 c-6 -70 -5 -191 3 -203 5 -9 9 30 9 103 0 64 -2 117 -5 117
-3 0 -6 -8 -7 -17z"/>
<path d="M124 1850 c0 -52 1 -74 3 -47 2 26 2 68 0 95 -2 26 -3 4 -3 -48z"/>
<path d="M104 1430 c0 -140 2 -198 3 -127 2 70 2 184 0 255 -1 70 -3 12 -3
-128z"/>
<path d="M130 1648 c-7 -35 -9 -388 -3 -388 4 0 9 88 11 195 2 107 1 195 -2
195 -4 0 -6 -1 -6 -2z"/>
<path d="M153 1555 c0 -38 2 -53 4 -32 2 20 2 52 0 70 -2 17 -4 1 -4 -38z"/>
<path d="M313 1430 c0 -36 2 -50 4 -32 2 17 2 47 0 65 -2 17 -4 3 -4 -33z"/>
<path d="M310 1316 c0 -49 14 -52 18 -5 1 22 -2 39 -8 39 -5 0 -10 -15 -10
-34z"/>
<path d="M151 1274 c0 -11 3 -14 6 -6 3 7 2 16 -1 19 -3 4 -6 -2 -5 -13z"/>
<path d="M151 1234 c0 -11 3 -14 6 -6 3 7 2 16 -1 19 -3 4 -6 -2 -5 -13z"/>
<path d="M318 1119 c-2 -22 0 -43 4 -45 4 -3 8 15 8 40 0 57 -7 60 -12 5z"/>
<path d="M103 1105 c0 -22 2 -30 4 -17 2 12 2 30 0 40 -3 9 -5 -1 -4 -23z"/>
<path d="M302 1120 c0 -14 2 -19 5 -12 2 6 2 18 0 25 -3 6 -5 1 -5 -13z"/>
<path d="M955 3710 c4 -6 10 -8 15 -5 5 3 18 -8 29 -23 18 -26 19 -31 5 -50
-8 -12 -24 -22 -35 -22 -10 0 -19 -4 -19 -9 0 -6 54 -11 120 -13 91 -2 120 0
120 10 0 6 -11 12 -25 12 -23 0 -25 4 -25 45 0 41 2 45 24 45 14 0 28 5 31 10
4 6 -38 10 -120 10 -83 0 -124 -3 -120 -10z m95 -14 c0 -11 -19 -15 -25 -6 -3
5 1 10 9 10 9 0 16 -2 16 -4z m60 -41 c0 -49 -15 -59 -44 -29 -20 19 -20 19 0
49 26 40 44 32 44 -20z"/>
<path d="M1852 3725 c0 -16 2 -22 5 -12 2 9 2 23 0 30 -3 6 -5 -1 -5 -18z"/>
<path d="M2022 3712 c0 -22 4 -46 9 -53 5 -9 7 5 4 35 -6 61 -14 72 -13 18z"/>
<path d="M2056 3685 c14 -183 5 -566 -14 -573 -7 -2 -12 -24 -12 -50 0 -36 3
-44 11 -32 8 12 9 9 4 -10 -3 -14 -8 -79 -10 -145 l-3 -120 8 113 c4 63 11
116 14 119 3 4 6 -49 6 -117 0 -68 2 -121 5 -118 3 3 6 183 7 399 1 217 4 406
9 421 5 17 1 54 -11 100 l-19 73 5 -60z"/>
<path d="M2030 3600 c-6 -55 3 -265 10 -230 3 14 3 81 0 150 -3 78 -7 108 -10
80z"/>
<path d="M1846 3621 c-4 -7 -5 -15 -2 -18 9 -9 19 4 14 18 -4 11 -6 11 -12 0z"/>
<path d="M1871 3604 c0 -11 3 -14 6 -6 3 7 2 16 -1 19 -3 4 -6 -2 -5 -13z"/>
<path d="M1832 3343 c2 -218 6 -193 10 75 2 78 0 142 -4 142 -5 0 -7 -98 -6
-217z"/>
<path d="M1861 3514 c0 -11 3 -14 6 -6 3 7 2 16 -1 19 -3 4 -6 -2 -5 -13z"/>
<path d="M1852 3420 c0 -14 2 -19 5 -12 2 6 2 18 0 25 -3 6 -5 1 -5 -13z"/>
<path d="M2028 3238 c5 -113 9 -125 10 -30 1 50 -1 92 -5 92 -5 0 -7 -28 -5
-62z"/>
<path d="M1833 3055 c0 -22 2 -30 4 -17 2 12 2 30 0 40 -3 9 -5 -1 -4 -23z"/>
<path d="M1875 2980 c3 -5 8 -10 11 -10 2 0 4 5 4 10 0 6 -5 10 -11 10 -5 0
-7 -4 -4 -10z"/>
<path d="M1820 2910 c0 -5 5 -10 10 -10 6 0 10 5 10 10 0 6 -4 10 -10 10 -5 0
-10 -4 -10 -10z"/>
<path d="M2061 2497 c0 -125 4 -229 8 -231 7 -5 2 446 -5 453 -3 3 -4 -97 -3
-222z"/>
<path d="M2026 2682 c-2 -4 -1 -14 5 -22 7 -12 9 -10 9 8 0 23 -5 28 -14 14z"/>
<path d="M2012 2573 c-2 -84 7 -119 23 -93 3 5 2 10 -4 10 -6 0 -12 37 -14 88
l-3 87 -2 -92z"/>
<path d="M1832 2580 c0 -14 2 -19 5 -12 2 6 2 18 0 25 -3 6 -5 1 -5 -13z"/>
<path d="M1826 2448 c-9 -34 -7 -108 2 -108 5 0 9 29 10 65 2 68 -1 81 -12 43z"/>
<path d="M2011 2434 c0 -11 3 -14 6 -6 3 7 2 16 -1 19 -3 4 -6 -2 -5 -13z"/>
<path d="M2038 2393 c-1 -32 0 -92 3 -133 5 -63 6 -55 7 58 2 135 -4 178 -10
75z"/>
<path d="M1960 2310 c0 -5 5 -10 10 -10 6 0 10 5 10 10 0 6 -4 10 -10 10 -5 0
-10 -4 -10 -10z"/>
<path d="M1995 2151 c-3 -5 -1 -12 5 -16 5 -3 10 1 10 9 0 18 -6 21 -15 7z"/>
<path d="M1930 1970 c0 -5 5 -10 11 -10 5 0 7 5 4 10 -3 6 -8 10 -11 10 -2 0
-4 -4 -4 -10z"/>
<path d="M456 3505 c-3 -8 -1 -15 4 -15 6 0 10 7 10 15 0 8 -2 15 -4 15 -2 0
-6 -7 -10 -15z"/>
<path d="M1710 3490 c0 -5 5 -10 10 -10 6 0 10 5 10 10 0 6 -4 10 -10 10 -5 0
-10 -4 -10 -10z"/>
<path d="M1695 3460 c-3 -5 -1 -10 4 -10 6 0 11 5 11 10 0 6 -2 10 -4 10 -3 0
-8 -4 -11 -10z"/>
<path d="M1675 3430 c3 -5 8 -10 11 -10 2 0 4 5 4 10 0 6 -5 10 -11 10 -5 0
-7 -4 -4 -10z"/>
<path d="M1641 3388 c-20 -21 -20 -38 0 -38 6 0 9 6 6 13 -2 6 5 20 16 30 11
9 15 17 9 17 -6 0 -20 -10 -31 -22z"/>
<path d="M704 3369 c-3 -6 -1 -16 5 -22 8 -8 11 -5 11 11 0 24 -5 28 -16 11z"/>
<path d="M521 3354 c0 -11 3 -14 6 -6 3 7 2 16 -1 19 -3 4 -6 -2 -5 -13z"/>
<path d="M1548 3291 c-32 -25 -104 -70 -160 -98 -93 -48 -114 -54 -218 -68
-63 -8 -131 -15 -152 -15 -28 0 -38 -4 -38 -16 0 -14 3 -14 15 -4 12 10 15 9
15 -6 1 -18 1 -18 15 0 13 17 15 18 15 3 0 -23 20 -22 21 1 1 11 4 9 9 -8 l8
-25 8 24 c7 23 8 23 21 6 13 -18 13 -18 13 1 1 19 1 19 15 0 15 -19 15 -19 15
3 0 12 4 19 10 16 6 -3 10 -15 10 -26 0 -10 5 -19 11 -19 7 0 9 10 7 25 -3 14
-1 28 3 31 5 3 9 -9 9 -25 0 -42 20 -40 21 2 l1 32 10 -28 c5 -15 14 -25 19
-21 5 3 5 13 -1 24 -15 28 -13 30 23 30 17 0 45 7 61 15 16 9 31 14 32 12 2
-2 -7 -10 -21 -17 -28 -15 -36 -56 -9 -46 9 3 18 6 20 6 2 0 5 10 5 23 1 16 2
18 6 5 8 -33 30 -19 37 25 7 42 7 42 21 17 8 -14 14 -20 15 -13 0 7 7 10 15 7
12 -5 14 1 10 27 l-5 34 11 -30 c14 -36 28 -55 41 -55 6 0 3 11 -6 25 -9 13
-16 35 -15 47 0 13 3 17 6 11 2 -7 9 -13 15 -13 6 0 8 7 5 15 -4 8 -2 17 3 20
6 4 10 1 10 -4 0 -6 4 -11 10 -11 5 0 9 10 7 21 -1 12 4 24 11 26 7 3 12 -5
12 -21 0 -14 5 -26 11 -26 7 0 9 12 5 35 -9 44 1 63 20 38 13 -17 13 -17 14 4
0 36 -12 33 -72 -16z"/>
<path d="M890 3310 c0 -5 5 -10 11 -10 5 0 7 5 4 10 -3 6 -8 10 -11 10 -2 0
-4 -4 -4 -10z"/>
<path d="M945 3300 c3 -6 13 -10 21 -10 9 0 14 -10 14 -27 l0 -28 20 25 c28
36 25 45 -21 47 -24 2 -38 -1 -34 -7z"/>
<path d="M1123 3303 c-50 -4 -53 -6 -52 -31 0 -27 0 -27 11 -4 6 12 15 22 21
22 5 0 4 -7 -3 -15 -7 -9 -10 -19 -6 -22 4 -4 11 -1 16 7 9 13 10 13 10 0 1
-8 6 -4 11 9 9 23 10 24 24 5 14 -18 14 -18 15 0 0 14 3 16 13 8 10 -8 16 -6
25 9 11 17 10 19 -10 17 -13 -1 -47 -3 -75 -5z"/>
<path d="M686 3265 c-9 -26 -7 -32 5 -12 6 10 9 21 6 23 -2 3 -7 -2 -11 -11z"/>
<path d="M910 3270 c-12 -7 -12 -12 -2 -22 10 -10 15 -10 22 2 19 29 9 39 -20
20z"/>
<path d="M950 3258 c0 -19 2 -20 10 -8 13 19 13 30 0 30 -5 0 -10 -10 -10 -22z"/>
<path d="M710 3248 c0 -19 2 -20 10 -8 13 19 13 30 0 30 -5 0 -10 -10 -10 -22z"/>
<path d="M817 3233 c-4 -3 -7 -11 -7 -17 0 -6 5 -5 12 2 6 6 9 14 7 17 -3 3
-9 2 -12 -2z"/>
<path d="M876 3214 c-4 -9 -4 -19 -1 -22 2 -3 7 3 11 12 4 9 4 19 1 22 -2 3
-7 -3 -11 -12z"/>
<path d="M962 3200 c0 -19 2 -27 5 -17 2 9 2 25 0 35 -3 9 -5 1 -5 -18z"/>
<path d="M1340 3221 c0 -6 5 -13 10 -16 6 -3 10 1 10 9 0 9 -4 16 -10 16 -5 0
-10 -4 -10 -9z"/>
<path d="M988 3200 c-7 -24 -3 -38 8 -28 3 4 4 17 2 30 l-3 23 -7 -25z"/>
<path d="M1310 3206 c0 -9 5 -16 10 -16 6 0 10 4 10 9 0 6 -4 13 -10 16 -5 3
-10 -1 -10 -9z"/>
<path d="M1535 3210 c3 -5 10 -10 16 -10 5 0 9 5 9 10 0 6 -7 10 -16 10 -8 0
-12 -4 -9 -10z"/>
<path d="M550 3186 c0 -28 16 -43 23 -24 3 7 6 2 7 -12 1 -14 4 -19 7 -12 7
18 21 14 28 -9 7 -20 39 -59 50 -59 3 0 5 8 6 18 1 11 4 9 9 -8 4 -14 8 -19 9
-12 2 29 21 9 21 -23 0 -19 5 -35 10 -35 6 0 10 14 10 31 0 17 4 28 10 24 6
-3 10 -22 10 -41 0 -41 19 -37 21 4 1 27 1 27 8 -3 l7 -30 5 38 c5 34 3 38
-20 44 -56 13 -201 103 -201 124 0 5 -4 9 -10 9 -5 0 -10 -11 -10 -24z"/>
<path d="M1010 3195 c0 -8 9 -15 19 -15 10 0 21 7 25 15 3 8 1 15 -3 15 -5 0
-12 -6 -14 -12 -4 -10 -6 -10 -6 0 -1 17 -21 15 -21 -3z"/>
<path d="M1067 3197 c-5 -12 -1 -17 13 -17 11 0 20 5 20 11 0 5 -4 8 -9 5 -5
-4 -11 -1 -13 6 -3 8 -7 6 -11 -5z"/>
<path d="M1246 3195 c4 -8 8 -15 10 -15 2 0 4 7 4 15 0 8 -4 15 -10 15 -5 0
-7 -7 -4 -15z"/>
<path d="M1281 3194 c0 -11 3 -14 6 -6 3 7 2 16 -1 19 -3 4 -6 -2 -5 -13z"/>
<path d="M1516 3192 c-3 -6 -1 -14 5 -17 15 -10 25 3 12 16 -7 7 -13 7 -17 1z"/>
<path d="M435 3169 c-4 -6 -5 -13 -2 -16 7 -7 27 6 27 18 0 12 -17 12 -25 -2z"/>
<path d="M521 3150 c-1 -21 16 -46 26 -37 4 5 3 11 -3 15 -6 4 -14 14 -17 22
-5 13 -5 13 -6 0z"/>
<path d="M445 3130 c-3 -5 1 -10 10 -10 11 0 15 -5 11 -15 -3 -8 -1 -15 4 -15
11 0 13 11 4 34 -7 18 -20 21 -29 6z"/>
<path d="M720 3125 c0 -8 2 -15 4 -15 2 0 6 7 10 15 3 8 1 15 -4 15 -6 0 -10
-7 -10 -15z"/>
<path d="M752 3110 c0 -14 2 -19 5 -12 2 6 2 18 0 25 -3 6 -5 1 -5 -13z"/>
<path d="M787 3114 c-4 -4 -7 -14 -7 -23 0 -11 3 -12 11 -4 6 6 10 16 7 23 -2
6 -7 8 -11 4z"/>
<path d="M812 3100 c0 -14 2 -19 5 -12 2 6 2 18 0 25 -3 6 -5 1 -5 -13z"/>
<path d="M848 3114 c-5 -4 -8 -16 -8 -28 0 -14 3 -17 11 -9 6 6 9 19 7 28 -1
9 -6 13 -10 9z"/>
<path d="M1270 3105 c0 -8 5 -15 10 -15 6 0 10 7 10 15 0 8 -4 15 -10 15 -5 0
-10 -7 -10 -15z"/>
<path d="M1472 3109 c2 -7 10 -15 17 -17 8 -3 12 1 9 9 -2 7 -10 15 -17 17 -8
3 -12 -1 -9 -9z"/>
<path d="M1745 3100 c3 -5 11 -10 16 -10 6 0 7 5 4 10 -3 6 -11 10 -16 10 -6
0 -7 -4 -4 -10z"/>
<path d="M1450 3091 c0 -13 28 -33 41 -29 6 2 0 12 -15 21 -14 10 -26 13 -26
8z"/>
<path d="M480 3075 c-8 -9 -8 -15 -2 -15 12 0 26 19 19 26 -2 2 -10 -2 -17
-11z"/>
<path d="M1445 3046 c17 -13 32 -22 34 -20 8 7 -32 44 -48 44 -11 0 -6 -8 14
-24z"/>
<path d="M606 3042 c-7 -12 -3 -92 5 -92 10 0 19 55 9 58 -4 2 -6 12 -3 22 5
20 -1 27 -11 12z"/>
<path d="M810 3024 c0 -8 5 -12 10 -9 6 3 10 10 10 16 0 5 -4 9 -10 9 -5 0
-10 -7 -10 -16z"/>
<path d="M1410 3031 c0 -5 11 -16 25 -25 29 -19 34 -7 7 17 -21 19 -32 22 -32
8z"/>
<path d="M522 3005 c-6 -14 -8 -25 -3 -25 4 0 13 11 19 25 6 14 8 25 3 25 -4
0 -13 -11 -19 -25z"/>
<path d="M1540 3020 c0 -5 5 -10 11 -10 5 0 7 5 4 10 -3 6 -8 10 -11 10 -2 0
-4 -4 -4 -10z"/>
<path d="M1400 2995 c7 -8 19 -15 27 -15 13 0 13 3 3 15 -7 8 -19 15 -27 15
-13 0 -13 -3 -3 -15z"/>
<path d="M1520 2980 c0 -5 5 -10 10 -10 6 0 10 5 10 10 0 6 -4 10 -10 10 -5 0
-10 -4 -10 -10z"/>
<path d="M532 2955 c-6 -14 -8 -25 -3 -25 4 0 13 11 19 25 6 14 8 25 3 25 -4
0 -13 -11 -19 -25z"/>
<path d="M1390 2970 c0 -5 5 -10 11 -10 5 0 7 5 4 10 -3 6 -8 10 -11 10 -2 0
-4 -4 -4 -10z"/>
<path d="M1690 2960 c0 -5 5 -10 11 -10 5 0 7 5 4 10 -3 6 -8 10 -11 10 -2 0
-4 -4 -4 -10z"/>
<path d="M626 2944 c-9 -24 -7 -28 9 -14 17 14 20 30 6 30 -5 0 -12 -7 -15
-16z"/>
<path d="M539 2907 c-14 -18 -29 -39 -34 -47 -15 -25 23 9 47 42 28 40 18 44
-13 5z"/>
<path d="M641 2912 c-6 -12 -11 -27 -11 -34 1 -7 8 0 16 15 9 16 13 31 11 34
-3 2 -10 -4 -16 -15z"/>
<path d="M1670 2885 c7 -8 17 -15 22 -15 6 0 5 7 -2 15 -7 8 -17 15 -22 15 -6
0 -5 -7 2 -15z"/>
<path d="M567 2883 c-4 -3 -7 -13 -7 -22 1 -13 3 -13 11 2 11 19 8 33 -4 20z"/>
<path d="M410 2870 l-25 -8 28 -1 c15 -1 27 4 27 9 0 6 -1 10 -2 9 -2 -1 -14
-5 -28 -9z"/>
<path d="M673 2865 c-9 -24 1 -27 20 -5 14 17 15 20 2 20 -9 0 -18 -7 -22 -15z"/>
<path d="M525 2849 c-4 -6 -5 -12 -2 -15 2 -3 7 2 10 11 7 17 1 20 -8 4z"/>
<path d="M418 2843 c-16 -2 -28 -8 -28 -12 0 -11 49 -1 56 10 3 5 4 8 2 8 -2
-1 -15 -4 -30 -6z"/>
<path d="M564 2832 c-27 -21 -49 -62 -34 -62 5 0 10 7 10 15 0 8 12 26 27 40
31 28 29 33 -3 7z"/>
<path d="M1420 2842 c0 -5 7 -13 16 -16 10 -4 14 -1 12 6 -5 15 -28 23 -28 10z"/>
<path d="M570 2794 c-13 -32 -13 -51 -1 -38 10 11 24 64 16 64 -3 0 -10 -12
-15 -26z"/>
<path d="M400 2800 c-12 -8 -12 -10 5 -10 11 0 27 5 35 10 12 8 12 10 -5 10
-11 0 -27 -5 -35 -10z"/>
<path d="M1626 2773 c-7 -17 22 -49 33 -37 3 3 -1 9 -8 13 -7 5 -11 13 -7 19
3 6 2 13 -3 16 -5 3 -12 -2 -15 -11z"/>
<path d="M420 2770 c-12 -8 -11 -10 7 -10 12 0 25 5 28 10 8 13 -15 13 -35 0z"/>
<path d="M721 2764 c0 -11 3 -14 6 -6 3 7 2 16 -1 19 -3 4 -6 -2 -5 -13z"/>
<path d="M435 2750 c-19 -8 -19 -9 3 -9 12 -1 22 4 22 9 0 6 -1 10 -2 9 -2 0
-12 -4 -23 -9z"/>
<path d="M1554 2744 c2 -10 8 -20 14 -22 6 -2 9 5 8 14 -2 10 -8 20 -14 22 -6
2 -9 -5 -8 -14z"/>
<path d="M1745 2730 c3 -5 8 -10 11 -10 2 0 4 5 4 10 0 6 -5 10 -11 10 -5 0
-7 -4 -4 -10z"/>
<path d="M448 2723 c7 -3 16 -2 19 1 4 3 -2 6 -13 5 -11 0 -14 -3 -6 -6z"/>
<path d="M505 2720 c-3 -5 -1 -10 4 -10 6 0 11 5 11 10 0 6 -2 10 -4 10 -3 0
-8 -4 -11 -10z"/>
<path d="M723 2723 c-21 -8 -15 -22 7 -16 11 3 20 9 20 14 0 10 -8 10 -27 2z"/>
<path d="M520 2700 c-8 -5 -12 -11 -9 -14 2 -3 11 -1 19 4 8 5 12 11 9 14 -2
3 -11 1 -19 -4z"/>
<path d="M435 2690 l-20 -9 20 0 c11 0 29 4 40 9 l20 9 -20 0 c-11 0 -29 -4
-40 -9z"/>
<path d="M1740 2690 c0 -5 5 -10 11 -10 5 0 7 5 4 10 -3 6 -8 10 -11 10 -2 0
-4 -4 -4 -10z"/>
<path d="M1624 2675 c11 -8 25 -15 30 -15 6 0 2 7 -8 15 -11 8 -25 15 -30 15
-6 0 -2 -7 8 -15z"/>
<path d="M438 2664 c-26 -8 -49 -18 -52 -23 -6 -9 89 20 100 32 9 9 9 9 -48
-9z"/>
<path d="M732 2653 c-8 -17 -9 -30 -2 -37 9 -9 30 30 30 55 0 18 -15 8 -28
-18z"/>
<path d="M449 2620 c-31 -25 -18 -25 23 0 20 12 26 20 17 20 -9 0 -27 -9 -40
-20z"/>
<path d="M525 2630 c-3 -5 -2 -10 4 -10 5 0 13 5 16 10 3 6 2 10 -4 10 -5 0
-13 -4 -16 -10z"/>
<path d="M1625 2630 c3 -5 11 -10 16 -10 6 0 7 5 4 10 -3 6 -11 10 -16 10 -6
0 -7 -4 -4 -10z"/>
<path d="M1720 2540 c0 -5 5 -10 11 -10 5 0 7 5 4 10 -3 6 -8 10 -11 10 -2 0
-4 -4 -4 -10z"/>
<path d="M1716 2491 c-6 -9 41 -37 49 -29 3 3 -6 13 -19 22 -14 8 -27 12 -30
7z"/>
<path d="M1730 2425 c13 -14 26 -23 28 -20 7 7 -29 45 -41 45 -6 0 0 -11 13
-25z"/>
<path d="M1713 2393 c9 -9 20 -13 24 -9 4 4 1 11 -7 16 -25 16 -35 11 -17 -7z"/>
<path d="M1066 2912 c-29 -2 -36 -6 -25 -13 10 -6 10 -9 2 -9 -8 0 -4 -9 8
-21 28 -28 69 -19 69 16 0 29 -4 31 -54 27z m34 -27 c0 -8 -7 -15 -15 -15 -8
0 -15 7 -15 15 0 8 7 15 15 15 8 0 15 -7 15 -15z"/>
<path d="M1138 2913 c7 -3 16 -2 19 1 4 3 -2 6 -13 5 -11 0 -14 -3 -6 -6z"/>
<path d="M995 2861 c19 -8 19 -9 -3 -14 -21 -4 -21 -5 0 -3 30 2 36 26 6 25
-21 0 -22 -1 -3 -8z"/>
<path d="M971 2723 c0 -12 -4 -30 -7 -40 -5 -14 -4 -15 5 -7 7 6 11 24 8 40
-3 21 -4 23 -6 7z"/>
<path d="M1180 2490 c-9 -6 -10 -10 -3 -10 6 0 15 5 18 10 8 12 4 12 -15 0z"/>
<path d="M1270 2460 c0 -5 7 -10 16 -10 8 0 12 5 9 10 -3 6 -10 10 -16 10 -5
0 -9 -4 -9 -10z"/>
<path d="M1242 2370 c0 -14 2 -19 5 -12 2 6 2 18 0 25 -3 6 -5 1 -5 -13z"/>
<path d="M1260 2376 c0 -9 5 -16 10 -16 6 0 10 4 10 9 0 6 -4 13 -10 16 -5 3
-10 -1 -10 -9z"/>
<path d="M1168 2373 c6 -2 18 -2 25 0 6 3 1 5 -13 5 -14 0 -19 -2 -12 -5z"/>
<path d="M950 2571 c0 -5 5 -13 10 -16 6 -3 10 -2 10 4 0 5 -4 13 -10 16 -5 3
-10 2 -10 -4z"/>
<path d="M950 2466 c0 -8 5 -18 10 -21 6 -3 10 3 10 14 0 12 -4 21 -10 21 -5
0 -10 -6 -10 -14z"/>
<path d="M150 2540 c0 -5 5 -10 10 -10 6 0 10 5 10 10 0 6 -4 10 -10 10 -5 0
-10 -4 -10 -10z"/>
<path d="M481 2534 c0 -11 3 -14 6 -6 3 7 2 16 -1 19 -3 4 -6 -2 -5 -13z"/>
<path d="M1077 2383 c-16 -15 -6 -34 15 -31 29 4 38 38 10 38 -10 0 -22 -3
-25 -7z m33 -13 c0 -5 -4 -10 -9 -10 -6 0 -13 5 -16 10 -3 6 1 10 9 10 9 0 16
-4 16 -10z"/>
<path d="M1555 2231 c-6 -11 9 -23 19 -14 9 9 7 23 -3 23 -6 0 -12 -4 -16 -9z"/>
<path d="M1444 1894 c22 -8 45 -13 50 -10 15 5 -40 26 -67 25 -15 0 -10 -5 17
-15z"/>
<path d="M1145 1870 c3 -5 8 -10 11 -10 2 0 4 5 4 10 0 6 -5 10 -11 10 -5 0
-7 -4 -4 -10z"/>
<path d="M1140 1796 c0 -30 5 -58 10 -61 6 -4 10 15 10 49 0 30 -4 58 -10 61
-6 4 -10 -15 -10 -49z"/>
<path d="M895 2255 c-4 -25 -5 -48 -2 -51 3 -3 9 15 12 41 4 25 5 48 2 51 -3
3 -9 -15 -12 -41z"/>
<path d="M867 2163 c-4 -9 -3 -71 2 -198 3 -73 4 -77 13 -45 7 24 7 59 0 110
-5 41 -8 90 -5 108 5 29 0 43 -10 25z"/>
<path d="M1067 1903 c-9 -16 -7 -188 2 -174 5 7 9 51 10 97 2 78 -1 96 -12 77z"/>
<path d="M940 1855 c10 -12 10 -15 -1 -15 -10 0 -10 -3 -1 -12 6 -6 14 -9 18
-6 9 9 -6 48 -18 48 -6 0 -6 -6 2 -15z"/>
<path d="M955 1760 c-3 -5 -2 -10 4 -10 5 0 13 5 16 10 3 6 2 10 -4 10 -5 0
-13 -4 -16 -10z"/>
<path d="M390 1903 c0 -5 7 -18 15 -29 12 -16 14 -16 15 -3 0 9 -7 22 -15 29
-8 7 -15 8 -15 3z"/>
<path d="M393 1837 c3 -31 24 -65 48 -78 34 -18 33 -3 -3 33 -19 18 -29 30
-24 26 13 -11 26 -10 26 1 0 5 -11 16 -24 25 -24 15 -25 15 -23 -7z"/>
<path d="M392 1729 c9 -29 128 -94 128 -70 0 5 -10 13 -22 17 -13 4 -43 20
-67 37 -24 16 -42 23 -39 16z"/>
<path d="M420 1665 c11 -13 10 -14 -4 -9 -23 9 -20 -5 7 -27 23 -19 67 -26 67
-9 0 5 -12 13 -26 16 -17 4 -22 9 -14 14 9 6 7 11 -8 19 -29 15 -37 14 -22 -4z"/>
<path d="M550 1651 c0 -10 30 -24 37 -17 3 2 -5 9 -16 16 -12 6 -21 7 -21 1z"/>
<path d="M400 1611 c0 -12 32 -31 54 -31 22 0 20 16 -1 23 -10 2 -26 8 -35 12
-11 4 -18 3 -18 -4z"/>
<path d="M453 1553 c9 -9 20 -13 24 -9 4 4 1 11 -7 16 -25 16 -35 11 -17 -7z"/>
<path d="M400 1539 c0 -12 36 -30 44 -22 12 12 6 21 -19 25 -14 3 -25 2 -25
-3z"/>
<path d="M409 1420 c21 -18 51 -27 51 -16 0 5 -60 36 -69 36 -3 -1 5 -10 18
-20z"/>
<path d="M396 1403 c-13 -13 -5 -29 23 -46 37 -22 63 -22 36 0 -16 13 -17 15
-2 10 9 -4 17 -3 17 1 0 11 -67 42 -74 35z"/>
<path d="M410 1330 c25 -20 50 -26 50 -12 0 8 -48 32 -64 32 -6 0 0 -9 14 -20z"/>
<path d="M440 1280 c0 -11 48 -25 56 -17 3 2 -9 9 -25 15 -18 7 -31 7 -31 2z"/>
<path d="M430 1252 c0 -8 43 -32 55 -32 15 0 1 19 -20 28 -31 14 -35 15 -35 4z"/>
<path d="M420 1225 c0 -2 18 -14 40 -25 22 -11 40 -16 40 -11 0 5 -14 17 -32
25 -31 16 -48 20 -48 11z"/>
<path d="M410 1202 c0 -12 78 -47 86 -39 3 3 -12 15 -35 26 -45 23 -51 25 -51
13z"/>
<path d="M430 1122 c0 -9 50 -35 56 -29 2 2 -10 11 -26 21 -17 9 -30 13 -30 8z"/>
<path d="M388 1113 c7 -3 16 -2 19 1 4 3 -2 6 -13 5 -11 0 -14 -3 -6 -6z"/>
<path d="M405 1070 c3 -5 13 -10 21 -10 8 0 12 5 9 10 -3 6 -13 10 -21 10 -8
0 -12 -4 -9 -10z"/>
<path d="M470 1060 c0 -5 5 -10 10 -10 6 0 10 5 10 10 0 6 -4 10 -10 10 -5 0
-10 -4 -10 -10z"/>
<path d="M425 1010 c3 -5 13 -10 21 -10 8 0 12 5 9 10 -3 6 -13 10 -21 10 -8
0 -12 -4 -9 -10z"/>
<path d="M430 982 c0 -10 50 -35 57 -28 3 2 -9 12 -26 21 -17 8 -31 12 -31 7z"/>
<path d="M448 934 c13 -9 26 -13 30 -9 8 8 -17 25 -38 25 -9 0 -6 -6 8 -16z"/>
<path d="M1845 1830 c3 -5 10 -10 16 -10 5 0 9 5 9 10 0 6 -7 10 -16 10 -8 0
-12 -4 -9 -10z"/>
<path d="M1740 1750 c0 -5 5 -10 10 -10 6 0 10 5 10 10 0 6 -4 10 -10 10 -5 0
-10 -4 -10 -10z"/>
<path d="M1730 1715 c7 -8 16 -12 21 -9 13 8 1 24 -18 24 -13 0 -13 -3 -3 -15z"/>
<path d="M1715 1679 c5 -15 4 -19 -4 -15 -20 12 -12 -10 11 -30 21 -19 21 -19
16 4 -4 12 -2 22 3 22 6 0 5 8 -1 20 -14 27 -33 26 -25 -1z"/>
<path d="M1720 1420 c0 -5 7 -10 16 -10 8 0 12 5 9 10 -3 6 -10 10 -16 10 -5
0 -9 -4 -9 -10z"/>
<path d="M1602 1399 c2 -7 10 -15 17 -17 8 -3 12 1 9 9 -2 7 -10 15 -17 17 -8
3 -12 -1 -9 -9z"/>
<path d="M1700 1390 c0 -8 24 -20 41 -20 6 0 8 4 5 9 -8 12 -46 21 -46 11z"/>
<path d="M1590 1372 c0 -10 21 -32 32 -32 16 0 8 19 -12 30 -11 6 -20 7 -20 2z"/>
<path d="M1694 1345 c11 -8 27 -15 35 -15 13 1 12 4 -3 15 -11 8 -27 15 -35
15 -13 -1 -12 -4 3 -15z"/>
<path d="M1596 1332 c-3 -6 -1 -14 5 -17 15 -10 25 3 12 16 -7 7 -13 7 -17 1z"/>
<path d="M1660 1320 c0 -5 16 -17 36 -25 43 -18 44 -18 44 -5 0 5 -16 17 -36
25 -43 18 -44 18 -44 5z"/>
<path d="M1650 1280 c0 -5 16 -17 36 -25 43 -18 44 -18 44 -5 0 5 -16 17 -36
25 -43 18 -44 18 -44 5z"/>
<path d="M1630 1241 c0 -11 17 -24 52 -39 46 -19 42 5 -4 28 -48 23 -48 23
-48 11z"/>
<path d="M1627 1214 c-15 -16 -5 -33 24 -43 39 -14 49 -14 49 -1 0 5 -11 12
-25 16 -14 3 -29 13 -33 20 -5 8 -11 11 -15 8z"/>
<path d="M1605 1160 c-4 -6 12 -18 38 -29 25 -11 48 -24 51 -30 4 -6 17 -11
29 -11 22 1 22 1 2 15 -11 8 -24 18 -30 22 -5 5 -23 15 -40 23 -16 8 -33 16
-37 18 -3 2 -9 -2 -13 -8z"/>
<path d="M1720 1130 c0 -5 5 -10 10 -10 6 0 10 5 10 10 0 6 -4 10 -10 10 -5 0
-10 -4 -10 -10z"/>
<path d="M1595 1109 c-4 -5 9 -16 29 -24 41 -17 46 -18 46 -7 0 14 -69 42 -75
31z"/>
<path d="M1692 1068 c5 -15 28 -23 28 -10 0 5 -7 13 -16 16 -10 4 -14 1 -12
-6z"/>
<path d="M1614 1055 c11 -8 29 -15 40 -15 21 1 21 1 2 15 -11 8 -29 15 -40 15
-21 -1 -21 -1 -2 -15z"/>
<path d="M1640 1011 c0 -11 31 -24 39 -16 3 3 -1 10 -9 15 -19 12 -30 12 -30
1z"/>
<path d="M1700 981 c0 -13 26 -32 33 -24 8 7 -11 33 -24 33 -5 0 -9 -4 -9 -9z"/>
<path d="M1650 965 c7 -8 19 -15 27 -15 13 0 13 3 3 15 -7 8 -19 15 -27 15
-13 0 -13 -3 -3 -15z"/>
<path d="M1955 1720 c-3 -5 -1 -10 4 -10 6 0 11 5 11 10 0 6 -2 10 -4 10 -3 0
-8 -4 -11 -10z"/>
<path d="M1820 1650 c0 -5 5 -10 10 -10 6 0 10 5 10 10 0 6 -4 10 -10 10 -5 0
-10 -4 -10 -10z"/>
<path d="M1890 1650 c0 -5 5 -10 10 -10 6 0 10 5 10 10 0 6 -4 10 -10 10 -5 0
-10 -4 -10 -10z"/>
<path d="M1900 1594 c0 -8 5 -12 10 -9 6 4 8 11 5 16 -9 14 -15 11 -15 -7z"/>
<path d="M1813 1410 l0 -175 7 142 c4 78 4 157 0 175 -5 20 -8 -38 -7 -142z"/>
<path d="M1910 1450 c0 -5 5 -10 10 -10 6 0 10 5 10 10 0 6 -4 10 -10 10 -5 0
-10 -4 -10 -10z"/>
<path d="M1831 1256 c2 -90 7 -162 12 -159 11 6 5 323 -6 323 -5 0 -8 -70 -6
-164z"/>
<path d="M2010 1318 c0 -56 2 -99 4 -97 2 2 7 48 11 102 5 68 4 97 -4 97 -7 0
-11 -35 -11 -102z"/>
<path d="M2041 1238 c0 -90 2 -158 4 -153 8 24 12 315 4 315 -5 0 -9 -73 -8
-162z"/>
<path d="M1870 1180 c0 -5 5 -10 11 -10 5 0 7 5 4 10 -3 6 -8 10 -11 10 -2 0
-4 -4 -4 -10z"/>
<path d="M2011 1185 c-1 -5 -4 -30 -6 -55 l-4 -45 10 40 c5 22 8 46 5 55 -2 8
-4 11 -5 5z"/>
<path d="M1960 1140 c0 -5 5 -10 11 -10 5 0 7 5 4 10 -3 6 -8 10 -11 10 -2 0
-4 -4 -4 -10z"/>
<path d="M696 1505 c-17 -13 -17 -15 -3 -29 21 -21 30 -20 18 1 -7 13 -5 21 7
30 10 7 13 12 7 12 -5 0 -18 -6 -29 -14z"/>
<path d="M725 1380 c-3 -5 -1 -10 4 -10 6 0 11 5 11 10 0 6 -2 10 -4 10 -3 0
-8 -4 -11 -10z"/>
<path d="M1385 1670 c3 -5 11 -10 16 -10 6 0 7 5 4 10 -3 6 -11 10 -16 10 -6
0 -7 -4 -4 -10z"/>
<path d="M2050 1539 c0 -5 5 -7 10 -4 6 3 10 8 10 11 0 2 -4 4 -10 4 -5 0 -10
-5 -10 -11z"/>
<path d="M1410 1509 c0 -5 6 -9 14 -9 8 0 17 -8 19 -17 4 -14 5 -14 6 3 1 14
-6 24 -19 27 -11 3 -20 1 -20 -4z"/>
<path d="M1328 1453 c7 -3 16 -2 19 1 4 3 -2 6 -13 5 -11 0 -14 -3 -6 -6z"/>
<path d="M1328 1423 c6 -2 18 -2 25 0 6 3 1 5 -13 5 -14 0 -19 -2 -12 -5z"/>
<path d="M1338 1393 c7 -3 16 -2 19 1 4 3 -2 6 -13 5 -11 0 -14 -3 -6 -6z"/>
<path d="M1180 1381 c-19 -5 -21 -8 -9 -13 8 -3 26 0 40 8 25 14 11 17 -31 5z"/>
<path d="M1265 1370 c-3 -5 -1 -10 4 -10 6 0 11 5 11 10 0 6 -2 10 -4 10 -3 0
-8 -4 -11 -10z"/>
<path d="M1330 1360 c0 -5 7 -10 15 -10 8 0 15 5 15 10 0 6 -7 10 -15 10 -8 0
-15 -4 -15 -10z"/>
<path d="M1155 1350 c-7 -11 38 -21 48 -11 5 5 -3 11 -18 13 -14 3 -28 2 -30
-2z"/>
<path d="M964 1316 c-10 -8 -16 -17 -13 -20 3 -4 17 2 30 13 27 23 13 28 -17
7z"/>
<path d="M1155 1310 c3 -5 17 -10 30 -10 13 0 27 5 30 10 4 6 -8 10 -30 10
-22 0 -34 -4 -30 -10z"/>
<path d="M1240 1295 c0 -3 5 -12 12 -19 13 -14 58 -9 58 6 0 6 -11 7 -25 4
-14 -4 -25 -2 -25 4 0 5 -4 10 -10 10 -5 0 -10 -2 -10 -5z"/>
<path d="M970 1275 c-16 -19 0 -19 26 0 16 12 16 14 3 15 -9 0 -22 -7 -29 -15z"/>
<path d="M1150 1281 c0 -9 33 -21 60 -21 22 0 -1 16 -32 24 -16 3 -28 2 -28
-3z"/>
<path d="M980 1250 c0 -5 4 -10 9 -10 6 0 13 5 16 10 3 6 -1 10 -9 10 -9 0
-16 -4 -16 -10z"/>
<path d="M1155 1240 c3 -5 17 -10 31 -10 13 0 24 5 24 10 0 6 -14 10 -31 10
-17 0 -28 -4 -24 -10z"/>
<path d="M1278 1243 c6 -2 18 -2 25 0 6 3 1 5 -13 5 -14 0 -19 -2 -12 -5z"/>
<path d="M995 1220 c4 -6 11 -8 16 -5 14 9 11 15 -7 15 -8 0 -12 -5 -9 -10z"/>
<path d="M1140 1212 c0 -10 41 -24 49 -17 6 7 0 11 -26 19 -13 4 -23 3 -23 -2z"/>
<path d="M1285 1210 c-3 -5 1 -10 9 -10 8 0 18 5 21 10 3 6 -1 10 -9 10 -8 0
-18 -4 -21 -10z"/>
<path d="M1140 1181 c0 -5 9 -11 20 -14 24 -6 27 8 4 17 -21 8 -24 8 -24 -3z"/>
<path d="M1300 1170 c0 -5 -7 -10 -15 -10 -8 0 -15 -4 -15 -10 0 -13 6 -13 31
0 20 11 26 30 9 30 -5 0 -10 -4 -10 -10z"/>
<path d="M1140 1140 c0 -7 24 -20 36 -20 13 0 1 19 -16 23 -11 3 -20 2 -20 -3z"/>
<path d="M1298 1123 c7 -3 16 -2 19 1 4 3 -2 6 -13 5 -11 0 -14 -3 -6 -6z"/>
<path d="M1125 1100 c3 -5 15 -10 26 -10 10 0 19 5 19 10 0 6 -12 10 -26 10
-14 0 -23 -4 -19 -10z"/>
<path d="M1130 1059 c0 -5 20 -8 45 -7 58 4 58 16 0 16 -25 0 -45 -4 -45 -9z"/>
<path d="M1158 1023 c6 -2 18 -2 25 0 6 3 1 5 -13 5 -14 0 -19 -2 -12 -5z"/>
<path d="M1033 983 c9 -2 23 -2 30 0 6 3 -1 5 -18 5 -16 0 -22 -2 -12 -5z"/>
<path d="M1036 935 c4 -8 9 -15 13 -15 4 0 8 7 8 15 0 8 -6 15 -13 15 -8 0
-11 -6 -8 -15z"/>
<path d="M1145 915 c-22 -63 -30 -77 -47 -89 -11 -8 -15 -16 -10 -20 21 -13
80 87 69 116 -3 9 -7 6 -12 -7z"/>
<path d="M1310 920 c0 -5 5 -10 11 -10 5 0 7 5 4 10 -3 6 -8 10 -11 10 -2 0
-4 -4 -4 -10z"/>
<path d="M1166 871 c-6 -39 -21 -62 -54 -80 -27 -15 -8 -22 21 -8 19 8 30 24
38 52 5 22 12 48 15 58 3 9 1 17 -4 17 -5 0 -12 -18 -16 -39z"/>
<path d="M1215 820 c-3 -16 -15 -41 -26 -55 l-20 -25 20 0 c12 0 21 -6 21 -12
0 -7 12 0 25 15 14 15 25 38 25 50 -1 18 -3 17 -14 -9 -18 -41 -36 -52 -36
-22 0 13 4 28 9 34 14 15 23 54 12 54 -5 0 -12 -13 -16 -30z"/>
<path d="M1295 800 c3 -5 8 -10 11 -10 2 0 4 5 4 10 0 6 -5 10 -11 10 -5 0 -7
-4 -4 -10z"/>
<path d="M1307 759 c7 -7 15 -10 18 -7 3 3 -2 9 -12 12 -14 6 -15 5 -6 -5z"/>
<path d="M1250 735 c-7 -9 -11 -18 -8 -20 3 -3 11 1 18 10 7 9 11 18 8 20 -3
3 -11 -1 -18 -10z"/>
<path d="M790 1400 c0 -5 4 -10 9 -10 6 0 13 5 16 10 3 6 -1 10 -9 10 -9 0
-16 -4 -16 -10z"/>
<path d="M795 1370 c-3 -5 -1 -10 4 -10 6 0 11 5 11 10 0 6 -2 10 -4 10 -3 0
-8 -4 -11 -10z"/>
<path d="M765 1340 c-3 -5 1 -10 10 -10 9 0 13 5 10 10 -3 6 -8 10 -10 10 -2
0 -7 -4 -10 -10z"/>
<path d="M694 1305 c-17 -13 -17 -14 -2 -15 9 0 20 5 23 11 11 17 0 20 -21 4z"/>
<path d="M770 1310 c0 -5 7 -10 15 -10 8 0 15 5 15 10 0 6 -7 10 -15 10 -8 0
-15 -4 -15 -10z"/>
<path d="M770 1270 c0 -5 8 -10 18 -10 14 0 15 -2 2 -10 -12 -8 -9 -10 13 -10
31 0 33 5 13 26 -17 16 -46 19 -46 4z"/>
<path d="M857 1243 c-12 -12 -7 -22 8 -17 8 4 15 10 15 15 0 11 -14 12 -23 2z"/>
<path d="M865 1200 c3 -5 8 -10 11 -10 2 0 4 5 4 10 0 6 -5 10 -11 10 -5 0 -7
-4 -4 -10z"/>
<path d="M800 1130 c-20 -12 -10 -19 14 -10 11 3 15 9 10 13 -6 3 -16 2 -24
-3z"/>
<path d="M885 1060 c-3 -5 -2 -10 4 -10 5 0 13 5 16 10 3 6 2 10 -4 10 -5 0
-13 -4 -16 -10z"/>
<path d="M790 1050 c0 -5 7 -10 15 -10 8 0 15 5 15 10 0 6 -7 10 -15 10 -8 0
-15 -4 -15 -10z"/>
<path d="M905 1030 c-3 -5 -2 -10 4 -10 5 0 13 5 16 10 3 6 2 10 -4 10 -5 0
-13 -4 -16 -10z"/>
<path d="M790 1020 c0 -5 4 -10 9 -10 6 0 13 5 16 10 3 6 -1 10 -9 10 -9 0
-16 -4 -16 -10z"/>
<path d="M818 893 c7 -3 16 -2 19 1 4 3 -2 6 -13 5 -11 0 -14 -3 -6 -6z"/>
<path d="M816 844 c-4 -9 -4 -19 -1 -22 2 -3 7 3 11 12 4 9 4 19 1 22 -2 3 -7
-3 -11 -12z"/>
<path d="M818 803 c7 -3 16 -2 19 1 4 3 -2 6 -13 5 -11 0 -14 -3 -6 -6z"/>
<path d="M1470 1010 c0 -5 5 -10 10 -10 6 0 10 5 10 10 0 6 -4 10 -10 10 -5 0
-10 -4 -10 -10z"/>
<path d="M686 1024 c-3 -9 -6 -30 -6 -47 0 -57 -21 -109 -60 -148 -36 -36 -60
-49 -60 -32 0 4 12 18 28 30 17 15 20 21 9 17 -10 -4 -28 -7 -40 -8 -16 -1
-21 -7 -19 -21 9 -58 27 -59 87 -4 48 44 60 74 69 172 5 58 3 70 -8 41z"/>
<path d="M640 1010 c0 -5 7 -10 16 -10 8 0 12 5 9 10 -3 6 -10 10 -16 10 -5 0
-9 -4 -9 -10z"/>
<path d="M632 979 c2 -7 10 -15 17 -17 8 -3 12 1 9 9 -2 7 -10 15 -17 17 -8 3
-12 -1 -9 -9z"/>
<path d="M613 947 c4 -10 0 -17 -11 -20 -15 -4 -15 -5 2 -12 12 -5 21 -3 27 6
11 17 7 31 -11 37 -9 3 -11 -1 -7 -11z"/>
<path d="M575 900 c-8 -13 15 -24 27 -12 6 6 4 11 -6 15 -8 3 -18 2 -21 -3z"/>
<path d="M530 869 c0 -5 -4 -8 -9 -4 -5 3 -12 1 -16 -5 -3 -6 2 -13 11 -17 10
-4 19 -2 22 5 2 7 12 12 23 12 10 0 19 5 19 10 0 6 -11 10 -25 10 -14 0 -25
-5 -25 -11z"/>
<path d="M700 870 c0 -5 4 -10 9 -10 6 0 13 5 16 10 3 6 -1 10 -9 10 -9 0 -16
-4 -16 -10z"/>
<path d="M752 853 c-12 -2 -20 -8 -17 -13 6 -10 45 -1 45 11 0 5 -1 8 -2 8 -2
-1 -13 -4 -26 -6z"/>
<path d="M684 828 c-4 -12 -32 -49 -63 -82 l-56 -59 35 7 c19 3 39 11 45 18 7
8 5 9 -7 5 -23 -8 -23 6 -1 24 21 18 73 89 73 101 0 17 -19 7 -26 -14z"/>
<path d="M486 832 c-3 -6 1 -13 10 -16 23 -9 28 -2 10 13 -8 7 -17 8 -20 3z"/>
<path d="M720 810 c0 -13 20 -13 40 0 12 8 9 10 -12 10 -16 0 -28 -4 -28 -10z"/>
<path d="M640 660 c0 -16 4 -30 9 -30 5 0 9 14 9 30 -1 17 -5 30 -10 30 -4 0
-8 -13 -8 -30z"/>
<path d="M1862 1010 c0 -14 2 -19 5 -12 2 6 2 18 0 25 -3 6 -5 1 -5 -13z"/>
<path d="M1781 994 c0 -11 3 -14 6 -6 3 7 2 16 -1 19 -3 4 -6 -2 -5 -13z"/>
<path d="M250 805 c0 -15 4 -24 10 -20 6 3 10 12 10 20 0 8 -4 17 -10 20 -6 4
-10 -5 -10 -20z"/>
<path d="M2095 570 c3 -5 8 -10 11 -10 2 0 4 5 4 10 0 6 -5 10 -11 10 -5 0 -7
-4 -4 -10z"/>
<path d="M1000 461 c0 -46 12 -121 19 -117 10 6 0 146 -10 146 -5 0 -9 -13 -9
-29z"/>
<path d="M717 383 c-3 -5 -1 -17 4 -28 7 -17 8 -17 8 8 1 27 -4 34 -12 20z"/>
<path d="M1130 371 c0 -11 5 -23 10 -26 6 -4 10 5 10 19 0 14 -4 26 -10 26 -5
0 -10 -9 -10 -19z"/>
<path d="M1170 365 c0 -14 5 -25 10 -25 6 0 10 11 10 25 0 14 -4 25 -10 25 -5
0 -10 -11 -10 -25z"/>
<path d="M880 355 c0 -14 5 -25 10 -25 6 0 10 11 10 25 0 14 -4 25 -10 25 -5
0 -10 -11 -10 -25z"/>
<path d="M1421 418 c1 -45 2 -49 9 -23 11 44 11 75 0 75 -6 0 -9 -23 -9 -52z"/>
<path d="M1628 400 c-3 -17 -1 -33 4 -36 4 -3 8 11 8 30 0 44 -6 47 -12 6z"/>
<path d="M1530 371 c0 -23 5 -41 10 -41 6 0 10 15 10 34 0 19 -4 38 -10 41 -6
4 -10 -10 -10 -34z"/>
<path d="M367 243 c-16 -15 -5 -23 33 -23 39 0 40 -1 40 -34 0 -46 -9 -66 -29
-66 -25 0 -33 11 -20 27 9 10 7 13 -10 13 -26 0 -38 -25 -21 -45 15 -18 84
-20 98 -2 5 6 13 34 17 60 7 45 9 48 31 43 14 -4 24 -2 24 4 0 5 7 10 15 10
11 0 15 -12 15 -50 0 -37 5 -55 20 -70 23 -23 33 -24 61 -9 15 7 24 7 35 -1
11 -10 19 -9 39 4 33 22 32 27 -7 24 l-33 -3 -3 53 c-2 31 1 52 7 52 6 0 11 5
11 10 0 6 -13 10 -30 10 -16 0 -30 -4 -30 -10 0 -5 4 -10 10 -10 17 0 7 -90
-12 -107 -16 -14 -18 -14 -25 3 -4 11 -8 42 -8 70 l0 52 -111 1 c-61 1 -113
-2 -117 -6z"/>
<path d="M793 240 c-26 -11 -27 -14 -13 -41 7 -13 21 -19 44 -19 37 0 59 -19
54 -47 -5 -30 -54 -29 -83 3 -14 15 -25 25 -26 23 0 -2 -2 -19 -5 -36 l-4 -33
60 4 c67 3 100 24 100 63 0 25 -1 26 -68 43 -23 6 -40 15 -37 20 8 13 48 13
62 -1 13 -13 28 5 18 21 -8 12 -72 12 -102 0z"/>
<path d="M1003 242 c-55 -3 -63 -6 -63 -22 0 -24 15 -26 24 -5 3 8 12 15 21
15 12 0 15 -13 15 -58 0 -32 -5 -63 -12 -70 -9 -9 -4 -12 23 -12 l35 0 -4 61
c-5 66 10 100 29 66 11 -19 29 -14 29 7 0 18 -22 22 -97 18z"/>
<path d="M1150 225 c7 -9 11 -37 8 -75 l-3 -60 33 0 c30 0 32 2 21 21 -6 12
-9 45 -7 75 l5 54 -35 0 c-29 0 -33 -2 -22 -15z"/>
<path d="M1280 220 c-28 -28 -25 -63 9 -99 29 -31 74 -41 115 -25 29 11 16 23
-19 17 -43 -7 -75 17 -75 57 0 47 52 71 63 29 7 -27 27 -15 27 17 0 22 -4 24
-50 24 -37 0 -55 -5 -70 -20z"/>
<path d="M1460 231 c0 -6 5 -13 10 -16 6 -3 10 -26 10 -50 0 -24 -4 -47 -10
-50 -25 -16 -5 -25 53 -25 51 0 68 4 82 20 16 17 16 20 2 20 -9 0 -19 -4 -22
-10 -3 -5 -22 -10 -41 -10 -30 0 -34 3 -34 26 0 21 4 24 20 19 16 -5 20 -2 20
19 0 14 -4 28 -10 31 -5 3 -10 -1 -10 -9 0 -9 -5 -16 -11 -16 -6 0 -9 8 -7 18
3 13 13 17 41 16 25 -1 37 3 37 12 0 10 -17 14 -65 14 -36 0 -65 -4 -65 -9z"/>
<path d="M1755 121 c-8 -15 3 -31 21 -31 9 0 14 7 12 17 -4 20 -24 28 -33 14z"/>
</g>
</svg>
