<?xml version="1.0" standalone="no"?>
<!DOCTYPE svg PUBLIC "-//W3C//DTD SVG 20010904//EN"
 "http://www.w3.org/TR/2001/REC-SVG-20010904/DTD/svg10.dtd">
<svg version="1.0" xmlns="http://www.w3.org/2000/svg"
 width="220.000000pt" height="385.000000pt" viewBox="0 0 220.000000 385.000000"
 preserveAspectRatio="xMidYMid meet">
<metadata>
Created by potrace 1.16, written by Peter Selinger 2001-2019
</metadata>
<g transform="translate(0.000000,385.000000) scale(0.100000,-0.100000)"
fill="#000000" stroke="none">
<path d="M1458 3834 c-2 -1 -267 -6 -588 -9 -322 -4 -639 -7 -705 -8 l-120 -2
-6 -55 c-5 -51 -14 -423 -12 -550 2 -192 1 -2015 -2 -2105 -1 -60 -6 -329 -10
-597 l-7 -486 29 -5 c15 -2 498 -4 1073 -3 l1045 1 7 355 c14 735 17 979 22
1865 4 501 8 1067 11 1258 l5 348 -370 -2 c-203 -1 -371 -3 -372 -5z m722 -58
c0 -23 -4 -46 -8 -52 -9 -15 -121 -23 -126 -9 -6 17 -40 -9 -55 -43 l-15 -32
-80 -1 c-45 0 -93 -2 -108 -4 -16 -2 -28 1 -28 6 0 5 -7 9 -15 9 -10 0 -15 10
-15 30 0 17 -4 30 -9 30 -24 0 -44 -16 -57 -44 -11 -27 -13 -28 -14 -8 0 36
-37 27 -59 -16 -12 -22 -12 -22 -199 -16 -103 3 -192 10 -198 15 -11 9 -101 4
-159 -8 -72 -15 -542 4 -569 23 -11 7 -31 10 -47 7 -21 -4 -36 1 -59 21 -18
14 -35 26 -40 26 -13 0 -40 -42 -40 -62 0 -10 -7 -18 -15 -18 -8 0 -15 7 -15
15 0 17 -36 39 -50 30 -5 -3 -17 9 -26 27 -25 50 -48 61 -59 29 -9 -30 -55 -4
-55 32 0 24 4 27 33 27 262 1 957 14 1002 19 33 3 291 6 573 7 l512 1 0 -41z
m-2024 -91 c7 -29 1 -41 -15 -30 -14 8 -14 55 -1 55 5 0 12 -11 16 -25z m-56
-6 c0 -6 -4 -7 -10 -4 -5 3 -10 11 -10 16 0 6 5 7 10 4 6 -3 10 -11 10 -16z
m1940 11 c0 -5 -4 -10 -10 -10 -5 0 -10 5 -10 10 0 6 5 10 10 10 6 0 10 -4 10
-10z m40 -4 c0 -3 -4 -8 -10 -11 -5 -3 -10 -1 -10 4 0 6 5 11 10 11 6 0 10 -2
10 -4z m61 -12 c-35 -15 -48 -13 -36 5 3 6 21 11 38 11 l32 -1 -34 -15z
m-1803 -17 c2 -10 -3 -17 -12 -17 -10 0 -16 9 -16 21 0 24 23 21 28 -4z m1720
-3 c38 -11 24 -24 -24 -24 -40 0 -45 2 -34 15 14 16 23 18 58 9z m-1860 -55
c17 -20 42 -26 42 -10 0 16 54 20 71 5 21 -19 26 -18 32 6 6 25 34 37 50 21 8
-8 8 -14 -2 -23 -10 -11 -11 -10 -6 5 5 12 2 17 -9 17 -10 0 -16 -9 -16 -24 0
-26 21 -47 28 -28 2 7 10 12 18 12 9 0 14 11 14 30 0 17 5 30 10 30 6 0 10
-16 10 -35 0 -38 19 -49 21 -12 1 16 2 18 6 5 5 -22 23 -24 23 -3 0 13 26 15
175 15 162 0 178 -2 197 -20 25 -23 38 -26 38 -8 0 6 7 3 16 -8 11 -13 17 -15
20 -7 4 8 15 11 30 7 13 -3 30 -1 37 4 18 15 116 12 110 -3 -2 -7 6 -15 19
-18 36 -10 8 -27 -48 -30 -42 -2 -49 -5 -47 -22 1 -15 -5 -20 -23 -21 -23 -2
-24 -1 -10 15 24 26 19 34 -13 28 -19 -4 -32 -2 -35 6 -5 9 -7 9 -12 0 -9 -19
-66 -26 -99 -12 -17 7 -32 13 -35 13 -3 1 -11 5 -17 9 -9 5 -13 3 -13 -7 0
-18 -35 -22 -45 -6 -5 8 -11 8 -20 0 -8 -6 -16 -7 -19 -2 -3 5 -15 12 -26 15
-15 4 -24 -1 -30 -16 -8 -21 -8 -21 -15 6 -8 29 -20 35 -28 15 -3 -8 -6 -6 -6
5 -1 24 -21 22 -21 -3 0 -11 -4 -20 -10 -20 -5 0 -10 7 -10 15 0 24 -20 17
-21 -7 l-2 -23 -4 23 c-5 26 -23 30 -23 4 0 -14 -10 -17 -64 -19 -35 0 -73 -6
-84 -12 -22 -12 -32 -6 -32 21 0 11 -4 16 -10 13 -5 -3 -10 -15 -10 -26 0 -10
-4 -19 -10 -19 -5 0 -10 11 -10 25 0 18 -5 25 -20 25 -11 0 -20 -5 -20 -10 0
-7 -6 -7 -19 0 -26 14 -31 13 -31 -6 0 -12 -4 -14 -12 -7 -18 14 -74 -3 -82
-23 -9 -24 2 -31 17 -11 8 11 21 14 40 10 17 -3 24 -9 18 -13 -8 -4 -5 -15 9
-32 24 -32 29 -88 5 -68 -8 7 -15 23 -15 36 0 38 -46 55 -83 29 -12 -8 -25
-15 -29 -15 -15 0 -8 27 12 45 25 23 25 35 0 35 -20 0 -26 11 -13 23 3 4 12 2
19 -4 17 -14 28 10 28 58 0 25 4 33 18 33 11 0 18 -7 18 -20 0 -32 18 -23 26
13 5 22 9 27 12 14 2 -11 11 -27 20 -38z m1962 41 c0 -5 -7 -7 -15 -4 -8 4
-15 8 -15 10 0 2 7 4 15 4 8 0 15 -4 15 -10z m-2075 -20 c-3 -5 -13 -10 -21
-10 -8 0 -12 5 -9 10 3 6 13 10 21 10 8 0 12 -4 9 -10z m1069 -6 c9 -8 16 -11
16 -5 0 8 6 7 19 -1 22 -13 51 -70 50 -96 0 -14 -2 -14 -6 -2 -11 29 -45 65
-76 80 -17 8 -32 21 -35 28 -5 17 13 15 32 -4z m586 6 c0 -5 -4 -10 -10 -10
-5 0 -10 5 -10 10 0 6 5 10 10 10 6 0 10 -4 10 -10z m-100 -15 c0 -8 -4 -15
-10 -15 -5 0 -10 7 -10 15 0 8 5 15 10 15 6 0 10 -7 10 -15z m227 9 c-3 -3
-12 -4 -19 -1 -8 3 -5 6 6 6 11 1 17 -2 13 -5z m307 -20 c21 -54 -7 -77 -83
-70 -54 6 -61 4 -76 -16 -13 -19 -17 -21 -25 -8 -7 12 -13 12 -32 1 -17 -9
-64 -11 -161 -9 -114 2 -139 0 -147 -12 -9 -13 -14 -7 -11 12 1 9 -88 8 -94
-1 -2 -4 -34 -4 -72 0 -37 5 -76 8 -85 8 -10 1 -18 6 -18 11 0 6 31 10 74 10
70 0 107 12 68 22 -17 5 -134 1 -205 -6 -30 -2 -40 1 -48 17 -8 14 -8 22 1 27
9 6 8 9 -6 13 -11 3 -4 5 16 6 26 0 31 -2 20 -9 -11 -7 -7 -10 18 -10 18 0 41
-6 53 -12 17 -11 22 -10 34 5 12 17 14 17 30 1 16 -16 18 -17 27 -1 12 23 34
21 55 -2 9 -11 21 -17 26 -14 5 3 13 -1 18 -8 6 -11 9 -10 15 4 6 17 7 17 21
0 13 -16 14 -15 9 16 l-6 33 19 -23 c15 -19 22 -21 32 -12 6 6 17 9 24 7 7 -3
16 -1 20 5 10 18 43 12 65 -11 11 -12 20 -16 20 -10 0 14 21 12 33 -3 4 -6 10
0 13 13 4 12 9 22 13 22 224 13 241 12 241 -9 0 -25 20 -28 21 -3 1 16 2 16 6
0 2 -10 9 -18 14 -18 5 0 9 8 9 18 0 13 2 14 9 3 6 -9 11 -10 15 -2 4 6 4 16
1 21 -3 6 0 10 8 10 8 0 18 -7 21 -16z m-965 -99 c0 -13 -5 -8 -14 15 -18 46
-18 61 0 30 8 -14 14 -34 14 -45z m-42 -1 c-9 -9 -28 6 -21 18 4 6 10 6 17 -1
6 -6 8 -13 4 -17z m-37 6 c0 -5 -4 -10 -10 -10 -5 0 -10 5 -10 10 0 6 5 10 10
10 6 0 10 -4 10 -10z m-870 -30 c-20 -12 -33 -1 -19 16 9 11 15 12 23 4 8 -8
7 -13 -4 -20z m267 24 c-3 -3 -12 -4 -19 -1 -8 3 -5 6 6 6 11 1 17 -2 13 -5z
m367 -8 c37 -13 37 -13 12 -18 -15 -3 -29 -2 -31 2 -3 5 -13 6 -23 3 -10 -2
-24 3 -31 11 -12 14 -10 16 10 16 13 0 41 -6 63 -14z m198 -11 c0 -5 -5 -11
-11 -13 -6 -2 -11 4 -11 13 0 9 5 15 11 13 6 -2 11 -8 11 -13z m-617 -16 c-5
-15 -2 -22 14 -26 11 -3 19 -9 16 -13 -8 -13 13 -60 29 -66 7 -3 25 6 40 19
19 18 26 34 26 62 l0 38 79 -6 c60 -4 90 -11 127 -32 58 -32 94 -63 94 -82 0
-8 7 -28 16 -45 l16 -31 -46 7 c-25 4 -50 4 -56 1 -10 -6 10 -45 38 -74 8 -8
11 -24 7 -38 -8 -32 3 -63 21 -63 12 0 14 -18 12 -102 l-3 -103 -32 -3 c-17
-2 -34 -10 -37 -19 -4 -9 -5 -16 -4 -17 26 -10 62 -38 60 -46 -1 -6 4 -25 11
-43 13 -32 14 -127 2 -232 l-6 -50 -145 0 -146 0 -34 -38 c-30 -33 -34 -43
-29 -70 4 -18 19 -52 35 -77 58 -95 127 -236 122 -249 -5 -16 26 -81 39 -81 5
0 15 -15 23 -34 8 -19 24 -44 35 -55 23 -23 25 -48 15 -148 -6 -57 -9 -62 -46
-84 -21 -13 -49 -34 -62 -45 -14 -12 -64 -41 -113 -64 -48 -23 -109 -58 -134
-76 -26 -19 -51 -34 -57 -34 -24 0 -29 -54 -10 -101 19 -45 21 -46 126 -88 78
-30 132 -44 197 -52 127 -13 157 -19 183 -35 12 -8 22 -10 22 -4 0 20 39 10
46 -12 14 -42 11 -62 -15 -118 -21 -44 -26 -66 -21 -101 l5 -44 3 52 c2 32 9
56 19 65 15 12 15 11 5 -9 -14 -25 -16 -73 -3 -73 4 0 6 -12 4 -27 -4 -26 -3
-27 8 -8 13 20 13 20 18 -3 7 -28 27 -25 24 3 -3 19 -2 19 11 2 11 -14 15 -15
19 -5 3 7 6 3 6 -9 1 -12 4 -30 7 -40 6 -16 5 -15 -9 2 -15 19 -16 19 -23 1
-4 -10 -3 -21 2 -25 5 -3 9 -17 10 -31 0 -14 3 -34 7 -45 5 -14 1 -24 -12 -32
-18 -11 -19 -10 -11 18 5 18 5 27 -1 24 -5 -4 -8 2 -7 12 3 36 -2 63 -12 63
-6 0 -9 -18 -8 -43 2 -32 -1 -42 -12 -42 -8 0 -21 -4 -27 -8 -9 -5 -13 -3 -13
7 0 9 -6 16 -14 16 -8 0 -16 6 -19 13 -5 17 -32 -6 -52 -46 -20 -40 -19 -44 7
-21 l22 19 -17 -27 c-19 -30 -16 -34 13 -18 18 10 19 4 16 -122 -2 -73 -7
-157 -11 -185 l-8 -53 -96 -1 c-53 0 -184 -3 -291 -5 -107 -3 -255 -3 -328 1
l-132 7 5 332 c3 182 7 446 10 586 3 140 5 535 5 876 0 538 2 623 15 634 18
15 19 42 3 58 -8 8 -2 10 25 5 34 -5 37 -4 37 17 0 13 -8 32 -17 42 -16 18
-15 19 5 34 28 19 28 49 1 68 -16 11 -19 20 -14 37 7 22 8 22 23 -7 17 -33 30
-44 54 -44 14 0 16 9 14 52 -2 29 -8 54 -14 56 -20 6 -13 22 8 22 28 0 36 27
15 50 -9 10 -14 24 -10 29 3 7 -3 11 -16 11 -19 0 -20 15 -1 15 4 0 13 4 20 8
7 5 23 0 38 -12 34 -27 37 -27 52 9 11 23 11 38 3 62 -14 39 8 68 50 68 36 0
45 15 25 45 -11 17 -26 25 -46 25 -21 0 -30 5 -30 16 0 12 6 15 25 10 14 -4
25 -2 25 4 0 5 -4 10 -10 10 -5 0 -10 4 -10 9 0 6 20 13 45 17 25 3 48 10 51
15 3 5 19 9 35 9 26 0 29 -3 24 -21z m1014 6 c2 -3 -2 -11 -9 -20 -16 -19 -6
-45 18 -45 31 0 79 -29 85 -51 4 -16 11 -20 26 -16 11 3 25 -1 32 -9 16 -19
26 -10 34 32 5 27 2 41 -10 54 -16 17 -15 19 12 22 21 2 29 9 31 27 3 22 7 23
49 17 25 -3 54 -6 64 -6 11 0 19 -7 19 -15 0 -9 7 -18 15 -21 8 -4 12 -10 9
-15 -8 -13 15 -89 28 -89 6 0 17 8 24 18 13 16 15 16 28 -1 11 -15 11 -23 -6
-56 -21 -42 -16 -91 8 -91 8 0 14 -10 14 -24 0 -35 21 -87 34 -83 6 2 12 17
14 33 7 57 20 45 16 -15 -2 -43 1 -64 11 -75 10 -9 11 -17 5 -21 -17 -10 -11
-35 14 -60 15 -15 31 -22 40 -19 9 3 16 1 16 -5 0 -6 -11 -11 -24 -11 -41 0
-49 -22 -31 -78 13 -40 20 -49 33 -44 24 9 42 34 36 53 -2 8 3 30 12 48 9 17
20 53 25 79 5 28 6 -245 4 -673 -7 -1049 -20 -1984 -28 -1991 -4 -4 -672 -8
-892 -5 l-101 1 4 125 c3 88 1 125 -7 125 -6 0 -11 -16 -11 -35 0 -24 -5 -35
-15 -35 -11 0 -15 -12 -15 -52 0 -40 -3 -49 -12 -40 -9 9 -17 5 -34 -13 -31
-33 -45 -32 -38 4 7 36 -11 71 -36 71 -17 0 -20 -7 -20 -39 0 -22 5 -43 10
-46 6 -3 10 -14 10 -25 0 -13 -5 -17 -20 -13 -15 4 -20 0 -20 -13 0 -16 -2
-17 -15 -3 -12 12 -13 25 -6 64 5 27 7 53 5 57 -3 5 2 8 11 8 12 0 15 5 11 16
-4 11 1 18 14 21 23 6 26 19 8 26 -7 3 -3 6 10 6 25 1 21 21 -4 21 -9 0 -22 6
-29 14 -12 12 -11 15 8 20 l22 7 -22 9 -23 9 23 35 c23 37 45 50 27 17 -14
-27 -13 -31 10 -31 11 0 20 5 20 11 0 6 9 1 20 -12 l19 -24 2 30 1 30 10 -35
c13 -48 26 -58 34 -26 7 29 29 33 57 12 13 -10 17 -28 17 -85 0 -46 4 -70 10
-66 6 3 10 49 10 103 0 73 3 93 12 84 15 -15 37 13 38 46 0 30 -18 64 -31 57
-5 -4 -9 1 -9 9 0 9 4 16 8 16 5 0 14 39 21 88 7 48 15 101 18 119 4 26 0 34
-20 48 -14 9 -29 30 -32 46 -4 16 -11 31 -16 34 -5 4 -9 19 -9 36 0 24 4 29
26 29 14 0 34 5 45 10 15 8 19 7 19 -5 0 -19 10 -19 35 -1 11 7 31 17 45 21
14 4 32 13 40 20 8 7 51 25 95 40 88 29 190 82 219 114 14 15 16 28 11 60 -7
42 -38 91 -58 91 -6 0 -24 15 -41 34 -25 27 -42 35 -86 42 -30 4 -60 7 -67 6
-6 -2 -32 9 -59 23 -26 14 -55 25 -66 25 -36 0 -66 29 -73 72 -5 25 -3 44 4
51 6 6 11 22 11 35 0 15 14 37 35 56 41 38 42 48 15 118 -11 29 -20 69 -20 88
0 19 -7 49 -16 65 -20 37 -29 127 -20 189 7 43 9 46 37 46 17 0 32 -6 35 -15
9 -21 50 -19 74 5 11 11 20 24 20 29 0 5 25 33 56 62 31 30 62 67 71 82 16 31
9 87 -10 87 -12 0 -95 -53 -166 -105 -22 -16 -47 -25 -72 -25 l-39 0 -1 73
c-1 39 0 97 2 127 4 59 3 217 0 315 -3 74 4 173 13 200 4 11 21 51 38 89 40
89 48 154 22 174 -17 13 -10 14 61 8 44 -4 81 -9 84 -11z m-360 -38 c1 -5 -3
-5 -9 -2 -5 3 -10 16 -9 28 0 21 1 21 9 2 5 -11 9 -24 9 -28z m821 32 c0 -5
-5 -7 -12 -3 -8 5 -9 2 -5 -9 3 -9 1 -19 -4 -23 -15 -9 -33 12 -26 30 7 18 47
22 47 5z m230 -19 c0 -16 -2 -30 -4 -30 -2 0 -6 14 -8 30 -3 17 -1 30 4 30 4
0 8 -13 8 -30z m-1890 -1 c0 -6 -4 -7 -10 -4 -5 3 -10 11 -10 16 0 6 5 7 10 4
6 -3 10 -11 10 -16z m769 -37 c1 -7 -4 -10 -9 -7 -6 4 -17 1 -25 -5 -20 -17
-34 -4 -33 30 1 24 5 29 19 25 9 -3 21 0 25 7 6 9 10 5 15 -12 4 -14 7 -31 8
-38z m111 -24 c0 -100 -9 -97 -16 6 -4 51 -2 76 5 76 7 0 11 -30 11 -82z m410
62 c25 -25 26 -40 1 -40 -24 0 -43 23 -35 44 8 20 10 20 34 -4z m483 -4 c-10
-13 -20 -20 -21 -15 -5 12 17 39 30 39 5 0 1 -11 -9 -24z m-1490 2 c6 -21 -4
-48 -19 -48 -20 0 -26 17 -12 40 15 23 24 25 31 8z m761 -40 c-1 -26 -13 -67
-29 -97 -30 -59 -45 -63 -21 -6 20 46 20 55 2 55 -8 0 -20 -16 -26 -35 -6 -19
-23 -44 -37 -54 -28 -23 -23 -47 7 -31 13 7 21 7 25 -1 10 -16 -1 -22 -42 -23
-32 -1 -39 3 -47 26 -8 23 -5 31 21 56 17 15 36 46 42 68 15 52 24 65 58 80
41 18 48 12 47 -38z m-368 -3 c13 -25 27 -40 40 -40 16 0 19 -7 16 -42 -3 -33
1 -44 20 -57 l22 -16 -22 0 c-23 0 -28 -15 -12 -40 5 -9 5 -19 -2 -27 -15 -19
-22 -16 -35 15 -24 57 -25 73 -8 85 14 11 14 14 -5 34 -11 12 -20 27 -20 33 0
5 -5 10 -11 10 -7 0 -9 10 -5 25 4 17 2 27 -8 31 -22 9 -30 36 -8 32 9 -2 26
-21 38 -43z m1033 31 c10 -12 8 -16 -11 -22 -13 -3 -26 -12 -30 -18 -12 -18
-10 12 2 35 13 23 23 24 39 5z m149 -27 c-10 -6 -18 -18 -19 -27 0 -13 -3 -11
-12 7 -9 19 -8 26 8 37 13 10 22 11 29 3 8 -7 6 -13 -6 -20z m-248 0 c0 -11
-4 -17 -10 -14 -5 3 -10 13 -10 21 0 8 5 14 10 14 6 0 10 -9 10 -21z m-1830 7
c0 -3 -4 -8 -10 -11 -5 -3 -10 -1 -10 4 0 6 5 11 10 11 6 0 10 -2 10 -4z m78
-35 c-7 -2 -16 -9 -20 -15 -4 -6 -8 0 -8 15 0 35 12 44 28 22 10 -14 10 -19 0
-22z m1916 14 c-10 -8 -23 -14 -29 -14 -5 -1 1 8 15 19 14 10 27 17 29 14 3
-2 -4 -11 -15 -19z m-411 -10 c-7 -21 -13 -19 -13 6 0 11 4 18 10 14 5 -3 7
-12 3 -20z m-1399 -35 c16 0 31 -18 22 -27 -3 -3 -12 0 -20 6 -8 7 -24 10 -34
7 -16 -6 -54 19 -41 27 42 24 44 24 51 6 4 -11 14 -19 22 -19z m95 16 c9 -11
9 -15 -1 -18 -14 -5 -58 14 -58 25 0 13 47 8 59 -7z m1636 -6 c3 -5 1 -10 -4
-10 -6 0 -11 5 -11 10 0 6 2 10 4 10 3 0 8 -4 11 -10z m-853 -37 c0 -21 0 -46
-1 -57 0 -10 3 -24 8 -30 16 -19 6 -186 -17 -276 -11 -47 -26 -132 -32 -190
-6 -58 -19 -143 -28 -190 l-18 -85 -33 0 -34 0 -2 153 c-2 162 12 199 18 47
l3 -90 0 98 c-1 74 2 96 12 92 8 -3 12 6 12 25 0 17 4 30 9 30 4 0 6 -11 3
-25 -2 -14 0 -25 5 -25 16 0 24 128 10 151 -26 41 -37 22 -37 -63 l0 -83 -20
30 c-16 23 -17 32 -7 40 11 9 14 44 17 210 0 46 3 56 11 42 13 -22 32 -12 24
14 -5 14 0 21 19 29 16 6 26 17 26 30 0 11 7 32 16 45 9 14 14 32 10 40 -7 20
4 75 15 75 5 0 10 -17 11 -37z m-1013 18 c12 -8 12 -12 2 -25 -16 -19 -31 -12
-31 15 0 21 7 23 29 10z m1959 -12 c-2 -6 -8 -10 -13 -10 -5 0 -11 4 -13 10
-2 6 4 11 13 11 9 0 15 -5 13 -11z m45 4 c-7 -2 -13 -13 -13 -23 0 -10 -4 -22
-10 -25 -5 -3 -10 -1 -10 5 0 20 20 50 33 49 9 0 9 -2 0 -6z m-1063 -29 c0 -8
-4 -12 -10 -9 -5 3 -10 10 -10 16 0 5 5 9 10 9 6 0 10 -7 10 -16z m940 3 c0
-17 -38 -53 -46 -44 -8 8 23 57 36 57 6 0 10 -6 10 -13z m-1913 -18 c6 -6 9
-17 6 -24 -3 -10 -9 -10 -22 3 -17 16 -18 32 -2 32 4 0 12 -5 18 -11z m49 -26
c-10 -10 -19 5 -10 18 6 11 8 11 12 0 2 -7 1 -15 -2 -18z m109 19 c14 -10 37
-53 32 -58 -3 -3 -16 -2 -31 2 -21 5 -26 12 -26 35 0 29 7 35 25 21z m-51 -23
c-8 -14 -34 -10 -34 5 0 9 7 12 20 9 11 -3 17 -9 14 -14z m1862 -15 c0 -32 -1
-34 -13 -18 -14 20 -17 37 -6 47 14 14 19 6 19 -29z m-46 0 c0 -22 -2 -25 -15
-14 -12 10 -13 16 -4 26 16 20 19 18 19 -12z m-1092 -17 c7 -15 18 -27 24 -27
6 0 9 -3 6 -6 -10 -9 -44 13 -62 41 -17 26 -17 27 1 23 10 -2 24 -16 31 -31z
m1226 -29 c3 -16 1 -30 -5 -34 -14 -8 -29 14 -22 33 3 7 -2 13 -11 13 -19 0
-21 11 -4 28 15 15 33 -1 42 -40z m-2068 27 c6 -16 -12 -45 -27 -45 -10 0 -12
44 -2 53 11 11 23 8 29 -8z m1928 -40 c-4 -8 -10 -15 -15 -15 -5 0 -9 7 -9 15
0 8 7 15 15 15 9 0 12 -6 9 -15z m81 -45 c-25 -28 -44 -10 -25 25 12 23 15 24
29 11 13 -14 13 -18 -4 -36z m-1168 14 c-3 -3 -12 -4 -19 -1 -8 3 -5 6 6 6 11
1 17 -2 13 -5z m323 -4 c0 -13 -20 -13 -40 0 -12 8 -9 10 13 10 15 0 27 -4 27
-10z m-1098 -48 c-8 -2 -22 3 -30 12 -15 15 -14 16 6 16 12 0 22 6 23 13 1 6
4 1 8 -13 5 -18 3 -26 -7 -28z m1998 25 c0 -19 -47 -61 -54 -49 -6 11 30 62
45 62 5 0 9 -6 9 -13z m-1950 -7 c0 -5 -4 -10 -10 -10 -5 0 -10 5 -10 10 0 6
5 10 10 10 6 0 10 -4 10 -10z m757 -12 c-3 -8 -6 -5 -6 6 -1 11 2 17 5 13 3
-3 4 -12 1 -19z m289 -40 c0 -29 4 -108 7 -175 7 -104 5 -123 -9 -137 -18 -19
-16 -118 5 -196 9 -32 10 -90 5 -202 l-6 -156 -37 38 c-35 37 -88 60 -141 60
-18 0 -21 3 -11 9 8 5 11 16 8 24 -3 9 -2 17 2 19 4 2 11 15 15 31 5 21 3 27
-11 28 -16 1 -16 2 1 6 15 4 16 7 5 15 -11 7 -11 11 -1 15 6 2 10 9 6 14 -3 5
0 9 6 9 6 0 8 5 5 10 -3 6 0 10 7 10 9 0 9 3 -2 10 -8 5 -10 10 -3 10 6 0 10
13 9 30 -2 21 2 30 13 31 11 0 12 2 3 6 -6 2 -9 9 -6 15 4 6 8 18 9 27 0 9 5
34 10 56 7 36 9 38 17 15 5 -15 5 -27 -2 -34 -15 -15 -12 -36 5 -36 8 0 19 9
25 20 13 24 -6 98 -29 116 -8 6 -11 16 -7 22 4 7 0 12 -11 13 -16 1 -16 2 1 6
15 4 16 7 5 14 -12 8 -12 11 1 19 13 9 13 10 0 10 -10 0 -11 3 -4 8 7 4 11 18
10 32 -1 14 7 47 16 73 10 27 16 52 13 58 -4 5 1 9 11 9 13 0 14 3 4 15 -10
12 -10 15 4 15 9 0 15 3 14 8 -2 12 21 62 29 62 5 0 8 -24 9 -52z m921 20 c-3
-8 -6 -5 -6 6 -1 11 2 17 5 13 3 -3 4 -12 1 -19z m-90 -20 c-3 -7 -5 -2 -5 12
0 14 2 19 5 13 2 -7 2 -19 0 -25z m75 0 c3 -7 2 -38 -1 -68 -7 -55 -11 -52
-25 13 -10 45 13 92 26 55z m-1195 -181 c2 -100 6 -209 9 -242 7 -68 -3 -72
-11 -4 -13 102 -14 429 -1 429 0 0 2 -82 3 -183z m-865 131 c-16 -16 -37 4
-28 28 6 16 8 16 23 1 13 -13 15 -19 5 -29z m84 16 c-3 -9 -6 -21 -6 -27 0 -7
-5 -4 -11 6 -11 18 -5 37 13 37 5 0 7 -7 4 -16z m813 -51 c-1 -58 -2 -63 -9
-34 -7 31 -3 101 6 101 2 0 4 -30 3 -67z m1115 4 c-3 -9 -10 -17 -15 -17 -14
0 -22 27 -15 47 6 15 8 15 22 2 8 -9 12 -23 8 -32z m-2024 -17 c0 -5 -4 -10
-10 -10 -5 0 -10 5 -10 10 0 6 5 10 10 10 6 0 10 -4 10 -10z m2018 -80 c-7
-11 -16 -16 -21 -11 -12 12 0 31 19 31 12 0 12 -3 2 -20z m-1988 -35 c20 -24
5 -28 -21 -6 -19 16 -20 20 -8 21 9 0 22 -7 29 -15z m1040 -114 c0 -6 -4 -13
-10 -16 -5 -3 -10 1 -10 9 0 9 5 16 10 16 6 0 10 -4 10 -9z m410 -156 c0 -32
-31 -75 -75 -105 -25 -17 -51 -43 -59 -59 -17 -32 -44 -57 -53 -47 -3 3 1 14
9 23 9 10 25 36 36 58 11 22 32 51 46 64 37 35 32 46 -9 21 -55 -34 -41 -14
18 25 56 37 87 44 87 20z m-600 -71 c0 -8 -7 -14 -15 -14 -8 0 -15 9 -15 20 0
13 5 18 15 14 8 -4 15 -12 15 -20z m420 -74 c-6 -11 -15 -18 -21 -15 -5 4 -9
1 -9 -4 0 -6 -5 -11 -11 -11 -5 0 -7 6 -3 13 5 8 2 8 -9 -2 -13 -10 -17 -10
-17 -1 0 9 -4 10 -13 2 -10 -9 -13 -6 -12 13 0 30 3 33 45 40 19 3 40 11 45
16 15 15 19 -25 5 -51z m-377 34 c30 -5 37 -10 37 -27 0 -21 -20 -62 -20 -43
0 5 -7 3 -15 -4 -12 -10 -15 -10 -16 1 0 8 -4 5 -9 -6 -5 -11 -9 -14 -9 -7 -1
6 -5 12 -11 12 -5 0 -7 -7 -4 -15 4 -8 1 -15 -5 -15 -6 0 -11 7 -11 15 0 8 -5
15 -10 15 -6 0 -10 -8 -8 -17 2 -12 -4 -19 -19 -21 -18 -3 -23 2 -23 17 0 12
-5 21 -11 21 -6 0 -9 -7 -5 -15 3 -8 1 -15 -4 -15 -6 0 -10 8 -10 18 0 9 -3
13 -8 7 -4 -6 -20 -12 -37 -14 -36 -4 -44 -9 -27 -20 17 -10 52 -81 52 -106 0
-36 -36 -115 -60 -132 -15 -11 -20 -12 -15 -3 6 9 4 12 -7 8 -8 -4 -20 2 -26
13 -8 12 -8 19 -2 19 5 0 10 4 10 10 0 5 -7 6 -17 3 -11 -4 -14 -3 -9 5 4 7 3
12 -2 12 -4 0 -26 33 -47 73 -21 39 -46 83 -57 96 -43 56 -14 103 73 120 44 9
262 6 332 -5z m22 -135 c-4 -12 -18 -37 -31 -56 -13 -20 -24 -41 -24 -47 0 -5
-6 -4 -14 4 -13 13 -20 51 -17 88 2 20 21 3 21 -19 0 -10 5 -19 10 -19 6 0 10
7 10 15 0 8 5 15 11 15 6 0 9 6 6 14 -7 17 1 26 20 26 10 0 12 -6 8 -21z
m-152 -50 c13 -24 15 -35 6 -45 -17 -21 -31 -17 -19 6 8 15 6 24 -10 40 -11
11 -20 24 -20 30 0 18 25 0 43 -31z m35 9 c14 -14 16 -38 4 -38 -5 0 -14 11
-20 25 -12 26 -4 33 16 13z m219 -33 c28 -8 57 -23 64 -33 7 -9 9 -14 5 -10
-5 4 -15 3 -21 -2 -9 -8 -14 -6 -19 5 -8 21 -36 19 -36 -4 0 -11 13 -25 33
-35 25 -12 27 -16 12 -16 -12 0 -26 5 -32 11 -6 6 -17 9 -25 7 -7 -3 6 -14 30
-27 51 -26 49 -38 -3 -21 -33 11 -66 7 -34 -4 59 -22 73 -29 57 -33 -9 -2 -26
1 -37 7 -15 7 -21 7 -21 0 0 -6 11 -15 25 -20 14 -5 25 -12 25 -16 0 -3 -11
-3 -25 0 -35 9 -31 -3 5 -15 31 -11 41 -29 15 -29 -8 0 -15 5 -15 10 0 6 -4
10 -9 10 -15 0 -23 -38 -12 -57 9 -17 10 -17 16 0 4 9 11 17 16 17 14 0 11
-30 -3 -30 -7 -1 -2 -9 11 -20 25 -22 49 -17 31 6 -9 10 -8 33 4 92 9 44 16
82 16 86 0 4 5 4 10 1 15 -9 12 -76 -4 -94 -20 -23 -25 -76 -7 -76 9 0 15 11
15 28 1 16 8 32 15 36 8 5 11 17 7 28 -4 11 -2 32 4 47 8 23 6 30 -16 51 -14
13 -21 25 -17 28 5 3 23 -10 41 -29 20 -20 27 -34 18 -34 -17 0 -26 -42 -14
-64 5 -8 15 -13 23 -10 26 10 15 -22 -36 -104 -21 -33 0 -40 25 -9 l22 27 24
-25 c13 -14 18 -25 12 -25 -6 0 -14 5 -17 10 -9 15 -38 -17 -31 -35 3 -10 0
-12 -11 -8 -12 5 -14 1 -9 -15 4 -11 2 -23 -4 -27 -5 -3 -10 3 -10 14 0 25
-51 63 -110 82 -76 24 -155 16 -252 -26 -10 -4 -18 -3 -18 3 0 5 20 16 45 23
25 7 45 17 45 21 0 12 -38 9 -60 -4 -16 -11 -22 -9 -34 7 -18 23 -20 35 -7 35
5 0 13 -9 16 -20 8 -26 21 -25 36 3 7 12 18 25 25 30 7 4 11 19 9 35 -2 15 -1
41 2 57 l6 30 9 -25 c13 -34 1 -110 -18 -110 -8 0 -14 -4 -14 -10 0 -15 26
-12 40 5 7 8 18 54 25 102 l13 88 1 -83 c1 -53 5 -81 11 -77 6 3 10 24 10 45
0 21 6 41 13 44 10 5 10 7 0 12 -18 8 -16 89 2 124 18 34 23 35 92 15z m-177
-51 c0 -3 -7 -12 -15 -21 -9 -8 -13 -23 -10 -33 7 -22 -10 -36 -18 -16 -7 18
3 59 17 68 13 9 26 10 26 2z m-64 -31 c-8 -8 -36 5 -36 17 0 7 6 7 21 0 11 -7
18 -14 15 -17z m-20 -18 c16 -12 16 -14 3 -15 -9 0 -22 7 -29 15 -16 19 0 19
26 0z m98 -10 c-4 -8 -8 -15 -10 -15 -2 0 -4 7 -4 15 0 8 4 15 10 15 5 0 7 -7
4 -15z m-118 -50 c-10 -8 -23 -12 -29 -8 -5 3 -7 -3 -3 -14 7 -21 -28 -62 -41
-49 -11 10 22 59 49 73 31 17 47 16 24 -2z m67 -16 c-6 -23 -16 -17 -18 10 -1
11 4 17 11 14 6 -2 9 -13 7 -24z m-13 -41 c0 -11 -8 -10 -31 2 -28 16 -23 30
6 17 14 -7 25 -15 25 -19z m-50 -2 c0 -3 -4 -8 -10 -11 -5 -3 -10 -1 -10 4 0
6 5 11 10 11 6 0 10 -2 10 -4z m40 -38 c0 -13 -23 -5 -28 10 -2 7 2 10 12 6 9
-3 16 -11 16 -16z m-89 -11 c-1 -12 -15 -9 -19 4 -3 6 1 10 8 8 6 -3 11 -8 11
-12z m38 -67 c3 -25 3 -25 -18 -6 -26 23 -27 39 -3 34 9 -2 19 -14 21 -28z
m276 -10 c3 -6 -1 -7 -9 -4 -18 7 -21 14 -7 14 6 0 13 -4 16 -10z m-148 -137
c-3 -65 -12 -147 -21 -183 -16 -69 -22 -205 -8 -196 5 3 12 43 15 88 3 46 13
109 22 141 8 32 15 92 15 134 0 42 2 74 5 72 2 -3 5 -90 6 -194 1 -105 6 -195
11 -201 5 -7 5 -29 0 -50 -10 -44 -6 -67 10 -58 6 4 9 1 6 -7 -3 -8 -23 -18
-46 -23 -24 -5 -42 -15 -42 -22 0 -8 -9 -13 -22 -11 -15 1 -24 -5 -29 -23 -4
-16 -7 -19 -8 -7 -1 9 -6 17 -12 17 -6 0 -8 -8 -5 -17 5 -15 4 -15 -9 1 -15
20 -15 20 -16 0 0 -18 -1 -18 -9 1 -5 11 -9 16 -10 10 -1 -5 -5 -1 -10 10 -8
18 -9 18 -10 -5 -1 -23 -2 -23 -10 -5 l-9 20 -1 -20 c-2 -17 -3 -16 -10 5 -7
21 -8 22 -10 5 -2 -17 -3 -16 -10 5 -8 24 -8 24 -9 3 -1 -13 -5 -23 -11 -23
-5 0 -10 10 -11 23 -1 21 -1 21 -9 -3 l-8 -25 -1 25 c-2 24 -2 24 -13 5 -12
-19 -12 -19 -19 5 -7 24 -7 24 -8 3 -1 -13 -6 -23 -11 -23 -6 0 -8 12 -5 28
l6 27 -16 -30 c-12 -23 -14 -25 -11 -7 2 12 0 22 -5 22 -5 0 -9 -6 -9 -14 0
-9 -9 -14 -20 -13 -15 1 -18 6 -14 20 4 13 2 17 -5 13 -6 -4 -11 -2 -11 5 0 9
-4 9 -15 -1 -18 -15 -36 -4 -28 18 6 15 5 16 -12 2 -17 -14 -18 -13 -11 5 5
15 4 17 -5 8 -17 -17 -51 18 -51 52 0 31 38 75 64 75 10 0 18 5 18 11 0 6 7 9
15 5 8 -3 15 0 15 7 0 8 4 6 10 -3 8 -12 10 -10 10 9 0 20 2 21 15 11 12 -10
15 -10 15 4 0 17 20 18 32 1 4 -5 8 0 8 11 0 15 8 24 25 28 13 3 34 16 45 28
11 12 20 16 20 10 0 -7 7 -12 16 -12 11 0 14 6 9 20 -5 14 -2 20 10 20 12 0
15 -7 13 -27 -2 -16 -7 -28 -13 -28 -5 0 -15 -4 -22 -8 -6 -4 -18 -4 -27 -1
-12 4 -16 0 -16 -15 0 -12 -4 -21 -10 -21 -5 0 -10 5 -10 12 0 23 -24 -11 -25
-36 -3 -49 -76 -107 -96 -75 -6 11 -11 11 -20 2 -10 -10 -9 -14 4 -19 9 -3 17
-12 17 -20 0 -31 89 -4 112 33 10 16 18 22 18 15 0 -7 4 -10 10 -7 5 3 15 -5
22 -20 8 -18 17 -24 30 -19 14 4 18 0 19 -23 2 -27 2 -27 6 -3 8 43 23 46 18
4 -3 -28 -3 -32 3 -14 5 17 10 21 16 12 17 -28 23 -7 30 96 4 59 16 145 27
192 11 47 20 100 22 117 1 18 5 33 8 33 3 0 6 16 7 36 2 54 12 55 12 2 0 -25
-10 -89 -21 -144 -12 -54 -25 -117 -30 -139 -4 -22 -8 -77 -9 -121 0 -67 3
-83 16 -88 9 -4 20 -3 23 0 3 4 0 9 -6 11 -15 5 -18 53 -3 53 6 0 10 19 10 43
0 23 9 102 20 175 11 74 20 162 20 196 0 35 3 66 7 69 20 21 24 -3 20 -110z
m133 107 c0 -5 -7 -13 -16 -18 -14 -8 -15 -20 -10 -76 4 -36 12 -66 17 -66 6
0 8 25 4 63 -5 51 -4 59 6 42 7 -10 14 -52 17 -92 6 -92 22 -106 23 -21 l1 63
14 -50 c7 -27 17 -96 20 -153 8 -111 24 -150 24 -55 0 55 -9 133 -25 216 -6
31 -5 36 8 31 17 -6 34 -66 47 -166 5 -39 13 -74 18 -77 5 -3 12 -44 16 -90 8
-90 13 -111 27 -111 5 0 7 17 4 38 -16 130 -17 155 -7 148 5 -3 15 -39 22 -79
13 -84 29 -129 41 -121 11 6 8 36 -3 44 -4 4 -9 19 -12 35 -2 17 -1 24 1 18 2
-7 11 -13 19 -13 8 0 14 -5 14 -11 0 -5 11 2 24 16 22 23 25 24 29 8 3 -11 5
-7 7 12 1 28 2 29 12 9 9 -20 14 -21 46 -12 20 6 53 8 73 5 37 -5 38 -4 28 21
-13 34 5 53 21 22 9 -16 15 -19 23 -11 8 8 5 16 -10 30 -11 11 -24 17 -27 14
-3 -4 -6 -1 -6 6 0 8 -7 11 -15 7 -8 -3 -15 -1 -15 4 0 12 -53 2 -61 -12 -4
-7 -9 -3 -12 8 -4 16 -5 16 -6 -3 0 -13 -3 -23 -5 -23 -2 0 -11 -3 -20 -6 -11
-4 -16 0 -17 12 0 11 -3 14 -6 7 -2 -7 -12 -13 -20 -13 -27 0 3 25 47 40 32
10 38 16 29 27 -13 15 -45 17 -54 3 -3 -5 -12 -10 -18 -10 -7 0 -3 7 7 15 26
19 72 19 80 0 3 -8 16 -15 28 -15 39 0 145 -56 153 -80 4 -14 2 -25 -5 -30 -7
-5 -9 -13 -5 -21 6 -9 3 -11 -9 -6 -14 6 -17 3 -12 -9 5 -12 2 -15 -10 -10
-12 5 -15 2 -10 -10 6 -15 4 -15 -10 -3 -14 11 -18 11 -21 1 -3 -6 -9 -10 -14
-6 -5 3 -9 1 -9 -5 0 -5 5 -13 12 -17 7 -5 3 -10 -12 -16 -17 -6 -28 -4 -41 8
-21 19 -26 6 -6 -16 6 -8 1 -6 -12 5 l-24 20 8 -25 c7 -23 6 -24 -7 -6 -11 14
-19 16 -33 9 -12 -7 -14 -13 -6 -17 6 -4 11 -12 11 -19 0 -8 -3 -8 -12 1 -18
18 -38 15 -39 -5 0 -11 -3 -13 -6 -5 -2 6 -9 12 -15 12 -6 0 -8 -7 -4 -15 3
-8 1 -15 -3 -15 -5 0 -12 6 -14 13 -3 7 -6 5 -6 -5 -1 -21 -17 -24 -24 -5 -3
6 -6 1 -7 -13 -1 -24 -1 -24 -15 -6 -14 18 -15 18 -15 2 0 -17 -1 -17 -17 0
-17 16 -18 16 -21 1 -2 -9 -8 -17 -13 -17 -6 0 -8 4 -5 9 12 18 -6 72 -23 70
-32 -3 -41 1 -42 19 0 10 -3 12 -6 5 -6 -17 -26 -17 -21 -1 3 7 -5 23 -17 36
-22 23 -23 23 -43 6 -12 -10 -19 -21 -16 -26 3 -4 0 -8 -5 -8 -6 0 -11 11 -11
24 0 13 -7 29 -15 36 -11 9 -15 28 -14 60 1 25 -1 53 -6 60 -5 8 -10 92 -12
186 -3 172 -2 173 20 177 40 8 57 7 57 -3z m38 -39 c19 -36 19 -51 1 -51 -4 0
-10 12 -13 28 -4 15 -9 35 -12 45 -9 29 3 19 24 -22z m76 8 c40 -47 32 -67 -9
-23 -19 20 -35 41 -35 45 0 18 19 8 44 -22z m-19 -57 c-8 -8 -25 10 -25 26 0
13 2 13 14 -4 8 -10 13 -21 11 -22z m70 8 c3 -5 1 -10 -4 -10 -6 0 -11 5 -11
10 0 6 2 10 4 10 3 0 8 -4 11 -10z m109 -198 c28 -14 34 -21 24 -28 -9 -7 -21
-2 -43 18 -35 33 -32 34 19 10z m-487 -99 c-3 -10 -5 -4 -5 12 0 17 2 24 5 18
2 -7 2 -21 0 -30z m463 -7 c0 -10 -28 -7 -35 4 -11 18 5 31 21 16 8 -8 14 -17
14 -20z m217 -26 c3 -10 2 -11 -4 -4 -4 7 -17 14 -28 17 -16 5 -15 5 4 4 14
-1 26 -9 28 -17z m-64 -37 c-7 -2 -21 -2 -30 0 -10 3 -4 5 12 5 17 0 24 -2 18
-5z m-716 -19 c-3 -3 -12 -4 -19 -1 -8 3 -5 6 6 6 11 1 17 -2 13 -5z m257 -40
c3 -8 2 -12 -4 -9 -6 3 -10 10 -10 16 0 14 7 11 14 -7z m-484 -94 c0 -5 -5
-10 -11 -10 -5 0 -7 5 -4 10 3 6 8 10 11 10 2 0 4 -4 4 -10z m550 -4 c6 -8 28
-16 48 -18 39 -3 47 -23 9 -23 -19 0 -22 -6 -23 -39 -1 -38 -17 -58 -40 -49
-6 2 -15 0 -19 -6 -3 -7 3 -11 15 -11 35 0 60 -19 60 -45 0 -14 4 -25 8 -25
11 0 30 -79 27 -110 -1 -14 -6 -24 -11 -23 -5 1 -10 -13 -11 -30 l-3 -32 20
30 c11 17 20 48 21 70 0 26 3 34 7 22 13 -32 5 -199 -9 -208 -19 -11 -24 -2
-9 16 8 10 9 15 2 15 -6 0 -18 -12 -26 -27 -10 -19 -15 -23 -16 -11 0 9 5 20
10 23 6 3 10 16 10 28 0 18 2 19 10 7 8 -13 10 -13 10 2 0 27 -17 30 -32 5
-25 -37 -37 -117 -24 -152 5 -13 5 -16 -1 -7 -7 9 -14 2 -26 -23 -9 -20 -17
-43 -17 -53 0 -14 -2 -15 -10 -2 -5 8 -7 25 -4 36 3 12 1 31 -5 42 -7 14 -8
23 -1 27 5 3 10 18 10 33 0 21 3 24 10 12 11 -18 16 -7 23 55 l5 40 -14 -32
c-8 -18 -16 -33 -17 -33 -6 0 18 88 26 96 13 13 7 24 -13 24 -17 0 -20 -7 -20
-44 0 -25 -3 -47 -7 -49 -5 -3 -6 15 -5 39 4 41 2 45 -32 64 -19 12 -38 30
-41 40 -7 22 1 117 12 147 10 27 4 115 -7 108 -4 -3 -13 2 -20 10 -7 8 -19 15
-27 15 -34 0 -3 25 45 36 29 6 55 14 59 18 11 10 30 7 43 -8z m134 -327 c-8
-17 -9 -13 -9 21 0 34 1 38 9 21 5 -13 5 -29 0 -42z m-257 -11 c-3 -7 -5 -2
-5 12 0 14 2 19 5 13 2 -7 2 -19 0 -25z m203 -213 c0 -14 -4 -25 -9 -25 -12 0
-23 29 -15 41 10 18 24 9 24 -16z m43 -38 c-7 -11 -23 12 -23 33 1 12 4 11 15
-4 8 -10 12 -23 8 -29z m-265 -12 c-6 -14 -15 -25 -20 -25 -9 0 -4 14 15 38
15 19 18 14 5 -13z m42 -272 c0 -7 -4 -13 -10 -13 -5 0 -10 12 -10 28 0 21 2
24 10 12 5 -8 10 -21 10 -27z m100 -88 c0 -3 -12 -5 -26 -5 -20 0 -25 4 -20
16 3 9 6 21 6 27 0 6 9 1 20 -11 11 -12 20 -24 20 -27z m1023 -35 c15 0 17
-12 17 -120 l0 -120 -332 -2 c-183 -1 -648 -1 -1033 0 -385 1 -710 2 -722 2
-23 0 -23 2 -23 126 l0 127 1038 -6 c570 -4 1045 -7 1055 -7z"/>
<path d="M1238 3795 c-2 -3 -69 -5 -147 -6 -105 0 -141 -3 -138 -12 2 -7 15
-13 30 -15 35 -4 54 -27 37 -46 -6 -8 -21 -16 -32 -18 -12 -2 -23 -9 -26 -17
-3 -9 1 -11 14 -7 11 3 77 6 148 7 71 1 140 4 153 7 38 7 26 24 -14 20 -26 -2
-38 1 -37 10 1 6 2 21 3 32 1 15 8 20 31 20 32 0 40 14 14 24 -19 7 -29 8 -36
1z m-98 -60 c0 -28 -4 -35 -19 -35 -10 0 -24 7 -31 15 -10 13 -10 19 5 35 28
31 45 25 45 -15z m55 4 c0 -13 -6 -24 -12 -24 -7 0 -13 3 -13 8 0 4 0 16 0 28
0 12 5 19 13 17 6 -3 12 -16 12 -29z"/>
<path d="M844 1162 c3 -5 -5 -7 -19 -4 -34 6 -31 -4 5 -23 26 -14 30 -14 30
-1 0 10 6 13 16 9 12 -4 15 -2 12 8 -2 8 -15 16 -27 17 -13 2 -21 -1 -17 -6z"/>
<path d="M764 1113 c3 -4 22 -12 41 -19 38 -13 58 -1 26 15 -22 12 -78 15 -67
4z"/>
<path d="M740 1081 c0 -9 59 -31 83 -31 20 0 4 20 -20 26 -16 3 -36 8 -45 11
-10 2 -18 0 -18 -6z"/>
<path d="M716 1032 c-3 -5 17 -14 44 -19 44 -9 75 -3 53 10 -19 11 -91 18 -97
9z"/>
<path d="M710 992 c0 -5 7 -13 16 -16 25 -10 84 -7 84 4 0 6 -12 10 -27 10
-16 0 -38 3 -50 6 -13 4 -23 2 -23 -4z"/>
<path d="M706 931 c-3 -5 5 -12 19 -15 29 -7 75 2 75 15 0 12 -87 12 -94 0z"/>
<path d="M753 893 c-24 -8 -43 -19 -43 -25 0 -6 6 -8 14 -5 8 3 31 9 50 13 21
3 36 12 36 20 0 17 -3 17 -57 -3z"/>
<path d="M768 857 c-46 -20 -62 -37 -35 -37 24 0 98 41 92 50 -4 6 -7 10 -8 9
-1 -1 -23 -10 -49 -22z"/>
<path d="M946 833 c11 -45 26 -64 20 -24 -3 18 -6 37 -6 42 0 5 -5 9 -10 9 -6
0 -8 -11 -4 -27z"/>
<path d="M787 823 c-22 -15 -34 -29 -29 -31 12 -4 82 37 82 49 0 15 -13 10
-53 -18z"/>
<path d="M807 792 c-33 -35 -34 -45 -4 -29 25 13 57 42 57 51 0 15 -29 3 -53
-22z"/>
<path d="M842 767 c-37 -39 -41 -52 -9 -36 23 12 56 48 57 62 0 15 -17 6 -48
-26z"/>
<path d="M1324 1175 c-28 -13 -64 -45 -50 -45 4 0 25 9 47 20 l40 21 -13 -21
c-7 -12 -26 -24 -41 -27 -19 -4 -25 -9 -18 -16 23 -23 107 35 95 67 -7 19 -18
19 -60 1z"/>
<path d="M1380 1119 c0 -5 -16 -17 -35 -25 -34 -14 -52 -43 -19 -30 9 3 26 9
39 12 27 7 53 54 30 54 -8 0 -15 -5 -15 -11z"/>
<path d="M1348 1058 c-16 -5 -28 -14 -28 -19 0 -5 11 -4 26 1 14 6 36 10 50
10 13 0 24 5 24 10 0 12 -36 12 -72 -2z"/>
<path d="M1373 1017 c-24 -5 -43 -14 -43 -20 0 -5 11 -6 26 -3 15 4 39 10 55
13 16 3 26 9 23 14 -6 10 -4 10 -61 -4z"/>
<path d="M1330 961 c0 -4 25 -8 55 -8 30 0 55 4 55 8 0 5 -25 9 -55 9 -30 0
-55 -4 -55 -9z"/>
<path d="M1324 932 c10 -16 95 -27 109 -13 8 8 5 11 -13 11 -14 0 -43 3 -64 7
-27 4 -37 3 -32 -5z"/>
<path d="M1320 902 c0 -14 79 -54 98 -50 11 3 0 13 -35 31 -57 29 -63 31 -63
19z"/>
<path d="M1310 861 c0 -12 57 -41 79 -41 9 0 -2 12 -24 25 -43 27 -55 30 -55
16z"/>
<path d="M1294 832 c10 -17 85 -64 96 -60 13 4 -68 68 -87 68 -8 0 -12 -4 -9
-8z"/>
<path d="M1307 768 c23 -23 45 -40 47 -37 9 8 -58 79 -74 79 -9 0 2 -17 27
-42z"/>
<path d="M1250 787 c0 -7 18 -31 40 -52 22 -21 40 -34 40 -29 0 6 -9 19 -20
29 -11 10 -22 26 -25 35 -7 22 -35 35 -35 17z"/>
<path d="M1230 766 c0 -18 58 -96 71 -96 5 0 -6 21 -23 48 -42 63 -48 69 -48
48z"/>
<path d="M1992 553 c2 -13 12 -18 38 -18 51 0 48 29 -3 33 -33 3 -38 1 -35
-15z"/>
<path d="M1875 511 c-8 -14 28 -31 67 -32 32 -1 31 -2 -10 -11 -54 -12 -50
-32 6 -36 62 -5 51 -18 -19 -25 -66 -6 -79 -11 -61 -29 8 -8 15 -8 24 -1 7 6
31 13 53 14 39 3 40 3 39 -29 -2 -25 2 -32 17 -32 15 0 17 5 13 29 l-6 30 63
3 c70 3 85 19 42 42 -21 11 -23 15 -10 16 11 0 15 5 11 11 -3 6 -17 9 -30 6
-13 -2 -24 0 -24 4 0 5 10 10 23 11 12 0 2 4 -23 8 -39 6 -40 7 -12 8 17 1 32
7 32 12 0 13 -187 13 -195 1z m162 -57 c-3 -3 -12 -4 -19 -1 -8 3 -5 6 6 6 11
1 17 -2 13 -5z m58 -35 c4 -6 5 -12 2 -15 -7 -8 -87 8 -87 17 0 13 78 11 85
-2z"/>
<path d="M1170 374 c0 -32 4 -53 9 -49 12 7 12 105 0 105 -5 0 -9 -25 -9 -56z"/>
<path d="M2050 359 c0 -5 5 -7 10 -4 6 3 10 8 10 11 0 2 -4 4 -10 4 -5 0 -10
-5 -10 -11z"/>
<path d="M881 2374 c0 -11 3 -14 6 -6 3 7 2 16 -1 19 -3 4 -6 -2 -5 -13z"/>
<path d="M1020 2080 c0 -5 7 -10 16 -10 8 0 12 5 9 10 -3 6 -10 10 -16 10 -5
0 -9 -4 -9 -10z"/>
<path d="M1023 2030 c-1 -13 4 -20 16 -20 12 0 17 -7 17 -21 -1 -12 5 -24 12
-26 8 -3 12 8 12 37 0 33 -3 41 -15 36 -8 -3 -15 -1 -15 4 0 19 -26 10 -27
-10z"/>
<path d="M971 1324 c0 -11 3 -14 6 -6 3 7 2 16 -1 19 -3 4 -6 -2 -5 -13z"/>
<path d="M945 1320 c3 -5 8 -10 11 -10 2 0 4 5 4 10 0 6 -5 10 -11 10 -5 0 -7
-4 -4 -10z"/>
<path d="M581 1284 c0 -11 3 -14 6 -6 3 7 2 16 -1 19 -3 4 -6 -2 -5 -13z"/>
<path d="M1074 1634 c3 -26 6 -80 6 -120 0 -43 4 -74 10 -74 11 0 13 107 4
188 -4 28 -11 52 -17 52 -6 0 -7 -18 -3 -46z"/>
<path d="M1441 1494 c0 -11 3 -14 6 -6 3 7 2 16 -1 19 -3 4 -6 -2 -5 -13z"/>
<path d="M1546 1345 c4 -8 8 -15 10 -15 2 0 4 7 4 15 0 8 -4 15 -10 15 -5 0
-7 -7 -4 -15z"/>
<path d="M1050 1081 c0 -11 30 -19 48 -14 23 8 12 23 -18 23 -16 0 -30 -4 -30
-9z"/>
<path d="M1060 1040 c0 -5 6 -10 14 -10 8 0 18 5 21 10 3 6 -3 10 -14 10 -12
0 -21 -4 -21 -10z"/>
<path d="M1060 1000 c0 -11 -6 -20 -12 -19 -26 3 -38 -1 -38 -15 0 -18 40 -28
57 -14 15 12 17 54 3 63 -5 3 -10 -3 -10 -15z"/>
<path d="M1133 992 c-5 -4 -12 -15 -16 -25 -6 -15 -2 -18 20 -15 16 2 29 10
31 19 3 18 -19 31 -35 21z"/>
<path d="M1190 870 c0 -5 5 -10 10 -10 6 0 10 5 10 10 0 6 -4 10 -10 10 -5 0
-10 -4 -10 -10z"/>
<path d="M1141 844 c0 -11 3 -14 6 -6 3 7 2 16 -1 19 -3 4 -6 -2 -5 -13z"/>
<path d="M1122 790 c0 -14 2 -19 5 -12 2 6 2 18 0 25 -3 6 -5 1 -5 -13z"/>
<path d="M1093 703 c-3 -10 -8 -22 -11 -26 -2 -5 5 -3 17 5 23 14 26 24 11 33
-6 3 -13 -2 -17 -12z"/>
<path d="M70 230 c0 -11 5 -20 10 -20 6 0 10 5 10 10 0 6 7 10 16 10 14 0 16
-11 12 -70 -4 -70 -4 -70 22 -70 l26 0 -9 65 c-10 73 -6 85 23 67 27 -16 30
-15 30 8 0 18 -7 20 -70 20 -63 0 -70 -2 -70 -20z"/>
<path d="M237 243 c-3 -4 -5 -41 -6 -80 -1 -67 0 -73 19 -73 17 0 20 7 20 41
0 38 1 40 28 37 25 -3 27 -6 26 -44 0 -33 3 -40 15 -37 22 6 17 163 -5 163 -9
0 -14 -11 -14 -30 0 -25 -4 -30 -24 -30 -19 0 -25 6 -28 27 -3 26 -22 42 -31
26z"/>
<path d="M376 174 l1 -79 45 -3 c31 -2 49 2 58 13 18 22 4 32 -18 12 -30 -28
-52 -22 -52 14 0 26 3 29 20 24 16 -5 20 -2 20 14 0 24 -10 27 -28 9 -9 -9
-12 -5 -12 20 0 24 4 32 18 32 10 0 23 -5 29 -11 8 -8 13 -8 18 1 11 17 0 22
-52 27 l-48 5 1 -78z"/>
<path d="M842 241 c-10 -6 -13 -26 -10 -66 2 -40 -1 -60 -9 -62 -7 -3 -13 2
-13 9 0 8 -7 38 -15 66 -14 47 -19 52 -44 52 -27 0 -29 -3 -35 -52 -4 -29 -10
-63 -13 -75 -4 -18 -1 -23 14 -23 16 0 19 5 15 30 -4 27 -2 30 22 30 21 0 28
-6 32 -29 5 -25 12 -31 45 -36 21 -4 46 -2 55 3 16 9 15 10 -4 16 -18 6 -22
15 -22 47 0 21 2 39 4 39 2 0 14 -16 26 -35 54 -87 73 -83 80 13 4 62 3 72
-11 72 -14 0 -16 -8 -11 -45 3 -28 1 -45 -6 -45 -9 0 -57 71 -52 79 2 4 -22
21 -30 21 -3 0 -11 -4 -18 -9z m-72 -52 c0 -10 -7 -19 -15 -19 -15 0 -21 31
-9 43 11 10 24 -3 24 -24z"/>
<path d="M1023 230 c-28 -17 -33 -25 -33 -60 0 -56 29 -84 78 -75 44 8 55 17
50 41 -2 13 -13 20 -33 22 -24 3 -28 1 -17 -9 17 -19 15 -29 -8 -29 -20 0 -40
27 -40 54 0 26 38 58 61 51 23 -8 26 10 3 19 -23 9 -26 8 -61 -14z"/>
<path d="M530 230 c0 -5 5 -10 10 -10 13 0 13 -86 -1 -111 -9 -19 -8 -20 18
-17 26 3 28 6 25 41 -3 35 -1 38 20 35 19 -2 23 -9 23 -38 0 -31 3 -35 27 -38
27 -3 27 -2 17 27 -6 17 -9 51 -7 76 3 41 1 45 -20 45 -19 0 -21 -4 -16 -25 5
-22 3 -25 -21 -25 -24 0 -26 3 -21 25 6 23 3 25 -24 25 -16 0 -30 -4 -30 -10z"/>
<path d="M1138 171 c4 -77 10 -83 66 -74 22 3 36 12 39 24 6 23 -18 26 -27 4
-7 -20 -36 -8 -36 16 0 10 7 19 15 19 22 0 18 21 -4 27 -25 6 -20 37 7 41 15
2 22 -2 22 -13 0 -9 5 -13 10 -10 6 3 10 13 10 21 0 10 -13 14 -52 14 l-53 0
3 -69z"/>
<path d="M1273 183 c0 -32 -1 -65 -3 -72 -9 -27 85 -19 115 9 54 51 16 120
-67 120 l-46 0 1 -57z m92 13 c19 -28 9 -58 -25 -76 -29 -15 -30 -14 -30 45 0
48 2 55 20 55 11 0 27 -11 35 -24z"/>
<path d="M1502 228 c3 -18 -23 -107 -33 -114 -16 -10 -9 -24 11 -24 14 0 20 7
20 23 1 12 6 35 13 51 l12 28 24 -51 c14 -28 28 -51 31 -51 13 0 32 28 46 67
l13 38 1 -52 c0 -50 1 -53 26 -53 20 0 25 4 20 16 -3 9 -6 42 -6 75 0 59 0 59
-30 59 -19 0 -28 -4 -25 -12 3 -7 -4 -31 -14 -53 l-19 -40 -22 53 c-18 42 -27
52 -47 52 -14 0 -23 -5 -21 -12z"/>
<path d="M1726 188 c-4 -29 -10 -63 -13 -75 -4 -17 -1 -23 10 -23 10 0 17 11
19 33 2 24 8 33 25 35 17 2 24 -5 34 -32 12 -34 15 -36 60 -36 l46 0 -7 40
c-8 44 3 53 21 18 20 -40 39 -56 60 -51 16 5 19 14 19 62 0 31 5 62 12 69 9 9
5 12 -21 12 -22 0 -30 -4 -25 -11 7 -13 15 -79 9 -79 -2 0 -18 20 -35 45 -21
30 -38 45 -53 45 -20 0 -22 -5 -22 -65 0 -36 -4 -66 -10 -67 -5 -2 -26 27 -45
64 -26 52 -40 68 -56 68 -18 0 -22 -8 -28 -52z m47 8 c6 -15 -1 -26 -15 -26
-4 0 -8 9 -8 20 0 23 15 27 23 6z"/>
<path d="M2027 113 c-13 -12 -7 -23 13 -23 11 0 20 7 20 15 0 15 -21 21 -33 8z"/>
</g>
</svg>
