<?xml version="1.0" standalone="no"?>
<!DOCTYPE svg PUBLIC "-//W3C//DTD SVG 20010904//EN"
 "http://www.w3.org/TR/2001/REC-SVG-20010904/DTD/svg10.dtd">
<svg version="1.0" xmlns="http://www.w3.org/2000/svg"
 width="223.000000pt" height="387.000000pt" viewBox="0 0 223.000000 387.000000"
 preserveAspectRatio="xMidYMid meet">
<metadata>
Created by potrace 1.16, written by Peter Selinger 2001-2019
</metadata>
<g transform="translate(0.000000,387.000000) scale(0.100000,-0.100000)"
fill="#000000" stroke="none">
<path d="M26 3861 c-4 -6 -9 -873 -11 -1926 l-4 -1915 67 -1 c37 0 272 -2 524
-5 304 -3 458 -2 463 5 4 7 -161 11 -507 11 -282 0 -516 4 -520 8 -5 5 -7 67
-6 138 3 122 4 129 23 127 27 -3 1626 -14 1908 -14 l227 1 0 -124 c0 -69 -4
-127 -8 -130 -4 -2 -250 -6 -546 -8 -296 -2 -540 -6 -543 -10 -6 -10 1088 -10
1103 0 13 8 27 3811 15 3831 -5 7 -266 10 -901 10 -492 -1 -981 2 -1086 6
-138 6 -193 5 -198 -4z m701 -27 c170 -6 173 -6 168 -28 -2 -11 -7 -95 -10
-186 -3 -91 -8 -205 -11 -255 -5 -79 -4 -88 9 -72 21 25 30 21 25 -13 -3 -17
0 -30 6 -30 6 0 4 -5 -4 -10 -13 -9 -13 -11 0 -20 12 -8 12 -10 -5 -10 -17 0
-17 -2 -5 -10 13 -8 12 -10 -3 -10 -16 0 -18 5 -12 40 4 24 3 40 -3 40 -9 0
-16 -65 -27 -260 -12 -221 -16 -250 -35 -250 -9 0 -34 -11 -54 -25 -20 -14
-44 -25 -52 -25 -11 0 -12 -4 -4 -19 5 -11 10 -30 9 -43 0 -13 -3 -17 -6 -10
-2 6 -11 12 -18 12 -8 0 -11 7 -8 20 4 16 0 20 -18 21 l-24 1 25 8 c22 7 22 8
4 9 -11 1 -29 -8 -41 -18 l-20 -19 0 66 c1 44 -4 76 -15 92 -8 14 -30 62 -48
107 l-33 82 26 35 c31 40 33 52 11 64 -13 7 -13 13 -2 38 7 16 22 43 34 59 12
17 25 48 28 69 l7 39 -33 -6 c-27 -4 -37 -1 -46 14 -10 15 -9 19 1 19 7 0 19
-6 26 -12 11 -11 12 -8 6 12 -7 22 -6 23 8 11 15 -11 18 -10 27 14 15 39 12
72 -6 79 -25 9 -62 7 -69 -5 -4 -5 -19 -7 -34 -4 -18 4 -32 1 -39 -8 -7 -8
-23 -12 -37 -10 -13 3 -39 0 -56 -6 -25 -9 -34 -8 -40 1 -6 10 -12 8 -23 -7
-9 -11 -16 -23 -16 -27 0 -4 -11 -23 -24 -43 -15 -22 -27 -58 -32 -93 -5 -41
-15 -67 -35 -92 -16 -19 -29 -40 -29 -46 0 -7 20 -15 45 -19 l46 -6 -33 -23
c-74 -49 -104 -166 -64 -250 10 -21 27 -91 38 -156 l20 -119 -21 -34 c-12 -19
-24 -60 -27 -93 -5 -48 -2 -71 19 -126 14 -36 23 -69 20 -72 -3 -3 -19 -2 -35
1 -20 4 -33 1 -38 -7 -6 -10 -19 -11 -52 -4 l-43 9 -3 425 c-2 442 -3 432 38
500 5 8 18 37 30 63 12 26 24 46 27 43 5 -5 25 15 66 64 24 29 39 69 39 102
-1 35 17 47 34 24 13 -18 34 -14 34 6 0 22 -33 48 -61 48 -29 0 -89 -58 -89
-86 0 -20 -41 -96 -57 -107 -6 -4 -17 -23 -23 -43 -7 -19 -17 -33 -23 -31 -12
4 -20 464 -10 574 l4 52 252 -5 c139 -2 330 -7 424 -10z m1463 -614 l0 -620
-61 -117 c-36 -69 -57 -119 -50 -121 6 -2 11 -13 11 -24 0 -19 -2 -19 -23 -5
-46 30 -100 31 -167 3 -12 -5 -16 2 -16 36 -1 40 -1 40 12 17 18 -32 17 -22
-2 34 -9 26 -20 47 -25 47 -6 0 -5 -8 1 -20 9 -16 8 -20 -4 -20 -9 0 -22 14
-31 30 -9 17 -18 30 -21 30 -2 0 0 -9 6 -19 15 -28 13 -31 -20 -31 -27 0 -30
3 -30 31 0 30 1 31 38 27 20 -3 44 -8 52 -11 25 -11 38 6 32 43 -4 26 -7 30
-11 17 -6 -17 -9 -16 -34 7 -19 18 -27 35 -27 59 0 19 -6 40 -14 46 -7 6 -16
30 -19 53 -3 22 -13 48 -22 57 -15 15 -17 14 -31 -4 -13 -18 -17 -18 -27 -5
-21 27 -69 60 -87 60 -10 0 -20 -10 -23 -21 -5 -19 -10 -21 -44 -13 -21 5 -83
9 -138 8 -89 -1 -107 -4 -167 -32 -37 -16 -102 -54 -145 -82 -81 -54 -193
-156 -193 -176 0 -6 -7 -18 -16 -25 -15 -12 -16 -5 -9 86 4 55 11 105 16 110
4 6 4 16 0 23 -6 9 -12 7 -26 -8 -10 -11 -24 -20 -32 -20 -7 0 2 13 20 30 31
26 34 35 35 87 3 87 11 115 31 108 9 -2 97 -9 196 -15 260 -14 467 -29 570
-40 113 -12 173 -15 180 -9 5 6 5 5 35 519 26 452 27 414 -14 427 -18 6 -80
11 -137 12 -57 0 -201 9 -319 19 -282 22 -229 28 323 30 l427 2 0 -620z
m-1150 538 c0 -19 -2 -20 -10 -8 -13 19 -13 30 0 30 6 0 10 -10 10 -22z m202
-28 c-3 -30 1 -57 8 -65 11 -13 7 -15 -26 -17 -22 0 -47 0 -58 1 -16 1 -17 -1
-6 -14 8 -10 9 -15 2 -15 -28 0 19 -64 53 -73 11 -3 0 -3 -24 0 -31 4 -46 1
-52 -8 -7 -12 -9 -12 -9 -1 0 8 9 16 20 19 20 5 20 7 4 24 -9 10 -16 30 -16
44 0 23 -4 25 -47 25 -26 0 -41 4 -34 8 10 7 10 12 -1 28 -14 18 -15 18 -21
-9 -6 -21 -13 -27 -34 -26 -25 0 -26 0 -3 9 12 5 28 22 34 37 7 15 18 34 25
41 7 7 13 20 13 28 0 11 18 14 88 14 l87 0 -3 -50z m104 -88 c-2 -4 -19 -8
-38 -9 -27 -2 -29 0 -13 7 25 11 58 12 51 2z m167 0 c33 -1 53 -8 69 -24 21
-21 23 -21 51 -5 35 21 71 22 87 2 10 -12 7 -20 -19 -45 l-30 -31 34 -32 c31
-29 35 -39 41 -102 3 -38 8 -73 10 -77 3 -4 0 -17 -6 -28 -11 -21 -41 -25 -75
-9 -16 7 -14 8 10 4 18 -3 38 0 49 8 18 13 18 15 1 47 -12 24 -16 46 -11 76
10 75 -54 123 -99 74 -10 -11 -22 -20 -26 -20 -5 0 17 25 49 55 46 45 54 58
42 65 -8 5 -19 10 -25 10 -5 0 -3 -4 5 -10 8 -5 11 -12 7 -17 -4 -4 -17 -1
-29 6 -18 11 -20 11 -14 -4 4 -13 2 -16 -9 -11 -9 3 -26 -6 -41 -22 l-26 -27
17 28 c16 25 16 29 1 52 -9 14 -22 25 -28 25 -9 0 -9 -3 0 -12 17 -17 15 -33
-3 -18 -8 7 -15 9 -15 5 0 -4 8 -14 18 -21 11 -9 13 -13 4 -14 -7 0 -11 -4 -8
-9 3 -4 0 -16 -7 -25 -10 -14 -17 -15 -45 -5 -45 16 -66 6 -59 -29 7 -34 -6
-57 -27 -49 -18 7 -21 23 -6 32 28 17 -10 55 -55 55 -37 0 -55 17 -34 32 10 7
8 8 -8 5 -13 -3 -26 -1 -29 4 -3 5 14 10 38 10 l43 2 -40 6 c-27 4 -36 9 -27
14 7 5 30 6 50 2 49 -10 148 -6 175 6 17 7 13 8 -17 4 -43 -7 -116 2 -116 15
0 7 14 7 133 2z m-283 -24 c0 -5 -4 -6 -10 -3 -6 4 -10 -5 -10 -19 0 -28 -14
-35 -24 -11 -3 8 -1 15 4 15 6 0 10 9 10 20 0 13 5 18 15 14 8 -4 15 -10 15
-16z m-313 -25 c-4 -3 -2 -12 4 -20 7 -8 8 -13 1 -13 -12 0 -23 26 -15 34 4 3
9 6 11 6 3 0 2 -3 -1 -7z m723 -49 c0 -2 -7 -4 -15 -4 -8 0 -15 4 -15 10 0 5
7 7 15 4 8 -4 15 -8 15 -10z m-477 -29 c-3 -9 -8 -14 -10 -11 -3 3 -2 9 2 15
9 16 15 13 8 -4z m36 -43 c4 12 10 15 20 9 12 -8 12 -14 -2 -44 -22 -46 -21
-64 2 -77 25 -13 64 -13 56 0 -3 6 -17 10 -31 10 -18 0 -24 5 -24 23 0 13 7
32 15 43 14 18 14 17 5 -9 -12 -35 -6 -47 25 -47 12 0 25 -7 29 -15 3 -8 1
-15 -4 -15 -6 0 -10 -7 -10 -15 0 -18 -31 -20 -48 -3 -16 16 -42 -7 -42 -38 0
-13 -5 -24 -11 -24 -5 0 -7 5 -4 10 3 6 -3 10 -15 10 -12 0 -24 9 -30 23 -9
22 -9 22 -11 -3 -1 -23 -2 -23 -9 5 -4 20 -2 38 7 53 12 19 19 54 22 106 1 5
7 3 15 -3 11 -9 15 -4 22 26 l8 38 4 -40 c3 -26 6 -34 11 -23z m81 54 c0 -3
-4 -8 -10 -11 -5 -3 -10 -1 -10 4 0 6 5 11 10 11 6 0 10 -2 10 -4z m91 -7 c11
-5 17 -14 14 -20 -4 -5 -12 -3 -21 5 -17 17 -35 13 -84 -21 l-35 -25 37 36
c40 38 57 43 89 25z m159 -20 c41 -25 59 -47 60 -71 0 -18 -28 -38 -52 -38 -7
0 -2 6 12 13 42 22 22 69 -39 94 -35 15 -46 11 -54 -22 -3 -13 -5 -9 -6 13 -1
27 3 32 22 32 12 0 38 -10 57 -21z m-613 -3 c-3 -7 0 -19 6 -25 8 -8 8 -11 -2
-11 -10 0 -11 -3 -2 -14 9 -11 9 -15 -1 -19 -10 -4 -10 -8 2 -16 12 -8 12 -11
1 -11 -7 0 -11 -6 -8 -14 3 -8 -1 -17 -9 -20 -10 -4 -14 2 -14 23 0 53 13 121
22 121 6 0 8 -6 5 -14z m439 -30 c0 -18 8 -41 17 -51 10 -10 15 -20 12 -24 -4
-3 -12 2 -19 12 -17 22 -21 21 -44 -3 -16 -17 -24 -19 -46 -11 -14 6 -26 13
-26 16 0 16 33 66 52 79 37 26 54 20 54 -18z m330 19 c-6 15 -4 16 9 5 13 -11
15 -24 10 -62 -5 -36 -3 -55 9 -73 20 -31 21 -41 1 -25 -12 10 -15 9 -16 -6
-1 -17 -2 -17 -6 -1 -5 20 -19 23 -25 5 -3 -9 -14 -7 -42 6 -29 13 -40 15 -51
6 -8 -6 -19 -9 -25 -5 -16 10 -12 45 5 45 27 0 57 39 51 65 -5 18 -1 25 14 30
11 3 20 11 20 17 0 6 12 2 27 -7 25 -17 26 -17 19 0z m-591 -122 c-24 -45 -26
-46 -21 -15 3 18 14 58 23 90 l18 57 3 -42 c2 -30 -4 -55 -23 -90z m440 102
c31 -30 31 -39 0 -53 -21 -10 -31 -9 -51 5 -17 11 -22 19 -15 26 6 6 11 19 11
29 0 25 27 22 55 -7z m-1288 -2 c-10 -3 -20 -18 -24 -34 -7 -36 -23 -48 -23
-18 0 27 27 59 49 58 13 -1 12 -2 -2 -6z m1130 -15 c-3 -8 -6 -5 -6 6 -1 11 2
17 5 13 3 -3 4 -12 1 -19z m-792 -8 c10 -16 -107 -120 -136 -120 -16 0 -33
-10 -45 -25 -20 -27 -54 -34 -54 -11 0 17 124 146 141 146 7 0 2 -11 -11 -25
-22 -23 -22 -25 -4 -25 10 0 34 16 53 35 35 37 46 41 56 25z m825 -20 c0 -5
-5 -10 -11 -10 -5 0 -7 5 -4 10 3 6 8 10 11 10 2 0 4 -4 4 -10z m40 -10 c0 -5
-2 -10 -4 -10 -3 0 -8 5 -11 10 -3 6 -1 10 4 10 6 0 11 -4 11 -10z m35 -10 c3
-5 1 -10 -4 -10 -6 0 -11 5 -11 10 0 6 2 10 4 10 3 0 8 -4 11 -10z m-140 -28
c-9 -2 -13 -8 -10 -13 4 -5 1 -9 -4 -9 -15 0 -14 23 1 38 9 9 14 9 20 -1 4 -7
2 -13 -7 -15z m80 18 c3 -5 1 -10 -4 -10 -6 0 -11 5 -11 10 0 6 2 10 4 10 3 0
8 -4 11 -10z m35 -20 c0 -5 -2 -10 -4 -10 -3 0 -8 5 -11 10 -3 6 -1 10 4 10 6
0 11 -4 11 -10z m45 0 c3 -5 1 -10 -4 -10 -6 0 -11 5 -11 10 0 6 2 10 4 10 3
0 8 -4 11 -10z m-105 -10 c0 -5 -2 -10 -4 -10 -3 0 -8 5 -11 10 -3 6 -1 10 4
10 6 0 11 -4 11 -10z m-20 -20 c0 -5 -4 -10 -10 -10 -5 0 -10 5 -10 10 0 6 5
10 10 10 6 0 10 -4 10 -10z m100 6 c0 -3 -4 -8 -10 -11 -5 -3 -10 -1 -10 4 0
6 5 11 10 11 6 0 10 -2 10 -4z m-1328 -28 c-7 -7 -12 -8 -12 -2 0 14 12 26 19
19 2 -3 -1 -11 -7 -17z m765 16 c-3 -3 -12 -4 -19 -1 -8 3 -5 6 6 6 11 1 17
-2 13 -5z m593 -4 c0 -5 -4 -10 -10 -10 -5 0 -10 5 -10 10 0 6 5 10 10 10 6 0
10 -4 10 -10z m-162 -12 c-6 -18 -28 -21 -28 -4 0 9 7 16 16 16 9 0 14 -5 12
-12z m267 1 c11 -16 2 -17 -25 -2 -24 12 -24 13 -3 13 12 0 25 -5 28 -11z
m-375 -9 c13 -8 13 -10 -2 -10 -12 0 -18 -11 -21 -37 -3 -35 -4 -34 -5 10 -2
48 2 54 28 37z m145 -9 c-3 -6 -11 -8 -17 -5 -6 4 -5 9 3 15 16 10 23 4 14
-10z m-258 -28 c12 2 20 0 17 -4 -10 -17 -63 -10 -74 10 -16 30 -12 34 13 11
13 -13 31 -20 44 -17z m298 27 c3 -5 1 -10 -4 -10 -6 0 -11 5 -11 10 0 6 2 10
4 10 3 0 8 -4 11 -10z m162 -35 c-11 -38 -21 -44 -31 -20 -3 8 -13 15 -21 15
-29 0 -12 34 20 41 41 8 45 4 32 -36z m-1007 -7 c0 -15 -5 -18 -20 -13 -26 8
-38 -20 -20 -48 9 -15 10 -22 1 -25 -6 -2 -11 -10 -11 -18 0 -8 -10 -14 -25
-14 -14 0 -25 -4 -25 -10 0 -5 9 -10 20 -10 11 0 20 -7 20 -15 0 -18 -28 -19
-67 -3 -15 7 -35 12 -43 12 -8 1 -14 4 -12 9 1 4 2 11 2 16 0 5 7 12 16 15 8
3 13 2 10 -3 -8 -12 36 -23 48 -11 14 14 -1 40 -25 40 -12 0 -19 5 -17 12 3 7
18 12 34 13 25 0 29 4 29 29 1 22 9 35 30 48 33 19 55 10 55 -24z m720 23 c0
-4 -9 -14 -20 -24 -11 -9 -20 -24 -20 -32 0 -23 -17 -18 -24 8 -12 45 -8 53
29 54 19 1 35 -2 35 -6z m65 -1 c3 -5 -1 -10 -9 -10 -9 0 -16 5 -16 10 0 6 4
10 9 10 6 0 13 -4 16 -10z m40 -10 c3 -5 1 -10 -4 -10 -6 0 -11 5 -11 10 0 6
2 10 4 10 3 0 8 -4 11 -10z m85 0 c0 -5 -5 -10 -11 -10 -5 0 -7 5 -4 10 3 6 8
10 11 10 2 0 4 -4 4 -10z m-40 -10 c0 -5 -4 -10 -10 -10 -5 0 -10 5 -10 10 0
6 5 10 10 10 6 0 10 -4 10 -10z m214 -5 c-4 -8 -11 -12 -16 -9 -6 4 -5 10 3
15 19 12 19 11 13 -6z m110 -16 c14 -17 26 -35 26 -40 0 -13 -46 -22 -75 -15
-21 5 -25 3 -25 -17 0 -16 -19 -42 -58 -80 -61 -58 -96 -72 -163 -65 -31 3
-36 -1 -54 -37 -11 -21 -25 -41 -31 -42 -7 -2 -20 16 -29 42 -17 43 -20 45
-57 45 -46 0 -103 27 -139 67 -44 48 -47 103 -5 103 l21 0 -22 -18 c-23 -17
-23 -17 -4 -48 25 -42 118 -88 165 -82 27 3 36 0 36 -11 0 -12 3 -11 18 2 10
10 22 14 25 10 10 -10 8 -25 -2 -19 -5 3 -14 -1 -21 -9 -11 -14 -10 -14 12 -6
14 5 29 7 32 4 6 -7 10 28 7 62 -2 29 17 6 21 -25 2 -18 10 -26 28 -28 41 -6
95 16 111 44 8 15 28 33 46 41 55 23 62 67 13 87 -8 3 2 5 23 3 32 -3 36 0 31
15 -3 10 -1 18 5 18 6 0 11 7 11 15 0 25 27 17 54 -16z m-464 14 c0 -5 -9 -19
-20 -33 -16 -20 -19 -21 -14 -5 11 31 34 58 34 38z m380 -8 c-7 -9 -15 -13
-17 -11 -7 7 7 26 19 26 6 0 6 -6 -2 -15z m-569 -5 c10 -6 19 -16 19 -22 0 -6
-9 -3 -20 7 -11 10 -23 15 -27 12 -4 -4 2 -14 13 -22 23 -17 12 -20 -15 -3
-15 9 -25 8 -48 -6 -27 -17 -26 -16 5 13 35 34 44 36 73 21z m480 -8 c-15 -29
-38 -45 -46 -32 -3 5 1 10 9 10 8 0 20 9 26 20 6 11 13 20 16 20 2 0 0 -8 -5
-18z m-1206 -22 c2 -4 -7 -18 -22 -31 l-26 -24 6 22 c6 28 -6 37 -33 23 -12
-6 -20 -7 -20 -1 0 22 82 32 95 11z m940 11 c3 -6 -4 -15 -15 -21 -27 -14 -25
-46 5 -75 23 -24 23 -25 4 -25 -12 0 -17 -4 -13 -11 4 -8 -1 -9 -16 -4 -15 5
-20 4 -16 -4 10 -15 -5 -13 -28 4 -11 8 -30 15 -43 15 -13 0 -23 3 -24 8 -2
21 -8 44 -13 49 -3 3 5 13 17 23 16 13 25 15 38 7 23 -14 66 -1 74 23 7 21 20
26 30 11z m205 -16 c11 -29 26 -32 52 -8 22 20 36 10 17 -14 -12 -15 -12 -16
3 -10 12 4 15 2 11 -9 -7 -20 14 -18 26 4 9 15 10 14 8 -7 -1 -15 -11 -27 -27
-34 -14 -6 -36 -23 -50 -39 -18 -21 -37 -30 -65 -33 -31 -3 -36 -1 -22 7 17 9
17 11 -3 28 l-21 18 20 7 c32 10 46 43 27 64 -9 10 -16 25 -16 34 0 26 29 20
40 -8z m-41 -29 c15 -18 15 -18 -6 -5 -13 8 -23 23 -22 34 0 14 2 16 6 5 3 -8
13 -24 22 -34z m-391 11 c14 5 16 -13 2 -22 -5 -3 -30 -9 -55 -12 -39 -4 -45
-3 -45 13 0 14 3 15 12 6 17 -17 28 -15 29 6 0 10 3 12 6 5 9 -23 25 -14 18
10 -5 19 -4 20 7 6 7 -9 19 -14 26 -12z m238 -6 c-10 -11 -15 -25 -10 -32 4
-8 3 -10 -4 -5 -17 10 -15 27 6 46 23 23 30 15 8 -9z m104 19 c0 -5 10 -18 22
-30 12 -11 20 -21 17 -23 -14 -12 -75 -37 -88 -36 -9 1 -5 4 9 9 24 7 23 7
-13 15 -47 9 -53 19 -30 50 13 17 28 24 51 25 17 0 32 -4 32 -10z m-1187 -40
c3 -11 1 -20 -4 -20 -5 0 -9 2 -9 4 0 2 -3 11 -6 20 -3 9 -2 16 4 16 5 0 12
-9 15 -20z m52 -30 c-3 -5 -16 -10 -28 -9 -20 1 -20 2 3 9 14 4 26 8 28 9 2 1
0 -3 -3 -9z m590 0 c3 -5 0 -10 -7 -10 -9 0 -9 -3 2 -10 12 -8 13 -11 1 -19
-10 -6 -10 -10 -1 -13 9 -3 8 -8 -4 -17 -14 -12 -16 -9 -16 33 0 43 11 59 25
36z m-694 -18 c-7 -2 -18 1 -23 6 -8 8 -4 9 13 5 13 -4 18 -8 10 -11z m124
-23 c4 -6 4 -13 0 -17 -4 -4 -10 -2 -12 5 -2 7 -11 9 -19 6 -8 -3 -14 0 -14 6
0 14 37 14 45 0z m131 -64 c33 -12 35 -14 13 -15 -28 0 -109 53 -109 72 0 6
13 -1 29 -16 16 -15 46 -34 67 -41z m948 49 c3 -8 2 -12 -4 -9 -6 3 -10 10
-10 16 0 14 7 11 14 -7z m-864 3 c0 -2 -11 -14 -24 -26 l-24 -23 -12 22 c-11
20 -10 21 9 15 12 -4 21 -2 21 4 0 6 7 11 15 11 8 0 15 -1 15 -3z m-172 -48
c16 -26 8 -24 -23 5 -21 19 -22 23 -8 20 11 -3 24 -14 31 -25z m529 -5 c-3 -3
-12 -4 -19 -1 -8 3 -5 6 6 6 11 1 17 -2 13 -5z m-613 -21 c25 -21 23 -53 -5
-53 -13 0 -19 7 -19 21 0 18 -4 20 -27 14 -27 -6 -27 -6 -9 14 23 26 32 26 60
4z m593 -23 c-3 -11 0 -20 6 -21 8 0 8 -2 -1 -6 -6 -2 -10 -9 -6 -14 3 -5 0
-9 -5 -9 -6 0 -11 16 -11 35 0 19 5 35 11 35 6 0 9 -9 6 -20z m-407 0 c0 -5
-2 -10 -4 -10 -3 0 -8 5 -11 10 -3 6 -1 10 4 10 6 0 11 -4 11 -10z m-231 -13
c-2 -1 -13 -9 -24 -17 -19 -14 -19 -14 -6 3 7 9 18 17 24 17 6 0 8 -1 6 -3z
m141 -44 c0 -45 -5 -40 -13 10 -3 22 -2 35 4 32 5 -4 9 -22 9 -42z m23 -24
c-6 -6 -7 3 -4 23 4 28 6 29 9 9 2 -13 0 -27 -5 -32z m57 -27 c0 -15 -8 -36
-17 -47 -15 -20 -15 -19 -9 5 3 14 6 38 6 53 0 16 4 26 10 22 6 -3 10 -18 10
-33z m90 -1 c11 -22 24 -58 29 -81 8 -38 7 -42 -12 -49 -12 -5 -25 -7 -29 -4
-14 8 -8 33 7 33 12 0 14 8 9 43 -4 23 -10 47 -14 52 -10 14 -20 45 -15 45 3
0 14 -18 25 -39z m-150 -51 c0 -13 -1 -13 -10 0 -5 8 -10 22 -10 30 0 13 1 13
10 0 5 -8 10 -22 10 -30z m475 30 c3 -5 1 -10 -4 -10 -6 0 -11 5 -11 10 0 6 2
10 4 10 3 0 8 -4 11 -10z m-551 -25 c-17 -8 -44 -16 -60 -20 -16 -3 -6 4 21
14 57 22 86 26 39 6z m542 -30 c0 -19 -4 -35 -8 -35 -10 0 -11 54 -1 63 9 10
9 10 9 -28z m791 -17 c34 -37 49 -73 33 -83 -14 -9 -13 -21 6 -39 18 -19 49
-22 38 -4 -4 7 -3 8 4 4 16 -10 15 -36 -2 -36 -7 0 -26 4 -42 9 -16 5 -41 12
-55 15 -26 6 -46 41 -29 51 4 3 10 -3 12 -13 5 -18 38 -27 38 -10 0 4 -4 8 -8
8 -4 0 -8 10 -9 23 -2 21 -1 21 12 3 14 -18 15 -18 21 -2 5 12 -3 28 -25 49
l-32 32 6 -30 c4 -24 3 -26 -4 -10 -12 25 -14 65 -3 65 4 0 22 -15 39 -32z
m-1290 6 c-3 -3 -12 -4 -19 -1 -8 3 -5 6 6 6 11 1 17 -2 13 -5z m1019 -33
c-11 -20 -16 -59 -17 -123 l-1 -93 -19 60 c-24 78 -15 137 27 180 23 23 28 12
10 -24z m56 19 c-26 -25 -50 -99 -35 -108 7 -5 8 -24 2 -57 -10 -64 -11 -135
-1 -135 18 1 32 19 40 55 5 22 21 60 36 85 28 50 36 48 9 -3 -9 -18 -27 -70
-40 -117 -14 -51 -31 -91 -42 -100 -28 -21 -47 -104 -33 -136 15 -32 15 -32
-185 7 -149 29 -163 34 -163 53 -1 11 -7 32 -15 46 -8 14 -14 37 -15 53 0 15
-5 27 -11 27 -7 0 -9 -10 -5 -26 5 -17 3 -23 -4 -19 -5 3 -10 26 -10 50 0 33
-5 47 -21 58 -20 15 -20 15 11 51 41 46 53 46 48 -1 -3 -21 -1 -51 4 -68 5
-16 9 -45 9 -62 0 -18 4 -33 9 -33 13 0 13 76 0 99 -13 25 3 119 25 139 16 16
17 16 6 -5 -19 -37 -9 -263 12 -263 6 0 7 19 2 53 -12 87 -11 146 3 152 6 2
12 14 12 25 0 11 4 28 9 38 5 9 12 26 16 37 5 16 8 17 15 5 6 -8 10 -29 10
-47 0 -17 5 -35 10 -38 6 -3 10 -24 10 -46 0 -26 5 -42 15 -45 11 -4 13 -13 9
-28 -6 -19 -5 -20 11 -6 13 11 16 24 12 59 l-5 45 19 -25 c25 -32 25 -5 1 36
-29 48 -32 63 -14 61 26 -2 55 -74 48 -118 -7 -43 0 -49 14 -15 8 17 9 10 5
-26 -6 -47 0 -87 13 -87 4 0 7 54 7 120 0 66 4 120 8 120 5 0 6 13 2 29 -4 17
0 44 10 66 17 43 31 43 15 1 -11 -31 -12 -131 0 -221 4 -33 8 -54 9 -47 0 6 9
20 20 31 21 21 36 113 25 155 -14 56 25 146 64 146 13 0 12 -4 -6 -20z m-1118
-42 c-3 -5 2 -8 10 -8 10 0 13 -6 10 -15 -4 -9 0 -15 10 -15 14 0 13 -3 -3
-19 -10 -10 -25 -21 -32 -24 -8 -3 6 -5 31 -5 25 0 39 2 32 5 -8 3 -5 11 12
24 38 30 74 23 56 -11 -8 -14 -5 -16 14 -13 27 6 44 -13 27 -30 -8 -8 -11 -8
-11 1 0 7 -12 10 -30 8 -23 -3 -30 1 -30 13 0 9 5 22 12 29 7 7 8 12 4 12 -4
0 -21 -13 -36 -30 -21 -23 -37 -30 -64 -30 -29 0 -36 4 -36 20 0 11 6 20 13
21 9 0 9 2 0 5 -18 8 -65 -27 -59 -42 3 -8 1 -24 -4 -36 -7 -19 -9 -16 -9 19
-1 36 3 44 29 60 34 20 40 38 10 30 -25 -6 -26 1 -2 19 16 13 16 15 0 28 -17
12 -16 14 5 23 18 9 24 7 34 -11 6 -11 9 -24 7 -28z m985 26 c-17 -18 -24 -37
-24 -69 0 -49 -13 -46 -21 6 -5 27 -1 40 20 62 14 15 31 27 37 27 7 0 2 -11
-12 -26z m199 9 c-9 -10 -25 -37 -37 -60 -36 -72 -47 -48 -15 32 7 18 6 19
-12 5 -12 -9 -11 -5 5 13 14 16 35 27 49 27 23 0 24 -1 10 -17z m-1099 -33 c0
-10 -3 -8 -9 5 -12 27 -12 43 0 25 5 -8 9 -22 9 -30z m1168 28 c-2 -7 -12 -12
-22 -10 -9 2 -29 -7 -43 -20 -25 -23 -22 -8 6 25 17 20 66 24 59 5z m181 -39
l2 -34 -15 25 c-18 31 -19 53 -2 48 6 -3 13 -20 15 -39z m-498 28 c0 -2 -11
-18 -25 -37 -24 -33 -25 -33 -25 -9 0 27 16 49 37 49 7 0 13 -1 13 -3z m-440
-16 c-19 -4 -46 -14 -60 -22 l-25 -14 27 -3 c15 -2 37 2 50 8 22 11 22 10 4
-4 -11 -9 -27 -16 -35 -17 -9 -1 -5 -5 9 -9 24 -8 24 -8 -7 -9 -39 -1 -63 7
-63 23 0 21 63 56 100 55 l35 -1 -35 -7z m341 -48 c-12 -20 -14 -14 -5 12 4 9
9 14 11 11 3 -2 0 -13 -6 -23z m-576 8 c3 -5 1 -12 -5 -16 -5 -3 -10 1 -10 9
0 18 6 21 15 7z m665 -24 c0 -7 9 -30 20 -52 11 -22 20 -48 20 -60 -1 -14 -5
-10 -16 15 -30 67 -43 110 -34 110 6 0 10 -6 10 -13z m540 -29 c0 -6 -7 -5
-15 2 -8 7 -15 17 -15 22 0 6 7 5 15 -2 8 -7 15 -17 15 -22z m-930 18 c0 -3
-4 -8 -10 -11 -5 -3 -10 -1 -10 4 0 6 5 11 10 11 6 0 10 -2 10 -4z m330 -81
c-1 -5 -7 -1 -15 9 -8 11 -15 34 -15 50 1 30 1 30 15 -9 8 -22 15 -44 15 -50z
m271 22 c-8 -8 -11 -2 -11 19 0 40 14 54 18 19 2 -15 -1 -32 -7 -38z m-641 34
c0 -5 9 -7 19 -4 16 4 19 1 14 -18 -4 -13 -8 -18 -11 -11 -10 32 -21 5 -24
-60 -2 -57 -6 -72 -17 -70 -12 3 -12 0 -1 -12 21 -27 29 -18 32 36 2 32 8 52
16 54 7 1 8 0 3 -2 -5 -3 -7 -25 -5 -49 1 -25 -2 -47 -7 -51 -6 -4 -5 -14 4
-27 19 -30 30 -77 17 -77 -5 0 -10 7 -10 16 0 29 -34 74 -55 74 -31 0 -65 11
-65 21 0 5 12 4 26 -1 31 -12 37 -12 30 -1 -3 5 -27 14 -52 20 -48 12 -190 98
-180 109 8 7 36 12 108 19 44 4 57 9 61 24 4 15 14 19 51 19 25 0 46 -4 46 -9z
m-343 -37 c-3 -3 -12 -4 -19 -1 -8 3 -5 6 6 6 11 1 17 -2 13 -5z m1232 -8 c27
-15 28 -17 34 -125 3 -61 1 -139 -4 -173 -5 -35 -9 -84 -9 -110 0 -37 -5 -50
-22 -62 -16 -11 -18 -16 -7 -16 22 0 39 20 40 49 1 17 3 20 6 8 3 -12 11 -15
29 -11 14 4 24 2 24 -5 0 -6 11 -11 24 -11 14 0 28 -4 31 -10 4 -6 -7 -10 -25
-10 -17 0 -29 -4 -26 -9 4 -5 0 -12 -6 -14 -7 -3 0 -6 15 -6 16 -1 26 3 22 9
-3 6 0 10 9 10 8 0 22 3 32 7 12 4 15 3 10 -5 -10 -16 -1 -15 34 3 17 9 30 20
30 25 0 6 4 10 10 10 8 0 -19 -65 -55 -130 -8 -14 -24 -28 -37 -31 -14 -5 -17
-7 -6 -8 9 -1 18 -6 20 -12 2 -7 26 16 53 49 27 34 51 59 53 57 2 -2 -5 -24
-17 -49 -30 -69 -15 -55 19 17 33 70 38 91 15 61 -15 -19 -15 -19 -9 1 4 11
-8 1 -26 -22 -17 -24 -33 -43 -35 -43 -5 0 23 67 38 91 10 16 9 21 -3 29 -11
7 -12 10 -2 10 8 0 16 -8 19 -19 3 -14 12 -17 35 -15 17 2 33 6 35 8 8 8 32
161 33 204 0 56 15 82 45 82 13 0 29 8 34 18 6 9 11 12 11 7 0 -6 -5 -16 -10
-21 -16 -16 -17 -224 0 -264 11 -25 11 -35 2 -38 -7 -2 -12 -10 -12 -18 0 -8
-4 -14 -10 -14 -5 0 -10 12 -10 28 0 21 -2 24 -10 12 -6 -9 -10 -11 -10 -3 0
7 -7 10 -15 7 -8 -4 -15 -12 -15 -20 0 -8 -5 -14 -11 -14 -6 0 -17 -6 -25 -14
-12 -13 -11 -17 8 -30 l22 -16 -21 0 c-27 0 -75 -44 -97 -87 -16 -32 -16 -33
3 -33 11 0 23 -9 26 -20 4 -11 11 -18 16 -15 5 4 9 -10 9 -31 0 -31 2 -35 15
-24 13 11 15 5 17 -41 1 -43 2 -47 5 -16 3 24 9 37 19 37 11 0 14 -16 16 -67
1 -49 2 -56 5 -23 5 74 14 113 23 104 4 -5 4 -49 0 -99 -20 -211 -22 -250 -17
-245 3 3 8 32 12 65 3 33 10 84 16 114 5 30 9 74 9 98 0 28 4 42 10 38 6 -4 8
-25 6 -48 -11 -96 -28 -426 -23 -438 3 -8 6 13 7 46 1 33 5 80 9 105 l8 45 3
-55 c1 -30 2 -84 2 -120 l0 -65 8 50 7 50 1 -62 2 -62 -29 10 c-37 13 -51 45
-57 138 -6 104 -48 308 -79 391 -8 19 -16 44 -18 55 -3 13 -5 8 -6 -12 0 -17
-6 -35 -11 -38 -6 -4 -8 -15 -5 -25 5 -17 3 -17 -19 -7 -31 14 -34 37 -6 37
23 0 27 15 5 24 -8 3 -14 9 -13 13 0 4 -4 21 -10 36 -10 23 -9 34 3 57 22 43
18 50 -7 12 l-21 -33 -31 29 c-17 16 -45 34 -63 41 -20 8 -30 18 -26 27 3 8 9
14 15 14 5 0 6 -4 3 -10 -3 -5 -1 -10 6 -10 6 0 9 8 6 20 -4 14 4 27 26 45 18
14 27 25 21 25 -17 0 -94 -75 -94 -92 0 -9 7 -19 16 -22 13 -5 15 -16 10 -59
-9 -73 6 -86 65 -58 55 27 62 26 57 -4 -3 -14 -1 -28 3 -31 20 -12 7 -21 -15
-11 -13 6 -21 17 -19 24 3 7 0 13 -6 13 -6 0 -11 -4 -11 -10 0 -5 -7 -10 -15
-10 -9 0 -12 -6 -9 -15 4 -10 13 -13 26 -9 14 4 18 3 13 -6 -4 -7 -1 -10 11
-8 15 2 19 -3 19 -29 0 -17 3 -34 7 -38 4 -4 4 -13 1 -21 -3 -8 0 -14 7 -14 6
0 9 4 6 9 -3 5 10 12 29 15 32 6 34 9 28 36 -3 18 -1 30 5 30 18 0 22 -54 4
-67 -14 -12 -13 -13 7 -13 12 0 20 -4 16 -9 -3 -5 -1 -12 5 -16 17 -10 11 -32
-10 -38 -11 -3 -20 -12 -20 -20 0 -16 27 -30 41 -21 19 11 22 -29 4 -42 -17
-13 -17 -16 1 -13 10 1 24 -24 24 -45 0 -15 -3 -16 -15 -6 -8 7 -15 9 -15 5 0
-4 -6 -2 -14 5 -8 6 -14 17 -12 23 1 7 1 8 -2 4 -2 -5 -13 5 -23 23 -11 17
-17 36 -13 41 3 5 2 8 -3 7 -13 -4 -45 23 -83 72 -46 58 -63 97 -47 104 7 2 3
4 -8 4 -11 -1 -29 0 -40 1 l-20 2 20 9 c19 7 19 8 1 15 -11 5 -21 3 -27 -6
-14 -22 -11 -27 20 -34 26 -5 48 -31 38 -42 -9 -8 -36 10 -30 20 3 6 1 7 -5 3
-6 -4 -9 -13 -6 -21 4 -8 11 -12 17 -8 6 4 8 0 4 -11 -5 -13 -3 -15 10 -7 13
7 24 2 45 -22 33 -35 29 -42 -29 -51 -31 -4 -43 -3 -43 6 0 10 -2 10 -9 -1 -6
-10 -10 -10 -16 -1 -6 9 -9 9 -16 -1 -6 -10 -2 -16 14 -21 20 -5 19 -6 -6 -7
-17 -1 -30 5 -34 15 -4 11 -8 12 -13 4 -6 -9 -13 -9 -26 -1 -11 6 -13 11 -6
11 7 0 11 4 8 9 -3 5 1 11 8 14 8 3 17 1 20 -6 2 -7 5 0 5 15 1 16 9 33 21 40
11 7 20 17 20 22 0 4 -6 4 -13 -3 -10 -8 -17 -7 -25 1 -8 8 -13 7 -17 -5 -4
-9 -12 -14 -19 -11 -7 3 -18 -2 -25 -10 -12 -15 -55 -10 -45 5 3 5 -1 9 -9 9
-16 0 -73 77 -64 86 3 3 17 -10 31 -29 33 -43 82 -52 133 -26 19 10 42 15 51
12 14 -4 15 -3 2 5 -8 6 -17 9 -21 7 -3 -3 -4 7 -1 20 2 13 9 23 16 22 6 -1
10 3 9 9 -1 7 6 10 16 7 10 -3 22 0 25 6 5 7 -5 11 -29 11 -37 0 -60 25 -35
40 9 6 9 12 1 29 -9 16 -8 27 4 50 19 38 19 57 -1 65 -26 10 -32 7 -43 -25
-11 -31 -12 -32 -58 -25 -124 19 -169 23 -178 16 -18 -13 -75 -10 -75 5 0 8
22 17 58 23 l57 11 -53 -2 c-54 -2 -74 16 -27 25 27 6 95 -12 95 -24 0 -13 38
-9 42 4 2 6 21 11 41 10 l36 -1 -21 21 c-15 15 -23 18 -26 9 -3 -8 -8 -7 -19
6 -13 17 -14 16 -8 -7 5 -22 4 -23 -7 -9 -16 19 -52 39 -70 39 -7 -1 2 -7 20
-15 32 -14 44 -35 20 -35 -27 0 -58 13 -52 21 3 5 -2 9 -12 9 -12 0 -15 6 -10
23 3 12 6 28 6 36 0 10 8 7 25 -9 27 -26 32 -21 13 10 -16 25 1 40 46 40 16 0
38 8 49 18 16 13 19 14 15 2 -2 -8 -22 -21 -44 -29 -51 -19 -51 -18 -26 -41
16 -15 22 -17 22 -7 0 8 8 21 18 30 16 15 17 14 17 -16 0 -26 4 -31 20 -29 11
2 30 3 43 3 13 -1 20 4 17 9 -3 6 -12 10 -20 10 -10 0 -15 16 -17 57 -2 38 -8
58 -17 61 -10 3 -12 0 -7 -13 5 -15 4 -16 -9 -5 -20 17 -19 30 3 30 10 0 23 5
30 12 9 9 12 7 12 -10 0 -12 5 -22 10 -22 11 0 14 43 4 53 -4 3 -15 2 -25 -4
-18 -9 -19 -3 -19 140 0 82 -3 156 -6 165 -5 13 1 16 30 16 21 0 50 -7 65 -14z
m-1339 0 c0 -2 -7 -9 -15 -16 -12 -10 -15 -10 -15 4 0 9 7 16 15 16 8 0 15 -2
15 -4z m193 -40 c34 -24 77 -51 95 -60 19 -10 32 -24 32 -36 0 -30 -17 -32
-44 -5 -15 15 -27 21 -31 14 -5 -7 -11 -5 -18 4 -7 8 -30 20 -51 27 -34 11
-86 52 -86 68 0 5 32 31 38 32 2 0 31 -20 65 -44z m1008 -28 c5 -235 8 -288
14 -298 10 -16 5 -17 -30 -9 -16 4 -22 7 -12 8 29 2 19 28 -24 62 l-41 33 6
61 c7 69 31 188 41 204 3 6 15 11 26 11 17 0 19 -8 20 -72z m214 17 c3 -22 1
-24 -11 -14 -8 6 -14 23 -14 37 0 34 21 15 25 -23z m-356 -2 c-1 -38 -1 -38
-9 -9 -8 27 -6 46 6 46 2 0 4 -17 3 -37z m401 -1 c-7 -3 -16 2 -21 9 -16 25
-9 32 12 13 13 -12 16 -20 9 -22z m-1556 16 c-5 -8 -2 -9 9 -5 25 10 70 -13
56 -29 -7 -9 -2 -16 22 -28 18 -9 38 -16 46 -16 7 0 21 -4 31 -9 9 -5 29 -14
45 -20 15 -6 27 -16 27 -22 0 -9 -3 -9 -14 0 -8 6 -27 8 -46 5 l-32 -7 23 -13
c13 -7 27 -10 31 -8 3 2 9 0 13 -6 9 -14 -28 -13 -43 2 -17 17 -23 6 -16 -31
6 -31 7 -31 31 -16 25 17 53 14 53 -5 0 -6 -4 -8 -10 -5 -5 3 -27 -3 -49 -15
-48 -24 -55 -25 -43 -4 11 19 4 64 -10 64 -6 0 -8 -9 -5 -21 6 -21 5 -21 -12
-3 -10 11 -16 24 -12 29 3 6 4 18 2 29 -1 10 3 23 11 28 12 9 -20 5 -64 -8
-11 -3 -18 0 -18 8 0 7 -9 19 -19 25 -15 10 -22 9 -31 -2 -10 -12 -9 -15 4
-15 9 0 16 -4 16 -10 0 -5 -4 -10 -9 -10 -5 0 -13 -42 -19 -92 l-9 -93 -2 90
c-1 50 -4 100 -7 112 -5 18 0 25 27 36 28 11 36 11 47 0 7 -7 28 -13 45 -12
30 1 30 1 7 8 -15 4 -26 15 -28 29 -3 18 -8 20 -33 15 -21 -4 -29 -2 -29 9 0
8 3 18 7 21 10 11 15 8 7 -5z m128 -10 c-7 -7 -12 -8 -12 -2 0 14 12 26 19 19
2 -3 -1 -11 -7 -17z m-165 -10 c-3 -8 -6 -5 -6 6 -1 11 2 17 5 13 3 -3 4 -12
1 -19z m1927 -64 c-11 -19 -26 -34 -36 -34 -16 0 -14 8 14 63 31 58 33 60 36
33 2 -16 -5 -44 -14 -62z m-1237 4 c-3 -7 -5 -2 -5 12 0 14 2 19 5 13 2 -7 2
-19 0 -25z m-21 -86 c-1 -57 -18 -54 -32 5 -9 40 -8 51 5 66 15 18 16 18 22
-5 3 -13 5 -42 5 -66z m-201 32 c-5 -28 -3 -35 7 -31 7 2 12 10 10 16 -2 9 3
9 20 0 41 -21 59 -42 52 -61 -5 -18 10 -25 21 -9 11 19 -17 56 -57 76 -22 10
-35 21 -29 23 7 2 17 0 24 -6 7 -5 24 -12 38 -15 17 -4 31 -18 39 -37 15 -35
31 -46 115 -73 76 -24 173 -43 343 -67 86 -13 92 -15 92 -37 0 -27 -9 -28 -93
-8 -34 8 -105 24 -157 35 -52 11 -142 39 -199 61 -57 22 -110 38 -119 34 -8
-3 -23 2 -33 11 -18 16 -19 16 -19 -9 0 -15 -4 -27 -10 -27 -12 0 -12 7 -1 35
5 12 4 26 -3 34 -9 12 -7 13 8 8 16 -6 17 -5 6 8 -13 16 -31 20 -29 8 5 -31
-21 -47 -36 -23 -7 12 3 90 12 90 3 0 2 -16 -2 -36z m245 -53 c0 -25 4 -32 15
-27 9 3 15 0 15 -9 0 -17 -5 -18 -37 -9 -21 6 -23 11 -20 71 2 60 3 62 14 36
7 -15 12 -43 13 -62z m861 52 c2 -23 2 -12 -6 -128 -8 -132 4 -116 16 21 5 59
12 110 15 113 13 14 24 -30 22 -89 -1 -36 -1 -91 0 -123 2 -49 5 -59 24 -66
15 -5 18 -10 9 -15 -7 -5 -20 -1 -30 8 -10 9 -23 16 -29 16 -18 0 -52 32 -45
43 4 6 -3 8 -17 4 -22 -6 -22 -6 -14 71 5 42 9 96 9 120 -1 37 2 42 22 42 15
0 23 -6 24 -17z m-1494 -25 c-3 -8 -6 -5 -6 6 -1 11 2 17 5 13 3 -3 4 -12 1
-19z m272 11 c28 -10 31 -15 27 -38 -3 -14 -2 -52 2 -83 5 -32 5 -58 1 -58 -4
0 -14 -3 -23 -6 -13 -5 -16 1 -16 29 0 19 -9 64 -20 99 -11 34 -20 64 -20 66
0 5 18 2 49 -9z m-43 -44 c7 -19 14 -47 13 -62 0 -27 -1 -27 -13 7 -30 81 -30
126 0 55z m-263 -55 c4 -42 3 -58 -3 -45 -8 19 -14 123 -6 114 2 -2 6 -33 9
-69z m1140 51 c-3 -10 3 -25 12 -32 9 -8 27 -23 40 -35 13 -12 31 -24 40 -28
32 -12 9 -15 -28 -4 -20 6 -37 17 -37 25 0 20 -16 16 -33 -9 -16 -22 -16 -22
-16 24 -1 49 6 78 19 78 5 0 6 -8 3 -19z m-1063 -1 c0 -5 -4 -10 -10 -10 -5 0
-10 5 -10 10 0 6 5 10 10 10 6 0 10 -4 10 -10z m330 -6 c31 -13 38 -19 30 -29
-14 -16 -60 3 -60 25 0 9 -3 11 -10 4 -15 -15 -1 -43 24 -50 26 -6 45 -44 35
-70 -4 -10 -8 -14 -9 -9 -1 6 -3 15 -5 20 -1 6 -3 18 -3 28 -1 9 -9 17 -18 17
-10 0 -14 -6 -10 -15 3 -9 0 -15 -9 -15 -8 0 -15 8 -15 18 0 9 -3 34 -6 55 -8
43 -3 44 56 21z m317 -36 c-3 -7 -5 -2 -5 12 0 14 2 19 5 13 2 -7 2 -19 0 -25z
m1037 11 c21 -16 26 -29 26 -62 0 -54 -13 -77 -28 -51 -11 18 -11 18 -24 1
-13 -17 -15 -17 -27 -3 -8 9 -22 16 -32 16 -14 0 -19 7 -19 25 0 14 -4 25 -10
25 -5 0 -10 -5 -10 -12 0 -14 -30 -48 -42 -48 -4 0 -8 22 -8 49 0 45 2 50 33
65 46 22 109 21 141 -5z m-1659 -9 c-3 -5 -12 -10 -18 -10 -7 0 -6 4 3 10 19
12 23 12 15 0z m454 -32 c-1 -18 -3 -25 -6 -15 -2 9 -12 17 -21 17 -13 0 -13
2 4 15 25 19 24 20 23 -17z m-374 12 c-3 -5 -13 -10 -21 -10 -8 0 -12 5 -9 10
3 6 13 10 21 10 8 0 12 -4 9 -10z m66 -20 c28 -16 24 -31 -6 -20 -14 5 -47 7
-73 3 -55 -7 -53 2 4 16 53 12 53 12 75 1z m-146 -10 c-3 -5 0 -10 7 -10 7 0
-5 -9 -27 -19 -22 -10 -54 -30 -72 -45 l-31 -26 11 25 c7 14 17 25 22 25 6 0
26 13 45 30 35 29 57 39 45 20z m435 -20 c21 -16 44 -30 52 -30 8 0 18 -4 24
-9 5 -4 34 -17 64 -27 30 -10 61 -22 68 -27 7 -6 29 -11 50 -13 20 -2 55 -13
77 -24 21 -11 49 -20 62 -20 12 0 24 -4 27 -9 3 -5 30 -12 60 -15 30 -4 60
-13 66 -21 16 -20 -3 -118 -37 -182 -27 -52 -28 -53 -73 -52 -58 0 -318 70
-330 88 -3 5 -17 14 -32 20 -42 16 -111 141 -112 206 -1 34 -4 40 -22 38 -17
-2 -23 4 -27 32 -13 79 19 96 83 45z m105 20 c3 -5 1 -10 -4 -10 -6 0 -11 5
-11 10 0 6 2 10 4 10 3 0 8 -4 11 -10z m-688 -72 c-2 -13 -4 -5 -4 17 -1 22 1
32 4 23 2 -10 2 -28 0 -40z m433 42 c0 -5 -5 -10 -11 -10 -5 0 -7 5 -4 10 3 6
8 10 11 10 2 0 4 -4 4 -10z m234 2 c3 -5 -1 -9 -9 -9 -8 0 -12 4 -9 9 3 4 7 8
9 8 2 0 6 -4 9 -8z m107 -12 c11 0 17 -4 14 -10 -3 -5 -21 -9 -38 -9 -18 1
-24 3 -15 6 9 2 16 10 14 16 -1 7 -1 9 1 5 3 -5 14 -8 24 -8z m476 4 c-3 -3
-12 -4 -19 -1 -8 3 -5 6 6 6 11 1 17 -2 13 -5z m-857 -24 c0 -5 -8 -10 -17
-10 -15 0 -16 2 -3 10 19 12 20 12 20 0z m468 -8 c3 -9 -2 -13 -14 -10 -9 1
-19 9 -22 16 -3 9 2 13 14 10 9 -1 19 -9 22 -16z m432 -2 c0 -5 -2 -10 -4 -10
-3 0 -8 5 -11 10 -3 6 -1 10 4 10 6 0 11 -4 11 -10z m-1114 -16 c-3 -9 -6 -21
-6 -27 0 -8 -3 -8 -11 0 -13 13 -5 43 12 43 6 0 8 -7 5 -16z m300 5 c3 -6 1
-15 -6 -19 -9 -5 -6 -12 10 -23 17 -12 21 -23 18 -42 -4 -16 0 -28 10 -34 11
-6 13 -17 9 -40 -4 -19 -2 -31 4 -31 6 0 9 -9 6 -20 -3 -11 -2 -20 1 -20 4 0
8 -16 9 -35 2 -20 -2 -35 -8 -35 -5 0 -7 -5 -4 -10 4 -6 11 -7 17 -4 14 9 3
-59 -19 -108 -17 -41 -27 -47 -37 -23 -3 8 -12 12 -20 9 -11 -4 -13 0 -9 16 3
11 8 19 11 16 2 -3 13 11 23 31 33 64 15 192 -37 268 -13 20 -20 34 -14 30 17
-11 50 -14 50 -5 0 4 -4 10 -8 12 -4 2 -18 17 -30 35 -16 23 -19 33 -10 36 21
8 26 8 34 -4z m-611 -11 c17 0 24 -2 17 -4 -6 -3 -12 -10 -12 -15 0 -12 27
-12 32 1 2 5 14 1 27 -9 19 -15 25 -29 28 -79 2 -39 0 -63 -8 -67 -8 -5 -9 -1
-5 13 4 11 2 23 -4 27 -6 4 -10 -4 -10 -20 0 -24 -3 -26 -42 -23 -40 3 -41 4
-60 58 -46 133 -46 134 -15 124 12 -4 36 -7 52 -6z m107 -11 c4 -9 12 -25 17
-34 5 -12 22 -19 47 -21 57 -4 75 -13 44 -22 -23 -7 -23 -8 -3 -9 12 -1 25 -5
28 -11 4 -6 -13 -10 -44 -10 -28 0 -51 -3 -51 -7 0 -5 29 -6 65 -5 42 3 65 0
65 -7 0 -6 -24 -12 -57 -13 -52 -1 -54 -2 -13 -5 25 -2 56 -6 70 -10 21 -6 16
-8 -25 -13 l-50 -7 57 -1 c72 -2 89 -22 19 -22 -28 0 -51 -4 -51 -9 0 -6 28
-9 62 -8 40 1 63 -2 65 -10 3 -8 -16 -13 -64 -16 l-68 -4 73 0 c105 0 115 -19
16 -30 l-79 -8 79 -5 c104 -7 116 -28 19 -33 -68 -3 -68 -3 17 -5 103 -3 116
-9 99 -45 -10 -23 -9 -30 7 -49 l19 -23 -23 20 c-19 15 -22 26 -18 50 4 22 3
26 -4 15 -14 -22 -12 -56 5 -70 8 -7 15 -28 15 -46 0 -34 0 -34 -48 -34 -97 0
-203 82 -253 196 -17 37 -20 60 -16 101 3 29 1 55 -4 58 -5 4 -9 17 -9 31 0
18 5 24 23 24 12 0 29 5 37 11 11 8 6 9 -22 7 -30 -3 -38 0 -38 12 0 9 -9 33
-19 53 -11 21 -14 36 -8 34 6 -2 14 -11 19 -20z m428 13 c0 -5 -10 -10 -22
-10 -19 0 -20 2 -8 10 19 13 30 13 30 0z m535 -10 c-3 -5 -13 -10 -21 -10 -8
0 -12 5 -9 10 3 6 13 10 21 10 8 0 12 -4 9 -10z m-699 -14 c-1 -8 -7 -20 -14
-28 -16 -20 -4 -30 20 -17 19 10 42 3 33 -11 -3 -4 2 -10 10 -14 21 -8 19 -19
-7 -35 -21 -13 -22 -13 -9 2 16 20 1 23 -18 5 -10 -11 -12 -10 -9 2 4 21 -8
23 -45 5 l-32 -16 28 24 c25 21 27 25 11 31 -10 4 -24 0 -35 -10 -11 -10 -19
-12 -19 -7 0 6 7 13 15 17 8 3 15 12 15 20 0 14 36 46 51 46 4 0 6 -6 5 -14z
m801 -2 c2 -7 -6 -10 -22 -7 -14 3 -25 10 -25 15 0 13 43 6 47 -8z m161 -21
c2 -8 -6 -13 -22 -13 -25 0 -33 10 -19 24 10 10 36 3 41 -11z m492 2 c-7 -8
-18 -15 -24 -15 -6 0 -2 7 8 15 25 19 32 19 16 0z m-1620 -5 c0 -5 -13 -10
-30 -10 -16 0 -30 5 -30 10 0 6 14 10 30 10 17 0 30 -4 30 -10z m1050 -4 c-7
-7 -13 -7 -20 0 -6 6 -3 10 10 10 13 0 16 -4 10 -10z m-723 -18 c-3 -8 -6 -5
-6 6 -1 11 2 17 5 13 3 -3 4 -12 1 -19z m33 -42 c0 -3 -4 -8 -10 -11 -5 -3
-10 -1 -10 4 0 6 5 11 10 11 6 0 10 -2 10 -4z m-620 -50 c5 -5 3 -17 -3 -27
-9 -14 -9 -24 -1 -36 7 -12 7 -37 -1 -85 -7 -38 -14 -71 -17 -74 -3 -3 -5 50
-3 118 3 139 5 162 12 133 3 -11 9 -24 13 -29z m2110 34 c27 -9 22 -11 -25
-15 -16 -2 -41 -6 -55 -10 l-25 -8 25 21 c27 23 40 25 80 12z m-1610 -15 c-7
-8 -20 -15 -29 -15 -13 1 -13 3 3 15 26 19 42 19 26 0z m135 5 c-3 -5 -11 -10
-16 -10 -6 0 -7 5 -4 10 3 6 11 10 16 10 6 0 7 -4 4 -10z m15 -25 c0 -8 0 -18
-1 -22 0 -5 -14 -9 -30 -10 -38 -3 -71 -21 -64 -34 4 -5 1 -9 -4 -9 -6 0 -11
9 -11 19 0 13 11 23 34 31 19 6 40 18 46 26 16 18 30 18 30 -1z m143 -57 c19
-25 23 -38 14 -38 -7 0 -21 16 -30 35 -15 31 -23 57 -14 44 2 -2 15 -21 30
-41z m1334 36 c-3 -3 -12 -4 -19 -1 -8 3 -5 6 6 6 11 1 17 -2 13 -5z m-2027
-34 c14 0 37 -59 55 -141 4 -14 26 -50 49 -81 43 -53 108 -94 179 -112 22 -5
27 -12 27 -39 0 -58 -7 -61 -108 -50 -78 9 -105 18 -201 64 -94 46 -110 57
-106 74 3 11 12 74 20 140 20 153 21 158 48 151 12 -3 29 -6 37 -6z m394 -5
c-4 -8 -11 -15 -16 -15 -6 0 -5 6 2 15 7 8 14 15 16 15 2 0 1 -7 -2 -15z m146
6 c0 -5 -8 -11 -17 -14 -10 -2 -26 -8 -35 -12 -11 -4 -18 -3 -18 5 0 6 5 8 10
5 6 -3 10 1 10 9 0 10 9 16 25 16 14 0 25 -4 25 -9z m143 -63 c-2 -5 -11 -8
-19 -8 -10 0 -14 12 -14 43 l1 42 18 -35 c11 -19 17 -38 14 -42z m-624 2 c1
-14 16 -49 34 -79 17 -29 37 -62 43 -73 6 -10 22 -31 35 -45 l24 -27 -33 23
c-17 12 -37 32 -43 44 -6 12 -19 31 -29 42 -20 22 -50 120 -49 157 0 22 1 22
9 3 5 -11 9 -31 9 -45z m1652 34 c31 -16 36 -43 10 -52 -10 -3 -12 0 -7 13 5
15 4 16 -9 5 -8 -7 -15 -19 -15 -26 0 -18 -14 -18 -29 -1 -8 10 -7 22 1 45 14
37 11 36 49 16z m-1143 -38 c1 -24 -2 -55 -7 -68 l-10 -23 0 23 c-1 30 -35 66
-55 59 -10 -4 -16 -18 -16 -36 0 -25 5 -30 31 -36 29 -7 30 -8 14 -24 -15 -15
-17 -15 -29 2 -7 9 -18 17 -25 17 -6 0 -11 14 -11 30 0 23 -4 30 -20 30 -11 0
-20 5 -20 10 0 6 15 10 33 10 26 0 37 6 47 25 9 17 22 25 40 25 25 0 27 -3 28
-44z m762 22 c0 -19 -2 -20 -10 -8 -5 8 -10 11 -10 7 0 -5 -5 -5 -10 -2 -13 8
-3 25 16 25 8 0 14 -10 14 -22z m-77 -37 c-21 -28 -44 -34 -50 -13 -3 6 1 12
7 12 7 0 22 12 33 27 27 34 37 11 10 -26z m-847 28 c3 -6 1 -16 -5 -22 -8 -8
-11 -8 -11 1 0 7 -4 12 -10 12 -14 0 -12 -28 3 -33 6 -2 9 -8 5 -12 -4 -4 -14
-2 -23 5 -15 13 -20 42 -8 53 10 11 41 8 49 -4z m383 -56 c25 -6 93 -26 151
-43 58 -18 120 -35 139 -39 19 -3 36 -12 39 -19 2 -8 -2 -10 -14 -5 -12 4 -15
3 -10 -5 4 -6 2 -20 -4 -31 -12 -23 5 -40 23 -22 6 6 15 11 19 11 10 0 10 -36
0 -58 -5 -9 -15 -30 -23 -46 -21 -43 -42 -53 -81 -37 -77 31 -168 37 -168 10
0 -6 5 -7 10 -4 17 10 106 -5 127 -22 10 -8 12 -11 5 -8 -7 4 -25 4 -40 0 -20
-5 -23 -8 -11 -16 7 -5 27 -9 43 -9 69 0 192 -94 165 -126 -12 -15 -4 -18 34
-14 39 4 116 -61 121 -101 2 -13 6 -35 10 -49 4 -15 0 -43 -9 -70 -50 -137
-81 -291 -55 -275 14 8 12 -5 -5 -35 -7 -14 -19 -25 -27 -25 -7 0 -12 -8 -10
-17 1 -9 -2 -19 -8 -23 -18 -11 -11 -23 12 -17 16 4 19 2 13 -8 -6 -9 -4 -12
7 -8 12 5 14 -2 10 -37 -3 -37 0 -48 22 -70 14 -14 21 -25 16 -25 -18 0 -82
-102 -76 -123 3 -12 -3 -31 -15 -46 l-20 -26 21 -17 c12 -10 33 -18 46 -18 14
0 24 -6 24 -15 0 -22 33 -35 91 -35 29 0 49 -3 46 -6 -4 -4 -65 -8 -136 -9
-100 -1 -131 2 -135 12 -3 7 -19 13 -36 13 -16 0 -30 4 -30 9 0 6 38 8 95 4
62 -4 95 -2 95 5 0 11 -41 20 -150 31 -41 4 -67 8 -57 9 10 1 20 9 23 17 4 10
20 15 48 15 39 0 66 13 66 32 0 4 -24 5 -52 2 -37 -4 -50 -2 -43 5 6 5 27 11
48 13 21 1 37 7 37 14 0 7 6 15 13 18 6 3 3 5 -8 5 -39 -2 -55 1 -55 11 0 6
20 10 44 10 28 0 46 5 49 14 4 10 -1 12 -16 9 -22 -4 -22 -4 -2 11 10 9 24 15
30 13 14 -5 38 21 30 33 -3 5 -13 10 -21 10 -11 0 -14 6 -9 23 6 18 5 20 -6 9
-15 -14 -64 -15 -94 -2 -13 6 -2 7 34 4 47 -3 52 -2 41 11 -10 12 -10 15 4 15
9 0 16 5 16 10 0 6 -7 10 -14 10 -18 0 -66 43 -66 59 0 6 12 12 28 12 16 1 20
3 10 6 -21 5 -24 23 -4 23 27 0 58 35 54 60 -5 24 -5 24 -18 -8 -11 -29 -16
-33 -40 -29 -23 5 -28 1 -39 -29 -7 -19 -15 -34 -19 -34 -12 0 -11 84 0 98 8
9 7 11 -6 6 -9 -3 -16 -1 -16 6 0 6 8 10 18 8 12 -2 16 -11 14 -28 -2 -18 0
-21 6 -11 6 7 15 10 22 6 8 -5 11 4 9 32 -3 33 3 48 30 82 29 36 35 52 37 103
2 34 9 66 14 73 7 9 7 21 0 39 -5 15 -10 39 -10 52 0 16 -5 24 -12 21 -7 -2
-31 11 -52 30 -22 18 -44 33 -50 33 -25 0 -254 79 -288 100 -33 19 -39 29 -50
81 -12 61 -43 97 -73 85 -8 -3 -17 -1 -20 4 -8 13 -55 13 -55 0 0 -5 8 -10 18
-11 11 -1 8 -4 -8 -8 -25 -7 -25 -6 -31 68 -6 64 -4 85 15 131 11 30 34 70 50
87 24 27 32 31 44 20 8 -6 36 -17 61 -24z m-342 1 c-3 -3 -12 -4 -19 -1 -8 3
-5 6 6 6 11 1 17 -2 13 -5z m752 -53 c12 -8 13 -16 3 -48 -7 -25 -9 -91 -6
-190 3 -91 1 -153 -4 -153 -19 0 -39 44 -31 65 4 11 8 72 8 135 0 220 -2 211
30 191z m-669 -62 c0 -5 -6 -9 -14 -9 -23 0 -46 11 -46 23 0 7 4 7 12 -1 7 -7
16 -12 22 -12 5 0 1 6 -9 14 -11 8 -25 12 -32 9 -7 -3 -13 0 -13 7 0 6 5 8 10
5 6 -3 10 -1 10 5 0 6 14 2 30 -10 17 -12 30 -26 30 -31z m830 39 c0 -5 -7 -8
-15 -4 -20 7 -19 -4 2 -20 12 -8 22 -9 30 -3 17 15 65 -40 58 -66 -2 -11 -5
-30 -5 -42 0 -13 -4 -23 -10 -23 -5 0 -10 7 -10 15 0 15 -46 32 -57 21 -4 -3
1 -6 10 -6 8 0 25 -14 37 -30 20 -28 21 -34 10 -107 -11 -73 -11 -78 8 -94 19
-14 21 -26 19 -115 -1 -54 0 -157 3 -228 4 -98 2 -130 -7 -133 -7 -3 -17 7
-23 21 -9 24 -13 25 -68 22 -55 -4 -59 -2 -55 15 7 26 17 31 45 20 13 -5 41
-5 63 -1 l40 8 -35 2 c-33 2 -33 3 -10 10 24 8 24 8 3 9 -32 1 -29 21 4 21 32
0 28 7 -7 12 -14 1 -28 8 -32 13 -5 6 -8 5 -8 -3 0 -8 -5 -10 -12 -6 -8 5 -9
2 -5 -9 4 -10 1 -17 -5 -17 -7 0 -3 -7 8 -16 17 -14 17 -15 1 -10 -10 3 -21 6
-23 6 -10 0 -2 42 17 85 20 46 22 47 56 40 24 -4 33 -3 28 4 -3 6 -19 11 -36
11 -20 0 -29 5 -29 16 0 11 6 14 23 9 12 -4 27 -8 32 -9 11 -1 24 173 14 180
-4 2 -10 -16 -13 -41 -4 -24 -11 -47 -15 -50 -16 -9 -21 41 -16 190 3 105 2
139 -5 115 -5 -19 -10 -109 -11 -198 -1 -110 -5 -160 -11 -154 -6 6 -10 23
-10 39 0 15 3 102 5 193 2 91 3 139 0 108 -6 -82 -23 -72 -23 12 0 45 -4 70
-11 70 -8 0 -10 -23 -5 -80 5 -49 3 -93 -3 -113 -7 -20 -7 -50 -2 -82 l9 -50
1 50 c2 69 12 125 23 125 10 0 2 -147 -10 -179 -7 -19 -7 -19 -32 2 -24 21
-25 28 -30 152 -3 72 -4 164 -3 205 1 57 -1 70 -9 55 -7 -12 -9 -72 -5 -172 5
-139 5 -152 -10 -138 -12 13 -16 45 -17 170 0 91 3 158 9 163 6 6 24 8 40 5
28 -4 30 -8 30 -43 0 -44 10 -59 27 -42 8 8 6 18 -7 39 l-18 28 21 -19 c12
-11 22 -15 22 -9 0 5 -9 18 -20 28 -27 25 -25 32 10 33 17 0 30 -4 30 -10z
m667 -20 c-3 -7 -5 -2 -5 12 0 14 2 19 5 13 2 -7 2 -19 0 -25z m0 -50 c-3 -7
-5 -2 -5 12 0 14 2 19 5 13 2 -7 2 -19 0 -25z m-1496 -31 c-8 -8 -11 -7 -11 4
0 20 13 34 18 19 3 -7 -1 -17 -7 -23z m66 -4 c-3 -10 -5 -4 -5 12 0 17 2 24 5
18 2 -7 2 -21 0 -30z m1424 -36 c-4 -61 -11 -59 -11 3 0 29 3 50 7 46 4 -4 6
-26 4 -49z m-1781 28 c14 -8 21 -14 15 -14 -5 0 -21 6 -35 14 -14 8 -20 14
-15 14 6 0 21 -6 35 -14z m331 -58 c-8 -8 -11 2 -10 34 l1 44 10 -34 c6 -23 6
-37 -1 -44z m-179 21 c-8 -8 -17 -8 -34 0 -22 10 -21 11 12 11 26 1 31 -2 22
-11z m759 -38 c2 -69 -3 -90 -11 -41 -6 39 -3 97 6 89 2 -2 4 -24 5 -48z m310
14 c-1 -16 -8 -32 -14 -36 -15 -9 -15 -9 -9 35 2 22 9 36 16 34 6 -2 9 -17 7
-33z m279 6 c-14 -4 -41 -8 -60 -8 l-35 0 30 8 c17 4 44 8 60 8 29 0 29 0 5
-8z m-1800 -110 c16 -14 34 -38 39 -53 7 -18 18 -27 32 -27 12 0 38 -13 58
-29 51 -41 108 -54 246 -56 139 -3 195 -19 195 -58 0 -20 4 -23 35 -19 32 4
35 7 35 38 0 19 5 34 11 34 7 0 9 9 6 21 -4 16 -3 18 9 8 12 -10 14 -3 15 42
l1 54 10 -42 c10 -47 26 -58 26 -18 0 14 -6 25 -12 25 -6 0 -4 5 4 10 12 7 12
10 1 10 -7 0 -11 6 -7 15 3 8 -2 21 -10 30 -26 25 -13 57 28 71 34 12 38 11
67 -15 17 -15 31 -35 31 -45 0 -42 28 -82 71 -101 24 -10 46 -20 47 -21 5 -3
-59 -164 -64 -164 -2 0 -17 12 -33 28 -47 44 -131 85 -147 71 -18 -15 -19
-118 -1 -125 7 -2 14 -18 15 -34 2 -26 -1 -30 -25 -31 l-28 -2 28 -4 c54 -8
26 -23 -44 -23 -63 0 -70 2 -59 15 11 13 10 14 -4 9 -9 -3 -16 -9 -17 -13 -7
-58 -8 -58 46 -54 69 6 79 11 22 12 -29 1 -46 5 -42 11 3 5 31 10 61 10 l56 0
-7 -32 c-14 -70 -11 -67 -78 -64 -34 2 -48 2 -32 -1 56 -7 60 -13 24 -32 -42
-23 -180 -51 -211 -44 -22 5 -22 5 -4 -9 17 -14 15 -16 -38 -41 -31 -15 -63
-27 -70 -27 -8 0 -47 -16 -88 -35 -78 -38 -129 -41 -153 -8 -10 13 -23 15 -63
9 -48 -6 -52 -5 -52 14 0 11 7 20 15 20 8 0 15 5 15 11 0 5 -5 7 -10 4 -14 -9
-12 19 2 33 20 20 36 13 43 -18 6 -26 11 -30 38 -29 24 1 26 3 10 6 -29 6 -30
38 -3 53 11 6 20 20 20 31 0 11 -5 17 -10 14 -6 -3 -10 -1 -10 4 0 6 7 11 16
11 8 0 13 4 10 8 -8 13 -66 1 -66 -13 0 -7 -9 -15 -20 -18 -23 -6 -26 3 -7 22
10 11 7 12 -15 7 -22 -5 -26 -3 -22 9 4 10 21 15 48 16 33 1 36 2 16 8 -15 4
-26 15 -28 28 -5 31 40 57 113 64 l60 6 -63 1 c-47 2 -68 7 -84 21 -23 22 -52
17 -43 -7 4 -11 2 -12 -7 -4 -9 7 -12 29 -10 66 l4 56 56 -6 c32 -4 54 -4 51
0 -4 4 -26 9 -48 11 -23 3 -46 7 -51 10 -5 3 -9 51 -9 106 0 79 3 100 13 96 7
-3 28 -2 47 3 l34 8 -30 2 c-16 1 -33 2 -36 2 -3 -1 -6 4 -7 11 -4 34 -16 73
-26 79 -8 5 -7 8 2 8 6 0 12 11 12 23 0 43 15 39 18 -4 3 -33 10 -50 32 -69z
m413 67 c-3 -20 -9 -34 -13 -32 -7 5 -5 28 6 64 8 26 13 5 7 -32z m1134 37
c-3 -4 0 -12 7 -20 10 -10 12 -41 9 -126 -5 -132 6 -229 26 -236 8 -3 11 0 7
7 -4 6 -1 11 6 11 10 0 10 2 1 8 -7 4 -16 27 -21 50 -9 36 -8 42 7 43 10 0 11
2 4 6 -7 2 -13 9 -13 14 0 6 6 7 13 3 8 -5 8 -2 -2 9 -11 14 -11 17 0 17 11 0
11 2 -1 10 -13 9 -13 11 0 20 13 8 12 10 -3 10 -10 0 -15 5 -12 10 4 6 12 7
18 3 7 -4 6 0 -2 10 -11 14 -11 17 0 17 11 0 11 2 -1 10 -13 9 -13 10 0 11 10
0 11 2 3 6 -7 2 -13 9 -13 14 0 6 5 7 10 4 6 -3 10 -1 10 4 0 6 -4 11 -10 11
-5 0 -10 5 -10 11 0 6 8 8 18 5 14 -5 14 -4 -2 9 -14 11 -16 15 -5 15 12 0 12
2 -1 10 -12 8 -11 10 6 10 23 0 21 10 49 -195 24 -177 55 -325 82 -395 31 -77
31 -79 44 -60 7 12 8 11 6 -5 -2 -11 -9 -33 -15 -48 -7 -16 -12 -41 -12 -56 0
-41 -20 -91 -36 -91 -20 0 -17 18 4 23 10 3 6 5 -11 6 -22 1 -28 5 -25 19 2 9
-3 23 -12 29 -13 11 -13 14 0 23 13 8 12 10 -5 11 -13 0 -15 3 -6 6 11 5 11 7
0 14 -10 6 -3 9 19 9 20 0 31 -4 27 -10 -3 -5 -1 -10 5 -10 7 0 10 6 7 14 -3
8 -1 17 6 19 7 2 -10 3 -38 1 -27 -2 -44 -1 -38 2 9 4 10 11 3 24 -8 15 -6 19
13 23 16 3 13 5 -10 6 -25 1 -33 5 -33 20 0 11 -3 26 -6 34 -3 10 1 17 13 20
12 3 10 4 -4 2 -19 -2 -23 5 -34 66 -7 38 -15 66 -19 64 -9 -5 12 -125 41
-235 26 -101 76 -203 96 -196 11 5 13 1 7 -17 -11 -36 -23 -45 -55 -42 -34 2
-44 10 -53 42 -6 18 -2 22 21 26 26 4 25 4 -7 6 -33 3 -33 4 -10 11 23 7 23 8
-10 10 l-35 2 30 8 30 8 -35 2 c-19 1 -27 4 -17 7 9 2 18 10 18 16 1 7 3 23 6
37 7 48 3 74 -17 95 -11 12 -20 29 -20 38 0 9 -6 17 -14 17 -20 0 -31 21 -16
30 8 5 7 9 -4 13 -9 4 -16 16 -16 27 0 17 4 20 23 16 l22 -6 -22 11 c-29 15
-33 68 -5 70 16 1 16 2 -1 6 -16 4 -18 15 -16 91 2 48 8 90 13 94 7 5 6 8 -3
8 -11 0 -11 3 -1 15 10 12 10 15 -1 15 -11 0 -11 2 1 10 10 6 11 10 3 10 -13
0 -18 32 -6 43 3 4 7 28 9 54 1 26 8 49 14 51 9 3 8 7 -1 13 -12 7 -11 9 1 9
12 0 13 2 1 9 -12 8 -8 31 6 31 4 0 4 -3 0 -6z m-1537 -19 c0 -8 5 -15 10 -15
6 0 10 4 10 10 0 5 20 0 44 -12 30 -14 46 -29 49 -45 2 -13 -1 -23 -7 -23 -8
0 -8 -2 0 -8 7 -4 14 -16 17 -27 2 -11 5 1 6 28 1 36 5 47 17 47 13 0 15 -7
10 -31 -3 -17 -6 -40 -6 -50 0 -12 -7 -19 -20 -19 -11 0 -20 -4 -20 -10 0 -5
-5 -10 -11 -10 -7 0 -10 12 -7 30 3 17 1 30 -4 30 -4 0 -8 -9 -8 -20 0 -28
-18 -25 -26 5 -3 14 -11 22 -16 19 -5 -3 -23 6 -39 22 -33 31 -42 94 -14 94 8
0 15 -7 15 -15z m658 -26 c1 -24 -2 -38 -8 -34 -16 10 -11 75 5 75 1 0 2 -18
3 -41z m990 -84 l0 -40 -9 40 c-4 22 -8 58 -7 80 l0 40 9 -40 c4 -22 8 -58 7
-80z m190 80 c-2 -19 -1 -35 3 -35 6 0 14 -40 25 -123 1 -15 8 -35 13 -45 9
-15 10 -15 11 0 0 9 -7 52 -15 95 -22 115 -20 121 19 70 19 -24 39 -54 45 -66
14 -25 32 -28 25 -3 -2 9 1 6 8 -7 10 -19 9 -25 -2 -35 -19 -14 -23 -36 -7
-36 8 0 7 -4 -3 -10 -9 -6 -11 -10 -3 -10 7 0 10 -7 6 -17 -4 -10 -2 -14 4
-10 5 3 10 -1 10 -9 0 -10 -7 -14 -19 -11 -14 4 -22 -2 -28 -19 -5 -13 -14
-24 -19 -24 -14 0 -33 -76 -26 -100 7 -23 -15 -69 -50 -105 -30 -29 -35 -31
-35 -10 0 8 -9 34 -19 58 -11 23 -23 65 -27 92 -9 67 -10 74 -17 115 -9 45
-19 145 -21 190 0 19 -5 39 -11 43 -5 5 1 5 14 2 21 -7 23 -5 19 19 -5 25 -4
26 49 26 l55 0 -4 -35z m-161 19 c-3 -3 -12 -4 -19 -1 -8 3 -5 6 6 6 11 1 17
-2 13 -5z m13 -34 c0 -11 -7 -20 -15 -20 -8 0 -15 5 -15 10 0 6 6 10 13 10 8
0 7 4 -3 10 -13 8 -12 10 3 10 10 0 17 -8 17 -20z m-190 -31 c0 -9 -7 -19 -15
-23 -16 -6 -18 5 -8 42 4 18 8 20 14 10 5 -7 9 -20 9 -29z m-355 -7 c-8 -9
-25 20 -18 31 3 5 10 2 15 -7 6 -10 7 -20 3 -24z m43 -21 c16 -13 16 -13 -1
-7 -10 3 -21 6 -23 6 -2 0 -3 15 -3 33 1 27 2 28 6 7 2 -14 12 -31 21 -39z
m-1013 9 c-4 -17 -9 -29 -12 -26 -3 2 -2 19 2 36 4 17 9 29 12 26 3 -2 2 -19
-2 -36z m36 -25 c-2 -43 1 -56 13 -61 9 -3 16 -15 16 -26 0 -18 -2 -19 -17 -7
-26 22 -45 78 -37 113 14 68 29 58 25 -19z m330 -15 c29 -78 37 -140 19 -140
-16 0 -23 29 -11 44 8 10 8 21 1 42 -9 24 -13 26 -25 13 -8 -8 -16 -25 -18
-39 -2 -13 -9 -26 -15 -28 -15 -5 -16 44 -2 53 6 3 10 24 10 47 0 31 -3 39
-14 35 -10 -4 -13 -1 -9 9 3 7 2 14 -3 14 -15 0 -44 -33 -44 -51 0 -10 -11
-26 -25 -37 -14 -11 -32 -33 -40 -48 -10 -20 -15 -24 -15 -11 0 10 9 30 20 45
35 48 14 126 -28 103 -10 -5 -36 -7 -57 -4 -30 5 -41 2 -51 -12 -10 -14 -14
-15 -14 -4 1 33 16 38 130 42 180 5 161 13 191 -73z m1170 -66 c9 -65 13 -123
9 -128 -5 -5 -2 -15 6 -23 18 -19 18 -49 0 -56 -11 -5 -14 1 -11 24 2 16 -1
29 -7 29 -6 0 -8 11 -6 25 3 14 1 25 -6 25 -6 0 -4 5 4 10 11 7 11 10 2 10 -7
0 -10 5 -7 10 3 6 0 10 -7 10 -9 0 -9 3 2 10 12 7 12 10 1 10 -7 0 -11 6 -7
15 3 8 1 15 -4 15 -11 0 -9 28 4 49 5 8 3 17 -5 22 -12 8 -12 11 1 19 13 9 13
10 0 10 -13 0 -13 1 0 10 13 8 12 10 -3 10 -10 0 -15 5 -12 11 17 27 31 -7 46
-117z m366 74 c-3 -8 -6 -5 -6 6 -1 11 2 17 5 13 3 -3 4 -12 1 -19z m-589 -11
c5 -24 -15 -21 -21 4 -3 13 -1 19 6 16 7 -2 13 -11 15 -20z m-831 -24 c-3 -10
-5 -4 -5 12 0 17 2 24 5 18 2 -7 2 -21 0 -30z m640 -59 c-2 -2 -13 4 -26 12
-17 13 -20 19 -10 30 10 12 14 10 26 -12 7 -15 12 -28 10 -30z m-1117 20 c0
-8 -4 -14 -10 -14 -5 0 -10 9 -10 21 0 11 5 17 10 14 6 -3 10 -13 10 -21z
m117 -28 c-8 -20 -37 -10 -37 13 0 10 3 21 7 25 11 11 36 -21 30 -38z m-82 14
c3 -5 2 -10 -4 -10 -5 0 -13 5 -16 10 -3 6 -2 10 4 10 5 0 13 -4 16 -10z m795
-15 l35 -13 -29 -1 c-16 -1 -34 -8 -41 -18 -14 -19 -35 -10 -35 16 0 34 14 37
70 16z m92 -67 l-3 -35 48 -1 c26 0 51 4 54 10 4 6 12 7 19 3 9 -6 9 -9 -1
-16 -10 -6 -8 -9 9 -9 12 0 22 -4 22 -9 0 -5 3 -16 6 -25 5 -12 -1 -16 -22
-17 -27 -2 -26 -2 6 -8 40 -7 46 -22 30 -79 -10 -39 -11 -40 -60 -44 -28 -1
-50 -1 -50 2 0 7 -30 10 -140 15 -52 2 -85 1 -72 -3 l23 -7 -30 -29 c-36 -35
-44 -32 -32 11 10 34 -4 48 -36 36 -13 -5 -15 -2 -10 11 4 10 7 22 7 27 0 5 9
9 20 9 17 0 19 3 10 19 -9 17 -6 20 22 24 33 4 32 4 -4 5 -21 1 -38 7 -38 13
0 8 11 9 31 5 17 -3 42 -6 56 -6 13 0 22 -4 18 -9 -6 -11 107 -25 150 -18 17
2 2 5 -32 6 -34 0 -65 6 -68 11 -3 6 2 11 12 11 10 1 -19 5 -65 9 -45 4 -85
10 -88 12 -7 7 34 98 44 98 19 0 45 -28 39 -43 -11 -29 8 -26 28 4 11 16 24
29 30 29 5 0 4 -5 -3 -12 -7 -7 -12 -21 -12 -32 0 -17 2 -17 21 5 12 13 25 34
30 47 14 35 34 22 31 -20z m28 7 c0 -14 -4 -25 -9 -25 -4 0 -6 11 -3 25 2 14
6 25 8 25 2 0 4 -11 4 -25z m41 5 c19 -11 27 -40 10 -40 -23 0 -41 14 -41 31
0 22 4 23 31 9z m-451 -8 c0 -5 -10 -17 -22 -28 -12 -10 -19 -14 -16 -9 3 6 8
18 11 28 6 17 27 24 27 9z m40 -20 c0 -12 -23 -32 -37 -32 -17 0 -17 27 0 33
19 8 37 8 37 -1z m1227 -8 c3 -8 1 -20 -5 -26 -8 -8 -13 -7 -18 5 -3 9 -10 14
-15 11 -5 -3 -9 -1 -9 4 0 25 37 30 47 6z m-1197 -13 c0 -13 -29 -35 -37 -28
-7 8 15 37 28 37 5 0 9 -4 9 -9z m1150 -26 c0 -8 -4 -15 -10 -15 -5 0 -7 7 -4
15 4 8 8 15 10 15 2 0 4 -7 4 -15z m110 11 c0 -3 -4 -8 -10 -11 -5 -3 -10 -1
-10 4 0 6 5 11 10 11 6 0 10 -2 10 -4z m-1241 -9 c-2 -1 -12 -9 -22 -16 -15
-12 -17 -12 -11 3 3 9 13 16 22 16 8 0 13 -1 11 -3z m31 -26 c0 -10 -30 -24
-37 -17 -3 3 -2 9 2 15 8 13 35 15 35 2z m1184 -13 c21 -30 20 -48 -3 -48 -25
0 -36 -16 -16 -24 8 -3 15 0 15 7 1 7 7 -3 15 -22 13 -28 17 -31 30 -21 13 11
15 6 14 -31 -1 -37 -2 -40 -9 -19 -4 14 -8 20 -9 14 -1 -6 -8 -11 -16 -11 -11
0 -12 3 -3 14 9 11 7 12 -13 5 -13 -5 -30 -7 -37 -5 -7 3 -10 -1 -6 -11 3 -8
11 -13 18 -10 8 3 12 -5 12 -23 0 -24 -4 -28 -32 -30 -32 -3 -32 -2 -23 29 5
17 6 34 4 37 -5 5 -57 -19 -86 -41 -9 -6 -24 -8 -33 -5 -19 7 -22 42 -4 53 8
5 9 1 4 -12 -19 -49 14 8 39 69 23 56 35 72 64 87 48 24 57 24 75 -2z m-109 2
c-3 -5 -11 -10 -16 -10 -6 0 -7 5 -4 10 3 6 11 10 16 10 6 0 7 -4 4 -10z m165
-22 c0 -15 -15 -8 -28 12 -12 19 -11 20 8 8 11 -7 20 -16 20 -20z m-1228 -49
c-3 -23 -22 -104 -77 -335 -15 -62 -27 -137 -28 -169 -2 -52 1 -59 29 -85 18
-15 38 -32 45 -36 18 -11 80 -140 72 -148 -4 -3 -29 -6 -57 -5 -41 1 -46 3
-26 9 21 7 19 8 -17 9 -24 1 -43 4 -43 9 0 4 17 15 38 24 20 10 29 16 19 13
-60 -16 -71 -15 -32 5 l40 21 -50 -6 c-27 -3 -43 -2 -35 1 8 3 34 12 58 20 23
9 42 20 42 26 0 6 -7 7 -17 3 -10 -4 -27 -7 -38 -7 -14 1 -16 -1 -6 -7 9 -6 1
-11 -26 -15 -21 -4 -46 -10 -57 -13 -18 -5 -18 -5 0 20 11 14 22 23 27 20 4
-2 7 0 7 4 0 5 -9 14 -20 21 -18 11 -21 9 -30 -13 -5 -14 -12 -25 -15 -25 -2
0 0 12 6 26 5 15 7 29 5 32 -3 3 -9 -6 -14 -19 -21 -57 -20 -55 -21 -38 -1 9
6 33 14 52 8 20 11 37 7 39 -8 3 -4 27 28 198 5 30 10 96 10 145 0 50 7 117
15 150 8 33 14 76 15 96 0 20 2 38 5 41 3 3 34 -5 68 -17 54 -20 62 -26 59
-46z m16 43 c2 -7 -2 -10 -12 -6 -9 3 -16 11 -16 16 0 13 23 5 28 -10z m882
-27 c6 -19 10 -40 8 -47 -2 -6 3 -20 11 -29 43 -48 44 -49 27 -74 -27 -42 -51
-30 -45 22 0 4 -8 10 -18 14 -17 7 -17 8 0 8 21 1 21 8 1 56 -8 21 -13 44 -10
51 3 8 1 14 -5 14 -6 0 -7 5 -4 10 12 19 23 10 35 -25z m-859 -124 c-7 -32 -6
-41 5 -41 18 0 57 -39 72 -73 6 -15 26 -36 43 -46 22 -13 27 -21 18 -27 -7 -4
-14 -3 -17 4 -2 7 -8 12 -13 12 -6 0 -7 -4 -4 -10 3 -6 -1 -7 -9 -4 -9 3 -13
11 -9 17 4 6 0 8 -10 4 -20 -8 -33 11 -18 26 7 7 4 15 -10 28 -11 10 -20 20
-20 23 3 20 0 26 -8 22 -5 -4 -11 -1 -13 6 -2 6 -12 9 -21 5 -14 -5 -12 -11
13 -36 17 -16 30 -37 30 -46 0 -17 38 -72 46 -67 2 1 15 2 29 2 21 0 25 -5 25
-27 0 -20 -3 -24 -9 -14 -5 8 -14 10 -22 5 -12 -6 -12 -5 0 9 7 9 9 17 3 17
-5 0 -15 -6 -21 -14 -10 -12 -6 -18 21 -32 18 -9 36 -22 40 -28 4 -6 41 -12
87 -12 54 -1 87 -7 102 -17 21 -16 21 -16 -10 -15 -17 1 -31 5 -31 10 0 4 -5
8 -11 8 -5 0 -7 -4 -4 -10 3 -5 2 -10 -4 -10 -5 0 -12 6 -15 13 -4 6 -4 2 -2
-10 4 -20 0 -23 -27 -22 -24 1 -26 3 -9 6 12 3 22 12 22 21 0 13 -2 14 -9 3
-5 -8 -16 -11 -30 -6 -13 4 -21 2 -21 -5 0 -18 -212 -9 -218 9 -2 7 -17 28
-34 46 -22 26 -27 39 -22 59 4 17 13 26 26 26 11 0 16 -4 12 -11 -4 -8 1 -9
17 -5 23 7 23 7 5 -8 -11 -9 -14 -16 -7 -16 7 0 9 -5 5 -12 -4 -7 -3 -8 5 -4
6 4 9 12 6 17 -4 5 -1 9 4 9 6 0 10 -11 9 -24 -1 -13 -7 -23 -13 -22 -5 2 -7
1 -2 -1 4 -3 5 -9 2 -14 -4 -5 2 -6 12 -2 16 6 16 5 4 -10 -9 -11 -10 -17 -2
-17 18 0 26 4 24 12 -2 5 4 8 13 8 10 0 14 -5 10 -16 -4 -10 -2 -13 7 -7 6 4
19 8 27 8 8 1 26 2 39 3 23 2 22 4 -17 33 -40 29 -55 52 -31 46 6 -1 13 3 16
10 3 8 -3 11 -16 8 -12 -2 -21 1 -21 8 0 10 -29 34 -83 69 -7 4 -6 12 2 22 11
13 11 17 -2 21 -12 5 -13 14 -2 66 15 69 33 99 47 75 5 -8 4 -33 -1 -55z m219
44 c14 -8 21 -15 15 -15 -5 0 -4 -4 4 -9 8 -5 11 -16 8 -26 -4 -9 -11 -13 -17
-10 -6 4 -8 11 -5 16 9 13 -19 11 -33 -3 -22 -22 -12 -27 66 -30 73 -3 76 -4
50 -17 -19 -10 -35 -11 -50 -5 -13 5 -48 7 -78 5 l-55 -5 60 -5 c40 -4 59 -10
57 -18 -1 -7 7 -13 18 -13 11 0 20 -4 20 -10 0 -12 -6 -12 -49 0 -22 6 -39 6
-46 0 -7 -5 -14 -7 -18 -4 -3 3 -4 -2 -1 -13 5 -23 -10 -48 -25 -39 -6 4 -9
12 -5 17 3 6 -2 9 -12 7 -26 -5 -53 46 -37 71 13 21 28 89 25 109 -4 17 76 15
108 -3z m-1166 -11 c3 -9 6 -25 6 -36 0 -16 -3 -18 -14 -9 -14 12 -19 61 -6
61 4 0 11 -7 14 -16z m1046 7 c0 -5 -7 -14 -15 -21 -9 -7 -14 -19 -11 -27 3
-7 1 -13 -4 -13 -6 0 -10 -7 -10 -15 0 -17 -2 -18 -24 -9 -24 9 -20 24 16 61
32 33 48 41 48 24z m249 -10 c10 -7 11 -13 1 -30 -9 -18 -19 -22 -47 -19 -41
3 -51 18 -28 42 18 17 52 21 74 7z m707 -55 c-7 -25 -19 -53 -28 -63 -19 -22
-50 -108 -50 -142 0 -14 -9 -38 -19 -55 -21 -34 -25 -66 -9 -66 6 0 10 9 10
20 0 21 13 49 42 88 9 13 14 30 11 38 -3 9 6 28 23 45 16 17 22 29 14 29 -7 0
-19 -8 -27 -17 -11 -14 -10 -9 2 21 8 21 15 40 15 43 0 2 9 1 20 -2 13 -4 30
1 48 15 l27 22 6 -34 c3 -19 0 -42 -8 -55 -7 -12 -17 -42 -23 -68 -6 -25 -20
-66 -32 -91 -18 -39 -19 -47 -7 -55 12 -8 12 -10 -1 -8 -20 3 -50 -11 -50 -23
0 -6 7 -8 15 -4 9 3 15 0 15 -9 0 -8 -2 -15 -4 -15 -2 0 -11 -3 -20 -6 -11 -4
-16 0 -16 15 0 11 -9 25 -21 31 -28 15 -37 5 -10 -12 29 -18 26 -26 -5 -20
-17 3 -25 1 -21 -5 4 -6 0 -16 -7 -23 -8 -6 -18 -25 -21 -41 -4 -16 -13 -29
-20 -29 -7 0 -16 -8 -18 -17 -3 -11 -5 -8 -6 9 -1 21 -5 26 -18 21 -19 -6 -18
-5 55 74 17 18 27 35 22 38 -4 2 -33 -26 -64 -63 -54 -63 -55 -67 -33 -70 20
-3 23 -8 20 -30 -3 -16 -1 -22 4 -16 5 7 14 -1 24 -22 16 -33 16 -34 -4 -34
-11 0 -25 8 -32 17 -12 15 -15 15 -44 -9 -27 -24 -29 -28 -16 -42 19 -19 19
-24 -2 -29 -10 -2 18 -3 62 -2 44 1 93 -2 110 -6 18 -4 -15 -7 -87 -8 -96 -1
-118 2 -118 13 0 8 6 17 13 20 6 3 0 3 -15 0 -20 -4 -30 -1 -40 15 -7 12 -18
21 -25 21 -17 0 -17 -26 -1 -36 9 -6 5 -10 -12 -15 -21 -6 -18 -7 14 -8 60 -2
32 -15 -35 -17 -32 -1 -59 0 -59 1 0 2 8 11 17 20 16 16 12 17 -63 15 -108 -4
-106 -4 -102 27 3 27 5 28 68 29 77 1 123 17 138 47 l11 22 0 -22 c1 -14 -7
-24 -21 -29 -20 -6 -20 -7 -3 -17 14 -7 20 -7 23 1 6 18 19 15 44 -10 17 -17
20 -18 15 -4 -8 20 2 68 12 61 4 -2 24 27 44 64 38 71 44 86 27 76 -15 -9 -12
4 9 39 22 35 51 149 51 204 1 20 7 51 16 67 l14 30 -5 -40 c-2 -22 -9 -60 -14
-85 -5 -25 -12 -85 -16 -134 -7 -87 -7 -88 12 -70 13 13 20 35 21 69 5 98 79
314 103 299 5 -3 9 0 9 6 0 7 7 9 17 6 10 -4 14 -4 11 0 -8 8 9 44 21 44 4 0
3 -20 -3 -44z m127 -18 c3 -13 6 -60 6 -105 0 -72 -2 -83 -17 -84 -16 -1 -16
-2 1 -6 15 -4 17 -17 16 -96 0 -51 -3 -86 -6 -79 -2 6 -12 12 -21 13 -14 0
-13 2 3 9 18 8 18 9 -5 10 l-25 1 23 10 c28 11 24 33 -5 37 -16 2 -23 -5 -32
-29 -6 -18 -11 -43 -11 -55 0 -13 -4 -24 -10 -24 -5 0 -10 7 -10 16 0 8 -4 12
-10 9 -6 -3 -10 4 -9 17 0 13 3 17 6 10 10 -25 23 0 23 44 0 25 6 57 14 72 15
28 36 115 40 165 2 15 5 30 8 33 10 9 -4 44 -15 37 -6 -3 -7 -1 -3 5 12 20 33
14 39 -10z m-635 -28 c-5 -19 -17 -41 -26 -47 -17 -14 -13 -16 12 -7 9 3 16
14 16 23 0 11 6 7 18 -12 10 -15 22 -24 27 -20 4 5 3 -2 -4 -14 -9 -18 -7 -24
15 -41 47 -33 23 -43 -36 -14 -41 20 -54 32 -52 46 2 10 -1 15 -7 12 -11 -7
-62 13 -73 28 -4 6 -2 16 4 23 7 9 7 13 0 13 -5 0 -8 9 -5 19 5 21 23 26 84
26 l36 0 -9 -35z m384 -2 c-7 -7 -12 -8 -12 -2 0 14 12 26 19 19 2 -3 -1 -11
-7 -17z m-1152 -19 c0 -24 -4 -30 -15 -25 -8 3 -15 0 -15 -6 0 -7 -5 -6 -15 2
-12 10 -15 10 -16 -1 0 -8 -3 -9 -5 -3 -3 6 -24 9 -52 7 l-47 -4 29 16 c15 8
50 15 77 15 27 0 49 4 49 10 0 5 -15 7 -32 5 -26 -4 -29 -3 -13 4 40 19 55 13
55 -20z m1171 8 c-10 -9 -11 -8 -5 6 3 10 9 15 12 12 3 -3 0 -11 -7 -18z
m-329 -19 c-7 -7 -16 -6 -29 2 -16 10 -16 11 0 6 9 -3 17 -1 17 5 0 6 5 7 11
3 7 -4 7 -10 1 -16z m-677 -11 c-5 -19 0 -26 27 -39 18 -8 40 -28 48 -44 8
-16 27 -44 44 -61 33 -36 24 -42 -33 -22 -22 8 -31 17 -31 33 0 52 -35 94 -74
87 -5 -1 -6 5 -2 14 3 9 6 25 6 36 0 10 5 19 10 19 6 0 8 -10 5 -23z m-340 -7
c3 -5 -1 -10 -10 -10 -9 0 -13 5 -10 10 3 6 8 10 10 10 2 0 7 -4 10 -10z m654
-120 c-1 -14 -3 -19 -6 -11 -4 11 -10 8 -24 -10 l-19 -24 10 35 c6 19 10 44
10 55 0 17 -2 18 -11 5 -8 -12 -9 -10 -5 10 3 14 6 36 7 50 1 33 38 -75 38
-110z m-511 100 c30 0 32 -2 31 -37 0 -26 -3 -32 -8 -20 -4 10 -10 18 -14 18
-4 0 -25 8 -48 18 -41 19 -87 18 -57 0 7 -5 20 -9 29 -9 9 0 20 -7 23 -16 5
-13 1 -14 -27 -9 -42 9 -50 18 -42 45 6 19 12 21 44 16 20 -3 51 -6 69 -6z
m-128 -10 c0 -5 -10 -10 -22 -10 -19 0 -20 2 -8 10 19 13 30 13 30 0z m-70
-15 c0 -8 -2 -15 -4 -15 -2 0 -6 7 -10 15 -3 8 -1 15 4 15 6 0 10 -7 10 -15z
m-22 -15 c7 -11 21 -20 31 -20 33 0 33 -17 0 -29 -34 -12 -53 -6 -45 14 2 7
-2 22 -10 34 -12 17 -12 21 -2 21 7 0 19 -9 26 -20z m945 -10 c3 -11 1 -20 -4
-20 -11 0 -30 36 -22 43 9 10 20 0 26 -23z m430 -27 c-8 -32 -17 -60 -20 -63
-6 -7 8 69 18 98 16 42 17 22 2 -35z m-1296 40 c-7 -7 23 -18 116 -44 43 -12
47 -16 47 -44 0 -16 -5 -37 -11 -45 -9 -12 -10 -10 -6 8 4 17 2 22 -9 18 -9
-4 -13 1 -11 17 1 13 -3 21 -10 20 -7 -2 -13 2 -13 8 0 8 -5 8 -15 -1 -12 -10
-15 -10 -15 3 0 10 -6 14 -15 11 -8 -4 -15 -1 -15 5 0 6 -9 11 -19 11 -30 0
-51 11 -51 26 0 8 8 14 17 14 9 0 13 -3 10 -7z m-127 -18 c0 -8 5 -15 10 -15
6 0 10 -7 10 -16 0 -8 -4 -12 -10 -9 -5 3 -10 -1 -10 -9 0 -11 9 -16 29 -16
17 0 33 -4 36 -10 3 -5 12 -10 18 -9 9 0 9 2 0 6 -22 8 -14 21 23 39 36 17 37
17 53 -2 9 -10 23 -20 31 -22 29 -6 94 -100 72 -103 -4 0 -15 -2 -24 -4 -24
-4 -33 12 -16 32 11 15 11 16 -5 10 -15 -5 -17 -3 -12 12 5 18 -14 43 -31 40
-20 -3 -35 2 -29 10 8 15 -15 25 -28 12 -8 -8 -8 -11 1 -11 7 0 12 -5 12 -11
0 -6 11 -20 24 -30 14 -11 31 -35 37 -54 7 -19 16 -35 19 -35 3 0 6 -12 5 -27
0 -23 -6 -29 -45 -40 -25 -8 -91 -16 -147 -18 -97 -5 -101 -4 -96 15 3 11 0
20 -6 20 -6 0 -11 10 -11 23 0 12 -7 30 -14 40 -20 26 -29 20 -10 -8 8 -13 14
-32 12 -42 -2 -14 -6 -12 -21 10 -9 14 -18 35 -20 46 -5 31 -19 40 -17 11 1
-14 2 -35 1 -48 -1 -20 -4 -21 -22 -12 -19 10 -20 10 -10 -9 17 -31 12 -38 -9
-13 -25 30 -34 13 -14 -27 15 -31 41 -45 30 -16 -3 8 -1 15 3 15 9 0 24 -30
19 -35 -2 -2 -27 -6 -55 -10 -43 -6 -53 -4 -53 8 0 8 -7 20 -15 27 -11 9 -19
8 -37 -4 l-22 -16 24 0 c19 0 21 -3 12 -12 -9 -9 -15 -9 -23 -1 -6 6 -18 9
-25 6 -8 -3 -21 0 -29 7 -8 7 -24 10 -34 7 -12 -3 -22 1 -25 9 -4 10 3 14 24
14 17 0 30 -4 30 -10 0 -5 11 -10 25 -10 22 0 24 3 20 40 -5 52 -13 64 -31 49
-11 -9 -14 -9 -14 1 0 7 -8 19 -17 26 -15 11 -16 16 -5 33 16 28 5 27 -18 -1
l-18 -23 1 38 c1 26 5 36 14 33 7 -3 15 -1 17 3 3 5 22 7 41 4 20 -2 43 1 53
7 14 8 11 9 -15 8 -17 -1 -38 4 -46 10 -12 10 -16 10 -19 1 -5 -14 -38 -5 -38
10 0 21 85 28 93 7 8 -20 66 -25 105 -9 24 10 60 13 125 9 65 -3 87 -2 74 6
-18 9 -18 11 -1 29 22 25 6 24 -26 -1 -14 -11 -38 -20 -55 -20 l-29 0 22 16
c48 33 132 45 132 19z m1048 -6 c-2 -6 -8 -10 -13 -10 -5 0 -11 4 -13 10 -2 6
4 11 13 11 9 0 15 -5 13 -11z m-783 -9 c3 -6 -1 -7 -9 -4 -18 7 -21 14 -7 14
6 0 13 -4 16 -10z m455 -50 c-16 -31 -23 -18 -8 15 7 15 14 23 16 17 2 -6 -2
-21 -8 -32z m404 25 c11 -8 27 -15 37 -15 10 0 28 -25 50 -69 19 -38 37 -67
41 -65 5 3 8 -2 8 -11 0 -23 -45 -41 -64 -26 -11 9 -12 20 -4 47 11 43 5 66
-17 58 -8 -3 -15 -1 -15 5 0 24 -19 9 -30 -25 -18 -52 -44 -42 -50 19 -4 38
-10 52 -29 62 -23 12 -23 13 -5 23 26 16 55 14 78 -3z m-134 -5 c0 -5 -4 -10
-10 -10 -5 0 -10 5 -10 10 0 6 5 10 10 10 6 0 10 -4 10 -10z m-531 -71 c16
-33 18 -34 91 -39 53 -4 66 -7 45 -11 l-30 -6 33 -2 c17 0 32 -5 32 -11 0 -12
-1 -12 -127 -14 l-103 -1 0 43 c0 40 2 43 23 37 19 -5 20 -4 5 5 -10 6 -18 20
-18 31 0 29 29 10 49 -32z m611 4 c0 -6 -12 -26 -26 -43 -22 -26 -32 -30 -53
-25 -51 13 -66 49 -37 88 19 24 40 23 26 -2 -11 -22 -14 -61 -4 -61 4 0 15 10
25 22 13 14 16 25 9 33 -6 7 -6 15 2 23 12 12 57 -14 58 -35z m-230 27 c11 -7
5 -10 -23 -10 -23 0 -36 4 -32 10 8 13 35 13 55 0z m501 -67 c-8 -15 -10 -15
-11 -2 0 17 10 32 18 25 2 -3 -1 -13 -7 -23z m339 -3 c0 -5 -5 -10 -11 -10 -5
0 -7 5 -4 10 3 6 8 10 11 10 2 0 4 -4 4 -10z m-943 -16 c-3 -3 -12 -4 -19 -1
-8 3 -5 6 6 6 11 1 17 -2 13 -5z m583 -17 c0 -13 -5 -17 -16 -13 -9 3 -18 6
-20 6 -2 0 -4 6 -4 13 0 7 9 13 20 13 13 0 20 -7 20 -19z m-490 3 c8 -5 12
-11 9 -14 -3 -3 -14 1 -25 9 -21 16 -8 20 16 5z m60 -20 c-8 -5 -21 -10 -29
-10 -11 0 -10 5 4 20 13 15 22 17 29 10 8 -8 6 -14 -4 -20z m223 -10 c5 -18 3
-18 -29 -2 -19 8 -34 21 -34 28 0 20 57 -4 63 -26z m-358 19 c15 -7 11 -8 -17
-5 -21 3 -40 1 -43 -5 -3 -5 1 -6 9 -3 9 3 16 2 16 -4 0 -6 9 -8 20 -5 11 3
26 0 34 -6 11 -10 16 -8 24 5 6 10 12 13 16 6 13 -21 -25 -44 -64 -38 -35 5
-37 5 -32 -19 6 -33 13 -32 72 10 68 48 75 44 15 -9 -41 -36 -55 -43 -78 -39
-22 5 -26 3 -21 -11 4 -11 1 -16 -11 -16 -12 0 -15 5 -10 18 23 54 7 93 -38
91 -20 -1 -20 -2 3 -8 19 -5 26 -15 28 -38 3 -26 -2 -34 -25 -47 -26 -14 -26
-15 -6 -16 28 0 37 -14 19 -29 -19 -16 -77 8 -100 40 -9 13 -19 23 -21 22 -15
-8 -105 -1 -105 7 0 7 18 8 50 4 45 -6 54 -4 75 16 25 23 35 47 15 35 -5 -3
-10 -4 -10 -1 0 11 60 36 85 36 15 0 24 4 20 10 -8 13 53 12 80 -1z m-280 -19
c3 -5 -1 -10 -9 -10 -9 0 -16 5 -16 10 0 6 4 10 9 10 6 0 13 -4 16 -10z m590
-8 c38 -18 40 -21 51 -85 8 -51 8 -70 -1 -77 -9 -7 -15 5 -25 45 -7 30 -17 52
-22 49 -12 -8 -10 -78 4 -92 9 -9 9 -12 -3 -12 -8 0 -20 5 -26 11 -8 8 -13 8
-17 0 -4 -6 -12 -11 -18 -11 -10 0 -8 36 7 108 5 19 4 32 -2 32 -12 0 -33 -68
-33 -108 0 -25 -3 -30 -16 -25 -20 7 -14 44 19 113 13 28 21 50 16 50 -4 0
-11 -4 -14 -10 -8 -13 -25 -13 -25 0 0 10 34 28 55 29 6 0 28 -8 50 -17z
m-1495 -17 c0 -8 -2 -15 -4 -15 -2 0 -6 7 -10 15 -3 8 -1 15 4 15 6 0 10 -7
10 -15z m1700 -16 c-17 -17 -34 -29 -37 -25 -9 9 37 56 55 56 8 0 1 -13 -18
-31z m282 -21 c-11 -11 -35 -21 -53 -22 -27 -1 -36 -7 -44 -30 -8 -22 -7 -30
3 -34 10 -3 10 -7 1 -18 -12 -15 1 -19 44 -14 10 1 26 -4 35 -12 15 -12 16
-11 3 5 -7 9 -20 17 -28 17 -8 0 -11 5 -8 10 9 15 33 12 53 -6 9 -8 33 -28 52
-44 43 -36 33 -50 -15 -21 -20 11 -48 21 -63 20 -27 -1 -27 -1 5 -12 18 -7 40
-20 50 -31 17 -17 17 -18 -17 -11 -37 8 -71 24 -81 39 -4 5 -15 6 -25 1 -18
-7 -18 -8 1 -15 17 -7 17 -9 3 -9 -19 -1 -42 34 -33 50 4 5 2 16 -5 24 -9 10
-8 21 4 44 9 16 16 37 16 46 0 8 3 15 8 15 4 0 12 10 17 22 7 16 19 23 43 24
18 1 36 5 40 9 4 4 9 -1 10 -10 2 -10 -5 -26 -16 -37z m-1024 35 c-15 -2 -42
-2 -60 0 -18 2 -6 4 27 4 33 0 48 -2 33 -4z m772 -33 c-20 -40 -35 -55 -23
-23 12 30 -14 5 -27 -27 -13 -32 -17 -34 -39 -21 -10 6 -10 10 -1 16 9 6 9 10
-1 16 -23 14 -39 10 -33 -8 5 -15 4 -15 -4 -3 -5 8 -13 30 -17 49 -6 30 -5 32
8 20 8 -8 13 -17 11 -21 -3 -4 9 -14 26 -23 21 -11 30 -21 26 -31 -3 -9 -2
-12 5 -9 6 4 8 13 5 20 -6 16 29 49 42 41 5 -3 14 6 20 19 7 14 14 25 17 25 3
0 -4 -18 -15 -40z m279 -26 c-22 -24 -69 -33 -69 -14 0 6 11 10 26 10 19 0 29
8 42 38 14 33 16 35 20 14 2 -15 -5 -33 -19 -48z m118 60 c-3 -3 -12 -4 -19
-1 -8 3 -5 6 6 6 11 1 17 -2 13 -5z m-1452 -24 c-3 -5 -10 -10 -16 -10 -5 0
-9 5 -9 10 0 6 7 10 16 10 8 0 12 -4 9 -10z m282 4 c13 -4 21 -10 18 -14 -5
-7 -103 5 -113 15 -7 7 67 6 95 -1z m1110 -8 c-3 -8 -3 -17 1 -20 3 -4 6 -21
6 -39 1 -30 3 -32 34 -29 24 3 32 0 32 -12 0 -9 -5 -16 -11 -16 -5 0 -7 -4 -4
-10 14 -22 -23 -8 -48 18 -21 22 -27 38 -27 75 0 28 5 47 11 47 6 0 9 -6 6
-14z m63 10 c0 -9 -30 -14 -35 -6 -4 6 3 10 14 10 12 0 21 -2 21 -4z m-1787
-37 c6 -23 -11 -26 -19 -4 -4 10 -13 13 -24 10 -10 -3 -20 0 -23 8 -3 9 4 12
28 9 22 -3 35 -10 38 -23z m1032 -15 c-8 -20 -15 -39 -15 -42 0 -3 -5 -1 -11
5 -9 9 -6 19 10 42 29 41 35 39 16 -5z m-743 8 c-1 -7 7 -27 18 -43 15 -21 18
-29 8 -31 -7 0 -18 -2 -24 -2 -17 -2 -44 -27 -44 -41 0 -7 12 -16 28 -21 l27
-7 -30 -6 c-17 -4 -41 -1 -57 7 -33 16 -68 2 -68 -28 0 -16 -5 -14 -30 12 -16
16 -30 37 -30 47 0 9 -5 22 -12 29 -7 7 -9 12 -4 12 14 0 33 -25 28 -39 -7
-20 55 -7 90 19 15 11 32 20 37 20 15 0 41 30 41 47 0 19 -50 10 -99 -19 -20
-11 -30 -14 -23 -6 9 11 9 17 0 26 -9 9 -8 12 5 12 9 0 17 -5 17 -10 0 -6 13
-4 30 5 16 8 42 15 57 16 25 0 26 1 8 10 -18 8 -17 8 5 6 14 -1 24 -8 22 -15z
m1508 -2 c0 -15 -7 -20 -25 -20 -18 0 -25 5 -25 20 0 15 7 20 25 20 18 0 25
-5 25 -20z m-100 -14 c0 -7 -11 -16 -25 -19 -25 -4 -25 -4 -9 14 20 22 34 24
34 5z m-1647 -3 c-7 -2 -19 -2 -25 0 -7 3 -2 5 12 5 14 0 19 -2 13 -5z m-315
-10 c-10 -2 -28 -2 -40 0 -13 2 -5 4 17 4 22 1 32 -1 23 -4z m229 -9 c-30 -16
-44 -14 -32 5 3 6 18 11 33 11 l27 -1 -28 -15z m453 12 c0 -3 -4 -8 -10 -11
-5 -3 -10 -1 -10 4 0 6 5 11 10 11 6 0 10 -2 10 -4z m195 -6 c3 -5 -3 -10 -14
-10 -11 0 -23 5 -26 10 -3 6 3 10 14 10 11 0 23 -4 26 -10z m988 0 c7 0 8 -3
1 -10 -12 -12 -56 -1 -48 12 3 5 13 7 21 4 8 -3 20 -6 26 -6z m-1759 -15 c18
-14 13 -15 -52 -15 -100 0 -93 23 8 28 14 1 34 -5 44 -13z m46 5 c0 -5 -7 -7
-15 -4 -8 4 -15 8 -15 10 0 2 7 4 15 4 8 0 15 -4 15 -10z m-194 -25 c17 -18
19 -25 8 -25 -18 0 -64 29 -64 41 0 18 33 8 56 -16z m403 9 c2 -2 -15 -4 -38
-4 -25 0 -40 4 -36 10 5 8 63 3 74 -6z m1145 0 c3 -8 2 -12 -4 -9 -6 3 -10 10
-10 16 0 14 7 11 14 -7z m-1257 0 c-3 -3 -12 -4 -19 -1 -8 3 -5 6 6 6 11 1 17
-2 13 -5z m138 -3 c3 -5 2 -12 -3 -15 -5 -3 -9 1 -9 9 0 17 3 19 12 6z m70 0
c7 -12 -12 -24 -25 -16 -11 7 -4 25 10 25 5 0 11 -4 15 -9z m1555 -47 c27 -30
49 -62 49 -71 -1 -17 -2 -17 -6 0 -3 11 -11 16 -18 13 -9 -3 -25 12 -42 39
-15 24 -36 44 -45 45 -10 0 -18 6 -18 13 0 28 31 12 80 -39z m-1073 40 c-3 -3
-12 -4 -19 -1 -8 3 -5 6 6 6 11 1 17 -2 13 -5z m343 -14 c36 -36 20 -51 -35
-30 -22 8 -24 13 -15 30 13 25 25 25 50 0z m-1117 -17 c18 -9 27 -18 21 -20
-7 -2 -27 5 -45 16 -41 25 -21 28 24 4z m40 10 c-7 -2 -19 -2 -25 0 -7 3 -2 5
12 5 14 0 19 -2 13 -5z m684 1 c-3 -3 -12 -4 -19 -1 -8 3 -5 6 6 6 11 1 17 -2
13 -5z m109 -12 c-10 -2 -22 0 -28 6 -6 6 0 7 19 4 21 -5 23 -7 9 -10z m-662
0 c3 -5 -9 -7 -27 -5 -26 3 -28 1 -12 -6 16 -8 11 -10 -25 -10 -33 -1 -41 -4
-30 -11 8 -5 29 -10 47 -10 21 0 41 -9 57 -25 l25 -25 -24 0 c-14 0 -25 4 -25
8 0 15 -49 32 -93 33 -23 1 -34 3 -24 6 19 5 23 23 5 23 -8 0 -8 3 -2 9 16 16
120 26 128 13z m1374 -17 c-3 -14 -1 -25 3 -25 5 0 9 5 9 10 0 6 6 10 14 10
10 0 13 -8 11 -21 -7 -34 -14 -35 -42 -7 -22 23 -24 29 -13 42 18 23 23 20 18
-9z m-1143 5 c3 -5 1 -10 -4 -10 -6 0 -11 5 -11 10 0 6 2 10 4 10 3 0 8 -4 11
-10z m100 0 c3 -5 -9 -9 -30 -8 -19 1 -35 5 -35 10 0 11 57 10 65 -2z m-586
-9 c49 -13 31 -26 -36 -25 -160 2 -176 7 -92 23 53 11 96 11 128 2z m937 -8
c-4 -5 -35 -9 -69 -9 -40 -1 -55 2 -42 7 26 10 121 11 111 2z m-402 -17 c-3
-9 -13 -12 -27 -8 -21 6 -21 6 3 13 14 4 26 7 27 8 1 1 0 -5 -3 -13z m469 7
c-7 -2 -21 -2 -30 0 -10 3 -4 5 12 5 17 0 24 -2 18 -5z m118 -11 c-7 -2 -18 1
-23 6 -8 8 -4 9 13 5 13 -4 18 -8 10 -11z m-728 -30 c20 -10 20 -11 -10 -11
-26 -1 -33 3 -33 17 0 24 14 38 18 19 2 -8 13 -19 25 -25z m-464 12 c10 -9
-35 -3 -49 6 -11 8 -7 9 15 4 17 -4 32 -8 34 -10z m969 9 c-10 -2 -28 -2 -40
0 -13 2 -5 4 17 4 22 1 32 -1 23 -4z m-788 -23 c13 -8 13 -10 -2 -10 -9 0 -20
5 -23 10 -8 13 5 13 25 0z m430 0 c12 -8 11 -10 -7 -10 -13 0 -23 5 -23 10 0
13 11 13 30 0z m-567 -7 c-7 -2 -19 -2 -25 0 -7 3 -2 5 12 5 14 0 19 -2 13 -5z
m194 1 c-3 -3 -12 -4 -19 -1 -8 3 -5 6 6 6 11 1 17 -2 13 -5z m850 -10 c-3 -3
-12 -4 -19 -1 -8 3 -5 6 6 6 11 1 17 -2 13 -5z"/>
<path d="M1982 2690 c-9 -93 -10 -313 -1 -298 5 10 8 82 6 170 -1 84 -4 142
-5 128z"/>
<path d="M1850 2639 c11 -38 26 -55 17 -19 -4 14 -7 31 -7 38 0 6 -4 12 -9 12
-6 0 -6 -12 -1 -31z"/>
<path d="M2068 2525 c-41 -160 -33 -168 10 -10 17 61 34 118 37 128 4 9 3 17
-2 17 -6 0 -26 -61 -45 -135z"/>
<path d="M1921 2635 c-2 -34 22 -240 28 -248 4 -4 4 28 -1 70 -10 103 -25 203
-27 178z"/>
<path d="M2025 2530 c-9 -67 -15 -123 -12 -126 2 -3 10 35 17 83 7 48 16 105
20 126 4 20 5 37 1 37 -5 0 -16 -54 -26 -120z"/>
<path d="M2114 2543 c-9 -26 -28 -75 -41 -107 -25 -65 -28 -75 -14 -60 12 13
83 205 78 211 -3 2 -13 -17 -23 -44z"/>
<path d="M1907 2445 c3 -16 10 -39 14 -50 l8 -20 0 20 c0 11 -6 34 -14 50
l-14 30 6 -30z"/>
<path d="M1080 3745 c-23 -24 -24 -28 -9 -53 20 -36 58 -42 60 -10 6 93 -8
109 -51 63z"/>
<path d="M1150 3715 c0 -42 3 -55 15 -55 12 0 15 13 15 55 0 42 -3 55 -15 55
-12 0 -15 -13 -15 -55z"/>
<path d="M1195 3759 c-12 -19 5 -99 21 -99 12 0 14 9 10 43 -2 23 -5 48 -5 55
-1 15 -17 16 -26 1z"/>
<path d="M506 3203 c-11 -11 -6 -23 9 -23 8 0 15 4 15 9 0 13 -16 22 -24 14z"/>
<path d="M1733 3243 c-16 -6 -17 -43 -1 -43 6 0 8 3 5 7 -4 3 -2 12 5 20 13
15 9 22 -9 16z"/>
<path d="M1750 3210 c0 -5 5 -10 10 -10 6 0 10 5 10 10 0 6 -4 10 -10 10 -5 0
-10 -4 -10 -10z"/>
<path d="M1385 3000 c-3 -5 -2 -10 4 -10 6 0 7 -7 4 -17 -4 -10 -2 -14 4 -10
17 11 23 47 8 47 -8 0 -17 -4 -20 -10z"/>
<path d="M1210 3169 c0 -5 -4 -7 -10 -4 -5 3 -10 1 -10 -4 0 -6 7 -11 15 -11
8 0 15 7 15 15 0 8 -2 15 -5 15 -3 0 -5 -5 -5 -11z"/>
<path d="M1110 2528 c0 -33 9 -58 22 -58 6 0 7 13 3 33 -9 43 -25 59 -25 25z"/>
<path d="M1238 2494 c-5 -4 -8 -21 -8 -38 0 -21 3 -27 11 -19 6 6 9 23 7 38
-2 15 -6 23 -10 19z"/>
<path d="M1658 2565 c-7 -8 14 -69 32 -90 8 -10 14 -20 13 -22 -2 -1 0 -3 5
-4 4 0 9 8 11 18 2 10 8 24 13 31 7 8 7 12 -1 12 -8 0 -10 8 -6 21 6 19 4 21
-18 15 -18 -4 -29 -1 -35 9 -4 9 -11 13 -14 10z m43 -58 c-1 -12 -15 -9 -19 4
-3 6 1 10 8 8 6 -3 11 -8 11 -12z"/>
<path d="M1712 2408 c-8 -29 -7 -57 2 -140 1 -10 5 -20 8 -23 3 -3 5 40 4 95
0 55 -2 100 -3 100 -1 0 -6 -15 -11 -32z"/>
<path d="M2130 2374 c0 -8 5 -12 10 -9 6 3 10 10 10 16 0 5 -4 9 -10 9 -5 0
-10 -7 -10 -16z"/>
<path d="M1694 2178 c-4 -6 -2 -14 5 -16 9 -3 9 -7 1 -17 -7 -9 -8 -15 -1 -19
13 -9 32 29 25 48 -7 19 -20 21 -30 4z"/>
<path d="M1767 2114 c-3 -3 -3 -12 -1 -19 4 -10 -1 -12 -15 -8 -11 3 -35 0
-53 -6 -21 -8 -35 -8 -42 -1 -5 5 -14 10 -18 10 -5 0 3 -12 17 -26 17 -17 33
-24 46 -21 10 3 19 1 19 -4 0 -5 5 -9 10 -9 17 0 11 28 -7 33 -10 3 -1 5 19 6
25 1 41 7 47 20 13 23 -4 43 -22 25z"/>
<path d="M1784 1951 c4 -5 1 -12 -4 -14 -6 -3 -5 -4 2 -3 15 3 23 26 8 26 -6
0 -9 -4 -6 -9z"/>
<path d="M1970 1841 c0 -12 5 -21 10 -21 6 0 10 6 10 14 0 8 -4 18 -10 21 -5
3 -10 -3 -10 -14z"/>
<path d="M1815 1810 c-3 -5 1 -10 10 -10 9 0 13 5 10 10 -3 6 -8 10 -10 10 -2
0 -7 -4 -10 -10z"/>
<path d="M1880 1720 c0 -5 5 -10 11 -10 5 0 7 5 4 10 -3 6 -8 10 -11 10 -2 0
-4 -4 -4 -10z"/>
<path d="M1965 1680 c-8 -12 3 -50 14 -50 5 0 8 13 7 30 -1 30 -10 38 -21 20z"/>
<path d="M1751 1654 c0 -11 3 -14 6 -6 3 7 2 16 -1 19 -3 4 -6 -2 -5 -13z"/>
<path d="M1995 1660 c3 -5 8 -10 11 -10 2 0 4 5 4 10 0 6 -5 10 -11 10 -5 0
-7 -4 -4 -10z"/>
<path d="M2092 1650 c0 -14 2 -19 5 -12 2 6 2 18 0 25 -3 6 -5 1 -5 -13z"/>
<path d="M1790 2400 c0 -5 5 -10 10 -10 6 0 10 5 10 10 0 6 -4 10 -10 10 -5 0
-10 -4 -10 -10z"/>
<path d="M756 1763 c-6 -14 -5 -15 5 -6 7 7 10 15 7 18 -3 3 -9 -2 -12 -12z"/>
<path d="M140 2120 c0 -5 5 -10 11 -10 5 0 7 5 4 10 -3 6 -8 10 -11 10 -2 0
-4 -4 -4 -10z"/>
<path d="M162 2110 c-9 -15 -8 -19 6 -23 15 -4 15 -5 -1 -6 -16 -1 -17 -3 -3
-16 21 -21 26 -19 26 13 0 40 -13 55 -28 32z"/>
<path d="M260 1950 c0 -6 7 -10 15 -10 8 0 15 2 15 4 0 2 -7 6 -15 10 -8 3
-15 1 -15 -4z"/>
<path d="M416 1798 c7 -11 104 -7 104 3 0 5 -24 8 -54 7 -30 -1 -52 -6 -50
-10z"/>
<path d="M453 1753 c15 -2 37 -2 50 0 12 2 0 4 -28 4 -27 0 -38 -2 -22 -4z"/>
<path d="M378 1733 c7 -3 16 -2 19 1 4 3 -2 6 -13 5 -11 0 -14 -3 -6 -6z"/>
<path d="M470 1720 c0 -5 9 -10 20 -10 11 0 20 -4 20 -10 0 -19 16 -10 17 10
1 16 -4 20 -28 20 -16 0 -29 -4 -29 -10z"/>
<path d="M449 2123 c-13 -15 -12 -15 9 -4 23 12 28 21 13 21 -5 0 -15 -7 -22
-17z"/>
<path d="M497 2094 c-8 -8 1 -24 12 -24 4 0 8 7 8 15 0 16 -9 20 -20 9z"/>
<path d="M1280 1339 c0 -5 11 -9 25 -9 14 0 25 4 25 9 0 5 -11 9 -25 9 -14 0
-25 -4 -25 -9z"/>
<path d="M1346 855 c-3 -8 -1 -15 4 -15 13 0 22 18 11 24 -5 3 -11 -1 -15 -9z"/>
<path d="M1377 719 c7 -7 15 -10 18 -7 3 3 -2 9 -12 12 -14 6 -15 5 -6 -5z"/>
<path d="M1353 323 c15 -2 39 -2 55 0 15 2 2 4 -28 4 -30 0 -43 -2 -27 -4z"/>
<path d="M1530 1677 c0 -7 9 -13 19 -14 14 -1 18 3 14 13 -6 17 -33 19 -33 1z"/>
<path d="M1528 1133 c7 -3 16 -2 19 1 4 3 -2 6 -13 5 -11 0 -14 -3 -6 -6z"/>
<path d="M1508 1113 c7 -3 16 -2 19 1 4 3 -2 6 -13 5 -11 0 -14 -3 -6 -6z"/>
<path d="M1580 949 c0 -5 5 -7 10 -4 6 3 10 8 10 11 0 2 -4 4 -10 4 -5 0 -10
-5 -10 -11z"/>
<path d="M110 1386 c0 -2 11 -6 25 -8 14 -3 25 -1 25 3 0 5 -11 9 -25 9 -14 0
-25 -2 -25 -4z"/>
<path d="M108 1363 c6 -2 18 -2 25 0 6 3 1 5 -13 5 -14 0 -19 -2 -12 -5z"/>
<path d="M194 1355 c11 -8 25 -15 30 -15 6 0 2 7 -8 15 -11 8 -25 15 -30 15
-6 0 -2 -7 8 -15z"/>
<path d="M240 1325 c0 -14 45 -29 59 -20 5 2 8 -3 7 -12 0 -10 10 -19 27 -24
16 -4 25 -4 21 2 -3 5 -15 9 -27 10 -20 1 -20 2 3 8 24 7 24 8 5 18 -11 6 -37
15 -57 21 -30 8 -38 8 -38 -3z"/>
<path d="M100 1319 c0 -5 5 -7 11 -4 6 4 17 -1 24 -11 13 -18 14 -18 12 4 -1
16 -8 22 -24 22 -13 0 -23 -5 -23 -11z"/>
<path d="M756 1312 c-2 -4 -3 -34 -2 -66 2 -47 0 -55 -8 -37 -7 17 -16 21 -40
19 -18 -2 -30 -8 -28 -15 1 -10 -26 -13 -113 -13 -75 0 -115 4 -115 11 0 6 -9
8 -22 3 -13 -4 -52 -7 -88 -5 -56 1 -68 5 -88 28 -29 32 -41 23 -14 -12 22
-27 20 -50 -4 -59 -19 -7 -41 2 -41 17 0 7 -3 22 -7 35 -5 13 -3 22 3 22 6 0
11 8 11 18 0 15 7 17 38 14 48 -6 39 4 -16 16 -40 9 -42 9 -42 -13 0 -13 -5
-25 -10 -27 -7 -2 -7 -14 1 -36 13 -37 7 -51 -14 -34 -15 13 -37 -2 -37 -25 0
-10 20 -13 74 -13 85 0 128 12 120 33 -7 19 10 24 71 21 28 -1 119 -3 203 -3
123 -1 152 -4 152 -15 0 -14 29 -30 38 -21 3 3 1 5 -4 5 -9 0 -9 106 0 143 4
17 -9 24 -18 9z m-463 -118 c9 -10 -4 -34 -19 -34 -16 0 -16 2 -8 24 6 17 16
20 27 10z"/>
<path d="M553 1303 c31 -5 37 -23 8 -23 -30 0 -34 -17 -9 -34 25 -18 27 -17
33 14 6 31 10 33 35 20 12 -6 24 -9 27 -7 9 10 -36 27 -79 31 -24 2 -31 1 -15
-1z m17 -43 c0 -5 -2 -10 -4 -10 -3 0 -8 5 -11 10 -3 6 -1 10 4 10 6 0 11 -4
11 -10z"/>
<path d="M388 1293 c17 -2 47 -2 65 0 17 2 3 4 -33 4 -36 0 -50 -2 -32 -4z"/>
<path d="M600 1246 c0 -2 11 -6 25 -8 13 -3 22 -1 19 3 -5 9 -44 13 -44 5z"/>
<path d="M58 1173 c6 -2 18 -2 25 0 6 3 1 5 -13 5 -14 0 -19 -2 -12 -5z"/>
<path d="M435 1160 c39 -4 65 -7 58 -8 -6 -1 -15 -11 -18 -22 -4 -11 -16 -21
-28 -21 -16 -1 -17 -3 -5 -6 9 -2 19 -16 23 -31 3 -15 8 -35 11 -44 4 -14 -3
-18 -38 -21 -31 -3 -25 -4 19 -4 49 0 61 3 53 13 -12 13 -3 64 11 64 5 0 8 3
8 8 -5 27 3 42 23 42 20 0 20 -1 4 -19 -9 -10 -14 -25 -11 -33 3 -8 1 -27 -4
-41 -7 -18 -7 -27 0 -27 5 0 13 8 16 17 4 9 15 25 25 35 10 10 16 23 13 28 -4
6 4 10 17 11 13 0 17 3 11 6 -32 12 -7 22 65 26 59 2 50 3 -42 5 -75 1 -116 6
-110 11 5 6 32 11 59 13 28 2 -13 4 -90 4 -105 0 -122 -1 -70 -6z"/>
<path d="M663 1163 c9 -2 23 -2 30 0 6 3 -1 5 -18 5 -16 0 -22 -2 -12 -5z"/>
<path d="M58 1153 c7 -3 16 -2 19 1 4 3 -2 6 -13 5 -11 0 -14 -3 -6 -6z"/>
<path d="M138 1113 c7 -3 16 -2 19 1 4 3 -2 6 -13 5 -11 0 -14 -3 -6 -6z"/>
<path d="M213 1113 c9 -2 23 -2 30 0 6 3 -1 5 -18 5 -16 0 -22 -2 -12 -5z"/>
<path d="M268 1113 c6 -2 18 -2 25 0 6 3 1 5 -13 5 -14 0 -19 -2 -12 -5z"/>
<path d="M243 1093 c9 -2 23 -2 30 0 6 3 -1 5 -18 5 -16 0 -22 -2 -12 -5z"/>
<path d="M334 1075 c-10 -8 -14 -15 -8 -15 5 0 15 5 21 11 6 6 31 10 56 8 25
-2 43 -1 40 4 -8 13 -89 7 -109 -8z"/>
<path d="M278 1063 c6 -2 18 -2 25 0 6 3 1 5 -13 5 -14 0 -19 -2 -12 -5z"/>
<path d="M365 1058 c-10 -6 -33 -15 -50 -19 -24 -6 -20 -7 20 -5 37 2 51 7 53
19 4 20 3 20 -23 5z"/>
<path d="M193 1048 c4 -11 2 -18 -6 -18 -8 0 -7 -4 3 -10 13 -9 13 -11 0 -21
-13 -9 -12 -10 3 -5 10 3 21 6 23 6 12 0 2 39 -13 51 -15 12 -16 12 -10 -3z"/>
<path d="M613 1053 c9 -2 23 -2 30 0 6 3 -1 5 -18 5 -16 0 -22 -2 -12 -5z"/>
<path d="M128 1033 c7 -3 16 -2 19 1 4 3 -2 6 -13 5 -11 0 -14 -3 -6 -6z"/>
<path d="M418 1023 c7 -3 16 -2 19 1 4 3 -2 6 -13 5 -11 0 -14 -3 -6 -6z"/>
<path d="M338 1013 c6 -2 18 -2 25 0 6 3 1 5 -13 5 -14 0 -19 -2 -12 -5z"/>
<path d="M648 1003 c12 -2 30 -2 40 0 9 3 -1 5 -23 4 -22 0 -30 -2 -17 -4z"/>
<path d="M260 970 c0 -5 7 -10 16 -10 8 0 12 5 9 10 -3 6 -10 10 -16 10 -5 0
-9 -4 -9 -10z"/>
<path d="M413 973 c9 -2 23 -2 30 0 6 3 -1 5 -18 5 -16 0 -22 -2 -12 -5z"/>
<path d="M513 973 c20 -2 54 -2 75 0 20 2 3 4 -38 4 -41 0 -58 -2 -37 -4z"/>
<path d="M316 948 c3 -4 0 -8 -7 -8 -7 0 -10 -2 -7 -5 7 -8 68 6 68 16 0 4
-13 7 -30 7 -16 -1 -27 -5 -24 -10z"/>
<path d="M188 913 c-20 -21 -20 -24 -5 -41 10 -10 17 -26 17 -34 0 -9 10 -18
23 -22 33 -9 45 -6 19 5 -28 11 -24 33 6 37 28 4 28 19 0 45 l-23 19 25 -7
c14 -4 32 -10 40 -12 11 -3 10 0 -3 10 -14 11 -15 16 -5 20 7 3 -6 5 -30 4
-30 -1 -49 -9 -64 -24z"/>
<path d="M408 893 c7 -3 16 -2 19 1 4 3 -2 6 -13 5 -11 0 -14 -3 -6 -6z"/>
<path d="M258 793 c6 -2 18 -2 25 0 6 3 1 5 -13 5 -14 0 -19 -2 -12 -5z"/>
<path d="M1708 1063 c7 -3 16 -2 19 1 4 3 -2 6 -13 5 -11 0 -14 -3 -6 -6z"/>
<path d="M1785 910 c-16 -7 -17 -9 -3 -9 9 -1 20 4 23 9 7 11 7 11 -20 0z"/>
<path d="M1723 703 c9 -2 25 -2 35 0 9 3 1 5 -18 5 -19 0 -27 -2 -17 -5z"/>
<path d="M120 1525 c0 -15 18 -40 24 -34 3 3 -1 14 -9 25 -8 10 -14 15 -15 9z"/>
<path d="M1918 1563 c7 -3 16 -2 19 1 4 3 -2 6 -13 5 -11 0 -14 -3 -6 -6z"/>
<path d="M1170 1266 c0 -2 8 -10 18 -17 15 -13 16 -12 3 4 -13 16 -21 21 -21
13z"/>
<path d="M1043 1213 c15 -2 37 -2 50 0 12 2 0 4 -28 4 -27 0 -38 -2 -22 -4z"/>
<path d="M1231 1179 c13 -8 88 -14 78 -5 -2 2 -24 6 -48 9 -29 4 -40 2 -30 -4z"/>
<path d="M1043 1143 c9 -2 25 -2 35 0 9 3 1 5 -18 5 -19 0 -27 -2 -17 -5z"/>
<path d="M1328 1143 c7 -3 16 -2 19 1 4 3 -2 6 -13 5 -11 0 -14 -3 -6 -6z"/>
<path d="M1138 1133 c6 -2 18 -2 25 0 6 3 1 5 -13 5 -14 0 -19 -2 -12 -5z"/>
<path d="M1260 1080 c14 -4 32 -8 40 -9 13 -1 13 0 0 9 -8 5 -26 9 -40 9 l-25
-1 25 -8z"/>
<path d="M1328 1073 c6 -2 18 -2 25 0 6 3 1 5 -13 5 -14 0 -19 -2 -12 -5z"/>
<path d="M2112 1170 c0 -14 2 -19 5 -12 2 6 2 18 0 25 -3 6 -5 1 -5 -13z"/>
<path d="M2050 1120 c0 -13 18 -22 24 -11 3 5 -1 11 -9 15 -8 3 -15 1 -15 -4z"/>
<path d="M2039 1082 c10 -19 7 -24 -24 -44 -19 -13 -35 -26 -35 -30 0 -4 20 5
45 21 37 24 53 28 85 24 40 -6 47 0 32 24 -6 9 -17 10 -39 4 -23 -7 -37 -5
-53 6 -21 15 -22 15 -11 -5z"/>
<path d="M840 460 c0 -5 5 -10 11 -10 5 0 7 5 4 10 -3 6 -8 10 -11 10 -2 0 -4
-4 -4 -10z"/>
<path d="M965 960 c3 -5 8 -10 11 -10 2 0 4 5 4 10 0 6 -5 10 -11 10 -5 0 -7
-4 -4 -10z"/>
<path d="M977 879 c7 -7 15 -10 18 -7 3 3 -2 9 -12 12 -14 6 -15 5 -6 -5z"/>
<path d="M926 746 c21 -15 30 -14 19 3 -3 6 -14 11 -23 11 -13 0 -13 -2 4 -14z"/>
<path d="M1153 1033 c9 -2 25 -2 35 0 9 3 1 5 -18 5 -19 0 -27 -2 -17 -5z"/>
<path d="M1110 953 c0 -12 3 -14 8 -7 4 7 16 14 27 17 15 4 14 5 -7 6 -21 1
-28 -4 -28 -16z"/>
<path d="M1987 911 c-4 -17 -3 -21 5 -13 5 5 8 16 6 23 -3 8 -7 3 -11 -10z"/>
<path d="M2102 898 c-15 -15 -16 -31 -1 -22 8 4 9 -1 5 -17 -6 -20 -5 -21 4
-6 6 9 9 21 5 26 -3 5 0 11 7 13 8 3 8 7 2 11 -6 3 -16 1 -22 -5z"/>
<path d="M1931 776 c-11 -47 -20 -100 -20 -118 1 -27 3 -24 10 17 5 28 16 79
25 113 8 35 13 66 11 68 -2 3 -14 -34 -26 -80z"/>
<path d="M1996 710 c-19 -20 -19 -20 8 -20 21 0 27 4 22 15 -5 13 -2 14 15 4
17 -9 20 -8 17 3 -7 20 -41 19 -62 -2z"/>
<path d="M1624 375 c19 -12 31 -14 39 -6 7 7 4 10 -9 9 -10 0 -28 2 -39 6 -11
4 -7 0 9 -9z"/>
<path d="M1746 364 c-5 -14 -4 -15 9 -4 17 14 19 20 6 20 -5 0 -12 -7 -15 -16z"/>
<path d="M1463 933 c9 -2 23 -2 30 0 6 3 -1 5 -18 5 -16 0 -22 -2 -12 -5z"/>
<path d="M1468 883 c7 -3 16 -2 19 1 4 3 -2 6 -13 5 -11 0 -14 -3 -6 -6z"/>
<path d="M115 740 c3 -5 8 -10 11 -10 2 0 4 5 4 10 0 6 -5 10 -11 10 -5 0 -7
-4 -4 -10z"/>
<path d="M245 730 c-3 -6 1 -7 9 -4 18 7 21 14 7 14 -6 0 -13 -4 -16 -10z"/>
<path d="M315 720 c-3 -5 -1 -10 4 -10 6 0 11 5 11 10 0 6 -2 10 -4 10 -3 0
-8 -4 -11 -10z"/>
<path d="M185 700 c-3 -5 -1 -10 4 -10 6 0 11 5 11 10 0 6 -2 10 -4 10 -3 0
-8 -4 -11 -10z"/>
<path d="M130 684 c0 -8 5 -12 10 -9 6 4 8 11 5 16 -9 14 -15 11 -15 -7z"/>
<path d="M483 693 c4 -3 5 -9 1 -14 -3 -5 2 -9 10 -9 8 0 18 5 21 10 3 6 2 10
-4 10 -5 0 -15 2 -23 3 -7 2 -10 2 -5 0z"/>
<path d="M155 670 c-3 -5 -1 -10 4 -10 6 0 11 5 11 10 0 6 -2 10 -4 10 -3 0
-8 -4 -11 -10z"/>
<path d="M236 671 c-17 -7 -18 -8 -3 -14 9 -3 19 -2 22 3 3 5 13 6 22 3 11 -4
14 -3 9 5 -8 13 -22 14 -50 3z"/>
<path d="M395 660 c-3 -5 1 -10 9 -10 9 0 16 5 16 10 0 6 -4 10 -9 10 -6 0
-13 -4 -16 -10z"/>
<path d="M141 634 c0 -11 3 -14 6 -6 3 7 2 16 -1 19 -3 4 -6 -2 -5 -13z"/>
<path d="M160 610 c-12 -16 -16 -30 -10 -30 6 0 15 11 22 24 6 14 20 27 32 29
21 4 21 4 -1 6 -14 1 -29 -10 -43 -29z"/>
<path d="M251 626 c2 -2 15 -9 29 -15 24 -11 24 -11 6 3 -16 13 -49 24 -35 12z"/>
<path d="M490 601 c0 -5 9 -7 20 -4 11 3 20 7 20 9 0 2 -9 4 -20 4 -11 0 -20
-4 -20 -9z"/>
<path d="M410 590 c0 -5 7 -10 15 -10 8 0 15 5 15 10 0 6 -7 10 -15 10 -8 0
-15 -4 -15 -10z"/>
<path d="M190 582 c0 -5 9 -17 20 -27 19 -17 19 -17 7 9 -12 25 -27 35 -27 18z"/>
<path d="M630 580 c0 -5 5 -10 10 -10 6 0 10 5 10 10 0 6 -4 10 -10 10 -5 0
-10 -4 -10 -10z"/>
<path d="M161 563 c0 -6 -4 -20 -7 -30 -5 -14 -4 -15 5 -7 7 7 11 20 8 30 -3
11 -5 14 -6 7z"/>
<path d="M421 544 c0 -11 3 -14 6 -6 3 7 2 16 -1 19 -3 4 -6 -2 -5 -13z"/>
<path d="M910 645 c0 -8 6 -16 13 -16 6 -1 22 -3 35 -4 12 -1 25 2 28 6 5 9
-25 14 -55 10 -7 -2 -10 2 -6 8 3 6 1 11 -4 11 -6 0 -11 -7 -11 -15z"/>
<path d="M1075 539 c-9 -13 2 -59 14 -59 4 0 6 11 3 25 -3 19 0 25 13 25 11 0
15 -5 11 -15 -3 -8 -1 -15 4 -15 6 0 10 11 10 25 0 20 -5 25 -24 25 -14 0 -28
-5 -31 -11z"/>
<path d="M2015 540 c-3 -5 -1 -10 4 -10 6 0 11 5 11 10 0 6 -2 10 -4 10 -3 0
-8 -4 -11 -10z"/>
<path d="M2150 500 c0 -5 5 -10 10 -10 6 0 10 5 10 10 0 6 -4 10 -10 10 -5 0
-10 -4 -10 -10z"/>
<path d="M486 163 c2 -60 0 -73 -14 -76 -9 -3 13 -5 50 -6 105 -2 145 27 132
95 -8 43 -22 51 -104 56 l-66 4 2 -73z m128 25 c15 -57 -9 -98 -56 -98 -15 0
-18 9 -18 60 l0 60 34 0 c26 0 35 -5 40 -22z"/>
<path d="M1195 231 c-50 -5 -60 -9 -63 -26 -3 -19 -2 -19 12 -2 8 10 23 17 33
15 15 -3 18 -13 18 -70 l0 -66 31 -4 30 -4 0 71 c-1 66 0 70 22 73 17 3 25 -2
29 -17 6 -23 23 -29 23 -8 -1 36 -39 47 -135 38z"/>
<path d="M1530 211 c0 -27 -4 -31 -30 -32 -16 -1 -36 -2 -42 -3 -8 -1 -13 10
-13 27 1 22 -3 27 -25 27 -25 0 -25 -1 -22 -66 3 -48 0 -69 -10 -75 -8 -6 4
-8 32 -8 25 0 39 3 33 6 -7 2 -13 20 -13 39 0 34 1 34 44 34 52 0 59 -6 46
-49 -8 -29 -7 -31 18 -31 27 0 27 0 27 78 0 72 -1 77 -22 80 -20 3 -23 -1 -23
-27z"/>
<path d="M708 223 c15 -6 17 -124 1 -140 -8 -8 8 -10 55 -9 62 2 99 17 83 33
-4 4 -13 1 -19 -5 -16 -16 -75 -15 -81 1 -6 20 4 47 19 47 8 0 14 -5 14 -11 0
-5 5 -7 10 -4 12 7 14 45 2 45 -4 0 -13 -5 -20 -12 -17 -17 -33 2 -26 30 7 24
41 30 75 12 15 -8 19 -7 19 5 0 12 -14 15 -72 14 -40 0 -67 -3 -60 -6z"/>
<path d="M960 219 c0 -5 -13 -37 -30 -71 -16 -33 -30 -62 -30 -64 0 -2 12 -4
28 -4 18 0 23 3 14 9 -10 6 -11 13 -1 34 14 32 32 39 63 27 15 -5 27 -20 31
-39 5 -24 12 -31 30 -31 22 0 23 2 13 33 -5 17 -15 51 -21 75 -10 41 -11 42
-54 42 -24 0 -43 -5 -43 -11z m48 -27 c3 -17 -2 -22 -17 -22 -22 0 -25 8 -15
35 9 22 28 14 32 -13z"/>
<path d="M1687 114 c-14 -14 -7 -25 13 -22 12 2 21 8 21 13 0 12 -24 18 -34 9z"/>
</g>
</svg>
