<?xml version="1.0" standalone="no"?>
<!DOCTYPE svg PUBLIC "-//W3C//DTD SVG 20010904//EN"
 "http://www.w3.org/TR/2001/REC-SVG-20010904/DTD/svg10.dtd">
<svg version="1.0" xmlns="http://www.w3.org/2000/svg"
 width="222.000000pt" height="378.000000pt" viewBox="0 0 222.000000 378.000000"
 preserveAspectRatio="xMidYMid meet">
<metadata>
Created by potrace 1.16, written by Peter Selinger 2001-2019
</metadata>
<g transform="translate(0.000000,378.000000) scale(0.100000,-0.100000)"
fill="#000000" stroke="none">
<path d="M345 3760 l-340 -5 3 -930 c2 -511 5 -993 8 -1070 2 -77 6 -500 9
-939 3 -440 8 -803 12 -809 3 -5 62 -7 142 -3 132 5 433 10 1371 21 448 5 647
12 664 22 4 3 6 47 2 97 -3 50 -8 399 -11 776 -3 377 -8 899 -12 1160 -3 261
-7 696 -7 965 -1 270 -3 543 -4 608 l-2 119 -747 -4 c-412 -2 -901 -5 -1088
-8z m1818 -32 c4 -12 7 -143 7 -290 0 -232 -2 -268 -15 -268 -8 0 -43 27 -78
61 -57 56 -137 110 -137 92 1 -5 24 -24 53 -43 32 -22 68 -59 93 -97 45 -67
82 -157 61 -150 -7 2 -17 17 -22 35 -10 30 -65 91 -65 72 0 -21 -16 -8 -38 30
-12 22 -27 40 -33 40 -5 0 -2 -12 8 -26 12 -19 14 -30 7 -42 -8 -12 -3 -22 23
-46 42 -36 88 -125 97 -188 4 -25 16 -56 26 -69 22 -25 27 -80 8 -77 -17 4
-26 26 -27 61 -1 15 -11 44 -24 65 -13 20 -29 56 -35 79 -14 46 -30 63 -42 43
-5 -9 -9 -8 -13 3 -3 9 1 18 9 21 8 3 14 12 14 20 0 15 -46 49 -67 49 -9 0 -8
7 3 28 15 29 9 62 -10 56 -11 -4 -56 65 -56 85 0 6 15 -1 34 -16 24 -18 36
-22 40 -13 3 7 18 -3 40 -28 46 -53 55 -42 9 13 -24 29 -41 41 -52 37 -9 -3
-26 4 -38 14 -11 11 -23 18 -26 15 -2 -3 -12 7 -21 22 -18 26 -17 26 6 19 19
-5 17 -1 -12 24 -19 17 -38 31 -42 31 -5 0 -8 6 -8 14 0 19 -59 55 -101 61
-34 5 -34 5 6 -10 22 -9 50 -28 62 -43 37 -45 26 -46 -25 -3 -39 34 -56 41
-90 41 -42 0 -66 15 -35 23 10 2 -4 2 -32 0 -77 -7 -98 -27 -112 -109 -7 -38
-15 -81 -18 -95 -4 -16 -2 -29 4 -33 7 -5 11 4 11 24 0 17 6 33 14 36 10 4 14
16 11 35 -2 16 0 29 4 29 4 0 7 19 7 42 -1 41 1 43 35 52 29 7 40 5 57 -10 28
-23 28 -50 1 -65 -17 -9 -19 -13 -8 -20 12 -7 11 -9 -1 -10 -10 0 -8 -3 5 -9
19 -8 19 -8 -4 -17 -15 -6 -20 -12 -13 -17 6 -4 9 -12 6 -19 -5 -13 50 -41 76
-38 11 1 10 -3 -4 -14 -11 -8 -35 -15 -53 -15 -46 0 -46 -33 0 -51 l32 -13
-33 -4 c-18 -2 -30 -7 -27 -12 3 -5 1 -11 -5 -15 -5 -3 -10 3 -10 14 0 12 -5
21 -11 21 -5 0 -8 -4 -5 -9 3 -5 -2 -12 -11 -15 -14 -6 -14 -8 3 -21 18 -14
18 -14 -4 -15 -19 0 -22 -4 -17 -20 5 -16 3 -19 -11 -13 -14 5 -16 3 -11 -11
6 -15 3 -17 -13 -13 -11 3 -20 1 -20 -3 0 -5 -8 -10 -17 -12 -13 -3 -7 -9 21
-23 22 -10 34 -21 27 -23 -6 -2 -17 0 -24 6 -7 5 -25 12 -42 16 -28 6 -29 5
-11 -9 19 -14 19 -15 -7 -15 -20 0 -25 -4 -20 -16 5 -13 2 -15 -18 -9 -21 7
-22 6 -10 -9 25 -30 1 -16 -39 22 -30 30 -36 42 -28 50 16 16 35 15 41 0 3 -9
7 -7 12 5 4 10 27 39 50 64 39 41 55 77 55 120 0 30 -18 1 -23 -38 -4 -31 -16
-52 -48 -85 -24 -24 -50 -44 -59 -44 -9 0 -42 14 -74 31 -31 17 -59 29 -62 26
-6 -6 80 -57 97 -57 9 0 8 -4 -1 -15 -14 -17 -53 -20 -79 -6 -10 6 -33 6 -56
1 -23 -5 -46 -5 -56 0 -21 12 -33 41 -19 50 6 4 8 14 4 23 -4 12 -1 17 11 17
12 0 16 -6 12 -20 -7 -27 -2 -25 44 11 33 26 39 36 39 70 0 21 5 39 10 39 6 0
10 7 10 15 0 21 -40 95 -52 95 -5 0 -8 6 -5 13 2 6 -23 29 -57 49 -51 32 -69
38 -111 37 l-50 -2 55 -7 c61 -7 90 -18 90 -31 0 -6 -9 -5 -21 1 -11 7 -42 13
-68 14 -26 1 -52 5 -58 9 -6 4 -30 -2 -53 -12 -39 -17 -55 -35 -79 -87 -5 -11
-23 -33 -39 -49 l-30 -28 49 -61 c27 -33 61 -67 75 -74 24 -13 24 -12 18 15
-5 22 -4 25 5 17 7 -6 14 -22 16 -35 1 -13 6 -32 10 -41 4 -10 -1 -24 -15 -38
-17 -17 -28 -19 -56 -14 -22 4 -45 2 -60 -6 -41 -22 -38 -3 6 36 23 21 37 40
31 42 -6 2 -9 8 -5 13 10 16 -7 10 -52 -21 -24 -17 -44 -36 -44 -41 0 -11 55
24 65 41 4 6 11 10 17 10 16 0 -41 -58 -64 -66 -10 -3 -27 1 -39 9 -20 14 -18
16 41 52 34 20 59 40 56 42 -3 3 -33 -11 -66 -31 -34 -20 -63 -36 -64 -36 -2
0 -24 27 -50 60 -66 84 -79 119 -80 223 -1 81 -3 91 -25 108 -35 28 -47 23
-13 -6 28 -24 29 -26 24 -99 -4 -64 -1 -81 20 -127 37 -78 102 -161 153 -194
25 -15 45 -31 45 -35 0 -9 -31 -24 -44 -21 -4 1 -14 -4 -22 -10 -17 -14 -19 2
-2 19 9 9 9 12 1 12 -7 0 -15 -4 -18 -10 -3 -5 -11 -10 -17 -10 -6 0 -1 11 12
25 13 14 19 25 13 25 -6 0 -16 -7 -23 -15 -7 -8 -19 -15 -27 -15 -11 0 -8 6 8
20 13 10 19 19 12 20 -6 0 -15 -4 -18 -10 -3 -5 -16 -10 -27 -10 -20 0 -21 1
-3 20 21 23 11 27 -11 5 -9 -8 -23 -15 -32 -15 -12 1 -10 5 8 15 l25 14 -35 2
c-32 1 -33 2 -10 9 19 6 20 8 6 9 -15 1 -16 4 -6 16 11 13 8 14 -21 9 -31 -5
-32 -4 -16 9 16 13 15 15 -10 20 -27 6 -65 47 -43 47 5 0 10 -4 10 -10 0 -5 8
-14 19 -19 17 -9 18 -6 17 29 0 32 -4 40 -19 40 -10 0 -16 -4 -12 -9 3 -5 1
-12 -4 -15 -21 -14 -23 18 -2 35 13 10 24 24 25 31 2 7 8 24 13 38 6 14 8 27
4 30 -9 8 -7 34 4 42 6 5 4 8 -4 8 -11 0 -12 3 -4 11 14 14 6 39 -13 39 -8 0
-23 -9 -34 -20 -23 -23 -60 -27 -60 -5 0 7 8 19 18 25 14 9 13 10 -8 4 -38
-10 -120 -55 -120 -65 0 -5 -7 -9 -17 -9 -15 0 -14 2 2 20 10 11 26 22 36 25
10 4 18 11 16 17 -1 6 4 13 12 16 9 3 11 0 6 -8 -6 -9 -3 -10 11 -2 20 10 79
36 104 46 28 11 -58 -4 -109 -20 -28 -8 -51 -20 -51 -27 0 -7 -39 -41 -87 -77
-47 -35 -81 -66 -74 -68 19 -6 12 -26 -18 -52 -17 -14 -33 -36 -36 -50 -5 -22
-2 -26 17 -27 16 -2 19 0 9 6 -10 6 -10 13 -3 28 16 30 39 46 47 33 3 -5 0
-10 -7 -10 -10 0 -10 -2 1 -9 9 -6 10 -11 2 -15 -6 -4 -15 -5 -20 -2 -5 4 -8
-2 -6 -11 1 -10 -3 -24 -9 -32 -9 -12 -7 -13 9 -8 15 5 13 1 -7 -16 -16 -12
-28 -28 -28 -35 0 -6 -9 -16 -20 -22 -25 -13 -25 -9 0 40 25 49 7 53 -21 5
-12 -19 -22 -35 -24 -35 -1 0 -3 157 -4 349 l-1 350 27 3 c16 2 496 5 1069 6
l1041 4 6 -24z m-409 -313 c11 -8 15 -15 10 -15 -6 0 -19 7 -30 15 -10 8 -14
14 -9 14 6 0 19 -6 29 -14z m-17 -46 c1 -13 0 -18 -3 -11 -3 6 -10 12 -15 12
-6 0 -7 -4 -4 -10 3 -5 1 -10 -4 -10 -6 0 -11 5 -11 10 0 6 -7 10 -15 10 -18
0 -19 12 -4 27 18 18 54 -1 56 -28z m-708 11 c45 -23 31 -80 -20 -80 -22 0
-32 6 -41 26 -11 23 -10 29 11 45 27 22 27 22 50 9z m-73 -49 c1 -45 -1 -48
-17 -38 -13 8 -21 8 -32 -2 -10 -8 -17 -9 -22 -1 -3 5 5 14 19 20 18 6 26 17
26 33 0 23 7 37 19 37 3 0 6 -22 7 -49z m-36 28 c0 -6 -7 -9 -15 -5 -18 6 -20
-10 -3 -20 7 -5 4 -10 -10 -15 -28 -10 -29 -39 -2 -46 16 -4 18 -8 9 -19 -15
-18 -29 -18 -29 1 0 8 -8 15 -17 14 -10 0 -13 -3 -6 -5 7 -3 9 -12 6 -20 -3
-8 0 -20 6 -28 6 -7 9 -21 5 -29 -3 -9 1 -24 10 -32 20 -21 21 -45 1 -45 -8 0
-15 9 -15 19 0 10 -7 22 -16 25 -9 3 -14 13 -11 20 4 9 -7 20 -29 31 -36 17
-37 35 -3 35 11 0 18 4 14 10 -3 5 3 18 15 30 11 11 20 25 20 30 0 6 5 10 10
10 6 0 10 8 10 18 0 10 3 22 7 25 11 11 43 8 43 -4z m164 -11 c-5 -7 -1 -9 9
-5 24 9 21 -6 -3 -21 -18 -11 -20 -10 -20 19 0 18 4 28 10 24 6 -4 7 -11 4
-17z m727 -10 c8 -16 8 -23 -2 -29 -19 -12 -33 -11 -46 2 -14 14 -5 42 10 32
6 -4 8 0 4 10 -9 23 21 10 34 -15z m46 26 c-4 -4 3 -20 15 -36 28 -40 41 -98
22 -98 -8 0 -24 16 -35 35 -12 19 -25 32 -30 29 -5 -3 -6 3 -2 12 6 16 7 15
20 -2 7 -10 13 -21 13 -26 0 -4 5 -8 10 -8 6 0 1 18 -10 40 -19 37 -20 60 -3
60 4 0 3 -3 0 -6z m-1447 -19 l25 -14 -27 -1 c-15 0 -34 -7 -43 -16 -24 -24
-30 -9 -8 20 21 30 21 30 53 11z m-94 -30 c-9 -14 -12 -25 -6 -25 6 0 8 -4 5
-10 -7 -12 -35 -14 -35 -2 0 14 41 74 47 68 3 -3 -2 -17 -11 -31z m849 14 c-4
-5 1 -12 9 -15 9 -3 16 -10 16 -15 0 -5 9 -18 20 -29 11 -11 20 -28 20 -37 0
-13 -4 -11 -13 7 -7 14 -22 26 -34 28 -14 2 -20 8 -16 18 3 8 -1 14 -9 14 -7
0 -19 9 -25 19 -10 16 -10 20 5 24 22 5 34 -2 27 -14z m-713 -43 c1 -20 5 -39
9 -42 11 -6 -23 -64 -37 -64 -6 0 -19 -10 -28 -22 -9 -13 -6 0 8 27 32 67 40
95 27 95 -6 0 -15 -19 -21 -42 -6 -24 -31 -72 -54 -108 -24 -36 -51 -78 -61
-95 -10 -16 -20 -24 -23 -17 -2 6 6 25 17 41 12 16 21 35 21 42 0 13 56 105
77 127 7 7 13 22 13 31 0 19 39 75 46 68 3 -2 5 -21 6 -41z m-187 24 c-3 -5
-13 -10 -20 -10 -8 0 -19 -9 -25 -20 -12 -23 -32 -28 -24 -6 3 8 20 21 37 30
38 19 40 19 32 6z m855 -5 c0 -8 5 -15 10 -15 6 0 10 -9 10 -20 0 -10 7 -23
16 -28 9 -5 14 -14 10 -21 -10 -15 -37 -14 -35 2 3 17 -12 50 -29 63 -8 6 -12
16 -8 22 10 17 26 15 26 -3z m-40 -24 c0 -6 -11 -18 -25 -27 -17 -11 -25 -25
-25 -46 0 -23 3 -28 13 -21 6 6 25 13 40 17 28 7 28 6 21 -31 -7 -42 -38 -108
-55 -118 -5 -4 -26 -4 -45 -1 -26 5 -41 17 -60 48 -40 62 -45 135 -7 97 8 -8
16 -8 30 0 16 9 15 10 -9 11 -16 0 -28 5 -28 10 0 6 -4 9 -9 8 -5 -2 -8 2 -7
7 0 6 7 9 15 8 9 -1 10 2 2 10 -18 18 -13 25 13 20 13 -3 26 -1 29 4 8 12 107
16 107 4z m718 -48 c12 -32 24 -69 28 -82 3 -13 23 -42 43 -65 54 -61 81 -103
81 -124 0 -11 16 -32 35 -46 31 -24 33 -29 21 -42 -8 -8 -18 -14 -23 -14 -17
0 -83 51 -93 73 l-11 22 18 -22 c16 -20 61 -43 83 -43 5 0 -5 13 -21 29 -16
16 -29 36 -29 44 0 8 -24 42 -54 75 -41 45 -59 77 -71 119 -10 32 -23 73 -31
91 -16 38 -17 42 -5 42 5 0 18 -26 29 -57z m41 3 c17 -29 47 -68 68 -85 41
-35 34 -41 -14 -12 -17 11 -34 29 -38 41 -4 12 -9 19 -11 17 -10 -9 19 -54 44
-70 16 -9 21 -16 12 -16 -8 0 -28 11 -44 25 -23 20 -27 31 -22 55 4 21 2 29
-8 29 -13 0 -26 29 -26 58 0 22 8 13 39 -42z m-1589 19 c-7 -8 -15 -13 -19
-10 -4 2 -22 -5 -39 -15 -24 -15 -30 -16 -25 -4 6 15 56 42 82 43 11 1 11 -2
1 -14z m105 -34 c-3 -14 -17 -42 -30 -61 -13 -19 -27 -47 -30 -62 -4 -15 -13
-33 -21 -39 -18 -15 -11 3 35 101 17 36 31 73 31 83 0 11 5 15 11 11 6 -3 8
-17 4 -33z m747 32 c-6 -2 -9 -9 -6 -15 7 -11 -13 -28 -33 -28 -21 0 -14 26
10 38 12 6 27 11 32 11 6 -1 4 -3 -3 -6z m-218 -34 c-6 -11 -24 -2 -24 11 0 5
7 7 15 4 8 -4 12 -10 9 -15z m313 -4 c-4 -8 -11 -15 -17 -15 -6 0 -6 7 2 20
14 22 24 19 15 -5z m-887 -14 c-4 -16 -13 -38 -19 -48 -9 -15 -10 -15 -11 -2
0 24 21 79 30 79 5 0 5 -13 0 -29z m-107 3 c8 -9 -21 -64 -34 -64 -6 0 0 14
12 32 19 26 20 31 5 25 -10 -4 -15 -3 -11 3 7 11 19 13 28 4z m1516 -8 c-2 -2
-15 -7 -29 -10 l-25 -7 25 15 c21 12 42 14 29 2z m-1463 -51 c-4 -15 -11 -23
-17 -19 -8 4 -9 -1 -4 -16 6 -19 4 -22 -9 -17 -14 6 -16 3 -11 -16 6 -18 5
-20 -6 -10 -10 11 -10 19 4 48 9 19 21 35 27 35 5 0 10 8 10 17 0 9 3 14 6 10
4 -3 3 -18 0 -32z m933 20 c8 0 16 -7 19 -15 3 -8 1 -12 -3 -8 -10 10 -37 -11
-29 -23 3 -5 1 -9 -4 -9 -5 0 -12 14 -14 30 -5 31 1 47 11 33 3 -5 12 -8 20
-8z m521 0 c-7 -9 -15 -13 -17 -11 -7 7 7 26 19 26 6 0 6 -6 -2 -15z m78 -13
c3 -9 -3 -13 -19 -10 -12 1 -24 9 -27 16 -3 9 3 13 19 10 12 -1 24 -9 27 -16z
m-82 -17 c-23 -17 -46 -20 -46 -4 0 5 3 8 8 6 4 -3 16 -1 27 4 30 11 32 10 11
-6z m-1293 -10 c-3 -9 -8 -14 -10 -11 -3 3 -2 9 2 15 9 16 15 13 8 -4z m1368
5 c10 0 19 -5 19 -11 0 -13 -50 -3 -65 13 -7 8 -4 9 8 4 10 -3 27 -6 38 -6z
m387 -20 c3 -21 2 -22 -12 -11 -19 16 -21 44 -3 39 6 -3 14 -15 15 -28z
m-1025 13 c-7 -2 -19 -2 -25 0 -7 3 -2 5 12 5 14 0 19 -2 13 -5z m-958 -13
c-3 -5 -12 -10 -18 -10 -7 0 -6 4 3 10 19 12 23 12 15 0z m1594 -10 c53 -14
55 -35 4 -25 -21 4 -46 11 -55 16 -21 12 -24 34 -4 26 8 -3 33 -11 55 -17z
m313 -9 c11 -10 14 -17 7 -22 -7 -4 -3 -20 13 -45 27 -43 60 -161 48 -169 -5
-3 -14 20 -20 50 -15 74 -44 138 -81 180 -27 31 -28 33 -7 28 12 -4 30 -13 40
-22z m-1712 -40 c-4 -21 -14 -49 -23 -62 -10 -13 -17 -38 -17 -56 0 -20 -6
-36 -17 -42 -9 -5 -28 -33 -42 -62 -15 -29 -37 -60 -51 -68 l-25 -16 28 37
c15 20 27 39 27 41 0 3 15 30 34 61 23 38 39 82 47 129 7 40 12 75 11 78 -1 4
7 5 17 2 15 -4 17 -11 11 -42z m1275 39 c-3 -5 -15 -10 -26 -10 -10 0 -19 5
-19 10 0 6 12 10 26 10 14 0 23 -4 19 -10z m-35 -31 c0 -5 -7 -9 -15 -9 -8 0
-15 7 -15 15 0 9 6 12 15 9 8 -4 15 -10 15 -15z m91 11 c5 0 9 -4 9 -9 0 -5
-16 -9 -35 -9 -19 0 -35 4 -35 8 0 11 22 19 38 14 8 -2 18 -4 23 -4z m309 -16
c0 -20 -7 -17 -20 6 -9 16 -8 18 5 14 8 -4 15 -12 15 -20z m-239 6 c5 0 9 -4
9 -10 0 -5 -10 -9 -22 -7 -14 1 -22 -3 -20 -10 2 -14 -20 -18 -31 -6 -11 10
25 44 41 38 7 -3 18 -5 23 -5z m219 -35 c14 -32 25 -45 37 -43 13 2 20 -9 31
-47 8 -27 23 -59 33 -71 10 -11 19 -30 19 -43 0 -22 -1 -21 -25 7 -14 17 -28
45 -31 64 -10 47 -22 68 -38 62 -16 -6 -28 12 -49 74 -20 57 -1 53 23 -3z
m-1890 25 c0 -13 -37 -50 -49 -50 -6 0 2 13 17 29 32 34 32 34 32 21z m94 -6
c10 -25 -1 -29 -14 -5 -6 12 -7 21 -1 21 5 0 12 -7 15 -16z m1386 -4 c12 -8
11 -10 -7 -10 -13 0 -23 5 -23 10 0 13 11 13 30 0z m-1400 -33 c0 -5 -4 -5
-10 -2 -5 3 -10 14 -10 23 0 15 2 15 10 2 5 -8 10 -19 10 -23z m817 -20 c2 7
0 20 -6 31 -9 17 -6 19 20 20 25 1 29 -2 24 -16 -17 -42 -17 -46 4 -24 26 26
46 21 31 -8 -16 -29 -12 -35 11 -14 16 14 22 15 28 5 6 -9 11 -10 15 -2 4 6
12 11 18 11 7 0 7 -4 1 -12 -5 -7 -6 -26 -2 -43 l7 -30 2 33 c2 17 4 40 4 50
1 19 55 36 71 21 5 -5 22 -9 37 -9 20 0 44 -14 78 -46 44 -41 48 -48 34 -58
-13 -10 -10 -12 18 -8 28 3 38 -1 51 -22 10 -14 23 -26 30 -26 15 0 87 -58 87
-71 0 -5 -16 -9 -35 -9 -19 0 -35 -3 -35 -7 0 -5 21 -7 48 -5 40 3 51 0 72
-23 l25 -27 -42 17 c-23 9 -52 15 -65 12 -20 -4 -20 -4 5 -6 39 -2 104 -37
118 -63 7 -12 14 -43 16 -67 l4 -45 -29 27 c-34 32 -58 37 -42 8 5 -11 10 -26
10 -33 0 -7 -6 -4 -12 7 -19 36 -51 65 -70 65 -10 0 -17 -4 -16 -9 2 -5 -9
-20 -24 -34 l-28 -26 0 34 c0 18 7 41 16 49 8 9 11 16 5 16 -5 0 -13 -5 -16
-10 -4 -6 -11 -8 -16 -5 -14 9 -11 43 7 71 14 21 14 23 2 19 -9 -4 -24 -22
-34 -41 -10 -19 -24 -32 -31 -30 -7 3 -4 -9 7 -27 29 -48 36 -111 15 -143 -13
-20 -19 -23 -25 -14 -10 17 -40 5 -40 -15 0 -8 -5 -15 -11 -15 -5 0 -7 5 -4
10 10 16 -4 12 -43 -15 -20 -14 -43 -25 -52 -25 -8 1 -1 7 16 14 37 16 101 71
116 100 32 60 22 125 -20 127 -14 0 -13 2 3 9 l20 9 -20 0 c-30 1 -97 -33
-121 -60 -29 -34 -56 -79 -47 -79 5 0 17 16 27 35 11 19 21 33 24 31 2 -3 -3
-15 -12 -28 -18 -26 -20 -38 -6 -38 6 0 10 6 10 13 0 22 73 85 106 91 24 6 33
3 38 -10 4 -9 4 -19 1 -22 -3 -3 -5 0 -5 6 0 7 -4 12 -10 12 -5 0 -10 -10 -10
-22 0 -22 -36 -68 -53 -68 -6 0 -2 10 9 23 10 13 2 6 -18 -14 -34 -34 -41 -37
-77 -32 -46 6 -91 -16 -90 -45 0 -13 2 -12 9 5 12 29 54 39 96 24 19 -7 39 -9
45 -5 8 5 9 3 4 -6 -6 -10 -3 -12 11 -7 13 5 11 0 -9 -18 -27 -24 -85 -36 -72
-15 3 6 17 10 30 10 13 0 27 5 30 10 4 7 -3 8 -22 4 -37 -9 -63 -23 -64 -34
-1 -6 -3 -14 -4 -20 -1 -5 -3 -16 -4 -22 -1 -7 -15 -21 -31 -30 -17 -10 -30
-25 -30 -36 0 -11 -16 -32 -35 -46 -19 -15 -35 -34 -35 -42 0 -7 -5 -14 -12
-14 -6 0 -8 -3 -5 -6 7 -8 107 93 107 107 0 5 17 26 38 47 34 34 42 37 68 30
16 -5 44 -7 62 -4 24 4 32 1 32 -10 0 -8 -5 -12 -10 -9 -11 7 -6 -990 6 -1282
6 -147 5 -163 -10 -169 -32 -12 -54 23 -59 94 -15 221 -26 506 -31 777 -8 409
-16 576 -29 568 -6 -4 -7 -68 -3 -177 3 -94 8 -272 11 -396 12 -516 16 -628
25 -685 5 -33 11 -86 14 -118 4 -54 3 -59 -19 -69 -53 -24 -57 -8 -70 277 -3
66 -10 190 -15 275 -6 85 -12 241 -16 345 -3 105 -12 237 -19 295 -8 58 -12
117 -8 130 5 20 3 23 -7 13 -11 -10 -11 -35 -2 -135 7 -68 14 -199 18 -293 15
-455 37 -842 49 -882 9 -28 -19 -33 -29 -6 -9 21 -24 234 -30 413 -3 74 -11
288 -17 475 -7 187 -13 350 -13 363 -1 25 -16 31 -16 6 0 -11 -6 -14 -22 -9
-19 6 -21 5 -10 -6 12 -13 17 -61 6 -72 -12 -11 -62 15 -95 50 l-34 37 32 -26
c41 -33 72 -43 86 -29 8 8 7 16 -6 28 -16 16 -17 16 -17 0 0 -17 -11 -22 -23
-10 -4 3 0 15 10 25 9 10 11 18 5 18 -6 0 -14 -4 -17 -10 -3 -5 -13 -10 -22
-10 -24 0 2 27 35 35 32 8 62 33 62 51 0 7 12 19 28 26 17 8 28 22 30 38 2 15
14 32 32 42 22 13 29 25 32 55 3 36 5 38 43 43 30 4 35 7 22 12 -10 5 -33 1
-53 -7 -32 -13 -39 -26 -35 -67 1 -10 -11 -24 -28 -33 -22 -11 -31 -23 -31
-41 0 -17 -8 -27 -24 -34 -13 -5 -30 -21 -38 -35 -13 -27 -103 -76 -96 -53 2
6 17 16 34 21 39 13 54 26 54 47 0 9 11 22 25 28 23 11 30 23 26 46 -1 4 4 16
11 25 12 14 11 14 -4 3 -9 -8 -18 -23 -20 -35 -2 -12 -13 -26 -25 -32 -12 -5
-24 -19 -28 -32 -3 -14 -21 -30 -48 -42 l-42 -19 -22 26 c-27 32 -19 48 14 27
14 -9 27 -14 30 -12 9 10 -47 39 -62 33 -21 -8 -19 -33 6 -68 16 -22 19 -32
10 -37 -6 -4 -9 -15 -6 -23 4 -9 1 -19 -5 -23 -8 -5 -7 -11 2 -23 12 -15 11
-16 -5 -3 -15 12 -18 10 -28 -18 -12 -33 -16 -36 -37 -22 -16 10 -12 43 6 49
7 2 10 -2 6 -12 -3 -9 -2 -16 4 -16 17 0 23 44 7 56 -8 6 -15 20 -15 30 0 16
2 17 11 4 9 -12 10 -10 6 8 -5 19 -3 21 9 11 23 -19 27 -4 9 30 -8 17 -12 31
-8 31 5 0 2 4 -5 9 -10 6 -9 12 5 30 l18 22 54 -36 c34 -22 51 -30 47 -19 -3
8 -7 73 -7 142 -2 104 -3 117 -9 72 -5 -30 -8 -84 -9 -119 -1 -35 -4 -61 -8
-58 -4 4 -6 80 -6 170 l0 162 -9 -100 c-5 -55 -9 -126 -9 -159 0 -55 -1 -58
-22 -52 -12 3 -28 6 -34 6 -8 0 -14 15 -14 38 l-2 37 -7 -40 c-5 -29 -8 -33
-9 -14 0 15 -10 37 -22 50 -19 23 -20 23 -10 2 18 -35 13 -37 -15 -4 -17 21
-34 31 -52 30 l-27 -1 28 -12 c32 -14 58 -47 60 -76 1 -12 7 -18 14 -16 7 3
13 1 13 -4 0 -6 -7 -10 -15 -10 -8 0 -15 -7 -15 -15 0 -9 6 -12 18 -9 12 4 13
3 4 -3 -7 -5 -12 -18 -11 -29 5 -54 -2 -94 -16 -94 -16 0 -22 55 -6 64 11 7 3
76 -11 94 -22 26 -45 32 -78 21 -40 -14 -49 -5 -16 16 24 16 28 16 65 -4 31
-15 39 -17 34 -5 -13 34 -75 45 -109 19 -30 -22 -48 -19 -39 8 4 12 7 36 6 53
0 18 6 37 14 44 10 8 15 9 15 2 0 -6 -4 -14 -10 -17 -5 -3 -10 -12 -10 -18 0
-7 8 -2 18 9 9 12 31 29 47 37 25 13 26 16 10 17 -12 0 -26 -5 -33 -12 -6 -6
-15 -8 -19 -4 -5 4 3 16 16 27 13 10 19 19 13 19 -5 0 -21 -10 -36 -21 l-27
-22 5 34 c3 19 11 70 17 114 7 44 18 88 27 97 8 10 12 27 9 38 -10 40 21 116
63 154 41 37 67 44 101 26 30 -17 22 -3 -8 15 l-28 15 30 -2 c25 -3 34 -11 54
-51 22 -43 29 -49 85 -66 56 -18 58 -19 26 -20 -29 -1 -32 -3 -17 -12 9 -5 17
-21 17 -34 0 -14 5 -25 10 -25 6 0 10 14 10 32 0 36 15 28 24 -12 2 -14 3 -4
2 21 l-3 47 44 5 c25 2 50 10 56 17 10 10 8 11 -8 5 -40 -17 -142 -17 -177 -1
-34 17 -84 94 -52 82 8 -3 14 -1 14 4 0 5 6 7 14 4 9 -3 18 7 26 28 l12 33 15
-35 c9 -19 18 -30 20 -23z m687 44 c7 -11 -14 -20 -31 -13 -7 2 -10 8 -7 13 7
12 31 12 38 0z m146 -71 c0 -8 -9 2 -20 23 -26 48 -26 61 0 22 11 -16 20 -37
20 -45z m17 48 c26 -24 29 -38 11 -38 -7 0 -21 14 -30 30 -20 35 -13 38 19 8z
m-1687 -21 c0 -5 -4 -5 -10 -2 -5 3 -10 14 -10 23 0 15 2 15 10 2 5 -8 10 -19
10 -23z m151 -13 c-6 -22 -20 -52 -31 -69 -25 -38 -26 -26 -1 23 10 20 21 50
25 66 4 15 9 26 12 23 3 -3 1 -22 -5 -43z m1229 36 c0 -5 -2 -10 -4 -10 -3 0
-8 5 -11 10 -3 6 -1 10 4 10 6 0 11 -4 11 -10z m-1060 -20 c-24 -15 -37 -11
-16 5 11 8 22 12 25 9 3 -3 -1 -9 -9 -14z m1220 10 c-12 -8 -12 -10 3 -16 19
-7 13 -24 -9 -24 -12 0 -14 18 -5 48 1 1 7 2 14 2 8 0 7 -3 -3 -10z m45 0 c3
-5 -1 -10 -10 -10 -9 0 -13 5 -10 10 3 6 8 10 10 10 2 0 7 -4 10 -10z m41 -46
l4 -39 -15 45 c-18 54 -18 57 -5 44 6 -6 13 -28 16 -50z m-1516 -16 c-11 -24
-30 -54 -40 -68 l-19 -25 3 26 c1 15 17 44 34 65 18 21 32 45 33 54 0 10 2 11
6 3 2 -7 -5 -32 -17 -55z m1393 47 c2 -12 -38 -19 -61 -10 -14 5 -14 7 -2 16
18 11 60 8 63 -6z m-1606 -12 c-9 -9 -20 -13 -24 -9 -4 4 -1 11 7 16 25 16 35
11 17 -7z m183 14 c0 -2 -12 -14 -27 -28 l-26 -24 19 27 c16 23 34 36 34 25z
m305 -7 c-3 -5 -13 -10 -21 -10 -8 0 -14 5 -14 10 0 6 9 10 21 10 11 0 17 -4
14 -10z m-193 -22 c-7 -7 -12 -8 -12 -2 0 14 12 26 19 19 2 -3 -1 -11 -7 -17z
m1251 5 c32 -10 18 -22 -23 -20 -22 1 -40 6 -40 12 0 18 13 26 29 19 9 -3 24
-9 34 -11z m555 -19 c-3 -14 -5 -12 -10 9 -3 19 -2 25 4 19 6 -6 8 -18 6 -28z
m-1654 10 c3 -9 6 -17 6 -19 0 -3 -37 0 -60 5 -7 1 32 30 41 30 4 0 10 -7 13
-16z m61 6 c-3 -5 -16 -10 -28 -9 -21 0 -21 1 -2 9 28 12 37 12 30 0z m16 -21
c-24 -20 -41 -24 -41 -11 0 9 53 40 60 35 3 -3 -6 -13 -19 -24z m-458 4 c-7
-3 -9 -12 -6 -21 5 -13 3 -14 -7 -5 -16 14 -5 47 12 37 9 -6 9 -9 1 -11z
m1353 -1 c-10 -2 -22 0 -28 6 -6 6 0 7 19 4 21 -5 23 -7 9 -10z m65 -12 c11 0
17 -4 14 -10 -3 -5 -18 -10 -32 -10 -19 0 -24 4 -19 16 3 9 7 21 7 27 1 7 3 4
6 -5 2 -10 13 -18 24 -18z m140 20 c30 -16 23 -30 -16 -30 -38 0 -38 0 -29 24
7 19 18 20 45 6z m-1258 -7 c-7 -2 -19 -2 -25 0 -7 3 -2 5 12 5 14 0 19 -2 13
-5z m-392 -26 c-10 -9 -11 -8 -5 6 3 10 9 15 12 12 3 -3 0 -11 -7 -18z m364
-25 c-2 -2 -13 1 -24 7 -13 7 -18 17 -14 27 5 14 9 13 24 -7 10 -13 16 -25 14
-27z m1062 22 c-7 -7 -37 7 -37 17 0 6 9 5 21 -1 11 -7 19 -14 16 -16z m410
-57 c9 -9 14 -20 10 -23 -9 -10 -36 40 -42 77 l-5 34 11 -35 c6 -19 18 -43 26
-53z m18 41 l28 -43 -32 29 c-17 17 -31 36 -31 43 0 21 5 16 35 -29z m-1241
26 c14 -5 14 -9 4 -22 -12 -14 -10 -14 11 -3 17 10 22 10 16 1 -9 -15 -75 -43
-83 -36 -3 3 1 6 9 7 8 1 3 5 -11 9 -22 7 -22 8 -4 9 11 1 29 8 40 17 19 15
19 16 -1 9 -42 -15 -65 -17 -65 -5 0 6 8 9 18 6 9 -3 24 -1 32 4 18 12 15 11
34 4z m1101 -24 c22 -43 18 -61 -5 -22 -19 31 -25 52 -15 52 2 0 11 -13 20
-30z m-1645 5 c7 -9 8 -15 2 -15 -5 0 -12 7 -16 15 -3 8 -4 15 -2 15 2 0 9 -7
16 -15z m433 0 c1 -6 -11 -11 -28 -13 -29 -2 -29 -2 -10 13 20 16 35 16 38 0z
m1102 4 c17 -8 16 -9 -7 -6 -16 3 -33 -2 -39 -9 -13 -16 -49 -19 -49 -5 0 12
29 23 41 15 5 -3 9 0 9 5 0 13 18 13 45 0z m105 -68 c16 -59 11 -59 -20 -1
-34 65 -37 80 -10 55 11 -10 24 -34 30 -54z m92 24 c9 -20 9 -20 -6 -1 -9 11
-16 27 -15 35 0 14 1 14 6 1 3 -8 10 -24 15 -35z m210 15 c3 -16 1 -30 -3 -30
-4 0 -9 14 -11 30 -3 17 -1 30 3 30 4 0 9 -13 11 -30z m-1588 5 c3 -9 0 -15
-9 -15 -16 0 -27 14 -18 24 10 10 21 7 27 -9z m1066 6 c0 -18 -18 -21 -30 -6
-10 13 -9 15 9 15 11 0 21 -4 21 -9z m-1436 -17 c3 -8 2 -12 -4 -9 -6 3 -10
10 -10 16 0 14 7 11 14 -7z m299 6 c15 0 18 -3 10 -11 -14 -14 -55 -8 -61 10
-3 10 0 12 12 8 10 -4 27 -7 39 -7z m1232 0 c3 -5 -1 -10 -10 -10 -9 0 -13 5
-10 10 3 6 8 10 10 10 2 0 7 -4 10 -10z m-1060 -10 c3 -5 -1 -10 -9 -10 -9 0
-16 5 -16 10 0 6 4 10 9 10 6 0 13 -4 16 -10z m1262 -72 c9 -10 14 -21 10 -24
-7 -7 -57 78 -57 97 1 8 8 -2 16 -21 8 -19 22 -42 31 -52z m-1582 42 c-10 -11
-23 -20 -28 -20 -6 0 1 10 14 23 29 28 40 25 14 -3z m420 20 c-3 -5 -14 -10
-23 -10 -15 0 -15 2 -2 10 20 13 33 13 25 0z m922 -5 c-5 -14 -39 -13 -44 1
-2 7 6 11 22 10 14 0 23 -5 22 -11z m79 -50 c-6 -13 -14 -21 -18 -19 -10 6
-10 46 -1 69 5 15 8 15 18 -5 9 -16 9 -28 1 -45z m34 61 c0 -11 -19 -15 -25
-6 -3 5 1 10 9 10 9 0 16 -2 16 -4z m-1610 -34 c0 -15 -2 -15 -10 -2 -13 20
-13 33 0 25 6 -3 10 -14 10 -23z m435 18 c3 -5 -3 -10 -15 -10 -12 0 -18 5
-15 10 3 6 10 10 15 10 5 0 12 -4 15 -10z m1006 -7 c13 -15 12 -15 -8 -4 -24
12 -29 21 -14 21 5 0 15 -7 22 -17z m372 -63 c9 0 26 5 37 12 26 16 40 0 16
-18 -36 -26 -71 -17 -110 26 -20 22 -36 46 -36 53 0 6 17 -7 38 -31 20 -23 45
-42 55 -42z m-1739 55 c-7 -16 -24 -21 -24 -6 0 8 7 13 27 20 1 1 0 -6 -3 -14z
m209 3 c9 0 17 -3 17 -9 0 -10 -40 -12 -64 -3 -25 10 -19 26 7 18 12 -4 30 -7
40 -6z m92 -7 c-3 -6 -11 -11 -17 -11 -6 0 -6 6 2 15 14 17 26 13 15 -4z m147
2 c17 -15 17 -17 2 -35 -10 -10 -23 -18 -30 -18 -7 0 -25 -13 -41 -30 -30 -32
-47 -37 -59 -18 -9 15 53 68 81 68 11 0 27 5 35 10 11 7 2 8 -27 4 -49 -7 -58
6 -15 23 15 6 29 11 31 12 3 1 13 -6 23 -16z m1016 -27 c4 -35 -14 -26 -20 9
-4 16 -1 24 6 22 6 -2 12 -16 14 -31z m87 24 c3 -5 2 -10 -4 -10 -5 0 -13 5
-16 10 -3 6 -2 10 4 10 5 0 13 -4 16 -10z m240 0 c3 -5 2 -10 -4 -10 -5 0 -13
5 -16 10 -3 6 -2 10 4 10 5 0 13 -4 16 -10z m144 -28 c16 -15 32 -39 36 -52 4
-14 15 -34 24 -44 12 -14 13 -20 4 -23 -8 -3 -11 -14 -7 -27 4 -16 0 -25 -11
-30 -14 -5 -16 -2 -11 19 5 20 3 23 -10 18 -13 -5 -15 -2 -9 17 5 17 4 21 -5
15 -10 -6 -11 -1 -6 19 5 20 4 26 -5 20 -8 -5 -10 1 -7 20 4 22 3 24 -9 14
-12 -10 -13 -7 -7 17 5 20 4 26 -5 21 -6 -4 -11 -1 -11 8 0 22 8 20 39 -12z
m-1579 9 c0 -5 -7 -14 -15 -21 -12 -10 -15 -10 -15 2 0 8 3 18 7 21 9 10 23 9
23 -2z m1201 -64 c6 -21 8 -46 6 -55 -5 -22 -37 50 -44 98 -4 33 -4 34 12 15
8 -11 20 -37 26 -58z m-1330 49 c-7 -8 -26 -18 -42 -21 -16 -4 -40 -21 -54
-38 -22 -28 -25 -29 -25 -11 0 36 62 80 119 83 11 1 11 -2 2 -13z m256 -1 c-4
-8 -2 -17 3 -20 13 -8 13 -35 1 -35 -5 0 -11 10 -13 21 -3 20 -7 18 -45 -20
-34 -33 -43 -37 -43 -22 0 11 20 34 48 54 55 41 56 42 49 22z m1399 -62 c16
-36 19 -62 5 -47 -4 5 -20 36 -35 69 -23 52 -23 57 -5 35 11 -14 27 -39 35
-57z m2 41 c-4 -3 -12 5 -18 18 -12 22 -12 22 6 6 10 -10 15 -20 12 -24z
m-1984 10 c3 -8 2 -12 -4 -9 -6 3 -10 10 -10 16 0 14 7 11 14 -7z m1676 -5 c0
-5 -4 -9 -10 -9 -5 0 -10 7 -10 16 0 8 5 12 10 9 6 -3 10 -10 10 -16z m-1606
-3 c-10 -8 -21 -12 -24 -10 -5 6 21 24 34 24 6 0 1 -6 -10 -14z m1711 -34 c-6
-6 -55 30 -55 40 0 5 13 -1 29 -14 15 -13 27 -24 26 -26z m185 -49 c1 -28 -20
-11 -26 22 -3 19 -10 35 -15 35 -5 0 -9 10 -9 23 1 17 6 12 25 -23 13 -25 24
-51 25 -57z m-1682 30 c-49 -49 -70 -52 -50 -8 11 23 59 54 87 55 5 0 -11 -21
-37 -47z m62 34 c0 -2 -10 -12 -22 -23 l-23 -19 19 23 c18 21 26 27 26 19z
m29 -49 c-7 -23 -20 -48 -29 -55 -21 -16 -23 -10 -5 23 8 16 20 42 25 58 16
45 23 23 9 -26z m165 -12 c-18 -32 -29 -44 -34 -35 -11 17 -2 39 29 72 35 38
37 21 5 -37z m1056 54 c0 -5 9 -17 20 -27 24 -23 54 -133 40 -147 -7 -7 -10
-2 -10 13 0 12 -9 39 -19 59 -11 20 -25 51 -32 67 -8 17 -15 33 -17 38 -2 4 1
7 7 7 6 0 11 -4 11 -10z m-1419 -72 c-18 -62 -36 -83 -47 -54 -5 12 51 116 62
116 1 0 -5 -28 -15 -62z m1546 40 c-3 -8 -6 -5 -6 6 -1 11 2 17 5 13 3 -3 4
-12 1 -19z m131 15 c-10 -2 -26 -2 -35 0 -10 3 -2 5 17 5 19 0 27 -2 18 -5z
m-1806 -35 c-7 -7 -12 -8 -12 -2 0 14 12 26 19 19 2 -3 -1 -11 -7 -17z m281 7
c-3 -9 -8 -14 -10 -11 -3 3 -2 9 2 15 9 16 15 13 8 -4z m1360 -90 c-6 -44 -7
-46 -12 -21 -3 16 -4 52 -2 80 4 48 4 49 13 21 4 -16 5 -52 1 -80z m196 94
c-8 -5 -30 -9 -49 -9 -19 0 -41 4 -49 9 -9 6 9 9 49 9 40 0 58 -3 49 -9z
m-1323 -54 c-8 -47 -26 -62 -26 -20 0 26 20 78 28 71 2 -3 1 -26 -2 -51z
m-536 40 c0 -2 -9 -9 -20 -15 -12 -6 -20 -7 -20 -1 0 5 8 12 18 14 9 3 18 5
20 6 1 0 2 -1 2 -4z m410 -10 c-15 -18 1 -20 18 -3 26 26 11 -13 -17 -44 -26
-29 -30 -31 -37 -15 -3 10 -2 23 5 30 6 6 11 19 11 29 0 10 7 18 16 18 14 0
14 -3 4 -15z m1398 -2 c61 -8 53 -27 -9 -21 -30 3 -57 12 -67 23 -16 17 -16
17 8 11 14 -4 44 -10 68 -13z m-1768 -8 c0 -8 -4 -15 -10 -15 -5 0 -7 7 -4 15
4 8 8 15 10 15 2 0 4 -7 4 -15z m-36 -10 c-4 -8 -14 -15 -23 -15 -14 1 -13 3
3 15 25 19 27 19 20 0z m53 -7 c-3 -8 -6 -5 -6 6 -1 11 2 17 5 13 3 -3 4 -12
1 -19z m137 10 c11 -11 11 -17 -4 -38 -9 -14 -21 -38 -25 -55 l-8 -30 -8 29
c-5 19 -4 36 4 50 7 12 13 26 13 31 1 6 2 13 3 18 2 10 10 9 25 -5z m1526 -13
c14 -19 14 -19 -2 -6 -10 7 -18 18 -18 24 0 6 1 8 3 6 1 -2 9 -13 17 -24z
m162 3 c-7 -7 -12 -8 -12 -2 0 14 12 26 19 19 2 -3 -1 -11 -7 -17z m38 -28 c0
-59 -29 -94 -38 -45 -3 10 0 15 7 11 11 -7 28 41 17 51 -3 4 -6 -1 -6 -10 0
-9 -5 -17 -11 -17 -6 0 -8 6 -5 13 3 6 9 20 12 30 9 24 24 3 24 -33z m115 -60
c5 -30 3 -28 -19 18 -14 30 -26 64 -25 75 1 28 34 -42 44 -93z m-82 87 c3 -8
1 -20 -4 -28 -6 -10 -9 -7 -9 14 0 29 5 35 13 14z m-1993 -7 c0 -5 -5 -10 -11
-10 -5 0 -7 5 -4 10 3 6 8 10 11 10 2 0 4 -4 4 -10z m496 -38 c-5 -40 -3 -54
14 -75 11 -14 20 -33 20 -42 0 -9 5 -25 11 -37 6 -11 8 -22 5 -26 -10 -10 -20
7 -27 51 -6 41 -7 40 -8 -17 0 -33 -4 -56 -7 -53 -4 3 -6 29 -5 57 0 29 -4 50
-10 50 -6 0 -9 6 -6 13 2 6 0 20 -5 30 -8 16 8 97 20 97 2 0 2 -22 -2 -48z
m-99 8 c0 -16 -4 -30 -9 -30 -9 0 -11 22 -2 44 9 23 11 20 11 -14z m69 2 c-18
-16 -18 -16 -6 6 6 13 14 21 18 18 3 -4 -2 -14 -12 -24z m779 3 c-20 -15 -39
-24 -42 -22 -5 5 58 47 71 47 5 0 -8 -11 -29 -25z m654 9 c10 -9 -85 -3 -99 6
-10 6 3 7 40 3 30 -3 57 -7 59 -9z m-1884 -13 c-3 -6 -11 -8 -17 -5 -6 4 -5 9
3 15 16 10 23 4 14 -10z m349 -5 c-3 -9 -10 -16 -15 -16 -6 0 -5 9 1 21 13 24
24 20 14 -5z m196 -52 c0 -15 -40 -10 -50 6 -4 7 -5 20 -2 29 5 12 8 8 14 -14
6 -23 6 -19 3 15 l-3 45 18 -35 c11 -19 19 -40 20 -46z m-440 44 c0 -16 -3
-19 -11 -11 -6 6 -8 16 -5 22 11 17 16 13 16 -11z m1696 -23 c14 -25 25 -48
22 -50 -2 -2 -16 18 -31 46 -35 62 -27 65 9 4z m-1784 0 c-7 -25 -9 -26 -15
-11 -4 10 -2 25 4 33 16 19 20 12 11 -22z m1374 11 c0 -15 -5 -21 -10 -16 -5
5 -6 16 -3 24 9 23 15 19 13 -8z m378 -16 c9 -19 10 -30 4 -30 -6 0 -3 -9 6
-19 13 -14 14 -21 5 -26 -8 -6 -7 -10 6 -17 12 -7 15 -17 11 -34 -4 -14 -2
-24 4 -24 5 0 10 -9 10 -20 0 -11 7 -23 15 -26 19 -8 20 -24 1 -24 -20 0 -62
93 -76 168 -6 35 -14 70 -17 79 -11 28 14 5 31 -27z m236 8 c0 -5 -4 -8 -10
-8 -5 0 -10 10 -10 23 0 18 2 19 10 7 5 -8 10 -18 10 -22z m81 -1 c-8 -8 -11
-7 -11 4 0 20 13 34 18 19 3 -7 -1 -17 -7 -23z m-2101 9 c0 -3 -4 -8 -10 -11
-5 -3 -10 -1 -10 4 0 6 5 11 10 11 6 0 10 -2 10 -4z m160 -10 c0 -8 -4 -18
-10 -21 -5 -3 -10 3 -10 14 0 12 5 21 10 21 6 0 10 -6 10 -14z m70 -63 c-10
-16 -11 -15 -6 7 3 14 7 36 7 50 2 19 3 18 6 -7 2 -18 -1 -41 -7 -50z m185 48
c-8 -17 -19 -33 -25 -36 -5 -3 -10 -17 -10 -30 0 -13 -4 -27 -10 -30 -19 -11
-10 27 17 76 28 52 54 70 28 20z m1099 23 c23 -9 20 -23 -4 -17 -11 3 -20 9
-20 14 0 11 3 11 24 3z m376 -19 c13 -14 21 -28 17 -31 -10 -10 -57 24 -57 41
0 22 13 18 40 -10z m-1428 -10 c3 -13 1 -22 -3 -19 -9 5 -13 44 -5 44 2 0 6
-11 8 -25z m868 5 c0 -12 -12 -32 -26 -45 -39 -36 -53 -30 -16 6 18 17 32 38
32 45 0 8 2 14 5 14 3 0 5 -9 5 -20z m642 -16 c-3 -20 -1 -34 4 -31 5 3 9 -9
9 -26 0 -21 4 -31 13 -29 9 1 12 -5 10 -18 -6 -38 -23 -23 -44 39 -12 34 -18
61 -13 61 5 0 9 9 9 20 0 11 4 20 8 20 4 0 6 -16 4 -36z m-1981 -16 c-25 -26
-27 -17 -4 19 9 14 19 21 21 15 2 -6 -6 -21 -17 -34z m119 8 c-15 -40 -13 -66
4 -60 8 3 17 13 19 22 4 16 4 16 11 1 5 -11 -12 -61 -44 -135 -29 -66 -59
-136 -68 -157 -8 -21 -20 -40 -25 -44 -5 -3 -2 8 7 25 8 16 12 32 9 36 -7 7
34 102 54 127 8 9 13 20 12 25 -2 16 13 54 22 54 16 0 10 28 -8 34 -18 7 -35
-12 -29 -30 5 -12 -16 -79 -27 -90 -4 -4 -7 -15 -7 -25 0 -10 -10 -24 -22 -30
-22 -12 -22 -12 -5 15 10 14 13 26 8 26 -6 0 -15 -8 -20 -17 -10 -17 -10 -17
-11 -1 0 9 5 20 11 23 9 6 59 106 59 120 0 3 -4 3 -10 0 -23 -14 -8 25 26 69
40 50 50 54 34 12z m1500 -43 c0 -35 -5 -46 -25 -59 -14 -9 -29 -14 -33 -10
-3 4 -1 10 5 14 20 12 35 65 28 102 -5 33 -4 34 10 16 8 -11 15 -39 15 -63z
m-1294 15 c-10 -80 -71 -276 -82 -265 -3 3 6 43 20 89 14 46 29 111 35 146 5
34 13 67 16 72 14 22 17 7 11 -42z m137 -86 c-5 -67 -8 -80 -15 -61 -5 13 -6
49 -3 79 4 30 4 52 0 48 -3 -3 -10 -37 -15 -75 l-9 -68 5 85 c3 73 7 108 13
130 1 3 8 -8 16 -24 12 -22 13 -47 8 -114z m1067 130 c9 -4 15 -13 14 -19 -1
-7 -2 -22 -3 -34 0 -13 -6 -19 -13 -16 -8 3 -13 -4 -14 -17 -1 -48 -14 -87
-36 -115 -28 -36 -45 -41 -22 -6 22 33 9 32 -22 -2 l-25 -28 21 43 c25 50 11
57 -16 7 -18 -35 -34 -45 -34 -24 0 7 9 27 21 45 25 41 17 44 -15 7 -30 -35
-38 -18 -14 35 13 29 25 42 38 42 11 0 19 3 18 8 -2 4 7 24 19 45 22 37 46 45
83 29z m227 -14 c-3 -8 -6 -5 -6 6 -1 11 2 17 5 13 3 -3 4 -12 1 -19z m291 -3
c15 -32 15 -45 2 -45 -5 0 -10 7 -10 15 0 8 -4 15 -10 15 -5 0 -10 9 -10 20 0
28 15 25 28 -5z m69 3 c-3 -8 -6 -5 -6 6 -1 11 2 17 5 13 3 -3 4 -12 1 -19z
m-1921 -52 c-3 -14 -11 -26 -16 -26 -11 0 -13 33 -3 70 6 24 6 24 16 3 5 -12
7 -33 3 -47z m1553 -22 c1 -26 -5 -46 -14 -54 -18 -15 -18 -10 -5 24 8 21 7
24 -7 19 -13 -5 -14 -3 -4 15 14 26 14 35 1 27 -14 -8 -13 12 2 38 l12 22 7
-25 c4 -14 7 -44 8 -66z m-82 44 c-3 -8 -6 -5 -6 6 -1 11 2 17 5 13 3 -3 4
-12 1 -19z m-1097 -15 c-1 -24 -2 -26 -11 -10 -5 9 -7 22 -4 27 10 17 15 11
15 -17z m1012 -5 c-8 -8 -9 -4 -5 13 4 13 8 18 11 10 2 -7 -1 -18 -6 -23z
m116 -33 l1 -20 -9 20 c-5 11 -8 31 -8 45 l0 25 8 -25 c4 -14 8 -34 8 -45z
m202 35 c0 -24 -16 -34 -24 -15 -7 19 3 47 15 39 5 -3 9 -14 9 -24z m212 -25
c2 -19 0 -35 -4 -35 -4 0 -8 11 -8 24 0 13 -3 32 -7 42 -4 11 -3 15 4 11 6 -4
13 -23 15 -42z m-105 13 c-3 -8 -6 -5 -6 6 -1 11 2 17 5 13 3 -3 4 -12 1 -19z
m-1515 -75 c3 -35 1 -63 -3 -63 -13 0 -20 52 -13 99 8 54 11 48 16 -36z m1435
45 c-3 -8 -6 -5 -6 6 -1 11 2 17 5 13 3 -3 4 -12 1 -19z m-1737 -65 c-61 -113
-80 -129 -37 -31 20 44 64 107 75 108 2 0 -15 -35 -38 -77z m60 33 c-6 -20
-18 -36 -25 -36 -10 0 -8 11 8 39 26 47 33 46 17 -3z m1300 24 c0 -5 -5 -10
-11 -10 -5 0 -7 5 -4 10 3 6 8 10 11 10 2 0 4 -4 4 -10z m230 -11 c0 -6 -4 -7
-10 -4 -5 3 -10 11 -10 16 0 6 5 7 10 4 6 -3 10 -11 10 -16z m100 -11 c0 -6
-7 -5 -15 2 -8 7 -15 17 -15 22 0 6 7 5 15 -2 8 -7 15 -17 15 -22z m90 -50 c0
-5 -4 -8 -9 -8 -8 0 -31 52 -31 69 0 9 40 -53 40 -61z m65 32 c-4 -12 -9 -19
-12 -17 -3 3 -2 15 2 27 4 12 9 19 12 17 3 -3 2 -15 -2 -27z m-398 -6 c3 -9 1
-25 -5 -35 -7 -10 -12 -26 -12 -35 0 -27 -39 -73 -86 -100 -25 -15 -47 -24
-51 -21 -3 3 10 12 29 20 19 8 48 32 65 53 31 40 48 84 32 84 -5 0 -9 -8 -9
-18 0 -11 -14 -35 -31 -55 -35 -41 -64 -50 -54 -17 5 15 3 18 -9 14 -9 -3 -16
-2 -16 4 0 5 7 12 15 16 8 3 15 10 15 15 0 6 -7 8 -15 5 -11 -5 -14 -2 -9 12
12 32 25 44 49 44 13 0 31 3 40 6 13 5 14 8 3 15 -9 6 -4 9 15 9 16 0 30 -7
34 -16z m-1490 -16 c-3 -8 -6 -5 -6 6 -1 11 2 17 5 13 3 -3 4 -12 1 -19z
m1603 7 c0 -8 -4 -15 -10 -15 -5 0 -7 7 -4 15 4 8 8 15 10 15 2 0 4 -7 4 -15z
m-1410 -60 c-6 -19 -16 -35 -22 -35 -11 0 -6 30 14 77 16 40 23 4 8 -42z
m1010 31 c11 -30 20 -36 61 -46 l47 -12 -13 -31 c-20 -50 -5 -77 43 -77 31 0
50 9 91 42 28 23 53 50 57 60 8 25 20 23 40 -7 18 -28 57 -36 47 -9 -5 13 -2
15 18 9 13 -4 38 -16 56 -27 20 -12 40 -17 55 -13 19 5 27 1 36 -19 11 -25 42
-36 42 -15 0 5 5 7 10 4 6 -3 10 4 10 17 0 28 15 54 24 40 3 -5 -1 -23 -9 -40
-18 -35 -7 -79 22 -89 24 -8 131 -121 140 -147 10 -31 11 -76 1 -82 -4 -3 -8
4 -8 15 0 12 -4 21 -10 21 -5 0 -10 -24 -11 -52 0 -44 -2 -49 -10 -29 -5 13
-11 22 -14 20 -2 -3 -13 -36 -24 -74 l-20 -70 -1 60 c-3 75 -12 120 -25 120
-6 0 -18 -16 -28 -35 -16 -33 -18 -34 -23 -12 -10 36 -24 25 -24 -20 -1 -42
-1 -42 -15 -18 l-13 25 -7 -30 c-12 -56 -16 -62 -25 -40 -11 28 -50 59 -79 63
-29 4 -71 -33 -71 -62 0 -17 4 -15 20 12 26 42 44 37 48 -14 2 -21 8 -43 13
-49 6 -6 7 10 5 40 l-5 50 20 -24 c10 -13 19 -30 19 -38 0 -8 5 -11 10 -8 14
9 13 -18 -2 -33 -9 -9 -5 -13 20 -18 24 -5 32 -13 38 -37 5 -25 2 -34 -17 -48
-36 -26 -43 -23 -45 20 -3 51 -11 66 -29 51 -10 -8 -19 -9 -32 -1 -16 9 -16
10 5 11 12 0 22 5 22 10 0 6 -7 10 -15 10 -7 0 -19 8 -24 18 -10 16 -10 15
-11 -3 0 -17 -2 -17 -10 -5 -8 13 -10 12 -10 -4 0 -16 -3 -17 -12 -8 -7 7 -21
12 -32 12 -22 0 -60 52 -96 129 -16 36 -28 20 -24 -31 2 -29 5 -96 8 -148 5
-89 4 -90 -4 -26 -5 39 -15 76 -24 85 -15 14 -16 13 -16 -9 -1 -24 -1 -24 -15
-7 -12 17 -14 15 -20 -27 -11 -69 -22 -55 -17 20 6 86 -9 100 -32 29 -19 -61
-36 -72 -36 -22 -1 17 -7 43 -14 56 -12 22 -13 20 -20 -35 -23 -172 -21 -169
-31 -64 -5 52 -9 106 -10 120 -1 14 -5 52 -8 85 -12 114 -19 495 -10 495 5 0
15 -15 23 -34z m-769 -121 c9 -16 20 -55 24 -85 3 -30 11 -70 15 -89 5 -19 8
-36 6 -38 -2 -2 -16 3 -32 12 -41 21 -80 19 -105 -6 -18 -18 -20 -28 -15 -63
18 -113 162 -213 224 -155 26 23 29 74 7 103 -8 11 -15 23 -15 28 0 10 50 11
50 1 4 -160 0 -516 -5 -536 -8 -31 -23 -30 -82 4 -18 10 -49 21 -70 25 -25 5
-52 21 -77 46 -22 21 -45 37 -51 34 -6 -2 -19 9 -29 24 -20 34 -60 39 -50 5
13 -42 63 -115 78 -115 4 0 0 14 -9 30 -9 17 -19 30 -24 30 -8 0 -31 52 -31
69 0 3 12 -11 26 -32 15 -23 31 -36 39 -33 8 2 19 -2 26 -10 10 -12 6 -21 -19
-52 -17 -20 -36 -35 -44 -33 -7 2 -29 4 -48 4 -46 1 -57 18 -56 89 1 32 -2 58
-6 58 -4 0 -8 -4 -8 -10 0 -5 -7 -7 -15 -4 -11 4 -15 -1 -16 -17 -1 -13 -2
-32 -3 -41 -1 -10 -5 -17 -11 -15 -11 2 -11 7 -1 55 5 21 4 32 -3 32 -6 0 -11
-9 -11 -19 0 -11 -5 -23 -11 -27 -8 -5 -10 1 -6 18 10 39 -19 45 -47 11 -11
-15 -38 -45 -58 -67 -21 -21 -38 -42 -38 -47 0 -5 -11 -7 -24 -3 -13 3 -27 1
-30 -5 -17 -28 -26 -5 -26 69 l0 80 38 -1 c23 -1 28 -3 15 -6 -13 -2 -23 -8
-23 -12 0 -10 97 7 123 21 27 14 14 20 -17 8 -29 -11 -136 -3 -136 11 0 4 33
7 73 6 52 -2 77 2 89 13 14 14 10 16 -41 27 -31 6 -67 14 -81 19 -15 4 -22 3
-17 -2 5 -5 36 -16 70 -26 l62 -16 -74 -1 c-61 -1 -72 1 -67 14 3 8 1 15 -4
15 -6 0 -10 23 -10 51 l0 51 38 -22 c34 -20 23 -7 -20 23 -15 10 -18 31 -19
140 -1 71 2 131 5 134 8 8 26 -44 26 -77 0 -67 32 -37 45 42 3 21 12 41 20 45
7 5 23 28 34 53 23 53 77 113 94 107 7 -2 29 4 49 14 20 10 44 16 53 13 8 -4
21 -1 29 5 7 6 21 9 30 5 10 -4 18 0 22 10 9 24 44 20 44 -5 0 -26 33 -22 38
5 2 10 15 34 28 54 14 20 22 42 20 49 -3 8 0 23 7 34 11 17 13 13 17 -38 3
-32 12 -71 21 -88z m1116 103 c-3 -8 -6 -5 -6 6 -1 11 2 17 5 13 3 -3 4 -12 1
-19z m77 16 c9 -4 16 -17 15 -33 l0 -26 -10 25 c-6 13 -15 28 -22 32 -14 9 -5
10 17 2z m252 -54 c9 -47 -11 -28 -25 24 -9 35 -9 38 4 25 8 -8 17 -30 21 -49z
m37 45 c-3 -9 -8 -14 -10 -11 -3 3 -2 9 2 15 9 16 15 13 8 -4z m-1877 -47
c-10 -27 -15 -35 -16 -21 0 23 20 76 27 69 3 -2 -2 -24 -11 -48z m54 31 c-7
-11 -14 -19 -16 -16 -7 7 7 37 17 37 6 0 5 -9 -1 -21z m209 -19 c11 -24 11
-24 -3 -6 -9 11 -16 24 -16 30 0 12 5 7 19 -24z m1296 3 l18 -28 -21 19 c-12
11 -22 23 -22 28 0 14 7 9 25 -19z m-1044 7 c22 -12 27 -45 4 -37 -11 5 -13
-5 -11 -57 4 -75 9 -86 43 -86 24 0 25 -1 10 -17 -13 -15 -13 -22 -3 -42 7
-13 24 -30 37 -37 l24 -13 -28 -1 c-20 0 -32 8 -47 33 -12 20 -20 26 -20 15 0
-9 12 -30 26 -47 14 -17 21 -31 16 -31 -12 0 -37 23 -52 48 -8 15 -11 15 -20
2 -5 -8 -7 -24 -3 -35 5 -17 4 -18 -9 -7 -25 20 -41 96 -42 202 -1 80 2 103
14 110 20 13 37 12 61 0z m1209 -5 c7 -8 8 -15 2 -15 -5 0 -15 7 -22 15 -7 8
-8 15 -2 15 5 0 15 -7 22 -15z m37 -17 c-3 -8 -6 -5 -6 6 -1 11 2 17 5 13 3
-3 4 -12 1 -19z m38 2 c3 -5 1 -10 -4 -10 -6 0 -11 5 -11 10 0 6 2 10 4 10 3
0 8 -4 11 -10z m-77 -30 c5 0 8 -9 5 -20 -7 -26 -18 -18 -32 22 -9 28 -9 31 3
16 7 -10 18 -18 24 -18z m-1508 -11 c0 -11 -4 -18 -10 -14 -5 3 -7 12 -3 20 7
21 13 19 13 -6z m1435 11 c3 -5 1 -10 -4 -10 -6 0 -11 5 -11 10 0 6 2 10 4 10
3 0 8 -4 11 -10z m-1477 -20 c-7 -11 -15 -15 -17 -9 -2 6 3 15 10 20 20 12 21
11 7 -11z m1118 -5 c14 -13 14 -15 -1 -15 -10 0 -13 -5 -9 -12 4 -7 3 -8 -4
-4 -12 7 -17 46 -6 46 3 0 12 -7 20 -15z m-1411 -54 c-22 -44 -26 -38 -7 10 9
23 18 37 20 31 2 -6 -4 -24 -13 -41z m1925 17 c0 -21 -3 -29 -10 -22 -5 5 -7
19 -4 32 9 31 14 27 14 -10z m87 -10 c-3 -8 -6 -5 -6 6 -1 11 2 17 5 13 3 -3
4 -12 1 -19z m-1903 -3 c-4 -8 -8 -15 -10 -15 -2 0 -4 7 -4 15 0 8 4 15 10 15
5 0 7 -7 4 -15z m1955 -75 c0 -33 -1 -32 -14 15 -18 64 -18 76 0 45 8 -14 14
-41 14 -60z m-807 -217 c2 -78 0 -129 -5 -126 -6 3 -7 -16 -3 -48 3 -30 8
-130 11 -224 4 -93 11 -208 16 -255 5 -47 13 -118 16 -157 3 -40 10 -73 15
-73 6 0 7 24 3 58 -3 31 -8 75 -10 97 l-5 40 16 -43 c19 -50 31 -50 15 0 -14
42 -29 228 -19 228 4 0 8 -1 8 -3 0 -2 5 -30 11 -63 17 -96 47 -176 84 -223
19 -24 35 -48 35 -53 0 -12 -46 -58 -58 -58 -5 0 -12 18 -16 40 -3 22 -11 40
-17 40 -6 0 -8 -8 -4 -19 10 -34 8 -90 -4 -105 -15 -18 -70 -31 -81 -20 -12
14 -19 236 -24 759 -3 281 -1 451 4 410 4 -38 10 -129 12 -202z m756 206 c2
-23 2 -23 -13 -5 -18 24 -20 39 -2 34 6 -3 13 -15 15 -29z m-1044 -369 c7
-371 28 -770 41 -803 7 -16 4 -18 -27 -12 -28 5 -40 2 -65 -19 -37 -31 -75
-33 -106 -6 l-24 21 -2 307 c-2 169 -5 334 -7 367 -1 33 -6 135 -10 228 -4 94
-11 167 -17 167 -8 0 -7 -73 9 -390 6 -127 6 -639 -1 -650 -3 -5 -20 -10 -37
-10 l-30 0 6 58 c3 31 11 107 17 167 17 156 18 787 2 792 -22 8 -14 38 18 66
24 21 41 27 75 27 54 0 124 33 132 62 14 54 20 -34 26 -372z m-966 270 c-13
-92 -31 -120 -23 -35 6 56 24 120 31 112 2 -1 -2 -36 -8 -77z m35 45 c-3 -9
-8 -14 -10 -11 -3 3 -2 9 2 15 9 16 15 13 8 -4z m437 -29 c0 -2 -9 -6 -20 -9
-11 -3 -18 -1 -14 4 5 9 34 13 34 5z m56 -17 l19 -21 -33 7 c-22 4 -38 2 -49
-7 -14 -11 -16 -11 -11 2 2 8 14 16 26 18 12 2 20 8 17 13 -12 18 12 9 31 -12z
m144 -31 c0 -4 -7 -4 -17 -1 -11 4 -14 3 -9 -5 11 -17 -9 -15 -24 3 -11 13
-10 14 4 9 12 -5 15 -2 10 11 -6 15 -5 15 15 4 11 -8 21 -17 21 -21z m-78 -14
c-2 -10 -8 -21 -13 -22 -5 -2 -7 -8 -3 -13 3 -5 0 -9 -7 -9 -8 0 -8 -4 1 -15
11 -13 10 -15 -6 -9 -18 5 -18 4 1 -11 20 -17 20 -17 -5 -11 -23 7 -24 6 -7
-8 11 -8 26 -12 34 -9 11 4 14 2 11 -8 -11 -32 -60 -3 -109 65 -36 49 -38 68
-2 30 17 -18 28 -24 31 -16 2 7 9 9 15 5 7 -4 8 0 4 11 -4 9 -3 15 2 11 16 -9
40 6 34 22 -4 11 -2 14 8 11 8 -3 12 -14 11 -24z m-86 -94 c26 -27 43 -50 37
-50 -12 0 -88 79 -102 107 -6 12 -11 30 -11 40 1 11 6 6 15 -14 8 -18 35 -55
61 -83z m118 5 c2 -17 1 -23 -1 -15 -3 8 -9 19 -14 25 -5 5 -9 16 -9 24 0 26
19 -2 24 -34z m1316 17 c0 -5 -7 -17 -16 -28 -14 -17 -15 -17 -10 -1 3 10 6
23 6 28 0 5 5 9 10 9 6 0 10 -4 10 -8z m-1233 -49 c-3 -10 -5 -4 -5 12 0 17 2
24 5 18 2 -7 2 -21 0 -30z m1338 -191 c-3 -120 -10 -231 -14 -248 -12 -37 -12
-30 -13 114 -1 161 14 352 28 352 2 0 2 -98 -1 -218z m-1425 174 c0 -2 -7 -7
-16 -10 -8 -3 -12 -2 -9 4 6 10 25 14 25 6z m940 -46 c5 0 14 -9 20 -20 8 -15
6 -24 -10 -40 -11 -11 -20 -26 -21 -32 -2 -35 -28 54 -28 97 0 50 0 50 15 23
8 -16 19 -28 24 -28z m360 -38 c0 -2 -7 3 -15 12 -8 8 -15 30 -14 48 0 32 1
32 15 -12 7 -25 14 -46 14 -48z m-70 54 c0 -29 -13 -76 -21 -76 -10 0 -12 50
-3 74 8 20 24 21 24 2z m145 -179 c-1 -105 -2 -221 -4 -257 l-2 -65 -17 40
c-21 54 -19 310 4 408 9 37 17 67 18 67 0 0 1 -87 1 -193z m-104 95 c5 -24 21
-66 34 -95 27 -55 32 -96 13 -115 -19 -19 -28 -14 -28 16 0 16 -9 64 -20 107
-11 43 -19 101 -19 129 1 28 3 40 6 26 2 -14 8 -44 14 -68z m59 29 c0 -6 -4
-13 -10 -16 -5 -3 -10 1 -10 9 0 9 5 16 10 16 6 0 10 -4 10 -9z m-612 -253
c-3 -82 -3 -83 -14 -38 -5 25 -7 46 -4 48 4 1 4 22 0 47 -4 24 -3 67 1 97 4
29 9 62 10 73 5 34 10 -140 7 -227z m61 195 c-15 -65 -21 -264 -11 -353 6 -47
9 -86 7 -88 -7 -7 -57 149 -52 162 4 9 7 57 8 108 1 63 8 113 21 155 22 67 42
78 27 16z m95 -19 c17 -211 17 -231 1 -237 -8 -4 -15 -13 -15 -22 0 -8 -3 -15
-7 -15 -13 0 -15 229 -3 287 7 30 14 53 16 51 2 -3 6 -31 8 -64z m116 25 c-12
-16 -18 -34 -14 -40 4 -7 1 -10 -6 -7 -8 2 -18 12 -24 22 -9 14 -6 22 17 42
37 32 53 21 27 -17z m72 -20 c-2 -17 0 -30 7 -30 6 -1 15 -2 21 -3 17 -2 32
-24 25 -36 -4 -7 -10 -8 -14 -3 -3 5 -26 14 -50 19 -55 11 -71 33 -48 67 11
18 22 23 40 20 19 -4 23 -9 19 -34z m-977 -191 c-8 -237 -9 -258 -20 -368 -7
-65 -9 -71 -28 -68 -12 2 -27 14 -34 27 -10 21 -7 36 17 103 35 95 58 279 60
471 0 31 3 57 7 57 3 0 3 -100 -2 -222z m1242 200 c-3 -8 -6 -5 -6 6 -1 11 2
17 5 13 3 -3 4 -12 1 -19z m-500 -30 c-3 -7 -5 -2 -5 12 0 14 2 19 5 13 2 -7
2 -19 0 -25z m299 5 c-10 -10 -19 5 -10 18 6 11 8 11 12 0 2 -7 1 -15 -2 -18z
m-456 -68 c6 4 7 -6 4 -23 -5 -24 1 -62 22 -134 4 -12 0 -18 -10 -18 -9 0 -16
5 -16 11 0 5 -4 7 -10 4 -7 -4 -9 39 -8 122 1 70 3 107 5 80 2 -26 8 -45 13
-42z m257 63 c-1 -13 5 -60 12 -106 13 -76 11 -105 -5 -89 -10 10 -28 182 -21
201 9 23 15 20 14 -6z m320 -10 c-3 -8 -6 -5 -6 6 -1 11 2 17 5 13 3 -3 4 -12
1 -19z m-451 -25 c-10 -10 -19 5 -10 18 6 11 8 11 12 0 2 -7 1 -15 -2 -18z
m159 17 c3 -5 1 -10 -4 -10 -6 0 -11 5 -11 10 0 6 2 10 4 10 3 0 8 -4 11 -10z
m-131 -47 c-2 -27 -5 -70 -8 -98 -5 -46 -5 -47 5 -16 13 43 16 37 11 -26 -3
-37 -8 -50 -17 -47 -7 3 -15 -5 -19 -18 -7 -22 -8 -22 -17 7 -10 34 4 136 27
203 9 23 17 42 18 42 1 0 1 -21 0 -47z m443 11 c3 -8 1 -25 -5 -37 -10 -21
-11 -21 -12 -2 -2 34 -46 -64 -60 -135 -8 -35 -25 -80 -38 -100 -13 -19 -22
-26 -18 -15 3 11 15 59 26 107 36 153 85 238 107 182z m-169 -124 c3 -78 1
-110 -7 -110 -6 0 -11 18 -11 43 0 24 -3 80 -6 123 -5 65 -4 77 6 67 9 -8 15
-50 18 -123z m102 118 c-1 -7 -7 -24 -15 -38 l-14 -25 -1 31 c0 17 3 34 7 37
10 11 23 8 23 -5z m-191 -13 c44 -22 61 -78 60 -198 0 -56 -3 -95 -6 -87 -3 8
-13 23 -21 33 -10 11 -17 45 -20 100 -3 63 -10 92 -29 125 -27 46 -26 49 16
27z m137 -37 c-4 -30 -3 -39 4 -28 17 27 12 -45 -11 -133 -16 -65 -21 -115
-22 -237 -1 -125 -2 -143 -9 -90 -21 180 -20 242 2 330 12 47 22 101 21 120
-1 40 7 80 15 80 4 0 4 -19 0 -42z m-236 -19 c0 -11 -4 -17 -10 -14 -5 3 -10
15 -10 26 0 11 5 17 10 14 6 -3 10 -15 10 -26z m207 -1 c-3 -7 -5 -2 -5 12 0
14 2 19 5 13 2 -7 2 -19 0 -25z m-1507 -46 c0 -13 -4 -20 -10 -17 -5 3 -10 21
-10 38 0 24 3 28 10 17 5 -8 10 -25 10 -38z m1397 -49 c2 -49 0 -74 -6 -68 -5
6 -11 45 -13 87 -2 47 1 73 6 68 5 -5 11 -44 13 -87z m261 72 c-6 -14 -13 -23
-16 -21 -7 7 9 46 18 46 5 0 4 -11 -2 -25z m-1735 -24 c19 -28 31 -38 45 -34
19 5 50 -22 38 -34 -6 -6 -36 6 -69 29 -15 11 -21 10 -35 -8 -30 -36 -72 -55
-133 -60 -32 -3 -59 -1 -59 4 0 17 26 31 46 26 15 -4 31 10 69 55 28 34 55 61
61 61 6 0 23 -18 37 -39z m1584 -3 c-3 -7 -5 -2 -5 12 0 14 2 19 5 13 2 -7 2
-19 0 -25z m109 -34 c-11 -55 -29 -53 -20 2 3 27 9 54 13 59 9 16 14 -24 7
-61z m-1362 -16 c7 12 51 2 93 -22 15 -9 40 -20 54 -25 22 -8 25 -14 21 -40
-4 -30 -6 -31 -56 -31 -29 0 -70 9 -95 20 -24 11 -49 20 -56 20 -7 0 -18 7
-25 15 -7 8 -21 15 -31 15 -26 0 -24 10 14 53 l32 38 21 -27 c13 -15 24 -22
28 -16z m1446 -123 c-7 -66 -13 -157 -13 -201 -1 -63 -4 -81 -14 -77 -7 3 -13
7 -13 8 0 2 -5 37 -10 78 -9 64 -8 95 10 203 21 129 41 183 49 133 2 -13 -2
-78 -9 -144z m124 -120 c-10 -71 -17 -160 -16 -197 1 -41 -3 -70 -10 -74 -6
-4 -8 -3 -4 4 3 5 0 12 -6 14 -10 4 -13 42 -13 149 0 143 12 233 44 339 l16
55 3 -80 c2 -44 -5 -138 -14 -210z m-457 238 c-3 -10 -5 -4 -5 12 0 17 2 24 5
18 2 -7 2 -21 0 -30z m277 0 c-3 -21 -12 -66 -21 -101 -13 -51 -15 -94 -10
-232 7 -180 -4 -229 -19 -82 -12 118 -8 222 11 312 27 123 50 185 39 103z
m-316 18 c17 -11 29 -91 13 -91 -14 0 -15 -37 -1 -45 14 -9 11 -114 -6 -219
-8 -49 -14 -100 -12 -114 2 -14 -2 -27 -9 -29 -7 -3 -14 16 -18 52 -6 45 -3
69 14 118 28 80 29 92 10 92 -9 0 -23 6 -32 14 -29 24 -29 48 -1 91 25 38 26
43 11 51 -9 5 -14 16 -10 24 4 11 1 13 -11 9 -11 -4 -16 -1 -16 10 0 9 7 16
15 16 9 0 18 7 21 15 7 17 13 18 32 6z m-1238 -51 c0 -5 -7 -10 -15 -10 -8 0
-15 5 -15 10 0 6 7 10 15 10 8 0 15 -4 15 -10z m1150 -49 c-6 -11 -4 -21 7
-33 13 -15 12 -18 -8 -29 -20 -10 -25 -9 -41 11 -24 29 -23 51 4 79 20 22 22
23 34 6 9 -12 10 -24 4 -34z m370 30 c0 -6 -4 -12 -9 -16 -5 -3 -20 -31 -32
-63 -20 -49 -23 -76 -23 -199 -1 -78 -4 -144 -7 -147 -9 -10 -67 14 -73 30 -6
16 9 19 19 4 3 -5 14 -10 24 -10 17 0 18 9 14 123 -5 137 4 191 44 250 25 35
43 47 43 28z m-1639 -30 c13 -11 21 -23 17 -27 -5 -4 -16 0 -26 9 -25 23 -38
21 -76 -8 -23 -18 -44 -25 -72 -24 l-39 1 45 12 c25 6 55 21 68 34 27 27 52
28 83 3z m125 -6 c6 -23 0 -45 -10 -34 -10 12 -15 59 -6 59 5 0 12 -11 16 -25z
m1645 -191 c-6 -78 -11 -149 -11 -158 0 -22 17 -20 23 2 3 9 5 -3 5 -28 0 -34
-2 -40 -8 -25 -7 17 -9 16 -9 -10 -1 -26 4 -32 34 -41 43 -13 45 -9 45 98 0
134 10 82 15 -80 3 -92 1 -153 -5 -157 -6 -4 -5 -13 2 -24 12 -20 5 -51 -12
-51 -7 0 -9 8 -5 19 4 15 2 19 -12 16 -10 -2 -26 -4 -35 -4 -10 -1 -18 -5 -18
-9 0 -13 60 -44 76 -38 18 7 20 -40 2 -47 -10 -4 -9 -8 2 -17 12 -9 6 -10 -25
-5 -22 4 -64 8 -93 9 -63 3 -79 15 -60 45 7 11 16 21 20 21 4 0 12 10 19 21 9
17 8 20 -2 14 -9 -6 -11 -2 -7 13 4 15 2 22 -8 22 -8 0 -13 -3 -13 -7 3 -21
-2 -26 -12 -13 -8 12 -9 9 -5 -12 6 -24 3 -28 -16 -29 -36 -1 -61 -5 -85 -13
-19 -6 -22 -4 -16 11 6 16 5 16 -10 4 -15 -12 -17 -11 -18 5 -1 14 -2 15 -6 3
-2 -8 -18 -23 -36 -34 l-32 -18 20 22 c12 14 20 37 20 59 0 21 5 37 14 40 10
3 12 -1 8 -17 -6 -23 -5 -24 16 -15 9 3 12 14 9 29 -2 14 -2 35 2 48 5 20 11
23 36 19 22 -3 30 0 30 11 0 8 9 25 20 38 17 21 21 22 31 9 9 -12 12 -13 16
-1 4 11 7 11 13 0 7 -10 12 -10 23 -1 7 7 16 9 20 6 3 -3 10 3 16 14 6 11 8
21 6 23 -8 9 -36 209 -30 219 3 5 8 51 10 101 2 50 7 100 11 112 6 20 9 17 21
-18 12 -33 12 -65 4 -181z m-1484 170 c-5 -5 -57 13 -57 20 0 3 14 0 31 -6 16
-6 28 -12 26 -14z m1161 14 c21 -21 14 -55 -15 -73 -16 -10 -22 -12 -15 -4 18
19 15 47 -8 59 -11 6 -20 15 -20 20 0 14 44 12 58 -2z m-248 -129 c16 -33 30
-65 30 -71 0 -24 -54 71 -72 125 -21 68 -23 100 -3 44 8 -21 28 -65 45 -98z
m-1205 101 c10 -11 13 -20 7 -20 -6 0 -14 5 -17 10 -4 6 -22 8 -43 5 -35 -6
-36 -5 -18 9 27 21 49 20 71 -4z m1092 -27 c-3 -10 -5 -2 -5 17 0 19 2 27 5
18 2 -10 2 -26 0 -35z m-1342 27 c3 -5 1 -10 -4 -10 -6 0 -11 5 -11 10 0 6 2
10 4 10 3 0 8 -4 11 -10z m331 -18 c-10 -2 -22 0 -28 6 -6 6 0 7 19 4 21 -5
23 -7 9 -10z m353 2 c10 -9 -75 -3 -89 6 -10 7 1 8 35 4 28 -4 52 -8 54 -10z
m981 6 c0 -5 -4 -10 -10 -10 -5 0 -10 5 -10 10 0 6 5 10 10 10 6 0 10 -4 10
-10z m-1262 -60 c-5 -15 -19 -37 -31 -48 -22 -20 -115 -72 -129 -72 -22 0 -1
20 57 53 61 35 72 48 90 102 5 15 8 16 15 6 4 -8 4 -26 -2 -41z m-282 23 c26
-3 44 -1 48 6 4 6 15 11 24 11 10 0 1 -11 -23 -25 -22 -14 -47 -22 -55 -19 -8
4 -37 15 -65 25 l-50 19 40 -5 c22 -3 59 -8 81 -12z m386 -7 c4 3 17 0 30 -7
12 -7 50 -19 83 -26 60 -13 60 -13 10 -8 -106 10 -137 19 -153 45 -16 25 -16
25 4 7 11 -9 23 -14 26 -11z m978 -5 c0 -16 3 -36 6 -45 10 -27 -12 -18 -25
10 -12 27 -7 64 10 64 5 0 9 -13 9 -29z m375 -13 c-4 -24 -12 -47 -17 -53 -7
-7 -8 -3 -5 10 3 11 8 35 12 53 10 47 18 39 10 -10z m-1588 26 c-3 -3 -12 -4
-19 -1 -8 3 -5 6 6 6 11 1 17 -2 13 -5z m423 -4 c0 -5 -7 -10 -16 -10 -8 0
-12 5 -9 10 3 6 10 10 16 10 5 0 9 -4 9 -10z m1036 -6 c-3 -9 -6 -25 -6 -35 0
-11 -4 -17 -10 -14 -11 7 -14 48 -3 58 12 13 25 7 19 -9z m-1496 -4 c13 -8 12
-10 -3 -10 -10 0 -28 -6 -40 -14 -31 -20 -87 -30 -87 -17 0 6 8 11 18 11 9 0
31 9 47 20 34 22 44 24 65 10z m-180 -15 c20 -24 7 -26 -25 -5 -27 18 -28 20
-9 20 12 0 27 -7 34 -15z m1488 -136 c-2 -76 -6 -139 -10 -139 -5 0 -8 66 -8
146 0 101 3 143 11 139 7 -5 9 -54 7 -146z m-1083 131 c-4 -6 5 -10 20 -10 14
0 39 -7 55 -15 16 -8 52 -20 80 -26 51 -11 58 -17 39 -36 -15 -15 -105 13
-137 44 -7 7 -31 13 -53 13 -37 0 -39 2 -29 20 6 11 15 20 21 20 6 0 7 -4 4
-10z m-435 -17 c14 -7 43 -15 65 -20 l40 -8 -58 -3 c-60 -3 -87 8 -87 35 0 8
3 13 8 11 4 -2 18 -9 32 -15z m235 -13 c24 -26 11 -39 -15 -15 -17 15 -25 16
-62 7 -42 -11 -68 -8 -32 3 10 4 26 10 34 15 26 15 56 11 75 -10z m1316 -35
c1 -17 -4 -51 -10 -78 -6 -26 -9 -66 -6 -90 4 -37 4 -38 -4 -10 -10 39 -2 228
10 216 5 -5 9 -22 10 -38z m-914 29 c-3 -3 -12 -4 -19 -1 -8 3 -5 6 6 6 11 1
17 -2 13 -5z m-148 -34 l16 -25 -28 18 c-28 18 -29 18 -74 -7 -61 -35 -66 -32
-18 9 47 41 80 42 104 5z m1168 -102 c-2 -24 -4 -5 -4 42 0 47 2 66 4 43 2
-24 2 -62 0 -85z m-1589 105 c-21 -2 -38 -8 -38 -14 0 -5 -16 -9 -35 -9 -24 0
-35 5 -35 15 0 12 14 15 73 13 40 -1 55 -3 35 -5z m1421 -85 c0 -46 -3 -77 -6
-70 -10 26 -24 11 -19 -20 l6 -33 -15 30 -14 30 0 -30 c-1 -44 11 -57 42 -49
18 4 27 2 27 -6 0 -7 7 -10 18 -5 13 5 14 4 5 -6 -9 -9 -15 -9 -27 0 -11 10
-14 7 -12 -14 1 -32 8 -32 52 7 36 32 37 32 30 8 -6 -24 -6 -24 5 -3 13 25 59
40 69 23 5 -8 16 -9 30 -5 18 6 22 4 17 -8 -5 -12 4 -15 51 -12 31 1 45 1 30
-2 -26 -4 -40 -23 -18 -23 6 0 10 -7 10 -15 0 -8 -5 -15 -11 -15 -5 0 -7 -4
-4 -10 3 -5 0 -10 -8 -10 -8 0 -15 6 -14 13 0 6 -1 21 -2 32 -1 17 -3 18 -11
4 -5 -8 -5 -31 0 -52 8 -39 3 -77 -10 -77 -12 0 -21 63 -10 74 5 5 10 15 10
20 0 6 -5 5 -12 -2 -16 -16 -28 -15 -28 3 0 22 -9 19 -40 -15 -31 -33 -60 -39
-60 -12 0 14 -2 15 -10 2 -9 -13 -11 -13 -20 0 -5 8 -10 10 -10 5 0 -25 52
-65 83 -65 18 0 40 -6 49 -12 20 -17 32 -54 19 -63 -6 -3 -13 6 -17 20 -8 32
-23 33 -16 0 2 -14 0 -25 -4 -25 -5 0 -20 -3 -33 -7 -21 -5 -23 -3 -18 18 4
19 -2 30 -33 54 -21 17 -41 40 -44 52 -3 12 -22 43 -42 69 -20 26 -42 63 -50
83 l-14 36 5 -35 c3 -19 14 -46 25 -60 11 -14 31 -47 45 -73 14 -26 35 -57 45
-67 24 -24 5 -27 -28 -4 -12 8 -22 11 -22 5 0 -5 5 -13 10 -16 18 -11 10 -26
-12 -23 -12 2 -27 12 -33 23 -21 43 -52 73 -87 85 -38 14 -55 35 -38 45 6 4
10 16 10 28 0 14 20 38 55 67 95 78 95 78 92 137 -2 29 0 53 5 53 4 0 8 -37 7
-82z m-1389 62 c-8 -5 -26 -9 -40 -9 l-25 1 25 8 c14 4 32 8 40 9 13 1 13 0 0
-9z m246 1 c-8 -13 -84 -51 -101 -51 -33 0 0 28 40 35 25 3 47 10 50 16 4 5 8
9 11 9 3 0 3 -4 0 -9z m119 -1 c3 -5 14 -10 24 -10 10 0 35 -11 55 -25 21 -14
48 -26 61 -27 21 -2 56 -38 36 -38 -5 0 -11 5 -13 10 -2 6 -14 12 -27 15 -13
2 -38 13 -56 24 -52 30 -89 34 -146 16 -28 -9 -52 -15 -55 -13 -5 6 87 57 103
58 6 0 15 -4 18 -10z m105 -10 c43 -15 49 -19 27 -20 -26 0 -87 24 -87 35 0 7
0 7 60 -15z m-392 -9 c3 -10 0 -11 -14 -3 -12 7 -29 6 -56 -4 -21 -7 -36 -9
-33 -4 7 11 64 29 84 27 8 -1 16 -8 19 -16z m1539 -13 c-3 -8 -6 -5 -6 6 -1
11 2 17 5 13 3 -3 4 -12 1 -19z m-1657 2 c0 -6 -16 -8 -42 -4 -59 9 -60 14 -5
14 26 0 47 -5 47 -10z m100 -8 c0 -17 -22 -29 -47 -24 l-26 5 24 13 c27 15 49
18 49 6z m60 -15 c0 -20 -53 -97 -72 -105 -13 -6 -9 -32 3 -30 6 2 13 -2 16
-8 2 -8 -9 -12 -32 -12 -42 0 -56 -9 -35 -22 11 -7 12 -10 2 -10 -7 0 -10 -4
-7 -10 3 -5 14 -10 24 -10 19 0 51 -31 71 -69 10 -19 9 -25 -1 -32 -9 -5 -18
1 -29 19 -9 15 -25 34 -35 42 -16 12 -15 9 3 -17 27 -38 28 -53 5 -54 -10 0
-30 -2 -45 -4 -15 -2 -31 1 -34 7 -4 7 -9 6 -14 -2 -5 -9 -9 -9 -14 -1 -4 6
-2 11 3 11 19 0 12 17 -9 23 -11 3 -20 0 -20 -6 0 -7 -7 -4 -15 7 -14 18 -19
116 -6 116 4 0 12 -5 19 -12 9 -9 12 -9 12 0 0 7 -7 15 -15 18 -25 10 -18 18
43 51 32 18 80 55 108 83 54 55 74 62 74 27z m90 -2 c-10 -12 -10 -15 1 -15
24 0 -14 -29 -51 -40 l-35 -9 30 25 c29 25 29 25 5 19 -19 -4 -17 -1 10 14 42
24 57 26 40 6z m228 -10 c26 -14 53 -25 59 -25 7 0 13 -4 13 -10 0 -14 -5 -13
-88 10 -39 11 -81 20 -92 20 -12 0 -38 -9 -60 -20 -52 -27 -70 -26 -42 2 49
49 141 59 210 23z m1189 -32 c-3 -10 -5 -2 -5 17 0 19 2 27 5 18 2 -10 2 -26
0 -35z m-1658 21 c10 -9 -75 -3 -89 6 -10 7 1 8 35 4 28 -4 52 -8 54 -10z
m1563 -24 c3 -16 1 -35 -4 -42 -4 -8 -8 4 -8 30 0 49 6 55 12 12z m-1112 -5
c33 -12 31 -13 -27 -8 -45 4 -69 2 -85 -9 -29 -19 -128 -33 -128 -18 0 5 8 10
18 10 9 1 42 12 72 25 57 24 80 24 150 0z m1187 -7 c-3 -7 -5 -2 -5 12 0 14 2
19 5 13 2 -7 2 -19 0 -25z m-1008 2 c3 0 5 -17 3 -39 -4 -36 -2 -38 29 -45 32
-6 58 -30 59 -54 0 -7 -4 -11 -9 -8 -20 12 -43 -7 -38 -31 2 -13 0 -26 -4 -29
-5 -3 -9 11 -9 30 0 25 4 36 15 36 8 0 15 6 15 14 0 15 -73 29 -78 15 -2 -4
-14 -4 -27 1 -15 6 -27 6 -30 -1 -4 -5 -22 -7 -41 -3 -45 8 -43 -2 3 -21 29
-12 34 -18 23 -25 -9 -5 -18 -4 -24 4 -19 23 -122 56 -135 43 -8 -8 -11 -8
-11 1 0 6 -8 9 -17 6 -15 -5 -16 -4 -3 5 20 15 73 14 89 -1 8 -8 15 -9 17 -3
2 6 38 10 80 9 41 0 77 3 80 7 2 5 -35 9 -83 9 -49 1 -101 2 -118 2 -16 0 -55
-2 -85 -6 l-55 -7 70 20 c58 15 84 17 150 11 44 -5 84 -5 88 0 7 6 -61 15
-178 22 -16 1 -41 -4 -55 -12 -28 -15 -110 -22 -110 -9 0 5 13 9 30 9 16 0 47
9 69 21 41 21 61 21 138 0 45 -12 145 -13 138 0 -3 4 -22 5 -43 2 -20 -2 -48
0 -62 6 -20 8 -16 9 22 4 39 -5 49 -3 54 11 4 10 13 15 21 12 8 -3 18 -6 22
-6z m-702 -6 c-3 -3 -12 -4 -19 -1 -8 3 -5 6 6 6 11 1 17 -2 13 -5z m53 -14
c0 -5 -4 -10 -10 -10 -5 0 -10 5 -10 10 0 6 5 10 10 10 6 0 10 -4 10 -10z
m1637 -32 c-3 -7 -5 -2 -5 12 0 14 2 19 5 13 2 -7 2 -19 0 -25z m-1467 18 c0
-3 -4 -8 -10 -11 -5 -3 -10 -1 -10 4 0 6 5 11 10 11 6 0 10 -2 10 -4z m1630
-25 c0 -11 -4 -23 -10 -26 -6 -4 -10 5 -10 19 0 14 5 26 10 26 6 0 10 -9 10
-19z m-1574 2 c-11 -11 -35 -12 -42 -2 -3 5 7 9 22 9 15 0 24 -3 20 -7z m76
-41 c30 -6 36 -10 28 -22 -7 -12 -12 -12 -22 -2 -18 18 -48 15 -87 -9 -18 -11
-38 -18 -45 -16 -6 2 7 12 28 21 22 9 37 19 33 22 -3 3 -18 -1 -34 -9 -37 -19
-96 -30 -88 -17 3 6 16 10 28 10 12 0 33 7 47 14 28 16 58 18 112 8z m460 -9
c18 -16 25 -39 9 -29 -5 4 -12 0 -14 -6 -3 -7 -6 -4 -6 8 -1 11 -6 25 -13 32
-18 18 3 14 24 -5z m197 -2 c25 -14 59 -130 42 -141 -8 -4 -11 -12 -7 -18 3
-5 -4 -13 -17 -17 -29 -10 120 -22 183 -15 42 5 43 6 17 13 -15 4 -32 5 -37 2
-5 -3 -32 -3 -61 1 -33 4 -46 10 -37 15 11 7 10 9 -1 9 -8 0 -11 3 -8 6 4 4
12 2 19 -3 18 -14 57 -23 62 -14 3 3 28 8 58 9 29 1 68 7 85 13 18 6 37 8 42
5 5 -4 12 -2 15 3 10 15 -26 21 -67 12 -28 -7 -37 -6 -34 2 2 7 14 11 25 9 12
-2 22 1 22 7 0 6 -7 8 -15 5 -17 -7 -18 -3 -9 21 6 14 8 13 21 -5 8 -11 21
-20 29 -20 31 0 72 -30 84 -62 7 -18 20 -42 29 -53 15 -19 15 -19 -4 -5 -22
17 -39 40 -40 55 0 5 -24 8 -54 6 -60 -3 -86 -23 -97 -74 l-7 -28 -118 2 c-65
2 -122 -1 -126 -4 -3 -4 34 -7 84 -7 80 0 91 -2 89 -17 0 -10 8 -19 19 -21 16
-4 17 -2 7 11 -11 13 -7 15 28 15 22 0 42 -3 45 -9 4 -5 18 -9 32 -9 31 0 28
-5 -9 -14 -21 -5 -28 -3 -28 9 0 17 -2 18 -24 9 -9 -3 -16 -13 -16 -21 0 -13
10 -15 61 -9 34 3 74 7 88 7 22 1 21 3 -9 10 -30 6 -28 7 15 4 28 -2 62 -6 78
-10 21 -6 27 -4 27 9 0 10 4 14 10 11 5 -3 49 -6 97 -5 179 2 204 0 224 -11
11 -6 59 -12 105 -14 83 -3 174 -22 174 -37 0 -11 -87 -10 -108 1 -25 12 -121
23 -102 11 8 -5 33 -11 55 -12 33 -1 30 -3 -20 -8 l-60 -7 68 -1 c38 -1 66 -6
63 -11 -3 -4 -17 -7 -31 -6 -14 2 -25 -1 -25 -6 0 -5 14 -9 30 -9 34 0 39 -16
13 -36 -11 -8 -13 -13 -5 -14 22 0 12 -18 -15 -26 l-28 -7 30 -7 c28 -7 26 -8
-15 -10 -41 -2 -42 -3 -15 -9 28 -6 29 -7 10 -19 -19 -11 -19 -11 3 -12 13 0
30 -7 38 -15 14 -13 -12 -15 -233 -14 -136 1 -230 5 -208 9 l40 7 -47 2 c-26
0 -50 -3 -53 -9 -3 -6 -41 -9 -83 -8 l-77 1 60 7 c56 7 53 7 -35 8 -52 0 -99
1 -104 1 -5 1 -3 8 4 16 14 17 60 21 60 5 0 -5 7 -10 15 -10 8 0 15 5 15 10 0
6 3 9 8 9 21 -4 62 2 62 9 0 4 -44 6 -97 4 -63 -2 -92 -7 -82 -13 12 -7 12 -9
-1 -10 -8 -1 -21 -1 -27 0 -7 1 -13 -2 -13 -7 0 -15 -59 -20 -64 -6 -3 7 3 15
12 17 9 3 -20 5 -65 6 -45 0 -85 -3 -88 -9 -4 -6 16 -8 55 -5 54 5 60 4 47 -9
-8 -8 -39 -17 -68 -19 -30 -2 14 -4 96 -6 83 -1 146 -4 140 -6 -5 -2 -93 -5
-195 -7 -102 -3 -174 -3 -160 0 64 10 29 17 -75 14 -101 -3 -114 -1 -109 12 5
12 0 16 -20 16 -29 0 -35 -16 -8 -23 9 -3 -10 -6 -43 -8 -49 -2 -40 -4 45 -9
l105 -6 -85 -2 c-74 -2 -202 10 -385 36 -27 4 -68 5 -90 2 -29 -4 -12 -8 65
-13 58 -5 120 -11 138 -14 80 -14 13 -21 -218 -22 -243 -2 -250 -1 -250 18 0
19 2 19 35 5 49 -20 79 -16 34 5 -69 32 -67 26 -68 202 -1 115 2 159 11 159 6
0 19 6 27 13 42 34 100 41 275 31 71 -3 94 -1 114 12 23 15 25 15 19 0 -6 -14
-1 -16 31 -12 20 3 46 5 57 6 14 2 11 4 -10 9 -16 4 32 7 107 6 149 0 154 -14
8 -22 -112 -6 -231 -20 -239 -29 -3 -3 22 -4 57 -2 34 2 62 1 62 -4 0 -4 8 -8
18 -8 14 0 15 2 2 10 -13 9 -13 10 0 11 8 1 60 5 115 9 55 4 117 12 138 18 21
5 37 6 37 1 0 -5 5 -9 11 -9 5 0 7 5 4 11 -5 7 7 9 37 5 56 -6 56 -6 33 -16
-19 -8 -19 -9 3 -9 12 -1 22 -6 22 -11 0 -6 6 -10 13 -9 6 1 20 -1 30 -6 10
-4 36 -5 57 -2 22 3 40 1 40 -4 0 -5 -10 -9 -22 -10 -13 0 -17 -3 -10 -6 8 -3
53 -2 100 2 63 6 80 10 62 16 -14 4 -41 7 -60 7 -28 1 -31 -1 -15 -8 18 -8 17
-9 -7 -9 -21 -1 -26 3 -21 15 5 13 -3 15 -53 12 -56 -3 -59 -2 -56 20 2 12 -2
22 -8 22 -8 0 -10 9 -6 24 3 13 -1 43 -9 67 -14 38 -14 44 1 61 19 20 37 23
63 9z m114 -13 c24 0 57 3 75 7 27 5 32 4 32 -12 0 -14 2 -15 9 -4 5 7 13 11
19 7 6 -3 12 -1 14 5 5 15 38 -1 38 -19 0 -12 -3 -13 -11 -5 -9 9 -22 6 -53
-10 -22 -12 -43 -25 -46 -28 -24 -28 -100 -30 -100 -3 0 8 -4 14 -10 14 -5 0
-10 -7 -10 -16 0 -25 -18 -6 -25 26 -7 32 1 54 15 45 5 -3 29 -6 53 -7z m717
-19 c0 -6 -4 -7 -10 -4 -5 3 -10 11 -10 16 0 6 5 7 10 4 6 -3 10 -11 10 -16z
m100 11 c0 -5 -2 -10 -4 -10 -3 0 -8 5 -11 10 -3 6 -1 10 4 10 6 0 11 -4 11
-10z m-1387 -22 c30 -16 14 -33 -28 -29 -47 4 -93 30 -73 42 14 9 73 2 101
-13z m145 -2 c-13 -14 -28 -12 -28 5 0 5 9 9 20 9 17 0 19 -2 8 -14z m168 2
c4 -7 3 -8 -4 -4 -7 4 -12 3 -12 -3 0 -5 6 -11 13 -14 7 -2 8 -8 3 -13 -5 -5
-11 -4 -13 4 -7 19 -23 14 -23 -8 0 -11 -5 -20 -11 -20 -19 0 13 69 33 70 4 0
10 -5 14 -12z m955 -5 c13 -15 12 -15 -11 -3 -34 17 -36 20 -18 20 9 0 22 -7
29 -17z m-1496 -7 c17 -12 14 -14 -34 -21 -63 -9 -75 -1 -30 19 43 18 42 18
64 2z m590 4 c3 -5 -1 -10 -9 -10 -9 0 -16 5 -16 10 0 6 4 10 9 10 6 0 13 -4
16 -10z m-148 -22 c-3 -8 -6 -5 -6 6 -1 11 2 17 5 13 3 -3 4 -12 1 -19z m-129
-14 c34 -23 28 -44 -12 -44 -41 0 -65 23 -46 45 16 19 30 19 58 -1z m-198 -29
c0 -20 -34 -19 -51 1 -10 13 -10 17 1 24 18 11 50 -6 50 -25z m496 9 c4 -14 2
-30 -3 -35 -7 -7 -9 -2 -6 14 3 14 0 28 -6 31 -6 4 -11 0 -11 -10 0 -14 -3
-15 -12 -6 -10 10 -10 15 2 22 23 15 29 12 36 -16z m-604 1 c32 -8 64 -40 49
-50 -6 -3 -11 -1 -11 6 0 11 -35 9 -75 -6 -16 -6 -15 -3 5 15 24 21 24 21 3
15 -17 -5 -23 -2 -23 9 0 10 -6 13 -15 10 -8 -4 -12 -10 -9 -15 3 -5 -2 -9
-10 -9 -25 0 -19 28 7 33 22 4 30 3 79 -8z m1351 -25 c3 -11 2 -20 -2 -20 -14
0 -31 24 -31 43 0 16 3 17 14 8 8 -6 16 -21 19 -31z m77 19 c0 -5 -4 -9 -10
-9 -5 0 -10 7 -10 16 0 8 5 12 10 9 6 -3 10 -10 10 -16z m-1213 5 c-3 -3 -12
-4 -19 -1 -8 3 -5 6 6 6 11 1 17 -2 13 -5z m553 -4 c8 -5 11 -10 5 -10 -5 0
-17 5 -25 10 -8 5 -10 10 -5 10 6 0 17 -5 25 -10z m120 -1 c0 -5 -4 -8 -9 -5
-4 3 -17 -1 -27 -9 -22 -16 -34 -19 -34 -7 0 5 12 13 28 19 36 15 42 15 42 2z
m-447 -26 c-7 -2 -21 -2 -30 0 -10 3 -4 5 12 5 17 0 24 -2 18 -5z m633 -74
l24 -22 -27 -24 c-20 -19 -31 -23 -52 -17 -14 4 -37 8 -51 9 -31 1 -37 25 -14
60 16 24 23 26 57 22 21 -3 50 -15 63 -28z m164 -26 c0 -8 -13 -13 -30 -13
-17 0 -30 5 -30 12 0 6 -7 3 -15 -8 -14 -19 -14 -19 -15 2 0 19 5 21 45 20 29
-1 45 -6 45 -13z m110 -18 c-7 -8 -17 -15 -22 -15 -6 0 -5 7 2 15 7 8 17 15
22 15 6 0 5 -7 -2 -15z m-206 -22 c9 -24 0 -27 -34 -13 -34 14 -39 27 -12 32
24 6 39 -1 46 -19z m121 18 c-11 -9 -103 -26 -94 -17 3 3 23 10 45 15 53 12
60 13 49 2z m240 -11 c-11 -5 -27 -9 -35 -9 -13 -1 -13 0 0 9 8 5 24 9 35 9
l20 0 -20 -9z m-208 -6 c-3 -3 -12 -4 -19 -1 -8 3 -5 6 6 6 11 1 17 -2 13 -5z
m253 -14 c0 -5 -7 -10 -15 -10 -8 0 -15 5 -15 10 0 6 7 10 15 10 8 0 15 -4 15
-10z m165 -100 c3 -5 -1 -10 -10 -10 -9 0 -13 5 -10 10 3 6 8 10 10 10 2 0 7
-4 10 -10z m63 -93 c3 -94 3 -97 -18 -97 -12 0 -28 7 -36 15 -14 13 -13 15 9
15 30 0 43 36 22 60 -13 15 -15 19 -15 40 0 6 -9 10 -20 10 -11 0 -20 5 -20
10 0 6 6 10 14 10 8 0 18 9 21 21 4 12 14 19 23 17 14 -3 17 -20 20 -101z
m-51 27 c-3 -3 -12 -4 -19 -1 -8 3 -5 6 6 6 11 1 17 -2 13 -5z m53 -268 l0
-124 -92 -6 c-51 -3 -293 -8 -538 -11 -408 -4 -1370 -17 -1465 -19 l-40 -1 -3
119 c-1 66 1 123 5 127 4 4 195 11 423 14 228 4 532 10 675 14 143 4 434 8
648 9 l387 2 0 -124z"/>
<path d="M927 3703 l-107 -4 26 -22 c23 -20 25 -26 15 -45 -6 -12 -19 -22 -29
-22 -14 0 -15 -2 -2 -10 15 -9 289 -5 298 5 3 3 -9 5 -26 5 -18 0 -32 4 -32 9
0 26 22 63 42 71 22 8 21 9 -7 10 -16 0 -39 2 -50 3 -11 2 -68 2 -128 0z m-17
-23 c0 -5 -6 -10 -14 -10 -8 0 -18 5 -21 10 -3 6 3 10 14 10 12 0 21 -4 21
-10z m42 -57 c-6 -18 -23 -16 -38 5 -11 14 -9 21 9 40 l22 24 6 -29 c3 -15 3
-34 1 -40z m53 37 c20 -39 19 -50 -5 -50 -17 0 -20 7 -20 40 0 48 4 50 25 10z
m55 13 c0 -10 -4 -24 -9 -32 -7 -11 -11 -10 -20 7 -16 30 -14 42 9 42 12 0 20
-7 20 -17z m-163 -69 c-9 -9 -28 6 -21 18 4 6 10 6 17 -1 6 -6 8 -13 4 -17z"/>
<path d="M996 3549 c-9 -47 -7 -97 4 -104 6 -4 10 20 10 64 0 77 -4 89 -14 40z"/>
<path d="M1036 3539 c-13 -65 -16 -99 -8 -99 5 0 12 26 15 58 5 60 1 81 -7 41z"/>
<path d="M600 3533 c0 -4 16 -19 34 -33 119 -88 176 -134 172 -137 -2 -3 -35
16 -73 41 -37 25 -74 46 -82 46 -7 0 22 -23 65 -51 88 -58 112 -69 99 -49 -6
10 -4 12 8 7 33 -12 16 8 -34 43 -28 19 -82 59 -120 88 -38 29 -69 50 -69 45z"/>
<path d="M1271 3459 c-47 -43 -80 -79 -75 -79 11 0 169 149 163 154 -2 2 -42
-31 -88 -75z"/>
<path d="M1225 3460 c-38 -38 -65 -70 -59 -70 5 0 32 24 60 53 101 105 100
119 -1 17z"/>
<path d="M963 3480 c0 -25 2 -35 4 -22 2 12 2 32 0 45 -2 12 -4 2 -4 -23z"/>
<path d="M700 3498 c30 -29 141 -118 148 -118 11 1 -97 95 -132 115 -21 12
-26 13 -16 3z"/>
<path d="M1117 3468 c-10 -17 -16 -33 -13 -35 2 -3 12 9 21 27 9 18 15 33 13
35 -2 2 -11 -10 -21 -27z"/>
<path d="M915 3465 c7 -33 12 -41 21 -33 3 4 -2 19 -11 35 l-16 28 6 -30z"/>
<path d="M1070 3471 c-12 -24 -13 -34 -1 -27 9 6 22 46 15 46 -2 0 -8 -9 -14
-19z"/>
<path d="M876 3445 c9 -14 20 -25 25 -25 5 0 2 11 -7 25 -9 14 -20 25 -25 25
-5 0 -2 -11 7 -25z"/>
<path d="M1146 3433 c-12 -16 -14 -24 -6 -21 16 5 46 48 34 48 -5 0 -18 -12
-28 -27z"/>
<path d="M1258 3411 c-29 -27 -51 -51 -48 -54 3 -3 32 19 65 49 33 30 55 54
48 54 -6 0 -36 -22 -65 -49z"/>
<path d="M831 3445 c0 -13 28 -50 33 -44 3 2 -4 15 -14 29 -11 14 -20 21 -19
15z"/>
<path d="M1595 3440 c-3 -5 -1 -10 4 -10 6 0 11 5 11 10 0 6 -2 10 -4 10 -3 0
-8 -4 -11 -10z"/>
<path d="M1240 3345 c-16 -9 -19 -14 -9 -15 8 0 24 7 35 15 24 18 7 19 -26 0z"/>
<path d="M682 3346 c8 -10 119 -38 124 -33 3 2 -17 10 -43 16 -26 7 -57 15
-68 18 -11 3 -17 2 -13 -1z"/>
<path d="M1273 3319 c-18 -5 -33 -12 -33 -15 0 -8 63 6 75 17 11 11 1 10 -42
-2z"/>
<path d="M715 3289 c55 -11 75 -11 75 1 0 6 -25 9 -57 9 -57 -1 -58 -1 -18
-10z"/>
<path d="M1270 3280 c-24 -8 -23 -8 8 -9 17 -1 32 4 32 9 0 11 -5 11 -40 0z"/>
<path d="M1328 3283 c7 -3 16 -2 19 1 4 3 -2 6 -13 5 -11 0 -14 -3 -6 -6z"/>
<path d="M678 3263 c12 -2 32 -2 45 0 12 2 2 4 -23 4 -25 0 -35 -2 -22 -4z"/>
<path d="M1328 3243 c18 -2 45 -2 60 0 15 2 0 4 -33 4 -33 0 -45 -2 -27 -4z"/>
<path d="M617 3233 c24 -2 62 -2 86 0 23 2 4 4 -43 4 -47 0 -66 -2 -43 -4z"/>
<path d="M1338 3213 c23 -2 61 -2 85 0 23 2 4 4 -43 4 -47 0 -66 -2 -42 -4z"/>
<path d="M623 3203 c26 -2 67 -2 90 0 23 2 2 3 -48 3 -49 0 -68 -1 -42 -3z"/>
<path d="M1278 3193 c7 -3 16 -2 19 1 4 3 -2 6 -13 5 -11 0 -14 -3 -6 -6z"/>
<path d="M655 3180 c-39 -7 -38 -7 15 -8 30 0 64 3 75 8 16 7 13 8 -15 8 -19
-1 -53 -4 -75 -8z"/>
<path d="M1338 3183 c17 -2 47 -2 65 0 17 2 3 4 -33 4 -36 0 -50 -2 -32 -4z"/>
<path d="M1275 3160 c11 -5 34 -8 50 -8 l30 0 -30 8 c-16 4 -39 8 -50 8 l-20
1 20 -9z"/>
<path d="M723 3147 c-23 -7 -45 -16 -50 -21 -5 -5 0 -6 10 -3 10 4 36 10 58
13 22 4 42 11 45 15 7 11 -10 10 -63 -4z"/>
<path d="M753 3117 c-29 -11 -53 -23 -53 -28 0 -4 24 2 53 13 58 24 62 26 56
32 -2 2 -28 -5 -56 -17z"/>
<path d="M1290 3125 c47 -18 74 -18 31 0 -18 8 -41 15 -50 14 -9 0 0 -7 19
-14z"/>
<path d="M1240 3116 c0 -2 20 -11 45 -19 53 -19 60 -12 10 9 -34 14 -55 18
-55 10z"/>
<path d="M1225 3050 c10 -11 25 -20 34 -20 12 0 9 6 -9 20 -33 26 -48 26 -25
0z"/>
<path d="M846 3035 c-9 -14 -13 -25 -9 -25 10 0 36 40 30 46 -2 3 -12 -7 -21
-21z"/>
<path d="M1180 3050 c0 -5 7 -10 16 -10 8 0 12 5 9 10 -3 6 -10 10 -16 10 -5
0 -9 -4 -9 -10z"/>
<path d="M1140 3040 c0 -5 5 -10 10 -10 6 0 10 5 10 10 0 6 -4 10 -10 10 -5 0
-10 -4 -10 -10z"/>
<path d="M876 3031 c-4 -7 -5 -15 -2 -18 9 -9 19 4 14 18 -4 11 -6 11 -12 0z"/>
<path d="M907 3033 c-4 -3 -7 -11 -7 -17 0 -6 5 -5 12 2 6 6 9 14 7 17 -3 3
-9 2 -12 -2z"/>
<path d="M1000 3340 c0 -5 5 -10 10 -10 6 0 10 5 10 10 0 6 -4 10 -10 10 -5 0
-10 -4 -10 -10z"/>
<path d="M968 3238 c12 -6 22 -19 22 -30 0 -10 4 -18 9 -18 12 0 1 43 -13 52
-6 4 -18 7 -26 7 -9 0 -6 -5 8 -11z"/>
<path d="M1000 3135 c10 -12 10 -15 -4 -15 -9 0 -16 -3 -16 -8 0 -4 19 -5 43
-3 27 3 34 6 19 9 -19 3 -21 6 -11 18 9 11 7 14 -16 14 -23 0 -26 -2 -15 -15z"/>
<path d="M1010 3090 c0 -5 5 -10 10 -10 6 0 10 5 10 10 0 6 -4 10 -10 10 -5 0
-10 -4 -10 -10z"/>
<path d="M1192 2978 c-7 -7 -12 -28 -12 -47 0 -53 -10 -83 -26 -77 -8 3 -14 1
-14 -4 0 -6 9 -10 19 -10 24 0 31 -28 42 -165 l7 -100 -5 115 c-10 217 -9 273
5 287 7 7 10 13 5 13 -5 0 -14 -5 -21 -12z"/>
<path d="M913 2863 c9 -11 17 -26 17 -34 0 -12 -2 -12 -9 0 -6 9 -11 10 -15 2
-4 -6 -2 -11 3 -11 6 0 11 -10 12 -22 0 -22 1 -22 9 -3 15 36 11 64 -12 76
-22 12 -22 11 -5 -8z"/>
<path d="M1241 2825 c0 -33 -4 -85 -9 -115 -6 -31 -6 -61 -1 -70 4 -8 9 -10 9
-5 0 6 5 47 10 91 6 51 7 96 1 120 -9 38 -9 37 -10 -21z"/>
<path d="M1272 2860 c0 -14 2 -19 5 -12 2 6 2 18 0 25 -3 6 -5 1 -5 -13z"/>
<path d="M1299 2859 c-6 -13 -16 -59 -20 -102 -4 -43 -13 -85 -20 -93 -8 -10
-8 -14 0 -14 17 0 31 44 31 98 1 26 7 65 15 87 16 45 13 58 -6 24z"/>
<path d="M1217 2815 c3 -33 7 -62 9 -64 7 -8 2 63 -7 94 -5 20 -6 9 -2 -30z"/>
<path d="M1083 2843 c21 -3 27 -10 27 -29 0 -13 5 -24 11 -24 6 0 8 7 5 16 -3
9 -6 22 -6 30 0 9 -10 14 -32 13 -31 -2 -31 -2 -5 -6z"/>
<path d="M1330 2821 c-5 -11 -10 -42 -10 -68 0 -27 -5 -54 -12 -61 -6 -6 -9
-14 -6 -18 11 -10 38 54 34 78 -2 13 2 38 10 56 14 34 2 45 -16 13z"/>
<path d="M768 2820 c13 -6 29 -24 37 -42 12 -28 14 -29 15 -10 0 26 -33 62
-57 61 -14 0 -12 -3 5 -9z"/>
<path d="M828 2818 c8 -8 12 -64 12 -187 -1 -145 -3 -173 -13 -159 -13 16 -67
36 -67 25 0 -3 16 -15 35 -27 19 -12 35 -29 36 -38 0 -12 3 -11 9 5 11 26 15
351 5 376 -4 9 -12 17 -18 17 -7 0 -7 -4 1 -12z"/>
<path d="M1075 2817 c-4 -10 -5 -21 -1 -24 10 -10 18 4 13 24 -4 17 -4 17 -12
0z"/>
<path d="M961 2806 c-8 -9 -11 -19 -7 -23 9 -9 29 13 24 27 -2 8 -8 7 -17 -4z"/>
<path d="M1361 2799 c-8 -23 -14 -115 -6 -107 6 6 24 122 19 127 -2 2 -8 -7
-13 -20z"/>
<path d="M892 2785 c0 -16 2 -22 5 -12 2 9 2 23 0 30 -3 6 -5 -1 -5 -18z"/>
<path d="M1453 2780 c-20 -12 -35 -30 -38 -47 -13 -58 -13 -63 -4 -57 5 3 9
14 9 25 0 31 18 58 53 79 18 11 28 20 22 20 -5 0 -25 -9 -42 -20z"/>
<path d="M1397 2772 c-10 -11 -16 -33 -16 -53 2 -32 2 -33 6 -5 3 16 12 40 20
53 18 28 13 30 -10 5z"/>
<path d="M770 2750 c18 -17 36 -28 39 -24 7 7 -45 54 -61 54 -5 0 4 -14 22
-30z"/>
<path d="M1118 2763 c7 -3 16 -2 19 1 4 3 -2 6 -13 5 -11 0 -14 -3 -6 -6z"/>
<path d="M965 2718 c-3 -24 -4 -59 -1 -78 2 -19 5 -48 5 -63 l1 -28 97 6 c54
3 98 7 100 8 9 10 6 197 -4 197 -5 0 -7 -42 -5 -94 l3 -94 -83 -4 c-46 -2 -86
-2 -90 0 -5 2 -8 43 -8 92 l0 89 48 4 47 3 -52 2 -52 2 -6 -42z"/>
<path d="M917 2730 c-4 -14 -6 -38 -6 -55 1 -27 2 -26 10 10 11 45 7 85 -4 45z"/>
<path d="M1030 2680 c-16 -33 -30 -64 -30 -70 0 -6 30 -10 75 -10 44 0 75 4
75 10 0 14 -73 130 -82 130 -4 0 -21 -27 -38 -60z m73 -9 c15 -27 27 -51 27
-55 0 -3 -25 -6 -55 -6 -30 0 -55 4 -55 10 0 14 43 100 50 100 4 0 19 -22 33
-49z"/>
<path d="M875 2568 c-4 -90 -5 -176 -3 -193 2 -16 7 55 12 158 4 103 6 190 3
193 -3 3 -8 -68 -12 -158z"/>
<path d="M1486 2698 c-18 -25 -20 -38 -8 -38 4 0 13 14 19 30 13 36 10 38 -11
8z"/>
<path d="M943 2625 c0 -44 2 -61 4 -37 2 23 2 59 0 80 -2 20 -4 1 -4 -43z"/>
<path d="M803 2665 c4 -9 2 -24 -4 -31 -9 -11 -8 -14 5 -14 19 0 22 45 4 56
-8 5 -9 2 -5 -11z"/>
<path d="M1601 2637 c19 -13 36 -22 38 -20 9 7 -34 43 -52 43 -16 0 -13 -5 14
-23z"/>
<path d="M780 2590 c-23 -7 -24 -8 -3 -9 12 -1 26 -9 32 -18 12 -23 22 -13 14
15 -6 24 -6 24 -43 12z"/>
<path d="M987 2533 c-8 -14 -6 -258 2 -245 7 12 12 252 5 252 -1 0 -5 -3 -7
-7z"/>
<path d="M1046 2523 c4 -10 11 -45 14 -78 l7 -60 1 78 c2 65 -1 77 -14 77 -12
0 -14 -5 -8 -17z"/>
<path d="M1090 2469 c0 -44 4 -68 10 -64 6 3 10 35 10 71 0 36 -4 64 -10 64
-6 0 -10 -30 -10 -71z"/>
<path d="M1137 2534 c-4 -4 -7 -14 -7 -23 0 -11 3 -12 11 -4 6 6 10 16 7 23
-2 6 -7 8 -11 4z"/>
<path d="M1024 2435 c0 -55 1 -76 3 -47 2 29 2 74 0 100 -2 26 -3 2 -3 -53z"/>
<path d="M1117 2411 c-4 -17 -3 -21 5 -13 5 5 8 16 6 23 -3 8 -7 3 -11 -10z"/>
<path d="M1240 2363 c0 -5 5 -35 10 -68 11 -64 26 -615 23 -874 -1 -109 2
-150 9 -143 14 14 15 179 4 499 -6 172 -6 256 1 265 13 16 22 216 13 283 -5
37 -8 13 -10 -90 l-3 -140 -12 135 c-7 74 -14 136 -14 138 -2 6 -21 1 -21 -5z"/>
<path d="M1150 2300 c-5 -36 1 -221 10 -290 11 -92 20 -246 20 -362 0 -49 3
-88 8 -88 12 0 6 259 -12 500 -17 226 -22 270 -26 240z"/>
<path d="M307 1863 c3 -54 10 -99 14 -101 5 -2 9 -10 9 -18 0 -8 4 -14 9 -14
4 0 11 34 15 77 8 103 8 123 -4 123 -5 0 -10 -24 -11 -52 -1 -42 -3 -48 -9
-28 -4 14 -8 44 -9 68 -1 23 -5 42 -10 42 -6 0 -7 -41 -4 -97z"/>
<path d="M279 1915 c-4 -3 -5 -32 -3 -63 l4 -57 -15 40 c-8 22 -18 46 -20 54
-3 8 -8 12 -10 9 -3 -3 3 -34 14 -69 10 -35 23 -80 28 -99 l10 -35 7 46 c8 48
-4 185 -15 174z"/>
<path d="M370 1818 c-6 -40 -14 -80 -16 -90 -3 -9 -1 -19 4 -22 6 -3 13 16 18
42 7 44 8 45 14 17 l7 -30 12 43 c14 50 9 79 -8 42 -10 -21 -10 -18 -6 23 10
76 -12 55 -25 -25z"/>
<path d="M160 1856 c0 -7 8 -24 19 -37 10 -13 25 -37 34 -54 9 -16 16 -24 17
-17 0 13 -59 122 -66 122 -2 0 -4 -6 -4 -14z"/>
<path d="M430 1808 c-21 -71 -28 -108 -20 -108 6 0 26 56 48 138 2 6 -1 12 -6
12 -5 0 -15 -19 -22 -42z"/>
<path d="M221 1825 c0 -11 9 -38 20 -60 l19 -40 -6 35 c-4 19 -12 46 -20 60
-11 22 -13 22 -13 5z"/>
<path d="M452 1773 c-11 -26 -18 -52 -15 -57 4 -5 17 14 30 44 26 60 26 60 14
60 -5 0 -18 -21 -29 -47z"/>
<path d="M160 1807 c0 -2 16 -32 35 -67 19 -36 35 -59 35 -51 0 14 -58 121
-66 121 -2 0 -4 -1 -4 -3z"/>
<path d="M100 1772 c12 -18 25 -31 28 -27 3 3 -7 18 -23 33 l-28 27 23 -33z"/>
<path d="M498 1756 c-31 -30 -56 -76 -41 -76 16 0 115 64 105 68 -7 2 -24 -3
-37 -12 -38 -25 -42 -19 -10 14 40 42 26 47 -17 6z"/>
<path d="M160 1738 c27 -45 25 -53 -6 -29 -15 12 -31 21 -37 21 -5 0 5 -10 23
-22 55 -37 49 -51 -10 -28 -29 11 -55 18 -58 16 -3 -3 4 -8 14 -11 10 -4 38
-15 62 -26 53 -24 53 -24 42 5 -6 16 -5 26 1 28 12 4 -28 78 -42 78 -5 0 0
-15 11 -32z"/>
<path d="M485 1676 c-27 -11 -29 -16 -27 -50 3 -29 1 -37 -10 -31 -13 6 13
-15 64 -55 14 -11 34 -20 45 -20 14 0 11 5 -12 20 -38 25 -32 25 40 0 63 -22
85 -25 69 -11 -18 17 -127 52 -144 46 -10 -3 -23 2 -31 11 -13 16 -12 17 11
11 40 -9 126 -18 110 -10 -8 3 -37 12 -65 19 l-50 13 72 -2 c40 -1 75 2 79 6
4 4 -31 7 -77 8 -56 0 -77 3 -64 9 11 5 37 9 57 9 20 1 39 5 43 10 5 9 -33 7
-87 -4 -31 -6 -19 12 15 23 20 6 25 10 12 11 -11 0 -33 -6 -50 -13z"/>
<path d="M175 1553 c-64 -33 -116 -65 -112 -70 3 -3 27 8 53 23 46 27 50 22
15 -21 -9 -11 7 0 34 25 69 62 72 74 10 43z"/>
<path d="M390 1561 c0 -7 -4 -10 -9 -7 -5 3 -8 -23 -8 -59 0 -35 4 -62 9 -59
5 3 6 10 3 15 -4 5 -2 9 4 9 5 0 11 -6 14 -12 5 -17 -2 31 -10 57 l-5 20 16
-20 c16 -19 17 -19 10 15 -6 35 -24 66 -24 41z"/>
<path d="M427 1460 c6 -22 23 -38 23 -21 0 17 -12 41 -20 41 -5 0 -6 -9 -3
-20z"/>
<path d="M1004 1988 c3 -40 8 -219 11 -398 3 -179 10 -366 15 -415 5 -50 10
-116 10 -147 0 -31 5 -60 11 -64 9 -5 10 17 5 82 -3 49 -12 296 -20 549 -8
253 -15 461 -15 463 -1 1 -6 2 -11 2 -7 0 -9 -26 -6 -72z"/>
<path d="M962 1901 c2 -83 8 -146 14 -148 13 -4 6 269 -7 282 -7 7 -9 -38 -7
-134z"/>
<path d="M896 1858 c2 -90 8 -230 13 -313 6 -82 13 -238 17 -345 7 -218 14
-282 30 -287 8 -3 8 11 2 49 -5 29 -14 168 -19 308 -5 140 -13 336 -18 435 -5
99 -9 210 -10 248 0 37 -5 67 -10 67 -6 0 -8 -66 -5 -162z"/>
<path d="M1755 1525 c4 -11 10 -57 13 -103 3 -49 8 -80 14 -74 12 12 -7 171
-22 186 -10 9 -11 7 -5 -9z"/>
<path d="M1955 850 c9 -30 13 -35 21 -27 3 3 -2 16 -11 29 l-17 23 7 -25z"/>
<path d="M2065 850 c-3 -5 -12 -7 -20 -3 -8 3 -15 1 -15 -5 0 -8 22 -22 35
-22 1 0 5 9 8 20 5 21 2 26 -8 10z"/>
<path d="M2110 840 c0 -12 37 -14 44 -2 2 4 -6 9 -20 10 -13 1 -24 -3 -24 -8z"/>
<path d="M1940 823 c0 -6 8 -17 18 -24 16 -13 16 -13 2 6 -8 11 -16 22 -17 24
-2 2 -3 0 -3 -6z"/>
<path d="M2130 798 c0 -4 7 -8 15 -8 8 0 15 4 15 8 0 5 -7 9 -15 9 -8 0 -15
-4 -15 -9z"/>
<path d="M1869 788 c-10 -7 -11 -11 -2 -14 7 -3 9 -12 6 -21 -4 -10 3 -8 20 8
15 12 27 25 27 29 0 10 -35 9 -51 -2z"/>
<path d="M2051 781 c-10 -6 -10 -10 -1 -16 13 -8 24 -1 19 14 -3 6 -10 7 -18
2z"/>
<path d="M2080 775 c0 -8 4 -15 10 -15 5 0 7 7 4 15 -4 8 -8 15 -10 15 -2 0
-4 -7 -4 -15z"/>
<path d="M1970 759 c0 -5 5 -7 10 -4 6 3 10 8 10 11 0 2 -4 4 -10 4 -5 0 -10
-5 -10 -11z"/>
<path d="M2120 748 c0 -4 7 -8 15 -8 8 0 15 4 15 8 0 5 -7 9 -15 9 -8 0 -15
-4 -15 -9z"/>
<path d="M1907 723 c-21 -5 -18 -28 4 -29 20 -1 49 15 49 26 0 10 -21 11 -53
3z"/>
<path d="M2022 638 c-16 -16 -15 -28 3 -28 8 0 15 9 15 20 0 23 -2 24 -18 8z"/>
<path d="M2090 627 c0 -8 10 -17 22 -20 24 -7 38 -1 38 14 0 6 -4 7 -10 4 -5
-3 -19 -1 -30 5 -16 8 -20 8 -20 -3z"/>
<path d="M2050 619 c0 -5 5 -7 10 -4 6 3 10 8 10 11 0 2 -4 4 -10 4 -5 0 -10
-5 -10 -11z"/>
<path d="M100 890 c0 -5 7 -10 16 -10 8 0 12 5 9 10 -3 6 -10 10 -16 10 -5 0
-9 -4 -9 -10z"/>
<path d="M121 826 c12 -14 25 -26 27 -26 9 0 -25 44 -37 48 -7 2 -3 -7 10 -22z"/>
<path d="M165 830 c10 -11 20 -20 23 -20 3 0 -3 9 -13 20 -10 11 -20 20 -23
20 -3 0 3 -9 13 -20z"/>
<path d="M180 709 c0 -5 18 -9 39 -9 22 0 42 4 45 9 4 5 -14 9 -39 9 -25 0
-45 -4 -45 -9z"/>
<path d="M780 709 l-55 -6 68 -1 c37 -1 67 0 67 2 0 9 -28 11 -80 5z"/>
<path d="M300 700 c0 -13 50 -13 70 0 11 7 4 10 -27 10 -24 0 -43 -4 -43 -10z"/>
<path d="M910 690 l-45 -7 53 -1 c33 -1 51 2 47 8 -3 6 -7 9 -8 8 -1 0 -22 -4
-47 -8z"/>
<path d="M665 680 c-53 -6 -55 -7 -17 -8 23 -1 42 -7 42 -13 0 -6 10 -9 23 -7
12 2 21 8 20 14 -1 7 13 10 35 9 48 -3 51 -5 27 -15 -18 -8 -17 -9 6 -9 33 -1
58 24 33 33 -18 7 -83 5 -169 -4z"/>
<path d="M88 673 c7 -3 16 -2 19 1 4 3 -2 6 -13 5 -11 0 -14 -3 -6 -6z"/>
<path d="M975 670 c-38 -7 -38 -7 -8 -9 31 -1 32 -2 21 -33 -10 -28 -9 -33 12
-50 12 -10 28 -18 36 -18 8 0 14 -5 14 -11 0 -5 5 -7 10 -4 6 3 10 16 10 28 0
18 -2 20 -11 7 -9 -12 -10 -11 -6 5 3 11 8 29 11 40 4 11 -2 4 -13 -15 -21
-36 -30 -25 -10 12 6 11 8 22 5 25 -3 4 -11 -8 -17 -25 -11 -32 -29 -44 -29
-19 0 29 13 57 27 57 8 0 11 5 8 10 -3 6 -9 9 -13 9 -4 -1 -25 -5 -47 -9z"/>
<path d="M593 653 c9 -2 23 -2 30 0 6 3 -1 5 -18 5 -16 0 -22 -2 -12 -5z"/>
<path d="M200 639 c0 -5 5 -7 10 -4 6 3 10 8 10 11 0 2 -4 4 -10 4 -5 0 -10
-5 -10 -11z"/>
<path d="M260 640 c0 -5 7 -10 15 -10 8 0 15 5 15 10 0 6 -7 10 -15 10 -8 0
-15 -4 -15 -10z"/>
<path d="M610 642 c-19 -2 -39 -8 -45 -14 -7 -7 9 -9 54 -4 35 3 82 6 104 6
22 0 37 3 34 7 -8 7 -91 10 -147 5z"/>
<path d="M850 640 c-12 -8 -11 -10 8 -10 12 0 22 5 22 10 0 13 -11 13 -30 0z"/>
<path d="M123 629 c-18 -5 -35 -14 -38 -19 -8 -13 -10 -13 55 10 56 19 42 26
-17 9z"/>
<path d="M1128 598 c-4 -43 -28 -50 -28 -8 0 21 -4 30 -12 27 -23 -8 -8 -77
16 -77 16 0 46 48 46 75 0 29 -19 15 -22 -17z"/>
<path d="M155 613 c-25 -6 -45 -22 -45 -35 0 -6 11 -3 25 6 13 9 35 16 47 16
13 0 30 5 38 10 11 7 8 9 -15 9 -16 -1 -39 -4 -50 -6z"/>
<path d="M260 610 c0 -5 13 -10 29 -10 17 0 33 5 36 10 4 6 -8 10 -29 10 -20
0 -36 -4 -36 -10z"/>
<path d="M1160 611 c0 -10 57 -8 67 3 3 3 -10 6 -30 6 -20 0 -37 -4 -37 -9z"/>
<path d="M393 603 c9 -2 23 -2 30 0 6 3 -1 5 -18 5 -16 0 -22 -2 -12 -5z"/>
<path d="M870 600 c-13 -8 -12 -10 3 -10 9 0 17 5 17 10 0 12 -1 12 -20 0z"/>
<path d="M450 590 c0 -5 4 -10 9 -10 6 0 13 5 16 10 3 6 -1 10 -9 10 -9 0 -16
-4 -16 -10z"/>
<path d="M624 588 c-6 -10 204 -3 214 7 4 3 -42 5 -101 4 -59 -1 -110 -6 -113
-11z"/>
<path d="M923 593 c9 -2 23 -2 30 0 6 3 -1 5 -18 5 -16 0 -22 -2 -12 -5z"/>
<path d="M1778 583 c6 -2 18 -2 25 0 6 3 1 5 -13 5 -14 0 -19 -2 -12 -5z"/>
<path d="M365 570 c-3 -5 1 -10 9 -10 9 0 16 5 16 10 0 6 -4 10 -9 10 -6 0
-13 -4 -16 -10z"/>
<path d="M1585 570 c-8 -12 111 -12 140 0 14 6 -5 9 -57 9 -42 1 -80 -3 -83
-9z"/>
<path d="M145 560 c-3 -6 1 -7 9 -4 18 7 21 14 7 14 -6 0 -13 -4 -16 -10z"/>
<path d="M1323 563 c15 -2 39 -2 55 0 15 2 2 4 -28 4 -30 0 -43 -2 -27 -4z"/>
<path d="M1458 563 c12 -2 32 -2 45 0 12 2 2 4 -23 4 -25 0 -35 -2 -22 -4z"/>
<path d="M280 544 c0 -8 5 -12 10 -9 6 4 8 11 5 16 -9 14 -15 11 -15 -7z"/>
<path d="M1160 550 c0 -5 4 -10 9 -10 6 0 13 5 16 10 3 6 -1 10 -9 10 -9 0
-16 -4 -16 -10z"/>
<path d="M568 537 c24 -7 36 -7 44 1 9 9 1 12 -32 11 l-45 -1 33 -11z"/>
<path d="M669 539 c-11 -6 24 -8 121 -6 25 0 64 0 87 0 24 0 40 3 38 7 -6 10
-230 9 -246 -1z"/>
<path d="M1218 543 c7 -3 16 -2 19 1 4 3 -2 6 -13 5 -11 0 -14 -3 -6 -6z"/>
<path d="M1335 540 c-30 -5 -18 -8 49 -9 92 -1 114 6 35 12 -24 2 -62 0 -84
-3z"/>
<path d="M1553 539 c9 -6 15 -15 11 -20 -3 -6 -10 -6 -17 -1 -17 13 -67 21
-67 11 0 -5 8 -9 18 -9 10 0 23 -5 28 -10 6 -6 77 -12 160 -15 82 -3 186 -7
231 -10 45 -2 85 0 88 4 7 12 -41 20 -57 10 -32 -21 -144 2 -121 24 3 4 -9 7
-28 6 -32 -1 -32 -2 -9 -9 16 -5 -9 -8 -74 -9 -95 -1 -114 7 -57 24 16 5 21 4
17 -4 -10 -16 13 -13 30 4 14 13 5 15 -78 15 -69 -1 -88 -3 -75 -11z"/>
<path d="M338 533 c12 -2 32 -2 45 0 12 2 2 4 -23 4 -25 0 -35 -2 -22 -4z"/>
<path d="M974 521 c5 -8 56 -3 56 5 0 2 -14 4 -31 4 -16 0 -28 -4 -25 -9z"/>
<path d="M1063 510 c1 -12 8 -20 20 -20 10 0 15 5 12 10 -4 6 6 10 24 10 16 0
32 -6 35 -12 5 -10 7 -10 12 0 3 6 15 12 26 12 48 0 6 11 -60 15 -66 4 -71 3
-69 -15z"/>
<path d="M580 505 c-38 -9 -46 -13 -25 -13 17 0 48 5 70 13 50 16 27 16 -45 0z"/>
<path d="M701 511 c-9 -6 2 -10 34 -13 26 -2 49 0 51 4 3 5 -6 8 -20 8 -13 0
-30 2 -38 5 -7 3 -19 1 -27 -4z"/>
<path d="M860 511 c0 -5 -7 -8 -16 -7 -9 0 -19 -4 -21 -9 -3 -11 83 -12 94 -1
4 3 -1 6 -10 6 -9 0 -17 5 -17 10 0 6 -7 10 -15 10 -8 0 -15 -4 -15 -9z"/>
<path d="M1880 510 c0 -5 5 -10 10 -10 6 0 10 5 10 10 0 6 -4 10 -10 10 -5 0
-10 -4 -10 -10z"/>
<path d="M262 498 c5 -15 28 -23 28 -10 0 5 -7 13 -16 16 -10 4 -14 1 -12 -6z"/>
<path d="M448 498 c5 -5 16 -8 23 -6 8 3 3 7 -10 11 -17 4 -21 3 -13 -5z"/>
<path d="M940 490 c0 -5 23 -10 51 -10 31 0 48 4 44 10 -3 6 -26 10 -51 10
-24 0 -44 -4 -44 -10z"/>
<path d="M1358 493 c7 -3 16 -2 19 1 4 3 -2 6 -13 5 -11 0 -14 -3 -6 -6z"/>
<path d="M1428 493 c12 -2 30 -2 40 0 9 3 -1 5 -23 4 -22 0 -30 -2 -17 -4z"/>
<path d="M568 483 c-21 -2 -38 -9 -38 -15 0 -6 12 -8 31 -4 17 3 47 6 65 6 19
0 34 5 34 10 0 10 -19 10 -92 3z"/>
<path d="M1203 483 c-80 -3 -93 -6 -98 -23 -3 -11 -12 -17 -20 -14 -7 3 -16 1
-20 -5 -3 -6 2 -11 12 -12 10 0 30 -3 46 -5 15 -3 27 0 27 6 0 5 -10 10 -22
11 -45 1 45 27 102 29 30 1 69 6 85 10 26 7 26 8 5 7 -14 -1 -66 -3 -117 -4z"/>
<path d="M1690 480 c-12 -8 -10 -10 8 -10 13 0 20 4 17 10 -7 12 -6 12 -25 0z"/>
<path d="M1770 481 c0 -5 -10 -12 -22 -14 -14 -3 -9 -5 15 -6 27 -1 37 3 37
14 0 8 -7 15 -15 15 -8 0 -15 -4 -15 -9z"/>
<path d="M718 473 c7 -3 16 -2 19 1 4 3 -2 6 -13 5 -11 0 -14 -3 -6 -6z"/>
<path d="M115 450 c3 -5 11 -10 16 -10 6 0 7 5 4 10 -3 6 -11 10 -16 10 -6 0
-7 -4 -4 -10z"/>
<path d="M176 448 c7 -11 132 -10 139 2 4 6 -22 9 -69 8 -41 -1 -73 -5 -70
-10z"/>
<path d="M810 450 c-21 -7 -19 -8 18 -9 23 -1 42 4 42 9 0 12 -24 12 -60 0z"/>
<path d="M1200 450 c13 -8 12 -10 -2 -10 -10 0 -18 -4 -18 -8 0 -5 62 -9 138
-10 82 0 129 3 117 8 -19 8 -19 9 3 9 13 1 20 5 17 11 -9 14 -55 12 -55 -3 0
-8 -14 -11 -47 -8 -37 3 -43 6 -28 12 19 7 19 8 -2 8 -13 1 -23 -3 -23 -9 0
-5 -16 -10 -35 -10 -19 0 -35 5 -35 10 0 6 -10 10 -22 10 -19 0 -20 -2 -8 -10z"/>
<path d="M1848 453 c18 -2 45 -2 60 0 15 2 0 4 -33 4 -33 0 -45 -2 -27 -4z"/>
<path d="M1675 440 c-3 -5 -1 -10 4 -10 6 0 11 5 11 10 0 6 -2 10 -4 10 -3 0
-8 -4 -11 -10z"/>
<path d="M541 436 c8 -8 98 -10 105 -3 4 4 -19 7 -51 7 -32 0 -56 -2 -54 -4z"/>
<path d="M950 419 c-20 -17 -21 -20 -5 -14 11 4 28 10 37 12 10 3 15 9 12 14
-8 13 -16 11 -44 -12z"/>
<path d="M1803 433 c15 -2 37 -2 50 0 12 2 0 4 -28 4 -27 0 -38 -2 -22 -4z"/>
<path d="M190 420 c0 -5 7 -10 15 -10 8 0 15 5 15 10 0 6 -7 10 -15 10 -8 0
-15 -4 -15 -10z"/>
<path d="M690 420 c10 -6 -10 -10 -65 -13 -44 -1 -17 -3 60 -3 77 0 123 1 102
3 -20 2 -35 8 -32 14 4 5 -13 9 -37 9 -31 0 -39 -3 -28 -10z"/>
<path d="M858 423 c12 -2 30 -2 40 0 9 3 -1 5 -23 4 -22 0 -30 -2 -17 -4z"/>
<path d="M1930 420 c0 -5 4 -10 9 -10 6 0 13 5 16 10 3 6 -1 10 -9 10 -9 0
-16 -4 -16 -10z"/>
<path d="M1550 408 c0 -11 82 -10 100 2 9 6 -5 8 -43 7 -31 -1 -57 -5 -57 -9z"/>
<path d="M380 399 c0 -5 21 -9 47 -9 25 0 44 2 42 4 -10 8 -89 13 -89 5z"/>
<path d="M1070 400 c-12 -8 -11 -10 8 -10 12 0 22 5 22 10 0 13 -11 13 -30 0z"/>
<path d="M1403 403 c15 -2 37 -2 50 0 12 2 0 4 -28 4 -27 0 -38 -2 -22 -4z"/>
<path d="M1775 400 c-3 -5 3 -10 14 -10 12 0 21 5 21 10 0 6 -6 10 -14 10 -8
0 -18 -4 -21 -10z"/>
<path d="M135 380 c-4 -6 7 -10 24 -10 17 0 31 5 31 10 0 6 -11 10 -24 10 -14
0 -28 -4 -31 -10z"/>
<path d="M238 383 c6 -2 18 -2 25 0 6 3 1 5 -13 5 -14 0 -19 -2 -12 -5z"/>
<path d="M335 380 c3 -5 13 -10 21 -10 8 0 14 5 14 10 0 6 -9 10 -21 10 -11 0
-17 -4 -14 -10z"/>
<path d="M785 380 c-34 -6 -30 -7 30 -8 39 0 90 3 115 7 41 8 38 8 -30 8 -41
0 -93 -3 -115 -7z"/>
<path d="M1820 380 c0 -5 7 -10 15 -10 8 0 15 5 15 10 0 6 -7 10 -15 10 -8 0
-15 -4 -15 -10z"/>
<path d="M86 371 c-3 -5 1 -11 9 -15 8 -3 15 -1 15 4 0 13 -18 22 -24 11z"/>
<path d="M1545 370 c27 -12 35 -12 35 0 0 6 -12 10 -27 9 -25 0 -26 -1 -8 -9z"/>
<path d="M423 363 c9 -2 25 -2 35 0 9 3 1 5 -18 5 -19 0 -27 -2 -17 -5z"/>
<path d="M1748 363 c6 -2 18 -2 25 0 6 3 1 5 -13 5 -14 0 -19 -2 -12 -5z"/>
<path d="M549 349 c16 -6 28 -6 35 1 7 7 -1 10 -24 9 -33 0 -34 -1 -11 -10z"/>
<path d="M650 350 c0 -5 9 -10 21 -10 11 0 17 5 14 10 -3 6 -13 10 -21 10 -8
0 -14 -4 -14 -10z"/>
<path d="M878 353 c18 -2 45 -2 60 0 15 2 0 4 -33 4 -33 0 -45 -2 -27 -4z"/>
<path d="M1695 350 c-3 -5 -1 -10 4 -10 6 0 11 5 11 10 0 6 -2 10 -4 10 -3 0
-8 -4 -11 -10z"/>
<path d="M1818 343 c12 -2 32 -2 45 0 12 2 2 4 -23 4 -25 0 -35 -2 -22 -4z"/>
<path d="M1140 886 c0 -2 7 -6 15 -10 8 -3 15 -1 15 4 0 6 -7 10 -15 10 -8 0
-15 -2 -15 -4z"/>
<path d="M1240 876 c0 -9 5 -16 10 -16 6 0 10 4 10 9 0 6 -4 13 -10 16 -5 3
-10 -1 -10 -9z"/>
<path d="M1270 874 c0 -8 5 -12 10 -9 6 3 10 10 10 16 0 5 -4 9 -10 9 -5 0
-10 -7 -10 -16z"/>
<path d="M1195 859 c-10 -30 -2 -32 12 -3 6 13 7 24 3 24 -5 0 -12 -9 -15 -21z"/>
<path d="M1339 256 c0 -1 -2 -10 -3 -21 -4 -25 -36 -107 -48 -119 -13 -16 -9
-26 10 -26 13 0 21 11 28 38 7 31 14 38 38 40 31 4 46 -10 46 -45 0 -13 3 -23
8 -24 4 0 15 -2 24 -4 24 -4 32 12 15 29 -7 8 -22 39 -31 70 -10 31 -21 57
-24 58 -9 2 -62 5 -63 4z m48 -42 c7 -18 -17 -38 -30 -25 -9 9 1 41 14 41 5 0
12 -7 16 -16z"/>
<path d="M1516 248 c-10 -30 -11 -158 -1 -158 20 0 38 17 26 24 -12 8 -15 66
-3 66 4 0 16 -13 25 -30 20 -33 55 -56 67 -43 4 4 10 41 12 81 l4 72 -31 0
c-27 -1 -28 -2 -13 -14 13 -10 16 -22 11 -50 l-6 -37 -31 48 c-33 49 -53 63
-60 41z"/>
<path d="M1707 242 c-23 -26 -22 -87 2 -111 29 -29 88 -38 109 -17 16 16 15
17 -11 11 -56 -14 -103 44 -73 90 19 28 55 34 52 9 -2 -23 20 -29 28 -7 3 10
9 24 12 31 10 21 -99 16 -119 -6z"/>
<path d="M1868 181 l3 -79 55 2 c35 2 61 9 72 20 9 9 11 16 5 16 -7 0 -15 -4
-18 -10 -3 -5 -22 -10 -41 -10 -31 0 -34 2 -34 31 0 26 3 31 20 26 15 -4 20 0
20 14 0 12 -5 16 -15 13 -20 -8 -35 4 -28 21 6 18 50 20 55 3 5 -15 28 -1 28
18 0 11 -15 14 -62 14 l-63 0 3 -79z"/>
<path d="M975 244 c-6 -3 -9 -35 -7 -79 l4 -75 43 0 c47 0 75 7 75 20 0 4 -20
5 -45 2 -41 -4 -45 -3 -45 17 0 18 4 21 20 16 17 -5 20 -2 20 21 0 22 -3 25
-12 16 -20 -20 -30 -14 -26 15 4 33 36 43 55 18 12 -17 13 -17 19 -1 4 9 3 20
-1 24 -7 7 -83 12 -100 6z"/>
<path d="M1125 170 l0 -80 28 0 c27 0 36 13 17 25 -5 3 -10 17 -10 31 0 17 5
24 20 24 11 0 20 -6 20 -14 0 -16 38 -66 51 -66 5 0 9 7 9 15 0 8 -4 15 -8 15
-5 0 -14 11 -20 24 -9 19 -8 27 4 37 8 7 14 24 12 38 -3 24 -7 26 -63 29 l-60
3 0 -81z m103 41 c-2 -10 -15 -17 -36 -19 -35 -4 -37 0 -22 27 12 24 63 17 58
-8z"/>
<path d="M565 160 c0 -74 1 -80 21 -80 19 0 20 5 17 58 l-4 57 18 -27 c24 -38
45 -35 71 10 l22 37 0 -57 c0 -31 -4 -60 -10 -63 -20 -12 -9 -21 21 -17 21 3
29 9 25 19 -3 8 -6 44 -6 79 0 57 -2 64 -20 64 -12 0 -26 -12 -36 -32 -9 -18
-18 -35 -20 -37 -3 -3 -19 12 -38 32 -52 57 -61 50 -61 -43z"/>
<path d="M788 228 c7 -7 12 -37 12 -68 0 -31 -5 -61 -12 -68 -9 -9 -4 -12 24
-12 l36 0 -5 39 c-5 37 -4 39 31 45 42 8 64 39 45 62 -8 9 -32 14 -77 14 -51
0 -63 -3 -54 -12z m91 -11 c13 -16 5 -27 -21 -27 -18 0 -25 20 -11 33 10 10
19 8 32 -6z"/>
<path d="M180 210 c0 -11 5 -20 10 -20 6 0 10 5 10 11 0 6 10 9 23 7 20 -3 22
-8 22 -63 0 -49 3 -61 18 -68 26 -10 39 0 27 23 -11 21 -13 70 -4 94 7 19 30
21 37 4 3 -10 7 -10 17 -1 24 22 -1 33 -81 33 -72 0 -79 -2 -79 -20z"/>
<path d="M377 153 l1 -78 58 3 c52 2 73 12 74 35 0 10 -28 9 -32 -2 -1 -5 -14
-11 -28 -13 -21 -2 -26 2 -28 25 -2 15 1 27 7 27 6 0 11 -5 11 -11 0 -5 4 -8
9 -4 6 3 8 15 6 27 -5 24 -15 37 -15 20 0 -7 -4 -12 -10 -12 -5 0 -10 10 -10
21 0 20 4 21 45 16 32 -3 45 -1 42 7 -2 6 -31 12 -68 14 l-64 3 2 -78z"/>
<path d="M2042 119 c2 -6 8 -10 13 -10 5 0 11 4 13 10 2 6 -4 11 -13 11 -9 0
-15 -5 -13 -11z"/>
</g>
</svg>
