<?xml version="1.0" standalone="no"?>
<!DOCTYPE svg PUBLIC "-//W3C//DTD SVG 20010904//EN"
 "http://www.w3.org/TR/2001/REC-SVG-20010904/DTD/svg10.dtd">
<svg version="1.0" xmlns="http://www.w3.org/2000/svg"
 width="222.000000pt" height="387.000000pt" viewBox="0 0 222.000000 387.000000"
 preserveAspectRatio="xMidYMid meet">
<metadata>
Created by potrace 1.16, written by Peter Selinger 2001-2019
</metadata>
<g transform="translate(0.000000,387.000000) scale(0.100000,-0.100000)"
fill="#000000" stroke="none">
<path d="M14 3864 c-9 -4 -11 -149 -7 -547 9 -1158 11 -2363 4 -2812 -4 -259
-4 -473 -1 -478 4 -4 495 -10 1092 -14 l1086 -6 6 29 c3 16 5 677 4 1469 -1
792 2 1645 6 1895 l7 455 -943 0 c-519 0 -1010 4 -1093 7 -82 4 -155 5 -161 2z
m1196 -63 c0 -6 -6 -11 -13 -11 -11 0 -47 -58 -47 -75 0 -3 11 -5 24 -5 14 0
27 -4 30 -9 7 -11 -247 -22 -259 -10 -5 6 -5 9 2 9 6 0 18 12 28 26 16 24 16
27 -1 45 -9 10 -23 19 -31 19 -8 0 -12 3 -9 8 7 12 276 15 276 3z m-976 -47
c9 -3 16 -13 16 -21 0 -12 -3 -13 -15 -3 -36 30 -55 -41 -29 -115 26 -78 62
-122 128 -155 44 -22 62 -27 72 -19 17 14 56 8 62 -11 5 -13 3 -13 -11 -2 -46
38 -47 -57 -2 -155 14 -30 25 -57 25 -58 0 -2 -10 -5 -23 -9 -12 -3 -33 -15
-46 -27 -23 -21 -23 -21 -43 -2 -31 31 -39 87 -20 133 10 22 20 40 25 40 12 0
8 -29 -8 -60 -9 -16 -11 -31 -6 -35 5 -3 12 4 16 15 10 31 21 24 34 -22 11
-35 15 -39 23 -25 7 13 4 30 -11 61 -12 23 -21 59 -21 79 0 27 -5 39 -17 43
-10 3 -26 10 -35 15 -10 5 -26 9 -36 9 -41 0 -109 92 -142 193 -11 35 -15 38
-39 32 -29 -8 -35 -9 -73 -7 -16 1 -28 9 -30 20 -3 14 9 19 67 29 38 7 71 17
73 23 5 14 32 40 42 40 5 0 15 -3 24 -6z m1860 -35 c15 -12 35 -19 46 -16 11
3 21 -1 24 -10 3 -8 6 -197 6 -419 0 -390 -1 -406 -20 -426 -11 -12 -22 -38
-26 -57 -13 -82 -20 -78 -48 30 -15 57 -43 154 -61 214 -49 160 -48 157 -35
165 9 5 6 27 -10 86 -24 86 -46 123 -37 64 2 -19 9 -50 15 -67 6 -18 9 -33 6
-33 -7 0 -36 74 -43 109 -5 27 -12 36 -34 42 -20 5 -27 4 -27 -6 0 -8 6 -18
13 -22 6 -4 27 -53 44 -108 89 -276 153 -483 168 -547 4 -14 15 -28 24 -31 12
-3 21 -19 26 -48 11 -58 7 -91 -12 -106 -28 -22 -38 -14 -15 10 47 50 15 119
-75 163 -96 48 -227 38 -286 -21 -14 -13 -19 -9 -46 38 -17 28 -56 83 -86 122
-58 74 -66 95 -37 95 11 0 47 14 81 31 46 23 66 40 80 67 10 21 28 46 40 56
12 11 21 25 21 32 0 18 -67 -47 -74 -73 -9 -29 -138 -105 -173 -101 -43 5 -37
23 17 47 137 62 236 181 261 315 11 62 0 131 -21 131 -8 0 -14 -6 -13 -12 2
-7 -2 -13 -7 -13 -5 0 -10 9 -10 20 0 15 7 20 24 20 14 0 28 -5 32 -11 16 -26
128 17 176 68 39 41 78 121 78 159 0 36 -17 55 -31 33 -10 -17 -23 -5 -16 16
9 21 29 19 61 -6z m-1769 -19 c3 -5 1 -10 -4 -10 -6 0 -11 5 -11 10 0 6 2 10
4 10 3 0 8 -4 11 -10z m632 -29 c22 -16 59 -39 82 -51 l42 -21 86 45 c95 51
103 54 101 29 -4 -51 17 -78 24 -31 4 28 34 36 41 11 4 -16 6 -15 12 5 4 12
14 22 22 22 9 0 13 -6 9 -15 -3 -8 -1 -15 3 -15 5 0 11 7 15 15 3 8 17 15 32
15 22 0 25 -2 14 -15 -8 -9 -9 -15 -2 -15 6 0 14 5 17 10 3 6 15 10 25 10 14
0 18 -5 13 -17 -5 -15 -3 -16 8 -5 7 6 21 12 32 12 14 0 17 -5 12 -21 -6 -19
-5 -20 15 -9 19 10 26 8 46 -11 22 -21 23 -25 10 -35 -22 -15 -20 -21 5 -20
12 1 24 -5 26 -11 3 -8 -3 -13 -14 -13 -11 0 -24 -5 -30 -11 -16 -16 -36 -1
-30 22 3 11 1 19 -4 19 -5 0 -9 -5 -9 -11 0 -5 -5 -7 -11 -3 -6 3 -8 16 -5 28
4 19 4 19 -7 4 -20 -25 -79 -10 -88 22 -7 24 -7 24 -8 3 -1 -17 -7 -23 -23
-23 -35 0 -123 -45 -142 -71 -15 -22 -15 -24 12 -46 l27 -22 -55 -2 c-30 -1
-62 -1 -70 0 -13 2 -13 1 0 -8 8 -6 27 -11 43 -11 32 0 35 -15 7 -30 -16 -9
-28 -7 -52 4 -39 20 -51 11 -20 -14 13 -11 22 -22 20 -27 -2 -4 9 -12 24 -17
28 -10 88 8 88 26 0 7 -5 7 -12 1 -17 -12 -78 -16 -78 -4 0 5 11 11 25 13 14
3 25 1 25 -5 0 -5 6 -4 14 2 8 6 18 10 23 9 4 -2 26 5 48 14 57 24 119 49 125
49 3 1 10 5 16 10 8 6 14 4 17 -5 4 -9 -1 -17 -13 -21 -10 -3 -24 -12 -31 -21
-10 -12 -9 -13 7 -8 18 5 18 5 0 -10 -11 -9 -30 -14 -45 -11 -22 5 -23 4 -6
-4 11 -5 14 -10 7 -10 -8 -1 -12 -7 -9 -13 2 -7 -10 -19 -27 -26 -28 -12 -29
-14 -14 -26 16 -12 16 -14 -8 -25 -30 -13 -42 -8 -26 12 6 7 7 18 3 26 -11 17
-41 -12 -41 -40 0 -18 -3 -26 -31 -81 -9 -17 -9 -23 0 -26 9 -3 7 -10 -5 -23
-13 -14 -14 -19 -3 -19 7 0 -7 -18 -31 -40 -25 -22 -40 -40 -33 -40 6 0 18 6
25 13 7 6 21 18 30 25 14 12 16 11 11 -8 -3 -11 -15 -27 -26 -35 -14 -10 -16
-15 -7 -15 10 0 11 -3 3 -11 -6 -6 -9 -18 -6 -25 3 -8 0 -21 -6 -28 -8 -10 -9
-16 -1 -21 14 -8 13 -65 -1 -65 -7 0 -9 10 -4 28 6 26 5 26 -11 10 -15 -15
-16 -21 -5 -44 11 -26 12 -26 31 -9 18 16 20 16 20 2 0 -9 -9 -22 -21 -30 -16
-12 -19 -21 -14 -50 6 -31 3 -37 -25 -57 -25 -18 -30 -27 -26 -46 4 -13 2 -24
-3 -24 -5 0 -11 16 -13 36 -3 30 0 38 24 55 31 23 34 45 16 114 -10 37 -10 50
1 66 10 18 10 24 -5 40 -9 10 -25 19 -35 19 -24 0 -49 10 -49 21 0 5 9 9 20 9
24 0 26 13 4 31 -14 11 -18 11 -29 -4 -8 -12 -15 -14 -20 -8 -8 14 -45 14 -45
1 0 -20 5 -25 23 -22 30 6 18 -18 -13 -25 -28 -5 -60 -35 -60 -55 0 -17 38 -6
60 17 46 49 122 17 127 -52 1 -15 5 -52 9 -80 4 -35 3 -53 -4 -53 -6 0 -13 6
-15 13 -4 7 -6 6 -6 -4 -1 -9 -8 -22 -16 -29 -8 -6 -13 -24 -11 -38 2 -15 1
-19 -1 -9 -2 9 -9 15 -14 12 -12 -8 -11 2 2 28 7 11 13 35 14 52 5 94 6 101
15 80 7 -16 9 -13 9 16 1 42 -22 67 -60 67 -31 -1 -49 -30 -49 -81 0 -24 -3
-28 -10 -17 -5 8 -7 24 -4 35 3 12 2 15 -3 9 -4 -6 -18 -14 -30 -18 -21 -7
-23 -4 -23 29 0 21 9 49 21 66 23 32 16 38 -14 12 -19 -17 -20 -17 -8 5 10 18
9 22 -4 22 -8 0 -15 5 -15 10 0 6 -7 10 -15 10 -8 0 -15 4 -15 9 0 5 -9 13
-20 16 -11 3 -20 10 -20 15 0 14 56 -9 76 -31 9 -10 24 -19 33 -19 10 0 4 10
-17 30 -18 17 -41 30 -51 30 -9 0 -26 7 -37 15 -18 14 -16 15 21 10 41 -5 40
-4 -27 25 -17 7 -12 8 22 3 25 -3 49 -9 55 -14 15 -14 61 -10 75 6 19 22 8 49
-25 58 -17 5 -43 15 -58 23 -46 23 -55 16 -14 -11 20 -14 37 -32 37 -40 0 -8
7 -15 15 -15 8 0 15 7 15 16 0 8 5 12 10 9 16 -10 12 -32 -7 -39 -10 -4 -28 1
-44 13 -15 11 -29 16 -31 10 -2 -6 -18 -5 -42 4 -31 10 -36 15 -22 20 10 4 27
2 38 -4 27 -15 45 3 22 22 -13 10 -18 11 -21 2 -7 -21 -34 -2 -63 44 -16 24
-30 39 -32 32 -2 -7 -12 -9 -27 -4 -18 6 -21 9 -10 16 11 7 11 9 1 9 -7 0 -10
5 -6 11 3 6 0 16 -7 21 -10 7 -8 8 9 5 12 -3 20 -1 16 4 -3 5 -14 9 -24 9 -21
0 -38 20 -18 21 7 0 3 5 -9 11 -13 6 -23 15 -23 20 0 5 10 4 21 -3 16 -8 20
-8 14 1 -4 6 -18 15 -32 21 -14 5 -21 14 -17 20 5 8 8 8 13 0 4 -6 16 -10 27
-9 20 3 158 -64 169 -81 7 -12 92 12 109 30 8 9 6 10 -9 4 -31 -13 -88 -11
-92 2 -4 10 2 11 19 4 23 -9 78 13 78 31 0 12 -10 9 -27 -7 -19 -20 -48 -15
-47 8 1 13 -6 17 -37 17 -49 0 -55 12 -18 34 16 9 27 22 24 27 -4 5 1 16 9 25
9 8 16 21 16 27 0 7 -5 4 -11 -5 -11 -20 -54 -24 -64 -7 -4 5 1 19 11 30 9 10
12 19 7 19 -6 0 -14 -7 -17 -15 -4 -12 -10 -14 -25 -5 -11 5 -38 10 -60 10
-32 0 -41 4 -42 18 0 13 -2 12 -9 -5 -11 -28 -18 -29 -37 -5 -13 16 -14 15 -8
-5 8 -31 -13 -39 -39 -14 -12 12 -28 21 -35 21 -11 0 -11 3 -1 15 9 11 17 12
31 4 13 -6 19 -6 19 1 0 5 -6 10 -12 10 -8 1 -5 6 6 15 13 10 25 11 43 4 33
-12 39 -11 25 3 -17 17 -15 25 8 31 11 3 20 2 20 -3 0 -4 9 -10 21 -13 15 -4
19 -2 15 9 -9 23 33 17 55 -8 l20 -23 -6 23 c-4 12 -3 22 0 22 14 0 45 -22 41
-28 -3 -5 -1 -14 5 -22 7 -13 9 -12 9 3 0 9 5 17 10 17 7 0 7 6 0 19 -21 41
-7 41 47 2z m-787 -117 c36 -79 98 -144 136 -144 10 0 27 -7 36 -14 17 -12 17
-15 0 -54 -16 -39 -32 -55 -32 -32 0 15 -51 61 -61 54 -4 -2 -6 -11 -2 -19 7
-19 -11 -19 -27 0 -7 8 -16 15 -21 15 -16 0 -20 -40 -5 -67 8 -16 17 -47 21
-68 l6 -40 -20 39 c-11 21 -25 44 -32 52 -16 20 -39 17 -39 -4 0 -10 -5 -23
-11 -29 -15 -15 71 -184 121 -235 43 -45 50 -67 56 -195 4 -82 2 -93 -12 -93
-24 0 -115 -54 -145 -87 -49 -53 -66 -140 -26 -137 9 1 17 -4 17 -12 0 -17
-32 -18 -48 -2 -7 7 -12 34 -12 60 0 26 -9 71 -20 100 -19 50 -20 77 -20 521
l0 467 53 0 52 -1 35 -75z m461 -1 c19 -22 -5 -42 -31 -25 -11 6 -27 12 -35
12 -12 0 -13 4 -6 19 12 21 53 18 72 -6z m1036 -38 c7 -20 5 -21 -34 -30 -26
-5 -33 -3 -33 9 0 30 56 48 67 21z m-1072 -5 c14 -22 -3 -36 -38 -32 -28 3
-34 7 -30 23 6 21 57 27 68 9z m1089 -45 c4 -11 -3 -19 -20 -25 -35 -14 -54
-12 -54 3 0 34 62 52 74 22z m-1106 -16 c2 -10 -6 -18 -20 -21 -13 -3 -31 -9
-40 -13 -13 -5 -15 -2 -11 17 4 13 11 26 17 31 18 12 51 3 54 -14z m1112 -50
c0 -14 -7 -19 -25 -19 -14 0 -28 0 -32 0 -20 0 -5 35 17 40 31 8 40 4 40 -21z
m-1114 -5 c-3 -9 -6 -19 -6 -24 0 -4 -8 -10 -17 -14 -10 -3 -24 -9 -30 -12
-17 -7 -17 38 -1 54 7 7 23 12 36 12 18 0 23 -4 18 -16z m1102 -52 c3 -19 -1
-22 -27 -22 -35 0 -42 22 -13 39 23 14 36 9 40 -17z m-1383 -41 c13 -27 29
-67 34 -89 8 -38 6 -42 -27 -76 -27 -29 -37 -34 -49 -25 -19 16 -25 6 -14 -22
5 -13 10 -20 10 -15 1 5 12 -1 26 -14 20 -19 25 -20 25 -7 0 9 -4 19 -10 22
-15 10 -12 25 8 32 9 4 20 11 23 16 4 5 9 5 13 -2 4 -6 3 -11 -2 -11 -11 0 -3
-48 9 -56 5 -3 9 11 9 31 0 25 5 38 18 42 9 4 33 19 52 35 38 31 62 38 38 11
-9 -10 -23 -40 -33 -68 -9 -27 -20 -52 -25 -55 -4 -3 -10 -18 -11 -35 -2 -16
-8 -34 -14 -38 -6 -6 -6 -10 3 -14 6 -2 9 -9 6 -15 -3 -5 4 -12 16 -15 14 -4
18 -8 10 -13 -9 -5 -7 -16 5 -41 10 -19 23 -37 29 -41 6 -4 7 -10 3 -14 -8 -8
32 -84 45 -84 4 0 5 -7 2 -15 -4 -8 -2 -15 3 -15 5 0 10 -12 11 -27 1 -15 7
-30 13 -34 7 -4 8 -12 4 -19 -6 -9 -4 -11 5 -5 9 6 10 2 5 -15 -6 -19 -4 -22
9 -17 14 6 15 3 6 -13 -8 -15 -8 -20 1 -20 8 0 8 -4 -1 -15 -10 -12 -10 -15 4
-15 8 0 18 11 22 25 7 28 -3 111 -17 136 -5 10 -3 24 7 37 8 12 12 27 9 32 -4
6 -2 17 5 25 6 7 12 29 13 48 1 19 5 33 10 30 4 -2 7 5 7 15 0 11 7 23 16 26
9 3 14 13 11 21 -4 9 -1 12 7 9 8 -3 16 4 19 16 4 17 11 20 26 15 17 -5 20 -3
14 12 -6 16 -5 17 12 3 11 -9 16 -10 11 -2 -4 6 -3 12 3 12 5 0 12 -6 14 -12
3 -8 6 -6 6 4 1 11 6 15 16 12 8 -4 15 -1 15 6 0 9 4 9 17 -1 11 -10 14 -10 9
-1 -5 8 0 12 13 12 12 0 21 -6 22 -12 0 -10 2 -10 6 0 6 15 33 16 33 0 0 -6 3
-9 6 -5 4 3 13 0 20 -8 10 -10 12 -26 8 -53 -6 -38 15 -102 34 -102 4 0 12
-10 17 -22 6 -14 20 -24 36 -26 22 -3 25 -7 22 -30 l-4 -27 14 25 c12 21 12
28 0 41 -26 31 -12 39 17 9 17 -17 30 -35 30 -41 0 -6 4 -7 10 -4 6 4 4 17 -5
35 -17 32 -20 70 -6 70 5 0 11 -12 14 -27 3 -16 9 -40 12 -54 5 -18 1 -31 -10
-42 -21 -22 -35 -22 -35 1 -1 15 -2 15 -15 -2 -22 -29 -19 -40 23 -90 44 -54
62 -58 62 -14 0 29 1 30 18 15 28 -25 35 -21 29 18 -5 31 -2 38 24 57 24 18
29 29 29 62 0 25 4 36 8 28 5 -7 15 17 26 65 19 83 32 107 49 96 5 -3 16 2 24
12 13 18 13 18 13 -1 0 -16 2 -17 10 -4 9 13 12 13 23 -2 10 -12 17 -14 31 -6
13 7 21 7 26 -2 4 -6 10 -11 14 -11 17 2 24 0 43 -16 29 -26 73 -95 73 -114 0
-9 15 -29 34 -44 37 -30 96 -106 96 -125 0 -7 16 -30 35 -53 19 -22 35 -48 35
-58 0 -9 6 -19 13 -22 6 -3 23 -27 37 -53 13 -27 29 -52 34 -56 5 -3 11 -14
12 -24 2 -9 16 -44 33 -78 16 -34 32 -72 35 -86 2 -14 8 -43 13 -65 5 -22 8
-55 8 -72 -1 -18 3 -33 8 -33 5 0 4 -7 -3 -15 -10 -12 -10 -15 0 -15 7 0 10
-8 7 -20 -3 -11 0 -20 6 -20 7 0 5 -5 -3 -10 -12 -8 -13 -12 -2 -19 8 -4 13
-11 13 -15 -3 -20 1 -26 15 -26 20 0 42 -22 37 -38 -3 -6 2 -19 11 -27 12 -12
13 -22 5 -44 -7 -21 -7 -36 1 -51 17 -31 6 -35 -17 -6 -11 14 -36 33 -56 42
-33 16 -36 16 -52 0 -13 -12 -16 -26 -11 -49 l6 -32 -19 24 c-16 21 -18 39
-16 128 2 84 0 106 -12 110 -8 3 -12 12 -9 19 3 8 1 14 -5 14 -6 0 -7 5 -4 10
3 6 1 10 -5 10 -7 0 -9 7 -6 17 4 10 4 14 0 11 -9 -10 -34 18 -39 43 -2 11
-17 33 -34 47 -16 15 -36 41 -44 57 -21 44 -47 139 -47 174 0 19 -6 34 -16 38
-8 3 -13 12 -9 21 4 12 3 13 -10 2 -12 -10 -16 -9 -21 4 -3 9 -3 23 0 32 3 8
2 12 -4 9 -6 -3 -10 -1 -10 6 0 7 -7 4 -15 -7 -17 -23 -20 -3 -4 29 9 19 8 19
-11 -3 l-22 -25 5 35 6 35 -15 -30 -15 -30 5 40 4 40 -14 -30 -15 -30 5 40 4
40 -14 -30 -15 -30 5 40 5 40 -15 -30 -15 -30 4 38 c3 36 -6 50 -16 25 -3 -7
-6 -1 -6 14 -1 15 -8 31 -18 36 -15 9 -14 14 9 53 32 56 43 89 28 89 -6 0 -14
-10 -19 -22 -5 -13 -18 -31 -29 -41 -12 -11 -23 -37 -27 -65 -12 -86 -3 -80
-125 -78 -83 2 -110 -1 -110 -10 0 -9 19 -13 65 -13 36 0 85 -3 110 -6 38 -6
44 -10 41 -29 -2 -11 4 -29 12 -39 15 -16 14 -17 -4 -12 -19 7 -19 6 0 -9 11
-9 15 -16 9 -16 -9 0 -10 -16 -4 -37 1 -2 1 -6 2 -10 0 -5 4 -12 8 -18 4 -5 9
-27 10 -48 1 -31 -2 -40 -18 -44 -17 -4 -19 -9 -10 -24 7 -15 6 -19 -5 -19 -8
0 -17 -9 -21 -19 -4 -13 -11 -18 -22 -14 -12 5 -15 2 -10 -9 4 -11 -1 -18 -14
-21 -12 -3 -22 0 -26 9 -3 8 -10 14 -15 14 -6 0 -5 -6 2 -15 10 -11 9 -18 -4
-30 -14 -15 -16 -15 -16 -1 0 9 -7 16 -15 16 -8 0 -15 -4 -15 -10 0 -5 5 -10
10 -10 20 0 9 -18 -14 -22 -18 -4 -28 1 -37 19 -19 36 -26 28 -23 -28 1 -35
-1 -49 -9 -46 -7 2 -11 13 -10 25 2 15 -2 19 -17 15 -23 -6 -24 -7 -8 -33 10
-15 10 -22 0 -32 -9 -9 -12 -9 -13 3 -1 7 -5 3 -9 -11 -7 -22 -8 -21 -9 13 -1
26 -5 37 -14 34 -18 -6 -47 11 -47 28 0 24 -28 17 -33 -7 -4 -21 -4 -20 -6 3
-1 19 -9 30 -31 39 -16 7 -30 18 -30 24 0 6 -7 3 -14 -6 -12 -16 -14 -16 -33
5 -11 12 -18 28 -15 36 3 8 0 11 -7 7 -11 -7 -81 40 -81 55 0 5 3 8 8 6 4 -1
7 2 7 8 0 5 -5 9 -11 7 -14 -3 -13 150 1 160 6 5 5 8 -4 8 -11 0 -11 3 -1 15
7 8 9 15 5 15 -4 0 4 11 19 25 25 23 34 25 127 25 54 0 99 4 99 9 0 13 -30 22
-51 16 -11 -4 -19 -2 -19 5 0 6 -5 8 -11 4 -19 -11 -120 -13 -151 -2 -15 5
-28 17 -28 25 0 8 -5 11 -12 7 -8 -5 -9 2 -5 25 5 22 3 30 -4 25 -8 -4 -8 -1
0 14 7 14 7 22 1 24 -15 5 -15 95 -1 112 9 10 8 16 -4 26 -12 10 -15 10 -15
-3 0 -8 -8 -14 -17 -13 -11 1 -19 -10 -24 -32 -3 -18 -3 -35 2 -37 16 -11 45
-205 30 -203 -19 2 -22 -4 -10 -19 12 -15 12 -16 -5 -10 -15 6 -17 5 -7 -7 12
-14 5 -49 -8 -41 -4 2 -7 -6 -7 -18 1 -15 -4 -21 -14 -19 -12 3 -12 1 -3 -9
14 -14 -4 -62 -21 -52 -6 4 -6 1 1 -8 17 -21 -11 -44 -57 -45 -19 0 -66 -3
-103 -6 -49 -4 -65 -2 -58 5 17 17 13 31 -4 17 -19 -16 -32 -5 -17 13 14 16 6
28 -12 21 -8 -3 -20 9 -29 28 -14 28 -14 34 -1 41 21 12 17 26 -8 37 -14 5
-17 9 -8 10 13 0 13 1 0 10 -13 9 -13 11 0 20 13 9 13 10 0 10 -13 0 -13 1 0
10 12 8 12 10 -5 11 l-20 0 20 9 c13 6 15 9 5 9 -12 1 -12 3 -2 10 11 7 11 9
-2 14 -21 8 -20 27 2 28 15 1 14 2 -2 6 -15 4 -16 7 -5 14 12 7 12 9 -1 9 -13
0 -13 1 0 10 13 9 13 10 0 10 -13 0 -13 1 0 10 8 5 10 10 3 10 -6 0 -9 9 -6
21 4 12 0 25 -8 30 -8 5 -9 9 -3 9 6 0 11 7 11 15 0 8 -5 15 -11 16 -6 0 -2 4
9 9 17 7 17 9 3 9 -20 1 -25 36 -7 46 7 5 3 14 -10 26 -23 21 -27 39 -11 39
19 0 29 44 12 56 -11 8 -12 13 -4 18 7 4 12 1 12 -6 0 -9 3 -9 10 2 5 8 10 18
10 23 0 13 -28 7 -45 -9 -11 -12 -19 -13 -29 -5 -7 6 -16 9 -19 6 -4 -3 -5 -2
-2 1 4 6 -6 21 -55 80 -5 7 -6 15 -3 18 4 3 2 6 -4 6 -11 0 -66 100 -59 107 2
3 16 -16 31 -42 15 -25 30 -44 32 -41 3 3 -7 26 -21 51 -15 25 -26 53 -24 63
2 11 15 -3 37 -41 30 -53 35 -57 49 -43 12 12 13 21 5 38 -22 48 -42 118 -34
118 12 0 39 -43 47 -74 9 -38 29 -47 21 -10 -16 83 -19 104 -13 104 3 0 17
-22 31 -49z m283 16 c3 -21 -1 -27 -15 -27 -11 0 -24 -5 -31 -12 -9 -9 -12 -5
-12 20 0 52 52 69 58 19z m819 -3 c-3 -3 -12 -4 -19 -1 -8 3 -5 6 6 6 11 1 17
-2 13 -5z m273 -23 c0 -26 -13 -33 -43 -26 -36 9 -25 45 14 45 22 0 29 -5 29
-19z m-1086 -27 c8 -21 9 -20 -20 -39 -22 -14 -28 -15 -35 -4 -15 23 -10 39
14 49 31 12 34 12 41 -6z m779 -6 c-40 -10 -52 -27 -15 -21 21 4 24 2 12 -6
-13 -10 -13 -11 0 -12 8 0 2 -5 -13 -11 -33 -12 -53 1 -44 26 7 18 67 46 82
38 5 -3 -5 -10 -22 -14z m-535 -19 c2 -12 -4 -15 -28 -11 -16 2 -30 8 -30 11
0 26 53 26 58 0z m827 -18 c-13 -57 -56 -131 -76 -131 -27 0 -25 46 6 113 22
49 27 54 50 49 23 -4 26 -8 20 -31z m-1045 -38 c7 -21 16 -42 21 -47 5 -6 9
-23 9 -38 0 -57 -48 -20 -83 64 -15 35 -15 38 1 48 29 17 40 11 52 -27z m245
17 c3 -6 -1 -7 -9 -4 -18 7 -21 14 -7 14 6 0 13 -4 16 -10z m-341 -47 c23 -44
92 -109 138 -131 38 -17 40 -20 21 -26 -33 -10 -92 25 -141 83 -24 28 -50 51
-58 51 -17 0 -17 5 -4 31 15 26 27 24 44 -8z m811 8 c-3 -6 -11 -11 -17 -11
-6 0 -6 6 2 15 14 17 26 13 15 -4z m-826 -86 c35 -50 74 -80 114 -90 l26 -7
-31 -38 c-17 -22 -34 -58 -39 -84 -5 -25 -16 -57 -25 -72 l-17 -26 -13 24 c-7
12 -23 48 -35 78 -12 30 -28 70 -36 88 -8 18 -15 48 -15 65 0 33 22 107 33
107 3 0 20 -20 38 -45z m796 -25 c3 -5 1 -10 -4 -10 -6 0 -11 5 -11 10 0 6 2
10 4 10 3 0 8 -4 11 -10z m-5 -36 c0 -14 -3 -14 -15 -4 -8 7 -15 14 -15 16 0
2 7 4 15 4 8 0 15 -7 15 -16z m-21 -31 c0 -25 -1 -25 -8 -8 -5 11 -7 23 -4 28
8 14 13 7 12 -20z m-9 -76 c0 -16 -4 -26 -10 -22 -5 3 -10 23 -10 43 0 28 3
33 10 22 5 -8 10 -28 10 -43z m-310 11 c0 -13 3 -34 6 -48 5 -24 5 -24 -10 -6
-18 22 -22 76 -6 76 6 0 10 -10 10 -22z m134 -7 c3 -5 -1 -14 -9 -21 -13 -10
-15 -9 -15 9 0 21 14 28 24 12z m32 -38 c-11 -11 -19 6 -11 24 8 17 8 17 12 0
3 -10 2 -21 -1 -24z m-121 -49 c2 -34 1 -35 -11 -19 -15 20 -18 47 -7 58 10
11 15 0 18 -39z m102 -146 c13 -12 23 -32 23 -45 0 -23 -1 -22 -30 10 -45 51
-39 79 7 35z m510 -220 c-3 -8 -6 -5 -6 6 -1 11 2 17 5 13 3 -3 4 -12 1 -19z
m363 -100 c0 -7 3 -23 6 -35 5 -18 2 -23 -12 -24 -15 -1 -16 -2 -3 -6 11 -2
18 -19 22 -46 3 -23 12 -82 21 -132 8 -49 13 -91 11 -93 -8 -8 -24 9 -24 26
-4 88 -7 122 -13 122 -3 0 -5 8 -4 18 2 9 0 19 -3 22 -4 3 -16 31 -28 62 -20
56 -20 57 -1 47 17 -9 19 -8 16 13 -2 19 -8 23 -33 21 -25 -2 -27 -1 -10 7 29
13 55 12 55 -2z m-1324 -41 c4 -4 16 -7 26 -7 10 0 21 -7 24 -15 4 -8 13 -15
21 -15 9 0 13 -6 9 -15 -3 -9 0 -15 9 -15 8 0 15 -4 15 -10 0 -16 -8 -12 -51
27 -34 31 -49 37 -96 41 -40 3 -54 2 -49 -7 4 -6 11 -11 16 -11 5 0 22 -12 38
-27 17 -16 43 -38 59 -51 15 -13 22 -21 16 -17 -19 9 -16 -4 5 -23 10 -10 13
-14 7 -10 -7 4 -14 5 -17 3 -3 -3 -20 11 -39 32 -18 21 -35 38 -38 38 -3 0
-12 4 -19 9 -7 4 -16 5 -20 2 -3 -4 15 -26 41 -49 26 -23 47 -49 47 -57 0 -9
7 -25 15 -36 8 -12 11 -25 7 -30 -4 -5 0 -3 9 4 14 10 17 9 22 -8 3 -11 1 -18
-4 -14 -5 3 -9 -1 -9 -8 0 -7 -11 0 -24 17 -13 16 -22 33 -20 37 9 14 -36 29
-54 18 -12 -8 -13 -10 -2 -8 8 2 16 -2 18 -7 1 -6 -10 -12 -25 -13 -15 -2 -31
-9 -35 -15 -5 -8 -13 -6 -26 6 -10 9 -23 17 -29 17 -6 0 -16 7 -23 15 -16 19
-1 19 39 -1 18 -9 35 -14 38 -10 9 9 -40 56 -59 56 -10 0 -18 5 -18 10 0 17
22 11 56 -15 35 -27 54 -32 54 -14 0 6 7 9 15 6 8 -4 17 -1 21 5 8 12 -40 58
-60 58 -21 0 -81 33 -69 37 7 3 21 -1 32 -7 17 -9 21 -8 21 5 0 15 -13 19 -62
15 -42 -2 -34 16 16 36 28 12 40 21 33 26 -7 5 16 7 50 5 34 -2 66 -6 69 -10z
m1002 -31 c22 -20 62 -86 62 -103 0 -4 -8 4 -18 19 l-18 28 2 -63 c1 -34 0
-48 -2 -32 -10 62 -25 105 -35 100 -5 -4 -6 -17 -3 -31 6 -25 -10 -35 -19 -11
-4 8 -12 4 -26 -13 -18 -21 -22 -23 -31 -10 -15 23 -12 29 15 36 29 7 71 59
55 69 -15 9 -30 -4 -30 -26 0 -10 -6 -19 -12 -19 -29 -1 -59 -39 -58 -72 1
-18 -1 -43 -5 -55 -4 -14 -3 -23 3 -23 5 0 13 11 16 25 6 24 64 70 75 59 3 -2
-10 -18 -27 -34 -19 -17 -32 -39 -32 -53 0 -14 -7 -27 -15 -31 -9 -3 -15 0
-15 10 0 22 -19 7 -32 -24 -9 -22 -12 -24 -15 -9 -5 21 -8 21 -38 1 -22 -14
-26 -14 -51 2 l-27 18 7 -38 c4 -23 4 -36 -2 -32 -12 7 -22 55 -15 72 4 10 10
10 28 -2 33 -22 52 -8 23 17 -18 15 -19 18 -4 13 16 -6 17 -3 11 24 -4 19 -3
32 3 32 5 0 12 -18 16 -40 3 -22 8 -40 10 -40 16 0 36 14 36 26 0 8 5 14 10
14 6 0 10 10 10 23 -1 20 -2 20 -11 5 -28 -49 -47 7 -20 59 15 29 19 32 18 16
-1 -13 -5 -23 -9 -23 -4 0 -8 -12 -7 -27 l0 -28 11 25 c5 14 12 36 14 50 6 30
22 50 40 50 15 0 29 18 21 27 -8 8 -74 -35 -93 -60 -12 -16 -15 -17 -11 -4 4
9 2 17 -3 17 -14 0 -28 -31 -23 -51 4 -13 0 -19 -11 -19 -9 0 -16 8 -16 20 0
26 27 80 40 80 6 0 10 7 10 15 0 13 13 20 23 13 2 -2 11 5 21 15 22 21 32 22
40 1 5 -14 9 -13 33 4 30 22 44 19 81 -12z m-974 -27 c15 -12 25 -23 23 -26
-5 -4 -77 36 -77 43 0 11 30 2 54 -17z m141 -19 c3 -5 1 -10 -4 -10 -6 0 -11
5 -11 10 0 6 2 10 4 10 3 0 8 -4 11 -10z m-287 -47 c14 -11 28 -26 30 -34 4
-10 0 -9 -15 4 -11 9 -41 24 -66 33 -26 9 -49 19 -52 24 -9 14 77 -8 103 -27z
m-118 23 c0 -3 -4 -8 -10 -11 -5 -3 -10 -1 -10 4 0 6 5 11 10 11 6 0 10 -2 10
-4z m970 -22 c0 -8 -5 -12 -10 -9 -6 4 -8 11 -5 16 9 14 15 11 15 -7z m-937
-25 c-1 -54 -3 -69 -10 -69 -5 0 -8 23 -8 50 0 28 4 49 9 47 6 -2 10 -14 9
-28z m307 15 c0 -8 14 -33 32 -55 17 -21 29 -41 26 -44 -3 -3 -13 6 -22 20
-10 15 -26 35 -37 46 -20 20 -26 49 -9 49 6 0 10 -7 10 -16z m52 -11 c23 -21
26 -52 2 -33 -18 16 -38 50 -28 50 4 0 16 -7 26 -17z m578 -30 c0 -22 -2 -25
-10 -13 -13 20 -13 40 0 40 6 0 10 -12 10 -27z m-456 -33 c3 -17 9 -43 12 -60
6 -29 -2 -68 -12 -58 -2 3 -9 34 -15 69 -5 35 -12 73 -16 84 -5 17 -4 18 9 7
9 -7 19 -26 22 -42z m276 11 c0 -21 -13 -4 -17 22 -2 17 -1 19 7 7 5 -8 10
-21 10 -29z m140 7 c0 -23 -3 -29 -11 -21 -6 6 -8 20 -4 32 9 30 15 26 15 -11z
m-118 -10 c-7 -7 -12 -8 -12 -2 0 14 12 26 19 19 2 -3 -1 -11 -7 -17z m-352
-30 c0 -17 -3 -28 -7 -25 -9 10 -10 66 0 60 4 -2 7 -18 7 -35z m450 9 c0 -5
-4 -5 -10 -2 -5 3 -10 14 -10 23 0 15 2 15 10 2 5 -8 10 -19 10 -23z m-16 -57
c-8 -7 -34 31 -34 49 0 10 8 4 20 -14 10 -16 17 -32 14 -35z m-679 13 c8 -10
24 -28 35 -40 11 -13 20 -30 20 -39 0 -11 -11 -4 -29 20 -16 20 -33 36 -38 36
-4 -1 -9 4 -12 11 -2 7 2 9 10 5 8 -4 5 0 -5 8 -11 9 -14 16 -8 16 7 0 19 -8
27 -17z m382 -3 c1 -11 -2 -20 -8 -20 -10 0 -12 23 -2 33 9 9 9 10 10 -13z
m581 -42 c-8 -17 -19 -22 -76 -33 -29 -6 -31 -9 -20 -23 10 -12 10 -16 1 -19
-7 -3 -13 -9 -13 -14 0 -6 5 -7 11 -3 7 4 9 0 5 -14 -4 -12 -2 -32 4 -44 11
-22 11 -22 -10 1 -12 14 -20 36 -19 50 1 14 -2 34 -6 44 -15 34 2 49 48 43 23
-3 36 -3 29 0 -16 7 3 34 24 34 8 0 14 10 15 23 1 21 1 21 8 -3 5 -14 4 -33
-1 -42z m-1158 20 c0 -12 -14 -10 -28 4 -19 19 -14 29 8 16 11 -7 20 -16 20
-20z m137 26 c-3 -3 -12 -4 -19 -1 -8 3 -5 6 6 6 11 1 17 -2 13 -5z m593 -19
c0 -8 -2 -15 -4 -15 -2 0 -12 -3 -21 -6 -15 -6 -15 -4 -4 15 16 25 29 27 29 6z
m44 0 c-4 -8 -8 -15 -10 -15 -2 0 -4 7 -4 15 0 8 4 15 10 15 5 0 7 -7 4 -15z
m-367 -17 c-3 -8 -6 -5 -6 6 -1 11 2 17 5 13 3 -3 4 -12 1 -19z m253 15 c-1
-13 -37 -53 -48 -53 -11 0 -21 30 -15 48 5 13 63 17 63 5z m-199 -32 c-10 -6
-12 -19 -7 -45 6 -31 4 -36 -12 -36 -10 0 -23 5 -29 11 -14 14 -6 39 12 39 7
0 16 14 20 31 5 23 10 28 18 20 9 -9 8 -14 -2 -20z m787 -4 c2 -15 7 -27 12
-27 5 0 7 6 4 14 -4 11 0 13 15 9 30 -8 22 -41 -22 -84 -44 -46 -51 -48 -44
-14 2 14 2 23 -1 20 -3 -2 -11 0 -18 6 -10 8 -19 6 -36 -6 l-23 -16 30 3 c16
2 30 -1 30 -7 0 -5 5 -18 11 -28 10 -17 12 -16 37 7 16 15 28 20 31 13 2 -7 5
-1 5 13 1 19 7 26 23 27 15 2 18 -1 10 -6 -7 -4 -14 -29 -15 -54 -1 -33 -6
-46 -14 -42 -7 2 -13 -3 -13 -12 0 -13 -2 -13 -16 -2 -15 12 -16 10 -11 -16 4
-17 7 -52 9 -80 2 -44 0 -50 -19 -53 -30 -4 -74 -57 -60 -71 6 -6 7 -11 2 -11
-16 0 -55 79 -43 86 6 4 7 20 4 38 -6 31 -6 31 9 9 21 -29 40 -31 24 -2 -9 17
-7 25 12 45 12 13 17 24 11 24 -6 0 -14 -4 -17 -10 -8 -13 -45 -13 -45 0 0 5
6 7 14 4 7 -3 16 3 20 12 8 20 8 19 -21 28 -16 5 -23 3 -23 -6 0 -10 -3 -9
-10 2 -5 8 -10 20 -10 25 0 6 5 3 10 -5 8 -12 10 -11 10 8 0 14 -8 26 -21 30
-19 7 -18 10 17 42 21 19 32 36 26 38 -18 6 -15 26 6 38 14 9 22 8 37 -2 10
-8 15 -17 10 -21 -4 -5 -10 -2 -12 5 -3 6 -9 10 -14 6 -15 -9 -10 -24 9 -24
10 0 24 -6 32 -12 12 -11 12 -10 1 5 -11 14 -11 17 1 17 10 0 13 10 10 36 -3
28 -1 35 9 32 8 -3 15 -17 17 -31z m-1050 -10 l23 -21 -21 -8 c-13 -5 -18 -13
-14 -19 4 -8 3 -9 -4 -5 -7 4 -19 3 -29 -2 -14 -9 -14 -10 6 -17 11 -3 19 -10
16 -15 -3 -4 8 -13 25 -18 16 -6 32 -7 35 -2 8 13 -11 21 -32 14 -16 -6 -16
-5 2 10 11 10 14 15 8 11 -17 -8 -16 3 0 20 8 7 19 10 27 5 10 -6 10 -9 -1
-13 -9 -3 -5 -6 7 -6 12 -1 25 6 28 15 6 15 8 15 32 -1 68 -45 131 -161 142
-264 4 -44 44 -180 59 -204 11 -17 11 -77 1 -77 -5 0 -7 4 -4 9 8 12 -42 63
-54 56 -6 -3 -10 -1 -10 4 0 6 5 11 10 11 18 0 10 29 -10 35 -11 3 -20 11 -20
17 0 5 -8 7 -17 4 -17 -6 -17 -5 0 8 21 16 22 26 2 26 -8 0 -14 5 -13 11 2 6
-6 16 -17 22 -10 7 -28 22 -38 35 -11 13 -26 21 -33 18 -8 -3 -13 0 -11 7 1 7
-4 11 -12 9 -12 -3 -12 0 -1 12 13 16 10 18 -25 20 -11 1 -19 7 -17 15 2 8 -3
11 -12 8 -10 -4 -13 -1 -9 9 3 7 14 14 24 14 10 0 19 4 19 8 0 15 -64 10 -84
-7 -18 -15 -19 -15 -13 3 6 14 3 17 -8 12 -8 -3 -15 -1 -15 5 0 7 10 9 23 5
17 -4 30 1 45 19 13 15 28 22 37 19 8 -4 15 -1 15 4 0 6 14 9 32 7 30 -4 31
-4 15 13 -14 14 -21 15 -37 4 -17 -10 -21 -10 -26 3 -4 8 -13 15 -20 15 -11 0
-12 -4 -5 -19 12 -22 -9 -37 -27 -19 -7 7 -19 4 -38 -7 -26 -16 -27 -16 -9 0
11 9 26 20 33 24 9 5 10 14 4 30 l-8 22 -18 -20 c-11 -12 -24 -21 -29 -21 -6
0 -1 9 11 20 28 27 28 34 0 16 -22 -14 -23 -14 -24 9 -1 14 2 25 8 25 5 0 6
-4 3 -10 -7 -12 -3 -12 19 -4 15 6 15 8 -1 21 -12 10 -14 16 -6 19 7 3 11 11
9 17 -1 7 -1 9 1 5 8 -14 33 -8 33 8 0 8 -16 22 -35 30 -19 8 -35 16 -35 19 0
12 68 -10 88 -28z m177 -34 c-3 -12 -1 -25 5 -28 5 -3 10 -14 10 -23 0 -15 -1
-15 -16 0 -9 9 -18 28 -20 42 -2 14 -6 38 -8 53 l-4 26 19 -24 c11 -14 17 -33
14 -46z m485 29 c0 -21 -2 -24 -10 -12 -13 20 -13 53 0 45 6 -3 10 -18 10 -33z
m159 1 c-10 -20 -24 -40 -31 -45 -9 -5 -6 -8 9 -8 16 0 24 -8 29 -27 4 -16 13
-40 20 -54 8 -16 9 -30 3 -40 -7 -11 -9 -11 -9 4 0 16 -19 25 -21 10 -7 -44
-6 -63 2 -68 5 -4 6 2 2 12 -6 16 -5 17 11 3 11 -8 14 -16 7 -18 -6 -2 -9 -7
-7 -11 7 -10 -36 -8 -54 3 -8 5 -12 6 -8 2 4 -5 3 -19 -2 -32 -6 -15 -5 -26 2
-30 7 -5 8 -3 3 6 -5 9 -4 11 4 6 13 -8 8 -20 -21 -52 -13 -14 -16 -24 -9 -29
20 -12 11 -22 -19 -20 -16 1 -27 -2 -24 -7 3 -5 0 -9 -7 -7 -27 3 -40 -1 -34
-11 8 -13 -19 -52 -31 -42 -4 4 -2 -1 5 -10 7 -10 10 -18 6 -18 -4 0 -2 -7 5
-15 9 -11 9 -15 1 -15 -7 0 -9 -4 -6 -10 3 -5 -3 -10 -14 -10 -19 0 -26 -10
-22 -32 0 -5 -4 -8 -11 -8 -6 0 -3 -7 8 -16 15 -13 16 -15 2 -10 -11 3 -15 0
-12 -7 2 -7 -2 -21 -10 -32 -12 -17 -16 -18 -32 -5 -17 14 -18 13 -6 -1 18
-24 5 -51 -18 -39 -13 7 -25 4 -44 -11 l-26 -21 10 26 c5 14 8 26 6 26 -3 0
12 18 33 39 21 21 45 59 54 83 9 23 26 69 37 101 12 31 27 57 35 57 17 0 26
26 19 55 -3 13 0 33 6 45 9 16 9 25 1 33 -16 16 -13 63 5 78 15 12 16 11 9
-11 -7 -23 -6 -24 9 -11 10 9 15 23 12 34 -3 13 4 31 20 49 13 16 24 38 24 49
0 20 28 53 69 81 15 10 27 18 27 18 1 0 -7 -17 -17 -37z m-1003 0 c-10 -10
-19 5 -10 18 6 11 8 11 12 0 2 -7 1 -15 -2 -18z m781 5 c-3 -8 -6 -5 -6 6 -1
11 2 17 5 13 3 -3 4 -12 1 -19z m793 -1 c0 -13 5 -28 12 -35 6 -6 9 -15 5 -19
-11 -10 -24 8 -30 45 -4 18 -2 32 3 32 6 0 10 -10 10 -23z m-1649 -36 c11 6
32 8 45 5 15 -4 24 -2 24 6 0 6 6 4 13 -6 18 -25 50 -17 57 14 5 22 7 23 13 7
18 -48 2 -76 -34 -57 -26 15 -69 5 -69 -16 0 -14 2 -14 16 0 17 18 44 21 44 6
0 -5 -7 -10 -16 -10 -14 0 -14 -3 -4 -15 9 -10 9 -15 1 -15 -6 0 -11 -9 -11
-21 0 -11 -7 -27 -15 -35 -16 -16 -10 -45 9 -38 6 2 13 16 14 31 1 14 14 36
28 48 15 13 23 28 20 34 -4 6 -3 11 2 11 28 0 21 -60 -7 -60 -14 -1 -14 -2 2
-14 18 -14 7 -33 -12 -22 -5 3 -14 -8 -20 -25 -10 -28 -14 -31 -41 -25 -19 3
-29 2 -25 -4 3 -6 12 -10 19 -10 7 0 22 -14 35 -31 12 -17 29 -28 36 -26 7 3
28 -7 46 -23 29 -24 32 -31 22 -48 -7 -11 -8 -24 -2 -33 13 -21 11 -36 -7 -53
-22 -23 -41 -20 -71 10 -14 14 -27 23 -29 21 -10 -10 20 -57 40 -63 30 -10 36
-22 36 -82 0 -29 9 -87 21 -130 28 -107 24 -160 -46 -557 -14 -77 -28 -165
-31 -196 -6 -52 -5 -57 21 -77 15 -12 36 -22 47 -22 11 0 18 -5 15 -12 -5 -15
-135 -12 -153 3 -7 6 -16 -1 -24 -19 -28 -55 -69 -86 -55 -41 6 18 5 19 -14 8
-11 -8 -23 -11 -26 -7 -7 7 15 58 25 58 4 0 15 16 25 36 14 30 16 52 11 123
-5 63 -3 99 9 136 8 28 14 68 14 90 -1 30 -4 21 -15 -40 -20 -109 -50 -169
-87 -173 -35 -4 -62 19 -77 64 -7 19 -18 34 -26 34 -9 0 -13 4 -10 9 4 5 -7
23 -24 39 -32 32 -40 58 -16 49 9 -4 17 2 21 14 8 24 25 15 26 -14 1 -17 2
-18 6 -4 2 9 8 17 13 17 4 0 6 -10 2 -22 -3 -14 -2 -19 6 -14 7 4 12 16 12 27
0 21 10 25 26 9 8 -8 15 -6 24 5 17 21 30 19 30 -4 0 -11 5 -21 12 -23 6 -2
-8 -23 -31 -47 -35 -36 -41 -47 -36 -71 8 -38 35 -47 57 -19 27 33 50 123 48
187 -3 77 -2 84 12 76 8 -5 9 -2 4 12 -67 174 -80 298 -39 377 19 37 13 124
-11 177 l-16 35 7 -40 c12 -66 8 -124 -16 -255 -26 -137 -42 -180 -69 -180
-23 0 -42 -19 -42 -42 0 -10 -4 -18 -8 -18 -14 0 -1 57 18 77 27 30 29 46 35
238 8 325 15 353 85 388 26 14 30 13 46 -4 9 -10 25 -19 36 -19 10 0 19 -8 19
-17 1 -17 2 -17 6 0 5 21 12 21 37 2 19 -15 19 -15 -5 -15 -22 -1 -23 -1 -5
-12 10 -6 38 -12 61 -14 33 -2 47 1 61 17 18 20 18 21 0 34 -16 12 -22 12 -43
-2 -22 -15 -27 -14 -71 7 -52 26 -78 56 -74 83 2 9 -2 17 -7 17 -6 0 -11 7
-11 16 0 8 5 12 10 9 17 -11 11 6 -14 36 -19 22 -25 25 -30 13 -3 -8 -2 -12 3
-9 5 3 12 1 15 -4 3 -5 -1 -12 -9 -15 -23 -9 -28 15 -11 56 8 19 12 38 9 42
-4 3 -1 6 6 6 8 0 6 8 -5 25 -11 16 -14 34 -9 52 l6 26 20 -32 c17 -28 22 -30
40 -20z m710 8 c-5 -13 -10 -19 -10 -12 -1 15 10 45 15 40 3 -2 0 -15 -5 -28z
m254 -24 c1 -24 -2 -42 -7 -39 -4 3 -8 12 -8 20 0 8 -4 14 -10 14 -5 0 -10 -5
-10 -11 0 -6 -6 -9 -13 -6 -10 4 -13 -2 -10 -21 2 -15 -3 -7 -12 18 -19 57
-19 57 5 35 15 -14 23 -15 33 -6 8 6 17 7 21 3 4 -4 4 7 0 23 -4 17 -3 26 2
22 4 -4 9 -28 9 -52z m-384 9 c-5 -16 -10 -21 -10 -12 -1 18 10 51 15 45 2 -1
-1 -16 -5 -33z m166 4 c-3 -7 -5 -2 -5 12 0 14 2 19 5 13 2 -7 2 -19 0 -25z
m105 -118 c-2 -3 -7 0 -9 7 -2 7 -17 31 -33 55 -17 24 -30 54 -30 67 0 16 12
0 39 -50 21 -41 36 -76 33 -79z m318 124 c0 -8 5 -12 10 -9 14 9 13 -8 -2 -23
-9 -9 -14 -7 -24 6 -18 23 -17 42 1 42 8 0 15 -7 15 -16z m-490 -18 c0 -21 45
-126 55 -126 2 0 1 10 -2 23 -4 18 -3 19 6 7 20 -28 13 -78 -14 -96 -14 -9
-30 -12 -37 -8 -9 6 -6 10 11 14 14 3 27 12 29 19 3 8 0 11 -6 7 -6 -4 -8 2
-5 15 4 12 -3 32 -16 49 -11 16 -21 36 -21 45 0 9 -4 14 -9 11 -5 -3 -14 1
-21 9 -8 9 -8 15 -2 15 6 0 13 -6 15 -12 3 -8 6 -7 6 4 1 9 -3 20 -9 23 -15 9
-12 25 5 25 9 0 15 -9 15 -24z m58 -48 c19 -22 9 -24 -12 -2 -9 8 -16 23 -15
32 0 14 2 14 6 2 3 -8 12 -23 21 -32z m-185 1 c3 -13 1 -19 -6 -16 -15 5 -22
37 -9 37 5 0 12 -9 15 -21z m-33 0 c0 -6 -4 -7 -10 -4 -19 12 -10 -12 14 -34
13 -13 27 -32 29 -43 5 -18 3 -18 -21 5 -15 15 -32 39 -38 55 -9 24 -8 28 8
29 10 1 18 -3 18 -8z m97 -4 c-7 20 -7 20 8 1 8 -11 15 -26 15 -34 0 -7 4 -11
9 -7 21 12 18 -12 -5 -40 l-25 -30 12 28 c11 25 10 30 -22 65 -19 20 -23 28
-10 17 24 -20 24 -20 18 0z m1078 5 c3 -5 1 -10 -4 -10 -6 0 -11 5 -11 10 0 6
2 10 4 10 3 0 8 -4 11 -10z m-226 -106 c6 -37 10 -68 7 -71 -2 -2 -13 1 -24 8
-15 9 -21 27 -25 73 -3 34 -8 70 -13 81 -7 19 -5 18 18 -3 18 -16 28 -41 37
-88z m-669 76 c8 -15 7 -25 -3 -41 -13 -17 -15 -18 -21 -4 -8 23 -8 27 4 20 6
-3 10 -2 10 4 0 5 -4 13 -10 16 -5 3 -10 10 -10 16 0 16 19 10 30 -11z m-210
-20 c0 -5 -5 -10 -11 -10 -6 0 -8 -7 -5 -16 3 -8 2 -12 -4 -9 -16 10 -12 45 5
45 8 0 15 -4 15 -10z m-380 -14 c0 -2 -7 -7 -16 -10 -8 -3 -12 -2 -9 4 6 10
25 14 25 6z m610 -26 c0 -36 -22 -71 -41 -65 -9 3 -20 1 -24 -5 -3 -5 -16 -15
-28 -22 -15 -7 -10 1 13 24 45 45 60 65 60 78 0 5 5 10 10 10 6 0 10 -9 10
-20z m-140 -10 c0 -5 -5 -10 -11 -10 -5 0 -7 5 -4 10 3 6 8 10 11 10 2 0 4 -4
4 -10z m960 -55 c12 -19 19 -39 15 -45 -3 -5 0 -10 7 -10 18 -1 -10 -16 -45
-24 -32 -8 -33 8 -2 37 20 18 20 18 -5 12 -21 -5 -22 -4 -7 5 13 9 15 15 7 30
-24 45 2 41 30 -5z m-1518 1 c4 -17 1 -23 -9 -19 -14 6 -18 43 -4 43 5 0 11
-11 13 -24z m418 -8 c0 -16 -3 -19 -11 -11 -6 6 -8 16 -5 22 11 17 16 13 16
-11z m88 -31 c9 -10 24 -16 33 -14 18 5 47 -8 38 -17 -10 -10 -71 13 -85 31
-7 10 -13 27 -13 38 l1 20 5 -20 c3 -11 12 -28 21 -38z m774 33 c28 0 94 -65
129 -128 17 -31 40 -67 51 -79 11 -12 21 -36 21 -54 2 -30 -4 -37 -69 -84
l-72 -50 3 -49 c2 -26 8 -53 14 -59 8 -8 10 5 6 48 -6 60 -6 60 28 82 31 19
36 20 50 6 34 -34 83 46 71 118 -3 23 -1 40 6 44 17 11 19 5 23 -71 3 -53 8
-70 20 -72 21 -4 50 53 43 83 -3 13 -2 26 3 29 9 6 21 -50 24 -116 1 -23 7
-38 15 -38 6 0 12 -8 12 -19 0 -10 3 -32 6 -49 5 -24 1 -35 -20 -53 -14 -12
-26 -28 -26 -34 0 -6 -14 -19 -31 -29 -26 -15 -44 -18 -103 -12 -62 5 -74 10
-98 36 -15 17 -32 30 -38 30 -13 0 -30 43 -30 75 0 13 -5 27 -11 30 -11 8 -6
-50 11 -120 17 -69 11 -166 -17 -290 -15 -66 -28 -122 -30 -125 -2 -2 -8 2
-13 10 -7 12 -9 11 -8 -5 1 -11 -2 -31 -7 -45 -7 -22 -6 -23 9 -11 14 12 16
10 16 -20 0 -19 -14 -83 -30 -142 -34 -120 -33 -127 26 -174 24 -19 34 -34 29
-42 -5 -9 -10 -10 -18 -2 -17 17 -31 13 -17 -4 19 -23 -13 -20 -34 4 -10 11
-29 22 -43 26 -25 6 -25 7 -18 63 4 31 9 95 11 142 1 47 5 137 8 200 3 64 0
150 -6 194 -9 67 -9 81 4 90 8 6 18 25 21 41 4 17 9 41 12 55 5 21 5 22 -5 8
-6 -10 -20 -18 -30 -18 -24 0 -28 -38 -5 -46 22 -9 18 -24 -5 -24 -16 0 -20 7
-20 38 0 21 -7 47 -16 58 -15 18 -15 18 -9 -6 4 -14 9 -38 12 -55 3 -16 11
-36 17 -44 7 -9 12 -73 13 -170 2 -86 3 -160 3 -166 1 -5 -3 -81 -9 -169 -9
-153 -10 -159 -37 -187 -33 -35 -61 -40 -44 -9 11 21 1 27 -17 9 -8 -8 -13 -8
-18 0 -6 11 8 26 64 69 26 20 25 32 -8 157 -6 22 -15 85 -21 140 -5 55 -20
148 -34 207 -19 78 -24 122 -20 160 10 92 5 251 -9 260 -18 12 -25 10 -31 -10
-6 -18 -88 -61 -157 -82 -26 -7 -38 -18 -41 -33 -4 -20 -1 -23 24 -19 20 3 33
-1 43 -14 19 -26 19 -88 -1 -105 -14 -11 -15 -8 -11 31 3 28 0 49 -9 57 -17
17 -23 6 -20 -40 1 -21 -2 -41 -6 -43 -8 -5 -12 10 -9 32 3 28 -25 59 -54 60
-38 1 -73 8 -80 16 -4 3 10 5 30 4 32 -1 34 0 18 12 -17 13 -17 14 2 29 19 15
19 15 -5 8 -25 -8 -25 -8 -6 14 11 11 28 21 38 21 26 0 50 14 90 51 18 17 42
34 54 39 18 7 23 22 33 97 6 49 11 105 11 123 0 45 33 80 76 80 36 0 44 -15
44 -92 0 -54 -9 -60 -39 -22 -12 15 -21 21 -21 15 0 -7 10 -22 23 -34 19 -18
21 -29 16 -62 -4 -26 -7 -31 -8 -15 -1 14 -6 32 -11 40 -6 10 -8 3 -3 -22 3
-22 0 -51 -7 -69 -11 -26 -11 -32 1 -40 27 -17 44 -5 44 32 0 20 5 42 11 50 7
8 19 31 27 51 11 25 24 39 41 44 14 3 26 9 26 13 0 4 11 13 24 19 14 6 26 22
29 41 4 17 12 31 19 31 17 0 38 46 27 59 -6 8 -5 8 3 1 7 -5 20 -10 30 -10z
m-1432 -9 c0 -5 -7 -11 -15 -15 -15 -5 -20 5 -8 17 9 10 23 9 23 -2z m706 -6
c10 -8 14 -15 8 -15 -5 0 -19 7 -30 15 -10 8 -14 15 -8 15 5 0 19 -7 30 -15z
m507 -5 c3 -11 1 -18 -4 -14 -5 3 -9 12 -9 20 0 20 7 17 13 -6z m167 0 c0 -5
-4 -10 -10 -10 -5 0 -10 5 -10 10 0 6 5 10 10 10 6 0 10 -4 10 -10z m-546 -15
c-4 -8 -11 -15 -16 -15 -6 0 -5 6 2 15 7 8 14 15 16 15 2 0 1 -7 -2 -15z
m-814 -15 c0 -5 -2 -10 -4 -10 -3 0 -8 5 -11 10 -3 6 -1 10 4 10 6 0 11 -4 11
-10z m754 -25 c-4 -8 -8 -15 -10 -15 -2 0 -4 7 -4 15 0 8 4 15 10 15 5 0 7 -7
4 -15z m38 -24 c2 -17 1 -28 -4 -25 -8 5 -12 54 -4 54 2 0 6 -13 8 -29z m891
23 c-9 -4 -9 -11 0 -31 9 -21 8 -26 -6 -34 -9 -6 -17 -17 -17 -24 0 -20 -10
-18 -40 5 -14 11 -19 20 -12 20 7 0 10 4 7 10 -4 6 7 8 27 5 18 -3 26 -2 18 2
-8 3 -20 12 -27 19 -10 10 -7 14 15 22 27 10 58 15 35 6z m131 -9 c-4 -8 -8
-15 -10 -15 -2 0 -4 7 -4 15 0 8 4 15 10 15 5 0 7 -7 4 -15z m-983 -48 c-8 -8
-11 -3 -11 19 1 25 2 27 11 11 8 -14 8 -22 0 -30z m469 33 c0 -5 -5 -10 -11
-10 -5 0 -7 5 -4 10 3 6 8 10 11 10 2 0 4 -4 4 -10z m-1130 -4 c0 -3 -4 -8
-10 -11 -5 -3 -10 -1 -10 4 0 6 5 11 10 11 6 0 10 -2 10 -4z m200 0 c0 -3 -4
-8 -10 -11 -5 -3 -10 -1 -10 4 0 6 5 11 10 11 6 0 10 -2 10 -4z m383 -11 c4
-8 2 -17 -3 -20 -6 -4 -10 3 -10 14 0 25 6 27 13 6z m-14 -73 c0 -14 -2 -13
-9 3 -4 12 -15 27 -24 34 -9 7 -16 19 -16 25 0 6 12 -2 25 -17 14 -15 25 -36
24 -45z m-39 -24 c0 -10 -4 -18 -10 -18 -5 0 -10 7 -10 16 0 9 -9 33 -21 53
l-21 36 31 -35 c17 -19 31 -43 31 -52z m-464 41 c11 -23 13 -34 5 -42 -6 -6
-11 -22 -10 -36 0 -24 1 -24 10 -6 7 15 8 10 3 -18 -3 -24 -1 -37 4 -33 14 8
20 52 10 69 -5 9 -4 18 2 22 5 3 10 -2 11 -12 1 -10 2 -33 4 -50 1 -18 -1 -33
-6 -33 -16 0 -29 -48 -23 -80 4 -16 10 -27 15 -24 11 7 12 41 1 46 -4 2 1 12
12 22 19 19 19 18 13 -7 -4 -14 0 -42 8 -63 14 -36 14 -37 0 -19 -23 29 -35 5
-35 -75 0 -47 5 -73 19 -95 30 -46 61 -81 61 -69 0 5 -5 15 -12 22 -8 8 -8 15
2 27 7 8 16 15 20 15 7 0 33 -48 34 -65 1 -5 20 -30 44 -55 23 -25 42 -48 42
-52 0 -12 -18 -10 -25 3 -4 6 -13 8 -21 5 -19 -7 -44 21 -44 48 0 29 -31 59
-38 38 -3 -10 -13 -6 -33 14 -32 30 -47 28 -29 -5 12 -23 -1 -29 -19 -7 -21
25 -41 111 -41 176 0 36 -7 87 -15 114 -27 88 -14 196 23 196 12 0 12 4 -2 25
-16 25 -20 35 -11 35 2 0 12 -14 21 -31z m404 -11 c11 -18 20 -42 19 -53 0
-12 -6 -5 -15 19 -8 21 -19 45 -25 52 -6 8 -9 14 -5 14 3 0 15 -15 26 -32z
m335 14 c-3 -3 -11 0 -18 7 -9 10 -8 11 6 5 10 -3 15 -9 12 -12z m775 -1 c0
-4 -9 -20 -21 -34 -15 -20 -19 -35 -14 -64 5 -35 4 -36 -6 -13 -15 32 -12 62
8 74 13 7 13 10 2 17 -11 7 -9 9 6 9 17 0 17 2 5 10 -13 8 -12 10 3 10 9 0 17
-4 17 -9z m-124 -20 c0 -15 -3 -17 -13 -9 -7 6 -10 14 -7 19 9 15 20 10 20
-10z m-646 -1 c0 -5 -2 -10 -4 -10 -3 0 -8 5 -11 10 -3 6 -1 10 4 10 6 0 11
-4 11 -10z m220 -5 c0 -8 -7 -15 -15 -15 -9 0 -12 6 -9 15 4 8 10 15 15 15 5
0 9 -7 9 -15z m-685 -45 c3 -6 -1 -7 -9 -4 -18 7 -21 14 -7 14 6 0 13 -4 16
-10z m655 -64 c0 -8 -7 -16 -15 -20 -13 -4 -14 -2 -5 14 13 23 20 26 20 6z
m-577 -53 c-7 -2 -19 -2 -25 0 -7 3 -2 5 12 5 14 0 19 -2 13 -5z m64 -23 c21
-16 23 -21 9 -26 -12 -5 -13 -10 -5 -26 9 -16 7 -20 -9 -25 -16 -4 -19 -10
-13 -31 10 -37 8 -92 -4 -92 -5 -1 -13 12 -18 29 -9 37 -47 63 -47 32 0 -11
-6 -22 -12 -24 -8 -3 -5 -6 5 -6 10 -1 15 -6 12 -11 -3 -6 -17 -7 -30 -4 -22
5 -23 4 -19 -38 2 -23 4 -87 4 -142 -1 -82 1 -98 13 -93 8 3 32 -1 53 -8 30
-10 40 -19 44 -41 6 -33 40 -54 87 -54 23 0 40 9 64 35 39 41 49 44 41 13 -15
-62 -71 -96 -137 -84 -46 9 -96 56 -88 85 5 21 -12 31 -19 10 -2 -6 -24 0 -56
17 -66 34 -76 45 -58 69 12 17 16 18 31 5 17 -14 17 -10 12 70 -8 101 -11 122
-20 137 -9 15 2 43 17 43 6 0 12 9 13 20 2 23 -7 26 -25 8 -10 -10 -17 -10
-32 0 -17 10 -24 9 -42 -8 -12 -11 -17 -20 -11 -20 6 0 11 -11 11 -25 0 -35
-21 -26 -32 13 -12 42 4 59 60 68 24 3 41 10 38 15 -3 5 5 5 18 1 17 -6 27 -4
40 9 9 9 14 20 11 23 -4 3 -1 6 6 6 7 0 9 5 6 10 -3 6 4 10 17 11 13 0 17 3 9
6 -11 5 -11 7 0 14 10 6 5 9 -16 10 -30 2 -30 2 5 9 19 4 37 8 38 9 2 0 15 -8
29 -19z m483 -50 c0 -19 -7 -33 -19 -39 -14 -8 -19 -21 -18 -46 1 -24 -6 -41
-21 -55 l-22 -21 0 26 c0 16 6 25 16 25 12 0 15 6 10 24 -3 14 -1 28 5 32 6 3
9 15 6 25 -3 11 0 19 8 19 17 0 27 27 12 34 -7 2 -4 5 6 5 12 1 17 -7 17 -29z
m-438 -5 c3 -14 1 -25 -3 -25 -5 0 -9 4 -9 9 0 5 -3 16 -6 25 -3 9 -2 16 4 16
5 0 12 -11 14 -25z m96 -20 c-3 -3 -9 2 -12 12 -6 14 -5 15 5 6 7 -7 10 -15 7
-18z m-485 -51 c16 -33 22 -64 13 -64 -2 0 -13 -3 -23 -6 -13 -4 -14 -3 -5 4
8 5 12 20 10 33 l-5 24 -11 -25 c-11 -22 -11 -20 -6 18 4 27 2 42 -5 42 -6 0
-11 4 -11 10 0 19 26 -2 43 -36z m402 -14 c3 -5 1 -10 -4 -10 -6 0 -11 5 -11
10 0 6 2 10 4 10 3 0 8 -4 11 -10z m137 -76 c-8 -19 -19 -34 -23 -34 -14 0
-14 45 0 56 10 8 -9 11 -75 13 -111 2 -125 11 -18 11 43 0 86 5 94 10 11 7 18
5 27 -6 9 -13 8 -23 -5 -50z m-234 -27 c2 -10 -3 -17 -12 -17 -9 0 -16 5 -16
11 0 5 6 7 13 3 7 -5 6 0 -3 11 -13 16 -13 18 0 13 8 -2 16 -12 18 -21z m445
-18 c-1 -18 -9 -38 -17 -45 -9 -6 -16 -20 -16 -32 0 -26 -10 -52 -20 -52 -4 0
-5 12 -2 28 4 26 4 27 -12 7 -17 -20 -17 -20 -6 2 5 12 15 25 20 28 6 3 10 18
11 33 0 15 3 21 6 15 8 -21 20 -15 25 12 3 14 1 25 -3 25 -5 0 -9 5 -9 11 0 6
6 9 13 6 7 -2 11 -18 10 -38z m-595 -7 c2 -7 -3 -12 -12 -12 -9 0 -16 7 -16
16 0 17 22 14 28 -4z m472 9 c0 -6 -4 -13 -10 -16 -5 -3 -10 1 -10 9 0 9 5 16
10 16 6 0 10 -4 10 -9z m707 -38 c-2 -27 -8 -57 -12 -68 -7 -20 -6 -20 9 -1
14 17 16 17 16 3 0 -9 -13 -31 -28 -49 -49 -57 -51 -87 -4 -62 26 13 27 13 30
-12 2 -17 -5 -33 -22 -49 -14 -13 -27 -30 -27 -37 -7 -79 -25 -113 -66 -129
-36 -13 -81 -2 -98 24 -17 28 -31 127 -18 127 6 0 14 -24 19 -52 7 -43 14 -55
37 -66 36 -17 64 -8 83 29 18 36 13 55 -26 104 -22 27 -30 49 -30 76 0 22 5
39 10 39 6 0 10 -7 10 -15 0 -8 7 -15 15 -15 17 0 20 25 5 35 -17 10 -11 61
10 86 l19 24 1 -27 c0 -15 4 -29 9 -32 11 -7 21 17 21 48 0 21 25 66 37 66 3
0 3 -21 0 -47z m-677 27 c0 -5 -5 -10 -11 -10 -5 0 -7 5 -4 10 3 6 8 10 11 10
2 0 4 -4 4 -10z m-353 -6 c-3 -3 -12 -4 -19 -1 -8 3 -5 6 6 6 11 1 17 -2 13
-5z m323 -55 c0 -17 -4 -28 -10 -24 -5 3 -10 17 -10 31 0 13 5 24 10 24 6 0
10 -14 10 -31z m-180 -24 c10 -12 6 -13 -24 -8 -22 3 -42 1 -51 -7 -18 -15
-20 1 -3 18 17 17 63 15 78 -3z m-15 -50 c0 -20 -6 -31 -17 -33 -15 -3 -18 4
-18 33 0 29 3 36 18 33 11 -2 17 -13 17 -33z m248 -16 c-7 -26 -41 -49 -74
-49 -15 0 -29 -7 -33 -15 -3 -8 -11 -15 -18 -14 -10 0 -10 2 0 6 6 2 10 9 6
14 -9 15 -46 10 -66 -8 -10 -9 -18 -13 -18 -10 0 16 47 47 71 47 15 0 31 5 34
10 4 6 11 8 16 4 5 -3 8 0 7 8 -2 7 3 12 10 10 21 -4 53 18 45 31 -5 8 -2 8 9
-1 9 -7 14 -21 11 -33z m-309 4 c-10 -7 -27 -20 -37 -29 -23 -19 -27 -16 -16
14 9 23 47 44 63 34 5 -3 0 -11 -10 -19z m131 -21 c-19 -4 -57 26 -49 39 3 5
19 -1 35 -14 24 -17 27 -23 14 -25z m-985 18 c0 -5 -2 -10 -4 -10 -3 0 -8 5
-11 10 -3 6 -1 10 4 10 6 0 11 -4 11 -10z m-25 -20 c3 -5 1 -10 -4 -10 -6 0
-11 5 -11 10 0 6 2 10 4 10 3 0 8 -4 11 -10z m45 0 c0 -5 -5 -10 -11 -10 -5 0
-7 5 -4 10 3 6 8 10 11 10 2 0 4 -4 4 -10z m906 -28 c-12 -12 -22 -14 -43 -6
-44 15 -40 33 6 27 31 -4 41 -2 42 8 0 12 2 12 6 1 3 -8 -2 -21 -11 -30z
m-896 -2 c0 -5 -5 -10 -11 -10 -5 0 -7 5 -4 10 3 6 8 10 11 10 2 0 4 -4 4 -10z
m-39 -23 c-13 -13 -26 -3 -16 12 3 6 11 8 17 5 6 -4 6 -10 -1 -17z m39 -17 c0
-5 -4 -10 -10 -10 -5 0 -10 5 -10 10 0 6 5 10 10 10 6 0 10 -4 10 -10z m40
-11 c0 -5 -7 -9 -15 -9 -15 0 -20 12 -9 23 8 8 24 -1 24 -14z m627 -46 c-2
-16 -4 -5 -4 22 0 28 2 40 4 28 2 -13 2 -35 0 -50z m-702 37 c3 -5 1 -10 -4
-10 -6 0 -11 5 -11 10 0 6 2 10 4 10 3 0 8 -4 11 -10z m1102 -47 c-3 -10 -5
-4 -5 12 0 17 2 24 5 18 2 -7 2 -21 0 -30z m0 -296 c-1 -45 -3 -5 -3 88 0 94
2 130 3 82 2 -48 2 -125 0 -170z m-402 73 c0 -66 -3 -120 -7 -120 -10 0 -11
224 -1 233 3 4 7 7 7 7 1 0 1 -54 1 -120z m1225 19 c0 -5 -8 -9 -17 -8 -11 0
-13 3 -5 6 6 2 9 10 6 15 -4 7 -2 8 4 4 7 -4 12 -11 12 -17z m-25 -58 c3 -5 1
-12 -5 -16 -6 -4 -8 -9 -6 -13 2 -4 0 -25 -4 -47 -7 -39 -8 -39 -9 -7 -1 34
-9 40 -29 20 -8 -8 -12 -8 -12 -1 0 6 7 13 15 17 8 3 12 12 9 21 -3 8 -1 15 6
15 6 0 8 5 5 10 -3 6 1 10 9 10 8 0 17 -4 21 -9z m-1823 -120 c4 -3 -19 -6
-50 -7 -55 -1 -56 -1 -27 12 28 12 61 10 77 -5z m458 -2 c0 -5 -13 -9 -29 -9
-40 0 -91 11 -87 19 6 9 116 0 116 -10z m130 5 c0 -2 -28 -3 -62 -3 -51 1 -56
3 -28 8 34 6 90 3 90 -5z m280 6 c-14 -4 -38 -8 -55 -9 -23 0 -26 2 -15 9 8 5
33 9 55 9 35 -1 37 -2 15 -9z m375 0 c7 -12 -2 -12 -30 0 -19 8 -19 9 2 9 12
1 25 -3 28 -9z m-995 -16 c0 -2 -18 -4 -41 -4 -22 0 -38 4 -35 8 5 8 76 4 76
-4z m1397 10 c-3 -3 -12 -4 -19 -1 -8 3 -5 6 6 6 11 1 17 -2 13 -5z m-1767
-14 c-8 -5 -35 -9 -60 -9 -37 1 -41 2 -20 9 38 12 99 12 80 0z m843 -4 c18
-14 17 -15 -4 -21 -12 -4 -56 -4 -98 1 -68 7 -72 9 -36 14 22 3 44 2 50 -2 13
-11 55 -10 55 1 0 5 -8 12 -17 14 -12 3 -10 5 7 6 14 0 33 -6 43 -13z m500 -3
c-7 -2 -19 -2 -25 0 -7 3 -2 5 12 5 14 0 19 -2 13 -5z m-1248 -12 c-16 -7 -13
-10 20 -13 22 -2 -17 -5 -87 -6 -75 -1 -128 2 -128 8 0 5 26 10 58 12 143 7
157 7 137 -1z m300 -1 c-16 -4 -39 -8 -50 -9 -16 -1 -17 1 -5 9 8 5 31 9 50 9
l35 -1 -30 -8z m548 3 c-13 -2 -35 -2 -50 0 -16 2 -5 4 22 4 28 0 40 -2 28 -4z
m332 -3 c7 -12 -12 -12 -40 0 -18 8 -17 9 7 9 15 1 30 -3 33 -9z m-972 -7 c-7
-2 -21 -2 -30 0 -10 3 -4 5 12 5 17 0 24 -2 18 -5z m230 0 c-7 -2 -19 -2 -25
0 -7 3 -2 5 12 5 14 0 19 -2 13 -5z m482 -14 c-55 -11 -107 -11 -125 1 -10 7
14 9 75 9 75 -1 83 -3 50 -10z m498 -6 c-7 -2 -21 -2 -30 0 -10 3 -4 5 12 5
17 0 24 -2 18 -5z m-598 -37 c539 -3 1011 -5 1049 -6 l69 0 -5 -120 c-3 -66
-7 -122 -9 -124 -4 -4 -1414 -9 -1871 -7 l-248 1 0 136 c0 124 1 135 18 130 9
-3 458 -8 997 -10z"/>
<path d="M998 3778 c9 -9 15 -9 24 0 9 9 7 12 -12 12 -19 0 -21 -3 -12 -12z"/>
<path d="M1047 3772 c-22 -24 -21 -39 2 -52 20 -10 61 -14 61 -6 0 6 -41 76
-44 76 -2 0 -10 -8 -19 -18z"/>
<path d="M1100 3785 c0 -11 24 -55 30 -55 7 0 20 34 20 53 0 4 -11 7 -25 7
-14 0 -25 -2 -25 -5z"/>
<path d="M1005 3720 c-3 -5 -1 -10 4 -10 6 0 11 5 11 10 0 6 -2 10 -4 10 -3 0
-8 -4 -11 -10z"/>
<path d="M2112 3648 c-7 -7 -12 -23 -12 -35 0 -30 -31 -90 -64 -125 -29 -31
-32 -38 -13 -38 18 0 107 137 107 166 0 13 5 24 10 24 6 0 10 5 10 10 0 14
-23 13 -38 -2z"/>
<path d="M1980 3430 c0 -5 -11 -10 -25 -10 -14 0 -25 -4 -25 -10 0 -14 43 -13
58 2 15 15 16 28 2 28 -5 0 -10 -4 -10 -10z"/>
<path d="M1850 3317 c0 -12 -9 -48 -20 -80 -23 -64 -26 -94 -6 -57 19 35 46
160 35 160 -5 0 -9 -10 -9 -23z"/>
<path d="M1168 3627 c-32 -18 -58 -35 -58 -39 0 -9 35 -28 61 -33 11 -2 17 0
14 4 -2 5 4 19 14 32 25 33 43 69 34 68 -4 0 -34 -15 -65 -32z"/>
<path d="M964 3601 c15 -28 28 -51 31 -51 2 0 18 8 35 18 l30 19 -52 29 c-29
16 -57 31 -61 33 -5 2 3 -20 17 -48z"/>
<path d="M771 3614 c0 -11 3 -14 6 -6 3 7 2 16 -1 19 -3 4 -6 -2 -5 -13z"/>
<path d="M1386 3615 c4 -8 10 -15 15 -15 4 0 6 7 3 15 -4 8 -10 15 -15 15 -4
0 -6 -7 -3 -15z"/>
<path d="M920 3610 c0 -5 5 -10 11 -10 5 0 7 5 4 10 -3 6 -8 10 -11 10 -2 0
-4 -4 -4 -10z"/>
<path d="M1330 3616 c0 -2 7 -9 15 -16 13 -11 14 -10 9 4 -5 14 -24 23 -24 12z"/>
<path d="M1485 3611 c-3 -5 -1 -12 5 -16 5 -3 10 1 10 9 0 18 -6 21 -15 7z"/>
<path d="M1285 3590 c-3 -5 1 -13 10 -16 22 -9 29 1 11 15 -10 8 -16 9 -21 1z"/>
<path d="M1033 3549 c-18 -12 -33 -28 -33 -37 0 -15 2 -15 10 -2 8 13 10 12
11 -5 1 -11 1 -23 0 -27 0 -5 26 -8 58 -8 56 0 59 1 66 27 5 23 1 32 -22 50
-35 28 -49 28 -90 2z"/>
<path d="M1240 3551 c0 -14 18 -23 31 -15 8 4 7 9 -2 15 -18 11 -29 11 -29 0z"/>
<path d="M1039 3434 c-15 -19 -13 -20 43 -26 36 -4 45 -2 41 8 -3 8 0 14 6 14
6 0 11 4 11 9 0 15 -87 11 -101 -5z"/>
<path d="M1060 3389 c-13 -9 -12 -10 3 -5 9 3 17 1 17 -4 0 -5 -8 -11 -17 -13
-10 -3 -3 -5 15 -6 34 -1 46 22 16 33 -19 7 -16 8 -34 -5z"/>
<path d="M795 3356 c9 -13 13 -31 9 -40 -4 -10 -1 -16 8 -16 8 0 22 -16 32
-36 9 -20 19 -34 22 -31 8 8 -55 135 -71 141 -13 5 -13 2 0 -18z"/>
<path d="M1130 3362 c0 -12 19 -26 26 -19 2 2 -2 10 -11 17 -9 8 -15 8 -15 2z"/>
<path d="M1017 3354 c-4 -4 -7 -14 -7 -23 0 -11 3 -12 11 -4 6 6 10 16 7 23
-2 6 -7 8 -11 4z"/>
<path d="M1111 3261 c-18 -24 -21 -38 -15 -68 9 -50 20 -63 55 -63 30 0 59 23
59 46 0 21 -14 17 -25 -8 -12 -28 -50 -36 -59 -12 -9 24 9 41 53 48 38 6 70
30 57 43 -3 4 -12 0 -19 -9 -6 -9 -33 -18 -59 -22 -40 -5 -48 -3 -48 11 0 9 7
25 17 35 9 10 14 21 11 24 -3 3 -16 -8 -27 -25z"/>
<path d="M990 3274 c0 -3 11 -15 25 -26 14 -11 25 -28 25 -39 0 -11 5 -17 10
-14 17 11 11 33 -17 60 -27 24 -43 31 -43 19z"/>
<path d="M1147 3183 c-12 -11 -8 -23 8 -23 8 0 15 7 15 15 0 16 -12 20 -23 8z"/>
<path d="M1100 3122 c0 -10 45 -32 65 -32 8 0 15 5 15 10 0 6 -11 10 -24 10
-14 0 -28 5 -31 10 -8 12 -25 13 -25 2z"/>
<path d="M990 3111 c-32 -6 -33 -8 -12 -15 12 -4 22 -11 22 -16 0 -4 6 -10 14
-13 9 -4 13 0 11 11 -1 9 2 23 8 30 5 6 6 11 1 11 -5 -1 -25 -5 -44 -8z"/>
<path d="M1114 3076 c23 -18 42 -21 51 -6 3 6 -3 10 -14 10 -10 0 -28 3 -38 6
-16 5 -16 4 1 -10z"/>
<path d="M1160 3011 c0 -5 7 -12 16 -15 24 -9 28 -7 14 9 -14 17 -30 20 -30 6z"/>
<path d="M330 2844 c0 -8 5 -12 10 -9 6 3 10 10 10 16 0 5 -4 9 -10 9 -5 0
-10 -7 -10 -16z"/>
<path d="M1247 2783 c-4 -3 -7 -11 -7 -17 0 -6 5 -5 12 2 6 6 9 14 7 17 -3 3
-9 2 -12 -2z"/>
<path d="M1337 2653 c-12 -11 -8 -23 8 -23 8 0 15 7 15 15 0 16 -12 20 -23 8z"/>
<path d="M790 2640 c0 -5 5 -10 10 -10 6 0 10 5 10 10 0 6 -4 10 -10 10 -5 0
-10 -4 -10 -10z"/>
<path d="M1140 2600 c0 -5 5 -10 10 -10 6 0 10 5 10 10 0 6 -4 10 -10 10 -5 0
-10 -4 -10 -10z"/>
<path d="M562 2511 c4 -13 18 -16 19 -4 0 4 -5 9 -11 12 -7 2 -11 -2 -8 -8z"/>
<path d="M378 2441 c8 -4 13 -12 12 -17 -1 -5 3 -10 9 -12 6 -2 11 0 11 5 0
12 -22 33 -34 33 -6 0 -5 -4 2 -9z"/>
<path d="M815 2290 c-3 -5 -1 -10 4 -10 6 0 11 5 11 10 0 6 -2 10 -4 10 -3 0
-8 -4 -11 -10z"/>
<path d="M1315 2260 c-3 -5 -1 -10 4 -10 6 0 11 5 11 10 0 6 -2 10 -4 10 -3 0
-8 -4 -11 -10z"/>
<path d="M1230 2250 c0 -5 5 -10 10 -10 6 0 10 5 10 10 0 6 -4 10 -10 10 -5 0
-10 -4 -10 -10z"/>
<path d="M885 2240 c-3 -5 1 -10 10 -10 9 0 13 5 10 10 -3 6 -8 10 -10 10 -2
0 -7 -4 -10 -10z"/>
<path d="M1066 2241 c-3 -5 4 -11 15 -14 12 -3 18 -10 14 -16 -3 -6 1 -11 10
-11 21 0 31 30 14 41 -18 11 -46 11 -53 0z"/>
<path d="M940 2220 c0 -5 5 -10 10 -10 6 0 10 5 10 10 0 6 -4 10 -10 10 -5 0
-10 -4 -10 -10z"/>
<path d="M1196 2221 c-4 -5 -2 -12 3 -15 5 -4 12 -2 15 3 4 5 2 12 -3 15 -5 4
-12 2 -15 -3z"/>
<path d="M1010 2199 c0 -5 5 -7 10 -4 6 3 10 8 10 11 0 2 -4 4 -10 4 -5 0 -10
-5 -10 -11z"/>
<path d="M1070 2140 c0 -5 5 -10 10 -10 6 0 10 5 10 10 0 6 -4 10 -10 10 -5 0
-10 -4 -10 -10z"/>
<path d="M2000 1843 c0 -4 7 -17 15 -27 17 -23 34 -13 19 11 -12 19 -34 29
-34 16z"/>
<path d="M1046 2021 c-4 -7 -5 -15 -2 -18 9 -9 19 4 14 18 -4 11 -6 11 -12 0z"/>
<path d="M1562 1878 c3 -7 13 -14 24 -16 14 -2 16 -1 5 6 -11 8 -11 10 0 15 8
3 4 6 -9 6 -15 1 -22 -4 -20 -11z"/>
<path d="M1680 1855 c-8 -9 -8 -15 -2 -15 12 0 26 19 19 26 -2 2 -10 -2 -17
-11z"/>
<path d="M707 1894 c-9 -9 14 -29 41 -36 28 -8 30 17 3 32 -22 11 -35 13 -44
4z"/>
<path d="M780 1810 c0 -11 7 -20 15 -20 13 0 14 4 5 20 -6 11 -13 20 -15 20
-3 0 -5 -9 -5 -20z"/>
<path d="M717 1753 c-4 -6 0 -18 7 -28 8 -11 16 -14 19 -8 4 6 0 18 -7 28 -8
11 -16 14 -19 8z"/>
<path d="M675 1710 c-3 -5 -1 -10 4 -10 6 0 11 5 11 10 0 6 -2 10 -4 10 -3 0
-8 -4 -11 -10z"/>
<path d="M814 1614 c3 -9 6 -18 6 -20 0 -2 5 -4 10 -4 6 0 10 9 10 20 0 12 -7
20 -16 20 -11 0 -14 -5 -10 -16z"/>
<path d="M1406 1904 c-17 -12 -17 -14 -4 -14 9 0 20 5 23 11 11 17 2 18 -19 3z"/>
<path d="M1376 1871 c-4 -7 -5 -15 -2 -18 9 -9 19 4 14 18 -4 11 -6 11 -12 0z"/>
<path d="M1415 1851 c-3 -5 -2 -12 3 -15 5 -3 9 1 9 9 0 17 -3 19 -12 6z"/>
<path d="M1394 1832 c3 -5 0 -13 -6 -15 -9 -4 -10 -6 -1 -6 17 -1 25 16 12 25
-7 4 -9 3 -5 -4z"/>
<path d="M1340 1795 c0 -18 26 -20 36 -3 4 7 3 8 -4 4 -7 -4 -12 -2 -12 3 0 6
-4 11 -10 11 -5 0 -10 -7 -10 -15z"/>
<path d="M1316 1724 c-10 -25 -1 -27 19 -4 15 17 16 20 3 20 -9 0 -19 -7 -22
-16z"/>
<path d="M1360 1650 c0 -5 5 -10 10 -10 6 0 10 5 10 10 0 6 -4 10 -10 10 -5 0
-10 -4 -10 -10z"/>
<path d="M1186 1378 c5 -7 9 -16 9 -20 0 -3 4 -10 9 -15 5 -4 6 -3 3 4 -4 6
-3 13 3 15 6 2 1 9 -11 16 -17 11 -20 11 -13 0z"/>
<path d="M397 1931 c2 -9 -2 -11 -13 -7 -17 7 -41 -18 -57 -58 -6 -16 -5 -17
8 -6 8 7 13 15 11 19 -3 4 4 12 15 19 23 15 24 10 3 -34 -9 -18 -14 -39 -11
-46 5 -14 28 34 32 64 1 10 10 28 21 40 10 12 14 18 7 15 -6 -4 -13 -4 -16 0
-2 5 -2 2 0 -6z"/>
<path d="M393 1865 c0 -8 7 -15 15 -15 7 0 12 5 10 12 -6 18 -25 21 -25 3z"/>
<path d="M530 1550 c0 -5 5 -10 11 -10 5 0 7 5 4 10 -3 6 -8 10 -11 10 -2 0
-4 -4 -4 -10z"/>
<path d="M280 1542 c0 -4 7 -18 16 -30 21 -30 77 -30 98 0 24 33 19 45 -7 20
-30 -28 -77 -29 -84 -2 -5 19 -23 29 -23 12z"/>
<path d="M456 1311 c-3 -5 1 -11 9 -15 15 -6 29 7 18 18 -9 9 -21 8 -27 -3z"/>
<path d="M440 1146 c22 -24 25 -39 28 -109 2 -51 -3 -115 -13 -167 -10 -47
-18 -107 -20 -135 -1 -27 -10 -88 -19 -135 -8 -47 -15 -96 -15 -110 0 -14 7
11 15 55 8 44 19 94 25 112 5 17 9 51 9 75 -1 23 5 75 14 113 8 39 15 108 16
155 0 76 3 90 27 125 l27 40 -28 -18 c-24 -16 -30 -17 -44 -4 -33 28 -47 30
-22 3z"/>
<path d="M1988 1673 c7 -3 16 -2 19 1 4 3 -2 6 -13 5 -11 0 -14 -3 -6 -6z"/>
<path d="M1480 1629 c0 -5 5 -7 10 -4 6 3 10 8 10 11 0 2 -4 4 -10 4 -5 0 -10
-5 -10 -11z"/>
<path d="M1789 1605 c-9 -20 -24 -32 -44 -36 l-30 -7 32 -1 c24 -1 37 5 49 24
9 13 14 30 12 37 -3 7 -11 0 -19 -17z"/>
<path d="M1792 1491 c-22 -130 -11 -205 20 -133 7 15 23 44 35 64 30 49 29 56
-10 102 l-33 38 -12 -71z"/>
<path d="M1898 1483 c6 -2 18 -2 25 0 6 3 1 5 -13 5 -14 0 -19 -2 -12 -5z"/>
<path d="M1640 1330 c0 -5 7 -10 15 -10 8 0 15 5 15 10 0 6 -7 10 -15 10 -8 0
-15 -4 -15 -10z"/>
<path d="M1580 1241 c0 -20 74 -61 98 -55 32 9 27 21 -6 16 -20 -3 -38 4 -60
23 -18 15 -32 22 -32 16z"/>
<path d="M1701 784 c0 -11 3 -14 6 -6 3 7 2 16 -1 19 -3 4 -6 -2 -5 -13z"/>
<path d="M1586 763 c9 -38 14 -42 14 -10 0 14 -5 29 -10 32 -7 4 -8 -3 -4 -22z"/>
<path d="M1611 764 c0 -11 3 -14 6 -6 3 7 2 16 -1 19 -3 4 -6 -2 -5 -13z"/>
<path d="M2005 1630 c3 -5 11 -10 16 -10 6 0 7 5 4 10 -3 6 -11 10 -16 10 -6
0 -7 -4 -4 -10z"/>
<path d="M1995 1580 c3 -5 8 -10 11 -10 2 0 4 5 4 10 0 6 -5 10 -11 10 -5 0
-7 -4 -4 -10z"/>
<path d="M705 1080 c3 -5 8 -10 11 -10 2 0 4 5 4 10 0 6 -5 10 -11 10 -5 0 -7
-4 -4 -10z"/>
<path d="M760 1001 c0 -6 4 -13 10 -16 6 -3 7 1 4 9 -7 18 -14 21 -14 7z"/>
<path d="M850 910 c0 -5 5 -10 10 -10 6 0 10 5 10 10 0 6 -4 10 -10 10 -5 0
-10 -4 -10 -10z"/>
<path d="M1305 919 c-4 -6 -5 -13 -2 -16 7 -7 27 6 27 18 0 12 -17 12 -25 -2z"/>
<path d="M323 237 c-10 -16 16 -32 29 -19 7 7 21 12 31 12 18 0 19 -6 15 -70
l-4 -70 34 0 c29 0 33 2 22 14 -7 9 -10 36 -8 68 4 45 7 53 26 56 12 2 22 -1
22 -7 0 -6 5 -11 11 -11 6 0 9 8 7 18 -3 15 -15 17 -92 17 -48 0 -90 -4 -93
-8z"/>
<path d="M538 183 c3 -41 0 -68 -8 -78 -11 -13 -7 -15 25 -15 32 0 36 2 25 14
-6 8 -10 25 -8 38 3 21 11 24 58 19 6 0 10 -17 10 -36 0 -33 2 -35 33 -35 21
0 28 3 19 9 -10 6 -13 27 -10 75 3 65 2 67 -29 66 -4 0 -6 -14 -5 -31 4 -29 3
-30 -35 -27 -35 3 -38 6 -38 33 -1 23 -5 30 -21 31 -18 1 -19 -4 -16 -63z"/>
<path d="M1250 239 c0 -5 5 -9 10 -9 13 0 13 -96 0 -121 -10 -18 -7 -19 45
-19 36 0 62 5 71 15 13 12 8 13 -36 8 l-50 -6 0 34 c0 26 3 30 12 21 16 -16
25 -15 32 4 9 23 -3 37 -20 23 -11 -9 -15 -8 -20 4 -3 9 -3 21 1 27 10 16 43
12 48 -7 4 -17 4 -17 12 1 5 12 3 21 -6 27 -18 11 -99 9 -99 -2z"/>
<path d="M1690 240 c-17 -4 -21 -8 -12 -14 15 -9 17 -112 2 -121 -24 -15 -6
-25 43 -25 41 0 58 5 72 20 23 25 12 39 -13 17 -10 -10 -26 -17 -36 -17 -15 0
-17 9 -14 70 3 74 -1 81 -42 70z"/>
<path d="M720 181 c0 -33 -3 -66 -6 -75 -5 -13 3 -16 48 -16 51 0 78 12 78 34
0 6 -5 5 -12 -2 -17 -17 -65 -15 -72 4 -8 21 1 34 19 27 10 -3 15 1 15 11 0 9
-7 19 -15 22 -8 4 -15 15 -15 25 0 14 7 19 25 19 14 0 25 -4 25 -10 0 -5 4
-10 10 -10 5 0 7 7 4 15 -4 11 -21 15 -55 15 l-49 0 0 -59z"/>
<path d="M1058 233 c7 -3 12 -25 12 -62 0 -32 -5 -63 -12 -70 -11 -11 -1 -12
52 -6 78 9 98 18 110 51 14 36 13 42 -15 69 -21 22 -33 25 -92 24 -37 0 -62
-3 -55 -6z m110 -25 c17 -17 15 -64 -4 -82 -21 -21 -54 -20 -55 2 -1 9 -3 28
-5 42 -1 14 -1 31 1 38 5 15 47 16 63 0z"/>
<path d="M1402 223 c16 -19 40 -85 43 -118 1 -15 10 -21 33 -23 30 -3 45 12
21 20 -7 2 -4 18 10 43 11 22 21 48 21 57 0 10 5 18 10 18 6 0 10 5 10 10 0 6
-9 10 -20 10 -11 0 -20 -7 -20 -15 0 -9 -7 -32 -16 -53 l-16 -37 -15 34 c-8
19 -12 43 -10 53 4 15 -1 18 -30 18 -34 0 -35 -1 -21 -17z"/>
<path d="M1587 163 c1 -65 4 -77 19 -79 25 -4 37 6 25 19 -5 7 -7 40 -5 75 4
59 3 62 -19 62 -21 0 -22 -3 -20 -77z"/>
<path d="M1932 104 c4 -21 22 -23 26 -1 2 10 -3 17 -13 17 -10 0 -15 -6 -13
-16z"/>
</g>
</svg>
