<?xml version="1.0" standalone="no"?>
<!DOCTYPE svg PUBLIC "-//W3C//DTD SVG 20010904//EN"
 "http://www.w3.org/TR/2001/REC-SVG-20010904/DTD/svg10.dtd">
<svg version="1.0" xmlns="http://www.w3.org/2000/svg"
 width="219.000000pt" height="375.000000pt" viewBox="0 0 219.000000 375.000000"
 preserveAspectRatio="xMidYMid meet">
<metadata>
Created by potrace 1.16, written by Peter Selinger 2001-2019
</metadata>
<g transform="translate(0.000000,375.000000) scale(0.100000,-0.100000)"
fill="#000000" stroke="none">
<path d="M103 3733 l-83 -4 -1 -182 c-1 -100 -3 -240 -4 -312 -7 -334 3 -3203
11 -3217 6 -9 2096 -11 2130 -2 l20 5 -2 1562 c-1 1006 -6 1665 -14 1852 -6
159 -13 291 -15 293 -5 5 -1947 10 -2042 5z m672 -45 c19 -33 42 -54 80 -73
27 -14 30 -57 10 -126 -13 -43 -15 -61 -6 -77 6 -11 11 -32 11 -47 0 -30 27
-86 46 -98 8 -4 14 -13 14 -19 0 -19 32 -48 52 -48 29 0 32 24 9 71 -21 43
-28 109 -13 109 5 0 19 -25 32 -55 13 -30 29 -55 37 -55 7 0 13 5 13 11 0 5 4
8 9 5 4 -3 13 6 20 20 14 31 14 37 1 29 -5 -3 -10 1 -10 10 0 8 -11 20 -25 25
-26 10 -47 47 -37 64 3 5 -2 14 -11 20 -8 7 -31 31 -51 55 -31 37 -36 50 -36
96 0 43 5 60 24 82 l24 28 156 3 c143 4 160 2 201 -18 25 -12 47 -31 51 -43 4
-12 15 -28 25 -35 19 -13 41 -71 39 -99 -4 -31 0 -36 14 -24 18 15 61 -1 76
-28 18 -34 -1 -84 -36 -94 -44 -13 -65 -26 -153 -95 -45 -35 -81 -58 -81 -52
0 7 10 45 22 86 37 130 1 114 -84 -37 -33 -57 -66 -111 -74 -119 -14 -13 -15
-12 -10 10 10 49 11 183 1 186 -6 3 -11 -31 -13 -84 -2 -68 -6 -90 -19 -99
-16 -12 -16 -15 0 -49 16 -33 16 -54 -1 -54 -4 0 -12 10 -17 22 -15 32 -43 47
-55 28 -8 -12 -13 -13 -30 -2 -31 19 -40 15 -40 -18 0 -23 7 -33 30 -45 37
-19 38 -32 4 -47 -20 -9 -30 -9 -45 0 -11 7 -30 10 -44 6 -26 -6 -33 4 -14 23
30 30 -34 44 -97 21 -18 -6 -39 -8 -50 -3 -18 8 -17 9 4 12 23 5 31 23 9 23
-36 0 -92 110 -64 127 5 3 7 1 4 -4 -6 -10 15 -17 74 -26 9 -1 26 -13 36 -26
19 -23 23 -24 79 -15 67 10 71 29 8 29 -46 0 -84 26 -84 57 0 15 5 18 19 13
26 -8 33 7 20 44 -8 22 -8 44 -1 71 6 24 6 42 1 46 -5 3 -9 16 -9 30 0 14 -4
22 -10 19 -12 -7 -12 -3 -4 19 7 19 26 22 22 3 -2 -7 1 -15 7 -17 10 -6 33 61
34 101 1 28 -26 59 -37 43 -4 -5 -19 -15 -35 -23 -78 -41 -210 -295 -195 -376
3 -14 1 -25 -4 -25 -5 0 -4 -10 3 -22 10 -19 9 -20 -7 -13 -11 4 -36 8 -56 9
-21 0 -38 4 -38 9 0 4 -9 3 -19 -3 -14 -7 -22 -7 -26 1 -9 13 -7 15 34 32 l34
14 -32 19 c-17 10 -31 24 -31 31 0 7 -4 13 -10 13 -5 0 -10 7 -10 15 0 9 -6
18 -14 21 -8 3 -12 13 -9 25 3 10 0 19 -6 19 -5 0 -8 6 -5 14 3 8 1 17 -5 20
-6 4 -7 14 -4 22 3 9 0 20 -8 25 -12 8 -12 10 1 19 12 8 13 13 2 30 -7 11 -8
20 -3 20 13 0 10 43 -4 52 -5 4 0 8 12 8 16 0 21 4 16 15 -3 10 0 15 8 13 8
-2 13 3 12 10 -2 6 4 12 12 12 8 0 15 5 15 10 0 6 7 10 15 10 8 0 15 5 15 10
0 6 9 10 20 10 11 0 20 4 20 9 0 11 73 25 120 22 19 -1 43 -2 52 -2 10 0 20
-4 23 -10 13 -19 24 -8 21 21 -4 39 5 38 29 -2z m1281 24 c17 -10 31 -452 15
-452 -17 0 -116 80 -227 183 -86 79 -124 103 -124 77 0 -9 56 -228 84 -330 9
-30 16 -56 16 -57 0 -13 -40 6 -110 52 -47 30 -88 55 -92 55 -3 0 -34 16 -68
35 -82 46 -102 47 -79 3 9 -17 7 -24 -17 -44 -30 -26 -49 -30 -60 -12 -4 7 5
22 24 38 18 15 32 30 32 35 0 4 -19 -10 -43 -32 -23 -21 -57 -48 -75 -58 -40
-24 -41 -35 -2 -36 17 -1 35 -3 40 -4 6 -1 26 -3 45 -4 46 -1 45 -18 -2 -26
-21 -4 -51 -10 -68 -15 -16 -5 -47 -11 -67 -15 -33 -5 -37 -4 -31 12 6 17 6
17 -12 0 -16 -17 -17 -23 -5 -55 10 -28 10 -37 1 -40 -7 -2 -16 -15 -21 -28
-17 -44 -72 -28 -101 29 -9 18 -6 16 20 -7 17 -16 34 -27 37 -23 4 3 8 25 9
47 2 36 21 71 50 92 6 5 6 8 -2 8 -6 0 -27 -19 -47 -42 -29 -35 -36 -39 -36
-22 0 11 -5 25 -12 32 -8 8 -5 20 14 49 65 100 98 153 98 160 0 5 10 22 21 38
20 28 21 28 14 5 -7 -26 -18 -72 -30 -127 -5 -24 -4 -33 5 -33 7 0 57 34 111
75 53 41 105 75 114 75 17 0 170 -74 233 -112 18 -11 36 -18 39 -14 4 3 -8 54
-25 113 -56 196 -75 273 -68 280 21 21 300 -192 348 -267 9 -14 19 -22 24 -18
4 5 2 89 -5 188 -6 100 -9 185 -6 190 7 12 25 13 41 2z m-1245 -355 c-10 -9
-11 -8 -5 6 3 10 9 15 12 12 3 -3 0 -11 -7 -18z m-51 -15 c0 -5 -7 -17 -15
-28 -14 -18 -14 -17 -4 9 12 27 19 34 19 19z m-50 -82 c-12 -16 -24 -30 -26
-30 -3 0 4 14 16 30 12 17 24 30 26 30 3 0 -4 -13 -16 -30z m34 -25 c-4 -8
-11 -15 -16 -15 -6 0 -5 6 2 15 7 8 14 15 16 15 2 0 1 -7 -2 -15z m-94 -49 c0
-2 -7 -7 -16 -10 -8 -3 -12 -2 -9 4 6 10 25 14 25 6z m1338 -19 c7 -8 8 -24 4
-41 l-8 -28 -32 28 c-18 16 -32 34 -32 41 0 17 54 17 68 0z m-1338 -21 c0 -2
-7 -7 -16 -10 -8 -3 -12 -2 -9 4 6 10 25 14 25 6z m910 -55 c0 -29 -6 -42 -22
-54 -23 -15 -23 -15 -3 -31 26 -20 55 -20 85 1 16 11 25 13 28 5 2 -8 8 -8 21
0 10 6 27 8 37 4 18 -7 18 -8 -2 -19 -12 -7 -19 -18 -17 -24 3 -9 -4 -11 -26
-7 -23 5 -37 2 -51 -11 -23 -21 -18 -35 13 -36 l22 0 -22 -11 c-23 -11 -31
-28 -13 -28 6 0 10 -5 10 -10 0 -6 -11 -8 -25 -4 -15 4 -25 2 -25 -5 0 -6 7
-11 15 -11 8 0 15 -5 15 -11 0 -18 -54 -5 -65 16 -20 40 -27 47 -37 37 -13
-13 -48 -3 -48 14 0 8 -7 14 -15 14 -8 0 -15 -5 -15 -11 0 -5 -4 -7 -10 -4 -5
3 -10 22 -10 42 0 26 5 36 19 40 11 3 25 18 31 34 11 25 20 31 46 28 7 0 30
36 40 64 11 30 24 18 24 -22z m-541 -1 c16 8 21 5 30 -22 14 -39 14 -38 -4
-38 -8 0 -15 5 -15 11 0 5 -16 17 -35 25 -19 8 -35 19 -35 24 0 7 7 7 20 0 14
-7 26 -8 39 0z m362 -29 c1 -9 2 -50 3 -91 1 -66 3 -75 23 -85 20 -10 21 -14
9 -31 -14 -18 -15 -18 -34 -1 -11 10 -23 36 -26 59 -6 34 -10 39 -26 35 -28
-7 -33 6 -19 55 l12 43 7 -30 7 -30 12 30 c7 16 10 39 6 52 -4 17 -2 21 10 17
8 -4 16 -14 16 -23z m528 -11 c11 0 32 -50 26 -60 -8 -14 -44 1 -50 21 -4 10
-13 19 -21 19 -8 0 -14 4 -14 9 0 12 21 21 38 15 8 -2 17 -4 21 -4z m-1673
-15 c7 -17 54 -21 54 -4 0 8 5 8 15 -1 8 -7 21 -10 29 -7 7 3 19 0 25 -6 14
-14 14 -74 0 -82 -6 -4 -8 -13 -5 -21 3 -8 1 -14 -4 -14 -17 0 -10 -14 14 -32
23 -17 25 -17 48 1 35 27 74 31 94 10 9 -10 13 -23 9 -28 -5 -9 32 -32 57 -35
3 -1 10 -4 14 -8 11 -12 24 1 24 25 1 46 44 73 69 43 16 -19 16 -122 0 -142
-10 -13 -10 -17 2 -25 19 -12 39 -11 39 1 0 17 35 11 59 -11 21 -20 22 -28 20
-136 -3 -93 -6 -116 -19 -121 -8 -3 -23 -12 -32 -20 -15 -13 -18 -13 -18 -1 0
8 -12 20 -27 26 -24 12 -30 10 -54 -13 -28 -26 -53 -26 -42 1 7 20 -18 19 -55
-2 -29 -17 -31 -17 -51 1 -12 11 -21 34 -23 59 -3 47 -24 60 -37 24 -7 -19
-19 -25 -53 -30 -53 -7 -78 12 -78 60 0 28 -4 33 -23 33 -23 0 -62 -35 -49
-44 5 -3 6 -21 4 -41 -4 -36 -45 -80 -64 -69 -5 3 -18 -2 -28 -11 -18 -16 -21
-16 -50 1 -25 16 -32 16 -39 5 -5 -7 -14 -10 -20 -6 -8 5 -11 50 -10 146 2
128 3 139 20 139 11 0 19 6 19 14 0 22 28 27 42 7 20 -28 71 -34 91 -10 21 24
22 59 2 59 -8 0 -38 22 -66 49 -52 49 -52 50 -45 97 7 57 26 88 69 114 38 24
66 25 73 5z m608 -6 c-14 -16 -15 -22 -5 -28 23 -15 111 -20 139 -9 15 6 36
12 47 13 11 2 32 6 48 10 21 6 27 4 27 -9 0 -26 38 -56 70 -56 24 0 35 7 48
30 9 16 20 30 23 30 3 0 6 -57 8 -127 1 -70 4 -130 6 -134 3 -3 8 -102 11
-219 7 -204 6 -212 -12 -208 -12 2 -18 11 -17 23 1 11 -5 24 -13 28 -8 4 -14
15 -14 23 0 13 -3 13 -20 1 -21 -15 -70 -12 -70 4 0 5 5 9 10 9 19 0 60 52 60
77 0 13 -9 41 -20 62 -13 27 -18 53 -16 87 2 27 1 36 -1 19 -3 -16 -9 -36 -15
-42 -7 -9 -7 -22 2 -44 12 -27 11 -33 -3 -41 -9 -5 -17 -17 -17 -28 0 -10 -5
-20 -10 -22 -13 -4 -22 -48 -9 -48 5 0 9 8 9 17 0 14 2 15 13 4 10 -10 8 -16
-9 -30 -15 -12 -19 -22 -13 -36 4 -11 8 -57 8 -102 1 -81 1 -83 26 -83 22 0
24 3 19 30 -6 30 9 43 19 18 4 -10 7 -10 15 0 7 10 12 9 23 -4 12 -16 12 -17
-3 -11 -10 3 -18 2 -18 -3 0 -6 -16 -25 -36 -44 l-37 -35 27 -48 c18 -31 20
-39 7 -23 -18 22 -20 23 -26 7 -4 -9 -2 -24 4 -31 10 -11 8 -16 -8 -21 -25 -8
-29 -56 -6 -75 8 -7 40 -14 70 -16 67 -4 77 -9 69 -38 -3 -14 4 -40 18 -67 22
-41 23 -56 24 -234 1 -140 5 -204 17 -242 8 -29 12 -53 9 -53 -9 0 1 -152 11
-167 5 -7 -3 -14 -22 -18 -30 -6 -71 -59 -71 -91 0 -8 -9 -14 -19 -14 -28 0
-81 51 -81 78 0 30 -29 41 -46 17 -12 -17 -14 -16 -24 11 -6 16 -14 41 -17 57
-10 49 -45 30 -50 -28 -1 -16 -6 -48 -10 -70 -8 -36 -12 -40 -45 -45 -24 -3
-44 -14 -58 -33 -25 -31 -50 -36 -50 -9 0 29 -41 152 -50 152 -5 0 -10 -19
-12 -42 -2 -35 -8 -45 -30 -56 -16 -7 -28 -19 -28 -26 0 -8 -10 -13 -25 -12
-14 0 -25 3 -25 6 0 3 17 29 39 57 45 60 44 57 61 418 6 121 13 252 15 290 24
406 32 679 34 1138 1 123 2 127 23 127 21 0 21 0 2 -21z m316 1 c0 -5 -4 -10
-10 -10 -5 0 -10 5 -10 10 0 6 5 10 10 10 6 0 10 -4 10 -10z m132 -49 c-5 -34
13 -71 33 -71 9 0 15 -9 15 -23 0 -12 6 -31 14 -42 32 -47 41 -154 50 -552 l5
-202 -22 8 c-13 5 -21 16 -20 27 1 11 -9 39 -21 64 -42 83 -56 143 -56 240 0
51 -4 169 -10 263 -21 368 -21 351 -1 333 12 -11 16 -26 13 -45z m778 29 c32
-32 24 -68 -12 -49 -10 6 -23 20 -27 32 -16 40 6 50 39 17z m-292 -82 c16 -16
15 -68 -1 -68 -27 0 -46 24 -40 53 6 29 21 35 41 15z m210 -80 c4 -35 -17 -37
-46 -4 -22 26 -15 36 23 33 14 -1 21 -11 23 -29z m-212 -90 c8 -16 13 -32 10
-35 -11 -11 -46 10 -59 37 -13 26 -13 29 2 33 22 5 29 0 47 -35z m340 -12 c10
-17 13 -30 7 -41 -8 -13 -12 -12 -32 9 -14 15 -21 32 -18 40 9 23 24 20 43 -8z
m-517 -20 c19 -15 30 -50 19 -57 -19 -12 -49 3 -64 33 -8 16 -12 33 -9 38 6
10 32 3 54 -14z m369 -26 c2 -14 9 -31 15 -39 7 -8 -6 -5 -31 8 -41 21 -54 44
-29 54 24 11 42 1 45 -23z m-97 -100 c18 -13 33 -36 40 -63 17 -63 31 -87 50
-87 17 0 69 60 69 81 0 6 10 20 21 30 21 18 22 18 49 -1 16 -11 32 -20 38 -20
16 0 19 -30 12 -155 -4 -65 -4 -133 -1 -150 6 -32 7 -329 2 -457 -3 -67 -7
-78 -22 -78 -9 0 -19 6 -22 13 -3 9 -9 8 -23 -5 -38 -33 -104 4 -104 58 0 12
6 27 14 34 26 21 9 38 -30 30 -30 -7 -38 -5 -59 18 -53 57 -27 161 36 148 15
-3 43 -2 63 1 28 4 36 10 31 21 -6 16 31 62 50 62 22 0 52 47 58 88 4 36 2 42
-13 42 -11 0 -20 -10 -23 -27 -15 -77 -17 -79 -77 -82 -43 -1 -54 3 -82 30
-18 17 -32 33 -30 35 9 12 -6 24 -21 18 -14 -5 -17 -13 -12 -31 9 -36 -30
-112 -54 -106 -10 2 -25 -3 -34 -11 -11 -11 -25 -14 -47 -10 -30 7 -31 6 -24
-22 7 -29 7 -29 -29 10 -35 37 -39 39 -86 33 l-48 -6 -19 42 c-10 23 -23 42
-29 42 -5 0 -19 -20 -31 -44 -16 -33 -23 -40 -30 -30 -10 16 -33 209 -24 209
3 0 10 15 15 33 9 29 13 32 43 29 38 -4 51 17 32 52 -17 33 1 65 38 65 15 -1
36 1 46 3 14 2 27 -7 40 -29 12 -18 26 -31 31 -29 19 5 16 46 -4 75 -24 33
-26 42 -9 39 6 -2 14 6 16 17 2 11 27 42 55 68 43 42 54 48 79 43 16 -3 43
-15 59 -26z m-276 -26 c14 -15 25 -33 25 -40 0 -21 -28 -17 -47 6 -10 11 -23
20 -30 20 -17 0 -17 27 0 33 22 9 28 7 52 -19z m-433 -88 c5 4 8 -1 6 -10 -6
-31 -23 -21 -25 14 0 19 1 25 4 12 2 -12 9 -19 15 -16z m-575 -113 c-4 -48 -2
-75 8 -93 11 -21 11 -29 -6 -63 -11 -21 -17 -43 -14 -50 4 -7 -1 -3 -9 7 -9
11 -16 32 -16 46 0 15 -11 39 -25 54 -30 33 -31 38 -5 61 10 9 25 34 31 54 10
31 24 50 38 51 2 0 1 -30 -2 -67z m-224 47 c11 0 17 -8 17 -25 0 -31 -31 -34
-60 -5 -27 27 -26 44 3 36 12 -3 30 -6 40 -6z m-71 -47 c28 -26 23 -47 -9 -38
-34 8 -53 23 -53 41 0 19 40 18 62 -3z m-84 -81 c22 -29 15 -42 -20 -35 -45 8
-68 21 -68 38 0 28 65 26 88 -3z m-114 -35 c14 -37 3 -42 -33 -16 -29 22 -39
47 -24 62 11 11 47 -18 57 -46z m1176 -3 c0 -13 -9 -28 -20 -34 -17 -9 -20 -8
-20 8 0 11 -7 25 -15 32 -14 12 -14 15 1 32 16 17 18 17 36 2 10 -10 18 -27
18 -40z m-877 -60 l28 -56 45 7 45 6 -8 -28 c-4 -15 -8 -43 -7 -60 1 -40 -5
-41 -45 -4 -18 17 -46 31 -63 33 l-31 3 -4 78 c-2 42 0 77 4 77 5 0 21 -25 36
-56z m902 -1 c-25 -37 -28 -90 -7 -103 14 -8 12 -9 -10 -10 -21 0 -31 8 -43
30 -20 39 -12 67 28 102 39 32 58 21 32 -19z m-635 15 c0 -17 -3 -19 -9 -9 -7
10 -13 11 -30 2 -11 -7 -21 -8 -21 -3 0 8 36 30 53 31 4 1 7 -9 7 -21z m543
-46 c-4 -31 0 -44 23 -72 l29 -33 -30 7 c-48 12 -110 96 -71 96 7 0 16 9 19
20 3 11 12 20 20 20 12 0 14 -9 10 -38z m-945 -21 c-2 -39 -5 -48 -15 -39 -10
8 -13 6 -13 -5 0 -19 47 -57 71 -57 20 0 49 -36 49 -62 0 -10 -11 -25 -25 -34
-34 -22 -32 -53 6 -92 30 -31 79 -44 79 -21 0 13 42 49 52 43 3 -2 9 -21 13
-42 7 -44 21 -64 55 -82 15 -8 20 -15 12 -18 -23 -7 -12 -40 20 -56 39 -20 43
-20 45 2 1 9 5 28 9 42 7 23 6 24 -9 11 -9 -7 -17 -22 -17 -33 0 -11 -5 -16
-10 -13 -6 4 -8 16 -3 28 4 12 8 40 9 62 1 22 5 67 8 100 6 43 5 56 -3 45 -6
-8 -8 -22 -6 -30 2 -8 0 -22 -5 -30 -5 -8 -10 -10 -10 -5 -1 6 -3 28 -4 50 -2
23 3 49 10 60 10 14 14 15 14 5 1 -12 3 -11 14 3 14 18 32 24 21 7 -8 -13 21
-13 46 0 10 6 19 7 19 3 0 -5 -18 -16 -40 -26 -40 -17 -49 -30 -30 -42 6 -3
10 -1 10 4 0 6 5 11 10 11 6 0 28 11 50 25 21 13 41 21 44 16 8 -12 -32 -120
-57 -155 -22 -31 -30 -69 -47 -230 -6 -55 -15 -105 -21 -112 -13 -16 -89 -56
-89 -47 0 4 -5 2 -12 -5 -7 -7 -21 -12 -31 -12 -16 0 -17 3 -7 15 10 12 9 15
-5 15 -13 0 -16 5 -11 23 4 12 10 40 13 61 5 34 4 38 -10 33 -10 -4 -17 -2
-17 2 0 5 -3 16 -6 25 -5 12 2 14 38 11 43 -5 78 -32 78 -61 0 -8 5 -14 10
-14 6 0 10 -7 10 -15 0 -8 5 -15 10 -15 13 0 13 27 0 43 -6 7 -18 22 -28 35
-9 13 -42 33 -72 45 -52 21 -55 24 -55 58 0 30 -3 35 -18 31 -18 -5 -18 -20 0
-69 6 -16 5 -16 -10 -4 -9 7 -17 19 -17 25 0 6 -9 17 -20 24 -11 7 -20 18 -20
26 0 7 -7 19 -16 27 -14 11 -13 14 8 25 34 20 92 17 120 -5 13 -11 32 -37 42
-58 16 -37 71 -80 80 -64 3 4 -5 14 -19 21 -13 7 -29 26 -36 43 -18 42 -47 70
-98 97 -39 19 -47 20 -70 8 -28 -14 -63 -42 -92 -72 -15 -15 -27 -18 -65 -12
-56 7 -76 22 -72 50 2 17 11 21 40 23 21 0 35 -3 32 -8 -3 -5 -14 -9 -25 -9
-11 0 -17 -4 -14 -10 10 -17 41 -11 61 11 14 16 26 19 52 14 23 -4 32 -3 27 4
-3 6 -23 11 -45 11 -25 0 -40 5 -44 16 -4 11 -17 15 -47 13 -60 -5 -82 35 -63
109 10 36 24 25 24 -17 0 -40 25 -71 57 -71 6 0 22 -4 35 -9 13 -5 28 -10 33
-11 6 -1 19 -9 30 -16 11 -8 29 -14 40 -14 16 1 14 4 -10 16 -16 9 -36 23 -42
32 -18 22 -16 67 2 82 20 16 19 66 0 74 -19 7 -45 66 -45 101 0 25 25 85 35
85 3 0 4 -22 3 -49z m390 37 c6 -7 13 -30 17 -51 6 -28 11 -37 22 -32 20 7 43
-12 43 -36 0 -13 -5 -16 -16 -12 -8 3 -28 -4 -44 -16 -33 -24 -48 -28 -31 -7
9 11 4 27 -21 75 -32 60 -33 62 -14 76 24 18 31 19 44 3z m686 -10 c10 -39 7
-68 -8 -68 -19 0 -30 34 -22 66 8 30 22 31 30 2z m-1203 -28 c13 -8 19 -21 19
-45 0 -19 -4 -35 -8 -35 -15 0 -39 34 -44 63 -6 29 2 33 33 17z m472 -62 c27
-29 27 -31 11 -49 -12 -13 -21 -16 -28 -9 -5 5 -19 10 -31 10 -12 0 -26 5 -33
12 -12 12 -17 60 -7 70 13 12 62 -7 88 -34z m927 -25 c0 -13 -2 -23 -4 -23 -2
0 -11 -3 -20 -6 -19 -7 -22 26 -5 58 9 17 13 18 20 7 5 -8 9 -24 9 -36z
m-1452 15 c14 -14 16 -78 3 -78 -8 0 -51 72 -51 85 0 10 37 4 48 -7z m1319 -4
c2 -7 -7 -14 -21 -18 -44 -11 -56 -32 -56 -102 0 -35 5 -73 12 -84 15 -24 6
-35 -20 -21 -24 13 -37 58 -22 77 16 18 -44 55 -85 53 -65 -4 -75 0 -75 26 0
28 21 36 98 39 46 1 47 1 44 -29 -2 -31 12 -64 23 -53 3 3 8 22 11 41 3 29 0
39 -18 51 -12 9 -18 16 -12 16 5 0 14 -4 20 -10 6 -6 20 -3 39 10 32 20 56 22
62 4z m277 -53 c10 -11 24 -45 31 -78 18 -74 18 -71 -6 -78 -15 -5 -18 -10 -9
-20 6 -8 18 -11 26 -8 8 3 15 0 15 -6 1 -6 2 -15 3 -20 0 -5 14 -19 29 -31 38
-30 29 -34 -29 -11 -47 18 -74 26 -176 51 -26 7 -49 18 -52 26 -3 8 -12 14
-20 14 -9 0 -29 14 -46 30 -17 17 -37 30 -45 30 -30 0 -20 -12 85 -100 l25
-21 -30 6 c-16 4 -40 16 -52 27 -12 12 -27 17 -34 12 -9 -5 -11 -1 -6 15 3 15
0 24 -10 28 -23 9 -34 49 -21 78 12 27 24 32 31 13 4 -10 7 -10 18 0 22 20 45
14 81 -21 18 -19 40 -36 48 -39 8 -3 13 -8 10 -11 -3 -3 -24 3 -48 13 -23 11
-42 16 -42 12 0 -11 32 -29 67 -36 19 -4 30 -13 29 -22 -1 -16 120 -65 158
-63 16 0 14 3 -9 11 -16 6 -34 17 -38 24 -4 8 -19 14 -32 14 -30 0 -55 10 -55
21 0 15 40 10 70 -7 20 -13 32 -14 46 -6 18 10 17 11 -8 21 -19 7 -28 18 -28
33 0 17 -3 19 -12 10 -29 -29 -38 3 -14 50 19 37 3 45 -23 12 -24 -31 -29 -10
-5 24 19 27 55 29 78 3z m-1162 -23 c-7 -7 -12 -8 -12 -2 0 14 12 26 19 19 2
-3 -1 -11 -7 -17z m1008 -14 c0 -8 -4 -12 -10 -9 -5 3 -10 13 -10 21 0 8 5 12
10 9 6 -3 10 -13 10 -21z m-1310 -5 c0 -7 10 -9 25 -7 30 6 32 -2 6 -23 -21
-19 -44 -10 -61 21 -9 17 -7 20 10 20 11 0 20 -5 20 -11z m329 -30 c-12 -21
-14 -22 -17 -6 -6 28 6 53 19 40 8 -8 7 -18 -2 -34z m1023 11 c5 -34 -7 -41
-17 -10 -5 17 0 40 9 40 2 0 6 -13 8 -30z m-1072 16 c0 -3 -4 -8 -10 -11 -5
-3 -10 -1 -10 4 0 6 5 11 10 11 6 0 10 -2 10 -4z m-318 -58 c-11 -11 -32 -3
-32 12 0 12 34 18 39 7 2 -5 -1 -13 -7 -19z m-110 -9 c2 -6 2 -27 0 -46 -6
-47 -26 -36 -30 15 -2 32 0 42 12 42 8 0 16 -5 18 -11z m148 -15 c0 -20 -4
-25 -22 -22 -12 2 -23 8 -25 13 -3 9 5 15 45 34 1 0 2 -11 2 -25z m330 -29
c10 -12 10 -18 0 -30 -11 -13 -10 -14 3 -9 15 5 15 2 6 -25 -6 -17 -15 -28
-21 -25 -5 3 -7 12 -4 20 3 7 -2 17 -10 22 -11 6 -13 16 -9 35 8 31 17 34 35
12z m-355 -45 c-3 -5 -15 -10 -26 -10 -10 0 -19 5 -19 10 0 6 12 10 26 10 14
0 23 -4 19 -10z m1205 -43 c34 -38 47 -111 55 -296 8 -203 35 -401 57 -430 7
-9 25 -28 41 -43 19 -19 27 -36 27 -62 0 -34 -2 -36 -41 -42 -22 -4 -43 -12
-45 -18 -3 -8 -57 -12 -93 -7 -3 1 4 8 15 16 16 12 17 16 4 24 -18 12 -134 25
-155 17 -8 -3 -29 -3 -46 1 -27 5 -29 7 -13 16 10 6 36 9 58 9 54 -2 106 29
106 62 0 19 4 23 19 19 10 -3 22 0 26 7 5 8 10 7 18 -3 15 -19 77 -33 77 -18
0 6 -11 13 -25 17 -14 3 -25 9 -25 13 0 10 -47 31 -69 31 -28 0 -47 28 -34 48
5 10 8 33 6 52 l-4 35 20 -25 21 -25 -5 107 c-4 112 -8 128 -29 128 -8 0 -16
14 -20 31 -9 45 -8 59 5 59 5 0 8 -4 5 -9 -8 -13 4 -42 15 -35 12 7 11 104 -1
104 -5 0 -10 -8 -10 -17 0 -13 -3 -14 -8 -5 -5 7 -9 61 -10 120 -1 59 -5 120
-8 135 -5 26 -4 28 16 22 12 -4 35 -21 50 -38z m38 21 c7 -7 12 -15 12 -20 0
-12 -28 2 -34 18 -7 17 6 18 22 2z m-1341 -50 c14 -18 22 -68 11 -68 -31 0
-76 50 -63 70 9 14 41 12 52 -2z m1658 2 c19 0 54 -38 71 -77 8 -18 30 -48 49
-67 19 -20 35 -43 35 -53 0 -21 27 -56 55 -71 18 -10 18 -11 2 -12 -11 0 -17
-5 -14 -12 5 -14 9 -14 47 -3 25 8 25 7 7 -13 -14 -15 -17 -29 -12 -56 7 -33
21 -54 30 -44 2 2 0 21 -5 43 -10 46 -4 61 18 43 13 -11 15 -10 10 10 -4 12
-2 22 3 22 5 0 9 -10 9 -23 0 -13 6 -32 14 -42 11 -16 11 -25 0 -59 -8 -23
-20 -66 -27 -96 -14 -53 -14 -56 9 -75 l23 -20 -31 -2 c-17 -1 -35 -8 -40 -15
-5 -9 -8 -7 -8 8 0 11 5 25 12 32 19 19 -3 14 -25 -5 -19 -18 -20 -17 -7 7 8
14 19 52 25 84 10 56 9 62 -19 118 -20 39 -38 61 -53 64 -19 5 -21 11 -16 37
5 26 4 29 -11 24 -15 -6 -17 -2 -14 27 3 36 -26 79 -129 184 -28 30 -45 51
-36 48 8 -3 21 -6 28 -6z m-182 -15 c44 -3 88 -29 81 -48 -3 -8 5 -13 23 -15
31 -2 60 -26 69 -56 3 -11 13 -29 21 -38 18 -20 35 -88 22 -88 -5 0 -9 -7 -9
-16 0 -10 -6 -14 -15 -10 -10 3 -15 -1 -15 -12 -1 -10 -10 -1 -21 21 -13 26
-17 42 -11 50 15 18 -9 79 -35 92 -19 10 -20 12 -5 22 15 11 14 12 -6 12 -12
1 -41 10 -63 22 -23 11 -47 18 -54 15 -12 -4 -42 22 -60 53 -6 11 -3 13 16 6
13 -4 41 -9 62 -10z m147 -30 c13 -14 19 -25 14 -25 -10 0 -54 37 -54 45 0 12
19 3 40 -20z m106 -124 c23 -51 9 -48 -17 4 -14 28 -28 44 -36 41 -15 -6 -15
-4 -6 19 5 15 8 15 25 -6 11 -13 26 -39 34 -58z m-1698 37 c7 -7 12 -25 12
-40 0 -28 0 -28 -27 -14 -55 30 -58 33 -44 50 16 19 42 21 59 4z m238 -88 c21
-46 24 -76 10 -95 -13 -19 -15 -18 -55 9 -40 28 -55 51 -26 40 29 -11 15 16
-17 32 l-32 16 30 14 c43 19 77 13 90 -16z m1344 -59 c0 -9 4 -21 9 -26 4 -6
11 -27 14 -47 7 -46 -13 -69 -44 -50 -21 13 -72 16 -83 5 -3 -4 4 -13 16 -21
14 -8 16 -11 5 -8 -12 4 -20 -2 -27 -19 -13 -35 -16 -31 -14 15 1 29 10 47 32
70 17 16 36 43 43 59 7 16 17 27 21 25 4 -3 8 2 8 11 0 9 5 13 10 10 6 -3 10
-14 10 -24z m-1295 -21 c-8 -27 -62 -60 -95 -60 -14 1 -34 7 -44 15 -30 22
-45 17 -17 -5 13 -11 41 -23 62 -26 51 -8 50 -21 -3 -29 -24 -3 -56 -8 -71
-11 l-28 -6 3 51 c3 56 8 58 62 36 24 -10 36 -12 36 -4 0 7 9 9 23 6 29 -8 43
2 57 37 12 33 25 29 15 -4z m1445 21 c0 -31 -14 -71 -24 -68 -6 3 -23 -4 -36
-15 l-24 -19 26 6 c20 5 30 1 47 -21 26 -34 27 -54 1 -54 -25 0 -26 -25 -2
-39 9 -6 12 -11 5 -11 -6 0 -19 -3 -27 -6 -11 -4 -15 -2 -12 7 2 8 7 28 10 46
7 40 -12 36 -38 -7 -9 -17 -22 -28 -27 -24 -6 3 -22 -5 -36 -17 -26 -24 -26
-24 -14 -2 6 13 22 25 34 28 16 4 23 15 25 38 9 87 28 142 54 155 29 13 38 14
38 3z m167 3 c-3 -3 -12 -4 -19 -1 -8 3 -5 6 6 6 11 1 17 -2 13 -5z m-1737
-19 c32 -17 40 -35 14 -35 -24 0 -54 19 -54 35 0 19 4 19 40 0z m-126 -27 c5
-15 7 -30 4 -33 -7 -7 -78 34 -78 44 0 34 62 24 74 -11z m422 -23 c-4 -14 -2
-25 3 -25 6 0 8 -7 5 -15 -4 -8 -1 -15 5 -15 18 0 12 -19 -10 -30 -28 -15 -52
5 -44 37 3 14 1 23 -6 23 -7 0 -9 3 -6 7 4 3 1 13 -6 21 -10 13 -9 15 4 10 9
-3 22 -2 30 3 24 15 31 10 25 -16z m1299 16 c3 -5 2 -12 -3 -15 -5 -3 -9 1 -9
9 0 17 3 19 12 6z m69 -27 c5 -14 4 -15 -9 -4 -17 14 -19 20 -6 20 5 0 12 -7
15 -16z m-1846 -56 c11 -11 17 -58 7 -58 -12 0 -55 24 -55 31 0 4 -3 14 -6 23
-5 12 0 16 18 16 13 0 29 -5 36 -12z m230 -24 c-13 -13 -19 -14 -36 -3 -17 11
-24 11 -34 1 -16 -16 -29 -15 -22 2 4 10 23 16 52 18 57 4 60 2 40 -18z m1635
9 c-7 -2 -19 -2 -25 0 -7 3 -2 5 12 5 14 0 19 -2 13 -5z m-293 -13 c-19 -13
-30 -13 -30 0 0 6 10 10 23 10 18 0 19 -2 7 -10z m-1140 -4 c0 -3 -4 -8 -10
-11 -5 -3 -10 -1 -10 4 0 6 5 11 10 11 6 0 10 -2 10 -4z m80 -23 c-11 -16 -33
-45 -47 -66 l-26 -38 24 -26 24 -26 -27 5 c-25 5 -27 3 -22 -21 l5 -26 -15 25
-15 25 -10 -25 c-9 -23 -10 -22 -10 14 -1 33 -4 38 -21 33 -28 -7 -25 0 9 17
17 9 35 31 45 55 9 25 21 39 28 36 7 -3 27 6 43 20 39 31 41 31 15 -2z m-310
-3 c0 -12 -6 -20 -12 -19 -42 5 -60 -2 -55 -20 3 -15 -1 -21 -17 -23 -11 -2
-22 -9 -22 -15 -3 -26 -5 -28 -15 -10 -5 9 -20 17 -31 17 -18 0 -18 13 0 16
20 2 42 18 42 29 0 17 14 26 54 36 50 11 56 10 56 -11z m277 14 c-3 -3 -12 -4
-19 -1 -8 3 -5 6 6 6 11 1 17 -2 13 -5z m1056 -52 c12 -11 17 -30 17 -73 0
-32 5 -61 10 -64 16 -10 12 -25 -6 -25 -14 0 -14 -3 -4 -15 10 -12 10 -15 -4
-15 -9 0 -16 7 -16 15 0 9 -8 30 -17 48 -19 37 -42 127 -36 144 5 14 30 7 56
-15z m227 -12 c0 -5 8 -10 18 -10 9 0 24 -5 32 -11 12 -8 9 -9 -12 -5 -14 3
-34 9 -45 13 -16 6 -16 5 -4 -10 9 -11 10 -17 2 -17 -6 0 -11 -9 -11 -20 0
-13 -7 -20 -20 -20 -11 0 -20 6 -20 14 0 7 -7 19 -15 26 -8 7 -15 19 -15 27 0
13 3 13 25 -1 30 -20 39 -20 32 -2 -3 8 -1 17 6 20 20 8 27 7 27 -4z m-120
-55 c-15 -18 -40 -20 -40 -3 0 6 3 9 6 5 4 -3 13 1 21 9 19 19 30 10 13 -11z
m-1575 5 c4 -6 0 -22 -9 -35 -9 -13 -16 -31 -16 -39 0 -9 -7 -13 -20 -11 -12
2 -27 -6 -40 -23 l-21 -27 16 33 c9 18 11 32 5 32 -24 0 -7 20 18 21 26 1 26
1 -5 10 -18 5 -33 14 -33 20 0 11 16 9 53 -6 10 -4 17 -4 16 1 -5 31 21 48 36
24z m187 -34 c10 -15 10 -38 -2 -56 -15 -24 -50 16 -50 57 0 32 1 33 23 22 12
-7 25 -17 29 -23z m698 -52 c0 -8 -4 -14 -10 -14 -5 0 -10 9 -10 21 0 11 5 17
10 14 6 -3 10 -13 10 -21z m288 -22 c2 -7 -3 -12 -12 -12 -9 0 -16 7 -16 16 0
17 22 14 28 -4z m-253 -29 c-3 -16 -11 -32 -17 -38 -8 -7 -9 -4 -4 8 3 10 6
27 6 38 0 10 5 19 11 19 7 0 9 -10 4 -27z m-53 -74 c-4 -41 -7 -199 -7 -351 0
-249 -3 -296 -18 -270 -16 26 -21 317 -9 497 7 102 6 122 -7 132 -13 11 -11
17 14 43 16 16 30 28 32 27 1 -2 -1 -37 -5 -78z m-266 -72 c1 -73 4 -220 7
-327 l6 -195 -47 -23 c-52 -25 -84 -30 -64 -10 7 7 12 39 12 76 0 39 4 61 10
57 11 -7 11 -5 11 88 0 37 4 67 10 67 5 0 9 -35 9 -77 0 -43 4 -84 9 -92 19
-30 23 17 11 165 -16 194 -5 432 19 409 3 -4 6 -66 7 -138z m200 114 c-28 -29
-28 -51 0 -51 9 0 12 -5 8 -12 -4 -6 -9 -61 -11 -122 -2 -61 -5 -127 -6 -146
-1 -19 2 -106 7 -194 7 -132 6 -158 -5 -154 -17 5 -37 146 -38 261 -1 57 -4
78 -13 75 -21 -7 -24 -48 -11 -158 14 -126 16 -180 5 -180 -9 0 -32 213 -32
294 0 34 5 52 17 61 15 11 16 19 5 77 -15 84 -15 153 1 178 10 17 9 22 -1 29
-11 6 -9 14 10 33 22 24 43 34 77 37 9 1 4 -10 -13 -28z m-133 -84 c9 -15 17
-44 17 -66 0 -22 5 -62 12 -90 10 -45 9 -53 -7 -71 -16 -18 -17 -31 -10 -137
15 -242 16 -233 -14 -233 l-26 0 1 168 c0 92 -3 217 -8 277 -9 120 1 296 12
219 3 -23 14 -53 23 -67z m-113 42 c0 -4 -5 -11 -11 -15 -6 -3 -9 -17 -6 -30
2 -14 0 -27 -4 -30 -5 -3 -10 14 -10 38 -1 24 -4 33 -6 21 -2 -12 -12 -27 -21
-34 -14 -11 -15 -11 -4 1 6 8 12 31 12 52 l0 38 25 -16 c14 -9 25 -20 25 -25z
m-223 -21 c13 -12 30 -34 36 -48 7 -14 20 -25 30 -25 20 0 57 -42 56 -65 0
-11 -5 -9 -18 8 -11 12 -30 22 -44 22 -28 0 -41 -25 -57 -107 -5 -29 -18 -61
-28 -71 -14 -14 -21 -41 -26 -94 -6 -65 -11 -77 -30 -88 -33 -17 -59 -9 -66
20 -5 20 -12 25 -35 25 -26 0 -30 -4 -30 -27 -1 -47 -55 -70 -122 -52 -20 5
-23 13 -23 52 0 50 21 82 52 82 26 0 17 24 -10 28 -14 2 -33 -8 -53 -27 -27
-27 -30 -37 -27 -79 3 -43 1 -47 -21 -50 -13 -2 -28 1 -34 7 -14 14 -22 141
-8 141 5 0 11 14 13 32 2 20 13 38 30 51 28 21 28 21 89 -11 4 -1 9 4 13 13 3
10 -4 27 -20 43 -73 78 -79 148 -17 202 33 29 41 32 85 28 33 -4 55 -12 69
-27 24 -26 64 -25 64 1 0 49 86 60 132 16z m731 -30 c12 1 22 -3 22 -8 0 -6
-14 -10 -32 -10 l-32 0 22 -20 c12 -12 23 -26 23 -33 1 -7 3 -19 4 -27 1 -8 3
-97 4 -197 1 -155 3 -183 16 -183 17 0 16 -9 15 212 -1 161 13 220 23 99 9
-111 -3 -335 -19 -344 -8 -4 -14 -20 -14 -35 0 -25 -3 -27 -40 -28 -33 -1 -41
2 -46 20 -2 11 -6 136 -7 276 -1 140 -6 264 -11 274 -8 17 -6 18 20 11 16 -4
39 -7 52 -7z m-171 -30 c-3 -7 -5 -2 -5 12 0 14 2 19 5 13 2 -7 2 -19 0 -25z
m-395 -41 c-5 -12 -17 -56 -25 -97 -9 -41 -19 -91 -24 -110 l-8 -35 -5 48 c-8
74 -24 65 -64 -33 -14 -35 -14 -35 -15 41 -1 87 7 139 22 139 5 0 7 -12 4 -28
-3 -15 -2 -34 3 -41 11 -19 77 48 85 86 9 40 29 77 33 63 3 -7 0 -22 -6 -33z
m449 -109 c-4 -52 -6 -58 -12 -33 -3 17 -7 66 -7 110 l0 80 12 -47 c6 -26 9
-75 7 -110z m259 142 c0 -5 -7 -10 -16 -10 -8 0 -12 5 -9 10 3 6 10 10 16 10
5 0 9 -4 9 -10z m78 -125 c10 -220 3 -415 -15 -415 -14 0 -20 124 -14 278 4
101 -7 188 -20 157 -5 -15 -8 -7 -8 27 -1 46 8 59 38 55 11 -2 16 -25 19 -102z
m-82 -102 c-2 -109 -7 -218 -11 -241 -7 -39 -5 -44 11 -40 17 3 19 12 16 73
-2 39 1 81 7 95 8 19 10 -2 8 -85 l-2 -110 -32 -3 -33 -3 -2 53 c-4 111 -4
443 -1 451 3 4 13 7 24 7 19 0 20 -6 15 -197z m180 89 c1 -59 9 -138 17 -177
9 -38 19 -105 23 -147 8 -88 -3 -100 -45 -49 -23 28 -24 33 -23 212 2 181 8
269 21 269 3 0 7 -48 7 -108z m56 42 c-5 -9 -8 -1 -9 23 -1 33 0 35 8 15 5
-13 5 -30 1 -38z m-545 -6 c-2 -13 -4 -5 -4 17 -1 22 1 32 4 23 2 -10 2 -28 0
-40z m439 36 c-3 -9 -6 -50 -6 -92 -1 -57 -3 -72 -11 -60 -12 22 -1 168 13
168 6 0 7 -7 4 -16z m-789 -106 c-2 -13 -4 -5 -4 17 -1 22 1 32 4 23 2 -10 2
-28 0 -40z m896 -58 c6 -14 12 -41 13 -60 0 -19 8 -66 17 -105 12 -53 13 -71
4 -77 -9 -5 -17 20 -30 95 -9 56 -22 116 -27 133 -6 17 -9 53 -9 80 l1 49 10
-45 c5 -25 15 -56 21 -70z m-923 39 c0 -28 -5 -38 -20 -42 -11 -3 -20 -4 -20
-2 0 2 5 27 11 56 12 57 29 51 29 -12z m394 -149 c2 -111 0 -196 -4 -189 -20
36 -22 414 -3 395 3 -2 6 -95 7 -206z m572 125 c7 -27 6 -29 -9 -16 -10 7 -17
25 -17 39 0 33 16 18 26 -23z m-249 -12 c-3 -10 -5 -4 -5 12 0 17 2 24 5 18 2
-7 2 -21 0 -30z m270 15 c-3 -8 -6 -5 -6 6 -1 11 2 17 5 13 3 -3 4 -12 1 -19z
m-1176 -25 c1 -5 3 -34 4 -66 2 -31 6 -68 9 -82 4 -17 -1 -31 -19 -51 -14 -15
-25 -33 -25 -41 0 -20 -55 -73 -74 -73 -22 0 -20 17 4 47 11 14 20 37 20 50 0
13 11 34 24 46 19 18 25 36 30 100 4 42 12 77 17 77 5 0 10 -3 10 -7z m1204
-43 c9 0 22 -6 28 -12 18 -19 38 -68 28 -68 -5 0 -14 12 -19 28 -7 18 -11 21
-11 9 -1 -22 49 -87 67 -87 7 0 12 -14 12 -36 l0 -37 -21 27 c-11 14 -27 26
-35 26 -12 0 -10 -8 6 -40 27 -53 25 -61 -5 -20 -14 19 -25 44 -25 56 0 39
-29 94 -49 94 -10 0 -22 7 -25 16 -10 26 -7 36 9 31 11 -5 13 1 9 26 -4 28 -3
29 5 10 6 -13 18 -23 26 -23z m-1038 -126 c-6 -106 -19 -144 -50 -144 -11 0
-15 4 -11 12 4 6 9 23 10 37 3 36 22 139 29 162 8 24 -10 25 -20 2 -4 -10 -11
-38 -15 -63 -28 -146 -30 -150 -72 -150 -25 0 -29 3 -23 18 4 9 9 24 12 34 3
9 13 18 24 21 15 4 19 14 19 47 0 25 -4 39 -10 35 -5 -3 -10 -19 -10 -36 0
-18 -5 -29 -14 -29 -8 0 -21 -18 -29 -39 -16 -39 -33 -58 -44 -48 -3 3 4 19
16 35 12 17 21 33 21 37 0 4 9 18 20 32 11 14 20 34 20 44 0 11 5 19 10 19 6
0 10 17 10 38 0 70 25 114 32 57 4 -36 20 -34 37 4 l15 32 14 -28 c11 -21 13
-51 9 -129z m475 -23 c3 -87 -3 -124 -16 -110 -9 9 -18 220 -11 256 l8 38 8
-43 c4 -23 9 -87 11 -141z m347 -35 c-9 -8 -10 -5 -5 14 3 14 7 52 8 85 2 59
2 58 5 -14 3 -48 0 -78 -8 -85z m559 127 c-11 -3 -18 -14 -18 -29 0 -18 -6
-24 -22 -25 -22 -1 -22 -2 2 -8 24 -6 25 -9 19 -56 -4 -36 -6 -41 -7 -17 -2
23 -7 32 -19 33 -16 0 -15 1 2 8 17 7 17 8 -8 15 -35 8 -34 22 1 34 16 6 20
11 10 11 -9 1 -20 6 -23 11 -11 18 6 30 43 29 20 -1 29 -3 20 -6z m-218 -18
c0 -10 -10 -15 -27 -15 l-28 0 25 14 c14 8 26 14 28 15 1 1 2 -6 2 -14z m11
-58 c-8 -8 -11 -7 -11 4 0 20 13 34 18 19 3 -7 -1 -17 -7 -23z m-141 -15 c0
-16 14 -47 31 -70 l31 -42 -39 0 c-48 0 -58 8 -37 31 12 13 13 22 5 38 -14 25
-14 71 -1 71 6 0 10 -13 10 -28z m383 21 c-7 -2 -19 -2 -25 0 -7 3 -2 5 12 5
14 0 19 -2 13 -5z m-177 -78 c19 -14 34 -31 34 -38 0 -8 -3 -8 -11 0 -6 6 -17
10 -23 9 -6 -2 -8 -1 -3 2 4 2 -4 13 -18 24 -18 14 -25 28 -24 51 2 29 2 30 6
5 2 -15 19 -37 39 -53z m61 30 c0 -8 -4 -15 -9 -15 -4 0 -8 7 -8 15 0 8 4 15
8 15 5 0 9 -7 9 -15z m-87 -57 c0 -6 -7 -5 -15 2 -8 7 -15 17 -15 22 0 6 7 5
15 -2 8 -7 15 -17 15 -22z m-380 -4 c0 -14 -4 -23 -10 -19 -5 3 -10 15 -10 26
0 10 5 19 10 19 6 0 10 -12 10 -26z m660 -49 c8 -9 8 -25 2 -47 -5 -19 -6 -54
-3 -79 4 -24 5 -65 3 -92 l-4 -47 -357 0 c-196 -1 -665 -2 -1043 -3 -377 -1
-690 2 -695 6 -4 5 -9 63 -11 131 l-4 121 499 2 c563 3 1286 13 1292 19 3 3
74 4 158 3 113 -1 155 -5 163 -14z"/>
<path d="M950 3649 c0 -5 6 -9 13 -9 8 0 22 -9 32 -20 17 -19 17 -21 0 -40
-10 -11 -25 -20 -32 -20 -8 0 -13 -6 -11 -12 6 -17 338 -24 338 -8 0 5 -7 10
-15 10 -11 0 -15 11 -15 40 0 31 4 40 17 40 11 0 13 3 8 9 -13 12 -335 22
-335 10z m85 -19 c3 -5 1 -10 -4 -10 -6 0 -11 5 -11 10 0 6 2 10 4 10 3 0 8
-4 11 -10z m79 -12 c8 -13 17 -33 21 -45 6 -21 3 -23 -28 -23 -29 0 -37 5 -47
30 -21 52 25 84 54 38z m64 -8 c-11 -18 -28 -27 -28 -16 0 2 -3 11 -6 20 -5
12 0 16 20 16 24 0 25 -2 14 -20z m53 7 c-1 -4 -1 -20 -1 -37 0 -27 -3 -30
-30 -30 l-30 0 20 41 c12 22 26 39 31 37 6 -2 10 -7 10 -11z m-191 -58 c0 -5
-7 -9 -15 -9 -15 0 -20 12 -9 23 8 8 24 -1 24 -14z"/>
<path d="M508 3623 c-56 -31 -65 -50 -12 -23 20 10 43 16 51 13 8 -3 19 0 24
8 5 8 9 9 9 3 0 -7 13 -10 30 -8 17 2 30 0 30 -5 0 -5 7 -12 16 -15 13 -5 15
-2 11 14 -3 11 -1 20 4 20 5 0 9 5 9 10 0 6 -27 10 -62 10 -49 0 -74 -6 -110
-27z"/>
<path d="M484 3556 c-18 -8 -34 -24 -37 -37 -9 -34 43 -129 82 -151 35 -20 40
-14 14 15 -17 18 -17 19 2 33 10 8 14 14 8 14 -15 0 -73 49 -73 61 0 13 57 11
82 -2 19 -10 20 -9 15 10 -6 25 8 28 22 4 6 -10 11 -12 11 -5 0 6 6 12 13 12
9 0 12 10 9 30 -4 29 -6 30 -61 30 -31 -1 -70 -7 -87 -14z"/>
<path d="M427 3394 c3 -21 15 -56 28 -78 19 -33 27 -39 60 -41 36 -2 37 -1 17
14 -11 9 -25 27 -32 39 -6 13 -14 21 -17 18 -3 -3 -15 11 -25 32 -30 55 -38
60 -31 16z"/>
<path d="M1025 2960 c-9 -16 -19 -30 -24 -30 -4 0 -20 -11 -35 -25 -24 -22
-26 -31 -25 -97 0 -40 3 -90 5 -110 l6 -37 71 5 c95 7 98 8 95 46 -3 26 1 33
22 38 15 3 38 25 58 54 37 55 31 79 -12 50 -30 -19 -43 -12 -48 26 -2 21 -8
25 -35 24 -29 -2 -31 1 -38 42 -7 52 -19 55 -40 14z m49 -80 c6 0 18 4 26 9
22 14 34 1 13 -15 -10 -7 -13 -14 -6 -14 7 0 10 -7 7 -15 -5 -12 2 -15 33 -15
21 0 45 6 52 13 24 22 -5 -25 -34 -55 -30 -33 -28 -32 -65 -13 -20 11 -30 23
-30 39 0 13 -13 37 -30 54 l-30 32 18 37 17 37 9 -47 c5 -26 14 -47 20 -47z"/>
<path d="M886 2633 c-37 -37 -56 -185 -29 -216 13 -14 17 -35 15 -100 -1 -45
1 -87 5 -93 5 -6 29 -14 54 -17 38 -5 50 -3 63 12 15 17 16 32 9 127 l-8 108
-45 -1 c-25 -1 -56 -3 -69 -5 -14 -2 -26 3 -29 11 -3 9 1 11 17 6 21 -6 30 8
11 20 -11 7 -13 58 -3 93 8 31 23 9 23 -35 0 -17 5 -35 10 -38 15 -9 40 13 40
35 0 10 7 23 15 30 13 11 15 9 15 -13 0 -13 -7 -30 -15 -37 -17 -14 -20 -40
-5 -40 6 0 10 6 10 14 0 7 7 19 15 26 18 15 20 61 3 78 -9 9 -18 5 -38 -20
l-27 -32 -11 47 c-13 50 -14 51 -26 40z"/>
<path d="M1175 2595 c3 -22 12 -45 21 -52 18 -13 22 -79 5 -96 -17 -17 -13
-26 9 -20 12 3 20 0 20 -6 0 -7 5 -9 10 -6 15 9 12 35 -4 35 -11 0 -13 9 -9
35 4 27 0 44 -20 73 -13 21 -27 47 -31 58 -3 10 -3 1 -1 -21z"/>
<path d="M475 2120 c3 -5 8 -10 11 -10 2 0 4 5 4 10 0 6 -5 10 -11 10 -5 0 -7
-4 -4 -10z"/>
<path d="M577 1953 c-4 -3 -7 -13 -7 -22 1 -13 3 -13 11 2 11 19 8 33 -4 20z"/>
<path d="M646 1814 c-3 -8 -11 -12 -17 -8 -7 4 -9 3 -6 -3 4 -6 0 -16 -9 -23
-12 -11 -12 -15 -2 -21 21 -14 28 -10 28 13 0 12 7 30 17 40 9 10 11 18 6 18
-6 0 -14 -7 -17 -16z"/>
<path d="M584 1574 c3 -9 6 -18 6 -20 0 -2 5 -4 10 -4 6 0 10 9 10 20 0 12 -7
20 -16 20 -11 0 -14 -5 -10 -16z"/>
<path d="M486 1547 c3 -15 1 -41 -6 -58 -13 -31 -7 -50 11 -32 18 18 21 77 5
98 -16 19 -16 19 -10 -8z"/>
<path d="M295 1530 c-8 -14 3 -30 21 -30 8 0 14 9 14 20 0 21 -24 28 -35 10z"/>
<path d="M317 1449 c6 -22 33 -26 33 -5 0 7 -8 16 -19 19 -14 3 -17 0 -14 -14z"/>
<path d="M1650 1420 c0 -5 5 -10 10 -10 6 0 10 5 10 10 0 6 -4 10 -10 10 -5 0
-10 -4 -10 -10z"/>
<path d="M1638 1383 c6 -2 18 -2 25 0 6 3 1 5 -13 5 -14 0 -19 -2 -12 -5z"/>
<path d="M1810 1349 c0 -6 -7 -9 -15 -5 -8 3 -15 1 -15 -4 0 -6 9 -10 20 -10
11 0 20 7 20 15 0 8 -2 15 -5 15 -3 0 -5 -5 -5 -11z"/>
<path d="M1985 520 c-3 -5 1 -10 9 -10 9 0 16 5 16 10 0 6 -4 10 -9 10 -6 0
-13 -4 -16 -10z"/>
<path d="M1539 253 c-1 -5 -2 -12 -4 -18 -1 -5 -3 -18 -3 -27 -3 -26 -15 -22
-34 12 -23 40 -43 38 -67 -7 l-19 -38 -11 28 c-6 16 -9 33 -5 38 3 5 -13 9
-35 9 -23 0 -41 -4 -41 -10 0 -5 6 -10 13 -10 15 0 57 -94 57 -128 0 -23 23
-29 50 -12 12 7 12 11 -3 28 -17 19 -17 21 -1 56 10 20 21 36 25 36 4 0 15
-17 24 -37 14 -28 15 -41 6 -55 -15 -25 -14 -28 12 -28 19 0 24 5 24 29 0 16
11 52 25 80 20 40 22 51 10 56 -18 7 -22 6 -23 -2z"/>
<path d="M1635 253 c-19 -3 -20 -10 -17 -73 3 -47 1 -70 -7 -70 -6 0 -11 -5
-11 -10 0 -6 19 -9 48 -6 26 2 55 5 65 5 12 1 17 9 17 29 -1 25 -2 26 -15 9
-18 -25 -49 -18 -53 11 -3 16 1 22 12 20 8 -2 15 0 15 5 2 22 0 27 -10 21 -14
-8 -29 14 -22 33 4 9 17 13 34 11 16 -1 30 2 31 7 3 10 -53 16 -87 8z"/>
<path d="M1764 243 c9 -29 10 -118 2 -131 -5 -8 3 -12 25 -12 26 0 30 3 21 12
-16 16 -15 58 1 58 6 0 25 -16 40 -35 28 -35 68 -47 82 -25 3 5 -1 10 -9 10
-8 0 -28 11 -43 24 l-28 24 18 32 c29 48 18 60 -53 60 -54 0 -61 -2 -56 -17z
m83 -9 c7 -19 -20 -49 -36 -40 -12 8 -15 39 -4 49 12 12 33 7 40 -9z"/>
<path d="M1013 242 c-65 -3 -73 -5 -73 -22 0 -21 15 -27 25 -10 3 6 15 10 27
10 19 0 20 -5 16 -70 l-4 -70 27 0 26 0 -5 70 c-4 66 -3 70 16 70 11 0 24 -4
27 -10 10 -17 25 -11 25 9 0 23 -16 27 -107 23z"/>
<path d="M1193 235 c-58 -25 -55 -120 6 -144 38 -16 81 -3 98 30 40 78 -24
148 -104 114z m62 -70 c0 -47 -2 -50 -25 -50 -22 0 -25 5 -28 39 -4 52 3 68
30 64 20 -3 23 -9 23 -53z"/>
<path d="M244 225 c-8 -21 6 -39 19 -26 6 6 19 11 30 11 17 0 18 -7 15 -65 -3
-64 -3 -65 23 -65 27 0 27 0 21 65 -4 54 -2 66 12 71 10 4 25 -1 36 -11 19
-17 20 -17 20 3 0 25 -16 30 -103 30 -49 0 -70 -3 -73 -13z"/>
<path d="M455 160 l0 -80 35 0 c26 0 31 3 22 12 -7 7 -12 25 -12 40 0 25 3 28
34 28 41 0 60 -21 52 -56 -6 -22 -4 -25 14 -22 11 2 21 6 20 11 0 4 0 39 0 77
l0 70 -32 0 c-25 0 -29 -3 -20 -12 21 -21 14 -48 -12 -48 -37 0 -56 10 -56 31
0 10 -4 19 -9 19 -5 0 -15 2 -23 5 -10 4 -13 -12 -13 -75z"/>
<path d="M640 231 c0 -6 5 -13 11 -17 8 -4 10 -29 6 -71 l-5 -64 62 3 c55 3
61 5 64 26 3 22 -12 30 -23 12 -3 -5 -17 -10 -31 -10 -18 0 -24 5 -24 21 0 15
5 19 19 14 13 -4 20 0 24 17 7 27 1 36 -15 20 -18 -18 -28 -15 -28 8 0 19 10
24 38 21 6 -1 12 5 12 14 0 12 -12 15 -55 15 -30 0 -55 -4 -55 -9z"/>
<path d="M1974 129 c-3 -6 -2 -15 2 -19 12 -12 38 5 30 19 -9 14 -23 14 -32 0z"/>
</g>
</svg>
