<?xml version="1.0" standalone="no"?>
<!DOCTYPE svg PUBLIC "-//W3C//DTD SVG 20010904//EN"
 "http://www.w3.org/TR/2001/REC-SVG-20010904/DTD/svg10.dtd">
<svg version="1.0" xmlns="http://www.w3.org/2000/svg"
 width="222.000000pt" height="383.000000pt" viewBox="0 0 222.000000 383.000000"
 preserveAspectRatio="xMidYMid meet">
<metadata>
Created by potrace 1.16, written by Peter Selinger 2001-2019
</metadata>
<g transform="translate(0.000000,383.000000) scale(0.100000,-0.100000)"
fill="#000000" stroke="none">
<path d="M1295 3813 c-71 -2 -134 -8 -139 -13 -6 -6 186 -9 509 -7 l519 2 0
-255 c1 -702 -4 -950 -17 -950 -8 0 -13 10 -13 23 1 17 -5 23 -26 25 -23 3
-28 -1 -28 -19 0 -18 -4 -21 -29 -16 -40 8 -61 -16 -37 -41 9 -10 16 -22 16
-27 0 -4 8 -13 17 -20 14 -10 15 -16 5 -27 -6 -8 -8 -18 -4 -22 4 -4 0 -6 -8
-4 -9 2 -14 -4 -14 -14 1 -10 -4 -14 -13 -11 -10 4 -11 9 -4 16 6 6 11 24 11
40 0 25 -2 28 -15 17 -10 -8 -15 -9 -15 -2 0 6 8 16 18 22 16 11 16 11 -1 6
-10 -3 -21 -6 -23 -6 -2 0 -4 -7 -4 -15 0 -8 -4 -15 -10 -15 -14 0 -12 37 3
43 9 4 8 6 -2 6 -8 1 -20 -7 -28 -16 -12 -16 -13 -15 -6 12 4 17 7 40 6 51 -1
18 7 23 41 30 30 5 35 8 18 11 -12 3 -27 14 -33 25 -12 22 -10 24 45 53 28 15
32 35 6 28 -17 -5 -19 -8 -8 -15 9 -7 5 -8 -12 -4 -14 3 -29 6 -33 6 -5 0 1
12 12 27 12 14 19 28 17 30 -8 8 -46 -18 -46 -31 0 -8 -7 -16 -15 -20 -27 -10
-16 -23 18 -19 24 3 29 2 17 -6 -8 -6 -26 -11 -39 -11 l-24 0 28 -26 c33 -31
22 -49 -24 -39 -38 8 -61 30 -61 56 0 15 5 18 24 13 18 -4 25 -1 29 17 9 32 0
37 -13 8 -9 -21 -10 -19 -6 13 3 21 0 40 -5 44 -17 10 -53 -4 -87 -37 -36 -34
-37 -50 0 -25 12 9 33 16 46 16 24 0 24 -1 7 -26 -16 -25 -16 -27 8 -63 29
-44 21 -71 -21 -71 -32 0 -43 -7 -59 -37 -16 -29 -16 -33 2 -33 8 0 12 6 9 14
-3 7 2 16 11 20 9 3 13 11 9 17 -4 7 -1 10 7 7 19 -6 12 -59 -9 -74 -16 -12
-15 -13 2 -20 18 -7 18 -8 -4 -16 -26 -10 -64 17 -56 39 3 7 1 13 -4 13 -16 0
-11 -23 10 -50 18 -24 27 -60 14 -60 -3 0 -20 10 -37 21 -29 20 -28 18 6 -15
21 -20 45 -36 53 -36 9 0 18 -9 21 -20 5 -20 43 -29 43 -10 0 6 -5 10 -11 10
-6 0 -9 6 -7 13 7 19 60 17 90 -4 14 -11 30 -19 36 -19 5 0 9 -29 9 -65 0 -54
-3 -66 -18 -70 -11 -4 -19 -11 -19 -17 0 -5 6 -7 13 -4 6 3 20 9 30 12 14 5
17 19 17 79 l0 73 -31 7 c-17 4 -33 13 -36 21 -3 8 -19 14 -37 14 -28 1 -29 2
-11 12 19 11 19 11 0 19 -18 7 -18 8 -2 8 9 1 30 -12 45 -28 38 -41 81 -46
126 -16 20 13 36 21 36 18 0 -4 14 6 30 22 l30 29 0 -42 c0 -23 -4 -42 -10
-42 -9 0 -14 14 -11 33 2 13 -53 -20 -78 -47 l-24 -26 34 -1 34 -1 -34 -11
-33 -11 6 -52 c4 -38 2 -54 -6 -57 -7 -2 -5 -3 4 -2 10 2 21 -1 24 -6 3 -5 16
-9 28 -9 15 0 26 -7 29 -20 3 -14 14 -20 31 -20 26 0 26 -1 26 -71 l0 -71 -36
32 c-29 25 -43 31 -65 26 -16 -3 -29 -1 -29 3 0 20 -277 280 -327 308 -26 13
-33 24 -34 48 -1 29 -1 29 -8 5 -11 -39 -45 -34 -49 8 -4 38 -10 39 -62 12
-47 -24 -52 -12 -15 32 14 17 24 33 21 35 -2 3 -26 10 -53 17 l-48 13 45 12
c77 20 74 17 46 65 -14 25 -26 47 -26 50 0 4 19 -7 42 -24 23 -17 45 -27 49
-23 4 5 10 26 13 48 l5 40 -11 -37 c-6 -21 -16 -38 -22 -38 -6 1 -27 14 -46
30 -54 47 -63 37 -25 -27 l34 -58 -50 -11 c-75 -18 -87 -24 -69 -34 8 -4 34
-11 58 -15 23 -4 42 -11 42 -16 0 -5 -12 -22 -27 -39 -26 -28 -30 -30 -63 -20
-19 6 -70 17 -113 24 -87 15 -133 9 -192 -24 -20 -11 -48 -20 -63 -20 -27 0
-70 -20 -44 -20 6 0 12 -4 12 -10 0 -5 -6 -10 -13 -10 -8 0 -22 -9 -33 -21
-16 -18 -27 -20 -69 -16 -27 3 -63 9 -80 12 -23 5 -26 4 -15 -4 13 -9 13 -11
-2 -11 -11 0 -18 -8 -18 -19 0 -27 -19 -39 -81 -52 -30 -6 -60 -16 -66 -21
-10 -8 -13 -5 -13 10 0 11 7 25 15 32 8 7 15 18 15 24 0 6 -13 -2 -27 -19 -26
-29 -26 -29 -19 -5 4 14 11 39 15 56 14 52 61 110 61 74 0 -5 17 2 38 16 30
21 45 25 81 21 27 -3 38 -2 30 4 -25 15 -81 10 -118 -13 -27 -16 -32 -17 -20
-4 9 10 33 23 54 30 25 9 32 15 22 19 -8 3 -36 -8 -61 -24 -26 -16 -51 -29
-56 -29 -5 0 -17 12 -25 28 -9 15 -13 18 -10 7 18 -51 18 -58 4 -50 -11 6 -11
5 -2 -5 7 -8 8 -21 4 -34 -35 -93 -39 -135 -15 -171 11 -17 26 -25 45 -25 15
0 31 -4 34 -10 3 -5 14 -10 24 -10 10 0 24 -7 31 -16 10 -11 23 -14 53 -9 l39
7 -26 -39 c-14 -21 -33 -63 -42 -93 -8 -30 -29 -85 -45 -121 l-30 -65 -58 9
c-35 6 -78 6 -112 0 -51 -9 -49 -10 44 -10 54 0 102 -4 107 -9 5 -5 2 -19 -10
-33 -17 -23 -20 -24 -58 -13 -23 7 -54 9 -73 5 -31 -7 -28 -8 29 -14 34 -3 66
-9 69 -13 10 -10 -78 -177 -99 -190 -13 -8 -24 -5 -47 12 -41 30 -90 28 -146
-5 -50 -31 -71 -73 -60 -121 7 -34 68 -96 108 -111 21 -8 27 -17 27 -41 0 -21
8 -34 26 -46 35 -23 18 -34 -37 -24 -87 17 -129 19 -129 8 0 -7 -4 -7 -13 0
-8 7 -29 9 -50 5 -22 -3 -42 -1 -51 6 -10 8 -16 8 -24 -2 -8 -9 -34 -13 -81
-13 -75 1 -90 8 -72 30 7 8 8 17 3 20 -6 3 -10 114 -11 260 l-2 254 53 16 c87
28 108 38 108 53 0 26 41 32 77 10 20 -12 44 -17 60 -14 14 3 44 -4 67 -14 23
-10 57 -18 76 -18 l35 1 -38 9 c-21 5 -51 16 -67 24 -16 8 -47 15 -68 15 -25
0 -49 8 -66 21 -25 20 -29 20 -59 6 -18 -9 -38 -25 -45 -36 -7 -12 -19 -21
-26 -21 -8 0 -35 -9 -60 -20 l-46 -19 0 357 c-1 1038 1 1605 6 1613 3 5 252 9
555 9 370 0 549 3 549 10 0 7 -178 10 -550 8 -498 -2 -552 -4 -566 -19 -13
-14 -15 -105 -16 -675 -1 -1185 2 -3025 5 -3081 0 -7 20 -15 44 -19 51 -7
2087 5 2121 13 l22 5 2 387 c1 212 2 409 1 436 -3 137 -3 579 0 1713 l3 1242
-135 1 c-75 0 -251 1 -391 3 -140 1 -313 1 -385 -1z m595 -1043 c0 -12 -28
-25 -36 -17 -9 9 6 27 22 27 8 0 14 -5 14 -10z m50 -165 c17 -32 -2 -60 -30
-45 -16 8 -17 14 -7 40 14 36 20 37 37 5z m200 4 c0 -5 -4 -9 -10 -9 -5 0 -10
7 -10 16 0 8 5 12 10 9 6 -3 10 -10 10 -16z m-65 -57 c-8 -8 -25 10 -25 26 0
13 2 13 14 -4 8 -10 13 -21 11 -22z m-195 8 c0 -5 -4 -10 -10 -10 -5 0 -10 5
-10 10 0 6 5 10 10 10 6 0 10 -4 10 -10z m270 -31 c0 -6 -4 -7 -10 -4 -5 3
-10 11 -10 16 0 6 5 7 10 4 6 -3 10 -11 10 -16z m30 17 c0 -3 -4 -8 -10 -11
-5 -3 -10 -1 -10 4 0 6 5 11 10 11 6 0 10 -2 10 -4z m-307 -40 c-3 -4 -9 -2
-14 5 -13 22 -11 31 5 17 8 -7 12 -17 9 -22z m37 14 c0 -5 -4 -10 -10 -10 -5
0 -10 5 -10 10 0 6 5 10 10 10 6 0 10 -4 10 -10z m30 0 c0 -5 -2 -10 -4 -10
-3 0 -8 5 -11 10 -3 6 -1 10 4 10 6 0 11 -4 11 -10z m20 -30 c0 -5 -4 -10 -10
-10 -5 0 -10 5 -10 10 0 6 5 10 10 10 6 0 10 -4 10 -10z m49 -11 c5 8 11 9 15
3 3 -6 2 -14 -4 -17 -15 -9 -40 2 -40 17 0 9 3 9 10 -2 8 -12 11 -13 19 -1z
m156 -7 c-3 -3 -11 0 -18 7 -9 10 -8 11 6 5 10 -3 15 -9 12 -12z m-277 -11 c3
-8 -1 -12 -9 -9 -7 2 -15 10 -17 17 -3 8 1 12 9 9 7 -2 15 -10 17 -17z m210
-6 c-6 -14 -13 -23 -15 -21 -5 5 15 46 22 46 3 0 -1 -11 -7 -25z m-148 11 c0
-11 -19 -15 -25 -6 -3 5 1 10 9 10 9 0 16 -2 16 -4z m180 -15 c0 -6 -4 -13
-10 -16 -5 -3 -10 1 -10 9 0 9 5 16 10 16 6 0 10 -4 10 -9z m-680 -27 c30 -8
69 -19 85 -24 17 -5 68 -18 114 -30 80 -20 87 -23 170 -99 171 -158 211 -200
211 -225 0 -14 -5 -28 -10 -31 -6 -3 -7 -18 -4 -33 5 -18 3 -24 -4 -17 -5 6
-12 19 -15 30 -3 11 -6 3 -7 -20 l-2 -40 -14 30 -15 30 5 -32 c4 -25 2 -33 -9
-33 -8 0 -15 9 -15 19 0 11 -5 23 -11 26 -7 5 -8 -5 -4 -29 5 -22 3 -36 -3
-36 -14 0 -22 25 -22 66 0 31 4 37 38 51 35 15 36 16 14 24 -12 5 -25 15 -28
24 -4 8 -12 15 -20 15 -16 0 -51 18 -72 38 -7 6 -19 12 -27 12 -7 0 -15 7 -19
15 -3 8 -13 15 -22 15 -9 0 -49 25 -89 55 l-72 55 -104 5 c-80 3 -98 2 -79 -7
14 -5 37 -27 52 -47 14 -20 80 -96 147 -170 66 -74 128 -151 138 -170 12 -25
18 -60 18 -111 0 -63 -5 -85 -27 -129 -16 -29 -28 -60 -28 -69 0 -10 -18 -50
-41 -91 -22 -41 -41 -88 -43 -105 -2 -17 -7 -39 -11 -48 -4 -11 -3 -18 4 -18
7 0 18 15 26 33 7 17 27 47 43 65 24 27 39 34 78 38 27 3 63 13 81 24 l33 19
0 -57 -1 -57 -59 -34 c-32 -18 -77 -51 -100 -73 -22 -22 -57 -46 -77 -55 -20
-8 -53 -26 -72 -39 -20 -13 -47 -24 -61 -24 -49 0 -57 17 -66 130 -20 266 -3
369 79 473 42 54 24 60 -22 7 l-38 -44 -27 28 c-14 16 -26 33 -26 38 0 4 -18
15 -40 24 -47 19 -80 56 -80 90 0 16 -11 31 -35 46 -33 22 -39 33 -36 70 1 9
-3 19 -9 23 -6 4 -10 -4 -10 -19 0 -37 -19 -72 -47 -85 -33 -15 -43 -14 -60 7
-8 9 -12 11 -8 5 3 -7 1 -13 -5 -13 -9 0 -31 39 -44 83 -8 26 -22 21 -53 -20
-15 -21 -36 -47 -45 -57 -10 -11 -30 -51 -45 -90 -15 -39 -42 -88 -61 -109
-23 -27 -32 -46 -30 -65 2 -22 -8 -36 -52 -76 -108 -98 -130 -124 -130 -155 0
-20 -8 -36 -25 -49 -27 -22 -32 -33 -12 -28 6 1 9 1 4 -1 -4 -3 -5 -8 -2 -12
2 -5 -9 -8 -25 -9 -16 0 -38 -5 -49 -11 -23 -13 -39 -53 -22 -59 6 -2 11 -9
11 -15 0 -6 -7 -4 -16 5 -23 22 -6 69 30 86 22 11 26 18 21 35 -4 12 -7 30 -8
39 -2 22 -27 3 -27 -20 0 -12 -3 -13 -12 -4 -9 9 -7 19 10 42 13 16 18 30 13
30 -5 0 -19 -12 -30 -27 -14 -19 -20 -23 -21 -12 0 8 11 26 25 39 13 12 22 26
20 30 -3 4 17 16 43 25 52 20 62 32 110 125 19 36 48 85 65 110 18 25 40 61
49 80 44 89 88 194 93 223 7 36 31 74 41 64 11 -11 44 13 44 32 0 23 17 31 54
24 22 -5 27 -2 24 8 -3 9 -16 13 -32 11 -15 -2 -34 2 -41 8 -10 9 -15 4 -20
-22 -10 -45 -12 -47 -36 -41 -12 3 -18 11 -15 19 7 18 -2 17 -39 -5 -28 -17
-31 -16 -75 7 -55 29 -74 47 -66 61 4 6 18 11 30 11 33 0 93 27 104 47 12 21
52 26 44 5 -3 -10 -1 -13 6 -8 7 4 12 17 12 29 0 16 3 18 12 9 20 -20 81 -14
120 13 20 14 44 25 53 25 9 0 26 10 38 21 48 46 96 60 182 54 45 -3 105 -13
135 -21z m170 1 c0 -29 1 -29 -37 -14 l-28 11 25 13 c35 20 40 18 40 -10z
m230 15 c0 -5 -7 -10 -15 -10 -8 0 -15 5 -15 10 0 6 7 10 15 10 8 0 15 -4 15
-10z m167 -32 c21 -17 15 -24 -18 -22 -29 2 -48 17 -49 38 0 10 50 -2 67 -16z
m-205 -10 c-7 -7 -12 -8 -12 -2 0 6 3 14 7 17 3 4 9 5 12 2 2 -3 -1 -11 -7
-17z m365 0 c-3 -8 -6 -5 -6 6 -1 11 2 17 5 13 3 -3 4 -12 1 -19z m-336 -15
c-12 -20 -14 -14 -5 12 4 9 9 14 11 11 3 -2 0 -13 -6 -23z m269 -34 c0 -5 -7
-9 -15 -9 -15 0 -20 12 -9 23 8 8 24 -1 24 -14z m72 -97 c-2 -53 -4 -98 -6
-99 -7 -7 -36 10 -36 21 0 6 -15 18 -33 26 -25 12 -33 22 -35 48 -4 45 4 68
21 54 7 -6 26 -12 42 -14 27 -3 30 0 31 27 2 44 3 49 11 41 4 -4 6 -51 5 -104z
m-22 62 c0 -8 -5 -12 -10 -9 -6 4 -8 11 -5 16 9 14 15 11 15 -7z m-635 -56
c53 -15 52 -15 74 -17 16 -1 134 -74 164 -100 16 -15 -16 -72 -52 -91 -22 -12
-29 -19 -18 -20 10 0 36 9 58 21 33 16 38 23 29 34 -24 29 20 29 76 2 57 -28
66 -47 34 -70 -13 -9 -18 -20 -14 -30 3 -9 -1 -26 -10 -39 -22 -31 -20 -45 3
-17 l18 23 7 -36 6 -35 53 26 c28 14 62 36 74 48 12 13 36 26 53 29 16 4 30 8
30 9 0 16 -15 35 -27 35 -13 0 -13 -2 -2 -17 12 -15 12 -16 -3 -10 -10 3 -20
2 -23 -3 -4 -6 -11 -10 -16 -10 -19 0 -4 21 29 42 l32 20 40 -40 c42 -41 55
-92 25 -92 -8 0 -15 -4 -15 -10 0 -5 4 -10 9 -10 5 0 7 -9 4 -20 -6 -22 -6
-22 -27 -14 -19 7 -21 30 -3 37 6 2 9 7 5 11 -3 4 -15 2 -27 -5 -15 -10 -17
-16 -9 -27 15 -18 -10 -36 -29 -20 -9 7 -13 7 -13 0 0 -6 5 -14 10 -17 6 -3
10 -11 10 -17 0 -7 -6 -6 -15 2 -10 8 -15 9 -15 2 0 -6 8 -15 17 -21 10 -5 14
-13 10 -17 -4 -4 -18 3 -32 16 -14 13 -25 18 -25 12 0 -7 -3 -11 -7 -11 -23 4
-33 -3 -33 -21 0 -11 -6 -20 -13 -20 -23 0 -27 12 -9 26 11 9 13 13 4 14 -7 0
-10 5 -7 10 3 6 0 13 -9 16 -8 3 -12 12 -10 19 3 7 1 16 -5 20 -6 3 -11 1 -11
-5 0 -7 -7 -10 -14 -7 -11 4 -13 1 -9 -10 4 -11 2 -14 -8 -11 -8 2 -15 17 -17
31 l-3 27 -26 -30 c-21 -25 -24 -37 -18 -67 3 -20 17 -45 30 -55 31 -24 41
-118 13 -118 -20 0 -24 26 -5 33 9 4 8 8 -3 16 -24 17 -35 7 -32 -28 1 -18 -2
-41 -8 -51 -8 -15 -7 -18 3 -14 8 3 20 -2 27 -11 11 -13 8 -14 -21 -9 -28 6
-32 4 -21 -7 18 -19 15 -29 -9 -29 -15 0 -19 5 -15 15 3 8 1 15 -4 15 -6 0
-10 5 -10 11 0 6 6 9 14 6 10 -4 15 5 18 34 4 41 -4 55 -22 44 -8 -5 -8 -11 0
-20 9 -10 6 -19 -9 -34 -12 -12 -21 -28 -21 -36 0 -8 -4 -15 -9 -15 -5 0 -12
-12 -15 -26 -4 -15 -9 -24 -11 -22 -5 5 31 110 59 173 24 53 24 170 0 217 -20
41 -103 145 -204 258 -118 133 -117 129 -45 108z m-453 -315 c25 -27 70 -30
111 -8 44 23 97 -7 97 -55 0 -34 -14 -40 -94 -40 -35 0 -88 -5 -117 -12 -60
-13 -134 -16 -145 -6 -11 11 16 65 64 131 44 59 45 60 54 37 5 -14 19 -35 30
-47z m829 -132 c40 -39 51 -68 24 -57 -9 3 -15 0 -15 -8 0 -8 -3 -21 -6 -30
-3 -9 -1 -16 4 -16 6 0 13 8 15 18 3 9 5 0 6 -21 1 -27 -3 -36 -11 -31 -8 5
-9 -7 -5 -47 4 -30 7 -76 8 -104 0 -27 3 -44 6 -37 12 30 23 -6 23 -78 0 -43
4 -81 8 -84 5 -3 7 17 4 43 -4 43 -1 51 17 61 14 7 38 8 69 4 26 -4 52 -8 58
-8 28 -2 63 -56 69 -108 7 -58 3 -132 -10 -162 -6 -13 -4 -21 3 -24 7 -2 12
-22 12 -44 0 -38 -2 -40 -25 -36 -14 3 -25 1 -25 -3 0 -8 21 -13 41 -11 3 1 6
-19 7 -44 0 -42 -1 -44 -28 -44 -16 0 -31 -4 -34 -8 -2 -4 11 -6 30 -4 26 3
34 1 34 -12 0 -11 -9 -16 -26 -16 -17 0 -28 -6 -31 -20 -6 -23 -16 -25 -44
-10 -25 14 -24 28 4 41 20 9 20 9 -5 4 -17 -3 -28 -1 -28 5 0 6 -5 8 -12 4 -8
-5 -9 -9 -1 -11 6 -2 9 -12 6 -22 -3 -10 0 -22 6 -25 5 -4 9 -12 7 -19 -1 -7
-1 -9 1 -4 6 10 51 9 57 -2 15 -24 -85 -29 -105 -5 -7 9 -14 34 -14 55 0 22
-3 39 -7 39 -5 0 -8 15 -8 33 0 25 6 37 23 45 l22 11 -22 0 c-21 1 -23 6 -24
69 -1 89 -9 195 -14 201 -8 7 -5 -131 5 -298 11 -172 29 -229 81 -256 33 -17
39 -18 39 -6 0 5 -11 12 -25 15 -36 9 -31 23 8 22 17 0 50 3 72 8 25 5 35 4
27 -2 -7 -5 -12 -15 -10 -22 2 -8 -9 -16 -27 -20 l-30 -7 34 -4 c19 -2 36 -9
38 -15 6 -19 -45 -25 -108 -13 -47 9 -63 9 -72 0 -9 -10 -4 -19 23 -41 29 -25
32 -31 20 -40 -8 -5 -18 -10 -22 -10 -5 0 -8 -4 -8 -10 0 -5 14 -10 30 -10 38
0 40 -20 3 -21 l-28 -1 28 -11 c15 -6 27 -14 27 -18 0 -10 -71 -17 -100 -9
-29 8 -30 24 0 28 11 2 20 8 20 13 0 14 -16 11 -41 -9 -28 -23 -20 -52 15 -52
23 0 44 -16 34 -25 -2 -3 -31 0 -64 5 -102 17 -107 67 -9 96 70 20 86 44 49
73 -15 12 -32 21 -40 21 -7 0 -14 4 -16 10 -5 16 -100 -13 -112 -35 -17 -30
-37 -43 -78 -50 -20 -4 -42 -13 -49 -21 -6 -7 -15 -12 -19 -9 -4 3 -10 -1 -13
-9 -3 -8 -19 -17 -35 -21 -17 -3 -33 -13 -36 -21 -3 -8 -11 -14 -18 -13 -10 0
-10 2 0 6 6 2 12 13 12 23 0 12 10 21 29 25 16 3 31 14 34 25 4 14 18 20 61
25 61 8 74 18 56 40 -14 17 -90 20 -90 4 0 -6 9 -8 20 -4 11 3 20 2 20 -3 0
-6 10 -8 22 -4 14 3 19 2 14 -6 -4 -7 -17 -12 -29 -12 -39 0 -97 -21 -97 -34
0 -8 -13 -19 -30 -25 -17 -5 -30 -17 -30 -27 0 -12 -6 -15 -25 -10 -15 4 -25
2 -25 -4 0 -6 -8 -9 -17 -6 -18 6 -43 -30 -43 -60 0 -20 -30 -44 -54 -44 -13
0 -29 -7 -36 -15 -7 -8 -19 -15 -27 -15 -8 0 -32 -14 -53 -30 l-39 -31 -328 3
c-180 1 -318 3 -306 5 12 3 27 10 33 18 6 8 17 12 25 9 32 -13 165 48 165 75
0 25 15 35 73 51 26 7 50 17 53 21 3 5 17 9 32 9 39 0 72 11 72 22 0 6 -9 7
-22 3 -13 -4 -39 -8 -58 -9 -19 -2 -44 -7 -55 -13 -28 -14 -106 -41 -205 -69
-75 -21 -79 -23 -35 -19 28 2 61 7 75 11 l25 7 -22 -22 c-12 -11 -29 -21 -36
-21 -8 0 -20 -6 -26 -14 -6 -7 -30 -17 -54 -21 -57 -10 -230 -7 -281 5 -53 12
-89 13 -82 1 4 -5 41 -12 84 -16 42 -3 91 -9 107 -13 29 -6 28 -6 -15 -13 -82
-13 -272 -10 -324 6 -27 8 -53 15 -58 15 -15 0 -8 -19 9 -23 12 -3 8 -5 -9 -6
-27 -1 -46 13 -30 23 5 3 7 31 4 62 -3 40 -1 59 9 64 10 7 10 12 1 23 -8 9
-12 74 -13 206 l-1 193 27 28 c17 17 61 40 114 60 78 28 101 31 214 34 l127 3
-2 -31 c-4 -61 2 -166 10 -166 4 0 8 105 9 233 1 127 3 237 3 244 0 7 6 10 14
7 20 -8 36 -58 35 -108 -1 -40 -1 -40 -13 16 -7 32 -15 61 -19 64 -14 14 -17
-3 -6 -34 7 -20 10 -107 7 -242 -1 -115 0 -210 5 -210 4 0 8 37 8 83 1 45 3
118 5 162 2 44 3 88 4 97 0 10 5 17 12 15 6 -1 14 9 18 23 5 17 8 1 11 -50 3
-41 1 -82 -3 -90 -5 -10 -8 -6 -8 15 -1 17 -5 39 -9 49 -4 11 -8 -54 -9 -144
-1 -90 1 -160 5 -156 7 7 10 37 12 145 2 98 11 67 17 -55 3 -60 7 -110 10
-113 2 -2 4 59 4 137 l0 142 68 0 c37 0 74 5 82 10 11 8 -8 10 -65 8 l-80 -3
-3 33 -3 32 78 0 c54 1 73 4 62 10 -10 6 -43 6 -83 2 -36 -5 -66 -6 -66 -3 1
23 27 28 173 30 140 2 158 0 164 -15 9 -24 -58 -76 -121 -92 -55 -14 -79 -29
-70 -44 4 -5 53 -9 113 -8 58 2 122 -1 141 -4 35 -7 35 -7 10 8 -24 16 -24 16
30 15 91 -2 227 -36 300 -74 28 -15 58 -60 59 -90 1 -11 -8 -35 -20 -54 l-20
-33 -21 38 c-11 22 -27 43 -35 47 -8 5 -35 29 -61 53 -25 24 -52 44 -61 44 -9
0 -3 -9 15 -22 16 -13 41 -35 56 -51 15 -15 31 -27 35 -27 15 0 43 -62 43 -94
0 -26 -9 -41 -41 -69 -47 -42 -53 -45 -44 -17 3 11 2 20 -4 20 -5 0 -13 -10
-17 -22 -7 -26 -31 -51 -56 -61 -10 -3 -18 -11 -18 -18 0 -6 6 -9 14 -6 18 7
99 -17 90 -26 -4 -4 -2 -7 4 -7 6 0 17 7 25 15 8 7 28 17 43 21 16 3 38 12 49
19 12 7 48 18 80 25 33 7 80 23 105 35 32 16 51 20 62 14 11 -6 28 -5 50 4
l32 13 -51 0 c-28 0 -58 6 -67 13 -9 8 -16 9 -16 3 0 -6 6 -12 13 -15 20 -6
-46 -36 -120 -53 -37 -8 -79 -22 -93 -30 -36 -20 -131 -34 -152 -23 -22 12
-23 25 -3 33 8 3 15 1 15 -5 0 -6 5 -7 10 -4 6 4 8 11 5 16 -4 5 1 9 9 9 9 0
33 16 53 36 21 20 55 42 75 51 39 16 75 58 58 68 -12 7 -2 57 13 67 6 3 12 31
13 61 2 51 0 56 -42 102 -24 27 -44 46 -44 41 0 -4 -7 0 -16 8 -8 9 -27 16
-41 16 -26 0 -90 26 -99 41 -9 15 6 48 25 54 9 3 22 17 29 33 8 18 10 20 6 5
-6 -27 11 -30 40 -8 15 11 17 17 7 29 -9 11 -9 15 1 20 7 3 2 3 -12 1 -14 -3
-79 -6 -145 -7 l-120 -3 -1 110 c-1 73 -6 124 -17 152 -8 22 -13 44 -10 47 4
3 1 6 -5 6 -7 0 -12 3 -12 8 0 4 33 6 74 4 41 -2 112 4 158 12 47 9 101 16
122 16 l37 0 -7 -97 c-4 -54 -8 -100 -10 -102 -2 -2 1 -12 6 -22 6 -10 14 -63
19 -119 10 -118 18 -131 83 -132 36 -1 61 9 143 58 55 32 106 59 113 59 7 0
18 11 25 25 11 21 76 75 83 68 1 -2 5 -69 8 -150 4 -112 3 -148 -7 -151 -9 -4
-9 -8 2 -15 14 -10 13 -46 -3 -222 -2 -19 -1 -26 1 -15 3 11 9 25 15 32 10 13
11 412 1 678 -9 226 -9 228 0 253 5 14 4 22 -2 22 -6 0 -11 -9 -11 -21 0 -31
-22 -18 -43 24 -18 36 -16 57 5 57 6 0 28 -17 49 -39z m277 12 c-2 -16 -7 -32
-13 -36 -6 -6 -6 -10 3 -14 15 -6 16 -43 1 -43 -8 0 -8 -5 1 -15 15 -18 6 -45
-15 -45 -17 0 -21 -16 -4 -22 7 -2 7 -11 0 -28 -5 -14 -10 -19 -10 -12 -1 6
-6 12 -12 12 -6 0 -9 -16 -7 -37 2 -31 7 -37 22 -35 11 2 15 -1 11 -7 -3 -6
-15 -11 -26 -11 -16 0 -19 7 -19 44 0 25 5 48 10 51 15 10 12 35 -5 35 -8 0
-15 5 -15 10 0 6 4 9 9 8 5 -2 8 0 8 3 -1 3 4 13 11 21 10 13 10 17 -2 21 -9
4 -19 -1 -24 -10 -6 -9 -24 -16 -43 -17 -40 -1 -74 -28 -66 -50 5 -11 0 -16
-13 -16 -11 0 -20 -6 -21 -12 0 -7 -5 1 -10 19 -13 45 25 127 61 131 60 6 110
26 136 53 15 16 29 29 31 29 2 0 2 -12 1 -27z m-798 -29 c14 -6 30 -21 36 -32
5 -12 21 -29 33 -39 19 -16 22 -23 13 -39 -6 -10 -13 -26 -15 -35 -4 -11 -17
-15 -55 -13 -27 1 -90 -6 -138 -17 -102 -22 -189 -18 -241 12 -41 23 -41 16
-3 -41 44 -66 53 -109 56 -270 2 -136 6 -178 18 -199 3 -4 -4 -18 -15 -30 -27
-28 -18 -40 9 -13 17 17 21 18 26 5 13 -32 6 -38 -36 -36 -24 1 -70 -4 -103
-12 -41 -10 -77 -12 -115 -6 l-55 8 40 7 c62 12 67 14 115 56 l44 39 -26 98
c-81 299 -94 342 -125 412 -23 50 -6 76 70 111 88 40 176 61 287 69 97 7 99 7
180 -35z m730 36 c0 -5 -4 -10 -10 -10 -5 0 -10 5 -10 10 0 6 5 10 10 10 6 0
10 -4 10 -10z m-1170 -34 c0 -2 -7 -6 -15 -10 -8 -3 -15 -1 -15 4 0 6 7 10 15
10 8 0 15 -2 15 -4z m1148 -186 c2 -54 1 -60 -17 -60 -11 0 -23 -4 -26 -10
-10 -17 -25 -11 -25 9 0 25 17 36 34 22 10 -9 15 -8 19 3 11 27 -4 56 -29 56
-15 0 -24 6 -24 15 0 18 12 19 28 3 9 -9 13 -7 18 5 12 31 19 17 22 -43z
m-1253 8 c3 -13 10 -32 16 -43 8 -18 38 -113 73 -237 10 -35 11 -49 2 -59 -8
-9 -8 -10 2 -5 6 4 12 2 12 -3 0 -6 -6 -11 -12 -12 -7 0 -35 -2 -63 -4 -213
-13 -230 -13 -237 -2 -5 7 -8 -1 -8 -18 -1 -38 -14 -16 -24 38 -5 28 -14 40
-33 48 -19 7 -29 6 -35 -3 -7 -10 -9 -10 -5 2 5 19 63 25 83 9 8 -7 13 -18 10
-25 -3 -7 -1 -16 5 -20 7 -4 8 14 5 50 -3 38 0 66 10 84 7 15 14 34 14 42 0
14 158 180 172 180 4 0 9 -10 13 -22z m1055 -43 c0 -13 -7 -26 -16 -29 -14 -5
-15 -4 -4 8 10 13 9 19 -4 32 -20 19 -11 40 10 23 8 -6 14 -22 14 -34z m157
31 c-5 -15 -69 -14 -74 1 -3 8 9 12 37 11 26 0 39 -5 37 -12z m-82 -16 c3 -5
1 -10 -4 -10 -6 0 -11 5 -11 10 0 6 2 10 4 10 3 0 8 -4 11 -10z m-1444 -15
c30 -16 31 -38 1 -33 -11 2 -17 -4 -17 -17 -1 -24 -13 -45 -26 -45 -6 0 -7 5
-4 10 3 6 4 10 0 10 -11 0 -24 -48 -18 -68 3 -11 18 -27 35 -35 41 -20 20 -30
-28 -14 -22 7 -46 13 -54 12 -29 -2 -49 15 -59 51 -10 37 -5 68 10 58 5 -3 9
0 9 5 0 6 -5 11 -12 11 -18 0 10 24 57 49 47 25 66 26 106 6z m1483 -53 c10
-16 45 -40 77 -55 33 -15 59 -29 59 -31 0 -8 -64 0 -90 11 -14 6 -39 9 -57 8
-31 -3 -31 -2 -35 47 -1 27 -1 51 0 53 8 8 28 -7 46 -33z m94 -5 c2 -11 -3
-17 -17 -17 -23 0 -35 15 -26 31 10 15 39 6 43 -14z m-230 2 c-2 -6 -8 -10
-13 -10 -5 0 -11 4 -13 10 -2 6 4 11 13 11 9 0 15 -5 13 -11z m-49 -13 c8 -10
9 -16 1 -21 -5 -3 -13 1 -16 10 -4 9 -12 14 -19 11 -6 -2 -18 0 -26 5 -10 6
-5 9 17 9 17 0 37 -6 43 -14z m339 2 c-7 -19 -38 -22 -38 -4 0 10 9 16 21 16
12 0 19 -5 17 -12z m-456 -40 c-7 -7 -12 -8 -12 -2 0 6 3 14 7 17 3 4 9 5 12
2 2 -3 -1 -11 -7 -17z m403 12 c3 -6 -1 -7 -9 -4 -18 7 -21 14 -7 14 6 0 13
-4 16 -10z m62 -47 c-4 -3 -2 -12 4 -20 8 -9 8 -13 1 -13 -6 0 -14 5 -17 10
-6 10 2 30 12 30 4 0 3 -3 0 -7z m-1724 -60 c-7 -2 -19 -2 -25 0 -7 3 -2 5 12
5 14 0 19 -2 13 -5z m454 -139 c-3 -3 -12 -4 -19 -1 -8 3 -5 6 6 6 11 1 17 -2
13 -5z m363 -12 c0 -4 -11 -8 -25 -8 -33 -2 -33 11 0 14 14 1 25 -2 25 -6z
m-393 -8 c-3 -3 -12 -4 -19 -1 -8 3 -5 6 6 6 11 1 17 -2 13 -5z m353 -60 c0
-26 -10 -36 -24 -25 -6 5 -29 11 -51 13 -28 2 -41 8 -43 21 -3 15 4 17 57 15
54 -3 61 -5 61 -24z m-877 4 l178 3 -3 -62 -3 -63 -50 -2 c-212 -11 -225 -13
-302 -44 -43 -17 -87 -40 -99 -51 -27 -26 -31 -24 -26 11 4 25 10 30 41 35 20
4 50 13 66 21 l30 15 -30 -8 c-49 -11 -108 -9 -112 5 -3 7 4 12 19 12 20 1 21
2 6 11 -26 15 -22 32 5 23 29 -9 417 -13 417 -3 0 3 -98 8 -217 11 -208 4
-234 8 -221 34 2 4 84 6 183 6 99 -1 196 3 215 7 22 5 -45 8 -177 7 -158 -1
-215 2 -224 12 -10 10 -6 12 24 12 20 0 37 5 37 11 0 7 11 8 33 3 17 -5 112
-7 210 -6z m830 -35 c-7 -2 -13 -9 -13 -15 0 -6 7 -7 16 -4 8 3 12 2 9 -4 -6
-9 -65 -15 -65 -6 0 2 -3 11 -6 20 -5 13 1 16 32 15 22 0 33 -3 27 -6z m71
-51 c-6 -4 -11 -14 -11 -23 0 -13 14 -18 57 -22 54 -6 140 -48 140 -69 0 -14
-21 -9 -87 22 -34 17 -71 30 -82 30 -10 0 -31 4 -47 9 -16 5 -41 12 -56 15
-39 9 -36 34 5 39 58 7 92 7 81 -1z m64 -12 c-7 -11 -16 -20 -20 -20 -5 0 -3
9 4 20 7 11 16 20 20 20 5 0 3 -9 -4 -20z m872 -180 c0 -5 -9 -10 -20 -10 -11
0 -20 5 -20 10 0 6 9 10 20 10 11 0 20 -4 20 -10z m-19 -30 c28 -15 24 -49 -7
-60 -29 -12 -117 -13 -128 -3 -4 4 19 14 51 23 43 12 58 20 57 33 -2 20 1 21
27 7z m-116 -170 c3 -5 -1 -10 -9 -10 -9 0 -16 5 -16 10 0 6 4 10 9 10 6 0 13
-4 16 -10z m-82 -48 c26 -23 21 -29 -36 -46 -59 -17 -87 -41 -87 -74 0 -26 21
-38 85 -47 69 -10 103 -30 122 -70 31 -64 33 -64 -345 -65 -186 -1 -359 -3
-385 -4 -46 -3 -47 -3 -31 15 9 10 29 21 45 24 16 4 31 11 34 16 4 5 14 9 24
9 22 0 71 50 71 73 0 9 9 21 19 27 30 15 36 12 17 -9 -10 -11 -16 -30 -14 -43
5 -24 8 -19 23 27 2 8 15 15 29 15 13 0 38 12 55 26 17 14 31 23 31 19 0 -4 7
-2 16 6 13 10 17 10 25 -2 12 -19 11 -32 -2 -24 -5 4 -19 -1 -30 -11 -10 -9
-29 -22 -42 -28 -29 -15 -33 -47 -9 -69 18 -17 22 -17 61 -1 22 9 41 20 41 25
0 12 -3 11 -36 -5 -32 -17 -67 -5 -62 22 4 20 44 28 63 12 8 -7 27 -9 47 -5
25 5 38 2 47 -9 18 -21 5 -39 -19 -26 -25 13 -30 13 -30 -4 0 -8 10 -18 21
-21 24 -8 43 8 53 42 6 19 1 25 -28 37 -34 14 -35 16 -24 41 8 18 8 29 2 33
-6 4 -13 15 -17 24 -5 13 3 18 36 23 26 5 52 18 71 38 49 48 107 52 159 9z
m110 23 c4 -8 2 -17 -3 -20 -6 -4 -10 3 -10 14 0 25 6 27 13 6z m105 -26 c-3
-42 -8 -45 -53 -25 l-30 13 28 6 c38 10 34 27 -8 27 -19 0 -35 4 -35 8 0 5 23
9 50 9 l50 1 -2 -39z m-7 -78 c-6 -10 -7 -21 -4 -25 3 -3 -10 -6 -30 -6 -20 0
-37 5 -37 10 0 6 14 10 32 10 34 0 29 14 -7 23 -11 3 -3 5 18 6 34 1 37 -1 28
-18z m-96 -52 c12 -19 -5 -23 -22 -6 -16 16 -16 17 -1 17 9 0 20 -5 23 -11z
m99 2 c4 -5 0 -12 -6 -15 -10 -5 -10 -7 0 -12 18 -9 15 -34 -5 -34 -15 0 -15
2 -4 9 10 7 4 9 -20 8 -30 -2 -34 1 -37 26 -3 25 -1 27 32 27 19 0 37 -4 40
-9z m-504 -21 c8 -5 12 -12 9 -15 -8 -8 -39 5 -39 16 0 11 11 11 30 -1z m410
-46 c0 -16 17 -19 22 -4 2 6 18 3 38 -8 29 -14 35 -23 38 -54 l3 -38 -55 0
-55 0 6 35 c3 21 1 35 -5 35 -5 0 -12 8 -16 18 -3 9 -10 27 -16 40 -9 22 -9
22 15 6 14 -9 25 -23 25 -30z m93 -248 c-1 -70 -4 -130 -7 -134 -2 -4 -256 -9
-563 -11 -307 -1 -784 -4 -1060 -6 l-503 -3 0 129 0 129 33 1 c17 0 109 2 202
4 94 2 532 7 975 10 443 4 806 8 808 9 1 2 28 2 60 0 l57 -3 -2 -125z"/>
<path d="M772 2238 c-17 -17 -15 -36 6 -47 13 -7 23 -6 30 1 17 17 15 45 -4
52 -20 8 -18 8 -32 -6z m20 -20 c-7 -7 -12 -8 -12 -2 0 14 12 26 19 19 2 -3
-1 -11 -7 -17z"/>
<path d="M1407 2207 c9 -57 -34 -117 -82 -117 -10 0 -35 14 -56 31 -21 17 -39
28 -39 24 0 -18 24 -46 50 -60 39 -20 101 -5 124 30 17 26 22 110 7 120 -6 3
-8 -8 -4 -28z"/>
<path d="M1345 2140 c-3 -5 1 -10 10 -10 9 0 13 5 10 10 -3 6 -8 10 -10 10 -2
0 -7 -4 -10 -10z"/>
<path d="M1357 1954 c-3 -3 -3 -12 0 -20 4 -11 9 -12 19 -3 8 6 14 15 14 20 0
10 -24 12 -33 3z"/>
<path d="M558 1453 c6 -2 12 -11 12 -19 0 -8 5 -14 10 -14 6 0 10 4 10 8 0 12
-22 32 -34 31 -6 0 -5 -3 2 -6z"/>
<path d="M1856 2040 c-11 -3 -15 -9 -10 -13 10 -6 42 9 34 16 -3 3 -14 1 -24
-3z"/>
<path d="M1750 2020 c0 -5 -7 -7 -15 -4 -8 4 -15 2 -15 -3 0 -18 12 -22 31
-10 20 13 25 27 9 27 -5 0 -10 -4 -10 -10z"/>
<path d="M1740 1970 c0 -5 5 -10 10 -10 6 0 10 5 10 10 0 6 -4 10 -10 10 -5 0
-10 -4 -10 -10z"/>
<path d="M1772 1960 c-12 -19 -11 -20 8 -8 11 7 20 16 20 20 0 15 -15 8 -28
-12z"/>
<path d="M2077 1953 c3 -8 12 -12 20 -9 8 3 19 6 24 6 5 0 9 4 9 8 0 5 -13 9
-29 9 -21 0 -28 -4 -24 -14z"/>
<path d="M2135 1940 c-3 -5 -1 -10 4 -10 6 0 11 5 11 10 0 6 -2 10 -4 10 -3 0
-8 -4 -11 -10z"/>
<path d="M2040 1931 c0 -13 28 -33 33 -23 3 4 -3 13 -14 20 -10 7 -19 8 -19 3z"/>
<path d="M2095 1930 c-3 -5 1 -10 9 -10 9 0 16 5 16 10 0 6 -4 10 -9 10 -6 0
-13 -4 -16 -10z"/>
<path d="M1800 1900 c0 -5 5 -10 10 -10 6 0 10 5 10 10 0 6 -4 10 -10 10 -5 0
-10 -4 -10 -10z"/>
<path d="M2025 1899 c-4 -5 -16 -7 -28 -4 -12 2 -16 2 -9 -1 18 -9 15 -21 -9
-27 -25 -7 -16 -27 12 -27 13 0 19 6 17 18 -2 12 4 17 19 17 28 0 34 7 18 22
-9 9 -16 9 -20 2z"/>
<path d="M1810 1720 c0 -5 9 -10 20 -10 11 0 20 5 20 10 0 6 -9 10 -20 10 -11
0 -20 -4 -20 -10z"/>
<path d="M1340 1589 c0 -5 5 -7 10 -4 6 3 10 8 10 11 0 2 -4 4 -10 4 -5 0 -10
-5 -10 -11z"/>
<path d="M1147 1564 c-11 -12 3 -23 21 -17 13 4 13 2 -3 -10 -11 -9 -25 -17
-30 -17 -22 0 -34 -22 -24 -42 9 -17 18 -19 72 -13 54 5 76 16 77 36 0 4 -11
10 -24 13 -19 5 -23 11 -18 28 4 17 2 20 -11 15 -9 -3 -19 -2 -22 3 -7 11 -29
13 -38 4z m23 -68 l32 -13 -26 -7 c-31 -8 -46 -1 -46 20 0 17 0 17 40 0z m70
-6 c0 -5 -7 -10 -15 -10 -8 0 -15 5 -15 10 0 6 7 10 15 10 8 0 15 -4 15 -10z"/>
<path d="M1360 1560 c0 -5 5 -10 10 -10 6 0 10 5 10 10 0 6 -4 10 -10 10 -5 0
-10 -4 -10 -10z"/>
<path d="M1280 1544 c0 -8 5 -12 10 -9 6 4 8 11 5 16 -9 14 -15 11 -15 -7z"/>
<path d="M1250 1539 c0 -5 5 -7 10 -4 6 3 10 8 10 11 0 2 -4 4 -10 4 -5 0 -10
-5 -10 -11z"/>
<path d="M1310 1492 c0 -9 6 -12 16 -8 9 3 24 6 35 6 10 0 19 4 19 10 0 5 -16
9 -35 8 -23 -1 -35 -6 -35 -16z"/>
<path d="M1253 1443 c-18 -7 -16 -23 2 -23 8 0 15 -4 15 -10 0 -5 -6 -10 -14
-10 -8 0 -17 -7 -20 -16 -3 -9 -12 -14 -20 -11 -8 3 -21 -2 -30 -12 -14 -15
-14 -19 0 -39 24 -34 67 -29 93 11 11 17 21 27 21 20 0 -6 -4 -15 -10 -18 -15
-9 -12 -25 4 -19 23 9 29 37 11 50 -11 8 -16 23 -13 46 3 33 -10 44 -39 31z
m-4 -92 c19 -12 6 -41 -18 -41 -17 0 -41 26 -41 44 0 9 43 7 59 -3z"/>
<path d="M1110 1420 c-13 -8 -13 -10 2 -10 9 0 20 5 23 10 8 13 -5 13 -25 0z"/>
<path d="M1922 1410 c0 -14 2 -19 5 -12 2 6 2 18 0 25 -3 6 -5 1 -5 -13z"/>
<path d="M2069 1386 c20 -21 30 -63 14 -53 -5 3 -14 -2 -22 -10 -11 -13 -9
-14 15 -11 26 3 29 7 26 33 -2 16 -8 37 -14 45 -6 8 1 3 15 -12 17 -18 27 -23
30 -14 6 15 -27 37 -60 41 l-24 2 20 -21z"/>
<path d="M1350 1390 c0 -5 5 -10 11 -10 5 0 7 5 4 10 -3 6 -8 10 -11 10 -2 0
-4 -4 -4 -10z"/>
<path d="M1924 1275 c3 -55 6 -158 6 -229 0 -71 3 -126 6 -123 14 14 2 432
-12 446 -4 3 -4 -39 0 -94z"/>
<path d="M1995 1337 c-4 -10 -5 -21 -1 -24 10 -10 18 4 13 24 -4 17 -4 17 -12
0z"/>
<path d="M1330 1320 c0 -5 9 -10 20 -10 11 0 20 5 20 10 0 6 -9 10 -20 10 -11
0 -20 -4 -20 -10z"/>
<path d="M1395 1320 c-3 -5 -1 -10 4 -10 6 0 11 5 11 10 0 6 -2 10 -4 10 -3 0
-8 -4 -11 -10z"/>
<path d="M2020 1320 c0 -5 5 -10 10 -10 6 0 10 5 10 10 0 6 -4 10 -10 10 -5 0
-10 -4 -10 -10z"/>
<path d="M1820 1299 c0 -5 9 -9 19 -9 11 0 22 4 25 9 3 5 -6 9 -19 9 -14 0
-25 -4 -25 -9z"/>
<path d="M2145 1290 c3 -5 8 -10 11 -10 2 0 4 5 4 10 0 6 -5 10 -11 10 -5 0
-7 -4 -4 -10z"/>
<path d="M1385 1280 c-3 -5 -1 -10 4 -10 6 0 11 5 11 10 0 6 -2 10 -4 10 -3 0
-8 -4 -11 -10z"/>
<path d="M2010 1264 c0 -8 5 -12 10 -9 6 3 10 10 10 16 0 5 -4 9 -10 9 -5 0
-10 -7 -10 -16z"/>
<path d="M2040 1270 c0 -5 5 -10 11 -10 5 0 7 5 4 10 -3 6 -8 10 -11 10 -2 0
-4 -4 -4 -10z"/>
<path d="M1985 1250 c-3 -5 -1 -10 4 -10 6 0 11 5 11 10 0 6 -2 10 -4 10 -3 0
-8 -4 -11 -10z"/>
<path d="M2080 1230 c0 -5 5 -10 11 -10 5 0 7 5 4 10 -3 6 -8 10 -11 10 -2 0
-4 -4 -4 -10z"/>
<path d="M1722 1218 c-7 -7 -12 -16 -12 -21 0 -5 7 -1 16 8 9 9 14 18 12 20
-2 3 -10 -1 -16 -7z"/>
<path d="M1828 1223 c6 -2 12 -12 12 -20 0 -12 -3 -13 -15 -3 -15 13 -35 6
-35 -12 0 -7 10 -23 23 -37 l22 -25 -28 18 c-27 16 -29 16 -56 -1 -24 -15 -27
-22 -20 -40 7 -18 16 -23 46 -23 21 0 45 5 53 10 12 8 12 10 1 10 -14 0 -6 15
7 15 4 0 13 4 21 9 10 6 12 5 7 -2 -4 -7 -2 -12 4 -12 6 0 10 8 8 18 -2 9 -11
16 -20 14 -21 -3 -28 30 -9 44 18 14 7 44 -16 43 -11 0 -13 -3 -5 -6z m-32
-118 c-7 -19 -35 -19 -42 0 -4 8 -1 22 6 30 10 13 14 13 27 -1 8 -8 12 -21 9
-29z"/>
<path d="M1740 1179 c0 -5 5 -7 10 -4 6 3 10 8 10 11 0 2 -4 4 -10 4 -5 0 -10
-5 -10 -11z"/>
<path d="M2002 1171 c2 -7 7 -12 11 -12 12 1 9 15 -3 20 -7 2 -11 -2 -8 -8z"/>
<path d="M2060 1170 c0 -5 5 -10 10 -10 6 0 10 5 10 10 0 6 -4 10 -10 10 -5 0
-10 -4 -10 -10z"/>
<path d="M1334 1161 c3 -5 15 -7 26 -4 28 7 25 13 -6 13 -14 0 -23 -4 -20 -9z"/>
<path d="M1675 1150 c3 -5 8 -10 11 -10 2 0 4 5 4 10 0 6 -5 10 -11 10 -5 0
-7 -4 -4 -10z"/>
<path d="M1630 1140 c0 -5 5 -10 10 -10 6 0 10 5 10 10 0 6 -4 10 -10 10 -5 0
-10 -4 -10 -10z"/>
<path d="M2105 1140 c-3 -5 1 -10 9 -10 9 0 16 5 16 10 0 6 -4 10 -9 10 -6 0
-13 -4 -16 -10z"/>
<path d="M843 1133 c20 -2 54 -2 75 0 20 2 3 4 -38 4 -41 0 -58 -2 -37 -4z"/>
<path d="M1390 1130 c0 -5 5 -10 11 -10 5 0 7 5 4 10 -3 6 -8 10 -11 10 -2 0
-4 -4 -4 -10z"/>
<path d="M1420 1130 c0 -5 5 -10 10 -10 6 0 10 5 10 10 0 6 -4 10 -10 10 -5 0
-10 -4 -10 -10z"/>
<path d="M1600 1130 c0 -5 5 -10 10 -10 6 0 10 5 10 10 0 6 -4 10 -10 10 -5 0
-10 -4 -10 -10z"/>
<path d="M765 1110 l-90 -7 108 1 c59 0 107 4 107 8 0 4 -8 7 -17 6 -10 -1
-58 -5 -108 -8z"/>
<path d="M1695 1100 c3 -5 8 -10 11 -10 2 0 4 5 4 10 0 6 -5 10 -11 10 -5 0
-7 -4 -4 -10z"/>
<path d="M2020 1100 c0 -5 7 -10 15 -10 8 0 15 5 15 10 0 6 -7 10 -15 10 -8 0
-15 -4 -15 -10z"/>
<path d="M2115 1100 c-3 -5 -1 -10 4 -10 6 0 11 5 11 10 0 6 -2 10 -4 10 -3 0
-8 -4 -11 -10z"/>
<path d="M1660 1090 c0 -5 5 -10 10 -10 6 0 10 5 10 10 0 6 -4 10 -10 10 -5 0
-10 -4 -10 -10z"/>
<path d="M1531 1064 c0 -11 3 -14 6 -6 3 7 2 16 -1 19 -3 4 -6 -2 -5 -13z"/>
<path d="M1555 1070 c-3 -5 -1 -10 4 -10 6 0 11 5 11 10 0 6 -2 10 -4 10 -3 0
-8 -4 -11 -10z"/>
<path d="M1500 1060 c0 -5 5 -10 10 -10 6 0 10 5 10 10 0 6 -4 10 -10 10 -5 0
-10 -4 -10 -10z"/>
<path d="M2030 1050 c0 -5 5 -10 11 -10 5 0 7 5 4 10 -3 6 -8 10 -11 10 -2 0
-4 -4 -4 -10z"/>
<path d="M1810 1039 c0 -5 5 -7 10 -4 6 3 10 8 10 11 0 2 -4 4 -10 4 -5 0 -10
-5 -10 -11z"/>
<path d="M1485 1030 c3 -5 8 -10 11 -10 2 0 4 5 4 10 0 6 -5 10 -11 10 -5 0
-7 -4 -4 -10z"/>
<path d="M1700 1030 c0 -5 5 -10 10 -10 6 0 10 5 10 10 0 6 -4 10 -10 10 -5 0
-10 -4 -10 -10z"/>
<path d="M685 1019 c-24 -5 -20 -7 23 -8 28 0 52 1 52 3 0 8 -47 11 -75 5z"/>
<path d="M1565 1020 c-3 -5 -1 -10 4 -10 6 0 11 5 11 10 0 6 -2 10 -4 10 -3 0
-8 -4 -11 -10z"/>
<path d="M2100 1016 c0 -9 5 -16 10 -16 6 0 10 4 10 9 0 6 -4 13 -10 16 -5 3
-10 -1 -10 -9z"/>
<path d="M1530 1010 c0 -5 5 -10 10 -10 6 0 10 5 10 10 0 6 -4 10 -10 10 -5 0
-10 -4 -10 -10z"/>
<path d="M1624 1008 c-4 -6 -1 -16 7 -22 8 -6 15 -22 16 -36 3 -24 2 -24 -12
-6 -21 27 -31 12 -12 -18 14 -20 14 -25 2 -29 -19 -8 -37 16 -29 39 5 18 5 18
-10 0 -9 -11 -16 -25 -16 -32 0 -15 45 -45 54 -36 4 3 23 5 42 3 19 -1 34 2
34 8 0 6 -6 11 -14 11 -17 0 -29 27 -15 35 5 4 12 -1 15 -9 3 -9 10 -13 15
-10 14 8 -11 46 -27 40 -9 -3 -14 1 -14 13 0 11 6 21 13 24 9 3 9 7 -2 20 -16
20 -37 22 -47 5z"/>
<path d="M940 992 c0 -5 17 -12 38 -15 88 -15 142 -38 198 -87 32 -28 60 -50
65 -50 11 0 29 -59 29 -98 0 -27 3 -33 11 -25 19 19 1 102 -26 127 -13 11 -40
35 -58 53 -45 41 -79 58 -157 78 -36 9 -73 18 -82 21 -10 3 -18 1 -18 -4z"/>
<path d="M1110 990 c14 -4 34 -8 45 -8 16 0 15 2 -5 8 -14 4 -34 8 -45 8 -16
0 -15 -2 5 -8z"/>
<path d="M1820 989 c0 -5 5 -7 10 -4 6 3 10 8 10 11 0 2 -4 4 -10 4 -5 0 -10
-5 -10 -11z"/>
<path d="M2130 980 c0 -5 5 -10 10 -10 6 0 10 5 10 10 0 6 -4 10 -10 10 -5 0
-10 -4 -10 -10z"/>
<path d="M1535 970 c-3 -5 -1 -10 4 -10 6 0 11 5 11 10 0 6 -2 10 -4 10 -3 0
-8 -4 -11 -10z"/>
<path d="M2100 964 c0 -8 5 -12 10 -9 6 3 10 10 10 16 0 5 -4 9 -10 9 -5 0
-10 -7 -10 -16z"/>
<path d="M315 960 c-12 -6 9 -7 55 -3 41 3 77 7 79 9 9 8 -115 2 -134 -6z"/>
<path d="M911 941 c58 -16 112 -32 120 -37 71 -43 124 -134 116 -197 -4 -26
-2 -37 6 -34 7 2 13 22 15 45 4 55 -24 108 -87 163 -44 39 -63 48 -143 67
-132 32 -154 26 -27 -7z"/>
<path d="M1700 960 c0 -5 5 -10 10 -10 6 0 10 5 10 10 0 6 -4 10 -10 10 -5 0
-10 -4 -10 -10z"/>
<path d="M721 946 c2 -2 20 -6 39 -10 25 -4 31 -3 20 4 -14 9 -69 15 -59 6z"/>
<path d="M1760 940 c-13 -8 -12 -10 3 -10 9 0 17 5 17 10 0 12 -1 12 -20 0z"/>
<path d="M180 924 c-41 -18 -74 -47 -100 -89 -22 -35 -40 -195 -23 -195 6 0
13 31 16 69 9 113 59 183 154 217 31 11 33 13 13 13 -14 0 -41 -7 -60 -15z"/>
<path d="M335 925 l-30 -15 35 7 c19 4 53 10 75 14 l40 6 -45 1 c-25 1 -58 -5
-75 -13z"/>
<path d="M853 905 c53 -27 57 -29 57 -17 0 12 -60 42 -83 42 -16 0 -8 -8 26
-25z"/>
<path d="M468 903 c7 -3 16 -2 19 1 4 3 -2 6 -13 5 -11 0 -14 -3 -6 -6z"/>
<path d="M1931 843 c-1 -40 3 -73 7 -73 5 0 7 28 4 63 -5 89 -10 94 -11 10z"/>
<path d="M375 875 c-76 -75 36 -150 220 -148 152 1 225 33 225 98 0 18 -8 39
-17 47 -22 18 -63 30 -63 17 0 -5 6 -9 13 -9 22 0 49 -36 45 -61 -14 -96 -329
-105 -411 -11 -18 19 -18 21 -1 47 10 15 27 31 38 35 20 8 20 9 -2 9 -13 1
-34 -10 -47 -24z"/>
<path d="M226 849 c-32 -38 -35 -95 -6 -132 11 -14 20 -29 20 -35 0 -19 137
-98 181 -104 44 -6 35 13 -16 30 -63 22 -119 60 -151 103 -31 42 -33 106 -4
137 22 23 25 32 11 32 -5 0 -21 -14 -35 -31z"/>
<path d="M1825 870 c-3 -5 -1 -10 4 -10 6 0 11 5 11 10 0 6 -2 10 -4 10 -3 0
-8 -4 -11 -10z"/>
<path d="M948 837 c29 -30 29 -85 1 -121 -11 -14 -53 -44 -92 -66 -58 -32 -82
-40 -125 -40 -56 0 -244 -20 -252 -27 -13 -11 26 -19 59 -13 55 12 119 20 198
25 87 6 149 32 210 90 39 38 43 46 43 92 0 36 -5 55 -18 66 -29 27 -49 21 -24
-6z"/>
<path d="M1500 850 c0 -5 5 -10 11 -10 5 0 7 5 4 10 -3 6 -8 10 -11 10 -2 0
-4 -4 -4 -10z"/>
<path d="M2020 849 c0 -5 5 -7 10 -4 6 3 10 8 10 11 0 2 -4 4 -10 4 -5 0 -10
-5 -10 -11z"/>
<path d="M1670 830 c0 -5 9 -10 21 -10 11 0 17 5 14 10 -3 6 -13 10 -21 10 -8
0 -14 -4 -14 -10z"/>
<path d="M1576 811 c-4 -5 -2 -12 3 -15 5 -4 12 -2 15 3 4 5 2 12 -3 15 -5 4
-12 2 -15 -3z"/>
<path d="M1510 790 c0 -5 5 -10 10 -10 6 0 10 5 10 10 0 6 -4 10 -10 10 -5 0
-10 -4 -10 -10z"/>
<path d="M1710 781 c0 -6 9 -9 20 -8 11 1 20 5 20 9 0 4 -9 8 -20 8 -11 0 -20
-4 -20 -9z"/>
<path d="M1730 750 c8 -5 20 -10 25 -10 6 0 3 5 -5 10 -8 5 -19 10 -25 10 -5
0 -3 -5 5 -10z"/>
<path d="M1804 738 l-19 -21 28 18 c28 18 33 25 19 25 -5 0 -17 -10 -28 -22z"/>
<path d="M2115 750 c-3 -5 -1 -10 4 -10 6 0 11 5 11 10 0 6 -2 10 -4 10 -3 0
-8 -4 -11 -10z"/>
<path d="M1754 725 c-18 -14 -18 -14 4 -8 12 3 22 9 22 14 0 12 -3 11 -26 -6z"/>
<path d="M1420 721 c0 -5 7 -12 16 -15 14 -5 15 -4 4 9 -14 17 -20 19 -20 6z"/>
<path d="M1535 709 c7 -11 35 -12 35 -1 0 4 -9 8 -20 9 -11 1 -18 -2 -15 -8z"/>
<path d="M1380 699 c0 -5 5 -7 10 -4 6 3 10 8 10 11 0 2 -4 4 -10 4 -5 0 -10
-5 -10 -11z"/>
<path d="M1510 700 c0 -5 5 -10 11 -10 5 0 7 5 4 10 -3 6 -8 10 -11 10 -2 0
-4 -4 -4 -10z"/>
<path d="M1110 645 c-7 -8 -9 -15 -5 -15 4 0 -7 -10 -26 -23 -43 -29 -43 -55
-1 -80 43 -25 105 -13 110 22 3 16 -2 24 -17 28 -25 6 -25 7 -8 34 10 17 9 22
-7 35 -25 18 -31 18 -46 -1z m1 -61 c7 -9 23 -20 36 -25 13 -5 23 -13 23 -19
0 -15 -16 -12 -30 5 -9 11 -16 13 -24 5 -13 -13 -39 -13 -54 2 -9 9 -8 16 5
30 20 22 27 22 44 2z"/>
<path d="M1365 651 c-3 -5 -1 -12 5 -16 5 -3 10 1 10 9 0 18 -6 21 -15 7z"/>
<path d="M1322 643 c-6 -2 -10 -9 -7 -13 7 -11 35 -2 35 11 0 10 -8 10 -28 2z"/>
<path d="M1530 634 c-39 -11 -41 -12 -15 -13 17 0 53 6 80 13 46 13 47 14 15
14 -19 0 -55 -6 -80 -14z"/>
<path d="M1429 604 c-9 -11 -6 -14 19 -14 38 0 50 16 17 22 -14 3 -30 -1 -36
-8z"/>
<path d="M79 592 c13 -25 40 -46 48 -38 7 7 -36 56 -49 56 -5 0 -4 -8 1 -18z"/>
<path d="M1560 594 c0 -8 5 -12 10 -9 6 3 10 10 10 16 0 5 -4 9 -10 9 -5 0
-10 -7 -10 -16z"/>
<path d="M1355 580 c-4 -7 3 -10 19 -8 35 5 45 18 13 18 -14 0 -29 -5 -32 -10z"/>
<path d="M1220 559 c0 -5 5 -7 10 -4 6 3 10 8 10 11 0 2 -4 4 -10 4 -5 0 -10
-5 -10 -11z"/>
<path d="M1465 559 c-4 -6 -5 -12 -2 -15 7 -7 37 7 37 17 0 13 -27 11 -35 -2z"/>
<path d="M1250 540 c0 -5 5 -10 10 -10 6 0 10 5 10 10 0 6 -4 10 -10 10 -5 0
-10 -4 -10 -10z"/>
<path d="M1335 536 c-19 -14 -19 -15 -2 -21 29 -12 19 -30 -18 -31 -44 -1 -64
-18 -49 -42 14 -22 35 -26 90 -17 52 7 74 26 67 56 -4 16 -12 20 -30 16 -21
-4 -24 -1 -21 21 4 30 -11 37 -37 18z m62 -84 c-14 -17 -22 0 -12 26 5 14 7
14 15 2 5 -9 4 -20 -3 -28z m-69 6 c-7 -19 -38 -22 -38 -4 0 10 9 16 21 16 12
0 19 -5 17 -12z"/>
<path d="M1998 533 c6 -2 18 -2 25 0 6 3 1 5 -13 5 -14 0 -19 -2 -12 -5z"/>
<path d="M190 512 c0 -30 239 -92 350 -92 92 0 84 15 -10 18 -77 2 -261 44
-294 68 -23 16 -46 19 -46 6z"/>
<path d="M961 481 c-10 -7 -11 -13 -2 -30 10 -17 9 -21 -3 -21 -8 0 -17 4 -20
9 -7 11 -42 3 -55 -13 -13 -16 -3 -29 38 -49 29 -14 41 -15 70 -6 20 6 44 18
53 26 16 14 16 17 1 40 -10 15 -23 23 -33 20 -13 -3 -16 0 -13 14 6 20 -12 25
-36 10z m-27 -57 c25 -9 19 -24 -9 -24 -16 0 -25 6 -25 15 0 16 9 19 34 9z
m96 -13 c0 -6 -4 -12 -9 -15 -13 -8 -42 4 -35 15 7 12 44 12 44 0z"/>
<path d="M1100 470 c0 -5 9 -10 20 -10 11 0 20 5 20 10 0 6 -9 10 -20 10 -11
0 -20 -4 -20 -10z"/>
<path d="M80 450 c0 -14 118 -72 138 -68 9 2 -14 19 -55 41 -77 40 -83 42 -83
27z"/>
<path d="M1130 406 c0 -9 7 -12 20 -9 11 3 17 9 14 14 -8 14 -34 10 -34 -5z"/>
<path d="M1220 410 c0 -5 5 -10 10 -10 6 0 10 5 10 10 0 6 -4 10 -10 10 -5 0
-10 -4 -10 -10z"/>
<path d="M1258 383 c-10 -2 -18 -8 -18 -13 0 -4 9 -6 20 -3 11 3 20 9 20 14 0
5 -1 8 -2 8 -2 -1 -11 -3 -20 -6z"/>
<path d="M778 353 c-24 -6 -23 -23 2 -23 11 0 20 7 20 15 0 8 -1 14 -2 14 -2
-1 -11 -3 -20 -6z"/>
<path d="M830 344 c0 -8 5 -12 10 -9 6 3 10 10 10 16 0 5 -4 9 -10 9 -5 0 -10
-7 -10 -16z"/>
<path d="M925 340 c-3 -5 -1 -10 4 -10 6 0 11 5 11 10 0 6 -2 10 -4 10 -3 0
-8 -4 -11 -10z"/>
<path d="M960 339 c0 -5 5 -7 10 -4 6 3 10 8 10 11 0 2 -4 4 -10 4 -5 0 -10
-5 -10 -11z"/>
<path d="M2130 1780 c0 -5 5 -10 11 -10 5 0 7 5 4 10 -3 6 -8 10 -11 10 -2 0
-4 -4 -4 -10z"/>
<path d="M2032 1739 c-15 -24 -10 -34 13 -26 15 6 22 47 7 47 -4 0 -13 -9 -20
-21z"/>
<path d="M2080 1750 c0 -5 5 -10 10 -10 6 0 10 5 10 10 0 6 -4 10 -10 10 -5 0
-10 -4 -10 -10z"/>
<path d="M1990 1730 c0 -5 5 -10 10 -10 6 0 10 5 10 10 0 6 -4 10 -10 10 -5 0
-10 -4 -10 -10z"/>
<path d="M830 1536 c0 -9 5 -16 10 -16 6 0 10 4 10 9 0 6 -4 13 -10 16 -5 3
-10 -1 -10 -9z"/>
<path d="M735 1520 c-3 -5 -1 -10 4 -10 6 0 11 5 11 10 0 6 -2 10 -4 10 -3 0
-8 -4 -11 -10z"/>
<path d="M694 1485 c-18 -14 -18 -14 9 -15 17 0 27 5 27 15 0 19 -11 19 -36 0z"/>
<path d="M835 1491 c-3 -5 -1 -12 5 -16 5 -3 10 1 10 9 0 18 -6 21 -15 7z"/>
<path d="M779 1483 c-1 -5 -1 -11 0 -15 0 -5 -6 -8 -14 -8 -20 0 -19 -10 3
-27 15 -13 15 -13 -4 -4 -27 13 -60 -8 -51 -33 9 -23 26 -20 20 4 -3 11 0 20
6 20 6 0 11 -7 11 -15 0 -14 34 -28 61 -25 29 5 50 0 44 -10 -9 -15 9 -12 31
6 18 15 18 15 -3 9 -17 -5 -23 -2 -23 9 0 9 -7 16 -15 16 -18 0 -20 17 -3 22
19 7 -2 30 -22 25 -13 -3 -16 0 -13 14 4 13 0 19 -11 19 -9 0 -17 -3 -17 -7z"/>
<path d="M660 1399 c0 -17 3 -18 20 -9 11 6 20 12 20 14 0 2 -9 6 -20 9 -15 4
-20 0 -20 -14z"/>
<path d="M795 1350 c3 -5 14 -10 23 -10 15 0 15 2 2 10 -20 13 -33 13 -25 0z"/>
<path d="M865 1340 c-4 -6 7 -10 27 -10 25 0 29 3 18 10 -19 13 -37 13 -45 0z"/>
<path d="M740 1329 c0 -5 5 -7 10 -4 6 3 10 8 10 11 0 2 -4 4 -10 4 -5 0 -10
-5 -10 -11z"/>
<path d="M695 1300 c-3 -5 -1 -10 4 -10 6 0 11 5 11 10 0 6 -2 10 -4 10 -3 0
-8 -4 -11 -10z"/>
<path d="M765 1291 c-3 -5 -1 -12 4 -15 5 -4 12 -2 16 4 4 6 11 8 16 5 5 -4 9
-1 9 4 0 13 -37 15 -45 2z"/>
<path d="M660 1269 c0 -5 5 -7 10 -4 6 3 10 8 10 11 0 2 -4 4 -10 4 -5 0 -10
-5 -10 -11z"/>
<path d="M385 1530 c-3 -5 -1 -10 4 -10 6 0 11 5 11 10 0 6 -2 10 -4 10 -3 0
-8 -4 -11 -10z"/>
<path d="M371 1477 c-12 -22 -11 -28 6 -46 15 -16 25 -19 48 -13 25 7 26 9 11
15 -15 6 -16 10 -6 22 10 12 10 15 0 15 -7 0 -19 -8 -26 -17 -12 -16 -15 -16
-23 -3 -7 9 -6 17 1 21 6 4 9 12 6 19 -2 7 -9 1 -17 -13z"/>
<path d="M343 1094 c11 -11 100 -16 92 -5 -3 6 -27 11 -52 11 -26 0 -44 -3
-40 -6z"/>
<path d="M308 1083 c7 -3 16 -2 19 1 4 3 -2 6 -13 5 -11 0 -14 -3 -6 -6z"/>
<path d="M86 1041 c-3 -4 32 -8 77 -10 45 -1 79 0 77 2 -9 8 -150 16 -154 8z"/>
<path d="M1188 1043 c6 -2 18 -2 25 0 6 3 1 5 -13 5 -14 0 -19 -2 -12 -5z"/>
<path d="M1900 636 c0 -4 7 -14 15 -22 8 -9 15 -11 15 -6 0 5 -7 15 -15 22 -8
7 -15 9 -15 6z"/>
<path d="M1870 599 c0 -5 5 -7 10 -4 6 3 10 8 10 11 0 2 -4 4 -10 4 -5 0 -10
-5 -10 -11z"/>
<path d="M1745 560 c3 -5 8 -10 11 -10 2 0 4 5 4 10 0 6 -5 10 -11 10 -5 0 -7
-4 -4 -10z"/>
<path d="M1770 510 c0 -5 5 -10 11 -10 5 0 7 5 4 10 -3 6 -8 10 -11 10 -2 0
-4 -4 -4 -10z"/>
<path d="M1795 460 c-3 -5 -1 -10 4 -10 6 0 11 5 11 10 0 6 -2 10 -4 10 -3 0
-8 -4 -11 -10z"/>
<path d="M1510 433 c1 -18 18 -35 24 -24 4 6 2 11 -4 11 -6 0 -8 5 -5 10 3 6
1 10 -4 10 -6 0 -11 -3 -11 -7z"/>
<path d="M1895 430 c-3 -5 -1 -10 4 -10 6 0 11 5 11 10 0 6 -2 10 -4 10 -3 0
-8 -4 -11 -10z"/>
<path d="M1490 390 c7 -12 21 -20 37 -20 15 0 35 -7 45 -17 25 -22 36 -8 13
17 -10 11 -31 20 -47 20 -15 0 -28 5 -28 10 0 6 -7 10 -15 10 -13 0 -14 -4 -5
-20z"/>
<path d="M1810 400 c0 -5 10 -10 23 -10 18 0 19 2 7 10 -19 13 -30 13 -30 0z"/>
<path d="M1896 381 c-4 -5 -2 -12 3 -15 5 -4 12 -2 15 3 4 5 2 12 -3 15 -5 4
-12 2 -15 -3z"/>
<path d="M2016 375 c4 -8 10 -12 15 -9 14 8 10 24 -6 24 -9 0 -12 -6 -9 -15z"/>
<path d="M1930 370 c0 -5 5 -10 10 -10 6 0 10 5 10 10 0 6 -4 10 -10 10 -5 0
-10 -4 -10 -10z"/>
<path d="M1625 360 c-3 -5 -1 -10 4 -10 6 0 11 5 11 10 0 6 -2 10 -4 10 -3 0
-8 -4 -11 -10z"/>
<path d="M1650 361 c0 -6 5 -13 10 -16 6 -3 10 1 10 9 0 9 -4 16 -10 16 -5 0
-10 -4 -10 -9z"/>
<path d="M2118 483 c7 -3 16 -2 19 1 4 3 -2 6 -13 5 -11 0 -14 -3 -6 -6z"/>
<path d="M1600 273 l-35 -4 0 -84 0 -85 30 0 c22 0 26 3 17 12 -7 7 -12 27
-12 45 0 44 31 45 61 1 27 -40 48 -58 68 -58 10 0 7 8 -11 27 -32 35 -52 73
-39 73 6 0 15 8 20 19 20 37 -24 61 -99 54z m64 -38 c4 -10 -2 -19 -17 -24
-29 -11 -47 -3 -47 20 0 24 55 27 64 4z"/>
<path d="M1253 263 c-44 -3 -63 -8 -63 -17 0 -9 9 -12 26 -8 l26 5 -4 -77 -3
-77 30 3 c21 2 29 8 26 18 -2 8 -6 40 -9 71 -5 60 7 80 34 58 8 -6 17 -9 20
-6 8 8 -3 38 -13 35 -4 -1 -36 -3 -70 -5z"/>
<path d="M1399 263 c-1 -4 -1 -17 0 -28 0 -11 -12 -46 -27 -77 l-29 -58 28 0
c20 0 27 4 23 13 -10 26 14 66 38 64 28 -1 38 -14 38 -49 0 -24 4 -28 30 -28
34 0 37 6 15 30 -8 9 -21 43 -28 76 -13 58 -14 59 -50 62 -20 2 -37 0 -38 -5z
m51 -49 c0 -15 -6 -24 -15 -24 -17 0 -18 4 -9 37 8 29 24 20 24 -13z"/>
<path d="M290 235 c0 -11 8 -13 30 -8 26 5 30 3 32 -18 0 -13 2 -36 3 -52 1
-15 -4 -38 -11 -52 -13 -25 -12 -25 27 -25 21 0 39 5 39 10 0 6 -4 10 -10 10
-6 0 -9 28 -7 68 2 61 4 67 25 70 12 2 22 -1 22 -7 0 -6 5 -11 10 -11 6 0 10
7 10 15 0 12 -16 15 -85 15 -68 0 -85 -3 -85 -15z"/>
<path d="M486 177 c0 -39 -4 -78 -9 -84 -7 -10 -2 -13 22 -13 31 0 31 0 25 40
l-7 40 42 0 41 0 0 -40 c0 -35 3 -40 23 -40 21 0 22 3 19 85 -3 80 -5 85 -25
85 -20 0 -22 -4 -19 -41 l4 -40 -38 3 c-37 3 -39 5 -42 41 -2 27 -8 37 -20 37
-14 0 -17 -11 -16 -73z"/>
<path d="M675 173 c0 -87 2 -90 69 -85 56 5 71 30 18 28 -32 -1 -37 2 -40 22
-3 20 0 23 17 17 17 -5 21 -2 21 15 0 17 -4 20 -20 15 -17 -5 -20 -2 -20 24 0
26 4 31 23 31 13 0 28 -5 35 -12 9 -9 12 -8 12 5 0 14 -10 17 -57 17 l-58 0 0
-77z"/>
<path d="M1031 236 c-19 -23 3 -56 37 -56 36 0 55 -13 50 -36 -5 -26 -58 -32
-75 -8 -12 16 -14 15 -32 -7 -11 -13 -20 -26 -21 -29 0 -3 29 -7 64 -8 49 -2
68 2 85 15 42 34 3 93 -59 93 -12 0 -20 7 -20 16 0 14 7 16 40 11 28 -3 40 -1
40 7 0 19 -94 21 -109 2z"/>
<path d="M1826 131 c-8 -12 21 -34 34 -26 17 11 11 35 -9 35 -11 0 -22 -4 -25
-9z"/>
<path d="M1128 3763 c-121 -2 -198 -7 -198 -13 0 -6 11 -10 25 -10 18 0 26 -7
31 -25 8 -34 -1 -55 -25 -55 -11 0 -23 -4 -26 -10 -4 -6 27 -10 85 -10 l92 0
-6 -27 c-3 -16 -15 -79 -27 -140 -13 -69 -26 -110 -32 -106 -6 4 -7 1 -2 -6
12 -21 22 0 40 84 10 44 23 105 29 135 17 81 35 72 61 -35 25 -100 32 -97 10
5 -17 75 -18 90 -7 89 35 -6 172 3 172 11 0 6 -9 10 -20 10 -12 0 -20 7 -20
18 0 9 -3 27 -6 38 -4 17 0 23 21 28 14 4 23 11 20 16 -3 6 -9 9 -13 8 -4 -2
-96 -4 -204 -5z m150 -61 c3 -36 0 -42 -16 -42 -14 0 -21 8 -24 28 -6 42 2 64
20 60 12 -2 18 -16 20 -46z m-248 34 c0 -11 -19 -15 -25 -6 -3 5 1 10 9 10 9
0 16 -2 16 -4z m75 -36 c10 -22 16 -42 14 -44 -2 -2 -21 -1 -41 1 -43 6 -56
30 -36 62 20 32 43 25 63 -19z m65 35 c0 -11 -24 -55 -31 -55 -4 0 -12 14 -18
30 -10 29 -9 30 20 30 16 0 29 -2 29 -5z m40 -35 c0 -36 -2 -40 -25 -40 -30 0
-30 0 -8 45 22 46 33 44 33 -5z"/>
<path d="M296 3655 l-17 -55 -45 26 c-43 25 -63 27 -49 5 3 -6 10 -9 15 -6 5
3 24 -4 42 -15 18 -11 36 -20 39 -20 4 0 12 20 19 45 7 25 16 45 20 45 5 0 14
-22 21 -50 7 -27 16 -50 20 -50 4 0 28 9 53 20 25 10 46 17 46 14 0 -2 -12
-22 -26 -44 -15 -22 -24 -43 -21 -47 4 -3 28 -11 54 -18 l48 -12 -57 -12 c-32
-7 -58 -17 -58 -22 0 -6 11 -27 25 -47 14 -20 25 -42 25 -49 0 -7 5 -13 10
-13 17 0 11 14 -20 56 -16 21 -30 42 -30 46 0 4 25 12 55 19 31 7 58 16 61 20
2 5 -15 13 -38 19 -24 6 -49 13 -56 16 -10 3 -4 18 22 54 20 28 36 52 36 55 0
4 -30 -7 -116 -41 -6 -3 -19 22 -29 56 -10 33 -21 60 -25 60 -3 0 -14 -25 -24
-55z"/>
<path d="M1885 3678 c-10 -29 -23 -99 -17 -93 4 3 12 25 18 48 l10 42 13 -40
c17 -52 25 -59 48 -46 17 11 17 11 -2 9 -16 -2 -23 7 -35 44 -15 48 -27 59
-35 36z"/>
<path d="M1770 3645 c0 -10 30 -65 36 -65 2 0 0 9 -6 19 -13 26 -13 34 3 25 8
-5 8 -2 -2 9 -13 16 -31 23 -31 12z"/>
<path d="M2022 3623 c-24 -8 -41 -17 -39 -19 2 -3 17 0 32 6 41 16 41 7 -1
-39 -40 -45 -40 -45 -4 -56 24 -7 24 -6 5 8 -19 15 -18 16 23 61 58 63 57 65
-16 39z"/>
<path d="M1820 3616 c0 -2 8 -10 18 -17 15 -13 16 -12 3 4 -13 16 -21 21 -21
13z"/>
<path d="M200 3607 c0 -4 7 -22 16 -39 13 -25 14 -32 2 -39 -10 -7 -9 -9 5 -9
9 0 17 6 17 13 -1 14 -39 86 -40 74z"/>
<path d="M1816 3556 c4 -11 2 -21 -7 -27 -10 -6 -11 -9 -1 -9 18 0 27 29 13
43 -9 9 -11 8 -5 -7z"/>
<path d="M762 3528 c8 -13 38 -65 68 -116 29 -51 54 -91 56 -89 3 2 -20 46
-50 98 -30 52 -53 95 -51 97 1 2 52 -28 111 -66 128 -80 143 -89 129 -75 -26
26 -257 173 -271 173 -4 0 0 -10 8 -22z"/>
<path d="M1390 3454 c-79 -52 -149 -93 -154 -91 -6 2 -16 23 -22 48 -7 24 -12
38 -13 31 -1 -7 4 -33 10 -57 l11 -44 28 14 c15 8 80 48 145 90 65 41 120 73
122 71 2 -2 -38 -64 -91 -137 -52 -74 -91 -137 -88 -140 6 -6 238 -56 302 -66
72 -10 -30 18 -151 42 -74 15 -135 28 -137 30 -2 1 40 64 93 139 97 138 114
166 99 166 -5 -1 -74 -43 -154 -96z"/>
<path d="M178 3513 c7 -3 16 -2 19 1 4 3 -2 6 -13 5 -11 0 -14 -3 -6 -6z"/>
<path d="M1758 3513 c7 -3 16 -2 19 1 4 3 -2 6 -13 5 -11 0 -14 -3 -6 -6z"/>
<path d="M115 3501 c-17 -7 -16 -9 9 -15 16 -4 31 -5 34 -1 3 3 -1 5 -9 5 -11
0 -11 2 1 10 13 9 13 10 0 9 -8 0 -24 -4 -35 -8z"/>
<path d="M1710 3500 c0 -5 7 -10 15 -10 8 0 15 5 15 10 0 6 -7 10 -15 10 -8 0
-15 -4 -15 -10z"/>
<path d="M2085 3501 c16 -7 11 -10 -26 -16 -73 -11 -78 -18 -51 -65 26 -46 23
-48 -24 -19 -41 25 -52 19 -60 -32 -7 -40 -17 -42 -28 -4 -3 11 -3 2 0 -20 3
-22 8 -42 10 -45 8 -8 22 21 28 61 3 21 10 40 14 43 4 3 29 -9 55 -26 26 -17
50 -28 53 -25 3 3 -8 26 -26 51 -17 26 -29 50 -26 55 4 5 30 12 59 16 28 4 56
10 61 12 12 8 -15 23 -39 22 l-20 0 20 -8z"/>
<path d="M188 3473 c30 -6 28 -24 -8 -58 -33 -32 -38 -45 -14 -45 8 0 13 4 10
9 -3 5 8 26 24 47 32 39 28 55 -15 52 -17 -1 -17 -1 3 -5z"/>
<path d="M1802 3472 c15 -6 13 -13 -17 -51 -19 -24 -35 -48 -35 -53 0 -4 22 3
50 17 55 28 76 31 83 13 4 -8 6 -9 6 -2 1 6 -5 17 -13 23 -11 9 -22 7 -50 -10
-20 -12 -39 -20 -41 -17 -3 2 6 20 20 40 25 36 24 49 -4 47 -13 0 -13 -2 1 -7z"/>
<path d="M220 3400 c-42 -23 -32 -27 11 -4 37 19 59 12 59 -17 0 -12 3 -20 6
-16 4 3 4 18 0 32 -8 30 -28 31 -76 5z"/>
<path d="M340 3403 c0 -14 2 -15 9 -4 7 11 14 10 37 -6 39 -27 54 -35 54 -30
0 7 -79 57 -90 57 -5 0 -10 -8 -10 -17z"/>
<path d="M332 3350 c0 -19 2 -27 5 -17 2 9 2 25 0 35 -3 9 -5 1 -5 -18z"/>
<path d="M306 3316 c2 -16 4 -32 4 -37 0 -5 5 -9 10 -9 6 0 10 9 10 20 0 11
-4 20 -9 20 -5 0 -12 8 -14 18 -2 9 -3 4 -1 -12z"/>
<path d="M907 3273 c22 -47 22 -48 28 -41 6 5 -33 78 -41 78 -2 0 4 -17 13
-37z"/>
<path d="M878 3223 c6 -2 18 -2 25 0 6 3 1 5 -13 5 -14 0 -19 -2 -12 -5z"/>
<path d="M1885 3170 c-4 -33 -10 -60 -15 -60 -4 0 -29 12 -54 26 -26 15 -50
24 -53 21 -3 -4 9 -25 26 -49 17 -23 31 -45 31 -48 0 -3 -24 -12 -52 -19 -29
-8 -57 -16 -62 -19 -12 -7 15 -22 39 -21 l20 0 -20 8 c-17 7 -14 10 20 20 22
6 45 11 52 11 25 0 23 22 -6 57 -17 20 -29 39 -26 41 2 3 20 -5 40 -17 54 -31
61 -28 70 32 l7 52 17 -50 c20 -57 41 -66 91 -40 18 9 34 15 36 12 2 -2 -9
-21 -26 -42 -17 -21 -27 -41 -24 -44 4 -3 9 0 11 7 3 7 20 31 39 53 19 23 32
44 29 47 -3 3 -27 -5 -54 -18 -27 -12 -56 -20 -63 -18 -8 3 -22 31 -31 62 -10
31 -22 56 -27 56 -4 0 -11 -27 -15 -60z"/>
<path d="M300 3174 c-7 -25 -19 -52 -27 -60 -12 -12 -12 -14 0 -14 8 0 19 18
26 41 14 46 21 44 36 -9 6 -19 16 -37 23 -38 7 -1 8 0 3 2 -6 3 -16 32 -22 65
-6 32 -15 59 -19 59 -4 0 -13 -21 -20 -46z"/>
<path d="M696 3192 c-71 -15 -131 -32 -133 -38 -4 -11 193 -51 203 -42 2 3
-31 11 -73 18 -43 7 -84 16 -92 20 -14 7 68 29 194 51 36 6 65 13 65 15 0 8
-36 2 -164 -24z"/>
<path d="M1685 3161 c15 -6 -4 -14 -75 -30 -230 -52 -280 -65 -280 -72 0 -4
26 -47 58 -96 114 -172 130 -198 127 -201 -1 -2 -67 44 -146 102 -79 58 -147
102 -152 97 -4 -4 -22 -84 -41 -177 -18 -93 -36 -162 -39 -154 -4 8 -25 85
-47 170 -27 107 -43 154 -52 152 -7 -2 -75 -42 -152 -88 -76 -47 -140 -84
-141 -82 -2 2 41 68 95 147 55 79 97 148 94 152 -3 5 -15 8 -27 8 -17 -1 -18
-2 -4 -6 9 -2 17 -8 17 -12 0 -4 -45 -72 -100 -151 -55 -80 -100 -150 -100
-157 0 -7 70 31 155 82 85 52 158 95 163 95 4 0 27 -80 52 -178 24 -97 47
-181 51 -186 9 -11 13 3 49 199 17 93 33 172 36 174 2 2 21 -9 42 -26 20 -16
71 -53 112 -81 41 -28 94 -66 117 -84 24 -17 45 -29 48 -27 2 3 -40 72 -93
154 -54 83 -101 155 -105 162 -5 8 28 19 110 38 233 52 258 58 267 63 11 6
-21 21 -44 21 -9 0 -7 -3 5 -8z"/>
<path d="M180 3140 c6 -11 12 -20 14 -20 2 0 2 9 -1 20 -3 11 -9 20 -15 20 -5
0 -4 -9 2 -20z"/>
<path d="M431 3134 c-19 -8 -31 -17 -28 -20 3 -3 14 -1 25 5 33 18 35 13 7
-24 -15 -19 -25 -40 -22 -47 4 -10 6 -10 6 0 1 8 17 34 37 58 39 47 32 53 -25
28z"/>
<path d="M205 3095 c17 -48 16 -53 -2 -58 -17 -4 -17 -5 0 -6 26 -2 31 23 12
56 -9 15 -13 19 -10 8z"/>
<path d="M805 3100 c17 -4 39 -8 50 -8 16 0 15 2 -5 8 -14 4 -36 8 -50 8 -22
0 -22 -1 5 -8z"/>
<path d="M470 3020 c45 -18 45 -18 15 -22 l-30 -5 30 -1 c56 -3 61 14 9 32
-64 22 -80 19 -24 -4z"/>
<path d="M2028 3033 c7 -3 16 -2 19 1 4 3 -2 6 -13 5 -11 0 -14 -3 -6 -6z"/>
<path d="M2073 3021 c14 -5 7 -10 -28 -19 -45 -12 -56 -24 -33 -38 7 -4 8 -3
4 5 -8 12 -4 14 63 31 33 9 41 14 30 21 -8 5 -23 8 -34 8 -18 0 -18 -1 -2 -8z"/>
<path d="M114 3005 c11 -8 29 -14 40 -14 19 2 19 2 -2 6 -12 2 -20 9 -17 14 4
5 -4 9 -17 9 -22 -1 -22 -1 -4 -15z"/>
<path d="M1778 2993 c6 -2 18 -2 25 0 6 3 1 5 -13 5 -14 0 -19 -2 -12 -5z"/>
<path d="M188 2983 c7 -3 16 -2 19 1 4 3 -2 6 -13 5 -11 0 -14 -3 -6 -6z"/>
<path d="M408 2984 c-4 -3 2 -24 12 -47 10 -23 17 -43 15 -46 -3 -2 -20 8 -40
23 l-35 27 -9 -24 c-6 -14 -13 -41 -16 -61 -9 -47 -22 -38 -30 24 -4 28 -9 50
-12 50 -11 0 -103 -53 -99 -57 2 -3 22 6 44 19 23 12 43 20 47 17 3 -4 10 -34
16 -68 6 -33 15 -61 19 -61 4 0 16 32 25 70 9 39 19 70 21 70 2 0 26 -16 54
-36 27 -20 50 -31 50 -25 0 6 -14 36 -31 65 l-30 54 23 5 c21 4 21 4 2 6 -11
0 -23 -2 -26 -5z"/>
<path d="M1787 2942 c-20 -26 -33 -48 -28 -50 10 -3 111 45 111 53 0 3 -18 -4
-41 -15 -23 -12 -43 -20 -45 -18 -2 2 10 21 27 41 17 20 27 37 22 37 -4 -1
-25 -22 -46 -48z"/>
<path d="M2034 2921 c19 -37 18 -37 -28 -10 -20 12 -36 19 -36 16 0 -8 91 -59
97 -54 6 7 -24 64 -38 72 -6 4 -3 -7 5 -24z"/>
<path d="M1880 2928 c1 -22 28 -130 35 -136 10 -11 25 22 23 53 l-1 30 -4 -27
c-7 -45 -20 -32 -32 32 -11 54 -22 79 -21 48z"/>
<path d="M1940 2910 c0 -16 2 -30 4 -30 2 0 6 14 8 30 3 17 1 30 -4 30 -4 0
-8 -13 -8 -30z"/>
<path d="M562 2711 c-7 -21 -12 -47 -11 -57 0 -11 7 4 16 31 l16 50 17 -50
c18 -53 23 -54 74 -29 16 8 31 12 33 10 3 -2 -7 -22 -21 -45 -41 -65 -30 -62
14 4 22 33 40 63 40 68 0 4 -22 -4 -50 -18 -27 -14 -54 -25 -59 -25 -5 0 -17
23 -26 50 -9 28 -20 50 -24 50 -4 0 -13 -17 -19 -39z"/>
<path d="M1657 2743 c-12 -11 -8 -30 7 -30 8 0 11 8 8 19 -5 20 -6 21 -15 11z"/>
<path d="M430 2703 c0 -4 11 -30 25 -57 13 -27 22 -52 20 -57 -3 -4 -30 -13
-60 -19 -30 -6 -57 -15 -60 -20 -3 -5 21 -14 52 -21 32 -7 61 -15 66 -19 4 -3
-7 -25 -24 -48 -17 -24 -29 -45 -26 -48 3 -3 22 4 44 16 35 19 30 21 -14 3
-14 -5 -12 1 8 28 44 59 44 57 -21 70 -66 13 -70 23 -13 33 66 11 71 18 45 70
-24 51 -22 54 16 28 43 -30 59 -35 30 -10 -37 31 -88 61 -88 51z"/>
<path d="M1680 2660 c12 -43 16 -45 42 -32 l23 11 -25 -2 c-17 -1 -25 4 -28
18 -2 11 -8 24 -13 29 -5 5 -4 -5 1 -24z"/>
<path d="M1774 2668 c-4 -7 -3 -8 4 -4 19 12 14 -7 -13 -46 -31 -46 -31 -48 3
-47 22 1 23 2 5 6 -22 4 -22 5 7 45 17 23 30 45 30 50 0 12 -28 10 -36 -4z"/>
<path d="M695 2560 c11 -5 29 -8 40 -8 16 0 15 2 -5 8 -34 11 -60 11 -35 0z"/>
<path d="M756 2541 c-3 -5 -27 -14 -52 -20 -26 -7 -44 -14 -42 -16 7 -7 118
27 118 36 0 12 -17 12 -24 0z"/>
<path d="M850 2492 c0 -5 23 -12 51 -15 28 -4 71 -18 96 -33 39 -23 48 -24 74
-14 16 7 40 13 54 13 14 0 25 4 25 9 0 6 -12 8 -27 5 -16 -4 -42 -9 -59 -13
-21 -4 -40 -1 -55 9 -22 14 -51 23 -131 41 -16 4 -28 2 -28 -2z"/>
<path d="M526 2471 c-4 -6 -3 -11 3 -11 6 0 15 -15 21 -32 l10 -33 -5 35 c-6
39 -19 57 -29 41z"/>
<path d="M595 2439 c-4 -17 -5 -33 -2 -35 2 -3 7 9 11 26 6 31 6 31 33 14 l28
-16 -25 21 c-33 27 -37 26 -45 -10z"/>
<path d="M940 2450 c0 -5 5 -10 12 -10 6 0 19 -7 29 -16 10 -9 24 -14 31 -12
8 3 -1 13 -22 26 -39 24 -50 27 -50 12z"/>
<path d="M805 2410 c-10 -11 -13 -20 -7 -20 7 0 12 4 12 10 0 5 15 14 33 19
29 8 30 9 6 10 -14 1 -34 -8 -44 -19z"/>
<path d="M905 2412 c-5 -4 -11 -18 -13 -32 -1 -17 1 -21 7 -11 6 9 11 10 15 2
4 -6 16 -11 27 -11 18 0 17 3 -8 25 -17 15 -21 23 -10 19 9 -3 17 -1 17 5 0
12 -20 14 -35 3z"/>
<path d="M828 2393 c6 -2 18 -2 25 0 6 3 1 5 -13 5 -14 0 -19 -2 -12 -5z"/>
<path d="M561 2372 c-1 -28 23 -25 27 4 2 14 1 16 -6 5 -8 -11 -10 -11 -15 0
-3 8 -6 4 -6 -9z"/>
<path d="M757 2340 c-13 -25 -14 -36 -6 -41 19 -12 37 0 48 33 12 33 6 52 -8
29 -7 -11 -9 -11 -13 0 -3 8 -11 -1 -21 -21z m14 -27 c-12 -20 -14 -14 -5 12
4 9 9 14 11 11 3 -2 0 -13 -6 -23z"/>
<path d="M307 2353 c-2 -5 -10 -32 -17 -60 -6 -29 -14 -53 -17 -53 -2 0 -24
14 -48 30 -40 28 -65 37 -65 25 0 -3 16 -28 35 -55 l35 -49 -28 -15 c-31 -18
-21 -22 11 -5 12 7 23 13 25 14 2 2 -9 22 -24 44 -15 23 -25 44 -22 46 2 3 23
-9 45 -25 23 -17 43 -27 46 -23 2 4 10 32 17 60 6 29 16 51 20 48 4 -3 13 -27
20 -55 12 -51 24 -68 35 -50 3 5 2 10 -3 10 -5 0 -17 27 -26 60 -16 55 -28 72
-39 53z"/>
<path d="M805 2310 c-3 -5 -1 -10 4 -10 6 0 11 5 11 10 0 6 -2 10 -4 10 -3 0
-8 -4 -11 -10z"/>
<path d="M433 2270 c-51 -23 -58 -37 -8 -16 25 11 35 12 35 3 0 -8 3 -8 11 0
25 25 3 32 -38 13z"/>
<path d="M422 2210 c-26 -35 -27 -40 -6 -40 8 0 12 5 9 11 -4 5 1 19 11 30 9
10 15 21 12 24 -2 3 -14 -9 -26 -25z"/>
<path d="M448 2163 c7 -3 16 -2 19 1 4 3 -2 6 -13 5 -11 0 -14 -3 -6 -6z"/>
<path d="M1990 2160 c0 -5 9 -10 20 -10 11 0 20 5 20 10 0 6 -9 10 -20 10 -11
0 -20 -4 -20 -10z"/>
<path d="M130 2149 c-23 -9 -23 -11 -7 -20 10 -6 23 -8 30 -5 7 2 3 5 -8 6
-18 1 -18 2 5 15 29 16 17 19 -20 4z"/>
<path d="M494 2151 c4 -5 -8 -12 -25 -16 -17 -4 -28 -9 -26 -12 8 -8 87 19 81
28 -3 5 -12 9 -20 9 -8 0 -13 -4 -10 -9z"/>
<path d="M2066 2151 c-4 -7 -5 -15 -2 -18 9 -9 19 4 14 18 -4 11 -6 11 -12 0z"/>
<path d="M2107 2143 c-3 -5 -2 -15 2 -22 7 -10 10 -10 16 -1 4 6 3 16 -3 22
-5 5 -12 6 -15 1z"/>
<path d="M2030 2120 c0 -5 5 -10 10 -10 6 0 10 5 10 10 0 6 -4 10 -10 10 -5 0
-10 -4 -10 -10z"/>
<path d="M2150 2114 c0 -8 5 -12 10 -9 6 4 8 11 5 16 -9 14 -15 11 -15 -7z"/>
<path d="M178 2113 c7 -3 16 -2 19 1 4 3 -2 6 -13 5 -11 0 -14 -3 -6 -6z"/>
<path d="M400 2110 c0 -5 7 -7 15 -4 8 4 15 8 15 10 0 2 -7 4 -15 4 -8 0 -15
-4 -15 -10z"/>
<path d="M214 2102 c3 -5 -8 -28 -24 -52 -16 -24 -28 -46 -26 -48 2 -2 27 8
55 23 58 29 54 33 71 -67 7 -37 16 -66 20 -63 4 2 16 36 26 75 10 38 22 70 26
70 5 0 26 -9 48 -20 22 -11 44 -20 50 -20 12 0 -8 42 -35 75 -15 18 -15 17 0
-13 9 -19 14 -36 12 -39 -3 -2 -23 5 -46 16 l-41 21 -16 -59 c-10 -33 -20 -58
-24 -56 -4 3 -11 24 -14 47 -10 68 -17 73 -65 49 -46 -24 -50 -20 -21 24 22
34 25 45 9 45 -5 0 -8 -4 -5 -8z"/>
<path d="M2050 2090 c0 -5 5 -10 10 -10 6 0 10 5 10 10 0 6 -4 10 -10 10 -5 0
-10 -4 -10 -10z"/>
<path d="M315 1796 c-23 -15 -77 -25 -150 -27 -59 -2 -125 -18 -125 -32 0 -5
8 -6 17 -2 28 11 129 25 160 23 35 -2 79 9 116 29 24 13 40 13 113 2 46 -7 87
-10 89 -7 6 6 -130 28 -173 28 -15 0 -36 -6 -47 -14z"/>
<path d="M370 1780 c0 -5 5 -10 11 -10 5 0 7 5 4 10 -3 6 -8 10 -11 10 -2 0
-4 -4 -4 -10z"/>
<path d="M340 1770 c0 -5 5 -10 11 -10 5 0 7 5 4 10 -3 6 -8 10 -11 10 -2 0
-4 -4 -4 -10z"/>
<path d="M470 1730 c0 -5 5 -10 10 -10 6 0 10 5 10 10 0 6 -4 10 -10 10 -5 0
-10 -4 -10 -10z"/>
<path d="M130 1720 c0 -5 9 -10 20 -10 11 0 20 5 20 10 0 6 -9 10 -20 10 -11
0 -20 -4 -20 -10z"/>
<path d="M600 1720 c0 -5 5 -10 10 -10 6 0 10 5 10 10 0 6 -4 10 -10 10 -5 0
-10 -4 -10 -10z"/>
<path d="M40 1709 c0 -5 5 -7 10 -4 6 3 10 8 10 11 0 2 -4 4 -10 4 -5 0 -10
-5 -10 -11z"/>
<path d="M270 1709 c0 -5 5 -7 10 -4 6 3 10 8 10 11 0 2 -4 4 -10 4 -5 0 -10
-5 -10 -11z"/>
<path d="M610 1684 c0 -8 9 -14 20 -14 11 0 20 4 20 9 0 5 -9 11 -20 14 -13 3
-20 0 -20 -9z"/>
<path d="M61 1664 c0 -11 3 -14 6 -6 3 7 2 16 -1 19 -3 4 -6 -2 -5 -13z"/>
<path d="M350 1670 c0 -5 5 -10 10 -10 6 0 10 5 10 10 0 6 -4 10 -10 10 -5 0
-10 -4 -10 -10z"/>
<path d="M430 1666 c0 -9 5 -16 10 -16 6 0 10 4 10 9 0 6 -4 13 -10 16 -5 3
-10 -1 -10 -9z"/>
<path d="M270 1661 c0 -6 9 -9 20 -8 11 1 20 5 20 9 0 4 -9 8 -20 8 -11 0 -20
-4 -20 -9z"/>
<path d="M520 1661 c0 -9 30 -24 36 -18 2 1 -6 8 -16 15 -11 7 -20 8 -20 3z"/>
<path d="M165 1650 c-3 -5 -1 -10 4 -10 6 0 11 5 11 10 0 6 -2 10 -4 10 -3 0
-8 -4 -11 -10z"/>
<path d="M470 1640 c0 -5 5 -10 10 -10 6 0 10 5 10 10 0 6 -4 10 -10 10 -5 0
-10 -4 -10 -10z"/>
<path d="M590 1640 c0 -5 5 -10 10 -10 6 0 10 5 10 10 0 6 -4 10 -10 10 -5 0
-10 -4 -10 -10z"/>
<path d="M310 1630 c0 -5 5 -10 11 -10 5 0 7 5 4 10 -3 6 -8 10 -11 10 -2 0
-4 -4 -4 -10z"/>
<path d="M340 1630 c0 -5 5 -10 11 -10 5 0 7 5 4 10 -3 6 -8 10 -11 10 -2 0
-4 -4 -4 -10z"/>
<path d="M440 1630 c0 -5 5 -10 10 -10 6 0 10 5 10 10 0 6 -4 10 -10 10 -5 0
-10 -4 -10 -10z"/>
<path d="M87 1624 c-8 -8 3 -34 14 -34 11 0 12 27 0 34 -4 3 -11 3 -14 0z"/>
<path d="M235 1620 c3 -5 8 -10 11 -10 2 0 4 5 4 10 0 6 -5 10 -11 10 -5 0 -7
-4 -4 -10z"/>
<path d="M520 1620 c0 -5 5 -10 11 -10 5 0 7 5 4 10 -3 6 -8 10 -11 10 -2 0
-4 -4 -4 -10z"/>
<path d="M120 1606 c0 -9 5 -16 10 -16 6 0 10 4 10 9 0 6 -4 13 -10 16 -5 3
-10 -1 -10 -9z"/>
<path d="M166 1611 c-4 -7 -5 -15 -2 -18 9 -9 19 4 14 18 -4 11 -6 11 -12 0z"/>
<path d="M50 1590 c0 -5 5 -10 10 -10 6 0 10 5 10 10 0 6 -4 10 -10 10 -5 0
-10 -4 -10 -10z"/>
<path d="M190 1552 c0 -5 9 -12 21 -15 13 -3 19 -1 16 6 -5 15 -37 22 -37 9z"/>
<path d="M240 1550 c0 -5 5 -10 11 -10 5 0 7 5 4 10 -3 6 -8 10 -11 10 -2 0
-4 -4 -4 -10z"/>
<path d="M300 1549 c0 -5 5 -7 10 -4 6 3 10 8 10 11 0 2 -4 4 -10 4 -5 0 -10
-5 -10 -11z"/>
<path d="M70 1531 c0 -6 5 -13 10 -16 6 -3 10 1 10 9 0 9 -4 16 -10 16 -5 0
-10 -4 -10 -9z"/>
<path d="M260 1500 c0 -5 9 -10 20 -10 11 0 20 5 20 10 0 6 -9 10 -20 10 -11
0 -20 -4 -20 -10z"/>
<path d="M166 1481 c-3 -5 1 -14 9 -21 19 -16 19 -30 0 -30 -20 0 -19 -10 3
-26 16 -13 16 -13 -2 -14 -19 0 -19 0 -1 -14 18 -13 18 -15 2 -31 -22 -21 -48
-16 -63 13 -9 18 -13 20 -17 9 -7 -19 25 -48 49 -47 11 1 36 1 57 1 20 0 35 4
33 8 -3 4 -1 13 5 21 7 12 9 11 9 -4 0 -15 3 -17 11 -9 18 18 2 46 -21 40 -11
-3 -20 -1 -20 4 0 5 6 9 13 9 7 0 4 7 -7 15 -19 15 -19 15 3 15 28 0 23 24 -6
28 -15 2 -19 8 -16 23 4 14 0 19 -15 19 -12 0 -23 -4 -26 -9z"/>
<path d="M50 1450 c0 -5 9 -10 20 -10 11 0 20 5 20 10 0 6 -9 10 -20 10 -11 0
-20 -4 -20 -10z"/>
<path d="M285 1440 c-3 -5 -1 -10 4 -10 6 0 11 5 11 10 0 6 -2 10 -4 10 -3 0
-8 -4 -11 -10z"/>
<path d="M130 1390 c-9 -6 -10 -10 -3 -10 6 0 15 5 18 10 8 12 4 12 -15 0z"/>
<path d="M320 1340 c0 -5 4 -10 9 -10 6 0 13 5 16 10 3 6 -1 10 -9 10 -9 0
-16 -4 -16 -10z"/>
<path d="M80 1311 c0 -5 7 -12 16 -15 14 -5 15 -4 4 9 -14 17 -20 19 -20 6z"/>
<path d="M240 1290 c-12 -8 -12 -10 3 -16 21 -8 35 2 21 16 -5 5 -15 6 -24 0z"/>
<path d="M290 1290 c0 -5 5 -10 10 -10 6 0 10 5 10 10 0 6 -4 10 -10 10 -5 0
-10 -4 -10 -10z"/>
<path d="M385 1280 c-3 -5 -1 -10 4 -10 6 0 11 5 11 10 0 6 -2 10 -4 10 -3 0
-8 -4 -11 -10z"/>
</g>
</svg>
