<?xml version="1.0" standalone="no"?>
<!DOCTYPE svg PUBLIC "-//W3C//DTD SVG 20010904//EN"
 "http://www.w3.org/TR/2001/REC-SVG-20010904/DTD/svg10.dtd">
<svg version="1.0" xmlns="http://www.w3.org/2000/svg"
 width="222.000000pt" height="390.000000pt" viewBox="0 0 222.000000 390.000000"
 preserveAspectRatio="xMidYMid meet">
<metadata>
Created by potrace 1.16, written by Peter Selinger 2001-2019
</metadata>
<g transform="translate(0.000000,390.000000) scale(0.100000,-0.100000)"
fill="#000000" stroke="none">
<path d="M1629 3886 c-2 -3 -98 -6 -212 -7 -114 -1 -207 -6 -207 -10 0 -5 61
-9 135 -9 74 0 135 -2 135 -5 0 -3 -28 -62 -62 -130 -45 -90 -67 -125 -80
-125 -14 0 -18 8 -18 35 0 19 -5 35 -10 35 -6 0 -8 -11 -4 -25 6 -26 -14 -44
-35 -31 -16 10 13 82 32 78 8 -1 19 2 22 9 5 7 -2 9 -21 7 -22 -2 -29 -10 -38
-43 -14 -47 -46 -62 -46 -21 0 14 -4 26 -9 26 -4 0 -6 -11 -3 -25 4 -22 1 -25
-23 -25 -25 0 -27 3 -23 29 2 17 1 28 -4 25 -4 -3 -8 -16 -8 -30 0 -18 -5 -24
-23 -24 -18 0 -26 8 -35 36 -11 38 1 53 34 40 21 -8 84 3 84 15 0 5 -20 6 -45
2 -25 -3 -45 -2 -45 3 1 31 30 99 44 102 11 2 14 -1 10 -12 -3 -9 -1 -16 5
-16 6 0 11 7 11 15 0 8 8 15 18 15 15 0 17 -8 15 -60 -2 -52 0 -60 15 -60 30
0 42 21 42 72 0 35 4 48 14 48 8 0 18 5 21 10 5 8 -32 9 -117 6 -67 -2 -161
-5 -208 -7 -47 -1 -75 -4 -64 -6 12 -2 32 -15 44 -28 22 -23 22 -26 7 -43 -24
-26 -21 -41 9 -52 33 -13 47 -13 39 0 -3 6 -18 10 -32 10 -25 0 -26 1 -8 20
18 19 18 19 56 -19 47 -46 63 -101 31 -101 -16 0 -22 8 -25 33 -4 31 -4 31 -5
-5 -2 -47 -24 -51 -42 -8 -7 16 -18 35 -26 41 -8 6 -2 -9 12 -35 l26 -46 -27
-10 c-14 -5 -28 -10 -29 -10 -2 0 -9 20 -16 45 -7 25 -15 44 -17 41 -2 -2 1
-23 7 -46 18 -68 -1 -69 -56 -1 -68 83 -97 95 -64 26 15 -30 18 -33 14 -12 -4
15 -4 27 -2 27 3 0 24 -23 48 -51 41 -49 42 -52 25 -65 -25 -18 -13 -29 16
-14 26 14 134 7 223 -16 68 -18 186 -71 186 -85 0 -5 6 -9 13 -9 7 0 38 -23
69 -50 117 -104 200 -275 214 -439 7 -86 -4 -117 -60 -170 l-24 -23 13 39 c43
120 -23 177 -106 93 -22 -22 -48 -40 -57 -40 -23 0 -42 19 -42 41 0 9 -17 31
-37 48 l-38 31 25 19 c33 26 19 38 -22 18 l-33 -16 -18 35 c-18 36 -30 36 -55
2 -19 -26 -42 -23 -42 6 0 14 -9 66 -21 116 -12 50 -18 94 -15 98 10 9 42 -14
39 -27 -2 -6 7 -11 20 -11 17 0 27 10 40 40 9 22 17 45 17 50 0 18 -38 -8 -45
-31 -8 -26 -35 -21 -46 8 -6 16 -3 27 8 38 8 9 13 19 9 22 -9 9 -33 -15 -46
-47 -12 -29 -13 -29 -41 -14 -16 8 -29 18 -29 23 0 14 -76 111 -99 128 -12 8
-52 19 -89 25 -39 6 -96 25 -136 45 -37 19 -70 33 -72 31 -2 -3 32 -22 76 -43
75 -37 79 -40 63 -57 -9 -10 -20 -18 -26 -18 -5 0 -36 24 -70 52 -33 29 -54
44 -47 33 7 -11 34 -38 61 -60 49 -40 65 -71 32 -61 -10 3 -67 19 -128 36 -60
17 -118 35 -129 41 -13 8 -22 7 -29 0 -16 -16 -7 -21 128 -90 135 -69 138 -71
129 -94 -5 -14 -21 -17 -86 -17 -68 0 -79 -2 -69 -14 12 -15 100 -40 108 -32
3 3 -6 8 -21 12 -39 10 -31 24 14 24 28 0 40 -4 40 -14 0 -8 -6 -16 -12 -19
-10 -3 -10 -7 0 -19 20 -25 4 -29 -159 -41 -136 -9 -165 -16 -140 -31 4 -3 51
-7 102 -10 l94 -4 -75 12 -75 12 100 8 c55 4 112 9 126 12 25 5 27 2 32 -43 3
-26 4 -50 2 -53 -2 -3 -33 -16 -69 -30 -36 -13 -66 -28 -66 -33 0 -4 35 -7 77
-6 79 2 108 -12 61 -30 -13 -5 -77 -35 -142 -65 -90 -43 -116 -60 -108 -68 9
-9 32 -5 94 15 204 64 197 63 216 44 16 -17 14 -21 -45 -79 -56 -54 -74 -78
-58 -78 3 0 39 18 80 40 48 27 76 37 80 30 8 -14 -9 -39 -79 -115 -31 -33 -56
-64 -56 -70 0 -10 4 -6 98 96 43 48 63 64 71 56 6 -6 11 -14 11 -17 0 -12
-172 -145 -183 -143 -13 2 -52 -45 -44 -54 5 -4 136 96 227 173 10 9 20 10 30
4 13 -8 9 -21 -22 -79 -49 -90 -33 -101 36 -27 43 47 76 69 76 52 0 -2 -21
-61 -46 -132 -61 -171 -59 -164 -42 -164 8 0 47 59 87 131 70 124 75 130 100
124 14 -4 27 -7 27 -8 1 -1 -2 -31 -7 -67 -16 -114 6 -119 46 -9 12 35 27 65
33 67 6 2 12 -38 16 -105 9 -156 15 -193 31 -193 13 0 26 74 40 233 6 61 19
86 30 55 53 -152 71 -168 62 -53 -10 113 10 101 85 -50 56 -113 88 -152 88
-110 0 12 -32 119 -75 252 -2 7 4 17 14 23 16 8 26 1 63 -45 39 -49 68 -69 68
-46 0 4 -13 37 -29 72 -27 60 -30 79 -12 79 4 0 56 -43 117 -95 60 -52 112
-95 117 -95 19 0 1 30 -70 118 -109 134 -103 125 -88 145 11 16 16 16 70 -3
89 -31 95 -26 36 34 -33 34 -49 56 -42 61 6 3 42 -5 79 -18 164 -61 185 -68
194 -59 6 6 -1 17 -19 29 -46 32 -191 113 -202 113 -15 0 -22 16 -15 34 5 12
20 16 58 16 57 0 96 8 96 20 0 5 -28 19 -62 32 -34 13 -63 28 -65 34 -3 8 37
14 119 18 146 8 180 14 175 29 -2 7 -62 19 -153 29 -82 9 -150 17 -152 17 -2
1 -2 11 0 23 2 17 17 27 60 43 31 11 60 23 64 28 4 4 -28 7 -72 7 l-79 0 25
20 c14 11 50 31 80 46 91 43 94 44 125 69 16 13 26 27 22 31 -7 7 -88 -13
-202 -51 -66 -22 -71 -23 -88 -7 -18 16 -17 19 37 69 51 48 68 73 49 73 -5 0
-34 -16 -66 -35 -108 -65 -104 -43 18 103 52 62 95 120 95 129 0 13 -3 14 -17
2 -16 -13 -175 -143 -215 -177 -10 -8 -24 -12 -32 -9 -13 5 -11 18 14 78 46
111 39 118 -33 29 -85 -105 -95 -74 -32 103 l47 134 320 7 c177 3 323 5 325 2
2 -2 6 -311 8 -687 2 -376 7 -737 10 -801 3 -68 2 -118 -3 -118 -5 0 -12 75
-16 167 -4 94 -12 174 -18 181 -17 20 -173 14 -224 -8 -23 -10 -45 -23 -49
-29 -4 -7 -8 -110 -10 -229 -3 -250 -13 -392 -28 -392 -6 0 -20 9 -32 20 -21
19 -21 19 -65 -10 -25 -17 -50 -28 -57 -25 -7 2 -15 0 -19 -6 -3 -6 -31 -21
-62 -35 -32 -14 -65 -29 -75 -35 -12 -7 -29 -7 -50 0 -39 12 -237 10 -237 -2
0 -4 5 -17 10 -27 7 -13 7 -21 0 -25 -6 -4 -8 -16 -5 -28 5 -18 1 -16 -22 10
-15 17 -36 43 -46 58 -11 14 -34 33 -52 42 -43 21 -50 37 -20 53 21 11 30 9
73 -13 42 -22 62 -26 158 -27 60 -2 120 1 134 4 14 4 45 3 68 -2 23 -6 44 -6
47 -2 6 10 -41 21 -103 26 -27 1 -40 -1 -36 -8 10 -15 -215 1 -248 18 -16 8
-41 21 -57 29 -26 14 -29 13 -51 -10 -13 -14 -33 -25 -45 -25 -12 0 -30 -9
-40 -20 -10 -11 -13 -20 -8 -20 6 0 16 7 23 16 12 13 16 12 37 -10 13 -14 28
-26 33 -26 11 0 70 -50 70 -59 0 -4 -12 -6 -28 -3 -17 2 -47 -6 -77 -22 -31
-16 -42 -26 -30 -26 11 0 35 9 53 20 29 18 39 19 68 10 38 -13 42 -21 19 -40
-9 -7 -13 -15 -10 -18 3 -3 14 3 26 14 l21 19 -18 -32 c-10 -17 -21 -28 -24
-24 -3 5 -30 5 -60 0 -87 -12 -90 -12 -90 15 0 13 -10 35 -21 50 -19 24 -21
35 -15 87 7 57 6 62 -22 91 -25 25 -33 28 -50 19 -12 -6 -26 -26 -32 -44 -13
-35 -31 -39 -99 -23 -26 6 -37 5 -45 -6 -6 -8 -25 -21 -42 -30 -37 -18 -132
-10 -182 16 -30 15 -34 15 -57 0 -15 -10 -30 -13 -35 -8 -20 22 -31 105 -42
339 l-12 249 -41 50 c-44 54 -37 52 -187 47 -61 -2 -67 -15 -67 -158 0 -69 -3
-128 -6 -131 -2 -3 -4 163 -4 369 0 206 -1 563 -3 794 l-3 420 528 0 c290 0
527 3 527 8 0 4 -24 7 -52 7 -29 1 -270 3 -534 6 -379 5 -483 3 -489 -7 -11
-16 -11 -308 0 -849 5 -245 9 -949 9 -1565 0 -616 1 -1190 3 -1276 l4 -157 67
-5 c37 -3 528 -2 1091 1 l1025 7 -3 345 c-4 435 -6 772 -15 2280 -4 668 -9
1221 -11 1228 -3 9 -68 12 -278 12 -151 0 -276 -2 -278 -4z m-618 -79 c-1 -12
-15 -9 -19 4 -3 6 1 10 8 8 6 -3 11 -8 11 -12z m112 6 c2 -5 -1 -24 -8 -43
l-12 -35 -7 32 c-4 18 -12 35 -17 38 -13 9 -11 -11 6 -52 19 -45 19 -43 -6
-43 -22 0 -58 36 -59 59 0 25 28 47 64 49 19 1 36 -1 39 -5z m137 -48 c0 -30
-4 -55 -10 -55 -5 0 -10 25 -10 55 0 30 5 55 10 55 6 0 10 -25 10 -55z m177
-88 c-23 -72 -36 -97 -47 -94 -8 1 -14 12 -13 23 2 22 83 177 89 171 2 -2 -11
-47 -29 -100z m277 -49 c-13 -21 -124 -157 -133 -162 -5 -3 -16 3 -25 13 -16
18 -13 22 71 89 93 76 99 79 87 60z m-204 -53 c-17 -40 -23 -45 -35 -35 -13
11 -11 18 16 52 17 21 33 37 35 35 3 -2 -5 -26 -16 -52z m-201 15 c108 -30
168 -65 241 -139 92 -93 133 -181 144 -311 4 -56 -16 -180 -38 -235 -12 -30
-13 -29 -20 34 -18 155 -83 291 -192 402 -113 115 -238 173 -409 193 l-100 12
68 23 c131 44 203 49 306 21z m401 -123 c0 -2 -18 -18 -41 -36 -26 -22 -44
-30 -50 -24 -7 7 5 19 33 36 40 24 58 32 58 24z m-811 -84 c14 -11 40 -42 58
-69 17 -27 47 -65 66 -84 28 -28 40 -52 56 -114 12 -44 21 -95 21 -113 0 -27
5 -34 27 -39 15 -4 34 -2 46 5 16 10 21 10 28 -1 5 -7 9 -19 9 -25 0 -7 11
-15 25 -19 14 -3 25 -9 25 -13 0 -4 11 -13 25 -19 13 -6 31 -27 39 -46 25 -59
76 -55 140 13 36 37 50 39 72 6 15 -22 15 -28 -1 -76 -31 -92 -90 -139 -220
-175 -64 -18 -195 -18 -260 0 -165 44 -302 170 -356 327 -28 82 -30 209 -5
294 19 65 69 160 89 169 22 10 90 -2 116 -21z m-254 -34 c22 -6 46 -13 53 -15
10 -3 10 -8 1 -26 -6 -13 -13 -25 -15 -27 -5 -5 -214 102 -214 110 0 4 30 -2
68 -12 37 -11 85 -24 107 -30z m1255 47 c0 -7 -211 -118 -216 -114 -2 3 -5 15
-6 27 -3 22 6 26 107 57 61 18 111 33 113 33 1 1 2 -1 2 -3z m-143 -172 c-16
-9 -36 -12 -45 -8 -14 6 -13 8 8 14 14 5 34 8 45 9 16 0 14 -3 -8 -15z m183
-114 l55 -6 -45 -7 c-25 -3 -85 -9 -134 -12 -92 -6 -111 0 -99 33 6 15 45 14
223 -8z m-174 -97 l49 -18 -50 -5 c-27 -3 -53 -4 -57 -3 -5 3 0 43 6 43 2 0
25 -8 52 -17z m-1101 -43 c-3 -6 -32 -10 -63 -10 l-57 1 55 22 c44 18 57 20
63 10 4 -7 5 -18 2 -23z m28 -70 c3 -11 2 -22 -1 -24 -6 -3 -204 -63 -242 -73
-8 -2 39 23 105 56 66 33 123 60 126 60 4 1 9 -8 12 -19z m1172 -83 c17 -10
21 -16 10 -12 -11 4 -58 20 -105 36 -94 33 -103 39 -94 62 5 15 16 12 83 -25
42 -23 90 -50 106 -61z m-159 -54 c-5 -6 -86 28 -86 36 0 4 5 12 12 19 9 9 19
5 45 -20 18 -17 31 -33 29 -35z m-953 32 c4 -8 3 -16 -1 -18 -4 -2 -29 -17
-57 -32 l-50 -28 45 46 c48 51 55 55 63 32z m897 -157 c39 -49 68 -88 65 -88
-6 0 -86 66 -164 136 -12 11 -12 16 -1 29 7 9 16 14 21 13 4 -2 39 -42 79 -90z
m-756 23 c5 -7 -60 -101 -70 -101 -4 0 6 23 31 73 19 37 29 45 39 28z m620
-50 c15 -29 22 -50 16 -46 -19 12 -61 85 -54 96 8 13 6 15 38 -50z m-524 -6
c0 -3 -19 -40 -42 -82 -24 -43 -49 -90 -57 -106 -8 -15 -15 -26 -17 -24 -1 1
16 55 38 119 37 107 42 117 59 107 10 -5 19 -12 19 -14z m433 -83 c15 -49 27
-95 26 -103 0 -8 -22 29 -48 81 -27 52 -47 98 -44 103 2 4 12 7 22 7 14 0 24
-20 44 -88z m712 -29 c13 -196 34 -656 30 -661 -1 -1 -14 3 -29 9 -21 10 -29
9 -43 -2 -10 -9 -43 -16 -74 -18 l-56 -2 -6 272 c-4 150 -7 326 -7 391 l0 118
89 0 89 0 7 -107z m-836 44 l-1 -42 -14 34 c-16 35 -12 67 6 56 5 -3 10 -25 9
-48z m637 -345 l6 -381 -51 1 c-28 1 -51 6 -51 11 0 5 -12 1 -27 -9 -81 -53
-193 -88 -193 -61 0 12 -8 11 -39 -5 -37 -18 -39 -22 -30 -46 5 -14 24 -39 41
-55 29 -28 32 -29 72 -17 22 6 51 21 64 33 19 18 22 18 22 4 0 -9 -6 -17 -12
-17 -9 0 -10 -2 -2 -8 6 -4 15 -17 19 -30 4 -13 9 -21 12 -19 9 10 10 42 2 65
-5 13 -5 22 1 22 6 0 10 15 11 33 0 27 2 29 9 12 7 -16 9 -17 9 -3 1 22 -18
33 -25 15 -7 -18 -49 -16 -49 2 0 8 6 16 14 19 8 3 11 0 7 -7 -4 -6 -2 -11 4
-11 7 0 9 7 6 16 -4 10 -1 14 6 12 7 -3 20 2 29 10 9 8 32 16 50 17 19 1 81 6
139 10 58 4 110 12 117 17 13 11 89 -9 78 -20 -3 -3 -50 -6 -103 -7 -97 0
-182 -17 -182 -36 0 -6 7 -6 20 1 11 6 32 7 46 4 20 -5 25 -4 19 6 -5 9 -2 10
14 5 12 -4 21 -2 21 4 0 12 40 14 117 5 42 -5 50 -10 45 -23 -3 -9 -10 -19
-16 -23 -7 -5 -3 -8 9 -8 17 0 17 -2 5 -10 -13 -9 -13 -11 0 -20 8 -5 12 -10
8 -11 -5 -1 -12 -3 -18 -4 -5 -1 -30 -3 -55 -4 -35 -1 -43 -4 -39 -16 5 -11
11 -12 25 -4 11 6 32 9 47 7 21 -2 26 -8 25 -25 -2 -13 1 -23 5 -23 12 0 11
-124 -1 -139 -9 -11 -9 -15 1 -18 18 -7 16 -73 -3 -73 -8 0 -15 -4 -15 -10 0
-5 7 -10 15 -10 23 0 21 -80 -2 -81 -17 -1 -17 -2 0 -6 27 -7 19 -137 -11
-185 -12 -20 -25 -57 -29 -84 l-6 -49 -14 33 c-16 39 -27 42 -19 4 3 -15 8
-69 11 -121 3 -70 0 -101 -11 -122 -13 -26 -13 -29 0 -29 9 0 13 -6 10 -14 -4
-10 8 -16 45 -21 71 -10 67 -29 -4 -22 -69 7 -172 -3 -153 -14 7 -5 30 -9 50
-9 20 0 61 -5 90 -11 65 -14 92 -34 33 -25 -47 7 -67 7 -202 3 -56 -2 -106 -7
-110 -11 -4 -5 60 -6 142 -3 161 6 198 1 203 -26 3 -12 -3 -17 -22 -17 -16 0
-26 -6 -26 -15 0 -18 17 -20 22 -3 2 6 10 8 16 4 7 -4 10 -11 7 -15 -8 -14
-85 -22 -103 -12 -14 9 -12 11 13 12 30 1 30 1 5 9 -23 7 -23 8 -3 9 12 1 25
6 29 12 9 15 -16 30 -46 27 -20 -2 -24 -8 -22 -26 3 -18 -2 -22 -21 -22 -33 0
-56 -27 -32 -36 12 -5 13 -9 5 -14 -18 -11 -3 -30 23 -30 20 -1 21 -2 5 -14
-10 -7 -18 -22 -18 -32 1 -18 1 -18 14 -1 13 16 15 15 24 -20 l10 -38 1 43 1
43 57 -3 c31 -2 58 -8 60 -14 2 -7 -7 -10 -24 -8 -27 3 -27 3 -3 -4 19 -6 26
-16 28 -40 l3 -33 -389 3 c-348 3 -390 5 -405 20 -19 19 -56 33 -64 24 -3 -3
9 -12 27 -19 22 -10 28 -16 17 -20 -8 -3 -31 3 -51 14 -36 19 -86 26 -86 11 0
-4 12 -9 27 -10 33 -3 41 -10 20 -18 -9 -3 -31 2 -50 11 -23 11 -53 15 -88 12
l-54 -3 60 -3 c90 -4 32 -19 -79 -20 -94 -1 -100 3 -38 27 51 19 92 25 190 25
53 1 81 4 79 11 -2 7 -29 10 -70 8 l-66 -4 12 26 c12 25 12 25 27 5 17 -21 32
-17 23 7 -6 16 13 19 22 4 16 -26 27 -8 22 35 l-7 45 43 -6 c23 -3 58 -10 77
-15 19 -5 44 -9 55 -8 32 1 -56 25 -117 32 -46 6 -63 14 -99 47 -27 25 -58 43
-83 48 l-40 7 27 18 c25 16 28 16 62 -5 27 -15 33 -23 23 -29 -9 -6 -7 -9 8
-9 13 0 24 -8 27 -20 8 -31 27 -23 27 11 0 23 -4 30 -14 26 -11 -4 -13 -1 -9
10 4 11 2 14 -8 11 -16 -6 -74 20 -65 29 3 3 17 -2 31 -11 14 -9 25 -12 25 -6
0 7 6 8 19 1 15 -9 20 -7 24 11 3 12 2 29 -3 39 -9 15 -7 16 14 6 14 -7 22
-15 20 -18 -2 -4 3 -9 11 -13 8 -3 15 -1 15 5 0 6 5 7 12 3 7 -5 25 -7 41 -6
17 2 26 -2 22 -8 -3 -5 -31 -10 -62 -10 -31 0 -54 -3 -50 -6 3 -4 25 -6 48 -6
23 1 56 -7 75 -17 21 -12 58 -19 106 -20 39 -1 99 -9 133 -16 65 -16 145 -20
145 -7 0 4 -17 7 -37 8 -21 0 -62 6 -92 12 -29 7 -95 15 -145 18 -82 6 -135
19 -123 30 2 2 34 0 71 -5 52 -7 72 -7 93 4 23 12 29 12 43 0 19 -17 30 -19
30 -5 0 6 -7 10 -15 10 -16 0 -19 9 -9 34 8 20 38 21 53 2 13 -15 5 -46 -12
-46 -6 0 -8 -2 -5 -5 3 -3 18 1 33 9 29 15 45 13 45 -5 0 -5 -6 -9 -14 -9 -8
0 -17 -3 -19 -7 -3 -5 59 -9 136 -11 78 -2 138 0 134 4 -4 5 -35 7 -67 6 -33
-1 -60 1 -60 6 0 13 72 32 123 32 32 0 47 5 51 16 4 11 13 14 31 10 24 -6 35
7 16 18 -5 3 -11 17 -13 31 -4 19 -1 25 11 23 11 -2 15 4 14 17 -1 11 -3 59
-5 108 -1 48 -3 87 -4 87 -2 0 -11 -16 -20 -35 -9 -19 -23 -35 -31 -35 -8 0
-11 -5 -8 -10 4 -6 2 -17 -4 -24 -14 -16 -25 -126 -13 -126 4 0 13 5 20 12 9
9 12 6 12 -15 l0 -27 -37 16 c-21 9 -44 17 -50 17 -14 0 -18 23 -5 30 4 2 2 2
-5 1 -6 -2 -14 4 -17 13 -6 14 -8 14 -20 -2 -12 -16 -13 -16 -19 -1 -4 9 -16
16 -27 16 -13 0 -20 7 -20 20 0 22 -5 23 -35 10 -19 -9 -19 -9 3 -16 27 -8 29
-34 3 -34 -30 0 -51 -11 -51 -25 0 -10 -10 -12 -34 -8 -26 4 -39 0 -55 -16
-30 -30 -33 -27 -29 24 3 48 -8 61 -18 20 -4 -16 -13 -25 -25 -25 -20 0 -26
24 -9 35 6 3 10 17 10 31 0 27 32 64 56 64 8 0 12 -4 9 -10 -3 -5 0 -7 8 -4
21 8 29 -34 9 -46 -24 -13 -5 -12 53 4 l50 14 -37 1 c-25 1 -38 6 -38 15 0 7
-11 21 -25 30 -38 25 -76 4 -93 -51 -14 -42 -42 -67 -42 -36 0 12 -6 9 -26
-10 -15 -15 -31 -24 -37 -20 -6 3 -7 1 -3 -5 4 -7 26 -12 49 -12 76 0 132 -51
73 -66 -14 -3 -26 -9 -26 -13 0 -4 -28 -7 -61 -6 -47 0 -64 4 -73 17 -8 14 -6
22 14 40 l25 23 -38 3 c-29 3 -37 7 -37 23 0 10 -7 19 -15 19 -9 0 -12 -6 -9
-15 5 -11 2 -13 -10 -9 -9 3 -16 11 -16 16 0 6 -6 5 -15 -2 -12 -10 -15 -10
-15 1 0 8 -6 5 -15 -7 -12 -16 -14 -16 -15 -3 0 9 7 36 15 59 19 55 19 60 -5
31 -11 -13 -20 -34 -20 -48 0 -15 -4 -22 -11 -18 -6 4 -8 13 -5 21 3 8 3 14 0
14 -2 0 -9 -10 -14 -22 l-9 -23 0 23 c-1 13 -5 21 -10 18 -5 -3 -12 6 -16 22
-7 25 -8 25 -15 7 -7 -16 -9 -17 -9 -3 -2 29 11 49 35 59 13 4 24 14 23 21 0
10 -2 10 -6 1 -2 -7 -9 -13 -14 -13 -4 0 -6 7 -3 15 11 27 -4 16 -26 -20 -13
-20 -21 -48 -19 -67 1 -18 -2 -42 -6 -52 -6 -13 -4 -21 3 -24 23 -7 12 -23
-10 -16 -13 3 -24 7 -25 8 -2 2 3 26 11 54 7 29 10 52 5 52 -7 0 -22 34 -24
55 -2 30 -19 56 -41 61 -29 8 -30 7 -39 -27 -4 -17 -1 -31 9 -42 11 -11 14
-26 10 -49 -10 -55 -25 -87 -39 -82 -10 4 -12 -1 -8 -18 l5 -23 -16 23 c-10
12 -15 26 -12 31 4 5 -3 7 -14 4 -25 -7 -25 1 1 43 17 28 19 40 11 62 -6 19
-6 35 0 46 11 20 5 31 -12 21 -8 -5 -10 -23 -6 -54 6 -46 -6 -83 -21 -67 -4 5
-3 11 3 13 13 4 7 43 -7 43 -5 0 -6 -6 -3 -14 8 -22 -17 -31 -32 -12 -10 15
-9 21 7 37 32 32 26 92 -16 138 -19 21 -35 46 -35 55 0 9 -4 16 -10 16 -23 0
5 -64 37 -83 21 -13 15 -22 -23 -36 -19 -7 -40 -23 -46 -37 -10 -22 -42 -41
-61 -36 -4 1 -6 -1 -5 -5 0 -5 -1 -15 -5 -23 -3 -8 -8 -37 -10 -65 -5 -52 15
-105 39 -105 7 0 15 -9 19 -19 3 -11 21 -26 40 -35 32 -16 55 -36 39 -36 -25
0 -84 26 -84 37 0 30 -15 10 -16 -22 -1 -19 3 -32 7 -29 5 3 19 2 32 -2 l22
-8 -25 -7 c-17 -5 -5 -7 40 -8 72 -1 71 -13 -3 -29 -43 -9 -48 -8 -43 7 4 9
-5 4 -18 -11 -16 -17 -31 -26 -40 -22 -21 8 -20 13 4 39 27 29 17 65 -19 64
l-26 -1 25 -7 c17 -5 21 -9 12 -15 -6 -4 -16 -5 -20 -2 -7 4 -38 -1 -119 -19
-13 -3 -23 -10 -23 -16 0 -6 6 -6 18 0 10 5 43 12 73 16 55 6 52 2 -18 -26
-30 -11 -29 -37 1 -45 13 -3 26 -14 29 -23 4 -15 -8 -21 -72 -35 -84 -18 -119
-20 -82 -5 13 5 21 12 18 16 -4 3 -19 1 -34 -5 -15 -6 -44 -13 -63 -16 -38 -7
-107 -55 -79 -56 9 0 28 9 42 20 14 11 40 23 59 25 31 5 32 5 8 -6 -34 -16 -8
-24 32 -10 39 14 73 14 43 0 -19 -8 7 -7 140 6 22 2 32 2 23 -1 -10 -3 -18
-10 -18 -14 0 -6 11 -6 25 0 14 5 25 6 25 1 0 -4 -26 -14 -57 -21 -73 -16 -87
-23 -113 -60 -20 -29 -21 -30 -2 -30 10 0 24 11 30 24 10 23 59 47 123 60 22
5 27 13 32 45 2 21 15 53 28 70 21 28 28 31 73 30 l51 -2 -42 -6 c-24 -4 -46
-11 -50 -16 -5 -4 6 -5 24 -2 25 5 31 3 29 -10 -2 -9 -9 -19 -17 -21 -11 -3
-11 -2 1 7 11 7 5 9 -22 8 -20 -1 -34 -5 -32 -9 3 -4 -6 -16 -18 -28 -19 -18
-21 -22 -8 -30 13 -9 13 -11 0 -20 -9 -6 -10 -10 -3 -10 6 0 13 -8 16 -17 3
-13 9 -8 21 20 9 20 21 37 27 37 5 0 7 4 4 10 -4 6 5 7 23 4 17 -4 32 -1 36 5
4 6 12 11 17 11 25 0 -6 -21 -46 -31 -37 -9 -44 -15 -49 -42 -16 -88 -17 -87
30 -62 26 13 26 20 0 16 -5 -1 -6 5 -2 14 3 9 6 21 6 27 0 5 10 9 23 8 12 -1
36 -1 52 0 30 2 30 2 5 10 -21 7 -22 8 -5 9 20 1 45 -16 45 -30 0 -4 -18 -10
-41 -14 -50 -9 -61 -31 -28 -56 24 -18 23 -19 -94 -19 -78 0 -116 3 -112 10 4
6 10 8 15 5 11 -7 60 15 60 27 0 14 -25 9 -76 -17 -40 -20 -64 -25 -128 -25
-74 0 -78 1 -64 18 9 9 13 22 11 29 -7 18 37 41 108 58 l64 15 -59 -5 c-71 -7
-123 -29 -132 -58 -14 -47 -65 -76 -77 -44 -4 8 -8 9 -14 1 -4 -6 -18 -13 -30
-16 -38 -10 -28 30 17 74 45 42 42 48 -7 18 -21 -12 -35 -31 -41 -52 l-8 -33
-95 -6 c-52 -3 -96 -3 -99 -1 -3 2 3 9 14 16 10 6 37 29 60 52 90 89 115 102
242 127 101 21 119 27 119 43 0 13 -8 20 -25 21 -14 1 -18 0 -7 -3 29 -9 20
-34 -13 -34 -16 0 -68 -9 -116 -20 -89 -21 -154 -61 -228 -139 -17 -17 -33
-31 -38 -31 -4 0 -17 -9 -27 -19 -15 -15 -29 -18 -57 -15 -48 6 -50 8 -36 39
15 32 16 58 2 50 -5 -3 -10 0 -10 7 1 7 28 25 62 41 33 15 59 30 56 33 -4 3
-28 -6 -56 -20 -27 -14 -52 -22 -56 -19 -3 4 -6 28 -6 55 0 39 3 48 18 49 16
1 16 2 -1 6 -29 8 -19 28 15 28 81 1 152 7 141 12 -10 3 -10 9 0 24 14 22 29
26 21 4 -4 -8 -1 -15 4 -15 6 0 13 -8 15 -17 4 -14 5 -12 6 5 1 29 16 28 46
-4 21 -23 26 -24 31 -10 5 13 9 14 21 4 12 -10 18 -9 29 7 8 11 12 25 10 31
-3 7 2 15 10 18 9 4 14 -1 14 -14 0 -11 -5 -20 -11 -20 -6 0 -3 -7 5 -16 14
-14 18 -13 41 3 23 17 37 62 15 48 -5 -3 -10 -1 -10 4 0 6 7 11 15 11 10 0 15
-10 15 -30 0 -16 2 -30 4 -30 14 0 72 25 78 34 13 18 9 24 -12 19 -11 -3 -20
-9 -20 -14 0 -5 -8 -9 -17 -9 -15 0 -14 2 3 19 10 10 24 18 29 17 11 -1 8 45
-5 57 -4 5 -5 -3 -3 -17 4 -19 1 -26 -10 -26 -8 0 -18 -6 -21 -12 -3 -7 -4 20
-2 59 2 40 -1 70 -5 67 -5 -3 -9 -13 -10 -22 0 -9 -3 -12 -5 -5 -3 6 3 24 13
40 10 15 12 24 6 20 -8 -5 -13 -3 -13 7 0 8 -5 18 -11 22 -14 9 -29 -15 -21
-34 3 -10 1 -13 -7 -8 -8 6 -11 1 -10 -16 1 -12 1 -48 0 -78 l-3 -55 -12 37
c-15 50 -31 64 -33 30 0 -15 3 -30 9 -33 7 -5 7 -13 0 -25 -10 -17 -11 -17
-16 6 -11 55 -12 90 -2 91 6 0 1 5 -11 11 -17 8 -26 8 -38 -2 -14 -11 -14 -14
1 -24 12 -9 14 -21 8 -51 -6 -35 -8 -37 -15 -17 -5 12 -6 30 -3 40 5 16 5 16
-9 0 -24 -30 -29 -20 -25 47 2 36 1 65 -2 65 -12 0 -33 -46 -39 -89 -6 -43 -8
-45 -19 -23 -10 18 -10 35 2 90 7 37 17 75 21 85 11 25 -12 21 -41 -8 -28 -28
-54 -83 -54 -115 0 -11 -9 -28 -19 -37 -11 -9 -17 -23 -14 -32 4 -13 2 -13
-10 1 -8 10 -18 14 -22 10 -4 -4 -6 3 -3 15 4 13 0 24 -8 27 -8 3 -14 -1 -14
-9 0 -18 -13 -26 -29 -16 -10 6 -14 50 -15 171 l-2 163 32 13 c44 18 55 37 17
29 -15 -4 -33 -8 -39 -10 -7 -2 -11 22 -12 66 -1 63 7 84 23 59 4 -6 11 -8 16
-4 6 4 2 14 -10 25 -23 22 -29 84 -8 92 9 4 9 8 1 14 -7 5 -12 42 -12 91 l0
82 34 0 c34 0 58 10 103 43 28 20 77 21 146 3 27 -7 57 -11 68 -8 25 6 19 9
-33 17 -25 3 -65 9 -90 14 -34 5 -57 3 -93 -11 -49 -19 -104 -23 -123 -10 -6
4 -13 21 -16 39 -3 26 0 33 19 42 34 16 51 14 80 -9 14 -11 35 -20 47 -20 18
0 16 3 -9 16 -39 20 -44 27 -20 23 37 -4 124 23 165 53 24 18 27 17 105 -10
44 -16 90 -34 102 -40 11 -6 43 -14 70 -16 26 -2 49 -4 51 -5 1 -1 -2 -9 -7
-19 -8 -16 -5 -18 25 -20 27 -2 32 1 28 13 -7 18 -16 19 -33 3 -11 -11 -11 -9
-2 10 7 13 19 26 26 29 12 4 12 7 -1 20 -11 11 -12 19 -5 26 6 6 11 18 11 27
0 22 52 50 78 43 15 -4 22 -1 22 9 0 8 13 24 30 36 17 13 34 39 41 63 11 34
16 40 37 37 17 -2 26 -10 28 -25 2 -13 -1 -23 -8 -23 -9 0 -9 -3 0 -12 10 -10
15 -10 23 2 9 12 9 11 3 -5 -18 -48 -16 -96 3 -118 27 -29 35 -54 20 -61 -9
-5 -9 -7 1 -12 6 -3 12 -14 12 -25 0 -11 8 -31 17 -46 l17 -26 -27 15 c-15 8
-39 32 -52 54 -20 32 -24 35 -25 17 0 -12 5 -25 10 -28 12 -7 13 -25 3 -25
-10 0 -33 49 -33 69 -1 13 -2 13 -11 -2 -6 -9 -7 -27 -3 -40 4 -12 7 -31 5
-42 -2 -15 0 -17 11 -7 15 12 47 8 85 -10 12 -6 30 -7 40 -3 22 10 40 8 116
-7 61 -13 66 -18 42 -42 -15 -15 -51 -14 -124 5 -19 4 -37 6 -41 4 -4 -3 -33
4 -64 15 -31 10 -64 16 -72 13 -20 -8 107 -42 158 -42 26 -1 41 -7 51 -22 l15
-20 66 26 c106 42 117 22 16 -28 -71 -35 -87 -47 -95 -74 -10 -30 -12 -31 -35
-20 -36 18 -36 42 -1 63 17 10 31 24 31 31 0 13 -6 15 -75 17 -22 1 -49 6 -60
10 -17 8 -18 7 -7 -5 7 -8 35 -14 68 -15 51 -1 93 -14 46 -14 -12 0 -22 -4
-22 -9 0 -5 -19 -7 -42 -6 -24 1 -32 1 -18 -2 46 -7 53 -12 41 -27 -6 -7 -7
-17 -3 -21 4 -5 -1 -5 -11 -2 -35 13 -15 -3 30 -24 36 -16 57 -20 94 -15 27 4
56 2 66 -3 10 -5 30 -14 45 -19 20 -8 26 -17 24 -34 -4 -35 -35 -88 -51 -88
-7 0 -17 -4 -20 -10 -15 -25 21 -7 51 26 25 26 34 45 35 72 1 33 2 34 9 12 8
-25 8 -25 9 -2 1 18 6 23 24 21 12 -1 31 2 41 6 13 6 21 4 24 -3 2 -7 8 -10
12 -7 21 13 50 -37 64 -112 10 -49 14 -62 13 -35 -1 23 1 42 5 42 13 0 9 28
-7 44 -8 8 -15 24 -15 35 0 12 -4 21 -9 21 -6 0 -12 15 -14 33 -3 26 -5 29
-11 12 -6 -18 -16 -20 -89 -20 -45 0 -91 5 -102 11 -11 6 -46 11 -78 10 -77
-1 -76 19 3 35 33 6 60 16 60 20 0 15 39 10 48 -6 11 -20 149 -37 156 -20 3 8
-18 12 -65 12 -48 1 -73 6 -85 17 -9 10 -33 16 -62 16 -83 0 -30 17 74 24
l102 7 7 -28 c6 -26 7 -26 17 -8 8 12 8 20 1 22 -6 2 -8 14 -6 28 3 13 -1 41
-8 62 -7 21 -13 48 -15 60 -5 44 -16 59 -74 98 -33 22 -60 43 -60 48 0 9 36
-9 45 -23 10 -15 55 -12 55 4 0 18 -66 76 -85 76 -8 0 -15 5 -15 10 0 12 -2
12 40 0 25 -7 49 -7 83 2 43 11 51 10 90 -10 23 -12 50 -27 59 -34 14 -10 22
-9 45 8 15 11 42 24 58 28 l30 7 -34 -23 c-19 -13 -48 -30 -65 -39 -29 -16
-29 -17 -8 -23 12 -4 31 -2 42 4 11 6 25 8 30 5 11 -7 90 67 90 85 0 9 -12 11
-45 6 -25 -4 -45 -4 -45 1 0 18 17 32 45 39 17 3 37 12 45 19 40 33 58 36 94
14 30 -17 35 -25 30 -45 -3 -13 -3 -32 2 -41 5 -13 10 -4 15 32 11 78 32 553
26 610 -4 41 -1 54 16 73 11 12 24 19 29 14 5 -5 11 -180 14 -390z m-832 366
c-4 -13 -13 -39 -21 -58 l-13 -35 5 40 c2 22 5 48 5 58 0 9 7 17 16 17 11 0
14 -6 8 -22z m100 -80 c-3 -57 -10 -119 -14 -138 -7 -31 -8 -28 -9 26 -1 34
-4 95 -7 137 -7 75 -6 77 15 77 22 0 22 -2 15 -102z m-950 38 c3 -17 8 -114
11 -216 3 -102 7 -205 10 -230 2 -25 7 -76 10 -115 3 -38 13 -98 22 -133 18
-72 12 -86 -43 -97 -39 -7 -103 10 -121 32 -6 8 -29 14 -53 15 l-43 0 8 117
c5 64 9 232 10 374 1 142 5 261 9 265 7 7 84 16 143 18 29 0 33 -3 37 -30z
m56 -38 c14 -24 20 -51 20 -98 0 -107 30 -441 46 -505 8 -33 23 -71 32 -85 34
-47 34 -48 -6 -34 -20 7 -45 13 -54 14 -18 0 -29 43 -47 175 -12 86 -27 565
-17 565 3 0 15 -15 26 -32z m488 -597 l47 -8 -32 -13 c-18 -6 -33 -16 -33 -21
0 -4 -20 -17 -44 -28 -49 -21 -66 -45 -66 -90 0 -31 -1 -31 -52 -31 -31 0 -68
8 -93 20 -48 23 -110 84 -101 99 4 7 35 8 85 4 43 -3 81 -2 84 3 3 5 -37 9
-94 9 -84 -1 -99 1 -99 15 0 20 57 42 79 31 9 -5 46 -17 84 -26 l67 -17 45 26
c24 15 47 31 50 36 4 6 11 8 16 4 6 -3 31 -9 57 -13z m789 -26 c-29 -26 -93
-37 -69 -12 13 12 68 35 87 36 6 0 -3 -11 -18 -24z m93 -13 c0 -9 -25 -33 -50
-48 -8 -4 -4 6 10 23 25 32 40 41 40 25z m-496 -48 c3 -8 2 -12 -4 -9 -6 3
-10 10 -10 16 0 14 7 11 14 -7z m-1037 -58 c15 -8 37 -18 47 -21 34 -10 7 -18
-55 -16 -35 1 -67 -3 -75 -10 -12 -9 -14 -6 -14 18 0 16 3 33 7 36 11 12 60 8
90 -7z m1148 -9 c17 -10 13 -12 -35 -15 -30 -2 -60 -8 -66 -13 -20 -16 -25 6
-7 30 13 19 21 22 52 16 19 -4 45 -12 56 -18z m385 -30 c-23 -38 -65 -54 -86
-32 -7 7 -10 15 -7 19 3 3 -2 8 -11 12 -9 3 -16 12 -16 20 0 9 19 14 68 16 37
2 68 2 70 2 2 -1 -7 -17 -18 -37z m-540 -11 c0 -8 -4 -18 -10 -21 -23 -14 -9
-34 28 -40 54 -9 102 -32 102 -50 0 -17 -36 -21 -42 -4 -5 14 -113 49 -153 49
-57 0 -76 48 -27 67 42 17 102 16 102 -1z m210 -2 c5 -5 12 -27 15 -50 6 -35
4 -41 -16 -50 -20 -9 -25 -7 -39 20 -10 21 -29 36 -60 47 -25 9 -46 24 -48 34
-3 15 4 16 68 12 39 -2 75 -8 80 -13z m-160 -18 c0 -8 14 -16 33 -20 47 -9 77
-33 77 -62 0 -30 -27 -32 -32 -2 -3 22 -34 38 -100 52 -25 6 -27 8 -16 26 15
23 38 27 38 6z m-1080 -96 c-20 -13 -60 -13 -60 0 0 6 17 10 38 10 27 0 33 -3
22 -10z m1270 -19 c13 -26 2 -31 -40 -21 l-35 8 35 2 c32 3 32 3 7 7 -15 2
-25 9 -22 14 10 16 44 10 55 -10z m-67 -38 c-7 -2 -19 -2 -25 0 -7 3 -2 5 12
5 14 0 19 -2 13 -5z m-120 -60 c-7 -2 -21 -2 -30 0 -10 3 -4 5 12 5 17 0 24
-2 18 -5z m987 -377 c0 -14 -4 -28 -10 -31 -5 -3 -15 -16 -21 -28 -12 -22 -12
-22 10 -3 21 19 21 19 21 -2 0 -11 -6 -23 -12 -26 -10 -5 -10 -7 0 -12 14 -7
16 -49 3 -90 -5 -16 -12 -42 -16 -59 -5 -24 -8 -27 -16 -14 -6 11 -2 36 11 73
10 30 15 58 10 61 -5 3 -11 -8 -15 -25 -4 -16 -11 -33 -17 -36 -6 -4 -8 1 -4
14 4 11 9 52 11 91 5 67 20 111 37 111 5 0 8 -11 8 -24z m-1245 -95 c-3 -16
-17 -37 -31 -45 -19 -13 -24 -25 -24 -61 0 -28 5 -47 15 -52 9 -5 12 -17 9
-30 l-6 -21 -25 21 c-14 12 -31 33 -38 47 -12 23 -10 28 11 53 13 16 24 35 24
43 0 8 4 12 10 9 5 -3 7 0 4 8 -3 9 3 16 16 20 12 3 24 15 27 27 8 32 16 16 8
-19z m-55 19 c0 -5 -6 -13 -14 -17 -8 -4 -18 -24 -23 -43 -7 -25 -16 -36 -31
-38 -12 -2 -22 -10 -22 -18 0 -8 -4 -14 -10 -14 -13 0 -13 1 5 43 8 20 23 38
33 41 11 4 24 18 30 31 11 24 32 34 32 15z m238 -44 c-4 -26 -33 -33 -42 -10
-5 12 -2 15 10 10 13 -5 15 -1 12 19 -4 21 -3 23 9 13 8 -6 13 -21 11 -32z
m-203 -86 c1 -26 -2 -39 -9 -37 -13 4 -20 52 -12 74 10 24 18 8 21 -37z m230
19 c8 -26 -16 -54 -39 -46 -9 4 -16 15 -16 26 0 14 5 19 15 14 9 -3 15 -2 14
3 -5 31 17 33 26 3z m-195 -19 c0 -5 -5 -10 -11 -10 -5 0 -7 5 -4 10 3 6 8 10
11 10 2 0 4 -4 4 -10z m-140 -25 c0 -8 4 -15 9 -15 13 0 23 -32 13 -42 -14
-14 -52 14 -52 38 0 11 3 24 7 27 11 12 23 8 23 -8z m195 -62 c2 -7 -2 -13 -9
-13 -8 0 -21 -10 -29 -22 -13 -19 -16 -20 -16 -5 -1 9 -5 17 -11 17 -14 0 -12
48 2 52 16 6 56 -14 63 -29z m129 25 c-3 -4 -12 -8 -20 -8 -8 0 -14 -6 -14
-13 0 -8 -12 -14 -29 -14 -28 0 -29 1 -15 23 11 16 24 22 49 21 19 0 32 -5 29
-9z m-264 -47 c0 -9 5 -22 12 -29 6 -6 9 -15 5 -18 -4 -4 -20 6 -36 22 -26 25
-27 30 -12 40 19 15 31 9 31 -15z m1015 17 c14 -6 25 -17 25 -24 0 -23 -12
-44 -25 -44 -8 0 -17 -5 -21 -11 -5 -8 1 -10 20 -7 14 3 26 1 26 -3 0 -5 -6
-9 -12 -9 -7 0 -23 -3 -35 -6 -17 -5 -23 -2 -23 10 0 10 -9 16 -24 16 -18 0
-29 9 -41 32 -15 30 -15 34 2 45 21 16 74 17 108 1z m-776 -37 c-6 -16 -19
-37 -30 -47 -16 -14 -15 -9 7 29 29 54 37 60 23 18z m296 13 c14 -15 14 -17
-2 -30 -22 -16 -59 -18 -68 -3 -8 12 23 49 41 49 7 0 20 -7 29 -16z m-388 -11
c14 -30 9 -58 -11 -61 -11 -3 -16 0 -12 7 4 6 2 20 -4 31 -11 21 -6 40 10 40
5 0 13 -8 17 -17z m73 8 c0 -6 -4 -12 -8 -15 -5 -3 -9 1 -9 9 0 8 4 15 9 15 4
0 8 -4 8 -9z m127 3 c-3 -3 -12 -4 -19 -1 -8 3 -5 6 6 6 11 1 17 -2 13 -5z
m517 -4 c37 -14 36 -50 -1 -50 -34 0 -81 34 -64 44 7 4 19 5 27 2 9 -3 12 -1
9 4 -8 12 -3 12 29 0z m-1636 -23 c2 -10 -1 -17 -7 -17 -6 0 -11 5 -11 10 0
17 -18 11 -23 -7 -3 -11 -5 -7 -6 9 -1 23 3 27 22 24 12 -1 23 -10 25 -19z
m965 3 c3 -11 1 -23 -4 -26 -5 -3 -9 6 -9 20 0 31 6 34 13 6z m100 13 c-7 -2
-19 -2 -25 0 -7 3 -2 5 12 5 14 0 19 -2 13 -5z m-206 -37 l22 -34 -22 -6 c-27
-7 -28 -5 -34 38 -6 45 6 46 34 2z m291 7 c6 -9 12 -20 12 -24 0 -13 -31 -19
-50 -9 -10 5 -26 7 -36 3 -12 -4 -15 -3 -10 5 10 17 -29 15 -43 -1 -6 -8 -9
-16 -6 -19 3 -2 -1 -5 -7 -5 -7 0 -22 -4 -33 -8 -19 -6 -19 -6 1 12 12 10 26
29 33 41 8 15 21 22 39 21 24 0 25 -1 7 -8 -15 -6 -6 -9 33 -12 28 -2 52 -1
52 4 0 4 -13 7 -30 7 -16 0 -30 5 -30 11 0 16 52 2 68 -18z m-1048 -13 c0 -5
-7 -7 -15 -4 -8 4 -15 8 -15 10 0 2 7 4 15 4 8 0 15 -4 15 -10z m1790 0 c0
-13 -11 -13 -30 0 -12 8 -11 10 8 10 12 0 22 -4 22 -10z m-1742 -11 c-2 -6 -8
-10 -13 -10 -5 0 -11 4 -13 10 -2 6 4 11 13 11 9 0 15 -5 13 -11z m-58 -14
c14 -17 10 -47 -8 -51 -7 -1 -8 0 -2 3 24 12 6 19 -49 19 -42 -1 -57 -4 -54
-13 7 -18 -12 -16 -26 1 -9 11 -10 20 -1 35 9 18 20 21 69 21 39 0 63 -5 71
-15z m1636 8 c-3 -3 0 -13 6 -20 10 -13 5 -14 -32 -11 -29 2 -44 8 -45 19 -2
11 8 15 37 16 22 1 38 -1 34 -4z m-801 -33 c18 -20 17 -20 -8 -20 -14 0 -32
-2 -40 -5 -16 -7 -20 26 -3 37 18 12 32 9 51 -12z m1155 2 c0 -4 -16 -6 -35
-4 -19 2 -35 6 -35 8 0 2 16 4 35 4 19 0 35 -4 35 -8z m-1145 -43 c9 -14 7
-15 -37 -23 -30 -5 -38 -4 -38 8 0 24 62 37 75 15z m102 -3 c-10 -8 -14 -16
-10 -18 4 -3 2 -3 -5 -1 -8 1 -20 3 -27 3 -7 0 -15 7 -19 15 -4 12 3 15 37 15
38 -1 40 -2 24 -14z m-419 -8 c-5 -16 -48 -24 -48 -10 0 11 17 20 38 21 8 1
12 -5 10 -11z m466 4 c2 -4 -4 -8 -14 -8 -10 0 -16 4 -14 8 3 4 9 8 14 8 5 0
11 -4 14 -8z m-141 -42 c4 -17 0 -20 -23 -20 -30 0 -45 13 -35 30 11 18 52 11
58 -10z m140 2 c-2 -6 7 -14 20 -17 14 -4 28 -19 35 -37 14 -39 7 -49 -14 -20
-8 12 -20 19 -26 16 -6 -4 -8 -3 -5 3 4 6 -2 18 -13 28 -18 16 -25 17 -61 6
-34 -10 -43 -10 -50 1 -7 10 3 14 42 16 31 2 47 7 43 13 -4 7 1 9 12 7 11 -2
18 -9 17 -16z m917 8 c0 -5 -7 -10 -16 -10 -8 0 -12 5 -9 10 3 6 10 10 16 10
5 0 9 -4 9 -10z m-1330 -4 c0 -2 -3 -11 -6 -20 -9 -23 -34 -20 -34 4 0 13 7
20 20 20 11 0 20 -2 20 -4z m401 -43 c13 -17 13 -17 -6 -3 -11 8 -22 16 -24
17 -2 2 0 3 6 3 6 0 17 -8 24 -17z m-231 -3 c-8 -5 -22 -10 -30 -10 -13 0 -13
1 0 10 8 5 22 10 30 10 13 0 13 -1 0 -10z m110 1 c0 -5 -13 -11 -30 -13 -29
-4 -37 1 -23 15 10 10 53 8 53 -2z m-290 -15 c0 -10 -19 -16 -64 -21 -94 -10
-103 -1 -16 17 41 9 76 16 78 17 1 0 2 -5 2 -13z m407 -13 c14 -21 13 -23 -34
-36 -56 -17 -63 -15 -63 18 0 19 7 27 33 34 40 12 47 10 64 -16z m-123 -2 c3
-4 -6 -13 -19 -19 -20 -9 -25 -9 -25 2 0 24 32 37 44 17z m1146 -1 c0 -12 -27
-12 -55 0 -16 7 -13 9 18 9 20 1 37 -3 37 -9z m-87 -7 c-7 -2 -19 -2 -25 0 -7
3 -2 5 12 5 14 0 19 -2 13 -5z m-1198 -23 c-27 -12 -43 -12 -25 0 8 5 22 9 30
9 10 0 8 -3 -5 -9z m135 -20 c-12 -8 -10 -10 8 -10 15 0 22 -6 22 -20 0 -23
-31 -27 -49 -6 -16 20 4 75 22 57 9 -9 9 -14 -3 -21z m1130 20 c11 -7 1 -10
-35 -10 -36 0 -46 3 -35 10 8 5 24 10 35 10 11 0 27 -5 35 -10z m-1026 -29
c11 -4 15 -10 10 -13 -5 -4 -18 0 -29 8 -20 15 -12 17 19 5z m-24 -21 c0 -5
-9 -10 -20 -10 -11 0 -20 5 -20 10 0 6 9 10 20 10 11 0 20 -4 20 -10z m-136
-22 c-9 -33 -13 -34 -28 -12 -13 17 -12 20 2 26 29 11 34 9 26 -14z m40 -3 c3
-9 0 -15 -9 -15 -16 0 -27 14 -18 24 10 10 21 7 27 -9z m984 -76 l183 2 -3
-131 -3 -131 -395 2 c-217 1 -404 2 -415 1 -11 0 -311 -3 -666 -7 l-646 -8 -6
84 c-4 46 -7 108 -7 136 l0 53 453 2 c248 2 648 1 887 -1 239 -2 517 -3 618
-2z"/>
<path d="M2000 2521 c0 -26 25 -44 50 -36 13 4 20 15 20 31 0 21 -5 24 -35 24
-28 0 -35 -4 -35 -19z"/>
<path d="M894 1839 c-8 -14 18 -31 30 -19 9 9 0 30 -14 30 -5 0 -12 -5 -16
-11z"/>
<path d="M1407 1833 c-10 -10 -8 -41 3 -48 18 -11 49 13 43 35 -5 19 -32 27
-46 13z m28 -23 c3 -5 1 -10 -4 -10 -6 0 -11 5 -11 10 0 6 2 10 4 10 3 0 8 -4
11 -10z"/>
<path d="M880 1790 c0 -5 12 -10 26 -10 14 0 23 4 19 10 -3 6 -15 10 -26 10
-10 0 -19 -4 -19 -10z"/>
<path d="M1842 1755 c-14 -31 -15 -35 -3 -35 5 0 12 8 14 18 2 9 2 1 0 -18 -3
-23 -1 -32 5 -25 15 14 19 78 6 82 -6 2 -16 -8 -22 -22z"/>
<path d="M1808 1765 c-3 -3 -3 -18 0 -32 5 -25 6 -25 13 -8 14 36 6 59 -13 40z"/>
<path d="M2020 1760 l-25 -8 28 -1 c15 -1 27 4 27 9 0 6 -1 10 -2 9 -2 -1 -14
-5 -28 -9z"/>
<path d="M2080 1750 c-11 -8 -7 -9 15 -4 37 8 45 14 19 14 -10 0 -26 -5 -34
-10z"/>
<path d="M700 1735 c-14 -16 -3 -20 19 -6 8 5 9 11 3 15 -5 3 -15 -1 -22 -9z"/>
<path d="M1884 1725 c-10 -26 0 -39 18 -22 15 15 17 14 26 -21 l10 -37 -1 43
c-1 43 -12 52 -36 30 -11 -11 -13 -10 -8 5 8 21 -1 23 -9 2z"/>
<path d="M1998 1722 c-16 -9 -28 -20 -28 -25 0 -5 15 0 33 11 17 11 39 22 47
25 11 4 9 6 -5 6 -11 0 -32 -7 -47 -17z"/>
<path d="M2074 1714 c-36 -17 -78 -54 -71 -61 3 -2 27 12 54 32 69 53 70 55
17 29z"/>
<path d="M348 1713 c6 -2 18 -2 25 0 6 3 1 5 -13 5 -14 0 -19 -2 -12 -5z"/>
<path d="M1422 1700 c0 -14 2 -19 5 -12 2 6 2 18 0 25 -3 6 -5 1 -5 -13z"/>
<path d="M1441 1704 c0 -11 3 -14 6 -6 3 7 2 16 -1 19 -3 4 -6 -2 -5 -13z"/>
<path d="M1460 1711 c0 -6 4 -13 10 -16 6 -3 7 1 4 9 -7 18 -14 21 -14 7z"/>
<path d="M1486 1708 c3 -4 11 -5 19 -1 21 7 19 12 -4 10 -11 0 -18 -5 -15 -9z"/>
<path d="M298 1703 c7 -3 16 -2 19 1 4 3 -2 6 -13 5 -11 0 -14 -3 -6 -6z"/>
<path d="M446 1676 c27 -19 48 -39 47 -45 -4 -14 3 -14 25 0 15 9 31 5 83 -20
l64 -32 -120 7 c-66 4 -118 4 -115 1 4 -4 187 -18 258 -20 15 0 15 -3 1 -30
-14 -25 -107 -117 -118 -117 -5 0 -15 -7 -22 -17 -12 -14 -10 -14 21 2 42 21
150 130 150 150 0 8 4 15 9 15 5 0 12 18 16 40 4 22 11 42 16 46 15 9 10 44
-6 44 -8 0 -15 -7 -15 -15 0 -7 -8 -19 -17 -25 -13 -8 -14 -13 -5 -16 6 -3 10
-10 6 -15 -8 -14 -102 -11 -132 5 -15 7 -44 16 -64 19 -20 3 -54 17 -75 31
-21 14 -42 26 -46 26 -5 0 13 -15 39 -34z m262 -77 c-12 -7 -24 -7 -35 0 -15
9 -12 10 17 10 29 0 32 -1 18 -10z"/>
<path d="M842 1675 c3 -14 1 -28 -4 -31 -5 -3 -4 -12 3 -20 13 -16 34 -19 24
-4 -3 5 -6 25 -7 45 -1 19 -6 35 -11 35 -5 0 -7 -11 -5 -25z"/>
<path d="M1820 1690 c0 -5 5 -10 11 -10 5 0 7 5 4 10 -3 6 -8 10 -11 10 -2 0
-4 -4 -4 -10z"/>
<path d="M1947 1648 c-6 -33 -4 -53 5 -67 16 -26 32 -22 36 10 2 20 1 21 -8 9
-9 -12 -11 -10 -7 12 2 15 1 25 -4 23 -4 -3 -9 9 -11 27 -3 30 -4 29 -11 -14z"/>
<path d="M315 1650 c-13 -6 -15 -9 -5 -9 8 0 22 4 30 9 18 12 2 12 -25 0z"/>
<path d="M1410 1652 c0 -4 11 -12 25 -19 25 -11 35 -1 13 14 -17 10 -38 13
-38 5z"/>
<path d="M1500 1649 c0 -5 10 -9 22 -9 12 0 18 3 14 7 -10 11 -36 12 -36 2z"/>
<path d="M1850 1640 c0 -11 4 -20 9 -20 5 0 7 9 4 20 -3 11 -7 20 -9 20 -2 0
-4 -9 -4 -20z"/>
<path d="M2110 1645 c-8 -8 -32 -31 -52 -50 -21 -19 -31 -35 -23 -35 7 0 17 5
21 11 4 8 9 7 15 -2 4 -7 11 -10 16 -6 4 5 1 12 -7 18 -13 8 -12 12 4 24 11 8
26 15 33 15 7 0 13 6 13 14 0 8 8 17 18 19 14 4 14 5 -3 6 -11 0 -27 -6 -35
-14z"/>
<path d="M388 1643 c7 -3 16 -2 19 1 4 3 -2 6 -13 5 -11 0 -14 -3 -6 -6z"/>
<path d="M1812 1628 c6 -18 28 -21 28 -4 0 9 -7 16 -16 16 -9 0 -14 -5 -12
-12z"/>
<path d="M458 1623 c7 -3 16 -2 19 1 4 3 -2 6 -13 5 -11 0 -14 -3 -6 -6z"/>
<path d="M1470 1605 c0 -8 7 -15 15 -15 8 0 15 4 15 9 0 5 -7 11 -15 15 -9 3
-15 0 -15 -9z"/>
<path d="M1680 1611 c0 -6 9 -9 20 -8 11 1 20 5 20 9 0 4 -9 8 -20 8 -11 0
-20 -4 -20 -9z"/>
<path d="M1640 1601 c8 -6 11 -11 5 -11 -13 -1 26 -30 39 -30 6 0 4 5 -4 10
-8 5 -15 15 -15 22 0 7 -9 14 -20 16 -16 3 -17 1 -5 -7z"/>
<path d="M1440 1590 c0 -5 5 -10 10 -10 6 0 10 5 10 10 0 6 -4 10 -10 10 -5 0
-10 -4 -10 -10z"/>
<path d="M1520 1590 c0 -5 7 -10 16 -10 8 0 12 5 9 10 -3 6 -10 10 -16 10 -5
0 -9 -4 -9 -10z"/>
<path d="M2100 1590 c0 -5 5 -10 10 -10 6 0 10 5 10 10 0 6 -4 10 -10 10 -5 0
-10 -4 -10 -10z"/>
<path d="M827 1584 c-11 -11 3 -24 18 -18 8 4 12 10 9 15 -6 11 -18 12 -27 3z"/>
<path d="M1785 1580 c3 -4 0 -10 -7 -12 -6 -2 25 -41 70 -87 45 -45 82 -84 82
-87 0 -3 9 -15 20 -27 12 -12 27 -35 35 -50 13 -26 13 -28 0 -17 -11 9 -15 9
-15 1 0 -11 28 -27 34 -20 2 2 6 19 9 37 6 28 3 34 -17 42 -26 9 -74 70 -56
70 6 0 9 4 6 9 -3 5 -16 7 -28 3 -14 -3 -19 -2 -14 6 4 7 2 12 -3 12 -6 0 -11
6 -11 14 0 8 -13 20 -30 28 -16 7 -30 17 -30 22 0 5 -10 17 -22 28 l-23 20 28
-7 c37 -10 35 0 -3 14 -17 5 -28 6 -25 1z"/>
<path d="M1565 1570 c-17 -8 -16 -8 8 -7 15 1 27 5 27 9 0 10 -9 9 -35 -2z"/>
<path d="M384 1561 c4 -5 0 -12 -6 -14 -10 -4 -10 -6 0 -6 16 -1 15 -35 -2
-74 -8 -18 -16 -43 -19 -56 -6 -25 14 -85 38 -111 11 -13 11 -23 -1 -69 -7
-30 -19 -59 -26 -63 -7 -5 -19 -12 -25 -16 -8 -5 -14 -37 -15 -82 l-3 -75 45
0 c35 0 45 4 48 18 3 12 -4 20 -17 24 -25 6 -25 5 -7 48 11 27 23 36 55 45 22
6 43 15 46 20 10 16 45 12 52 -5 3 -9 27 -27 53 -40 37 -19 50 -32 55 -54 3
-16 17 -37 31 -45 20 -14 31 -15 71 -5 57 14 74 25 66 44 -7 21 -39 28 -64 15
-34 -19 -41 0 -43 107 -1 54 -5 105 -9 114 -7 14 0 18 38 24 26 3 50 4 53 0 3
-3 6 -24 5 -45 -2 -31 3 -42 19 -51 14 -8 23 -8 31 0 8 8 5 11 -11 11 -20 0
-22 5 -22 49 0 34 4 51 15 55 11 4 15 -2 15 -22 0 -38 11 -72 22 -72 5 0 7 4
3 9 -10 17 -15 100 -6 105 11 7 23 -23 14 -36 -3 -7 -1 -8 6 -4 7 5 15 -3 22
-22 11 -33 39 -51 39 -26 0 8 -7 17 -15 20 -8 4 -15 15 -15 26 0 11 -8 36 -17
55 -16 35 -17 35 -32 16 -32 -39 -64 -52 -143 -55 -43 -2 -78 -6 -78 -10 0 -5
7 -8 15 -8 26 0 35 -37 33 -132 -2 -95 10 -138 37 -138 7 0 17 5 20 10 3 6 16
10 28 10 l22 -1 -24 -19 c-43 -37 -104 -21 -114 28 -4 22 -19 37 -53 57 -26
15 -57 39 -68 52 l-21 25 -26 -20 c-14 -11 -41 -24 -60 -29 -27 -7 -38 -18
-57 -56 -23 -48 -22 -73 4 -63 8 3 14 -1 14 -9 0 -16 -36 -20 -58 -6 -21 13 2
121 29 143 12 10 27 39 33 65 11 42 16 48 37 46 53 -5 59 -8 59 -27 0 -15 3
-17 11 -9 6 6 18 9 27 6 24 -10 8 20 -19 34 -13 7 -35 13 -49 13 -36 0 -68 25
-85 67 -20 47 -19 61 6 108 12 21 22 53 22 71 1 31 2 32 15 13 10 -14 11 -28
4 -52 -5 -17 -10 -41 -10 -52 0 -11 -1 -37 -3 -58 -3 -51 13 -64 88 -69 53 -4
61 -2 51 10 -8 9 -23 12 -48 8 -21 -3 -40 -3 -43 1 -10 10 13 33 34 33 10 0
20 4 24 10 10 16 -59 2 -71 -15 -11 -15 -13 -15 -18 2 -3 10 -1 34 4 53 23 81
3 160 -41 160 -11 0 -18 -4 -15 -9z"/>
<path d="M1718 1563 c7 -3 16 -2 19 1 4 3 -2 6 -13 5 -11 0 -14 -3 -6 -6z"/>
<path d="M1990 1555 c0 -8 8 -23 18 -33 36 -36 51 -66 46 -88 -3 -12 0 -25 6
-29 9 -5 10 -1 6 16 -4 15 0 11 12 -11 27 -49 36 -91 19 -84 -8 3 -13 -6 -15
-25 -2 -24 1 -29 13 -25 10 4 15 0 15 -14 0 -27 -54 -51 -102 -45 -36 5 -37 4
-44 -32 -4 -21 -2 -47 4 -60 10 -21 8 -25 -16 -34 l-27 -9 25 -1 c40 -1 54 12
40 38 -6 12 -10 36 -8 54 3 33 12 37 55 23 16 -5 30 1 54 22 27 24 33 37 37
83 3 43 0 62 -17 89 -11 19 -28 51 -38 70 -9 19 -20 37 -23 40 -4 3 -9 13 -13
23 -4 10 -11 15 -17 12 -5 -3 -10 3 -10 14 0 12 -4 21 -10 21 -5 0 -10 -7 -10
-15z"/>
<path d="M485 1550 c-3 -5 -1 -10 4 -10 6 0 11 5 11 10 0 6 -2 10 -4 10 -3 0
-8 -4 -11 -10z"/>
<path d="M1900 1549 c0 -5 -5 -7 -12 -3 -7 4 -8 3 -4 -4 4 -6 13 -9 21 -6 8 4
12 10 9 15 -7 12 -14 11 -14 -2z"/>
<path d="M175 1540 c-3 -5 -1 -10 4 -10 6 0 11 5 11 10 0 6 -2 10 -4 10 -3 0
-8 -4 -11 -10z"/>
<path d="M810 1540 c0 -5 5 -10 11 -10 5 0 7 5 4 10 -3 6 -8 10 -11 10 -2 0
-4 -4 -4 -10z"/>
<path d="M1595 1530 c3 -5 8 -10 11 -10 2 0 4 5 4 10 0 6 -5 10 -11 10 -5 0
-7 -4 -4 -10z"/>
<path d="M1678 1533 c-10 -2 -18 -9 -18 -14 0 -12 3 -12 36 6 28 14 19 18 -18
8z"/>
<path d="M1733 1524 c-8 -8 -9 -15 -3 -19 6 -3 10 -1 10 6 0 6 8 9 20 6 25 -6
26 -1 3 12 -12 6 -22 5 -30 -5z"/>
<path d="M910 1515 c0 -8 2 -15 4 -15 2 0 6 7 10 15 3 8 1 15 -4 15 -6 0 -10
-7 -10 -15z"/>
<path d="M70 1510 c0 -6 7 -10 15 -10 8 0 15 2 15 4 0 2 -7 6 -15 10 -8 3 -15
1 -15 -4z"/>
<path d="M760 1490 c0 -14 -5 -18 -17 -13 -14 5 -15 3 -7 -6 16 -17 56 3 48
24 -9 22 -24 18 -24 -5z"/>
<path d="M1620 1500 c0 -5 7 -10 15 -10 8 0 15 5 15 10 0 6 -7 10 -15 10 -8 0
-15 -4 -15 -10z"/>
<path d="M1693 1493 c-13 -2 -23 -9 -23 -14 0 -13 13 -11 36 6 10 8 17 14 14
13 -3 0 -15 -3 -27 -5z"/>
<path d="M1910 1485 c7 -9 15 -13 17 -11 7 7 -7 26 -19 26 -6 0 -6 -6 2 -15z"/>
<path d="M1940 1490 c0 -5 7 -10 15 -10 8 0 15 5 15 10 0 6 -7 10 -15 10 -8 0
-15 -4 -15 -10z"/>
<path d="M2075 1490 c-3 -5 1 -10 10 -10 9 0 13 5 10 10 -3 6 -8 10 -10 10 -2
0 -7 -4 -10 -10z"/>
<path d="M1781 1481 c-9 -6 -5 -8 13 -8 14 0 26 3 26 8 0 11 -21 11 -39 0z"/>
<path d="M2000 1479 c0 -5 9 -9 20 -9 11 0 20 2 20 4 0 2 -9 6 -20 9 -11 3
-20 1 -20 -4z"/>
<path d="M921 1452 c6 -18 15 -35 20 -38 5 -3 9 -13 9 -24 0 -10 13 -47 28
-82 22 -49 37 -67 63 -79 l34 -17 -28 -7 c-19 -5 -33 -3 -45 7 -26 22 -42 30
-42 20 0 -4 14 -18 31 -31 23 -17 37 -21 60 -16 25 6 30 11 27 33 -2 21 -9 28
-31 30 -30 4 -44 28 -84 144 -10 29 -26 62 -36 73 -17 19 -17 18 -6 -13z"/>
<path d="M1728 1463 c7 -3 16 -2 19 1 4 3 -2 6 -13 5 -11 0 -14 -3 -6 -6z"/>
<path d="M165 1450 c3 -5 10 -10 16 -10 5 0 9 5 9 10 0 6 -7 10 -16 10 -8 0
-12 -4 -9 -10z"/>
<path d="M700 1451 c0 -5 7 -11 15 -15 8 -3 15 -1 15 3 0 5 -7 11 -15 15 -8 3
-15 1 -15 -3z"/>
<path d="M875 1450 c3 -5 11 -10 16 -10 6 0 7 5 4 10 -3 6 -11 10 -16 10 -6 0
-7 -4 -4 -10z"/>
<path d="M1810 1453 c0 -22 24 -32 40 -15 13 14 12 15 -2 10 -8 -4 -21 -1 -27
5 -8 8 -11 8 -11 0z"/>
<path d="M960 1436 c0 -9 5 -16 10 -16 6 0 10 4 10 9 0 6 -4 13 -10 16 -5 3
-10 -1 -10 -9z"/>
<path d="M2100 1440 c0 -5 5 -10 11 -10 5 0 7 5 4 10 -3 6 -8 10 -11 10 -2 0
-4 -4 -4 -10z"/>
<path d="M850 1431 c0 -5 5 -13 10 -16 6 -3 10 -2 10 4 0 5 -4 13 -10 16 -5 3
-10 2 -10 -4z"/>
<path d="M695 1420 c3 -5 8 -10 11 -10 2 0 4 5 4 10 0 6 -5 10 -11 10 -5 0 -7
-4 -4 -10z"/>
<path d="M270 1410 c0 -5 5 -10 10 -10 6 0 10 5 10 10 0 6 -4 10 -10 10 -5 0
-10 -4 -10 -10z"/>
<path d="M1855 1410 c4 -6 11 -8 16 -5 14 9 11 15 -7 15 -8 0 -12 -5 -9 -10z"/>
<path d="M1980 1412 c0 -15 19 -36 26 -29 4 4 13 2 21 -4 10 -9 13 -8 13 4 0
8 -13 20 -30 26 -16 5 -30 7 -30 3z"/>
<path d="M661 1397 c-6 -8 -8 -17 -5 -20 10 -9 45 13 39 24 -9 13 -21 11 -34
-4z"/>
<path d="M836 1393 c-6 -14 -5 -15 5 -6 7 7 10 15 7 18 -3 3 -9 -2 -12 -12z"/>
<path d="M1526 1402 c-4 -7 -4 -34 0 -60 4 -26 8 -51 9 -57 1 -5 6 -20 13 -31
6 -12 8 -25 4 -29 -4 -5 -2 -5 5 -2 8 5 8 20 -3 59 -15 58 -12 68 13 46 26
-21 79 -40 100 -36 11 3 2 9 -27 17 -62 18 -98 46 -102 79 -2 19 -5 23 -12 14z"/>
<path d="M980 1392 c0 -5 9 -17 20 -27 23 -21 28 -2 6 21 -16 16 -26 18 -26 6z"/>
<path d="M1910 1362 c19 -22 41 -41 48 -41 16 -1 -34 55 -63 71 -13 7 -7 -3
15 -30z"/>
<path d="M130 1380 c0 -5 9 -10 20 -10 11 0 20 5 20 10 0 6 -9 10 -20 10 -11
0 -20 -4 -20 -10z"/>
<path d="M1723 1355 c-66 -46 -7 -168 96 -195 55 -15 39 -29 -34 -30 -60 -1
-90 -19 -80 -49 5 -17 12 -20 38 -15 57 10 57 32 0 25 -7 -1 -13 3 -13 9 0 5
3 10 8 10 50 4 109 11 124 15 34 12 19 33 -35 49 -101 29 -148 118 -91 171 29
27 21 34 -13 10z"/>
<path d="M2060 1355 c0 -8 5 -15 10 -15 6 0 10 7 10 15 0 8 -4 15 -10 15 -5 0
-10 -7 -10 -15z"/>
<path d="M90 1344 c0 -8 5 -12 10 -9 6 4 8 11 5 16 -9 14 -15 11 -15 -7z"/>
<path d="M1360 1351 c0 -5 5 -13 10 -16 6 -3 10 -2 10 4 0 5 -4 13 -10 16 -5
3 -10 2 -10 -4z"/>
<path d="M1080 1340 c0 -5 5 -10 11 -10 5 0 7 5 4 10 -3 6 -8 10 -11 10 -2 0
-4 -4 -4 -10z"/>
<path d="M1130 1340 c0 -5 5 -10 10 -10 6 0 10 5 10 10 0 6 -4 10 -10 10 -5 0
-10 -4 -10 -10z"/>
<path d="M295 1320 c-3 -5 -1 -10 4 -10 6 0 11 5 11 10 0 6 -2 10 -4 10 -3 0
-8 -4 -11 -10z"/>
<path d="M1412 1305 c0 -16 2 -22 5 -12 2 9 2 23 0 30 -3 6 -5 -1 -5 -18z"/>
<path d="M1306 1284 c-5 -26 -16 -41 -42 -56 -31 -18 -45 -38 -26 -38 15 0 82
68 82 83 0 8 3 22 6 31 3 9 2 16 -4 16 -5 0 -13 -16 -16 -36z"/>
<path d="M2037 1300 c3 -11 12 -20 19 -20 19 0 18 26 -2 34 -22 9 -23 8 -17
-14z"/>
<path d="M1190 1300 c0 -5 5 -10 10 -10 6 0 10 5 10 10 0 6 -4 10 -10 10 -5 0
-10 -4 -10 -10z"/>
<path d="M1075 1290 c3 -5 11 -10 16 -10 6 0 7 5 4 10 -3 6 -11 10 -16 10 -6
0 -7 -4 -4 -10z"/>
<path d="M730 1275 c0 -8 5 -15 10 -15 6 0 10 7 10 15 0 8 -4 15 -10 15 -5 0
-10 -7 -10 -15z"/>
<path d="M1575 1280 c3 -5 8 -10 11 -10 2 0 4 5 4 10 0 6 -5 10 -11 10 -5 0
-7 -4 -4 -10z"/>
<path d="M1655 1270 c3 -5 8 -10 11 -10 2 0 4 5 4 10 0 6 -5 10 -11 10 -5 0
-7 -4 -4 -10z"/>
<path d="M325 1260 c-3 -5 1 -10 10 -10 9 0 13 5 10 10 -3 6 -8 10 -10 10 -2
0 -7 -4 -10 -10z"/>
<path d="M230 1250 c-13 -8 -12 -10 3 -10 9 0 17 5 17 10 0 12 -1 12 -20 0z"/>
<path d="M1171 1238 c-1 -10 -6 -18 -12 -18 -5 0 -7 -5 -3 -11 9 -15 28 16 20
34 -2 7 -5 4 -5 -5z"/>
<path d="M1410 1227 c0 -16 6 -23 20 -23 23 0 24 5 6 29 -18 23 -26 22 -26 -6z"/>
<path d="M1612 1241 c-10 -6 -9 -10 7 -14 14 -3 21 0 21 9 0 16 -9 18 -28 5z"/>
<path d="M2138 1223 c7 -3 16 -2 19 1 4 3 -2 6 -13 5 -11 0 -14 -3 -6 -6z"/>
<path d="M90 1209 c0 -5 5 -7 10 -4 6 3 10 8 10 11 0 2 -4 4 -10 4 -5 0 -10
-5 -10 -11z"/>
<path d="M150 1196 c0 -9 5 -16 10 -16 6 0 10 4 10 9 0 6 -4 13 -10 16 -5 3
-10 -1 -10 -9z"/>
<path d="M1385 1200 c-3 -5 -1 -10 4 -10 6 0 11 5 11 10 0 6 -2 10 -4 10 -3 0
-8 -4 -11 -10z"/>
<path d="M1299 1155 c-18 -48 -14 -56 13 -27 8 9 26 25 39 34 12 10 19 21 14
25 -4 5 -10 2 -12 -4 -6 -18 -23 -16 -23 2 0 29 -15 14 -31 -30z"/>
<path d="M2108 1193 c7 -3 16 -2 19 1 4 3 -2 6 -13 5 -11 0 -14 -3 -6 -6z"/>
<path d="M810 1180 c0 -5 7 -10 15 -10 8 0 15 5 15 10 0 6 -7 10 -15 10 -8 0
-15 -4 -15 -10z"/>
<path d="M1090 1175 c0 -8 7 -15 16 -15 14 0 14 3 4 15 -7 8 -14 15 -16 15 -2
0 -4 -7 -4 -15z"/>
<path d="M1130 1179 c0 -5 5 -7 10 -4 6 3 10 8 10 11 0 2 -4 4 -10 4 -5 0 -10
-5 -10 -11z"/>
<path d="M1550 1180 c0 -5 5 -10 11 -10 5 0 7 5 4 10 -3 6 -8 10 -11 10 -2 0
-4 -4 -4 -10z"/>
<path d="M868 1173 c7 -3 16 -2 19 1 4 3 -2 6 -13 5 -11 0 -14 -3 -6 -6z"/>
<path d="M2076 1166 c3 -9 13 -16 22 -16 8 0 13 1 11 3 -2 1 -12 9 -22 16 -15
12 -17 12 -11 -3z"/>
<path d="M730 1160 c0 -5 5 -10 10 -10 6 0 10 5 10 10 0 6 -4 10 -10 10 -5 0
-10 -4 -10 -10z"/>
<path d="M1159 1150 c-20 -11 -39 -28 -42 -40 -6 -25 9 -27 17 -2 4 10 23 28
44 40 46 27 31 28 -19 2z"/>
<path d="M1510 1161 c0 -6 5 -13 10 -16 6 -3 10 1 10 9 0 9 -4 16 -10 16 -5 0
-10 -4 -10 -9z"/>
<path d="M1378 1149 c-29 -16 -22 -39 12 -39 32 0 41 16 13 23 -10 2 1 8 27
14 l45 11 -40 1 c-22 0 -48 -4 -57 -10z"/>
<path d="M1550 1138 c0 -9 5 -20 10 -23 13 -8 13 5 0 25 -8 13 -10 13 -10 -2z"/>
<path d="M1580 1140 c0 -6 7 -10 15 -10 8 0 15 2 15 4 0 2 -7 6 -15 10 -8 3
-15 1 -15 -4z"/>
<path d="M180 1130 c0 -5 7 -10 15 -10 8 0 15 5 15 10 0 6 -7 10 -15 10 -8 0
-15 -4 -15 -10z"/>
<path d="M762 1120 c0 -14 2 -19 5 -12 2 6 2 18 0 25 -3 6 -5 1 -5 -13z"/>
<path d="M792 1120 c0 -14 2 -19 5 -12 2 6 2 18 0 25 -3 6 -5 1 -5 -13z"/>
<path d="M993 1133 c-18 -7 -16 -33 2 -33 8 0 15 9 15 20 0 11 -1 20 -2 19 -2
0 -9 -3 -15 -6z"/>
<path d="M2010 1130 c0 -5 7 -10 15 -10 8 0 15 5 15 10 0 6 -7 10 -15 10 -8 0
-15 -4 -15 -10z"/>
<path d="M741 1114 c0 -11 3 -14 6 -6 3 7 2 16 -1 19 -3 4 -6 -2 -5 -13z"/>
<path d="M1030 1120 c0 -5 5 -10 11 -10 5 0 7 5 4 10 -3 6 -8 10 -11 10 -2 0
-4 -4 -4 -10z"/>
<path d="M925 1110 c3 -5 8 -10 11 -10 2 0 4 5 4 10 0 6 -5 10 -11 10 -5 0 -7
-4 -4 -10z"/>
<path d="M2064 1105 c-10 -8 -14 -14 -9 -15 15 0 40 18 34 24 -3 3 -14 -1 -25
-9z"/>
<path d="M500 1096 c0 -6 9 -12 20 -13 11 -1 20 2 20 6 0 5 -9 11 -20 14 -12
3 -20 0 -20 -7z"/>
<path d="M1031 1086 c-15 -18 -23 -76 -11 -76 6 0 10 13 10 28 0 15 5 33 12
40 6 6 9 14 6 17 -3 3 -11 -1 -17 -9z"/>
<path d="M1406 1085 c-29 -22 -13 -29 57 -28 88 2 103 5 104 25 2 17 0 17 -24
1 -32 -21 -103 -26 -103 -7 0 7 6 15 13 17 6 3 3 6 -8 6 -11 0 -29 -6 -39 -14z"/>
<path d="M1590 1083 c0 -13 5 -23 10 -23 13 0 13 11 0 30 -8 12 -10 11 -10 -7z"/>
<path d="M1813 1088 c-2 -5 21 -8 51 -8 31 0 56 3 56 8 0 9 -100 9 -107 0z"/>
<path d="M944 1075 c22 -17 36 -19 36 -6 0 10 -24 21 -43 21 -7 0 -3 -7 7 -15z"/>
<path d="M1154 1079 c-3 -6 -1 -16 4 -21 13 -13 75 9 66 23 -7 13 -61 11 -70
-2z m31 -9 c3 -5 -1 -10 -10 -10 -9 0 -13 5 -10 10 3 6 8 10 10 10 2 0 7 -4
10 -10z"/>
<path d="M1310 1081 c0 -5 7 -11 15 -15 8 -3 15 -1 15 3 0 5 -7 11 -15 15 -8
3 -15 1 -15 -3z"/>
<path d="M1621 1074 c0 -11 3 -14 6 -6 3 7 2 16 -1 19 -3 4 -6 -2 -5 -13z"/>
<path d="M2090 1075 c-7 -9 -8 -15 -2 -15 5 0 12 7 16 15 3 8 4 15 2 15 -2 0
-9 -7 -16 -15z"/>
<path d="M190 1070 c0 -5 7 -7 15 -4 8 4 15 8 15 10 0 2 -7 4 -15 4 -8 0 -15
-4 -15 -10z"/>
<path d="M1070 1055 c-10 -12 -10 -15 1 -18 8 -2 29 -9 46 -15 35 -11 59 3 26
15 -10 3 -22 12 -26 20 -11 17 -32 17 -47 -2z m35 -5 c3 -5 -1 -10 -10 -10 -9
0 -13 5 -10 10 3 6 8 10 10 10 2 0 7 -4 10 -10z"/>
<path d="M1790 1050 c0 -5 7 -7 15 -4 8 4 15 8 15 10 0 2 -7 4 -15 4 -8 0 -15
-4 -15 -10z"/>
<path d="M2000 1041 c0 -12 6 -21 15 -21 8 0 15 4 15 9 0 5 -7 14 -15 21 -13
10 -15 9 -15 -9z"/>
<path d="M465 1030 c-3 -5 1 -13 10 -16 22 -9 29 1 11 15 -10 8 -16 9 -21 1z"/>
<path d="M1235 1029 c-11 -17 1 -21 15 -4 8 9 8 15 2 15 -6 0 -14 -5 -17 -11z"/>
<path d="M1440 1030 c0 -6 7 -10 15 -10 8 0 15 2 15 4 0 2 -7 6 -15 10 -8 3
-15 1 -15 -4z"/>
<path d="M1852 1031 c4 -13 18 -16 19 -4 0 4 -5 9 -11 12 -7 2 -11 -2 -8 -8z"/>
<path d="M200 1020 c0 -5 5 -10 11 -10 5 0 7 5 4 10 -3 6 -8 10 -11 10 -2 0
-4 -4 -4 -10z"/>
<path d="M1565 1010 c3 -5 8 -10 11 -10 2 0 4 5 4 10 0 6 -5 10 -11 10 -5 0
-7 -4 -4 -10z"/>
<path d="M1696 1012 c-12 -11 -5 -17 19 -18 14 -1 25 2 25 6 0 10 -37 20 -44
12z"/>
<path d="M1751 1004 c0 -11 3 -14 6 -6 3 7 2 16 -1 19 -3 4 -6 -2 -5 -13z"/>
<path d="M1340 995 c0 -16 16 -20 24 -6 3 5 -1 11 -9 15 -9 3 -15 0 -15 -9z"/>
<path d="M1510 1000 c0 -6 7 -10 15 -10 8 0 15 2 15 4 0 2 -7 6 -15 10 -8 3
-15 1 -15 -4z"/>
<path d="M1825 1000 c3 -5 8 -10 11 -10 2 0 4 5 4 10 0 6 -5 10 -11 10 -5 0
-7 -4 -4 -10z"/>
<path d="M1590 968 c0 -4 7 -8 15 -8 8 0 15 4 15 8 0 5 -7 9 -15 9 -8 0 -15
-4 -15 -9z"/>
<path d="M1901 954 c0 -11 3 -14 6 -6 3 7 2 16 -1 19 -3 4 -6 -2 -5 -13z"/>
<path d="M1921 954 c0 -11 3 -14 6 -6 3 7 2 16 -1 19 -3 4 -6 -2 -5 -13z"/>
<path d="M705 950 c3 -5 10 -10 16 -10 5 0 9 5 9 10 0 6 -7 10 -16 10 -8 0
-12 -4 -9 -10z"/>
<path d="M1485 950 c4 -6 11 -8 16 -5 14 9 11 15 -7 15 -8 0 -12 -5 -9 -10z"/>
<path d="M1685 940 c-3 -5 1 -10 9 -10 9 0 16 5 16 10 0 6 -4 10 -9 10 -6 0
-13 -4 -16 -10z"/>
<path d="M1720 940 c0 -5 5 -10 10 -10 6 0 10 5 10 10 0 6 -4 10 -10 10 -5 0
-10 -4 -10 -10z"/>
<path d="M1260 920 c0 -5 5 -10 10 -10 6 0 10 5 10 10 0 6 -4 10 -10 10 -5 0
-10 -4 -10 -10z"/>
<path d="M1971 914 c0 -11 3 -14 6 -6 3 7 2 16 -1 19 -3 4 -6 -2 -5 -13z"/>
<path d="M1820 910 c0 -5 9 -10 20 -10 11 0 20 5 20 10 0 6 -9 10 -20 10 -11
0 -20 -4 -20 -10z"/>
<path d="M1493 893 c-7 -2 -13 -9 -13 -15 0 -14 43 -6 48 10 4 12 -12 15 -35
5z"/>
<path d="M295 880 c3 -5 8 -10 11 -10 2 0 4 5 4 10 0 6 -5 10 -11 10 -5 0 -7
-4 -4 -10z"/>
<path d="M1347 873 c-14 -13 -6 -23 18 -21 29 3 35 28 7 28 -10 0 -22 -3 -25
-7z"/>
<path d="M1411 864 c0 -11 3 -14 6 -6 3 7 2 16 -1 19 -3 4 -6 -2 -5 -13z"/>
<path d="M681 775 c0 -84 0 -85 24 -85 16 0 25 6 25 15 0 18 -12 19 -28 3 -9
-9 -12 -9 -12 -1 0 7 4 15 10 18 5 3 7 20 3 37 -4 22 -3 29 5 24 8 -5 12 0 12
13 0 10 3 28 6 38 5 12 4 15 -4 8 -5 -5 -12 -19 -15 -30 -4 -12 -5 -9 -4 9 1
16 -3 31 -9 33 -8 3 -12 -22 -13 -82z"/>
<path d="M1460 830 c0 -5 5 -10 11 -10 5 0 7 5 4 10 -3 6 -8 10 -11 10 -2 0
-4 -4 -4 -10z"/>
<path d="M539 798 c-7 -24 -5 -38 6 -38 8 0 17 5 20 10 3 6 1 10 -5 10 -6 0
-8 5 -5 10 3 6 1 10 -4 10 -6 0 -11 -1 -12 -2z"/>
<path d="M1965 790 c3 -5 8 -10 11 -10 2 0 4 5 4 10 0 6 -5 10 -11 10 -5 0 -7
-4 -4 -10z"/>
<path d="M735 780 c3 -5 8 -10 11 -10 2 0 4 5 4 10 0 6 -5 10 -11 10 -5 0 -7
-4 -4 -10z"/>
<path d="M651 755 c-1 -23 -4 -27 -11 -15 -9 13 -10 13 -10 0 1 -8 7 -23 15
-34 13 -18 14 -17 21 8 3 15 2 37 -4 49 -10 21 -11 20 -11 -8z"/>
<path d="M724 742 c2 -9 8 -18 14 -20 6 -2 8 -10 5 -18 -4 -10 0 -12 11 -8 9
4 14 9 12 12 -3 3 -1 11 6 19 13 17 6 25 -26 28 -17 2 -23 -1 -22 -13z"/>
<path d="M591 713 c0 -18 4 -33 9 -33 6 0 9 -5 8 -11 -2 -6 3 -14 10 -16 8 -3
12 7 12 32 0 28 -3 36 -14 32 -9 -4 -17 1 -19 11 -3 9 -5 2 -6 -15z"/>
<path d="M530 720 c0 -5 5 -10 10 -10 6 0 10 5 10 10 0 6 -4 10 -10 10 -5 0
-10 -4 -10 -10z"/>
<path d="M655 660 c-3 -5 -2 -10 4 -10 5 0 13 5 16 10 3 6 2 10 -4 10 -5 0
-13 -4 -16 -10z"/>
<path d="M1290 640 c0 -6 7 -10 15 -10 8 0 15 2 15 4 0 2 -7 6 -15 10 -8 3
-15 1 -15 -4z"/>
<path d="M1345 620 c3 -5 14 -10 23 -10 15 0 15 2 2 10 -20 13 -33 13 -25 0z"/>
<path d="M848 613 c6 -2 18 -2 25 0 6 3 1 5 -13 5 -14 0 -19 -2 -12 -5z"/>
<path d="M1473 603 c9 -2 23 -2 30 0 6 3 -1 5 -18 5 -16 0 -22 -2 -12 -5z"/>
<path d="M175 590 c-19 -8 -19 -9 2 -9 12 -1 25 4 28 9 7 12 -2 12 -30 0z"/>
<path d="M458 593 c-32 -2 -58 -8 -58 -14 0 -12 130 -1 145 12 5 5 1 8 -10 7
-11 -1 -46 -3 -77 -5z"/>
<path d="M1360 587 c36 -6 67 -14 71 -18 3 -5 27 -12 55 -15 27 -4 61 -13 76
-20 32 -16 38 -17 38 -5 0 14 -77 41 -119 41 -22 0 -44 6 -51 15 -9 11 -30 15
-74 14 l-61 -2 65 -10z"/>
<path d="M110 580 c-12 -8 -11 -10 7 -10 12 0 25 5 28 10 8 13 -15 13 -35 0z"/>
<path d="M1615 574 c44 -13 94 -20 280 -40 32 -3 45 -2 35 4 -18 11 -97 24
-165 27 -27 2 -70 8 -95 14 -25 6 -58 10 -75 10 -25 -1 -22 -3 20 -15z"/>
<path d="M234 571 c-37 -9 -86 -41 -63 -41 8 0 20 5 26 11 6 6 26 13 44 15 19
3 38 10 44 15 11 11 -5 10 -51 0z"/>
<path d="M321 559 c-13 -5 -22 -11 -20 -14 8 -7 49 7 49 16 0 5 -1 9 -2 8 -2
0 -14 -5 -27 -10z"/>
<path d="M1345 549 c33 -5 76 -14 94 -19 19 -5 37 -7 39 -5 11 10 -58 28 -123
31 l-70 3 60 -10z"/>
<path d="M69 533 c-13 -15 -12 -15 11 -3 34 17 36 20 18 20 -9 0 -22 -7 -29
-17z"/>
<path d="M603 543 c-7 -2 -13 -8 -13 -13 0 -10 38 -1 46 11 6 10 -13 11 -33 2z"/>
<path d="M1950 540 c0 -5 7 -10 16 -10 8 0 12 5 9 10 -3 6 -10 10 -16 10 -5 0
-9 -4 -9 -10z"/>
<path d="M234 519 c-3 -6 -23 -18 -43 -26 -20 -9 -31 -18 -24 -20 10 -4 28 4
97 44 l21 13 -22 0 c-12 0 -25 -5 -29 -11z"/>
<path d="M276 501 c-11 -18 -89 -52 -132 -58 -24 -3 -44 -10 -44 -15 0 -12 66
0 118 23 53 23 102 59 79 59 -9 0 -18 -4 -21 -9z"/>
<path d="M1520 503 c1 -12 70 -44 70 -33 0 5 -13 16 -30 25 -33 17 -40 18 -40
8z"/>
<path d="M1640 507 c13 -13 140 -65 140 -56 0 6 -19 19 -42 29 -44 19 -107 37
-98 27z"/>
<path d="M1825 490 c3 -5 8 -10 11 -10 2 0 4 5 4 10 0 6 -5 10 -11 10 -5 0 -7
-4 -4 -10z"/>
<path d="M1480 480 c0 -5 5 -10 10 -10 6 0 10 -7 10 -15 0 -8 5 -15 10 -15 13
0 13 6 0 31 -11 20 -30 26 -30 9z"/>
<path d="M1865 481 c3 -5 18 -12 34 -16 16 -3 35 -13 42 -21 7 -9 26 -22 43
-30 l31 -15 -35 31 c-45 41 -133 79 -115 51z"/>
<path d="M1325 455 c17 -8 38 -14 47 -15 10 0 41 -9 70 -20 28 -11 54 -18 56
-16 7 8 -53 34 -115 50 -73 19 -99 19 -58 1z"/>
<path d="M1612 448 c2 -6 10 -14 16 -16 7 -2 10 2 6 12 -7 18 -28 22 -22 4z"/>
<path d="M483 426 c-23 -11 -32 -36 -13 -36 6 0 10 5 10 10 0 6 7 10 15 10 8
0 15 7 15 15 0 8 -1 14 -2 14 -2 -1 -13 -6 -25 -13z"/>
<path d="M1550 425 c14 -16 40 -20 40 -6 0 9 -24 21 -42 21 -6 0 -6 -6 2 -15z"/>
<path d="M316 405 c-3 -8 -2 -15 3 -15 5 0 14 7 21 15 10 12 10 15 -3 15 -8 0
-17 -7 -21 -15z"/>
<path d="M2100 410 c0 -5 5 -10 10 -10 6 0 10 5 10 10 0 6 -4 10 -10 10 -5 0
-10 -4 -10 -10z"/>
<path d="M1665 400 c3 -5 11 -10 17 -10 7 0 22 -10 35 -22 13 -12 23 -17 23
-10 0 14 -49 52 -67 52 -8 0 -11 -4 -8 -10z"/>
<path d="M1825 390 c20 -23 29 -21 19 4 -3 9 -13 16 -22 16 -13 0 -12 -3 3
-20z"/>
<path d="M106 375 c-9 -14 -12 -25 -7 -25 12 0 41 29 41 41 0 17 -18 9 -34
-16z"/>
<path d="M1510 393 c0 -13 29 -38 35 -31 3 3 -4 13 -15 23 -11 10 -20 13 -20
8z"/>
<path d="M1620 366 c0 -9 5 -16 10 -16 6 0 10 4 10 9 0 6 -4 13 -10 16 -5 3
-10 -1 -10 -9z"/>
<path d="M2020 370 c0 -5 5 -10 10 -10 6 0 10 5 10 10 0 6 -4 10 -10 10 -5 0
-10 -4 -10 -10z"/>
<path d="M275 360 c-3 -5 1 -10 9 -10 8 0 18 5 21 10 3 6 -1 10 -9 10 -8 0
-18 -4 -21 -10z"/>
<path d="M130 2477 c0 -26 36 -45 53 -28 17 17 2 46 -26 49 -23 3 -27 0 -27
-21z"/>
<path d="M840 860 c0 -5 5 -10 10 -10 6 0 10 5 10 10 0 6 -4 10 -10 10 -5 0
-10 -4 -10 -10z"/>
<path d="M1795 720 c3 -5 11 -10 16 -10 6 0 7 5 4 10 -3 6 -11 10 -16 10 -6 0
-7 -4 -4 -10z"/>
<path d="M1350 730 c0 -5 5 -10 10 -10 6 0 10 5 10 10 0 6 -4 10 -10 10 -5 0
-10 -4 -10 -10z"/>
<path d="M1100 480 c-11 -8 -7 -9 15 -4 37 8 45 14 19 14 -10 0 -26 -5 -34
-10z"/>
<path d="M1568 193 c3 -41 0 -68 -8 -78 -11 -13 -7 -15 26 -15 30 0 35 3 26
12 -7 7 -12 30 -12 51 l0 40 35 -46 c35 -45 70 -67 85 -50 4 4 10 38 14 76 5
54 4 67 -8 67 -17 0 -26 -22 -26 -66 0 -19 -3 -34 -6 -34 -10 0 -45 44 -59 77
-12 25 -21 32 -43 31 l-28 -1 4 -64z"/>
<path d="M210 230 c0 -11 5 -20 10 -20 6 0 10 5 10 10 0 6 13 10 29 10 28 0
28 -1 24 -47 -2 -27 -5 -58 -7 -71 -3 -18 2 -22 23 -22 l27 0 -4 70 c-4 69 -4
70 21 70 14 0 27 -5 29 -12 5 -15 28 -1 28 18 0 11 -19 14 -95 14 -88 0 -95
-1 -95 -20z"/>
<path d="M434 170 c-2 -77 -1 -80 21 -80 19 0 22 5 21 38 -1 37 -1 37 43 40
l44 3 -7 -40 c-6 -39 -5 -41 19 -41 25 0 25 1 25 80 0 78 0 80 -25 80 -22 0
-24 -3 -18 -30 5 -30 5 -30 -40 -30 -44 0 -46 1 -44 27 2 21 -3 29 -18 31 -18
2 -20 -3 -21 -78z"/>
<path d="M637 173 l2 -78 45 -3 c50 -3 86 11 86 33 0 19 -14 19 -30 -1 -14
-16 -61 -16 -67 1 -1 6 2 17 8 25 8 11 12 12 16 3 9 -24 23 -13 23 17 0 30
-14 41 -23 18 -3 -10 -7 -10 -17 -1 -7 6 -10 19 -7 27 7 19 48 21 65 4 9 -9
12 -7 12 10 0 20 -5 22 -58 22 l-57 0 2 -77z"/>
<path d="M927 190 c4 -40 2 -65 -7 -75 -10 -12 -9 -16 4 -21 25 -9 30 1 28 54
l-2 47 25 -30 c14 -16 28 -38 31 -47 9 -28 19 -22 48 30 l27 47 -4 -51 c-4
-50 -3 -51 25 -52 28 -1 37 11 18 23 -5 3 -7 33 -3 70 l6 65 -27 0 c-16 0 -26
-5 -26 -15 0 -16 -32 -84 -40 -85 -3 0 -18 23 -33 50 -21 38 -34 50 -52 50
-22 0 -23 -2 -18 -60z"/>
<path d="M1176 229 c-36 -28 -36 -81 0 -114 30 -27 55 -31 103 -14 53 19 69
85 31 127 -28 30 -97 30 -134 1z m92 -11 c7 -7 12 -29 12 -50 0 -27 -5 -40
-21 -48 -30 -17 -69 11 -69 50 0 48 48 78 78 48z"/>
<path d="M1382 234 c-17 -12 -22 -25 -22 -59 0 -54 25 -75 87 -75 41 0 63 13
83 50 12 23 -5 77 -30 90 -28 15 -93 12 -118 -6z m102 -41 c10 -38 -4 -63 -38
-63 -31 0 -46 19 -46 55 0 40 7 47 44 43 25 -2 32 -9 40 -35z"/>
<path d="M1820 119 c0 -25 33 -22 38 4 2 12 -3 17 -17 17 -15 0 -21 -6 -21
-21z"/>
<path d="M1118 3863 c12 -2 30 -2 40 0 9 3 -1 5 -23 4 -22 0 -30 -2 -17 -4z"/>
<path d="M1170 3755 c0 -8 2 -15 4 -15 2 0 6 7 10 15 3 8 1 15 -4 15 -6 0 -10
-7 -10 -15z"/>
<path d="M900 3700 c0 -5 11 -10 25 -10 14 0 25 5 25 10 0 6 -11 10 -25 10
-14 0 -25 -4 -25 -10z"/>
<path d="M610 3687 c0 -8 41 -63 90 -121 50 -59 90 -104 90 -101 0 4 -28 40
-61 81 -34 41 -60 76 -58 79 3 2 26 -14 52 -36 26 -22 47 -37 46 -32 -1 15
-159 144 -159 130z m51 -44 c13 -16 12 -17 -3 -4 -10 7 -18 15 -18 17 0 8 8 3
21 -13z"/>
<path d="M836 3577 c3 -10 9 -15 12 -12 3 3 0 11 -7 18 -10 9 -11 8 -5 -6z"/>
<path d="M800 3525 c13 -14 26 -25 28 -25 3 0 -5 11 -18 25 -13 14 -26 25 -28
25 -3 0 5 -11 18 -25z"/>
<path d="M820 3470 c-14 -10 -22 -21 -19 -24 3 -3 16 5 29 19 28 30 24 32 -10
5z"/>
<path d="M550 3068 c0 -4 21 -8 48 -7 52 1 48 6 -10 11 -21 2 -38 0 -38 -4z"/>
<path d="M1764 2675 c-5 -13 1 -25 20 -42 32 -27 39 -28 56 -8 17 21 5 45 -23
45 -13 0 -28 5 -35 12 -9 9 -13 7 -18 -7z m74 -32 c6 -19 -33 -16 -49 3 -11
14 -9 15 16 12 16 -1 30 -9 33 -15z"/>
<path d="M393 2654 c-6 -17 14 -44 33 -44 7 0 16 -9 19 -20 3 -11 10 -20 15
-20 17 0 -12 48 -31 53 -11 3 -19 10 -19 16 0 17 31 13 52 -6 10 -9 18 -11 18
-6 0 27 -78 51 -87 27z"/>
<path d="M690 2458 c0 -39 7 -51 37 -67 37 -19 44 -14 37 27 -11 66 -74 100
-74 40z m52 -28 c4 -25 2 -27 -13 -19 -24 12 -32 27 -25 44 8 23 34 6 38 -25z"/>
<path d="M1722 2398 c3 -21 49 -56 76 -57 6 -1 12 10 12 23 0 29 -15 41 -58
49 -30 6 -33 5 -30 -15z m66 -20 c3 -15 -1 -16 -19 -9 -32 11 -38 34 -8 29 13
-1 25 -11 27 -20z"/>
<path d="M966 2358 c10 -53 64 -82 64 -35 0 29 -18 53 -47 62 -21 6 -22 4 -17
-27z m42 -17 c3 -16 -1 -22 -10 -19 -7 3 -15 15 -16 27 -3 16 1 22 10 19 7 -3
15 -15 16 -27z"/>
<path d="M1525 2376 c-11 -25 4 -47 45 -68 33 -17 60 -11 60 13 0 18 -41 49
-64 49 -13 0 -26 6 -29 13 -3 8 -7 6 -12 -7z m79 -42 c3 -9 -1 -14 -13 -14
-29 0 -51 11 -51 24 0 17 57 8 64 -10z"/>
<path d="M1294 2359 c-7 -13 50 -69 72 -69 17 0 19 44 2 57 -21 17 -66 24 -74
12z m66 -29 c13 -25 2 -25 -30 0 -25 19 -25 20 -3 20 12 0 27 -9 33 -20z"/>
<path d="M507 2343 c-14 -14 -6 -34 30 -73 46 -49 63 -51 63 -7 0 35 -15 57
-39 57 -8 0 -22 7 -31 15 -9 8 -20 12 -23 8z m77 -62 c-1 -6 -2 -16 -2 -22 -2
-10 -62 43 -62 55 0 3 15 -1 33 -9 17 -7 32 -18 31 -24z"/>
<path d="M750 2197 c0 -17 10 -33 29 -46 39 -28 51 -26 51 8 0 32 -13 46 -53
56 -24 6 -27 4 -27 -18z m70 -33 c0 -25 -59 13 -60 39 0 4 14 1 30 -8 17 -9
30 -22 30 -31z"/>
<path d="M1304 2178 c10 -56 68 -89 79 -47 12 45 -17 79 -65 79 -18 0 -20 -4
-14 -32z m54 -21 c2 -15 -1 -27 -5 -27 -15 0 -33 23 -33 43 0 30 34 16 38 -16z"/>
<path d="M1610 2192 c0 -43 69 -97 92 -74 10 10 0 61 -11 63 -8 1 -32 7 -58
15 -14 4 -23 2 -23 -4z m80 -44 c0 -12 -35 -9 -48 4 -21 21 -13 27 18 15 17
-6 30 -15 30 -19z"/>
<path d="M1022 2133 c2 -20 9 -29 26 -31 12 -2 22 -10 22 -18 0 -8 7 -14 15
-14 24 0 19 56 -7 74 -36 26 -60 21 -56 -11z m50 0 c10 -9 18 -23 18 -31 0
-13 -3 -13 -18 1 -10 10 -24 17 -30 17 -7 0 -12 7 -12 15 0 20 19 19 42 -2z"/>
<path d="M420 2136 c0 -13 36 -65 54 -78 15 -10 21 -2 24 31 2 23 -3 33 -15
37 -10 3 -26 10 -35 15 -24 12 -28 11 -28 -5z m61 -29 c-1 -4 -1 -12 -1 -19 0
-6 -9 -3 -20 7 -26 23 -26 36 1 27 11 -5 20 -11 20 -15z"/>
<path d="M1234 2049 c-12 -20 7 -58 38 -73 45 -23 57 -20 55 11 -2 22 -12 33
-44 50 -26 13 -45 18 -49 12z m57 -29 c16 -9 28 -40 14 -40 -16 0 -55 26 -55
37 0 16 14 17 41 3z"/>
<path d="M604 2026 c-11 -27 12 -66 39 -66 13 0 28 -5 33 -10 8 -8 15 -6 23 4
17 20 -3 56 -31 56 -12 0 -30 7 -40 16 -16 16 -18 15 -24 0z m74 -39 c20 -16
14 -24 -18 -19 -17 2 -35 12 -40 22 -8 15 -5 16 18 12 15 -2 33 -9 40 -15z"/>
</g>
</svg>
