<?xml version="1.0" standalone="no"?>
<!DOCTYPE svg PUBLIC "-//W3C//DTD SVG 20010904//EN"
 "http://www.w3.org/TR/2001/REC-SVG-20010904/DTD/svg10.dtd">
<svg version="1.0" xmlns="http://www.w3.org/2000/svg"
 width="219.000000pt" height="372.000000pt" viewBox="0 0 219.000000 372.000000"
 preserveAspectRatio="xMidYMid meet">
<metadata>
Created by potrace 1.16, written by Peter Selinger 2001-2019
</metadata>
<g transform="translate(0.000000,372.000000) scale(0.100000,-0.100000)"
fill="#000000" stroke="none">
<path d="M58 3703 c-1 -5 -2 -62 -3 -128 -3 -209 -15 -858 -22 -1190 -3 -176
-8 -660 -10 -1075 -3 -415 -7 -870 -10 -1011 l-6 -256 39 -5 c22 -3 221 -6
444 -7 223 0 538 -4 700 -8 162 -4 446 -8 630 -8 l334 0 1 135 c7 907 17 2049
21 2470 8 660 6 1062 -5 1073 -4 4 -467 11 -1027 13 -560 3 -1016 3 -1012 -1
3 -4 65 -8 136 -9 71 -2 134 -6 140 -10 6 -3 15 -21 22 -40 10 -32 43 -56 78
-56 32 0 45 -15 32 -36 -9 -15 -8 -28 3 -62 l15 -42 -32 19 c-17 10 -53 32
-81 49 -27 16 -101 62 -164 101 -62 40 -115 70 -117 68 -4 -4 109 -77 335
-217 76 -47 150 -94 164 -105 l26 -20 -23 -33 -23 -32 -44 31 c-24 17 -82 55
-129 86 -47 31 -146 100 -220 153 -74 53 -145 102 -157 109 -31 16 -29 39 5
44 25 4 25 4 -5 6 -18 0 -34 -2 -35 -6z m506 -38 c14 -14 36 -25 49 -25 32 0
44 -17 44 -58 0 -39 15 -52 59 -52 37 0 84 -34 84 -60 0 -10 -14 -30 -32 -45
-31 -27 -32 -27 -40 -6 -4 13 -16 21 -30 22 -72 1 -108 7 -121 17 -21 18 -31
80 -15 99 10 13 9 18 -11 34 -13 11 -32 19 -43 19 -32 0 -55 18 -66 50 l-11
30 54 0 c44 0 59 -5 79 -25z m202 -65 c49 -98 52 -108 22 -80 -19 17 -45 25
-71 21 -4 -1 -17 4 -28 9 -16 9 -18 18 -14 44 8 38 -3 49 -62 65 -68 19 -52
32 34 29 l77 -3 42 -85z m78 68 c8 -13 17 -34 21 -48 5 -14 19 -42 31 -62 13
-21 24 -40 24 -43 0 -4 -66 -35 -76 -35 -4 0 -80 163 -89 190 -6 18 -2 20 34
20 31 0 44 -5 55 -22z m504 2 c-10 -15 -10 -22 0 -32 20 -20 14 -36 -20 -52
-44 -23 -72 -20 -87 8 -11 19 -10 27 0 45 13 20 23 24 62 24 9 0 17 4 17 8 0
5 -90 9 -200 9 -141 0 -200 -3 -200 -11 0 -7 10 -9 25 -7 16 3 30 -1 41 -13
15 -16 15 -20 -2 -48 -11 -18 -27 -31 -38 -31 -11 0 -16 -3 -13 -6 3 -4 50 -6
104 -5 103 2 122 -5 36 -13 -28 -3 -70 -10 -92 -15 -48 -10 -46 -12 -95 87
l-36 72 255 0 c252 0 255 0 243 -20z m92 15 c0 -3 -13 -26 -29 -51 l-28 -46
-7 33 c-4 24 -2 37 11 50 16 16 53 26 53 14z m100 -1 c0 -3 -17 -36 -38 -72
-21 -37 -47 -85 -59 -107 -25 -47 -41 -53 -72 -28 l-22 18 58 98 c57 95 59 97
95 97 21 0 38 -3 38 -6z m190 -4 c36 -4 59 -8 53 -8 -7 -1 -13 -10 -13 -21 0
-26 -28 -46 -60 -43 -54 6 -100 -31 -100 -78 0 -25 -29 -40 -75 -40 -27 0 -44
-8 -66 -29 -16 -16 -31 -25 -34 -21 -6 9 47 113 101 198 33 51 34 52 81 51 27
-1 77 -5 113 -9z m245 -16 c-11 -8 -31 -17 -45 -20 -45 -9 -55 -19 -52 -52 3
-24 -3 -38 -25 -58 -25 -24 -33 -26 -85 -20 -62 6 -72 0 -74 -47 -3 -45 -20
-57 -85 -57 -46 0 -63 -4 -80 -21 -20 -20 -22 -20 -40 -3 -24 22 -25 60 0 73
10 6 38 13 62 17 54 8 66 17 74 55 9 38 40 59 89 59 40 0 76 22 76 46 0 33 30
44 118 44 80 -1 85 -2 67 -16z m185 -39 l0 -55 -51 -25 c-47 -24 -52 -25 -63
-10 -11 16 -14 15 -29 -9 -19 -28 -115 -77 -259 -130 -53 -20 -121 -47 -150
-61 -48 -22 -54 -23 -69 -9 -14 13 -16 20 -7 40 12 26 13 26 80 24 59 -2 98
31 98 81 l0 32 45 -6 c81 -12 148 32 143 93 -3 33 -1 35 33 41 20 3 49 15 65
27 23 17 43 21 97 22 l67 0 0 -55z m-1122 34 c-2 -6 -8 -10 -13 -10 -5 0 -11
4 -13 10 -2 6 4 11 13 11 9 0 15 -5 13 -11z m64 -17 c9 -60 -19 -88 -48 -48
-18 25 -18 28 6 54 27 29 37 28 42 -6z m77 -9 c10 -21 9 -29 -5 -44 -29 -32
-44 -24 -44 24 0 24 3 46 6 50 11 10 31 -4 43 -30z m-885 -130 c54 -41 112
-81 130 -90 17 -9 65 -42 108 -73 42 -32 82 -60 90 -63 20 -7 8 -14 -38 -20
-38 -6 -41 -5 -55 25 -9 22 -26 37 -51 47 -33 12 -43 12 -85 -3 -68 -24 -76
-24 -82 1 -3 13 -14 32 -24 44 -15 17 -26 20 -59 16 -22 -3 -47 -12 -56 -21
-15 -13 -21 -12 -59 12 l-42 27 -1 128 0 128 63 -43 c34 -23 106 -75 161 -115z
m926 147 c0 -5 -4 -10 -10 -10 -5 0 -10 5 -10 10 0 6 5 10 10 10 6 0 10 -4 10
-10z m-182 -68 c2 -7 -6 -12 -17 -12 -21 0 -27 11 -14 24 9 9 26 2 31 -12z
m184 -17 c-3 -14 2 -17 32 -13 30 3 36 1 36 -15 0 -15 -5 -18 -22 -12 -13 3
-44 9 -71 12 -26 3 -50 10 -54 16 -4 6 -1 7 6 3 21 -13 61 2 54 20 -4 12 -2
15 8 12 8 -3 13 -13 11 -23z m152 3 c-12 -22 -47 -58 -56 -58 -17 0 -7 40 14
54 27 19 52 21 42 4z m786 -53 c0 -32 -4 -37 -60 -65 -33 -16 -61 -30 -64 -30
-2 0 -3 17 -3 38 2 35 6 39 57 64 30 15 58 27 63 27 4 1 7 -15 7 -34z m-908
-14 c211 -58 352 -243 351 -461 0 -145 -49 -258 -155 -362 -168 -165 -429
-189 -626 -58 -152 102 -242 304 -213 476 29 164 126 295 279 373 103 52 246
65 364 32z m727 -58 c-5 -21 -9 -41 -9 -46 0 -7 -292 -156 -347 -178 -20 -7
-25 -3 -43 31 -11 22 -20 41 -20 44 0 7 71 39 226 101 72 29 144 60 160 68 41
23 43 21 33 -20z m32 4 c-8 -8 -11 -7 -11 4 0 20 13 34 18 19 3 -7 -1 -17 -7
-23z m152 -19 c6 -41 -8 -68 -34 -68 -33 0 -58 -19 -74 -55 -14 -35 -36 -44
-64 -26 -10 7 -12 21 -7 56 7 46 8 47 84 84 42 21 80 39 83 40 4 0 9 -14 12
-31z m-1457 -23 c7 -44 -4 -47 -51 -15 -25 17 -45 33 -45 36 0 3 21 4 47 2 37
-2 47 -7 49 -23z m-585 -48 c26 -18 27 -18 65 2 21 12 46 21 55 21 20 0 44
-26 58 -63 12 -30 33 -34 71 -12 54 31 132 12 149 -37 12 -34 32 -43 61 -28
33 17 43 0 27 -46 -12 -35 -18 -40 -56 -46 -23 -4 -46 -10 -51 -13 -17 -10
-47 13 -58 45 -14 39 -38 48 -74 27 -35 -20 -72 -22 -86 -4 -5 6 -13 27 -17
45 -8 40 -40 50 -83 28 -69 -36 -112 -10 -112 66 0 52 0 52 51 15z m1829 -4
c-1 -19 -40 -52 -65 -55 -20 -2 -33 -14 -50 -43 -24 -42 -28 -43 -87 -23 l-37
13 107 56 c106 56 132 66 132 52z m216 -19 c-3 -9 -6 -22 -6 -30 0 -8 -6 -14
-14 -14 -17 0 -26 -22 -26 -61 0 -32 -25 -53 -76 -64 -31 -6 -36 -3 -70 38 -7
8 -10 26 -7 41 5 24 9 26 38 20 33 -6 65 14 65 41 0 24 31 45 67 45 28 0 34
-3 29 -16z m-196 -14 c0 -5 -4 -10 -10 -10 -5 0 -7 -7 -4 -15 4 -9 0 -15 -10
-15 -19 0 -21 -16 -3 -23 7 -3 5 -6 -5 -6 -10 -1 -18 -6 -18 -12 0 -6 6 -9 14
-6 10 4 17 -10 25 -55 12 -58 12 -60 -13 -83 -14 -13 -26 -30 -26 -36 0 -7 13
0 30 16 41 39 51 23 12 -18 -18 -18 -32 -39 -32 -46 0 -7 13 1 29 18 27 29 51
40 51 24 0 -4 -17 -24 -37 -45 -20 -21 -34 -40 -31 -43 3 -4 22 10 42 29 38
39 46 43 46 24 0 -7 -14 -25 -32 -40 -18 -14 -29 -30 -25 -34 4 -5 12 -3 16 4
9 16 61 44 61 34 0 -4 -9 -13 -20 -20 -11 -7 -20 -20 -20 -29 0 -14 4 -13 23
5 30 28 46 29 21 1 -18 -20 -18 -20 9 -14 31 8 35 -2 10 -21 -10 -7 -15 -16
-11 -20 4 -4 16 -1 25 7 15 11 15 10 -1 -9 -22 -25 -15 -42 9 -22 9 7 18 10
22 6 3 -3 4 -7 2 -9 -2 -1 -23 -19 -47 -40 -48 -42 -45 -50 5 -11 19 14 37 24
40 21 3 -3 -19 -23 -48 -43 -63 -46 -50 -58 15 -14 35 24 46 38 47 58 0 24 1
25 9 7 10 -23 13 -51 4 -42 -3 3 -15 -3 -27 -13 -12 -10 -33 -28 -47 -39 -14
-11 -20 -20 -13 -21 6 0 15 5 18 10 10 16 25 11 18 -6 -4 -12 -2 -15 8 -12 8
3 14 13 14 23 0 10 6 20 13 23 7 2 12 -5 11 -20 -2 -36 -13 -69 -24 -69 -19 1
-45 -10 -45 -20 0 -12 7 -11 31 1 13 7 19 7 19 0 0 -5 -6 -10 -14 -10 -16 0
-49 -40 -41 -49 3 -2 12 4 20 15 19 26 19 9 -1 -21 -9 -14 -22 -21 -30 -18 -8
3 -14 0 -14 -7 0 -6 5 -8 10 -5 6 3 10 2 10 -3 0 -13 -118 -122 -131 -122 -6
0 -7 5 -4 10 11 18 -14 10 -34 -11 -23 -25 -64 -19 -54 9 6 15 5 15 -10 3 -9
-7 -17 -23 -17 -34 0 -18 -6 -15 -38 18 -43 46 -62 84 -62 124 0 33 19 91 29
91 11 0 35 -52 32 -69 -2 -13 0 -13 14 -1 11 9 13 15 4 20 -6 4 -9 12 -5 18 3
5 0 12 -8 15 -17 7 -27 67 -17 104 8 30 14 24 26 -22 5 -20 9 -25 13 -15 3 8
16 29 29 46 31 41 30 57 -2 20 -32 -37 -46 -26 -17 14 26 35 45 80 34 80 -4 0
-14 -16 -21 -35 -7 -19 -17 -35 -23 -35 -6 0 -7 7 -3 18 22 51 32 108 22 122
-6 8 -7 12 -3 8 10 -9 36 9 36 24 0 6 -7 4 -16 -3 -15 -12 -16 -11 -9 11 4 14
11 31 15 38 11 22 109 -183 122 -258 8 -42 14 -56 16 -40 2 14 8 29 13 34 13
14 11 28 -3 20 -10 -6 -10 -4 0 7 17 19 15 29 -5 22 -16 -6 -15 -3 2 17 l20
23 -22 -7 c-27 -9 -30 2 -6 20 10 7 15 16 11 20 -4 4 -14 1 -23 -6 -9 -8 -15
-8 -15 -2 0 6 5 14 10 17 18 11 10 23 -12 18 -19 -5 -21 -3 -10 8 19 20 14 31
-10 24 -19 -6 -21 -5 -10 6 16 18 17 48 0 31 -20 -20 -32 -13 -13 8 21 23 13
39 -10 20 -9 -8 -15 -8 -15 -2 0 6 5 14 10 17 16 10 12 28 -5 21 -8 -3 -15 -1
-15 4 0 6 5 10 10 10 6 0 10 5 10 10 0 6 -7 10 -15 10 -8 0 -15 7 -15 15 0 8
6 13 13 11 6 -1 9 -1 5 1 -24 14 9 153 50 215 24 37 42 49 42 28z m-75 -47
c-4 -10 -15 -43 -23 -73 -9 -30 -17 -57 -18 -58 -1 -2 -21 -8 -43 -13 -40 -9
-67 -3 -103 23 -13 10 -22 9 -42 -1 -25 -14 -56 -9 -56 9 0 5 15 17 33 25 17
8 44 23 59 32 25 16 28 16 60 -1 28 -15 39 -16 56 -7 12 6 22 17 22 24 0 20
30 57 47 57 11 0 13 -5 8 -17z m265 -91 l0 -98 -64 -2 c-59 -1 -64 0 -77 26
-7 15 -15 30 -17 33 -1 4 17 9 40 13 61 10 86 29 94 73 15 86 24 70 24 -45z
m-2073 77 c7 -7 28 -9 55 -5 96 14 101 14 110 -20 4 -17 15 -37 24 -45 20 -17
73 -13 95 7 22 20 59 3 59 -26 0 -11 11 -26 24 -35 19 -13 31 -13 74 -3 56 12
66 10 56 -16 -5 -14 -33 -16 -235 -18 -126 -1 -241 -2 -256 -2 l-28 -1 -2 88
c-2 86 2 98 24 76z m1574 -49 c-21 -18 -51 -27 -51 -15 0 5 58 33 70 34 3 0
-6 -9 -19 -19z m61 -86 c21 -11 47 -15 80 -12 36 4 48 2 48 -8 0 -9 -14 -15
-42 -16 l-43 -1 43 -4 c23 -2 42 -7 42 -10 0 -4 -8 -24 -17 -45 l-17 -38 -93
0 -93 0 0 50 0 50 63 2 62 2 -70 5 -70 6 30 16 c39 22 41 22 77 3z m293 -36
l16 -33 -21 24 c-11 13 -20 27 -20 32 0 18 10 8 25 -23z m-1437 -8 c2 0 2 -17
0 -37 l-3 -38 -50 1 c-27 0 -136 3 -242 7 -105 4 -199 7 -207 7 -11 0 -16 9
-16 29 0 26 4 30 33 35 23 3 384 0 485 -4z m1580 -51 c3 -32 0 -37 -23 -43
-16 -4 -33 -2 -42 5 -14 12 -43 62 -43 74 0 3 24 5 53 3 52 -3 52 -3 55 -39z
m-1752 -35 l101 -6 -55 -55 -54 -56 -34 17 c-19 9 -46 16 -60 16 -37 0 -84
-28 -84 -50 0 -30 -18 -33 -52 -8 -20 14 -47 23 -70 23 l-38 0 0 65 0 65 122
-2 c68 -2 168 -5 224 -9z m1399 -46 c-10 -44 -13 -48 -36 -48 -11 0 -24 11
-31 25 -8 18 -19 25 -39 25 -15 0 -31 -4 -34 -10 -8 -13 -45 -13 -45 -1 0 36
12 41 102 41 l90 0 -7 -32z m-1225 3 c15 -30 13 -38 -19 -51 -16 -6 -43 -29
-59 -49 -41 -51 -78 -58 -138 -26 -26 14 -53 25 -60 25 -8 0 -23 -18 -34 -40
-28 -56 -61 -63 -102 -21 -39 40 -68 38 -88 -6 -8 -18 -18 -33 -22 -33 -15 0
-8 76 8 99 20 27 52 23 102 -16 26 -20 36 -22 47 -13 8 7 15 21 15 31 0 41 85
65 126 34 31 -24 61 -18 86 18 34 48 60 66 95 67 22 0 36 -6 43 -19z m1579
-38 l-1 -58 -23 50 c-30 63 -30 65 0 65 24 0 25 -3 24 -57z m-427 -3 c11 -20
22 -28 32 -24 18 7 21 -19 10 -75 -6 -28 -10 -31 -44 -31 -35 0 -39 3 -54 40
-14 35 -19 40 -40 34 -52 -13 -42 44 12 68 53 23 65 22 84 -12z m-1132 -32 c0
-13 -98 -74 -106 -66 -2 3 11 21 30 41 33 36 76 50 76 25z m1201 -29 c-5 -13
-10 -19 -10 -12 -1 15 10 45 15 40 3 -2 0 -15 -5 -28z m-1176 -36 c8 -20 14
-37 13 -38 -2 0 -34 -14 -73 -30 -38 -16 -92 -38 -120 -50 -27 -13 -75 -32
-105 -43 -30 -11 -106 -43 -167 -71 l-113 -50 0 44 c0 41 2 44 38 55 39 13
240 98 407 173 55 25 101 46 102 46 2 1 10 -15 18 -36z m1043 -5 c11 -22 28
-36 50 -43 33 -9 35 -14 24 -52 -7 -21 -10 -20 -88 30 -68 44 -80 55 -74 72 4
11 19 22 36 26 35 6 32 8 52 -33z m-1313 2 c17 -11 41 -20 54 -20 36 0 17 -13
-74 -50 -44 -18 -122 -50 -173 -71 -52 -22 -96 -39 -98 -39 -9 0 -3 99 6 105
6 4 17 22 25 41 16 39 30 37 74 -10 39 -42 65 -32 129 48 16 20 21 20 57 -4z
m1289 -75 c37 -24 73 -48 82 -53 13 -7 13 -13 -6 -45 -12 -20 -24 -37 -26 -37
-12 0 -174 103 -174 111 0 12 41 69 51 69 3 0 36 -20 73 -45z m-978 3 c8 -28
-13 -44 -86 -65 -70 -19 -88 -36 -102 -90 -13 -53 -41 -74 -105 -78 -54 -4
-94 -30 -108 -71 -17 -49 -24 -54 -74 -54 -65 0 -91 -22 -101 -83 -5 -33 -4
-47 4 -44 6 2 11 21 11 41 1 52 31 76 96 76 38 0 51 4 63 22 9 12 16 30 16 39
0 29 48 59 95 59 54 0 107 34 115 75 12 58 28 74 88 91 31 8 69 24 83 34 26
19 27 18 47 -3 58 -62 28 -112 -64 -108 -65 2 -94 -16 -94 -60 0 -62 -85 -115
-143 -88 -40 18 -67 -3 -67 -51 0 -65 -60 -105 -120 -80 -38 16 -63 7 -55 -19
10 -31 -27 -61 -75 -61 -22 0 -40 5 -40 10 0 6 6 10 13 11 9 0 9 2 0 6 -14 5
-17 94 -7 205 l7 67 146 61 c80 34 193 81 251 105 58 24 121 50 140 58 48 21
58 20 66 -5z m1491 -30 c-3 -7 -5 -2 -5 12 0 14 2 19 5 13 2 -7 2 -19 0 -25z
m-532 -85 c69 -48 70 -48 73 -98 2 -27 1 -69 -3 -92 -6 -39 -9 -43 -35 -43
-20 0 -35 8 -46 25 -11 16 -26 25 -43 25 -46 0 -64 21 -63 74 1 50 -5 57 -70
70 -64 14 -10 63 65 60 63 -3 79 -19 85 -86 5 -59 16 -78 43 -78 13 0 19 -7
19 -24 0 -13 7 -29 15 -36 13 -11 14 -8 9 21 -8 42 -20 57 -47 61 -19 3 -22
10 -24 57 -2 69 -29 101 -85 101 -39 0 -46 8 -27 27 14 14 31 6 134 -64z m514
10 c-23 -72 -44 -113 -57 -113 -9 0 -12 -6 -8 -16 9 -24 -3 -37 -22 -22 -13
11 -15 10 -9 -14 8 -29 -7 -48 -17 -22 -3 8 -10 12 -16 9 -7 -4 -6 -13 1 -27
7 -13 7 -24 1 -30 -6 -6 -12 0 -16 18 -6 21 -10 24 -16 14 -4 -7 -4 -24 1 -37
11 -30 11 -33 -1 -33 -5 0 -10 11 -10 25 0 15 -6 25 -14 25 -11 0 -13 -11 -10
-42 l4 -43 -12 33 c-16 47 -31 40 -23 -10 7 -43 -9 -46 -17 -4 -1 11 -9 21
-16 24 -10 3 -12 -5 -6 -34 3 -22 9 -42 13 -47 13 -14 101 53 147 113 40 51
64 72 64 56 0 -2 3 -13 7 -23 6 -16 5 -17 -12 -3 -17 14 -18 13 -13 -5 3 -11
9 -29 13 -40 6 -17 3 -16 -15 5 -21 24 -22 24 -16 3 3 -13 8 -33 11 -45 l6
-23 -12 23 c-12 21 -29 30 -29 15 0 -5 7 -20 14 -35 8 -15 11 -30 7 -33 -5 -2
-14 8 -21 23 -7 15 -15 22 -17 15 -2 -7 1 -22 7 -33 6 -12 9 -24 6 -27 -3 -3
-8 2 -12 11 -3 9 -10 16 -15 16 -6 0 -5 -8 1 -19 16 -30 12 -47 -6 -25 -15 18
-15 18 -9 -8 3 -16 1 -28 -5 -28 -5 0 -10 5 -10 10 0 6 -4 10 -10 10 -5 0 -7
-13 -3 -30 6 -34 -12 -42 -22 -10 -3 11 -11 20 -17 20 -6 0 -7 -7 -3 -17 24
-59 10 -76 -18 -20 -10 21 -16 26 -16 14 -1 -10 4 -27 10 -39 9 -17 6 -25 -17
-49 -34 -36 -121 -95 -151 -104 -18 -5 -23 -2 -23 13 0 30 -21 83 -31 76 -5
-3 -6 -17 -3 -32 6 -26 6 -26 -9 -7 -8 11 -18 17 -21 14 -9 -9 24 -70 35 -64
5 4 9 1 9 -4 0 -6 -9 -11 -20 -11 -11 0 -20 -4 -20 -9 0 -17 85 2 134 31 114
67 244 196 292 289 l31 59 17 -24 c9 -14 16 -30 16 -36 0 -16 -17 -12 -24 6
-4 9 -9 14 -13 11 -3 -4 2 -18 11 -31 17 -28 21 -56 7 -56 -5 0 -12 11 -15 25
-4 14 -11 25 -16 25 -10 0 6 -46 22 -64 11 -14 10 -26 -2 -26 -6 0 -15 11 -20
24 -8 22 -30 45 -30 31 0 -3 9 -23 20 -45 11 -22 20 -47 20 -57 -1 -10 -13 5
-27 32 -14 28 -28 45 -30 38 -2 -6 7 -33 22 -59 19 -34 22 -45 10 -41 -12 5
-14 1 -9 -21 6 -26 5 -25 -16 7 -27 43 -38 34 -11 -10 19 -31 20 -49 1 -49 -4
0 -11 11 -14 25 -4 14 -11 25 -16 25 -13 0 -13 -6 6 -41 8 -17 13 -33 10 -36
-2 -3 -12 9 -21 27 -9 18 -19 30 -21 27 -3 -3 2 -19 11 -37 9 -17 14 -37 12
-43 -3 -7 -10 3 -17 21 -7 17 -16 32 -21 32 -5 0 -3 -16 5 -35 14 -32 14 -36
-4 -45 -28 -15 -30 -13 -24 19 6 26 3 30 -15 28 -18 -1 -21 -6 -16 -24 8 -32
-3 -29 -16 3 -12 32 -24 25 -15 -9 9 -36 48 -53 86 -37 17 7 33 10 37 6 8 -8
8 -104 0 -112 -13 -13 -27 9 -27 42 0 51 -15 41 -16 -11 -1 -25 -5 -50 -11
-56 -7 -7 -9 7 -7 43 1 29 0 40 -2 23 -2 -16 -7 -41 -11 -55 -6 -22 -7 -21
-13 15 l-7 40 -2 -37 c-1 -43 -21 -63 -21 -21 0 15 -5 35 -11 43 -8 11 -9 6
-7 -22 2 -20 0 -34 -4 -32 -4 3 -8 16 -8 30 0 13 -5 24 -10 24 -12 0 -3 -48
13 -67 14 -18 -27 -17 -89 2 -89 28 -153 29 -204 3 -52 -27 -81 -68 -64 -95
14 -24 7 -51 -16 -58 -10 -3 -22 -15 -25 -26 -11 -34 -32 -22 -57 34 -22 46
-22 60 -2 99 11 21 13 33 5 41 -6 6 -14 7 -18 3 -4 -4 -1 -12 7 -17 11 -8 10
-9 -7 -4 -24 7 -33 -9 -10 -18 7 -3 5 -6 -5 -6 -21 -1 -24 -17 -5 -25 9 -5 9
-7 -2 -12 -11 -5 -11 -8 0 -14 10 -7 10 -11 0 -24 -11 -14 -11 -16 4 -16 9 0
15 -6 13 -12 -3 -7 4 -19 13 -28 29 -24 2 -50 -57 -55 l-49 -5 33 15 c42 19
46 32 27 78 -21 52 -19 96 9 152 l25 48 -25 20 c-14 10 -23 21 -20 24 2 3 14
-5 26 -17 l21 -21 47 34 c26 19 57 38 70 41 22 7 28 22 14 42 -8 13 -42 15
-42 3 0 -5 -7 -6 -16 -2 -14 5 -16 1 -12 -22 l6 -29 -17 23 c-22 28 -36 15
-16 -16 13 -20 13 -23 1 -23 -8 0 -18 9 -21 20 -3 11 -11 20 -16 20 -14 0 -11
-27 6 -44 8 -8 15 -17 15 -20 0 -12 -26 6 -39 25 -12 20 -9 26 35 70 26 27 45
51 42 54 -14 14 -108 -108 -137 -179 -45 -109 -40 -212 11 -198 21 5 22 4 9
-11 -12 -15 -11 -17 3 -17 9 0 16 -4 16 -9 0 -15 -23 -26 -28 -13 -2 8 -11 8
-28 1 -14 -5 -43 -9 -65 -9 -22 0 -39 -5 -39 -11 0 -12 78 -8 115 6 19 7 18 6
-2 -14 -18 -17 -34 -21 -83 -21 -40 0 -60 4 -60 12 0 7 -11 28 -25 47 -84 123
-67 395 33 512 19 22 59 60 91 85 31 26 59 54 63 64 3 9 26 26 50 38 83 39
160 53 323 61 207 11 243 23 343 123 39 39 72 79 72 89 0 10 4 20 9 23 5 3 12
23 16 43 4 21 10 32 12 26 3 -7 -1 -30 -8 -50z m-1359 -13 c0 -5 -15 -33 -33
-62 -19 -29 -53 -89 -77 -133 -68 -126 -164 -275 -177 -275 -7 0 -13 -7 -13
-15 0 -14 -17 -20 -47 -16 -7 1 -19 -12 -28 -30 -16 -29 -17 -30 -30 -12 -8
10 -15 23 -15 29 0 7 -7 14 -15 18 -8 3 -15 17 -15 31 0 18 -5 25 -20 25 -11
0 -20 7 -20 15 0 8 -3 15 -7 16 -46 5 -75 4 -79 -3 -3 -5 -19 -6 -35 -3 -24 5
-29 3 -29 -12 0 -12 -12 -23 -30 -30 -17 -6 -29 -17 -28 -24 2 -7 -5 -15 -15
-17 -16 -3 -18 2 -15 38 3 41 4 43 40 45 50 3 88 29 88 60 0 28 8 30 44 14 55
-26 136 31 136 95 0 43 11 51 54 35 18 -6 45 -9 60 -5 42 10 86 57 91 96 6 47
29 62 82 54 49 -7 87 11 105 52 11 24 28 33 28 14z m63 -39 c36 -22 37 -25 22
-45 -8 -11 -29 -43 -45 -71 -16 -27 -74 -115 -127 -195 -86 -127 -101 -144
-126 -145 -32 -1 -52 18 -41 37 4 7 31 49 59 93 29 44 69 112 89 150 53 98
120 206 126 202 3 -1 22 -13 43 -26z m621 -21 c24 0 26 -3 26 -49 0 -42 4 -53
26 -70 15 -12 40 -21 55 -21 50 0 34 -26 -23 -38 -29 -6 -62 -14 -74 -17 -22
-7 -26 -1 -79 138 -33 84 -28 108 14 78 16 -12 41 -21 55 -21z m676 -5 c-7
-20 -14 -35 -16 -33 -2 2 2 21 8 41 6 20 13 35 16 33 2 -3 -1 -21 -8 -41z
m-766 -32 c10 -27 28 -75 42 -107 13 -33 23 -60 21 -61 -1 -1 -18 -7 -37 -14
-29 -10 -35 -9 -44 6 -17 29 -87 186 -84 188 11 9 65 34 74 35 6 0 19 -21 28
-47z m-464 15 c0 -7 3 -23 6 -34 4 -16 -6 -35 -40 -73 -39 -44 -46 -58 -46
-93 0 -25 7 -49 17 -61 17 -18 17 -20 -6 -38 -13 -10 -36 -19 -51 -19 -33 0
-90 -51 -90 -80 0 -10 -4 -22 -10 -25 -5 -3 -10 -19 -10 -35 0 -24 -6 -32 -35
-44 -43 -18 -44 -24 -5 -18 17 2 36 -1 43 -7 15 -12 21 -77 8 -85 -12 -8 -71
16 -71 28 0 6 -7 0 -16 -12 -8 -12 -20 -20 -25 -17 -5 4 -9 -1 -9 -9 0 -9 -4
-16 -10 -16 -5 0 -10 5 -10 10 0 6 -5 10 -11 10 -5 0 -7 -4 -4 -10 3 -5 1 -10
-4 -10 -6 0 -11 5 -11 12 0 6 -3 8 -7 5 -9 -9 -34 13 -27 24 3 5 -3 6 -12 2
-12 -5 -15 -3 -9 6 4 8 2 17 -5 21 -11 7 -11 14 0 39 12 30 30 42 30 21 0 -5
-4 -10 -8 -10 -4 0 -8 -10 -9 -22 -2 -22 -1 -22 12 2 8 14 14 33 15 43 0 27
70 20 70 -8 0 -8 8 -11 20 -8 18 5 19 7 5 17 -14 10 -14 13 0 34 18 24 55 30
55 9 0 -8 -10 -19 -22 -25 -22 -10 -22 -11 -3 -11 28 -1 44 16 38 40 -5 16
-28 25 -56 20 -4 -1 31 56 79 126 49 71 97 143 109 161 90 146 115 175 115
140z m100 -62 c0 -49 -17 -76 -65 -106 -38 -24 -45 -53 -20 -86 24 -32 18 -61
-21 -90 -27 -21 -35 -33 -31 -51 2 -13 -1 -23 -6 -23 -6 0 -5 -5 2 -12 8 -8
15 -9 17 -3 3 6 9 17 14 25 15 23 22 5 9 -23 -12 -27 -49 -33 -57 -9 -2 6 -10
8 -19 5 -13 -5 -15 -1 -9 23 4 16 8 41 7 56 0 17 8 32 24 42 30 20 31 40 5 73
-30 39 -25 66 25 121 35 39 45 58 45 85 l0 35 40 -10 c39 -10 40 -12 40 -52z
m254 32 c22 -32 20 -83 -6 -128 l-23 -39 33 -30 c17 -16 32 -35 32 -41 0 -19
-29 -23 -45 -6 -9 9 -23 16 -30 16 -25 0 -36 38 -33 117 1 43 -2 88 -6 100 -7
18 -4 22 21 26 15 2 31 5 35 6 4 0 14 -9 22 -21z m880 -22 c-3 -21 -8 -35 -11
-32 -2 2 -1 20 3 40 3 21 8 35 11 32 2 -2 1 -20 -3 -40z m-996 2 c-2 -96 -20
-359 -27 -383 -5 -16 -10 -22 -10 -12 -1 10 -9 17 -20 17 -28 0 -31 18 -31
163 0 73 -2 156 -5 185 l-6 52 49 0 c45 0 50 -2 50 -22z m-101 -226 c-2 -67
-7 -125 -11 -129 -3 -4 -13 2 -20 13 -12 15 -17 16 -27 7 -8 -8 -18 -9 -30 -3
-10 6 -20 6 -23 1 -3 -4 -17 -6 -31 -3 -20 3 -23 7 -14 18 6 8 17 14 23 14 14
0 46 51 46 73 0 8 -10 26 -21 41 l-22 27 51 47 c42 39 52 56 59 92 l7 45 9
-60 c4 -33 6 -115 4 -183z m134 186 c1 -13 -2 -43 -6 -68 -8 -56 6 -97 40
-110 43 -16 40 -35 -16 -89 -29 -28 -53 -50 -55 -48 -1 1 2 43 7 92 4 50 8
133 9 185 0 67 3 90 10 78 6 -9 11 -27 11 -40z m939 32 c0 -5 -4 -10 -10 -10
-5 0 -10 5 -10 10 0 6 5 10 10 10 6 0 10 -4 10 -10z m20 -59 c0 -6 -4 -13 -10
-16 -5 -3 -10 1 -10 9 0 9 5 16 10 16 6 0 10 -4 10 -9z m-811 -48 l23 -47 -22
-16 c-21 -16 -24 -16 -48 7 l-25 23 18 40 c10 22 21 40 25 40 3 0 16 -21 29
-47z m806 7 c3 -5 -1 -10 -9 -10 -9 0 -16 5 -16 10 0 6 4 10 9 10 6 0 13 -4
16 -10z m12 -187 c-3 -10 -5 -4 -5 12 0 17 2 24 5 18 2 -7 2 -21 0 -30z
m-1918 -23 c4 0 13 6 20 13 10 10 12 8 9 -8 -2 -15 -14 -22 -43 -27 -22 -3
-49 -8 -59 -10 -10 -2 -21 3 -24 11 -3 10 0 12 13 7 14 -5 16 -2 12 14 -6 25
21 28 30 3 5 -13 8 -12 16 8 8 20 11 21 14 7 3 -10 8 -18 12 -18z m591 26 c0
-2 -11 -6 -25 -8 -13 -3 -22 -1 -19 3 5 9 44 13 44 5z m-82 -53 c-16 -31 -19
-52 -15 -113 2 -43 1 -64 -3 -50 -16 50 -11 134 10 168 27 44 32 41 8 -5z
m-430 5 c-7 -19 -38 -22 -38 -4 0 10 9 16 21 16 12 0 19 -5 17 -12z m472 8 c0
-2 -7 -7 -16 -10 -8 -3 -12 -2 -9 4 6 10 25 14 25 6z m-654 -20 c9 -9 10 -17
4 -21 -14 -8 -30 3 -30 21 0 18 8 18 26 0z m670 -4 c24 -16 23 -42 -2 -58 -21
-15 -23 -19 -12 -36 7 -11 17 -19 22 -18 5 1 13 -4 17 -12 8 -11 11 -11 18 1
5 8 16 11 24 8 9 -3 17 2 20 14 6 21 42 26 50 7 3 -8 6 -6 6 5 1 10 9 17 19
17 27 0 33 -10 21 -34 -9 -19 -9 -19 4 -3 21 25 35 21 30 -10 -3 -24 -2 -25 6
-8 8 17 10 14 10 -17 1 -32 4 -38 22 -38 18 0 19 2 9 15 -8 9 -9 15 -2 15 6 0
14 -5 17 -10 9 -14 -4 -51 -16 -44 -19 11 -59 14 -59 4 0 -6 5 -8 12 -4 7 4 8
3 4 -5 -4 -6 -16 -9 -27 -6 -15 5 -17 3 -13 -10 6 -13 1 -16 -22 -13 -23 2
-28 7 -26 25 2 12 -2 24 -8 28 -6 3 -10 -3 -10 -15 0 -13 -5 -20 -12 -17 -7 2
-12 11 -10 21 2 10 -4 16 -15 16 -15 1 -13 5 10 25 35 31 34 38 -3 17 -30 -17
-41 -54 -19 -68 6 -3 8 -17 5 -30 -4 -14 -2 -24 4 -24 5 0 10 5 10 10 0 17 28
11 40 -7 8 -13 13 -14 16 -5 3 6 15 12 27 12 12 0 28 4 36 9 10 7 19 4 27 -7
7 -10 16 -13 21 -8 4 5 2 11 -4 13 -20 7 -15 32 5 27 14 -4 17 -18 18 -87 1
-94 16 -167 42 -205 37 -53 35 -57 -27 -59 -31 0 -69 -3 -85 -5 -17 -2 -31 2
-33 10 -3 7 6 12 24 13 26 1 26 1 5 7 -24 7 -31 24 -13 30 6 2 11 -1 11 -7 0
-6 7 -11 16 -11 8 0 13 4 9 9 -3 5 3 17 12 27 17 17 17 17 -4 12 -13 -3 -23
-2 -23 2 0 5 12 11 28 13 20 3 16 4 -14 6 -22 0 -49 8 -60 16 -21 16 -8 20 16
5 9 -5 19 -5 27 2 9 8 13 7 13 -2 0 -32 13 4 15 42 3 45 -10 72 -29 61 -6 -4
-4 1 4 11 8 10 22 21 32 25 15 5 14 9 -8 30 l-25 24 6 -26 c9 -33 -9 -36 -26
-5 -8 15 -14 18 -17 10 -2 -7 4 -22 14 -33 21 -23 11 -25 -15 -2 -32 27 -56
26 -59 -1 -2 -31 28 -44 46 -19 13 17 14 17 10 -2 -2 -11 -12 -21 -25 -23 -12
-2 -27 -11 -35 -20 -9 -11 -10 -14 0 -8 6 4 12 2 12 -3 0 -6 7 -11 16 -11 8 0
12 -4 9 -10 -4 -6 5 -10 19 -10 14 0 26 -5 26 -10 0 -6 -11 -8 -25 -4 -21 5
-25 3 -25 -14 0 -12 5 -24 10 -27 36 -22 -17 -111 -70 -116 -57 -5 -68 1 -95
49 -31 52 -43 137 -19 128 8 -3 14 1 14 9 0 9 -8 14 -21 12 -29 -3 -47 26 -30
47 28 33 82 11 61 -24 -10 -15 -4 -30 11 -30 5 0 9 8 10 18 0 9 3 12 5 5 3 -7
12 -9 20 -6 18 7 18 23 0 23 -18 0 -27 13 -30 44 -2 17 2 22 21 21 31 0 52
-28 46 -59 -3 -13 0 -27 6 -30 13 -8 14 -6 16 56 1 35 -1 45 -12 41 -14 -5
-63 40 -63 58 0 5 -5 9 -11 9 -11 0 -4 -15 19 -42 18 -21 4 -24 -22 -5 -11 8
-20 30 -22 52 -2 21 -11 46 -20 56 -10 11 -14 22 -11 26 4 3 7 1 7 -6 0 -7 5
-9 10 -6 6 3 10 1 10 -5 0 -7 8 -9 20 -5 24 8 25 2 4 -20 -20 -19 -15 -26 12
-19 28 7 25 48 -4 52 -12 2 -22 8 -22 13 0 5 -7 9 -15 9 -11 0 -13 8 -9 30 5
22 2 31 -10 36 -9 3 -13 11 -10 16 4 6 10 5 15 -3 6 -11 9 -9 9 7 0 31 14 41
36 26z m164 -1 c0 -12 -20 -25 -27 -18 -7 7 6 27 18 27 5 0 9 -4 9 -9z m40 -1
c0 -5 11 -10 25 -10 16 0 25 -6 25 -16 0 -11 6 -15 20 -11 13 3 20 0 20 -8 0
-7 4 -15 10 -17 5 -2 6 -9 1 -16 -6 -10 -14 -7 -32 12 -13 14 -30 26 -36 26
-15 0 -53 31 -53 42 0 5 5 8 10 8 6 0 10 -4 10 -10z m-732 -19 c3 -9 13 -22
21 -29 11 -9 12 -15 5 -18 -7 -3 -10 -14 -7 -24 4 -15 0 -20 -13 -20 -13 0
-15 -3 -7 -8 10 -6 10 -12 -1 -28 -12 -15 -17 -17 -27 -6 -16 15 -33 16 -23 1
11 -18 -16 -28 -47 -17 -25 8 -27 13 -18 30 6 11 8 22 5 26 -3 3 -6 0 -6 -6 0
-7 -6 -12 -14 -12 -17 0 -24 24 -18 58 4 18 9 22 26 18 12 -3 28 -1 36 4 12 8
10 9 -9 8 -13 -2 -26 3 -29 11 -3 10 0 12 12 8 10 -4 16 -1 16 8 0 21 90 18
98 -4z m260 -9 c4 -28 22 -29 22 -2 0 22 16 27 23 8 10 -32 -4 -47 -39 -41
-20 3 -40 1 -48 -6 -18 -15 -56 2 -56 26 0 13 3 13 27 -2 23 -16 25 -16 20 -1
-4 9 -2 16 3 16 6 0 10 -4 10 -10 0 -5 5 -10 10 -10 6 0 8 11 4 26 -5 20 -3
25 7 22 8 -3 15 -14 17 -26z m-200 9 c10 -6 10 -10 -2 -20 -12 -10 -17 -8 -26
8 -12 23 2 29 28 12z m1802 -26 c0 -5 -5 -3 -10 5 -5 8 -10 20 -10 25 0 6 5 3
10 -5 5 -8 10 -19 10 -25z m-2025 -1 c0 -11 -8 -20 -20 -21 -19 -3 -19 -3 -1
5 14 6 16 11 8 16 -16 10 -15 29 1 24 6 -3 12 -13 12 -24z m-40 6 c3 -5 1 -10
-4 -10 -6 0 -11 5 -11 10 0 6 2 10 4 10 3 0 8 -4 11 -10z m943 -13 c7 -9 18
-15 23 -12 5 4 9 2 9 -2 0 -5 10 -13 23 -18 30 -13 36 -55 8 -55 -25 0 -28 17
-3 23 13 4 11 5 -5 6 -13 0 -23 5 -23 10 0 13 -64 51 -87 51 -10 0 -35 -9 -56
-19 -29 -15 -37 -16 -37 -5 0 8 8 14 18 14 10 0 22 4 28 9 9 9 45 17 74 16 8
0 21 -8 28 -18z m1121 -47 c0 -9 -6 -4 -14 10 -8 14 -14 32 -14 40 0 9 6 4 14
-10 8 -14 14 -32 14 -40z m-1774 40 c3 -6 -4 -10 -17 -10 -18 0 -20 2 -8 10
19 12 18 12 25 0z m485 -6 c0 -8 -4 -12 -10 -9 -5 3 -10 10 -10 16 0 5 5 9 10
9 6 0 10 -7 10 -16z m-99 -21 c-8 -15 -10 -15 -11 -2 0 17 10 32 18 25 2 -3
-1 -13 -7 -23z m-305 -3 c5 1 10 -3 12 -9 2 -6 0 -11 -5 -11 -12 0 -33 22 -33
35 0 5 4 4 9 -3 4 -8 12 -13 17 -12z m385 4 c12 -14 11 -16 -5 -13 -11 2 -21
10 -24 17 -5 17 13 15 29 -4z m-721 -13 c0 -11 -9 -21 -22 -24 -29 -8 -32 -3
-16 22 16 26 38 27 38 2z m2008 -13 c16 -44 9 -45 -11 -3 -9 19 -13 35 -9 35
4 0 13 -14 20 -32z m-1758 3 c0 -14 -5 -18 -20 -14 -11 3 -20 12 -20 19 0 8 9
14 20 14 13 0 20 -7 20 -19z m71 -7 c8 -9 19 -36 25 -60 10 -39 9 -45 -11 -64
-25 -24 -35 -25 -35 -5 0 8 7 15 15 15 8 0 15 5 15 10 0 7 -6 8 -17 2 -11 -7
-21 -6 -30 4 -22 21 -5 36 30 29 22 -5 29 -4 22 3 -5 6 -19 12 -30 15 -18 4
-18 5 5 15 22 9 22 11 5 12 -28 1 -49 16 -41 29 10 16 31 14 47 -5z m-77 -23
c20 -5 20 -7 5 -22 -14 -14 -18 -14 -38 2 -21 18 -21 46 0 33 6 -3 20 -9 33
-13z m1751 -11 c9 -16 11 -30 6 -30 -5 0 -14 14 -20 30 -5 17 -8 30 -6 30 3 0
11 -13 20 -30z m-1973 -3 c17 -25 6 -72 -14 -64 -14 5 -14 11 -3 39 5 13 2 15
-15 11 -20 -5 -21 -4 -11 16 15 27 25 27 43 -2z m1958 -71 c-14 -14 -17 -8
-24 49 l-6 50 20 -44 c14 -30 17 -48 10 -55z m-2009 44 c5 0 9 -11 9 -25 0
-18 5 -25 20 -25 11 0 23 -7 27 -16 4 -11 14 -14 33 -10 15 3 35 0 44 -7 14
-11 12 -14 -14 -29 -17 -9 -30 -13 -30 -9 0 14 -58 34 -85 29 -21 -5 -25 -1
-31 28 -3 19 -3 51 2 72 6 29 9 32 12 15 2 -13 8 -23 13 -23z m2079 -4 c0 -38
-3 -45 -25 -50 -16 -4 -25 -13 -25 -26 0 -14 -7 -20 -21 -20 -20 0 -20 0 3 28
12 15 32 47 42 70 10 23 21 42 23 42 1 0 3 -20 3 -44z m-1844 10 c3 -8 4 -22
2 -31 -3 -14 -6 -13 -26 5 -12 12 -20 25 -17 31 9 14 35 11 41 -5z m1742 -60
c-5 -64 -23 -52 -25 17 -2 57 -1 60 13 42 9 -12 14 -36 12 -59z m-1687 50
c-10 -11 -8 -23 9 -56 l21 -41 -34 6 c-28 6 -39 2 -56 -16 -19 -20 -23 -21
-31 -9 -21 32 2 69 43 70 9 0 17 7 17 16 0 9 8 23 18 30 22 18 27 17 13 0z
m-190 -34 c-8 -29 -24 -33 -29 -7 -6 25 6 45 22 39 10 -4 12 -13 7 -32z m93
13 c13 -19 13 -25 3 -25 -17 0 -37 20 -37 37 0 21 16 15 34 -12z m-54 -4 c-7
-14 -6 -21 3 -24 6 -2 8 -8 4 -13 -10 -10 -27 14 -27 39 0 9 7 17 15 17 12 0
13 -4 5 -19z m435 -3 c14 -6 25 -15 25 -20 0 -15 -27 -8 -45 12 -21 23 -16 25
20 8z m63 -11 c-1 -2 3 -12 11 -21 13 -15 13 -19 0 -26 -20 -13 -31 3 -23 34
3 15 8 25 11 22 3 -2 3 -6 1 -9z m-92 -11 c16 -17 19 -36 4 -36 -9 0 -30 31
-30 44 0 10 11 7 26 -8z m-155 -29 c-16 -16 -26 0 -10 19 9 11 15 12 17 4 2
-6 -1 -17 -7 -23z m-211 3 c0 -11 -4 -20 -10 -20 -5 0 -10 9 -10 20 0 11 5 20
10 20 6 0 10 -9 10 -20z m286 6 c1 0 5 -12 9 -26 7 -22 6 -23 -9 -11 -13 11
-19 11 -31 1 -12 -10 -16 -9 -21 4 -11 28 3 48 28 40 13 -3 24 -7 24 -8z m50
-3 c16 -21 18 -33 5 -33 -15 0 -42 31 -36 41 9 13 16 11 31 -8z m84 -19 c0 -8
-4 -12 -10 -9 -5 3 -10 13 -10 21 0 8 5 12 10 9 6 -3 10 -13 10 -21z m1478
-38 l-3 -34 -37 16 c-42 18 -49 32 -18 32 13 0 24 10 31 28 9 24 11 25 20 9 6
-9 9 -33 7 -51z m-783 16 c-6 -7 -35 18 -35 31 0 5 9 2 20 -8 11 -10 18 -20
15 -23z m-1012 12 c3 -3 1 -17 -5 -30 -9 -18 -8 -28 0 -36 9 -9 12 -7 12 9 0
13 13 29 33 42 l32 21 34 -36 c35 -38 33 -50 -9 -56 -17 -2 -26 -10 -28 -25
-2 -12 -14 -29 -28 -37 -13 -9 -24 -23 -24 -31 0 -8 -9 -19 -19 -25 -16 -8
-21 -6 -24 8 -2 9 -3 2 -1 -17 3 -32 3 -33 -16 -16 -24 22 -54 12 -47 -14 2
-10 0 -25 -5 -32 -6 -9 -7 5 -3 41 4 30 7 63 7 73 -1 19 11 22 39 7 15 -8 19
-7 19 5 0 8 -6 14 -12 13 -9 -2 -14 15 -16 54 -3 49 0 58 20 72 24 17 32 19
41 10z m352 -49 c-20 -19 -41 -35 -46 -35 -5 0 -9 -7 -9 -15 0 -9 -9 -15 -21
-15 -26 0 -22 30 7 45 11 6 19 15 17 21 -2 6 15 16 37 23 22 6 40 17 41 24 0
9 2 8 6 -1 3 -7 -12 -28 -32 -47z m-561 25 c6 -6 3 -16 -7 -28 -21 -23 -22
-56 -1 -77 23 -22 29 -12 10 18 -16 23 -15 25 9 43 14 10 25 26 25 35 0 24 56
30 75 9 22 -25 19 -83 -6 -106 -11 -10 -18 -26 -16 -35 3 -10 -1 -20 -9 -23
-8 -3 -14 -15 -14 -26 0 -24 -35 -28 -44 -4 -4 10 -13 14 -26 11 -16 -4 -25 3
-39 31 -11 21 -29 43 -40 50 -21 12 -29 52 -11 52 6 0 8 11 4 26 -4 17 -2 29
7 35 16 11 68 4 83 -11z m511 10 c3 -5 -6 -12 -20 -16 -14 -3 -32 -16 -40 -27
-12 -17 -15 -18 -15 -5 0 9 12 26 28 37 31 23 38 25 47 11z m695 -22 c0 -15
-15 -8 -28 12 -12 19 -11 20 8 8 11 -7 20 -16 20 -20z m-770 20 c-1 -2 -7 -28
-15 -58 l-13 -55 -1 42 c-1 46 6 73 20 73 5 0 9 -1 9 -2z m-40 -28 c0 -11 -4
-20 -10 -20 -5 0 -10 9 -10 20 0 11 5 20 10 20 6 0 10 -9 10 -20z m400 16 c0
-3 -4 -8 -10 -11 -5 -3 -10 -1 -10 4 0 6 5 11 10 11 6 0 10 -2 10 -4z m1100
-26 c-13 -24 -33 -26 -50 -5 -12 14 -10 15 13 11 15 -3 27 0 27 5 0 5 5 9 10
9 7 0 7 -6 0 -20z m-710 -5 c7 -9 10 -18 7 -21 -10 -11 -37 5 -37 21 0 19 14
19 30 0z m295 5 c-3 -5 -11 -10 -16 -10 -6 0 -7 5 -4 10 3 6 11 10 16 10 6 0
7 -4 4 -10z m345 -10 c0 -5 -8 -10 -17 -10 -15 0 -16 2 -3 10 19 12 20 12 20
0z m114 -15 c-5 -21 -3 -25 14 -25 27 0 37 -17 21 -36 -9 -11 -9 -18 -1 -26
16 -16 15 -28 -3 -28 -12 0 -13 -4 -6 -19 9 -16 6 -20 -15 -25 -17 -5 -24 -12
-20 -21 4 -10 -1 -15 -15 -15 -16 0 -20 -5 -16 -20 7 -29 -10 -35 -24 -8 -9
17 -9 23 0 26 6 2 25 15 41 29 40 33 42 97 5 141 -18 22 -21 32 -13 40 21 21
39 14 32 -13z m-1083 2 c-1 -12 -15 -9 -19 4 -3 6 1 10 8 8 6 -3 11 -8 11 -12z
m713 -2 c19 -14 19 -15 -6 -15 -30 0 -61 -31 -52 -54 3 -9 1 -16 -6 -16 -7 0
-10 13 -8 33 2 26 0 31 -14 29 -10 -2 -18 2 -18 7 0 29 72 40 104 16z m56 -5
c0 -11 -4 -20 -10 -20 -5 0 -10 9 -10 20 0 11 5 20 10 20 6 0 10 -9 10 -20z
m-1231 -23 c0 -21 -1 -21 -9 -2 -12 28 -12 37 0 30 6 -3 10 -16 9 -28z m431
25 c0 -5 -7 -9 -15 -9 -8 0 -12 4 -9 9 3 4 9 8 15 8 5 0 9 -4 9 -8z m827 -29
c-3 -10 -5 -4 -5 12 0 17 2 24 5 18 2 -7 2 -21 0 -30z m133 33 c0 -3 -4 -8
-10 -11 -5 -3 -10 -1 -10 4 0 6 5 11 10 11 6 0 10 -2 10 -4z m217 -18 c-3 -8
-6 -5 -6 6 -1 11 2 17 5 13 3 -3 4 -12 1 -19z m-1654 -5 c-20 -7 -15 -33 10
-55 20 -18 20 -19 2 -13 -45 16 -54 16 -84 1 -20 -11 -31 -13 -31 -5 0 6 9 13
20 16 11 3 23 15 26 27 5 21 52 49 64 38 3 -3 -1 -7 -7 -9z m228 -9 c6 -7 8
-18 4 -24 -10 -16 -23 -12 -21 8 1 12 -6 17 -21 16 -22 -1 -29 7 -17 18 8 9
42 -2 55 -18z m1161 4 c-6 -6 -16 -7 -22 -3 -9 6 -9 9 1 16 17 10 34 0 21 -13z
m149 11 c12 -6 18 -17 15 -24 -3 -8 -1 -17 4 -20 6 -4 10 0 10 7 0 26 20 -16
20 -43 0 -43 -73 -107 -90 -79 -7 12 -40 3 -40 -11 0 -5 9 -9 20 -9 11 0 20
-7 20 -16 0 -9 -5 -12 -12 -8 -8 5 -9 0 -6 -14 4 -12 2 -20 -3 -16 -5 3 -9 15
-9 27 0 17 -2 19 -10 7 -10 -16 -12 -15 -28 22 -10 24 -9 26 6 21 15 -6 15 -5
3 10 -7 9 -24 17 -37 17 -13 0 -24 5 -24 11 0 6 12 10 28 9 46 -3 52 -1 52 23
-1 19 -2 20 -10 5 -15 -24 -50 -11 -50 18 0 28 28 44 41 23 6 -9 9 -10 9 -2 0
6 -5 15 -12 19 -17 11 20 34 55 34 15 0 37 -5 48 -11z m-711 -9 c13 -8 13 -10
-2 -10 -9 0 -20 5 -23 10 -8 13 5 13 25 0z m300 -28 c0 -4 -12 -12 -26 -19
-22 -10 -25 -10 -20 3 3 9 6 22 6 30 0 12 4 12 20 4 11 -6 20 -14 20 -18z
m-1110 8 c0 -5 -4 -10 -10 -10 -5 0 -10 5 -10 10 0 6 5 10 10 10 6 0 10 -4 10
-10z m1283 -31 c34 -36 34 -52 2 -73 -28 -18 -33 -36 -10 -36 9 0 14 -8 12
-21 -1 -12 4 -24 11 -26 7 -3 12 4 12 16 0 11 5 23 10 26 18 11 11 27 -10 22
-11 -3 -18 -1 -14 4 6 11 55 12 70 1 13 -9 44 -54 44 -64 0 -5 -9 -8 -19 -8
-10 0 -35 -16 -54 -35 -39 -39 -45 -41 -71 -22 -14 10 -15 18 -7 39 7 19 6 31
-4 44 -13 18 -14 18 -33 0 -27 -24 -42 -13 -42 31 0 26 -5 36 -20 40 -26 7
-26 33 1 40 15 4 19 11 15 28 -3 12 -3 25 1 29 15 14 79 -7 106 -35z m-1167
-4 c-21 -21 -26 -19 -26 10 0 23 2 24 20 15 18 -10 19 -13 6 -25z m84 -28 c0
-8 -8 -18 -17 -22 -14 -5 -15 -3 -6 6 14 14 6 39 -13 39 -7 0 -18 -8 -23 -17
-10 -17 -10 -17 -11 0 0 11 9 21 20 24 17 5 18 8 8 22 -6 9 0 4 15 -11 15 -15
27 -34 27 -41z m620 47 c0 -2 -9 -4 -21 -4 -11 0 -18 4 -14 10 5 8 35 3 35 -6z
m536 1 c18 -15 18 -15 -5 -13 -14 2 -26 9 -29 16 -5 17 10 15 34 -3z m-1786
-26 c13 -24 13 -39 -1 -39 -16 0 -38 31 -39 52 0 22 26 13 40 -13z m470 12 c0
-6 -4 -13 -10 -16 -5 -3 -10 1 -10 9 0 9 5 16 10 16 6 0 10 -4 10 -9z m780
-11 c0 -5 -4 -10 -9 -10 -6 0 -13 5 -16 10 -3 6 1 10 9 10 9 0 16 -4 16 -10z
m-603 -22 c-3 -8 -6 -5 -6 6 -1 11 2 17 5 13 3 -3 4 -12 1 -19z m881 2 c-14
-22 -24 -19 -15 5 4 8 11 15 17 15 6 0 6 -7 -2 -20z m270 3 c2 -8 -5 -13 -17
-13 -12 0 -21 6 -21 16 0 18 31 15 38 -3z m-1374 -15 c5 -9 7 -21 3 -25 -5 -4
-12 -1 -17 7 -7 12 -9 11 -10 -5 0 -11 -1 -33 -2 -50 -2 -21 2 -30 15 -33 12
-3 17 3 17 21 0 13 3 27 8 31 7 8 9 13 11 46 0 11 6 20 12 20 5 0 7 -4 4 -10
-3 -5 1 -10 10 -10 11 0 15 5 11 15 -5 14 -1 13 25 -2 50 -29 65 -83 23 -83
-22 0 -54 -28 -54 -47 0 -7 -11 -18 -24 -23 -13 -5 -32 -23 -42 -40 -23 -38
-44 -35 -63 8 -8 17 -20 32 -27 32 -20 0 -21 52 -1 90 9 19 15 42 12 51 -10
31 70 36 89 7z m-264 -20 c0 -18 -2 -20 -9 -8 -6 8 -7 18 -5 22 9 14 14 9 14
-14z m139 -25 c-15 -32 -16 -46 -8 -91 6 -30 8 -61 6 -70 -3 -10 -5 -7 -6 9
-1 25 -33 69 -51 69 -19 0 -50 43 -40 55 6 7 5 16 -2 23 -9 9 -7 12 10 12 12
0 22 -4 22 -10 0 -5 7 -10 15 -10 8 0 15 6 15 14 0 14 41 46 51 40 4 -2 -2
-21 -12 -41z m1135 29 c-29 -23 -51 -64 -30 -56 11 4 13 0 9 -15 -7 -28 -21
-27 -29 3 -9 37 21 76 66 85 3 0 -5 -7 -16 -17z m45 -46 c-9 -8 -10 -8 -5 2 4
7 2 12 -6 12 -10 0 -10 2 0 9 8 4 13 11 13 15 -1 3 0 12 0 19 1 6 4 -1 6 -17
3 -16 -1 -34 -8 -40z m96 15 c-11 -10 -35 11 -35 30 0 21 0 21 19 -2 11 -13
18 -26 16 -28z m-932 6 c-4 -21 -8 -25 -14 -15 -6 9 -9 4 -9 -14 0 -18 5 -28
15 -28 9 0 15 9 15 25 0 14 5 25 11 25 6 0 8 -9 5 -20 -3 -11 -9 -29 -12 -40
-7 -27 11 -25 30 2 13 18 16 19 16 6 0 -28 -33 -37 -116 -32 -43 3 -80 7 -82
9 -9 9 11 25 32 25 26 0 63 45 46 55 -15 9 -12 25 3 19 7 -2 24 -1 38 4 13 6
25 9 26 8 1 0 -1 -14 -4 -29z m-617 -4 c11 -54 13 -56 29 -43 8 7 23 9 32 5
10 -3 20 -6 22 -5 2 1 8 -5 12 -13 13 -22 -9 -74 -33 -80 -14 -4 -18 -11 -14
-25 4 -12 -1 -25 -14 -37 -11 -10 -20 -24 -20 -31 0 -10 -6 -11 -27 -3 -19 7
-28 6 -33 -1 -5 -8 -9 -6 -14 5 -9 24 -7 37 4 30 6 -3 10 -2 10 4 0 5 -4 12
-9 15 -4 3 -9 33 -9 66 -1 56 1 62 24 72 15 7 20 14 13 18 -13 8 -3 50 11 50
6 0 12 -12 16 -27z m84 -24 c0 -2 -13 -4 -30 -4 -24 0 -30 4 -30 21 0 11 3 23
6 26 5 5 54 -34 54 -43z m1480 -31 l25 -16 -21 -22 -22 -22 -7 23 c-13 43 -26
52 -47 32 -18 -17 -19 -16 -8 12 8 21 8 31 1 33 -6 2 -11 11 -11 19 0 11 9 7
33 -13 18 -16 44 -36 57 -46z m-1167 47 c-3 -9 -8 -14 -10 -11 -3 3 -2 9 2 15
9 16 15 13 8 -4z m-263 -40 c0 -52 -14 -60 -24 -14 -9 47 -7 59 9 59 11 0 15
-12 15 -45z m1214 -21 c10 -30 16 -72 14 -100 -3 -43 -1 -49 17 -49 10 0 29
-15 42 -34 20 -30 21 -35 8 -54 -20 -29 -19 -41 9 -74 19 -22 22 -33 14 -46
-11 -21 -4 -47 13 -47 6 0 9 6 6 13 -3 7 3 19 13 25 15 9 21 7 34 -13 13 -20
13 -25 1 -35 -20 -16 -36 -79 -46 -170 -4 -41 -13 -115 -19 -163 -11 -77 -10
-90 3 -100 20 -16 17 -44 -11 -89 -23 -37 -25 -38 -82 -38 -63 0 -86 13 -94
53 -3 12 -8 42 -13 66 -4 25 -14 46 -20 49 -20 6 -16 -40 7 -93 21 -49 26 -76
11 -60 -14 16 -41 106 -41 137 0 16 6 37 12 48 11 17 9 30 -8 77 -11 31 -29
61 -39 67 -44 24 -66 89 -66 194 -1 45 -5 82 -10 82 -16 0 -10 -172 6 -204 8
-15 15 -34 15 -41 0 -6 14 -26 30 -44 42 -43 48 -65 48 -157 1 -98 19 -152 61
-179 30 -19 32 -23 27 -67 -3 -27 -1 -48 5 -50 15 -5 1 -50 -26 -84 l-23 -29
-279 4 c-153 1 -359 4 -458 5 l-180 1 -18 40 c-11 21 -23 64 -27 95 -5 30 -20
88 -34 129 -46 133 -33 282 35 384 50 76 88 99 166 103 64 4 102 14 50 14 -14
0 -29 5 -33 11 -5 8 5 9 34 4 24 -4 49 -2 61 5 17 9 21 8 21 -5 0 -13 10 -14
60 -9 35 3 60 2 60 -4 0 -5 -13 -26 -30 -47 -30 -37 -113 -200 -146 -285 -24
-61 -29 -65 -59 -52 -22 10 -26 9 -39 -17 -19 -36 -12 -62 24 -86 16 -11 33
-30 39 -42 6 -13 19 -23 30 -23 23 0 52 36 45 55 -7 17 17 62 60 114 20 23 41
61 47 84 6 23 20 48 31 56 39 27 89 74 84 78 -3 3 -32 -18 -64 -46 -44 -38
-62 -61 -66 -86 -4 -18 -26 -57 -50 -87 -24 -29 -47 -63 -50 -75 -4 -13 -12
-23 -17 -23 -5 0 -7 -11 -3 -24 4 -16 1 -25 -10 -29 -16 -7 -36 20 -30 38 3 6
-10 15 -28 20 -26 8 -34 16 -36 38 -2 15 2 27 8 27 6 0 8 -4 5 -10 -7 -12 12
-50 25 -50 6 0 10 7 10 16 0 8 -4 13 -9 10 -5 -3 -11 8 -13 24 -3 17 -2 30 1
30 11 0 28 -15 39 -35 11 -20 11 -20 12 0 0 12 9 38 20 60 11 22 20 44 20 50
0 6 16 43 35 82 19 39 35 74 35 78 0 4 24 42 53 84 30 42 56 86 59 97 6 25
-22 144 -47 197 -16 34 -39 48 -47 29 -2 -4 -30 -29 -63 -54 -42 -33 -85 -55
-138 -72 -43 -14 -91 -36 -108 -50 -27 -23 -67 -27 -53 -5 3 5 -2 6 -10 3 -9
-3 -14 -10 -11 -14 3 -5 -5 -6 -16 -3 -21 6 -21 6 2 25 l24 19 -30 -6 c-30 -5
-29 -5 5 11 27 13 39 13 53 4 30 -18 31 -5 1 14 -31 21 -26 31 8 16 22 -10 33
-6 94 32 38 23 108 83 157 132 77 78 92 90 135 97 50 9 86 24 114 47 15 12 19
12 33 -2 20 -20 31 -20 85 -1 33 12 52 12 88 4 45 -10 215 -5 256 7 12 4 17 2
14 -7 -2 -7 -38 -24 -79 -39 -41 -14 -93 -36 -116 -48 -23 -12 -51 -22 -62
-22 -28 0 -53 -29 -47 -54 3 -12 -3 -35 -13 -51 -9 -17 -20 -39 -23 -50 -41
-138 -48 -169 -42 -204 4 -26 2 -41 -6 -46 -10 -6 -12 0 -7 26 l7 34 -19 -25
c-16 -20 -21 -22 -35 -11 -18 15 -22 1 -5 -16 8 -8 6 -21 -9 -50 -11 -21 -23
-58 -26 -83 -2 -25 -8 -62 -12 -82 -4 -22 -3 -38 3 -38 9 0 33 98 33 141 1 26
38 113 39 91 1 -7 14 -32 30 -56 16 -23 29 -50 28 -59 -2 -21 15 -23 28 -3 6
10 4 26 -8 51 -13 28 -14 39 -5 54 6 11 18 17 25 14 7 -3 13 2 13 11 0 9 9 21
20 28 11 7 20 18 20 25 0 7 9 22 20 33 27 27 25 70 -5 130 -26 51 -32 104 -15
130 7 11 10 4 10 -27 0 -44 28 -123 43 -123 5 0 6 -10 2 -22 -6 -22 -6 -22 9
-4 9 11 16 24 16 29 0 4 5 5 10 2 16 -10 40 14 40 40 0 18 4 22 21 18 15 -4
31 5 60 36 25 25 45 39 52 34 8 -5 6 -9 -6 -11 -11 -2 -16 -9 -13 -18 3 -8 -1
-14 -9 -14 -8 0 -15 -7 -15 -15 0 -22 10 -19 47 17 39 38 39 38 13 68 -24 27
-26 67 -5 117 8 19 15 45 15 58 0 24 10 39 20 28 3 -5 14 -31 24 -59z m-1395
35 c-16 -10 -23 -4 -14 10 3 6 11 8 17 5 6 -4 5 -9 -3 -15z m2056 12 c3 -5 1
-12 -4 -15 -5 -3 -11 1 -15 9 -6 16 9 21 19 6z m-27 -50 c3 -8 -1 -12 -9 -9
-7 2 -15 10 -17 17 -3 8 1 12 9 9 7 -2 15 -10 17 -17z m-1804 -6 c3 -9 0 -15
-9 -15 -8 0 -15 7 -15 15 0 8 4 15 9 15 5 0 11 -7 15 -15z m1460 -42 c-8 -27
-13 -55 -11 -63 3 -8 8 0 12 18 4 17 11 32 15 32 18 0 104 -109 136 -171 75
-150 94 -320 55 -482 -21 -83 -95 -246 -131 -287 -47 -53 -111 -163 -107 -182
3 -12 0 -18 -10 -18 -10 0 -14 6 -10 20 4 16 -2 22 -34 30 -21 6 -39 16 -39
21 0 7 8 8 18 4 35 -13 77 -18 67 -7 -5 5 -19 12 -30 15 -14 3 -11 5 10 6 l30
2 -38 14 c-46 16 -51 20 -42 34 4 7 16 6 36 -5 17 -8 36 -13 42 -11 7 3 -7 13
-30 22 -27 12 -40 22 -36 31 4 11 10 10 32 -4 32 -23 61 -34 61 -24 0 4 -18
17 -40 30 -22 12 -40 27 -40 33 0 6 21 -1 46 -15 52 -29 54 -30 54 -17 0 5
-13 14 -30 21 -46 19 -54 34 -35 70 18 35 8 37 90 -16 14 -9 28 -14 32 -10 3
3 4 7 2 9 -2 2 -23 15 -46 30 -24 15 -43 32 -43 37 0 14 6 13 56 -15 49 -27
54 -29 54 -17 0 4 -20 18 -45 30 -25 12 -45 27 -45 33 0 6 20 -1 44 -15 25
-14 53 -26 63 -26 10 1 -2 11 -29 25 -26 14 -50 30 -53 36 -14 22 7 22 50 1
51 -25 55 -26 55 -13 0 5 -15 15 -34 21 -19 6 -40 18 -47 26 -11 13 -9 14 17
8 28 -6 28 -6 9 9 -29 23 -8 21 31 -4 19 -11 34 -16 34 -10 0 6 -15 21 -32 32
-32 20 -19 22 27 3 18 -7 18 -6 6 9 -7 9 -28 21 -45 27 -30 9 -30 9 12 7 47
-3 57 9 15 19 -48 10 -50 14 -5 9 28 -4 41 -2 37 5 -3 5 -14 10 -23 10 -9 0
-24 5 -32 11 -11 8 -4 9 28 5 49 -7 50 8 2 19 -43 9 -37 25 10 25 22 0 40 5
40 10 0 6 -18 10 -41 10 -24 0 -38 4 -34 10 3 6 21 10 40 10 50 0 52 18 3 22
l-43 4 42 8 c24 5 40 13 37 18 -4 6 -20 7 -36 4 -18 -3 -27 -2 -23 4 3 6 19
10 36 10 16 0 29 5 29 11 0 7 -14 10 -35 7 -48 -6 -44 10 5 18 22 4 37 11 34
16 -4 5 -22 7 -40 3 -21 -3 -34 -2 -34 5 0 5 11 10 24 10 38 0 42 20 4 21
l-33 1 32 11 c50 19 53 31 6 23 -49 -7 -59 9 -13 19 43 9 38 27 -5 19 -21 -4
-35 -2 -35 4 0 5 14 12 30 16 17 3 30 10 30 16 0 6 -10 8 -25 4 -14 -3 -33 -3
-42 1 -16 6 -14 9 10 21 15 8 27 19 27 24 0 13 -7 13 -32 -1 -11 -6 -22 -8
-25 -6 -3 3 8 12 23 20 15 8 22 17 16 21 -13 8 -42 -3 -42 -16 0 -5 -5 -6 -11
-2 -7 4 -1 15 17 30 16 13 23 23 17 24 -7 0 -13 7 -13 15 0 14 -3 14 -30 0
-35 -18 -41 -5 -7 18 12 8 19 18 15 22 -4 4 -18 1 -31 -8 -21 -14 -26 -14 -39
-1 -12 13 -19 13 -42 2 -25 -11 -30 -10 -42 7 -28 38 -18 57 56 108 19 13 38
22 42 20 3 -1 0 -24 -8 -50z m406 42 c0 -8 -7 -15 -15 -15 -8 0 -15 7 -15 15
0 8 7 15 15 15 8 0 15 -7 15 -15z m-1330 1 c0 -3 -4 -8 -10 -11 -5 -3 -10 -1
-10 4 0 6 5 11 10 11 6 0 10 -2 10 -4z m725 -18 c7 -7 2 -8 -15 -4 -24 7 -24
6 -6 -8 28 -22 12 -32 -19 -12 -35 23 -34 50 3 41 15 -3 32 -11 37 -17z m405
2 c0 -5 -9 -10 -21 -10 -11 0 -17 5 -14 10 3 6 13 10 21 10 8 0 14 -4 14 -10z
m71 -3 c-1 -12 -15 -9 -19 4 -3 6 1 10 8 8 6 -3 11 -8 11 -12z m89 -8 c0 -11
-30 -12 -48 0 -9 5 -3 8 17 9 17 0 31 -4 31 -9z m-1775 -9 c3 -5 1 -10 -4 -10
-6 0 -11 5 -11 10 0 6 2 10 4 10 3 0 8 -4 11 -10z m365 -4 c0 -11 -9 -13 -35
-9 -33 5 -35 4 -35 -21 0 -30 11 -33 35 -10 9 9 19 13 22 10 17 -16 -160 -166
-196 -166 -6 0 -11 20 -11 45 0 25 -5 45 -11 45 -6 0 -9 -21 -8 -57 3 -68 -12
-85 -61 -66 -32 12 -44 5 -34 -21 4 -10 1 -16 -9 -16 -15 0 -27 46 -27 108 0
17 -4 32 -10 32 -6 0 -10 -30 -10 -70 0 -38 -4 -70 -9 -70 -9 0 -21 71 -21
121 0 16 -3 29 -7 29 -5 0 -8 -33 -8 -73 0 -41 -4 -71 -10 -69 -5 1 -8 39 -6
87 2 56 -1 85 -8 85 -7 0 -11 -26 -11 -69 0 -78 -6 -101 -26 -101 -10 0 -14
16 -15 58 -1 31 -3 49 -6 40 -2 -10 -8 -18 -13 -18 -9 0 -5 89 4 97 7 7 322 7
334 -1 6 -4 12 -23 12 -42 0 -40 20 -47 21 -6 0 15 3 21 6 15 8 -22 23 -14 23
13 0 21 -4 25 -20 21 -11 -3 -20 -1 -20 4 0 5 16 9 35 9 48 0 50 -1 48 -11 -2
-5 2 -9 7 -9 16 0 1 73 -18 88 -13 10 -6 12 41 12 43 0 57 -4 57 -14z m626
-10 c-8 -14 -20 -46 -26 -72 -11 -49 -50 -112 -50 -80 0 9 9 29 19 44 23 31
41 109 22 98 -6 -4 -11 -17 -11 -28 0 -12 -3 -19 -6 -15 -12 12 6 59 21 54 7
-3 19 1 25 9 20 23 24 16 6 -10z m-1049 -16 c1 -14 0 -18 -3 -7 -3 9 -9 17
-14 17 -5 0 -10 -8 -12 -17 -3 -12 -6 -9 -10 10 -5 24 -3 28 16 25 14 -2 22
-11 23 -28z m283 5 c0 -14 -2 -25 -4 -25 -2 0 -6 11 -8 25 -3 14 -1 25 3 25 5
0 9 -11 9 -25z m801 -16 c-6 -24 -9 -28 -10 -12 -1 24 9 56 16 50 2 -3 0 -20
-6 -38z m267 18 c5 -24 -15 -21 -21 4 -3 13 -1 19 6 16 7 -2 13 -11 15 -20z
m422 11 c0 -4 -4 -8 -10 -8 -5 0 -10 -7 -10 -16 0 -8 5 -12 10 -9 6 4 10 -6 9
-22 0 -25 -1 -26 -9 -8 -5 11 -9 15 -9 8 -1 -6 -4 -19 -8 -29 -5 -14 -2 -16
21 -12 19 4 29 0 37 -13 7 -15 6 -17 -6 -13 -12 5 -15 -3 -15 -45 0 -29 -5
-51 -11 -51 -6 0 -9 18 -7 43 4 57 -15 64 -23 7 l-6 -45 -1 43 c-2 43 -21 60
-23 20 l-2 -23 -4 23 c-6 31 -21 28 -26 -5 -4 -27 -4 -27 -6 3 -1 29 -5 32
-42 38 -57 9 -46 14 33 17 l66 2 5 41 c3 23 2 45 -4 51 -5 5 -9 0 -10 -15 l0
-25 -9 23 c-8 19 -13 21 -29 12 -11 -5 -27 -7 -35 -4 -12 4 -16 0 -17 -17 l-2
-24 -4 23 c-4 19 -7 21 -19 11 -17 -14 -19 2 -2 19 14 14 168 14 168 0z m-806
-33 c-13 -19 -15 -37 -10 -79 7 -56 0 -106 -15 -106 -13 0 -11 155 3 185 6 14
17 25 25 25 11 0 10 -5 -3 -25z m314 -15 c7 -11 9 -20 5 -20 -11 0 -73 44 -73
52 0 14 56 -13 68 -32z m17 29 c11 -17 -1 -21 -15 -4 -8 9 -8 15 -2 15 6 0 14
-5 17 -11z m527 -16 c-3 -16 -7 -22 -10 -15 -4 13 4 42 11 42 2 0 2 -12 -1
-27z m35 -5 c-3 -7 -5 -2 -5 12 0 14 2 19 5 13 2 -7 2 -19 0 -25z m-1783 6 c3
-8 2 -12 -4 -9 -6 3 -10 10 -10 16 0 14 7 11 14 -7z m-164 -4 c0 -5 -5 -10
-11 -10 -5 0 -7 5 -4 10 3 6 8 10 11 10 2 0 4 -4 4 -10z m1784 -22 c4 -17 2
-28 -4 -28 -5 0 -10 14 -10 32 0 36 4 35 14 -4z m-779 1 c-4 -12 -7 -54 -6
-93 0 -59 -2 -68 -11 -51 -16 26 -15 114 0 143 16 28 25 29 17 1z m415 5 c0
-8 -5 -12 -10 -9 -6 4 -8 11 -5 16 9 14 15 11 15 -7z m-283 -31 c-3 -10 -5 -4
-5 12 0 17 2 24 5 18 2 -7 2 -21 0 -30z m-70 5 c-3 -8 -6 -5 -6 6 -1 11 2 17
5 13 3 -3 4 -12 1 -19z m296 0 c12 -6 27 -18 34 -27 14 -19 17 -77 4 -85 -5
-4 -7 3 -4 14 7 25 -20 67 -53 82 -24 11 -33 28 -13 28 6 0 20 -5 32 -12z
m187 -33 c10 -12 10 -15 -3 -15 -8 0 -17 7 -21 15 -3 8 -2 15 3 15 5 0 14 -7
21 -15z m410 11 c0 -2 -3 -11 -6 -20 -5 -13 -8 -13 -20 -1 -19 19 -18 25 6 25
11 0 20 -2 20 -4z m-2051 -88 c-1 -52 -3 -66 -9 -48 -12 36 -12 120 0 120 6 0
10 -30 9 -72z m1469 37 c-3 -3 -9 2 -12 12 -6 14 -5 15 5 6 7 -7 10 -15 7 -18z
m151 -13 c0 -24 -1 -25 -9 -7 -12 28 -12 47 0 40 6 -3 10 -18 9 -33z m-1571
-20 c2 -32 0 -42 -12 -42 -10 0 -14 12 -14 45 1 58 22 55 26 -3z m658 -37 c5
-20 4 -26 -5 -21 -6 4 -11 17 -11 29 0 30 -11 43 -37 44 -20 2 -22 -3 -19 -43
2 -31 -1 -44 -11 -44 -8 0 -13 12 -13 31 0 17 -4 28 -10 24 -5 -3 -10 -18 -10
-32 0 -26 0 -26 -18 -7 -18 18 -17 19 7 40 14 12 42 31 61 43 l35 21 12 -29
c7 -15 15 -41 19 -56z m951 58 c-15 -16 -17 -16 -17 -1 0 9 6 18 13 21 20 7
22 -2 4 -20z m-1700 -50 c-2 -16 -4 -5 -4 22 0 28 2 40 4 28 2 -13 2 -35 0
-50z m1560 30 c-3 -10 -5 -4 -5 12 0 17 2 24 5 18 2 -7 2 -21 0 -30z m50 -18
c-8 -35 -7 -59 2 -98 20 -80 19 -128 -6 -162 -12 -16 -24 -48 -28 -69 -4 -22
-15 -58 -25 -80 -10 -23 -23 -61 -28 -86 -10 -44 -10 -44 -11 -10 -1 20 6 62
14 93 8 32 15 72 15 88 0 38 28 136 41 144 13 9 10 56 -5 84 -14 25 -7 74 14
95 5 5 10 21 10 34 0 13 4 21 9 18 4 -3 4 -26 -2 -51z m470 18 c-3 -10 -5 -4
-5 12 0 17 2 24 5 18 2 -7 2 -21 0 -30z m-309 -76 c-2 -1 -12 -7 -23 -13 -16
-9 -22 -8 -31 4 -9 13 -7 20 10 34 17 14 18 17 5 18 -12 0 -15 7 -11 27 5 25
6 24 29 -21 13 -27 23 -49 21 -49z m-1661 61 c-3 -8 -6 -5 -6 6 -1 11 2 17 5
13 3 -3 4 -12 1 -19z m1403 18 c0 -2 -8 -10 -17 -17 -16 -13 -17 -12 -4 4 13
16 21 21 21 13z m417 -18 c-3 -8 -6 -5 -6 6 -1 11 2 17 5 13 3 -3 4 -12 1 -19z
m-1213 -20 c6 -30 2 -47 -9 -36 -11 10 -17 68 -7 68 5 0 12 -14 16 -32z m365
-88 c1 -14 -4 -32 -10 -40 -9 -12 -10 -10 -6 8 3 13 -1 45 -9 70 -7 26 -14 54
-13 62 0 24 38 -73 38 -100z m593 98 c-16 -16 -15 -26 3 -30 10 -2 12 -8 6
-17 -7 -11 -11 -10 -20 7 -12 23 -5 52 12 52 7 0 7 -4 -1 -12z m-638 -45 c18
-52 20 -73 8 -73 -4 0 -13 19 -19 43 -7 23 -15 50 -18 60 -4 9 -3 17 3 17 6 0
17 -21 26 -47z m487 7 c5 0 9 -7 9 -15 0 -12 -4 -11 -20 5 -13 13 -17 26 -12
37 6 16 7 15 10 -4 2 -13 8 -23 13 -23z m447 -37 l-1 -58 -7 55 c-6 51 -7 53
-17 30 -11 -24 -12 -24 -12 -3 -1 14 -9 23 -23 26 -13 2 -4 5 20 6 l42 1 -2
-57z m111 30 c-1 -17 -3 -21 -6 -10 -2 9 -9 17 -14 17 -5 0 -10 -8 -10 -17 -1
-17 -2 -17 -6 0 -2 9 -13 17 -24 17 -16 0 -19 -8 -21 -57 l-2 -58 -3 54 c-5
73 -1 81 47 81 37 0 40 -2 39 -27z m-1499 7 c0 -5 -3 -9 -7 -9 -30 5 -41 -3
-36 -23 4 -19 3 -20 -6 -8 -10 13 -12 13 -21 0 -6 -10 -10 -11 -10 -2 0 6 -4
12 -10 12 -5 0 -10 -13 -10 -30 0 -30 14 -41 23 -17 4 7 6 6 6 -4 1 -16 -18
-29 -40 -29 -5 0 -8 19 -8 43 2 43 3 43 53 59 65 20 66 20 66 8z m167 -58 c-9
-20 -9 -26 1 -30 17 -5 15 -22 -4 -22 -12 0 -14 9 -10 48 2 26 5 49 5 52 1 3
5 -1 10 -9 6 -9 5 -24 -2 -39z m268 -16 c15 -54 15 -67 4 -87 -13 -23 -14 -22
-20 26 -3 28 -9 67 -13 88 -14 64 10 42 29 -27z m630 26 c-8 -8 -25 10 -25 26
0 13 2 13 14 -4 8 -10 13 -21 11 -22z m-1483 -18 c2 -24 0 -44 -4 -44 -5 0 -8
16 -8 35 0 52 -18 42 -22 -12 -2 -28 -8 -48 -17 -51 -10 -3 -12 3 -6 27 4 20
3 31 -4 31 -6 0 -11 -9 -11 -21 0 -11 -4 -17 -10 -14 -5 3 -10 15 -10 26 0 10
-4 19 -10 19 -5 0 -10 -16 -10 -35 0 -19 -4 -35 -10 -35 -5 0 -10 18 -10 40 0
22 -4 40 -10 40 -5 0 -10 -19 -10 -42 0 -23 -3 -39 -6 -36 -3 3 -5 29 -6 57 0
28 -4 48 -9 45 -5 -3 -9 -1 -9 4 0 6 40 10 89 10 l89 1 4 -45z m87 34 c-5 -37
3 -48 41 -58 24 -6 40 -17 40 -25 0 -20 -10 -19 -26 3 -13 16 -13 16 -14 -3
-1 -17 -3 -17 -12 5 -11 25 -11 25 -15 3 -3 -13 -9 -23 -15 -23 -5 0 -8 7 -4
15 3 8 1 15 -4 15 -6 0 -10 15 -10 33 -1 31 -1 31 -16 12 -9 -12 -13 -31 -10
-47 3 -16 1 -28 -4 -28 -11 0 -14 69 -4 94 7 19 56 22 53 4z m409 0 c7 -7 12
-27 12 -46 0 -30 -2 -33 -15 -22 -8 7 -15 25 -15 41 0 16 -5 29 -11 29 -7 0
-9 -10 -7 -25 3 -14 1 -25 -3 -25 -5 0 -9 14 -9 30 0 22 5 30 18 30 10 0 23
-5 30 -12z m-214 -33 c-4 -21 -2 -41 5 -49 9 -11 6 -15 -16 -19 -38 -7 -51 1
-55 31 -2 20 5 33 26 50 41 30 48 28 40 -13z m114 -16 c-17 -11 -30 -7 -37 12
-4 12 -2 12 12 0 15 -12 17 -11 17 6 0 29 14 39 18 13 2 -13 -2 -27 -10 -31z
m1230 -51 c8 -150 -28 -276 -120 -421 -30 -47 -50 -56 -56 -24 -2 11 3 14 20
11 20 -4 21 -3 6 7 -14 11 -14 15 -1 35 9 15 21 21 31 17 14 -5 15 -3 5 8 -19
19 -16 29 10 30 12 0 16 3 10 6 -18 7 -16 23 3 23 11 0 14 5 10 17 -4 9 -2 20
5 23 7 5 8 10 1 14 -15 9 -144 -226 -216 -397 -19 -44 -23 -112 -5 -87 9 12
10 11 6 -7 -3 -13 -1 -23 5 -23 6 0 8 14 6 32 -6 41 9 101 24 92 6 -4 8 1 3
15 -5 17 -3 20 12 14 15 -5 16 -3 6 8 -16 17 -17 33 -1 23 8 -5 9 -2 5 9 -4
12 -1 17 10 17 13 0 14 2 2 17 -12 15 -12 16 4 10 20 -7 22 3 5 22 -11 11 -9
12 10 6 23 -7 32 10 10 18 -7 2 -10 7 -7 11 3 3 13 4 22 0 14 -5 12 -14 -13
-67 -54 -118 -62 -144 -59 -191 l4 -46 -42 0 c-33 0 -45 5 -54 22 -9 16 -9 23
0 26 6 2 11 8 11 13 0 4 -7 6 -15 3 -8 -4 -15 -1 -15 5 0 6 10 11 23 11 20 1
20 2 5 11 -22 12 -24 33 -3 26 8 -4 17 -2 20 3 4 6 -1 10 -9 10 -9 0 -16 4
-16 10 0 5 7 7 15 4 19 -8 19 3 1 22 -13 12 -17 7 -32 -41 -18 -57 -37 -75
-29 -27 2 15 7 44 10 65 5 29 12 40 33 48 15 6 35 18 44 26 15 13 18 13 18 2
1 -8 9 9 18 36 10 28 37 81 60 119 47 78 76 150 87 215 7 42 8 43 38 37 19 -4
28 -3 22 3 -6 5 -19 11 -30 13 -12 2 -21 13 -23 27 -3 22 -1 23 37 19 48 -4
56 8 9 14 -18 3 -42 9 -52 13 -13 6 -17 5 -13 -2 4 -6 1 -13 -5 -16 -10 -4
-11 -7 0 -18 6 -7 12 -21 12 -31 0 -15 -3 -17 -19 -8 -32 16 -38 11 -11 -10
14 -10 21 -22 17 -26 -4 -4 -13 -2 -19 4 -17 17 -33 15 -18 -3 7 -8 19 -15 26
-15 8 0 14 -4 14 -10 0 -5 -6 -10 -14 -10 -8 0 -18 5 -21 10 -8 12 -25 13 -25
2 0 -5 12 -15 28 -22 22 -11 24 -14 9 -18 -24 -5 -47 15 -47 42 0 12 13 48 29
81 39 83 40 86 24 118 -15 30 -9 53 7 27 5 -8 32 -20 60 -26 l51 -11 -1 36
c-3 52 -1 56 12 43 6 -6 14 -49 16 -94z m-1078 52 c0 -16 -4 -30 -10 -30 -5 0
-10 14 -10 30 0 17 5 30 10 30 6 0 10 -13 10 -30z m1040 5 c0 -13 -4 -14 -20
-5 -11 6 -20 13 -20 15 0 3 9 5 20 5 11 0 20 -7 20 -15z m-50 -5 c0 -5 -5 -10
-11 -10 -5 0 -7 5 -4 10 3 6 8 10 11 10 2 0 4 -4 4 -10z m357 -12 c-3 -8 -6
-5 -6 6 -1 11 2 17 5 13 3 -3 4 -12 1 -19z m-1703 -4 c18 -18 21 -34 6 -34 -5
0 -10 7 -10 15 0 7 -8 19 -17 24 -10 6 -13 11 -6 11 6 0 19 -7 27 -16z m625
-58 c-5 -6 -9 7 -8 35 l1 44 8 -35 c5 -20 5 -39 -1 -44z m971 54 c0 -5 -7 -10
-15 -10 -8 0 -15 5 -15 10 0 6 7 10 15 10 8 0 15 -4 15 -10z m-1785 -110 c-5
-41 -4 -60 4 -60 6 0 12 17 12 38 2 33 2 34 6 7 3 -16 9 -34 14 -39 8 -9 12
24 13 102 0 21 3 22 94 22 81 0 93 -2 82 -14 -6 -8 -18 -12 -26 -9 -9 3 -14
-2 -14 -16 0 -12 -5 -21 -11 -21 -6 0 -9 7 -6 15 4 8 2 17 -3 20 -6 4 -10 -11
-10 -34 0 -23 -4 -41 -9 -41 -6 0 -7 15 -4 34 3 19 1 36 -6 40 -7 5 -11 -4
-11 -24 0 -18 -4 -29 -10 -25 -5 3 -10 13 -10 21 0 15 -23 44 -34 44 -3 0 -6
-31 -6 -69 0 -39 -5 -73 -11 -76 -6 -4 -26 -7 -45 -7 -27 0 -34 -4 -34 -19 0
-10 5 -19 11 -19 6 0 10 -19 9 -47 -4 -125 0 -173 15 -173 8 0 15 -4 15 -10 0
-5 -12 -10 -27 -10 -28 0 -28 0 -28 72 0 72 0 73 -27 76 -16 2 -28 8 -28 14 0
5 7 8 15 4 8 -3 15 0 16 7 0 7 3 36 5 65 4 41 2 52 -9 52 -19 0 -28 24 -32 85
-1 32 1 43 6 30 4 -11 8 -37 8 -57 1 -52 21 -48 23 5 2 57 2 59 18 83 12 19
15 20 28 8 11 -11 12 -29 7 -74z m1872 40 l1 -35 -7 35 c-7 35 -14 30 -24 -15
-3 -15 -5 -13 -6 8 -1 38 -21 34 -23 -5 l-1 -33 -4 33 c-2 18 -9 30 -14 27 -5
-4 -9 -1 -9 5 0 6 -4 8 -10 5 -5 -3 -10 -1 -10 5 0 7 19 10 53 8 52 -3 52 -3
54 -38z m36 -7 c-7 -71 -11 -75 -12 -10 -1 31 3 57 8 57 5 0 6 -21 4 -47z
m-2016 -48 c1 -44 -1 -63 -6 -50 -5 11 -6 37 -3 58 3 24 1 37 -7 37 -7 0 -11
-22 -11 -61 0 -37 -4 -58 -10 -54 -5 3 -10 32 -11 63 0 36 -3 50 -8 37 -10
-27 -1 -225 10 -225 5 0 10 26 11 58 l2 57 3 -57 c5 -77 23 -75 23 2 0 33 4
60 10 60 5 0 9 -31 9 -70 0 -62 -2 -70 -20 -70 -17 0 -19 -8 -21 -67 l-2 -68
-3 68 c-5 81 -23 90 -23 10 0 -31 -3 -54 -6 -51 -3 4 -7 95 -9 203 l-4 196 37
-3 37 -3 2 -70z m200 -42 c-2 -16 -4 -5 -4 22 0 28 2 40 4 28 2 -13 2 -35 0
-50z m1703 46 c0 -11 -4 -18 -10 -14 -5 3 -7 12 -3 20 7 21 13 19 13 -6z m57
-41 c-2 -13 -4 -5 -4 17 -1 22 1 32 4 23 2 -10 2 -28 0 -40z m-30 0 c-3 -7 -5
-2 -5 12 0 14 2 19 5 13 2 -7 2 -19 0 -25z m60 0 c-3 -8 -6 -5 -6 6 -1 11 2
17 5 13 3 -3 4 -12 1 -19z m-1753 -13 c-4 -8 -8 -15 -10 -15 -2 0 -4 7 -4 15
0 8 4 15 10 15 5 0 7 -7 4 -15z m1656 -97 c0 -39 -2 -69 -4 -67 -2 2 -7 37
-10 78 -5 51 -4 71 3 66 6 -3 11 -38 11 -77z m130 67 c0 -8 -4 -15 -10 -15 -5
0 -11 -15 -11 -32 l-2 -33 -6 30 c-4 19 -13 31 -23 31 -15 2 -18 -8 -20 -55
l-1 -56 -6 55 c-4 36 -10 54 -18 53 -7 -2 -13 6 -13 17 0 18 7 20 55 20 42 0
55 -3 55 -15z m-1983 -37 c-3 -7 -5 -2 -5 12 0 14 2 19 5 13 2 -7 2 -19 0 -25z
m121 -4 c0 -52 12 -55 13 -3 1 25 3 33 6 19 2 -14 6 -32 10 -40 8 -22 9 -220
1 -212 -4 4 -8 37 -10 74 -2 46 -7 68 -15 68 -7 0 -13 5 -13 10 0 6 6 10 13
10 9 0 9 2 0 8 -15 9 -29 102 -15 102 5 0 10 -16 10 -36z m55 16 c-3 -11 -7
-20 -9 -20 -2 0 -4 9 -4 20 0 11 4 20 9 20 5 0 7 -9 4 -20z m1367 -51 c0 -3
-6 -13 -13 -23 -11 -16 -17 -17 -36 -6 -13 6 -25 9 -28 6 -3 -3 6 -11 21 -17
14 -7 26 -16 26 -21 0 -5 -9 -4 -21 2 -11 6 -25 9 -32 7 -7 -2 0 -10 15 -17
22 -10 25 -16 18 -31 -10 -18 -50 -16 -50 3 0 5 9 6 20 3 11 -4 20 -2 20 4 0
6 -9 11 -21 11 -18 0 -20 4 -14 27 3 15 13 42 20 60 l14 33 30 -18 c17 -9 31
-20 31 -23z m337 4 c-3 -10 -5 -4 -5 12 0 17 2 24 5 18 2 -7 2 -21 0 -30z
m-1787 -19 c0 -27 -4 -43 -10 -39 -17 11 -11 85 7 85 2 0 3 -21 3 -46z m1847
-21 c-2 -16 -4 -5 -4 22 0 28 2 40 4 28 2 -13 2 -35 0 -50z m-1940 25 c-3 -8
-6 -5 -6 6 -1 11 2 17 5 13 3 -3 4 -12 1 -19z m1823 -34 c0 -14 -4 -23 -9 -20
-5 3 -7 15 -4 26 7 28 13 25 13 -6z m-1831 -71 c0 -32 -3 -52 -6 -45 -7 18
-23 4 -23 -21 0 -16 -3 -18 -9 -8 -10 15 -3 51 10 51 5 0 9 15 9 33 0 30 6 47
17 47 2 0 3 -26 2 -57z m31 0 c-1 -38 -4 -53 -9 -43 -5 8 -8 26 -6 40 1 14 3
33 4 43 0 9 3 17 6 17 3 0 5 -26 5 -57z m100 -32 c0 -73 -12 -57 -17 21 -3 45
-1 59 7 48 5 -8 10 -39 10 -69z m1849 60 c9 -6 10 -11 2 -15 -13 -8 -12 -214
1 -222 4 -3 8 -20 7 -37 0 -29 -1 -30 -9 -9 -5 12 -14 22 -19 22 -6 0 -8 -7
-5 -15 5 -12 -5 -15 -55 -15 -34 0 -61 4 -61 10 0 6 8 10 18 11 14 0 14 2 -3
9 -13 6 -15 9 -5 9 13 1 13 2 0 11 -20 13 -13 16 55 27 l60 10 -65 8 c-57 8
-61 10 -31 15 49 7 51 28 4 33 -26 2 -19 4 25 5 l62 2 0 60 c0 71 -17 81 -23
13 l-3 -48 -2 53 c-2 56 -3 57 -33 42 -14 -8 -19 -23 -21 -58 -1 -47 -1 -47
-8 13 -6 49 -8 56 -15 36 -8 -23 -9 -24 -16 -5 -5 12 -8 -1 -8 -38 -1 -32 -6
-60 -13 -64 -8 -5 -9 -2 -5 10 4 10 7 44 7 77 l0 59 73 0 c39 0 78 -4 86 -9z
m-1882 -63 c-2 -13 -4 -3 -4 22 0 25 2 35 4 23 2 -13 2 -33 0 -45z m1700 -30
c-2 -13 -4 -3 -4 22 0 25 2 35 4 23 2 -13 2 -33 0 -45z m-330 25 c-10 -22 -13
-24 -15 -9 -2 10 2 22 10 27 19 12 19 12 5 -18z m445 -25 c2 -21 0 -38 -4 -38
-4 0 -8 21 -7 48 1 52 6 48 11 -10z m-55 0 c-3 -8 -6 -5 -6 6 -1 11 2 17 5 13
3 -3 4 -12 1 -19z m-1950 -43 c0 -8 -4 -12 -9 -9 -10 7 -10 24 0 24 5 0 9 -7
9 -15z m70 -17 c-3 -7 -5 -2 -5 12 0 14 2 19 5 13 2 -7 2 -19 0 -25z m33 -98
c6 0 10 -6 10 -12 0 -7 -8 -4 -18 7 -15 16 -17 31 -13 80 l6 60 3 -67 c2 -38
7 -68 12 -68z m40 121 c0 -6 -4 -13 -10 -16 -5 -3 -10 1 -10 9 0 9 5 16 10 16
6 0 10 -4 10 -9z m67 -83 c-7 -87 -22 -83 -21 5 2 92 3 95 15 74 5 -9 8 -45 6
-79z m34 49 c5 -50 1 -77 -10 -77 -4 0 -7 27 -7 60 1 69 12 80 17 17z m-72
-74 c0 -30 -3 -53 -9 -53 -6 0 -10 33 -9 83 1 90 16 66 18 -30z m-129 70 c-1
-24 -2 -26 -11 -10 -5 9 -7 22 -4 27 10 17 15 11 15 -17z m1880 7 c0 -5 -4
-10 -10 -10 -15 0 -50 -33 -44 -42 3 -4 14 -8 25 -8 10 0 19 -5 19 -11 0 -7
-10 -9 -27 -5 -21 5 -24 4 -13 -4 8 -5 24 -10 35 -10 17 0 17 -2 5 -10 -13 -9
-13 -10 0 -10 11 -1 10 -4 -4 -15 -17 -13 -18 -15 -3 -15 9 0 17 -5 17 -11 0
-6 -9 -8 -20 -4 -28 9 -26 -13 3 -25 17 -7 18 -9 5 -9 -14 -1 -18 -11 -20 -48
l-2 -48 -3 48 c-5 60 -23 62 -23 2 0 -25 -4 -45 -10 -45 -11 0 -13 10 -10 58
3 51 -19 37 -23 -15 l-3 -48 -2 53 c-2 49 -1 52 22 52 14 0 28 5 31 10 4 6
-22 10 -69 10 -74 0 -76 1 -64 20 12 18 13 19 20 2 4 -11 7 -6 8 18 l1 35 14
-25 c13 -25 14 -24 18 20 l4 45 2 -55 3 -55 9 40 c4 22 8 57 8 78 1 21 6 37
12 37 8 0 10 -18 7 -57 -3 -32 -2 -67 3 -78 5 -13 8 8 8 57 1 64 4 77 19 81
31 8 52 7 52 -3z m53 -7 c-7 -2 -21 -2 -30 0 -10 3 -4 5 12 5 17 0 24 -2 18
-5z m-1688 -52 c-5 -24 -22 -51 -51 -80 -42 -41 -47 -43 -90 -38 -29 3 -50 12
-59 23 -7 11 -22 30 -34 43 -12 13 -21 33 -21 45 0 22 1 21 50 -43 32 -41 36
-43 73 -38 56 8 89 36 107 89 17 54 35 53 25 -1z m1622 13 c-3 -3 -12 -4 -19
-1 -8 3 -5 6 6 6 11 1 17 -2 13 -5z m71 -1 c-10 -2 -26 -2 -35 0 -10 3 -2 5
17 5 19 0 27 -2 18 -5z m-577 -46 c-8 -8 -11 -7 -11 4 0 20 13 34 18 19 3 -7
-1 -17 -7 -23z m-1380 -9 c12 -18 34 -46 48 -63 17 -19 19 -24 5 -12 -11 9
-24 17 -28 17 -11 0 -31 23 -34 40 -2 8 -13 23 -25 32 -18 15 -19 18 -5 18 9
0 27 -15 39 -32z m106 -15 c-3 -10 -5 -2 -5 17 0 19 2 27 5 18 2 -10 2 -26 0
-35z m-137 -3 c0 -5 -2 -10 -4 -10 -3 0 -8 5 -11 10 -3 6 -1 10 4 10 6 0 11
-4 11 -10z m277 -32 c-9 -21 -27 -41 -48 -51 -19 -9 -26 -17 -17 -17 24 0 78
49 94 85 13 29 13 29 14 5 0 -51 -61 -103 -135 -114 -31 -5 -51 -1 -85 16 -58
30 -120 71 -120 81 0 16 29 5 66 -24 54 -43 88 -59 121 -58 20 1 22 3 8 6 -11
2 -30 6 -42 9 -39 8 -25 24 20 24 47 0 99 27 117 60 18 33 23 16 7 -22z m1785
-13 c3 -14 2 -25 -1 -26 -3 0 -24 -2 -46 -4 -56 -6 -75 2 -75 31 0 23 3 24 59
24 55 0 59 -2 63 -25z m-254 -62 l-4 -58 -49 -3 c-38 -3 -52 1 -62 14 -17 23
-17 45 1 38 10 -4 12 1 9 19 -3 14 0 28 6 31 7 5 11 -9 11 -44 0 -32 4 -49 10
-45 6 3 10 22 10 41 0 21 4 33 10 29 6 -3 10 1 10 9 0 9 5 16 10 16 13 0 13
-57 1 -65 -5 -3 -12 3 -14 12 -4 15 -5 15 -6 -2 0 -11 8 -26 19 -33 19 -11 20
-10 20 27 0 39 8 71 17 71 2 0 3 -26 1 -57z m-1758 -2 c33 -28 33 -30 12 -31
-13 0 -20 4 -17 10 3 5 -10 20 -29 32 -20 13 -36 27 -36 31 0 11 28 -6 70 -42z
m280 29 c0 -6 -15 -19 -32 -30 -18 -11 -26 -20 -18 -20 9 0 25 7 37 15 20 14
23 14 33 -4 13 -26 8 -28 -75 -29 -58 -1 -67 1 -51 11 10 7 35 24 55 39 40 29
51 33 51 18z m1655 -45 c0 -19 -3 -35 -7 -35 -5 0 -8 16 -8 35 0 19 3 35 8 35
4 0 7 -16 7 -35z m33 0 c-1 -19 -6 -35 -11 -35 -5 0 -6 7 -3 16 3 9 6 24 6 35
0 10 2 19 5 19 3 0 5 -16 3 -35z m38 0 c-1 -46 -16 -46 -16 0 0 19 4 35 8 35
5 0 8 -16 8 -35z m31 3 c-3 -7 -5 -2 -5 12 0 14 2 19 5 13 2 -7 2 -19 0 -25z
m-2062 -16 c-8 -9 -45 11 -45 24 0 12 4 12 24 -3 13 -10 23 -20 21 -21z m1401
21 c-4 -9 -1 -20 6 -25 10 -6 8 -8 -4 -8 -18 0 -25 30 -11 43 11 12 15 8 9
-10z m194 -3 c13 -9 13 -10 0 -9 -8 0 -24 4 -35 9 l-20 9 20 0 c11 0 27 -4 35
-9z m320 -5 c4 3 10 -4 13 -15 4 -15 0 -20 -14 -20 -14 0 -19 7 -18 28 0 15 3
21 6 14 2 -6 8 -10 13 -7z m-580 -27 c0 -4 -9 -8 -21 -8 -11 0 -18 4 -15 8 3
5 12 9 21 9 8 0 15 -4 15 -9z m261 2 c6 0 8 -4 5 -9 -8 -12 -46 -2 -46 11 0 6
7 7 16 4 9 -3 20 -6 25 -6z m-301 -24 c30 -1 216 -3 412 -4 l357 -2 -4 -122
c-3 -68 -5 -128 -5 -133 0 -15 -401 -17 -781 -5 -174 5 -542 10 -817 10 -385
0 -501 3 -504 13 -1 7 -2 68 0 136 l3 123 642 -7 c353 -3 667 -8 697 -9z"/>
<path d="M1318 3223 c-10 -2 -18 -8 -18 -13 0 -4 15 -3 34 2 27 9 48 7 96 -6
34 -10 64 -15 67 -12 3 3 0 7 -8 10 -8 2 -29 9 -48 15 -34 11 -90 13 -123 4z"/>
<path d="M768 3202 c-62 -15 -90 -32 -53 -32 28 0 135 33 135 42 0 9 4 10 -82
-10z"/>
<path d="M870 3200 c-8 -5 -2 -9 16 -13 53 -10 104 -33 134 -62 27 -26 30 -35
30 -92 0 -41 4 -63 11 -63 9 0 10 20 5 70 -4 52 -12 75 -29 93 -34 37 -144 81
-167 67z"/>
<path d="M1218 3173 l-57 -25 -3 -109 c-3 -117 -2 -132 13 -123 5 3 9 44 9 91
0 98 19 142 70 163 17 7 30 16 30 21 0 11 6 13 -62 -18z"/>
<path d="M1300 3153 c-28 -6 -84 -42 -76 -50 3 -3 18 4 34 16 17 12 44 21 60
21 17 0 34 5 37 10 6 10 -10 11 -55 3z"/>
<path d="M810 3143 c0 -5 21 -8 48 -9 27 0 58 -8 75 -18 15 -10 27 -14 27 -7
0 18 -57 41 -105 41 -25 0 -45 -3 -45 -7z"/>
<path d="M754 3125 c-18 -15 -18 -15 5 -13 14 2 26 9 29 16 5 17 -10 15 -34
-3z"/>
<path d="M1388 3133 c7 -3 16 -2 19 1 4 3 -2 6 -13 5 -11 0 -14 -3 -6 -6z"/>
<path d="M785 3105 c-38 -5 -69 -14 -69 -20 2 -19 79 -48 139 -52 37 -3 75 1
99 10 44 15 59 37 26 37 -12 0 -31 5 -43 12 -39 20 -81 24 -152 13z m58 -25
c-3 -11 -1 -20 5 -20 6 0 12 9 14 21 3 18 5 19 23 6 17 -13 17 -17 5 -31 -7
-10 -24 -16 -39 -14 -20 2 -27 9 -29 31 -2 18 1 27 11 27 10 0 13 -7 10 -20z
m-43 -9 c0 -17 -3 -18 -30 -8 -26 10 -28 13 -13 19 31 12 43 9 43 -11z m154 0
c18 -7 16 -9 -12 -19 -25 -9 -32 -8 -32 2 0 25 12 30 44 17z"/>
<path d="M1262 3099 c-58 -18 -75 -36 -44 -47 7 -2 10 2 6 12 -4 10 -1 16 9
16 9 0 22 3 31 6 11 4 17 -2 22 -21 7 -27 8 -27 64 -22 31 3 70 12 86 21 33
18 28 21 -11 6 -23 -9 -26 -8 -21 6 3 8 6 18 6 20 0 3 17 2 38 -1 26 -4 31 -3
17 4 -47 21 -139 21 -203 0z m117 -3 c6 -7 9 -21 5 -30 -8 -22 -70 -22 -78 0
-10 25 -7 32 12 37 33 9 50 7 61 -7z"/>
<path d="M1331 3084 c0 -11 3 -14 6 -6 3 7 2 16 -1 19 -3 4 -6 -2 -5 -13z"/>
<path d="M1248 3053 c6 -2 18 -2 25 0 6 3 1 5 -13 5 -14 0 -19 -2 -12 -5z"/>
<path d="M1194 2875 c1 -19 6 -33 11 -32 16 5 17 43 2 55 -11 9 -13 5 -13 -23z"/>
<path d="M1005 2879 c-7 -23 18 -59 32 -45 4 4 1 11 -7 16 -12 8 -13 13 -2 30
10 17 10 20 -2 20 -8 0 -18 -10 -21 -21z"/>
<path d="M1043 2872 c-8 -5 -2 -14 18 -27 17 -11 35 -31 41 -45 l11 -25 6 25
c5 16 3 26 -5 28 -7 2 -20 14 -28 28 -18 26 -24 28 -43 16z"/>
<path d="M1143 2865 c-3 -9 -4 -17 -2 -19 8 -7 49 13 49 24 0 16 -40 12 -47
-5z"/>
<path d="M1143 2765 c-18 -13 -26 -13 -42 -3 -17 10 -27 10 -53 -1 -18 -7 -44
-14 -58 -15 -16 -1 -26 -8 -28 -21 -2 -14 0 -16 6 -7 10 15 250 24 295 11 15
-4 27 -4 27 1 0 13 -19 22 -59 30 -20 4 -43 10 -51 14 -8 3 -25 -1 -37 -9z"/>
<path d="M1058 2705 c-3 -4 -1 -16 5 -29 10 -20 19 -24 57 -23 38 1 48 5 57
24 10 20 8 23 -7 23 -11 0 -22 -4 -25 -10 -9 -15 -46 -12 -65 5 -9 8 -19 13
-22 10z"/>
<path d="M1915 3200 c-3 -5 -2 -10 4 -10 5 0 13 5 16 10 3 6 2 10 -4 10 -5 0
-13 -4 -16 -10z"/>
<path d="M1925 3170 c-3 -5 -2 -10 4 -10 5 0 13 5 16 10 3 6 2 10 -4 10 -5 0
-13 -4 -16 -10z"/>
<path d="M1936 3141 c-4 -7 -5 -15 -2 -18 9 -9 19 4 14 18 -4 11 -6 11 -12 0z"/>
<path d="M1832 2713 c-13 -14 -21 -27 -18 -30 6 -6 45 37 46 50 0 10 -2 8 -28
-20z"/>
<path d="M1835 2670 c-16 -17 -24 -30 -19 -30 13 0 59 48 52 55 -2 3 -17 -9
-33 -25z"/>
<path d="M2050 2675 c-19 -14 -32 -25 -28 -25 10 0 98 41 98 45 0 13 -39 1
-70 -20z"/>
<path d="M1835 2619 c-11 -17 1 -21 15 -4 8 9 8 15 2 15 -6 0 -14 -5 -17 -11z"/>
<path d="M1855 2590 c-10 -11 -16 -22 -13 -25 3 -3 13 4 23 15 10 11 16 22 13
25 -3 3 -13 -4 -23 -15z"/>
<path d="M1785 2549 c-4 -6 -5 -12 -2 -15 2 -3 7 2 10 11 7 17 1 20 -8 4z"/>
<path d="M1856 2544 c-9 -25 -2 -26 17 -4 13 16 14 20 3 20 -8 0 -17 -7 -20
-16z"/>
<path d="M1796 2523 c-6 -14 -5 -15 5 -6 7 7 10 15 7 18 -3 3 -9 -2 -12 -12z"/>
<path d="M1873 2513 c-19 -27 -21 -59 -3 -48 5 3 7 13 4 23 -4 11 -3 13 3 5 6
-8 13 -8 27 3 19 13 19 14 2 14 -15 0 -16 3 -6 15 7 8 8 15 3 15 -5 0 -18 -12
-30 -27z"/>
<path d="M1800 2495 c-7 -9 -8 -15 -2 -15 5 0 12 7 16 15 3 8 4 15 2 15 -2 0
-9 -7 -16 -15z"/>
<path d="M1889 2463 l-24 -26 27 19 c15 10 28 22 28 27 0 12 -5 8 -31 -20z"/>
<path d="M1810 2465 c-7 -9 -11 -18 -8 -20 3 -3 11 1 18 10 7 9 11 18 8 20 -3
3 -11 -1 -18 -10z"/>
<path d="M1832 2325 c2 -25 0 -45 -4 -45 -5 0 -8 12 -8 28 0 34 -14 59 -24 43
-4 -6 -5 -19 -2 -29 9 -28 -8 -74 -32 -83 -21 -8 -22 -6 -22 47 0 32 -4 53 -9
49 -12 -7 -12 -86 0 -101 7 -8 -5 -15 -37 -23 -26 -7 -64 -21 -85 -31 -21 -11
-42 -20 -47 -20 -5 0 -5 32 0 72 9 72 4 127 -10 113 -4 -4 -7 -21 -8 -38 -2
-167 -1 -162 -40 -181 -20 -9 -38 -15 -40 -14 -2 2 3 51 11 108 14 93 14 122
0 109 -9 -10 -26 -149 -23 -191 3 -42 1 -44 -59 -96 -35 -29 -68 -62 -73 -72
-10 -19 -11 -19 -43 0 -18 11 -46 33 -62 50 -16 16 -37 30 -48 30 -15 0 -10
-9 24 -39 24 -22 58 -45 74 -52 17 -7 31 -13 33 -15 2 -1 -9 -27 -25 -58 -30
-62 -39 -65 -102 -40 -22 9 -46 14 -53 12 -7 -3 18 -15 55 -29 56 -20 67 -28
67 -46 0 -26 -18 -29 -82 -14 -21 5 -38 5 -38 1 0 -13 109 -35 119 -24 5 5 13
30 19 55 28 114 75 181 182 264 68 52 148 94 250 130 76 27 139 60 152 79 12
17 9 96 -3 96 -7 0 -10 -17 -7 -45z"/>
<path d="M1759 2350 c-5 -52 -3 -100 6 -97 14 5 19 77 6 90 -6 6 -11 9 -12 7z"/>
<path d="M1506 2273 c-3 -38 -9 -83 -12 -100 -4 -20 -2 -33 4 -33 11 0 32 106
32 163 0 63 -17 41 -24 -30z"/>
<path d="M1420 2278 c0 -24 -5 -60 -11 -81 -10 -39 -4 -117 10 -117 4 0 8 24
8 53 0 28 4 82 8 120 6 48 5 67 -4 67 -6 0 -11 -17 -11 -42z"/>
<path d="M1688 2274 c-3 -44 2 -61 16 -47 9 10 7 93 -3 93 -5 0 -11 -21 -13
-46z"/>
<path d="M1594 2279 c3 -17 6 -42 6 -56 0 -14 4 -21 10 -18 19 12 8 105 -12
105 -6 0 -8 -13 -4 -31z"/>
<path d="M1640 2260 c0 -56 16 -68 22 -17 4 40 -1 67 -13 67 -5 0 -9 -22 -9
-50z"/>
<path d="M1363 2233 c-13 -78 -7 -137 14 -155 13 -10 14 -6 7 28 -9 47 -9 43
0 127 4 37 4 67 -1 67 -5 0 -14 -30 -20 -67z"/>
<path d="M1315 2207 c-8 -63 7 -126 35 -152 25 -22 26 -4 3 32 -13 19 -17 46
-17 100 1 85 -12 97 -21 20z"/>
<path d="M1260 2152 c0 -39 6 -58 30 -90 17 -23 35 -42 40 -42 15 0 12 16 -6
31 -26 21 -44 66 -44 109 0 22 -4 40 -10 40 -5 0 -10 -22 -10 -48z"/>
<path d="M1855 2173 c4 -10 10 -26 12 -35 4 -15 23 -26 23 -14 0 16 -24 66
-32 66 -6 0 -7 -8 -3 -17z"/>
<path d="M1820 2156 c0 -9 5 -26 10 -37 6 -10 7 -19 2 -19 -5 0 -14 12 -21 26
-17 38 -26 21 -11 -18 8 -18 14 -34 16 -36 1 -2 11 4 22 14 17 14 19 21 9 43
-15 37 -27 48 -27 27z"/>
<path d="M2040 2139 c7 -11 14 -18 17 -15 8 8 -5 36 -17 36 -7 0 -7 -6 0 -21z"/>
<path d="M1205 2140 c4 -6 11 -8 16 -5 14 9 11 15 -7 15 -8 0 -12 -5 -9 -10z"/>
<path d="M1199 2104 c12 -15 21 -32 21 -39 0 -17 67 -75 86 -75 9 0 0 14 -23
38 -21 20 -46 52 -55 70 -9 17 -24 32 -33 32 -14 0 -13 -4 4 -26z"/>
<path d="M1761 2120 c0 -8 6 -28 14 -45 13 -30 13 -30 14 -4 1 14 -6 34 -14
45 -11 14 -14 15 -14 4z"/>
<path d="M1734 2093 c5 -26 5 -27 -6 -5 -6 12 -15 22 -20 22 -9 0 -5 -22 15
-70 l10 -25 7 25 c5 16 8 19 9 8 1 -19 21 -26 21 -8 0 17 -28 80 -36 80 -3 0
-4 -12 0 -27z"/>
<path d="M1160 2080 c0 -5 10 -10 23 -10 18 0 19 2 7 10 -19 13 -30 13 -30 0z"/>
<path d="M1620 2033 c0 -14 19 -38 25 -32 8 8 -5 39 -16 39 -5 0 -9 -3 -9 -7z"/>
<path d="M1152 1994 c15 -8 32 -23 38 -34 12 -23 69 -55 78 -44 4 4 0 9 -8 12
-8 3 -32 23 -53 44 -22 22 -47 38 -60 38 -21 -1 -20 -2 5 -16z"/>
<path d="M1580 1994 c0 -8 5 -12 10 -9 6 4 8 11 5 16 -9 14 -15 11 -15 -7z"/>
<path d="M1530 1982 c0 -5 7 -16 16 -23 14 -12 16 -11 13 5 -4 20 -29 35 -29
18z"/>
<path d="M1121 1960 c-9 -5 -4 -10 14 -14 27 -7 102 -76 82 -76 -6 0 -28 12
-48 26 -21 14 -43 23 -49 19 -12 -8 5 -20 67 -50 67 -31 81 -6 27 50 -36 39
-74 57 -93 45z"/>
<path d="M1988 1893 c5 -59 10 -63 11 -10 1 26 -3 47 -7 47 -4 0 -6 -17 -4
-37z"/>
<path d="M1680 1900 c0 -5 5 -10 10 -10 6 0 10 5 10 10 0 6 -4 10 -10 10 -5 0
-10 -4 -10 -10z"/>
<path d="M1500 1883 c0 -14 19 -38 25 -32 8 8 -5 39 -16 39 -5 0 -9 -3 -9 -7z"/>
<path d="M1536 1876 c3 -9 11 -16 16 -16 13 0 5 23 -10 28 -7 2 -10 -2 -6 -12z"/>
<path d="M1572 1879 c2 -7 10 -15 17 -17 8 -3 12 1 9 9 -2 7 -10 15 -17 17 -8
3 -12 -1 -9 -9z"/>
<path d="M1620 1880 c0 -5 5 -10 10 -10 6 0 10 5 10 10 0 6 -4 10 -10 10 -5 0
-10 -4 -10 -10z"/>
<path d="M1470 1861 c0 -12 5 -21 10 -21 6 0 10 6 10 14 0 8 -4 18 -10 21 -5
3 -10 -3 -10 -14z"/>
<path d="M1816 1833 c4 -16 11 -32 17 -38 7 -7 8 -4 3 8 -3 10 -6 27 -6 38 0
10 -5 19 -10 19 -6 0 -8 -11 -4 -27z"/>
<path d="M1443 1833 c9 -9 19 -14 23 -11 10 10 -6 28 -24 28 -15 0 -15 -1 1
-17z"/>
<path d="M1790 1833 c0 -4 5 -15 10 -23 8 -13 10 -13 10 2 0 9 -4 20 -10 23
-5 3 -10 3 -10 -2z"/>
<path d="M1412 1819 c2 -7 10 -15 17 -17 8 -3 12 1 9 9 -2 7 -10 15 -17 17 -8
3 -12 -1 -9 -9z"/>
<path d="M1110 1811 c0 -6 6 -11 13 -11 6 0 30 -3 52 -7 34 -5 46 7 12 13 -7
1 -27 6 -44 9 -22 5 -33 4 -33 -4z"/>
<path d="M1133 1718 c-2 -5 9 -8 25 -8 16 0 44 -3 61 -6 19 -4 31 -2 31 4 0
12 -110 21 -117 10z"/>
<path d="M1198 1683 c-32 -2 -58 -7 -58 -12 0 -4 21 -6 48 -5 26 1 55 3 65 3
9 1 17 6 17 11 0 6 -3 9 -7 8 -5 -1 -34 -3 -65 -5z"/>
<path d="M1160 1633 c0 -12 128 -15 135 -3 4 6 -19 10 -64 10 -39 0 -71 -3
-71 -7z"/>
<path d="M515 2040 c-3 -5 -1 -10 4 -10 6 0 11 5 11 10 0 6 -2 10 -4 10 -3 0
-8 -4 -11 -10z"/>
<path d="M630 1990 c0 -13 20 -13 40 0 12 8 9 10 -12 10 -16 0 -28 -4 -28 -10z"/>
<path d="M560 1961 c0 -6 4 -13 10 -16 6 -3 7 1 4 9 -7 18 -14 21 -14 7z"/>
<path d="M985 1990 c3 -5 8 -10 11 -10 2 0 4 5 4 10 0 6 -5 10 -11 10 -5 0 -7
-4 -4 -10z"/>
<path d="M970 1975 c0 -5 5 -17 10 -25 5 -8 10 -10 10 -5 0 6 -5 17 -10 25 -5
8 -10 11 -10 5z"/>
<path d="M930 1959 c0 -5 5 -7 10 -4 6 3 10 8 10 11 0 2 -4 4 -10 4 -5 0 -10
-5 -10 -11z"/>
<path d="M846 1911 c-4 -7 -5 -15 -2 -18 9 -9 19 4 14 18 -4 11 -6 11 -12 0z"/>
<path d="M813 1824 c-7 -18 11 -39 26 -30 17 11 13 26 -4 20 -11 -5 -13 -2 -9
10 3 9 3 16 0 16 -4 0 -9 -7 -13 -16z"/>
<path d="M720 1775 c0 -8 9 -15 19 -15 10 0 21 7 25 15 4 11 -1 15 -19 15 -16
0 -25 -6 -25 -15z"/>
<path d="M856 1701 c-7 -11 18 -33 27 -24 4 3 7 12 7 20 0 15 -26 18 -34 4z"/>
<path d="M775 1660 c-8 -13 4 -32 18 -27 16 5 17 37 2 37 -8 0 -17 -4 -20 -10z"/>
<path d="M845 1620 c-3 -5 -1 -10 6 -10 7 0 4 -7 -7 -15 -20 -15 -21 -15 31
-15 3 0 6 3 7 8 0 4 8 13 17 20 14 11 13 12 -6 7 -14 -4 -23 -2 -23 4 0 14
-17 14 -25 1z"/>
<path d="M150 2051 c0 -10 19 -25 25 -20 1 2 -3 10 -11 17 -8 7 -14 8 -14 3z"/>
<path d="M242 2053 c-6 -2 -10 -9 -7 -13 7 -11 35 -2 35 11 0 10 -8 10 -28 2z"/>
<path d="M185 1980 c3 -5 8 -10 11 -10 2 0 4 5 4 10 0 6 -5 10 -11 10 -5 0 -7
-4 -4 -10z"/>
<path d="M385 1806 c-10 -15 -14 -33 -9 -50 9 -35 25 -33 18 2 -4 19 0 34 10
45 18 18 20 27 6 27 -5 0 -17 -11 -25 -24z"/>
<path d="M170 1766 c0 -22 11 -46 21 -46 6 0 6 7 1 18 -5 9 -7 23 -5 30 3 6 0
12 -6 12 -6 0 -11 -6 -11 -14z"/>
<path d="M1961 1734 c0 -11 3 -14 6 -6 3 7 2 16 -1 19 -3 4 -6 -2 -5 -13z"/>
<path d="M1970 1703 c0 -14 19 -38 25 -32 8 8 -5 39 -16 39 -5 0 -9 -3 -9 -7z"/>
<path d="M1900 1680 c0 -5 5 -10 10 -10 6 0 10 5 10 10 0 6 -4 10 -10 10 -5 0
-10 -4 -10 -10z"/>
<path d="M2050 1669 c0 -5 5 -7 10 -4 6 3 10 8 10 11 0 2 -4 4 -10 4 -5 0 -10
-5 -10 -11z"/>
<path d="M1995 1650 c3 -5 8 -10 11 -10 2 0 4 5 4 10 0 6 -5 10 -11 10 -5 0
-7 -4 -4 -10z"/>
<path d="M2023 1635 c-8 -22 6 -33 17 -15 13 20 12 30 0 30 -6 0 -13 -7 -17
-15z"/>
<path d="M1970 1630 c0 -5 5 -10 10 -10 6 0 10 5 10 10 0 6 -4 10 -10 10 -5 0
-10 -4 -10 -10z"/>
<path d="M1945 1620 c-3 -5 -1 -10 4 -10 6 0 11 5 11 10 0 6 -2 10 -4 10 -3 0
-8 -4 -11 -10z"/>
<path d="M102 1528 c-16 -21 -24 -58 -13 -58 6 0 11 10 11 23 0 13 5 28 12 35
7 7 9 12 6 12 -3 0 -10 -6 -16 -12z"/>
<path d="M131 1524 c0 -11 3 -14 6 -6 3 7 2 16 -1 19 -3 4 -6 -2 -5 -13z"/>
<path d="M1502 1312 c-4 -10 -20 -34 -35 -52 -23 -27 -30 -31 -37 -19 -11 16
-25 6 -44 -33 -9 -18 -19 -22 -44 -20 -24 2 -32 -1 -32 -12 0 -9 5 -16 10 -16
6 0 10 4 10 10 0 5 7 7 15 4 38 -15 175 91 175 134 0 27 -8 28 -18 4z"/>
<path d="M970 1190 c0 -5 5 -10 10 -10 6 0 10 5 10 10 0 6 -4 10 -10 10 -5 0
-10 -4 -10 -10z"/>
<path d="M1400 1160 c0 -9 5 -21 11 -27 8 -8 8 -13 0 -17 -6 -4 -11 -15 -11
-25 0 -10 -9 -26 -20 -36 -19 -17 -21 -17 -40 0 -11 10 -20 13 -20 7 0 -6 11
-19 25 -28 20 -13 28 -14 40 -4 12 10 16 9 21 -4 3 -9 10 -16 15 -16 14 0 10
22 -6 34 -10 8 -12 15 -5 26 9 13 11 13 20 0 15 -24 24 -81 13 -89 -15 -9 -22
-73 -11 -93 5 -11 5 -18 -1 -18 -5 0 -9 -9 -8 -20 1 -14 6 -19 17 -15 8 3 5
-4 -7 -14 -27 -22 -29 -31 -8 -31 21 0 34 30 30 70 -1 19 2 41 8 48 18 22 17
95 -1 152 -18 58 -61 127 -62 100z"/>
<path d="M1332 1138 c-28 -28 -1 -75 38 -63 25 8 26 36 2 58 -22 20 -25 20
-40 5z"/>
<path d="M1457 787 c-4 -10 -3 -26 2 -34 11 -21 19 -4 11 27 -5 22 -7 23 -13
7z"/>
<path d="M900 743 c0 -22 52 -111 57 -96 4 11 -44 113 -53 113 -2 0 -4 -7 -4
-17z"/>
<path d="M1400 705 c0 -8 7 -18 15 -21 18 -7 20 -31 3 -37 -9 -3 -8 -10 6 -26
11 -11 22 -21 25 -21 4 0 7 26 6 58 0 55 -1 57 -27 60 -20 2 -28 -1 -28 -13z"/>
<path d="M1000 574 c0 -22 46 -75 78 -89 20 -10 48 -26 61 -37 13 -10 26 -16
29 -13 8 8 -41 51 -75 64 -18 7 -42 29 -54 47 -18 30 -39 45 -39 28z"/>
<path d="M890 411 c0 -40 14 -62 23 -38 7 18 -4 77 -14 77 -5 0 -9 -18 -9 -39z"/>
<path d="M870 354 c0 -8 5 -12 10 -9 6 4 8 11 5 16 -9 14 -15 11 -15 -7z"/>
<path d="M1751 1417 c-6 -8 -8 -17 -4 -20 7 -8 33 11 33 24 0 13 -16 11 -29
-4z"/>
<path d="M1712 600 c4 -14 88 -64 88 -53 0 4 -21 21 -46 36 -25 15 -44 23 -42
17z"/>
<path d="M1695 570 c10 -16 85 -52 85 -40 0 5 -18 19 -40 30 -44 22 -54 25
-45 10z"/>
<path d="M393 1370 c0 -25 2 -35 4 -22 2 12 2 32 0 45 -2 12 -4 2 -4 -23z"/>
<path d="M430 1346 c0 -36 5 -68 10 -71 6 -4 10 18 10 59 0 36 -4 68 -10 71
-6 4 -10 -18 -10 -59z"/>
<path d="M580 1396 c0 -8 5 -18 10 -21 6 -3 10 3 10 14 0 12 -4 21 -10 21 -5
0 -10 -6 -10 -14z"/>
<path d="M351 1378 c-1 -16 4 -28 9 -28 12 0 12 8 0 35 -8 18 -9 17 -9 -7z"/>
<path d="M490 1359 c0 -22 4 -38 8 -35 8 5 4 76 -4 76 -2 0 -4 -18 -4 -41z"/>
<path d="M298 1383 c7 -3 16 -2 19 1 4 3 -2 6 -13 5 -11 0 -14 -3 -6 -6z"/>
<path d="M200 1315 c0 -37 4 -65 10 -65 6 0 10 28 10 65 0 37 -4 65 -10 65 -6
0 -10 -28 -10 -65z"/>
<path d="M358 1318 c-6 -17 1 -38 13 -38 5 0 8 9 6 20 -4 25 -13 34 -19 18z"/>
<path d="M390 1298 c0 -16 5 -28 10 -28 13 0 13 20 0 40 -8 12 -10 9 -10 -12z"/>
<path d="M1780 1220 c0 -5 4 -10 9 -10 6 0 13 5 16 10 3 6 -1 10 -9 10 -9 0
-16 -4 -16 -10z"/>
<path d="M165 1181 c-3 -5 -1 -12 5 -16 5 -3 10 1 10 9 0 18 -6 21 -15 7z"/>
<path d="M712 1165 c0 -16 2 -22 5 -12 2 9 2 23 0 30 -3 6 -5 -1 -5 -18z"/>
<path d="M466 1155 c-8 -33 4 -57 15 -29 11 27 11 54 0 54 -5 0 -12 -11 -15
-25z"/>
<path d="M1740 1100 c19 -13 30 -13 30 0 0 6 -10 10 -22 10 -19 0 -20 -2 -8
-10z"/>
<path d="M1785 1100 c3 -5 8 -10 11 -10 2 0 4 5 4 10 0 6 -5 10 -11 10 -5 0
-7 -4 -4 -10z"/>
<path d="M1740 1076 c0 -2 14 -6 30 -8 17 -3 30 -1 30 4 0 4 -13 8 -30 8 -16
0 -30 -2 -30 -4z"/>
<path d="M1755 1010 c3 -5 16 -10 28 -9 21 0 21 1 2 9 -28 12 -37 12 -30 0z"/>
<path d="M1700 1000 c0 -5 5 -10 10 -10 6 0 10 5 10 10 0 6 -4 10 -10 10 -5 0
-10 -4 -10 -10z"/>
<path d="M1785 920 c-3 -5 -1 -10 4 -10 6 0 11 5 11 10 0 6 -2 10 -4 10 -3 0
-8 -4 -11 -10z"/>
<path d="M1770 870 c0 -5 5 -10 11 -10 5 0 7 5 4 10 -3 6 -8 10 -11 10 -2 0
-4 -4 -4 -10z"/>
<path d="M1530 510 c0 -5 5 -10 10 -10 6 0 10 5 10 10 0 6 -4 10 -10 10 -5 0
-10 -4 -10 -10z"/>
<path d="M187 1018 c-3 -29 -1 -57 4 -62 5 -6 9 2 9 21 0 17 3 45 6 62 4 18 2
31 -3 31 -6 0 -13 -24 -16 -52z"/>
<path d="M197 873 c-11 -10 -8 -63 3 -63 6 0 10 16 10 35 0 36 -2 40 -13 28z"/>
<path d="M1644 845 c11 -8 25 -15 30 -15 6 0 2 7 -8 15 -11 8 -25 15 -30 15
-6 0 -2 -7 8 -15z"/>
<path d="M2102 590 c0 -14 2 -19 5 -12 2 6 2 18 0 25 -3 6 -5 1 -5 -13z"/>
<path d="M2053 523 c9 -2 25 -2 35 0 9 3 1 5 -18 5 -19 0 -27 -2 -17 -5z"/>
<path d="M2043 503 c9 -2 23 -2 30 0 6 3 -1 5 -18 5 -16 0 -22 -2 -12 -5z"/>
<path d="M1925 481 c-3 -5 -1 -12 5 -16 5 -3 10 1 10 9 0 18 -6 21 -15 7z"/>
<path d="M2065 440 c-11 -5 -15 -9 -8 -9 6 -1 18 -4 27 -7 11 -4 16 -1 16 10
0 18 -6 19 -35 6z"/>
<path d="M2010 430 c0 -5 7 -10 15 -10 8 0 15 5 15 10 0 6 -7 10 -15 10 -8 0
-15 -4 -15 -10z"/>
<path d="M278 249 c-13 -8 -3 -39 12 -39 5 0 10 5 10 10 0 6 10 10 21 10 20 0
21 -4 17 -65 -4 -64 -4 -65 22 -65 26 0 26 1 22 65 -4 64 -4 65 22 65 17 0 26
-5 26 -16 0 -8 5 -12 10 -9 6 3 10 15 10 25 0 16 -10 19 -81 22 -45 2 -86 0
-91 -3z"/>
<path d="M470 241 c0 -6 5 -13 10 -16 13 -8 13 -81 0 -106 -10 -17 -7 -19 25
-19 19 0 35 5 35 10 0 6 -5 10 -11 10 -6 0 -9 12 -7 28 2 22 8 28 36 30 29 3
32 1 32 -25 0 -16 -5 -34 -12 -41 -9 -9 -5 -12 19 -12 30 0 31 2 29 35 -2 20
0 53 4 75 7 37 6 40 -16 40 -19 0 -24 -5 -24 -24 0 -18 -7 -25 -27 -29 -37 -7
-44 -1 -33 28 9 24 8 25 -25 25 -19 0 -35 -4 -35 -9z"/>
<path d="M685 175 l0 -75 56 0 c41 0 58 4 62 15 7 17 -9 30 -18 15 -3 -5 -17
-10 -31 -10 -19 0 -24 5 -24 26 0 21 4 24 20 19 15 -5 20 -2 20 14 0 11 -4 23
-10 26 -5 3 -10 1 -10 -4 0 -6 -4 -11 -10 -11 -16 0 -12 37 5 44 8 3 22 -2 30
-11 18 -18 30 -11 22 12 -5 11 -21 15 -59 15 l-53 0 0 -75z"/>
<path d="M983 239 c-31 -31 -3 -73 44 -67 24 3 28 0 28 -22 0 -22 -4 -25 -35
-23 -19 1 -39 9 -46 17 -17 24 -24 20 -24 -14 l0 -30 65 0 c52 0 66 3 74 18
16 30 -9 66 -47 70 -24 2 -32 8 -32 23 0 23 48 27 56 4 9 -23 26 -18 22 7 -2
19 -10 23 -48 26 -27 2 -50 -2 -57 -9z"/>
<path d="M1134 234 c3 -9 6 -37 6 -64 0 -30 6 -54 15 -63 15 -15 49 -13 72 5
7 6 20 5 34 -2 17 -10 24 -9 37 4 19 18 9 34 -11 18 -8 -7 -17 -9 -20 -5 -11
10 -8 91 3 98 21 13 9 25 -25 25 -19 0 -35 -4 -35 -10 0 -5 7 -10 16 -10 14 0
15 -7 11 -37 -7 -42 -39 -79 -57 -68 -8 5 -11 27 -8 66 4 57 3 59 -20 59 -18
0 -23 -4 -18 -16z"/>
<path d="M1360 239 c-14 -4 -20 -7 -13 -8 13 -1 13 -103 -1 -112 -14 -11 3
-27 23 -22 16 4 18 12 14 46 l-5 42 46 -47 c26 -27 51 -48 56 -48 6 0 10 28
10 63 0 36 5 68 12 75 9 9 4 12 -22 12 -26 0 -31 -3 -22 -12 7 -7 12 -30 12
-52 l-1 -41 -25 30 c-14 17 -33 42 -42 56 -14 20 -22 24 -42 18z"/>
<path d="M1683 124 c-9 -23 13 -40 32 -24 12 10 13 16 4 26 -15 18 -28 18 -36
-2z"/>
</g>
</svg>
