<?xml version="1.0" standalone="no"?>
<!DOCTYPE svg PUBLIC "-//W3C//DTD SVG 20010904//EN"
 "http://www.w3.org/TR/2001/REC-SVG-20010904/DTD/svg10.dtd">
<svg version="1.0" xmlns="http://www.w3.org/2000/svg"
 width="218.000000pt" height="370.000000pt" viewBox="0 0 218.000000 370.000000"
 preserveAspectRatio="xMidYMid meet">
<metadata>
Created by potrace 1.16, written by Peter Selinger 2001-2019
</metadata>
<g transform="translate(0.000000,370.000000) scale(0.100000,-0.100000)"
fill="#000000" stroke="none">
<path d="M9 3475 c-1 -482 2 -1650 6 -1975 3 -190 5 -593 6 -896 1 -303 3
-562 6 -575 l4 -24 1047 1 c576 1 1057 2 1070 3 l22 1 -4 1836 c-3 1010 -8
1839 -11 1843 -4 3 -488 6 -1076 6 l-1069 0 -1 -220z m993 183 c19 -19 25 -78
7 -78 -5 0 -7 -4 -4 -10 3 -5 41 -10 83 -9 48 1 68 4 52 8 -21 6 -25 13 -25
41 1 28 5 36 25 41 23 7 23 7 3 8 -12 1 -24 4 -27 9 -2 4 65 7 150 7 144 0
170 -4 143 -21 -20 -12 -40 -73 -33 -100 4 -14 20 -34 36 -44 l30 -18 -63 -6
c-35 -4 -91 -8 -124 -9 -54 -3 -52 -3 18 -5 l77 -2 0 -30 c0 -16 -2 -30 -4
-30 -2 0 -12 -3 -22 -7 -14 -5 -16 -2 -10 20 4 16 2 27 -4 27 -10 0 -15 -20
-11 -54 1 -19 -14 -36 -33 -36 -6 0 -5 5 2 12 14 14 16 28 3 28 -17 0 -40 -30
-35 -45 7 -18 -7 -20 -23 -4 -16 16 -37 1 -23 -16 15 -18 50 -26 50 -12 0 7 7
4 14 -5 16 -22 46 -24 46 -3 0 8 -9 15 -20 15 -25 0 -26 15 -3 24 22 9 43 -18
43 -55 0 -33 -15 -46 -24 -22 -5 13 -9 14 -19 4 -9 -9 -9 -13 0 -19 7 -4 10
-17 6 -30 -5 -22 -18 -29 -25 -14 -1 4 -16 14 -32 22 -16 8 -31 22 -33 30 -4
13 -3 13 6 0 10 -13 11 -13 11 0 1 12 4 11 15 -4 15 -19 35 -14 35 10 0 15 -6
18 -52 28 -16 4 -28 13 -28 21 0 9 -6 12 -15 9 -9 -4 -15 0 -15 10 0 9 5 15
11 14 6 -2 14 3 16 10 3 7 -4 12 -16 12 -12 0 -21 5 -21 10 0 6 7 10 15 10 8
0 15 5 15 10 0 17 -38 11 -49 -7 -5 -10 -13 -15 -16 -11 -4 4 0 14 9 23 9 9
16 21 16 27 0 17 -24 3 -35 -20 -12 -28 -25 -29 -18 -2 7 28 -15 25 -27 -2
-10 -26 -13 -14 -4 19 4 15 15 23 38 26 17 2 -14 5 -69 6 -55 1 -143 6 -195
11 -77 9 -97 8 -108 -4 -15 -14 -9 -36 9 -36 5 0 13 8 17 19 5 13 13 16 27 11
19 -7 19 -7 -3 -19 -12 -6 -22 -18 -22 -27 0 -12 4 -13 21 -3 17 9 23 8 30 -2
5 -9 2 -16 -11 -21 -11 -4 -20 -14 -20 -23 0 -19 19 -20 26 0 4 8 10 15 15 15
14 0 10 -26 -6 -40 -16 -13 -21 -50 -6 -50 13 0 29 22 36 53 5 19 14 27 29 27
32 0 47 -13 36 -30 -6 -8 -10 -23 -10 -33 0 -14 5 -17 20 -12 11 4 20 2 20 -4
0 -6 7 -11 15 -11 22 0 18 13 -10 40 -19 18 -22 26 -13 32 20 12 28 9 28 -11
0 -21 17 -37 27 -27 4 3 1 17 -5 30 -7 15 -7 27 -1 33 6 6 3 10 -8 10 -10 0
-23 -7 -30 -16 -10 -13 -12 -10 -13 22 0 42 -15 50 -24 13 -4 -18 -12 -24 -31
-22 -30 1 -31 7 -4 24 12 8 18 19 15 28 -4 11 8 14 67 14 74 0 98 -10 96 -40
0 -10 -4 -7 -11 8 -13 26 -30 28 -49 6 -12 -15 -11 -16 7 -10 23 7 26 -10 10
-47 -11 -23 0 -33 18 -18 8 7 12 19 9 28 -4 11 -2 14 8 11 8 -3 13 -15 11 -28
-1 -16 2 -21 12 -17 13 5 13 2 4 -19 -12 -26 -6 -40 12 -29 8 5 10 21 7 41 -4
25 -2 34 9 34 9 0 14 -10 14 -27 0 -14 3 -23 7 -19 4 3 13 -4 20 -16 9 -17 12
-19 13 -7 0 9 -7 22 -15 29 -19 16 -19 30 -1 30 16 0 26 -21 26 -55 0 -30 -27
-95 -40 -95 -14 0 -13 13 3 29 6 8 -9 0 -35 -17 -29 -20 -54 -47 -67 -75 -25
-52 -26 -75 -5 -105 14 -21 14 -22 -6 -22 -34 0 -61 19 -76 55 -16 40 -19 85
-4 85 5 0 16 15 24 33 27 63 38 70 102 69 32 -1 65 2 72 6 7 5 -8 8 -35 8 -39
-1 -47 2 -45 15 3 20 -23 43 -38 34 -7 -4 -7 -12 1 -26 6 -12 9 -21 7 -22 -2
-1 -12 -7 -23 -13 -15 -9 -25 -8 -43 4 -20 13 -25 13 -33 1 -6 -10 -2 -20 14
-32 22 -19 16 -19 -28 -1 -18 7 -20 -17 -4 -33 6 -6 8 -17 4 -24 -6 -9 -11 -8
-21 5 -12 17 -19 17 -91 6 -2 0 -3 -4 -3 -8 0 -4 15 -6 34 -4 32 4 86 -20 86
-38 0 -4 -19 -5 -43 -3 -36 4 -48 1 -74 -21 -17 -14 -33 -26 -35 -26 -2 0 -5
12 -6 27 -3 42 -12 40 -13 -3 l0 -39 -14 43 c-7 24 -16 66 -20 93 -6 40 -4 49
8 49 20 0 26 -10 37 -62 l9 -43 -3 49 c-2 28 -11 55 -21 65 -15 15 -18 14 -34
-6 -15 -18 -17 -30 -10 -65 18 -84 35 -138 43 -131 4 4 4 0 0 -10 -4 -11 -1
-17 9 -17 9 0 15 -8 14 -18 -1 -15 -5 -16 -34 -7 -28 8 -33 15 -33 41 0 19 -9
39 -24 53 -21 20 -27 21 -70 10 -25 -6 -49 -15 -52 -20 -3 -5 -10 -9 -17 -9
-6 0 4 16 23 35 19 19 43 35 54 35 12 0 27 4 35 9 11 7 6 13 -18 26 -30 15
-35 15 -57 0 -28 -18 -30 -11 -9 38 15 36 15 36 69 31 65 -5 80 14 44 54 -21
23 -21 25 -3 18 34 -13 37 -12 46 12 5 12 5 22 0 22 -5 0 -7 9 -4 20 3 11 0
20 -6 20 -6 0 -11 -7 -11 -15 0 -13 -4 -14 -20 -5 -23 13 -28 42 -5 34 11 -5
13 -2 9 10 -5 12 2 19 25 27 23 8 30 16 26 27 -8 23 24 55 42 40 21 -17 90 7
99 35 9 26 6 58 -7 72 -25 25 -8 33 68 32 59 -2 82 -6 95 -19z m1129 6 c10
-12 14 -76 17 -258 4 -211 2 -243 -11 -255 -14 -11 -21 -5 -52 43 -33 51 -55
70 -55 47 0 -5 -3 -18 -6 -28 -6 -16 -5 -16 9 2 14 18 16 17 46 -30 28 -45 30
-51 16 -65 -15 -13 -17 -13 -26 3 -6 9 -15 15 -20 11 -6 -3 -3 -11 7 -18 15
-12 15 -13 0 -19 -9 -4 -16 -13 -16 -22 0 -8 -5 -15 -11 -15 -5 0 -7 5 -4 10
3 6 1 10 -5 10 -8 0 -10 10 -6 28 5 19 4 23 -3 12 -18 -27 -23 -2 -6 30 9 18
14 34 12 37 -3 2 -8 -5 -12 -16 -9 -31 -20 -26 -31 15 -14 54 -26 50 -51 -16
-9 -24 -10 -23 -38 25 -16 28 -30 52 -32 55 -5 6 -23 -22 -23 -35 0 -5 4 -3
10 5 5 8 11 12 13 10 8 -11 44 -76 50 -92 12 -32 -9 -19 -29 17 -10 19 -22 35
-27 35 -5 0 -16 -18 -24 -40 -9 -22 -20 -40 -25 -40 -5 0 -4 9 2 19 16 30 30
71 25 71 -3 0 -12 -18 -21 -40 -9 -22 -19 -40 -23 -40 -4 0 -18 12 -32 26 -13
14 -35 32 -49 39 -18 9 -31 30 -44 70 -10 34 -22 54 -29 52 -15 -5 -47 11 -47
23 0 6 9 10 20 10 11 0 20 -5 20 -12 0 -6 3 -9 6 -5 10 10 -68 139 -107 178
-39 39 -99 76 -99 61 0 -5 17 -16 38 -27 45 -22 30 -30 -24 -13 -47 16 -55 45
-28 96 32 59 37 60 390 61 284 1 323 -1 335 -15z m-1053 -1 c-10 -2 -28 -2
-40 0 -13 2 -5 4 17 4 22 1 32 -1 23 -4z m10 -50 c-2 -30 -7 -38 -23 -38 -13
0 -21 8 -23 23 -5 34 5 52 28 52 18 0 21 -5 18 -37z m-278 -23 c0 -5 -7 -7
-15 -4 -8 4 -26 -1 -40 -10 -14 -9 -25 -12 -25 -7 0 6 8 15 18 20 22 13 62 14
62 1z m716 -111 c9 -15 -14 -38 -24 -23 -4 6 -16 16 -27 22 -18 10 -17 11 12
12 17 0 35 -5 39 -11z m-90 -19 c0 -17 -5 -20 -28 -15 -22 5 -28 3 -28 -10 0
-15 2 -16 16 -4 15 12 16 11 9 -10 -5 -18 -4 -22 5 -16 9 5 11 4 6 -3 -4 -7
-3 -12 2 -12 6 0 8 -9 5 -20 -7 -25 -23 -26 -23 -1 0 21 -23 45 -33 34 -11
-10 -8 37 3 58 15 27 66 26 66 -1z m-586 3 c-1 -10 -25 -43 -32 -43 -4 0 -3
36 1 48 2 6 31 1 31 -5z m721 -45 c11 -20 11 -20 -14 -2 -14 11 -23 22 -20 27
6 10 21 0 34 -25z m-56 2 c-3 -5 -12 -10 -20 -10 -8 0 -17 5 -20 10 -4 6 5 10
20 10 15 0 24 -4 20 -10z m-7 -26 c26 6 26 6 7 -9 -11 -8 -25 -19 -31 -24 -8
-6 -15 -2 -23 15 -6 13 -15 24 -21 24 -5 0 -10 5 -10 11 0 7 10 5 26 -6 16
-11 36 -15 52 -11z m-847 -24 c10 0 19 -7 19 -15 0 -26 -69 12 -70 38 0 5 7 1
16 -7 8 -9 24 -16 35 -16z m709 9 c0 -5 0 -12 0 -16 0 -19 -25 -6 -26 14 -1
14 3 20 12 16 8 -3 14 -9 14 -14z m84 -15 c3 -9 4 -20 1 -25 -4 -5 8 -6 27 -2
32 6 32 5 17 -13 -9 -10 -20 -28 -23 -40 -6 -20 -4 -21 42 -16 53 5 116 -17
126 -44 6 -16 -10 -19 -19 -4 -16 26 -109 3 -118 -29 -4 -18 -1 -21 25 -21 17
0 27 -4 23 -10 -3 -5 3 -10 14 -10 11 0 23 5 26 10 3 6 12 10 18 10 7 0 6 -4
-3 -10 -13 -8 -13 -10 1 -10 9 0 22 -7 29 -15 10 -12 9 -15 -8 -15 -29 0 -53
-11 -46 -21 3 -5 0 -9 -5 -9 -6 0 -11 5 -11 12 0 6 -3 8 -7 4 -8 -7 -9 -11
-12 -37 0 -5 -6 -7 -11 -4 -6 4 -7 12 -4 18 4 7 -3 2 -15 -10 -11 -12 -21 -28
-21 -35 0 -10 3 -9 9 1 7 12 13 12 24 3 7 -7 17 -9 20 -5 4 3 13 0 22 -7 10
-8 15 -9 15 -1 0 6 10 11 23 11 19 0 18 -3 -12 -21 -18 -11 -39 -18 -47 -15
-7 3 -15 0 -18 -7 -3 -7 -5 -6 -5 3 -1 9 -10 16 -20 16 -15 0 -20 -9 -23 -37
-2 -27 0 -35 10 -31 7 2 11 11 8 18 -6 16 10 19 19 4 4 -6 12 -4 21 5 16 15
90 21 97 8 2 -5 2 -27 -1 -50 l-4 -42 -28 20 c-53 40 -98 -4 -85 -83 8 -46 33
-62 81 -53 32 6 34 5 34 -24 0 -29 -20 -55 -27 -34 -2 6 -12 9 -22 6 -10 -3
-22 0 -25 6 -4 6 -22 11 -39 11 -40 0 -50 7 -71 47 -27 54 -14 132 21 119 26
-10 8 18 -20 32 -24 12 -27 19 -27 63 0 67 -22 89 -90 89 -28 0 -50 5 -50 11
0 13 61 39 92 39 21 0 21 0 2 15 -10 8 -30 15 -44 16 -14 1 -5 5 20 8 44 6 44
7 21 20 -13 7 -21 8 -17 2 4 -7 -1 -11 -13 -11 -23 0 -28 15 -8 24 6 4 -3 4
-20 1 -40 -6 -42 8 -6 32 17 11 43 17 70 16 49 -2 54 9 21 44 -28 30 -48 29
-48 -2 0 -14 -4 -25 -10 -25 -5 0 -10 11 -10 25 0 26 28 40 66 33 13 -2 20 4
22 20 4 26 17 29 26 6z m130 8 c2 -4 -2 -15 -9 -25 -15 -20 -28 -8 -19 17 7
17 20 21 28 8z m-932 -60 c9 -9 9 -15 0 -24 -10 -10 -15 -10 -21 1 -5 8 -16
11 -30 6 -24 -7 -27 -1 -8 20 14 16 42 14 59 -3z m-482 -34 c24 -49 26 -65 6
-49 -8 7 -18 26 -21 43 -9 37 -19 28 -45 -38 -10 -27 -19 -41 -20 -32 0 10 6
32 14 50 8 18 17 41 20 51 9 28 24 20 46 -25z m130 -35 c-20 -64 -20 -70 -5
-106 l15 -37 43 42 c40 40 157 114 157 100 0 -4 -32 -25 -72 -47 -41 -23 -79
-53 -89 -70 -32 -51 -21 -61 18 -15 33 38 98 78 110 67 2 -3 -9 -9 -24 -15
-15 -5 -45 -26 -65 -46 -39 -38 -47 -70 -28 -107 6 -10 9 -19 6 -19 -7 0 -78
118 -107 180 l-26 54 -18 -34 c-10 -19 -26 -57 -36 -84 -9 -28 -18 -44 -18
-35 -1 19 38 124 57 154 12 20 12 20 31 -2 24 -29 31 -29 31 1 0 28 29 101 37
93 2 -3 -5 -36 -17 -74z m86 -40 c-6 -6 -56 92 -56 109 1 7 15 -13 31 -46 17
-32 28 -60 25 -63z m1137 97 c4 -15 0 -20 -14 -20 -18 0 -26 20 -12 33 11 12
21 8 26 -13z m67 -10 c0 -6 -11 -10 -25 -10 -23 0 -34 18 -19 33 9 8 44 -11
44 -23z m-190 -1 c0 -6 -4 -7 -10 -4 -5 3 -10 11 -10 16 0 6 5 7 10 4 6 -3 10
-11 10 -16z m-230 -10 c0 -5 -4 -9 -10 -9 -5 0 -10 7 -10 16 0 8 5 12 10 9 6
-3 10 -10 10 -16z m17 -40 c67 -37 73 -46 73 -113 0 -34 -6 -68 -13 -77 -14
-18 -87 -52 -95 -45 -2 3 -17 -1 -32 -9 -29 -15 -73 -12 -78 5 -5 14 -29 12
-68 -6 -39 -19 -42 -30 -13 -55 11 -10 18 -23 14 -28 -10 -18 -23 -12 -27 11
-3 24 -35 33 -57 15 -12 -9 -13 -9 -7 1 4 7 1 12 -8 12 -20 0 -20 9 -1 30 20
22 9 56 -11 39 -8 -6 -14 -21 -14 -33 -1 -26 -23 -56 -41 -56 -10 1 -9 4 4 14
24 19 21 38 -5 34 -19 -2 -24 2 -26 25 -3 23 -6 26 -18 16 -11 -9 -14 -8 -14
9 0 11 3 28 6 36 10 25 34 0 34 -34 0 -32 23 -46 41 -24 13 16 -2 64 -21 64
-5 0 -10 7 -10 16 0 8 -4 12 -10 9 -5 -3 -10 3 -10 13 0 27 27 36 33 11 5 -17
9 -19 26 -10 19 10 19 9 14 -26 -6 -33 -4 -36 9 -25 12 10 18 9 28 -3 7 -8 18
-15 25 -15 7 0 18 -6 24 -14 12 -14 55 -16 68 -3 3 4 26 7 49 7 50 0 86 27
103 78 8 27 7 42 -9 83 -31 78 -27 83 37 48z m-1027 -28 c9 -23 9 -38 0 -66
l-12 -37 -27 25 c-14 14 -40 32 -57 40 -17 9 -35 24 -38 34 -6 16 -6 16 12 0
10 -9 24 -17 30 -17 6 0 28 -15 48 -32 34 -30 36 -31 29 -9 -5 16 -4 21 4 17
12 -8 14 4 5 28 -8 21 -24 20 -24 -1 0 -9 -2 -14 -5 -11 -8 8 5 58 15 58 4 0
13 -13 20 -29z m188 17 c7 -7 12 -19 12 -27 -1 -14 -3 -13 -14 2 -17 22 -26
22 -26 -2 0 -11 -4 -23 -10 -26 -13 -8 -13 6 0 39 11 29 20 32 38 14z m740
-25 c-5 -25 -28 -28 -28 -4 0 12 6 21 16 21 9 0 14 -7 12 -17z m38 -21 c-10
-10 -29 15 -21 28 6 9 10 8 17 -4 6 -10 7 -20 4 -24z m437 18 c-5 -20 -43 -29
-43 -9 0 5 5 7 10 4 6 -3 13 1 16 9 9 23 23 20 17 -4z m442 -136 c9 -19 18
-52 21 -72 l4 -37 -21 45 c-12 25 -29 69 -39 99 -20 64 -25 60 -59 -56 -19
-63 -41 -103 -41 -74 0 12 52 173 70 216 l13 30 17 -58 c10 -32 26 -74 35 -93z
m-1425 126 c0 -5 -5 -10 -11 -10 -5 0 -7 5 -4 10 3 6 8 10 11 10 2 0 4 -4 4
-10z m730 -1 c0 -5 -4 -8 -9 -4 -16 9 -23 -13 -10 -36 8 -17 8 -24 -3 -35 -11
-11 -13 -5 -15 36 -1 43 2 50 18 50 10 0 19 -5 19 -11z m290 7 c0 -3 -4 -8
-10 -11 -5 -3 -10 -1 -10 4 0 6 5 11 10 11 6 0 10 -2 10 -4z m50 -18 c0 -16
-3 -19 -11 -11 -6 6 -8 16 -5 22 11 17 16 13 16 -11z m-1314 -14 c-3 -9 -6
-18 -6 -20 0 -2 -4 -4 -9 -4 -5 0 -7 9 -4 20 3 11 10 20 15 20 6 0 7 -7 4 -16z
m204 7 c0 -6 -4 -13 -10 -16 -5 -3 -10 1 -10 9 0 9 5 16 10 16 6 0 10 -4 10
-9z m1198 -170 l29 -36 -8 -135 c-4 -74 -10 -178 -13 -230 -3 -52 -8 -219 -12
-370 -4 -151 -7 -275 -8 -276 0 -1 -17 -4 -37 -7 l-36 -5 -1 451 c-1 249 1
529 5 622 l7 170 22 -74 c13 -41 36 -90 52 -110z m-680 147 c-2 -15 -11 -24
-25 -26 -13 -2 -23 -8 -23 -13 0 -5 -4 -9 -9 -9 -5 0 -7 9 -4 21 4 13 11 18
20 14 10 -3 13 -1 10 9 -7 17 1 26 20 26 9 0 13 -8 11 -22z m87 3 c3 -7 3 -16
0 -19 -3 -3 -5 0 -5 7 0 7 -9 9 -25 5 -19 -5 -25 -2 -25 10 0 20 47 18 55 -3z
m615 -34 c69 -66 120 -147 92 -147 -4 0 -13 13 -20 28 -12 28 -106 132 -119
132 -4 0 9 -17 28 -37 40 -42 89 -106 89 -116 0 -13 -30 -7 -30 6 0 6 -23 39
-50 72 -28 33 -48 66 -45 74 3 7 -3 20 -12 27 -15 11 -15 13 -3 14 8 0 40 -24
70 -53z m116 15 c25 -47 15 -81 -22 -78 -25 1 -31 20 -15 45 7 11 11 9 21 -9
16 -30 23 -20 7 13 -14 32 -27 34 -34 7 -5 -17 -23 -29 -23 -15 0 10 34 75 39
75 3 0 15 -17 27 -38z m-1772 -21 c25 -28 13 -27 -17 2 -13 12 -32 28 -43 35
-11 7 -6 6 11 -2 17 -8 39 -23 49 -35z m1226 39 c0 -5 -5 -10 -11 -10 -5 0 -7
5 -4 10 3 6 8 10 11 10 2 0 4 -4 4 -10z m-881 -30 c-9 -5 -28 -27 -44 -50 -15
-22 -30 -38 -32 -36 -7 7 54 93 69 99 20 7 25 -3 7 -13z m445 -5 c3 -8 1 -15
-4 -15 -6 0 -10 7 -10 15 0 8 2 15 4 15 2 0 6 -7 10 -15z m240 -1 c4 -9 4 -19
1 -22 -3 -3 -5 0 -5 7 0 7 -4 9 -10 6 -5 -3 -10 1 -10 9 0 21 16 20 24 0z
m996 -4 c-14 -11 -28 -20 -32 -20 -9 0 -41 -60 -35 -66 2 -3 10 8 16 24 15 35
71 73 71 47 0 -8 -6 -18 -14 -21 -21 -8 -68 -84 -62 -100 3 -8 0 -14 -8 -14
-21 0 -26 11 -15 31 5 11 6 19 2 18 -20 -3 -22 3 -10 29 8 15 13 33 11 40 -1
7 0 8 3 2 2 -5 16 4 30 20 14 17 34 30 46 30 21 0 21 -1 -3 -20z m-1500 1 c0
-5 -7 -12 -16 -15 -22 -9 -24 -8 -24 9 0 8 9 15 20 15 11 0 20 -4 20 -9z m450
-5 c0 -8 -4 -18 -10 -21 -5 -3 -10 3 -10 14 0 12 5 21 10 21 6 0 10 -6 10 -14z
m904 -79 c19 -51 22 -67 12 -67 -8 0 -19 20 -26 50 -13 56 -23 57 -40 2 -14
-43 -37 -72 -26 -32 4 14 15 51 23 84 18 65 19 64 57 -37z m-1917 61 c11 -13
26 -34 32 -48 l12 -25 -20 25 c-12 14 -31 35 -43 48 -13 12 -18 22 -12 22 6 0
20 -10 31 -22z m478 -37 c-3 -2 -12 4 -19 15 -11 14 -12 22 -3 33 9 11 13 8
19 -15 4 -15 5 -30 3 -33z m28 44 c4 -8 2 -17 -3 -20 -6 -4 -10 3 -10 14 0 25
6 27 13 6z m477 -11 c0 -8 -7 -14 -15 -14 -15 0 -21 21 -9 33 10 9 24 -2 24
-19z m583 20 c3 -3 3 -13 0 -21 -5 -12 -7 -12 -14 -1 -15 23 -4 40 14 22z
m-1133 -318 c2 -304 3 -715 1 -802 l-1 -50 -42 5 -43 6 -8 502 -7 501 28 29
c16 15 35 49 42 75 8 26 17 42 21 36 4 -6 8 -142 9 -302z m160 283 c0 -11 -4
-18 -9 -15 -5 3 -14 -1 -21 -9 -7 -8 -17 -15 -23 -15 -7 0 -7 4 1 12 7 7 12
16 12 21 0 5 -9 -1 -19 -14 -21 -26 -42 -18 -24 9 6 9 22 17 37 17 14 -1 26 3
26 7 0 4 5 8 10 8 6 0 10 -9 10 -21z m451 8 c-1 -12 -15 -9 -19 4 -3 6 1 10 8
8 6 -3 11 -8 11 -12z m-361 -1 c0 -3 -4 -8 -10 -11 -5 -3 -10 -1 -10 4 0 6 5
11 10 11 6 0 10 -2 10 -4z m276 -16 c8 0 14 -4 14 -10 0 -5 -4 -10 -8 -10 -12
0 -32 22 -31 35 0 5 3 4 6 -2 2 -7 11 -13 19 -13z m369 10 c3 -5 0 -10 -7 -10
-7 0 -18 -12 -25 -26 -10 -22 -10 -24 3 -14 11 10 14 10 14 -1 0 -11 2 -11 9
1 6 8 8 17 6 20 -2 4 2 7 9 7 9 0 14 -12 13 -34 -1 -18 -5 -33 -9 -33 -4 0 -8
-7 -8 -16 0 -8 5 -12 10 -9 6 3 10 2 10 -4 0 -6 -12 -9 -27 -8 -16 1 -40 -2
-55 -6 -22 -6 -26 -4 -22 8 4 8 1 22 -6 30 -7 9 -11 18 -8 20 9 10 38 -7 38
-21 0 -8 5 -14 11 -14 5 0 7 5 3 11 -3 6 -6 31 -6 55 1 27 -3 42 -8 39 -6 -3
-10 -16 -10 -28 0 -18 -2 -19 -10 -7 -9 13 -12 12 -25 -4 -13 -17 -15 -17 -15
-3 0 11 -5 14 -17 10 -11 -4 -14 -3 -9 5 4 7 21 12 38 12 23 0 29 4 24 15 -4
12 3 15 34 15 21 0 42 -4 45 -10z m208 4 c3 -4 -1 -13 -9 -21 -18 -18 -27 -13
-18 11 6 17 16 20 27 10z m-788 -34 c-3 -4 0 -10 7 -12 8 -3 6 -7 -5 -11 -13
-5 -17 -1 -17 19 0 14 4 23 10 19 6 -4 8 -10 5 -15z m957 -33 c20 -29 21 -29
1 -19 -19 11 -53 54 -53 68 0 11 29 -17 52 -49z m358 14 c-20 -41 -37 -57 -47
-47 -8 8 44 86 57 86 6 0 1 -18 -10 -39z m-260 2 c0 -13 -3 -13 -15 -3 -8 7
-12 16 -9 21 8 13 24 1 24 -18z m-1307 3 c3 -8 3 -16 0 -19 -7 -8 -32 16 -26
26 7 11 20 8 26 -7z m-419 -20 c-3 -9 -10 -16 -15 -16 -6 0 -5 9 1 21 13 24
24 20 14 -5z m593 -28 c31 -29 29 -34 -14 -41 -25 -4 -42 -2 -53 7 -15 14 -38
19 -76 17 -52 -3 -76 -104 -35 -145 45 -44 161 -16 161 39 0 26 7 29 34 19 10
-4 16 -18 16 -39 0 -26 -5 -35 -22 -41 -13 -3 -35 -15 -50 -25 -26 -19 -90
-25 -122 -13 -27 10 -54 66 -61 126 -7 57 -7 57 31 93 50 46 88 57 134 38 19
-8 45 -24 57 -35z m1228 10 c5 -20 3 -29 -8 -34 -28 -10 -36 4 -24 41 11 38
22 36 32 -7z m-1905 -15 c6 -7 10 -70 10 -150 0 -183 -20 -866 -26 -872 -2 -2
-7 -2 -10 1 -3 3 -7 246 -8 539 -2 442 -1 529 10 513 7 -10 18 -24 24 -31z
m2090 -503 l0 -550 -30 0 c-16 0 -30 1 -31 3 -1 1 -3 232 -5 513 l-5 511 25
16 c13 9 27 26 31 37 3 11 8 20 10 20 3 0 5 -247 5 -550z m-896 524 c4 -9 4
-19 1 -22 -3 -3 -5 0 -5 6 0 6 -7 9 -15 6 -9 -4 -15 0 -15 10 0 21 26 21 34 0z
m-234 -13 c0 -6 15 -11 33 -13 l32 -4 -27 -8 c-16 -5 -36 -5 -45 -1 -10 5 -24
7 -30 6 -14 -2 -17 11 -6 22 10 10 43 8 43 -2z m115 -11 c-10 -11 -25 -20 -34
-20 -12 0 -9 6 9 20 33 26 48 26 25 0z m37 -12 c-12 -12 -24 -19 -28 -15 -4 3
4 15 17 26 31 25 39 17 11 -11z m118 10 c0 -16 -3 -19 -11 -11 -6 6 -8 16 -5
22 11 17 16 13 16 -11z m-1050 -8 c0 -13 -20 -13 -40 0 -12 8 -9 10 13 10 15
0 27 -4 27 -10z m55 0 c-3 -5 -10 -10 -16 -10 -5 0 -9 5 -9 10 0 6 7 10 16 10
8 0 12 -4 9 -10z m493 -15 c-3 -3 -9 2 -12 12 -6 14 -5 15 5 6 7 -7 10 -15 7
-18z m-163 5 c3 -5 1 -10 -4 -10 -6 0 -11 5 -11 10 0 6 2 10 4 10 3 0 8 -4 11
-10z m1351 -5 c48 0 61 -3 60 -15 -1 -8 -5 -19 -11 -23 -6 -5 2 -7 17 -4 25 4
27 2 26 -35 0 -28 -5 -38 -17 -39 -13 -1 -13 -2 2 -6 19 -5 17 -30 -2 -25 -6
1 -11 -3 -11 -8 0 -5 7 -10 15 -10 9 0 15 -9 15 -25 0 -20 -5 -25 -27 -26
l-28 -2 28 -4 c38 -6 34 -23 -5 -24 l-33 -1 35 -11 35 -11 -35 -6 -35 -7 33
-8 c17 -4 32 -11 32 -16 0 -5 -15 -10 -32 -10 l-33 -1 29 -7 c35 -7 37 -23 4
-33 -23 -6 -23 -6 2 -8 l25 -1 -25 -11 c-21 -9 -22 -12 -7 -15 9 -3 17 -9 17
-15 0 -5 -7 -8 -15 -4 -8 3 -15 1 -15 -4 0 -6 9 -10 19 -10 11 0 23 -4 26 -10
4 -6 -7 -8 -27 -4 l-33 5 30 -15 30 -14 -30 -2 c-21 -2 -24 -4 -10 -7 45 -10
50 -16 20 -23 l-30 -8 28 -1 c32 -1 37 -21 5 -22 -17 -1 -19 -2 -5 -6 20 -5
23 -23 5 -23 -8 0 -9 -3 -3 -8 6 -4 12 -22 13 -39 3 -30 1 -33 -25 -34 l-28
-2 28 -4 c31 -5 37 -23 6 -23 -11 0 -17 -4 -14 -10 3 -5 15 -10 26 -10 26 0
24 -19 -3 -30 l-23 -9 23 0 c31 -1 28 -21 -4 -21 -15 0 -23 -4 -19 -11 4 -6
13 -8 21 -5 7 3 16 1 19 -4 4 -6 -4 -11 -17 -11 l-23 -2 23 -4 c27 -5 28 -11
5 -30 -10 -7 -13 -13 -8 -12 23 3 27 -2 14 -18 -10 -11 -10 -14 -1 -9 7 4 12
1 12 -8 0 -10 -9 -17 -22 -17 l-23 -2 23 -4 c12 -2 22 -9 22 -14 0 -5 -10 -14
-22 -19 l-23 -9 23 0 c12 -1 22 -5 22 -11 0 -5 -10 -11 -22 -11 -16 -1 -18 -3
-7 -6 21 -5 32 -45 16 -55 -9 -6 -9 -8 1 -8 20 0 15 -50 -5 -51 -17 -1 -17 -2
0 -6 24 -6 21 -23 -5 -24 l-23 -2 23 -4 c12 -2 22 -9 22 -14 0 -5 -10 -10 -22
-10 l-23 -2 23 -4 c31 -6 28 -23 -5 -24 l-28 -2 28 -4 c15 -2 27 -9 27 -14 0
-5 -12 -10 -27 -10 l-28 -1 30 -8 c25 -6 19 -15 -7 -11 -5 0 -8 -4 -8 -9 0 -6
10 -11 23 -11 20 -2 20 -2 -3 -7 l-25 -5 25 -7 25 -7 -25 -11 -25 -11 25 -1
25 -2 -25 -8 c-23 -7 -23 -8 -3 -9 36 -2 37 -21 1 -22 -30 -2 -31 -2 -5 -6 33
-5 36 -23 5 -24 -22 -1 -22 -1 2 -9 24 -8 24 -8 3 -9 -13 -1 -23 -5 -23 -11 0
-5 10 -10 23 -11 21 0 21 -1 2 -9 l-20 -9 20 -1 c18 -1 17 -2 -5 -14 l-25 -14
30 -4 30 -4 -25 -11 c-24 -11 -24 -12 -2 -12 12 -1 22 -5 22 -11 0 -5 -10 -11
-22 -11 l-23 -2 23 -4 c26 -5 30 -23 5 -23 -16 -1 -16 -2 1 -15 19 -14 19 -15
-7 -15 -20 0 -27 -5 -27 -20 0 -15 7 -20 25 -20 31 0 33 -19 3 -21 l-23 -2 23
-4 c12 -2 22 -9 22 -15 0 -6 -9 -8 -20 -5 -11 3 -20 1 -20 -4 0 -9 24 -14 45
-9 19 3 -9 -18 -30 -23 -15 -4 -13 -5 8 -6 25 -1 27 -4 27 -41 0 -35 -3 -40
-22 -41 -22 -1 -22 -1 2 -8 24 -7 25 -11 32 -101 3 -52 9 -128 12 -167 l7 -73
-48 -1 c-26 -1 -38 -4 -25 -6 12 -2 20 -9 17 -14 -4 -5 0 -9 9 -9 8 0 16 6 19
13 3 9 8 9 16 1 8 -7 10 -24 6 -46 -8 -41 -52 -68 -112 -68 -40 0 -35 -15 7
-23 14 -2 1 -5 -27 -6 -29 0 -53 -5 -53 -11 0 -16 -86 -11 -129 7 l-39 17 -4
85 c-3 64 -10 97 -27 130 -21 40 -22 53 -17 150 6 105 11 230 21 556 5 174 13
364 20 515 2 47 7 191 10 320 3 129 9 262 12 295 7 62 8 73 11 162 l2 53 63
-8 c34 -4 89 -7 123 -7z m-1386 -5 c0 -5 -4 -10 -10 -10 -5 0 -10 5 -10 10 0
6 5 10 10 10 6 0 10 -4 10 -10z m606 -15 c-9 -9 -16 -13 -16 -8 0 12 22 34 28
28 2 -2 -3 -11 -12 -20z m-536 5 c0 -5 -5 -10 -11 -10 -5 0 -7 -4 -4 -10 3 -5
1 -10 -4 -10 -12 0 -15 23 -4 33 10 10 23 8 23 -3z m218 -31 c-6 -4 -2 -12 11
-18 19 -11 21 -9 21 21 0 24 3 29 12 20 9 -9 9 -18 0 -36 -9 -20 -8 -31 3 -53
8 -15 15 -36 15 -47 0 -57 69 -111 140 -110 71 0 140 62 140 126 0 37 41 91
85 112 37 18 172 23 145 6 -8 -5 -25 -10 -36 -10 -31 0 -120 -69 -142 -110
-11 -19 -25 -58 -32 -87 -11 -48 -14 -51 -48 -58 -44 -8 -237 -8 -263 0 -10 4
-19 13 -19 20 0 8 -10 40 -22 72 -29 79 -78 127 -153 149 l-60 17 35 10 c34 9
80 6 128 -9 17 -5 22 -2 22 12 0 17 1 16 14 -2 10 -12 11 -21 4 -25z m294 4
c42 -43 49 -105 16 -153 -30 -44 -61 -60 -117 -60 -37 0 -49 5 -83 40 -39 39
-40 42 -36 92 5 44 11 57 43 86 35 32 41 34 92 30 44 -4 60 -11 85 -35z m82
31 c9 -3 16 -12 16 -18 0 -16 -45 -58 -53 -50 -9 10 4 34 19 34 17 0 18 12 2
28 -13 13 -8 15 16 6z m-662 -46 c-8 -8 -15 -6 -26 4 -19 20 -9 30 16 17 14
-8 17 -14 10 -21z m998 22 c0 -5 -4 -10 -10 -10 -5 0 -10 5 -10 10 0 6 5 10
10 10 6 0 10 -4 10 -10z m-26 -15 c3 -8 1 -15 -4 -15 -6 0 -10 7 -10 15 0 8 2
15 4 15 2 0 6 -7 10 -15z m-140 -11 c10 -25 -1 -29 -14 -5 -6 12 -7 21 -1 21
5 0 12 -7 15 -16z m-794 -4 c0 -5 -4 -10 -10 -10 -5 0 -10 5 -10 10 0 6 5 10
10 10 6 0 10 -4 10 -10z m40 -10 c0 -5 -4 -10 -10 -10 -5 0 -10 5 -10 10 0 6
5 10 10 10 6 0 10 -4 10 -10z m720 -5 c8 -10 9 -15 1 -15 -7 0 -7 -7 1 -25 6
-14 16 -25 21 -25 5 0 7 11 5 25 -3 14 -2 25 2 25 12 0 19 -64 9 -74 -6 -6
-13 -6 -21 2 -20 20 -32 13 -14 -7 10 -11 15 -25 11 -30 -3 -6 -2 -11 4 -11 5
0 16 -3 25 -6 12 -5 16 0 17 17 1 23 1 22 13 -5 8 -18 16 -24 20 -17 4 6 23
11 42 11 35 0 43 -13 23 -40 -9 -12 -10 -12 -5 4 6 17 5 18 -16 4 -30 -20 -34
-38 -8 -38 54 0 120 -59 120 -108 0 -34 0 -35 -20 -17 -20 19 -28 41 -10 30 6
-3 10 -1 10 5 0 11 -37 28 -82 37 -42 8 -34 -12 16 -41 25 -14 55 -41 67 -59
l22 -32 -30 28 c-30 28 -77 38 -102 23 -18 -12 -13 -25 8 -19 23 6 75 -40 68
-60 -2 -7 3 -18 12 -25 15 -12 14 -13 -1 -8 -12 3 -18 -2 -21 -17 -3 -16 -5
-13 -6 10 -1 33 -15 51 -26 33 -4 -6 -1 -17 5 -25 10 -12 9 -15 -3 -15 -18 0
-33 33 -18 38 16 5 13 22 -4 22 -18 0 -20 16 -2 24 6 3 3 5 -8 3 -13 -1 -21
-11 -23 -27 -2 -14 -8 -30 -13 -37 -7 -7 -6 -14 1 -18 6 -3 8 -10 5 -15 -3 -5
3 -14 12 -20 17 -11 17 -11 1 -6 -14 4 -18 0 -18 -19 0 -18 -5 -25 -20 -25
-17 0 -20 7 -20 45 0 25 5 45 10 45 6 0 10 5 10 10 0 6 -5 10 -11 10 -17 0
-40 28 -29 35 15 9 0 27 -17 21 -11 -4 -13 -2 -9 9 4 11 -1 15 -18 15 -32 0
-57 -10 -51 -20 3 -5 1 -11 -4 -14 -14 -9 -24 33 -12 48 6 7 29 21 51 31 22
10 40 22 40 26 0 12 -43 22 -71 16 -16 -3 -12 -5 14 -6 45 -1 48 -15 6 -30
-47 -16 -77 -13 -89 8 -14 26 -13 38 2 23 19 -19 30 -14 17 9 -11 22 3 50 18
35 4 -4 1 -12 -7 -17 -24 -17 2 -5 37 16 18 11 33 25 33 30 0 6 7 23 15 38 14
27 14 28 -8 22 -14 -4 -18 -3 -9 3 7 5 10 16 6 26 -7 19 -30 15 -81 -14 l-31
-18 10 31 c17 51 28 59 75 55 35 -3 43 0 43 14 0 9 -7 23 -15 31 -8 8 -11 17
-8 21 10 10 20 7 33 -9z m205 6 c3 -5 1 -12 -5 -16 -5 -3 -10 1 -10 9 0 18 6
21 15 7z m40 -1 c3 -5 1 -10 -4 -10 -6 0 -11 5 -11 10 0 6 2 10 4 10 3 0 8 -4
11 -10z m-935 -10 c0 -5 -2 -10 -4 -10 -3 0 -8 5 -11 10 -3 6 -1 10 4 10 6 0
11 -4 11 -10z m-90 -10 c0 -5 -4 -10 -10 -10 -5 0 -10 5 -10 10 0 6 5 10 10
10 6 0 10 -4 10 -10z m70 -15 c0 -8 -4 -15 -10 -15 -5 0 -7 7 -4 15 4 8 8 15
10 15 2 0 4 -7 4 -15z m136 -3 c32 -27 57 -70 50 -88 -8 -22 -26 -8 -26 21 0
13 -8 30 -17 37 -24 18 -47 48 -37 48 5 -1 18 -8 30 -18z m760 -19 c-10 -10
-19 5 -10 18 6 11 8 11 12 0 2 -7 1 -15 -2 -18z m58 10 c8 -19 -8 -40 -18 -24
-4 6 -2 11 5 11 7 0 4 7 -7 15 -16 12 -17 14 -3 15 9 0 20 -8 23 -17z m-1039
-3 c3 -5 2 -10 -4 -10 -5 0 -13 5 -16 10 -3 6 -2 10 4 10 5 0 13 -4 16 -10z
m1005 -15 c0 -8 -7 -15 -16 -15 -14 0 -14 3 -4 15 7 8 14 15 16 15 2 0 4 -7 4
-15z m-1076 -54 c2 -28 0 -51 -5 -51 -5 0 -9 26 -9 57 0 69 10 65 14 -6z m284
21 c2 -7 -6 -12 -18 -12 -31 0 -19 -23 18 -36 18 -5 30 -13 26 -17 -4 -3 -15
-2 -24 3 -10 5 -32 11 -49 12 -17 1 -31 8 -31 14 0 7 -3 20 -6 29 -5 13 -2 15
19 10 14 -4 28 -2 32 5 8 13 27 9 33 -8z m-238 -29 c0 -14 -19 -38 -25 -32 -8
8 5 39 16 39 5 0 9 -3 9 -7z m145 -14 c-4 -5 -1 -17 4 -26 6 -10 11 -12 11 -5
0 6 10 12 23 12 21 -1 21 -1 -5 -21 -38 -28 -35 -39 11 -39 24 0 48 -7 62 -20
l24 -20 -55 6 c-51 5 -54 4 -36 -10 19 -15 45 -20 91 -18 11 0 15 -2 8 -4 -7
-3 -9 -13 -6 -21 5 -13 2 -15 -11 -10 -41 16 -66 18 -83 8 -15 -9 -14 -10 13
-11 17 0 48 -11 68 -25 21 -14 35 -21 32 -16 -4 5 -2 12 4 16 12 8 13 -15 0
-35 -8 -12 -11 -12 -28 3 -22 20 -52 22 -74 5 -16 -14 -38 -89 -38 -133 0 -15
-4 -24 -10 -20 -5 3 -10 -1 -10 -9 0 -8 4 -17 8 -20 11 -6 3 -67 -10 -83 -5
-7 -7 -16 -4 -22 8 -13 -11 -61 -24 -61 -16 0 -12 27 5 34 8 3 15 10 15 15 0
6 -7 8 -15 5 -9 -4 -15 0 -15 9 0 8 7 17 15 21 8 3 15 11 15 17 0 8 -4 8 -15
-1 -13 -11 -15 -3 -15 64 0 49 4 75 10 71 6 -3 10 -1 10 4 0 6 -4 11 -10 11
-5 0 -10 10 -11 23 0 21 -1 21 -9 2 -7 -19 -8 -19 -15 -1 -5 11 -3 21 5 26 7
4 9 13 6 19 -11 18 -71 13 -99 -9 -35 -28 -40 -25 -22 10 12 22 26 33 60 41
53 13 50 29 -6 29 -45 0 -44 15 1 25 40 9 38 25 -2 24 -18 0 -27 -3 -20 -6 10
-4 8 -9 -7 -20 -12 -8 -19 -18 -17 -22 3 -4 -1 -8 -9 -8 -21 0 -19 24 3 37 16
11 16 11 0 6 -14 -4 -18 0 -18 19 0 35 41 59 101 59 56 0 63 14 22 45 -29 24
-26 39 5 22 30 -16 39 -14 45 10 3 12 10 18 16 14 6 -3 9 -11 6 -16z m-105 1
c0 -5 -2 -10 -4 -10 -3 0 -8 5 -11 10 -3 6 -1 10 4 10 6 0 11 -4 11 -10z m720
-12 c0 -6 -7 -8 -15 -4 -8 3 -15 1 -15 -4 0 -6 -7 -10 -15 -10 -8 0 -15 5 -15
10 0 6 7 10 15 10 8 0 15 4 15 10 0 5 7 7 15 4 8 -4 15 -11 15 -16z m-421 -75
c1 -7 -6 -13 -14 -13 -9 0 -14 8 -12 23 1 17 -3 22 -20 21 -13 0 -23 1 -23 4
0 2 10 12 23 22 22 18 22 18 34 -13 6 -18 12 -38 12 -44z m-319 47 c-6 -11
-15 -18 -21 -14 -6 4 -6 11 2 20 17 21 31 17 19 -6z m754 -6 c-1 -14 -6 -29
-10 -32 -4 -4 -4 1 -1 11 4 11 1 17 -8 17 -18 0 -20 16 -2 23 22 9 24 7 21
-19z m-705 -13 c-15 -5 -22 6 -14 19 6 9 10 9 16 -1 5 -8 4 -15 -2 -18z m991
19 c0 -5 -5 -10 -11 -10 -5 0 -7 5 -4 10 3 6 8 10 11 10 2 0 4 -4 4 -10z
m-835 -9 c3 -5 1 -12 -5 -16 -5 -3 -10 1 -10 9 0 18 6 21 15 7z m473 -10 c-12
-19 -28 -19 -28 0 0 6 5 7 10 4 6 -3 10 -1 10 4 0 6 5 11 10 11 6 0 5 -8 -2
-19z m-708 -9 c0 -4 -12 -8 -27 -9 -26 -1 -26 0 -9 13 18 13 36 11 36 -4z
m741 -5 c-13 -13 -26 -3 -16 12 3 6 11 8 17 5 6 -4 6 -10 -1 -17z m-451 -17
c14 -10 23 -21 20 -23 -3 -3 -18 6 -35 19 -35 28 -22 32 15 4z m383 -22 c10
-43 46 -130 61 -147 8 -9 14 -19 13 -22 -4 -14 48 -109 59 -109 14 0 69 -55
88 -89 38 -65 43 -77 36 -96 -6 -18 -9 -16 -23 17 -8 20 -25 39 -36 43 -12 3
-21 10 -21 15 0 5 7 7 15 3 12 -4 11 3 -6 31 -21 36 -36 49 -25 21 10 -28 -13
-15 -29 15 -9 17 -20 30 -25 30 -6 0 -3 -12 7 -27 24 -36 -3 -27 -31 11 -17
22 -18 28 -6 36 10 6 11 12 3 22 -5 7 -21 43 -34 80 -18 51 -26 64 -32 50 -5
-11 -6 -8 -2 10 3 15 -1 32 -8 40 -17 17 -38 78 -31 89 8 14 21 2 27 -23z
m407 11 c0 -6 -4 -7 -10 -4 -5 3 -10 11 -10 16 0 6 5 7 10 4 6 -3 10 -11 10
-16z m-657 5 c3 -3 -3 -31 -14 -61 -10 -31 -19 -67 -19 -79 0 -13 -9 -32 -21
-43 -12 -11 -18 -25 -14 -31 4 -6 -2 -20 -14 -31 -12 -11 -21 -30 -21 -43 0
-13 -6 -29 -14 -35 -7 -6 -16 -24 -19 -39 -3 -15 -15 -37 -27 -49 -11 -13 -17
-23 -12 -23 15 0 40 33 47 62 4 15 13 32 21 39 8 6 14 18 14 26 0 10 7 14 20
10 22 -6 41 18 33 41 -4 10 -8 8 -18 -5 -7 -10 -17 -15 -21 -11 -11 12 15 37
37 35 13 -1 18 -6 14 -17 -5 -12 -4 -13 6 -2 7 6 20 12 28 12 14 -1 14 -2 1
-13 -8 -7 -14 -23 -13 -37 l2 -25 -7 25 c-5 15 -11 20 -15 13 -10 -15 16 -74
45 -99 28 -26 68 -47 75 -41 3 3 -9 13 -27 22 -37 19 -70 50 -70 67 0 6 11 2
24 -11 45 -42 142 -40 190 4 30 28 32 25 11 -15 -9 -16 -32 -39 -53 -49 -20
-11 -32 -20 -27 -20 6 0 21 6 35 14 53 30 55 9 3 -28 -23 -16 -31 -27 -22 -27
21 0 88 68 95 98 7 24 24 30 24 7 0 -38 -45 -109 -88 -137 -37 -25 -52 -22
-52 8 0 22 -4 25 -27 22 -25 -3 -28 -8 -31 -45 l-3 -42 -51 3 c-46 2 -51 5
-64 35 -8 18 -14 50 -14 70 l1 36 13 -38 c21 -58 39 -80 71 -83 l28 -3 -36 30
c-21 17 -35 34 -32 39 3 4 -1 10 -9 13 -13 5 -32 74 -22 84 2 3 13 -12 24 -34
19 -36 72 -95 72 -79 0 4 -14 24 -30 45 -17 21 -39 60 -50 87 -21 55 -18 57
-56 -59 -13 -39 -24 -63 -24 -52 -1 14 -4 12 -11 -10 -10 -33 -3 -102 12 -111
5 -3 9 -22 9 -42 0 -56 28 -181 52 -231 12 -24 34 -58 49 -76 l29 -32 -93 21
-92 21 -2 35 -2 35 12 -27 c6 -16 15 -28 20 -28 5 0 6 8 2 18 -5 9 -9 46 -11
82 -3 60 -3 62 7 25 20 -82 33 -116 46 -126 19 -16 16 1 -8 57 -17 37 -23 78
-28 171 -4 67 -9 125 -12 127 -3 3 -14 -29 -25 -72 -15 -64 -19 -112 -18 -282
0 -180 3 -215 23 -285 12 -44 29 -90 37 -102 14 -22 13 -23 -16 -23 -76 0
-144 73 -155 168 -4 32 -11 65 -16 73 -11 16 -3 -74 13 -134 12 -50 63 -104
113 -121 34 -12 45 -12 72 -1 55 23 113 -4 168 -80 11 -15 14 -16 15 -5 0 31
-59 87 -115 110 -31 12 -54 28 -52 34 6 18 46 19 63 2 8 -9 22 -16 30 -16 22
0 109 -46 138 -73 14 -13 33 -42 42 -63 24 -57 96 -186 101 -181 8 8 -117 238
-140 258 -28 25 -112 69 -130 69 -8 0 -20 7 -27 15 -7 8 -31 16 -54 16 -38 1
-39 2 -11 8 l30 7 -28 7 c-15 4 -33 5 -39 1 -7 -4 -8 -3 -4 4 10 17 62 15 96
-3 16 -9 50 -18 75 -22 36 -5 45 -3 45 9 0 18 56 34 145 43 45 4 69 1 93 -10
36 -19 47 -36 68 -107 19 -62 31 -56 15 8 -14 55 -8 67 12 27 18 -33 32 -108
48 -248 6 -55 19 -142 30 -194 16 -79 25 -101 57 -139 20 -25 40 -53 44 -61 5
-13 7 -11 7 5 1 11 -10 31 -23 43 -14 13 -30 37 -37 54 -7 18 -17 35 -21 38
-10 6 -58 289 -58 341 0 85 -37 198 -65 198 -8 0 -18 6 -22 13 -4 7 -19 21
-32 30 -22 14 -24 23 -22 70 2 46 -2 59 -26 87 l-28 33 29 -7 c18 -4 25 -3 21
4 -3 5 -15 10 -26 10 -20 0 -20 1 4 30 14 16 33 51 43 77 9 26 22 53 27 58 14
15 -1 -33 -27 -85 -23 -47 -20 -71 14 -103 10 -9 11 -7 5 13 -4 14 -13 30 -21
36 -17 14 -8 24 14 17 13 -3 14 -2 4 4 -10 8 -10 15 2 37 7 15 17 23 20 17 4
-5 2 -12 -4 -16 -5 -3 -10 -11 -10 -16 0 -6 4 -8 9 -4 11 6 25 -102 25 -207 1
-43 4 -78 9 -78 12 0 8 158 -8 280 -42 319 -52 372 -94 489 -31 89 -26 98 9
16 18 -44 20 -46 15 -15 -3 19 -15 52 -26 74 -23 44 -20 55 6 26 10 -11 26
-20 35 -20 21 0 40 -20 40 -42 0 -11 10 -20 26 -24 17 -4 31 -18 40 -40 8 -18
22 -38 32 -43 21 -11 48 -109 62 -226 5 -44 17 -134 26 -200 11 -87 14 -158
10 -260 -3 -77 -6 -186 -6 -243 l0 -103 -22 11 c-22 11 -22 10 1 -10 13 -11
29 -24 35 -28 25 -16 86 -101 112 -157 24 -52 28 -72 28 -150 0 -125 -31 -195
-125 -287 -38 -36 -69 -71 -69 -76 0 -12 85 -36 104 -29 13 5 13 10 0 36 -9
17 -21 31 -27 31 -7 0 -5 6 4 15 17 18 49 10 49 -11 0 -8 5 -14 10 -14 16 0
11 18 -10 38 -18 16 -18 21 -6 31 20 17 94 -2 113 -28 8 -13 25 -21 41 -21
l27 1 -31 13 c-17 8 -34 21 -37 29 -3 8 -22 21 -41 28 -20 7 -36 19 -36 26 0
22 38 14 58 -12 14 -18 34 -27 64 -31 30 -4 49 -14 65 -33 11 -14 19 -29 17
-32 -2 -4 3 -10 12 -13 8 -3 12 -11 9 -16 -4 -7 2 -9 20 -4 30 8 65 -18 65
-49 0 -15 5 -18 24 -13 16 4 29 0 41 -14 23 -25 13 -37 -18 -22 -12 6 -45 14
-73 17 -43 5 -50 10 -50 27 1 12 -5 23 -11 25 -7 3 -13 -3 -13 -12 0 -10 -6
-15 -17 -13 -12 2 -17 11 -15 24 2 16 -6 26 -32 38 -19 9 -43 16 -55 16 -12 0
-30 9 -40 19 -22 22 -61 45 -66 39 -2 -2 17 -20 42 -41 32 -26 56 -37 78 -37
18 0 38 -7 45 -15 17 -21 4 -32 -20 -17 -24 15 -33 15 -25 2 12 -20 -25 -9
-51 15 -28 26 -54 33 -54 15 0 -5 9 -10 19 -10 11 0 23 -4 26 -10 4 -6 -7 -10
-25 -10 -19 0 -30 -5 -29 -12 4 -32 -1 -42 -13 -30 -7 7 -30 12 -53 11 -35 -1
-37 -2 -15 -9 20 -6 14 -8 -27 -9 -38 -1 -53 3 -53 12 0 9 -23 19 -57 27 -32
7 -69 20 -82 28 -18 11 -25 11 -31 2 -5 -7 -16 -10 -25 -6 -13 5 -16 14 -11
36 3 17 1 30 -4 30 -6 0 -10 -16 -10 -35 0 -25 5 -37 18 -41 9 -3 25 -10 36
-15 12 -7 16 -7 12 0 -8 13 42 4 94 -16 l35 -13 -37 5 c-20 3 -39 2 -42 -3 -6
-11 -90 7 -124 27 -20 11 -23 19 -19 49 3 21 8 47 12 60 7 21 6 22 -20 12 -37
-14 -43 -6 -11 16 15 9 24 19 22 21 -3 3 -17 -4 -32 -16 -29 -23 -42 -25 -62
-12 -11 7 -12 12 -1 29 10 16 10 25 1 44 -12 22 -12 22 -7 -5 7 -32 -9 -59
-30 -51 -8 3 -24 27 -37 52 -27 56 -68 119 -68 104 0 -6 14 -34 32 -61 32 -52
32 -85 0 -41 -41 58 -155 273 -188 355 -19 50 -42 99 -51 110 l-15 20 5 -20
c11 -40 89 -220 107 -245 9 -14 21 -36 24 -50 6 -19 5 -21 -3 -10 -8 12 -13
12 -23 2 -10 -10 -8 -27 15 -90 15 -42 29 -101 31 -129 3 -50 2 -53 -21 -53
-13 0 -32 4 -41 9 -9 5 -48 10 -87 12 -55 3 -69 0 -67 -10 2 -8 -3 -18 -10
-22 -10 -7 -9 -9 5 -9 9 0 17 -4 17 -10 0 -19 -27 -10 -63 23 -55 48 -51 77
19 142 63 58 62 54 35 185 l-10 45 4 -50 c3 -27 8 -67 11 -89 6 -37 4 -41 -50
-91 -53 -48 -57 -56 -54 -90 2 -31 10 -43 45 -68 53 -38 140 -50 163 -22 20
24 -4 37 -57 30 -36 -5 -43 -3 -43 11 0 14 9 15 68 10 37 -3 87 -9 111 -12
l44 -6 -8 48 c-6 43 -5 47 9 35 9 -8 16 -30 17 -55 1 -34 2 -37 8 -14 5 24 8
25 25 12 19 -14 19 -15 -8 -43 -16 -16 -25 -34 -22 -40 13 -20 83 -32 138 -23
57 8 88 6 88 -8 0 -19 -206 -36 -253 -21 -39 13 -44 37 -10 46 31 7 29 22 -4
26 -53 8 -73 -1 -80 -32 -7 -36 -26 -36 -200 -3 -13 2 -23 13 -25 27 -2 15
-11 23 -28 25 -23 2 -24 1 -7 -11 9 -8 17 -19 17 -24 0 -13 38 -39 65 -46 20
-5 20 -5 0 -6 -11 0 -33 6 -49 14 -27 14 -30 14 -43 -5 -8 -12 -25 -20 -41
-20 l-27 1 28 17 c17 10 27 25 27 40 0 35 -28 39 -58 8 -15 -14 -22 -26 -15
-26 6 0 16 7 23 15 17 20 30 19 30 -2 0 -12 -15 -24 -43 -35 -44 -19 -87 -15
-87 8 0 22 -20 27 -39 10 -10 -9 -24 -16 -32 -16 -8 0 -20 -5 -27 -12 -15 -15
-16 -3 -2 23 6 10 17 19 25 19 8 0 15 6 15 14 0 8 3 22 7 32 4 12 3 15 -5 10
-7 -4 -12 -16 -12 -26 0 -10 -8 -21 -17 -24 -10 -4 -25 -21 -33 -39 l-15 -32
-148 -3 -148 -3 3 63 3 63 35 -5 c76 -10 298 -4 313 8 8 7 22 10 31 6 31 -12
134 45 120 67 -9 16 29 80 52 89 17 7 28 26 43 72 10 35 22 71 26 81 4 9 3 17
-2 17 -6 0 -20 -34 -32 -75 -26 -86 -41 -103 -41 -46 0 26 -6 46 -19 58 -15
15 -18 31 -16 98 1 44 3 153 5 243 l2 162 58 0 57 0 8 -103 c9 -116 8 -148 -6
-231 -9 -52 -7 -77 6 -65 2 3 8 37 11 77 4 42 11 69 17 65 13 -8 -1 -140 -20
-177 -8 -16 -15 -47 -15 -69 1 -21 -8 -52 -19 -70 -10 -18 -19 -39 -19 -48 0
-9 -11 -28 -25 -43 -14 -15 -25 -33 -25 -41 0 -8 -25 -39 -56 -69 -31 -30 -53
-59 -50 -65 10 -15 26 -14 26 1 0 7 9 21 20 33 10 11 28 30 40 42 23 26 45 30
36 7 -4 -10 -1 -14 6 -12 20 7 23 48 4 48 -24 0 -19 17 14 52 16 17 30 42 30
54 0 13 5 24 11 24 5 0 8 4 4 9 -3 5 -1 12 5 16 5 3 10 24 10 46 0 22 6 54 14
72 19 47 29 120 30 219 1 80 -5 108 -17 76 -10 -30 -18 6 -19 84 -1 84 11 128
35 128 20 0 67 24 67 34 0 4 -8 5 -17 1 -35 -15 -85 -17 -109 -5 -24 14 -53
77 -54 120 0 14 -3 75 -6 135 -6 112 5 203 51 450 4 19 91 165 116 194 10 11
10 13 -2 9 -8 -2 -22 -20 -31 -39 -9 -20 -23 -41 -32 -48 -48 -40 21 121 80
184 49 53 77 119 105 243 21 98 23 102 49 102 15 0 29 -3 33 -6z m230 -71 c12
-37 26 -68 31 -68 7 0 46 -90 46 -108 0 -5 -6 -7 -12 -4 -7 2 -13 11 -13 20 0
9 -8 22 -17 29 -14 12 -68 167 -68 199 0 24 12 0 33 -68z m-90 50 c-24 -16
-30 -56 -13 -83 8 -12 10 -11 10 6 0 15 6 21 18 20 9 0 16 4 15 11 -2 7 4 10
12 7 19 -8 20 -64 1 -108 -17 -40 -61 -77 -84 -69 -35 12 -82 67 -88 102 -3
20 -8 45 -11 55 -4 15 -1 17 11 13 9 -4 24 -10 33 -14 12 -5 15 -2 10 10 -3 9
-2 19 4 23 6 4 4 13 -7 25 -17 18 -15 19 47 18 61 0 63 -1 42 -16z m-93 -13
c12 -8 9 -10 -13 -10 -16 0 -26 4 -22 10 8 12 16 12 35 0z m125 0 c-28 -12
-37 -12 -30 0 3 6 16 10 28 9 21 0 21 -1 2 -9z m415 -20 c0 -5 -7 -7 -15 -4
-8 4 -15 8 -15 10 0 2 7 4 15 4 8 0 15 -4 15 -10z m-283 -62 c-3 -8 -6 -5 -6
6 -1 11 2 17 5 13 3 -3 4 -12 1 -19z m-732 -12 c-16 -13 -32 -22 -35 -19 -7 6
39 43 54 43 6 0 -2 -11 -19 -24z m1045 -21 c0 -7 6 -15 13 -18 6 -2 9 -7 6
-11 -9 -9 -39 22 -39 40 0 8 5 12 10 9 6 -3 10 -12 10 -20z m-224 -1 c-3 -9
-6 -21 -6 -27 0 -8 -3 -8 -10 -1 -12 12 -3 44 12 44 6 0 7 -7 4 -16z m-560
-52 c-11 -10 -14 3 -8 33 l7 30 3 -28 c2 -16 1 -31 -2 -35z m-196 23 c0 -9 -6
-12 -15 -9 -8 4 -15 1 -15 -6 0 -6 -5 -10 -11 -8 -18 6 -11 23 13 30 13 3 24
6 26 7 1 1 2 -6 2 -14z m245 5 c3 -5 2 -10 -4 -10 -5 0 -13 5 -16 10 -3 6 -2
10 4 10 5 0 13 -4 16 -10z m555 -30 c0 -14 -39 -42 -49 -35 -17 10 -13 38 3
32 10 -4 13 -1 10 8 -4 10 0 12 15 8 12 -3 21 -9 21 -13z m93 -10 c3 -11 1
-23 -4 -26 -5 -3 -9 6 -9 20 0 31 6 34 13 6z m-703 -27 c0 -24 -25 -9 -28 17
-3 21 -2 22 12 11 9 -7 16 -20 16 -28z m-250 7 c0 -11 -2 -20 -4 -20 -2 0 -6
9 -9 20 -3 11 -1 20 4 20 5 0 9 -9 9 -20z m50 6 c0 -22 -11 -46 -21 -46 -10 0
-12 43 -2 53 11 12 23 8 23 -7z m150 -7 c-7 -11 -14 -18 -17 -15 -8 8 5 36 17
36 7 0 7 -6 0 -21z m590 11 c0 -5 -4 -10 -10 -10 -5 0 -10 5 -10 10 0 6 5 10
10 10 6 0 10 -4 10 -10z m285 0 c3 -5 1 -10 -4 -10 -6 0 -11 5 -11 10 0 6 2
10 4 10 3 0 8 -4 11 -10z m-995 -4 c0 -3 -4 -8 -10 -11 -5 -3 -10 -1 -10 4 0
6 5 11 10 11 6 0 10 -2 10 -4z m186 -34 c-18 -16 -19 -16 -12 1 3 10 6 24 6
30 0 8 4 7 12 -1 9 -9 8 -16 -6 -30z m292 16 c29 2 33 -1 39 -29 4 -21 9 -27
16 -20 17 17 27 13 27 -9 0 -41 -80 -70 -141 -50 -46 15 -55 37 -37 85 11 32
15 35 38 29 14 -4 40 -7 58 -6z m252 -8 c0 -5 -4 -10 -10 -10 -5 0 -10 5 -10
10 0 6 5 10 10 10 6 0 10 -4 10 -10z m55 0 c-3 -5 -10 -10 -16 -10 -5 0 -9 5
-9 10 0 6 7 10 16 10 8 0 12 -4 9 -10z m133 -9 c3 -8 -1 -12 -9 -9 -7 2 -15
10 -17 17 -3 8 1 12 9 9 7 -2 15 -10 17 -17z m-918 -11 c0 -11 -2 -20 -4 -20
-2 0 -6 9 -9 20 -3 11 -1 20 4 20 5 0 9 -9 9 -20z m990 5 c10 -12 10 -15 -3
-15 -8 0 -20 7 -27 15 -10 12 -10 15 3 15 8 0 20 -7 27 -15z m-375 -26 c9 -17
15 -33 13 -35 -3 -2 -12 12 -21 31 -21 43 -13 47 8 4z m35 -2 c-1 -21 -1 -21
-15 -3 -8 10 -12 23 -9 28 9 14 24 -2 24 -25z m-708 12 c17 -9 18 -13 7 -20
-21 -13 -26 -11 -32 11 -6 23 -3 24 25 9z m171 -9 c-3 -11 -7 -20 -9 -20 -2 0
-4 9 -4 20 0 11 4 20 9 20 5 0 7 -9 4 -20z m30 -10 c-3 -11 -7 -20 -9 -20 -2
0 -4 9 -4 20 0 11 4 20 9 20 5 0 7 -9 4 -20z m660 -21 c7 -1 17 -1 23 0 6 1
11 -12 11 -29 0 -16 -4 -30 -9 -30 -4 0 -8 4 -8 9 0 5 -12 23 -26 40 -16 19
-22 35 -17 43 6 9 9 6 11 -9 2 -13 9 -24 15 -24z m-899 -18 c-7 -9 -24 13 -24
32 0 21 1 21 13 -3 8 -14 12 -27 11 -29z m1094 7 c3 -40 1 -43 -26 -29 -9 4
-33 11 -54 15 -36 7 -36 6 -43 -34 -10 -56 -25 -50 -25 10 0 48 2 52 33 65 17
8 50 14 72 12 39 -2 40 -3 43 -39z m-978 3 c0 -20 -8 -34 -26 -46 -14 -9 -32
-32 -40 -52 -13 -31 -13 -38 1 -59 9 -14 25 -24 39 -24 22 0 24 -4 24 -45 0
-26 -6 -51 -14 -59 -8 -8 -14 -19 -14 -25 0 -6 -5 -11 -10 -11 -7 0 -7 7 0 21
18 32 6 45 -17 20 -12 -13 -26 -20 -32 -16 -16 9 -13 25 4 25 8 0 15 7 15 16
0 12 6 15 24 10 14 -3 27 -2 30 3 7 11 -22 23 -35 15 -5 -3 -9 -1 -9 5 0 6 -8
7 -17 4 -12 -5 -15 -2 -10 10 3 9 2 17 -3 17 -26 0 -50 41 -50 86 0 55 28 100
74 120 50 22 66 18 66 -15z m95 -31 c-9 -29 -26 -12 -18 18 4 15 9 20 15 14 6
-6 7 -20 3 -32z m-483 -37 c9 -11 9 -22 0 -46 -10 -27 -9 -34 8 -52 27 -29 34
-79 15 -119 -17 -35 -45 -46 -122 -46 l-33 0 0 118 c0 64 -3 127 -6 139 -6 20
-2 22 42 25 61 4 80 0 96 -19z m1308 -9 c0 -8 -4 -14 -10 -14 -5 0 -10 9 -10
21 0 11 5 17 10 14 6 -3 10 -13 10 -21z m-300 6 c0 -5 -5 -10 -11 -10 -5 0 -7
5 -4 10 3 6 8 10 11 10 2 0 4 -4 4 -10z m270 0 c0 -5 -4 -10 -10 -10 -5 0 -10
5 -10 10 0 6 5 10 10 10 6 0 10 -4 10 -10z m79 -16 c-14 -17 -30 -9 -23 11 3
7 12 11 20 8 11 -4 12 -9 3 -19z m-969 -15 c0 -10 -4 -19 -10 -19 -5 0 -10 5
-10 11 0 5 -4 7 -10 4 -5 -3 -10 0 -10 7 0 8 9 14 20 15 14 1 20 -4 20 -18z
m634 -54 c-32 -223 -125 -393 -210 -383 -18 2 -30 0 -28 -4 8 -13 48 -9 88 7
37 16 85 72 104 122 6 15 22 66 36 113 24 82 25 83 25 40 1 -57 -66 -257 -103
-304 -30 -40 -82 -56 -122 -37 -13 6 -24 7 -24 2 0 -12 26 -21 64 -21 52 0 99
44 140 130 19 41 38 88 42 103 3 15 8 26 10 24 5 -5 -22 -130 -33 -153 -6 -10
-20 -37 -31 -59 -11 -22 -31 -46 -44 -53 -23 -13 -23 -13 7 -10 38 4 68 56 91
158 10 41 23 89 30 105 l13 30 1 -26 c0 -44 -39 -222 -55 -246 -23 -34 -63
-57 -78 -46 -6 6 -41 13 -77 17 -36 3 -66 11 -68 16 -2 6 -10 10 -18 10 -20 0
-70 55 -95 103 -24 46 -55 184 -65 287 -9 99 3 85 22 -25 15 -87 48 -169 77
-194 9 -6 28 -14 43 -17 15 -3 31 -7 36 -10 11 -7 68 5 68 14 0 4 -23 7 -50 8
-69 1 -96 19 -124 78 -30 64 -68 245 -55 266 6 11 8 7 9 -15 0 -41 42 -145 58
-145 7 0 10 -4 7 -10 -7 -11 25 -70 38 -70 4 0 5 5 2 10 -3 6 0 10 8 10 16 0
27 -21 27 -51 0 -14 7 -19 30 -19 28 0 29 1 32 58 l3 57 43 3 c47 4 63 22 43
53 -9 15 -8 19 2 19 8 0 19 10 26 23 10 19 11 17 5 -18 -6 -43 -29 -91 -70
-145 -21 -29 -19 -27 14 8 42 44 62 92 82 196 14 67 33 59 24 -9z m271 56 c10
-17 -15 -23 -31 -7 -14 15 -14 16 5 16 11 0 22 -4 26 -9z m35 -11 c0 -5 -4
-10 -10 -10 -5 0 -10 5 -10 10 0 6 5 10 10 10 6 0 10 -4 10 -10z m40 -5 c0 -8
-7 -15 -15 -15 -26 0 -18 20 13 29 1 1 2 -6 2 -14z m-1010 -15 c0 -19 -18 -19
-23 -1 -3 14 -1 18 9 14 8 -3 14 -9 14 -13z m605 -22 c-22 -43 -53 -68 -87
-68 -39 0 -35 16 10 39 20 10 48 31 61 45 31 33 37 27 16 -16z m-575 7 c0 -8
-4 -15 -10 -15 -5 0 -7 7 -4 15 4 8 8 15 10 15 2 0 4 -7 4 -15z m940 -20 c11
4 18 11 15 16 -3 5 1 6 9 3 22 -9 21 -60 -1 -69 -10 -3 -20 -6 -23 -6 -3 -1
-11 -5 -17 -11 -10 -8 -13 -5 -13 11 0 14 -6 21 -18 21 -25 0 -42 19 -42 48
l0 24 35 -22 c22 -13 42 -19 55 -15z m-15 25 c3 -5 -1 -10 -9 -10 -9 0 -16 5
-16 10 0 6 4 10 9 10 6 0 13 -4 16 -10z m-477 -48 l3 -42 44 0 c43 0 65 -12
45 -25 -6 -3 -28 -6 -49 -7 -38 0 -39 -1 -44 -42 -4 -23 -4 -52 0 -64 6 -24 3
-25 -21 -16 -12 5 -16 20 -16 60 0 54 -6 62 -44 55 -18 -4 -46 11 -46 25 0 10
13 14 45 14 48 0 48 1 45 58 -1 28 2 33 17 30 13 -2 19 -14 21 -46z m-231 6
c-3 -7 -5 -2 -5 12 0 14 2 19 5 13 2 -7 2 -19 0 -25z m118 12 c3 -5 1 -10 -4
-10 -6 0 -11 5 -11 10 0 6 2 10 4 10 3 0 8 -4 11 -10z m-430 -61 c10 -15 -15
-20 -30 -5 -8 8 -15 17 -15 19 0 8 40 -4 45 -14z m1004 -20 c11 -19 11 -21 -4
-15 -9 3 -19 6 -21 6 -2 0 -4 7 -4 15 0 21 13 19 29 -6z m67 -46 c-10 -10 -19
5 -10 18 6 11 8 11 12 0 2 -7 1 -15 -2 -18z m-585 -5 c10 -18 9 -20 -6 -15 -9
4 -23 7 -30 7 -7 0 -15 7 -19 15 -9 25 41 19 55 -7z m-501 8 c0 -2 -7 -6 -15
-10 -8 -3 -15 -1 -15 4 0 6 7 10 15 10 8 0 15 -2 15 -4z m297 -18 c-3 -8 -6
-5 -6 6 -1 11 2 17 5 13 3 -3 4 -12 1 -19z m747 16 c8 -3 12 -12 9 -20 -4 -10
2 -17 16 -21 28 -7 27 -21 -5 -33 -40 -15 -50 -12 -51 18 0 15 1 19 4 10 2
-10 9 -18 14 -18 14 0 11 58 -3 63 -7 3 -10 6 -6 6 3 1 13 -2 22 -5z m-1029
-33 c-3 -10 1 -24 10 -31 14 -11 17 -10 22 8 l5 21 18 -22 c21 -26 16 -40 -11
-32 -12 4 -21 1 -25 -9 -8 -20 -24 -21 -24 -1 0 18 -12 19 -28 3 -9 -9 -12 -6
-12 15 0 17 5 27 15 27 8 0 15 9 15 20 0 11 5 20 11 20 6 0 8 -8 4 -19z m1160
-41 c4 -6 -10 -10 -37 -9 -40 1 -41 2 -13 9 43 11 43 11 50 0z m-1675 -10 c0
-5 -5 -10 -11 -10 -5 0 -7 5 -4 10 3 6 8 10 11 10 2 0 4 -4 4 -10z m450 -25
c0 -11 -12 -15 -45 -15 -42 0 -54 7 -38 23 3 4 24 7 45 7 27 0 38 -4 38 -15z
m1130 -37 c0 -15 -4 -15 -30 -7 -28 10 -40 36 -24 52 10 10 53 -26 54 -45z
m95 28 c0 -9 -3 -16 -7 -16 -5 0 -21 0 -38 0 -30 0 -43 24 -17 33 26 9 62 0
62 -17z m398 17 c-7 -2 -19 -2 -25 0 -7 3 -2 5 12 5 14 0 19 -2 13 -5z m-1497
-48 c-4 -14 -11 -25 -17 -25 -5 0 -26 -7 -45 -15 -30 -12 -33 -17 -22 -29 11
-12 17 -12 41 0 26 14 27 13 27 -10 0 -19 -6 -25 -32 -29 -40 -6 -48 -2 -48
23 0 10 -5 20 -12 22 -14 5 58 87 87 98 23 9 29 -1 21 -35z m-95 13 c11 -21
11 -22 -4 -9 -10 7 -17 17 -17 22 0 15 9 10 21 -13z m1619 7 c0 -16 -55 -22
-64 -6 -8 13 5 21 36 21 18 0 28 -5 28 -15z m-1652 -111 c0 -121 -4 -141 -27
-147 -11 -3 -9 -5 7 -6 18 -1 22 -7 22 -31 0 -23 -4 -30 -20 -30 -11 0 -20 -4
-20 -10 0 -5 7 -10 15 -10 8 0 15 -5 15 -11 0 -5 -4 -7 -10 -4 -5 3 -10 1 -10
-4 0 -6 7 -11 15 -11 11 0 15 -12 15 -50 0 -45 -2 -50 -22 -51 -23 -2 -23 -2
1 -6 22 -4 23 -8 19 -74 -2 -38 0 -69 4 -69 4 0 8 -7 8 -15 0 -11 -11 -15 -36
-15 -21 0 -33 -4 -29 -10 3 -5 21 -10 38 -10 l32 -1 -25 -14 -25 -14 25 -1
c18 0 21 -3 11 -9 -9 -6 -10 -11 -2 -15 14 -9 12 -116 -2 -116 -5 0 -4 -7 3
-15 11 -13 7 -15 -21 -17 l-34 -1 33 -4 c32 -4 46 -23 17 -23 -8 0 -15 -4 -15
-10 0 -5 7 -10 15 -10 11 0 14 -21 14 -111 0 -96 -2 -110 -15 -105 -9 3 -23 6
-32 6 -15 0 -17 13 -17 92 0 51 -4 179 -9 285 -8 162 -7 191 5 191 38 -2 51 5
19 11 l-35 6 -1 145 c-1 80 -4 199 -8 264 -7 132 -6 136 51 136 l32 0 -1 -106z
m852 26 c-16 -60 -23 -43 -8 21 7 30 14 46 16 37 2 -9 -2 -35 -8 -58z m359 61
c11 -7 12 -65 6 -332 -4 -178 -9 -327 -11 -331 -3 -4 -5 -40 -5 -80 0 -40 -3
-83 -6 -95 -4 -20 -6 -20 -22 -5 -16 15 -17 18 -3 30 14 11 14 12 -1 12 -15 0
-17 13 -17 110 0 105 1 111 23 120 17 7 18 9 5 9 -21 1 -24 17 -5 24 7 3 5 6
-5 6 -23 1 -26 61 -3 61 8 0 15 5 15 11 0 5 -4 7 -10 4 -5 -3 -10 -2 -10 4 0
5 8 12 18 14 13 4 11 5 -5 6 -21 1 -23 6 -23 61 0 55 2 60 23 61 l22 0 -22 9
c-20 8 -23 17 -24 62 -4 241 -4 238 41 247 3 0 11 -3 19 -8z m-1660 -43 c-1
-24 -5 -72 -9 -108 -7 -62 -7 -59 -8 43 -1 66 2 107 8 107 6 0 9 -19 9 -42z
m2097 -506 c2 -535 -7 -700 -20 -394 -3 86 -9 187 -13 225 -5 61 -4 67 13 68
18 1 18 2 1 6 -11 3 -16 11 -13 19 3 9 1 12 -4 9 -6 -4 -10 27 -11 82 -1 48
-4 185 -8 303 -4 118 -5 219 -3 223 2 5 16 7 30 5 l27 -3 1 -543z m-516 518
c0 -5 -4 -12 -10 -15 -5 -3 -10 -4 -10 -1 0 2 -3 12 -6 20 -5 12 -2 15 10 10
9 -3 16 -10 16 -14z m10 -56 c0 -2 -7 -4 -15 -4 -8 0 -15 4 -15 10 0 5 7 7 15
4 8 -4 15 -8 15 -10z m-1040 -28 c0 -3 -4 -8 -10 -11 -5 -3 -10 -1 -10 4 0 6
5 11 10 11 6 0 10 -2 10 -4z m-57 -28 c3 -12 4 -25 1 -30 -7 -11 -34 -10 -34
2 0 6 4 10 9 10 5 0 7 9 4 20 -3 11 -1 20 5 20 5 0 12 -10 15 -22z m1087 -4
c0 -8 -4 -12 -10 -9 -5 3 -10 1 -10 -6 0 -7 -3 -9 -6 -6 -4 4 -1 13 6 22 16
19 20 19 20 -1z m-1030 -13 c0 -12 -15 -27 -40 -40 -49 -26 -52 -13 -5 28 42
36 45 37 45 12z m267 3 c-3 -3 -12 -4 -19 -1 -8 3 -5 6 6 6 11 1 17 -2 13 -5z
m47 -13 c3 -5 -4 -12 -17 -15 -22 -6 -22 -7 -3 -21 28 -21 63 -19 71 5 3 11
13 20 20 20 9 0 12 -6 9 -15 -15 -38 47 -61 66 -25 13 23 40 27 40 5 0 -8 -7
-15 -15 -15 -27 0 -16 -18 16 -25 18 -4 35 -3 42 4 8 8 6 11 -7 11 -29 0 -12
25 19 28 25 3 27 2 16 -12 -7 -8 -10 -20 -6 -26 3 -5 1 -10 -4 -10 -6 0 -11
-9 -11 -20 0 -12 -7 -21 -17 -21 -10 -1 0 -5 22 -8 l40 -6 -35 -19 c-51 -27
-68 -44 -75 -77 -8 -37 -23 -37 -122 1 -110 43 -125 56 -131 120 -5 52 -4 53
19 46 92 -26 136 -36 154 -35 11 1 -7 7 -40 14 -90 21 -140 40 -140 56 0 8 6
13 14 11 7 -2 20 6 28 18 15 21 38 26 47 11z m34 -13 c-3 -7 -13 -15 -23 -16
-15 -4 -16 -2 -4 12 17 19 32 21 27 4z m100 -25 c-2 -10 -10 -18 -18 -18 -8 0
-16 8 -18 18 -2 12 3 17 18 17 15 0 20 -5 18 -17z m-448 -3 c0 -5 -2 -10 -4
-10 -3 0 -8 5 -11 10 -3 6 -1 10 4 10 6 0 11 -4 11 -10z m1024 -14 c-3 -9 -10
-16 -15 -16 -14 0 -11 28 4 33 16 6 19 3 11 -17z m-1071 -43 c-3 -18 -9 -31
-13 -28 -6 4 -6 34 -1 75 1 2 5 0 10 -5 5 -6 7 -25 4 -42z m667 18 c0 -13 7
-16 33 -13 51 6 64 -17 43 -73 -15 -38 -23 -46 -54 -54 -20 -5 -48 -9 -62 -9
-14 1 -34 -3 -45 -7 -17 -8 -18 -7 -7 7 8 10 9 17 2 20 -5 1 11 19 37 39 48
35 51 44 39 95 -5 17 -3 23 4 19 5 -3 10 -14 10 -24z m-16 -28 c4 -12 2 -24
-3 -28 -7 -4 -8 1 -4 12 6 15 4 16 -9 5 -11 -9 -18 -10 -23 -2 -3 5 -1 10 5
10 8 0 10 9 6 26 -6 23 -5 24 7 12 8 -8 17 -23 21 -35z m-606 15 c-4 -29 -38
-38 -38 -10 0 22 8 32 27 32 9 0 13 -8 11 -22z m1040 -48 c2 -44 0 -50 -18
-50 -16 0 -20 7 -20 30 0 17 5 30 11 30 8 0 8 4 0 14 -11 13 -5 22 19 25 3 1
7 -21 8 -49z m-1597 3 c-9 -16 -10 -14 -11 12 0 21 3 26 11 18 8 -8 8 -16 0
-30z m513 -13 c31 -11 42 -32 51 -95 8 -50 7 -50 -11 -28 -11 13 -27 34 -37
48 -10 14 -24 25 -32 25 -10 0 -15 10 -15 30 0 32 5 35 44 20z m-504 -150 c0
-71 -4 -130 -8 -130 -5 0 -8 58 -8 130 1 71 4 130 9 130 4 0 7 -58 7 -130z
m1571 47 c-1 -12 -15 -9 -19 4 -3 6 1 10 8 8 6 -3 11 -8 11 -12z m454 -47 c3
-5 -3 -10 -14 -10 -12 0 -21 5 -21 10 0 6 6 10 14 10 8 0 18 -4 21 -10z
m-1457 -55 c-1 -25 -5 -45 -9 -45 -5 0 -6 8 -2 18 5 14 3 15 -8 5 -7 -7 -27
-13 -45 -13 -26 0 -33 5 -36 25 -5 22 -2 25 26 25 18 0 41 7 52 15 10 8 20 15
21 15 0 0 1 -20 1 -45z m1020 -15 c-4 -36 -42 -35 -46 1 -3 23 0 27 23 25 21
-1 25 -5 23 -26z m-1071 -52 c-3 -8 -6 -5 -6 6 -1 11 2 17 5 13 3 -3 4 -12 1
-19z m122 -21 c-8 -18 -19 -22 -65 -25 -59 -3 -65 4 -31 35 25 24 64 33 89 21
14 -7 15 -13 7 -31z m946 23 c-3 -5 -11 -10 -16 -10 -6 0 -7 5 -4 10 3 6 11
10 16 10 6 0 7 -4 4 -10z m-1082 -50 c-7 -25 -31 -27 -29 -2 1 19 16 33 27 26
4 -2 5 -13 2 -24z m-504 -137 c0 -87 -4 -178 -8 -203 -5 -29 -8 26 -9 158 0
118 3 202 9 202 5 0 9 -66 8 -157z m1566 90 c4 -91 -11 -111 -20 -26 -6 65 -1
103 12 89 3 -3 6 -31 8 -63z m25 -3 c0 -5 -2 -10 -4 -10 -3 0 -8 5 -11 10 -3
6 -1 10 4 10 6 0 11 -4 11 -10z m-1092 -19 c3 -8 -1 -12 -9 -9 -7 2 -15 10
-17 17 -3 8 1 12 9 9 7 -2 15 -10 17 -17z m-4 -50 c4 -5 0 -11 -6 -14 -10 -3
-10 -7 1 -21 8 -9 11 -20 7 -23 -10 -10 -26 17 -26 45 0 22 14 30 24 13z
m1093 -13 c-3 -8 -6 -5 -6 6 -1 11 2 17 5 13 3 -3 4 -12 1 -19z m-1087 -182
c0 -15 -14 -35 -21 -30 -15 9 -10 34 6 34 8 0 15 -2 15 -4z m-10 -76 c0 -5 -5
-10 -11 -10 -5 0 -7 5 -4 10 3 6 8 10 11 10 2 0 4 -4 4 -10z m-3 -87 c-4 -17
-4 -17 -12 0 -4 9 -4 25 0 35 8 16 8 16 12 0 3 -10 3 -26 0 -35z m-487 27 c0
-5 -4 -10 -10 -10 -5 0 -10 5 -10 10 0 6 5 10 10 10 6 0 10 -4 10 -10z m2098
-172 l2 -145 -37 -7 c-64 -10 -93 -7 -93 9 0 18 17 20 23 3 4 -10 7 -10 18 0
11 10 11 12 -1 12 -13 0 -13 2 0 11 12 9 11 10 -7 6 -13 -3 -24 1 -27 9 -4 9
9 18 42 28 l47 14 -43 7 c-46 8 -65 22 -29 21 17 -1 23 6 25 28 3 27 2 28 -13
13 -9 -10 -23 -17 -30 -17 -8 0 -19 -9 -25 -20 -6 -11 -17 -20 -25 -20 -24 0
-17 -20 8 -21 l22 0 -22 -9 c-13 -5 -23 -12 -23 -15 0 -3 10 -10 23 -15 17 -7
18 -9 5 -9 -10 -1 -18 -5 -18 -10 0 -5 9 -7 20 -4 14 4 20 0 20 -11 0 -12 -10
-16 -36 -16 -29 0 -44 7 -70 35 -18 20 -47 38 -65 42 -33 6 -109 71 -109 92 0
8 15 10 50 5 36 -5 50 -3 50 5 0 7 -4 10 -8 7 -5 -3 -25 -1 -44 5 -29 7 -35
13 -31 29 6 24 21 25 52 4 19 -14 43 -16 141 -12 113 4 118 5 143 32 15 16 29
37 33 48 3 10 11 17 17 15 8 -2 13 -49 15 -149z m-1723 113 c-3 -6 -11 -11
-17 -11 -6 0 -6 6 2 15 14 17 26 13 15 -4z m538 -18 c14 -64 191 -223 248
-223 37 0 59 -19 59 -50 0 -39 -17 -39 -98 0 -79 39 -160 119 -195 192 -32 69
-43 108 -29 108 5 0 12 -12 15 -27z m41 -20 c15 -25 24 -48 22 -50 -6 -6 -56
69 -56 84 0 22 7 15 34 -34z m1086 38 c0 -13 -29 -35 -37 -27 -3 3 -1 6 5 6 7
0 12 7 12 15 0 8 5 15 10 15 6 0 10 -4 10 -9z m-1940 -16 c23 -8 70 -15 104
-15 49 -1 57 -3 42 -12 -22 -12 -129 4 -181 27 -41 18 -17 18 35 0z m175 5
c-28 -12 -37 -12 -30 0 3 6 16 10 28 9 21 0 21 -1 2 -9z m65 -9 c0 -11 -31
-24 -39 -16 -3 3 1 10 9 15 19 12 30 12 30 1z m153 -52 c-14 -14 -109 -40
-163 -44 -25 -2 -65 -6 -90 -9 -53 -6 -182 7 -224 23 -48 19 -23 22 43 5 53
-13 84 -14 199 -6 140 10 173 15 214 31 31 13 34 13 21 0z m598 -261 c-26 -4
-50 -3 -55 2 -6 6 -18 10 -28 10 -24 0 -23 15 3 38 20 19 21 19 73 -12 l53
-31 -46 -7z m-273 45 c2 -9 -7 -13 -27 -13 -23 0 -29 4 -24 16 6 17 44 15 51
-3z m759 -19 c10 -22 10 -25 -3 -20 -9 3 -21 6 -27 6 -7 0 -19 5 -27 10 -13 9
-13 11 0 20 25 16 44 11 57 -16z m523 -34 c0 -51 -3 -60 -18 -60 -10 0 -29 11
-42 26 -18 18 -31 23 -47 19 -18 -4 -23 -1 -23 14 0 10 -7 25 -17 32 -15 13
-12 15 23 20 21 3 58 7 82 8 l42 1 0 -60z m-1180 21 c-15 -4 -26 -15 -28 -29
-3 -18 3 -23 27 -28 73 -15 29 -21 -150 -22 -154 -1 -189 1 -180 12 7 8 29 11
71 8 33 -2 66 0 73 6 7 6 31 7 59 3 55 -9 63 -5 77 32 9 22 16 27 43 26 30 -1
31 -2 8 -8z m785 -30 c3 -6 -3 -14 -12 -20 -10 -6 -14 -11 -9 -11 5 0 17 6 25
14 9 8 25 16 36 17 24 4 113 -20 121 -32 3 -5 16 -9 30 -9 13 0 24 -4 24 -8 0
-9 -349 -6 -358 3 -3 3 13 5 36 5 22 0 44 5 47 10 4 6 11 8 16 4 5 -3 9 -2 8
3 -5 30 21 47 36 24z m-1289 -38 c-10 -10 -59 -12 -74 -4 -15 9 -15 10 4 11
12 0 27 7 35 16 12 14 14 14 26 -2 7 -10 11 -19 9 -21z m828 28 c7 -11 96 -23
194 -26 40 -1 75 -5 79 -9 10 -9 -416 -5 -447 4 -18 6 -9 8 35 9 33 1 74 8 90
16 37 17 42 17 49 6z m-221 -38 c-7 -2 -19 -2 -25 0 -7 3 -2 5 12 5 14 0 19
-2 13 -5z m1025 -29 c57 -7 71 -24 19 -24 -61 0 -78 -48 -27 -75 30 -16 39
-38 19 -50 -5 -4 -18 0 -28 9 -18 17 -31 12 -31 -11 0 -16 53 -18 81 -3 18 10
19 7 19 -39 l0 -50 -152 -3 c-198 -4 -1941 2 -1946 6 -2 2 -6 45 -9 95 -5 80
-4 91 11 91 13 0 16 -11 16 -58 0 -47 3 -59 16 -59 14 0 15 9 10 54 -5 44 -3
55 10 60 9 3 20 0 25 -8 6 -10 9 -7 9 13 0 23 -4 26 -32 26 -62 -1 -68 1 -68
24 l0 21 1003 -6 c551 -4 1026 -10 1055 -13z m35 -60 c9 -4 17 -15 17 -25 0
-16 -3 -17 -27 -7 -16 7 -32 15 -37 19 -12 10 3 31 17 25 7 -4 20 -9 30 -12z"/>
<path d="M1126 3472 c-2 -4 11 -6 30 -4 19 2 34 6 34 8 0 8 -59 4 -64 -4z"/>
<path d="M676 3452 c-3 -6 -1 -14 5 -17 14 -9 20 -2 10 14 -6 8 -11 9 -15 3z"/>
<path d="M1186 3444 c-3 -9 -6 -24 -6 -35 0 -27 50 -27 57 0 3 11 11 17 18 15
7 -3 16 -1 20 5 4 7 -3 11 -18 11 -14 0 -27 -7 -31 -15 -9 -26 -27 -17 -20 10
7 27 -10 35 -20 9z"/>
<path d="M706 3391 c-9 -15 23 -36 36 -23 5 5 7 15 4 21 -9 13 -33 14 -40 2z"/>
<path d="M840 3351 c0 -11 4 -22 9 -25 11 -7 23 22 15 35 -9 16 -24 10 -24
-10z"/>
<path d="M707 3339 c-4 -15 -2 -16 14 -6 21 13 38 2 21 -15 -15 -15 -16 -38
-1 -38 5 0 7 5 4 10 -4 6 -1 17 5 25 14 17 7 31 -19 38 -13 3 -21 -1 -24 -14z"/>
<path d="M825 3290 c-3 -5 0 -10 9 -10 8 0 23 -3 33 -6 16 -5 16 -4 -1 10 -23
19 -32 20 -41 6z"/>
<path d="M551 3258 c-1 -13 7 -18 27 -18 19 0 23 -3 13 -9 -10 -7 -7 -9 12 -8
15 1 27 5 27 8 0 9 -27 19 -50 19 -10 0 -21 6 -23 13 -3 7 -6 5 -6 -5z"/>
<path d="M783 3253 c-27 -10 -11 -19 32 -18 29 0 45 4 45 12 0 12 -49 15 -77
6z"/>
<path d="M2031 3174 c-6 -15 -10 -29 -7 -31 2 -2 7 5 11 16 8 28 19 26 35 -4
7 -14 15 -23 17 -21 5 4 -30 66 -38 66 -3 0 -11 -12 -18 -26z"/>
<path d="M1427 3228 c-9 -32 4 -138 20 -173 12 -25 13 -25 8 -5 -13 52 -24
160 -19 175 20 50 47 -30 35 -102 -4 -29 -5 -57 -1 -63 4 -7 11 22 15 64 5 62
4 81 -9 101 -20 31 -42 32 -49 3z"/>
<path d="M1065 3010 c-3 -5 -1 -10 4 -10 6 0 11 5 11 10 0 6 -2 10 -4 10 -3 0
-8 -4 -11 -10z"/>
<path d="M1095 3010 c-3 -5 -2 -10 4 -10 5 0 13 5 16 10 3 6 2 10 -4 10 -5 0
-13 -4 -16 -10z"/>
<path d="M913 2998 c-6 -7 -13 -21 -16 -31 -6 -15 -4 -16 13 -7 11 6 20 20 20
30 0 23 -4 25 -17 8z"/>
<path d="M1858 2933 c6 -2 18 -2 25 0 6 3 1 5 -13 5 -14 0 -19 -2 -12 -5z"/>
<path d="M1963 2923 c9 -2 23 -2 30 0 6 3 -1 5 -18 5 -16 0 -22 -2 -12 -5z"/>
<path d="M1824 2241 c-2 -2 -4 -10 -4 -17 0 -10 13 -12 51 -7 l51 6 -4 -102
c-2 -77 -7 -104 -18 -111 -25 -17 -45 -7 -42 21 1 19 -3 25 -18 25 -16 0 -20
-7 -20 -31 0 -44 14 -59 55 -59 63 0 78 26 84 146 5 91 8 103 24 100 10 -2 17
3 17 13 0 8 -8 16 -17 16 -51 4 -155 3 -159 0z"/>
<path d="M2038 1903 c7 -3 16 -2 19 1 4 3 -2 6 -13 5 -11 0 -14 -3 -6 -6z"/>
<path d="M2050 1150 c0 -13 11 -13 30 0 12 8 11 10 -7 10 -13 0 -23 -4 -23
-10z"/>
<path d="M2048 1033 c6 -2 18 -2 25 0 6 3 1 5 -13 5 -14 0 -19 -2 -12 -5z"/>
<path d="M2038 1013 c12 -2 32 -2 45 0 12 2 2 4 -23 4 -25 0 -35 -2 -22 -4z"/>
<path d="M2048 983 c12 -2 30 -2 40 0 9 3 -1 5 -23 4 -22 0 -30 -2 -17 -4z"/>
<path d="M2038 953 c12 -2 32 -2 45 0 12 2 2 4 -23 4 -25 0 -35 -2 -22 -4z"/>
<path d="M2030 929 c0 -5 14 -9 30 -9 39 0 39 15 0 16 -17 1 -30 -3 -30 -7z"/>
<path d="M2038 899 c-8 -6 1 -9 25 -9 20 0 37 2 37 4 0 9 -50 12 -62 5z"/>
<path d="M2034 869 c-3 -5 11 -9 30 -9 20 0 36 3 36 8 0 10 -59 11 -66 1z"/>
<path d="M2013 784 c3 -3 22 -6 42 -6 20 0 39 3 42 6 4 3 -15 6 -42 6 -27 0
-46 -3 -42 -6z"/>
<path d="M1994 748 c-3 -4 15 -8 40 -8 25 0 46 5 46 10 0 12 -79 10 -86 -2z"/>
<path d="M1404 2685 c8 -8 18 -15 22 -15 3 0 1 7 -6 15 -7 8 -17 15 -22 15 -5
0 -3 -7 6 -15z"/>
<path d="M1439 2653 c-14 -32 -13 -110 0 -145 6 -16 7 -4 4 39 -6 67 1 113 18
113 7 0 10 -30 7 -89 -1 -49 1 -83 5 -75 4 7 7 51 5 96 -3 87 -19 112 -39 61z"/>
<path d="M1378 2663 c7 -3 16 -2 19 1 4 3 -2 6 -13 5 -11 0 -14 -3 -6 -6z"/>
<path d="M673 2628 c-12 -20 -6 -109 11 -153 8 -22 15 -35 16 -28 0 7 7 10 18
7 10 -4 13 -3 6 3 -8 6 -8 25 -1 68 6 41 6 69 -2 88 -11 28 -34 36 -48 15z
m31 -24 c9 -24 7 -114 -3 -114 -10 0 -21 49 -21 96 0 35 13 46 24 18z"/>
<path d="M897 2278 c-9 -30 -17 -61 -16 -69 0 -8 9 13 19 46 11 33 18 64 17
69 -1 4 -10 -16 -20 -46z"/>
<path d="M1376 1625 c4 -8 8 -15 10 -15 2 0 4 7 4 15 0 8 -4 15 -10 15 -5 0
-7 -7 -4 -15z"/>
<path d="M1334 1594 c3 -9 9 -27 12 -40 3 -13 10 -24 15 -24 4 0 10 -19 12
-42 2 -24 4 -10 4 32 1 45 -2 65 -6 50 -7 -25 -7 -25 -19 8 -6 17 -14 32 -18
32 -3 0 -3 -7 0 -16z"/>
<path d="M661 1453 c-2 -38 41 -115 56 -100 3 4 -2 16 -13 28 -10 12 -24 37
-30 58 -9 25 -12 30 -13 14z"/>
<path d="M1123 1382 c-6 -4 6 -8 29 -8 26 -1 35 2 27 7 -17 11 -40 11 -56 1z"/>
<path d="M1243 1357 c43 -26 95 -101 103 -150 3 -18 12 -50 20 -72 18 -48 27
-103 55 -305 24 -183 44 -237 89 -246 17 -4 33 -11 36 -16 10 -16 -30 -38 -63
-35 -26 2 -30 0 -21 -10 13 -16 13 -15 -29 -37 -29 -15 -33 -15 -48 1 -10 9
-15 26 -12 40 2 12 1 23 -3 23 -13 0 -20 -30 -14 -57 6 -23 4 -24 -16 -18 -15
5 -20 4 -16 -4 4 -6 14 -11 22 -11 8 0 14 -9 14 -20 0 -11 5 -20 10 -20 6 0 8
11 4 27 -7 28 -7 28 15 9 11 -11 21 -25 21 -33 0 -31 99 -68 115 -43 4 6 -7
10 -25 10 -22 0 -41 9 -61 30 -30 30 -31 50 -3 50 28 0 103 51 148 101 55 61
88 142 94 231 5 81 -12 123 -94 228 -30 38 -54 73 -54 79 0 6 -4 11 -10 11
-17 0 -11 -15 30 -74 33 -47 40 -65 40 -105 0 -63 16 -147 36 -193 18 -40 12
-86 -7 -58 -7 11 -9 6 -4 -17 8 -38 -6 -48 -42 -31 -35 17 -52 52 -68 142 -7
39 -14 58 -14 41 -1 -42 27 -155 45 -182 8 -13 23 -23 34 -23 22 0 24 -7 11
-29 -6 -9 -15 -11 -27 -6 -11 4 -26 7 -35 6 -9 -1 -26 9 -37 23 -19 25 -25 55
-64 341 -6 44 -17 105 -25 135 -8 30 -20 78 -27 105 -20 81 -64 147 -113 173
-40 22 -48 12 -10 -11z m364 -434 c-3 -10 -5 -2 -5 17 0 19 2 27 5 18 2 -10 2
-26 0 -35z m22 -90 c0 -36 -2 -43 -9 -27 -7 18 -3 74 6 74 2 0 4 -21 3 -47z
m31 11 c0 -8 -4 -14 -10 -14 -5 0 -10 9 -10 21 0 11 5 17 10 14 6 -3 10 -13
10 -21z m0 -49 c0 -8 -4 -15 -10 -15 -5 0 -10 7 -10 15 0 8 5 15 10 15 6 0 10
-7 10 -15z"/>
<path d="M1216 1249 c64 -69 82 -96 99 -152 23 -73 57 -158 61 -154 2 2 -12
48 -31 103 -39 112 -84 186 -135 223 l-35 25 41 -45z"/>
<path d="M1036 1190 c10 -16 20 -27 23 -25 6 7 -21 55 -31 55 -5 0 -1 -13 8
-30z"/>
<path d="M1070 1195 c0 -3 14 -30 31 -61 17 -30 44 -87 59 -127 22 -56 34 -74
55 -82 18 -6 32 -6 45 3 16 10 19 8 23 -11 l4 -22 2 23 c1 24 31 32 31 8 0
-24 -12 -46 -21 -40 -19 12 5 -63 27 -83 13 -12 25 -32 25 -45 1 -17 2 -19 6
-5 8 30 23 7 23 -36 0 -29 3 -38 11 -30 20 20 -1 80 -42 118 -42 39 -46 56
-24 95 8 14 14 30 15 37 0 21 -37 24 -74 6 -50 -23 -64 -12 -92 70 -26 78
-104 214 -104 182z"/>
<path d="M769 1126 c-8 -9 2 -66 12 -66 10 0 10 14 0 48 -3 13 -9 21 -12 18z"/>
<path d="M1050 1124 c0 -3 9 -49 19 -102 11 -54 22 -110 24 -127 3 -16 4 -10
2 15 -5 77 -29 220 -37 220 -4 0 -8 -3 -8 -6z"/>
<path d="M1090 1097 c0 -4 4 -15 9 -25 5 -9 19 -38 32 -64 13 -26 25 -45 27
-43 2 2 -3 18 -12 36 -9 18 -16 37 -16 43 0 13 -39 65 -40 53z"/>
<path d="M782 933 c4 -57 33 -133 68 -183 10 -14 21 -44 25 -65 4 -22 11 -47
16 -55 5 -9 1 -23 -9 -35 -12 -15 -10 -14 8 2 19 18 22 25 12 35 -7 7 -12 26
-12 43 0 16 -9 46 -19 65 -11 19 -29 53 -41 75 -14 25 -24 66 -27 108 -3 37
-10 67 -16 67 -5 0 -8 -23 -5 -57z"/>
<path d="M1131 928 c18 -103 59 -208 80 -208 7 0 5 8 -7 21 -16 17 -16 22 -4
29 8 6 25 10 36 10 12 0 27 7 34 15 8 9 8 15 2 15 -6 0 -12 -4 -14 -9 -1 -4
-20 -11 -40 -15 l-37 -7 -20 69 c-12 38 -21 81 -21 96 0 14 -4 26 -8 26 -5 0
-5 -19 -1 -42z"/>
<path d="M1165 935 c4 -11 12 -33 17 -50 13 -36 27 -55 41 -55 5 0 3 8 -6 18
-10 10 -17 25 -17 33 0 8 -10 28 -21 44 -12 17 -18 21 -14 10z"/>
<path d="M1477 908 c8 -44 13 -48 13 -10 0 17 -4 34 -10 37 -6 4 -7 -6 -3 -27z"/>
<path d="M1381 884 c-1 -46 25 -151 35 -141 3 2 -1 17 -7 33 -6 16 -15 58 -19
94 l-7 65 -2 -51z"/>
<path d="M1225 870 c4 -6 11 -8 16 -5 14 9 11 15 -7 15 -8 0 -12 -5 -9 -10z"/>
<path d="M1260 866 c0 -8 -6 -17 -12 -19 -8 -3 -6 -6 5 -6 11 -1 17 6 17 19 0
11 -2 20 -5 20 -3 0 -5 -6 -5 -14z"/>
<path d="M1282 734 c-18 -13 -23 -24 -20 -53 2 -33 0 -36 -22 -34 l-25 2 23
-11 c27 -14 45 4 36 35 -8 27 5 57 27 57 10 0 19 5 19 10 0 14 -12 12 -38 -6z"/>
<path d="M1362 710 c0 -14 2 -19 5 -12 2 6 2 18 0 25 -3 6 -5 1 -5 -13z"/>
<path d="M1313 701 c-20 -32 -5 -84 29 -104 20 -11 28 -13 26 -5 -3 7 -15 18
-27 23 -20 9 -22 15 -18 58 2 26 4 47 3 47 -1 0 -7 -9 -13 -19z"/>
<path d="M1387 664 c-3 -4 5 -22 20 -40 14 -19 21 -34 15 -34 -6 0 -14 5 -17
10 -3 6 -11 10 -18 10 -6 0 -2 -6 9 -14 15 -12 17 -17 7 -27 -19 -19 -16 -39
5 -38 9 0 12 3 5 6 -10 3 -10 9 0 24 15 24 33 24 46 2 10 -17 10 -17 11 -1 0
9 -6 21 -13 25 -8 4 -25 25 -39 45 -13 21 -28 35 -31 32z"/>
<path d="M1163 643 c-8 -3 -12 -20 -12 -41 l2 -37 6 35 c5 28 10 35 29 34 12
0 22 3 22 8 0 9 -27 10 -47 1z"/>
<path d="M821 610 c-12 -17 -28 -30 -37 -30 -27 0 -72 -29 -79 -51 -4 -13 -1
-27 11 -40 20 -22 33 -17 14 6 -22 26 2 62 50 75 23 6 47 21 56 36 24 36 12
39 -15 4z"/>
<path d="M1284 565 c6 -19 14 -31 18 -27 8 8 -12 62 -23 62 -3 0 -1 -16 5 -35z"/>
<path d="M840 570 c-8 -5 -12 -12 -9 -15 4 -3 12 1 19 10 14 17 11 19 -10 5z"/>
<path d="M1210 566 c0 -2 11 -6 25 -8 13 -3 22 -1 19 3 -5 9 -44 13 -44 5z"/>
<path d="M1228 533 c-10 -2 -18 -8 -18 -13 0 -4 9 -6 20 -3 11 3 20 9 20 14 0
5 -1 8 -2 8 -2 -1 -11 -3 -20 -6z"/>
<path d="M1079 2483 c10 -4 8 -9 -10 -19 -23 -13 -22 -13 21 -13 39 0 43 1 28
13 -10 7 -15 16 -11 19 3 4 -5 7 -18 6 -14 0 -18 -3 -10 -6z"/>
<path d="M1078 2433 c6 -2 18 -2 25 0 6 3 1 5 -13 5 -14 0 -19 -2 -12 -5z"/>
<path d="M203 2223 c-21 -8 -16 -53 6 -53 28 0 47 26 31 45 -13 16 -17 17 -37
8z"/>
<path d="M182 2073 c3 -62 5 -68 26 -71 44 -6 86 62 58 91 -7 7 -15 20 -19 30
-4 11 -17 17 -37 17 l-31 0 3 -67z"/>
<path d="M1232 1978 c-6 -19 -27 -49 -46 -67 -45 -43 -108 -48 -157 -12 -19
14 -30 18 -27 10 2 -8 20 -22 39 -32 42 -22 96 -17 139 13 31 22 74 93 68 111
-2 6 -9 -5 -16 -23z"/>
<path d="M1135 1990 c-3 -6 1 -7 9 -4 18 7 21 14 7 14 -6 0 -13 -4 -16 -10z"/>
<path d="M946 1848 c16 -54 72 -128 95 -128 16 0 9 11 -22 38 -17 14 -40 45
-50 69 -19 45 -35 59 -23 21z"/>
<path d="M438 1363 c7 -3 16 -2 19 1 4 3 -2 6 -13 5 -11 0 -14 -3 -6 -6z"/>
<path d="M460 926 c0 -2 7 -7 16 -10 8 -3 12 -2 9 4 -6 10 -25 14 -25 6z"/>
<path d="M460 890 c0 -5 5 -10 10 -10 6 0 10 5 10 10 0 6 -4 10 -10 10 -5 0
-10 -4 -10 -10z"/>
<path d="M1665 1200 c3 -5 8 -10 11 -10 2 0 4 5 4 10 0 6 -5 10 -11 10 -5 0
-7 -4 -4 -10z"/>
<path d="M2118 1373 c7 -3 16 -2 19 1 4 3 -2 6 -13 5 -11 0 -14 -3 -6 -6z"/>
<path d="M1038 1563 c7 -3 16 -2 19 1 4 3 -2 6 -13 5 -11 0 -14 -3 -6 -6z"/>
<path d="M1078 1553 c6 -2 18 -2 25 0 6 3 1 5 -13 5 -14 0 -19 -2 -12 -5z"/>
<path d="M1178 1494 c-38 -20 -36 -28 2 -9 17 9 30 18 30 20 0 7 -1 6 -32 -11z"/>
<path d="M2093 628 c3 -10 3 -18 -2 -18 -4 0 -6 -13 -3 -30 5 -36 18 -31 24
10 3 20 -1 35 -11 43 -12 10 -14 9 -8 -5z"/>
<path d="M1905 599 c-17 -4 6 -7 55 -7 85 0 91 4 15 10 -22 2 -54 0 -70 -3z"/>
<path d="M2095 480 c19 -8 19 -9 1 -9 -11 -1 -17 -4 -13 -7 3 -4 19 -3 34 1
26 7 26 8 8 15 -27 12 -56 11 -30 0z"/>
<path d="M1775 320 c-13 -6 -15 -9 -5 -9 8 0 22 4 30 9 18 12 2 12 -25 0z"/>
<path d="M1828 323 c7 -3 16 -2 19 1 4 3 -2 6 -13 5 -11 0 -14 -3 -6 -6z"/>
<path d="M173 193 c3 -31 1 -65 -4 -75 -8 -15 -6 -18 16 -18 24 0 25 2 20 34
-8 38 4 51 35 41 14 -4 20 -15 20 -36 0 -22 5 -29 19 -29 17 0 18 4 9 42 -5
23 -8 53 -6 67 2 18 -2 26 -12 26 -9 0 -15 -10 -15 -25 0 -20 -6 -26 -29 -28
-27 -3 -28 -2 -24 27 4 26 1 31 -15 31 -18 0 -19 -5 -14 -57z"/>
<path d="M340 243 c-24 -4 -25 -6 -22 -68 l4 -65 44 0 c32 0 44 4 44 15 0 11
-8 13 -30 9 -26 -6 -30 -4 -30 16 0 16 4 20 15 16 10 -4 15 1 15 16 0 17 -2
18 -15 8 -13 -11 -15 -8 -15 14 0 19 5 26 20 26 11 0 20 -5 20 -11 0 -5 5 -7
12 -3 7 5 5 11 -7 21 -11 7 -21 12 -24 12 -3 -1 -17 -4 -31 -6z"/>
<path d="M497 178 c1 -45 6 -73 12 -72 26 2 29 5 24 25 -6 21 10 39 36 39 10
0 12 -9 8 -35 -5 -31 -3 -35 16 -35 21 0 22 3 19 76 -3 64 -6 75 -20 72 -13
-2 -16 -12 -14 -36 3 -29 1 -32 -23 -32 -24 0 -26 3 -23 33 2 26 -1 33 -17 35
-19 3 -20 -2 -18 -70z"/>
<path d="M647 193 c5 -69 9 -83 23 -83 6 0 10 29 10 70 0 61 -2 70 -18 70 -16
0 -18 -7 -15 -57z"/>
<path d="M728 234 c-22 -12 -28 -22 -28 -49 0 -48 29 -75 80 -75 36 0 40 3 40
25 0 22 -4 25 -32 25 -24 0 -29 -3 -18 -10 8 -5 11 -12 7 -17 -14 -14 -42 13
-45 44 -4 38 21 62 48 45 22 -13 34 -4 19 15 -15 17 -37 16 -71 -3z"/>
<path d="M855 180 c0 -65 1 -70 22 -70 19 0 21 4 16 36 -6 33 -4 36 18 32 19
-2 25 -10 27 -35 2 -21 9 -33 18 -33 19 0 12 134 -8 138 -9 2 -14 -7 -13 -25
0 -21 -5 -28 -20 -28 -14 0 -21 8 -23 28 -2 17 -9 27 -20 27 -14 0 -17 -11
-17 -70z"/>
<path d="M1055 180 c0 -60 2 -70 18 -70 12 0 17 8 17 29 0 25 5 30 26 33 35 4
53 31 38 56 -7 11 -26 18 -55 20 l-44 3 0 -71z m82 34 c6 -16 -12 -34 -34 -34
-7 0 -13 11 -13 25 0 18 5 25 20 25 11 0 23 -7 27 -16z"/>
<path d="M1185 180 c0 -60 3 -70 18 -70 12 0 17 8 17 30 0 20 5 30 15 30 8 0
15 -6 15 -13 0 -17 38 -53 46 -44 4 3 -3 18 -15 33 -19 24 -20 29 -6 44 8 9
15 22 15 28 0 17 -34 32 -72 32 l-33 0 0 -70z m82 27 c-2 -7 -13 -13 -25 -15
-16 -3 -22 2 -22 16 0 10 3 22 6 25 10 10 46 -13 41 -26z"/>
<path d="M1406 201 c3 -29 1 -58 -5 -70 -7 -12 -8 -21 -4 -22 90 -11 112 -5
113 30 0 12 -3 12 -12 3 -20 -20 -58 -15 -58 8 0 13 5 18 15 14 10 -4 15 0 15
15 0 12 -4 21 -10 21 -5 0 -10 -5 -10 -11 0 -5 -4 -7 -10 -4 -5 3 -10 15 -10
26 0 22 29 26 48 7 9 -9 12 -8 12 4 0 9 -12 18 -31 22 -58 11 -60 10 -53 -43z"/>
<path d="M1570 241 c-19 -5 -25 -13 -25 -36 0 -26 4 -30 32 -33 39 -4 64 -28
38 -38 -9 -4 -27 -2 -40 4 -25 12 -35 7 -35 -17 0 -25 97 -16 110 10 14 26
-20 59 -61 59 -24 0 -30 4 -27 18 4 18 29 21 61 7 12 -5 17 -3 17 9 0 9 -4 16
-9 16 -5 0 -15 2 -23 4 -7 2 -24 1 -38 -3z"/>
<path d="M1675 240 c-7 -11 -1 -13 32 -10 21 1 22 -1 16 -52 -3 -29 -11 -56
-17 -60 -6 -4 5 -8 25 -8 l35 0 -4 61 -5 62 28 -7 c20 -5 26 -3 23 6 -6 16
-123 24 -133 8z"/>
<path d="M1820 241 c0 -6 5 -13 10 -16 18 -11 12 -93 -7 -104 -14 -8 -4 -10
40 -11 53 0 57 2 57 23 -1 20 -2 21 -14 5 -20 -27 -46 -23 -46 8 0 23 2 25 15
14 20 -16 29 -7 20 20 -6 17 -9 19 -22 9 -13 -11 -14 -9 -11 11 4 30 34 39 41
13 4 -17 4 -17 12 1 5 12 3 21 -6 27 -19 12 -89 11 -89 0z"/>
<path d="M1966 237 c-24 -18 -17 -51 12 -55 22 -3 46 -34 35 -46 -11 -11 -41
-7 -46 7 -4 9 -8 8 -16 -3 -18 -26 -12 -31 30 -28 49 3 71 27 53 56 -6 9 -20
19 -30 20 -28 6 -40 20 -26 34 8 8 15 8 27 -2 11 -9 19 -10 27 -2 27 27 -31
44 -66 19z"/>
<path d="M1318 233 c8 -3 12 -26 12 -64 0 -52 2 -59 20 -59 18 0 20 6 19 65
l-2 65 -31 -1 c-17 0 -25 -3 -18 -6z"/>
</g>
</svg>
