<?xml version="1.0" standalone="no"?>
<!DOCTYPE svg PUBLIC "-//W3C//DTD SVG 20010904//EN"
 "http://www.w3.org/TR/2001/REC-SVG-20010904/DTD/svg10.dtd">
<svg version="1.0" xmlns="http://www.w3.org/2000/svg"
 width="221.000000pt" height="384.000000pt" viewBox="0 0 221.000000 384.000000"
 preserveAspectRatio="xMidYMid meet">
<metadata>
Created by potrace 1.16, written by Peter Selinger 2001-2019
</metadata>
<g transform="translate(0.000000,384.000000) scale(0.100000,-0.100000)"
fill="#000000" stroke="none">
<path d="M1269 3826 c-4 -4 -810 -16 -1066 -16 -104 0 -153 -4 -153 -11 0 -8
201 -8 713 -2 391 4 862 8 1046 8 l334 0 4 -81 5 -82 -60 29 c-86 40 -285 92
-324 84 -48 -11 -115 -86 -155 -173 -32 -70 -34 -82 -28 -132 4 -30 8 -71 8
-90 1 -67 -24 -213 -43 -250 -21 -41 -73 -90 -95 -90 -8 0 -34 -10 -59 -21
-29 -15 -50 -19 -62 -14 -25 11 -94 13 -88 3 3 -4 12 -8 20 -8 8 0 14 -4 14
-9 0 -9 -54 -6 -87 5 -20 6 -15 63 8 100 24 39 26 40 50 18 15 -13 24 -14 52
-5 25 9 45 28 78 78 44 66 70 113 65 113 -2 0 -13 -9 -26 -20 -27 -24 -60 -26
-60 -5 0 9 9 15 25 15 29 0 32 16 9 48 -8 12 -14 30 -12 40 1 9 -1 22 -5 29
-10 16 12 28 26 14 18 -18 34 -13 40 14 3 17 0 24 -7 22 -6 -2 -10 -12 -10
-21 1 -9 -2 -16 -7 -16 -5 0 -9 12 -9 26 0 17 -6 28 -20 31 -11 3 -20 12 -20
20 0 8 -4 11 -10 8 -5 -3 -10 0 -10 8 0 8 -9 22 -20 32 -11 10 -20 26 -20 36
0 15 -5 17 -29 13 -23 -5 -30 -2 -35 14 -7 21 -46 61 -46 47 0 -5 7 -16 16
-26 16 -17 15 -18 -10 -6 -37 17 -35 47 4 47 17 0 30 5 30 10 0 6 -11 10 -23
10 -13 0 -32 9 -41 19 -17 18 -17 20 3 40 12 12 28 21 36 21 8 0 15 5 15 11 0
8 -42 10 -152 5 -84 -4 -154 -9 -157 -11 -2 -3 10 -8 27 -11 17 -4 37 -13 43
-20 17 -21 -16 -54 -53 -54 -16 0 -37 -8 -46 -17 -15 -15 -15 -16 -1 -11 9 4
35 -5 59 -18 44 -25 62 -24 58 4 -6 37 26 14 40 -28 21 -65 34 -90 45 -90 6 0
3 8 -6 18 -10 10 -17 31 -17 47 0 16 7 37 17 47 15 17 15 18 -13 19 -25 2 -26
2 -6 6 14 3 32 -3 42 -12 15 -13 22 -14 37 -5 16 10 16 10 -4 5 -14 -4 -23 -2
-23 4 0 17 40 13 46 -4 4 -8 1 -22 -6 -30 -15 -18 -6 -47 13 -39 8 3 17 -2 20
-10 4 -10 13 -13 23 -9 15 6 16 1 11 -33 -4 -26 -3 -34 3 -24 5 8 10 25 10 37
0 27 37 41 55 22 7 -8 17 -28 23 -46 9 -28 8 -33 -14 -48 -16 -10 -24 -25 -24
-43 l0 -27 -13 25 c-8 16 -23 26 -41 28 -25 3 -28 6 -22 33 6 30 6 30 -49 34
-58 5 -88 -58 -43 -89 25 -18 54 -21 62 -7 9 15 -5 41 -21 41 -13 0 -13 -3 -3
-15 7 -9 10 -18 7 -21 -7 -7 -45 17 -51 32 -7 18 16 42 43 46 19 2 25 -3 35
-32 7 -23 19 -36 36 -40 14 -3 26 -14 28 -23 5 -23 -24 -22 -37 0 -5 10 -13
15 -17 11 -9 -10 15 -38 33 -38 26 0 4 -18 -30 -24 -61 -11 -71 -27 -77 -108
l-5 -73 -40 2 c-38 2 -39 2 -12 -8 15 -6 27 -18 27 -26 0 -9 -6 -13 -15 -9
-23 8 -75 -5 -75 -19 0 -10 13 -12 50 -8 33 3 56 0 66 -8 8 -6 17 -10 19 -7
10 9 -7 38 -21 38 -8 0 -14 7 -14 15 0 8 6 15 14 15 8 0 18 16 23 38 7 30 15
39 43 49 19 7 27 12 17 12 -11 1 -15 6 -11 12 4 7 13 4 27 -9 20 -21 20 -22 2
-89 -10 -37 -23 -75 -29 -83 -7 -8 -18 -27 -26 -42 -17 -36 -25 -35 -38 5 -7
21 -10 25 -11 12 0 -11 6 -33 14 -49 18 -34 19 -58 4 -73 -8 -8 -5 -13 10 -18
12 -3 21 -11 21 -16 0 -6 -5 -7 -11 -4 -12 8 -69 -14 -69 -26 0 -5 -9 -18 -20
-29 -11 -11 -20 -30 -20 -42 0 -20 4 -18 42 17 24 22 45 42 48 44 3 2 -3 1
-12 -2 -10 -4 -18 -2 -18 3 0 10 32 22 51 18 9 -2 15 8 17 29 3 29 32 57 32
30 0 -8 4 -6 10 3 8 12 10 12 10 -5 1 -18 2 -18 10 2 9 22 40 23 40 1 0 -6 -6
-5 -15 2 -12 10 -15 10 -15 -4 0 -9 3 -15 8 -15 38 6 43 -23 10 -58 -22 -23
-12 -33 10 -11 9 9 12 9 12 0 0 -6 -12 -14 -27 -18 -16 -3 -34 -8 -42 -10 -8
-2 -22 3 -32 12 -10 9 -24 14 -31 11 -8 -4 -7 -6 5 -6 9 -1 17 -5 17 -11 0 -5
-6 -7 -13 -4 -13 5 -94 -63 -85 -71 2 -3 17 8 31 23 21 22 34 27 57 24 17 -2
30 -9 30 -14 0 -5 -9 -8 -21 -6 -15 2 -29 -8 -47 -32 l-26 -35 30 28 c17 15
41 27 55 27 l24 0 -25 -21 c-14 -11 -38 -29 -55 -40 -16 -10 -25 -19 -20 -19
6 0 -4 -9 -22 -19 -17 -11 -34 -29 -38 -40 -3 -12 -11 -19 -16 -15 -6 3 -13
-3 -16 -14 -2 -11 -15 -24 -29 -30 -13 -6 -26 -23 -30 -37 -3 -14 -10 -25 -14
-25 -19 0 -40 13 -40 25 0 7 -7 18 -15 25 -16 13 -20 46 -7 52 4 2 21 31 38
65 36 71 28 75 -13 6 -15 -26 -29 -41 -31 -35 -5 15 -32 3 -32 -14 0 -8 -4
-14 -10 -14 -5 0 -10 -4 -10 -10 0 -5 6 -7 13 -5 21 8 17 -60 -5 -74 -20 -13
-24 -1 -6 17 19 19 1 14 -40 -12 -54 -34 -67 -52 -45 -60 15 -6 15 -8 3 -16
-21 -13 -30 -12 -30 4 0 7 -7 19 -15 26 -8 7 -12 16 -9 22 3 5 12 4 21 -4 14
-11 15 -10 9 8 -5 17 -1 24 21 33 16 6 39 12 53 14 19 3 25 10 25 28 0 13 4
30 8 37 5 6 5 17 2 22 -3 6 -1 10 4 10 18 0 13 28 -7 42 -30 21 -51 61 -50 93
1 30 -33 94 -67 128 -15 16 -15 17 9 17 36 0 41 17 6 23 -29 6 -88 59 -163
145 -37 43 -44 62 -30 76 37 37 32 326 -8 415 -38 87 -98 128 -160 111 -19 -6
-56 -10 -83 -10 -53 0 -126 -18 -126 -32 0 -4 -7 -8 -15 -8 -8 0 -15 -4 -15
-9 0 -5 -21 -15 -46 -24 l-45 -15 3 99 c2 75 0 99 -10 99 -10 0 -12 -60 -10
-287 1 -159 4 -279 6 -268 5 26 50 85 64 85 6 0 20 8 30 17 13 12 22 13 29 6
8 -8 5 -13 -10 -18 -14 -4 -21 -15 -21 -31 0 -13 -4 -24 -8 -24 -20 0 -92 -73
-92 -93 0 -18 11 -10 61 41 33 34 65 62 69 62 19 0 19 -19 1 -25 -11 -3 -45
-33 -75 -65 l-55 -60 0 -297 c0 -211 3 -301 11 -311 9 -10 9 -15 -2 -22 -11
-7 -12 -100 -7 -527 4 -285 7 -543 7 -573 0 -39 3 -51 10 -40 5 8 10 77 10
153 0 135 1 139 28 173 33 42 60 44 73 6 12 -36 39 -52 99 -58 49 -5 93 9 133
44 16 14 20 12 53 -26 40 -47 88 -62 139 -43 27 9 39 8 76 -9 24 -11 53 -19
64 -19 11 0 -1 8 -27 17 -26 9 -53 23 -60 30 -14 14 -38 16 -38 3 0 -14 -35
-23 -64 -15 -24 6 -23 7 24 31 46 23 50 23 73 8 13 -8 37 -15 53 -15 16 1 47
-3 69 -7 l40 -8 -25 -18 c-13 -9 -20 -17 -14 -17 6 0 23 9 38 21 14 11 42 25
62 30 19 6 44 19 55 30 15 15 32 19 77 18 88 -2 113 -10 132 -44 12 -21 14
-32 6 -37 -6 -5 -1 -8 12 -8 26 0 28 7 5 32 -25 28 -3 21 56 -17 35 -23 63
-35 84 -34 l32 2 -30 6 c-38 8 -105 42 -105 53 0 14 48 9 64 -8 9 -8 16 -11
16 -5 0 16 26 13 40 -4 7 -8 20 -15 29 -15 14 0 14 2 1 10 -11 7 -5 10 23 10
25 0 37 -4 37 -14 0 -8 -6 -17 -12 -19 -8 -3 -5 -6 5 -6 10 -1 15 -5 12 -11
-3 -5 -1 -10 4 -10 6 0 11 5 11 10 0 6 13 10 29 10 42 0 50 -20 9 -21 -25 -1
-19 -4 22 -10 30 -5 62 -8 70 -5 8 2 3 4 -12 5 -39 2 -46 21 -8 21 23 0 33 -5
37 -20 3 -11 10 -20 15 -20 6 0 8 8 6 18 -6 23 43 44 82 37 21 -4 20 -3 -4 6
-22 9 -34 9 -48 0 -29 -18 -47 -13 -68 21 -18 30 -18 33 -3 50 11 12 23 16 37
12 18 -6 19 -5 8 9 -10 12 -10 17 -1 23 8 5 23 -5 40 -25 15 -18 32 -30 38
-26 6 3 26 -2 44 -13 17 -11 43 -23 57 -27 14 -3 2 7 -27 24 -29 17 -60 31
-69 31 -9 0 -25 11 -36 25 -12 15 -30 25 -45 25 -14 0 -32 8 -39 17 -7 10 -16
15 -20 11 -4 -5 1 -17 11 -28 17 -19 17 -21 0 -40 -18 -20 -18 -20 -36 10 -21
34 -47 43 -29 11 5 -11 15 -23 20 -26 16 -10 12 -23 -10 -35 -17 -9 -21 -6
-34 25 -8 19 -20 35 -26 35 -6 0 -5 -11 5 -30 20 -38 19 -42 -7 -38 -16 2 -27
14 -36 38 l-13 35 5 -39 5 -38 -57 6 c-31 3 -58 10 -60 14 -1 5 -16 6 -32 4
-26 -4 -30 -1 -30 19 0 14 -3 19 -8 13 -5 -8 -26 -10 -62 -6 -30 3 -91 5 -135
4 -164 -3 -170 -2 -182 14 -13 18 -33 11 -33 -11 0 -41 -99 -57 -152 -25 l-31
19 -29 -25 c-20 -16 -42 -24 -66 -24 -31 0 -41 6 -60 35 -25 40 -34 42 -59 16
-27 -28 -113 -24 -146 8 l-25 23 -11 -21 c-16 -29 -25 -26 -38 10 -10 26 -16
30 -35 24 -13 -4 -31 -18 -41 -31 -10 -13 -22 -24 -25 -24 -4 0 -9 115 -10
255 l-4 255 29 1 c70 4 95 8 108 19 10 9 14 5 20 -18 9 -45 57 -84 102 -86 30
-1 42 -7 55 -28 10 -15 29 -30 43 -34 44 -11 107 2 125 27 l17 22 7 -24 c4
-13 9 -85 12 -159 7 -161 9 -165 99 -155 92 9 402 74 454 94 25 10 55 22 66
27 13 5 5 -9 -23 -39 -46 -51 -46 -69 0 -101 42 -30 234 -8 320 35 62 32 87
96 43 112 -7 3 -33 18 -57 33 -47 30 -107 39 -167 24 -33 -9 -32 -9 14 -5 28
3 66 1 85 -4 19 -5 27 -9 18 -10 -10 -1 -18 -5 -18 -11 0 -5 -10 -10 -22 -11
-13 0 -54 -8 -93 -19 -70 -18 -99 -19 -54 -1 13 5 18 10 10 10 -11 1 -10 6 4
21 16 18 16 20 2 20 -28 0 -19 17 16 28 32 10 32 10 5 11 -27 1 -41 21 -15 21
9 0 9 2 -1 9 -10 6 -8 10 8 14 12 3 20 12 18 19 -5 15 51 79 87 98 14 7 25 17
25 21 0 14 -64 -29 -105 -71 -21 -22 -43 -40 -47 -40 -18 0 34 80 74 114 56
46 35 47 -25 0 -26 -20 -44 -41 -41 -49 3 -7 1 -16 -5 -19 -16 -10 -8 37 13
76 12 23 35 43 63 57 42 20 43 22 28 45 -8 13 -13 31 -9 40 7 19 20 21 27 4 3
-8 6 -6 6 4 1 10 12 20 26 24 23 6 25 10 19 39 -8 45 1 70 32 83 30 14 34 15
34 3 0 -5 -11 -12 -24 -15 -15 -4 -26 -16 -30 -32 -8 -29 1 -64 15 -64 6 0 6
7 1 18 -11 21 -1 64 16 70 7 2 12 -6 13 -20 l1 -23 7 24 c11 39 34 48 76 28
38 -18 55 -16 55 9 0 17 -17 19 -23 2 -3 -10 -7 -10 -17 -1 -9 9 -7 14 10 23
18 10 24 9 36 -7 22 -30 20 -34 -46 -76 -19 -12 -44 -40 -54 -61 -18 -37 -18
-40 -1 -68 9 -16 14 -32 11 -35 -3 -4 -33 1 -66 10 -33 10 -68 17 -77 16 -10
0 25 -11 77 -25 52 -13 101 -22 109 -19 7 3 20 0 27 -6 10 -8 14 -8 14 0 0 6
-4 11 -10 11 -23 0 -8 19 20 25 17 4 30 11 30 16 0 17 45 2 49 -17 2 -10 8
-22 14 -26 18 -11 -5 -63 -28 -63 -11 -1 -39 -11 -61 -23 -23 -11 -44 -18 -48
-15 -3 4 -6 1 -6 -6 0 -9 -15 -12 -50 -9 -28 1 -50 0 -50 -4 0 -4 -12 -10 -27
-14 -16 -3 -49 -17 -75 -30 -63 -33 -61 -17 3 25 55 36 61 56 6 22 -79 -49
-103 -90 -43 -75 18 4 27 1 35 -14 16 -30 15 -32 -26 -34 l-38 -1 33 -4 c18
-3 40 1 48 8 20 16 30 3 13 -17 -12 -15 -12 -17 1 -12 23 7 25 39 2 45 -24 6
-35 38 -18 52 13 11 77 25 157 36 26 3 64 15 85 25 45 24 58 25 73 6 13 -15
51 -10 63 8 4 6 8 28 8 50 0 32 -7 45 -40 78 -22 22 -40 44 -40 49 0 14 30 10
31 -3 0 -7 5 -2 11 12 l10 25 9 -22 c11 -29 16 -29 14 -1 -1 12 -7 24 -13 26
-20 6 -13 30 11 35 18 4 17 4 -6 6 -17 0 -26 5 -22 12 4 6 9 8 12 5 3 -3 12 2
20 10 11 10 19 12 28 4 9 -8 16 -3 25 20 7 17 25 37 40 45 14 7 32 21 39 29
17 20 31 20 31 1 0 -8 7 -15 16 -15 8 0 12 5 9 10 -3 6 -1 10 5 10 7 0 10 -6
7 -12 -2 -7 5 -19 17 -26 19 -12 19 -13 1 -7 -47 17 -57 15 -23 -4 54 -30 64
-50 16 -32 -23 9 -55 -9 -41 -23 4 -3 2 -6 -3 -6 -11 0 -14 -43 -3 -50 5 -3 4
-12 0 -19 -7 -11 -13 -11 -32 3 -13 9 -32 16 -43 16 -18 0 -18 -1 -2 -19 16
-18 16 -20 -14 -41 -21 -15 -29 -27 -25 -40 7 -22 -23 -36 -31 -15 -4 8 -10
15 -15 15 -4 0 -1 -16 7 -35 8 -21 12 -46 8 -62 -5 -18 -4 -24 5 -19 6 4 11 2
11 -4 0 -8 6 -8 20 0 11 6 20 20 20 30 0 13 7 20 20 20 11 0 24 8 27 18 4 9
14 22 22 29 13 9 18 6 29 -20 18 -44 50 -67 94 -67 54 0 81 16 104 63 23 47
21 67 -6 67 -9 0 -23 7 -30 15 -7 9 -15 13 -18 10 -3 -3 3 -14 13 -25 14 -16
15 -20 4 -20 -20 0 -39 20 -39 42 0 10 -4 18 -10 18 -5 0 -10 -6 -10 -13 0
-22 30 -57 50 -57 25 0 33 -15 26 -46 -5 -18 -12 -24 -22 -20 -8 3 -13 2 -10
-3 7 -10 -16 -21 -43 -21 -22 0 -71 67 -71 96 0 30 -11 36 -31 18 -16 -14 -18
-14 -24 8 -4 13 -14 31 -23 41 -10 11 -11 17 -3 17 6 0 17 -11 23 -25 14 -31
29 -33 25 -4 -1 12 4 24 11 26 6 3 12 -2 12 -11 0 -22 17 -20 30 4 6 11 16 17
25 14 8 -4 15 -1 15 5 0 6 7 11 16 11 23 0 43 30 44 64 0 29 -37 106 -52 106
-13 0 -9 -12 11 -34 26 -28 37 -89 19 -103 -10 -9 -13 -3 -15 30 -1 23 -11 53
-23 69 -12 16 -19 36 -16 43 3 8 -4 25 -14 38 l-19 24 27 -5 c21 -3 24 -2 16
7 -15 17 -70 17 -89 1 -9 -7 -22 -28 -30 -47 -17 -40 -58 -59 -92 -44 -37 17
-25 81 15 81 9 0 11 -7 7 -22 -7 -22 -6 -22 11 -6 38 36 -38 61 -82 26 -16
-12 -23 -79 -10 -100 8 -13 7 -21 -2 -30 -9 -9 -12 -8 -13 7 -1 11 -5 4 -9
-15 -19 -81 -35 -110 -67 -125 -17 -9 -35 -24 -38 -35 -4 -11 -15 -25 -26 -30
-17 -10 -20 -7 -25 20 -5 23 -10 28 -19 20 -9 -8 -11 -4 -7 16 2 14 15 32 29
41 29 19 23 29 -7 13 -12 -6 -28 -26 -35 -43 -8 -18 -14 -26 -15 -19 0 29 33
73 74 97 52 30 60 52 34 85 -12 15 -15 26 -9 28 6 2 11 12 11 21 0 20 30 51
48 51 7 0 12 5 12 10 0 7 -6 7 -20 0 -13 -7 -20 -7 -20 -1 0 15 59 43 76 37 8
-3 14 -1 14 4 0 6 -10 10 -22 10 -30 0 -11 18 38 35 23 9 31 14 19 15 -16 0
-17 2 -5 10 8 5 31 9 50 8 42 -1 78 -17 62 -27 -8 -5 -5 -12 8 -24 11 -9 22
-12 25 -7 12 20 -8 52 -40 66 -27 11 -33 18 -30 40 3 31 22 46 53 41 14 -3 22
1 22 10 0 8 4 12 9 8 5 -3 11 7 13 22 4 37 61 59 95 37 30 -19 43 -17 18 2
-14 11 -16 18 -7 21 6 3 12 14 12 26 0 19 -6 22 -41 23 -34 0 -47 6 -71 33
-27 30 -30 39 -25 84 4 43 10 56 41 84 32 29 42 33 81 31 25 -2 45 -7 45 -12
0 -6 5 -5 12 2 7 7 24 12 39 12 21 0 27 -6 31 -27 9 -46 10 -323 2 -323 -4 0
-15 6 -23 14 -21 18 -61 30 -61 18 0 -6 11 -13 25 -16 14 -4 32 -20 41 -39
l17 -32 -24 21 c-27 25 -69 40 -69 26 0 -6 11 -13 24 -16 13 -3 31 -18 41 -32
21 -32 38 -87 24 -79 -5 4 -9 12 -9 19 0 17 -43 56 -61 56 -8 0 -3 -9 14 -23
32 -26 57 -93 30 -83 -11 5 -14 2 -9 -10 3 -8 6 -22 6 -30 0 -8 5 -14 10 -14
6 0 10 7 10 16 0 8 5 12 11 9 13 -9 10 -243 -4 -252 -5 -3 -4 -9 3 -13 8 -5
10 -15 5 -26 -5 -11 -7 -25 -6 -31 2 -17 -36 -17 -43 0 -3 6 -4 3 -3 -8 2 -14
9 -19 26 -17 19 2 22 -2 18 -17 -3 -11 -1 -21 3 -23 5 -2 10 -147 11 -323 l4
-319 -31 -6 c-24 -5 -30 -3 -31 10 -1 10 8 23 20 29 20 10 20 11 2 8 -15 -1
-21 5 -23 23 -2 14 -13 45 -25 69 -39 78 -143 105 -198 50 -11 -11 -34 -25
-50 -31 -19 -6 -29 -17 -29 -29 0 -11 -7 -33 -15 -49 -18 -34 -11 -60 16 -60
22 0 39 -32 21 -38 -7 -2 -10 -8 -6 -13 3 -5 -23 -10 -58 -10 -35 -1 -92 -5
-128 -9 -55 -7 -47 -8 47 -5 78 2 120 -1 137 -10 24 -13 26 -12 32 21 7 41 1
62 -23 71 -40 14 -45 25 -22 49 12 13 20 27 16 30 -16 16 15 44 48 44 30 0 34
3 32 23 -2 18 3 22 21 20 13 -2 21 1 17 7 -10 15 42 12 75 -5 30 -15 50 -43
50 -67 -1 -8 -6 -6 -15 7 -14 17 -15 15 -10 -30 2 -28 2 -41 -1 -30 -3 11 -12
27 -19 35 -7 8 -20 30 -29 48 -9 17 -21 32 -26 32 -6 0 -5 -8 2 -20 16 -26 2
-39 -17 -14 -14 19 -14 18 -15 -3 0 -12 5 -23 12 -25 20 -7 0 -56 -25 -61 -21
-4 -21 -5 -2 -11 16 -6 20 -15 19 -49 -1 -23 3 -48 8 -54 6 -7 7 -13 3 -13 -4
0 -1 -7 6 -16 12 -15 11 -16 -11 -11 -14 4 -19 4 -12 1 7 -3 22 -25 33 -47 11
-23 14 -34 6 -24 -22 26 -30 20 -11 -8 24 -37 12 -114 -37 -236 -53 -132 -56
-190 -12 -251 37 -52 52 -103 42 -142 -10 -34 -56 -86 -78 -86 -12 0 -13 -2
-4 -8 10 -6 8 -31 -8 -112 -22 -112 -29 -230 -15 -267 6 -18 5 -23 -7 -23 -8
0 -44 39 -79 88 l-63 87 1 155 c0 119 4 165 17 198 9 23 12 42 7 42 -5 0 -12
-11 -16 -25 -10 -39 -21 -21 -39 60 -15 68 -16 80 -2 123 8 26 18 65 21 87 12
71 16 77 42 72 35 -6 29 10 -6 18 -52 11 -64 57 -27 101 22 25 27 26 63 17 46
-11 64 -7 64 14 0 13 -2 13 -17 2 -9 -8 -14 -9 -11 -4 4 6 -12 11 -39 12 -50
2 -172 31 -188 45 -5 4 -16 8 -25 8 -12 -1 -11 -4 4 -15 19 -14 18 -17 -25
-58 -67 -63 -75 -85 -54 -140 9 -24 15 -55 13 -68 -4 -29 -34 -37 -40 -11 -3
10 -13 19 -22 19 -15 0 -14 -2 1 -20 17 -18 17 -19 -12 -15 -30 3 -30 3 -30
68 0 80 -26 131 -65 129 -9 0 -7 -4 7 -11 28 -13 37 -36 22 -54 -10 -12 -8
-13 7 -8 18 7 18 6 2 -12 -9 -10 -18 -32 -20 -49 -2 -24 -8 -31 -30 -33 -23
-3 -28 1 -28 17 0 12 5 21 10 21 6 0 10 5 10 10 0 6 -7 10 -15 10 -20 0 -28
-55 -16 -115 5 -29 6 -56 0 -66 -10 -19 -66 -42 -80 -33 -14 8 -11 24 5 24 7
0 25 6 39 13 24 12 24 15 11 46 -15 37 -38 37 -42 0 -2 -21 -1 -22 8 -6 6 9
15 15 21 12 16 -11 10 -32 -11 -38 -26 -7 -35 27 -21 79 14 49 14 74 1 74 -5
0 -10 -10 -10 -21 0 -22 -9 -23 -100 -4 -14 3 -6 -3 18 -14 32 -16 42 -26 41
-43 0 -13 -3 -17 -6 -10 -2 6 -11 12 -19 12 -8 0 -14 7 -14 16 0 8 -4 13 -9 9
-5 -3 -12 -1 -16 5 -8 12 -45 -5 -45 -22 0 -7 4 -7 14 1 8 7 17 8 19 3 3 -4
-3 -13 -14 -20 -15 -10 -19 -10 -19 0 0 7 -12 0 -25 -17 -23 -27 -23 -24 6 27
17 32 29 58 26 58 -3 0 -21 -16 -41 -35 -29 -28 -36 -42 -36 -74 0 -22 -5 -42
-12 -44 -7 -3 -3 -6 10 -6 42 -2 22 -21 -21 -21 -30 0 -49 6 -60 18 -24 26
-21 35 8 28 22 -6 24 -4 16 11 -5 10 -13 32 -18 48 -7 27 -13 30 -53 33 -25 2
-50 8 -56 13 -8 7 -14 6 -19 -1 -3 -5 -27 -10 -51 -10 -64 0 -52 22 19 37 51
12 62 11 108 -7 l51 -19 -7 71 c-7 72 -31 117 -63 118 -7 0 -24 25 -39 55 -15
30 -32 55 -39 55 -6 0 -17 6 -23 14 -10 12 -9 14 6 12 10 -2 12 -1 6 1 -7 3
-13 10 -13 16 0 8 -3 8 -11 0 -16 -16 -1 -53 22 -53 11 0 22 -8 25 -17 14 -44
39 -80 67 -98 22 -15 34 -33 43 -70 18 -68 18 -65 -21 -65 -24 0 -35 5 -35 15
0 8 7 15 15 15 8 0 15 7 15 15 0 19 -46 49 -64 42 -18 -7 -26 -53 -12 -67 8
-8 3 -10 -19 -4 -16 4 -32 8 -33 10 -2 1 3 34 12 73 20 87 20 97 3 82 -8 -6
-17 -8 -20 -4 -4 3 -25 -8 -47 -26 -33 -26 -41 -29 -46 -17 -3 9 -12 16 -19
16 -14 0 -25 -44 -25 -101 0 -22 -4 -39 -10 -39 -5 0 -10 6 -10 13 0 6 -9 23
-20 37 -11 14 -20 31 -20 38 0 7 -11 28 -24 45 -20 28 -23 42 -21 103 1 39 5
76 9 83 5 7 5 27 2 45 -5 27 -14 36 -56 55 l-49 22 -23 -20 c-12 -12 -36 -22
-52 -22 -28 -2 -28 -2 -6 -6 14 -3 33 -12 43 -21 9 -8 20 -12 25 -8 4 4 -1 13
-11 21 -16 12 -16 13 6 28 21 13 25 13 51 -8 16 -13 36 -21 44 -17 13 4 14 -2
7 -44 -8 -53 -9 -62 -3 -145 3 -40 10 -62 26 -79 28 -30 28 -40 0 -32 l-21 5
20 -20 c15 -15 23 -45 33 -114 7 -52 16 -114 19 -139 l6 -45 17 80 c10 44 20
105 23 135 14 134 17 147 26 122 l9 -23 37 29 c40 31 78 39 68 15 -3 -8 -5
-17 -5 -19 0 -2 -5 -4 -11 -4 -6 0 -8 7 -5 16 6 14 4 15 -9 4 -11 -9 -13 -15
-4 -20 8 -6 8 -13 -1 -31 l-13 -24 23 20 23 20 -8 -20 c-6 -17 -11 -38 -14
-68 -1 -4 -14 -21 -30 -37 -25 -26 -29 -41 -36 -112 -3 -44 -11 -93 -17 -107
-6 -14 -10 -32 -9 -38 1 -7 -3 -13 -9 -13 -6 0 -8 -10 -5 -23 4 -15 1 -28 -9
-36 -9 -8 -16 -19 -16 -26 0 -8 -6 -15 -13 -18 -6 -2 -2 -2 10 0 18 3 23 -3
29 -33 4 -20 1 -77 -6 -126 -13 -88 -15 -93 -67 -154 -32 -38 -62 -64 -74 -64
-10 0 -19 -6 -19 -14 0 -8 -4 -18 -10 -21 -6 -4 -10 19 -10 61 l0 67 32 -7
c20 -4 29 -3 23 3 -6 5 -19 11 -30 13 -16 4 -12 7 15 15 l35 10 -49 7 c-36 6
-50 13 -53 27 -5 19 -6 19 -17 -3 -10 -19 -9 -24 5 -30 15 -6 18 -23 21 -100
4 -103 -4 -121 -56 -134 -25 -6 -28 -4 -23 10 4 9 2 16 -3 16 -17 0 -11 28 7
33 17 4 17 5 1 6 -10 0 -18 6 -18 11 0 6 12 8 28 5 l27 -5 -27 11 c-39 15 -35
32 4 24 l33 -6 -33 15 c-27 13 -32 20 -32 51 0 26 4 35 17 35 15 0 15 1 1 12
-9 7 -21 31 -27 54 -11 41 -11 43 31 186 13 47 0 105 -47 204 -28 60 -34 86
-40 170 -6 89 -4 102 14 132 20 31 45 39 112 34 11 -1 20 13 28 41 7 23 17 56
22 72 9 28 6 33 -46 82 -30 28 -55 57 -55 63 0 7 -6 10 -14 7 -7 -3 -18 -1
-24 5 -6 6 -23 0 -50 -19 -39 -27 -40 -30 -40 -88 -2 -87 6 -113 36 -129 15
-7 33 -11 40 -9 20 8 14 -17 -13 -49 -14 -16 -25 -39 -25 -50 0 -17 -4 -19
-33 -13 -38 8 -77 31 -77 45 0 6 11 15 25 20 35 13 31 16 -20 12 -36 -3 -46 0
-52 13 -4 11 0 22 9 29 8 6 13 17 11 24 -7 19 44 15 56 -5 9 -16 10 -16 11 -2
0 32 -69 41 -77 10 -3 -12 -11 -17 -20 -14 -12 5 -13 -17 -8 -158 8 -197 8
-165 -1 -279 -4 -52 -3 -92 1 -88 5 4 15 2 23 -5 11 -9 11 -4 -2 16 -26 39 -8
33 44 -15 35 -34 33 -30 -9 14 -30 32 -52 60 -49 64 4 3 21 -9 38 -28 l32 -33
-31 41 c-47 63 -37 65 24 4 30 -30 55 -51 55 -47 0 4 -25 32 -55 62 -42 43
-55 63 -55 86 0 35 10 31 42 -13 20 -29 20 -31 3 -24 -16 6 65 -84 164 -184
13 -13 13 -13 1 5 -8 11 -41 48 -74 82 -72 75 -67 98 5 27 71 -69 93 -107 79
-135 l-12 -21 -26 24 c-26 22 -26 22 -8 0 11 -12 16 -25 13 -28 -3 -4 -18 8
-33 25 -48 57 -67 76 -40 41 66 -87 65 -75 11 -130 -55 -56 -56 -55 -105 18
-23 36 -30 41 -30 24 0 -12 4 -22 9 -22 4 0 20 -18 35 -41 15 -22 31 -39 36
-37 4 2 38 30 75 63 77 68 100 85 92 64 -3 -8 -12 -32 -19 -54 -9 -28 -44 -72
-115 -145 l-102 -105 -1 57 c0 49 3 59 26 77 l27 21 -29 42 -29 42 -5 -40
c-10 -75 2 -609 14 -616 10 -7 838 -2 1166 7 80 2 336 4 568 5 l424 0 -6 763
c-4 419 -11 1257 -17 1862 -6 605 -11 1119 -11 1143 l0 42 -447 0 c-246 0
-450 -2 -452 -4z m-154 -96 c17 -19 17 -21 0 -40 -23 -26 -47 -25 -71 1 -18
20 -18 21 6 40 32 24 43 24 65 -1z m40 10 c-3 -5 -10 -10 -16 -10 -5 0 -9 5
-9 10 0 6 7 10 16 10 8 0 12 -4 9 -10z m640 0 c-3 -5 -2 -10 4 -10 5 0 17 -3
27 -7 11 -4 15 -3 11 5 -12 19 64 -8 100 -35 19 -15 33 -20 33 -13 0 9 4 9 13
2 6 -6 28 -14 47 -19 36 -10 47 -27 65 -112 10 -47 -14 -38 -39 16 -19 40 -66
84 -53 49 11 -27 -2 -18 -58 39 -29 30 -58 55 -64 55 -19 0 -12 -15 11 -25 13
-6 24 -17 26 -26 2 -13 -5 -15 -40 -12 -23 3 -47 10 -51 16 -6 8 -7 7 -4 -3 2
-8 12 -17 23 -18 35 -7 39 -22 6 -22 -19 0 -40 8 -52 20 -11 11 -26 17 -35 14
-21 -9 -19 -19 8 -32 20 -10 21 -11 2 -11 -11 -1 -33 -9 -48 -20 -31 -20 -24
-33 26 -45 38 -9 36 -36 -3 -36 -16 0 -30 -4 -30 -10 0 -5 8 -10 18 -10 13 0
14 -2 3 -9 -7 -5 -10 -14 -7 -20 4 -7 -1 -11 -12 -11 -14 0 -19 -7 -19 -26 0
-25 1 -26 43 -20 48 6 57 1 22 -14 -19 -7 -19 -9 -5 -9 35 -2 6 -21 -31 -21
-35 -1 -36 -2 -18 -15 11 -8 15 -15 9 -15 -14 0 -43 -28 -43 -41 0 -5 11 -11
25 -15 31 -8 23 -24 -13 -24 -26 -1 -26 -1 -8 -15 20 -15 20 -15 0 -15 -19 -1
-19 -1 0 -15 19 -14 19 -15 1 -15 -17 0 -17 -2 4 -21 13 -12 29 -18 39 -14 22
8 123 -5 116 -16 -3 -5 -24 -10 -47 -10 -39 -1 -40 -2 -12 -9 25 -6 27 -8 12
-15 -24 -10 -96 11 -104 31 -3 8 -12 14 -21 14 -13 0 -12 -3 3 -20 18 -19 11
-26 -19 -21 -5 1 -6 -5 -3 -14 5 -10 0 -15 -14 -15 -16 0 -20 -5 -16 -20 3
-10 0 -21 -7 -24 -17 -7 24 -36 51 -36 13 0 23 -5 23 -11 0 -12 -54 -8 -99 6
-14 5 -22 4 -18 -1 10 -17 -20 -46 -41 -40 -11 4 -24 0 -31 -8 -7 -8 -19 -12
-27 -9 -8 3 -14 0 -14 -5 0 -7 -17 -5 -45 5 -60 20 -59 38 2 36 6 0 9 5 6 12
-6 18 32 28 56 16 24 -13 42 -14 22 -2 -12 8 -13 12 -1 26 7 9 19 14 27 11 7
-3 13 -1 13 5 0 6 6 7 13 3 10 -6 10 -4 0 7 -20 20 -15 31 10 24 18 -5 19 -4
7 5 -11 8 -12 13 -3 16 7 3 9 12 6 20 -3 8 -1 14 5 14 6 0 8 9 5 20 -3 12 0
20 6 20 7 0 9 5 5 12 -4 6 1 17 11 25 18 13 18 13 -1 13 -14 0 -16 2 -5 9 9 6
10 10 2 12 -20 7 -1 39 23 40 15 0 17 2 6 7 -22 10 -24 42 -3 43 17 1 17 2 1
6 -20 5 -23 19 -7 29 8 4 7 9 -2 15 -12 8 -11 11 1 19 13 8 12 10 -3 10 -13 0
-16 6 -13 25 3 14 0 25 -6 25 -7 0 -7 4 -1 13 6 6 9 20 8 30 -2 10 3 21 12 24
12 5 12 7 2 14 -11 6 -10 9 3 14 9 4 14 13 11 21 -3 9 2 14 13 14 15 0 16 2 6
9 -19 12 5 51 27 44 14 -4 14 -3 1 6 -12 8 -11 14 10 35 13 15 30 26 37 26 8
0 11 5 8 10 -3 6 3 10 14 10 11 0 23 5 26 10 3 6 11 10 16 10 6 0 7 -4 4 -10z
m-1392 -57 c-6 -16 -5 -16 10 -4 15 12 17 11 17 -2 0 -10 6 -14 14 -11 22 9
70 -61 62 -91 -4 -17 -3 -24 6 -23 20 5 21 -32 1 -48 -16 -13 -16 -13 0 -8 9
3 17 1 17 -5 0 -6 -4 -11 -10 -11 -5 0 -10 -4 -10 -10 0 -5 6 -9 13 -7 16 3
12 -100 -5 -121 -11 -13 -10 -15 5 -9 16 6 16 5 1 -18 -15 -23 -15 -25 0 -25
9 0 16 -4 16 -9 0 -13 -29 -41 -43 -42 -7 -1 -1 -4 13 -9 l25 -7 -25 -11 c-14
-6 -18 -11 -10 -12 13 0 13 -1 0 -10 -10 -6 -11 -10 -2 -10 6 0 12 -11 12 -24
0 -14 5 -28 10 -31 8 -5 7 -12 -2 -23 -11 -14 -10 -15 6 -9 17 7 17 6 5 -9
-13 -16 -12 -16 10 -4 21 11 23 10 18 -3 -4 -12 -1 -14 11 -10 14 5 15 3 5 -8
-17 -18 -16 -34 1 -20 10 9 16 8 26 -4 7 -9 8 -15 2 -15 -5 0 -12 -7 -16 -15
-4 -12 -2 -13 12 -4 14 9 26 6 54 -12 21 -13 37 -27 38 -30 0 -12 -67 -37 -80
-29 -7 4 -29 5 -50 3 -37 -5 -38 -5 -34 24 3 28 1 30 -23 25 -22 -4 -25 -2
-20 13 6 13 3 16 -10 11 -15 -5 -15 -4 1 9 22 17 14 20 -14 5 -26 -14 -37 7
-14 26 11 9 13 12 5 8 -11 -5 -13 -3 -8 9 7 18 -8 24 -18 7 -3 -5 -16 -10 -27
-10 -21 0 -21 0 -2 22 16 18 17 21 2 15 -12 -4 -15 -2 -12 8 3 8 14 17 24 20
29 9 41 31 34 59 -4 18 -13 26 -28 26 -19 1 -19 2 -3 11 16 9 16 11 1 27 -12
12 -13 17 -4 20 9 3 9 6 -1 13 -9 6 -10 12 -4 17 6 4 11 13 13 20 2 10 -4 11
-20 6 -69 -23 -86 2 -26 36 24 13 47 29 51 37 4 7 15 13 22 13 10 0 15 10 15
30 0 19 -5 29 -12 27 -7 -1 -12 4 -11 11 2 6 -4 12 -13 12 -14 0 -14 3 -4 15
7 8 9 15 4 15 -4 0 -3 5 3 11 9 9 8 15 0 24 -10 10 -21 10 -57 -1 -24 -7 -46
-11 -48 -9 -9 9 21 35 39 35 23 0 29 11 22 38 -8 32 -38 28 -99 -13 -64 -43
-80 -44 -102 -5 -9 16 -24 30 -32 29 -10 0 -11 -2 -2 -6 15 -6 16 -23 2 -23
-21 0 -21 29 -1 49 12 12 24 21 29 20 4 0 16 3 27 6 33 11 55 12 55 4 0 -5 7
-6 15 -3 8 4 15 1 15 -6 0 -10 5 -9 18 2 18 17 42 25 79 27 17 1 21 -3 16 -16z
m617 -3 c0 -5 -4 -10 -10 -10 -5 0 -10 5 -10 10 0 6 5 10 10 10 6 0 10 -4 10
-10z m135 0 c3 -5 -1 -10 -10 -10 -9 0 -13 5 -10 10 3 6 8 10 10 10 2 0 7 -4
10 -10z m961 -47 c-7 -7 -26 7 -26 19 0 6 6 6 15 -2 9 -7 13 -15 11 -17z
m-1126 -3 c0 -5 -2 -10 -4 -10 -3 0 -8 5 -11 10 -3 6 -1 10 4 10 6 0 11 -4 11
-10z m1154 -49 c-6 -6 -24 19 -24 34 1 6 7 1 15 -9 8 -11 12 -22 9 -25z
m-2057 -12 c-20 -16 -41 -38 -47 -47 -9 -14 -10 -13 -8 8 2 15 16 33 37 47 49
33 62 28 18 -8z m1123 16 c7 -9 10 -19 6 -22 -4 -4 -11 -1 -16 6 -4 8 -15 11
-24 8 -10 -4 -16 -1 -16 8 0 20 34 19 50 0z m624 9 c25 -4 46 -10 46 -14 0
-16 -61 -30 -81 -19 -27 14 -23 20 9 13 19 -5 24 -3 17 4 -5 6 -23 12 -40 15
-16 2 -23 5 -14 6 9 0 37 -2 63 -5z m-1654 -24 c0 -14 5 -18 18 -13 15 6 15 5
3 -10 -13 -16 -42 -23 -53 -12 -7 7 14 55 25 55 4 0 7 -9 7 -20z m1819 4 c2
-2 -17 -4 -43 -4 -30 0 -45 4 -41 10 6 9 72 4 84 -6z m-1689 -13 c0 -6 -18
-20 -40 -32 -53 -30 -66 -70 -22 -68 11 0 12 3 5 6 -19 7 -16 23 10 44 29 24
40 24 25 -1 -10 -16 -10 -24 -1 -39 10 -17 8 -23 -20 -45 -18 -14 -27 -25 -21
-26 6 0 31 18 56 39 l44 39 -4 -29 c-2 -16 -10 -29 -18 -29 -7 0 -40 -25 -72
-55 -46 -42 -67 -55 -91 -55 -45 0 -38 16 20 46 57 28 60 42 5 24 -46 -15 -59
-6 -50 33 14 69 80 135 149 150 11 3 21 5 23 6 1 0 2 -3 2 -8z m1699 -7 c37
-12 -61 -54 -127 -54 -29 0 -32 3 -27 20 4 13 2 20 -7 20 -7 1 1 7 17 14 27
11 108 11 144 0z m-180 -40 c-6 -8 -19 -14 -28 -13 -11 0 -12 2 -3 6 9 3 10 9
2 18 -8 9 -4 11 15 7 20 -3 23 -7 14 -18z m-1770 -26 c-7 -13 -16 -43 -20 -68
l-6 -45 -2 43 c-1 42 29 127 37 104 2 -6 -2 -21 -9 -34z m284 11 c-30 -30 -53
-32 -53 -4 0 7 12 18 28 23 50 19 58 13 25 -19z m49 9 c-7 -7 -12 -8 -12 -2 0
14 12 26 19 19 2 -3 -1 -11 -7 -17z m1758 -45 c0 -25 -7 -28 -30 -13 -12 8
-13 11 -1 19 9 6 10 11 2 15 -6 4 -11 17 -11 29 0 22 1 22 20 -3 11 -14 20
-35 20 -47z m-2004 28 c-18 -20 -48 -106 -40 -114 2 -2 -2 -10 -11 -17 -12
-10 -15 -10 -15 3 0 41 52 147 73 147 5 0 2 -9 -7 -19z m1934 10 c0 -5 -7 -14
-15 -21 -9 -7 -13 -21 -10 -31 5 -13 -5 -25 -35 -44 -47 -29 -100 -43 -100
-26 0 6 7 11 15 11 18 0 119 49 113 55 -2 2 -26 -7 -54 -21 -59 -29 -124 -42
-124 -25 0 6 12 12 28 12 l27 1 -30 8 c-28 7 -29 8 -5 10 14 1 19 4 12 7 -18
7 -4 23 21 23 12 0 47 11 77 24 61 26 80 30 80 17z m-95 -10 c-8 -14 -63 -24
-77 -14 -8 5 3 10 32 14 25 3 46 7 48 7 2 1 1 -2 -3 -7z m-1585 -10 c0 -12
-42 -42 -49 -36 -5 6 29 45 41 45 4 0 8 -4 8 -9z m-334 -66 l-16 -40 6 40 c3
22 8 47 11 55 5 13 7 13 10 0 2 -9 -3 -33 -11 -55z m1824 57 c0 -5 -14 -21
-30 -37 -17 -16 -28 -35 -26 -42 3 -7 -4 -17 -14 -23 -25 -13 -26 -33 -2 -27
9 3 33 8 54 11 33 6 36 5 31 -14 -3 -12 -23 -33 -44 -47 -36 -24 -43 -25 -92
-16 l-52 10 50 2 c60 2 89 15 56 26 -11 3 -21 11 -21 17 0 5 -7 8 -15 5 -22
-9 -28 11 -6 22 10 6 28 27 40 47 19 33 20 36 4 30 -37 -15 -71 -18 -77 -7 -5
7 3 11 21 12 15 0 46 9 68 19 46 21 55 23 55 12z m-528 -29 c2 -10 -1 -26 -6
-37 -8 -13 -8 -20 0 -23 6 -2 9 -17 6 -33 -3 -21 1 -32 12 -36 16 -6 23 -35 9
-33 -26 4 -34 -3 -31 -28 2 -23 8 -28 26 -25 32 3 24 -19 -14 -37 -16 -8 -35
-20 -42 -28 -30 -29 -67 1 -55 45 3 12 0 28 -6 36 -8 10 -9 25 -4 47 9 34 33
52 33 25 0 -9 -4 -16 -9 -16 -5 0 -11 -7 -15 -15 -6 -17 30 -55 53 -55 10 0 6
7 -11 18 -32 19 -36 37 -11 50 21 12 10 42 -17 49 -26 7 -26 23 1 23 17 0 20
4 16 23 -7 26 0 39 28 55 27 16 33 15 37 -5z m-922 -3 c0 -5 -2 -10 -4 -10 -3
0 -8 5 -11 10 -3 6 -1 10 4 10 6 0 11 -4 11 -10z m960 -11 c0 -5 -4 -9 -10 -9
-5 0 -10 7 -10 16 0 8 5 12 10 9 6 -3 10 -10 10 -16z m676 -24 c-21 -32 -20
-41 2 -24 15 13 16 12 3 -3 -7 -10 -17 -15 -22 -13 -4 3 -18 -8 -30 -24 -24
-33 -55 -51 -46 -26 5 12 1 12 -29 -2 -25 -12 -37 -14 -45 -6 -8 8 7 19 52 42
35 16 78 46 94 65 32 37 47 31 21 -9z m64 15 c8 -5 11 -12 7 -16 -4 -4 -15 0
-24 9 -18 18 -8 23 17 7z m-1815 -40 c3 -5 -6 -12 -20 -16 -31 -8 -34 -24 -2
-18 12 3 0 -7 -27 -21 -27 -13 -51 -24 -52 -22 -7 6 42 67 61 76 26 13 33 13
40 1z m-295 -57 c-11 -17 -11 -17 -6 0 3 10 6 24 7 30 0 9 2 9 5 0 3 -7 0 -20
-6 -30z m2114 6 c-7 -11 -55 -11 -73 0 -11 7 -10 11 5 19 20 11 77 -4 68 -19z
m-916 -10 c9 0 12 -3 6 -5 -7 -3 -10 -14 -7 -24 6 -23 -5 -25 -29 -6 -23 17
-24 51 -2 42 9 -3 23 -6 32 -7z m532 1 c0 -5 -5 -10 -11 -10 -5 0 -7 5 -4 10
3 6 8 10 11 10 2 0 4 -4 4 -10z m-1452 -17 c-2 -11 -14 -19 -31 -21 -31 -4
-35 5 -9 24 24 19 44 17 40 -3z m1505 0 c-7 -2 -19 -2 -25 0 -7 3 -2 5 12 5
14 0 19 -2 13 -5z m292 -18 c32 -32 34 -59 3 -50 -30 9 -68 33 -68 43 0 11 22
32 32 32 5 0 20 -11 33 -25z m-1752 3 c-4 -7 -6 -20 -5 -28 4 -24 -59 -59
-113 -65 -37 -3 -43 -2 -25 4 22 8 19 9 -20 11 l-45 2 68 17 c38 9 79 26 93
38 20 18 37 28 52 32 2 1 0 -5 -5 -11z m1787 -8 c6 -11 8 -20 6 -20 -3 0 -10
9 -16 20 -6 11 -8 20 -6 20 3 0 10 -9 16 -20z m-1900 -5 c17 -9 30 -17 30 -20
0 -2 -27 -9 -61 -16 -47 -9 -62 -17 -69 -34 -9 -22 -29 -35 -56 -35 -29 0 19
61 71 91 28 16 51 29 53 29 2 0 16 -7 32 -15z m920 -11 c0 -8 -4 -12 -10 -9
-5 3 -10 10 -10 16 0 5 5 9 10 9 6 0 10 -7 10 -16z m805 6 c-14 -23 -165 -42
-165 -20 0 9 35 17 105 23 22 2 46 4 53 5 7 1 11 -2 7 -8z m32 -15 c-43 -38
-177 -72 -177 -45 0 12 -6 10 55 16 28 3 70 16 95 29 57 30 61 30 27 0z m-243
-9 c-4 -9 2 -16 17 -18 44 -6 32 -26 -15 -26 -26 1 -46 5 -46 10 0 4 5 8 12 8
6 0 8 3 5 7 -8 7 11 33 24 33 5 0 6 -6 3 -14z m306 -6 c16 -13 20 -20 10 -19
-16 0 -50 22 -50 33 0 11 14 6 40 -14z m-1689 -23 c-6 -8 -7 -18 -3 -22 4 -5
2 -5 -5 -2 -14 9 -45 -2 -38 -13 6 -9 -30 -20 -65 -19 -19 0 -9 8 40 33 72 38
88 43 71 23z m893 -65 c10 -17 51 -15 66 3 7 8 19 15 27 15 22 0 -26 -58 -58
-69 -38 -13 -49 3 -54 76 -3 44 -2 50 3 23 5 -20 12 -41 16 -48z m-860 35 c-5
-13 -24 -26 -133 -90 -30 -18 -56 -37 -58 -44 -6 -16 57 -9 98 11 39 19 39 19
39 2 0 -8 -15 -19 -32 -24 -45 -14 -158 -22 -158 -12 0 5 15 28 33 52 29 37
40 44 84 51 33 5 62 18 84 37 37 32 51 37 43 17z m1531 3 c-3 -5 -17 -10 -31
-10 -14 0 -22 4 -19 10 3 6 17 10 31 10 14 0 22 -4 19 -10z m-1755 -16 c0 -2
-9 -4 -21 -4 -11 0 -18 4 -14 10 5 8 35 3 35 -6z m1728 -8 c2 -3 1 -9 -3 -15
-7 -13 -45 -15 -45 -3 0 5 -12 13 -27 20 -25 11 -23 11 21 7 27 -3 51 -7 54
-9z m-1515 -29 c-15 -18 -50 -43 -77 -56 -76 -35 -85 -36 -36 -2 25 17 49 31
54 31 4 0 24 14 43 30 44 39 52 38 16 -3z m-179 -8 c-23 -25 -87 -54 -92 -40
-2 5 -23 7 -48 5 -36 -4 -44 -2 -44 11 0 13 6 15 33 10 24 -5 28 -4 17 4 -8 6
-24 11 -34 11 -11 0 -17 3 -13 6 3 3 37 6 76 5 38 0 80 3 93 8 31 12 35 5 12
-20z m1661 -9 c3 -6 -1 -7 -9 -4 -18 7 -21 14 -7 14 6 0 13 -4 16 -10z m-135
-65 c0 -8 -4 -15 -8 -15 -13 0 -43 36 -36 43 10 10 44 -12 44 -28z m140 15 c0
-5 -19 -10 -42 -10 -32 0 -39 3 -28 10 20 13 70 13 70 0z m-1790 -15 c7 -8 21
-15 32 -15 10 0 21 -6 24 -14 3 -8 29 -20 57 -27 41 -10 48 -14 32 -20 -19 -7
-19 -8 3 -8 45 -2 20 -19 -37 -26 -61 -7 -101 -1 -101 16 0 5 -7 9 -15 9 -8 0
-15 6 -15 14 0 7 -9 16 -20 19 -25 6 -27 27 -2 27 16 1 16 1 0 11 -10 5 -18
14 -18 19 0 16 46 11 60 -5z m1753 -12 c-7 -2 -19 -2 -25 0 -7 3 -2 5 12 5 14
0 19 -2 13 -5z m-1393 -75 c0 -5 11 -6 25 -2 42 11 29 -18 -26 -55 -38 -26
-64 -36 -105 -39 l-55 -5 12 26 c8 18 32 34 75 53 36 15 63 29 61 31 -2 2 -21
-4 -41 -12 -50 -21 -120 -16 -124 8 -3 15 1 17 24 11 19 -5 25 -4 20 5 -4 6
-1 11 6 11 7 0 29 8 48 19 l35 18 22 -30 c13 -17 23 -35 23 -39z m1369 -46
c31 -88 26 -108 -9 -39 -12 23 -32 61 -45 85 -13 24 -21 50 -18 58 11 28 42
-17 72 -104z m-144 98 c19 -8 19 -9 -2 -9 -12 -1 -25 4 -28 9 -7 12 2 12 30 0z
m238 -37 c9 -9 17 -19 17 -24 0 -10 -93 36 -108 54 -11 13 -8 13 30 0 24 -8
51 -22 61 -30z m-174 -7 c12 -18 21 -35 21 -38 0 -2 -17 -5 -38 -6 -37 -3
-105 19 -116 36 -8 13 103 -4 120 -18 10 -9 14 -9 14 -1 0 6 -7 14 -15 17 -8
4 -15 15 -15 25 0 27 5 24 29 -15z m-396 -58 c-2 -40 -1 -41 13 -24 7 11 14
23 14 28 0 4 4 8 9 8 17 0 -20 -85 -47 -107 -14 -12 -23 -25 -19 -29 3 -4 13
-1 21 5 8 7 21 9 27 5 8 -4 9 -3 5 4 -4 6 -2 19 3 29 5 10 15 33 22 51 11 32
14 33 48 27 67 -12 101 -26 120 -53 18 -25 51 -46 111 -69 23 -9 21 -11 -28
-22 -53 -13 -91 -46 -115 -99 -6 -13 -29 -32 -51 -43 -45 -22 -56 -23 -56 -9
0 6 6 10 14 10 7 0 27 7 42 16 l29 15 -32 -6 c-35 -7 -43 4 -18 25 14 12 14
15 -1 31 -10 11 -22 19 -28 19 -6 0 -1 -8 12 -18 22 -17 22 -17 3 -29 -17 -11
-23 -9 -41 14 -16 21 -18 29 -8 41 18 21 57 132 48 132 -5 0 -13 -12 -19 -27
-10 -26 -11 -25 -6 12 4 32 3 37 -6 22 -6 -11 -12 -41 -13 -68 -2 -50 -35
-103 -53 -85 -4 4 4 18 20 31 15 13 27 30 27 37 0 7 -12 0 -26 -16 -18 -18
-29 -24 -34 -17 -5 9 -10 7 -20 -4 -9 -11 -9 -15 -1 -15 7 0 9 -4 6 -10 -6 -9
11 -14 44 -12 14 0 50 -36 51 -52 0 -5 -7 -3 -15 4 -10 8 -15 9 -15 2 0 -6 8
-15 17 -21 10 -5 15 -12 12 -16 -4 -3 -28 6 -54 20 -26 14 -57 25 -67 25 -11
0 -16 5 -13 10 3 6 1 10 -5 10 -6 0 -8 5 -5 10 3 6 2 10 -4 10 -18 0 -5 32 19
45 16 9 23 22 24 43 1 31 1 31 -20 11 -11 -10 -28 -19 -37 -19 -9 0 -19 -5
-23 -11 -6 -10 10 -8 54 8 29 12 9 -16 -24 -32 -26 -12 -33 -20 -25 -28 14
-14 14 -27 0 -27 -5 0 -7 5 -3 12 5 7 2 9 -8 5 -13 -4 -16 3 -14 41 1 45 2 47
35 52 21 3 41 15 53 30 20 27 27 93 13 125 -9 19 -8 19 15 3 21 -13 25 -23 23
-60z m-1292 39 c-13 -13 -26 -3 -16 12 3 6 11 8 17 5 6 -4 6 -10 -1 -17z
m1844 -4 c51 -25 70 -43 45 -43 -19 0 -110 50 -110 60 0 14 3 13 65 -17z
m-1805 -2 c0 -10 -61 -44 -67 -37 -5 5 47 46 58 46 5 0 9 -4 9 -9z m182 -24
c-24 -7 -36 -7 -44 1 -9 9 -1 12 33 11 l44 -1 -33 -11z m-133 -10 c-14 -7 -40
-24 -58 -39 -40 -34 -51 -35 -51 -3 0 31 41 54 95 54 39 -1 39 -1 14 -12z
m1398 -14 c-8 -7 -37 9 -31 19 3 5 12 4 20 -3 8 -6 13 -14 11 -16z m91 3 c75
-48 115 -108 49 -75 -26 14 -97 80 -97 91 0 12 7 10 48 -16z m-1373 5 c40 -9
40 -9 -17 -10 -31 0 -60 4 -63 9 -7 12 24 12 80 1z m415 0 c-8 -5 -33 -11 -55
-14 l-40 -6 35 14 c40 15 85 20 60 6z m1086 -4 c11 -10 -59 -8 -75 2 -10 6 -1
9 27 7 23 -1 44 -5 48 -9z m-1596 -23 c0 -8 -4 -14 -10 -14 -5 0 -16 -12 -24
-27 -16 -30 -86 -90 -86 -74 0 6 14 26 31 46 17 19 27 35 21 35 -6 0 -24 -17
-41 -37 -17 -22 -30 -32 -31 -23 0 23 10 34 69 78 54 41 71 45 71 16z m573
-19 c39 -65 33 -77 -8 -16 -36 52 -40 61 -27 61 4 0 19 -20 35 -45z m1137 35
c13 -8 13 -10 -2 -10 -9 0 -20 5 -23 10 -8 13 5 13 25 0z m-1310 -14 c0 -8
-13 -24 -30 -36 -25 -18 -30 -19 -30 -6 0 9 -4 16 -10 16 -5 0 -10 -5 -10 -11
0 -5 -4 -8 -9 -4 -6 3 0 16 12 29 25 27 77 35 77 12z m1060 -31 l25 -28 -42
28 c-24 15 -43 32 -43 37 0 13 31 -6 60 -37z m-1340 25 c0 -13 -60 -13 -80 0
-11 7 -2 10 33 10 26 0 47 -4 47 -10z m205 0 c-3 -5 -11 -10 -16 -10 -6 0 -7
5 -4 10 3 6 11 10 16 10 6 0 7 -4 4 -10z m233 -44 c35 -52 42 -82 17 -72 -19
7 -19 -4 1 -32 9 -13 14 -25 11 -28 -3 -3 -19 19 -36 48 -36 63 -42 51 -6 -16
13 -25 22 -46 20 -46 -12 0 -20 6 -17 13 1 4 -5 7 -13 7 -8 0 -19 9 -25 21 -7
11 -14 18 -17 16 -3 -3 7 -22 22 -41 15 -20 22 -36 16 -36 -6 0 -11 5 -11 10
0 15 -27 12 -33 -4 -4 -10 -1 -13 7 -10 23 9 28 -14 5 -26 -11 -7 -18 -14 -15
-17 2 -3 18 4 34 16 28 19 31 20 43 4 10 -12 10 -14 2 -9 -7 4 -13 2 -13 -3 0
-6 -7 -11 -15 -11 -8 0 -15 -7 -15 -15 0 -23 -16 -18 -57 18 -21 17 -32 24
-24 15 17 -22 8 -23 -24 -2 -37 24 -30 10 10 -20 27 -21 33 -23 28 -9 -6 16
-5 16 10 4 26 -21 22 -44 -5 -36 -60 18 -188 150 -172 176 2 4 -3 9 -11 13
-10 3 -15 -1 -15 -14 0 -10 -4 -22 -10 -25 -18 -11 -10 -25 14 -25 14 0 28 -5
32 -12 5 -8 2 -9 -9 -5 -20 8 -22 -4 -4 -22 10 -11 7 -13 -14 -9 -14 2 -31 -1
-37 -9 -10 -10 -10 -13 0 -14 7 0 4 -4 -7 -9 -17 -7 -15 -9 12 -9 47 -1 52
-21 6 -23 l-38 -1 36 -4 c23 -3 46 -14 63 -32 24 -25 25 -29 11 -41 -8 -7 -15
-18 -15 -25 0 -6 -18 -19 -40 -28 -25 -10 -43 -25 -50 -41 -7 -19 -17 -26 -36
-26 -31 0 -64 -25 -64 -49 1 -14 2 -14 10 1 7 11 20 15 40 13 36 -5 39 2 8 15
-22 8 -22 9 -3 9 12 1 26 -4 33 -11 9 -9 12 -8 12 5 0 12 9 17 28 18 26 1 26
1 3 8 l-24 6 27 13 c15 6 37 12 49 13 21 0 21 1 2 9 -14 6 -15 9 -5 9 8 1 20
11 25 23 6 12 21 25 35 29 14 4 19 7 12 8 -7 1 -10 6 -7 11 16 25 145 -7 145
-36 0 -8 7 -17 15 -20 25 -10 8 -21 -42 -28 -27 -4 -65 -9 -86 -12 l-39 -6 7
-62 c3 -33 8 -85 12 -113 4 -45 3 -53 -11 -53 -13 0 -15 -4 -6 -19 19 -37 -14
-87 -65 -97 -72 -13 -134 56 -89 100 22 23 67 21 62 -1 -2 -10 -11 -17 -21
-17 -21 2 -23 -22 -2 -30 30 -11 42 3 36 42 -5 27 -12 38 -31 43 l-25 7 25 1
c34 1 50 -16 50 -53 1 -26 2 -28 11 -13 16 27 -10 71 -44 75 -15 2 -25 8 -22
13 7 11 3 11 -19 3 -9 -3 -16 -14 -16 -24 0 -10 -7 -23 -15 -30 -8 -7 -15 -21
-15 -31 0 -29 -18 -23 -41 14 -20 30 -20 25 -2 -20 6 -16 5 -16 -11 -4 -29 24
-39 50 -25 67 6 8 9 17 6 20 -12 13 -28 -36 -17 -55 15 -28 12 -35 -6 -20 -16
13 -16 33 2 127 4 21 2 32 -5 32 -7 0 -11 -10 -9 -22 2 -15 -2 -23 -12 -23
-22 0 -26 56 -4 72 13 9 22 10 38 1 19 -10 19 -9 8 5 -7 8 -32 19 -55 22 -65
11 -77 21 -77 63 -1 35 -2 36 -15 18 -15 -20 -15 -20 -17 0 -3 44 5 71 30 97
31 32 19 37 -15 5 -15 -14 -23 -17 -23 -8 0 19 78 90 99 90 10 0 24 -7 31 -15
9 -11 8 -18 -9 -36 -12 -13 -21 -30 -21 -38 0 -14 1 -14 10 -1 7 11 10 2 10
-32 0 -26 4 -49 9 -53 6 -3 7 9 4 30 -4 22 -2 35 5 35 6 0 9 6 6 14 -3 8 0 17
5 21 6 3 9 10 6 15 -9 14 13 22 32 12 13 -8 21 -4 36 14 10 14 30 25 45 25 25
2 25 2 4 6 -13 3 -34 -3 -47 -11 -66 -43 -46 5 36 87 31 32 53 46 61 41 7 -4
10 -4 6 0 -9 11 61 78 75 69 8 -5 8 -8 -1 -11 -7 -2 -12 -10 -12 -17 0 -7 -5
-15 -12 -17 -8 -3 -1 -22 21 -57 32 -49 55 -66 31 -22 -16 30 -3 26 32 -11
l30 -33 -32 57 c-17 32 -29 62 -25 68 3 5 1 10 -4 10 -38 0 50 78 102 91 55
13 70 6 105 -45z m1055 37 c-7 -2 -21 -2 -30 0 -10 3 -4 5 12 5 17 0 24 -2 18
-5z m-1376 -23 c-32 -25 -97 -53 -105 -45 -16 16 65 62 112 64 16 1 15 -2 -7
-19z m1483 5 c0 -8 -4 -15 -10 -15 -5 0 -10 7 -10 15 0 8 5 15 10 15 6 0 10
-7 10 -15z m-1446 -26 c4 6 12 11 18 11 6 0 6 -6 -2 -15 -7 -9 -20 -13 -28
-10 -10 3 -12 0 -8 -10 3 -9 0 -15 -9 -15 -23 0 -28 20 -9 35 12 9 21 10 25 3
4 -7 9 -6 13 1z m-178 -32 c-17 -25 -56 -47 -84 -47 -10 0 -36 -9 -57 -21 -46
-23 -85 -33 -85 -21 0 13 39 52 52 52 7 0 21 9 33 20 18 17 143 53 153 45 2
-2 -4 -14 -12 -28z m1551 18 c9 -24 0 -25 -26 -4 -23 19 -23 19 -2 19 12 0 24
-7 28 -15z m-1447 -29 c0 -8 -4 -18 -10 -21 -5 -3 -10 -15 -10 -25 0 -25 -16
-34 -24 -14 -3 8 -2 12 4 9 6 -3 10 -2 10 3 0 6 -7 13 -16 16 -15 6 -15 8 1
26 21 23 45 26 45 6z m135 -16 c-3 -4 1 -10 7 -13 10 -3 10 -8 2 -16 -8 -9
-14 -8 -23 2 -13 16 -4 50 10 41 5 -3 7 -9 4 -14z m1249 -6 c26 -10 18 -29
-18 -42 -19 -7 -52 -33 -75 -57 -23 -25 -41 -40 -41 -35 0 6 -5 10 -10 10 -7
0 -8 -13 -5 -34 5 -25 3 -35 -9 -39 -9 -4 -16 -15 -16 -26 0 -18 -34 -51 -52
-51 -16 0 -7 16 15 25 31 14 37 65 8 65 -12 0 -21 5 -21 10 0 6 6 10 14 10 8
0 18 -4 21 -10 3 -5 12 -10 20 -10 10 0 12 7 5 28 -5 19 -3 40 6 61 10 25 11
32 1 29 -6 -3 -17 -24 -24 -49 l-11 -44 -1 35 c-1 62 45 110 105 110 13 0 24
5 24 10 0 11 39 13 64 4z m-1504 -35 c-57 -50 -78 -61 -100 -54 -28 9 -20 29
13 33 15 2 46 14 70 28 55 31 59 30 17 -7z m946 -51 c4 -29 8 -57 8 -62 1 -5
-14 -14 -32 -20 -18 -6 -30 -14 -27 -18 4 -3 -3 -9 -15 -13 -26 -8 -35 -2 -27
20 4 8 16 15 28 15 19 0 21 5 17 48 -3 46 11 82 32 82 4 0 11 -24 16 -52z
m-933 25 c-6 -16 -4 -16 15 1 36 31 25 3 -13 -34 -19 -18 -38 -31 -41 -27 -4
4 4 16 17 28 20 17 21 20 5 14 -19 -6 -19 -5 -1 15 22 25 26 25 18 3z m954
-15 c-3 -8 -6 -5 -6 6 -1 11 2 17 5 13 3 -3 4 -12 1 -19z m-447 -13 c-7 -8
-20 -15 -29 -15 -12 0 -10 5 9 20 28 21 39 18 20 -5z m490 11 c0 -8 -4 -17 -9
-21 -12 -7 -24 12 -16 25 9 15 25 12 25 -4z m-435 -6 c3 -5 1 -10 -4 -10 -6 0
-11 5 -11 10 0 6 2 10 4 10 3 0 8 -4 11 -10z m-690 -14 c19 -13 18 -16 -24
-61 -25 -27 -40 -52 -37 -61 3 -8 -1 -14 -9 -14 -22 0 -28 38 -11 65 14 21 14
24 1 19 -23 -9 -18 13 8 32 l22 16 -22 -5 c-22 -5 -30 3 -16 16 11 12 69 7 88
-7z m670 -6 c3 -5 -1 -10 -9 -10 -9 0 -16 5 -16 10 0 6 4 10 9 10 6 0 13 -4
16 -10z m425 -15 c0 -8 -2 -15 -4 -15 -2 0 -6 7 -10 15 -3 8 -1 15 4 15 6 0
10 -7 10 -15z m50 11 c0 -2 -7 -7 -16 -10 -8 -3 -12 -2 -9 4 6 10 25 14 25 6z
m50 -6 c-19 -13 -30 -13 -30 0 0 6 10 10 23 10 18 0 19 -2 7 -10z m-550 -15
c10 -12 16 -13 28 -3 9 7 6 -2 -7 -19 -12 -18 -30 -33 -39 -33 -14 0 -15 2 -3
9 12 8 13 14 3 35 -13 28 -2 35 18 11z m505 -5 c-3 -5 6 -5 24 1 17 6 38 9 48
6 14 -4 14 -5 -4 -6 -42 -2 -31 -16 14 -18 51 -2 58 -6 67 -44 5 -25 3 -27
-37 -33 -49 -8 -90 -32 -84 -49 2 -7 0 -23 -5 -36 -5 -14 -6 -32 -2 -40 5 -11
9 -6 13 19 4 24 16 41 40 57 19 13 30 23 24 23 -5 0 -18 -7 -29 -15 -10 -8
-22 -15 -26 -15 -15 0 -8 19 10 28 27 14 74 24 68 14 -3 -5 8 -7 23 -4 42 6
46 -12 6 -27 -35 -12 -48 -35 -49 -86 -1 -27 -4 -30 -31 -28 -18 2 -38 -5 -51
-18 l-21 -20 -23 108 c-12 59 -26 116 -31 125 -12 22 9 58 28 51 7 -3 13 0 13
6 0 6 5 11 11 11 5 0 8 -4 4 -10z m-795 -16 c0 -8 -5 -12 -10 -9 -6 4 -8 11
-5 16 9 14 15 11 15 -7z m610 6 c-20 -13 -33 -13 -25 0 3 6 14 10 23 10 15 0
15 -2 2 -10z m440 5 c0 -7 -58 -35 -72 -34 -7 0 5 9 27 19 48 22 45 21 45 15z
m-849 -55 c-22 -19 -41 -26 -41 -15 0 5 51 34 60 34 3 0 -6 -9 -19 -19z m354
0 c-10 -11 -23 -20 -28 -20 -13 0 24 39 37 39 5 1 1 -8 -9 -19z m155 10 c-20
-13 -33 -13 -25 0 3 6 14 10 23 10 15 0 15 -2 2 -10z m-635 -11 c9 -13 6 -16
-27 -24 -23 -6 -27 -4 -25 14 1 23 40 30 52 10z m518 -4 c4 -8 2 -17 -3 -20
-6 -4 -10 3 -10 14 0 25 6 27 13 6z m890 8 c-7 -2 -19 -2 -25 0 -7 3 -2 5 12
5 14 0 19 -2 13 -5z m-1253 -23 c-24 -19 -50 -26 -50 -15 0 6 59 34 70 34 3 0
-6 -8 -20 -19z m184 -23 c14 -20 21 -37 16 -37 -13 0 -50 50 -50 68 0 18 2 17
34 -31z m336 -58 c11 -46 22 -94 26 -106 5 -19 2 -23 -18 -23 -13 0 -29 -5
-36 -12 -6 -6 -13 -10 -15 -7 -2 2 -11 53 -19 112 -14 106 -14 109 6 123 11 8
24 10 29 5 5 -5 17 -46 27 -92z m530 68 c0 -5 -4 -5 -10 -2 -5 3 -10 14 -10
23 0 15 2 15 10 2 5 -8 10 -19 10 -23z m-240 13 c0 -5 -4 -10 -9 -10 -6 0 -13
5 -16 10 -3 6 1 10 9 10 9 0 16 -4 16 -10z m-480 -10 c0 -5 -5 -10 -11 -10 -5
0 -7 5 -4 10 3 6 8 10 11 10 2 0 4 -4 4 -10z m85 0 c-3 -5 -12 -10 -19 -10 -7
0 -25 -9 -39 -20 -15 -12 -46 -25 -69 -29 -38 -8 -39 -9 -12 -10 17 -1 53 10
79 24 26 14 53 24 59 22 6 -3 0 -10 -14 -16 -23 -10 -23 -11 -2 -7 18 3 22 0
22 -20 0 -16 -6 -24 -17 -25 -16 -1 -16 -2 -1 -6 11 -3 19 -19 23 -46 3 -23 8
-54 11 -69 5 -25 2 -28 -38 -38 -24 -6 -65 -18 -92 -26 -78 -22 -80 -21 -85
39 -3 28 -5 81 -5 117 l-1 64 60 17 c33 9 76 23 95 32 42 19 53 20 45 7z
m-259 -27 c19 -26 17 -33 -8 -33 -19 0 -20 2 -8 10 13 8 12 10 -2 10 -18 0
-23 11 -11 23 10 10 15 9 29 -10z m624 -3 c0 -5 -4 -10 -10 -10 -5 0 -10 5
-10 10 0 6 5 10 10 10 6 0 10 -4 10 -10z m-1430 -25 c0 -42 27 -95 48 -95 11
0 25 -7 33 -16 7 -8 21 -13 31 -11 10 3 18 1 18 -4 0 -5 -5 -9 -10 -9 -6 0 -8
-16 -5 -38 2 -23 -1 -45 -8 -54 -37 -47 -121 -16 -133 49 -5 25 -3 38 5 41 6
2 8 9 4 14 -4 7 2 9 17 5 23 -6 23 -6 -3 19 -21 19 -27 34 -27 68 0 23 3 46 7
49 13 14 23 6 23 -18z m710 11 c0 -11 -19 -15 -25 -6 -3 5 1 10 9 10 9 0 16
-2 16 -4z m60 -17 c0 -6 -4 -8 -9 -4 -5 3 -12 1 -16 -5 -3 -5 -15 -10 -26 -10
-11 0 -17 5 -14 10 3 6 15 10 26 10 10 0 19 5 19 11 0 5 5 7 10 4 6 -3 10 -11
10 -16z m952 -6 c-6 -2 -10 -9 -6 -14 3 -5 -4 -9 -15 -9 -12 0 -21 4 -21 9 0
11 18 19 40 19 10 0 11 -1 2 -5z m237 -19 c3 -16 1 -17 -13 -5 -19 16 -21 34
-3 29 6 -3 14 -13 16 -24z m-1107 -95 c4 -78 10 -114 19 -120 16 -9 39 -5 119
21 30 9 69 20 85 24 29 6 29 6 10 -10 -19 -15 -19 -15 8 -9 33 9 36 -2 5 -15
-21 -8 -21 -9 -3 -10 20 -1 20 -1 1 -15 -11 -8 -14 -15 -8 -15 8 0 12 -19 12
-54 0 -54 0 -55 -37 -66 -21 -7 -42 -16 -47 -21 -13 -12 -9 -11 47 6 27 8 47
10 47 4 0 -5 -13 -12 -30 -15 -16 -4 -30 -11 -30 -16 0 -5 10 -6 23 -2 39 13
52 10 55 -13 2 -15 -2 -23 -12 -23 -8 0 -18 -5 -22 -12 -5 -7 -2 -9 8 -5 19 7
34 -49 18 -69 -21 -24 -183 -84 -196 -72 -8 8 -34 217 -29 231 4 8 23 18 43
22 57 10 153 38 148 42 -2 3 -50 -6 -106 -19 l-102 -23 6 -80 c3 -44 8 -103
12 -131 l6 -52 -58 -10 c-33 -6 -62 -7 -65 -4 -4 4 -12 61 -19 127 -6 66 -15
123 -19 127 -3 4 -59 -2 -124 -14 -64 -12 -119 -20 -121 -17 -2 2 -6 29 -8 59
l-3 55 45 3 c68 4 187 31 199 46 8 9 8 44 0 120 -6 59 -8 110 -5 113 7 7 66
21 97 22 l26 1 5 -111z m252 39 c3 -29 6 -62 5 -73 l0 -20 -8 20 c-13 33 -22
125 -13 125 5 0 12 -24 16 -52z m-399 30 c2 -7 5 -57 7 -111 4 -92 3 -98 -17
-103 -43 -11 -200 -32 -205 -27 -8 7 -27 207 -21 215 7 8 151 35 199 37 18 0
34 -4 37 -11z m1228 -13 c4 -8 2 -17 -3 -20 -6 -4 -10 -4 -10 -1 0 2 -3 11 -6
20 -3 9 -2 16 4 16 5 0 12 -7 15 -15z m-33 -15 c0 -5 -2 -10 -4 -10 -3 0 -8 5
-11 10 -3 6 -1 10 4 10 6 0 11 -4 11 -10z m10 -34 c0 -11 -19 -15 -25 -6 -3 5
1 10 9 10 9 0 16 -2 16 -4z m-710 -50 c0 -8 -14 -15 -35 -18 -38 -4 -45 5 -17
21 25 15 52 13 52 -3z m620 -41 c0 -14 -3 -25 -7 -25 -5 0 -8 11 -8 25 0 14 3
25 8 25 4 0 7 -11 7 -25z m-605 -5 c5 -15 -2 -28 -24 -49 -17 -16 -31 -34 -31
-40 0 -6 -4 -11 -9 -11 -15 0 -24 90 -10 106 18 22 66 18 74 -6z m38 5 c4 -8
2 -17 -3 -20 -6 -4 -10 3 -10 14 0 25 6 27 13 6z m627 -23 c0 -10 7 -29 16
-42 14 -22 12 -22 -10 3 -26 28 -34 57 -16 57 6 0 10 -8 10 -18z m-1885 -12
c21 -23 4 -27 -19 -4 -18 17 -20 24 -8 24 5 0 17 -9 27 -20z m165 16 c0 -3 -4
-8 -10 -11 -5 -3 -10 -1 -10 4 0 6 5 11 10 11 6 0 10 -2 10 -4z m1635 -36
c-12 -19 -25 -10 -25 16 0 23 1 24 16 10 8 -9 12 -20 9 -26z m-36 8 c0 -7 -4
-22 -9 -33 -7 -17 -9 -17 -9 -2 -1 9 -5 17 -11 17 -5 0 -10 7 -10 15 0 8 9 15
20 15 11 0 20 -6 19 -12z m-625 -95 c5 -42 3 -63 -4 -63 -6 0 -10 27 -10 67 0
81 5 79 14 -4z m528 15 c-9 -9 -15 -9 -24 0 -9 9 -7 12 12 12 19 0 21 -3 12
-12z m-918 -140 c16 -151 18 -186 7 -192 -20 -13 -177 -29 -214 -22 l-37 7 0
114 0 113 30 7 c30 7 144 21 186 24 19 1 22 -6 28 -51z m397 -31 c-10 -9 -11
-8 -5 6 3 10 9 15 12 12 3 -3 0 -11 -7 -18z m280 -77 c10 -6 19 -17 19 -25 0
-11 -5 -10 -21 6 -18 18 -28 20 -78 15 -64 -8 -136 -22 -198 -41 -48 -14 -54
-12 -20 7 63 34 257 59 298 38z m-17 -46 c3 -9 4 -19 1 -24 -6 -9 -56 -21
-102 -23 -38 -2 -45 15 -11 25 21 5 20 6 -6 7 -45 2 -23 13 41 21 32 4 61 8
64 9 4 0 10 -6 13 -15z m-232 -90 c24 4 54 10 67 13 16 4 22 2 17 -5 -9 -16
-126 -25 -158 -13 -16 6 -28 18 -28 26 0 13 5 12 29 -6 24 -18 37 -21 73 -15z
m766 -26 c14 -14 16 -64 3 -73 -13 -7 -18 2 -26 48 -7 38 1 47 23 25z m92 -50
c0 -38 -20 -108 -32 -108 -14 0 -9 49 8 76 9 13 14 27 11 30 -3 3 -13 -8 -23
-25 -10 -16 -21 -28 -26 -25 -5 3 3 19 17 36 14 16 25 36 25 44 0 9 5 12 10 9
6 -3 10 -20 10 -37z m-1295 22 c3 -5 19 -10 35 -10 16 0 31 -4 34 -9 6 -9 -68
-31 -105 -31 -21 0 -21 1 -6 18 10 10 17 24 17 30 0 15 17 16 25 2z m-570 -16
c13 -9 30 -12 48 -8 22 5 28 3 25 -7 -5 -16 -74 -20 -109 -7 -17 7 -19 11 -9
23 15 18 20 18 45 -1z m930 -4 c3 -5 -1 -10 -9 -10 -9 0 -16 5 -16 10 0 6 4
10 9 10 6 0 13 -4 16 -10z m827 -75 c-1 -16 2 -37 8 -45 8 -12 10 -9 10 15 0
19 3 26 10 19 10 -10 -5 -84 -18 -84 -4 0 -15 19 -25 42 -14 31 -16 47 -9 63
6 13 7 28 1 36 -16 26 -9 34 8 9 9 -13 16 -38 15 -55z m-478 30 c22 -33 21
-35 -13 -35 -34 0 -54 36 -30 51 21 13 25 11 43 -16z m-66 -12 c2 -8 -6 -13
-22 -13 -26 0 -40 12 -29 24 11 11 46 2 51 -11z m732 -189 c0 -165 -7 -204
-35 -204 -22 0 -18 19 7 40 20 16 21 20 10 59 -9 27 -18 41 -30 41 -11 0 -13
-3 -5 -8 6 -4 14 -24 18 -45 7 -34 5 -37 -16 -37 -26 0 -58 38 -42 49 14 9 24
41 13 41 -6 0 -10 -6 -10 -14 0 -7 -7 -19 -15 -26 -17 -14 -6 -43 29 -71 l21
-17 -28 -11 c-16 -6 -32 -11 -37 -11 -17 0 -21 94 -7 136 9 25 13 59 10 87 -6
53 18 131 45 147 9 5 29 10 45 10 l27 0 0 -166z m-1955 96 c-10 -11 -20 -18
-23 -15 -7 6 18 35 31 35 5 0 2 -9 -8 -20z m1810 -27 c-11 -70 -13 -131 -4
-144 4 -7 2 -23 -4 -36 -7 -16 -7 -33 1 -59 6 -20 7 -45 3 -57 -6 -16 -10 -9
-16 34 -5 29 -8 61 -6 69 1 8 2 54 1 102 0 49 4 89 10 93 5 3 10 15 10 26 0
10 3 19 6 19 4 0 3 -21 -1 -47z m-1715 -18 c7 -8 8 -15 2 -15 -5 0 -15 7 -22
15 -7 8 -8 15 -2 15 5 0 15 -7 22 -15z m60 -35 c0 -5 -4 -10 -10 -10 -5 0 -10
5 -10 10 0 6 5 10 10 10 6 0 10 -4 10 -10z m1667 -52 c-2 -13 -4 -5 -4 17 -1
22 1 32 4 23 2 -10 2 -28 0 -40z m-1783 27 c3 -8 1 -15 -4 -15 -6 0 -10 7 -10
15 0 8 2 15 4 15 2 0 6 -7 10 -15z m-31 -48 c-4 -6 -10 -2 -14 9 -12 31 -9 40
6 20 8 -10 11 -24 8 -29z m81 8 c3 -8 1 -15 -4 -15 -6 0 -10 7 -10 15 0 8 2
15 4 15 2 0 6 -7 10 -15z m66 -9 c0 -8 -4 -18 -10 -21 -5 -3 -10 3 -10 14 0
12 5 21 10 21 6 0 10 -6 10 -14z m1282 -4 c13 -13 -16 -81 -37 -85 -15 -3 -13
-5 7 -6 23 -1 48 -24 48 -45 0 -3 -21 -7 -47 -8 l-48 -2 46 -3 c45 -4 47 -5
52 -41 4 -23 2 -39 -6 -44 -18 -12 -177 -10 -177 2 0 6 24 11 53 12 l52 2 -52
3 c-37 3 -53 8 -54 19 -2 23 -4 28 -12 42 -6 8 0 12 20 13 l28 1 -26 7 c-21 5
-25 10 -19 26 4 11 20 23 36 26 l29 7 -29 1 -29 1 44 45 c40 42 47 45 79 40
19 -4 38 -10 42 -13z m325 -104 c-3 -7 -5 -2 -5 12 0 14 2 19 5 13 2 -7 2 -19
0 -25z m-1900 -4 c3 -9 0 -20 -8 -25 -10 -6 -8 -9 9 -9 32 0 62 -18 62 -36 0
-9 14 -21 30 -27 30 -11 41 -27 18 -27 -6 0 -3 -6 8 -14 17 -13 18 -15 2 -21
-9 -4 -33 -1 -53 5 -20 7 -39 10 -42 7 -3 -3 15 -11 38 -17 67 -17 69 -18 69
-40 0 -17 -6 -20 -47 -18 -27 1 -65 -1 -86 -6 l-37 -8 1 51 c2 39 6 51 18 52
13 1 13 2 -1 6 -25 6 -25 60 0 66 11 3 9 5 -8 6 -20 1 -22 3 -10 11 12 8 12
12 2 18 -16 11 -5 42 14 42 8 0 17 -7 21 -16z m724 -14 c26 -14 24 -25 -6 -38
-21 -10 -27 -9 -31 3 -6 16 1 45 11 45 4 0 15 -5 26 -10z m1179 -39 c-1 -13
-3 -13 -15 3 -19 26 -19 42 0 26 8 -7 15 -20 15 -29z m-1449 -22 c21 -42 20
-89 -2 -89 -6 0 -9 7 -5 15 3 8 2 15 -2 15 -5 0 -9 19 -11 42 -1 23 -4 45 -7
50 -3 4 -3 8 0 8 3 0 15 -19 27 -41z m1632 -28 c-5 -3 -28 -32 -51 -63 -23
-31 -46 -59 -52 -63 -5 -3 -10 -11 -10 -17 0 -6 9 -3 20 7 25 23 25 7 0 -23
-20 -24 -40 -22 -40 4 0 8 15 36 33 63 17 26 48 73 67 104 l35 56 3 -31 c2
-17 -1 -34 -5 -37z m-208 -9 c1 -35 -2 -65 -8 -69 -6 -4 -8 3 -3 20 3 14 2 29
-4 32 -14 9 -13 88 1 83 7 -2 13 -31 14 -66z m148 61 c-7 -2 -19 -2 -25 0 -7
3 -2 5 12 5 14 0 19 -2 13 -5z m17 -23 c0 -5 -8 -10 -18 -10 -10 0 -27 -7 -38
-15 -10 -8 -24 -15 -31 -15 -17 0 -4 38 16 43 31 9 71 7 71 -3z m-1920 -10 c0
-12 -8 -12 -35 0 -18 8 -17 9 8 9 15 1 27 -3 27 -9z m520 0 c-19 -13 -30 -13
-30 0 0 6 10 10 23 10 18 0 19 -2 7 -10z m1290 -88 c0 -25 -4 -41 -10 -37 -5
3 -9 23 -8 43 1 20 -2 46 -6 57 -8 20 -7 20 8 1 9 -12 16 -39 16 -64z m100 73
c0 -12 -61 -65 -75 -65 -26 0 -17 18 22 45 36 24 53 31 53 20z m-127 -91 c5
-64 23 -104 46 -104 9 0 6 -10 -11 -32 -35 -47 -43 -63 -30 -54 14 9 121 148
146 191 17 28 16 28 -13 -5 -42 -48 -39 -31 6 32 l38 52 6 -39 c6 -38 4 -43
-68 -128 -42 -48 -73 -90 -71 -93 3 -2 22 16 43 41 20 25 39 44 42 41 5 -5
-91 -123 -112 -138 -5 -4 -6 -10 -2 -14 4 -4 8 -5 10 -3 2 2 32 40 68 84 74
90 94 120 61 91 -12 -11 -22 -15 -22 -10 1 13 48 69 53 64 3 -3 2 -25 -2 -51
-6 -37 -24 -66 -98 -159 -92 -116 -114 -154 -49 -83 45 49 47 31 2 -22 l-35
-40 -25 25 c-26 26 -26 26 -9 69 14 35 15 50 6 84 -12 44 -8 62 7 37 9 -13 10
-13 11 0 1 8 0 24 -1 35 -2 16 0 17 14 6 21 -18 20 -4 -3 39 -10 19 -21 66
-24 104 -3 39 -2 63 3 55 4 -7 10 -41 13 -75z m-804 59 c-1 -16 -18 -48 -18
-36 -1 6 -4 18 -7 27 -4 11 -1 16 10 16 9 0 16 -3 15 -7z m181 -3 c0 -5 -4
-10 -10 -10 -5 0 -10 5 -10 10 0 6 5 10 10 10 6 0 10 -4 10 -10z m-587 -32
c-7 -12 25 -58 41 -58 7 0 32 -18 55 -40 26 -25 51 -40 67 -40 15 0 38 -12 55
-29 l29 -29 0 29 c0 19 5 29 15 29 8 0 15 -4 15 -10 0 -5 4 -10 10 -10 5 0 7
7 4 15 -9 23 10 18 40 -10 24 -22 26 -22 26 -5 0 11 7 19 18 18 9 0 51 3 92 7
69 6 73 5 56 -9 -15 -12 -16 -16 -5 -16 8 0 20 5 26 11 6 6 21 16 34 23 12 6
28 26 34 45 9 27 13 31 18 18 3 -9 17 -17 29 -17 19 0 20 -2 8 -10 -8 -5 -10
-10 -4 -10 6 0 10 -10 9 -22 -1 -16 -8 -23 -23 -24 -25 -1 -52 -21 -52 -38 0
-23 -50 -60 -83 -62 -18 -1 -38 -2 -44 -3 -7 -1 -13 -10 -13 -20 0 -11 -9 -23
-20 -26 -45 -14 -51 -51 -38 -225 1 -14 1 -51 0 -82 -2 -44 -6 -58 -19 -61
-10 -3 45 -6 122 -7 223 -4 244 -7 245 -42 0 -5 -109 -8 -242 -9 -134 0 -324
-2 -423 -4 -99 -2 -192 -2 -208 1 l-27 6 35 41 c20 23 77 93 127 155 86 107
92 112 128 112 29 0 39 -4 43 -20 4 -17 0 -20 -28 -20 -32 0 -38 -6 -104 -106
-39 -59 -71 -110 -71 -115 0 -5 69 -8 153 -7 83 1 135 4 114 6 -29 2 -40 9
-53 33 -21 42 -28 118 -13 154 14 36 19 186 5 178 -5 -4 -7 1 -3 9 3 10 -4 24
-19 37 -13 11 -24 26 -24 32 0 5 -4 8 -9 4 -5 -3 -16 3 -23 13 -7 10 -26 26
-43 36 -16 10 -42 35 -57 57 -19 26 -35 39 -51 39 -18 0 -23 5 -22 21 1 11 8
25 16 30 10 7 3 8 -21 4 -26 -5 -31 -4 -20 4 8 6 28 11 43 11 21 0 30 6 34 21
4 15 8 17 14 8 4 -7 5 -17 2 -21z m533 17 c-25 -19 -36 -19 -36 0 0 10 10 15
28 15 26 -1 26 -1 8 -15z m610 -12 c-10 -10 -19 5 -10 18 6 11 8 11 12 0 2 -7
1 -15 -2 -18z m-1179 11 c-3 -3 -12 -4 -19 -1 -8 3 -5 6 6 6 11 1 17 -2 13 -5z
m116 -1 c-13 -2 -33 -2 -45 0 -13 2 -3 4 22 4 25 0 35 -2 23 -4z m801 -40 c-4
-15 -10 -38 -15 -49 -4 -12 -3 -41 2 -64 5 -23 8 -44 6 -46 -2 -3 -35 0 -73 6
-89 12 -104 12 -104 -1 0 -6 6 -9 14 -6 18 7 176 -14 176 -23 0 -4 -46 -7
-102 -5 -70 1 -117 -3 -146 -13 -23 -8 -45 -12 -49 -9 -11 12 19 37 46 38 24
2 24 2 3 6 -33 6 -22 26 21 36 20 5 37 15 37 22 0 7 7 18 15 25 28 23 18 40
-24 40 -31 0 -40 4 -44 21 -7 26 -28 21 -42 -9 -5 -12 -17 -22 -25 -22 -13 0
-13 -1 0 -10 10 -6 11 -12 5 -19 -12 -12 -28 -14 -85 -12 l-45 2 31 16 c29 14
31 19 27 54 l-6 38 104 3 c57 2 144 4 192 6 l88 3 -7 -28z m276 -3 c0 -13 -6
-20 -17 -19 -11 0 -13 3 -5 6 17 7 15 21 -5 26 -14 4 -12 5 5 6 16 1 22 -5 22
-19z m125 10 c-3 -5 -10 -10 -16 -10 -5 0 -9 5 -9 10 0 6 7 10 16 10 8 0 12
-4 9 -10z m-15 -24 c0 -3 -4 -8 -10 -11 -5 -3 -10 -1 -10 4 0 6 5 11 10 11 6
0 10 -2 10 -4z m-1315 -48 c21 -2 34 -11 43 -31 17 -36 10 -44 -20 -23 -26 18
-56 20 -78 5 -11 -8 -7 -9 16 -4 24 5 36 1 55 -19 29 -29 75 -49 98 -42 10 3
26 -8 41 -26 l24 -31 -60 6 c-34 4 -84 18 -112 32 -27 14 -61 25 -73 24 -21
-1 -20 -2 6 -9 17 -4 49 -17 73 -30 28 -15 68 -25 113 -28 38 -2 69 -8 69 -12
0 -8 -159 -20 -273 -20 -56 0 -78 3 -75 12 9 27 36 32 95 19 96 -22 122 -22
53 -1 -36 11 -78 20 -93 20 -27 0 -28 2 -22 31 4 17 8 38 9 45 1 7 5 16 8 20
4 3 4 12 1 20 -3 8 -2 25 1 38 7 27 44 39 61 19 6 -6 23 -13 40 -15z m1215 16
c0 -2 -7 -4 -15 -4 -8 0 -15 4 -15 10 0 5 7 7 15 4 8 -4 15 -8 15 -10z m-1726
-2 c2 -4 -32 -8 -77 -9 -51 0 -74 2 -62 7 26 11 132 12 139 2z m1806 -2 c0 -5
-4 -10 -10 -10 -5 0 -10 5 -10 10 0 6 5 10 10 10 6 0 10 -4 10 -10z m-1795
-31 c5 -5 -23 -9 -68 -9 -42 0 -77 4 -77 9 0 20 123 20 145 0z m1715 11 c12
-8 9 -10 -12 -10 -16 0 -28 5 -28 10 0 13 20 13 40 0z m-940 -35 c11 -13 8
-13 -21 -3 -44 15 -48 18 -17 18 14 0 31 -7 38 -15z m956 -14 c-15 -14 -18
-14 -26 -1 -7 11 -4 17 8 21 26 10 36 -1 18 -20z m-1741 4 c-40 -19 -90 -19
-105 0 -11 13 -3 15 61 14 71 -1 73 -1 44 -14z m-100 -25 c3 -5 1 -10 -4 -10
-6 0 -11 5 -11 10 0 6 2 10 4 10 3 0 8 -4 11 -10z m145 2 c0 -16 -65 -29 -91
-19 -24 10 -23 10 11 17 51 11 80 11 80 2z m561 -18 c12 -15 11 -16 -11 -9
-46 14 -58 24 -29 25 15 0 33 -7 40 -16z m1320 -37 c-19 -20 -31 -26 -31 -17
0 19 54 74 59 59 2 -6 -11 -25 -28 -42z m-1862 1 c18 -59 22 -96 12 -102 -16
-10 -42 35 -29 51 8 10 6 13 -10 13 -11 0 -25 6 -31 14 -10 12 -7 15 21 19 28
3 26 4 -12 6 -44 2 -45 2 -20 16 40 23 57 18 69 -17z m1889 -53 c-1 -44 -4
-55 -17 -54 -10 0 -11 2 -3 6 19 8 14 29 -10 41 l-23 11 24 0 c17 1 22 5 17
17 -5 14 0 34 9 34 2 0 3 -25 3 -55z m-518 35 c10 -7 -24 -10 -107 -10 -67 0
-127 -2 -135 -5 -10 -4 -13 -25 -12 -78 1 -39 0 -60 -2 -45 -4 23 -8 26 -22
17 -12 -8 -45 -8 -107 -1 -74 8 -81 10 -40 11 28 2 70 6 95 11 32 6 20 7 -42
3 -64 -4 -88 -3 -88 6 0 19 46 29 144 30 33 1 56 4 53 8 -4 3 -37 6 -74 5
l-68 -1 40 19 c22 10 56 19 75 20 19 1 44 5 55 10 28 12 217 12 235 0z m30
-35 c0 -11 -21 -15 -109 -17 l-108 -3 76 -107 c42 -59 118 -167 169 -240 l93
-133 -47 -3 c-26 -2 -50 0 -55 5 -7 7 -195 332 -260 448 l-28 50 27 6 c15 4
75 7 135 8 88 1 107 -2 107 -14z m460 -25 c0 -5 -9 -10 -20 -10 -11 0 -20 5
-20 10 0 6 9 10 20 10 11 0 20 -4 20 -10z m-1214 -16 c16 -13 16 -15 2 -10
-10 3 -20 0 -24 -6 -4 -7 -9 -6 -15 3 -17 28 7 37 37 13z m-86 -3 c0 -8 -116
-142 -329 -380 -36 -40 -69 -78 -72 -83 -9 -15 -69 -20 -69 -7 0 6 33 44 73
84 39 40 101 107 136 149 35 41 92 103 127 137 35 33 64 63 64 65 0 2 -40 4
-89 4 -67 0 -90 3 -94 14 -3 8 -3 17 0 20 10 10 253 7 253 -3z m577 -13 c-3
-8 -6 -5 -6 6 -1 11 2 17 5 13 3 -3 4 -12 1 -19z m-538 -40 c1 -10 -3 -18 -9
-18 -5 0 -10 17 -9 38 0 30 2 33 9 17 5 -11 9 -28 9 -37z m1263 25 c-6 -2 -10
-9 -6 -14 3 -5 -2 -9 -10 -9 -10 0 -13 6 -10 15 4 8 14 15 23 14 10 0 11 -2 3
-6z m-1295 -25 c-3 -8 -6 -5 -6 6 -1 11 2 17 5 13 3 -3 4 -12 1 -19z m84 13
c-8 -5 -20 -7 -28 -4 -21 8 -15 13 15 13 20 0 23 -3 13 -9z m1220 -34 c-12
-13 -21 -16 -21 -9 0 7 7 15 15 18 8 4 15 14 16 23 0 11 2 12 6 2 3 -7 -4 -23
-16 -34z m-705 -14 c-11 -11 -24 9 -18 29 l5 22 9 -24 c5 -12 6 -25 4 -27z
m734 -246 c0 -20 -3 -37 -7 -36 -7 1 -57 54 -227 245 -41 46 -46 57 -35 70 11
14 29 -1 141 -113 117 -119 128 -133 128 -166z m-107 283 c-15 -6 -21 -15 -17
-25 4 -8 1 -22 -6 -30 -10 -12 -14 -12 -26 0 -8 7 -14 17 -14 21 0 18 35 44
59 43 25 0 25 0 4 -9z m-1246 -62 c-2 -13 -4 -3 -4 22 0 25 2 35 4 23 2 -13 2
-33 0 -45z m117 41 c-8 -14 -54 -10 -54 4 0 9 10 12 30 9 16 -2 27 -8 24 -13z
m384 13 c28 -1 52 -6 52 -12 0 -6 -40 -10 -100 -10 -88 0 -112 5 -96 21 4 4
46 4 144 1z m792 -6 c0 -3 -4 -8 -10 -11 -5 -3 -10 -1 -10 4 0 6 5 11 10 11 6
0 10 -2 10 -4z m-1313 -28 c-3 -8 -6 -5 -6 6 -1 11 2 17 5 13 3 -3 4 -12 1
-19z m40 0 c-3 -8 -6 -5 -6 6 -1 11 2 17 5 13 3 -3 4 -12 1 -19z m1229 -23
c-9 -14 -21 -25 -27 -25 -11 0 -4 15 19 43 22 25 28 12 8 -18z m58 -25 c-29
-31 -40 -37 -51 -29 -16 14 -17 39 -2 39 6 0 8 -7 4 -17 -5 -14 -3 -15 6 -6 6
6 12 22 13 35 1 17 7 23 23 23 11 0 25 4 29 8 5 5 10 4 12 -2 2 -6 -13 -28
-34 -51z m-626 -104 c45 -82 82 -150 82 -152 0 -2 -11 -4 -25 -4 -23 0 -33 15
-92 136 l-67 135 -50 -1 c-28 -1 -79 -1 -113 -1 -56 1 -63 3 -63 21 0 20 5 20
123 18 l122 -3 83 -149z m-727 88 l-9 -39 -1 41 c-1 22 2 44 6 48 12 12 14 -8
4 -50z m709 15 c0 -18 -4 -28 -10 -24 -5 3 -10 15 -10 26 0 10 -6 19 -12 19
-9 0 -8 3 2 9 20 14 30 4 30 -30z m-733 -26 c-3 -10 -5 -2 -5 17 0 19 2 27 5
18 2 -10 2 -26 0 -35z m50 25 c-3 -8 -6 -5 -6 6 -1 11 2 17 5 13 3 -3 4 -12 1
-19z m1359 -10 c-1 -18 2 -40 6 -49 5 -11 2 -21 -6 -28 -20 -17 -31 5 -15 27
11 14 11 15 -1 5 -21 -19 -35 -15 -18 5 29 33 31 47 3 22 -16 -14 -25 -18 -20
-10 8 15 46 60 51 60 1 0 1 -15 0 -32z m-1430 -61 c-6 -29 -42 -85 -49 -76 -8
9 6 99 14 99 6 0 7 -16 4 -37 -5 -28 -4 -34 4 -23 6 8 11 31 11 51 0 38 13 62
18 34 2 -9 1 -31 -2 -48z m775 22 c-9 -23 -10 -22 -10 11 -1 23 2 31 9 24 7
-7 7 -19 1 -35z m-1441 -18 c-1 -13 -4 -12 -15 3 -8 11 -15 27 -15 35 1 13 4
12 15 -3 8 -11 15 -27 15 -35z m1470 -22 c0 -16 -4 -28 -9 -25 -8 5 -3 56 5
56 2 0 4 -14 4 -31z m-867 -36 c-6 -49 -10 -60 -17 -52 -8 7 6 99 15 99 5 0 6
-21 2 -47z m677 29 c0 -5 -13 -7 -30 -4 -16 2 -30 6 -30 8 0 2 14 4 30 4 17 0
30 -4 30 -8z m220 -42 c0 -15 5 -30 11 -32 6 -2 9 -13 7 -23 -4 -18 -5 -18
-18 5 -17 31 -25 94 -10 85 5 -3 10 -19 10 -35z m-930 -22 c0 -25 -4 -38 -9
-32 -8 8 -4 74 5 74 2 0 4 -19 4 -42z m229 19 c-13 -13 -26 -22 -28 -20 -7 5
31 43 42 43 6 0 -1 -10 -14 -23z m455 1 c-3 -4 -20 -8 -37 -7 -30 1 -30 1 -7
8 34 10 50 9 44 -1z m106 -18 c0 -5 -2 -10 -4 -10 -3 0 -8 5 -11 10 -3 6 -1
10 4 10 6 0 11 -4 11 -10z m-45 -10 c4 -6 -5 -10 -20 -10 -15 0 -24 4 -20 10
3 6 12 10 20 10 8 0 17 -4 20 -10z m-798 -72 c-2 -13 -4 -3 -4 22 0 25 2 35 4
23 2 -13 2 -33 0 -45z m1029 26 c-3 -8 -3 -21 1 -30 5 -13 7 -13 14 -2 6 8 9
-1 10 -27 0 -32 2 -36 9 -20 8 19 9 19 9 -2 1 -17 -5 -23 -21 -23 -17 0 -23 6
-25 23 0 12 -4 42 -9 66 -5 34 -4 42 5 37 7 -5 10 -14 7 -22z m339 6 c8 -13
-15 -13 -35 0 -12 8 -11 10 7 10 12 0 25 -4 28 -10z m-1391 -22 c-1 -13 -3
-40 -3 -60 -1 -21 -5 -38 -10 -38 -8 0 -5 78 4 108 7 20 12 14 9 -10z m76 18
c0 -3 -4 -8 -10 -11 -5 -3 -10 -1 -10 4 0 6 5 11 10 11 6 0 10 -2 10 -4z
m-108 -78 c-2 -21 -8 -38 -13 -38 -8 0 -5 30 7 69 8 24 11 7 6 -31z m68 -14
c0 -15 -6 -24 -15 -24 -15 0 -21 40 -9 53 12 11 24 -3 24 -29z m324 30 c17 -7
22 -54 6 -54 -5 0 -10 9 -10 20 0 11 -7 20 -16 20 -8 0 -12 5 -9 10 7 12 8 12
29 4z m136 -3 c0 -5 3 -16 6 -25 3 -9 1 -16 -5 -16 -6 0 -11 8 -12 18 0 15 -1
14 -8 -2 -7 -19 -8 -19 -13 1 -3 12 -3 24 0 27 9 9 32 7 32 -3z m44 -31 c3 0
3 7 0 15 -4 8 -1 15 5 15 6 0 11 -12 11 -26 0 -38 -34 -28 -37 11 -2 27 -2 28
7 8 5 -13 12 -23 14 -23z m51 30 c4 -6 10 -8 15 -5 5 3 13 -3 19 -12 9 -16 10
-15 11 7 l1 25 13 -24 c13 -23 14 -23 19 -5 4 17 5 16 6 -3 1 -20 -4 -23 -34
-23 -19 0 -38 -1 -42 -2 -5 -2 -10 8 -12 22 l-4 25 -8 -25 -7 -25 -1 28 c-1
27 12 36 24 17z m145 -15 c0 -14 -4 -25 -10 -25 -5 0 -10 11 -10 25 0 14 5 25
10 25 6 0 10 -11 10 -25z m30 0 c0 -14 -4 -25 -10 -25 -11 0 -14 33 -3 43 11
11 13 8 13 -18z m70 9 c0 9 5 14 10 11 6 -3 10 -15 10 -26 0 -14 -7 -19 -25
-19 -21 0 -25 5 -25 28 1 26 1 26 15 8 14 -18 15 -18 15 -2z m49 -6 c1 30 21
28 21 -3 0 -18 -5 -25 -20 -25 -15 0 -20 6 -19 28 l1 27 8 -25 c8 -24 8 -24 9
-2z m51 -3 c0 -14 -4 -25 -10 -25 -11 0 -14 33 -3 43 11 11 13 8 13 -18z m70
8 c0 9 5 17 10 17 6 0 10 -12 10 -26 0 -21 -4 -25 -22 -22 -16 2 -24 11 -26
28 -2 24 -2 24 13 6 13 -17 15 -18 15 -3z m-860 -18 c0 -16 -6 -25 -15 -25 -9
0 -15 9 -15 25 0 16 6 25 15 25 9 0 15 -9 15 -25z m58 3 l11 -23 0 23 c1 24
31 32 31 8 0 -7 9 -16 19 -19 15 -3 21 1 24 17 3 17 5 15 6 -6 1 -27 0 -28
-54 -28 -50 0 -55 2 -56 23 l-2 22 -4 -23 c-5 -26 -23 -20 -23 9 0 27 34 25
48 -3z m109 0 c-3 -8 -6 -5 -6 6 -1 11 2 17 5 13 3 -3 4 -12 1 -19z m93 -10
c0 -5 -4 -8 -10 -8 -5 0 -10 10 -10 23 0 18 2 19 10 7 5 -8 10 -18 10 -22z
m17 0 c-3 -7 -5 -2 -5 12 0 14 2 19 5 13 2 -7 2 -19 0 -25z m20 0 c-3 -7 -5
-2 -5 12 0 14 2 19 5 13 2 -7 2 -19 0 -25z m263 6 c0 -8 -4 -14 -10 -14 -5 0
-10 9 -10 21 0 11 5 17 10 14 6 -3 10 -13 10 -21z m90 6 c0 -11 -4 -20 -10
-20 -5 0 -10 9 -10 20 0 11 5 20 10 20 6 0 10 -9 10 -20z m170 0 c0 -11 -4
-20 -10 -20 -5 0 -10 9 -10 20 0 11 5 20 10 20 6 0 10 -9 10 -20z m-863 -12
c-3 -8 -6 -5 -6 6 -1 11 2 17 5 13 3 -3 4 -12 1 -19z m1480 16 c-3 -3 -12 -4
-19 -1 -8 3 -5 6 6 6 11 1 17 -2 13 -5z m-1650 -26 c-3 -8 -6 -5 -6 6 -1 11 2
17 5 13 3 -3 4 -12 1 -19z m127 7 c3 -8 1 -15 -4 -15 -6 0 -10 7 -10 15 0 8 2
15 4 15 2 0 6 -7 10 -15z m1554 -157 l2 -128 -322 -1 c-178 0 -381 -2 -453 -4
-505 -14 -1342 -21 -1353 -11 -3 3 -6 62 -7 130 l-1 124 35 6 c20 3 252 5 515
6 264 0 482 2 484 5 3 3 251 4 551 3 l546 -3 3 -127z"/>
<path d="M215 3630 c-10 -16 7 -31 23 -21 10 6 10 10 -2 20 -10 9 -16 9 -21 1z"/>
<path d="M495 3520 c-3 -6 1 -7 9 -4 18 7 21 14 7 14 -6 0 -13 -4 -16 -10z"/>
<path d="M190 3420 c-14 -11 -20 -20 -14 -20 6 0 19 9 29 20 23 25 17 25 -15
0z"/>
<path d="M1938 3543 c12 -2 32 -2 45 0 12 2 2 4 -23 4 -25 0 -35 -2 -22 -4z"/>
<path d="M1928 3443 c7 -3 16 -2 19 1 4 3 -2 6 -13 5 -11 0 -14 -3 -6 -6z"/>
<path d="M105 3002 c6 -5 24 -12 40 -16 34 -7 15 7 -25 19 -16 5 -22 4 -15 -3z"/>
<path d="M188 2973 c7 -3 16 -2 19 1 4 3 -2 6 -13 5 -11 0 -14 -3 -6 -6z"/>
<path d="M388 2983 c7 -3 16 -2 19 1 4 3 -2 6 -13 5 -11 0 -14 -3 -6 -6z"/>
<path d="M390 2929 c-24 -16 -39 -29 -32 -29 12 0 92 49 92 56 0 9 -18 1 -60
-27z"/>
<path d="M1493 2813 c-9 -16 -23 -34 -32 -40 -8 -7 -12 -16 -8 -19 4 -4 13 -2
20 5 11 8 20 7 39 -9 l26 -20 5 21 c3 12 10 18 15 15 5 -3 7 6 4 21 l-5 25
-16 -26 c-8 -14 -19 -26 -24 -26 -4 0 0 11 9 25 9 14 14 28 11 32 -4 3 -12 -6
-18 -21 -7 -14 -16 -26 -21 -26 -11 0 -10 7 7 40 19 38 11 39 -12 3z"/>
<path d="M1275 2730 c2 -11 7 -25 11 -31 11 -19 24 13 13 33 -13 24 -29 23
-24 -2z"/>
<path d="M682 2835 c11 -20 23 -34 25 -31 6 6 -29 66 -39 66 -4 0 2 -16 14
-35z"/>
<path d="M645 2840 c10 -11 20 -18 23 -15 7 6 -18 35 -31 35 -5 0 -2 -9 8 -20z"/>
<path d="M370 2718 c-29 -44 -31 -48 -23 -48 4 0 18 16 31 35 12 19 19 35 14
35 -4 0 -14 -10 -22 -22z"/>
<path d="M566 2697 c3 -10 9 -15 12 -12 3 3 0 11 -7 18 -10 9 -11 8 -5 -6z"/>
<path d="M438 2533 c7 -3 16 -2 19 1 4 3 -2 6 -13 5 -11 0 -14 -3 -6 -6z"/>
<path d="M380 2520 c-18 -12 -2 -12 25 0 13 6 15 9 5 9 -8 0 -22 -4 -30 -9z"/>
<path d="M381 2484 c-17 -14 -31 -33 -31 -42 0 -11 7 -5 19 15 20 32 53 49 71
38 5 -3 10 -1 10 4 0 20 -38 11 -69 -15z"/>
<path d="M555 2500 c3 -5 8 -10 11 -10 2 0 4 5 4 10 0 6 -5 10 -11 10 -5 0 -7
-4 -4 -10z"/>
<path d="M622 2470 c14 -22 24 -19 15 5 -4 8 -11 15 -17 15 -6 0 -6 -7 2 -20z"/>
<path d="M488 2473 c7 -3 16 -2 19 1 4 3 -2 6 -13 5 -11 0 -14 -3 -6 -6z"/>
<path d="M451 2227 c19 -13 36 -22 38 -20 9 7 -34 43 -52 43 -16 0 -13 -5 14
-23z"/>
<path d="M143 2775 c-28 -14 -59 -35 -69 -47 -14 -16 -7 -13 27 9 25 18 61 38
80 46 19 9 29 16 23 16 -5 1 -33 -10 -61 -24z"/>
<path d="M1308 2563 c12 -2 30 -2 40 0 9 3 -1 5 -23 4 -22 0 -30 -2 -17 -4z"/>
<path d="M1326 2432 c-2 -4 -1 -14 5 -22 7 -12 9 -10 9 8 0 23 -5 28 -14 14z"/>
<path d="M998 2443 c6 -2 18 -2 25 0 6 3 1 5 -13 5 -14 0 -19 -2 -12 -5z"/>
<path d="M1080 2410 c-13 -9 -13 -10 0 -10 8 0 22 5 30 10 13 9 13 10 0 10 -8
0 -22 -5 -30 -10z"/>
<path d="M1093 2383 c-13 -2 -23 -8 -23 -13 0 -5 14 -4 30 1 27 10 42 21 23
18 -5 -1 -18 -4 -30 -6z"/>
<path d="M1095 2340 c-8 -13 5 -13 25 0 13 8 13 10 -2 10 -9 0 -20 -4 -23 -10z"/>
<path d="M66 2275 c7 -16 43 -40 50 -33 2 3 -10 14 -26 26 -21 16 -28 18 -24
7z"/>
<path d="M1120 2115 c-15 -8 -19 -14 -10 -14 18 -1 46 16 40 23 -3 2 -16 -2
-30 -9z"/>
<path d="M1128 1954 c-16 -8 -28 -17 -28 -19 0 -6 52 16 65 27 15 13 -7 9 -37
-8z"/>
<path d="M1108 1917 c-21 -6 -38 -14 -38 -18 0 -9 50 4 77 20 22 13 11 12 -39
-2z"/>
<path d="M685 2418 c-92 -17 -116 -27 -51 -22 32 3 72 11 90 19 36 15 30 16
-39 3z"/>
<path d="M610 2370 c-13 -9 -13 -10 0 -9 8 1 26 5 40 9 l25 8 -25 1 c-14 0
-32 -4 -40 -9z"/>
<path d="M578 2323 c7 -3 16 -2 19 1 4 3 -2 6 -13 5 -11 0 -14 -3 -6 -6z"/>
<path d="M608 1953 c7 -3 16 -2 19 1 4 3 -2 6 -13 5 -11 0 -14 -3 -6 -6z"/>
<path d="M658 1873 c7 -3 16 -2 19 1 4 3 -2 6 -13 5 -11 0 -14 -3 -6 -6z"/>
<path d="M593 1863 c9 -2 23 -2 30 0 6 3 -1 5 -18 5 -16 0 -22 -2 -12 -5z"/>
<path d="M623 1843 c9 -2 25 -2 35 0 9 3 1 5 -18 5 -19 0 -27 -2 -17 -5z"/>
<path d="M730 1840 c-8 -5 -10 -10 -5 -10 6 0 17 5 25 10 8 5 11 10 5 10 -5 0
-17 -5 -25 -10z"/>
<path d="M770 1830 c-13 -8 -13 -10 2 -10 9 0 20 5 23 10 8 13 -5 13 -25 0z"/>
<path d="M1518 1283 c12 -2 30 -2 40 0 9 3 -1 5 -23 4 -22 0 -30 -2 -17 -4z"/>
<path d="M1518 1263 c18 -2 45 -2 60 0 15 2 0 4 -33 4 -33 0 -45 -2 -27 -4z"/>
<path d="M1523 1213 c15 -2 37 -2 50 0 12 2 0 4 -28 4 -27 0 -38 -2 -22 -4z"/>
<path d="M1628 1183 c7 -3 16 -2 19 1 4 3 -2 6 -13 5 -11 0 -14 -3 -6 -6z"/>
<path d="M1613 1163 c9 -2 23 -2 30 0 6 3 -1 5 -18 5 -16 0 -22 -2 -12 -5z"/>
<path d="M96 1201 c-4 -5 3 -7 14 -4 23 6 26 13 6 13 -8 0 -17 -4 -20 -9z"/>
<path d="M138 1153 c6 -2 18 -2 25 0 6 3 1 5 -13 5 -14 0 -19 -2 -12 -5z"/>
<path d="M1977 784 c-11 -14 -17 -28 -14 -30 3 -3 15 9 27 25 12 17 18 31 13
31 -4 0 -16 -12 -26 -26z"/>
<path d="M1175 949 c-15 -6 -11 -8 18 -8 20 -1 37 1 37 3 0 9 -37 12 -55 5z"/>
<path d="M1060 833 c0 -5 5 -15 10 -23 8 -12 10 -11 10 8 0 12 -4 22 -10 22
-5 0 -10 -3 -10 -7z"/>
<path d="M1060 736 c0 -25 5 -48 10 -51 6 -4 10 13 10 44 0 28 -4 51 -10 51
-5 0 -10 -20 -10 -44z"/>
<path d="M1053 514 c-3 -9 -15 -20 -27 -25 -16 -7 -13 -8 12 -3 32 6 32 5 27
-25 -5 -27 -2 -31 17 -31 17 0 19 3 10 12 -7 7 -12 20 -12 29 0 15 7 17 38 13
35 -4 36 -4 8 6 -17 5 -34 16 -38 25 -11 19 -27 19 -35 -1z"/>
<path d="M1522 1021 c-9 -5 -5 -8 15 -8 15 0 42 -2 58 -6 27 -6 26 -6 -5 7
-42 17 -51 18 -68 7z"/>
<path d="M1505 990 c-15 -5 -5 -9 36 -15 31 -4 65 -5 75 -2 12 3 7 5 -13 6
-17 0 -42 5 -55 10 -13 4 -32 5 -43 1z"/>
<path d="M650 929 c-23 -8 -22 -8 6 -4 19 2 47 -4 70 -15 21 -11 45 -20 54
-20 8 0 -7 11 -35 25 -55 27 -58 27 -95 14z"/>
<path d="M813 883 c9 -2 23 -2 30 0 6 3 -1 5 -18 5 -16 0 -22 -2 -12 -5z"/>
<path d="M2030 699 c0 -5 5 -7 10 -4 6 3 10 8 10 11 0 2 -4 4 -10 4 -5 0 -10
-5 -10 -11z"/>
<path d="M1788 223 l4 -58 -41 45 c-22 25 -40 48 -41 53 0 11 -60 8 -60 -3 0
-5 5 -10 10 -10 6 0 10 -28 10 -65 0 -39 -4 -65 -11 -65 -5 0 -8 -4 -5 -9 3
-4 18 -6 33 -3 16 3 22 7 16 9 -8 3 -13 23 -13 51 l0 46 50 -52 c30 -29 57
-49 65 -46 9 4 14 28 17 80 2 41 0 74 -4 74 -3 0 -13 2 -21 5 -11 5 -13 -5 -9
-52z"/>
<path d="M1877 273 c-4 -3 -7 -16 -7 -27 0 -16 3 -17 9 -8 5 8 17 12 27 10 15
-2 20 -14 22 -56 2 -31 -2 -60 -9 -68 -9 -12 -5 -14 25 -14 25 0 36 4 36 15 0
8 -4 15 -10 15 -5 0 -10 25 -10 55 0 52 1 55 25 55 17 0 25 -6 26 -17 1 -12 4
-9 8 7 5 14 6 28 4 33 -5 9 -137 10 -146 0z"/>
<path d="M1520 261 l-45 -6 0 -75 0 -75 55 3 c39 3 61 10 74 24 24 26 13 35
-18 14 -14 -9 -37 -16 -51 -16 -21 0 -25 5 -25 30 0 32 9 37 28 18 9 -9 12 -6
12 17 0 23 -3 26 -12 17 -19 -19 -28 -14 -28 13 0 20 5 25 26 25 15 0 33 -8
41 -17 12 -17 13 -16 11 6 -3 28 -8 30 -68 22z"/>
<path d="M363 253 c-54 -3 -73 -7 -73 -18 0 -10 9 -12 35 -8 34 5 35 4 35 -25
0 -17 -3 -37 -6 -46 -7 -19 -30 -21 -37 -3 -3 9 -10 7 -23 -6 -19 -18 -18 -19
5 -38 26 -21 53 -24 82 -9 16 9 19 22 19 72 0 55 2 60 20 55 15 -4 20 0 20 14
0 10 -1 18 -2 17 -2 -1 -36 -4 -75 -5z"/>
<path d="M485 188 c3 -40 11 -79 17 -85 15 -18 48 -16 70 4 16 14 20 15 36 1
9 -9 23 -13 30 -11 18 7 15 21 -5 19 -21 -1 -33 59 -22 112 6 27 4 32 -13 32
-12 0 -17 -4 -12 -12 11 -17 4 -97 -9 -119 -17 -28 -34 -23 -53 13 -11 21 -15
46 -11 75 4 38 2 43 -16 43 -18 0 -19 -4 -12 -72z"/>
<path d="M705 175 l0 -85 40 0 c51 0 87 18 103 54 28 58 -25 116 -105 116
l-39 0 1 -85z m81 67 c15 -10 34 -47 34 -67 0 -18 -43 -65 -60 -65 -6 0 -10
28 -10 70 0 69 7 82 36 62z"/>
<path d="M923 250 c-43 -17 -54 -69 -28 -120 15 -28 19 -30 75 -30 l60 0 0 35
c0 34 -1 35 -37 34 -33 0 -35 -1 -15 -9 27 -11 28 -26 3 -40 -25 -13 -27 -13
-45 6 -21 20 -20 78 0 99 16 16 28 16 68 0 14 -6 17 -4 14 11 -4 22 -58 30
-95 14z"/>
<path d="M1075 180 l0 -80 51 0 c37 0 56 5 67 18 25 27 21 37 -8 18 -46 -30
-87 -13 -71 30 5 13 9 14 21 4 13 -10 15 -8 15 14 0 14 -4 26 -10 26 -5 0 -10
-4 -10 -10 0 -5 -4 -10 -10 -10 -5 0 -10 11 -10 24 0 33 48 43 60 12 8 -19 9
-19 9 7 1 26 -1 27 -51 27 l-53 0 0 -80z"/>
<path d="M1245 180 c0 -70 2 -80 18 -80 14 0 16 4 7 19 -10 20 -14 91 -5 91 3
0 21 -17 40 -37 34 -36 37 -37 48 -19 7 10 20 28 30 40 17 21 18 20 15 -37 -3
-54 -2 -57 21 -57 17 0 22 4 17 16 -3 9 -6 45 -6 80 0 54 -3 64 -17 64 -11 0
-28 -18 -42 -42 l-24 -42 -36 42 c-55 64 -66 57 -66 -38z"/>
<path d="M2031 146 c-9 -10 -8 -16 4 -26 19 -16 41 1 32 24 -8 20 -21 20 -36
2z"/>
<path d="M850 3629 c0 -5 14 -15 30 -20 38 -14 39 -27 1 -21 -22 3 -36 -2 -53
-19 -13 -13 -31 -23 -39 -21 -9 1 -27 -7 -42 -18 -30 -24 -37 -75 -15 -110 10
-15 9 -22 -6 -38 -9 -11 -25 -18 -35 -15 -24 6 -33 -20 -15 -44 14 -17 15 -17
9 5 -5 17 -2 22 13 22 10 0 27 9 37 20 16 18 17 24 5 59 -10 31 -10 43 0 62
26 49 65 52 114 8 50 -44 103 -25 61 21 -13 14 -14 22 -4 43 13 29 0 57 -27
57 -8 0 -14 5 -14 10 0 6 -4 10 -10 10 -5 0 -10 -5 -10 -11z m39 -70 c-9 -17
-7 -25 11 -44 33 -35 6 -42 -35 -8 -18 15 -34 33 -34 40 -1 14 27 32 52 33 15
0 16 -3 6 -21z"/>
<path d="M1057 3460 c6 -23 3 -23 -51 -11 -50 12 -89 -4 -80 -32 7 -23 -10
-37 -46 -37 -15 0 -31 -9 -39 -21 -11 -19 -11 -21 3 -16 9 4 16 2 16 -3 0 -6
-4 -10 -9 -10 -13 0 -41 -29 -41 -43 0 -6 7 -1 16 11 8 12 24 22 36 22 17 0
19 4 14 25 -5 21 -3 25 18 25 29 0 52 26 48 53 -3 18 0 19 62 12 l66 -7 0 26
c0 14 -4 26 -9 26 -5 0 -7 -9 -4 -20z"/>
<path d="M1474 3434 c20 -14 11 -64 -15 -86 -15 -13 -19 -23 -13 -35 7 -16 8
-16 11 3 2 12 13 30 24 40 10 9 19 26 19 36 0 11 4 27 9 37 8 14 5 17 -20 16
-24 0 -27 -2 -15 -11z"/>
<path d="M914 3348 c-3 -5 0 -9 7 -7 36 4 90 -2 84 -10 -3 -5 4 -12 15 -16 11
-4 18 -11 14 -16 -3 -5 -10 -6 -16 -3 -21 13 -88 12 -88 -1 0 -8 10 -11 28 -8
23 3 24 2 7 -6 -19 -8 -19 -9 7 -21 31 -15 73 -5 48 10 -13 9 -13 10 0 11 8 1
20 1 27 0 15 -2 36 36 28 49 -10 16 -152 33 -161 18z"/>
<path d="M775 3338 c-75 -41 -71 -148 5 -148 l24 0 -22 -20 c-59 -55 -141 25
-93 91 19 25 19 39 -1 39 -5 0 -7 -4 -4 -9 3 -5 -1 -14 -9 -21 -9 -7 -15 -29
-15 -50 0 -43 32 -77 82 -87 15 -3 29 -11 32 -19 7 -17 53 -18 59 -1 4 10 7
10 18 0 7 -7 21 -13 31 -13 15 0 18 -9 18 -52 0 -64 -11 -83 -47 -84 -73 -2
-93 -5 -93 -12 0 -5 14 -9 30 -9 17 0 30 4 30 9 0 23 32 3 49 -31 11 -21 38
-54 60 -73 38 -33 40 -36 31 -69 l-10 -34 20 25 c11 14 20 29 20 34 0 5 8 19
17 30 10 12 11 15 3 9 -23 -21 -44 -15 -83 25 -37 38 -51 79 -23 69 11 -4 13
-1 9 10 -5 12 -3 14 8 8 12 -8 12 -6 0 8 -9 12 -10 17 -2 17 7 0 10 4 7 9 -4
5 0 12 6 14 10 4 10 6 1 6 -7 1 -13 6 -13 12 0 5 6 7 13 4 6 -4 3 1 -7 9 -19
16 -19 16 4 16 l24 0 -26 28 c-37 38 -49 74 -42 130 4 39 3 44 -7 28 -6 -11
-9 -39 -7 -67 5 -46 4 -48 -17 -43 -13 3 -26 1 -29 -5 -11 -17 -33 -13 -40 6
-9 22 16 46 49 46 24 0 25 1 10 17 -9 10 -20 31 -25 46 -7 26 -8 26 -9 6 -1
-13 4 -32 9 -43 12 -22 8 -23 -23 -7 -12 6 -29 14 -37 18 -8 4 -16 23 -18 43
-3 36 10 56 54 84 24 15 6 16 -21 1z"/>
<path d="M834 3264 c11 -45 28 -55 24 -15 -2 19 -9 37 -17 39 -11 4 -12 -2 -7
-24z"/>
<path d="M1930 3085 c-11 -30 5 -81 30 -95 33 -17 36 -11 7 15 -28 27 -34 54
-17 86 8 13 7 19 0 19 -6 0 -15 -11 -20 -25z"/>
<path d="M1040 3059 c20 -37 13 -51 -22 -44 -18 4 -37 11 -42 16 -6 5 -14 9
-20 9 -5 0 4 -15 21 -32 17 -18 36 -50 43 -70 15 -48 24 -49 17 -3 -3 19 -2
35 2 35 16 0 33 -30 28 -49 -4 -17 -2 -18 19 -9 17 8 21 14 12 19 -17 11 -39
111 -27 125 7 8 2 13 -15 16 -22 4 -24 3 -16 -13z"/>
<path d="M1986 3015 c6 -15 44 -41 44 -30 0 6 -38 45 -45 45 -2 0 -2 -7 1 -15z"/>
<path d="M833 2900 c8 -14 17 -37 21 -51 6 -28 81 -87 94 -74 4 4 1 10 -6 13
-23 8 -82 63 -82 77 0 7 -9 23 -21 36 l-20 24 14 -25z"/>
<path d="M1240 2878 c-12 -22 -12 -22 6 -6 10 10 15 20 12 24 -4 3 -12 -5 -18
-18z"/>
<path d="M820 2734 c26 -33 61 -60 59 -47 0 5 -19 24 -42 43 l-42 35 25 -31z"/>
<path d="M1827 2473 c-4 -3 -7 -11 -7 -17 0 -6 5 -5 12 2 6 6 9 14 7 17 -3 3
-9 2 -12 -2z"/>
<path d="M1677 2429 c-4 -16 -3 -18 9 -8 16 13 19 29 5 29 -5 0 -11 -9 -14
-21z"/>
<path d="M1793 2393 c9 -2 23 -2 30 0 6 3 -1 5 -18 5 -16 0 -22 -2 -12 -5z"/>
<path d="M1451 2323 c-1 -12 6 -29 15 -37 19 -19 31 -21 16 -3 -6 7 -16 24
-21 38 -9 23 -10 23 -10 2z"/>
<path d="M1785 2330 c-3 -5 -2 -10 4 -10 5 0 13 5 16 10 3 6 2 10 -4 10 -5 0
-13 -4 -16 -10z"/>
<path d="M1992 2208 c3 -7 13 -15 24 -17 16 -3 17 -1 5 13 -16 19 -34 21 -29
4z"/>
<path d="M1348 1933 c7 -3 16 -2 19 1 4 3 -2 6 -13 5 -11 0 -14 -3 -6 -6z"/>
<path d="M1043 1601 c-37 -23 -35 -50 4 -90 27 -28 28 -34 8 -51 -8 -7 -15
-17 -15 -23 0 -6 11 0 24 13 15 13 32 20 40 17 9 -4 16 -3 16 2 0 5 -11 12
-24 15 -32 8 -40 31 -11 34 12 1 33 6 46 11 18 7 10 8 -28 4 -44 -5 -53 -3
-53 10 0 8 -3 22 -6 30 -4 10 4 21 23 31 15 8 24 15 18 16 -5 0 -24 -9 -42
-19z"/>
<path d="M1100 1601 c0 -5 -12 -14 -27 -19 -25 -9 -25 -11 -6 -11 12 -1 24 3
27 8 3 5 16 7 28 3 14 -3 19 -1 14 6 -3 6 2 13 11 15 10 3 3 5 -14 6 -18 0
-33 -3 -33 -8z"/>
<path d="M1678 1603 c7 -3 16 -2 19 1 4 3 -2 6 -13 5 -11 0 -14 -3 -6 -6z"/>
<path d="M1190 1586 c15 -9 46 -15 75 -14 l50 1 -55 7 c-30 4 -64 10 -75 14
-13 5 -11 2 5 -8z"/>
<path d="M1313 1593 c9 -2 23 -2 30 0 6 3 -1 5 -18 5 -16 0 -22 -2 -12 -5z"/>
<path d="M1753 1593 c9 -2 25 -2 35 0 9 3 1 5 -18 5 -19 0 -27 -2 -17 -5z"/>
<path d="M1130 1570 c-12 -8 -9 -10 13 -10 15 0 27 5 27 10 0 13 -20 13 -40 0z"/>
<path d="M1333 1563 c9 -2 25 -2 35 0 9 3 1 5 -18 5 -19 0 -27 -2 -17 -5z"/>
<path d="M1078 1553 c6 -2 18 -2 25 0 6 3 1 5 -13 5 -14 0 -19 -2 -12 -5z"/>
<path d="M1398 1553 c6 -2 18 -2 25 0 6 3 1 5 -13 5 -14 0 -19 -2 -12 -5z"/>
<path d="M1465 1539 c11 -4 52 -8 90 -8 89 1 74 6 -30 12 -44 2 -71 1 -60 -4z"/>
<path d="M1693 1523 c32 -2 81 -2 110 0 29 2 3 3 -58 3 -60 0 -84 -1 -52 -3z"/>
<path d="M1903 1512 c-9 -6 -6 -11 7 -20 10 -6 21 -8 24 -3 8 13 -18 31 -31
23z"/>
<path d="M1175 1491 c-22 -11 -34 -20 -27 -20 7 -1 27 6 44 15 35 18 34 18
181 -25 60 -18 111 -30 113 -28 3 2 -22 12 -53 21 -32 10 -74 24 -93 31 -67
25 -122 27 -165 6z"/>
<path d="M995 1430 c-54 -54 -65 -60 -65 -31 0 19 -26 48 -36 39 -3 -3 2 -13
11 -21 22 -23 18 -37 -11 -37 -23 0 -26 3 -20 28 6 25 5 25 -8 9 -8 -10 -12
-27 -9 -37 8 -28 -13 -25 -34 6 -10 14 -31 40 -46 57 -26 30 -26 29 5 -22 35
-58 70 -83 90 -63 16 16 45 15 51 0 3 -8 29 11 68 49 35 34 61 65 58 67 -3 3
-27 -17 -54 -44z"/>
<path d="M1880 1473 c0 -4 5 -15 10 -23 8 -13 10 -13 10 2 0 9 -4 20 -10 23
-5 3 -10 3 -10 -2z"/>
<path d="M1178 1419 c-25 -14 -22 -29 5 -29 13 0 32 -9 43 -21 10 -11 28 -26
39 -31 12 -7 7 3 -14 25 -19 20 -43 38 -55 40 -19 3 -19 4 -3 12 13 5 25 1 41
-14 12 -11 29 -21 37 -21 8 0 2 8 -13 18 -16 9 -28 20 -28 24 0 11 -32 9 -52
-3z"/>
<path d="M1377 1419 c-14 -8 -17 -18 -12 -41 7 -28 5 -30 -16 -26 -13 3 -33 9
-44 12 -13 5 -12 2 5 -8 14 -8 35 -15 48 -16 20 0 23 4 20 29 -1 16 4 36 11
45 16 19 13 20 -12 5z"/>
<path d="M1427 1400 c3 -19 1 -30 -6 -30 -21 0 -11 -18 14 -24 29 -7 79 15 89
40 4 10 -4 7 -25 -10 -38 -32 -49 -33 -49 -2 0 31 -9 56 -21 56 -5 0 -6 -13
-2 -30z"/>
<path d="M980 1355 c-30 -39 -40 -59 -33 -66 8 -8 13 -2 18 19 3 16 15 38 26
48 20 18 44 54 36 54 -3 0 -24 -25 -47 -55z"/>
<path d="M1212 1298 c-7 -7 -12 -20 -12 -29 0 -16 -4 -17 -30 -8 -16 6 -30 17
-30 25 0 8 -5 14 -10 14 -22 0 10 -38 41 -49 41 -14 50 -14 48 2 -3 26 1 37
15 37 23 0 31 -22 12 -35 -15 -12 -15 -13 0 -19 8 -3 30 -5 47 -5 24 1 26 3
10 6 -13 2 -23 12 -23 21 0 36 -45 63 -68 40z"/>
<path d="M953 1235 c-1 -53 8 -80 30 -81 9 -1 17 2 17 7 0 5 -6 9 -12 10 -7 0
11 11 40 24 28 13 52 26 52 29 0 3 -19 -4 -42 -14 -66 -30 -76 -27 -81 23 l-4
42 0 -40z"/>
<path d="M1120 1251 c0 -5 6 -12 13 -14 6 -3 2 -6 -10 -6 -38 -2 -33 -16 6
-16 34 0 37 2 27 17 -12 20 -36 32 -36 19z"/>
<path d="M344 1183 c0 -18 4 -33 9 -33 4 0 7 -8 7 -17 0 -15 2 -16 10 -3 6 9
5 17 -2 21 -7 4 -6 14 3 30 11 21 11 23 -4 11 -13 -11 -16 -10 -20 5 -2 10 -4
3 -3 -14z"/>
<path d="M283 1140 c0 -25 2 -35 4 -22 2 12 2 32 0 45 -2 12 -4 2 -4 -23z"/>
<path d="M921 1089 c-1 -38 6 -52 21 -43 5 3 5 11 -1 17 -5 7 -11 23 -14 37
-3 19 -5 17 -6 -11z"/>
<path d="M365 1090 c-4 -7 -3 -15 2 -19 20 -13 44 -73 47 -120 5 -66 43 -135
76 -138 23 -3 24 -2 4 6 -21 9 -78 104 -68 113 10 11 12 48 3 53 -5 4 -7 10
-5 14 3 4 -8 29 -23 55 -19 32 -31 44 -36 36z"/>
<path d="M284 1065 c11 -29 71 -115 80 -115 5 0 2 8 -6 18 -8 9 -27 38 -42 65
-26 45 -45 64 -32 32z"/>
<path d="M311 975 c-1 -5 8 -37 19 -70 11 -33 24 -80 29 -105 l10 -45 -5 53
c-4 47 -51 194 -53 167z"/>
<path d="M30 801 c0 -12 3 -21 8 -21 4 0 27 -27 51 -60 24 -33 46 -59 48 -56
2 2 -21 38 -52 81 -38 54 -55 71 -55 56z"/>
<path d="M30 762 c0 -16 82 -123 89 -117 2 3 -5 15 -16 28 -11 12 -32 40 -47
62 -14 22 -26 34 -26 27z"/>
<path d="M353 675 c0 -33 2 -45 4 -27 2 18 2 45 0 60 -2 15 -4 0 -4 -33z"/>
<path d="M408 488 c6 -6 18 -8 28 -6 14 3 12 5 -9 10 -19 3 -25 2 -19 -4z"/>
<path d="M400 456 c0 -2 7 -6 15 -10 8 -3 15 -1 15 4 0 6 -7 10 -15 10 -8 0
-15 -2 -15 -4z"/>
</g>
</svg>
