<?xml version="1.0" standalone="no"?>
<!DOCTYPE svg PUBLIC "-//W3C//DTD SVG 20010904//EN"
 "http://www.w3.org/TR/2001/REC-SVG-20010904/DTD/svg10.dtd">
<svg version="1.0" xmlns="http://www.w3.org/2000/svg"
 width="220.000000pt" height="384.000000pt" viewBox="0 0 220.000000 384.000000"
 preserveAspectRatio="xMidYMid meet">
<metadata>
Created by potrace 1.16, written by Peter Selinger 2001-2019
</metadata>
<g transform="translate(0.000000,384.000000) scale(0.100000,-0.100000)"
fill="#000000" stroke="none">
<path d="M43 3832 l-22 -3 -3 -322 c-2 -177 -3 -1034 -3 -1905 l0 -1583 305 1
c168 1 404 3 525 5 121 3 473 4 783 5 l563 0 -3 153 c-1 83 -1 867 0 1741 2
1280 0 1591 -10 1604 -10 13 -10 14 0 8 10 -6 12 23 10 145 l-3 152 -1060 1
c-583 1 -1070 0 -1082 -2z m241 -23 c-3 -5 10 -10 28 -10 l33 -1 -30 -8 c-28
-7 -28 -8 -5 -9 14 0 32 4 40 9 13 9 13 11 0 20 -11 7 -7 10 18 10 20 0 31 -4
27 -10 -7 -11 33 -15 102 -11 46 3 74 -9 116 -47 31 -29 37 -81 12 -102 -8 -7
-15 -18 -15 -24 1 -20 50 44 50 65 0 34 -28 76 -65 99 -19 12 -35 22 -35 23 0
1 245 2 545 2 300 0 545 -3 545 -6 0 -15 -31 -31 -50 -26 -29 8 -86 -13 -112
-40 -14 -15 -22 -38 -24 -66 -1 -37 -5 -42 -27 -45 -31 -4 -49 -24 -49 -56 l0
-24 -56 20 c-43 15 -69 18 -113 13 -37 -4 -59 -3 -63 4 -4 6 -18 11 -32 11
-13 0 -29 9 -36 20 -17 27 -32 25 -56 -5 -12 -15 -26 -23 -35 -19 -8 3 -18 1
-22 -5 -4 -7 4 -11 20 -11 15 0 28 -7 32 -17 4 -10 11 -21 17 -25 7 -5 5 -8
-5 -8 -8 0 -34 16 -57 36 -50 43 -96 47 -162 15 -52 -25 -60 -26 -60 -7 0 21
-48 56 -76 56 -13 0 -29 -9 -36 -19 -6 -10 -17 -17 -24 -14 -8 3 -11 -3 -10
-14 4 -23 39 -29 56 -8 14 17 46 20 55 5 4 -6 11 -8 16 -5 5 4 9 -3 9 -15 0
-14 -11 -25 -37 -37 -181 -79 -187 -83 -274 -180 -46 -52 -93 -113 -105 -136
-30 -62 -58 -107 -66 -107 -4 0 -10 5 -13 10 -3 6 -12 10 -18 10 -7 0 -4 -5 6
-11 9 -5 17 -18 17 -28 0 -14 -6 -17 -24 -14 -13 3 -27 0 -31 -6 -5 -8 1 -10
20 -5 25 6 26 5 19 -22 -4 -16 -13 -38 -20 -49 -6 -11 -15 -34 -19 -52 -3 -17
-13 -34 -20 -37 -8 -3 -12 -12 -9 -19 6 -17 -38 -54 -73 -63 -32 -8 -73 20
-73 51 0 21 3 23 33 18 39 -6 97 22 106 52 4 11 4 38 0 60 l-6 40 -2 -51 c-1
-63 -16 -78 -79 -78 -42 -1 -47 2 -50 23 -4 26 13 42 35 34 7 -3 13 -11 13
-19 0 -9 10 -14 28 -13 15 0 21 3 12 6 -8 3 -25 16 -38 28 -23 21 -23 25 -12
60 13 39 59 75 95 75 16 -1 14 -4 -10 -17 -48 -25 -65 -44 -64 -72 1 -24 2
-23 10 7 11 36 33 45 24 9 -3 -12 -1 -34 5 -47 9 -22 10 -21 5 11 -4 27 -1 40
15 54 11 10 17 21 14 26 -2 5 10 13 28 18 30 8 31 9 8 11 l-25 2 25 8 c23 8
24 8 3 9 l-22 1 24 25 c14 13 25 34 24 47 -1 18 -3 16 -10 -9 -6 -19 -21 -39
-37 -47 -15 -9 -21 -16 -12 -16 8 -1 -3 -7 -25 -15 -49 -17 -82 -54 -91 -100
-3 -19 -10 -32 -15 -29 -12 7 -12 214 0 214 16 0 22 -18 9 -23 -7 -2 9 -13 36
-25 51 -23 64 -27 52 -15 -3 4 8 12 26 17 17 6 34 17 36 25 4 11 -1 10 -19 -2
-13 -10 -35 -17 -49 -16 -23 0 -23 1 -5 9 18 8 17 9 -6 9 -15 1 -38 10 -52 21
-23 18 -26 27 -26 90 0 67 1 70 24 70 13 0 44 -11 69 -25 40 -22 45 -23 57 -8
12 14 11 15 -9 9 -16 -6 -22 -3 -22 8 0 9 5 16 12 16 14 0 58 40 58 52 0 5
-10 22 -21 38 -16 20 -20 36 -15 55 5 20 3 26 -6 23 -20 -7 -21 -48 -2 -69 9
-10 15 -20 13 -22 -2 -1 -13 -7 -24 -13 -13 -7 -20 -22 -20 -40 -1 -22 -5 -29
-20 -29 -16 0 -20 7 -22 38 0 21 -8 46 -16 55 -9 9 -19 30 -22 45 -5 18 -12
26 -21 23 -25 -10 -16 69 16 137 23 50 38 68 71 86 38 22 49 23 132 17 49 -3
96 -11 104 -17 15 -13 32 -3 17 11 -10 9 -65 19 -159 27 -42 3 -71 0 -97 -11
-38 -16 -82 -65 -91 -101 -2 -11 -5 19 -6 66 0 47 1 88 3 90 9 9 246 7 240 -2z
m191 1 c-3 -5 -12 -7 -20 -3 -21 7 -19 13 6 13 11 0 18 -4 14 -10z m1693 -18
c4 -23 3 -23 -22 -7 -14 10 -26 13 -26 7 0 -5 6 -12 14 -15 8 -3 20 -16 27
-29 11 -21 11 -22 -4 -9 -10 7 -17 9 -17 3 0 -5 7 -15 15 -22 17 -14 21 -125
6 -149 -9 -14 -65 -12 -106 3 -20 8 -20 7 -1 -8 11 -9 37 -16 59 -16 23 0 36
-4 32 -10 -8 -13 -71 -13 -97 1 -16 9 -19 8 -16 -3 3 -7 22 -14 46 -16 27 -2
42 -8 42 -17 0 -24 -32 -26 -67 -4 -19 12 -37 19 -40 15 -4 -3 -15 1 -25 11
-15 13 -18 14 -18 1 0 -8 12 -25 26 -39 l26 -24 -7 24 -7 23 31 -23 c17 -12
31 -24 31 -26 0 -2 -18 -3 -40 -3 -35 0 -43 5 -68 39 -26 38 -59 61 -85 61 -7
0 3 -9 21 -20 31 -19 43 -40 22 -40 -25 0 6 -31 41 -40 50 -14 49 -19 -1 -16
-33 2 -44 8 -65 36 -25 33 -55 58 -55 44 0 -3 11 -19 25 -36 26 -31 32 -48 15
-48 -5 0 -10 5 -10 12 0 17 -61 78 -78 78 -9 0 -4 -8 12 -21 14 -11 31 -30 38
-42 7 -15 1 -12 -19 10 -29 30 -37 33 -143 46 -15 1 4 8 45 16 92 18 121 29
108 42 -20 20 -253 -41 -253 -67 0 -19 10 -18 25 2 9 13 16 14 31 6 10 -6 45
-14 77 -17 49 -6 66 -13 100 -43 23 -20 45 -41 48 -46 10 -13 79 -38 119 -42
l35 -3 -34 8 c-18 5 -41 17 -50 26 -15 16 -15 17 6 6 12 -6 41 -11 65 -11 31
0 39 -3 28 -10 -13 -8 -13 -10 2 -10 9 0 20 5 23 10 4 6 21 17 40 24 18 8 43
24 54 35 l21 21 0 -59 c0 -81 -9 -87 -127 -83 -111 3 -145 -13 -164 -78 -11
-36 -10 -42 15 -75 27 -35 63 -52 91 -41 24 9 17 27 -8 21 -15 -4 -32 1 -49
14 -30 24 -38 48 -27 78 14 38 53 55 146 63 49 4 96 11 106 15 10 4 17 3 17
-4 0 -19 -65 -41 -122 -41 -64 0 -102 -18 -106 -48 -4 -26 15 -55 30 -46 5 3
2 11 -8 18 -13 10 -14 17 -5 34 13 24 12 24 94 28 32 1 71 7 88 13 26 9 30 8
27 -6 -4 -20 -53 -35 -89 -28 -29 6 -79 -9 -79 -24 0 -6 12 -16 28 -23 30 -15
42 -59 21 -84 -17 -21 -5 -28 15 -9 9 9 16 32 16 51 0 28 -6 38 -32 54 l-33
20 55 0 c30 0 65 3 78 6 21 6 22 3 22 -45 0 -44 -3 -51 -19 -51 -11 0 -23 -5
-27 -11 -5 -9 1 -10 20 -5 20 5 26 3 26 -10 0 -9 -8 -23 -17 -31 -17 -14 -17
-14 0 -9 17 5 18 0 14 -77 -2 -45 -7 -93 -11 -107 -6 -19 -5 -22 3 -10 8 11
11 -148 10 -576 l0 -590 -35 -13 c-43 -16 -67 -51 -74 -110 -3 -30 -10 -47
-20 -49 -16 -3 -16 -7 -4 183 9 129 17 355 16 440 0 17 0 55 1 85 2 156 -41
425 -83 525 -5 11 -11 34 -14 50 -3 17 -8 44 -12 60 -6 30 -6 30 30 -12 20
-23 52 -47 72 -53 32 -11 40 -10 63 7 14 11 27 32 29 46 3 21 -2 28 -23 33
-18 4 -30 2 -36 -7 -11 -18 -11 -39 0 -39 5 0 8 8 7 17 0 10 7 19 17 21 24 5
22 -30 -3 -53 -14 -12 -27 -15 -46 -11 -38 10 -81 42 -89 66 -4 11 -12 20 -18
20 -13 1 -47 67 -47 93 0 26 -31 99 -57 134 -13 18 -26 46 -29 62 -4 16 -19
43 -35 58 -16 15 -29 35 -29 44 0 22 -50 66 -83 74 -16 4 -34 19 -42 35 -8 15
-22 31 -32 34 -15 6 -15 9 -3 17 11 8 9 9 -9 4 -14 -5 -21 -3 -17 3 3 5 -1 15
-9 22 -35 29 -14 77 52 117 65 40 110 55 117 40 3 -9 8 -8 15 3 23 33 12 36
-58 14 -22 -7 -23 -5 -16 27 4 19 11 39 16 45 17 21 86 33 199 34 153 1 152 2
145 -10 -9 -15 11 -12 24 4 16 19 -24 24 -174 22 -106 -1 -126 -4 -170 -26
-47 -23 -50 -28 -55 -69 -5 -41 -9 -47 -55 -74 -27 -16 -55 -36 -62 -45 -17
-21 -8 -73 14 -90 28 -20 -45 -3 -90 21 -60 33 -60 102 0 109 22 2 28 8 29 29
3 78 44 119 122 119 23 0 42 4 42 9 0 5 17 16 38 25 30 12 77 15 257 13 l220
-2 3 -23z m-1459 -183 c17 -6 31 -16 31 -22 0 -7 -4 -7 -12 1 -17 17 -53 15
-68 -3 -7 -8 -19 -15 -27 -15 -9 0 -4 9 13 25 15 14 28 25 29 25 1 0 16 -5 34
-11z m371 -17 c0 -7 -7 -21 -16 -29 -13 -14 -17 -14 -25 -2 -10 16 -11 33 -3
42 11 11 44 3 44 -11z m54 -8 c22 -9 10 -23 -14 -17 -11 3 -17 9 -14 14 6 11
8 11 28 3z m-135 -45 c17 -13 31 -27 31 -32 0 -5 -8 -3 -17 4 -16 12 -17 12
-5 -2 10 -13 9 -19 -3 -29 -12 -10 -18 -10 -32 1 -16 13 -17 12 -5 -3 21 -27
-3 -29 -28 -3 -13 14 -50 35 -82 46 -32 12 -58 26 -58 31 0 5 8 7 18 5 9 -3
31 -8 47 -12 29 -6 29 -6 10 10 -19 15 -17 16 37 11 37 -3 67 -12 87 -27z
m788 25 c-3 -3 -12 -4 -19 -1 -8 3 -5 6 6 6 11 1 17 -2 13 -5z m-667 -9 c0 -2
-13 -11 -30 -20 -30 -16 -40 -9 -18 13 12 12 48 17 48 7z m125 -2 c-37 -8 -75
-25 -75 -34 0 -5 13 -3 30 6 56 29 62 15 9 -21 -30 -20 -65 -48 -78 -62 -39
-43 -142 -102 -178 -102 -9 0 0 12 23 29 21 15 50 41 64 57 22 26 21 25 -11
-3 -19 -18 -38 -33 -42 -33 -13 0 -7 27 8 40 9 7 13 15 10 18 -6 7 -65 -48
-65 -61 0 -10 -41 -46 -54 -47 -5 0 2 10 15 23 13 12 38 38 54 57 37 42 85 79
145 109 44 23 44 23 26 2 -24 -27 -22 -26 38 4 27 14 61 24 75 24 20 -1 22 -2
6 -6z m196 -46 c23 -14 25 -27 4 -27 -8 0 -15 4 -15 10 0 5 -18 19 -40 30 -22
11 -40 22 -40 25 0 5 66 -22 91 -38z m-76 9 c34 -15 51 -31 18 -19 -11 4 -14
3 -9 -5 12 -20 -16 -13 -59 13 -39 24 -39 25 -12 25 15 0 43 -7 62 -14z m-638
-29 c-16 -34 -71 -61 -86 -43 -14 16 12 41 52 51 15 4 30 12 33 17 12 19 13 1
1 -25z m103 25 c0 -5 -18 -14 -41 -21 -23 -7 -39 -14 -37 -17 3 -2 19 1 36 7
17 6 39 9 49 7 13 -3 6 -10 -27 -30 -24 -15 -47 -25 -49 -22 -3 3 1 9 9 14 13
8 13 10 -1 10 -8 0 -21 -6 -29 -12 -12 -11 -12 -10 -2 4 10 13 10 17 0 21 -8
3 1 11 20 18 17 8 32 17 32 21 0 4 9 8 20 8 11 0 20 -4 20 -8z m1330 -7 c0 -8
-4 -15 -10 -15 -5 0 -10 7 -10 15 0 8 5 15 10 15 6 0 10 -7 10 -15z m-866 -4
c11 -4 15 -10 10 -13 -14 -8 -84 3 -78 13 6 11 41 11 68 0z m651 -11 c3 -5 1
-10 -4 -10 -6 0 -11 5 -11 10 0 6 2 10 4 10 3 0 8 -4 11 -10z m-1861 -53 c15
-22 16 -30 6 -42 -13 -15 -30 -12 -30 6 0 6 5 7 10 4 6 -3 10 -1 10 4 0 14
-27 14 -35 1 -4 -6 -1 -18 7 -27 11 -14 11 -15 -2 -11 -15 5 -18 73 -4 107 5
14 7 14 13 1 3 -8 14 -27 25 -43z m816 43 c0 -5 -9 -10 -21 -10 -11 0 -17 5
-14 10 3 6 13 10 21 10 8 0 14 -4 14 -10z m371 -12 c22 -6 39 -15 39 -20 0 -5
-4 -6 -10 -3 -5 3 -10 2 -10 -4 0 -5 6 -12 13 -14 6 -3 3 -6 -8 -6 -11 -1 -26
8 -33 19 -7 11 -19 20 -27 20 -8 0 -15 5 -15 10 0 13 4 13 51 -2z m290 -10
c22 -12 39 -26 39 -31 0 -5 -11 -2 -25 7 -13 9 -32 16 -42 15 -13 0 -12 -3 7
-11 21 -9 22 -12 7 -15 -21 -5 -57 23 -57 44 0 19 27 16 71 -9z m-645 -14 c-5
-14 -4 -15 9 -4 8 7 15 9 15 4 0 -19 -16 -33 -44 -40 l-29 -7 24 32 c25 34 35
40 25 15z m479 4 c28 -13 35 -30 8 -22 -15 5 -15 3 1 -10 19 -16 19 -16 -1
-16 -39 0 -73 19 -73 40 0 23 25 26 65 8z m77 -4 c24 -12 28 -18 17 -25 -23
-14 -36 -10 -53 16 -19 29 -8 32 36 9z m653 0 c-30 -23 -94 -39 -106 -27 -6 6
-2 9 13 9 15 -1 22 4 20 13 -2 8 3 11 12 8 9 -4 18 -2 21 3 4 6 18 10 33 10
26 -1 26 -1 7 -16z m-1505 -8 c0 -15 -35 -41 -75 -56 -31 -12 -33 3 -2 19 l22
11 -22 -6 c-33 -8 -28 3 10 26 37 23 67 26 67 6z m128 -16 c13 0 12 -5 -8 -21
-14 -11 -35 -24 -47 -29 -14 -6 -20 -15 -17 -24 7 -19 -11 -53 -38 -67 -18
-10 -20 -9 -15 5 4 9 2 16 -2 16 -5 0 -11 -7 -15 -15 -8 -21 -27 -19 -19 3 11
31 44 60 63 55 15 -4 18 -1 13 16 -3 12 -1 21 6 21 6 0 11 5 11 12 0 6 -10 3
-21 -8 -22 -19 -22 -19 -14 6 7 23 7 24 -10 10 -16 -13 -18 -13 -13 0 3 8 14
14 24 13 10 -1 30 7 44 17 21 15 26 16 33 4 4 -8 16 -14 25 -14z m123 6 c-22
-23 -68 -42 -78 -32 -3 2 8 11 24 20 37 20 21 20 -20 0 l-32 -15 28 25 c19 18
39 26 64 26 l36 0 -22 -24z m364 15 c3 -5 -3 -12 -12 -14 -13 -3 -12 -5 5 -6
13 -1 20 -5 17 -11 -10 -16 -95 13 -95 32 0 11 77 10 85 -1z m735 -11 c8 -5
11 -12 7 -16 -4 -4 -15 0 -24 9 -18 18 -8 23 17 7z m-774 -55 c38 -31 49 -45
36 -45 -27 0 -84 20 -103 36 -22 19 -34 17 -18 -2 8 -9 32 -25 54 -35 44 -21
14 -17 -52 7 -47 17 -55 37 -22 54 16 9 25 8 40 -6 10 -9 22 -15 25 -11 3 3
-3 12 -15 19 -12 7 -21 16 -21 20 0 17 23 6 76 -37z m-1001 25 c7 -12 -12 -40
-26 -40 -10 0 -12 34 -2 43 9 10 21 9 28 -3z m1161 -10 c21 -10 32 -20 24 -20
-12 0 -11 -4 4 -15 19 -14 19 -15 -6 -15 -19 0 -32 9 -47 35 -11 19 -19 35
-17 35 1 0 20 -9 42 -20z m236 0 c14 -10 28 -17 31 -14 9 10 73 -15 91 -35 17
-18 16 -19 -13 -17 -17 1 -42 13 -56 26 -24 23 -37 16 -13 -8 9 -9 9 -12 0
-12 -6 0 -16 9 -22 21 -6 11 -26 29 -43 39 -19 12 -25 20 -16 20 9 0 28 -9 41
-20z m-286 -6 c18 -15 18 -15 -11 -10 -29 6 -29 6 -10 -10 19 -15 18 -16 -15
-9 -19 4 -41 12 -49 18 -11 10 -9 13 10 18 39 11 54 10 75 -7z m194 -19 c0 -2
-7 -2 -16 2 -9 3 -20 0 -24 -7 -7 -11 -14 -10 -37 5 l-28 19 25 6 c22 6 80
-12 80 -25z m-731 11 c12 -14 6 -21 -29 -41 -13 -8 -13 -7 -1 8 17 22 3 22
-21 0 -16 -14 -18 -14 -18 -1 0 14 35 46 51 47 4 1 12 -5 18 -13z m124 4 c7 0
-5 -9 -26 -20 -42 -23 -51 -25 -41 -9 4 8 0 9 -15 4 -11 -3 -21 -4 -21 -1 0
10 64 35 78 30 8 -2 19 -4 25 -4z m684 -16 c17 -16 21 -24 11 -20 -12 3 -15 1
-11 -10 3 -7 0 -14 -6 -14 -15 0 -61 45 -61 60 0 19 39 10 67 -16z m-957 6 c0
-16 -71 -75 -92 -76 -28 -2 -21 21 17 55 35 30 75 41 75 21z m-125 -45 c-45
-39 -83 -48 -65 -16 15 29 51 51 80 51 24 -1 23 -2 -15 -35z m575 -11 c0 -13
-4 -24 -10 -24 -5 0 -6 8 -3 18 6 15 5 15 -10 3 -18 -14 -20 -9 -11 27 5 18 9
20 20 11 8 -6 14 -22 14 -35z m267 9 c3 -7 -3 -9 -16 -6 -12 3 -21 10 -21 15
0 13 32 6 37 -9z m113 7 c11 -7 11 -10 2 -10 -7 0 -10 -4 -7 -10 9 -15 -21
-12 -34 3 -19 24 9 36 39 17z m-694 -15 c-11 -8 -22 -12 -25 -9 -6 6 19 24 34
24 6 -1 1 -7 -9 -15z m254 0 c0 -20 28 -75 38 -75 4 0 15 19 25 42 10 23 22
37 25 31 5 -7 36 -9 87 -7 182 10 212 4 302 -61 23 -16 57 -41 77 -55 19 -14
36 -34 36 -44 0 -25 42 -107 57 -113 7 -3 13 -11 13 -18 0 -7 6 -18 14 -25 8
-6 13 -17 10 -25 -9 -22 15 -92 41 -123 14 -17 25 -40 25 -52 0 -12 5 -31 12
-43 7 -12 13 -33 15 -47 1 -14 7 -54 13 -90 6 -36 10 -84 10 -106 0 -23 4 -63
10 -88 16 -75 29 -259 20 -307 -5 -28 -3 -58 6 -87 7 -25 10 -50 7 -55 -5 -9
-8 -42 -18 -227 -9 -154 -28 -300 -43 -327 -7 -12 -12 -42 -12 -67 0 -25 -4
-47 -9 -51 -5 -3 -17 -27 -27 -53 -10 -26 -26 -59 -36 -74 -10 -14 -18 -37
-18 -50 0 -14 -13 -40 -30 -58 -16 -18 -30 -38 -30 -44 0 -6 -21 -23 -46 -39
-25 -15 -48 -36 -51 -47 -3 -11 -12 -20 -20 -20 -8 0 -30 -15 -48 -33 -28 -28
-46 -36 -107 -46 -40 -7 -100 -17 -133 -23 -33 -6 -91 -12 -129 -14 -62 -3
-79 0 -151 31 -83 36 -123 43 -141 25 -7 -7 -19 -8 -37 -1 -31 12 -67 4 -46
-10 26 -16 0 -20 -30 -4 -22 11 -31 23 -31 40 0 30 4 31 37 5 15 -11 29 -18
32 -15 3 4 -1 10 -9 15 -43 27 -120 95 -125 111 -4 10 -19 26 -35 36 -28 16
-50 57 -50 92 0 9 -16 41 -35 71 -19 30 -35 65 -35 78 0 13 -10 47 -23 75 -29
65 -48 137 -41 163 3 10 0 57 -7 104 -11 87 -19 173 -18 223 0 15 0 46 0 70 1
23 -3 69 -8 102 -6 33 -8 114 -5 180 2 66 6 176 7 245 2 126 14 225 34 290 6
19 11 52 11 73 0 22 6 51 14 65 7 15 19 45 26 67 7 22 20 49 30 60 10 11 21
31 25 45 4 14 21 40 36 58 16 18 29 37 29 42 0 5 8 11 18 15 9 3 28 21 42 40
14 19 31 35 38 35 8 0 26 13 42 28 16 16 42 35 59 42 17 7 31 16 31 20 0 4 41
8 92 9 50 0 94 3 96 6 12 11 42 4 42 -10z m538 -5 c17 -11 32 -23 32 -26 0 -4
-7 -1 -15 6 -10 9 -15 9 -15 1 0 -18 -17 -13 -47 14 -25 22 -26 24 -8 25 11 0
35 -9 53 -20z m-850 -22 c-7 -10 -17 -19 -23 -19 -5 0 -20 -7 -32 -15 -34 -22
-28 -9 14 30 39 36 64 38 41 4z m954 -32 c21 -23 23 -36 5 -36 -18 0 -67 63
-67 86 0 8 35 -21 62 -50z m4 32 l19 -23 -25 20 c-14 11 -27 21 -29 22 -2 2 0
3 6 3 5 0 18 -10 29 -22z m43 7 c27 -13 47 -42 37 -52 -2 -3 -22 11 -43 31
-41 38 -39 45 6 21z m-1200 -40 c-39 -47 -60 -65 -78 -65 -47 0 -28 54 32 90
27 17 34 18 46 6 11 -12 11 -17 0 -31z m-79 17 c0 -5 -9 -17 -20 -27 -11 -10
-20 -28 -20 -41 0 -30 -10 -54 -22 -54 -5 0 -7 10 -3 23 6 22 6 22 -11 2 -16
-20 -16 -19 -9 5 14 45 85 122 85 92z m154 -9 c7 -18 -58 -93 -81 -93 -24 0
-13 44 19 77 36 37 53 41 62 16z m963 0 c30 -14 33 -17 17 -26 -13 -7 -20 -6
-29 7 -7 9 -20 16 -29 16 -9 0 -16 5 -16 10 0 14 17 12 57 -7z m249 -20 c15
-24 15 -26 1 -14 -15 12 -17 11 -17 -4 0 -24 -6 -17 -14 18 -3 15 -2 27 3 27
5 0 17 -12 27 -27z m-1179 -28 c-4 -8 -15 -18 -24 -22 -10 -3 -27 -13 -37 -22
-17 -15 -18 -15 -10 0 21 37 60 76 68 69 5 -5 6 -16 3 -25z m1122 9 c22 -27
28 -50 12 -39 -5 3 -11 -2 -13 -11 -2 -11 -10 -3 -25 24 -30 56 -12 74 26 26z
m-107 -11 c19 -17 25 -39 8 -28 -5 3 -10 1 -10 -6 0 -8 -4 -8 -15 1 -15 12
-21 50 -8 50 3 0 15 -7 25 -17z m60 -20 c0 -10 2 -23 2 -29 1 -6 7 -19 15 -28
7 -9 9 -16 3 -16 -15 0 -29 22 -37 58 -4 20 -3 32 4 32 6 0 12 -8 13 -17z
m128 -54 c0 -5 -8 -5 -17 -2 -16 6 -17 5 -3 -12 13 -16 13 -18 0 -13 -9 3 -16
20 -18 44 l-2 39 20 -24 c11 -13 20 -27 20 -32z m-1360 29 c0 16 17 15 23 -2
4 -9 -2 -12 -19 -10 -13 1 -24 -2 -24 -6 0 -11 -50 -70 -59 -70 -13 0 -10 42
5 66 17 25 54 36 66 19 5 -6 8 -5 8 3z m79 -22 c9 -11 6 -20 -14 -42 l-26 -29
6 25 c6 24 5 24 -9 6 -24 -30 -28 -14 -6 22 22 35 32 39 49 18z m-179 -21 c0
-7 -9 -23 -21 -36 -15 -17 -19 -19 -15 -6 8 25 -3 21 -15 -5 -8 -19 -9 -18 -4
11 3 19 10 40 16 47 12 15 39 8 39 -11z m1328 -4 c3 -8 0 -11 -7 -7 -15 10
-14 -7 2 -23 10 -11 9 -13 -3 -9 -8 3 -23 19 -33 36 l-18 31 27 -8 c15 -4 30
-13 32 -20z m86 -38 c18 -51 14 -67 -9 -37 -8 10 -15 14 -15 7 0 -6 7 -18 15
-27 9 -8 11 -17 6 -21 -16 -9 -32 32 -38 93 -6 51 -5 56 10 44 8 -7 23 -34 31
-59z m-1304 40 c0 -5 -5 -15 -10 -23 -7 -11 -12 -12 -21 -3 -6 6 -8 16 -5 22
8 12 36 15 36 4z m1404 -48 c18 -28 20 -39 6 -30 -14 9 -12 -18 3 -34 10 -11
10 -13 0 -7 -17 9 -16 -4 3 -49 8 -20 13 -44 11 -53 -3 -11 -5 -9 -6 7 -1 15
-6 21 -15 18 -18 -7 -39 59 -26 84 7 11 5 31 -4 58 -12 33 -13 39 -1 35 8 -3
21 -16 29 -29z m-150 -28 l7 -38 -21 21 c-17 17 -18 24 -9 41 13 25 15 24 23
-24z m104 31 c17 -17 15 -58 -3 -64 -11 -4 -12 -10 -6 -18 5 -6 14 -24 20 -38
8 -22 8 -26 -4 -21 -18 6 -20 -8 -3 -25 9 -9 9 -12 0 -12 -27 0 -51 92 -29
114 8 8 17 12 21 9 3 -4 6 -2 6 4 0 5 -9 18 -20 28 -11 10 -20 22 -20 27 0 12
24 10 38 -4z m-1658 -12 c0 -2 -7 -7 -16 -10 -8 -3 -12 -2 -9 4 6 10 25 14 25
6z m165 -43 c-14 -14 -18 -14 -26 -2 -6 10 -9 10 -9 2 0 -7 -7 -13 -15 -13
-17 0 -19 9 -6 29 5 8 16 11 24 8 9 -3 21 1 29 10 12 15 13 15 16 0 2 -10 -4
-24 -13 -34z m105 17 c-9 -17 -14 -19 -20 -10 -6 10 -9 9 -13 -1 -3 -9 -6 -10
-6 -2 -1 12 40 46 47 39 2 -3 -2 -14 -8 -26z m-69 -19 c-6 -11 -11 -30 -12
-43 0 -22 -1 -22 -8 -3 -7 16 -10 12 -15 -23 -4 -23 -12 -40 -16 -37 -5 3 -13
-3 -19 -12 -6 -11 -11 -13 -11 -5 0 18 28 72 56 105 13 16 24 36 25 45 0 10 3
12 5 5 3 -7 1 -21 -5 -32z m109 25 c0 -19 -37 -63 -45 -54 -4 3 3 20 16 37 26
35 29 37 29 17z m-70 -75 c0 -14 -5 -33 -10 -41 -8 -13 -10 -13 -10 -1 0 11
-4 9 -15 -5 -18 -24 -19 -7 -3 45 14 44 38 45 38 2z m1368 -10 c2 -15 0 -21
-7 -17 -6 4 -11 1 -11 -6 0 -21 -20 14 -20 35 0 27 34 17 38 -12z m-1500 -19
c3 -31 -11 -44 -21 -19 -3 6 -6 3 -6 -7 -1 -14 -4 -17 -11 -10 -13 13 8 76 24
71 6 -2 12 -18 14 -35z m1642 9 c6 -13 7 -28 1 -43 -9 -21 -10 -21 -11 -3 0
11 -3 30 -6 43 -8 27 2 29 16 3z m-1480 5 c0 -3 -4 -8 -10 -11 -5 -3 -10 -1
-10 4 0 6 5 11 10 11 6 0 10 -2 10 -4z m1328 -57 c13 -6 25 -59 12 -59 -5 0
-9 3 -9 8 1 4 1 14 0 22 -1 13 -2 13 -11 0 -7 -12 -12 -7 -25 22 -22 54 -20
81 4 42 11 -18 24 -33 29 -35z m-1403 -41 c-5 -21 -3 -28 9 -28 12 0 16 -10
16 -37 0 -28 -3 -34 -10 -23 -8 12 -10 10 -10 -10 0 -20 -2 -22 -10 -10 -5 8
-7 23 -4 32 4 12 0 15 -16 11 -11 -3 -20 -14 -20 -25 0 -10 -4 -17 -9 -13 -5
3 -12 -3 -14 -12 -3 -10 -5 0 -6 23 0 22 6 49 14 60 13 17 14 17 15 2 0 -10 6
-18 13 -18 20 0 25 9 19 33 -5 20 -6 20 -14 1 -6 -14 -7 -10 -6 16 2 46 7 53
24 39 10 -8 13 -22 9 -41z m1480 -6 c8 -31 -7 -59 -22 -40 -11 14 -33 74 -33
90 0 17 49 -27 55 -50z m-1435 37 c0 -6 -7 -17 -15 -25 -13 -14 -15 -13 -15 4
0 10 3 22 7 25 10 11 23 8 23 -4z m-162 -33 c2 -18 0 -26 -7 -21 -6 3 -11 -1
-11 -9 0 -9 -4 -16 -10 -16 -11 0 -14 63 -3 74 13 13 28 -1 31 -28z m40 -20
c-12 -28 -34 -37 -24 -10 3 9 6 27 6 41 0 22 2 23 15 9 12 -12 13 -20 3 -40z
m1590 4 c7 -18 7 -30 1 -30 -5 0 -9 -10 -9 -22 0 -41 -11 -10 -15 41 -4 55 6
60 23 11z m36 24 c8 -22 -4 -40 -15 -23 -11 18 -11 39 0 39 5 0 12 -7 15 -16z
m36 -37 c0 -10 -4 -15 -10 -12 -5 3 -10 18 -10 33 0 21 2 24 10 12 5 -8 10
-23 10 -33z m-1783 -25 c-20 -20 -37 -27 -67 -27 -22 0 -40 -3 -40 -7 0 -12
78 -10 85 2 29 46 29 -72 0 -175 -7 -27 -18 -86 -23 -130 -9 -79 -7 -513 2
-650 3 -38 5 -96 5 -127 0 -31 5 -66 11 -78 6 -11 12 -52 13 -90 2 -53 8 -77
25 -99 11 -16 24 -42 27 -57 17 -78 17 -77 0 -71 -8 4 -26 2 -39 -3 -15 -5
-27 -5 -34 2 -5 5 -22 8 -38 6 -23 -2 -30 -9 -32 -29 -2 -18 2 -26 12 -26 9 0
16 4 16 8 0 6 24 13 96 25 18 4 35 1 38 -5 5 -7 -3 -9 -22 -5 -19 4 -32 1 -37
-7 -6 -8 -4 -11 6 -7 24 9 79 -19 79 -40 0 -11 8 -30 18 -43 11 -13 22 -36 26
-51 3 -15 17 -44 31 -64 14 -20 25 -41 25 -45 0 -15 -18 -10 -37 10 -10 10
-35 24 -55 32 -33 11 -42 11 -73 -4 -29 -14 -35 -14 -35 -2 0 22 39 38 81 32
22 -3 39 -1 39 4 0 5 -7 9 -16 9 -9 0 -14 6 -11 13 3 8 2 18 -1 24 -12 17 -74
43 -101 42 -23 -1 -23 -2 6 -9 42 -10 85 -38 80 -53 -2 -6 -17 -14 -34 -18
-41 -8 -50 -15 -55 -44 -3 -13 -1 -22 3 -19 5 3 9 -3 9 -13 1 -17 1 -17 11 0
26 44 100 39 146 -10 12 -12 29 -23 38 -23 26 0 65 -31 65 -51 0 -23 -29 -39
-69 -39 -16 0 -33 -5 -37 -11 -4 -7 -35 -9 -93 -5 -47 3 -90 5 -94 6 -5 0 -5
25 -2 55 8 62 -10 105 -44 105 -15 0 -19 -7 -19 -36 0 -19 -2 -38 -5 -41 -3
-2 -5 412 -4 921 l2 925 40 -5 c29 -4 48 0 70 14 40 25 45 18 12 -16z m1659
-12 c20 -22 42 -40 49 -40 19 0 31 -80 14 -91 -17 -10 -27 12 -28 59 -1 30
-20 48 -22 20 0 -7 -4 -4 -9 7 -8 20 -9 20 -9 0 -1 -17 -3 -17 -15 -5 -14 14
-31 90 -21 90 3 0 21 -18 41 -40z m114 -28 c0 -13 -4 -20 -10 -17 -5 3 -10 2
-10 -4 0 -5 6 -11 13 -14 6 -2 9 -8 5 -12 -20 -21 -48 55 -33 92 6 17 7 17 21
-1 8 -11 14 -30 14 -44z m-1711 16 c-2 -22 -17 -64 -18 -50 -1 7 -5 10 -11 7
-6 -4 -10 7 -10 24 0 24 4 31 20 31 11 0 20 -6 19 -12z m45 4 c2 -4 1 -14 -5
-22 -5 -8 -9 -10 -10 -5 0 6 -4 1 -9 -10 -7 -17 -9 -15 -9 13 -1 30 20 45 33
24z m1700 -33 c9 -48 7 -66 -8 -72 -12 -5 -14 5 -13 49 2 60 11 70 21 23z
m-1634 -41 c0 -38 -3 -49 -10 -38 -8 12 -10 12 -11 -5 0 -14 -3 -11 -10 10 -6
21 -5 33 6 45 8 9 15 22 15 28 0 7 2 12 5 12 3 0 5 -24 5 -52z m-62 1 c-2 -6
-7 -10 -12 -9 -5 1 -13 -4 -17 -12 -7 -10 -9 -9 -9 4 0 15 12 25 33 27 5 1 7
-4 5 -10z m1572 -18 c0 -38 -16 -48 -30 -20 -14 25 -6 49 15 49 10 0 15 -10
15 -29z m-1650 -6 c11 -29 24 -34 15 -6 -3 11 -1 22 5 26 5 3 10 0 10 -8 0 -8
7 -28 15 -43 8 -16 15 -45 14 -64 0 -19 -3 -29 -6 -22 -2 6 -8 10 -13 7 -4 -3
-8 1 -7 8 1 38 -5 57 -18 57 -8 0 -15 -8 -16 -17 0 -13 -2 -14 -6 -4 -5 11 -7
11 -14 0 -6 -9 -9 5 -9 39 0 55 14 69 30 27z m1739 -66 c1 -26 -3 -36 -15 -36
-13 0 -15 7 -10 36 3 20 6 45 7 56 l0 20 9 -20 c5 -11 9 -36 9 -56z m-1645 -1
c-1 -29 -3 -56 -3 -60 -1 -5 -6 -8 -12 -8 -6 0 -9 6 -6 13 3 7 2 32 -3 55 -4
25 -3 45 3 51 18 18 24 3 21 -51z m1686 32 c0 -5 -4 -10 -10 -10 -5 0 -10 5
-10 10 0 6 5 10 10 10 6 0 10 -4 10 -10z m-1620 -41 c0 -16 -4 -29 -10 -29 -5
0 -10 -8 -10 -17 -1 -15 -2 -16 -9 -3 -5 8 -11 27 -15 43 -5 20 -3 27 9 27 8
0 15 5 15 11 0 5 5 7 10 4 6 -3 10 -19 10 -36z m1655 -26 c5 -31 3 -43 -5 -43
-8 0 -11 -10 -8 -25 6 -31 -10 -33 -16 -2 -4 18 -2 96 3 132 3 19 19 -20 26
-62z m-155 17 c0 -31 -3 -38 -15 -34 -8 4 -15 18 -15 34 0 24 6 32 28 39 1 1
2 -17 2 -39z m107 -12 c-3 -7 -5 -2 -5 12 0 14 2 19 5 13 2 -7 2 -19 0 -25z
m-61 -43 c4 -37 3 -46 -5 -35 -9 13 -11 12 -11 -4 0 -38 -12 -6 -15 40 -6 85
21 84 31 -1z m-1724 -28 c1 -31 0 -57 -4 -57 -5 0 -8 8 -8 18 0 14 -2 15 -10
2 -7 -11 -10 -2 -10 32 0 96 26 101 32 5z m52 -21 c-6 -27 -8 -29 -15 -11 -7
18 -8 18 -8 2 -1 -10 -5 -15 -11 -12 -11 7 -13 58 -4 93 6 23 7 22 26 -9 14
-23 17 -40 12 -63z m95 -9 c1 -22 -4 -40 -12 -43 -8 -3 -11 -17 -9 -41 3 -25
1 -34 -7 -29 -6 4 -11 2 -11 -4 0 -6 -5 -8 -11 -5 -6 4 -8 13 -5 21 3 8 1 14
-4 14 -6 0 -10 8 -11 18 0 15 -1 15 -8 -2 -16 -41 -24 6 -10 62 l13 55 12 -34
c7 -19 13 -47 14 -64 1 -25 3 -27 9 -10 5 11 6 36 3 56 -2 20 1 47 8 60 13 23
13 23 21 4 4 -11 8 -37 8 -58z m1631 26 c0 -26 -3 -34 -9 -24 -7 11 -10 9 -13
-10 -4 -20 -6 -17 -12 15 -7 29 -5 40 5 47 24 15 29 10 29 -28z m-85 -49 c3
-21 3 -33 -1 -26 -3 6 -10 10 -15 6 -5 -3 -9 14 -9 37 0 53 18 41 25 -17z
m125 -33 c0 -27 -4 -38 -15 -38 -11 0 -15 11 -15 37 0 20 3 40 6 43 14 13 24
-5 24 -42z m33 -13 c4 -29 3 -55 -2 -58 -5 -3 -11 -14 -13 -25 -3 -11 -5 15
-5 58 0 88 11 102 20 25z m-1867 -27 c-1 -46 -16 -87 -16 -45 0 16 -2 17 -10
4 -7 -11 -10 -2 -10 32 0 59 8 82 25 68 7 -5 11 -31 11 -59z m1765 47 c11 -14
18 -39 18 -63 0 -34 -1 -37 -10 -21 -9 15 -13 16 -20 5 -7 -12 -9 -11 -10 1 0
8 -2 34 -4 58 -4 48 0 51 26 20z m-1717 -10 c3 -13 5 -41 5 -63 0 -31 -2 -36
-9 -20 -8 18 -9 18 -9 2 -1 -10 -5 -15 -11 -12 -11 7 -14 98 -3 108 12 12 21
7 27 -15z m1659 -32 c-3 -4 -9 -2 -14 5 -13 22 -11 31 5 17 8 -7 12 -17 9 -22z
m-1537 -102 c-9 -23 -24 -15 -28 15 -2 16 2 37 9 47 7 10 14 29 15 43 1 14 3
0 5 -33 2 -32 2 -65 -1 -72z m-82 70 c3 -9 6 -32 5 -52 0 -20 -3 -31 -6 -23
-5 11 -7 11 -14 0 -6 -9 -9 5 -9 39 0 50 12 68 24 36z m1655 -68 c-9 -8 -10
-7 -5 2 4 6 2 12 -3 12 -6 0 -11 -10 -12 -22 0 -22 -1 -22 -9 -3 -11 25 -12
79 -3 89 4 3 15 -10 25 -31 14 -28 15 -40 7 -47z m70 -59 c1 -19 -3 -26 -10
-21 -8 5 -10 -1 -7 -20 6 -28 -6 -36 -16 -10 -11 28 -6 124 7 144 11 19 13 17
19 -22 3 -24 7 -56 7 -71z m-1679 53 c14 -57 8 -97 -15 -97 -13 0 -15 14 -14
74 1 40 5 73 9 73 5 0 13 -23 20 -50z m-122 -22 c-2 -11 -11 -22 -20 -24 -14
-2 -18 5 -18 28 0 37 33 69 38 37 2 -10 2 -29 0 -41z m1824 50 c7 -18 -2 -39
-13 -32 -12 7 -12 44 0 44 5 0 11 -6 13 -12z m-1782 -25 c0 -9 6 -24 14 -32
20 -22 38 -136 26 -164 -8 -21 -9 -21 -10 -2 0 17 -2 18 -11 5 -8 -11 -9 5 -6
57 3 56 1 73 -10 77 -8 3 -11 1 -8 -4 3 -6 2 -10 -3 -10 -13 0 -24 47 -17 71
8 23 25 25 25 2z m1822 -32 c-4 -10 -8 -8 -14 8 -4 13 -5 28 -1 34 9 14 22
-23 15 -42z m-158 -10 c17 -19 17 -20 -3 -31 -19 -10 -21 -8 -21 20 0 35 1 36
24 11z m-1553 -110 c-3 -23 -10 -41 -16 -41 -14 1 -27 54 -15 58 6 2 13 22 17
45 7 42 7 42 13 11 4 -17 4 -50 1 -73z m-116 -5 c2 -25 0 -48 -5 -51 -6 -3
-10 6 -11 22 l-1 28 -8 -25 -7 -25 -12 28 c-14 36 -14 59 1 92 l12 26 13 -25
c7 -14 15 -45 18 -70z m1720 40 c6 -36 3 -48 -13 -64 l-21 -21 0 62 c1 34 3
65 6 69 9 17 22 -4 28 -46z m77 -22 c-7 -13 -11 -9 -16 21 -5 27 -4 40 6 46
16 10 24 -42 10 -67z m-1864 23 c4 -29 -12 -37 -22 -11 -10 26 -7 46 7 42 6
-3 13 -17 15 -31z m1899 -94 c-2 -16 -4 -5 -4 22 0 28 2 40 4 28 2 -13 2 -35
0 -50z m-159 -28 c1 -31 -1 -35 -8 -20 -5 11 -8 40 -8 65 0 37 1 41 8 20 4
-14 8 -43 8 -65z m-1573 -68 c3 -26 10 -45 15 -42 13 8 24 -55 12 -67 -7 -7
-13 1 -17 25 -5 26 -11 34 -22 30 -11 -4 -11 -8 -3 -13 7 -4 13 -27 15 -51 1
-24 0 -32 -2 -16 -4 24 -6 25 -19 13 -8 -8 -15 -23 -15 -33 -1 -10 -5 0 -9 22
-7 39 9 85 31 85 5 0 9 5 9 10 0 6 -7 10 -15 10 -12 0 -15 14 -14 73 0 71 0
72 14 37 7 -19 16 -56 20 -83z m1675 37 c0 -35 -4 -64 -9 -64 -15 0 -19 11
-26 77 -7 60 -7 62 14 56 19 -5 21 -13 21 -69z m-1820 41 c0 -14 -4 -25 -10
-25 -5 0 -10 -10 -11 -22 -1 -16 -4 -12 -10 12 -10 42 -5 60 16 60 9 0 15 -9
15 -25z m1860 4 c0 -6 -7 -17 -15 -25 -13 -14 -15 -13 -15 10 0 16 6 26 15 26
8 0 15 -5 15 -11z m-1807 -31 c3 -18 1 -37 -4 -42 -6 -6 -9 -4 -10 5 -1 7 -4
3 -9 -11 -7 -24 -7 -23 -15 12 -8 44 -2 68 19 68 8 0 16 -13 19 -32z m104 0
c-3 -8 -6 -5 -6 6 -1 11 2 17 5 13 3 -3 4 -12 1 -19z m1613 -2 c0 -13 -3 -32
-6 -41 -6 -14 -8 -14 -20 3 -15 22 -8 62 12 62 8 0 14 -10 14 -24z m-1670 -41
c0 -20 -6 -35 -15 -39 -12 -4 -15 3 -15 33 0 21 3 41 6 44 13 13 24 -5 24 -38z
m-89 -37 c7 -13 9 -41 5 -72 -3 -29 -2 -45 3 -38 10 17 21 -33 20 -87 -1 -33
-2 -34 -9 -11 -7 21 -8 22 -9 5 -1 -16 -3 -17 -11 -5 -5 8 -8 40 -8 72 1 62
-7 82 -22 58 -11 -17 -14 40 -4 78 8 28 20 28 35 0z m1720 0 c2 -40 -3 -83 -9
-90 -4 -4 -8 20 -10 53 -1 34 2 59 8 59 5 0 10 -10 11 -22z m106 -46 c-16 -20
-20 -6 -12 35 l8 38 7 -30 c3 -16 2 -36 -3 -43z m-37 -47 c0 -59 -8 -95 -22
-95 -6 0 -8 9 -5 21 4 13 1 19 -6 16 -14 -5 -16 96 -3 126 8 17 9 17 22 0 7
-10 13 -40 14 -68z m72 8 c-10 -30 -17 -9 -13 35 5 46 5 47 11 12 3 -19 4 -41
2 -47z m-1793 18 c6 -19 11 -48 10 -65 l0 -31 -11 25 -11 25 -6 -25 -7 -25 -7
25 c-14 50 -4 132 13 113 4 -4 12 -23 19 -42z m1661 -93 c0 -61 -9 -100 -20
-93 -5 3 -6 15 -3 28 5 22 5 22 -10 2 -16 -19 -16 -18 -17 18 0 40 24 97 40
97 6 0 10 -24 10 -52z m100 28 c0 -8 -7 -19 -15 -26 -16 -13 -18 -8 -9 27 6
23 24 22 24 -1z m-1853 -43 c-3 -10 -5 -2 -5 17 0 19 2 27 5 18 2 -10 2 -26 0
-35z m138 -2 c3 -10 6 -35 7 -55 1 -20 6 -36 11 -36 5 0 7 12 4 26 -2 14 -1
22 4 17 5 -5 12 -30 15 -56 6 -41 5 -47 -10 -41 -9 3 -16 14 -16 24 0 10 -6
23 -14 29 -21 17 -27 -22 -14 -81 8 -35 9 -51 1 -59 -14 -14 -37 28 -47 84 -8
45 0 63 20 46 13 -10 14 -5 10 40 -5 52 0 81 14 81 5 0 11 -8 15 -19z m55 -11
c0 -16 -4 -30 -10 -30 -5 0 -10 14 -10 30 0 17 5 30 10 30 6 0 10 -13 10 -30z
m-100 -21 c0 -11 -4 -17 -10 -14 -5 3 -10 15 -10 26 0 11 5 17 10 14 6 -3 10
-15 10 -26z m1772 -60 c-8 -28 -11 -31 -17 -16 -4 10 -1 39 6 65 13 45 14 46
17 16 2 -18 -1 -47 -6 -65z m-32 23 c0 -7 -4 -10 -10 -7 -5 3 -10 16 -10 28 0
18 2 19 10 7 5 -8 10 -21 10 -28z m-35 -45 c0 -43 -5 -71 -14 -79 -11 -11 -12
-9 -6 12 5 17 4 22 -3 15 -5 -5 -13 -19 -16 -30 -3 -11 -3 16 0 60 7 87 10 98
27 92 8 -2 12 -29 12 -70z m-1740 2 c4 -22 4 -43 1 -46 -3 -4 -6 -1 -6 5 0 7
-6 12 -14 12 -13 0 -26 28 -26 58 0 6 9 12 19 12 15 0 21 -10 26 -41z m1951 6
c-11 -8 -23 -15 -27 -15 -16 0 -30 -57 -20 -82 5 -14 7 -29 4 -32 -4 -3 -1 -6
5 -6 15 0 15 20 2 55 -8 20 -6 29 10 45 19 19 40 26 40 14 0 -3 -7 -12 -15
-20 -8 -9 -15 -32 -15 -52 0 -25 -8 -45 -27 -66 l-28 -30 35 26 c30 22 35 32
36 67 2 70 14 59 14 -12 0 -65 -1 -67 -26 -67 -19 0 -28 -7 -35 -29 -8 -23
-15 -27 -34 -23 -15 2 -25 0 -25 -7 0 -6 12 -12 28 -12 l27 -2 -27 -4 c-40 -6
-36 -33 5 -35 l32 -1 -32 -4 c-25 -3 -33 -9 -33 -24 0 -10 7 -19 15 -19 9 0
12 6 8 16 -4 12 -1 15 13 12 16 -3 19 -14 22 -76 2 -55 6 -72 17 -72 12 0 15
14 13 73 -2 57 0 72 11 72 8 0 16 -6 19 -13 2 -7 -2 -10 -12 -6 -9 3 -16 1
-16 -5 0 -6 7 -11 16 -11 13 0 15 -12 13 -75 -3 -60 -6 -75 -19 -75 -12 0 -12
-2 -2 -9 21 -13 -13 -22 -42 -11 -14 5 -47 6 -75 1 -35 -6 -51 -5 -51 3 0 6
-9 0 -20 -14 -14 -18 -22 -22 -30 -14 -14 14 0 52 27 77 21 18 81 26 101 13 7
-4 12 -1 12 8 0 8 -9 18 -20 21 -31 10 -52 49 -49 92 1 21 -3 49 -8 63 -8 19
-7 26 3 28 8 2 14 14 14 28 0 28 32 64 58 64 27 0 33 10 21 32 -22 41 22 128
64 128 22 -1 22 -1 3 -15z m-1809 -42 c-3 -10 -5 -2 -5 17 0 19 2 27 5 18 2
-10 2 -26 0 -35z m1543 17 c0 -19 -5 -30 -14 -30 -8 0 -17 -10 -19 -22 -3 -13
-3 -3 -1 21 3 37 15 60 32 61 1 0 2 -13 2 -30z m92 -25 c-2 -14 -10 -25 -17
-25 -8 0 -10 9 -7 25 2 14 10 25 17 25 8 0 10 -9 7 -25z m-1792 -32 c6 -7 13
-27 15 -45 3 -18 3 -27 -1 -20 -3 6 -10 10 -14 7 -5 -3 -16 18 -25 47 -18 63
-18 69 0 43 8 -11 19 -26 25 -32z m1805 -53 l-14 -55 5 50 c7 61 17 97 21 75
1 -8 -4 -40 -12 -70z m-1678 12 c7 -20 12 -46 12 -57 0 -18 -1 -18 -10 3 -5
13 -13 20 -19 17 -6 -4 -10 12 -10 41 0 53 7 52 27 -4z m-67 -19 c0 -26 -16
-12 -27 24 l-11 37 19 -24 c10 -14 19 -31 19 -37z m96 25 c4 -18 9 -44 9 -58
1 -14 5 -34 10 -45 6 -16 5 -18 -5 -8 -7 6 -16 33 -21 60 -5 26 -12 56 -15 66
-3 9 -1 17 5 17 5 0 13 -15 17 -32z m1534 -52 c-6 -31 -16 -59 -22 -62 -7 -5
-9 0 -6 14 4 12 2 22 -3 22 -5 0 -9 -7 -9 -17 0 -9 -3 -14 -6 -10 -12 12 7 77
28 97 12 11 23 18 26 16 2 -3 -1 -29 -8 -60z m44 22 c-23 -75 -39 -93 -28 -30
8 44 12 52 25 52 6 0 7 -9 3 -22z m-1631 -41 c19 -48 24 -83 7 -57 -9 13 -10
13 -11 0 -1 -25 -28 43 -29 73 0 39 12 33 33 -16z m1671 8 c-5 -20 -9 -23 -15
-13 -7 10 -9 9 -9 -4 0 -10 -5 -18 -11 -18 -14 0 -1 42 19 57 20 17 24 11 16
-22z m-1787 -7 c-3 -8 -6 -5 -6 6 -1 11 2 17 5 13 3 -3 4 -12 1 -19z m72 -66
c0 -13 -3 -21 -8 -18 -5 4 -11 0 -14 -6 -2 -7 -10 6 -17 30 -12 39 -12 44 6
57 17 12 20 11 25 -13 4 -15 7 -37 8 -50z m1921 39 c0 -5 -9 -7 -20 -4 -11 3
-20 7 -20 9 0 2 9 4 20 4 11 0 20 -4 20 -9z m-1821 -23 c5 -13 5 -27 0 -32
-11 -12 -15 -8 -23 27 -8 33 11 37 23 5z m-39 -96 c0 -13 -4 -20 -10 -17 -5 3
-10 0 -10 -7 -1 -31 -22 27 -25 68 l-3 45 24 -33 c13 -17 24 -43 24 -56z
m1593 56 c-7 -39 -42 -109 -43 -88 0 9 -6 5 -15 -10 -16 -28 -20 -13 -6 22 5
13 14 42 20 66 9 31 17 42 31 42 17 0 19 -5 13 -32z m254 26 c-3 -3 -12 -4
-19 -1 -8 3 -5 6 6 6 11 1 17 -2 13 -5z m-1821 -41 c3 -10 10 -27 14 -38 13
-31 22 -65 16 -65 -8 0 -44 64 -51 93 -8 30 12 39 21 10z m1504 -5 c0 -13 -4
-27 -8 -33 -11 -15 -32 -17 -32 -2 0 29 13 57 26 57 8 0 14 -10 14 -22z m100
13 c0 -5 -7 -14 -15 -21 -13 -10 -15 -9 -15 9 0 12 6 21 15 21 8 0 15 -4 15
-9z m220 -3 c0 -4 -7 -8 -15 -8 -8 0 -15 4 -15 8 0 5 7 9 15 9 8 0 15 -4 15
-9z m-1757 -50 c23 -50 31 -82 19 -74 -6 3 -12 0 -15 -6 -7 -21 -16 -5 -31 53
-20 77 -4 93 27 27z m-139 -14 c30 -54 30 -54 14 -54 -16 0 -58 61 -58 83 0
30 18 18 44 -29z m1666 -18 c-7 -22 -16 -33 -25 -30 -8 3 -16 -4 -20 -16 -4
-12 -9 -19 -12 -16 -10 10 19 76 33 76 8 0 17 7 21 15 11 31 15 5 3 -29z m66
-37 c12 -10 8 -16 -27 -36 -52 -29 -54 -29 -29 5 12 16 25 49 28 73 l7 44 3
-37 c2 -20 10 -42 18 -49z m-1648 4 c10 -28 13 -63 4 -63 -3 0 -11 8 -18 18
-15 19 -19 72 -5 72 5 0 13 -12 19 -27z m-264 3 c-21 -15 -30 -14 -19 3 3 6
14 11 23 11 13 0 13 -2 -4 -14z m1736 0 c0 -2 -7 -21 -16 -42 -15 -34 -18 -37
-25 -19 -4 11 -8 14 -8 6 -1 -8 -4 -12 -7 -9 -7 7 14 50 30 60 12 8 26 10 26
4z m-1551 -64 c5 -18 7 -32 5 -32 -5 0 -34 65 -34 77 0 16 21 -16 29 -45z
m1591 43 c0 -2 -10 -10 -22 -16 -21 -11 -22 -11 -9 4 13 16 31 23 31 12z
m-1537 -60 c32 -54 32 -54 10 -51 -26 4 -69 96 -45 96 4 0 19 -20 35 -45z m91
23 c8 -13 17 -34 21 -48 7 -22 6 -23 -9 -11 -13 11 -16 11 -16 0 0 -8 -6 -5
-15 7 -16 21 -20 74 -5 74 5 0 16 -10 24 -22z m1486 6 c0 -12 -53 -74 -64 -74
-6 0 -3 5 7 11 12 7 16 17 12 30 -4 10 -3 23 0 29 6 10 45 14 45 4z m-1518
-64 c9 -17 13 -30 8 -30 -10 0 -50 49 -50 61 0 17 25 -2 42 -31z m108 -26 c0
-8 -2 -14 -4 -14 -7 0 -46 66 -46 76 1 15 50 -46 50 -62z m1400 14 c-6 -20
-18 -42 -27 -49 -14 -12 -15 -11 -8 11 8 25 8 25 -14 6 -35 -32 -24 -9 17 32
20 21 38 38 39 37 1 0 -2 -17 -7 -37z m-126 -7 c-9 -34 -13 -41 -25 -41 -6 0
-7 9 -3 22 6 21 5 22 -11 8 -17 -14 -17 -14 -1 17 20 40 49 36 40 -6z m56 20
c0 -11 -4 -23 -10 -26 -6 -4 -7 1 -3 12 6 16 5 16 -10 4 -18 -14 -20 -12 -11
13 9 23 34 20 34 -3z m290 -20 c0 -5 -9 -12 -19 -16 -29 -9 -34 -34 -10 -43
20 -8 20 -9 -5 -20 -14 -6 -26 -16 -26 -22 0 -13 1 -13 44 5 37 15 56 13 56
-6 0 -6 -8 -8 -19 -4 -10 3 -28 -2 -41 -13 l-23 -19 27 -7 c24 -6 25 -8 12
-21 -8 -8 -28 -15 -45 -15 -35 0 -40 -19 -19 -65 9 -21 18 -25 54 -25 29 0 44
-5 48 -16 9 -24 7 -46 -3 -39 -13 7 -26 -16 -14 -24 14 -9 23 -87 11 -99 -6
-6 -17 -8 -24 -5 -9 3 -14 -1 -14 -11 0 -9 -10 -27 -23 -40 -18 -18 -22 -31
-19 -58 5 -44 -24 -68 -81 -68 -33 0 -38 3 -32 18 3 9 9 31 11 47 5 28 4 29
-10 11 -17 -21 -36 -14 -29 13 6 23 -25 54 -48 48 -12 -3 -19 0 -19 10 0 8 -4
12 -9 9 -18 -12 1 -45 30 -51 23 -5 28 -11 24 -25 -4 -12 2 -24 16 -33 31 -22
21 -51 -19 -55 -42 -4 -84 21 -75 45 4 11 3 14 -5 9 -7 -4 -12 -1 -12 8 0 9
-4 16 -10 16 -5 0 -10 -5 -10 -10 0 -19 30 -70 41 -70 6 0 8 -9 4 -20 -4 -11
1 -34 9 -52 18 -34 15 -44 -9 -34 -11 4 -14 13 -9 31 5 19 2 25 -10 25 -9 0
-16 -6 -16 -14 0 -21 -17 -29 -46 -22 -17 5 -24 13 -24 31 0 30 -10 32 -33 5
-9 -11 -23 -17 -32 -14 -21 8 -19 21 5 27 16 4 19 13 17 51 -2 50 -6 52 -40
34 -30 -17 -38 -30 -31 -50 3 -10 1 -18 -4 -18 -15 0 -31 25 -38 59 -6 26 -2
37 19 59 15 15 32 42 38 60 9 26 8 34 -6 48 -17 18 -17 18 -33 -11 -10 -18
-11 -16 -12 14 0 25 9 42 38 71 38 40 84 115 75 124 -3 3 -14 1 -25 -5 -17 -9
-19 -8 -16 7 2 11 17 22 36 28 34 9 44 36 14 36 -19 0 -42 18 -42 32 0 4 16
25 35 47 34 38 36 38 82 30 26 -5 58 -17 72 -26 l26 -18 -24 -3 c-13 -2 -28 1
-34 7 -14 14 -67 14 -67 1 0 -5 8 -10 18 -10 26 0 34 -11 21 -26 -17 -20 -3
-44 26 -44 29 0 29 0 13 -35 -9 -20 -18 -25 -49 -25 -28 0 -41 -5 -49 -20 -6
-11 -22 -31 -35 -44 -30 -30 -31 -46 -5 -76 24 -27 26 -42 5 -34 -23 9 -19
-23 4 -36 30 -15 31 -14 31 35 0 38 -3 45 -20 45 -23 0 -27 18 -5 26 8 4 15
10 15 16 0 5 -5 6 -11 2 -7 -4 -10 -2 -7 6 2 7 19 18 38 24 19 7 34 17 33 24
-2 7 8 12 23 12 21 0 24 -3 19 -20 -7 -21 9 -50 27 -50 7 0 7 4 0 13 -16 19
-9 75 12 90 16 12 17 17 6 36 -16 31 -1 45 35 31 23 -9 26 -8 21 5 -4 12 0 14
21 9 26 -7 26 -7 10 17 -21 30 -22 60 -1 85 15 18 15 18 10 0 -8 -22 1 -56 15
-56 5 0 9 10 9 23 0 13 7 32 16 43 15 18 15 18 9 -3 -4 -13 -2 -23 4 -23 9 0
21 26 20 45 0 5 8 12 18 16 26 11 73 10 73 0z m54 -7 c5 -14 4 -15 -9 -4 -17
14 -19 20 -6 20 5 0 12 -7 15 -16z m-1835 -36 l11 -33 -20 24 c-11 13 -20 30
-20 38 0 23 17 6 29 -29z m157 0 c25 -38 39 -78 27 -78 -34 0 -91 88 -70 109
14 14 10 17 43 -31z m1657 -4 c-6 -17 -8 -17 -35 -3 -21 11 -21 12 -3 25 22
16 47 1 38 -22z m-1760 -4 c3 -11 1 -18 -3 -15 -5 3 -10 -1 -13 -7 -3 -8 -9
-3 -15 12 -6 17 -6 27 1 32 15 9 23 2 30 -22z m37 16 c0 -2 3 -12 6 -20 4 -12
2 -15 -9 -10 -21 8 -30 34 -12 34 8 0 15 -2 15 -4z m1380 -6 c0 -5 -5 -10 -11
-10 -5 0 -7 5 -4 10 3 6 8 10 11 10 2 0 4 -4 4 -10z m106 -25 c-6 -19 -14 -31
-18 -27 -8 8 12 62 23 62 3 0 1 -16 -5 -35z m261 3 c-3 -8 -6 -5 -6 6 -1 11 2
17 5 13 3 -3 4 -12 1 -19z m-1668 -95 c6 -13 8 -23 3 -23 -15 0 -64 69 -57 80
7 11 32 -17 54 -57z m-415 18 c10 -19 12 -31 5 -38 -11 -11 -15 -65 -6 -80 7
-12 -3 -26 -28 -42 -19 -11 -19 -12 4 -5 16 4 21 3 17 -5 -4 -6 -16 -11 -27
-11 -16 0 -19 7 -19 45 0 26 7 60 16 77 9 17 14 44 12 59 -6 37 7 37 26 0z
m306 14 c0 -8 -4 -15 -9 -15 -13 0 -22 16 -14 24 11 11 23 6 23 -9z m67 -111
c4 -25 1 -40 -13 -55 -17 -19 -19 -19 -31 -3 -11 16 -13 13 -13 -20 l0 -38 43
6 c39 6 48 3 83 -25 21 -17 38 -37 38 -45 -1 -7 1 -12 5 -11 3 1 16 -7 28 -18
l22 -21 -37 3 c-36 3 -36 2 -8 -7 67 -21 92 -77 66 -144 -5 -14 -6 -26 -1 -26
24 0 28 115 6 147 -15 21 -14 21 18 11 17 -6 38 -13 46 -15 11 -3 9 -8 -7 -19
-12 -8 -22 -22 -22 -30 0 -10 5 -9 20 6 22 22 37 25 59 11 10 -7 10 -10 1 -16
-7 -4 -16 -2 -20 5 -6 9 -13 7 -29 -9 -11 -11 -21 -27 -20 -33 0 -7 7 -3 16 9
19 28 38 31 23 4 -12 -24 -13 -31 -1 -31 5 0 11 9 14 20 3 11 10 20 15 20 14
0 2 -43 -16 -57 -14 -12 -14 -13 1 -13 19 0 28 17 31 55 1 27 6 28 55 19 17
-4 31 -13 31 -21 0 -8 4 -12 9 -8 6 3 15 -4 21 -15 14 -27 -10 -75 -50 -95
-33 -17 -96 -20 -105 -5 -3 6 4 10 18 10 45 0 85 12 106 32 22 20 29 58 10 58
-6 0 -9 -7 -5 -15 11 -30 -30 -55 -88 -55 -61 0 -71 -11 -60 -65 7 -39 -6 -49
-80 -59 -33 -5 -46 -4 -41 3 3 6 15 11 26 11 27 0 59 18 59 32 0 9 -3 9 -12 0
-20 -20 -65 -14 -82 10 -20 28 -35 14 -17 -15 13 -20 13 -21 -2 -8 -10 7 -17
22 -17 32 0 11 -5 19 -11 19 -5 0 -7 4 -4 10 3 5 16 10 28 10 12 0 33 9 47 20
30 24 19 26 -15 4 -15 -10 -38 -15 -60 -12 -19 2 -35 3 -35 1 0 -1 5 -14 12
-29 11 -23 10 -28 -7 -40 -30 -22 -43 -16 -15 7 25 20 25 20 2 14 -13 -4 -29
-2 -37 5 -8 6 -16 7 -19 2 -3 -6 1 -13 9 -16 13 -5 12 -10 -7 -31 -27 -32 -54
-35 -38 -4 7 11 9 23 6 26 -3 3 -8 -2 -12 -11 -8 -21 -38 -21 -55 0 -11 13
-11 17 1 25 8 4 21 13 29 18 13 9 20 46 26 146 2 28 7 64 10 82 6 27 10 30 28
24 23 -9 117 24 117 40 0 14 -18 11 -45 -7 -29 -19 -91 -10 -108 17 -16 26
-25 24 -20 -4 4 -18 0 -23 -18 -24 -44 -4 -54 -26 -40 -88 7 -30 17 -55 22
-55 11 0 11 7 0 48 -8 25 -7 32 4 32 8 0 21 12 29 28 14 24 15 25 16 6 0 -12
-6 -27 -14 -33 -10 -9 -11 -22 -5 -57 9 -46 -1 -84 -22 -84 -6 0 -6 7 1 19 13
26 -3 36 -29 19 -16 -10 -23 -10 -33 0 -18 18 -38 15 -38 -7 0 -11 9 -21 21
-24 33 -9 12 -27 -32 -27 -52 0 -102 26 -96 49 5 19 -13 39 -30 34 -7 -3 -10
4 -6 19 4 19 3 20 -7 8 -9 -12 -11 -10 -7 13 2 15 0 27 -5 27 -6 0 -7 7 -4 16
3 8 2 12 -4 9 -6 -3 -7 -18 -4 -33 4 -15 4 -24 0 -21 -4 4 -8 20 -11 37 -2 17
-6 36 -9 41 -3 5 0 11 8 14 7 3 16 22 18 41 4 36 -2 42 -41 37 -7 -2 -11 4 -9
11 3 8 22 13 49 14 57 1 66 -3 73 -32 6 -23 26 -34 26 -14 0 6 5 10 10 10 6 0
10 -7 10 -15 0 -8 4 -15 10 -15 5 0 7 7 3 16 -5 14 -3 15 16 5 12 -7 26 -9 31
-6 6 3 10 2 10 -3 0 -5 11 -9 25 -9 40 0 84 74 55 92 -6 3 -11 -6 -11 -22 l-2
-28 -4 28 c-3 15 -11 27 -19 27 -10 0 -13 -8 -9 -27 l5 -28 -11 25 c-11 24
-11 24 -19 5 -5 -11 -9 -15 -9 -9 -1 6 -25 11 -56 11 -30 0 -52 -3 -49 -8 3
-5 0 -9 -6 -9 -6 0 -13 6 -16 14 -3 8 -11 13 -19 10 -9 -4 -11 2 -8 20 3 14 9
23 15 20 16 -10 140 -13 165 -3 15 6 31 5 43 -1 13 -7 20 -6 23 3 3 7 9 2 16
-13 11 -24 11 -24 7 6 -4 26 -1 33 14 37 22 6 26 41 11 94 -5 17 -6 34 -3 37
8 9 42 -69 49 -110z m108 96 c10 -11 16 -20 13 -20 -3 0 -13 9 -23 20 -10 11
-16 20 -13 20 3 0 13 -9 23 -20z m1586 1 c13 -11 22 -22 19 -24 -3 -3 -18 6
-35 19 -16 13 -25 24 -19 24 7 0 22 -9 35 -19z m-1604 -13 c28 -32 40 -53 23
-43 -10 6 -12 4 -7 -9 6 -14 2 -17 -16 -14 -13 2 -23 11 -24 23 -1 11 -5 30
-9 43 -3 12 -2 22 3 22 5 0 19 -10 30 -22z m1093 -17 c0 -11 -71 -71 -84 -71
-4 0 -3 6 3 13 6 8 8 17 5 20 -4 3 9 15 27 26 37 23 49 26 49 12z m-1072 -70
c13 5 22 17 22 29 0 11 4 20 8 20 14 0 46 -39 39 -47 -4 -3 -1 -13 5 -22 10
-12 8 -12 -8 2 -26 21 -41 22 -23 1 15 -19 21 -44 9 -44 -4 0 -20 10 -35 22
-16 12 -37 24 -48 25 -17 3 -18 1 -7 -14 7 -10 -6 1 -29 24 -57 58 -56 92 2
36 35 -34 46 -40 65 -32z m1596 10 c-7 -7 -34 21 -34 36 0 10 6 8 19 -8 11
-13 18 -26 15 -28z m-41 3 c26 -20 47 -44 47 -53 0 -11 -4 -10 -16 7 -13 19
-22 21 -49 16 -19 -3 -35 -1 -39 5 -4 6 0 11 8 11 24 0 19 18 -6 22 -27 4 -36
28 -10 28 10 0 40 -16 65 -36z m-522 -37 c-14 -15 -21 -17 -21 -8 0 21 33 56
38 41 3 -7 -5 -22 -17 -33z m-1097 -13 c9 -24 7 -28 -9 -14 -17 14 -20 30 -6
30 5 0 12 -7 15 -16z m1046 12 c0 -5 -65 -46 -73 -46 -11 0 0 32 14 41 14 9
59 13 59 5z m87 -29 c-8 -18 -14 -21 -23 -13 -16 15 -6 36 16 36 15 0 16 -3 7
-23z m-1027 -23 c25 -27 35 -54 19 -54 -4 0 -24 14 -44 32 -27 23 -33 33 -23
39 19 12 20 12 48 -17z m104 -31 c7 -16 6 -16 -38 2 -35 15 -43 25 -30 38 9 8
62 -23 68 -40z m98 13 c9 -17 8 -19 -3 -8 -18 17 -34 15 -19 -3 15 -18 9 -19
-24 -4 -20 9 -23 16 -16 30 12 22 47 14 62 -15z m74 -6 c41 -44 55 -47 29 -6
-10 14 -14 26 -11 26 10 0 106 -101 106 -111 0 -8 -32 -29 -44 -29 -3 0 -6 6
-6 13 0 13 -96 115 -126 134 -17 10 -17 12 -2 12 10 1 34 -17 54 -39z m683 21
c8 -14 5 -23 -12 -39 -30 -28 -73 -43 -98 -34 -26 10 -13 22 54 47 26 10 47
22 47 27 0 5 -9 4 -20 -2 -16 -9 -20 -8 -20 5 0 21 37 19 49 -4z m-1469 -1 c0
-5 -5 -10 -11 -10 -5 0 -7 5 -4 10 3 6 8 10 11 10 2 0 4 -4 4 -10z m340 -10
c-8 -5 -17 -7 -19 -4 -3 3 1 9 9 14 8 5 17 7 19 4 3 -3 -1 -9 -9 -14z m991 -2
c-6 -7 -28 -13 -47 -13 -30 0 -32 2 -17 13 9 6 30 12 47 12 24 0 28 -2 17 -12z
m-864 -10 c4 -7 8 -19 9 -25 3 -16 -26 -2 -46 21 -11 14 -9 16 8 16 12 0 24
-6 29 -12z m893 -8 c-33 -26 -48 -26 -25 0 10 11 25 20 34 20 12 0 9 -6 -9
-20z m-600 -15 c10 -12 10 -15 -1 -15 -8 0 -5 -6 7 -15 17 -14 17 -14 -11 -3
-43 17 -52 27 -35 38 20 13 26 12 40 -5z m339 -54 c-85 -84 -129 -121 -66 -55
65 69 60 81 -7 15 -30 -30 -63 -54 -73 -56 -10 -1 -31 -7 -47 -13 -42 -18
-107 -31 -100 -21 3 5 13 9 22 9 9 0 24 5 32 11 11 7 6 8 -19 4 -24 -5 -31 -4
-26 4 5 8 -2 10 -22 6 l-28 -5 30 11 c17 6 37 13 45 16 12 4 11 7 -5 13 -11 4
-25 4 -31 -1 -7 -6 -20 -2 -35 11 -30 24 -10 27 50 5 52 -18 74 -10 175 59 37
25 72 44 77 41 5 -4 16 -2 25 3 8 5 28 9 42 9 25 0 23 -5 -39 -66z m-384 19
c4 -6 -1 -7 -11 -3 -11 4 -15 3 -11 -4 4 -6 1 -14 -5 -16 -7 -3 4 -6 25 -6 20
-1 37 3 37 8 0 14 53 6 58 -9 3 -9 -3 -11 -21 -6 -30 7 -59 -2 -51 -16 4 -6
-2 -7 -17 -3 -32 10 -50 25 -43 36 3 5 2 9 -3 9 -19 1 -33 18 -27 33 5 15 9
15 34 2 16 -8 32 -19 35 -25z m243 2 c6 -19 -28 -26 -44 -10 -8 8 -12 22 -8
32 6 15 9 15 27 3 12 -8 23 -19 25 -25z m-424 12 c9 -8 16 -22 16 -30 0 -12
-4 -12 -20 -4 -11 6 -20 20 -20 30 0 24 4 25 24 4z m72 1 c16 -12 17 -14 2
-15 -23 0 -48 11 -48 21 0 14 24 11 46 -6z m660 6 c-10 -15 -66 -19 -66 -4 0
8 13 13 36 13 19 0 33 -4 30 -9z m801 -13 c-3 -8 -6 -5 -6 6 -1 11 2 17 5 13
3 -3 4 -12 1 -19z m-747 -3 c0 -8 -6 -15 -14 -15 -20 0 -29 17 -14 23 22 9 28
7 28 -8z m135 -8 c-7 -17 -42 -29 -50 -17 -3 5 7 16 22 24 32 16 36 15 28 -7z
m-1491 -22 c-4 -8 -12 -15 -20 -15 -8 0 -14 7 -14 15 0 8 9 15 20 15 13 0 18
-5 14 -15z m1272 8 c-11 -12 -47 -14 -64 -3 -13 7 -6 9 27 10 24 0 41 -3 37
-7z m-582 -22 c-5 -3 -12 -10 -15 -14 -3 -4 -13 1 -22 11 -16 18 -15 18 14 14
17 -3 27 -7 23 -11z m716 -13 c0 -10 -44 -10 -53 -1 -4 3 3 11 16 18 21 11 36
4 37 -17z m-90 12 c0 -11 -48 -25 -57 -16 -3 3 5 10 18 15 32 13 39 13 39 1z
m-715 -18 c-3 -3 -11 0 -18 7 -9 10 -8 11 6 5 10 -3 15 -9 12 -12z m615 -2 c0
-15 -7 -20 -24 -20 -29 0 -44 19 -25 31 25 16 49 10 49 -11z m231 0 c-13 -11
-31 -20 -40 -20 -10 0 -6 7 14 20 39 26 57 25 26 0z m-761 -3 c14 0 19 -2 11
-5 -9 -3 -4 -9 15 -17 l29 -13 -32 3 c-17 2 -43 11 -57 20 -30 20 -35 31 -8
19 9 -4 28 -7 42 -7z m1409 -39 c-1 -41 -1 -42 -11 -15 -5 15 -7 34 -4 42 10
27 16 16 15 -27z m-1304 19 c16 -13 15 -14 -14 -9 -17 2 -34 8 -37 13 -8 14
30 10 51 -4z m525 4 c0 -11 -30 -19 -49 -13 -11 4 -11 6 0 13 18 11 49 11 49
0z m-182 -21 c19 -14 51 -22 106 -27 62 -5 74 -8 56 -15 -33 -12 -121 -3 -158
16 -38 20 -48 20 -32 2 6 -8 27 -20 46 -26 19 -6 34 -16 34 -21 0 -12 -6 -11
-41 7 -30 15 -56 11 -31 -5 8 -5 2 -8 -17 -8 -20 0 -28 4 -24 14 3 7 0 13 -6
13 -6 0 -11 -5 -11 -10 0 -7 -8 -7 -22 1 -22 12 -21 12 17 45 47 40 48 40 83
14z m227 0 c-11 -5 -29 -9 -40 -9 l-20 0 20 9 c11 5 29 9 40 9 l20 0 -20 -9z
m125 6 c0 -2 -7 -7 -16 -10 -8 -3 -12 -2 -9 4 6 10 25 14 25 6z m-47 -26 c-4
-13 2 -27 16 -39 11 -10 21 -30 21 -44 0 -38 17 -77 34 -77 9 0 23 -9 33 -19
11 -11 35 -21 58 -23 44 -3 51 -21 10 -26 -14 -2 -23 -8 -20 -13 11 -16 -22
-9 -47 10 -13 11 -37 23 -51 26 -29 8 -38 -3 -41 -50 l-1 -25 -125 0 c-94 1
-130 4 -144 15 -26 19 -45 19 -68 -2 -17 -15 -18 -15 -18 6 0 29 21 35 65 21
35 -12 85 -7 85 8 0 4 -17 7 -37 7 -21 1 -50 4 -65 9 -20 6 -31 3 -47 -13 -12
-12 -19 -27 -16 -34 4 -7 -1 -3 -9 7 -9 11 -16 23 -16 28 0 12 37 28 66 28 22
0 25 2 14 15 -10 12 -10 15 3 15 8 0 17 -7 21 -15 3 -8 10 -15 16 -15 5 0 10
7 10 15 0 8 7 15 15 15 9 0 12 -6 9 -15 -7 -17 4 -19 24 -6 8 5 11 17 7 32 -8
34 26 76 73 89 31 8 41 7 64 -10 31 -23 44 -25 52 -7 3 6 3 1 0 -12 -4 -17 -2
-22 7 -19 23 7 22 55 0 77 -21 21 -27 42 -14 54 13 14 21 7 16 -13z m-39 -32
c9 -17 15 -33 13 -35 -2 -2 -18 4 -35 13 -26 12 -39 13 -65 5 -38 -13 -97 -64
-97 -84 0 -19 -56 -30 -82 -16 -12 6 -38 8 -64 4 -67 -10 -101 -64 -74 -116
10 -18 6 -19 -168 -19 l-179 0 11 34 c9 31 14 34 59 40 27 3 60 12 73 21 31
20 57 71 51 100 -4 22 0 24 56 27 32 2 61 0 63 -3 2 -4 48 -10 103 -13 79 -6
107 -4 133 7 18 9 56 20 83 27 28 6 61 17 75 25 14 8 26 14 27 15 1 0 9 -14
17 -32z m86 0 c0 -6 -7 -5 -15 2 -8 7 -15 17 -15 22 0 6 7 5 15 -2 8 -7 15
-17 15 -22z m572 0 c-15 -15 -26 -4 -18 18 5 13 9 15 18 6 9 -9 9 -15 0 -24z
m-1048 -17 c4 -5 -3 -7 -14 -4 -23 6 -26 13 -6 13 8 0 17 -4 20 -9z m1066 -35
c0 -26 -10 -36 -55 -54 -30 -12 -30 -12 -8 5 12 10 27 30 32 46 13 33 31 35
31 3z m-50 2 c0 -6 -17 -27 -39 -47 -21 -20 -40 -42 -43 -50 -3 -11 -24 -16
-76 -18 -70 -3 -73 -2 -82 23 -13 34 -13 34 10 34 11 0 20 -5 20 -11 0 -8 19
-10 61 -6 55 5 65 9 98 45 38 42 51 50 51 30z m80 -25 c0 -23 -4 -33 -9 -27
-9 8 -4 64 5 64 2 0 4 -17 4 -37z m-516 -5 c8 -30 7 -38 -1 -38 -11 0 -32 48
-25 55 11 10 20 5 26 -17z m-1608 -45 c-13 -24 -15 -25 -16 -7 0 11 5 25 12
32 19 19 21 6 4 -25z m1129 -13 c0 -8 -13 -19 -30 -25 -33 -11 -45 -46 -25
-71 7 -7 8 -14 3 -14 -14 0 -53 39 -52 53 0 9 2 9 6 0 8 -22 23 -14 20 10 -1
17 5 24 31 32 17 5 32 13 32 17 0 10 -3 10 -34 -2 -32 -12 -35 -3 -3 10 30 12
52 8 52 -10z m965 -5 c0 -14 -9 -30 -20 -37 -11 -7 -20 -18 -20 -25 0 -7 -4
-13 -8 -13 -18 0 -21 14 -6 41 16 32 13 35 -18 18 -14 -8 -23 -8 -31 0 -8 8
-6 11 9 11 10 0 28 7 38 15 31 24 56 19 56 -10z m-2066 -14 c-3 -16 -1 -39 6
-52 l11 -24 -20 24 c-28 31 -28 81 0 81 5 0 6 -13 3 -29z m107 -15 c42 -8 64
-28 55 -52 -5 -14 -4 -15 9 -4 8 7 15 19 15 26 0 24 19 15 35 -16 l16 -31 -90
5 c-50 2 -95 7 -101 11 -17 11 -42 66 -36 81 5 13 9 13 33 1 16 -8 44 -17 64
-21z m65 25 c5 -5 18 -11 29 -14 11 -3 5 -5 -14 -4 -19 1 -36 8 -39 15 -4 14
10 16 24 3z m1924 -21 c0 -5 -5 -10 -11 -10 -5 0 -7 5 -4 10 3 6 8 10 11 10 2
0 4 -4 4 -10z m-1850 -31 c0 -7 8 -18 18 -26 11 -9 12 -13 3 -11 -19 5 -48 48
-32 48 6 0 11 -5 11 -11z m234 -38 c-7 -9 -24 13 -24 32 0 21 1 21 13 -3 8
-14 12 -27 11 -29z m1010 34 c3 -8 9 -14 13 -13 4 1 19 -2 32 -6 32 -11 9 -26
-41 -26 -27 0 -38 4 -38 15 0 9 6 12 15 9 19 -8 19 0 -1 20 -13 14 -13 16 -1
16 8 0 17 -7 21 -15z m336 -11 c0 -8 -4 -12 -10 -9 -5 3 -10 13 -10 21 0 8 5
12 10 9 6 -3 10 -13 10 -21z m85 20 c13 -5 14 -9 4 -15 -7 -4 -22 -3 -32 3
-15 7 -22 7 -28 -3 -7 -11 -9 -10 -9 4 0 18 32 23 65 11z m-183 -16 c3 -7 19
-13 38 -13 18 0 35 -5 37 -11 3 -8 -27 -11 -97 -10 -55 1 -100 2 -100 4 0 12
54 20 76 11 15 -5 29 -7 32 -4 9 9 -7 18 -45 25 l-38 8 47 1 c28 1 48 -4 50
-11z m-1282 -24 c0 -10 -12 -14 -45 -14 -35 0 -43 3 -39 14 3 8 20 16 37 18
39 4 47 1 47 -18z m1648 4 c-3 -7 -18 -14 -34 -16 l-29 -2 25 14 c31 19 43 20
38 4z m-2116 -13 c0 -5 -5 -11 -11 -13 -6 -2 -11 4 -11 13 0 9 5 15 11 13 6
-2 11 -8 11 -13z m2023 5 c17 -7 15 -9 -12 -9 -18 -1 -33 4 -33 9 0 12 17 12
45 0z m-852 -7 c-7 -2 -19 -2 -25 0 -7 3 -2 5 12 5 14 0 19 -2 13 -5z m885
-19 l52 -7 0 -131 0 -131 -658 -2 c-361 -1 -838 -4 -1059 -7 l-401 -6 -1 140
-2 140 583 3 c321 1 774 3 1008 4 234 2 449 0 478 -3z"/>
<path d="M390 3781 c0 -5 8 -7 19 -4 10 3 22 0 25 -6 4 -6 12 -11 18 -11 7 0
6 6 -2 15 -13 16 -60 21 -60 6z"/>
<path d="M495 3780 c-16 -7 -11 -9 20 -9 52 -1 85 -24 85 -59 0 -17 3 -23 10
-16 37 37 -59 107 -115 84z"/>
<path d="M922 3783 c14 -2 33 -14 41 -26 13 -20 13 -25 -3 -45 -10 -12 -25
-22 -34 -22 -8 0 -18 -4 -21 -10 -4 -7 49 -10 152 -9 87 0 152 3 146 6 -8 3
-13 24 -13 53 0 38 4 50 18 53 9 3 -57 5 -148 4 -91 0 -153 -2 -138 -4z m83
-13 c-3 -5 -10 -10 -16 -10 -5 0 -9 5 -9 10 0 6 7 10 16 10 8 0 12 -4 9 -10z
m58 -58 c-22 -39 -29 -40 -48 -2 -14 28 -14 31 6 51 21 21 21 21 41 2 18 -19
18 -21 1 -51z m47 58 c0 -5 -7 -10 -15 -10 -8 0 -15 5 -15 10 0 6 7 10 15 10
8 0 15 -4 15 -10z m50 -40 c0 -57 -17 -66 -45 -24 -16 25 -16 27 6 50 12 13
26 24 31 24 4 0 8 -22 8 -50z m-150 -41 c0 -5 -9 -9 -20 -9 -22 0 -23 1 -14
24 5 13 9 14 20 5 8 -6 14 -15 14 -20z m94 6 c4 -11 -2 -15 -21 -15 -21 0 -24
2 -13 15 7 8 16 15 20 15 4 0 10 -7 14 -15z"/>
<path d="M550 3747 c0 -4 7 -18 15 -30 13 -20 13 -26 0 -51 -16 -31 -15 -45 3
-24 22 28 24 64 3 89 -11 13 -20 20 -21 16z"/>
<path d="M341 3702 c16 -25 3 -72 -19 -72 -14 0 -14 -2 -3 -9 11 -7 7 -13 -17
-25 -37 -19 -55 -49 -47 -77 9 -26 38 -21 45 9 8 35 90 82 90 52 0 -5 -7 -10
-16 -10 -14 0 -14 -2 -3 -16 8 -10 15 -12 17 -5 7 21 23 11 37 -21 12 -29 11
-34 -2 -39 -12 -4 -16 -20 -17 -60 -1 -51 -2 -54 -26 -52 -59 6 -70 13 -70 41
0 16 -6 37 -14 48 -13 17 -14 13 -9 -38 7 -67 -10 -102 -60 -123 -20 -9 -25
-14 -14 -15 26 0 58 18 89 51 22 24 32 28 63 24 51 -7 65 7 60 60 -4 35 -1 46
13 54 15 9 15 13 3 43 -21 54 -30 112 -19 125 12 14 -14 63 -33 63 -7 0 -6 -6
2 -17 8 -9 9 -14 2 -10 -7 5 -13 -1 -16 -15 -4 -21 -4 -21 -6 3 -1 25 -17 49
-33 49 -5 0 -3 -8 3 -18z m56 -71 c1 -11 -6 -21 -18 -24 -23 -6 -25 6 -3 27
19 20 19 20 21 -3z m-88 -64 c-15 -12 -29 -31 -32 -42 -4 -15 -5 -14 -6 7 -1
17 7 32 21 42 34 24 47 18 17 -7z"/>
<path d="M586 3643 c-6 -14 -5 -15 5 -6 7 7 10 15 7 18 -3 3 -9 -2 -12 -12z"/>
<path d="M57 3593 c-4 -3 -7 -20 -6 -37 l1 -31 9 34 c10 33 8 47 -4 34z"/>
<path d="M570 3571 c0 -13 39 -35 48 -27 3 3 0 6 -6 6 -6 0 -18 7 -26 16 -9 8
-16 11 -16 5z"/>
<path d="M669 3553 c-12 -16 -12 -17 1 -7 8 7 24 14 35 17 19 4 19 5 -1 6 -12
0 -28 -7 -35 -16z"/>
<path d="M84 3265 c-7 -18 12 -45 32 -45 8 0 14 7 14 16 0 11 6 15 20 11 11
-3 18 -1 14 4 -9 15 -42 10 -53 -8 -9 -17 -10 -17 -16 -1 -4 9 -4 22 0 28 3 5
4 10 0 10 -3 0 -8 -7 -11 -15z"/>
<path d="M236 3255 c10 -26 10 -74 0 -100 -8 -20 -7 -20 8 -1 9 11 16 34 16
51 0 17 -7 40 -16 51 -15 19 -16 19 -8 -1z"/>
<path d="M206 3237 c3 -10 9 -15 12 -12 3 3 0 11 -7 18 -10 9 -11 8 -5 -6z"/>
<path d="M176 3193 c-6 -14 -5 -15 5 -6 7 7 10 15 7 18 -3 3 -9 -2 -12 -12z"/>
<path d="M45 3120 c3 -6 20 -10 37 -10 38 0 34 5 -10 13 -21 4 -31 3 -27 -3z"/>
<path d="M48 3093 c6 -2 18 -2 25 0 6 3 1 5 -13 5 -14 0 -19 -2 -12 -5z"/>
<path d="M200 3030 c0 -5 7 -7 15 -4 8 4 15 8 15 10 0 2 -7 4 -15 4 -8 0 -15
-4 -15 -10z"/>
<path d="M127 2859 c-10 -6 -27 -9 -38 -6 -10 3 -19 1 -19 -4 0 -14 54 -10 76
6 22 17 8 20 -19 4z"/>
<path d="M1820 3760 c0 -5 5 -10 10 -10 6 0 10 5 10 10 0 6 -4 10 -10 10 -5 0
-10 -4 -10 -10z"/>
<path d="M1878 3763 c7 -3 16 -2 19 1 4 3 -2 6 -13 5 -11 0 -14 -3 -6 -6z"/>
<path d="M1935 3760 c3 -5 16 -10 28 -10 18 0 19 2 7 10 -20 13 -43 13 -35 0z"/>
<path d="M1740 3744 c8 -4 18 -11 21 -17 4 -6 13 -5 25 2 14 8 15 11 4 11 -8
0 -26 3 -40 5 -14 3 -18 2 -10 -1z"/>
<path d="M1897 3738 c10 -4 30 -12 46 -18 15 -5 27 -14 27 -19 0 -6 -15 -4
-34 4 -29 13 -35 13 -40 0 -3 -9 0 -12 9 -9 8 3 24 -1 37 -10 25 -18 58 -21
58 -7 0 5 -6 11 -12 14 -7 2 -10 8 -6 12 7 8 73 -28 118 -64 20 -16 22 -21 8
-21 -10 0 -33 14 -53 31 -20 18 -39 29 -42 25 -3 -3 -1 -6 5 -6 7 0 12 -5 12
-11 0 -6 -9 -8 -22 -3 -15 4 -5 -8 25 -35 39 -33 56 -41 88 -41 l40 0 -16 30
c-8 16 -15 39 -15 51 0 18 -3 19 -15 9 -11 -9 -20 -8 -44 9 -16 12 -45 28 -63
36 -23 10 -27 14 -13 15 11 0 33 -7 49 -15 36 -19 45 -13 14 7 -14 10 -55 17
-102 20 -42 2 -69 0 -59 -4z m154 -105 c13 -16 12 -17 -3 -4 -17 13 -22 21
-14 21 2 0 10 -8 17 -17z m79 -39 c0 -9 -28 -3 -46 11 -17 13 -16 14 14 4 17
-6 32 -13 32 -15z"/>
<path d="M1540 3720 c-22 -22 -25 -36 -10 -45 6 -3 10 1 10 10 0 8 15 24 33
35 28 18 29 20 10 20 -13 0 -32 -9 -43 -20z"/>
<path d="M1684 3729 c-10 -17 14 -35 28 -21 9 9 9 12 -1 12 -7 0 -9 5 -6 10 3
6 2 10 -4 10 -5 0 -13 -5 -17 -11z"/>
<path d="M1810 3719 c0 -5 5 -7 10 -4 6 3 10 8 10 11 0 2 -4 4 -10 4 -5 0 -10
-5 -10 -11z"/>
<path d="M1792 3672 l-23 -7 21 -22 c11 -13 26 -23 33 -23 19 0 37 21 37 42 0
19 -23 22 -68 10z m48 -17 c0 -8 -7 -15 -16 -15 -14 0 -14 3 -4 15 7 8 14 15
16 15 2 0 4 -7 4 -15z"/>
<path d="M1920 3661 c0 -6 5 -11 12 -11 7 0 32 -19 55 -42 24 -23 43 -38 43
-32 0 12 -44 55 -82 79 -17 10 -28 13 -28 6z"/>
<path d="M1685 3630 c3 -5 13 -10 21 -10 8 0 12 5 9 10 -3 6 -13 10 -21 10 -8
0 -12 -4 -9 -10z"/>
<path d="M1750 3633 c0 -5 4 -15 10 -23 11 -18 25 -7 17 15 -6 15 -27 21 -27
8z"/>
<path d="M1926 3614 c-3 -8 -2 -12 4 -9 5 3 24 -8 43 -25 45 -39 59 -39 21 1
-40 43 -61 52 -68 33z"/>
<path d="M1504 3611 c-5 -5 -22 -11 -39 -13 -21 -2 -31 -9 -32 -23 -2 -11 0
-14 3 -7 3 6 16 12 28 12 24 0 65 25 55 34 -3 3 -10 2 -15 -3z"/>
<path d="M1890 3592 c0 -12 19 -26 26 -19 2 2 -2 10 -11 17 -9 8 -15 8 -15 2z"/>
<path d="M1454 3554 c3 -9 6 -18 6 -20 0 -2 4 -4 9 -4 5 0 7 9 4 20 -3 11 -10
20 -15 20 -6 0 -7 -7 -4 -16z"/>
<path d="M1940 3560 c0 -5 5 -10 10 -10 6 0 10 5 10 10 0 6 -4 10 -10 10 -5 0
-10 -4 -10 -10z"/>
<path d="M1847 3165 c18 -25 33 -32 33 -17 0 10 -33 42 -44 42 -4 0 1 -11 11
-25z"/>
<path d="M1900 3112 c0 -18 51 -52 79 -52 50 0 55 17 6 22 -25 3 -55 14 -65
23 -11 10 -20 13 -20 7z"/>
<path d="M2074 3054 c-28 -37 -95 -45 -135 -15 -36 27 -39 10 -3 -18 45 -36
118 -23 150 26 21 34 12 39 -12 7z"/>
<path d="M2128 3023 c-23 -26 -40 -63 -30 -63 5 0 21 18 36 40 26 40 22 55 -6
23z"/>
<path d="M1984 2909 c8 -11 25 -28 38 -36 15 -11 11 -4 -11 20 -39 41 -49 47
-27 16z"/>
<path d="M930 3540 c0 -5 5 -10 11 -10 5 0 7 5 4 10 -3 6 -8 10 -11 10 -2 0
-4 -4 -4 -10z"/>
<path d="M930 3510 c0 -5 5 -10 11 -10 5 0 7 5 4 10 -3 6 -8 10 -11 10 -2 0
-4 -4 -4 -10z"/>
<path d="M980 3500 c0 -5 5 -10 11 -10 5 0 7 5 4 10 -3 6 -8 10 -11 10 -2 0
-4 -4 -4 -10z"/>
<path d="M645 3460 c-3 -5 -2 -10 4 -10 5 0 13 5 16 10 3 6 2 10 -4 10 -5 0
-13 -4 -16 -10z"/>
<path d="M535 3319 c-11 -17 1 -21 15 -4 8 9 8 15 2 15 -6 0 -14 -5 -17 -11z"/>
<path d="M445 3319 c-11 -17 1 -21 15 -4 8 9 8 15 2 15 -6 0 -14 -5 -17 -11z"/>
<path d="M1000 2999 c-81 -36 -112 -127 -69 -198 17 -28 18 -33 4 -27 -9 3
-23 6 -31 6 -8 0 -20 14 -26 30 -12 35 -31 35 -36 1 -5 -35 -27 -18 -25 20 0
19 -1 26 -4 17 -2 -10 -9 -18 -15 -18 -6 0 -8 9 -5 20 7 27 -17 26 -36 -1 -8
-11 -21 -21 -28 -23 -8 -1 -20 -5 -26 -9 -7 -5 -18 -5 -25 -1 -8 5 -9 2 -5
-10 4 -11 3 -15 -4 -10 -6 3 -29 1 -50 -6 -34 -12 -41 -11 -58 4 -18 16 -21
16 -50 1 -17 -8 -31 -19 -31 -24 0 -5 -15 -18 -34 -29 -23 -14 -35 -30 -40
-52 -3 -18 -5 -35 -3 -37 2 -1 28 3 58 11 93 23 129 26 129 11 0 -8 -4 -17
-10 -20 -19 -11 -10 -46 18 -74 15 -16 26 -33 25 -38 -2 -6 12 -18 32 -27 35
-17 50 -16 158 10 26 6 27 5 18 -17 -5 -13 -17 -51 -26 -84 -22 -74 -57 -138
-106 -190 -20 -22 -51 -68 -68 -103 -31 -62 -33 -63 -64 -57 -18 4 -33 8 -35
10 -1 1 5 46 13 100 9 53 14 99 11 102 -2 2 0 18 4 34 9 31 -2 79 -18 79 -15
0 -32 -49 -32 -90 0 -21 -7 -74 -15 -117 -8 -43 -15 -90 -15 -105 0 -18 -8
-33 -25 -44 -28 -18 -34 -60 -10 -78 12 -9 13 -23 4 -86 -5 -41 -14 -84 -20
-96 -8 -15 -7 -30 3 -54 l14 -34 20 22 c16 18 23 46 33 134 7 61 15 116 18
121 3 5 26 7 51 4 47 -5 52 -2 103 59 9 10 51 52 92 91 42 40 86 90 97 110 23
44 41 72 54 88 14 16 54 6 61 -15 13 -40 8 -137 -9 -188 -13 -37 -16 -70 -13
-115 6 -71 24 -163 26 -131 0 12 9 32 20 45 10 13 26 40 36 59 10 19 53 71 95
115 43 45 89 103 103 131 26 50 77 124 77 111 0 -10 -51 -110 -59 -117 -12
-10 -31 -50 -31 -65 0 -8 -7 -15 -15 -15 -8 0 -15 -7 -15 -16 0 -8 -4 -13 -8
-10 -5 3 -16 -8 -26 -25 -9 -16 -21 -29 -26 -29 -5 0 -7 -7 -4 -15 4 -9 0 -15
-10 -15 -10 0 -13 -5 -9 -17 5 -13 2 -15 -12 -10 -15 6 -16 5 -5 -8 11 -14 7
-19 -12 -16 -5 0 -8 -6 -8 -14 0 -8 -11 -25 -25 -39 -14 -14 -26 -29 -26 -33
0 -5 -7 -7 -15 -5 -11 2 -14 -9 -14 -45 0 -36 -3 -44 -11 -33 -7 11 -8 3 -3
-30 8 -54 14 -68 48 -99 25 -23 38 -17 15 6 -8 8 -8 26 1 67 11 54 22 68 35
46 3 -5 2 -10 -3 -10 -12 0 -16 -127 -4 -134 5 -3 7 16 4 44 -6 62 21 111 104
190 l58 55 -56 -62 c-58 -64 -98 -134 -98 -171 0 -13 7 -38 14 -57 8 -19 13
-35 10 -35 -2 0 5 -9 16 -20 27 -27 25 -37 -7 -54 -16 -8 -48 -35 -73 -60 -34
-36 -51 -46 -76 -46 -45 0 -58 -19 -45 -67 6 -21 11 -56 11 -78 0 -42 24 -90
41 -80 5 4 9 14 9 23 0 14 -2 15 -10 2 -5 -8 -12 -11 -17 -7 -9 9 -24 178 -16
190 2 4 19 7 38 7 27 0 47 12 105 66 75 68 93 72 93 20 0 -15 3 -29 8 -32 5
-3 9 1 9 8 0 9 3 9 10 -2 8 -13 10 -13 10 1 0 9 -22 46 -48 83 -27 36 -55 85
-62 107 -13 38 -12 44 8 83 30 55 100 132 111 120 13 -14 39 -130 47 -208 4
-38 13 -88 21 -110 l13 -41 -5 48 c-4 38 -2 47 11 47 13 0 13 5 -5 33 -11 18
-25 63 -31 100 -5 36 -15 78 -20 92 -17 45 -11 72 25 115 19 23 35 46 35 51 0
5 5 9 10 9 6 0 10 -7 10 -15 0 -20 29 -90 34 -84 3 2 -5 31 -16 64 -18 55 -19
67 -8 145 6 47 12 91 13 99 1 8 21 -13 45 -47 53 -76 110 -122 187 -152 33
-13 65 -28 71 -34 11 -10 42 -173 43 -226 0 -13 10 -32 23 -42 22 -16 23 -16
36 8 7 13 10 30 6 36 -8 12 -17 54 -34 150 -9 50 -8 61 10 93 22 39 25 49 11
41 -12 -8 -41 3 -41 15 0 4 8 6 18 2 12 -4 9 2 -9 20 -21 20 -30 44 -43 115
-9 49 -16 98 -16 107 0 20 -31 75 -42 75 -19 0 -30 -44 -19 -79 6 -20 18 -65
26 -101 9 -36 18 -72 20 -81 8 -24 -58 -24 -79 0 -35 39 -124 201 -149 272
-15 41 -29 100 -33 131 -4 32 -13 63 -20 69 -8 6 -14 21 -14 33 0 13 -11 33
-25 46 -14 13 -25 29 -25 36 0 20 -39 38 -53 25 -7 -6 -19 -6 -26 -1 -12 7
-11 15 6 49 17 35 19 48 10 98 -5 32 -16 66 -25 76 -42 47 -146 65 -212 36z
m36 -9 c-16 -5 -40 -19 -54 -32 -24 -22 -24 -23 -11 -1 15 25 45 42 74 41 13
0 11 -3 -9 -8z m120 -5 c10 -8 14 -15 7 -15 -19 0 -43 11 -43 21 0 13 14 11
36 -6z m-89 -21 c2 -6 -5 -14 -16 -17 -11 -3 -21 -1 -23 4 -2 6 -12 2 -23 -6
-17 -14 -17 -16 -2 -11 9 3 17 1 17 -5 0 -6 7 -6 19 1 25 13 54 13 46 0 -3 -5
1 -10 10 -10 16 0 54 -30 38 -30 -4 0 -1 -5 7 -10 12 -8 12 -10 1 -10 -8 0
-20 8 -27 18 -10 13 -13 14 -14 3 0 -8 10 -25 22 -38 12 -12 22 -31 23 -40 4
-38 18 -99 27 -116 5 -9 24 -24 44 -32 19 -8 37 -21 41 -30 4 -13 8 -14 14 -4
14 23 24 -1 22 -53 -1 -36 6 -63 22 -93 38 -72 8 -128 -59 -111 -37 9 -40 9
-44 -3 -2 -6 7 -15 20 -20 13 -6 16 -10 8 -11 -13 0 -13 -1 0 -10 13 -9 13
-10 0 -10 -13 0 -13 -1 0 -10 9 -6 11 -13 5 -17 -5 -5 -11 -15 -13 -23 -6 -28
-44 -80 -58 -80 -8 0 -14 -5 -14 -11 0 -7 -19 -35 -43 -63 -24 -28 -60 -75
-81 -103 -21 -29 -39 -53 -41 -53 -7 0 8 41 16 46 5 3 9 10 9 16 0 6 -6 6 -15
-2 -13 -11 -14 -10 -9 6 4 10 12 26 18 34 8 12 8 13 -4 3 -26 -23 -34 -13 -10
12 24 25 16 35 -10 13 -8 -7 -5 -1 8 13 23 26 29 45 12 34 -5 -3 -10 -2 -10 4
0 5 4 12 10 16 5 3 7 12 3 21 -3 8 3 24 12 34 11 13 14 20 6 20 -7 0 -9 5 -4
13 14 23 12 39 -4 33 -13 -5 -14 -4 -3 9 11 13 10 14 -6 9 -18 -7 -18 -6 1 15
11 13 32 29 47 37 43 23 33 34 -11 12 -71 -35 -126 3 -103 71 9 25 8 31 -2 31
-15 0 -33 -42 -34 -80 -1 -14 -6 -26 -12 -28 -5 -2 -10 -10 -10 -18 0 -8 -4
-14 -9 -14 -5 0 -12 -12 -15 -27 -11 -47 -40 -94 -54 -88 -7 2 -11 1 -8 -4 3
-5 -2 -15 -11 -22 -11 -10 -14 -10 -9 -2 5 9 2 11 -8 7 -8 -3 -20 -19 -26 -35
-7 -16 -17 -29 -22 -29 -5 0 -6 -4 -3 -10 3 -5 0 -10 -7 -10 -7 -1 -33 -26
-58 -55 -24 -30 -50 -55 -57 -55 -17 0 -17 17 0 23 12 5 -2 6 -82 8 -41 1 -43
3 -26 15 10 8 30 14 44 14 55 0 71 12 108 77 20 36 58 90 84 120 46 53 63 89
114 243 30 89 59 124 128 156 34 16 70 27 80 26 11 -1 17 5 17 17 0 10 7 24
15 31 26 21 16 31 -14 15 -29 -15 -30 -14 -65 27 -24 28 -33 45 -26 52 16 16
12 30 -5 16 -9 -8 -15 -9 -15 -2 0 6 5 14 12 18 7 5 4 10 -10 15 -22 8 -31 29
-12 29 6 0 10 6 10 14 0 8 16 28 36 46 35 30 64 36 71 14z m93 -19 c15 -18 31
-20 28 -4 -2 6 2 13 8 15 6 3 10 -10 10 -31 l0 -35 -26 25 c-26 25 -57 35 -44
13 4 -7 3 -8 -5 -4 -6 4 -9 11 -6 16 3 4 -1 11 -7 13 -7 3 -3 6 8 6 12 1 27
-6 34 -14z m-220 -40 c-10 -12 -10 -21 -1 -41 14 -32 14 -35 -4 -28 -18 7 -20
65 -3 82 17 17 23 6 8 -13z m250 -14 c14 -26 13 -31 -6 -31 -8 0 -13 4 -10 9
3 5 -1 12 -10 15 -8 3 -12 10 -9 16 10 16 23 12 35 -9z m36 -46 c1 -14 -4 -25
-11 -25 -21 0 -26 29 -7 39 9 6 17 11 17 11 0 0 1 -11 1 -25z m-406 -67 c14
-11 16 -18 8 -21 -21 -7 -38 4 -38 25 0 11 -8 22 -20 25 -23 6 -25 14 -8 31 8
8 15 5 25 -16 7 -15 22 -34 33 -44z m360 52 c0 -5 -7 -10 -15 -10 -8 0 -15 5
-15 10 0 6 7 10 15 10 8 0 15 -4 15 -10z m-289 -70 c7 0 10 -3 7 -6 -13 -12
-48 22 -48 46 1 23 2 23 15 -7 8 -18 20 -33 26 -33z m323 25 c-7 -17 -20 -20
-28 -6 -7 10 3 21 20 21 8 0 11 -6 8 -15z m-672 -5 c4 -13 67 -20 74 -9 3 5
13 2 21 -7 15 -15 18 -15 30 2 12 17 13 17 14 -2 0 -17 1 -16 9 4 11 26 21 29
17 5 -1 -10 3 -18 8 -18 6 0 9 6 7 15 -2 12 -1 13 7 1 7 -11 10 -10 14 5 4 16
5 16 6 2 0 -9 -10 -29 -24 -44 -32 -35 -32 -48 5 -74 37 -26 68 -21 133 20 53
33 145 54 165 38 11 -9 8 -27 -4 -21 -2 2 -15 -9 -28 -22 -14 -14 -30 -25 -36
-25 -13 0 -13 20 0 21 6 1 15 2 22 3 6 0 13 7 16 15 3 9 0 11 -8 6 -7 -4 -16
-2 -21 6 -7 11 -9 10 -9 -3 0 -21 -16 -24 -23 -5 -3 6 -6 0 -6 -15 -1 -33 -20
-38 -22 -5 -1 20 -2 20 -6 2 -10 -45 -15 -51 -23 -30 -8 18 -9 17 -9 -7 -1
-31 -17 -38 -24 -10 -3 10 -5 6 -6 -10 -1 -34 -18 -37 -24 -5 -4 19 -4 18 -6
-5 -1 -31 -17 -38 -24 -10 -4 13 -5 11 -6 -5 -1 -27 -20 -31 -22 -5 -1 16 -2
16 -6 0 -2 -10 -8 -18 -13 -18 -5 0 -7 8 -4 18 5 14 3 14 -11 -3 -17 -20 -17
-20 -10 4 5 16 4 21 -4 17 -6 -4 -11 -14 -11 -22 0 -8 -5 -12 -10 -9 -6 4 -8
11 -5 16 4 5 2 9 -4 9 -5 0 -12 -6 -14 -12 -3 -7 -6 -3 -6 10 -1 23 -15 30
-26 12 -10 -16 -25 -12 -19 5 4 8 1 15 -5 15 -7 0 -7 8 0 26 5 15 7 29 4 32
-2 3 -27 7 -55 10 -62 6 -75 19 -17 18 34 -1 42 3 45 19 2 12 0 16 -5 10 -12
-16 -53 -16 -53 0 0 7 -3 20 -6 29 -3 9 -2 16 4 16 6 0 12 -4 14 -10z m-22
-30 c0 -5 -7 -10 -15 -10 -8 0 -15 5 -15 10 0 6 7 10 15 10 8 0 15 -4 15 -10z
m333 -20 c3 -11 1 -18 -4 -14 -5 3 -9 12 -9 20 0 20 7 17 13 -6z m-49 -28
c-18 -14 -18 -14 1 -7 11 4 29 7 40 7 11 -1 23 4 27 11 4 6 10 8 14 4 10 -10
-24 -34 -67 -48 -28 -9 -41 -8 -60 1 -23 13 -23 13 -4 20 20 7 20 7 0 12 -14
4 -10 6 11 7 20 1 35 8 39 19 6 13 8 14 13 3 2 -8 -4 -21 -14 -29z m93 32 c-3
-3 -12 -4 -19 -1 -8 3 -5 6 6 6 11 1 17 -2 13 -5z m-429 -34 c7 -11 9 -20 4
-20 -10 0 -32 22 -32 32 0 15 15 8 28 -12z m392 -130 c-13 -24 -77 -42 -133
-38 -41 3 -41 3 22 15 35 7 73 19 85 27 29 21 39 19 26 -4z m495 -21 c11 -17
-1 -21 -15 -4 -8 9 -8 15 -2 15 6 0 14 -5 17 -11z m2 -146 c-4 -56 -37 -163
-49 -163 -5 0 -6 -5 -3 -10 3 -6 -1 -17 -9 -26 -15 -14 -16 -14 -16 3 0 11 4
23 8 28 16 18 50 120 57 168 3 26 8 47 11 47 3 0 3 -21 1 -47z m130 -178 c65
-108 80 -122 140 -131 l46 -7 -32 -13 c-34 -14 -43 -29 -11 -19 14 4 20 2 20
-9 0 -12 -7 -14 -32 -9 -85 17 -156 70 -224 168 l-37 55 12 72 c19 107 21 109
44 43 11 -33 44 -100 74 -150z m-937 120 c0 -16 -6 -25 -15 -25 -15 0 -21 31
-8 43 13 14 23 6 23 -18z m1087 -1 c8 -21 -13 -42 -28 -27 -13 13 -5 43 11 43
6 0 13 -7 17 -16z m-1095 -69 c0 -6 -5 -56 -12 -113 -12 -94 -22 -123 -37
-108 -9 9 29 237 39 234 5 -2 10 -8 10 -13z m1106 -32 c37 -138 36 -133 23
-133 -5 0 -11 12 -14 28 -6 30 -25 108 -33 135 -3 9 -2 17 3 17 5 0 14 -21 21
-47z m-385 -74 c-6 -6 -9 -18 -6 -25 3 -8 0 -14 -7 -14 -6 0 -9 -8 -5 -19 3
-10 -1 -24 -10 -31 -18 -15 -20 -34 -2 -23 6 4 4 -5 -6 -20 -13 -19 -14 -27
-5 -28 10 0 10 -2 1 -6 -7 -2 -13 -12 -13 -20 0 -9 -6 -13 -14 -10 -10 4 -13
1 -9 -9 3 -7 0 -14 -7 -14 -6 0 -8 -5 -5 -11 5 -7 17 -2 34 13 24 21 24 20 -3
-9 -16 -18 -34 -29 -42 -26 -10 4 -12 0 -7 -13 6 -17 5 -18 -12 -4 -16 14 -17
13 -11 -6 4 -14 -1 -26 -19 -42 -14 -12 -25 -26 -25 -32 0 -5 -7 -7 -15 -4 -8
4 -15 11 -15 16 0 6 8 7 18 3 13 -5 14 -3 5 6 -6 6 -17 8 -23 4 -16 -10 -40
-69 -40 -100 0 -32 -18 -33 -25 -2 -11 43 128 284 215 373 22 23 40 47 40 53
0 6 5 11 12 11 9 0 9 -3 1 -11z m422 -138 c-3 -5 -1 -12 4 -15 5 -3 12 -27 16
-53 5 -27 10 -55 12 -63 12 -47 15 -90 6 -90 -10 0 -33 110 -48 220 -5 35 -4
41 5 27 6 -9 9 -21 5 -26z m-1223 -13 c-7 -7 -12 -8 -12 -2 0 14 12 26 19 19
2 -3 -1 -11 -7 -17z m1262 6 c3 -8 2 -12 -4 -9 -6 3 -10 10 -10 16 0 14 7 11
14 -7z m-1218 -41 c-3 -16 -8 -48 -11 -73 -11 -79 -16 -100 -27 -100 -8 0 -9
27 -4 84 7 97 12 116 33 116 11 0 13 -8 9 -27z m-30 -208 c3 -8 -1 -23 -9 -34
-14 -21 -14 -21 -25 3 -7 17 -7 27 1 35 15 15 27 14 33 -4z m1274 0 c13 -16 6
-35 -15 -35 -18 0 -28 17 -21 35 7 19 20 19 36 0z"/>
<path d="M1034 2879 c-10 -17 14 -35 28 -21 9 9 9 12 -2 12 -13 0 -13 2 0 10
13 8 13 10 -2 10 -9 0 -20 -5 -24 -11z"/>
<path d="M1030 2775 c0 -13 4 -14 20 -5 11 6 20 13 20 15 0 3 -9 5 -20 5 -11
0 -20 -7 -20 -15z"/>
<path d="M610 2730 c0 -5 9 -14 20 -20 13 -7 20 -21 20 -41 0 -32 14 -32 23 1
6 23 -27 70 -49 70 -8 0 -14 -4 -14 -10z"/>
<path d="M630 2840 c0 -5 14 -8 30 -8 35 1 32 9 -5 13 -14 2 -25 -1 -25 -5z"/>
<path d="M1370 1902 c0 -7 13 -38 29 -70 28 -57 45 -116 57 -204 6 -45 5 -48
-27 -67 -18 -11 -54 -26 -80 -32 -57 -15 -58 -19 -47 -149 4 -52 12 -151 17
-220 8 -93 15 -131 29 -150 21 -29 34 -60 25 -60 -3 0 -12 8 -20 18 -14 16
-14 16 -9 0 3 -10 1 -18 -4 -18 -6 0 -10 8 -11 18 0 16 -1 16 -7 0 -6 -15 -11
-16 -31 -5 -16 8 -30 30 -42 67 -10 30 -19 56 -19 57 0 1 6 0 13 -2 21 -9 5
141 -22 198 -24 53 -43 149 -34 172 5 15 -12 22 -19 8 -1 -5 -39 -26 -82 -48
-74 -37 -80 -43 -103 -93 -31 -70 -24 -78 8 -10 22 47 30 54 96 85 39 18 74
33 76 33 2 0 7 -22 10 -50 3 -27 15 -70 25 -94 l20 -43 -54 -27 c-30 -14 -71
-26 -92 -26 -21 0 -46 -6 -57 -14 -11 -7 -36 -16 -56 -20 -50 -9 -78 -31 -61
-47 21 -22 14 -26 -48 -26 -61 -1 -110 -21 -110 -46 0 -6 12 -23 25 -36 14
-13 25 -29 25 -36 0 -15 22 -25 56 -25 14 0 27 -7 30 -15 4 -8 10 -15 15 -15
4 0 6 7 2 17 -5 13 0 11 23 -6 28 -20 34 -21 78 -9 43 11 49 11 57 -5 7 -12
23 -17 55 -17 28 0 43 4 39 10 -4 6 -11 7 -17 4 -6 -4 -8 1 -3 16 6 18 4 22
-8 17 -9 -3 -21 0 -27 8 -6 8 -21 15 -33 17 -15 2 -21 9 -19 21 2 12 -4 17
-25 19 -40 2 -43 2 -93 -7 -40 -7 -43 -6 -31 9 10 11 30 16 73 16 68 0 98 12
98 41 0 17 6 19 48 18 26 -1 61 1 78 5 l31 7 23 -71 c23 -71 29 -77 85 -82 73
-5 80 9 39 78 -19 33 -25 54 -22 84 2 22 0 40 -4 40 -20 0 -5 19 26 34 32 15
91 59 143 107 37 34 81 120 94 186 12 59 11 65 -15 135 -16 40 -32 83 -36 94
-5 12 -36 46 -70 75 -34 30 -72 74 -85 99 -13 25 -24 39 -25 32z m129 -176
c10 -12 8 -13 -9 -9 -16 4 -19 2 -14 -13 5 -15 4 -16 -4 -4 -8 10 -8 18 0 27
13 16 13 16 27 -1z m55 -126 c6 -23 4 -22 -24 10 -16 19 -30 41 -30 49 0 23
46 -28 54 -59z m-37 -8 c11 -15 23 -40 27 -55 9 -37 -3 -97 -19 -97 -10 0 -11
7 -5 30 6 21 5 30 -3 30 -8 0 -8 3 1 12 17 17 15 29 -3 22 -8 -4 -15 -1 -15 5
0 6 5 11 10 11 6 0 10 4 10 10 0 6 -10 5 -25 -2 -28 -13 -30 -19 -13 -64 9
-24 9 -42 1 -69 -12 -38 0 -48 18 -14 8 17 13 18 22 9 9 -9 9 -14 1 -17 -7 -2
-10 -13 -7 -23 4 -16 0 -20 -17 -20 -20 0 -21 -2 -9 -17 10 -11 10 -14 2 -9
-8 4 -13 1 -13 -9 0 -13 -4 -14 -20 -5 -12 6 -20 7 -20 1 0 -5 6 -11 12 -13
10 -4 9 -8 -2 -20 -8 -8 -21 -13 -28 -10 -8 2 -10 -2 -5 -14 5 -13 3 -16 -10
-11 -9 3 -17 2 -17 -3 0 -5 -6 -7 -14 -4 -13 5 -31 -24 -21 -34 3 -3 17 0 32
7 l28 12 -25 -21 c-14 -11 -30 -18 -37 -15 -6 2 -14 -1 -17 -8 -2 -7 -5 3 -5
21 -1 27 7 41 45 75 81 74 109 146 88 225 -12 44 -29 17 -28 -44 1 -44 0 -48
-3 -14 -2 25 -12 53 -20 63 -15 16 -13 19 35 39 46 20 67 38 43 38 -5 0 -11 9
-14 19 -7 27 15 17 40 -17z m61 -88 l-3 -39 -5 47 c-3 26 -1 43 3 39 5 -5 7
-26 5 -47z m-182 -9 c13 -20 15 -39 10 -86 -3 -33 -12 -69 -20 -81 -17 -24
-55 -52 -62 -45 -3 2 -8 52 -11 111 -6 105 -6 106 18 115 37 15 47 13 65 -14z
m-169 -314 c0 -11 -5 -17 -9 -15 -4 3 -8 -2 -8 -12 0 -14 -2 -15 -17 -3 -15
12 -16 12 -10 -3 7 -21 -3 -23 -22 -5 -12 10 -13 8 -7 -8 6 -16 5 -18 -5 -7
-18 17 -30 15 -23 -3 8 -20 -6 -19 -23 3 -14 16 -14 16 -8 -3 5 -16 4 -18 -6
-7 -18 17 -29 15 -23 -5 5 -17 5 -17 -6 0 -14 22 -34 22 -26 1 5 -14 4 -15 -9
-4 -12 10 -15 10 -15 -3 0 -8 -8 -14 -17 -13 -28 2 -21 -27 7 -34 36 -8 13
-16 -45 -16 -27 1 -53 -3 -57 -9 -5 -6 -12 -4 -18 5 -8 13 -10 12 -10 -2 0
-21 -16 -24 -24 -5 -3 6 -4 -1 -1 -18 5 -28 4 -29 -10 -11 -8 11 -15 23 -15
28 0 4 -7 5 -15 2 -8 -4 -15 -1 -15 6 0 6 -6 8 -12 4 -10 -5 -10 -3 0 7 11 12
45 17 150 19 26 0 29 22 6 44 -20 21 -14 23 103 35 51 6 101 15 110 21 15 10
14 11 -7 6 -68 -16 -100 -18 -100 -7 0 6 18 12 43 12 87 3 118 6 124 13 12 12
22 6 20 -13z m-22 -70 c-12 -10 -65 -24 -65 -16 0 2 15 9 33 14 43 12 42 12
32 2z m-233 -153 c-9 -9 -12 -7 -12 12 0 19 3 21 12 12 9 -9 9 -15 0 -24z
m-18 -30 c6 -5 1 -8 -11 -8 -13 0 -23 6 -23 13 0 20 14 31 19 15 2 -7 9 -16
15 -20z"/>
<path d="M1420 1300 c0 -5 5 -10 11 -10 5 0 7 5 4 10 -3 6 -8 10 -11 10 -2 0
-4 -4 -4 -10z"/>
<path d="M427 3223 c-4 -3 -7 -11 -7 -17 0 -6 5 -5 12 2 6 6 9 14 7 17 -3 3
-9 2 -12 -2z"/>
<path d="M500 3205 c-8 -9 -8 -15 -2 -15 12 0 26 19 19 26 -2 2 -10 -2 -17
-11z"/>
<path d="M1810 2836 c0 -9 5 -16 10 -16 6 0 10 4 10 9 0 6 -4 13 -10 16 -5 3
-10 -1 -10 -9z"/>
<path d="M65 1229 l-30 -19 25 0 c14 0 31 9 38 20 15 25 6 24 -33 -1z"/>
<path d="M106 1212 c-2 -4 10 -8 29 -8 19 0 31 4 29 8 -3 4 -16 8 -29 8 -13 0
-26 -4 -29 -8z"/>
<path d="M50 1190 c-13 -9 -13 -10 0 -10 8 0 22 5 30 10 13 9 13 10 0 10 -8 0
-22 -5 -30 -10z"/>
<path d="M180 1180 c0 -9 39 -25 46 -18 2 3 -7 10 -21 16 -14 6 -25 7 -25 2z"/>
<path d="M85 1150 c-3 -5 -1 -10 4 -10 6 0 11 5 11 10 0 6 -2 10 -4 10 -3 0
-8 -4 -11 -10z"/>
<path d="M222 1010 c21 -4 46 -14 55 -23 10 -8 32 -23 48 -31 24 -13 26 -16 9
-16 -11 0 -25 5 -32 12 -9 9 -12 9 -12 1 0 -17 18 -26 61 -28 34 -2 36 -1 26
16 -7 11 -19 19 -27 19 -9 0 -31 13 -50 30 -27 22 -44 29 -75 28 l-40 0 37 -8z"/>
<path d="M163 998 c-12 -16 -24 -48 -18 -48 2 0 11 14 20 30 16 31 15 40 -2
18z"/>
<path d="M177 960 c-15 -16 -23 -30 -17 -30 5 0 17 11 26 24 9 16 28 26 47 29
l32 4 -31 1 c-23 2 -38 -6 -57 -28z"/>
<path d="M213 943 c-3 -10 -8 -22 -11 -27 -3 -5 0 -6 6 -2 7 4 12 14 12 23 0
12 7 14 30 9 19 -3 29 -2 25 4 -10 17 -55 11 -62 -7z"/>
<path d="M246 922 c-3 -5 8 -9 24 -9 16 0 27 4 24 9 -3 4 -14 8 -24 8 -10 0
-21 -4 -24 -8z"/>
<path d="M158 903 c6 -2 18 -2 25 0 6 3 1 5 -13 5 -14 0 -19 -2 -12 -5z"/>
<path d="M1821 2674 c0 -11 3 -14 6 -6 3 7 2 16 -1 19 -3 4 -6 -2 -5 -13z"/>
<path d="M301 2464 c0 -11 3 -14 6 -6 3 7 2 16 -1 19 -3 4 -6 -2 -5 -13z"/>
<path d="M251 1593 c0 -4 4 -17 9 -28 8 -19 9 -19 9 2 1 12 -3 25 -9 28 -5 3
-10 3 -9 -2z"/>
<path d="M2047 1502 c-10 -10 -17 -29 -16 -43 1 -21 2 -20 10 7 5 17 19 36 31
42 16 7 18 11 7 11 -9 1 -23 -7 -32 -17z"/>
<path d="M2060 1479 c0 -5 5 -7 10 -4 6 3 10 8 10 11 0 2 -4 4 -10 4 -5 0 -10
-5 -10 -11z"/>
<path d="M2005 1410 c3 -5 8 -10 11 -10 2 0 4 5 4 10 0 6 -5 10 -11 10 -5 0
-7 -4 -4 -10z"/>
<path d="M2018 1309 c5 -13 20 -29 32 -36 33 -17 44 -41 28 -60 -11 -14 -11
-15 2 -11 23 7 24 45 0 65 -11 10 -32 29 -46 42 l-25 25 9 -25z"/>
<path d="M1966 1199 c-14 -11 -26 -27 -26 -36 0 -11 6 -7 21 11 11 14 35 30
52 35 30 9 30 9 6 10 -15 1 -38 -8 -53 -20z"/>
<path d="M2003 1190 c-13 -5 -23 -12 -23 -15 0 -9 16 -5 36 10 22 16 19 18
-13 5z"/>
<path d="M1817 800 c-43 -5 -66 -20 -67 -42 0 -8 20 -14 73 -24 31 -5 37 -10
37 -30 0 -13 5 -24 10 -24 16 0 11 70 -6 87 -12 13 -13 18 -3 24 21 13 8 15
-44 9z"/>
<path d="M1995 800 c-4 -6 -11 -8 -16 -5 -11 7 -12 -8 -2 -19 4 -4 8 -15 8
-24 0 -18 7 -18 65 -4 19 4 35 13 34 20 -1 7 -2 19 -2 27 -2 17 -77 22 -87 5z
m25 -40 c0 -5 -4 -10 -10 -10 -5 0 -10 5 -10 10 0 6 5 10 10 10 6 0 10 -4 10
-10z"/>
<path d="M2117 773 c-11 -10 -8 -43 3 -43 6 0 10 11 10 25 0 26 -2 29 -13 18z"/>
<path d="M1987 713 c-3 -4 1 -19 9 -33 12 -22 13 -23 13 -5 1 24 -14 50 -22
38z"/>
<path d="M1660 670 c0 -5 8 -17 18 -25 61 -52 62 -55 61 -97 -2 -34 -3 -37 -6
-13 -3 17 -9 34 -14 39 -13 14 -12 -71 1 -87 6 -7 19 -23 29 -37 11 -14 23
-22 27 -18 4 5 -1 17 -11 28 -15 16 -16 25 -7 44 17 38 -3 95 -50 139 -44 40
-48 42 -48 27z"/>
<path d="M1730 662 c0 -18 57 -78 66 -69 4 4 -9 24 -29 45 -20 20 -37 31 -37
24z"/>
<path d="M1956 635 c-9 -25 -8 -27 22 -23 16 2 27 9 27 18 0 21 -41 25 -49 5z"/>
<path d="M495 1050 c3 -5 8 -10 11 -10 2 0 4 5 4 10 0 6 -5 10 -11 10 -5 0 -7
-4 -4 -10z"/>
<path d="M405 760 c-15 -25 52 -41 85 -20 20 12 12 18 -37 26 -27 4 -43 2 -48
-6z"/>
<path d="M138 673 c-23 -6 -23 -12 4 -34 12 -11 29 -17 38 -14 9 3 25 -2 36
-10 28 -21 44 -18 39 7 -9 44 -60 66 -117 51z"/>
<path d="M620 573 c0 -24 -7 -48 -16 -57 -20 -20 -25 -20 -17 1 6 15 5 15 -15
1 -15 -10 -37 -14 -70 -10 -37 3 -52 0 -66 -13 -9 -10 -14 -20 -11 -23 3 -4 9
-1 14 6 4 6 22 15 39 18 25 5 32 3 30 -7 -5 -24 45 -22 82 3 40 27 63 89 42
110 -9 9 -12 2 -12 -29z"/>
<path d="M690 520 c-13 -8 -12 -10 3 -10 9 0 17 5 17 10 0 12 -1 12 -20 0z"/>
<path d="M810 500 c0 -5 -20 -7 -48 -3 -52 6 -92 -8 -92 -31 0 -8 -8 -24 -19
-37 -16 -20 -21 -21 -35 -10 -11 9 -16 10 -16 2 0 -18 31 -25 51 -13 10 7 26
9 36 5 15 -5 16 -3 6 8 -16 17 -17 46 -1 55 6 4 38 8 71 8 39 1 62 5 64 14 3
6 0 12 -6 12 -6 0 -11 -4 -11 -10z"/>
<path d="M1015 750 c3 -5 8 -10 11 -10 2 0 4 5 4 10 0 6 -5 10 -11 10 -5 0 -7
-4 -4 -10z"/>
<path d="M1359 527 c-23 -18 -39 -52 -29 -63 4 -5 10 -20 12 -34 2 -16 10 -26
23 -28 18 -2 18 -2 3 8 -27 16 -22 55 8 75 35 23 23 31 -13 9 l-28 -18 24 26
c13 15 37 29 55 31 31 4 31 4 -4 5 -19 1 -42 -4 -51 -11z"/>
<path d="M1433 500 c-18 -4 -40 -13 -48 -20 -17 -14 -20 -50 -5 -50 6 0 10 7
10 16 0 21 29 43 55 43 18 0 19 0 3 -10 -10 -5 -18 -15 -18 -21 0 -9 3 -9 12
0 7 7 24 12 38 12 26 0 50 16 50 33 0 4 -10 1 -22 -7 -25 -18 -42 -21 -33 -7
8 15 -7 18 -42 11z"/>
<path d="M1390 408 c0 -9 8 -19 18 -24 26 -12 76 -12 84 0 12 18 9 31 -4 18
-17 -17 -58 -15 -80 5 -16 14 -18 14 -18 1z"/>
<path d="M112 393 c2 -10 14 -19 28 -21 l25 -4 -22 21 c-27 26 -36 27 -31 4z"/>
<path d="M1018 262 c-10 -2 -18 -5 -18 -8 0 -2 20 -33 45 -69 25 -36 40 -65
34 -65 -25 0 2 -13 31 -15 40 -3 46 9 21 41 -19 24 -19 28 -5 55 8 16 18 29
22 29 9 0 52 -66 52 -79 0 -6 -10 -17 -22 -25 -22 -16 -22 -16 16 -16 30 0 37
3 32 15 -8 22 33 125 50 125 8 0 14 5 14 10 0 6 -6 10 -14 10 -28 0 -46 -12
-46 -31 0 -27 -19 -23 -30 6 -8 20 -16 25 -45 25 -27 0 -35 -4 -35 -18 0 -10
-6 -27 -14 -37 -14 -19 -15 -18 -33 12 -20 36 -29 41 -55 35z"/>
<path d="M1313 244 c-20 -20 -24 -31 -19 -57 15 -72 88 -101 140 -55 25 23 29
35 27 75 -3 61 -99 86 -148 37z m99 -1 c37 -33 17 -113 -29 -113 -51 0 -69 58
-32 104 24 30 36 32 61 9z"/>
<path d="M1490 260 c0 -5 5 -10 10 -10 13 0 13 -113 0 -126 -7 -7 1 -10 24
-11 34 -1 34 -1 29 38 -3 21 -2 39 2 39 5 0 25 -18 45 -40 21 -23 46 -40 58
-40 30 0 28 4 -15 44 -36 33 -37 36 -20 48 12 9 18 23 15 39 -3 23 -7 24 -75
27 -46 2 -73 -1 -73 -8z m108 -32 c-2 -15 -11 -24 -25 -26 -19 -3 -23 1 -23
22 0 21 5 26 26 26 21 0 25 -4 22 -22z"/>
<path d="M1698 203 c2 -38 5 -74 7 -80 6 -19 90 -17 105 2 16 19 5 34 -12 17
-7 -7 -20 -12 -30 -12 -16 0 -18 9 -18 70 0 70 0 70 -28 70 l-28 0 4 -67z"/>
<path d="M1858 264 c-5 -4 -8 -35 -8 -69 0 -35 -5 -67 -12 -74 -11 -11 -3 -12
45 -9 77 6 113 38 103 91 -4 19 -13 40 -21 47 -18 15 -97 25 -107 14z m67 -31
c20 -20 13 -72 -12 -91 -24 -17 -30 -4 -25 56 4 55 11 62 37 35z"/>
<path d="M660 251 c0 -5 5 -13 11 -17 6 -4 9 -31 7 -67 l-3 -61 53 -2 c42 -1
55 2 63 17 7 15 6 19 -6 19 -8 0 -15 -4 -15 -10 0 -5 -13 -10 -30 -10 -26 0
-30 4 -30 26 0 21 4 24 20 19 15 -5 20 -2 20 14 0 11 -4 23 -10 26 -5 3 -10 1
-10 -4 0 -6 -4 -11 -10 -11 -5 0 -10 12 -10 26 0 23 3 25 35 23 19 -2 36 1 37
6 2 6 -25 11 -59 13 -37 2 -63 -1 -63 -7z"/>
<path d="M270 223 c1 -25 2 -26 14 -10 7 9 18 17 23 17 15 0 25 -101 12 -117
-9 -10 -4 -13 25 -13 33 0 47 12 29 23 -14 9 -2 107 12 107 7 0 16 -7 19 -16
8 -20 19 -12 23 16 3 19 -3 20 -77 20 l-80 0 0 -27z"/>
<path d="M465 175 l0 -75 35 0 c26 0 31 3 22 12 -7 7 -12 25 -12 40 0 21 6 29
24 34 38 9 49 -3 43 -47 -5 -38 -4 -39 25 -39 23 0 29 4 24 16 -3 9 -6 42 -6
75 0 55 -1 59 -24 59 -19 0 -22 -4 -18 -25 4 -23 1 -25 -32 -25 -32 0 -36 3
-36 25 0 19 -5 25 -22 25 -22 0 -23 -4 -23 -75z"/>
<path d="M2035 140 c-9 -15 4 -30 26 -30 12 0 19 7 19 20 0 21 -33 29 -45 10z"/>
</g>
</svg>
