<?xml version="1.0" standalone="no"?>
<!DOCTYPE svg PUBLIC "-//W3C//DTD SVG 20010904//EN"
 "http://www.w3.org/TR/2001/REC-SVG-20010904/DTD/svg10.dtd">
<svg version="1.0" xmlns="http://www.w3.org/2000/svg"
 width="215.000000pt" height="372.000000pt" viewBox="0 0 215.000000 372.000000"
 preserveAspectRatio="xMidYMid meet">
<metadata>
Created by potrace 1.16, written by Peter Selinger 2001-2019
</metadata>
<g transform="translate(0.000000,372.000000) scale(0.100000,-0.100000)"
fill="#000000" stroke="none">
<path d="M54 3712 c-10 -2 -23 -8 -28 -13 -6 -5 -10 -714 -10 -1843 l-1 -1835
185 -3 c252 -5 1912 2 1929 8 11 3 12 18 7 66 -5 55 -6 478 0 1623 4 1079 5
1987 1 1991 -5 6 -2054 11 -2083 6z m2062 -69 c5 -32 -1 -2920 -6 -3001 0 -2
-5 0 -10 3 -6 4 -17 1 -25 -5 -12 -10 -18 -10 -30 0 -11 10 -18 9 -30 -4 -20
-20 -61 -21 -68 -2 -9 23 -46 26 -66 5 -18 -19 -22 -20 -89 -6 -39 8 -75 18
-80 21 -6 4 -27 -5 -48 -19 -29 -20 -51 -25 -103 -27 l-66 -2 55 -4 c63 -4
125 11 134 34 4 11 11 12 23 6 10 -6 37 -13 61 -17 27 -4 46 -13 49 -23 3 -10
16 -28 29 -42 25 -27 24 -70 -2 -70 -8 0 -13 -3 -13 -7 4 -22 -3 -24 -22 -7
-16 15 -22 16 -28 5 -11 -17 -32 -5 -25 13 3 7 -2 16 -10 19 -24 10 -19 36 9
47 15 6 25 17 25 29 0 17 -5 15 -37 -14 -44 -41 -47 -41 -117 -16 -37 13 -58
16 -70 9 -10 -5 -23 -7 -31 -4 -9 3 -12 0 -9 -8 3 -8 -5 -16 -23 -19 -15 -4
-38 -9 -50 -13 -14 -4 -23 -2 -23 5 0 6 8 11 18 11 9 1 28 8 42 16 16 10 18
13 5 8 -11 -4 -37 -9 -58 -12 -36 -4 -38 -3 -35 19 2 17 9 24 25 23 12 0 19 4
16 9 -3 5 -17 7 -32 4 -51 -10 -273 19 -325 42 -48 21 -51 21 -85 4 -45 -22
-201 -24 -246 -4 -16 8 -43 13 -58 12 -15 -2 -40 5 -55 15 -47 31 -102 93
-102 117 0 12 -7 32 -15 44 -9 12 -15 26 -14 30 4 24 -4 33 -31 33 -26 0 -30
3 -30 29 0 16 -6 31 -14 34 -7 3 -16 19 -19 36 -7 31 -29 41 -43 19 -11 -17
-13 -69 -3 -62 5 3 9 19 9 35 0 48 25 29 28 -22 4 -55 35 -93 70 -84 20 5 23
3 18 -13 -3 -10 1 -27 9 -38 8 -10 15 -29 15 -42 0 -35 -34 -24 -40 12 -6 34
-22 43 -40 21 -7 -8 -24 -15 -38 -15 -13 0 -40 -9 -58 -21 -19 -11 -34 -17
-34 -14 0 19 -29 -20 -35 -46 -5 -23 -18 -34 -61 -55 -29 -14 -70 -27 -91 -30
l-38 -4 43 14 c23 8 49 20 57 26 9 7 30 20 47 29 24 12 35 27 44 56 19 69 26
85 36 85 5 0 6 -5 3 -10 -3 -6 -1 -10 4 -10 6 0 11 16 11 35 0 29 4 35 23 36
21 1 21 1 -3 9 -14 4 -19 8 -12 9 6 1 12 11 12 22 0 21 -1 21 -20 -4 -11 -14
-20 -34 -20 -45 0 -11 -7 -25 -14 -32 -8 -6 -20 -36 -26 -65 -6 -29 -17 -58
-24 -64 -18 -15 -122 -16 -141 -1 -13 11 -19 10 -35 -5 -11 -10 -18 -21 -15
-24 4 -3 10 0 14 7 6 10 14 10 36 2 16 -6 40 -9 52 -5 25 6 31 -7 11 -22 -13
-10 -96 -33 -118 -33 -7 0 -9 381 -4 1298 3 713 5 1369 4 1457 -1 88 2 188 6
223 l6 62 1029 0 1028 0 7 -47z m-1683 -2855 c12 -6 28 -17 35 -25 7 -7 19
-13 27 -13 7 0 15 -7 19 -15 3 -8 12 -12 21 -9 9 4 17 -1 21 -10 4 -9 27 -31
52 -48 25 -17 54 -40 64 -50 18 -18 54 -29 158 -47 25 -5 68 -16 95 -25 29 -9
87 -16 135 -17 113 -1 176 -11 172 -28 -5 -24 27 -61 53 -61 13 0 27 -5 30
-11 5 -7 -37 -10 -136 -9 -79 1 -154 1 -167 1 -29 -1 -19 -21 11 -22 21 0 21
-1 2 -9 -11 -5 -84 -9 -162 -9 -79 -1 -143 -5 -143 -10 0 -11 366 -8 377 3 4
4 -1 14 -11 22 -18 12 -8 14 85 13 57 -1 115 -5 129 -9 l25 -8 -27 -1 c-39 -1
-41 -2 -61 -13 -10 -5 -16 -15 -14 -21 9 -27 -152 -36 -598 -36 -454 -1 -566
2 -586 14 -28 18 25 23 176 19 122 -3 154 -2 135 7 -14 6 -64 9 -115 8 -50 -2
-116 -2 -147 -1 l-57 2 0 116 1 117 61 -7 c38 -3 68 -2 77 5 12 8 10 9 -7 4
-12 -3 -24 -1 -28 5 -4 7 -19 9 -34 6 -30 -6 -21 -2 74 35 44 17 76 39 122 86
65 66 91 76 136 51z m766 -180 c46 -4 87 -11 90 -14 3 -3 -4 -13 -16 -21 -13
-9 -23 -22 -23 -31 0 -12 -10 -14 -62 -8 -35 4 -91 6 -125 6 -56 -1 -123 10
-163 27 -8 4 -40 12 -70 19 -98 22 -132 32 -143 43 -19 19 -4 20 53 4 65 -17
214 -12 257 9 25 12 33 12 73 -5 24 -11 83 -24 129 -29z m737 -8 c0 -19 4 -42
8 -51 4 -9 -1 -34 -10 -56 -17 -39 -19 -40 -47 -31 -20 8 -25 14 -18 21 19 19
13 75 -9 87 -27 14 -27 44 0 37 13 -3 21 1 26 15 4 13 13 18 27 16 18 -2 22
-10 23 -38z m136 18 c7 7 18 12 25 12 11 0 13 -18 11 -77 l-3 -76 -30 -4 c-28
-3 -28 -2 -10 9 11 7 21 23 23 35 3 18 -3 22 -30 25 l-33 4 25 11 c29 13 10
16 -40 7 -22 -5 -28 -9 -18 -15 10 -7 10 -9 -3 -9 -19 0 -44 43 -35 59 4 6 17
11 29 11 12 0 29 4 37 10 9 5 19 5 28 -2 9 -8 16 -8 24 0z m-704 -45 c5 -10
10 -33 10 -52 1 -36 12 -58 12 -23 0 12 5 22 10 22 15 0 12 -46 -3 -58 -19
-16 -115 -13 -132 5 -17 17 -19 39 -5 48 6 3 10 13 10 21 0 43 80 73 98 37z
m287 -35 c55 -11 87 -33 83 -56 -2 -9 7 -18 21 -22 25 -6 37 -35 20 -46 -15
-9 -429 8 -423 17 3 5 12 9 21 9 18 0 53 37 53 55 0 6 19 17 43 24 23 7 53 19
67 27 14 8 34 11 45 8 11 -3 43 -10 70 -16z m375 -24 c0 -9 -9 -18 -20 -21
-21 -6 -28 -33 -9 -33 8 0 8 -5 -1 -15 -7 -8 -25 -15 -41 -15 -26 0 -27 2 -19
29 15 55 29 71 60 71 21 0 30 -5 30 -16z m-153 -71 c2 -6 -4 -13 -14 -16 -10
-2 -26 -8 -35 -12 -13 -5 -18 -2 -18 9 0 27 59 44 67 19z m227 -8 c4 -11 -2
-15 -24 -15 -35 0 -40 17 -7 23 12 2 23 5 23 6 1 0 4 -6 8 -14z m-224 -40 c0
-10 -10 -15 -29 -15 -39 0 -49 17 -14 23 16 2 31 5 36 6 4 0 7 -6 7 -14z m106
0 c-34 -18 -67 -16 -74 3 -2 8 11 12 50 12 l53 0 -29 -15z m104 11 c0 -11 -19
-15 -25 -6 -3 5 1 10 9 10 9 0 16 -2 16 -4z m-636 -18 c-3 -4 10 -8 28 -7 31
1 32 1 8 9 -19 6 -12 8 30 8 47 0 51 -2 25 -9 -21 -6 -14 -6 25 -3 87 9 160
10 152 2 -4 -4 -27 -8 -52 -11 -28 -2 -13 -4 37 -5 69 -2 81 -4 77 -17 -4 -11
0 -15 16 -15 16 0 20 4 16 15 -4 12 3 15 30 15 28 0 35 -3 32 -17 -2 -10 2
-22 9 -28 9 -7 -68 -10 -237 -9 -137 0 -247 -2 -244 -5 3 -3 162 -8 352 -11
l347 -5 3 -88 c3 -79 1 -88 -15 -85 -10 2 -19 -4 -21 -14 -2 -13 3 -18 17 -18
14 0 21 -6 21 -20 0 -20 -7 -20 -342 -21 -189 0 -474 -2 -634 -4 l-292 -3 6
41 c3 23 9 43 13 45 5 2 9 11 9 19 0 9 -6 13 -15 10 -18 -8 -32 13 -15 23 15
9 5 30 -15 30 -21 0 -25 -27 -10 -64 20 -48 19 -73 -5 -86 -21 -11 -753 -11
-764 0 -3 3 -8 58 -12 123 l-7 117 24 1 c13 0 316 0 672 -1 445 0 647 3 642
10 -3 5 -43 11 -88 11 -45 1 -73 3 -62 6 11 2 30 6 43 9 26 5 30 23 5 25 -10
1 -4 5 12 8 17 4 34 4 40 -1 13 -11 47 -10 40 2 -3 6 1 10 10 10 9 0 13 5 10
11 -5 6 9 9 39 8 24 -2 43 -6 40 -11z m566 -34 c0 -21 4 -33 10 -29 6 4 10 12
9 18 -4 37 1 43 37 39 33 -4 35 -6 32 -36 l-3 -31 -95 0 -95 0 -3 28 c-3 25
-1 27 32 27 20 0 36 -4 36 -10 0 -5 5 -10 10 -10 6 0 10 9 10 20 0 11 5 20 10
20 6 0 10 -16 10 -36z"/>
<path d="M726 3589 c-9 -16 -13 -29 -8 -29 6 0 12 7 16 15 9 23 24 18 41 -14
16 -32 2 -56 -17 -30 -8 11 -9 10 -4 -3 3 -12 0 -18 -9 -18 -8 0 -15 9 -15 20
0 11 -5 20 -11 20 -21 0 -3 -45 24 -58 33 -16 34 -32 4 -60 -15 -14 -27 -18
-37 -12 -23 14 -47 -6 -58 -52 -13 -51 -10 -57 25 -49 47 10 65 26 67 59 2 45
11 47 36 8 15 -25 20 -45 16 -63 -4 -17 0 -40 10 -58 22 -42 32 -222 26 -457
-4 -179 -6 -198 -22 -198 -11 0 -20 10 -23 29 -3 15 -17 42 -31 59 -32 37 -32
46 -1 66 25 16 32 47 19 80 -9 23 -21 20 -54 -14 -34 -34 -37 -55 -14 -88 17
-24 9 -27 -30 -12 -14 5 -34 26 -43 46 -10 20 -21 36 -25 35 -5 0 -18 -1 -30
-1 -13 0 -36 -12 -53 -27 l-29 -26 24 -19 c24 -19 52 -20 95 -3 20 8 20 8 1
-13 -17 -20 -18 -27 -7 -62 6 -22 16 -40 21 -40 10 0 60 58 60 71 0 16 36 9
55 -11 9 -10 18 -33 20 -50 1 -17 7 -36 14 -43 6 -6 11 -15 11 -21 0 -5 6 -17
14 -25 11 -13 15 -90 20 -361 l7 -344 -23 -18 -23 -17 23 6 c23 6 24 5 18 -48
-3 -30 -5 -57 -6 -61 0 -4 -8 -5 -17 -2 -17 5 -17 5 0 -9 24 -20 24 -97 0 -98
-15 0 -14 -2 3 -9 49 -19 104 -109 90 -145 -3 -9 0 -15 10 -15 25 0 74 -33 74
-50 0 -11 -2 -12 -8 -2 -21 32 -112 23 -112 -11 0 -5 8 -3 18 6 33 30 82 18
82 -19 0 -18 -6 -24 -22 -24 -22 -1 -23 -1 -4 -15 19 -14 19 -15 -6 -15 -39 0
-58 -10 -58 -31 0 -25 16 -24 23 1 6 23 42 27 50 6 12 -31 -107 -52 -168 -31
-57 21 -68 17 -17 -6 34 -14 56 -18 96 -13 61 7 96 -6 96 -37 0 -11 4 -17 10
-14 16 10 12 36 -7 51 -17 12 -17 14 5 30 17 12 22 22 18 39 -4 15 -1 25 9 29
9 3 15 18 15 36 0 16 5 30 10 30 6 0 10 -4 10 -9 0 -5 7 -12 15 -15 9 -3 2 11
-14 32 -29 36 -34 54 -46 170 -3 29 -12 70 -21 90 -31 70 -44 136 -38 182 7
47 37 90 63 90 11 0 6 -8 -13 -23 -26 -21 -28 -27 -22 -61 7 -36 9 -38 41 -34
29 3 35 0 40 -21 7 -29 44 -84 86 -129 8 -9 29 -35 45 -57 16 -22 44 -54 61
-72 18 -18 37 -48 42 -66 5 -17 10 -26 10 -19 1 9 12 11 39 7 l37 -6 -37 18
c-32 16 -77 64 -142 152 -11 14 -44 56 -73 93 -46 56 -56 77 -69 139 -18 86
-19 89 -45 89 -23 0 -24 25 -9 168 9 81 20 120 61 217 4 11 9 29 11 40 4 25
35 32 40 9 4 -20 88 -49 88 -30 0 6 3 21 6 33 4 16 -1 26 -20 38 -24 16 -28
16 -52 0 -34 -22 -40 -13 -20 30 18 37 13 60 -10 51 -15 -6 -18 11 -8 38 10
27 33 18 42 -16 7 -25 11 -29 16 -16 4 9 0 31 -10 49 l-17 33 -30 -35 c-17
-18 -36 -33 -43 -31 -6 1 -14 -6 -18 -15 -3 -10 -8 -23 -11 -29 -3 -6 7 -23
22 -38 l27 -28 -24 -19 c-33 -25 -37 -24 -42 9 -5 39 -2 253 7 427 9 191 11
355 5 354 -15 -2 -43 -18 -32 -18 6 -1 12 -8 12 -16 0 -9 -6 -12 -17 -9 -17 5
-17 5 0 -9 23 -19 22 -26 -5 -21 -18 3 -17 1 5 -8 21 -9 27 -18 27 -44 0 -24
-5 -34 -20 -39 -11 -3 -23 -4 -27 -2 -5 3 -17 1 -28 -4 -18 -7 -17 -8 6 -8 48
-2 60 -37 57 -159 -2 -73 -7 -107 -15 -107 -6 0 -15 -3 -19 -7 -4 -5 0 -8 9
-8 15 0 17 -19 17 -179 0 -163 -2 -180 -20 -204 -23 -29 -26 -41 -7 -31 9 6 9
4 0 -7 -7 -7 -13 -17 -13 -22 0 -13 53 32 67 56 15 28 17 8 2 -30 -6 -15 -13
-39 -15 -53 -9 -49 -13 -55 -28 -34 -14 18 -15 18 -21 -9 -6 -21 -3 -31 11
-42 17 -13 17 -16 4 -25 -10 -6 -11 -10 -2 -10 19 0 14 -38 -5 -43 -17 -4 -17
-5 0 -6 15 -1 18 -8 15 -43 -2 -24 -9 -43 -17 -46 -9 -3 -11 0 -6 8 5 9 4 11
-4 6 -15 -10 -3 -29 15 -22 24 9 16 -40 -12 -81 -24 -35 -26 -44 -21 -108 3
-38 8 -77 12 -86 4 -10 0 -19 -9 -22 -9 -4 -15 -1 -13 5 1 7 -11 15 -28 18
-28 5 -29 6 -10 18 l20 11 -20 1 -20 1 20 9 c17 7 17 9 3 9 -10 1 -18 6 -18
11 0 6 8 10 18 11 10 0 12 3 5 6 -7 2 -13 9 -13 14 0 6 5 7 12 3 7 -5 9 -2 5
9 -3 9 -1 18 6 21 7 2 4 5 -7 5 -15 1 -16 4 -6 16 10 12 10 15 -4 15 -9 0 -16
5 -16 10 0 6 5 10 11 10 7 0 9 9 5 24 -4 15 -1 26 7 29 9 4 9 6 0 6 -20 1 -15
21 5 21 15 1 15 2 2 13 -16 13 -20 73 -7 95 5 7 3 12 -4 12 -6 0 -9 8 -6 20 3
10 0 21 -7 24 -8 3 -7 7 3 14 11 8 11 11 0 16 -11 5 -11 7 -1 12 10 5 10 9 0
22 -11 14 -10 15 6 9 15 -6 17 -4 11 10 -4 10 -7 26 -7 36 0 9 -3 17 -9 17 -5
0 -9 11 -9 25 0 14 5 25 11 25 8 0 8 4 0 14 -9 11 -9 15 1 19 10 4 10 8 -2 16
-13 9 -12 11 3 11 10 0 15 5 12 10 -4 6 -11 8 -16 5 -5 -4 -9 -2 -9 4 0 5 8
12 18 14 16 4 16 5 0 6 -22 1 -24 21 -2 21 8 0 12 5 9 10 -4 6 -11 8 -16 5 -5
-4 -9 -2 -9 4 0 5 6 12 13 14 9 4 8 8 -3 16 -12 8 -12 13 -2 23 19 19 14 38
-13 48 -30 12 -35 50 -6 50 20 0 35 25 25 41 -3 5 0 9 7 9 9 0 9 3 0 14 -9 11
-9 15 1 19 10 4 10 8 -2 16 -13 9 -13 11 -1 11 12 0 12 3 3 12 -17 17 -15 29
3 22 8 -4 15 -1 15 5 0 6 -7 11 -15 11 -21 0 -19 20 3 21 14 0 14 2 -3 9 -17
7 -17 9 -2 9 9 1 17 5 17 10 0 5 -8 12 -17 14 -17 4 -17 5 0 6 10 1 17 9 17
21 0 12 -7 20 -17 20 -16 0 -16 2 -3 11 11 8 12 12 3 16 -16 6 -17 45 -1 61 9
9 9 12 -2 12 -13 0 -13 2 0 11 12 8 12 12 2 16 -10 4 -9 9 5 20 17 13 17 14 1
9 -10 -3 -18 -1 -18 5 0 6 10 14 23 17 22 6 22 6 -3 13 -24 7 -25 7 -2 8 14 1
20 5 17 12 -4 6 -13 8 -21 5 -20 -8 -17 11 4 23 16 10 15 10 -3 11 -15 0 -17
2 -6 9 11 7 11 9 0 14 -10 4 -9 6 3 6 10 1 15 7 12 15 -3 8 3 16 15 19 26 6
18 37 -9 37 -42 0 -92 105 -60 125 6 3 10 -3 10 -14 0 -30 16 -33 29 -5 14 32
14 34 -4 34 -19 0 -19 14 0 30 32 26 121 -46 100 -81 -5 -8 -4 -10 3 -5 25 15
3 86 -27 86 -6 0 -11 5 -11 10 0 7 7 7 20 0 11 -6 26 -8 32 -4 7 5 9 2 5 -9
-3 -9 -2 -19 3 -22 6 -4 10 -1 10 6 0 25 30 -14 36 -47 9 -51 -1 -77 -43 -103
-35 -21 -36 -22 -9 -16 23 5 27 3 22 -10 -14 -36 17 0 36 42 23 52 18 108 -13
147 -29 37 -116 46 -162 17 -30 -18 -36 -19 -47 -6 -19 23 -2 36 35 29 30 -5
39 -2 65 25 36 35 32 51 -11 51 l-30 0 20 26 c12 15 21 34 21 43 0 24 -68 16
-97 -11 l-21 -20 -6 29 c-4 16 -15 34 -25 40 -15 9 -20 7 -35 -18z m174 -29
c0 -15 -46 -60 -61 -60 -8 0 -8 4 1 15 8 9 9 15 2 15 -6 0 -14 -5 -18 -11 -4
-7 -9 -8 -17 0 -16 16 9 39 46 44 18 2 35 5 40 5 4 1 7 -3 7 -8z m-105 -70
c-5 -8 -11 -8 -17 -2 -6 6 -7 16 -3 22 5 8 11 8 17 2 6 -6 7 -16 3 -22z m30
-22 c-15 -48 -43 -51 -31 -3 4 14 13 25 22 25 11 0 14 -6 9 -22z m87 7 c0 -16
-49 -48 -62 -40 -9 6 -9 10 1 16 10 6 11 9 2 9 -22 0 -14 18 10 23 31 6 48 4
49 -8z m-217 -87 c-6 -19 -5 -21 6 -10 19 17 29 15 29 -7 0 -19 -18 -31 -46
-31 -17 0 -19 41 -2 58 17 17 20 15 13 -10z m200 -188 c3 -5 1 -10 -4 -10 -6
0 -11 5 -11 10 0 6 2 10 4 10 3 0 8 -4 11 -10z m-135 -390 c0 -18 -7 -33 -19
-39 -33 -18 -44 18 -14 51 23 26 33 22 33 -12z m-152 -36 c-3 -33 -29 -47 -63
-34 l-27 10 24 25 c12 14 33 25 45 25 18 0 22 -5 21 -26z m62 -94 c0 -17 -19
-40 -31 -40 -10 0 -22 57 -14 70 8 14 45 -11 45 -30z m374 -216 c3 -9 3 -20 0
-25 -8 -13 -34 9 -34 27 0 19 26 18 34 -2z m110 -80 c11 -28 7 -34 -24 -34
-16 0 -30 5 -30 10 0 6 10 10 21 10 18 0 19 2 9 15 -10 12 -10 15 3 15 8 0 18
-7 21 -16z m-144 -535 c0 -36 -2 -40 -22 -37 -19 2 -24 10 -26 41 -3 34 -1 37
22 37 24 0 26 -4 26 -41z m-150 -163 c0 -3 -4 -8 -10 -11 -5 -3 -10 -1 -10 4
0 6 5 11 10 11 6 0 10 -2 10 -4z m80 -42 c0 -10 -6 -13 -17 -10 -10 3 -25 1
-33 -4 -12 -7 -8 -10 14 -10 21 0 27 -4 22 -15 -3 -8 0 -15 7 -15 8 0 8 -3 -2
-9 -9 -6 -10 -10 -2 -16 11 -6 14 -100 3 -119 -3 -5 -11 9 -18 30 -7 21 -11
41 -8 46 3 4 -2 8 -11 8 -12 0 -15 5 -11 16 4 11 2 15 -6 11 -7 -2 -19 2 -27
10 -11 12 -10 15 8 20 24 6 26 14 9 31 -8 8 -5 14 14 21 15 5 29 15 33 21 8
14 25 3 25 -16z m-85 6 c3 -5 1 -10 -4 -10 -6 0 -11 5 -11 10 0 6 2 10 4 10 3
0 8 -4 11 -10z m112 -105 c2 -19 -2 -35 -7 -35 -6 0 -10 16 -10 35 0 45 14 45
17 0z m7 -134 c-9 -12 -20 13 -16 36 l6 28 6 -30 c4 -16 5 -32 4 -34z"/>
<path d="M982 3330 c0 -14 2 -19 5 -12 2 6 2 18 0 25 -3 6 -5 1 -5 -13z"/>
<path d="M607 3120 c-22 -37 -22 -73 1 -93 25 -23 45 -21 71 7 28 29 24 56 -9
73 -14 7 -30 19 -36 27 -9 12 -13 10 -27 -14z m23 -9 c0 -5 11 -12 25 -15 14
-4 25 -11 25 -16 0 -6 0 -13 0 -17 0 -5 -6 -9 -13 -9 -6 -1 -16 -2 -22 -3 -5
-1 -3 -6 5 -11 12 -8 11 -10 -6 -10 -12 0 -25 7 -28 16 -10 25 -7 74 4 74 6 0
10 -4 10 -9z"/>
<path d="M930 3066 c0 -2 9 -6 20 -9 11 -3 20 -1 20 4 0 5 -9 9 -20 9 -11 0
-20 -2 -20 -4z"/>
<path d="M1192 2975 c-7 -14 -12 -33 -12 -41 0 -24 31 -64 50 -64 19 0 60 44
60 65 0 17 -33 45 -53 45 -9 0 -17 5 -17 10 0 19 -17 10 -28 -15z m59 -15 c11
-6 19 -21 19 -35 0 -25 -14 -33 -25 -15 -3 6 -11 10 -17 10 -6 0 -6 -6 2 -15
15 -18 5 -34 -10 -19 -14 14 -30 71 -22 78 8 9 31 7 53 -4z"/>
<path d="M884 2955 c-21 -32 -12 -55 22 -55 22 0 25 -2 14 -15 -20 -24 5 -17
26 7 17 19 17 21 2 15 -10 -4 -18 -2 -18 4 0 6 -5 7 -12 3 -7 -5 -8 -3 -3 6 4
7 2 16 -6 21 -7 4 -10 12 -5 16 4 4 13 0 20 -10 16 -21 26 -22 26 -2 0 12 -28
35 -44 35 -3 0 -13 -11 -22 -25z"/>
<path d="M945 2850 c3 -5 8 -10 11 -10 2 0 4 5 4 10 0 6 -5 10 -11 10 -5 0 -7
-4 -4 -10z"/>
<path d="M1059 2833 c-13 -35 -5 -65 21 -81 17 -10 25 -10 50 3 16 8 32 19 35
25 12 19 -6 50 -33 56 -15 3 -35 10 -45 15 -14 8 -19 4 -28 -18z m72 -13 c10
-6 19 -20 19 -31 0 -16 -5 -18 -26 -13 -19 5 -25 4 -20 -5 4 -6 3 -11 -1 -11
-16 0 -33 24 -33 47 0 25 26 31 61 13z"/>
<path d="M1148 2684 c-9 -18 -7 -29 6 -50 16 -23 22 -25 54 -19 36 6 62 27 62
49 0 23 -17 33 -63 38 -44 5 -50 3 -59 -18z m99 -10 c3 -8 2 -21 -1 -30 -6
-15 -8 -15 -26 1 -18 16 -20 16 -20 2 0 -10 -4 -17 -8 -17 -14 0 -32 23 -32
41 0 12 9 16 41 16 25 0 43 -5 46 -13z"/>
<path d="M868 2593 c7 -3 16 -2 19 1 4 3 -2 6 -13 5 -11 0 -14 -3 -6 -6z"/>
<path d="M1439 2576 c-75 -27 -142 -88 -159 -146 -29 -100 -3 -220 63 -288 23
-24 31 -42 32 -72 1 -42 27 -80 54 -80 12 0 10 4 -6 15 -11 8 -21 25 -21 37 0
13 -1 30 -3 38 -6 22 60 15 86 -9 11 -10 34 -26 50 -34 28 -15 29 -16 6 -17
-61 -1 -140 -89 -149 -166 -8 -72 5 -112 53 -159 l43 -44 -23 -15 c-33 -22
-50 -77 -35 -118 18 -54 46 -81 75 -74 33 8 32 -9 -1 -30 -39 -26 -64 -85 -64
-150 0 -54 2 -59 40 -95 24 -23 54 -41 75 -45 35 -6 35 -7 16 -21 -29 -20 -27
-61 3 -75 31 -13 56 -4 55 19 -1 17 -2 17 -6 1 -5 -21 -24 -23 -41 -6 -19 19
-14 49 8 55 11 3 20 9 20 14 0 5 8 9 18 9 23 0 68 -47 76 -80 6 -23 6 -23 -7
-7 -24 29 -30 19 -10 -15 24 -44 19 -72 -24 -114 -28 -28 -41 -34 -60 -30 -15
4 -29 1 -39 -9 -35 -35 -131 -9 -183 50 -33 38 -38 54 -19 73 16 16 2 28 -17
12 -12 -10 -20 -9 -40 4 -42 28 -30 106 16 106 11 0 19 -9 21 -22 4 -29 63
-68 102 -68 36 0 76 24 76 45 0 9 -9 6 -25 -10 -28 -29 -43 -30 -90 -11 -31
14 -66 59 -53 71 2 3 36 9 74 13 54 7 35 8 -91 6 -88 -2 -167 -5 -175 -8 -8
-2 -33 -9 -55 -15 l-40 -10 40 5 c22 2 73 7 114 11 l73 5 -17 -29 c-11 -20
-31 -33 -60 -42 -128 -38 -167 -223 -69 -331 39 -43 83 -62 158 -65 28 -2 66
-9 83 -16 29 -12 37 -11 78 9 33 16 50 32 61 57 8 19 19 35 25 35 20 0 59 53
59 81 0 20 9 34 33 51 44 31 65 57 75 93 7 24 14 29 33 28 13 -2 43 -4 66 -5
39 -3 43 -5 43 -29 0 -19 -6 -28 -21 -32 -12 -3 -18 -10 -15 -16 4 -5 1 -13
-5 -17 -8 -4 -9 -3 -5 4 8 14 -6 16 -19 3 -13 -12 -107 -31 -118 -24 -5 3 -8
0 -5 -8 12 -36 129 -15 173 30 14 16 28 43 31 63 l6 34 -51 0 c-59 0 -97 18
-105 50 -8 30 -54 84 -72 84 -18 0 -18 3 6 42 24 39 26 81 5 98 -17 14 -21 0
-4 -17 15 -15 5 -52 -22 -86 -40 -52 -145 -22 -175 49 -33 78 -15 127 77 215
49 47 69 73 69 91 0 27 -27 58 -51 58 -18 0 -39 -19 -39 -36 0 -17 31 -27 44
-14 8 8 6 9 -6 5 -12 -5 -18 -2 -18 8 0 35 44 30 54 -5 5 -22 -9 -58 -28 -70
-20 -14 -74 -8 -94 10 -12 10 -22 34 -25 60 -5 39 -3 44 36 77 26 23 51 35 71
36 17 0 40 2 50 4 11 2 31 -8 47 -25 16 -16 31 -24 34 -20 6 10 -25 45 -46 52
-10 4 -4 14 19 35 43 42 45 92 3 134 -36 35 -61 37 -98 5 -23 -20 -26 -28 -17
-43 6 -10 22 -19 35 -20 l24 -3 -22 10 c-30 13 -30 47 1 61 17 8 29 8 42 0 12
-6 14 -11 5 -11 -9 0 -6 -6 7 -17 29 -24 32 -81 7 -111 -39 -45 -139 -49 -182
-7 -37 37 -63 91 -63 128 0 45 35 127 54 127 7 0 19 11 26 25 7 14 17 25 22
25 5 0 6 -4 3 -10 -3 -5 -1 -10 4 -10 6 0 11 4 11 9 0 16 62 31 99 26 71 -12
81 -16 116 -46 19 -17 35 -26 35 -20 0 20 38 12 70 -15 23 -20 28 -29 18 -35
-10 -7 -10 -11 0 -21 9 -9 12 -9 12 3 1 8 7 3 15 -11 16 -28 20 -54 6 -46 -5
3 -12 -11 -16 -31 -3 -20 -17 -52 -30 -72 -14 -19 -23 -37 -21 -39 8 -8 45 19
66 48 25 36 33 37 71 9 26 -18 43 -49 19 -34 -18 11 -11 -11 11 -34 20 -21 21
-26 9 -64 -8 -23 -20 -54 -29 -69 -21 -38 -4 -49 24 -16 30 35 41 107 26 158
-12 41 -48 76 -88 86 -20 5 -23 12 -23 54 0 74 -55 139 -130 154 -14 2 -43 14
-65 25 -21 12 -52 21 -67 21 -16 0 -55 12 -87 26 -51 23 -60 31 -70 64 -6 21
-9 46 -5 56 3 11 -1 8 -10 -6 l-15 -25 -1 28 c0 15 4 27 9 27 8 0 21 47 22 82
1 31 54 65 122 78 59 11 68 10 104 -9 49 -25 74 -61 81 -117 4 -36 0 -46 -21
-68 -32 -32 -77 -35 -84 -6 -6 23 -23 27 -23 6 0 -24 28 -39 62 -32 89 18 98
18 104 1 4 -9 18 -21 32 -26 14 -5 22 -12 18 -16 -3 -3 2 -15 11 -25 11 -12
18 -36 18 -64 0 -43 8 -57 18 -31 4 8 6 7 6 -4 1 -8 -6 -24 -14 -35 -21 -27
-18 -40 4 -20 26 24 39 3 45 -73 6 -74 11 -84 26 -45 14 37 5 85 -23 120 -15
19 -22 43 -23 74 -1 65 -29 116 -79 145 -23 14 -49 25 -58 25 -20 0 -20 1 -7
35 23 62 -39 164 -109 180 -25 5 -29 11 -29 39 0 36 -17 76 -32 76 -5 0 -21
18 -35 40 -41 65 -93 82 -166 56z m101 -21 c33 -5 69 -55 39 -55 -5 0 -29 -9
-52 -19 -62 -28 -107 -84 -107 -131 0 -32 16 -16 43 44 28 60 64 86 119 86 42
0 54 -8 67 -43 16 -41 14 -55 -10 -67 -30 -17 -69 -4 -69 21 0 15 5 19 15 15
8 -3 15 -1 15 5 0 6 -10 9 -22 7 -26 -3 -37 -36 -16 -50 10 -7 10 -11 1 -14
-34 -14 -78 -53 -95 -84 -14 -26 -18 -51 -16 -98 3 -53 1 -62 -14 -62 -23 0
-66 48 -77 85 -5 17 -10 22 -10 12 -2 -34 -20 -7 -27 39 -4 31 -9 42 -15 33
-13 -21 -11 58 2 84 9 19 7 18 -10 -3 l-20 -25 9 38 c4 21 16 48 27 59 16 19
16 21 1 15 -34 -12 -6 23 38 49 24 14 42 29 39 34 -5 9 29 20 63 20 15 0 21 4
16 12 -5 8 0 9 17 4 13 -4 35 -9 49 -11z m-233 -317 c-3 -8 -6 -5 -6 6 -1 11
2 17 5 13 3 -3 4 -12 1 -19z m-38 -1223 c11 -19 27 -35 35 -35 8 0 26 -20 40
-44 14 -25 38 -53 54 -64 37 -26 110 -43 155 -35 35 5 37 4 37 -21 0 -31 -32
-66 -60 -66 -16 0 -20 -7 -20 -30 0 -23 -7 -35 -32 -50 -35 -21 -83 -26 -108
-10 -12 7 -12 11 3 28 23 25 32 83 18 111 -14 26 -78 30 -88 6 -9 -24 5 -31
20 -11 11 15 17 17 35 7 55 -29 5 -131 -63 -131 -44 0 -114 39 -149 83 -28 35
-31 46 -31 110 0 93 21 138 78 166 23 11 45 20 49 21 3 0 15 -16 27 -35z m526
-135 c-3 -5 -14 -10 -23 -9 -14 0 -13 2 3 9 27 11 27 11 20 0z m-52 -17 c-7
-2 -21 -2 -30 0 -10 3 -4 5 12 5 17 0 24 -2 18 -5z"/>
<path d="M1550 2463 c-26 -10 -70 -44 -70 -55 0 -5 14 2 31 16 17 14 37 26 45
26 8 0 14 5 14 10 0 6 -1 10 -2 9 -2 0 -10 -3 -18 -6z"/>
<path d="M552 2384 c-2 -62 11 -84 48 -84 22 0 33 7 45 29 20 40 11 57 -42 81
-25 11 -47 20 -48 20 -1 0 -3 -21 -3 -46z m77 -9 c8 -8 11 -21 7 -30 -5 -15
-9 -15 -23 -4 -14 12 -15 11 -9 -9 4 -13 3 -22 -3 -22 -15 0 -31 34 -31 65 0
23 3 25 23 20 12 -4 28 -13 36 -20z"/>
<path d="M400 2267 c0 -76 57 -99 90 -37 14 26 -4 60 -31 60 -11 0 -29 5 -40
10 -17 10 -19 7 -19 -33z m68 1 c18 -18 14 -38 -8 -38 -14 0 -18 -5 -13 -17 4
-11 3 -14 -6 -9 -16 10 -33 55 -25 67 8 13 38 11 52 -3z"/>
<path d="M1693 2239 c21 -12 23 -41 2 -33 -8 4 -15 1 -15 -5 0 -14 37 -15 45
-1 9 15 -14 50 -33 50 -16 -1 -16 -1 1 -11z"/>
<path d="M1626 2224 c-25 -25 -30 -61 -12 -90 17 -25 60 -48 80 -41 6 2 -3 7
-20 11 -51 12 -71 79 -34 116 11 11 16 20 11 20 -5 0 -17 -7 -25 -16z"/>
<path d="M1052 2158 c-16 -16 -15 -63 1 -77 8 -6 28 -14 45 -17 24 -5 32 -2
41 14 15 28 15 27 -19 62 -32 32 -49 37 -68 18z m87 -59 c2 -14 -33 -19 -41
-7 -6 10 -10 10 -17 -1 -7 -11 -11 -10 -20 7 -9 16 -8 26 1 41 12 19 13 19 44
-7 18 -15 33 -30 33 -33z"/>
<path d="M586 2144 c-22 -57 6 -104 52 -88 38 13 42 51 7 64 -14 5 -28 17 -31
25 -8 19 -20 19 -28 -1z m48 -35 c27 -5 33 -29 7 -29 -12 0 -21 -6 -21 -12 -1
-7 -8 -1 -16 15 -14 26 -10 62 5 39 3 -5 15 -11 25 -13z"/>
<path d="M918 2033 c7 -3 16 -2 19 1 4 3 -2 6 -13 5 -11 0 -14 -3 -6 -6z"/>
<path d="M918 2013 c7 -3 16 -2 19 1 4 3 -2 6 -13 5 -11 0 -14 -3 -6 -6z"/>
<path d="M1790 1855 c17 -44 12 -107 -11 -145 l-21 -35 21 19 c12 11 26 37 32
58 11 44 1 119 -19 126 -9 3 -10 -3 -2 -23z"/>
<path d="M750 1790 c-8 -5 -10 -10 -5 -10 6 0 17 5 25 10 8 5 11 10 5 10 -5 0
-17 -5 -25 -10z"/>
<path d="M685 1755 c-20 -19 -25 -34 -25 -74 0 -43 -4 -52 -29 -71 -25 -17
-31 -30 -37 -76 -5 -47 -4 -58 14 -77 20 -22 20 -22 1 -46 -37 -45 -17 -141
30 -141 8 0 9 -5 1 -19 -15 -29 -12 -66 8 -83 9 -9 49 -26 88 -39 l71 -23 6
-185 c7 -196 9 -201 58 -201 50 0 57 21 66 205 l8 170 60 6 60 5 -60 5 c-59 4
-59 4 -61 37 -2 35 -19 62 -39 62 -22 0 -58 -36 -52 -51 4 -10 8 -7 13 9 5 18
13 22 33 20 45 -5 38 -35 -11 -49 -57 -16 -88 -15 -159 6 -64 20 -82 39 -77
83 3 23 7 27 32 25 37 -3 23 11 -27 27 -50 16 -64 46 -48 100 6 22 18 40 25
40 8 0 38 -16 66 -35 29 -20 55 -33 58 -30 6 6 10 3 -66 54 -83 56 -94 75 -83
136 12 63 46 88 56 40 3 -14 7 -35 10 -47 6 -28 122 -109 175 -122 14 -4 3 5
-23 19 -40 22 -46 29 -37 41 24 28 66 9 83 -36 4 -10 6 -9 6 6 2 43 -56 68
-97 43 -15 -9 -26 -7 -59 14 -38 24 -40 29 -45 84 -3 32 -3 82 0 111 4 44 9
55 31 67 14 8 20 14 13 15 -7 0 -24 -11 -37 -25z m224 -651 c-7 -9 -8 -14 -1
-14 11 0 11 -18 -1 -37 -5 -7 -4 -13 1 -13 21 0 22 -33 2 -52 -24 -22 -26 -32
-5 -24 23 8 32 -24 11 -39 -13 -10 -14 -14 -4 -18 9 -4 10 -8 2 -14 -19 -14
-24 -43 -11 -64 10 -16 9 -21 -3 -29 -23 -14 -30 -2 -23 45 4 31 2 45 -6 45
-6 0 -11 -5 -11 -11 0 -5 -5 -7 -10 -4 -6 3 -8 17 -6 31 3 13 1 24 -3 24 -14
0 -9 44 7 58 16 13 16 13 0 8 -10 -3 -18 -1 -18 4 0 5 8 14 18 19 16 10 16 10
-1 11 -22 0 -13 18 17 31 21 9 21 10 -1 5 -13 -2 -23 0 -23 5 0 5 8 9 18 10
14 0 14 2 -3 9 -18 8 -18 9 -2 9 10 1 16 5 13 10 -8 12 14 19 37 13 14 -3 15
-7 6 -18z m-49 -279 c0 -19 -4 -35 -8 -35 -6 0 -9 55 -3 68 5 12 11 -5 11 -33z
m8 -66 c12 -18 11 -20 -5 -17 -10 2 -19 11 -21 21 -5 23 10 21 26 -4z"/>
<path d="M1717 1654 c-40 -21 -28 -28 16 -9 46 19 61 19 104 -2 46 -22 93 -94
93 -144 0 -53 -26 -107 -63 -129 -17 -11 -28 -20 -23 -20 23 0 77 48 87 77 13
41 21 46 53 31 39 -17 70 -74 67 -120 -1 -21 3 -38 9 -38 15 0 12 -95 -4 -133
-8 -18 -21 -41 -31 -52 -9 -11 -14 -14 -10 -7 11 21 -6 13 -26 -12 -27 -34
-80 -65 -131 -76 l-43 -9 50 4 c37 4 46 2 35 -6 -31 -21 35 4 70 27 76 51 96
78 115 160 16 68 7 141 -24 202 -21 42 -68 82 -95 82 -11 0 -16 10 -16 33 -1
39 -43 103 -89 134 -40 27 -102 30 -144 7z m283 -574 c0 -11 -69 -60 -85 -60
-5 0 4 8 20 18 17 11 36 26 44 35 15 19 21 21 21 7z"/>
<path d="M1358 1433 c7 -3 16 -2 19 1 4 3 -2 6 -13 5 -11 0 -14 -3 -6 -6z"/>
<path d="M1732 1418 c-18 -18 -15 -32 11 -56 16 -15 35 -22 58 -21 30 2 31 2
7 6 -16 2 -28 10 -28 17 0 21 -27 40 -34 24 -3 -7 -4 -1 -1 15 6 30 4 32 -13
15z"/>
<path d="M787 1329 c5 -5 34 -11 64 -14 30 -2 43 -2 29 1 -14 3 -42 9 -64 14
-24 5 -35 5 -29 -1z"/>
<path d="M791 1274 c0 -11 3 -14 6 -6 3 7 2 16 -1 19 -3 4 -6 -2 -5 -13z"/>
<path d="M2037 1217 c-4 -10 -7 -26 -7 -35 1 -15 2 -15 11 1 6 10 9 25 7 35
-3 16 -4 15 -11 -1z"/>
<path d="M794 1165 c-1 -14 2 -22 7 -19 11 6 12 44 2 44 -5 0 -9 -11 -9 -25z"/>
<path d="M1680 963 c0 -6 -17 -28 -37 -48 -29 -29 -32 -33 -11 -21 29 19 63
64 54 74 -3 3 -6 1 -6 -5z"/>
<path d="M1755 910 c-13 -6 -15 -9 -5 -9 8 0 22 4 30 9 18 12 2 12 -25 0z"/>
<path d="M1467 599 c7 -7 15 -10 18 -7 3 3 -2 9 -12 12 -14 6 -15 5 -6 -5z"/>
<path d="M333 728 c-13 -6 -23 -17 -23 -24 0 -7 -23 -33 -51 -58 -28 -25 -48
-46 -45 -46 17 0 64 31 70 45 3 8 21 25 40 36 21 12 33 26 30 34 -4 8 3 15 18
18 18 3 19 4 3 5 -11 0 -30 -4 -42 -10z"/>
<path d="M421 736 c11 -9 69 -15 64 -6 -3 6 -20 10 -37 10 -17 0 -29 -2 -27
-4z"/>
<path d="M115 583 c-76 -6 -73 -18 3 -15 37 2 71 8 77 13 5 5 2 8 -10 7 -11
-1 -42 -3 -70 -5z"/>
<path d="M383 364 c6 -7 319 -5 326 1 2 3 -71 5 -164 5 -93 0 -166 -3 -162 -6z"/>
<path d="M1398 383 c6 -2 18 -2 25 0 6 3 1 5 -13 5 -14 0 -19 -2 -12 -5z"/>
<path d="M345 259 c-96 -26 -80 -169 19 -169 19 0 41 3 50 6 26 10 18 24 -14
24 -36 0 -80 38 -80 69 0 37 12 51 41 51 23 0 29 -5 29 -21 0 -14 5 -19 18
-17 10 2 17 12 17 27 0 29 -34 42 -80 30z"/>
<path d="M142 243 c2 -24 -31 -121 -43 -128 -16 -11 -10 -25 11 -25 21 0 24 4
34 53 5 22 12 27 35 27 24 0 31 -5 36 -30 4 -16 4 -34 1 -39 -3 -5 8 -11 25
-13 34 -5 45 4 25 21 -8 7 -20 43 -27 82 l-12 69 -43 0 c-35 0 -43 -3 -42 -17z
m52 -19 c10 -26 7 -34 -14 -34 -13 0 -20 7 -20 18 0 33 23 44 34 16z"/>
<path d="M480 258 c0 -2 -2 -40 -3 -85 l-2 -83 48 0 c29 0 54 6 63 14 18 19
18 32 0 17 -8 -7 -27 -11 -42 -9 -21 2 -28 9 -31 31 -3 22 0 27 14 25 12 -2
18 3 18 17 0 14 -6 19 -18 17 -13 -2 -18 2 -15 15 5 27 44 29 51 3 3 -12 10
-19 16 -15 30 18 0 47 -53 51 -25 2 -46 3 -46 2z"/>
<path d="M1468 248 c15 -15 16 -112 2 -139 -9 -16 -7 -19 13 -19 23 0 24 2 17
47 -5 27 -6 51 -3 56 2 4 23 -17 45 -48 24 -32 49 -55 60 -55 16 0 18 9 18 75
0 46 4 75 11 75 5 0 7 5 4 10 -3 6 -18 10 -32 10 -19 0 -23 -3 -16 -12 12 -16
17 -88 6 -88 -4 1 -25 23 -46 50 -29 38 -45 50 -65 50 -20 0 -23 -3 -14 -12z"/>
<path d="M964 235 c13 -14 56 -115 56 -134 0 -11 40 -22 52 -15 5 3 4 12 -2
19 -9 11 -7 21 6 45 23 38 37 38 63 1 24 -33 26 -47 9 -54 -7 -3 0 -6 15 -6
17 -1 26 3 22 9 -10 16 37 139 55 144 8 2 0 4 -18 5 -20 1 -31 -3 -27 -9 8
-13 -13 -80 -25 -80 -5 0 -17 14 -27 30 -22 38 -32 37 -63 -5 -14 -19 -28 -35
-31 -35 -8 0 -39 68 -39 85 0 10 -10 15 -31 15 -27 0 -29 -2 -15 -15z"/>
<path d="M1305 237 c3 -7 -6 -41 -20 -77 -14 -35 -25 -65 -25 -67 0 -2 12 -3
26 -3 20 0 24 3 16 13 -18 22 4 57 37 57 29 0 41 -14 41 -51 0 -15 7 -19 31
-19 25 0 29 3 21 13 -15 17 -43 127 -36 138 3 5 -17 9 -45 9 -37 0 -49 -3 -46
-13z m55 -43 c0 -25 -7 -29 -26 -16 -8 4 -8 15 -3 30 11 28 29 20 29 -14z"/>
<path d="M1690 235 c8 -10 11 -37 8 -79 l-4 -64 30 -5 c72 -10 142 39 130 92
-11 48 -48 71 -116 71 -52 0 -59 -2 -48 -15z m110 -14 c5 -11 10 -38 10 -61 0
-33 -4 -42 -22 -49 -13 -5 -26 -6 -30 -2 -11 10 -22 97 -15 115 9 22 44 20 57
-3z"/>
<path d="M1926 234 c-9 -8 -16 -19 -16 -23 0 -16 36 -39 65 -43 24 -2 30 -8
30 -28 0 -30 -34 -39 -58 -16 -21 21 -34 20 -47 -3 -15 -28 -15 -28 48 -29 68
0 102 18 102 53 0 27 -30 45 -75 45 -23 0 -40 24 -29 41 9 14 29 11 56 -11 27
-21 38 -18 38 12 0 15 -8 18 -49 18 -32 0 -55 -6 -65 -16z"/>
<path d="M740 135 c-15 -19 3 -45 31 -45 19 0 35 33 24 50 -9 15 -41 12 -55
-5z"/>
<path d="M2050 360 c0 -5 5 -10 11 -10 5 0 7 5 4 10 -3 6 -8 10 -11 10 -2 0
-4 -4 -4 -10z"/>
</g>
</svg>
