<?xml version="1.0" standalone="no"?>
<!DOCTYPE svg PUBLIC "-//W3C//DTD SVG 20010904//EN"
 "http://www.w3.org/TR/2001/REC-SVG-20010904/DTD/svg10.dtd">
<svg version="1.0" xmlns="http://www.w3.org/2000/svg"
 width="218.000000pt" height="374.000000pt" viewBox="0 0 218.000000 374.000000"
 preserveAspectRatio="xMidYMid meet">
<metadata>
Created by potrace 1.16, written by Peter Selinger 2001-2019
</metadata>
<g transform="translate(0.000000,374.000000) scale(0.100000,-0.100000)"
fill="#000000" stroke="none">
<path d="M1947 3734 c-3 -4 -438 -7 -967 -7 -871 0 -962 -2 -969 -16 -11 -21
-6 -1138 15 -3316 l3 -390 28 -2 c15 -1 21 1 12 3 -18 5 -28 56 -25 129 l1 40
180 2 c99 2 212 6 250 10 l70 8 3 78 3 77 194 0 c123 0 195 4 195 10 0 6 -4
10 -10 10 -5 0 -10 9 -10 20 0 28 -20 25 -21 -2 -1 -22 -1 -22 -9 2 l-8 25 -1
-25 c-1 -20 -3 -22 -12 -10 -8 11 -12 12 -16 3 -7 -19 -23 -16 -43 9 l-19 23
-10 -25 -10 -25 0 26 c-1 14 7 34 18 45 23 25 36 64 22 64 -6 0 -11 -8 -11
-17 0 -15 -2 -14 -15 3 -13 18 -14 16 -15 -23 0 -23 -5 -45 -11 -49 -6 -3 -9
-17 -6 -30 5 -28 -13 -31 -56 -11 -18 8 -27 20 -27 36 0 15 -4 21 -14 18 -7
-3 -19 0 -26 6 -10 9 -12 8 -7 -5 4 -10 2 -18 -4 -18 -6 0 -9 -7 -6 -14 4 -10
-2 -18 -16 -22 -12 -4 -23 -2 -25 5 -2 6 -10 11 -18 11 -11 0 -14 27 -14 152
0 83 3 149 6 145 3 -3 16 -2 28 3 20 7 22 6 18 -23 -4 -25 -2 -29 12 -24 9 4
16 2 16 -3 0 -5 7 -7 15 -4 12 5 15 -2 15 -30 0 -42 11 -46 30 -10 13 23 12
27 -3 35 -9 6 -17 17 -17 25 0 8 -5 23 -12 34 -15 23 -1 41 15 20 14 -18 60
-20 67 -3 3 7 9 3 16 -11 9 -20 8 -27 -7 -40 -14 -11 -19 -12 -19 -3 0 7 -9
13 -20 14 -12 1 -20 -4 -20 -14 0 -9 6 -13 14 -10 10 4 16 -6 20 -39 3 -24 9
-64 12 -89 9 -68 26 -42 22 35 -1 38 1 72 5 76 4 4 7 -15 7 -42 0 -34 3 -44 9
-34 6 8 7 18 4 23 -3 5 0 8 8 5 8 -2 15 -17 17 -31 4 -33 23 -44 89 -53 50 -6
51 -7 57 -47 4 -26 3 -43 -4 -45 -5 -2 -10 -8 -10 -14 0 -6 7 -7 16 -4 12 5
15 2 10 -10 -3 -9 -9 -26 -12 -39 -4 -16 -25 -32 -70 -54 -35 -17 -71 -31 -79
-31 -21 0 -75 -28 -75 -39 0 -24 28 -29 105 -20 44 5 116 8 161 7 95 -3 119 8
103 48 -13 35 -12 124 1 104 5 -8 10 -27 10 -42 0 -21 5 -28 19 -28 11 0 21
-4 23 -9 4 -13 121 -36 142 -28 10 4 16 13 13 20 -4 10 5 12 37 7 45 -7 124
13 142 36 6 8 9 35 6 64 -3 33 -1 50 7 50 6 0 11 5 11 11 0 5 -4 7 -10 4 -22
-13 -8 43 15 63 23 20 25 29 26 109 1 64 4 77 8 48 l6 -40 7 31 c4 17 6 40 4
50 -2 10 -1 13 1 6 4 -10 8 -10 19 -1 12 10 14 4 14 -36 0 -27 3 -45 7 -42 4
4 6 30 4 58 -1 34 2 49 8 44 6 -3 11 -19 11 -36 0 -16 5 -29 10 -29 6 0 10 -7
10 -16 0 -8 -4 -13 -9 -10 -12 8 -21 -29 -11 -45 6 -9 9 -7 13 7 2 10 3 2 1
-18 -3 -22 0 -38 6 -38 5 0 10 17 10 38 0 20 5 44 10 52 7 10 9 -6 9 -55 0
-38 -3 -64 -6 -57 -2 6 -9 12 -14 12 -6 0 -2 -11 8 -24 25 -33 32 -16 27 65
-3 43 -1 69 6 69 5 0 10 -9 10 -20 0 -11 4 -20 8 -20 5 0 8 28 8 61 -1 35 4
64 10 66 6 2 9 -11 6 -34 l-3 -38 17 33 c17 34 34 42 34 17 0 -16 -21 -68 -32
-75 -3 -3 -8 -19 -10 -35 -2 -24 1 -30 17 -30 15 0 21 -8 22 -30 2 -17 6 -57
9 -89 6 -52 5 -58 -9 -53 -9 3 -19 2 -22 -3 -3 -4 -13 -7 -23 -5 -9 2 -38 4
-64 4 -46 1 -48 2 -47 29 l1 27 8 -25 c8 -27 15 -18 23 33 5 29 -9 38 -16 10
-3 -10 -5 -3 -6 15 -2 50 -21 38 -23 -15 0 -27 -1 -54 -1 -60 1 -7 -4 -13 -9
-13 -5 0 -7 13 -3 29 3 17 2 32 -4 36 -7 4 -11 -7 -11 -31 l0 -37 -40 6 c-35
4 -40 3 -40 -15 0 -20 4 -20 141 -16 128 4 141 3 150 -14 13 -25 80 -25 102 0
14 15 32 18 124 16 59 -1 114 -2 121 -3 9 -1 12 -42 12 -170 l0 -168 -82 -7
c-46 -3 -418 -6 -827 -6 -409 1 -746 -2 -749 -5 -3 -3 373 -5 836 -5 795 0
842 1 842 18 1 70 -4 1093 -6 1152 0 41 -1 242 -1 445 -1 855 -5 2110 -7 2113
-6 6 -203 12 -209 6z m188 -33 c4 -7 8 -1399 5 -1740 0 -45 -2 -52 -14 -42
-21 17 -61 4 -96 -32 -26 -26 -32 -29 -40 -17 -5 8 -10 20 -10 27 0 6 -9 32
-20 58 -19 44 -22 46 -50 40 l-30 -7 0 95 c0 74 3 97 16 108 13 11 17 10 25
-4 6 -9 17 -17 24 -17 18 0 18 1 6 33 -8 21 -6 26 10 30 21 6 26 42 7 50 -7 2
-24 3 -38 2 -21 -1 -25 -7 -25 -33 0 -16 -3 -34 -7 -38 -8 -8 -12 123 -13 436
0 102 -4 191 -9 198 -4 8 -16 10 -28 6 -13 -4 -24 -1 -29 7 -12 20 -11 29 4
24 17 -7 41 11 33 24 -4 6 -14 11 -22 11 -8 0 -14 10 -14 24 0 24 -16 43 -27
33 -3 -3 -6 -21 -7 -39 -2 -25 -6 -32 -19 -30 -13 2 -17 -4 -17 -28 0 -32 8
-38 28 -18 9 9 15 9 24 0 10 -10 9 -18 -4 -40 -14 -23 -16 -43 -11 -98 4 -57
3 -72 -11 -83 -13 -11 -19 -11 -31 -1 -22 19 -31 4 -18 -30 6 -17 9 -38 6 -49
-7 -29 17 -38 37 -13 16 20 17 4 18 -297 l0 -319 -24 -11 c-13 -6 -31 -8 -39
-5 -31 12 -71 -9 -126 -67 -32 -32 -64 -59 -73 -59 -16 0 -18 16 -34 225 -12
146 -38 242 -81 290 -18 21 -33 52 -37 75 -4 22 -12 44 -19 50 -7 6 -11 20 -8
30 3 11 0 26 -6 33 -6 8 -8 17 -4 20 3 4 1 18 -7 31 -11 22 -9 29 24 71 20 27
36 56 36 65 0 27 -108 115 -165 135 -27 9 -77 19 -111 22 -59 5 -61 5 -84 -26
-18 -26 -23 -50 -27 -119 -3 -48 -12 -100 -21 -116 -12 -26 -13 -31 0 -40 8
-6 17 -23 20 -39 4 -22 3 -25 -8 -16 -20 16 -17 -1 3 -23 9 -10 25 -18 35 -18
16 0 14 -5 -12 -26 -17 -15 -29 -33 -26 -40 3 -7 -2 -18 -10 -24 -8 -7 -14
-16 -14 -21 0 -4 -17 -31 -37 -58 -45 -60 -70 -54 -35 8 35 62 23 129 -32 180
-38 36 -122 41 -171 11 -40 -25 -65 -65 -69 -114 -2 -18 -6 -38 -10 -44 -10
-16 36 -95 62 -107 12 -5 22 -13 22 -17 0 -5 22 -8 49 -8 61 0 81 -7 81 -30 0
-10 7 -23 15 -30 20 -16 19 -64 -1 -95 -13 -20 -14 -31 -6 -55 12 -34 23 -26
-142 -109 -93 -46 -116 -48 -164 -10 -14 10 -31 19 -38 19 -20 0 -28 100 -19
255 5 77 8 182 7 234 -2 90 8 129 30 115 18 -11 34 15 30 51 -4 36 -4 36 -29
20 -14 -9 -27 -15 -29 -12 -3 3 -6 164 -8 358 -3 302 -1 361 12 401 15 44 15
48 -3 68 -10 11 -24 19 -31 16 -7 -3 -14 5 -17 16 -3 11 -10 17 -16 14 -5 -4
-11 6 -13 21 -2 14 -8 28 -14 30 -16 5 -25 -36 -14 -58 7 -12 5 -19 -5 -23
-21 -8 -19 -26 3 -26 14 0 15 2 2 10 -10 7 -11 10 -2 10 20 0 27 -31 9 -41
-14 -9 -15 -44 -10 -348 5 -328 5 -339 -13 -338 -11 1 -27 12 -37 25 -22 27
-37 28 -37 4 0 -30 24 -72 41 -72 9 0 24 -9 35 -21 18 -20 19 -41 18 -374 0
-278 -3 -357 -13 -369 -13 -16 -12 -47 5 -125 l7 -34 -34 6 c-69 11 -95 20
-116 40 l-22 20 -49 -32 c-35 -22 -61 -31 -90 -31 l-42 0 -2 958 c-2 526 -2
982 0 1013 l3 56 1049 1 c577 1 1052 -3 1055 -7z m-1738 -293 c-3 -8 -6 -5 -6
6 -1 11 2 17 5 13 3 -3 4 -12 1 -19z m76 -54 c8 -9 -11 -45 -36 -66 -17 -15
-18 -18 -4 -18 20 0 24 -50 5 -50 -7 0 -5 -5 5 -11 11 -7 17 -22 17 -49 0 -27
-6 -42 -17 -49 -16 -9 -15 -10 5 -11 13 0 20 -4 17 -10 -4 -6 -11 -8 -16 -5
-5 4 -9 3 -10 -2 0 -4 -2 -18 -5 -30 -5 -27 4 -30 21 -6 10 13 11 11 7 -15 -2
-18 -10 -32 -16 -32 -17 0 -14 -42 4 -57 13 -11 13 -12 -2 -13 -12 0 -16 -6
-13 -22 3 -13 10 -25 16 -27 8 -2 7 -7 -2 -13 -12 -8 -12 -10 0 -15 11 -5 11
-7 0 -14 -12 -7 -11 -9 1 -9 12 0 13 -2 1 -9 -8 -6 -10 -14 -5 -22 14 -23 13
-39 -3 -39 -13 0 -13 -3 -3 -15 9 -11 10 -15 0 -15 -13 0 -3 -63 11 -68 15 -6
10 -22 -6 -22 -19 0 -13 -49 7 -62 9 -5 7 -8 -7 -9 -19 0 -19 -1 -1 -8 17 -7
18 -8 3 -14 -21 -8 -12 -37 12 -37 14 -1 14 -2 -2 -14 -25 -19 -31 -56 -9 -57
10 0 12 -3 5 -6 -17 -6 -17 -43 0 -43 7 0 4 -7 -7 -15 -11 -8 -14 -15 -8 -15
7 0 12 -11 12 -25 0 -14 -3 -25 -8 -25 -4 0 -8 -25 -8 -55 0 -30 3 -55 8 -55
4 0 8 10 8 23 1 17 2 19 9 7 13 -21 2 -70 -15 -70 -21 0 -15 -139 6 -141 11
-1 10 -3 -2 -6 -10 -2 -18 -14 -18 -25 0 -14 5 -18 15 -14 8 3 15 1 15 -4 0
-6 -8 -10 -17 -10 -15 0 -16 -2 -3 -10 8 -5 11 -10 5 -10 -6 0 -9 -24 -8 -55
1 -48 -1 -55 -18 -55 -19 0 -20 9 -19 268 0 147 -2 447 -5 667 -9 604 -10 555
10 555 8 0 19 9 25 20 11 20 31 26 43 14z m733 -549 c55 -16 177 -106 153
-114 -7 -2 -18 3 -24 12 -13 18 -57 37 -85 37 -10 0 -22 -9 -25 -21 -9 -28
-31 -18 -27 14 3 34 -34 63 -95 72 -34 5 -42 9 -32 16 16 10 58 5 135 -16z
m662 5 c3 -7 0 -10 -7 -6 -6 4 -11 2 -11 -3 0 -6 6 -11 13 -12 6 0 1 -5 -13
-10 -24 -10 -24 -11 -6 -25 19 -13 19 -14 1 -14 -18 0 -18 -1 1 -16 16 -13 16
-15 2 -10 -10 3 -18 1 -18 -4 0 -6 10 -11 23 -11 17 -1 16 -3 -8 -9 -29 -7
-28 -9 15 -23 9 -3 5 -6 -9 -6 -24 -1 -24 -1 -5 -16 14 -11 15 -14 3 -9 -23 7
-32 -10 -24 -46 4 -18 11 -27 20 -24 7 3 16 1 20 -5 3 -6 0 -11 -7 -11 -9 0
-9 -3 2 -10 12 -8 12 -10 -5 -10 -20 -1 -20 -1 -1 -15 20 -15 20 -15 0 -15
-19 -1 -19 -1 0 -15 11 -8 14 -15 8 -15 -7 0 -12 -13 -12 -30 0 -16 5 -30 11
-30 5 0 7 -4 4 -10 -3 -5 -2 -10 4 -10 6 0 7 -11 2 -27 -4 -16 -6 -34 -4 -40
3 -7 -3 -13 -14 -13 -17 -1 -17 -1 1 -15 20 -15 20 -15 0 -15 -15 0 -16 -2 -5
-9 11 -7 10 -10 -5 -14 -15 -4 -13 -5 6 -6 21 -1 22 -3 10 -12 -12 -9 -13 -12
-1 -16 11 -5 11 -7 0 -15 -12 -8 -12 -10 0 -15 11 -5 11 -7 0 -15 -11 -7 -11
-11 -1 -15 17 -7 15 -26 -3 -19 -18 7 -20 -10 -2 -18 9 -5 9 -7 -1 -12 -6 -3
-9 -11 -5 -17 14 -23 10 -67 -6 -67 -13 -1 -12 -3 3 -11 15 -9 16 -13 5 -20
-12 -7 -11 -9 1 -9 13 0 13 -1 0 -11 -12 -9 -13 -12 -1 -16 11 -5 11 -7 0 -14
-12 -8 -11 -11 1 -19 10 -6 11 -10 3 -10 -19 0 -16 -18 5 -23 12 -3 9 -5 -8
-6 -24 -2 -24 -2 -6 -16 17 -13 18 -15 3 -15 -9 0 -16 -3 -16 -7 3 -21 -2 -34
-13 -31 -8 3 -12 133 -14 484 -1 263 0 487 2 496 3 10 11 15 20 11 7 -3 14 0
14 7 0 15 22 8 28 -10z m-708 -42 c13 -9 19 -22 17 -43 -2 -27 1 -30 29 -33
25 -2 33 1 37 17 4 18 8 19 36 10 17 -6 29 -14 26 -19 -3 -4 9 -13 25 -20 17
-7 30 -16 30 -21 0 -13 -12 -11 -34 6 -11 8 -27 15 -35 15 -9 0 -1 -9 17 -20
17 -11 32 -23 32 -26 0 -3 -11 1 -25 10 -39 26 -52 18 -15 -9 37 -27 31 -33
-10 -10 -37 21 -49 18 -20 -5 20 -16 21 -19 5 -14 -11 4 -27 12 -35 19 -21 16
-93 41 -162 56 -62 13 -64 16 -52 79 l7 32 54 -6 c29 -3 62 -12 73 -18z m-102
-131 c2 -15 8 -27 13 -27 6 0 7 -4 4 -10 -11 -18 15 -52 36 -47 10 3 22 0 27
-7 4 -7 16 -16 26 -20 25 -9 13 -19 -49 -41 -27 -10 -55 -22 -60 -26 -21 -15
-34 8 -36 63 -2 36 3 63 11 73 10 12 10 19 2 27 -7 7 -12 20 -12 31 0 30 34
16 38 -16z m-681 -29 c-3 -8 -6 -5 -6 6 -1 11 2 17 5 13 3 -3 4 -12 1 -19z
m871 -118 c11 0 13 -3 6 -10 -7 -7 -19 -8 -37 -1 -19 7 -27 7 -27 0 0 -6 -6
-9 -12 -7 -7 3 -21 -4 -32 -13 -18 -17 -36 -17 -36 0 0 15 66 40 94 36 16 -3
36 -5 44 -5z m82 -14 c0 -11 -19 -15 -25 -6 -3 5 1 10 9 10 9 0 16 -2 16 -4z
m-468 -33 c20 -18 24 -43 7 -43 -6 0 -9 -7 -6 -15 4 -8 2 -17 -2 -20 -5 -2
-11 9 -15 25 -5 25 -10 30 -36 30 -32 0 -37 -9 -18 -28 8 -8 9 -12 1 -12 -6 0
-13 5 -15 11 -6 18 -60 13 -75 -7 -7 -10 -13 -12 -13 -6 0 20 34 47 65 50 17
2 41 9 55 17 33 17 31 17 52 -2z m419 7 c45 -13 72 -40 59 -60 -8 -12 -10 -10
-10 8 0 13 -4 21 -9 18 -5 -3 -7 -16 -5 -29 2 -12 -3 -4 -10 18 l-14 40 -3
-40 c-1 -27 -3 -32 -6 -15 -8 48 -16 57 -23 25 -6 -24 -8 -25 -9 -7 0 12 -6
22 -12 22 -6 0 -8 -9 -4 -20 7 -23 -13 -28 -21 -5 -7 18 -25 15 -86 -12 -25
-12 -55 -24 -66 -27 -11 -4 -23 -13 -26 -21 -3 -8 -15 -15 -27 -15 -21 0 -21
1 -6 18 10 10 17 25 17 33 0 11 2 12 9 1 9 -15 14 -13 100 39 19 11 47 22 64
24 16 2 32 6 35 9 7 8 11 8 53 -4z m-514 -6 c-3 -3 -12 -4 -19 -1 -8 3 -5 6 6
6 11 1 17 -2 13 -5z m333 -5 c0 -5 -4 -7 -10 -4 -5 3 -10 1 -10 -6 0 -7 -3
-10 -6 -6 -8 7 4 27 17 27 5 0 9 -5 9 -11z m-414 -82 c22 -13 16 -25 -11 -23
-21 1 -25 6 -25 32 0 38 14 55 18 22 2 -12 10 -27 18 -31z m149 13 c7 -32 15
-36 45 -20 24 13 29 3 18 -35 -13 -46 -32 -65 -69 -69 -19 -2 -46 -7 -61 -11
-18 -5 -28 -3 -28 4 0 6 9 11 20 11 29 0 50 39 45 82 -3 21 0 40 5 43 6 4 8
11 5 16 -4 5 -2 9 4 9 5 0 12 -13 16 -30z m-70 0 c-3 -5 -11 -10 -16 -10 -6 0
-7 5 -4 10 3 6 11 10 16 10 6 0 7 -4 4 -10z m510 -6 c13 -5 14 -8 3 -15 -10
-7 -10 -9 0 -9 6 0 12 -7 12 -15 0 -8 8 -15 18 -15 14 0 15 -2 2 -10 -13 -8
-12 -10 3 -10 22 0 22 18 0 42 -14 15 -14 18 -1 18 17 0 51 -34 43 -42 -3 -3
-1 -18 5 -33 8 -22 14 -25 22 -17 14 14 32 16 24 3 -3 -5 3 -11 14 -14 13 -3
20 -14 20 -30 0 -13 7 -41 15 -60 8 -20 14 -56 13 -81 -3 -61 -18 -35 -18 32
0 37 -4 52 -14 52 -17 0 -28 52 -13 62 9 6 9 8 1 8 -26 0 -35 -27 -25 -71 6
-24 11 -70 11 -101 0 -32 4 -58 10 -58 5 0 11 26 13 58 2 37 4 26 4 -33 0 -49
-4 -96 -10 -102 -6 -9 -6 -13 3 -13 9 0 11 -13 7 -45 -3 -31 -1 -45 6 -42 8 2
10 32 8 85 -2 68 0 82 12 82 11 0 15 -9 13 -35 -2 -20 0 -37 3 -40 4 -2 8
-100 10 -217 1 -117 6 -253 10 -303 5 -49 8 -267 7 -484 -1 -306 -4 -395 -13
-398 -10 -4 -13 12 -13 59 0 35 -3 127 -7 206 -6 129 -8 142 -25 142 -12 0
-18 -7 -18 -21 0 -11 5 -17 10 -14 6 4 10 -32 10 -102 0 -118 8 -315 15 -405
l5 -58 -45 -20 c-53 -24 -120 -19 -136 11 -6 11 -8 155 -7 374 2 282 0 358
-11 364 -10 6 -11 58 -8 247 3 131 1 322 -5 424 -5 102 -9 197 -9 212 1 29
-14 46 -22 25 -3 -7 -1 -51 4 -98 4 -46 11 -313 14 -594 3 -280 7 -539 10
-574 3 -34 6 -146 8 -247 l4 -184 -27 0 c-40 0 -79 22 -80 45 0 11 0 94 1 183
0 111 -3 162 -10 157 -6 -3 -11 -50 -11 -113 0 -102 -5 -231 -9 -242 -7 -16
-20 44 -20 96 -1 33 -6 65 -13 72 -12 12 -13 46 -12 562 1 377 1 370 -7 370
-15 0 -18 -50 -7 -150 7 -70 8 -162 2 -275 -13 -248 -11 -466 3 -492 11 -18
10 -22 -4 -27 -9 -4 -21 -2 -26 3 -9 9 -1 1109 9 1306 8 155 4 423 -6 450 -14
37 -6 43 16 10 21 -33 32 -184 33 -462 1 -134 5 -204 12 -209 6 -3 10 -29 9
-58 -5 -104 0 -299 7 -292 4 3 9 161 11 350 3 312 2 356 -17 475 -26 160 -26
181 -5 181 14 0 14 -3 4 -15 -10 -12 -9 -15 5 -15 15 0 16 -2 4 -17 -7 -10
-10 -15 -5 -11 16 13 34 -19 40 -68 3 -27 8 -77 12 -111 4 -35 11 -63 15 -63
14 0 10 96 -7 180 -8 41 -15 80 -16 87 -1 7 -5 10 -10 7 -4 -3 -8 1 -8 8 0 8
-9 30 -19 51 -10 20 -15 40 -10 43 5 3 9 10 9 16 0 6 -6 6 -15 -2 -13 -11 -14
-10 -9 4 3 9 2 16 -4 16 -6 0 -13 -6 -15 -12 -3 -7 -6 -4 -7 7 -1 20 -1 20
-15 1 -8 -11 -17 -17 -20 -14 -3 3 7 19 22 37 30 34 63 40 87 16 8 -8 19 -15
25 -15 15 0 44 -47 37 -59 -4 -5 1 -17 11 -26 12 -13 13 -19 4 -25 -9 -5 -5
-9 11 -14 15 -4 19 -9 11 -14 -11 -7 -8 -69 3 -81 23 -24 23 89 0 144 -14 32
-15 44 -5 62 9 18 9 26 -1 38 -13 16 -3 20 25 9z m-60 -14 c-3 -5 -11 -10 -16
-10 -6 0 -7 5 -4 10 3 6 11 10 16 10 6 0 7 -4 4 -10z m-447 -6 c25 -7 31 -51
10 -72 -18 -18 -28 -15 -28 8 0 11 -9 28 -20 37 -35 30 -18 42 38 27z m472
-13 c0 -6 -4 -13 -10 -16 -5 -3 -10 1 -10 9 0 9 5 16 10 16 6 0 10 -4 10 -9z
m-217 -26 c-3 -9 -8 -14 -10 -11 -3 3 -2 9 2 15 9 16 15 13 8 -4z m365 -20
c-3 -3 -9 2 -12 12 -6 14 -5 15 5 6 7 -7 10 -15 7 -18z m-918 -10 c0 -14 -4
-25 -9 -25 -4 0 -6 11 -3 25 2 14 6 25 8 25 2 0 4 -11 4 -25z m221 -6 c-5 -13
-10 -19 -10 -12 -1 15 10 45 15 40 3 -2 0 -15 -5 -28z m46 16 c7 -20 -2 -29
-21 -22 -9 4 -13 13 -10 22 8 19 23 19 31 0z m253 0 c0 -8 -4 -15 -9 -15 -13
0 -22 16 -14 24 11 11 23 6 23 -9z m980 -31 c0 -8 -7 -14 -15 -14 -15 0 -21
21 -9 33 10 9 24 -2 24 -19z m-874 -7 c18 -16 24 -26 16 -31 -7 -4 -12 -1 -12
6 0 8 -14 19 -32 26 -25 9 -36 9 -57 -3 -14 -8 -36 -19 -48 -24 -13 -6 -23
-19 -23 -31 0 -12 -4 -19 -9 -16 -5 3 -12 -6 -16 -21 -3 -14 -13 -36 -22 -47
-14 -20 -15 -19 -10 19 5 32 17 50 62 93 65 61 105 68 151 29z m-219 -34 c8
-22 -22 -32 -67 -22 -24 6 -55 7 -67 4 -36 -9 -27 13 10 24 39 12 120 8 124
-6z m165 -43 c4 -19 5 -84 4 -145 -4 -117 -20 -170 -58 -194 -25 -16 -198 -60
-213 -55 -6 3 -20 -4 -30 -16 -20 -23 -45 -26 -63 -8 -9 9 -15 9 -23 1 -6 -6
-18 -9 -27 -6 -12 5 -14 1 -8 -20 3 -15 2 -27 -3 -27 -16 0 -18 70 -3 92 8 11
42 33 76 49 53 25 62 27 72 14 13 -18 24 -10 25 19 1 19 1 19 7 -2 10 -32 26
-32 30 0 5 39 28 55 50 34 28 -24 35 -19 15 10 -17 26 -17 27 5 20 17 -6 21
-4 16 8 -3 8 4 57 16 108 33 140 93 204 112 118z m-142 26 c0 -2 -8 -10 -17
-17 -16 -13 -17 -12 -4 4 13 16 21 21 21 13z m-30 -40 c0 -3 -4 -8 -10 -11 -5
-3 -10 -1 -10 4 0 6 5 11 10 11 6 0 10 -2 10 -4z m23 -106 c-3 -11 -10 -20
-15 -20 -6 0 -8 -11 -6 -25 5 -25 -5 -34 -17 -15 -4 6 3 26 15 45 25 40 30 44
23 15z m587 -40 c0 -5 -7 -10 -16 -10 -8 0 -12 5 -9 10 3 6 10 10 16 10 5 0 9
-4 9 -10z m468 -77 c11 -26 19 -49 17 -51 -2 -2 -14 2 -27 9 -12 7 -31 12 -40
10 -14 -2 -18 5 -18 33 0 32 9 43 36 45 6 1 21 -20 32 -46z m-227 -33 c13 -8
25 -7 40 0 39 21 30 2 -25 -52 -74 -74 -130 -118 -152 -118 -11 0 -28 -7 -38
-15 -29 -22 -36 -19 -36 19 0 28 5 36 30 46 17 7 44 29 61 49 25 29 84 78 97
80 2 1 12 -4 23 -9z m389 6 c0 -2 -7 -7 -16 -10 -8 -3 -12 -2 -9 4 6 10 25 14
25 6z m30 -58 c0 -74 -8 -83 -53 -65 -19 9 -37 14 -39 12 -2 -2 -5 7 -6 20 -1
15 4 25 11 25 7 0 24 14 39 30 38 43 48 38 48 -22z m-157 -22 c49 -47 75 -65
103 -71 22 -4 42 -12 46 -18 11 -18 10 -165 -2 -172 -5 -3 -18 12 -27 35 -20
46 -31 47 -52 2 -21 -42 -35 -40 -27 3 7 35 -9 51 -20 20 -4 -8 -10 -15 -16
-15 -5 0 -7 4 -3 9 3 5 -8 9 -25 9 -32 -1 -54 12 -32 19 6 3 12 12 13 21 0 13
2 13 10 -4 9 -18 14 -19 45 -10 19 6 34 17 34 23 0 7 5 13 10 13 14 0 13 -13
-2 -28 -15 -15 -6 -24 16 -16 9 3 16 14 16 24 0 26 17 34 29 13 11 -21 26 -11
18 11 -8 21 -74 16 -107 -7 -33 -23 -38 -22 -42 11 -4 38 -42 38 -46 -1 -2
-15 -12 -32 -23 -37 -18 -10 -19 -6 -19 103 0 63 3 117 7 120 15 16 35 4 96
-57z m-199 12 c3 -13 6 -41 6 -64 0 -40 -1 -41 -35 -42 -19 -1 -37 3 -40 8 -3
5 -12 7 -19 4 -32 -12 -22 17 22 64 26 28 50 51 53 52 4 0 9 -10 13 -22z
m-1268 1 c3 -6 22 -18 41 -25 30 -13 34 -19 31 -47 -3 -31 -4 -32 -63 -39 -33
-3 -73 -9 -90 -12 -21 -5 -19 -2 10 8 22 9 40 16 41 16 0 0 1 7 1 16 0 13 -8
15 -39 11 -51 -7 -59 9 -8 17 22 3 40 11 40 17 0 6 -8 8 -17 5 -49 -14 -71
-17 -77 -8 -3 5 17 12 45 16 30 4 52 13 56 21 6 18 19 19 29 4z m510 -61 c-19
-11 -22 -84 -4 -90 20 -7 0 -38 -25 -38 -21 0 -25 6 -31 38 -3 21 -2 53 3 70
5 18 7 32 3 32 -4 0 9 14 28 30 l35 29 3 -31 c2 -21 -2 -34 -12 -40z m819 8
c16 -6 17 -9 5 -16 -10 -7 -11 -10 -2 -10 6 0 12 -5 12 -11 0 -5 -4 -8 -9 -4
-5 3 -12 1 -16 -5 -3 -5 2 -11 12 -11 16 -1 16 -2 1 -6 -18 -4 -14 -31 6 -45
7 -5 6 -8 -3 -8 -11 0 -11 -3 -1 -15 10 -12 9 -15 -6 -15 -18 -1 -18 -1 -1
-14 18 -14 24 -32 7 -21 -6 3 -13 -2 -17 -11 -4 -11 -1 -20 6 -22 11 -4 11 -6
0 -13 -11 -7 -9 -10 9 -15 12 -4 22 -11 22 -16 0 -6 -6 -8 -14 -5 -8 3 -16 -2
-19 -13 -3 -12 1 -21 12 -23 11 -3 9 -5 -6 -6 -26 -1 -27 -8 -13 -45 5 -15 6
-26 0 -26 -4 0 -6 -15 -3 -32 3 -18 6 -50 6 -70 0 -21 5 -38 11 -38 6 0 5 -4
-3 -9 -9 -6 -10 -10 -2 -16 9 -5 9 -10 0 -21 -8 -10 -8 -14 0 -14 18 0 12 -30
-6 -31 -17 -1 -17 -2 0 -6 17 -4 24 -23 9 -23 -4 0 -8 -9 -9 -20 -1 -11 3 -20
10 -20 8 0 8 -3 0 -11 -6 -6 -9 -18 -6 -25 3 -8 -1 -14 -8 -14 -11 0 -11 -2 0
-9 12 -8 12 -12 2 -25 -11 -13 -11 -16 0 -17 10 0 11 -2 2 -6 -18 -7 -16 -34
3 -61 8 -12 11 -22 6 -22 -13 0 -4 -64 9 -69 7 -2 7 -7 -2 -13 -12 -8 -12 -10
0 -15 11 -5 11 -7 0 -15 -12 -8 -12 -10 0 -15 11 -5 11 -7 0 -14 -11 -7 -11
-9 -1 -9 10 0 9 -5 -4 -17 -10 -10 -12 -19 -6 -21 7 -2 5 -10 -5 -22 -9 -10
-19 -17 -23 -15 -3 2 -4 241 -3 532 2 290 3 538 3 551 0 13 3 21 8 19 4 -2 16
-7 27 -11z m-945 -16 c12 -8 12 -10 -5 -10 -20 -1 -20 -1 -1 -15 17 -13 18
-15 3 -15 -9 0 -17 -4 -17 -10 0 -5 7 -10 16 -10 14 0 14 -2 0 -15 -8 -9 -13
-22 -10 -30 4 -8 1 -15 -6 -15 -7 0 -9 -8 -5 -20 5 -14 2 -20 -10 -20 -15 0
-16 9 -10 78 9 98 12 103 45 82z m-70 -32 c-1 -49 -8 -53 -96 -54 -99 -1 -98
8 3 42 80 27 93 28 93 12z m815 -8 c-3 -5 -21 -17 -40 -26 -19 -9 -32 -20 -29
-26 3 -5 14 -2 24 7 10 9 23 14 29 11 5 -4 15 3 21 14 11 21 44 27 56 9 3 -6
17 -9 30 -6 13 2 24 0 24 -4 0 -5 -8 -10 -17 -10 -57 -5 -112 -19 -119 -30 -3
-5 -21 -9 -40 -9 -23 0 -38 -6 -46 -20 -14 -22 -28 -26 -28 -9 0 6 11 20 26
31 14 11 23 23 20 26 -3 2 -12 -1 -21 -8 -8 -7 -15 -9 -15 -4 0 13 58 44 80
44 10 0 22 5 25 10 3 6 11 10 16 10 6 0 7 -4 4 -10z m-1410 -30 c9 -10 25 -19
34 -18 9 1 37 -4 63 -11 44 -12 66 -39 52 -63 -9 -13 -34 -9 -34 6 0 12 -26
14 -160 10 -156 -5 -160 -5 -160 15 0 17 6 21 34 21 18 0 57 13 87 29 65 36
62 36 84 11z m360 -1 c9 -27 1 -33 -24 -19 -12 6 -36 8 -56 4 -28 -5 -35 -3
-35 9 0 19 15 25 67 26 34 1 43 -3 48 -20z m-169 -75 c-2 -35 0 -66 4 -69 5
-3 7 -18 4 -33 -3 -15 -6 -34 -7 -42 -2 -8 -6 -21 -11 -29 -6 -9 -3 -18 9 -28
11 -7 16 -13 12 -13 -4 0 -3 -9 3 -19 8 -16 6 -21 -9 -26 -17 -5 -18 -11 -9
-48 5 -23 14 -44 20 -46 6 -2 5 -7 -3 -12 -11 -7 -11 -9 -1 -9 10 0 9 -4 -3
-16 -9 -9 -15 -27 -13 -40 2 -13 -1 -23 -7 -24 -6 0 -11 96 -13 265 -2 237 -1
264 13 258 13 -4 15 -18 11 -69z m521 54 c-3 -8 -6 -5 -6 6 -1 11 2 17 5 13 3
-3 4 -12 1 -19z m839 -43 c-2 -5 -11 -9 -21 -7 -9 2 -24 0 -34 -4 -24 -11
-121 -16 -160 -9 -32 6 -33 8 -17 23 15 15 18 15 26 2 8 -12 11 -13 19 -1 6 9
11 10 15 2 12 -18 26 -12 26 10 0 18 2 19 15 9 13 -11 18 -10 30 6 15 18 15
18 26 1 10 -18 12 -18 26 3 l16 23 18 -24 c10 -13 17 -28 15 -34z m-966 -21
l0 -55 -52 8 c-29 4 -108 8 -175 8 l-122 0 6 40 c3 22 8 42 10 45 4 4 43 4
113 -1 32 -2 120 7 126 14 1 1 23 1 48 -1 l46 -4 0 -54z m1080 5 c0 -5 -4 -9
-10 -9 -5 0 -10 7 -10 16 0 8 5 12 10 9 6 -3 10 -10 10 -16z m-127 -13 c10 -8
14 -17 9 -20 -15 -9 -42 4 -42 20 0 17 10 17 33 0z m177 4 c0 -5 -7 -10 -16
-10 -8 0 -12 5 -9 10 3 6 10 10 16 10 5 0 9 -4 9 -10z m-1690 -9 c0 -6 -13
-11 -30 -11 -32 0 -40 -14 -14 -24 22 -8 109 -8 131 2 13 5 4 9 -32 13 l-50 6
58 1 c34 1 56 -2 52 -7 -3 -5 -1 -12 3 -15 14 -8 4 -189 -11 -198 -6 -4 -35
-8 -62 -8 -30 0 -60 -7 -73 -16 -17 -11 -49 -16 -110 -18 l-87 -1 -3 129 c-1
72 -1 135 2 141 6 16 226 21 226 6z m1368 -16 c28 -10 57 -13 80 -9 21 4 34 3
29 -1 -4 -5 -35 -13 -69 -20 -71 -12 -86 -31 -33 -41 l36 -6 -23 -25 -23 -25
-12 31 c-22 54 -65 31 -68 -36 -2 -60 -22 -50 -28 14 -3 31 -5 59 -3 61 2 1
25 8 52 15 69 17 69 37 0 37 -31 0 -56 5 -56 10 0 15 69 12 118 -5z m382 -15
c0 -4 -13 -10 -29 -12 -30 -4 -31 0 -8 30 7 9 13 9 23 1 8 -6 14 -15 14 -19z
m-1068 -27 c-5 -83 -9 -90 -11 -20 0 37 2 67 7 67 4 0 6 -21 4 -47z m84 -296
c0 -339 -3 -368 -35 -348 -10 6 -12 48 -9 184 1 97 0 173 -4 169 -4 -4 -8 -65
-9 -137 -3 -168 -9 -235 -20 -235 -5 0 -9 28 -9 63 0 61 22 329 36 437 7 58
-10 63 -19 5 -3 -16 -2 13 1 65 3 52 6 105 6 118 1 19 6 22 31 20 l30 -3 1
-338z m914 334 c0 -5 -8 -11 -17 -15 -10 -3 -24 -9 -31 -12 -11 -5 -12 -2 -3
15 11 20 51 30 51 12z m-1081 -45 c-5 -6 -3 -16 4 -24 9 -12 9 -16 -1 -19 -6
-3 -9 -9 -6 -15 4 -6 0 -14 -7 -19 -11 -7 -11 -9 -1 -9 7 0 10 -5 6 -11 -3 -6
0 -15 7 -20 12 -8 11 -12 -4 -23 -11 -8 -14 -15 -7 -18 8 -2 8 -11 1 -31 -8
-19 -7 -27 0 -27 8 0 8 -4 1 -12 -5 -7 -9 -24 -8 -38 1 -14 -3 -28 -9 -32 -6
-5 -5 -11 5 -18 9 -6 10 -10 3 -10 -7 0 -11 -11 -9 -27 1 -16 -2 -34 -7 -40
-5 -7 -7 -26 -5 -43 3 -16 2 -30 -2 -30 -3 0 -6 -9 -6 -20 0 -11 4 -20 9 -20
5 0 4 -7 -3 -15 -9 -10 -9 -15 -1 -15 6 0 11 -4 11 -10 0 -5 -7 -7 -15 -4 -20
8 -19 -6 3 -23 16 -13 16 -14 -3 -11 -18 3 -20 11 -19 84 1 44 6 132 13 195 6
63 16 159 22 214 5 55 13 109 16 120 l6 20 7 -20 c4 -11 4 -24 -1 -29z m691
24 c-8 -5 -22 -9 -30 -9 -10 0 -8 3 5 9 27 12 43 12 25 0z m237 -13 c-3 -9
-27 -13 -78 -14 l-74 -1 58 9 c32 4 65 13 75 18 20 11 27 7 19 -12z m-993 -9
c9 -9 16 -32 16 -51 0 -34 -2 -36 -50 -46 -28 -6 -76 -11 -105 -11 -41 0 -55
-4 -55 -14 0 -10 -16 -17 -47 -21 -27 -4 -56 -9 -65 -12 -16 -4 -18 5 -18 80
0 59 4 87 13 91 6 3 76 4 153 3 115 -3 145 -6 158 -19z m1161 8 c15 -8 22 -17
16 -20 -6 -4 -18 -22 -27 -41 -9 -19 -23 -35 -30 -35 -8 0 -14 -6 -14 -14 0
-15 21 -26 51 -26 19 0 19 -1 2 -25 -13 -17 -24 -22 -38 -18 -14 3 -17 2 -10
-5 6 -6 59 -12 123 -13 82 -2 112 -6 112 -16 0 -9 -26 -11 -117 -7 -65 3 -124
7 -131 10 -17 5 -15 134 2 134 7 0 13 16 14 37 3 34 9 53 16 53 2 0 16 -6 31
-14z m145 -6 c11 -11 22 -30 26 -44 5 -20 3 -23 -18 -19 -13 2 -29 16 -36 31
-24 51 -9 69 28 32z m-64 -26 c-5 -17 -2 -24 9 -24 10 0 15 -10 15 -27 0 -21
3 -24 12 -15 17 17 35 15 35 -3 0 -10 -10 -15 -28 -15 -15 0 -29 7 -33 15 -8
21 -33 19 -46 -5 -11 -20 -60 -29 -60 -10 0 6 5 10 11 10 6 0 8 7 5 16 -4 11
-1 14 12 10 9 -3 23 -2 30 3 10 6 8 10 -10 15 -14 4 -18 9 -10 13 6 2 12 9 12
15 0 14 33 38 43 31 5 -3 6 -16 3 -29z m-286 2 c0 -2 -9 -6 -20 -9 -11 -3 -18
-1 -14 4 5 9 34 13 34 5z m34 -25 c4 -5 -3 -7 -14 -4 -19 5 -26 -5 -21 -31 1
-5 -5 -4 -13 3 -23 19 -45 7 -40 -21 2 -13 2 -17 -2 -10 -3 6 -13 12 -21 12
-40 0 46 57 89 59 9 1 19 -3 22 -8z m-857 -138 c-2 -21 -4 -6 -4 32 0 39 2 55
4 38 2 -18 2 -50 0 -70z m701 86 c-10 -5 -18 -17 -18 -24 0 -8 -5 -15 -11 -15
-5 0 -7 6 -3 13 15 25 27 37 38 37 6 0 3 -5 -6 -11z m162 1 c0 -5 -4 -10 -10
-10 -5 0 -10 5 -10 10 0 6 5 10 10 10 6 0 10 -4 10 -10z m-988 -67 c-3 -46 -7
-53 -25 -53 -12 0 -31 -8 -42 -16 -20 -15 -20 -15 -1 -29 18 -14 17 -15 -17
-30 -45 -19 -47 -19 -63 3 -13 16 -15 16 -32 -7 -18 -22 -24 -23 -75 -17 -61
8 -62 9 -72 88 l-7 55 73 11 c39 6 75 16 79 22 4 7 42 16 85 21 43 4 80 11 83
14 13 12 18 -13 14 -62z m91 6 c-5 -5 -7 7 -4 29 5 34 6 35 9 8 2 -16 0 -32
-5 -37z m1142 51 c3 -5 1 -10 -4 -10 -6 0 -11 5 -11 10 0 6 2 10 4 10 3 0 8
-4 11 -10z m-258 -26 c9 4 13 -3 13 -19 0 -18 -5 -25 -19 -25 -11 0 -23 5 -26
10 -3 6 2 10 12 10 15 0 16 2 3 10 -8 5 -25 10 -38 10 -13 0 -21 4 -17 10 4 6
15 6 32 -1 15 -5 32 -8 40 -5z m262 -16 l36 -23 -44 -3 c-62 -5 -76 2 -54 27
23 25 20 25 62 -1z m101 13 c0 -15 -15 -21 -38 -14 -32 8 -27 23 8 23 17 0 30
-4 30 -9z m-392 -47 c23 -9 42 -22 42 -30 0 -12 -4 -12 -25 2 -16 10 -34 14
-53 9 -16 -3 -47 0 -71 9 -40 13 -44 13 -59 -5 -17 -20 -52 -26 -52 -10 0 5
-3 16 -6 24 -4 11 3 17 23 20 46 7 155 -3 201 -19z m359 10 c-3 -3 -12 -4 -19
-1 -8 3 -5 6 6 6 11 1 17 -2 13 -5z m-1717 -28 c0 -45 -4 -46 -181 -46 -93 0
-169 4 -169 8 0 5 47 12 105 15 76 4 110 10 121 21 21 21 124 22 124 2z m564
-18 c-3 -18 -11 -117 -18 -220 -7 -103 -15 -191 -19 -194 -17 -17 -17 13 -3
143 8 76 18 175 22 221 4 45 10 82 15 82 4 0 5 -15 3 -32z m661 1 c-10 -15
-25 -10 -19 6 4 8 10 12 15 9 5 -3 7 -10 4 -15z m-730 -46 c-10 -40 -17 -20
-9 23 5 24 9 32 12 21 2 -10 1 -30 -3 -44z m824 44 c24 8 34 8 48 -3 17 -13
17 -13 -4 -14 -12 0 -24 -6 -27 -12 -5 -10 -7 -10 -12 0 -10 21 -51 14 -68
-13 -21 -31 -56 -34 -56 -4 0 17 5 20 21 16 14 -4 19 -2 16 8 -9 21 13 35 34
22 14 -9 26 -9 48 0z m361 -7 c0 -6 -38 -10 -95 -10 -57 0 -95 4 -95 10 0 6
38 10 95 10 57 0 95 -4 95 -10z m-1164 -195 c-9 -92 -16 -171 -16 -178 0 -7
-3 -7 -9 -2 -4 6 1 92 13 195 11 102 22 177 24 168 2 -10 -4 -92 -12 -183z
m664 172 c0 -14 -20 -37 -32 -37 -12 0 -10 24 4 38 16 16 28 15 28 -1z m130
-12 c0 -8 5 -15 10 -15 6 0 10 -7 10 -15 0 -8 -4 -15 -10 -15 -16 0 -51 40
-45 50 10 16 35 12 35 -5z m438 -18 l-3 -32 -89 -1 c-114 -2 -176 16 -163 49
4 10 34 14 132 15 l126 1 -3 -32z m-1748 -42 c4 -53 7 -60 27 -60 12 0 25 -4
29 -8 4 -4 -86 -7 -199 -7 l-207 0 0 63 c0 35 2 66 6 69 3 3 80 5 172 4 l167
-1 5 -60z m1400 -93 c0 -150 -9 -292 -19 -292 -3 0 -16 8 -28 18 l-22 17 10
185 c6 102 13 191 15 198 2 6 13 12 24 12 19 0 20 -6 20 -138z m-220 121 c0
-5 -9 -19 -20 -33 -21 -27 -27 -12 -8 20 13 20 28 27 28 13z m51 -25 c-1 -5
-1 -18 -1 -30 0 -15 -11 -29 -29 -40 -16 -9 -31 -26 -33 -39 -2 -12 -9 -25
-17 -27 -25 -8 -5 83 26 118 24 27 55 37 54 18z m-1077 -70 c-3 -4 -21 -8 -41
-8 -28 0 -34 3 -29 16 3 9 6 27 6 42 l0 26 35 -34 c19 -18 32 -37 29 -42z
m236 20 c0 -17 -10 -6 -25 25 l-16 32 20 -25 c11 -14 21 -28 21 -32z m918 46
c19 -6 22 -13 22 -60 0 -30 -2 -54 -4 -54 -18 0 -36 15 -36 31 0 10 -4 19 -10
19 -5 0 -10 -6 -10 -13 0 -7 -20 -32 -44 -56 -44 -43 -45 -45 -39 -95 3 -28
10 -57 16 -64 5 -7 6 -16 2 -20 -4 -4 -10 -1 -12 6 -3 6 -16 12 -29 12 -22 0
-24 4 -24 53 0 69 9 100 27 93 9 -4 16 4 20 24 6 32 18 44 43 45 9 0 15 10 16
26 2 56 13 66 62 53z m213 -11 c5 -143 -10 -425 -22 -417 -5 3 -9 102 -9 220
0 184 2 214 15 214 8 0 15 -8 16 -17z m119 -8 c0 -8 9 -15 20 -15 16 0 20 -7
20 -35 0 -47 18 -45 23 3 3 34 4 33 5 -10 2 -37 -2 -48 -13 -48 -8 0 -15 -8
-15 -18 0 -13 6 -18 23 -16 12 1 25 3 30 3 4 1 5 12 1 26 -4 15 -2 25 5 25 15
0 14 -57 -1 -64 -10 -5 -10 -7 0 -12 15 -7 16 -70 2 -79 -7 -4 -8 -11 -2 -18
5 -7 12 -132 16 -279 l6 -267 -34 -6 c-19 -4 -65 -4 -103 -1 -37 3 -80 5 -95
6 l-28 0 0 84 c0 80 1 85 23 88 41 6 33 69 -16 125 -19 21 -19 21 2 32 17 10
21 23 23 89 2 55 7 76 16 75 8 -2 12 11 12 42 0 25 -4 45 -10 45 -5 0 -10 10
-10 23 0 18 2 19 10 7 7 -11 10 -6 10 21 0 23 6 39 15 43 16 6 21 36 6 36 -5
0 -7 9 -4 20 13 48 33 -2 33 -81 0 -22 4 -39 10 -39 6 0 8 38 4 105 -5 75 -3
105 5 105 6 0 11 -7 11 -15z m-1342 -40 c-3 -3 -13 7 -23 22 l-17 28 23 -22
c12 -12 20 -25 17 -28z m-92 20 c26 -19 35 -19 27 3 -6 15 -4 15 15 -2 29 -25
28 -44 -1 -39 -14 3 -29 -3 -41 -16 -25 -28 -34 -26 -28 4 3 16 -2 33 -13 45
-17 19 -17 20 2 20 10 0 28 -7 39 -15z m1544 -31 c0 -8 -4 -12 -10 -9 -5 3
-10 13 -10 21 0 8 5 12 10 9 6 -3 10 -13 10 -21z m-1366 -17 c15 -23 0 -33
-27 -18 -13 7 -27 11 -33 10 -19 -3 -34 1 -34 11 0 6 10 8 24 4 13 -3 27 -1
31 6 9 14 25 9 39 -13z m-424 -17 c0 -11 2 -20 4 -20 2 0 11 -3 19 -6 11 -4
17 2 20 18 2 13 5 -1 6 -29 1 -52 1 -53 -29 -53 -29 0 -30 1 -32 53 l-2 52 -3
-52 c-2 -29 -8 -53 -14 -53 -10 0 -13 93 -2 103 13 14 33 6 33 -13z m290 -7
c0 -11 6 -14 25 -9 33 8 32 0 -2 -17 -23 -12 -34 -12 -63 -1 -34 12 -34 12 -7
13 16 1 26 5 22 11 -8 13 4 32 16 25 5 -4 9 -13 9 -22z m-560 -83 c5 0 11 24
13 53 l3 52 2 -57 2 -58 -32 1 c-18 0 -27 3 -20 6 7 3 13 26 14 56 l2 52 3
-52 c2 -29 8 -53 13 -53z m161 20 c5 0 9 18 9 40 0 36 3 40 25 40 23 0 25 -3
25 -50 0 -46 -2 -50 -24 -50 -13 0 -31 -3 -40 -6 -14 -5 -16 3 -14 52 1 50 2
53 5 17 2 -24 8 -43 14 -43z m247 53 c16 -35 15 -63 -2 -63 -7 0 -28 -3 -45
-6 -29 -6 -31 -5 -30 22 l1 29 8 -25 c7 -22 8 -21 9 12 1 38 15 58 24 36 3 -8
6 -6 6 5 1 25 14 21 29 -10z m19 5 c-3 -8 -6 -5 -6 6 -1 11 2 17 5 13 3 -3 4
-12 1 -19z m-307 -38 c0 -38 -4 -50 -15 -50 -8 0 -15 8 -15 18 -1 16 -1 16
-14 0 -24 -32 -36 -21 -35 30 1 26 4 37 6 24 2 -12 8 -20 13 -17 5 3 11 1 15
-5 8 -13 35 13 35 34 0 9 2 16 5 16 3 0 5 -22 5 -50z m570 1 c0 -13 -9 -18
-32 -18 -50 -1 -86 -9 -103 -23 -24 -20 -73 -18 -79 2 -6 24 10 33 59 34 58 2
74 8 91 32 14 21 16 21 39 6 14 -9 25 -24 25 -33z m1167 -18 c-2 -16 -4 -5 -4
22 0 28 2 40 4 28 2 -13 2 -35 0 -50z m-227 31 c0 -8 -8 -14 -17 -14 -13 0
-14 -3 -6 -8 7 -4 16 -23 19 -42 6 -29 5 -32 -10 -27 -10 4 -23 7 -29 7 -7 0
-6 4 3 10 11 7 7 9 -15 7 -21 -1 -29 2 -27 12 2 9 -3 11 -13 7 -11 -4 -15 -2
-12 6 2 7 11 12 20 10 12 -2 15 2 10 14 -5 13 -3 16 10 11 10 -4 18 0 22 12 7
22 45 17 45 -5z m-1179 -74 c5 0 9 -7 9 -15 0 -8 -7 -15 -14 -15 -11 0 -16
-14 -19 -47 -3 -44 -4 -43 -5 14 -2 63 9 117 16 81 2 -10 8 -18 13 -18z m225
13 c7 -10 14 -33 14 -50 0 -26 4 -33 20 -33 15 0 20 -7 20 -25 0 -24 -2 -25
-65 -25 -35 0 -76 5 -90 12 -24 11 -24 12 -8 30 14 16 14 22 3 43 -12 22 -11
28 3 42 12 12 19 13 29 5 10 -7 18 -6 32 4 25 18 26 18 42 -3z m-278 -86 l3
-78 -20 20 c-12 12 -18 27 -14 37 5 13 2 15 -14 10 -15 -5 -23 0 -32 21 -12
27 -13 27 -27 8 -8 -10 -14 -24 -14 -31 0 -6 -9 -14 -20 -17 -17 -4 -19 -10
-13 -39 6 -30 5 -32 -10 -20 -24 20 -34 8 -32 -36 2 -29 -3 -42 -16 -50 -16
-10 -21 -8 -35 13 -8 13 -13 29 -10 34 4 5 3 12 -2 15 -17 10 -6 61 16 71 27
12 28 32 3 64 -15 20 -29 25 -74 27 -50 3 -57 0 -72 -22 -17 -26 -13 -44 10
-44 8 0 19 -9 25 -19 14 -28 12 -36 -5 -21 -10 9 -15 9 -15 1 0 -6 -13 -11
-30 -11 -32 0 -32 1 -33 82 0 21 2 41 6 44 3 3 88 8 189 11 101 3 185 7 188
10 2 2 13 3 25 1 18 -3 20 -11 23 -81z m142 8 c-6 -8 -9 -23 -5 -35 6 -18 2
-20 -29 -20 -35 0 -36 1 -36 39 0 30 6 44 22 55 20 14 23 14 41 -5 15 -16 16
-23 7 -34z m1038 5 c4 0 13 5 20 12 16 16 35 -3 30 -28 -4 -21 -23 -21 -75 1
-32 14 -49 51 -18 39 9 -4 15 0 16 7 0 8 4 4 9 -8 5 -13 13 -23 18 -23z
m-1503 10 c4 -6 12 -6 24 2 14 9 22 7 38 -9 16 -16 18 -23 8 -36 -7 -10 -20
-17 -29 -17 -11 0 -16 -9 -16 -26 0 -33 -24 -27 -28 8 -2 14 -12 34 -22 43
-15 13 -16 20 -7 31 14 16 24 17 32 4z m1425 -64 c0 -2 -11 -6 -25 -8 -14 -3
-25 -1 -25 3 0 5 11 9 25 9 14 0 25 -2 25 -4z m-743 -28 c-3 -8 -6 -5 -6 6 -1
11 2 17 5 13 3 -3 4 -12 1 -19z m127 12 c61 23 66 18 66 -70 l0 -81 -42 -19
c-24 -10 -43 -18 -45 -17 -1 1 -11 40 -23 85 -23 87 -21 124 4 103 10 -8 21
-8 40 -1z m-253 -10 l88 0 16 -31 c9 -17 15 -42 13 -57 l-3 -27 -140 0 -140 0
-3 57 c-3 55 -2 57 25 61 15 2 34 2 41 0 8 -1 54 -3 103 -3z m1013 -18 c11
-10 29 -22 39 -25 12 -5 17 -17 17 -42 l0 -35 -125 0 c-112 0 -125 2 -126 18
0 9 -3 36 -5 59 l-5 42 43 4 c78 7 139 0 162 -21z m-1223 -9 c-8 -15 -10 -15
-11 -2 0 17 10 32 18 25 2 -3 -1 -13 -7 -23z m-392 6 c22 -8 29 -15 22 -22
-13 -13 -61 0 -61 18 0 18 -1 18 39 4z m287 -16 c-10 -10 -19 5 -10 18 6 11 8
11 12 0 2 -7 1 -15 -2 -18z m31 5 c-3 -8 -6 -5 -6 6 -1 11 2 17 5 13 3 -3 4
-12 1 -19z m-342 -32 c15 -14 24 -30 20 -35 -3 -6 0 -11 8 -11 8 0 17 -12 20
-27 6 -34 -1 -43 -16 -22 -11 14 -49 39 -61 39 -2 0 -7 -8 -9 -17 -3 -10 -5 8
-6 40 0 31 3 57 8 57 6 0 22 -11 36 -24z m345 4 c0 -5 -4 -10 -10 -10 -5 0
-10 5 -10 10 0 6 5 10 10 10 6 0 10 -4 10 -10z m-245 -59 c26 -28 27 -30 6
-28 -26 2 -56 31 -46 46 8 15 7 15 40 -18z m1715 9 c0 -5 -4 -10 -10 -10 -5 0
-10 5 -10 10 0 6 5 10 10 10 6 0 10 -4 10 -10z m-1459 -17 c6 9 16 17 23 17
10 0 15 -34 18 -147 3 -82 3 -151 1 -155 -2 -5 -38 -8 -79 -8 -41 0 -73 4 -70
9 3 5 17 9 31 9 33 0 33 -1 41 51 7 41 6 43 -15 36 -13 -4 -21 -2 -21 5 0 6 5
8 12 4 8 -5 9 -2 5 9 -5 14 0 17 26 17 18 0 39 5 47 10 13 9 11 14 -13 35 -15
14 -37 25 -48 25 -13 0 -19 6 -17 17 4 22 -32 24 -48 3 -10 -12 -14 -12 -28
-1 -20 17 -20 35 -1 51 11 9 21 9 46 -4 36 -18 53 -12 46 16 -5 19 -5 19 15 2
18 -18 20 -18 29 -1z m191 -54 c5 -3 3 -9 -6 -12 -13 -5 -16 0 -15 26 1 21 3
25 6 12 3 -11 10 -23 15 -26z m158 16 c0 -14 -4 -25 -10 -25 -5 0 -9 11 -8 25
1 14 6 25 10 25 4 0 8 -11 8 -25z m27 3 c-3 -8 -6 -5 -6 6 -1 11 2 17 5 13 3
-3 4 -12 1 -19z m837 6 c11 -27 7 -37 -9 -24 -16 14 -20 40 -6 40 5 0 12 -7
15 -16z m26 6 c0 -5 -4 -10 -10 -10 -5 0 -10 5 -10 10 0 6 5 10 10 10 6 0 10
-4 10 -10z m-770 -30 c0 -5 -4 -10 -10 -10 -5 0 -10 5 -10 10 0 6 5 10 10 10
6 0 10 -4 10 -10z m790 -10 c0 -5 -4 -10 -10 -10 -5 0 -10 5 -10 10 0 6 5 10
10 10 6 0 10 -4 10 -10z m158 1 c14 -9 2 -22 -30 -34 -21 -7 -22 -3 -8 24 12
21 18 23 38 10z m-1599 -77 c-9 -11 -8 -14 6 -14 14 0 15 -3 5 -15 -9 -10 -9
-15 -1 -15 6 0 11 -4 11 -10 0 -5 -11 -10 -25 -10 -23 0 -24 -2 -13 -25 6 -14
22 -28 34 -31 34 -9 50 -31 27 -38 -19 -5 -104 -8 -205 -7 l-58 1 0 83 c1 66
3 78 12 62 16 -29 30 -36 56 -30 17 4 22 1 22 -14 0 -21 23 -45 33 -34 4 3 7
15 7 25 0 10 7 18 15 18 18 0 20 21 3 38 -16 16 -2 28 16 13 18 -15 40 -5 32
15 -3 8 -1 14 4 14 6 0 10 5 10 10 0 6 -7 10 -15 10 -18 0 -20 17 -2 23 18 7
41 -51 26 -69z m743 68 c-7 -5 -10 -16 -6 -25 3 -9 10 -15 14 -12 4 3 11 -2
14 -11 3 -8 2 -13 -2 -10 -4 2 -14 0 -22 -5 -13 -8 -13 -10 0 -19 23 -15 -6
-13 -31 3 -17 10 -22 9 -35 -7 -16 -23 -16 -23 -36 29 l-16 40 42 11 c51 14
96 17 78 6z m-192 -13 c0 -3 -9 -14 -20 -24 -20 -18 -20 -17 -20 8 0 20 5 25
20 24 11 -1 20 -4 20 -8z m-382 -34 c10 -10 -6 -17 -20 -9 -7 5 -23 7 -35 5
-13 -1 -23 3 -23 10 0 11 65 7 78 -6z m-88 -61 c0 -26 24 -49 41 -38 7 4 10 2
7 -7 -3 -8 -11 -13 -18 -11 -7 2 -10 -3 -7 -11 4 -11 -1 -14 -18 -13 -13 0
-21 4 -19 8 2 4 0 9 -5 12 -5 4 -12 2 -16 -4 -10 -15 -35 -12 -35 5 0 8 7 15
15 15 8 0 17 12 21 28 13 61 16 65 25 51 5 -8 9 -24 9 -35z m-240 16 c0 -5 -4
-10 -10 -10 -5 0 -10 5 -10 10 0 6 5 10 10 10 6 0 10 -4 10 -10z m1738 -18
c-10 -2 -18 -6 -18 -9 0 -3 8 -12 18 -19 11 -9 13 -16 6 -21 -6 -5 -12 -27
-12 -50 -2 -36 0 -40 18 -36 11 3 20 0 20 -6 0 -6 -7 -11 -16 -11 -8 0 -12 -4
-9 -10 3 -5 -1 -10 -9 -10 -9 0 -16 -8 -16 -17 0 -10 -3 -13 -9 -8 -5 6 -6 56
-4 111 5 97 6 101 27 96 18 -5 18 -7 4 -10z m-855 -32 c5 -23 10 -28 29 -24
22 4 22 4 -2 -7 -25 -12 -25 -12 -2 -16 22 -4 33 -43 12 -43 -5 0 -10 -5 -10
-11 0 -5 4 -8 8 -5 5 3 16 -4 25 -15 9 -10 12 -19 7 -19 -6 0 -13 7 -16 15 -5
12 -10 13 -20 4 -16 -13 -19 -55 -4 -64 6 -4 8 -10 5 -15 -3 -5 -1 -11 5 -15
5 -3 10 3 10 14 0 14 6 21 20 21 11 0 20 -4 20 -10 0 -5 -6 -10 -12 -10 -9 0
-8 -4 2 -10 12 -8 12 -10 -5 -10 -11 0 -15 -4 -10 -8 6 -4 11 -16 10 -27 0
-11 4 -23 9 -26 24 -18 -15 -26 -134 -27 -72 -1 -140 -4 -151 -7 -10 -4 -19
-2 -19 4 0 6 12 14 28 17 15 4 38 12 52 19 14 7 42 20 64 31 21 10 46 30 55
43 19 30 18 95 -3 164 -8 27 -12 55 -9 62 8 22 30 6 36 -25z m40 -7 c-7 -2
-19 -2 -25 0 -7 3 -2 5 12 5 14 0 19 -2 13 -5z m-643 -148 c0 -41 -4 -57 -15
-62 -23 -8 -31 5 -17 27 7 12 8 20 2 20 -24 0 -2 68 23 70 4 0 7 -25 7 -55z
m27 -27 c-2 -18 -4 -6 -4 27 0 33 2 48 4 33 2 -15 2 -42 0 -60z m43 27 c0 -30
5 -55 10 -55 6 0 10 25 10 55 0 41 4 55 14 55 9 0 12 -7 9 -22 -4 -19 -3 -20
6 -8 10 13 12 13 21 0 17 -27 12 -95 -10 -120 -11 -13 -20 -27 -20 -32 0 -13
18 -10 23 5 2 6 8 8 13 4 13 -12 -10 -42 -36 -45 -14 -2 -20 0 -15 7 3 6 -1
14 -9 17 -19 7 -21 30 -3 38 6 3 1 4 -13 3 -19 -1 -26 -8 -28 -29 -3 -22 -9
-28 -35 -32 -79 -11 -77 -14 -75 104 l2 105 5 -80 c5 -65 9 -80 24 -83 9 -2
17 1 17 7 0 6 -4 11 -10 11 -5 0 -10 5 -10 10 0 19 32 10 37 -10 8 -29 23 -24
24 8 0 15 3 21 6 15 13 -32 23 -7 23 57 0 40 4 70 10 70 6 0 10 -25 10 -55z
m-340 4 c0 -24 -4 -38 -10 -34 -5 3 -10 22 -10 41 0 19 5 34 10 34 6 0 10 -18
10 -41z m60 -8 c0 -30 -5 -52 -12 -55 -10 -5 -10 -7 0 -12 6 -3 12 -21 12 -40
0 -20 5 -34 13 -35 6 0 22 -2 35 -5 14 -2 22 1 22 11 0 9 6 12 15 9 13 -5 15
8 15 86 0 58 4 89 10 85 6 -3 10 -48 10 -100 0 -80 -2 -93 -15 -89 -8 4 -15 1
-15 -6 0 -15 -100 -10 -117 7 -16 14 -17 109 -2 119 8 4 7 9 -2 15 -12 8 -11
11 1 20 11 8 12 12 3 16 -20 8 -15 23 7 23 17 0 20 -7 20 -49z m80 -31 c0 -85
-9 -99 -43 -60 -12 14 -17 38 -17 80 0 60 0 60 30 60 l30 0 0 -80z m-162 -83
c4 42 22 35 22 -8 0 -36 -2 -40 -15 -29 -12 10 -15 10 -15 0 0 -10 -3 -10 -15
0 -17 14 -20 76 -5 85 7 4 8 11 1 18 -12 15 -9 70 4 79 6 5 12 -24 16 -80 3
-48 6 -77 7 -65z m22 53 c0 -5 -4 -10 -10 -10 -5 0 -10 5 -10 10 0 6 5 10 10
10 6 0 10 -4 10 -10z"/>
<path d="M990 3620 c0 -5 7 -10 15 -10 11 0 15 -11 15 -40 0 -33 -3 -40 -20
-40 -11 0 -20 -4 -20 -9 0 -4 41 -9 90 -9 50 0 90 3 90 8 0 5 -10 10 -22 12
-19 2 -24 10 -26 45 -2 33 1 42 15 46 10 3 -17 5 -59 6 -46 1 -78 -3 -78 -9z
m90 -51 c0 -28 -4 -39 -15 -39 -11 0 -15 11 -15 38 0 21 3 42 6 45 14 13 24
-6 24 -44z"/>
<path d="M431 3244 c0 -11 3 -14 6 -6 3 7 2 16 -1 19 -3 4 -6 -2 -5 -13z"/>
<path d="M430 3185 c0 -8 5 -15 10 -15 6 0 10 7 10 15 0 8 -4 15 -10 15 -5 0
-10 -7 -10 -15z"/>
<path d="M430 3135 c0 -8 4 -15 8 -15 5 0 9 7 9 15 0 8 -4 15 -9 15 -4 0 -8
-7 -8 -15z"/>
<path d="M1821 2460 c1 -83 10 -113 27 -95 3 3 0 10 -8 15 -11 7 -11 10 -2 10
9 0 10 6 5 18 -5 9 -8 45 -8 79 0 35 -4 63 -8 63 -4 0 -7 -41 -6 -90z"/>
<path d="M1176 2249 c3 -24 10 -62 16 -84 5 -22 9 -47 9 -55 0 -8 5 -39 10
-67 13 -66 34 -72 24 -7 -6 42 -5 45 13 40 12 -4 28 1 42 12 19 15 22 24 15
48 l-9 29 -5 -35 c-14 -81 -79 -14 -89 92 -2 26 -11 53 -19 59 -12 10 -13 5
-7 -32z"/>
<path d="M1136 2271 c-4 -6 -3 -18 2 -27 6 -11 11 -13 16 -5 4 6 3 18 -2 27
-6 11 -11 13 -16 5z"/>
<path d="M1410 1950 c0 -5 5 -10 10 -10 6 0 10 5 10 10 0 6 -4 10 -10 10 -5 0
-10 -4 -10 -10z"/>
<path d="M1437 1689 c-4 -29 -4 -56 -1 -60 13 -22 21 -4 23 51 3 73 -14 80
-22 9z"/>
<path d="M1445 1278 c4 -172 12 -320 16 -328 7 -11 6 614 0 638 -1 1 -6 2 -12
2 -7 0 -9 -91 -4 -312z"/>
<path d="M1126 714 c-3 -9 -6 -23 -6 -32 0 -13 2 -14 9 -4 4 8 12 12 17 10 5
-1 10 7 12 20 4 26 -22 31 -32 6z"/>
<path d="M2038 1165 c-8 -8 2 -45 13 -45 10 0 10 8 0 33 -3 10 -9 15 -13 12z"/>
<path d="M2025 1100 c-3 -5 1 -10 10 -10 9 0 13 5 10 10 -3 6 -8 10 -10 10 -2
0 -7 -4 -10 -10z"/>
<path d="M2030 1015 c0 -8 5 -15 10 -15 6 0 10 7 10 15 0 8 -4 15 -10 15 -5 0
-10 -7 -10 -15z"/>
<path d="M2070 1020 c0 -5 5 -10 10 -10 6 0 10 -13 10 -30 0 -22 -4 -28 -15
-24 -8 4 -15 1 -15 -5 0 -6 7 -11 15 -11 12 0 15 -13 15 -60 0 -33 4 -60 10
-60 6 0 10 18 10 39 0 22 6 42 13 45 10 5 10 7 0 12 -16 7 -17 66 -1 82 14 14
11 17 -24 26 -17 4 -28 2 -28 -4z"/>
<path d="M1970 1010 c0 -5 5 -10 10 -10 6 0 10 5 10 10 0 6 -4 10 -10 10 -5 0
-10 -4 -10 -10z"/>
<path d="M1982 959 c2 -7 10 -15 17 -17 8 -3 12 1 9 9 -2 7 -10 15 -17 17 -8
3 -12 -1 -9 -9z"/>
<path d="M2035 910 c3 -5 8 -10 11 -10 2 0 4 5 4 10 0 6 -5 10 -11 10 -5 0 -7
-4 -4 -10z"/>
<path d="M2050 869 c0 -5 5 -7 10 -4 6 3 10 8 10 11 0 2 -4 4 -10 4 -5 0 -10
-5 -10 -11z"/>
<path d="M1930 810 c0 -5 5 -10 10 -10 6 0 10 5 10 10 0 6 -4 10 -10 10 -5 0
-10 -4 -10 -10z"/>
<path d="M1955 780 c3 -5 8 -10 11 -10 2 0 4 5 4 10 0 6 -5 10 -11 10 -5 0 -7
-4 -4 -10z"/>
<path d="M2040 730 c0 -5 5 -10 10 -10 6 0 10 5 10 10 0 6 -4 10 -10 10 -5 0
-10 -4 -10 -10z"/>
<path d="M2050 699 c0 -5 5 -7 10 -4 6 3 10 8 10 11 0 2 -4 4 -10 4 -5 0 -10
-5 -10 -11z"/>
<path d="M2025 680 c3 -5 8 -10 11 -10 2 0 4 5 4 10 0 6 -5 10 -11 10 -5 0 -7
-4 -4 -10z"/>
<path d="M2010 579 c0 -5 5 -7 10 -4 6 3 10 8 10 11 0 2 -4 4 -10 4 -5 0 -10
-5 -10 -11z"/>
<path d="M365 1051 c-3 -5 -1 -12 5 -16 5 -3 10 1 10 9 0 18 -6 21 -15 7z"/>
<path d="M270 1080 c0 -19 3 -21 12 -12 9 9 9 15 0 24 -9 9 -12 7 -12 -12z"/>
<path d="M495 350 c-3 -5 -1 -10 4 -10 6 0 11 5 11 10 0 6 -2 10 -4 10 -3 0
-8 -4 -11 -10z"/>
<path d="M475 290 c-3 -5 1 -10 10 -10 9 0 13 5 10 10 -3 6 -8 10 -10 10 -2 0
-7 -4 -10 -10z"/>
<path d="M358 223 c7 -3 16 -2 19 1 4 3 -2 6 -13 5 -11 0 -14 -3 -6 -6z"/>
<path d="M140 260 c0 -5 5 -10 10 -10 6 0 10 5 10 10 0 6 -4 10 -10 10 -5 0
-10 -4 -10 -10z"/>
<path d="M210 351 c0 -23 5 -41 10 -41 6 0 10 15 10 34 0 19 -4 38 -10 41 -6
4 -10 -10 -10 -34z"/>
<path d="M225 270 c3 -5 8 -10 11 -10 2 0 4 5 4 10 0 6 -5 10 -11 10 -5 0 -7
-4 -4 -10z"/>
<path d="M565 660 c3 -5 8 -10 11 -10 2 0 4 5 4 10 0 6 -5 10 -11 10 -5 0 -7
-4 -4 -10z"/>
<path d="M560 610 c0 -5 5 -10 10 -10 6 0 10 5 10 10 0 6 -4 10 -10 10 -5 0
-10 -4 -10 -10z"/>
<path d="M1570 600 c0 -5 5 -10 10 -10 6 0 10 5 10 10 0 6 -4 10 -10 10 -5 0
-10 -4 -10 -10z"/>
<path d="M585 580 c3 -5 8 -10 11 -10 2 0 4 5 4 10 0 6 -5 10 -11 10 -5 0 -7
-4 -4 -10z"/>
<path d="M550 550 c0 -5 5 -10 11 -10 5 0 7 5 4 10 -3 6 -8 10 -11 10 -2 0 -4
-4 -4 -10z"/>
<path d="M1547 553 c-4 -3 -7 -11 -7 -17 0 -6 5 -5 12 2 6 6 9 14 7 17 -3 3
-9 2 -12 -2z"/>
<path d="M1705 550 c-3 -5 -1 -10 4 -10 6 0 11 5 11 10 0 6 -2 10 -4 10 -3 0
-8 -4 -11 -10z"/>
<path d="M580 515 c0 -8 5 -15 10 -15 6 0 10 7 10 15 0 8 -4 15 -10 15 -5 0
-10 -7 -10 -15z"/>
<path d="M1710 520 c0 -5 5 -10 10 -10 6 0 10 5 10 10 0 6 -4 10 -10 10 -5 0
-10 -4 -10 -10z"/>
<path d="M670 500 c0 -5 5 -10 10 -10 6 0 10 5 10 10 0 6 -4 10 -10 10 -5 0
-10 -4 -10 -10z"/>
<path d="M1545 501 c-3 -5 -1 -12 5 -16 5 -3 10 1 10 9 0 18 -6 21 -15 7z"/>
<path d="M560 475 c0 -8 4 -15 9 -15 5 0 14 7 21 15 10 13 9 15 -9 15 -12 0
-21 -6 -21 -15z"/>
<path d="M610 480 c0 -5 5 -10 11 -10 5 0 7 5 4 10 -3 6 -8 10 -11 10 -2 0 -4
-4 -4 -10z"/>
<path d="M921 464 c0 -11 3 -14 6 -6 3 7 2 16 -1 19 -3 4 -6 -2 -5 -13z"/>
<path d="M1500 470 c0 -5 5 -10 10 -10 6 0 10 5 10 10 0 6 -4 10 -10 10 -5 0
-10 -4 -10 -10z"/>
<path d="M670 450 c0 -5 5 -10 10 -10 6 0 10 5 10 10 0 6 -4 10 -10 10 -5 0
-10 -4 -10 -10z"/>
<path d="M1550 424 c0 -14 4 -23 10 -19 6 3 10 15 10 26 0 10 -4 19 -10 19 -5
0 -10 -12 -10 -26z"/>
<path d="M590 430 c0 -5 5 -10 10 -10 6 0 10 5 10 10 0 6 -4 10 -10 10 -5 0
-10 -4 -10 -10z"/>
<path d="M910 430 c0 -5 5 -10 11 -10 5 0 7 5 4 10 -3 6 -8 10 -11 10 -2 0 -4
-4 -4 -10z"/>
<path d="M1675 430 c-3 -5 -2 -10 4 -10 5 0 13 5 16 10 3 6 2 10 -4 10 -5 0
-13 -4 -16 -10z"/>
<path d="M1730 430 c0 -5 7 -10 15 -10 8 0 15 5 15 10 0 6 -7 10 -15 10 -8 0
-15 -4 -15 -10z"/>
<path d="M555 420 c4 -6 11 -8 16 -5 14 9 11 15 -7 15 -8 0 -12 -5 -9 -10z"/>
<path d="M2013 320 c-13 -5 -23 -16 -23 -24 0 -9 -14 -19 -32 -24 -46 -12 -48
-32 -4 -32 45 0 47 -16 4 -25 -18 -4 -37 -10 -42 -12 -13 -8 16 -23 49 -24
l30 -1 -32 -10 c-18 -6 -33 -17 -33 -24 0 -19 10 -18 25 3 22 30 45 9 45 -43
0 -26 3 -44 7 -41 3 4 5 27 5 52 l-2 45 44 0 c54 0 76 8 76 26 0 10 -16 14
-62 16 l-63 1 50 7 c49 7 48 8 -22 14 -29 3 -23 16 8 17 19 0 43 5 54 10 14 6
2 7 -35 3 -37 -4 -52 -3 -45 4 6 6 19 12 30 15 15 3 13 5 -8 6 -35 1 -32 25 4
28 22 2 22 2 4 -6 -18 -9 -17 -10 8 -10 30 -1 38 23 11 33 -19 7 -23 7 -51 -4z
m-30 -67 c-7 -2 -19 -2 -25 0 -7 3 -2 5 12 5 14 0 19 -2 13 -5z m112 -73 c-3
-5 -24 -10 -46 -10 -21 0 -39 5 -39 10 0 6 21 10 46 10 27 0 43 -4 39 -10z"/>
<path d="M2030 140 c0 -5 5 -10 10 -10 6 0 10 5 10 10 0 6 -4 10 -10 10 -5 0
-10 -4 -10 -10z"/>
<path d="M368 3 c18 -2 45 -2 60 0 15 2 0 4 -33 4 -33 0 -45 -2 -27 -4z"/>
</g>
</svg>
