<?xml version="1.0" standalone="no"?>
<!DOCTYPE svg PUBLIC "-//W3C//DTD SVG 20010904//EN"
 "http://www.w3.org/TR/2001/REC-SVG-20010904/DTD/svg10.dtd">
<svg version="1.0" xmlns="http://www.w3.org/2000/svg"
 width="220.000000pt" height="387.000000pt" viewBox="0 0 220.000000 387.000000"
 preserveAspectRatio="xMidYMid meet">
<metadata>
Created by potrace 1.16, written by Peter Selinger 2001-2019
</metadata>
<g transform="translate(0.000000,387.000000) scale(0.100000,-0.100000)"
fill="#000000" stroke="none">
<path d="M36 3838 c-5 -33 -11 -600 -21 -2213 -4 -462 -7 -1012 -9 -1222 -1
-211 0 -383 3 -384 3 0 492 -2 1086 -5 l1081 -5 1 433 c1 238 4 521 7 628 12
411 5 2768 -8 2788 -2 4 -484 9 -1070 10 l-1065 3 -5 -33z m2123 -4 c8 -7 5
-2963 -2 -2971 -4 -3 -37 -6 -74 -6 -37 0 -74 -4 -80 -10 -7 -5 -33 -11 -59
-12 -25 -2 -48 -6 -51 -9 -11 -11 75 -6 104 5 33 13 144 12 157 -1 19 -19 -8
-25 -140 -30 -129 -5 -134 -4 -134 15 0 11 7 166 16 345 9 179 18 467 20 640
3 202 9 317 15 321 16 9 25 129 10 138 -6 4 -14 37 -18 74 -6 65 -5 67 21 76
14 6 26 15 26 21 0 5 6 10 14 10 21 0 30 19 17 34 -6 7 -9 20 -6 27 3 8 1 20
-4 28 -8 12 -12 12 -25 2 -9 -8 -16 -19 -16 -27 0 -7 -4 -16 -10 -19 -9 -6
-11 7 -13 150 -2 99 6 362 14 470 7 95 6 112 -8 127 -9 11 -22 17 -29 14 -7
-3 -15 5 -18 17 -10 38 -7 55 12 59 27 8 28 85 1 93 -11 4 -25 18 -31 31 -6
13 -15 24 -20 24 -12 0 -30 -49 -22 -61 3 -6 0 -16 -6 -24 -15 -17 -6 -45 13
-45 8 0 20 -18 27 -40 12 -37 12 -41 -9 -57 -22 -18 -22 -20 -11 -127 6 -61 8
-145 4 -187 -6 -75 -7 -77 -28 -67 -68 35 -66 35 -66 -2 0 -18 6 -33 15 -36
14 -6 13 -8 -1 -19 -10 -7 -15 -19 -11 -29 7 -18 32 -22 42 -6 3 6 12 10 19
10 16 0 13 -515 -3 -578 -15 -54 -12 -53 -143 -37 l-48 6 0 64 c0 72 6 95 26
95 8 0 14 9 14 19 0 17 5 19 34 14 43 -7 52 8 22 36 -21 20 -23 27 -14 57 5
19 6 39 3 45 -9 14 -44 -18 -60 -55 -7 -17 -14 -23 -16 -15 -6 19 18 567 26
605 6 26 3 35 -17 49 l-23 17 28 -5 c21 -3 27 0 27 14 0 11 -9 21 -23 24 -15
4 -28 19 -36 41 -7 19 -16 34 -20 34 -17 0 -33 -30 -28 -51 4 -15 0 -23 -14
-26 -10 -3 -19 -11 -19 -19 0 -18 34 -35 54 -28 25 10 9 -22 -21 -41 l-25 -17
4 -139 c3 -139 -4 -166 -26 -99 -6 18 -16 35 -23 37 -14 5 -27 -39 -20 -67 3
-13 0 -20 -8 -20 -8 0 -21 -8 -30 -17 -16 -16 -16 -17 1 -30 10 -7 25 -13 34
-13 9 0 25 -17 36 -37 10 -21 21 -40 24 -43 3 -3 4 -85 2 -183 -4 -155 -6
-179 -21 -183 -9 -3 -23 -9 -32 -14 -12 -6 -41 2 -95 25 -44 19 -85 35 -92 35
-7 0 -26 10 -43 22 -22 17 -45 22 -92 23 -34 1 -70 2 -79 3 -26 3 -22 43 8 87
19 29 24 44 18 64 -4 14 -8 33 -9 41 -2 51 -110 119 -160 100 -33 -12 -85 -66
-85 -87 0 -9 -8 -25 -17 -35 -13 -14 -14 -21 -5 -30 17 -17 15 -44 -4 -73 -16
-24 -16 -25 10 -25 15 0 35 -8 46 -18 18 -17 17 -18 -54 -40 -40 -12 -82 -32
-93 -44 -12 -13 -35 -57 -52 -98 -18 -41 -50 -105 -71 -141 l-40 -65 -1 -145
c0 -79 -5 -184 -10 -234 -5 -49 -9 -237 -8 -416 l0 -326 -32 -7 c-17 -3 -40
-6 -50 -6 -19 0 -19 21 -17 713 3 669 4 715 21 731 10 10 15 26 12 35 -4 14 1
16 30 13 27 -3 35 -1 35 11 0 9 -8 21 -18 26 -9 6 -11 11 -4 11 14 0 17 80 3
80 -5 0 -18 -11 -29 -25 -19 -24 -42 -33 -42 -17 -5 209 8 685 20 781 7 53 7
78 -1 87 -9 11 -7 14 10 14 26 0 27 16 2 32 -10 6 -17 17 -15 23 3 6 -4 23
-15 36 l-19 24 -10 -26 c-6 -15 -18 -29 -26 -32 -24 -9 -19 -35 7 -39 21 -4
21 -5 -6 -18 -26 -13 -28 -18 -28 -69 1 -129 -7 -382 -12 -388 -12 -11 -37 7
-37 26 0 27 -20 38 -32 17 -5 -9 -15 -16 -22 -16 -8 0 -19 -6 -25 -14 -8 -10
-5 -19 13 -39 13 -14 26 -31 28 -38 6 -17 48 7 48 26 0 25 20 17 31 -12 8 -20
9 -128 3 -373 -5 -190 -9 -518 -9 -730 0 -212 -1 -490 -3 -617 l-2 -233 -72 0
c-40 0 -89 4 -109 9 -21 5 -57 4 -87 -2 -59 -12 -72 -29 -14 -19 43 8 75 7
192 -4 l85 -9 -2 -238 c-2 -218 -4 -239 -21 -262 -14 -18 -30 -25 -52 -25 -24
0 -42 -9 -67 -35 -24 -25 -43 -35 -64 -35 -40 0 -29 -16 16 -24 33 -6 62 -37
79 -81 2 -5 6 -7 10 -3 4 3 -2 25 -14 48 -12 23 -19 44 -17 47 10 9 45 -21 40
-34 -3 -7 0 -13 6 -13 7 0 11 -6 10 -12 -4 -36 2 -49 19 -44 13 4 25 -3 40
-24 12 -16 22 -32 22 -35 0 -3 -21 -5 -46 -5 -33 0 -51 5 -60 18 -13 16 -13
16 -14 0 0 -31 -17 -20 -49 32 -17 27 -37 50 -45 50 -8 0 -19 8 -25 17 -19 35
-20 6 -1 -32 11 -22 20 -45 20 -52 0 -7 4 -13 10 -13 5 0 7 14 3 33 l-6 32 25
-35 c14 -19 23 -39 20 -44 -5 -9 -158 -3 -168 7 -10 10 16 37 35 37 16 0 47
38 38 46 -3 3 -21 -4 -41 -15 l-36 -21 0 50 0 49 45 7 c25 3 43 10 40 14 -3 5
-23 6 -45 3 l-39 -6 0 287 1 286 129 0 c79 0 129 4 129 10 0 6 -50 10 -131 10
-71 0 -128 3 -126 8 3 4 8 417 11 917 4 501 9 1095 11 1320 3 226 5 499 5 607
l0 197 1052 -4 c578 -3 1054 -8 1057 -11z m-259 -444 c0 -5 -4 -10 -10 -10 -5
0 -10 5 -10 10 0 6 5 10 10 10 6 0 10 -4 10 -10z m-1432 -147 c2 -11 -4 -27
-12 -35 -11 -12 -12 -18 -3 -27 8 -8 8 -11 0 -11 -13 0 -11 -61 3 -95 7 -20 7
-20 -15 0 -21 18 -24 19 -35 3 -10 -14 -12 1 -9 84 2 64 7 104 14 109 19 11
54 -6 57 -28z m1418 -28 c4 -8 15 -15 26 -15 13 0 18 -6 16 -17 -3 -12 -12
-17 -26 -16 -19 2 -22 -2 -22 -32 0 -22 6 -38 18 -44 12 -7 13 -10 3 -11 -11
0 -9 -5 5 -21 18 -20 18 -21 0 -31 -15 -8 -16 -12 -5 -19 11 -7 10 -9 -3 -9
-10 0 -18 -4 -18 -10 0 -5 8 -11 18 -11 15 -1 15 -2 -1 -6 -10 -3 -16 -11 -13
-18 3 -8 0 -16 -7 -18 -7 -3 -1 -9 13 -15 24 -10 24 -11 3 -11 -13 -1 -23 -5
-23 -10 0 -5 10 -12 23 -14 19 -4 18 -4 -5 -6 l-28 -1 -1 148 c-1 81 -3 156
-3 167 -2 36 19 50 30 20z m-286 -56 c0 -5 -4 -9 -10 -9 -5 0 -10 7 -10 16 0
8 5 12 10 9 6 -3 10 -10 10 -16z m-25 -49 c3 -5 1 -10 -4 -10 -6 0 -11 5 -11
10 0 6 2 10 4 10 3 0 8 -4 11 -10z m-1145 -50 c0 -5 -5 -10 -11 -10 -5 0 -7 5
-4 10 3 6 8 10 11 10 2 0 4 -4 4 -10z m1210 4 c0 -3 -7 -12 -14 -20 -12 -11
-14 -31 -10 -87 6 -72 -3 -86 -15 -25 -9 43 -26 42 -28 -2 -1 -24 4 -38 18
-48 11 -7 17 -17 14 -22 -3 -5 -1 -11 5 -15 16 -10 12 -25 -5 -19 -8 4 -15 1
-15 -5 0 -6 7 -11 15 -11 8 0 15 -4 15 -10 0 -5 -4 -10 -8 -10 -10 0 -9 -30 0
-46 4 -6 1 -22 -7 -37 -8 -15 -11 -27 -7 -27 4 0 0 -5 -8 -10 -8 -5 -10 -10
-4 -10 14 0 13 -80 -1 -80 -5 0 -1 -7 9 -15 11 -8 14 -15 8 -15 -8 0 -10 -9
-6 -24 3 -14 0 -29 -10 -39 -22 -22 -20 -33 7 -41 21 -7 21 -7 2 -16 -12 -5
-14 -9 -6 -9 11 -1 10 -5 -5 -16 -18 -13 -18 -14 -1 -15 11 0 15 -5 11 -11 -3
-6 -1 -15 7 -20 10 -6 7 -13 -14 -33 -34 -31 -36 -71 -4 -81 19 -6 19 -8 5
-12 -22 -6 -24 -23 -3 -23 8 0 15 -4 15 -10 0 -5 -6 -10 -13 -10 -9 0 -13 -24
-14 -85 -1 -72 2 -85 16 -86 14 -1 14 -2 -1 -6 -21 -5 -23 -19 -5 -26 7 -3 4
-6 -7 -6 -12 -1 -16 -6 -12 -17 3 -9 6 -22 6 -30 0 -8 7 -14 15 -14 10 0 15
-9 14 -27 -1 -16 2 -36 6 -47 6 -14 5 -17 -6 -14 -8 3 -13 17 -13 37 2 36 -8
40 -23 9 -17 -37 -16 -88 2 -88 18 0 20 -17 3 -22 -10 -4 -10 -10 -1 -31 9
-20 9 -27 0 -31 -9 -5 -8 -8 2 -12 11 -5 11 -8 0 -15 -12 -8 -11 -11 1 -19 13
-8 13 -10 -2 -10 -11 0 -15 -6 -11 -20 3 -11 10 -20 15 -20 6 0 5 -7 -2 -15
-10 -12 -10 -15 0 -15 8 0 9 -4 3 -12 -14 -20 -16 -68 -2 -68 9 0 9 -3 0 -14
-9 -11 -9 -15 1 -19 10 -4 10 -7 -1 -15 -10 -8 -11 -11 -1 -17 10 -6 9 -11 -5
-22 -17 -12 -17 -13 -2 -13 21 0 22 -19 2 -26 -8 -4 -15 -11 -15 -16 0 -6 7
-8 15 -4 18 7 20 -10 3 -18 -10 -5 -10 -7 0 -12 10 -5 10 -9 1 -20 -9 -11 -8
-14 7 -14 17 0 17 -1 -2 -16 -13 -11 -15 -17 -6 -20 17 -8 15 -27 -2 -21 -9 4
-16 -3 -19 -19 -3 -19 1 -28 17 -34 20 -8 20 -9 1 -10 -18 -1 -18 -2 -3 -13
15 -10 15 -12 0 -24 -16 -11 -16 -12 1 -13 21 0 23 -20 2 -20 -8 0 -15 -4 -15
-10 0 -5 8 -10 17 -10 15 0 14 -2 -3 -15 -12 -9 -14 -14 -6 -15 7 0 10 -5 7
-10 -4 -6 -2 -17 5 -25 7 -8 7 -15 1 -19 -5 -3 -8 -17 -6 -31 1 -14 -3 -25 -9
-25 -6 0 -3 -5 8 -11 13 -8 15 -13 6 -19 -9 -6 -9 -13 -1 -28 8 -15 8 -22 -2
-26 -9 -5 -9 -7 1 -12 15 -7 16 -25 0 -22 -6 2 -14 -5 -16 -14 -2 -12 3 -18
15 -18 15 0 16 -2 3 -11 -11 -8 -12 -12 -2 -16 18 -7 15 -23 -5 -24 -15 0 -15
-2 2 -9 11 -5 14 -9 8 -9 -16 -1 -17 -31 -2 -31 6 0 3 -8 -6 -17 -16 -16 -16
-17 1 -30 17 -12 17 -13 -2 -13 -19 -1 -19 -1 0 -15 11 -8 14 -15 7 -15 -7 0
-9 -4 -6 -10 3 -5 2 -10 -3 -10 -5 0 -12 -9 -15 -20 -4 -15 0 -20 16 -21 17
-1 18 -2 5 -6 -22 -5 -24 -23 -3 -23 8 0 15 -4 15 -10 0 -5 -7 -10 -15 -10
-22 0 -19 -40 3 -41 14 0 14 -2 -3 -9 l-20 -9 20 -1 c62 -6 115 1 158 19 l48
21 9 -25 c5 -14 13 -26 17 -26 5 -1 30 -3 57 -5 36 -2 46 0 38 8 -6 6 -28 12
-49 13 l-38 1 3 264 c1 146 5 275 7 288 3 13 13 22 24 22 11 0 22 6 24 13 3 7
6 5 6 -5 1 -12 -6 -18 -19 -18 -11 0 -20 -4 -20 -10 0 -5 9 -10 20 -10 22 0
27 -15 8 -24 -10 -5 -10 -7 0 -12 17 -8 15 -25 -3 -18 -8 4 -15 1 -15 -5 0 -6
5 -11 10 -11 6 0 5 -8 -2 -20 -11 -17 -10 -22 1 -30 11 -6 12 -12 4 -22 -6 -7
-10 -34 -10 -61 1 -26 -2 -47 -7 -47 -5 0 -3 -6 3 -14 9 -11 9 -15 0 -18 -9
-3 -6 -11 9 -26 23 -23 29 -38 12 -27 -5 3 -10 1 -10 -4 0 -6 6 -11 13 -12 6
0 3 -4 -8 -9 -18 -7 -19 -8 -2 -15 19 -8 23 -35 5 -35 -6 0 -3 -7 8 -15 18
-14 18 -14 -6 -16 -16 -1 -19 -3 -8 -6 20 -5 31 -33 22 -57 -4 -11 -13 -14
-33 -10 -19 5 -23 3 -16 -4 6 -6 22 -13 35 -14 l25 -3 -3 163 -3 162 123 2
c98 1 112 3 68 8 l-55 7 70 -1 c55 -1 70 -4 70 -16 0 -12 -17 -15 -100 -13
-86 1 -92 0 -45 -7 30 -4 76 -8 103 -9 l47 -1 0 -64 c0 -81 -6 -96 -38 -96
-31 0 -18 -16 18 -23 16 -3 10 -5 -17 -6 -24 0 -43 -5 -43 -9 0 -15 24 -32 46
-32 19 0 23 -7 26 -47 5 -57 0 -77 -16 -64 -6 5 -36 12 -66 16 -92 11 -128 24
-149 53 -14 18 -20 22 -21 11 0 -8 5 -20 12 -27 9 -9 9 -12 -1 -12 -45 0 58
-56 127 -70 26 -5 56 -12 67 -15 19 -6 19 -6 2 8 -11 9 -38 19 -60 22 -23 4
-49 11 -57 16 -27 16 93 -2 130 -20 65 -30 31 -45 -65 -27 -28 5 -36 4 -25 -3
8 -6 24 -11 35 -11 22 0 95 -46 95 -59 0 -10 -68 -20 -76 -12 -2 3 -17 7 -32
9 -34 4 -39 9 -24 24 9 9 12 9 12 -1 0 -15 42 -11 47 6 5 14 -31 26 -56 18
-11 -3 -23 -15 -26 -26 -4 -10 -15 -19 -25 -19 -25 0 -35 -19 -15 -27 16 -5
16 -7 1 -15 -21 -12 -11 -28 17 -28 l21 0 -22 -16 c-22 -15 -30 -48 -13 -59 5
-3 11 7 13 22 6 49 28 39 28 -14 0 -54 9 -93 20 -93 4 0 5 32 2 70 l-5 70 60
0 60 0 7 -37 c3 -21 6 -55 6 -75 l0 -38 -52 -1 c-29 -1 -84 -2 -123 -3 -94 -3
-145 3 -145 19 0 7 -7 18 -15 25 -11 9 -12 16 -5 25 14 17 4 40 -23 52 -40 19
-93 33 -120 33 -21 0 -27 5 -27 23 0 26 -17 47 -38 47 -12 0 -12 -3 -2 -15 15
-18 5 -54 -11 -38 -7 7 -11 50 -10 107 2 90 0 96 -19 96 -25 0 -26 -18 -2 -36
16 -12 15 -13 -8 -23 l-25 -10 25 -2 c17 -1 20 -3 8 -6 -10 -2 -18 -8 -18 -13
0 -5 8 -11 18 -13 12 -3 9 -5 -8 -6 -24 -2 -24 -2 -6 -16 16 -12 17 -15 4 -15
-9 0 -18 -9 -21 -21 -4 -16 0 -23 16 -27 21 -6 21 -6 -3 -13 -23 -6 -23 -7 -3
-8 41 -2 35 -21 -6 -21 -34 0 -41 3 -41 20 0 11 6 20 13 20 8 0 7 4 -3 10 -13
9 -13 11 0 20 10 6 11 10 3 10 -8 0 -13 13 -13 31 0 16 4 28 9 24 5 -3 12 -1
16 5 3 5 1 10 -4 10 -14 0 -14 420 0 590 5 69 12 386 14 705 4 663 16 1042 33
1070 10 16 11 89 2 95 -5 3 -9 41 -10 85 -2 131 -1 145 13 145 8 0 19 11 25
25 10 21 42 36 42 19z m-1219 -64 c10 0 19 5 19 12 0 6 3 8 7 4 5 -4 -1 -14
-11 -22 -19 -13 -19 -14 -2 -14 15 0 16 -3 6 -15 -8 -10 -9 -15 -2 -15 16 0 7
-100 -9 -112 -11 -7 -11 -11 -1 -15 17 -7 15 -23 -3 -23 -11 0 -12 -5 -5 -24
5 -13 6 -33 3 -45 -3 -12 -1 -27 4 -34 12 -14 11 -116 0 -134 -5 -8 -4 -13 2
-13 6 0 11 -4 11 -10 0 -5 -7 -10 -15 -10 -8 0 -15 -4 -15 -10 0 -5 8 -10 17
-10 15 0 14 -2 -3 -15 -17 -13 -17 -14 -1 -15 20 0 23 -16 5 -23 -10 -4 -9 -8
2 -16 12 -8 12 -13 3 -22 -9 -9 -10 -16 -2 -26 8 -9 8 -17 0 -26 -6 -8 -8 -17
-4 -20 10 -11 10 -57 0 -57 -5 0 -4 -6 2 -14 9 -10 9 -16 1 -21 -8 -5 -8 -11
1 -21 9 -11 8 -15 -5 -20 -13 -5 -14 -9 -5 -20 9 -11 8 -14 -6 -14 -14 0 -15
-3 -5 -15 6 -8 9 -19 5 -25 -3 -5 2 -10 11 -10 16 0 16 -1 -2 -15 -17 -13 -17
-14 -1 -15 20 0 23 -16 5 -24 -10 -5 -10 -7 -1 -12 10 -4 9 -11 -3 -29 -12
-18 -12 -24 -2 -28 10 -4 10 -8 -2 -16 -13 -10 -13 -12 0 -21 8 -5 10 -10 4
-10 -12 0 -12 -29 0 -48 4 -7 2 -12 -4 -12 -6 0 -8 -5 -4 -12 11 -17 11 -78 1
-85 -4 -2 -3 -11 4 -19 9 -11 8 -14 -5 -14 -22 0 -21 -20 2 -20 15 -1 15 -2
-2 -15 -17 -13 -18 -15 -3 -15 13 0 17 -8 16 -32 0 -18 -3 -27 -6 -20 -8 20
-20 14 -25 -13 -3 -14 -1 -25 3 -25 5 0 6 -7 3 -15 -4 -9 0 -15 10 -15 22 0
20 -30 -1 -30 -16 -1 -16 -2 1 -15 20 -15 20 -15 0 -15 -18 -1 -18 -1 -1 -14
12 -9 14 -16 7 -21 -5 -3 -7 -12 -3 -18 13 -19 12 -121 -1 -129 -8 -6 -7 -8 2
-8 9 0 11 -13 8 -45 -2 -25 0 -48 5 -51 6 -3 5 -11 -2 -20 -6 -8 -8 -14 -4
-14 4 0 2 -7 -5 -15 -10 -12 -9 -15 6 -15 16 0 17 -2 4 -10 -13 -9 -13 -11 0
-21 11 -8 12 -12 3 -16 -7 -2 -13 -12 -13 -21 0 -8 -6 -23 -13 -31 -9 -12 -11
-39 -7 -101 4 -47 7 -77 8 -67 1 9 9 17 17 17 18 0 20 -17 2 -23 -9 -3 -9 -7
2 -20 7 -10 9 -17 3 -17 -6 0 -9 -28 -7 -70 1 -45 -2 -70 -9 -70 -6 0 -4 -5 4
-11 12 -8 12 -12 2 -16 -10 -4 -10 -8 -1 -19 9 -11 8 -14 -4 -14 -26 0 -29
-30 -4 -40 21 -8 21 -9 -5 -9 -16 -1 -28 -5 -28 -11 0 -5 12 -11 28 -11 16 -1
20 -3 10 -6 -22 -5 -24 -23 -3 -23 8 0 15 -4 15 -10 0 -5 -7 -10 -15 -10 -19
0 -19 -24 0 -44 18 -17 20 -56 3 -56 -6 0 -3 -7 8 -15 17 -13 17 -14 2 -15
-21 0 -24 -16 -5 -23 6 -3 2 -6 -10 -6 -16 -1 -23 -7 -23 -21 0 -14 7 -20 23
-21 l22 -2 -22 -4 c-24 -5 -32 -32 -10 -34 10 0 10 -2 0 -6 -7 -2 -13 -15 -13
-28 0 -13 -4 -27 -10 -30 -20 -12 -9 -25 20 -25 23 0 35 -7 50 -32 12 -19 20
-26 20 -17 0 9 -10 28 -21 43 -12 15 -18 30 -14 34 4 4 13 -2 21 -13 13 -17
16 -18 24 -5 7 11 5 16 -6 18 -21 5 -14 46 8 50 11 2 18 -3 18 -13 0 -20 47
-72 56 -62 4 4 2 13 -4 19 -17 17 -15 45 4 52 9 3 33 6 54 6 25 0 42 6 48 15
7 13 29 16 108 16 54 0 118 -3 142 -7 48 -7 73 6 65 35 -3 13 2 20 20 25 34 8
57 -2 57 -24 0 -26 16 -33 56 -25 28 5 37 13 50 45 18 44 29 51 64 38 24 -10
24 -11 5 -18 -11 -4 -23 -6 -27 -3 -5 2 -8 -1 -8 -7 0 -6 -4 -9 -9 -6 -10 7
-23 -19 -14 -28 3 -3 24 -3 47 0 22 2 57 6 76 7 19 2 44 8 55 14 28 15 131 27
138 16 4 -5 1 -10 -6 -11 -68 -5 -114 -16 -114 -28 0 -8 10 -14 21 -14 18 0
19 2 6 11 -11 8 -7 9 17 5 18 -3 35 -1 38 4 3 6 15 10 26 10 17 0 19 -7 19
-65 0 -77 -28 -145 -60 -145 -10 0 -22 -4 -25 -10 -12 -20 -60 -10 -79 17
l-19 26 24 -7 c52 -16 75 -17 94 -2 19 15 18 16 -20 10 -38 -5 -44 -3 -78 32
-20 21 -40 35 -44 31 -3 -4 -1 -13 5 -19 7 -7 12 -16 12 -20 0 -16 -23 -7 -42
17 -11 14 -27 25 -35 25 -14 0 -13 -3 3 -21 10 -11 19 -26 20 -32 3 -32 5 -37
14 -37 6 0 10 7 10 17 0 14 2 14 20 -2 11 -10 20 -24 20 -32 0 -7 14 -22 31
-32 31 -19 32 -19 52 0 12 10 29 19 38 19 10 0 21 4 24 10 4 6 14 4 28 -5 15
-9 27 -11 37 -5 21 14 94 12 108 -2 20 -20 26 0 8 27 -23 34 -10 32 21 -5 26
-32 46 -40 37 -15 -8 20 16 19 64 -1 20 -9 31 -18 25 -21 -20 -7 -15 -27 12
-51 34 -30 32 -44 -7 -40 -29 3 -33 7 -33 33 0 31 -31 55 -70 54 -14 0 -9 -5
18 -20 20 -11 37 -22 37 -25 0 -3 -4 -2 -10 1 -5 3 -10 -1 -10 -9 0 -8 5 -18
10 -21 29 -18 -16 -25 -154 -25 -150 0 -153 0 -176 25 -27 29 -109 79 -117 72
-2 -3 8 -13 24 -23 37 -23 73 -55 73 -66 0 -4 -17 -8 -39 -8 -39 0 -110 32
-168 76 -18 14 -51 31 -74 39 -23 9 -48 23 -55 33 -12 16 -13 15 -14 -5 0 -28
-11 -29 -28 -3 -7 11 -20 20 -29 20 -14 0 -13 -4 5 -23 12 -13 19 -27 15 -30
-11 -12 -23 -8 -23 7 0 31 -114 106 -133 87 -7 -7 -2 -13 18 -21 26 -10 84
-50 72 -50 -3 0 -29 11 -58 25 -29 13 -55 22 -57 20 -3 -2 12 -19 32 -38 52
-49 44 -61 -16 -25 -29 17 -72 33 -95 36 -28 3 -40 8 -37 17 7 18 -34 45 -68
45 -15 0 -30 5 -33 10 -7 12 -25 13 -25 2 0 -5 25 -16 56 -26 41 -13 53 -21
45 -29 -18 -18 -13 -27 14 -27 14 0 25 -4 25 -8 0 -5 23 -19 50 -32 28 -13 56
-30 62 -37 6 -7 -15 0 -47 17 -31 16 -68 30 -82 30 -15 0 -37 14 -58 37 -19
21 -37 34 -41 30 -4 -4 3 -18 16 -32 36 -38 17 -30 -23 10 -19 19 -43 35 -53
35 -14 0 -9 -9 21 -34 35 -30 38 -35 22 -42 -13 -4 -23 0 -32 13 -8 12 -26 23
-40 25 -29 6 -34 -8 -6 -17 13 -4 18 -12 14 -21 -5 -12 7 -15 74 -13 86 2 134
-10 201 -49 52 -30 48 -40 -8 -18 -53 21 -63 20 -57 -4 6 -25 -3 -27 -123 -29
l-96 -1 -48 45 c-27 25 -53 45 -57 45 -5 0 -9 11 -9 25 0 16 -6 25 -15 25 -16
0 -20 -27 -7 -45 4 -6 27 -26 51 -45 l44 -34 -28 -7 c-20 -6 -35 -3 -56 13
-16 12 -29 28 -29 35 0 8 -7 16 -15 19 -8 3 -24 25 -35 49 -12 24 -31 56 -42
70 -17 22 -19 29 -7 36 8 5 16 9 19 9 13 -1 52 -41 54 -57 2 -9 8 -19 14 -21
15 -5 2 41 -15 51 -25 15 -14 29 18 22 l30 -7 -1 114 c-4 257 12 1668 20 1848
11 227 12 440 1 630 -7 124 -3 213 7 168 2 -10 12 -18 23 -18z m1472 -148
c-13 -2 -23 -6 -23 -8 0 -10 28 -34 39 -34 14 0 14 -17 1 -25 -8 -5 -7 -11 1
-21 10 -12 8 -16 -9 -21 -26 -6 -29 -23 -4 -24 16 -1 16 -2 0 -6 -10 -2 -18
-8 -18 -13 0 -5 8 -11 18 -13 13 -4 11 -5 -5 -6 -28 -1 -31 -21 -3 -21 11 0
20 -4 20 -10 0 -5 -7 -10 -15 -10 -8 0 -15 -4 -15 -10 0 -5 7 -10 15 -10 8 0
15 -4 15 -10 0 -5 -8 -10 -18 -10 -11 0 -18 -8 -19 -20 -1 -14 4 -20 18 -20
11 0 17 -5 14 -10 -4 -6 -15 -8 -26 -5 -15 5 -19 2 -17 -17 2 -15 12 -25 28
-29 l25 -7 -27 -1 c-30 -1 -49 -21 -21 -21 17 -1 17 -1 1 -14 -25 -19 -22 -32
12 -53 30 -17 30 -18 8 -27 l-23 -9 25 -7 25 -8 -27 -1 c-16 -1 -28 -5 -28 -9
0 -13 23 -39 40 -45 11 -4 10 -7 -6 -12 -12 -4 -26 -16 -32 -28 -8 -19 -11
-13 -17 38 -8 61 1 533 11 558 3 9 14 12 32 8 25 -5 25 -6 5 -9z m-63 -44 c0
-16 -3 -19 -11 -11 -6 6 -8 16 -5 22 11 17 16 13 16 -11z m-1510 -8 c0 -5 -5
-10 -11 -10 -5 0 -7 5 -4 10 3 6 8 10 11 10 2 0 4 -4 4 -10z m1177 -32 c-3 -8
-6 -5 -6 6 -1 11 2 17 5 13 3 -3 4 -12 1 -19z m-27 -58 c0 -5 -4 -10 -10 -10
-5 0 -10 5 -10 10 0 6 5 10 10 10 6 0 10 -4 10 -10z m80 -34 c0 -32 -11 -39
-32 -19 -28 25 -24 51 7 45 18 -3 25 -11 25 -26z m-470 -151 c0 -27 -219 -71
-233 -48 -4 6 12 8 41 6 38 -3 134 20 190 46 1 0 2 -1 2 -4z m596 -81 c-4 -9
-9 -15 -11 -12 -3 3 -3 13 1 22 4 9 9 15 11 12 3 -3 3 -13 -1 -22z m272 -5
c-2 -6 -8 -10 -13 -10 -5 0 -11 4 -13 10 -2 6 4 11 13 11 9 0 15 -5 13 -11z
m-1424 -34 c3 -8 1 -15 -4 -15 -6 0 -10 7 -10 15 0 8 2 15 4 15 2 0 6 -7 10
-15z m1176 -15 c0 -5 -2 -10 -4 -10 -3 0 -8 5 -11 10 -3 6 -1 10 4 10 6 0 11
-4 11 -10z m-726 -36 c6 -15 8 -15 31 0 31 20 35 20 35 -3 0 -22 -19 -31 -66
-31 -26 0 -34 4 -34 18 0 33 23 44 34 16z m-507 -51 c-3 -10 -5 -2 -5 17 0 19
2 27 5 18 2 -10 2 -26 0 -35z m565 -13 c-33 -21 -73 -98 -80 -156 -4 -35 -9
-44 -23 -44 -21 0 -27 -20 -6 -20 7 -1 5 -6 -5 -14 -14 -10 -15 -15 -5 -26 9
-10 9 -14 -2 -17 -11 -5 -11 -7 0 -14 11 -6 11 -11 2 -20 -9 -9 -10 -16 -2
-26 9 -10 8 -13 -5 -13 -9 0 -16 -4 -16 -10 0 -5 7 -10 15 -10 8 0 15 -4 15
-10 0 -5 -10 -10 -22 -10 -21 -1 -22 -2 -5 -14 9 -7 17 -16 17 -20 0 -3 -8 -6
-17 -6 -16 -1 -16 -2 1 -15 19 -15 19 -15 -2 -15 -29 0 -29 -30 1 -31 l22 -2
-22 -4 c-26 -5 -31 -23 -8 -23 8 0 15 -4 15 -10 0 -5 -9 -10 -20 -10 -28 0
-25 -20 3 -21 l22 -2 -22 -4 c-28 -5 -30 -23 -3 -23 27 0 25 -18 -2 -23 -23
-4 -23 -4 2 -15 18 -7 20 -11 8 -11 -11 -1 -15 -6 -12 -16 4 -9 -3 -16 -21
-21 -14 -3 -29 -4 -32 0 -9 9 -4 343 7 490 10 122 9 148 -7 133 -15 -16 -22
-119 -22 -365 -1 -161 -5 -271 -11 -283 -27 -49 -31 -14 -29 249 1 148 -2 267
-7 267 -5 0 -9 -120 -10 -268 0 -274 -4 -306 -38 -278 -10 8 -16 9 -21 1 -18
-29 -25 0 -25 105 0 70 -4 115 -10 115 -6 0 -10 -55 -10 -144 0 -140 -1 -144
-22 -149 -12 -4 -26 -1 -31 6 -4 7 -5 64 -2 127 4 63 9 165 11 226 l4 111 65
128 c36 70 65 134 65 141 0 20 57 55 92 56 17 1 41 6 53 12 12 6 58 11 103 12
81 1 82 1 54 -16z m184 5 c14 -4 14 -7 -1 -22 -10 -9 -22 -29 -27 -44 -7 -20
-14 -26 -29 -22 -10 3 -19 0 -19 -6 0 -6 8 -12 18 -12 16 -1 16 -2 0 -6 -26
-7 -22 -20 10 -31 l27 -10 -33 -1 c-38 -1 -34 -21 4 -21 13 0 24 -4 24 -10 0
-5 -14 -10 -31 -10 -17 0 -28 -4 -24 -10 3 -5 17 -10 31 -10 13 0 24 -5 24
-11 0 -7 -8 -9 -20 -5 -62 19 -65 19 -52 5 7 -8 27 -19 45 -26 28 -10 29 -12
9 -12 -13 -1 -36 5 -50 13 -15 7 -38 19 -52 25 -54 26 -63 38 -56 74 13 70
126 175 172 161 8 -2 21 -6 30 -9z m-171 -49 c-40 -49 -63 -122 -72 -228 -3
-38 -10 -68 -15 -68 -12 0 -5 105 11 172 13 59 31 94 70 136 44 47 48 39 6
-12z m218 2 c-14 -18 -37 -109 -35 -135 1 -13 -3 -23 -10 -23 -7 0 -9 16 -5
50 4 31 2 48 -3 45 -20 -12 -9 35 12 55 24 22 57 29 41 8z m81 -13 c8 -8 24
-15 36 -15 22 0 22 -1 15 -132 -8 -162 -12 -188 -32 -188 -12 0 -14 19 -12
128 2 70 0 132 -4 138 -9 15 -47 25 -47 12 0 -5 9 -12 20 -15 32 -9 23 -26
-10 -19 -36 7 -41 -11 -5 -20 14 -3 25 -10 25 -14 0 -5 -9 -6 -20 -3 -16 4
-20 0 -20 -21 0 -20 5 -26 23 -27 l22 -2 -22 -4 c-27 -5 -31 -22 -5 -24 16 -1
16 -2 0 -6 -24 -6 -22 -18 5 -32 l22 -12 -22 5 c-15 3 -23 -1 -23 -10 0 -8 10
-15 23 -15 l22 -2 -22 -4 c-28 -5 -30 -23 -3 -30 24 -6 16 -23 -10 -23 -13 0
-17 -5 -14 -15 4 -8 12 -15 20 -15 8 0 14 -5 14 -10 0 -7 -6 -7 -19 -1 -10 6
-21 7 -25 4 -3 -3 -6 6 -6 20 0 15 -4 27 -10 27 -14 0 -13 238 1 281 19 55 53
73 83 44z m564 -11 c-16 -8 -28 -19 -28 -25 0 -6 8 -6 21 1 30 17 34 6 5 -13
-27 -18 -26 -63 2 -52 13 5 13 3 1 -11 -18 -22 -52 -34 -66 -22 -7 6 -14 5
-18 -2 -11 -17 -25 -11 -25 11 0 22 62 114 83 122 7 3 21 6 32 6 16 0 15 -2
-7 -15z m-389 -92 c-3 -56 -9 -83 -20 -95 -32 -31 -31 -10 5 99 5 16 2 23 -14
27 -11 3 -23 1 -26 -4 -3 -5 -14 -9 -25 -9 -14 0 -19 5 -17 18 3 13 13 17 41
16 25 -1 37 3 37 12 0 8 5 14 11 14 7 0 10 -26 8 -78z m225 -1 c17 -14 23 -56
6 -46 -6 4 -11 -6 -11 -22 -1 -20 -3 -22 -6 -8 -10 45 -17 50 -23 15 l-7 -35
-2 33 c-1 39 -21 43 -21 5 l-1 -28 -12 28 c-7 16 -15 28 -19 28 -24 -2 -28 2
-28 27 0 28 0 28 54 22 30 -3 61 -12 70 -19z m-523 -80 c-9 -6 -10 -11 -2 -15
16 -10 14 -26 -4 -26 -16 0 -20 26 -9 55 5 12 10 13 18 5 8 -8 7 -13 -3 -19z
m236 -3 c-3 -8 -6 -5 -6 6 -1 11 2 17 5 13 3 -3 4 -12 1 -19z m438 12 c3 -5
-2 -10 -12 -10 -17 -1 -17 -1 0 -14 18 -14 18 -15 0 -25 -17 -10 -17 -10 0
-11 24 0 21 -19 -5 -30 -18 -7 -19 -9 -5 -9 20 -1 23 -17 5 -24 -10 -4 -9 -8
2 -16 8 -6 10 -11 4 -11 -14 0 -14 -33 0 -42 7 -5 5 -8 -6 -8 -11 0 -16 -7
-15 -20 1 -11 7 -20 14 -20 19 0 16 -17 -4 -25 -17 -7 -16 -8 2 -15 17 -7 17
-9 3 -9 -10 -1 -19 -5 -19 -11 -5 -38 -2 -45 19 -48 12 -2 22 -8 22 -13 0 -6
-9 -7 -20 -4 -11 4 -20 2 -20 -4 0 -6 9 -11 20 -11 15 0 20 -6 19 -27 -1 -17
-3 -21 -6 -10 -2 9 -12 17 -22 17 -16 0 -17 -12 -13 -147 2 -82 8 -149 13
-151 5 -2 9 -8 9 -13 0 -4 -7 -6 -15 -3 -8 4 -15 1 -15 -5 0 -6 7 -11 15 -11
8 0 15 -4 15 -10 0 -5 -7 -7 -15 -4 -8 4 -15 1 -15 -5 0 -6 7 -11 15 -11 21 0
19 -20 -2 -21 -17 -1 -17 -2 0 -6 13 -3 16 -10 11 -26 -4 -12 -11 -25 -17 -28
-5 -4 -1 -11 9 -18 18 -10 18 -10 -1 -11 -20 -1 -20 -1 -1 -15 19 -15 19 -15
-5 -16 l-24 0 23 -11 c30 -15 32 -62 2 -53 -11 4 -20 2 -20 -4 0 -6 9 -11 20
-11 11 0 20 -7 20 -15 0 -12 -4 -13 -19 -5 -28 14 -31 13 -32 -12 0 -23 0 -23
-9 -2 -4 12 -7 68 -5 125 2 57 9 279 15 494 8 283 14 391 23 397 17 11 35 10
42 -2z m-85 -345 c-5 -182 -10 -442 -10 -580 0 -137 -3 -260 -6 -272 -6 -21
-8 -21 -29 -7 -18 12 -28 13 -44 5 -22 -12 -64 -14 -100 -4 l-24 6 7 181 c3
100 9 253 12 341 3 88 6 264 6 390 l2 230 60 3 c34 2 77 11 96 20 19 10 36 17
37 17 1 0 -2 -149 -7 -330z m-660 300 c19 -7 28 -14 20 -14 -8 0 -28 6 -45 14
-39 17 -21 18 25 0z m301 -11 c14 -14 35 -27 45 -28 18 -3 19 -20 17 -437 -1
-387 -7 -639 -15 -643 -138 -75 -139 -75 -139 17 0 189 1 202 19 215 20 15 27
100 37 457 5 155 11 233 19 238 6 4 21 6 33 4 30 -5 42 29 16 48 -10 9 -13 14
-5 15 6 0 12 7 12 15 0 18 -5 18 -30 5 -36 -19 -50 -2 -50 61 0 32 3 59 7 59
4 0 19 -12 34 -26z m-226 -14 c3 -5 -1 -10 -9 -10 -9 0 -16 5 -16 10 0 6 4 10
9 10 6 0 13 -4 16 -10z m-95 -10 c0 -5 -2 -10 -4 -10 -3 0 -8 5 -11 10 -3 6
-1 10 4 10 6 0 11 -4 11 -10z m-40 -31 c0 -5 -4 -9 -10 -9 -5 0 -10 7 -10 16
0 8 5 12 10 9 6 -3 10 -10 10 -16z m125 -19 c3 -5 1 -10 -4 -10 -6 0 -11 5
-11 10 0 6 2 10 4 10 3 0 8 -4 11 -10z m-195 -16 c0 -8 -5 -12 -10 -9 -6 4 -8
11 -5 16 9 14 15 11 15 -7z m160 0 c0 -8 -4 -12 -10 -9 -5 3 -10 10 -10 16 0
5 5 9 10 9 6 0 10 -7 10 -16z m-195 -24 c3 -5 1 -10 -4 -10 -6 0 -11 5 -11 10
0 6 2 10 4 10 3 0 8 -4 11 -10z m153 -14 c3 -12 -1 -17 -10 -14 -7 3 -15 13
-16 22 -3 12 1 17 10 14 7 -3 15 -13 16 -22z m245 -13 c-7 -2 -19 -2 -25 0 -7
3 -2 5 12 5 14 0 19 -2 13 -5z m-393 -45 c0 -5 -4 -8 -10 -8 -5 0 -10 10 -10
23 0 18 2 19 10 7 5 -8 10 -18 10 -22z m110 11 c0 -5 -4 -9 -10 -9 -5 0 -10 7
-10 16 0 8 5 12 10 9 6 -3 10 -10 10 -16z m210 1 c13 -9 13 -10 0 -10 -8 0
-22 5 -30 10 -13 9 -13 10 0 10 8 0 22 -5 30 -10z m-130 -20 c0 -11 -4 -20
-10 -20 -5 0 -10 9 -10 20 0 11 5 20 10 20 6 0 10 -9 10 -20z m208 7 c6 -5 12
-21 12 -38 0 -22 -5 -29 -20 -29 -11 0 -23 0 -27 0 -9 0 -13 48 -6 67 5 12 21
12 41 0z m-358 -32 c-3 -5 -13 -9 -22 -8 -10 2 -18 -2 -18 -7 0 -6 9 -10 19
-10 11 0 23 -4 26 -10 4 -6 -7 -10 -24 -10 -17 0 -31 -4 -31 -10 0 -5 11 -10
25 -10 14 0 25 -4 25 -10 0 -5 -11 -10 -25 -10 -34 0 -32 -20 3 -21 20 -1 22
-2 7 -6 -34 -8 -41 -23 -12 -23 15 0 27 -4 27 -10 0 -5 -9 -10 -20 -10 -15 0
-20 -7 -20 -25 0 -14 6 -25 13 -26 10 0 10 -2 0 -6 -20 -7 -15 -23 6 -23 11 0
23 -4 26 -10 4 -6 -5 -10 -19 -10 -29 0 -36 -19 -8 -21 16 -1 16 -2 0 -6 -23
-6 -23 -19 -1 -27 14 -6 14 -8 -3 -21 -18 -14 -17 -14 11 -16 21 -1 24 -3 10
-6 -31 -8 -42 -23 -17 -23 12 0 22 -4 22 -10 0 -5 -8 -10 -18 -10 -28 0 -22
-44 6 -48 29 -4 28 -19 0 -25 l-23 -4 23 -8 c12 -4 22 -12 22 -17 0 -5 -9 -7
-19 -3 -11 3 -22 1 -26 -5 -4 -6 5 -10 22 -11 l28 -1 -30 -8 c-29 -7 -28 -9
15 -23 10 -4 7 -6 -7 -6 -31 -1 -40 -21 -9 -21 14 0 26 -4 26 -10 0 -5 -9 -10
-21 -10 -11 0 -18 -4 -15 -9 4 -5 0 -11 -6 -14 -8 -3 -3 -9 12 -15 24 -10 24
-11 3 -11 -31 -1 -29 -21 2 -21 14 0 25 -4 25 -10 0 -5 -11 -10 -25 -10 -14 0
-25 -4 -25 -10 0 -5 12 -10 26 -10 16 0 24 -5 21 -12 -2 -7 -14 -12 -25 -10
-31 5 -27 -14 6 -26 l27 -10 -30 -1 c-31 -1 -25 -15 10 -24 15 -4 13 -5 -7 -6
-33 -1 -37 -18 -6 -23 12 -2 23 -8 25 -14 2 -7 -6 -10 -22 -7 -15 3 -25 1 -25
-6 0 -6 5 -12 10 -12 6 -1 14 -2 19 -3 24 -3 21 -16 -3 -16 -23 0 -27 -4 -24
-22 2 -16 12 -25 33 -29 l30 -7 -32 -1 c-42 -1 -44 -21 -2 -21 17 0 28 -4 24
-10 -3 -5 -17 -10 -31 -10 -13 0 -24 -4 -24 -10 0 -5 14 -10 30 -10 17 0 30
-4 30 -10 0 -5 -11 -10 -25 -10 -34 0 -32 -20 3 -21 l27 -2 -27 -4 c-16 -2
-28 -9 -28 -14 0 -5 12 -10 28 -10 16 -1 20 -3 10 -6 -25 -6 -22 -23 4 -23 28
0 12 -17 -22 -23 -24 -4 -24 -4 3 -6 15 0 27 -5 27 -11 0 -5 -12 -11 -27 -11
l-28 -1 30 -8 30 -8 -27 -1 c-23 -1 -27 -5 -24 -23 3 -13 5 -28 5 -34 1 -6 16
-16 34 -22 l32 -10 -36 -1 c-20 -1 -41 5 -46 11 -17 21 -43 1224 -28 1248 9
14 72 9 65 -5z m215 -5 c3 -5 1 -10 -4 -10 -6 0 -11 5 -11 10 0 6 2 10 4 10 3
0 8 -4 11 -10z m-105 -10 c0 -5 -4 -10 -10 -10 -5 0 -10 5 -10 10 0 6 5 10 10
10 6 0 10 -4 10 -10z m145 0 c3 -5 1 -10 -4 -10 -6 0 -11 5 -11 10 0 6 2 10 4
10 3 0 8 -4 11 -10z m-188 -18 c6 -4 11 -14 11 -22 -3 -39 4 -50 34 -58 17 -4
33 -13 35 -19 3 -9 -5 -9 -28 -3 -35 10 -45 8 -34 -9 3 -6 19 -11 36 -11 20 0
29 -5 29 -16 0 -11 -5 -14 -16 -10 -39 15 -64 18 -64 7 0 -6 14 -14 30 -18 17
-3 33 -10 37 -16 4 -6 -7 -7 -31 -3 -42 8 -51 -10 -8 -20 45 -10 49 -14 10
-11 -42 3 -38 12 -42 -98 -1 -39 0 -40 37 -43 20 -2 37 -7 37 -12 0 -4 -19 -6
-42 -3 -50 7 -44 -6 10 -24 l37 -13 -38 5 c-43 4 -41 -10 3 -20 41 -9 38 -23
-5 -19 -19 1 -35 -2 -35 -7 0 -5 9 -10 20 -10 36 -3 40 -4 38 -14 -2 -5 -16
-9 -31 -7 -20 1 -27 -2 -24 -10 2 -7 16 -12 30 -10 14 1 28 -2 32 -8 4 -6 -8
-10 -30 -10 -25 0 -35 -4 -32 -12 2 -8 16 -12 35 -10 18 2 32 -1 32 -7 0 -6
-16 -11 -35 -11 -47 0 -45 -20 3 -22 l37 -1 -37 -4 c-21 -2 -38 -8 -38 -13 0
-11 37 -23 49 -15 5 3 13 0 17 -6 5 -9 -3 -10 -30 -6 -27 4 -36 3 -33 -6 2 -7
16 -13 30 -15 15 -2 27 -8 27 -14 0 -6 -12 -8 -31 -4 -22 4 -29 2 -27 -7 3 -6
17 -13 31 -15 37 -4 34 -22 -3 -22 -16 0 -30 -4 -30 -10 0 -5 14 -10 30 -10
17 0 30 -5 30 -11 0 -7 -11 -8 -30 -4 -41 9 -39 -12 3 -24 l32 -9 -40 -1 c-42
-1 -39 -16 5 -24 21 -4 20 -4 -7 -6 -44 -1 -42 -21 2 -21 19 0 35 -5 35 -11 0
-8 -12 -10 -36 -6 -25 4 -34 2 -31 -6 2 -7 18 -13 35 -15 18 -2 32 -8 32 -14
0 -7 -13 -8 -35 -5 -49 8 -44 -8 8 -21 l42 -11 -43 2 c-52 3 -51 -17 1 -21 46
-4 39 -22 -8 -22 -28 0 -32 -3 -28 -20 4 -14 14 -20 34 -20 15 0 31 -5 35 -11
5 -8 -4 -10 -28 -7 -32 3 -35 1 -35 -19 0 -26 30 -39 72 -31 14 3 25 1 25 -5
0 -5 -20 -8 -50 -5 -27 3 -50 1 -50 -3 0 -5 5 -9 11 -9 5 0 8 -4 5 -9 -10 -16
23 -34 49 -27 16 4 25 2 25 -5 0 -7 -13 -10 -35 -7 -19 2 -35 0 -35 -4 0 -10
39 -19 72 -16 15 2 26 -1 25 -7 -2 -11 -15 -12 -69 -2 -21 3 -38 2 -38 -2 0
-11 37 -21 79 -21 26 0 32 -3 24 -11 -9 -9 -23 -9 -52 -1 -24 6 -43 6 -47 1
-8 -13 24 -24 74 -24 23 0 42 -3 42 -7 0 -5 -25 -8 -55 -8 -48 0 -55 -3 -53
-17 2 -11 -3 -18 -12 -18 -12 0 -18 23 -27 100 -15 122 -31 766 -21 851 4 34
4 101 0 150 -12 151 -4 191 35 166z m113 -8 c0 -8 -4 -12 -10 -9 -5 3 -10 10
-10 16 0 5 5 9 10 9 6 0 10 -7 10 -16z m147 -46 c-3 -8 -6 -5 -6 6 -1 11 2 17
5 13 3 -3 4 -12 1 -19z m-182 2 c3 -5 -1 -10 -10 -10 -9 0 -13 5 -10 10 3 6 8
10 10 10 2 0 7 -4 10 -10z m155 -5 c0 -8 -4 -15 -10 -15 -5 0 -10 7 -10 15 0
8 5 15 10 15 6 0 10 -7 10 -15z m-80 -25 c0 -5 -4 -10 -10 -10 -5 0 -10 5 -10
10 0 6 5 10 10 10 6 0 10 -4 10 -10z m40 -5 c0 -8 -4 -15 -9 -15 -5 0 -11 7
-15 15 -3 9 0 15 9 15 8 0 15 -7 15 -15z m-85 -15 c3 -5 1 -10 -4 -10 -6 0
-11 5 -11 10 0 6 2 10 4 10 3 0 8 -4 11 -10z m152 -52 c-3 -8 -6 -5 -6 6 -1
11 2 17 5 13 3 -3 4 -12 1 -19z m-127 -8 c11 -11 20 -30 20 -42 0 -13 2 -182
4 -376 5 -328 4 -353 -12 -350 -15 3 -17 24 -17 221 0 119 -3 217 -7 217 -5 0
-8 -10 -9 -22 0 -13 -4 -32 -9 -43 -6 -12 -9 62 -7 198 1 119 5 217 9 217 5 0
17 -9 28 -20z m100 -6 c0 -8 -4 -14 -10 -14 -5 0 -10 9 -10 21 0 11 5 17 10
14 6 -3 10 -13 10 -21z m-40 -40 c0 -8 -4 -14 -10 -14 -5 0 -10 9 -10 21 0 11
5 17 10 14 6 -3 10 -13 10 -21z m110 16 c0 -5 -4 -10 -10 -10 -5 0 -10 5 -10
10 0 6 5 10 10 10 6 0 10 -4 10 -10z m-490 -9 c0 -5 -22 -9 -50 -9 -27 -1 -50
3 -50 7 0 5 23 9 50 10 28 0 50 -3 50 -8z m977 -13 c-3 -8 -6 -5 -6 6 -1 11 2
17 5 13 3 -3 4 -12 1 -19z m-1167 -18 c12 -8 11 -10 -7 -10 -13 0 -23 5 -23
10 0 13 11 13 30 0z m80 0 c0 -13 -11 -13 -30 0 -12 8 -11 10 8 10 12 0 22 -4
22 -10z m105 -10 c4 -6 -10 -10 -34 -10 -51 0 -54 -19 -3 -22 36 -1 36 -1 5
-5 -41 -5 -43 -23 -4 -23 17 0 33 -4 36 -10 4 -6 -8 -10 -29 -10 -48 0 -46
-20 2 -22 l37 -1 -37 -4 c-48 -5 -50 -23 -3 -23 19 0 35 -4 35 -10 0 -5 -16
-10 -35 -10 -47 0 -45 -20 3 -22 l37 -1 -37 -4 c-44 -5 -51 -22 -10 -24 l27
-1 -27 -11 c-16 -6 -28 -15 -28 -20 0 -5 7 -6 16 -3 20 8 54 -2 54 -15 0 -5
-21 -9 -46 -9 -27 0 -43 -4 -39 -10 3 -5 22 -10 41 -10 19 0 34 -4 34 -10 0
-10 -14 -14 -39 -11 -7 2 -20 -1 -30 -5 -11 -6 -3 -10 28 -13 25 -3 46 -12 49
-19 2 -7 -2 -13 -9 -11 -35 4 -79 -2 -79 -12 0 -6 15 -10 33 -8 50 3 69 0 62
-11 -3 -5 -26 -10 -51 -10 -28 0 -43 -4 -39 -10 3 -5 26 -10 51 -10 24 0 44
-4 44 -10 0 -5 -20 -10 -45 -10 -25 0 -45 -4 -45 -10 0 -5 18 -10 39 -10 22 0
43 -4 46 -10 4 -6 -11 -10 -39 -10 -25 0 -48 -4 -51 -10 -4 -6 13 -10 44 -10
28 0 51 -4 51 -10 0 -5 -22 -10 -50 -10 -27 0 -50 -4 -50 -10 0 -5 23 -10 52
-10 28 0 48 -3 44 -7 -4 -4 -25 -6 -46 -4 -24 1 -40 -2 -40 -8 0 -6 21 -12 48
-13 38 -1 40 -2 12 -5 -88 -9 -106 -28 -27 -28 57 0 58 -19 2 -23 -58 -4 -49
-22 13 -23 26 -1 36 -3 22 -6 -53 -8 -71 -14 -66 -22 3 -4 18 -6 34 -3 17 2
33 -1 37 -8 5 -8 -5 -11 -39 -9 -25 2 -46 -1 -46 -6 0 -6 19 -11 42 -13 64 -5
72 -22 11 -22 -68 0 -78 -18 -13 -22 63 -4 66 -22 5 -26 -61 -4 -57 -22 5 -22
28 0 50 -4 50 -10 0 -5 -25 -10 -55 -10 -30 0 -55 -4 -55 -10 0 -5 25 -10 55
-10 30 0 55 -4 55 -10 0 -5 -22 -10 -50 -10 -27 0 -50 -4 -50 -10 0 -5 23 -10
50 -10 28 0 50 -4 50 -10 0 -5 -22 -10 -50 -10 -27 0 -50 -4 -50 -10 0 -5 25
-10 55 -10 30 0 55 -5 55 -10 0 -6 -15 -8 -39 -4 -22 3 -47 1 -57 -5 -16 -9
-14 -10 16 -11 19 0 45 -3 58 -6 40 -11 23 -24 -33 -24 -30 0 -55 -4 -55 -10
0 -5 24 -10 54 -10 53 0 66 -8 66 -43 0 -14 -180 -23 -180 -10 -2 66 -8 212
-9 223 -1 12 -10 15 -36 12 -43 -5 -47 -22 -5 -22 17 0 30 -4 30 -10 0 -5 -16
-10 -35 -10 -19 0 -35 -4 -35 -10 0 -5 16 -10 35 -10 19 0 35 -4 35 -10 0 -5
-16 -10 -35 -10 -19 0 -35 -4 -35 -10 0 -5 16 -10 35 -10 19 0 35 -5 35 -11 0
-6 -10 -10 -22 -9 -36 3 -48 1 -48 -10 0 -5 19 -10 42 -10 23 0 38 -3 34 -7
-4 -4 -22 -6 -40 -5 -30 3 -33 1 -33 -22 0 -21 6 -28 31 -35 30 -9 30 -9 -12
-10 l-44 -1 4 320 c1 176 -1 321 -5 323 -15 5 4 265 19 271 8 3 11 0 7 -10 -4
-10 3 -14 28 -15 22 -1 27 -3 14 -6 -34 -8 -41 -23 -12 -23 15 0 27 -4 27 -10
0 -5 -9 -10 -20 -10 -27 0 -25 -18 3 -23 19 -4 18 -4 -5 -6 -35 -1 -37 -21 -3
-21 14 0 25 -5 25 -11 0 -7 -10 -9 -25 -7 -14 3 -25 1 -25 -3 0 -5 11 -9 24
-9 14 0 28 -5 32 -11 5 -8 -1 -10 -20 -7 -34 7 -34 -5 2 -19 l27 -11 -27 -1
c-33 -1 -33 -34 0 -39 33 -5 26 -20 -10 -24 l-33 -4 35 -11 c34 -11 34 -11 7
-12 -31 -1 -28 -21 4 -21 11 0 19 -7 19 -16 0 -8 -4 -12 -10 -9 -5 3 -18 1
-27 -4 -16 -9 -14 -10 10 -11 17 0 27 -5 27 -15 0 -9 -9 -15 -25 -15 -14 0
-25 -4 -25 -10 0 -5 11 -10 25 -10 14 0 25 -4 25 -10 0 -5 -14 -10 -32 -10
-36 0 -28 -16 12 -23 22 -4 21 -4 -6 -6 -31 -1 -32 -2 -24 -36 6 -29 5 -35 -8
-35 -23 0 -2 -17 28 -23 24 -4 24 -4 -3 -6 -31 -1 -28 -21 4 -21 10 0 19 -5
19 -11 0 -7 -10 -9 -25 -7 -31 6 -33 -9 -2 -22 20 -8 20 -9 2 -9 -22 -1 -10
-16 20 -24 11 -3 5 -5 -14 -4 -34 2 -43 -14 -13 -24 44 -14 47 -9 50 104 2 76
6 107 15 107 8 0 7 4 -3 10 -13 9 -13 12 3 24 17 13 17 14 0 20 -17 7 -17 8 1
18 15 8 16 12 5 20 -11 8 -11 11 -1 15 10 4 10 8 1 20 -10 12 -10 16 2 24 11
7 11 9 0 9 -10 0 -11 3 -2 14 9 11 9 15 -1 18 -11 4 -11 8 0 20 10 13 10 17 0
20 -10 4 -10 8 1 21 12 15 11 17 -3 17 -11 0 -14 5 -10 12 13 20 13 108 1 108
-8 0 -7 4 2 9 10 6 11 13 2 29 -8 14 -8 23 -1 27 8 5 7 11 -1 21 -9 11 -9 14
1 14 7 0 10 7 6 15 -3 8 -1 15 4 15 15 0 12 47 -2 53 -8 3 -6 6 4 6 15 1 17
-19 17 -231 1 -127 3 -233 6 -236 3 -3 6 88 6 201 1 114 3 212 4 217 1 6 3 24
4 40 1 29 3 30 45 30 25 0 48 -4 51 -10z m232 4 c-3 -3 -12 -4 -19 -1 -8 3 -5
6 6 6 11 1 17 -2 13 -5z m225 -16 c-7 -7 -12 -8 -12 -2 0 6 3 14 7 17 3 4 9 5
12 2 2 -3 -1 -11 -7 -17z m-629 -5 c-7 -2 -19 -2 -25 0 -7 3 -2 5 12 5 14 0
19 -2 13 -5z m577 -3 c12 -8 11 -10 -7 -10 -12 0 -25 5 -28 10 -8 13 15 13 35
0z m-620 -10 c0 -5 12 -11 28 -11 l27 -1 -30 -7 c-18 -4 -25 -9 -18 -14 6 -4
18 -4 27 -1 9 3 16 1 16 -5 0 -6 -11 -11 -25 -11 -14 0 -25 -5 -25 -11 0 -6 9
-8 20 -4 11 4 20 2 20 -4 0 -6 -11 -11 -24 -11 -13 0 -31 -3 -40 -6 -12 -5
-16 0 -16 22 0 44 11 74 26 74 8 0 14 -4 14 -10z m696 -127 c-9 -164 -14 -191
-38 -204 -19 -10 -19 -8 -13 103 8 131 13 212 14 216 1 1 11 2 22 2 21 0 21
-2 15 -117z m-766 96 c0 -5 -9 -9 -20 -9 -31 0 -24 -20 8 -21 20 -1 22 -2 7
-6 -34 -8 -41 -23 -12 -23 15 0 27 -4 27 -10 0 -5 -11 -10 -25 -10 -14 0 -25
-4 -25 -10 0 -5 11 -10 25 -10 14 0 25 -4 25 -10 0 -5 -9 -10 -20 -10 -28 0
-25 -20 3 -21 l22 -2 -22 -4 c-13 -2 -23 -9 -23 -14 0 -5 10 -10 23 -10 16 -1
18 -2 5 -6 -11 -3 -18 -14 -18 -29 0 -13 -5 -24 -11 -24 -20 0 3 -20 24 -21
19 -1 18 -2 -8 -14 -26 -12 -27 -14 -8 -15 34 0 39 -20 5 -20 l-29 0 -6 88
c-3 48 -3 117 0 153 5 62 7 67 29 67 13 0 24 -4 24 -9z m700 -5 c0 -11 -5 -14
-16 -10 -9 3 -20 6 -25 6 -5 0 -9 5 -9 10 0 6 11 10 25 10 16 0 25 -6 25 -16z
m0 -46 c0 -13 -43 -6 -47 8 -2 7 6 10 22 7 14 -3 25 -10 25 -15z m0 -38 c0 -5
-11 -10 -25 -10 -14 0 -25 5 -25 10 0 6 11 10 25 10 14 0 25 -4 25 -10z m-7
-47 c-7 -2 -19 -2 -25 0 -7 3 -2 5 12 5 14 0 19 -2 13 -5z m-363 -39 c0 -8 -4
-12 -10 -9 -5 3 -10 10 -10 16 0 5 5 9 10 9 6 0 10 -7 10 -16z m0 -34 c0 -5
-5 -10 -11 -10 -5 0 -7 5 -4 10 3 6 8 10 11 10 2 0 4 -4 4 -10z m353 -17 c-7
-2 -19 -2 -25 0 -7 3 -2 5 12 5 14 0 19 -2 13 -5z m-353 -23 c0 -5 -2 -10 -4
-10 -3 0 -8 5 -11 10 -3 6 -1 10 4 10 6 0 11 -4 11 -10z m0 -36 c0 -8 -5 -12
-10 -9 -6 4 -8 11 -5 16 9 14 15 11 15 -7z m353 -11 c-7 -2 -19 -2 -25 0 -7 3
-2 5 12 5 14 0 19 -2 13 -5z m-690 -24 c7 -1 1 -4 -13 -9 -18 -5 -21 -9 -10
-13 55 -20 56 -21 28 -25 -16 -2 -28 -8 -28 -13 0 -5 12 -10 28 -10 l27 -1
-30 -8 c-16 -4 -22 -8 -13 -9 9 0 20 -6 24 -13 4 -6 3 -8 -2 -5 -6 3 -16 2
-24 -4 -11 -6 -7 -9 15 -10 17 0 23 -3 15 -6 -8 -2 -22 -7 -30 -9 -13 -5 -13
-6 0 -14 13 -9 13 -10 0 -11 -8 0 -4 -5 10 -9 l25 -8 -22 -7 c-32 -10 -29 -27
3 -19 19 5 25 4 20 -5 -4 -6 -16 -11 -26 -11 -10 0 -22 -4 -25 -10 -4 -6 7
-10 25 -10 17 0 29 -4 26 -9 -3 -5 -15 -7 -25 -4 -10 3 -22 0 -25 -6 -5 -7 3
-11 18 -11 14 0 26 -4 26 -10 0 -5 -9 -10 -20 -10 -11 0 -20 -4 -20 -9 0 -5 9
-7 20 -4 11 3 20 0 20 -6 0 -6 -9 -11 -20 -11 -28 0 -25 -20 3 -21 13 0 16 -2
7 -6 -44 -14 -45 -16 -20 -23 l25 -8 -27 -1 -28 -1 0 196 c0 175 2 195 16 190
9 -3 21 -6 27 -7z m337 1 c0 -5 -5 -10 -11 -10 -5 0 -7 5 -4 10 3 6 8 10 11
10 2 0 4 -4 4 -10z m358 -12 c-3 -7 -11 -13 -18 -13 -7 0 -15 6 -17 13 -3 7 4
12 17 12 13 0 20 -5 18 -12z m-882 -117 c-15 -14 -16 -13 -16 11 0 15 5 30 10
33 6 3 11 23 12 43 1 26 3 21 5 -17 3 -40 0 -58 -11 -70z m773 -58 c-2 -128
-3 -139 -10 -83 -8 59 -2 230 7 230 2 0 3 -66 3 -147z m131 124 c0 -9 -10 -12
-30 -9 -16 2 -30 8 -30 13 0 5 14 9 30 9 18 0 30 -5 30 -13z m-376 -53 c10
-73 8 -94 -9 -94 -18 0 -20 21 -3 38 7 7 8 12 3 12 -6 0 -10 20 -10 45 0 59
11 58 19 -1z m386 -4 c0 -16 -6 -20 -32 -19 l-33 1 28 10 c15 5 25 14 21 19
-3 5 0 9 5 9 6 0 11 -9 11 -20z m-17 -47 c-27 -5 -30 -20 -5 -26 10 -3 6 -5
-11 -6 -18 -1 -26 3 -21 10 3 6 0 15 -7 20 -9 6 0 8 26 7 23 0 30 -3 18 -5z
m5 -60 c-10 -2 -26 -2 -35 0 -10 3 -2 5 17 5 19 0 27 -2 18 -5z m-368 -13 c0
-5 -7 -10 -16 -10 -8 0 -12 5 -9 10 3 6 10 10 16 10 5 0 9 -4 9 -10z m387 -22
c-2 -7 -19 -13 -37 -13 -18 0 -35 6 -38 13 -2 8 9 12 38 12 29 0 40 -4 37 -12z
m153 -33 l0 -34 -70 0 c-38 0 -70 5 -70 10 0 5 6 9 13 9 6 0 35 11 62 24 28
14 53 25 58 25 4 1 7 -15 7 -34z m-540 -10 c0 -26 -3 -33 -15 -29 -18 7 -19
20 -2 28 10 5 10 7 0 12 -18 8 -16 24 2 24 10 0 15 -11 15 -35z m830 -82 c0
-70 -3 -83 -16 -83 -11 0 -14 5 -9 18 13 31 10 46 -8 50 -34 7 -67 -8 -73 -32
-4 -17 -11 -23 -21 -19 -11 4 -14 1 -11 -13 2 -14 16 -21 53 -26 28 -5 58 -6
69 -4 16 4 17 0 12 -26 -3 -17 -6 -52 -6 -78 0 -32 -4 -47 -13 -47 -8 0 -39
-10 -69 -23 -62 -25 -115 -22 -104 6 3 9 6 74 6 144 l0 129 67 3 c42 2 68 8
71 16 3 9 -15 12 -65 13 l-68 2 55 7 c30 4 67 5 83 2 16 -3 27 0 27 7 0 7 -29
11 -85 11 -76 0 -85 2 -85 18 0 16 7 18 54 14 29 -2 62 0 72 6 12 7 25 6 41
-1 21 -9 23 -16 23 -94z m-455 87 c14 0 16 -3 8 -11 -13 -13 -73 -2 -73 13 0
6 10 8 23 4 12 -3 31 -6 42 -6z m-785 -22 c0 -9 -15 -12 -52 -9 -47 4 -49 5
-23 12 48 11 75 10 75 -3z m799 -24 c2 -2 2 -6 0 -9 -8 -7 -79 7 -79 16 0 7
70 1 79 -7z m-393 -17 c14 5 20 -8 8 -20 -12 -12 -34 6 -33 27 1 16 2 17 6 4
2 -10 10 -15 19 -11z m511 17 c-3 -3 -12 -4 -19 -1 -8 3 -5 6 6 6 11 1 17 -2
13 -5z m536 -1 c-7 -2 -19 -2 -25 0 -7 3 -2 5 12 5 14 0 19 -2 13 -5z m-1448
-25 c6 -13 20 -24 31 -26 28 -4 36 -52 28 -156 -9 -101 6 -126 75 -126 26 0
51 -3 55 -7 8 -8 12 -9 66 -12 27 -1 31 -4 20 -11 -8 -5 -29 -10 -46 -10 -26
0 -33 -5 -38 -25 -5 -21 -12 -25 -44 -25 -21 0 -43 -5 -50 -12 -19 -19 -131
-39 -153 -28 -9 6 -24 7 -33 4 -13 -5 -16 20 -18 200 -3 191 -2 206 15 206 25
0 21 18 -5 23 -17 3 -14 5 10 6 17 0 32 6 32 11 0 20 45 10 55 -12z m758 -3
c28 -4 37 -11 37 -25 0 -14 -7 -20 -22 -21 -46 -2 -83 3 -93 13 -7 6 9 7 48 3
39 -5 57 -4 57 4 0 6 -12 11 -27 11 -37 0 -73 10 -73 20 0 5 8 7 18 5 9 -2 34
-7 55 -10z m177 -162 l0 -172 -27 5 c-16 3 -46 2 -68 -3 -37 -8 -125 2 -165
20 -8 3 -28 8 -45 9 -27 3 -26 5 20 19 41 12 51 19 53 39 2 19 14 30 52 47 28
12 50 28 51 35 1 7 2 42 2 78 l2 65 33 3 c21 2 32 8 29 15 -3 9 7 12 29 12
l34 0 0 -172z m137 161 c-3 -3 -12 -4 -19 -1 -8 3 -5 6 6 6 11 1 17 -2 13 -5z
m-449 -41 c-10 -2 -26 -2 -35 0 -10 3 -2 5 17 5 19 0 27 -2 18 -5z m575 -23
c-3 -11 -9 -20 -14 -20 -11 0 -11 3 -3 24 9 23 23 20 17 -4z m-793 0 c0 -5 -4
-10 -9 -10 -6 0 -13 5 -16 10 -3 6 1 10 9 10 9 0 16 -4 16 -10z m379 -6 c2 -2
-21 -4 -53 -4 -37 0 -55 4 -51 10 6 10 92 4 104 -6z m381 7 c0 -6 -4 -13 -10
-16 -5 -3 -10 1 -10 9 0 9 5 16 10 16 6 0 10 -4 10 -9z m-530 -31 c11 -7 4
-10 -25 -9 -31 0 -36 2 -20 9 26 11 28 11 45 0z m-223 -6 c-3 -3 -12 -4 -19
-1 -8 3 -5 6 6 6 11 1 17 -2 13 -5z m351 -1 c-16 -2 -40 -2 -55 0 -16 2 -3 4
27 4 30 0 43 -2 28 -4z m22 -23 c0 -5 -21 -9 -47 -9 -43 1 -45 2 -18 9 44 11
65 11 65 0z m-55 -30 c-3 -5 -10 -10 -16 -10 -5 0 -9 5 -9 10 0 6 7 10 16 10
8 0 12 -4 9 -10z m45 0 c0 -5 -7 -10 -15 -10 -8 0 -15 5 -15 10 0 6 7 10 15
10 8 0 15 -4 15 -10z m-365 -10 c3 -5 1 -10 -4 -10 -6 0 -11 5 -11 10 0 6 2
10 4 10 3 0 8 -4 11 -10z m82 4 c-3 -3 -12 -4 -19 -1 -8 3 -5 6 6 6 11 1 17
-2 13 -5z m6 -31 c-7 -2 -19 -2 -25 0 -7 3 -2 5 12 5 14 0 19 -2 13 -5z m1097
-33 c0 -12 -8 -12 -35 0 -18 8 -17 9 8 9 15 1 27 -3 27 -9z m-1433 -16 c-3 -3
-12 -4 -19 -1 -8 3 -5 6 6 6 11 1 17 -2 13 -5z m288 -34 c3 -5 1 -10 -4 -10
-6 0 -11 5 -11 10 0 6 2 10 4 10 3 0 8 -4 11 -10z m143 -52 c-2 -20 -13 -38
-30 -51 -38 -28 -55 -18 -50 31 3 32 9 42 25 45 54 11 58 8 55 -25z m-98 7 c0
-9 -9 -15 -24 -15 -13 0 -31 -3 -40 -6 -12 -4 -16 0 -16 15 0 18 6 21 40 21
29 0 40 -4 40 -15z m-184 -50 c-12 -19 -25 -25 -51 -25 -18 0 -37 5 -40 10 -3
6 3 10 14 10 24 0 81 31 82 45 0 6 3 4 6 -3 3 -7 -2 -24 -11 -37z m57 5 c22
-26 22 -40 -1 -40 -25 0 -41 18 -35 41 7 24 14 24 36 -1z m-496 -16 c-3 -3
-12 -4 -19 -1 -8 3 -5 6 6 6 11 1 17 -2 13 -5z m1719 -129 c18 -14 18 -14 -7
-15 -15 0 -42 3 -60 7 l-34 7 35 7 c19 3 38 7 41 8 3 0 14 -6 25 -14z m-139
-21 c-3 -3 -12 -4 -19 -1 -8 3 -5 6 6 6 11 1 17 -2 13 -5z m128 -14 c4 -6 -12
-10 -42 -9 -43 1 -45 2 -18 9 44 11 53 11 60 0z m-1178 -86 c39 -29 47 -30 71
-3 24 25 76 19 125 -17 17 -13 50 -33 72 -46 29 -16 35 -23 23 -26 -9 -2 -40
15 -69 38 -28 22 -54 39 -56 36 -6 -6 48 -55 60 -56 4 0 7 -4 7 -10 0 -11
-104 -13 -164 -3 -30 5 -40 12 -48 34 -5 16 -13 29 -16 29 -4 1 -23 14 -42 31
-40 35 -13 29 37 -7z m-63 -44 c3 0 6 9 6 20 0 26 12 25 37 -2 31 -35 40 -56
15 -34 -25 22 -42 15 -22 -9 24 -29 -34 -17 -61 13 -51 55 -56 69 -17 39 20
-15 39 -27 42 -27z m-119 -30 c3 -5 -1 -10 -9 -10 -9 0 -16 5 -16 10 0 6 4 10
9 10 6 0 13 -4 16 -10z"/>
<path d="M980 3780 c0 -5 5 -10 11 -12 7 -2 14 -21 16 -41 3 -28 0 -37 -12
-37 -21 0 -19 -17 3 -24 21 -6 142 1 150 9 3 3 -4 8 -16 12 -30 8 -32 72 -2
80 11 3 17 9 14 14 -6 11 -164 10 -164 -1z m70 -50 c0 -22 -4 -40 -10 -40 -5
0 -10 18 -10 40 0 22 5 40 10 40 6 0 10 -18 10 -40z m44 -8 c-4 -18 -10 -32
-15 -32 -11 0 -12 63 -2 74 13 13 23 -11 17 -42z"/>
<path d="M310 790 c0 -5 7 -10 15 -10 8 0 15 5 15 10 0 6 -7 10 -15 10 -8 0
-15 -4 -15 -10z"/>
<path d="M63 763 c15 -2 39 -2 55 0 15 2 2 4 -28 4 -30 0 -43 -2 -27 -4z"/>
<path d="M213 763 c26 -2 67 -2 90 0 23 2 2 3 -48 3 -50 0 -68 -1 -42 -3z"/>
<path d="M204 738 c-6 -10 36 -9 96 2 43 8 42 8 -23 7 -37 0 -70 -4 -73 -9z"/>
<path d="M184 525 c-10 -19 -23 -35 -28 -35 -14 0 8 -21 25 -24 8 -2 21 -6 29
-9 24 -9 80 -14 80 -7 0 3 -16 13 -35 20 -31 12 -35 17 -30 40 4 17 1 31 -8
38 -11 10 -18 5 -33 -23z m18 -27 c-7 -7 -12 -8 -12 -2 0 14 12 26 19 19 2 -3
-1 -11 -7 -17z"/>
<path d="M306 471 c-3 -5 1 -11 9 -14 9 -4 12 -1 8 9 -6 16 -10 17 -17 5z"/>
<path d="M107 71 c3 -12 10 -21 15 -21 13 0 6 32 -9 37 -7 3 -9 -3 -6 -16z"/>
<path d="M292 60 c15 -24 33 -27 24 -4 -3 9 -6 18 -6 20 0 2 -7 4 -15 4 -13 0
-13 -3 -3 -20z"/>
<path d="M85 50 c3 -5 8 -10 11 -10 2 0 4 5 4 10 0 6 -5 10 -11 10 -5 0 -7 -4
-4 -10z"/>
<path d="M1560 2350 c0 -5 7 -10 15 -10 8 0 15 5 15 10 0 6 -7 10 -15 10 -8 0
-15 -4 -15 -10z"/>
<path d="M2012 644 c-12 -8 -22 -24 -22 -35 0 -10 -5 -19 -11 -19 -25 0 4 -18
38 -23 56 -9 57 -9 61 2 2 6 -4 11 -13 11 -13 0 -16 6 -11 24 6 25 -1 56 -13
56 -4 0 -17 -7 -29 -16z m18 -34 c-6 -11 -15 -20 -19 -20 -5 0 -7 9 -4 20 3
11 12 20 20 20 11 0 11 -4 3 -20z"/>
<path d="M1908 623 c12 -2 32 -2 45 0 12 2 2 4 -23 4 -25 0 -35 -2 -22 -4z"/>
<path d="M2075 610 c-4 -6 6 -10 22 -10 22 0 25 2 13 10 -19 12 -27 12 -35 0z"/>
<path d="M1920 600 c0 -5 7 -10 15 -10 8 0 15 5 15 10 0 6 -7 10 -15 10 -8 0
-15 -4 -15 -10z"/>
<path d="M1835 510 c3 -5 10 -10 16 -10 5 0 9 5 9 10 0 6 -7 10 -16 10 -8 0
-12 -4 -9 -10z"/>
<path d="M1830 490 c0 -6 7 -10 15 -10 8 0 15 2 15 4 0 2 -7 6 -15 10 -8 3
-15 1 -15 -4z"/>
<path d="M1870 390 c0 -5 5 -10 11 -10 5 0 7 5 4 10 -3 6 -8 10 -11 10 -2 0
-4 -4 -4 -10z"/>
<path d="M1610 381 c0 -13 83 -32 90 -20 4 5 36 0 81 -15 41 -13 88 -27 104
-30 17 -4 37 -14 47 -22 11 -11 18 -12 23 -4 7 11 -51 40 -80 40 -9 0 -41 11
-73 24 -72 30 -116 40 -107 26 4 -6 -4 -10 -19 -10 -14 0 -28 5 -31 10 -8 12
-35 13 -35 1z"/>
<path d="M1840 375 c7 -9 15 -13 17 -11 7 7 -7 26 -19 26 -6 0 -6 -6 2 -15z"/>
<path d="M1890 363 c0 -5 17 -8 38 -9 20 -1 48 -4 62 -8 l25 -7 -25 15 c-26
16 -100 22 -100 9z"/>
<path d="M1665 330 c-3 -5 -16 -10 -28 -11 -19 0 -18 -2 7 -11 24 -9 31 -8 41
6 7 9 18 16 24 16 25 0 117 -44 144 -68 15 -14 27 -21 27 -16 0 47 -192 122
-215 84z"/>
<path d="M1670 229 c0 -5 6 -11 13 -13 110 -32 120 -37 177 -98 33 -34 62 -59
66 -55 6 6 -30 51 -86 107 -37 37 -170 83 -170 59z"/>
<path d="M1770 231 c0 -4 11 -13 25 -19 14 -6 25 -8 25 -3 0 4 -11 13 -25 19
-14 6 -25 8 -25 3z"/>
<path d="M1872 168 c19 -18 50 -53 71 -77 20 -25 40 -42 43 -38 4 4 -8 24 -27
45 -19 21 -46 53 -61 70 -14 18 -34 32 -43 32 -12 0 -7 -9 17 -32z"/>
<path d="M2055 150 c4 -6 11 -8 16 -5 14 9 11 15 -7 15 -8 0 -12 -5 -9 -10z"/>
<path d="M395 480 c3 -5 10 -10 16 -10 5 0 9 5 9 10 0 6 -7 10 -16 10 -8 0
-12 -4 -9 -10z"/>
<path d="M1421 338 c9 -7 14 -17 13 -23 -2 -5 8 -18 21 -28 24 -17 24 -17 22
10 -2 20 -10 30 -37 40 -27 10 -31 11 -19 1z"/>
<path d="M1022 309 c2 -8 35 -24 73 -36 63 -21 105 -46 105 -63 0 -4 -11 -5
-24 -3 -18 4 -25 0 -29 -18 -8 -30 -3 -35 41 -50 20 -6 41 -18 45 -25 4 -8 22
-21 40 -31 18 -9 37 -23 43 -31 7 -10 13 -11 18 -4 3 6 -5 19 -19 29 -15 10
-39 28 -54 40 -14 11 -42 28 -61 36 l-35 15 33 7 c40 9 40 25 2 68 -22 25 -45
38 -87 49 -32 8 -66 19 -77 23 -14 6 -18 5 -14 -6z"/>
<path d="M260 255 c0 -15 18 -40 24 -34 3 3 -1 14 -9 25 -8 10 -14 15 -15 9z"/>
<path d="M715 240 c-3 -5 15 -15 40 -23 34 -12 45 -13 45 -3 0 14 -78 37 -85
26z"/>
<path d="M1070 2190 c0 -5 5 -10 10 -10 6 0 10 5 10 10 0 6 -4 10 -10 10 -5 0
-10 -4 -10 -10z"/>
<path d="M1058 2153 c7 -3 16 -2 19 1 4 3 -2 6 -13 5 -11 0 -14 -3 -6 -6z"/>
<path d="M1050 2111 c0 -10 6 -21 14 -24 9 -4 14 2 14 19 0 14 -6 24 -14 24
-8 0 -14 -9 -14 -19z"/>
<path d="M1320 2200 c0 -5 7 -10 16 -10 8 0 12 5 9 10 -3 6 -10 10 -16 10 -5
0 -9 -4 -9 -10z"/>
<path d="M1845 1120 c3 -5 10 -10 16 -10 5 0 9 5 9 10 0 6 -7 10 -16 10 -8 0
-12 -4 -9 -10z"/>
<path d="M820 491 c0 -10 98 -26 107 -17 10 10 1 13 -54 20 -31 4 -53 3 -53
-3z"/>
<path d="M1750 754 c0 -14 3 -14 15 -4 8 7 15 14 15 16 0 2 -7 4 -15 4 -8 0
-15 -7 -15 -16z"/>
<path d="M1680 620 c0 -5 -9 -10 -20 -10 -11 0 -20 -4 -20 -10 0 -5 9 -10 20
-10 11 0 20 5 20 10 0 6 7 10 15 10 8 0 15 5 15 10 0 6 -7 10 -15 10 -8 0 -15
-4 -15 -10z"/>
<path d="M1740 600 c0 -5 7 -10 15 -10 8 0 15 5 15 10 0 6 -7 10 -15 10 -8 0
-15 -4 -15 -10z"/>
<path d="M1728 573 c7 -3 16 -2 19 1 4 3 -2 6 -13 5 -11 0 -14 -3 -6 -6z"/>
<path d="M460 430 c0 -5 9 -10 19 -10 11 0 23 5 26 10 4 6 -5 10 -19 10 -14 0
-26 -4 -26 -10z"/>
<path d="M525 400 c45 -12 175 -12 175 0 0 6 -40 10 -102 9 -69 -1 -93 -4 -73
-9z"/>
<path d="M480 383 c0 -5 14 -9 30 -10 17 -1 30 2 30 7 0 6 -13 10 -30 10 -16
0 -30 -3 -30 -7z"/>
<path d="M598 373 c7 -3 16 -2 19 1 4 3 -2 6 -13 5 -11 0 -14 -3 -6 -6z"/>
</g>
</svg>
