<?xml version="1.0" standalone="no"?>
<!DOCTYPE svg PUBLIC "-//W3C//DTD SVG 20010904//EN"
 "http://www.w3.org/TR/2001/REC-SVG-20010904/DTD/svg10.dtd">
<svg version="1.0" xmlns="http://www.w3.org/2000/svg"
 width="219.000000pt" height="378.000000pt" viewBox="0 0 219.000000 378.000000"
 preserveAspectRatio="xMidYMid meet">
<metadata>
Created by potrace 1.16, written by Peter Selinger 2001-2019
</metadata>
<g transform="translate(0.000000,378.000000) scale(0.100000,-0.100000)"
fill="#000000" stroke="none">
<path d="M35 3773 c-20 -4 -20 -12 -20 -1878 0 -1030 3 -1876 6 -1879 7 -8
2051 -16 2100 -9 l37 5 6 462 c15 1212 23 3282 12 3293 -5 5 -219 5 -1569 3
-296 0 -541 1 -545 3 -4 2 -16 2 -27 0z m2009 -30 l118 -5 -6 -1342 c-3 -737
-8 -1351 -12 -1363 -3 -13 -12 -23 -19 -23 -11 0 -10 7 2 31 12 24 13 33 3 42
-10 9 -14 9 -17 0 -6 -15 -33 -17 -33 -3 0 6 -7 10 -15 10 -8 0 -15 -8 -15
-18 0 -31 -32 -57 -72 -60 -37 -2 -38 -1 -40 36 -3 80 4 558 8 575 8 26 85 24
102 -3 13 -21 42 -17 42 6 0 20 28 17 33 -3 4 -15 5 -15 6 -2 0 9 -6 23 -15
30 -14 11 -19 10 -34 -11 l-18 -23 -11 21 c-10 19 -18 21 -56 17 -44 -6 -45
-5 -45 23 0 26 -3 29 -25 24 -15 -2 -25 0 -25 7 0 7 4 10 9 7 5 -4 16 -3 25 0
14 6 16 43 11 365 -3 236 -1 360 6 364 5 4 16 2 24 -5 17 -14 32 7 16 23 -18
18 -13 45 9 52 23 7 27 35 5 35 -18 0 -18 5 -4 31 7 15 7 24 -2 35 -17 20 -42
-2 -36 -33 3 -14 -1 -23 -8 -23 -10 0 -13 22 -12 82 2 70 5 83 20 86 10 2 17
-3 17 -13 0 -10 7 -15 18 -13 13 3 17 13 17 43 0 22 4 46 8 53 5 6 4 12 -2 12
-5 0 -11 -4 -13 -9 -1 -4 -12 -5 -23 0 -19 7 -18 8 3 8 15 1 26 8 29 20 3 13
11 17 24 14 22 -6 24 -15 6 -44 -10 -17 -9 -23 1 -26 9 -4 11 -18 6 -54 -7
-51 2 -61 35 -40 12 8 12 12 2 25 -7 8 -9 21 -5 28 5 7 9 33 10 58 1 36 -3 50
-23 71 -22 24 -23 29 -11 49 11 19 10 23 -7 38 -11 9 -19 24 -17 34 2 9 -4 18
-15 21 -17 4 -16 4 2 11 41 15 50 24 53 49 2 14 -2 35 -8 47 -9 17 -19 21 -58
19 l-47 -2 3 -38 c2 -21 -1 -40 -8 -44 -12 -8 -9 139 5 203 6 27 3 37 -13 53
-12 10 -25 19 -31 19 -5 0 -12 7 -15 16 -4 10 -2 14 6 11 21 -7 48 12 48 33 0
19 -1 19 -39 -1 -23 -12 -53 -19 -72 -17 -37 3 -51 -17 -19 -27 16 -5 19 -10
11 -18 -6 -6 -11 -14 -11 -18 0 -10 63 -18 75 -9 15 11 55 -7 55 -24 0 -9 -12
-19 -26 -22 -17 -4 -22 -9 -14 -14 7 -4 10 -12 6 -18 -3 -6 0 -13 6 -15 8 -4
7 -6 -4 -6 -9 -1 -19 5 -21 12 -6 13 -10 -16 -8 -50 1 -11 -3 -24 -8 -28 -17
-10 -13 -39 9 -55 22 -16 11 -30 -24 -30 -18 0 -18 6 -12 93 5 63 11 96 21
103 19 14 19 25 1 18 -8 -3 -16 2 -19 13 -4 14 -5 12 -7 -7 -1 -14 -3 -32 -4
-40 -2 -8 -3 -27 -4 -42 -1 -18 -11 -31 -29 -40 -17 -8 -31 -26 -37 -47 -9
-30 -7 -36 18 -57 15 -13 25 -28 21 -33 -3 -5 -1 -12 4 -15 5 -3 7 -14 4 -24
-3 -14 -12 -17 -33 -14 -25 3 -29 9 -35 48 -3 24 -9 44 -13 44 -4 0 -17 -16
-30 -35 -15 -24 -20 -43 -16 -60 5 -21 3 -25 -14 -25 -12 0 -26 -8 -32 -17 -8
-13 -9 19 -7 121 2 95 7 141 15 144 17 5 15 22 -3 22 -12 0 -13 4 -3 25 13 28
4 45 -14 27 -18 -18 -25 -15 -32 13 -4 14 -11 25 -16 25 -15 0 -31 -50 -24
-74 5 -17 4 -19 -7 -8 -18 17 -46 15 -53 -4 -4 -10 4 -19 27 -29 17 -8 26 -14
20 -15 -9 0 -13 -22 -13 -73 0 -80 -7 -99 -24 -66 -14 28 -31 21 -30 -11 0
-14 -4 -28 -9 -31 -6 -4 -7 -15 -3 -24 4 -12 14 -16 31 -13 14 3 25 2 25 -2 0
-12 -26 -30 -33 -23 -4 3 -7 1 -7 -6 0 -9 9 -12 25 -8 16 3 24 0 22 -7 -5 -16
-49 -7 -63 12 -10 13 -15 14 -25 5 -9 -9 -16 -7 -29 9 -9 12 -22 18 -28 14
-17 -10 -15 -46 4 -53 11 -4 14 -13 10 -29 -5 -18 -2 -24 11 -25 11 0 13 -3 5
-6 -7 -3 -19 1 -27 7 -8 7 -21 10 -30 7 -8 -4 -17 -2 -20 4 -4 5 -11 7 -16 3
-5 -3 -7 -10 -3 -15 8 -14 -124 -5 -138 9 -19 19 -73 14 -101 -8 l-26 -21 -21
21 c-11 11 -27 20 -36 20 -11 0 -15 6 -11 20 3 11 1 23 -4 26 -5 3 -9 -5 -9
-17 0 -22 0 -22 -14 -3 -14 19 -15 19 -38 -3 -28 -26 -54 -17 -43 16 4 12 2
21 -4 21 -6 0 -11 -4 -11 -9 0 -12 -39 -21 -46 -10 -3 5 -20 9 -39 9 -33 0
-54 15 -40 28 3 3 10 0 15 -8 7 -12 12 -12 22 -2 9 9 9 12 -5 12 -9 0 -17 7
-17 15 0 9 -9 15 -24 15 -23 0 -24 2 -14 31 6 16 8 32 5 35 -11 11 -46 -16
-50 -38 -5 -27 -11 59 -8 117 1 22 -3 53 -9 69 -7 20 -8 32 0 40 19 19 11 39
-14 34 -22 -5 -24 -2 -19 22 6 33 -9 46 -28 24 -10 -12 -10 -20 -1 -35 17 -26
15 -31 -7 -24 -20 6 -46 -18 -36 -35 3 -5 16 -10 27 -10 21 0 20 -1 -6 -29
-22 -23 -26 -34 -21 -62 3 -19 1 -41 -5 -49 -9 -13 -14 -11 -33 12 -29 35 -52
24 -45 -22 l5 -32 -18 23 c-28 37 -28 79 -1 106 32 32 27 74 -11 88 -24 8 -31
6 -42 -8 -19 -27 -27 -5 -19 52 5 37 3 57 -8 73 -10 15 -13 40 -11 73 4 40 2
48 -8 38 -20 -20 -31 -15 -19 6 7 14 7 28 0 47 -10 25 -12 26 -27 11 -14 -13
-14 -21 -5 -42 11 -23 9 -26 -24 -40 -41 -17 -41 -40 1 -40 36 -1 43 -20 15
-43 -19 -15 -21 -27 -21 -117 0 -85 -2 -97 -13 -82 -26 34 -86 18 -86 -23 0
-36 32 -64 65 -58 20 4 25 2 21 -9 -3 -8 -6 -18 -6 -23 0 -4 -20 -13 -45 -19
-37 -9 -45 -15 -45 -35 0 -12 9 -31 19 -40 32 -30 37 -74 10 -102 -19 -20 -21
-28 -11 -46 12 -25 11 -56 -2 -76 -4 -7 -5 -16 -2 -19 3 -4 7 -4 9 -2 1 2 13
19 26 38 18 26 21 38 13 55 -7 16 -6 27 4 41 19 25 18 85 -2 113 -19 27 -13
38 23 44 l28 4 -2 -456 c0 -250 -2 -647 -2 -883 -1 -352 -4 -427 -15 -427 -8
0 -17 10 -20 23 l-7 22 -10 -23 c-5 -13 -17 -34 -28 -47 -15 -20 -17 -33 -11
-72 6 -36 3 -61 -11 -103 -23 -65 -58 -101 -110 -110 -35 -7 -39 -5 -39 14 -6
259 9 2806 16 2818 5 8 1809 9 1988 1z m-1739 -342 c-3 -6 -11 -8 -17 -5 -6 4
-5 9 3 15 16 10 23 4 14 -10z m1558 -58 c-7 -2 -19 -2 -25 0 -7 3 -2 5 12 5
14 0 19 -2 13 -5z m-1487 -30 c0 -10 -5 -21 -11 -25 -6 -5 -5 -8 3 -8 6 0 12
-5 12 -11 0 -5 -5 -7 -12 -3 -7 5 -8 3 -3 -7 16 -24 17 -86 2 -100 -7 -8 -12
-20 -9 -27 5 -17 -23 -15 -39 4 -10 13 -10 17 0 24 10 6 10 9 1 15 -8 5 -8 10
-2 14 5 3 12 23 15 44 4 28 1 37 -10 37 -10 0 -13 6 -9 16 3 9 6 21 6 28 0 6
13 13 29 14 22 2 28 -2 27 -15z m1501 -9 c-3 -3 -12 -4 -19 -1 -8 3 -5 6 6 6
11 1 17 -2 13 -5z m-280 -76 c-3 -7 -5 -2 -5 12 0 14 2 19 5 13 2 -7 2 -19 0
-25z m-997 -28 c0 -5 -4 -10 -10 -10 -5 0 -10 5 -10 10 0 6 5 10 10 10 6 0 10
-4 10 -10z m-130 -10 c13 -8 13 -12 0 -36 -8 -15 -22 -30 -30 -32 -11 -4 -10
0 4 16 11 13 16 28 12 38 -6 16 -8 16 -26 -1 -18 -16 -18 -16 -13 4 6 22 28
27 53 11z m1085 0 c3 -5 -1 -10 -9 -10 -9 0 -16 5 -16 10 0 6 4 10 9 10 6 0
13 -4 16 -10z m-909 -45 c-2 -7 1 -18 7 -24 8 -8 8 -11 0 -11 -22 0 -26 -41
-6 -55 17 -13 16 -14 -12 -15 -26 -1 -27 -3 -10 -10 17 -7 17 -9 3 -9 -25 -1
-22 -21 3 -21 11 0 17 -4 14 -10 -3 -5 -1 -19 5 -30 8 -15 8 -20 -1 -20 -9 0
-9 -3 0 -14 9 -11 9 -15 0 -18 -9 -3 -9 -9 0 -25 17 -33 14 -103 -4 -103 -18
0 -29 -26 -40 -95 l-9 -50 -6 44 c-4 24 -7 135 -8 247 -1 170 1 204 13 204 8
0 19 9 25 20 12 22 35 17 26 -5z m1291 19 c-3 -3 -12 -4 -19 -1 -8 3 -5 6 6 6
11 1 17 -2 13 -5z m-1677 -24 c0 -5 -4 -10 -10 -10 -5 0 -10 5 -10 10 0 6 5
10 10 10 6 0 10 -4 10 -10z m1376 -2 c4 -5 3 -8 -2 -8 -5 0 -10 -9 -11 -20 -1
-11 4 -20 10 -20 8 0 7 -4 -2 -9 -12 -8 -12 -12 -2 -25 11 -14 11 -16 -5 -16
-17 0 -17 -1 2 -15 17 -13 17 -14 2 -15 -10 0 -18 -4 -18 -10 0 -5 8 -10 18
-10 13 0 14 -2 3 -9 -9 -6 -10 -11 -2 -15 6 -4 11 -25 11 -46 0 -31 -3 -38
-15 -34 -8 4 -15 1 -15 -5 0 -6 6 -10 13 -8 15 3 21 -50 12 -120 -6 -49 -9
-53 -33 -54 l-27 -2 28 -4 c27 -4 28 -5 10 -18 -16 -13 -16 -14 -1 -15 9 0 20
-5 23 -11 9 -14 -3 -59 -16 -59 -6 0 -7 5 -4 10 3 6 2 10 -4 10 -5 0 -9 -9 -8
-20 1 -11 7 -20 14 -20 16 0 28 -45 17 -67 -8 -19 -10 -30 -13 -75 0 -18 -7
-28 -16 -28 -21 0 -19 -16 5 -40 16 -16 20 -32 18 -82 l-1 -63 -6 60 c-8 80
-20 57 -17 -30 2 -55 0 -73 -13 -83 -14 -12 -12 -13 12 -9 l27 4 -2 -96 c-1
-94 -2 -95 -8 -31 -4 43 -7 53 -8 28 -1 -25 -7 -38 -16 -38 -9 0 -12 -7 -9
-20 3 -11 9 -20 14 -20 5 0 9 -16 9 -35 0 -19 -5 -35 -11 -35 -8 0 -8 -4 0
-14 9 -11 9 -16 -1 -23 -18 -11 -19 -53 -2 -53 8 0 14 3 15 8 2 22 10 56 14
61 9 8 5 -39 -6 -86 -10 -37 -9 -47 2 -55 10 -7 8 -8 -8 -3 -17 5 -23 2 -23
-9 0 -9 8 -16 18 -16 16 -1 16 -1 0 -11 -22 -12 -24 -45 -4 -52 10 -4 16 3 19
21 3 18 5 12 6 -17 1 -35 -2 -41 -12 -32 -15 12 -27 5 -27 -16 0 -8 5 -11 11
-7 8 4 9 0 4 -15 -5 -16 -2 -21 12 -22 17 -1 17 -2 0 -6 -9 -2 -15 -9 -11 -14
3 -6 0 -16 -6 -24 -10 -12 -9 -15 9 -15 11 0 21 -4 21 -10 0 -5 -9 -10 -19
-10 -20 0 -36 -26 -22 -35 5 -3 12 2 15 11 3 8 11 12 16 9 7 -4 2 -15 -12 -27
-16 -15 -18 -19 -6 -15 23 8 33 -9 10 -18 -16 -7 -15 -8 3 -15 20 -9 20 -9 0
-15 -26 -8 -31 -45 -7 -45 15 0 15 -2 2 -11 -11 -8 -12 -12 -2 -16 17 -7 15
-23 -3 -23 -21 0 -19 -20 3 -21 16 -1 16 -2 0 -6 -10 -2 -18 -9 -18 -14 0 -5
8 -10 18 -10 16 -1 16 -2 0 -6 -23 -6 -23 -23 -2 -23 14 0 14 -3 3 -16 -10
-13 -10 -17 2 -25 8 -5 9 -9 3 -9 -18 0 -26 -32 -12 -42 10 -6 8 -8 -4 -8 -10
0 -18 -4 -18 -10 0 -5 9 -10 20 -10 11 0 20 -4 20 -10 0 -5 -9 -10 -20 -10
-27 0 -25 -16 3 -24 19 -5 20 -8 7 -17 -11 -8 -12 -12 -2 -16 17 -7 15 -23 -3
-23 -8 0 -15 -4 -15 -10 0 -5 7 -10 15 -10 18 0 20 -16 3 -24 -10 -5 -10 -7 1
-12 10 -5 11 -8 1 -14 -19 -12 -23 -63 -4 -56 8 3 14 1 14 -4 0 -6 -7 -10 -15
-10 -21 0 -19 -20 3 -21 16 -1 16 -2 0 -6 -22 -5 -24 -23 -3 -23 24 0 17 -20
-7 -21 l-23 -2 23 -4 c12 -2 22 -8 22 -13 0 -5 -10 -10 -22 -13 -23 -4 -23 -4
2 -15 22 -9 23 -11 5 -12 l-20 -1 20 -9 c17 -7 17 -9 3 -9 -22 -1 -24 -21 -3
-21 8 0 15 -4 15 -10 0 -5 -4 -10 -10 -10 -11 0 -9 -28 3 -48 5 -7 3 -12 -7
-12 -22 0 -20 -20 2 -21 11 -1 8 -4 -8 -9 l-25 -7 25 -11 c25 -11 25 -11 2
-11 -28 -1 -19 -21 9 -21 12 0 19 -7 19 -20 0 -14 -7 -20 -22 -20 -21 0 -21 0
-2 -16 18 -15 18 -15 -8 -11 l-27 4 1 -79 c0 -44 -3 -82 -6 -85 -7 -7 -7 73
-5 602 1 204 2 386 2 405 0 611 0 865 -3 910 -11 177 0 905 13 927 7 11 52 11
63 1z m285 -24 c-9 -28 -9 -29 -10 -3 -1 14 2 29 6 32 11 12 13 2 4 -29z
m-1699 -1 c-5 -25 -3 -26 27 -20 17 4 31 3 31 -2 0 -5 -12 -11 -26 -14 -19 -3
-29 1 -40 19 -9 13 -13 28 -9 34 12 19 22 10 17 -17z m168 17 c0 -5 -5 -10
-11 -10 -5 0 -7 5 -4 10 3 6 8 10 11 10 2 0 4 -4 4 -10z m1440 -24 c0 -8 -5
-18 -10 -21 -6 -4 -8 -16 -4 -27 4 -14 2 -18 -5 -14 -12 8 -14 36 -5 60 8 20
24 21 24 2z m230 -7 c19 -35 8 -62 -29 -71 -18 -5 -36 -7 -38 -4 -10 9 19 66
33 66 21 0 17 -16 -8 -34 l-23 -16 25 9 c30 10 39 46 13 55 -12 5 -23 0 -35
-16 -17 -22 -18 -22 -18 -2 0 27 8 34 41 34 18 0 32 -7 39 -21z m-1700 7 c0
-2 -11 -6 -25 -8 -13 -3 -22 -1 -19 3 5 9 44 13 44 5z m48 -47 c-3 -8 -7 -3
-11 10 -4 17 -3 21 5 13 5 -5 8 -16 6 -23z m32 21 c0 -5 -2 -10 -4 -10 -3 0
-8 5 -11 10 -3 6 -1 10 4 10 6 0 11 -4 11 -10z m-93 -26 c-3 -3 -12 -4 -19 -1
-8 3 -5 6 6 6 11 1 17 -2 13 -5z m163 -21 c0 -20 -3 -24 -11 -16 -7 7 -9 19
-6 27 10 24 17 19 17 -11z m-169 -15 c1 -7 1 -16 0 -20 0 -5 8 -8 19 -8 11 0
20 -4 20 -10 0 -5 -8 -7 -17 -4 -16 5 -16 4 -3 -8 21 -18 25 -79 5 -72 -8 4
-15 1 -15 -5 0 -6 4 -11 10 -11 5 0 14 -9 20 -20 9 -16 7 -24 -10 -42 -24 -26
-26 -38 -5 -38 18 0 20 -16 3 -24 -10 -5 -10 -7 0 -12 21 -10 13 -24 -15 -25
l-28 -2 28 -4 c33 -5 36 -22 5 -24 l-23 -2 23 -4 c18 -4 22 -11 22 -38 0 -21
-6 -38 -16 -43 -11 -6 -13 -12 -6 -16 7 -4 7 -17 1 -39 -14 -48 -11 -75 9 -80
13 -4 11 -5 -5 -6 -13 0 -23 -5 -23 -11 0 -5 10 -10 23 -10 21 -1 22 -1 3 -15
-11 -9 -14 -15 -7 -15 9 0 8 -5 -3 -16 -21 -21 -22 -88 -1 -80 11 4 15 -1 15
-19 0 -14 -7 -25 -17 -28 -14 -4 -12 -5 5 -6 12 0 22 -6 22 -12 0 -6 -9 -8
-20 -4 -14 5 -20 2 -20 -10 0 -10 5 -13 12 -9 8 5 9 0 5 -15 -4 -17 -2 -21 9
-17 8 3 14 1 14 -4 0 -6 -8 -11 -17 -11 -17 -1 -17 -2 0 -6 20 -5 23 -23 5
-23 -9 0 -8 -4 2 -11 12 -9 13 -12 1 -16 -11 -5 -11 -7 0 -14 12 -8 12 -10 0
-18 -9 -6 -10 -11 -2 -15 6 -4 11 -12 11 -17 0 -6 -4 -7 -10 -4 -5 3 -10 2
-10 -4 0 -5 6 -12 13 -14 9 -4 9 -8 -2 -15 -9 -6 -10 -12 -3 -16 6 -4 8 -14 5
-22 -5 -13 -7 -13 -14 -2 -7 11 -11 10 -18 -2 -12 -18 -5 -30 20 -30 25 0 24
-22 -2 -38 -16 -10 -18 -17 -10 -25 8 -8 7 -14 0 -24 -9 -10 -6 -13 12 -14 21
0 21 -1 6 -8 -17 -6 -17 -8 -3 -20 22 -18 20 -30 -6 -41 l-23 -9 23 0 c22 -1
33 -21 11 -21 -6 0 -9 -6 -6 -14 3 -7 0 -19 -6 -25 -8 -8 -7 -11 6 -11 9 0 17
-4 17 -10 0 -5 -6 -10 -12 -10 -10 0 -9 -3 1 -9 11 -7 10 -11 -5 -20 -17 -9
-17 -10 -1 -11 9 0 17 -7 17 -15 0 -8 -8 -15 -17 -15 -16 -1 -16 -2 1 -15 20
-15 20 -15 0 -16 -19 0 -19 0 0 -8 19 -7 18 -8 -5 -16 l-24 -8 23 -4 c26 -5
30 -33 5 -34 -15 0 -15 -2 2 -9 19 -7 19 -8 2 -15 -15 -6 -16 -10 -5 -16 10
-7 10 -9 1 -9 -20 0 -15 -20 5 -21 12 0 10 -3 -8 -11 -25 -11 -25 -11 -2 -15
23 -5 32 -33 10 -33 -19 0 -18 -48 1 -56 13 -5 11 -8 -9 -14 -24 -8 -24 -8 -2
-9 12 -1 22 -7 22 -16 0 -9 -6 -12 -15 -9 -8 4 -15 1 -15 -5 0 -6 7 -11 15
-11 8 0 15 -4 15 -10 0 -5 -7 -10 -16 -10 -14 0 -14 -3 -4 -15 9 -10 9 -15 1
-15 -18 0 -12 -20 7 -21 15 0 14 -1 -3 -8 -19 -8 -19 -8 0 -19 18 -10 18 -11
3 -12 -23 0 -23 -9 -1 -26 17 -13 17 -13 1 -14 -10 0 -18 -4 -18 -10 0 -5 8
-11 18 -11 15 -1 14 -2 -2 -6 -15 -4 -16 -7 -5 -14 10 -6 10 -9 2 -9 -20 0
-15 -20 5 -21 12 0 10 -3 -8 -11 l-25 -11 23 -5 c20 -3 21 -6 10 -19 -11 -14
-11 -17 1 -21 8 -3 10 -7 3 -11 -6 -4 -14 -21 -17 -39 -4 -24 -1 -34 10 -38
12 -5 13 -9 4 -20 -9 -11 -8 -14 2 -14 12 0 12 -2 0 -9 -8 -5 -12 -18 -8 -29
2 -12 0 -23 -7 -26 -6 -2 -1 -8 12 -11 12 -4 22 -11 22 -16 0 -5 -10 -9 -22
-9 -19 0 -20 -2 -8 -10 12 -8 13 -11 1 -19 -9 -6 -10 -11 -2 -15 17 -11 13
-23 -10 -29 -16 -4 -19 -9 -11 -24 5 -10 7 -23 5 -29 -2 -7 8 -15 22 -18 23
-6 25 -9 14 -22 -10 -13 -10 -17 2 -25 11 -7 11 -9 -3 -9 -10 0 -18 -4 -18
-10 0 -5 7 -10 16 -10 8 0 13 -4 9 -10 -3 -5 -12 -7 -20 -3 -8 3 -15 1 -15 -5
0 -5 9 -12 20 -15 15 -4 20 -14 20 -41 0 -25 -4 -36 -15 -36 -21 0 -19 -20 3
-21 16 -1 16 -2 0 -6 -10 -2 -18 -8 -18 -13 0 -5 7 -7 15 -4 8 4 15 3 15 0 0
-4 -11 -11 -25 -16 -30 -11 -33 -30 -4 -30 11 0 17 5 14 10 -3 6 -1 10 4 10
12 0 14 -11 5 -34 -3 -8 -12 -12 -20 -9 -8 3 -14 -1 -14 -11 0 -9 -6 -16 -14
-16 -11 0 -15 45 -20 242 -15 618 -17 919 -10 1685 6 678 10 823 21 823 7 0
14 -6 14 -12z m1598 8 c-2 -2 -20 -6 -39 -10 -25 -4 -31 -3 -20 4 14 9 69 15
59 6z m-1669 -25 c0 -5 -13 -11 -30 -14 -35 -8 -37 -19 -10 -54 11 -14 20 -33
20 -42 -1 -9 -7 -2 -14 15 -8 18 -19 35 -25 38 -21 13 -12 44 17 54 35 13 42
14 42 3z m1482 -16 c0 -8 1 -21 2 -27 1 -7 6 -16 11 -20 6 -4 0 -8 -12 -8 -27
0 -37 14 -29 46 7 26 25 33 28 9z m-1217 -5 c3 -5 -1 -10 -9 -10 -8 0 -18 5
-21 10 -3 6 1 10 9 10 8 0 18 -4 21 -10z m1355 6 c0 -3 -4 -8 -10 -11 -5 -3
-10 -1 -10 4 0 6 5 11 10 11 6 0 10 -2 10 -4z m106 -33 c50 -8 68 -21 53 -39
-6 -8 -9 -23 -6 -35 3 -13 1 -19 -6 -16 -7 2 -11 18 -9 36 2 25 -2 31 -18 31
-24 0 -82 34 -73 44 4 3 10 2 13 -4 4 -6 24 -13 46 -17z m-1526 -18 c0 -5 -5
-3 -10 5 -5 8 -10 20 -10 25 0 6 5 3 10 -5 5 -8 10 -19 10 -25z m1450 15 c11
-7 6 -10 -20 -10 -26 0 -31 3 -20 10 8 5 17 10 20 10 3 0 12 -5 20 -10z
m-1498 -43 c9 -24 14 -56 11 -71 -5 -22 -1 -28 16 -33 11 -3 18 -9 15 -14 -3
-5 0 -9 5 -9 6 0 11 -7 11 -16 0 -12 6 -15 20 -11 17 4 20 2 15 -12 -5 -15 -1
-17 21 -13 22 4 26 2 21 -11 -3 -9 -2 -19 2 -21 18 -11 21 -83 27 -591 5 -372
4 -525 -4 -525 -6 0 -15 19 -20 43 l-8 42 -7 -36 c-4 -20 -23 -54 -42 -76 -28
-33 -35 -50 -36 -85 -1 -34 -2 -38 -8 -18 l-7 25 -11 -30 c-6 -16 -18 -39 -27
-50 -14 -18 -16 20 -18 440 -4 703 -4 1115 2 1115 3 0 13 -20 22 -43z m82 28
c-4 -9 0 -15 10 -15 9 0 16 7 16 16 0 14 3 14 15 4 17 -14 21 -45 4 -35 -6 4
-16 1 -22 -7 -7 -7 -11 -11 -10 -9 2 2 -5 9 -14 16 -14 11 -13 45 1 45 3 0 3
-7 0 -15z m1316 -16 c0 -11 -27 -12 -34 0 -3 4 -3 11 0 14 8 8 34 -3 34 -14z
m-1376 -5 c3 -8 2 -12 -4 -9 -6 3 -10 10 -10 16 0 14 7 11 14 -7z m1481 6 c15
-6 7 -9 -30 -9 -36 -1 -46 2 -35 9 18 12 38 12 65 0z m-1224 -23 c-10 -9 -11
-8 -5 6 3 10 9 15 12 12 3 -3 0 -11 -7 -18z m1314 13 c-3 -5 -10 -10 -16 -10
-5 0 -9 5 -9 10 0 6 7 10 16 10 8 0 12 -4 9 -10z m-285 -24 c0 -17 -14 -29
-23 -20 -8 8 3 34 14 34 5 0 9 -6 9 -14z m42 -11 c-6 -34 -22 -42 -22 -11 0
13 6 27 13 29 6 3 13 6 13 6 1 1 -1 -10 -4 -24z m208 21 c0 -3 -4 -8 -10 -11
-5 -3 -10 -1 -10 4 0 6 5 11 10 11 6 0 10 -2 10 -4z m-1416 -24 c-6 -4 -14
-14 -17 -22 -4 -10 -6 -8 -6 7 -1 12 5 23 12 26 16 6 24 -2 11 -11z m1326 -7
c0 -15 6 -25 14 -25 8 0 18 -5 22 -11 4 -8 -1 -9 -16 -4 -15 5 -20 4 -16 -4 4
-6 2 -11 -3 -11 -17 0 -13 -40 4 -46 14 -6 14 -8 1 -18 -11 -8 -13 -21 -7 -52
4 -22 6 -49 4 -60 -9 -49 -10 -65 -2 -70 5 -3 6 -17 3 -31 -5 -18 -3 -24 5
-19 6 4 11 34 11 72 0 35 4 64 8 64 14 0 2 -143 -14 -167 -13 -20 -13 -23 1
-23 16 0 21 -15 7 -24 -4 -3 -6 -22 -4 -43 4 -31 6 -34 13 -18 7 17 8 16 8 -7
1 -19 -4 -28 -15 -28 -8 0 -12 -4 -9 -10 3 -5 0 -10 -7 -11 -10 0 -10 -2 0 -6
6 -2 10 -9 6 -14 -3 -5 3 -9 13 -9 15 0 16 -2 3 -10 -10 -6 -11 -10 -2 -10 17
0 15 -27 -3 -34 -16 -6 -21 -36 -6 -36 13 0 25 -41 15 -49 -5 -3 -16 -15 -24
-25 -14 -18 -13 -19 8 -14 15 4 22 2 22 -8 0 -8 -9 -14 -20 -14 -25 0 -27 -20
-2 -21 16 -1 16 -2 0 -6 -10 -2 -18 -9 -18 -15 0 -6 9 -8 20 -5 13 3 20 0 20
-8 0 -8 -10 -16 -22 -18 l-23 -4 23 -8 c27 -9 29 -25 2 -25 -11 0 -20 -4 -20
-10 0 -5 10 -10 23 -10 22 -1 22 -1 -3 -15 l-25 -15 23 -6 c12 -3 22 -10 22
-14 0 -5 -10 -11 -22 -13 l-23 -4 23 -8 c20 -6 23 -13 18 -36 -3 -16 -1 -31 5
-35 7 -4 7 -10 1 -16 -6 -6 -8 -17 -5 -24 3 -8 0 -14 -6 -14 -18 0 -13 -18 7
-23 10 -3 6 -5 -10 -6 -24 -1 -28 3 -29 27 -1 17 -3 20 -6 9 -7 -26 16 -87 33
-87 8 0 14 -4 14 -10 0 -5 -7 -10 -15 -10 -21 0 -19 -20 3 -21 16 -1 16 -2 0
-6 -22 -5 -24 -23 -3 -23 8 0 15 -4 15 -10 0 -5 -7 -10 -15 -10 -19 0 -16 -30
5 -47 13 -11 12 -12 -8 -13 -13 0 -20 -4 -17 -10 4 -6 11 -8 16 -5 5 4 9 1 9
-4 0 -6 -7 -11 -15 -11 -24 0 -17 -20 8 -21 l22 -2 -22 -4 c-29 -6 -30 -19 -2
-26 12 -3 18 -10 15 -16 -4 -6 -13 -8 -20 -5 -8 3 -17 1 -21 -5 -3 -7 3 -11
17 -12 17 -1 18 -3 6 -6 -10 -2 -18 -8 -18 -13 0 -5 8 -11 18 -13 13 -4 11 -5
-5 -6 -24 -1 -33 -21 -10 -21 7 0 18 -5 24 -11 14 -14 -12 -69 -33 -69 -8 0
-14 -7 -14 -16 0 -10 7 -14 22 -12 32 4 37 -29 6 -34 l-23 -5 24 -10 c24 -10
24 -10 3 -15 -28 -8 -29 -38 -2 -38 11 0 20 -4 20 -10 0 -5 -4 -10 -10 -10 -5
0 -10 -7 -10 -16 0 -8 5 -12 10 -9 5 3 10 1 10 -4 0 -6 -7 -11 -15 -11 -8 0
-15 -4 -15 -10 0 -5 7 -10 15 -10 8 0 15 -4 15 -10 0 -5 -7 -10 -15 -10 -8 0
-15 -4 -15 -10 0 -5 9 -10 20 -10 11 0 20 -7 20 -15 0 -8 -7 -15 -15 -15 -21
0 -19 -17 3 -23 14 -4 13 -6 -7 -13 l-25 -7 25 -10 c20 -8 21 -11 7 -14 -10
-3 -18 -9 -18 -15 0 -5 7 -8 15 -4 12 4 15 -3 15 -33 0 -22 -6 -42 -12 -44
-10 -4 -9 -8 2 -16 13 -9 13 -11 -2 -11 -25 0 -22 -16 5 -24 l22 -7 -25 -11
c-25 -11 -25 -11 -2 -15 27 -5 29 -19 3 -26 -15 -3 -18 -12 -15 -38 2 -18 10
-36 17 -41 9 -6 9 -8 0 -8 -7 0 -13 -10 -13 -23 0 -13 -5 -28 -12 -35 -9 -9
-6 -12 15 -12 15 0 27 -4 27 -10 0 -5 -12 -10 -26 -10 -14 0 -23 -4 -19 -10 3
-5 15 -10 26 -10 10 0 19 -4 19 -10 0 -5 -9 -10 -20 -10 -28 0 -25 -20 3 -21
l22 -2 -22 -4 c-28 -5 -30 -23 -3 -23 11 0 20 -4 20 -10 0 -5 -7 -10 -15 -10
-21 0 -19 -20 3 -20 16 -1 16 -2 -1 -14 -18 -14 -18 -15 0 -25 10 -6 12 -11 6
-11 -20 0 -15 -20 5 -21 10 0 12 -3 5 -6 -7 -2 -13 -11 -13 -19 0 -8 -4 -14
-10 -14 -5 0 -10 9 -10 20 0 26 -17 26 -25 -1 -18 -55 -25 25 -25 281 1 151
-3 362 -6 469 l-7 193 32 28 c19 17 28 31 21 35 -6 4 -19 -4 -30 -17 -19 -23
-19 -21 -14 267 3 160 5 517 6 795 0 278 2 508 4 512 11 17 24 7 24 -17z m40
5 c0 -11 -4 -20 -8 -20 -4 0 -8 9 -8 20 0 11 4 20 8 20 4 0 8 -9 8 -20z m80
-1 c0 -6 -4 -7 -10 -4 -5 3 -10 11 -10 16 0 6 5 7 10 4 6 -3 10 -11 10 -16z
m-160 -24 c0 -19 -5 -35 -10 -35 -19 0 -23 -31 -5 -50 16 -18 15 -19 -10 -36
-20 -13 -25 -24 -22 -41 2 -13 1 -23 -3 -23 -10 0 -24 31 -21 48 1 6 -3 12
-10 12 -8 0 -8 4 1 15 10 12 6 17 -23 29 -19 7 -38 19 -41 25 -4 6 -17 11 -29
11 -41 0 -1 21 49 26 27 2 60 5 74 7 17 1 26 9 28 25 5 35 22 26 22 -13z
m-1330 15 c0 -5 -2 -10 -4 -10 -3 0 -8 5 -11 10 -3 6 -1 10 4 10 6 0 11 -4 11
-10z m310 -5 c18 -22 4 -64 -25 -71 -13 -3 -29 -3 -34 1 -12 7 -15 68 -4 78
12 12 50 7 63 -8z m701 -1 c3 -1 6 -24 8 -49 2 -43 1 -46 -18 -36 -11 6 -26 8
-34 5 -8 -3 -18 0 -23 7 -4 7 -2 15 4 17 19 6 14 30 -10 43 -22 12 -22 12 -3
20 17 6 58 3 76 -7z m279 -4 c0 -5 -2 -10 -4 -10 -3 0 -8 5 -11 10 -3 6 -1 10
4 10 6 0 11 -4 11 -10z m187 -16 c-9 -9 -28 6 -21 18 4 6 10 6 17 -1 6 -6 8
-13 4 -17z m-1528 -5 c-8 -16 -14 -18 -22 -10 -9 9 -8 14 3 21 24 16 31 11 19
-11z m38 -36 c-16 -16 -17 -16 -17 3 0 26 11 37 24 24 7 -7 5 -16 -7 -27z
m503 27 c0 -5 -5 -10 -11 -10 -5 0 -7 5 -4 10 3 6 8 10 11 10 2 0 4 -4 4 -10z
m130 -10 c-19 -13 -30 -13 -30 0 0 6 10 10 23 10 18 0 19 -2 7 -10z m177 -32
c7 -6 10 -14 7 -19 -8 -14 34 -10 59 5 18 11 28 12 57 1 33 -13 33 -17 0 -19
-10 -1 -15 -12 -15 -31 0 -20 -6 -31 -17 -33 -10 -2 -18 -11 -18 -21 0 -30
-11 -31 -34 -4 l-23 26 -36 -27 c-33 -25 -37 -26 -37 -10 0 11 5 26 10 34 7
11 4 20 -13 32 l-22 18 23 6 c12 4 22 9 22 12 0 3 -10 17 -22 30 l-23 24 35
-7 c19 -4 41 -12 47 -17z m610 0 c-3 -8 -6 -5 -6 6 -1 11 2 17 5 13 3 -3 4
-12 1 -19z m147 6 c3 -8 2 -12 -4 -9 -6 3 -10 10 -10 16 0 14 7 11 14 -7z
m-1528 -31 c-11 -11 -17 4 -9 23 7 18 8 18 11 1 2 -10 1 -21 -2 -24z m548 21
c4 -10 1 -14 -6 -12 -15 5 -23 28 -10 28 5 0 13 -7 16 -16z m69 2 c6 -16 -11
-36 -30 -36 -13 0 -18 32 -6 43 11 12 31 8 36 -7z m212 4 c-3 -5 -12 -10 -18
-10 -7 0 -6 4 3 10 19 12 23 12 15 0z m634 -47 c1 -21 -17 -15 -24 7 -9 27 6
50 16 24 4 -10 8 -25 8 -31z m-1199 27 c0 -5 -5 -10 -11 -10 -5 0 -7 5 -4 10
3 6 8 10 11 10 2 0 4 -4 4 -10z m230 1 c0 -13 -28 -22 -35 -11 -3 4 1 11 7 13
20 8 28 8 28 -2z m202 -13 c-7 -7 -12 -8 -12 -2 0 14 12 26 19 19 2 -3 -1 -11
-7 -17z m728 12 c0 -5 -4 -10 -10 -10 -5 0 -10 5 -10 10 0 6 5 10 10 10 6 0
10 -4 10 -10z m-1205 -10 c-3 -5 -11 -10 -16 -10 -6 0 -7 5 -4 10 3 6 11 10
16 10 6 0 7 -4 4 -10z m155 -4 c0 -8 -7 -16 -15 -20 -8 -3 -15 -15 -15 -26 0
-14 -7 -20 -21 -20 -12 0 -19 -5 -16 -12 2 -7 15 -13 28 -13 32 0 49 -12 43
-30 -4 -10 -15 -12 -35 -8 -22 4 -29 2 -29 -10 0 -9 7 -20 17 -25 11 -7 14
-15 8 -28 -4 -11 -7 -28 -6 -38 3 -18 1 -19 -21 -4 -12 8 -24 25 -26 37 -4 23
-22 27 -40 9 -20 -20 -27 20 -7 42 18 20 11 45 -11 36 -7 -3 -16 -1 -20 5 -4
6 -14 5 -29 -5 -20 -13 -25 -13 -35 -1 -17 21 30 65 69 65 18 0 42 10 57 23
22 20 55 32 92 36 6 0 12 -5 12 -13z m-271 -27 c-11 -6 -10 -9 4 -15 21 -8 23
-44 2 -44 -8 0 -15 -4 -15 -10 0 -5 7 -10 15 -10 8 0 15 -4 15 -10 0 -5 -7 -7
-16 -3 -12 4 -15 1 -12 -13 2 -10 10 -18 16 -16 7 1 12 -2 12 -8 0 -5 -11 -10
-25 -10 -24 0 -25 2 -25 63 0 45 5 69 18 85 9 12 19 16 21 10 2 -5 -3 -14 -10
-19z m1101 27 c0 -3 -4 -8 -10 -11 -5 -3 -10 -1 -10 4 0 6 5 11 10 11 6 0 10
-2 10 -4z m-804 -21 c-11 -8 -25 -15 -30 -15 -6 1 0 7 14 15 32 19 40 18 16 0z
m87 -2 c-13 -8 -23 -21 -23 -28 0 -7 -12 -15 -27 -18 -36 -7 -43 0 -9 9 14 3
26 13 26 20 0 8 10 19 23 24 32 13 35 11 10 -7z m153 -10 c-10 -10 -19 5 -10
18 6 11 8 11 12 0 2 -7 1 -15 -2 -18z m351 5 c-3 -8 -6 -5 -6 6 -1 11 2 17 5
13 3 -3 4 -12 1 -19z m163 -29 c0 -5 -7 -6 -15 -3 -8 4 -15 13 -15 21 0 13 3
13 15 3 8 -7 15 -16 15 -21z m30 21 c0 -5 -5 -10 -11 -10 -5 0 -7 5 -4 10 3 6
8 10 11 10 2 0 4 -4 4 -10z m197 4 c-3 -3 -12 -4 -19 -1 -8 3 -5 6 6 6 11 1
17 -2 13 -5z m-830 -34 c-9 -24 -13 -27 -20 -14 -11 20 -2 44 17 44 12 0 12
-5 3 -30z m-43 4 c7 -19 -2 -37 -15 -29 -12 8 -12 45 0 45 5 0 12 -7 15 -16z
m796 -9 c0 -19 -4 -23 -17 -18 -11 4 -12 8 -5 11 7 2 12 10 12 18 0 8 2 14 5
14 3 0 5 -11 5 -25z m-320 5 c0 -5 -4 -10 -10 -10 -5 0 -10 5 -10 10 0 6 5 10
10 10 6 0 10 -4 10 -10z m-375 -38 c-22 -5 -27 1 -19 23 7 17 8 17 21 -1 12
-17 12 -19 -2 -22z m40 10 c-8 -8 -25 10 -19 20 4 6 9 5 15 -3 4 -7 6 -15 4
-17z m-199 3 c-20 -15 -36 -19 -36 -10 0 5 38 23 50 24 3 0 -4 -6 -14 -14z
m724 5 c0 -5 -2 -10 -4 -10 -3 0 -8 5 -11 10 -3 6 -1 10 4 10 6 0 11 -4 11
-10z m-480 -10 c0 -5 -5 -10 -11 -10 -5 0 -7 5 -4 10 3 6 8 10 11 10 2 0 4 -4
4 -10z m84 -12 c-9 -30 -10 -31 -24 -23 -8 5 -6 13 6 26 22 25 27 24 18 -3z
m160 -4 c13 -33 -13 -71 -29 -44 -3 6 -1 10 5 10 6 0 8 10 4 25 -7 28 10 35
20 9z m258 -6 c-7 -7 -12 -8 -12 -2 0 14 12 26 19 19 2 -3 -1 -11 -7 -17z
m-226 -109 c-22 -25 -26 -27 -28 -12 -3 38 4 64 25 101 l22 37 3 -48 c3 -39
-1 -53 -22 -78z m326 104 c-6 -9 -6 -29 -2 -45 5 -15 8 -197 8 -403 0 -357 -1
-376 -19 -386 -11 -5 -19 -16 -19 -24 0 -22 -38 -18 -50 5 -6 11 -15 20 -21
20 -15 0 -52 -91 -53 -130 -1 -27 -5 -36 -22 -38 -20 -3 -20 -2 -19 415 1 230
3 435 3 456 2 38 22 54 22 17 0 -21 0 -21 21 -1 11 10 19 27 17 37 -1 11 1 21
6 24 12 6 27 -50 20 -72 -3 -10 -1 -18 5 -18 13 0 23 33 15 54 -4 11 -1 16 14
16 19 0 39 39 33 64 -2 11 19 26 37 26 9 0 10 -5 4 -17z m-1220 -156 c-2 -19
1 -38 7 -41 7 -5 9 -32 4 -81 -6 -72 -5 -75 16 -75 25 0 29 -29 4 -31 -17 -1
-17 -2 0 -6 9 -2 17 -11 17 -18 0 -8 -8 -19 -17 -24 -17 -10 -17 -10 0 -11 9
0 17 -4 17 -10 0 -5 -8 -10 -17 -10 -16 -1 -16 -2 2 -16 17 -13 18 -16 5 -24
-9 -6 -11 -13 -5 -17 12 -9 16 -43 5 -43 -4 0 -7 -11 -7 -25 0 -14 4 -25 9
-25 12 0 6 -53 -7 -63 -6 -6 -6 -10 3 -14 13 -5 17 -24 5 -22 -20 3 -24 -2
-13 -16 9 -10 9 -15 1 -15 -18 0 -13 -18 7 -23 13 -4 11 -5 -5 -6 -28 -1 -31
-21 -3 -21 21 0 27 -15 10 -25 -14 -9 -12 -45 3 -45 8 0 7 -4 -3 -10 -13 -8
-13 -11 -1 -19 11 -7 10 -11 -5 -20 -16 -9 -17 -12 -4 -21 10 -6 11 -10 3 -10
-8 0 -13 -14 -13 -34 0 -18 -7 -39 -16 -46 -8 -8 -14 -25 -12 -39 2 -20 10
-27 33 -31 21 -4 26 -8 17 -14 -7 -4 -11 -15 -7 -24 3 -8 0 -19 -7 -24 -10 -6
-10 -10 2 -19 11 -8 12 -12 3 -16 -18 -7 -16 -23 2 -23 20 0 19 -17 -2 -29
-10 -6 -13 -11 -7 -11 11 0 14 -60 3 -60 -10 0 -5 -34 6 -42 6 -5 4 -12 -5
-19 -12 -8 -12 -12 -2 -16 10 -4 10 -8 1 -19 -9 -11 -8 -14 2 -14 10 0 10 -3
1 -12 -8 -8 -9 -15 -1 -25 8 -9 8 -13 1 -13 -11 0 -10 -45 1 -57 12 -11 8 -23
-8 -23 -21 0 -19 -20 3 -21 16 0 16 -1 0 -12 -15 -10 -15 -12 0 -24 16 -11 16
-12 0 -13 -20 0 -25 -20 -5 -20 8 0 7 -4 -3 -10 -11 -7 -12 -12 -4 -17 12 -8
11 -53 0 -72 -4 -5 2 -14 11 -20 17 -10 17 -10 -2 -11 -19 -1 -19 -1 -2 -14
13 -10 15 -16 6 -22 -9 -5 -7 -11 6 -21 18 -12 18 -13 -2 -13 -16 0 -20 -5
-16 -20 3 -11 10 -20 16 -20 6 0 3 -6 -7 -13 -18 -13 -18 -14 0 -21 16 -6 16
-9 4 -17 -11 -8 -12 -12 -2 -16 17 -7 15 -23 -3 -23 -21 0 -19 -20 3 -20 16
-1 16 -2 -1 -14 -18 -14 -18 -15 0 -25 17 -10 17 -10 1 -11 -21 0 -24 -16 -5
-23 7 -3 5 -6 -6 -6 -16 -1 -17 -9 -12 -100 4 -66 3 -101 -4 -106 -6 -3 -11
-21 -12 -38 l-1 -32 -9 35 c-5 19 -7 185 -4 369 4 262 5 940 2 1766 0 22 1 72
2 110 l3 70 12 -61 c7 -34 10 -78 8 -97z m370 111 c-28 -28 -40 -16 -17 18 12
19 20 23 28 15 8 -8 5 -17 -11 -33z m218 8 c-1 -21 -1 -21 -15 -2 -19 25 -19
37 0 30 8 -4 15 -16 15 -28z m180 19 c0 -8 -4 -15 -9 -15 -13 0 -22 16 -14 24
11 11 23 6 23 -9z m320 -1 c0 -8 -4 -12 -10 -9 -5 3 -10 10 -10 16 0 5 5 9 10
9 6 0 10 -7 10 -16z m80 6 c0 -5 -4 -10 -10 -10 -5 0 -10 5 -10 10 0 6 5 10
10 10 6 0 10 -4 10 -10z m-1028 -14 c-4 -6 -7 -20 -7 -31 0 -24 -24 -26 -38
-4 -15 24 -2 47 27 47 17 0 23 -4 18 -12z m518 10 c0 -3 -4 -8 -10 -11 -5 -3
-10 -1 -10 4 0 6 5 11 10 11 6 0 10 -2 10 -4z m-172 -23 c-4 -22 -22 -20 -26
1 -2 10 3 16 13 16 10 0 15 -7 13 -17z m72 -2 c13 -25 13 -31 -2 -31 -7 0 -18
11 -25 25 -9 20 -8 25 3 25 7 0 18 -9 24 -19z m170 9 c0 -5 -4 -10 -10 -10 -5
0 -10 5 -10 10 0 6 5 10 10 10 6 0 10 -4 10 -10z m640 0 c0 -5 -5 -10 -11 -10
-5 0 -7 5 -4 10 3 6 8 10 11 10 2 0 4 -4 4 -10z m-215 -20 c3 -5 1 -10 -4 -10
-6 0 -11 5 -11 10 0 6 2 10 4 10 3 0 8 -4 11 -10z m-785 -30 c0 -5 -2 -10 -4
-10 -3 0 -8 5 -11 10 -3 6 -1 10 4 10 6 0 11 -4 11 -10z m124 2 c9 -14 -9 -31
-23 -23 -7 5 -10 14 -7 20 8 13 23 14 30 3z m97 -21 c-13 -23 -40 -45 -47 -38
-8 8 38 67 48 61 4 -3 4 -13 -1 -23z m479 19 c0 -5 -2 -10 -4 -10 -3 0 -8 5
-11 10 -3 6 -1 10 4 10 6 0 11 -4 11 -10z m-219 -37 c5 -14 18 -27 30 -30 23
-6 20 -29 -5 -25 -19 3 -21 -9 -3 -27 10 -10 9 -14 -4 -21 -10 -6 -16 -24 -17
-47 -1 -28 1 -34 8 -23 5 8 10 25 10 38 0 12 7 25 15 28 8 4 15 15 15 25 0 10
5 19 11 19 9 0 10 -22 6 -74 -3 -41 -1 -91 4 -113 5 -22 6 -163 3 -336 -7
-295 -7 -298 -28 -295 -16 2 -22 12 -26 42 -4 29 -11 41 -27 47 -14 5 -23 5
-23 -2 0 -5 7 -12 15 -15 8 -4 15 -16 15 -28 0 -48 11 -65 44 -68 l31 -3 0
-355 0 -355 -47 -52 c-26 -28 -57 -72 -70 -97 -14 -29 -29 -46 -40 -46 -10 0
-18 -2 -18 -4 0 -2 -3 -11 -6 -20 -3 -9 -1 -16 4 -16 6 0 13 8 15 18 3 12 5
13 6 2 0 -8 -3 -22 -9 -30 -7 -12 -12 -12 -28 4 -15 13 -21 14 -25 4 -11 -30
4 129 19 200 9 42 16 85 16 95 -1 16 5 17 44 11 34 -5 44 -3 44 8 0 20 -21 38
-43 38 -24 0 -56 72 -67 153 -6 39 -15 66 -26 74 -15 11 -16 16 -4 37 7 14 18
24 24 23 7 -1 11 17 11 46 1 37 -2 46 -13 42 -10 -4 -12 0 -8 12 7 17 6 17
-11 0 -17 -17 -17 -19 0 -28 19 -11 23 -34 7 -44 -5 -3 -7 0 -5 8 3 7 -3 22
-15 32 -26 23 -25 31 5 61 14 14 25 33 25 43 0 23 30 37 42 19 5 -9 8 -6 8 10
0 12 -5 22 -11 22 -5 0 -8 3 -6 8 11 18 -14 51 -45 57 -18 4 -38 11 -44 16
-16 13 -33 -11 -36 -52 -2 -19 -7 -37 -12 -40 -4 -4 -3 -16 3 -28 9 -16 8 -27
-4 -50 -8 -17 -15 -46 -15 -65 0 -19 -4 -38 -10 -41 -16 -10 -12 -62 5 -69 8
-3 15 -18 15 -33 0 -26 -1 -26 -15 -7 -8 10 -15 15 -15 9 -3 -29 -19 38 -19
83 -1 51 24 122 49 137 5 3 10 11 10 18 0 18 -25 -12 -53 -63 -28 -51 -36
-126 -42 -405 -4 -165 -12 -222 -43 -312 -20 -55 -35 -62 -25 -12 3 16 2 29
-1 29 -15 0 -33 -26 -28 -42 3 -13 -1 -15 -19 -11 -13 4 -20 2 -16 -4 4 -6
-10 -9 -33 -9 l-40 0 6 41 c11 79 13 85 37 82 21 -2 22 2 25 76 3 72 5 78 27
87 14 5 25 14 25 19 0 5 12 14 28 20 l27 11 0 143 c0 111 4 151 17 182 9 22
26 73 38 113 16 55 25 72 36 68 15 -6 17 8 5 39 -5 13 -3 28 7 43 13 20 13 22
-2 23 -24 2 -29 4 -53 17 -18 10 -27 8 -57 -11 -19 -12 -35 -26 -34 -32 1 -27
-5 -33 -42 -39 -23 -3 -43 -13 -46 -21 -4 -9 -19 -15 -35 -15 -31 0 -31 0 9
45 15 16 16 41 2 50 -5 3 -10 15 -10 27 0 17 -4 20 -30 15 -23 -5 -32 -2 -40
14 -11 19 -12 19 -52 -13 l-41 -32 39 -18 c21 -10 34 -18 27 -18 -6 0 -19 -21
-27 -47 -14 -43 -13 -17 1 32 4 15 2 17 -7 8 -7 -6 -15 -26 -19 -45 -5 -26
-12 -34 -34 -36 -15 -2 -27 -10 -27 -18 0 -18 -7 -18 -29 4 -18 16 -19 41 -16
532 1 283 3 520 4 526 0 6 12 16 26 22 24 11 25 10 15 -8 -6 -11 -15 -20 -20
-20 -6 0 -10 -3 -10 -8 0 -12 60 -34 80 -29 11 3 22 1 25 -3 3 -5 -3 -10 -12
-12 -13 -2 -18 -13 -18 -36 0 -17 5 -30 10 -28 6 2 9 15 8 30 -1 16 3 26 12
26 26 0 27 21 1 46 -18 19 -31 24 -47 19 -14 -5 -19 -4 -15 4 4 6 15 11 25 11
9 0 22 5 29 12 16 16 36 -3 52 -51 17 -52 65 -100 83 -82 6 6 12 17 12 24 0 7
12 11 29 10 16 -1 37 2 47 7 14 8 24 4 45 -15 28 -26 49 -32 59 -15 9 15 28
12 22 -3 -3 -8 -2 -19 3 -26 5 -9 10 -4 14 14 9 35 -7 54 -32 39 -15 -10 -18
-8 -18 8 0 29 45 36 67 9 17 -21 44 -20 62 3 6 8 10 8 13 -1 8 -17 55 32 48
50 -3 8 0 18 6 22 7 4 10 0 8 -11 -2 -14 3 -19 19 -19 12 0 25 -4 28 -7 4 -4
14 -4 23 -1 14 5 14 3 -2 -15 -10 -12 -16 -28 -13 -37 8 -20 37 -20 37 0 0 11
7 14 25 9 22 -5 25 -3 25 19 0 14 -4 29 -10 32 -5 3 -10 17 -10 31 0 30 17 23
31 -13z m-311 17 c0 -5 -7 -10 -15 -10 -8 0 -15 5 -15 10 0 6 7 10 15 10 8 0
15 -4 15 -10z m-140 -10 c0 -5 -4 -10 -10 -10 -5 0 -10 5 -10 10 0 6 5 10 10
10 6 0 10 -4 10 -10z m30 0 c0 -5 -5 -10 -11 -10 -5 0 -7 5 -4 10 3 6 8 10 11
10 2 0 4 -4 4 -10z m340 -11 c0 -6 -4 -7 -10 -4 -5 3 -10 11 -10 16 0 6 5 7
10 4 6 -3 10 -11 10 -16z m146 -16 c-10 -10 -19 5 -10 18 6 11 8 11 12 0 2 -7
1 -15 -2 -18z m424 1 c0 -14 -4 -23 -9 -20 -5 3 -7 15 -4 26 7 28 13 25 13 -6z
m-970 6 c0 -5 -4 -10 -10 -10 -5 0 -10 5 -10 10 0 6 5 10 10 10 6 0 10 -4 10
-10z m297 -12 c-3 -8 -6 -5 -6 6 -1 11 2 17 5 13 3 -3 4 -12 1 -19z m-48 -5
c-7 -10 -15 -20 -16 -22 -2 -2 -3 5 -3 17 0 14 6 22 16 22 14 0 15 -3 3 -17z
m-319 -3 c0 -5 -2 -10 -4 -10 -3 0 -8 5 -11 10 -3 6 -1 10 4 10 6 0 11 -4 11
-10z m530 -10 c0 -5 -4 -10 -10 -10 -5 0 -10 5 -10 10 0 6 5 10 10 10 6 0 10
-4 10 -10z m-430 -10 c0 -5 -5 -10 -11 -10 -5 0 -7 5 -4 10 3 6 8 10 11 10 2
0 4 -4 4 -10z m70 6 c0 -3 -4 -8 -10 -11 -5 -3 -10 -1 -10 4 0 6 5 11 10 11 6
0 10 -2 10 -4z m-190 -16 c0 -5 -4 -10 -10 -10 -5 0 -10 5 -10 10 0 6 5 10 10
10 6 0 10 -4 10 -10z m-239 -73 c-10 -9 -11 -8 -5 6 3 10 9 15 12 12 3 -3 0
-11 -7 -18z m-294 -29 c-3 -8 -6 -5 -6 6 -1 11 2 17 5 13 3 -3 4 -12 1 -19z
m1573 -134 c0 -8 -4 -12 -10 -9 -5 3 -10 10 -10 16 0 5 5 9 10 9 6 0 10 -7 10
-16z m-313 -276 c-3 -8 -6 -5 -6 6 -1 11 2 17 5 13 3 -3 4 -12 1 -19z m216
-257 c-6 -52 -24 -74 -43 -55 -5 5 -29 7 -52 5 l-43 -5 45 -8 c25 -5 53 -9 63
-9 21 0 19 26 21 -311 l1 -276 -36 -6 c-19 -3 -62 -19 -95 -36 -32 -16 -60
-30 -62 -30 -2 0 -2 151 0 335 3 330 3 335 24 335 25 0 44 18 44 42 0 22 16
23 28 2 8 -14 10 -13 15 5 4 18 1 21 -25 21 -19 0 -28 4 -25 13 2 6 11 11 21
9 9 -2 16 4 16 12 0 17 18 25 43 18 21 -5 22 -21 1 -51 -10 -14 -13 -26 -7
-32 5 -5 14 5 22 27 10 28 15 33 23 23 8 -11 9 -10 4 4 -3 9 -3 24 1 33 12 32
23 -11 16 -65z m-1013 -79 c0 -13 -12 -22 -22 -16 -10 6 -1 24 13 24 5 0 9 -4
9 -8z m-257 -32 c22 -26 16 -36 -24 -44 -45 -9 -53 1 -27 34 28 35 29 35 51
10z m577 1 c0 -12 -28 -22 -34 -12 -3 5 -3 11 1 15 9 9 33 7 33 -3z m160 -6
c0 -15 -27 -28 -41 -19 -18 11 -8 29 16 30 14 1 25 -4 25 -11z m-366 -4 c3 -4
3 -11 0 -14 -8 -8 -34 3 -34 14 0 11 27 12 34 0z m166 -25 c0 -3 -4 -8 -10
-11 -5 -3 -10 -1 -10 4 0 6 5 11 10 11 6 0 10 -2 10 -4z m240 -15 c0 -5 -7
-11 -15 -15 -9 -3 -15 0 -15 9 0 8 7 15 15 15 8 0 15 -4 15 -9z m-836 -26 c-8
-21 13 -19 25 3 10 16 12 15 31 -8 18 -24 19 -38 15 -355 -3 -181 -5 -332 -5
-335 0 -14 -29 40 -32 60 -2 20 -10 26 -37 28 -32 3 -33 2 -29 -27 3 -23 0
-32 -13 -36 -10 -3 -21 -15 -24 -26 -4 -10 -12 -19 -20 -19 -26 0 -38 325 -16
415 7 28 16 73 19 100 4 28 11 49 17 47 5 -2 11 2 14 9 2 8 -2 10 -15 5 -10
-4 -15 -4 -11 0 4 4 3 12 -2 18 -6 7 -4 18 5 31 13 18 15 18 31 2 15 -15 15
-17 -8 -26 -17 -7 -19 -10 -6 -10 13 -1 17 -10 17 -37 0 -21 4 -33 10 -29 6 3
10 50 10 106 0 80 3 99 15 99 9 0 12 -6 9 -15z m770 6 c3 -5 -1 -11 -9 -15 -9
-3 -15 0 -15 9 0 16 16 20 24 6z m-223 -22 c4 -8 8 -7 12 2 4 9 6 8 6 -5 1
-14 7 -17 25 -14 19 4 22 1 18 -16 -3 -12 -20 -36 -38 -55 -19 -19 -34 -40
-34 -47 0 -7 -10 -18 -22 -25 -18 -10 -20 -9 -15 5 7 17 -6 48 -31 75 -12 12
-15 12 -23 0 -5 -8 -9 -10 -9 -6 0 5 -6 5 -12 0 -7 -4 -21 -6 -31 -4 -10 1
-27 -5 -37 -14 -12 -11 -20 -13 -25 -6 -8 15 -23 14 -28 -1 -2 -7 -3 -3 -1 9
2 11 7 29 11 39 5 13 3 16 -10 11 -15 -5 -14 -3 1 27 15 30 18 31 24 15 4 -11
17 -19 28 -19 12 0 18 4 15 11 -5 7 4 8 28 4 43 -8 77 1 77 22 0 12 7 14 32 9
18 -3 35 -11 39 -17z m104 -1 c-34 -113 -50 -151 -53 -130 -2 13 6 46 17 72
12 27 21 56 21 64 0 9 5 16 11 16 6 0 8 -9 4 -22z m-384 -90 c-2 -45 2 -64 18
-86 27 -39 39 -98 33 -162 -3 -36 -1 -55 8 -60 9 -6 7 -13 -9 -29 -13 -13 -21
-32 -20 -49 1 -15 -1 -42 -5 -59 -6 -26 -4 -33 8 -33 22 0 125 134 112 147 -3
3 -20 -19 -39 -49 -19 -30 -43 -60 -53 -68 -10 -8 -3 8 16 35 42 64 71 96 80
90 10 -6 20 7 64 88 49 88 38 86 -15 -3 -23 -38 -43 -70 -46 -70 -7 0 132 269
140 269 14 1 7 -30 -29 -137 -46 -137 -86 -232 -118 -278 -14 -21 -23 -42 -19
-47 3 -5 16 10 30 32 13 23 26 41 29 41 9 0 -55 -117 -80 -147 -30 -35 -66
-49 -66 -26 0 13 -3 13 -15 3 -12 -10 -15 -9 -15 4 0 10 30 49 68 87 59 62
132 179 111 179 -13 0 -39 -43 -39 -66 0 -12 -25 -48 -61 -85 -52 -55 -59 -60
-54 -36 3 15 1 27 -4 27 -5 0 -12 -15 -16 -32 -3 -18 -11 -43 -18 -56 -8 -18
-8 -28 1 -42 14 -23 5 -80 -15 -87 -7 -3 -22 2 -32 11 -13 12 -21 14 -26 7 -3
-6 1 -14 9 -17 10 -4 16 -17 15 -33 -1 -19 -3 -21 -6 -7 -3 11 -14 27 -25 35
-19 16 -19 30 -19 380 0 244 3 367 10 374 8 8 11 6 11 -6 0 -25 37 -21 43 4 4
13 12 19 23 17 15 -3 17 -12 15 -60z m463 31 c-3 -6 0 -15 7 -20 11 -6 11 -11
2 -20 -10 -10 -14 -9 -19 4 -6 17 1 47 11 47 4 0 3 -5 -1 -11z m-285 -145 c-9
-35 -14 -42 -21 -30 -5 9 -4 22 3 34 9 14 9 24 1 38 -11 18 -11 18 -12 -3 0
-13 -4 -23 -10 -23 -14 0 -13 43 1 57 8 8 16 6 30 -8 17 -17 18 -24 8 -65z
m-98 47 c6 -17 17 -28 27 -27 11 1 20 -11 26 -36 11 -45 29 -48 53 -10 19 29
33 42 46 42 12 0 -98 -207 -130 -244 l-26 -31 7 45 c4 25 10 53 12 63 8 25 -5
21 -17 -5 -9 -21 -8 27 4 152 1 16 -3 24 -10 23 -8 -2 -13 8 -13 27 0 38 8 38
21 1z m-454 -33 c-2 -13 -4 -5 -4 17 -1 22 1 32 4 23 2 -10 2 -28 0 -40z m417
36 c4 -10 1 -14 -6 -12 -15 5 -23 28 -10 28 5 0 13 -7 16 -16z m466 -23 c0 -5
-6 -14 -14 -20 -10 -9 -16 -8 -25 3 -10 11 -8 15 6 19 29 8 33 7 33 -2z m-20
-63 c0 -6 -7 -5 -15 2 -8 7 -15 17 -15 22 0 6 7 5 15 -2 8 -7 15 -17 15 -22z
m-183 -15 c-3 -10 -5 -4 -5 12 0 17 2 24 5 18 2 -7 2 -21 0 -30z m-797 -35 c0
-4 -16 -8 -35 -8 -39 0 -42 5 -18 32 15 17 17 17 35 2 10 -10 18 -21 18 -26z
m1020 18 c0 -2 -3 -11 -6 -20 -9 -23 -24 -20 -24 4 0 11 7 20 15 20 8 0 15 -2
15 -4z m-220 -126 c0 -67 -4 -110 -10 -110 -6 0 -10 31 -10 73 0 70 9 147 16
147 2 0 4 -49 4 -110z m104 75 c-4 -8 -8 -15 -10 -15 -2 0 -4 7 -4 15 0 8 4
15 10 15 5 0 7 -7 4 -15z m89 -25 c3 0 3 7 0 17 -4 10 -2 14 4 10 13 -8 15
-80 3 -111 -6 -17 -14 -24 -25 -20 -8 4 -15 1 -15 -6 0 -8 11 -11 30 -8 36 5
38 -4 8 -25 -18 -12 -19 -16 -7 -16 9 -1 29 16 45 36 17 23 29 32 32 24 2 -7
-1 -17 -9 -21 -7 -5 -14 -26 -14 -47 -4 -82 -22 -149 -60 -213 -20 -34 -28
-80 -14 -80 4 0 10 13 14 30 12 54 29 48 22 -9 -7 -62 -12 -71 -38 -71 -16 0
-19 7 -19 39 0 22 -4 42 -9 45 -5 4 -12 29 -16 57 -4 29 -13 53 -21 56 -9 3
-14 22 -14 56 0 47 1 49 15 31 8 -10 15 -30 15 -44 0 -14 5 -32 11 -40 8 -11
9 -4 7 27 -3 40 -2 41 14 26 22 -20 23 -10 3 20 -14 22 -13 23 12 22 14 0 28
6 31 14 3 9 -1 11 -14 7 -14 -4 -25 3 -41 27 -26 38 -30 55 -8 37 18 -15 18
-17 0 45 -13 44 -13 48 0 31 8 -11 15 -23 15 -28 0 -4 4 -8 9 -8 6 0 4 15 -4
33 -8 18 -13 48 -13 66 l1 32 22 -21 c12 -11 24 -20 28 -20z m-1043 -3 c0 -20
0 -20 15 -1 11 14 14 15 15 4 0 -13 1 -13 10 0 10 16 11 4 12 -192 0 -58 -3
-111 -6 -117 -13 -20 -26 -11 -26 18 0 35 -13 46 -37 32 -12 -7 -14 -10 -4
-11 11 0 11 -3 1 -15 -7 -9 -20 -13 -27 -11 -11 4 -13 0 -8 -14 5 -15 2 -20
-14 -20 -11 0 -25 8 -30 18 -9 15 -12 15 -36 -10 -14 -16 -30 -28 -35 -28 -14
0 -12 -28 2 -32 8 -3 6 -17 -8 -46 -23 -54 -30 -39 -33 80 -2 76 0 89 18 107
12 12 33 21 48 21 62 1 109 75 120 187 3 34 10 60 14 57 5 -3 9 -15 9 -27z
m817 -79 c-3 -7 -5 -2 -5 12 0 14 2 19 5 13 2 -7 2 -19 0 -25z m120 0 c-3 -7
-5 -2 -5 12 0 14 2 19 5 13 2 -7 2 -19 0 -25z m919 -3 c-26 -24 -46 -26 -46
-3 0 5 7 7 15 4 9 -3 18 1 21 9 4 8 13 15 22 15 10 0 7 -8 -12 -25z m-1060
-53 c-4 -3 -12 0 -18 6 -9 9 -9 12 0 12 7 0 13 12 14 28 1 23 2 23 5 -6 3 -19
2 -37 -1 -40z m171 36 c-3 -8 -6 -5 -6 6 -1 11 2 17 5 13 3 -3 4 -12 1 -19z
m-357 -19 c0 -5 -4 -9 -10 -9 -5 0 -10 7 -10 16 0 8 5 12 10 9 6 -3 10 -10 10
-16z m1265 -9 c3 -5 1 -10 -4 -10 -6 0 -11 5 -11 10 0 6 2 10 4 10 3 0 8 -4
11 -10z m-900 -68 c-8 -8 -12 0 -19 38 l-7 35 16 -34 c8 -19 13 -36 10 -39z
m175 58 c0 -5 -5 -10 -11 -10 -5 0 -7 5 -4 10 3 6 8 10 11 10 2 0 4 -4 4 -10z
m450 -60 l0 -70 -30 0 c-19 0 -40 -9 -56 -25 -13 -13 -30 -22 -38 -19 -8 3
-17 1 -21 -5 -3 -6 -17 -11 -31 -11 -23 0 -24 3 -24 64 0 44 5 67 15 76 24 20
128 60 158 60 27 0 27 0 27 -70z m136 59 c3 -6 1 -15 -6 -19 -18 -11 -4 -27
29 -35 16 -3 31 -14 34 -25 2 -10 15 -20 28 -22 22 -3 69 -68 49 -68 -5 0 -12
5 -15 10 -10 16 -81 12 -95 -5 -7 -8 -16 -12 -21 -9 -5 3 -6 -1 -3 -9 3 -8 1
-18 -5 -21 -6 -4 -8 -13 -5 -20 3 -8 1 -17 -4 -20 -8 -5 -22 127 -22 216 0 38
20 53 36 27z m64 -4 c7 -9 8 -15 2 -15 -5 0 -12 7 -16 15 -3 8 -4 15 -2 15 2
0 9 -7 16 -15z m37 9 c-3 -3 -12 -4 -19 -1 -8 3 -5 6 6 6 11 1 17 -2 13 -5z
m-897 -13 c0 -12 -20 -25 -27 -18 -7 7 6 27 18 27 5 0 9 -4 9 -9z m-153 -33
c-3 -7 -5 -2 -5 12 0 14 2 19 5 13 2 -7 2 -19 0 -25z m-38 -59 c-6 -41 -13
-76 -15 -78 -9 -9 -1 125 8 142 17 32 19 12 7 -64z m1159 62 c3 -8 -1 -12 -9
-9 -7 2 -15 10 -17 17 -3 8 1 12 9 9 7 -2 15 -10 17 -17z m-607 -153 c-3 -29
-6 -45 -9 -35 -5 22 -37 19 -37 -4 0 -14 -27 -49 -38 -49 -3 0 -8 7 -11 16 -8
21 70 124 93 124 3 0 4 -24 2 -52z m-594 20 c-3 -8 -6 -5 -6 6 -1 11 2 17 5
13 3 -3 4 -12 1 -19z m-52 -70 c-40 -81 -72 -118 -101 -118 -13 0 -24 5 -24
10 0 21 32 59 45 54 15 -6 71 64 88 111 8 22 12 25 15 13 2 -10 -9 -41 -23
-70z m-356 56 c5 -5 -18 -76 -30 -95 -12 -19 -28 6 -29 46 -1 27 -2 28 -10 9
-12 -31 -24 -36 -46 -19 -19 14 -18 14 1 15 12 0 28 13 38 30 15 25 22 29 45
24 15 -4 29 -8 31 -10z m1301 2 c0 -7 -12 -26 -27 -41 -28 -27 -28 -27 -31 -5
-4 24 23 60 45 60 7 0 13 -6 13 -14z m270 -1 c25 -14 25 -14 -18 -21 -41 -6
-43 -9 -38 -33 5 -22 5 -23 -5 -8 -10 18 -11 18 -25 0 -12 -17 -13 -16 -14 8
0 25 21 51 50 62 22 8 22 8 50 -8z m-1845 -15 c3 -5 -1 -10 -9 -10 -18 0 -22
-16 -5 -22 9 -3 8 -14 -1 -43 l-13 -40 -14 39 c-10 29 -10 42 -2 52 6 8 8 14
3 14 -10 0 17 20 28 20 4 0 10 -4 13 -10z m659 -62 c-9 -29 -19 -59 -22 -67
-4 -10 -1 -12 8 -6 8 5 11 3 8 -6 -4 -13 -58 -27 -58 -15 0 3 16 35 35 73 19
37 35 75 36 83 0 10 2 11 6 3 2 -7 -3 -37 -13 -65z m782 35 c-5 -12 -10 -13
-18 -5 -8 8 -8 15 3 28 15 18 25 4 15 -23z m-36 10 c0 -7 -7 -13 -15 -13 -8 0
-15 6 -15 13 0 8 7 14 15 14 8 0 15 -6 15 -14z m-1553 -30 c-3 -3 -11 -2 -17
2 -9 6 -9 10 1 16 14 8 27 -7 16 -18z m733 -3 c-6 -11 -21 -20 -33 -20 -22 0
-22 1 3 20 32 25 43 25 30 0z m1240 10 c0 -5 -5 -10 -11 -10 -5 0 -7 5 -4 10
3 6 8 10 11 10 2 0 4 -4 4 -10z m-895 -33 c10 -2 10 -12 1 -59 -3 -16 -1 -28
4 -28 6 0 10 9 10 20 0 11 4 20 9 20 4 0 6 -11 3 -25 -3 -16 -11 -25 -23 -25
-17 0 -18 5 -13 40 4 27 3 40 -5 40 -6 0 -11 -9 -11 -21 0 -18 -34 -58 -51
-59 -15 0 -17 30 -5 71 10 32 19 45 37 49 16 4 26 1 29 -8 3 -7 10 -14 15 -15z
m452 11 c-3 -8 -6 -5 -6 6 -1 11 2 17 5 13 3 -3 4 -12 1 -19z m-1194 -12 c20
7 32 -29 17 -56 -11 -21 -30 -27 -30 -10 0 6 5 10 10 10 6 0 5 6 -2 14 -11 12
-14 9 -21 -15 -10 -40 -27 -27 -27 20 0 43 8 55 25 41 7 -6 19 -8 28 -4z
m1227 4 c0 -5 -4 -10 -10 -10 -5 0 -10 5 -10 10 0 6 5 10 10 10 6 0 10 -4 10
-10z m100 6 c0 -3 -4 -8 -10 -11 -5 -3 -10 -1 -10 4 0 6 5 11 10 11 6 0 10 -2
10 -4z m-1221 -39 c-12 -41 -28 -57 -56 -57 -29 0 -27 15 10 60 30 38 57 36
46 -3z m1257 6 c-10 -10 -19 5 -10 18 6 11 8 11 12 0 2 -7 1 -15 -2 -18z m141
-10 c-3 -10 -5 -4 -5 12 0 17 2 24 5 18 2 -7 2 -21 0 -30z m-260 5 c-3 -8 -6
-5 -6 6 -1 11 2 17 5 13 3 -3 4 -12 1 -19z m424 -21 c-8 -8 -11 -3 -11 19 1
25 2 27 11 11 8 -14 8 -22 0 -30z m-2003 1 c-13 -37 -38 -37 -38 0 0 22 5 27
24 27 21 0 22 -3 14 -27z m1632 23 c0 -6 -4 -13 -10 -16 -5 -3 -10 1 -10 9 0
9 5 16 10 16 6 0 10 -4 10 -9z m-289 -24 c-10 -9 -11 -8 -5 6 3 10 9 15 12 12
3 -3 0 -11 -7 -18z m-1201 -7 c-6 -11 -16 -20 -22 -20 -6 0 -3 9 7 20 10 11
20 20 22 20 2 0 -1 -9 -7 -20z m309 -24 c-9 -8 -10 -7 -5 7 3 10 7 24 7 30 1
7 3 4 6 -7 3 -10 -1 -23 -8 -30z m-398 11 c-10 -9 -11 -8 -5 6 3 10 9 15 12
12 3 -3 0 -11 -7 -18z m1248 -8 c-19 -11 -24 -3 -8 14 8 9 16 11 18 5 2 -6 -3
-14 -10 -19z m251 11 c0 -11 -2 -20 -4 -20 -2 0 -6 9 -9 20 -3 11 -1 20 4 20
5 0 9 -9 9 -20z m106 -7 c-10 -10 -19 5 -10 18 6 11 8 11 12 0 2 -7 1 -15 -2
-18z m58 -7 c-7 -17 -34 -22 -34 -6 0 6 7 10 15 10 8 0 15 5 15 12 0 6 2 9 5
6 3 -3 3 -13 -1 -22z m253 2 c-3 -8 -6 -5 -6 6 -1 11 2 17 5 13 3 -3 4 -12 1
-19z m-1795 -29 c7 -5 -43 -9 -114 -9 -79 0 -129 4 -133 11 -8 12 227 10 247
-2z m258 -3 c14 -2 -15 -4 -65 -4 -49 -1 -85 2 -78 6 10 6 83 6 143 -2z m838
-5 c105 -1 152 -4 152 -12 0 -15 -840 -2 -855 13 -7 6 86 8 270 4 154 -3 349
-5 433 -5z m452 -12 c0 -5 -45 -9 -100 -9 -99 0 -141 16 -57 22 65 5 157 -3
157 -13z m300 -5 c0 -12 -6 -15 -22 -10 -13 3 -56 6 -95 6 -42 0 -73 4 -73 10
0 6 38 10 95 10 81 0 95 -2 95 -16z m-1897 -4 l57 0 0 -144 c0 -103 4 -146 13
-154 22 -18 74 -24 84 -10 4 7 8 78 8 158 l0 145 83 0 83 0 4 -144 c2 -79 8
-148 13 -153 5 -5 29 -8 53 -6 l44 3 -3 153 -4 154 49 -5 c26 -3 209 -7 407
-8 197 -1 369 -4 382 -7 24 -4 24 -5 24 -142 l0 -137 47 -6 c26 -3 53 -3 60 0
16 6 19 138 3 148 -6 3 -9 36 -8 73 l3 67 94 -2 c51 -1 96 -5 99 -7 2 -3 5
-59 6 -125 0 -66 4 -123 8 -127 12 -11 80 -13 101 -3 16 9 18 18 13 57 -3 26
-9 82 -12 125 l-6 77 96 0 96 0 0 -145 0 -145 -42 2 c-41 1 -41 1 -8 5 l35 5
-25 13 -25 14 28 1 c25 0 27 2 17 20 -6 11 -8 25 -4 31 7 13 -13 29 -36 29
-13 0 -13 -1 0 -10 11 -8 8 -9 -12 -4 -24 5 -28 3 -28 -14 0 -15 -9 -22 -30
-27 -32 -7 -32 -25 1 -25 26 0 24 -16 -3 -24 l-23 -6 25 -15 c24 -14 24 -14 4
-15 -26 0 -38 -24 -19 -40 15 -12 31 3 20 20 -3 5 1 10 11 10 15 0 16 -9 11
-74 -4 -58 -2 -78 9 -87 12 -10 14 1 14 75 l0 86 40 0 40 0 0 -62 c0 -35 -3
-80 -7 -102 l-6 -39 -581 7 c-673 8 -743 8 -1088 6 -141 -1 -293 2 -337 6
l-81 7 0 264 0 265 73 -5 c39 -4 98 -6 130 -7z m415 -65 c0 -19 -4 -35 -9 -35
-5 0 -9 16 -9 35 0 19 4 35 9 35 5 0 9 -16 9 -35z m2 -65 c0 -5 -2 -10 -4 -10
-3 0 -8 5 -11 10 -3 6 -1 10 4 10 6 0 11 -4 11 -10z m960 -10 c0 -5 -8 -10
-17 -10 -15 0 -16 2 -3 10 19 12 20 12 20 0z m5 -30 c3 -5 -2 -10 -12 -11 -10
0 -13 -3 -6 -5 7 -3 9 -12 6 -20 -3 -9 2 -14 13 -15 17 -1 17 -2 2 -6 -10 -2
-18 -9 -18 -14 0 -5 8 -10 18 -10 15 -1 15 -2 0 -6 -9 -2 -18 -12 -20 -21 -3
-9 -8 9 -12 40 -4 32 -5 62 -1 68 8 13 22 13 30 0z m462 -66 c-3 -3 -12 -4
-19 -1 -8 3 -5 6 6 6 11 1 17 -2 13 -5z m-1427 -54 c0 -5 -2 -10 -4 -10 -3 0
-8 5 -11 10 -3 6 -1 10 4 10 6 0 11 -4 11 -10z m1453 -37 c-7 -2 -21 -2 -30 0
-10 3 -4 5 12 5 17 0 24 -2 18 -5z"/>
<path d="M1043 3693 c15 -2 27 -10 27 -16 0 -7 3 -22 6 -34 5 -18 1 -25 -17
-32 -17 -7 5 -10 81 -9 58 0 97 2 88 5 -22 5 -22 4 -1 47 11 24 24 36 42 39
14 2 -37 4 -114 4 -77 0 -128 -2 -112 -4z m99 -30 c31 -29 38 -59 12 -49 -9 3
-24 6 -34 6 -11 0 -20 10 -23 27 -9 50 5 55 45 16z m78 21 c0 -12 -21 -44 -29
-44 -5 0 -16 11 -25 25 l-16 25 35 0 c19 0 35 -3 35 -6z"/>
<path d="M1867 3423 c-6 -33 -1 -43 19 -43 11 0 14 9 12 32 -4 40 -24 47 -31
11z"/>
<path d="M1796 2995 c-9 -26 -7 -32 5 -12 6 10 9 21 6 23 -2 3 -7 -2 -11 -11z"/>
<path d="M1683 2958 c3 -9 1 -19 -6 -22 -7 -2 -4 -5 6 -5 20 -1 21 7 6 29 -9
13 -10 13 -6 -2z"/>
<path d="M1055 2850 c3 -5 8 -10 11 -10 2 0 4 5 4 10 0 6 -5 10 -11 10 -5 0
-7 -4 -4 -10z"/>
<path d="M610 2970 c0 -5 5 -10 10 -10 6 0 10 5 10 10 0 6 -4 10 -10 10 -5 0
-10 -4 -10 -10z"/>
<path d="M590 2932 c0 -10 22 -32 32 -32 4 0 8 9 8 20 0 13 -7 20 -20 20 -11
0 -20 -4 -20 -8z"/>
<path d="M606 2833 c-4 -9 -2 -21 4 -27 7 -7 10 -2 10 17 0 31 -5 34 -14 10z"/>
<path d="M1606 2845 c4 -8 8 -15 10 -15 2 0 4 7 4 15 0 8 -4 15 -10 15 -5 0
-7 -7 -4 -15z"/>
<path d="M1603 2803 c-18 -6 -16 -43 1 -43 7 0 16 11 18 25 5 25 3 27 -19 18z"/>
<path d="M1580 2720 c0 -5 9 -10 20 -10 11 0 20 5 20 10 0 6 -9 10 -20 10 -11
0 -20 -4 -20 -10z"/>
<path d="M1600 2536 c-7 -9 -10 -22 -7 -30 3 -7 0 -19 -6 -26 -9 -10 -9 -11 3
-8 21 6 45 57 33 69 -6 6 -15 4 -23 -5z"/>
<path d="M1600 2449 c0 -5 5 -7 10 -4 6 3 10 8 10 11 0 2 -4 4 -10 4 -5 0 -10
-5 -10 -11z"/>
<path d="M1590 2129 c0 -5 5 -7 10 -4 6 3 10 8 10 11 0 2 -4 4 -10 4 -5 0 -10
-5 -10 -11z"/>
<path d="M1600 500 c0 -5 5 -10 10 -10 6 0 10 5 10 10 0 6 -4 10 -10 10 -5 0
-10 -4 -10 -10z"/>
<path d="M334 2849 c-3 -6 1 -18 10 -27 9 -9 16 -11 16 -5 0 6 3 18 6 27 7 18
-21 23 -32 5z"/>
<path d="M340 2656 c0 -2 7 -6 15 -10 8 -3 15 -1 15 4 0 6 -7 10 -15 10 -8 0
-15 -2 -15 -4z"/>
<path d="M355 1800 c3 -5 8 -10 11 -10 2 0 4 5 4 10 0 6 -5 10 -11 10 -5 0 -7
-4 -4 -10z"/>
<path d="M358 463 c7 -3 16 -2 19 1 4 3 -2 6 -13 5 -11 0 -14 -3 -6 -6z"/>
<path d="M355 440 c-3 -5 1 -10 9 -10 9 0 16 5 16 10 0 6 -4 10 -9 10 -6 0
-13 -4 -16 -10z"/>
<path d="M1905 870 c-3 -5 -1 -10 4 -10 6 0 11 5 11 10 0 6 -2 10 -4 10 -3 0
-8 -4 -11 -10z"/>
<path d="M1878 403 c-5 -36 -3 -51 6 -42 10 10 17 79 8 79 -5 0 -12 -17 -14
-37z"/>
<path d="M1320 2721 c-7 -15 -7 -21 0 -21 12 0 25 28 17 36 -3 3 -10 -4 -17
-15z"/>
<path d="M1362 2720 c0 -14 2 -19 5 -12 2 6 2 18 0 25 -3 6 -5 1 -5 -13z"/>
<path d="M638 2683 c7 -3 16 -2 19 1 4 3 -2 6 -13 5 -11 0 -14 -3 -6 -6z"/>
<path d="M640 2210 c0 -5 5 -10 10 -10 6 0 10 5 10 10 0 6 -4 10 -10 10 -5 0
-10 -4 -10 -10z"/>
<path d="M810 2501 c0 -5 5 -13 10 -16 6 -3 10 -2 10 4 0 5 -4 13 -10 16 -5 3
-10 2 -10 -4z"/>
<path d="M1325 2460 c3 -5 8 -10 11 -10 2 0 4 5 4 10 0 6 -5 10 -11 10 -5 0
-7 -4 -4 -10z"/>
<path d="M700 2440 c0 -5 5 -10 10 -10 6 0 10 5 10 10 0 6 -4 10 -10 10 -5 0
-10 -4 -10 -10z"/>
<path d="M1290 2440 c0 -5 5 -10 11 -10 5 0 7 5 4 10 -3 6 -8 10 -11 10 -2 0
-4 -4 -4 -10z"/>
<path d="M967 2400 c3 -11 9 -20 13 -20 5 0 6 9 3 20 -3 11 -9 20 -13 20 -5 0
-6 -9 -3 -20z"/>
<path d="M1420 2409 c0 -5 5 -7 10 -4 6 3 10 8 10 11 0 2 -4 4 -10 4 -5 0 -10
-5 -10 -11z"/>
<path d="M1260 2380 c0 -5 5 -10 11 -10 5 0 7 5 4 10 -3 6 -8 10 -11 10 -2 0
-4 -4 -4 -10z"/>
<path d="M1420 2379 c0 -5 5 -7 10 -4 6 3 10 8 10 11 0 2 -4 4 -10 4 -5 0 -10
-5 -10 -11z"/>
<path d="M1202 2130 c2 -6 7 -10 12 -8 10 4 36 -58 36 -87 0 -25 51 -131 77
-160 47 -52 50 -50 -70 -50 -62 0 -134 -4 -162 -9 l-50 -8 31 33 c59 65 159
249 135 249 -5 0 -30 -42 -55 -94 -25 -51 -63 -113 -86 -136 -57 -59 -54 -74
13 -66 28 4 61 9 72 12 17 4 20 0 20 -28 0 -27 4 -34 23 -36 17 -3 22 1 22 20
0 13 -5 29 -11 35 -6 6 -7 13 -2 15 16 8 162 -7 173 -18 6 -6 13 -27 15 -45 8
-88 30 -90 30 -3 l-1 66 -51 48 c-56 52 -83 98 -103 170 -7 25 -15 52 -18 60
-3 8 -6 22 -6 30 -1 8 -12 17 -25 18 -14 2 -22 -1 -19 -8z"/>
<path d="M1058 1712 c2 -37 8 -71 13 -76 5 -6 9 -18 9 -28 0 -10 4 -18 8 -18
10 0 10 46 0 56 -5 4 -8 31 -8 59 0 31 -5 57 -13 63 -10 9 -12 -2 -9 -56z"/>
<path d="M1440 1660 c0 -5 5 -10 10 -10 6 0 10 5 10 10 0 6 -4 10 -10 10 -5 0
-10 -4 -10 -10z"/>
<path d="M1441 1563 c1 -34 2 -35 9 -13 11 36 11 50 0 50 -5 0 -10 -17 -9 -37z"/>
<path d="M1410 1490 c0 -11 5 -20 10 -20 6 0 10 9 10 20 0 11 -4 20 -10 20 -5
0 -10 -9 -10 -20z"/>
<path d="M1340 1455 c0 -8 2 -15 4 -15 2 0 6 7 10 15 3 8 1 15 -4 15 -6 0 -10
-7 -10 -15z"/>
<path d="M1407 1343 c-9 -132 -8 -194 2 -168 11 27 21 265 12 265 -5 0 -11
-44 -14 -97z"/>
<path d="M1070 1436 c0 -2 7 -6 15 -10 8 -3 15 -1 15 4 0 6 -7 10 -15 10 -8 0
-15 -2 -15 -4z"/>
<path d="M1306 944 c-3 -9 -6 -29 -6 -45 0 -39 -22 -91 -51 -117 -12 -12 -20
-25 -16 -28 8 -8 41 29 63 70 9 15 18 52 21 82 6 53 1 69 -11 38z"/>
<path d="M256 1044 c-4 -9 -4 -19 -1 -22 2 -3 7 3 11 12 4 9 4 19 1 22 -2 3
-7 -3 -11 -12z"/>
<path d="M1141 686 c-6 -16 -10 -34 -8 -40 6 -17 29 33 24 52 -3 13 -7 10 -16
-12z"/>
<path d="M2080 180 c0 -5 7 -10 15 -10 8 0 15 5 15 10 0 6 -7 10 -15 10 -8 0
-15 -4 -15 -10z"/>
</g>
</svg>
