<?xml version="1.0" standalone="no"?>
<!DOCTYPE svg PUBLIC "-//W3C//DTD SVG 20010904//EN"
 "http://www.w3.org/TR/2001/REC-SVG-20010904/DTD/svg10.dtd">
<svg version="1.0" xmlns="http://www.w3.org/2000/svg"
 width="221.000000pt" height="378.000000pt" viewBox="0 0 221.000000 378.000000"
 preserveAspectRatio="xMidYMid meet">
<metadata>
Created by potrace 1.16, written by Peter Selinger 2001-2019
</metadata>
<g transform="translate(0.000000,378.000000) scale(0.100000,-0.100000)"
fill="#000000" stroke="none">
<path d="M59 3762 c-10 -2 -19 -17 -23 -40 -3 -20 -6 -248 -6 -507 0 -258 -3
-749 -6 -1090 -8 -879 -8 -1355 0 -1362 3 -3 6 10 6 30 0 28 4 37 18 38 14 0
14 2 -3 9 -11 5 -15 9 -8 9 6 1 19 4 28 7 17 7 17 8 -1 -71 -4 -16 -3 -17 4
-5 6 8 13 31 17 50 16 82 26 110 40 110 8 0 15 -7 15 -15 0 -18 16 -20 23 -2
3 7 6 5 6 -5 1 -10 -6 -18 -15 -18 -11 0 -14 -5 -10 -16 3 -8 -1 -31 -9 -51
-18 -42 -12 -55 21 -47 13 3 32 3 41 -1 15 -5 13 -9 -13 -20 -17 -7 -54 -16
-82 -20 -65 -9 -69 -24 -5 -17 65 7 137 34 141 53 2 12 -10 18 -50 25 l-53 10
30 16 c21 12 25 17 13 18 -20 0 -22 8 -9 29 5 7 11 9 14 4 4 -6 35 -3 79 8 84
21 91 22 84 10 -6 -9 40 -21 78 -21 17 0 18 2 6 10 -8 5 -26 10 -40 11 l-25 1
25 8 c14 4 53 5 88 2 43 -3 62 -1 62 7 0 7 -22 11 -57 12 -32 1 -69 4 -83 8
-21 6 -15 9 30 15 50 7 53 9 36 22 -18 12 -14 13 36 11 l56 -2 -3 -78 c-2 -43
-9 -94 -16 -114 -10 -31 -9 -37 11 -55 12 -11 19 -22 16 -25 -3 -3 -13 2 -22
12 -13 12 -27 15 -52 11 -21 -3 -46 1 -63 10 -16 8 -41 14 -56 13 -16 -1 -40
3 -54 9 -26 10 -69 6 -69 -7 1 -19 73 -65 84 -53 12 11 5 21 -21 30 -16 6 -21
11 -12 11 8 1 24 -5 34 -13 14 -10 24 -11 36 -3 12 8 26 6 53 -7 22 -10 71
-19 122 -22 47 -3 95 -9 108 -14 13 -5 29 -4 37 1 8 4 37 6 65 3 33 -4 54 -2
58 5 5 7 -6 11 -34 11 -33 0 -46 5 -62 25 -11 14 -33 32 -49 40 -24 13 -29 22
-29 53 0 26 6 41 20 50 11 7 20 21 20 32 0 11 7 20 16 20 8 0 12 5 9 10 -3 6
-2 10 3 10 6 0 12 -7 16 -15 3 -8 16 -14 28 -14 19 1 20 2 4 6 -15 4 -16 7 -5
14 11 6 11 11 2 20 -6 6 -9 18 -6 25 11 28 29 12 43 -38 15 -51 32 -69 116
-126 16 -10 4 -11 -66 -6 -47 3 -87 8 -89 10 -2 1 1 17 7 33 8 23 8 31 -1 31
-7 0 -6 4 3 10 13 8 12 10 -2 10 -13 0 -18 -8 -18 -27 0 -44 -13 -56 -51 -48
-25 4 -30 3 -19 -4 8 -6 24 -11 35 -11 11 0 27 -5 35 -11 15 -10 -22 -6 -75 8
-16 4 -17 3 -8 -7 6 -7 31 -12 55 -11 121 2 182 0 187 -7 3 -5 14 -12 25 -15
14 -6 17 -3 12 8 -3 8 -1 15 5 15 21 0 -8 30 -50 52 -48 26 -76 58 -85 98 -3
14 -3 19 0 13 8 -18 61 -16 68 2 3 8 11 15 17 15 7 0 5 -8 -6 -20 -17 -18 -17
-20 0 -26 9 -4 47 -1 84 6 102 19 105 17 109 -63 l3 -67 -32 0 c-55 0 -26 -9
46 -15 37 -3 70 -6 71 -8 2 -2 1 -13 -3 -25 -4 -17 -9 -19 -22 -12 -19 9 -46
8 -57 -3 -4 -4 -1 -7 7 -7 11 -1 10 -3 -2 -10 -12 -7 -28 -5 -53 5 -20 9 -41
13 -46 10 -5 -3 -11 -1 -15 5 -3 5 -16 10 -28 9 l-22 0 23 -11 c12 -6 22 -14
22 -18 0 -4 35 -11 78 -15 42 -4 80 -9 84 -11 13 -8 -24 -88 -53 -116 -15 -15
-45 -32 -66 -38 -21 -5 -44 -14 -52 -19 -20 -13 -6 -41 21 -41 21 0 21 0 2 14
-18 14 -17 15 21 30 22 9 53 23 69 31 27 15 28 15 16 0 -12 -14 -11 -18 1 -26
8 -5 21 -7 29 -5 8 3 25 8 38 12 18 5 22 3 22 -16 0 -18 -3 -20 -14 -11 -8 7
-16 8 -19 4 -3 -4 -31 -9 -64 -11 -74 -4 -89 -18 -28 -28 29 -4 50 -3 54 4 3
5 24 9 46 8 l40 -1 1 52 c2 91 7 98 68 109 40 8 61 7 78 -1 13 -7 71 -15 130
-18 69 -4 118 -12 138 -22 32 -17 57 -12 30 6 -32 20 -89 29 -182 29 -80 0
-98 3 -98 15 0 10 -10 15 -30 15 l-31 0 18 25 c13 17 28 24 50 25 17 0 35 5
38 10 3 6 15 10 27 10 16 0 11 -7 -24 -36 l-43 -37 33 7 c18 4 46 14 63 23 29
15 30 16 24 68 l-7 53 46 7 c26 4 60 5 76 1 17 -3 30 -1 30 4 0 6 -17 10 -37
10 -21 0 -49 3 -62 7 -17 4 -22 3 -17 -5 4 -7 1 -12 -8 -12 -17 0 -19 13 -7
45 7 17 18 19 90 20 80 1 82 0 87 -25 2 -14 9 -38 15 -55 24 -66 24 -65 -13
-65 -21 0 -41 7 -52 18 -14 16 -24 18 -67 11 -69 -11 -78 -23 -12 -16 38 4 55
2 63 -9 8 -9 31 -14 65 -14 l53 0 18 -45 c9 -25 14 -49 10 -52 -4 -4 -30 1
-59 11 -40 15 -77 18 -162 17 -60 -1 -111 -4 -114 -6 -2 -3 52 -5 120 -5 69 0
129 -4 135 -10 5 -5 27 -13 49 -18 33 -7 40 -12 41 -32 0 -14 1 -42 2 -63 l2
-37 73 5 c132 9 155 21 94 50 -19 9 -47 28 -64 43 -28 24 -32 36 -38 96 l-7
69 28 -7 c24 -6 26 -5 15 8 -8 9 -22 16 -32 16 -12 0 -19 7 -19 20 0 12 -7 35
-16 52 l-16 30 66 -4 c41 -2 62 0 57 5 -6 6 -35 11 -66 13 -66 4 -75 8 -75 37
1 20 2 20 11 4 6 -10 21 -17 37 -16 l27 1 -25 7 c-15 4 -20 10 -14 14 14 8 73
-10 97 -31 15 -14 17 -13 17 3 0 39 19 -1 21 -45 3 -61 8 -70 33 -70 12 0 26
-4 32 -8 11 -10 85 -32 108 -32 9 0 16 8 16 20 0 23 10 26 28 8 17 -17 15 -28
-5 -22 -16 5 -16 4 1 -10 16 -13 18 -23 11 -63 -4 -26 -7 -58 -6 -71 1 -19 -2
-21 -18 -12 -29 15 -39 12 -17 -5 20 -15 20 -15 0 -16 -14 -1 -13 -3 6 -8 23
-6 25 -12 28 -68 l3 -61 -77 24 c-42 14 -79 22 -82 20 -3 -3 1 -7 9 -10 8 -2
39 -12 69 -21 30 -9 61 -22 68 -27 9 -8 12 -63 12 -214 l0 -204 -147 -2 c-82
-1 -164 -1 -183 0 -19 0 -309 1 -645 0 -335 -1 -729 -1 -875 -2 l-265 0 -6
234 c-4 129 -8 294 -9 365 -3 119 -3 124 -10 58 -4 -53 -5 -580 0 -676 0 -5
235 -5 523 -1 287 4 623 7 747 5 711 -8 881 -8 886 1 3 5 8 474 10 1041 2 568
6 1407 8 1865 l4 832 -56 0 c-31 1 -325 3 -652 6 -998 8 -1414 10 -1431 6z
m166 -22 c110 6 142 6 1134 -4 437 -4 798 -9 803 -12 4 -3 8 -351 8 -773 0
-729 -1 -770 -18 -792 -10 -13 -21 -32 -25 -41 -8 -23 -27 -23 -27 0 -3 99 -7
123 -22 134 -19 16 -34 100 -51 294 l-12 141 52 59 c56 62 64 83 50 127 -13
38 -30 34 -74 -18 l-38 -46 -7 27 c-4 15 -10 69 -14 120 -6 90 -2 108 22 84
16 -16 37 5 26 26 -6 11 -13 27 -16 38 -9 26 -36 3 -29 -24 3 -11 1 -20 -5
-20 -6 0 -13 30 -17 68 -14 147 -34 222 -59 222 -9 0 -13 6 -10 14 7 18 -14
59 -26 51 -5 -3 -11 -1 -15 5 -11 18 -25 11 -25 -13 0 -13 -5 -28 -12 -35 -9
-9 -9 -15 -1 -23 6 -6 9 -18 6 -25 -3 -8 1 -24 10 -37 15 -23 33 -120 41 -217
2 -30 7 -82 10 -115 3 -33 3 -50 0 -39 -3 12 -15 25 -27 28 -12 3 -24 7 -27 8
-3 2 -5 -10 -6 -27 -1 -33 29 -70 51 -62 8 4 15 -3 18 -16 13 -51 19 -118 13
-133 -6 -16 -8 -16 -19 -1 -11 15 -26 9 -147 -49 -113 -55 -138 -64 -154 -54
-10 7 -21 8 -25 3 -3 -4 -13 -8 -21 -8 -8 0 -16 -9 -19 -20 -4 -21 -18 -35
-38 -35 -9 0 -7 15 8 53 26 65 32 72 72 72 28 0 32 3 32 27 1 33 -31 46 -40
17 -4 -10 -11 -19 -16 -19 -12 0 -14 -10 31 124 64 185 100 269 122 284 14 10
18 22 15 40 -3 14 2 36 10 49 17 25 11 53 -11 53 -7 0 -16 9 -19 21 -7 24 -27
16 -27 -10 0 -11 -9 -21 -21 -24 -23 -6 -17 -27 7 -27 21 0 17 -18 -6 -25 -21
-7 -50 -53 -50 -80 0 -31 -63 -175 -76 -175 -8 0 -14 5 -14 10 0 6 5 10 11 10
6 0 9 14 7 32 -4 42 -34 51 -44 14 -3 -14 -12 -26 -20 -26 -8 0 -14 -6 -14
-12 0 -24 19 -43 42 -43 37 0 33 -31 -27 -191 -68 -182 -83 -214 -98 -214 -7
0 -39 -14 -71 -30 -41 -21 -63 -27 -70 -20 -5 5 -15 10 -21 10 -5 0 -4 -4 4
-9 11 -7 9 -10 -7 -15 -12 -4 -26 -22 -32 -41 -12 -36 -39 -53 -52 -33 -15 25
-8 56 17 72 29 19 39 20 29 4 -5 -8 0 -7 11 2 17 14 17 15 1 18 -10 2 -35 -10
-56 -26 -33 -27 -40 -29 -61 -18 -64 33 -96 27 -154 -27 -26 -24 -34 -39 -29
-52 5 -12 1 -23 -12 -33 -18 -14 -18 -14 4 -9 21 5 23 3 26 -35 1 -7 -5 -13
-12 -13 -7 0 -17 -7 -22 -15 -5 -8 -10 -10 -10 -3 0 6 -8 9 -19 6 -11 -3 -27
-1 -36 4 -14 8 -12 12 14 23 37 15 40 30 6 30 -18 0 -25 5 -25 18 0 28 -8 31
-42 14 -29 -14 -30 -16 -13 -29 11 -7 22 -13 27 -13 38 0 -45 -48 -114 -65
-33 -8 -39 7 -40 106 0 51 -6 83 -19 105 -10 18 -22 56 -28 86 -6 29 -22 107
-36 173 -27 129 -31 170 -15 180 5 3 7 20 3 36 -6 29 -4 31 23 27 35 -4 47 26
14 35 -11 3 -20 11 -20 19 0 10 3 9 10 -2 8 -13 10 -12 10 3 0 27 -23 16 -41
-21 l-17 -32 -12 47 c-7 27 -14 75 -16 108 -3 54 -7 87 -29 235 -4 25 -8 59
-9 75 -3 43 -15 72 -31 79 -20 7 -45 -3 -45 -20 0 -10 8 -12 30 -7 23 4 30 2
30 -11 0 -15 -12 -21 -33 -17 -5 1 -6 -3 -2 -9 3 -6 11 -8 16 -5 5 4 9 1 9 -4
0 -6 -7 -11 -16 -11 -13 0 -11 -6 10 -26 28 -28 34 -54 14 -54 -10 0 -9 -3 1
-9 7 -5 11 -13 7 -19 -3 -6 -2 -13 3 -17 6 -3 9 -37 8 -75 -1 -39 1 -70 4 -70
4 0 9 -13 11 -30 4 -24 2 -27 -9 -19 -10 9 -13 8 -13 -5 0 -9 6 -16 14 -16 7
0 16 -10 18 -23 7 -34 -3 -97 -14 -97 -6 0 -8 7 -4 15 3 8 0 15 -7 16 -9 0 -9
2 1 6 14 5 16 23 3 23 -17 0 -19 -28 -5 -55 8 -15 13 -33 12 -39 -1 -6 2 -31
7 -56 7 -40 9 -42 16 -20 6 23 7 23 8 3 1 -12 4 -29 8 -39 4 -12 3 -15 -5 -10
-7 4 -12 1 -12 -8 0 -9 6 -13 14 -10 10 4 12 -2 8 -21 -3 -16 2 -33 13 -45 10
-11 15 -25 12 -32 -2 -7 2 -42 10 -78 8 -36 15 -75 17 -87 1 -12 5 -25 9 -29
3 -4 4 -11 0 -17 -11 -19 -11 -67 1 -66 6 1 18 1 26 0 12 -1 12 -4 -3 -12 -9
-5 -17 -15 -17 -20 0 -6 5 -7 12 -3 7 4 8 3 4 -5 -4 -6 -3 -18 4 -26 9 -11 7
-18 -10 -35 -11 -11 -18 -25 -15 -30 4 -6 2 -10 -2 -10 -16 0 -34 91 -27 138
6 46 -32 238 -86 428 -11 40 -19 87 -18 106 1 19 -3 41 -7 49 -15 23 -23 101
-14 132 10 35 -8 181 -28 219 -7 15 -13 37 -13 50 0 13 -7 34 -16 46 -24 34
-15 64 24 74 17 5 32 13 32 19 0 6 -4 7 -10 4 -5 -3 -10 -1 -10 5 0 16 -59
-21 -65 -41 -3 -9 6 -52 20 -95 14 -43 27 -105 28 -139 1 -33 6 -63 10 -66 5
-3 9 -33 9 -65 0 -69 31 -286 47 -327 18 -45 81 -372 80 -414 0 -21 1 -56 4
-78 2 -24 -1 -46 -9 -56 -8 -8 -20 -33 -27 -55 -10 -30 -23 -44 -57 -62 -44
-22 -68 -56 -50 -67 14 -9 12 -51 -2 -62 -21 -16 -48 -23 -48 -13 0 6 6 10 14
10 20 0 29 17 20 38 -4 9 -6 27 -5 39 1 12 -6 30 -16 41 -10 10 -29 33 -43 51
-30 38 -50 39 -106 4 -31 -20 -46 -38 -54 -63 -12 -43 -13 -70 -1 -70 5 0 12
-11 15 -25 4 -14 12 -25 19 -25 6 0 20 -7 30 -14 18 -14 17 -16 -6 -53 -13
-21 -27 -51 -31 -67 -4 -17 -20 -56 -36 -88 -29 -58 -30 -88 -4 -88 11 0 12 4
3 19 -13 19 -11 26 19 76 11 17 24 47 31 68 7 20 17 37 22 37 5 0 9 10 9 23 0
17 10 26 43 40 58 24 77 23 69 -5 -3 -14 -2 -19 6 -14 7 4 12 13 12 20 0 8 11
21 25 30 14 9 37 36 51 59 15 23 34 49 43 57 10 8 26 42 36 75 26 82 38 95 60
62 10 -16 13 -31 8 -39 -4 -7 -9 -22 -9 -33 -3 -31 -27 -87 -47 -108 -13 -13
-15 -22 -8 -31 15 -18 -11 -98 -52 -158 -20 -30 -12 -39 9 -11 7 10 16 14 21
10 14 -15 -34 -45 -62 -40 -14 3 -25 9 -25 14 0 5 -4 9 -10 9 -5 0 -10 -7 -10
-15 0 -8 6 -15 14 -15 8 0 16 -5 18 -12 3 -9 12 -9 37 0 30 11 32 10 20 -4
-11 -14 -10 -16 6 -14 32 4 41 0 26 -9 -11 -7 -10 -13 8 -32 11 -12 21 -36 21
-52 0 -27 -10 -40 -81 -103 -18 -16 -67 -18 -89 -4 -13 8 -12 10 3 10 9 0 17
7 17 16 0 21 -61 115 -70 109 -9 -6 -32 20 -28 31 5 19 -32 73 -47 68 -8 -4
-15 -1 -15 6 0 6 -4 9 -9 5 -6 -3 -3 -17 6 -34 19 -33 12 -58 -19 -71 -16 -6
-18 -9 -7 -9 21 -1 34 -31 14 -31 -17 0 -17 -2 -9 -24 5 -12 11 -13 27 -5 21
10 21 10 3 -5 -26 -21 -42 -20 -66 4 -30 30 -43 24 -25 -10 13 -25 22 -30 51
-30 21 0 47 8 61 20 35 27 50 25 67 -9 13 -25 13 -31 0 -50 -8 -11 -20 -21
-26 -21 -14 0 -33 -24 -64 -85 -14 -27 -36 -61 -50 -76 -23 -24 -32 -58 -16
-60 4 0 22 -2 41 -4 20 -1 45 4 58 12 16 11 34 13 64 8 29 -5 40 -4 35 4 -4 6
-18 11 -32 11 -13 0 -24 3 -24 8 0 4 21 6 48 4 55 -5 48 14 -8 21 -30 3 -28 4
13 5 53 2 65 21 15 23 -31 2 -31 2 -5 6 25 4 39 23 16 23 -5 0 -8 4 -5 9 8 13
43 2 50 -15 3 -8 12 -14 21 -14 19 0 19 -2 -1 -44 -21 -42 -50 -56 -119 -56
-74 0 -82 -4 -77 -44 7 -59 -16 -138 -58 -200 -26 -38 -43 -78 -51 -117 -11
-55 -14 -59 -39 -59 l-27 0 2 458 c7 1283 16 2340 21 2365 5 26 8 27 42 20 21
-4 77 -6 127 -3z m1660 -420 c0 -8 9 -20 20 -26 11 -5 19 -18 19 -27 -1 -9 2
-17 7 -17 17 0 9 -20 -8 -21 -15 0 -15 -2 2 -9 13 -6 15 -9 5 -9 -13 -1 -13
-2 0 -11 12 -8 12 -10 -5 -11 -15 0 -16 -2 -5 -7 19 -9 25 -42 8 -42 -9 0 -9
-3 2 -10 8 -5 11 -10 5 -10 -5 0 -3 -5 5 -10 13 -9 13 -10 0 -10 -13 0 -13 -1
0 -10 13 -9 13 -10 0 -10 -13 0 -13 -1 0 -10 12 -8 13 -12 2 -19 -11 -6 -10
-10 5 -16 17 -7 17 -8 -2 -15 -17 -7 -17 -9 -2 -9 9 -1 17 -5 17 -11 0 -5 -8
-10 -17 -11 -15 0 -15 -2 2 -9 17 -7 17 -9 3 -9 -24 -1 -23 -17 2 -24 14 -3
20 -14 20 -32 0 -16 -4 -24 -11 -19 -6 3 -9 15 -6 25 3 11 0 19 -7 19 -9 0
-10 -17 -3 -70 11 -77 24 -95 20 -27 -2 38 -1 39 6 12 15 -52 13 -75 -6 -76
-12 -1 -10 -4 7 -9 18 -6 20 -8 7 -9 -16 -1 -18 -10 -16 -75 2 -69 4 -75 25
-80 17 -5 24 -13 24 -31 0 -14 -4 -25 -10 -25 -5 0 -10 9 -10 20 0 11 -7 20
-15 20 -24 0 -18 -26 10 -44 14 -9 23 -21 20 -26 -3 -5 0 -12 7 -16 8 -5 6
-10 -8 -15 -17 -7 -17 -8 -1 -8 13 -1 17 -10 17 -40 0 -22 -5 -42 -12 -44 -7
-3 -4 -6 7 -7 19 -1 19 -2 1 -9 -17 -7 -17 -8 -2 -23 9 -9 17 -25 19 -35 1
-10 6 -24 10 -30 5 -8 3 -13 -7 -13 -20 0 -20 -14 -1 -34 14 -13 13 -16 -5
-26 -16 -9 -20 -7 -24 12 -10 49 -12 88 -4 88 4 0 8 5 8 10 0 6 -7 10 -15 10
-8 0 -15 4 -15 8 0 5 -14 103 -30 218 -17 115 -34 247 -40 294 -5 47 -16 153
-25 235 -9 83 -24 165 -32 182 -8 18 -12 40 -9 49 7 19 41 14 41 -6z m30 0 c3
-5 1 -10 -4 -10 -6 0 -11 5 -11 10 0 6 2 10 4 10 3 0 8 -4 11 -10z m-238 -72
c-3 -8 -6 -5 -6 6 -1 11 2 17 5 13 3 -3 4 -12 1 -19z m38 -18 c3 -5 1 -10 -4
-10 -6 0 -11 5 -11 10 0 6 2 10 4 10 3 0 8 -4 11 -10z m-19 -64 c-2 -34 -16
-64 -16 -35 -1 9 -7 6 -20 -9 -11 -13 -16 -30 -13 -39 5 -13 2 -15 -13 -9 -15
6 -17 5 -6 -5 17 -18 15 -29 -5 -22 -16 6 -17 5 -3 -12 12 -15 12 -17 1 -10
-11 6 -13 4 -8 -8 3 -10 2 -17 -4 -17 -6 0 -7 -4 -4 -10 3 -5 1 -10 -5 -10 -6
0 -9 -4 -6 -9 8 -13 -4 -42 -15 -36 -4 3 -6 -4 -4 -15 5 -26 -4 -52 -16 -45
-4 3 -6 -4 -4 -15 3 -15 -1 -20 -16 -20 -12 0 -19 -5 -16 -12 2 -7 -4 -29 -14
-48 -10 -19 -25 -53 -34 -75 -15 -36 -15 -41 0 -51 11 -8 12 -14 5 -19 -5 -3
-7 -11 -4 -17 5 -8 1 -9 -11 -4 -16 6 -16 4 -4 -11 12 -15 12 -16 -5 -10 -16
6 -17 5 -6 -8 10 -12 9 -15 -6 -16 -11 0 -14 -3 -6 -6 6 -2 12 -9 12 -14 0 -6
-5 -7 -12 -3 -8 5 -9 0 -6 -14 5 -16 2 -22 -10 -22 -12 0 -13 -3 -4 -12 18
-18 15 -25 -10 -24 -15 1 -23 -7 -29 -26 -5 -18 -3 -28 4 -28 6 0 2 -7 -9 -15
-12 -10 -14 -14 -4 -12 8 2 12 2 7 0 -4 -3 -5 -9 -2 -14 4 -5 0 -6 -8 -3 -10
3 -14 -2 -13 -18 1 -13 4 -27 8 -33 3 -6 -5 -11 -19 -11 -19 -2 -23 2 -18 15
4 9 11 31 17 49 5 17 13 32 18 32 5 0 7 6 4 14 -3 7 11 53 30 102 74 188 146
384 202 554 29 87 38 100 70 100 13 0 24 5 24 10 0 6 2 10 3 10 2 0 3 -16 3
-34z m-1146 -216 c0 -5 -2 -10 -4 -10 -3 0 -8 5 -11 10 -3 6 -1 10 4 10 6 0
11 -4 11 -10z m-90 -75 c0 -8 -4 -15 -10 -15 -5 0 -10 7 -10 15 0 8 5 15 10
15 6 0 10 -7 10 -15z m1650 -38 c0 -4 -9 -5 -20 -2 -20 6 -25 -6 -21 -42 1 -8
-5 -10 -15 -6 -12 4 -15 3 -10 -5 4 -7 2 -12 -4 -12 -6 0 -8 -5 -5 -10 3 -6 0
-17 -8 -25 -13 -13 -16 -11 -21 10 -7 27 10 60 53 108 24 26 27 27 38 11 7
-10 13 -22 13 -27z m-120 -107 c0 -11 -2 -20 -4 -20 -2 0 -6 9 -9 20 -3 11 -1
20 4 20 5 0 9 -9 9 -20z m-110 -39 c0 -4 -16 -16 -35 -27 -24 -13 -33 -24 -30
-35 7 -21 -35 -23 -72 -4 -29 15 -25 19 61 56 59 25 76 27 76 10z m40 -12 c0
-5 -4 -8 -9 -5 -14 9 -21 -37 -8 -53 11 -14 10 -14 -7 -1 -18 14 -19 13 -13
-4 6 -16 5 -17 -8 -6 -14 11 -22 7 -55 -28 -22 -23 -40 -45 -41 -49 0 -4 -18
-23 -41 -40 -22 -18 -35 -33 -29 -33 6 0 11 -8 11 -17 0 -15 -2 -16 -10 -3 -9
13 -10 13 -11 0 -1 -8 -1 -19 0 -23 1 -4 -4 -7 -11 -6 -29 3 -35 -2 -30 -26 3
-16 0 -25 -8 -25 -7 0 -10 7 -7 15 4 8 2 17 -4 20 -5 4 -13 -3 -17 -14 -4 -11
-10 -19 -13 -18 -10 3 -36 -28 -32 -39 2 -6 -6 -19 -17 -29 -11 -10 -20 -13
-20 -7 0 6 6 12 13 15 6 2 9 7 6 11 -11 11 -40 -6 -35 -20 3 -8 -6 -21 -19
-30 -14 -9 -25 -22 -25 -30 0 -7 -6 -11 -14 -8 -9 3 -17 -3 -21 -15 -3 -12
-11 -19 -16 -16 -5 4 -9 1 -9 -5 0 -6 -4 -9 -9 -6 -5 3 -12 -5 -15 -19 -4 -14
-11 -25 -17 -25 -6 0 -7 -4 -4 -10 3 -6 -1 -7 -10 -4 -11 5 -14 2 -8 -12 4
-12 3 -15 -5 -10 -11 6 -17 -5 -13 -26 2 -13 -16 -9 -28 5 -8 11 -6 18 9 32
12 10 18 25 16 32 -3 7 -1 15 4 18 4 3 10 0 12 -6 2 -6 74 62 161 152 86 90
157 158 157 151 0 -7 5 -12 10 -12 6 0 10 7 8 15 -3 13 207 223 225 224 4 1 7
-4 7 -10z m10 -39 c0 -5 -2 -10 -4 -10 -3 0 -8 5 -11 10 -3 6 -1 10 4 10 6 0
11 -4 11 -10z m-220 -20 c0 -5 -5 -10 -11 -10 -8 0 -8 -5 1 -15 10 -12 10 -15
-4 -15 -9 0 -15 -3 -15 -7 4 -22 -3 -25 -17 -7 -13 16 -15 16 -10 2 3 -10 1
-20 -4 -23 -6 -4 -10 -1 -10 4 0 6 -4 11 -10 11 -5 0 -7 -7 -4 -15 4 -8 2 -15
-4 -15 -6 0 -12 5 -14 11 -2 5 -11 7 -21 3 -10 -3 -16 -13 -13 -20 4 -10 -1
-11 -17 -5 -34 11 -50 8 -62 -14 -6 -11 -17 -21 -25 -23 -8 -2 -18 -9 -22 -15
-12 -19 -9 -1 4 29 9 19 36 37 98 65 47 22 99 46 115 54 37 17 45 18 45 5z
m153 -39 c-5 -19 -97 -111 -110 -110 -3 0 -10 -5 -14 -13 -6 -9 -9 -9 -9 -1 0
7 16 25 35 40 19 15 35 31 35 36 0 6 59 65 67 67 0 0 -1 -9 -4 -19z m84 -77
c15 -112 15 -144 4 -144 -5 0 -11 12 -13 28 -2 16 -8 26 -16 24 -7 -1 -22 2
-32 8 -26 14 -25 4 3 -37 12 -18 34 -35 49 -38 23 -5 28 -14 38 -57 7 -36 7
-61 0 -83 -6 -18 -10 -37 -9 -41 1 -5 1 -24 0 -41 -1 -33 -1 -33 -53 -33 -30
0 -61 7 -72 15 -13 10 -33 12 -69 8 -50 -6 -50 -6 -35 16 14 20 13 26 -15 82
-35 69 -55 83 -104 74 -34 -6 -31 -3 58 82 52 48 125 120 164 160 38 40 74 72
80 70 5 -2 15 -44 22 -93z m-242 14 c-44 -40 -117 -112 -164 -161 -93 -96 -99
-97 -124 -23 -24 71 -7 96 94 136 46 19 124 53 173 77 49 24 92 43 95 43 3 0
-30 -33 -74 -72z m-416 -65 c-1 -16 -18 -47 -18 -35 -1 6 -6 12 -12 12 -6 0
-8 -7 -5 -16 6 -15 4 -15 -11 -3 -15 12 -16 12 -10 -5 7 -17 6 -17 -10 -5 -15
12 -16 12 -10 -3 8 -22 0 -23 -20 -2 -19 19 -11 28 42 47 49 18 55 19 54 10z
m61 -7 c0 -3 -4 -8 -10 -11 -5 -3 -10 -1 -10 4 0 6 5 11 10 11 6 0 10 -2 10
-4z m-29 -36 c5 0 9 -7 9 -15 0 -8 -4 -15 -9 -15 -11 0 -21 26 -20 48 1 15 2
15 6 0 2 -10 9 -18 14 -18z m-356 1 c-3 -6 -11 -11 -17 -11 -6 0 -6 6 2 15 14
17 26 13 15 -4z m55 -5 c0 -3 -4 -8 -10 -11 -5 -3 -10 -1 -10 4 0 6 5 11 10
11 6 0 10 -2 10 -4z m-46 -33 c3 -7 16 -13 28 -14 22 0 22 -1 3 -9 -18 -7 -17
-9 15 -24 19 -8 30 -15 24 -16 -7 0 -10 -15 -8 -40 2 -22 -1 -40 -6 -40 -6 0
-10 -9 -10 -19 0 -31 -16 -33 -29 -4 -10 21 -9 29 5 44 16 18 16 19 -2 19 -10
0 -28 -7 -38 -15 -26 -20 -33 -19 -46 6 -9 16 -8 23 2 32 7 7 11 11 9 10 -2
-2 -10 10 -18 24 -9 18 -11 29 -4 31 6 2 11 9 11 16 0 17 58 16 64 -1z m321 7
c13 -22 13 -70 0 -70 -8 0 -17 -5 -21 -12 -5 -7 -1 -9 13 -6 12 3 27 2 34 -3
9 -6 2 -9 -23 -9 -34 0 -37 -2 -36 -30 1 -37 -6 -45 -29 -34 -10 4 -27 8 -38
8 -23 1 -29 23 -21 80 6 37 12 45 49 64 48 24 63 26 72 12z m-135 -36 c0 -8
-4 -12 -10 -9 -6 3 -7 -1 -4 -10 4 -8 1 -22 -6 -30 -10 -12 -10 -15 0 -15 9 0
9 -4 2 -13 -12 -14 -11 -28 6 -70 15 -35 15 -67 1 -67 -6 0 -8 -10 -5 -22 3
-13 3 -17 0 -11 -3 8 -15 11 -30 7 -18 -5 -24 -2 -24 9 0 9 -5 19 -11 23 -8 4
-9 -1 -4 -17 7 -23 6 -23 -8 -5 -14 19 -15 19 -21 -2 -4 -12 -12 -20 -17 -17
-5 4 -9 1 -9 -5 0 -6 -5 -8 -10 -5 -11 7 -8 55 5 75 3 5 12 7 18 3 25 -16 33
-9 34 25 1 20 6 38 12 40 6 2 11 29 11 62 0 53 2 59 23 63 41 8 47 7 47 -9z
m-94 -71 c-10 -10 -19 5 -10 18 6 11 8 11 12 0 2 -7 1 -15 -2 -18z m302 -14
c-3 -20 -5 -19 -9 9 -3 20 -2 29 4 23 5 -5 7 -19 5 -32z m42 26 c-7 -9 -15
-13 -17 -11 -7 7 7 26 19 26 6 0 6 -6 -2 -15z m13 -34 c-3 -11 -16 -30 -30
-43 l-26 -23 7 30 c7 28 30 55 47 55 4 0 5 -9 2 -19z m-116 3 c-3 -3 -12 -4
-19 -1 -8 3 -5 6 6 6 11 1 17 -2 13 -5z m-726 -13 c-12 -8 -12 -16 2 -53 21
-54 21 -68 2 -68 -21 0 -19 -37 3 -49 9 -6 12 -11 5 -11 -9 0 -8 -9 3 -35 8
-20 10 -35 4 -35 -5 0 -7 -6 -4 -14 3 -8 1 -23 -5 -33 -9 -15 -10 -12 -11 17
0 19 -5 53 -10 76 -5 22 -12 79 -15 127 -5 85 -5 87 17 87 18 0 20 -2 9 -9z
m1072 -17 c10 -13 20 -43 22 -65 3 -34 1 -42 -16 -46 -24 -7 -25 -20 0 -28 10
-3 22 -13 25 -23 3 -9 9 -22 12 -29 8 -18 -31 -34 -59 -24 -33 13 -45 60 -21
78 16 12 15 13 -9 13 -15 0 -32 9 -41 22 -20 28 -20 58 -1 58 8 0 15 -4 15
-10 0 -5 6 -10 14 -10 12 0 12 4 0 30 -10 18 -20 27 -30 23 -10 -4 -12 0 -8
10 12 33 74 34 97 1z m-836 -5 c33 -10 46 -39 19 -39 -8 0 -16 -5 -18 -11 -2
-7 -29 -3 -77 10 l-74 20 -20 -26 -21 -26 -8 23 c-5 13 -7 24 -6 24 27 15 60
23 80 19 14 -3 28 -1 31 4 8 13 57 14 94 2z m123 -10 c0 -4 -7 -14 -15 -21 -9
-7 -21 -18 -29 -24 -10 -9 -15 -6 -23 16 -9 24 -8 27 7 23 10 -3 20 2 23 11 6
16 37 12 37 -5z m582 -24 c2 -16 12 -44 21 -62 22 -41 22 -43 -7 -43 -13 0
-38 -8 -54 -17 -29 -17 -31 -17 -51 1 -12 11 -21 25 -21 31 0 9 98 120 107
120 1 0 3 -13 5 -30z m-263 -7 c0 -13 -3 -18 -5 -11 -3 7 -12 9 -20 6 -14 -5
-19 8 -7 20 14 15 33 6 32 -15z m40 -5 c-8 -10 -14 -27 -14 -38 1 -18 -11 -34
-26 -35 -4 0 0 20 9 45 9 27 20 45 30 45 13 0 13 -2 1 -17z m749 -10 c7 -7 9
-13 3 -13 -5 0 -13 -16 -17 -35 -12 -64 -44 -39 -44 35 0 35 2 38 23 32 12 -3
28 -12 35 -19z m-1178 -8 c0 -8 7 -15 15 -15 8 0 15 -4 15 -10 0 -14 -23 -12
-45 3 -10 8 -15 19 -11 25 10 17 26 15 26 -3z m-95 -33 c0 -9 7 -17 15 -17 8
0 14 6 13 13 -3 14 -1 14 20 6 13 -5 13 -9 -1 -35 -10 -16 -23 -29 -29 -29 -7
0 -13 -4 -13 -9 0 -16 22 -25 56 -23 30 2 76 -17 129 -54 28 -20 62 -17 145
11 88 30 88 30 65 5 -10 -11 -26 -20 -35 -20 -10 0 -29 -9 -44 -21 -14 -11
-48 -24 -74 -28 -40 -5 -50 -3 -64 14 -17 20 -17 20 -18 -4 0 -16 -4 -21 -14
-18 -24 9 -41 -20 -28 -48 10 -22 9 -24 -16 -24 -15 0 -49 -4 -77 -9 -59 -11
-67 -9 -80 21 -8 17 -17 21 -42 19 -28 -3 -33 0 -39 22 -3 15 -4 35 -1 47 4
16 2 19 -15 13 -31 -9 -12 15 20 27 42 16 152 -26 137 -52 -6 -9 18 -16 68
-18 45 -2 42 14 -5 25 -18 3 -49 17 -69 30 -20 12 -53 26 -73 29 -21 4 -35 12
-33 19 2 6 13 9 23 8 10 -2 39 -6 64 -8 34 -3 40 -2 24 5 -12 5 -25 14 -29 20
-3 6 -11 11 -16 11 -6 0 -7 -5 -3 -11 4 -7 1 -10 -7 -7 -9 3 -15 22 -17 51 -2
37 0 46 11 41 8 -3 20 2 27 11 14 17 25 12 25 -13z m-475 -32 c17 0 18 -3 9
-27 -7 -19 -7 -29 0 -31 19 -6 12 -32 -9 -32 -11 0 -20 -6 -20 -14 0 -7 -8
-16 -17 -19 -10 -2 -26 -8 -35 -12 -14 -5 -18 -2 -18 13 0 12 6 25 13 29 16
11 40 53 33 60 -3 3 -1 14 5 24 12 23 6 24 -27 3 -13 -9 -27 -14 -30 -12 -3 3
11 15 31 26 19 12 36 27 36 34 1 7 4 1 6 -14 3 -19 10 -28 23 -28z m1860 6
c-12 -37 -50 -70 -50 -43 0 8 9 22 20 32 11 10 22 26 26 37 3 11 8 17 11 14 3
-2 0 -21 -7 -40z m-1730 16 c0 -14 -58 -43 -65 -32 -4 7 28 28 63 39 1 1 2 -3
2 -7z m244 -20 c15 -18 15 -20 -4 -37 -19 -17 -20 -17 -30 9 -5 15 -10 32 -10
37 0 15 26 10 44 -9z m1400 -24 c7 -5 6 -8 -4 -8 -13 0 -13 -1 0 -11 13 -9 13
-10 0 -6 -8 2 -16 17 -17 33 -1 16 0 22 4 14 3 -8 11 -18 17 -22z m-1200 7
c-4 -8 -1 -21 5 -29 9 -11 6 -12 -14 -8 -29 5 -30 9 -8 34 20 22 24 23 17 3z
m901 -5 c-3 -5 3 -10 14 -10 28 0 27 -20 -1 -21 l-23 -2 23 -4 c31 -6 28 -23
-5 -24 l-28 -2 28 -4 c21 -3 27 -10 27 -29 0 -20 -5 -24 -30 -24 -16 0 -30 -5
-30 -10 0 -6 11 -8 25 -4 15 4 25 2 25 -5 0 -6 -10 -12 -22 -12 l-23 -2 23 -4
c24 -5 30 -28 10 -36 -8 -3 -6 -6 5 -6 37 -2 14 -19 -43 -31 -59 -13 -89 -8
-60 10 9 6 17 5 22 -3 13 -21 15 -3 8 58 -6 52 -4 63 17 94 13 18 23 44 23 57
0 13 5 24 11 24 5 0 7 -4 4 -10z m-1206 -125 c6 -55 19 -131 30 -170 11 -38
20 -84 20 -102 1 -22 8 -36 22 -43 26 -14 35 -7 14 10 -18 15 -20 50 -3 50 7
0 5 5 -4 13 -10 7 -22 41 -29 77 -6 36 -16 75 -22 87 -17 38 -1 36 22 -2 12
-20 18 -41 15 -46 -3 -6 4 -13 15 -16 20 -5 20 -6 4 -19 -15 -11 -15 -13 -3
-14 13 0 13 -2 1 -9 -20 -13 4 -42 27 -34 15 6 15 5 3 -10 -11 -14 -11 -17 0
-17 9 0 10 -3 3 -8 -15 -10 3 -75 19 -69 13 4 14 20 3 87 l-7 45 20 -25 c11
-14 28 -40 36 -58 16 -31 15 -34 -8 -62 -14 -16 -27 -44 -31 -62 -3 -18 -20
-51 -37 -71 l-32 -38 -17 38 c-10 21 -30 49 -45 63 -35 33 -75 111 -75 150 0
16 -9 64 -21 106 -21 78 -21 98 3 193 15 56 46 92 59 68 4 -7 12 -58 18 -112z
m814 99 c-4 -10 0 -12 13 -7 14 5 16 3 11 -10 -4 -9 -10 -24 -13 -32 -9 -21
13 -19 25 3 9 14 12 15 20 3 7 -11 10 -9 16 8 7 22 16 26 29 14 17 -17 36 -10
36 13 0 17 6 24 20 24 27 0 29 -43 2 -47 -21 -3 -52 -34 -73 -73 -17 -33 -18
-34 -19 -10 -1 23 -2 23 -10 5 -8 -18 -9 -18 -9 5 -1 24 -1 24 -23 -7 -28 -40
-38 -41 -38 -6 0 26 -1 26 -15 7 -8 -10 -15 -14 -15 -7 0 6 -3 19 -6 27 -5 12
-2 15 11 9 16 -5 17 -2 10 23 -12 49 -13 59 -3 71 13 16 38 5 31 -13z m563
-11 c-6 -21 -9 -24 -17 -12 -6 9 -9 10 -9 2 0 -20 -20 -15 -20 5 -1 16 -1 16
-14 -1 -12 -15 -14 -15 -19 -3 -7 18 19 35 43 29 10 -3 21 0 25 7 12 19 18 3
11 -27z m90 5 c5 -8 2 -9 -10 -5 -15 6 -17 3 -12 -18 4 -14 2 -25 -4 -25 -5 0
-9 -3 -9 -7 5 -34 -4 -94 -16 -107 -8 -8 -15 -22 -15 -31 0 -20 -45 -58 -72
-62 -12 -2 -18 3 -18 15 0 10 -5 23 -12 30 -17 17 29 64 54 56 17 -5 23 5 19
29 -1 5 9 5 21 1 21 -6 22 -6 5 19 -13 20 -14 31 -5 58 25 79 27 80 47 69 11
-5 23 -15 27 -22z m-792 6 c3 -8 2 -12 -4 -9 -6 3 -10 10 -10 16 0 14 7 11 14
-7z m477 -35 c-11 -15 -21 -38 -21 -50 0 -21 -1 -22 -20 -4 -25 23 -25 31 0
38 11 3 28 19 37 36 10 17 20 26 22 20 2 -6 -6 -24 -18 -40z m-601 21 c0 -5
-5 -10 -11 -10 -5 0 -7 5 -4 10 3 6 8 10 11 10 2 0 4 -4 4 -10z m-490 -10 c0
-5 -2 -10 -4 -10 -3 0 -8 5 -11 10 -3 6 -1 10 4 10 6 0 11 -4 11 -10z m643
-12 c-2 -5 -11 -8 -18 -8 -8 0 -13 -6 -11 -12 1 -7 1 -10 -1 -5 -3 4 -11 7
-18 7 -16 0 -28 -28 -18 -42 3 -7 1 -8 -5 -4 -7 4 -12 2 -12 -5 0 -9 -3 -9
-14 0 -11 9 -15 9 -19 -1 -2 -7 -8 -10 -12 -6 -7 6 25 38 74 74 16 13 62 14
54 2z m43 -43 c2 -19 6 -40 9 -45 12 -19 77 -43 121 -44 39 -1 46 -4 51 -26 3
-14 10 -31 16 -37 7 -10 4 -13 -11 -13 -12 0 -47 -23 -78 -50 l-57 -50 -17 28
c-10 16 -20 46 -22 68 -5 37 -24 122 -36 154 -4 10 -7 5 -10 -12 -2 -16 -8
-28 -14 -28 -14 0 -2 46 20 75 21 28 24 26 28 -20z m765 31 c5 3 9 0 9 -5 0
-6 -6 -11 -12 -11 -9 0 -8 -4 2 -10 13 -9 13 -11 0 -20 -13 -8 -12 -10 5 -11
11 0 14 -3 8 -6 -7 -2 -13 -9 -13 -14 0 -6 4 -8 9 -4 5 3 12 1 15 -4 7 -11
-22 -23 -35 -15 -5 3 -9 0 -9 -5 0 -6 12 -11 28 -11 26 -1 26 -1 8 -15 -17
-13 -18 -15 -3 -15 23 0 22 -20 0 -21 -15 0 -15 -2 2 -9 17 -7 17 -9 3 -9 -25
-1 -23 -21 2 -21 34 0 22 -15 -14 -17 l-33 -1 -7 72 c-6 66 -2 118 11 156 4
11 7 12 10 2 3 -6 9 -10 14 -6z m87 -218 c1 -111 0 -199 -3 -196 -4 3 -14 84
-24 179 -18 173 -18 174 2 197 11 12 21 22 21 22 1 0 2 -91 4 -202z m-1078
127 c-7 -8 -19 -15 -26 -15 -8 0 -14 -4 -14 -8 0 -5 -12 -14 -27 -21 -23 -11
-25 -10 -13 3 10 13 10 16 -3 16 -8 0 -18 -7 -21 -16 -6 -15 -8 -15 -27 2 -12
11 -23 18 -25 17 -2 -2 -5 0 -6 5 -2 4 26 10 61 14 35 4 66 10 69 13 3 3 14 5
25 5 16 0 17 -3 7 -15z m60 5 c0 -5 -2 -10 -4 -10 -3 0 -8 5 -11 10 -3 6 -1
10 4 10 6 0 11 -4 11 -10z m760 5 c0 -1 -13 -14 -30 -30 l-30 -29 0 30 c0 27
3 31 30 31 17 0 30 -1 30 -2z m-376 -33 c3 -9 11 -25 18 -35 11 -14 10 -19 -2
-27 -20 -12 -27 -3 -38 47 -7 32 -7 40 3 37 7 -3 16 -13 19 -22z m-404 8 c0
-5 -2 -10 -4 -10 -3 0 -8 5 -11 10 -3 6 -1 10 4 10 6 0 11 -4 11 -10z m163
-30 c-7 -8 -22 24 -16 34 4 5 10 1 13 -10 4 -10 6 -21 3 -24z m-196 -22 c-3
-8 -6 -5 -6 6 -1 11 2 17 5 13 3 -3 4 -12 1 -19z m962 -238 c7 -47 18 -137 26
-200 17 -144 21 -153 51 -146 l24 6 0 -135 0 -135 -47 -1 c-58 -1 -96 1 -103
7 -2 3 -7 35 -11 73 -3 37 -13 82 -22 101 -11 22 -17 58 -17 105 0 59 4 75 20
90 27 25 27 93 0 128 -21 26 -70 150 -70 175 0 13 62 124 97 172 17 24 17 24
29 -65 6 -50 17 -128 23 -175z m-859 240 c0 -5 -4 -10 -10 -10 -5 0 -10 5 -10
10 0 6 5 10 10 10 6 0 10 -4 10 -10z m-56 -55 c-9 -28 -16 -55 -17 -62 0 -10
-27 -29 -27 -20 0 6 42 122 47 130 13 21 11 -3 -3 -48z m674 1 c2 -26 7 -44
13 -41 32 20 -11 -75 -61 -133 -22 -27 -40 -56 -40 -64 0 -9 -12 -26 -27 -38
-16 -12 -28 -26 -28 -31 0 -5 -7 -14 -15 -19 -12 -8 -12 -10 5 -11 15 0 11 -5
-15 -17 -24 -12 -34 -23 -32 -34 2 -10 -1 -18 -7 -18 -23 0 -9 57 33 134 45
82 75 171 62 184 -12 11 -26 -21 -26 -59 0 -26 -13 -55 -45 -103 -51 -76 -62
-108 -48 -139 19 -46 -8 -73 -47 -46 -12 8 -10 9 8 4 12 -3 22 -2 22 3 0 12
-78 42 -109 42 -22 0 -23 3 -17 43 3 23 12 69 20 102 7 34 10 64 5 70 -5 5 -9
24 -9 42 0 17 -5 44 -12 58 -10 22 -9 29 8 45 23 23 138 44 165 30 10 -6 34
-10 54 -10 28 0 38 5 42 19 5 18 63 42 88 37 6 -2 11 -24 13 -50z m-1002 22
c49 5 94 11 99 12 33 8 45 -1 45 -33 0 -28 -13 -45 -105 -131 -59 -54 -109
-96 -112 -92 -4 3 -1 6 5 6 7 0 12 5 12 11 0 6 9 22 19 35 25 32 21 91 -9 133
-26 38 -39 35 -14 -3 9 -15 14 -29 11 -32 -6 -6 -57 58 -57 71 0 5 -8 17 -17
28 -18 20 -18 20 8 3 23 -15 39 -16 115 -8z m471 -10 c-3 -7 -5 -2 -5 12 0 14
2 19 5 13 2 -7 2 -19 0 -25z m373 14 c0 -10 -7 -12 -22 -8 -13 3 -31 6 -40 6
-10 0 -18 4 -18 9 0 6 18 9 40 8 27 -1 40 -6 40 -15z m-596 -16 c-3 -9 -11
-13 -17 -9 -6 4 -8 0 -4 -9 3 -10 0 -15 -11 -14 -9 0 -21 -9 -27 -21 -5 -13
-13 -23 -18 -23 -4 0 -5 -5 -1 -12 5 -8 2 -9 -9 -5 -10 3 -17 2 -17 -3 0 -6
-9 -10 -19 -10 -21 0 -31 -19 -31 -56 0 -13 -4 -25 -10 -25 -5 -1 -16 -2 -22
-3 -7 -1 -12 -9 -12 -17 1 -9 -8 -22 -20 -29 -20 -12 -20 -12 -6 5 14 17 14
17 -7 5 -18 -11 -20 -17 -10 -29 10 -12 8 -13 -13 -6 -22 7 -23 6 -12 -8 12
-14 10 -17 -12 -23 -14 -3 -26 -13 -26 -21 0 -9 -6 -13 -14 -10 -11 4 -13 1
-9 -11 6 -15 5 -16 -13 -2 -17 14 -18 14 -6 -2 14 -18 7 -43 -9 -33 -5 4 -9 0
-9 -7 -1 -16 -46 -68 -60 -68 -16 0 -12 11 12 37 21 23 13 34 -10 11 -6 -6
-14 -9 -17 -6 -9 9 136 158 152 158 8 0 12 4 9 9 -6 8 108 121 203 201 77 65
88 70 75 36z m161 -6 c3 -5 1 -10 -4 -10 -6 0 -11 5 -11 10 0 6 2 10 4 10 3 0
8 -4 11 -10z m-115 -10 c0 -5 -5 -10 -11 -10 -5 0 -7 5 -4 10 3 6 8 10 11 10
2 0 4 -4 4 -10z m57 -10 c-1 -11 -5 -20 -9 -20 -10 0 -10 4 -2 24 8 22 13 20
11 -4z m120 -12 c-3 -8 -6 -5 -6 6 -1 11 2 17 5 13 3 -3 4 -12 1 -19z m-42
-36 c3 -16 1 -39 -4 -53 l-10 -24 -1 25 c-1 14 -3 40 -5 57 -3 39 11 35 20 -5z
m24 11 c0 -25 -1 -26 -9 -8 -12 27 -12 35 0 35 6 0 10 -12 9 -27z m28 -51 c-1
-33 -10 -68 -20 -82 -18 -25 -14 -69 8 -82 14 -9 -4 -123 -30 -184 -8 -20 -15
-44 -14 -53 0 -12 2 -11 9 4 7 17 9 15 9 -12 1 -46 -8 -63 -34 -63 -42 0 -55
11 -55 45 0 49 9 68 26 54 17 -14 17 -7 5 58 -5 26 -12 78 -16 116 -5 66 -5
67 19 67 26 0 48 21 28 28 -21 7 -13 20 8 15 18 -5 20 0 20 46 0 37 4 53 15
57 8 4 15 15 15 25 0 10 2 19 5 19 3 0 4 -26 2 -58z m136 15 c8 -22 -13 -108
-25 -101 -7 5 -9 -2 -4 -21 6 -25 5 -27 -8 -16 -13 11 -16 11 -16 1 0 -9 -10
-11 -31 -6 -22 4 -29 2 -27 -7 3 -6 17 -13 32 -15 20 -3 26 -8 22 -19 -4 -10
-2 -14 6 -10 52 19 61 19 54 2 -3 -9 -9 -35 -13 -58 -4 -26 -22 -63 -47 -97
-23 -30 -46 -64 -52 -75 -13 -25 -37 -136 -32 -151 1 -5 -8 -33 -21 -62 -16
-35 -30 -52 -43 -52 -27 0 -23 45 13 131 22 52 32 95 35 144 2 39 11 103 21
143 15 63 20 72 40 72 13 0 23 5 23 10 0 6 -11 10 -25 10 -14 0 -29 8 -35 21
-14 26 -5 69 15 69 8 0 15 9 15 20 0 13 10 24 24 30 14 5 30 18 36 30 12 23
35 27 43 7z m419 -19 c-8 -8 -9 -4 -5 13 4 13 8 18 11 10 2 -7 -1 -18 -6 -23z
m258 7 c5 3 10 2 10 -4 0 -5 -8 -12 -17 -14 -13 -3 -11 -5 6 -6 22 -1 23 -2 8
-13 -21 -17 -19 -89 3 -85 8 1 15 -7 17 -18 1 -11 0 -14 -3 -7 -11 24 -24 11
-24 -25 0 -62 -16 -24 -29 67 -15 115 -15 126 4 110 8 -6 19 -9 25 -5z m-780
-10 c-7 -9 -15 -13 -17 -11 -7 7 7 26 19 26 6 0 6 -6 -2 -15z m-226 -23 c-19
-5 -18 -18 2 -26 12 -5 13 -8 2 -20 -7 -8 -17 -11 -23 -8 -5 3 -4 -2 4 -11 8
-11 9 -17 3 -17 -24 0 -32 37 -17 74 13 30 18 34 29 24 12 -11 12 -13 0 -16z
m61 18 c3 -5 1 -10 -4 -10 -6 0 -11 5 -11 10 0 6 2 10 4 10 3 0 8 -4 11 -10z
m-100 -10 c-3 -5 -11 -10 -16 -10 -6 0 -7 5 -4 10 3 6 11 10 16 10 6 0 7 -4 4
-10z m-41 -67 c9 -32 21 -78 25 -103 7 -38 9 -40 11 -15 2 30 2 29 11 -7 8
-33 5 -40 -23 -72 -17 -20 -40 -36 -49 -36 -10 0 -21 -4 -24 -10 -18 -30 -25
2 -25 122 0 121 2 134 22 155 12 13 24 23 28 23 4 0 14 -26 24 -57z m825 -103
c-8 -6 -8 -9 0 -14 20 -13 11 -156 -10 -156 -4 0 -20 11 -35 25 -26 25 -49 36
-26 13 16 -16 -3 -48 -28 -48 -13 0 -20 7 -20 19 0 13 -8 21 -22 23 -54 7 -15
101 98 233 l25 30 -7 -50 c-3 -27 -10 -54 -14 -59 -5 -5 -6 -15 -3 -22 3 -8 0
-14 -7 -14 -10 0 -10 -3 -1 -14 9 -11 8 -17 -4 -29 -19 -19 -19 -27 -1 -27 8
0 17 13 21 29 5 22 11 28 23 24 13 -4 14 -3 3 5 -11 8 -11 22 -1 80 6 39 9 76
5 82 -3 5 -3 16 2 23 5 7 9 -22 11 -67 2 -52 -1 -82 -9 -86z m-704 110 c3 -5
1 -10 -4 -10 -6 0 -11 5 -11 10 0 6 2 10 4 10 3 0 8 -4 11 -10z m55 -14 c0
-19 -4 -23 -19 -19 -18 5 -18 6 -3 23 22 24 22 24 22 -4z m244 8 c3 -8 2 -12
-4 -9 -6 3 -10 10 -10 16 0 14 7 11 14 -7z m-892 -47 c57 -66 67 -92 37 -100
-16 -4 -19 -3 -10 6 16 16 14 27 -4 21 -11 -5 -13 -2 -9 10 4 11 2 16 -7 14
-8 -2 -13 3 -11 10 1 7 -4 20 -13 28 -8 9 -15 11 -15 5 0 -6 -5 -11 -11 -11
-6 0 -8 9 -4 20 4 14 2 20 -8 20 -15 0 -28 -74 -27 -153 1 -38 -15 -71 -30
-62 -4 2 1 40 10 84 12 55 14 83 6 91 -7 7 -7 10 1 10 6 0 9 9 6 20 -4 14 1
22 18 29 13 5 24 10 25 10 0 1 21 -23 46 -52z m386 -79 c-3 -97 -7 -133 -17
-136 -9 -3 -11 2 -8 14 3 11 8 40 12 67 8 59 -10 64 -19 5 -7 -42 -21 -68 -37
-68 -13 0 -11 28 2 32 6 2 19 39 30 83 21 91 23 109 9 100 -5 -3 -10 -16 -10
-28 0 -12 -6 -34 -14 -49 -8 -15 -21 -52 -30 -82 -10 -35 -26 -63 -44 -77
l-27 -22 33 6 34 7 -52 -98 c-29 -53 -63 -109 -76 -123 -14 -14 -27 -36 -29
-50 -3 -13 -14 -48 -26 -76 -17 -43 -26 -53 -45 -53 -49 0 -40 118 13 187 17
21 38 65 48 98 9 33 20 71 24 85 5 17 17 27 37 31 27 6 27 7 4 8 -25 2 -60 22
-60 36 0 9 233 234 243 235 5 0 7 -59 5 -132z m190 75 c-10 -13 -8 -14 12 -11
24 3 25 1 33 -86 7 -72 6 -99 -7 -139 -9 -27 -16 -79 -16 -116 0 -36 -4 -60
-8 -54 -5 7 -7 28 -6 45 2 18 -3 56 -11 83 -22 78 -27 162 -11 168 11 4 11 14
3 44 -11 43 -3 98 14 88 6 -5 6 -12 -3 -22z m765 -95 c-10 -40 -11 -37 -11 42
0 79 1 82 11 43 7 -29 7 -57 0 -85z m-1559 96 c11 -4 13 -10 8 -18 -5 -6 -12
-23 -16 -38 -7 -30 -82 -108 -103 -108 -7 0 -20 -11 -29 -25 -18 -28 -64 -35
-64 -10 0 8 6 15 14 15 7 0 19 7 26 15 7 8 16 12 21 9 5 -3 8 0 7 8 -2 7 7 14
20 16 12 2 20 8 17 13 -4 5 -2 9 4 9 13 0 52 38 75 74 15 23 16 30 5 37 -16
10 -8 12 15 3z m186 -55 c0 -6 -4 -7 -10 -4 -5 3 -10 11 -10 16 0 6 5 7 10 4
6 -3 10 -11 10 -16z m1435 -9 c8 0 17 -4 20 -10 4 -6 -5 -10 -19 -10 -21 0
-26 5 -25 23 0 12 3 16 6 10 2 -7 11 -13 18 -13z m-1685 -3 c0 -2 -10 -12 -21
-23 -22 -19 -22 -19 -8 4 12 19 29 30 29 19z m265 -17 c3 -5 1 -10 -4 -10 -6
0 -11 5 -11 10 0 6 2 10 4 10 3 0 8 -4 11 -10z m1445 -19 c0 -5 -11 -11 -25
-13 -28 -6 -35 8 -7 15 28 8 32 7 32 -2z m-1440 -20 c0 -14 -5 -18 -20 -14
-23 6 -26 19 -7 26 22 9 27 7 27 -12z m70 9 c0 -5 -5 -10 -11 -10 -5 0 -7 5
-4 10 3 6 8 10 11 10 2 0 4 -4 4 -10z m1370 -19 c0 -5 -11 -11 -25 -13 -28 -6
-35 8 -7 15 28 8 32 7 32 -2z m-1384 -27 c-8 -20 20 -54 45 -54 9 0 19 5 21
12 3 7 10 8 17 4 14 -9 12 -29 -9 -131 -17 -81 -30 -91 -30 -25 0 53 -1 55
-61 114 l-61 59 23 18 c31 24 64 25 55 3z m494 -22 c0 -15 5 -43 11 -62 5 -19
14 -78 19 -130 6 -52 13 -109 16 -126 6 -31 5 -32 -30 -31 -32 1 -38 5 -57 46
-17 35 -20 57 -16 98 5 43 1 61 -23 110 -28 58 -30 73 -6 73 7 0 23 11 36 25
31 33 50 32 50 -3z m407 12 c-3 -3 -12 -4 -19 -1 -8 3 -5 6 6 6 11 1 17 -2 13
-5z m-32 -14 c11 -5 14 -9 8 -9 -32 -2 -8 -19 33 -26 31 -4 43 -10 36 -17 -7
-7 -16 -6 -30 1 -25 13 -45 14 -38 2 3 -4 20 -11 37 -15 l32 -6 -7 -87 c-3
-48 -8 -89 -10 -91 -3 -2 -15 2 -28 9 -38 22 -110 37 -145 32 -32 -5 -33 -4
-33 27 0 27 2 30 14 21 12 -10 16 -5 26 26 7 21 19 49 28 62 11 19 12 26 3 29
-8 3 -5 12 10 28 24 26 33 27 64 14z m676 -64 c18 -12 18 -14 3 -20 -23 -9
-26 -4 -29 46 -1 24 0 31 2 16 2 -15 13 -34 24 -42z m-1600 17 c61 -57 76 -84
80 -144 2 -33 -3 -55 -19 -81 -12 -19 -22 -47 -22 -62 0 -23 -4 -26 -34 -26
-18 0 -39 7 -46 15 -18 22 -35 19 -74 -15 -43 -38 -236 -107 -236 -84 0 10 84
149 96 159 7 6 26 52 43 103 40 120 45 128 85 142 19 6 40 18 46 26 19 21 26
18 81 -33z m379 -12 c0 -6 -6 -25 -14 -43 -63 -145 -65 -166 -22 -186 28 -12
66 8 67 36 0 9 9 37 20 62 l20 45 -5 -90 c-4 -85 -6 -91 -34 -115 -26 -21 -42
-26 -94 -27 l-64 -1 -12 76 -12 76 41 81 c53 102 76 129 95 110 8 -7 14 -18
14 -24z m1020 -34 c0 -49 5 -80 15 -95 9 -12 20 -62 26 -114 5 -51 15 -106 21
-121 9 -23 8 -30 -8 -42 -10 -7 -22 -11 -25 -9 -3 2 -12 32 -19 66 -6 34 -25
88 -42 120 -18 34 -28 68 -26 85 3 26 4 25 20 -17 15 -41 16 -43 17 -15 1 19
-9 39 -28 60 -35 36 -56 102 -39 122 6 7 21 13 34 13 13 0 24 5 24 10 0 6 7
10 15 10 12 0 15 -15 15 -73z m-330 28 c0 -38 0 -38 24 -29 9 3 13 11 9 18 -4
6 1 5 10 -3 23 -18 22 -31 -2 -31 -11 0 -23 -4 -26 -10 -8 -13 11 -13 36 0 16
9 19 7 19 -15 0 -29 -10 -35 -66 -38 -39 -3 -39 -3 -48 -57 -5 -30 -11 -46
-14 -36 -7 31 9 186 19 186 5 0 9 -9 9 -20 0 -11 5 -20 10 -20 14 0 12 64 -2
78 -9 9 -8 12 5 12 13 0 17 -9 17 -35z m114 3 c17 -12 56 -9 56 3 0 6 10 9 21
7 24 -3 40 -45 60 -148 6 -30 21 -75 35 -99 31 -56 31 -75 2 -65 -13 4 -31 13
-42 20 -13 9 -26 10 -43 3 -51 -19 -61 -13 -68 43 -6 42 -4 54 9 63 24 18 20
45 -19 121 -19 38 -34 74 -34 79 0 6 3 3 6 -5 3 -8 11 -18 17 -22z m-769 -35
c-11 -37 -12 -49 -2 -55 8 -5 7 -8 -5 -8 -11 0 -15 -7 -13 -25 1 -17 -3 -25
-14 -25 -14 0 -14 -2 -1 -10 9 -6 10 -10 3 -10 -6 0 -10 -9 -8 -20 5 -27 -12
-35 -24 -11 -8 14 -4 41 19 110 33 103 38 114 50 106 5 -3 3 -27 -5 -52z
m-629 -48 c-17 -49 -37 -96 -44 -104 -7 -7 -22 -32 -34 -55 -38 -75 -57 -96
-89 -96 -17 0 -32 6 -35 15 -9 22 14 70 49 108 49 52 80 97 68 97 -13 0 -15
69 -2 102 8 21 15 24 63 24 l54 -1 -30 -90z m1400 13 c30 -59 31 -87 3 -85
-19 1 -19 2 -3 14 17 12 17 13 -2 14 -10 0 -13 3 -6 6 6 2 12 9 12 15 0 6 -7
7 -16 4 -11 -4 -14 -1 -12 12 3 9 -4 34 -14 54 -39 81 -5 49 38 -34z m-363 57
c-3 -9 -8 -14 -10 -11 -3 3 -2 9 2 15 9 16 15 13 8 -4z m-347 -121 c-4 -20
-10 -34 -13 -30 -3 3 -2 21 1 42 4 20 10 34 13 30 3 -3 2 -21 -1 -42z m189 7
c-3 -2 0 -10 6 -18 9 -10 7 -13 -7 -14 -11 0 -14 -3 -6 -6 6 -2 12 -9 12 -14
0 -6 -5 -7 -12 -3 -8 5 -9 2 -5 -9 4 -10 1 -17 -6 -18 -7 0 -8 -2 -1 -5 6 -2
9 -18 6 -34 -2 -16 3 -38 12 -52 17 -24 21 -73 7 -82 -5 -4 -17 -3 -26 0 -13
5 -15 14 -11 39 4 18 0 50 -9 75 -12 35 -13 54 -4 106 10 58 12 62 29 51 11
-6 17 -13 15 -16z m490 -22 c6 -24 4 -26 -26 -27 -17 0 -37 -6 -42 -11 -13
-13 -27 -14 -27 -2 0 5 19 16 43 24 26 10 34 16 22 17 l-20 1 20 9 c14 7 9 8
-17 4 -47 -8 -50 2 -5 14 37 11 43 7 52 -29z m-48 -5 c-3 -3 -12 -4 -19 -1 -8
3 -5 6 6 6 11 1 17 -2 13 -5z m-189 -26 l24 -8 -29 -39 c-15 -21 -46 -59 -68
-84 -85 -98 -85 -97 -85 -142 0 -33 -8 -54 -35 -91 -65 -89 -75 -109 -82 -147
-6 -39 -29 -57 -71 -57 -12 0 -13 3 -4 12 7 7 12 19 12 27 0 9 25 80 55 159
29 79 61 169 70 200 20 67 58 145 85 172 14 14 28 17 62 13 23 -3 53 -10 66
-15z m-425 -117 c-15 -23 -97 -63 -123 -59 -19 3 -15 8 29 41 46 35 51 43 57
89 l7 51 20 -53 c14 -38 17 -58 10 -69z m633 104 c-11 -8 -25 -15 -30 -15 -6
1 0 7 14 15 32 19 40 18 16 0z m58 -50 c11 -89 17 -109 47 -170 49 -99 64
-288 21 -261 -5 3 -12 24 -16 47 -4 23 -23 71 -42 108 -30 56 -35 73 -30 110
5 35 3 42 -9 38 -9 -4 -24 11 -45 47 -38 67 -39 96 -5 96 14 0 25 4 25 8 0 7
42 32 46 28 1 0 5 -23 8 -51z m-955 -11 c1 -21 -41 -49 -53 -37 -12 12 -5 41
16 68 20 26 22 26 29 9 4 -10 8 -28 8 -40z m764 28 c15 -16 15 -23 2 -71 -7
-29 -21 -64 -31 -79 -10 -15 -25 -52 -35 -82 -26 -86 -72 -101 -50 -16 6 25
11 63 11 85 0 43 23 122 46 159 17 27 35 28 57 4z m82 -77 c19 -39 26 -65 19
-65 -6 0 -14 9 -17 20 -5 20 -27 28 -27 10 0 -5 -12 -10 -26 -10 -34 0 -26 22
10 26 16 2 31 6 35 10 3 4 -6 4 -21 0 -15 -3 -30 -1 -33 5 -7 11 13 69 24 69
3 0 20 -30 36 -65z m175 -6 c0 -6 6 -9 14 -6 20 8 81 -10 96 -28 11 -13 8 -13
-23 0 -20 8 -55 15 -77 15 -37 0 -49 8 -33 23 10 11 23 8 23 -4z m-665 -9 c-3
-5 1 -10 9 -10 12 0 16 -10 16 -40 0 -29 5 -42 20 -50 23 -12 27 -50 6 -50 -7
0 -28 -3 -45 -6 l-31 -7 1 47 c1 25 5 46 9 46 4 0 5 14 2 30 -2 17 -8 30 -13
30 -5 0 -9 5 -9 10 0 6 9 10 21 10 11 0 17 -4 14 -10z m1023 -7 c-10 -2 -28
-2 -40 0 -13 2 -5 4 17 4 22 1 32 -1 23 -4z m-728 -17 c0 -7 -11 -16 -25 -18
-27 -6 -32 1 -13 20 16 16 38 15 38 -2z m740 -6 c0 -5 -5 -12 -11 -16 -8 -4
-7 -9 2 -16 9 -6 -6 -8 -44 -5 -32 2 -52 0 -45 -4 7 -5 32 -9 55 -9 23 0 45
-5 49 -11 5 -9 -1 -10 -20 -5 -18 4 -25 3 -21 -4 3 -5 12 -10 20 -10 16 0 26
-25 19 -44 -6 -16 -38 -10 -55 10 -6 8 -15 14 -20 14 -5 0 0 -9 11 -20 28 -28
26 -48 -5 -42 -14 2 -28 8 -31 13 -3 5 -13 9 -23 9 -10 0 -28 11 -41 25 -23
24 -16 37 8 13 8 -8 15 -8 26 1 8 7 21 9 28 5 7 -4 1 8 -14 28 -38 49 -36 57
12 48 22 -4 40 -3 40 1 0 5 -12 9 -27 9 -16 0 -35 5 -43 10 -10 6 9 9 58 9 39
0 72 -4 72 -9z m-752 -74 c-2 -25 -9 -41 -18 -43 -13 -4 -13 -3 0 6 12 8 8 11
-18 11 -22 0 -31 -4 -26 -11 4 -7 1 -10 -7 -7 -21 7 -22 34 -3 62 12 20 24 26
46 24 27 -2 29 -5 26 -42z m-784 -50 c1 -36 5 -43 35 -57 35 -16 56 -43 46
-59 -3 -5 -29 -6 -58 -3 -37 4 -59 13 -74 30 -28 29 -28 35 -4 53 16 11 18 17
9 33 -8 16 -7 23 5 32 11 7 14 20 10 36 l-5 24 18 -24 c9 -13 18 -42 18 -65z
m26 74 c-8 -5 -19 -10 -25 -10 -5 0 -3 5 5 10 8 5 20 10 25 10 6 0 3 -5 -5
-10z m550 -10 c0 -5 -2 -10 -4 -10 -3 0 -8 5 -11 10 -3 6 -1 10 4 10 6 0 11
-4 11 -10z m187 -94 c-2 -6 -20 -12 -40 -14 -24 -2 -37 -8 -37 -18 0 -8 -5
-14 -11 -14 -6 0 -9 3 -7 8 28 57 29 58 64 54 20 -3 33 -9 31 -16z m-210 8
c-3 -3 -12 -4 -19 -1 -8 3 -5 6 6 6 11 1 17 -2 13 -5z m-27 -74 c0 -5 -6 -10
-14 -10 -8 0 -18 5 -21 10 -3 6 3 10 14 10 12 0 21 -4 21 -10z m150 -18 c0
-14 -23 -32 -42 -32 -21 0 -23 11 -6 28 13 13 48 16 48 4z m553 -123 c12 -11
32 -25 45 -30 12 -5 22 -13 22 -19 0 -7 -6 -8 -19 0 -24 12 -53 9 -74 -8 -11
-10 -17 -10 -22 -1 -4 6 -4 14 1 18 16 11 15 31 -1 31 -13 0 -14 3 -3 15 18
19 25 19 51 -6z"/>
<path d="M1030 3672 c0 -6 6 -15 13 -19 7 -4 25 -24 40 -44 20 -27 24 -38 15
-47 -9 -9 -3 -12 27 -12 24 0 35 3 27 8 -16 11 9 76 35 91 21 11 17 18 -17 23
-19 2 -24 -1 -22 -14 2 -10 -2 -27 -8 -39 -11 -20 -12 -20 -31 -3 -11 10 -18
26 -16 36 3 10 0 18 -6 18 -7 0 -22 3 -34 6 -14 4 -23 2 -23 -4z"/>
<path d="M290 3606 c0 -14 5 -28 10 -31 18 -11 10 -24 -17 -27 -18 -2 -29 -10
-31 -22 -3 -16 0 -18 25 -12 15 4 34 7 41 8 6 1 12 5 12 10 0 4 9 8 20 8 11 0
20 2 20 4 0 2 3 13 6 23 5 17 5 17 -6 0 -12 -19 -35 -13 -23 6 4 7 -1 5 -12
-3 -17 -14 -17 -13 -10 10 7 22 6 23 -9 11 -14 -12 -16 -11 -16 3 0 9 5 16 11
16 5 0 7 5 4 10 -11 18 -25 10 -25 -14z m5 -76 c-3 -5 -13 -10 -21 -10 -8 0
-12 5 -9 10 3 6 13 10 21 10 8 0 12 -4 9 -10z"/>
<path d="M245 3318 c4 -12 14 -31 23 -41 14 -16 14 -19 -4 -31 -11 -8 -15 -18
-10 -23 5 -4 11 -2 13 5 3 6 9 12 14 12 6 0 7 -5 3 -12 -5 -8 -2 -9 9 -5 18 7
24 -8 7 -18 -18 -11 -11 -22 13 -21 14 1 21 7 18 16 -2 8 -4 29 -5 45 -1 17
-6 29 -13 28 -6 -2 -14 6 -18 16 -3 11 -17 27 -31 36 -25 16 -26 16 -19 -7z
m35 -24 c0 -8 -4 -12 -10 -9 -5 3 -10 10 -10 16 0 5 5 9 10 9 6 0 10 -7 10
-16z"/>
<path d="M528 2383 c-10 -2 -18 -9 -18 -14 0 -14 16 -11 30 6 7 8 11 14 9 14
-2 -1 -12 -3 -21 -6z"/>
<path d="M505 2190 c-3 -5 1 -10 9 -10 9 0 16 5 16 10 0 6 -4 10 -9 10 -6 0
-13 -4 -16 -10z"/>
<path d="M296 1882 c-7 -12 13 -62 26 -62 11 0 10 2 -6 40 -7 18 -16 28 -20
22z"/>
<path d="M932 2358 c-14 -14 -16 -28 -3 -28 9 0 24 30 18 36 -2 2 -9 -2 -15
-8z"/>
<path d="M917 2284 c-4 -4 -4 -10 -1 -15 6 -10 34 0 34 12 0 10 -24 12 -33 3z"/>
<path d="M1612 2208 c3 -7 13 -15 22 -16 12 -3 17 1 14 10 -3 7 -13 15 -22 16
-12 3 -17 -1 -14 -10z"/>
<path d="M1582 2138 c5 -15 28 -18 29 -3 0 6 -7 12 -17 13 -10 3 -15 -1 -12
-10z"/>
<path d="M1778 1383 c7 -3 16 -2 19 1 4 3 -2 6 -13 5 -11 0 -14 -3 -6 -6z"/>
<path d="M685 1141 c-3 -5 -1 -12 5 -16 5 -3 10 1 10 9 0 18 -6 21 -15 7z"/>
<path d="M1490 1280 c8 -5 20 -10 25 -10 6 0 3 5 -5 10 -8 5 -19 10 -25 10 -5
0 -3 -5 5 -10z"/>
<path d="M1498 1243 c7 -3 16 -2 19 1 4 3 -2 6 -13 5 -11 0 -14 -3 -6 -6z"/>
<path d="M1615 1210 c-4 -7 3 -8 22 -4 38 9 42 14 10 14 -14 0 -29 -5 -32 -10z"/>
<path d="M473 943 c9 -2 25 -2 35 0 9 3 1 5 -18 5 -19 0 -27 -2 -17 -5z"/>
<path d="M825 930 c3 -5 12 -7 20 -3 21 7 19 13 -6 13 -11 0 -18 -4 -14 -10z"/>
<path d="M970 926 c0 -2 18 -6 40 -8 22 -2 40 0 40 4 0 5 -18 8 -40 8 -22 0
-40 -2 -40 -4z"/>
<path d="M995 890 c7 -12 45 -14 45 -2 0 4 -11 9 -26 10 -14 1 -23 -2 -19 -8z"/>
<path d="M307 884 c-3 -4 -21 -10 -39 -14 l-33 -8 30 -1 c31 -1 64 14 54 23
-3 4 -8 3 -12 0z"/>
<path d="M445 870 c-3 -5 1 -10 10 -10 9 0 13 5 10 10 -3 6 -8 10 -10 10 -2 0
-7 -4 -10 -10z"/>
<path d="M1895 860 c28 -12 37 -12 30 0 -3 6 -16 10 -28 9 -21 0 -21 -1 -2 -9z"/>
<path d="M200 849 c0 -5 5 -7 10 -4 6 3 10 8 10 11 0 2 -4 4 -10 4 -5 0 -10
-5 -10 -11z"/>
<path d="M515 850 c-4 -6 -16 -8 -28 -4 -15 4 -19 3 -12 -4 6 -6 21 -13 35
-17 21 -5 26 -2 27 14 2 22 -11 28 -22 11z"/>
<path d="M1650 820 c11 -7 11 -10 2 -10 -7 0 -10 -4 -7 -10 10 -16 21 -11 22
10 1 13 -4 20 -15 20 -15 0 -15 -2 -2 -10z"/>
<path d="M1508 803 c12 -2 32 -2 45 0 12 2 2 4 -23 4 -25 0 -35 -2 -22 -4z"/>
<path d="M980 783 c13 -3 33 -11 44 -19 11 -8 27 -14 36 -14 8 0 0 9 -18 20
-18 11 -45 19 -60 19 -26 -2 -26 -2 -2 -6z"/>
<path d="M1904 763 c11 -3 26 -12 34 -20 11 -11 17 -12 22 -2 10 15 102 6 155
-17 20 -8 39 -13 41 -11 9 9 -79 38 -144 47 -69 10 -144 12 -108 3z"/>
<path d="M885 740 c3 -5 11 -10 17 -10 6 0 20 -7 30 -17 10 -9 18 -11 18 -5 0
6 -13 18 -30 27 -34 17 -44 19 -35 5z"/>
<path d="M2069 714 c46 -13 86 -23 88 -20 6 6 -129 46 -153 45 -10 0 19 -11
65 -25z"/>
<path d="M1863 723 c9 -2 23 -2 30 0 6 3 -1 5 -18 5 -16 0 -22 -2 -12 -5z"/>
<path d="M240 706 c0 -20 56 -46 94 -45 31 1 31 1 -7 11 -20 6 -42 19 -48 29
-11 22 -39 25 -39 5z"/>
<path d="M401 691 c18 -12 187 -41 237 -41 17 0 32 4 32 9 0 10 -65 22 -145
25 -33 1 -78 6 -100 10 -29 5 -36 4 -24 -3z"/>
<path d="M860 696 c0 -2 7 -6 15 -10 8 -3 15 -1 15 4 0 6 -7 10 -15 10 -8 0
-15 -2 -15 -4z"/>
<path d="M918 681 c25 -22 29 -33 7 -25 -8 4 -15 1 -15 -5 0 -17 33 -27 38
-12 3 9 7 9 17 1 9 -8 15 -8 20 0 3 5 30 11 58 11 l52 2 -50 7 c-28 4 -53 3
-56 -2 -3 -5 -12 -4 -20 4 -18 16 -56 38 -66 38 -5 -1 2 -9 15 -19z"/>
<path d="M1038 693 c28 -2 52 -8 52 -14 0 -5 8 -9 18 -9 15 1 15 2 -2 15 -13
9 -39 14 -70 13 l-51 -2 53 -3z"/>
<path d="M2036 681 c28 -10 61 -24 73 -30 11 -7 21 -9 21 -7 0 10 -75 44 -110
50 -27 5 -24 2 16 -13z"/>
<path d="M65 668 c18 -13 49 -24 123 -43 12 -4 22 -2 22 4 0 5 -17 11 -37 13
-30 2 -37 7 -35 21 2 9 -2 17 -8 17 -6 0 -8 -5 -4 -12 5 -7 1 -9 -12 -5 -10 3
-30 9 -44 12 -24 7 -24 7 -5 -7z"/>
<path d="M752 673 c-88 -7 -50 -18 47 -15 53 2 89 7 86 13 -6 9 -26 9 -133 2z"/>
<path d="M1271 641 c24 -16 104 -26 95 -13 -3 6 -14 10 -24 10 -9 -1 -33 2
-52 6 -25 5 -31 4 -19 -3z"/>
<path d="M100 620 c27 -21 45 -23 155 -21 104 3 92 11 -16 11 -63 1 -102 5
-119 15 -36 21 -49 18 -20 -5z"/>
<path d="M1925 633 c11 -3 24 -9 30 -14 5 -5 16 -9 25 -9 8 0 2 7 -14 15 -15
8 -36 14 -45 14 -11 -1 -10 -3 4 -6z"/>
<path d="M50 619 c0 -5 5 -7 10 -4 6 3 10 8 10 11 0 2 -4 4 -10 4 -5 0 -10 -5
-10 -11z"/>
<path d="M298 623 c7 -3 16 -2 19 1 4 3 -2 6 -13 5 -11 0 -14 -3 -6 -6z"/>
<path d="M348 613 c-6 -7 -9 -13 -7 -14 2 0 31 -2 64 -5 33 -3 68 -6 78 -8 19
-5 23 10 5 17 -22 9 43 7 183 -7 142 -14 149 -16 187 -49 12 -11 22 -16 22
-10 0 12 -28 37 -55 48 -66 26 -459 49 -477 28z m100 -10 c-10 -2 -26 -2 -35
0 -10 3 -2 5 17 5 19 0 27 -2 18 -5z"/>
<path d="M1025 620 c3 -5 8 -10 11 -10 2 0 4 5 4 10 0 6 -5 10 -11 10 -5 0 -7
-4 -4 -10z"/>
<path d="M1245 620 c28 -12 47 -12 40 0 -3 6 -18 10 -33 9 -24 0 -25 -1 -7 -9z"/>
<path d="M1690 595 c20 -20 36 -31 39 -24 2 6 -9 22 -25 35 -44 36 -52 29 -14
-11z"/>
<path d="M1401 616 c2 -2 21 -6 42 -10 27 -5 37 -4 32 3 -3 6 -22 11 -42 11
-20 0 -34 -2 -32 -4z"/>
<path d="M70 600 c0 -5 5 -10 11 -10 5 0 7 5 4 10 -3 6 -8 10 -11 10 -2 0 -4
-4 -4 -10z"/>
<path d="M2023 603 c15 -2 39 -2 55 0 15 2 2 4 -28 4 -30 0 -43 -2 -27 -4z"/>
<path d="M1520 596 c0 -9 40 -13 46 -5 3 5 -6 9 -20 9 -14 0 -26 -2 -26 -4z"/>
<path d="M550 576 c0 -2 9 -6 20 -9 11 -3 18 -1 14 4 -5 9 -34 13 -34 5z"/>
<path d="M827 536 c10 -13 20 -20 21 -15 5 12 -17 39 -30 39 -5 0 -1 -11 9
-24z"/>
<path d="M1695 540 c10 -11 20 -18 23 -15 7 6 -18 35 -31 35 -5 0 -2 -9 8 -20z"/>
<path d="M800 526 c0 -9 5 -16 10 -16 6 0 10 4 10 9 0 6 -4 13 -10 16 -5 3
-10 -1 -10 -9z"/>
<path d="M2041 520 c84 -26 115 -33 104 -22 -12 10 -124 42 -146 41 -8 0 11
-9 42 -19z"/>
<path d="M56 512 c-7 -12 70 -42 104 -41 15 0 3 7 -30 16 -30 8 -58 19 -61 25
-4 6 -9 7 -13 0z"/>
<path d="M621 516 c2 -2 22 -6 44 -9 28 -5 34 -4 20 3 -19 8 -73 14 -64 6z"/>
<path d="M722 493 c3 -15 16 -19 93 -24 50 -3 80 -6 68 -7 -12 -1 -25 -7 -29
-14 -5 -8 4 -9 32 -5 21 4 55 8 74 8 33 2 32 2 -10 9 -30 5 -36 7 -17 8 15 1
27 6 27 11 0 4 -44 8 -97 7 -65 0 -106 4 -121 12 -21 12 -23 12 -20 -5z"/>
<path d="M1220 490 c0 -5 16 -10 36 -10 26 0 43 -8 66 -30 35 -35 49 -33 24 4
-21 33 -126 63 -126 36z"/>
<path d="M265 481 c-44 -3 -75 -9 -70 -13 6 -3 53 -2 105 3 161 16 138 22 -35
10z"/>
<path d="M380 458 c0 -5 56 -8 125 -8 69 0 125 3 125 8 0 4 -56 7 -125 7 -69
0 -125 -3 -125 -7z"/>
<path d="M1379 462 c-13 -6 -12 -11 7 -40 25 -37 44 -26 19 11 -8 13 -12 27
-8 30 8 8 3 8 -18 -1z"/>
<path d="M1987 460 c4 -5 35 -11 68 -14 66 -6 58 -1 -23 12 -30 5 -50 6 -45 2z"/>
<path d="M81 456 c2 -2 22 -6 44 -9 28 -5 34 -4 20 3 -19 8 -73 14 -64 6z"/>
<path d="M1444 426 c18 -15 48 -26 81 -30 29 -3 62 -9 72 -12 10 -3 7 1 -7 10
l-25 15 30 1 c23 0 27 3 15 10 -8 5 -33 9 -55 9 -35 -1 -37 -2 -15 -9 23 -7
22 -8 -11 -9 -22 -1 -46 7 -62 19 -36 28 -58 24 -23 -4z"/>
<path d="M648 433 c12 -2 30 -2 40 0 9 3 -1 5 -23 4 -22 0 -30 -2 -17 -4z"/>
<path d="M1300 435 c0 -18 19 -40 26 -32 4 4 0 15 -9 24 -9 10 -17 13 -17 8z"/>
<path d="M1680 390 c12 -22 12 -22 34 -14 22 8 2 34 -26 34 -16 0 -17 -3 -8
-20z"/>
<path d="M2020 380 c0 -5 10 -10 23 -11 21 0 21 -1 2 -9 -17 -7 -15 -9 13 -9
34 -1 46 22 16 33 -24 9 -54 7 -54 -4z"/>
<path d="M1997 346 c-3 -8 -17 -16 -32 -18 -33 -4 -33 -22 0 -26 32 -4 23 -22
-11 -22 -37 0 -24 -24 17 -31 31 -6 30 -6 -14 -8 -33 -1 -49 -6 -54 -16 -8
-24 5 -31 20 -11 9 12 23 17 42 14 24 -2 30 -8 31 -28 1 -42 16 -100 24 -95 4
3 4 21 0 41 -10 44 3 84 27 85 12 1 10 4 -7 9 -18 6 -9 8 35 8 58 0 59 0 25
-11 -29 -9 -31 -11 -13 -14 24 -5 63 12 63 27 0 6 -15 10 -32 10 -25 0 -29 3
-18 10 11 7 3 11 -30 17 l-45 8 45 6 45 6 -50 2 c-46 2 -48 3 -25 13 25 11 25
11 3 15 -13 3 -23 9 -23 14 0 14 -17 11 -23 -5z m73 -82 c0 -2 -9 -4 -21 -4
-11 0 -18 4 -14 10 5 8 35 3 35 -6z"/>
<path d="M2030 200 c0 -5 5 -10 10 -10 6 0 10 5 10 10 0 6 -4 10 -10 10 -5 0
-10 -4 -10 -10z"/>
</g>
</svg>
