<?xml version="1.0" standalone="no"?>
<!DOCTYPE svg PUBLIC "-//W3C//DTD SVG 20010904//EN"
 "http://www.w3.org/TR/2001/REC-SVG-20010904/DTD/svg10.dtd">
<svg version="1.0" xmlns="http://www.w3.org/2000/svg"
 width="220.000000pt" height="376.000000pt" viewBox="0 0 220.000000 376.000000"
 preserveAspectRatio="xMidYMid meet">
<metadata>
Created by potrace 1.16, written by Peter Selinger 2001-2019
</metadata>
<g transform="translate(0.000000,376.000000) scale(0.100000,-0.100000)"
fill="#000000" stroke="none">
<path d="M48 3742 l-38 -3 -1 -167 c-1 -92 -2 -228 -2 -302 -2 -267 13 -2311
19 -2610 3 -168 5 -350 5 -405 0 -55 2 -135 5 -178 l6 -78 1068 3 c588 2 1071
6 1074 9 7 7 7 972 1 1484 -2 171 -7 704 -10 1185 -9 1080 -8 1047 -18 1057
-8 7 -2021 12 -2109 5z m2085 -22 c5 -5 13 -854 10 -985 -2 -44 1 -239 6 -434
l9 -354 -30 -31 -30 -32 -32 31 c-17 17 -39 36 -48 41 -13 7 -19 33 -27 104
-6 52 -15 120 -20 150 -16 99 -34 275 -29 295 3 15 10 19 31 17 27 -3 37 11
17 23 -5 3 -10 20 -10 37 0 26 -2 29 -15 18 -8 -7 -15 -19 -15 -28 0 -8 -2
-13 -5 -11 -8 9 -15 81 -16 167 -1 64 -5 87 -20 106 -14 18 -16 25 -7 29 10 3
10 7 0 19 -10 13 -10 17 3 22 8 3 15 15 15 27 0 17 -5 20 -20 16 -16 -4 -20
-1 -16 11 3 9 -1 27 -8 40 -11 21 -14 22 -26 7 -11 -13 -11 -21 -2 -36 16 -24
15 -40 0 -38 -28 3 -38 -2 -38 -21 0 -15 7 -20 24 -20 21 0 25 -5 24 -30 -1
-16 -5 -30 -10 -30 -4 0 -6 -12 -3 -27 6 -25 5 -26 -6 -9 -9 15 -9 24 0 38 13
20 -1 25 -17 5 -7 -8 -8 -26 -2 -52 12 -51 13 -132 1 -139 -4 -3 -13 6 -20 20
-6 14 -16 22 -21 19 -16 -10 -12 -45 6 -52 15 -5 15 -7 0 -15 -9 -5 -16 -21
-16 -35 0 -22 3 -24 24 -19 32 8 42 -8 49 -79 3 -33 10 -98 16 -145 5 -47 12
-146 16 -220 l6 -135 -53 -14 c-106 -26 -93 -34 -111 71 -33 193 -33 196 5
161 23 -21 33 -11 18 17 -9 16 -9 20 -1 15 12 -7 41 11 41 26 0 5 -8 9 -19 9
-11 0 -21 9 -24 22 -9 31 -36 6 -29 -27 3 -18 0 -25 -12 -25 -9 0 -16 3 -16 8
0 4 -7 47 -15 96 -8 49 -17 125 -20 168 -3 44 -10 90 -15 104 -5 13 -7 44 -3
69 5 41 4 45 -21 56 -25 12 -25 12 -6 26 25 18 26 43 1 43 -10 0 -26 11 -35
25 -20 30 -33 26 -33 -11 0 -14 -6 -30 -13 -34 -19 -12 -4 -43 18 -36 11 4 9
0 -6 -12 l-23 -17 16 -115 c9 -63 18 -123 21 -132 7 -22 -25 -28 -54 -9 -23
14 -24 13 -20 -10 1 -13 13 -28 26 -34 26 -11 29 -25 6 -25 -9 0 -14 -7 -12
-17 2 -13 13 -18 35 -18 17 0 34 -3 37 -6 9 -9 77 -479 71 -489 -8 -13 -35 13
-35 34 0 18 -8 20 -30 6 -9 -5 -19 -5 -27 1 -7 6 -17 8 -22 5 -13 -8 -41 -65
-41 -83 0 -7 -12 -18 -27 -23 -16 -6 -36 -15 -46 -20 -15 -9 -17 -7 -11 17 4
16 11 31 16 34 15 10 -2 79 -19 79 -14 0 -15 21 -9 162 4 90 14 253 22 363 8
110 17 244 21 298 5 78 10 100 22 104 36 11 60 27 107 71 l50 47 0 85 c-1 81
-2 85 -24 88 -19 3 -21 6 -11 18 12 15 6 44 -10 44 -6 0 -8 -8 -4 -17 4 -13 3
-15 -5 -8 -6 6 -9 20 -6 31 8 31 53 52 97 46 28 -3 43 1 59 14 20 19 21 19 13
-4 -5 -17 -2 -27 12 -37 27 -21 34 -18 23 9 -7 19 -5 28 10 41 15 13 17 22 10
36 -11 20 -30 17 -70 -14 -20 -15 -34 -17 -75 -12 -46 5 -53 3 -74 -19 l-24
-26 -12 23 c-9 17 -8 27 3 44 18 29 8 43 -29 43 -26 0 -29 3 -29 33 0 18 7 42
15 53 22 29 18 50 -12 73 l-28 20 30 -2 c35 -2 48 27 15 36 -15 4 -20 13 -20
41 0 29 -4 36 -19 36 -12 0 -21 -9 -25 -25 -4 -17 -13 -25 -27 -25 -28 0 -21
-31 10 -46 l24 -12 -24 -4 c-23 -3 -24 -7 -27 -91 -3 -88 -3 -89 -27 -83 -18
5 -25 1 -30 -14 -3 -11 -3 -24 0 -30 3 -5 1 -10 -6 -10 -8 0 -9 -10 -5 -30 l6
-31 -48 3 c-42 3 -47 1 -50 -19 -2 -12 -10 -27 -18 -33 -8 -7 -14 -21 -14 -32
0 -11 -7 -26 -15 -35 -28 -27 -4 -174 31 -187 8 -3 14 -14 14 -24 0 -22 25
-46 38 -38 6 3 15 -1 22 -9 7 -9 22 -14 34 -13 21 3 21 0 19 -152 -2 -238 -13
-495 -26 -600 l-12 -95 -31 151 c-16 83 -28 156 -26 163 3 8 15 9 38 5 37 -7
41 0 19 29 -7 11 -11 25 -9 31 3 7 -2 19 -11 26 -21 17 -35 -1 -35 -44 0 -54
-12 -18 -41 127 -15 79 -35 164 -43 188 -8 24 -17 65 -21 91 -4 29 -13 51 -23
57 -9 5 -17 18 -17 28 0 10 -7 19 -15 19 -8 1 -19 2 -24 3 -6 0 -1 7 9 15 23
17 14 46 -13 39 -12 -3 -22 1 -25 11 -4 9 -14 16 -23 16 -15 0 -14 -4 5 -24
13 -14 18 -26 12 -30 -5 -4 -14 2 -20 11 -9 16 -10 16 -11 1 0 -9 10 -24 22
-32 19 -14 20 -16 4 -16 -10 0 -16 -5 -13 -12 2 -7 14 -12 26 -11 29 4 27 -11
-4 -25 -32 -15 -32 -46 0 -76 14 -13 25 -31 25 -40 0 -8 9 -49 21 -91 l20 -75
-20 -21 c-18 -20 -21 -20 -27 -6 -8 21 -20 22 -28 1 -9 -22 11 -54 34 -54 11
0 20 -4 20 -10 0 -5 -7 -10 -15 -10 -16 0 -19 -17 -9 -44 8 -20 34 -21 34 -1
0 21 38 19 44 -2 2 -10 8 -34 11 -53 4 -19 18 -73 31 -120 36 -127 74 -361 60
-365 -96 -34 -110 -37 -115 -24 -15 46 -94 188 -102 184 -5 -3 -7 0 -4 7 2 7
-8 29 -23 49 -82 109 -113 148 -122 154 -5 3 -10 20 -10 36 0 17 -6 32 -15 35
-19 8 -9 25 13 23 34 -3 42 1 42 24 0 12 6 34 14 48 11 22 11 31 0 59 -8 18
-14 50 -14 71 0 33 4 40 25 45 14 3 30 14 35 24 8 15 3 24 -26 50 -34 29 -37
30 -60 16 -14 -10 -46 -16 -81 -16 -93 0 -213 -47 -213 -83 0 -7 -18 -23 -40
-37 -22 -13 -41 -31 -44 -40 -2 -8 -2 55 0 140 6 167 20 309 34 325 7 8 8 89
1 103 0 1 -10 -2 -22 -8 -18 -10 -19 -10 -10 8 7 14 17 18 37 14 21 -4 25 -1
22 14 -2 12 -12 19 -26 18 -16 0 -24 8 -33 33 -6 18 -15 33 -20 33 -14 0 -11
-64 4 -79 10 -10 7 -11 -15 -6 -35 9 -40 -19 -6 -29 23 -6 23 -6 -6 -29 -29
-23 -29 -24 -32 -153 -9 -287 -37 -746 -56 -889 -11 -84 -24 -114 -51 -115 -8
0 -3 998 6 1040 2 14 8 33 12 43 11 26 -1 59 -35 97 l-30 34 21 19 c24 22 20
43 -9 40 -11 -1 -26 4 -32 12 -22 26 -40 18 -40 -19 0 -19 -5 -36 -12 -38 -6
-2 -9 -12 -5 -21 3 -9 12 -14 19 -12 15 6 15 8 18 -568 1 -398 -6 -617 -21
-617 -5 0 -9 4 -9 10 0 16 -49 23 -65 10 -13 -10 -15 -8 -15 13 0 13 7 30 15
37 13 10 15 9 15 -10 0 -17 4 -21 20 -17 11 3 20 1 20 -4 0 -5 5 -9 10 -9 6 0
10 7 10 15 0 8 -6 15 -14 15 -8 0 -16 7 -20 15 -7 20 -39 19 -59 -2 -8 -10
-17 -36 -19 -58 -2 -27 -8 -41 -19 -43 -15 -3 -18 12 -23 110 -3 62 -7 485 -9
940 l-3 828 770 2 c1099 4 1334 4 1339 -2z m-696 -132 c-3 -7 -5 -2 -5 12 0
14 2 19 5 13 2 -7 2 -19 0 -25z m43 -48 c0 -5 -2 -10 -4 -10 -3 0 -8 5 -11 10
-3 6 -1 10 4 10 6 0 11 -4 11 -10z m-20 -47 c0 -3 -7 -3 -15 1 -20 7 -19 -4 3
-20 15 -12 15 -13 -8 -8 -14 2 -19 2 -12 -2 17 -8 15 -27 -3 -20 -18 7 -20
-10 -2 -18 6 -4 2 -4 -10 -2 -16 3 -23 -1 -23 -11 0 -9 6 -13 14 -10 10 4 13
-1 11 -19 -1 -13 2 -27 6 -30 5 -3 9 -16 9 -28 0 -19 -4 -22 -25 -18 -24 4
-25 7 -25 89 0 106 9 126 50 111 17 -5 30 -12 30 -15z m50 -167 c0 -7 -8 -20
-17 -27 -15 -11 -16 -11 -5 1 17 19 15 33 -3 26 -8 -3 -15 -1 -15 4 0 6 9 10
20 10 11 0 20 -6 20 -14z m80 -59 c-27 -15 -36 -14 -25 2 3 6 16 11 28 11 21
0 21 -1 -3 -13z m-90 -17 c0 -5 -4 -10 -10 -10 -5 0 -10 5 -10 10 0 6 5 10 10
10 6 0 10 -4 10 -10z m-237 -35 c1 -5 -6 -11 -15 -13 -11 -2 -18 3 -18 13 0
17 30 18 33 0z m132 -60 c0 -25 4 -45 10 -45 5 0 3 -5 -5 -10 -13 -9 -13 -11
0 -20 12 -8 11 -10 -7 -10 -24 0 -27 -7 -17 -34 6 -15 8 -15 20 1 13 17 13 17
14 -4 0 -12 -8 -27 -17 -32 -14 -8 -15 -10 -3 -11 13 0 13 -1 0 -10 -12 -8
-12 -10 3 -16 23 -8 22 -24 -2 -24 -31 0 -42 23 -36 81 3 30 7 79 10 109 2 30
4 58 4 63 1 4 7 7 14 7 9 0 13 -15 12 -45z m-175 21 c0 -3 -4 -8 -10 -11 -5
-3 -10 -1 -10 4 0 6 5 11 10 11 6 0 10 -2 10 -4z m125 -73 c-9 -118 -11 -122
-43 -119 -15 1 -26 7 -25 13 1 6 -4 17 -12 23 -20 16 -20 74 -1 67 14 -6 36
31 36 59 0 11 6 13 20 9 14 -5 20 -2 20 9 0 9 2 16 5 16 3 0 3 -35 0 -77z
m-102 31 c-11 -17 -19 -22 -21 -14 -3 7 3 19 14 27 26 19 27 17 7 -13z m35 -4
c-7 -10 -14 -17 -17 -15 -4 4 18 35 25 35 2 0 -1 -9 -8 -20z m-1055 -10 c3
-11 1 -20 -4 -20 -5 0 -9 9 -9 20 0 11 2 20 4 20 2 0 6 -9 9 -20z m1258 8 c1
-7 0 -21 -1 -31 -1 -10 4 -25 11 -33 9 -11 9 -18 1 -26 -7 -7 -12 -22 -12 -35
0 -12 -9 -27 -20 -33 -19 -10 -20 -8 -20 64 0 41 3 81 6 90 7 19 34 21 35 4z
m109 -2 c0 -3 -4 -8 -10 -11 -5 -3 -10 -1 -10 4 0 6 5 11 10 11 6 0 10 -2 10
-4z m-406 -41 c-4 -8 -8 -15 -10 -15 -2 0 -4 7 -4 15 0 8 4 15 10 15 5 0 7 -7
4 -15z m-909 -75 c8 0 15 -3 15 -7 0 -5 3 -18 6 -29 8 -30 -41 -39 -67 -13
-24 24 -24 47 -1 69 16 16 17 16 24 -2 4 -10 14 -18 23 -18z m1291 -7 c-10
-10 -19 5 -10 18 6 11 8 11 12 0 2 -7 1 -15 -2 -18z m-1106 -3 c0 -5 7 -10 15
-10 25 0 28 -27 6 -49 -17 -17 -19 -30 -16 -81 3 -42 1 -60 -8 -60 -7 0 -6 -4
3 -10 10 -6 11 -10 3 -10 -9 0 -10 -7 -3 -26 15 -39 12 -61 -9 -67 -25 -6 -21
-38 5 -48 18 -7 18 -8 -1 -8 -17 -1 -17 -3 -5 -11 13 -9 13 -10 0 -10 -13 0
-13 -1 0 -10 13 -9 13 -10 0 -10 -10 0 -11 -3 -4 -8 14 -9 13 -120 -2 -130
-14 -10 -15 -52 -1 -52 7 0 4 -5 -6 -11 -18 -10 -18 -11 0 -25 12 -9 14 -13 4
-14 -8 0 -11 -6 -7 -17 4 -9 1 -20 -6 -25 -10 -8 -10 -11 0 -15 6 -2 12 -14
12 -24 0 -11 -4 -18 -9 -14 -5 3 -12 1 -15 -4 -3 -5 2 -12 11 -15 14 -6 14 -8
-3 -21 -11 -8 -14 -15 -6 -15 6 0 12 -6 12 -14 0 -8 -6 -17 -12 -19 -10 -4 -9
-8 2 -16 12 -8 12 -11 1 -11 -10 0 -12 -8 -8 -29 4 -19 2 -31 -7 -34 -31 -12
-36 7 -27 118 5 61 14 193 20 295 16 256 31 471 37 498 4 22 24 32 24 12z
m770 0 c0 -5 -4 -10 -10 -10 -5 0 -10 5 -10 10 0 6 5 10 10 10 6 0 10 -4 10
-10z m365 -20 c3 -5 1 -10 -4 -10 -6 0 -11 5 -11 10 0 6 2 10 4 10 3 0 8 -4
11 -10z m-330 -39 c10 -17 -12 -21 -25 -6 -10 12 -10 15 3 15 9 0 18 -4 22 -9z
m-1002 -28 c3 -5 -1 -14 -9 -21 -12 -11 -14 -9 -14 8 0 20 14 27 23 13z m1077
-3 c13 -8 13 -10 -2 -10 -9 0 -20 5 -23 10 -8 13 5 13 25 0z m184 -5 c-4 -8
-11 -15 -16 -15 -6 0 -5 6 2 15 7 8 14 15 16 15 2 0 1 -7 -2 -15z m331 5 c3
-6 -1 -7 -9 -4 -18 7 -21 14 -7 14 6 0 13 -4 16 -10z m-422 -7 c-7 -2 -19 -2
-25 0 -7 3 -2 5 12 5 14 0 19 -2 13 -5z m-97 -30 c-8 -8 -36 5 -36 17 0 7 6 7
21 0 11 -7 18 -14 15 -17z m104 7 c0 -5 -5 -10 -11 -10 -5 0 -7 5 -4 10 3 6 8
10 11 10 2 0 4 -4 4 -10z m-1189 -62 c-9 -31 -9 -31 -10 -6 -1 30 11 67 16 51
2 -6 0 -26 -6 -45z m1120 -61 c-1 -33 2 -46 9 -42 6 4 9 13 6 21 -5 14 5 19
17 8 8 -9 -12 -47 -30 -57 -10 -6 -13 -17 -9 -33 4 -14 1 -34 -5 -45 -15 -28
-3 -89 18 -89 13 0 14 -2 2 -17 -11 -13 -11 -17 -1 -20 6 -3 12 -9 12 -15 0
-6 -7 -8 -15 -4 -8 3 -15 1 -15 -4 0 -6 7 -10 15 -10 21 0 19 -20 -2 -21 -15
0 -15 -2 2 -9 l20 -9 -20 -1 c-11 -1 -14 -4 -7 -7 6 -2 12 -11 12 -19 0 -8 -6
-14 -12 -14 -9 0 -8 -4 2 -10 12 -8 12 -10 -5 -10 -17 0 -17 -2 -5 -10 13 -9
13 -10 0 -11 -10 0 -11 -2 -2 -6 17 -7 15 -23 -2 -23 -9 0 -17 -13 -19 -32 -7
-47 2 444 10 522 5 55 7 61 15 40 6 -14 10 -47 9 -73z m-285 62 c3 -6 3 -14
-2 -18 -5 -3 -10 -14 -12 -23 -2 -13 4 -18 20 -18 19 0 20 -2 8 -10 -13 -9
-13 -10 0 -10 13 0 13 -1 0 -10 -11 -7 -11 -10 -2 -10 7 0 10 -4 7 -10 -3 -5
-1 -10 5 -10 13 0 9 -32 -5 -42 -6 -4 -2 -8 8 -8 20 0 23 -16 5 -23 -7 -3 -4
-6 7 -7 20 -1 20 -1 1 -15 -19 -15 -19 -15 5 -16 17 -1 19 -3 7 -6 -10 -2 -18
-8 -18 -13 0 -4 9 -6 20 -3 11 3 20 0 20 -6 0 -6 -7 -11 -15 -11 -8 0 -15 -5
-15 -11 0 -5 5 -7 11 -3 6 3 15 0 20 -7 13 -20 11 -27 -8 -32 -15 -4 -15 -6 5
-12 33 -11 27 -23 -10 -21 l-33 2 -30 139 c-16 77 -33 142 -37 143 -38 16 -43
62 -7 62 10 0 19 5 19 10 0 13 17 13 26 -1z m471 -21 c-3 -8 -6 -5 -6 6 -1 11
2 17 5 13 3 -3 4 -12 1 -19z m-152 2 c3 -5 1 -10 -4 -10 -6 0 -11 5 -11 10 0
6 2 10 4 10 3 0 8 -4 11 -10z m-1140 -30 c-3 -5 -10 -10 -16 -10 -5 0 -9 5 -9
10 0 6 7 10 16 10 8 0 12 -4 9 -10z m1610 -10 c-3 -5 -1 -10 5 -10 8 0 8 -6 0
-20 -8 -15 -6 -21 10 -30 25 -13 27 -31 3 -24 -17 5 -17 5 0 -9 19 -16 24 -32
5 -21 -8 5 -9 2 -3 -12 5 -10 9 -45 8 -76 0 -35 4 -58 11 -59 6 0 2 -4 -9 -9
-17 -7 -17 -9 -2 -9 19 -1 24 -31 5 -31 -9 0 -8 -4 2 -10 13 -9 13 -10 0 -10
-12 -1 -11 -3 3 -11 16 -9 16 -12 1 -26 -8 -9 -11 -19 -6 -22 5 -3 9 -45 9
-92 0 -86 7 -114 23 -104 14 8 19 -7 30 -86 15 -102 28 -149 44 -149 24 0 62
-53 56 -81 -4 -21 -9 -24 -30 -18 -14 4 -20 8 -15 8 6 1 6 4 -1 9 -14 10 -56
125 -60 165 -6 59 -13 99 -18 105 -10 10 -6 -69 4 -89 7 -13 7 -19 0 -19 -5 0
-10 -7 -10 -15 0 -26 -40 -18 -41 8 0 12 -2 42 -4 67 -3 25 -9 122 -15 215 -6
94 -13 191 -16 218 -6 40 -4 46 8 42 10 -4 17 1 21 15 6 25 -20 40 -33 19 -5
-8 -9 23 -9 73 1 48 -2 92 -6 98 -3 6 3 10 15 10 12 0 18 -4 15 -10z m-1621
-47 c-14 -10 -20 -11 -23 -2 -2 7 5 18 15 26 14 10 20 11 23 2 2 -7 -5 -18
-15 -26z m1344 8 c10 -6 10 -10 -2 -20 -8 -7 -20 -10 -26 -6 -16 10 -12 -5 6
-23 11 -10 13 -17 5 -20 -20 -7 -12 -32 12 -33 21 -1 21 -1 -3 -9 -24 -8 -24
-8 -2 -9 12 -1 22 -6 22 -12 0 -6 -7 -9 -15 -5 -8 3 -15 1 -15 -4 0 -6 6 -10
13 -11 9 0 9 -2 0 -6 -10 -3 -10 -7 0 -18 7 -7 15 -11 19 -9 4 2 9 0 13 -6 3
-6 -4 -11 -17 -11 -17 -1 -18 -3 -5 -6 9 -2 17 -9 17 -14 0 -6 -8 -8 -18 -5
-13 4 -18 1 -18 -14 0 -13 7 -20 18 -20 24 0 23 -36 -1 -43 -22 -5 -21 -8 -51
158 -27 148 -26 155 8 155 15 0 33 -4 40 -9z m-1343 -40 c3 -5 1 -12 -5 -16
-5 -3 -10 1 -10 9 0 18 6 21 15 7z m1145 -28 c0 -16 -5 -35 -10 -43 -7 -11
-10 -4 -10 28 0 23 5 42 10 42 6 0 10 -12 10 -27z m-935 7 c-3 -5 -12 -10 -18
-10 -7 0 -6 4 3 10 19 12 23 12 15 0z m385 -40 c0 -5 -17 -10 -37 -10 -28 0
-34 3 -23 10 20 13 60 13 60 0z m987 -42 c-3 -7 -5 -2 -5 12 0 14 2 19 5 13 2
-7 2 -19 0 -25z m-967 18 c0 -2 -20 -11 -45 -19 -46 -16 -62 -8 -22 11 22 10
67 16 67 8z m55 -6 c-3 -5 -13 -10 -21 -10 -8 0 -12 5 -9 10 3 6 13 10 21 10
8 0 12 -4 9 -10z m885 6 c0 -3 -4 -8 -10 -11 -5 -3 -10 -1 -10 4 0 6 5 11 10
11 6 0 10 -2 10 -4z m-1116 -38 c-5 -7 -9 -21 -9 -30 -1 -10 -4 -19 -6 -21
-31 -22 -62 -37 -67 -32 -7 6 11 23 54 53 18 12 17 12 -3 7 -27 -7 -31 10 -5
24 24 15 45 14 36 -1z m151 2 c-3 -5 -14 -10 -23 -10 -15 0 -15 2 -2 10 20 13
33 13 25 0z m-99 -15 c-26 -19 -42 -19 -26 0 7 8 20 15 29 15 13 -1 13 -3 -3
-15z m-489 -193 c2 -122 -1 -214 -8 -243 -10 -37 -9 -57 4 -109 12 -45 13 -66
6 -71 -8 -4 -8 -9 1 -14 9 -6 9 -10 -1 -16 -11 -7 -11 -11 -1 -17 16 -11 11
-104 -6 -110 -7 -2 -10 2 -6 12 3 9 1 16 -6 16 -8 0 -9 -13 -5 -42 4 -24 2
-54 -4 -68 -8 -18 -9 39 -5 205 4 127 7 326 8 442 1 135 5 213 11 213 6 0 11
-74 12 -198z m363 190 c0 -9 -44 -32 -61 -32 -16 0 1 20 25 30 28 11 36 12 36
2z m243 1 c4 -3 0 -16 -8 -29 -12 -19 -12 -23 0 -28 11 -4 15 -24 15 -82 l0
-76 -45 6 c-45 7 -55 0 -33 -22 9 -9 -4 -12 -60 -12 -40 0 -72 4 -72 9 0 4 23
17 52 28 46 18 56 26 80 74 15 29 28 67 28 84 0 40 25 67 43 48z m-94 -39
c-18 -13 -35 -21 -38 -18 -8 7 52 53 62 47 5 -3 -6 -16 -24 -29z m-234 -15
c-4 -5 -13 -9 -22 -9 -13 0 -13 3 -3 15 13 15 35 11 25 -6z m55 1 c-27 -21
-45 -26 -35 -9 6 9 41 27 55 28 3 0 -6 -8 -20 -19z m94 -27 c-21 -15 -44 -17
-44 -3 0 15 54 40 59 28 2 -6 -4 -17 -15 -25z m-154 -2 c0 -9 -24 -21 -42 -21
-6 0 -6 6 2 15 14 16 40 20 40 6z m567 -23 c-3 -7 -5 -2 -5 12 0 14 2 19 5 13
2 -7 2 -19 0 -25z m-518 19 c-28 -21 -59 -36 -59 -29 0 9 37 30 54 31 5 1 7 0
5 -2z m41 -17 c0 -11 -61 -32 -69 -24 -3 4 -1 9 5 11 6 2 20 10 30 17 19 14
34 12 34 -4z m561 -16 c6 -8 7 -14 2 -14 -5 0 -10 -11 -11 -26 -1 -18 2 -23
11 -18 8 5 7 2 -2 -9 -12 -15 -11 -17 5 -18 18 0 18 -1 -1 -9 -11 -5 -14 -9
-7 -9 7 -1 10 -5 7 -11 -3 -5 -1 -10 5 -10 6 0 8 -4 5 -10 -3 -5 -2 -10 4 -10
6 0 8 -7 5 -15 -4 -9 0 -15 7 -15 11 0 11 -3 -1 -10 -9 -6 -10 -10 -3 -10 8 0
10 -15 8 -45 -4 -38 -2 -45 13 -45 13 0 14 -2 4 -9 -17 -10 -11 -47 6 -44 7 2
12 -2 12 -7 0 -5 -6 -10 -12 -11 -9 0 -9 -2 -2 -5 7 -3 9 -14 6 -26 -3 -14 -1
-19 6 -14 7 4 12 3 12 -3 0 -5 -6 -12 -12 -14 -8 -3 -5 -6 6 -6 15 -1 16 -4 6
-16 -10 -12 -10 -15 0 -15 9 0 9 -4 -1 -16 -12 -15 -11 -16 9 -10 13 5 22 3
22 -3 0 -6 -7 -11 -15 -11 -8 0 -15 -5 -15 -11 0 -5 5 -7 10 -4 14 9 13 -8 -2
-23 -20 -20 -27 -14 -33 26 -17 100 -50 258 -75 357 -45 178 -43 163 -15 163
14 0 30 -7 36 -14z m-691 -20 c10 -24 14 -26 49 -20 37 6 39 4 44 -24 4 -16 4
-37 1 -45 -7 -18 17 -20 34 -3 6 6 15 8 19 4 4 -4 0 -12 -10 -17 -9 -6 -17
-21 -17 -35 0 -14 -9 -39 -20 -55 -12 -15 -30 -54 -40 -85 -18 -51 -19 -66 -9
-138 21 -154 26 -239 18 -275 -5 -20 -9 -50 -9 -67 0 -36 -22 -70 -39 -60 -6
4 -8 13 -4 19 4 7 6 24 4 39 -1 16 2 28 8 28 15 0 14 47 -1 56 -8 5 -9 2 -4
-11 4 -12 -1 -26 -16 -42 -17 -18 -19 -26 -10 -35 19 -19 14 -27 -17 -26 -15
1 -33 -2 -40 -6 -6 -4 -14 0 -18 9 -4 12 4 26 26 44 21 18 31 36 31 54 0 19 5
27 18 27 13 0 21 13 30 45 6 24 9 50 7 57 -6 16 -76 64 -87 60 -11 -3 -10 5 5
29 10 17 9 23 -1 26 -9 3 -11 19 -7 51 2 26 7 85 10 132 19 302 23 324 45 264z
m45 -4 c3 -5 -1 -10 -9 -10 -9 0 -16 5 -16 10 0 6 4 10 9 10 6 0 13 -4 16 -10z
m138 -5 c-3 -9 -8 -14 -10 -11 -3 3 -2 9 2 15 9 16 15 13 8 -4z m578 -22 c-12
-20 -14 -14 -5 12 4 9 9 14 11 11 3 -2 0 -13 -6 -23z m354 17 c-4 -6 -4 -18
-1 -27 5 -12 9 -13 21 -3 18 15 17 16 19 -80 1 -41 -3 -79 -9 -83 -6 -5 -4 -7
5 -6 45 5 58 -25 18 -41 -23 -9 -23 -9 2 -10 23 -1 23 -2 5 -10 l-20 -9 20 -1
20 -1 -20 -8 c-20 -8 -20 -8 1 -15 21 -6 34 -32 34 -68 0 -12 -5 -15 -17 -11
-15 6 -16 4 -6 -9 7 -8 10 -18 6 -22 -4 -4 -1 -11 7 -16 12 -8 12 -10 -4 -10
-15 0 -17 -5 -12 -30 3 -16 1 -30 -4 -30 -14 0 -25 73 -12 78 6 2 8 18 5 40
-7 45 -11 51 -23 32 -7 -11 -10 -5 -10 21 0 38 -36 294 -45 317 -2 6 3 12 11
12 8 0 12 -5 9 -10z m-960 -29 c3 -6 -4 -15 -15 -21 -22 -12 -23 -10 -14 14 7
18 20 21 29 7z m1305 -71 c0 -5 -4 -10 -10 -10 -5 0 -10 5 -10 10 0 6 5 10 10
10 6 0 10 -4 10 -10z m-1265 -10 c-4 -6 9 -10 32 -10 28 0 34 -3 23 -10 -9 -6
-11 -10 -3 -10 7 0 10 -7 7 -15 -4 -8 -1 -15 5 -15 7 0 14 7 17 15 4 11 21 -1
62 -44 110 -113 118 -127 210 -333 20 -44 20 -47 3 -62 -29 -26 -53 -19 -99
30 l-43 47 -27 -20 c-15 -11 -35 -42 -45 -68 -10 -27 -34 -66 -53 -87 -18 -21
-34 -44 -35 -51 -7 -100 -6 -107 7 -96 26 21 16 -16 -24 -92 -130 -248 -152
-283 -226 -356 -41 -41 -79 -86 -86 -102 -11 -27 -23 -35 -118 -80 -41 -20
-82 -65 -82 -93 0 -26 24 -18 28 10 4 25 55 67 93 77 31 8 99 69 99 88 0 8 32
44 71 81 62 60 139 161 139 183 0 5 32 62 70 128 39 66 70 124 70 130 0 5 5
27 10 47 10 36 11 36 38 22 15 -7 37 -14 48 -14 20 0 21 -3 13 -42 -4 -24 -8
-65 -9 -92 0 -76 -58 -316 -85 -352 -11 -15 -16 -16 -26 -7 -9 9 -4 33 24 109
36 92 48 149 28 129 -5 -6 -24 -55 -42 -110 -37 -113 -63 -160 -126 -225 -24
-25 -65 -74 -91 -109 -55 -76 -78 -94 -152 -121 -59 -21 -87 -25 -108 -12 -29
19 39 142 79 142 28 0 92 72 117 130 18 44 19 51 5 37 -9 -9 -24 -36 -33 -59
-15 -42 -25 -50 -110 -88 -8 -4 -24 -21 -35 -38 -11 -17 -27 -31 -36 -32 -9 0
-21 -11 -27 -25 -7 -15 -17 -22 -25 -19 -9 3 -29 -14 -53 -45 -40 -51 -67 -64
-78 -35 -9 23 -7 69 3 96 13 35 97 124 141 150 122 73 194 134 261 223 59 78
83 124 112 215 66 203 91 324 82 388 -5 35 -2 60 9 87 20 46 20 51 1 35 -8 -7
-15 -21 -15 -31 0 -10 -5 -21 -11 -25 -8 -4 -10 -28 -6 -69 11 -113 -90 -450
-168 -566 -71 -104 -123 -151 -264 -236 -20 -12 -40 -25 -46 -30 -5 -4 -22
-14 -37 -20 -27 -12 -28 -11 -28 14 0 15 9 37 21 49 11 12 22 29 23 38 3 21
68 88 129 133 26 19 47 40 47 47 0 7 9 21 21 31 11 11 38 46 60 79 28 42 38
52 34 33 -5 -18 -3 -27 5 -27 6 0 -7 -22 -29 -49 -23 -27 -41 -52 -41 -56 0
-4 -11 -20 -25 -37 -14 -16 -25 -36 -25 -44 0 -8 -16 -24 -35 -35 -19 -12 -35
-25 -35 -30 0 -14 15 -10 36 10 11 10 30 24 42 30 12 6 22 21 22 31 0 11 9 25
20 32 11 7 20 17 20 22 0 4 22 32 49 62 67 73 125 181 152 284 27 103 33 309
10 353 -17 32 -8 79 14 70 10 -3 13 -12 9 -25 -4 -15 -2 -19 7 -16 8 3 15 16
17 30 3 21 -2 26 -25 31 -15 3 -34 1 -40 -5 -9 -7 -13 -7 -13 0 0 6 5 14 10
17 6 3 10 16 10 29 0 24 31 57 65 71 19 8 19 8 1 12 -12 3 -33 -9 -58 -34
l-40 -38 16 40 c15 36 50 74 69 75 9 0 10 30 0 30 -18 0 -73 -48 -87 -75 l-15
-30 0 28 c-1 47 34 96 70 97 8 0 24 7 35 16 18 15 17 15 -18 10 -42 -5 -51 10
-22 38 17 17 49 22 39 6z m982 -52 c-3 -7 -5 -2 -5 12 0 14 2 19 5 13 2 -7 2
-19 0 -25z m283 -8 c0 -16 -4 -30 -10 -30 -5 0 -10 14 -10 30 0 17 5 30 10 30
6 0 10 -13 10 -30z m-595 0 c17 -7 17 -9 3 -9 -11 -1 -15 -6 -12 -16 5 -11 2
-13 -10 -9 -9 3 -16 15 -16 25 0 21 5 22 35 9z m-25 -85 c-10 -12 -8 -17 11
-24 13 -5 19 -10 12 -10 -12 -1 -12 -25 0 -37 4 -4 1 -14 -6 -22 -10 -12 -9
-16 2 -20 11 -4 11 -6 0 -13 -10 -6 -11 -9 -1 -9 6 0 12 -4 12 -10 0 -5 -6
-10 -14 -10 -9 0 -12 -8 -9 -24 3 -15 -1 -25 -11 -29 -14 -6 -16 6 -16 92 0
118 8 172 22 147 6 -11 6 -22 -2 -31z m-920 -85 c0 -5 -6 -11 -12 -13 -9 -4
-10 -8 -2 -14 14 -10 9 -106 -5 -111 -6 -2 -11 -12 -11 -23 0 -10 -7 -19 -15
-19 -17 0 -22 65 -5 75 6 3 10 32 10 65 0 53 2 58 20 53 11 -3 20 -9 20 -13z
m1237 -52 c-3 -7 -5 -2 -5 12 0 14 2 19 5 13 2 -7 2 -19 0 -25z m308 -27 c-3
-11 1 -37 10 -58 9 -21 14 -47 11 -59 -8 -29 10 -40 63 -39 43 0 46 2 70 48
14 26 30 47 34 47 13 0 -1 -88 -20 -127 -17 -36 -26 -39 -63 -18 -15 9 -57 15
-105 16 -44 1 -73 3 -63 6 13 3 16 15 13 62 -2 49 1 65 24 100 29 45 35 51 26
22z m-54 -34 c-5 -12 -15 -42 -22 -67 -9 -28 -30 -61 -58 -88 -36 -36 -42 -47
-35 -65 12 -30 6 -290 -6 -282 -6 3 -10 53 -10 111 0 77 -3 104 -13 104 -8 0
-13 -26 -15 -89 -4 -91 11 -144 44 -164 17 -10 7 -37 -15 -37 -23 0 -41 -19
-34 -36 3 -8 1 -14 -4 -14 -26 0 -236 96 -311 142 l-32 20 33 46 c19 26 37 60
41 75 4 16 21 53 39 84 18 30 37 63 43 74 53 95 225 203 328 207 33 1 35 0 27
-21z m-558 -33 c3 -4 -4 -15 -16 -25 l-22 -18 33 -1 c17 0 32 -4 32 -8 0 -4
-12 -8 -27 -7 -14 0 -28 -6 -30 -12 -3 -8 4 -13 16 -13 28 0 27 -18 -1 -22
-12 -2 -23 -9 -26 -17 -3 -9 2 -11 17 -6 12 4 21 2 21 -4 0 -6 -11 -11 -25
-11 -19 0 -25 5 -25 20 0 17 -4 19 -16 12 -12 -7 -22 -4 -35 9 -19 19 -18 20
27 64 43 43 63 53 77 39z m42 -14 c3 -5 1 -10 -4 -10 -6 0 -11 5 -11 10 0 6 2
10 4 10 3 0 8 -4 11 -10z m-1234 -25 c5 4 9 1 9 -5 0 -7 7 -9 16 -6 9 3 12 2
9 -5 -11 -16 -57 -31 -67 -21 -5 5 -4 21 4 37 10 22 14 25 16 12 2 -10 8 -15
13 -12z m1405 9 c18 13 22 13 18 2 -3 -7 2 -16 12 -20 13 -5 14 -9 4 -21 -14
-17 -35 -21 -25 -5 4 7 -2 9 -18 5 -20 -6 -25 -2 -29 19 -3 14 -2 28 1 32 3 3
8 -2 9 -11 3 -15 6 -15 28 -1z m-1176 -18 c0 -3 -4 -8 -10 -11 -5 -3 -10 -1
-10 4 0 6 5 11 10 11 6 0 10 -2 10 -4z m128 -26 c5 -13 3 -13 -11 -1 -11 9
-17 10 -17 2 0 -6 -9 -11 -20 -11 -20 0 -26 11 -13 24 12 12 56 2 61 -14z
m404 -14 c16 -22 16 -24 -13 -45 -36 -26 -41 -66 -7 -58 12 4 28 1 35 -4 16
-14 33 -3 33 20 0 13 12 22 41 29 l41 10 -6 -30 c-3 -17 -6 -43 -6 -58 0 -24
-7 -30 -47 -45 -60 -23 -137 -25 -157 -5 -13 13 -12 22 5 75 25 76 50 135 58
135 3 0 14 -11 23 -24z m-537 4 c-3 -5 -16 -10 -28 -10 -18 0 -19 2 -7 10 20
13 43 13 35 0z m807 -22 c-5 -5 -7 -37 -4 -74 4 -53 2 -65 -12 -70 -9 -3 -16
-13 -16 -21 0 -26 -25 -8 -28 20 -2 15 -7 27 -12 27 -13 0 -18 -24 -13 -53 3
-17 1 -27 -6 -27 -7 0 -11 8 -10 18 4 47 -1 71 -16 66 -12 -5 -14 0 -9 27 9
50 34 79 84 99 43 17 65 11 42 -12z m-1097 12 c-3 -5 7 -12 22 -16 32 -8 53
-22 53 -36 0 -6 -7 -4 -16 3 -21 17 -45 18 -62 2 -23 -22 -42 -15 -42 15 0 16
3 32 7 35 10 11 45 8 38 -3z m225 -20 c0 -16 -4 -30 -8 -30 -6 0 -9 47 -3 58
5 10 11 -3 11 -28z m-110 -11 c0 -16 -4 -28 -9 -25 -8 5 -3 56 5 56 2 0 4 -14
4 -31z m1338 1 c-7 -11 -34 -27 -60 -36 -25 -8 -52 -22 -60 -31 -11 -15 -11
-16 7 -8 25 10 82 19 75 12 -3 -3 -28 -15 -57 -26 l-52 -20 10 27 c6 15 10 29
10 32 -1 3 6 13 14 23 20 23 10 22 -28 -5 l-32 -21 26 28 c26 26 61 39 127 43
30 3 32 1 20 -18z m317 -10 c-10 -11 -20 -18 -23 -15 -3 3 3 14 13 25 10 11
20 18 23 15 3 -3 -3 -14 -13 -25z m305 -66 c0 -47 -4 -83 -9 -80 -5 3 -8 20
-7 38 2 18 -1 44 -6 58 -8 21 5 70 19 70 2 0 3 -39 3 -86z m-107 43 c18 -8 38
-21 46 -30 11 -14 5 -13 -34 4 -38 17 -61 20 -119 17 -39 -3 -80 -9 -91 -13
-18 -8 -18 -7 -7 8 21 26 154 35 205 14z m-1665 -30 c13 4 12 2 -3 -11 -19
-15 -19 -17 -2 -30 22 -17 22 -22 -3 -29 -27 -7 -25 -25 3 -30 l22 -4 -22 -8
c-19 -6 -22 -13 -18 -36 3 -15 1 -31 -5 -34 -5 -3 -10 -15 -10 -26 0 -11 5
-17 10 -14 6 3 10 2 10 -4 0 -5 -6 -12 -12 -14 -7 -3 1 -6 17 -7 l30 -2 -30
-8 c-24 -6 -26 -8 -7 -9 28 -1 29 -21 1 -21 -20 0 -20 -2 -7 -22 14 -22 14
-58 0 -58 -31 1 -34 28 -20 230 9 146 18 197 25 153 3 -15 9 -20 21 -16z
m-275 16 c4 -3 -1 -11 -9 -18 -11 -8 -14 -19 -10 -33 7 -22 26 -31 26 -12 0 6
5 10 10 10 6 0 10 -13 10 -30 0 -16 -4 -30 -10 -30 -5 0 -7 8 -3 18 4 11 3 14
-4 7 -6 -5 -14 -20 -18 -32 -5 -19 -2 -23 14 -23 32 0 25 -17 -9 -24 -49 -9
-71 11 -68 62 1 26 7 42 14 42 24 0 25 20 2 29 -15 7 -17 10 -7 10 9 1 22 8
29 16 13 16 23 19 33 8z m1204 -5 c0 -7 4 -22 9 -32 5 -14 4 -17 -5 -11 -8 4
-17 2 -22 -6 -6 -10 -9 -5 -9 17 0 30 6 44 20 44 4 0 7 -6 7 -12z m753 -27
c26 -13 36 -26 38 -47 2 -16 8 -34 13 -40 11 -14 1 -44 -15 -44 -14 0 -52 -82
-61 -131 l-7 -37 -44 14 c-32 9 -59 11 -92 4 -26 -4 -48 -7 -50 -6 -2 3 -4
162 -3 253 1 49 4 50 111 52 56 1 84 -4 110 -18z m-804 -14 c3 -13 4 -41 2
-63 -3 -31 -5 -35 -12 -19 -4 11 -14 34 -23 52 -8 17 -12 36 -9 42 12 19 35
12 42 -12z m-679 -34 c-3 -10 -5 -2 -5 17 0 19 2 27 5 18 2 -10 2 -26 0 -35z
m-319 11 c-36 -19 -35 -27 2 -19 19 4 30 3 30 -4 0 -6 -9 -11 -19 -11 -11 0
-23 -4 -26 -10 -3 -6 4 -10 17 -10 l23 -1 -25 -14 c-23 -13 -23 -14 -5 -16 16
-1 16 -2 3 -6 -9 -2 -19 -15 -22 -28 -4 -14 -15 -29 -26 -35 -22 -12 -26 -36
-7 -43 9 -4 9 -6 0 -6 -7 -1 -20 13 -29 30 -15 31 -15 35 11 99 26 65 48 88
85 89 8 0 3 -7 -12 -15z m1561 -121 c0 -94 -3 -120 -10 -98 -14 47 -9 225 7
225 2 0 4 -57 3 -127z m-1049 97 c0 -11 -4 -20 -9 -20 -5 0 -7 9 -4 20 3 11 7
20 9 20 2 0 4 -9 4 -20z m600 -37 c5 -21 11 -49 14 -63 6 -25 6 -25 -5 -2 -7
12 -17 22 -23 22 -7 0 -12 9 -13 20 -1 11 2 18 8 15 5 -4 9 3 9 14 0 11 -4 23
-10 26 -5 3 -10 11 -10 18 0 24 23 -12 30 -50z m-323 0 c-3 -10 -5 -4 -5 12 0
17 2 24 5 18 2 -7 2 -21 0 -30z m156 30 c-19 -7 -15 -31 6 -38 40 -12 52 -38
45 -99 -4 -31 -10 -56 -14 -56 -4 0 -12 18 -19 41 -7 22 -29 59 -49 81 -26 29
-31 38 -15 30 12 -7 29 -22 37 -34 9 -12 18 -19 22 -15 12 11 -5 37 -35 54
-29 17 -29 17 -7 29 11 7 26 12 31 12 6 0 4 -2 -2 -5z m90 -28 c-3 -8 0 -15 5
-15 6 0 13 8 15 18 4 13 5 11 6 -5 1 -16 -5 -23 -16 -23 -16 0 -16 -2 -3 -11
12 -8 12 -12 2 -16 -10 -4 -9 -8 5 -19 10 -7 13 -14 8 -14 -6 0 -10 -21 -9
-47 0 -27 -4 -51 -10 -55 -7 -5 -6 -8 4 -8 13 0 13 -1 0 -10 -10 -6 -11 -10
-2 -10 9 0 12 -28 12 -106 0 -90 -3 -109 -17 -121 -17 -14 -17 -14 0 -9 15 5
17 2 11 -17 -4 -12 -12 -25 -18 -29 -7 -5 -5 -8 6 -8 13 0 16 -8 14 -37 -2
-24 -7 -37 -15 -35 -8 1 -10 -2 -4 -10 15 -24 12 -102 -5 -115 -14 -12 -14
-13 4 -13 16 0 17 -2 4 -10 -9 -6 -10 -10 -3 -10 6 0 11 -9 10 -20 -2 -25 -9
-25 -30 -2 -12 13 -16 41 -17 117 -2 110 19 632 26 653 2 7 8 11 13 7 6 -3 8
-12 4 -20z m-279 -31 c3 -26 6 -64 6 -86 0 -22 5 -41 13 -43 13 -6 11 -125 -3
-125 -12 0 -50 108 -50 145 0 12 -8 47 -19 78 l-18 56 26 10 c14 5 29 10 32
10 4 1 9 -20 13 -45z m-851 -1 c-19 -47 -19 -47 -26 -29 -5 12 26 66 38 66 2
0 -3 -17 -12 -37z m272 7 c3 -6 -1 -7 -9 -4 -18 7 -21 14 -7 14 6 0 13 -4 16
-10z m493 -27 c14 -36 26 -81 46 -167 9 -37 26 -81 39 -96 32 -38 32 -103 -1
-108 -15 -2 -25 4 -33 22 -10 22 -15 24 -27 13 -8 -6 -21 -25 -28 -42 l-13
-30 -1 38 c0 51 -17 47 -31 -9 -10 -40 -31 -65 -44 -52 -3 2 9 58 25 123 31
120 56 296 46 321 -3 8 -2 14 3 14 5 0 13 -12 19 -27z m186 -29 c3 -30 4 -59
1 -64 -3 -5 -6 -55 -6 -112 -1 -102 -1 -103 -16 -63 -9 25 -12 58 -9 87 3 26
1 50 -5 53 -5 4 -9 1 -9 -6 0 -7 -3 -10 -6 -6 -3 3 0 21 7 41 10 26 10 44 2
71 -9 30 -9 37 5 45 27 15 29 13 36 -46z m-604 26 c0 -5 -9 -29 -20 -54 -14
-33 -23 -44 -35 -40 -10 4 -15 0 -15 -10 0 -9 5 -16 10 -16 6 0 0 -18 -12 -40
-24 -42 -59 -60 -37 -18 7 14 9 47 5 97 l-7 77 28 2 c15 1 31 6 36 11 10 10
47 3 47 -9z m-456 4 c16 -6 23 -34 8 -34 -10 0 -32 22 -32 32 0 10 3 10 24 2z
m2067 -18 c-10 -11 -8 -16 6 -24 16 -10 15 -12 -11 -22 -26 -10 -28 -13 -22
-50 6 -40 1 -43 -36 -23 -11 6 30 115 49 129 22 15 30 10 14 -10z m-764 2 c-2
-7 3 -18 11 -24 13 -9 13 -12 1 -19 -8 -5 -11 -5 -7 0 4 4 0 13 -9 20 -9 7
-13 17 -9 23 10 16 19 15 13 0z m-183 -14 c3 -8 2 -12 -4 -9 -6 3 -10 10 -10
16 0 14 7 11 14 -7z m-1084 -29 c5 3 10 1 10 -4 0 -6 -7 -11 -16 -11 -21 0
-54 19 -54 31 0 5 11 2 25 -7 13 -8 29 -13 35 -9z m154 10 c-4 -9 0 -15 7 -15
9 -1 7 -6 -5 -15 -20 -15 -20 -15 0 -16 10 0 13 -3 7 -6 -18 -7 -16 -23 3 -23
14 0 14 -2 0 -15 -8 -8 -19 -15 -25 -15 -15 0 -14 93 1 108 16 16 19 15 12 -3z
m296 -14 c0 -11 -11 -33 -24 -48 l-25 -28 22 47 c12 27 23 48 25 48 1 0 2 -9
2 -19z m-390 2 c0 -5 -7 -17 -15 -27 -8 -11 -15 -25 -15 -30 0 -6 8 -1 18 12
l18 23 19 -23 c11 -13 13 -17 5 -10 -21 18 -30 15 -30 -13 0 -18 -9 -29 -32
-41 -18 -9 -45 -28 -60 -42 -27 -25 -28 -25 -28 -4 0 11 4 24 10 27 5 3 10 11
10 16 0 6 -4 7 -10 4 -5 -3 -10 0 -10 8 0 7 16 21 35 30 19 9 41 30 50 47 14
27 35 41 35 23z m1037 -25 c-3 -7 -5 -2 -5 12 0 14 2 19 5 13 2 -7 2 -19 0
-25z m963 3 c0 -5 -9 -11 -20 -14 -22 -6 -28 8 -7 16 19 8 27 8 27 -2z m-2085
-10 c3 -6 -4 -15 -15 -21 -17 -9 -20 -8 -20 10 0 20 24 28 35 11z m1310 -15
c22 -15 298 -140 333 -151 23 -7 29 -34 12 -51 -6 -6 -11 -35 -11 -65 -1 -30
-6 -62 -11 -72 -9 -18 -10 -18 -31 1 -12 10 -37 24 -56 30 -40 14 -227 144
-258 181 -18 20 -23 38 -23 84 0 61 8 69 45 43z m776 -178 c1 -95 3 -237 5
-315 3 -123 2 -141 -11 -137 -8 4 -15 13 -15 21 0 22 -33 73 -47 73 -8 0 -3
-14 13 -37 22 -33 23 -38 9 -41 -38 -8 -42 2 -49 160 -3 84 -9 176 -11 203 -3
28 -2 43 1 35 22 -54 47 -100 55 -100 14 0 10 40 -5 46 -7 3 -19 23 -26 44 -7
22 -18 37 -23 33 -10 -6 -4 134 7 144 2 2 14 -2 25 -9 27 -17 57 0 53 31 -2
11 2 21 7 21 7 0 11 -58 12 -172z m-1761 142 c0 -5 -7 -7 -15 -4 -8 4 -15 8
-15 10 0 2 7 4 15 4 8 0 15 -4 15 -10z m760 -33 c0 -47 22 -77 69 -95 22 -8
22 -9 6 -25 -26 -26 -48 -22 -41 8 4 14 2 25 -4 25 -5 0 -13 -12 -16 -26 -5
-19 -2 -29 10 -36 9 -5 16 -20 16 -33 0 -14 8 -29 20 -35 16 -9 20 -21 20 -65
0 -93 -18 -71 -65 75 -30 93 -46 250 -26 250 6 0 11 -18 11 -43z m45 16 c10
-13 16 -15 27 -6 12 10 13 6 10 -23 -8 -64 -62 -53 -62 12 0 38 7 42 25 17z
m827 -11 c20 -20 -1 -31 -32 -15 -23 11 -46 13 -93 8 -42 -5 -59 -4 -52 3 27
28 150 31 177 4z m-1725 -34 c38 -18 70 -34 72 -36 3 -1 -10 -18 -28 -36 -22
-23 -31 -40 -27 -52 4 -15 -14 -36 -74 -89 -44 -38 -83 -81 -87 -94 -3 -14
-17 -40 -30 -59 -27 -40 -29 -56 -9 -74 12 -11 10 -20 -9 -59 -34 -66 -41
-114 -21 -144 9 -14 26 -25 37 -25 11 0 18 -4 15 -9 -9 -14 4 -41 20 -41 8 0
14 -7 14 -15 0 -21 10 -19 54 11 21 14 44 41 52 60 11 25 20 34 39 34 13 0 34
4 47 9 13 5 35 12 49 15 46 10 144 91 210 173 39 49 84 92 122 116 58 38 88
44 50 10 -13 -12 -26 -45 -36 -93 -24 -112 -26 -135 -28 -255 -1 -61 -5 -133
-10 -160 -40 -245 -65 -327 -126 -427 -20 -32 -33 -61 -30 -65 9 -8 4 -14 60
81 76 130 102 253 117 556 9 175 21 254 45 303 8 16 13 33 10 37 -3 4 1 13 9
19 17 15 82 -27 169 -109 54 -50 60 -60 62 -102 3 -32 -1 -48 -10 -52 -10 -4
-12 -21 -8 -73 6 -76 18 -117 33 -108 6 3 10 -4 10 -17 0 -17 8 -27 28 -34 28
-11 46 -54 92 -224 9 -35 22 -66 29 -68 13 -4 14 22 2 66 -10 32 4 47 15 17 9
-23 24 -18 24 9 0 31 -18 78 -33 88 -6 3 -16 -1 -23 -10 -10 -14 -16 -5 -36
61 -18 62 -28 79 -45 83 -25 7 -31 29 -11 37 10 4 10 8 -1 15 -11 8 -10 11 5
15 17 4 17 6 -3 12 -23 7 -32 25 -13 25 5 0 7 7 4 15 -5 11 7 15 60 17 84 4
83 24 -1 21 l-63 -1 -11 38 c-9 28 -9 46 0 71 14 41 14 49 -2 49 -6 0 -36 25
-65 55 -29 30 -82 76 -118 101 l-65 47 28 17 c15 9 40 20 56 23 18 5 27 14 27
27 0 26 15 33 30 15 17 -21 43 -19 73 5 l26 21 12 -22 c6 -12 37 -53 70 -91
66 -79 86 -141 74 -233 -5 -40 -3 -56 9 -67 9 -9 12 -24 9 -37 -4 -15 -1 -21
8 -19 11 2 14 -10 14 -49 -1 -29 -3 -54 -5 -56 -3 -3 -22 -7 -42 -11 -35 -6
-37 -5 -40 21 -2 20 -9 28 -23 28 -17 0 -20 -7 -20 -40 0 -36 3 -40 28 -43 15
-2 27 1 27 6 0 16 42 22 55 8 14 -14 65 -204 67 -251 1 -17 -2 -39 -7 -49 -7
-16 -5 -18 8 -13 9 3 17 2 17 -3 0 -6 6 -10 14 -10 8 0 17 -11 20 -24 3 -13 9
-32 13 -41 4 -12 2 -16 -8 -13 -7 2 -29 -6 -48 -19 -54 -37 -70 -30 -80 36 -4
19 -12 36 -18 38 -12 4 -12 -11 3 -84 8 -40 36 -46 95 -18 40 18 56 21 66 13
21 -17 65 7 61 32 -2 16 11 28 56 53 99 55 102 83 8 79 -68 -3 -96 13 -97 54
0 21 -5 29 -18 29 -24 0 -63 90 -72 165 -13 116 -46 235 -69 251 -4 4 -3 10 3
13 6 4 11 2 11 -3 0 -16 36 -13 49 3 8 9 12 44 11 88 -2 126 -2 126 23 125 12
-1 32 2 45 7 16 5 22 3 22 -7 0 -21 29 -44 77 -60 36 -12 43 -12 47 0 8 19 26
7 26 -17 0 -43 118 -66 141 -28 6 10 12 7 24 -9 22 -31 84 -33 92 -3 5 18 7
18 26 5 12 -8 38 -15 59 -15 29 0 45 -7 71 -33 50 -50 108 -87 139 -87 40 0
45 -20 12 -44 -42 -30 -64 -54 -64 -68 0 -7 10 -1 23 14 12 14 32 31 45 37 21
11 22 10 22 -36 0 -42 -4 -50 -28 -64 -34 -19 -92 -104 -92 -135 0 -14 -13
-33 -34 -49 -41 -31 -54 -80 -61 -221 -3 -71 -10 -101 -32 -147 l-27 -58 -50
3 -49 3 -4 77 c-4 76 -3 78 19 78 13 0 34 3 47 7 23 6 24 5 18 -53 l-6 -59 14
55 c8 30 19 89 25 131 18 132 53 233 103 301 11 14 16 31 13 37 -12 18 -26 12
-26 -10 0 -11 -11 -39 -24 -62 -26 -45 -70 -184 -81 -254 -6 -38 -10 -43 -33
-42 -15 0 -21 3 -14 6 24 10 11 25 -18 21 -16 -3 -30 -1 -30 4 0 8 30 12 58 9
6 -1 12 3 12 10 0 8 -12 10 -37 6 l-38 -5 30 13 30 14 -33 1 c-26 0 -33 4 -30
17 2 10 11 19 21 21 22 4 22 -15 0 -22 -10 -2 -4 -4 12 -3 46 3 39 31 -8 35
-34 3 -38 1 -43 -27 -5 -23 -12 -31 -33 -33 -34 -4 -34 -22 2 -26 36 -4 35
-18 -3 -26 -42 -8 -40 -36 3 -37 l32 -1 -33 -8 c-42 -10 -55 -22 -46 -43 9
-24 27 -21 21 3 -4 17 0 20 24 20 29 0 29 -1 29 -57 0 -32 3 -68 6 -80 l6 -22
-708 -1 -708 0 20 22 c55 62 220 432 231 517 7 55 -13 26 -26 -38 -17 -82
-133 -330 -195 -419 -64 -92 -58 -89 -234 -84 l-103 3 0 47 c0 26 -4 162 -8
302 -5 140 -10 400 -10 578 l-1 323 46 49 c25 27 55 51 67 53 55 11 91 5 154
-25z m1701 -14 c14 -10 21 -21 18 -31 -3 -8 -6 -23 -6 -33 0 -9 -18 -37 -41
-60 -34 -35 -45 -41 -67 -35 -15 3 -35 7 -44 8 -10 1 -18 6 -19 12 -1 5 -2 30
-3 55 -1 25 -5 52 -9 60 -6 12 3 20 35 32 47 19 99 16 136 -8z m-941 -31 c-3
-10 -5 -2 -5 17 0 19 2 27 5 18 2 -10 2 -26 0 -35z m375 -69 c50 -36 118 -79
150 -94 33 -16 68 -36 78 -45 10 -9 29 -15 42 -13 19 2 23 9 24 43 4 106 2
100 23 81 11 -10 24 -15 29 -12 10 6 43 -35 77 -101 24 -44 25 -58 4 -58 -5 0
-9 -4 -8 -10 0 -5 7 -9 15 -9 8 1 14 -2 14 -7 0 -5 8 -9 19 -9 25 0 43 -24 39
-52 -4 -33 -35 -35 -49 -4 -9 19 -20 26 -41 26 -23 0 -28 -4 -28 -24 0 -14 -5
-28 -11 -31 -18 -12 -59 4 -59 23 0 48 -53 56 -69 11 -8 -24 -15 -29 -31 -25
-11 3 -29 9 -40 12 -13 3 -23 17 -27 35 -7 38 -18 44 -53 29 -23 -9 -34 -9
-60 5 -26 14 -31 21 -26 40 5 20 2 26 -20 31 -20 5 -31 2 -41 -12 -10 -14 -17
-16 -30 -8 -13 8 -18 28 -20 82 -1 40 2 72 6 72 4 0 25 -16 47 -36 68 -63 152
-112 237 -138 89 -28 187 -38 194 -20 2 7 -5 10 -20 7 -35 -7 -119 13 -215 50
-107 42 -252 156 -252 200 0 15 2 27 5 27 3 0 46 -30 97 -66z m354 11 c-21
-16 -32 -13 -21 4 3 6 14 11 23 11 15 -1 15 -2 -2 -15z m-663 -25 c3 -11 1
-18 -4 -14 -5 3 -9 12 -9 20 0 20 7 17 13 -6z m113 -6 c-3 -9 -6 -23 -6 -32 0
-12 -3 -13 -11 -5 -13 13 -3 53 13 53 5 0 7 -7 4 -16z m779 -34 c-4 -12 -2
-20 6 -20 8 0 9 -3 0 -13 -8 -10 -7 -19 4 -33 16 -22 20 -48 5 -39 -6 4 -10
-30 -10 -94 0 -61 4 -101 10 -101 6 0 10 -8 10 -17 0 -13 -7 -10 -31 13 -25
24 -28 30 -13 33 14 2 14 5 3 12 -10 6 -10 9 -1 9 19 0 14 20 -5 21 -17 1 -17
2 0 6 9 2 17 9 17 14 0 5 -8 9 -17 10 -15 0 -15 2 2 9 19 9 19 9 -2 16 -26 7
-31 24 -8 24 21 0 19 20 -2 21 -12 1 -9 4 7 9 l25 7 -25 11 c-18 8 -20 11 -7
11 9 1 17 6 17 11 0 6 -8 10 -17 10 -16 1 -16 2 -2 13 16 12 14 37 -5 49 -7 5
-4 8 7 8 9 0 17 5 17 10 0 6 5 10 11 10 6 0 8 -9 4 -20z m-880 0 c-3 -5 -11
-10 -16 -10 -6 0 -7 5 -4 10 3 6 11 10 16 10 6 0 7 -4 4 -10z m785 -50 c0 -10
6 -23 13 -27 8 -4 16 -18 20 -31 4 -18 2 -22 -10 -18 -8 3 -19 6 -24 6 -5 0
-9 8 -9 18 0 9 -7 26 -15 36 -20 27 -19 36 5 36 13 0 20 -7 20 -20z m30 -1 c0
-11 -4 -17 -10 -14 -5 3 -10 13 -10 21 0 8 5 14 10 14 6 0 10 -9 10 -21z m-70
-10 c0 -6 -4 -7 -10 -4 -5 3 -10 11 -10 16 0 6 5 7 10 4 6 -3 10 -11 10 -16z
m70 -112 c0 -6 -9 -2 -20 8 -11 10 -20 23 -20 28 0 6 9 2 20 -8 11 -10 20 -23
20 -28z m-1714 -288 c-20 -33 -36 -67 -36 -75 0 -8 -4 -14 -10 -14 -5 0 -6 8
-3 17 5 13 2 15 -11 10 -42 -16 -23 55 27 102 25 22 26 23 20 2 -6 -24 15 -30
22 -6 14 44 17 50 22 37 3 -7 -11 -40 -31 -73z m24 -23 c0 -15 -18 -31 -26
-23 -7 7 7 37 17 37 5 0 9 -6 9 -14z m1040 -90 c0 -8 -4 -18 -10 -21 -5 -3
-10 3 -10 14 0 12 5 21 10 21 6 0 10 -6 10 -14z m860 -5 c0 -10 -14 -48 -32
-82 -45 -92 -58 -148 -65 -288 -3 -69 -12 -143 -18 -165 -12 -40 -14 -41 -59
-44 -51 -3 -52 -3 -32 36 17 35 49 163 41 170 -9 10 -15 -4 -26 -63 -13 -72
-36 -132 -53 -138 -8 -3 -3 15 12 46 21 42 27 74 33 167 8 123 16 167 30 176
5 3 9 -4 9 -15 0 -12 4 -21 10 -21 5 0 7 7 4 14 -3 8 3 25 14 37 12 12 24 40
28 62 5 30 19 54 48 84 46 47 56 51 56 24z m-862 -72 c-3 -8 -7 -3 -11 10 -4
17 -3 21 5 13 5 -5 8 -16 6 -23z m864 -417 l-3 -92 -50 0 c-44 0 -49 2 -49 23
0 12 5 38 11 57 6 19 14 87 19 151 9 122 23 191 49 249 16 34 16 30 21 -130 3
-91 4 -207 2 -258z m-803 231 c1 -12 -3 -24 -8 -27 -7 -5 -42 128 -40 157 1
19 48 -106 48 -130z m41 23 c0 -3 -4 -8 -10 -11 -5 -3 -10 -1 -10 4 0 6 5 11
10 11 6 0 10 -2 10 -4z m10 -129 c7 -37 10 -70 7 -73 -8 -8 -37 100 -37 138 1
48 15 18 30 -65z m129 46 c-5 -11 -62 -50 -87 -57 -15 -5 -21 -1 -26 19 -9 35
-2 42 31 38 15 -3 39 0 53 5 26 10 34 9 29 -5z m216 -53 c-3 -5 -10 -10 -16
-10 -5 0 -9 5 -9 10 0 6 7 10 16 10 8 0 12 -4 9 -10z m105 -19 c0 -11 -48 -24
-60 -16 -21 13 -8 25 25 25 19 0 35 -4 35 -9z"/>
<path d="M1042 3653 c-76 -2 -121 -7 -117 -13 3 -6 15 -10 25 -10 11 0 28 -17
43 -45 l26 -45 -24 -6 c-13 -3 -28 -3 -34 0 -5 4 -12 2 -16 -4 -4 -7 38 -10
124 -10 76 0 132 4 136 10 4 6 -5 10 -19 10 -24 0 -26 3 -26 50 0 47 2 50 25
50 14 0 25 5 25 10 0 6 -10 9 -22 8 -13 -1 -78 -4 -146 -5z m13 -23 c3 -5 0
-22 -8 -36 l-14 -27 -18 26 c-9 14 -14 31 -10 37 8 13 42 13 50 0z m75 -9 c5
-11 10 -33 10 -50 0 -30 -1 -31 -45 -31 l-45 0 17 43 c23 59 44 72 63 38z"/>
<path d="M1138 2513 c7 -3 16 -2 19 1 4 3 -2 6 -13 5 -11 0 -14 -3 -6 -6z"/>
<path d="M457 1953 c3 -10 17 -28 29 -39 13 -12 24 -27 24 -35 0 -9 3 -10 11
-2 13 13 -17 62 -38 63 -7 0 -13 7 -13 15 0 8 -4 15 -10 15 -5 0 -7 -8 -3 -17z"/>
<path d="M1627 2343 c-4 -3 -7 -11 -7 -17 0 -6 5 -5 12 2 6 6 9 14 7 17 -3 3
-9 2 -12 -2z"/>
<path d="M1658 2073 c7 -3 16 -2 19 1 4 3 -2 6 -13 5 -11 0 -14 -3 -6 -6z"/>
<path d="M731 2062 c-19 -9 -37 -23 -39 -29 -5 -18 30 -16 54 2 10 8 25 15 32
15 21 0 13 -16 -13 -28 -14 -6 -25 -18 -25 -27 0 -19 5 -19 41 2 35 21 49 11
24 -17 -28 -31 -8 -37 23 -7 23 23 25 30 14 45 -7 9 -15 24 -19 32 -15 34 -42
38 -92 12z"/>
<path d="M822 1920 c-28 -26 -54 -75 -63 -120 -7 -34 -7 -34 -7 -5 -1 17 5 47
12 68 13 34 6 52 -10 26 -16 -27 -32 -112 -27 -149 6 -43 23 -55 23 -16 0 19
4 23 20 19 17 -4 20 0 20 23 0 16 7 42 15 57 8 15 12 34 9 41 -3 8 -1 17 5 21
7 4 8 0 4 -11 -4 -12 -3 -15 6 -10 6 4 9 16 6 26 -9 28 24 34 45 8 23 -28 37
-17 22 17 -14 31 -50 33 -80 5z"/>
<path d="M847 1483 c-13 -12 -7 -43 8 -43 9 0 15 9 15 25 0 24 -10 32 -23 18z"/>
<path d="M826 1389 c-3 -18 -4 -35 -1 -37 9 -9 23 11 27 37 5 37 -18 36 -26 0z"/>
<path d="M1076 1734 c-4 -10 -1 -14 6 -12 15 5 23 28 10 28 -5 0 -13 -7 -16
-16z"/>
<path d="M1890 1690 c0 -12 28 -21 35 -11 2 5 -4 11 -15 14 -11 3 -20 2 -20
-3z"/>
<path d="M1869 1676 c-3 -3 -3 -21 -1 -41 5 -41 34 -64 58 -44 28 23 10 69
-27 69 -10 0 -19 5 -21 11 -2 5 -6 8 -9 5z m31 -66 c0 -5 -2 -10 -4 -10 -3 0
-8 5 -11 10 -3 6 -1 10 4 10 6 0 11 -4 11 -10z"/>
<path d="M455 1530 c-3 -5 1 -10 9 -10 9 0 16 5 16 10 0 6 -4 10 -9 10 -6 0
-13 -4 -16 -10z"/>
<path d="M465 1490 c-3 -5 1 -10 10 -10 9 0 13 5 10 10 -3 6 -8 10 -10 10 -2
0 -7 -4 -10 -10z"/>
<path d="M2135 1360 c-3 -5 -1 -10 4 -10 6 0 11 5 11 10 0 6 -2 10 -4 10 -3 0
-8 -4 -11 -10z"/>
<path d="M2130 1320 c0 -5 5 -10 11 -10 5 0 7 5 4 10 -3 6 -8 10 -11 10 -2 0
-4 -4 -4 -10z"/>
<path d="M2060 1315 c0 -15 18 -40 24 -34 3 3 -1 14 -9 25 -8 10 -14 15 -15 9z"/>
<path d="M2075 1110 c13 -49 51 -115 68 -118 9 -2 17 2 17 10 0 20 -38 73 -52
73 -7 0 -14 9 -16 20 -2 11 -9 25 -14 30 -7 7 -8 2 -3 -15z"/>
<path d="M2090 983 c0 -19 54 -113 66 -113 9 0 2 18 -31 75 -24 43 -34 54 -35
38z"/>
<path d="M681 935 c-13 -35 -22 -89 -26 -152 -13 -250 -18 -289 -51 -400 -38
-126 -75 -217 -95 -228 -8 -6 -11 -4 -7 6 20 49 20 55 -1 30 -12 -13 -21 -32
-21 -43 0 -15 4 -18 23 -12 37 11 70 84 122 266 40 140 55 245 53 374 -1 79 3
99 26 149 30 67 30 65 12 65 -8 0 -23 -23 -35 -55z"/>
<path d="M873 955 c-3 -9 -3 -18 -1 -21 3 -3 8 4 11 16 6 23 -1 27 -10 5z"/>
<path d="M890 917 c0 -20 -16 -23 -24 -4 -3 6 -4 -4 -1 -24 3 -19 0 -60 -6
-90 -6 -30 -12 -81 -13 -114 -2 -33 -10 -105 -19 -160 -27 -165 -37 -269 -28
-278 4 -4 14 54 20 130 7 76 16 145 21 153 15 30 66 387 56 397 -3 4 -6 -1 -6
-10z m-24 -203 c-4 -9 -9 -15 -11 -12 -3 3 -3 13 1 22 4 9 9 15 11 12 3 -3 3
-13 -1 -22z"/>
<path d="M1860 910 c-2 -13 -2 -186 0 -195 4 -17 18 78 19 125 0 25 -4 52 -9
60 -5 8 -10 13 -10 10z"/>
<path d="M1940 863 c0 -10 5 -25 10 -33 8 -12 10 -9 10 12 0 15 -4 30 -10 33
-5 3 -10 -2 -10 -12z"/>
<path d="M1907 833 c-4 -3 -7 -22 -7 -42 0 -35 -13 -103 -44 -231 -9 -36 -16
-76 -16 -90 0 -28 35 -79 46 -67 4 4 0 15 -9 25 -23 25 -21 62 7 184 24 99 43
228 34 228 -3 0 -8 -3 -11 -7z"/>
<path d="M1946 728 c-13 -119 -16 -224 -6 -193 6 17 7 42 4 57 -3 16 -1 43 5
60 17 54 24 128 13 128 -5 0 -13 -24 -16 -52z"/>
<path d="M2079 758 c-33 -18 -98 -113 -86 -125 3 -3 13 9 22 27 19 37 45 64
86 89 42 26 22 34 -22 9z"/>
<path d="M581 668 c-8 -29 -20 -73 -28 -98 -22 -65 -140 -305 -167 -338 -13
-15 -31 -43 -41 -62 -28 -56 -106 -131 -89 -85 8 19 -10 19 -26 0 -30 -36 33
-43 72 -8 20 18 92 124 138 202 58 99 170 378 170 423 0 36 -17 17 -29 -34z"/>
<path d="M1174 521 c4 -40 29 -82 40 -70 8 8 -12 73 -30 94 -14 19 -15 17 -10
-24z"/>
<path d="M960 471 c0 -32 -13 -113 -30 -179 -30 -122 -39 -225 -20 -237 6 -4
10 18 10 60 0 41 11 108 29 178 26 95 36 169 32 225 -1 6 -5 12 -11 12 -6 0
-10 -26 -10 -59z"/>
<path d="M226 392 c-28 -88 -75 -178 -119 -228 -22 -25 -37 -47 -34 -50 19
-19 162 224 181 309 11 50 -9 28 -28 -31z"/>
<path d="M974 140 c0 -45 5 -74 11 -71 6 1 8 8 6 15 -2 6 -7 38 -11 71 l-8 60
2 -75z"/>
<path d="M1820 155 c0 -8 5 -15 10 -15 6 0 10 7 10 15 0 8 -4 15 -10 15 -5 0
-10 -7 -10 -15z"/>
<path d="M1877 1284 c-11 -11 -8 -56 3 -49 6 3 10 -1 10 -10 0 -9 -4 -13 -10
-10 -5 3 -10 1 -10 -4 0 -6 9 -11 20 -11 29 0 38 46 13 71 -10 11 -22 16 -26
13z"/>
</g>
</svg>
