<?xml version="1.0" standalone="no"?>
<!DOCTYPE svg PUBLIC "-//W3C//DTD SVG 20010904//EN"
 "http://www.w3.org/TR/2001/REC-SVG-20010904/DTD/svg10.dtd">
<svg version="1.0" xmlns="http://www.w3.org/2000/svg"
 width="219.000000pt" height="377.000000pt" viewBox="0 0 219.000000 377.000000"
 preserveAspectRatio="xMidYMid meet">
<metadata>
Created by potrace 1.16, written by Peter Selinger 2001-2019
</metadata>
<g transform="translate(0.000000,377.000000) scale(0.100000,-0.100000)"
fill="#000000" stroke="none">
<path d="M57 3728 c-3 -18 -6 -127 -6 -243 -1 -223 -8 -791 -16 -1215 -2 -140
-7 -455 -10 -700 -3 -245 -8 -668 -11 -940 -6 -472 -7 -591 -5 -616 1 -9 279
-12 1081 -11 l1080 1 -1 615 c-1 356 -5 597 -10 571 -4 -25 -8 -192 -9 -372
l-1 -328 -55 0 c-31 0 -54 4 -54 11 0 7 16 8 45 3 29 -4 45 -3 45 4 0 6 -12
13 -27 15 -25 4 -25 4 5 6 38 1 40 20 4 36 -12 5 -22 16 -22 23 0 15 -50 6
-65 -12 -5 -7 -18 -15 -27 -19 -22 -8 -24 -27 -2 -27 8 0 12 -4 9 -10 -13 -20
-33 -9 -39 22 -5 23 -2 36 10 47 9 9 14 10 10 4 -4 -7 -2 -13 4 -13 16 0 25
31 11 39 -8 5 -10 18 -5 37 l7 28 -25 -16 -26 -17 -7 52 c-3 29 -13 87 -21
131 -16 92 -18 136 -4 136 6 0 10 -8 10 -19 0 -26 28 -49 35 -29 3 8 5 19 4
24 -1 5 -1 20 0 34 l1 24 16 -22 c8 -12 24 -27 36 -33 17 -9 24 -6 48 22 33
40 29 61 -17 96 -54 41 -97 101 -84 116 7 10 7 17 0 24 -8 8 -8 13 0 17 12 8
15 56 4 56 -5 0 -17 -13 -28 -29 l-20 -29 -53 66 c-28 37 -52 76 -52 87 -1 11
-9 45 -20 75 -16 47 -22 55 -47 58 -37 5 -52 18 -46 42 3 12 -4 24 -21 35 -25
16 -66 92 -66 121 0 7 -8 15 -18 19 -21 6 -37 35 -58 105 -12 39 -11 46 2 53
11 6 13 20 8 60 -8 61 -19 87 -39 87 -8 0 -18 12 -21 28 -9 37 -116 142 -146
142 -13 0 -31 9 -41 20 -18 21 -37 27 -37 11 0 -6 5 -13 10 -16 15 -10 1 -25
-36 -41 -19 -8 -34 -19 -34 -24 0 -13 50 -2 71 16 31 27 64 16 121 -39 46 -44
88 -102 88 -121 0 -2 -14 -9 -30 -15 -17 -5 -33 -18 -36 -28 -11 -34 -27 -63
-36 -63 -13 0 -9 30 7 46 8 9 15 23 14 32 0 14 -3 13 -16 -6 -8 -12 -22 -22
-29 -22 -20 0 -17 9 9 30 12 10 19 22 14 26 -4 4 -15 -2 -23 -15 l-16 -23 -49
55 c-27 30 -71 82 -100 116 l-51 61 34 0 c18 0 44 3 56 7 21 5 23 10 17 39 -5
31 -4 34 18 34 14 0 40 7 59 15 27 11 37 22 42 46 3 18 13 40 20 48 8 9 19 35
25 58 10 38 9 46 -17 95 -17 30 -37 55 -48 56 -10 2 -28 12 -39 22 -45 40
-142 32 -183 -15 -12 -14 -31 -25 -42 -25 -22 0 -26 -20 -9 -37 9 -9 4 -12
-20 -11 -39 1 -51 -10 -28 -26 21 -16 21 -20 2 -40 -14 -14 -14 -18 6 -46 13
-16 29 -30 36 -30 7 0 13 -5 13 -11 0 -6 -6 -9 -12 -6 -7 2 -29 10 -48 17 -26
9 -57 39 -114 112 -126 158 -159 214 -152 254 5 23 2 41 -10 59 -18 27 -89 69
-103 61 -10 -7 -72 58 -104 109 -13 22 -34 51 -46 64 -11 13 -21 29 -21 36 0
18 -34 45 -55 45 -18 0 -18 1 1 15 18 14 18 16 2 28 -10 8 -15 17 -12 20 4 3
3 14 -1 24 -6 16 -8 16 -26 -6 l-19 -23 0 24 c0 26 -32 63 -43 52 -9 -9 3 -54
21 -81 8 -14 10 -23 4 -23 -6 0 -14 5 -17 10 -10 16 -23 12 -35 -10 -8 -15 -6
-21 10 -30 13 -7 26 -7 38 -1 21 11 32 5 49 -26 8 -14 9 -24 3 -28 -6 -3 -10
-1 -10 4 0 6 -4 11 -10 11 -5 0 -10 -10 -10 -23 0 -15 28 -57 75 -111 41 -48
75 -92 75 -97 0 -16 -15 -10 -28 11 -13 21 -46 27 -57 11 -3 -5 6 -18 20 -29
25 -20 24 -35 -1 -25 -8 3 -14 0 -14 -5 0 -20 21 -24 45 -8 18 12 25 12 28 3
4 -9 8 -8 16 3 16 23 59 -22 54 -58 -10 -63 -14 -72 -32 -72 -27 0 -45 -27
-45 -65 0 -21 -11 -48 -28 -72 -53 -74 -98 -171 -98 -213 0 -35 4 -42 38 -63
20 -13 56 -27 79 -30 23 -4 53 -12 66 -18 22 -10 24 -16 19 -56 -4 -42 -3 -47
34 -79 21 -18 49 -34 61 -34 18 0 22 -7 25 -37 2 -21 0 -60 -4 -88 -21 -138
-27 -219 -17 -231 7 -9 1 -18 -21 -34 -68 -48 -153 -192 -175 -294 l-12 -61
-8 66 c-4 37 -4 80 -1 96 5 21 1 36 -14 55 l-20 27 22 3 c31 4 34 26 4 34 -17
4 -26 14 -28 32 -2 21 -9 28 -30 30 -29 3 -36 -10 -19 -37 6 -10 3 -20 -12
-33 -21 -18 -22 -18 -3 -33 18 -14 18 -15 -4 -33 -22 -18 -23 -19 -7 -68 9
-27 21 -97 27 -157 6 -59 13 -114 16 -122 8 -19 -10 -19 -26 0 -14 16 -50 21
-50 6 0 -5 7 -16 15 -25 8 -8 15 -22 15 -30 0 -19 26 -21 33 -3 4 9 8 8 16 -3
15 -22 13 -67 -3 -73 -48 -19 -126 -303 -126 -460 0 -53 -2 -58 -30 -72 -30
-16 -39 -38 -19 -50 20 -13 -31 -48 -73 -50 -39 -2 -68 -19 -55 -31 3 -4 13 1
22 10 9 9 21 13 27 10 5 -4 1 -14 -11 -25 -27 -26 -38 -68 -20 -80 18 -11 52
-11 65 -1 5 5 30 16 55 26 25 9 56 28 69 41 13 14 28 25 34 25 5 0 1 -7 -10
-16 -18 -14 -18 -15 6 -8 14 3 32 13 41 20 8 8 30 14 48 14 21 0 30 4 25 11
-3 6 0 15 7 20 11 6 8 9 -8 9 -30 0 -44 27 -30 58 9 20 8 26 -7 34 -21 12 -16
44 21 125 18 38 28 51 33 42 13 -24 29 -243 18 -250 -7 -4 -7 -9 0 -13 6 -3
13 -50 16 -104 4 -53 9 -117 12 -141 4 -34 3 -41 -8 -35 -14 9 -17 9 -90 20
-27 4 -55 15 -65 26 -17 19 -17 21 5 38 12 10 22 25 22 33 0 8 11 18 25 21 33
8 32 26 -1 26 -15 0 -37 -11 -52 -28 -49 -51 -80 -65 -131 -59 -34 4 -51 1
-64 -11 -16 -14 -20 -14 -47 6 -16 12 -33 22 -38 22 -5 0 0 55 10 123 10 67
27 187 38 267 17 129 25 177 44 285 3 17 15 109 26 205 12 96 24 185 26 197 6
24 42 37 61 22 18 -16 34 -1 27 26 -3 12 -1 26 5 29 13 8 15 56 2 56 -5 0 -14
-7 -21 -15 -9 -11 -16 -12 -25 -5 -6 5 -15 7 -18 3 -12 -11 -8 21 18 162 14
75 33 151 42 168 13 26 14 37 3 65 -15 42 -9 48 26 25 l28 -18 -8 25 c-4 14
-11 43 -14 65 -6 31 -11 40 -27 40 -16 0 -20 -6 -19 -32 2 -37 -1 -39 -22 -18
-15 14 -44 10 -44 -7 0 -5 11 -20 24 -33 14 -14 20 -27 15 -30 -5 -4 -9 -4 -9
0 0 3 -14 -1 -30 -10 -22 -11 -30 -23 -31 -43 -1 -85 -26 -236 -28 -176 -1 34
-23 46 -54 31 -27 -12 -36 -40 -17 -52 6 -3 10 -15 10 -26 0 -23 25 -36 43
-21 14 12 12 -22 -12 -168 -6 -41 -23 -163 -37 -270 -14 -107 -30 -232 -36
-277 -6 -46 -14 -83 -18 -83 -4 0 -6 39 -4 88 3 91 14 849 19 1367 2 165 6
419 9 565 3 146 8 402 11 570 3 168 8 324 11 346 l5 42 372 -4 c205 -1 665 -5
1022 -9 358 -3 655 -5 660 -5 11 0 12 -1634 1 -2060 -3 -129 -2 -278 2 -330
14 -179 24 343 27 1405 l2 1011 -306 -1 c-168 0 -644 4 -1057 8 l-751 9 -6
-34z m303 -509 c0 -5 -4 -9 -10 -9 -5 0 -10 7 -10 16 0 8 5 12 10 9 6 -3 10
-10 10 -16z m-30 -69 c0 -5 -4 -10 -10 -10 -5 0 -10 5 -10 10 0 6 5 10 10 10
6 0 10 -4 10 -10z m134 -65 c9 -13 16 -31 16 -39 0 -9 9 -20 20 -26 11 -6 20
-17 20 -25 0 -8 4 -15 9 -15 4 0 22 -22 39 -49 27 -45 29 -51 14 -63 -13 -11
-15 -11 -9 5 4 11 1 17 -9 17 -11 0 -13 6 -9 20 6 19 -2 25 -32 21 -7 -1 -17
7 -22 18 -6 11 -18 26 -27 35 -8 9 -18 33 -21 53 -3 21 -12 42 -20 46 -17 10
-17 27 1 27 7 0 21 -11 30 -25z m166 -255 c0 -5 -2 -10 -4 -10 -3 0 -8 5 -11
10 -3 6 -1 10 4 10 6 0 11 -4 11 -10z m62 -12 c-7 -7 -12 -8 -12 -2 0 14 12
26 19 19 2 -3 -1 -11 -7 -17z m19 -35 c-12 -20 -14 -14 -5 12 4 9 9 14 11 11
3 -2 0 -13 -6 -23z m39 -17 c0 -8 -4 -18 -10 -21 -5 -3 -10 3 -10 14 0 12 5
21 10 21 6 0 10 -6 10 -14z m-121 -63 c-12 -31 -2 -45 15 -21 16 21 77 22 69
1 -4 -9 -15 -13 -29 -10 -13 2 -29 -2 -35 -9 -8 -10 -16 -11 -29 -4 -25 13
-31 36 -20 66 8 21 13 24 25 14 10 -9 11 -18 4 -37z m-14 -64 c57 -25 54 -36
-4 -13 -23 9 -52 13 -66 10 -24 -6 -33 3 -18 17 11 12 39 8 88 -14z m183 -12
c12 -17 40 -54 63 -82 22 -27 65 -88 96 -135 32 -47 60 -86 65 -88 7 -4 78
-99 78 -106 0 -3 -8 -6 -17 -8 -21 -4 -70 49 -65 71 3 13 2 13 -14 0 -16 -12
-17 -12 -11 4 3 9 2 17 -4 17 -6 0 -7 5 -4 10 3 6 -4 10 -15 10 -16 0 -20 5
-16 15 3 9 0 15 -9 15 -9 0 -12 6 -8 17 5 12 3 14 -7 8 -10 -6 -12 -4 -7 8 4
10 0 17 -10 19 -14 3 -46 75 -39 87 5 7 -26 37 -34 33 -3 -1 -5 10 -5 25 -1
15 -7 29 -15 31 -23 7 -60 44 -54 53 3 5 0 9 -5 9 -6 0 -11 5 -11 10 0 21 26
9 48 -23z m-90 -17 c38 -45 39 -50 12 -50 -30 0 -26 -38 5 -52 14 -6 25 -19
25 -29 0 -22 20 -36 29 -20 9 14 50 1 70 -23 12 -14 7 -16 -45 -15 -33 1 -74
8 -92 17 -27 12 -35 13 -42 3 -5 -9 -9 -10 -14 -2 -4 6 -18 11 -31 11 l-23 0
22 66 c12 36 28 69 36 74 8 5 10 17 6 34 -9 36 4 32 42 -14z m-126 -4 c10 -7
15 -16 11 -19 -3 -4 -1 -13 5 -20 18 -22 0 -72 -26 -71 -25 1 -28 -6 -11 -23
9 -9 7 -10 -10 -6 -12 3 -21 1 -21 -6 0 -6 7 -11 15 -11 8 0 15 -5 15 -11 0
-6 -7 -9 -15 -6 -8 4 -17 2 -20 -3 -4 -6 -1 -10 5 -10 7 0 9 -8 5 -22 -6 -17
-4 -20 9 -15 9 4 16 1 16 -5 0 -7 7 -5 18 4 9 9 23 13 30 11 6 -3 12 1 12 7 0
7 8 9 23 4 12 -4 30 -7 40 -6 18 1 21 -12 18 -88 -3 -65 -11 -101 -22 -94 -5
3 -7 21 -3 40 4 22 2 34 -5 34 -6 0 -11 -6 -12 -12 0 -7 -4 -4 -9 7 -8 21 -8
21 -23 -25 -3 -8 -6 -3 -6 13 -1 30 -17 37 -24 10 -3 -12 -5 -10 -6 7 -1 32
-37 39 -46 9 -8 -25 -25 -25 -25 1 0 26 -12 25 -28 -1 -11 -17 -16 -18 -29 -8
-8 7 -25 18 -37 24 -31 15 -31 46 -1 106 44 87 120 199 134 199 3 0 14 -7 23
-14z m166 -75 c3 -8 -1 -12 -9 -9 -7 2 -15 10 -17 17 -3 8 1 12 9 9 7 -2 15
-10 17 -17z m482 8 c0 -6 6 -9 14 -6 8 3 17 -1 20 -9 3 -8 11 -14 18 -14 20
-1 58 -36 58 -54 0 -11 -9 -15 -36 -13 -32 2 -39 -2 -53 -30 -11 -23 -21 -31
-33 -27 -23 7 -23 -12 -1 -21 12 -4 24 1 35 14 9 12 23 21 31 21 9 0 17 7 19
15 2 9 8 12 16 6 17 -11 3 -39 -48 -93 -42 -47 -81 -50 -122 -11 -37 35 -38
99 -4 163 27 51 86 92 86 59z m-450 -53 c0 -3 -4 -8 -10 -11 -5 -3 -10 -1 -10
4 0 6 5 11 10 11 6 0 10 -2 10 -4z m54 -119 c2 -9 -2 -20 -8 -25 -7 -4 -16
-35 -19 -69 -2 -33 -10 -69 -16 -80 -10 -15 -11 -11 -7 22 17 130 17 135 2
135 -17 0 -26 -30 -26 -88 0 -23 -6 -58 -14 -77 -9 -21 -11 -37 -5 -40 16 -11
10 -23 -10 -18 -13 3 -21 -2 -26 -16 -3 -12 -12 -21 -19 -21 -9 0 -5 15 11 49
27 53 48 177 40 229 -6 36 -2 39 25 15 17 -15 18 -15 18 5 0 18 3 19 24 9 14
-7 27 -20 30 -30z m101 -58 c11 -18 25 -42 32 -53 7 -11 20 -23 31 -27 23 -9
22 -60 -1 -159 -16 -69 -10 -100 20 -100 22 0 63 39 63 61 0 9 9 27 20 40 l20
24 40 -45 c22 -25 51 -61 66 -82 l25 -36 -21 -42 c-12 -23 -27 -80 -35 -126
-15 -96 -46 -168 -81 -191 -30 -19 -33 -48 -4 -40 33 9 139 -133 165 -220 5
-19 2 -23 -14 -23 -11 0 -23 5 -26 10 -9 15 -39 12 -100 -11 -40 -15 -59 -28
-66 -45 -11 -31 -63 -53 -107 -47 l-32 5 35 40 c37 40 57 79 96 183 13 33 27
66 32 73 6 7 7 15 4 18 -16 16 -37 -11 -66 -88 -55 -141 -63 -156 -90 -181
-18 -17 -42 -26 -83 -31 -31 -3 -59 -2 -62 3 -3 5 20 40 53 78 32 39 61 83 64
99 3 16 18 43 32 59 23 26 25 27 20 8 -9 -31 9 -29 23 2 16 34 16 33 -13 33
-27 0 -85 -59 -85 -86 0 -13 -42 -72 -89 -124 -28 -31 -82 -38 -110 -15 -23
20 -99 42 -143 42 -33 0 -38 3 -38 23 0 32 37 140 63 182 39 63 110 150 124
150 14 0 14 0 18 85 1 33 7 103 13 155 8 65 8 96 1 99 -6 2 -4 10 5 20 8 9 29
44 47 76 17 33 38 73 47 90 9 16 17 56 18 88 1 33 5 61 7 63 11 11 16 -64 7
-96 -12 -43 -12 -50 -1 -50 18 0 33 61 29 120 -3 67 0 66 47 -11z m200 0 c25
-33 35 -40 57 -37 32 5 36 -7 11 -34 -24 -27 -43 -22 -90 20 -45 40 -51 54
-30 77 17 20 18 19 52 -26z m34 -165 c54 -66 60 -79 36 -87 -17 -7 -31 11 -27
35 2 13 -1 16 -14 11 -13 -5 -16 -3 -11 10 4 12 1 17 -9 17 -11 0 -14 5 -10
16 5 13 2 15 -14 11 -17 -4 -20 -2 -15 14 4 11 2 19 -5 19 -6 0 -8 5 -5 11 10
16 18 9 74 -57z m-82 -35 c-8 -5 -21 -26 -28 -47 -12 -38 -27 -54 -41 -46 -14
9 -9 49 12 89 11 22 20 46 20 55 0 10 9 6 27 -14 23 -25 24 -30 10 -37z m-353
-14 c-4 -8 -11 -15 -16 -15 -6 0 -5 6 2 15 7 8 14 15 16 15 2 0 1 -7 -2 -15z
m600 -145 c74 -100 107 -161 95 -176 -6 -8 -17 -14 -23 -14 -6 0 -4 5 4 10 13
8 12 10 -3 10 -10 0 -15 5 -12 10 3 6 1 10 -5 10 -6 0 -9 4 -6 8 8 14 -10 67
-22 65 -6 -2 -9 4 -6 12 8 20 -6 19 -23 -2 -13 -16 -13 -16 -7 7 6 22 5 23
-10 11 -19 -16 -22 -1 -3 18 10 11 9 13 -6 8 -10 -4 -16 -3 -12 2 9 16 -6 41
-26 41 -12 0 -16 5 -13 15 4 9 0 15 -8 15 -9 0 -15 10 -15 29 l0 28 30 -26
c16 -14 48 -51 71 -81z m181 31 c-3 -6 -14 -11 -23 -11 -13 0 -13 2 4 14 21
15 30 14 19 -3z m25 -50 c0 -27 -15 -34 -39 -20 -15 10 -24 9 -45 -4 -22 -15
-25 -15 -19 -2 6 17 57 43 86 44 10 1 17 -6 17 -18z m-1272 -30 c3 -8 -1 -12
-9 -9 -7 2 -15 10 -17 17 -3 8 1 12 9 9 7 -2 15 -10 17 -17z m1012 -12 c0 -6
-4 -7 -10 -4 -5 3 -10 11 -10 16 0 6 5 7 10 4 6 -3 10 -11 10 -16z m251 -93
c9 -32 29 -70 43 -85 24 -25 61 -99 54 -107 -2 -1 -25 25 -51 59 -26 34 -57
74 -69 89 -18 23 -19 30 -8 43 10 12 10 19 2 27 -15 15 -15 41 -1 36 6 -2 20
-30 30 -62z m-216 44 c3 -6 -1 -13 -10 -16 -19 -8 -30 0 -20 15 8 14 22 14 30
1z m-1037 -42 c-2 -16 -12 -24 -33 -28 -28 -5 -29 -6 -10 -18 11 -6 15 -12 9
-12 -16 0 -26 -30 -15 -44 6 -7 4 -31 -5 -66 -8 -30 -12 -61 -9 -69 3 -7 0
-20 -7 -28 -9 -11 -9 -16 2 -23 8 -5 11 -12 7 -16 -4 -4 -13 -2 -19 4 -16 16
-28 15 -28 -3 0 -9 7 -18 15 -21 8 -4 15 -10 15 -15 0 -4 -6 -6 -13 -3 -9 3
-13 -8 -13 -38 -2 -73 -17 -198 -24 -203 -4 -3 -11 12 -15 32 -7 36 8 151 45
368 11 61 22 130 24 155 3 25 5 46 5 48 1 1 17 2 37 2 31 0 35 -3 32 -22z
m989 -16 c7 -7 13 -21 13 -30 1 -36 27 -55 64 -48 l35 7 37 -78 c42 -86 89
-153 108 -153 6 0 23 -13 36 -30 14 -16 31 -29 39 -30 7 0 22 -11 33 -25 11
-14 29 -25 41 -25 22 0 95 -79 166 -177 25 -34 27 -42 15 -47 -22 -8 -24 -8
-18 7 6 17 -21 41 -36 32 -5 -3 -10 -17 -10 -31 0 -13 -4 -24 -10 -24 -5 0
-10 -9 -10 -20 0 -11 5 -20 10 -20 6 0 10 8 10 18 0 14 2 14 9 3 6 -9 6 -22 0
-34 -6 -10 -8 -26 -5 -34 4 -9 11 -57 16 -107 5 -50 12 -113 15 -141 6 -46 5
-48 -9 -31 -17 21 -36 14 -36 -15 0 -13 10 -24 30 -30 32 -12 41 -29 14 -29
-9 0 -12 5 -8 12 4 7 3 8 -4 4 -7 -4 -12 -14 -12 -22 0 -10 7 -13 25 -8 14 3
25 2 25 -2 0 -5 7 -52 15 -104 8 -52 15 -119 15 -148 0 -52 0 -52 -26 -46 -17
4 -29 2 -34 -6 -6 -10 -15 -10 -41 -1 -46 16 -49 5 -3 -14 29 -12 45 -13 61
-6 38 17 53 4 53 -45 0 -24 -4 -44 -9 -44 -21 0 -67 22 -78 37 -7 9 -16 13
-20 9 -14 -13 14 -41 50 -49 49 -12 62 -31 75 -117 7 -41 15 -85 18 -98 6 -21
3 -22 -49 -22 -36 0 -59 5 -67 15 -12 14 -51 177 -44 184 2 2 17 -2 35 -9 25
-11 28 -15 15 -22 -25 -14 -19 -26 17 -36 17 -6 41 -13 52 -17 18 -6 18 -5 -2
13 -12 11 -20 22 -17 24 6 7 -90 88 -104 88 -6 0 -13 23 -17 52 -4 28 -13 65
-20 82 -7 17 -23 99 -35 181 -20 139 -33 204 -74 360 -20 73 -20 73 2 71 10 0
17 6 16 17 -3 69 -5 77 -18 77 -8 0 -18 -10 -22 -22 -7 -21 -8 -21 -20 12 -7
19 -13 49 -13 65 -1 17 -8 59 -17 95 -8 36 -15 82 -14 104 1 46 -23 86 -51 86
-18 0 -20 4 -15 25 4 17 2 27 -7 30 -7 3 -13 15 -14 26 -4 44 -32 33 -37 -14
-1 -14 -9 -33 -16 -42 -12 -15 -12 -19 2 -29 23 -17 60 -159 79 -301 11 -89
23 -158 37 -215 28 -110 35 -142 61 -250 16 -63 31 -131 35 -151 l6 -36 -44
14 c-41 14 -46 19 -65 72 -14 38 -19 69 -15 89 6 30 -15 96 -34 104 -11 5 -51
151 -66 243 -7 44 -25 111 -40 149 -14 38 -26 83 -24 100 3 52 -31 137 -90
224 -31 45 -59 82 -64 82 -14 0 -9 21 12 50 18 25 30 67 57 190 4 17 7 20 11
10 3 -8 11 -21 19 -28z m58 -2 c-10 -11 -20 -18 -22 -16 -6 5 30 44 36 39 2
-1 -4 -12 -14 -23z m288 -190 c55 -69 104 -130 109 -136 6 -8 0 -13 -16 -16
-15 -3 -24 -1 -23 6 1 6 -4 10 -10 9 -7 -2 -13 1 -13 5 0 4 6 14 13 21 10 11
7 12 -18 7 -24 -6 -28 -5 -17 5 19 20 14 31 -10 25 -13 -3 -17 -3 -10 0 20 9
14 27 -7 21 -20 -5 -36 17 -25 34 3 5 -5 9 -17 9 -19 0 -20 2 -8 16 12 15 11
16 -9 10 -24 -8 -29 3 -11 21 9 9 6 10 -12 6 -22 -6 -23 -5 -9 12 14 17 13 18
-8 13 -19 -5 -22 -3 -17 13 5 14 3 17 -9 13 -9 -3 -16 -2 -16 4 0 6 6 13 13
15 6 3 2 6 -9 6 -32 1 -50 27 -34 46 12 14 17 13 43 -12 16 -15 75 -84 130
-153z m-1468 50 c3 -5 1 -10 -4 -10 -6 0 -11 5 -11 10 0 6 2 10 4 10 3 0 8 -4
11 -10z m266 -13 c-1 -12 -15 -9 -19 4 -3 6 1 10 8 8 6 -3 11 -8 11 -12z
m-291 -7 c0 -5 -4 -10 -9 -10 -6 0 -13 5 -16 10 -3 6 1 10 9 10 9 0 16 -4 16
-10z m6 -57 c-10 -10 -19 5 -10 18 6 11 8 11 12 0 2 -7 1 -15 -2 -18z m256 5
c-7 -7 -12 -8 -12 -2 0 14 12 26 19 19 2 -3 -1 -11 -7 -17z m58 -69 c0 -11 -5
-19 -11 -19 -5 0 -7 -5 -3 -11 3 -6 0 -15 -7 -20 -11 -8 -11 -11 4 -20 13 -8
15 -14 8 -23 -7 -8 -6 -20 4 -39 9 -18 10 -29 3 -33 -7 -4 -5 -10 6 -16 21
-12 22 -58 1 -58 -17 0 -18 -2 -9 -24 3 -9 10 -16 16 -16 5 0 6 6 2 13 -5 8
-4 9 4 2 6 -5 13 -26 17 -47 6 -30 4 -37 -12 -41 -16 -3 -15 -5 7 -15 24 -10
24 -11 3 -11 -14 -1 -23 -7 -23 -17 0 -11 6 -14 23 -9 22 7 22 7 2 -9 -19 -14
-19 -15 -1 -16 14 0 17 -5 12 -24 -3 -14 -1 -28 5 -31 6 -4 9 -21 8 -39 -1
-17 1 -38 4 -46 9 -22 25 -125 33 -209 5 -57 4 -75 -7 -82 -12 -7 -12 -10 -1
-18 11 -6 10 -10 -4 -15 -15 -6 -16 -9 -4 -16 11 -7 11 -11 1 -24 -12 -14 -10
-16 8 -16 25 0 27 -15 4 -29 -17 -9 -17 -10 0 -16 14 -6 15 -10 6 -21 -9 -11
-7 -15 5 -20 15 -6 15 -8 -1 -20 -17 -13 -17 -13 0 -14 20 0 23 -16 5 -23 -9
-3 -7 -10 7 -21 19 -15 19 -17 2 -30 -19 -15 -14 -41 9 -50 10 -4 14 -22 14
-60 0 -55 -14 -82 -27 -50 -4 10 -2 19 5 22 7 2 12 12 12 22 0 20 -26 45 -33
33 -4 -7 -2 -81 6 -165 3 -35 17 -17 17 22 0 22 5 40 10 40 6 0 10 -10 10 -22
0 -13 3 -47 6 -76 6 -48 5 -52 -13 -52 -11 0 -26 6 -32 14 -6 7 -16 91 -22
197 -6 101 -20 274 -31 384 -11 110 -20 213 -19 230 0 16 -5 32 -11 36 -19 12
-28 111 -12 136 15 24 9 53 -11 53 -13 0 -19 43 -45 295 -6 55 -15 104 -20
109 -14 14 42 64 58 53 6 -5 12 -18 12 -28z m1253 -81 c22 4 22 3 2 -12 -28
-22 -29 -21 -60 27 l-28 42 32 -30 c20 -19 41 -29 54 -27z m-1463 -42 c-7 -7
-10 1 -9 25 0 32 1 33 10 10 6 -16 6 -28 -1 -35z m1261 20 c-14 -17 -5 -75 15
-97 10 -11 12 -19 7 -19 -12 0 -9 -41 7 -109 6 -25 15 -77 20 -115 5 -39 19
-91 30 -115 12 -24 20 -55 17 -68 -2 -13 0 -26 5 -29 4 -3 5 -10 2 -16 -4 -6
0 -14 7 -19 10 -6 11 -9 2 -9 -7 0 -13 -7 -13 -15 0 -8 4 -15 10 -15 5 0 7 -7
4 -15 -4 -9 0 -15 10 -15 9 0 16 -8 16 -19 0 -10 6 -36 14 -58 9 -27 11 -45 4
-57 -5 -9 -6 -25 -2 -34 4 -9 8 -19 8 -22 1 -3 4 -9 7 -15 4 -5 10 -24 13 -41
6 -26 4 -32 -12 -36 -23 -6 -34 25 -52 147 -7 44 -25 116 -41 159 -30 82 -36
111 -20 102 12 -8 34 21 26 34 -3 5 -11 10 -16 10 -6 0 -8 -4 -5 -8 3 -5 -1
-9 -8 -9 -9 0 -18 25 -26 71 -6 39 -14 80 -17 91 -2 11 -9 54 -14 95 -19 164
-25 200 -37 212 -7 7 -12 22 -12 33 0 18 5 21 30 17 22 -3 28 -8 21 -16z
m-1214 -28 c-3 -8 -6 -5 -6 6 -1 11 2 17 5 13 3 -3 4 -12 1 -19z m1525 -20
c16 -14 75 -92 145 -192 24 -34 64 -80 89 -103 28 -26 43 -47 38 -54 -5 -9
-10 -8 -19 4 -18 25 -28 21 -21 -8 8 -33 -20 -35 -29 -2 -4 12 -16 32 -27 44
-12 12 -18 29 -15 37 4 10 1 16 -8 16 -8 0 -12 6 -9 13 3 8 -7 19 -23 27 -16
7 -23 15 -15 17 21 8 13 23 -10 20 -17 -1 -22 3 -20 16 2 10 -3 17 -13 17 -9
0 -13 5 -10 10 3 6 -1 13 -9 16 -9 3 -16 12 -16 19 0 7 -9 15 -20 18 -13 3
-18 11 -14 20 3 8 -2 17 -10 20 -9 4 -13 13 -10 22 4 11 0 15 -16 15 -11 0
-18 5 -15 10 9 14 38 13 57 -2z m-1166 -94 c28 -13 63 -24 77 -24 38 0 34 -12
-21 -62 -26 -23 -72 -73 -101 -110 -53 -68 -67 -79 -69 -55 0 6 -8 56 -16 109
-16 97 -13 131 16 165 13 16 46 9 114 -23z m626 0 c9 -3 19 -13 21 -22 3 -10
18 -48 33 -87 15 -38 30 -92 35 -120 7 -47 16 -88 53 -230 24 -93 22 -105 -16
-102 -24 1 -43 13 -70 42 -53 57 -72 100 -71 165 2 64 -39 159 -88 206 -16 15
-29 33 -29 38 0 6 -9 22 -20 36 -11 14 -20 30 -20 37 0 18 118 56 145 47 6 -2
17 -7 27 -10z m-264 -78 l73 -5 37 -53 c93 -133 102 -152 108 -224 3 -39 16
-93 29 -124 13 -30 26 -68 30 -85 3 -16 18 -46 33 -65 43 -55 54 -83 50 -131
-3 -40 -5 -44 -28 -41 -13 1 -27 6 -30 10 -8 13 -82 52 -115 60 -28 8 -30 13
-49 105 -11 53 -17 99 -14 102 3 4 15 1 27 -7 17 -10 23 -10 33 1 10 11 10 14
1 18 -7 3 -13 18 -13 34 0 16 -4 29 -8 29 -13 0 -39 -23 -45 -40 -3 -8 -6 1
-7 20 -1 19 -3 44 -4 55 -1 11 -3 30 -4 42 -1 12 -11 25 -23 28 -19 6 -19 8
-3 19 9 7 18 27 20 44 3 28 1 32 -21 32 -14 0 -25 6 -25 13 0 8 -8 22 -19 31
-17 16 -20 16 -35 1 -20 -21 -20 -42 0 -53 13 -7 11 -10 -13 -15 -19 -4 -34
-15 -41 -33 -12 -26 -12 -26 15 -22 15 3 37 8 48 12 17 6 17 5 -2 -10 -27 -20
-28 -30 -7 -80 9 -22 19 -59 21 -82 2 -24 13 -81 23 -125 11 -45 20 -89 20
-97 0 -16 -72 -50 -107 -50 -40 0 -61 129 -25 156 14 11 14 15 3 23 -9 6 -10
11 -2 15 6 4 11 16 11 27 0 15 -6 19 -22 17 -24 -3 -25 5 -32 174 -4 95 -8
106 -40 118 -20 7 -20 8 7 20 38 18 34 34 -7 27 -28 -4 -34 -3 -29 9 3 8 0 21
-7 29 -16 19 -40 2 -40 -26 0 -14 -7 -19 -25 -19 -19 0 -25 -5 -25 -21 0 -19
4 -21 30 -15 29 5 41 -6 20 -19 -5 -3 -10 -17 -10 -31 0 -13 5 -24 10 -24 6 0
10 10 10 23 0 30 10 40 26 26 8 -6 20 -9 29 -6 18 7 27 -6 19 -27 -4 -11 -13
-15 -28 -11 -19 5 -19 5 -4 -7 12 -11 14 -18 6 -32 -8 -15 -7 -21 6 -28 14 -8
15 -13 5 -24 -9 -11 -8 -14 2 -15 8 0 5 -4 -6 -9 -32 -14 -35 -12 -35 29 0 44
-8 71 -20 71 -10 0 -4 -84 15 -238 8 -62 15 -130 15 -151 l0 -39 -43 16 c-52
18 -81 12 -132 -28 -21 -16 -41 -30 -45 -30 -20 0 -40 273 -20 285 7 4 16 2
20 -5 4 -7 15 -10 24 -7 20 8 21 37 2 37 -11 0 -13 7 -6 30 7 25 6 30 -9 30
-22 0 -45 -25 -37 -39 4 -5 2 -12 -3 -15 -9 -6 -12 10 -26 116 -6 47 -5 48 55
115 33 37 83 91 112 120 l51 52 86 -5 c47 -2 119 -6 159 -8z m-883 -131 c-7
-104 -6 -115 9 -109 9 3 16 1 16 -5 0 -6 -4 -11 -8 -11 -14 0 -49 -132 -59
-220 -9 -88 -8 -115 7 -128 13 -11 13 -11 -1 -7 -13 5 -15 -4 -15 -54 1 -62
-5 -78 -24 -66 -8 5 -9 34 -5 99 11 141 74 616 83 616 2 0 1 -52 -3 -115z
m1804 43 c37 -51 39 -69 6 -85 -22 -10 -25 -9 -26 10 -1 12 -2 33 -2 47 -1 14
-11 29 -24 35 -20 10 -20 12 -5 22 9 7 18 12 19 12 1 1 15 -18 32 -41z m-41
-32 c2 -10 -1 -23 -8 -30 -8 -8 -10 -7 -4 7 5 14 1 17 -17 15 -16 -2 -24 3
-27 15 -3 15 2 18 25 15 18 -2 29 -10 31 -22z m-1449 -139 c18 -158 17 -173
-18 -250 -17 -38 -31 -84 -31 -102 0 -26 -5 -34 -22 -39 -13 -3 -32 -19 -43
-36 -22 -33 -52 -42 -40 -12 10 22 20 82 35 207 7 55 18 129 25 165 13 69 58
180 73 180 5 0 14 -51 21 -113z m601 105 c0 -13 -12 -22 -22 -16 -10 6 -1 24
13 24 5 0 9 -4 9 -8z m854 -74 c5 -35 3 -53 -5 -59 -7 -4 -9 -14 -6 -24 4 -9
3 -13 -2 -10 -6 3 -8 30 -6 60 1 30 -1 58 -6 61 -14 8 -11 24 5 24 9 0 16 -18
20 -52z m-814 32 c0 -5 -5 -10 -11 -10 -5 0 -7 5 -4 10 3 6 8 10 11 10 2 0 4
-4 4 -10z m-65 -30 c-3 -5 -15 -10 -26 -10 -11 0 -17 5 -14 10 3 6 15 10 26
10 11 0 17 -4 14 -10z m42 -56 c27 -7 33 -23 39 -94 3 -30 12 -83 20 -118 17
-79 17 -82 -1 -82 -8 0 -15 -7 -15 -15 0 -8 5 -15 11 -15 7 0 8 -16 3 -46 -5
-34 -3 -48 7 -54 8 -6 13 -33 14 -82 1 -73 22 -178 36 -178 4 0 10 8 12 18 4
14 5 14 6 -3 0 -11 -6 -31 -15 -43 -16 -24 -12 -42 11 -42 7 0 15 10 17 22 2
13 8 -7 12 -44 9 -77 5 -98 -23 -98 -15 0 -22 13 -35 68 -23 98 -35 176 -51
325 -8 73 -18 149 -21 169 -6 35 -5 36 17 32 13 -2 19 -2 13 1 -7 3 -10 15 -7
25 6 24 -12 26 -25 3 -8 -13 -12 -5 -21 36 -14 66 -14 101 0 101 8 0 8 5 -1
15 -10 12 -10 15 4 15 25 0 19 20 -6 21 -22 0 -22 1 -3 9 l20 8 -20 7 c-30 12
-45 26 -39 36 6 10 11 11 41 3z m-461 -91 c-10 -10 -19 5 -10 18 6 11 8 11 12
0 2 -7 1 -15 -2 -18z m1324 7 c0 -5 -7 -10 -16 -10 -8 0 -12 5 -9 10 3 6 10
10 16 10 5 0 9 -4 9 -10z m-1068 -7 c-19 -4 -21 -7 -11 -19 6 -8 8 -14 5 -14
-4 0 2 -13 13 -28 14 -20 17 -32 10 -39 -7 -7 -8 -17 -1 -30 6 -10 9 -37 8
-60 -1 -24 3 -45 8 -48 7 -3 7 -7 -1 -11 -19 -8 -16 -24 5 -25 15 -1 15 -2 -1
-6 -18 -5 -18 -5 0 -20 17 -14 17 -14 -4 -10 -19 4 -23 1 -23 -19 0 -22 2 -24
23 -13 21 12 21 11 5 -8 -24 -26 -23 -36 2 -28 14 5 20 2 20 -9 0 -9 -7 -16
-15 -16 -24 0 -17 -20 8 -21 16 -1 18 -2 5 -6 -22 -5 -24 -23 -3 -23 18 0 20
-20 3 -21 -9 0 -9 -2 -2 -5 7 -3 10 -14 7 -25 -3 -10 0 -26 8 -35 10 -12 10
-15 -2 -12 -8 2 -17 14 -20 28 -7 25 -7 25 -8 -3 -1 -21 5 -30 19 -34 25 -7
25 -12 3 -29 -17 -13 -17 -13 0 -14 9 0 17 -4 17 -9 0 -5 -8 -11 -17 -14 -15
-3 -14 -6 7 -15 18 -8 20 -11 8 -11 -18 -1 -26 -21 -9 -21 11 0 3 -39 -12 -58
-7 -8 -5 -12 6 -12 10 0 13 -6 10 -20 -3 -13 -12 -20 -22 -18 -12 2 -17 17
-19 58 -1 30 -11 136 -22 236 -11 99 -20 214 -20 255 0 68 -13 179 -26 222 -4
14 1 17 28 16 24 -1 27 -3 10 -6z m1083 -110 c15 -84 30 -240 41 -395 4 -77 3
-98 -7 -98 -9 0 -7 -4 3 -13 9 -6 20 -28 23 -48 6 -32 4 -37 -15 -42 -18 -5
-21 -2 -17 13 3 11 -1 25 -9 31 -10 8 -14 29 -12 70 2 33 5 59 8 59 8 0 -11
204 -19 210 -10 8 -11 71 -1 65 6 -4 10 -1 10 4 0 6 -7 11 -16 11 -12 0 -14 5
-8 18 8 19 8 91 -2 162 -10 75 7 37 21 -47z m-1815 17 c0 -5 -4 -10 -10 -10
-5 0 -10 5 -10 10 0 6 5 10 10 10 6 0 10 -4 10 -10z m820 -4 c0 -3 -4 -8 -10
-11 -5 -3 -10 -1 -10 4 0 6 5 11 10 11 6 0 10 -2 10 -4z m525 -42 c-14 -10
-15 -17 -7 -27 7 -8 9 -16 6 -19 -3 -3 8 -36 25 -72 21 -46 35 -66 48 -66 10
0 36 -10 58 -23 29 -17 41 -31 46 -55 5 -27 4 -32 -8 -28 -8 3 -27 6 -41 6
-26 1 -26 1 -8 15 25 19 15 19 -29 1 -19 -8 -35 -11 -35 -6 0 4 6 11 13 14 6
3 0 3 -15 0 -34 -7 -37 3 -5 16 17 7 13 8 -17 3 -28 -4 -37 -3 -32 6 4 6 14
11 22 11 8 0 14 5 14 10 0 13 -6 13 -31 0 -15 -8 -19 -7 -19 5 0 8 7 15 15 15
8 0 15 7 15 15 0 10 -7 14 -22 12 -13 -2 -17 -2 -10 0 21 7 13 25 -8 18 -16
-5 -20 -2 -20 14 0 12 -5 21 -11 21 -6 0 -3 7 5 16 12 12 13 20 6 35 -6 10 -7
19 -2 19 5 0 7 10 5 23 -3 16 2 25 19 33 30 13 46 5 23 -12z m-1355 -28 c0
-36 -15 -40 -18 -5 -1 16 2 29 8 29 5 0 10 -11 10 -24z m1270 14 c13 -8 13
-10 -2 -10 -9 0 -20 5 -23 10 -8 13 5 13 25 0z m707 -106 c-3 -3 -12 -4 -19
-1 -8 3 -5 6 6 6 11 1 17 -2 13 -5z m-940 -26 c-3 -8 -6 -5 -6 6 -1 11 2 17 5
13 3 -3 4 -12 1 -19z m-766 -21 c-13 -13 -26 -3 -16 12 3 6 11 8 17 5 6 -4 6
-10 -1 -17z m403 8 c20 -8 36 -16 36 -18 0 -1 9 -80 20 -176 11 -95 18 -177
15 -181 -14 -22 -76 -37 -150 -36 l-80 1 -7 85 c-3 47 -9 114 -13 150 l-6 66
46 12 c25 6 45 17 45 23 0 6 -7 9 -15 5 -21 -8 -19 6 5 32 12 12 30 22 40 22
11 0 20 5 20 11 0 7 -10 9 -26 5 -17 -5 -23 -3 -19 4 9 14 47 12 89 -5z m-136
-40 c-20 -18 -31 -36 -25 -38 7 -2 7 -6 1 -10 -16 -9 -38 9 -31 27 4 9 15 16
25 16 10 0 27 9 37 20 10 11 21 20 24 20 3 0 -11 -16 -31 -35z m432 33 c1 -2
5 -48 10 -103 5 -55 12 -124 16 -152 l7 -53 -39 0 c-67 0 -86 -9 -80 -36 5
-17 2 -24 -8 -24 -8 0 -16 -6 -19 -12 -10 -31 -33 288 -22 321 7 23 33 27 65
11 11 -5 29 -14 40 -20 20 -10 39 4 19 15 -5 4 -8 13 -5 21 4 9 -2 14 -17 14
-18 0 -19 2 -7 10 14 9 39 14 40 8z m192 -39 c28 -17 70 -34 92 -39 l41 -8
-38 -1 c-21 -1 -54 6 -74 14 -41 17 -53 19 -53 6 0 -25 184 -53 192 -29 3 8 7
6 11 -5 5 -14 0 -17 -39 -17 -28 0 -43 -4 -39 -10 3 -6 -5 -14 -19 -20 -32
-12 -33 -23 -1 -44 26 -17 86 -21 113 -7 9 5 26 5 37 0 17 -7 16 -8 -8 -8 -32
-1 -113 -35 -140 -59 -9 -8 -34 -18 -54 -21 -32 -5 -38 -10 -40 -33 -1 -23 3
-27 34 -33 27 -5 33 -9 22 -16 -30 -19 18 -29 151 -29 l135 -1 -50 -21 c-40
-17 -70 -22 -145 -21 -56 0 -87 -3 -75 -8 34 -13 150 -10 195 6 51 18 112 19
157 3 75 -27 36 -34 -197 -33 l-229 0 -6 45 c-3 25 -17 95 -30 155 -13 61 -27
137 -30 170 -4 33 -9 71 -12 84 -5 22 -3 23 20 17 15 -3 50 -20 79 -37z m753
11 c3 -5 -1 -10 -9 -10 -9 0 -16 -9 -16 -20 0 -25 20 -27 21 -2 2 25 16 -37
18 -77 1 -29 -2 -33 -19 -28 -11 3 -20 1 -20 -4 0 -5 6 -9 14 -9 7 0 20 -7 27
-16 9 -12 24 -15 51 -11 23 3 36 1 32 -4 -3 -6 6 -19 20 -30 24 -19 26 -27 26
-92 l0 -72 -36 43 c-38 45 -81 72 -111 72 -11 -1 -5 -8 18 -20 19 -10 52 -37
72 -59 20 -23 42 -41 48 -41 7 0 8 -12 4 -33 -10 -44 -11 -44 -37 -11 -38 48
-57 64 -75 64 -16 -1 -16 -2 1 -12 22 -12 65 -59 66 -70 0 -11 -62 -10 -78 1
-15 9 -46 209 -56 359 -6 87 -6 92 13 92 11 0 23 -4 26 -10z m115 0 c11 -7 2
-10 -32 -10 -27 0 -48 5 -48 10 0 13 60 13 80 0z m-1746 -16 c8 -22 0 -31 -32
-39 -15 -3 -45 -21 -67 -39 -33 -29 -119 -66 -153 -66 -21 0 -13 27 18 60 28
30 33 32 75 26 37 -6 46 -4 52 9 3 10 0 21 -8 26 -10 6 -7 9 12 9 15 0 29 7
33 15 7 20 62 20 70 -1z m1747 -14 c17 0 19 -8 19 -67 l0 -68 -49 0 c-28 0
-56 6 -62 13 -10 9 -10 12 -1 12 8 0 12 20 12 61 l0 62 31 -7 c17 -3 40 -6 50
-6z m-441 -28 c0 -15 -2 -15 -10 -2 -13 20 -13 33 0 25 6 -3 10 -14 10 -23z
m-1439 0 c-7 -2 -18 1 -23 6 -8 8 -4 9 13 5 13 -4 18 -8 10 -11z m-193 -16 c0
-17 -5 -23 -15 -19 -10 4 -11 9 -3 18 8 9 7 14 -2 18 -9 4 -8 6 3 6 11 1 17
-7 17 -23z m1642 -40 c0 -11 9 -52 20 -91 11 -38 17 -78 14 -89 -4 -10 0 -22
7 -27 11 -7 11 -11 2 -17 -7 -4 -10 -16 -8 -27 2 -11 4 -26 4 -32 1 -7 7 -13
15 -13 8 0 16 -7 19 -14 8 -21 -31 -32 -48 -15 -14 16 -51 181 -60 274 -3 33
-8 70 -11 83 -4 22 -4 22 21 6 14 -9 25 -26 25 -38z m-537 -46 c5 -38 4 -48
-3 -33 -12 30 -24 135 -12 108 5 -11 12 -45 15 -75z m-1103 46 c0 -11 -19 -15
-25 -6 -3 5 1 10 9 10 9 0 16 -2 16 -4z m1588 -38 c3 -26 2 -27 -35 -22 -21 3
-51 10 -67 15 -39 12 -103 12 -111 -1 -6 -11 -46 -4 -79 12 -37 20 8 27 149
25 l140 -2 3 -27z m-1599 -15 c0 -16 -4 -46 -9 -68 -7 -36 -8 -34 -8 28 1 37
5 67 9 67 5 0 9 -12 8 -27z m1601 -38 c5 -3 10 -16 10 -29 0 -13 4 -36 9 -52
5 -16 12 -48 15 -71 5 -34 3 -43 -9 -43 -8 0 -15 6 -15 14 0 20 -74 29 -217
27 -68 -1 -123 0 -123 4 0 3 12 10 27 16 21 8 24 12 13 19 -8 5 -26 6 -41 3
-15 -3 -30 0 -33 6 -4 7 1 11 13 11 32 0 25 20 -6 21 -20 1 -15 4 17 10 25 5
47 14 49 20 3 10 15 16 91 45 35 14 178 13 200 -1z m-1547 -69 c16 -12 18 -22
12 -56 -7 -40 8 -100 25 -100 5 0 7 35 5 78 -3 42 -2 68 1 57 12 -40 24 -39
24 2 l0 42 34 -6 c19 -3 48 -1 64 5 28 10 30 9 40 -26 13 -46 34 -163 30 -167
-2 -2 -48 -4 -103 -4 -55 -1 -124 -1 -152 -2 -61 0 -58 -9 -41 118 13 98 13
97 61 59z m251 -39 c12 -50 18 -137 9 -137 -5 0 -10 15 -11 33 -1 19 -7 49
-12 68 -6 18 -10 40 -10 46 0 22 18 14 24 -10z m66 -44 c0 -26 3 -43 8 -39 4
4 7 24 7 44 0 31 3 36 20 34 32 -6 65 -60 65 -108 0 -23 -3 -24 -64 -24 -36 0
-67 3 -69 8 -3 4 -8 36 -12 72 -8 72 7 75 24 5 10 -39 10 -38 5 13 -3 36 -1
52 6 47 5 -3 10 -27 10 -52z m698 18 c10 -33 17 -111 10 -111 -2 0 -28 7 -58
15 -30 8 -68 15 -83 15 -18 0 -27 4 -25 13 3 7 28 13 66 15 89 4 80 31 -11 33
l-42 1 33 9 c34 10 43 35 15 42 -10 3 5 5 33 6 51 1 51 1 62 -38z m-268 -55
c0 -27 -28 -36 -116 -36 -40 0 -54 4 -54 14 0 8 -8 17 -17 20 -10 3 11 4 45 2
40 -3 76 1 95 9 43 19 47 19 47 -9z m1140 -4 c0 -4 -9 -8 -20 -8 -11 0 -20 4
-20 8 0 4 9 8 20 8 11 0 20 -4 20 -8z m-1340 -22 c0 -6 10 -15 23 -20 19 -8
17 -9 -13 -7 -24 1 -36 7 -38 20 -2 10 3 17 12 17 9 0 16 -5 16 -10z m1340
-10 c0 -5 -6 -10 -14 -10 -8 0 -18 5 -21 10 -3 6 3 10 14 10 12 0 21 -4 21
-10z m-970 -10 c11 -7 7 -10 -17 -10 -18 0 -33 5 -33 10 0 13 30 13 50 0z
m-190 -10 c-14 -4 -47 -8 -75 -8 l-50 1 40 7 c22 4 56 7 75 8 31 0 32 -1 10
-8z"/>
<path d="M560 2550 c0 -5 7 -10 16 -10 8 0 12 5 9 10 -3 6 -10 10 -16 10 -5 0
-9 -4 -9 -10z"/>
<path d="M540 2520 c0 -5 12 -10 26 -10 14 0 23 4 19 10 -3 6 -15 10 -26 10
-10 0 -19 -4 -19 -10z"/>
<path d="M1185 2480 c3 -5 1 -10 -4 -10 -13 0 -15 -27 -2 -34 5 -3 21 0 35 8
25 13 25 14 8 30 -20 17 -47 22 -37 6z"/>
<path d="M1162 2348 c5 -15 55 -35 64 -25 4 4 1 13 -6 22 -15 18 -64 21 -58 3z"/>
<path d="M806 2105 c-9 -9 -19 -28 -22 -43 -3 -15 -15 -64 -26 -109 -21 -88
-22 -136 0 -97 6 12 19 56 27 99 9 43 23 96 32 117 17 44 13 57 -11 33z"/>
<path d="M1177 1883 c-4 -3 -7 -19 -7 -35 0 -16 -7 -45 -15 -65 -9 -20 -13
-43 -10 -51 3 -8 -3 -16 -14 -19 -10 -2 -29 -27 -41 -54 -26 -55 -53 -84 -69
-74 -11 6 -71 -45 -71 -60 0 -16 58 9 99 43 25 20 42 31 37 24 -4 -6 -3 -12 3
-12 18 0 60 61 72 103 6 23 14 46 17 51 3 5 0 6 -6 2 -15 -9 -15 -1 2 54 22
76 27 100 18 100 -5 0 -12 -3 -15 -7z m-57 -231 c0 -5 -7 -17 -15 -28 -14 -18
-14 -17 -4 9 12 27 19 34 19 19z"/>
<path d="M1012 1690 c-19 -30 -46 -57 -69 -67 -37 -18 -56 -43 -31 -43 44 1
158 106 158 146 0 28 -26 12 -58 -36z"/>
<path d="M941 1396 c-8 -9 -11 -19 -7 -23 9 -9 29 13 24 27 -2 8 -8 7 -17 -4z"/>
<path d="M190 1550 c0 -5 5 -10 10 -10 6 0 10 5 10 10 0 6 -4 10 -10 10 -5 0
-10 -4 -10 -10z"/>
<path d="M1445 1740 c-3 -5 -2 -10 4 -10 5 0 13 5 16 10 3 6 2 10 -4 10 -5 0
-13 -4 -16 -10z"/>
<path d="M457 1003 c-4 -3 -7 -17 -7 -30 0 -28 26 -31 35 -3 9 30 -10 52 -28
33z"/>
<path d="M478 925 c-3 -4 -3 -19 2 -33 5 -15 11 -65 15 -112 7 -100 13 -130
27 -130 6 0 7 9 3 23 -4 12 -11 62 -16 111 -10 101 -21 150 -31 141z"/>
<path d="M1065 740 c-3 -5 -1 -10 4 -10 6 0 11 5 11 10 0 6 -2 10 -4 10 -3 0
-8 -4 -11 -10z"/>
<path d="M1180 111 c0 -6 5 -13 10 -16 6 -3 10 1 10 9 0 9 -4 16 -10 16 -5 0
-10 -4 -10 -9z"/>
<path d="M1955 170 c-3 -5 -1 -10 4 -10 6 0 11 5 11 10 0 6 -2 10 -4 10 -3 0
-8 -4 -11 -10z"/>
<path d="M2010 240 c0 -11 38 -24 73 -25 55 -1 16 25 -45 30 -16 2 -28 -1 -28
-5z"/>
<path d="M2105 176 c16 -13 34 -22 39 -19 11 7 -34 42 -54 43 -9 0 -3 -10 15
-24z"/>
<path d="M2080 415 c0 -9 5 -15 11 -13 6 2 11 8 11 13 0 5 -5 11 -11 13 -6 2
-11 -4 -11 -13z"/>
<path d="M1676 328 c4 -24 11 -50 16 -58 6 -10 8 -4 4 19 -3 18 -6 44 -6 57 0
13 -5 24 -10 24 -6 0 -8 -16 -4 -42z"/>
<path d="M160 60 c0 -5 5 -10 10 -10 6 0 10 5 10 10 0 6 -4 10 -10 10 -5 0
-10 -4 -10 -10z"/>
<path d="M950 3648 c0 -5 7 -11 15 -15 14 -5 45 -52 45 -68 0 -3 -9 -5 -20 -5
-11 0 -20 -7 -20 -15 0 -12 19 -15 109 -15 60 0 116 3 125 6 21 8 21 24 0 24
-12 0 -14 9 -12 38 2 20 9 38 16 38 6 1 17 2 22 3 6 0 10 6 10 11 0 7 -50 10
-145 9 -80 -2 -145 -6 -145 -11z m100 -37 c0 -28 -17 -35 -29 -12 -15 27 -14
31 9 31 13 0 20 -7 20 -19z m60 -16 c0 -31 -3 -35 -25 -35 -28 0 -30 6 -15 44
15 39 40 33 40 -9z m58 -3 c2 -24 -1 -32 -12 -32 -12 0 -16 10 -16 36 0 45 24
42 28 -4z"/>
</g>
</svg>
