<?xml version="1.0" standalone="no"?>
<!DOCTYPE svg PUBLIC "-//W3C//DTD SVG 20010904//EN"
 "http://www.w3.org/TR/2001/REC-SVG-20010904/DTD/svg10.dtd">
<svg version="1.0" xmlns="http://www.w3.org/2000/svg"
 width="219.000000pt" height="379.000000pt" viewBox="0 0 219.000000 379.000000"
 preserveAspectRatio="xMidYMid meet">
<metadata>
Created by potrace 1.16, written by Peter Selinger 2001-2019
</metadata>
<g transform="translate(0.000000,379.000000) scale(0.100000,-0.100000)"
fill="#000000" stroke="none">
<path d="M46 3781 c-9 -13 -15 -459 -21 -1341 -3 -459 -9 -1017 -13 -1240 -4
-223 -7 -583 -7 -800 l0 -395 1066 -3 1067 -2 6 497 c4 274 9 611 12 748 5
255 8 511 20 1797 l7 727 -24 9 c-30 12 -2106 15 -2113 3z m2102 -26 c5 -4 2
-1306 -2 -1314 -2 -3 -7 -316 -12 -696 -4 -379 -8 -699 -9 -710 -1 -11 -3
-162 -4 -336 l-1 -317 -27 -5 c-16 -4 -46 -10 -68 -14 -46 -10 -161 1 -180 17
-10 8 -23 5 -52 -14 -36 -24 -46 -25 -183 -27 -133 -1 -150 1 -192 22 -26 12
-45 26 -42 31 3 4 -5 7 -18 7 -25 -2 -140 39 -198 70 -19 10 -48 22 -65 25
-33 8 -367 146 -375 155 -3 4 -23 12 -45 18 -51 15 -134 42 -160 53 -11 5 -31
12 -45 16 -14 3 -65 26 -115 49 -111 53 -215 98 -277 120 l-48 17 0 113 0 113
88 -34 c48 -19 112 -46 142 -59 53 -23 111 -45 345 -134 61 -23 133 -53 160
-66 56 -27 230 -95 243 -95 5 0 21 -17 35 -38 22 -34 23 -40 9 -48 -10 -7 -13
-17 -9 -28 4 -9 11 -15 16 -11 6 3 7 13 4 22 -5 13 -1 12 17 -5 38 -35 82 -26
47 10 -8 7 -12 19 -9 26 2 6 -8 16 -22 22 -14 5 -26 14 -26 19 0 9 74 -10 107
-28 10 -5 70 -28 133 -51 63 -24 159 -62 212 -86 53 -24 109 -46 125 -50 15
-4 43 -18 61 -31 24 -18 41 -24 62 -20 22 5 29 2 33 -13 3 -11 16 -25 30 -31
21 -9 29 -9 41 4 9 9 16 20 16 26 0 6 5 11 12 11 16 0 48 31 48 47 0 21 -64
16 -94 -8 -14 -11 -27 -17 -27 -12 -1 4 -2 13 -4 18 -1 6 -3 15 -3 21 -3 16
-138 74 -361 155 -57 20 -62 24 -42 32 14 7 29 7 44 0 27 -12 47 -7 47 13 0 8
5 13 11 12 6 -2 13 2 15 7 7 19 -11 33 -53 40 -39 6 -44 5 -52 -18 -6 -14 -15
-28 -22 -33 -26 -16 -92 -2 -191 39 -112 48 -259 106 -553 221 -210 82 -409
165 -528 220 -42 20 -84 36 -93 36 -15 0 -15 24 -9 242 4 134 9 245 11 247 4
4 149 -47 194 -69 19 -9 60 -25 90 -35 30 -9 116 -41 190 -70 74 -30 176 -69
225 -88 50 -19 140 -56 200 -82 61 -26 124 -52 141 -58 42 -16 92 -58 76 -64
-16 -6 -15 -30 2 -40 7 -4 18 -18 25 -30 15 -29 51 -31 51 -3 0 11 5 20 10 20
25 0 6 33 -26 46 -20 8 -34 18 -30 21 6 6 220 -78 274 -109 18 -10 70 -32 115
-49 45 -18 124 -54 175 -81 86 -47 95 -49 142 -43 48 7 50 6 50 -17 0 -24 16
-48 32 -48 11 0 10 34 -2 48 -7 9 -7 9 2 2 18 -15 38 -12 38 5 0 9 9 15 21 15
14 0 19 5 17 18 -2 12 -16 19 -45 23 -34 4 -45 1 -60 -15 l-18 -21 -3 22 c-3
22 -36 53 -56 53 -6 0 0 -7 12 -16 12 -8 22 -22 22 -31 0 -13 -7 -10 -29 11
-28 26 -31 27 -58 14 -31 -15 -83 -4 -83 19 0 7 -6 10 -15 7 -8 -4 -15 -1 -15
6 0 6 -4 8 -10 5 -5 -3 -10 -1 -10 5 0 7 -6 10 -14 7 -8 -3 -16 -2 -18 3 -2 5
-14 11 -28 13 -18 3 -24 10 -22 23 3 15 1 16 -12 5 -14 -12 -16 -11 -17 5 0
11 -3 14 -6 7 -2 -7 -9 -13 -14 -13 -4 0 -6 7 -3 15 4 8 1 15 -5 15 -6 0 -11
-6 -11 -12 0 -10 -3 -9 -9 1 -5 7 -14 10 -20 7 -6 -4 -11 -1 -11 8 0 10 -6 13
-17 9 -11 -5 -14 -3 -8 6 5 10 2 11 -14 6 -17 -5 -20 -3 -14 12 5 15 3 16 -8
6 -18 -18 -29 -16 -29 3 0 10 -6 14 -15 10 -8 -3 -14 -2 -14 2 3 19 -2 23 -16
12 -11 -9 -15 -9 -15 -1 0 7 -5 9 -10 6 -6 -3 -10 -1 -10 5 0 7 -8 9 -20 5
-15 -5 -20 -2 -20 11 0 14 -2 15 -17 3 -15 -12 -16 -12 -10 4 7 20 -3 23 -21
5 -9 -9 -12 -8 -12 6 0 12 -5 16 -15 12 -8 -3 -15 -1 -15 5 0 6 -4 7 -10 4 -5
-3 -10 -1 -10 5 0 7 -8 9 -20 5 -15 -5 -20 -2 -20 10 0 11 -5 15 -14 12 -8 -3
-17 -1 -20 6 -5 9 -7 9 -12 -1 -8 -17 -24 -5 -17 13 3 8 0 15 -6 15 -6 0 -11
-6 -11 -12 0 -10 -3 -9 -9 1 -5 7 -14 10 -20 7 -6 -4 -11 0 -11 8 0 19 -16 21
-23 4 -3 -8 -6 -5 -6 6 -1 15 -4 16 -16 6 -8 -7 -16 -10 -16 -6 -1 3 -2 10 -3
15 -2 15 -16 26 -16 13 0 -7 -4 -12 -10 -12 -5 0 -10 7 -10 16 0 14 -3 14 -15
4 -12 -10 -15 -9 -15 5 0 11 -5 15 -15 11 -8 -3 -15 -1 -15 4 0 5 -8 6 -17 3
-12 -5 -15 -2 -10 10 7 18 -8 24 -17 8 -10 -16 -61 4 -58 22 3 19 -14 23 -20
5 -2 -6 -10 -8 -17 -4 -7 5 -10 15 -7 23 3 8 2 12 -3 8 -5 -3 -26 4 -46 16
-20 12 -39 19 -42 15 -3 -3 10 -12 30 -21 19 -8 38 -19 42 -25 9 -14 5 -13
-46 12 -24 12 -48 21 -52 20 -4 -1 -10 5 -13 13 -3 8 -10 12 -15 9 -5 -3 -9 0
-9 6 0 7 -8 9 -21 5 -16 -5 -19 -4 -14 5 5 9 2 10 -14 5 -13 -4 -21 -2 -21 5
0 7 -7 9 -15 6 -9 -3 -18 1 -22 9 -3 10 -12 13 -24 10 -13 -4 -19 -1 -19 9 0
19 -20 22 -20 4 -1 -9 -5 -8 -13 3 -7 9 -18 14 -24 12 -7 -3 -20 3 -29 11 -8
9 -22 16 -30 16 -8 0 -14 5 -14 11 0 6 -9 8 -20 4 -14 -5 -20 -2 -20 10 0 12
-6 15 -20 10 -13 -4 -22 -1 -26 10 -5 12 -9 13 -20 4 -11 -9 -14 -7 -15 12 0
13 -3 18 -6 12 -2 -7 -9 -13 -14 -13 -4 0 -6 7 -3 15 4 8 2 15 -4 15 -6 0 -13
-6 -15 -12 -3 -8 -6 -6 -6 5 -1 9 -5 17 -10 17 -5 0 -12 -8 -14 -17 -4 -14 -5
-12 -6 5 -1 23 -21 32 -22 10 0 -7 -5 -2 -10 11 -5 13 -8 25 -6 27 9 9 293
-99 476 -181 58 -25 166 -69 240 -97 75 -28 152 -58 171 -68 35 -18 100 -43
310 -120 161 -59 407 -160 523 -213 53 -25 97 -44 97 -41 0 6 -183 93 -285
136 -81 33 -418 162 -485 185 -42 14 -220 91 -229 99 -2 2 2 10 9 19 11 14 14
13 26 -2 10 -14 15 -15 24 -6 16 15 4 33 -21 33 -20 0 -26 15 -9 25 6 3 10 1
10 -4 0 -6 5 -11 10 -11 6 0 10 6 10 14 0 8 -15 16 -37 19 -42 7 -64 -6 -45
-25 18 -18 15 -48 -5 -48 -23 0 -169 56 -303 115 -161 71 -268 115 -345 141
-38 12 -87 30 -107 39 -37 15 -38 16 -38 71 0 45 3 55 14 51 8 -3 47 -19 88
-35 40 -16 120 -46 178 -65 123 -42 447 -167 675 -262 88 -36 193 -79 232 -96
107 -42 142 -69 93 -69 -25 0 -26 -18 -2 -27 9 -4 29 -16 45 -27 22 -16 29
-18 40 -7 9 10 9 15 1 18 -12 4 -7 43 5 43 9 0 188 -68 242 -92 37 -16 50 -18
68 -9 24 13 61 -1 61 -23 0 -7 9 -21 20 -31 18 -16 20 -16 26 -1 3 9 12 16 20
16 13 0 15 10 18 66 1 23 -62 30 -70 9 -4 -8 -15 -15 -25 -15 -17 0 -17 3 -7
20 8 12 9 23 3 29 -6 4 -89 40 -185 79 -96 38 -224 90 -285 114 -60 25 -172
68 -248 98 -131 51 -136 54 -121 72 13 13 20 15 30 7 7 -6 23 -9 35 -7 17 2
23 11 26 38 2 26 1 32 -9 22 -9 -9 -14 -8 -23 5 -15 20 -45 11 -45 -14 0 -10
-12 -26 -25 -36 -28 -20 -70 -14 -182 29 -37 14 -88 32 -113 41 -62 20 -390
142 -415 153 -11 5 -45 19 -76 30 -91 33 -86 17 -79 257 l5 212 85 -36 c396
-167 511 -223 456 -223 -9 0 -16 -5 -16 -11 0 -16 40 -69 51 -69 19 0 52 39
46 54 -7 18 -7 18 135 -42 51 -22 104 -43 118 -47 29 -9 111 -64 123 -82 10
-16 37 -17 37 -3 0 6 12 3 27 -7 20 -14 27 -15 31 -5 2 7 15 18 29 23 21 8 23
12 13 24 -7 8 -18 15 -24 15 -6 0 -16 10 -21 23 -6 12 -19 22 -30 22 -11 0
-23 8 -27 17 -11 26 -145 87 -490 224 -83 33 -142 61 -136 65 7 4 16 5 20 2 5
-2 16 1 24 8 14 12 14 14 -1 25 -9 6 -24 10 -34 7 -13 -3 -20 2 -24 17 -8 30
-43 23 -40 -8 4 -34 -23 -28 -144 29 -59 28 -132 60 -160 71 l-53 19 0 105 c0
57 1 104 3 104 1 0 90 -36 197 -81 107 -44 245 -100 305 -124 61 -24 155 -62
210 -83 55 -22 125 -48 156 -57 31 -8 66 -23 78 -31 20 -14 21 -17 6 -28 -20
-14 -10 -46 15 -46 10 0 20 -7 24 -15 9 -24 35 -17 48 13 7 15 13 29 14 30 1
2 29 -8 61 -22 32 -13 101 -43 153 -64 183 -76 385 -163 420 -181 19 -9 54
-23 78 -31 29 -9 42 -19 42 -31 0 -21 44 -54 59 -45 5 3 9 21 8 38 -2 28 -6
34 -32 38 -25 5 -27 7 -11 13 25 10 56 -1 56 -19 0 -8 9 -14 20 -14 11 0 20 7
20 15 0 8 7 15 16 15 9 0 14 6 11 13 -3 7 -21 11 -51 10 -31 -1 -46 3 -46 11
0 24 -42 51 -123 79 -45 15 -93 30 -107 33 -14 3 -41 14 -60 24 -53 27 -519
225 -565 240 -22 7 -76 27 -120 45 -44 18 -124 50 -177 70 -54 20 -98 39 -98
42 0 2 9 1 20 -2 29 -9 48 40 25 65 -19 21 -65 15 -65 -9 -1 -47 -13 -46 -162
13 -78 32 -186 79 -238 104 -52 25 -115 53 -140 63 l-45 17 -1 66 c-1 36 3 66
8 66 4 0 48 -20 96 -44 186 -93 612 -262 737 -292 17 -4 46 -15 65 -25 19 -9
118 -47 220 -83 254 -91 286 -104 357 -143 63 -34 99 -73 69 -73 -8 0 -16 -6
-19 -12 -7 -22 4 -38 26 -38 11 0 29 -8 39 -17 21 -19 46 -5 32 19 -5 7 -8 22
-9 33 0 13 -8 21 -22 23 -12 2 -24 9 -27 17 -6 16 -9 17 129 -40 50 -21 125
-55 167 -76 43 -22 83 -39 90 -39 7 0 18 -10 23 -22 6 -13 18 -23 27 -23 10 0
23 -6 30 -13 20 -20 38 -14 38 13 0 20 -8 29 -32 40 -33 14 -33 14 -6 15 36 0
43 16 18 37 -11 10 -20 23 -20 30 0 18 -18 25 -37 14 -13 -7 -23 -5 -38 9 -11
10 -94 47 -185 83 -91 35 -194 78 -230 95 -36 17 -103 44 -150 60 -102 35
-230 86 -268 106 l-27 15 39 -6 c30 -5 38 -3 34 8 -3 8 -13 16 -24 18 -10 2
-22 8 -26 14 -11 17 -88 18 -88 1 0 -23 35 -36 -495 183 -99 41 -207 85 -240
98 -58 22 -287 124 -293 130 -3 3 -10 165 -8 165 25 -4 180 -62 241 -90 108
-49 170 -75 225 -94 65 -23 302 -115 561 -217 114 -45 140 -59 158 -86 17 -26
28 -33 53 -33 25 0 29 -3 20 -12 -14 -14 2 -38 28 -38 9 0 22 -12 29 -26 22
-50 49 -3 27 48 -8 18 92 -20 329 -124 146 -64 206 -82 228 -68 16 10 24 7 46
-14 29 -28 71 -35 71 -12 0 8 -12 24 -27 35 -22 16 -24 20 -10 21 10 0 29 -7
42 -16 28 -18 60 -15 60 6 0 8 -10 19 -22 25 -13 5 -23 18 -23 28 0 31 -31 33
-52 4 l-20 -27 -28 30 c-15 16 -36 30 -45 30 -10 0 -65 20 -124 44 -58 25
-171 70 -251 101 -80 31 -181 72 -225 90 -44 19 -116 47 -160 63 -44 17 -138
55 -210 85 -71 30 -154 62 -182 71 -60 20 -84 42 -33 31 l32 -7 -7 33 c-10 46
-14 51 -35 44 -10 -3 -21 -1 -25 5 -8 14 -42 13 -51 -2 -4 -6 2 -19 14 -29 51
-41 18 -38 -88 7 -198 85 -229 97 -305 125 -44 16 -97 39 -118 50 -43 24 -97
41 -97 31 0 -4 21 -16 47 -26 25 -11 54 -26 62 -35 9 -9 28 -17 41 -19 27 -3
258 -89 275 -102 6 -5 51 -25 100 -45 50 -21 118 -50 153 -66 34 -16 66 -29
70 -29 4 0 86 -31 182 -69 96 -39 252 -100 345 -136 220 -87 547 -224 559
-236 6 -5 23 -9 38 -9 32 0 38 -19 8 -27 -11 -3 -20 -14 -20 -24 0 -11 -4 -19
-10 -19 -5 0 -10 4 -10 8 0 4 -17 8 -37 9 -21 0 -39 6 -41 12 -2 6 -10 11 -18
11 -8 0 -14 4 -14 10 0 5 -7 7 -15 4 -10 -4 -15 0 -15 11 0 9 -4 14 -9 11 -5
-4 -12 0 -14 6 -4 10 -8 9 -16 -2 -9 -12 -11 -11 -11 9 0 20 -2 21 -15 11 -12
-10 -15 -9 -15 5 0 15 -2 16 -16 4 -15 -12 -16 -11 -10 9 8 24 -3 29 -23 10
-10 -11 -11 -10 -6 5 8 20 -5 23 -24 5 -10 -11 -11 -10 -6 4 8 21 -33 37 -46
17 -7 -11 -9 -10 -9 5 0 16 -2 17 -17 5 -15 -12 -16 -12 -10 3 3 10 2 20 -3
23 -6 4 -10 1 -10 -4 0 -6 -4 -11 -10 -11 -5 0 -7 7 -4 15 4 8 1 15 -5 15 -6
0 -11 -4 -11 -10 0 -5 -4 -10 -10 -10 -5 0 -6 8 -3 17 5 12 2 15 -10 10 -10
-4 -17 -2 -17 5 0 7 -5 6 -15 -2 -12 -10 -15 -10 -15 4 0 19 -16 21 -23 4 -3
-7 -6 -2 -6 12 -1 19 -4 21 -13 12 -17 -17 -31 -15 -24 3 6 17 -9 21 -19 5 -9
-15 -25 -2 -18 16 7 19 44 12 122 -22 64 -29 79 -31 31 -4 -19 11 -80 33 -135
51 -55 17 -121 42 -147 55 -49 25 -81 33 -40 10 21 -11 22 -14 8 -25 -13 -11
-16 -11 -16 3 0 19 -16 21 -23 4 -3 -7 -6 -4 -6 8 -1 22 -27 28 -48 11 -10 -7
-13 -4 -13 12 0 23 -15 29 -23 9 -3 -8 -6 -6 -6 5 -1 18 -21 25 -21 7 0 -5 -4
-10 -10 -10 -5 0 -7 7 -4 15 7 18 -7 20 -23 4 -9 -9 -10 -7 -6 10 7 26 -5 27
-24 4 -13 -17 -14 -16 -10 5 5 24 -17 32 -26 10 -3 -8 -6 -6 -6 5 -1 20 -17
23 -24 5 -3 -8 -6 -6 -6 5 -1 20 -12 22 -29 5 -9 -9 -12 -8 -12 6 0 16 -2 17
-17 5 -15 -13 -16 -11 -9 14 7 31 -1 35 -20 10 -12 -17 -13 -16 -14 6 0 13 -3
21 -6 18 -4 -3 -15 -2 -26 4 -14 7 -23 7 -34 -2 -12 -10 -13 -9 -8 5 7 19 -7
21 -25 4 -11 -11 -12 -9 -6 10 8 26 -9 30 -25 5 -10 -16 -11 -15 -7 5 6 26 -8
29 -22 5 -9 -15 -10 -13 -11 12 l0 30 -21 -25 -21 -25 5 28 c5 33 -12 48 -20
18 -3 -12 -9 -21 -13 -21 -5 0 -6 9 -3 20 7 25 -5 26 -24 3 -13 -17 -14 -16
-8 5 7 24 -9 31 -19 7 -9 -26 -27 -17 -20 10 7 29 -3 33 -22 8 -12 -17 -13
-16 -14 7 -1 24 -1 24 -15 6 -15 -20 -37 -14 -29 8 3 8 1 17 -4 20 -6 3 -12
-1 -16 -9 -8 -23 -29 -18 -23 5 6 23 -3 26 -21 8 -9 -9 -12 -7 -12 10 0 25
-15 29 -24 6 -3 -8 -11 -12 -17 -9 -6 4 -8 14 -5 22 11 28 -6 36 -26 12 l-20
-24 5 28 c4 28 -10 38 -19 12 -10 -25 -25 -17 -18 10 7 29 -3 32 -23 8 -13
-17 -13 -16 -7 6 5 19 3 23 -10 18 -9 -4 -16 -1 -16 5 0 7 -7 3 -16 -8 -12
-15 -14 -15 -11 -2 8 24 -4 30 -20 10 -13 -15 -14 -13 -8 23 3 22 5 113 5 202
-1 147 1 162 17 166 19 4 2066 -3 2071 -8z m-2021 -641 c32 -15 95 -44 141
-65 46 -22 88 -39 93 -39 22 0 129 -61 129 -74 0 -17 27 -29 35 -16 4 6 1 10
-4 10 -6 0 -11 4 -11 9 0 8 140 -45 365 -139 55 -23 143 -56 195 -75 52 -18
118 -43 145 -56 28 -12 106 -44 175 -69 132 -50 441 -172 549 -218 35 -15 66
-33 69 -41 3 -9 0 -12 -10 -9 -7 3 -22 0 -33 -8 -25 -18 -36 -18 -29 1 7 18
-7 20 -25 3 -11 -11 -13 -10 -8 4 8 22 -3 30 -21 15 -13 -10 -15 -9 -10 5 9
22 -2 30 -20 15 -11 -8 -14 -8 -9 0 4 6 3 14 -2 18 -5 3 -14 -3 -20 -12 -9
-16 -10 -15 -11 6 0 21 -2 22 -17 10 -15 -12 -16 -12 -10 4 7 20 -18 25 -26 5
-3 -8 -6 -5 -6 5 -1 14 -6 17 -21 12 -15 -5 -18 -3 -14 9 3 9 1 16 -5 16 -6 0
-11 -4 -11 -10 0 -5 -4 -10 -10 -10 -5 0 -7 7 -4 15 7 18 -7 20 -24 3 -9 -9
-12 -9 -12 0 0 6 -7 9 -15 6 -8 -4 -15 -1 -15 5 0 6 -9 11 -20 11 -11 0 -20 7
-20 15 0 9 -6 12 -15 9 -8 -4 -15 -1 -15 5 0 6 -7 8 -15 5 -10 -4 -15 0 -15
11 0 15 -2 16 -17 4 -15 -12 -16 -12 -10 4 7 20 -3 23 -21 5 -9 -9 -12 -8 -12
6 0 13 -5 16 -20 11 -16 -5 -19 -3 -13 11 5 13 2 15 -15 9 -14 -4 -22 -2 -22
5 0 7 -8 9 -20 5 -15 -5 -18 -3 -14 9 5 13 0 15 -25 12 -17 -2 -31 1 -31 6 0
5 -9 7 -20 3 -16 -5 -19 -3 -13 12 5 15 3 16 -8 6 -18 -17 -29 -16 -29 3 0 8
-4 13 -9 10 -5 -4 -12 0 -15 6 -5 10 -7 10 -12 1 -8 -19 -27 -16 -20 3 4 12 1
14 -14 9 -15 -5 -20 -2 -21 12 0 10 -3 13 -6 6 -2 -7 -9 -13 -14 -13 -4 0 -6
7 -3 15 4 8 1 15 -5 15 -6 0 -11 -4 -11 -10 0 -5 -4 -10 -10 -10 -5 0 -7 7 -4
15 4 8 1 15 -5 15 -6 0 -11 -4 -11 -10 0 -5 -4 -10 -10 -10 -5 0 -10 7 -10 15
0 18 -17 20 -22 3 -3 -7 -13 -5 -31 7 -15 9 -24 21 -21 26 3 5 12 2 20 -6 15
-15 34 -12 34 5 0 6 -52 30 -66 30 -2 0 -4 -9 -4 -20 0 -18 -2 -19 -22 -8 -13
7 -26 11 -30 10 -5 -1 -8 6 -8 15 0 13 -3 14 -12 5 -17 -17 -31 -15 -24 3 7
18 -5 20 -22 3 -9 -9 -12 -8 -12 5 0 19 -16 23 -22 5 -2 -6 -10 -8 -17 -4 -7
5 -10 14 -7 22 7 17 -6 18 -22 2 -9 -9 -12 -7 -12 12 -1 23 -2 24 -14 8 -14
-20 -28 -14 -19 8 3 8 0 14 -6 14 -6 0 -11 -4 -11 -10 0 -5 -4 -10 -10 -10 -5
0 -7 8 -3 18 5 14 3 15 -8 5 -17 -17 -30 -16 -23 1 6 15 -33 29 -42 15 -9 -15
-24 -10 -18 6 4 8 2 15 -4 15 -6 0 -13 -6 -15 -12 -3 -8 -6 -6 -6 5 -1 18 -21
25 -21 7 0 -5 -5 -10 -11 -10 -6 0 -9 7 -5 15 7 18 -5 20 -23 3 -11 -11 -12
-9 -6 10 8 26 -9 30 -25 5 -9 -14 -10 -10 -5 20 7 43 -6 49 -22 10 l-11 -28
-1 25 c-2 24 -2 24 -16 6 -15 -19 -15 -19 -15 5 -1 22 -2 23 -14 6 -14 -19
-33 -7 -21 13 10 16 -26 24 -47 11 -17 -11 -19 -10 -14 7 8 23 -21 39 -38 22
-17 -17 -28 -11 -21 10 4 11 2 20 -4 20 -6 0 -11 -4 -11 -10 0 -5 -4 -10 -10
-10 -5 0 -7 6 -4 14 8 21 -14 30 -34 14 -15 -12 -16 -11 -3 4 11 15 11 19 -3
24 -9 3 -24 0 -33 -7 -12 -10 -15 -10 -9 -1 11 18 -18 44 -33 29 -8 -8 -11 -7
-11 4 0 9 -11 22 -25 29 -25 13 -34 30 -15 30 5 0 35 -12 67 -26z m1063 -173
c0 -6 -4 -13 -10 -16 -5 -3 -10 1 -10 9 0 9 5 16 10 16 6 0 10 -4 10 -9z m24
-26 c-4 -8 -8 -15 -10 -15 -2 0 -4 7 -4 15 0 8 4 15 10 15 5 0 7 -7 4 -15z
m65 -6 c32 -11 37 -29 11 -37 -7 -3 -10 0 -6 6 3 6 2 13 -4 17 -5 3 -10 1 -10
-4 0 -6 -4 -11 -10 -11 -5 0 -10 7 -10 16 0 8 -4 12 -10 9 -5 -3 -10 -1 -10 4
0 14 9 14 49 0z m-1108 -60 c46 -23 156 -71 244 -107 148 -60 214 -86 398
-156 38 -14 81 -32 96 -40 15 -8 58 -24 96 -37 39 -12 117 -42 175 -66 211
-89 345 -146 349 -149 6 -5 -27 -34 -38 -34 -6 0 -11 5 -11 11 0 6 -7 9 -15 5
-9 -3 -15 1 -15 11 0 13 -3 13 -16 3 -8 -8 -14 -9 -13 -4 4 21 -2 26 -18 13
-10 -8 -14 -9 -10 -2 4 6 3 14 -2 17 -5 4 -12 2 -16 -4 -9 -15 -28 -12 -22 4
7 18 -24 31 -35 14 -6 -10 -8 -10 -8 1 0 8 -6 11 -16 7 -11 -4 -18 1 -21 14
-5 20 -23 28 -23 10 0 -5 -5 -10 -11 -10 -6 0 -8 7 -5 16 5 13 2 15 -14 11
-13 -3 -20 0 -20 9 0 17 -17 18 -23 2 -3 -8 -6 -6 -6 5 -1 18 -21 25 -21 7 0
-5 -4 -10 -10 -10 -5 0 -10 10 -10 22 0 17 -3 19 -12 10 -18 -18 -28 -15 -28
8 0 11 -4 20 -10 20 -5 0 -10 -4 -10 -10 0 -5 -4 -10 -10 -10 -5 0 -10 9 -10
20 0 11 -4 20 -10 20 -5 0 -10 -4 -10 -10 0 -5 -4 -10 -10 -10 -5 0 -9 6 -7
13 1 6 -4 11 -10 10 -7 -2 -13 2 -13 8 0 6 -9 8 -22 4 -17 -6 -20 -4 -14 10 4
13 2 16 -9 11 -8 -3 -15 -2 -15 3 0 5 -15 8 -32 7 -40 -3 -60 3 -53 15 6 9
-92 56 -176 84 -32 11 -54 14 -56 8 -2 -6 -14 -8 -28 -6 -15 3 -22 10 -18 19
3 8 1 14 -5 14 -6 0 -12 -6 -15 -12 -2 -7 -8 -10 -12 -6 -4 4 -2 14 5 23 10
12 10 15 -4 15 -9 0 -16 -7 -16 -15 0 -8 -5 -15 -10 -15 -6 0 -8 12 -4 28 l5
27 -22 -25 c-21 -24 -21 -24 -15 -2 8 24 -3 29 -23 10 -11 -11 -13 -10 -8 4 8
22 -3 30 -21 15 -13 -10 -15 -9 -9 6 7 20 -3 23 -21 5 -9 -9 -12 -8 -12 5 0 9
-4 17 -10 17 -5 0 -10 -4 -10 -10 0 -5 -7 -10 -16 -10 -11 0 -14 6 -9 20 6 20
-9 28 -20 10 -11 -19 -23 -10 -17 13 l5 22 -23 -20 -23 -20 5 23 c7 26 -6 29
-22 5 -9 -16 -10 -15 -5 5 7 24 -4 29 -24 10 -11 -11 -12 -9 -6 10 8 26 -3 29
-21 5 -13 -17 -14 -17 -7 1 5 15 3 18 -10 13 -10 -4 -17 -2 -17 4 0 6 -7 9
-15 5 -10 -3 -15 1 -15 11 0 13 -3 14 -12 5 -19 -19 -30 -14 -23 10 6 16 4 20
-8 15 -10 -3 -17 1 -20 14 -8 29 19 24 114 -22z m1120 -9 c43 -19 43 -20 13
-20 -18 0 -38 8 -49 20 -23 25 -18 25 36 0z m809 -220 c8 -5 11 -10 5 -10 -5
0 -17 5 -25 10 -8 5 -10 10 -5 10 6 0 17 -5 25 -10z m-1402 -31 c40 -13 62
-26 62 -36 0 -13 -3 -13 -15 -3 -8 7 -15 9 -15 4 0 -5 -5 -1 -11 8 -5 10 -16
15 -24 12 -8 -4 -15 -1 -15 6 0 6 -4 9 -9 5 -5 -3 -12 -1 -16 4 -3 6 -12 8
-20 4 -8 -3 -15 0 -15 6 0 15 7 14 78 -10z m-514 -58 c88 -40 110 -54 113 -72
2 -13 6 -25 10 -28 3 -3 3 4 0 17 -3 12 -4 22 -3 22 2 0 52 -21 112 -46 60
-25 183 -75 273 -110 90 -36 197 -81 238 -100 42 -19 81 -34 88 -34 7 0 23 -9
36 -21 l24 -20 -22 6 c-30 8 -29 0 3 -30 22 -21 25 -27 14 -40 -17 -20 -32
-19 -28 3 2 9 -3 16 -9 15 -7 -2 -13 3 -13 10 0 6 -5 19 -10 27 -9 13 -11 13
-21 0 -7 -10 -12 -11 -15 -4 -3 7 -14 10 -24 7 -14 -4 -20 0 -20 12 0 11 -5
15 -15 11 -8 -3 -15 0 -15 5 0 6 -9 9 -20 6 -13 -3 -20 0 -20 10 0 9 -6 13
-15 9 -8 -3 -15 -1 -15 5 0 6 -7 9 -15 5 -8 -3 -15 -1 -15 5 0 6 -7 9 -15 5
-8 -3 -15 -1 -15 5 0 5 -8 9 -17 7 -11 -2 -17 2 -15 11 2 8 -3 11 -13 8 -8 -4
-15 -2 -15 4 0 6 -9 8 -20 4 -15 -5 -20 -2 -20 11 0 13 -3 14 -15 4 -12 -10
-15 -9 -15 5 0 12 -5 15 -16 11 -12 -4 -15 -2 -10 9 3 9 0 15 -9 15 -8 0 -15
-4 -15 -10 0 -5 -4 -10 -10 -10 -5 0 -10 7 -10 16 0 8 -4 12 -10 9 -5 -3 -10
1 -10 9 0 9 -4 16 -10 16 -5 0 -10 -6 -10 -12 0 -10 -2 -10 -8 0 -5 7 -16 10
-25 6 -13 -5 -16 -2 -11 10 7 19 -7 21 -24 4 -9 -9 -12 -8 -12 6 0 15 -3 16
-15 6 -13 -10 -15 -9 -15 11 0 18 -3 20 -12 11 -18 -18 -31 -14 -25 8 3 11 1
20 -4 20 -5 0 -9 -4 -9 -10 0 -5 -4 -10 -10 -10 -5 0 -10 7 -10 16 0 13 -3 14
-14 5 -10 -9 -15 -8 -19 4 -4 8 -13 12 -21 9 -10 -4 -15 3 -18 22 -2 15 -9 30
-17 32 -11 4 -12 -2 -7 -23 4 -17 3 -24 -4 -20 -5 3 -10 13 -10 22 0 13 -2 14
-17 2 -15 -12 -16 -12 -10 4 7 20 -3 22 -22 5 -11 -11 -12 -9 -6 10 4 13 2 22
-4 22 -6 0 -11 -4 -11 -10 0 -5 -4 -10 -9 -10 -5 0 -7 10 -3 22 3 14 2 19 -6
14 -7 -4 -12 -1 -12 6 -1 8 -7 5 -16 -7 -11 -13 -18 -16 -21 -8 -2 7 -11 9
-19 6 -8 -3 -14 1 -14 11 0 9 -4 16 -10 16 -5 0 -10 11 -10 25 0 14 6 25 13
25 6 0 61 -22 121 -49z m1876 -205 c0 -2 -7 -7 -16 -10 -8 -3 -12 -2 -9 4 6
10 25 14 25 6z m-50 -24 c18 -14 19 -19 7 -19 -9 0 -19 7 -22 16 -5 13 -7 14
-15 1 -8 -13 -10 -12 -10 3 0 22 12 22 40 -1z m90 -12 c0 -5 -7 -7 -15 -4 -8
4 -15 8 -15 10 0 2 7 4 15 4 8 0 15 -4 15 -10z m-485 -37 c11 -7 26 -13 35
-13 8 0 48 -14 89 -30 40 -17 81 -30 90 -30 21 0 69 -42 53 -48 -6 -2 -21 2
-32 8 -28 15 -39 4 -14 -14 28 -21 12 -29 -36 -16 -37 10 -40 13 -28 27 11 15
11 16 -4 10 -10 -3 -18 -2 -18 4 0 6 -4 7 -10 4 -5 -3 -10 -1 -10 6 0 8 -4 8
-15 -1 -12 -10 -15 -10 -15 3 0 10 -6 14 -15 11 -8 -4 -15 -1 -15 6 0 7 -8 9
-20 5 -14 -4 -20 -2 -20 8 0 10 -8 14 -25 13 -13 -2 -23 2 -22 8 1 6 -5 10
-13 8 -12 -3 -13 -1 -2 9 18 19 15 29 -9 29 -14 0 -19 -5 -16 -14 4 -10 1 -13
-9 -9 -17 6 -18 20 -2 37 13 14 40 7 83 -21z m500 -24 c11 -17 -1 -21 -15 -4
-8 9 -8 15 -2 15 6 0 14 -5 17 -11z m-1460 -19 c3 -5 2 -10 -4 -10 -5 0 -13 5
-16 10 -3 6 -2 10 4 10 5 0 13 -4 16 -10z m1240 -160 c10 -11 13 -20 7 -20 -6
0 -16 9 -22 20 -6 11 -9 20 -7 20 2 0 12 -9 22 -20z m-1769 -44 c38 -13 143
-54 234 -91 91 -37 181 -71 200 -77 33 -9 127 -45 420 -158 69 -26 152 -57
185 -68 79 -27 357 -134 419 -162 47 -21 48 -22 25 -34 -19 -9 -25 -9 -27 1
-6 23 -22 14 -22 -12 0 -14 -2 -25 -5 -25 -17 0 -85 37 -85 46 0 6 -12 16 -27
23 -21 10 -28 9 -34 -1 -7 -10 -9 -9 -9 5 0 9 -4 17 -10 17 -5 0 -10 -4 -10
-10 0 -5 -5 -10 -11 -10 -6 0 -8 9 -4 20 6 19 -8 29 -18 13 -2 -5 -2 -3 -1 4
5 21 -14 24 -21 3 -3 -11 -10 -20 -15 -20 -5 0 -7 7 -3 16 5 14 2 16 -20 10
-21 -5 -25 -3 -21 9 4 8 2 15 -4 15 -6 0 -13 -6 -15 -12 -3 -8 -6 -6 -6 5 -1
20 -17 23 -25 5 -3 -7 -3 -3 -1 8 7 29 -24 42 -42 18 -12 -17 -13 -17 -13 2 0
13 -3 15 -8 6 -11 -16 -42 -5 -42 15 0 9 -6 13 -15 9 -8 -3 -15 -1 -15 4 0 5
-7 7 -15 4 -8 -4 -15 -2 -15 3 0 6 14 10 32 9 24 -1 36 -8 45 -26 12 -23 13
-24 13 -4 0 28 -18 42 -60 47 -43 6 -113 31 -143 52 -12 8 -26 15 -32 15 -5 0
3 -9 18 -19 21 -14 25 -21 16 -27 -7 -4 -14 -3 -17 4 -2 6 -10 8 -18 5 -9 -3
-14 1 -14 12 0 11 -5 15 -15 11 -8 -3 -15 -1 -15 5 0 6 -4 7 -10 4 -6 -3 -10
-1 -10 5 0 7 -7 10 -14 7 -10 -4 -13 -1 -9 9 3 7 0 14 -5 14 -6 0 -13 -8 -15
-17 -3 -11 -5 -5 -6 12 -2 29 -2 29 -16 11 -12 -16 -15 -17 -15 -4 0 18 -33
34 -38 19 -2 -6 -8 -11 -14 -11 -6 0 -8 7 -4 15 6 17 -9 21 -19 5 -9 -15 -25
-2 -18 15 3 8 0 15 -6 15 -6 0 -11 -4 -11 -10 0 -5 -4 -10 -10 -10 -5 0 -7 7
-4 15 4 8 1 15 -5 15 -6 0 -11 -6 -11 -12 0 -10 -3 -9 -9 1 -5 7 -14 10 -20 7
-6 -4 -11 -1 -11 7 0 20 -25 28 -39 14 -9 -9 -10 -8 -5 7 6 15 4 18 -9 13 -8
-3 -18 -1 -21 6 -3 9 -8 8 -15 -3 -9 -13 -11 -13 -11 3 0 9 -4 17 -10 17 -5 0
-10 -4 -10 -10 0 -5 -4 -10 -10 -10 -5 0 -10 7 -10 16 0 10 -5 14 -16 10 -8
-3 -12 -2 -9 3 3 5 1 12 -4 16 -5 3 -15 -3 -21 -12 -8 -13 -10 -14 -7 -2 7 22
-31 45 -39 24 -4 -8 -11 -15 -16 -15 -6 0 -5 7 2 15 7 9 10 18 6 22 -3 4 -13
-2 -22 -13 -14 -18 -15 -18 -4 4 14 28 6 42 -26 42 -17 0 -24 -5 -24 -20 0
-11 -4 -20 -9 -20 -5 0 -8 11 -7 24 2 15 -3 27 -12 31 -22 8 -28 -3 -14 -25 8
-13 8 -20 2 -20 -6 0 -14 10 -19 22 -5 14 -10 17 -15 10 -11 -19 -26 -14 -26
8 0 11 -4 20 -10 20 -5 0 -10 -7 -10 -15 0 -8 -4 -15 -10 -15 -5 0 -10 9 -10
20 0 22 -15 27 -24 8 -3 -7 -3 -3 0 10 6 26 -4 29 -23 5 -12 -17 -13 -16 -11
7 2 16 -2 24 -9 23 -7 -2 -13 4 -13 12 0 20 4 19 86 -9z m164 -116 c0 -5 -4
-10 -10 -10 -5 0 -10 5 -10 10 0 6 5 10 10 10 6 0 10 -4 10 -10z m710 -266
c40 -16 53 -34 25 -34 -8 0 -15 4 -15 9 0 5 -13 12 -30 16 -16 4 -30 11 -30
16 0 12 3 12 50 -7z m645 -234 c-7 -24 7 -26 25 -5 7 8 9 15 5 15 -5 0 -6 3
-3 6 10 10 80 -25 73 -37 -4 -6 -16 -8 -27 -6 -16 5 -19 2 -15 -14 6 -21 -12
-25 -41 -9 -9 5 -29 14 -44 20 -16 5 -28 14 -28 20 0 13 13 13 27 -1 8 -8 13
-5 18 10 3 12 9 21 11 21 3 0 2 -9 -1 -20z m190 -80 c3 -5 2 -10 -4 -10 -5 0
-13 5 -16 10 -3 6 -2 10 4 10 5 0 13 -4 16 -10z m-1638 -141 c193 -84 350
-147 608 -244 50 -19 151 -59 225 -90 168 -70 346 -140 425 -167 97 -34 328
-128 342 -140 17 -13 7 -28 -18 -28 -11 0 -18 -4 -14 -9 8 -14 -15 -25 -27
-13 -5 5 -11 18 -13 28 -2 11 -4 21 -4 23 -1 2 -8 -2 -16 -9 -12 -10 -15 -9
-15 5 0 11 -5 15 -15 11 -8 -3 -15 -1 -15 5 0 6 -4 7 -10 4 -5 -3 -10 -1 -10
5 0 7 -6 10 -12 8 -7 -3 -19 2 -27 9 -7 8 -19 12 -27 9 -7 -3 -15 0 -18 7 -3
9 -8 8 -15 -3 -9 -13 -11 -12 -11 4 0 12 -5 16 -16 12 -8 -3 -12 -2 -9 3 3 5
1 12 -5 16 -5 3 -10 1 -10 -4 0 -6 -4 -11 -10 -11 -5 0 -10 7 -10 15 0 18 -20
20 -20 3 -1 -8 -6 -5 -15 6 -7 10 -18 15 -23 12 -6 -3 -13 1 -16 10 -3 8 -10
12 -16 9 -5 -3 -10 -1 -10 5 0 7 -7 9 -16 6 -8 -3 -12 -2 -9 4 9 14 -8 13 -23
-2 -9 -9 -13 -7 -18 6 -4 11 -13 15 -25 11 -11 -4 -19 -2 -19 5 0 7 -7 9 -15
6 -9 -3 -18 1 -21 9 -3 7 -12 11 -20 8 -8 -3 -14 1 -14 11 0 9 -6 13 -14 10
-8 -3 -17 -1 -20 5 -4 6 -13 8 -21 4 -8 -3 -15 0 -15 7 0 6 -4 8 -10 5 -5 -3
-10 -1 -10 6 0 8 -4 8 -15 -1 -12 -10 -15 -9 -16 6 0 11 -3 14 -6 7 -7 -18
-23 -16 -23 3 0 14 -3 14 -15 4 -12 -10 -15 -9 -15 5 0 11 -5 15 -15 11 -8 -3
-15 -1 -15 3 0 5 -11 8 -25 7 -13 -2 -22 1 -19 5 3 5 12 9 20 9 8 0 14 6 14
14 0 17 -51 28 -67 14 -7 -6 -13 -7 -13 -3 0 4 -6 2 -14 -4 -17 -14 -32 2 -20
21 5 8 0 9 -14 6 -16 -4 -22 -2 -22 9 0 13 -3 13 -15 3 -13 -11 -14 -10 -9 4
3 9 1 16 -5 16 -6 0 -11 -6 -11 -12 0 -10 -2 -10 -8 0 -5 7 -16 10 -25 6 -12
-4 -17 -1 -18 12 0 11 -3 14 -6 7 -2 -7 -9 -13 -15 -13 -6 0 -8 7 -4 15 3 8 1
15 -4 15 -6 0 -10 -4 -10 -10 0 -5 -5 -10 -11 -10 -6 0 -8 7 -5 16 4 11 2 15
-8 11 -8 -3 -17 -1 -20 6 -3 9 -8 8 -15 -3 -9 -13 -11 -13 -11 2 0 11 -5 15
-15 12 -11 -5 -13 -2 -9 10 7 19 -25 23 -43 5 -9 -9 -10 -6 -6 12 5 19 3 22
-7 12 -10 -9 -16 -8 -28 3 -8 8 -21 13 -29 10 -8 -3 -11 -1 -8 4 9 14 -9 12
-24 -2 -10 -11 -12 -9 -9 7 2 13 -3 20 -12 20 -8 0 -20 6 -26 14 -6 8 -16 11
-22 7 -5 -3 -13 0 -15 6 -4 10 -8 9 -16 -2 -7 -10 -11 -11 -11 -2 0 8 -8 10
-24 6 -13 -3 -27 -1 -30 5 -4 5 -13 8 -21 4 -8 -3 -15 0 -15 6 0 6 -7 11 -15
11 -8 0 -15 5 -15 11 0 6 -7 9 -15 5 -9 -3 -15 1 -15 11 0 13 -3 13 -15 3 -12
-10 -15 -9 -16 6 0 11 -3 14 -6 7 -8 -21 -26 -15 -20 7 3 11 1 20 -4 20 -5 0
-9 -7 -9 -15 0 -17 -2 -17 -24 -9 -8 3 -12 12 -9 20 6 17 -13 19 -21 2 -4 -7
-4 -3 -2 10 5 26 -10 30 -17 5 -3 -12 -5 -8 -6 9 0 14 -4 34 -7 42 -8 20 -5
19 163 -55z m1673 -113 c0 -2 3 -11 6 -19 4 -12 0 -14 -15 -10 -27 7 -36 33
-11 33 11 0 20 -2 20 -4z m175 -26 c3 -5 -3 -10 -14 -10 -12 0 -21 5 -21 10 0
6 6 10 14 10 8 0 18 -4 21 -10z m-35 -30 c0 -5 -2 -10 -4 -10 -3 0 -8 5 -11
10 -3 6 -1 10 4 10 6 0 11 -4 11 -10z m-35 -30 c3 -5 1 -10 -4 -10 -6 0 -11 5
-11 10 0 6 2 10 4 10 3 0 8 -4 11 -10z m-1819 -114 c34 -14 65 -26 68 -26 4 0
67 -29 139 -64 73 -35 184 -82 247 -104 63 -22 171 -63 240 -92 69 -28 188
-76 265 -106 272 -106 441 -177 537 -226 89 -45 96 -51 85 -69 -15 -25 -42
-35 -33 -13 4 11 2 15 -8 11 -10 -4 -13 -1 -10 7 8 21 -34 27 -46 8 -9 -16 -9
-16 -10 1 0 9 -4 17 -10 17 -5 0 -10 -4 -10 -10 0 -5 -5 -10 -11 -10 -6 0 -9
9 -6 20 5 21 -7 28 -18 10 -3 -5 -11 -10 -17 -10 -6 0 -6 6 2 15 7 9 10 19 6
23 -4 4 -14 -2 -22 -13 -14 -19 -14 -19 -12 5 2 16 -3 25 -14 28 -11 2 -18 -3
-18 -12 0 -9 -4 -16 -10 -16 -5 0 -6 8 -3 17 6 16 5 16 -10 4 -15 -12 -17 -11
-18 10 0 13 -3 18 -6 12 -2 -7 -9 -13 -14 -13 -4 0 -6 7 -3 15 7 18 -12 20
-20 3 -4 -7 -4 -3 -2 10 5 27 -2 28 -21 5 -13 -16 -14 -15 -8 12 l6 30 -21
-25 -21 -25 6 30 c6 29 6 29 -10 10 -12 -13 -19 -16 -22 -8 -2 7 -11 9 -19 6
-9 -3 -14 1 -14 13 0 14 -3 15 -12 6 -18 -18 -31 -14 -25 8 3 11 1 20 -4 20
-5 0 -9 -4 -9 -10 0 -5 -5 -10 -11 -10 -6 0 -9 7 -5 15 3 8 1 15 -4 15 -6 0
-10 -4 -10 -10 0 -5 -4 -10 -10 -10 -5 0 -10 10 -10 22 0 21 0 21 -16 2 -13
-16 -15 -16 -10 -1 6 19 -9 24 -18 5 -3 -7 -3 -3 -1 8 7 27 -21 40 -43 22 -13
-11 -15 -10 -9 5 7 19 -3 23 -20 6 -7 -7 -15 -6 -27 6 -9 9 -21 13 -28 9 -8
-5 -9 -2 -5 10 6 14 3 16 -14 11 -16 -5 -19 -4 -14 6 6 9 3 11 -8 6 -10 -4
-17 -2 -17 5 0 6 -6 5 -17 -3 -15 -12 -16 -12 -10 4 6 15 3 17 -14 12 -16 -5
-19 -4 -14 6 6 9 3 11 -8 6 -12 -4 -17 -1 -17 10 0 13 -3 14 -12 5 -17 -17
-29 -15 -22 3 7 18 -7 20 -23 4 -9 -9 -11 -6 -7 12 5 22 4 23 -9 7 -19 -24
-26 -23 -20 2 7 25 -5 26 -23 3 -12 -17 -13 -16 -14 6 0 20 -2 22 -15 11 -13
-11 -14 -10 -9 4 8 21 -5 21 -23 -2 -12 -15 -13 -14 -7 11 4 17 2 27 -5 27 -6
0 -11 -7 -11 -15 0 -8 -5 -15 -11 -15 -6 0 -8 7 -5 16 11 27 -6 38 -20 13
l-13 -24 -1 25 c-1 25 -1 25 -17 5 -15 -20 -15 -20 -10 3 4 18 1 22 -19 22
-13 0 -24 -4 -24 -10 0 -5 -5 -10 -11 -10 -6 0 -8 7 -5 16 4 12 2 15 -9 10
-10 -3 -15 1 -15 12 -1 15 -3 15 -17 -3 -15 -20 -15 -20 -10 3 6 25 -3 28 -22
10 -10 -11 -11 -10 -6 5 4 9 4 17 0 17 -4 0 -14 -8 -21 -17 -13 -17 -14 -17
-7 1 4 13 3 17 -5 12 -8 -4 -12 0 -12 11 -1 17 -2 16 -17 -2 -15 -19 -15 -19
-8 10 l6 29 -23 -19 c-12 -11 -17 -13 -10 -4 6 9 9 19 5 23 -4 4 -13 -4 -21
-16 -9 -16 -12 -17 -8 -4 5 14 2 17 -10 12 -12 -5 -14 -1 -8 17 7 22 6 22 -14
4 -20 -19 -21 -18 -16 5 5 23 5 23 -12 3 -16 -20 -16 -20 -11 3 6 25 -8 31
-17 7 -10 -27 -29 -17 -22 13 6 26 6 26 -9 8 -13 -17 -15 -17 -15 -4 0 24 -18
32 -37 16 -15 -11 -16 -11 -10 6 6 14 4 17 -8 12 -10 -3 -15 1 -15 12 -1 15
-3 15 -16 -3 -16 -19 -16 -19 -9 5 7 23 7 24 -10 10 -17 -14 -18 -13 -12 3 3
9 4 17 0 17 -3 0 -12 -8 -20 -17 -13 -17 -14 -16 -8 5 7 24 -4 29 -23 10 -9
-9 -12 -5 -12 20 l0 32 33 -14 c17 -8 60 -26 93 -40z m-110 -35 c5 -5 59 -29
119 -55 61 -25 126 -55 145 -65 41 -22 215 -91 229 -91 6 0 61 -21 123 -46 62
-26 137 -55 167 -65 30 -11 64 -29 75 -40 18 -20 18 -23 3 -34 -31 -22 -20
-38 21 -32 21 4 31 3 24 -2 -11 -6 -10 -10 4 -15 9 -3 19 -4 21 -2 9 9 -14 61
-27 61 -7 0 -15 6 -18 13 -3 10 6 9 34 -3 22 -9 55 -23 74 -30 19 -7 69 -29
110 -48 53 -25 68 -36 50 -36 -39 0 -296 36 -380 53 -41 9 -101 21 -132 27
-56 11 -58 13 -58 44 0 36 -29 69 -57 63 -12 -3 -17 -11 -16 -26 2 -14 -1 -21
-7 -17 -6 3 -28 7 -50 7 -22 0 -40 4 -40 9 0 5 -10 9 -23 9 -29 0 -54 19 -59
45 -2 13 -12 21 -31 23 -15 2 -32 12 -37 23 -6 10 -17 19 -24 19 -22 0 -76
-30 -85 -48 -5 -10 -30 -23 -55 -30 -25 -6 -46 -16 -46 -21 0 -18 -32 -41 -56
-41 l-24 0 0 180 c0 99 4 180 8 180 4 0 12 -4 18 -9z m1474 -61 c0 -5 -7 -10
-16 -10 -8 0 -12 5 -9 10 3 6 10 10 16 10 5 0 9 -4 9 -10z m-1222 -203 c3 -22
-2 -27 -35 -36 -52 -15 -53 -14 -49 12 3 12 5 25 5 30 1 10 31 9 31 -2 0 -5 9
-7 20 -4 22 6 26 18 10 26 -6 3 -5 4 2 3 7 -1 14 -14 16 -29z m95 -67 c39 -20
71 -30 101 -30 32 0 52 -7 73 -24 17 -14 54 -29 88 -36 347 -68 367 -71 570
-84 76 -5 207 -60 198 -84 -5 -12 -1 -14 18 -9 16 4 49 -5 99 -28 67 -31 71
-35 42 -35 -18 0 -63 4 -100 9 -37 6 -116 15 -176 21 -59 6 -138 17 -175 25
-36 7 -109 21 -161 31 -94 16 -180 48 -180 65 0 5 -13 9 -29 9 -17 0 -33 5
-36 10 -4 7 2 9 17 6 12 -3 43 -7 68 -10 34 -5 41 -3 27 5 -9 5 -50 13 -90 16
-39 3 -79 12 -88 19 -9 8 -19 11 -23 7 -4 -5 -15 -8 -24 -9 -10 -1 -30 -2 -46
-3 -44 -2 -28 -9 58 -25 43 -9 94 -26 114 -38 20 -13 43 -22 49 -20 7 2 25 -3
40 -11 30 -15 99 -34 160 -42 21 -4 102 -17 180 -31 78 -13 166 -24 195 -25
29 0 91 -7 138 -14 85 -13 84 -13 -95 -9 -267 6 -816 24 -929 29 -84 4 -97 3
-92 -10 4 -13 -16 -14 -157 -10 -89 2 -172 4 -184 4 -22 1 -23 5 -23 80 l0 79
38 6 c20 3 79 11 131 16 51 6 112 15 135 20 22 5 67 10 98 10 47 0 59 -4 72
-22 16 -23 16 -23 31 28 6 20 -16 34 -36 23 -11 -6 -33 -6 -58 0 -22 5 -86 6
-143 4 -57 -3 -126 -5 -155 -4 -28 1 -54 -3 -57 -8 -10 -15 76 -22 133 -11 29
5 77 9 105 9 l51 -2 -45 -8 c-25 -4 -88 -13 -140 -18 -52 -6 -110 -14 -128
-17 -30 -5 -32 -3 -32 24 0 29 3 30 61 41 34 6 73 18 87 28 14 10 32 23 41 28
9 6 27 17 41 26 23 16 50 25 76 28 6 0 36 -12 67 -29z m1532 10 c-3 -5 -13
-10 -21 -10 -8 0 -14 5 -14 10 0 6 9 10 21 10 11 0 17 -4 14 -10z m-1732 -28
c-29 -30 -70 -46 -136 -55 -43 -7 -49 8 -9 24 15 6 45 19 67 29 54 24 67 28
88 29 15 1 14 -4 -10 -27z m1677 -22 c0 -5 -7 -7 -15 -4 -12 5 -14 2 -8 -12 6
-17 5 -17 -11 -5 -13 11 -14 16 -4 22 18 12 38 11 38 -1z m-28 -95 c1 -16 -44
-35 -82 -34 l-35 1 31 9 c17 5 37 16 44 24 14 17 40 17 42 0z m278 -7 c0 -21
-4 -23 -54 -20 -47 3 -56 1 -70 -19 -12 -18 -16 -20 -16 -7 0 21 -30 31 -64
22 -20 -5 -26 -2 -26 11 0 15 8 16 58 11 38 -4 72 -2 102 8 62 20 70 19 70 -6z
m-413 -34 c-7 -8 -138 -6 -146 1 -2 3 31 5 74 5 43 0 75 -3 72 -6z m253 -14
c12 -22 59 -27 78 -8 8 8 15 8 25 0 7 -6 23 -9 35 -5 17 4 22 1 22 -13 0 -18
-8 -19 -110 -16 -60 2 -110 0 -110 -5 0 -5 38 -7 84 -5 80 2 84 2 79 -18 -5
-18 -13 -20 -85 -20 -75 0 -79 -1 -73 -20 5 -15 2 -20 -13 -20 -11 0 -33 -3
-50 -6 -28 -6 -30 -4 -25 15 5 19 2 21 -23 20 -18 -2 -67 17 -126 47 l-98 49
113 -1 c62 0 120 5 130 10 14 9 21 7 34 -9 11 -14 17 -16 20 -7 3 6 15 12 28
12 13 0 27 5 30 10 10 16 23 12 35 -10z m155 -80 c-3 -5 -12 -7 -20 -3 -21 7
-19 13 6 13 11 0 18 -4 14 -10z m-116 -27 c-3 -21 3 -32 19 -36 11 -3 7 -5
-10 -6 -14 0 -28 -5 -30 -9 -1 -5 -28 -21 -58 -36 -43 -22 -78 -30 -158 -37
-149 -13 -490 -15 -687 -5 -93 5 -185 9 -202 8 -22 0 -33 4 -33 14 0 18 -20
18 -56 -1 -38 -20 -84 -20 -84 0 0 28 -31 30 -51 4 -17 -23 -19 -24 -206 -24
-249 0 -353 6 -353 23 0 20 -24 14 -39 -9 -10 -18 -15 -19 -22 -8 -5 8 -9 27
-9 43 l0 29 184 -5 c100 -2 194 0 207 5 33 12 253 9 894 -13 154 -6 313 -9
354 -7 62 3 78 0 93 -15 18 -18 58 -24 71 -11 11 10 -14 33 -37 34 -11 1 3 5
31 9 88 13 103 19 103 40 0 17 7 20 40 20 22 0 39 -3 39 -7z m61 -13 c0 -5 -9
-10 -20 -10 -11 0 -20 5 -20 10 0 6 9 10 20 10 11 0 20 -4 20 -10z m53 -7 c-7
-2 -19 -2 -25 0 -7 3 -2 5 12 5 14 0 19 -2 13 -5z m4 -29 c-3 -3 -12 -4 -19
-1 -8 3 -5 6 6 6 11 1 17 -2 13 -5z m-107 -24 c0 -5 7 -10 16 -10 8 0 12 5 9
10 -3 6 -1 10 4 10 19 0 12 -17 -14 -34 -14 -9 -25 -23 -25 -31 0 -23 17 -18
23 6 8 30 33 18 29 -14 -4 -33 15 -37 20 -5 2 16 10 24 28 25 14 1 18 0 8 -3
-22 -7 -24 -24 -3 -24 25 0 17 -20 -12 -31 -43 -16 -1584 -4 -1594 13 -10 16
-14 14 59 21 51 4 62 2 62 -10 0 -8 6 -13 13 -10 6 2 11 10 10 16 -2 6 4 11
12 11 8 0 15 -5 15 -12 0 -9 3 -9 12 0 17 17 48 15 48 -3 0 -20 17 -19 28 1 7
13 16 14 43 8 19 -5 39 -9 44 -9 6 0 15 -3 20 -7 16 -10 65 -6 65 5 0 7 59 7
178 2 339 -14 585 -9 727 15 56 9 146 46 153 63 5 11 22 9 22 -3z m97 4 c-3
-3 -12 -4 -19 -1 -8 3 -5 6 6 6 11 1 17 -2 13 -5z m-307 -14 c0 -5 -7 -7 -15
-4 -8 4 -15 8 -15 10 0 2 7 4 15 4 8 0 15 -4 15 -10z m307 -16 c-3 -3 -12 -4
-19 -1 -8 3 -5 6 6 6 11 1 17 -2 13 -5z m-1720 -59 c-4 -12 -367 -19 -367 -7
0 5 3 11 6 14 10 11 364 4 361 -7z"/>
<path d="M985 3720 c-16 -4 -22 -8 -13 -9 20 -1 44 -34 53 -73 6 -22 4 -28 -9
-28 -9 0 -16 -3 -16 -8 0 -4 35 -6 78 -5 42 1 106 3 142 4 36 1 57 3 48 6 -12
3 -18 15 -19 39 -1 19 -2 39 -3 46 -1 7 10 18 24 25 21 11 4 13 -115 11 -77 0
-153 -4 -170 -8z m95 -19 c0 -5 -5 -22 -10 -37 -12 -31 -25 -24 -35 19 -6 24
-5 27 19 27 14 0 26 -4 26 -9z m53 -33 c7 -51 3 -58 -30 -58 -27 0 -27 11 -3
75 14 37 27 31 33 -17z m47 -3 c0 -25 -4 -45 -10 -45 -5 0 -10 20 -10 45 0 25
5 45 10 45 6 0 10 -20 10 -45z m40 0 c0 -25 -4 -45 -10 -45 -5 0 -10 20 -10
45 0 25 5 45 10 45 6 0 10 -20 10 -45z"/>
<path d="M1760 2705 c0 -10 7 -15 18 -13 21 4 19 22 -2 26 -10 2 -16 -3 -16
-13z"/>
<path d="M1806 2693 c-16 -16 5 -32 49 -38 11 -2 28 -6 38 -10 12 -5 17 -2 17
9 0 9 -12 18 -27 22 -16 3 -38 9 -50 14 -11 5 -24 6 -27 3z"/>
<path d="M776 1511 c-3 -5 1 -12 10 -15 20 -8 29 -1 19 13 -8 13 -22 14 -29 2z"/>
<path d="M1397 463 c-18 -18 -6 -53 24 -69 38 -19 75 -12 82 17 9 35 -3 51
-35 47 -16 -3 -31 -1 -34 4 -6 10 -28 11 -37 1z m93 -23 c0 -5 -7 -10 -16 -10
-8 0 -12 5 -9 10 3 6 10 10 16 10 5 0 9 -4 9 -10z"/>
<path d="M550 2911 c0 -14 247 -107 258 -97 2 2 -19 11 -46 20 -28 10 -87 32
-131 51 -45 18 -81 30 -81 26z"/>
<path d="M1500 1424 c0 -8 5 -12 10 -9 6 3 10 10 10 16 0 5 -4 9 -10 9 -5 0
-10 -7 -10 -16z"/>
<path d="M1537 1434 c-4 -4 -7 -14 -7 -23 0 -11 3 -12 11 -4 6 6 10 16 7 23
-2 6 -7 8 -11 4z"/>
<path d="M860 330 c0 -5 19 -14 43 -20 23 -5 71 -19 107 -29 64 -20 219 -45
335 -55 109 -10 25 11 -115 28 -74 10 -151 21 -170 26 -112 29 -165 46 -168
53 -5 10 -32 9 -32 -3z"/>
<path d="M587 304 c-3 -3 -3 -13 1 -22 5 -15 4 -15 -11 -3 -21 16 -67 7 -67
-14 0 -18 60 -21 77 -4 9 9 20 9 43 -1 42 -17 49 -5 14 25 -29 25 -45 30 -57
19z"/>
<path d="M311 286 c-10 -11 -7 -17 10 -30 27 -19 39 -13 39 20 0 27 -30 34
-49 10z"/>
<path d="M380 280 c-12 -7 -12 -12 4 -29 22 -25 36 -19 36 15 0 25 -14 30 -40
14z"/>
<path d="M46 255 c-6 -18 29 -41 39 -25 10 16 -2 40 -19 40 -7 0 -16 -7 -20
-15z"/>
<path d="M103 245 c-8 -22 26 -58 43 -44 8 7 14 7 19 -1 5 -8 12 -4 23 11 14
20 14 23 -3 35 -25 19 -74 18 -82 -1z"/>
<path d="M600 230 c0 -5 7 -10 15 -10 8 0 15 5 15 10 0 6 -7 10 -15 10 -8 0
-15 -4 -15 -10z"/>
<path d="M216 223 c-14 -14 -4 -23 25 -23 19 0 29 4 27 12 -5 13 -42 21 -52
11z"/>
<path d="M660 219 c0 -5 5 -7 10 -4 6 3 10 8 10 11 0 2 -4 4 -10 4 -5 0 -10
-5 -10 -11z"/>
<path d="M1730 256 c0 -2 7 -6 15 -10 8 -3 15 -1 15 4 0 6 -7 10 -15 10 -8 0
-15 -2 -15 -4z"/>
<path d="M1795 250 c3 -5 8 -10 11 -10 2 0 4 5 4 10 0 6 -5 10 -11 10 -5 0 -7
-4 -4 -10z"/>
<path d="M1840 250 c0 -5 5 -10 10 -10 6 0 10 5 10 10 0 6 -4 10 -10 10 -5 0
-10 -4 -10 -10z"/>
</g>
</svg>
