<?xml version="1.0" standalone="no"?>
<!DOCTYPE svg PUBLIC "-//W3C//DTD SVG 20010904//EN"
 "http://www.w3.org/TR/2001/REC-SVG-20010904/DTD/svg10.dtd">
<svg version="1.0" xmlns="http://www.w3.org/2000/svg"
 width="214.000000pt" height="369.000000pt" viewBox="0 0 214.000000 369.000000"
 preserveAspectRatio="xMidYMid meet">
<metadata>
Created by potrace 1.16, written by Peter Selinger 2001-2019
</metadata>
<g transform="translate(0.000000,369.000000) scale(0.100000,-0.100000)"
fill="#000000" stroke="none">
<path d="M26 3663 c-3 -10 -8 -836 -10 -1834 l-3 -1816 441 4 c243 2 717 3
1054 3 l612 0 0 250 c0 137 2 363 5 502 4 264 6 2566 1 2770 -1 65 -5 120 -9
124 -3 4 -474 9 -1046 12 -1021 5 -1039 4 -1045 -15z m2073 -18 c2 -3 6 -250
9 -549 4 -494 3 -546 -12 -569 -13 -19 -15 -37 -10 -76 4 -35 3 -51 -5 -51 -8
0 -11 54 -12 183 0 100 -2 193 -4 207 -2 14 1 65 5 114 9 85 3 120 -21 136 -4
3 -10 17 -14 32 -5 21 -2 29 14 38 27 14 28 50 1 50 -11 0 -20 7 -20 15 0 8
-7 15 -15 15 -9 0 -15 -10 -15 -26 0 -14 -4 -23 -10 -19 -6 3 -13 -2 -17 -11
-4 -11 -1 -20 6 -22 11 -4 11 -6 1 -12 -20 -12 -3 -43 20 -37 30 8 33 -9 6
-26 -29 -19 -37 -49 -22 -79 6 -13 9 -48 6 -83 -3 -38 -8 -54 -12 -42 -4 9
-14 17 -22 17 -12 0 -14 9 -11 38 2 20 6 44 10 53 8 21 -20 89 -36 89 -10 0
-10 3 -1 12 21 21 13 31 -18 25 l-30 -6 17 40 c12 31 13 43 4 52 -10 9 -15 8
-25 -5 -7 -10 -18 -18 -25 -18 -17 0 -13 -31 6 -52 13 -14 14 -21 5 -30 -21
-21 -14 -40 11 -33 20 6 20 5 -6 -20 -26 -24 -28 -32 -22 -69 14 -94 16 -146
6 -163 -9 -16 -10 -15 -11 10 0 28 -24 38 -33 15 -5 -12 -13 265 -9 327 2 37
-15 82 -34 89 -23 9 -16 24 14 28 34 4 38 33 3 32 -21 -1 -23 2 -18 36 3 21 1
43 -3 50 -11 19 -40 4 -40 -20 0 -13 -7 -20 -20 -20 -25 0 -26 -18 -2 -36 10
-8 12 -13 5 -14 -23 0 -15 -40 7 -40 20 0 20 0 -1 -29 -18 -24 -20 -37 -15
-74 l7 -46 -29 27 c-20 18 -27 31 -21 38 10 13 1 91 -11 99 -4 2 -12 -7 -19
-21 -8 -19 -16 -24 -31 -19 -17 5 -19 2 -17 -30 3 -34 22 -59 38 -49 4 2 10 0
13 -5 4 -5 2 -12 -4 -16 -5 -3 -10 -19 -10 -35 0 -38 -25 -30 -34 11 -7 36
-17 37 -33 2 -9 -19 -10 -30 -2 -40 8 -9 8 -13 0 -13 -18 0 -13 -31 7 -37 9
-2 26 -16 36 -30 17 -24 18 -32 7 -102 -6 -42 -11 -92 -11 -112 0 -20 -3 -51
-6 -69 -7 -31 -8 -32 -47 -27 -22 3 -44 13 -49 21 -5 9 -17 16 -26 16 -10 0
-23 5 -30 12 -9 9 -12 8 -12 -4 0 -23 -20 -34 -31 -17 -7 11 -22 0 -64 -44
-56 -60 -59 -65 -55 -104 1 -14 -4 -23 -13 -23 -20 0 -30 -29 -16 -46 6 -8 9
-23 6 -33 -3 -14 3 -25 19 -36 16 -10 24 -25 24 -43 0 -26 -3 -28 -42 -27 -24
0 -54 -4 -67 -9 l-24 -8 6 171 c6 170 13 201 45 201 10 0 27 68 19 76 -9 9
-35 -9 -43 -29 -5 -13 -11 105 -14 276 -4 269 -7 300 -22 311 -24 18 -23 29 5
41 25 11 37 55 15 55 -8 0 -19 -5 -26 -12 -17 -17 -21 -7 -15 40 l6 42 43 0
c24 0 44 5 44 10 0 6 -9 10 -20 10 -10 0 -24 9 -30 20 -14 26 3 60 30 60 11 0
20 5 20 10 0 6 -47 10 -120 10 -73 0 -120 -4 -120 -10 0 -5 14 -10 30 -10 32
0 36 -11 24 -57 -5 -16 -14 -23 -33 -24 l-26 -1 25 -8 c14 -4 40 -8 59 -9 26
-1 32 -4 27 -17 -3 -9 -6 -22 -6 -29 0 -8 -12 -15 -27 -17 -35 -4 -37 -30 -3
-38 21 -5 22 -7 8 -13 -24 -9 -23 -24 2 -32 19 -6 19 -7 3 -32 -12 -19 -14
-29 -6 -42 17 -27 21 -351 4 -351 -15 0 -23 70 -10 86 15 18 3 64 -16 64 -8 0
-15 -5 -15 -10 0 -6 -11 -3 -24 5 -29 19 -34 13 -33 -42 0 -43 13 -58 42 -47
9 4 17 -1 21 -12 3 -11 13 -34 22 -53 15 -31 17 -74 15 -403 -2 -242 1 -376 8
-389 7 -15 6 -23 -6 -35 -8 -8 -15 -23 -15 -32 0 -10 -10 -22 -22 -27 -34 -15
-49 -53 -38 -98 4 -21 16 -44 26 -51 9 -7 14 -18 10 -24 -3 -6 1 -31 9 -55 12
-35 16 -113 19 -363 2 -176 7 -361 11 -412 l7 -92 -25 0 c-14 0 -29 5 -32 11
-10 16 -57 31 -64 21 -8 -12 -72 -45 -77 -40 -2 3 -4 64 -5 136 0 73 -4 132
-9 132 -4 0 -6 -36 -4 -80 2 -44 1 -80 -3 -80 -12 0 -10 -104 2 -112 6 -4 1
-8 -10 -8 -18 -1 -19 -1 -2 -11 13 -8 15 -15 7 -28 -5 -10 -8 -20 -6 -22 2 -2
7 -52 10 -112 l5 -107 -32 0 c-24 0 -28 3 -17 10 10 6 11 10 3 10 -20 0 -16
40 5 41 15 0 15 1 1 7 -19 8 -18 50 2 63 12 7 12 9 -1 9 -13 0 -13 1 0 10 13
8 12 10 -5 11 -17 1 -17 2 -2 6 9 2 17 9 17 14 0 5 -8 9 -17 9 -16 1 -16 2 1
15 19 14 19 15 2 15 -15 0 -16 3 -6 15 7 9 8 15 2 15 -5 0 -9 11 -8 25 0 14 4
25 7 25 10 0 5 34 -6 42 -6 5 -6 8 2 8 12 0 11 29 -2 69 -4 15 -3 21 3 17 15
-9 19 13 15 79 -2 33 -3 74 -3 90 0 23 -3 26 -10 15 -8 -13 -10 -12 -10 3 0 9
5 17 10 17 6 0 10 4 10 8 0 5 -7 9 -15 9 -13 0 -15 -43 -16 -316 -1 -174 -1
-322 0 -329 3 -19 -95 -16 -103 4 -3 9 -6 65 -6 126 0 110 0 110 22 103 13 -4
37 -9 53 -11 23 -4 19 0 -20 18 l-50 23 49 5 c46 5 48 6 31 20 -11 9 -16 10
-11 3 5 -10 -4 -13 -35 -13 l-41 0 7 150 7 150 -23 0 c-20 0 -21 -2 -9 -11 12
-8 12 -12 2 -16 -10 -4 -10 -8 -1 -19 9 -11 9 -14 -1 -14 -7 0 -10 -7 -6 -15
3 -8 0 -15 -7 -16 -9 0 -8 -2 1 -6 10 -4 10 -8 0 -20 -7 -9 -13 -31 -14 -49
-1 -28 3 -34 20 -34 15 0 17 -3 9 -11 -6 -6 -9 -18 -6 -25 3 -8 -1 -14 -8 -14
-11 0 -11 -3 1 -10 13 -8 12 -10 -2 -10 -10 0 -18 -7 -18 -15 0 -8 8 -15 18
-15 14 0 15 -2 2 -10 -13 -9 -13 -10 0 -10 13 0 13 -1 0 -10 -10 -6 -11 -10
-2 -10 6 0 12 -7 12 -15 0 -9 -6 -12 -15 -9 -8 4 -15 1 -15 -5 0 -6 8 -11 18
-12 14 0 14 -2 -3 -9 l-20 -9 20 -1 c12 -1 15 -4 7 -7 -10 -4 -10 -8 -1 -19 9
-11 8 -14 -7 -14 -16 0 -17 -2 -4 -10 13 -9 13 -10 0 -10 -13 0 -13 -1 0 -10
8 -5 11 -10 5 -10 -5 0 -2 -5 8 -11 12 -7 15 -15 9 -22 -5 -7 -8 -20 -7 -29 2
-10 -2 -18 -8 -18 -7 0 -3 -7 7 -15 19 -14 18 -15 -12 -15 l-33 0 5 178 c2 97
5 311 5 475 1 167 5 297 10 297 15 0 19 -81 8 -163 -11 -82 -7 -98 18 -77 13
11 15 6 15 -39 0 -34 -4 -51 -12 -51 -9 0 -8 -4 2 -10 8 -5 18 -10 21 -10 3 0
6 174 7 388 2 424 8 592 23 607 5 5 9 20 9 35 1 36 25 75 47 75 14 0 18 9 20
47 2 45 -9 69 -22 49 -3 -6 -12 -8 -20 -5 -20 8 -31 -24 -16 -47 9 -16 7 -27
-8 -57 l-20 -37 -1 176 c0 97 7 247 16 335 20 206 20 211 -10 243 -14 15 -26
32 -26 38 0 6 -5 13 -12 15 -6 2 3 10 20 17 43 18 55 61 16 61 -8 0 -14 6 -14
14 0 20 -19 31 -32 18 -8 -8 -16 -4 -29 11 -14 17 -20 19 -30 10 -10 -10 -9
-17 6 -33 15 -17 16 -20 3 -20 -9 0 -21 -6 -27 -14 -16 -19 11 -40 41 -33 21
6 23 3 22 -29 -1 -19 -6 -40 -12 -46 -7 -7 -9 -40 -6 -92 4 -63 3 -77 -6 -63
-7 10 -9 24 -7 32 10 23 -17 47 -48 43 -29 -3 -30 -5 -27 -48 2 -25 6 -47 8
-49 2 -2 15 1 29 7 22 10 27 9 41 -14 15 -22 16 -55 11 -300 -3 -151 -8 -278
-11 -282 -2 -4 -7 -308 -10 -676 -3 -368 -8 -671 -10 -674 -3 -3 -10 6 -15 19
-5 13 -18 32 -29 43 -20 18 -22 17 -61 -15 -22 -19 -41 -37 -41 -40 0 -3 -12
-4 -26 -1 l-26 5 6 776 c4 455 11 791 17 813 11 44 35 61 61 45 13 -9 23 -9
35 -1 27 17 26 33 -3 40 -22 6 -24 8 -10 16 23 13 21 64 -4 71 -27 7 -44 -17
-37 -52 4 -21 1 -34 -14 -46 -10 -10 -21 -16 -24 -14 -2 3 -5 63 -6 134 -2
129 -9 159 -47 206 -10 13 -10 21 3 45 8 16 15 37 15 47 0 10 7 20 15 23 23 9
19 54 -5 54 -13 0 -20 7 -20 19 0 46 -41 34 -43 -13 -2 -20 -7 -26 -24 -26
-26 0 -30 -22 -8 -40 8 -6 13 -22 12 -33 -1 -17 3 -21 20 -20 20 2 21 1 6 -27
-8 -16 -18 -32 -24 -35 -5 -4 -9 -27 -9 -53 -1 -34 -3 -43 -10 -31 -12 21 -60
13 -60 -10 0 -9 -3 -26 -6 -39 -5 -18 -2 -24 14 -29 12 -3 30 -19 40 -37 28
-48 31 -155 18 -731 -10 -454 -15 -769 -16 -924 0 -123 -1 -133 -18 -126 -9 4
-30 10 -45 13 l-29 5 6 591 c6 713 4 686 56 678 22 -3 30 0 30 11 0 9 -5 19
-11 22 -7 5 -4 14 7 26 17 19 17 20 -3 25 -15 4 -19 11 -15 31 4 20 1 24 -14
21 -15 -2 -21 -16 -26 -62 -15 -119 -20 -66 -13 149 4 121 8 340 9 486 2 146
6 271 10 278 5 7 -6 25 -28 46 l-35 33 26 17 c25 16 25 19 9 31 -14 10 -15 16
-6 33 14 26 4 44 -21 38 -10 -3 -23 1 -30 9 -19 23 -42 18 -36 -8 4 -12 1 -28
-5 -36 -9 -10 -6 -19 14 -37 38 -35 45 -63 19 -82 -21 -14 -22 -22 -21 -171 2
-386 1 -402 -18 -402 -40 0 -43 36 -42 518 1 253 4 463 8 467 7 8 2043 -3
2051 -10z m-1016 -93 c15 -16 15 -20 1 -40 -25 -36 -44 -28 -44 18 0 44 16 52
43 22z m4 -124 c-3 -8 -6 -5 -6 6 -1 11 2 17 5 13 3 -3 4 -12 1 -19z m-962
-38 c3 -5 1 -10 -4 -10 -6 0 -11 5 -11 10 0 6 2 10 4 10 3 0 8 -4 11 -10z m36
-33 c-8 -8 -11 -7 -11 4 0 20 13 34 18 19 3 -7 -1 -17 -7 -23z m969 -104 c0
-13 -4 -15 -42 -16 -15 0 -22 4 -19 14 2 8 4 21 3 31 -1 15 1 15 29 0 16 -10
29 -23 29 -29z m-940 -28 c16 -19 5 -49 -16 -41 -12 5 -14 1 -9 -15 4 -13 2
-25 -5 -29 -8 -5 -7 -11 5 -23 9 -9 18 -34 21 -54 4 -34 0 -32 -11 4 -3 9 -11
10 -29 3 -23 -8 -25 -7 -23 13 1 12 7 26 12 30 6 6 5 10 -3 14 -10 4 -10 8 -1
19 9 11 8 14 -2 14 -11 0 -11 2 1 10 13 8 12 10 -3 10 -29 0 -18 43 13 51 37
10 37 10 50 -6z m940 -119 c0 -94 -2 -104 -17 -101 -10 2 -20 4 -23 4 -3 1 2
6 10 11 12 8 10 10 -10 11 l-25 1 25 7 c22 6 25 13 27 59 1 29 -2 52 -7 52 -6
0 -10 -9 -10 -19 0 -22 -16 -36 -24 -22 -4 5 -1 13 5 17 8 4 7 9 -2 16 -11 7
-11 11 -1 15 6 2 12 9 12 14 0 12 22 38 33 39 4 0 7 -47 7 -104z m640 33 c0
-12 -8 -16 -25 -15 -14 0 -25 7 -25 14 0 7 -4 10 -10 7 -5 -3 -10 1 -10 10 0
24 42 37 58 17 6 -9 12 -23 12 -33z m-1123 9 c-3 -8 -6 -5 -6 6 -1 11 2 17 5
13 3 -3 4 -12 1 -19z m-44 -25 c-7 -2 -19 -2 -25 0 -7 3 -2 5 12 5 14 0 19 -2
13 -5z m82 -3 c-3 -5 -11 -10 -16 -10 -6 0 -7 5 -4 10 3 6 11 10 16 10 6 0 7
-4 4 -10z m1035 -20 c0 -6 11 -15 25 -20 20 -8 25 -16 25 -44 0 -19 -4 -37
-10 -41 -6 -4 -6 -15 0 -31 11 -28 14 -204 4 -204 -4 0 -14 9 -24 20 -13 15
-17 37 -16 102 1 46 5 89 10 97 5 8 3 16 -5 22 -9 6 -10 9 -2 9 6 0 11 13 11
30 -1 17 -7 30 -13 30 -7 0 -15 9 -18 20 -3 11 -1 20 4 20 5 0 9 -5 9 -10z
m-1383 -22 c-3 -8 -6 -5 -6 6 -1 11 2 17 5 13 3 -3 4 -12 1 -19z m763 -4 c0
-8 -4 -12 -10 -9 -5 3 -10 10 -10 16 0 5 5 9 10 9 6 0 10 -7 10 -16z m556 -35
c6 -39 18 -51 27 -26 2 6 3 -26 2 -73 -1 -47 -7 -95 -13 -107 -7 -12 -12 -37
-12 -56 0 -19 -7 -40 -15 -47 -8 -7 -15 -27 -15 -46 0 -18 -4 -35 -9 -38 -4
-3 -11 -33 -15 -65 -7 -61 -21 -85 -37 -60 -4 7 -5 16 -1 19 9 6 13 32 14 95
1 28 5 53 10 56 4 3 10 30 13 60 5 64 13 117 21 141 3 10 1 18 -5 18 -6 0 -11
11 -11 25 0 29 15 33 24 8 3 -10 12 -28 20 -41 11 -19 15 -20 19 -8 4 9 3 16
-1 16 -5 0 -7 16 -6 35 2 25 -1 35 -11 35 -9 0 -12 6 -9 15 4 8 2 15 -4 15
-13 0 -26 55 -17 70 11 18 25 0 31 -41z m-1271 11 c-3 -5 -11 -10 -16 -10 -6
0 -7 5 -4 10 3 6 11 10 16 10 6 0 7 -4 4 -10z m-67 -18 c2 -7 -2 -10 -12 -6
-9 3 -16 11 -16 16 0 13 23 5 28 -10z m-142 -29 c-3 -7 -1 -13 5 -13 6 0 7 -6
2 -12 -11 -19 -12 -38 -2 -38 5 0 9 -7 9 -15 0 -8 -6 -15 -12 -15 -9 0 -8 -4
2 -11 12 -9 13 -12 1 -16 -11 -5 -11 -7 0 -14 12 -8 11 -11 -1 -19 -8 -5 -10
-10 -4 -10 15 0 16 -72 1 -83 -9 -7 -9 -10 1 -14 19 -8 14 -23 -8 -23 -22 0
-25 -28 -5 -42 6 -4 1 -8 -10 -9 l-20 0 20 -9 20 -9 -20 -1 c-17 -1 -17 -3 5
-12 24 -10 24 -10 5 -18 -17 -7 -17 -9 -2 -9 19 -1 24 -21 5 -21 -9 0 -8 -4 2
-10 12 -8 12 -10 1 -10 -10 0 -9 -6 4 -27 16 -23 16 -25 1 -20 -23 9 -46 -2
-46 -23 0 -28 21 -36 37 -15 11 16 13 3 12 -96 0 -63 -4 -147 -8 -186 -4 -40
-3 -73 1 -73 4 0 4 -10 0 -22 -5 -13 -8 -42 -7 -65 0 -24 -4 -43 -10 -43 -5 0
-3 -5 5 -10 12 -8 13 -11 1 -19 -11 -7 -11 -9 0 -13 11 -4 13 -31 11 -134 -2
-71 -8 -134 -13 -141 -7 -7 -6 -12 2 -15 6 -2 9 -14 7 -27 -3 -23 -4 -24 -18
-6 -9 11 -10 16 -2 11 6 -4 12 -2 12 3 0 6 -9 11 -19 11 -16 0 -21 9 -25 43
-12 95 -13 138 -5 143 5 3 9 20 8 37 0 27 -2 29 -9 12 -5 -13 -8 3 -8 50 0 42
4 73 11 77 9 6 8 8 -1 8 -7 0 -10 5 -7 10 13 21 24 8 28 -32 3 -37 4 -35 5 15
2 51 0 57 -18 57 -11 0 -20 5 -20 11 0 5 5 7 10 4 6 -3 10 -1 10 4 0 6 -4 11
-9 11 -6 0 -9 9 -8 20 1 11 6 20 12 20 5 0 3 5 -5 10 -13 9 -13 10 0 10 12 0
12 2 1 9 -10 6 -10 10 -1 16 9 6 9 10 -1 17 -11 7 -9 8 6 6 15 -2 21 -13 26
-48 8 -58 9 -50 14 102 3 78 1 129 -5 133 -6 4 -10 -8 -10 -29 0 -19 -6 -36
-12 -39 -10 -3 -10 -7 0 -19 17 -21 5 -78 -17 -78 -9 0 -12 3 -6 8 13 9 16 42
4 42 -5 0 -9 25 -9 55 0 45 3 55 18 56 16 1 16 2 0 6 -23 6 -23 23 0 24 15 1
15 2 -1 6 -15 4 -17 11 -12 41 3 21 7 89 9 154 2 64 7 121 10 127 4 6 1 11 -6
11 -9 0 -9 3 2 10 9 6 11 13 5 18 -6 4 -9 50 -7 114 3 88 6 106 18 101 9 -3
14 1 14 12 0 15 3 15 15 5 9 -7 14 -19 11 -27z m804 16 c0 -5 -4 -9 -10 -9 -5
0 -10 7 -10 16 0 8 5 12 10 9 6 -3 10 -10 10 -16z m37 -11 c-3 -8 -6 -5 -6 6
-1 11 2 17 5 13 3 -3 4 -12 1 -19z m-338 -24 c20 -29 20 -64 0 -64 -5 0 -4 -9
3 -20 14 -22 8 -33 -15 -25 -8 4 -18 22 -21 41 -4 19 -11 34 -15 34 -10 0 -19
40 -14 57 7 21 40 9 62 -23z m1379 8 c4 -25 -15 -55 -29 -47 -4 3 -6 12 -3 19
3 8 -4 16 -15 19 -32 8 -16 39 18 35 18 -2 27 -10 29 -26z m-122 -42 c-3 -14
-8 -44 -10 -67 -4 -42 -24 -73 -45 -73 -8 0 -6 12 3 34 11 26 11 36 3 40 -7 2
-3 5 8 6 17 1 16 3 -7 15 -40 22 -51 86 -12 71 8 -3 19 4 25 16 11 21 12 21
26 2 8 -11 12 -30 9 -44z m-343 25 c-3 -9 -8 -14 -10 -11 -3 3 -2 9 2 15 9 16
15 13 8 -4z m-463 -38 c0 -43 -1 -43 -30 -39 -26 4 -29 7 -18 19 8 10 14 11
16 4 7 -21 22 0 22 30 0 16 2 29 5 29 3 0 5 -19 5 -43z m-30 20 c0 -8 -7 -14
-15 -14 -16 0 -19 9 -8 20 11 11 23 8 23 -6z m-520 -38 c0 -6 -4 -7 -10 -4 -5
3 -10 11 -10 16 0 6 5 7 10 4 6 -3 10 -11 10 -16z m-36 -5 c5 -14 4 -15 -9 -4
-17 14 -19 20 -6 20 5 0 12 -7 15 -16z m-194 -38 c5 -13 14 -27 20 -31 8 -5 1
-13 -18 -22 -17 -8 -33 -22 -35 -31 -3 -10 -5 -2 -6 16 -1 20 3 31 9 27 6 -4
10 6 10 24 0 16 -6 32 -12 34 -8 3 -6 6 5 6 10 1 21 -10 27 -23z m1669 -20
c-9 -8 -10 -7 -5 7 3 10 7 24 7 30 1 7 3 4 6 -7 3 -10 -1 -23 -8 -30z m-899
14 c14 -26 4 -60 -18 -59 -11 0 -13 2 -4 6 10 4 10 8 1 19 -8 10 -8 14 0 14 6
0 11 5 11 10 0 6 -7 10 -16 10 -8 0 -12 5 -9 10 10 16 23 12 35 -10z m-40 -32
c0 -16 -3 -19 -11 -11 -6 6 -8 16 -5 22 11 17 16 13 16 -11z m-400 -13 c0 -8
-2 -15 -4 -15 -2 0 -6 7 -10 15 -3 8 -1 15 4 15 6 0 10 -7 10 -15z m1340 -35
c0 -22 -4 -40 -10 -40 -11 0 -13 39 -4 64 10 26 14 19 14 -24z m-1640 20 c0
-5 -5 -10 -11 -10 -5 0 -7 5 -4 10 3 6 8 10 11 10 2 0 4 -4 4 -10z m272 -26
c-2 -14 0 -24 7 -24 16 0 10 -108 -6 -114 -10 -4 -11 -47 -8 -180 5 -160 4
-176 -12 -185 -17 -9 -18 2 -15 191 2 174 5 198 17 188 13 -11 15 -7 15 24 0
20 -4 36 -10 36 -5 0 -10 22 -10 50 0 37 3 48 14 44 8 -3 11 -15 8 -30z m1044
-10 c-3 -26 -10 -52 -17 -58 -9 -8 -10 -3 -5 23 3 18 6 44 6 57 0 13 5 24 10
24 6 0 8 -19 6 -46z m-567 -126 c0 -84 -2 -148 -4 -143 -2 6 -6 23 -10 38 -5
24 -8 27 -21 16 -8 -6 -17 -9 -21 -5 -3 3 0 6 8 6 11 0 11 2 -1 10 -13 9 -13
10 0 10 13 0 13 1 0 10 -13 9 -13 11 0 20 13 8 12 10 -5 11 -15 0 -16 2 -5 6
22 9 30 25 21 42 -5 9 -6 22 -4 29 3 6 0 12 -6 12 -6 0 -11 5 -11 11 0 6 9 8
20 4 11 -4 20 -2 20 4 0 6 -10 11 -22 11 -23 1 -23 1 2 15 14 8 19 14 13 15
-19 0 -16 18 5 23 9 3 18 5 20 6 1 0 2 -68 1 -151z m-749 116 c0 -8 -4 -14
-10 -14 -5 0 -10 2 -10 4 0 2 -3 12 -6 20 -5 12 -2 15 10 10 9 -3 16 -12 16
-20z m-93 -41 c-3 -10 -5 -2 -5 17 0 19 2 27 5 18 2 -10 2 -26 0 -35z m45 25
c12 -12 23 -32 25 -43 1 -11 -1 -14 -3 -7 -9 20 -37 15 -30 -5 6 -16 5 -16
-11 1 -13 13 -15 20 -5 23 6 3 12 9 12 14 0 6 -4 7 -10 4 -5 -3 -10 3 -10 14
0 26 5 26 32 -1z m1543 3 c3 -5 1 -12 -5 -16 -5 -3 -10 1 -10 9 0 18 6 21 15
7z m71 -8 c-1 -13 5 -17 20 -16 21 2 22 -2 28 -160 3 -89 4 -487 2 -884 l-3
-722 -32 -27 -32 -26 2 743 c1 409 3 747 6 752 2 4 12 3 22 -3 16 -8 19 -4 24
27 9 56 -26 104 -37 51 -3 -13 -7 -32 -9 -43 -3 -11 -5 58 -6 153 0 94 3 172
8 172 5 0 8 -8 7 -17z m-179 -15 c-3 -8 -6 -5 -6 6 -1 11 2 17 5 13 3 -3 4
-12 1 -19z m254 -170 l-8 -73 -2 85 c-1 47 -4 103 -6 125 -5 35 -4 34 10 -12
11 -40 12 -70 6 -125z m29 162 c0 -5 -4 -10 -10 -10 -5 0 -10 5 -10 10 0 6 5
10 10 10 6 0 10 -4 10 -10z m-398 -30 c-2 -16 -6 -30 -8 -30 -2 0 -4 14 -4 30
0 17 4 30 8 30 5 0 7 -13 4 -30z m238 10 c0 -22 15 -27 23 -7 3 6 6 -5 6 -26
1 -25 -3 -36 -10 -32 -6 4 -8 13 -5 21 3 8 -1 14 -8 14 -22 0 -26 -25 -19
-104 6 -76 -1 -131 -16 -122 -11 7 -21 -80 -21 -196 0 -54 -4 -98 -8 -98 -5 0
-16 6 -26 13 -16 11 -18 28 -18 108 0 239 4 299 17 299 18 0 36 -25 45 -63 5
-21 8 6 9 84 1 64 4 119 8 122 12 13 23 7 23 -13z m-1840 -38 c0 -15 -2 -15
-10 -2 -13 20 -13 33 0 25 6 -3 10 -14 10 -23z m1640 7 c0 -5 -4 -9 -10 -9 -5
0 -10 7 -10 16 0 8 5 12 10 9 6 -3 10 -10 10 -16z m90 -25 c0 -25 -4 -43 -9
-40 -11 7 -21 -17 -21 -50 0 -26 -7 -29 -30 -14 -13 8 -12 10 3 10 9 0 16 3
16 8 -5 31 4 83 16 96 8 8 15 19 15 25 0 6 2 11 5 11 3 0 5 -21 5 -46z m-1400
26 c0 -5 -6 -10 -12 -10 -10 0 -10 -2 0 -8 14 -10 13 -162 -2 -162 -4 0 -6 32
-3 70 4 54 2 70 -8 70 -7 0 -12 8 -10 18 2 9 4 20 4 25 1 11 31 8 31 -3z
m1460 -20 c0 -16 -3 -17 -24 -7 -13 6 -22 17 -19 23 7 18 43 4 43 -16z m-1359
-17 c-12 -20 -14 -14 -5 12 4 9 9 14 11 11 3 -2 0 -13 -6 -23z m-148 -63 c-9
-35 -19 -22 -21 28 -3 46 -2 47 12 20 8 -15 12 -36 9 -48z m-238 3 c-5 -27 -9
-33 -16 -22 -13 20 -11 53 3 67 17 17 22 0 13 -45z m572 35 c-3 -8 -6 -5 -6 6
-1 11 2 17 5 13 3 -3 4 -12 1 -19z m853 13 c14 -4 26 -13 28 -21 2 -12 -12
-15 -65 -16 -53 0 -85 -8 -142 -32 -41 -17 -77 -30 -79 -27 -11 11 11 36 50
54 40 20 29 23 -17 6 -14 -6 -17 -5 -10 3 30 33 166 52 235 33z m160 -21 c-8
-5 -17 -7 -19 -4 -3 3 1 9 9 14 8 5 17 7 19 4 3 -3 -1 -9 -9 -14z m237 -7 c-3
-3 -11 -2 -17 2 -9 6 -9 10 1 16 14 8 27 -7 16 -18z m-1834 -548 c-1 -259 -2
-595 -2 -749 -1 -243 -3 -277 -16 -272 -8 3 -15 1 -15 -5 0 -5 7 -12 15 -15
11 -4 15 -21 15 -59 0 -43 -4 -56 -22 -69 l-23 -17 23 6 23 7 -3 -129 c-3
-120 -4 -128 -23 -128 -20 0 -20 7 -20 900 0 495 1 940 3 988 l4 88 21 -38
c22 -38 22 -42 20 -508z m412 525 c-3 -5 -12 -7 -20 -3 -21 7 -19 13 6 13 11
0 18 -4 14 -10z m875 -39 c0 -10 25 -9 35 1 13 12 55 -5 55 -23 0 -11 5 -19
10 -19 12 0 1 -53 -12 -58 -16 -7 -8 -24 10 -18 13 5 13 2 -4 -12 -27 -23 -20
-42 15 -42 25 0 28 -3 23 -25 -2 -14 1 -32 8 -40 24 -29 4 -61 -46 -75 -42
-12 -47 -11 -66 7 -25 25 -18 39 28 58 42 17 47 38 5 24 -16 -6 -50 -9 -77 -7
l-48 3 -12 60 c-22 105 -19 132 19 155 34 21 57 26 57 11z m260 -1 c0 -5 -4
-10 -10 -10 -5 0 -10 5 -10 10 0 6 5 10 10 10 6 0 10 -4 10 -10z m46 -30 c11
0 14 -14 13 -57 l-1 -58 -19 60 c-10 33 -18 69 -18 80 2 17 2 17 6 -2 2 -13
11 -23 19 -23z m-589 24 c-3 -3 -12 -4 -19 -1 -8 3 -5 6 6 6 11 1 17 -2 13 -5z
m-737 -14 c0 -5 -4 -10 -9 -10 -6 0 -13 5 -16 10 -3 6 1 10 9 10 9 0 16 -4 16
-10z m1410 1 c0 -5 -5 -22 -10 -37 -12 -30 -4 -46 11 -24 7 11 9 6 7 -19 -2
-19 -9 -36 -16 -39 -11 -3 -12 0 -2 18 10 19 9 21 -11 18 -12 -2 -24 3 -26 10
-3 6 1 12 9 12 10 0 9 3 -2 10 -13 9 -12 12 4 25 20 15 20 15 0 16 -18 0 -18
1 1 9 27 12 35 12 35 1z m-659 -36 c5 4 9 -25 9 -69 0 -42 4 -76 9 -76 14 0 6
-53 -8 -58 -16 -5 -27 28 -12 38 9 5 8 9 -4 14 -9 3 -13 10 -10 16 3 5 -2 10
-12 11 -14 0 -14 2 5 9 12 5 22 12 22 15 0 3 -10 10 -22 15 -18 7 -19 9 -6 9
13 1 17 8 16 26 -1 14 -5 25 -9 25 -3 0 -5 12 -3 28 3 37 6 41 11 14 2 -12 9
-20 14 -17z m558 -46 c7 -28 33 -90 57 -137 24 -47 44 -93 44 -102 0 -9 4 -20
9 -25 15 -15 61 -161 61 -192 0 -15 -7 -41 -15 -57 -17 -33 -18 -36 -7 -36 16
0 32 50 32 99 0 34 4 48 14 48 8 0 11 -8 8 -19 -3 -11 3 -24 14 -32 16 -12 17
-18 6 -40 -7 -15 -17 -24 -22 -21 -6 4 -13 -7 -16 -22 -3 -16 -15 -33 -27 -38
-12 -6 -27 -21 -34 -35 l-12 -25 -7 33 c-5 24 -10 30 -19 22 -29 -24 -108 39
-120 95 -6 30 -6 30 10 -4 19 -42 29 -36 14 8 -6 18 -9 35 -6 38 3 3 9 -8 13
-23 9 -37 22 -54 52 -65 14 -5 22 -12 19 -15 -3 -3 -19 2 -36 11 -17 8 -31 11
-31 6 0 -17 54 -39 93 -38 42 1 47 11 15 28 -13 7 -29 18 -36 26 -7 7 -21 13
-30 13 -14 0 -14 2 -3 9 11 7 9 13 -8 30 -16 16 -21 33 -20 73 0 102 -1 120
-11 137 -6 11 -6 21 1 28 16 16 19 53 5 53 -8 0 -16 9 -19 21 -3 12 -10 18
-16 15 -14 -9 -40 32 -34 54 5 17 2 18 -26 10 -17 -4 -36 -11 -43 -15 -7 -4 2
7 20 24 18 17 26 31 19 31 -7 0 -18 -5 -25 -12 -9 -9 -12 -9 -12 0 0 7 11 17
25 22 14 5 25 14 25 20 0 16 -10 12 -47 -16 -18 -14 -33 -21 -33 -15 0 14 49
50 77 57 12 4 23 10 23 15 0 14 -34 10 -58 -7 -12 -8 -22 -11 -22 -5 0 5 6 13
13 18 19 12 91 20 102 12 6 -5 17 -31 24 -60z m-1316 -136 c-4 -36 -10 -53
-19 -53 -19 0 -20 130 -1 131 10 0 10 2 0 6 -7 2 -13 16 -13 29 0 13 6 24 13
24 8 0 7 4 -3 10 -10 6 -11 10 -2 10 6 0 13 10 13 23 1 12 5 -12 10 -53 4 -41
5 -99 2 -127z m31 175 c-4 -6 -7 -41 -6 -77 0 -50 -1 -59 -8 -36 -4 17 -8 51
-9 78 -1 36 2 47 15 47 9 0 12 -5 8 -12z m1523 -30 c-3 -8 -6 -5 -6 6 -1 11 2
17 5 13 3 -3 4 -12 1 -19z m132 -125 c1 -56 -3 -93 -9 -93 -6 0 -10 44 -9 113
0 72 3 105 9 92 5 -11 9 -62 9 -112z m-1288 54 c-10 -9 -11 -8 -5 6 3 10 9 15
12 12 3 -3 0 -11 -7 -18z m1365 -214 c-2 -131 -5 -532 -5 -890 -1 -425 -4
-653 -11 -653 -6 0 -10 89 -10 243 0 133 -4 438 -8 677 -11 592 -8 840 9 851
8 5 18 9 22 9 4 0 6 -107 3 -237z m-336 212 c0 -10 -10 -15 -27 -15 l-28 0 25
14 c14 8 26 14 28 15 1 1 2 -6 2 -14z m139 -32 c0 -5 -4 -17 -9 -28 -7 -17 -9
-17 -9 -2 -1 9 -9 17 -18 17 -15 0 -16 2 -3 10 18 12 40 13 39 3z m-1669 -7
c0 -3 -4 -8 -10 -11 -5 -3 -10 -1 -10 4 0 6 5 11 10 11 6 0 10 -2 10 -4z
m1041 -47 c5 -8 3 -16 -3 -20 -16 -10 11 -42 29 -35 10 4 13 1 8 -13 -3 -11
-1 -22 5 -26 5 -3 10 -2 10 4 0 7 8 7 25 -1 14 -6 25 -15 25 -20 0 -5 4 -6 10
-3 6 3 7 -1 4 -9 -3 -9 -10 -13 -15 -10 -5 3 -9 0 -9 -5 0 -6 5 -11 10 -11 6
0 10 -7 10 -15 0 -8 -4 -15 -10 -15 -5 0 -10 -6 -10 -13 0 -14 -23 -29 -72
-47 -23 -8 -28 -7 -28 6 0 8 5 12 10 9 6 -4 10 5 10 19 0 14 -4 26 -10 26 -5
0 -10 5 -10 10 0 6 7 10 15 10 20 0 19 27 -1 38 -10 5 -12 12 -7 15 6 4 18 -9
28 -28 16 -28 17 -36 5 -50 -10 -12 -10 -19 -2 -27 9 -9 12 -7 12 10 0 12 5
22 10 22 6 0 10 -5 10 -12 0 -6 3 -9 6 -5 9 8 -55 133 -79 154 -19 17 -20 17
-14 1 8 -23 -2 -50 -15 -42 -6 4 -5 10 3 15 10 6 7 10 -11 17 -18 7 -28 5 -40
-6 -13 -14 -15 -14 -18 1 -2 10 -8 14 -14 11 -10 -6 -28 12 -28 28 0 4 12 14
28 23 32 18 110 14 123 -6z m296 -11 c-3 -7 -5 -2 -5 12 0 14 2 19 5 13 2 -7
2 -19 0 -25z m180 26 c-3 -3 -12 -4 -19 -1 -8 3 -5 6 6 6 11 1 17 -2 13 -5z
m-1097 -81 c-11 -17 -11 -17 -6 0 3 10 7 31 7 45 l2 27 4 -27 c2 -15 -1 -35
-7 -45z m-18 -20 c5 -33 3 -40 -8 -36 -23 9 -17 -44 7 -60 12 -9 16 -16 9 -19
-17 -5 -20 -58 -4 -58 17 0 19 -30 2 -31 -10 0 -10 -2 0 -6 14 -6 16 -53 2
-53 -7 0 -8 -21 -4 -59 5 -53 4 -59 -15 -64 -12 -3 -21 -1 -21 4 0 5 7 9 15 9
8 0 15 5 15 11 0 6 -7 8 -16 5 -14 -5 -15 -4 -4 9 10 12 10 15 -1 16 -10 0
-10 2 -2 5 9 4 9 11 1 30 -10 20 -9 27 3 35 12 7 12 9 -1 9 -13 0 -13 1 0 10
8 5 10 10 3 10 -8 0 -12 44 -12 151 -2 128 0 149 12 137 8 -7 16 -32 19 -55z
m1255 18 c-5 -41 -3 -50 11 -54 15 -4 15 -5 -1 -6 -10 0 -22 9 -28 22 -8 18
-9 16 -5 -15 4 -30 2 -36 -10 -31 -8 3 -13 12 -10 20 3 8 6 30 6 49 0 26 3 32
15 28 8 -4 15 -1 15 5 0 6 -7 11 -15 11 -8 0 -15 5 -15 10 0 6 10 10 21 10 20
0 21 -4 16 -49z m-1526 -39 c2 -67 -3 -93 -16 -80 -3 2 -2 39 1 82 4 42 8 75
10 73 2 -1 4 -35 5 -75z m-121 58 c0 -5 -4 -10 -9 -10 -6 0 -13 5 -16 10 -3 6
1 10 9 10 9 0 16 -4 16 -10z m100 -27 c0 -26 0 -26 -19 -7 -18 19 -15 25 17
33 1 1 2 -11 2 -26z m1255 17 c3 -5 0 -7 -9 -4 -19 7 -58 -14 -50 -27 3 -6 19
-7 35 -4 22 5 29 3 29 -8 0 -9 -7 -13 -17 -11 -10 3 -27 -2 -38 -10 -19 -15
-18 -15 20 -17 l40 -1 -32 -9 c-31 -9 -47 -32 -20 -28 24 3 37 -1 37 -12 0 -7
-10 -9 -25 -5 -14 4 -25 2 -25 -3 0 -6 -17 -13 -37 -17 -43 -8 -96 -37 -86
-47 3 -4 -1 -7 -11 -7 -9 0 -14 -4 -11 -10 3 -5 1 -10 -6 -10 -7 0 -10 -3 -6
-6 8 -9 -16 -33 -27 -26 -5 3 -6 -2 -3 -12 4 -10 3 -15 -3 -11 -11 7 -70 -21
-70 -33 0 -5 6 -14 13 -22 6 -8 2 -6 -10 4 -27 23 -29 16 -7 -22 l16 -27 -26
28 c-27 29 -34 22 -15 -16 10 -22 10 -22 -10 1 -26 30 -37 28 -17 -3 23 -35
20 -42 -7 -16 -21 19 -26 20 -36 7 -18 -22 -39 -9 -33 19 2 14 8 22 13 19 5
-3 9 -1 9 4 0 6 -7 12 -15 16 -8 3 -15 12 -15 20 0 10 6 13 15 9 9 -3 15 -2
14 3 -4 21 2 32 21 37 11 3 20 12 20 21 0 10 25 23 80 40 59 19 88 34 110 58
16 18 30 38 30 44 0 11 69 76 98 94 22 12 59 13 67 0z m-225 -4 c0 -3 -4 -8
-10 -11 -5 -3 -10 -1 -10 4 0 6 5 11 10 11 6 0 10 -2 10 -4z m-153 -33 c12 -8
24 -21 27 -30 4 -11 -4 -8 -26 9 -28 21 -35 23 -46 12 -8 -9 -9 -14 -2 -14 6
0 8 -5 5 -10 -3 -6 2 -13 11 -17 16 -6 16 -7 -2 -14 -17 -7 -17 -8 -1 -8 10
-1 15 -6 12 -11 -4 -6 -11 -8 -16 -5 -5 4 -9 1 -9 -4 0 -6 5 -11 10 -11 6 0
10 -3 10 -7 0 -5 -25 -9 -56 -10 -31 -2 -63 -8 -70 -14 -23 -19 -16 -1 8 21
18 16 20 23 10 29 -11 7 -11 9 2 14 9 4 14 16 12 33 -3 29 -26 47 -26 20 0 -8
-4 -18 -10 -21 -5 -3 -10 3 -10 14 0 47 108 62 167 24z m218 -3 c-3 -5 -13
-10 -21 -10 -8 0 -14 5 -14 10 0 6 9 10 21 10 11 0 17 -4 14 -10z m585 -11 c0
-5 -4 -9 -10 -9 -5 0 -10 7 -10 16 0 8 5 12 10 9 6 -3 10 -10 10 -16z m-779
-57 c10 -26 -3 -54 -15 -33 -4 6 -1 11 6 11 9 1 9 4 -3 13 -22 18 -32 48 -13
40 9 -3 20 -17 25 -31z m775 -56 c-2 -28 0 -61 5 -73 5 -15 4 -23 -7 -27 -12
-4 -14 12 -13 97 0 75 3 96 10 78 5 -13 8 -47 5 -75z m-1696 80 c0 -3 -4 -8
-10 -11 -5 -3 -10 -1 -10 4 0 6 5 11 10 11 6 0 10 -2 10 -4z m1508 -16 c12
-11 26 -20 32 -20 6 0 8 -4 5 -10 -3 -5 -2 -10 4 -10 6 0 8 -7 5 -15 -4 -8
-18 -15 -33 -15 -15 0 -21 3 -14 8 18 11 9 42 -18 63 -13 10 -19 19 -13 19 5
0 20 -9 32 -20z m-1478 -55 c-10 -12 -10 -15 1 -15 11 0 11 -2 -1 -10 -8 -5
-10 -10 -4 -10 14 0 13 -32 -1 -43 -6 -6 -6 -10 3 -14 6 -2 9 -10 5 -16 -11
-18 -14 -49 -4 -43 10 6 6 -262 -4 -272 -9 -10 -8 220 3 246 5 15 4 15 -11 3
-16 -12 -17 -8 -17 57 0 90 9 132 27 132 13 0 13 -3 3 -15z m794 -30 c-10 -8
-31 -17 -46 -20 -15 -4 -32 -13 -38 -21 -7 -7 -17 -11 -22 -8 -5 3 -8 -2 -6
-12 2 -11 -2 -18 -9 -16 -7 1 -13 -3 -13 -9 0 -5 -4 -7 -10 -4 -13 8 -13 -11
2 -38 10 -19 9 -20 -4 -10 -8 7 -18 10 -21 6 -4 -3 -7 8 -7 25 0 32 29 72 52
72 6 0 20 8 31 17 18 17 97 43 106 36 3 -2 -4 -10 -15 -18z m457 -16 l-10 -24
0 26 c-1 14 2 29 6 33 12 12 14 -9 4 -35z m309 31 c0 -5 -2 -10 -4 -10 -3 0
-8 5 -11 10 -3 6 -1 10 4 10 6 0 11 -4 11 -10z m-321 -60 c10 0 3 -171 -10
-257 -10 -64 -13 -70 -27 -57 -13 14 -13 22 2 75 18 65 21 119 7 119 -5 0 -11
-24 -14 -52 -7 -72 -29 -158 -40 -158 -5 0 -6 11 -3 25 3 13 18 93 32 177 27
168 36 199 42 156 2 -16 7 -28 11 -28z m38 28 c-3 -8 -6 -5 -6 6 -1 11 2 17 5
13 3 -3 4 -12 1 -19z m-442 -9 c-4 -5 -12 -8 -18 -6 -7 2 -18 -2 -25 -10 -8
-7 -19 -10 -25 -6 -6 4 -8 0 -4 -10 4 -12 2 -14 -11 -10 -14 6 -15 4 -5 -8 9
-11 6 -14 -18 -15 -46 -2 -35 22 26 54 43 22 91 29 80 11z m715 1 c0 -5 -2
-10 -4 -10 -3 0 -8 5 -11 10 -3 6 -1 10 4 10 6 0 11 -4 11 -10z m-455 -175
c-8 -55 -18 -116 -21 -136 -4 -29 -11 -38 -29 -42 -30 -5 -38 13 -34 83 3 61
-7 76 -16 24 -10 -60 -16 -65 -10 -9 11 111 17 128 69 194 l51 65 3 -39 c2
-22 -4 -85 -13 -140z m-350 95 c3 -5 0 -7 -9 -4 -15 6 -17 -11 -3 -33 5 -8 3
-13 -3 -13 -6 0 -8 -4 -5 -10 3 -5 1 -10 -5 -10 -7 0 -10 -7 -6 -15 3 -8 2
-15 -3 -15 -17 0 -20 43 -6 77 14 33 28 42 40 23z m-785 -4 c0 -3 -4 -8 -10
-11 -5 -3 -10 -1 -10 4 0 6 5 11 10 11 6 0 10 -2 10 -4z m721 -9 c-1 -4 -1
-18 -1 -32 0 -14 -4 -25 -8 -25 -4 0 -8 16 -8 35 0 20 4 34 9 32 5 -1 8 -6 8
-10z m299 -18 c0 -6 -4 -7 -10 -4 -5 3 -10 11 -10 16 0 6 5 7 10 4 6 -3 10
-11 10 -16z m700 11 c0 -5 -5 -10 -11 -10 -5 0 -7 5 -4 10 3 6 8 10 11 10 2 0
4 -4 4 -10z m-1725 -40 c-6 -9 -9 -9 -16 1 -10 17 0 34 13 21 6 -6 7 -16 3
-22z m1306 -57 c-1 -42 -7 -84 -12 -92 -9 -14 -10 -13 -5 2 3 10 6 55 6 99 0
45 3 78 7 74 4 -3 6 -41 4 -83z m254 67 c-3 -5 4 -11 17 -11 20 -1 20 -2 4 -6
-18 -5 -18 -6 5 -19 22 -12 22 -13 4 -14 -19 -1 -19 -1 -2 -14 16 -13 24 -36
11 -36 -4 0 -13 8 -21 18 -10 12 -16 14 -19 5 -3 -7 -10 -13 -16 -13 -7 0 -8
15 -4 42 7 42 13 58 22 58 3 0 2 -4 -1 -10z m-143 -60 c20 0 35 -19 16 -21
-22 -2 -43 3 -48 11 -3 4 -15 12 -26 18 -12 6 -24 20 -27 32 -4 17 0 16 31
-10 20 -17 44 -30 54 -30z m-394 3 c-6 -21 -12 -69 -12 -108 -1 -69 -2 -70
-28 -73 -16 -2 -28 1 -28 7 0 6 3 11 8 11 4 0 6 35 4 78 l-3 77 33 23 c18 12
34 22 35 22 1 0 -3 -17 -9 -37z m498 -50 c-2 -43 0 -190 5 -328 10 -258 2
-546 -16 -552 -35 -11 -36 5 -35 458 0 298 4 445 11 448 6 2 14 14 19 27 16
41 20 27 16 -53z m193 26 c-20 -12 -22 -4 -7 20 11 18 14 19 16 5 2 -9 -2 -20
-9 -25z m-388 -31 c-8 -28 -9 -30 -10 -8 -1 34 12 80 17 58 2 -9 -1 -31 -7
-50z m-614 30 c-3 -8 -6 -5 -6 6 -1 11 2 17 5 13 3 -3 4 -12 1 -19z m480 -10
c-3 -8 -6 -5 -6 6 -1 11 2 17 5 13 3 -3 4 -12 1 -19z m157 -22 c-3 -21 -8 -35
-11 -32 -2 2 -1 20 3 40 3 21 8 35 11 32 2 -2 1 -20 -3 -40z m-1567 -3 c-3
-10 -5 -4 -5 12 0 17 2 24 5 18 2 -7 2 -21 0 -30z m211 -3 c0 -22 -3 -40 -9
-40 -10 0 -13 63 -2 73 10 11 11 9 11 -33z m788 13 c-6 -6 -36 9 -36 18 0 5 9
4 20 -3 10 -7 18 -14 16 -15z m381 5 c-3 -8 -6 -5 -6 6 -1 11 2 17 5 13 3 -3
4 -12 1 -19z m-226 -57 c2 -46 -1 -66 -10 -69 -10 -3 -12 9 -7 52 3 31 2 56
-3 56 -13 0 -22 -59 -15 -99 6 -33 5 -35 -10 -21 -9 9 -18 36 -21 60 -5 42 -4
46 27 66 18 11 34 20 35 20 1 -1 3 -30 4 -65z m789 59 c0 -5 -8 -10 -17 -10
-15 0 -16 2 -3 10 19 12 20 12 20 0z m-269 -117 c6 -372 4 -423 -11 -433 -13
-9 -13 -11 0 -20 13 -9 13 -10 0 -10 -13 0 -13 -1 0 -10 13 -8 13 -10 -1 -10
-9 0 -20 11 -23 24 -3 13 -9 31 -12 40 -4 11 0 16 13 16 14 0 19 7 19 25 0 14
-5 25 -10 25 -6 0 -4 5 4 10 12 8 10 10 -10 10 -21 1 -23 2 -8 11 20 11 13 39
-11 40 -12 0 -11 2 4 9 19 7 19 8 2 15 -17 7 -17 8 0 21 17 13 17 13 -2 14
-12 0 -16 3 -9 8 6 4 10 17 9 30 -1 12 2 22 6 22 6 0 6 18 0 38 -1 1 -1 5 0 8
0 4 -5 11 -13 15 -10 7 -9 9 5 9 19 0 24 20 5 20 -9 0 -8 4 2 10 13 9 13 11 0
20 -13 9 -13 10 1 10 10 0 15 9 15 30 0 20 -5 30 -15 31 -11 0 -12 2 -3 6 18
7 15 23 -5 24 -13 0 -12 3 6 10 17 7 22 15 18 29 -3 13 0 20 8 20 11 0 14 -27
16 -117z m105 82 c-10 -8 -15 -18 -11 -24 3 -6 1 -11 -4 -11 -17 0 -13 32 6
46 10 7 20 10 23 7 3 -2 -3 -11 -14 -18z m44 11 c0 -3 -4 -8 -10 -11 -5 -3
-10 -1 -10 4 0 6 5 11 10 11 6 0 10 -2 10 -4z m-1285 -36 c-12 -4 -11 -12 6
-50 11 -25 15 -40 8 -33 -6 6 -18 9 -25 6 -11 -4 -14 7 -14 51 0 54 1 56 20
44 16 -10 17 -14 5 -18z m465 10 c0 -5 -5 -10 -11 -10 -5 0 -7 5 -4 10 3 6 8
10 11 10 2 0 4 -4 4 -10z m73 -49 c5 -29 15 -55 23 -58 8 -3 14 -10 14 -17 -1
-11 -55 -76 -65 -76 -3 0 -5 48 -5 106 0 80 3 105 13 102 6 -3 16 -28 20 -57z
m877 -6 c0 -36 -2 -65 -4 -65 -2 0 -11 -3 -20 -6 -12 -4 -16 0 -16 16 0 16 4
20 15 16 8 -3 15 -1 15 4 0 6 -8 10 -17 11 -15 0 -15 2 2 9 19 7 19 8 2 15
-15 6 -16 10 -5 16 10 7 10 9 1 9 -7 0 -13 9 -13 20 0 13 7 20 20 20 18 0 20
-7 20 -65z m-410 10 c-6 -15 -13 -25 -16 -23 -2 3 1 17 7 32 16 34 23 27 9 -9z
m54 -152 l2 -178 -18 80 c-13 53 -17 97 -13 130 3 28 8 74 12 103 3 29 8 51
10 48 3 -3 6 -85 7 -183z m225 -16 c0 -105 -4 -194 -8 -197 -4 -3 -11 -30 -14
-60 -5 -40 -4 -51 4 -40 9 12 9 11 4 -5 -4 -11 -10 -39 -12 -62 -4 -31 -9 -40
-20 -36 -12 5 -12 7 -1 15 10 8 11 11 0 15 -10 4 -10 8 -1 19 9 11 8 14 -2 15
-8 0 -5 4 6 9 19 8 19 9 1 9 -15 1 -16 4 -6 16 9 10 9 15 1 15 -6 0 -11 9 -11
20 0 11 6 20 13 20 8 0 7 4 -3 10 -13 9 -13 11 0 20 13 9 13 11 0 20 -13 9
-13 10 0 11 10 0 11 2 3 6 -19 7 -16 23 5 24 16 1 16 2 0 6 -19 5 -25 23 -8
23 6 0 5 9 -2 21 -11 18 -11 23 1 27 11 4 11 6 0 14 -11 7 -11 11 -1 15 6 2
12 13 12 24 0 10 -6 19 -12 20 -7 0 -4 4 7 9 17 7 17 9 3 9 -21 1 -24 17 -5
24 7 3 5 6 -5 6 -19 1 -25 21 -7 21 8 0 8 5 -1 15 -10 12 -10 15 1 16 10 0 11
2 2 6 -7 2 -13 11 -13 19 0 9 5 12 10 9 6 -3 10 -1 10 4 0 6 -4 11 -10 11 -23
0 -8 21 19 26 21 5 28 10 24 22 -4 10 -2 13 5 8 8 -5 11 -65 11 -199z m-1614
183 c3 -5 1 -10 -4 -10 -6 0 -11 5 -11 10 0 6 2 10 4 10 3 0 8 -4 11 -10z
m819 -82 c3 -54 1 -78 -7 -78 -8 0 -7 -4 1 -12 7 -7 12 -23 12 -36 0 -18 -4
-23 -16 -18 -9 3 -27 6 -40 6 -13 0 -24 5 -24 10 0 6 6 10 14 10 20 0 16 53
-4 62 -10 4 -7 7 10 7 20 1 22 3 10 11 -13 8 -12 10 5 11 13 1 10 4 -10 9
l-30 7 35 10 c31 10 32 11 10 13 l-25 2 25 8 c25 8 25 8 -5 10 -30 2 -30 2 -5
10 l25 8 -25 2 c-23 1 -23 2 -5 10 11 5 16 9 10 9 -5 1 -3 6 5 11 23 14 28 1
34 -82z m236 46 c0 -8 -4 -12 -10 -9 -5 3 -10 13 -10 21 0 8 5 12 10 9 6 -3
10 -13 10 -21z m-1234 -60 c8 3 17 -1 20 -9 4 -8 10 -12 15 -9 5 3 9 -15 9
-40 0 -41 -3 -46 -22 -47 -22 -1 -22 -1 2 -8 22 -6 23 -8 7 -14 -10 -4 -15
-11 -12 -17 3 -5 2 -10 -4 -10 -6 0 -8 -7 -5 -15 4 -10 0 -15 -11 -15 -13 0
-16 -8 -13 -37 3 -34 6 -38 33 -42 30 -4 30 -4 5 -11 -24 -8 -24 -8 -2 -9 29
-1 29 -27 0 -36 -20 -6 -20 -8 -5 -12 9 -2 17 -8 17 -13 0 -5 -7 -7 -15 -4 -8
4 -15 1 -15 -4 0 -6 8 -13 18 -15 12 -3 10 -5 -8 -7 l-25 -2 25 -8 25 -8 -22
-7 c-23 -7 -23 -10 -23 -169 0 -143 2 -165 18 -182 21 -22 35 -64 21 -64 -5 0
-9 9 -9 20 0 23 -28 27 -36 5 -4 -8 0 -23 7 -32 10 -12 10 -15 2 -9 -8 4 -13
2 -13 -5 0 -7 10 -9 30 -5 17 3 30 1 30 -4 0 -6 -5 -10 -12 -10 -9 0 -9 -3 0
-12 19 -19 15 -48 -8 -48 -25 0 -27 -20 -2 -21 14 0 14 -2 -3 -9 -18 -8 -18
-9 5 -10 16 -1 19 -4 10 -7 -8 -3 -23 -13 -33 -21 -12 -11 -21 -12 -28 -5 -7
7 -9 153 -5 474 6 557 7 611 13 551 3 -33 8 -42 19 -38z m214 -21 c0 -45 -5
-85 -10 -88 -15 -9 -2 -25 15 -19 7 3 11 12 9 19 -3 7 -1 16 5 20 8 4 11 -49
11 -175 0 -158 -2 -181 -15 -176 -17 6 -22 -29 -5 -39 6 -3 10 -12 10 -19 0
-11 -8 -10 -35 3 -37 17 -47 41 -17 42 14 0 14 2 -3 8 -18 7 -17 9 10 24 27
14 28 16 8 17 -30 0 -40 20 -11 20 19 0 20 2 8 11 -11 7 -12 12 -3 15 16 7 5
34 -13 34 -10 0 -14 14 -14 50 0 30 4 50 11 50 7 0 8 7 3 18 -12 27 -13 136
-2 150 8 8 7 12 -3 13 -8 0 -5 4 6 9 17 7 17 9 3 9 -26 1 -22 21 5 22 l22 0
-22 9 c-13 5 -23 12 -23 15 0 4 10 3 23 -1 l22 -6 -22 19 c-29 26 -29 31 2 29
24 -1 25 -3 25 -83z m1147 45 c-3 -8 -6 -5 -6 6 -1 11 2 17 5 13 3 -3 4 -12 1
-19z m-857 -8 c0 -5 -2 -10 -4 -10 -3 0 -8 5 -11 10 -3 6 -1 10 4 10 6 0 11
-4 11 -10z m1410 -40 c-8 -5 -10 -10 -4 -10 18 0 12 -28 -8 -33 -13 -4 -18 0
-18 17 0 27 8 36 29 36 14 0 14 -2 1 -10z m-514 -67 c5 -21 8 -89 8 -150 1
-62 5 -113 9 -113 4 0 7 6 6 13 -1 6 1 28 5 47 4 19 3 78 -2 130 -10 92 -9
110 4 97 10 -10 27 -99 26 -137 0 -19 -1 -51 -1 -70 -1 -19 -6 -56 -13 -82 -8
-32 -8 -51 -1 -60 7 -9 6 -23 -3 -45 -21 -49 -38 -42 -30 11 8 52 -9 72 -19
24 -13 -65 -15 -68 -47 -68 -30 0 -31 0 -24 43 4 23 14 92 22 152 22 173 35
245 44 245 5 0 12 -17 16 -37z m93 28 c8 -5 16 -20 17 -33 20 -146 27 -190 40
-234 9 -28 16 -67 16 -87 0 -20 5 -37 10 -37 7 0 9 19 5 53 l-5 52 13 -35 c22
-58 19 -74 -19 -91 -23 -11 -40 -13 -51 -7 -9 6 -23 7 -31 4 -14 -6 -18 19
-14 93 1 18 -2 31 -7 28 -4 -3 -6 20 -4 51 l5 57 6 -50 c7 -57 30 -125 42
-125 9 0 2 36 -14 80 -5 14 -9 72 -9 129 1 120 -4 148 -27 154 -13 4 -14 5 -2
6 8 0 21 -3 29 -8z m-429 -25 c-6 -9 -10 -21 -8 -28 3 -8 12 0 21 18 l16 31
91 -2 c49 -1 92 -4 94 -6 6 -6 -21 -277 -34 -348 -16 -86 -21 -73 -14 32 5 70
4 97 -5 97 -6 0 -11 16 -11 39 0 22 -4 42 -9 45 -5 3 -12 -64 -16 -149 -7
-162 -13 -176 -49 -136 -15 16 -16 33 -11 113 3 54 2 104 -4 118 -10 26 -15
14 -11 -28 2 -27 -29 -179 -42 -205 -6 -11 -18 -17 -31 -15 -19 3 -22 10 -25
52 -2 29 3 61 12 81 9 18 16 55 16 82 0 26 7 72 14 101 8 28 10 52 6 52 -5 0
-11 -8 -14 -17 -10 -32 -24 -148 -19 -160 3 -7 -2 -13 -11 -13 -13 0 -16 -12
-18 -57 -1 -32 -1 -70 0 -85 2 -20 -3 -28 -14 -28 -10 0 -15 8 -14 23 4 44 1
51 -15 37 -20 -17 -46 -5 -38 17 3 10 12 25 19 34 15 17 84 224 84 252 0 21
39 81 48 73 2 -3 -1 -12 -8 -20z m854 -1 c-4 -8 -8 -15 -10 -15 -2 0 -4 7 -4
15 0 8 4 15 10 15 5 0 7 -7 4 -15z m-445 -37 c0 -31 -1 -31 -10 -10 -5 13 -7
28 -3 33 10 16 14 9 13 -23z m441 -3 c-8 -10 -9 -15 -2 -15 6 0 9 -7 5 -16 -3
-9 -7 -28 -8 -42 0 -14 -6 -27 -12 -29 -6 -2 -10 7 -9 22 0 14 5 25 9 25 5 0
8 10 7 23 -3 36 -1 47 11 47 8 0 8 -5 -1 -15z m-1390 -80 c0 -35 -3 -43 -15
-39 -11 5 -12 11 -5 24 6 10 10 28 10 39 0 12 2 21 5 21 3 0 5 -20 5 -45z
m463 33 c-2 -5 -10 -8 -18 -8 -8 0 -16 3 -18 8 -3 4 5 7 18 7 13 0 21 -3 18
-7z m-4 -22 c9 3 6 -1 -6 -7 -13 -7 -23 -16 -23 -22 0 -5 -8 -16 -17 -24 -16
-13 -16 -13 4 -4 27 14 33 14 33 1 0 -5 -7 -10 -15 -10 -18 0 -20 -20 -2 -20
7 0 5 -5 -5 -10 -10 -7 -14 -18 -11 -32 4 -16 2 -20 -4 -13 -14 13 -27 105
-15 105 5 0 8 14 6 30 -4 30 -3 30 17 16 12 -8 29 -12 38 -10z m315 -42 c-3
-14 -6 -56 -7 -94 -1 -38 -7 -72 -14 -79 -10 -9 -13 -8 -13 5 0 42 24 194 31
194 4 0 6 -12 3 -26z m264 -59 c0 -29 0 -29 -8 -5 -4 14 -8 39 -8 55 0 29 0
29 8 5 4 -14 8 -38 8 -55z m362 56 c0 -5 -7 -11 -15 -15 -21 -8 -19 -27 3 -19
9 3 14 3 10 -2 -4 -4 -3 -14 3 -21 14 -17 3 -34 -22 -34 -21 0 -27 19 -6 21
10 0 10 2 0 6 -7 2 -13 17 -13 33 0 25 10 37 33 39 4 1 7 -3 7 -8z m-317 -68
c-7 -2 -19 -2 -25 0 -7 3 -2 5 12 5 14 0 19 -2 13 -5z m-394 -120 c-1 -59 -4
-88 -8 -73 -4 14 -7 37 -6 53 1 15 2 47 3 72 4 86 12 45 11 -52z m686 77 c3
-5 1 -10 -4 -10 -6 0 -11 5 -11 10 0 6 2 10 4 10 3 0 8 -4 11 -10z m-448 -42
c-3 -8 -6 -5 -6 6 -1 11 2 17 5 13 3 -3 4 -12 1 -19z m468 -9 c4 -11 4 -23 1
-26 -3 -4 -7 0 -8 8 -1 8 -4 -24 -7 -71 -7 -94 0 -141 10 -70 5 41 6 39 7 -22
2 -62 0 -68 -18 -68 -11 0 -20 5 -20 11 0 6 7 9 15 5 8 -3 15 -1 15 4 0 6 -7
10 -15 10 -12 0 -15 20 -15 120 0 97 3 120 14 120 8 0 18 -9 21 -21z m-126
-144 c-1 -126 -4 -145 -18 -146 -13 -1 -13 -2 2 -6 12 -3 17 -14 17 -37 0 -18
-3 -36 -7 -40 -4 -4 -6 -24 -5 -44 2 -29 0 -34 -8 -22 -10 12 -11 11 -7 -7 3
-13 1 -23 -4 -23 -12 0 -12 -27 0 -32 5 -2 12 -22 16 -45 6 -39 5 -41 -15 -36
-16 4 -18 8 -8 14 10 7 8 9 -7 9 -20 1 -20 1 -1 15 14 11 16 15 5 15 -12 0
-12 2 1 10 13 8 12 10 -2 10 -20 0 -23 13 -8 41 8 14 7 19 -2 19 -9 0 -9 3 2
10 13 9 13 10 0 11 -10 0 -9 3 4 8 27 10 28 51 3 79 -13 14 -16 22 -8 22 11 0
11 3 1 15 -10 12 -10 15 0 15 10 0 10 4 -1 16 -10 13 -10 17 0 24 10 6 10 9 1
15 -9 6 -9 10 1 16 11 7 11 9 -1 9 -13 0 -13 1 0 10 13 9 13 11 0 20 -13 9
-13 10 0 10 13 0 13 1 0 10 -13 9 -13 11 0 20 10 6 11 10 3 10 -7 0 -13 9 -13
20 0 22 1 23 24 14 14 -5 15 -17 10 -70 -4 -36 -3 -64 2 -64 5 0 9 39 9 88 0
88 4 142 12 142 2 0 3 -65 2 -145z m-1759 125 c0 -5 -4 -10 -10 -10 -5 0 -10
5 -10 10 0 6 5 10 10 10 6 0 10 -4 10 -10z m1227 -57 c-3 -10 -5 -2 -5 17 0
19 2 27 5 18 2 -10 2 -26 0 -35z m-1223 -50 c0 -33 -4 -65 -8 -71 -4 -7 -2
-12 4 -12 6 0 8 -4 5 -10 -18 -28 -25 -3 -21 73 6 98 4 89 14 84 4 -3 7 -32 6
-64z m1084 18 c16 -13 16 -13 -1 -7 -10 3 -21 6 -23 6 -2 0 -3 12 -3 28 1 20
2 22 6 7 3 -11 12 -26 21 -34z m522 39 c0 -5 -7 -7 -15 -4 -8 4 -15 8 -15 10
0 2 7 4 15 4 8 0 15 -4 15 -10z m10 -29 c0 -18 -17 -20 -36 -6 -18 14 -18 14
9 15 15 0 27 -4 27 -9z m-1474 -10 c-3 -5 -3 -23 0 -40 7 -34 39 -44 47 -13 3
9 5 -21 4 -68 0 -62 -2 -74 -6 -45 l-7 40 -12 -40 c-16 -53 -15 -55 8 -55 17
0 19 -5 14 -34 -3 -19 0 -37 6 -41 11 -7 4 -25 -9 -25 -9 0 -25 54 -24 78 1
15 -13 16 -22 2 -4 -6 -1 -17 5 -25 10 -12 9 -15 -4 -15 -14 0 -16 18 -16 145
0 95 4 145 11 145 5 0 8 -4 5 -9z m1078 -43 c-4 -29 -11 -62 -16 -73 -6 -15
-7 -11 -3 14 3 18 5 51 5 72 0 22 5 39 10 39 6 0 8 -20 4 -52z m292 24 c-3
-15 -10 -63 -15 -108 -6 -45 -16 -93 -23 -108 -11 -25 -13 -26 -19 -9 -6 14
-8 11 -8 -12 -1 -16 -4 -41 -8 -54 -4 -16 -3 -22 5 -18 6 5 13 -9 17 -35 4
-24 12 -46 18 -49 5 -4 0 -12 -12 -19 -16 -8 -35 -8 -75 0 -91 19 -88 10 -92
227 l-3 191 32 8 c17 5 66 10 110 11 l78 2 -5 -27z m-574 -1 c9 -11 13 -22 10
-26 -4 -3 0 -10 8 -15 12 -8 12 -10 1 -10 -10 0 -11 -3 -2 -13 13 -16 5 -27
-21 -27 -11 0 -18 -7 -18 -20 0 -11 -4 -20 -10 -20 -14 0 -12 26 3 42 8 7 13
21 11 31 -1 9 2 17 7 17 5 0 3 14 -6 30 -17 34 -8 40 17 11z m172 -6 c86 -6
82 4 60 -159 -2 -16 -11 -66 -19 -110 -8 -45 -17 -108 -20 -141 -4 -33 -9 -67
-11 -76 -6 -22 -41 -13 -50 13 -4 14 -9 16 -19 8 -18 -15 -23 -4 -29 70 -3 36
-3 59 0 52 8 -18 59 -42 86 -42 20 1 19 3 -11 19 -40 21 -49 39 -50 100 l-1
44 20 -26 c11 -14 20 -33 20 -44 0 -15 2 -16 10 -3 14 21 -4 155 -20 145 -11
-7 -29 48 -37 113 -4 39 -3 53 5 48 6 -3 36 -8 66 -11z m164 -186 c-19 -12
-30 1 -24 29 3 15 8 59 12 97 l8 70 8 -95 c5 -69 4 -96 -4 -101z m-253 149 c3
-18 11 -54 17 -81 13 -53 5 -70 -30 -61 -20 6 -22 12 -22 74 0 70 6 100 20
100 5 0 11 -15 15 -32z m575 22 c11 -8 7 -9 -15 -4 -37 8 -45 14 -19 14 10 0
26 -5 34 -10z m-23 -16 c-3 -3 -12 -4 -19 -1 -8 3 -5 6 6 6 11 1 17 -2 13 -5z
m-41 -67 c-2 -62 -9 -87 -26 -87 -6 0 -5 11 0 26 6 14 10 45 10 68 0 36 6 56
16 56 1 0 1 -28 0 -63z m74 37 c0 -11 -5 -14 -16 -10 -9 3 -23 6 -32 7 -10 1
-7 4 8 9 37 12 40 11 40 -6z m-20 -24 c12 -8 9 -10 -12 -10 -16 0 -28 5 -28
10 0 13 20 13 40 0z m-1211 -46 c8 -16 20 -33 28 -37 12 -7 14 -36 12 -148
l-3 -139 -92 0 -91 0 -7 53 c-3 28 -6 91 -6 140 0 81 1 87 20 87 12 0 40 18
63 40 23 22 47 38 52 36 6 -1 16 -16 24 -32z m-371 8 c2 -7 -3 -12 -12 -12 -9
0 -16 7 -16 16 0 17 22 14 28 -4z m962 -3 c0 -5 -4 -9 -8 -9 -5 0 -9 7 -9 15
0 8 4 12 9 9 4 -3 8 -9 8 -15z m624 15 c26 -10 18 -29 -12 -30 -15 -1 -21 1
-14 3 18 7 15 21 -5 26 -16 4 -16 5 -1 6 9 0 23 -2 32 -5z m241 -176 l-6 -163
-29 -3 c-34 -4 -33 -11 -30 183 1 83 3 92 27 118 15 15 30 27 35 27 4 0 6 -73
3 -162z m50 152 c3 -5 -1 -10 -9 -10 -9 0 -16 5 -16 10 0 6 4 10 9 10 6 0 13
-4 16 -10z m-1015 -41 c38 -1 -71 -26 -122 -27 -45 -1 -58 2 -58 13 0 8 8 15
18 15 9 0 31 8 47 19 29 17 31 17 65 -1 19 -10 42 -18 50 -19z m340 37 c0 -3
-4 -8 -10 -11 -5 -3 -10 -1 -10 4 0 6 5 11 10 11 6 0 10 -2 10 -4z m-1200 -32
c0 -8 -7 -14 -15 -14 -8 0 -15 9 -15 20 0 13 5 18 15 14 8 -4 15 -12 15 -20z
m84 11 c11 -8 18 -17 15 -19 -9 -8 -83 10 -87 22 -5 17 48 15 72 -3z m873 1
c4 -3 -2 -6 -13 -7 -18 0 -18 -1 1 -9 18 -8 18 -9 2 -9 -12 -1 -16 -5 -10 -13
4 -7 6 -21 5 -30 -2 -10 2 -18 9 -18 7 0 4 -7 -7 -16 -16 -13 -16 -15 -1 -10
14 4 17 -1 17 -29 0 -25 -4 -35 -16 -35 -9 0 -14 -6 -11 -12 2 -7 0 -21 -5
-30 -6 -13 -5 -18 7 -18 8 0 15 -7 15 -17 0 -15 -1 -15 -18 0 -24 22 -32 21
-32 -3 0 -13 7 -20 19 -20 35 0 31 -16 -4 -17 -33 -1 -34 1 -33 33 1 19 3 32
6 30 2 -3 11 1 18 9 21 20 20 203 -1 211 -8 4 -15 9 -15 13 0 8 59 6 67 -3z
m640 -2 c-3 -3 -12 -4 -19 -1 -8 3 -5 6 6 6 11 1 17 -2 13 -5z m277 -41 c-4
-27 -7 -60 -7 -75 0 -16 -3 -28 -8 -28 -5 0 -8 -19 -8 -42 1 -24 4 -33 6 -20
6 30 21 28 21 -3 0 -14 -6 -25 -12 -25 -6 0 -4 -5 4 -10 13 -9 13 -11 0 -20
-10 -6 -11 -10 -2 -10 6 0 12 -4 12 -8 0 -4 -9 -8 -20 -8 -19 0 -20 7 -20 103
0 70 4 103 11 103 8 0 8 5 -1 15 -8 10 -9 15 -2 15 7 0 9 7 5 17 -4 11 -3 14
5 9 7 -4 12 -2 12 3 0 6 -4 11 -10 11 -5 0 -10 5 -10 10 0 6 7 10 16 10 14 0
15 -7 8 -47z m-664 27 c0 -6 -6 -13 -14 -16 -8 -3 -13 -18 -12 -38 1 -18 -5
-39 -12 -46 -11 -10 -12 -4 -7 36 8 49 20 74 36 74 5 0 9 -5 9 -10z m-130 -21
c0 -5 -4 -9 -10 -9 -5 0 -10 7 -10 16 0 8 5 12 10 9 6 -3 10 -10 10 -16z
m-992 2 c15 -8 17 -27 17 -133 0 -122 0 -123 -24 -126 -12 -2 -34 -1 -47 2
-24 6 -24 8 -24 136 l0 130 31 0 c17 0 38 -4 47 -9z m822 -1 c0 -5 -5 -10 -11
-10 -5 0 -7 5 -4 10 3 6 8 10 11 10 2 0 4 -4 4 -10z m690 -3 c0 -8 -7 -14 -15
-14 -8 0 -15 6 -15 14 0 7 7 13 15 13 8 0 15 -6 15 -13z m70 -122 l0 -135 -25
0 -25 0 0 135 0 135 25 0 25 0 0 -135z m-800 99 c0 -17 -4 -24 -12 -20 -7 3
-21 9 -30 12 -32 11 -17 29 30 33 7 0 12 -10 12 -25z m157 20 c-3 -3 -12 -4
-19 -1 -8 3 -5 6 6 6 11 1 17 -2 13 -5z m493 2 c0 -2 -7 -7 -16 -10 -8 -3 -12
-2 -9 4 6 10 25 14 25 6z m-232 -37 c2 -14 -3 -38 -9 -55 l-13 -29 -4 25 c-2
14 -9 31 -15 38 -6 8 -11 23 -12 33 -1 16 4 19 24 17 19 -2 27 -9 29 -29z
m-513 11 c-3 -5 -15 -10 -25 -10 -10 0 -22 5 -25 10 -4 6 7 10 25 10 18 0 29
-4 25 -10z m248 4 c11 -11 -5 -34 -24 -34 -12 0 -19 7 -19 20 0 19 28 28 43
14z m500 -66 l-6 -66 -28 31 c-21 23 -27 37 -22 56 3 14 8 29 12 33 5 5 42 16
48 14 0 -1 -1 -31 -4 -68z m54 0 c-2 -13 -4 -3 -4 22 0 25 2 35 4 23 2 -13 2
-33 0 -45z m-851 41 c21 -7 34 -7 52 2 18 10 27 10 42 1 11 -7 27 -12 36 -12
13 0 15 -6 10 -31 -3 -17 -6 -62 -6 -100 l0 -69 -89 0 -90 0 -3 88 c-5 138 -3
141 48 121z m877 -14 c-7 -21 -13 -19 -13 6 0 11 4 18 10 14 5 -3 7 -12 3 -20z
m-703 5 c0 -5 -4 -10 -10 -10 -5 0 -10 5 -10 10 0 6 5 10 10 10 6 0 10 -4 10
-10z m-930 -10 c0 -5 -2 -10 -4 -10 -3 0 -8 5 -11 10 -3 6 -1 10 4 10 6 0 11
-4 11 -10z m190 -14 c0 -22 -16 -28 -29 -12 -9 11 -9 15 1 19 22 9 28 8 28 -7z
m860 1 c0 -7 -5 -18 -11 -24 -7 -7 -11 -40 -10 -82 1 -58 -1 -71 -14 -71 -17
0 -20 58 -9 144 5 36 11 46 25 46 11 0 19 -6 19 -13z m-879 -108 c1 -30 7 -58
13 -62 7 -5 3 -7 -9 -5 -18 3 -20 12 -22 78 -2 50 0 70 6 59 6 -8 11 -40 12
-70z m1039 60 c0 -5 -4 -9 -10 -9 -5 0 -10 -7 -10 -15 0 -8 9 -15 20 -15 11 0
20 -5 20 -11 0 -5 -4 -7 -10 -4 -5 3 -16 3 -22 -1 -9 -6 -5 -10 12 -15 l25 -7
-27 -1 c-27 -1 -40 -20 -15 -22 10 0 10 -2 0 -6 -19 -7 -16 -31 5 -36 12 -3
10 -5 -8 -7 l-25 -2 25 -8 c24 -8 24 -8 3 -9 -17 -1 -22 -6 -20 -22 2 -11 10
-25 18 -30 11 -7 10 -9 -6 -10 -13 0 -15 -3 -6 -6 11 -5 11 -7 0 -14 -11 -7
-10 -9 4 -9 9 0 17 -4 17 -10 0 -5 -7 -7 -15 -4 -8 4 -15 1 -15 -4 0 -6 8 -13
18 -15 13 -4 11 -5 -5 -6 -14 -1 -23 -8 -24 -18 -1 -25 -5 -51 -14 -94 -4 -23
-3 -39 4 -43 6 -4 7 -15 2 -29 -4 -12 -6 -28 -4 -34 3 -7 -1 -13 -9 -13 -10 0
-9 -3 2 -10 8 -5 10 -10 3 -10 -6 0 -10 -11 -8 -25 1 -14 -3 -25 -9 -25 -6 0
-5 -4 3 -9 8 -5 10 -14 6 -21 -4 -7 -1 -16 6 -22 10 -6 6 -7 -11 -2 -14 3 -26
7 -26 8 -2 2 33 307 45 389 5 40 15 118 21 174 10 80 15 100 26 96 8 -3 14 -9
14 -14z m400 -3 c0 -7 -7 -19 -15 -26 -13 -11 -13 -15 -3 -21 10 -7 9 -9 -4
-9 -21 0 -24 25 -5 34 9 5 9 7 -2 12 -11 5 -11 8 0 15 20 12 29 11 29 -5z m30
10 c0 -3 -4 -8 -10 -11 -5 -3 -10 -1 -10 4 0 6 5 11 10 11 6 0 10 -2 10 -4z
m-703 -28 c-3 -8 -6 -5 -6 6 -1 11 2 17 5 13 3 -3 4 -12 1 -19z m701 -59 c-2
-25 -9 -35 -23 -37 -16 -3 -18 -1 -7 9 6 7 12 29 12 48 0 25 3 32 11 24 6 -6
9 -26 7 -44z m-1420 34 c-10 -2 -18 -9 -18 -15 0 -6 -3 -9 -6 -5 -10 10 6 27
24 26 15 -1 15 -2 0 -6z m1117 -23 c3 -5 1 -10 -4 -10 -6 0 -11 5 -11 10 0 6
2 10 4 10 3 0 8 -4 11 -10z m180 -20 c-14 -15 -15 -20 -4 -20 10 -1 9 -4 -3
-14 -20 -15 -24 -31 -5 -20 7 5 6 0 -3 -11 -14 -17 -13 -18 3 -12 25 9 23 -29
-2 -43 -26 -14 -131 -13 -131 1 0 6 -5 9 -12 7 -17 -6 -49 29 -42 47 3 8 11
12 18 8 6 -4 6 0 -2 9 -33 41 5 62 83 45 48 -10 60 -9 83 5 36 22 38 21 17 -2z
m85 -1 c0 -5 -7 -9 -15 -9 -8 0 -15 7 -15 15 0 9 6 12 15 9 8 -4 15 -10 15
-15z m-587 -59 c20 0 37 -5 37 -10 0 -7 -130 -9 -382 -6 -211 2 -472 5 -580 5
-109 1 -198 4 -198 9 0 5 771 7 1123 2z m942 -10 c4 -7 -67 -10 -204 -10 -134
0 -211 4 -211 10 0 14 407 14 415 0z m-870 -80 c6 -30 8 -80 5 -112 -6 -57 -7
-59 -83 -129 -71 -65 -91 -99 -68 -113 11 -7 117 8 145 19 16 7 18 5 11 -26
-13 -56 -11 -61 19 -72 42 -14 66 15 73 90 5 52 9 61 34 76 27 15 29 19 23 58
-9 56 16 269 31 269 6 0 21 -11 34 -24 19 -20 22 -34 22 -117 1 -52 -2 -110
-6 -129 -10 -55 28 -98 113 -127 107 -36 142 -30 142 24 0 25 -8 43 -31 66
-45 44 -67 94 -68 155 -1 56 9 84 43 119 25 24 34 25 269 24 l167 -1 0 -255 0
-255 -412 -1 c-227 -1 -694 -2 -1038 -3 l-625 -1 3 263 3 262 592 -2 592 -3
10 -55z m51 -2 c-3 -24 -8 -67 -12 -95 -9 -69 -23 -59 -19 14 1 31 -1 72 -5
90 -7 31 -6 33 17 33 24 0 25 -2 19 -42z m290 -23 c7 -5 10 -13 7 -17 -2 -5 3
-8 11 -8 9 0 16 -4 16 -10 0 -5 -7 -10 -15 -10 -21 0 -19 -20 3 -21 10 0 12
-3 5 -6 -10 -3 -10 -10 -2 -24 7 -15 7 -24 -1 -34 -9 -11 -7 -16 9 -25 12 -6
21 -20 21 -30 0 -11 6 -20 13 -20 20 0 65 -51 72 -82 6 -22 3 -27 -17 -30 -12
-2 -50 5 -83 15 -33 11 -65 21 -72 23 -26 7 -49 78 -45 139 2 33 5 71 5 85 1
14 8 31 17 37 13 11 13 14 0 22 -11 8 -8 10 15 8 17 -1 35 -6 41 -12z m-206
-115 c0 -11 -4 -20 -10 -20 -5 0 -10 9 -10 20 0 11 5 20 10 20 6 0 10 -9 10
-20z m-112 -82 c-11 -62 -37 -94 -87 -108 -43 -12 -81 -13 -81 -2 1 15 158
162 175 162 1 0 -2 -24 -7 -52z"/>
<path d="M854 3005 c-4 -10 -15 -12 -35 -8 -31 6 -37 -4 -19 -37 7 -13 6 -19
-5 -24 -22 -8 -7 -36 20 -36 15 0 25 -8 29 -22 9 -36 7 -48 -8 -48 -28 0 -45
-40 -40 -94 2 -28 2 -45 -2 -38 -8 17 -31 15 -38 -3 -3 -8 -12 -15 -20 -15
-22 0 -28 -17 -16 -39 7 -13 7 -22 0 -26 -5 -3 -10 -13 -10 -21 0 -17 31 -19
48 -2 6 6 14 9 17 7 10 -11 25 -112 20 -147 -2 -20 -6 -219 -9 -442 -3 -223
-9 -477 -12 -565 -6 -143 -5 -159 8 -147 14 11 17 61 7 119 -6 34 3 73 16 73
17 0 20 25 5 35 -6 4 -8 11 -5 16 4 5 1 9 -4 9 -6 0 -11 7 -11 16 0 8 4 13 9
10 5 -3 11 9 15 26 4 18 2 34 -4 38 -6 4 -8 14 -4 23 3 10 1 24 -5 31 -10 11
-8 17 6 25 12 7 13 10 4 11 -11 0 -11 3 -1 15 10 12 10 15 -1 15 -11 0 -11 2
1 10 8 5 18 10 23 10 4 0 7 -85 7 -190 0 -145 -3 -190 -12 -190 -10 0 -9 -3 1
-9 11 -7 11 -10 0 -15 -11 -5 -11 -7 -1 -12 10 -5 10 -9 1 -20 -8 -10 -8 -14
0 -14 17 0 13 -49 -5 -67 -13 -13 -13 -18 -2 -24 11 -7 10 -11 -2 -19 -13 -8
-12 -10 3 -10 10 0 15 -4 12 -10 -3 -5 -1 -10 4 -10 7 0 11 28 11 73 1 80 7
382 15 672 3 104 9 203 15 220 5 16 12 42 15 58 4 22 11 27 36 27 26 0 31 3
26 20 -3 11 -1 20 4 20 5 0 9 7 9 15 0 8 -7 15 -16 15 -9 0 -12 -5 -8 -12 8
-13 -12 -3 -38 20 -9 7 -22 11 -28 7 -19 -12 -3 309 17 357 18 43 11 99 -16
126 -10 9 -21 34 -24 55 -5 32 -3 38 11 36 9 -1 23 -1 30 0 16 1 16 51 -1 51
-9 0 -12 11 -9 35 3 27 1 35 -12 35 -9 0 -19 -7 -22 -15z m-24 -36 c0 -6 -4
-7 -10 -4 -5 3 -10 11 -10 16 0 6 5 7 10 4 6 -3 10 -11 10 -16z m40 6 c-7 -9
-15 -13 -17 -11 -7 7 7 26 19 26 6 0 6 -6 -2 -15z m-40 -49 c0 -3 -4 -8 -10
-11 -5 -3 -10 -1 -10 4 0 6 5 11 10 11 6 0 10 -2 10 -4z m62 -8 c-9 -9 -15 -9
-24 0 -9 9 -7 12 12 12 19 0 21 -3 12 -12z m-24 -125 c20 -17 27 -44 24 -87
-2 -12 -8 -17 -20 -14 -17 5 -17 0 -9 -58 8 -54 7 -66 -8 -81 -17 -16 -16 -17
1 -24 18 -7 18 -8 -2 -8 -11 -1 -25 -6 -32 -13 -9 -9 -12 -5 -12 20 0 19 5 32
13 33 10 0 10 2 0 6 -7 2 -13 9 -13 15 0 6 7 8 15 4 8 -3 15 -1 15 4 0 6 -8
11 -17 11 -17 1 -17 2 0 6 21 6 24 53 2 53 -16 0 -20 16 -6 24 5 3 7 33 4 66
-6 66 5 77 45 43z m-91 -125 c-3 -8 -6 -5 -6 6 -1 11 2 17 5 13 3 -3 4 -12 1
-19z m-32 -8 c3 -5 1 -10 -4 -10 -6 0 -11 5 -11 10 0 6 2 10 4 10 3 0 8 -4 11
-10z m55 -30 c0 -5 -5 -10 -11 -10 -5 0 -7 5 -4 10 3 6 8 10 11 10 2 0 4 -4 4
-10z m60 -124 c0 -3 -4 -8 -10 -11 -5 -3 -10 -1 -10 4 0 6 5 11 10 11 6 0 10
-2 10 -4z m-34 -88 c-5 -26 -4 -29 9 -18 13 11 15 8 13 -16 -1 -16 -4 -33 -7
-39 -9 -17 -11 -44 -3 -49 4 -2 5 -29 4 -60 -3 -41 -8 -56 -19 -56 -11 0 -13
9 -8 43 8 55 7 141 -1 196 -5 33 -3 42 6 36 7 -5 10 -19 6 -37z m57 -193 c-3
-27 -9 -54 -14 -59 -11 -12 -12 51 -2 109 9 58 23 15 16 -50z m-35 -200 c1
-60 0 -116 -4 -124 -4 -9 -7 -19 -6 -23 1 -3 -4 -8 -12 -11 -7 -3 -13 0 -14 6
0 7 -4 23 -8 37 -6 24 -6 24 9 5 16 -19 16 -18 17 28 0 30 -4 46 -10 42 -6 -4
-10 5 -10 19 0 16 6 26 15 26 8 0 15 5 15 10 0 6 -6 10 -12 10 -9 0 -10 3 -2
8 13 9 14 42 1 42 -5 0 -4 6 2 14 8 10 9 16 1 19 -6 3 -5 4 2 3 9 -2 14 -33
16 -111z m-4 -220 c-4 -8 -16 -14 -28 -14 -18 1 -18 2 -3 6 18 5 18 5 0 19
-17 12 -17 13 0 14 9 0 16 3 16 8 -4 21 3 24 11 4 5 -12 7 -29 4 -37z"/>
<path d="M624 1280 c0 -11 4 -20 8 -20 4 0 8 9 8 20 0 11 -4 20 -8 20 -4 0 -8
-9 -8 -20z"/>
<path d="M1625 2801 c-6 -19 3 -51 14 -51 4 0 8 16 9 35 3 37 -13 48 -23 16z"/>
<path d="M145 2878 c3 -67 7 -124 10 -126 3 -3 5 52 5 121 0 81 -4 127 -10
127 -7 0 -9 -41 -5 -122z"/>
<path d="M110 2370 c0 -5 5 -10 10 -10 6 0 10 5 10 10 0 6 -4 10 -10 10 -5 0
-10 -4 -10 -10z"/>
<path d="M136 1875 c4 -8 10 -15 15 -15 5 0 9 7 9 15 0 8 -7 15 -15 15 -9 0
-12 -6 -9 -15z"/>
<path d="M138 1833 c7 -3 16 -2 19 1 4 3 -2 6 -13 5 -11 0 -14 -3 -6 -6z"/>
<path d="M145 1810 c3 -5 8 -10 11 -10 2 0 4 5 4 10 0 6 -5 10 -11 10 -5 0 -7
-4 -4 -10z"/>
<path d="M138 1783 c7 -3 16 -2 19 1 4 3 -2 6 -13 5 -11 0 -14 -3 -6 -6z"/>
<path d="M145 1700 c-3 -5 -1 -10 4 -10 6 0 11 5 11 10 0 6 -2 10 -4 10 -3 0
-8 -4 -11 -10z"/>
<path d="M1290 2480 c0 -11 7 -23 16 -27 11 -4 14 -14 11 -33 -3 -15 -1 -32 6
-39 9 -9 8 -14 -3 -21 -13 -8 -13 -9 0 -14 8 -2 23 -7 33 -10 9 -3 17 -1 17 4
0 5 -8 14 -17 19 -10 6 -12 11 -5 11 17 0 15 20 -3 20 -18 0 -18 3 -4 54 8 31
8 41 -3 47 -24 16 -48 10 -48 -11z"/>
<path d="M1374 2479 c-8 -14 7 -31 23 -25 8 3 20 3 26 -1 7 -4 2 -10 -13 -14
-23 -7 -24 -7 -3 -8 26 -1 53 37 31 43 -37 12 -59 13 -64 5z"/>
<path d="M1328 2323 c7 -3 16 -2 19 1 4 3 -2 6 -13 5 -11 0 -14 -3 -6 -6z"/>
<path d="M1860 1945 c0 -8 2 -15 4 -15 2 0 6 7 10 15 3 8 1 15 -4 15 -6 0 -10
-7 -10 -15z"/>
<path d="M1115 2190 c-3 -5 1 -10 9 -10 9 0 16 5 16 10 0 6 -4 10 -9 10 -6 0
-13 -4 -16 -10z"/>
<path d="M1582 1960 c0 -14 2 -19 5 -12 2 6 2 18 0 25 -3 6 -5 1 -5 -13z"/>
<path d="M1746 1535 c4 -8 8 -15 10 -15 2 0 4 7 4 15 0 8 -4 15 -10 15 -5 0
-7 -7 -4 -15z"/>
<path d="M1741 1483 c0 -10 4 -36 8 -58 9 -40 9 -39 10 18 0 32 -3 57 -9 57
-5 0 -10 -8 -9 -17z"/>
<path d="M128 1563 c7 -3 16 -2 19 1 4 3 -2 6 -13 5 -11 0 -14 -3 -6 -6z"/>
<path d="M138 1543 c7 -3 16 -2 19 1 4 3 -2 6 -13 5 -11 0 -14 -3 -6 -6z"/>
<path d="M130 1522 c0 -5 7 -9 15 -9 8 0 15 4 15 9 0 4 -7 8 -15 8 -8 0 -15
-4 -15 -8z"/>
<path d="M330 1430 c0 -11 6 -20 13 -20 7 0 13 9 13 20 0 11 -6 20 -13 20 -7
0 -13 -9 -13 -20z"/>
<path d="M335 1390 c-3 -5 1 -10 9 -10 9 0 16 5 16 10 0 6 -4 10 -9 10 -6 0
-13 -4 -16 -10z"/>
<path d="M338 1363 c7 -3 16 -2 19 1 4 3 -2 6 -13 5 -11 0 -14 -3 -6 -6z"/>
<path d="M325 1340 c-3 -5 3 -10 15 -10 12 0 18 5 15 10 -3 6 -10 10 -15 10
-5 0 -12 -4 -15 -10z"/>
<path d="M1285 1480 c-3 -5 -1 -10 4 -10 6 0 11 5 11 10 0 6 -2 10 -4 10 -3 0
-8 -4 -11 -10z"/>
<path d="M1490 847 c0 -8 11 -40 24 -72 22 -54 23 -56 29 -29 4 21 0 35 -14
50 -10 11 -19 30 -19 42 0 12 -4 22 -10 22 -5 0 -10 -6 -10 -13z"/>
<path d="M1580 620 c0 -5 9 -10 19 -10 11 0 23 5 26 10 4 6 -5 10 -19 10 -14
0 -26 -4 -26 -10z"/>
<path d="M1465 570 c3 -5 8 -10 11 -10 2 0 4 5 4 10 0 6 -5 10 -11 10 -5 0 -7
-4 -4 -10z"/>
<path d="M1628 553 c7 -3 16 -2 19 1 4 3 -2 6 -13 5 -11 0 -14 -3 -6 -6z"/>
<path d="M1960 470 c0 -11 -7 -20 -15 -20 -18 0 -20 -16 -2 -23 9 -4 8 -8 -3
-16 -13 -10 -13 -12 0 -22 11 -8 12 -12 3 -16 -16 -6 -17 -33 -2 -33 5 0 7 5
4 10 -3 6 -1 10 4 10 7 0 11 -31 11 -82 0 -45 3 -78 7 -74 4 3 7 41 7 84 l1
77 53 3 c70 4 71 27 1 36 -60 8 -60 15 -1 18 47 1 48 12 1 22 -25 5 -29 9 -24
26 5 16 2 20 -19 20 -19 0 -26 -5 -26 -20z m93 -87 c-13 -2 -33 -2 -45 0 -13
2 -3 4 22 4 25 0 35 -2 23 -4z"/>
<path d="M1990 350 c0 -5 7 -10 16 -10 8 0 12 5 9 10 -3 6 -10 10 -16 10 -5 0
-9 -4 -9 -10z"/>
</g>
</svg>
