<?xml version="1.0" standalone="no"?>
<!DOCTYPE svg PUBLIC "-//W3C//DTD SVG 20010904//EN"
 "http://www.w3.org/TR/2001/REC-SVG-20010904/DTD/svg10.dtd">
<svg version="1.0" xmlns="http://www.w3.org/2000/svg"
 width="223.000000pt" height="379.000000pt" viewBox="0 0 223.000000 379.000000"
 preserveAspectRatio="xMidYMid meet">
<metadata>
Created by potrace 1.16, written by Peter Selinger 2001-2019
</metadata>
<g transform="translate(0.000000,379.000000) scale(0.100000,-0.100000)"
fill="#000000" stroke="none">
<path d="M40 3781 c-13 -9 -16 -80 -21 -488 -12 -840 -10 -3266 1 -3277 8 -8
357 -12 1094 -15 l1083 -3 7 1008 c3 555 9 1398 12 1874 6 732 5 867 -7 877
-10 8 -236 13 -789 17 -426 3 -908 8 -1070 11 -196 4 -300 3 -310 -4z m1532
-30 c335 -4 611 -11 614 -14 6 -6 5 -1377 -1 -1937 -1 -113 -3 -366 -4 -562 0
-223 -5 -358 -11 -358 -5 0 -7 7 -3 16 5 13 2 15 -17 9 -28 -9 -70 12 -70 36
0 30 -22 69 -40 69 -24 0 -40 20 -40 51 0 15 -5 31 -11 34 -15 10 -59 -35 -59
-60 0 -35 -21 -85 -35 -85 -16 0 -25 -22 -25 -63 -1 -18 -10 -43 -21 -56 -22
-27 -21 -27 -35 14 -14 44 -45 44 -75 1 -13 -20 -27 -36 -31 -36 -4 0 -13 -7
-22 -15 -13 -14 -16 -13 -27 7 -7 12 -13 38 -15 58 -1 19 -6 59 -10 88 -5 36
-3 52 5 52 14 0 15 67 0 76 -6 4 -25 36 -41 73 -17 36 -48 104 -69 150 -26 53
-37 87 -31 95 12 15 8 124 -6 159 -7 15 -24 39 -38 52 -27 25 -27 25 -10 67 9
24 26 61 39 83 21 37 26 40 77 46 63 8 136 33 161 55 9 8 20 38 24 69 6 48 3
59 -25 108 -17 30 -33 77 -37 104 -5 43 -1 59 35 134 23 47 50 109 61 137 35
89 98 218 117 241 25 29 42 26 46 -6 3 -28 28 -39 36 -15 2 7 -2 10 -12 6 -11
-4 -16 0 -16 15 0 17 4 20 29 15 37 -8 50 12 18 27 -17 8 -23 17 -20 30 8 29
-13 22 -38 -13 -33 -46 -35 -16 -3 45 15 28 55 115 89 192 33 77 78 164 98
193 l38 53 -4 94 c-2 52 -7 98 -10 102 -10 10 -43 -28 -50 -59 -4 -16 -3 -30
4 -33 7 -5 5 -13 -6 -25 -9 -10 -21 -35 -26 -56 -14 -50 -38 -84 -58 -83 -10
0 -11 2 -3 6 6 2 12 9 12 15 0 6 -7 8 -15 4 -10 -4 -15 1 -15 14 0 25 -17 26
-23 3 -12 -44 -17 -93 -10 -93 5 0 19 7 31 16 12 8 22 10 22 5 0 -6 -4 -11 -9
-11 -5 0 -11 -13 -14 -29 -4 -16 -15 -49 -26 -73 -11 -24 -51 -115 -89 -203
-132 -302 -227 -504 -237 -501 -19 6 -6 57 53 214 33 86 76 209 97 272 21 63
45 123 53 133 16 17 16 17 24 -2 8 -22 28 -29 28 -9 0 6 7 19 15 28 12 14 13
21 2 43 -15 32 -27 30 -46 -9 -8 -16 -16 -23 -19 -16 -4 14 99 332 123 378 8
16 15 34 15 40 0 6 12 32 26 58 25 44 25 48 10 72 -20 29 -14 44 20 44 24 0
34 23 14 35 -8 5 -8 11 0 20 9 10 7 20 -5 39 -19 29 -26 31 -43 14 -7 -7 -20
-13 -30 -13 -22 0 -29 -43 -8 -51 18 -7 22 -34 4 -34 -24 0 -48 -34 -48 -68 0
-43 -28 -142 -41 -142 -15 0 -10 57 6 64 17 6 21 36 5 36 -5 0 -10 11 -10 24
0 47 -20 42 -58 -12 -25 -35 -22 -52 9 -52 15 0 19 -7 19 -35 0 -21 6 -37 16
-43 15 -9 13 -23 -25 -143 -23 -74 -51 -156 -61 -184 -23 -61 -126 -378 -172
-529 -18 -60 -39 -111 -46 -114 -15 -5 -14 8 24 192 14 66 33 176 44 245 32
211 59 363 75 417 8 28 17 68 21 90 3 21 10 57 15 79 13 62 11 80 -16 111 -34
39 -29 60 13 56 24 -3 33 1 38 15 3 10 10 26 15 36 10 19 4 37 -13 37 -6 0
-17 8 -24 18 -13 16 -15 15 -37 -9 -13 -14 -28 -24 -35 -21 -18 6 -26 -26 -11
-45 20 -23 18 -66 -3 -81 -11 -8 -18 -26 -18 -45 0 -59 -12 -107 -26 -107 -10
0 -13 10 -12 31 3 38 -17 50 -27 17 -4 -13 -12 -26 -18 -29 -6 -4 -7 -15 -2
-25 5 -11 9 -23 9 -28 2 -20 27 -16 35 6 8 21 10 21 16 5 4 -10 5 -37 2 -60
-22 -165 -31 -217 -38 -217 -4 0 -14 7 -23 15 -24 25 -36 17 -36 -23 0 -21 -7
-47 -16 -58 -14 -17 -15 -3 -9 156 5 114 12 187 21 209 27 63 15 95 -36 103
-32 4 -32 25 0 41 19 9 25 22 28 50 2 32 -1 38 -15 35 -10 -1 -24 1 -31 6 -9
5 -15 2 -19 -12 -2 -11 -13 -22 -24 -25 -25 -7 -24 -27 1 -34 17 -5 19 -11 14
-47 -3 -22 -6 -59 -7 -80 -1 -22 -8 -41 -14 -43 -7 -3 -13 -12 -13 -21 0 -12
-3 -13 -12 -4 -21 21 -27 13 -25 -33 2 -42 4 -45 25 -40 20 5 22 2 22 -39 0
-24 3 -57 6 -74 5 -25 3 -30 -12 -29 -11 1 -22 6 -25 11 -10 13 -29 -3 -29
-25 0 -10 -5 -19 -11 -19 -7 0 -9 56 -8 170 l2 171 -28 29 -27 28 23 4 c20 2
25 10 27 41 3 31 0 37 -16 37 -15 0 -19 5 -15 20 7 26 -23 27 -32 1 -3 -11
-17 -26 -30 -35 -28 -19 -33 -36 -10 -36 10 0 15 -7 13 -17 -2 -12 3 -17 15
-15 22 4 22 -3 -4 -29 -18 -18 -20 -28 -14 -75 5 -45 4 -54 -9 -54 -9 0 -16 7
-16 15 0 8 -7 15 -16 15 -13 0 -15 -7 -11 -29 3 -15 1 -33 -5 -39 -14 -14 4
-21 42 -19 24 2 25 -1 28 -58 1 -33 -1 -55 -6 -48 -4 7 -21 11 -39 9 l-31 -4
-16 124 c-9 69 -14 129 -11 134 4 6 1 26 -5 45 -10 29 -9 38 4 51 18 18 21 34
6 34 -5 0 -10 10 -10 21 0 18 4 21 28 16 15 -3 34 -2 42 4 11 6 8 9 -12 9 -18
0 -33 9 -47 29 l-21 29 21 26 c11 14 29 26 40 26 11 0 17 5 14 10 -3 6 -44 10
-91 10 -49 0 -84 -4 -84 -10 0 -5 7 -10 15 -10 8 0 22 -11 30 -24 14 -21 14
-26 -2 -55 -12 -20 -26 -31 -40 -31 -13 0 -23 -5 -23 -10 0 -6 20 -9 45 -8 25
0 47 -1 48 -3 2 -2 -2 -15 -9 -28 l-12 -23 -11 21 c-15 27 -51 28 -51 2 0 -11
-4 -23 -10 -26 -15 -10 -12 -23 8 -29 12 -4 21 -25 30 -72 7 -37 10 -69 7 -72
-11 -11 -28 18 -29 51 -2 38 -29 72 -51 63 -10 -3 -17 3 -21 20 -4 14 -11 23
-17 21 -15 -5 -27 -66 -15 -73 6 -4 6 -10 -1 -17 -13 -13 -14 -69 -2 -83 15
-14 26 -134 13 -134 -13 0 -52 40 -52 53 0 6 8 16 18 23 14 11 15 16 5 33 -7
12 -13 28 -13 37 0 26 -35 12 -38 -16 -2 -14 -10 -29 -18 -33 -21 -12 -17 -37
5 -37 11 0 28 -14 39 -35 12 -19 32 -37 45 -40 20 -5 26 -16 36 -63 30 -144
55 -247 87 -362 18 -69 34 -133 34 -144 0 -10 12 -70 26 -134 17 -76 23 -127
19 -150 -9 -46 -18 -32 -51 78 -40 134 -105 312 -187 511 -48 115 -48 145 -2
133 22 -5 24 -3 22 25 -1 23 -7 31 -21 31 -15 0 -16 3 -6 15 8 10 9 15 2 15
-15 0 -33 -36 -27 -53 3 -7 -1 -19 -9 -26 -13 -11 -18 -2 -37 61 -12 40 -40
109 -61 152 -21 44 -38 95 -38 112 0 21 -7 38 -19 46 -14 10 -17 18 -10 28 5
8 9 23 9 34 0 13 -5 17 -20 13 -12 -3 -23 1 -29 10 -10 19 -31 9 -31 -15 0 -9
7 -26 15 -36 22 -29 18 -39 -7 -22 -32 23 -36 21 -36 -24 0 -22 4 -40 9 -40 5
0 14 -12 19 -26 6 -14 21 -40 35 -58 14 -18 25 -35 25 -37 0 -3 -16 -3 -35 -1
-27 3 -35 1 -35 -12 0 -9 5 -16 10 -16 6 0 10 -9 10 -19 0 -26 29 -35 51 -15
17 15 18 14 29 -24 5 -22 17 -53 25 -69 8 -15 15 -33 15 -38 0 -15 52 -147 89
-227 17 -37 46 -111 65 -165 19 -54 57 -158 84 -231 38 -100 45 -129 31 -116
-10 9 -19 22 -19 28 0 13 -261 535 -284 567 -26 37 -2 96 34 84 9 -3 8 1 -4
10 -10 8 -23 12 -29 8 -6 -3 -7 -1 -3 6 4 6 12 9 17 6 5 -4 9 1 9 10 0 13 -4
14 -20 5 -15 -8 -20 -8 -20 2 0 9 -3 9 -12 0 -9 -9 -9 -18 0 -37 29 -64 7 -42
-35 35 -55 100 -109 225 -128 295 -7 27 -18 51 -23 53 -6 2 -8 18 -5 38 4 27
2 34 -11 34 -9 0 -16 7 -16 15 0 8 -7 15 -15 15 -11 0 -15 -11 -16 -37 0 -21
-3 -32 -6 -25 -2 6 -11 12 -19 12 -16 0 -20 -65 -5 -74 4 -3 11 -23 15 -44 3
-22 13 -45 22 -52 23 -20 47 -70 33 -70 -7 0 -9 -11 -6 -30 4 -16 4 -30 2 -30
-8 0 -62 122 -74 166 -6 22 -22 51 -35 63 -18 17 -24 31 -20 50 6 33 -4 46
-38 55 -26 6 -28 4 -28 -24 0 -19 -5 -30 -14 -30 -21 0 -27 -62 -6 -67 19 -5
80 -113 73 -130 -3 -8 -14 -11 -29 -7 -20 5 -24 2 -24 -15 0 -16 8 -23 30 -27
16 -4 28 -11 27 -18 -1 -6 9 -10 24 -9 24 1 30 -6 57 -70 33 -79 135 -288 186
-382 41 -75 229 -452 243 -484 10 -27 17 -18 -100 -146 -25 -28 -62 -88 -85
-136 -34 -75 -46 -90 -84 -113 -49 -29 -79 -59 -213 -216 -49 -58 -95 -111
-102 -118 -21 -22 -16 -73 7 -79 13 -4 20 -14 20 -29 0 -27 39 -49 70 -39 13
4 19 -2 23 -25 5 -23 12 -30 31 -30 39 0 51 -24 39 -78 -39 -173 -82 -261
-142 -292 -21 -10 -52 -35 -69 -54 -17 -20 -37 -36 -44 -36 -23 1 -44 24 -54
59 -18 64 -74 65 -74 1 0 -15 -9 -38 -20 -51 -19 -24 -19 -20 -19 1001 1 1292
10 1938 26 1948 12 8 602 5 1515 -7z m-432 -80 c0 -18 -18 -21 -30 -6 -10 13
-9 15 9 15 11 0 21 -4 21 -9z m592 -63 c-7 -7 -12 -8 -12 -2 0 14 12 26 19 19
2 -3 -1 -11 -7 -17z m-594 -26 c2 -7 -3 -12 -12 -12 -9 0 -16 7 -16 16 0 17
22 14 28 -4z m637 8 c-3 -5 -11 -10 -16 -10 -6 0 -7 5 -4 10 3 6 11 10 16 10
6 0 7 -4 4 -10z m-510 -90 c3 -5 -1 -10 -10 -10 -9 0 -13 5 -10 10 3 6 8 10
10 10 2 0 7 -4 10 -10z m718 -10 c18 -22 23 -50 8 -50 -5 0 -13 -10 -17 -22
-4 -13 -12 -26 -18 -30 -10 -7 -15 -30 -17 -80 0 -10 -6 -18 -13 -18 -12 0
-14 -5 -18 -50 -1 -11 -6 -20 -11 -20 -5 0 -4 -7 3 -15 12 -14 7 -19 -13 -16
-5 1 -6 -8 -2 -19 4 -11 2 -20 -4 -20 -6 0 -8 -6 -5 -13 2 -7 -5 -24 -16 -37
-12 -14 -17 -27 -11 -33 5 -5 1 -24 -9 -45 -10 -20 -16 -40 -13 -44 2 -5 -1
-8 -7 -8 -7 0 -10 -6 -8 -12 3 -7 -2 -19 -9 -27 -10 -10 -11 -17 -4 -24 14
-14 14 -30 0 -21 -8 4 -9 -1 -4 -16 6 -19 4 -22 -9 -17 -19 8 -21 -4 -3 -22
10 -11 9 -13 -5 -8 -20 7 -25 -9 -5 -16 7 -3 4 -6 -7 -6 -16 -1 -17 -3 -5 -18
11 -13 11 -17 1 -20 -6 -3 -10 -9 -6 -14 3 -5 0 -9 -6 -9 -7 0 -9 -8 -5 -22 6
-17 4 -20 -10 -14 -15 5 -16 4 -5 -9 10 -12 9 -15 -6 -15 -16 0 -17 -2 -4 -11
11 -8 12 -12 2 -16 -6 -2 -10 -9 -6 -14 3 -5 -3 -9 -13 -9 -15 0 -16 -2 -3
-11 11 -8 12 -12 2 -16 -6 -2 -10 -9 -6 -14 3 -5 1 -9 -4 -9 -5 0 -9 -10 -8
-22 1 -13 -5 -29 -12 -37 -7 -7 -11 -20 -8 -27 3 -7 -3 -18 -12 -23 -9 -6 -13
-11 -8 -11 5 0 3 -7 -4 -15 -7 -8 -10 -22 -6 -30 3 -8 1 -15 -4 -15 -8 0 -26
-57 -22 -72 1 -5 -3 -8 -9 -8 -6 0 -8 -9 -4 -20 4 -12 2 -20 -5 -20 -6 0 -8
-4 -5 -10 3 -5 1 -10 -5 -10 -7 0 -10 -7 -6 -15 3 -8 0 -15 -6 -15 -7 0 -7 -4
-1 -12 6 -9 5 -22 -3 -38 -8 -14 -14 -21 -14 -16 0 5 -8 2 -17 -5 -15 -12 -16
-12 -9 6 13 31 122 358 160 480 19 61 61 189 94 285 103 302 162 500 162 540
0 44 16 51 43 20z m-869 -35 c32 -30 34 -62 4 -75 -18 -7 -19 -9 -5 -9 20 -1
23 -17 5 -24 -8 -3 -6 -6 5 -6 9 -1 17 -5 17 -11 0 -5 -8 -11 -17 -11 -17 -1
-17 -2 0 -6 9 -2 17 -9 17 -14 0 -5 -8 -9 -17 -10 -16 0 -15 -1 2 -8 19 -8 19
-8 0 -19 -19 -11 -19 -11 4 -12 23 0 24 -1 6 -13 -17 -13 -17 -14 6 -21 23 -6
24 -7 5 -21 -17 -13 -18 -15 -3 -15 9 0 17 -4 17 -10 0 -5 -7 -10 -15 -10 -8
0 -15 -4 -15 -10 0 -5 7 -10 15 -10 21 0 19 -18 -2 -23 -14 -4 -12 -5 5 -6 26
-1 29 -16 5 -30 -17 -10 -17 -10 0 -11 9 0 17 -7 17 -15 0 -8 -7 -15 -16 -15
-10 0 -12 -5 -7 -12 4 -7 8 -26 9 -43 1 -16 3 -30 4 -30 1 0 3 -18 5 -40 6
-72 18 -130 29 -144 8 -11 8 -15 -1 -18 -18 -6 -16 -49 4 -79 14 -22 14 -27 2
-35 -11 -7 -11 -9 4 -9 19 0 24 -20 5 -20 -9 0 -9 -3 -3 -8 15 -10 16 -52 2
-52 -7 0 -6 -4 3 -10 13 -9 13 -11 0 -20 -13 -8 -12 -10 3 -10 19 0 23 -15 6
-26 -20 -12 -28 11 -39 121 -5 61 -17 155 -25 210 -8 55 -24 172 -36 260 -11
88 -25 194 -30 235 -6 41 -15 87 -21 102 -10 27 -3 68 11 68 5 0 20 -11 35
-25z m-424 1 c0 -8 -4 -18 -10 -21 -5 -3 -10 3 -10 14 0 12 5 21 10 21 6 0 10
-6 10 -14z m1023 -6 c13 -15 16 -30 11 -60 -4 -22 -10 -40 -15 -40 -4 0 -5 17
-2 38 7 46 -12 33 -22 -15 -5 -25 -3 -33 7 -33 8 0 14 -9 14 -20 0 -13 -5 -19
-13 -16 -7 3 -13 -1 -13 -9 0 -8 3 -15 8 -15 4 0 7 -13 7 -30 0 -16 -3 -30 -7
-30 -4 0 -5 -7 -2 -15 4 -10 0 -15 -11 -15 -14 0 -15 -3 -6 -14 8 -10 9 -16 1
-21 -6 -3 -8 -11 -5 -16 4 -5 2 -9 -3 -9 -5 0 -8 -20 -7 -45 1 -35 -2 -45 -14
-46 -11 0 -12 -2 -3 -6 6 -2 12 -11 12 -19 0 -8 -6 -14 -12 -15 -10 0 -10 -2
-1 -5 8 -4 5 -16 -10 -41 -15 -26 -18 -38 -9 -41 19 -6 14 -19 -10 -26 -22 -6
-22 -7 -5 -20 18 -14 23 -41 8 -50 -5 -4 -7 3 -4 14 3 11 0 20 -6 20 -6 0 -11
-4 -11 -10 0 -5 -5 -10 -11 -10 -8 0 -9 4 0 13 6 8 9 16 6 19 -3 3 6 63 19
134 32 171 57 342 59 401 3 73 19 89 50 53z m-1403 -36 c0 -8 -4 -12 -10 -9
-5 3 -10 13 -10 21 0 8 5 12 10 9 6 -3 10 -13 10 -21z m28 -9 c-3 -3 -9 2 -12
12 -6 14 -5 15 5 6 7 -7 10 -15 7 -18z m976 -17 c20 -28 21 -58 3 -58 -11 0
-13 -18 -12 -72 1 -40 -1 -86 -5 -103 -4 -21 -2 -34 9 -42 14 -11 14 -12 -1
-13 -10 0 -18 -4 -18 -10 0 -5 8 -11 18 -11 16 -1 16 -2 0 -6 -13 -3 -15 -9
-8 -28 5 -12 6 -26 3 -29 -4 -3 -1 -6 6 -6 7 0 9 -5 4 -12 -13 -22 -9 -127 5
-133 11 -4 10 -9 -4 -22 -17 -17 -17 -18 2 -22 18 -4 18 -4 0 -10 -27 -10 -31
-71 -5 -71 11 0 19 -4 19 -10 0 -5 -7 -7 -15 -4 -8 4 -15 1 -15 -5 0 -6 8 -12
18 -12 16 -1 16 -2 0 -6 -10 -2 -18 -9 -18 -14 0 -5 8 -9 18 -10 14 0 14 -2
-3 -9 -17 -7 -17 -9 -2 -9 9 -1 17 -5 17 -11 0 -5 -8 -10 -17 -10 -15 0 -16
-2 -3 -10 10 -6 11 -10 3 -10 -20 0 -15 -20 5 -20 15 -1 15 -2 -3 -12 -19 -11
-19 -11 0 -19 17 -7 18 -8 3 -8 -10 -1 -18 -8 -18 -16 0 -7 8 -19 18 -24 16
-10 16 -10 0 -11 -11 0 -18 -8 -18 -19 0 -11 8 -22 18 -25 10 -3 8 -4 -7 -3
-23 2 -23 4 -26 112 -1 61 -3 238 -4 395 -1 157 -6 313 -12 348 -6 34 -9 69
-5 77 8 22 33 18 50 -7z m201 -13 c0 -24 -4 -29 -19 -27 -15 3 -17 -1 -12 -22
4 -15 2 -26 -4 -26 -5 0 -9 -3 -9 -7 1 -5 0 -10 -1 -13 -7 -19 -5 -50 4 -50 8
0 8 -2 0 -8 -13 -8 -15 -42 -2 -42 4 0 8 -12 7 -27 0 -25 -1 -26 -9 -8 -5 13
-8 -21 -8 -90 1 -60 -1 -122 -5 -137 -3 -15 -1 -30 4 -34 11 -6 2 -24 -13 -24
-7 0 -8 75 -4 233 3 127 6 246 7 262 1 48 7 57 36 53 24 -3 28 -8 28 -33z
m-1240 5 c3 -5 1 -10 -4 -10 -6 0 -11 5 -11 10 0 6 2 10 4 10 3 0 8 -4 11 -10z
m30 0 c3 -5 1 -10 -4 -10 -6 0 -11 5 -11 10 0 6 2 10 4 10 3 0 8 -4 11 -10z
m150 0 c3 -5 1 -10 -4 -10 -6 0 -11 5 -11 10 0 6 2 10 4 10 3 0 8 -4 11 -10z
m244 -8 c5 -10 8 -32 7 -50 -1 -17 2 -32 7 -32 5 0 4 -7 -3 -15 -10 -12 -10
-15 1 -15 11 0 11 -2 -1 -10 -8 -5 -10 -10 -5 -10 6 0 11 -10 12 -21 2 -26 3
-27 -40 39 -47 69 -52 86 -30 111 21 26 39 27 52 3z m295 -7 c32 -3 40 -54 16
-87 -19 -26 -23 -79 -7 -104 3 -6 -3 -11 -14 -11 -16 -2 -19 5 -21 45 -3 78
-3 81 -16 94 -7 7 -12 27 -12 46 0 29 3 33 18 27 9 -4 26 -8 36 -10z m-637
-32 c13 -14 23 -32 23 -39 0 -7 15 -49 34 -93 31 -74 33 -81 15 -81 -10 0 -19
6 -19 14 0 8 -7 17 -16 20 -13 5 -14 9 -4 21 10 12 9 15 -3 15 -10 0 -14 6
-11 15 4 10 0 15 -12 15 -13 0 -15 3 -7 11 14 14 6 39 -10 33 -16 -6 -51 60
-44 80 9 23 28 19 54 -11z m156 -30 c9 -32 19 -67 22 -78 6 -18 4 -17 -14 4
l-21 23 0 -23 c-1 -21 -2 -22 -11 -6 -5 9 -7 22 -4 27 3 6 -2 10 -13 10 -21 0
-45 42 -36 64 3 8 12 12 20 9 8 -3 14 1 14 11 0 9 6 16 13 16 8 0 20 -24 30
-57z m534 -43 c-6 -25 -3 -31 17 -36 18 -4 25 -15 30 -42 8 -53 7 -74 -3 -67
-6 3 -14 -3 -20 -12 -8 -15 -10 -16 -15 -3 -12 37 -26 153 -21 171 10 30 18
22 12 -11z m1099 -14 c8 -35 2 -57 -21 -70 -26 -15 -36 -28 -30 -43 2 -7 -3
-13 -11 -13 -8 0 -12 -4 -9 -10 3 -5 1 -10 -4 -10 -6 0 -11 -7 -11 -15 0 -8
-4 -15 -10 -15 -5 0 -7 -7 -4 -15 4 -8 1 -15 -6 -15 -7 0 -10 -7 -6 -15 3 -8
2 -15 -3 -15 -11 0 -32 -50 -26 -61 4 -5 1 -9 -4 -9 -6 0 -11 -7 -11 -16 0 -8
-4 -12 -10 -9 -10 6 -15 -13 -12 -48 1 -11 -2 -15 -9 -11 -7 4 -10 1 -7 -7 4
-13 0 -21 -29 -53 -7 -8 -9 -16 -6 -20 4 -3 2 -6 -3 -6 -5 0 -10 -11 -10 -25
-1 -14 -10 -38 -20 -53 -10 -15 -17 -30 -16 -34 1 -5 -3 -8 -9 -8 -6 0 -9 -6
-7 -12 3 -7 -2 -19 -9 -27 -8 -7 -12 -20 -9 -27 3 -8 -1 -14 -9 -14 -9 0 -12
-6 -9 -15 4 -8 1 -15 -6 -15 -6 0 -8 -4 -5 -10 3 -5 1 -10 -5 -10 -6 0 -9 -4
-6 -9 4 -5 1 -11 -4 -13 -6 -2 -12 -13 -13 -26 0 -12 -4 -22 -8 -22 -4 0 -5
-9 -2 -20 4 -16 2 -19 -11 -14 -19 7 -21 -7 -4 -24 9 -9 8 -12 -4 -12 -11 0
-15 -6 -11 -20 6 -22 -7 -26 -24 -9 -9 9 -8 16 3 27 8 8 13 21 10 28 -3 8 -1
14 4 14 4 0 11 14 15 30 4 17 11 30 15 30 5 0 7 7 3 15 -3 9 3 25 12 35 10 11
15 20 11 20 -3 0 9 31 28 68 19 37 59 126 89 197 80 190 138 309 158 325 4 3
10 21 14 40 17 80 58 118 71 66z m-1486 -30 c0 -11 -19 -15 -25 -6 -3 5 1 10
9 10 9 0 16 -2 16 -4z m114 -45 c15 -32 16 -43 6 -61 -10 -20 -10 -22 3 -17
23 9 29 -4 9 -20 -16 -14 -16 -14 1 -9 9 3 17 1 17 -4 0 -6 -4 -10 -10 -10 -5
0 -10 -4 -10 -10 0 -5 7 -7 15 -4 8 4 15 2 15 -4 0 -6 -6 -13 -12 -15 -8 -3
-5 -6 6 -6 15 -1 16 -4 6 -16 -10 -12 -9 -15 6 -16 11 0 14 -3 7 -6 -7 -2 -13
-9 -13 -15 0 -6 7 -8 15 -5 8 4 17 2 20 -3 4 -6 -1 -10 -9 -10 -9 0 -16 -5
-16 -11 0 -6 7 -9 15 -6 8 4 17 2 20 -4 4 -5 -1 -12 -9 -15 -9 -3 -16 -10 -16
-16 0 -5 5 -6 11 -2 8 4 9 0 4 -15 -5 -15 -2 -21 10 -21 9 0 14 -4 11 -8 -3
-5 4 -19 15 -31 11 -12 17 -26 14 -31 -3 -6 -2 -10 4 -10 6 0 8 -7 5 -15 -4
-8 -1 -15 6 -15 6 0 8 -4 5 -10 -3 -5 -1 -10 6 -10 6 0 9 -8 6 -20 -3 -11 -1
-20 5 -20 5 0 7 -4 3 -9 -3 -5 -1 -12 5 -16 6 -4 8 -11 5 -16 -4 -5 1 -9 9 -9
9 0 16 -8 16 -17 0 -15 -2 -16 -10 -3 -9 14 -15 7 -10 -15 5 -28 -20 18 -45
80 -15 39 -39 92 -52 119 -22 44 -111 268 -127 324 -5 14 -3 22 4 22 6 0 8 -5
4 -11 -4 -7 -1 -10 7 -7 20 7 23 42 4 58 -16 14 -20 30 -7 30 5 0 17 -17 26
-39z m-439 -1 c8 -13 -5 -13 -25 0 -13 8 -13 10 2 10 9 0 20 -4 23 -10z m165
-21 c0 -6 -4 -7 -10 -4 -5 3 -10 11 -10 16 0 6 5 7 10 4 6 -3 10 -11 10 -16z
m17 -35 c-3 -3 -12 -4 -19 -1 -8 3 -5 6 6 6 11 1 17 -2 13 -5z m-57 -12 c0 -4
-9 -8 -20 -8 -11 0 -20 4 -20 8 0 4 9 8 20 8 11 0 20 -4 20 -8z m63 -22 c4 0
5 5 2 10 -3 6 -2 10 4 10 20 0 23 -41 4 -55 -15 -12 -20 -12 -30 2 -17 23 -18
62 -1 45 7 -7 16 -12 21 -12z m104 -43 c17 -35 21 -47 9 -38 -9 7 -16 20 -16
28 0 8 -5 11 -10 8 -7 -4 -7 -13 0 -26 6 -11 7 -19 2 -19 -14 0 -23 43 -12 54
5 5 2 19 -8 34 -10 15 -12 23 -4 18 7 -4 24 -31 39 -59z m633 -90 c0 -68 3
-200 6 -293 8 -251 -15 -177 -41 128 -8 92 -14 143 -26 206 -12 60 -2 82 37
82 24 0 24 0 24 -123z m158 -104 c-6 -193 -23 -411 -33 -422 -2 -2 -11 -1 -20
2 -13 5 -15 33 -17 174 -3 227 1 423 8 435 3 5 12 1 18 -8 13 -18 38 -11 35 9
-3 23 1 38 9 34 4 -3 4 -103 0 -224z m-368 83 c5 -33 15 -63 21 -67 6 -4 8
-12 5 -18 -4 -6 -1 -11 6 -12 10 0 10 -2 -1 -6 -11 -5 -11 -7 0 -14 12 -8 11
-11 -1 -19 -12 -8 -12 -10 5 -10 17 0 18 -2 5 -11 -12 -9 -13 -12 -1 -16 11
-5 11 -7 0 -14 -11 -7 -10 -9 5 -9 15 0 16 -3 6 -15 -7 -8 -8 -15 -3 -15 5 0
10 -6 10 -12 1 -7 4 -31 8 -53 4 -22 8 -46 8 -52 0 -7 4 -13 8 -13 5 0 6 -7 3
-15 -4 -8 -1 -15 6 -15 10 0 10 -3 0 -15 -10 -12 -10 -15 1 -15 11 0 11 -2 -1
-10 -13 -8 -12 -10 3 -10 20 0 23 -16 5 -23 -8 -3 -6 -6 5 -6 19 -1 24 -21 5
-21 -8 0 -5 -7 6 -15 20 -15 20 -15 0 -16 -16 -1 -17 -2 -1 -6 22 -6 22 -26 0
-21 -19 3 -34 54 -54 183 -6 39 -24 117 -41 175 -24 85 -50 245 -47 295 1 18
19 -49 29 -109z m-465 -81 c91 -181 233 -448 262 -492 9 -13 13 -26 10 -30 -3
-3 -14 11 -23 31 -10 20 -26 38 -36 42 -10 3 -16 9 -13 14 9 14 -51 134 -85
171 -16 19 -30 43 -30 54 0 22 -17 45 -33 45 -5 0 -4 -7 3 -15 7 -9 10 -18 7
-21 -9 -9 -26 30 -33 75 -5 32 -10 41 -22 36 -12 -4 -13 -3 -2 10 9 11 9 15 1
15 -7 0 -9 5 -6 11 4 6 -3 13 -14 16 -16 4 -20 11 -15 25 4 15 3 18 -6 13 -9
-5 -10 -2 -5 14 5 16 1 23 -17 30 -13 6 -17 10 -10 10 21 1 13 21 -9 21 -16 0
-19 4 -14 20 4 12 2 20 -5 20 -6 0 -8 5 -5 10 3 6 1 10 -5 10 -7 0 -10 7 -6
15 3 9 0 15 -9 15 -8 0 -15 5 -15 11 0 6 10 9 22 7 18 -2 40 -38 113 -183z
m985 55 c-11 -58 -23 -134 -26 -170 -5 -52 -39 -228 -68 -345 -5 -19 -3 58 10
388 6 139 7 149 30 172 14 14 31 22 39 19 10 -4 15 0 15 13 0 19 10 36 17 30
1 -2 -6 -50 -17 -107z m-925 70 c-3 -5 -1 -10 5 -10 6 0 8 -4 5 -10 -3 -5 -1
-10 6 -10 8 0 7 -5 -2 -17 -12 -15 -12 -16 4 -10 9 3 17 2 17 -2 0 -25 -27
-14 -47 18 -22 37 -22 51 3 51 8 0 12 -4 9 -10z m475 1 c0 -5 9 -76 19 -157
39 -306 35 -316 -19 -39 -17 88 -33 170 -35 183 -4 17 -1 22 15 22 11 0 20 -4
20 -9z m-483 -79 c18 -37 58 -114 89 -172 31 -58 81 -157 109 -220 29 -64 71
-154 94 -201 22 -47 41 -91 41 -97 0 -29 -22 -7 -50 48 -17 33 -45 84 -64 113
-29 47 -207 385 -277 527 l-27 55 22 7 c11 3 23 6 26 7 3 0 19 -30 37 -67z
m48 -12 c-3 -5 -11 -10 -16 -10 -6 0 -7 5 -4 10 3 6 11 10 16 10 6 0 7 -4 4
-10z m512 -22 c-3 -8 -6 -5 -6 6 -1 11 2 17 5 13 3 -3 4 -12 1 -19z m-502 -19
c-4 -5 0 -9 8 -9 14 0 29 -26 53 -92 19 -56 8 -46 -26 21 -16 33 -34 62 -40
66 -5 3 -10 13 -10 21 0 8 5 12 10 9 6 -4 8 -11 5 -16z m761 -33 c18 -19 20
-126 2 -126 -9 0 -8 -4 2 -11 11 -8 12 -12 2 -16 -6 -2 -10 -9 -6 -14 3 -5 1
-9 -5 -9 -10 0 -9 -19 2 -37 5 -8 4 -13 -3 -13 -6 0 -8 -11 -5 -27 2 -16 -1
-30 -8 -35 -9 -6 -9 -8 1 -8 6 0 12 -4 12 -10 0 -5 -8 -10 -17 -10 -15 0 -14
-2 3 -16 10 -8 14 -13 7 -10 -6 4 -14 2 -18 -4 -3 -5 2 -10 12 -10 15 0 16 -2
3 -10 -10 -6 -11 -10 -2 -10 6 0 12 -4 12 -9 0 -5 -10 -7 -21 -4 -20 6 -21 10
-15 87 19 229 18 226 35 226 14 1 14 2 -1 11 -12 6 -18 22 -18 44 0 39 4 42
26 21z m152 -32 c0 -13 -4 -24 -8 -24 -4 0 -6 -13 -4 -30 2 -16 0 -30 -4 -30
-5 0 -8 -15 -7 -32 1 -18 -3 -49 -10 -68 -7 -19 -11 -43 -9 -52 1 -10 -1 -18
-4 -18 -4 0 -8 -12 -8 -27 -3 -69 -17 -149 -27 -155 -16 -10 -37 2 -37 21 0 9
13 75 29 146 16 72 32 163 36 204 3 40 9 79 11 86 9 22 42 5 42 -21z m-788
-164 c0 -5 -2 -10 -4 -10 -3 0 -8 5 -11 10 -3 6 -1 10 4 10 6 0 11 -4 11 -10z
m160 -65 c0 -8 0 -18 -1 -21 0 -4 5 -11 13 -15 10 -7 9 -9 -3 -9 -17 0 -29 19
-29 46 0 8 5 14 10 14 6 0 10 -7 10 -15z m-100 -15 c0 -5 -4 -10 -10 -10 -5 0
-10 5 -10 10 0 6 5 10 10 10 6 0 10 -4 10 -10z m-130 -62 c0 -14 -18 -9 -24 8
-11 28 -6 39 9 20 8 -11 15 -23 15 -28z m154 26 c5 -14 4 -15 -9 -4 -17 14
-19 20 -6 20 5 0 12 -7 15 -16z m114 -24 c15 0 15 -2 2 -10 -13 -8 -12 -10 4
-10 12 0 16 -5 12 -15 -3 -10 1 -15 12 -15 15 -1 15 -2 -2 -15 -20 -15 -20
-15 0 -15 16 0 17 -2 4 -10 -13 -8 -12 -10 4 -10 15 0 16 -3 6 -15 -10 -12 -9
-15 6 -15 16 0 17 -2 4 -10 -12 -8 -12 -10 5 -10 17 0 17 -2 5 -10 -10 -6 -19
-5 -27 3 -14 14 -63 149 -62 169 0 10 2 10 6 1 2 -7 12 -13 21 -13z m212 -10
c0 -5 -6 -10 -12 -10 -9 0 -8 -4 2 -10 13 -8 12 -10 -2 -10 -11 0 -18 8 -18
20 0 11 7 20 15 20 8 0 15 -4 15 -10z m-316 -56 c3 -8 2 -12 -4 -9 -6 3 -10
10 -10 16 0 14 7 11 14 -7z m447 4 c26 -7 51 -26 74 -54 49 -59 57 -86 44
-140 -13 -50 -32 -72 -23 -26 4 17 1 32 -5 36 -9 6 -17 -28 -12 -56 0 -5 -4
-8 -9 -8 -6 0 -8 10 -5 23 4 12 1 36 -6 52 -12 28 -13 29 -16 8 -5 -28 -14
-29 -31 -3 -13 21 -66 28 -77 10 -7 -11 -68 -8 -77 4 -4 6 -12 6 -20 -1 -18
-14 -67 -22 -74 -12 -3 5 2 12 10 15 9 3 24 23 33 43 49 109 100 138 194 109z
m353 -84 c-7 -3 -10 -14 -7 -24 3 -11 1 -20 -5 -20 -5 0 -20 -25 -33 -55 -12
-30 -27 -55 -31 -55 -5 0 -6 -4 -3 -10 3 -5 1 -10 -5 -10 -7 0 -10 -6 -8 -12
3 -7 -6 -23 -18 -36 -33 -32 -30 -13 14 82 21 44 45 96 53 114 9 21 21 32 34
31 11 0 15 -3 9 -5z m-819 -54 c14 -27 23 -50 20 -50 -3 0 -24 19 -47 41 -44
43 -44 45 -1 58 2 1 14 -21 28 -49z m635 31 c0 -21 -13 -41 -22 -35 -6 4 -5
10 3 15 11 7 11 9 1 9 -7 0 -10 5 -7 10 8 13 25 13 25 1z m-430 -5 c0 -2 -7
-7 -16 -10 -8 -3 -12 -2 -9 4 6 10 25 14 25 6z m10 -24 c0 -10 -22 -32 -32
-32 -5 0 -3 9 4 20 13 20 28 27 28 12z m509 -44 c-12 -21 -13 -21 -17 -4 -2
10 2 22 9 27 20 12 22 4 8 -23z m-314 -7 c-14 -13 -42 -21 -87 -25 -76 -7 -99
7 -40 25 30 9 44 8 61 -1 18 -9 27 -9 44 4 31 21 45 20 22 -3z m-404 -39 c-13
-2 -27 0 -32 5 -6 6 3 7 23 4 28 -4 29 -6 9 -9z m167 -4 c52 1 54 -11 5 -25
l-38 -11 35 3 c19 2 53 10 75 19 71 27 255 16 255 -16 0 -5 4 -7 9 -4 5 3 15
-2 22 -12 12 -15 12 -16 -2 -4 -14 10 -18 10 -23 -3 -7 -19 -32 -20 -43 -2 -4
8 -21 22 -38 31 l-30 18 28 -24 c15 -13 27 -27 27 -30 0 -4 -15 -16 -34 -28
-43 -26 -102 -106 -111 -151 -3 -19 -9 -43 -13 -54 -5 -17 -7 -16 -13 10 -6
28 -7 26 -10 -15 -1 -25 -3 -53 -2 -62 0 -21 -23 -24 -31 -5 -3 6 -3 -4 0 -23
l7 -35 -21 25 c-13 16 -21 20 -22 11 0 -11 -5 -10 -20 4 -24 22 -27 9 -3 -17
9 -10 12 -18 6 -18 -5 0 -18 9 -28 20 -10 11 -23 20 -28 20 -6 0 1 -13 16 -28
26 -27 35 -52 19 -52 -4 0 -13 9 -20 20 -7 11 -20 20 -29 20 -15 0 -15 -2 3
-20 34 -34 45 -50 35 -50 -5 0 -13 5 -16 10 -3 6 -11 10 -17 10 -7 0 -6 -6 2
-15 7 -8 8 -15 2 -15 -5 0 -15 6 -22 14 -6 8 -17 13 -23 10 -7 -2 -37 18 -67
46 -67 62 -144 94 -213 87 -26 -2 -46 -1 -45 2 2 3 12 30 23 60 11 29 41 77
66 106 25 29 55 68 67 86 11 19 31 40 44 48 38 23 131 50 153 44 11 -4 39 -6
63 -5z m402 -58 c0 -5 -2 -10 -4 -10 -3 0 -8 5 -11 10 -3 6 -1 10 4 10 6 0 11
-4 11 -10z m-17 -30 c61 -10 89 -29 86 -57 -3 -36 2 -37 21 -8 15 22 20 26 25
14 3 -9 1 -28 -5 -43 -12 -33 -12 -36 -2 -36 5 0 17 17 27 38 l19 37 4 -27 c4
-34 19 -36 32 -5 l9 22 0 -22 c1 -12 5 -25 11 -28 13 -8 7 50 -8 67 -6 8 -7
19 -3 26 5 8 16 -4 34 -37 27 -48 36 -98 17 -86 -5 3 -10 2 -10 -4 0 -5 5 -13
10 -16 6 -3 10 -11 10 -17 0 -5 -9 0 -20 13 -10 13 -19 19 -20 12 0 -6 5 -15
10 -18 6 -3 10 -17 10 -31 0 -13 -4 -24 -10 -24 -5 0 -10 6 -10 13 0 9 -10 12
-30 9 -16 -2 -30 -7 -30 -11 0 -4 -10 -7 -22 -7 -15 1 -24 -6 -26 -19 -8 -41
-53 -46 -119 -14 -27 13 -54 19 -71 16 -40 -8 -121 30 -128 59 -3 13 -10 21
-15 19 -4 -3 -4 -18 2 -32 6 -18 6 -30 0 -36 -7 -7 -5 -15 7 -24 16 -13 16
-14 -3 -11 -18 3 -20 11 -19 71 0 37 3 69 5 71 11 12 58 13 62 3 3 -7 9 -1 15
13 11 28 6 42 -8 20 -6 -9 -10 -10 -10 -3 0 6 5 15 10 18 6 3 10 11 10 17 0 6
-12 1 -26 -13 -23 -20 -25 -21 -16 -4 15 29 42 52 82 69 19 8 35 15 35 16 0 0
26 -4 58 -10z m-682 -280 c73 -25 159 -86 194 -137 14 -21 25 -41 25 -45 0
-22 -25 -1 -76 63 -64 81 -128 118 -204 120 -34 0 -40 2 -25 9 11 5 21 9 23 9
1 1 30 -8 63 -19z m579 0 c0 -5 -5 -10 -11 -10 -5 0 -7 5 -4 10 3 6 8 10 11
10 2 0 4 -4 4 -10z m-50 -27 c-1 -27 -1 -27 -15 -9 -19 25 -19 36 0 36 10 0
15 -10 15 -27z m180 17 c0 -5 -4 -10 -10 -10 -12 0 -61 -95 -53 -104 4 -3 1
-6 -7 -6 -10 0 -10 -3 0 -15 10 -12 9 -15 -5 -15 -15 0 -16 -2 -4 -17 12 -14
12 -15 0 -9 -8 5 -17 3 -22 -5 -20 -31 -8 23 15 69 13 26 29 64 35 85 9 26 18
37 32 37 10 0 19 -4 19 -10z m-70 -4 c0 -11 -19 -15 -25 -6 -3 5 1 10 9 10 9
0 16 -2 16 -4z m-780 -38 c0 -18 -6 -45 -14 -59 -23 -45 -29 -96 -11 -106 13
-8 14 -15 5 -38 -12 -31 -4 -85 12 -85 6 0 8 10 4 24 -3 14 0 50 9 81 14 57
11 90 -8 78 -7 -4 -8 2 -3 18 5 13 13 44 20 67 11 43 12 44 46 39 53 -8 116
-37 100 -47 -9 -6 -8 -9 6 -14 11 -3 21 -5 24 -3 10 4 64 -44 87 -78 20 -29
23 -45 21 -117 l-1 -83 -6 65 -7 65 -7 -45 c-5 -26 -4 -64 2 -90 13 -57 14
-80 1 -80 -5 0 -7 7 -4 15 4 8 1 15 -4 15 -6 0 -9 9 -7 20 2 11 0 20 -4 20 -5
0 -12 11 -15 25 -4 14 -13 25 -21 25 -18 0 -20 -20 -2 -21 6 0 3 -4 -8 -9 -19
-9 -19 -9 3 -16 12 -3 22 -10 22 -14 0 -5 -10 -6 -22 -3 -19 3 -18 1 5 -12 32
-18 30 -33 -1 -16 -37 20 -36 11 4 -24 l39 -36 -43 26 c-24 15 -46 24 -49 21
-3 -3 11 -15 31 -27 20 -11 36 -22 36 -24 0 -2 -23 5 -50 16 -28 10 -57 19
-66 19 -27 0 -6 -17 29 -24 19 -3 42 -13 53 -21 32 -24 -6 -18 -71 11 -41 19
-66 25 -88 20 -18 -3 -45 -8 -62 -11 l-30 -6 25 15 c23 14 23 15 5 16 -16 1
-14 4 10 15 29 14 29 14 5 15 -20 0 -22 2 -10 10 12 8 10 10 -9 10 -24 0 -24
0 -5 15 18 14 18 14 -5 15 -19 0 -22 3 -13 12 8 8 8 17 1 30 -6 11 -9 29 -7
41 1 12 -1 27 -5 34 -4 6 -3 14 2 17 5 3 7 15 4 26 -3 11 -9 18 -13 15 -15 -9
-21 -112 -10 -180 15 -97 8 -120 -40 -133 -22 -5 -37 -6 -34 -1 3 5 14 9 25 9
10 0 19 5 19 11 0 6 -8 8 -17 5 -15 -5 -14 -3 2 10 19 16 19 16 -10 11 -27 -5
-28 -4 -10 9 10 8 24 14 29 14 6 0 4 5 -4 10 -13 8 -12 10 3 10 19 0 20 2 11
24 -3 8 -12 12 -20 9 -8 -3 -14 1 -14 11 0 9 7 16 15 16 8 0 15 4 15 10 0 5
-7 7 -15 4 -8 -4 -15 -1 -15 5 0 6 7 11 15 11 18 0 20 20 3 21 -9 0 -9 2 1 6
10 4 11 7 1 13 -19 12 3 88 53 180 25 46 35 76 28 78 -19 6 -12 22 9 22 16 0
20 -7 20 -32z m163 18 c40 -17 111 -86 133 -129 14 -26 8 -22 -30 20 -49 54
-97 93 -119 97 -7 1 -21 7 -32 14 -18 10 -18 11 -2 12 10 0 32 -6 50 -14z
m517 -94 c23 -48 53 -102 66 -121 22 -33 22 -36 7 -53 -20 -22 -37 -24 -29 -3
3 8 1 15 -5 15 -6 0 -9 7 -5 15 3 8 1 15 -5 15 -6 0 -7 5 -4 10 3 6 -1 10 -10
10 -12 0 -15 6 -10 20 4 11 2 20 -4 20 -6 0 -8 7 -5 15 5 11 2 13 -10 9 -9 -3
-16 -1 -16 5 0 6 5 11 10 11 6 0 10 5 10 11 0 6 -7 9 -15 5 -8 -3 -15 -1 -15
4 0 6 5 10 11 10 5 0 7 5 4 10 -4 6 -11 7 -17 4 -7 -5 -9 -1 -5 9 3 10 3 17
-1 17 -4 0 -8 8 -8 18 -1 9 -5 26 -9 37 -8 17 -7 18 7 7 9 -7 35 -52 58 -100z
m100 79 c0 -6 -9 -9 -19 -8 -11 0 -17 5 -15 9 7 11 34 10 34 -1z m-856 -58
c-15 -27 -31 -52 -36 -57 -4 -6 -8 -20 -8 -33 0 -13 -7 -26 -16 -30 -8 -3 -13
-12 -9 -20 3 -11 1 -13 -10 -9 -8 3 -15 1 -15 -3 0 -5 7 -11 15 -15 8 -3 15
-17 15 -32 0 -23 -2 -25 -15 -14 -12 10 -13 15 -4 20 8 6 8 9 -1 15 -14 9 -30
-12 -23 -31 3 -9 -2 -11 -16 -7 -19 5 -26 -4 -22 -29 0 -4 -8 -10 -19 -13 -24
-8 -27 -25 -4 -25 8 0 12 -4 9 -10 -3 -5 -14 -10 -24 -10 -20 0 -25 -30 -7
-43 7 -5 3 -7 -9 -5 -11 1 -26 -1 -33 -6 -7 -4 -16 -6 -18 -3 -8 7 25 67 36
67 6 0 10 5 10 11 0 6 15 32 34 58 18 25 44 71 58 101 20 46 119 170 134 170
3 0 -7 -21 -22 -47z m723 -205 c4 -18 1 -28 -6 -28 -7 0 -9 5 -5 12 5 8 2 9
-9 5 -20 -8 -22 4 -4 22 10 11 8 12 -11 6 -22 -6 -23 -5 -12 16 11 19 10 21
-3 16 -12 -4 -14 -2 -10 10 5 12 2 15 -10 10 -24 -9 -30 9 -10 29 17 17 17 17
-4 12 -25 -7 -30 1 -12 19 9 9 6 10 -12 6 -23 -6 -23 -5 -7 13 19 22 9 52 -12
39 -9 -6 -11 -4 -5 6 25 44 28 42 78 -63 26 -56 51 -115 54 -130z m118 222
c-3 -5 -10 -10 -16 -10 -5 0 -9 5 -9 10 0 6 7 10 16 10 8 0 12 -4 9 -10z
m-892 -15 c-3 -9 -8 -14 -10 -11 -3 3 -2 9 2 15 9 16 15 13 8 -4z m737 -21
c61 -122 69 -144 54 -144 -11 0 -94 154 -94 176 0 15 27 -6 40 -32z m-115 -15
c-3 -4 4 -26 15 -49 11 -22 18 -40 16 -40 -18 0 -58 27 -72 47 -14 23 -14 26
1 43 16 18 51 17 40 -1z m45 -3 c0 -2 -7 -7 -16 -10 -8 -3 -12 -2 -9 4 6 10
25 14 25 6z m-717 -23 c-7 -3 -13 -10 -13 -17 0 -6 -8 -19 -17 -28 -27 -25
-43 -46 -43 -57 0 -5 -7 -12 -16 -15 -10 -4 -14 -12 -10 -22 5 -12 2 -15 -10
-10 -12 4 -15 2 -10 -9 3 -9 0 -15 -11 -15 -13 0 -13 -3 -2 -17 11 -15 11 -16
0 -6 -7 6 -20 9 -29 6 -8 -4 25 42 73 100 49 59 91 104 94 101 3 -4 0 -9 -6
-11z m629 -38 c10 -13 36 -30 56 -36 31 -9 44 -22 75 -76 20 -36 37 -71 37
-79 0 -18 -242 -547 -266 -582 -1 -2 -11 2 -22 9 -28 17 -49 5 -57 -33 -10
-46 -14 -50 -32 -32 -15 15 -19 14 -45 -17 -15 -19 -28 -42 -28 -52 0 -12 -6
-17 -17 -15 -15 3 -18 14 -17 63 1 75 32 373 40 387 3 5 15 8 25 5 12 -3 19 0
19 9 0 8 8 14 18 14 13 0 14 -2 3 -9 -9 -6 -10 -11 -2 -15 6 -4 25 7 42 23 24
23 38 29 55 25 33 -8 41 19 20 62 -23 49 -23 237 1 285 23 49 53 89 65 89 5 0
19 -11 30 -25z m382 -47 c-6 -21 -63 -77 -77 -78 -5 0 3 14 18 31 25 31 29 56
6 52 -14 -4 -14 3 -1 28 10 18 12 18 36 3 18 -12 23 -22 18 -36z m25 -36 c0
-18 -73 -82 -93 -82 -6 0 5 16 26 35 20 18 39 43 43 54 7 24 25 19 24 -7z
m-529 -25 c0 -18 -3 -56 -7 -86 -9 -80 -22 -34 -16 56 6 71 23 94 23 30z m359
-9 c-2 -13 0 -29 4 -35 5 -7 4 -13 -2 -13 -6 0 -8 -7 -5 -15 5 -12 2 -14 -12
-8 -17 6 -17 5 -5 -10 9 -12 10 -17 2 -17 -7 0 -9 -5 -5 -12 5 -7 2 -9 -8 -5
-12 4 -15 0 -13 -18 1 -14 -1 -22 -6 -20 -15 10 -21 -16 -7 -32 11 -15 11 -16
-5 -10 -15 6 -17 3 -12 -14 5 -16 4 -19 -6 -14 -9 6 -11 3 -6 -8 4 -11 1 -17
-9 -17 -8 0 -12 -4 -9 -10 3 -5 1 -10 -6 -10 -7 0 -10 -3 -6 -6 3 -4 -1 -13
-9 -21 -26 -27 -26 -7 0 45 14 28 39 84 55 124 47 118 61 148 67 148 3 0 4
-10 3 -22z m171 -16 c0 -15 -38 -44 -51 -40 -8 3 -4 12 11 26 25 23 40 28 40
14z m-1043 -51 c-3 -28 -2 -63 2 -78 11 -39 4 -53 -26 -53 -25 0 -25 1 -19 52
4 29 12 58 18 65 6 7 7 20 4 29 -7 18 0 34 16 34 7 0 9 -17 5 -49z m30 -3 c-3
-8 -6 -5 -6 6 -1 11 2 17 5 13 3 -3 4 -12 1 -19z m-167 2 c0 -5 -2 -10 -4 -10
-3 0 -8 5 -11 10 -3 6 -1 10 4 10 6 0 11 -4 11 -10z m1056 -5 c-3 -8 -1 -15 5
-15 6 0 9 -7 5 -15 -3 -8 -1 -15 5 -15 6 0 7 -4 4 -10 -3 -5 1 -10 9 -10 22 0
20 -17 -1 -23 -13 -3 -11 -5 6 -6 24 -1 24 -1 5 -16 -19 -14 -19 -14 1 -15 17
0 17 -2 5 -10 -13 -8 -12 -10 3 -10 9 0 17 -4 17 -10 0 -5 -7 -10 -15 -10 -8
0 -15 -7 -15 -15 0 -8 8 -15 18 -15 13 0 14 -2 4 -9 -11 -7 -11 -11 2 -24 12
-11 13 -17 3 -20 -6 -3 -4 -6 7 -6 15 -1 16 -4 6 -16 -10 -12 -10 -15 1 -16
10 0 11 -2 2 -6 -18 -7 -16 -23 2 -23 18 0 20 -16 3 -23 -10 -4 -9 -8 2 -17
11 -9 12 -13 3 -17 -17 -6 -16 -23 1 -23 7 0 16 -8 19 -19 3 -14 -1 -18 -19
-18 -28 0 -29 2 -49 124 -9 54 -25 143 -36 197 -18 92 -19 126 -3 126 3 0 4
-7 0 -15z m134 6 c0 -6 -4 -13 -10 -16 -5 -3 -10 1 -10 9 0 9 5 16 10 16 6 0
10 -4 10 -9z m-41 -26 c2 -11 7 -23 12 -26 5 -3 45 -80 88 -172 72 -150 78
-168 64 -184 -14 -17 -14 -17 -9 0 4 13 0 20 -15 24 -12 3 -18 11 -15 19 8 22
-12 16 -24 -6 -8 -15 -8 -20 1 -20 6 0 9 -7 5 -15 -3 -8 -1 -15 5 -15 6 0 9
-7 5 -15 -3 -8 0 -15 7 -15 8 0 6 -4 -3 -10 -12 -8 -10 -10 10 -10 l25 -1 -25
-11 -25 -11 30 -7 30 -8 -30 -2 c-30 -2 -30 -2 -5 -10 17 -5 19 -8 8 -9 -10
-1 -18 -6 -18 -12 0 -6 9 -8 21 -4 15 5 19 4 15 -4 -14 -22 -45 -12 -52 17 -3
15 -17 65 -30 112 -13 47 -24 88 -24 93 0 15 19 6 25 -13 8 -27 18 -25 32 6
10 22 10 24 -8 19 -21 -7 -25 5 -7 23 9 9 8 12 -6 12 -13 0 -16 5 -11 21 5 16
4 19 -6 14 -9 -6 -11 -3 -6 9 5 14 3 17 -8 12 -8 -3 -15 -1 -15 3 0 5 6 12 13
14 7 3 4 6 -7 6 -14 1 -16 4 -7 15 6 7 9 21 5 30 -7 18 -24 22 -24 6 0 -5 5
-10 11 -10 5 0 7 -5 4 -11 -5 -6 -12 -4 -20 8 -9 11 -10 22 -4 29 14 17 0 44
-19 37 -14 -5 -15 -3 -4 8 18 20 15 28 -10 21 -21 -5 -22 -4 -8 13 14 17 13
18 -3 12 -15 -6 -16 -4 -6 15 10 18 9 20 -5 15 -11 -4 -15 -3 -11 4 11 17 49
6 54 -16z m-119 -35 c0 -5 -5 -10 -11 -10 -5 0 -7 5 -4 10 3 6 8 10 11 10 2 0
4 -4 4 -10z m3 -50 c3 -11 3 -20 1 -20 -2 0 -8 9 -14 20 -6 11 -7 20 -2 20 6
0 12 -9 15 -20z m-623 1 c0 -5 12 -14 28 -19 15 -6 37 -19 49 -29 l23 -18 -32
-48 c-18 -28 -36 -46 -44 -43 -8 3 -11 0 -7 -9 3 -8 -2 -18 -11 -21 -9 -3 -14
-10 -11 -14 3 -4 -4 -18 -14 -31 -28 -36 -78 -122 -86 -150 -9 -28 -44 -69
-60 -69 -6 0 -19 -14 -29 -30 -9 -17 -22 -28 -27 -25 -5 4 -9 -3 -9 -14 0 -15
-4 -19 -17 -14 -12 5 -15 2 -10 -10 4 -12 2 -14 -10 -10 -12 5 -15 2 -10 -10
4 -12 2 -14 -10 -10 -12 5 -14 1 -9 -15 6 -17 4 -19 -16 -14 -21 5 -22 4 -9
-11 12 -15 11 -20 -4 -37 -13 -14 -25 -18 -39 -14 -19 6 -20 5 -6 -11 14 -16
13 -17 -9 -10 -20 6 -22 4 -17 -13 6 -17 3 -19 -15 -15 -15 4 -20 3 -15 -5 4
-7 3 -12 -3 -12 -5 0 -13 -9 -16 -20 -8 -26 -37 -25 -63 2 -19 21 -20 29 -11
105 5 45 13 93 18 106 15 38 71 89 134 122 53 27 71 45 47 45 -5 0 -1 17 10
38 20 38 42 112 65 214 15 67 21 78 42 78 8 0 29 6 46 14 80 34 157 47 157 27z
m220 5 c0 -3 -4 -8 -10 -11 -5 -3 -10 -1 -10 4 0 6 5 11 10 11 6 0 10 -2 10
-4z m19 -40 c7 -8 13 -24 14 -35 1 -12 5 -21 10 -21 4 0 6 -4 2 -10 -9 -14
-37 0 -31 16 3 8 1 14 -5 14 -6 0 -9 7 -5 15 3 8 1 15 -4 15 -6 0 -10 5 -10
10 0 15 16 12 29 -4z m370 -27 c-11 -7 -10 -9 4 -9 9 0 17 -4 17 -10 0 -5 -8
-10 -17 -10 -14 0 -15 -2 -4 -9 11 -7 11 -9 0 -14 -12 -4 -11 -7 1 -16 13 -9
12 -11 -5 -11 -17 0 -18 -2 -5 -11 12 -9 13 -12 1 -16 -11 -5 -11 -7 0 -14 11
-7 10 -9 -3 -9 -21 0 -24 -16 -5 -23 9 -4 8 -8 -3 -16 -8 -6 -10 -11 -5 -11 6
0 3 -5 -5 -10 -10 -6 -11 -10 -2 -10 19 0 14 -20 -5 -21 -15 0 -15 -2 2 -9 17
-7 17 -9 3 -9 -20 -1 -25 -21 -5 -21 8 0 7 -4 -3 -10 -13 -9 -13 -11 0 -20 12
-8 12 -10 -5 -10 -20 -1 -20 -1 -1 -15 18 -13 18 -15 2 -21 -14 -5 -15 -9 -4
-15 10 -7 11 -9 0 -9 -7 0 -10 -4 -7 -10 3 -5 1 -10 -6 -10 -8 0 -8 -4 1 -15
10 -12 10 -15 -1 -16 -12 0 -12 -1 0 -6 11 -5 11 -7 0 -14 -12 -8 -12 -11 1
-18 12 -9 12 -11 -4 -17 -14 -5 -15 -9 -4 -15 10 -7 8 -9 -7 -9 -20 -1 -20 -1
-1 -15 19 -15 19 -15 -2 -15 -26 0 -30 -19 -4 -21 16 -1 16 -2 0 -6 -10 -2
-18 -8 -18 -13 0 -5 8 -11 18 -13 12 -3 11 -5 -6 -6 -13 0 -20 -5 -17 -11 3
-5 1 -10 -6 -10 -14 0 -7 65 27 240 13 69 33 179 44 245 11 66 23 129 26 139
6 18 7 18 16 1 8 -12 7 -20 -3 -26z m-39 21 c0 -5 -2 -10 -4 -10 -3 0 -8 5
-11 10 -3 6 -1 10 4 10 6 0 11 -4 11 -10z m-370 -44 c0 -14 -4 -28 -10 -31 -6
-4 -10 7 -10 24 0 17 5 31 10 31 6 0 10 -11 10 -24z m355 -6 c3 -5 -1 -10 -9
-10 -9 0 -16 5 -16 10 0 6 4 10 9 10 6 0 13 -4 16 -10z m-5 -31 c0 -6 -7 -8
-16 -5 -12 4 -15 2 -10 -9 3 -8 0 -15 -7 -15 -8 0 -6 -4 3 -10 12 -8 10 -10
-9 -10 -24 0 -24 0 -5 -15 18 -14 18 -14 -5 -15 -24 0 -24 0 -5 -15 19 -14 19
-14 -1 -15 -17 0 -17 -2 -5 -10 13 -8 12 -10 -4 -10 -16 0 -17 -3 -8 -12 18
-18 15 -28 -5 -21 -16 6 -16 5 -4 -10 12 -15 11 -17 -5 -18 -11 0 -14 -3 -6
-6 18 -7 15 -23 -5 -24 -13 0 -14 -2 -4 -6 11 -5 11 -7 0 -14 -12 -8 -11 -11
1 -19 14 -9 7 -15 -14 -11 -5 1 -6 -5 -2 -14 3 -9 2 -13 -4 -10 -5 3 -14 -3
-20 -14 -8 -16 -6 -22 7 -30 17 -10 16 -10 -2 -11 -17 0 -17 -2 -5 -10 13 -8
12 -10 -4 -10 -20 0 -20 0 0 -15 18 -14 18 -14 0 -15 -15 0 -16 -3 -6 -15 11
-13 10 -14 -4 -9 -21 8 -21 -5 2 -23 16 -13 15 -14 -5 -10 -13 3 -23 1 -23 -4
0 -5 5 -9 10 -9 6 0 10 -4 10 -10 0 -5 -7 -7 -15 -4 -8 4 -15 1 -15 -5 0 -6 5
-11 10 -11 6 0 10 -4 10 -9 0 -5 -10 -7 -22 -4 -23 4 -23 4 -3 -13 17 -14 17
-16 3 -11 -20 7 -25 -9 -5 -16 6 -3 2 -6 -10 -6 -13 -1 -23 -7 -24 -13 0 -7
-3 -8 -5 -3 -5 12 145 466 178 538 14 31 28 47 40 47 10 0 18 -5 18 -11z m97
-11 c-3 -8 -6 -5 -6 6 -1 11 2 17 5 13 3 -3 4 -12 1 -19z m-182 -18 c3 -5 2
-10 -4 -10 -6 0 -7 -7 -4 -17 4 -11 3 -14 -5 -9 -12 7 -16 -5 -13 -31 1 -8 -5
-10 -14 -7 -19 8 -19 6 2 49 17 36 27 43 38 25z m80 -77 c-6 -48 -40 -239 -60
-330 -3 -14 -10 -20 -19 -17 -9 3 -22 -5 -32 -21 -9 -14 -18 -24 -21 -22 -10
10 122 447 135 447 2 0 0 -26 -3 -57z m-489 -25 c-6 -107 -18 -198 -28 -204
-4 -3 -6 -10 -2 -15 3 -5 0 -16 -6 -24 -6 -8 -9 -19 -6 -24 4 -5 1 -13 -5 -16
-5 -4 -8 -13 -5 -21 3 -8 -1 -17 -10 -21 -8 -3 -13 -12 -10 -19 3 -8 1 -14 -5
-14 -6 0 -9 -7 -6 -15 4 -8 2 -17 -4 -20 -5 -4 -7 -11 -4 -16 4 -5 -6 -14 -20
-19 -35 -13 -35 -13 -35 9 0 10 -9 47 -20 81 -25 78 -25 130 -2 161 11 13 30
50 45 81 30 68 74 128 93 128 7 0 16 4 19 10 4 6 -1 7 -11 3 -12 -4 -15 -3
-10 5 4 7 13 12 21 12 11 0 13 -14 11 -62z m571 30 c-3 -7 -5 -2 -5 12 0 14 2
19 5 13 2 -7 2 -19 0 -25z m-199 -28 c3 -9 -1 -11 -13 -6 -15 5 -16 4 -5 -9
10 -12 10 -15 -3 -15 -10 0 -14 -6 -11 -15 4 -8 1 -15 -6 -15 -6 0 -8 -4 -5
-10 3 -5 2 -10 -4 -10 -6 0 -7 -7 -4 -17 5 -11 3 -14 -6 -8 -10 5 -11 2 -6
-14 4 -13 2 -21 -5 -21 -6 0 -8 -5 -5 -10 3 -6 0 -13 -9 -16 -8 -3 -12 -12 -9
-20 4 -10 0 -12 -13 -7 -17 6 -17 5 -5 -10 12 -15 11 -17 -5 -18 -11 0 -14 -3
-6 -6 16 -6 16 -23 -1 -23 -7 0 -18 -10 -26 -21 -11 -19 -11 -21 3 -16 24 10
28 -9 7 -34 -20 -24 -20 -24 -35 -4 -13 18 -12 24 4 55 10 19 46 92 81 163 58
119 76 141 87 107z m347 0 c3 -5 1 -10 -4 -10 -6 0 -11 5 -11 10 0 6 2 10 4
10 3 0 8 -4 11 -10z m485 -14 c0 -13 7 -29 15 -36 8 -7 15 -23 15 -36 0 -30
15 -31 25 -1 6 19 8 19 12 5 2 -10 9 -18 14 -18 6 0 10 -10 9 -22 -3 -36 -1
-50 9 -44 4 3 17 -1 27 -10 18 -14 18 -15 -3 -9 -14 4 -32 0 -45 -9 -25 -18
-74 -21 -83 -6 -13 22 -33 8 -49 -34 -10 -26 -25 -46 -36 -49 -21 -5 -27 -36
-10 -53 5 -5 6 -15 1 -22 -9 -16 -41 -5 -41 14 0 8 -4 14 -10 14 -5 0 -10 -7
-10 -16 0 -10 -6 -14 -14 -11 -8 3 -22 -3 -32 -14 -25 -27 -41 -24 -64 14 -25
41 -27 87 -2 87 9 0 28 18 42 40 13 22 28 40 32 40 14 0 26 -44 21 -73 -5 -27
11 -38 20 -14 4 7 8 3 12 -10 4 -13 12 -23 17 -23 5 0 7 8 3 19 -8 25 11 71
30 71 18 0 18 5 5 30 -13 24 4 70 25 70 8 0 15 9 15 19 0 11 5 23 10 26 6 3
10 21 10 39 0 18 3 36 7 39 13 14 23 6 23 -17z m-465 -46 c3 -5 -1 -10 -10
-10 -9 0 -13 5 -10 10 3 6 8 10 10 10 2 0 7 -4 10 -10z m-110 -37 c-2 -16 1
-31 8 -35 9 -6 9 -10 -2 -17 -11 -7 -11 -9 0 -14 12 -4 11 -7 -1 -16 -10 -7
-11 -11 -3 -11 7 0 10 -7 6 -16 -3 -9 0 -20 8 -25 12 -8 12 -11 -1 -19 -8 -5
-10 -10 -4 -10 6 0 11 -21 12 -47 1 -53 4 -72 15 -90 4 -6 2 -15 -4 -19 -7 -4
-7 -9 -1 -13 18 -12 23 -48 7 -61 -20 -16 -20 -15 -39 165 -19 173 -20 255 -6
255 6 0 8 -12 5 -27z m-307 -96 c-30 -90 -48 -121 -48 -79 0 18 71 184 76 179
2 -2 -11 -47 -28 -100z m432 99 c0 -11 -19 -15 -25 -6 -3 5 1 10 9 10 9 0 16
-2 16 -4z m-165 -26 c4 -6 -5 -10 -20 -10 -15 0 -24 4 -20 10 3 6 12 10 20 10
8 0 17 -4 20 -10z m113 -18 c-8 -9 -14 -9 -24 -1 -18 15 -18 14 10 14 18 0 22
-3 14 -13z m-111 -18 c-3 -3 -12 -4 -19 -1 -8 3 -5 6 6 6 11 1 17 -2 13 -5z
m207 -103 c30 -56 49 -101 43 -101 -5 0 -15 7 -22 17 -15 21 -45 10 -45 -16 0
-15 -5 -18 -21 -14 -15 4 -27 -1 -40 -18 l-19 -24 0 27 c0 22 5 27 28 30 25 3
27 6 27 48 -1 25 -5 72 -9 105 -5 33 -5 57 -2 53 4 -3 31 -51 60 -107z m-84
89 c0 -5 -8 -10 -17 -11 -15 0 -15 -2 2 -9 11 -5 15 -9 9 -9 -7 -1 -14 -12
-16 -26 -4 -18 -1 -25 11 -25 14 0 14 -2 1 -10 -13 -8 -12 -10 3 -10 19 0 24
-20 5 -20 -9 0 -8 -4 2 -10 13 -9 13 -11 0 -20 -12 -8 -12 -10 5 -10 19 -1 19
-1 2 -11 -10 -6 -22 -8 -25 -4 -4 4 -12 47 -17 96 -11 89 -11 89 12 89 13 0
23 -4 23 -10z m-1366 -16 c3 -9 6 -29 6 -44 0 -16 5 -32 10 -35 16 -10 12 -81
-5 -95 -13 -10 -15 -9 -15 11 l0 24 -13 -24 c-12 -24 -62 -49 -74 -37 -4 3 2
12 12 20 14 10 17 21 12 44 -9 43 1 64 25 56 17 -5 18 -2 12 45 -5 42 -4 51 9
51 8 0 18 -7 21 -16z m1246 6 c0 -5 -7 -10 -16 -10 -8 0 -12 5 -9 10 3 6 10
10 16 10 5 0 9 -4 9 -10z m-3 -26 c-3 -3 -12 -4 -19 -1 -8 3 -5 6 6 6 11 1 17
-2 13 -5z m655 -12 c24 3 51 8 61 12 12 6 17 4 17 -8 0 -9 11 -39 25 -66 29
-57 31 -78 10 -86 -11 -5 -15 -22 -15 -65 0 -46 -3 -59 -15 -59 -8 0 -15 9
-15 20 0 11 -4 20 -10 20 -5 0 -10 -6 -10 -14 0 -33 -20 -24 -38 17 -11 25
-24 47 -30 50 -13 9 -45 -29 -47 -56 -2 -20 -7 -22 -76 -24 -41 -1 -79 3 -86
8 -7 7 -14 6 -18 -1 -4 -7 -55 -10 -151 -9 -138 3 -144 4 -143 23 1 17 2 18 6
4 5 -19 23 -25 23 -9 0 19 41 23 54 5 9 -12 15 -14 20 -6 9 16 68 15 101 0 21
-9 31 -9 46 0 10 7 26 12 34 12 9 0 15 9 15 25 0 20 5 25 25 25 14 0 23 -5 21
-12 -1 -7 -1 -10 1 -5 6 10 53 9 53 -2 0 -5 -6 -12 -12 -14 -7 -3 -3 -6 10 -6
20 -1 22 3 22 53 0 34 5 56 13 59 6 3 2 6 -11 6 -34 1 -21 26 14 27 16 1 61 2
99 3 47 1 65 4 56 10 -12 8 -13 14 -3 35 14 31 2 35 -16 6 -10 -16 -23 -20
-66 -20 l-54 0 11 30 c8 22 14 27 24 19 7 -6 32 -9 55 -7z m-1062 -58 c-10
-18 -11 -30 -2 -49 17 -37 55 -33 81 10 11 17 12 15 7 -19 -6 -46 -11 -53 -30
-37 -9 7 -17 8 -20 2 -7 -10 -86 -3 -100 10 -5 4 -6 16 -2 26 6 15 8 15 16 3
7 -11 10 0 10 36 0 58 15 81 38 58 12 -13 13 -19 2 -40z m635 47 c3 -5 1 -12
-4 -15 -5 -3 -11 1 -15 9 -6 16 9 21 19 6z m-1018 -53 c6 -29 14 -63 18 -75
10 -32 -8 -29 -43 7 -37 36 -49 37 -64 6 -9 -22 -36 -42 -44 -33 -4 4 107 147
115 147 4 0 12 -24 18 -52z m790 46 c-3 -3 -12 -4 -19 -1 -8 3 -5 6 6 6 11 1
17 -2 13 -5z m-40 -36 c-3 -7 -5 -2 -5 12 0 14 2 19 5 13 2 -7 2 -19 0 -25z
m43 12 c0 -5 -4 -10 -10 -10 -5 0 -10 5 -10 10 0 6 5 10 10 10 6 0 10 -4 10
-10z m-66 -87 c7 -82 0 -104 -19 -60 -9 19 0 156 10 145 1 -2 6 -40 9 -85z
m-1267 20 c-3 -10 -5 -2 -5 17 0 19 2 27 5 18 2 -10 2 -26 0 -35z m163 30 c0
-10 -4 -24 -9 -32 -7 -11 -11 -10 -19 5 -5 11 -7 25 -5 32 7 18 33 14 33 -5z
m1466 -5 c3 -12 19 -42 34 -67 20 -35 25 -53 19 -69 -11 -28 -35 -19 -48 19
-5 16 -13 29 -17 29 -3 0 -3 -8 0 -17 4 -9 1 -20 -6 -25 -44 -27 -105 24 -86
72 l10 25 12 -28 c7 -15 15 -24 19 -21 4 4 13 2 20 -5 11 -8 18 -6 32 9 17 19
17 20 1 20 -9 0 -15 4 -12 9 3 5 -2 12 -12 16 -16 6 -16 7 2 21 19 14 19 14
-1 14 -33 0 -35 15 -3 17 22 2 31 -3 36 -19z m-794 -32 c3 -28 0 -36 -16 -40
-11 -3 -23 -3 -28 0 -13 8 -9 31 7 38 8 3 15 9 14 13 -3 19 2 34 10 29 5 -3
11 -21 13 -40z m495 29 c0 -8 -4 -15 -9 -15 -4 0 -8 7 -8 15 0 8 4 15 8 15 5
0 9 -7 9 -15z m-16 -25 c5 0 9 -4 9 -10 0 -5 -6 -10 -14 -10 -8 0 -17 -6 -19
-12 -3 -7 -6 -3 -6 9 -1 12 2 30 6 40 7 17 8 17 11 1 2 -10 8 -18 13 -18z
m-830 -33 c-13 -13 -26 -3 -16 12 3 6 11 8 17 5 6 -4 6 -10 -1 -17z m671 -17
c-1 -19 3 -37 10 -42 9 -7 7 -8 -6 -6 -21 3 -41 50 -32 74 11 28 31 9 28 -26z
m208 -6 c0 -27 -4 -43 -10 -39 -5 3 -10 24 -10 46 0 21 5 39 10 39 6 0 10 -21
10 -46z m-1223 10 c-3 -3 -12 -4 -19 -1 -8 3 -5 6 6 6 11 1 17 -2 13 -5z
m1193 -15 c0 -15 -5 -20 -22 -17 -12 2 -24 10 -26 18 -5 13 -3 13 11 1 14 -11
18 -11 23 3 8 22 14 20 14 -5z m-460 3 c0 -13 -23 -37 -52 -55 -25 -16 -28
-16 -28 -1 0 9 9 18 20 21 11 3 20 11 20 18 0 7 6 16 13 18 19 8 27 8 27 -1z
m615 -2 c-3 -5 -10 -10 -16 -10 -5 0 -9 5 -9 10 0 6 7 10 16 10 8 0 12 -4 9
-10z m348 3 c-7 -2 -21 -2 -30 0 -10 3 -4 5 12 5 17 0 24 -2 18 -5z m-1691
-35 c-4 -38 -22 -46 -89 -41 -69 6 -82 22 -32 40 17 7 28 17 24 23 -4 7 11 9
47 6 49 -4 53 -6 50 -28z m378 26 c34 -6 36 -8 32 -40 l-4 -34 -104 0 c-56 0
-105 4 -108 9 -3 5 10 23 29 40 37 32 74 38 155 25z m175 -24 c-22 -23 -26
-32 -17 -43 7 -8 9 -16 6 -20 -3 -3 4 -15 16 -27 18 -18 36 -23 92 -25 38 -2
72 -6 76 -9 3 -4 -3 -15 -14 -26 -17 -17 -37 -21 -154 -36 -13 -1 -30 -11 -37
-20 -7 -10 -13 -14 -13 -9 0 4 -8 -2 -19 -13 -10 -12 -28 -22 -40 -22 -20 0
-22 5 -20 38 2 20 7 43 12 50 5 6 6 12 2 12 -4 0 -2 7 5 15 9 10 9 15 1 15
-19 0 -12 25 11 35 32 15 36 37 5 30 -14 -4 -28 -2 -31 4 -4 7 1 11 14 11 27
0 70 22 94 49 11 12 24 21 29 21 6 0 -2 -13 -18 -30z m415 20 c0 -5 -4 -10
-10 -10 -5 0 -10 5 -10 10 0 6 5 10 10 10 6 0 10 -4 10 -10z m-300 -4 c0 -2
-9 -6 -20 -9 -11 -3 -20 -1 -20 4 0 5 9 9 20 9 11 0 20 -2 20 -4z m110 -31
c-19 -19 -40 -35 -47 -35 -8 0 2 16 21 35 20 19 41 35 48 35 6 0 -3 -16 -22
-35z m590 14 c0 -5 -7 -9 -15 -9 -15 0 -20 12 -9 23 8 8 24 -1 24 -14z m-554
-25 c-14 -15 -29 -24 -32 -21 -3 3 6 18 21 32 14 15 29 24 32 21 3 -3 -6 -18
-21 -32z m284 27 c0 -5 -7 -11 -15 -15 -15 -5 -20 5 -8 17 9 10 23 9 23 -2z
m490 -1 c0 -5 -4 -10 -10 -10 -5 0 -10 5 -10 10 0 6 5 10 10 10 6 0 10 -4 10
-10z m240 -16 c0 -8 -9 -14 -20 -14 -18 0 -19 3 -10 20 12 22 30 18 30 -6z
m-1100 1 c-7 -8 -17 -15 -23 -15 -6 0 -2 7 9 15 25 19 30 19 14 0z m258 -1
c21 -8 58 -14 87 -13 40 3 51 0 53 -14 3 -15 -8 -17 -107 -17 -61 0 -111 2
-111 4 0 16 21 56 30 56 6 0 27 -7 48 -16z m1003 -34 c5 0 9 -4 9 -10 0 -5 -9
-10 -20 -10 -14 0 -20 7 -20 23 0 31 14 45 18 18 2 -12 8 -21 13 -21z m-1101
10 c0 -5 -2 -10 -4 -10 -3 0 -8 5 -11 10 -3 6 -1 10 4 10 6 0 11 -4 11 -10z
m288 -7 c-10 -2 -18 -8 -18 -13 0 -5 8 -11 18 -13 13 -4 11 -5 -5 -6 -17 -1
-23 5 -23 19 0 14 6 20 23 19 16 -1 18 -2 5 -6z m667 -3 c4 -6 -5 -10 -20 -10
-15 0 -24 4 -20 10 3 6 12 10 20 10 8 0 17 -4 20 -10z m-978 -6 c-3 -3 -12 -4
-19 -1 -8 3 -5 6 6 6 11 1 17 -2 13 -5z m360 0 c-3 -3 -12 -4 -19 -1 -8 3 -5
6 6 6 11 1 17 -2 13 -5z m-1262 -14 c-8 -13 -115 -13 -115 0 0 6 27 10 61 10
37 0 58 -4 54 -10z m388 3 c89 -8 86 -24 -5 -23 -108 2 -188 11 -182 21 6 11
91 12 187 2z m765 -18 c-4 -15 -516 -11 -531 4 -8 8 62 10 261 8 175 -1 271
-6 270 -12z m120 3 c9 -9 20 -8 49 1 26 8 80 11 173 7 152 -5 170 -7 170 -18
0 -4 -97 -8 -215 -8 -184 0 -215 2 -215 15 0 18 21 20 38 3z m425 0 c18 15
329 0 335 -15 3 -10 -29 -13 -140 -13 -172 0 -218 6 -217 29 0 11 2 12 6 3 3
-8 9 -10 16 -4z m-1637 -12 c3 -8 -2 -29 -11 -46 -12 -24 -14 -35 -6 -43 16
-16 45 3 49 32 3 21 39 48 50 37 3 -3 0 -6 -7 -6 -9 0 -12 -9 -9 -25 4 -19 1
-25 -11 -25 -14 0 -17 -10 -15 -52 2 -59 12 -98 25 -98 5 0 9 -7 9 -15 0 -9 6
-15 13 -14 35 4 75 -3 93 -17 17 -14 12 -15 -66 -9 -46 4 -93 11 -102 16 -10
5 -25 34 -34 65 -11 39 -23 58 -39 66 -23 10 -23 12 -10 39 8 15 15 37 15 49
0 11 5 20 12 20 6 0 8 3 5 7 -8 7 11 33 25 33 5 0 11 -6 14 -14z m-76 -33 c0
-14 -13 -42 -30 -63 -36 -46 -37 -59 -5 -94 14 -16 25 -39 25 -55 0 -16 6 -33
13 -39 7 -6 69 -14 138 -17 68 -3 136 -8 152 -10 19 -3 27 0 27 10 0 20 -70
65 -102 65 -27 0 -50 17 -68 50 -13 23 0 33 33 24 14 -3 28 -1 31 5 4 7 -1 11
-13 11 -24 0 -28 18 -6 26 19 8 20 34 2 34 -9 0 -13 12 -12 38 l1 37 119 2
c176 2 169 5 161 -74 -10 -101 17 -116 115 -64 30 15 77 34 105 40 67 16 114
45 114 71 0 20 5 20 188 18 l187 -3 1 -35 c1 -54 3 -57 23 -63 30 -8 43 7 48
58 l6 47 361 -6 c199 -4 378 -9 399 -12 l37 -6 0 -64 0 -64 -29 0 c-17 0 -33
4 -36 10 -3 5 -16 10 -28 11 -17 1 -15 3 11 11 38 13 43 38 6 38 -26 0 -54
-20 -54 -39 0 -5 -10 -11 -22 -13 -30 -4 -34 -25 -7 -33 22 -7 22 -8 -7 -20
l-29 -13 30 -11 c26 -11 28 -14 13 -22 -19 -11 -25 -49 -8 -49 6 0 10 10 10
23 0 18 2 19 10 7 5 -8 10 -52 10 -97 0 -54 4 -83 11 -83 7 0 10 31 7 95 l-3
95 59 0 58 0 -4 -138 -5 -137 -204 1 c-554 1 -1840 15 -1886 20 l-53 6 0 247
c0 136 2 250 4 252 3 2 25 3 50 1 41 -4 46 -7 46 -29z m1230 -3 c0 -5 -7 -10
-15 -10 -8 0 -15 5 -15 10 0 6 7 10 15 10 8 0 15 -4 15 -10z m0 -50 c0 -5 -2
-10 -4 -10 -3 0 -8 5 -11 10 -3 6 -1 10 4 10 6 0 11 -4 11 -10z m815 -110 c0
-7 -6 -15 -12 -17 -8 -3 -13 4 -13 17 0 13 5 20 13 18 6 -3 12 -11 12 -18z
m-52 -17 c-13 -2 -33 -2 -45 0 -13 2 -3 4 22 4 25 0 35 -2 23 -4z m30 -20
c-13 -2 -33 -2 -45 0 -13 2 -3 4 22 4 25 0 35 -2 23 -4z"/>
<path d="M1694 3083 c-3 -16 -8 -34 -10 -42 -3 -11 -1 -11 9 -3 10 8 17 8 24
1 14 -14 36 -1 29 17 -3 7 -1 16 4 19 22 14 9 35 -20 35 -24 0 -31 -5 -36 -27z"/>
<path d="M1110 3410 c-13 -8 -12 -10 3 -10 9 0 17 5 17 10 0 12 -1 12 -20 0z"/>
<path d="M1440 2760 c0 -5 5 -10 11 -10 5 0 7 5 4 10 -3 6 -8 10 -11 10 -2 0
-4 -4 -4 -10z"/>
<path d="M1507 2359 c7 -7 15 -10 18 -7 3 3 -2 9 -12 12 -14 6 -15 5 -6 -5z"/>
<path d="M1265 2146 c17 -13 32 -22 35 -19 6 5 -41 42 -55 43 -5 0 4 -11 20
-24z"/>
<path d="M1370 2141 c0 -5 5 -13 10 -16 6 -3 10 -2 10 4 0 5 -4 13 -10 16 -5
3 -10 2 -10 -4z"/>
<path d="M979 2107 c-31 -25 -66 -77 -53 -77 5 0 17 14 26 30 9 16 32 39 50
50 18 11 26 20 18 20 -8 0 -27 -10 -41 -23z"/>
<path d="M900 1782 c0 -6 15 -21 33 -33 17 -13 35 -28 39 -34 5 -6 8 -6 8 2 0
8 7 10 17 6 14 -5 12 0 -6 26 -13 18 -26 30 -29 26 -3 -3 0 -11 6 -17 22 -22
12 -32 -10 -12 -43 37 -58 47 -58 36z"/>
<path d="M1364 2065 c-10 -8 -14 -15 -8 -15 5 0 19 7 30 15 10 8 14 15 8 15
-5 0 -19 -7 -30 -15z"/>
<path d="M1318 1956 c-22 -17 -23 -42 -2 -50 12 -5 15 -2 10 10 -3 8 -1 24 4
35 12 22 11 23 -12 5z"/>
<path d="M1346 1945 c-3 -9 -6 -26 -5 -38 1 -14 4 -9 9 13 9 37 7 52 -4 25z"/>
<path d="M1270 1928 c0 -15 25 -48 36 -48 5 0 -7 22 -26 50 -8 13 -10 13 -10
-2z"/>
<path d="M1530 1843 c0 -7 7 -13 15 -13 8 0 15 6 15 13 0 8 -7 14 -15 14 -8 0
-15 -6 -15 -14z"/>
<path d="M790 1696 c0 -2 7 -7 16 -10 8 -3 12 -2 9 4 -6 10 -25 14 -25 6z"/>
<path d="M825 1650 c-8 -25 3 -118 15 -125 8 -5 2 134 -5 143 -2 2 -6 -6 -10
-18z"/>
<path d="M750 1274 c0 -5 12 -18 27 -28 16 -12 24 -14 21 -6 -5 16 -48 46 -48
34z"/>
<path d="M2080 751 c0 -5 9 -7 20 -4 11 3 20 7 20 9 0 2 -9 4 -20 4 -11 0 -20
-4 -20 -9z"/>
<path d="M2026 742 c7 -4 14 -16 17 -27 4 -15 5 -14 6 8 1 20 -4 27 -16 27
-12 0 -14 -3 -7 -8z"/>
<path d="M1938 733 c7 -3 16 -2 19 1 4 3 -2 6 -13 5 -11 0 -14 -3 -6 -6z"/>
<path d="M2105 720 c3 -5 8 -10 11 -10 2 0 4 5 4 10 0 6 -5 10 -11 10 -5 0 -7
-4 -4 -10z"/>
<path d="M2080 702 c0 -5 7 -13 16 -16 10 -4 14 -1 12 6 -5 15 -28 23 -28 10z"/>
<path d="M2042 655 c0 -16 2 -22 5 -12 2 9 2 23 0 30 -3 6 -5 -1 -5 -18z"/>
<path d="M2085 271 c-6 -11 9 -23 19 -14 9 9 7 23 -3 23 -6 0 -12 -4 -16 -9z"/>
</g>
</svg>
