<?xml version="1.0" standalone="no"?>
<!DOCTYPE svg PUBLIC "-//W3C//DTD SVG 20010904//EN"
 "http://www.w3.org/TR/2001/REC-SVG-20010904/DTD/svg10.dtd">
<svg version="1.0" xmlns="http://www.w3.org/2000/svg"
 width="217.000000pt" height="372.000000pt" viewBox="0 0 217.000000 372.000000"
 preserveAspectRatio="xMidYMid meet">
<metadata>
Created by potrace 1.16, written by Peter Selinger 2001-2019
</metadata>
<g transform="translate(0.000000,372.000000) scale(0.100000,-0.100000)"
fill="#000000" stroke="none">
<path d="M78 3702 c-18 -2 -28 -9 -29 -20 0 -9 0 -834 1 -1832 1 -1163 5
-1819 11 -1825 9 -9 1967 -15 2059 -7 l35 4 0 1835 0 1836 -24 8 c-21 8 -1987
9 -2053 1z m507 -22 c549 3 1527 1 1532 -3 2 -2 3 -386 2 -853 -1 -467 -1
-1041 0 -1276 2 -252 -1 -428 -7 -428 -5 0 -17 9 -27 20 -25 28 -49 25 -78
-10 -14 -16 -32 -30 -39 -30 -8 0 -31 18 -52 39 -52 53 -70 56 -104 18 -103
-116 -132 -142 -142 -127 -5 8 -10 54 -10 103 0 86 0 87 24 87 27 0 42 15 26
25 -7 4 -8 11 -2 18 13 17 20 77 9 77 -12 0 -46 -41 -49 -60 -1 -8 -5 62 -8
155 -5 154 -5 752 1 783 1 6 9 12 16 12 15 0 12 19 -12 75 -13 28 -21 168 -17
283 2 39 6 52 17 52 8 0 15 5 15 10 0 7 6 7 19 0 27 -14 31 -13 31 10 0 11 -4
20 -8 20 -5 0 -17 6 -28 14 -18 14 -18 15 9 25 30 12 34 25 12 47 -8 8 -11 22
-8 32 6 15 4 15 -15 -2 -11 -10 -22 -27 -24 -39 -2 -11 -8 -22 -14 -24 -7 -2
-14 25 -18 77 -7 72 -5 83 10 95 15 11 18 26 16 85 -1 40 -8 94 -16 121 -9 29
-12 59 -7 76 8 28 8 28 15 5 12 -37 31 -19 34 34 2 26 8 54 14 61 8 10 6 13
-5 13 -8 0 -22 -11 -31 -25 -26 -40 -39 -21 -31 49 8 77 1 96 -35 96 -19 0
-37 -10 -55 -31 -23 -28 -25 -37 -19 -78 6 -40 5 -44 -8 -33 -9 7 -13 22 -10
37 3 17 0 25 -10 25 -8 0 -19 20 -27 46 -16 53 -32 47 -35 -15 -1 -23 -7 -46
-14 -53 -7 -7 -12 -21 -12 -31 0 -14 4 -17 18 -12 36 15 52 17 52 7 0 -6 -4
-14 -10 -17 -5 -3 -10 -13 -10 -22 0 -12 7 -14 35 -9 19 4 35 6 35 4 1 -2 5
-77 10 -167 8 -161 8 -165 -15 -201 -12 -19 -38 -47 -56 -62 -19 -14 -45 -43
-59 -65 -19 -31 -31 -40 -55 -41 -16 -1 -41 -2 -54 -3 -15 0 -32 9 -45 25 -14
17 -39 30 -75 39 -41 9 -56 18 -67 40 -8 15 -22 27 -31 27 -15 0 -15 -1 0 -18
21 -23 22 -52 2 -52 -8 0 -15 -4 -15 -9 0 -5 28 -9 63 -9 59 1 107 -13 107
-31 0 -5 16 -26 36 -47 34 -38 36 -38 50 -20 8 11 14 22 14 26 0 3 9 6 20 6
18 0 20 -7 21 -91 0 -49 4 -127 8 -173 7 -85 2 -103 -18 -78 -9 11 -9 15 1 18
11 4 11 8 0 20 -7 9 -10 23 -6 32 3 9 0 24 -7 32 -9 11 -14 46 -15 98 l-1 81
-42 10 c-23 5 -42 14 -41 19 0 6 -5 11 -12 12 -223 47 -293 41 -381 -32 -51
-43 -53 -25 -3 21 50 46 54 57 11 29 -13 -9 -30 -14 -36 -12 -22 7 124 96 178
108 56 13 76 36 42 49 -20 7 -20 8 -4 24 9 9 20 17 25 17 17 0 21 40 6 62 -9
12 -16 35 -16 51 0 21 -8 32 -30 45 -33 19 -39 37 -15 46 8 3 20 17 27 30 14
33 -3 56 -43 56 -27 0 -34 8 -30 38 1 6 -3 12 -9 12 -7 0 -9 12 -5 33 4 21 0
44 -12 67 -15 29 -26 37 -67 47 -28 7 -52 10 -55 8 -2 -3 5 -15 17 -28 14 -15
22 -36 22 -58 0 -19 5 -40 12 -47 9 -9 7 -12 -11 -12 -13 0 -54 -9 -92 -21
-76 -23 -111 -56 -123 -115 -4 -17 -20 -40 -36 -53 -38 -27 -40 -64 -5 -87 14
-9 35 -14 46 -11 16 4 23 0 27 -15 5 -19 6 -20 18 -4 11 16 13 16 19 -3 3 -12
11 -21 17 -21 6 0 8 -3 5 -6 -4 -4 -13 -1 -21 5 -9 7 -17 8 -20 2 -8 -13 11
-61 24 -61 6 0 8 -5 5 -10 -9 -15 13 -40 35 -40 43 0 26 -59 -31 -107 -27 -23
-38 -68 -44 -183 -2 -30 -8 -154 -13 -275 -6 -121 -15 -292 -21 -380 -6 -88
-13 -232 -16 -320 -3 -88 -8 -220 -11 -293 l-6 -132 31 -27 c17 -15 31 -37 31
-50 0 -13 8 -24 21 -28 15 -5 19 -14 17 -33 -3 -23 -9 -28 -43 -34 -36 -7
-605 -11 -611 -5 -2 1 -4 626 -6 1389 l-3 1387 60 4 c33 1 67 1 75 -1 8 -2
182 -3 385 -2z m1018 -295 c-24 -17 -21 -42 4 -47 14 -3 14 -4 0 -17 -15 -12
-17 -11 -17 3 0 18 -15 22 -25 6 -11 -19 -25 -10 -25 15 0 19 5 25 18 23 11
-2 16 3 14 15 -2 13 4 17 25 17 27 0 27 0 6 -15z m-671 -87 c7 -13 13 -43 14
-68 0 -25 4 -53 9 -63 6 -14 1 -13 -19 6 -27 25 -34 47 -16 47 6 0 8 11 5 25
-3 14 -7 36 -10 50 -7 31 0 32 17 3z m525 6 c-3 -3 -12 -4 -19 -1 -8 3 -5 6 6
6 11 1 17 -2 13 -5z m120 -40 c12 5 12 -14 -2 -60 -2 -6 0 -28 5 -47 5 -26 4
-40 -5 -47 -14 -11 -17 3 -28 145 -4 41 -3 46 6 27 6 -13 16 -21 24 -18z
m-680 -11 c-3 -10 -5 -4 -5 12 0 17 2 24 5 18 2 -7 2 -21 0 -30z m0 -75 c11
-18 12 -68 2 -68 -5 0 -9 -8 -9 -19 0 -18 -59 -50 -123 -66 -22 -6 -26 -4 -21
9 3 9 1 16 -6 16 -6 0 -10 8 -8 18 2 9 -3 22 -11 28 -13 10 -13 14 -1 29 8 10
14 20 12 23 -5 8 90 39 125 41 17 0 35 -5 40 -11z m732 -82 c7 -8 14 -47 16
-88 2 -40 1 -61 -1 -46 -5 27 -6 27 -32 11 l-27 -17 29 32 c33 36 29 41 -12
15 l-27 -17 29 32 c16 17 27 34 24 38 -4 3 -22 -12 -42 -33 -19 -21 -36 -35
-36 -31 0 5 16 26 36 48 42 46 38 64 -6 31 -35 -25 -39 -17 -8 16 25 26 41 29
57 9z m-609 -11 c-7 -9 -15 -13 -17 -11 -7 7 7 26 19 26 6 0 6 -6 -2 -15z
m-69 -14 c-7 -5 -11 -13 -8 -18 9 -14 -114 -81 -180 -98 -61 -16 -107 -18
-136 -6 -17 6 -16 8 8 19 14 7 31 10 36 7 5 -4 9 -1 9 4 0 6 11 11 25 11 28 0
202 67 211 81 3 5 15 9 27 9 16 0 19 -3 8 -9z m88 -74 c8 -11 9 -22 1 -41 -13
-36 -13 -36 9 -36 15 0 39 -29 29 -34 -2 -1 -15 -8 -31 -16 -16 -8 -30 -25
-33 -39 -3 -14 -7 -32 -10 -38 -4 -14 -61 -18 -89 -7 -15 6 -15 8 1 25 26 28
28 122 3 153 l-20 25 32 16 c30 16 31 16 24 -5 -6 -18 -3 -21 12 -18 10 2 18
10 19 18 1 8 2 19 2 23 2 10 35 -7 51 -26z m-144 -39 c14 -6 25 -16 25 -22 0
-6 -5 -5 -12 2 -7 7 -20 12 -30 12 -10 0 -18 5 -18 10 0 13 3 13 35 -2z m-69
-35 c-7 -7 -26 7 -26 19 0 6 6 6 15 -2 9 -7 13 -15 11 -17z m804 17 c0 -5 -4
-10 -10 -10 -5 0 -6 -8 -3 -17 6 -16 5 -16 -11 -4 -15 13 -19 13 -26 1 -11
-18 6 -50 27 -50 11 0 13 -3 5 -12 -16 -21 -9 -102 11 -122 21 -22 14 -35 -8
-16 -21 17 -31 5 -14 -16 11 -13 11 -18 2 -21 -18 -6 -16 -23 2 -23 8 0 15 7
15 15 0 8 4 15 8 15 11 0 3 -58 -9 -66 -12 -7 -11 -64 1 -64 13 0 10 -110 -3
-127 -6 -9 -5 -13 4 -13 8 0 5 -6 -6 -14 -19 -14 -19 -15 -1 -35 21 -23 10
-29 -16 -8 -13 10 -17 44 -22 192 -4 99 -9 210 -12 247 -3 37 -3 85 1 107 6
39 9 41 58 50 4 0 7 -3 7 -9z m-771 -64 c7 -8 10 -20 6 -26 -8 -14 -26 -13
-22 2 1 6 -14 22 -33 35 -19 13 -36 28 -38 33 -5 13 72 -26 87 -44z m45 46 c2
-4 1 -14 -5 -22 -7 -12 -9 -12 -9 -1 0 7 -6 11 -14 8 -10 -4 -13 -1 -9 9 6 15
29 19 37 6z m-144 -12 c0 -5 -2 -10 -4 -10 -3 0 -8 5 -11 10 -3 6 -1 10 4 10
6 0 11 -4 11 -10z m160 -59 c0 -18 -18 -41 -32 -41 -5 0 -4 8 1 19 6 10 8 21
5 24 -9 9 6 28 17 22 5 -4 9 -14 9 -24z m-120 -14 c0 -34 -15 -51 -36 -42 -13
5 -15 9 -6 12 18 7 15 31 -5 36 -14 4 -12 5 5 6 12 0 22 6 22 12 0 5 5 7 10 4
6 -3 10 -16 10 -28z m749 -84 c1 -36 -3 -63 -9 -63 -5 0 -10 -7 -10 -15 0 -18
-12 -19 -28 -3 -9 9 -13 7 -17 -8 -4 -10 -11 -27 -16 -36 -5 -10 -6 -25 -3
-35 5 -15 4 -16 -5 -3 -6 8 -11 45 -11 81 0 61 3 69 40 119 22 29 40 58 41 64
3 32 17 -48 18 -101z m-679 36 c0 -5 -7 -9 -15 -9 -15 0 -20 12 -9 23 8 8 24
-1 24 -14z m-26 -28 c3 -5 -1 -11 -9 -15 -15 -6 -29 7 -18 18 9 9 21 8 27 -3z
m86 0 c0 -5 -9 -7 -20 -4 -11 3 -20 7 -20 9 0 2 9 4 20 4 11 0 20 -4 20 -9z
m505 -183 c4 -62 5 -150 4 -195 -3 -49 0 -83 6 -85 6 -2 12 43 16 112 4 63 7
116 8 116 0 1 8 4 16 7 11 5 13 0 8 -23 -3 -18 -1 -30 5 -30 6 0 15 24 21 53
10 52 10 51 6 -24 -2 -51 -12 -97 -28 -137 -16 -41 -21 -64 -14 -71 7 -7 2
-12 -14 -15 -113 -24 -126 -25 -174 -11 -64 20 -72 19 -44 -5 20 -16 21 -19 7
-20 -10 0 -18 -4 -18 -10 0 -5 8 -14 18 -19 9 -6 13 -11 8 -11 -6 0 -20 10
-33 22 -15 14 -23 17 -23 8 0 -19 30 -50 48 -50 13 0 12 -3 -3 -14 -18 -13
-18 -14 3 -27 27 -17 29 -29 2 -22 -10 3 -22 14 -25 24 -4 13 -16 19 -36 19
-32 0 -39 -15 -11 -24 11 -3 8 -5 -8 -4 -50 1 -52 -1 -46 -27 4 -14 2 -25 -4
-25 -5 0 -10 11 -10 25 0 32 -27 33 -40 3 l-9 -23 0 23 c-1 28 -31 30 -38 2
-6 -24 -12 -24 -38 -4 -19 14 -19 16 -2 28 9 7 17 19 17 26 0 9 5 9 22 -2 19
-13 25 -12 57 4 31 16 36 17 39 3 2 -8 7 -15 12 -15 11 0 22 29 15 40 -3 5 3
14 14 20 31 16 44 46 31 70 -6 11 -16 20 -23 20 -7 0 -18 9 -25 20 -7 11 -10
20 -7 20 15 0 146 -40 165 -50 12 -6 25 -9 28 -5 12 12 -27 32 -95 49 -80 20
-139 50 -156 77 -17 29 -71 49 -131 49 l-51 1 29 16 c23 12 51 14 135 11 141
-7 199 -27 247 -85 20 -24 34 -46 31 -49 -3 -3 -29 7 -59 21 -29 15 -79 40
-110 56 -56 28 -126 40 -113 19 3 -5 17 -10 30 -10 31 0 104 -28 130 -50 11
-9 45 -29 76 -43 36 -17 61 -37 69 -54 11 -23 14 -25 17 -10 3 9 9 14 15 11 7
-5 8 48 3 168 -7 167 -4 218 15 218 4 0 11 -51 15 -112z m-360 82 c-3 -5 -14
-10 -23 -10 -68 -2 -155 -71 -197 -155 -27 -56 -46 -121 -37 -129 12 -12 23
-5 18 12 -3 9 -1 24 4 32 7 11 10 2 10 -32 0 -27 -4 -48 -9 -48 -30 0 -47
-146 -22 -193 10 -18 10 -30 2 -43 -10 -18 -10 -18 -11 1 0 18 -2 18 -20 -5
-24 -32 -36 -20 -20 20 7 17 10 34 6 37 -13 13 -27 -15 -29 -58 -2 -49 18 -63
48 -32 18 17 18 17 11 -12 -4 -17 -19 -54 -34 -84 l-27 -55 -7 65 c-4 35 -5
103 -1 152 5 72 8 84 18 71 16 -23 29 -1 15 26 -8 15 -7 26 3 42 16 26 12 192
-4 182 -15 -9 -11 3 22 58 49 85 98 129 168 154 43 16 125 18 116 4z m-255
-13 c0 -2 -10 -12 -21 -23 -22 -19 -22 -19 -10 4 10 18 31 31 31 19z m345 -17
c-3 -5 -36 -10 -73 -10 -50 0 -76 -5 -100 -20 -22 -13 -32 -16 -30 -8 2 7 27
21 54 30 54 19 159 24 149 8z m352 -26 c-8 -16 -17 -23 -21 -16 -4 6 1 20 11
30 24 25 28 20 10 -14z m-390 0 c-3 -3 -12 -4 -19 -1 -8 3 -5 6 6 6 11 1 17
-2 13 -5z m189 -2 c6 -4 10 -31 10 -60 0 -36 -3 -49 -10 -42 -6 6 -9 26 -7 45
1 19 -1 35 -6 35 -5 0 -18 7 -29 15 -18 14 -18 14 6 15 14 0 30 -4 36 -8z
m-269 -8 c-3 -3 -12 -4 -19 -1 -8 3 -5 6 6 6 11 1 17 -2 13 -5z m195 -17 c45
-12 46 -12 23 -23 -19 -9 -27 -9 -36 2 -6 8 -30 14 -53 14 -22 0 -48 5 -56 10
-22 14 64 12 122 -3z m-307 -17 c-3 -5 -16 -15 -28 -21 -22 -12 -22 -12 -3 10
19 21 43 30 31 11z m303 -41 c29 -36 46 -37 40 -4 -3 14 -1 25 3 25 5 0 9 -11
9 -24 0 -13 7 -26 15 -30 8 -3 15 -15 15 -26 0 -11 6 -23 14 -26 8 -3 17 -12
20 -20 8 -21 -12 -7 -46 31 -41 47 -124 68 -270 69 -64 1 -120 4 -124 9 -4 4
6 7 22 8 16 0 49 7 74 14 29 9 73 12 125 8 74 -4 82 -7 103 -34z m309 -187
c-29 -22 -35 -10 -22 43 7 28 17 82 21 120 l9 70 5 -110 c4 -97 3 -112 -13
-123z m-669 123 c-29 -15 -32 -12 -18 15 9 17 14 19 26 9 12 -10 11 -14 -8
-24z m118 -5 c8 0 14 -8 13 -17 0 -11 -3 -13 -6 -5 -2 6 -16 12 -29 12 -19 0
-24 -5 -22 -17 1 -10 -2 -20 -7 -23 -6 -3 -12 6 -13 19 -4 26 15 44 36 36 8
-3 20 -5 28 -5z m-96 -64 c0 -30 5 -98 10 -152 20 -192 11 -995 -11 -1019 -16
-17 -32 10 -20 34 6 11 9 31 6 43 -3 13 -7 163 -10 333 -3 171 -7 419 -10 553
-3 134 -3 247 0 252 4 6 13 10 21 10 10 0 14 -14 14 -54z m105 14 c-3 -5 -13
-10 -21 -10 -8 0 -12 5 -9 10 3 6 13 10 21 10 8 0 12 -4 9 -10z m73 -7 c2 -8
-7 -14 -25 -14 -28 -2 -28 -2 -2 -6 l26 -4 -28 -30 c-26 -28 -30 -29 -45 -15
-8 9 -20 16 -26 16 -5 0 5 15 24 34 33 34 68 42 76 19z m26 -38 c-4 -9 1 -18
11 -21 9 -4 28 -17 42 -30 20 -19 23 -26 13 -43 -6 -12 -17 -21 -25 -21 -13 0
-13 3 -3 20 7 10 9 23 5 27 -5 4 -11 3 -15 -3 -13 -20 -49 -26 -56 -9 -3 8 -2
15 2 15 5 0 17 7 28 16 18 15 18 15 -8 9 -16 -3 -28 -1 -28 5 0 5 5 10 10 10
6 0 10 9 10 20 0 11 4 20 10 20 5 0 7 -7 4 -15z m532 -40 c18 -14 17 -14 -9
-3 -21 9 -30 9 -39 0 -9 -9 -8 -12 6 -12 20 0 76 -30 76 -41 0 -4 -14 -1 -30
8 -17 8 -38 12 -48 8 -13 -6 -9 -10 18 -18 l35 -11 -35 -6 c-20 -4 -26 -8 -15
-9 27 -3 -62 -31 -97 -31 -25 0 -28 4 -28 34 0 30 6 38 48 64 53 34 89 39 118
17z m-671 -5 c-3 -5 -10 -10 -16 -10 -5 0 -9 5 -9 10 0 6 7 10 16 10 8 0 12
-4 9 -10z m55 -33 c0 -8 17 -30 37 -50 36 -37 36 -37 11 -37 -19 0 -29 8 -38
29 -6 16 -18 32 -26 35 -7 3 -11 12 -8 21 7 19 24 20 24 2z m385 -27 c3 -5 -1
-10 -10 -10 -9 0 -13 5 -10 10 3 6 8 10 10 10 2 0 7 -4 10 -10z m45 -17 c0
-20 -3 -24 -11 -16 -7 7 -9 19 -6 27 10 24 17 19 17 -11z m-110 -23 c-6 -12
-14 -20 -17 -17 -2 3 1 14 8 26 7 11 15 18 17 16 2 -2 -2 -13 -8 -25z m58 4
c5 3 17 -5 26 -18 15 -24 15 -25 -11 -28 -19 -2 -29 -10 -33 -28 -5 -21 -7
-18 -12 19 -7 48 0 81 12 61 4 -7 12 -10 18 -6z m167 -236 c5 -444 6 -840 1
-846 -3 -3 -6 1 -6 10 0 23 -39 55 -49 40 -5 -9 -12 -7 -26 8 -27 30 -39 25
-86 -30 -23 -27 -46 -50 -50 -50 -9 0 -5 62 13 215 6 50 10 98 10 108 -1 12 7
17 24 17 39 0 64 18 64 45 0 14 5 25 11 25 12 0 10 20 -14 114 -10 40 -12 68
-6 90 5 17 9 49 9 71 0 22 7 58 15 80 17 47 21 300 5 290 -6 -4 -10 -54 -10
-118 0 -62 -5 -130 -12 -152 l-11 -40 -8 29 c-6 21 -3 40 8 63 12 26 14 49 9
97 -3 34 -3 77 0 94 6 28 13 34 53 46 25 7 47 12 49 11 2 -2 5 -99 7 -217z
m61 190 c-1 -18 -5 -36 -11 -40 -6 -5 -4 -12 5 -18 8 -5 10 -10 4 -10 -6 0
-10 -10 -8 -22 1 -13 3 -23 4 -23 8 0 3 -122 -5 -128 -7 -6 -6 -10 3 -14 10
-4 9 -8 -5 -19 -17 -13 -17 -13 2 -14 19 -1 19 -1 3 -14 -10 -7 -18 -16 -18
-20 0 -3 8 -7 18 -7 16 -1 16 -2 0 -6 -21 -5 -24 -23 -4 -23 11 0 13 -18 10
-85 -2 -48 -6 -90 -9 -95 -3 -4 1 -10 7 -13 10 -3 10 -7 1 -19 -7 -8 -10 -18
-6 -21 3 -4 6 -20 5 -37 0 -17 5 -30 11 -30 7 -1 6 -5 -3 -13 -17 -13 -17 -70
0 -75 14 -5 13 -29 -2 -35 -10 -4 -10 -8 1 -15 9 -7 10 -11 2 -17 -9 -5 -9
-10 -1 -20 8 -9 4 -17 -15 -29 l-25 -17 0 268 c-1 147 -1 322 -2 388 -1 236 0
255 20 255 14 0 18 -8 18 -32z m-326 -2 c0 -3 -4 -8 -10 -11 -5 -3 -10 -1 -10
4 0 6 5 11 10 11 6 0 10 -2 10 -4z m44 -21 c3 -8 1 -15 -4 -15 -6 0 -10 7 -10
15 0 8 2 15 4 15 2 0 6 -7 10 -15z m-374 -36 c0 -5 -7 -6 -15 -3 -8 4 -15 13
-15 21 0 13 3 13 15 3 8 -7 15 -16 15 -21z m215 1 c3 -5 -1 -10 -10 -10 -9 0
-13 5 -10 10 3 6 8 10 10 10 2 0 7 -4 10 -10z m201 -25 c-8 -8 -18 -15 -22
-15 -3 0 -1 7 6 15 7 8 17 15 22 15 5 0 3 -7 -6 -15z m-371 -5 c3 -5 1 -10 -4
-10 -6 0 -11 5 -11 10 0 6 2 10 4 10 3 0 8 -4 11 -10z m-45 -21 c0 -4 -7 -6
-15 -3 -8 4 -15 10 -15 15 0 4 7 6 15 3 8 -4 15 -10 15 -15z m150 -4 c0 -3 -9
-5 -20 -5 -11 0 -20 7 -20 15 0 13 4 14 20 5 11 -6 20 -13 20 -15z m165 5 c-3
-5 -13 -10 -21 -10 -8 0 -12 5 -9 10 3 6 13 10 21 10 8 0 12 -4 9 -10z m42
-30 c5 -22 7 -40 3 -40 -4 0 -12 18 -18 40 -5 22 -7 40 -3 40 4 0 12 -18 18
-40z m92 2 c0 -24 -1 -25 -9 -7 -12 28 -12 47 0 40 6 -3 10 -18 9 -33z m-162
-10 c30 4 36 1 44 -20 5 -14 8 -26 7 -26 -2 -1 -15 -10 -30 -19 -35 -22 -36
-22 -30 8 4 25 -3 30 -32 19 -13 -5 -12 -10 5 -40 10 -19 19 -43 19 -53 0 -11
15 -35 34 -54 23 -24 31 -38 24 -45 -14 -14 -1 -32 23 -32 18 0 20 5 15 38 -4
23 -3 32 3 22 5 -8 14 -57 21 -107 11 -76 10 -95 0 -108 -12 -14 -15 -12 -24
17 -9 26 -17 33 -36 33 -25 0 -27 -5 -15 -37 4 -11 3 -18 -4 -18 -6 0 -11 7
-11 16 0 12 -6 15 -27 10 l-28 -6 28 21 c22 17 39 59 22 59 -9 0 -78 -77 -93
-105 l-17 -30 -5 55 c-5 54 -4 55 22 60 59 11 86 68 58 121 -8 15 -7 19 5 19
31 0 8 42 -26 47 -15 2 -29 -4 -40 -18 -9 -12 -21 -19 -28 -15 -17 11 -13 44
9 66 11 11 20 33 20 49 0 15 -9 40 -20 54 -26 33 -26 35 13 45 26 7 34 5 46
-11 10 -14 22 -18 48 -15z m-417 13 c0 -8 -4 -15 -10 -15 -5 0 -7 7 -4 15 4 8
8 15 10 15 2 0 4 -7 4 -15z m239 -5 c3 0 -4 -7 -15 -15 -18 -14 -18 -14 6 -15
25 -1 25 -1 2 -10 -20 -8 -22 -15 -18 -61 2 -28 8 -54 14 -58 5 -3 12 -59 16
-124 7 -104 5 -121 -9 -137 -17 -18 -12 -46 5 -35 16 10 23 -45 10 -71 -12
-21 -11 -27 5 -45 16 -17 17 -22 5 -29 -8 -6 -25 -10 -37 -10 -20 0 -23 5 -23
34 0 19 5 38 10 41 15 9 12 71 -3 84 -10 8 -13 32 -9 93 2 46 8 88 12 93 19
24 15 85 -6 85 -14 0 -15 12 -10 93 6 81 5 90 -7 74 -13 -16 -15 -16 -21 -1
-10 26 2 33 37 23 17 -5 34 -9 36 -9z m61 -66 c0 -14 -4 -23 -9 -20 -5 3 -7
15 -4 26 7 28 13 25 13 -6z m280 -4 c0 -31 -17 -32 -22 -1 -3 21 -1 28 9 24 7
-3 13 -13 13 -23z m-400 -24 c0 -30 -5 -46 -15 -50 -24 -9 -28 19 -10 58 10
20 19 36 21 36 2 0 4 -20 4 -44z m-212 -191 c-35 -478 -35 -475 23 -475 18 0
28 -4 24 -10 -4 -6 -15 -8 -24 -5 -16 5 -19 -4 -24 -77 -10 -127 -8 -306 3
-313 15 -9 12 -47 -2 -43 -7 3 -13 15 -13 29 0 17 -6 25 -22 27 -21 3 -23 9
-23 56 0 29 3 56 7 60 11 10 11 150 1 163 -6 8 -5 63 2 150 18 208 25 543 11
543 -7 0 -11 -37 -11 -115 0 -64 -7 -209 -15 -324 -9 -115 -13 -252 -11 -305
4 -87 -5 -132 -18 -89 -9 29 -5 255 5 295 5 20 10 158 10 307 1 151 5 271 10
271 5 0 9 -4 9 -10 0 -5 5 -10 10 -10 6 0 10 9 10 21 0 11 8 34 18 51 l17 30
5 -69 c3 -37 2 -108 -2 -158z m160 203 c-6 -18 -28 -21 -28 -4 0 9 7 16 16 16
9 0 14 -5 12 -12z m352 -63 c-7 -8 -16 -15 -21 -15 -5 0 -9 7 -9 15 0 9 9 15
21 15 18 0 19 -2 9 -15z m100 -16 c0 -11 -4 -17 -10 -14 -5 3 -10 13 -10 21 0
8 5 14 10 14 6 0 10 -9 10 -21z m-300 -36 c0 -12 -4 -25 -10 -28 -6 -4 -10 11
-10 37 0 31 3 39 10 28 5 -8 10 -25 10 -37z m270 7 c0 -5 -2 -10 -4 -10 -3 0
-8 5 -11 10 -3 6 -1 10 4 10 6 0 11 -4 11 -10z m-223 -60 c1 -11 -2 -20 -8
-20 -10 0 -12 23 -2 33 9 9 9 10 10 -13z m-57 -16 c0 -8 -5 -12 -10 -9 -6 4
-8 11 -5 16 9 14 15 11 15 -7z m89 -36 c-9 -16 -14 -19 -17 -9 -2 7 2 17 9 22
20 13 21 11 8 -13z m-52 -20 c-3 -7 -5 -2 -5 12 0 14 2 19 5 13 2 -7 2 -19 0
-25z m-127 -23 c0 -44 -1 -45 -32 -45 -32 0 -32 0 -10 16 25 17 29 34 8 34 -9
0 -12 7 -9 20 3 11 14 20 24 20 16 0 19 -8 19 -45z m-172 -170 c-1 -77 2 -155
6 -172 7 -29 5 -33 -13 -33 -31 0 -36 37 -22 174 6 67 12 148 12 181 1 54 2
57 9 25 5 -19 8 -98 8 -175z m112 166 c0 -6 -4 -13 -10 -16 -5 -3 -10 1 -10 9
0 9 5 16 10 16 6 0 10 -4 10 -9z m168 -42 c4 -54 -15 -42 -25 16 -5 30 -3 37
8 33 8 -3 15 -22 17 -49z m296 -90 c9 -33 14 -64 11 -70 -7 -11 -26 -12 -23
-1 3 9 -12 100 -19 118 -3 8 -1 14 4 14 5 0 17 -27 27 -61z m-404 35 c0 -13
-3 -14 -15 -4 -12 10 -16 9 -21 -4 -9 -23 -23 -20 -17 4 7 25 53 28 53 4z
m253 -8 c18 5 20 4 9 -7 -14 -15 -43 -3 -49 22 -3 8 1 6 7 -4 8 -12 18 -16 33
-11z m-579 -249 c-6 -225 -9 -255 -22 -245 -12 11 -14 31 -8 118 4 58 9 150
12 205 13 286 26 232 18 -78z m690 221 c11 -41 6 -53 -27 -72 -44 -26 -53 -29
-124 -30 -42 -1 -63 3 -63 11 0 6 -3 19 -6 28 -5 13 -2 15 18 10 23 -6 25 -4
20 21 -4 24 -2 26 14 20 10 -5 27 -11 36 -13 19 -6 108 27 108 40 0 17 18 5
24 -15z m-374 2 c0 -5 -15 -9 -32 -9 l-33 1 30 8 c17 4 31 8 33 9 1 0 2 -3 2
-9z m157 -27 c-3 -10 -5 -4 -5 12 0 17 2 24 5 18 2 -7 2 -21 0 -30z m-147 -7
c0 -3 -4 -8 -10 -11 -5 -3 -10 -1 -10 4 0 6 5 11 10 11 6 0 10 -2 10 -4z m-2
-68 c-5 -32 -28 -35 -28 -4 0 17 5 26 16 26 10 0 14 -7 12 -22z m-68 2 c0 -5
-4 -10 -10 -10 -5 0 -10 5 -10 10 0 6 5 10 10 10 6 0 10 -4 10 -10z m200 -5
c0 -8 -4 -15 -9 -15 -5 0 -11 7 -15 15 -3 9 0 15 9 15 8 0 15 -7 15 -15z m196
-47 c-3 -24 -10 -97 -16 -163 -12 -149 -57 -365 -79 -383 -10 -8 -36 -12 -66
-10 l-50 3 -3 43 c-2 30 4 58 22 95 28 59 45 134 28 123 -12 -7 -16 3 -37 102
-13 64 -13 79 0 130 18 69 43 93 88 85 18 -2 48 0 67 5 53 15 53 15 46 -30z
m-206 1 c0 -4 -9 -35 -19 -70 -28 -91 -51 -207 -51 -257 0 -24 -6 -55 -14 -70
-7 -15 -19 -53 -26 -84 -15 -67 -26 -71 -96 -37 -47 22 -63 51 -43 76 9 10 15
54 17 122 2 58 9 112 15 120 8 9 11 49 9 110 l-4 96 106 1 c58 0 106 -3 106
-7z m500 -154 c0 -7 -6 -16 -12 -19 -10 -5 -10 -7 1 -12 11 -5 11 -8 0 -15
-11 -7 -11 -11 -2 -17 9 -5 14 -89 18 -302 3 -162 9 -316 13 -341 10 -57 7
-68 -21 -62 -47 10 -49 11 -36 34 8 16 8 23 -1 29 -8 5 -7 9 5 14 14 5 15 9 6
20 -9 11 -9 15 1 18 10 4 10 8 -1 21 -12 15 -11 17 5 17 18 1 18 1 1 14 -13
10 -15 15 -5 18 11 4 10 8 -1 21 -12 15 -11 17 5 17 18 1 18 1 1 14 -12 10
-15 16 -7 21 8 5 8 11 -1 21 -9 11 -8 14 2 14 10 1 9 4 -3 14 -16 12 -18 36
-18 248 l0 235 25 -5 c14 -2 25 -10 25 -17z m-499 -109 c22 -90 22 -95 5 -121
-17 -26 -76 -68 -84 -60 -3 2 5 20 16 40 15 25 20 44 15 66 -5 25 14 169 23
169 1 0 12 -42 25 -94z m-281 54 c18 -10 19 -19 13 -113 -4 -77 -10 -105 -22
-114 -28 -22 -32 -14 -25 60 4 39 7 96 8 125 1 28 2 52 4 52 2 0 12 -5 22 -10z
m637 -45 c15 -19 34 -35 41 -35 17 0 15 -17 -3 -24 -15 -5 -21 -37 -8 -49 3
-4 12 -2 20 5 7 6 16 9 18 6 3 -3 8 -68 10 -144 3 -76 7 -158 10 -181 l5 -43
-64 0 c-46 0 -69 -5 -81 -16 -10 -10 -44 -20 -88 -25 -99 -11 -97 -11 -97 11
0 11 7 20 15 20 17 0 20 16 5 25 -5 3 -7 12 -4 20 4 8 -1 17 -9 21 -12 4 -14
11 -7 29 11 29 -1 39 -31 30 -14 -5 -19 -13 -16 -26 3 -10 1 -22 -4 -25 -6 -3
-9 -13 -8 -22 3 -37 0 -43 -19 -31 -13 8 -17 20 -14 40 3 18 0 29 -8 29 -7 0
-9 8 -5 21 6 17 3 20 -17 17 -18 -2 -23 -9 -24 -33 -1 -52 -3 -60 -13 -49 -6
5 -12 40 -14 78 -3 38 -2 64 1 59 25 -38 135 -45 187 -13 27 17 34 18 38 6 3
-8 -1 -20 -8 -26 -8 -7 -13 -16 -10 -20 3 -4 1 -29 -4 -54 -6 -34 -5 -46 3
-43 6 2 12 12 14 23 2 10 6 26 9 34 3 8 5 19 4 23 0 4 3 17 9 28 8 15 6 30
-10 66 -20 45 -20 50 -6 113 14 58 23 74 73 127 32 33 63 61 70 62 7 0 25 -15
40 -34z m478 -96 c39 -36 87 -76 108 -88 36 -22 37 -25 37 -78 l0 -55 -42 8
c-24 4 -52 7 -63 6 -11 -1 -42 10 -70 23 -27 13 -61 26 -75 29 -14 3 -48 22
-76 43 -28 21 -60 43 -70 49 -18 11 -15 16 35 75 30 35 64 72 75 81 24 19 19
23 141 -93z m145 -26 c0 -29 -3 -53 -7 -53 -12 0 -105 73 -116 91 -8 12 -2 23
23 48 l34 32 33 -33 c29 -28 33 -38 33 -85z m-555 47 c-3 -5 -10 -10 -16 -10
-5 0 -9 5 -9 10 0 6 7 10 16 10 8 0 12 -4 9 -10z m253 -183 c14 -13 33 -21 47
-19 13 2 45 -8 72 -22 29 -15 65 -26 89 -26 74 0 89 -4 89 -25 0 -19 -6 -20
-112 -17 -106 2 -151 -8 -101 -24 22 -7 22 -7 3 -15 -11 -4 -54 -8 -96 -8 -47
-1 -88 -7 -105 -16 -16 -8 -32 -11 -35 -7 -8 8 -19 261 -12 279 4 12 113 -55
161 -100z m-705 56 c-2 -10 -11 -27 -19 -38 -15 -20 -15 -20 -29 -1 -13 18
-12 21 13 37 35 23 41 23 35 2z m-227 -54 c41 -46 132 -66 163 -36 11 10 12 7
7 -18 -27 -117 -46 -146 -46 -71 0 47 -15 70 -27 39 -3 -10 -12 -21 -19 -25
-7 -5 -10 -17 -7 -29 5 -17 2 -20 -13 -17 -16 3 -19 12 -17 61 1 50 -1 57 -18
57 -10 0 -19 -5 -19 -11 0 -5 -4 -7 -10 -4 -19 12 -30 -5 -19 -28 6 -13 7 -32
2 -45 -7 -19 -11 -13 -22 39 -11 53 -10 63 3 78 9 10 13 21 9 24 -3 4 -2 7 4
7 5 0 18 -9 29 -21z m-167 -15 c2 -2 -45 -4 -105 -4 -60 0 -207 -3 -326 -7
-152 -4 -218 -3 -218 5 0 7 88 11 277 12 152 0 279 3 282 5 4 5 83 -5 90 -11z
m-69 -36 c-30 -5 -122 -8 -204 -5 -82 3 -162 1 -178 -3 -30 -9 -212 -1 -203 9
9 8 367 17 515 12 117 -4 121 -5 70 -13z m113 5 c-7 -2 -19 -2 -25 0 -7 3 -2
5 12 5 14 0 19 -2 13 -5z m-127 -30 c-13 -13 -155 -36 -268 -43 -128 -8 -209
-19 -275 -35 -21 -5 -23 -2 -23 36 l0 42 83 -6 c45 -3 91 -2 102 2 17 7 388
10 381 4z m167 -24 c15 -7 27 -20 27 -31 0 -10 9 -23 20 -30 11 -7 20 -24 20
-38 1 -14 7 -51 15 -84 l14 -58 -27 6 c-62 15 -153 23 -193 19 -24 -2 -62 0
-84 6 -32 8 -7 10 118 9 87 0 160 2 163 5 14 13 -67 18 -242 13 -104 -3 -214
-2 -244 2 l-55 9 40 7 c54 10 85 23 85 37 0 12 -185 7 -248 -6 -17 -4 -56 -4
-86 -1 -42 6 -55 12 -59 27 -4 14 1 23 16 29 47 20 175 43 232 41 73 -2 230
16 288 33 57 17 168 20 200 5z m102 -30 c-8 -12 22 -79 35 -79 6 0 10 5 10 10
0 6 7 10 16 10 12 0 15 7 12 30 -3 17 -1 33 4 36 4 3 8 -5 8 -18 0 -13 6 -32
13 -43 8 -11 14 -42 15 -70 2 -27 8 -72 14 -98 10 -39 10 -50 -1 -57 -16 -10
-4 -33 14 -26 7 2 17 0 23 -6 6 -6 19 -15 30 -22 56 -31 111 -72 112 -82 0
-18 -39 -24 -105 -15 -57 8 -157 40 -172 54 -3 4 -8 33 -11 65 -5 76 -5 82 2
116 5 20 2 34 -10 47 -20 22 -37 120 -28 163 5 25 8 27 16 13 5 -10 6 -22 3
-28z m175 -40 c0 -9 7 -22 15 -29 8 -7 15 -25 15 -41 0 -26 -4 -29 -30 -29
-45 0 -45 1 -41 55 4 61 19 95 32 74 5 -8 9 -21 9 -30z m1040 -86 c0 -125 0
-125 -22 -119 -13 3 -50 7 -83 8 l-60 1 65 6 c49 5 65 10 65 21 0 8 -10 16
-22 18 -13 2 -23 7 -23 12 0 5 -15 11 -32 13 -29 3 -27 4 10 5 44 2 60 22 17
22 -14 0 -25 5 -25 10 0 6 -9 10 -20 10 -31 0 -23 17 11 24 35 7 35 29 0 34
-27 4 -51 -14 -51 -38 0 -13 -12 -21 -37 -27 -45 -10 -48 -26 -7 -33 27 -6 27
-6 -13 -13 -46 -8 -57 -25 -21 -35 21 -5 21 -6 2 -14 -14 -6 -11 -7 14 -5 18
2 35 0 38 -5 6 -9 -135 -3 -206 9 l-45 8 -3 68 c-2 45 1 67 9 67 6 0 25 6 42
14 18 8 73 16 123 19 100 5 121 11 104 32 -8 10 7 13 80 13 l90 0 0 -125z
m-970 83 c0 -13 7 -29 15 -36 8 -7 15 -19 15 -26 0 -8 4 -14 8 -14 9 0 35 60
33 77 -3 19 16 24 29 8 10 -12 10 -21 2 -38 -6 -12 -13 -46 -15 -75 -2 -29 -7
-55 -10 -58 -10 -11 5 -34 22 -34 19 0 98 -30 156 -58 l40 -20 -29 -7 c-15 -4
-67 -4 -115 0 -47 4 -102 8 -121 8 -19 1 -40 5 -46 9 -7 5 -10 49 -8 130 2 68
3 131 4 141 0 26 20 20 20 -7z m436 -69 c3 -3 2 -26 -1 -51 l-7 -46 -62 0
c-40 0 -69 6 -84 16 -16 11 -43 15 -100 13 -61 -2 -77 1 -77 12 0 10 20 16 70
21 102 10 131 17 145 33 9 11 27 14 61 12 27 -2 52 -6 55 -10z m-1236 -6 c-35
-5 -45 -10 -44 -24 1 -10 -7 -19 -22 -23 -13 -3 -28 -12 -34 -19 -23 -27 28
-38 170 -38 l135 1 -45 -20 c-25 -11 -63 -22 -85 -24 -211 -20 -258 -27 -302
-44 l-52 -19 -3 27 c-2 15 -2 60 0 100 l4 72 51 1 c29 0 72 4 97 8 25 5 74 8
110 8 58 0 60 -1 20 -6z m760 -56 c0 -8 -9 -15 -19 -15 -11 0 -26 -3 -35 -6
-11 -4 -16 0 -16 13 0 16 7 20 35 21 25 1 35 -3 35 -13z m-645 -4 c3 -5 -9 -9
-27 -9 -18 1 -61 -2 -95 -7 -43 -5 -63 -4 -63 3 0 6 8 13 18 15 33 9 161 7
167 -2z m360 -44 c22 -6 46 -11 54 -12 20 0 34 -50 26 -92 -6 -33 -8 -35 -38
-29 -18 3 -76 9 -130 12 -88 6 -97 5 -91 -10 6 -15 -4 -16 -112 -9 -194 13
-373 10 -383 -5 -4 -7 -24 -17 -45 -22 -34 -8 -36 -7 -36 19 0 42 65 62 235
71 111 5 150 11 187 28 26 12 56 22 68 22 11 0 24 8 27 18 4 9 10 20 15 23 13
9 179 -1 223 -14z m582 12 c6 -6 47 -13 92 -16 77 -6 80 -7 75 -28 -7 -30 17
-47 63 -43 34 3 38 6 41 32 4 28 4 28 55 21 29 -4 86 -9 127 -11 l75 -3 3 -46
3 -45 -118 5 c-123 6 -223 17 -261 29 -12 4 -32 4 -44 0 -20 -7 -16 -9 22 -17
25 -4 68 -11 95 -15 39 -6 13 -9 -115 -15 -92 -4 -178 -3 -195 2 -26 8 -22 9
30 10 57 1 105 19 105 40 0 9 -99 61 -116 61 -19 1 -84 37 -77 43 11 11 128 8
140 -4z m648 1 c-7 -12 -42 -12 -70 0 -15 6 -8 9 28 9 30 1 46 -3 42 -9z
m-945 -14 c0 -21 -11 -25 -37 -15 -33 12 -28 29 7 29 19 0 30 -5 30 -14z m-24
-44 c6 -4 15 -18 19 -32 l7 -25 -26 24 c-34 32 -34 56 0 33z m901 -22 c9 0 13
6 9 15 -4 11 2 15 28 15 18 0 48 -3 65 -6 28 -6 31 -10 31 -45 l0 -39 -80 0
-80 0 1 48 c1 26 3 39 6 30 2 -10 11 -18 20 -18z m-740 -67 c3 -9 -5 -9 -31
-1 -20 6 -36 15 -36 18 0 12 63 -4 67 -17z m-408 -14 c36 -6 73 -18 82 -25 8
-8 23 -14 32 -14 9 0 31 -9 49 -20 27 -16 29 -20 13 -21 -30 -1 -182 -1 -445
0 -453 3 -490 2 -490 -11 0 -10 211 -13 1017 -15 559 -2 1019 -5 1022 -8 8 -8
7 -212 -1 -220 -7 -8 -497 -13 -1118 -13 -162 0 -434 -1 -604 -2 -246 -1 -311
1 -317 12 -5 7 -9 75 -9 150 0 127 1 138 20 148 11 6 26 10 33 9 17 -4 78 12
98 24 12 8 75 7 216 -2 243 -15 255 -15 265 4 11 18 48 19 137 4z m1281 -33
l0 -43 -42 -1 c-24 0 -58 5 -76 11 -27 9 -32 16 -30 37 3 23 7 25 62 27 32 2
61 5 64 8 14 14 22 1 22 -39z m-680 -13 c180 -8 191 -27 19 -33 -176 -7 -243
-2 -229 15 7 9 4 19 -10 38 l-21 26 58 -20 c41 -15 95 -22 183 -26z m-143 41
c-3 -3 -12 -4 -19 -1 -8 3 -5 6 6 6 11 1 17 -2 13 -5z m643 -24 c0 -16 -16
-18 -147 -22 -82 -3 -155 -1 -163 2 -8 4 -76 10 -152 13 -75 3 -143 9 -152 14
-10 5 107 9 299 9 292 1 315 0 315 -16z m-50 -39 c0 -5 -42 -8 -92 -8 -86 0
-89 0 -33 7 93 10 125 11 125 1z"/>
<path d="M1645 3280 c3 -5 8 -10 11 -10 2 0 4 5 4 10 0 6 -5 10 -11 10 -5 0
-7 -4 -4 -10z"/>
<path d="M1570 2821 c0 -6 5 -13 10 -16 6 -3 10 1 10 9 0 9 -4 16 -10 16 -5 0
-10 -4 -10 -9z"/>
<path d="M1380 2190 c0 -5 4 -10 9 -10 6 0 13 5 16 10 3 6 -1 10 -9 10 -9 0
-16 -4 -16 -10z"/>
<path d="M1609 1150 c0 -3 -2 -15 -5 -27 -2 -13 1 -23 6 -23 16 0 24 30 11 43
-6 6 -11 9 -12 7z"/>
<path d="M1610 1029 c0 -17 4 -28 10 -24 6 3 10 17 10 31 0 13 -4 24 -10 24
-5 0 -10 -14 -10 -31z"/>
<path d="M1600 876 c0 -36 5 -68 10 -71 7 -4 10 18 9 64 -2 89 -19 94 -19 7z"/>
<path d="M1721 241 c-17 -4 -25 -14 -26 -31 -1 -14 -3 -47 -5 -75 l-4 -50 55
3 c43 2 59 8 77 28 12 14 22 36 22 49 0 50 -64 91 -119 76z m80 -48 c5 -13 9
-29 9 -34 0 -13 -46 -59 -60 -59 -10 0 -15 112 -4 122 12 12 46 -6 55 -29z"/>
<path d="M1872 234 c-12 -8 -22 -23 -22 -33 0 -24 23 -43 42 -36 18 7 42 -20
33 -35 -4 -7 -21 -9 -45 -5 -32 5 -40 3 -49 -14 -10 -19 -8 -20 41 -23 62 -4
94 7 101 33 6 24 -27 67 -55 71 -12 2 -23 9 -26 17 -4 11 3 12 31 7 34 -6 64
9 35 18 -44 14 -66 14 -86 0z"/>
<path d="M283 233 c-16 -3 -23 -12 -23 -26 -1 -12 -9 -45 -19 -74 -17 -49 -17
-52 0 -56 23 -6 32 3 18 19 -18 21 7 54 41 54 25 0 30 -5 35 -34 4 -21 14 -36
25 -39 23 -6 32 2 22 17 -4 6 -18 40 -32 75 -26 67 -30 71 -67 64z m21 -40 c7
-16 -11 -36 -25 -27 -9 5 1 44 11 44 4 0 11 -8 14 -17z"/>
<path d="M567 230 c-8 -3 -12 -30 -12 -78 l0 -73 50 3 c45 3 50 6 54 28 3 24
2 24 -16 8 -22 -20 -47 -9 -41 18 2 12 11 18 22 16 13 -2 17 2 14 15 -2 11
-11 17 -22 15 -14 -3 -17 1 -12 13 3 9 6 19 6 21 0 2 7 4 15 4 8 0 15 -5 15
-11 0 -5 5 -7 10 -4 6 3 10 13 10 21 0 11 -10 14 -40 12 -22 -2 -46 -5 -53 -8z"/>
<path d="M1198 233 c-24 -4 -26 -7 -16 -27 8 -18 6 -29 -7 -50 -10 -14 -21
-26 -25 -26 -4 0 -13 23 -20 50 -11 46 -14 50 -41 50 -16 0 -29 -4 -29 -10 0
-5 7 -10 15 -10 8 0 15 -6 15 -14 0 -28 40 -106 54 -106 8 0 24 17 36 38 22
35 23 36 36 17 49 -73 60 -72 104 14 36 73 37 81 5 81 -25 0 -35 -15 -15 -22
11 -3 -29 -88 -42 -88 -4 0 -15 14 -24 32 -12 24 -14 36 -6 49 10 16 6 31 -7
28 -3 -1 -18 -4 -33 -6z"/>
<path d="M1383 226 c7 -18 -23 -126 -34 -126 -5 0 -9 -4 -9 -10 0 -5 8 -10 19
-10 13 0 21 10 25 34 11 57 42 56 65 -1 10 -24 20 -33 37 -33 26 0 32 15 11
23 -8 3 -21 32 -31 65 -12 46 -22 61 -39 66 -36 9 -50 7 -44 -8z m44 -53 c-11
-10 -26 8 -20 23 5 15 7 14 15 -1 6 -9 7 -19 5 -22z"/>
<path d="M1515 230 c-3 -5 1 -10 11 -10 14 0 16 -10 12 -70 -3 -51 0 -70 9
-70 8 0 13 20 15 58 l3 57 30 -55 c17 -30 35 -55 40 -55 6 0 14 30 19 68 5 37
13 67 18 67 4 0 8 5 8 10 0 6 -10 10 -23 10 -22 0 -23 -4 -21 -45 3 -46 -10
-61 -21 -26 -17 54 -80 93 -100 61z"/>
<path d="M115 155 l0 -75 35 0 c26 0 31 3 22 12 -22 22 -13 44 21 53 28 9 32
15 35 48 l3 37 -58 0 -58 0 0 -75z m85 35 c0 -13 -7 -20 -20 -20 -13 0 -20 7
-20 20 0 13 7 20 20 20 13 0 20 -7 20 -20z"/>
<path d="M411 204 c-47 -60 -12 -127 62 -122 37 3 42 6 42 28 0 20 -6 26 -27
28 -31 4 -39 -14 -10 -22 9 -2 4 -4 -13 -3 -25 2 -31 7 -33 29 -2 15 2 37 8
48 9 17 17 20 41 15 22 -5 29 -3 29 9 0 12 -10 16 -39 16 -31 0 -44 -6 -60
-26z"/>
<path d="M845 189 c-4 -6 4 -30 16 -55 20 -37 22 -47 11 -64 -7 -11 -9 -20 -4
-20 15 0 32 24 32 43 0 11 8 25 17 32 15 11 15 15 4 29 -10 11 -16 13 -21 6
-5 -7 -11 -6 -20 5 -12 14 -11 18 1 26 11 7 9 9 -8 9 -12 0 -25 -5 -28 -11z"/>
<path d="M786 125 c-4 -12 17 -45 29 -45 12 0 33 33 29 45 -8 19 -50 19 -58 0z"/>
<path d="M2000 110 c-13 -9 -13 -11 0 -20 23 -15 42 -12 38 7 -4 21 -19 26
-38 13z"/>
</g>
</svg>
