<?xml version="1.0" standalone="no"?>
<!DOCTYPE svg PUBLIC "-//W3C//DTD SVG 20010904//EN"
 "http://www.w3.org/TR/2001/REC-SVG-20010904/DTD/svg10.dtd">
<svg version="1.0" xmlns="http://www.w3.org/2000/svg"
 width="222.000000pt" height="388.000000pt" viewBox="0 0 222.000000 388.000000"
 preserveAspectRatio="xMidYMid meet">
<metadata>
Created by potrace 1.16, written by Peter Selinger 2001-2019
</metadata>
<g transform="translate(0.000000,388.000000) scale(0.100000,-0.100000)"
fill="#000000" stroke="none">
<path d="M1775 3868 c-88 -4 -514 -6 -947 -3 -711 3 -788 2 -800 -12 -11 -13
-13 -208 -14 -1052 -1 -570 -2 -1144 -4 -1276 -1 -132 -1 -527 -1 -878 l1
-639 383 2 c210 1 434 3 497 3 63 0 187 0 275 0 197 -1 561 -1 595 0 14 0 117
-1 230 -2 l205 -3 7 239 c4 131 7 994 7 1918 1 1357 -2 1682 -12 1692 -16 16
-198 21 -422 11z m-642 -26 c748 2 1038 0 1047 -9 3 -3 6 -464 8 -1025 l3
-1020 -47 27 c-83 49 -212 46 -287 -7 -15 -11 -34 -18 -43 -16 -13 2 -11 10
11 43 l27 39 -26 21 c-65 51 -85 65 -94 65 -11 0 -27 38 -19 46 12 13 65 20
92 13 21 -6 34 -18 42 -38 7 -19 25 -37 46 -47 41 -20 70 -13 60 13 -6 16 -5
16 10 4 9 -7 17 -19 17 -27 0 -16 37 -37 50 -29 17 10 11 23 -8 19 -12 -4 -21
4 -29 25 -14 37 -59 45 -65 11 -3 -20 -3 -20 -35 0 -26 15 -33 27 -33 50 0 26
3 30 28 30 21 0 37 10 58 38 43 53 48 62 54 107 6 46 36 59 33 14 -1 -20 7
-31 35 -47 26 -15 31 -22 18 -22 -15 0 -16 -3 -6 -15 17 -21 -8 -20 -38 1 -39
27 -52 10 -43 -57 1 -4 14 -9 31 -12 58 -12 97 -78 43 -74 -18 1 -28 -3 -31
-15 -2 -12 2 -15 18 -11 12 3 29 -2 40 -12 22 -20 23 -18 21 35 -2 40 -47 90
-81 90 -21 0 -28 29 -7 31 6 0 27 1 44 2 18 1 33 7 34 12 0 6 7 17 15 26 13
15 11 17 -17 23 -40 8 -59 23 -52 42 8 21 -18 46 -71 69 -50 22 -58 32 -23 31
16 -1 22 5 22 21 1 25 19 48 38 48 7 0 12 13 12 28 -1 21 3 26 15 21 31 -12
78 -16 83 -7 4 6 -17 29 -45 52 -44 36 -56 40 -85 35 -29 -5 -33 -4 -33 14 0
12 -11 33 -25 48 -14 15 -25 30 -25 34 0 4 -11 12 -25 18 -15 7 -22 17 -19 26
13 33 -61 126 -128 162 -16 8 -28 20 -28 27 0 8 -13 38 -29 68 -31 58 -47 144
-31 164 7 8 2 19 -15 35 -15 14 -25 35 -25 50 0 15 -9 35 -20 45 -21 19 -26
35 -11 35 5 0 13 -9 16 -20 7 -21 53 -50 80 -50 10 0 30 9 45 20 41 29 46 8 8
-36 -56 -63 -37 -154 31 -152 37 1 53 -10 46 -32 -6 -20 48 -90 70 -90 22 0
29 57 11 85 -18 27 -6 34 14 9 7 -8 23 -14 34 -13 38 3 45 -1 48 -23 3 -24 43
-36 76 -23 14 6 14 8 -6 16 -23 9 -23 9 -6 39 17 27 17 32 2 63 -11 23 -13 38
-6 45 12 12 -16 70 -38 79 -19 7 -18 23 3 23 17 0 53 27 53 40 0 4 -12 8 -26
8 -14 0 -31 5 -37 12 -10 10 -6 11 17 6 22 -5 34 -2 52 15 13 12 24 31 24 41
0 22 -7 23 -26 3 -9 -8 -25 -15 -36 -15 -19 0 -34 14 -125 114 -54 58 -149 59
-203 1 -20 -21 -32 -25 -85 -25 -54 0 -64 -3 -88 -28 -16 -16 -27 -39 -27 -55
0 -15 -3 -27 -7 -27 -5 0 -28 16 -52 35 -24 19 -48 35 -53 35 -15 0 -60 -52
-103 -121 -41 -65 -46 -86 -49 -207 -1 -58 2 -66 25 -85 15 -12 29 -34 33 -49
3 -14 8 -33 12 -41 3 -10 -4 -16 -23 -20 -31 -6 -123 -74 -123 -91 -1 -6 -14
-27 -30 -46 -32 -36 -38 -68 -18 -99 13 -21 1 -81 -17 -84 -12 -2 -69 101 -90
165 -11 34 -12 53 -5 65 29 53 40 96 28 111 -20 24 -15 189 6 231 16 30 21 33
51 28 27 -4 33 -2 28 9 -3 8 -1 14 5 14 6 0 13 -6 15 -12 3 -7 6 -2 6 11 1 17
-3 22 -14 17 -9 -3 -15 0 -15 9 0 23 -16 18 -38 -12 -11 -16 -23 -25 -27 -21
-7 7 7 145 26 255 10 58 12 61 42 66 18 3 36 1 42 -4 5 -5 16 -9 25 -9 13 0
13 2 0 11 -12 9 -11 10 7 6 29 -6 42 13 14 20 -24 6 -28 21 -6 29 8 4 15 11
15 16 0 6 -6 5 -15 -2 -12 -10 -15 -9 -15 5 0 33 -30 8 -44 -37 -3 -10 -15
-18 -27 -18 -19 0 -21 4 -15 38 16 88 19 172 7 172 -7 0 -17 13 -22 29 -8 22
-18 31 -37 33 -19 2 -28 10 -30 26 -2 12 2 22 8 22 7 0 9 -7 6 -16 -3 -8 -2
-12 4 -9 6 3 10 15 10 25 0 14 -6 19 -22 17 -16 -1 -23 4 -25 18 l-3 20 9 -20
c8 -19 9 -19 16 -2 5 11 3 23 -4 30 -9 9 -16 7 -29 -10 -12 -16 -23 -21 -39
-17 -26 7 -28 2 -12 -28 8 -14 8 -23 0 -31 -19 -19 -12 -27 27 -27 l37 0 1
-74 c1 -71 0 -74 -20 -66 -16 6 -21 16 -21 46 0 28 -4 39 -15 39 -8 0 -16 -9
-18 -20 -2 -11 -10 -27 -18 -36 -16 -17 -9 -29 16 -29 9 0 31 -7 49 -16 32
-16 32 -17 26 -65 -4 -27 -8 -74 -10 -106 -3 -80 -15 -134 -27 -127 -7 4 -8
-7 -4 -32 4 -22 0 -101 -9 -177 -8 -77 -15 -141 -15 -143 0 -2 9 -4 20 -4 10
0 25 -10 31 -22 9 -19 9 -21 -2 -10 -16 14 -83 17 -74 2 3 -5 16 -10 29 -10
12 0 31 -7 42 -15 18 -14 16 -15 -18 -9 -25 4 -38 2 -38 -5 0 -6 8 -11 18 -12
15 0 15 -1 -2 -8 -15 -6 -20 -20 -23 -57 -8 -110 -22 -97 -30 28 -5 90 -4 96
18 117 27 25 14 28 -20 5 -22 -16 -23 -20 -17 -108 9 -124 12 -156 20 -194 5
-21 3 -38 -4 -47 -16 -20 -26 -19 -49 4 -10 10 -27 24 -37 30 -17 9 -17 10 -2
11 10 0 22 8 27 19 9 16 5 19 -32 26 -23 4 -61 8 -84 9 -41 1 -74 16 -37 16
17 1 54 22 54 31 0 3 -23 6 -50 7 -58 2 -120 -20 -120 -42 0 -19 -12 -20 -28
-4 -9 9 -15 9 -24 0 -7 -7 -23 -12 -37 -12 -29 0 -91 -34 -91 -50 0 -5 5 -10
10 -10 6 0 10 4 10 9 0 15 58 34 85 27 19 -5 25 -3 25 10 0 13 3 14 15 4 19
-16 55 -3 55 20 0 11 12 22 31 29 55 19 62 14 33 -24 -28 -38 -26 -57 5 -38
10 7 28 9 39 6 11 -2 23 0 26 6 4 5 12 8 19 6 7 -2 25 -6 40 -10 l29 -6 -29
-27 -28 -27 29 -3 c29 -4 65 -36 66 -59 0 -19 40 -16 40 2 0 25 28 29 58 9 15
-10 35 -23 46 -29 27 -14 16 -31 -18 -27 -28 4 -29 2 -15 -14 39 -49 59 -64
87 -70 18 -4 29 -11 25 -17 -3 -5 2 -16 13 -24 16 -12 17 -15 3 -28 -14 -14
-18 -14 -41 5 -15 11 -33 20 -41 20 -8 0 -18 11 -21 25 -4 15 -16 27 -31 31
-14 3 -22 11 -19 16 4 6 -2 8 -15 3 -18 -5 -22 -3 -19 12 2 14 -4 19 -27 21
-16 2 -34 9 -40 16 -5 7 -18 15 -29 19 -10 4 -16 13 -13 21 6 16 -22 46 -42
46 -7 0 -3 -8 10 -19 20 -16 22 -21 10 -35 -15 -18 -8 -31 17 -31 22 0 40 -61
23 -78 -18 -18 -70 48 -71 90 0 39 -15 50 -40 28 -13 -11 -20 -13 -25 -5 -7
11 21 39 40 40 6 0 5 3 -1 8 -6 4 -16 17 -23 30 -6 12 -21 22 -32 22 -21 0
-21 0 2 -18 14 -12 20 -25 16 -35 -9 -24 -27 -21 -27 4 0 16 -5 20 -20 16 -11
-3 -23 -1 -26 5 -4 5 -21 7 -39 4 -21 -4 -35 -2 -37 5 -3 8 -15 6 -43 -5 -34
-15 -40 -15 -47 -2 -10 17 -54 13 -98 -10 -37 -19 -83 -71 -77 -87 3 -8 -1
-32 -8 -53 -10 -31 -15 -35 -20 -21 -4 9 -16 17 -26 17 -17 0 -19 -8 -18 -77
1 -77 14 -112 43 -113 14 -1 51 -59 60 -96 11 -41 24 -54 57 -54 16 0 29 -3
29 -7 0 -5 13 -22 29 -39 16 -16 31 -40 35 -51 4 -11 15 -23 26 -26 34 -9 33
-34 -1 -93 -30 -52 -33 -55 -46 -39 -7 11 -13 22 -13 26 0 13 -85 42 -126 41
-50 0 -130 -37 -137 -62 -4 -17 -7 -17 -49 3 l-45 22 -5 90 c-3 50 -4 236 -3
415 2 179 3 589 4 912 l1 587 128 4 c70 2 151 2 180 0 29 -2 382 -2 785 -1z
m-153 -132 c0 -5 -7 -10 -16 -10 -8 0 -12 5 -9 10 3 6 10 10 16 10 5 0 9 -4 9
-10z m79 -37 c-1 -5 -1 -23 0 -41 1 -28 4 -33 24 -30 19 3 22 -1 21 -27 0 -16
-3 -43 -7 -60 -3 -16 -6 -38 -6 -47 -1 -10 -9 -18 -18 -19 -11 0 -13 -3 -5 -6
18 -7 15 -50 -5 -62 -10 -6 -12 -11 -5 -11 19 0 14 -30 -5 -31 -11 0 -13 -3
-5 -6 6 -2 12 -9 12 -14 0 -4 -7 -6 -15 -3 -8 4 -15 1 -15 -5 0 -6 7 -11 15
-11 8 0 15 -4 15 -10 0 -5 -7 -7 -15 -4 -8 4 -15 1 -15 -5 0 -6 6 -11 13 -12
8 0 8 -2 -2 -6 -11 -5 -11 -7 0 -14 11 -7 11 -11 2 -17 -13 -8 -13 -29 0 -49
5 -8 3 -13 -3 -13 -7 0 -9 -8 -5 -20 4 -13 2 -20 -7 -20 -10 0 -10 -2 1 -9 8
-5 9 -11 3 -15 -6 -3 -9 -18 -6 -32 3 -17 1 -23 -7 -19 -8 5 -9 -2 -4 -24 5
-25 3 -35 -11 -46 -16 -11 -17 -15 -4 -31 8 -10 10 -15 3 -11 -8 5 -11 -1 -10
-20 3 -38 -27 -38 -31 0 -3 28 33 322 48 391 5 21 6 45 3 53 -3 7 0 55 7 106
8 63 9 105 2 134 -8 33 -7 44 6 57 17 17 33 21 31 9z m817 -286 c12 -7 40 -35
63 -64 46 -58 67 -73 108 -74 l28 -1 -25 -8 c-42 -14 -49 -11 -94 30 -23 22
-46 37 -50 33 -7 -7 111 -123 126 -123 5 0 6 -4 3 -10 -9 -15 -37 -12 -78 9
-38 20 -52 11 -17 -11 27 -17 25 -38 -4 -38 -67 0 -116 52 -83 88 10 10 17 23
17 29 0 17 -44 51 -75 58 l-30 7 31 -20 c42 -27 49 -40 31 -60 -20 -24 -4 -77
31 -99 43 -28 75 -65 62 -73 -6 -4 -20 -24 -31 -45 -20 -36 -21 -63 -4 -106
12 -31 -24 -31 -40 0 -18 35 -8 75 30 125 22 29 24 38 15 55 -6 12 -18 21 -27
21 -12 0 -13 -3 -4 -14 9 -11 9 -22 -3 -48 -24 -54 -44 -74 -58 -60 -10 10
-10 17 0 33 8 12 11 24 7 27 -10 11 -40 -14 -43 -37 -4 -28 -16 -27 -30 5 -22
46 6 106 54 118 20 5 25 12 22 34 -2 16 -12 31 -25 37 -17 7 -21 15 -17 32 5
18 2 23 -14 23 -21 0 -22 16 -7 68 6 18 4 22 -14 22 -29 0 -17 18 23 36 39 17
94 17 122 1z m-149 -60 c12 -13 -25 -36 -47 -30 -11 3 -20 1 -20 -4 0 -18 49
-56 64 -50 22 9 29 -9 10 -27 -25 -25 -63 -19 -95 15 -32 34 -59 35 -74 1 -12
-28 -21 -28 -29 1 -10 39 -6 60 17 85 20 22 28 24 94 20 39 -2 75 -7 80 -11z
m-244 -91 c100 -65 117 -80 117 -110 0 -13 9 -34 19 -47 19 -24 19 -73 1 -84
-5 -3 -25 15 -46 41 -31 38 -35 47 -23 56 11 8 11 9 -2 5 -20 -7 -59 32 -52
52 4 9 0 11 -16 6 -15 -4 -21 -2 -21 9 0 10 -6 13 -15 10 -9 -4 -15 0 -15 10
0 20 2 20 45 2 46 -20 55 -2 13 24 -45 27 -95 43 -118 37 -18 -5 -18 -3 -3 19
8 13 19 24 24 24 4 0 46 -24 92 -54z m-74 -25 c10 -7 10 -10 1 -16 -7 -4 -16
-1 -21 6 -5 8 -9 9 -9 3 0 -12 -40 -27 -48 -19 -3 3 1 11 8 20 14 16 47 20 69
6z m246 -21 c3 -5 20 -10 36 -10 18 0 28 -4 24 -10 -10 -17 -51 -11 -70 10
-10 11 -13 20 -7 20 6 0 14 -4 17 -10z m-189 -65 c19 -14 33 -29 31 -33 -4
-15 46 -84 53 -72 5 8 9 7 14 -5 3 -9 3 -21 0 -26 -10 -17 17 -39 47 -39 24 0
31 -7 49 -46 11 -26 20 -50 20 -55 0 -4 -26 7 -57 24 -52 29 -61 40 -93 105
-22 45 -46 80 -65 92 -40 27 -119 27 -162 0 l-32 -19 12 27 c16 35 45 64 57
57 6 -4 10 -1 10 5 0 6 5 8 10 5 6 -3 10 -2 10 4 0 17 61 2 96 -24z m566 -49
c8 -15 7 -22 -6 -31 -14 -11 -15 -14 -1 -25 17 -14 20 -76 4 -86 -6 -3 -9 -15
-6 -25 3 -11 1 -19 -3 -19 -16 0 -21 20 -10 40 9 17 8 20 -12 20 -16 0 -19 3
-11 11 17 17 4 39 -23 39 -22 0 -23 -2 -12 -20 10 -16 10 -22 0 -32 -11 -11
-16 -9 -28 6 -21 29 -18 74 6 88 21 13 28 48 10 48 -20 0 -9 16 18 26 29 12
54 -2 74 -40z m-667 -15 c-11 -5 -23 -7 -26 -5 -4 2 -9 -5 -12 -16 -3 -11 -2
-20 1 -20 21 1 87 30 90 39 2 7 15 1 30 -15 19 -19 27 -37 27 -63 0 -30 4 -37
23 -39 30 -5 28 -17 -8 -42 -24 -17 -38 -20 -80 -14 -57 7 -66 -1 -17 -15 l32
-9 -37 -1 c-32 -1 -40 4 -53 29 -17 33 -20 70 -5 70 6 0 13 -13 17 -30 8 -41
24 -38 17 3 -8 48 -25 77 -46 77 -10 0 -18 5 -18 10 0 6 4 10 9 10 5 0 11 9
14 20 4 14 13 20 34 19 24 0 25 -2 8 -8z m119 -27 c7 -19 2 -18 -19 6 -16 17
-16 20 -3 15 9 -4 19 -13 22 -21z m-199 -52 c-7 -25 -8 -25 -15 -7 -4 11 -2
28 4 38 14 22 20 4 11 -31z m45 14 c0 -2 -7 -6 -15 -10 -8 -3 -15 -1 -15 4 0
6 7 10 15 10 8 0 15 -2 15 -4z m284 -28 c7 -5 5 -8 -6 -8 -21 0 -32 16 -22 32
6 9 9 8 12 -2 3 -8 10 -18 16 -22z m-111 2 c-3 -11 -9 -17 -14 -15 -10 7 -1
35 11 35 5 0 6 -9 3 -20z m-206 -32 c-3 -8 -6 -5 -6 6 -1 11 2 17 5 13 3 -3 4
-12 1 -19z m253 -43 c0 -8 5 -15 11 -15 7 0 5 -10 -5 -25 -9 -13 -16 -33 -16
-45 0 -18 -10 -25 -32 -21 -5 0 -8 -5 -8 -13 0 -20 -40 -32 -51 -15 -5 8 -8
19 -8 24 0 6 3 4 6 -2 7 -19 19 -15 19 6 0 16 -4 17 -24 10 -34 -13 -52 -11
-52 6 0 18 20 20 20 3 1 -8 6 -6 14 5 9 11 20 15 31 10 12 -4 16 -3 11 5 -10
16 15 27 26 11 8 -11 9 -10 4 4 -5 16 5 22 29 17 6 -1 6 2 0 9 -7 7 -25 3 -59
-14 -50 -25 -109 -32 -135 -16 -8 5 8 10 47 13 44 3 71 11 99 30 43 30 73 35
73 13z m-172 -86 c-2 -6 -8 -10 -13 -10 -5 0 -11 4 -13 10 -2 6 4 11 13 11 9
0 15 -5 13 -11z m212 -12 c10 3 26 1 34 -4 13 -7 4 -17 -48 -50 -74 -47 -114
-62 -174 -65 -29 -1 -48 4 -60 16 -16 16 -16 17 3 10 18 -7 19 -6 5 11 -14 17
-13 17 10 10 21 -7 23 -5 13 6 -9 12 -3 13 41 11 66 -5 122 17 138 54 9 19 14
23 16 12 2 -10 10 -14 22 -11z m116 -23 c-4 -9 -1 -23 5 -30 14 -17 59 -18 59
-1 0 8 4 7 10 -3 14 -22 12 -33 -4 -27 -15 6 -56 -23 -56 -39 0 -5 9 -17 20
-27 17 -14 24 -15 40 -5 22 14 27 11 32 -21 2 -19 -3 -26 -25 -34 -24 -8 -32
-5 -54 17 -17 18 -32 24 -45 20 -16 -5 -18 -2 -12 21 12 47 -43 82 -86 55 -11
-7 -7 -10 17 -10 22 0 36 -6 43 -20 13 -25 5 -41 -17 -33 -11 4 -14 3 -9 -5 9
-16 -17 -42 -41 -41 -15 0 -14 2 5 11 25 13 28 30 8 47 -11 10 -16 8 -21 -8
-7 -22 -25 -29 -25 -10 0 6 5 19 10 29 14 27 -6 36 -31 14 -10 -9 -19 -25 -19
-35 0 -26 -17 -32 -23 -9 -6 25 -27 26 -27 2 0 -21 19 -42 38 -42 18 0 72 -51
72 -67 0 -7 5 -13 11 -13 6 0 8 -7 5 -16 -3 -9 2 -38 11 -65 17 -47 17 -51 0
-81 -14 -24 -15 -33 -5 -45 10 -12 9 -17 -5 -24 -9 -5 -14 -15 -11 -22 2 -7
-10 -18 -27 -26 -29 -13 -33 -12 -46 4 -7 11 -13 25 -13 33 0 12 4 11 25 -2
27 -18 45 -14 45 10 0 9 -11 14 -31 14 -17 0 -28 4 -24 10 3 6 20 10 36 10 26
0 30 3 27 23 -2 16 -11 23 -34 25 -25 2 -38 -5 -67 -35 -21 -20 -37 -32 -37
-26 0 7 5 15 10 18 16 10 11 26 -7 24 -10 -1 -34 0 -53 1 l-35 1 41 19 c78 34
105 101 66 165 -21 33 -82 63 -82 41 0 -7 11 -18 25 -24 47 -22 67 -102 32
-131 -18 -14 -42 -17 -45 -6 -2 6 7 12 20 15 13 4 23 13 23 23 0 9 -4 16 -10
15 -5 -2 -9 -6 -7 -10 1 -5 -9 -8 -23 -8 -13 0 -29 -8 -34 -17 -10 -17 -12
-17 -26 1 -22 29 -18 43 15 54 20 8 28 16 24 26 -9 23 -32 27 -39 5 -4 -10
-11 -19 -16 -19 -13 0 -11 12 6 34 19 25 19 56 1 56 -8 0 -28 -17 -46 -37 -31
-37 -31 -37 -25 -10 5 25 4 27 -14 18 -29 -16 -30 -15 -20 30 10 44 38 103 39
82 0 -26 31 -12 45 20 l14 32 7 -33 c11 -52 66 -70 103 -33 10 10 33 22 49 26
17 3 59 25 94 47 99 64 157 85 144 52z m-740 -44 c0 -11 -4 -20 -9 -20 -5 0
-3 -7 4 -17 10 -12 11 -17 2 -20 -7 -2 -9 -11 -6 -19 6 -17 -16 -112 -29 -120
-22 -14 -22 -7 8 184 5 35 30 45 30 12z m257 -69 c-14 -35 -18 -38 -34 -28
-24 15 -24 28 1 34 10 3 22 14 25 24 4 11 10 17 15 14 5 -3 1 -23 -7 -44z
m637 -28 c0 -13 7 -37 15 -52 17 -34 9 -45 -43 -54 -25 -5 -35 -2 -44 13 -12
19 -38 28 -38 14 0 -4 16 -22 35 -40 50 -50 125 -45 125 8 0 11 5 15 15 12 8
-4 15 -17 15 -29 0 -13 7 -31 16 -39 18 -19 16 -19 48 -6 22 8 31 5 59 -20
l32 -30 -47 7 c-48 6 -59 -2 -36 -25 17 -17 -2 -15 -21 2 -11 10 -22 12 -31 6
-12 -7 -12 -12 3 -28 24 -27 21 -32 -17 -29 -32 2 -35 5 -50 60 -16 55 -17 57
-51 57 -24 0 -45 9 -68 30 -19 17 -40 30 -46 30 -7 0 -9 5 -6 10 3 6 -2 11
-12 11 -17 1 -17 2 0 6 24 6 21 19 -5 28 -20 6 -21 8 -5 12 10 3 24 -1 32 -7
9 -7 30 -9 59 -5 45 7 45 7 43 46 -1 36 -3 39 -32 39 -37 0 -67 16 -45 24 59
20 100 -1 100 -51z m-710 -37 c0 -3 -4 -8 -10 -11 -5 -3 -10 -1 -10 4 0 6 5
11 10 11 6 0 10 -2 10 -4z m505 -6 c-3 -5 -11 -10 -16 -10 -6 0 -7 5 -4 10 3
6 11 10 16 10 6 0 7 -4 4 -10z m-607 -76 c20 -38 46 -77 59 -88 13 -10 23 -26
21 -35 -1 -9 1 -22 5 -28 5 -9 -1 -17 -17 -25 -29 -13 -46 -4 -28 14 20 20 14
31 -13 24 -22 -6 -26 -3 -31 23 -5 21 -11 28 -23 24 -14 -4 -14 -3 2 10 25 21
21 37 -14 49 l-32 11 29 13 29 14 -35 -6 c-33 -6 -34 -5 -15 10 l20 15 -20 1
-20 1 20 9 c19 7 19 8 2 15 -15 6 -16 10 -5 16 22 14 29 6 66 -67z m-554 5
c-9 -10 -27 -19 -38 -19 -12 0 -27 -4 -35 -9 -11 -7 -18 -3 -28 16 -7 14 -13
27 -13 29 0 9 37 3 47 -7 8 -8 19 -7 39 4 36 19 51 11 28 -14z m1182 -14 c3
-7 -2 -30 -11 -49 -13 -28 -15 -39 -6 -50 7 -8 9 -25 6 -38 -4 -17 0 -29 14
-42 11 -10 18 -22 16 -27 -3 -4 -1 -10 5 -14 17 -11 11 -23 -16 -29 -19 -5
-24 -11 -19 -25 4 -14 -1 -20 -20 -23 -17 -4 -25 -1 -25 8 0 8 7 14 15 14 8 0
15 4 15 9 0 5 3 18 6 28 5 17 5 17 -9 0 -14 -17 -15 -16 -22 10 -7 28 -7 140
1 201 3 24 0 34 -13 39 -15 6 -14 7 3 13 22 8 53 -5 60 -25z m-1326 11 c0 -22
-30 -78 -57 -104 -29 -29 -33 -30 -33 -13 0 11 5 23 11 27 6 3 9 15 6 25 -6
24 29 69 54 69 10 0 19 -2 19 -4z m276 -6 c8 0 14 -6 14 -13 0 -7 6 -22 14
-32 14 -19 15 -19 35 -1 21 19 21 19 21 -7 0 -37 49 -107 74 -107 33 0 49 16
43 39 -5 22 7 38 18 22 3 -6 12 -8 21 -4 9 3 14 0 12 -8 -2 -7 6 -15 17 -17
33 -7 64 -32 67 -55 2 -12 12 -23 23 -26 11 -2 23 -8 26 -13 3 -5 12 -10 20
-12 19 -3 59 -29 59 -38 0 -5 -7 -8 -15 -8 -8 0 -15 5 -15 10 0 6 -4 10 -10
10 -5 0 -10 -7 -10 -15 0 -8 3 -15 8 -15 4 0 12 -11 18 -25 13 -27 23 -23
-200 -79 -99 -25 -110 -26 -126 -11 -9 8 -23 13 -31 10 -11 -4 -14 9 -14 63 0
45 -6 82 -19 110 -22 49 -34 50 -13 1 21 -52 28 -101 18 -134 -8 -26 -9 -22
-10 29 -1 48 -8 71 -38 127 -21 38 -41 69 -45 69 -11 0 -12 3 22 -64 25 -49
30 -70 30 -130 l-1 -71 -45 125 c-25 69 -50 135 -56 147 -8 17 -8 26 3 39 12
15 12 16 -8 10 -12 -4 -24 -2 -28 3 -3 6 5 13 19 17 35 8 43 34 11 34 -39 0
-29 18 13 23 20 2 43 2 50 0 8 -2 20 -3 28 -3z m-248 -35 c-3 -14 -2 -25 2
-25 11 0 7 -34 -5 -42 -5 -4 1 -8 15 -8 20 0 22 -2 10 -10 -11 -7 -11 -10 -2
-10 10 0 10 -5 2 -21 -11 -20 -12 -20 -36 6 -28 30 -28 31 -13 91 12 46 35 63
27 19z m783 -21 c5 -6 12 -39 15 -73 6 -52 5 -61 -10 -61 -19 0 -22 20 -3 21
10 0 10 2 0 6 -7 2 -13 16 -13 29 0 14 -5 34 -11 45 -6 12 -7 33 -3 52 6 25 9
28 12 12 2 -11 8 -25 13 -31z m-656 16 c4 -6 -6 -10 -23 -10 -22 0 -31 -6 -35
-21 -3 -12 -10 -18 -16 -14 -12 7 -15 38 -4 48 10 11 71 8 78 -3z m1272 -15
c3 -9 13 -15 22 -14 9 1 25 1 36 0 17 -1 18 -3 5 -11 -12 -8 -11 -10 8 -10 12
0 22 -5 22 -11 0 -6 -9 -9 -20 -6 -11 3 -18 1 -14 -4 3 -5 14 -9 25 -9 28 0
23 -14 -8 -27 -26 -10 -26 -10 10 -5 22 3 37 0 37 -6 0 -5 -24 -13 -52 -17
-29 -4 -70 -13 -90 -21 -39 -13 -52 -3 -20 15 16 10 16 10 -2 11 -20 0 -20 0
0 16 18 14 18 15 -6 9 -25 -6 -25 -6 -5 11 20 16 19 16 -5 9 l-25 -6 25 21 25
21 -25 -6 c-21 -5 -22 -4 -7 5 21 14 22 30 1 30 -8 0 -12 5 -9 10 10 16 65 12
72 -5z m-523 -40 c3 -13 19 -32 35 -41 16 -10 32 -25 34 -35 3 -11 19 -19 46
-24 31 -5 41 -11 41 -26 0 -10 4 -19 9 -19 5 0 18 -18 29 -40 l19 -40 -21 0
c-15 0 -27 11 -39 34 -9 19 -25 37 -37 41 -33 10 -36 -2 -7 -26 28 -21 35 -39
16 -39 -6 0 -17 7 -26 15 -16 17 -38 11 -27 -7 5 -8 1 -9 -12 -3 -10 5 -31 8
-46 7 -35 -2 -37 15 -2 24 16 4 24 12 22 23 -4 16 -30 19 -60 6 -18 -7 -21 0
-32 75 -2 19 -2 29 1 23 11 -29 20 -10 15 36 -4 46 -3 49 16 44 11 -2 23 -15
26 -28z m-749 -17 c-4 -13 -17 -31 -29 -40 -18 -15 -19 -18 -3 -18 9 0 17 -4
17 -10 0 -16 -38 -50 -56 -50 -14 0 -15 2 -3 17 13 15 11 15 -13 -1 -33 -21
-97 -18 -112 6 -8 13 -6 22 9 38 l19 21 8 -20 c9 -24 40 -28 58 -6 7 8 21 15
31 15 11 0 19 9 21 22 2 12 14 28 28 35 33 17 32 17 25 -9z m-185 -3 c0 -8 -7
-15 -15 -15 -16 0 -20 12 -8 23 11 12 23 8 23 -8z m-80 -62 c8 -16 16 -32 19
-37 2 -5 -2 -6 -9 -1 -9 6 -11 0 -5 -23 3 -18 2 -33 -4 -37 -6 -3 -11 -1 -11
5 0 6 -5 8 -12 4 -9 -5 -9 -3 1 9 11 14 11 18 -4 23 -13 5 -14 9 -3 15 10 7
10 9 -2 9 -13 0 -13 1 0 10 9 6 11 13 5 18 -15 11 -17 32 -2 32 8 0 20 -12 27
-27z m339 -108 c54 -138 56 -145 41 -145 -5 0 -18 28 -29 63 -11 34 -31 93
-45 132 -24 65 -32 94 -22 84 2 -2 27 -62 55 -134z m-284 115 c-3 -5 -10 -10
-16 -10 -5 0 -9 5 -9 10 0 6 7 10 16 10 8 0 12 -4 9 -10z m1649 -19 c3 -4 -6
-6 -19 -3 -20 3 -25 0 -25 -17 0 -11 -4 -21 -10 -21 -5 0 -7 6 -4 14 3 7 -2
16 -10 19 -10 4 -16 1 -16 -8 0 -8 -4 -15 -10 -15 -5 0 -10 5 -10 10 0 6 -9
10 -20 10 -12 0 -20 -7 -20 -17 0 -14 -2 -15 -9 -4 -6 9 -11 10 -15 2 -4 -6
-15 -11 -24 -11 -12 0 -13 3 -5 11 27 27 184 51 197 30z m-1384 -141 c15 -41
31 -82 34 -91 6 -13 -1 -18 -26 -23 -18 -3 -53 -16 -77 -28 -31 -15 -46 -18
-49 -10 -2 7 -9 9 -15 5 -6 -4 -8 -1 -5 8 7 19 -18 44 -26 26 -3 -7 -3 -2 -1
10 7 26 -12 41 -22 17 -6 -16 -7 -16 -14 2 -7 17 -8 17 -8 2 -1 -20 -21 -24
-37 -8 -17 17 7 80 29 80 14 0 16 -6 12 -27 -3 -16 3 -5 15 22 25 62 25 65 0
65 -11 0 -20 7 -20 15 0 9 9 15 24 15 14 0 28 5 31 10 4 6 11 8 16 4 15 -9 66
15 74 34 8 19 18 0 65 -128z m552 118 c-7 -7 -12 -8 -12 -2 0 14 12 26 19 19
2 -3 -1 -11 -7 -17z m85 -48 c4 3 9 -7 11 -22 3 -22 -2 -28 -20 -33 -28 -6
-57 -9 -83 -7 -19 2 -19 3 2 17 12 9 29 12 40 8 15 -6 16 -4 6 9 -10 12 -10
22 -1 49 l12 34 12 -30 c7 -17 16 -28 21 -25z m-898 26 c7 -8 11 -20 10 -28
-4 -34 1 -40 31 -34 34 6 41 -9 9 -19 -27 -9 -77 12 -84 36 -7 22 2 59 14 59
5 0 14 -6 20 -14z m836 4 c-3 -5 -11 -10 -16 -10 -6 0 -7 5 -4 10 3 6 11 10
16 10 6 0 7 -4 4 -10z m754 -27 c8 -13 10 -14 11 -4 0 11 4 9 15 -5 14 -19 14
-19 15 1 1 16 4 14 15 -10 11 -24 14 -26 15 -10 1 13 5 8 12 -14 10 -35 3
-100 -10 -102 -48 -6 -49 -5 -45 15 4 20 4 20 -10 4 -17 -22 -28 -23 -21 -3 4
8 1 15 -5 15 -6 0 -11 7 -11 16 0 8 -4 13 -9 9 -5 -3 -13 4 -16 16 -6 19 -7
19 -20 2 -12 -16 -13 -14 -8 12 5 29 5 29 -10 10 -14 -19 -15 -18 -10 10 3 25
2 27 -7 13 -6 -10 -17 -18 -25 -18 -9 0 -12 -6 -8 -17 5 -17 5 -17 -12 -1 -17
15 -17 18 -1 33 9 9 16 23 16 31 0 23 116 20 129 -3z m-554 -84 c17 -6 39 -12
50 -13 16 -1 21 -10 25 -51 5 -46 7 -48 14 -22 5 15 6 44 3 63 -6 33 -4 34 26
36 18 0 39 2 47 3 8 0 27 -7 41 -17 24 -16 26 -22 23 -88 -2 -50 -7 -77 -19
-90 -9 -10 -14 -24 -10 -29 11 -19 22 -12 29 20 l6 31 52 -7 c29 -4 56 -9 60
-12 14 -8 28 -79 27 -138 -1 -33 -4 -50 -6 -37 -5 28 -23 29 -23 1 0 -39 50
-109 78 -109 9 0 3 12 -17 32 -32 33 -36 51 -4 23 39 -34 105 -85 112 -85 22
0 51 34 51 60 0 31 30 60 64 60 19 0 19 0 0 -21 -18 -20 -18 -21 0 -35 18 -12
18 -15 2 -38 -10 -16 -22 -23 -31 -20 -8 4 -17 -1 -21 -9 -3 -9 -12 -13 -19
-11 -7 3 -16 1 -20 -5 -3 -6 5 -15 18 -20 33 -13 44 -31 18 -31 -12 0 -21 5
-21 10 0 12 -57 14 -64 2 -8 -14 5 -52 16 -46 6 4 5 -2 -1 -14 -16 -29 -14
-63 5 -83 13 -14 13 -22 4 -39 -10 -18 -9 -24 1 -31 8 -5 18 -9 22 -9 5 0 5
-10 1 -22 -6 -20 -5 -21 10 -9 9 8 14 21 11 31 -7 23 25 37 37 15 5 -8 17 -15
26 -15 18 0 42 -18 42 -31 0 -4 -16 -16 -35 -28 -41 -24 -60 -59 -51 -95 7
-30 30 -34 45 -8 11 19 14 11 11 -31 -1 -15 6 -39 14 -53 14 -20 24 -24 66
-24 37 0 50 4 50 14 0 19 -27 46 -46 46 -8 0 -14 9 -14 19 0 14 5 18 21 14 15
-4 22 0 25 15 6 21 60 37 70 20 3 -5 13 -3 21 4 14 12 15 -24 10 -371 -6 -331
-9 -389 -24 -422 -9 -22 -23 -39 -31 -39 -8 0 -12 -6 -8 -15 3 -9 0 -15 -8
-15 -9 0 -12 -7 -9 -21 5 -19 4 -20 -15 -10 -28 15 -35 14 -28 -4 3 -10 -1
-15 -12 -16 -10 0 -12 -3 -4 -6 20 -8 13 -25 -8 -18 -14 5 -20 2 -20 -9 0 -13
-12 -16 -58 -16 -66 0 -75 5 -62 30 8 15 121 89 138 90 10 1 94 106 115 143
40 73 11 105 -126 137 -149 35 -219 73 -325 174 -79 77 -117 148 -110 211 7
56 27 87 81 125 78 54 82 58 74 66 -4 5 -11 4 -15 -2 -4 -6 -28 -25 -53 -42
-26 -17 -59 -46 -74 -64 -55 -66 -99 -68 -111 -3 -5 29 -1 41 27 76 26 33 29
43 18 50 -18 11 -26 11 -34 -1 -3 -5 -13 -10 -21 -10 -8 0 -12 5 -9 10 3 6 -5
10 -19 10 -26 0 -86 30 -86 43 0 4 13 1 30 -8 16 -8 31 -15 33 -15 2 0 18 22
35 50 30 48 32 49 57 38 22 -10 28 -9 36 3 6 10 9 8 9 -12 0 -60 132 -114 184
-76 17 12 17 14 2 20 -9 4 -16 11 -16 16 0 13 37 24 52 15 19 -12 58 -14 58
-3 0 5 -7 9 -15 9 -24 0 -65 22 -65 36 0 7 -15 21 -32 33 -18 11 -39 29 -46
40 -11 19 -10 21 12 21 13 0 38 13 55 29 60 56 31 163 -43 160 -21 -1 -25 -3
-11 -6 50 -12 81 -73 56 -112 -7 -10 -13 -11 -27 -2 -17 9 -17 10 -1 11 11 0
17 8 17 25 0 15 -6 25 -14 25 -18 0 -47 -56 -39 -76 8 -21 -20 -17 -45 6 -29
27 -28 36 5 35 18 0 29 6 31 18 2 12 -3 17 -17 17 -12 0 -21 -5 -21 -11 0 -5
-4 -7 -10 -4 -17 11 -11 30 12 40 34 15 36 45 4 45 -18 0 -32 -10 -48 -35 -25
-37 -38 -44 -38 -20 0 8 -9 15 -20 15 -10 0 -24 9 -30 20 -9 16 -8 20 5 20 8
0 15 -7 15 -15 0 -8 9 -15 20 -15 13 0 18 5 14 15 -4 8 -1 15 6 15 6 0 10 5 8
12 -3 7 6 28 20 48 27 40 25 74 -9 121 -16 23 -28 29 -57 28 -35 0 -36 -1 -12
-11 48 -20 55 -25 65 -52 7 -20 5 -34 -5 -53 -19 -34 -40 -41 -40 -14 0 14 6
21 20 21 26 0 27 31 1 47 -22 13 -31 8 -31 -19 0 -10 -7 -18 -15 -18 -11 0
-14 -7 -9 -25 4 -18 2 -25 -9 -25 -21 0 -67 39 -67 57 0 14 2 14 18 0 17 -16
20 -15 40 8 12 13 19 31 16 40 -8 19 -13 19 -35 -1 -11 -10 -19 -12 -24 -5 -3
6 1 14 9 17 19 7 21 43 4 45 -29 3 -44 -4 -65 -29 -22 -26 -22 -26 -23 -5 0
12 5 25 10 28 6 4 0 15 -15 27 -18 14 -25 29 -25 53 l0 34 58 -37 c33 -20 71
-45 86 -56 15 -10 30 -16 34 -12 6 7 -1 13 -37 35 -12 7 -11 12 3 32 25 37 19
48 -9 14 -27 -33 -34 -18 -9 20 9 13 14 30 11 37 -3 8 -9 3 -15 -12 -9 -22
-11 -19 -11 28 -1 31 -5 52 -12 52 -7 0 -9 -10 -5 -25 5 -21 -4 -55 -20 -73
-1 -2 -18 2 -38 9 -29 10 -40 10 -60 0 -15 -9 -38 -11 -60 -7 -37 7 -59 26
-31 26 9 0 13 5 10 10 -3 6 -17 10 -31 10 -13 0 -24 4 -24 9 0 4 12 6 26 3 19
-3 25 -1 20 7 -4 6 -18 11 -32 11 -13 0 -24 5 -24 10 0 6 12 10 28 10 24 1 25
2 9 11 -14 8 -16 14 -6 25 7 9 16 11 23 6 23 -18 46 -22 46 -7 0 8 -8 15 -17
15 -15 0 -16 2 -3 10 10 6 20 4 30 -5 8 -7 29 -19 45 -26z m400 5 c30 -32 59
-114 45 -128 -6 -6 -12 1 -16 22 -4 18 -11 35 -17 39 -7 4 -8 -5 -4 -25 4 -19
2 -32 -3 -32 -6 0 -10 11 -10 24 0 14 -5 28 -11 32 -7 4 -10 -5 -7 -26 1 -18
-1 -33 -7 -34 -5 0 -11 11 -13 27 -2 15 -8 27 -13 27 -7 0 -8 -12 -4 -30 4
-19 3 -30 -4 -30 -6 0 -11 11 -11 24 0 38 -20 42 -21 4 -1 -27 -3 -29 -6 -8
-8 42 -23 47 -24 10 -1 -28 -3 -30 -6 -10 -3 14 -8 27 -13 30 -4 3 -9 24 -12
47 l-6 42 47 6 c25 4 51 8 56 10 24 8 37 3 60 -21z m60 -14 c3 -5 1 -10 -4
-10 -6 0 -11 5 -11 10 0 6 2 10 4 10 3 0 8 -4 11 -10z m-695 -4 c0 -11 -330
-99 -338 -91 -3 3 1 7 9 9 36 11 132 37 209 56 47 12 87 23 89 26 5 5 31 5 31
0z m45 -25 c0 -8 -7 -17 -15 -19 -13 -4 -13 -3 -2 11 8 9 -16 1 -55 -18 -72
-36 -191 -66 -258 -64 -34 1 -27 4 50 25 50 14 126 38 170 54 86 30 110 33
110 11z m661 0 c-3 -5 1 -11 9 -15 12 -4 45 -66 45 -83 0 -2 -10 -3 -22 -1
-23 3 -47 58 -25 58 7 0 4 5 -5 11 -20 11 -25 39 -7 39 5 0 8 -4 5 -9z m-683
-36 c4 -8 2 -17 -3 -20 -4 -3 -10 -1 -12 5 -2 7 -14 6 -36 -2 -33 -13 -42 -32
-19 -41 9 -4 8 -8 -3 -16 -17 -12 -14 -16 23 -25 23 -5 27 -3 27 14 0 11 5 20
10 20 19 0 10 -39 -11 -51 -17 -9 -24 -8 -31 2 -8 11 -9 10 -5 -2 4 -12 -8
-24 -42 -42 -54 -30 -226 -97 -247 -97 -19 0 -18 44 2 61 19 15 65 13 76 -4 4
-7 12 -4 23 6 9 10 21 17 26 17 5 0 9 11 9 25 0 29 -17 33 -36 8 -12 -16 -13
-15 -14 14 0 17 -4 35 -10 38 -22 14 -7 22 59 35 39 7 98 25 133 40 76 34 75
33 81 15z m-393 -4 c0 -17 -18 -21 -24 -6 -3 9 0 15 9 15 8 0 15 -4 15 -9z
m500 -85 c0 -12 -4 -26 -9 -31 -14 -16 -22 -69 -12 -84 5 -8 19 -12 34 -9 l24
5 -19 -33 c-17 -29 -18 -38 -8 -69 13 -41 4 -72 -78 -245 -37 -79 -45 -106
-46 -158 -1 -58 2 -66 26 -87 28 -24 54 -100 37 -111 -5 -3 -13 -19 -17 -37
-5 -19 -15 -31 -23 -30 -87 12 -286 103 -334 153 l-29 30 25 0 c56 1 156 66
185 122 17 33 9 55 -8 23 -22 -40 -85 -95 -102 -89 -10 4 -16 1 -16 -9 0 -16
-63 -31 -68 -16 -6 16 -22 10 -23 -8 -1 -15 -2 -15 -6 1 -5 18 -6 18 -19 -5
l-13 -24 -1 23 c0 13 -4 20 -10 17 -5 -3 -10 -15 -10 -25 0 -23 -20 -37 -30
-20 -6 9 -12 9 -30 0 -17 -9 -21 -9 -15 0 5 9 1 10 -14 5 -12 -4 -21 -2 -21 4
0 6 -7 11 -15 11 -9 0 -18 12 -21 30 -4 17 -13 30 -21 30 -8 0 -11 5 -8 11 4
6 -3 17 -14 26 -18 12 -20 17 -9 30 11 14 10 15 -12 8 -20 -6 -23 -5 -12 6 17
18 15 30 -3 23 -18 -7 -20 7 -4 23 9 9 6 10 -12 6 l-24 -6 20 23 20 23 -22 -7
c-14 -5 -23 -3 -23 3 0 6 5 11 10 11 6 0 10 5 10 11 0 8 -5 7 -15 -1 -21 -17
-31 -5 -14 16 12 15 12 16 -8 10 -23 -7 -43 12 -24 23 16 10 3 41 -14 35 -10
-4 -12 1 -8 17 5 17 3 20 -7 14 -10 -6 -12 -4 -7 8 10 27 -16 39 -64 28 -36
-8 -49 -7 -74 8 -33 20 -55 18 -55 -5 0 -8 -7 -17 -16 -21 -8 -3 -13 -12 -10
-19 3 -8 0 -11 -10 -7 -12 4 -14 0 -9 -23 3 -16 2 -23 -1 -16 -12 25 -26 12
-20 -19 5 -27 4 -30 -15 -24 -18 6 -20 4 -14 -14 5 -15 2 -21 -9 -21 -9 0 -16
-4 -16 -10 0 -5 -4 -10 -10 -10 -5 0 -10 20 -10 44 0 85 106 242 181 266 53
18 146 5 171 -23 10 -12 49 -57 85 -99 72 -85 121 -123 170 -131 23 -5 33 -2
37 10 4 11 2 14 -9 9 -21 -8 -19 0 7 24 12 11 32 20 44 20 13 0 26 5 29 10 9
15 -32 12 -64 -5 -16 -8 -31 -21 -34 -30 -14 -36 -89 4 -153 82 -31 38 -35 49
-30 78 4 18 14 43 24 55 17 21 19 21 59 5 38 -15 45 -15 73 -2 16 9 43 18 60
22 16 4 32 11 35 16 14 21 25 6 25 -31 0 -34 3 -40 21 -40 11 0 33 7 47 15 15
8 69 32 119 54 51 22 120 56 154 76 54 33 60 41 56 64 -3 14 1 38 9 52 l14 27
35 -35 c19 -19 35 -45 35 -57z m669 70 c9 -11 9 -16 0 -22 -7 -4 -9 -3 -5 4 3
6 -2 15 -11 21 -10 6 -13 11 -7 11 6 0 17 -6 23 -14z m-1233 -33 c-10 -10 -19
5 -10 18 6 11 8 11 12 0 2 -7 1 -15 -2 -18z m-26 13 c0 -3 -4 -8 -10 -11 -5
-3 -10 -1 -10 4 0 6 5 11 10 11 6 0 10 -2 10 -4z m-37 -12 c10 -10 -137 -82
-147 -73 -13 11 10 37 53 59 36 19 82 26 94 14z m143 -1 c-3 -4 -17 -8 -29
-10 -12 -2 -27 -10 -33 -18 -16 -21 -25 -7 -11 16 8 13 23 19 46 19 19 0 31
-3 27 -7z m68 -43 c-5 -23 -2 -31 12 -37 17 -6 16 -8 -6 -13 -20 -5 -28 -1
-42 22 -28 44 -27 45 34 57 4 0 5 -12 2 -29z m530 -22 c10 -73 8 -80 -33 -122
-23 -23 -41 -51 -41 -61 0 -17 -2 -17 -10 -5 -17 27 -11 51 25 93 31 35 35 47
35 94 0 63 15 63 24 1z m-694 27 c0 -8 -9 -15 -19 -15 -23 0 -56 -71 -37 -82
6 -4 16 -2 21 6 6 7 16 11 23 9 6 -3 12 2 12 11 0 9 5 16 11 16 19 0 1 -63
-24 -82 -12 -10 -31 -18 -42 -17 -20 0 -20 0 -1 14 11 8 23 15 28 15 4 0 8 4
8 9 0 5 -12 4 -27 -4 -45 -21 -71 -13 -93 30 -11 21 -17 42 -13 48 9 14 105
57 131 57 13 0 22 -6 22 -15z m120 -75 c0 -20 -4 -17 -20 19 -25 54 -25 63 0
31 11 -14 20 -36 20 -50z m78 51 c3 -8 -1 -12 -9 -9 -7 2 -15 10 -17 17 -3 8
1 12 9 9 7 -2 15 -10 17 -17z m397 -37 c-6 -34 -5 -35 17 -29 22 6 22 5 -2 -9
-32 -19 -44 -1 -29 43 15 42 23 39 14 -5z m-527 -33 c-2 -14 -12 -27 -27 -33
-19 -7 -22 -6 -12 5 6 8 7 18 3 22 -4 5 -1 5 7 0 12 -7 13 -1 8 31 -6 36 -5
38 9 19 8 -11 14 -31 12 -44z m1049 -13 l20 -23 -20 -19 c-20 -19 -20 -19 -15
0 3 11 -1 25 -9 32 -15 14 -17 32 -5 32 5 0 18 -10 29 -22z m-387 -69 c0 -9 9
-28 20 -42 11 -14 20 -30 20 -35 0 -6 16 -20 35 -32 41 -25 88 -100 79 -124
-7 -17 59 -106 78 -106 7 0 3 10 -8 23 -33 38 -53 82 -44 96 10 17 30 6 30
-17 0 -9 11 -28 25 -42 13 -14 26 -37 27 -50 2 -14 9 -29 16 -35 9 -7 -1 -10
-32 -10 -25 1 -48 4 -52 8 -16 15 -33 6 -36 -20 l-3 -28 -26 26 c-17 17 -32
48 -42 90 -23 95 -41 138 -70 166 -21 21 -30 24 -54 17 l-28 -8 30 -4 c34 -4
56 -19 53 -36 -1 -6 8 -31 21 -56 16 -30 20 -45 12 -48 -9 -3 -9 -7 0 -18 9
-12 9 -13 -3 -9 -20 8 -19 -26 1 -42 14 -10 12 -11 -8 -6 -17 4 -22 3 -17 -5
4 -7 13 -12 20 -12 8 0 20 -7 27 -17 13 -15 12 -15 -18 0 -49 26 -52 20 -5
-10 23 -15 42 -31 42 -35 0 -5 -18 3 -40 17 -56 35 -61 31 -11 -11 53 -46 47
-56 -10 -15 -23 17 -45 28 -48 25 -3 -4 -1 -9 5 -11 6 -2 20 -11 30 -19 18
-14 18 -15 -6 -8 -23 6 -23 6 5 -19 l30 -26 -35 13 c-19 7 -52 21 -72 31 -21
10 -41 16 -44 12 -9 -9 3 -37 16 -37 6 0 8 5 5 10 -8 13 1 13 26 0 10 -6 31
-38 46 -70 14 -33 31 -60 36 -60 5 0 7 6 4 13 -16 43 -18 59 -8 53 6 -4 11
-16 11 -26 0 -25 16 -34 24 -14 4 11 10 13 19 6 7 -5 21 -6 32 -1 39 15 45 10
27 -21 -9 -16 -25 -30 -34 -30 -20 0 -22 -8 -9 -29 6 -10 5 -22 -2 -35 -11
-19 -12 -17 -17 19 -4 31 -9 40 -25 40 -32 1 -44 13 -72 71 -14 30 -29 54 -34
54 -11 0 34 -95 57 -122 19 -21 19 -21 -3 -16 -15 4 -23 1 -26 -11 -3 -10 -5
-8 -6 7 0 13 -5 20 -11 17 -6 -4 -7 -11 -4 -17 4 -6 0 -14 -7 -19 -9 -6 0 -9
29 -9 82 0 44 -24 -82 -50 -31 -7 -25 -8 28 -3 55 4 67 3 61 -7 -6 -10 -4 -12
8 -7 10 3 17 2 17 -3 0 -6 -4 -10 -10 -10 -5 0 -10 -6 -10 -14 0 -8 -17 -21
-37 -30 l-38 -16 40 5 c31 4 35 3 19 -4 -28 -12 -40 -31 -15 -24 17 4 38 -23
26 -35 -3 -3 -5 0 -5 6 0 7 -10 12 -22 12 -17 0 -19 -3 -10 -12 9 -9 7 -14 -6
-24 -16 -13 -15 -14 6 -20 32 -9 27 -26 -5 -19 -25 6 -26 5 -8 -6 11 -7 21
-13 23 -14 1 -1 -19 -46 -45 -100 -39 -81 -48 -94 -55 -76 -4 12 -13 21 -20
21 -9 0 -9 -3 0 -12 7 -7 12 -21 12 -31 0 -17 -2 -17 -19 4 -14 18 -17 29 -10
48 5 13 7 26 5 29 -6 6 -20 -28 -42 -105 -9 -32 -20 -62 -24 -67 -5 -4 -32 -1
-61 7 -65 20 -74 15 -22 -11 21 -11 51 -32 66 -46 l28 -26 -93 -2 c-51 -1
-102 0 -113 1 -11 2 -42 4 -70 6 -27 1 -77 5 -110 9 -120 13 -135 14 -135 7 0
-5 42 -11 93 -16 50 -4 110 -9 132 -12 129 -15 469 -17 494 -3 13 7 104 11
248 12 155 2 199 4 138 8 -81 5 -264 -1 -480 -16 l-80 -6 26 21 c21 16 38 20
88 17 34 -2 64 1 67 6 7 11 27 11 309 2 99 -3 192 -5 208 -5 36 0 34 -5 -12
-28 -21 -11 -41 -27 -44 -35 -3 -8 -24 -26 -46 -40 -45 -29 -109 -95 -130
-133 l-13 -26 -657 7 c-361 4 -715 8 -788 8 -90 0 -133 3 -136 11 -7 21 0 97
9 100 5 1 12 -18 15 -43 8 -56 15 -44 18 29 1 36 3 39 35 43 41 5 80 -6 56
-15 -8 -4 -28 -8 -45 -10 -25 -3 -23 -4 10 -5 22 -1 47 3 55 8 13 8 11 12 -7
30 -12 11 -26 20 -31 20 -5 0 -15 7 -22 15 -7 8 -24 16 -39 16 -26 1 -26 1 3
8 16 3 31 11 33 17 5 15 -31 24 -48 13 -11 -7 -9 -9 6 -10 11 -1 4 -5 -15 -8
-42 -8 -47 -6 -31 13 8 10 9 16 1 21 -32 20 11 108 77 159 25 19 30 16 133
-64 85 -67 80 -64 80 -49 0 8 -14 23 -30 34 -16 11 -30 27 -30 36 0 19 105
119 123 118 7 0 26 -17 42 -37 45 -55 192 -192 206 -192 8 0 -9 23 -36 50 -47
48 -48 51 -31 68 17 16 17 16 11 -13 -6 -29 -6 -29 9 -11 9 11 16 26 16 33 0
7 24 -6 53 -29 28 -24 75 -57 102 -74 48 -29 55 -31 170 -33 66 -1 128 -4 139
-8 12 -3 16 -1 12 6 -4 6 -40 11 -84 12 -136 1 -182 11 -243 52 -31 20 -72 53
-90 72 -39 40 -56 43 -92 15 -14 -11 -29 -20 -34 -20 -12 0 -138 131 -144 149
-3 8 -33 -17 -82 -69 l-77 -83 -44 37 c-24 20 -51 36 -58 36 -8 0 -32 -18 -53
-40 -21 -22 -43 -40 -47 -40 -4 0 -7 124 -7 275 0 246 4 297 23 267 2 -4 24
-22 49 -40 l45 -32 25 20 c21 17 26 31 32 92 3 40 8 85 11 99 4 22 1 28 -19
33 -16 4 -23 12 -23 27 1 15 -10 28 -31 40 -28 16 -33 16 -33 4 0 -9 -10 -15
-25 -15 -26 0 -26 1 -3 63 6 15 13 27 15 27 3 0 48 -45 100 -100 52 -55 100
-100 106 -100 6 0 18 -7 28 -16 28 -25 83 -22 125 8 l37 27 43 -47 43 -47 94
0 c76 0 97 -3 111 -18 64 -64 239 -147 310 -147 46 0 55 -14 45 -63 -18 -81
-43 -157 -53 -157 -17 0 -46 -33 -46 -52 0 -11 4 -17 9 -14 5 4 12 0 14 -6 4
-10 8 -10 15 1 8 11 14 10 36 -5 50 -37 16 -58 -39 -24 -45 28 -189 35 -205
10 -14 -22 -13 -23 32 -45 58 -27 100 -65 94 -82 -3 -8 0 -13 7 -12 13 2 61
-14 91 -32 25 -14 33 -4 44 61 13 69 28 110 42 110 14 0 12 19 -4 36 -16 15
-15 19 20 144 24 85 31 142 15 124 -4 -5 -19 -54 -31 -109 -26 -109 -36 -130
-45 -94 -5 22 45 263 58 276 3 3 19 1 34 -4 15 -5 39 -6 53 -2 22 6 21 7 -11
8 -33 1 -37 4 -44 34 -6 28 -8 29 -15 12 -6 -17 -9 -13 -15 20 -4 22 -17 50
-29 63 -18 20 -21 35 -20 100 1 71 4 83 42 151 40 73 40 74 35 33 -4 -31 -1
-49 15 -74 14 -22 22 -28 25 -18 2 8 13 51 23 95 16 68 22 80 42 83 12 2 22 8
22 14 0 6 -10 8 -22 4 -75 -21 -71 -22 -63 15 4 18 21 46 37 61 24 23 29 33
23 57 -4 20 -1 34 11 45 15 16 17 16 30 -1 7 -10 14 -25 14 -34z m687 0 c65
-17 123 -74 123 -122 0 -29 -4 -36 -22 -39 -27 -4 -88 13 -88 24 0 5 -13 8
-29 8 -32 0 -58 -20 -72 -56 -5 -16 -14 -22 -24 -18 -21 8 -19 41 3 48 10 3
26 20 35 36 16 27 17 31 3 36 -22 8 -20 23 7 45 l22 18 -43 1 c-52 0 -97 -22
-105 -50 -4 -17 -12 -21 -38 -18 -50 5 -44 20 21 52 95 45 136 52 207 35z
m-2023 -51 c-5 -27 -4 -31 8 -21 11 10 13 8 12 -10 -1 -31 -14 -67 -23 -67 -5
0 -7 24 -6 53 3 69 4 77 11 77 3 0 2 -15 -2 -32z m1266 12 c0 -5 -4 -10 -10
-10 -5 0 -10 5 -10 10 0 6 5 10 10 10 6 0 10 -4 10 -10z m729 -116 c-10 -13
-10 -17 0 -24 11 -6 10 -10 -4 -17 -15 -9 -15 -11 -1 -26 9 -8 16 -20 16 -25
0 -6 6 -13 13 -15 9 -4 9 -8 -2 -16 -12 -8 -10 -12 12 -22 15 -7 34 -23 42
-36 9 -12 22 -23 30 -23 21 0 19 -17 -3 -29 -13 -7 -24 -4 -42 10 -30 23 -70
25 -70 4 0 -9 7 -18 15 -21 10 -4 13 -13 9 -26 -3 -12 -1 -24 6 -28 15 -9 5
-30 -14 -30 -7 0 -18 11 -24 25 -6 13 -28 31 -49 40 l-37 16 32 19 c29 18 32
25 32 67 0 34 -6 53 -21 69 l-21 22 21 11 c12 7 21 17 21 23 0 14 30 48 43 48
5 0 4 -7 -4 -16z m-1716 -32 c32 -30 34 -42 9 -42 -20 0 -112 57 -112 69 0 17
77 -3 103 -27z m1817 8 c0 -5 -9 -10 -21 -10 -11 0 -17 5 -14 10 3 6 13 10 21
10 8 0 14 -4 14 -10z m-875 -43 c-7 -23 -15 -51 -18 -62 -4 -11 -4 4 -2 33 4
54 10 72 25 72 4 0 2 -19 -5 -43z m925 -47 c0 -51 -4 -90 -10 -90 -17 0 -80
62 -74 72 4 6 -4 19 -17 30 l-24 19 25 -6 c30 -6 54 7 48 26 -5 13 25 38 45
39 4 0 7 -40 7 -90z m-2004 65 c-3 -8 -1 -15 5 -15 6 0 7 -4 4 -10 -9 -14 8
-12 24 3 11 10 13 9 9 -3 -3 -8 2 -21 10 -29 12 -12 15 -12 23 0 7 9 8 4 4
-16 l-7 -30 22 25 22 25 -5 -23 c-4 -18 -2 -22 9 -18 8 3 14 0 14 -7 0 -7 7
-3 15 7 15 19 15 19 15 -3 0 -12 4 -19 10 -16 6 3 10 15 10 26 0 10 5 19 11
19 6 0 8 -9 4 -21 -5 -16 -3 -20 6 -17 14 5 50 -48 71 -102 9 -24 9 -24 -11
-5 -23 19 -25 16 -21 -36 2 -31 -27 -60 -40 -39 -4 7 -17 11 -28 8 -15 -4 -19
-2 -15 9 5 13 3 13 -17 3 -20 -11 -22 -10 -17 4 4 9 3 15 -1 13 -13 -4 -72 60
-69 74 2 8 2 11 0 7 -11 -20 -25 -6 -18 19 5 23 4 25 -9 14 -13 -11 -16 -11
-16 1 0 8 -13 27 -30 43 -35 34 -37 53 -10 83 24 26 35 28 26 7z m1794 -91 c0
-34 -14 -53 -24 -32 -4 9 -10 6 -22 -9 -22 -31 -48 -29 -63 4 -12 27 -12 27 6
11 25 -23 47 -8 41 27 -4 21 -1 29 13 32 11 3 19 10 19 15 0 6 7 5 15 -2 8 -7
15 -27 15 -46z m-535 -24 c3 -6 -1 -7 -9 -4 -18 7 -21 14 -7 14 6 0 13 -4 16
-10z m745 -83 c0 -19 -5 -22 -40 -23 -47 -2 -53 12 -10 21 17 4 30 11 30 16 0
5 5 9 10 9 6 0 10 -10 10 -23z m-2045 -14 c-17 -70 -26 -139 -21 -164 4 -22 2
-27 -9 -22 -8 3 -15 14 -15 24 0 24 -17 25 -23 2 -10 -37 -6 46 4 103 12 67
23 84 51 84 17 0 19 -4 13 -27z m1589 21 c23 -9 20 -24 -4 -24 -11 0 -20 7
-20 15 0 17 2 18 24 9z m-84 -23 c0 -23 16 -36 25 -21 8 14 52 13 61 -1 5 -8
-1 -10 -20 -7 -20 4 -31 0 -39 -13 -13 -20 -61 -26 -72 -9 -3 6 3 10 15 10 16
0 19 4 12 18 -10 19 -5 42 9 42 5 0 9 -9 9 -19z m435 -11 c3 -5 1 -10 -4 -10
-6 0 -11 5 -11 10 0 6 2 10 4 10 3 0 8 -4 11 -10z m59 -24 c-3 -8 -12 -12 -21
-9 -12 5 -12 7 -1 14 20 13 28 11 22 -5z m-2090 -55 c-9 -81 -24 -87 -24 -10
0 52 3 66 15 66 12 0 14 -11 9 -56z m2136 39 c0 -15 -7 -20 -26 -20 l-26 0 23
20 c30 24 29 24 29 0z m-2004 -27 c-3 -16 -8 -47 -11 -70 -10 -67 -29 -53 -22
16 5 63 12 81 28 81 6 0 8 -12 5 -27z m1534 12 c11 -13 8 -15 -20 -15 -28 0
-31 2 -20 15 7 8 16 15 20 15 4 0 13 -7 20 -15z m275 -34 c-3 -11 -14 -23 -24
-26 -10 -3 -23 -15 -29 -28 l-11 -22 0 22 c-1 36 9 51 30 46 15 -4 22 0 26 16
3 12 8 20 10 17 3 -2 2 -14 -2 -25z m178 3 c7 -8 -17 -34 -32 -34 -6 0 -11 2
-11 4 0 2 -3 11 -6 20 -5 12 0 16 18 16 14 0 27 -3 31 -6z m-133 -25 c0 -11
-4 -18 -10 -14 -5 3 -7 12 -3 20 7 21 13 19 13 -6z m40 -5 c0 -8 -4 -12 -10
-9 -5 3 -10 10 -10 16 0 5 5 9 10 9 6 0 10 -7 10 -16z m-60 -70 c0 -16 8 -28
25 -36 31 -14 27 -34 -6 -30 -44 7 -61 40 -43 86 9 22 24 10 24 -20z m-1864
-31 c-7 -7 -26 7 -26 19 0 6 6 6 15 -2 9 -7 13 -15 11 -17z m1271 7 c-1 -22
-17 -28 -17 -7 0 12 9 27 16 27 2 0 2 -9 1 -20z m5 -67 c2 -14 9 -29 17 -31 8
-3 11 0 7 7 -5 7 2 11 21 10 18 -1 21 -3 10 -6 -12 -3 -16 -11 -12 -23 9 -27
-31 -37 -56 -14 -23 21 -27 84 -5 84 8 0 16 -12 18 -27z m58 17 c0 -5 -4 -10
-10 -10 -5 0 -10 5 -10 10 0 6 5 10 10 10 6 0 10 -4 10 -10z m81 -57 c3 -85
40 -152 131 -238 106 -100 178 -141 301 -172 137 -34 146 -48 47 -76 -64 -18
-189 -22 -415 -12 -88 3 -167 6 -175 5 -8 0 -36 -2 -61 -3 -26 -1 -53 -7 -60
-13 -9 -7 -33 -9 -64 -5 l-50 7 44 6 c24 4 49 12 55 19 8 9 7 10 -7 5 -70 -24
-70 -24 -65 36 3 41 20 89 66 184 35 73 65 150 68 177 6 44 9 48 29 43 36 -9
83 4 88 24 3 10 15 20 28 23 13 2 27 5 32 6 4 0 7 -7 8 -16z m-441 -218 c0 -9
7 -27 16 -40 20 -30 5 -33 -21 -5 -10 11 -29 20 -42 20 -14 0 -21 4 -18 10 3
6 15 10 26 10 10 0 19 5 19 10 0 6 5 10 10 10 6 0 10 -7 10 -15z m-185 -85 c3
-6 -5 -10 -19 -10 -14 0 -28 5 -31 10 -3 6 5 10 19 10 14 0 28 -4 31 -10z m37
-22 c-9 -9 -12 -7 -12 12 0 19 3 21 12 12 9 -9 9 -15 0 -24z m48 -9 c0 -24
-23 -21 -28 4 -2 10 3 17 12 17 10 0 16 -9 16 -21z m74 -25 c4 -15 3 -31 -2
-36 -6 -6 -11 4 -14 26 -5 42 7 48 16 10z m17 -55 c-5 -13 -10 -19 -10 -12 -1
15 10 45 15 40 3 -2 0 -15 -5 -28z m72 7 c4 -10 1 -13 -9 -9 -7 3 -14 9 -14
14 0 14 17 10 23 -5z m-16 -49 c4 -8 16 -18 25 -23 14 -8 14 -12 3 -27 -12
-17 -14 -17 -34 4 -22 23 -28 59 -11 59 5 0 13 -6 17 -13z m943 -54 c0 -36
-59 -101 -119 -133 -22 -11 -27 -10 -47 14 -25 29 -54 35 -54 11 0 -8 -7 -15
-16 -15 -8 0 -12 -4 -9 -10 3 -5 -1 -10 -10 -10 -9 0 -13 -4 -10 -10 4 -6 -8
-10 -27 -11 -31 -1 -31 -2 -8 -9 23 -6 22 -8 -15 -14 -62 -12 -75 -17 -75 -27
0 -6 9 -7 20 -4 12 4 40 3 63 -1 34 -5 38 -8 22 -15 -19 -7 -19 -8 3 -8 36 -1
25 -18 -15 -25 -68 -11 -163 -7 -163 7 1 16 105 127 121 127 6 0 28 18 48 39
29 31 51 43 111 61 41 12 93 27 115 35 56 18 65 17 65 -2z m-188 -190 c-36
-25 -52 -29 -52 -13 0 6 5 10 11 10 6 0 8 8 5 18 -9 27 32 44 53 23 15 -15 13
-18 -17 -38z m248 7 c0 -11 -7 -20 -15 -20 -18 0 -19 12 -3 28 16 16 18 15 18
-8z m-5 -55 c0 -16 -8 -21 -39 -23 -25 -2 -36 0 -31 7 3 6 16 11 28 12 12 0
16 3 10 6 -22 8 -14 25 10 21 14 -2 22 -10 22 -23z m-1080 -57 c215 1 545 3
735 3 l345 1 0 -123 0 -124 -565 3 c-311 2 -567 6 -570 9 -3 3 1 8 8 10 6 3
12 17 12 33 0 16 5 30 11 32 5 2 7 11 3 21 -5 13 -10 15 -19 7 -10 -8 -15 -8
-20 1 -4 6 -1 15 6 20 17 10 5 23 -16 16 -19 -8 -19 -36 1 -76 15 -30 15 -34
-1 -51 -19 -21 4 -20 -854 -24 l-134 -1 -2 120 c-1 66 0 124 3 129 3 6 138 6
336 1 182 -5 507 -8 721 -7z"/>
<path d="M940 3530 c0 -5 5 -10 11 -10 5 0 7 5 4 10 -3 6 -8 10 -11 10 -2 0
-4 -4 -4 -10z"/>
<path d="M946 3293 c-3 -3 -6 -15 -6 -25 0 -11 -7 -18 -20 -18 -11 0 -20 -4
-20 -10 0 -14 43 -13 58 2 7 7 12 20 12 29 0 20 -14 32 -24 22z"/>
<path d="M1086 3571 c-4 -7 -5 -15 -2 -18 9 -9 19 4 14 18 -4 11 -6 11 -12 0z"/>
<path d="M1054 3514 c3 -9 6 -19 6 -22 0 -9 20 21 20 31 0 4 -7 7 -16 7 -11 0
-14 -5 -10 -16z"/>
<path d="M1515 3120 c3 -5 8 -10 11 -10 2 0 4 5 4 10 0 6 -5 10 -11 10 -5 0
-7 -4 -4 -10z"/>
<path d="M1565 3070 c-3 -5 -1 -10 4 -10 6 0 11 5 11 10 0 6 -2 10 -4 10 -3 0
-8 -4 -11 -10z"/>
<path d="M1586 3041 c-4 -5 -2 -12 3 -15 5 -4 12 -2 15 3 4 5 2 12 -3 15 -5 4
-12 2 -15 -3z"/>
<path d="M1398 3023 c-10 -2 -18 -9 -18 -14 0 -12 14 -11 27 2 8 8 17 7 34 -2
22 -11 23 -11 10 4 -14 17 -21 19 -53 10z"/>
<path d="M1406 2991 c-9 -13 19 -32 38 -25 9 3 13 10 10 16 -3 5 -12 4 -22 -4
-13 -11 -15 -10 -9 5 6 17 -7 24 -17 8z"/>
<path d="M455 2217 c-25 -21 -27 -27 -18 -53 18 -52 77 -19 71 40 -4 39 -20
42 -53 13z m40 -7 c3 -5 2 -10 -4 -10 -5 0 -13 5 -16 10 -3 6 -2 10 4 10 5 0
13 -4 16 -10z"/>
<path d="M326 2138 c-8 -32 -7 -48 2 -48 4 0 8 16 9 35 1 40 -2 44 -11 13z"/>
<path d="M1767 2240 c-3 -11 -2 -20 3 -20 4 0 10 9 13 20 3 11 2 20 -3 20 -4
0 -10 -9 -13 -20z"/>
<path d="M1302 2090 c-17 -28 -15 -39 4 -15 8 11 18 19 22 17 3 -2 8 2 10 10
3 10 2 10 -6 -1 -6 -9 -11 -10 -13 -2 -2 6 -10 2 -17 -9z"/>
<path d="M1530 2062 c0 -13 -9 -37 -20 -52 -22 -31 -12 -50 12 -22 21 23 29
64 18 82 -8 12 -10 10 -10 -8z"/>
<path d="M1650 1750 c19 -27 40 -40 40 -25 0 15 -34 55 -47 55 -11 0 -9 -7 7
-30z"/>
<path d="M950 2011 c0 -17 -4 -33 -10 -36 -18 -11 -10 -25 14 -25 13 0 26 -6
29 -12 3 -9 13 -5 31 11 31 29 33 41 6 48 -11 3 -20 11 -20 18 0 12 -21 25
-41 25 -5 0 -9 -13 -9 -29z m27 -13 c-3 -8 -6 -5 -6 6 -1 11 2 17 5 13 3 -3 4
-12 1 -19z"/>
<path d="M885 2010 c-3 -5 -1 -10 4 -10 6 0 11 5 11 10 0 6 -2 10 -4 10 -3 0
-8 -4 -11 -10z"/>
<path d="M788 1873 c7 -3 16 -2 19 1 4 3 -2 6 -13 5 -11 0 -14 -3 -6 -6z"/>
<path d="M1343 1768 c-27 -13 -31 -34 -5 -23 9 4 25 10 35 12 19 6 23 23 5 22
-7 0 -23 -5 -35 -11z"/>
<path d="M1238 1448 c-1 -13 -2 -32 -2 -42 -1 -11 -7 -21 -14 -24 -18 -6 -44
-60 -32 -67 6 -3 10 1 10 10 0 9 12 28 26 42 26 26 43 103 23 103 -5 0 -10
-10 -11 -22z"/>
<path d="M1240 1208 c0 -9 5 -20 10 -23 13 -8 13 5 0 25 -8 13 -10 13 -10 -2z"/>
<path d="M1271 1194 c0 -11 3 -14 6 -6 3 7 2 16 -1 19 -3 4 -6 -2 -5 -13z"/>
<path d="M1290 1200 c0 -5 5 -10 11 -10 5 0 7 5 4 10 -3 6 -8 10 -11 10 -2 0
-4 -4 -4 -10z"/>
<path d="M1200 1129 c0 -11 4 -18 10 -14 5 3 7 12 3 20 -7 21 -13 19 -13 -6z"/>
<path d="M1296 1091 c-3 -4 6 -6 19 -3 14 2 25 6 25 8 0 8 -39 4 -44 -5z"/>
<path d="M1310 1070 c-18 -12 -2 -12 25 0 13 6 15 9 5 9 -8 0 -22 -4 -30 -9z"/>
<path d="M1285 880 c3 -5 10 -10 16 -10 5 0 9 5 9 10 0 6 -7 10 -16 10 -8 0
-12 -4 -9 -10z"/>
<path d="M1265 860 c3 -5 11 -10 16 -10 6 0 7 5 4 10 -3 6 -11 10 -16 10 -6 0
-7 -4 -4 -10z"/>
<path d="M1250 830 c0 -5 7 -10 16 -10 8 0 12 5 9 10 -3 6 -10 10 -16 10 -5 0
-9 -4 -9 -10z"/>
<path d="M1255 800 c3 -5 8 -10 11 -10 2 0 4 5 4 10 0 6 -5 10 -11 10 -5 0 -7
-4 -4 -10z"/>
<path d="M1223 775 c-10 -10 -9 -16 4 -27 15 -11 16 -11 10 6 -6 14 -4 17 9
12 10 -4 14 -1 12 6 -6 17 -21 19 -35 3z"/>
<path d="M337 733 c-16 -32 -30 -83 -22 -83 4 0 26 43 53 103 2 4 -1 7 -7 7
-6 0 -17 -12 -24 -27z"/>
<path d="M348 588 c8 -8 42 -13 80 -14 40 -1 81 -8 102 -18 34 -17 33 -17 -75
-11 -75 3 -105 2 -95 -5 8 -5 28 -10 43 -10 16 0 26 -4 22 -10 -3 -5 1 -10 9
-10 8 0 18 5 21 10 3 6 38 10 76 10 45 0 69 4 67 11 -2 5 -37 22 -78 36 -59
20 -77 23 -92 14 -13 -8 -24 -8 -38 -1 -10 5 -27 10 -36 10 -14 0 -15 -3 -6
-12z"/>
<path d="M210 550 c19 -4 52 -15 72 -24 21 -9 48 -16 60 -15 20 0 19 2 -7 11
-16 5 -44 16 -62 24 -17 8 -46 13 -65 13 l-33 -1 35 -8z"/>
<path d="M378 503 c6 -2 18 -2 25 0 6 3 1 5 -13 5 -14 0 -19 -2 -12 -5z"/>
<path d="M580 492 c0 -5 66 -12 153 -16 172 -7 931 -7 923 1 -2 3 -220 7 -483
9 -263 2 -504 6 -535 10 -35 3 -58 2 -58 -4z"/>
<path d="M225 480 c3 -6 17 -10 31 -10 14 0 22 -4 19 -10 -3 -6 4 -10 17 -10
19 0 20 2 8 14 -18 16 -84 30 -75 16z"/>
<path d="M535 480 c3 -5 12 -7 20 -3 21 7 19 13 -6 13 -11 0 -18 -4 -14 -10z"/>
<path d="M470 449 c-16 -5 -4 -6 35 -2 33 3 62 7 64 9 8 8 -74 2 -99 -7z"/>
<path d="M338 443 c12 -2 30 -2 40 0 9 3 -1 5 -23 4 -22 0 -30 -2 -17 -4z"/>
<path d="M408 443 c7 -3 16 -2 19 1 4 3 -2 6 -13 5 -11 0 -14 -3 -6 -6z"/>
<path d="M828 443 c12 -2 32 -2 45 0 12 2 2 4 -23 4 -25 0 -35 -2 -22 -4z"/>
<path d="M998 433 c56 -2 148 -2 205 0 56 1 10 3 -103 3 -113 0 -159 -2 -102
-3z"/>
<path d="M1393 433 c9 -2 23 -2 30 0 6 3 -1 5 -18 5 -16 0 -22 -2 -12 -5z"/>
<path d="M1513 433 c26 -2 67 -2 90 0 23 2 2 3 -48 3 -49 0 -68 -1 -42 -3z"/>
<path d="M105 400 c-3 -5 -1 -10 4 -10 6 0 11 5 11 10 0 6 -2 10 -4 10 -3 0
-8 -4 -11 -10z"/>
<path d="M795 400 l-20 -9 20 0 c11 0 27 4 35 9 13 9 13 10 0 9 -8 0 -24 -4
-35 -9z"/>
<path d="M210 390 l-65 -7 60 0 c33 -1 71 3 85 7 30 10 15 10 -80 0z"/>
<path d="M368 393 c6 -2 18 -2 25 0 6 3 1 5 -13 5 -14 0 -19 -2 -12 -5z"/>
<path d="M533 393 c37 -2 96 -2 130 0 34 2 4 3 -68 3 -71 0 -99 -1 -62 -3z"/>
<path d="M913 393 c15 -2 39 -2 55 0 15 2 2 4 -28 4 -30 0 -43 -2 -27 -4z"/>
<path d="M1018 383 c12 -2 30 -2 40 0 9 3 -1 5 -23 4 -22 0 -30 -2 -17 -4z"/>
<path d="M1150 384 c57 -7 268 -8 263 -1 -2 4 -68 6 -146 6 -78 -1 -131 -3
-117 -5z"/>
<path d="M1430 368 c0 -5 39 -7 88 -7 91 2 81 6 -26 11 -34 2 -62 0 -62 -4z"/>
<path d="M1915 410 c3 -5 8 -10 11 -10 2 0 4 5 4 10 0 6 -5 10 -11 10 -5 0 -7
-4 -4 -10z"/>
<path d="M60 210 c0 -5 4 -10 8 -10 5 0 8 -31 8 -68 -1 -65 0 -68 21 -64 18 3
21 9 17 32 -4 16 -1 31 6 35 15 9 41 -25 34 -47 -5 -16 2 -18 60 -18 36 0 66
4 66 9 0 5 -5 11 -11 13 -6 2 -9 23 -7 48 l3 45 33 -52 c21 -33 41 -53 52 -53
16 0 19 10 22 65 2 47 -1 66 -10 70 -23 8 -23 7 -16 -40 3 -25 4 -45 1 -45 -2
0 -16 18 -31 40 -23 35 -31 40 -64 39 -20 0 -31 -3 -24 -6 8 -3 12 -26 12 -64
0 -50 -3 -59 -17 -59 -17 0 -73 68 -73 88 0 5 10 17 23 25 21 15 21 16 2 16
-11 1 -26 -8 -33 -19 -17 -28 -34 -25 -26 5 6 23 3 25 -25 25 -17 0 -31 -4
-31 -10z"/>
<path d="M407 208 c4 -7 8 -40 8 -73 0 -49 3 -60 18 -63 15 -3 17 5 17 56 0
33 3 67 6 76 5 13 -1 16 -26 16 -22 0 -29 -3 -23 -12z"/>
<path d="M502 214 c-22 -10 -44 -64 -37 -94 11 -51 115 -64 115 -15 0 25 -18
36 -50 30 -18 -3 -21 0 -18 23 2 23 8 27 33 27 20 0 30 5 30 15 0 15 -47 24
-73 14z m39 -107 c-1 -12 -15 -9 -19 4 -3 6 1 10 8 8 6 -3 11 -8 11 -12z"/>
<path d="M605 150 c0 -58 3 -71 17 -76 27 -8 40 5 36 39 -2 24 1 33 15 35 13
3 17 -4 17 -31 0 -39 5 -46 28 -40 14 3 16 15 14 73 -3 61 -6 70 -23 70 -14 0
-19 -7 -19 -25 0 -18 -5 -25 -20 -25 -15 0 -20 7 -20 25 0 19 -5 25 -22 25
-22 0 -23 -4 -23 -70z"/>
<path d="M770 212 c-6 -2 -10 -10 -10 -18 0 -10 7 -13 25 -8 25 6 25 5 25 -55
0 -54 2 -61 20 -61 18 0 20 7 20 60 0 55 2 60 21 57 12 -1 24 3 26 10 3 7 -16
12 -57 15 -33 1 -65 2 -70 0z"/>
<path d="M1160 202 c0 -4 4 -12 8 -17 5 -6 19 -36 32 -67 12 -32 26 -58 31
-58 6 0 19 16 31 36 l21 35 21 -31 c30 -43 54 -36 77 25 10 28 23 58 29 68 9
14 6 17 -15 17 -15 0 -25 -5 -24 -12 4 -19 -11 -77 -21 -83 -7 -4 -50 57 -50
71 0 3 10 9 23 14 17 7 11 9 -31 9 -52 1 -52 1 -38 -21 11 -19 11 -28 1 -52
-14 -33 -22 -25 -31 32 -6 38 -9 42 -35 42 -16 0 -29 -4 -29 -8z"/>
<path d="M1442 198 c3 -7 -6 -40 -19 -72 -13 -33 -23 -61 -23 -63 0 -2 12 -3
26 -3 20 0 25 4 20 16 -3 8 -1 24 4 34 8 14 16 17 37 11 22 -6 28 -13 26 -34
-2 -27 -1 -27 65 -27 58 1 65 2 50 14 -12 8 -18 27 -18 50 0 43 13 47 29 7 15
-35 69 -78 75 -59 3 7 6 41 8 76 4 63 4 63 -21 60 -24 -3 -26 -7 -23 -43 l3
-40 -27 42 c-21 32 -34 41 -53 41 -25 -1 -26 -3 -26 -62 0 -69 -13 -83 -30
-34 -26 77 -39 93 -74 96 -24 3 -32 0 -29 -10z m51 -32 c7 -18 -1 -26 -18 -19
-8 2 -11 11 -8 19 7 18 19 18 26 0z"/>
<path d="M1748 198 c6 -7 9 -41 8 -75 l-2 -63 33 0 c50 0 80 16 91 50 12 33 8
55 -16 83 -19 21 -132 26 -114 5z m103 -35 c15 -40 0 -78 -31 -78 -23 0 -25 4
-28 53 -3 50 -2 52 23 52 19 0 28 -7 36 -27z"/>
<path d="M1916 194 c-9 -8 -16 -24 -16 -35 0 -16 7 -19 41 -19 22 0 38 -4 34
-9 -3 -5 -1 -12 4 -16 6 -3 8 -12 4 -20 -6 -18 -50 -20 -56 -2 -3 8 -12 5 -28
-11 l-23 -22 52 0 c62 0 92 13 92 40 0 37 -12 50 -45 50 -20 0 -35 6 -38 15
-8 20 11 30 28 15 17 -15 36 -5 28 15 -7 20 -57 19 -77 -1z"/>
<path d="M946 117 c-37 -27 4 -63 42 -38 18 11 12 45 -8 49 -9 1 -24 -4 -34
-11z m29 -17 c3 -5 1 -10 -4 -10 -6 0 -11 5 -11 10 0 6 2 10 4 10 3 0 8 -4 11
-10z"/>
<path d="M2040 74 c0 -9 7 -14 17 -12 25 5 28 28 4 28 -12 0 -21 -6 -21 -16z"/>
</g>
</svg>
