<?xml version="1.0" standalone="no"?>
<!DOCTYPE svg PUBLIC "-//W3C//DTD SVG 20010904//EN"
 "http://www.w3.org/TR/2001/REC-SVG-20010904/DTD/svg10.dtd">
<svg version="1.0" xmlns="http://www.w3.org/2000/svg"
 width="223.000000pt" height="384.000000pt" viewBox="0 0 223.000000 384.000000"
 preserveAspectRatio="xMidYMid meet">
<metadata>
Created by potrace 1.16, written by Peter Selinger 2001-2019
</metadata>
<g transform="translate(0.000000,384.000000) scale(0.100000,-0.100000)"
fill="#000000" stroke="none">
<path d="M114 3822 c-85 -3 -92 -4 -98 -25 -3 -12 -6 -869 -6 -1904 l0 -1881
588 3 c323 2 815 4 1093 4 l506 1 6 42 c8 70 7 3721 -2 3743 -8 20 -17 20
-1002 20 -547 0 -1035 -1 -1085 -3z m626 -32 c0 -4 -9 -6 -19 -3 -17 4 -19 0
-18 -30 1 -23 6 -33 15 -29 7 2 10 12 7 23 -5 14 -2 17 10 13 8 -4 14 -13 13
-22 -2 -8 3 -17 10 -19 6 -3 12 0 12 6 0 7 9 5 24 -4 23 -16 24 -15 19 4 -3
13 -1 21 6 21 7 0 9 -4 6 -10 -4 -6 6 -10 24 -10 22 0 29 4 25 14 -3 7 2 16
11 20 10 3 15 12 12 20 -3 8 -3 17 0 20 8 8 54 -34 48 -44 -2 -4 12 -16 33
-26 20 -11 41 -30 47 -42 5 -12 17 -22 25 -22 9 0 25 -7 36 -15 18 -14 18 -14
-8 -15 -35 0 -37 -17 -3 -26 33 -8 32 -23 -1 -21 -15 1 -29 -4 -31 -10 -3 -9
6 -13 26 -13 30 0 49 -14 33 -24 -5 -3 -6 -20 -4 -38 5 -30 3 -32 -12 -19 -20
17 -21 8 -1 -13 9 -9 18 -42 22 -80 7 -81 23 -76 23 7 1 62 1 62 39 80 49 22
48 22 56 -15 7 -32 40 -78 56 -78 5 0 -3 12 -16 26 -14 15 -27 42 -31 60 -7
37 -26 43 -58 19 -33 -25 -49 -19 -44 15 3 17 1 30 -4 30 -5 0 -6 5 -3 10 3 6
17 10 31 10 15 0 24 6 24 16 0 12 -7 14 -32 9 -32 -7 -33 -7 -15 12 20 23 25
55 5 35 -19 -19 -28 -14 -28 18 0 34 6 37 39 14 21 -15 22 -15 20 2 -5 28 17
61 46 68 13 3 32 20 40 36 12 24 22 30 46 30 27 0 30 -2 19 -15 -7 -9 -11 -17
-9 -18 49 -35 86 -40 127 -18 15 8 22 20 20 34 -3 20 0 22 47 19 28 -2 54 -7
58 -12 5 -4 9 -93 8 -196 0 -104 -1 -247 -1 -318 0 -113 -2 -127 -15 -116 -8
7 -25 10 -40 6 -28 -7 -51 -41 -35 -51 5 -3 10 -14 10 -23 0 -13 -2 -14 -9 -3
-6 10 -13 11 -29 2 -27 -15 -45 -14 -39 2 2 6 11 11 20 9 11 -2 15 2 11 13 -9
22 -17 19 -51 -20 -17 -19 -38 -35 -46 -35 -9 0 -17 -14 -21 -35 -4 -21 -13
-35 -21 -35 -20 0 -19 -29 1 -37 12 -4 8 -10 -16 -25 -27 -16 -31 -23 -25 -48
6 -29 6 -30 -34 -30 -22 0 -43 5 -46 10 -5 9 7 14 26 12 4 -1 5 7 2 17 -3 12
2 20 16 24 50 13 62 133 20 203 -24 39 -24 62 -1 87 10 12 11 17 3 12 -10 -6
-12 -4 -6 5 6 10 4 12 -8 7 -9 -3 -19 -2 -22 3 -4 6 2 10 12 10 14 0 15 2 4 9
-7 5 -11 15 -9 22 4 9 10 5 18 -13 7 -15 17 -25 23 -21 6 3 7 1 4 -4 -4 -6 1
-19 11 -30 9 -10 14 -14 10 -8 -4 7 -10 25 -12 41 -6 46 -17 68 -27 52 -6 -9
-9 -6 -9 10 0 14 4 21 11 17 6 -4 9 0 7 11 -2 11 6 23 20 29 36 19 38 26 4 14
-18 -6 -35 -15 -38 -20 -3 -5 -17 -6 -31 -3 -23 6 -25 5 -21 -17 3 -13 9 -39
14 -58 5 -26 4 -32 -5 -27 -7 5 -10 15 -7 23 3 8 2 12 -3 9 -5 -3 -20 3 -33
14 -14 11 -29 16 -32 12 -4 -4 -12 1 -17 10 -5 10 -16 15 -23 12 -10 -4 -16 3
-18 18 -5 36 -32 29 -36 -9 -3 -33 -16 -43 -25 -20 -4 7 -6 6 -6 -4 -1 -10 -9
-16 -18 -15 -12 1 -19 -7 -21 -26 -2 -14 -10 -29 -18 -32 -12 -5 -12 -2 -3 17
9 18 9 20 -1 10 -26 -24 -40 11 -40 101 0 78 -8 103 -25 76 -3 -5 -1 -10 4
-10 7 0 11 -26 11 -65 0 -54 -3 -67 -20 -77 -11 -7 -20 -18 -20 -25 0 -7 -4
-13 -10 -13 -5 0 -10 6 -10 14 0 8 5 18 10 21 12 8 13 25 1 25 -5 0 -14 -13
-20 -30 -5 -16 -16 -30 -23 -30 -8 0 -6 -5 5 -11 24 -14 21 -38 -7 -51 -34
-15 -52 -5 -66 36 -10 33 -8 48 31 164 58 173 57 279 -1 297 -27 9 -80 -16
-80 -37 0 -9 -4 -20 -10 -23 -6 -4 -6 -12 1 -23 8 -13 7 -27 -4 -55 -14 -32
-14 -37 -1 -37 17 0 19 -20 2 -21 -10 0 -10 -2 0 -6 6 -2 12 -11 12 -20 0 -22
30 -12 48 17 l16 25 -27 -24 -26 -24 6 37 c4 28 3 36 -8 34 -8 -2 -12 3 -10
12 3 8 5 34 6 56 0 42 18 74 39 74 58 0 73 -123 31 -236 -45 -119 -78 -249
-55 -214 8 13 10 13 10 -1 0 -9 8 -26 18 -38 21 -27 99 -35 106 -11 3 8 3 -3
1 -25 -4 -33 -3 -36 5 -17 22 52 66 -13 55 -79 -8 -46 -22 -46 -44 -2 -11 20
-26 33 -44 37 -17 3 -26 10 -22 17 4 6 -7 3 -24 -6 -17 -9 -36 -13 -41 -10 -6
3 -10 -5 -10 -19 0 -20 -6 -25 -27 -28 -25 -3 -28 -8 -30 -42 -1 -22 -6 -43
-11 -48 -5 -5 -2 -31 8 -61 14 -43 22 -53 46 -58 47 -9 98 -49 64 -49 -5 0
-10 4 -10 8 0 15 -50 32 -74 26 -13 -3 -30 -17 -37 -31 -12 -23 -11 -27 9 -44
19 -15 21 -22 13 -38 -16 -28 -13 -84 4 -107 21 -28 18 -50 -10 -68 -19 -13
-25 -25 -25 -53 0 -20 -3 -34 -6 -30 -3 3 -7 98 -7 211 -2 159 1 206 11 206 6
0 12 5 12 10 0 6 -4 10 -10 10 -13 0 -13 97 0 105 7 4 7 11 2 18 -12 16 -13
225 -1 233 5 3 6 11 2 17 -11 17 -13 44 -19 309 l-6 237 59 3 c62 3 73 2 73
-12z m123 11 c10 -1 15 -6 12 -12 -4 -6 -13 -8 -20 -5 -7 2 -16 -2 -19 -10 -7
-19 -26 -18 -26 1 0 18 -16 20 -23 3 -4 -10 -8 -10 -16 2 -15 21 -6 27 36 24
21 -1 46 -2 56 -3z m142 -1 c3 -5 0 -10 -8 -10 -10 0 -13 -7 -10 -20 3 -11 0
-20 -5 -20 -12 0 -32 31 -32 49 0 14 47 14 55 1z m415 6 c0 -2 3 -12 7 -21 5
-15 3 -16 -16 -6 -22 12 -45 6 -36 -10 3 -5 -1 -6 -9 -3 -24 9 -19 32 7 37 34
7 47 7 47 3z m762 -1585 c-1 -872 -4 -1587 -7 -1589 -2 -2 -35 16 -72 41 -37
24 -78 49 -90 56 -16 8 -23 24 -28 63 -6 38 -15 59 -35 78 -15 14 -32 42 -39
63 -11 32 -10 43 3 72 16 33 16 34 74 28 54 -5 134 -22 177 -38 18 -7 19 -7 4
9 -18 19 -135 50 -157 41 -18 -7 -82 4 -82 14 0 10 187 7 225 -4 25 -6 28 -5
17 6 -9 9 -39 14 -90 15 -149 3 -142 1 -142 29 0 13 5 36 12 50 8 19 8 31 0
50 -7 15 -8 26 -2 30 6 4 10 18 10 33 0 15 3 50 6 79 5 44 2 57 -15 79 -12 15
-21 32 -21 40 0 7 -4 14 -10 16 -5 2 -6 26 -1 61 10 71 12 69 -137 86 -130 15
-132 16 -131 55 l1 31 9 -33 c5 -17 14 -32 19 -32 22 0 29 41 23 137 l-6 100
32 6 c22 5 31 12 31 26 0 10 7 21 14 24 10 4 14 18 13 43 -3 41 -35 74 -73 74
-19 0 -24 5 -24 25 0 14 7 28 16 32 11 4 14 14 10 42 -4 20 -2 43 4 51 7 11
10 7 10 -20 0 -39 33 -120 49 -120 5 0 13 5 17 11 5 8 10 6 16 -5 15 -26 30
-19 76 34 54 63 82 132 64 160 -6 11 -12 26 -12 33 0 17 -44 59 -53 51 -4 -4
-13 -2 -20 4 -17 15 -30 3 -16 -14 13 -15 17 -131 6 -161 -5 -14 -4 -23 1 -23
18 0 34 95 24 134 -12 41 -2 54 20 28 22 -24 30 -101 15 -133 -12 -27 -72 -99
-82 -99 -3 0 -5 11 -5 24 0 14 -6 31 -14 38 -13 14 -14 59 -1 90 6 15 2 17
-32 15 -34 -2 -38 1 -41 24 -2 17 6 37 22 55 26 28 26 29 41 9 9 -11 20 -36
26 -57 5 -21 15 -38 20 -38 6 0 9 6 6 14 -3 8 -11 33 -18 56 -7 23 -21 47 -30
53 -14 8 -15 15 -6 34 14 31 -15 55 -60 49 -29 -4 -31 -3 -24 17 9 23 41 37
41 17 0 -6 -4 -8 -10 -5 -5 3 -10 1 -10 -4 0 -19 28 -12 35 9 7 22 13 24 34
11 21 -14 41 -2 41 25 0 19 5 24 26 24 23 0 25 3 20 25 -5 18 -2 27 9 31 19 8
20 30 1 37 -23 9 -26 46 -5 57 10 6 19 17 19 25 0 15 -35 30 -50 20 -5 -3 -10
0 -11 7 -1 7 -2 24 -2 38 -2 23 -6 25 -47 23 -25 -1 -55 -5 -67 -8 -19 -6 -23
-4 -23 14 0 24 10 27 28 9 13 -13 15 -8 6 16 -9 23 -21 20 -50 -11 -21 -22
-28 -25 -43 -16 -20 13 -41 0 -41 -25 0 -7 -6 -20 -14 -27 -12 -12 -15 18 -21
208 -4 122 -4 300 -1 396 3 95 6 231 6 302 l0 129 178 3 c97 1 231 3 297 2
l120 0 -3 -1584z m-1588 1350 c4 -224 1 -253 -32 -292 -11 -14 -11 -23 3 -55
12 -30 13 -39 3 -46 -27 -17 -33 2 -36 107 -4 124 -18 165 -57 165 -32 0 -34
31 -2 54 20 14 21 17 5 29 -10 8 -14 22 -11 37 6 33 -17 63 -41 54 -14 -5 -17
-14 -13 -39 4 -26 2 -32 -11 -31 -19 1 -24 -35 -5 -41 7 -3 9 3 6 17 -4 14 -1
20 8 18 9 -2 14 7 14 26 0 16 6 31 13 33 18 7 16 -53 -3 -61 -8 -3 -14 -15
-12 -28 2 -20 -2 -23 -26 -20 -18 2 -29 -2 -33 -13 -8 -20 11 -35 43 -35 28 0
40 -20 19 -32 -21 -12 -22 -84 -1 -96 13 -7 16 -43 20 -214 l5 -206 -25 -5
c-26 -4 -45 10 -27 22 11 6 15 25 13 54 -1 21 -31 23 -31 2 0 -18 -5 -19 -30
-3 -27 17 -31 8 -24 -45 l7 -45 61 1 61 1 8 -214 c4 -118 11 -267 15 -330 l8
-115 -27 -32 -27 -31 0 -173 c0 -95 -3 -214 -7 -264 l-7 -92 -69 -13 c-81 -14
-94 -29 -87 -101 4 -34 1 -52 -8 -60 -8 -6 -14 -21 -14 -32 0 -11 -7 -29 -16
-38 -14 -15 -15 -23 -5 -46 6 -16 22 -33 34 -38 12 -6 24 -19 26 -30 2 -11 8
-23 14 -27 7 -4 7 -11 1 -20 -17 -23 -17 -78 0 -78 13 0 13 -3 0 -27 -7 -16
-14 -34 -14 -40 0 -16 -3 -16 -34 -2 -20 9 -29 9 -42 -2 -14 -12 -19 -10 -38
11 -36 41 -106 92 -119 87 -11 -4 -13 737 -8 2431 l1 192 275 -2 275 -3 4
-224z m456 219 c0 -5 13 -7 30 -3 23 4 30 2 30 -10 0 -8 5 -17 12 -19 23 -8
-1 -38 -31 -38 -30 0 -54 21 -33 28 7 2 12 8 12 13 0 6 -4 8 -9 5 -5 -4 -12 0
-15 6 -3 9 -8 8 -16 -4 -6 -10 -15 -18 -21 -18 -5 0 -2 11 8 25 19 25 33 32
33 15z m120 -10 c17 -17 18 -23 8 -42 -22 -38 -39 -51 -69 -55 -38 -4 -37 12
1 26 36 12 46 34 32 67 -14 30 0 32 28 4z m80 12 c0 -10 -39 -47 -43 -41 -29
49 -29 49 8 49 19 0 35 -4 35 -8z m-190 -92 c0 -5 -4 -10 -10 -10 -5 0 -10 5
-10 10 0 6 5 10 10 10 6 0 10 -4 10 -10z m-640 -231 c0 -5 -9 -9 -20 -9 -19 0
-26 11 -14 23 8 8 34 -3 34 -14z m76 -55 c-3 -9 -2 -12 5 -9 6 4 8 -4 6 -22
-2 -15 1 -34 7 -42 8 -11 8 -15 -2 -18 -6 -3 -9 -10 -5 -16 11 -18 12 -107 1
-107 -5 0 -2 -7 6 -16 10 -10 14 -25 11 -42 -11 -53 -12 -73 -4 -78 5 -3 9
-30 9 -61 0 -41 -5 -59 -17 -69 -17 -13 -17 -13 1 -14 11 0 17 -3 13 -6 -3 -3
-1 -19 5 -35 7 -22 7 -33 -2 -44 -10 -12 -10 -15 0 -15 8 0 11 -9 8 -25 -3
-14 -1 -25 3 -25 5 0 9 -7 9 -15 0 -8 -6 -15 -12 -15 -10 0 -10 -2 -1 -8 15
-9 14 -74 -1 -69 -6 2 -14 44 -17 100 -7 106 -16 150 -27 143 -4 -2 -8 9 -8
25 -1 16 3 29 10 29 6 0 4 5 -4 10 -10 6 -11 10 -2 10 19 0 14 20 -5 20 -14 0
-15 2 -4 9 9 6 10 10 2 16 -9 5 -9 10 0 21 9 11 8 14 -5 14 -10 0 -14 5 -11
10 4 6 12 7 18 3 7 -4 6 0 -2 10 -11 14 -11 17 0 18 12 0 12 1 0 6 -11 5 -11
7 0 14 11 7 11 9 1 9 -7 0 -10 5 -7 10 3 6 1 10 -5 10 -8 0 -10 9 -5 28 13 53
14 62 2 63 -7 0 -3 4 8 9 18 7 19 8 3 15 -10 4 -18 11 -18 16 0 5 8 10 18 10
16 1 16 2 -1 6 -9 2 -15 9 -11 14 3 5 10 7 15 4 5 -3 6 1 3 10 -4 10 -16 14
-33 13 -19 -2 -25 1 -22 12 2 8 3 25 3 38 0 18 3 20 15 11 11 -10 15 -8 20 9
3 12 12 22 20 22 10 0 13 -6 9 -16z m564 -64 c0 -5 -4 -10 -10 -10 -5 0 -10 5
-10 10 0 6 5 10 10 10 6 0 10 -4 10 -10z m4 -61 c-5 -8 -10 -6 -16 5 -5 9 -6
21 -2 27 5 8 10 6 16 -5 5 -9 6 -21 2 -27z m156 31 c0 -5 -4 -10 -10 -10 -5 0
-10 5 -10 10 0 6 5 10 10 10 6 0 10 -4 10 -10z m-619 -43 c-8 -8 -11 -5 -11 9
0 27 14 41 18 19 2 -9 -1 -22 -7 -28z m496 11 c-4 -12 -2 -27 3 -33 5 -6 5
-17 0 -25 -8 -12 -10 -10 -10 8 0 12 -4 22 -9 22 -4 0 -6 11 -3 25 2 14 9 25
14 25 6 0 8 -10 5 -22z m53 -14 c0 -8 -4 -14 -10 -14 -5 0 -10 9 -10 21 0 11
5 17 10 14 6 -3 10 -13 10 -21z m-95 -6 c4 4 3 -3 -3 -14 -22 -43 43 -57 74
-17 13 17 13 17 14 -2 1 -18 2 -18 10 3 5 12 12 22 14 22 3 0 2 -7 -1 -17 -4
-11 -3 -14 6 -9 18 12 51 -23 51 -53 l0 -26 -103 0 c-75 0 -107 -3 -120 -14
-10 -8 -25 -15 -35 -16 -9 -1 -26 -5 -38 -8 -16 -6 -23 -2 -32 18 -17 37 -15
45 12 45 31 0 43 16 13 17 -47 1 -58 3 -52 12 3 5 -5 11 -17 13 -12 2 -23 10
-26 18 -3 12 -2 12 8 3 17 -16 40 -5 40 18 0 10 5 19 10 19 13 0 13 -23 0 -36
-8 -8 -6 -15 5 -24 13 -11 14 -10 9 4 -4 11 -1 16 11 16 11 0 15 -5 11 -15 -4
-12 0 -14 19 -9 15 4 25 2 25 -5 0 -14 37 -15 45 -1 3 6 -2 10 -12 10 -12 0
-19 8 -20 23 0 12 1 16 4 10 3 -7 9 -13 14 -13 6 0 5 8 -1 20 -13 24 -5 26 16
5 9 -8 13 -19 10 -24 -3 -5 0 -13 7 -19 9 -8 12 -4 12 14 0 13 -3 24 -7 24 -5
0 -8 8 -8 18 1 16 1 16 14 0 7 -10 17 -14 21 -10z m-458 -53 c11 -9 12 -81 5
-445 -9 -419 -20 -552 -36 -433 -3 28 -6 138 -6 245 0 106 -4 231 -10 278 -5
47 -10 132 -10 188 0 95 2 104 20 109 23 6 36 41 21 56 -6 6 -11 18 -10 27 0
13 1 13 6 0 4 -8 12 -20 20 -25z m943 -65 c0 -5 -4 -10 -10 -10 -5 0 -10 -5
-10 -11 0 -7 10 -9 25 -7 27 6 32 -1 13 -20 -9 -9 -9 -12 0 -12 14 0 16 -36 2
-45 -5 -3 -10 1 -10 9 0 9 -8 16 -19 16 -14 0 -21 10 -25 35 -4 20 -4 40 -1
45 8 13 35 13 35 0z m-500 -25 c-7 -8 -17 -12 -22 -9 -6 4 -5 10 3 15 22 14
33 10 19 -6z m134 5 c31 -11 34 -36 6 -43 -18 -5 -20 -12 -18 -60 2 -30 6 -53
11 -50 4 2 7 13 7 23 0 25 10 50 21 50 11 0 1 -152 -11 -164 -14 -14 -101 -8
-127 9 -12 8 -28 15 -35 15 -20 0 43 -39 74 -46 30 -6 58 -47 58 -84 0 -11 5
-20 11 -20 6 0 9 9 6 20 -6 25 5 32 38 24 32 -8 32 -24 -1 -64 -29 -33 -100
-75 -108 -62 -2 4 -24 7 -49 5 -54 -3 -74 10 -91 62 -16 45 -13 55 15 55 15 0
19 8 21 38 0 20 0 48 -1 61 -1 13 5 31 14 41 13 14 15 34 13 89 -4 61 -2 71
13 71 9 0 22 6 29 14 6 8 24 17 38 19 15 2 30 5 34 6 4 0 18 -3 32 -9z m-172
-54 c2 -19 1 -33 -3 -30 -4 2 -10 -4 -12 -13 -3 -10 -3 -2 -2 17 2 19 4 41 4
48 2 24 9 11 13 -22z m472 -13 c6 -15 8 -15 16 -3 8 12 10 10 10 -8 0 -20 -4
-22 -22 -17 -31 10 -42 21 -34 34 10 16 23 13 30 -6z m-724 -24 c0 -5 -7 -6
-15 -3 -8 4 -15 13 -15 21 0 13 3 13 15 3 8 -7 15 -16 15 -21z m77 5 c-9 -9
-28 6 -21 18 4 6 10 6 17 -1 6 -6 8 -13 4 -17z m410 4 c-3 -8 -6 -5 -6 6 -1
11 2 17 5 13 3 -3 4 -12 1 -19z m181 10 c-6 -18 -28 -21 -28 -4 0 9 7 16 16
16 9 0 14 -5 12 -12z m-628 -17 c0 -12 -20 -25 -27 -18 -7 7 6 27 18 27 5 0 9
-4 9 -9z m171 -11 c1 23 2 23 9 -5 4 -16 8 -41 9 -55 1 -22 -2 -20 -24 15 -13
22 -24 47 -24 55 0 9 6 5 14 -10 l14 -25 2 25z m404 10 c3 -5 -1 -10 -9 -10
-9 0 -16 5 -16 10 0 6 4 10 9 10 6 0 13 -4 16 -10z m74 -30 c4 0 12 5 18 11 7
7 12 6 16 -5 3 -8 1 -18 -5 -22 -7 -4 -6 -10 3 -16 11 -7 11 -11 2 -15 -7 -2
-13 -11 -13 -19 0 -19 -39 -18 -46 1 -4 8 -10 12 -15 10 -5 -3 -11 6 -15 21
-6 22 -2 31 17 47 21 17 24 17 27 3 2 -9 7 -16 11 -16z m-712 1 c-3 -13 1 -21
14 -24 11 -3 19 -1 19 5 0 6 9 8 20 5 11 -3 18 -1 14 4 -3 5 -1 9 5 9 14 0 31
-33 31 -59 0 -15 -5 -19 -17 -15 -14 5 -15 4 -4 -4 16 -12 5 -36 -14 -28 -7 2
-16 -1 -19 -9 -6 -18 -62 -3 -58 15 2 7 -2 17 -9 21 -16 10 -3 42 13 33 10 -6
11 -4 1 7 -16 16 -17 59 -2 59 6 0 9 -9 6 -19z m123 -1 c0 -11 -4 -20 -9 -20
-11 0 -22 26 -14 34 12 12 23 5 23 -14z m70 0 c6 -11 8 -20 6 -20 -3 0 -10 9
-16 20 -6 11 -8 20 -6 20 3 0 10 -9 16 -20z m328 -5 c-3 -3 -9 2 -12 12 -6 14
-5 15 5 6 7 -7 10 -15 7 -18z m317 16 c3 -5 1 -12 -4 -15 -5 -3 -11 1 -15 9
-6 16 9 21 19 6z m-875 -11 c0 -5 -4 -10 -10 -10 -5 0 -10 5 -10 10 0 6 5 10
10 10 6 0 10 -4 10 -10z m680 -5 c0 -8 -4 -15 -9 -15 -13 0 -22 16 -14 24 11
11 23 6 23 -9z m149 6 c12 -8 12 -12 2 -25 -19 -23 -31 -20 -31 9 0 27 6 30
29 16z m-644 -31 c3 -5 1 -10 -4 -10 -6 0 -11 5 -11 10 0 6 2 10 4 10 3 0 8
-4 11 -10z m-181 -15 c-4 -8 -10 -12 -15 -9 -14 8 -10 24 6 24 9 0 12 -6 9
-15z m646 11 c0 -11 -19 -15 -25 -6 -3 5 1 10 9 10 9 0 16 -2 16 -4z m-943
-28 c-3 -8 -6 -5 -6 6 -1 11 2 17 5 13 3 -3 4 -12 1 -19z m-40 -3 c9 -25 -4
-29 -17 -6 -7 15 -7 21 0 21 6 0 13 -7 17 -15z m507 -6 c-3 -5 -10 -7 -15 -3
-5 3 -7 10 -3 15 3 5 10 7 15 3 5 -3 7 -10 3 -15z m42 -18 c11 -28 24 -43 45
-50 36 -12 41 -56 8 -66 -31 -10 -35 2 -8 24 l24 20 -25 -6 c-14 -4 -35 -13
-48 -21 -34 -22 -92 -26 -92 -7 0 8 9 15 20 15 13 0 20 7 20 19 0 11 5 23 10
26 6 4 8 16 4 27 -4 15 -2 19 7 16 8 -3 13 -12 11 -22 -2 -9 2 -16 9 -16 11 0
8 25 -7 64 -3 9 -3 16 0 16 3 0 13 -18 22 -39z m464 24 c0 -8 -4 -15 -9 -15
-13 0 -22 16 -14 24 11 11 23 6 23 -9z m180 -5 c0 -5 -7 -10 -15 -10 -8 0 -15
5 -15 10 0 6 7 10 15 10 8 0 15 -4 15 -10z m-43 -17 c3 -7 -3 -10 -15 -6 -14
3 -21 -2 -25 -19 -5 -18 -9 -20 -18 -11 -10 10 -8 17 6 33 20 22 46 23 52 3z
m-98 -2 c12 -8 12 -12 2 -25 -16 -19 -31 -12 -31 15 0 21 7 23 29 10z m158
-11 c-3 -11 -2 -22 2 -25 5 -2 6 -35 3 -72 -2 -37 -4 -83 -4 -102 1 -23 -6
-39 -20 -51 -22 -17 -18 -40 7 -40 19 0 25 -24 15 -59 -5 -18 -5 -31 1 -33 6
-2 7 -12 2 -26 -8 -20 -12 -15 -32 40 -12 35 -26 81 -30 103 -4 22 -15 54 -24
72 -22 42 -21 63 2 63 29 0 36 19 10 29 l-23 8 22 12 c15 8 21 18 18 29 -4 10
4 28 19 45 31 32 39 34 32 7z m-869 -8 c2 -7 -6 -12 -17 -12 -21 0 -27 11 -14
24 9 9 26 2 31 -12z m625 11 c4 -3 2 -12 -5 -20 -15 -18 -5 -26 33 -25 31 1
31 1 12 -20 -16 -20 -17 -21 0 -15 9 4 17 2 17 -4 0 -12 -58 -2 -77 13 -18 15
-26 60 -11 69 16 11 23 11 31 2z m-958 -13 c-3 -5 -11 -10 -16 -10 -6 0 -7 5
-4 10 3 6 11 10 16 10 6 0 7 -4 4 -10z m482 -16 c-9 -9 -28 6 -21 18 4 6 10 6
17 -1 6 -6 8 -13 4 -17z m653 6 c0 -5 -4 -10 -10 -10 -5 0 -10 5 -10 10 0 6 5
10 10 10 6 0 10 -4 10 -10z m-747 -20 c6 0 4 -7 -5 -16 -18 -18 -38 -11 -38
13 0 10 6 13 16 9 9 -3 21 -6 27 -6z m53 -17 c-3 -3 -13 -2 -23 2 -17 7 -17 8
2 15 19 7 34 -5 21 -17z m624 -20 c0 -29 -16 -38 -23 -13 -7 29 3 66 14 48 5
-7 9 -23 9 -35z m-730 27 c0 -5 -7 -10 -16 -10 -8 0 -12 5 -9 10 3 6 10 10 16
10 5 0 9 -4 9 -10z m140 -5 c0 -8 -4 -15 -10 -15 -5 0 -10 7 -10 15 0 8 5 15
10 15 6 0 10 -7 10 -15z m640 -2 c0 -26 -16 -47 -29 -39 -6 4 -11 18 -11 32 0
17 5 24 20 24 12 0 20 -7 20 -17z m-680 -45 c0 -9 -4 -20 -10 -23 -5 -3 -10 3
-10 14 0 12 -7 21 -15 21 -8 0 -12 6 -9 15 8 19 44 -3 44 -27z m-310 22 c0 -5
-2 -10 -4 -10 -3 0 -8 5 -11 10 -3 6 -1 10 4 10 6 0 11 -4 11 -10z m730 0 c8
-5 12 -11 9 -14 -7 -8 -49 5 -49 15 0 12 21 11 40 -1z m60 -11 c0 -5 20 -9 44
-9 40 0 48 -4 90 -51 25 -28 46 -58 46 -66 0 -8 4 -12 9 -9 9 6 22 -29 14 -38
-10 -10 -52 26 -56 47 -3 12 -4 6 -4 -13 1 -39 9 -50 50 -67 17 -8 27 -20 27
-34 0 -39 23 -100 42 -110 10 -5 18 -16 18 -25 0 -10 -17 -2 -53 26 -30 22
-59 40 -65 40 -7 0 -12 16 -12 41 0 22 -4 38 -9 35 -5 -4 -7 -20 -4 -37 l4
-30 -30 16 c-24 12 -31 23 -32 48 -2 32 -2 32 -6 3 -4 -26 -7 -28 -36 -21 -18
4 -45 9 -60 11 -16 2 -47 12 -70 23 l-42 19 33 1 c22 1 31 -3 26 -10 -3 -6 4
-4 17 4 14 9 52 17 92 19 38 1 70 5 71 8 1 3 -6 21 -16 40 -11 22 -16 26 -12
11 4 -15 1 -27 -7 -32 -22 -14 -39 -10 -40 9 -1 16 -2 16 -6 0 -5 -20 -38 -24
-49 -7 -4 8 -9 7 -15 -2 -6 -10 -9 -11 -9 -2 0 7 22 24 48 37 27 14 56 36 66
50 16 25 16 26 -4 26 -12 0 -18 -5 -15 -10 3 -6 -1 -13 -9 -16 -9 -3 -14 -10
-11 -14 6 -10 -14 -25 -22 -17 -3 3 4 19 16 35 26 37 26 42 1 42 -12 0 -17 -5
-14 -14 3 -7 -2 -16 -10 -19 -9 -4 -16 -14 -16 -22 0 -9 -3 -14 -7 -12 -10 5
-43 -30 -35 -37 3 -3 -4 -6 -16 -6 -12 0 -22 -4 -22 -10 0 -5 -8 -10 -17 -10
-12 0 -3 13 28 40 54 46 76 89 60 118 -9 17 -8 19 9 15 11 -3 20 -9 20 -14z
m-783 -15 c-3 -3 -12 -4 -19 -1 -8 3 -5 6 6 6 11 1 17 -2 13 -5z m420 -30 c2
-42 25 -71 71 -91 17 -7 32 -18 32 -24 0 -5 -4 -7 -10 -4 -5 3 -11 -2 -11 -12
-1 -16 -2 -16 -6 -1 -2 10 -10 15 -19 11 -8 -3 -14 0 -14 6 0 6 -7 8 -15 5
-11 -5 -14 -1 -9 12 5 17 4 17 -11 -1 -17 -20 -17 -19 -11 8 5 19 3 26 -4 22
-5 -3 -10 -14 -10 -23 0 -12 -3 -13 -11 -5 -9 9 -8 19 6 40 l18 28 -21 -19
c-26 -22 -29 -10 -6 22 14 20 14 23 -2 29 -16 6 -15 7 2 20 26 19 29 17 31
-23z m-183 10 c20 -19 20 -13 -4 -73 -18 -46 -51 -91 -66 -91 -11 0 6 63 22
81 22 25 14 55 -14 51 -28 -4 -28 12 0 32 28 20 43 20 62 0z m934 7 c8 -5 12
-17 10 -26 -3 -18 -4 -18 -20 -1 -29 28 -21 47 10 27z m85 -3 c16 14 27 6 27
-20 0 -13 -8 -18 -28 -18 -19 0 -29 -5 -29 -15 0 -8 4 -15 9 -15 4 0 8 5 8 10
0 6 5 10 11 10 6 0 9 -7 5 -15 -3 -8 -1 -15 3 -15 5 0 11 6 13 12 3 8 9 4 17
-10 7 -14 8 -22 1 -22 -5 0 -10 -4 -10 -10 0 -5 5 -9 12 -7 6 1 14 -6 16 -15
2 -14 -1 -16 -15 -12 -14 4 -15 4 -4 -4 17 -13 5 -33 -15 -25 -11 4 -15 0 -12
-13 2 -13 -4 -20 -19 -22 -13 -2 -23 2 -23 8 0 7 -8 9 -20 5 -25 -8 -38 19
-19 41 11 13 10 15 -6 12 -10 -1 -20 3 -22 10 -3 6 1 12 7 12 7 0 9 8 5 19 -4
14 1 24 18 35 19 13 23 23 19 47 -4 29 -3 30 16 18 16 -10 24 -10 35 -1z m87
-3 c0 -8 -9 -15 -20 -15 -11 0 -20 7 -20 15 0 8 9 15 20 15 11 0 20 -7 20 -15z
m-1345 -5 c3 -5 -1 -10 -10 -10 -9 0 -13 5 -10 10 3 6 8 10 10 10 2 0 7 -4 10
-10z m455 -11 c0 -5 -4 -9 -10 -9 -5 0 -10 7 -10 16 0 8 5 12 10 9 6 -3 10
-10 10 -16z m-112 -54 c1 -65 -13 -90 -21 -37 -4 25 -4 25 -6 -5 -1 -24 -5
-31 -16 -27 -11 5 -12 11 -4 26 6 10 9 24 7 30 -2 6 -10 -3 -17 -20 -8 -18
-17 -32 -22 -32 -12 0 -11 6 6 40 9 17 11 30 5 30 -21 0 -9 21 23 40 17 11 35
20 38 20 3 0 7 -29 7 -65z m815 31 c15 -12 15 -15 3 -25 -12 -10 -17 -8 -25 8
-19 34 -10 41 22 17z m187 -5 c0 -5 -6 -14 -14 -20 -12 -10 -17 -8 -26 8 -9
19 -8 21 15 21 14 0 25 -4 25 -9z m-220 -26 c0 -3 -9 -5 -20 -5 -11 0 -20 7
-20 15 0 13 4 14 20 5 11 -6 20 -13 20 -15z m274 16 c3 -4 -3 -16 -13 -25 -16
-15 -20 -15 -31 -1 -12 14 -5 21 37 34 1 1 4 -3 7 -8z m-1417 -23 c-3 -8 -6
-5 -6 6 -1 11 2 17 5 13 3 -3 4 -12 1 -19z m1161 -42 c0 -19 3 -39 7 -45 4 -7
-6 -11 -27 -11 l-33 0 24 19 24 19 -21 11 c-28 15 -28 28 1 34 12 2 23 5 24 6
0 0 1 -14 1 -33z m220 11 c8 -10 6 -16 -9 -25 -10 -7 -19 -8 -19 -3 0 5 -3 16
-6 25 -8 20 19 22 34 3z m-752 -29 c4 -15 1 -26 -12 -35 -22 -16 -31 -9 -14
12 7 9 10 18 7 22 -4 3 -11 -5 -17 -18 -7 -16 -20 -24 -38 -25 -15 -1 -21 1
-14 3 6 3 10 9 7 13 -11 17 17 45 45 47 22 2 31 -3 36 -19z m-556 -9 c0 -5 -6
-9 -12 -10 -10 0 -10 -2 0 -6 10 -4 10 -8 1 -19 -9 -11 -8 -14 2 -14 11 0 11
-2 -1 -10 -9 -6 -11 -13 -5 -17 12 -9 13 -33 2 -50 -5 -8 -4 -13 2 -13 6 0 11
-5 11 -11 0 -6 -8 -9 -17 -7 -13 2 -17 16 -19 61 -1 32 -5 61 -8 64 -3 4 -1
12 5 20 9 9 8 13 0 13 -6 0 -11 4 -11 9 0 4 11 6 25 3 14 -2 25 -8 25 -13z
m670 11 c0 -5 -4 -10 -10 -10 -5 0 -10 5 -10 10 0 6 5 10 10 10 6 0 10 -4 10
-10z m365 1 c7 -12 -12 -24 -25 -16 -11 7 -4 25 10 25 5 0 11 -4 15 -9z m304
-20 c9 -6 10 -10 2 -16 -15 -8 -41 1 -41 15 0 12 20 13 39 1z m-952 -14 c2 -3
-12 -10 -33 -16 -27 -7 -41 -7 -51 1 -10 8 -12 7 -8 -4 4 -11 -3 -19 -26 -27
-44 -15 -47 -14 -52 12 -4 19 -4 18 -6 -5 -2 -39 -19 -35 -24 5 -4 31 -4 31
-5 -5 -2 -32 -6 -38 -23 -38 -17 0 -19 3 -10 13 6 8 8 17 4 21 -8 8 -13 37 -8
46 5 8 234 5 242 -3z m921 -33 c-3 -3 -20 -4 -37 -2 -31 3 -31 4 -16 25 16 23
16 23 37 3 12 -11 19 -22 16 -26z m-858 7 c0 -5 -7 -11 -15 -15 -15 -5 -20 5
-8 17 9 10 23 9 23 -2z m120 2 c0 -5 -11 -25 -24 -47 l-23 -39 -13 34 c-8 19
-15 37 -17 41 -4 6 16 11 65 17 6 0 12 -2 12 -6z m532 -35 c-24 -24 -30 -11
-11 24 8 15 14 17 22 9 8 -8 5 -17 -11 -33z m-32 22 c0 -5 -7 -10 -15 -10 -8
0 -15 5 -15 10 0 6 7 10 15 10 8 0 15 -4 15 -10z m-660 -10 c0 -5 -4 -10 -10
-10 -5 0 -10 5 -10 10 0 6 5 10 10 10 6 0 10 -4 10 -10z m811 -53 c-13 -13
-18 -9 -26 25 -5 21 -3 27 12 30 21 4 32 -37 14 -55z m-731 32 c0 -5 -4 -9
-10 -9 -5 0 -10 7 -10 16 0 8 5 12 10 9 6 -3 10 -10 10 -16z m150 17 c0 -3 -4
-8 -10 -11 -5 -3 -10 -1 -10 4 0 6 5 11 10 11 6 0 10 -2 10 -4z m526 -7 c10
-17 -23 -46 -38 -31 -8 8 -8 15 2 27 15 18 26 19 36 4z m-803 -7 c2 7 8 10 12
6 13 -12 -7 -30 -30 -25 -17 3 -25 -2 -29 -17 -6 -20 -7 -20 -17 -3 -6 9 -14
15 -20 12 -5 -4 -9 -2 -9 4 0 15 62 30 77 19 7 -6 13 -4 16 4z m227 -2 c0 -5
-7 -10 -16 -10 -8 0 -12 5 -9 10 3 6 10 10 16 10 5 0 9 -4 9 -10z m185 -30
c38 -26 40 -30 39 -79 -2 -71 -14 -78 -14 -8 0 57 -7 71 -33 61 -15 -6 -12
-44 4 -44 5 0 9 -7 9 -15 0 -8 -6 -15 -12 -15 -9 0 -8 -4 2 -10 13 -9 13 -11
0 -20 -13 -8 -12 -10 3 -10 9 0 17 -4 17 -10 0 -5 -8 -11 -17 -11 -17 -1 -17
-2 0 -6 9 -2 17 -11 17 -19 0 -8 -8 -14 -17 -15 -15 0 -15 -2 2 -8 25 -10 26
-10 35 31 l8 33 1 -41 c1 -22 -2 -44 -6 -48 -5 -4 -8 -18 -8 -29 0 -15 -6 -22
-17 -21 -10 1 -15 -2 -12 -7 3 -5 11 -9 17 -9 9 0 10 -38 5 -156 -7 -141 -11
-162 -38 -227 -27 -64 -28 -73 -15 -87 14 -13 15 -12 13 10 -2 20 1 24 17 22
16 -3 18 -1 8 9 -18 19 -16 29 5 22 14 -5 15 -3 5 8 -7 7 -13 16 -13 21 0 4 6
6 13 4 6 -1 9 -1 5 1 -13 8 -9 33 5 29 6 -1 9 -1 5 1 -15 9 -9 63 7 63 8 0 15
5 15 11 0 5 -4 7 -10 4 -5 -3 -10 1 -10 9 0 9 6 16 13 16 8 0 8 3 -2 9 -12 8
-12 12 -2 25 22 27 29 9 27 -69 -1 -41 -1 -75 2 -75 12 0 31 30 22 35 -15 9
-12 25 4 25 32 0 35 -62 4 -78 -21 -11 -20 -11 10 -6 39 7 42 -3 6 -17 -15 -5
-24 -12 -21 -15 3 -3 15 0 27 6 14 8 26 8 32 2 6 -6 -3 -12 -26 -16 -19 -4
-38 -12 -42 -18 -5 -7 -2 -9 7 -6 49 18 59 19 59 4 0 -9 -9 -16 -20 -16 -11 0
-20 -4 -20 -10 0 -5 -14 -10 -32 -10 -46 0 -114 -37 -169 -91 -27 -27 -49 -53
-49 -57 0 -5 10 -17 21 -28 22 -19 22 -19 9 2 -11 17 -10 25 5 48 16 24 19 25
35 11 9 -8 21 -15 26 -15 5 1 -1 9 -13 19 -21 17 -21 20 -6 32 10 9 14 9 10 2
-5 -7 2 -17 15 -24 21 -11 22 -11 9 5 -18 22 -6 34 19 18 17 -10 18 -9 13 6
-6 15 -5 15 10 3 19 -15 23 -1 5 17 -7 7 -8 12 -2 12 6 0 16 -6 23 -12 10 -11
11 -9 5 7 -6 16 -5 18 7 8 18 -18 30 -16 23 2 -5 12 2 15 28 15 19 0 39 -5 46
-12 22 -22 12 -27 -23 -12 -19 8 -35 11 -35 6 0 -4 20 -14 45 -21 32 -9 45
-18 45 -32 0 -25 -21 -35 -32 -15 -5 9 -14 16 -21 16 -8 0 -6 -4 3 -11 8 -6
11 -12 5 -15 -34 -15 -40 -23 -27 -36 11 -11 13 -10 10 1 -2 8 5 17 16 19 10
2 16 0 12 -6 -4 -6 8 -8 31 -5 36 4 39 2 56 -34 10 -22 17 -43 16 -49 -1 -5 1
-30 5 -57 6 -33 5 -52 -4 -62 -17 -20 -17 -494 0 -567 16 -71 22 -81 50 -83
13 -1 31 -12 41 -23 31 -39 44 -28 44 39 0 55 -1 58 -11 34 l-11 -27 -22 30
c-13 19 -19 37 -14 48 5 14 9 11 19 -17 l12 -34 10 25 c7 20 5 31 -10 53 -11
15 -21 42 -23 60 -2 17 -6 41 -10 52 -5 17 -1 20 30 23 42 2 45 -18 4 -29
l-24 -7 25 -1 c22 -1 28 -8 39 -48 11 -44 53 -103 72 -103 5 0 25 -11 45 -25
45 -31 53 -31 52 -2 -1 39 -20 81 -54 117 -34 36 -58 85 -49 100 8 13 -25 81
-35 75 -21 -13 -8 -125 14 -125 6 -1 20 -14 31 -30 11 -16 35 -50 53 -75 19
-26 32 -49 29 -51 -9 -9 -101 61 -123 94 -15 21 -24 56 -29 104 -4 40 -16 99
-26 130 -10 32 -19 63 -19 70 1 19 50 -64 50 -84 0 -10 5 -18 11 -18 21 0 0
61 -46 139 -25 41 -45 85 -45 96 0 11 -9 47 -19 79 -18 57 -18 96 0 96 4 0 11
-4 14 -10 3 -5 1 -10 -6 -10 -7 0 -5 -6 6 -13 14 -11 15 -16 5 -22 -10 -6 -9
-9 1 -16 12 -8 11 -11 -1 -19 -13 -8 -12 -10 3 -10 23 0 34 -29 16 -41 -10 -6
-7 -9 11 -9 24 -1 24 -1 6 -15 -19 -15 -19 -15 1 -15 22 0 40 -31 28 -50 -3
-5 1 -10 9 -10 19 0 21 -16 4 -23 -8 -4 -7 -6 3 -6 21 -1 31 -25 16 -40 -8 -8
-6 -11 7 -11 10 0 16 -6 13 -12 -2 -7 3 -18 12 -25 14 -11 14 -12 1 -13 -13 0
-13 -1 0 -10 12 -8 13 -13 3 -29 -8 -13 -9 -22 -3 -26 6 -3 10 -14 10 -25 0
-10 8 -21 17 -24 10 -4 14 -4 10 0 -4 4 7 14 24 21 42 17 47 10 15 -18 -14
-12 -26 -29 -26 -37 0 -12 -4 -12 -20 3 -37 34 -21 -6 18 -46 39 -38 54 -69
87 -169 10 -30 20 -61 22 -67 3 -8 -3 -13 -17 -13 -17 0 -21 4 -17 20 3 11 1
20 -4 20 -5 0 -9 -7 -9 -15 0 -8 -5 -15 -11 -15 -7 0 -9 10 -5 26 5 17 3 23
-4 19 -5 -3 -10 -15 -10 -26 0 -12 -4 -17 -11 -13 -6 3 -8 17 -5 30 4 14 2 24
-4 24 -5 0 -10 -11 -10 -25 0 -14 -5 -25 -10 -25 -7 0 -9 14 -5 38 5 27 4 33
-4 22 -6 -8 -11 -25 -11 -38 0 -14 -4 -21 -11 -17 -6 4 -8 20 -4 38 5 24 4 28
-4 17 -6 -8 -11 -25 -11 -38 0 -14 -4 -21 -11 -16 -6 3 -9 21 -5 43 l5 36 -14
-40 -13 -40 -1 44 c-1 24 -4 41 -8 37 -5 -4 -8 -33 -8 -64 l0 -56 -42 -2 c-34
-2 -43 1 -44 14 -1 15 -2 15 -6 0 -4 -16 -7 -16 -34 4 -26 19 -31 20 -39 8 -7
-11 -10 -5 -10 22 0 20 -4 40 -10 43 -5 3 -10 17 -10 31 0 13 -4 24 -10 24 -5
0 -10 -13 -10 -29 0 -17 5 -33 10 -36 13 -8 13 -42 -1 -50 -6 -4 -21 3 -35 16
-16 15 -38 23 -67 25 -54 2 -55 2 -37 14 8 6 28 7 44 4 21 -5 27 -3 24 7 -3 8
-21 15 -42 16 -28 2 -44 -4 -62 -22 -14 -14 -29 -25 -34 -25 -12 0 -5 33 8 38
7 2 12 8 12 13 0 6 -5 7 -10 4 -5 -3 -10 -2 -10 4 0 5 10 13 23 17 21 7 21 7
2 15 -18 7 -18 8 5 9 23 1 23 2 5 10 -17 7 -16 9 10 10 30 2 30 2 5 10 -25 8
-25 8 5 10 22 2 25 4 10 7 -37 9 -43 26 -7 21 17 -3 32 -1 32 4 0 4 -11 8 -25
8 -14 0 -25 5 -25 11 0 7 10 9 25 7 14 -3 25 -1 25 3 0 5 -10 10 -22 10 -19 1
-17 3 7 9 24 6 26 8 8 9 -13 0 -23 7 -23 16 0 9 9 15 23 16 21 0 21 1 2 9 -18
8 -18 9 5 10 18 2 20 4 8 7 -26 6 -22 23 5 24 16 1 18 2 5 6 -18 4 -25 23 -10
23 4 0 8 15 9 34 0 25 -3 33 -13 29 -8 -3 -14 -16 -14 -29 0 -13 -9 -47 -20
-76 -11 -29 -34 -100 -50 -156 -32 -111 -55 -162 -70 -162 -5 0 -23 -14 -39
-30 -31 -33 -67 -32 -58 1 3 11 1 22 -5 25 -5 3 -12 -3 -15 -15 -3 -12 -12
-21 -19 -21 -19 0 -18 19 1 26 8 3 17 14 20 25 4 10 14 19 23 19 15 0 15 2 2
10 -12 8 -12 10 5 10 17 0 17 2 5 10 -12 8 -12 10 5 10 17 0 18 2 5 11 -12 9
-11 10 8 6 26 -6 29 10 5 30 -16 13 -16 13 7 7 23 -6 24 -6 10 11 -13 17 -13
18 1 13 9 -4 16 -1 16 8 0 7 -5 10 -10 7 -6 -4 -7 -1 -3 6 5 7 14 10 22 7 8
-3 14 -1 14 4 0 6 -7 10 -15 10 -8 0 -15 7 -15 16 0 11 6 14 23 9 22 -7 22 -7
2 8 -21 16 -45 7 -45 -18 0 -27 -93 -207 -115 -221 -12 -8 -37 -19 -54 -24
-28 -8 -33 -6 -40 13 -5 12 -7 25 -4 30 8 13 23 7 23 -9 0 -19 40 -10 55 13 6
9 22 30 36 47 15 17 43 65 64 106 20 41 43 82 50 90 17 22 91 197 105 250 7
25 20 59 31 76 22 37 25 51 6 35 -8 -6 -17 -8 -21 -4 -4 4 -4 -1 0 -12 6 -15
4 -17 -11 -12 -16 7 -16 5 -4 -9 12 -15 11 -16 -11 -10 -23 6 -23 6 -8 -7 20
-16 14 -28 -10 -20 -13 3 -12 1 3 -12 20 -17 19 -17 -9 -12 l-30 5 25 -20 24
-20 -30 6 c-30 6 -30 6 -8 -10 29 -21 19 -45 -16 -39 -25 5 -25 5 -3 -6 30
-16 28 -31 -3 -19 -16 6 -25 6 -25 0 0 -6 9 -10 20 -10 11 0 20 -4 20 -9 0
-19 -31 -81 -41 -81 -5 0 -7 -4 -4 -10 3 -6 2 -10 -4 -10 -6 0 -8 -6 -5 -13 3
-8 -2 -19 -9 -26 -12 -9 -16 -8 -21 4 -3 9 0 15 8 15 7 0 13 7 13 15 0 20 -32
15 -33 -5 0 -8 4 -23 8 -33 12 -24 -12 -77 -34 -77 -9 0 -19 -4 -22 -9 -4 -5
3 -7 14 -4 15 4 19 2 15 -9 -3 -8 -16 -14 -28 -13 -12 1 -14 0 -4 -2 21 -5 21
-13 3 -38 -9 -13 -28 -19 -61 -21 -30 -1 -42 2 -34 7 11 7 11 9 1 9 -9 0 -10
5 -3 18 6 11 6 23 1 28 -5 5 -10 29 -12 54 l-3 45 -24 -24 c-20 -20 -27 -22
-42 -13 -10 7 -20 8 -23 3 -9 -14 -64 -10 -77 5 -6 8 -15 14 -20 14 -12 0 -11
-57 1 -65 6 -4 7 -12 3 -18 -10 -16 -11 -28 -1 -55 8 -23 7 -23 -40 -18 l-47
5 55 -13 c30 -8 51 -14 45 -15 -5 -1 -3 -5 4 -10 12 -8 10 -11 -10 -15 -56
-12 -62 -15 -22 -12 23 2 44 2 47 -1 9 -9 -6 -33 -20 -33 -8 0 -14 -6 -14 -12
0 -7 -7 -2 -16 11 -12 17 -22 21 -40 17 -33 -9 -44 23 -49 143 -2 53 -10 130
-19 171 -23 116 -24 134 -3 138 9 2 17 -1 17 -7 0 -6 -6 -11 -12 -12 -7 0 -3
-4 10 -9 12 -5 22 -15 22 -22 0 -7 11 -25 25 -40 23 -25 24 -28 7 -38 -15 -10
-15 -11 5 -7 12 3 31 -2 43 -10 17 -12 19 -18 9 -30 -11 -12 -8 -13 16 -7 21
5 26 4 20 -6 -6 -10 -2 -11 18 -6 26 6 47 -8 25 -17 -7 -3 -3 -6 9 -6 12 -1
24 3 28 8 6 10 -38 45 -71 55 -30 9 -124 105 -124 127 0 10 -14 35 -32 55 -39
45 -67 153 -43 167 19 10 20 41 1 34 -23 -9 -27 5 -5 21 28 19 22 58 -9 55
-19 -2 -22 2 -22 32 0 28 3 33 17 28 15 -5 14 -3 -2 10 l-20 16 20 1 c18 1 18
2 -2 10 -28 11 -31 54 -5 69 16 10 16 10 -2 11 -19 0 -19 0 -1 14 11 8 25 12
32 9 7 -3 13 0 13 6 0 19 20 12 20 -6 1 -12 6 -8 16 12 l14 30 -5 -27 c-3 -16
-3 -28 -1 -28 3 0 13 12 21 28 12 20 15 22 12 7 -2 -11 2 -26 10 -33 14 -13
18 -5 14 26 -2 14 33 -5 72 -36 15 -13 17 -13 17 1 0 27 -73 68 -134 76 -77
11 -86 21 -52 66 30 39 32 39 73 25 26 -9 26 -9 9 5 -18 13 -18 16 -2 40 15
23 45 33 59 19 14 -14 -6 -24 -21 -12 -16 12 -16 11 -2 -6 14 -18 13 -19 -9
-13 -22 6 -23 5 -5 -13 18 -17 20 -17 36 4 14 16 18 41 18 109 0 86 0 88 28
98 15 7 22 13 15 16 -16 6 -17 33 -2 33 8 0 8 5 -1 15 -10 11 -10 18 -1 29 9
11 9 15 -1 19 -10 4 -8 10 7 23 17 14 17 16 3 11 -10 -4 -18 -2 -18 3 0 5 8
14 18 20 16 11 16 11 0 6 -12 -3 -18 0 -18 9 0 8 8 19 18 24 16 10 16 10 0 11
-20 0 -25 20 -5 20 6 0 4 5 -6 11 -14 8 -16 14 -6 25 8 10 8 14 0 14 -18 0
-13 38 7 49 9 6 11 11 5 11 -7 0 -13 7 -13 15 0 8 6 15 13 15 7 0 8 3 2 8 -17
12 -11 56 8 60 15 3 17 -5 17 -63 0 -56 3 -66 15 -61 20 7 19 -4 -2 -20 -17
-13 -17 -14 0 -8 9 3 17 3 17 -1 0 -4 -8 -14 -17 -21 -17 -12 -17 -12 1 -11
17 2 19 -4 17 -58 -2 -33 -8 -63 -14 -67 -9 -6 -9 -8 1 -8 18 0 15 -31 -5 -46
-17 -13 -17 -14 0 -8 11 4 17 1 17 -10 0 -9 -8 -16 -17 -17 -11 0 -13 -3 -5
-6 18 -7 15 -33 -5 -34 -17 -1 -17 -2 0 -6 16 -4 25 -23 10 -23 -5 0 -7 -47
-5 -105 3 -79 -1 -119 -13 -156 -10 -28 -14 -53 -11 -56 7 -7 26 41 33 83 4
24 10 30 27 29 13 -1 14 -1 4 2 -26 6 -22 33 5 34 21 2 21 2 -2 6 l-24 5 8
131 c14 224 12 396 -4 406 -11 7 -10 11 5 21 16 10 16 11 2 6 -10 -3 -18 -1
-18 4 0 6 8 11 18 11 16 1 16 2 0 6 -23 6 -23 20 0 26 12 3 11 5 -6 6 -26 1
-20 21 7 21 27 0 90 -112 128 -230 3 -8 11 9 19 38 7 29 21 66 29 82 19 36 19
40 0 40 -17 0 -20 16 -4 25 6 4 17 -2 25 -14 8 -12 21 -21 27 -21 7 0 4 5 -5
11 -10 5 -18 14 -18 19 0 5 8 7 18 4 13 -5 14 -4 4 4 -22 15 11 70 45 75 39 5
62 -2 108 -33z m505 19 c0 -24 -23 -21 -28 4 -2 10 3 17 12 17 10 0 16 -9 16
-21z m-212 -27 c2 -23 8 -32 22 -32 10 0 20 -6 23 -13 3 -9 -7 -12 -34 -12
l-39 0 0 48 c0 56 23 63 28 9z m39 -9 c-16 -16 -17 -16 -17 3 0 26 11 37 24
24 7 -7 5 -16 -7 -27z m-847 12 c0 -8 -7 -15 -15 -15 -8 0 -15 7 -15 15 0 8 7
15 15 15 8 0 15 -7 15 -15z m-110 -2 c-14 -3 -31 -10 -37 -15 -8 -6 -13 -7
-13 -1 0 17 13 23 44 22 27 -2 28 -2 6 -6z m80 -25 c0 -5 -7 -8 -15 -8 -15 0
-20 21 -8 33 7 7 23 -11 23 -25z m380 22 c0 -5 -4 -10 -10 -10 -5 0 -10 5 -10
10 0 6 5 10 10 10 6 0 10 -4 10 -10z m546 -16 c-3 -9 -6 -29 -6 -45 0 -16 -4
-29 -10 -29 -11 0 -14 73 -3 83 12 13 25 7 19 -9z m-962 -33 c-84 -69 -106
-83 -117 -72 -8 8 -8 11 0 11 6 0 15 19 19 43 l8 42 7 -35 6 -35 2 38 c1 40
20 43 22 4 1 -17 3 -15 9 8 4 17 8 22 9 13 0 -10 6 -18 12 -18 5 0 7 5 4 10
-3 6 -3 15 1 21 5 8 10 6 16 -6 6 -9 6 -20 2 -24z m286 25 c0 -3 -4 -8 -10
-11 -5 -3 -10 -1 -10 4 0 6 5 11 10 11 6 0 10 -2 10 -4z m424 -20 c18 -7 49
-28 69 -46 22 -19 37 -27 37 -19 0 8 9 1 20 -16 11 -16 20 -43 20 -60 0 -16 7
-43 15 -59 18 -34 20 -80 3 -70 -8 5 -9 -5 -5 -35 4 -35 3 -40 -9 -30 -23 19
-60 2 -79 -37 -9 -19 -18 -34 -20 -32 -9 9 15 82 29 90 22 12 20 28 -2 28 -20
0 -56 -33 -46 -43 3 -3 1 -14 -5 -24 -9 -16 -10 -15 -11 9 0 15 5 30 10 33 6
4 8 15 5 25 -4 12 1 22 12 29 12 7 14 10 4 11 -11 0 -10 5 4 20 10 11 15 20
11 20 -11 0 -31 -22 -50 -55 -10 -17 -14 -21 -11 -10 4 11 9 32 12 48 3 15 10
30 14 33 5 3 9 10 9 16 0 6 -11 1 -25 -12 -20 -19 -25 -20 -25 -7 0 9 5 19 10
22 6 3 10 11 10 17 0 7 -6 6 -15 -2 -20 -17 -19 -1 2 22 16 18 5 26 -13 8 -7
-7 -10 -2 -9 15 0 13 5 29 11 35 12 12 16 10 50 -35 9 -11 12 -13 8 -5 -3 8
10 -1 31 -21 22 -22 38 -47 38 -63 1 -14 6 -26 11 -26 5 0 15 -8 22 -17 7 -10
16 -15 20 -11 4 4 -9 39 -28 78 -19 38 -38 67 -41 63 -4 -3 -7 -1 -7 6 0 7 -5
9 -12 5 -8 -5 -9 -2 -5 10 5 14 3 17 -8 13 -8 -4 -17 -2 -20 3 -4 6 -1 10 5
10 7 0 6 5 -2 14 -7 8 -17 12 -21 9 -4 -3 -16 5 -26 16 -10 12 -23 21 -30 21
-6 0 -11 5 -11 10 0 13 4 13 44 -4z m-907 -13 c4 -10 1 -19 -6 -21 -11 -4 -11
-6 0 -14 12 -8 12 -10 0 -15 -11 -5 -11 -7 0 -14 12 -8 11 -11 -1 -19 -12 -7
-12 -10 -1 -10 7 0 11 -6 7 -15 -3 -8 0 -15 6 -15 7 0 7 -4 -1 -14 -9 -11 -9
-15 1 -19 10 -4 10 -8 -2 -16 -13 -9 -12 -11 4 -11 14 0 16 -3 8 -13 -6 -7 -9
-27 -7 -45 4 -35 -5 -45 -31 -35 -16 6 -16 7 2 14 17 7 17 8 2 8 -10 1 -18 5
-18 11 0 5 6 7 14 4 10 -4 12 2 9 20 -3 14 -10 26 -17 26 -6 0 -4 5 4 10 10 6
11 10 3 10 -7 0 -13 5 -13 11 0 5 5 7 10 4 6 -3 10 -1 10 4 0 6 -8 11 -17 11
-17 1 -17 1 -1 11 13 7 15 15 9 32 -5 12 -7 33 -5 47 1 14 3 35 3 48 1 26 19
29 28 5z m276 0 c-4 -10 -11 -22 -17 -26 -8 -6 -7 -10 2 -14 14 -5 15 -87 2
-118 -5 -11 -9 -14 -9 -7 -2 24 -26 12 -26 -13 0 -14 3 -25 8 -25 4 0 2 -9 -5
-20 -10 -15 -10 -24 -1 -39 8 -13 9 -21 0 -30 -8 -8 -16 9 -29 61 -22 88 -38
109 -38 50 0 -23 3 -42 8 -42 4 0 8 -11 8 -25 3 -36 -8 -30 -32 18 -16 32 -26
41 -42 40 -12 -2 -22 1 -22 5 0 18 52 82 68 82 12 0 13 3 5 8 -17 10 -2 31 21
29 10 -1 21 5 24 13 5 13 3 13 -11 1 -29 -23 -18 2 15 36 35 36 82 46 71 16z
m267 13 c0 -15 -14 -35 -21 -30 -15 9 -10 34 6 34 8 0 15 -2 15 -4z m570 -50
c0 -8 6 -16 14 -19 21 -8 56 3 56 18 0 15 38 27 46 14 6 -11 -25 -99 -36 -99
-15 0 -28 -46 -18 -64 7 -13 5 -22 -6 -35 -9 -10 -16 -30 -16 -44 0 -15 -4
-27 -10 -27 -5 0 -10 11 -10 25 0 13 -6 28 -12 32 -17 11 -49 100 -42 118 3 8
-3 30 -15 48 -19 31 -19 35 -4 50 18 18 53 7 53 -17z m-230 -10 c0 -3 -4 -8
-10 -11 -5 -3 -10 -1 -10 4 0 6 5 11 10 11 6 0 10 -2 10 -4z m-333 -28 c-3 -8
-6 -5 -6 6 -1 11 2 17 5 13 3 -3 4 -12 1 -19z m-467 -2 c0 -3 -4 -8 -10 -11
-5 -3 -10 -1 -10 4 0 6 5 11 10 11 6 0 10 -2 10 -4z m-5 -64 c-14 -27 -25 -55
-25 -61 0 -6 -4 -11 -9 -11 -14 0 8 70 31 103 30 42 32 26 3 -31z m222 26 c-3
-7 -5 -2 -5 12 0 14 2 19 5 13 2 -7 2 -19 0 -25z m-181 -120 c17 -32 37 -105
27 -95 -3 3 -12 20 -21 38 -22 42 -47 52 -40 15 6 -28 1 -31 -21 -17 -15 10
-6 71 10 71 6 0 7 5 4 10 -3 6 1 10 9 10 9 0 23 -15 32 -32z m794 28 c0 -3 -4
-8 -10 -11 -5 -3 -10 -1 -10 4 0 6 5 11 10 11 6 0 10 -2 10 -4z m325 -48 c-2
-28 3 -49 13 -61 12 -13 13 -20 4 -29 -19 -19 -43 13 -50 67 -3 34 -1 50 9 56
24 15 26 11 24 -33z m-408 0 c-3 -7 -5 -2 -5 12 0 14 2 19 5 13 2 -7 2 -19 0
-25z m-525 -13 c3 -14 1 -25 -3 -25 -5 0 -9 11 -9 25 0 14 2 25 4 25 2 0 6
-11 8 -25z m827 -112 c1 -34 -3 -65 -9 -68 -6 -4 -10 14 -10 48 0 30 -2 76 -5
103 l-5 49 14 -35 c8 -19 15 -63 15 -97z m-1197 94 c-7 -7 -16 -31 -22 -53
l-10 -39 4 43 c4 40 23 78 34 67 3 -2 0 -11 -6 -18z m105 -14 c-3 -10 -5 -4
-5 12 0 17 2 24 5 18 2 -7 2 -21 0 -30z m-46 7 c5 0 9 -4 9 -10 0 -5 -13 -8
-30 -7 -16 1 -30 5 -30 8 0 12 14 19 28 14 7 -3 18 -5 23 -5z m849 3 c0 -5 -5
-15 -10 -23 -8 -12 -10 -11 -10 8 0 12 5 22 10 22 6 0 10 -3 10 -7z m-650 -13
c0 -5 -4 -10 -10 -10 -5 0 -10 5 -10 10 0 6 5 10 10 10 6 0 10 -4 10 -10z m37
-32 c-3 -8 -6 -5 -6 6 -1 11 2 17 5 13 3 -3 4 -12 1 -19z m83 12 c0 -5 -4 -10
-10 -10 -5 0 -10 5 -10 10 0 6 5 10 10 10 6 0 10 -4 10 -10z m-297 -6 c14 -14
-3 -19 -47 -16 -25 2 -43 8 -40 13 6 10 77 12 87 3z m65 -69 c0 -29 0 -29 -8
-5 -4 14 -8 39 -8 55 0 29 0 29 8 5 4 -14 8 -38 8 -55z m109 18 c-3 -10 -5 -2
-5 17 0 19 2 27 5 18 2 -10 2 -26 0 -35z m649 10 c-11 -11 -19 6 -11 24 8 17
8 17 12 0 3 -10 2 -21 -1 -24z m210 25 c4 -6 2 -14 -5 -16 -7 -2 -21 -13 -32
-25 -23 -25 -24 -17 -4 23 17 32 29 37 41 18z m-737 -37 c-15 -5 -22 6 -14 19
6 9 10 9 16 -1 5 -8 4 -15 -2 -18z m-304 9 c-3 -5 -22 -10 -41 -10 -19 0 -34
5 -34 10 0 6 18 10 41 10 24 0 38 -4 34 -10z m47 -86 c0 -30 5 -57 9 -60 14
-8 10 -24 -6 -24 -12 0 -15 14 -15 63 0 34 -3 73 -6 87 -5 22 -4 23 6 7 6 -10
12 -43 12 -73z m64 59 c-10 -10 -19 5 -10 18 6 11 8 11 12 0 2 -7 1 -15 -2
-18z m962 18 c17 -10 27 -71 13 -71 -6 0 -11 5 -11 11 0 5 -4 7 -10 4 -17 -11
-11 -23 15 -29 34 -9 32 -26 -4 -26 -20 0 -36 9 -50 26 -25 32 -26 51 -4 76
18 20 31 22 51 9z m-228 -11 c0 -13 -28 -25 -38 -16 -3 4 0 11 8 16 20 13 30
12 30 0z m-907 -41 c5 -4 5 -14 -1 -25 -6 -11 -14 -32 -17 -49 -6 -27 -8 -28
-15 -10 -4 11 -5 44 -2 74 4 44 7 50 15 35 6 -11 14 -22 20 -25z m57 31 c0 -5
-11 -10 -25 -10 -14 0 -25 5 -25 10 0 6 11 10 25 10 14 0 25 -4 25 -10z m280
0 c0 -5 -5 -10 -11 -10 -5 0 -7 5 -4 10 3 6 8 10 11 10 2 0 4 -4 4 -10z m-100
-10 c0 -5 -4 -10 -10 -10 -5 0 -10 5 -10 10 0 6 5 10 10 10 6 0 10 -4 10 -10z
m1009 -4 c10 -12 6 -21 -18 -48 -16 -18 -33 -30 -37 -25 -4 4 2 17 14 30 26
27 28 37 7 37 -8 0 -15 5 -15 10 0 15 36 12 49 -4z m-1059 -6 c0 -5 -7 -10
-16 -10 -8 0 -12 5 -9 10 3 6 10 10 16 10 5 0 9 -4 9 -10z m-125 -20 c-3 -5
-12 -7 -20 -3 -21 7 -19 13 6 13 11 0 18 -4 14 -10z m113 -11 c24 -2 24 -2 5
-6 -13 -2 -23 -9 -23 -15 0 -5 7 -8 15 -4 8 3 15 4 15 2 0 -3 2 -11 5 -19 5
-10 -1 -13 -25 -9 -27 4 -30 8 -29 41 0 20 3 30 6 24 2 -7 17 -14 31 -14z
m162 -34 c0 -33 -4 -55 -11 -55 -7 0 -8 11 -4 32 6 26 5 30 -9 25 -10 -4 -16
-1 -16 8 0 8 8 15 18 16 10 0 12 3 5 6 -18 7 -16 23 2 23 12 0 15 -13 15 -55z
m934 32 c-5 -15 -64 -61 -64 -51 0 8 52 61 62 63 4 0 5 -5 2 -12z m-1204 -19
c0 -24 30 -283 39 -333 5 -27 6 -52 2 -55 -3 -3 -12 -12 -19 -21 -11 -14 -9
-16 13 -11 17 3 25 0 25 -9 0 -9 -12 -14 -30 -15 -24 -1 -30 3 -30 19 0 11 7
25 16 31 13 10 15 23 9 69 -6 48 -10 57 -27 57 -17 0 -18 3 -8 15 10 12 10 15
0 15 -10 0 -10 3 -1 14 9 11 9 15 -1 20 -11 5 -11 7 0 12 10 5 9 9 -5 20 -17
13 -17 13 1 14 19 0 19 0 1 13 -14 11 -15 16 -5 22 10 6 9 9 -1 16 -12 8 -11
11 1 19 12 8 12 10 -5 10 -19 1 -19 1 -2 14 21 16 22 27 2 20 -21 -8 -19 13 3
25 16 10 16 10 0 11 -10 0 -18 5 -18 10 0 6 9 10 20 10 11 0 20 -6 20 -12z
m998 -19 c-3 -8 -7 -3 -11 10 -4 17 -3 21 5 13 5 -5 8 -16 6 -23z m202 -4 c-7
-8 -18 -15 -24 -15 -6 0 -2 7 8 15 25 19 32 19 16 0z m-330 1 c0 -3 -4 -8 -10
-11 -5 -3 -10 -1 -10 4 0 6 5 11 10 11 6 0 10 -2 10 -4z m-630 -16 c0 -5 -4
-10 -10 -10 -5 0 -10 5 -10 10 0 6 5 10 10 10 6 0 10 -4 10 -10z m785 -40 c18
0 16 -21 -3 -28 -15 -5 -62 43 -62 64 0 13 5 11 25 -10 13 -14 31 -26 40 -26z
m55 38 c0 -10 -31 -10 -48 0 -8 6 -2 9 18 9 16 0 30 -4 30 -9z m44 -94 c4 -58
5 -108 2 -112 -14 -13 -20 14 -24 113 -6 140 13 140 22 -1z m-1024 86 c0 -5
-4 -10 -10 -10 -5 0 -10 5 -10 10 0 6 5 10 10 10 6 0 10 -4 10 -10z m935 -18
c-3 -3 -11 0 -18 7 -9 10 -8 11 6 5 10 -3 15 -9 12 -12z m-945 -8 c0 -11 -34
-33 -50 -33 -10 -1 -6 6 10 19 26 20 40 25 40 14z m110 -19 c-7 -9 -15 -13
-18 -10 -3 2 1 11 8 20 7 9 15 13 18 10 3 -2 -1 -11 -8 -20z m889 -52 c-2 -76
-2 -76 -9 -28 -12 72 -11 105 0 105 6 0 9 -32 9 -77z m-1188 -10 c-8 -15 -10
-10 -11 23 0 22 3 44 8 48 11 12 14 -52 3 -71z m1153 35 c-6 -10 -61 -11 -67
0 -3 4 12 7 33 7 21 1 36 -3 34 -7z m-1 -70 c-6 -67 -10 -81 -24 -73 -7 5 -7
11 -1 17 6 6 7 20 3 32 -5 11 -7 32 -5 46 3 32 2 30 18 30 10 0 12 -13 9 -52z
m-1118 -18 c-3 -5 -10 -10 -16 -10 -5 0 -9 5 -9 10 0 6 7 10 16 10 8 0 12 -4
9 -10z m1019 -9 c4 -5 0 -12 -6 -14 -8 -4 -7 -6 3 -6 9 -1 19 -8 23 -16 7 -20
-2 -19 -48 9 -31 20 -35 25 -20 29 31 8 43 7 48 -2z m-1067 -58 c-3 -10 -5 -4
-5 12 0 17 2 24 5 18 2 -7 2 -21 0 -30z m38 27 c3 -5 1 -10 -4 -10 -6 0 -11 5
-11 10 0 6 2 10 4 10 3 0 8 -4 11 -10z m205 1 c0 -5 -15 -18 -34 -29 -30 -18
-35 -18 -40 -5 -10 24 -7 31 12 36 31 8 62 7 62 -2z m946 -16 c1 -8 -2 -17 -7
-21 -5 -3 -9 7 -9 22 0 27 12 26 16 -1z m64 -19 c0 -8 -4 -17 -9 -20 -10 -7
-23 19 -14 28 11 11 23 6 23 -8z m-1210 -6 c0 -5 -5 -10 -11 -10 -5 0 -7 5 -4
10 3 6 8 10 11 10 2 0 4 -4 4 -10z m1068 -46 c-4 -3 -12 5 -18 18 -12 22 -12
22 6 6 10 -10 15 -20 12 -24z m-988 16 c0 -5 -4 -10 -10 -10 -5 0 -10 5 -10
10 0 6 5 10 10 10 6 0 10 -4 10 -10z m1050 -20 c13 -9 13 -10 0 -10 -12 -1
-11 -3 3 -11 21 -12 24 -61 3 -53 -13 5 -36 53 -36 75 0 12 11 11 30 -1z
m-1132 -22 c-6 -18 -28 -21 -28 -4 0 9 7 16 16 16 9 0 14 -5 12 -12z m87 -17
c-3 -6 -11 -8 -17 -5 -6 4 -5 9 3 15 16 10 23 4 14 -10z m1178 12 c-18 -2 -48
-2 -65 0 -18 2 -4 4 32 4 36 0 50 -2 33 -4z m-23 -58 c2 39 3 39 10 10 l8 -30
1 33 c2 47 21 39 23 -10 l1 -43 4 38 c5 47 23 49 23 2 0 -36 -29 -63 -38 -36
-3 9 -7 9 -18 1 -21 -19 -34 -2 -32 43 l1 42 7 -45 7 -45 3 40z m-1400 -6 c0
-16 -4 -29 -10 -29 -5 0 -10 16 -10 36 0 21 4 33 10 29 6 -3 10 -19 10 -36z
m30 7 c0 -19 -4 -38 -10 -41 -6 -4 -10 10 -10 34 0 23 5 41 10 41 6 0 10 -15
10 -34z m40 0 c0 -33 -13 -55 -23 -39 -7 13 4 73 14 73 5 0 9 -15 9 -34z m29
-23 c1 -7 -3 -13 -9 -13 -5 0 -10 17 -9 38 1 33 2 34 9 12 4 -14 8 -31 9 -37z
m115 25 c5 -35 15 -153 21 -258 6 -85 13 -160 30 -295 8 -60 17 -153 20 -205
5 -87 5 -93 -10 -76 -8 11 -15 15 -15 9 0 -5 9 -18 20 -28 18 -17 28 -45 15
-45 -3 0 -16 10 -28 23 -12 13 -16 16 -9 7 10 -14 9 -24 -3 -53 -19 -46 -48
-63 -69 -41 -9 8 -16 21 -16 27 0 8 -3 7 -9 -2 -7 -11 -15 -11 -40 -3 -30 10
-31 10 -32 -16 l-1 -27 -8 25 c-8 25 -8 25 -10 -5 -2 -22 -4 -25 -7 -10 -3 11
-10 25 -15 30 -7 7 -9 3 -5 -12 3 -13 1 -26 -4 -29 -5 -3 -9 7 -9 21 0 16 -4
24 -11 20 -6 -4 -8 -13 -5 -21 3 -8 1 -14 -4 -14 -6 0 -10 9 -10 19 0 11 -5
23 -10 26 -7 4 -9 -2 -4 -19 4 -16 2 -26 -5 -26 -6 0 -12 10 -12 23 l-2 22 -4
-23 c-2 -12 -9 -20 -14 -17 -14 9 -11 41 5 54 17 15 103 30 113 21 4 -4 23 -6
41 -3 23 4 46 21 82 60 28 30 50 52 50 48 0 -16 -43 -87 -55 -92 -22 -8 -18
-23 7 -23 12 0 19 3 15 6 -3 3 8 27 24 54 16 26 29 52 29 59 0 23 -36 10 -63
-24 -16 -20 -33 -33 -38 -29 -5 3 9 28 31 56 22 28 40 55 40 59 0 5 8 9 18 9
11 0 13 3 5 8 -14 9 -12 44 2 54 6 5 6 8 -1 8 -6 0 -14 18 -18 40 -3 22 -12
40 -19 40 -6 0 -3 7 7 15 15 11 16 15 5 16 -10 0 -10 2 -1 6 13 5 17 24 5 21
-5 -1 -20 4 -34 11 -27 13 -34 40 -15 54 7 6 4 7 -6 3 -20 -6 -25 10 -5 17 8
4 8 8 2 14 -5 4 -11 37 -13 72 -1 35 -7 72 -13 83 -6 11 -8 22 -5 26 11 10 17
-5 27 -69 5 -35 17 -86 25 -114 27 -87 24 -81 34 -65 5 8 5 21 -1 32 -6 10 -7
23 -4 28 3 5 1 12 -5 15 -8 5 -7 11 1 21 9 11 8 14 -5 14 -19 0 -22 26 -3 33
7 3 5 6 -5 6 -10 1 -18 6 -18 11 0 6 8 11 18 11 16 1 16 2 0 6 -22 6 -24 23
-2 23 8 0 12 5 9 10 -4 6 -9 8 -13 6 -4 -2 -8 14 -9 35 -2 25 2 39 10 39 6 0
4 5 -7 11 -15 9 -16 13 -5 20 12 8 12 11 -1 19 -13 9 -13 11 0 20 10 6 11 10
3 10 -7 0 -13 7 -13 15 0 8 6 15 13 16 10 0 10 2 0 6 -7 2 -13 11 -13 19 0 8
6 14 13 14 8 0 7 4 -3 10 -12 8 -13 11 -1 19 9 6 10 11 2 15 -6 4 -9 12 -6 17
12 18 24 8 29 -23z m1156 -3 c0 -19 -4 -35 -9 -35 -4 0 -6 12 -4 28 3 19 2 23
-5 14 -7 -11 -10 -11 -15 2 -4 9 1 16 11 19 9 3 18 5 20 6 1 0 2 -15 2 -34z
m149 -10 c-1 -22 -3 -32 -6 -22 -2 9 -9 17 -14 17 -6 0 -8 -4 -4 -9 3 -5 1
-12 -5 -16 -6 -4 -10 9 -10 34 0 34 3 40 20 38 17 -1 20 -8 19 -42z m24 8 c4
-19 2 -33 -3 -33 -6 0 -10 17 -10 37 0 43 5 41 13 -4z m27 0 c0 -28 -3 -34
-10 -23 -13 20 -13 60 0 60 6 0 10 -17 10 -37z m-250 -13 c0 -5 -7 -10 -15
-10 -8 0 -15 5 -15 10 0 6 7 10 15 10 8 0 15 -4 15 -10z m-1060 -30 c0 -5 -6
-10 -12 -11 -10 0 -10 -2 0 -6 17 -7 15 -23 -3 -23 -9 0 -15 9 -15 25 0 16 6
25 15 25 8 0 15 -4 15 -10z m30 -12 c0 -7 5 -42 10 -78 30 -190 40 -304 27
-313 -9 -6 -9 -10 0 -13 6 -3 9 -16 7 -30 -3 -15 0 -24 8 -24 9 0 8 -3 -2 -10
-11 -7 -11 -10 -2 -10 7 0 11 -4 7 -9 -3 -5 0 -13 6 -17 8 -4 7 -9 -2 -15 -11
-7 -11 -9 1 -9 13 0 13 -1 0 -10 -8 -5 -10 -10 -4 -10 7 0 11 -17 10 -46 -1
-25 2 -48 7 -51 5 -3 3 -9 -4 -14 -12 -7 -12 -9 0 -9 7 0 11 -6 7 -15 -3 -8 0
-15 6 -15 9 0 9 -3 0 -12 -8 -8 -8 -17 -1 -30 6 -11 8 -22 6 -25 -3 -2 -1 -18
3 -34 7 -24 6 -29 -8 -30 -14 -1 -14 -2 1 -6 11 -3 16 -11 13 -19 -3 -8 0 -14
6 -14 7 0 6 -5 -2 -15 -10 -12 -10 -15 0 -15 7 0 10 -7 6 -15 -3 -8 -1 -15 4
-15 6 0 10 -7 10 -15 0 -8 -7 -15 -15 -15 -9 0 -19 17 -26 45 -7 27 -17 45
-26 45 -8 0 -12 4 -9 9 4 5 0 12 -6 14 -10 4 -9 8 2 16 13 10 13 11 0 11 -13
0 -13 1 0 10 13 8 12 10 -1 15 -9 3 -15 16 -14 28 0 12 -1 27 -4 32 -14 26
-11 55 6 56 16 0 16 1 -2 9 -11 5 -14 9 -7 9 18 1 15 21 -4 21 -14 0 -14 3 -4
15 9 10 9 15 1 15 -6 0 -11 5 -11 10 0 6 10 10 23 10 22 1 22 1 -3 15 -23 13
-23 14 -5 16 17 1 17 2 3 6 -10 2 -18 9 -18 14 0 5 8 9 18 10 12 0 10 3 -8 11
l-25 11 25 7 c24 8 24 8 3 9 -27 1 -31 21 -5 22 12 0 10 3 -8 11 -23 9 -24 11
-6 17 17 7 18 8 3 14 -9 3 -17 11 -17 18 0 6 7 9 15 5 8 -3 15 -1 15 4 0 6 -7
10 -15 10 -21 0 -19 20 3 21 11 1 8 4 -8 9 l-25 7 25 11 c24 10 24 11 3 11
-28 1 -29 9 -5 27 16 13 16 13 0 14 -20 0 -25 20 -5 20 6 0 4 5 -6 11 -18 10
-18 11 0 25 17 13 17 13 -2 14 -20 1 -20 1 0 12 19 11 19 11 0 19 -19 7 -19 7
-1 14 11 5 22 3 28 -6 7 -11 8 -9 4 6 -10 40 -26 139 -26 162 0 13 5 23 10 23
6 0 10 -6 10 -12z m-255 -8 c4 -7 12 -7 25 0 31 17 50 12 50 -12 0 -13 -4 -30
-9 -38 -7 -10 -4 -18 10 -28 22 -15 23 -30 7 -84 -8 -26 -21 -44 -37 -51 -39
-18 -91 -69 -91 -89 0 -10 -4 -18 -10 -18 -27 0 0 49 58 107 19 19 23 31 18
55 -3 17 -6 39 -6 49 0 11 -4 19 -9 19 -4 0 -11 -26 -14 -57 -4 -37 -12 -62
-23 -70 -26 -19 -38 -3 -14 19 31 29 20 43 -30 41 -33 -2 -40 1 -32 9 16 16
15 28 -3 28 -8 0 -15 5 -15 10 0 6 5 10 10 10 6 0 10 10 10 23 0 42 87 106
105 77z m1530 -16 c14 -9 25 -24 25 -34 0 -9 9 -25 20 -35 11 -10 20 -22 20
-27 0 -5 -9 -6 -20 -3 -11 4 -20 2 -20 -4 0 -6 9 -11 20 -11 13 0 20 -7 20
-19 0 -16 -5 -18 -40 -14 -38 5 -40 4 -40 -20 0 -19 7 -28 32 -36 23 -8 29
-14 21 -22 -16 -16 -49 -2 -88 39 -27 29 -35 45 -35 75 0 23 -4 36 -10 32 -20
-12 -11 -73 16 -104 26 -31 21 -41 -9 -18 -9 6 -23 36 -30 66 -8 32 -17 49
-21 42 -4 -7 -5 -18 -2 -26 9 -25 -3 -16 -18 13 -11 21 -12 32 -3 47 9 18 9
19 -6 6 -20 -16 -23 1 -4 21 7 7 16 21 20 32 5 13 14 17 32 13 14 -2 28 0 31
5 8 13 57 3 89 -18z m-185 6 c0 -5 -4 -10 -10 -10 -5 0 -10 5 -10 10 0 6 5 10
10 10 6 0 10 -4 10 -10z m-1243 -42 c-3 -8 -6 -5 -6 6 -1 11 2 17 5 13 3 -3 4
-12 1 -19z m123 12 c0 -5 -4 -10 -10 -10 -5 0 -10 5 -10 10 0 6 5 10 10 10 6
0 10 -4 10 -10z m75 0 c3 -5 -1 -10 -9 -10 -9 0 -16 5 -16 10 0 6 4 10 9 10 6
0 13 -4 16 -10z m-65 -35 c0 -8 -7 -15 -15 -15 -8 0 -15 7 -15 15 0 8 7 15 15
15 8 0 15 -7 15 -15z m0 -35 c0 -5 -4 -10 -10 -10 -5 0 -10 5 -10 10 0 6 5 10
10 10 6 0 10 -4 10 -10z m-114 -27 c-10 -10 -19 5 -10 18 6 11 8 11 12 0 2 -7
1 -15 -2 -18z m124 -3 c0 -5 -7 -10 -15 -10 -8 0 -15 5 -15 10 0 6 7 10 15 10
8 0 15 -4 15 -10z m1036 -45 c-3 -9 3 -24 14 -35 24 -24 25 -39 5 -47 -20 -7
-34 6 -17 16 10 6 10 11 -3 21 -17 14 -21 60 -4 60 6 0 9 -7 5 -15z m-1166
-25 c0 -5 -4 -10 -10 -10 -5 0 -10 5 -10 10 0 6 5 10 10 10 6 0 10 -4 10 -10z
m0 -40 c0 -5 -4 -10 -10 -10 -5 0 -10 5 -10 10 0 6 5 10 10 10 6 0 10 -4 10
-10z m-60 -20 c0 -5 -8 -11 -19 -15 -10 -3 -23 -15 -29 -28 -6 -12 -11 -16
-11 -9 -1 18 40 72 51 66 4 -3 8 -9 8 -14z m1453 13 c4 -3 2 -12 -4 -19 -7 -8
-7 -14 1 -19 18 -11 10 -85 -10 -85 -4 0 -10 21 -13 48 -2 26 -8 55 -12 65 -5
13 -2 17 12 17 11 0 23 -3 26 -7z m65 -67 c-5 -31 -28 -32 -28 -1 0 14 -5 36
-11 48 -11 21 -10 20 15 -3 15 -14 26 -33 24 -44z m-272 33 c3 -6 0 -15 -7
-20 -11 -7 -11 -9 2 -9 23 0 32 -28 11 -33 -12 -3 -11 -5 6 -6 27 -1 28 -9 5
-27 -17 -12 -16 -13 5 -14 12 0 22 -4 22 -10 0 -5 -10 -10 -23 -10 -20 0 -25
8 -35 51 -7 28 -12 59 -12 70 0 21 15 25 26 8z m-1190 -110 c1 -52 5 -133 8
-181 5 -83 4 -88 -20 -117 -25 -30 -61 -33 -50 -5 3 8 0 14 -6 14 -9 0 -9 3 0
12 10 10 15 10 21 -1 7 -11 11 -9 20 8 8 14 8 21 1 21 -18 0 -11 20 8 21 16 1
16 2 0 6 -10 2 -18 14 -18 25 0 11 8 27 18 34 16 12 15 13 -5 14 -13 0 -23 5
-23 10 0 6 7 10 15 10 8 0 15 5 15 10 0 6 -7 10 -15 10 -8 0 -15 5 -15 10 0 6
8 10 18 10 15 1 15 2 1 10 -21 12 -13 70 9 70 13 0 12 3 -4 16 -14 11 -16 17
-6 21 10 4 10 8 1 19 -9 11 -8 14 7 15 11 0 14 3 7 6 -7 2 -13 11 -13 20 0 8
6 13 13 10 8 -2 12 -32 13 -98z m1357 22 c-5 -32 -5 -33 17 -21 23 12 36 8 25
-9 -3 -6 -20 -11 -37 -11 -23 0 -29 4 -24 16 3 9 6 34 7 57 0 33 2 38 9 22 5
-11 6 -35 3 -54z m-1749 27 c12 -13 39 -38 60 -56 34 -30 37 -35 24 -49 -13
-12 -17 -12 -29 0 -16 15 -60 41 -62 35 -31 -62 -47 -61 -47 2 0 48 13 90 27
90 3 0 15 -10 27 -22z m274 -65 c-1 -79 -11 -118 -29 -108 -14 9 -11 48 6 89
9 20 15 42 14 49 -2 20 1 47 6 47 2 0 4 -35 3 -77z m41 15 c-4 -29 -8 -79 -8
-110 -1 -44 -5 -58 -15 -58 -23 0 -28 17 -14 42 6 13 13 48 13 78 2 59 12 100
24 100 4 0 4 -24 0 -52z m-83 -19 c-12 -28 -15 -30 -15 -12 -1 31 21 83 26 62
2 -9 -3 -32 -11 -50z m1600 -7 c-11 -10 -15 4 -8 28 l7 25 3 -23 c2 -13 1 -26
-2 -30z m-1486 34 c0 -3 -4 -8 -10 -11 -5 -3 -10 -1 -10 4 0 6 5 11 10 11 6 0
10 -2 10 -4z m-179 -36 c10 -6 19 -17 19 -25 0 -8 5 -15 10 -15 6 0 10 -9 10
-21 0 -11 5 -29 11 -41 9 -18 8 -19 -10 -13 -26 8 -111 55 -111 61 0 7 43 64
48 64 2 0 12 -5 23 -10z m1347 -25 c1 -21 -3 -33 -8 -30 -16 10 -11 65 5 65 1
0 2 -16 3 -35z m-1078 15 c0 -5 -4 -10 -10 -10 -5 0 -10 5 -10 10 0 6 5 10 10
10 6 0 10 -4 10 -10z m1188 -8 c3 -9 -2 -13 -14 -10 -9 1 -19 9 -22 16 -3 9 2
13 14 10 9 -1 19 -9 22 -16z m-1572 -33 c47 -38 118 -74 162 -84 17 -3 32 -13
32 -20 0 -8 13 -23 30 -35 16 -12 30 -29 30 -39 0 -22 -50 -62 -162 -130 -48
-28 -110 -70 -137 -92 -28 -21 -53 -39 -56 -39 -3 0 -5 90 -5 199 0 190 1 201
23 235 12 19 27 35 33 36 6 0 29 -14 50 -31z m389 -9 c0 -13 -6 -25 -14 -28
-10 -3 -12 0 -8 11 3 9 2 19 -4 22 -12 8 0 27 14 22 7 -2 12 -14 12 -27z
m1375 21 c0 -17 -12 -41 -20 -41 -15 0 -21 33 -8 42 17 10 28 10 28 -1z m-290
-41 c0 -5 -7 -10 -15 -10 -8 0 -15 5 -15 10 0 6 7 10 15 10 8 0 15 -4 15 -10z
m-1065 -91 c0 -61 -3 -69 -35 -107 -19 -23 -47 -44 -62 -48 -35 -8 -37 -34 -2
-34 14 0 22 4 19 10 -3 6 1 7 10 4 21 -8 3 -30 -32 -39 -19 -4 -31 -1 -44 14
-24 25 -24 41 -1 41 13 0 14 2 3 9 -18 11 3 24 27 17 12 -4 28 4 48 25 26 27
29 37 28 90 -1 48 2 59 15 60 13 1 13 2 -1 6 -26 7 -22 25 5 21 20 -3 22 -8
22 -69z m1065 56 c0 -9 -6 -12 -15 -9 -8 4 -12 10 -9 15 8 14 24 10 24 -6z m7
-31 c-3 -3 -12 -4 -19 -1 -8 3 -5 6 6 6 11 1 17 -2 13 -5z m-2 -24 c3 -5 -1
-10 -9 -10 -9 0 -16 5 -16 10 0 6 4 10 9 10 6 0 13 -4 16 -10z m2 -26 c-3 -3
-12 -4 -19 -1 -8 3 -5 6 6 6 11 1 17 -2 13 -5z m347 -69 l6 -40 -15 34 c-16
36 -21 89 -6 61 5 -8 11 -33 15 -55z m-344 40 c0 -8 -4 -15 -10 -15 -5 0 -10
7 -10 15 0 8 5 15 10 15 6 0 10 -7 10 -15z m-725 -5 c3 -5 1 -10 -4 -10 -6 0
-11 5 -11 10 0 6 2 10 4 10 3 0 8 -4 11 -10z m183 -37 c-2 -10 -7 -17 -11 -15
-4 1 -24 2 -44 3 l-38 1 30 13 c43 20 67 19 63 -2z m588 -21 c-9 -8 -26 10
-26 26 1 15 2 15 15 -2 8 -11 13 -21 11 -24z m-736 8 c0 -5 -2 -10 -4 -10 -3
0 -8 5 -11 10 -3 6 -1 10 4 10 6 0 11 -4 11 -10z m130 -19 c0 -5 -7 -12 -16
-15 -10 -4 -13 -2 -8 6 5 7 2 9 -7 6 -8 -3 -23 -2 -34 3 -15 6 -9 8 23 8 23 1
42 -3 42 -8z m-690 -14 c0 -2 -7 -18 -15 -35 -10 -20 -28 -35 -50 -42 -20 -6
-40 -20 -45 -30 -16 -29 -12 -77 6 -84 26 -10 152 -7 159 4 3 6 34 10 69 10
57 0 66 3 101 35 22 19 40 33 42 31 1 -1 6 -27 10 -57 l8 -54 49 -3 48 -3 -3
71 -4 72 38 4 c33 3 38 1 32 -14 -4 -9 -9 -41 -10 -71 -2 -29 -7 -57 -12 -62
-4 -4 -159 -9 -343 -10 -387 -2 -420 -2 -419 9 0 4 33 28 72 54 40 25 112 76
160 112 78 58 107 75 107 63z m567 -3 c-3 -3 -12 -4 -19 -1 -8 3 -5 6 6 6 11
1 17 -2 13 -5z m486 -11 c-7 -2 -21 -2 -30 0 -10 3 -4 5 12 5 17 0 24 -2 18
-5z m65 -30 c2 -9 -9 -13 -40 -11 -42 1 -42 1 -8 7 34 5 34 5 -15 12 l-50 6
54 -1 c34 -1 56 -6 59 -13z m-688 -9 c0 -2 -14 -4 -31 -4 -16 0 -28 4 -25 9 5
8 56 3 56 -5z m594 -20 c45 -16 102 -18 111 -4 9 14 58 13 73 -2 9 -9 12 -9
12 0 0 7 5 12 10 12 6 0 10 -7 10 -15 0 -16 49 -21 66 -7 25 23 96 35 161 28
94 -10 112 -10 138 4 26 14 69 -5 150 -67 39 -30 51 -46 53 -71 l3 -32 -304 0
-305 0 5 -32 c6 -41 13 -49 14 -17 1 56 18 -17 18 -83 1 -80 -18 -94 -21 -15
l-1 52 -7 -55 c-4 -30 -8 -44 -9 -30 -1 14 -6 32 -11 40 -7 11 -10 5 -10 -22
l0 -38 -50 0 -50 0 0 80 c0 47 4 80 10 80 6 0 8 -15 4 -37 -3 -21 -1 -56 5
-78 l10 -40 0 45 c-1 90 1 120 9 120 5 0 6 -27 4 -61 -3 -40 0 -65 8 -72 9 -9
11 -2 6 35 -7 51 0 98 15 98 5 0 10 -17 11 -37 1 -37 1 -37 5 -5 2 17 8 32 13
32 5 0 8 8 7 18 -1 16 -13 18 -116 20 -81 1 -117 5 -123 14 -6 10 -10 10 -16
1 -6 -9 -45 -13 -131 -14 -68 0 -125 1 -127 3 -9 10 -9 118 0 122 6 2 1 8 -12
13 -22 8 -22 9 8 20 17 7 32 7 36 2 3 -5 16 -9 29 -9 13 0 27 -4 30 -10 3 -5
17 -10 30 -10 26 0 98 30 104 43 4 10 71 0 125 -19z m-714 -94 c0 -5 -4 -10
-10 -10 -5 0 -10 5 -10 10 0 6 5 10 10 10 6 0 10 -4 10 -10z m10 -30 c0 -5 -4
-10 -10 -10 -5 0 -10 5 -10 10 0 6 5 10 10 10 6 0 10 -4 10 -10z m320 -20 c0
-5 -2 -10 -4 -10 -3 0 -8 5 -11 10 -3 6 -1 10 4 10 6 0 11 -4 11 -10z m-84
-25 c-8 -8 -17 -15 -20 -15 -3 0 -6 7 -6 15 0 9 9 15 21 15 18 0 19 -2 5 -15z
m-116 -5 c0 -5 -5 -10 -11 -10 -5 0 -7 5 -4 10 3 6 8 10 11 10 2 0 4 -4 4 -10z
m170 6 c0 -3 -4 -8 -10 -11 -5 -3 -10 -1 -10 4 0 6 5 11 10 11 6 0 10 -2 10
-4z m47 -18 c-3 -8 -6 -5 -6 6 -1 11 2 17 5 13 3 -3 4 -12 1 -19z m250 16 c-3
-3 -12 -4 -19 -1 -8 3 -5 6 6 6 11 1 17 -2 13 -5z m625 -87 l2 -82 3 80 c5
103 22 124 25 30 l1 -70 6 65 c6 64 6 65 36 65 23 0 31 -6 36 -25 7 -24 7 -24
8 -2 1 12 6 22 11 22 6 0 11 -10 11 -22 l2 -23 4 23 c5 23 22 31 24 10 0 -10
2 -10 6 0 2 6 14 11 26 11 16 -1 17 -3 6 -6 -10 -2 -19 -13 -22 -24 -4 -13
-14 -19 -35 -19 -37 0 -50 -17 -26 -34 16 -12 15 -14 -10 -20 -19 -5 -26 -12
-22 -21 3 -8 1 -15 -3 -15 -5 0 -12 6 -14 13 -4 7 -6 6 -6 -5 -1 -9 -7 -18
-13 -21 -7 -2 -10 -7 -6 -11 3 -4 16 -3 27 4 27 14 113 9 118 -7 3 -8 -6 -12
-26 -10 -17 1 -31 5 -31 8 0 9 -33 6 -40 -2 -7 -10 -33 -11 -127 -10 -72 1
-83 3 -84 19 0 16 -1 16 -8 -1 -9 -25 -25 -23 -33 5 l-6 23 -1 -22 c-1 -13 -6
-23 -12 -23 -7 0 -10 12 -7 29 2 17 1 28 -4 25 -4 -3 -8 -16 -8 -30 0 -13 -3
-24 -7 -24 -11 0 -4 151 7 170 7 11 10 2 11 -30 2 -33 3 -37 6 -15 8 62 18 58
23 -10 l6 -70 2 68 c1 41 6 67 13 67 8 0 10 -21 7 -65 -2 -36 0 -65 4 -65 4 0
8 29 8 65 0 96 20 80 22 -17 l2 -83 5 85 c4 52 9 78 13 67 5 -10 6 -35 3 -55
-3 -20 -1 -50 4 -67 8 -24 10 -14 8 53 -1 45 1 82 5 82 11 0 21 -87 15 -131
-3 -21 -1 -39 4 -39 5 0 9 41 9 91 0 114 19 111 22 -4z m-799 75 c2 7 3 -18 1
-57 -2 -50 -1 -62 5 -40 5 17 9 45 10 63 1 22 5 31 12 26 7 -4 9 -28 6 -68 -4
-39 -3 -52 3 -36 4 14 8 45 9 69 1 61 8 49 14 -27 2 -35 8 -66 12 -70 4 -4 4
26 0 67 -5 53 -4 72 4 67 6 -4 12 -22 12 -39 1 -18 5 -45 9 -62 6 -20 7 -8 4
35 -5 63 -4 64 10 35 l14 -30 1 33 c1 40 21 43 21 3 0 -17 -4 -33 -10 -36 -5
-3 -10 -19 -10 -34 0 -16 -6 -33 -13 -39 -14 -12 -155 -37 -163 -29 -3 3 -2
18 3 33 l7 29 7 -30 c5 -18 7 4 6 57 -2 64 1 84 10 77 7 -7 13 -5 16 3z m554
-77 c-3 -47 -1 -88 4 -91 5 -3 9 34 9 85 0 58 4 91 11 91 7 0 8 -27 4 -82 -8
-105 -10 -110 -37 -106 -21 3 -23 8 -24 73 0 39 -3 76 -5 84 -2 7 1 15 8 18 6
2 13 -6 16 -19 4 -20 4 -20 6 5 0 15 4 27 7 27 3 0 4 -38 1 -85z m521 43 c3
-36 2 -38 -27 -38 -38 0 -41 20 -3 21 l27 1 -25 8 c-23 7 -23 8 -6 15 18 8 18
8 0 22 -18 14 -18 14 6 11 21 -2 26 -9 28 -40z m-1699 -72 c1 -33 4 -56 8 -53
3 4 5 41 4 82 -2 48 2 75 8 75 6 0 11 -23 12 -52 1 -61 5 -87 14 -96 4 -4 4
26 0 66 -5 48 -4 72 3 72 6 0 13 -17 15 -37 l4 -38 1 43 c1 30 6 42 15 39 7
-2 11 -20 10 -46 -2 -22 2 -41 7 -41 6 0 10 20 10 45 0 60 20 58 22 -2 l2 -48
3 48 c3 38 8 48 20 45 14 -2 16 -15 15 -63 -1 -33 2 -67 8 -75 7 -11 10 8 10
64 0 101 16 89 22 -16 l5 -78 -119 0 -118 0 -1 53 c0 28 -2 61 -5 72 -2 11 -1
27 3 35 9 23 21 -25 22 -94z m253 30 c3 -72 11 -97 24 -83 4 4 2 12 -3 19 -6
7 -11 42 -11 78 -1 46 1 59 8 45 7 -17 9 -18 9 -2 1 9 5 17 9 17 5 0 4 -23 -2
-51 -8 -41 -8 -52 4 -59 8 -6 11 -10 6 -10 -4 0 -1 -11 8 -25 l16 -25 -45 0
-45 0 0 69 c0 38 -3 76 -6 85 -4 10 -1 16 9 16 11 0 16 -17 19 -74z m598 59
c4 3 7 -23 5 -57 -2 -35 -2 -49 1 -33 14 93 16 101 24 80 l9 -20 2 20 c2 11 6
-16 9 -60 l6 -80 2 78 c1 43 6 77 12 77 6 0 10 -6 11 -12 0 -10 2 -10 6 0 14
34 23 4 21 -68 -2 -44 -6 -80 -10 -80 -5 0 -8 10 -9 23 0 22 0 22 -9 1 -7 -19
-16 -21 -74 -21 -70 1 -77 6 -48 35 10 10 16 28 14 46 -3 20 0 26 9 21 9 -6
11 2 6 31 -3 21 -3 33 0 26 2 -6 8 -10 13 -7z m-1250 -29 c0 7 6 14 14 17 11
4 13 -6 11 -54 -2 -32 1 -61 6 -65 5 -3 9 24 9 62 0 87 18 74 23 -16 l3 -65 2
78 c1 45 6 77 12 77 7 0 10 -30 8 -82 l-3 -83 -68 -3 c-67 -3 -68 -3 -57 18 7
12 11 45 10 73 -4 77 -1 86 15 57 8 -14 14 -20 15 -14z m113 -55 c-7 -94 -13
-89 -13 10 0 54 4 79 9 70 5 -8 7 -44 4 -80z m37 32 c0 -42 3 -54 10 -43 6 8
7 34 4 58 -4 28 -3 42 5 42 6 0 11 -13 11 -30 0 -40 18 -38 23 3 2 17 5 -3 5
-45 2 -102 21 -102 24 0 l2 77 3 -78 c5 -96 23 -94 23 4 0 39 4 69 10 69 6 0
10 -32 10 -75 0 -41 1 -78 3 -81 1 -4 -32 -7 -73 -8 l-75 -1 -3 83 c-2 52 1
82 8 82 6 0 10 -24 10 -57z m170 -5 c0 -35 5 -70 11 -78 7 -11 9 7 7 63 -2 42
0 77 4 77 10 0 16 -31 21 -102 l4 -58 -29 0 c-34 0 -36 4 -40 93 -3 50 -1 67
9 67 9 0 13 -18 13 -62z m447 20 c-3 -8 -6 -5 -6 6 -1 11 2 17 5 13 3 -3 4
-12 1 -19z m132 -21 c0 -12 -4 -31 -9 -42 -6 -15 -9 -8 -9 28 -1 30 3 46 9 42
6 -3 10 -16 9 -28z m41 -12 l-8 -40 -1 36 c0 20 2 39 6 42 11 11 11 4 3 -38z
m-101 -37 c1 -20 -3 -40 -9 -43 -6 -4 -10 17 -9 57 0 68 17 56 18 -14z m1181
62 c0 -5 -11 -10 -25 -10 -14 0 -25 5 -25 10 0 6 11 10 25 10 14 0 25 -4 25
-10z m-8 -52 c-8 -8 -17 -8 -34 0 -22 10 -21 11 12 11 26 1 31 -2 22 -11z m76
5 c-10 -2 -26 -2 -35 0 -10 3 -2 5 17 5 19 0 27 -2 18 -5z m-1298 -22 c0 -6
-4 -13 -10 -16 -5 -3 -10 1 -10 9 0 9 5 16 10 16 6 0 10 -4 10 -9z m137 -23
c-3 -8 -6 -5 -6 6 -1 11 2 17 5 13 3 -3 4 -12 1 -19z m1156 15 c-7 -2 -19 -2
-25 0 -7 3 -2 5 12 5 14 0 19 -2 13 -5z m14 -29 c-3 -3 -12 -4 -19 -1 -8 3 -5
6 6 6 11 1 17 -2 13 -5z m-59 -24 l62 0 0 -117 c0 -65 -4 -124 -8 -130 -6 -9
-37 -11 -112 -8 -152 6 -709 6 -1292 -1 -486 -5 -506 -5 -505 13 1 12 -5 18
-18 18 -30 0 -36 15 -29 72 5 40 2 59 -10 78 -19 29 -74 42 -107 24 -32 -16
-39 -28 -39 -70 0 -46 36 -83 77 -77 23 3 31 -1 44 -28 l15 -31 -68 -6 c-38
-3 -76 -3 -84 0 -12 4 -14 28 -12 132 l3 126 380 5 c209 3 664 4 1010 2 347
-1 658 -2 693 -2z m-1940 -72 c7 -7 12 -27 12 -45 0 -28 -5 -36 -35 -50 -44
-21 -65 -6 -65 46 0 44 14 61 50 61 14 0 31 -5 38 -12z"/>
<path d="M636 3751 c-4 -7 -5 -15 -2 -18 9 -9 19 4 14 18 -4 11 -6 11 -12 0z"/>
<path d="M1486 3741 c-4 -7 -5 -15 -2 -18 9 -9 19 4 14 18 -4 11 -6 11 -12 0z"/>
<path d="M1540 3720 c0 -5 5 -10 10 -10 6 0 10 5 10 10 0 6 -4 10 -10 10 -5 0
-10 -4 -10 -10z"/>
<path d="M1320 3710 c0 -5 7 -6 17 -3 10 4 14 2 9 -5 -3 -6 -3 -13 2 -16 4 -2
9 4 9 15 1 13 -5 19 -18 19 -10 0 -19 -4 -19 -10z"/>
<path d="M675 3700 c3 -5 8 -10 11 -10 2 0 4 5 4 10 0 6 -5 10 -11 10 -5 0 -7
-4 -4 -10z"/>
<path d="M1235 3700 c-3 -5 -16 -11 -28 -11 -14 -1 -16 -3 -6 -6 8 -2 28 3 45
12 18 9 23 15 12 15 -9 0 -20 -4 -23 -10z"/>
<path d="M860 3682 c-8 -9 -13 -23 -12 -31 2 -8 -4 -20 -13 -27 -15 -12 -15
-15 5 -42 12 -16 23 -42 23 -58 1 -16 8 -36 16 -44 13 -13 13 -11 7 15 -4 17
-16 49 -28 73 -15 32 -18 46 -9 55 6 6 11 20 11 30 0 13 5 17 16 13 11 -4 15
-2 11 8 -4 11 -1 13 10 9 11 -4 14 -2 9 5 -10 17 -28 14 -46 -6z"/>
<path d="M631 3674 c0 -11 3 -14 6 -6 3 7 2 16 -1 19 -3 4 -6 -2 -5 -13z"/>
<path d="M1273 3676 c2 -6 11 -12 20 -14 11 -2 15 1 12 11 -7 16 -37 19 -32 3z"/>
<path d="M1431 3661 c-26 -27 -27 -33 -20 -93 4 -34 14 -98 23 -141 8 -43 13
-91 9 -108 -10 -53 -53 -29 -54 31 0 32 -37 140 -38 114 -1 -6 5 -27 13 -45
17 -42 27 -129 15 -129 -12 0 -11 -27 1 -35 6 -4 7 1 3 12 -5 15 -3 16 8 6 20
-20 67 -16 79 6 15 29 12 61 -15 167 -29 110 -33 195 -10 214 12 10 18 10 30
0 20 -17 19 -30 -6 -56 -12 -12 -18 -27 -14 -33 11 -18 27 -12 20 8 -3 10 1
24 10 31 8 7 15 20 16 29 0 9 6 3 14 -14 13 -27 14 -28 15 -7 0 24 -40 72 -61
72 -6 0 -23 -13 -38 -29z"/>
<path d="M1362 3650 c0 -14 2 -19 5 -12 2 6 2 18 0 25 -3 6 -5 1 -5 -13z"/>
<path d="M721 3650 c0 -8 6 -24 14 -34 13 -17 15 -18 15 -3 0 9 -4 17 -9 17
-5 0 -12 8 -14 18 -3 12 -5 13 -6 2z"/>
<path d="M1016 3643 c-6 -14 -5 -15 5 -6 7 7 10 15 7 18 -3 3 -9 -2 -12 -12z"/>
<path d="M1226 3645 c-3 -8 -12 -12 -21 -9 -8 3 -15 2 -15 -4 0 -9 20 -9 40
-2 3 1 8 2 13 1 4 0 7 6 7 14 0 19 -16 19 -24 0z"/>
<path d="M1540 3649 c0 -5 5 -7 10 -4 6 3 10 8 10 11 0 2 -4 4 -10 4 -5 0 -10
-5 -10 -11z"/>
<path d="M940 3641 c0 -6 5 -13 10 -16 6 -3 10 1 10 9 0 9 -4 16 -10 16 -5 0
-10 -4 -10 -9z"/>
<path d="M975 3640 c-3 -5 -1 -10 4 -10 6 0 11 5 11 10 0 6 -2 10 -4 10 -3 0
-8 -4 -11 -10z"/>
<path d="M1371 3602 c-1 -15 -9 -26 -21 -29 -15 -4 -20 -13 -19 -37 1 -26 2
-27 6 -7 3 13 14 32 25 41 12 10 18 23 15 35 -4 17 -5 16 -6 -3z"/>
<path d="M1193 3595 c10 -10 16 -24 13 -32 -3 -8 -1 -11 4 -8 6 4 17 0 25 -9
11 -11 12 -16 2 -19 -6 -3 -1 -6 12 -6 22 -1 21 1 -15 42 -21 23 -42 44 -48
46 -6 2 -3 -4 7 -14z"/>
<path d="M1000 3590 c-8 -5 -12 -11 -9 -14 2 -3 11 -1 19 4 8 5 12 11 9 14 -2
3 -11 1 -19 -4z"/>
<path d="M1525 3513 c2 -46 0 -83 -5 -83 -5 0 -10 -10 -12 -22 -3 -18 -7 -12
-17 22 -6 25 -18 59 -26 75 -12 24 -15 26 -15 9 0 -11 3 -24 7 -28 4 -4 14
-30 23 -58 15 -49 40 -77 40 -44 0 9 5 16 11 16 9 0 10 21 6 70 -4 51 -3 70 6
70 9 0 9 2 1 8 -7 4 -14 16 -18 27 -3 11 -3 -17 -1 -62z"/>
<path d="M757 3531 c-4 -17 -3 -21 5 -13 5 5 8 16 6 23 -3 8 -7 3 -11 -10z"/>
<path d="M1025 3540 c3 -5 -1 -11 -7 -13 -9 -4 -8 -6 2 -6 8 0 21 3 28 8 10 6
9 10 -7 14 -12 3 -19 1 -16 -3z"/>
<path d="M1188 3533 c6 -2 18 -2 25 0 6 3 1 5 -13 5 -14 0 -19 -2 -12 -5z"/>
<path d="M970 3496 c0 -9 7 -16 16 -16 9 0 14 5 12 12 -6 18 -28 21 -28 4z"/>
<path d="M1010 3490 c0 -5 5 -10 11 -10 5 0 7 5 4 10 -3 6 -8 10 -11 10 -2 0
-4 -4 -4 -10z"/>
<path d="M1046 3487 c3 -10 9 -15 12 -12 3 3 0 11 -7 18 -10 9 -11 8 -5 -6z"/>
<path d="M987 3446 c3 -12 -2 -40 -11 -61 -20 -46 -21 -42 9 -47 13 -3 22 -1
19 3 -3 5 -12 9 -20 9 -13 0 -13 4 1 30 16 32 20 76 6 84 -4 3 -6 -5 -4 -18z"/>
<path d="M1060 3429 c0 -11 5 -17 10 -14 6 3 10 13 10 21 0 8 -4 14 -10 14 -5
0 -10 -9 -10 -21z"/>
<path d="M1156 3443 c-12 -12 -6 -33 9 -33 8 0 15 6 15 14 0 17 -14 28 -24 19z"/>
<path d="M1015 3400 c-3 -5 -1 -10 4 -10 6 0 11 5 11 10 0 6 -2 10 -4 10 -3 0
-8 -4 -11 -10z"/>
<path d="M1195 3390 c-3 -5 -1 -10 4 -10 6 0 11 5 11 10 0 6 -2 10 -4 10 -3 0
-8 -4 -11 -10z"/>
<path d="M1150 3380 c0 -5 5 -10 11 -10 5 0 7 5 4 10 -3 6 -8 10 -11 10 -2 0
-4 -4 -4 -10z"/>
<path d="M645 3290 c3 -5 8 -10 11 -10 2 0 4 5 4 10 0 6 -5 10 -11 10 -5 0 -7
-4 -4 -10z"/>
<path d="M1335 3227 c5 -18 3 -27 -5 -27 -8 0 -10 -9 -6 -24 4 -18 1 -26 -11
-30 -14 -4 -13 -4 2 -3 13 2 20 10 19 23 -1 34 21 46 42 23 20 -22 20 -22 -33
-56 -16 -10 -16 -13 -3 -26 13 -14 20 -11 59 19 24 19 39 34 33 34 -6 0 -25
-12 -42 -26 -17 -15 -34 -23 -38 -20 -3 4 7 17 23 30 l29 23 -22 30 c-11 16
-28 36 -37 43 -14 12 -16 10 -10 -13z"/>
<path d="M1405 3220 c10 -11 20 -20 23 -20 3 0 -3 9 -13 20 -10 11 -20 20 -23
20 -3 0 3 -9 13 -20z"/>
<path d="M1250 3158 c0 -12 7 -18 23 -17 15 0 17 2 7 6 -8 3 -18 11 -22 17 -5
7 -8 4 -8 -6z"/>
<path d="M645 3110 c3 -5 8 -10 11 -10 2 0 4 5 4 10 0 6 -5 10 -11 10 -5 0 -7
-4 -4 -10z"/>
<path d="M866 3097 c3 -10 9 -15 12 -12 3 3 0 11 -7 18 -10 9 -11 8 -5 -6z"/>
<path d="M1285 3100 c-3 -5 -1 -10 4 -10 6 0 11 5 11 10 0 6 -2 10 -4 10 -3 0
-8 -4 -11 -10z"/>
<path d="M635 3060 c3 -5 8 -10 11 -10 2 0 4 5 4 10 0 6 -5 10 -11 10 -5 0 -7
-4 -4 -10z"/>
<path d="M858 3063 c7 -3 16 -2 19 1 4 3 -2 6 -13 5 -11 0 -14 -3 -6 -6z"/>
<path d="M1063 3061 c0 -11 4 -18 8 -15 4 2 9 -1 11 -7 2 -7 9 -5 17 5 12 14
10 16 -10 17 -21 1 -20 2 6 9 l30 8 -32 1 c-26 1 -31 -3 -30 -18z"/>
<path d="M1123 2953 c-27 -10 -11 -18 27 -15 22 2 37 8 34 13 -6 10 -41 11
-61 2z"/>
<path d="M1545 2820 c-3 -5 -1 -10 4 -10 6 0 11 5 11 10 0 6 -2 10 -4 10 -3 0
-8 -4 -11 -10z"/>
<path d="M1535 2770 c-3 -5 -1 -10 4 -10 6 0 11 5 11 10 0 6 -2 10 -4 10 -3 0
-8 -4 -11 -10z"/>
<path d="M1500 2740 c0 -5 5 -10 10 -10 6 0 10 5 10 10 0 6 -4 10 -10 10 -5 0
-10 -4 -10 -10z"/>
<path d="M1520 2710 c0 -5 5 -10 10 -10 6 0 10 5 10 10 0 6 -4 10 -10 10 -5 0
-10 -4 -10 -10z"/>
<path d="M1387 2690 c3 -11 7 -20 9 -20 2 0 4 9 4 20 0 11 -4 20 -9 20 -5 0
-7 -9 -4 -20z"/>
<path d="M1332 2680 c0 -14 2 -19 5 -12 2 6 2 18 0 25 -3 6 -5 1 -5 -13z"/>
<path d="M1250 2600 c0 -5 7 -10 15 -10 8 0 15 5 15 10 0 6 -7 10 -15 10 -8 0
-15 -4 -15 -10z"/>
<path d="M1301 2594 c0 -11 3 -14 6 -6 3 7 2 16 -1 19 -3 4 -6 -2 -5 -13z"/>
<path d="M1331 2594 c0 -11 3 -14 6 -6 3 7 2 16 -1 19 -3 4 -6 -2 -5 -13z"/>
<path d="M1381 2584 c0 -11 3 -14 6 -6 3 7 2 16 -1 19 -3 4 -6 -2 -5 -13z"/>
<path d="M1452 2555 c0 -16 2 -22 5 -12 2 9 2 23 0 30 -3 6 -5 -1 -5 -18z"/>
<path d="M1479 2532 c5 -34 6 -35 9 -8 2 16 0 32 -5 37 -5 5 -7 -7 -4 -29z"/>
<path d="M1675 2711 c-3 -6 4 -9 15 -8 11 1 20 5 20 9 0 11 -28 10 -35 -1z"/>
<path d="M1706 2681 c-4 -7 -5 -15 -2 -18 9 -9 19 4 14 18 -4 11 -6 11 -12 0z"/>
<path d="M1730 2660 c0 -7 24 -20 36 -20 13 0 1 19 -16 23 -11 3 -20 2 -20 -3z"/>
<path d="M1725 2620 c3 -5 8 -10 11 -10 2 0 4 5 4 10 0 6 -5 10 -11 10 -5 0
-7 -4 -4 -10z"/>
<path d="M1040 2641 c0 -5 5 -13 10 -16 6 -3 10 -2 10 4 0 5 -4 13 -10 16 -5
3 -10 2 -10 -4z"/>
<path d="M821 2594 c0 -11 3 -14 6 -6 3 7 2 16 -1 19 -3 4 -6 -2 -5 -13z"/>
<path d="M781 2584 c0 -11 3 -14 6 -6 3 7 2 16 -1 19 -3 4 -6 -2 -5 -13z"/>
<path d="M1223 2533 c9 -2 23 -2 30 0 6 3 -1 5 -18 5 -16 0 -22 -2 -12 -5z"/>
<path d="M1186 2483 c2 -21 6 -90 10 -154 l6 -115 31 5 c26 4 28 6 10 9 -13 2
-24 8 -24 13 -6 41 -4 44 31 42 l35 -2 -37 11 c-36 10 -38 12 -38 53 0 43 1
44 38 48 l37 4 -38 1 c-41 2 -43 22 -2 22 13 0 26 4 30 9 3 6 -9 7 -31 4 -33
-6 -36 -4 -32 18 2 17 11 26 33 30 l30 7 -32 1 c-22 1 -33 6 -33 16 0 8 -6 15
-14 15 -10 0 -13 -10 -10 -37z"/>
<path d="M1230 2509 c0 -5 9 -9 20 -9 11 0 20 2 20 4 0 2 -9 6 -20 9 -11 3
-20 1 -20 -4z"/>
<path d="M1228 2453 c6 -2 18 -2 25 0 6 3 1 5 -13 5 -14 0 -19 -2 -12 -5z"/>
<path d="M979 2290 c-3 -91 -9 -174 -14 -185 -7 -17 -7 -18 7 -8 10 9 17 41
22 105 3 54 11 95 17 97 8 2 7 6 -1 11 -8 5 -16 39 -20 77 -5 56 -7 38 -11
-97z"/>
<path d="M1142 2408 c-6 -13 -14 -33 -17 -46 -9 -32 26 -317 37 -298 5 9 16
13 26 10 12 -4 11 -2 -3 7 -11 6 -21 12 -22 13 0 1 -5 19 -9 41 -6 36 -5 39 9
27 13 -11 15 -10 10 7 -3 12 -9 21 -14 21 -5 0 -9 9 -9 20 0 11 5 20 11 20 8
0 8 4 0 14 -9 11 -9 15 1 19 8 4 7 6 -4 6 -10 1 -18 5 -18 10 0 5 8 12 18 14
14 4 14 5 -3 6 -17 1 -18 3 -5 11 10 6 11 10 3 10 -19 0 -16 18 5 23 15 4 15
5 -2 6 -15 1 -16 4 -6 16 10 12 10 15 0 15 -9 0 -8 7 4 25 9 14 13 25 8 25 -5
0 -14 -10 -20 -22z"/>
<path d="M1243 2363 c9 -2 23 -2 30 0 6 3 -1 5 -18 5 -16 0 -22 -2 -12 -5z"/>
<path d="M1005 2350 c3 -5 8 -10 11 -10 2 0 4 5 4 10 0 6 -5 10 -11 10 -5 0
-7 -4 -4 -10z"/>
<path d="M1228 2343 c7 -3 16 -2 19 1 4 3 -2 6 -13 5 -11 0 -14 -3 -6 -6z"/>
<path d="M1030 2321 c0 -11 5 -23 10 -26 6 -3 10 3 10 14 0 11 -4 23 -10 26
-5 3 -10 -3 -10 -14z"/>
<path d="M1233 2313 c9 -2 25 -2 35 0 9 3 1 5 -18 5 -19 0 -27 -2 -17 -5z"/>
<path d="M1317 2289 c7 -7 15 -10 18 -7 3 3 -2 9 -12 12 -14 6 -15 5 -6 -5z"/>
<path d="M915 2270 c-3 -5 -1 -10 4 -10 6 0 11 5 11 10 0 6 -2 10 -4 10 -3 0
-8 -4 -11 -10z"/>
<path d="M1084 2259 c-3 -6 -3 -49 1 -95 l7 -84 -26 0 -26 0 0 90 c0 58 -4 90
-11 90 -7 0 -9 -20 -7 -55 3 -33 0 -55 -6 -55 -6 0 -5 -5 2 -12 17 -17 15 -58
-5 -80 -15 -17 -15 -18 0 -18 20 0 23 -16 5 -23 -10 -4 -9 -8 2 -16 12 -8 12
-11 -5 -17 -18 -7 -18 -8 1 -15 18 -7 18 -8 -1 -9 l-20 -1 20 -9 20 -9 -20 -1
c-20 -1 -20 -1 -1 -15 14 -11 16 -15 5 -15 -12 0 -12 -2 1 -10 12 -8 13 -11 1
-19 -11 -7 -11 -9 0 -14 10 -4 10 -6 2 -6 -7 -1 -13 -6 -13 -12 0 -5 5 -7 11
-3 7 4 10 1 7 -7 -3 -8 -11 -13 -17 -11 -6 1 -11 -2 -11 -8 0 -5 7 -10 15 -10
8 0 15 -4 15 -10 0 -5 -7 -10 -15 -10 -8 0 -15 -4 -15 -10 0 -5 7 -10 16 -10
8 0 13 -4 9 -10 -3 -5 -12 -7 -20 -3 -8 3 -15 0 -15 -6 0 -6 7 -11 15 -11 8 0
15 -4 15 -10 0 -5 -9 -10 -21 -10 -11 0 -17 -4 -14 -10 3 -5 1 -10 -6 -10 -7
0 -4 -7 7 -15 19 -14 18 -14 -3 -15 -38 0 -26 -17 17 -24 26 -4 38 -10 34 -19
-3 -9 7 -13 33 -14 32 -1 35 1 15 8 -13 5 -21 13 -17 18 3 6 13 7 22 4 11 -4
14 -3 9 5 -4 7 -2 12 4 12 6 0 8 5 5 10 -3 6 -11 10 -16 10 -6 0 -7 -4 -4 -10
3 -5 1 -10 -4 -10 -6 0 -11 18 -11 40 0 32 4 40 19 40 14 0 17 6 13 25 -2 14
-9 25 -14 25 -6 0 -6 6 1 14 9 11 9 15 -1 19 -10 4 -10 8 2 16 12 8 12 11 1
11 -11 0 -11 3 -1 15 9 11 9 15 1 15 -7 0 -9 5 -6 10 10 17 25 1 25 -27 0 -31
29 -144 41 -157 4 -4 13 -5 19 -1 9 6 9 9 -1 15 -16 11 -20 53 -5 62 7 5 4 8
-8 8 -12 0 -16 5 -13 14 3 8 1 17 -6 20 -9 5 -9 7 1 12 10 5 10 9 0 21 -10 13
-9 15 7 12 11 -3 22 -17 29 -39 7 -27 10 -31 14 -15 2 11 9 23 16 27 7 5 5 8
-5 8 -23 0 -29 21 -29 94 0 55 3 64 23 75 l22 11 -22 -6 c-25 -6 -32 12 -8 19
11 4 10 4 -2 3 -15 -1 -19 -14 -23 -80 -3 -51 -10 -81 -17 -84 -7 -2 -13 1
-13 6 0 6 6 13 13 15 6 3 3 6 -8 7 -20 1 -20 1 -1 15 20 15 20 15 0 16 -18 0
-18 1 1 9 19 8 19 9 -2 9 -13 1 -23 5 -23 10 0 5 10 12 23 14 21 4 21 4 1 6
-38 2 -43 50 -6 52 12 0 11 3 -5 9 -20 8 -23 17 -23 60 0 27 3 50 8 50 4 0 7
18 7 39 0 22 -3 37 -7 34 -5 -2 -8 2 -8 11 0 8 6 17 13 19 7 3 6 6 -5 6 -9 1
-20 -4 -24 -10z m6 -237 c0 -40 -3 -48 -18 -48 -10 0 -19 5 -20 11 0 5 -4 27
-8 48 -6 35 -5 37 20 37 24 0 26 -3 26 -48z m5 -102 c3 -5 1 -10 -4 -10 -6 0
-11 5 -11 10 0 6 2 10 4 10 3 0 8 -4 11 -10z m-25 -59 c0 -6 -4 -13 -10 -16
-5 -3 -10 1 -10 9 0 9 5 16 10 16 6 0 10 -4 10 -9z m-5 -41 c3 -5 1 -10 -4
-10 -6 0 -11 5 -11 10 0 6 2 10 4 10 3 0 8 -4 11 -10z m3 -41 c-2 -6 -8 -10
-13 -10 -5 0 -11 4 -13 10 -2 6 4 11 13 11 9 0 15 -5 13 -11z m-8 -39 c0 -5
-2 -10 -4 -10 -3 0 -8 5 -11 10 -3 6 -1 10 4 10 6 0 11 -4 11 -10z m-3 -26
c-3 -3 -12 -4 -19 -1 -8 3 -5 6 6 6 11 1 17 -2 13 -5z m-12 -24 c3 -5 -1 -10
-10 -10 -9 0 -13 5 -10 10 3 6 8 10 10 10 2 0 7 -4 10 -10z m5 -30 c0 -5 -7
-10 -15 -10 -8 0 -15 5 -15 10 0 6 7 10 15 10 8 0 15 -4 15 -10z"/>
<path d="M1056 2036 c3 -9 11 -16 16 -16 13 0 5 23 -10 28 -7 2 -10 -2 -6 -12z"/>
<path d="M1243 2263 c9 -2 23 -2 30 0 6 3 -1 5 -18 5 -16 0 -22 -2 -12 -5z"/>
<path d="M1238 2243 c6 -2 18 -2 25 0 6 3 1 5 -13 5 -14 0 -19 -2 -12 -5z"/>
<path d="M1215 2190 c-3 -5 -2 -10 4 -10 5 0 13 5 16 10 3 6 2 10 -4 10 -5 0
-13 -4 -16 -10z"/>
<path d="M1235 2160 c-19 -8 -19 -9 3 -9 12 -1 22 4 22 9 0 6 -1 10 -2 9 -2 0
-12 -4 -23 -9z"/>
<path d="M1315 2160 c3 -5 11 -10 16 -10 6 0 7 5 4 10 -3 6 -11 10 -16 10 -6
0 -7 -4 -4 -10z"/>
<path d="M1121 2134 c0 -11 3 -14 6 -6 3 7 2 16 -1 19 -3 4 -6 -2 -5 -13z"/>
<path d="M1320 2080 c0 -5 5 -10 11 -10 5 0 7 5 4 10 -3 6 -8 10 -11 10 -2 0
-4 -4 -4 -10z"/>
<path d="M864 2035 c-10 -8 -14 -14 -9 -15 15 0 40 18 34 24 -3 3 -14 -1 -25
-9z"/>
<path d="M875 2000 c-3 -5 1 -10 9 -10 9 0 16 5 16 10 0 6 -4 10 -9 10 -6 0
-13 -4 -16 -10z"/>
<path d="M1308 2003 c7 -3 16 -2 19 1 4 3 -2 6 -13 5 -11 0 -14 -3 -6 -6z"/>
<path d="M958 1993 c7 -3 16 -2 19 1 4 3 -2 6 -13 5 -11 0 -14 -3 -6 -6z"/>
<path d="M1188 1983 c7 -3 16 -2 19 1 4 3 -2 6 -13 5 -11 0 -14 -3 -6 -6z"/>
<path d="M1298 1973 c6 -2 18 -2 25 0 6 3 1 5 -13 5 -14 0 -19 -2 -12 -5z"/>
<path d="M875 1960 c-3 -5 -1 -10 4 -10 6 0 11 5 11 10 0 6 -2 10 -4 10 -3 0
-8 -4 -11 -10z"/>
<path d="M950 1950 c0 -5 5 -10 10 -10 6 0 10 5 10 10 0 6 -4 10 -10 10 -5 0
-10 -4 -10 -10z"/>
<path d="M1188 1953 c6 -2 18 -2 25 0 6 3 1 5 -13 5 -14 0 -19 -2 -12 -5z"/>
<path d="M1288 1943 c7 -3 16 -2 19 1 4 3 -2 6 -13 5 -11 0 -14 -3 -6 -6z"/>
<path d="M875 1920 c-3 -5 1 -10 9 -10 9 0 16 5 16 10 0 6 -4 10 -9 10 -6 0
-13 -4 -16 -10z"/>
<path d="M1190 1919 c0 -5 5 -7 10 -4 6 3 10 8 10 11 0 2 -4 4 -10 4 -5 0 -10
-5 -10 -11z"/>
<path d="M958 1913 c7 -3 16 -2 19 1 4 3 -2 6 -13 5 -11 0 -14 -3 -6 -6z"/>
<path d="M1288 1913 c7 -3 16 -2 19 1 4 3 -2 6 -13 5 -11 0 -14 -3 -6 -6z"/>
<path d="M1268 1893 c7 -3 16 -2 19 1 4 3 -2 6 -13 5 -11 0 -14 -3 -6 -6z"/>
<path d="M880 1880 c0 -5 5 -10 10 -10 6 0 10 5 10 10 0 6 -4 10 -10 10 -5 0
-10 -4 -10 -10z"/>
<path d="M1240 1840 c0 -5 5 -10 11 -10 5 0 7 5 4 10 -3 6 -8 10 -11 10 -2 0
-4 -4 -4 -10z"/>
<path d="M878 1833 c7 -3 16 -2 19 1 4 3 -2 6 -13 5 -11 0 -14 -3 -6 -6z"/>
<path d="M735 1810 c28 -12 37 -12 30 0 -3 6 -16 10 -28 9 -21 0 -21 -1 -2 -9z"/>
<path d="M860 1800 c0 -6 7 -10 15 -10 8 0 15 2 15 4 0 2 -7 6 -15 10 -8 3
-15 1 -15 -4z"/>
<path d="M691 1796 c12 -10 60 -16 54 -6 -3 5 -18 10 -32 10 -15 0 -24 -2 -22
-4z"/>
<path d="M948 1793 c7 -3 16 -2 19 1 4 3 -2 6 -13 5 -11 0 -14 -3 -6 -6z"/>
<path d="M695 1760 c28 -12 37 -12 30 0 -3 6 -16 10 -28 9 -21 0 -21 -1 -2 -9z"/>
<path d="M1210 1761 c0 -5 5 -13 10 -16 6 -3 10 -2 10 4 0 5 -4 13 -10 16 -5
3 -10 2 -10 -4z"/>
<path d="M835 1750 c-3 -5 -4 -10 -1 -10 2 0 12 -3 22 -7 11 -4 15 -3 11 4 -4
6 -1 14 5 16 7 3 3 6 -9 6 -12 1 -25 -3 -28 -9z"/>
<path d="M938 1753 c7 -3 16 -2 19 1 4 3 -2 6 -13 5 -11 0 -14 -3 -6 -6z"/>
<path d="M925 1720 c3 -5 11 -10 16 -10 6 0 7 5 4 10 -3 6 -11 10 -16 10 -6 0
-7 -4 -4 -10z"/>
<path d="M897 1704 c-7 -7 14 -44 26 -44 4 0 5 5 2 10 -3 6 -1 10 6 10 8 0 8
4 -1 15 -13 16 -23 19 -33 9z"/>
<path d="M1088 1703 c7 -3 16 -2 19 1 4 3 -2 6 -13 5 -11 0 -14 -3 -6 -6z"/>
<path d="M1177 1693 c-12 -11 -8 -23 8 -23 8 0 15 7 15 15 0 16 -12 20 -23 8z"/>
<path d="M1190 1650 c-9 -6 -10 -10 -3 -10 6 0 15 5 18 10 8 12 4 12 -15 0z"/>
<path d="M884 1610 c44 -22 99 -42 122 -46 26 -4 45 -13 49 -23 6 -14 8 -14
15 4 7 16 9 17 9 3 1 -9 6 -20 11 -23 7 -4 9 2 4 19 -4 16 -2 26 5 26 6 0 11
-6 11 -14 0 -8 5 -18 12 -22 8 -5 9 -2 5 9 -4 11 2 25 16 38 l22 22 -30 -9
c-63 -19 -156 -8 -225 25 -36 17 -74 31 -85 31 -11 0 16 -18 59 -40z"/>
<path d="M1400 1640 c0 -5 5 -10 11 -10 5 0 7 5 4 10 -3 6 -8 10 -11 10 -2 0
-4 -4 -4 -10z"/>
<path d="M762 1633 c-10 -4 -8 -11 9 -29 29 -31 49 -31 49 0 0 30 -25 42 -58
29z"/>
<path d="M955 1630 c3 -5 15 -10 26 -10 10 0 19 5 19 10 0 6 -12 10 -26 10
-14 0 -23 -4 -19 -10z"/>
<path d="M638 1623 c7 -3 16 -2 19 1 4 3 -2 6 -13 5 -11 0 -14 -3 -6 -6z"/>
<path d="M1250 1612 c6 -13 14 -21 18 -18 3 4 -2 14 -12 24 -18 16 -18 16 -6
-6z"/>
<path d="M1387 1619 c7 -7 15 -10 18 -7 3 3 -2 9 -12 12 -14 6 -15 5 -6 -5z"/>
<path d="M710 1610 c0 -5 5 -10 10 -10 6 0 10 5 10 10 0 6 -4 10 -10 10 -5 0
-10 -4 -10 -10z"/>
<path d="M640 1600 c0 -5 5 -10 10 -10 6 0 10 5 10 10 0 6 -4 10 -10 10 -5 0
-10 -4 -10 -10z"/>
<path d="M745 1600 c3 -5 8 -10 11 -10 2 0 4 5 4 10 0 6 -5 10 -11 10 -5 0 -7
-4 -4 -10z"/>
<path d="M1050 1600 c0 -5 5 -10 11 -10 5 0 7 5 4 10 -3 6 -8 10 -11 10 -2 0
-4 -4 -4 -10z"/>
<path d="M1220 1602 c0 -5 7 -15 15 -22 8 -7 15 -8 15 -2 0 5 -7 15 -15 22 -8
7 -15 8 -15 2z"/>
<path d="M1340 1598 c0 -5 9 -6 20 -3 36 11 21 -13 -45 -72 -67 -60 -76 -73
-50 -73 8 0 15 6 15 14 0 8 7 17 16 20 13 5 12 -1 -5 -26 -12 -18 -47 -82 -79
-143 -42 -82 -72 -124 -115 -165 -45 -44 -55 -58 -45 -68 7 -7 19 -12 28 -12
13 0 13 2 1 9 -21 13 4 42 33 37 11 -2 15 -1 8 1 -11 4 -10 9 4 24 9 10 23 19
30 19 7 0 10 8 7 20 -4 16 -2 19 13 14 14 -4 16 -3 5 4 -11 8 -10 12 5 20 11
6 18 13 17 16 -7 15 -2 26 9 20 7 -4 8 -3 4 5 -13 20 4 51 27 51 18 0 19 2 7
11 -11 8 -12 12 -2 16 6 2 10 9 6 14 -3 5 5 9 18 9 16 0 19 3 10 8 -19 12 -4
42 22 43 20 0 20 1 1 9 -18 8 -18 9 5 9 20 1 22 3 10 11 -12 8 -10 10 10 11
17 1 19 3 8 6 -18 5 -25 23 -9 23 5 0 11 9 14 20 3 12 14 20 25 20 12 0 24 4
27 10 4 6 -1 7 -11 3 -16 -6 -15 -4 1 25 11 17 16 34 12 38 -11 11 -57 13 -57
2z"/>
<path d="M860 1576 c0 -34 129 -110 232 -138 54 -14 60 -11 51 21 -4 17 -8 19
-14 9 -7 -10 -9 -10 -9 2 0 13 -1 13 -10 0 -7 -12 -10 -12 -10 -1 0 7 -6 11
-15 7 -8 -3 -15 -1 -15 5 0 6 -4 7 -10 4 -5 -3 -10 -1 -10 5 0 7 -8 9 -20 5
-16 -5 -20 -2 -21 17 0 22 -1 22 -9 3 -8 -19 -8 -19 -18 5 -6 14 -11 19 -11
13 -2 -23 -21 -14 -21 10 0 18 -2 19 -10 7 -9 -13 -12 -13 -23 0 -7 8 -22 21
-35 28 -18 10 -22 10 -22 -2z"/>
<path d="M1307 1575 c-4 -10 -1 -12 10 -8 11 4 14 2 9 -5 -5 -8 -2 -10 8 -6
21 8 20 11 -3 23 -14 8 -20 7 -24 -4z"/>
<path d="M1190 1562 c6 -13 14 -21 18 -18 3 4 -2 14 -12 24 -18 16 -18 16 -6
-6z"/>
<path d="M1483 1539 c-51 -38 -70 -74 -96 -184 -3 -11 -8 -28 -12 -37 -6 -15
-2 -18 21 -17 19 1 22 3 11 6 -11 3 -16 10 -13 20 3 8 6 17 6 19 0 2 8 4 18 5
10 0 12 3 5 6 -23 9 -15 43 10 44 16 1 18 2 5 6 -26 6 -22 23 5 24 16 1 18 2
5 6 -26 6 -22 23 5 24 17 1 18 2 4 6 -19 5 -14 24 6 19 7 -1 9 -1 5 1 -11 6
-10 23 1 23 12 0 76 58 70 64 -2 2 -27 -14 -56 -35z"/>
<path d="M1150 1561 c0 -5 5 -13 10 -16 6 -3 10 -2 10 4 0 5 -4 13 -10 16 -5
3 -10 2 -10 -4z"/>
<path d="M1511 1531 c-12 -8 -11 -13 10 -30 38 -32 45 -29 29 13 -10 28 -17
31 -39 17z"/>
<path d="M1210 1430 c0 -5 5 -10 10 -10 6 0 10 5 10 10 0 6 -4 10 -10 10 -5 0
-10 -4 -10 -10z"/>
<path d="M760 1400 c0 -11 5 -20 11 -20 22 0 58 -48 53 -72 -5 -22 -5 -22 10
2 l16 25 -6 -30 c-5 -29 -5 -29 12 -10 16 19 16 19 10 -12 -6 -38 1 -43 14
-10 8 21 9 20 10 -8 2 -28 2 -29 9 -6 10 38 31 38 31 0 0 -36 8 -36 13 2 3 20
10 25 40 27 36 3 37 3 39 -35 l1 -38 7 45 c6 45 14 41 24 -10 2 -14 4 -8 2 13
-2 40 17 47 22 9 2 -12 8 -22 14 -22 6 0 8 10 4 25 -4 14 -2 25 4 25 5 0 11
-10 11 -22 1 -15 4 -11 9 12 5 24 8 28 9 12 0 -14 5 -20 12 -16 6 3 9 15 6 25
-3 11 -1 19 4 19 5 0 9 -4 9 -10 0 -5 5 -10 11 -10 6 0 8 9 4 20 -4 14 -2 18
7 15 8 -3 14 4 14 20 1 14 0 25 -2 25 -2 0 -18 -13 -36 -28 -45 -39 -88 -52
-170 -52 -76 0 -125 19 -168 65 -14 15 -33 31 -42 36 -15 8 -18 6 -18 -11z"/>
<path d="M1507 1413 c-4 -8 -31 -167 -40 -243 -3 -19 2 -87 10 -150 14 -107
13 -130 -3 -187 -3 -13 -2 -23 2 -23 10 0 34 47 34 67 0 7 6 13 13 13 8 0 7 4
-3 10 -12 8 -12 10 5 11 l20 0 -20 8 -20 8 20 5 c16 5 17 6 3 7 -10 0 -18 5
-18 11 0 5 7 7 15 4 8 -4 15 -1 15 5 0 6 -9 11 -20 11 -11 0 -20 5 -20 10 0 6
9 10 20 10 27 0 25 18 -2 31 l-23 10 23 -5 c12 -2 22 -1 22 4 0 4 -10 11 -22
14 -22 7 -22 7 -3 15 19 8 18 9 -5 13 -23 5 -23 5 -2 7 12 0 22 6 22 11 0 5
-3 9 -7 9 -18 -3 -33 2 -33 10 0 5 10 7 23 5 16 -3 14 -1 -8 10 -24 12 -26 15
-10 16 11 1 14 4 8 7 -7 2 -13 9 -13 14 0 4 7 6 15 3 8 -4 15 -1 15 5 0 6 -7
11 -15 11 -23 0 -18 18 8 23 l22 4 -22 2 c-13 0 -23 6 -23 11 0 6 10 11 23 11
16 1 18 2 5 6 -10 2 -18 8 -18 13 0 5 8 11 18 13 16 4 16 5 0 6 -10 0 -18 8
-18 16 0 8 8 15 18 15 14 0 15 2 2 10 -13 8 -12 11 5 24 19 15 19 15 1 16 -18
0 -18 1 -1 20 10 11 13 20 7 20 -6 0 -9 7 -6 15 6 15 -11 22 -19 8z"/>
<path d="M704 1389 c4 -13 10 -32 13 -41 3 -10 -2 -18 -14 -21 -12 -3 -11 -4
4 -2 12 1 24 -4 27 -11 3 -9 -2 -14 -14 -14 -10 0 -22 -5 -25 -11 -4 -6 3 -9
21 -7 36 4 42 -18 7 -27 -15 -4 -23 -9 -16 -12 7 -2 21 0 31 6 16 8 21 7 26
-5 4 -11 -1 -18 -14 -21 -28 -7 -25 -21 3 -16 17 4 29 -4 50 -34 25 -34 25
-38 9 -45 -13 -6 -11 -7 8 -5 16 1 24 -3 23 -10 -4 -16 7 -16 27 -2 10 7 11
12 3 15 -27 12 -94 115 -123 192 -18 45 -37 85 -42 88 -8 5 -9 -1 -4 -17z"/>
<path d="M678 1353 c7 -3 16 -2 19 1 4 3 -2 6 -13 5 -11 0 -14 -3 -6 -6z"/>
<path d="M961 1248 c0 -28 2 -30 9 -13 12 28 12 45 0 45 -5 0 -10 -15 -9 -32z"/>
<path d="M990 1251 c0 -17 2 -31 4 -31 8 0 13 51 5 56 -5 3 -9 -9 -9 -25z"/>
<path d="M1388 1273 c7 -3 16 -2 19 1 4 3 -2 6 -13 5 -11 0 -14 -3 -6 -6z"/>
<path d="M1375 1230 c3 -5 8 -10 11 -10 2 0 4 5 4 10 0 6 -5 10 -11 10 -5 0
-7 -4 -4 -10z"/>
<path d="M1245 1200 c3 -5 14 -10 23 -10 15 0 15 2 2 10 -20 13 -33 13 -25 0z"/>
<path d="M748 1183 c6 -2 18 -2 25 0 6 3 1 5 -13 5 -14 0 -19 -2 -12 -5z"/>
<path d="M778 1153 c7 -3 16 -2 19 1 4 3 -2 6 -13 5 -11 0 -14 -3 -6 -6z"/>
<path d="M1138 1133 c7 -3 16 -2 19 1 4 3 -2 6 -13 5 -11 0 -14 -3 -6 -6z"/>
<path d="M1212 1111 c-11 -6 -10 -10 4 -15 9 -3 19 -4 22 -1 3 3 -1 5 -9 6 -8
0 -6 4 6 9 13 6 15 9 5 9 -8 0 -21 -3 -28 -8z"/>
<path d="M705 1100 c-3 -5 -1 -10 4 -10 6 0 11 5 11 10 0 6 -2 10 -4 10 -3 0
-8 -4 -11 -10z"/>
<path d="M1090 1100 c0 -5 5 -10 11 -10 5 0 7 5 4 10 -3 6 -8 10 -11 10 -2 0
-4 -4 -4 -10z"/>
<path d="M720 1070 c0 -5 4 -10 9 -10 6 0 13 5 16 10 3 6 -1 10 -9 10 -9 0
-16 -4 -16 -10z"/>
<path d="M1020 1075 c0 -2 10 -10 23 -16 20 -11 21 -11 8 4 -13 16 -31 23 -31
12z"/>
<path d="M1200 1070 c13 -8 12 -10 -4 -10 -11 0 -17 -3 -13 -6 3 -3 15 -3 26
1 24 7 19 25 -7 25 -15 0 -15 -2 -2 -10z"/>
<path d="M1000 1055 c7 -8 17 -15 22 -15 6 0 5 7 -2 15 -7 8 -17 15 -22 15 -6
0 -5 -7 2 -15z"/>
<path d="M790 1020 c-8 -5 -12 -11 -9 -14 2 -3 11 -1 19 4 8 5 12 11 9 14 -2
3 -11 1 -19 -4z"/>
<path d="M1258 1013 c7 -3 16 -2 19 1 4 3 -2 6 -13 5 -11 0 -14 -3 -6 -6z"/>
<path d="M1245 990 c3 -5 11 -10 16 -10 6 0 7 5 4 10 -3 6 -11 10 -16 10 -6 0
-7 -4 -4 -10z"/>
<path d="M1298 953 c7 -3 16 -2 19 1 4 3 -2 6 -13 5 -11 0 -14 -3 -6 -6z"/>
<path d="M1288 923 c7 -3 16 -2 19 1 4 3 -2 6 -13 5 -11 0 -14 -3 -6 -6z"/>
<path d="M1258 893 c6 -2 18 -2 25 0 6 3 1 5 -13 5 -14 0 -19 -2 -12 -5z"/>
<path d="M738 873 c6 -2 18 -2 25 0 6 3 1 5 -13 5 -14 0 -19 -2 -12 -5z"/>
<path d="M738 843 c6 -2 18 -2 25 0 6 3 1 5 -13 5 -14 0 -19 -2 -12 -5z"/>
<path d="M1245 840 c11 -5 27 -9 35 -9 9 0 8 4 -5 9 -11 5 -27 9 -35 9 -9 0
-8 -4 5 -9z"/>
<path d="M1238 813 c6 -2 18 -2 25 0 6 3 1 5 -13 5 -14 0 -19 -2 -12 -5z"/>
<path d="M788 763 c7 -3 16 -2 19 1 4 3 -2 6 -13 5 -11 0 -14 -3 -6 -6z"/>
<path d="M1185 720 c3 -5 11 -10 16 -10 6 0 7 5 4 10 -3 6 -11 10 -16 10 -6 0
-7 -4 -4 -10z"/>
<path d="M790 2449 c0 -5 5 -7 10 -4 6 3 10 8 10 11 0 2 -4 4 -10 4 -5 0 -10
-5 -10 -11z"/>
<path d="M763 2388 c-13 -16 -14 -70 -2 -62 5 3 14 15 21 27 10 20 10 21 -5 8
-19 -15 -23 -1 -5 17 6 6 9 14 6 17 -3 3 -10 0 -15 -7z"/>
<path d="M785 2330 c-3 -5 -2 -10 4 -10 5 0 13 5 16 10 3 6 2 10 -4 10 -5 0
-13 -4 -16 -10z"/>
<path d="M570 670 c0 -5 5 -10 11 -10 5 0 7 5 4 10 -3 6 -8 10 -11 10 -2 0 -4
-4 -4 -10z"/>
<path d="M550 641 c0 -5 5 -13 10 -16 6 -3 10 -2 10 4 0 5 -4 13 -10 16 -5 3
-10 2 -10 -4z"/>
<path d="M530 621 c0 -6 4 -13 10 -16 6 -3 7 1 4 9 -7 18 -14 21 -14 7z"/>
<path d="M632 1235 c0 -22 4 -51 8 -65 7 -23 8 -22 8 10 0 19 -4 49 -8 65 -7
29 -8 28 -8 -10z"/>
<path d="M390 1453 c0 -13 5 -23 10 -23 13 0 13 11 0 30 -8 12 -10 11 -10 -7z"/>
<path d="M281 1428 c-12 -32 -6 -37 31 -29 24 5 34 13 36 29 3 19 -1 22 -28
22 -23 0 -33 -6 -39 -22z"/>
<path d="M403 1382 c17 -18 14 -54 -6 -79 -6 -9 -6 -13 1 -13 17 0 32 35 32
74 0 30 -4 36 -22 36 -20 0 -20 -1 -5 -18z"/>
<path d="M1816 1435 c-3 -9 4 -21 17 -30 28 -18 68 -10 60 12 -5 14 -7 14 -14
0 -6 -9 -17 -13 -29 -10 -28 7 -25 17 8 30 l27 11 -31 1 c-20 1 -34 -5 -38
-14z"/>
<path d="M1820 1367 c0 -15 29 -57 30 -42 0 6 -3 20 -6 33 -7 24 -24 31 -24 9z"/>
<path d="M450 1060 c0 -5 5 -10 11 -10 5 0 7 5 4 10 -3 6 -8 10 -11 10 -2 0
-4 -4 -4 -10z"/>
<path d="M450 1030 c0 -5 5 -10 11 -10 5 0 7 5 4 10 -3 6 -8 10 -11 10 -2 0
-4 -4 -4 -10z"/>
<path d="M1551 454 c0 -11 3 -14 6 -6 3 7 2 16 -1 19 -3 4 -6 -2 -5 -13z"/>
<path d="M1957 448 c8 -59 13 -61 13 -5 0 26 -4 47 -9 47 -5 0 -7 -19 -4 -42z"/>
<path d="M1992 465 c0 -16 2 -22 5 -12 2 9 2 23 0 30 -3 6 -5 -1 -5 -18z"/>
<path d="M1413 410 c0 -25 2 -35 4 -22 2 12 2 32 0 45 -2 12 -4 2 -4 -23z"/>
<path d="M1152 273 c-10 -4 -8 -9 7 -19 11 -8 30 -42 42 -75 12 -33 26 -62 31
-65 19 -12 29 12 18 41 -8 22 -7 33 9 58 l19 30 21 -34 c15 -24 19 -43 15 -67
-10 -52 5 -37 41 43 19 41 39 75 45 75 6 0 8 5 5 10 -8 13 -52 13 -59 1 -4 -5
-1 -11 5 -13 12 -4 1 -38 -12 -38 -5 0 -15 14 -24 30 -9 17 -22 30 -30 30 -7
0 -22 -13 -32 -30 -9 -16 -20 -30 -24 -30 -4 0 -12 14 -18 30 -10 29 -27 36
-59 23z"/>
<path d="M1579 215 c-2 -89 -2 -90 -19 -90 -10 0 -23 25 -38 73 l-24 72 -39 0
c-21 0 -38 -3 -37 -7 5 -14 -43 -133 -53 -133 -5 0 -9 -4 -9 -10 0 -5 14 -10
31 -10 24 0 29 3 21 13 -6 7 -6 21 -1 35 13 33 66 31 79 -4 6 -14 8 -30 5 -34
-6 -10 46 -17 93 -11 23 2 30 7 24 15 -13 16 -24 81 -15 90 4 4 19 -17 33 -46
20 -42 31 -54 51 -56 l26 -3 2 85 c2 82 1 86 -19 86 -16 0 -20 -5 -16 -17 7
-26 11 -101 5 -107 -3 -3 -14 20 -24 50 -17 51 -37 74 -64 74 -7 0 -12 -26
-12 -65z m-109 3 c0 -19 -25 -25 -35 -8 -3 5 -1 19 6 31 9 17 13 19 20 8 5 -8
9 -22 9 -31z"/>
<path d="M246 261 c-16 -6 -17 -9 -4 -13 11 -4 15 -23 17 -64 1 -32 5 -62 10
-67 14 -14 52 -16 72 -4 17 10 22 9 30 -5 8 -15 13 -16 29 -5 25 15 26 39 3
35 -16 -3 -18 5 -18 60 0 59 -1 62 -24 62 -19 0 -21 -3 -12 -14 14 -17 6 -97
-12 -108 -35 -22 -50 4 -46 80 4 50 -6 59 -45 43z"/>
<path d="M435 260 c-3 -5 -1 -10 5 -10 8 0 11 -24 8 -75 l-3 -75 52 0 c42 0
54 4 63 20 8 16 8 20 -4 20 -8 0 -18 -4 -21 -10 -14 -22 -43 -10 -47 20 -5 36
0 44 19 29 10 -9 13 -6 13 16 0 22 -3 25 -13 16 -18 -14 -26 -5 -20 20 6 22
43 26 43 4 0 -8 4 -15 9 -15 12 0 23 29 15 41 -7 12 -111 11 -119 -1z"/>
<path d="M589 259 c-11 -7 -11 -9 -1 -9 10 0 13 -17 10 -74 l-3 -73 50 1 c56
2 75 10 75 33 0 11 -3 13 -12 5 -7 -5 -26 -12 -43 -14 -25 -2 -31 1 -33 21 -2
13 1 28 7 34 8 8 11 8 11 -1 0 -20 17 -14 23 8 6 22 -8 37 -18 20 -11 -18 -26
-10 -23 13 3 24 48 39 48 16 0 -10 3 -10 12 -1 6 6 8 15 4 19 -11 11 -91 12
-107 2z"/>
<path d="M744 255 c16 -12 18 -24 14 -84 -4 -68 -3 -71 19 -71 23 0 32 15 12
22 -6 2 -9 21 -7 42 l3 39 35 -52 c24 -36 41 -51 54 -49 17 3 19 13 20 86 1
81 1 82 -23 82 -20 0 -22 -3 -13 -12 13 -13 17 -108 5 -108 -5 0 -25 27 -45
60 -31 50 -42 60 -65 60 -26 -1 -27 -2 -9 -15z"/>
<path d="M1745 190 l0 -80 48 0 c84 0 119 58 77 128 -18 30 -24 32 -72 32
l-53 0 0 -80z m91 24 c15 -35 0 -77 -28 -82 -13 -3 -17 8 -20 58 -3 55 -1 61
16 58 11 -2 25 -17 32 -34z"/>
<path d="M1931 254 c-39 -28 -14 -70 40 -66 26 2 29 -1 29 -28 0 -36 -20 -40
-49 -9 -19 20 -48 18 -35 -2 3 -5 0 -16 -6 -24 -11 -13 -4 -15 47 -15 63 0 83
11 83 46 0 28 -25 48 -58 49 -35 0 -39 38 -4 43 15 2 22 -2 22 -13 0 -23 24
-13 28 12 3 18 -2 21 -36 21 -22 0 -49 -6 -61 -14z"/>
<path d="M1031 213 c-7 -13 -3 -24 15 -46 28 -33 29 -45 9 -74 -20 -28 -3 -39
20 -13 13 14 16 28 11 54 -6 30 -4 35 9 30 18 -7 20 7 3 24 -9 9 -14 7 -24 -6
-12 -16 -13 -16 -19 1 -4 9 -2 24 5 32 10 12 10 15 -3 15 -9 0 -20 -8 -26 -17z"/>
<path d="M970 146 c0 -30 13 -40 41 -31 31 10 21 49 -13 53 -24 3 -28 0 -28
-22z m42 -1 c0 -5 -5 -11 -11 -13 -6 -2 -11 4 -11 13 0 9 5 15 11 13 6 -2 11
-8 11 -13z"/>
<path d="M2100 125 c0 -8 9 -15 20 -15 11 0 20 7 20 15 0 8 -9 15 -20 15 -11
0 -20 -7 -20 -15z"/>
</g>
</svg>
