<?xml version="1.0" standalone="no"?>
<!DOCTYPE svg PUBLIC "-//W3C//DTD SVG 20010904//EN"
 "http://www.w3.org/TR/2001/REC-SVG-20010904/DTD/svg10.dtd">
<svg version="1.0" xmlns="http://www.w3.org/2000/svg"
 width="220.000000pt" height="385.000000pt" viewBox="0 0 220.000000 385.000000"
 preserveAspectRatio="xMidYMid meet">
<metadata>
Created by potrace 1.16, written by Peter Selinger 2001-2019
</metadata>
<g transform="translate(0.000000,385.000000) scale(0.100000,-0.100000)"
fill="#000000" stroke="none">
<path d="M42 3827 c-7 -8 -12 -441 -16 -1237 -3 -674 -6 -1531 -8 -1905 l-3
-680 1074 3 c591 1 1076 4 1077 5 3 4 14 1223 20 2432 8 1436 9 1354 -3 1366
-12 12 -355 18 -1355 24 -599 3 -779 1 -786 -8z m1127 -314 c0 -191 -3 -303
-9 -303 -6 0 -10 7 -10 15 0 7 -6 18 -12 22 -7 4 -13 14 -14 21 -3 42 -5 44
-24 39 -11 -3 -20 -1 -20 4 0 5 -7 9 -15 9 -8 0 -15 -6 -15 -14 0 -7 -7 -19
-15 -26 -8 -7 -15 -21 -15 -31 0 -22 -5 -25 -57 -34 -37 -6 -43 -4 -43 10 0
12 -5 15 -16 11 -26 -10 -54 3 -54 26 0 35 -25 13 -34 -29 -7 -36 -5 -45 18
-76 18 -23 26 -46 26 -73 0 -21 4 -45 9 -52 5 -8 3 -29 -5 -50 -12 -34 -11
-38 7 -51 13 -9 19 -25 19 -52 0 -29 5 -39 20 -44 11 -3 25 -3 31 1 8 4 9 3 5
-4 -4 -7 -15 -12 -24 -12 -28 -1 -112 -59 -112 -78 0 -9 -9 -28 -20 -42 -11
-14 -20 -36 -20 -49 0 -26 -9 -58 -45 -161 -13 -36 -26 -77 -29 -92 -4 -15
-16 -36 -27 -47 -14 -12 -19 -26 -15 -38 4 -14 -3 -30 -24 -51 -16 -18 -30
-41 -30 -52 0 -23 -35 -46 -45 -30 -9 14 -42 3 -81 -26 -38 -30 -121 -34 -131
-8 -3 9 -1 98 6 198 6 99 14 224 17 276 6 115 18 138 67 132 38 -4 55 11 37
33 -12 14 2 31 18 21 18 -11 52 25 52 55 0 36 -11 37 -47 3 -27 -25 -28 -25
-37 -5 -11 26 -18 26 -41 1 -11 -12 -16 -29 -13 -44 4 -17 -1 -31 -14 -43 -19
-17 -20 -16 -12 102 4 66 8 127 10 135 1 8 3 77 3 153 1 116 4 140 19 155 42
45 57 114 28 125 -8 3 -16 16 -18 28 -5 38 -24 32 -38 -12 -11 -32 -11 -45 -2
-60 17 -27 15 -31 -9 -19 -11 7 -26 9 -33 7 -9 -4 -13 5 -12 30 1 39 -18 56
-27 23 -3 -13 -10 -18 -21 -14 -21 8 -21 -14 1 -38 12 -14 16 -35 14 -95 -3
-107 -16 -153 -44 -154 -17 -1 -15 -3 8 -8 17 -4 29 -11 28 -17 -6 -37 -33
-764 -34 -916 -1 -61 -5 -83 -20 -102 -16 -21 -19 -35 -13 -88 13 -132 11
-175 -21 -523 -8 -93 -20 -242 -25 -329 -6 -88 -11 -160 -13 -161 -1 -1 -30
-5 -65 -9 l-63 -7 6 423 c7 546 14 1399 16 1940 1 235 4 438 6 452 l5 25 553
-2 554 -2 0 -302z m620 297 c35 0 41 -3 32 -13 -6 -8 -8 -17 -4 -20 3 -4 12 1
19 11 11 14 12 -53 6 -383 -4 -220 -6 -455 -4 -521 3 -105 1 -122 -13 -128 -9
-3 -13 -11 -9 -17 4 -8 9 -7 15 2 6 9 9 1 9 -23 0 -28 -5 -40 -21 -49 -26 -13
-45 7 -27 29 8 9 8 16 0 24 -7 7 -12 23 -12 36 0 17 -4 23 -15 18 -9 -3 -15 0
-15 9 0 23 -20 28 -40 10 -14 -13 -19 -13 -22 -3 -4 10 -8 10 -20 1 -11 -10
-17 -10 -26 -1 -9 9 -16 8 -30 -5 -11 -12 -13 -20 -6 -25 6 -4 14 -26 18 -49
5 -36 3 -43 -10 -43 -12 0 -15 6 -11 21 4 15 1 19 -11 17 -31 -6 -26 -37 10
-54 21 -10 24 -13 8 -9 -14 4 -33 7 -42 8 -10 1 -18 9 -18 19 0 20 -69 117
-84 117 -10 1 -30 18 -68 58 -17 19 -28 22 -59 17 -28 -5 -42 -2 -55 10 -9 10
-23 15 -31 11 -12 -4 -14 1 -11 20 4 18 1 25 -10 25 -13 0 -13 3 -4 12 14 14
16 42 3 34 -5 -3 -12 1 -15 10 -11 28 -6 64 8 70 18 7 27 42 12 48 -6 2 6 19
28 38 25 22 37 39 32 47 -10 16 1 61 15 61 7 0 9 -11 6 -29 -8 -39 15 -60 38
-37 20 20 54 21 61 2 5 -12 22 -14 44 -6 3 1 8 2 13 1 4 0 7 5 7 13 0 8 -16
16 -40 20 -41 6 -52 19 -25 30 23 9 18 35 -10 48 -18 8 -25 18 -23 32 4 31 43
32 86 3 20 -14 50 -28 65 -31 17 -4 31 -16 37 -31 12 -31 79 -97 93 -92 17 5
20 27 3 27 -29 0 -28 22 3 50 18 17 31 23 31 16 0 -20 27 -40 35 -26 14 23 -5
58 -37 71 l-33 13 44 5 c25 3 46 12 49 19 2 6 -1 12 -6 12 -6 0 -12 -6 -14
-12 -4 -10 -10 -10 -29 -1 -20 10 -21 12 -5 12 14 1 17 6 11 24 -4 12 -9 34
-12 49 -4 20 -12 27 -36 31 -18 2 -37 0 -44 -5 -7 -6 -13 -4 -16 4 -3 11 -8
11 -26 0 -19 -11 -21 -10 -21 12 0 16 -7 27 -21 31 -12 4 -18 12 -15 21 3 7 1
16 -5 20 -7 4 -6 10 0 18 6 7 8 16 4 19 -3 4 -12 -2 -20 -13 -8 -11 -21 -20
-29 -20 -8 0 -20 -12 -26 -26 -11 -24 -10 -29 17 -50 17 -13 37 -24 45 -24 12
-1 11 -4 -4 -15 -16 -12 -23 -12 -55 5 -20 10 -59 20 -85 23 -40 3 -53 0 -77
-20 -35 -30 -36 -48 -5 -76 23 -20 23 -22 8 -55 -13 -27 -14 -35 -3 -41 11 -7
11 -10 0 -17 -8 -4 -14 -3 -17 5 -3 9 -10 8 -29 -4 l-24 -16 5 111 c2 62 9
117 15 123 14 14 15 40 1 32 -6 -4 -10 11 -10 39 0 25 5 48 11 52 8 4 7 9 -2
15 -12 7 -12 12 0 31 10 16 10 23 2 26 -14 5 -15 52 -1 52 6 0 10 7 10 15 0 8
-4 15 -10 15 -5 0 -10 7 -10 15 0 8 4 15 9 15 5 0 11 9 14 20 5 19 12 19 249
15 133 -3 263 -5 287 -5z m-580 -300 c1 -170 -7 -300 -18 -300 -4 0 -6 44 -5
98 2 53 4 189 5 302 3 243 16 169 18 -100z m671 -145 c-5 -402 -6 -420 -24
-423 -13 -3 -17 0 -13 10 3 8 8 158 11 334 7 365 15 534 25 513 3 -8 4 -203 1
-434z m268 438 l25 -6 -7 -931 c-3 -512 -7 -1101 -7 -1308 l-1 -378 -23 6
c-13 3 -37 -1 -53 -10 -41 -21 -79 -21 -86 2 -2 9 -8 50 -11 91 -4 41 -12 88
-17 105 -8 27 -10 255 -3 426 1 30 3 451 6 935 2 484 5 923 7 977 l3 96 71 1
c39 0 83 -2 96 -6z m-193 -64 c-8 -12 -42 -12 -50 0 -3 5 5 11 17 13 28 5 40
0 33 -13z m0 -39 c-3 -5 -15 -10 -26 -10 -10 0 -19 5 -19 10 0 6 12 10 26 10
14 0 23 -4 19 -10z m2 -44 c-2 -6 -15 -10 -27 -8 -28 3 -34 7 -26 20 8 13 58
2 53 -12z m-14 -43 c-7 -2 -19 -2 -25 0 -7 3 -2 5 12 5 14 0 19 -2 13 -5z m7
-33 c0 -5 -11 -10 -25 -10 -14 0 -25 5 -25 10 0 6 11 10 25 10 14 0 25 -4 25
-10z m-2 -37 c-10 -2 -26 -2 -35 0 -10 3 -2 5 17 5 19 0 27 -2 18 -5z m3 -38
c0 -5 -12 -11 -26 -13 -18 -2 -25 1 -25 13 0 12 7 15 25 13 14 -2 26 -7 26
-13z m-1550 -98 c-13 -13 -15 21 -3 50 6 15 8 13 10 -11 2 -16 -1 -33 -7 -39z
m1549 53 c0 -5 -11 -10 -25 -10 -14 0 -25 5 -25 10 0 6 11 10 25 10 14 0 25
-4 25 -10z m-552 -27 c20 -9 48 -20 62 -25 16 -4 3 -6 -35 -4 -42 3 -68 -1
-87 -12 -26 -15 -29 -15 -44 0 -19 18 -12 35 20 48 31 13 43 12 84 -7z m172
-11 c0 -4 -7 -15 -14 -25 -10 -13 -19 -15 -36 -9 -22 8 -22 8 4 20 14 6 26 16
26 22 0 6 5 8 10 5 6 -3 10 -9 10 -13z m373 1 c-7 -2 -21 -2 -30 0 -10 3 -4 5
12 5 17 0 24 -2 18 -5z m-1503 -27 c0 -8 -4 -17 -9 -21 -12 -7 -24 12 -16 25
9 15 25 12 25 -4z m1510 -6 c0 -5 -11 -10 -25 -10 -14 0 -25 5 -25 10 0 6 11
10 25 10 14 0 25 -4 25 -10z m-1577 -40 c5 -19 -3 -24 -39 -23 -15 0 -5 -89
10 -99 7 -5 3 -8 -8 -8 -15 0 -17 -3 -8 -12 8 -8 15 -8 27 2 13 11 15 9 15
-12 0 -13 -6 -30 -12 -36 -10 -10 -10 -15 1 -21 18 -11 10 -176 -10 -209 -12
-19 -12 -24 -1 -31 18 -11 6 -101 -14 -101 -9 0 -14 -12 -14 -36 0 -28 3 -35
15 -30 8 3 15 1 15 -4 0 -6 -6 -10 -14 -10 -25 0 -27 -18 -5 -39 19 -17 20
-23 9 -36 -12 -14 -11 -18 1 -26 11 -7 11 -9 0 -9 -7 0 -11 -6 -8 -14 3 -8 1
-17 -6 -20 -9 -5 -8 -8 2 -12 11 -5 11 -8 0 -15 -12 -8 -11 -11 1 -19 13 -8
12 -10 -2 -10 -10 0 -18 -3 -18 -6 0 -4 8 -13 18 -20 16 -13 16 -13 0 -14 -10
0 -18 -4 -18 -10 0 -5 8 -11 18 -11 16 -1 16 -2 0 -6 -22 -5 -24 -23 -3 -23 8
0 15 -4 15 -10 0 -5 -7 -10 -15 -10 -8 0 -15 -4 -15 -10 0 -5 5 -10 10 -10 6
0 10 -4 10 -10 0 -5 -8 -10 -17 -10 -16 -1 -16 -2 1 -11 15 -9 16 -13 5 -21
-11 -8 -12 -11 -1 -15 10 -4 9 -8 -5 -19 -17 -13 -17 -13 0 -14 21 0 23 -20 2
-20 -21 0 -19 -20 3 -21 16 -1 16 -2 0 -6 -21 -5 -24 -23 -5 -24 8 0 8 -2 -2
-6 -11 -5 -11 -7 0 -14 11 -7 10 -11 -6 -23 -20 -15 -20 -15 0 -16 15 0 17 -2
6 -9 -9 -6 -10 -11 -2 -15 17 -11 13 -26 -7 -26 -22 0 -33 -9 -26 -22 3 -5 11
-5 17 -1 28 20 90 34 125 28 21 -3 51 -1 67 5 22 8 30 8 37 -2 12 -20 9 -28
-11 -28 -11 0 -22 -9 -26 -20 -9 -29 -56 -61 -85 -58 -14 1 -30 -1 -37 -5 -6
-4 -14 -3 -17 2 -3 5 5 12 19 15 14 4 25 11 25 16 0 6 12 10 26 10 23 0 24 1
10 16 -34 33 -146 24 -132 -11 3 -8 0 -15 -6 -15 -7 0 -6 -5 2 -15 10 -12 10
-15 0 -15 -9 0 -7 -7 5 -20 16 -18 16 -20 2 -20 -10 0 -17 -4 -17 -10 0 -5 7
-10 15 -10 8 0 15 -9 15 -20 0 -13 -5 -18 -15 -14 -8 4 -15 1 -15 -5 0 -6 5
-11 10 -11 18 0 11 -20 -7 -20 -17 -1 -17 -1 -1 -14 10 -7 18 -25 18 -39 0
-20 -4 -24 -20 -20 -11 3 -20 1 -20 -5 0 -5 9 -12 20 -15 25 -6 17 -32 -13
-42 l-22 -8 23 -4 c25 -5 32 -43 7 -43 -8 0 -15 -4 -15 -10 0 -5 7 -10 15 -10
23 0 21 -70 -2 -70 -17 -1 -17 -1 -1 -14 10 -7 15 -16 11 -20 -4 -3 -5 -31 -4
-61 2 -52 1 -56 -26 -67 -27 -11 -27 -12 -5 -15 17 -3 22 -11 22 -33 0 -19 -5
-28 -13 -26 -6 1 -9 1 -4 -1 4 -3 7 -27 7 -54 0 -42 -3 -51 -22 -59 l-23 -9
23 -7 c15 -4 21 -12 18 -23 -3 -9 -6 -47 -7 -86 -1 -58 -5 -73 -23 -87 -18
-15 -19 -18 -3 -18 9 0 17 -4 17 -10 0 -5 -7 -7 -15 -4 -8 4 -15 1 -15 -5 0
-6 7 -11 15 -11 10 0 15 -10 15 -30 0 -33 -26 -43 -32 -12 -2 9 -8 -9 -12 -41
-4 -32 -5 -61 -2 -65 3 -3 6 7 6 21 0 20 5 27 20 27 16 0 20 -7 20 -34 0 -44
-9 -66 -26 -66 -8 0 -14 -4 -14 -10 0 -5 7 -10 15 -10 9 0 15 -9 14 -22 -1
-17 -2 -19 -6 -5 -2 9 -11 17 -19 17 -17 0 -19 -20 -1 -21 10 0 10 -2 0 -6
-21 -8 -15 -26 7 -20 26 7 26 -10 0 -18 -26 -8 -26 -25 0 -18 18 5 20 0 20
-43 0 -27 -5 -56 -10 -64 -8 -13 -10 -12 -10 3 0 10 -5 15 -10 12 -6 -4 -8
-11 -4 -17 4 -6 -3 -8 -17 -6 -22 3 -24 7 -23 63 1 101 16 359 22 369 3 5 6
45 8 90 6 194 16 392 21 398 4 8 29 287 38 433 3 44 8 100 11 125 3 24 6 92 5
150 -1 149 15 378 28 394 6 7 8 16 4 20 -4 4 -1 11 7 16 13 8 12 10 -2 10 -10
0 -18 5 -18 10 0 6 7 10 15 10 8 0 15 5 15 10 0 6 -7 10 -15 10 -17 0 -20 16
-5 25 8 5 7 12 -1 22 -10 12 -10 16 2 24 10 7 11 11 2 17 -8 5 -9 13 -3 22 6
8 10 23 10 33 0 11 10 27 23 37 19 16 20 22 10 39 -15 24 -17 60 -4 80 12 19
2 43 -15 37 -10 -4 -14 5 -14 34 0 22 4 40 9 40 5 0 8 -7 7 -16 -2 -25 21 -28
29 -5 8 26 -1 41 -26 41 -26 0 -24 16 4 24 l22 7 -21 9 c-20 8 -21 14 -17 97
3 61 9 93 20 105 9 10 12 18 7 18 -5 0 -2 4 6 9 18 12 26 7 33 -19z m1570 3
c-7 -2 -21 -2 -30 0 -10 3 -4 5 12 5 17 0 24 -2 18 -5z m7 -33 c0 -5 -12 -10
-27 -9 -25 0 -26 1 -8 9 27 12 35 12 35 0z m-586 -51 c11 -2 21 -11 24 -19 4
-12 2 -13 -9 -2 -7 6 -20 12 -29 12 -8 0 -21 10 -29 23 -13 21 -13 21 5 6 10
-10 28 -19 38 -20z m-285 -9 c4 0 13 6 20 13 14 12 14 9 -6 -39 -5 -13 -2 -15
15 -9 29 9 30 -20 2 -35 -11 -6 -20 -17 -20 -26 0 -20 27 -29 44 -15 10 8 16
9 21 1 8 -13 55 -13 55 -1 0 6 -6 13 -12 17 -9 6 -5 10 12 14 17 4 27 15 31
35 4 17 7 24 8 16 0 -7 7 -11 14 -8 27 10 12 -50 -20 -81 -18 -16 -33 -39 -33
-51 0 -24 3 -24 -75 -11 -33 6 -104 10 -157 11 -93 0 -98 1 -98 21 0 12 -11
36 -25 54 -15 19 -24 44 -24 61 2 25 2 25 6 5 3 -15 10 -22 19 -18 7 3 13 2
13 -2 -3 -19 2 -23 16 -12 9 7 19 10 23 6 4 -4 -1 -13 -11 -21 -25 -18 -11
-45 23 -45 16 0 30 6 33 13 4 10 7 10 18 0 16 -16 79 -17 79 -2 0 6 -5 20 -12
32 -15 28 -11 64 10 86 13 12 18 13 20 4 2 -7 7 -13 11 -13z m871 26 c0 -9
-40 -13 -46 -5 -3 5 6 9 20 9 14 0 26 -2 26 -4z m0 -36 c0 -12 -8 -12 -35 0
-18 8 -17 9 8 9 15 1 27 -3 27 -9z m0 -35 c0 -16 -35 -21 -44 -6 -8 12 4 21
26 21 10 0 18 -7 18 -15z m-950 -19 c0 -2 -7 -7 -16 -10 -8 -3 -12 -2 -9 4 6
10 25 14 25 6z m164 -14 c3 -5 -1 -9 -9 -9 -8 0 -15 4 -15 9 0 4 4 8 9 8 6 0
12 -4 15 -8z m786 -6 c0 -9 -8 -12 -26 -8 -19 3 -22 7 -12 13 20 13 38 11 38
-5z m-940 -6 c0 -5 -5 -10 -11 -10 -5 0 -7 5 -4 10 3 6 8 10 11 10 2 0 4 -4 4
-10z m933 -27 c-7 -2 -21 -2 -30 0 -10 3 -4 5 12 5 17 0 24 -2 18 -5z m7 -33
c0 -5 -11 -10 -25 -10 -14 0 -25 5 -25 10 0 6 11 10 25 10 14 0 25 -4 25 -10z
m-936 -41 c16 13 56 6 56 -10 0 -5 5 -9 11 -9 5 0 7 5 4 10 -3 6 1 10 9 10 9
0 16 -4 16 -9 0 -6 15 -7 33 -4 29 4 33 2 44 -26 7 -21 8 -33 1 -37 -7 -4 -6
-9 1 -13 12 -8 22 -71 14 -84 -3 -5 -14 -1 -24 9 -11 10 -19 12 -19 6 0 -7
-13 -12 -30 -12 -22 0 -28 -4 -24 -15 8 -21 -16 -19 -32 3 -13 16 -13 16 -14
0 0 -25 -17 -22 -45 7 -21 21 -25 33 -25 89 0 35 -3 73 -6 83 -5 14 -4 15 4 4
9 -12 13 -12 26 -2z m936 1 c0 -5 -11 -10 -25 -10 -14 0 -25 5 -25 10 0 6 11
10 25 10 14 0 25 -4 25 -10z m-990 -10 c11 -6 15 -28 16 -77 0 -37 6 -78 12
-89 15 -28 65 -48 98 -40 27 7 27 7 11 -18 -10 -14 -17 -32 -17 -41 0 -8 -12
-20 -27 -26 -23 -9 -30 -7 -45 13 -9 13 -18 32 -20 43 -2 14 -11 20 -33 22
-16 0 -35 2 -40 2 -14 1 -11 54 3 59 14 4 -17 42 -35 42 -16 0 -15 5 2 50 10
28 14 32 20 18 6 -15 9 -15 21 -3 19 19 18 25 -8 26 -22 2 -22 2 1 6 19 4 21
7 10 14 -12 7 -12 9 1 9 8 0 22 -5 30 -10z m990 -30 c0 -12 -8 -12 -35 0 -18
8 -17 9 8 9 15 1 27 -3 27 -9z m0 -30 c0 -5 -12 -10 -27 -9 -25 0 -26 1 -8 9
27 12 35 12 35 0z m0 -45 c0 -10 -9 -14 -25 -13 -31 3 -33 15 -2 21 12 2 23 5
25 6 1 0 2 -6 2 -14z m-76 -166 c-3 -608 -5 -692 -13 -684 -11 11 -12 78 -12
513 0 253 3 313 13 310 10 -4 13 -37 12 -139z m69 124 c-7 -2 -21 -2 -30 0
-10 3 -4 5 12 5 17 0 24 -2 18 -5z m-10 -30 c-7 -2 -19 -2 -25 0 -7 3 -2 5 12
5 14 0 19 -2 13 -5z m-759 -12 c9 -13 -4 -42 -16 -35 -5 3 -4 11 3 20 16 20 0
17 -25 -3 -21 -18 -21 -18 -2 5 21 24 32 27 40 13z m-748 -49 c-14 -14 -16
-14 -16 -1 0 20 23 44 29 28 2 -6 -4 -18 -13 -27z m1524 28 c0 -6 -7 -13 -15
-16 -20 -8 -48 3 -40 16 8 13 55 13 55 0z m-1436 -15 c-4 -8 -15 -15 -26 -15
-17 0 -18 3 -8 15 7 8 19 15 26 15 8 0 11 -6 8 -15z m766 8 c0 -4 -10 -17 -22
-30 -31 -33 -15 -40 24 -10 18 13 43 30 55 36 19 10 22 9 17 -4 -3 -8 -9 -13
-13 -10 -19 11 -80 -57 -97 -108 -21 -66 -48 -120 -68 -136 -24 -20 -19 -3 8
30 33 39 72 170 46 154 -5 -3 -10 -16 -10 -27 0 -12 -12 -45 -26 -74 -59 -121
-170 -185 -258 -148 -14 5 -17 4 -12 -4 4 -7 3 -12 -3 -12 -15 0 -38 40 -46
80 -4 19 -10 39 -13 45 -3 5 -5 25 -3 43 1 18 -3 40 -10 48 -10 12 -9 16 9 21
12 3 22 9 22 14 0 5 7 9 15 9 14 0 14 -12 -1 -86 -2 -12 3 -27 11 -34 10 -9
11 -16 4 -28 -20 -32 4 -68 55 -82 40 -11 49 -10 72 5 18 12 24 23 21 37 -4
14 4 30 24 51 16 16 28 34 26 40 -5 16 24 46 38 41 8 -3 20 14 31 45 21 58 56
101 84 101 11 0 20 -3 20 -7z m670 -38 c0 -17 -45 -21 -55 -6 -4 8 4 12 48 20
4 0 7 -6 7 -14z m-520 -20 c0 -15 5 -25 13 -24 27 3 36 -2 39 -23 2 -13 13
-27 26 -33 12 -5 22 -13 22 -17 0 -11 -4 -10 -36 7 -16 8 -37 15 -46 15 -9 0
-20 9 -23 21 -8 24 -33 22 -49 -5 -8 -14 -8 -20 0 -23 29 -10 45 -30 38 -46
-7 -18 -34 -24 -34 -7 0 16 -36 12 -51 -6 -12 -14 -9 -20 16 -40 25 -20 27
-26 15 -34 -9 -5 -19 -5 -27 2 -8 6 -16 8 -20 5 -3 -4 -12 -2 -19 4 -22 18
-30 -18 -9 -41 37 -41 -4 -71 -46 -34 -22 20 -28 18 -39 -12 -7 -19 -7 -31 1
-40 8 -10 9 -18 0 -27 -6 -8 -8 -17 -4 -20 3 -4 0 -7 -8 -7 -20 0 -39 20 -39
42 0 10 -7 18 -16 18 -13 0 -15 -10 -12 -52 2 -34 -1 -52 -9 -55 -8 -3 -13 4
-13 15 0 24 -28 55 -42 46 -5 -3 -7 -23 -3 -45 4 -21 4 -39 0 -39 -17 0 -45
22 -39 31 8 14 -16 59 -32 59 -17 0 -32 -29 -27 -50 3 -10 1 -20 -4 -23 -19
-12 -34 12 -35 52 0 27 -6 45 -14 48 -20 8 -45 -17 -39 -38 9 -27 -11 -31 -25
-4 -9 16 -10 43 -6 87 9 77 21 104 31 66 13 -50 42 -66 122 -64 40 0 74 -3 76
-7 10 -32 133 75 174 152 12 24 23 38 24 30 0 -8 5 -3 10 10 5 13 7 32 3 43
-14 44 44 85 124 87 28 1 32 -2 32 -24z m-301 -13 c0 -14 -2 -14 -8 2 -5 14
-10 16 -15 7 -4 -6 -3 -17 3 -24 6 -8 6 -18 1 -27 -8 -12 -10 -9 -10 10 -1 22
-2 23 -11 7 -5 -9 -7 -21 -4 -27 3 -5 -4 -14 -15 -20 -22 -12 -26 -40 -8 -58
8 -8 8 -12 1 -12 -6 0 -13 7 -17 15 -4 10 -14 13 -33 9 -20 -4 -33 0 -46 13
-31 35 -27 127 5 95 21 -21 84 -15 115 12 30 26 43 25 42 -2z m38 -4 c-3 -8
-6 -5 -6 6 -1 11 2 17 5 13 3 -3 4 -12 1 -19z m776 -5 c-7 -2 -21 -2 -30 0
-10 3 -4 5 12 5 17 0 24 -2 18 -5z m-792 -36 c-10 -9 -11 -8 -5 6 3 10 9 15
12 12 3 -3 0 -11 -7 -18z m799 3 c0 -5 -14 -10 -31 -10 -17 0 -28 4 -24 10 3
6 17 10 31 10 13 0 24 -4 24 -10z m-519 -37 c13 -16 12 -17 -3 -4 -17 13 -22
21 -14 21 2 0 10 -8 17 -17z m519 -3 c0 -5 -11 -10 -25 -10 -14 0 -25 5 -25
10 0 6 11 10 25 10 14 0 25 -4 25 -10z m-1129 -27 c1 -16 1 -39 0 -53 -1 -14
-1 -44 -1 -67 0 -31 -6 -49 -22 -65 -13 -13 -23 -35 -23 -52 0 -25 -4 -29 -27
-30 -32 -2 -35 11 -14 52 7 15 16 48 20 74 4 25 13 51 20 57 8 6 16 34 20 61
7 53 25 68 27 23z m704 -22 c-9 -16 -25 -3 -18 15 4 10 9 12 15 6 6 -6 7 -15
3 -21z m-65 -17 c0 -28 -3 -28 49 -9 22 8 41 10 41 5 0 -5 -16 -12 -35 -16
-19 -3 -35 -10 -35 -15 0 -5 -7 -9 -15 -9 -8 0 -15 4 -15 9 0 5 -3 23 -7 41
-4 24 -3 31 5 26 7 -4 12 -18 12 -32z m373 -131 c-1 -93 -3 -201 -3 -241 0
-47 -4 -71 -10 -67 -6 4 -26 38 -45 76 -29 56 -32 67 -16 57 47 -29 71 46 46
143 -16 62 -14 92 4 48 8 -21 10 -17 10 24 1 33 -3 47 -13 47 -24 0 -39 -28
-33 -65 3 -19 2 -35 -2 -35 -11 0 -23 74 -15 94 3 9 10 16 15 16 5 0 9 7 9 15
0 8 5 15 10 15 6 0 10 6 10 14 0 12 12 22 30 25 3 1 4 -74 3 -166z m105 160
c-10 -2 -26 -2 -35 0 -10 3 -2 5 17 5 19 0 27 -2 18 -5z m-915 -22 c5 0 6 -5
3 -10 -3 -5 -15 -7 -26 -4 -15 4 -20 0 -20 -13 0 -17 -1 -16 -15 2 -8 10 -15
22 -15 26 0 5 41 5 73 -1z m657 -1 c0 -5 -6 -10 -14 -10 -8 0 -18 5 -21 10 -3
6 3 10 14 10 12 0 21 -4 21 -10z m270 -10 c0 -5 -11 -10 -25 -10 -14 0 -25 5
-25 10 0 6 11 10 25 10 14 0 25 -4 25 -10z m-530 -8 c0 -2 -6 -10 -14 -17 -12
-12 -16 -12 -25 -1 -6 7 -9 15 -6 17 5 6 45 6 45 1z m-400 -22 c0 -5 -2 -10
-4 -10 -3 0 -8 5 -11 10 -3 6 -1 10 4 10 6 0 11 -4 11 -10z m586 -50 c6 0 14
-7 18 -15 3 -8 1 -15 -4 -15 -6 0 -10 5 -10 11 0 5 -5 7 -10 4 -6 -3 -7 -18
-4 -32 5 -19 4 -24 -5 -19 -7 4 -20 2 -29 -5 -14 -12 -14 -10 1 8 20 23 24 44
15 88 l-7 30 12 -27 c6 -16 16 -28 23 -28z m22 32 c6 -18 -15 -14 -22 4 -4 10
-1 14 6 12 6 -2 14 -10 16 -16z m310 11 c-10 -2 -26 -2 -35 0 -10 3 -2 5 17 5
19 0 27 -2 18 -5z m-418 -23 c0 -11 5 -20 11 -20 5 0 7 5 4 10 -3 6 -1 10 4
10 6 0 11 -9 11 -19 0 -11 3 -26 6 -35 5 -12 0 -16 -17 -16 -13 0 -30 4 -38 9
-12 8 -12 12 -2 25 12 15 8 20 -12 17 -4 -1 -3 8 3 19 14 26 30 26 30 0z m-73
-26 c1 -19 -2 -23 -10 -15 -14 14 -30 14 -22 0 4 -5 -9 -3 -29 5 -20 8 -36 11
-36 6 0 -5 -8 -6 -17 -3 -15 6 -14 7 3 13 10 4 33 5 50 3 18 -3 35 0 38 6 12
18 21 12 23 -15z m498 16 c4 -6 -5 -10 -19 -10 -14 0 -26 5 -26 10 0 6 9 10
19 10 11 0 23 -4 26 -10z m-825 -20 c-24 -19 -40 -25 -40 -15 0 5 51 34 60 34
3 0 -6 -8 -20 -19z m581 -48 c15 -27 15 -52 0 -52 -11 0 -52 76 -45 83 10 10
29 -3 45 -31z m249 30 c0 -5 -13 -7 -30 -4 -16 2 -30 6 -30 8 0 2 14 4 30 4
17 0 30 -4 30 -8z m-629 -25 c-10 -9 -11 -8 -5 6 3 10 9 15 12 12 3 -3 0 -11
-7 -18z m44 -9 c-4 -41 -6 -43 -16 -25 -11 19 -6 47 9 47 5 0 8 -10 7 -22z
m95 -8 c0 -11 7 -20 15 -20 13 0 14 -4 5 -20 -6 -10 -16 -18 -23 -16 -6 1 -9
1 -4 -1 10 -6 9 -33 -1 -33 -4 0 -13 5 -20 12 -7 7 -12 8 -11 3 1 -17 92 -77
116 -77 13 0 23 -4 23 -9 0 -5 -13 -9 -29 -9 -18 0 -34 -8 -44 -22 -12 -17
-16 -19 -16 -7 -1 8 4 20 9 25 29 29 -21 64 -91 64 -26 0 -42 5 -45 15 -4 8
-12 15 -20 15 -8 0 -14 5 -14 10 0 13 3 13 35 -2 14 -6 25 -15 25 -20 0 -4 8
-8 17 -8 9 0 13 3 10 7 -4 3 2 16 13 28 11 12 22 36 23 53 2 34 27 45 27 12z
m478 3 c-10 -2 -26 -2 -35 0 -10 3 -2 5 17 5 19 0 27 -2 18 -5z m-540 -25 c-2
-12 -8 -23 -14 -25 -7 -2 -10 6 -7 22 6 30 26 34 21 3z m242 11 c0 -5 5 -7 10
-4 6 3 10 -1 10 -10 0 -12 -5 -15 -16 -11 -9 3 -18 6 -20 6 -2 0 -4 7 -4 15 0
8 5 15 10 15 6 0 10 -5 10 -11z m-113 -5 c-3 -3 -12 -4 -19 -1 -8 3 -5 6 6 6
11 1 17 -2 13 -5z m-227 -14 c0 -5 -4 -10 -9 -10 -6 0 -13 5 -16 10 -3 6 1 10
9 10 9 0 16 -4 16 -10z m239 -19 c8 -5 11 -16 7 -26 -4 -13 -2 -16 9 -11 18 7
20 -15 3 -32 -15 -15 -48 -16 -48 -2 0 6 5 10 10 10 6 0 10 10 9 23 0 12 -3
16 -6 10 -7 -18 -20 -16 -27 3 -11 30 13 44 43 25z m-299 -58 c0 -62 -11 -67
-14 -6 -2 37 2 63 10 63 2 0 4 -25 4 -57z m362 33 c-3 -17 23 -23 32 -7 3 5
17 11 30 13 21 4 27 0 36 -25 14 -42 12 -57 -5 -27 -7 14 -17 23 -21 22 -4 -2
-11 2 -15 10 -7 10 -9 10 -9 1 0 -7 -9 -22 -20 -33 -11 -11 -20 -27 -20 -35 0
-8 -4 -15 -9 -15 -10 0 -36 29 -27 31 3 1 11 3 16 4 6 1 13 3 16 4 4 0 1 8 -6
16 -7 8 -10 15 -6 15 3 0 1 12 -4 26 -8 20 -7 25 2 21 7 -2 12 -11 10 -21z
m188 -17 c0 -20 -5 -29 -16 -29 -13 0 -14 3 -5 14 8 10 9 15 1 18 -6 2 -8 11
-5 21 10 25 25 11 25 -24z m143 24 c-7 -2 -21 -2 -30 0 -10 3 -4 5 12 5 17 0
24 -2 18 -5z m-768 -13 c3 -5 15 -10 26 -10 22 0 23 -4 8 -33 -7 -11 -13 -64
-14 -116 -4 -138 -21 -218 -57 -264 -37 -48 -29 -62 9 -17 38 45 42 57 62 195
14 96 19 113 24 87 6 -28 10 -32 27 -27 13 4 20 2 20 -7 0 -19 -13 -33 -30
-33 -8 0 -16 -10 -18 -22 -4 -29 12 -29 39 -2 20 20 21 27 14 143 -6 101 -5
119 6 108 8 -7 15 -23 15 -35 1 -12 6 -70 12 -128 9 -87 9 -114 -3 -154 -16
-53 -15 -64 5 -39 10 11 15 60 18 160 4 113 7 144 18 144 15 0 18 -12 7 -24
-12 -12 -10 -255 2 -259 13 -5 -13 -37 -30 -37 -7 0 -16 -7 -19 -16 -4 -10
-13 -14 -22 -10 -9 4 -24 -5 -39 -22 -24 -28 -26 -43 -1 -23 11 9 15 8 20 -4
6 -17 -1 -19 -57 -16 -63 3 -119 -24 -141 -68 -17 -36 -17 -40 -2 -64 18 -27
50 -43 108 -53 39 -6 78 10 126 54 16 14 29 19 36 13 16 -14 106 9 106 27 0 7
6 12 13 10 7 -3 13 -27 15 -58 4 -62 -4 -100 -19 -100 -6 0 -9 7 -5 15 8 23
-4 73 -21 79 -11 5 -13 -2 -7 -32 6 -35 5 -36 -9 -17 -15 19 -16 18 -15 -19 1
-28 -4 -43 -18 -53 -17 -12 -20 -12 -25 9 -3 13 -11 22 -17 20 -7 -1 -12 2
-12 8 0 5 -4 10 -10 10 -5 0 -10 -13 -10 -29 0 -16 -7 -37 -16 -45 -21 -21
-23 -20 -16 7 5 20 4 21 -13 7 -17 -14 -18 -13 -13 2 12 30 -5 29 -18 -2 -19
-45 -69 -71 -129 -68 -48 3 -50 5 -60 37 -11 37 -71 109 -82 98 -3 -4 11 -25
31 -47 37 -41 47 -80 21 -80 -8 0 -25 16 -37 35 -13 19 -27 35 -31 35 -4 0 -5
-22 -1 -49 5 -42 4 -50 -13 -60 -18 -9 -19 -16 -12 -63 4 -29 10 -149 14 -267
6 -210 6 -213 -15 -228 -12 -8 -26 -25 -31 -37 -6 -14 -7 35 -3 139 4 88 6
176 6 195 -1 19 -1 63 -2 98 0 34 -5 62 -10 62 -6 0 -10 -25 -10 -56 0 -30 -4
-85 -10 -122 -14 -98 -18 -352 -5 -351 5 1 23 1 38 0 37 -1 25 -21 -14 -21
-16 0 -32 -6 -35 -14 -3 -8 -20 -17 -37 -21 -18 -4 -39 -9 -47 -11 -42 -10
-104 -8 -108 4 -12 36 -49 63 -92 69 -25 3 -50 10 -56 14 -6 5 -12 60 -15 131
-7 201 -1 303 23 382 11 39 20 92 20 118 -1 31 5 60 18 83 23 41 26 69 5 41
-15 -19 -15 -19 -15 3 0 14 15 37 36 57 26 25 31 34 18 34 -9 0 -32 -17 -51
-37 -32 -33 -35 -41 -31 -82 3 -26 2 -59 -2 -76 -7 -28 -8 -27 -11 15 -1 25
-3 56 -3 70 1 28 -17 45 -28 27 -4 -7 -8 -48 -8 -92 0 -44 -5 -98 -10 -121 -5
-22 -14 -120 -19 -218 -5 -98 -12 -180 -15 -184 -4 -3 -19 -1 -34 4 -19 7 -28
17 -30 36 -3 24 -7 27 -32 22 -27 -6 -29 -4 -36 32 -4 22 -1 104 6 184 7 80
16 195 19 257 4 69 11 117 18 125 7 6 13 23 13 36 0 33 52 78 103 90 23 6 80
20 126 32 46 12 97 20 115 17 39 -6 129 50 152 95 8 16 19 26 24 23 11 -7 16
14 29 105 l9 65 1 -72 c1 -82 -15 -119 -83 -191 -29 -30 -52 -44 -78 -49 -21
-3 -36 -8 -34 -12 2 -3 -15 -6 -37 -6 -23 0 -69 -7 -102 -15 -62 -15 -115 -57
-156 -125 -14 -23 -19 -25 -19 -11 0 28 41 95 63 102 10 3 16 8 14 11 -3 3
-15 2 -27 -2 -31 -10 -69 -101 -81 -194 -14 -113 -23 -485 -11 -477 6 3 8 30
5 64 -6 76 13 420 26 452 7 18 9 -65 8 -274 -1 -192 2 -300 8 -303 6 -2 9 20
7 56 -2 33 1 90 7 128 6 40 7 69 1 73 -5 3 -7 50 -5 105 2 55 4 134 4 176 1
76 2 77 46 131 36 44 54 57 98 71 60 19 114 23 86 7 -9 -5 -31 -12 -50 -15
-34 -6 -84 -33 -76 -41 2 -2 17 3 34 11 16 8 88 22 159 31 167 20 167 20 224
34 46 11 50 15 64 58 9 25 16 58 16 73 0 15 6 29 13 31 14 5 29 231 15 236
-16 7 -8 23 17 32 14 5 25 16 25 25 0 19 14 19 29 1 8 -10 9 -16 1 -21 -5 -3
-10 -34 -10 -68 0 -51 -16 -178 -36 -284 -7 -37 -53 -83 -83 -83 -15 0 -32 -5
-37 -10 -15 -15 -145 -51 -157 -43 -5 3 -15 -1 -21 -9 -6 -8 -32 -18 -57 -21
-53 -7 -99 -26 -99 -40 0 -5 10 -6 23 -2 27 8 40 9 92 5 27 -3 39 0 37 8 -1 8
12 12 37 12 21 0 52 7 67 15 16 8 41 15 56 15 15 0 30 5 33 10 9 15 -51 12
-92 -5 -19 -8 -43 -15 -52 -14 -9 0 14 10 51 23 37 12 71 25 74 29 4 4 20 7
36 7 36 0 108 71 108 108 0 54 24 152 37 152 10 0 13 23 13 98 0 73 4 103 16
120 9 13 14 32 11 43 -5 20 7 26 18 9z m-171 -21 c-3 -6 -3 -18 1 -27 12 -29
5 -143 -16 -247 -20 -99 -45 -155 -77 -176 -13 -7 -13 -9 -2 -6 8 2 30 23 48
46 34 45 43 35 21 -27 -9 -27 -17 -32 -67 -42 -31 -6 -73 -15 -91 -20 -47 -13
-49 -7 -6 20 19 12 43 36 51 53 9 16 29 47 44 69 20 28 30 56 35 101 4 34 13
85 20 112 7 28 16 76 20 108 4 32 11 55 16 51 5 -3 7 -10 3 -15z m-274 -4 c0
-8 -4 -15 -10 -15 -5 0 -10 7 -10 15 0 8 5 15 10 15 6 0 10 -7 10 -15z m150
-21 c0 -7 -4 -16 -10 -19 -5 -3 -10 1 -10 11 0 13 -3 14 -15 4 -12 -10 -15
-10 -15 2 0 8 3 17 6 20 9 10 44 -4 44 -18z m793 -1 c-17 -6 -16 -23 1 -23 20
0 27 -27 10 -40 -11 -10 -14 -10 -14 0 0 7 -7 18 -17 25 -20 15 -11 45 14 44
11 0 13 -3 6 -6z m262 -3 c3 -5 -1 -10 -9 -10 -9 0 -16 5 -16 10 0 6 4 10 9
10 6 0 13 -4 16 -10z m-1158 -35 c-2 -5 -12 -11 -23 -13 -15 -3 -16 -1 -4 7
12 9 12 11 -3 17 -9 3 -14 10 -11 15 7 11 45 -13 41 -26z m173 5 c9 0 11 -9 6
-32 -4 -18 -13 -64 -20 -103 l-14 -70 -1 68 c-1 43 -5 66 -11 62 -11 -7 -13
27 -3 75 5 29 8 31 18 16 7 -9 18 -16 25 -16z m520 8 c0 -5 -9 -4 -20 2 -11 6
-20 12 -20 14 0 2 9 2 20 -1 11 -3 20 -9 20 -15z m480 -8 c0 -5 -10 -10 -22
-9 -22 0 -22 1 -3 9 11 5 21 9 23 9 1 1 2 -3 2 -9z m-565 -30 c-5 -16 6 -104
20 -155 3 -11 -3 -30 -12 -42 -17 -22 -18 -19 -20 102 -1 78 2 123 8 119 5 -3
7 -14 4 -24z m79 8 c-3 -5 -12 -4 -20 3 -19 16 -18 18 6 12 11 -3 17 -9 14
-15z m136 -2 c0 -7 11 -21 25 -30 49 -32 117 -11 101 31 -5 13 -4 15 4 7 12
-12 3 -64 -11 -64 -16 0 -10 -20 16 -54 14 -18 25 -38 25 -43 0 -6 7 -13 15
-17 8 -3 15 -17 15 -32 0 -23 -2 -25 -15 -14 -13 11 -13 15 -3 21 12 8 4 13
-15 10 -4 -1 -10 7 -13 16 -31 96 -78 129 -119 83 -20 -22 -40 -26 -51 -9 -4
7 2 9 17 7 17 -2 24 3 30 25 5 20 4 27 -4 24 -6 -2 -17 7 -24 21 -16 29 -16
32 -3 32 6 0 10 -6 10 -14z m-750 -10 c0 -9 -30 -14 -35 -6 -4 6 3 10 14 10
12 0 21 -2 21 -4z m397 -28 c-3 -7 -5 -2 -5 12 0 14 2 19 5 13 2 -7 2 -19 0
-25z m706 25 c-7 -2 -21 -2 -30 0 -10 3 -4 5 12 5 17 0 24 -2 18 -5z m-1273
-13 c0 -5 -5 -10 -11 -10 -5 0 -7 5 -4 10 3 6 8 10 11 10 2 0 4 -4 4 -10z
m123 -29 c15 -6 27 -15 27 -21 0 -13 -6 -13 -30 2 -30 19 -36 1 -7 -23 15 -11
27 -29 27 -40 0 -10 5 -19 10 -19 20 0 9 -25 -17 -37 -37 -18 -69 -17 -55 0 9
10 7 19 -4 35 -15 22 -41 32 -29 11 4 -5 4 -22 0 -37 -7 -25 -8 -26 -16 -7 -8
20 -8 20 -14 -1 -7 -22 -58 -46 -72 -34 -4 5 -17 10 -28 12 -18 3 -18 4 4 25
25 24 22 60 -4 49 -8 -3 -15 -2 -15 3 0 5 10 11 23 15 12 3 31 18 41 34 31 46
91 59 159 33z m705 4 c12 -3 22 -10 22 -15 0 -11 44 -55 76 -76 25 -17 33 -52
12 -51 -50 2 -58 -3 -52 -28 5 -22 2 -26 -23 -31 -22 -4 -29 -11 -29 -27 1
-18 -5 -22 -32 -22 -25 0 -32 -4 -29 -15 2 -10 -6 -21 -21 -28 -23 -10 -24
-10 -19 14 4 22 1 25 -14 20 -63 -20 -63 -20 -56 -4 3 9 31 48 63 87 38 48 67
74 88 80 l31 9 -28 1 c-16 1 -26 5 -22 11 9 14 48 13 63 -2 9 -9 12 -9 12 3 0
8 -9 20 -21 27 -17 11 -25 11 -44 -2 -30 -20 -35 -20 -35 -2 0 8 12 17 28 21
l27 8 -27 10 c-30 12 -39 31 -10 23 9 -2 27 -7 40 -11z m447 5 c-3 -5 -15 -10
-26 -10 -10 0 -19 5 -19 10 0 6 12 10 26 10 14 0 23 -4 19 -10z m-7 -37 c-10
-2 -26 -2 -35 0 -10 3 -2 5 17 5 19 0 27 -2 18 -5z m-248 -27 c0 -8 -6 -17
-12 -19 -10 -4 -9 -8 2 -17 13 -10 13 -11 0 -6 -8 3 -23 9 -32 12 -10 4 -18
11 -18 16 0 6 6 8 14 5 8 -3 17 1 20 9 7 18 26 18 26 0z m243 -3 c-7 -2 -19
-2 -25 0 -7 3 -2 5 12 5 14 0 19 -2 13 -5z m-1380 -32 c34 -17 36 -20 17 -26
-16 -5 -19 -11 -13 -28 4 -12 7 -34 7 -49 -1 -19 4 -28 14 -28 8 0 13 -3 9 -6
-3 -4 -17 -4 -30 0 -22 5 -23 9 -19 61 4 44 1 60 -13 75 -22 25 -19 25 28 1z
m1262 8 c11 -17 -1 -21 -15 -4 -8 9 -8 15 -2 15 6 0 14 -5 17 -11z m-816 -93
c-9 -8 -10 -2 -5 29 3 22 7 47 8 55 1 8 3 -5 5 -29 3 -26 -1 -48 -8 -55z m941
84 c0 -5 -9 -10 -20 -10 -11 0 -20 5 -20 10 0 6 9 10 20 10 11 0 20 -4 20 -10z
m10 -34 c0 -2 -13 -6 -30 -8 -16 -3 -30 -1 -30 4 0 4 14 8 30 8 17 0 30 -2 30
-4z m-249 -28 c1 -7 1 -19 -1 -27 -1 -7 9 -24 21 -37 40 -42 23 -214 -21 -214
-13 0 -53 -40 -46 -47 3 -3 -9 -17 -25 -31 -17 -14 -26 -28 -21 -31 6 -3 -1
-19 -15 -36 -22 -27 -24 -28 -18 -6 5 16 4 21 -4 17 -6 -4 -11 -14 -11 -22 0
-24 -56 -75 -74 -68 -9 3 -16 1 -16 -5 0 -43 -229 -78 -251 -38 -6 9 -20 17
-32 17 -18 0 -19 2 -7 10 8 5 26 6 40 3 23 -6 24 -5 8 11 -14 14 -22 15 -40 6
-23 -11 -23 -11 1 9 24 22 47 28 36 11 -3 -5 1 -10 9 -10 9 0 16 -6 16 -14 0
-14 20 -26 43 -26 6 0 2 7 -9 15 -19 14 -19 14 1 16 32 2 49 -2 57 -14 4 -6
10 -8 14 -4 4 3 2 13 -5 21 -9 11 -8 15 5 20 9 3 20 3 25 0 5 -3 41 0 79 7 51
10 70 18 70 29 0 8 18 32 40 54 22 21 40 43 40 49 0 6 -11 0 -25 -13 -19 -18
-25 -20 -25 -8 0 21 26 42 43 35 21 -8 137 136 123 150 -11 11 -55 -27 -58
-49 -2 -18 -9 -23 -35 -23 -17 0 -35 -3 -39 -7 -4 -5 -2 -8 5 -8 8 0 6 -8 -5
-25 -9 -14 -23 -25 -30 -25 -10 0 -8 6 6 20 11 11 17 26 14 35 -8 20 20 62 46
70 61 19 86 81 55 135 -8 14 -14 33 -15 43 0 19 29 24 31 5z m139 -7 c1 9 5 8
15 -5 19 -25 19 -37 0 -30 -11 5 -13 2 -9 -10 11 -27 -5 -18 -21 14 -19 37
-19 46 0 30 12 -10 15 -10 15 1z m93 2 c-7 -2 -21 -2 -30 0 -10 3 -4 5 12 5
17 0 24 -2 18 -5z m-1129 -9 c20 -8 21 -33 1 -40 -8 -4 -15 -12 -15 -20 0 -8
-10 -14 -25 -14 -18 0 -23 -4 -19 -15 4 -10 0 -15 -14 -15 -11 0 -22 -4 -24
-9 -2 -5 -25 -5 -53 -1 -34 5 -52 4 -57 -4 -6 -8 -11 -7 -18 4 -9 15 -11 13
-14 -12 0 -7 -8 -14 -17 -16 -14 -2 -16 3 -10 30 6 28 11 33 39 36 32 3 44 25
20 36 -7 3 -3 3 9 0 12 -3 31 0 43 6 11 6 36 11 55 12 19 1 35 5 35 9 0 4 10
10 23 12 12 2 23 5 24 6 1 0 8 -2 17 -5z m1136 -23 c0 -4 -11 -6 -25 -3 -14 2
-25 6 -25 8 0 2 11 4 25 4 14 0 25 -4 25 -9z m-1466 -68 c-11 -16 -37 -37 -57
-48 -20 -11 -37 -24 -38 -30 0 -5 -14 -21 -31 -35 l-31 -24 6 64 c4 35 13 70
20 78 7 7 37 16 65 21 29 4 55 11 59 15 4 3 11 2 17 -4 7 -7 3 -19 -10 -37z
m1320 31 c18 -17 22 -54 6 -54 -5 0 -10 11 -10 25 0 14 -4 25 -10 25 -5 0 -10
5 -10 10 0 14 6 13 24 -6z m146 6 c0 -5 -6 -10 -14 -10 -8 0 -18 5 -21 10 -3
6 3 10 14 10 12 0 21 -4 21 -10z m-1445 -67 c-50 -46 -56 -35 -9 17 23 25 40
37 42 30 3 -7 -12 -28 -33 -47z m830 38 c-3 -6 -14 -11 -23 -11 -13 0 -13 2 4
14 21 15 30 14 19 -3z m298 -16 c-5 -30 -3 -34 11 -29 9 3 16 1 16 -5 0 -6 -4
-11 -9 -11 -5 0 -28 -18 -51 -40 -47 -45 -66 -51 -55 -17 4 12 7 30 6 40 0 9
4 15 9 12 5 -3 11 -1 15 5 3 5 11 10 17 10 6 0 3 -9 -7 -20 -10 -11 -14 -20
-8 -20 5 0 17 8 26 18 15 17 15 19 -3 32 -21 15 -18 32 4 24 9 -3 17 3 21 15
10 32 14 25 8 -14z m66 -7 c1 -5 -3 -8 -9 -8 -5 0 -10 12 -9 28 0 24 1 25 9 7
5 -11 9 -23 9 -27z m-33 5 c-10 -10 -19 5 -10 18 6 11 8 11 12 0 2 -7 1 -15
-2 -18z m218 -4 c-11 -23 -19 -28 -27 -20 -7 7 -5 16 8 31 27 30 38 24 19 -11z
m76 17 c0 -9 -30 -14 -35 -6 -4 6 3 10 14 10 12 0 21 -2 21 -4z m-180 -21 c0
-8 -2 -15 -4 -15 -2 0 -6 7 -10 15 -3 8 -1 15 4 15 6 0 10 -7 10 -15z m-930
-9 c0 -20 -52 -55 -92 -62 l-33 -5 40 21 c22 11 49 29 60 40 23 24 25 24 25 6z
m540 -2 c-11 -13 -10 -16 8 -21 24 -6 30 -23 10 -23 -8 0 -5 -7 6 -15 11 -8
14 -15 7 -15 -6 0 -11 -7 -9 -16 2 -10 -3 -19 -10 -21 -7 -3 -10 1 -6 10 7 20
-33 85 -59 94 -20 6 -18 8 13 14 19 3 39 7 44 8 5 0 3 -6 -4 -15z m440 -13 c0
-12 -20 -25 -27 -18 -7 7 6 27 18 27 5 0 9 -4 9 -9z m-553 -21 c54 0 62 -3 68
-21 12 -37 -108 -137 -151 -126 -16 4 -15 5 4 6 12 0 22 6 22 12 0 6 -8 8 -17
5 -10 -3 -31 -8 -48 -11 l-30 -6 25 15 c14 8 35 15 48 16 12 0 22 5 22 10 0
14 -31 12 -60 -5 -14 -8 -34 -14 -45 -14 -12 0 2 11 33 25 28 13 52 28 52 33
0 9 -50 -6 -86 -26 -12 -7 -24 -10 -27 -6 -7 6 46 44 78 57 15 5 16 9 6 15
-20 13 -2 34 23 27 11 -3 49 -6 83 -6z m513 -5 c0 -8 -4 -15 -10 -15 -5 0 -10
7 -10 15 0 8 5 15 10 15 6 0 10 -7 10 -15z m166 -26 c-5 -46 -16 -47 -16 0 0
25 4 40 10 36 5 -3 8 -19 6 -36z m-820 6 c-11 -8 -22 -12 -25 -9 -6 6 19 24
34 24 6 -1 1 -7 -9 -15z m738 -10 c-4 -8 -1 -15 5 -15 6 0 11 7 11 15 0 8 7
15 15 15 8 0 15 -4 15 -8 0 -14 -46 -53 -53 -45 -11 10 -8 53 3 53 5 0 7 -7 4
-15z m-93 -32 c-15 -29 -58 -134 -77 -190 -12 -34 -21 -48 -27 -40 -5 7 -6 3
-2 -10 9 -31 -2 -48 -21 -32 -16 13 -18 5 -5 -20 7 -12 1 -52 -20 -130 -16
-62 -29 -130 -29 -150 0 -40 23 -81 45 -81 11 0 13 -10 9 -44 -6 -42 -5 -45
25 -60 17 -9 30 -21 28 -27 -1 -7 4 -14 12 -17 10 -3 12 0 8 12 -4 10 -7 21
-7 25 0 4 -11 13 -24 19 -17 7 -23 19 -23 39 0 27 0 27 10 6 5 -13 16 -23 22
-23 15 0 37 25 29 32 -2 3 2 8 11 12 13 5 15 0 10 -27 -23 -128 -21 -208 6
-192 5 4 9 -5 9 -18 0 -31 23 -51 49 -42 24 7 67 -14 97 -47 24 -26 48 -91 41
-111 -2 -6 0 -20 5 -29 6 -12 5 -18 -2 -18 -6 0 -8 -5 -4 -11 5 -8 9 -8 14 1
9 14 50 -3 50 -21 0 -6 6 -9 13 -6 8 3 20 2 27 -3 9 -6 7 -10 -9 -15 -24 -7
-81 2 -81 15 0 4 -12 8 -26 8 -33 -1 -47 14 -48 51 -1 16 -5 26 -9 22 -4 -4
-26 1 -48 12 -32 16 -43 17 -49 7 -4 -7 -13 -9 -19 -6 -6 4 -11 3 -11 -2 0
-14 28 -23 32 -10 3 7 17 5 41 -7 48 -23 52 -60 7 -70 -42 -9 -90 3 -90 23 0
14 -2 14 -9 3 -5 -8 -16 -11 -25 -8 -9 4 -16 2 -16 -3 0 -9 6 -11 65 -26 52
-13 56 -13 87 0 26 11 39 10 90 -5 33 -11 73 -19 88 -19 16 0 32 -4 35 -10 3
-5 -1 -10 -10 -10 -9 0 -23 -7 -31 -15 -9 -8 -12 -15 -7 -15 5 0 9 -9 10 -20
1 -11 -4 -20 -13 -20 -8 0 -14 5 -14 10 0 6 -7 10 -15 10 -18 0 -20 -30 -2
-31 9 0 9 -2 -1 -6 -18 -7 -4 -23 21 -23 20 0 20 -2 -8 -24 -24 -20 -28 -28
-19 -42 6 -10 16 -20 23 -22 10 -3 10 0 0 16 -10 17 -10 23 0 36 24 28 32 17
25 -33 -4 -31 -2 -51 5 -55 7 -5 11 7 11 36 0 62 9 70 66 66 38 -2 49 0 49 12
0 11 -15 17 -55 21 -48 5 -50 6 -15 8 65 2 80 21 18 21 -32 0 -53 4 -53 11 0
7 10 9 26 5 17 -5 23 -3 19 4 -3 5 -16 10 -28 11 l-22 0 23 9 c12 5 22 13 22
18 0 10 44 32 64 32 12 0 14 -37 8 -235 l-2 -55 -197 0 c-109 1 -272 -3 -363
-8 -166 -10 -634 -7 -680 4 -14 3 -27 9 -30 14 -3 4 -23 11 -44 15 -24 5 -37
4 -33 -2 11 -18 -32 -7 -55 13 -13 12 -38 31 -56 43 -28 20 -31 25 -20 39 10
14 10 15 -2 5 -20 -19 -29 -16 -40 12 -6 15 -15 23 -23 19 -8 -3 -20 2 -27 11
-7 9 -9 15 -4 14 5 -1 18 -1 29 0 19 2 19 2 2 12 -10 6 -25 8 -33 5 -10 -4
-12 -2 -8 6 5 8 2 9 -9 5 -10 -3 -17 -2 -17 3 0 6 -6 10 -13 10 -17 0 -47 36
-39 46 4 4 -1 4 -12 0 -13 -4 -17 -2 -13 8 4 10 0 12 -16 8 -20 -5 -21 -4 -7
13 14 17 14 17 -6 7 -23 -12 -36 -6 -53 25 -10 19 -9 22 4 17 8 -3 13 -10 10
-14 -7 -11 20 -20 34 -11 8 5 1 13 -21 22 -34 15 -40 16 -73 18 -15 1 -17 3
-7 10 10 6 4 10 -18 15 -28 5 -31 8 -20 21 13 16 9 18 -25 16 -17 -2 -17 0 -5
8 10 7 11 11 3 11 -20 0 -18 159 1 166 8 3 59 6 113 7 128 3 130 -12 8 -73
-49 -25 -91 -52 -94 -60 -3 -12 0 -11 16 3 11 9 48 29 84 43 35 14 73 34 85
45 11 10 33 19 48 19 28 0 60 -22 49 -34 -3 -3 2 -15 11 -25 23 -25 15 -38
-32 -51 -48 -13 -52 -13 -52 5 0 8 -5 15 -11 15 -6 0 -8 -9 -4 -20 4 -11 2
-20 -4 -20 -6 0 -11 7 -11 15 0 21 -20 19 -21 -2 -1 -17 -2 -17 -6 0 -2 9 -9
17 -14 17 -6 0 -8 -10 -4 -22 6 -21 5 -22 -8 -5 -18 22 -27 22 -27 0 -1 -17
-2 -17 -14 0 -9 12 -16 14 -21 8 -3 -6 -23 -11 -43 -11 -28 0 -33 -3 -22 -10
24 -15 160 -12 225 6 33 9 91 20 130 24 38 5 71 13 73 19 2 6 8 8 13 5 6 -3
16 0 24 6 8 7 15 8 15 3 0 -5 14 -8 30 -5 22 3 55 -7 115 -37 46 -22 89 -41
95 -41 7 0 24 -9 39 -19 24 -17 30 -18 56 -6 17 7 58 19 93 27 59 14 65 14 87
-4 57 -45 127 -67 205 -65 61 1 83 -3 118 -22 72 -37 91 -9 41 62 -11 15 -17
33 -13 39 4 6 3 8 -4 4 -6 -3 -16 7 -23 23 -7 16 -18 27 -25 24 -14 -5 -28 46
-25 90 1 15 -2 27 -7 27 -9 0 -32 58 -32 79 0 10 3 11 14 2 8 -7 12 -20 9 -30
-3 -10 1 -22 7 -26 9 -5 10 -1 6 16 -7 23 -7 23 8 5 9 -11 16 -31 16 -45 0
-36 28 -112 49 -136 10 -11 23 -29 29 -40 6 -11 32 -32 59 -46 31 -16 48 -30
45 -40 -3 -12 -2 -12 6 0 7 9 20 12 42 8 25 -6 29 -4 18 6 -7 7 -26 14 -42 15
-85 6 -196 146 -196 248 0 20 -11 41 -34 66 -27 28 -35 47 -40 92 -4 31 -5 70
-1 86 4 18 2 30 -3 30 -6 0 -16 -26 -22 -57 -6 -32 -12 -66 -14 -76 -2 -9 0
-15 5 -12 9 6 17 -20 22 -65 1 -16 -3 -24 -10 -23 -7 2 -13 -4 -13 -13 0 -12
6 -15 20 -11 17 4 22 0 27 -24 3 -16 9 -29 14 -29 5 0 8 -8 7 -18 -4 -47 4
-75 27 -96 34 -32 73 -91 81 -122 l7 -26 -39 20 c-32 16 -136 52 -151 52 -2 0
-2 -4 1 -8 11 -18 -66 -10 -107 10 -23 12 -43 22 -45 23 -7 5 11 34 19 29 5
-3 6 2 3 10 -5 14 -8 14 -21 0 -14 -13 -19 -12 -47 9 -31 24 -96 111 -96 129
0 6 6 5 15 -2 16 -13 18 -7 9 26 -3 12 -17 27 -30 33 -23 10 -34 41 -15 41 5
0 7 9 4 20 -3 11 -11 20 -18 20 -18 0 -32 47 -29 100 2 38 2 40 -5 15 l-8 -30
-6 35 c-4 19 -8 46 -10 60 -3 14 -5 4 -6 -22 0 -29 10 -78 29 -133 17 -47 28
-90 25 -95 -4 -6 1 -17 9 -26 17 -16 22 -39 8 -30 -5 3 -22 -4 -40 -14 -22
-14 -32 -16 -36 -7 -2 7 -5 0 -5 -14 -1 -15 6 -29 14 -33 10 -4 15 1 16 17 0
21 1 21 9 2 8 -19 9 -19 9 -1 1 11 4 16 7 13 4 -3 15 -2 25 4 15 8 22 3 38
-28 11 -21 29 -48 40 -60 25 -27 27 -37 5 -29 -9 4 -24 1 -32 -6 -13 -11 -15
-10 -9 5 4 12 1 17 -9 17 -10 0 -14 -6 -10 -15 4 -11 -1 -15 -19 -15 -13 0
-27 -4 -30 -10 -14 -22 -20 -8 -17 38 2 34 0 43 -7 32 -16 -23 -30 -1 -44 68
-10 49 -15 60 -25 50 -9 -9 -12 -9 -12 0 0 7 7 15 15 18 8 4 15 16 14 28 0 12
-3 15 -6 8 -11 -28 -32 25 -35 91 -2 37 -5 67 -8 67 -28 -1 -39 -71 -43 -273
-1 -54 -6 -96 -11 -94 -5 2 -7 43 -5 92 1 50 2 113 1 142 -1 28 2 54 8 58 5 3
10 22 10 41 0 19 5 34 11 34 6 0 2 16 -10 36 -19 31 -21 51 -21 174 0 134 1
139 24 157 17 13 35 18 60 15 20 -2 33 -8 30 -13 -3 -5 0 -9 6 -9 6 0 13 7 16
15 4 9 18 15 38 14 17 -1 23 -3 14 -6 -35 -9 -16 -19 66 -34 56 -10 104 -13
144 -9 119 15 237 91 302 196 19 32 49 71 66 88 17 17 37 41 43 54 6 12 16 22
21 22 7 0 7 -7 1 -17z m49 -18 c0 -8 -4 -15 -10 -15 -5 0 -10 7 -10 15 0 8 5
15 10 15 6 0 10 -7 10 -15z m-270 -30 c-6 -8 -11 -24 -10 -37 5 -56 0 -76 -21
-81 -16 -4 -19 -11 -14 -26 6 -21 -1 -26 -28 -15 -13 5 -11 16 14 67 16 34 29
67 29 72 0 19 33 60 38 47 2 -7 -1 -19 -8 -27z m215 -92 c-9 -43 -25 -121 -36
-173 -27 -139 -62 -270 -71 -270 -4 0 -8 -9 -8 -19 0 -25 -20 -38 -31 -20 -12
19 -10 93 5 154 9 38 16 49 29 47 9 -2 17 2 17 8 0 6 -4 8 -10 5 -20 -13 -9
46 30 154 79 222 107 265 75 114z m135 88 c0 -6 -4 -13 -10 -16 -5 -3 -10 1
-10 9 0 9 5 16 10 16 6 0 10 -4 10 -9z m-30 -21 c21 -21 27 -50 10 -50 -5 0
-10 5 -10 11 0 6 -7 17 -15 25 -15 15 -20 34 -10 34 3 0 14 -9 25 -20z m-54
-65 c-4 -21 -13 -35 -21 -35 -8 0 -15 5 -15 11 0 5 5 7 10 4 6 -3 10 -1 10 4
0 6 -6 11 -12 11 -8 1 -6 6 5 14 9 7 17 19 17 26 0 7 3 11 6 7 4 -3 3 -22 0
-42z m97 -12 c4 -36 2 -43 -11 -43 -14 0 -14 2 -3 9 7 5 9 11 4 14 -5 4 -8 20
-5 37 6 39 8 36 15 -17z m-46 -73 c1 -22 -2 -40 -7 -40 -4 0 -15 -3 -24 -6
-27 -10 -21 51 6 70 12 9 23 16 23 16 0 0 1 -18 2 -40z m-522 0 c-27 -12 -43
-12 -25 0 8 5 22 9 30 9 10 0 8 -3 -5 -9z m-865 -22 c0 -16 -3 -19 -11 -11 -6
6 -8 16 -5 22 11 17 16 13 16 -11z m1431 -3 c5 4 9 -1 9 -9 0 -23 -27 -20 -33
3 -3 11 -2 23 2 26 3 4 7 0 9 -9 2 -9 8 -14 13 -11z m-111 6 c0 -5 -7 -11 -15
-15 -9 -3 -15 0 -15 9 0 8 7 15 15 15 8 0 15 -4 15 -9z m-737 -38 c-7 -2 -19
-2 -25 0 -7 3 -2 5 12 5 14 0 19 -2 13 -5z m837 -43 c25 13 30 13 30 -5 0 -10
-11 -15 -35 -15 -33 0 -35 2 -34 33 l1 32 10 -27 c8 -23 13 -26 28 -18z
m-1423 -75 c-6 -44 -10 -171 -9 -282 1 -112 -2 -203 -6 -203 -25 1 -33 21 -33
91 -2 144 23 457 37 481 16 25 20 -14 11 -87z m1313 65 c0 -22 -5 -30 -17 -29
-11 0 -13 3 -5 6 20 8 14 26 -8 20 -13 -3 -20 0 -20 8 0 8 10 16 23 18 12 2
23 5 25 6 1 0 2 -12 2 -29z m48 -11 c-2 -6 -8 -10 -13 -10 -5 0 -11 4 -13 10
-2 6 4 11 13 11 9 0 15 -5 13 -11z m36 -54 c-4 -8 -1 -15 5 -15 6 0 11 7 11
16 0 8 4 13 9 10 14 -9 -11 -55 -26 -49 -15 6 -18 53 -3 53 5 0 7 -7 4 -15z
m-99 -32 c-7 -41 -20 -61 -32 -49 -4 4 -1 12 7 17 12 8 10 10 -7 6 -20 -4 -23
-1 -22 21 0 15 3 21 6 15 6 -15 33 -17 33 -3 0 6 -6 10 -12 11 -10 0 15 15 31
18 2 1 0 -16 -4 -36z m50 7 c-5 -14 -2 -20 10 -20 8 0 19 -8 22 -17 11 -31 26
-33 51 -7 14 13 28 24 32 24 11 0 24 -79 15 -88 -3 -3 -11 0 -16 8 -9 13 -10
12 -5 -2 3 -10 1 -20 -4 -23 -6 -4 -10 8 -10 26 0 27 -2 30 -15 19 -12 -10
-18 -10 -30 0 -8 7 -25 10 -40 6 -27 -7 -32 3 -13 22 9 9 9 12 0 12 -13 0 -17
42 -5 53 12 12 14 7 8 -13z m96 -7 c-12 -20 -14 -14 -5 12 4 9 9 14 11 11 3
-2 0 -13 -6 -23z m-205 -78 c-3 -9 0 -15 9 -15 8 0 15 5 15 10 0 6 5 10 10 10
6 0 10 -12 10 -26 0 -22 -2 -24 -15 -14 -12 10 -18 9 -31 -4 -9 -10 -19 -15
-21 -12 -8 8 8 66 19 66 6 0 8 -7 4 -15z m71 -67 c-3 -8 -6 -5 -6 6 -1 11 2
17 5 13 3 -3 4 -12 1 -19z m80 7 c3 -9 3 -19 -1 -22 -7 -8 -56 17 -56 29 0 15
50 8 57 -7z m-1006 -120 c-8 -59 -9 -59 -10 -15 0 25 2 63 6 85 12 63 15 2 4
-70z m844 84 c-4 -6 -1 -9 7 -7 7 2 15 0 16 -4 1 -5 -1 -8 -5 -9 -5 -1 -16 -5
-25 -10 -11 -6 -19 -5 -23 1 -10 16 2 40 20 40 9 0 13 -5 10 -11z m203 -33 c2
-20 -2 -36 -8 -36 -5 0 -10 8 -11 18 0 10 -3 12 -6 5 -2 -8 -22 -13 -44 -13
-34 0 -39 3 -38 23 1 16 2 18 6 5 5 -18 23 -25 23 -9 0 5 11 12 25 15 14 4 28
13 31 21 9 23 20 10 22 -29z m27 34 c-3 -5 3 -10 13 -10 15 0 19 -5 15 -20 -4
-16 -9 -18 -24 -9 -20 10 -27 49 -8 49 5 0 7 -4 4 -10z m-145 -56 c0 -30 -3
-34 -14 -25 -7 6 -11 22 -8 36 7 38 22 30 22 -11z m194 -23 c3 -5 -5 -20 -19
-32 -28 -27 -32 -41 -10 -33 11 5 15 -1 14 -22 -1 -17 -3 -22 -6 -11 -5 20
-19 22 -26 5 -3 -7 -6 -1 -6 13 -1 29 26 89 39 89 5 0 11 -4 14 -9z m157 -1
c18 -10 19 -23 19 -210 0 -110 -2 -200 -4 -200 -1 0 -16 5 -32 10 -34 12 -69
79 -65 126 1 20 -11 57 -34 101 -31 60 -34 74 -28 108 8 35 12 39 56 50 26 7
50 15 54 18 8 9 11 9 34 -3z m-314 -72 c20 -22 73 -24 73 -3 0 8 5 15 10 15 6
0 10 -7 10 -15 0 -8 -4 -15 -10 -15 -5 0 -10 -4 -10 -10 0 -5 7 -10 15 -10 10
0 15 -10 15 -29 0 -16 3 -43 6 -60 6 -29 4 -33 -25 -44 -18 -6 -29 -17 -27
-24 4 -8 -6 -7 -29 4 -19 9 -33 18 -31 21 3 2 12 -1 22 -6 13 -7 22 -4 40 17
25 30 31 56 21 87 -8 22 -46 45 -75 43 -10 0 -12 -3 -4 -6 15 -6 6 -23 -13
-23 -10 0 -13 17 -12 68 0 37 2 54 5 37 2 -16 11 -38 19 -47z m108 62 c3 -5 1
-10 -4 -10 -6 0 -11 5 -11 10 0 6 2 10 4 10 3 0 8 -4 11 -10z m-1611 -36 c4
-13 15 -26 26 -29 11 -3 20 -10 20 -15 0 -14 -40 -37 -77 -45 l-33 -7 0 61 0
61 29 -2 c22 -2 31 -8 35 -24z m1566 -5 c0 -10 -39 -18 -45 -9 -2 4 -3 9 0 11
7 7 45 5 45 -2z m-102 -23 c2 -10 -2 -23 -9 -30 -9 -8 -10 -7 -5 8 5 14 2 17
-9 12 -9 -3 -15 0 -15 8 0 31 32 32 38 2z m-1376 -79 c1 -31 2 -57 0 -57 -1 0
-7 12 -13 28 -10 25 -12 26 -19 7 -7 -17 -9 -17 -9 -2 -1 19 -3 20 -25 11 -9
-3 -16 -12 -16 -20 0 -8 6 -11 15 -8 8 4 15 1 15 -5 0 -6 -12 -11 -26 -11 -14
0 -23 4 -19 9 3 5 1 12 -5 16 -5 3 -10 -2 -10 -12 -1 -17 -2 -16 -12 2 -11 19
-11 19 -19 0 -6 -19 -7 -19 -14 -2 -8 20 10 47 32 47 24 0 90 38 97 56 11 29
24 2 28 -59z m583 -124 c-4 -51 -10 -95 -13 -97 -11 -6 -15 151 -6 224 l7 65
9 -50 c6 -27 7 -92 3 -142z m809 95 c7 -31 2 -33 -37 -15 -23 10 -39 47 -21
47 4 0 13 -8 20 -17 12 -17 13 -16 14 7 0 29 15 16 24 -22z m86 12 c0 -19 -17
-36 -26 -27 -3 2 -2 16 2 31 7 28 24 26 24 -4z m80 5 c0 -17 -4 -23 -15 -19
-11 5 -12 10 -2 25 15 25 17 24 17 -6z m-130 -26 c0 -6 -4 -7 -10 -4 -5 3 -10
11 -10 16 0 6 5 7 10 4 6 -3 10 -11 10 -16z m-1725 -16 c34 -16 35 -18 35 -76
0 -52 -2 -58 -15 -47 -8 7 -15 19 -15 27 0 8 -4 11 -10 8 -17 -11 -11 7 8 21
15 12 13 13 -12 4 -26 -10 -28 -9 -15 6 12 15 11 16 -10 9 -16 -5 -21 -4 -17
4 4 6 0 11 -11 12 -10 0 -13 3 -5 6 19 7 14 23 -5 16 -15 -5 -14 -3 2 10 25
21 27 21 70 0z m1875 -18 c-7 -8 -17 -15 -23 -15 -5 0 -2 9 8 20 21 23 35 19
15 -5z m-965 -86 c-4 -65 -9 -89 -18 -78 -8 9 6 149 14 149 4 0 6 -32 4 -71z
m780 61 c-3 -5 -10 -10 -16 -10 -5 0 -9 5 -9 10 0 6 7 10 16 10 8 0 12 -4 9
-10z m238 -13 c4 3 7 1 7 -5 0 -16 -31 -43 -44 -39 -6 2 -13 12 -15 23 -3 15
-1 16 12 6 13 -11 15 -10 9 10 -5 20 -3 21 10 11 8 -7 18 -10 21 -6z m-78 -7
c3 -5 1 -10 -5 -10 -6 0 -10 -8 -8 -17 2 -10 -4 -19 -14 -21 -11 -2 -18 3 -18
13 0 9 5 13 10 10 6 -3 10 3 10 14 0 22 14 28 25 11z m-1045 -40 l0 -41 -30
16 c-36 19 -39 28 -5 15 23 -9 25 -7 25 20 0 17 2 30 5 30 3 0 5 -18 5 -40z
m135 -40 c-3 -11 -1 -29 5 -41 10 -17 9 -20 -2 -17 -8 3 -14 24 -16 59 -2 42
0 50 9 36 5 -9 7 -26 4 -37z m-408 14 c-3 -3 -12 -4 -19 -1 -8 3 -5 6 6 6 11
1 17 -2 13 -5z m1412 -8 c23 -15 10 -25 -19 -14 -17 5 -37 7 -45 4 -9 -3 -15
0 -15 8 0 14 57 15 79 2z m-1994 -64 c-9 -9 -35 8 -35 24 0 16 2 16 20 -1 11
-10 18 -20 15 -23z m1990 19 c6 -11 -21 -41 -38 -41 -8 0 -7 4 1 12 17 17 15
29 -3 22 -8 -4 -15 -1 -15 5 0 13 46 15 55 2z m-1958 -33 c-3 -8 -6 -5 -6 6
-1 11 2 17 5 13 3 -3 4 -12 1 -19z m1925 -48 c12 0 30 7 40 17 17 15 18 15 18
-10 0 -14 8 -31 18 -36 14 -9 13 -10 -10 -11 -19 0 -28 5 -28 16 0 11 -6 13
-20 9 -25 -8 -80 21 -80 42 0 14 3 13 20 -5 12 -12 30 -22 42 -22z m128 3 c0
-14 -26 -18 -34 -4 -7 11 0 18 19 18 8 0 15 -6 15 -14z m-2052 -25 c7 -10 18
-18 24 -18 6 0 6 6 -2 15 -14 17 -8 31 9 21 6 -4 10 -34 10 -67 -1 -73 10 -89
64 -86 24 1 42 -3 44 -10 3 -9 -24 -13 -104 -16 l-108 -3 127 -2 c70 -1 129
-6 132 -10 3 -5 -50 -9 -116 -10 -67 -1 -124 -4 -127 -8 -3 -3 56 -4 132 -3
l139 2 46 -47 47 -47 -167 3 c-91 2 -161 0 -155 -4 7 -4 83 -8 170 -8 132 0
164 -3 188 -17 64 -38 42 -43 -197 -43 -163 0 -223 3 -218 11 4 7 23 9 48 7
22 -3 55 -2 71 3 28 7 28 8 -10 7 -109 -2 -115 0 -115 32 l0 30 83 2 c51 1 63
3 32 5 -27 2 -65 5 -82 8 -33 6 -33 7 -33 60 0 58 1 59 58 57 13 -1 20 3 16 9
-4 6 -20 8 -40 4 -30 -5 -34 -3 -34 15 0 22 10 24 58 11 17 -5 32 -6 32 -1 0
5 -20 12 -45 16 -56 8 -60 28 -5 22 22 -2 40 0 40 4 0 5 -18 8 -40 8 l-40 0 0
40 c0 39 1 40 28 34 15 -4 33 -16 40 -26z m243 -85 c21 -6 35 -43 25 -68 -6
-17 2 -45 14 -45 5 0 6 10 2 22 -3 14 -2 19 6 14 9 -5 12 7 14 41 1 40 2 42 5
13 3 -19 9 -39 14 -44 5 -6 9 -32 9 -58 0 -26 4 -48 10 -48 5 0 7 14 4 33 -4
22 -3 28 4 18 8 -11 11 -9 17 8 l7 22 24 -23 c13 -13 31 -36 38 -53 17 -39 39
-88 44 -97 6 -12 -56 -9 -63 3 -4 6 -25 24 -48 40 -22 16 -82 70 -134 119 -70
68 -93 96 -93 116 0 14 4 23 10 19 6 -3 10 -17 10 -31 0 -13 5 -24 10 -24 6 0
10 14 10 31 0 27 2 30 15 19 13 -11 15 -8 17 16 1 27 2 26 5 -5 3 -22 11 -35
24 -38z m1794 42 c-16 -7 -33 -11 -37 -8 -5 2 -8 -1 -8 -7 0 -6 -4 -8 -10 -5
-27 17 -1 32 55 33 l30 0 -30 -13z m-5 -155 c0 -7 -14 -8 -37 -4 -52 9 -54 14
-5 14 23 0 42 -5 42 -10z m-1491 -102 c0 -7 -4 -22 -9 -33 -7 -17 -9 -15 -9
13 -1 17 4 32 9 32 6 0 10 -6 9 -12z m-49 -8 c0 -5 -2 -10 -4 -10 -3 0 -8 5
-11 10 -3 6 -1 10 4 10 6 0 11 -4 11 -10z m16 -47 c-11 -11 -19 6 -11 24 8 17
8 17 12 0 3 -10 2 -21 -1 -24z m1422 -13 l122 0 0 -137 0 -138 -563 0 c-309 0
-580 2 -601 3 -35 2 -38 4 -22 15 10 7 18 28 19 50 1 22 7 37 15 37 16 0 15
25 -2 39 -11 10 -17 8 -25 -6 -9 -17 -10 -17 -17 1 -5 12 -3 21 4 24 20 6 13
32 -8 32 -31 0 -36 -29 -12 -71 28 -48 28 -78 -1 -106 -24 -22 -25 -22 -465
-23 l-442 -1 0 138 0 138 293 -1 c867 -4 1323 -2 1412 5 55 5 116 7 135 5 19
-2 90 -4 158 -4z"/>
<path d="M190 3253 c0 -7 -9 -13 -20 -13 -23 0 -27 -15 -6 -23 8 -3 22 -20 31
-36 13 -27 13 -30 0 -25 -8 4 -15 2 -15 -4 0 -19 30 -21 60 -4 35 20 42 58 10
49 -11 -3 -20 0 -20 6 -1 17 -40 65 -40 50z m30 -43 c0 -5 -2 -10 -4 -10 -3 0
-8 5 -11 10 -3 6 -1 10 4 10 6 0 11 -4 11 -10z m30 -34 c0 -3 -4 -8 -10 -11
-5 -3 -10 -1 -10 4 0 6 5 11 10 11 6 0 10 -2 10 -4z"/>
<path d="M120 3221 c0 -6 5 -13 10 -16 6 -3 10 1 10 9 0 9 -4 16 -10 16 -5 0
-10 -4 -10 -9z"/>
<path d="M1604 3762 c-6 -4 -14 -15 -17 -26 -4 -11 -13 -16 -22 -12 -9 3 -15
0 -15 -10 0 -11 7 -13 28 -8 22 5 25 4 15 -7 -29 -30 -9 -117 33 -139 35 -19
105 -6 131 24 23 27 45 37 23 11 -10 -12 -10 -15 1 -15 22 0 43 17 31 24 -6 3
-13 25 -17 49 -4 23 -11 49 -16 58 -12 24 -64 42 -106 37 -24 -3 -42 0 -48 8
-5 8 -15 10 -21 6z m126 -61 c0 -5 -13 -14 -30 -20 -20 -7 -30 -17 -30 -30 0
-12 -4 -21 -10 -21 -13 0 -13 27 0 35 6 4 8 11 5 16 -4 5 5 9 19 9 14 0 28 5
31 10 8 12 15 13 15 1z m-106 -51 c-5 -23 -3 -30 9 -30 8 0 22 -3 30 -6 9 -3
16 3 20 15 6 24 25 28 33 7 3 -7 -6 -25 -19 -40 -22 -23 -27 -24 -55 -14 -34
13 -45 38 -32 74 13 33 21 30 14 -6z m133 4 c-3 -3 -12 -4 -19 -1 -8 3 -5 6 6
6 11 1 17 -2 13 -5z"/>
<path d="M1468 3746 c-10 -7 -14 -17 -10 -21 4 -4 -4 -4 -18 0 -14 4 -43 10
-66 12 -38 4 -43 2 -73 -36 -25 -31 -31 -48 -30 -78 1 -21 7 -44 12 -51 13
-17 1 -28 -17 -13 -11 9 -15 8 -20 -5 -3 -9 -4 -19 -1 -24 8 -13 59 2 77 24
16 20 17 20 18 2 0 -15 5 -17 31 -12 17 3 37 6 45 6 26 0 56 59 57 115 1 33 7
57 15 60 13 5 17 35 5 35 -5 0 -16 -7 -25 -14z m-67 -43 c15 -18 16 -18 -36 3
-10 4 -15 0 -15 -10 0 -9 8 -16 19 -16 11 0 23 -5 26 -11 4 -6 14 -8 22 -5 11
5 14 -1 11 -26 -2 -27 -9 -34 -36 -42 -42 -12 -49 -3 -23 25 16 17 18 25 9 31
-21 13 -28 9 -28 -12 0 -12 -7 -20 -16 -20 -9 0 -14 6 -11 13 2 6 0 22 -4 34
-15 41 54 71 82 36z"/>
<path d="M1817 3673 c-4 -3 -7 -11 -7 -17 0 -6 5 -5 12 2 6 6 9 14 7 17 -3 3
-9 2 -12 -2z"/>
<path d="M1817 3573 c-4 -3 -7 -11 -7 -17 0 -6 5 -5 12 2 6 6 9 14 7 17 -3 3
-9 2 -12 -2z"/>
<path d="M1810 3509 c0 -5 5 -7 10 -4 6 3 10 8 10 11 0 2 -4 4 -10 4 -5 0 -10
-5 -10 -11z"/>
<path d="M1805 3450 c-3 -5 -1 -10 4 -10 6 0 11 5 11 10 0 6 -2 10 -4 10 -3 0
-8 -4 -11 -10z"/>
<path d="M1242 3430 c0 -14 2 -19 5 -12 2 6 2 18 0 25 -3 6 -5 1 -5 -13z"/>
<path d="M1800 3374 c0 -8 5 -12 10 -9 6 3 10 10 10 16 0 5 -4 9 -10 9 -5 0
-10 -7 -10 -16z"/>
<path d="M1241 3354 c0 -11 3 -14 6 -6 3 7 2 16 -1 19 -3 4 -6 -2 -5 -13z"/>
<path d="M1800 3310 c0 -5 5 -10 10 -10 6 0 10 5 10 10 0 6 -4 10 -10 10 -5 0
-10 -4 -10 -10z"/>
<path d="M1230 3284 c0 -8 5 -12 10 -9 6 3 10 10 10 16 0 5 -4 9 -10 9 -5 0
-10 -7 -10 -16z"/>
<path d="M1810 3230 c0 -5 5 -10 10 -10 6 0 10 5 10 10 0 6 -4 10 -10 10 -5 0
-10 -4 -10 -10z"/>
<path d="M1495 3168 c-11 -7 -33 -13 -50 -15 -16 -2 -35 -10 -41 -18 -6 -8
-18 -15 -26 -15 -9 0 -21 -6 -28 -14 -15 -19 -38 -10 -42 17 -3 20 -4 20 -20
3 -25 -24 -24 -59 1 -51 10 3 24 -1 31 -10 7 -8 24 -15 37 -15 22 0 24 -2 13
-15 -15 -19 1 -85 25 -105 12 -10 13 -16 4 -27 -18 -20 14 -50 63 -58 26 -5
36 -10 28 -15 -16 -10 -4 -30 17 -30 11 0 14 8 11 30 l-5 30 53 0 c92 0 143
68 131 172 -13 106 -124 181 -202 136z m111 -41 c19 -17 29 -37 35 -77 5 -29
14 -57 21 -62 10 -6 10 -8 -1 -8 -7 0 -22 -11 -32 -24 -24 -30 -67 -46 -97
-35 -30 11 -28 29 4 29 28 0 64 16 64 29 0 7 -43 31 -55 31 -3 0 -5 -9 -5 -21
0 -16 -5 -19 -20 -15 -11 3 -29 9 -40 12 -15 4 -20 1 -20 -13 0 -15 -2 -16
-10 -3 -5 8 -10 23 -10 33 0 14 5 17 21 12 15 -5 25 -1 35 14 9 12 22 21 30
21 17 0 19 37 2 43 -26 8 -48 -5 -48 -29 0 -27 -21 -32 -40 -9 -10 12 -6 22
26 54 48 48 97 55 140 18z m-189 -113 c-3 -3 -12 -4 -19 -1 -8 3 -5 6 6 6 11
1 17 -2 13 -5z"/>
<path d="M1811 3164 c0 -11 3 -14 6 -6 3 7 2 16 -1 19 -3 4 -6 -2 -5 -13z"/>
<path d="M1800 3090 c0 -5 5 -10 10 -10 6 0 10 5 10 10 0 6 -4 10 -10 10 -5 0
-10 -4 -10 -10z"/>
<path d="M1220 3014 c0 -8 5 -12 10 -9 6 3 10 10 10 16 0 5 -4 9 -10 9 -5 0
-10 -7 -10 -16z"/>
<path d="M1795 2990 c-3 -5 -1 -10 4 -10 6 0 11 5 11 10 0 6 -2 10 -4 10 -3 0
-8 -4 -11 -10z"/>
<path d="M1800 2945 c0 -8 5 -15 10 -15 6 0 10 7 10 15 0 8 -4 15 -10 15 -5 0
-10 -7 -10 -15z"/>
<path d="M1807 2894 c-4 -4 -7 -14 -7 -23 0 -11 3 -12 11 -4 6 6 10 16 7 23
-2 6 -7 8 -11 4z"/>
<path d="M1810 2815 c0 -8 2 -15 4 -15 2 0 6 7 10 15 3 8 1 15 -4 15 -6 0 -10
-7 -10 -15z"/>
<path d="M450 2074 c0 -8 5 -12 10 -9 6 3 10 10 10 16 0 5 -4 9 -10 9 -5 0
-10 -7 -10 -16z"/>
<path d="M265 1840 c-3 -5 1 -10 9 -10 9 0 16 5 16 10 0 6 -4 10 -9 10 -6 0
-13 -4 -16 -10z"/>
<path d="M260 1770 c0 -5 5 -10 10 -10 6 0 10 5 10 10 0 6 -4 10 -10 10 -5 0
-10 -4 -10 -10z"/>
<path d="M255 1710 c4 -6 11 -8 16 -5 14 9 11 15 -7 15 -8 0 -12 -5 -9 -10z"/>
<path d="M254 1644 c3 -9 6 -18 6 -20 0 -2 5 -4 10 -4 6 0 10 9 10 20 0 12 -7
20 -16 20 -11 0 -14 -5 -10 -16z"/>
<path d="M236 1534 c-4 -10 -1 -21 6 -26 11 -6 10 -10 -1 -17 -10 -6 -10 -10
-1 -16 16 -10 19 -4 22 34 3 36 -15 53 -26 25z"/>
<path d="M240 1400 c0 -5 5 -10 10 -10 6 0 10 5 10 10 0 6 -4 10 -10 10 -5 0
-10 -4 -10 -10z"/>
<path d="M230 1320 c0 -5 5 -10 10 -10 6 0 10 5 10 10 0 6 -4 10 -10 10 -5 0
-10 -4 -10 -10z"/>
<path d="M220 1290 c0 -5 7 -10 16 -10 8 0 12 5 9 10 -3 6 -10 10 -16 10 -5 0
-9 -4 -9 -10z"/>
<path d="M220 1210 c0 -5 5 -10 10 -10 6 0 10 5 10 10 0 6 -4 10 -10 10 -5 0
-10 -4 -10 -10z"/>
<path d="M225 1170 c3 -5 8 -10 11 -10 2 0 4 5 4 10 0 6 -5 10 -11 10 -5 0 -7
-4 -4 -10z"/>
<path d="M210 1146 c0 -2 7 -6 15 -10 8 -3 15 -1 15 4 0 6 -7 10 -15 10 -8 0
-15 -2 -15 -4z"/>
<path d="M210 1100 c0 -5 7 -10 15 -10 8 0 15 5 15 10 0 6 -7 10 -15 10 -8 0
-15 -4 -15 -10z"/>
<path d="M210 1070 c0 -5 7 -10 15 -10 8 0 15 5 15 10 0 6 -7 10 -15 10 -8 0
-15 -4 -15 -10z"/>
<path d="M210 849 c0 -5 5 -7 10 -4 6 3 10 8 10 11 0 2 -4 4 -10 4 -5 0 -10
-5 -10 -11z"/>
<path d="M210 819 c0 -5 5 -7 10 -4 6 3 10 8 10 11 0 2 -4 4 -10 4 -5 0 -10
-5 -10 -11z"/>
<path d="M188 630 c5 -37 26 -34 30 3 3 21 -1 27 -16 27 -15 0 -18 -6 -14 -30z"/>
<path d="M1035 3050 c3 -5 8 -10 11 -10 2 0 4 5 4 10 0 6 -5 10 -11 10 -5 0
-7 -4 -4 -10z"/>
<path d="M1011 3034 c0 -11 3 -14 6 -6 3 7 2 16 -1 19 -3 4 -6 -2 -5 -13z"/>
<path d="M1150 3039 c0 -5 5 -7 10 -4 6 3 10 8 10 11 0 2 -4 4 -10 4 -5 0 -10
-5 -10 -11z"/>
<path d="M1040 3010 c0 -5 5 -10 11 -10 5 0 7 5 4 10 -3 6 -8 10 -11 10 -2 0
-4 -4 -4 -10z"/>
<path d="M1075 3010 c3 -5 8 -10 11 -10 2 0 4 5 4 10 0 6 -5 10 -11 10 -5 0
-7 -4 -4 -10z"/>
<path d="M1145 3010 c3 -5 8 -10 11 -10 2 0 4 5 4 10 0 6 -5 10 -11 10 -5 0
-7 -4 -4 -10z"/>
<path d="M1005 2990 c-3 -5 -1 -10 4 -10 6 0 11 5 11 10 0 6 -2 10 -4 10 -3 0
-8 -4 -11 -10z"/>
<path d="M1070 2980 c0 -5 5 -10 10 -10 6 0 10 5 10 10 0 6 -4 10 -10 10 -5 0
-10 -4 -10 -10z"/>
<path d="M1115 2980 c-3 -5 -1 -10 4 -10 6 0 11 5 11 10 0 6 -2 10 -4 10 -3 0
-8 -4 -11 -10z"/>
<path d="M1150 2970 c0 -5 5 -10 10 -10 6 0 10 5 10 10 0 6 -4 10 -10 10 -5 0
-10 -4 -10 -10z"/>
<path d="M1005 2950 c-3 -5 -1 -10 4 -10 6 0 11 5 11 10 0 6 -2 10 -4 10 -3 0
-8 -4 -11 -10z"/>
<path d="M1170 2939 c0 -5 5 -7 10 -4 6 3 10 8 10 11 0 2 -4 4 -10 4 -5 0 -10
-5 -10 -11z"/>
<path d="M1080 2930 c0 -5 5 -10 10 -10 6 0 10 5 10 10 0 6 -4 10 -10 10 -5 0
-10 -4 -10 -10z"/>
<path d="M1020 2900 c0 -5 5 -10 10 -10 6 0 10 5 10 10 0 6 -4 10 -10 10 -5 0
-10 -4 -10 -10z"/>
<path d="M747 2454 c-4 -4 -7 -14 -7 -23 0 -11 3 -12 11 -4 6 6 10 16 7 23 -2
6 -7 8 -11 4z"/>
<path d="M1213 2060 c-7 -29 -11 -55 -9 -58 10 -10 27 42 24 75 -3 35 -3 35
-15 -17z"/>
<path d="M983 1852 c-36 -6 -27 -20 12 -19 19 1 35 4 35 8 0 10 -22 15 -47 11z"/>
<path d="M700 1820 c0 -5 7 -10 15 -10 8 0 15 5 15 10 0 6 -7 10 -15 10 -8 0
-15 -4 -15 -10z"/>
<path d="M855 1780 c3 -5 15 -10 26 -10 33 0 92 -29 127 -62 44 -43 41 -22 -4
25 -35 35 -84 57 -132 57 -13 0 -20 -4 -17 -10z"/>
<path d="M1320 1742 c0 -14 39 -46 47 -39 3 4 -2 16 -12 27 -19 21 -35 26 -35
12z"/>
<path d="M847 1683 c-4 -3 -2 -14 4 -24 14 -28 -4 -53 -38 -54 -18 0 -27 -5
-25 -13 1 -7 -4 -23 -13 -35 -19 -27 -19 -47 -1 -47 21 0 27 -52 8 -66 -12 -8
-13 -21 -8 -55 4 -24 8 -147 9 -273 2 -187 5 -230 16 -234 11 -4 12 1 6 19
-15 49 -11 335 9 484 17 133 15 130 62 158 47 28 48 35 23 104 -8 23 -42 46
-52 36z m39 -108 c-3 -8 -14 -19 -25 -24 -19 -11 -20 -10 -6 16 8 16 17 37 21
48 7 19 8 19 12 -3 2 -13 1 -30 -2 -37z m-66 -19 c0 -2 -7 -7 -16 -10 -8 -3
-12 -2 -9 4 6 10 25 14 25 6z m-23 -153 c-3 -10 -5 -4 -5 12 0 17 2 24 5 18 2
-7 2 -21 0 -30z"/>
<path d="M697 1613 c-2 -10 -5 -61 -6 -113 -2 -105 -12 -174 -43 -298 -14 -59
-17 -87 -10 -94 14 -14 42 -3 42 18 0 11 -5 14 -16 10 -14 -5 -16 -1 -11 21 3
16 15 71 26 123 20 91 40 350 28 350 -3 0 -8 -8 -10 -17z"/>
<path d="M694 1213 c7 -49 30 -186 48 -280 5 -29 14 -53 20 -53 6 0 8 10 4 23
-13 53 -39 227 -43 290 -4 52 -8 67 -20 67 -12 0 -14 -9 -9 -47z"/>
<path d="M660 2200 c0 -5 4 -10 9 -10 5 0 22 -5 38 -12 15 -6 32 -12 38 -12 5
-1 12 -12 16 -26 6 -23 7 -23 14 -6 11 27 -44 76 -85 76 -17 0 -30 -4 -30 -10z"/>
<path d="M1370 1540 c-9 -6 -10 -10 -3 -10 6 0 15 5 18 10 8 12 4 12 -15 0z"/>
<path d="M1308 1533 c7 -3 16 -2 19 1 4 3 -2 6 -13 5 -11 0 -14 -3 -6 -6z"/>
<path d="M786 2051 c-4 -6 -13 -8 -21 -5 -7 3 -18 -3 -24 -15 -16 -29 -14 -31
19 -15 31 16 46 32 37 40 -3 3 -8 1 -11 -5z"/>
<path d="M645 2010 c-3 -6 5 -11 19 -11 14 -1 31 -2 38 -3 6 -1 13 4 15 10 4
13 -64 17 -72 4z"/>
<path d="M661 1981 c-8 -6 -9 -11 -3 -15 6 -3 14 -1 17 5 9 14 2 20 -14 10z"/>
<path d="M620 1969 c0 -5 5 -7 10 -4 6 3 10 8 10 11 0 2 -4 4 -10 4 -5 0 -10
-5 -10 -11z"/>
<path d="M690 1970 c0 -5 4 -10 9 -10 6 0 13 5 16 10 3 6 -1 10 -9 10 -9 0
-16 -4 -16 -10z"/>
<path d="M1690 1749 c0 -5 5 -7 10 -4 6 3 10 8 10 11 0 2 -4 4 -10 4 -5 0 -10
-5 -10 -11z"/>
<path d="M1666 1694 c-9 -24 -2 -26 12 -4 7 11 8 20 3 20 -5 0 -12 -7 -15 -16z"/>
<path d="M1635 1650 c-3 -5 -2 -10 4 -10 5 0 13 5 16 10 3 6 2 10 -4 10 -5 0
-13 -4 -16 -10z"/>
<path d="M1581 1576 c-26 -28 -18 -35 13 -11 10 7 16 19 14 25 -2 6 -14 0 -27
-14z"/>
<path d="M1475 1522 c-3 -3 -5 -12 -5 -21 0 -9 3 -12 8 -6 8 11 32 18 32 10 0
-3 -18 -30 -40 -59 -60 -79 -82 -152 -81 -260 1 -63 -3 -94 -13 -105 -22 -26
-25 -56 -11 -113 17 -72 31 -104 54 -127 10 -10 21 -27 23 -38 2 -11 19 -23
46 -32 29 -9 46 -21 52 -37 10 -24 30 -33 30 -13 0 19 -58 69 -79 69 -22 0
-46 40 -42 70 1 12 0 13 -7 1 -14 -20 -37 20 -57 101 -12 51 -14 72 -5 87 6
12 15 21 21 21 6 0 8 31 5 83 -4 81 8 173 25 192 6 5 9 4 9 -4 0 -7 7 -19 15
-27 13 -14 15 -13 15 10 0 14 -8 29 -17 35 -17 9 -17 11 1 43 11 18 22 35 26
38 3 3 16 18 28 34 23 30 29 52 12 41 -5 -3 -10 -2 -10 3 0 9 -27 12 -35 4z"/>
<path d="M1000 1511 c0 -11 26 -22 34 -14 3 3 3 10 0 14 -7 12 -34 11 -34 0z"/>
<path d="M1580 1507 c0 -8 -11 -24 -25 -37 -14 -13 -25 -28 -25 -34 0 -6 16 6
35 26 35 36 44 58 25 58 -5 0 -10 -6 -10 -13z"/>
<path d="M950 1485 c0 -8 2 -15 4 -15 2 0 6 7 10 15 3 8 1 15 -4 15 -6 0 -10
-7 -10 -15z"/>
<path d="M1440 1485 c0 -8 2 -15 4 -15 2 0 6 7 10 15 3 8 1 15 -4 15 -6 0 -10
-7 -10 -15z"/>
<path d="M1045 1408 c3 -47 1 -88 -3 -90 -9 -4 -3 -168 7 -168 11 0 12 283 1
315 -8 23 -9 11 -5 -57z"/>
<path d="M1605 1479 c-4 -6 -5 -12 -2 -15 2 -3 7 2 10 11 7 17 1 20 -8 4z"/>
<path d="M975 1470 c3 -5 8 -10 11 -10 2 0 4 5 4 10 0 6 -5 10 -11 10 -5 0 -7
-4 -4 -10z"/>
<path d="M1090 1472 c0 -15 28 -23 36 -9 4 7 4 9 -1 5 -4 -4 -14 -3 -22 3 -8
7 -13 8 -13 1z"/>
<path d="M1407 1473 c-4 -3 -7 -11 -7 -17 0 -6 5 -5 12 2 6 6 9 14 7 17 -3 3
-9 2 -12 -2z"/>
<path d="M1375 1460 c-3 -5 -1 -10 4 -10 6 0 11 5 11 10 0 6 -2 10 -4 10 -3 0
-8 -4 -11 -10z"/>
<path d="M995 1450 c-3 -5 -1 -10 4 -10 6 0 11 5 11 10 0 6 -2 10 -4 10 -3 0
-8 -4 -11 -10z"/>
<path d="M1285 1450 c-3 -5 -1 -10 4 -10 6 0 11 5 11 10 0 6 -2 10 -4 10 -3 0
-8 -4 -11 -10z"/>
<path d="M966 1425 c-3 -8 -1 -15 4 -15 6 0 10 7 10 15 0 8 -2 15 -4 15 -2 0
-6 -7 -10 -15z"/>
<path d="M1140 1420 c0 -5 4 -10 9 -10 6 0 13 5 16 10 3 6 -1 10 -9 10 -9 0
-16 -4 -16 -10z"/>
<path d="M1490 1419 c0 -8 9 -25 20 -39 19 -24 20 -24 20 -4 0 11 -9 29 -20
39 -15 14 -20 15 -20 4z"/>
<path d="M1092 1395 c0 -16 2 -22 5 -12 2 9 2 23 0 30 -3 6 -5 -1 -5 -18z"/>
<path d="M1181 1404 c0 -11 3 -14 6 -6 3 7 2 16 -1 19 -3 4 -6 -2 -5 -13z"/>
<path d="M1212 1390 c0 -14 2 -19 5 -12 2 6 2 18 0 25 -3 6 -5 1 -5 -13z"/>
<path d="M1110 1381 c0 -12 4 -21 9 -21 5 0 12 -8 14 -17 3 -13 5 -12 6 5 0
13 -6 30 -14 38 -13 14 -15 13 -15 -5z"/>
<path d="M1251 1374 c0 -11 3 -14 6 -6 3 7 2 16 -1 19 -3 4 -6 -2 -5 -13z"/>
<path d="M1276 1375 c4 -8 8 -15 10 -15 2 0 4 7 4 15 0 8 -4 15 -10 15 -5 0
-7 -7 -4 -15z"/>
<path d="M1306 1375 c4 -8 10 -15 15 -15 4 0 6 7 3 15 -4 8 -10 15 -15 15 -4
0 -6 -7 -3 -15z"/>
<path d="M1576 1375 c-3 -8 -1 -15 4 -15 6 0 10 7 10 15 0 8 -2 15 -4 15 -2 0
-6 -7 -10 -15z"/>
<path d="M1345 1370 c3 -5 8 -10 11 -10 2 0 4 5 4 10 0 6 -5 10 -11 10 -5 0
-7 -4 -4 -10z"/>
<path d="M1551 1364 c0 -11 3 -14 6 -6 3 7 2 16 -1 19 -3 4 -6 -2 -5 -13z"/>
<path d="M950 1353 c0 -10 4 -24 9 -31 6 -11 11 -10 25 3 9 9 16 22 16 28 0 8
-3 8 -9 -1 -7 -11 -9 -11 -14 2 -8 21 -27 20 -27 -1z"/>
<path d="M1162 1325 c0 -16 2 -22 5 -12 2 9 2 23 0 30 -3 6 -5 -1 -5 -18z"/>
<path d="M1481 1322 c-1 -13 10 -34 24 -48 29 -29 35 -9 7 22 -11 11 -22 26
-25 34 -3 10 -6 7 -6 -8z"/>
<path d="M1081 1314 c0 -11 3 -14 6 -6 3 7 2 16 -1 19 -3 4 -6 -2 -5 -13z"/>
<path d="M1180 1310 c0 -11 2 -20 4 -20 2 0 6 9 9 20 3 11 1 20 -4 20 -5 0 -9
-9 -9 -20z"/>
<path d="M1542 1305 c0 -16 2 -22 5 -12 2 9 2 23 0 30 -3 6 -5 -1 -5 -18z"/>
<path d="M1567 1316 c-4 -10 -5 -21 -2 -24 9 -9 17 6 13 25 -3 17 -4 17 -11
-1z"/>
<path d="M1210 1311 c0 -6 5 -13 10 -16 6 -3 10 1 10 9 0 9 -4 16 -10 16 -5 0
-10 -4 -10 -9z"/>
<path d="M1250 1305 c0 -8 4 -15 10 -15 5 0 7 7 4 15 -4 8 -8 15 -10 15 -2 0
-4 -7 -4 -15z"/>
<path d="M1280 1305 c0 -8 4 -15 10 -15 5 0 7 7 4 15 -4 8 -8 15 -10 15 -2 0
-4 -7 -4 -15z"/>
<path d="M1310 1311 c0 -5 5 -13 10 -16 6 -3 10 -2 10 4 0 5 -4 13 -10 16 -5
3 -10 2 -10 -4z"/>
<path d="M1521 1304 c0 -11 3 -14 6 -6 3 7 2 16 -1 19 -3 4 -6 -2 -5 -13z"/>
<path d="M1016 1281 c-4 -7 -5 -15 -2 -18 9 -9 19 4 14 18 -4 11 -6 11 -12 0z"/>
<path d="M1102 1270 c0 -14 2 -19 5 -12 2 6 2 18 0 25 -3 6 -5 1 -5 -13z"/>
<path d="M960 1263 c0 -14 2 -15 9 -4 7 11 10 11 14 -3 5 -15 5 -15 3 0 -2 24
-26 30 -26 7z"/>
<path d="M1302 1253 c-6 -2 -10 -9 -7 -13 7 -11 35 -2 35 11 0 10 -8 10 -28 2z"/>
<path d="M1360 1249 c0 -5 5 -7 10 -4 6 3 10 8 10 11 0 2 -4 4 -10 4 -5 0 -10
-5 -10 -11z"/>
<path d="M1266 1241 c-5 -8 -18 -10 -33 -6 -21 5 -24 3 -21 -17 2 -13 10 -23
18 -23 21 0 53 31 48 46 -4 11 -6 11 -12 0z"/>
<path d="M1460 1230 c0 -19 3 -21 12 -12 9 9 9 15 0 24 -9 9 -12 7 -12 -12z"/>
<path d="M980 1210 c0 -11 7 -20 15 -20 8 0 15 9 15 20 0 11 -7 20 -15 20 -8
0 -15 -9 -15 -20z"/>
<path d="M1152 1210 c0 -14 2 -19 5 -12 2 6 2 18 0 25 -3 6 -5 1 -5 -13z"/>
<path d="M1546 1217 c3 -10 9 -15 12 -12 3 3 0 11 -7 18 -10 9 -11 8 -5 -6z"/>
<path d="M1361 1198 c-1 -11 -6 -15 -16 -12 -10 4 -15 0 -15 -12 0 -16 -2 -17
-10 -4 -7 11 -10 8 -9 -15 0 -16 3 -24 6 -17 2 6 9 10 14 6 5 -3 9 2 9 11 0 9
5 13 10 10 12 -7 24 19 17 37 -4 8 -6 7 -6 -4z"/>
<path d="M1575 1199 c-4 -6 -5 -12 -2 -15 2 -3 7 2 10 11 7 17 1 20 -8 4z"/>
<path d="M1590 1179 c0 -5 5 -7 10 -4 6 3 10 8 10 11 0 2 -4 4 -10 4 -5 0 -10
-5 -10 -11z"/>
<path d="M1426 1165 c-3 -8 -1 -15 4 -15 6 0 10 7 10 15 0 8 -2 15 -4 15 -2 0
-6 -7 -10 -15z"/>
<path d="M1452 1160 c0 -14 2 -19 5 -12 2 6 2 18 0 25 -3 6 -5 1 -5 -13z"/>
<path d="M1471 1164 c0 -11 3 -14 6 -6 3 7 2 16 -1 19 -3 4 -6 -2 -5 -13z"/>
<path d="M1022 1155 c0 -27 15 -74 18 -55 1 8 5 2 9 -14 8 -39 26 -43 27 -7 1
21 -6 33 -22 42 -13 6 -25 21 -27 33 -4 19 -4 19 -5 1z"/>
<path d="M1135 1140 c-4 -17 -5 -34 -2 -36 2 -3 7 10 11 27 3 18 4 34 2 36 -2
3 -7 -10 -11 -27z"/>
<path d="M1160 1150 c0 -5 5 -10 10 -10 6 0 10 5 10 10 0 6 -4 10 -10 10 -5 0
-10 -4 -10 -10z"/>
<path d="M1287 1147 c-11 -29 -9 -43 4 -30 6 6 9 19 7 29 -3 18 -4 18 -11 1z"/>
<path d="M1530 1146 c0 -8 7 -16 15 -20 9 -3 15 0 15 8 0 8 -7 16 -15 20 -9 3
-15 0 -15 -8z"/>
<path d="M1571 1138 c-1 -11 6 -16 19 -15 11 1 20 5 20 10 0 5 -6 7 -14 4 -8
-3 -17 -1 -20 6 -2 7 -5 5 -5 -5z"/>
<path d="M1250 1120 c0 -11 2 -20 4 -20 2 0 6 9 9 20 3 11 1 20 -4 20 -5 0 -9
-9 -9 -20z"/>
<path d="M1190 1110 c0 -11 2 -20 4 -20 2 0 6 9 9 20 3 11 1 20 -4 20 -5 0 -9
-9 -9 -20z"/>
<path d="M1220 1115 c0 -8 2 -15 4 -15 2 0 6 7 10 15 3 8 1 15 -4 15 -6 0 -10
-7 -10 -15z"/>
<path d="M1151 1104 c0 -11 3 -14 6 -6 3 7 2 16 -1 19 -3 4 -6 -2 -5 -13z"/>
<path d="M1171 1104 c0 -11 3 -14 6 -6 3 7 2 16 -1 19 -3 4 -6 -2 -5 -13z"/>
<path d="M1430 1101 c0 -12 6 -21 15 -21 8 0 15 3 15 6 0 3 -7 12 -15 20 -13
14 -15 13 -15 -5z"/>
<path d="M1346 1094 c-9 -24 -7 -28 9 -14 17 14 20 30 6 30 -5 0 -12 -7 -15
-16z"/>
<path d="M1092 1070 c0 -14 2 -19 5 -12 2 6 2 18 0 25 -3 6 -5 1 -5 -13z"/>
<path d="M1554 1065 c21 -16 32 -13 21 4 -3 6 -14 11 -23 11 -15 -1 -15 -2 2
-15z"/>
<path d="M1590 1055 c0 -8 4 -15 10 -15 5 0 7 7 4 15 -4 8 -8 15 -10 15 -2 0
-4 -7 -4 -15z"/>
<path d="M1620 1061 c0 -6 4 -13 10 -16 6 -3 7 1 4 9 -7 18 -14 21 -14 7z"/>
<path d="M1650 1060 c0 -6 7 -10 15 -10 8 0 15 2 15 4 0 2 -7 6 -15 10 -8 3
-15 1 -15 -4z"/>
<path d="M1300 1043 c0 -15 -2 -16 -10 -3 -7 11 -10 11 -10 2 0 -7 -4 -11 -8
-8 -10 6 -38 -11 -31 -19 3 -3 20 -2 37 1 22 5 32 12 32 25 0 11 -2 19 -5 19
-3 0 -5 -8 -5 -17z"/>
<path d="M1320 1051 c0 -5 5 -13 10 -16 6 -3 10 -2 10 4 0 5 -4 13 -10 16 -5
3 -10 2 -10 -4z"/>
<path d="M1420 1046 c0 -9 5 -16 10 -16 6 0 10 4 10 9 0 6 -4 13 -10 16 -5 3
-10 -1 -10 -9z"/>
<path d="M1181 1034 c0 -11 3 -14 6 -6 3 7 2 16 -1 19 -3 4 -6 -2 -5 -13z"/>
<path d="M1396 1035 c-3 -8 -1 -15 4 -15 6 0 10 7 10 15 0 8 -2 15 -4 15 -2 0
-6 -7 -10 -15z"/>
<path d="M1451 1034 c0 -11 3 -14 6 -6 3 7 2 16 -1 19 -3 4 -6 -2 -5 -13z"/>
<path d="M1207 1033 c-4 -3 -7 -11 -7 -17 0 -6 5 -5 12 2 6 6 9 14 7 17 -3 3
-9 2 -12 -2z"/>
<path d="M1590 1002 c0 -5 7 -13 16 -16 22 -8 24 -8 24 6 0 6 -3 8 -7 5 -3 -4
-12 -2 -20 4 -8 7 -13 8 -13 1z"/>
<path d="M1106 974 c-4 -9 -4 -19 -1 -22 2 -3 7 3 11 12 4 9 4 19 1 22 -2 3
-7 -3 -11 -12z"/>
<path d="M1395 980 c-3 -6 6 -15 21 -20 31 -12 37 -9 28 14 -7 18 -39 22 -49
6z"/>
<path d="M1450 983 c0 -4 5 -15 10 -23 8 -13 10 -13 10 2 0 9 -4 20 -10 23 -5
3 -10 3 -10 -2z"/>
<path d="M1071 964 c0 -11 3 -14 6 -6 3 7 2 16 -1 19 -3 4 -6 -2 -5 -13z"/>
<path d="M1211 960 c-1 -27 15 -43 32 -34 11 7 13 14 7 24 -8 12 -10 11 -10
-5 -1 -18 -2 -17 -15 5 -8 15 -14 19 -14 10z"/>
<path d="M1300 955 c0 -8 4 -15 10 -15 5 0 7 7 4 15 -4 8 -8 15 -10 15 -2 0
-4 -7 -4 -15z"/>
<path d="M1276 945 c4 -8 8 -15 10 -15 2 0 4 7 4 15 0 8 -4 15 -10 15 -5 0 -7
-7 -4 -15z"/>
<path d="M1641 924 c0 -11 3 -14 6 -6 3 7 2 16 -1 19 -3 4 -6 -2 -5 -13z"/>
<path d="M1661 924 c0 -11 3 -14 6 -6 3 7 2 16 -1 19 -3 4 -6 -2 -5 -13z"/>
<path d="M1501 914 c0 -11 3 -14 6 -6 3 7 2 16 -1 19 -3 4 -6 -2 -5 -13z"/>
<path d="M1605 920 c3 -5 10 -10 16 -10 5 0 9 5 9 10 0 6 -7 10 -16 10 -8 0
-12 -4 -9 -10z"/>
<path d="M1410 909 c0 -5 5 -7 10 -4 6 3 10 8 10 11 0 2 -4 4 -10 4 -5 0 -10
-5 -10 -11z"/>
<path d="M1271 884 c0 -11 3 -14 6 -6 3 7 2 16 -1 19 -3 4 -6 -2 -5 -13z"/>
<path d="M1290 886 c0 -9 5 -16 10 -16 6 0 10 4 10 9 0 6 -4 13 -10 16 -5 3
-10 -1 -10 -9z"/>
<path d="M1220 878 c0 -4 5 -10 10 -13 6 -3 10 0 10 7 0 9 3 9 10 -2 8 -13 10
-13 10 2 0 11 -7 16 -20 15 -11 -1 -20 -5 -20 -9z"/>
<path d="M1759 885 c-1 -6 -1 -14 0 -18 1 -5 -8 -5 -20 -2 -15 5 -20 3 -17 -6
2 -6 14 -14 26 -16 26 -3 41 22 23 40 -6 6 -12 7 -12 2z"/>
<path d="M1490 868 c0 -9 5 -20 10 -23 13 -8 13 5 0 25 -8 13 -10 13 -10 -2z"/>
<path d="M1690 870 c0 -6 -6 -8 -12 -4 -7 4 -9 3 -5 -1 10 -12 37 -15 37 -5 0
5 -4 12 -10 15 -5 3 -10 1 -10 -5z"/>
<path d="M1521 854 c0 -11 3 -14 6 -6 3 7 2 16 -1 19 -3 4 -6 -2 -5 -13z"/>
<path d="M1620 866 c0 -2 7 -6 15 -10 8 -3 15 -1 15 4 0 6 -7 10 -15 10 -8 0
-15 -2 -15 -4z"/>
<path d="M1820 860 c-12 -8 -11 -10 8 -10 12 0 22 5 22 10 0 13 -11 13 -30 0z"/>
<path d="M530 852 c0 -10 41 -35 47 -28 9 8 -17 36 -33 36 -8 0 -14 -3 -14 -8z"/>
<path d="M506 842 c-7 -12 22 -38 31 -28 4 3 0 14 -9 22 -9 10 -18 12 -22 6z"/>
<path d="M1121 843 c0 -4 4 -17 9 -28 8 -19 9 -19 9 2 1 12 -3 25 -9 28 -5 3
-10 3 -9 -2z"/>
<path d="M1150 836 c0 -8 4 -17 9 -20 5 -4 7 3 4 14 -6 23 -13 26 -13 6z"/>
<path d="M1180 841 c0 -5 5 -13 10 -16 6 -3 10 -2 10 4 0 5 -4 13 -10 16 -5 3
-10 2 -10 -4z"/>
<path d="M1335 840 c3 -5 10 -10 16 -10 5 0 9 5 9 10 0 6 -7 10 -16 10 -8 0
-12 -4 -9 -10z"/>
<path d="M1310 830 c0 -5 5 -10 11 -10 5 0 7 5 4 10 -3 6 -8 10 -11 10 -2 0
-4 -4 -4 -10z"/>
<path d="M1804 833 c3 -4 -3 -12 -14 -18 -19 -10 -20 -13 -5 -25 13 -11 15
-10 8 6 -6 17 -5 17 10 5 15 -12 17 -12 11 4 -6 14 -4 16 7 10 12 -8 12 -6 0
8 -7 9 -16 17 -19 17 -3 0 -2 -3 2 -7z"/>
<path d="M1281 814 c0 -11 3 -14 6 -6 3 7 2 16 -1 19 -3 4 -6 -2 -5 -13z"/>
<path d="M1380 811 c0 -5 5 -13 10 -16 6 -3 10 -2 10 4 0 5 -4 13 -10 16 -5 3
-10 2 -10 -4z"/>
<path d="M1411 804 c0 -11 3 -14 6 -6 3 7 2 16 -1 19 -3 4 -6 -2 -5 -13z"/>
<path d="M1490 810 c0 -5 5 -10 11 -10 5 0 7 5 4 10 -3 6 -8 10 -11 10 -2 0
-4 -4 -4 -10z"/>
<path d="M1350 801 c0 -5 5 -13 10 -16 6 -3 10 -2 10 4 0 5 -4 13 -10 16 -5 3
-10 2 -10 -4z"/>
<path d="M1740 796 c0 -2 8 -10 18 -17 15 -13 16 -12 3 4 -13 16 -21 21 -21
13z"/>
<path d="M1690 762 c0 -12 19 -26 26 -19 2 2 -2 10 -11 17 -9 8 -15 8 -15 2z"/>
<path d="M1410 750 c0 -5 5 -10 11 -10 5 0 7 5 4 10 -3 6 -8 10 -11 10 -2 0
-4 -4 -4 -10z"/>
<path d="M1570 751 c0 -5 5 -13 10 -16 6 -3 10 -2 10 4 0 5 -4 13 -10 16 -5 3
-10 2 -10 -4z"/>
<path d="M1380 741 c0 -6 5 -13 10 -16 6 -3 10 1 10 9 0 9 -4 16 -10 16 -5 0
-10 -4 -10 -9z"/>
<path d="M1605 700 c3 -5 8 -10 11 -10 2 0 4 5 4 10 0 6 -5 10 -11 10 -5 0 -7
-4 -4 -10z"/>
<path d="M1900 689 c0 -4 7 -9 15 -13 9 -3 15 0 15 8 0 7 -7 13 -15 13 -8 0
-15 -4 -15 -8z"/>
<path d="M1980 650 c0 -5 5 -10 11 -10 5 0 7 5 4 10 -3 6 -8 10 -11 10 -2 0
-4 -4 -4 -10z"/>
<path d="M1360 542 c0 -5 10 -16 23 -25 24 -16 64 -77 50 -77 -5 0 -9 -9 -10
-19 -1 -13 6 -20 23 -24 18 -3 24 0 24 14 0 25 10 29 50 19 19 -4 27 -8 18 -9
-10 -1 -18 -5 -18 -11 0 -13 1 -13 43 5 31 13 36 13 47 0 11 -13 8 -15 -16
-15 -26 -1 -27 -2 -10 -11 23 -14 68 4 61 23 -4 11 11 13 70 10 76 -4 125 11
125 40 0 7 -7 5 -17 -4 -25 -22 -81 -28 -118 -13 -16 7 -56 16 -89 20 -81 9
-153 32 -160 51 -3 8 -11 12 -16 9 -6 -4 -9 -1 -8 7 2 8 -10 14 -34 16 -21 2
-38 -1 -38 -6z"/>
<path d="M2060 420 c0 -5 4 -10 9 -10 6 0 13 5 16 10 3 6 -1 10 -9 10 -9 0
-16 -4 -16 -10z"/>
<path d="M780 360 c-13 -9 -13 -10 0 -10 8 0 22 5 30 10 13 9 13 10 0 10 -8 0
-22 -5 -30 -10z"/>
<path d="M1517 1713 c-4 -3 -7 -11 -7 -17 0 -6 5 -5 12 2 6 6 9 14 7 17 -3 3
-9 2 -12 -2z"/>
<path d="M1716 1623 c-6 -14 -5 -15 5 -6 7 7 10 15 7 18 -3 3 -9 -2 -12 -12z"/>
<path d="M1686 1551 c-4 -5 -2 -21 4 -36 6 -15 7 -32 3 -38 -3 -7 -2 -8 3 -4
12 11 13 57 1 57 -5 0 -7 7 -3 15 6 16 1 20 -8 6z"/>
<path d="M1637 1383 c-4 -3 -7 -11 -7 -17 0 -6 5 -5 12 2 6 6 9 14 7 17 -3 3
-9 2 -12 -2z"/>
<path d="M520 360 c0 -5 5 -10 10 -10 6 0 10 5 10 10 0 6 -4 10 -10 10 -5 0
-10 -4 -10 -10z"/>
<path d="M74 230 c-19 -7 -19 -7 1 -11 16 -4 20 -13 22 -59 1 -30 -3 -60 -9
-67 -8 -10 -3 -13 20 -13 28 0 31 3 34 36 l3 35 39 -35 c28 -26 47 -36 70 -35
26 0 28 2 11 9 -36 15 -99 76 -91 88 4 7 28 23 54 37 38 20 41 24 17 18 -16
-3 -46 -17 -65 -29 -34 -23 -55 -18 -43 11 5 15 -36 24 -63 15z"/>
<path d="M315 223 c4 -10 8 -45 8 -78 2 -53 4 -60 22 -60 18 0 20 7 22 78 l2
77 -31 0 c-25 0 -29 -3 -23 -17z"/>
<path d="M415 160 c0 -75 1 -80 22 -80 19 0 21 4 16 41 -7 50 5 49 39 -1 18
-26 31 -35 52 -35 28 0 29 1 31 60 2 33 4 67 6 75 3 10 -5 16 -23 18 -27 3
-40 -12 -17 -20 6 -2 9 -25 7 -57 l-3 -54 -35 64 c-30 54 -40 64 -65 67 l-30
3 0 -81z"/>
<path d="M625 214 c-28 -30 -33 -79 -12 -108 8 -11 31 -20 60 -23 l47 -6 0 32
c0 31 -1 32 -37 29 l-38 -3 0 40 c0 34 3 40 23 43 12 2 22 -1 22 -7 0 -6 7
-11 15 -11 18 0 19 12 3 28 -20 20 -58 14 -83 -14z"/>
<path d="M1120 230 c0 -5 8 -10 19 -10 17 0 34 -33 56 -107 3 -11 13 -24 22
-27 19 -8 15 -12 45 47 l24 48 32 -50 c17 -28 36 -51 42 -51 5 0 24 32 41 70
18 39 36 70 40 70 5 0 9 5 9 10 0 11 -30 13 -55 4 -13 -5 -14 -9 -4 -15 10 -6
9 -16 -6 -49 l-18 -41 -27 43 c-15 24 -25 49 -23 56 4 8 -5 12 -27 12 -26 0
-30 -3 -25 -19 6 -21 -10 -71 -23 -71 -11 0 -32 46 -32 70 0 17 -7 20 -45 20
-25 0 -45 -4 -45 -10z"/>
<path d="M1465 203 c-4 -21 -15 -55 -26 -77 -19 -40 -18 -56 5 -56 8 0 14 11
14 25 0 35 18 53 47 47 23 -4 42 -34 37 -59 -2 -9 10 -13 34 -13 l38 0 -22 20
c-11 11 -29 46 -39 77 -19 63 -27 73 -59 73 -17 0 -23 -8 -29 -37z m47 -3 c4
-28 2 -33 -14 -36 -19 -2 -22 5 -12 30 7 18 23 22 26 6z"/>
<path d="M1595 230 c-3 -5 3 -10 15 -10 20 0 21 -4 18 -70 -2 -51 0 -70 10
-70 6 0 15 0 19 0 4 0 6 24 5 53 l-2 52 32 -52 c19 -30 40 -53 51 -53 15 0 17
10 17 70 0 40 4 70 10 70 6 0 10 5 10 10 0 6 -13 10 -29 10 -28 0 -29 -1 -25
-42 4 -38 3 -41 -8 -24 -29 44 -58 66 -87 66 -16 0 -33 -4 -36 -10z"/>
<path d="M1807 168 c2 -50 -1 -74 -9 -80 -26 -16 84 -13 115 4 25 13 40 56 32
95 -6 35 -41 53 -105 53 l-36 0 3 -72z m78 36 c11 -11 15 -30 13 -58 -2 -34
-7 -42 -25 -44 -22 -3 -23 0 -23 57 0 63 7 72 35 45z"/>
<path d="M2000 222 c-19 -15 -21 -22 -11 -40 7 -13 23 -22 44 -24 25 -2 33 -8
35 -27 4 -23 2 -24 -41 -18 -41 6 -67 -4 -67 -25 0 -9 94 -11 127 -2 30 8 38
39 19 69 -10 16 -14 35 -10 54 6 30 6 31 -34 31 -24 0 -49 -7 -62 -18z m68
-25 c2 -10 -3 -17 -11 -17 -18 0 -39 24 -30 34 12 12 38 2 41 -17z"/>
<path d="M849 128 c-10 -18 -8 -24 7 -35 42 -30 86 -4 64 38 -15 26 -56 25
-71 -3z m51 -8 c0 -5 -7 -10 -15 -10 -8 0 -15 5 -15 10 0 6 7 10 15 10 8 0 15
-4 15 -10z"/>
</g>
</svg>
