<?xml version="1.0" standalone="no"?>
<!DOCTYPE svg PUBLIC "-//W3C//DTD SVG 20010904//EN"
 "http://www.w3.org/TR/2001/REC-SVG-20010904/DTD/svg10.dtd">
<svg version="1.0" xmlns="http://www.w3.org/2000/svg"
 width="220.000000pt" height="374.000000pt" viewBox="0 0 220.000000 374.000000"
 preserveAspectRatio="xMidYMid meet">
<metadata>
Created by potrace 1.16, written by Peter Selinger 2001-2019
</metadata>
<g transform="translate(0.000000,374.000000) scale(0.100000,-0.100000)"
fill="#000000" stroke="none">
<path d="M159 3732 l-86 -3 -6 -62 c-3 -34 -6 -176 -7 -314 0 -139 -2 -259 -5
-265 -3 -13 -10 -707 -21 -2315 l-5 -773 1065 0 c1005 0 1065 1 1070 18 13 44
37 3695 24 3707 -4 4 -1920 11 -2029 7z m2006 -498 l0 -468 -62 3 c-104 4
-204 -58 -219 -135 -5 -26 -13 -33 -44 -43 -21 -6 -43 -18 -50 -26 -8 -10 4
-7 39 7 64 27 101 16 101 -31 0 -37 -19 -50 -36 -26 -8 10 -17 16 -20 12 -11
-10 16 -37 37 -37 26 0 53 54 39 79 -5 11 -19 23 -30 26 -19 6 -29 45 -12 45
4 0 20 16 36 36 27 34 27 35 5 23 -22 -11 -23 -11 -11 4 22 26 95 57 135 57
42 0 87 -15 87 -30 0 -15 -16 -12 -34 5 -8 8 -27 14 -43 14 l-28 -1 30 -8 c17
-4 26 -9 20 -10 -5 -1 6 -8 25 -15 l35 -13 -50 -3 c-33 -1 -40 -3 -20 -6 17
-2 40 -6 53 -8 l22 -5 0 -230 c0 -142 -4 -231 -10 -235 -13 -8 -31 40 -24 60
4 9 0 15 -7 16 -21 2 -31 4 -67 13 -25 6 -43 3 -77 -14 -25 -12 -45 -26 -45
-32 0 -5 12 0 26 11 41 32 98 28 136 -9 26 -27 30 -36 25 -67 -8 -47 -34 -75
-66 -71 -20 2 -27 9 -29 31 -3 22 0 27 20 27 18 0 20 2 9 9 -39 25 -68 -34
-34 -71 24 -27 52 -22 89 18 33 35 44 32 24 -7 -13 -24 -2 -25 16 -1 11 14 13
4 14 -71 l0 -87 -36 40 c-20 22 -41 40 -46 40 -6 0 6 -18 26 -41 20 -22 41
-51 46 -65 16 -40 12 -116 -9 -180 -11 -32 -18 -60 -16 -63 3 -2 7 4 11 13 3
9 11 16 16 16 17 0 -1 -53 -24 -73 -11 -9 -16 -17 -11 -17 5 0 14 5 21 12 20
20 23 3 16 -77 -7 -74 -8 -78 -38 -92 l-31 -14 33 5 c39 7 46 -20 7 -30 -14
-3 -22 -10 -19 -15 7 -12 -13 -11 -53 3 -25 9 -32 16 -26 28 16 33 7 89 -17
115 -13 14 -29 25 -36 25 -6 0 -14 7 -18 15 -4 11 3 15 27 16 18 1 24 3 14 6
-14 4 -8 11 28 35 97 64 128 184 74 293 -18 38 -34 55 -68 72 -24 12 -55 32
-68 44 -12 13 -23 18 -23 12 0 -13 38 -45 82 -67 53 -27 83 -91 83 -178 0 -58
-4 -72 -30 -109 -34 -48 -88 -89 -116 -89 -17 0 -16 3 6 36 14 20 29 53 35 73
12 42 14 178 3 184 -5 3 -8 -36 -9 -86 0 -74 -5 -100 -22 -134 -23 -44 -65
-83 -90 -83 -8 0 3 13 25 29 48 35 73 96 73 180 0 55 -26 131 -49 145 -16 10
-14 2 10 -38 52 -89 24 -252 -48 -283 -20 -8 -48 -12 -62 -9 l-26 6 22 -16
c18 -13 20 -20 12 -35 -5 -10 -20 -19 -33 -19 -28 0 -61 34 -53 54 6 14 49 38
92 50 28 8 66 68 72 115 7 50 -14 113 -61 181 -44 63 -45 85 -7 104 33 18 56
65 47 101 -8 31 -51 44 -73 22 -19 -19 -10 -47 14 -46 11 0 13 3 6 6 -16 6
-17 29 -3 38 18 11 40 -15 40 -46 0 -39 -30 -68 -64 -62 -14 3 -29 10 -32 15
-3 5 5 6 20 2 16 -4 26 -2 26 5 0 6 -9 11 -21 11 -12 0 -23 8 -26 20 -3 11
-12 20 -21 20 -12 0 -11 4 6 20 12 12 22 27 22 34 0 7 10 18 23 24 20 10 21
11 2 11 -54 1 -96 -90 -66 -138 6 -10 5 -22 -4 -34 -10 -14 -11 -26 -4 -38 7
-14 2 -23 -24 -43 -40 -31 -45 -31 -69 -9 -10 9 -42 24 -70 34 l-53 18 1 446
c1 245 0 444 -2 442 -6 -5 -13 -279 -14 -491 0 -88 -3 -156 -7 -152 -5 4 -8
150 -9 324 -1 351 -7 402 -49 402 -20 0 -26 -7 -34 -37 -5 -21 -12 -47 -15
-58 -3 -11 -4 4 -2 33 2 41 9 60 28 79 35 34 63 19 82 -45 9 -28 15 -38 15
-24 1 30 -23 88 -42 98 -8 6 -16 30 -19 62 -11 114 -83 124 -122 16 l-15 -39
0 41 c-1 43 -15 64 -43 64 -23 0 -38 -30 -38 -79 0 -23 -2 -41 -4 -41 -4 0
-71 37 -84 46 -2 1 3 15 12 32 15 29 12 72 -5 72 -5 0 -7 -11 -3 -24 4 -15 -1
-36 -12 -55 l-17 -29 -18 22 c-9 12 -19 35 -21 51 l-3 30 -75 1 -75 1 68 -4
c66 -4 72 -8 68 -41 -1 -8 5 -24 13 -37 15 -23 14 -25 -18 -44 -46 -29 -68
-78 -60 -132 5 -28 4 -40 -3 -36 -6 4 -13 33 -17 65 -4 31 -15 71 -25 87 -9
17 -21 42 -25 58 -10 41 -41 67 -79 67 -44 0 -74 -23 -87 -68 -13 -45 -24
-422 -12 -422 5 0 9 86 10 191 1 110 6 206 12 225 22 64 83 84 119 38 22 -28
27 -54 11 -54 -5 0 -10 9 -10 20 0 32 -43 47 -74 26 -43 -27 -46 -64 -37 -421
2 -61 5 -83 11 -70 8 19 9 19 9 -3 1 -13 5 -31 10 -40 5 -9 11 -147 14 -307 3
-244 2 -294 -10 -312 -16 -24 -11 -73 7 -73 6 0 10 -11 10 -25 0 -27 -6 -30
-30 -15 -13 8 -15 61 -16 374 0 201 -3 368 -7 372 -3 3 -6 -227 -7 -512 -2
-784 -9 -1666 -15 -1683 -2 -9 1 -27 8 -41 11 -21 21 -26 72 -31 l60 -6 -67
-1 c-58 -2 -67 1 -73 17 -6 20 -35 37 -35 21 0 -6 -15 -9 -32 -8 -51 3 -57 12
-13 19 l40 7 -45 2 c-25 2 -84 3 -132 3 -55 1 -88 5 -88 11 0 11 26 11 215 4
l80 -3 2 665 c2 366 4 875 6 1132 1 257 1 465 -1 463 -8 -8 -11 -116 -12 -437
0 -175 -3 -318 -5 -318 -3 0 -36 25 -73 55 -37 31 -91 68 -120 82 -52 25 -55
25 -88 10 -47 -23 -47 -63 0 -105 33 -28 34 -31 17 -46 -10 -9 -25 -16 -34
-16 -19 0 -37 -29 -37 -59 0 -24 14 -32 117 -69 43 -15 110 -47 150 -70 l72
-42 -4 -512 c-3 -281 -7 -513 -10 -516 -11 -11 -304 -1 -375 13 -204 40 -243
45 -274 40 -28 -6 -34 -3 -39 14 -2 11 -3 129 -2 263 9 594 16 1252 20 1863 3
363 8 697 11 742 l6 83 1036 -4 1037 -5 0 -467z m-722 -32 c3 -4 8 -31 12 -59
6 -44 4 -53 -8 -53 -11 0 -17 12 -19 42 -7 93 -68 26 -68 -75 0 -23 -5 -49
-11 -57 -7 -11 -8 0 -4 40 11 104 16 127 36 159 16 27 22 30 38 21 11 -5 22
-13 24 -18z m-133 -1 c5 -11 10 -32 9 -48 l-1 -28 -9 33 c-11 37 -16 39 -35
15 -9 -12 -13 -14 -14 -5 0 19 19 52 30 52 5 0 14 -9 20 -19z m-425 -31 c4
-14 -2 -30 -19 -51 -23 -27 -26 -40 -26 -107 -1 -52 -5 -83 -15 -96 -14 -18
-15 -8 -15 92 0 126 15 182 49 182 11 0 22 -9 26 -20z m535 -60 c0 -27 -4 -51
-9 -55 -6 -3 -13 -26 -17 -50 -9 -66 -24 -55 -24 20 0 66 25 149 41 139 5 -3
9 -27 9 -54z m-142 -107 c0 -68 -4 -123 -9 -123 -8 0 -15 72 -9 95 2 6 2 48 1
95 -1 57 2 80 8 70 6 -8 10 -70 9 -137z m-324 105 c9 -12 16 -29 16 -38 0 -8
-6 -4 -13 10 -9 18 -21 25 -42 25 -23 0 -30 -6 -37 -30 -5 -16 -7 -259 -4
-539 2 -283 1 -505 -4 -500 -5 5 -10 244 -11 531 -2 494 -2 524 16 543 24 26
60 25 79 -2z m248 6 c18 -9 31 -28 40 -55 17 -58 -10 -108 -67 -128 -37 -13
-45 -12 -79 4 -44 21 -71 72 -61 113 3 13 18 37 33 51 31 31 90 38 134 15z
m-287 -105 c6 -37 4 -47 -9 -52 -14 -5 -16 3 -16 61 1 74 13 69 25 -9z m37
-22 c2 -50 -2 -81 -10 -89 -9 -9 -12 9 -12 87 0 118 19 120 22 2z m37 -64 c1
-18 -3 -33 -7 -33 -5 0 -9 37 -9 83 -1 74 0 77 7 32 5 -27 9 -65 9 -82z m458
45 c-2 -13 -4 -5 -4 17 -1 22 1 32 4 23 2 -10 2 -28 0 -40z m32 -5 c0 -34 -1
-36 -11 -16 -6 12 -8 29 -5 37 11 27 17 18 16 -21z m-132 -5 c-3 -8 -6 -5 -6
6 -1 11 2 17 5 13 3 -3 4 -12 1 -19z m-199 -43 c69 0 82 -11 25 -21 -21 -4
-44 -12 -52 -18 -11 -8 -15 -8 -18 2 -3 7 -23 12 -46 13 -36 1 -38 2 -17 9 25
8 25 8 -5 10 -30 2 -30 2 -5 10 14 4 32 5 40 2 8 -4 43 -7 78 -7z m322 -39 c0
-20 -78 -44 -175 -54 -55 -7 -66 -10 -35 -10 25 0 67 3 95 7 56 10 86 4 63
-11 -8 -6 -1 -7 22 -3 25 4 31 3 20 -4 -8 -5 -11 -13 -8 -17 4 -4 3 -15 -2
-25 -7 -12 -6 -19 2 -21 9 -3 8 -10 -5 -22 -9 -10 -15 -22 -12 -27 4 -5 0 -9
-7 -9 -10 0 -10 -2 1 -9 11 -7 8 -12 -13 -26 -14 -9 -23 -21 -20 -26 3 -5 -2
-9 -11 -9 -10 0 -26 -11 -37 -25 -23 -29 -48 -33 -49 -7 0 11 -2 12 -6 4 -3
-7 0 -19 6 -26 9 -11 6 -19 -17 -35 -17 -11 -33 -32 -36 -45 -9 -36 -44 -24
-48 18 -2 26 -8 32 -31 34 -36 4 -60 -15 -54 -44 2 -14 -2 -25 -9 -28 -10 -4
-14 3 -14 19 0 34 -22 52 -75 59 -25 4 -45 11 -45 17 0 11 43 11 95 -1 25 -6
44 -5 49 0 7 7 6 10 -1 10 -6 0 -19 7 -28 17 -9 9 -20 12 -23 7 -11 -15 -42
-13 -42 3 0 10 -7 14 -20 10 -12 -3 -20 0 -20 8 0 7 -17 20 -37 29 l-38 17 33
-5 c18 -3 31 -2 27 3 -3 5 1 11 7 14 7 2 -7 9 -32 15 -25 5 -36 11 -25 12 17
2 16 3 -5 10 -21 7 -18 8 20 10 42 2 43 3 15 10 -16 4 -22 8 -12 9 24 1 17 23
-13 39 -20 9 -21 11 -5 9 23 -4 44 12 38 30 -3 7 10 13 29 16 l33 4 -37 1
c-46 2 -88 21 -88 39 0 10 10 11 43 6 67 -12 490 -8 513 5 24 15 24 15 24 -2z
m20 -432 c-1 -154 -1 -286 -1 -294 0 -38 -11 -82 -19 -74 -5 5 -12 131 -16
279 -6 240 -5 274 10 302 9 18 16 42 16 54 0 12 3 20 6 17 3 -3 5 -131 4 -284z
m-533 160 c-3 -3 -12 -4 -19 -1 -8 3 -5 6 6 6 11 1 17 -2 13 -5z m483 -278 c0
-137 -2 -247 -4 -245 -2 2 -7 121 -10 264 -4 176 -3 255 4 245 6 -9 10 -114
10 -264z m-460 170 c0 -16 7 -37 15 -46 12 -13 13 -24 6 -41 -6 -17 -5 -30 3
-41 11 -15 14 -15 36 2 23 17 23 19 6 44 -9 15 -14 31 -11 37 4 5 4 17 1 26
-5 12 -9 13 -20 4 -17 -14 -29 0 -20 24 5 12 14 15 33 10 14 -4 30 -10 35 -15
11 -11 19 -257 11 -328 -6 -52 -8 -55 -50 -73 -24 -11 -64 -22 -89 -25 l-46
-7 -1 179 c0 99 -2 198 -6 222 -3 24 -2 58 1 77 l7 34 44 -27 c37 -22 45 -32
45 -56z m431 7 c0 -43 1 -157 2 -252 l2 -175 -55 1 -55 1 50 -8 c28 -5 68 -9
91 -9 l41 -1 6 -53 c7 -73 0 -109 -22 -98 -9 5 -50 14 -91 21 -41 7 -81 17
-87 23 -7 5 -18 28 -24 51 -5 22 -12 49 -15 59 -4 13 0 17 18 17 l23 0 -3 146
c-2 115 0 145 10 143 16 -3 48 11 48 20 0 12 -47 61 -59 61 -8 0 -11 -51 -11
-175 0 -110 -4 -175 -10 -175 -15 0 -13 383 2 398 17 17 48 15 48 -3 0 -9 -8
-14 -21 -12 -12 1 -24 -4 -26 -10 -3 -9 6 -13 26 -13 36 0 50 23 33 50 -9 15
-5 22 26 44 20 14 40 26 44 26 5 0 8 -35 9 -77z m-243 -21 c5 2 10 0 11 -4 1
-14 -11 -38 -20 -38 -4 0 -6 6 -3 14 3 7 -2 16 -10 19 -9 4 -16 12 -16 18 0 9
3 9 14 0 8 -6 18 -10 24 -9z m-44 -61 c3 -5 -1 -12 -10 -15 -8 -3 -12 -10 -9
-16 3 -5 1 -10 -4 -10 -6 0 -11 11 -11 25 0 24 23 35 34 16z m96 -12 c0 -18
-2 -19 -15 -9 -15 12 -12 30 6 30 5 0 9 -10 9 -21z m-180 -20 c0 -5 -7 -9 -15
-9 -15 0 -20 12 -9 23 8 8 24 -1 24 -14z m134 6 c4 -10 -1 -15 -14 -15 -20 0
-26 11 -13 23 10 11 20 8 27 -8z m146 0 c0 -8 -4 -15 -9 -15 -13 0 -22 16 -14
24 11 11 23 6 23 -9z m-175 -35 c4 -6 13 -5 26 3 34 20 49 -13 49 -107 0 -45
5 -112 11 -151 6 -38 12 -83 13 -100 0 -16 7 -34 14 -38 6 -4 12 -14 12 -21 0
-8 7 -19 15 -26 8 -7 13 -16 10 -20 -3 -5 8 -14 25 -22 16 -7 30 -16 30 -20 0
-4 7 -5 16 -1 13 5 11 10 -13 30 l-28 24 40 -6 c50 -8 75 -22 75 -40 0 -7 -8
-16 -17 -19 -41 -11 -143 -20 -213 -19 -55 1 -65 -1 -35 -6 36 -6 38 -7 15
-14 -33 -9 -120 -9 -119 1 4 23 -2 34 -13 24 -8 -5 -31 -6 -58 -2 -53 9 -46
11 32 12 55 0 57 1 82 39 14 21 26 43 26 49 0 6 5 8 10 5 6 -4 8 -11 4 -16 -3
-6 3 -13 14 -16 31 -8 37 -33 8 -33 -13 0 -26 -7 -29 -15 -5 -11 4 -14 43 -12
29 1 46 6 42 12 -3 6 -19 30 -36 55 -17 25 -31 46 -32 48 -3 7 -34 -12 -34
-22 0 -6 -11 -28 -24 -47 l-25 -36 -58 9 c-31 5 -58 10 -59 11 -8 7 91 97 106
97 28 0 35 20 8 21 l-23 2 23 4 c26 5 30 23 5 24 -13 0 -11 3 7 11 23 9 24 11
6 17 -17 7 -18 8 -3 14 19 7 23 37 6 37 -8 0 -8 5 1 15 9 10 9 15 1 15 -6 0
-11 5 -11 10 0 6 7 10 15 10 8 0 15 5 15 10 0 6 -6 10 -12 10 -9 0 -8 4 2 10
10 6 11 10 3 10 -7 0 -13 5 -13 10 0 6 7 10 16 10 8 0 12 5 9 10 -4 6 -11 8
-16 5 -5 -4 -9 -1 -9 4 0 6 7 11 15 11 8 0 15 4 15 10 0 5 -7 7 -15 4 -22 -9
-20 32 3 45 16 10 15 10 -3 11 -19 1 -19 1 -2 14 14 11 15 15 5 19 -8 3 -5 6
7 6 17 1 17 3 5 11 -9 6 -10 10 -3 10 6 0 15 -4 18 -10z m104 -62 l-1 -53 -8
40 c-7 36 -4 65 6 65 2 0 3 -24 3 -52z m272 -136 c1 -103 4 -130 13 -123 15
12 66 0 102 -24 13 -8 33 -33 44 -55 11 -22 28 -40 36 -40 14 0 14 3 3 16 -10
13 -10 17 0 24 8 4 10 13 7 19 -4 6 -2 11 3 11 6 0 11 5 11 11 0 13 46 59 59
59 5 0 14 -13 21 -30 7 -16 19 -35 28 -42 40 -34 83 -188 52 -188 -5 0 -10 -7
-10 -15 0 -9 -11 -20 -23 -24 -13 -5 -31 -16 -39 -25 -9 -8 -22 -17 -29 -18
-7 -2 -25 -15 -40 -30 -32 -31 -70 -40 -158 -36 l-65 3 0 177 c-1 97 -4 169
-8 160 -4 -9 -7 -50 -7 -91 -1 -41 -4 -72 -7 -68 -7 7 -12 330 -6 410 2 32 6
57 8 55 1 -2 4 -63 5 -136z m-925 -82 c33 -21 79 -57 104 -80 l45 -40 -40 5
c-59 7 -144 40 -182 69 -18 15 -42 30 -54 35 l-22 8 21 21 c32 32 62 27 128
-18z m1211 14 c5 -14 -35 -26 -43 -13 -8 14 6 30 24 27 8 -2 17 -8 19 -14z
m-747 -28 c0 -74 -38 -106 -126 -106 l-44 0 0 45 c0 41 2 45 28 50 15 3 47 12
72 19 63 20 70 19 70 -8z m-549 -43 l24 -27 -32 23 c-33 23 -40 31 -25 31 5 0
19 -12 33 -27z m362 -28 c-7 -21 -13 -19 -13 6 0 11 4 18 10 14 5 -3 7 -12 3
-20z m-253 -25 c12 -7 12 -12 2 -22 -6 -6 -12 -26 -12 -44 0 -30 4 -34 65 -59
64 -28 94 -50 82 -61 -8 -8 -132 62 -156 88 -11 11 -24 17 -29 14 -13 -8 -62
14 -62 27 0 5 12 2 26 -8 14 -9 28 -15 30 -12 9 8 -48 39 -61 33 -24 -9 -27
12 -5 34 22 22 92 28 120 10z m126 -32 c11 -17 14 -108 3 -108 -15 0 -118 50
-124 60 -4 6 1 22 9 35 13 20 25 25 61 25 24 0 47 -5 51 -12z m177 5 c-7 -2
-19 -2 -25 0 -7 3 -2 5 12 5 14 0 19 -2 13 -5z m-425 -45 c22 -15 22 -15 -18
-14 -34 0 -40 4 -40 22 0 28 12 38 25 22 5 -8 20 -21 33 -30z m377 -147 c-3
-91 -7 -167 -10 -169 -3 -3 -5 78 -5 179 0 121 4 179 10 169 5 -9 7 -83 5
-179z m55 169 c-8 -5 -19 -10 -25 -10 -5 0 -3 5 5 10 8 5 20 10 25 10 6 0 3
-5 -5 -10z m-97 -24 c13 -10 17 -28 17 -70 0 -56 -4 -63 -28 -48 -13 9 -25
132 -13 132 3 0 14 -7 24 -14z m97 -5 c0 -5 -9 -11 -20 -14 -22 -6 -28 8 -7
16 19 8 27 8 27 -2z m552 -43 c-14 -14 -17 -11 -26 27 l-7 30 22 -22 c18 -18
21 -25 11 -35z m-985 16 c-3 -3 -12 -4 -19 -1 -8 3 -5 6 6 6 11 1 17 -2 13 -5z
m40 -10 c-3 -3 -12 -4 -19 -1 -8 3 -5 6 6 6 11 1 17 -2 13 -5z m138 -50 c92
-54 90 -52 83 -59 -3 -3 -27 7 -54 23 -27 15 -63 34 -81 41 -28 12 -54 41 -35
41 4 0 43 -21 87 -46z m311 10 c30 -13 54 -28 54 -32 0 -12 59 -7 150 13 41 9
125 19 187 22 l111 6 4 -70 c1 -39 2 -77 0 -85 -3 -14 -142 -33 -326 -44 -80
-5 -107 10 -38 21 63 10 85 16 80 20 -2 3 -40 0 -84 -7 -75 -10 -81 -10 -124
13 -109 57 -110 58 -110 122 0 66 -4 65 96 21z m538 -124 c-10 -61 -14 -46
-13 46 1 83 2 85 10 39 4 -27 6 -66 3 -85z m-684 50 c6 -11 7 -20 2 -20 -10 0
-32 21 -32 32 0 16 19 8 30 -12z m10 -57 c0 -7 -4 -13 -8 -13 -12 0 -32 23
-32 37 0 11 4 11 20 1 11 -7 20 -18 20 -25z m72 10 c10 -9 35 -25 56 -35 l37
-18 -40 6 c-47 7 -85 29 -85 49 0 19 9 19 32 -2z m-72 -530 l0 -473 -29 0 -28
0 2 143 c2 78 4 277 6 442 1 165 5 322 7 348 4 47 5 48 23 31 18 -16 19 -39
19 -491z m137 463 c53 -13 55 -14 21 -15 -41 -1 -118 26 -118 40 0 6 8 5 20
-1 10 -6 45 -17 77 -24z m507 -288 c-2 -172 -3 -388 -4 -480 0 -163 -1 -168
-21 -168 l-21 0 6 418 c3 229 5 443 5 474 1 45 5 57 19 61 9 3 17 5 18 6 1 0
0 -140 -2 -311z m246 303 c0 -5 -18 -11 -39 -15 -77 -12 -137 -87 -129 -161 4
-33 1 -44 -14 -54 -15 -9 -20 -8 -24 4 -7 17 4 216 12 224 2 3 10 -1 16 -7 9
-9 9 -12 0 -12 -15 0 -16 -46 -1 -56 6 -3 18 1 27 10 13 12 14 19 4 28 -18 18
-15 40 6 34 13 -4 128 6 140 13 1 0 2 -3 2 -8z m205 -11 c4 -6 -7 -10 -25 -10
-23 0 -33 -5 -37 -20 -3 -11 -12 -20 -19 -20 -8 0 -14 -5 -14 -12 0 -6 -3 -9
-6 -5 -12 12 30 66 55 70 14 2 29 5 33 6 4 0 10 -3 13 -9z m-934 -32 c35 -2
103 1 152 6 l87 8 0 -461 -1 -461 -180 0 -179 0 0 470 0 471 29 -15 c16 -9 57
-17 92 -18z m401 -435 c-1 -259 -7 -470 -12 -473 -5 -3 -29 -4 -54 -2 l-46 4
-1 42 c-4 124 -5 807 -1 843 4 46 11 50 77 52 l40 1 -3 -467z m29 316 c0 -487
-2 -659 -9 -659 -5 0 -8 163 -6 363 2 442 3 452 9 445 3 -3 6 -70 6 -149z m82
-116 c1 -144 5 -256 9 -249 4 6 8 32 8 58 l0 47 28 -15 c15 -7 47 -13 72 -13
26 1 35 4 21 6 -16 3 -20 7 -12 13 8 4 -3 10 -27 14 -31 5 -44 13 -60 39 -22
38 -33 95 -20 103 5 4 12 -3 15 -15 8 -33 24 -13 20 25 -3 19 -3 34 -1 34 2 0
24 -19 49 -43 34 -33 45 -51 45 -74 0 -72 42 -141 110 -181 39 -24 56 -27 130
-27 69 0 92 4 120 21 19 12 34 26 33 31 -1 6 10 21 25 34 25 22 26 22 8 2 -11
-13 -14 -23 -8 -23 12 0 62 57 62 71 0 5 4 9 9 9 8 0 4 -501 -4 -527 -3 -9
-62 -12 -231 -13 -125 0 -262 -3 -306 -6 -44 -4 -78 -3 -79 2 -2 34 -10 78
-14 82 -3 3 -5 -30 -5 -74 0 -43 -5 -86 -10 -94 -6 -10 -8 120 -5 370 3 212 5
448 5 524 0 77 2 137 5 134 3 -3 6 -122 8 -265z m241 239 c11 -13 14 -28 10
-51 -14 -70 49 -161 113 -161 12 0 24 -4 27 -9 12 -19 -15 -62 -46 -76 -28
-12 -30 -14 -10 -15 29 0 72 42 72 72 1 17 12 28 45 44 42 20 44 20 67 2 13
-9 35 -18 49 -18 20 0 29 -7 37 -27 11 -31 11 -134 0 -130 -4 1 -29 -19 -56
-46 -51 -50 -91 -67 -160 -67 -26 0 -41 -4 -37 -10 10 -17 -34 -11 -74 9 -38
20 -101 83 -101 102 0 15 38 -8 50 -31 11 -21 59 -50 82 -50 7 0 -1 9 -18 19
-35 21 -74 67 -74 87 0 7 -7 17 -16 22 -30 17 -12 44 38 57 49 12 78 30 78 48
0 6 -12 0 -26 -14 -37 -35 -117 -34 -161 1 -76 60 -83 168 -16 221 16 13 17
13 4 -3 -14 -19 -3 -25 17 -8 9 7 9 7 2 -2 -5 -7 -10 -19 -10 -27 0 -11 8 -7
23 12 12 15 36 32 52 37 l30 10 -32 -5 c-25 -3 -31 -1 -26 10 7 21 47 19 67
-3z m-485 -254 c0 -177 -4 -253 -10 -233 -5 17 -9 127 -8 245 1 200 4 250 15
250 2 0 4 -118 3 -262z m643 236 c-29 -20 -26 -56 6 -64 28 -6 30 -22 5 -31
-16 -7 -15 -8 4 -8 31 -1 48 32 31 62 -10 19 -13 20 -16 5 -5 -27 -34 -23 -30
4 2 14 14 26 32 33 25 8 31 6 52 -18 27 -32 30 -70 9 -107 -8 -14 -14 -21 -15
-16 0 5 -8 3 -17 -6 -24 -19 -69 -38 -93 -38 -20 0 -90 55 -90 71 0 14 26 10
40 -6 9 -11 9 -15 1 -15 -7 0 -9 -5 -5 -11 5 -8 10 -6 16 5 6 11 4 23 -6 38
-9 12 -16 31 -16 41 0 16 3 17 15 7 12 -10 15 -10 15 3 0 23 42 67 65 67 18 0
18 -1 -3 -16z m-1055 -306 c-1 -51 -3 -10 -3 92 0 102 2 143 3 93 2 -51 2
-135 0 -185z m953 256 c0 -14 -3 -14 -15 -4 -8 7 -15 14 -15 16 0 2 7 4 15 4
8 0 15 -7 15 -16z m344 -173 c-9 -10 -26 18 -18 30 5 9 9 8 14 -7 4 -10 6 -21
4 -23z m-1297 -203 c-3 -8 -6 -5 -6 6 -1 11 2 17 5 13 3 -3 4 -12 1 -19z m8
-227 c2 -112 0 -191 -6 -191 -5 0 -9 84 -9 197 0 108 2 194 5 191 3 -3 7 -92
10 -197z m1058 162 c-7 -2 -21 -2 -30 0 -10 3 -4 5 12 5 17 0 24 -2 18 -5z
m-654 -231 c0 -103 -4 -196 -9 -207 -5 -12 -9 64 -9 193 0 130 4 210 10 207 5
-4 9 -86 8 -193z m161 -164 c0 -61 -2 -109 -5 -106 -8 8 -16 178 -10 199 12
37 15 18 15 -93z m-1240 13 c42 -21 108 -33 112 -20 4 11 78 0 78 -12 0 -12
-311 -11 -328 0 -23 14 -9 45 23 52 37 8 70 2 115 -20z m669 -136 l-2 -155
-33 0 c-19 0 -34 5 -34 10 0 6 11 10 25 10 23 0 24 2 13 20 -15 24 -30 27 -21
4 4 -11 2 -15 -7 -12 -7 2 -14 14 -15 26 -1 16 4 22 19 23 17 1 18 2 4 6 -22
5 -24 23 -3 23 21 0 19 17 -5 37 -11 10 -20 28 -20 41 0 19 3 22 13 13 8 -6
17 -8 20 -4 12 11 8 23 -8 23 -8 0 -15 5 -15 10 0 6 12 10 26 10 14 0 23 -4
19 -10 -3 -5 -1 -10 4 -10 6 0 11 20 11 45 0 25 3 45 6 45 3 0 4 -70 3 -155z
m-419 96 c0 -6 17 -12 38 -14 20 -2 -6 -5 -58 -6 -52 -2 -121 -5 -152 -6 -32
-2 -58 1 -58 6 0 5 45 9 100 9 60 0 100 4 100 10 0 6 7 10 15 10 8 0 15 -4 15
-9z m294 -180 c-4 -3 -9 0 -11 7 -5 14 -53 17 -53 2 0 -5 -9 -10 -19 -10 -14
0 -18 5 -14 20 4 15 -2 23 -26 33 -39 17 -30 28 12 16 38 -11 113 -12 103 -2
-4 4 -19 8 -34 9 -15 1 -35 2 -45 3 -11 1 -17 8 -15 18 4 22 -37 43 -82 42
l-35 -1 35 -7 c71 -14 85 -44 18 -36 -24 2 -35 2 -25 -1 27 -9 20 -24 -12 -24
-57 0 -78 21 -45 44 12 9 3 12 -46 14 -44 2 -60 -1 -55 -9 5 -8 1 -8 -15 1
-18 9 -25 9 -40 -5 -11 -10 -20 -12 -24 -7 -3 6 0 13 6 16 7 3 -31 4 -84 2
-53 -2 -102 1 -110 5 -7 5 61 9 157 10 94 1 181 3 195 4 14 1 48 4 75 5 41 3
45 4 20 9 -18 3 9 8 70 11 l100 5 3 -84 c2 -46 0 -86 -4 -90z m731 159 c3 -5
1 -10 -4 -10 -6 0 -11 5 -11 10 0 6 2 10 4 10 3 0 8 -4 11 -10z m70 0 c3 -5 1
-10 -4 -10 -6 0 -11 5 -11 10 0 6 2 10 4 10 3 0 8 -4 11 -10z m115 -11 c0 -5
-16 -9 -35 -9 -36 0 -48 16 -17 22 23 5 52 -2 52 -13z m-420 -10 c0 -14 5 -19
14 -16 18 7 28 -27 13 -42 -7 -7 -58 -11 -130 -11 -76 0 -116 -4 -112 -10 3
-5 45 -10 93 -10 61 -1 93 -5 106 -15 19 -15 19 -15 -1 -15 -12 0 -25 5 -28
10 -3 6 -46 10 -95 10 -79 0 -91 2 -100 20 -10 20 -8 20 120 20 74 0 130 4
130 9 0 6 -15 8 -32 7 -18 -2 -25 -1 -15 1 9 2 17 7 17 11 -1 25 -25 30 -164
34 -82 2 -140 1 -130 -3 10 -4 69 -8 129 -8 61 -1 115 -5 122 -9 6 -4 -44 -6
-110 -5 -135 1 -131 -3 13 -16 l95 -8 -103 -2 c-66 -1 -101 -5 -97 -11 3 -5 2
-10 -4 -10 -5 0 -13 5 -16 10 -3 6 -18 10 -33 9 -24 0 -25 -1 -7 -9 17 -7 17
-9 3 -9 -10 -1 -18 -7 -18 -13 0 -10 -2 -10 -8 -1 -4 6 -6 32 -4 57 l4 46 174
0 c170 0 174 0 174 -21z m135 -2 c29 -3 23 -4 -23 -5 -41 -1 -61 2 -57 8 4 6
11 8 16 5 5 -4 9 0 9 7 0 10 2 10 8 1 4 -6 25 -13 47 -16z m390 13 c-3 -5 -11
-10 -16 -10 -6 0 -7 5 -4 10 3 6 11 10 16 10 6 0 7 -4 4 -10z m70 0 c-3 -5
-13 -10 -21 -10 -8 0 -14 5 -14 10 0 6 9 10 21 10 11 0 17 -4 14 -10z m-1742
-7 c-7 -2 -19 -2 -25 0 -7 3 -2 5 12 5 14 0 19 -2 13 -5z m1387 -13 c0 -5 -4
-10 -10 -10 -5 0 -10 5 -10 10 0 6 5 10 10 10 6 0 10 -4 10 -10z m300 0 c0 -6
-30 -9 -72 -8 l-73 1 65 7 c36 4 68 7 73 8 4 1 7 -2 7 -8z m369 -5 c2 -3 -21
-5 -52 -5 -31 0 -57 -4 -57 -10 0 -5 -11 -10 -25 -10 -14 0 -25 5 -25 10 0 6
-31 10 -72 10 -53 0 -69 3 -58 11 14 9 278 4 289 -6z m-529 1 c0 -11 -19 -15
-25 -6 -3 5 1 10 9 10 9 0 16 -2 16 -4z m-1156 -28 c-8 -28 -1 -24 -52 -32
-55 -8 -54 14 1 27 20 5 37 13 37 18 0 5 5 9 11 9 6 0 8 -9 3 -22z m951 12
c-4 -6 -26 -8 -56 -4 -34 5 -49 3 -49 -5 0 -7 20 -11 50 -11 45 0 50 -2 50
-23 0 -20 -4 -22 -42 -19 -37 3 -45 8 -60 38 l-18 34 66 0 c42 0 63 -4 59 -10z
m-1208 -16 c5 -16 -25 -26 -45 -15 -10 6 -23 4 -38 -5 -23 -15 -57 -9 -51 9 8
25 126 34 134 11z m1563 7 c0 -9 -109 -3 -119 5 -2 2 23 4 57 4 34 0 62 -4 62
-9z m206 0 c5 -6 36 -12 69 -14 53 -3 50 -3 -23 -5 -51 -1 -81 2 -77 8 3 5
-14 7 -45 3 -34 -4 -50 -2 -50 6 0 14 112 15 126 2z m-1686 -11 c0 -5 -14 -10
-31 -10 -17 0 -28 4 -24 10 3 6 17 10 31 10 13 0 24 -4 24 -10z m1323 1 c33
-2 6 -21 -29 -21 -22 0 -34 5 -34 13 0 8 9 13 23 11 12 -1 30 -3 40 -3z m-106
-93 c-2 -18 -4 -4 -4 32 0 36 2 50 4 33 2 -18 2 -48 0 -65z m-1147 67 c0 -8
-7 -15 -15 -15 -9 0 -12 6 -9 15 4 8 10 15 15 15 5 0 9 -7 9 -15z m1657 1 c3
-3 -60 -6 -141 -8 -80 -2 -146 0 -146 4 0 4 -19 9 -42 11 -24 2 40 3 140 1
101 -1 186 -5 189 -8z m-1770 -2 c-3 -3 -12 -4 -19 -1 -8 3 -5 6 6 6 11 1 17
-2 13 -5z m1838 -12 c-3 -3 -11 0 -18 7 -9 10 -8 11 6 5 10 -3 15 -9 12 -12z
m-1469 -9 c8 -3 14 -9 14 -14 0 -17 -47 -20 -91 -5 -55 19 -59 20 -59 1 0 -11
-11 -15 -42 -15 -70 0 -91 28 -33 43 22 6 190 -2 211 -10z m359 5 c4 4 6 0 3
-8 -6 -18 -59 -21 -65 -3 -5 14 28 23 43 11 6 -4 14 -4 19 0z m505 -10 c0 -13
-23 -5 -28 10 -2 7 2 10 12 6 9 -3 16 -11 16 -16z m183 15 c-7 -2 -19 -2 -25
0 -7 3 -2 5 12 5 14 0 19 -2 13 -5z m-1355 -12 c10 -6 6 -11 -17 -19 -44 -15
-39 -28 9 -24 44 5 50 -6 20 -33 -14 -12 -41 -20 -78 -23 -50 -3 -60 -1 -79
20 -29 30 -19 44 48 68 60 22 78 24 97 11z m1742 -3 c0 -12 -218 -10 -225 1
-3 6 39 9 110 8 63 -1 115 -5 115 -9z m-677 -5 c-7 -2 -19 -2 -25 0 -7 3 -2 5
12 5 14 0 19 -2 13 -5z m362 -3 c-29 -12 -205 -12 -205 0 0 6 44 10 113 9 72
0 105 -3 92 -9z m-607 -9 l62 -1 -20 -20 c-18 -18 -33 -20 -147 -20 -86 0
-123 -3 -113 -10 8 -5 29 -8 45 -5 17 3 73 1 125 -4 l95 -8 -140 -3 c-95 -2
-127 -5 -100 -10 l40 -7 -49 -2 -48 -1 6 31 c3 17 6 38 6 46 0 8 5 11 10 8 6
-4 8 -11 4 -16 -10 -16 66 -6 81 11 8 9 28 15 47 14 18 -1 61 -2 96 -3z
m-1013 -11 c3 -6 -4 -10 -17 -10 -18 0 -20 2 -8 10 19 12 18 12 25 0z m276 -7
c23 -7 12 -41 -15 -46 -12 -2 -5 -5 16 -6 26 -1 40 4 47 17 9 15 10 15 11 1 0
-9 7 -20 16 -23 8 -3 12 -10 9 -16 -4 -6 -52 -9 -118 -8 l-112 2 110 6 c105 5
107 6 42 10 l-69 5 21 27 c20 25 21 27 4 38 -16 10 -16 11 2 5 11 -4 27 -9 36
-12z m139 7 c12 -8 11 -10 -7 -10 -13 0 -23 5 -23 10 0 13 11 13 30 0z m877
-7 c25 -10 -7 -23 -57 -23 -25 -1 -63 -4 -86 -9 -48 -9 -94 3 -76 21 24 24
167 31 219 11z m59 -1 c-10 -2 -22 0 -28 6 -6 6 0 7 19 4 21 -5 23 -7 9 -10z
m590 8 c15 -6 25 -12 23 -13 -10 -8 -239 6 -239 14 0 12 183 11 216 -1z m-316
-10 c0 -6 -40 -10 -100 -10 -60 0 -100 4 -100 10 0 6 40 10 100 10 60 0 100
-4 100 -10z m35 0 c3 -5 1 -10 -4 -10 -6 0 -11 5 -11 10 0 6 2 10 4 10 3 0 8
-4 11 -10z m362 -6 c-3 -3 -12 -4 -19 -1 -8 3 -5 6 6 6 11 1 17 -2 13 -5z
m-238 -20 c8 -7 -13 -21 -48 -33 -67 -22 -208 -6 -198 23 3 7 36 11 94 11 50
0 94 3 99 8 7 6 42 0 53 -9z m106 6 c15 -6 6 -9 -32 -9 -29 -1 -53 4 -53 9 0
12 57 12 85 0z m-1875 -10 c0 -5 -4 -10 -10 -10 -5 0 -10 5 -10 10 0 6 5 10
10 10 6 0 10 -4 10 -10z m1359 -16 c26 -24 -4 -44 -65 -44 -54 0 -74 15 -31
23 12 2 -12 5 -52 6 -60 1 -73 4 -63 14 14 13 131 26 172 19 14 -2 31 -10 39
-18z m141 17 c0 -5 7 -17 16 -25 14 -15 10 -16 -45 -16 -43 0 -61 4 -61 13 0
9 13 11 43 9 53 -5 44 6 -14 17 l-44 9 53 1 c28 1 52 -3 52 -8z m517 3 c-3 -3
-12 -4 -19 -1 -8 3 -5 6 6 6 11 1 17 -2 13 -5z m-1521 -14 c26 -10 26 -11 9
-30 -14 -15 -31 -20 -71 -20 -29 0 -56 5 -59 10 -3 6 2 10 12 11 13 0 12 3 -7
11 -24 10 -24 10 -5 18 28 12 89 12 121 0z m1439 -9 c13 -6 -10 -9 -64 -10
-46 0 -90 -6 -97 -12 -7 -6 -21 -9 -31 -7 -14 3 -12 7 12 20 32 17 145 23 180
9z m-815 -11 c0 -5 -25 -10 -56 -10 -34 0 -53 -4 -49 -10 3 -5 16 -10 28 -11
21 0 21 -1 2 -8 -12 -5 -29 -2 -46 8 -25 14 -29 14 -48 -3 -12 -11 -21 -14
-21 -8 0 6 5 14 10 17 6 4 8 10 5 15 -3 5 32 11 77 13 46 1 86 4 91 5 4 1 7
-2 7 -8z m770 -20 c0 -13 -40 -13 -60 0 -11 7 -5 10 23 10 20 0 37 -4 37 -10z
m70 -39 c0 -28 5 -53 10 -56 6 -4 10 8 10 29 0 25 4 36 15 36 20 0 19 17 0 23
-11 4 -10 4 2 3 15 -1 18 -11 18 -51 l0 -50 -78 -3 c-50 -2 -84 1 -93 9 -22
18 2 39 47 39 40 0 61 16 35 26 -19 7 -3 44 19 44 11 0 15 -13 15 -49z m-1333
25 c3 -2 2 -9 -2 -15 -9 -16 -51 -13 -68 3 -9 9 -24 12 -37 9 -17 -4 -21 -3
-16 6 7 11 111 9 123 -3z m582 10 c-2 -2 -22 -6 -44 -9 -27 -4 -35 -3 -25 3
14 9 79 15 69 6z m354 -4 c71 -1 126 -6 123 -10 -7 -11 -300 -6 -303 5 -2 5 9
8 24 7 16 0 86 -2 156 -2z m-1505 -14 c18 -18 15 -28 -8 -28 -11 0 -20 -4 -20
-10 0 -5 13 -7 28 -4 19 4 32 1 42 -11 28 -34 -20 -50 -137 -46 l-43 1 0 39
c0 30 6 44 22 55 27 19 99 21 116 4z m108 -4 c-3 -9 -6 -22 -6 -30 0 -8 -7
-14 -16 -14 -8 0 -12 5 -9 11 4 6 1 10 -6 8 -27 -3 -37 1 -42 21 -5 18 0 20
40 20 37 0 44 -3 39 -16z m199 6 c4 -6 -23 -11 -72 -12 -74 -2 -72 -2 32 -8
l110 -6 -105 -3 c-78 -3 -95 -6 -65 -11 l40 -6 -30 -8 c-16 -4 -40 -11 -52
-16 -24 -10 -28 -4 -14 19 6 8 6 24 0 38 -8 23 -8 23 71 23 43 0 82 -4 85 -10z
m627 -32 c-8 -8 -12 -9 -12 -1 0 6 -3 20 -6 30 -7 17 -6 17 12 1 14 -14 16
-20 6 -30z m833 32 c-3 -5 -13 -10 -21 -10 -18 0 -18 -19 0 -26 8 -3 12 -13 8
-26 -4 -18 -11 -20 -59 -16 -92 8 -107 46 -30 75 40 14 110 17 102 3z m-1117
-7 c-10 -2 -26 -2 -35 0 -10 3 -2 5 17 5 19 0 27 -2 18 -5z m475 -22 c18 -18
-18 -41 -67 -43 -55 -2 -109 1 -114 7 -10 10 41 54 67 57 37 4 100 -7 114 -21z
m27 25 c0 -11 -19 -15 -25 -6 -3 5 1 10 9 10 9 0 16 -2 16 -4z m57 -2 c-3 -3
-12 -4 -19 -1 -8 3 -5 6 6 6 11 1 17 -2 13 -5z m76 -1 c-13 -2 -33 -2 -45 0
-13 2 -3 4 22 4 25 0 35 -2 23 -4z m541 -8 c4 -12 -3 -15 -32 -15 -35 1 -36 2
-18 15 25 19 42 19 50 0z m-1697 -27 c-3 -8 -6 -5 -6 6 -1 11 2 17 5 13 3 -3
4 -12 1 -19z m1358 13 c-43 -10 -335 -14 -335 -4 0 4 82 9 183 9 100 1 169 -1
152 -5z m72 3 c-3 -3 -12 -4 -19 -1 -8 3 -5 6 6 6 11 1 17 -2 13 -5z m-1022
-13 c6 0 31 2 57 5 39 5 49 3 54 -11 14 -35 -17 -46 -137 -48 -105 -2 -114 -1
-117 17 -7 32 26 48 83 42 28 -3 55 -5 60 -5z m198 2 c-13 -2 -33 -2 -45 0
-13 2 -3 4 22 4 25 0 35 -2 23 -4z m147 -7 c0 -9 -7 -12 -20 -9 -11 3 -17 9
-14 14 8 14 34 10 34 -5z m-582 -3 c-10 -2 -26 -2 -35 0 -10 3 -2 5 17 5 19 0
27 -2 18 -5z m1291 -8 c-10 -9 -342 -16 -392 -8 -39 6 2 9 168 13 217 5 233 5
224 -5z m-1488 -36 c10 -6 8 -9 -8 -9 -17 0 -23 6 -23 23 0 16 3 18 9 8 5 -7
15 -17 22 -22z m187 4 c-16 -2 -40 -2 -55 0 -16 2 -3 4 27 4 30 0 43 -2 28 -4z
m77 -3 c3 -5 -1 -10 -9 -10 -9 0 -16 5 -16 10 0 6 4 10 9 10 6 0 13 -4 16 -10z
m572 4 c-3 -3 -12 -4 -19 -1 -8 3 -5 6 6 6 11 1 17 -2 13 -5z m271 -1 c-26 -2
-71 -2 -100 0 -29 2 -8 3 47 3 55 0 79 -1 53 -3z m85 0 c-7 -2 -19 -2 -25 0
-7 3 -2 5 12 5 14 0 19 -2 13 -5z m115 0 c-16 -2 -40 -2 -55 0 -16 2 -3 4 27
4 30 0 43 -2 28 -4z m89 1 c-3 -3 -12 -4 -19 -1 -8 3 -5 6 6 6 11 1 17 -2 13
-5z m-1324 -11 c-7 -2 -21 -2 -30 0 -10 3 -4 5 12 5 17 0 24 -2 18 -5z m1775
-12 c10 -1 12 -28 9 -121 -2 -66 -7 -123 -11 -127 -4 -5 -267 -8 -584 -8 -571
0 -577 0 -574 20 1 11 8 30 14 43 10 19 8 26 -10 45 -12 12 -22 16 -22 9 0 -7
-5 -12 -11 -12 -8 0 -7 5 1 15 16 20 1 39 -26 33 -13 -2 -19 -12 -19 -31 1
-15 -4 -27 -11 -27 -6 0 -17 -7 -24 -15 -10 -12 -10 -18 0 -30 18 -22 49 -18
59 7 9 23 9 22 16 -5 15 -57 19 -56 -447 -58 -235 -2 -431 0 -434 3 -3 4 -8
61 -11 127 l-6 121 39 0 c150 0 1859 13 1861 14 2 1 170 -1 191 -3z"/>
<path d="M839 3678 c0 -2 -1 -21 -3 -43 -1 -22 -8 -86 -15 -141 -14 -100 -14
-102 10 -145 23 -41 79 -90 103 -88 6 0 2 6 -9 12 -33 20 -77 70 -91 103 -10
23 -10 48 -3 105 6 41 15 78 20 84 12 12 12 -2 -3 -65 -9 -41 -9 -56 1 -71 6
-11 9 -29 6 -40 -4 -11 -2 -19 4 -19 6 0 11 9 11 20 0 11 5 20 11 20 7 0 9
-12 5 -32 -7 -42 6 -67 27 -50 8 7 22 10 31 6 10 -4 16 -1 16 9 0 22 20 32 31
16 7 -11 9 -10 9 4 0 9 5 17 10 17 20 0 10 27 -15 40 -14 7 -25 17 -25 22 0 4
-7 8 -15 8 -14 0 -20 12 -16 34 1 5 -5 23 -13 40 -8 17 -18 55 -22 83 -3 29
-10 51 -14 48 -4 -3 -13 2 -20 10 -11 13 -29 20 -31 13z m84 -263 c-3 -9 -8
-14 -10 -11 -3 3 -2 9 2 15 9 16 15 13 8 -4z m27 -40 c0 -8 -4 -15 -10 -15 -5
0 -7 7 -4 15 4 8 8 15 10 15 2 0 4 -7 4 -15z m-39 -28 c-10 -9 -11 -8 -5 6 3
10 9 15 12 12 3 -3 0 -11 -7 -18z"/>
<path d="M1376 3663 c-2 -10 -8 -42 -11 -70 -4 -29 -11 -55 -16 -59 -5 -3 -9
-13 -9 -23 0 -15 -47 -60 -88 -85 -16 -10 -52 20 -52 43 0 9 7 25 15 35 23 30
17 44 -6 16 -16 -19 -19 -20 -15 -6 6 16 4 17 -9 6 -19 -16 -19 -22 2 -68 9
-20 15 -40 15 -44 -1 -4 5 -5 13 -2 10 4 15 0 15 -11 0 -11 5 -15 15 -11 10 4
15 -1 15 -15 0 -13 6 -19 18 -17 12 2 16 -3 14 -17 -2 -11 -9 -23 -14 -26 -7
-4 -7 -9 0 -13 10 -6 21 18 40 84 7 24 10 28 11 13 1 -12 -4 -34 -9 -49 -15
-39 -5 -41 30 -4 16 18 30 27 30 21 0 -6 5 -11 10 -11 6 0 11 21 11 48 1 26 3
39 6 30 2 -10 8 -18 13 -18 5 0 11 8 13 18 3 9 5 0 6 -20 1 -31 -6 -46 -36
-79 -21 -23 -51 -48 -68 -55 -16 -7 -23 -13 -14 -14 28 0 99 63 121 109 21 43
21 45 4 90 -10 25 -20 85 -23 134 -5 75 -8 87 -24 87 -10 0 -20 -8 -23 -17z
m23 -55 c-1 -43 -3 -47 -8 -23 -6 28 -3 75 5 75 2 0 3 -24 3 -52z m8 -90 c-3
-7 -5 -2 -5 12 0 14 2 19 5 13 2 -7 2 -19 0 -25z m-37 -17 c0 -5 3 -18 6 -28
5 -16 4 -16 -10 1 -18 23 -20 36 -6 36 6 0 10 -4 10 -9z m-23 -53 c-3 -8 -6
-5 -6 6 -1 11 2 17 5 13 3 -3 4 -12 1 -19z m-37 -5 c0 -5 -5 -15 -10 -23 -8
-12 -10 -11 -10 8 0 12 5 22 10 22 6 0 10 -3 10 -7z m67 -55 c-3 -8 -6 -5 -6
6 -1 11 2 17 5 13 3 -3 4 -12 1 -19z m-85 -10 c-7 -7 -12 -8 -12 -2 0 14 12
26 19 19 2 -3 -1 -11 -7 -17z"/>
<path d="M1035 3559 c-4 -5 3 -21 14 -35 12 -15 21 -37 21 -50 0 -13 5 -24 11
-24 8 0 9 11 5 32 -6 31 -6 31 9 13 16 -19 16 -19 11 5 -5 24 -2 26 62 38 37
7 72 18 77 24 7 7 1 9 -20 4 -95 -22 -121 -23 -152 -11 -20 9 -35 10 -38 4z"/>
<path d="M1160 3440 c0 -5 5 -10 10 -10 6 0 10 5 10 10 0 6 -4 10 -10 10 -5 0
-10 -4 -10 -10z"/>
<path d="M1022 3330 c-13 -16 -18 -30 -12 -30 5 0 10 5 10 10 0 6 8 10 17 10
9 0 13 3 10 7 -4 3 -2 12 4 20 6 7 7 13 2 13 -5 0 -19 -13 -31 -30z"/>
<path d="M1235 3330 c3 -5 8 -10 11 -10 2 0 4 5 4 10 0 6 -5 10 -11 10 -5 0
-7 -4 -4 -10z"/>
<path d="M950 3300 c0 -5 7 -7 15 -4 8 4 15 8 15 10 0 2 -7 4 -15 4 -8 0 -15
-4 -15 -10z"/>
<path d="M1198 3263 c6 -2 18 -2 25 0 6 3 1 5 -13 5 -14 0 -19 -2 -12 -5z"/>
<path d="M1990 2690 c-9 -6 -10 -10 -3 -10 6 0 15 5 18 10 8 12 4 12 -15 0z"/>
<path d="M1868 2553 c6 -2 18 -2 25 0 6 3 1 5 -13 5 -14 0 -19 -2 -12 -5z"/>
<path d="M1749 2524 c-23 -28 -18 -137 7 -171 35 -47 92 -75 144 -69 50 5 100
24 100 38 0 5 -13 2 -30 -7 -70 -36 -169 -7 -203 59 -17 32 -18 45 -9 99 5 34
9 63 7 65 -1 1 -8 -5 -16 -14z"/>
<path d="M1792 2510 c-14 -23 -15 -30 -4 -30 5 0 14 11 20 25 14 30 2 34 -16
5z"/>
<path d="M672 2449 c2 -24 10 -37 28 -46 14 -7 28 -9 34 -3 13 13 -1 57 -21
64 -10 3 -24 9 -31 12 -10 5 -13 -2 -10 -27z m48 -12 c0 -21 -12 -28 -27 -16
-19 16 -16 29 7 29 11 0 20 -6 20 -13z"/>
<path d="M1803 2464 c-3 -8 -1 -20 6 -27 8 -8 11 -4 11 16 0 30 -7 35 -17 11z"/>
<path d="M1770 2416 c0 -17 39 -66 40 -49 0 6 -4 15 -10 18 -5 3 -10 15 -10
26 0 10 -4 19 -10 19 -5 0 -10 -6 -10 -14z"/>
<path d="M1562 2378 c-17 -17 -15 -55 4 -62 30 -12 44 17 28 58 -7 19 -16 20
-32 4z m22 -33 c3 -9 0 -15 -9 -15 -8 0 -15 7 -15 15 0 8 4 15 9 15 5 0 11 -7
15 -15z"/>
<path d="M1991 2376 c-18 -21 -63 -29 -96 -16 -15 6 -30 8 -33 6 -10 -11 54
-27 83 -21 30 6 90 44 69 45 -6 0 -17 -6 -23 -14z"/>
<path d="M597 2343 c-11 -11 -8 -58 5 -71 7 -7 22 -12 35 -12 29 0 31 35 3 50
-11 6 -20 17 -20 25 0 16 -12 20 -23 8z m43 -56 c0 -16 -35 -1 -38 16 -3 16
-1 17 17 5 12 -7 21 -17 21 -21z"/>
<path d="M1849 2327 c5 -5 30 -9 56 -9 26 0 51 4 56 9 4 4 -21 8 -56 8 -35 0
-60 -4 -56 -8z"/>
<path d="M1630 2278 c0 -33 14 -51 36 -46 31 6 28 35 -5 53 -30 15 -31 15 -31
-7z m42 -23 c0 -5 -5 -11 -11 -13 -6 -2 -11 4 -11 13 0 9 5 15 11 13 6 -2 11
-8 11 -13z"/>
<path d="M2000 2270 c-12 -9 -9 -10 12 -6 30 7 78 -8 78 -24 0 -7 -9 -5 -22 4
-28 20 -39 20 -64 0 -18 -14 -18 -15 4 -4 25 12 55 1 71 -28 10 -16 10 -16 11
1 0 10 5 15 10 12 14 -9 12 8 -3 28 -15 21 -77 32 -97 17z"/>
<path d="M1920 2201 c0 -16 3 -36 6 -45 12 -30 19 -16 16 29 -4 50 -22 62 -22
16z"/>
<path d="M1954 2201 c3 -18 6 -38 6 -43 0 -5 4 -7 9 -3 6 3 6 18 1 36 -13 44
-24 51 -16 10z"/>
<path d="M1582 2168 c-17 -17 -15 -53 4 -68 12 -11 18 -11 31 2 13 14 14 20 2
47 -15 34 -20 36 -37 19z m26 -47 c3 -8 -1 -12 -9 -9 -7 2 -15 10 -17 17 -3 8
1 12 9 9 7 -2 15 -10 17 -17z"/>
<path d="M1805 2170 c3 -5 11 -10 16 -10 6 0 7 5 4 10 -3 6 -11 10 -16 10 -6
0 -7 -4 -4 -10z"/>
<path d="M676 2163 c-14 -15 -5 -63 14 -73 21 -11 40 -6 40 12 0 15 -47 68
-54 61z m34 -47 c0 -11 -19 -15 -25 -6 -3 5 1 10 9 10 9 0 16 -2 16 -4z"/>
<path d="M2080 2159 c0 -5 5 -7 10 -4 6 3 10 8 10 11 0 2 -4 4 -10 4 -5 0 -10
-5 -10 -11z"/>
<path d="M1890 2086 c0 -8 5 -18 10 -21 6 -3 10 1 10 9 0 8 -4 18 -10 21 -5 3
-10 -1 -10 -9z"/>
<path d="M1840 2069 c0 -11 5 -17 10 -14 6 3 10 13 10 21 0 8 -4 14 -10 14 -5
0 -10 -9 -10 -21z"/>
<path d="M1870 2018 c0 -8 7 -21 15 -28 19 -16 19 -1 0 24 -12 16 -15 17 -15
4z"/>
<path d="M1952 1829 c-1 -25 -13 -67 -26 -93 -20 -40 -21 -45 -5 -30 26 23 42
80 36 129 l-4 40 -1 -46z"/>
<path d="M625 1680 c-8 -25 10 -50 36 -50 26 0 24 22 -5 49 l-24 23 -7 -22z"/>
<path d="M2055 1660 c-3 -6 1 -7 9 -4 18 7 21 14 7 14 -6 0 -13 -4 -16 -10z"/>
<path d="M1772 1638 c2 -6 10 -14 16 -16 7 -2 10 2 6 12 -7 18 -28 22 -22 4z"/>
<path d="M626 1414 c-13 -33 31 -73 49 -44 6 10 -24 59 -36 60 -4 0 -10 -7
-13 -16z m34 -36 c0 -6 -7 -5 -15 2 -8 7 -15 17 -15 22 0 6 7 5 15 -2 8 -7 15
-17 15 -22z"/>
<path d="M560 1320 c0 -5 10 -15 23 -21 12 -7 25 -17 29 -23 5 -7 8 -5 8 5 0
9 -11 24 -25 33 -28 18 -35 20 -35 6z"/>
<path d="M556 1286 c3 -8 13 -17 21 -20 26 -10 25 0 -1 18 -20 13 -24 13 -20
2z"/>
<path d="M662 1138 c4 -28 56 -45 65 -21 7 18 -21 43 -50 43 -13 0 -18 -6 -15
-22z"/>
<path d="M640 794 c-17 -20 -2 -48 29 -52 27 -4 29 28 2 52 -17 15 -19 15 -31
0z m30 -35 c0 -6 -4 -7 -10 -4 -5 3 -10 11 -10 16 0 6 5 7 10 4 6 -3 10 -11
10 -16z"/>
<path d="M1120 3070 c0 -28 -3 -30 -35 -30 -24 0 -35 -5 -35 -14 0 -11 9 -13
34 -9 28 4 35 2 40 -15 4 -11 5 -24 4 -28 -2 -5 2 -10 7 -11 6 -2 10 5 11 15
3 43 4 45 34 39 24 -5 30 -3 30 11 0 13 -8 17 -32 17 -30 0 -33 3 -31 28 1 18
-3 27 -13 27 -9 0 -14 -11 -14 -30z"/>
<path d="M1068 2813 c17 -2 47 -2 65 0 17 2 3 4 -33 4 -36 0 -50 -2 -32 -4z"/>
<path d="M1180 2808 c0 -4 7 -8 15 -8 8 0 15 4 15 8 0 5 -7 9 -15 9 -8 0 -15
-4 -15 -9z"/>
<path d="M1044 2773 c9 -28 10 -119 2 -131 -5 -8 3 -12 23 -12 25 0 31 4 31
21 0 28 18 59 34 59 8 0 30 -18 50 -40 22 -24 45 -40 58 -40 22 0 23 3 20 75
-3 64 -6 75 -21 75 -15 0 -17 -6 -11 -45 4 -25 4 -45 -1 -45 -4 0 -21 16 -39
36 l-31 36 -28 -26 c-15 -14 -30 -26 -34 -26 -4 0 -7 18 -7 40 0 36 -2 40 -26
40 -20 0 -24 -4 -20 -17z"/>
<path d="M1151 2592 c-1 -7 -5 -10 -11 -7 -5 3 -10 -1 -10 -10 0 -9 4 -14 9
-10 5 3 12 1 16 -5 8 -13 75 -13 75 0 0 5 -13 7 -30 4 -25 -5 -31 -3 -39 17
-5 13 -10 18 -10 11z"/>
<path d="M915 2418 c-12 -30 -1 -63 23 -66 16 -3 22 2 22 17 0 11 -6 24 -14
28 -7 4 -15 15 -18 23 -5 13 -7 12 -13 -2z m35 -50 c0 -13 -23 -5 -28 10 -2 7
2 10 12 6 9 -3 16 -11 16 -16z"/>
<path d="M917 2273 c-21 -20 12 -93 42 -93 21 0 20 35 -1 66 -24 35 -30 39
-41 27z m43 -60 c0 -13 -3 -13 -15 -3 -8 7 -15 16 -15 21 0 5 7 6 15 3 8 -4
15 -13 15 -21z"/>
<path d="M1115 2280 c-3 -5 -1 -10 4 -10 6 0 11 5 11 10 0 6 -2 10 -4 10 -3 0
-8 -4 -11 -10z"/>
<path d="M1144 2166 c-8 -22 3 -33 18 -18 9 9 9 15 0 24 -9 9 -13 7 -18 -6z"/>
<path d="M1140 2044 c0 -17 22 -14 28 4 2 7 -3 12 -12 12 -9 0 -16 -7 -16 -16z"/>
<path d="M1040 1940 c0 -5 11 -10 24 -10 14 0 28 5 31 10 4 6 -7 10 -24 10
-17 0 -31 -4 -31 -10z"/>
<path d="M1014 1911 c3 -5 -4 -12 -17 -16 -21 -7 -20 -8 8 -14 39 -9 63 -3 76
20 9 17 6 19 -31 19 -23 0 -39 -4 -36 -9z"/>
<path d="M1160 1523 c0 -3 8 -16 18 -27 16 -20 16 -20 -2 -6 -18 14 -19 13
-13 -3 4 -10 7 -21 7 -23 0 -2 9 -4 20 -4 23 0 26 26 6 53 -13 17 -36 24 -36
10z"/>
<path d="M1027 1414 c-22 -22 11 -84 45 -84 15 0 8 41 -8 47 -9 3 -19 14 -23
25 -4 10 -10 16 -14 12z"/>
<path d="M920 954 c-11 -12 -11 -17 1 -29 21 -20 53 -23 57 -4 3 16 -22 49
-37 49 -5 0 -14 -7 -21 -16z m38 -23 c3 -8 -1 -12 -9 -9 -7 2 -15 10 -17 17
-3 8 1 12 9 9 7 -2 15 -10 17 -17z"/>
<path d="M923 840 c-15 -23 -10 -41 18 -59 28 -17 50 1 31 27 -7 9 -15 25 -18
35 -8 22 -16 22 -31 -3z m32 -31 c11 -17 -1 -21 -15 -4 -8 9 -8 15 -2 15 6 0
14 -5 17 -11z"/>
<path d="M1052 832 c-22 -7 -12 -37 18 -55 28 -17 31 -17 36 -2 8 19 -34 64
-54 57z m38 -44 c0 -6 -6 -5 -15 2 -8 7 -15 14 -15 16 0 2 7 1 15 -2 8 -4 15
-11 15 -16z"/>
<path d="M1330 1306 c-28 -35 11 -94 44 -66 15 11 15 15 1 30 -8 9 -15 24 -15
33 0 21 -14 22 -30 3z m25 -46 c3 -5 1 -10 -4 -10 -6 0 -11 5 -11 10 0 6 2 10
4 10 3 0 8 -4 11 -10z"/>
<path d="M1320 1170 c-8 -14 -8 -26 0 -40 11 -21 19 -24 44 -14 21 8 20 24 -3
52 -23 27 -27 27 -41 2z m40 -32 c0 -13 -23 -5 -28 10 -2 7 2 10 12 6 9 -3 16
-11 16 -16z"/>
<path d="M1322 798 c-19 -19 -14 -34 15 -47 33 -15 46 1 30 36 -11 25 -27 29
-45 11z m34 -35 c-7 -7 -26 7 -26 19 0 6 6 6 15 -2 9 -7 13 -15 11 -17z"/>
<path d="M1560 1298 c0 -9 12 -26 26 -37 29 -23 44 -27 44 -11 0 6 -6 10 -14
10 -8 0 -24 12 -35 28 -15 20 -20 23 -21 10z"/>
<path d="M1622 1143 c4 -33 55 -65 68 -43 12 20 1 38 -33 55 -39 20 -39 20
-35 -12z m58 -23 c0 -13 -37 -13 -45 0 -3 6 -3 15 0 20 7 12 45 -5 45 -20z"/>
<path d="M1524 951 c-1 -65 2 -105 7 -91 9 33 11 182 1 196 -4 7 -7 -40 -8
-105z"/>
<path d="M1570 995 c-10 -12 -10 -18 0 -30 7 -8 18 -15 24 -14 7 0 6 2 -1 6
-15 6 -18 43 -3 43 5 0 13 -12 16 -26 5 -18 9 -22 14 -13 9 14 -9 49 -26 49
-6 0 -17 -7 -24 -15z"/>
<path d="M1563 854 c-13 -34 26 -64 57 -45 12 8 9 14 -13 35 -33 31 -36 31
-44 10z m47 -34 c0 -14 -14 -12 -28 2 -19 19 -14 30 8 18 11 -6 20 -15 20 -20z"/>
<path d="M1680 789 c-10 -17 -9 -24 4 -37 13 -14 14 -13 9 8 -5 20 -4 21 16
11 11 -7 21 -16 21 -21 0 -6 5 -10 10 -10 19 0 9 25 -20 48 l-29 23 -11 -22z"/>
<path d="M1607 1523 c-11 -10 -8 -81 3 -88 6 -4 10 13 10 44 0 52 -1 56 -13
44z"/>
<path d="M1635 1507 c-4 -10 -5 -21 -1 -24 10 -10 18 4 13 24 -4 17 -4 17 -12
0z"/>
<path d="M1636 1424 c-4 -10 4 -26 24 -44 33 -30 73 -42 104 -30 16 6 13 8
-16 8 -45 0 -83 25 -83 54 0 26 -20 35 -29 12z"/>
<path d="M1780 1370 c19 -13 30 -13 30 0 0 6 -10 10 -22 10 -19 0 -20 -2 -8
-10z"/>
<path d="M2081 1364 c-1 -14 7 -24 19 -27 13 -3 20 0 20 9 0 8 -6 14 -14 14
-8 0 -17 6 -19 13 -3 6 -6 2 -6 -9z"/>
<path d="M1744 1299 c-3 -6 -1 -16 5 -22 8 -8 11 -5 11 11 0 24 -5 28 -16 11z"/>
<path d="M1795 1300 c3 -5 14 -10 23 -10 15 0 15 2 2 10 -20 13 -33 13 -25 0z"/>
<path d="M2091 1268 c-12 -33 -57 -88 -73 -88 -5 0 -6 5 -2 11 5 8 1 8 -14 0
-12 -6 -38 -15 -59 -20 -33 -8 -35 -9 -10 -10 16 -1 37 4 49 10 11 6 22 8 25
6 11 -12 -41 -28 -95 -29 -39 0 -51 -3 -37 -9 52 -21 124 0 180 52 25 23 47
53 50 70 9 42 0 47 -14 7z"/>
<path d="M1770 1225 c0 -8 4 -15 10 -15 5 0 7 7 4 15 -4 8 -8 15 -10 15 -2 0
-4 -7 -4 -15z"/>
<path d="M2040 1225 c-8 -9 -8 -15 -2 -15 12 0 26 19 19 26 -2 2 -10 -2 -17
-11z"/>
<path d="M1814 1186 c11 -9 29 -16 40 -16 17 1 18 2 6 9 -8 5 -26 12 -40 15
-24 7 -24 6 -6 -8z"/>
<path d="M2000 1542 c6 -13 14 -21 18 -18 3 4 -2 14 -12 24 -18 16 -18 16 -6
-6z"/>
<path d="M2000 1479 c0 -5 5 -7 10 -4 6 3 10 8 10 11 0 2 -4 4 -10 4 -5 0 -10
-5 -10 -11z"/>
<path d="M840 608 c0 -10 -8 -18 -17 -18 -17 -1 -17 -1 0 -14 11 -9 17 -27 17
-55 0 -23 4 -40 9 -36 12 7 12 107 0 126 -7 11 -9 11 -9 -3z"/>
<path d="M663 633 c39 -4 49 -18 20 -26 -10 -3 -3 -5 15 -6 26 -1 32 3 32 19
0 18 -6 20 -52 18 -44 -1 -46 -2 -15 -5z"/>
<path d="M678 533 c12 -2 30 -2 40 0 9 3 -1 5 -23 4 -22 0 -30 -2 -17 -4z"/>
<path d="M908 603 c6 -2 18 -2 25 0 6 3 1 5 -13 5 -14 0 -19 -2 -12 -5z"/>
<path d="M1330 560 c0 -5 14 -10 30 -10 17 0 30 5 30 10 0 6 -13 10 -30 10
-16 0 -30 -4 -30 -10z"/>
<path d="M995 490 c3 -5 37 -10 76 -10 39 0 69 4 69 10 0 6 -32 10 -76 10 -47
0 -73 -4 -69 -10z"/>
<path d="M370 470 c0 -5 5 -10 10 -10 6 0 10 5 10 10 0 6 -4 10 -10 10 -5 0
-10 -4 -10 -10z"/>
<path d="M245 380 c3 -5 13 -10 21 -10 8 0 14 5 14 10 0 6 -9 10 -21 10 -11 0
-17 -4 -14 -10z"/>
<path d="M1386 222 c-3 -5 0 -23 6 -40 22 -59 -33 -115 -62 -63 -13 25 -13 68
0 76 22 13 8 25 -30 25 -22 0 -40 -4 -40 -10 0 -5 4 -10 9 -10 5 0 11 -25 13
-56 5 -63 23 -84 68 -84 43 0 68 36 72 105 2 49 0 60 -14 63 -9 2 -19 -1 -22
-6z"/>
<path d="M1475 221 c-3 -5 -1 -12 5 -16 5 -3 10 -35 10 -70 0 -70 7 -81 48
-70 15 4 21 10 15 12 -7 3 -13 18 -13 34 0 23 5 29 21 29 50 0 78 47 47 78
-14 14 -124 16 -133 3z m89 -17 c28 -11 13 -44 -20 -44 -2 0 -4 11 -4 25 0 27
1 28 24 19z"/>
<path d="M1678 219 c-22 -12 -23 -42 -4 -58 8 -7 31 -15 51 -18 30 -5 35 -10
33 -27 -4 -28 -39 -32 -63 -6 -23 26 -33 25 -44 -2 -5 -13 -10 -27 -12 -33 -4
-8 36 -8 121 -1 13 2 33 14 43 28 15 21 17 30 8 47 -10 17 -21 21 -60 21 -35
0 -51 4 -55 16 -13 33 25 49 42 18 10 -19 32 -11 32 12 0 17 -65 19 -92 3z"/>
<path d="M260 143 c-45 -96 -43 -93 -32 -93 6 0 22 20 36 45 28 47 65 62 67
28 1 -10 2 -29 2 -43 2 -18 8 -25 25 -26 21 -1 22 2 22 82 l0 84 -42 0 -43 -1
-35 -76z m66 20 c-11 -11 -17 4 -9 23 7 18 8 18 11 1 2 -10 1 -21 -2 -24z"/>
<path d="M448 204 c-79 -42 -25 -157 66 -140 38 7 74 31 63 42 -4 4 -13 2 -19
-4 -29 -29 -98 -1 -98 40 0 20 26 42 40 33 15 -9 40 13 33 31 -7 18 -50 17
-85 -2z"/>
<path d="M590 156 c0 -35 -3 -71 -6 -80 -5 -13 3 -16 49 -16 37 0 59 5 67 15
16 20 5 32 -14 16 -21 -18 -60 -10 -64 13 -5 25 16 46 27 27 11 -18 25 4 17
26 -5 12 -9 13 -21 3 -13 -11 -15 -8 -15 15 0 24 3 26 31 23 17 -2 32 2 33 7
0 6 -23 11 -51 13 l-53 3 0 -65z"/>
<path d="M1123 208 c-28 -13 -47 -73 -32 -99 5 -11 21 -26 35 -35 30 -20 99
-14 123 12 15 16 15 16 -2 10 -50 -17 -68 -17 -92 -2 -30 20 -32 46 -5 77 17
21 21 22 30 9 7 -12 13 -12 27 -4 10 6 18 17 18 25 0 18 -71 23 -102 7z"/>
<path d="M1865 100 c-8 -12 20 -24 35 -15 5 3 10 10 10 16 0 12 -37 12 -45 -1z"/>
</g>
</svg>
