<?xml version="1.0" standalone="no"?>
<!DOCTYPE svg PUBLIC "-//W3C//DTD SVG 20010904//EN"
 "http://www.w3.org/TR/2001/REC-SVG-20010904/DTD/svg10.dtd">
<svg version="1.0" xmlns="http://www.w3.org/2000/svg"
 width="223.000000pt" height="392.000000pt" viewBox="0 0 223.000000 392.000000"
 preserveAspectRatio="xMidYMid meet">
<metadata>
Created by potrace 1.16, written by Peter Selinger 2001-2019
</metadata>
<g transform="translate(0.000000,392.000000) scale(0.100000,-0.100000)"
fill="#000000" stroke="none">
<path d="M39 3894 c-11 -14 -14 -101 -15 -468 -4 -1124 -16 -3202 -19 -3310
l-4 -118 1099 4 c605 2 1102 6 1104 9 3 3 7 875 10 1939 3 1064 2 1922 -3
1905 -4 -16 -8 -210 -9 -430 -12 -2535 -12 -2518 -24 -2531 -9 -9 -68 6 -68
17 0 5 4 9 9 9 5 0 12 7 15 15 6 17 -40 95 -56 95 -5 0 -22 -10 -39 -22 -26
-20 -30 -27 -24 -55 5 -26 2 -33 -10 -33 -9 0 -15 9 -15 24 0 13 -7 29 -15 36
-8 7 -15 18 -15 25 0 7 -24 37 -53 67 -92 92 -101 116 -99 239 2 58 5 67 22
72 11 3 23 1 26 -4 10 -17 28 -7 91 48 14 12 33 25 43 28 27 9 47 53 32 73
-25 36 -42 72 -33 72 5 0 11 -10 14 -22 4 -12 9 -19 13 -16 6 6 -8 60 -26 103
-4 11 -18 60 -30 110 -12 49 -39 123 -61 165 -45 88 -48 106 -16 121 29 13 72
98 81 157 7 44 14 62 54 124 23 35 24 41 13 103 -7 36 -16 77 -21 90 -13 33
-117 139 -157 159 -41 21 -63 56 -34 56 13 0 20 9 23 30 2 16 0 32 -6 34 -7 3
-6 5 2 5 6 1 12 14 12 30 0 22 -13 43 -48 79 -83 85 -138 100 -227 62 -26 -11
-55 -20 -64 -20 -24 0 -47 -28 -54 -67 -7 -34 8 -56 16 -26 4 17 5 17 6 1 0
-10 5 -18 10 -18 5 0 15 -29 22 -65 7 -37 18 -65 25 -65 7 0 21 -17 32 -37 15
-30 25 -37 43 -35 17 1 5 -11 -40 -40 -53 -35 -78 -61 -87 -86 0 -1 -37 3 -81
9 -65 9 -92 8 -137 -4 -53 -13 -56 -13 -56 5 0 10 -7 29 -15 42 -15 22 -14 24
11 40 58 39 70 127 24 180 l-30 34 45 22 c61 29 105 84 105 130 0 20 -5 41
-12 48 -25 25 -88 3 -88 -31 0 -18 24 -29 45 -21 21 9 19 -8 -8 -47 -22 -32
-80 -79 -99 -79 -5 0 -8 30 -7 68 2 37 0 72 -4 78 -4 7 2 23 13 37 21 27 27
57 10 57 -5 0 -10 -6 -10 -14 0 -16 -28 -41 -37 -33 -3 4 -1 13 6 20 6 8 9 22
5 31 -5 13 1 16 29 16 20 0 39 5 42 11 11 16 -3 23 -19 10 -8 -7 -25 -11 -38
-9 -16 3 -1 11 50 27 77 24 102 23 102 -6 1 -17 2 -17 15 1 13 17 13 22 -1 37
-9 10 -11 20 -6 23 17 10 36 -25 34 -61 -2 -22 1 -32 8 -28 5 3 10 15 10 26 0
10 5 19 10 19 6 0 15 10 21 23 8 18 19 23 52 23 23 0 85 13 137 28 108 32 224
40 255 19 23 -15 61 -17 70 -3 3 6 16 10 29 10 12 0 27 5 33 11 7 7 22 9 40 4
53 -14 113 -14 113 1 0 22 -22 64 -31 58 -5 -3 -24 5 -43 18 -27 19 -31 25
-20 35 10 10 16 9 28 -9 9 -12 18 -19 21 -16 11 11 -140 152 -181 170 -16 7
-35 18 -42 25 -7 7 -21 13 -31 13 -9 0 -22 5 -29 12 -9 9 -12 9 -12 0 0 -7 -7
-12 -16 -12 -8 0 -12 -4 -9 -10 3 -5 2 -10 -3 -10 -6 0 -13 7 -16 16 -4 11
-19 15 -53 14 -27 -1 -60 2 -75 5 -18 5 -28 3 -28 -4 0 -6 -7 -11 -15 -11 -8
0 -15 -9 -15 -20 0 -11 -6 -20 -13 -20 -10 0 -13 -13 -12 -45 1 -31 -3 -45
-12 -45 -7 0 -13 -5 -13 -11 0 -6 -10 -20 -22 -31 -16 -13 -19 -21 -10 -24 16
-7 16 -22 0 -21 -37 1 -58 -4 -53 -13 9 -14 48 -12 70 4 22 16 45 11 45 -10 0
-8 -11 -14 -27 -15 -17 -1 -21 -3 -10 -6 9 -2 17 -9 17 -15 0 -10 -17 -8 -52
7 -13 5 -18 2 -18 -10 0 -17 -1 -17 -18 -1 -26 23 -21 67 11 102 39 42 57 86
57 141 0 42 4 51 32 76 l33 27 -30 -12 c-44 -17 -55 -37 -54 -88 2 -50 -23
-115 -51 -130 -29 -15 -63 29 -58 77 l3 38 -42 0 c-35 0 -40 2 -32 16 7 14 0
18 -49 25 -31 5 -68 8 -82 7 -13 -1 -34 7 -47 19 -19 18 -23 19 -28 6 -4 -9
-26 -21 -51 -28 -24 -7 -44 -18 -44 -26 0 -8 -15 -14 -37 -16 -25 -2 -38 -8
-39 -18 -1 -8 -2 -25 -3 -37 0 -13 -7 -23 -15 -23 -23 0 -47 -30 -41 -51 10
-30 -1 -22 -24 16 -18 32 -19 41 -9 79 10 38 9 48 -8 81 -25 48 -81 69 -129
49 -17 -7 -43 -13 -58 -14 -25 0 -51 -10 -122 -46 -69 -36 -132 -64 -143 -64
-6 0 -29 -17 -51 -38 -50 -48 -170 -277 -153 -294 8 -8 20 -5 45 10 19 11 50
23 68 27 19 4 50 15 69 25 63 32 180 57 180 39 0 -7 12 -9 30 -7 19 3 31 0 35
-10 5 -14 75 -13 120 2 15 5 30 -1 54 -25 29 -27 38 -31 72 -26 29 4 39 2 39
-9 0 -8 10 -14 27 -14 25 0 26 0 8 -20 -18 -19 -17 -20 3 -20 12 0 22 -4 22
-9 0 -5 10 -13 23 -17 12 -4 33 -15 46 -25 13 -11 33 -19 45 -19 35 -1 58 -26
62 -67 9 -87 10 -135 2 -139 -13 -8 -54 25 -82 65 -29 41 -32 53 -13 46 21 -8
40 11 33 33 -7 22 -67 47 -91 38 -21 -8 -19 -52 5 -101 22 -46 51 -76 93 -98
l27 -14 -35 -27 c-32 -25 -35 -32 -35 -77 0 -52 17 -90 56 -124 20 -17 22 -25
15 -50 -5 -18 -14 -29 -22 -27 -85 21 -240 8 -283 -24 -18 -13 -18 -15 -3 -32
19 -21 55 -132 66 -204 8 -45 6 -51 -15 -65 -14 -8 -32 -12 -44 -8 -12 4 -27
1 -35 -5 -12 -10 -22 4 -60 86 -62 134 -119 219 -156 234 -34 15 -36 43 -2 48
13 2 24 13 27 28 4 13 15 33 26 44 12 12 20 32 19 52 -1 18 4 51 10 73 6 22
13 57 16 77 l4 37 -47 8 c-26 4 -84 8 -129 8 -93 0 -115 -11 -170 -86 -36 -50
-40 -73 -15 -89 16 -11 16 -11 0 -6 -10 3 -18 1 -18 -4 0 -6 5 -10 10 -10 6 0
8 -11 4 -25 -4 -16 -2 -25 5 -25 7 0 11 -6 10 -12 -3 -27 2 -38 17 -38 28 0
12 -44 -23 -60 -67 -32 -65 -15 -83 -525 -6 -165 -13 -336 -15 -380 -3 -44 -6
-230 -6 -413 0 -327 0 -332 -20 -332 -11 0 -28 -4 -37 -9 -9 -4 -39 -11 -66
-14 l-48 -5 6 117 c3 64 6 701 7 1416 0 715 3 1344 6 1398 l6 97 1042 -6 c573
-4 1059 -3 1081 1 l39 8 -35 8 c-19 4 -505 8 -1081 8 -964 1 -1047 0 -1060
-15z m767 -295 c26 -21 34 -54 22 -92 -8 -27 -8 -43 1 -64 15 -35 56 -83 71
-83 6 0 8 -5 5 -10 -9 -14 -66 -8 -72 8 -4 8 -13 10 -27 6 -18 -6 -19 -5 -8 8
12 15 7 48 -8 48 -4 0 -7 15 -6 33 1 30 -1 32 -28 29 -16 -2 -40 -11 -52 -19
-13 -8 -31 -13 -41 -11 -12 3 -3 11 31 26 27 12 55 22 63 22 9 0 13 6 9 15 -3
8 -1 15 4 15 6 0 10 9 10 20 0 13 -7 20 -19 20 -10 0 -22 7 -25 16 -3 8 -11
12 -17 8 -7 -4 -26 -8 -43 -9 -17 -1 -49 -5 -71 -9 l-40 -7 27 16 c15 8 45 16
68 17 22 1 44 6 47 11 8 12 80 2 99 -14z m839 -29 c3 -5 1 -10 -4 -10 -6 0
-11 5 -11 10 0 6 2 10 4 10 3 0 8 -4 11 -10z m85 2 c0 -4 16 -14 35 -21 19 -7
35 -19 35 -27 0 -18 1 -18 -51 5 -24 10 -53 22 -64 26 l-20 7 20 8 c26 11 45
12 45 2z m143 -20 c28 -24 20 -35 -13 -16 -33 20 -49 47 -22 37 9 -3 25 -13
35 -21z m-1252 2 c-19 -8 -42 -13 -50 -11 -9 2 -1 8 19 14 52 16 70 14 31 -3z
m650 -7 c-15 -15 -14 -42 3 -56 12 -10 17 -8 25 7 11 20 55 37 71 27 6 -3 5
-16 -1 -31 -8 -22 -5 -31 21 -60 41 -47 41 -66 0 -44 -13 7 -21 6 -29 -4 -10
-11 -7 -19 13 -38 14 -12 28 -36 32 -52 7 -27 6 -28 -25 -21 -20 4 -31 3 -31
-4 0 -6 -4 -11 -9 -11 -5 0 -3 14 6 30 8 18 12 38 8 48 -6 13 -9 10 -15 -16
-7 -29 -52 -81 -84 -97 -8 -3 -7 -7 2 -11 10 -5 9 -9 -5 -20 -24 -18 -53 -18
-53 1 0 16 15 21 23 8 2 -5 2 -3 1 4 -2 7 1 15 6 18 18 11 10 35 -11 35 -11 0
-18 -4 -14 -9 8 -15 -13 -24 -40 -17 -15 4 -22 11 -19 20 3 8 1 29 -4 48 -6
21 -5 39 1 49 6 10 7 24 2 35 -8 18 -9 17 -12 -3 -5 -26 -6 -26 -49 -14 -18 5
-37 5 -45 0 -11 -7 -8 -14 15 -32 17 -14 38 -22 48 -19 13 3 18 -1 18 -16 0
-12 5 -24 11 -28 8 -5 7 -10 -4 -16 -13 -7 -14 -13 -5 -33 6 -15 16 -21 25
-18 11 4 14 0 11 -13 -5 -24 -46 -21 -69 6 -14 16 -16 16 -26 1 -6 -9 -14 -12
-19 -7 -5 5 -4 11 4 13 6 3 10 9 6 14 -3 5 3 9 13 9 15 0 16 2 3 10 -8 5 -32
10 -52 10 -38 0 -54 12 -43 31 5 6 12 4 20 -7 8 -12 18 -15 31 -10 18 7 17 8
-5 25 -19 15 -23 24 -17 47 4 16 8 39 8 51 0 22 1 22 30 7 17 -9 27 -11 23 -5
-3 6 -23 18 -42 26 -39 16 -53 9 -53 -27 0 -18 -33 -42 -44 -31 -3 3 -6 13 -6
21 0 12 3 12 15 2 13 -11 14 -8 9 19 -5 25 -3 31 11 31 13 0 16 5 11 26 -11
41 1 64 34 64 16 0 32 -4 35 -10 3 -5 15 -10 26 -10 10 0 24 -9 31 -20 16 -25
28 -26 28 0 0 13 5 18 15 14 8 -4 15 -13 15 -21 0 -8 5 -11 10 -8 17 11 11 33
-11 40 -33 11 -21 49 16 52 29 3 29 2 8 -9 -23 -11 -32 -38 -13 -38 6 0 10 7
10 15 0 8 4 15 9 15 5 0 7 -9 4 -20 -6 -21 10 -26 41 -14 25 10 19 26 -6 19
-23 -7 -23 -7 2 17 15 15 33 23 43 20 13 -3 15 -8 8 -15z m-566 -6 c-3 -6 -11
-11 -17 -11 -6 0 -6 6 2 15 14 17 26 13 15 -4z m365 3 c0 -17 -22 -14 -28 4
-2 7 3 12 12 12 9 0 16 -7 16 -16z m-530 -3 c0 -5 -16 -19 -35 -32 -19 -13
-35 -32 -35 -41 0 -21 -56 -86 -65 -76 -4 4 8 21 26 39 29 27 31 31 12 26 -39
-9 -28 29 19 63 39 29 78 39 78 21z m100 -35 c-29 -42 -60 -63 -60 -41 0 16
69 89 77 81 3 -3 -5 -21 -17 -40z m1039 18 c3 -4 -10 -4 -30 -1 -21 3 -41 1
-48 -6 -8 -8 -11 -7 -11 5 0 9 6 18 13 21 13 4 66 -9 76 -19z m-563 -21 c-3
-3 -13 -3 -22 1 -13 5 -14 9 -3 22 11 14 13 14 22 -1 5 -9 6 -19 3 -22z m-542
-9 c-23 -30 -70 -64 -89 -64 -23 0 46 77 83 92 32 13 33 8 6 -28z m140 11
c-10 -8 -26 -14 -34 -15 -8 0 -2 9 15 20 33 22 49 18 19 -5z m1052 -16 c8 -13
-30 -11 -61 3 -17 7 -22 14 -14 19 13 8 66 -8 75 -22z m120 -4 c16 -13 25 -27
21 -31 -11 -11 -81 30 -85 49 -4 21 26 12 64 -18z m88 9 c15 -14 26 -27 24
-29 -5 -6 -68 38 -68 48 0 13 14 7 44 -19z m-1584 -12 c0 -5 -14 -21 -31 -38
-31 -28 -31 -24 1 24 15 22 30 29 30 14z m1230 -2 c0 -5 -4 -10 -10 -10 -5 0
-10 5 -10 10 0 6 5 10 10 10 6 0 10 -4 10 -10z m120 -10 c12 0 18 -4 15 -10
-3 -5 -28 -10 -56 -10 -47 0 -48 1 -31 18 12 13 22 16 34 10 9 -4 26 -8 38 -8z
m281 -35 c10 -4 19 -13 19 -20 0 -26 -68 11 -94 50 l-16 24 36 -24 c19 -13 44
-27 55 -30z m-192 21 c33 -21 81 -80 81 -100 0 -27 -78 37 -109 89 -11 19 -18
35 -15 35 2 0 22 -11 43 -24z m146 -44 c-2 -2 -15 -2 -28 2 -19 4 -25 12 -23
30 l1 25 27 -26 c15 -15 26 -29 23 -31z m-1225 38 c0 -5 -6 -10 -12 -10 -7 0
-24 -3 -38 -6 -22 -4 -21 -3 5 10 37 18 45 19 45 6z m-195 -30 c-18 -20 -102
-47 -113 -36 -9 9 26 36 47 36 9 1 27 7 41 14 31 18 46 10 25 -14z m1245 0
c12 -16 20 -30 18 -30 -3 0 -24 10 -49 21 -38 19 -41 23 -24 30 31 12 32 11
55 -21z m-1428 -10 c-32 -30 -62 -39 -62 -20 0 6 5 10 11 10 6 0 22 9 36 20
40 31 52 23 15 -10z m257 16 c13 -15 -4 -26 -42 -26 -20 0 -20 0 -1 19 23 24
28 25 43 7z m1001 4 c9 -6 10 -10 3 -10 -6 0 -17 -2 -25 -5 -7 -3 -22 1 -33 9
-19 15 -19 15 10 16 17 0 37 -5 45 -10z m64 4 c22 -9 20 -24 -3 -24 -21 0 -34
13 -24 24 8 7 8 7 27 0z m-924 -49 c0 -20 -7 -26 -40 -35 -26 -7 -46 -7 -57
-1 -19 10 -21 9 62 26 34 7 32 25 -2 26 l-28 1 25 7 c32 10 40 5 40 -24z m-80
10 c0 -8 -7 -15 -15 -15 -13 0 -14 3 -3 15 16 18 18 18 18 0z m1045 6 c-2 -2
7 -15 21 -29 32 -36 31 -42 -13 -42 -32 0 -35 2 -19 13 31 23 10 49 -38 46
-58 -3 -74 0 -59 9 11 7 115 11 108 3z m-737 -26 c-3 -3 -9 2 -12 12 -6 14 -5
15 5 6 7 -7 10 -15 7 -18z m582 15 c0 -5 -12 -10 -26 -10 -14 0 -23 4 -19 10
3 6 15 10 26 10 10 0 19 -4 19 -10z m430 -6 c0 -11 -5 -14 -16 -10 -9 3 -18 6
-20 6 -3 0 -2 5 1 10 10 16 35 12 35 -6z m-1580 -14 c3 0 -11 -11 -31 -23 -20
-12 -47 -35 -62 -52 -14 -16 -28 -27 -32 -23 -4 3 5 17 20 30 15 13 33 35 41
50 14 26 19 28 64 18z m110 -10 c-19 -4 -39 -4 -45 -1 -15 8 37 18 60 12 15
-4 12 -7 -15 -11z m1297 -5 c49 -32 73 -55 73 -72 0 -25 -25 -12 -85 42 -64
58 -57 75 12 30z m-1493 -9 c-6 -16 -24 -23 -24 -8 0 10 22 33 27 28 2 -2 1
-11 -3 -20z m1290 -10 c10 -3 16 -9 13 -12 -8 -8 -67 25 -67 38 0 7 7 5 18 -4
9 -8 26 -18 36 -22z m76 24 c0 -13 -30 -13 -50 0 -11 7 -7 10 18 10 17 0 32
-4 32 -10z m366 -35 c-4 -14 -1 -25 7 -28 6 -3 2 -6 -11 -6 -13 -1 -21 3 -17
9 3 5 -14 19 -37 32 -38 20 -40 23 -20 26 13 2 32 -4 41 -12 26 -24 37 -19 15
5 -19 22 -19 22 4 10 18 -10 22 -18 18 -36z m-1641 8 c-34 -25 -55 -34 -55
-24 0 11 63 50 70 44 3 -3 -4 -11 -15 -20z m193 -15 c-42 -8 -47 -3 -17 21 22
19 25 19 37 3 11 -15 9 -18 -20 -24z m-93 12 c-28 -12 -67 -12 -60 0 3 6 23
10 43 9 30 0 33 -2 17 -9z m240 0 c-3 -5 -10 -10 -16 -10 -5 0 -9 5 -9 10 0 6
7 10 16 10 8 0 12 -4 9 -10z m175 2 c0 -5 -6 -16 -13 -27 -16 -20 -33 -5 -23
20 6 16 36 21 36 7z m740 -1 c0 -5 -7 -14 -15 -21 -16 -14 -18 -10 -9 14 6 17
24 22 24 7z m276 -1 c8 0 14 -5 14 -10 0 -6 -12 -8 -27 -5 l-28 5 29 -14 c17
-8 24 -16 18 -20 -12 -7 -62 20 -62 33 0 14 14 22 28 16 7 -3 20 -5 28 -5z
m-1246 -9 c0 -9 -15 -15 -62 -26 -17 -4 39 28 60 34 1 1 2 -3 2 -8z m880 0 c0
-6 -4 -13 -10 -16 -5 -3 -10 1 -10 9 0 9 5 16 10 16 6 0 10 -4 10 -9z m216
-28 c-5 -5 -11 -3 -13 3 -2 7 -20 10 -47 7 -25 -3 -46 -1 -50 5 -4 7 8 11 34
10 23 0 44 3 47 6 4 4 14 0 22 -9 8 -8 11 -18 7 -22z m318 -4 c-2 -4 -13 -1
-24 8 -10 9 -17 21 -13 25 3 5 13 2 24 -8 10 -9 16 -20 13 -25z m-1859 21 c3
-5 1 -10 -4 -10 -6 0 -11 5 -11 10 0 6 2 10 4 10 3 0 8 -4 11 -10z m195 -6 c0
-2 -12 -4 -27 -4 -21 0 -24 3 -14 9 13 8 41 5 41 -5z m395 6 l30 0 -24 -19
c-18 -14 -21 -20 -10 -24 10 -4 9 -6 -4 -6 -12 -1 -17 5 -15 17 2 13 -5 18
-30 20 -19 2 -30 8 -26 14 3 5 16 7 28 4 11 -3 35 -6 51 -6z m1155 0 c0 -5 -4
-10 -10 -10 -5 0 -10 5 -10 10 0 6 5 10 10 10 6 0 10 -4 10 -10z m-1483 -6
c-3 -3 -12 -4 -19 -1 -8 3 -5 6 6 6 11 1 17 -2 13 -5z m193 -18 c-27 -14 -89
-31 -79 -22 7 7 81 34 94 35 6 0 -1 -6 -15 -13z m860 -1 c22 -12 23 -14 8 -20
-24 -9 -48 1 -48 20 0 18 8 18 40 0z m-80 -5 c0 -5 -2 -10 -4 -10 -3 0 -8 5
-11 10 -3 6 -1 10 4 10 6 0 11 -4 11 -10z m155 0 c-3 -5 -10 -10 -16 -10 -5 0
-9 5 -9 10 0 6 7 10 16 10 8 0 12 -4 9 -10z m-1402 -52 c-26 -28 -35 -21 -17
13 12 24 18 29 25 18 5 -8 2 -20 -8 -31z m102 32 c-3 -5 -11 -10 -16 -10 -6 0
-7 5 -4 10 3 6 11 10 16 10 6 0 7 -4 4 -10z m1184 -6 c5 -5 -37 -7 -59 -4 -8
1 -19 6 -25 11 -9 9 74 2 84 -7z m-129 -3 c0 -6 -4 -13 -10 -16 -5 -3 -10 1
-10 9 0 9 5 16 10 16 6 0 10 -4 10 -9z m-580 -11 c8 -5 11 -10 5 -10 -5 0 -17
5 -25 10 -8 5 -10 10 -5 10 6 0 17 -5 25 -10z m500 -10 c-8 -5 -18 -6 -24 -3
-5 4 -1 10 10 13 24 9 34 2 14 -10z m-325 0 c4 -6 -5 -10 -19 -10 -14 0 -26 5
-26 10 0 6 9 10 19 10 11 0 23 -4 26 -10z m460 0 c3 -6 -1 -7 -9 -4 -18 7 -21
14 -7 14 6 0 13 -4 16 -10z m-465 -30 c0 -5 -2 -10 -4 -10 -2 0 -12 -3 -20 -6
-12 -5 -15 -2 -10 10 7 17 34 22 34 6z m305 0 c3 -5 2 -10 -4 -10 -5 0 -13 5
-16 10 -3 6 -2 10 4 10 5 0 13 -4 16 -10z m-285 -36 c0 -8 -5 -12 -10 -9 -6 4
-8 11 -5 16 9 14 15 11 15 -7z m-30 -15 c0 -6 -4 -7 -10 -4 -5 3 -10 11 -10
16 0 6 5 7 10 4 6 -3 10 -11 10 -16z m145 -2 c7 -7 4 -8 -9 -3 -11 4 -29 0
-43 -9 -27 -18 -56 -5 -46 21 4 10 16 12 47 8 22 -4 46 -11 51 -17z m-31 -32
c-4 -8 -11 -15 -16 -15 -6 0 -5 6 2 15 7 8 14 15 16 15 2 0 1 -7 -2 -15z m54
-136 c-3 -8 -7 -3 -11 10 -4 17 -3 21 5 13 5 -5 8 -16 6 -23z m362 -44 c0 -30
-4 -31 -29 -6 -14 14 -16 21 -8 25 26 10 37 5 37 -19z m68 16 c21 -13 10 -46
-16 -49 -27 -4 -40 22 -22 43 14 17 20 18 38 6z m73 -22 c12 -23 -1 -39 -31
-39 -12 1 -11 3 3 11 21 12 22 29 1 29 -8 0 -12 5 -9 10 10 16 23 12 36 -11z
m76 -15 c7 -19 -20 -49 -36 -40 -12 8 -15 39 -4 49 12 12 33 7 40 -9z m33 -19
c-10 -12 -8 -16 10 -23 20 -8 21 -9 6 -15 -23 -9 -36 -1 -36 22 0 20 8 31 23
31 5 0 4 -7 -3 -15z m45 -15 c10 -11 16 -20 13 -20 -3 0 -13 9 -23 20 -10 11
-16 20 -13 20 3 0 13 -9 23 -20z m-250 -24 c17 -6 36 -19 43 -28 8 -11 26 -18
49 -18 27 0 34 -3 29 -15 -5 -15 8 -19 46 -16 11 2 30 -18 53 -53 19 -30 35
-57 35 -60 0 -14 -80 -50 -113 -52 l-39 -2 7 36 c3 21 9 46 12 57 5 19 4 19
-13 4 -15 -13 -75 -39 -89 -39 -2 0 -5 9 -8 20 -3 11 -1 20 4 20 5 0 9 5 9 10
0 6 -7 10 -15 10 -8 0 -15 5 -15 11 0 6 -7 9 -15 5 -12 -4 -19 9 -14 27 0 1
-5 15 -11 32 -10 27 -10 28 7 13 10 -8 24 -13 31 -11 19 7 14 23 -8 23 -14 0
-18 5 -13 18 6 14 4 15 -9 5 -16 -14 -28 -8 -28 15 0 10 6 12 18 7 9 -4 31
-13 47 -19z m-1105 -21 c0 -8 -4 -15 -10 -15 -5 0 -7 7 -4 15 4 8 8 15 10 15
2 0 4 -7 4 -15z m108 -4 c3 -8 -1 -12 -9 -9 -7 2 -15 10 -17 17 -3 8 1 12 9 9
7 -2 15 -10 17 -17z m37 9 c3 -5 1 -10 -4 -10 -6 0 -11 5 -11 10 0 6 2 10 4
10 3 0 8 -4 11 -10z m-84 -33 c-13 -13 -26 -3 -16 12 3 6 11 8 17 5 6 -4 6
-10 -1 -17z m-113 1 c-2 -6 -10 -14 -16 -16 -7 -2 -10 2 -6 12 7 18 28 22 22
4z m731 -88 c1 -49 -2 -90 -7 -90 -15 0 -52 46 -61 77 -6 20 -4 40 4 60 13 30
43 55 56 47 4 -2 7 -44 8 -94z m-649 69 c0 -11 -27 -12 -34 0 -3 4 -3 11 0 14
8 8 34 -3 34 -14z m-130 2 c0 -6 -4 -13 -10 -16 -5 -3 -10 1 -10 9 0 9 5 16
10 16 6 0 10 -4 10 -9z m841 -12 c14 -28 5 -97 -15 -118 -15 -14 -16 -8 -16
62 0 78 10 95 31 56z m-586 1 c11 -17 -5 -32 -21 -19 -11 9 -14 8 -15 -5 -1
-9 -2 -20 -3 -26 -1 -5 3 -10 9 -9 9 0 23 -25 24 -46 1 -6 -12 -16 -29 -23
-25 -11 -29 -18 -24 -38 9 -33 -24 -32 -65 2 -17 14 -31 21 -31 15 0 -5 5 -13
10 -16 6 -3 10 -23 10 -44 0 -40 13 -62 45 -79 11 -6 15 -12 9 -12 -6 0 -41
16 -77 35 -36 19 -73 35 -81 35 -9 0 -16 4 -16 9 0 24 41 100 62 117 14 11 23
25 20 32 -2 7 5 12 17 12 22 0 94 41 106 60 8 13 42 13 50 0z m-180 -10 c4 -6
-5 -10 -20 -10 -15 0 -24 4 -20 10 3 6 12 10 20 10 8 0 17 -4 20 -10z m-55
-25 c0 -8 -4 -15 -10 -15 -5 0 -10 7 -10 15 0 8 5 15 10 15 6 0 10 -7 10 -15z
m1490 -85 c0 -5 -16 -17 -35 -26 -20 -9 -40 -25 -45 -35 -7 -11 -17 -16 -28
-13 -13 4 -14 4 -4 -4 11 -7 8 -14 -14 -31 -17 -13 -30 -18 -32 -12 -5 16 -22
13 -22 -4 0 -8 -5 -15 -11 -15 -6 0 -9 7 -5 15 10 26 -10 16 -23 -11 -6 -15
-14 -24 -17 -21 -3 3 0 15 6 27 17 32 -5 53 -26 26 -7 -11 -16 -18 -18 -15 -2
2 4 14 14 26 15 19 23 21 48 14 33 -10 96 14 162 63 38 27 50 31 50 16z m-260
-45 c-7 -8 -17 -12 -22 -9 -6 4 -5 10 3 15 22 14 33 10 19 -6z m235 -56 c8
-24 16 -24 65 0 42 20 51 16 64 -25 8 -27 -17 -40 -35 -18 -17 21 -90 14 -111
-11 -18 -20 -18 -20 -15 5 1 19 -3 26 -20 28 -28 4 -28 4 -1 35 24 27 42 23
53 -14z m-705 -30 c0 -24 -4 -38 -10 -34 -17 10 -11 75 7 75 2 0 3 -18 3 -41z
m40 -4 c0 -13 -4 -27 -10 -30 -6 -4 -10 8 -10 30 0 22 4 34 10 30 6 -3 10 -17
10 -30z m453 20 c-3 -9 -8 -14 -10 -11 -3 3 -2 9 2 15 9 16 15 13 8 -4z
m-1191 -46 c55 -28 90 -39 109 -37 26 4 32 -2 68 -61 44 -73 101 -204 101
-232 0 -15 -5 -17 -30 -12 -19 3 -30 1 -30 -6 0 -6 7 -11 15 -11 8 0 15 -4 15
-10 0 -5 -4 -10 -10 -10 -21 0 -25 -2 -42 -17 -17 -15 -48 -12 -48 6 0 5 14
14 31 20 28 9 30 13 18 27 -7 9 -22 20 -34 24 -11 4 -27 21 -35 36 -8 16 -25
42 -38 58 -13 16 -32 46 -43 68 -23 45 -66 74 -121 82 -21 3 -56 9 -78 12 -22
3 -40 11 -40 17 0 14 72 39 80 28 16 -24 140 -53 140 -32 0 11 -68 33 -80 26
-5 -3 -10 1 -10 9 0 13 -12 16 -55 16 -59 0 -71 12 -27 28 44 17 59 14 144
-29z m600 26 c46 -6 68 -19 53 -33 -4 -4 -10 -1 -12 6 -3 7 -21 11 -46 11
l-42 -2 40 -7 c22 -4 33 -8 24 -9 -11 -1 -15 -9 -14 -26 2 -14 -1 -25 -7 -25
-6 0 -8 -7 -4 -15 3 -10 -1 -15 -12 -15 -15 -1 -15 -2 2 -15 19 -15 19 -15 -5
-15 -23 -1 -23 -1 -5 -15 19 -15 19 -15 -4 -15 -23 0 -23 0 -4 -15 16 -13 16
-14 2 -9 -10 3 -18 1 -18 -5 0 -6 5 -11 10 -11 6 0 10 -5 10 -10 0 -7 -6 -7
-19 0 -11 5 -39 10 -62 10 -48 0 -46 8 3 21 32 8 32 8 -9 6 -23 -1 -39 1 -37
5 3 5 18 8 35 8 16 0 29 5 29 11 0 7 -15 9 -42 5 l-43 -5 40 14 40 15 -42 -4
c-24 -2 -46 0 -49 5 -3 5 16 10 43 11 36 1 40 2 16 5 -47 6 -41 21 10 26 40 3
40 4 -10 5 -32 1 -53 -2 -53 -9 0 -5 -5 -7 -11 -3 -16 10 1 21 51 32 39 9 41
10 15 12 l-30 2 30 9 c22 6 12 7 -35 4 -45 -2 -56 -1 -35 5 17 4 51 8 78 9 26
0 47 6 47 11 0 12 -58 12 -118 1 -27 -5 -40 -5 -34 1 5 5 31 13 58 17 48 8 72
8 166 -4z m400 -6 c61 -16 51 -25 -29 -28 -42 -1 -84 -6 -92 -11 -11 -6 -5 -7
19 -4 19 3 53 1 75 -4 l40 -10 -41 -1 c-23 -1 -47 -7 -54 -15 -9 -12 -5 -16
24 -22 20 -3 39 -10 42 -15 3 -5 -1 -7 -8 -5 -41 13 -68 15 -68 6 0 -5 13 -10
29 -10 17 0 33 -5 37 -11 4 -8 -3 -9 -26 -4 -23 5 -30 4 -26 -4 4 -6 16 -11
27 -11 10 0 19 -4 19 -10 0 -5 -15 -7 -32 -5 l-33 5 30 -15 30 -16 -27 4 c-16
2 -28 0 -28 -4 0 -5 9 -9 20 -9 11 0 20 -5 20 -10 0 -6 -12 -8 -27 -5 l-28 5
28 -12 c33 -14 36 -29 5 -22 -13 3 -29 6 -35 6 -7 1 -13 5 -13 9 0 4 -8 10
-17 12 -13 3 -11 5 7 7 24 2 23 3 -5 10 l-30 7 25 11 25 11 -30 1 c-30 2 -30
2 -5 10 l25 8 -27 1 c-25 1 -42 21 -19 21 5 0 11 7 15 15 5 13 2 14 -15 4 -24
-12 -24 -12 -33 19 -6 18 -4 22 16 22 21 1 20 2 -7 15 l-30 13 27 1 c27 1 46
17 34 29 -4 3 -22 0 -42 -7 -20 -7 -38 -10 -41 -7 -8 7 34 23 82 30 21 4 41 9
44 12 6 6 67 -3 123 -17z m166 -42 c-13 -25 -17 -18 -11 16 4 20 8 25 14 16 4
-7 3 -21 -3 -32z m-46 16 c-21 -15 -21 -16 -5 -30 17 -14 17 -14 -3 -10 -40 8
-49 -6 -34 -53 17 -52 32 -58 69 -28 30 23 39 52 21 63 -17 11 43 64 79 71 31
6 33 5 26 -15 -9 -29 9 -49 40 -43 15 2 25 0 25 -7 0 -6 -9 -11 -20 -11 -22 0
-27 -15 -7 -23 6 -3 -1 -6 -16 -6 -21 -1 -30 5 -34 20 -4 14 -12 19 -27 17
-16 -2 -21 -10 -20 -33 0 -16 -6 -35 -14 -41 -24 -18 -7 -47 22 -40 17 4 26 1
30 -10 3 -9 12 -14 20 -11 9 4 16 -3 20 -16 9 -34 7 -39 -13 -32 -10 3 -24 -1
-31 -10 -16 -19 -4 -44 39 -91 33 -35 50 -76 30 -72 -7 2 -13 -3 -14 -11 0
-27 -25 -24 -25 4 0 15 -4 24 -10 20 -5 -3 -10 -17 -10 -31 0 -29 -20 -32 -27
-4 -7 26 -21 26 -25 -2 -5 -32 -28 -35 -28 -3 0 15 -4 24 -10 20 -5 -3 -10
-15 -10 -25 0 -10 -4 -22 -10 -25 -6 -4 -7 6 -3 26 4 23 3 30 -5 25 -7 -4 -12
-2 -12 3 0 6 5 11 11 11 17 0 6 65 -11 67 -66 8 -90 16 -90 27 0 8 7 16 15 20
8 3 15 12 15 20 0 7 7 17 16 20 11 4 14 12 9 24 -4 9 -7 30 -6 45 1 21 -4 30
-19 34 -20 5 -29 33 -10 33 17 0 -1 28 -23 35 -14 4 -17 8 -9 12 6 2 12 11 12
18 0 7 16 20 35 29 19 9 35 21 35 26 0 6 8 10 18 9 14 0 13 -3 -6 -16z m396
-38 c14 -44 6 -59 -27 -47 -22 8 -23 9 -5 26 14 15 15 22 6 37 -15 24 -15 32
1 27 6 -3 18 -22 25 -43z m-836 -15 c-13 -118 25 -184 63 -110 19 36 19 57 0
94 -15 28 -12 51 5 41 16 -10 61 -119 66 -160 8 -64 -4 -71 -64 -41 -31 16
-71 27 -100 28 l-49 2 7 31 c4 16 13 56 20 88 10 51 14 58 33 55 17 -2 21 -9
19 -28z m698 15 c0 -8 9 -19 20 -25 21 -11 27 -30 9 -30 -6 0 -25 -10 -42 -22
l-30 -22 7 25 c4 13 9 39 13 57 6 32 23 45 23 17z m-380 -15 c0 -11 -14 -11
-50 0 -22 7 -21 8 13 9 20 1 37 -3 37 -9z m551 -17 c-12 -20 -14 -14 -5 12 4
9 9 14 11 11 3 -2 0 -13 -6 -23z m-845 -43 c1 -22 -2 -37 -7 -34 -11 6 -12 74
-1 74 4 0 8 -18 8 -40z m-800 15 c-18 -13 -14 -41 5 -29 5 3 7 9 4 14 -5 7 17
20 35 20 16 0 70 -52 70 -68 0 -8 8 -24 18 -35 17 -20 17 -20 -18 -2 -64 33
-70 35 -94 35 -14 0 -28 5 -31 10 -10 17 -25 11 -19 -7 5 -14 4 -15 -4 -4 -6
8 -8 21 -4 29 3 10 1 13 -6 8 -7 -4 -12 -1 -12 7 0 15 34 35 60 36 12 0 11 -3
-4 -14z m831 -32 c-3 -10 -5 -4 -5 12 0 17 2 24 5 18 2 -7 2 -21 0 -30z m780
14 c11 -11 10 -28 -8 -102 -11 -50 -25 -103 -31 -118 -24 -63 -78 -103 -78
-57 0 11 -5 20 -11 20 -6 0 -9 -9 -6 -20 3 -11 1 -23 -4 -26 -5 -3 -9 6 -9 20
0 14 -5 26 -11 26 -24 0 -37 28 -34 73 2 26 -1 49 -6 53 -14 9 -11 20 17 53
22 26 23 31 9 31 -14 0 -13 4 6 19 66 51 132 62 166 28z m-1687 -36 c0 -23
-16 -36 -25 -21 -9 14 1 40 15 40 5 0 10 -9 10 -19z m1467 -13 c-3 -7 -5 -2
-5 12 0 14 2 19 5 13 2 -7 2 -19 0 -25z m-1254 -70 c45 -36 48 -58 7 -58 -20
0 -39 11 -65 37 -19 20 -35 42 -35 50 0 20 48 5 93 -29z m494 26 c3 -8 1 -20
-6 -27 -13 -13 -16 -10 -25 21 -6 16 -3 22 9 22 8 0 18 -7 22 -16z m-51 -31
c-10 -10 -19 5 -10 18 6 11 8 11 12 0 2 -7 1 -15 -2 -18z m259 4 c51 -29 85
-58 85 -73 0 -18 -84 0 -115 24 -15 12 -36 22 -46 22 -10 0 -21 5 -25 12 -5 8
6 9 41 5 59 -9 53 1 -12 19 l-48 13 40 0 c24 1 56 -8 80 -22z m-165 4 c0 -14
-23 -29 -49 -33 -27 -3 -42 -28 -17 -28 27 0 62 21 71 43 13 28 31 32 38 8 3
-14 -1 -22 -14 -26 -10 -4 -18 -9 -18 -13 4 -25 -3 -30 -36 -25 -29 5 -35 3
-35 -13 0 -14 3 -15 12 -6 17 17 33 15 19 -2 -9 -11 -9 -15 1 -18 7 -3 -7 -15
-32 -28 -54 -28 -142 -52 -152 -42 -15 16 5 63 36 81 18 11 44 34 59 51 20 22
36 30 62 30 19 0 34 3 34 8 -3 14 1 22 11 22 6 0 10 -4 10 -9z m340 -6 c0 -8
-7 -15 -15 -15 -8 0 -15 7 -15 15 0 8 7 15 15 15 8 0 15 -7 15 -15z m-951 -35
c22 -27 27 -40 17 -40 -13 0 -56 57 -56 74 0 12 7 6 39 -34z m486 30 c3 -5 1
-10 -4 -10 -6 0 -11 5 -11 10 0 6 2 10 4 10 3 0 8 -4 11 -10z m399 -6 c9 -22
8 -24 -9 -24 -8 0 -15 9 -15 20 0 24 15 27 24 4z m93 -6 c-3 -8 -6 -5 -6 6 -1
11 2 17 5 13 3 -3 4 -12 1 -19z m35 -10 c-9 -9 -12 -7 -12 12 0 19 3 21 12 12
9 -9 9 -15 0 -24z m38 2 c0 -10 -6 -20 -12 -23 -10 -3 -10 -8 2 -23 14 -19 14
-19 -8 0 -19 17 -20 21 -8 35 7 9 11 22 8 30 -3 8 0 11 7 7 6 -4 11 -16 11
-26z m-52 -40 c75 -54 94 -112 40 -118 -15 -2 -40 4 -57 12 -16 9 -40 17 -53
17 -17 1 -18 3 -5 6 27 7 20 23 -10 24 l-28 2 28 4 c33 5 26 23 -9 23 -14 0
-22 4 -19 10 3 6 17 10 31 10 15 0 23 4 19 10 -4 6 -15 8 -26 5 -10 -4 -19 -2
-19 4 0 5 12 12 28 14 15 2 30 5 33 6 3 0 25 -12 47 -29z m-1058 -1 c0 -6 -4
-7 -10 -4 -5 3 -10 11 -10 16 0 6 5 7 10 4 6 -3 10 -11 10 -16z m501 1 c-13
-11 -28 -20 -35 -20 -6 0 3 9 19 20 38 25 47 25 16 0z m319 -27 c112 -29 120
-35 114 -86 -3 -23 -18 -80 -35 -127 -16 -46 -29 -87 -29 -91 0 -4 23 -19 50
-33 28 -14 50 -22 50 -17 0 5 -17 18 -37 29 -21 11 -37 26 -36 33 2 15 49 159
64 197 5 13 14 20 20 16 8 -5 9 -47 4 -147 -6 -115 -5 -138 7 -134 7 3 39 14
71 23 31 10 57 21 57 26 0 5 -8 23 -17 41 -21 41 -44 157 -31 157 6 0 23 -14
39 -31 20 -22 29 -42 30 -72 1 -23 7 -48 12 -54 16 -22 -24 -223 -75 -369 -20
-60 -20 -61 -2 -83 11 -13 29 -27 42 -32 12 -5 22 -15 22 -23 0 -10 13 -16 37
-18 44 -4 50 -18 52 -130 0 -36 7 -93 15 -125 8 -32 17 -76 21 -98 l6 -40 -18
25 c-10 14 -19 36 -21 49 -3 26 -28 50 -50 51 -7 0 -23 -9 -35 -21 -12 -11
-29 -18 -38 -16 -9 3 -23 1 -30 -3 -8 -5 -19 0 -32 16 -10 13 -24 21 -30 17
-6 -3 -29 -7 -51 -8 -23 -1 -49 -5 -58 -9 -14 -6 -18 -3 -18 13 0 14 -13 27
-40 41 -69 35 -86 23 -85 -64 1 -27 -1 -44 -3 -37 -9 26 -92 -2 -92 -31 0 -10
-6 -18 -13 -18 -7 0 -31 -9 -52 -21 -43 -22 -152 -32 -162 -15 -4 5 -10 104
-14 220 -5 116 -13 254 -18 306 -6 52 -13 159 -16 236 -3 78 -8 176 -10 218
-5 72 -4 76 16 76 15 0 19 5 15 16 -3 8 -2 13 3 9 12 -7 58 11 77 30 20 19 44
19 44 0 0 -20 -45 -120 -70 -155 -26 -36 -26 -37 13 -60 44 -27 59 -25 23 3
l-28 23 30 55 c17 29 38 78 47 107 10 29 22 55 27 58 16 10 -1 -131 -23 -195
-22 -63 -24 -91 -6 -91 9 0 176 31 184 35 1 0 -9 31 -22 68 -37 101 -51 198
-36 248 14 46 5 46 141 12z m-645 7 c3 -6 -1 -7 -9 -4 -18 7 -21 14 -7 14 6 0
13 -4 16 -10z m81 -11 c3 -5 -1 -9 -10 -9 -21 0 -46 11 -46 20 0 10 49 0 56
-11z m184 17 c0 -2 -7 -7 -16 -10 -8 -3 -12 -2 -9 4 6 10 25 14 25 6z m-523
-22 c-3 -3 -12 -4 -19 -1 -8 3 -5 6 6 6 11 1 17 -2 13 -5z m92 -57 c27 -67 63
-90 151 -97 58 -4 65 -7 68 -27 3 -20 -1 -23 -33 -23 -20 0 -64 7 -99 16 -56
14 -63 18 -58 36 3 14 1 19 -6 14 -12 -7 -45 59 -57 114 -11 48 9 29 34 -33z
m141 49 c0 -26 -66 -36 -88 -14 -22 22 -13 28 38 28 36 0 50 -4 50 -14z m72
-18 c-8 -8 -17 -8 -34 0 -22 10 -21 11 12 11 26 1 31 -2 22 -11z m177 -4 c7 9
20 16 27 16 17 0 8 -58 -12 -80 -12 -12 -14 -11 -14 13 0 32 -23 36 -52 10
-25 -22 -23 -2 4 32 19 24 23 26 28 10 5 -15 7 -16 19 -1z m814 -40 c4 -21 1
-38 -9 -50 -9 -11 -13 -13 -9 -6 3 6 2 12 -4 12 -5 0 -11 -6 -14 -12 -9 -26
-15 -1 -8 32 5 23 13 34 22 32 11 -3 11 -1 2 9 -6 6 -9 18 -6 26 8 19 18 2 26
-43z m-1283 16 c0 -5 -9 -10 -19 -10 -11 0 -23 5 -26 10 -4 6 5 10 19 10 14 0
26 -4 26 -10z m135 -10 c10 -31 50 -53 82 -46 15 3 34 2 41 -3 21 -13 -55 -22
-86 -10 -37 14 -62 39 -62 61 0 24 17 23 25 -2z m158 0 c20 -24 50 -26 68 -3
13 14 14 13 19 -13 4 -23 13 -30 45 -40 l40 -11 -58 0 c-36 0 -53 3 -45 8 8 6
2 9 -20 9 -18 0 -40 4 -50 9 -9 5 -29 14 -44 20 -16 6 -28 17 -28 26 0 22 52
19 73 -5z m422 10 c3 -5 -1 -10 -9 -10 -9 0 -16 5 -16 10 0 6 4 10 9 10 6 0
13 -4 16 -10z m-515 -20 c6 -11 8 -20 5 -20 -14 0 -45 21 -45 30 0 18 29 10
40 -10z m-200 -20 c0 -15 -6 -20 -27 -19 -24 2 -25 2 -5 6 12 2 22 11 22 19 0
8 2 14 5 14 3 0 5 -9 5 -20z m720 10 c0 -5 -9 -10 -20 -10 -11 0 -20 5 -20 10
0 6 9 10 20 10 11 0 20 -4 20 -10z m385 -21 c0 -8 5 -17 10 -21 6 -5 4 -12 -5
-18 -13 -9 -13 -11 0 -20 13 -9 13 -10 0 -11 -10 0 -8 -3 5 -9 19 -8 19 -8 -5
-18 l-25 -11 25 -1 c23 -1 23 -2 5 -10 -19 -8 -18 -9 5 -11 24 -2 24 -2 3 -6
-13 -2 -23 -9 -23 -15 0 -6 12 -8 28 -4 27 5 27 5 -3 -9 -16 -8 -25 -14 -20
-15 6 0 3 -5 -5 -10 -12 -8 -12 -10 5 -11 19 0 18 -1 -3 -11 -12 -6 -24 -9
-26 -7 -3 2 -2 57 1 122 4 79 10 116 17 114 6 -2 11 -10 11 -18z m112 -4 c-4
-8 -11 -15 -17 -15 -6 0 -6 7 2 20 14 22 24 19 15 -5z m-487 -5 c0 -5 -10 -11
-22 -11 l-23 -2 23 -4 c27 -5 29 -23 2 -23 -11 0 -20 -5 -20 -11 0 -5 5 -7 10
-4 6 4 19 3 28 -1 14 -6 11 -9 -13 -14 l-30 -8 34 -1 c40 -1 36 -10 -11 -21
l-33 -8 35 -2 35 -2 -30 -8 c-29 -7 -29 -8 10 -10 l40 -2 -40 -14 -40 -14 45
5 c30 4 42 3 35 -4 -5 -5 -28 -11 -50 -13 -30 -2 -39 -7 -37 -19 2 -15 -36
-35 -46 -25 -2 2 6 33 16 68 11 36 23 85 27 111 6 41 10 47 31 47 13 0 24 -4
24 -10z m-400 -14 c0 -3 -4 -8 -10 -11 -5 -3 -10 -1 -10 4 0 6 5 11 10 11 6 0
10 -2 10 -4z m1077 -8 c2 6 14 12 25 12 23 0 54 -28 43 -38 -4 -4 -10 -1 -12
6 -6 16 -40 16 -50 -1 -4 -8 -16 -17 -26 -20 -12 -4 -17 -15 -15 -29 2 -11 -3
-23 -9 -25 -7 -3 -13 0 -13 6 0 6 -7 11 -16 11 -14 0 -15 -2 -3 -16 12 -15 11
-16 -10 -9 -16 5 -21 4 -17 -4 4 -6 2 -11 -4 -11 -6 0 -10 6 -8 13 1 6 -3 22
-10 35 -9 16 -10 22 -1 22 6 0 9 7 5 15 -3 8 -1 15 3 15 5 0 12 -7 15 -16 9
-25 49 -13 65 20 10 22 15 26 23 15 7 -11 11 -11 15 -1z m87 -46 c-33 -32 -77
-66 -98 -76 -41 -19 -153 -35 -143 -20 3 5 20 11 37 12 44 3 123 42 195 96 33
25 62 45 65 45 3 0 -22 -26 -56 -57z m-1504 28 c0 -5 -8 -10 -17 -10 -15 0
-16 2 -3 10 19 12 20 12 20 0z m445 -122 c4 -73 7 -162 7 -198 0 -36 6 -130
14 -210 8 -80 17 -235 20 -345 2 -110 9 -234 14 -275 5 -41 12 -103 16 -138
l6 -63 -38 7 c-22 4 -43 13 -47 20 -4 8 -15 14 -22 14 -8 0 -15 5 -15 10 0 6
5 10 11 10 8 0 9 65 5 233 -7 255 -14 338 -26 316 -4 -8 -3 -125 2 -262 6
-136 7 -254 4 -262 -8 -22 -44 -18 -51 5 -3 11 -4 48 -1 82 12 139 17 854 7
918 -6 36 -13 109 -15 162 l-6 97 28 4 c15 2 39 5 53 6 l27 1 7 -132z m1110
63 c-2 -2 -11 3 -19 12 -8 8 -12 17 -9 21 3 3 12 -2 19 -12 7 -9 11 -19 9 -21z
m-1390 -15 c12 3 26 1 29 -5 4 -6 3 -11 -3 -11 -6 0 -15 -17 -20 -37 -15 -52
-14 -66 3 -60 8 3 17 1 19 -6 2 -7 8 11 11 38 4 28 9 55 11 60 2 6 4 -93 3
-220 0 -126 3 -315 7 -420 4 -104 6 -270 6 -369 0 -98 3 -176 7 -172 4 4 7
182 8 394 0 213 4 435 9 495 5 74 4 107 -3 107 -6 0 -13 -8 -15 -17 -2 -10 -3
-2 -1 17 2 19 4 70 4 113 l0 77 34 0 c33 0 34 0 40 -57 3 -32 9 -185 12 -340
6 -257 5 -283 -9 -283 -14 0 -16 -8 -12 -42 3 -24 7 -131 10 -238 6 -244 15
-369 27 -376 6 -4 7 15 4 47 -7 55 3 87 23 75 6 -4 11 -20 11 -35 0 -16 3 -44
7 -62 8 -34 8 -33 14 16 6 50 6 50 7 -16 l2 -67 -30 -4 c-53 -8 -66 11 -73
104 -30 388 -37 556 -31 686 4 91 3 142 -3 142 -15 0 -25 -278 -14 -373 6 -45
15 -165 21 -267 16 -269 18 -282 41 -297 25 -18 16 -33 -21 -33 -16 0 -31 -4
-34 -9 -3 -5 -27 -8 -53 -6 -35 1 -49 6 -51 17 -3 13 4 15 36 11 24 -3 42 -1
47 6 5 8 -1 10 -19 5 -30 -7 -60 12 -52 33 3 8 -1 27 -9 42 -11 23 -13 55 -7
167 4 76 7 171 5 209 -1 39 -2 87 -2 108 -1 20 -4 37 -8 37 -5 0 -9 -125 -11
-278 -3 -250 -4 -299 -10 -353 -3 -24 -58 -45 -77 -29 -8 7 -29 10 -45 8 -40
-6 -62 25 -30 42 11 6 25 8 30 5 6 -4 10 7 10 25 0 17 11 48 25 69 22 33 26
52 32 155 3 64 10 119 15 122 4 3 8 -56 8 -131 0 -134 -14 -205 -39 -205 -17
0 -25 -42 -10 -51 22 -14 49 -10 49 7 0 11 -6 14 -20 9 -25 -8 -26 7 -2 29 11
9 24 33 29 54 13 47 15 882 2 861 -5 -8 -9 -97 -10 -199 -2 -171 -2 -178 -10
-90 -4 52 -6 178 -5 280 2 116 0 190 -6 198 -12 14 -3 103 12 112 5 3 13 42
18 87 10 81 21 120 30 95 2 -7 13 -10 27 -6z m-72 -38 c-21 -56 -27 -61 -18
-18 7 32 21 60 31 60 2 0 -4 -19 -13 -42z m1547 -33 c7 -25 10 -48 6 -52 -3
-3 -9 8 -12 26 -4 17 -11 34 -15 37 -12 7 -12 34 0 34 4 0 14 -20 21 -45z
m-115 -6 c4 -15 2 -30 -3 -33 -12 -7 -26 29 -17 44 3 5 1 10 -5 10 -6 0 -8 5
-4 11 8 14 21 0 29 -32z m-101 15 c9 -22 8 -23 -14 -17 -21 5 -25 15 -13 26
11 11 20 8 27 -9z m191 -36 c10 -29 18 -62 17 -72 0 -10 6 -28 14 -40 21 -30
18 -48 -8 -44 -17 2 -24 12 -28 38 -4 20 -10 42 -14 49 -5 8 -3 17 5 22 12 8
12 10 0 18 -8 5 -11 16 -8 26 4 9 3 14 -2 11 -11 -7 -23 22 -15 35 11 18 20 8
39 -43z m-1605 38 c0 -3 -4 -8 -10 -11 -5 -3 -10 -1 -10 4 0 6 5 11 10 11 6 0
10 -2 10 -4z m1350 -16 c-8 -5 -17 -7 -19 -4 -3 3 1 9 9 14 8 5 17 7 19 4 3
-3 -1 -9 -9 -14z m123 -11 c3 -10 1 -22 -4 -25 -5 -3 -9 -17 -9 -32 0 -40 -17
-13 -24 40 -6 43 -5 46 13 41 10 -3 21 -13 24 -24z m77 -2 c0 -18 -2 -19 -10
-7 -13 20 -13 43 0 35 6 -3 10 -16 10 -28z m-393 17 c-3 -3 -12 -4 -19 -1 -8
3 -5 6 6 6 11 1 17 -2 13 -5z m150 -11 c3 -7 -4 -9 -16 -6 -16 4 -21 1 -21
-13 0 -16 -2 -17 -10 -4 -7 11 -5 19 7 28 19 14 35 12 40 -5z m-1324 -10 c-7
-2 -21 -2 -30 0 -10 3 -4 5 12 5 17 0 24 -2 18 -5z m1446 -85 c1 -16 -1 -28
-3 -28 -2 0 -11 -3 -19 -6 -22 -8 -29 66 -8 87 15 15 17 14 23 -5 3 -12 6 -33
7 -48z m98 38 c-3 -7 -1 -18 5 -24 6 -6 6 -12 -1 -17 -6 -3 -13 1 -16 9 -3 9
-7 23 -10 31 -2 9 2 15 11 15 10 0 14 -6 11 -14z m-187 -5 c0 -5 -7 -11 -15
-15 -15 -5 -20 5 -8 17 9 10 23 9 23 -2z m-40 -48 c0 -20 -3 -24 -11 -16 -7 7
-9 19 -6 27 10 24 17 19 17 -11z m69 -11 c6 -3 30 -176 26 -180 -2 -2 -12 6
-22 17 -9 12 -25 21 -35 21 -16 0 -18 10 -18 85 l0 85 23 -12 c12 -7 24 -14
26 -16z m-1374 8 c4 -6 -7 -10 -25 -10 -18 0 -29 4 -25 10 3 6 15 10 25 10 10
0 22 -4 25 -10z m1495 -10 c11 0 20 -14 27 -45 9 -41 8 -47 -9 -56 -10 -5 -16
-14 -13 -19 3 -5 1 -11 -4 -14 -5 -3 -12 6 -16 21 -4 17 -2 29 7 34 9 6 9 12
-4 26 -21 23 -37 84 -17 66 7 -7 20 -13 29 -13z m-233 -22 c-3 -8 -6 -5 -6 6
-1 11 2 17 5 13 3 -3 4 -12 1 -19z m-1270 -4 c-3 -3 -12 -4 -19 -1 -8 3 -5 6
6 6 11 1 17 -2 13 -5z m1606 -24 c3 -11 1 -20 -4 -20 -5 0 -9 9 -9 20 0 11 2
20 4 20 2 0 6 -9 9 -20z m-1366 -22 c-3 -8 -6 -5 -6 6 -1 11 2 17 5 13 3 -3 4
-12 1 -19z m1029 -5 c-10 -10 -19 5 -10 18 6 11 8 11 12 0 2 -7 1 -15 -2 -18z
m444 -9 c0 -8 -4 -14 -10 -14 -5 0 -10 4 -10 9 0 5 -3 18 -7 28 -6 16 -5 16
10 4 9 -7 17 -20 17 -27z m-1653 -21 c-3 -10 -5 -2 -5 17 0 19 2 27 5 18 2
-10 2 -26 0 -35z m1540 -28 c9 -26 10 -41 3 -43 -5 -2 -10 -8 -10 -14 0 -6 6
-8 14 -5 8 3 17 -1 20 -10 8 -21 5 -22 -21 -13 -15 6 -23 21 -28 49 -4 22 -4
45 0 51 3 5 1 10 -4 10 -6 0 -11 5 -11 11 0 24 24 0 37 -36z m-327 26 c0 -6
-4 -13 -10 -16 -5 -3 -10 1 -10 9 0 9 5 16 10 16 6 0 10 -4 10 -9z m50 -16 c0
-8 -7 -15 -15 -15 -8 0 -15 7 -15 15 0 8 7 15 15 15 8 0 15 -7 15 -15z m156
-25 c3 -14 8 -33 11 -42 3 -12 -1 -18 -11 -18 -8 0 -19 -8 -25 -17 -13 -25
-17 -17 -25 48 -7 57 -7 57 19 55 19 -1 27 -8 31 -26z m-156 -25 c0 -28 -17
-34 -27 -9 -3 9 0 20 8 25 19 12 19 12 19 -16z m392 -8 c4 -7 6 -18 3 -26 -4
-9 0 -11 11 -7 15 6 15 4 2 -16 -9 -13 -24 -24 -34 -25 -12 -2 -14 0 -5 3 7 4
9 9 5 13 -10 7 -44 66 -44 76 0 11 54 -5 62 -18z m-167 -37 c20 0 26 -7 35
-42 6 -24 13 -49 15 -55 7 -19 -13 -15 -24 5 -6 9 -11 11 -11 5 0 -7 -4 -13
-9 -13 -11 0 -42 99 -40 127 1 13 3 12 6 -4 3 -16 11 -23 28 -23z m-363 -12
c-6 -6 -8 -18 -5 -27 5 -12 3 -13 -7 -5 -14 14 -4 58 12 48 6 -4 6 -10 0 -16z
m41 7 c4 -8 2 -17 -3 -20 -6 -4 -10 3 -10 14 0 25 6 27 13 6z m97 0 c0 -8 -4
-15 -10 -15 -5 0 -10 7 -10 15 0 8 5 15 10 15 6 0 10 -7 10 -15z m90 -4 c0
-11 2 -26 5 -33 4 -9 -4 -19 -20 -26 -15 -7 -25 -20 -25 -32 0 -12 -4 -18 -10
-15 -5 3 -10 15 -10 26 0 11 5 17 10 14 6 -3 10 -1 10 4 0 6 -6 11 -12 11 -7
0 -2 7 10 16 12 8 22 24 22 35 0 10 5 19 10 19 6 0 10 -9 10 -19z m-1405 -21
c8 -13 -5 -13 -25 0 -13 8 -13 10 2 10 9 0 20 -4 23 -10z m1275 -14 c0 -6 -9
-12 -20 -13 -19 -2 -27 16 -14 30 9 9 34 -4 34 -17z m-60 -22 c0 -8 -4 -12
-10 -9 -5 3 -10 10 -10 16 0 5 5 9 10 9 6 0 10 -7 10 -16z m58 -21 c-5 -26
-38 -29 -38 -4 0 15 6 21 21 21 14 0 19 -5 17 -17z m192 -13 c7 -13 7 -20 1
-20 -6 0 -15 9 -21 20 -7 13 -7 20 -1 20 6 0 15 -9 21 -20z m-1505 -10 c3 -5
-1 -10 -10 -10 -9 0 -13 5 -10 10 3 6 8 10 10 10 2 0 7 -4 10 -10z m92 -127
c-2 -27 -3 -5 -3 47 0 52 1 74 3 48 2 -27 2 -69 0 -95z m1449 74 c-24 -135
-28 -189 -19 -210 19 -39 33 -103 33 -145 0 -46 -11 -57 -88 -88 -55 -21 -57
-18 -65 94 -4 48 -12 105 -19 127 -6 22 -12 67 -13 100 -1 33 -5 81 -9 106
l-8 46 97 1 97 1 -6 -32z m-1539 17 c-3 -3 -12 -4 -19 -1 -8 3 -5 6 6 6 11 1
17 -2 13 -5z m53 -200 c0 -113 -3 -144 -13 -144 -8 0 -14 12 -14 30 0 17 5 30
11 30 6 0 5 4 -3 9 -12 8 -12 12 -2 24 9 12 9 16 0 19 -8 3 -9 9 -4 18 13 22
12 60 -2 72 -17 14 -17 32 0 25 14 -5 17 30 5 49 -4 6 -5 14 -1 17 17 18 23
-18 23 -149z m-55 117 c-3 -6 -11 -11 -17 -11 -6 0 -6 6 2 15 14 17 26 13 15
-4z m5 -82 c0 -33 -4 -49 -13 -49 -9 0 -12 16 -11 53 2 62 1 60 14 52 6 -3 10
-28 10 -56z m1612 -105 c21 -6 48 -54 48 -83 0 -25 -51 -63 -58 -43 -2 7 -9
18 -15 25 -11 11 -57 176 -57 202 0 5 15 -14 32 -43 18 -28 41 -55 50 -58z
m-634 13 c15 -18 1 -36 -37 -47 -25 -7 -33 -6 -38 6 -3 8 0 21 6 28 9 11 9 15
0 18 -7 2 -10 12 -6 21 5 14 9 14 35 1 17 -8 35 -20 40 -27z m352 -58 c0 -12
-7 -19 -19 -19 -14 0 -18 -5 -14 -20 5 -20 23 -28 23 -10 0 6 6 10 13 10 8 0
14 -12 14 -30 0 -23 -3 -27 -13 -19 -7 6 -18 8 -24 4 -5 -3 -10 -1 -10 4 0 6
-8 11 -19 11 -10 0 -24 7 -31 15 -7 8 -20 15 -30 15 -11 0 -20 10 -23 26 -4
24 -2 26 24 20 16 -3 29 -2 29 2 0 5 12 13 28 18 31 12 52 1 52 -27z m-254 5
c13 -14 24 -32 24 -40 0 -19 -2 -18 -36 11 -16 14 -33 25 -38 25 -5 0 -3 7 4
15 16 20 19 19 46 -11z m81 6 c7 -8 13 -20 13 -27 0 -18 -58 5 -70 27 -8 15
-6 18 18 16 15 0 32 -8 39 -16z m-1159 -37 c1 -27 -3 -55 -9 -63 -8 -12 -10
-9 -6 13 2 15 0 27 -6 27 -5 0 -4 7 3 15 7 8 8 15 3 15 -5 0 -9 9 -9 20 0 11
5 20 12 20 6 0 11 -20 12 -47z m102 24 c13 -5 13 -6 0 -6 -13 -1 -15 -20 -13
-113 1 -72 -2 -102 -7 -83 -10 38 -12 234 -2 219 4 -6 14 -14 22 -17z m895
-26 c11 -5 31 -13 45 -19 14 -6 52 -16 85 -21 33 -6 89 -17 125 -25 36 -9 80
-16 98 -16 17 0 32 -4 32 -10 0 -15 -44 -12 -106 6 -31 9 -61 13 -69 10 -7 -2
-16 2 -19 11 -5 12 -17 14 -69 8 -73 -9 -181 -30 -196 -40 -6 -3 -11 -10 -11
-15 0 -8 31 -2 105 20 43 13 113 14 162 2 23 -5 44 -8 47 -5 10 10 68 -9 85
-28 10 -11 28 -21 39 -22 22 -1 35 -27 33 -63 -1 -11 7 -31 17 -45 10 -13 22
-36 26 -51 l6 -28 -322 -2 c-178 -1 -369 -2 -425 -3 l-101 -2 -6 30 c-3 16 -6
43 -6 59 0 24 3 27 18 19 21 -11 87 -1 162 23 30 10 70 24 89 30 19 6 36 17
39 24 3 10 -5 9 -33 -2 -20 -9 -40 -14 -44 -11 -4 2 -29 -7 -56 -20 -53 -27
-151 -35 -173 -13 -15 15 -16 55 0 64 6 4 31 7 55 6 48 0 93 16 133 48 23 18
24 20 5 21 -20 1 22 15 80 26 17 3 40 17 52 30 23 24 45 25 98 4z m-135 0 c0
-10 -24 -21 -43 -21 -7 0 -3 7 7 15 22 17 36 19 36 6z m275 -11 c3 -5 -1 -10
-10 -10 -9 0 -13 5 -10 10 3 6 8 10 10 10 2 0 7 -4 10 -10z m716 -59 c-9 -2
-19 -7 -22 -12 -8 -13 -49 25 -49 45 0 9 8 16 20 16 11 0 20 5 20 12 0 7 11
-3 24 -22 21 -30 22 -35 7 -39z m-1801 55 c0 -2 -7 -6 -15 -10 -8 -3 -15 -1
-15 4 0 6 7 10 15 10 8 0 15 -2 15 -4z m1658 -90 c-18 -37 -75 -106 -88 -106
-10 0 -1 40 13 58 5 7 6 12 0 12 -5 0 -15 -6 -22 -12 -11 -11 -13 -5 -8 32 3
24 11 46 18 49 6 2 26 16 43 32 l31 28 14 -30 c13 -26 13 -33 -1 -63z m-493
66 c-3 -3 -11 0 -18 7 -9 10 -8 11 6 5 10 -3 15 -9 12 -12z m-1170 -12 c-3 -5
-10 -10 -16 -10 -5 0 -9 5 -9 10 0 6 7 10 16 10 8 0 12 -4 9 -10z m-5 -30 c0
-5 -4 -10 -10 -10 -5 0 -10 5 -10 10 0 6 5 10 10 10 6 0 10 -4 10 -10z m1543
-5 c1 -6 -23 -22 -53 -37 -30 -15 -47 -28 -37 -28 10 0 32 7 48 16 38 19 45
14 33 -28 -7 -26 -20 -39 -64 -61 -56 -28 -100 -32 -108 -9 -2 6 5 12 15 12
17 1 17 1 -1 15 -13 10 -15 15 -6 15 9 0 8 6 -5 20 -17 19 -17 20 1 20 24 0
139 54 149 70 8 13 26 10 28 -5z m-963 -15 c0 -5 -6 -10 -12 -10 -7 0 -23 -3
-35 -6 -17 -5 -23 -2 -23 10 0 12 9 16 35 16 19 0 35 -4 35 -10z m-579 -23
c-13 -13 -26 -3 -16 12 3 6 11 8 17 5 6 -4 6 -10 -1 -17z m1836 -4 c35 -11 49
-20 41 -25 -10 -6 -9 -11 3 -18 15 -9 18 -46 10 -142 -1 -16 -12 -18 -85 -18
-47 0 -87 3 -90 8 -2 4 -7 28 -11 52 -3 25 -11 62 -16 84 -6 21 -8 50 -4 64 6
23 9 24 52 18 26 -3 71 -14 100 -23z m-512 7 c3 -5 2 -10 -4 -10 -5 0 -13 5
-16 10 -3 6 -2 10 4 10 5 0 13 -4 16 -10z m-1415 -19 c0 -33 -15 -71 -27 -71
-9 0 -13 6 -9 15 4 12 -6 15 -59 15 -78 0 -86 15 -13 23 28 4 56 11 62 17 12
12 46 13 46 1z m100 -16 c0 -8 -4 -15 -10 -15 -5 0 -10 7 -10 15 0 8 5 15 10
15 6 0 10 -7 10 -15z m1660 -72 c14 -76 29 -129 47 -175 24 -56 13 -71 -47
-64 -28 3 -50 1 -50 -4 0 -5 -7 -7 -15 -4 -8 4 -15 1 -15 -6 0 -6 -4 -9 -9 -5
-5 3 -12 1 -16 -5 -9 -15 -25 -2 -25 20 0 11 9 24 19 30 11 5 23 20 27 32 3
13 12 30 18 38 21 25 17 58 -7 66 -20 6 -20 7 -2 20 10 8 15 14 11 14 -5 0 -2
8 5 17 12 15 12 16 -7 11 -17 -4 -15 2 15 32 20 21 37 39 38 39 1 1 7 -25 13
-56z m-1892 30 c-10 -2 -18 -9 -18 -14 0 -6 8 -9 18 -8 9 1 41 1 70 0 48 -1
52 -3 52 -25 0 -13 7 -26 15 -30 9 -3 15 -18 15 -36 l0 -31 -92 3 -93 3 -3 49
c-5 71 4 96 31 95 17 -1 18 -2 5 -6z m55 0 c-7 -2 -19 -2 -25 0 -7 3 -2 5 12
5 14 0 19 -2 13 -5z m117 -23 c0 -5 -4 -10 -10 -10 -5 0 -10 5 -10 10 0 6 5
10 10 10 6 0 10 -4 10 -10z m1563 -17 c-15 -5 -18 -33 -4 -33 5 0 8 -26 7 -57
-1 -46 -5 -59 -19 -61 -20 -4 -22 -30 -3 -46 15 -12 30 -126 16 -126 -5 0 -12
9 -15 20 -10 30 -26 24 -20 -7 6 -26 5 -26 -8 -10 -17 21 -31 22 -24 2 4 -8 2
-17 -2 -20 -5 -3 -11 2 -15 10 -8 21 -30 19 -22 -2 4 -11 -2 -8 -13 7 -11 14
-23 22 -27 18 -4 -4 -1 -14 6 -23 7 -9 10 -18 7 -21 -3 -3 -12 3 -19 15 -18
30 -43 29 -27 -1 9 -19 9 -21 -2 -11 -16 16 -33 17 -23 2 5 -8 -1 -10 -19 -5
-14 3 -28 2 -31 -3 -3 -5 -15 -7 -26 -4 -31 8 -9 27 60 52 73 27 120 71 120
112 0 17 5 40 11 51 9 16 8 23 -2 29 -11 7 -10 9 4 9 9 0 17 4 17 9 0 5 -8 12
-17 14 -14 4 -12 5 5 6 12 0 22 6 22 11 0 6 -10 10 -22 11 -18 1 -16 3 9 10
18 5 37 18 43 29 6 11 18 20 28 19 10 0 12 -3 5 -6z m-1483 -13 c-13 -9 -13
-11 0 -20 13 -8 13 -10 -1 -10 -9 0 -19 -9 -22 -20 -3 -13 0 -20 8 -20 8 0 17
-4 20 -10 4 -6 -5 -10 -19 -10 -29 0 -31 8 -15 63 6 24 16 37 27 37 15 0 15
-2 2 -10z m1536 -78 c-9 -8 -26 10 -26 26 1 15 2 15 15 -2 8 -11 13 -21 11
-24z m-1588 -39 c3 -10 -24 -13 -112 -13 -98 0 -116 2 -116 15 0 13 17 15 112
13 78 -2 113 -7 116 -15z m1412 4 c0 -12 -69 -14 -442 -16 -369 -1 -440 1
-426 12 26 21 868 24 868 4z m181 -2 c-1 -15 -24 -12 -29 3 -3 9 2 13 12 10
10 -1 17 -7 17 -13z m319 0 c0 -16 -162 -13 -168 3 -3 10 15 12 82 10 49 -2
86 -7 86 -13z m-1463 -67 c-2 -13 -4 -3 -4 22 0 25 2 35 4 23 2 -13 2 -33 0
-45z m24 -31 c-8 -8 -11 -1 -11 24 0 46 14 60 18 19 2 -18 -1 -37 -7 -43z
m941 38 c-2 -17 -11 -39 -20 -49 -18 -20 -108 -66 -131 -66 -18 0 -51 -29 -51
-46 0 -17 55 -34 113 -34 58 0 229 38 239 53 3 6 4 15 2 22 -5 12 124 55 164
55 31 0 45 25 38 65 l-7 36 78 -3 78 -3 1 -185 c1 -102 -1 -233 -4 -291 l-5
-107 -136 0 c-75 0 -554 0 -1065 -1 -511 -1 -932 2 -935 5 -3 3 -6 132 -6 287
l0 282 122 3 c112 2 123 1 123 -15 0 -10 3 -28 6 -39 5 -17 0 -24 -25 -32 -37
-13 -47 -33 -31 -61 7 -14 21 -21 40 -21 16 0 32 -5 35 -11 9 -14 85 -1 107
18 11 10 18 11 23 4 3 -6 17 -11 31 -11 14 0 39 -7 56 -16 25 -13 48 -15 101
-11 38 3 72 9 75 12 4 3 1 15 -6 25 -17 28 -16 30 17 30 55 0 61 7 61 71 l0
59 308 2 c169 2 375 3 457 3 l150 0 -3 -30z m178 27 c0 -11 -22 -32 -32 -32
-5 0 -4 9 2 20 11 20 30 28 30 12z m-1125 -112 c-3 -5 -25 -9 -48 -9 l-42 2
35 7 c52 11 62 11 55 0z m-77 -39 c12 -11 22 -22 22 -26 0 -3 -33 -5 -72 -3
-75 3 -89 14 -47 35 34 18 70 15 97 -6z"/>
<path d="M1326 3496 c-21 -16 -27 -28 -22 -42 5 -16 -1 -24 -26 -37 l-33 -18
34 6 c18 3 45 5 60 6 18 0 21 3 11 7 -18 8 -19 26 -2 66 16 38 12 40 -22 12z"/>
<path d="M980 3487 c0 -13 9 -32 19 -41 18 -17 20 -16 26 4 5 15 1 27 -14 41
-26 25 -31 24 -31 -4z"/>
<path d="M1060 3481 c0 -5 5 -13 10 -16 6 -3 10 -2 10 4 0 5 -4 13 -10 16 -5
3 -10 2 -10 -4z"/>
<path d="M1230 3469 c0 -11 5 -17 10 -14 6 3 10 13 10 21 0 8 -4 14 -10 14 -5
0 -10 -9 -10 -21z"/>
<path d="M1039 3429 c-12 -7 -12 -9 0 -9 8 0 23 -7 33 -17 14 -13 18 -13 18
-2 0 20 -34 39 -51 28z"/>
<path d="M1180 3371 c0 -10 6 -24 14 -31 8 -6 13 -17 10 -25 -3 -7 -1 -16 5
-20 6 -3 11 1 11 9 0 12 10 16 35 16 27 0 35 4 35 18 0 10 5 23 12 30 9 9 6
12 -14 12 -14 0 -31 -7 -38 -15 -18 -21 -41 -19 -47 5 -7 25 -23 26 -23 1z
m95 -30 c-3 -6 -11 -11 -16 -11 -5 0 -4 6 3 14 14 16 24 13 13 -3z"/>
<path d="M1107 3213 c-4 -3 -7 -11 -7 -17 0 -6 5 -5 12 2 6 6 9 14 7 17 -3 3
-9 2 -12 -2z"/>
<path d="M1560 2926 c0 -9 7 -16 16 -16 9 0 14 5 12 12 -6 18 -28 21 -28 4z"/>
<path d="M1716 2911 c-4 -5 -2 -12 3 -15 5 -4 12 -2 15 3 4 5 2 12 -3 15 -5 4
-12 2 -15 -3z"/>
<path d="M1950 2540 c0 -5 5 -10 10 -10 6 0 10 5 10 10 0 6 -4 10 -10 10 -5 0
-10 -4 -10 -10z"/>
<path d="M1345 2510 c-28 -7 -28 -8 -5 -9 14 0 32 4 40 9 17 11 8 11 -35 0z"/>
<path d="M1423 2503 c9 -2 23 -2 30 0 6 3 -1 5 -18 5 -16 0 -22 -2 -12 -5z"/>
<path d="M1265 2430 c-3 -6 1 -7 9 -4 18 7 21 14 7 14 -6 0 -13 -4 -16 -10z"/>
<path d="M1676 2481 c-4 -5 -2 -12 3 -15 5 -4 12 -2 15 3 4 5 2 12 -3 15 -5 4
-12 2 -15 -3z"/>
<path d="M1560 2320 c0 -5 5 -10 10 -10 6 0 10 5 10 10 0 6 -4 10 -10 10 -5 0
-10 -4 -10 -10z"/>
<path d="M1610 2310 c0 -5 7 -10 15 -10 8 0 15 5 15 10 0 6 -7 10 -15 10 -8 0
-15 -4 -15 -10z"/>
<path d="M1564 2275 c-4 -8 -4 -21 -1 -29 3 -8 -1 -20 -9 -27 -17 -14 -4 -34
29 -43 12 -3 27 -15 32 -28 6 -14 17 -22 28 -20 10 2 25 -2 33 -9 11 -9 14 -8
14 5 0 10 5 14 10 11 18 -11 11 11 -10 30 -10 9 -26 15 -34 12 -12 -5 -14 2
-11 34 4 35 1 41 -20 49 -14 5 -25 14 -25 20 0 16 -30 12 -36 -5z m41 -25 c3
-5 1 -10 -4 -10 -6 0 -11 5 -11 10 0 6 2 10 4 10 3 0 8 -4 11 -10z"/>
<path d="M1675 2277 c-4 -10 -5 -21 -1 -24 10 -10 18 4 13 24 -4 17 -4 17 -12
0z"/>
<path d="M1520 2180 c0 -5 5 -10 10 -10 6 0 10 5 10 10 0 6 -4 10 -10 10 -5 0
-10 -4 -10 -10z"/>
<path d="M1847 2362 c-16 -18 -47 -87 -47 -106 0 -6 10 8 21 32 27 53 35 49
15 -9 -8 -24 -14 -45 -12 -47 7 -6 36 60 36 80 0 11 5 28 10 38 13 25 -3 34
-23 12z"/>
<path d="M1905 2348 c-4 -18 -9 -42 -12 -53 -3 -13 -2 -17 5 -10 11 11 27 95
19 95 -3 0 -8 -15 -12 -32z"/>
<path d="M1925 2313 c-5 -54 -18 -114 -32 -151 -4 -9 -2 -13 5 -9 25 16 63
217 41 217 -4 0 -10 -26 -14 -57z"/>
<path d="M1870 2259 c0 -5 5 -7 10 -4 6 3 10 8 10 11 0 2 -4 4 -10 4 -5 0 -10
-5 -10 -11z"/>
<path d="M1815 2210 c-3 -5 -1 -10 4 -10 6 0 11 5 11 10 0 6 -2 10 -4 10 -3 0
-8 -4 -11 -10z"/>
<path d="M406 1878 c-3 -18 -8 -87 -11 -153 -3 -66 -8 -145 -11 -175 -4 -41
-2 -51 6 -38 5 9 16 95 24 190 7 95 16 181 20 191 6 12 4 17 -7 17 -10 0 -18
-12 -21 -32z"/>
<path d="M430 1180 c0 -35 2 -61 5 -58 8 7 9 108 1 115 -3 3 -6 -22 -6 -57z"/>
<path d="M1690 1750 c0 -5 5 -10 10 -10 6 0 10 5 10 10 0 6 -4 10 -10 10 -5 0
-10 -4 -10 -10z"/>
<path d="M1630 1680 c0 -5 5 -10 11 -10 5 0 7 5 4 10 -3 6 -8 10 -11 10 -2 0
-4 -4 -4 -10z"/>
<path d="M1720 1559 c0 -5 5 -7 10 -4 6 3 10 8 10 11 0 2 -4 4 -10 4 -5 0 -10
-5 -10 -11z"/>
<path d="M1820 1469 c0 -5 5 -7 10 -4 6 3 10 8 10 11 0 2 -4 4 -10 4 -5 0 -10
-5 -10 -11z"/>
<path d="M1505 890 c3 -5 10 -10 16 -10 5 0 9 5 9 10 0 6 -7 10 -16 10 -8 0
-12 -4 -9 -10z"/>
<path d="M825 860 c-3 -5 1 -10 9 -10 9 0 16 5 16 10 0 6 -4 10 -9 10 -6 0
-13 -4 -16 -10z"/>
<path d="M1930 924 c0 -8 5 -12 10 -9 6 3 10 10 10 16 0 5 -4 9 -10 9 -5 0
-10 -7 -10 -16z"/>
<path d="M1795 860 c-3 -5 -2 -10 4 -10 5 0 13 5 16 10 3 6 2 10 -4 10 -5 0
-13 -4 -16 -10z"/>
<path d="M2008 883 c7 -3 16 -2 19 1 4 3 -2 6 -13 5 -11 0 -14 -3 -6 -6z"/>
<path d="M2090 866 c19 -8 39 -11 44 -8 14 8 -17 22 -49 21 l-30 -1 35 -12z"/>
<path d="M2053 373 c-7 -2 -13 -13 -13 -24 0 -11 -10 -23 -22 -28 -22 -8 -22
-8 -2 -19 12 -6 21 -22 22 -41 2 -25 -2 -30 -25 -33 -40 -5 -41 -26 -1 -25 29
2 33 -1 34 -23 3 -61 5 -70 15 -70 7 0 9 12 5 34 -5 27 -3 37 11 45 16 9 16
12 3 21 -13 9 -12 11 5 9 36 -3 45 1 45 16 0 10 -11 16 -32 16 -31 2 -31 2 -5
6 37 6 34 21 -5 26 -32 4 -32 4 5 5 21 1 36 6 33 11 -3 4 -17 6 -31 3 -16 -3
-25 0 -25 8 0 7 7 10 15 6 8 -3 15 -1 15 4 0 6 -10 11 -22 11 -21 1 -21 2 -3
6 11 3 26 10 33 16 23 18 -20 35 -55 20z m50 -140 c-7 -2 -21 -2 -30 0 -10 3
-4 5 12 5 17 0 24 -2 18 -5z"/>
<path d="M1980 260 c0 -5 7 -10 15 -10 8 0 15 5 15 10 0 6 -7 10 -15 10 -8 0
-15 -4 -15 -10z"/>
<path d="M1090 3820 c0 -5 5 -10 10 -10 6 0 10 -20 10 -45 0 -33 -4 -45 -15
-45 -8 0 -15 -4 -15 -10 0 -6 35 -10 85 -10 50 0 85 4 85 10 0 6 -9 10 -20 10
-17 0 -20 7 -20 45 0 38 3 45 20 45 11 0 20 5 20 10 0 6 -33 10 -80 10 -47 0
-80 -4 -80 -10z m90 -53 c0 -48 -5 -58 -26 -50 -9 3 -14 21 -14 49 0 37 3 44
20 44 17 0 20 -7 20 -43z"/>
<path d="M1615 3626 c11 -8 25 -11 33 -8 11 4 11 6 0 13 -7 5 -22 9 -32 9 -19
0 -19 0 -1 -14z"/>
<path d="M1680 3620 c0 -5 6 -10 14 -10 7 0 29 -2 47 -5 25 -4 29 -3 14 3 -37
17 -75 23 -75 12z"/>
<path d="M1285 3160 c-4 -6 -2 -16 4 -23 6 -8 6 -18 1 -27 -7 -11 -10 -8 -15
13 -11 41 -27 32 -19 -10 6 -36 5 -37 -10 -18 -15 20 -15 20 -16 -2 0 -13 -9
-32 -20 -43 -21 -21 -27 -60 -10 -60 6 0 10 8 10 18 0 11 17 28 43 42 23 13
50 32 59 42 9 11 19 19 22 18 4 -1 12 1 19 3 6 3 2 6 -9 6 -25 1 -49 25 -39
41 3 5 2 10 -4 10 -5 0 -13 -5 -16 -10z"/>
</g>
</svg>
