<?xml version="1.0" standalone="no"?>
<!DOCTYPE svg PUBLIC "-//W3C//DTD SVG 20010904//EN"
 "http://www.w3.org/TR/2001/REC-SVG-20010904/DTD/svg10.dtd">
<svg version="1.0" xmlns="http://www.w3.org/2000/svg"
 width="217.000000pt" height="378.000000pt" viewBox="0 0 217.000000 378.000000"
 preserveAspectRatio="xMidYMid meet">
<metadata>
Created by potrace 1.16, written by Peter Selinger 2001-2019
</metadata>
<g transform="translate(0.000000,378.000000) scale(0.100000,-0.100000)"
fill="#000000" stroke="none">
<path d="M637 3743 l-628 -3 2 -388 c1 -213 1 -769 0 -1237 -2 -1097 -2 -1119
5 -1113 8 9 14 553 16 1695 l2 1021 751 4 c1121 5 1333 4 1342 -5 9 -10 16
-2683 7 -2739 -4 -24 -11 -35 -18 -31 -6 4 -19 6 -28 5 -16 -3 -18 6 -18 82 0
76 2 86 18 86 31 0 44 21 25 42 -9 10 -22 18 -30 18 -25 0 -13 19 15 23 l27 4
-27 2 c-30 1 -39 21 -10 22 14 0 14 2 -3 8 -19 8 -19 8 3 20 25 13 21 31 -8
31 -23 0 -31 -12 -32 -50 -1 -19 -6 -30 -15 -30 -8 0 -11 5 -8 10 3 6 -1 10
-9 10 -22 0 -20 -19 2 -26 46 -15 47 -16 14 -28 -34 -12 -34 -26 0 -26 10 0
18 -4 18 -10 0 -5 -11 -10 -25 -10 -14 0 -25 -4 -25 -9 0 -4 11 -6 25 -3 25 4
25 3 25 -59 0 -35 3 -73 6 -84 3 -13 -2 -24 -16 -33 -20 -12 -20 -11 -14 30 6
36 5 41 -7 32 -21 -17 -79 -26 -79 -12 0 6 -3 8 -7 4 -5 -4 -8 -24 -8 -43 0
-20 -6 -38 -12 -40 -16 -6 -16 12 1 147 8 70 9 117 3 145 -5 22 -11 72 -13
110 -4 68 -4 69 12 42 10 -19 21 -27 31 -23 8 3 17 6 19 6 2 0 4 10 4 22 0 11
12 37 27 57 16 20 27 40 25 45 -1 4 4 13 11 20 21 16 31 93 13 103 -7 4 -16
18 -20 30 -6 18 -2 24 18 29 23 5 25 11 24 50 -2 36 -5 43 -19 39 -21 -7 -35
25 -17 37 8 6 1 7 -19 3 -30 -6 -61 14 -35 23 7 2 12 8 12 14 0 6 -9 3 -21 -8
-24 -21 -65 -20 -91 3 -20 18 -48 138 -48 210 0 30 7 67 15 82 22 43 47 180
42 226 -11 91 -30 136 -71 171 -22 19 -46 34 -53 34 -7 0 -13 7 -13 15 0 12 7
14 28 9 21 -4 24 -3 12 6 -12 8 -7 10 22 6 20 -3 40 -1 43 4 4 6 -6 10 -22 11
-27 0 -27 1 -5 9 12 5 22 14 22 20 0 6 -5 8 -11 4 -7 -4 -10 -1 -7 7 5 15 21
16 52 3 16 -6 18 -4 13 15 -4 18 -2 21 15 15 19 -6 20 -4 13 27 -4 19 -8 45
-7 58 0 15 -7 25 -19 28 -12 3 -18 13 -16 27 1 14 -4 22 -18 24 -26 4 -48 55
-32 71 8 8 2 10 -23 5 -33 -6 -34 -6 -15 9 11 8 16 19 12 23 -4 5 -12 2 -17
-6 -8 -12 -10 -12 -15 3 -8 19 -55 20 -55 1 0 -7 -8 -11 -17 -10 -14 1 -17 -6
-16 -29 1 -16 0 -24 -3 -17 -3 6 -15 12 -27 12 -16 0 -18 3 -9 12 7 7 12 16
12 22 0 5 -6 2 -13 -8 -7 -9 -26 -19 -43 -21 -29 -3 -32 -1 -37 32 -4 20 -2
42 4 49 6 8 6 14 0 18 -5 3 -12 0 -15 -6 -3 -7 -3 5 0 27 7 48 59 165 73 165
6 0 11 11 11 23 0 32 -37 48 -127 54 -83 7 -159 -10 -174 -39 -12 -22 -5 -36
25 -48 15 -5 30 -28 44 -65 25 -66 28 -95 8 -95 -21 0 -27 -27 -10 -41 8 -7
13 -18 10 -25 -9 -22 34 -23 69 -1 23 15 34 30 35 46 0 28 12 20 17 -11 2 -12
-6 -32 -19 -45 -21 -23 -13 -34 10 -11 20 20 26 -1 6 -24 -17 -19 -17 -21 -1
-15 11 4 17 1 17 -8 0 -8 -6 -15 -14 -15 -8 0 -18 -5 -22 -12 -5 -8 -2 -9 9
-5 25 9 21 -4 -9 -28 -18 -14 -27 -33 -31 -65 -5 -43 -5 -44 11 -25 l17 20 -3
-20 c-2 -15 -12 -21 -40 -23 -47 -4 -78 12 -73 37 10 51 14 184 6 166 -5 -11
-10 -46 -10 -77 -1 -35 -6 -62 -15 -71 -15 -14 -25 -101 -14 -113 8 -8 -14
-33 -24 -28 -4 3 -19 -3 -33 -12 -21 -13 -38 -15 -88 -10 -59 7 -88 10 -166
14 -30 2 -33 5 -29 27 3 13 2 23 -2 20 -10 -6 -43 54 -46 87 -2 15 -1 28 1 28
3 0 26 -15 52 -34 71 -50 103 -64 198 -86 95 -22 135 -26 119 -10 -5 5 -42 14
-81 20 -40 5 -91 17 -115 26 -42 16 -187 104 -187 114 0 3 8 16 19 30 18 24
20 24 52 10 39 -18 174 -18 206 -1 22 12 22 12 3 49 -39 77 -50 154 -51 376 0
68 40 156 71 156 21 0 41 31 31 47 -23 35 -186 49 -276 24 -66 -18 -88 -40
-66 -66 8 -10 22 -14 36 -11 25 7 43 -16 73 -92 19 -49 19 -49 -1 -67 -20 -17
-20 -19 -4 -30 16 -12 13 -19 -30 -91 -25 -44 -65 -101 -88 -129 -23 -27 -50
-63 -60 -79 -19 -29 -19 -30 -27 -8 -5 12 -12 22 -17 22 -5 0 -12 14 -16 31
-8 40 39 176 65 190 68 36 -76 77 -217 63 -45 -5 -64 -11 -73 -26 -11 -18 -9
-24 16 -48 15 -15 34 -45 42 -66 8 -22 23 -52 33 -67 16 -22 17 -31 8 -42 -10
-12 -10 -18 0 -30 8 -9 14 -45 15 -83 0 -37 6 -78 12 -92 14 -31 16 -16 4 28
-9 29 -8 33 7 30 13 -3 16 -12 14 -43 -4 -56 -11 -75 -27 -75 -19 0 -27 -28
-15 -51 6 -11 8 -24 5 -29 -8 -12 18 -60 44 -82 25 -21 26 -31 6 -48 -8 -7
-15 -20 -15 -29 0 -9 -13 -22 -31 -28 -27 -11 -30 -16 -29 -50 3 -57 1 -63
-16 -63 -9 0 -23 -8 -30 -17 -8 -11 -13 -13 -14 -5 0 18 -25 15 -41 -5 -13
-16 -12 -17 4 -4 15 12 17 11 17 -7 0 -21 -24 -36 -53 -33 -21 3 -23 -15 -2
-27 14 -7 13 -11 -4 -26 -45 -41 -92 -24 -113 39 -6 18 -6 18 -7 -3 -1 -13 4
-32 9 -43 6 -11 7 -19 1 -19 -10 0 -41 83 -41 109 0 9 11 37 25 63 27 52 34
83 10 52 -8 -10 -15 -14 -15 -8 0 6 7 17 15 24 8 7 15 17 15 23 0 6 12 21 26
32 25 20 26 25 25 108 -1 48 -4 93 -7 101 -3 8 -1 17 5 21 16 9 13 23 -9 45
-14 14 -16 20 -6 20 7 0 16 9 19 20 7 27 56 47 104 42 49 -5 68 -40 58 -105
-14 -79 -20 -87 -67 -87 -43 -1 -43 -1 -17 -15 41 -22 42 -40 5 -69 -20 -15
-41 -45 -53 -78 -17 -44 -25 -53 -43 -50 -19 2 -21 -1 -16 -24 4 -15 2 -32 -5
-40 -7 -8 -9 -17 -6 -21 4 -3 14 8 24 26 10 17 22 29 28 28 13 -5 30 30 39 76
5 28 21 48 65 87 55 48 90 94 79 105 -2 3 -17 -12 -31 -32 -22 -31 -27 -34
-27 -17 0 12 7 27 15 34 8 7 15 20 15 29 0 9 8 28 17 41 20 28 18 80 -3 97
-10 7 -12 13 -5 18 17 10 -6 46 -24 39 -9 -4 -15 0 -15 10 0 17 -15 22 -25 7
-3 -6 -17 -4 -33 5 -38 20 -55 18 -49 -5 3 -14 1 -18 -9 -14 -8 3 -22 2 -31
-2 -10 -5 -27 -7 -37 -6 -13 2 -17 -2 -13 -13 4 -10 1 -16 -8 -16 -8 0 -15 5
-15 11 0 6 -7 4 -15 -5 -8 -8 -15 -24 -15 -35 0 -12 -6 -21 -15 -21 -8 0 -15
-9 -15 -20 0 -11 7 -20 15 -20 9 0 12 -6 8 -17 -5 -11 -3 -14 6 -8 10 5 11 2
6 -14 -5 -15 -2 -21 9 -21 21 0 20 -17 -1 -28 -13 -8 -15 -19 -10 -58 3 -27 9
-58 13 -68 5 -14 4 -17 -5 -11 -17 10 -32 -14 -25 -39 5 -15 2 -18 -15 -13
-14 3 -24 -1 -31 -13 -13 -24 -13 -33 0 -25 6 4 23 10 38 14 27 8 27 8 25 -33
-1 -22 2 -43 7 -46 5 -3 3 -24 -6 -49 -14 -40 -13 -47 7 -106 15 -46 20 -77
16 -116 -15 -152 -28 -260 -38 -314 -7 -33 -13 -67 -13 -76 -1 -8 -14 -31 -29
-50 -32 -42 -35 -86 -8 -121 15 -18 18 -34 14 -64 -8 -63 13 -154 49 -204 41
-59 102 -116 148 -140 20 -10 42 -25 48 -33 18 -21 51 -127 42 -132 -17 -11
-42 8 -37 27 4 14 2 18 -10 14 -8 -3 -19 -6 -25 -6 -6 0 -6 -6 2 -15 10 -13 9
-15 -9 -15 -15 0 -21 5 -19 16 4 21 -24 39 -46 31 -9 -4 -16 -16 -16 -27 0
-11 -7 -20 -16 -20 -8 0 -12 5 -9 10 3 6 1 10 -5 10 -11 0 -9 24 5 62 4 10 -4
13 -35 10 -28 -3 -40 0 -40 9 0 10 -3 10 -12 1 -10 -10 -10 -15 -1 -20 7 -4
11 -20 9 -35 -4 -39 -16 -46 -16 -9 0 31 -6 36 -42 33 -9 -1 -22 7 -28 18 -19
36 -130 24 -130 -14 0 -9 10 -15 26 -15 16 0 24 -5 21 -12 -2 -7 -11 -12 -20
-10 -10 2 -17 -6 -19 -20 -2 -13 -11 -24 -23 -27 -24 -4 -36 -21 -30 -41 3
-10 -3 -15 -18 -16 -12 -1 -29 -4 -37 -5 -10 -3 -17 8 -21 36 -7 47 -10 -67
-14 -560 -3 -258 0 -352 8 -357 7 -4 490 -8 1075 -8 843 0 1062 3 1062 13 0 6
2 311 4 677 7 948 7 3016 0 3033 -10 27 35 27 -1517 20z m608 -281 c17 -10 14
-12 -25 -13 -28 -1 -35 -3 -20 -6 43 -8 46 -23 4 -17 -34 4 -36 3 -14 -6 33
-15 33 -15 18 -39 -8 -13 -24 -22 -43 -22 l-30 -2 28 -4 c15 -2 27 -9 27 -14
0 -5 -12 -10 -27 -10 -17 -1 -21 -3 -10 -6 23 -6 22 -23 -2 -23 -28 0 -35 -28
-8 -33 17 -3 16 -5 -7 -6 -24 -1 -27 -3 -16 -16 7 -9 10 -18 7 -22 -6 -5 -56
95 -71 143 -9 29 -67 82 -73 67 -6 -17 -23 -16 -23 1 0 8 17 21 38 30 43 19
214 17 247 -2z m-121 -260 l21 -11 -23 0 c-12 -1 -24 -7 -26 -13 -2 -7 -12
-42 -24 -78 -11 -36 -23 -77 -26 -92 -7 -30 -61 -152 -83 -185 -14 -21 -16
-21 -39 -6 -13 8 -24 12 -24 8 0 -4 -7 -2 -15 5 -33 27 -14 71 83 191 25 31
57 79 72 107 15 28 33 59 40 67 11 14 11 18 1 25 -8 4 -10 13 -6 21 7 10 11 8
18 -8 5 -12 19 -26 31 -31z m47 25 c-1 -12 -15 -9 -19 4 -3 6 1 10 8 8 6 -3
11 -8 11 -12z m397 4 c51 -10 56 -14 47 -40 -5 -16 -13 -19 -43 -15 l-37 4 33
-10 c40 -13 42 -22 3 -14 -17 4 -32 1 -36 -6 -5 -8 -2 -10 11 -6 11 3 26 1 34
-4 12 -8 9 -10 -12 -10 -15 0 -30 -5 -34 -11 -4 -8 0 -9 15 -4 12 4 21 2 21
-4 0 -6 -10 -11 -22 -12 -22 0 -22 -1 -3 -9 18 -8 18 -9 -5 -10 -18 -2 -20 -4
-7 -7 25 -6 21 -23 -5 -24 -17 -1 -19 -2 -5 -6 21 -5 23 -23 2 -23 -25 0 -65
-23 -65 -37 0 -7 -4 -13 -10 -13 -12 0 -12 2 -1 34 6 14 6 26 1 28 -5 2 -11
15 -15 29 -6 23 -2 28 22 38 l28 11 -31 -6 c-41 -7 -57 22 -18 32 14 4 22 9
16 13 -5 3 -14 16 -21 29 -12 22 -38 25 -34 4 1 -5 -5 -9 -15 -7 -9 2 -20 4
-24 4 -13 1 -9 29 5 38 31 19 139 27 205 14z m-705 -48 c19 -11 2 -18 -45 -17
-33 1 -40 0 -18 -3 46 -6 53 -15 39 -46 -10 -22 -17 -25 -43 -22 l-31 5 28
-12 c15 -7 27 -15 27 -19 0 -3 -12 -5 -27 -2 -27 3 -27 3 -5 -8 27 -15 28 -33
2 -59 -24 -24 -60 -27 -60 -5 0 8 -5 14 -11 13 -6 -2 -14 3 -16 10 -3 6 1 10
9 9 7 -2 10 -2 5 0 -4 3 -5 8 -2 13 3 4 -4 6 -15 3 -28 -7 -25 13 3 22 22 8
22 8 -3 12 -38 8 -53 38 -22 46 9 3 2 5 -15 6 -42 1 -47 31 -5 31 15 0 34 5
42 10 14 9 -8 8 -72 -5 -32 -6 -19 14 15 24 29 9 202 4 220 -6z m317 -2 c0
-11 -31 -24 -39 -16 -3 3 1 10 9 15 19 12 30 12 30 1z m-30 -79 c0 -13 7 -30
15 -38 18 -19 19 -34 3 -34 -9 0 -8 -4 2 -10 12 -8 13 -12 2 -19 -11 -6 -10
-10 5 -16 17 -7 17 -8 -2 -15 -17 -7 -17 -9 -2 -9 19 -1 24 -21 5 -22 -7 0 -4
-4 7 -8 18 -8 16 -10 -15 -18 -19 -6 -34 -15 -33 -22 2 -6 -4 -11 -13 -11 -14
0 -16 8 -10 53 3 28 9 89 13 135 3 50 9 78 14 70 5 -7 9 -23 9 -36z m40 44 c0
-2 -7 -6 -15 -10 -8 -3 -15 -1 -15 4 0 6 7 10 15 10 8 0 15 -2 15 -4z m-80
-73 c0 -33 -22 -236 -26 -242 -6 -7 -74 30 -74 39 0 5 7 25 17 44 14 30 19 34
37 25 17 -8 16 -6 -4 11 l-25 22 30 -7 c29 -6 29 -6 10 9 l-20 16 20 -6 c20
-6 20 -5 1 10 -20 16 -20 16 0 17 10 0 13 3 7 6 -7 2 -13 9 -13 14 0 6 4 8 9
5 5 -3 9 0 8 7 -1 34 4 57 13 57 6 0 10 -12 10 -27z m398 -91 c2 -7 -3 -12
-12 -12 -9 0 -16 7 -16 16 0 17 22 14 28 -4z m-83 -2 c3 -5 1 -10 -4 -10 -6 0
-11 5 -11 10 0 6 2 10 4 10 3 0 8 -4 11 -10z m-664 -33 c-13 -13 -26 -3 -16
12 3 6 11 8 17 5 6 -4 6 -10 -1 -17z m36 3 c-3 -13 0 -20 8 -20 20 0 45 -40
45 -72 0 -22 -5 -28 -21 -28 -13 0 -20 6 -18 18 4 46 0 52 -38 53 -35 0 -36 1
-15 11 13 7 22 20 22 35 0 12 5 23 11 23 6 0 9 -9 6 -20z m-77 0 c0 -5 -4 -10
-10 -10 -5 0 -10 5 -10 10 0 6 5 10 10 10 6 0 10 -4 10 -10z m1044 -62 c5 -21
3 -26 -7 -22 -10 3 -13 -4 -11 -28 2 -18 1 -24 -2 -13 -4 11 -10 25 -15 31 -6
8 -4 14 7 18 13 5 14 9 4 21 -6 8 -9 19 -5 25 9 15 21 2 29 -32z m-545 -10 c6
-17 10 -33 8 -35 -6 -5 -119 -25 -123 -21 -2 2 -1 13 2 25 4 14 18 24 47 31
39 9 40 10 12 12 -30 2 -30 2 -5 10 42 13 48 11 59 -22z m-482 0 c4 -7 9 -23
11 -36 2 -20 0 -22 -14 -14 -9 5 -18 21 -20 36 -3 27 9 35 23 14z m1071 -20
c7 -7 12 -28 11 -47 0 -32 -1 -33 -9 -13 -5 12 -14 22 -20 22 -5 0 -10 11 -10
25 0 27 9 32 28 13z m-178 -43 c7 -9 8 -15 2 -15 -5 0 -12 7 -16 15 -3 8 -4
15 -2 15 2 0 9 -7 16 -15z m-750 -35 c0 -17 -23 -70 -30 -70 -5 0 -2 14 7 30
12 25 12 34 3 46 -11 12 -10 13 4 8 9 -3 16 -9 16 -14z m665 -37 c4 -32 13
-76 21 -98 14 -41 8 -55 -26 -55 -12 0 -15 15 -17 72 -1 42 -6 74 -12 76 -15
5 -14 49 2 55 23 10 25 7 32 -50z m133 34 c9 -7 21 -6 38 2 31 14 56 14 32 0
-19 -10 -25 -39 -9 -39 5 0 4 -17 -2 -37 -14 -49 -11 -191 4 -209 15 -19 33
-18 25 2 -3 8 -2 13 3 10 5 -3 9 -22 8 -41 -1 -26 -5 -35 -19 -35 -9 0 -22 -9
-28 -20 -10 -19 -10 -20 12 -9 13 7 30 15 38 19 8 4 16 17 16 29 2 33 7 32 27
-6 15 -31 16 -35 2 -29 -13 4 -14 2 -5 -14 6 -11 17 -20 25 -20 15 0 30 -56
22 -87 -4 -17 -4 -17 -12 2 -10 22 -34 44 -50 45 -5 0 1 -7 13 -16 30 -21 28
-34 -5 -35 l-28 -2 27 -4 c14 -2 29 -10 31 -18 3 -7 -3 -50 -14 -95 -15 -63
-19 -102 -15 -176 5 -92 5 -94 -17 -95 l-22 0 23 -9 c12 -5 22 -14 22 -20 0
-5 -10 -11 -22 -11 -21 -1 -21 -2 -3 -6 32 -8 42 -23 15 -23 -23 0 -23 0 -4
-15 19 -14 19 -14 -1 -16 -17 -1 -16 -2 5 -9 l25 -8 -25 -2 -25 -1 23 -11 c26
-13 29 -28 5 -29 -14 0 -13 -3 5 -11 21 -11 30 -28 14 -28 -12 0 -9 -40 3 -41
5 0 1 -4 -10 -9 -17 -7 -17 -9 -2 -9 25 -1 21 -21 -5 -22 l-23 -2 23 -4 c22
-4 33 -43 11 -43 -6 0 -3 -7 6 -16 11 -12 15 -30 13 -63 -3 -42 -5 -46 -28
-44 l-25 2 23 -11 c24 -12 31 -41 7 -32 -8 4 -15 1 -15 -5 0 -6 7 -11 15 -11
8 0 15 -4 15 -10 0 -5 -7 -10 -16 -10 -8 0 -12 -5 -9 -10 4 -6 11 -8 16 -5 5
4 9 1 9 -4 0 -6 -10 -12 -22 -12 l-23 -2 23 -4 c26 -5 30 -23 5 -23 -17 -1
-17 -1 0 -11 24 -14 21 -29 -5 -30 l-23 -2 23 -4 c27 -5 28 -11 5 -29 -17 -13
-17 -14 0 -8 26 9 21 -21 -5 -35 l-23 -11 23 6 c12 3 22 1 22 -5 0 -6 -4 -11
-9 -11 -5 0 -23 -12 -41 -26 -27 -23 -37 -26 -86 -22 -36 3 -64 12 -82 26 -15
12 -37 27 -49 32 -13 5 -23 17 -23 26 0 11 -6 15 -18 12 -10 -3 -23 1 -30 9
-11 11 -9 13 10 13 17 0 19 3 9 9 -11 7 -10 10 5 13 10 2 -12 5 -50 6 -37 1
-71 4 -76 7 -4 2 -10 101 -14 218 -8 213 -7 214 17 273 14 32 28 86 32 119 4
33 14 75 21 94 8 18 14 52 14 75 0 23 5 47 12 54 14 14 48 16 48 2 0 -5 -6 -7
-14 -4 -8 3 -16 1 -19 -3 -3 -5 4 -10 15 -10 12 -1 25 -8 29 -15 21 -32 7 41
-16 86 -13 27 -22 52 -19 57 6 11 25 12 22 2 -1 -5 11 -35 26 -68 15 -33 30
-72 33 -88 6 -29 23 -48 23 -25 0 7 -4 27 -9 45 -9 30 -7 32 17 36 25 4 25 4
-4 6 -28 1 -34 7 -53 52 -11 29 -21 59 -21 67 0 13 -3 13 -12 4 -7 -7 -21 -12
-31 -12 -16 0 -17 3 -7 15 7 8 16 12 21 9 5 -3 9 -1 9 5 0 5 -4 11 -9 13 -5 2
0 30 10 63 13 41 17 74 13 103 -5 37 -4 42 12 41 11 0 28 -4 39 -9 l20 -9 -20
-1 -20 -1 20 -9 c11 -4 24 -4 29 0 4 5 27 0 50 -11 22 -10 47 -19 55 -19 26 0
-7 26 -49 39 -27 8 -45 21 -55 41 -14 28 -14 30 11 55 l25 26 -30 28 c-29 28
-31 33 -31 105 l0 77 38 -7 c20 -4 43 -11 50 -17z m-853 -7 c-3 -5 1 -10 10
-10 10 0 13 -5 9 -12 -4 -6 -6 -32 -5 -57 2 -60 -17 -42 -21 21 -2 25 -7 44
-11 41 -4 -2 -5 -13 -2 -24 5 -15 3 -18 -12 -12 -38 14 -44 43 -9 43 14 0 28
5 31 10 3 6 8 10 11 10 3 0 2 -4 -1 -10z m-380 -10 c3 -5 1 -10 -4 -10 -6 0
-11 5 -11 10 0 6 2 10 4 10 3 0 8 -4 11 -10z m479 -5 c-4 -8 -10 -15 -15 -15
-4 0 -6 7 -3 15 4 8 10 15 15 15 4 0 6 -7 3 -15z m916 -11 c0 -8 -4 -12 -10
-9 -5 3 -10 13 -10 21 0 8 5 12 10 9 6 -3 10 -13 10 -21z m54 -23 c3 -16 -1
-30 -10 -37 -8 -6 -14 -16 -14 -23 0 -16 -17 -14 -24 4 -3 9 -3 35 0 60 6 39
8 42 24 32 10 -6 21 -22 24 -36z m-76 4 c2 -18 2 -19 -8 -2 -9 14 -15 15 -33
5 -20 -10 -21 -10 -8 6 18 22 45 17 49 -9z m-1386 -10 c-2 -14 -6 -25 -8 -25
-2 0 -4 11 -4 25 0 14 4 25 9 25 4 0 6 -11 3 -25z m508 21 c0 -2 -8 -10 -17
-17 -16 -13 -17 -12 -4 4 13 16 21 21 21 13z m39 -69 c11 -23 23 -56 27 -71 6
-27 5 -29 -15 -23 -16 4 -21 2 -17 -8 2 -7 -2 -19 -10 -25 -8 -7 -14 -17 -14
-22 0 -18 -41 -68 -56 -68 -23 0 -16 41 12 62 14 12 23 27 20 35 -3 8 -2 12 3
9 13 -8 20 44 10 71 -5 15 -5 23 2 23 6 0 8 9 4 20 -6 18 0 40 10 40 3 0 13
-19 24 -43z m-95 1 c7 -5 4 -8 -6 -8 -12 0 -18 7 -17 23 0 15 2 17 6 7 3 -8
11 -18 17 -22z m522 18 c21 -16 16 -30 -9 -20 -16 6 -32 34 -19 34 5 0 17 -6
28 -14z m374 -10 c0 -7 -6 -21 -14 -32 -13 -16 -17 -17 -28 -5 -7 8 -8 11 -2
8 16 -9 38 19 30 38 -3 9 -2 13 4 10 6 -3 10 -12 10 -19z m-276 -3 c4 -4 -3
-15 -16 -25 -16 -13 -19 -18 -8 -18 9 0 16 -10 18 -25 1 -20 -3 -25 -23 -25
-13 0 -27 -5 -31 -11 -5 -9 3 -10 28 -5 28 5 37 3 42 -10 9 -25 -9 -40 -29
-24 -12 10 -15 10 -15 -5 0 -15 6 -17 36 -12 31 5 34 4 23 -9 -9 -11 -23 -14
-46 -11 -20 4 -31 2 -28 -4 4 -5 13 -9 20 -9 8 0 21 -13 30 -30 16 -31 21 -75
6 -66 -4 3 -6 -6 -3 -19 8 -44 -13 -27 -31 25 -20 55 -61 109 -74 97 -4 -5 0
-14 9 -21 10 -7 15 -16 11 -19 -10 -11 -25 -8 -18 3 3 6 1 10 -4 10 -6 0 -11
11 -11 25 0 14 6 25 13 25 7 0 13 9 14 20 1 16 -3 18 -28 13 -22 -4 -29 -2
-29 10 0 19 26 29 54 22 17 -5 18 -4 6 4 -8 6 -25 11 -37 11 -13 0 -23 5 -23
10 0 13 12 13 47 -1 l28 -10 -32 30 c-37 33 -42 45 -15 37 9 -3 35 1 57 9 47
17 50 17 59 8z m-1067 -35 c-3 -8 -6 -5 -6 6 -1 11 2 17 5 13 3 -3 4 -12 1
-19z m318 -58 c10 -11 13 -20 7 -20 -18 0 -42 43 -41 75 l1 30 8 -33 c4 -18
16 -42 25 -52z m58 54 c-4 -11 -9 -12 -19 -3 -11 9 -18 8 -31 -2 -14 -12 -16
-12 -11 1 4 14 46 30 60 23 4 -2 5 -10 1 -19z m46 -58 c-11 -20 -28 -36 -37
-36 -15 1 -15 2 0 11 28 16 43 50 27 60 -12 8 -11 11 1 19 26 17 32 -16 9 -54z
m50 10 c-9 -8 -10 -7 -5 7 3 10 7 24 7 30 1 7 3 4 6 -7 3 -10 -1 -23 -8 -30z
m-119 24 c0 -5 -2 -10 -4 -10 -3 0 -8 5 -11 10 -3 6 -1 10 4 10 6 0 11 -4 11
-10z m990 2 c0 -4 -10 -9 -22 -9 -18 -2 -20 0 -8 7 18 12 30 13 30 2z m-630
-47 c-10 -12 -5 -17 25 -30 46 -19 51 -19 35 0 -8 10 -9 15 -1 15 31 0 52
-116 56 -307 2 -67 6 -126 10 -132 3 -6 -1 -11 -9 -11 -21 0 -20 -10 2 -26 16
-12 15 -13 -8 -14 l-25 -1 23 -11 c12 -6 22 -15 22 -20 0 -4 -10 -8 -22 -9
l-23 0 23 -9 c25 -11 30 -30 7 -30 -20 0 -19 -10 3 -27 15 -12 14 -13 -10 -7
-34 7 -38 -11 -5 -20 21 -6 21 -7 4 -20 -10 -8 -17 -23 -15 -33 3 -14 8 -11
26 17 26 42 28 118 12 393 -10 161 -16 204 -36 251 -5 13 -4 17 4 12 17 -10
39 -100 53 -216 7 -58 15 -95 17 -83 2 12 13 24 28 27 13 4 24 11 24 17 0 6
-7 6 -20 -1 -11 -6 -25 -8 -30 -5 -18 11 -11 35 13 45 22 9 22 9 -3 10 l-25 2
25 8 c23 7 23 8 4 9 -14 1 -24 10 -28 24 -9 35 -7 77 4 77 9 0 14 -27 11 -55
0 -6 8 -16 19 -22 18 -12 19 -10 13 39 -11 91 25 36 42 -65 5 -33 9 -37 27
-31 13 4 24 1 29 -7 6 -10 9 -8 9 9 0 19 -4 22 -27 17 -27 -6 -28 -6 -8 11 17
14 17 16 3 11 -20 -7 -25 8 -7 19 8 4 7 9 -2 15 -12 8 -11 11 1 19 24 16 26
14 50 -59 23 -66 23 -70 6 -95 -20 -31 -42 -26 -25 5 6 12 8 23 5 27 -3 3 -6
0 -6 -7 0 -8 -8 -11 -18 -9 -16 5 -18 -9 -18 -204 0 -146 -4 -212 -12 -220 -9
-9 -12 21 -14 133 -3 204 -3 204 -19 201 -8 -2 -18 -8 -24 -13 -7 -7 -3 -8 10
-4 20 7 20 6 1 -9 -18 -15 -18 -16 -2 -16 9 0 14 -5 11 -10 -4 -6 -12 -8 -18
-4 -7 3 -3 -2 7 -10 20 -16 20 -16 0 -16 -18 -1 -18 -1 -1 -11 9 -5 17 -16 17
-24 0 -8 -8 -19 -17 -24 -17 -10 -17 -10 0 -11 9 0 17 -4 17 -10 0 -5 -9 -10
-19 -10 -25 0 -28 -6 -35 -65 -12 -105 -20 -141 -38 -184 -21 -51 -17 -67 6
-22 20 38 46 159 46 212 0 42 21 62 43 40 8 -8 7 -11 -6 -11 -9 0 -17 -4 -17
-10 0 -5 5 -10 10 -10 6 0 10 -4 10 -10 0 -5 -6 -10 -13 -10 -8 0 -14 -7 -14
-15 0 -8 6 -15 14 -15 7 0 13 -3 14 -7 0 -5 3 -19 6 -33 12 -52 3 -140 -14
-140 -7 0 -13 -5 -13 -11 0 -5 -4 -7 -10 -4 -5 3 -10 2 -10 -4 0 -5 5 -11 10
-13 6 -2 -3 -35 -23 -78 -19 -41 -37 -83 -40 -92 -9 -26 -27 -22 -27 6 0 14
-4 27 -9 30 -4 3 -5 -13 -1 -36 8 -41 6 -45 -42 -100 l-50 -58 29 0 c16 0 34
5 41 12 9 9 12 7 12 -10 0 -12 -9 -27 -20 -34 -11 -7 -20 -22 -20 -34 0 -24
-40 -37 -80 -27 -17 5 -21 3 -15 -6 5 -9 21 -11 51 -6 52 7 61 -10 10 -19 -59
-11 -84 1 -91 44 -4 21 -13 46 -22 57 -14 17 -14 17 -8 -2 18 -53 52 -203 51
-227 -2 -57 -14 -35 -31 59 -20 109 -36 162 -30 98 10 -91 23 -192 28 -214 8
-29 -23 -92 -56 -114 -13 -8 -46 -18 -73 -21 l-49 -6 41 13 c44 13 89 45 113
80 8 12 -6 3 -32 -21 -42 -38 -51 -42 -94 -41 -42 1 -44 2 -18 8 32 8 75 29
75 36 0 3 -16 -3 -35 -12 -27 -13 -38 -14 -47 -5 -9 9 -8 12 8 12 10 0 26 5
34 11 12 9 11 10 -7 6 -13 -3 -25 -2 -28 3 -3 4 -14 10 -26 13 -19 5 -21 2
-17 -25 5 -28 4 -29 -9 -13 -12 17 -13 18 -13 1 0 -10 -4 -14 -12 -10 -8 5 -9
0 -6 -14 4 -12 2 -25 -3 -28 -5 -3 -9 2 -9 10 0 20 -10 20 -38 0 -18 -13 -26
-13 -38 -3 -12 10 -13 9 -8 -6 5 -12 4 -16 -3 -12 -6 4 -18 4 -27 1 -14 -5
-14 -9 -4 -22 11 -14 10 -15 -6 -8 -20 7 -20 7 0 -15 19 -21 19 -21 -6 -18
-55 8 -27 102 34 113 67 13 199 135 217 201 7 24 9 74 5 128 -5 66 -4 87 6 87
6 0 4 6 -7 14 -12 8 -16 20 -12 35 3 11 0 21 -5 21 -6 0 -4 8 3 17 12 15 12
16 -5 10 -16 -6 -17 -5 -6 8 11 13 10 14 -5 9 -13 -5 -16 -4 -11 4 4 7 2 12
-6 12 -10 0 -10 2 1 9 11 7 10 10 -5 14 -15 4 -15 5 5 6 17 1 22 -3 17 -14 -3
-8 0 -15 7 -15 15 0 57 -66 91 -142 27 -64 40 -76 25 -26 -17 61 -61 136 -133
226 -39 50 -80 108 -91 129 -10 21 -27 46 -37 56 -10 10 -18 28 -18 41 0 24
-35 64 -47 53 -3 -4 -1 -7 6 -7 7 0 9 -4 6 -10 -3 -5 -2 -10 4 -10 5 0 10 -8
10 -17 1 -40 5 -53 14 -53 5 0 7 -7 4 -14 -4 -11 -1 -13 11 -9 9 3 14 3 10 -1
-4 -5 2 -17 12 -29 11 -11 17 -24 14 -29 -3 -4 0 -8 6 -8 7 0 10 -7 6 -15 -3
-8 -2 -14 2 -12 8 2 15 -12 7 -15 -9 -5 -83 94 -107 141 -12 25 -23 40 -25 35
-5 -16 29 -75 103 -174 97 -130 127 -206 132 -335 2 -55 -1 -111 -6 -125 -8
-20 -10 -9 -9 50 2 138 -56 304 -142 402 -21 24 -46 58 -56 76 -11 17 -23 32
-27 32 -4 0 -8 15 -8 33 0 34 -31 110 -49 121 -6 4 -11 14 -11 23 0 23 24 0
45 -42 9 -19 20 -35 26 -35 6 0 5 9 -2 22 -10 18 -8 24 7 36 18 14 18 14 -1 8
-23 -6 -59 17 -53 35 6 19 56 20 68 1 16 -29 11 5 -7 43 -9 19 -23 35 -30 35
-15 0 -17 16 -3 25 6 3 10 22 10 41 0 21 4 33 10 29 6 -3 10 -1 10 4 0 6 7 11
15 11 7 0 19 8 25 18 11 16 11 16 6 0 -3 -10 -1 -18 4 -18 13 0 13 27 0 35
-18 11 -11 45 9 45 32 0 88 -90 116 -185 31 -106 56 -148 141 -232 46 -45 84
-85 84 -89 0 -13 43 -54 57 -54 9 0 13 12 12 38 -1 23 -3 28 -6 15 -5 -24 -25
-33 -22 -10 4 29 -2 42 -11 22 -7 -15 -9 -16 -9 -4 -1 9 -16 28 -33 42 -103
78 -133 118 -181 240 -26 64 -47 120 -47 124 0 14 61 -90 94 -160 38 -80 94
-151 135 -171 41 -20 133 -13 170 13 17 12 31 27 31 32 0 15 -10 11 -42 -16
-39 -33 -48 -32 -49 8 l-1 32 -13 -30 c-14 -29 -14 -30 -15 -5 -1 25 -1 25
-10 3 -13 -32 -22 -29 -15 5 5 23 4 23 -10 -7 -8 -19 -18 -31 -21 -28 -3 3 -1
15 6 26 7 14 8 27 2 38 -9 14 -11 14 -22 -7 -8 -14 -8 -20 -1 -16 6 4 11 3 11
-3 0 -17 -20 -23 -35 -11 -16 13 -21 35 -6 26 15 -10 34 21 23 39 -7 14 -11
13 -26 -10 -16 -25 -20 -26 -33 -12 -14 14 -13 19 8 54 16 27 18 34 6 24 -10
-8 -17 -9 -17 -3 0 6 5 14 10 17 6 3 10 12 10 18 0 7 -10 1 -21 -13 l-20 -25
6 25 c6 24 5 24 -9 6 -11 -14 -12 -21 -3 -31 7 -7 15 -11 20 -8 4 2 7 0 7 -6
0 -19 -17 -21 -32 -3 -33 37 -39 60 -24 84 16 26 16 70 1 75 -6 2 -16 -7 -24
-19 -14 -23 -14 -23 8 -4 11 11 21 14 21 8 0 -6 -4 -14 -10 -17 -5 -3 -10 -12
-10 -18 0 -7 4 -6 10 3 6 9 10 10 10 3 0 -20 -18 -24 -34 -7 -20 19 -20 25 -1
50 8 10 14 24 14 29 1 6 -8 -1 -18 -15 l-19 -24 1 26 c1 14 5 24 9 22 4 -2 9
0 13 6 3 5 1 10 -5 10 -6 0 -8 6 -5 13 4 6 0 3 -9 -7 -8 -10 -13 -22 -11 -27
3 -4 1 -10 -4 -13 -5 -3 -40 25 -78 63 -38 37 -79 71 -91 75 -27 9 -29 26 -2
26 10 0 38 -18 61 -40 l42 -40 27 31 c23 28 27 30 39 16 11 -14 9 -20 -8 -38
-12 -13 -21 -27 -21 -31 0 -5 11 3 23 18 l24 27 26 -44 c15 -24 35 -61 44 -81
19 -40 39 -52 28 -18 -11 33 12 22 24 -12 6 -17 13 -29 16 -26 9 9 -24 75 -40
81 -8 4 -15 14 -15 24 0 14 2 15 9 4 7 -11 11 -9 21 9 14 27 12 29 -31 34 -19
2 -37 4 -41 5 -5 0 -7 4 -6 9 1 4 -13 22 -31 41 -18 19 -44 57 -58 84 l-25 49
-29 -28 c-18 -17 -29 -22 -29 -14 0 8 -15 -1 -35 -20 -21 -21 -35 -28 -35 -19
1 15 43 50 66 53 8 1 26 14 40 29 14 15 28 27 32 27 4 0 18 -25 31 -55 13 -30
28 -55 32 -55 5 0 3 13 -6 30 -20 38 -20 37 18 44 35 7 97 37 97 47 0 3 -21
-4 -47 -17 -25 -13 -58 -24 -72 -23 -21 0 -18 3 15 13 56 18 103 47 98 61 -3
6 2 18 11 25 13 11 15 7 16 -31 0 -41 15 -97 19 -74 1 6 1 44 0 85 -2 84 5 96
70 124 45 19 56 20 40 1z m190 -5 c0 -14 -7 -20 -21 -20 -11 0 -17 -4 -14 -10
3 -5 -1 -10 -9 -10 -22 0 -20 37 2 49 27 16 42 13 42 -9z m-310 -18 c0 -5 -11
-18 -25 -30 -14 -12 -25 -31 -25 -42 0 -11 -15 -30 -37 -45 -21 -14 -33 -25
-28 -25 6 0 3 -5 -5 -10 -8 -5 -19 -10 -25 -10 -5 0 -3 5 5 10 11 7 7 10 -17
10 -50 0 -47 17 4 23 50 5 83 33 83 67 0 10 12 28 26 39 28 22 44 27 44 13z
m560 -34 c0 -12 -28 -10 -35 2 -4 6 -4 19 0 28 6 16 8 15 21 -2 8 -11 14 -23
14 -28z m-1117 -7 c-11 -30 -16 -34 -25 -17 -5 9 -13 14 -19 11 -5 -4 -9 -2
-9 3 0 13 6 17 33 18 20 1 24 -2 20 -15z m867 9 c0 -5 -4 -10 -9 -10 -5 0 -17
-7 -25 -16 -11 -10 -16 -11 -16 -3 0 12 29 38 43 39 4 0 7 -4 7 -10z m-503
-25 c0 -8 -4 -12 -8 -9 -4 2 -9 -1 -11 -8 -2 -6 -10 -8 -16 -4 -17 10 -15 29
3 23 8 -4 17 -2 20 3 9 14 12 12 12 -5z m-47 -35 c0 -5 -7 -10 -16 -10 -8 0
-12 5 -9 10 3 6 10 10 16 10 5 0 9 -4 9 -10z m-10 -24 c0 -3 -4 -8 -10 -11 -5
-3 -10 -1 -10 4 0 6 5 11 10 11 6 0 10 -2 10 -4z m-45 -16 c3 -5 -3 -10 -15
-10 -20 0 -21 -4 -16 -42 4 -31 3 -37 -3 -23 -11 24 -14 69 -4 78 10 10 31 8
38 -3z m54 -21 c-29 -18 -44 -9 -19 11 15 11 26 15 29 8 2 -6 -3 -14 -10 -19z
m-11 -24 c2 -2 1 -9 -3 -15 -5 -8 -10 -8 -20 0 -8 7 -19 9 -25 5 -5 -3 -10 1
-10 10 0 14 6 16 27 10 16 -4 30 -8 31 -10z m51 -43 c7 -13 2 -25 -20 -50 -31
-35 -44 -39 -52 -19 -5 14 9 43 33 70 19 21 27 21 39 -1z m-155 -27 c-6 -16
-24 -21 -24 -7 0 11 11 22 21 22 5 0 6 -7 3 -15z m-34 -31 c0 -15 -24 -73 -97
-234 -29 -64 -49 -127 -58 -187 -4 -24 -11 -43 -17 -43 -5 0 -7 8 -5 18 3 9 8
38 12 64 3 26 10 50 16 53 5 4 7 11 3 16 -3 5 -1 16 5 23 7 8 11 18 10 22 -1
5 0 14 1 19 1 6 3 15 4 20 10 55 20 85 27 85 5 0 6 7 3 15 -4 10 0 15 12 16
11 0 14 3 7 6 -18 7 -16 23 3 23 8 0 12 5 9 10 -3 6 -1 10 4 10 6 0 11 7 11
15 0 8 6 15 13 16 9 0 9 2 -1 6 -10 4 -9 9 4 24 21 23 34 24 34 3z m215 6 c6
-10 -22 -60 -35 -60 -17 0 -20 34 -4 51 19 21 30 24 39 9z m-182 -65 c-1 -15
-9 -35 -16 -44 -8 -9 -18 -27 -22 -41 -6 -23 -25 -68 -46 -112 -14 -27 -11
-34 5 -12 8 10 18 16 22 12 4 -4 1 -16 -7 -25 -11 -15 -10 -15 9 1 16 14 26
16 33 9 6 -6 8 -16 5 -22 -10 -15 -29 -14 -20 2 4 6 -1 4 -12 -5 -15 -13 -23
-14 -38 -6 -16 9 -18 8 -13 -7 4 -9 -2 -37 -13 -62 -11 -25 -20 -54 -20 -64 0
-10 -11 -35 -25 -55 l-25 -37 0 34 c0 19 9 54 21 78 13 29 16 48 10 54 -7 7
-5 15 7 23 10 8 12 13 5 14 -21 0 -15 18 8 25 14 5 18 10 11 17 -10 10 22 85
43 100 6 5 4 8 -5 8 -11 1 -10 4 5 16 11 8 19 17 18 19 -8 14 -2 35 8 30 6 -4
9 0 7 11 -2 14 2 18 16 16 17 -3 18 -2 7 12 -10 12 -11 16 -1 16 7 0 10 7 6
16 -4 10 -1 14 6 11 7 -2 12 -17 11 -32z m781 -52 c9 -57 7 -151 -3 -133 -12
22 -23 170 -13 170 5 0 12 -17 16 -37z m41 27 c3 -5 -1 -10 -9 -10 -9 0 -16 5
-16 10 0 6 4 10 9 10 6 0 13 -4 16 -10z m-985 -91 c-11 -41 -27 -96 -35 -124
-8 -27 -17 -75 -20 -105 -3 -30 -8 -66 -11 -79 -4 -17 -1 -22 9 -18 10 4 14
-4 15 -29 1 -29 -3 -36 -24 -44 -43 -17 -74 -13 -74 10 0 11 6 20 13 20 9 0 9
2 -1 9 -11 6 -10 10 4 15 16 6 16 8 4 16 -13 8 -12 10 2 10 22 0 33 -19 19
-33 -6 -6 -11 -18 -11 -26 1 -14 3 -13 14 1 7 10 17 14 21 10 4 -4 5 4 2 18
-4 14 -7 30 -7 37 0 6 -9 9 -20 6 -11 -3 -20 0 -20 6 0 6 4 11 9 11 12 0 19
112 8 127 -6 8 -3 18 7 28 9 9 16 31 16 49 0 19 7 53 15 76 8 23 13 46 10 50
-3 4 2 13 10 20 12 10 13 6 9 -27 -3 -21 -12 -58 -19 -83 -30 -99 -46 -238
-25 -225 6 3 10 32 10 63 0 57 17 139 41 197 7 17 13 32 14 35 1 3 7 18 14 34
21 53 22 19 1 -55z m464 56 c-4 -8 -8 -15 -10 -15 -2 0 -4 7 -4 15 0 8 4 15
10 15 5 0 7 -7 4 -15z m533 9 c-3 -3 -12 -4 -19 -1 -8 3 -5 6 6 6 11 1 17 -2
13 -5z m-1093 -168 c-3 -15 -8 -25 -11 -23 -2 3 -1 17 3 31 3 15 8 25 11 23 2
-3 1 -17 -3 -31z m153 -138 c-3 -7 -5 -2 -5 12 0 14 2 19 5 13 2 -7 2 -19 0
-25z m30 -35 c-2 -16 -4 -5 -4 22 0 28 2 40 4 28 2 -13 2 -35 0 -50z m456 52
c-3 -9 -8 -14 -10 -11 -3 3 -2 9 2 15 9 16 15 13 8 -4z m-477 -55 c0 -11 -4
-20 -8 -20 -4 0 -8 9 -8 20 0 11 4 20 8 20 4 0 8 -9 8 -20z m1347 -45 c27 5
37 1 61 -24 20 -21 25 -31 15 -31 -8 0 -23 9 -33 21 -12 14 -24 19 -39 15 -12
-3 -30 -6 -39 -6 -11 0 -18 -8 -18 -21 0 -11 -4 -17 -10 -14 -5 3 -10 29 -10
57 l0 51 21 -27 c17 -22 26 -26 52 -21z m-1283 4 c0 -5 -4 -9 -10 -9 -5 0 -10
7 -10 16 0 8 5 12 10 9 6 -3 10 -10 10 -16z m-60 1 c0 -5 -4 -10 -10 -10 -5 0
-10 5 -10 10 0 6 5 10 10 10 6 0 10 -4 10 -10z m-39 -37 c-3 -20 -12 -38 -19
-41 -15 -5 -29 27 -15 37 5 3 12 14 16 24 12 31 24 18 18 -20z m39 7 c0 -5 -4
-10 -10 -10 -5 0 -10 5 -10 10 0 6 5 10 10 10 6 0 10 -4 10 -10z m74 -12 c8
-12 13 -25 10 -30 -3 -4 0 -8 6 -8 7 0 10 -7 7 -14 -4 -10 -1 -13 9 -9 16 6
19 -8 4 -23 -7 -7 -4 -10 10 -10 13 1 28 -10 38 -26 16 -26 15 -28 -3 -43 -20
-16 -20 -16 1 -6 15 7 24 7 32 -1 16 -16 15 -28 -5 -45 -14 -12 -12 -11 8 0
l27 16 27 -84 c15 -46 25 -91 22 -99 -11 -29 -36 -17 -58 27 -12 23 -47 85
-80 137 -33 55 -62 116 -68 145 -6 28 -13 60 -16 73 -7 28 9 29 29 0z m-67
-46 c2 -18 0 -32 -5 -32 -12 0 -22 24 -22 52 0 32 23 15 27 -20z m-77 -14 c0
-4 8 -8 18 -8 10 0 18 -8 19 -18 3 -33 -42 -15 -59 24 -8 18 -13 36 -9 39 6 6
31 -23 31 -37z m128 -61 c7 -15 27 -52 47 -82 65 -102 115 -211 102 -224 -8
-8 -7 -11 6 -11 9 0 17 -4 17 -10 0 -5 -11 -10 -25 -10 -21 0 -25 5 -25 31 0
30 -28 88 -57 117 -7 7 -13 23 -13 34 0 11 -9 35 -20 53 -29 47 -60 143 -59
179 1 28 2 27 9 -9 4 -22 12 -52 18 -68z m1314 51 l1 -33 4 33 c2 17 9 32 14
32 6 0 9 -12 7 -26 -4 -32 -34 -56 -46 -37 -6 10 -12 8 -24 -5 -41 -42 -48
-45 -48 -14 0 48 42 86 62 57 5 -6 8 -3 8 8 0 31 20 18 22 -15z m-1465 -32
c-2 -6 -25 -18 -53 -28 -29 -9 -59 -29 -75 -48 l-26 -31 -12 47 c-12 45 -11
49 13 73 36 35 114 45 139 18 10 -11 16 -25 14 -31z m113 4 c0 -5 -7 -10 -16
-10 -8 0 -12 5 -9 10 3 6 10 10 16 10 5 0 9 -4 9 -10z m1400 -11 c0 -11 -4
-18 -10 -14 -5 3 -7 12 -3 20 7 21 13 19 13 -6z m-643 -29 c2 -11 -1 -20 -5
-20 -4 0 -9 12 -10 27 -2 30 10 24 15 -7z m-833 12 c-12 -8 -26 -42 -18 -42 3
0 18 7 33 15 l28 14 32 -61 c17 -33 31 -73 31 -87 l-1 -26 -14 25 c-13 23 -14
24 -15 4 0 -12 21 -41 50 -70 28 -27 48 -54 46 -60 -3 -6 -1 -15 4 -20 5 -5 4
-31 -1 -58 -5 -28 -7 -59 -3 -70 4 -16 3 -17 -4 -7 -8 11 -11 10 -15 -5 -6
-18 -3 18 7 101 3 22 3 32 0 23 -5 -15 -9 -15 -49 -1 -25 8 -50 13 -57 10 -7
-2 12 -12 43 -22 l56 -18 -15 -38 c-12 -32 -18 -37 -33 -29 -10 6 -38 10 -62
10 -47 0 -61 10 -109 80 l-17 25 9 -34 c15 -54 65 -90 125 -91 28 0 55 -4 60
-8 12 -8 37 -63 32 -69 -11 -10 -37 12 -37 31 0 17 -2 18 -10 6 -8 -12 -10
-12 -10 5 0 17 -2 17 -10 5 -9 -13 -10 -13 -10 0 0 12 -2 13 -9 1 -23 -35
-132 47 -189 142 -44 73 -55 159 -23 179 28 17 27 31 -1 22 -19 -6 -20 -5 -8
8 8 8 24 19 35 26 l20 11 -20 1 c-17 1 -17 3 5 11 20 8 22 12 10 19 -13 8 -13
10 0 10 9 0 33 9 55 20 37 19 83 29 59 12z m76 -2 c0 -5 -4 -10 -10 -10 -5 0
-10 5 -10 10 0 6 5 10 10 10 6 0 10 -4 10 -10z m245 0 c3 -5 -1 -10 -9 -10 -9
0 -16 5 -16 10 0 6 4 10 9 10 6 0 13 -4 16 -10z m1114 -4 c10 -12 8 -13 -8 -9
-12 3 -21 9 -21 14 0 14 16 11 29 -5z m-54 -16 c3 -5 -1 -10 -9 -10 -9 0 -16
5 -16 10 0 6 4 10 9 10 6 0 13 -4 16 -10z m123 -22 c4 -22 -14 -23 -34 -4 -20
21 -17 28 8 24 13 -2 24 -11 26 -20z m-1400 -10 c15 -15 16 -28 2 -28 -5 0
-10 6 -10 14 0 8 -6 17 -12 19 -7 3 -8 6 -2 6 5 1 15 -4 22 -11z m688 -74 c-3
-8 -10 -14 -16 -14 -10 0 -8 18 7 78 7 25 7 25 11 -12 2 -21 1 -44 -2 -52z
m604 76 c0 -5 -4 -10 -10 -10 -5 0 -10 5 -10 10 0 6 5 10 10 10 6 0 10 -4 10
-10z m-550 -14 c0 -11 -19 -15 -25 -6 -3 5 1 10 9 10 9 0 16 -2 16 -4z m560
-21 c-7 -8 -17 -12 -22 -9 -5 3 -1 12 9 19 22 17 30 11 13 -10z m-1270 -33 c0
-15 -2 -15 -10 -2 -13 20 -13 33 0 25 6 -3 10 -14 10 -23z m710 8 c0 -11 -7
-20 -15 -20 -8 0 -15 9 -15 20 0 11 7 20 15 20 8 0 15 -9 15 -20z m634 11 c4
-5 -3 -7 -14 -4 -23 6 -26 13 -6 13 8 0 17 -4 20 -9z m-64 -32 c0 -12 -19 -21
-30 -14 -6 4 -8 10 -6 14 7 10 36 10 36 0z m49 -3 c10 -12 8 -13 -8 -9 -12 3
-18 9 -15 14 7 12 10 11 23 -5z m-1316 -38 c6 -18 10 -36 9 -40 -1 -5 4 -8 11
-8 7 0 18 -9 25 -20 10 -17 10 -20 -4 -20 -8 0 -12 5 -9 10 3 6 0 10 -8 10
-11 0 -38 38 -41 60 -1 3 -4 10 -8 16 -7 10 -1 24 9 24 2 0 9 -15 16 -32z
m693 12 c0 -11 -7 -20 -16 -21 -10 0 -9 -3 5 -9 l20 -9 -20 -1 c-19 -1 -19 -1
-2 -14 20 -15 22 -32 5 -39 -8 -3 -6 -6 5 -6 25 -1 22 -40 -5 -51 l-23 -9 23
0 c18 -1 22 -7 22 -31 0 -23 -4 -30 -20 -30 -11 0 -20 -4 -20 -10 0 -5 3 -9 8
-9 22 4 32 -3 32 -23 0 -18 2 -20 10 -8 15 24 17 9 10 -80 l-7 -85 -2 65 c-1
42 -4 60 -10 51 -5 -8 -16 -11 -25 -8 -9 4 -16 2 -16 -3 0 -6 9 -10 20 -10 17
0 20 -7 20 -40 0 -37 -2 -40 -27 -41 -24 -2 -25 -2 -5 -6 28 -5 32 -52 5 -54
-17 -1 -17 -2 0 -6 27 -7 19 -44 -13 -56 -10 -4 -8 -6 8 -6 32 -1 27 -21 -5
-22 l-28 -2 28 -4 c15 -2 27 -9 27 -14 0 -5 -12 -10 -27 -10 l-28 -2 28 -4
c15 -3 27 -11 27 -19 0 -11 -7 -14 -22 -10 -13 3 -17 3 -10 0 18 -8 15 -24 -5
-25 -10 -1 -4 -5 12 -9 23 -6 25 -8 8 -9 -31 -2 -39 -21 -12 -29 l24 -6 -25
-7 -25 -7 28 -1 c38 -1 34 -21 -5 -23 l-33 -1 33 -4 c39 -5 43 -23 5 -24 l-28
-1 28 -11 c33 -13 35 -27 5 -28 l-23 -2 23 -4 c23 -4 28 -14 15 -27 -5 -4 -8
-11 -8 -14 -1 -4 -7 -18 -14 -30 -12 -22 -11 -23 8 -17 17 5 21 2 21 -14 0
-12 -6 -21 -14 -21 -7 0 -28 -3 -46 -7 -28 -5 -32 -4 -27 10 7 20 -4 22 -21 5
-9 -10 -16 -8 -29 5 -16 16 -16 17 6 17 17 0 22 5 20 23 -2 12 4 36 13 52 9
18 20 82 27 158 14 167 15 162 -4 147 -21 -18 -30 -6 -10 14 9 9 12 16 5 16
-6 0 -8 5 -3 13 4 6 6 20 5 30 -2 10 2 25 8 33 10 11 10 14 0 14 -8 0 -9 4 -3
13 5 6 11 55 12 107 3 163 13 293 25 307 17 19 32 16 32 -7z m-134 -22 c-7 -7
-12 -8 -12 -2 0 14 12 26 19 19 2 -3 -1 -11 -7 -17z m678 18 c0 -3 -4 -8 -10
-11 -5 -3 -10 -1 -10 4 0 6 5 11 10 11 6 0 10 -2 10 -4z m40 -6 c0 -5 -4 -10
-10 -10 -5 0 -10 5 -10 10 0 6 5 10 10 10 6 0 10 -4 10 -10z m-675 -30 c3 -5
1 -10 -4 -10 -6 0 -11 5 -11 10 0 6 2 10 4 10 3 0 8 -4 11 -10z m655 0 c0 -5
-2 -10 -4 -10 -3 0 -8 5 -11 10 -3 6 -1 10 4 10 6 0 11 -4 11 -10z m-63 -37
c-3 -10 -5 -4 -5 12 0 17 2 24 5 18 2 -7 2 -21 0 -30z m-590 11 c-3 -3 -12 -4
-19 -1 -8 3 -5 6 6 6 11 1 17 -2 13 -5z m673 -14 c0 -5 -4 -10 -10 -10 -5 0
-10 5 -10 10 0 6 5 10 10 10 6 0 10 -4 10 -10z m-672 -32 c-2 -25 -9 -34 -28
-39 l-25 -7 28 -1 c32 -1 37 -21 5 -22 -22 0 -22 -1 2 -12 l25 -11 -27 -4
c-30 -4 -40 -21 -12 -18 9 0 19 -5 21 -12 4 -9 -3 -11 -24 -7 l-28 6 25 -13
c14 -7 25 -22 25 -33 0 -16 -6 -20 -30 -18 l-30 2 28 -10 c21 -8 27 -17 25
-33 -2 -16 -9 -21 -31 -19 -15 1 -27 -2 -27 -8 0 -5 11 -9 25 -9 14 0 25 -4
25 -10 0 -5 -15 -7 -32 -5 l-33 5 28 -12 c26 -11 28 -16 22 -47 -11 -56 -36
-110 -53 -114 -12 -3 -10 -5 6 -6 27 -1 30 -21 2 -21 -11 0 -20 -6 -20 -14 0
-19 -69 -76 -92 -76 -28 0 -23 40 5 41 21 0 21 1 2 9 -21 8 -21 8 25 23 11 4
11 6 -3 6 -28 1 -9 21 21 22 15 0 21 3 15 6 -20 7 -15 20 10 27 17 5 19 8 8
15 -11 7 -10 11 5 20 18 10 18 10 0 11 -20 0 -20 0 0 15 18 14 18 15 -6 6 -15
-5 -26 -17 -29 -32 -1 -13 -18 -40 -36 -60 -18 -20 -36 -47 -40 -59 -5 -17
-13 -21 -31 -17 -30 5 -52 -11 -56 -43 -3 -23 -7 -25 -46 -23 -24 1 -50 7 -58
14 -10 8 -22 8 -44 1 -16 -6 -30 -7 -30 -3 0 13 27 21 71 21 22 0 39 5 39 11
0 7 10 9 26 5 21 -6 25 -4 21 8 -5 11 0 16 13 16 12 0 20 7 20 16 0 10 6 14
15 11 8 -4 17 -2 20 3 4 6 1 10 -5 10 -21 0 1 20 23 21 12 0 16 3 10 6 -18 7
-16 21 5 26 13 4 14 5 1 6 -8 0 -38 -21 -65 -48 -39 -38 -58 -49 -94 -55 -61
-9 -108 -39 -126 -81 -8 -19 -14 -39 -14 -44 0 -18 31 -20 73 -6 56 20 67 19
67 -5 0 -17 -7 -20 -39 -20 -43 0 -111 -45 -103 -69 3 -10 0 -11 -16 -2 -29
16 -67 14 -82 -4 -14 -16 -50 -21 -50 -6 0 5 10 11 22 13 19 3 20 4 5 16 -13
11 -17 10 -27 -8 -16 -29 -5 -54 20 -47 11 3 20 1 20 -3 0 -15 -18 -21 -45
-14 -27 7 -29 32 -3 73 11 18 11 23 -2 31 -23 15 -51 12 -72 -7 -21 -19 -50
-9 -56 20 -5 26 17 92 44 132 14 21 23 43 20 50 -3 8 4 13 17 13 12 0 31 3 42
6 17 6 23 1 33 -28 8 -20 20 -36 28 -36 8 0 14 -4 14 -10 0 -5 5 -10 11 -10 5
0 7 5 4 11 -7 10 30 49 47 49 4 0 8 7 8 15 0 8 5 15 10 15 6 0 10 -7 10 -15 0
-8 5 -15 10 -15 12 0 13 10 1 29 -9 14 -51 7 -51 -10 0 -5 -4 -9 -10 -9 -17 0
-11 56 9 79 20 23 51 25 58 5 2 -7 -9 -15 -24 -19 -15 -4 -22 -10 -15 -12 7
-3 28 4 47 16 23 13 45 19 63 15 15 -3 54 0 87 6 33 6 68 12 77 13 9 1 15 3
12 6 -2 3 11 21 30 40 24 24 36 47 38 69 2 24 15 47 46 80 56 59 82 111 82
163 0 47 21 79 52 79 16 0 19 -6 16 -32z m-538 -8 c0 -5 -4 -10 -10 -10 -5 0
-10 5 -10 10 0 6 5 10 10 10 6 0 10 -4 10 -10z m120 -12 c0 -13 3 -33 6 -45 4
-16 2 -23 -8 -23 -9 0 -13 10 -12 28 0 15 -3 30 -9 33 -11 8 -1 29 14 29 5 0
9 -10 9 -22z m-110 -18 c0 -5 -7 -10 -15 -10 -8 0 -15 5 -15 10 0 6 7 10 15
10 8 0 15 -4 15 -10z m-5 -30 c3 -5 -1 -10 -10 -10 -9 0 -13 5 -10 10 3 6 8
10 10 10 2 0 7 -4 10 -10z m80 -20 c6 -19 1 -75 -11 -115 -6 -18 -4 -18 20 4
20 19 26 21 26 9 0 -22 -39 -45 -79 -46 -18 0 -36 -4 -40 -8 -3 -4 7 -4 22 -2
36 7 33 -16 -5 -45 -71 -53 -78 28 -14 176 18 39 25 47 48 47 18 0 29 -7 33
-20z m365 3 c0 -11 -38 -73 -45 -73 -9 0 0 45 10 53 6 4 -7 5 -27 1 -24 -4
-38 -2 -38 4 0 6 17 13 38 15 20 2 43 4 50 5 6 1 12 -1 12 -5z m-460 -13 c0
-5 -4 -10 -10 -10 -5 0 -10 5 -10 10 0 6 5 10 10 10 6 0 10 -4 10 -10z m135
-10 c3 -5 -1 -10 -10 -10 -9 0 -13 5 -10 10 3 6 8 10 10 10 2 0 7 -4 10 -10z
m625 0 c13 -8 13 -10 -2 -10 -9 0 -20 5 -23 10 -8 13 5 13 25 0z m14 -34 c8 3
39 -10 71 -31 38 -26 71 -39 108 -44 48 -5 52 -8 58 -36 l7 -30 2 30 c1 17 4
24 7 17 4 -10 9 -7 17 10 6 12 20 24 30 26 15 3 16 1 6 -19 -7 -12 -16 -79
-20 -149 -11 -176 -33 -211 -27 -42 6 135 -8 167 -18 45 -12 -151 -18 -178
-40 -178 -18 0 -20 6 -18 55 2 30 9 80 17 110 14 53 14 71 -1 56 -12 -12 -42
-180 -36 -206 3 -14 12 -30 19 -36 10 -8 12 -19 6 -33 -4 -12 -5 -48 -2 -81 7
-75 -2 -88 -73 -96 -50 -6 -59 -11 -77 -39 -30 -49 -26 -65 15 -65 46 0 84 20
123 64 19 22 40 36 55 36 13 0 27 3 31 7 4 4 15 8 24 8 9 0 21 10 28 22 6 13
14 20 17 16 10 -9 47 27 47 46 0 14 2 14 10 1 5 -8 7 -23 4 -33 -6 -18 -5 -18
21 -1 19 13 29 14 38 5 8 -8 8 -14 -1 -23 -18 -18 -14 -28 11 -26 12 0 39 -2
60 -7 30 -6 37 -4 37 8 0 12 -54 47 -74 47 -3 0 -15 9 -25 19 -19 19 -19 19 5
25 13 4 28 16 35 27 11 21 11 20 30 -11 15 -25 25 -31 47 -28 19 2 28 9 30 26
2 12 8 22 13 22 9 0 12 -107 10 -320 0 -58 -1 -162 -1 -232 l0 -128 -1045 4
c-575 2 -1048 6 -1051 9 -3 3 -8 118 -10 256 -3 179 -1 251 7 251 7 0 10 -14
7 -35 -2 -19 0 -35 4 -35 4 0 8 -6 8 -14 0 -8 12 -28 26 -43 14 -15 23 -23 20
-17 -3 7 1 17 9 24 10 9 15 9 15 1 0 -6 7 -11 15 -11 10 0 12 6 8 17 -6 17 -6
17 11 0 10 -10 16 -20 13 -23 -3 -3 4 -16 15 -29 21 -24 48 -24 48 1 0 8 4 14
10 14 5 0 7 -7 4 -15 -8 -20 6 -19 22 3 13 16 13 16 14 0 0 -17 45 -36 57 -24
9 9 14 146 4 146 -4 0 -13 -11 -19 -25 -13 -27 -23 -30 -52 -15 -11 6 -17 17
-14 25 4 8 1 15 -5 15 -6 0 -11 -6 -11 -14 0 -24 -26 -38 -40 -21 -12 14 -7
19 13 16 5 -1 6 3 2 9 -3 5 -1 10 4 10 6 0 11 10 11 22 0 20 1 20 18 5 23 -21
33 -12 22 18 -8 20 -6 24 13 28 19 3 18 5 -11 17 -25 9 -30 15 -21 21 8 5 23
2 35 -6 19 -12 23 -12 28 0 3 8 -3 15 -15 17 -25 4 -26 22 0 26 13 2 22 -4 26
-18 4 -12 9 -20 11 -17 9 9 -10 39 -30 47 -20 8 -19 9 5 9 18 1 32 -7 44 -25
15 -23 22 -26 56 -21 31 4 39 2 44 -13 8 -25 35 -33 54 -17 36 31 41 29 40
-10 -2 -48 16 -93 36 -93 24 0 95 24 95 32 0 4 7 5 15 2 9 -4 15 0 15 10 0 9
-5 16 -12 16 -6 0 -8 3 -5 6 7 8 67 -15 67 -26 0 -15 -14 -19 -27 -9 -10 9
-13 8 -13 -4 0 -24 33 -31 48 -10 12 17 13 16 18 -5 5 -16 14 -22 36 -22 25 0
28 -3 23 -20 -3 -11 1 -35 10 -54 12 -25 15 -47 10 -79 -5 -34 -3 -45 8 -50
22 -8 177 -20 177 -14 0 4 -11 16 -24 29 -20 19 -26 37 -31 94 l-7 71 54 5
c29 2 69 12 87 21 43 22 87 22 95 1 3 -9 4 -19 1 -24 -9 -15 37 -19 52 -4 8 8
27 14 42 14 25 0 29 -4 34 -37 2 -21 6 -45 8 -53 5 -20 -30 -18 -94 5 -35 13
-47 22 -42 33 5 13 3 13 -11 2 -12 -11 -17 -11 -23 -2 -5 8 -19 10 -39 6 -35
-7 -34 -24 2 -24 12 0 27 -5 33 -11 9 -9 86 -32 155 -46 37 -7 50 20 37 77 -7
29 -6 47 1 54 5 5 10 32 10 58 0 41 3 48 20 48 10 0 24 -8 29 -18 10 -15 11
-15 17 6 10 36 76 44 101 12 10 -13 12 -11 13 13 0 23 -4 27 -27 27 -65 1 -92
64 -94 214 0 58 -2 66 -10 46 -7 -15 -8 -58 -4 -107 5 -57 3 -83 -4 -83 -22 0
-24 56 -7 186 13 98 16 161 10 240 l-7 107 31 -21 c16 -12 37 -19 46 -16z
m-207 2 c-3 -8 -6 -5 -6 6 -1 11 2 17 5 13 3 -3 4 -12 1 -19z m-167 2 c0 -5
-4 -10 -9 -10 -6 0 -13 5 -16 10 -3 6 1 10 9 10 9 0 16 -4 16 -10z m165 -68
c-20 -146 -39 -261 -48 -282 -6 -14 -9 -29 -8 -34 1 -4 -3 -23 -9 -42 -6 -18
-12 -47 -12 -64 -1 -17 -6 -34 -12 -38 -6 -4 -11 -13 -12 -19 -1 -7 -2 -22 -2
-33 -1 -13 -9 -20 -22 -20 -17 0 -19 -3 -10 -19 14 -27 13 -30 -10 -24 -23 6
-20 27 17 111 20 47 34 154 15 126 -4 -7 -16 -14 -27 -17 -18 -4 -18 -5 3 -6
24 -1 25 -2 16 -25 -3 -9 -16 -16 -28 -17 -20 0 -19 -1 4 -11 l25 -11 -23 -5
c-22 -3 -23 -4 -5 -17 17 -14 16 -14 -7 -15 -14 -1 -19 -4 -12 -7 17 -7 15
-23 -4 -23 -13 0 -14 -3 -5 -14 15 -17 0 -29 -25 -19 -12 4 -15 3 -10 -5 4 -7
14 -12 22 -12 26 0 15 -17 -18 -28 -27 -9 -28 -10 -8 -9 35 3 39 -15 7 -33
-22 -13 -30 -13 -48 -2 -18 11 -20 11 -17 0 8 -24 62 -21 91 6 15 14 27 20 27
13 -1 -31 -100 -68 -126 -46 -7 6 -11 16 -8 22 2 7 -6 18 -17 26 -19 11 -23
11 -31 -3 -5 -9 -14 -14 -19 -10 -6 3 1 16 16 29 45 43 24 92 -36 83 -25 -4
-29 -3 -17 6 10 8 14 22 10 44 -4 30 -2 32 25 32 35 0 53 16 53 47 0 18 6 23
25 23 25 0 36 -19 13 -21 -7 0 2 -5 20 -10 39 -11 42 -10 121 61 45 40 61 61
60 80 0 14 9 59 20 100 12 41 24 99 28 127 3 29 10 50 14 47 5 -3 7 -22 4 -42z
m589 39 c11 -17 14 -88 7 -151 -8 -61 -8 -62 -10 -17 -1 30 -5 47 -13 47 -16
0 -21 -149 -14 -375 1 -29 -3 -40 -14 -40 -12 0 -15 13 -15 57 1 78 -13 59
-21 -30 -4 -39 -11 -72 -15 -72 -18 0 -21 53 -6 103 15 54 32 133 48 226 6 35
6 72 0 105 -13 63 -11 146 2 146 6 0 7 -18 4 -43 -3 -23 -2 -49 3 -57 10 -16
15 25 11 83 -2 26 20 39 33 18z m216 -21 c0 -5 -7 -10 -16 -10 -8 0 -12 5 -9
10 3 6 10 10 16 10 5 0 9 -4 9 -10z m-1474 -55 c4 -8 13 -15 22 -15 13 0 12
-3 -4 -15 -22 -16 -12 -20 16 -5 13 7 19 6 24 -6 7 -18 0 -34 -15 -34 -6 0 -7
5 -3 12 4 7 3 8 -4 4 -7 -4 -12 -14 -12 -22 0 -25 -20 -15 -21 11 -1 14 -2 31
-3 38 -1 6 -7 16 -13 20 -7 4 -13 12 -13 17 0 16 20 11 26 -5z m-366 -55 c13
-31 24 -37 35 -20 11 17 22 11 27 -15 4 -20 3 -23 -8 -14 -10 8 -14 8 -14 1 0
-6 -7 -9 -16 -5 -8 3 -29 -4 -45 -16 -17 -12 -37 -21 -46 -19 -19 4 -30 28
-12 28 16 0 38 31 32 47 -3 7 -13 13 -23 13 -23 0 -35 16 -18 23 7 3 27 6 44
6 26 1 34 -4 44 -29z m150 -9 c-20 -39 -47 -40 -35 -2 3 12 15 21 26 21 16 0
18 -3 9 -19z m1409 -64 c-2 -94 -17 -110 -18 -19 -1 53 3 81 9 77 6 -3 10 -30
9 -58z m-1119 43 c0 -5 -10 -10 -22 -10 -19 0 -20 2 -8 10 19 13 30 13 30 0z
m-192 -18 c2 -7 -3 -12 -12 -12 -9 0 -16 7 -16 16 0 17 22 14 28 -4z m1489
-35 c-17 -26 -40 -29 -45 -4 -2 11 5 20 20 26 32 12 42 3 25 -22z m-1587 11
c0 -19 -18 -43 -25 -36 -4 3 -2 16 5 27 12 24 20 27 20 9z m-150 -8 c0 -5 -5
-10 -11 -10 -5 0 -7 5 -4 10 3 6 8 10 11 10 2 0 4 -4 4 -10z m70 1 c0 -11 -26
-22 -34 -14 -12 12 -5 23 14 23 11 0 20 -4 20 -9z m127 -21 c-3 -11 -1 -23 4
-26 16 -10 9 -29 -15 -40 -22 -10 -25 -9 -29 13 -3 16 2 27 14 34 11 5 19 16
19 24 0 8 3 15 6 15 4 0 4 -9 1 -20z m73 10 c0 -9 -40 -30 -55 -30 -12 0 9 30
23 33 29 8 32 7 32 -3z m40 6 c0 -3 -4 -8 -10 -11 -5 -3 -10 -1 -10 4 0 6 5
11 10 11 6 0 10 -2 10 -4z m35 -6 c3 -5 1 -10 -4 -10 -6 0 -11 5 -11 10 0 6 2
10 4 10 3 0 8 -4 11 -10z m-465 -26 c0 -16 -16 -19 -25 -4 -8 13 4 32 16 25 5
-4 9 -13 9 -21z m35 16 c3 -5 2 -10 -4 -10 -5 0 -13 5 -16 10 -3 6 -2 10 4 10
5 0 13 -4 16 -10z m255 0 c0 -5 -2 -10 -4 -10 -3 0 -8 5 -11 10 -3 6 -1 10 4
10 6 0 11 -4 11 -10z m1636 -27 c-11 -11 -19 6 -11 24 8 17 8 17 12 0 3 -10 2
-21 -1 -24z m41 15 c-3 -8 -6 -5 -6 6 -1 11 2 17 5 13 3 -3 4 -12 1 -19z
m-1767 2 c0 -5 -4 -10 -10 -10 -5 0 -10 5 -10 10 0 6 5 10 10 10 6 0 10 -4 10
-10z m-97 -20 c45 0 59 -12 55 -46 -2 -23 -7 -28 -25 -26 -12 2 -24 -2 -28 -8
-12 -19 -33 -10 -45 21 -9 21 -10 33 -2 41 6 6 9 16 8 22 -2 6 -1 8 1 4 3 -5
19 -8 36 -8z m147 10 c8 -5 11 -12 7 -16 -4 -4 -15 0 -24 9 -18 18 -8 23 17 7z
m142 -44 c-3 -5 -9 -1 -14 8 -5 9 -13 14 -19 11 -5 -4 -9 1 -9 9 0 23 34 25
41 1 3 -11 4 -24 1 -29z m32 30 c-6 -15 -24 -23 -24 -11 0 8 24 34 28 30 1 -1
0 -10 -4 -19z m36 4 c0 -5 -4 -10 -10 -10 -5 0 -10 5 -10 10 0 6 5 10 10 10 6
0 10 -4 10 -10z m-410 -10 c0 -5 -4 -10 -10 -10 -5 0 -10 5 -10 10 0 6 5 10
10 10 6 0 10 -4 10 -10z m150 2 c0 -13 -12 -22 -22 -16 -10 6 -1 24 13 24 5 0
9 -4 9 -8z m1057 -29 c-3 -10 -5 -4 -5 12 0 17 2 24 5 18 2 -7 2 -21 0 -30z
m538 27 c3 -5 -1 -10 -9 -10 -9 0 -16 5 -16 10 0 6 4 10 9 10 6 0 13 -4 16
-10z m55 0 c0 -5 -9 -10 -21 -10 -11 0 -17 5 -14 10 3 6 13 10 21 10 8 0 14
-4 14 -10z m-1823 -29 c7 -9 13 -26 13 -39 0 -20 -2 -21 -21 -10 -18 11 -23
10 -40 -11 -16 -19 -22 -21 -34 -11 -18 15 -19 51 -2 72 23 30 60 30 84 -1z
m438 9 c3 -5 -1 -10 -9 -10 -8 0 -18 5 -21 10 -3 6 1 10 9 10 8 0 18 -4 21
-10z m685 -5 c0 -8 -6 -15 -12 -16 -10 0 -10 -2 0 -6 10 -4 10 -8 1 -19 -8
-10 -8 -14 0 -14 6 0 11 -4 11 -10 0 -5 -8 -10 -17 -10 -13 0 -14 -3 -6 -8 9
-6 11 -30 6 -91 -5 -68 -10 -88 -30 -109 -16 -17 -20 -28 -12 -32 7 -5 6 -9
-4 -13 -8 -3 -17 -3 -20 0 -10 9 15 62 31 66 12 3 10 5 -5 6 -33 1 -28 21 5
22 23 2 24 2 5 6 -13 2 -23 11 -23 19 0 8 10 15 23 15 16 1 18 2 5 6 -10 2
-18 8 -18 13 0 5 8 14 18 19 9 6 11 11 5 11 -20 0 -15 20 5 21 10 0 12 3 5 6
-16 6 -16 31 -2 89 11 42 29 61 29 29z m780 0 c-7 -8 -10 -24 -7 -34 7 -29
-22 -49 -58 -40 -16 3 -24 7 -17 8 26 2 10 21 -18 21 -19 0 -30 5 -30 14 0 19
20 32 29 19 3 -6 16 -13 29 -17 17 -6 22 -3 22 12 0 25 8 32 38 32 21 0 22 -2
12 -15z m40 -12 c0 -19 -3 -24 -10 -17 -6 6 -8 18 -4 27 9 24 14 21 14 -10z
m-2050 7 c0 -5 -7 -10 -15 -10 -8 0 -15 5 -15 10 0 6 7 10 15 10 8 0 15 -4 15
-10z m334 -9 c17 -19 17 -20 -4 -31 -13 -7 -19 -17 -15 -28 3 -12 -5 -23 -26
-36 -17 -10 -33 -15 -36 -12 -4 3 -1 6 5 6 6 0 18 7 26 16 14 14 14 17 0 39
-12 18 -13 28 -4 44 13 26 32 27 54 2z m116 -1 c0 -5 -11 -10 -24 -10 -14 0
-28 5 -31 10 -4 6 7 10 24 10 17 0 31 -4 31 -10z m155 -18 c-2 -9 -4 -23 -4
-29 -1 -20 -18 -15 -24 6 -5 21 10 54 23 46 4 -3 7 -13 5 -23z m1119 -72 c-18
-87 -30 -107 -20 -35 6 47 27 118 33 112 1 -2 -4 -37 -13 -77z m-1356 48 c-2
-13 -11 -24 -20 -26 -21 -4 -24 18 -6 36 19 19 30 14 26 -10z m56 13 c3 -4 3
-11 0 -14 -8 -8 -34 3 -34 14 0 11 27 12 34 0z m-164 -7 c0 -4 -8 -13 -17 -21
-16 -12 -15 -13 10 -7 26 6 38 -8 17 -21 -28 -17 -66 25 -43 48 8 9 33 9 33 1z
m-155 -24 c18 -19 17 -20 -2 -20 -22 0 -47 23 -36 33 10 11 19 8 38 -13z m93
-2 c-4 -27 -28 -36 -28 -10 0 20 8 32 22 32 5 0 8 -10 6 -22z m-48 2 c0 -5 -4
-10 -10 -10 -5 0 -10 5 -10 10 0 6 5 10 10 10 6 0 10 -4 10 -10z m1727 -6 c8
-22 -17 -36 -34 -18 -8 8 -11 18 -8 24 10 15 35 12 42 -6z m-1487 -14 c0 -5
-6 -13 -13 -17 -7 -4 -20 -21 -30 -36 -20 -31 -42 -27 -31 5 4 14 2 18 -5 14
-6 -4 -11 -18 -11 -32 0 -17 -5 -24 -19 -24 -11 0 -23 5 -26 10 -4 6 -11 7
-17 4 -6 -4 -8 1 -6 11 1 10 9 20 17 23 8 3 11 0 7 -7 -11 -17 -2 -13 30 14
16 14 31 20 32 15 6 -17 26 -11 40 10 13 21 32 27 32 10z m1630 -1 c0 -7 8
-18 18 -25 13 -10 14 -15 5 -25 -10 -10 -16 -9 -31 7 -10 10 -16 27 -14 37 4
19 22 24 22 6z m-1984 -30 c8 -13 -13 -29 -39 -29 -23 0 -33 26 -17 45 13 15
41 7 56 -16z m104 21 c0 -5 -4 -10 -10 -10 -5 0 -10 5 -10 10 0 6 5 10 10 10
6 0 10 -4 10 -10z m1531 -83 c-20 -20 -24 2 -10 50 l14 48 3 -44 c2 -24 -1
-48 -7 -54z m-1561 73 c0 -5 -6 -10 -14 -10 -8 0 -16 -6 -19 -12 -2 -7 -8 -10
-12 -6 -9 8 16 37 33 38 6 0 12 -4 12 -10z m119 -17 c-8 -9 -16 -10 -22 -4
-13 13 0 31 19 24 11 -4 12 -8 3 -20z m1716 7 c3 -5 2 -10 -4 -10 -5 0 -13 5
-16 10 -3 6 -2 10 4 10 5 0 13 -4 16 -10z m-1810 -10 c-3 -5 -11 -10 -16 -10
-6 0 -7 5 -4 10 3 6 11 10 16 10 6 0 7 -4 4 -10z m260 -1 c12 -19 -5 -78 -26
-89 -26 -15 -59 -3 -59 20 0 13 5 17 14 14 9 -4 20 7 31 30 18 37 29 44 40 25z
m1519 -22 c8 -13 7 -20 -4 -27 -19 -12 -31 -9 -44 13 -8 13 -7 20 4 27 19 12
31 9 44 -13z m-1734 -7 c11 -11 20 -27 20 -35 0 -22 -39 -57 -57 -51 -8 3 -19
6 -24 6 -5 0 -16 11 -24 24 -13 19 -14 29 -6 45 9 17 20 22 64 30 4 0 16 -8
27 -19z m648 2 c2 -8 -8 -11 -33 -7 -29 3 -36 1 -31 -10 4 -11 -2 -15 -19 -15
-34 0 -31 13 8 32 35 18 69 18 75 0z m-759 -2 c5 0 6 -11 3 -25 -5 -30 -27
-33 -42 -5 -13 24 -4 44 17 36 8 -3 18 -6 22 -6z m1956 -19 c10 -17 -12 -21
-25 -6 -10 12 -10 15 3 15 9 0 18 -4 22 -9z m-2058 -43 c-3 -7 -5 -2 -5 12 0
14 2 19 5 13 2 -7 2 -19 0 -25z m46 -1 c-3 -5 -10 -4 -15 1 -6 6 -7 16 -3 22
6 9 9 9 16 -1 4 -7 5 -17 2 -22z m21 -32 c-17 -26 -44 -30 -52 -7 -2 7 5 12
17 12 11 0 23 5 26 10 3 6 11 10 16 10 5 0 2 -11 -7 -25z m782 10 c2 -5 -3
-19 -11 -29 -15 -20 -15 -20 -31 0 -13 16 -15 16 -10 2 3 -10 1 -18 -4 -18 -5
0 -14 8 -20 18 -9 14 -10 13 -4 -7 4 -16 3 -21 -5 -17 -17 11 -13 44 7 55 21
13 74 10 78 -4z m874 -20 c0 -26 -4 -35 -17 -35 -13 0 -14 3 -5 12 7 7 12 22
12 35 0 13 2 23 5 23 3 0 5 -16 5 -35z m-1565 -6 c-11 -16 -31 -10 -32 11 -2
17 1 18 18 10 11 -6 17 -15 14 -21z m759 25 c16 -6 22 -35 9 -47 -3 -4 -12 -2
-20 5 -10 8 -19 6 -37 -11 -41 -38 -41 2 0 43 17 18 24 19 48 10z m471 -4 c3
-5 1 -10 -4 -10 -6 0 -11 5 -11 10 0 6 2 10 4 10 3 0 8 -4 11 -10z m-1275 -10
c0 -5 -9 -14 -20 -20 -15 -8 -20 -8 -20 3 0 8 3 17 7 20 10 10 33 8 33 -3z
m-67 -43 c20 -4 20 -4 -3 -6 -29 -1 -50 15 -50 38 0 11 4 9 15 -6 8 -12 25
-24 38 -26z m171 11 c24 -33 19 -39 -14 -20 -31 18 -40 42 -16 42 8 0 22 -10
30 -22z m-34 -50 c0 -36 -35 -16 -38 22 -4 34 -4 34 17 16 12 -11 21 -28 21
-38z m640 21 c0 -7 10 -9 25 -6 20 3 25 1 23 -12 -2 -10 -18 -18 -43 -22 -50
-9 -56 -5 -42 26 12 25 37 35 37 14z m764 -36 c6 -18 1 -23 -30 -33 -54 -18
-65 0 -25 41 33 32 44 31 55 -8z m-1529 17 c-3 -5 -1 -10 6 -10 7 0 10 -2 7
-5 -7 -8 -38 5 -38 16 0 5 7 9 16 9 8 0 12 -4 9 -10z m38 -5 c-3 -9 -8 -14
-10 -11 -3 3 -2 9 2 15 9 16 15 13 8 -4z m37 5 c0 -5 -4 -10 -10 -10 -5 0 -10
5 -10 10 0 6 5 10 10 10 6 0 10 -4 10 -10z m819 -45 c-5 -18 -8 -62 -5 -97 3
-53 8 -65 32 -86 l29 -24 -35 6 c-19 4 -39 11 -44 16 -6 6 -10 43 -11 83 -1
51 -6 80 -19 99 l-17 27 28 4 c15 2 33 5 40 6 8 1 9 -8 2 -34z m-804 16 c3 -5
1 -12 -5 -16 -5 -3 -10 -1 -10 6 0 8 -4 8 -15 -1 -13 -11 -14 -10 -9 4 7 17
29 22 39 7z m-85 -37 c0 -14 -4 -23 -10 -19 -5 3 -10 15 -10 26 0 10 5 19 10
19 6 0 10 -12 10 -26z m250 7 c0 -10 -9 -21 -20 -24 -19 -5 -19 -4 -2 19 21
29 22 29 22 5z m-150 -11 c0 -5 -4 -10 -9 -10 -6 0 -13 5 -16 10 -3 6 1 10 9
10 9 0 16 -4 16 -10z m85 -10 c3 -5 -1 -10 -10 -10 -9 0 -13 5 -10 10 3 6 8
10 10 10 2 0 7 -4 10 -10z m-59 -22 c-3 -13 -6 -30 -6 -37 0 -11 -3 -12 -11
-4 -14 14 -4 63 12 63 7 0 9 -9 5 -22z m49 -8 c3 -5 -1 -10 -9 -10 -9 0 -16 5
-16 10 0 6 4 10 9 10 6 0 13 -4 16 -10z m59 -6 c10 -25 7 -34 -9 -34 -9 0 -15
9 -15 25 0 28 15 34 24 9z"/>
<path d="M1025 3460 c-13 -6 3 -7 45 -3 36 3 67 7 69 9 9 8 -95 2 -114 -6z"/>
<path d="M1080 3440 c0 -5 5 -10 10 -10 6 0 10 5 10 10 0 6 -4 10 -10 10 -5 0
-10 -4 -10 -10z"/>
<path d="M1048 3433 c7 -3 16 -2 19 1 4 3 -2 6 -13 5 -11 0 -14 -3 -6 -6z"/>
<path d="M1058 3413 c7 -3 16 -2 19 1 4 3 -2 6 -13 5 -11 0 -14 -3 -6 -6z"/>
<path d="M1160 3395 c-11 -13 -8 -15 13 -15 30 0 44 15 21 24 -21 8 -20 8 -34
-9z"/>
<path d="M1365 3200 c-3 -6 1 -7 9 -4 18 7 21 14 7 14 -6 0 -13 -4 -16 -10z"/>
<path d="M1563 3193 c9 -2 25 -2 35 0 9 3 1 5 -18 5 -19 0 -27 -2 -17 -5z"/>
<path d="M1436 3121 c-3 -4 6 -6 19 -3 14 2 25 6 25 8 0 8 -39 4 -44 -5z"/>
<path d="M1455 3080 c-3 -6 1 -7 9 -4 18 7 21 14 7 14 -6 0 -13 -4 -16 -10z"/>
<path d="M653 3143 c9 -2 23 -2 30 0 6 3 -1 5 -18 5 -16 0 -22 -2 -12 -5z"/>
<path d="M781 3146 c10 -10 59 -14 59 -5 0 5 -14 9 -32 9 -17 0 -29 -2 -27 -4z"/>
<path d="M783 3113 c9 -2 25 -2 35 0 9 3 1 5 -18 5 -19 0 -27 -2 -17 -5z"/>
<path d="M675 3100 c3 -5 10 -10 16 -10 5 0 9 5 9 10 0 6 -7 10 -16 10 -8 0
-12 -4 -9 -10z"/>
<path d="M1042 2913 c4 -22 38 -30 38 -10 0 8 -7 18 -16 21 -23 9 -26 8 -22
-11z"/>
<path d="M1030 2875 c7 -8 20 -15 28 -15 13 0 12 3 -4 15 -25 19 -40 19 -24 0z"/>
<path d="M1145 2855 l-30 -15 35 6 c19 3 39 10 45 15 14 14 -16 10 -50 -6z"/>
<path d="M1606 2756 c7 -19 38 -22 32 -3 -3 6 -12 13 -21 15 -12 2 -15 -1 -11
-12z"/>
<path d="M1676 2731 c-7 -11 22 -23 36 -15 6 4 5 10 -3 15 -18 11 -26 11 -33
0z"/>
<path d="M1610 2650 c0 -5 12 -10 28 -10 21 0 24 2 12 10 -20 13 -40 13 -40 0z"/>
<path d="M1678 2603 c7 -3 16 -2 19 1 4 3 -2 6 -13 5 -11 0 -14 -3 -6 -6z"/>
<path d="M1656 2412 c12 -10 25 -33 29 -50 3 -18 12 -35 20 -39 7 -5 15 -17
18 -28 3 -13 5 -9 6 13 0 17 -3 32 -8 32 -5 0 -15 16 -21 35 -6 19 -20 40 -30
45 -29 16 -37 11 -14 -8z"/>
<path d="M1800 2383 c0 -13 29 -38 35 -31 3 3 -4 13 -15 23 -11 10 -20 13 -20
8z"/>
<path d="M1725 2370 c-3 -5 -2 -10 4 -10 5 0 13 5 16 10 3 6 2 10 -4 10 -5 0
-13 -4 -16 -10z"/>
<path d="M1674 2270 c-7 -31 -7 -47 0 -52 6 -5 2 -8 -10 -8 -14 0 -26 10 -33
29 -11 26 -57 58 -68 47 -2 -2 3 -18 12 -35 10 -21 12 -31 4 -31 -8 0 -9 -4 0
-13 6 -8 8 -17 4 -20 -3 -4 3 -7 15 -7 25 0 25 0 12 35 -8 20 -7 26 2 23 7 -3
14 -14 16 -26 2 -16 10 -20 30 -19 23 2 28 -3 30 -25 4 -30 -6 -35 -27 -15
-11 10 -12 7 -6 -18 4 -16 9 -47 9 -67 3 -62 16 -56 16 7 0 36 4 55 9 50 12
-13 17 -67 8 -82 -6 -9 -3 -11 7 -7 19 7 21 50 5 125 -7 30 -15 77 -18 104
l-7 50 -10 -45z"/>
<path d="M1798 2243 c6 -2 18 -2 25 0 6 3 1 5 -13 5 -14 0 -19 -2 -12 -5z"/>
<path d="M1805 2200 c3 -5 11 -10 16 -10 6 0 7 5 4 10 -3 6 -11 10 -16 10 -6
0 -7 -4 -4 -10z"/>
<path d="M1778 2173 c6 -2 18 -2 25 0 6 3 1 5 -13 5 -14 0 -19 -2 -12 -5z"/>
<path d="M1598 2153 c6 -2 18 -2 25 0 6 3 1 5 -13 5 -14 0 -19 -2 -12 -5z"/>
<path d="M1778 2143 c7 -3 16 -2 19 1 4 3 -2 6 -13 5 -11 0 -14 -3 -6 -6z"/>
<path d="M1618 2083 c6 -2 18 -2 25 0 6 3 1 5 -13 5 -14 0 -19 -2 -12 -5z"/>
<path d="M1485 2070 c-3 -5 3 -10 14 -10 12 0 21 -4 21 -9 0 -5 -10 -7 -22 -5
-18 3 -17 1 5 -8 15 -7 27 -16 27 -20 0 -5 -12 -6 -27 -3 -27 5 -27 5 -5 -6
27 -15 27 -16 2 -86 -22 -64 -25 -83 -10 -83 6 0 10 10 10 23 0 12 9 46 20 75
11 29 20 65 20 81 0 42 -39 78 -55 51z"/>
<path d="M1638 1993 c7 -3 16 -2 19 1 4 3 -2 6 -13 5 -11 0 -14 -3 -6 -6z"/>
<path d="M1726 1763 c4 -132 11 -242 16 -248 7 -7 8 63 4 200 -3 116 -6 227
-6 248 0 20 -5 37 -10 37 -7 0 -9 -75 -4 -237z"/>
<path d="M1485 1980 c3 -5 11 -10 16 -10 6 0 7 5 4 10 -3 6 -11 10 -16 10 -6
0 -7 -4 -4 -10z"/>
<path d="M1680 1946 c0 -19 -4 -25 -12 -20 -10 6 -10 5 -1 -7 14 -18 13 -61
-2 -71 -6 -5 -6 -8 3 -8 6 0 12 -7 12 -15 0 -8 -5 -15 -12 -15 -6 0 -3 -7 8
-15 19 -14 19 -14 0 -15 -19 0 -19 -1 -2 -13 16 -12 17 -35 14 -280 -2 -147 0
-267 5 -267 4 0 7 5 7 11 0 6 8 8 18 5 16 -6 16 -5 0 8 -10 7 -18 16 -18 19 0
3 8 8 18 10 16 4 16 5 0 6 -10 0 -18 5 -18 10 0 5 8 12 18 14 16 4 16 5 0 6
-26 2 -22 29 5 34 20 4 20 4 1 6 -20 1 -20 5 -22 302 0 198 -4 305 -11 312 -8
8 -11 3 -11 -17z"/>
<path d="M1501 1806 c-19 -78 -22 -111 -16 -165 4 -36 7 -91 6 -121 -1 -31 3
-67 8 -80 7 -18 9 32 8 165 -2 139 2 198 11 222 8 17 12 42 10 55 -2 13 -13
-18 -27 -76z"/>
<path d="M1465 1800 c3 -5 8 -10 11 -10 2 0 4 5 4 10 0 6 -5 10 -11 10 -5 0
-7 -4 -4 -10z"/>
<path d="M1430 1753 c0 -12 -6 -24 -12 -26 -10 -4 -10 -6 0 -6 17 -1 15 -21
-3 -21 -8 0 -15 -4 -15 -10 0 -5 7 -7 15 -4 9 4 15 0 15 -9 0 -9 -8 -18 -17
-20 -17 -4 -17 -5 0 -6 25 -2 21 -21 -5 -22 -22 -1 -22 -1 2 -9 17 -5 19 -8 8
-9 -10 -1 -18 -5 -18 -11 0 -5 8 -10 18 -10 15 -1 15 -2 -2 -15 -17 -13 -18
-15 -3 -15 9 0 17 -4 17 -10 0 -5 -5 -10 -11 -10 -6 0 -3 -7 5 -16 19 -19 20
-31 4 -37 -9 -3 -7 -10 7 -21 l20 -15 -20 -1 c-18 -1 -19 -1 -2 -11 21 -12 23
-33 2 -25 -23 9 -18 -8 7 -19 13 -7 27 -29 38 -65 10 -30 18 -49 19 -42 1 6
11 12 24 12 21 1 21 2 -5 16 -18 9 -31 27 -37 52 -35 129 -42 182 -40 284 1
59 0 111 -4 115 -4 3 -7 -3 -7 -14z"/>
<path d="M1460 1580 c0 -5 5 -10 11 -10 5 0 7 5 4 10 -3 6 -8 10 -11 10 -2 0
-4 -4 -4 -10z"/>
<path d="M1438 1363 c7 -3 16 -2 19 1 4 3 -2 6 -13 5 -11 0 -14 -3 -6 -6z"/>
<path d="M1445 1330 c3 -5 11 -10 16 -10 6 0 7 5 4 10 -3 6 -11 10 -16 10 -6
0 -7 -4 -4 -10z"/>
<path d="M1580 1216 c0 -8 4 -17 9 -20 5 -4 7 3 4 14 -6 23 -13 26 -13 6z"/>
<path d="M1640 1191 c0 -5 5 -13 10 -16 6 -3 10 -2 10 4 0 5 -4 13 -10 16 -5
3 -10 2 -10 -4z"/>
<path d="M1693 1153 c9 -2 25 -2 35 0 9 3 1 5 -18 5 -19 0 -27 -2 -17 -5z"/>
<path d="M1099 2531 c-5 -14 -2 -37 17 -135 5 -27 3 -40 -7 -46 -18 -12 -35 0
-18 12 11 8 11 11 1 15 -10 4 -10 8 -1 19 8 10 8 14 0 14 -6 0 -11 13 -11 29
0 17 -5 33 -11 37 -12 7 -5 -138 11 -225 5 -25 4 -55 -1 -68 -16 -42 -9 -67
27 -97 46 -38 52 -29 10 14 -29 31 -32 39 -24 63 10 28 22 34 33 17 3 -5 11
-10 17 -10 7 0 6 6 -2 15 -7 8 -19 15 -26 15 -8 0 -14 7 -14 16 0 11 6 15 20
11 11 -3 23 -1 26 4 3 5 -6 9 -20 9 -14 0 -26 5 -26 10 0 6 7 10 15 10 8 0 15
5 15 10 0 6 -7 10 -16 8 -23 -4 -29 19 -7 25 17 4 17 5 1 6 -23 1 -23 17 -2
25 9 4 18 5 19 4 17 -20 38 -82 51 -153 15 -74 15 -88 3 -96 -10 -6 -10 -9 -1
-9 13 0 16 -48 6 -87 -4 -15 -11 -20 -22 -15 -15 5 -15 3 -4 -11 16 -18 9 -49
-15 -69 -14 -11 -15 -10 -8 12 4 14 12 28 17 31 6 4 6 9 2 12 -5 3 -15 -1 -22
-9 -7 -8 -9 -14 -5 -14 4 0 1 -6 -8 -13 -15 -11 -15 -15 -2 -32 14 -19 15 -19
43 14 38 45 54 121 45 220 -6 71 -13 97 -59 219 -9 24 -22 81 -29 125 -7 45
-16 76 -18 68z"/>
<path d="M1169 2505 c24 -14 49 -24 55 -22 12 4 -35 31 -74 41 -15 5 -7 -3 19
-19z"/>
<path d="M1137 2458 c10 -84 22 -118 41 -112 13 5 14 4 3 -4 -11 -8 -9 -16 13
-44 14 -19 31 -60 37 -91 7 -32 16 -57 20 -57 12 0 12 6 -10 85 -11 38 -17 73
-15 77 3 4 -2 8 -10 8 -22 0 -20 18 2 22 13 3 10 8 -15 21 -29 16 -52 52 -39
64 3 3 20 0 38 -6 30 -10 31 -9 14 4 -11 8 -25 15 -32 15 -6 0 -17 7 -24 15
-16 19 -11 19 34 0 51 -21 45 -3 -6 21 -24 10 -46 20 -50 22 -3 2 -4 -16 -1
-40z"/>
<path d="M1176 2401 c5 -5 20 -12 34 -15 24 -7 24 -6 6 8 -21 17 -57 23 -40 7z"/>
<path d="M965 2359 c-16 -10 -39 -19 -49 -19 -11 0 -17 -3 -13 -6 9 -10 60 5
87 26 32 25 14 24 -25 -1z"/>
<path d="M945 2320 c-28 -7 -28 -8 -5 -9 14 0 32 4 40 9 17 11 8 11 -35 0z"/>
<path d="M1335 2310 c-3 -5 -1 -10 4 -10 6 0 11 5 11 10 0 6 -2 10 -4 10 -3 0
-8 -4 -11 -10z"/>
<path d="M1042 2275 c-1 -22 -5 -51 -8 -65 -5 -19 -4 -22 5 -14 8 7 11 32 8
65 -3 44 -4 47 -5 14z"/>
<path d="M940 2290 c-9 -6 -10 -10 -3 -10 6 0 15 5 18 10 8 12 4 12 -15 0z"/>
<path d="M973 2276 c-48 -23 -53 -41 -23 -77 23 -29 25 -22 6 17 -19 35 -11
47 23 40 17 -5 22 -4 12 3 -11 7 -9 10 8 16 11 3 21 11 21 16 0 5 -1 8 -2 7
-2 0 -22 -10 -45 -22z"/>
<path d="M978 2235 c-8 -9 12 -55 24 -55 5 0 5 8 0 18 -5 9 -11 23 -13 30 -3
7 -7 10 -11 7z"/>
<path d="M853 2208 c-20 -26 -26 -41 -15 -34 12 7 36 46 29 46 -3 0 -9 -6 -14
-12z"/>
<path d="M1313 2140 c0 -30 2 -43 4 -27 2 15 2 39 0 55 -2 15 -4 2 -4 -28z"/>
<path d="M874 2148 l-19 -23 23 19 c21 18 27 26 19 26 -2 0 -12 -10 -23 -22z"/>
<path d="M1106 2151 c-3 -5 5 -16 19 -25 27 -18 35 -20 35 -8 -1 13 -49 42
-54 33z"/>
<path d="M1020 2117 c0 -10 8 -17 18 -17 9 0 13 4 7 8 -5 4 -13 11 -17 16 -5
5 -8 2 -8 -7z"/>
<path d="M727 2103 c-4 -5 6 -27 20 -48 14 -21 48 -85 75 -143 27 -58 67 -135
88 -172 20 -36 46 -89 56 -118 18 -52 103 -160 104 -133 0 8 -10 25 -21 37
-19 21 -20 28 -11 65 10 40 0 44 -12 4 -3 -11 -4 -3 -1 18 2 25 0 35 -7 31 -6
-4 -8 -23 -5 -46 4 -33 3 -37 -9 -27 -16 13 -18 47 -4 84 7 19 7 24 -1 19 -8
-4 -9 1 -4 16 5 15 4 20 -4 16 -6 -4 -11 -2 -11 5 0 7 -7 4 -15 -7 -16 -22
-20 -12 -5 16 11 21 3 53 -11 44 -6 -3 -7 -15 -3 -26 4 -14 2 -18 -5 -14 -6 4
-11 13 -11 21 0 7 -5 15 -11 17 -9 3 -8 11 1 28 12 23 12 24 -3 12 -13 -11
-17 -10 -26 5 -5 10 -9 28 -8 38 1 11 -3 19 -10 18 -12 -3 -18 10 -14 31 1 5
-2 12 -8 15 -5 4 -11 20 -13 36 -3 34 -18 56 -32 47 -5 -3 -7 2 -3 11 3 10 3
17 -2 17 -4 0 -13 18 -20 40 -7 24 -16 38 -23 34 -5 -4 -14 -1 -18 6 -4 7 -10
8 -13 3z m256 -422 c3 -14 1 -18 -9 -14 -15 6 -18 16 -7 26 9 10 10 9 16 -12z"/>
<path d="M660 2080 c0 -19 3 -21 12 -12 9 9 9 15 0 24 -9 9 -12 7 -12 -12z"/>
<path d="M700 2068 c0 -9 5 -20 10 -23 6 -4 7 -13 1 -24 -6 -10 -6 -23 0 -32
7 -12 9 -12 10 1 1 8 1 19 0 24 -1 5 5 4 13 -4 24 -19 19 2 -9 40 -16 22 -25
28 -25 18z"/>
<path d="M1051 2053 c11 -34 19 -42 19 -20 0 7 -7 22 -15 33 -13 17 -14 16 -4
-13z"/>
<path d="M1075 2070 c3 -5 8 -10 11 -10 2 0 4 5 4 10 0 6 -5 10 -11 10 -5 0
-7 -4 -4 -10z"/>
<path d="M1160 2051 c0 -6 4 -12 8 -15 5 -3 9 1 9 9 0 8 -4 15 -9 15 -4 0 -8
-4 -8 -9z"/>
<path d="M670 2043 c1 -18 18 -35 24 -24 4 6 4 16 1 21 -7 12 -25 13 -25 3z"/>
<path d="M961 1999 c-7 -12 -10 -23 -8 -26 3 -3 11 5 17 17 15 28 8 35 -9 9z"/>
<path d="M760 1985 c0 -14 41 -94 51 -101 6 -3 3 10 -5 30 -17 40 -46 86 -46
71z"/>
<path d="M727 1974 c-3 -4 0 -19 8 -34 8 -15 11 -30 8 -34 -4 -3 3 -15 15 -26
26 -24 27 -20 7 21 -9 16 -13 34 -10 39 4 6 -1 13 -9 16 -9 3 -13 10 -10 15 6
10 0 12 -9 3z"/>
<path d="M1018 1899 c-9 -16 -14 -29 -9 -29 8 0 34 50 29 56 -2 1 -11 -11 -20
-27z"/>
<path d="M1345 1900 c3 -5 8 -10 11 -10 2 0 4 5 4 10 0 6 -5 10 -11 10 -5 0
-7 -4 -4 -10z"/>
<path d="M1338 1863 c7 -3 16 -2 19 1 4 3 -2 6 -13 5 -11 0 -14 -3 -6 -6z"/>
<path d="M1180 1850 c0 -5 5 -10 10 -10 6 0 10 5 10 10 0 6 -4 10 -10 10 -5 0
-10 -4 -10 -10z"/>
<path d="M830 1847 c0 -4 10 -27 22 -50 12 -23 36 -78 54 -122 19 -44 34 -74
34 -67 0 20 -46 132 -80 193 -16 30 -30 50 -30 46z"/>
<path d="M901 1824 c0 -11 3 -14 6 -6 3 7 2 16 -1 19 -3 4 -6 -2 -5 -13z"/>
<path d="M815 1780 c-3 -5 -1 -10 4 -10 6 0 11 5 11 10 0 6 -2 10 -4 10 -3 0
-8 -4 -11 -10z"/>
<path d="M935 1779 c-4 -6 -5 -12 -2 -15 2 -3 7 2 10 11 7 17 1 20 -8 4z"/>
<path d="M1221 1724 c0 -11 3 -14 6 -6 3 7 2 16 -1 19 -3 4 -6 -2 -5 -13z"/>
<path d="M1152 1688 c-1 -27 1 -48 6 -48 19 1 27 18 21 50 l-6 35 -3 -40 -3
-40 -7 45 -7 45 -1 -47z"/>
<path d="M1191 1703 c-1 -12 4 -25 9 -28 12 -7 12 2 0 30 -8 19 -9 19 -9 -2z"/>
<path d="M860 1695 c0 -5 5 -17 10 -25 5 -8 10 -10 10 -5 0 6 -5 17 -10 25 -5
8 -10 11 -10 5z"/>
<path d="M1281 1614 c0 -11 3 -14 6 -6 3 7 2 16 -1 19 -3 4 -6 -2 -5 -13z"/>
<path d="M1262 1585 c0 -16 2 -22 5 -12 2 9 2 23 0 30 -3 6 -5 -1 -5 -18z"/>
<path d="M1051 1564 c0 -11 3 -14 6 -6 3 7 2 16 -1 19 -3 4 -6 -2 -5 -13z"/>
<path d="M1095 1557 c-10 -37 12 -107 34 -107 30 1 101 39 101 55 0 8 -4 15
-10 15 -5 0 -10 -6 -10 -14 0 -16 -51 -39 -77 -34 -10 2 -19 11 -21 21 -3 12
5 19 27 23 20 4 31 13 31 23 0 22 -49 24 -51 2 -1 -9 -5 -2 -9 14 l-7 30 -8
-28z"/>
<path d="M1212 1550 c0 -14 2 -19 5 -12 2 6 2 18 0 25 -3 6 -5 1 -5 -13z"/>
<path d="M1186 1538 c-3 -13 -1 -27 4 -32 7 -7 10 1 10 22 0 37 -5 41 -14 10z"/>
<path d="M984 1522 c29 -55 77 -122 96 -132 10 -6 27 -10 37 -9 12 0 7 5 -13
14 -21 9 -46 37 -72 79 -44 68 -75 99 -48 48z"/>
<path d="M1040 1391 c0 -4 12 -13 27 -20 21 -10 24 -14 13 -21 -11 -7 -8 -10
12 -15 34 -9 60 -3 66 13 2 8 -6 12 -25 12 -15 0 -43 9 -60 20 -18 11 -33 16
-33 11z"/>
<path d="M1092 1309 c16 -11 75 -12 81 -1 3 4 -17 7 -45 8 -30 1 -44 -2 -36
-7z"/>
<path d="M958 1303 c7 -3 16 -2 19 1 4 3 -2 6 -13 5 -11 0 -14 -3 -6 -6z"/>
<path d="M983 1242 c-13 -2 -23 -8 -23 -13 0 -9 37 -3 49 7 8 7 -4 10 -26 6z"/>
<path d="M973 1203 c-13 -2 -23 -8 -23 -13 0 -5 14 -4 30 1 27 10 42 21 23 18
-5 -1 -18 -4 -30 -6z"/>
<path d="M978 1173 c-10 -2 -18 -9 -18 -14 0 -6 10 -5 23 2 37 20 36 23 -5 12z"/>
<path d="M965 1130 c-3 -6 1 -7 9 -4 18 7 21 14 7 14 -6 0 -13 -4 -16 -10z"/>
<path d="M1007 1093 c-4 -3 -7 -11 -7 -17 0 -6 5 -5 12 2 6 6 9 14 7 17 -3 3
-9 2 -12 -2z"/>
<path d="M1005 1050 c-3 -5 -1 -10 4 -10 6 0 11 5 11 10 0 6 -2 10 -4 10 -3 0
-8 -4 -11 -10z"/>
<path d="M900 1040 c-9 -6 -10 -10 -3 -10 6 0 15 5 18 10 8 12 4 12 -15 0z"/>
<path d="M1315 2560 c3 -5 8 -10 11 -10 2 0 4 5 4 10 0 6 -5 10 -11 10 -5 0
-7 -4 -4 -10z"/>
<path d="M785 2284 c-23 -36 -15 -37 13 -3 13 16 19 29 14 29 -5 0 -17 -12
-27 -26z"/>
<path d="M819 2243 c-13 -16 -12 -17 4 -4 9 7 17 15 17 17 0 8 -8 3 -21 -13z"/>
<path d="M739 1533 c-13 -16 -12 -17 4 -4 9 7 17 15 17 17 0 8 -8 3 -21 -13z"/>
<path d="M765 1480 c-3 -6 1 -7 9 -4 18 7 21 14 7 14 -6 0 -13 -4 -16 -10z"/>
<path d="M780 1460 c-9 -6 -10 -10 -3 -10 6 0 15 5 18 10 8 12 4 12 -15 0z"/>
<path d="M335 1620 c-10 -11 -16 -22 -13 -25 3 -3 13 6 22 20 20 30 16 32 -9
5z"/>
<path d="M350 1590 c-11 -11 -20 -25 -20 -32 0 -6 1 -9 3 -7 1 2 13 16 26 32
28 31 21 37 -9 7z"/>
<path d="M525 1550 c-8 -13 15 -13 35 0 12 8 11 10 -7 10 -12 0 -25 -4 -28
-10z"/>
<path d="M461 1513 c-1 -24 4 -43 9 -43 12 0 12 24 0 60 -7 21 -8 19 -9 -17z"/>
<path d="M550 1520 c0 -5 7 -7 15 -4 8 4 15 8 15 10 0 2 -7 4 -15 4 -8 0 -15
-4 -15 -10z"/>
<path d="M578 1493 c7 -3 16 -2 19 1 4 3 -2 6 -13 5 -11 0 -14 -3 -6 -6z"/>
<path d="M537 1474 c-11 -19 19 -77 57 -106 54 -43 65 -33 14 11 -26 23 -49
54 -54 73 -6 19 -13 28 -17 22z"/>
<path d="M588 1473 c7 -3 16 -2 19 1 4 3 -2 6 -13 5 -11 0 -14 -3 -6 -6z"/>
<path d="M377 1443 c-4 -3 -7 -11 -7 -17 0 -6 5 -5 12 2 6 6 9 14 7 17 -3 3
-9 2 -12 -2z"/>
<path d="M470 1431 c0 -4 10 -23 23 -42 26 -39 97 -84 145 -93 46 -8 31 11
-19 24 -43 12 -114 69 -124 101 -6 19 -25 27 -25 10z"/>
<path d="M470 1359 c0 -5 5 -7 10 -4 6 3 10 8 10 11 0 2 -4 4 -10 4 -5 0 -10
-5 -10 -11z"/>
<path d="M497 1343 c-4 -3 -7 -13 -7 -22 1 -13 3 -13 11 2 11 19 8 33 -4 20z"/>
<path d="M660 1330 c0 -5 5 -10 11 -10 5 0 7 5 4 10 -3 6 -8 10 -11 10 -2 0
-4 -4 -4 -10z"/>
<path d="M526 1315 c-9 -26 -7 -32 5 -12 6 10 9 21 6 23 -2 3 -7 -2 -11 -11z"/>
<path d="M561 1214 c0 -11 3 -14 6 -6 3 7 2 16 -1 19 -3 4 -6 -2 -5 -13z"/>
<path d="M610 1209 c0 -5 5 -7 10 -4 6 3 10 8 10 11 0 2 -4 4 -10 4 -5 0 -10
-5 -10 -11z"/>
<path d="M641 1204 c0 -11 3 -14 6 -6 3 7 2 16 -1 19 -3 4 -6 -2 -5 -13z"/>
<path d="M1348 1253 c7 -3 16 -2 19 1 4 3 -2 6 -13 5 -11 0 -14 -3 -6 -6z"/>
<path d="M1348 1163 c7 -3 16 -2 19 1 4 3 -2 6 -13 5 -11 0 -14 -3 -6 -6z"/>
<path d="M1340 1140 c0 -5 7 -10 16 -10 8 0 12 5 9 10 -3 6 -10 10 -16 10 -5
0 -9 -4 -9 -10z"/>
<path d="M1348 1073 c7 -3 16 -2 19 1 4 3 -2 6 -13 5 -11 0 -14 -3 -6 -6z"/>
<path d="M1335 1050 c-3 -5 3 -10 15 -10 12 0 18 5 15 10 -3 6 -10 10 -15 10
-5 0 -12 -4 -15 -10z"/>
<path d="M1340 990 c0 -5 5 -10 10 -10 6 0 10 5 10 10 0 6 -4 10 -10 10 -5 0
-10 -4 -10 -10z"/>
<path d="M1330 510 l-25 -8 28 -1 c15 -1 27 4 27 9 0 6 -1 10 -2 9 -2 -1 -14
-5 -28 -9z"/>
<path d="M1248 1313 c7 -3 16 -2 19 1 4 3 -2 6 -13 5 -11 0 -14 -3 -6 -6z"/>
<path d="M1228 1163 c7 -3 16 -2 19 1 4 3 -2 6 -13 5 -11 0 -14 -3 -6 -6z"/>
<path d="M1210 1100 c0 -5 10 -10 23 -10 18 0 19 2 7 10 -19 13 -30 13 -30 0z"/>
<path d="M1119 1078 c-12 -22 -11 -22 6 -8 17 14 18 13 11 -14 -4 -16 -19 -45
-34 -65 l-26 -36 26 24 c29 25 58 79 58 105 0 24 -27 19 -41 -6z"/>
<path d="M1190 1010 c0 -5 10 -10 23 -10 18 0 19 2 7 10 -19 13 -30 13 -30 0z"/>
<path d="M1193 965 c0 -8 4 -15 9 -15 4 0 8 7 8 15 0 8 -4 15 -8 15 -5 0 -9
-7 -9 -15z"/>
<path d="M925 884 c-40 -14 -40 -14 -5 -9 19 3 39 10 44 15 12 12 12 12 -39
-6z"/>
<path d="M776 862 c-2 -4 14 -6 37 -4 68 5 76 10 20 11 -28 0 -54 -2 -57 -7z"/>
<path d="M795 830 c3 -5 8 -10 11 -10 2 0 4 5 4 10 0 6 -5 10 -11 10 -5 0 -7
-4 -4 -10z"/>
<path d="M598 779 c-2 -7 1 -19 8 -26 25 -26 33 -9 10 22 -10 14 -14 15 -18 4z"/>
<path d="M645 730 c3 -5 10 -10 16 -10 5 0 9 5 9 10 0 6 -7 10 -16 10 -8 0
-12 -4 -9 -10z"/>
<path d="M585 720 c28 -12 47 -12 40 0 -3 6 -18 10 -33 9 -24 0 -25 -1 -7 -9z"/>
<path d="M640 699 c0 -5 9 -9 20 -9 11 0 20 2 20 4 0 2 -9 6 -20 9 -11 3 -20
1 -20 -4z"/>
<path d="M541 696 c2 -2 21 -6 42 -10 27 -5 37 -4 32 3 -3 6 -22 11 -42 11
-20 0 -34 -2 -32 -4z"/>
<path d="M518 658 c-16 -5 -28 -14 -28 -18 0 -5 12 -2 28 6 38 20 55 18 88
-11 16 -14 35 -25 43 -25 8 0 -3 14 -24 30 -39 31 -62 35 -107 18z"/>
<path d="M635 660 c3 -5 14 -10 23 -10 15 0 15 2 2 10 -20 13 -33 13 -25 0z"/>
<path d="M775 1240 c-3 -5 3 -10 15 -10 12 0 18 5 15 10 -3 6 -10 10 -15 10
-5 0 -12 -4 -15 -10z"/>
<path d="M766 1201 c-3 -5 5 -8 19 -7 14 0 25 4 25 9 0 10 -38 9 -44 -2z"/>
<path d="M773 1163 c9 -2 23 -2 30 0 6 3 -1 5 -18 5 -16 0 -22 -2 -12 -5z"/>
<path d="M763 1123 c9 -2 23 -2 30 0 6 3 -1 5 -18 5 -16 0 -22 -2 -12 -5z"/>
<path d="M1465 1145 c4 -16 10 -88 13 -160 l7 -130 7 75 c8 83 -3 197 -22 226
-9 16 -10 15 -5 -11z"/>
<path d="M1714 1076 c-3 -8 -4 -23 -2 -33 3 -11 6 -6 9 15 6 34 2 42 -7 18z"/>
<path d="M1558 858 c-9 -47 -16 -69 -17 -51 -2 48 -21 52 -21 4 0 -29 4 -41
14 -41 9 0 14 -9 14 -22 -3 -56 3 -108 12 -108 7 0 9 20 4 59 -4 34 -1 96 6
145 17 111 8 121 -12 14z"/>
<path d="M1519 691 c-3 -32 -1 -47 6 -40 8 8 9 78 1 87 -2 2 -6 -19 -7 -47z"/>
<path d="M1982 648 c5 -15 37 -18 41 -3 1 6 -9 12 -22 13 -16 3 -22 -1 -19
-10z"/>
<path d="M1530 564 c0 -8 5 -12 10 -9 6 3 10 10 10 16 0 5 -4 9 -10 9 -5 0
-10 -7 -10 -16z"/>
<path d="M1400 550 c0 -5 7 -10 15 -10 8 0 15 5 15 10 0 6 -7 10 -15 10 -8 0
-15 -4 -15 -10z"/>
<path d="M1894 435 c-13 -20 -20 -23 -30 -14 -22 18 -88 -19 -92 -53 -3 -26
-3 -26 -33 -10 -27 15 -31 15 -42 1 -8 -10 -20 -13 -37 -9 -30 8 -70 -5 -88
-28 -11 -14 -85 -40 -119 -42 -19 0 -15 18 5 23 13 4 12 5 -5 6 -27 1 -39 -15
-24 -33 8 -10 7 -17 -4 -26 -13 -10 -15 -9 -15 9 0 12 -7 24 -15 27 -22 9 -47
-15 -40 -37 5 -15 1 -19 -19 -19 -14 0 -28 -5 -31 -11 -4 -6 -13 -8 -21 -5
-22 8 -44 -4 -44 -25 0 -10 -4 -19 -10 -19 -5 0 -10 -7 -10 -15 0 -25 -27 -17
-34 10 -10 38 -41 50 -66 25 -11 -11 -26 -20 -34 -20 -8 0 -17 -10 -19 -22
l-4 -23 -2 23 c-1 27 -27 39 -51 24 -12 -7 -21 -7 -28 0 -7 7 -17 6 -33 -3
-13 -7 -42 -13 -64 -13 -31 -1 -40 -5 -43 -20 -4 -19 -3 -19 13 -2 20 20 37
17 41 -8 3 -24 14 -33 22 -19 4 6 16 11 27 10 16 -2 19 3 17 22 -2 15 0 21 7
17 6 -4 11 -16 11 -26 0 -25 17 -35 35 -20 10 8 13 21 8 38 -4 17 -2 23 6 18
6 -4 11 -18 11 -31 0 -22 4 -24 51 -23 l51 0 -6 39 c-8 52 19 55 28 4 5 -26
12 -35 26 -35 11 0 20 -4 20 -10 0 -5 7 -10 15 -10 9 0 15 7 13 17 -4 22 43
48 54 30 5 -8 -1 -14 -15 -17 -26 -7 -34 -42 -13 -59 22 -19 56 -4 56 23 0 18
7 25 30 30 40 7 149 -2 177 -16 13 -6 26 -8 30 -5 3 4 11 -3 18 -16 9 -18 18
-21 50 -19 22 2 44 8 49 13 5 5 14 2 21 -8 9 -12 21 -14 47 -9 39 7 66 30 48
41 -5 3 -13 -1 -16 -9 -8 -20 -51 -21 -70 -1 -19 18 -44 20 -44 3 0 -7 -5 -5
-11 5 -14 23 -39 22 -39 -3 0 -11 -4 -20 -10 -20 -5 0 -10 8 -10 18 0 22 -71
102 -90 102 -7 0 -22 -7 -32 -17 -15 -14 -18 -14 -18 -1 0 8 9 23 20 33 11 10
20 23 20 30 0 7 9 20 21 31 17 16 22 16 29 4 13 -21 12 -58 -2 -62 -7 -3 -3
-16 13 -37 20 -27 29 -32 54 -28 21 3 34 -2 46 -16 14 -19 21 -19 70 -10 30 6
71 8 92 6 24 -4 37 -1 37 7 0 7 -8 9 -20 5 -15 -5 -29 2 -50 25 -30 32 -39 60
-20 60 6 0 8 15 4 38 -4 29 -1 43 16 65 20 25 26 27 78 23 45 -3 60 -9 72 -27
11 -17 12 -23 2 -27 -18 -6 -15 -20 5 -18 24 2 29 -31 6 -37 -17 -4 -17 -5 0
-6 20 -1 23 -21 3 -21 -9 0 -12 -7 -9 -20 5 -18 15 -24 36 -21 4 0 7 -3 7 -8
0 -5 -20 -11 -45 -13 -25 -2 -45 0 -45 4 0 5 5 8 12 8 6 0 3 7 -8 15 -14 11
-16 15 -4 15 12 1 11 3 -3 14 -18 14 -18 14 0 19 17 4 17 5 0 6 -10 0 -15 6
-12 11 3 6 1 10 -4 10 -6 0 -10 15 -8 35 1 19 7 35 12 35 12 0 -16 20 -28 20
-5 0 -6 -9 -2 -20 5 -16 3 -19 -12 -13 -16 6 -16 5 -4 -10 10 -13 11 -17 1
-17 -9 0 -8 -5 3 -18 10 -10 17 -33 17 -51 0 -30 -2 -33 -24 -27 -20 5 -24 2
-23 -14 1 -15 8 -20 30 -20 16 0 35 -7 44 -16 9 -8 25 -14 37 -12 11 1 26 -1
33 -5 17 -11 44 3 53 29 7 16 14 21 29 17 15 -4 24 2 32 21 15 32 22 32 43 4
l16 -23 -2 25 c-2 15 -12 29 -25 35 -25 11 -30 34 -12 52 17 17 -5 66 -42 94
-22 16 -26 25 -17 31 10 6 9 8 -4 8 -9 0 -18 -5 -20 -12 -3 -7 -10 -8 -17 -4
-11 7 -11 10 0 18 10 7 7 8 -11 4 -14 -3 -31 -6 -39 -6 -10 0 -11 -3 -2 -14 8
-10 9 -16 1 -21 -5 -3 -10 -5 -11 -3 -9 39 -7 55 8 65 15 12 15 13 0 13 -9 0
-24 -11 -33 -25z m-34 -40 c0 -14 -21 -25 -52 -25 -25 0 -19 21 12 37 26 13
40 9 40 -12z m173 -33 c15 -14 27 -33 27 -41 0 -10 -7 -6 -17 11 -18 28 -59
52 -74 43 -10 -7 -13 8 -3 18 9 9 36 -4 67 -31z m-288 -77 c-1 -19 -5 -39 -9
-42 -12 -12 -6 -40 14 -66 23 -29 10 -46 -15 -20 -16 16 -18 16 -30 0 -15 -21
-35 -22 -35 -2 0 21 -27 30 -45 15 -23 -19 -45 -4 -45 29 0 20 8 35 27 49 33
24 26 52 -13 52 -26 0 -27 0 -9 20 19 21 69 27 94 11 10 -6 10 -10 1 -16 -8
-5 -5 -12 10 -22 28 -20 43 -2 29 34 -13 36 -11 41 10 16 11 -14 17 -35 16
-58z m271 39 c27 -28 34 -44 34 -75 0 -41 -13 -54 -47 -46 -15 3 -14 6 7 15
14 6 20 11 13 11 -6 1 -16 15 -22 31 -5 17 -14 30 -20 30 -5 0 -14 14 -20 31
-14 40 -14 39 5 39 9 0 32 -16 50 -36z m-410 -63 c-4 -5 -13 -8 -22 -4 -11 4
-12 8 -3 20 14 16 36 2 25 -16z m-216 3 c0 -8 -5 -12 -10 -9 -6 4 -8 11 -5 16
9 14 15 11 15 -7z m80 -24 c0 -5 -7 -10 -15 -10 -8 0 -15 5 -15 10 0 6 7 10
15 10 8 0 15 -4 15 -10z m-75 -20 c3 -5 1 -10 -4 -10 -6 0 -11 5 -11 10 0 6 2
10 4 10 3 0 8 -4 11 -10z m-55 -21 c0 -5 -4 -9 -10 -9 -5 0 -10 7 -10 16 0 8
5 12 10 9 6 -3 10 -10 10 -16z m635 1 c3 -5 1 -10 -4 -10 -6 0 -11 5 -11 10 0
6 2 10 4 10 3 0 8 -4 11 -10z m-695 -9 c0 -6 -4 -13 -10 -16 -5 -3 -10 1 -10
9 0 9 5 16 10 16 6 0 10 -4 10 -9z m110 -7 c0 -2 -7 -4 -15 -4 -8 0 -15 4 -15
10 0 5 7 7 15 4 8 -4 15 -8 15 -10z m-40 -29 c0 -8 -7 -15 -15 -15 -8 0 -15 7
-15 15 0 8 7 15 15 15 8 0 15 -7 15 -15z m50 5 c0 -5 -5 -10 -11 -10 -5 0 -7
5 -4 10 3 6 8 10 11 10 2 0 4 -4 4 -10z m120 0 c0 -13 -28 -25 -38 -16 -3 4 0
11 8 16 20 13 30 12 30 0z m-220 -72 c0 -13 -23 -5 -28 10 -2 7 2 10 12 6 9
-3 16 -11 16 -16z"/>
<path d="M1163 443 c9 -2 25 -2 35 0 9 3 1 5 -18 5 -19 0 -27 -2 -17 -5z"/>
<path d="M1814 245 c3 -8 1 -15 -5 -15 -6 0 -7 -4 -4 -10 13 -21 32 -10 27 15
-2 14 -9 25 -14 25 -6 0 -8 -7 -4 -15z"/>
<path d="M1506 234 c-4 -10 -1 -14 6 -12 15 5 23 28 10 28 -5 0 -13 -7 -16
-16z"/>
<path d="M2051 161 c-19 -12 -6 -43 16 -39 10 2 18 12 18 22 0 22 -14 29 -34
17z"/>
<path d="M782 134 c10 -10 20 -16 22 -13 3 3 -5 11 -17 18 -21 13 -21 12 -5
-5z"/>
<path d="M1990 115 c-25 -30 15 -70 45 -45 20 16 19 46 -1 54 -23 9 -30 8 -44
-9z m40 -20 c0 -8 -4 -15 -9 -15 -13 0 -22 16 -14 24 11 11 23 6 23 -9z"/>
<path d="M1045 721 c-3 -5 4 -13 16 -16 28 -9 36 1 10 14 -12 7 -22 7 -26 2z"/>
<path d="M1036 685 c25 -19 40 -19 24 0 -7 8 -20 15 -28 15 -13 0 -12 -3 4
-15z"/>
<path d="M1024 655 c11 -8 25 -15 30 -15 6 0 2 7 -8 15 -11 8 -25 15 -30 15
-6 0 -2 -7 8 -15z"/>
<path d="M1016 616 c21 -15 30 -14 19 3 -3 6 -14 11 -23 11 -13 0 -13 -2 4
-14z"/>
<path d="M1000 590 c0 -6 7 -10 15 -10 8 0 15 2 15 4 0 2 -7 6 -15 10 -8 3
-15 1 -15 -4z"/>
<path d="M990 560 c0 -5 7 -10 16 -10 8 0 12 5 9 10 -3 6 -10 10 -16 10 -5 0
-9 -4 -9 -10z"/>
<path d="M974 3679 c-2 -4 5 -9 16 -12 28 -7 30 -93 3 -100 -10 -3 30 -5 90
-6 59 0 107 3 107 8 0 5 -9 7 -20 4 -18 -5 -20 0 -20 41 0 39 4 48 23 56 12 5
20 10 17 11 -14 6 -212 4 -216 -2z m96 -60 c0 -43 -3 -50 -17 -47 -14 2 -19
15 -21 51 -3 42 -1 47 17 47 18 0 21 -6 21 -51z m58 4 c-4 -66 -28 -70 -28 -4
0 39 4 51 16 51 12 0 14 -10 12 -47z"/>
<path d="M537 2773 c-12 -11 -8 -23 8 -23 8 0 15 7 15 15 0 16 -12 20 -23 8z"/>
<path d="M616 2773 c-11 -11 -6 -23 9 -23 8 0 15 4 15 9 0 13 -16 22 -24 14z"/>
<path d="M590 2710 c0 -5 5 -10 10 -10 6 0 10 5 10 10 0 6 -4 10 -10 10 -5 0
-10 -4 -10 -10z"/>
<path d="M583 2678 c2 -7 10 -13 17 -13 7 0 15 6 18 13 2 7 -5 12 -18 12 -13
0 -20 -5 -17 -12z"/>
<path d="M350 2620 c0 -5 5 -10 11 -10 5 0 7 5 4 10 -3 6 -8 10 -11 10 -2 0
-4 -4 -4 -10z"/>
<path d="M641 2555 c-22 -24 -59 -83 -81 -131 -40 -86 -50 -137 -29 -149 7 -5
8 4 4 27 -5 27 3 50 45 133 28 55 65 115 83 133 17 17 28 32 25 32 -3 0 -24
-20 -47 -45z"/>
<path d="M1815 2540 c-3 -5 1 -10 9 -10 9 0 16 5 16 10 0 6 -4 10 -9 10 -6 0
-13 -4 -16 -10z"/>
<path d="M615 2379 c-4 -18 -3 -35 4 -42 8 -8 11 0 11 31 0 50 -6 54 -15 11z"/>
<path d="M587 2383 c-15 -53 -18 -77 -9 -68 5 6 12 27 15 48 6 38 2 50 -6 20z"/>
<path d="M502 2340 c0 -14 2 -19 5 -12 2 6 2 18 0 25 -3 6 -5 1 -5 -13z"/>
<path d="M461 2246 c-12 -14 -4 -49 9 -41 7 4 11 55 5 55 -1 0 -8 -6 -14 -14z"/>
<path d="M490 2225 c0 -9 4 -14 9 -11 5 4 11 1 13 -6 3 -9 6 -9 11 -1 5 7 -1
17 -13 23 -16 9 -20 8 -20 -5z"/>
<path d="M1930 1814 c0 -9 5 -14 12 -12 18 6 21 28 4 28 -9 0 -16 -7 -16 -16z"/>
<path d="M1920 1300 c0 -5 6 -10 14 -10 8 0 18 5 21 10 3 6 -3 10 -14 10 -12
0 -21 -4 -21 -10z"/>
<path d="M2090 1090 c0 -5 5 -10 10 -10 6 0 10 5 10 10 0 6 -4 10 -10 10 -5 0
-10 -4 -10 -10z"/>
<path d="M1941 1044 c0 -11 3 -14 6 -6 3 7 2 16 -1 19 -3 4 -6 -2 -5 -13z"/>
<path d="M548 1023 c7 -3 16 -2 19 1 4 3 -2 6 -13 5 -11 0 -14 -3 -6 -6z"/>
</g>
</svg>
