<?xml version="1.0" standalone="no"?>
<!DOCTYPE svg PUBLIC "-//W3C//DTD SVG 20010904//EN"
 "http://www.w3.org/TR/2001/REC-SVG-20010904/DTD/svg10.dtd">
<svg version="1.0" xmlns="http://www.w3.org/2000/svg"
 width="218.000000pt" height="382.000000pt" viewBox="0 0 218.000000 382.000000"
 preserveAspectRatio="xMidYMid meet">
<metadata>
Created by potrace 1.16, written by Peter Selinger 2001-2019
</metadata>
<g transform="translate(0.000000,382.000000) scale(0.100000,-0.100000)"
fill="#000000" stroke="none">
<path d="M1825 3804 c-5 -2 -412 -4 -903 -6 -765 -4 -895 -6 -903 -19 -6 -9
-7 -682 -4 -1804 4 -984 6 -1828 6 -1875 l-1 -86 208 3 c114 1 593 2 1065 3
659 1 859 4 862 13 3 11 15 1802 15 2392 0 376 -11 1358 -16 1373 -3 10 -40
12 -161 11 -87 -1 -162 -4 -168 -5z m-672 -34 c12 0 17 -8 17 -30 0 -18 6 -33
15 -37 12 -4 15 -16 12 -44 -2 -22 -7 -42 -10 -46 -4 -3 -30 -8 -58 -10 -50
-4 -51 -3 -45 19 3 13 6 31 6 41 0 9 6 17 14 17 8 0 18 5 21 11 5 7 -14 9 -61
5 -38 -2 -82 -5 -98 -5 -27 -1 -28 -2 -12 -14 24 -18 19 -83 -6 -79 -10 2 -18
-2 -18 -8 0 -6 36 -10 95 -10 l95 0 0 -50 c0 -36 5 -55 19 -69 11 -11 21 -27
23 -37 4 -20 34 -41 44 -31 4 4 2 13 -4 19 -7 7 -12 22 -12 34 0 13 -8 25 -19
29 -37 11 -33 107 5 114 10 2 23 9 27 17 13 23 37 16 48 -13 13 -35 4 -56 -21
-48 -25 8 -36 -28 -21 -68 6 -15 8 -34 4 -43 -3 -9 0 -19 7 -24 10 -6 10 -12
0 -30 -9 -17 -11 -59 -8 -142 3 -65 2 -120 -1 -123 -4 -2 -3 -43 3 -92 5 -48
9 -342 10 -653 1 -311 5 -581 10 -601 6 -27 3 -45 -9 -69 -13 -25 -15 -38 -6
-56 8 -18 5 -35 -13 -81 -13 -32 -27 -73 -31 -91 -3 -17 -10 -32 -14 -32 -4 0
-15 -15 -25 -32 -34 -60 -67 -88 -103 -88 -18 0 -33 -5 -33 -10 0 -6 -16 -18
-35 -27 -19 -9 -35 -20 -35 -25 0 -5 10 -2 23 6 12 8 41 17 64 21 47 7 118 62
135 104 11 26 11 26 18 -13 8 -42 39 -76 70 -76 22 0 35 -30 18 -42 -7 -4 -26
-8 -41 -8 -41 0 -115 -42 -170 -96 -41 -39 -48 -51 -44 -73 3 -15 2 -33 -3
-41 -9 -15 8 -47 52 -95 29 -31 35 -45 18 -45 -5 0 -21 -18 -35 -40 -14 -22
-33 -40 -42 -40 -9 0 -25 -7 -34 -16 -18 -16 -18 -18 0 -43 10 -14 31 -61 46
-104 16 -44 34 -85 42 -92 11 -12 11 -15 -1 -22 -14 -8 -20 -25 -17 -50 0 -7
11 -13 23 -13 17 0 19 3 10 12 -17 17 -15 25 8 31 15 4 20 0 20 -16 0 -11 8
-30 18 -41 17 -19 18 -32 10 -156 -5 -74 -11 -136 -12 -137 -2 -3 -97 27 -104
32 -2 1 7 20 20 40 25 44 60 192 47 201 -11 6 -24 -26 -43 -110 -9 -35 -29
-86 -46 -112 -16 -26 -30 -53 -30 -60 0 -14 33 -27 122 -49 60 -14 75 -14 137
-2 38 8 74 18 80 21 6 4 -3 27 -24 60 -50 79 -96 255 -73 284 6 7 8 29 5 50
-5 28 2 59 29 132 20 52 36 110 37 127 2 30 5 33 35 33 18 0 94 -18 169 -41
125 -37 172 -45 126 -21 -22 12 -281 92 -296 92 -7 0 -57 18 -112 40 -81 33
-104 47 -119 73 -11 18 -19 35 -18 40 1 4 -5 7 -13 7 -18 0 -18 8 -2 35 30 51
62 85 80 85 15 0 17 -3 8 -13 -8 -11 -3 -17 24 -30 19 -9 35 -23 35 -31 0 -25
50 -47 126 -56 46 -5 80 -14 87 -23 7 -8 23 -17 37 -20 14 -4 55 -33 92 -66
37 -33 83 -65 103 -72 32 -12 35 -16 35 -54 0 -45 13 -74 25 -56 4 7 4 18 2
25 -3 8 3 16 14 19 10 3 19 1 19 -4 0 -5 -5 -9 -12 -9 -6 0 -9 -3 -6 -6 4 -3
16 -1 27 6 26 13 30 -6 5 -25 -15 -10 -14 -12 7 -11 13 1 24 -4 24 -11 0 -6 3
-15 8 -19 13 -13 7 -24 -13 -24 -10 0 -24 9 -30 20 -7 12 -21 20 -37 20 -15 0
-37 10 -50 22 -18 16 -23 18 -23 6 0 -22 34 -50 53 -42 10 3 22 -4 33 -21 10
-15 23 -24 31 -21 8 4 26 3 40 0 19 -5 21 -9 11 -15 -11 -7 -10 -11 2 -18 18
-12 13 -17 -23 -26 -17 -5 -27 -3 -27 4 0 6 -7 11 -15 11 -18 0 -18 -5 -5 -31
13 -23 36 -25 44 -4 3 8 12 15 21 15 17 0 20 -16 5 -25 -6 -4 0 -15 15 -27 27
-21 46 -18 27 5 -6 7 -10 36 -9 63 1 35 -5 63 -22 98 -13 27 -27 67 -31 88 -7
36 -5 40 17 49 13 5 47 9 74 9 29 0 67 9 93 21 52 24 57 37 54 147 -2 82 -5
87 -93 132 -26 14 -59 35 -72 47 -23 21 -24 21 -4 28 29 9 91 85 91 111 0 13
4 25 9 28 5 4 12 24 16 46 4 22 11 42 16 46 12 7 11 109 -2 175 -6 30 -13 67
-16 84 -8 46 -59 101 -124 135 -33 16 -66 30 -73 30 -8 0 -27 7 -42 15 -43 22
-57 19 -50 -9 8 -31 -13 -52 -62 -66 -20 -5 -43 -14 -51 -19 -9 -6 -19 -3 -31
9 -10 10 -26 22 -35 27 -14 8 -15 14 -6 32 7 11 16 21 21 21 5 0 -2 21 -15 46
-14 26 -25 53 -25 61 0 21 23 10 37 -18 12 -23 13 -23 13 -3 0 12 -9 32 -21
45 -11 13 -18 18 -14 12 3 -7 2 -13 -3 -13 -5 0 -12 10 -16 23 -8 31 17 48 55
37 17 -5 43 -7 59 -5 16 2 33 -2 38 -8 12 -15 24 -80 24 -132 0 -36 1 -38 11
-18 13 23 13 23 52 23 18 0 23 4 19 15 -4 8 -3 23 1 33 13 30 4 129 -16 184
-10 29 -19 53 -19 54 0 6 -62 17 -100 18 -39 1 -45 4 -43 21 5 43 4 82 -6 430
-6 198 -9 390 -6 427 5 53 2 73 -10 92 -15 23 -15 27 -1 48 9 12 16 35 16 50
0 34 9 35 33 3 16 -22 16 -26 3 -31 -9 -3 -20 -22 -25 -41 -12 -44 1 -83 29
-83 15 0 20 -7 20 -25 0 -14 11 -37 25 -51 13 -13 30 -34 36 -45 8 -16 17 -19
35 -15 22 6 24 5 15 -13 -20 -36 -13 -71 15 -81 19 -8 24 -15 19 -28 -16 -38
-17 -54 -5 -77 13 -25 41 -37 58 -26 12 7 32 55 32 77 0 8 -4 12 -10 9 -5 -3
-10 -14 -10 -23 0 -9 -4 -23 -9 -31 -8 -13 -12 -13 -26 -1 -13 11 -15 24 -10
62 6 45 5 50 -14 55 -23 6 -26 25 -10 71 6 17 9 38 7 46 -3 14 -6 14 -32 1
-36 -19 -36 -19 -36 8 0 12 11 39 25 60 20 29 22 37 10 37 -8 0 -15 4 -15 9 0
12 86 52 102 47 7 -3 25 -7 41 -10 15 -4 27 -13 27 -21 0 -13 -5 -12 -35 2
-41 20 -59 10 -25 -14 46 -32 60 -53 60 -88 0 -36 -8 -43 -27 -24 -23 23 -32
-1 -13 -34 32 -52 34 -59 18 -68 -13 -7 -13 -15 -4 -44 6 -19 14 -35 17 -35
10 0 21 114 13 134 -4 11 0 22 11 30 13 9 17 24 15 47 -1 19 -2 50 -2 69 1 19
-4 40 -9 47 -6 6 -8 21 -4 32 7 24 -23 87 -36 74 -5 -5 -4 -22 3 -41 9 -23 9
-35 1 -43 -21 -21 -36 1 -29 42 5 30 3 39 -8 39 -14 0 -18 -8 -30 -62 -4 -16
-13 -28 -21 -28 -18 0 -20 57 -3 95 15 34 1 45 -21 16 -25 -32 -36 -11 -16 29
l16 31 -26 -7 c-22 -5 -25 -3 -25 18 0 13 10 35 22 48 20 21 20 24 4 36 -11 7
-16 21 -14 36 4 23 4 23 18 -4 7 -16 19 -28 27 -28 18 0 63 45 63 62 0 7 11
18 25 25 24 11 36 1 15 -12 -5 -3 -10 -24 -10 -46 0 -40 -5 -45 -29 -30 -8 5
-20 7 -28 4 -11 -4 -9 -9 7 -20 13 -9 20 -24 18 -37 -1 -12 7 -33 20 -46 12
-13 22 -32 22 -42 0 -22 18 -24 27 -2 3 8 -4 29 -17 46 -22 30 -23 51 0 23 7
-8 21 -15 32 -15 16 0 19 -5 15 -21 -3 -12 1 -32 10 -46 9 -13 16 -48 17 -79
1 -46 6 -59 26 -75 30 -23 53 -21 58 5 3 14 0 17 -11 13 -9 -3 -20 0 -26 6
-22 27 -21 107 1 107 5 0 6 -9 3 -20 -8 -26 20 -71 39 -64 12 4 13 -5 9 -54
-5 -56 -4 -61 21 -77 25 -16 27 -16 61 4 20 12 37 21 38 21 4 0 5 -245 5 -900
1 -355 1 -718 2 -808 1 -100 -3 -176 -10 -198 -9 -25 -9 -38 -1 -48 6 -7 9
-15 6 -17 -2 -3 -5 -56 -5 -119 -1 -107 -14 -170 -33 -170 -5 0 -5 9 -2 20 8
24 -13 28 -22 4 -10 -26 13 -63 35 -57 23 6 35 -19 27 -57 -7 -32 -7 -182 -1
-284 3 -43 3 -83 -1 -89 -3 -6 -7 -82 -7 -171 l-1 -161 -94 -3 c-65 -2 -98 1
-109 10 -12 10 -16 10 -19 1 -4 -10 -39 -13 -133 -13 -104 0 -129 3 -134 15
-8 21 -29 19 -22 -3 5 -16 -1 -17 -61 -15 -36 2 -73 8 -80 15 -10 8 -17 8 -25
0 -7 -7 -38 -12 -70 -12 -47 0 -59 4 -68 20 -12 22 -35 17 -26 -6 3 -8 1 -14
-5 -14 -6 0 -13 9 -16 20 -6 23 -23 27 -23 5 0 -8 -4 -15 -10 -15 -5 0 -10 7
-10 15 0 8 -4 15 -10 15 -5 0 -10 -9 -10 -20 0 -15 -6 -19 -27 -18 -16 1 -35
8 -45 15 -12 11 -18 11 -23 3 -6 -9 -10 -9 -15 1 -7 10 -11 10 -25 -1 -23 -19
-291 -23 -310 -4 -17 17 -25 18 -25 1 0 -10 -30 -13 -125 -15 -82 -1 -125 2
-125 9 0 6 -5 7 -13 2 -15 -9 -77 -14 -180 -12 -51 0 -84 -4 -94 -13 -13 -10
-17 -10 -20 -1 -4 10 -23 11 -74 7 l-69 -7 0 40 0 41 63 -14 c34 -7 75 -18 91
-24 25 -9 34 -7 65 13 20 13 48 31 64 41 l27 17 -24 42 c-14 23 -39 84 -56
136 -27 80 -30 97 -19 117 9 19 9 26 0 38 -11 13 -8 27 11 76 14 38 28 58 35
55 7 -2 13 0 13 4 0 5 -6 11 -12 13 -9 3 -3 25 20 70 38 78 39 84 10 99 -26
14 -181 18 -248 6 l-45 -8 3 45 c5 55 31 72 114 69 32 -1 58 3 58 8 0 15 -108
10 -139 -6 -29 -14 -29 -14 -32 18 -8 70 11 98 42 61 11 -13 26 -15 71 -11 31
3 75 1 96 -4 21 -4 64 -9 95 -10 51 -2 54 -3 44 -21 -10 -15 -20 -17 -52 -13
-22 3 -56 1 -75 -4 -28 -6 -16 -8 59 -9 57 -1 113 4 140 13 25 7 75 23 111 34
36 12 78 21 93 21 29 0 65 19 107 57 14 13 28 23 32 23 5 0 8 11 8 24 0 14 8
31 18 38 10 7 23 29 28 48 6 23 19 40 38 48 15 8 25 16 23 19 -3 2 -24 -6 -46
-19 -32 -18 -41 -29 -41 -50 0 -18 -8 -33 -25 -44 -14 -9 -25 -24 -25 -33 0
-27 -11 -32 -36 -16 -19 12 -24 12 -34 0 -11 -13 -15 -12 -29 8 -10 12 -21 30
-24 40 -11 28 -39 16 -52 -23 l-12 -34 -6 32 c-4 18 -13 32 -21 32 -7 0 -16 9
-19 20 -3 11 -11 20 -17 20 -9 0 -10 -3 -1 -13 6 -8 8 -17 4 -20 -3 -4 -1 -7
6 -7 7 0 9 -4 6 -10 -3 -6 1 -7 9 -4 11 4 16 0 16 -15 0 -22 -43 -57 -59 -47
-5 3 -21 2 -36 -4 -26 -10 -27 -9 -22 17 l6 28 -14 -30 -14 -30 1 33 c1 17 5
32 8 32 3 0 6 9 7 20 3 31 -22 2 -29 -35 -9 -44 7 -65 47 -65 25 0 35 -5 35
-15 0 -12 -4 -13 -18 -4 -24 15 -72 4 -72 -16 0 -20 -90 -20 -156 0 -27 8 -71
15 -98 15 -32 0 -56 6 -68 16 -14 14 -20 14 -33 4 -13 -11 -15 14 -15 226 0
132 -2 489 -4 794 -6 577 -8 1115 -7 1498 l1 223 190 -2 190 -2 0 -53 c0 -33
5 -58 15 -67 11 -11 12 -22 5 -48 -15 -52 -12 -77 13 -101 24 -25 38 -46 61
-95 11 -24 22 -33 39 -33 28 0 62 33 54 54 -3 8 2 21 12 30 16 15 19 15 31 1
27 -33 61 -4 74 63 8 43 34 72 47 51 5 -8 9 -17 9 -22 0 -4 12 -12 27 -18 21
-8 28 -7 35 6 5 8 15 15 22 15 14 0 40 49 31 58 -3 3 2 14 12 24 9 10 19 35
22 56 5 28 11 38 29 40 12 2 28 12 35 22 13 18 85 31 132 24 11 -2 28 -4 38
-4z m730 -22 c-11 -89 -22 -99 -49 -43 -19 42 -29 49 -52 40 -16 -6 -16 -7 0
-19 23 -17 48 -77 48 -117 0 -27 -2 -30 -15 -19 -8 7 -15 19 -15 26 0 18 -29
18 -36 1 -3 -8 0 -26 5 -40 7 -18 7 -36 1 -53 -15 -39 -35 -24 -33 25 1 30 -2
41 -13 41 -17 0 -19 31 -3 47 15 15 3 34 -16 26 -25 -9 -18 32 12 67 33 40 54
49 119 49 l51 1 -4 -32z m87 28 c0 -2 -11 -28 -25 -58 -14 -29 -25 -62 -25
-72 0 -27 29 -56 57 -56 16 0 23 -6 23 -19 0 -11 4 -22 10 -26 6 -4 6 -15 0
-31 -13 -34 -13 -81 1 -106 9 -16 7 -29 -7 -59 -21 -43 -26 -46 -48 -23 -11
10 -16 34 -16 73 0 32 -3 60 -6 64 -12 12 -34 -6 -34 -29 0 -38 -18 -28 -30
17 -12 44 -9 56 12 43 14 -9 79 -14 91 -7 4 3 3 11 -3 18 -6 8 -10 22 -8 31 2
11 -4 20 -14 22 -14 3 -18 -3 -18 -23 0 -39 -22 -26 -39 22 -13 37 -13 46 8
111 13 40 21 81 18 92 -4 17 0 20 24 20 16 0 29 -2 29 -4z m119 -25 c25 -21
33 -35 32 -57 0 -16 -1 -65 -1 -109 0 -44 -5 -97 -11 -118 -8 -29 -6 -52 6
-98 19 -75 19 -128 0 -153 -10 -13 -12 -32 -8 -63 6 -43 5 -45 -18 -41 -22 3
-24 7 -23 54 1 28 9 62 18 76 13 21 14 27 3 36 -14 12 -47 -2 -34 -14 4 -4 2
-13 -4 -21 -15 -18 -39 1 -39 31 0 25 37 108 52 117 6 4 3 14 -11 28 -24 24
-27 65 -6 101 19 33 19 54 1 47 -20 -8 -30 27 -15 51 7 11 9 27 6 36 -10 25
-36 19 -47 -10 -6 -14 -16 -24 -23 -21 -18 6 -12 60 14 111 27 56 56 60 108
17z m45 14 c-4 -8 -7 -15 -9 -15 -2 0 -5 7 -9 15 -3 9 0 15 9 15 9 0 12 -6 9
-15z m-1667 -29 c-4 -23 -1 -39 8 -46 8 -6 17 -25 20 -41 8 -37 40 -56 63 -37
14 11 15 11 8 -7 -18 -44 -18 -56 -1 -75 11 -13 25 -18 37 -14 27 8 22 -15 -6
-26 -20 -7 -25 -17 -28 -52 -2 -30 -7 -43 -18 -43 -12 0 -15 15 -15 77 0 83
-12 111 -39 89 -8 -7 -12 -19 -9 -27 3 -9 -1 -14 -11 -14 -9 0 -19 6 -21 13
-5 10 4 69 16 117 3 9 -4 14 -16 15 -27 0 -34 65 -10 89 24 24 28 20 22 -18z
m40 -9 c-11 -29 -12 -30 -15 -9 -4 30 5 55 17 47 6 -3 5 -18 -2 -38z m143 23
c6 -11 8 -31 4 -45 -5 -20 -1 -27 17 -35 41 -16 74 -49 62 -61 -8 -8 -13 -5
-18 10 -7 24 -27 27 -44 7 -9 -10 -8 -15 4 -20 18 -6 21 -86 4 -117 -15 -28
-27 -15 -23 26 2 27 -3 39 -19 50 -20 14 -23 14 -33 0 -19 -26 -28 13 -9 41
27 42 -8 79 -41 43 -24 -27 -33 -8 -23 48 12 60 24 73 70 73 28 0 41 -5 49
-20z m40 10 c0 -5 -2 -10 -4 -10 -3 0 -8 5 -11 10 -3 6 -1 10 4 10 6 0 11 -4
11 -10z m162 -7 c10 -9 18 -30 18 -50 0 -29 -3 -33 -26 -33 -25 0 -26 -2 -20
-39 3 -22 1 -52 -4 -67 -10 -26 -12 -26 -28 -11 -15 16 -19 51 -10 112 2 12
-4 21 -14 23 -12 2 -18 -3 -18 -13 0 -10 -7 -15 -17 -13 -26 5 -28 49 -3 81
17 21 30 27 62 27 25 0 49 -7 60 -17z m65 -5 c-3 -8 -6 -5 -6 6 -1 11 2 17 5
13 3 -3 4 -12 1 -19z m48 12 c3 -5 -1 -10 -10 -10 -9 0 -13 5 -10 10 3 6 8 10
10 10 2 0 7 -4 10 -10z m291 -18 c6 -13 17 -29 23 -35 6 -6 11 -20 11 -32 0
-17 -6 -21 -35 -22 -34 -1 -46 9 -25 22 17 11 11 23 -15 29 -20 5 -25 13 -25
37 0 27 3 30 27 27 17 -2 32 -12 39 -26z m124 18 c0 -5 -4 -10 -10 -10 -5 0
-10 5 -10 10 0 6 5 10 10 10 6 0 10 -4 10 -10z m166 -12 c-9 -12 -16 -30 -16
-38 0 -29 -25 -70 -40 -68 -9 2 -16 17 -18 41 -4 46 -24 49 -37 5 -14 -46 -39
-43 -43 4 -6 67 8 78 94 78 l75 0 -15 -22z m150 -18 c-20 -22 -36 -49 -36 -61
0 -11 -5 -29 -11 -40 -8 -16 -13 -18 -25 -8 -16 13 -18 42 -5 68 5 9 6 23 1
30 -11 18 -41 6 -47 -19 -6 -22 -23 -28 -23 -7 0 6 9 27 20 45 19 31 21 32 91
32 l71 0 -36 -40z m-800 -66 c-4 -19 -11 -32 -17 -29 -16 10 -30 -5 -20 -23 4
-9 6 -23 4 -29 -9 -25 -18 -12 -19 26 -2 31 2 40 17 44 12 3 22 18 26 38 3 19
8 28 11 21 2 -7 1 -29 -2 -48z m471 6 c12 -47 6 -90 -13 -90 -14 0 -35 63 -28
86 2 8 6 21 9 29 8 26 21 16 32 -25z m-294 4 c3 -3 1 -14 -6 -24 -10 -17 -12
-17 -24 -2 -7 9 -13 20 -13 25 0 8 34 10 43 1z m-50 -40 c17 -35 17 -35 -5
-32 -18 2 -24 11 -26 36 -4 42 10 41 31 -4z m577 32 c0 -3 -4 -8 -10 -11 -5
-3 -10 -1 -10 4 0 6 5 11 10 11 6 0 10 -2 10 -4z m-31 -31 c-1 -6 -19 -38 -41
-71 -42 -67 -82 -90 -104 -60 -14 19 -10 114 5 129 17 17 24 1 11 -23 -6 -12
-9 -33 -6 -46 13 -51 86 -15 86 42 0 39 10 53 32 45 11 -4 19 -11 17 -16z
m121 -16 c-6 -11 -9 -32 -6 -47 8 -37 -6 -59 -24 -37 -21 25 3 105 32 105 5 0
4 -9 -2 -21z m-201 -8 c17 -11 5 -51 -15 -51 -9 0 -14 11 -14 30 0 31 6 36 29
21z m111 -11 c0 -14 0 -17 10 -50 5 -17 5 -32 -1 -35 -5 -4 -9 3 -9 14 0 12
-7 21 -15 21 -11 0 -14 -7 -9 -25 5 -21 3 -24 -11 -18 -15 5 -17 2 -13 -21 4
-18 1 -29 -8 -33 -8 -3 -14 -19 -14 -39 0 -33 -12 -45 -26 -23 -4 8 -9 8 -17
0 -7 -7 -5 -16 7 -30 10 -11 18 -35 19 -54 1 -35 -25 -87 -43 -87 -11 0 -54
79 -47 86 2 3 16 0 31 -6 51 -19 66 -4 20 20 -14 8 -32 26 -40 41 -12 24 -12
28 3 33 12 5 14 9 5 18 -14 14 -16 32 -2 23 9 -6 100 83 100 99 0 5 9 24 21
42 20 33 39 44 39 24z m56 -125 c-6 -29 -4 -34 9 -29 14 6 14 2 -1 -30 -16
-33 -16 -37 -1 -54 9 -10 17 -31 17 -46 0 -14 7 -29 15 -32 10 -4 12 -15 8
-35 -3 -16 0 -35 6 -43 9 -11 8 -15 -5 -20 -31 -12 -44 -6 -44 18 0 14 5 28
10 31 6 3 10 15 10 26 0 16 -4 19 -21 14 -19 -6 -20 -4 -13 40 5 38 4 47 -7
43 -8 -2 -20 -17 -28 -33 -13 -27 -14 -27 -27 -10 -20 27 -18 37 17 85 21 29
27 45 19 50 -15 9 8 60 28 60 11 0 13 -8 8 -35z m-366 -2 c0 -5 -5 -15 -10
-23 -8 -12 -10 -11 -10 8 0 12 5 22 10 22 6 0 10 -3 10 -7z m124 1 c23 -9 20
-26 -4 -19 -24 8 -25 2 -4 -33 13 -21 10 -19 -15 8 -17 19 -31 38 -31 43 0 9
32 9 54 1z m723 -36 c-3 -8 -6 -5 -6 6 -1 11 2 17 5 13 3 -3 4 -12 1 -19z
m-767 -62 c0 -5 -7 -3 -15 4 -8 7 -15 20 -15 28 0 13 3 12 15 -4 8 -10 15 -23
15 -28z m-110 0 c0 -3 -4 -8 -10 -11 -5 -3 -10 -1 -10 4 0 6 5 11 10 11 6 0
10 -2 10 -4z m75 -68 c-3 -36 -1 -48 9 -48 9 0 12 -9 8 -25 -2 -14 -9 -25 -14
-25 -5 0 -6 -15 -2 -35 5 -29 4 -34 -9 -29 -9 3 -18 13 -20 22 -3 13 -7 10
-15 -10 -6 -16 -16 -28 -22 -28 -5 0 -10 -6 -10 -14 0 -8 8 -13 18 -12 11 1
16 -5 14 -16 -4 -24 50 -17 58 8 6 17 8 17 18 -3 16 -28 15 -33 -3 -33 -13 0
-14 -14 -9 -87 7 -108 7 -106 19 -115 6 -4 10 -36 10 -70 1 -74 10 -105 30
-105 19 0 19 18 0 43 -8 10 -15 34 -15 53 0 32 3 30 35 -37 22 -44 42 -72 52
-72 13 0 13 -3 3 -15 -8 -10 -9 -19 -2 -27 11 -15 22 -78 13 -78 -8 0 -41 81
-41 100 0 16 -36 25 -44 11 -3 -5 8 -29 24 -55 31 -49 42 -77 14 -38 -17 25
-34 29 -34 8 0 -8 13 -20 29 -27 34 -15 60 -59 35 -59 -12 0 -13 -4 -4 -20 8
-14 8 -20 0 -20 -6 0 -5 -12 5 -30 18 -34 18 -40 5 -40 -5 0 -10 6 -10 14 0
18 -46 73 -54 65 -9 -8 44 -100 68 -120 18 -15 19 -19 6 -34 -10 -12 -11 -21
-3 -34 17 -27 4 -65 -28 -83 -16 -10 -29 -23 -29 -31 0 -8 -7 -20 -15 -27 -29
-24 -7 -189 27 -198 33 -8 15 -35 -42 -64 -30 -15 -59 -27 -65 -27 -24 3 -36
-3 -59 -27 l-24 -26 -7 23 c-13 41 -10 422 3 427 7 2 12 8 12 14 0 6 -7 8 -15
4 -10 -3 -15 1 -15 13 0 12 12 24 33 32 l32 12 -35 7 c-22 5 -27 8 -13 9 30 2
40 21 13 28 -17 4 -19 8 -8 15 10 7 10 11 1 15 -21 8 -16 63 5 63 16 1 16 1 0
14 -15 11 -18 30 -18 130 0 104 2 116 18 116 16 1 16 2 -1 14 -12 9 -14 16 -7
21 6 3 10 12 9 18 -4 36 3 55 24 61 l22 7 -25 11 -25 10 30 12 c36 13 44 61
10 61 -42 1 -64 15 -65 43 -5 121 -3 174 7 180 5 4 13 17 17 30 6 16 3 22 -8
22 -22 0 -20 20 2 20 15 1 15 2 1 13 -14 11 -14 14 3 31 18 19 18 19 18 -2 0
-11 5 -24 11 -28 7 -4 10 -1 7 7 -3 8 -1 22 4 32 6 12 5 23 -3 33 -8 10 -8 14
0 14 6 0 11 5 11 10 0 6 -10 10 -22 10 -21 0 -21 2 7 20 37 24 46 12 40 -52z
m590 52 c3 -5 1 -10 -4 -10 -6 0 -11 5 -11 10 0 6 2 10 4 10 3 0 8 -4 11 -10z
m15 -45 c0 -8 -2 -15 -4 -15 -2 0 -6 7 -10 15 -3 8 -1 15 4 15 6 0 10 -7 10
-15z m-670 -5 c0 -5 -5 -10 -11 -10 -5 0 -7 5 -4 10 3 6 8 10 11 10 2 0 4 -4
4 -10z m115 -10 c-4 -6 9 -29 29 -51 23 -27 32 -47 28 -57 -5 -15 -7 -14 -10
3 -3 11 -17 35 -33 53 -29 33 -38 62 -18 62 5 0 7 -5 4 -10z m258 -50 c20 0
18 -3 -14 -33 -20 -18 -39 -40 -42 -48 -5 -12 -7 -12 -16 1 -16 22 -13 41 10
79 18 30 22 33 31 18 5 -9 19 -17 31 -17z m-157 -113 c-3 -39 -1 -67 7 -76 7
-8 -3 -5 -21 8 -44 31 -64 22 -59 -26 3 -21 11 -50 18 -66 9 -21 10 -30 1 -39
-9 -9 -16 -2 -28 28 -16 36 -18 58 -13 109 2 11 -1 31 -5 45 -7 20 -6 23 5 13
9 -9 16 -10 26 -2 10 9 13 8 13 -4 0 -19 16 -31 31 -22 7 5 4 14 -8 27 -17 19
-17 20 0 29 10 6 15 14 12 20 -8 12 4 31 16 24 5 -4 7 -34 5 -68z m175 9 c11
-24 -2 -66 -20 -66 -12 0 -23 48 -16 71 9 26 23 24 36 -5z m-172 -143 c14 -31
14 -33 -7 -33 -19 0 -42 37 -42 66 0 21 35 -3 49 -33z m-1 -101 c-13 -16 -38
2 -38 28 0 28 11 31 30 7 13 -16 15 -26 8 -35z m-88 17 c0 -18 -2 -19 -15 -9
-8 7 -15 16 -15 21 0 5 7 9 15 9 9 0 15 -9 15 -21z m-100 -29 c0 -5 -4 -10
-10 -10 -5 0 -10 5 -10 10 0 6 5 10 10 10 6 0 10 -4 10 -10z m183 -14 c10 -3
17 -15 17 -31 0 -32 -3 -32 -39 8 -34 36 -40 52 -13 38 9 -5 25 -12 35 -15z
m5 -96 c7 0 12 -9 12 -20 0 -11 -7 -20 -15 -20 -8 0 -15 4 -15 9 0 5 -6 16
-12 23 -7 8 -21 29 -31 48 l-18 35 34 -37 c18 -21 38 -38 45 -38z m-45 -937
c-3 -24 -2 -25 7 -8 8 17 9 16 7 -10 -1 -22 3 -32 20 -40 12 -5 23 -19 25 -30
2 -11 8 -20 15 -20 22 0 25 -14 9 -36 l-16 -23 -50 54 c-27 30 -50 58 -50 62
0 12 28 78 33 78 2 0 3 -12 0 -27z m266 -35 c-19 -35 -101 -118 -132 -135 -16
-8 -36 -12 -44 -9 -12 5 -9 13 16 38 24 24 30 39 26 56 -4 16 0 24 12 28 42
12 102 47 108 63 6 15 7 15 16 -1 7 -12 6 -25 -2 -40z m-322 0 c-6 -20 49
-112 62 -104 5 3 15 -2 22 -12 13 -16 12 -16 -6 -2 -20 15 -20 14 -1 -8 20
-23 42 -31 30 -9 -5 8 -2 8 9 -2 19 -15 23 -26 6 -15 -7 4 -10 -1 -7 -11 1
-10 9 -20 17 -23 9 -3 11 0 6 8 -5 9 -4 11 3 6 7 -4 12 -22 13 -39 0 -27 2
-29 9 -12 6 14 9 15 10 5 1 -10 4 -9 10 5 4 11 6 29 3 41 -3 15 6 27 37 49 23
16 61 51 86 78 45 50 52 53 34 14 -9 -20 -9 -20 2 -4 7 10 19 26 26 35 13 16
13 16 8 0 -3 -10 -3 -18 1 -18 3 0 12 8 19 18 13 16 13 16 14 -3 0 -14 3 -16
12 -7 14 14 57 -14 88 -58 l21 -30 -40 -40 c-23 -23 -45 -39 -51 -35 -21 13
-67 -25 -88 -73 l-21 -49 -66 -7 c-76 -8 -105 -22 -105 -51 0 -25 -22 -75 -32
-75 -13 0 -9 35 8 58 10 15 11 22 3 22 -15 0 -38 -30 -39 -49 0 -22 -40 -101
-51 -101 -14 0 -11 28 4 33 7 3 5 6 -5 6 -10 1 -24 -12 -33 -29 -19 -37 -28
-39 -19 -4 5 19 4 25 -5 20 -6 -4 -11 -16 -11 -27 0 -10 -7 -19 -15 -19 -9 0
-12 6 -9 18 4 13 2 12 -7 -3 -6 -11 -13 -22 -15 -23 -5 -6 -44 9 -44 17 0 4
23 18 50 31 37 17 50 29 49 44 0 12 -3 16 -5 9 -3 -7 -12 -9 -21 -6 -12 5 -14
3 -8 -7 6 -10 4 -12 -8 -7 -11 4 -14 2 -10 -9 6 -16 -12 -20 -22 -4 -3 6 -13
10 -21 10 -8 0 -14 -4 -14 -10 0 -5 7 -10 17 -10 24 0 7 -13 -22 -16 -13 -1
-34 5 -47 15 -18 16 -22 28 -21 82 1 78 36 179 61 179 9 0 23 -4 30 -9 10 -6
8 -10 -8 -14 -33 -9 -15 -25 35 -33 29 -4 45 -11 45 -20 0 -8 -4 -14 -10 -14
-5 0 -10 5 -10 10 0 6 -13 10 -29 10 -17 0 -33 -4 -36 -10 -4 -6 7 -10 26 -10
25 0 29 -3 20 -13 -17 -21 0 -29 21 -10 22 19 36 10 18 -12 -10 -12 -10 -15 2
-15 8 0 20 10 27 23 23 44 -23 110 -91 132 -28 8 -35 13 -20 14 29 1 28 15 -3
29 -25 12 -32 36 -16 61 5 7 13 11 19 7 6 -3 13 -2 17 4 3 5 -1 10 -9 10 -20
0 -20 9 0 40 26 38 44 49 76 47 22 -2 28 -6 25 -19z m130 -60 c-3 -8 -6 -5 -6
6 -1 11 2 17 5 13 3 -3 4 -12 1 -19z m368 -228 c9 -10 14 -29 11 -51 -2 -19
-4 -39 -5 -46 0 -7 -15 -28 -32 -48 -17 -19 -27 -35 -22 -35 16 0 61 53 77 90
13 30 15 32 22 16 5 -12 1 -30 -9 -48 -9 -17 -17 -36 -17 -44 0 -10 -8 -14
-21 -12 -17 2 -23 -3 -25 -22 -3 -19 -2 -21 5 -10 20 30 24 -2 6 -37 -23 -43
-57 -62 -79 -44 -12 10 -13 17 -3 31 12 20 1 43 -11 24 -4 -6 -23 -15 -42 -20
-19 -6 -34 -16 -33 -22 5 -19 -59 -14 -94 8 -18 10 -40 31 -49 45 -15 23 -15
28 -2 41 12 12 20 13 41 3 15 -7 24 -17 20 -22 -4 -6 0 -8 10 -4 10 3 17 3 17
-2 0 -5 14 -11 30 -13 24 -4 30 -1 28 11 -2 9 -7 15 -11 13 -7 -2 -77 65 -77
74 0 3 8 0 18 -5 36 -19 108 -23 138 -7 l29 15 -37 -6 c-31 -5 -38 -3 -38 11
0 9 3 16 8 16 4 0 20 12 37 27 19 18 27 21 22 10 -4 -12 2 -21 23 -32 18 -9
31 -11 35 -5 3 6 -6 15 -21 20 -19 8 -24 14 -17 21 8 8 17 8 31 0 14 -7 23 -8
27 -1 6 10 -31 29 -63 32 -9 0 3 4 28 8 l45 7 -33 8 c-43 10 -50 24 -12 23 16
-1 36 -9 45 -18z m60 1 c3 -5 1 -12 -5 -16 -5 -3 -10 1 -10 9 0 18 6 21 15 7z
m-240 -38 c31 -5 35 -8 20 -14 -17 -6 -15 -8 10 -8 20 -1 26 -4 18 -12 -13
-13 -154 -18 -170 -6 -44 33 25 56 122 40z m-152 -128 c-10 -7 -22 -10 -28 -7
-6 4 -3 8 6 10 10 2 20 13 24 25 6 20 8 20 12 4 3 -11 -3 -24 -14 -32z m-8
-71 c15 -25 37 -50 51 -56 13 -6 24 -14 24 -18 0 -4 25 -5 55 -2 33 3 55 1 55
-6 0 -5 16 -13 35 -16 20 -4 33 -11 30 -16 -3 -4 11 -14 31 -20 24 -8 32 -15
24 -20 -18 -11 6 -23 31 -15 14 5 25 2 30 -6 16 -25 9 -34 -27 -36 -37 -2 -36
10 1 21 11 3 -2 3 -30 1 -27 -3 -54 -10 -59 -15 -7 -7 -6 -10 1 -10 6 0 9 -9
6 -20 -7 -26 -23 -26 -23 0 0 12 -7 20 -17 20 -14 0 -14 2 3 21 l19 22 -32
-17 c-38 -19 -44 -7 -10 18 22 17 17 17 -30 0 -12 -4 -10 -1 5 10 29 23 18 39
-21 31 l-32 -6 25 16 25 16 -28 -6 c-19 -4 -29 -1 -33 10 -3 8 -10 12 -15 9
-5 -3 -6 -10 -3 -16 4 -6 -2 -18 -12 -26 -18 -14 -18 -14 4 -9 12 3 22 1 22
-4 0 -5 -13 -12 -28 -15 -19 -4 -28 -12 -28 -25 0 -10 5 -19 11 -19 17 1 61
29 46 30 -8 0 -12 2 -9 5 3 3 18 -1 34 -9 l28 -15 -38 -16 c-21 -9 -36 -18
-33 -21 3 -3 19 2 36 11 17 8 31 11 31 6 0 -6 -26 -18 -57 -28 -40 -12 -51
-18 -36 -21 12 -2 43 6 69 17 53 24 94 29 54 6 -22 -11 -136 -45 -154 -45 -3
0 -6 8 -6 18 -1 18 -23 52 -35 52 -4 0 -4 -11 -1 -24 l6 -24 -40 19 c-46 22
-79 74 -59 93 9 8 10 8 4 -3 -6 -10 -4 -12 5 -6 9 5 11 4 6 -3 -4 -7 -2 -20 3
-29 6 -11 11 -13 11 -5 0 7 5 10 10 7 6 -4 8 -11 5 -16 -3 -5 1 -6 9 -3 12 5
12 8 -2 24 -9 10 -23 26 -31 35 -8 10 -22 15 -34 11 -12 -3 -27 0 -34 6 -19
15 -16 2 6 -30 10 -15 25 -39 34 -54 10 -16 37 -34 69 -47 38 -14 46 -20 28
-20 -44 -1 -133 60 -145 101 -8 22 -92 88 -114 88 -10 0 3 -17 32 -41 45 -39
84 -95 73 -106 -8 -8 -26 7 -26 23 0 8 -4 13 -9 9 -5 -3 -13 0 -17 6 -4 8 -3
9 4 5 21 -13 13 10 -10 31 -33 29 -67 45 -80 37 -7 -4 -8 -3 -4 4 5 8 -2 12
-18 12 -14 0 -26 5 -26 11 0 7 -14 10 -36 7 -35 -4 -35 -4 -13 13 30 22 102
32 135 17 17 -8 28 -9 32 -1 4 5 25 9 47 8 48 -2 76 10 69 29 -3 8 2 17 13 20
10 3 26 19 35 36 22 38 39 32 73 -26z m225 -48 c0 -3 -4 -8 -10 -11 -5 -3 -10
-1 -10 4 0 6 5 11 10 11 6 0 10 -2 10 -4z m-534 -101 c58 -39 73 -44 53 -17
-11 14 -9 13 9 -2 12 -11 20 -21 18 -23 -2 -3 0 -18 4 -34 5 -16 7 -29 4 -29
-11 0 -53 29 -97 68 -27 23 -53 42 -58 42 -5 0 -9 7 -9 15 0 23 18 18 76 -20z
m-566 -65 c0 -14 -24 -12 -38 2 -7 7 -12 22 -12 35 l0 22 25 -25 c14 -14 25
-29 25 -34z m361 17 c-8 -8 -11 -7 -11 4 0 20 13 34 18 19 3 -7 -1 -17 -7 -23z
m953 -16 c10 -10 13 -21 9 -24 -12 -8 -28 4 -36 26 -8 23 6 22 27 -2z m-1249
-1 c3 -5 1 -10 -4 -10 -6 0 -11 5 -11 10 0 6 2 10 4 10 3 0 8 -4 11 -10z
m-145 -10 c0 -5 -7 -10 -16 -10 -8 0 -12 5 -9 10 3 6 10 10 16 10 5 0 9 -4 9
-10z m641 -17 c13 -16 12 -17 -3 -4 -10 7 -18 15 -18 17 0 8 8 3 21 -13z m724
-8 c21 -20 25 -34 25 -83 0 -93 0 -93 -210 -114 -8 0 -23 2 -33 7 -10 4 -33 5
-52 2 -23 -4 -35 -1 -39 9 -3 7 -12 11 -20 8 -19 -7 -52 11 -103 57 l-43 39
34 0 c18 0 69 9 112 20 94 24 142 25 170 5 20 -14 34 -11 34 7 0 4 -7 8 -15 8
-20 0 -19 13 3 32 41 36 103 38 137 3z m-1348 -7 c-3 -8 -6 -5 -6 6 -1 11 2
17 5 13 3 -3 4 -12 1 -19z m-70 -20 c-3 -8 -6 -5 -6 6 -1 11 2 17 5 13 3 -3 4
-12 1 -19z m-59 -15 c2 -8 -5 -13 -17 -13 -23 0 -37 -16 -19 -22 8 -3 4 -9
-10 -17 -13 -7 -27 -9 -30 -5 -4 4 -1 9 6 11 6 3 12 15 12 27 0 13 3 26 7 30
11 10 46 3 51 -11z m142 13 c0 -3 -4 -8 -10 -11 -5 -3 -10 -1 -10 4 0 6 5 11
10 11 6 0 10 -2 10 -4z m495 -123 c0 -6 3 -15 8 -19 15 -15 6 -26 -10 -13 -15
12 -16 12 -10 -3 5 -15 1 -18 -29 -18 l-35 0 16 29 c15 29 31 41 50 37 6 -2
10 -8 10 -13z m125 -82 c3 -1 -2 -6 -10 -11 -29 -19 -110 -10 -110 12 0 7 84
7 120 -1z m-936 -7 c9 -3 16 -12 16 -19 0 -18 -23 -25 -84 -25 -32 0 -59 6
-72 16 -18 14 -14 15 53 10 60 -4 71 -2 66 10 -6 16 -2 17 21 8z m1413 -27
c-16 -5 -31 -6 -35 -2 -11 10 19 23 41 17 20 -5 19 -6 -6 -15z m-565 -12 c71
0 79 -16 9 -18 -22 -1 -41 -6 -41 -10 0 -5 18 -7 40 -5 55 4 55 -16 0 -23
l-45 -6 43 -1 c45 -2 51 -22 6 -22 -13 0 -24 -4 -24 -10 0 -5 9 -10 20 -10 28
0 25 -20 -2 -21 l-23 0 22 -9 c20 -8 21 -12 10 -45 -6 -21 -17 -39 -24 -42 -7
-3 -13 -16 -13 -29 0 -13 -5 -24 -11 -24 -7 0 -9 11 -5 30 3 17 1 31 -4 31 -6
1 -15 2 -22 3 -10 1 -58 110 -86 195 l-11 33 47 -8 c26 -5 77 -9 114 -9z
m-1010 -31 c35 -4 77 -1 108 6 28 7 53 10 56 7 3 -2 -4 -24 -15 -48 -11 -24
-31 -73 -46 -109 l-26 -65 -44 -3 c-25 -1 -45 2 -45 8 0 5 6 10 14 10 7 0 16
9 19 19 4 15 -2 20 -29 26 -19 3 -34 10 -34 16 0 5 11 7 24 3 13 -3 27 -1 30
5 5 7 -2 11 -18 11 -13 0 -33 3 -43 7 -14 6 -8 9 22 14 l40 6 -43 8 c-52 9
-71 31 -21 23 19 -3 43 -2 54 3 16 6 13 8 -15 8 -19 1 -42 6 -50 12 -11 7 -2
8 31 3 27 -3 49 -2 53 4 3 5 -20 12 -54 16 -33 4 -60 12 -60 17 0 6 8 8 18 5
9 -3 43 -8 74 -12z m-57 -234 c-17 -19 -17 -21 -2 -38 21 -23 21 -49 2 -131
-10 -42 -12 -68 -6 -74 6 -6 12 0 17 17 5 21 11 26 25 23 24 -6 24 2 2 19 -17
12 -16 13 7 14 23 1 24 2 8 14 -24 17 -23 25 2 19 13 -3 21 -16 24 -37 3 -17
10 -60 15 -95 11 -69 33 -103 52 -84 7 7 6 15 -5 25 -15 15 -12 28 6 28 5 0 6
-4 3 -10 -3 -5 1 -10 9 -10 9 0 14 8 13 21 -1 15 -6 19 -22 15 -20 -5 -21 1
-32 101 -7 66 -16 109 -24 114 -20 12 -7 18 17 9 15 -6 24 -21 29 -46 4 -21
21 -78 39 -125 l33 -88 -23 -5 c-13 -4 -24 -11 -24 -16 0 -13 17 -13 25 0 3 5
14 10 23 10 10 0 -3 -13 -29 -31 l-47 -30 -73 15 c-40 9 -77 21 -83 27 -8 8
-6 10 9 6 51 -14 117 -18 110 -8 -3 6 -14 11 -23 11 -9 0 -34 5 -54 11 -34 9
-38 14 -38 41 0 30 -1 31 -14 13 -12 -17 -14 3 -14 155 0 120 4 177 12 182 8
6 8 8 -1 8 -8 0 -13 14 -12 38 l0 37 31 -63 c30 -60 30 -63 13 -82z m58 63
c-7 -2 -19 -2 -25 0 -7 3 -2 5 12 5 14 0 19 -2 13 -5z m1034 -38 c8 -22 -6
-33 -17 -15 -13 20 -12 30 0 30 6 0 13 -7 17 -15z m-1037 -19 c0 -3 -4 -8 -10
-11 -5 -3 -10 -1 -10 4 0 6 5 11 10 11 6 0 10 -2 10 -4z m84 -23 c3 -8 4 -19
0 -24 -10 -17 -22 -9 -26 20 -4 31 15 34 26 4z m-84 -28 c7 -9 8 -15 2 -15 -5
0 -12 7 -16 15 -3 8 -4 15 -2 15 2 0 9 -7 16 -15z m17 -41 c-3 -3 -12 -4 -19
-1 -8 3 -5 6 6 6 11 1 17 -2 13 -5z m1017 -46 c8 -6 6 -11 -4 -18 -20 -13 -31
0 -23 30 4 16 8 20 11 10 3 -8 10 -18 16 -22z m-1027 16 c-3 -3 -12 -4 -19 -1
-8 3 -5 6 6 6 11 1 17 -2 13 -5z m1023 -64 c-20 -13 -33 -13 -25 0 3 6 14 10
23 10 15 0 15 -2 2 -10z m30 -30 c0 -11 -48 -25 -56 -17 -4 3 -3 10 1 16 8 14
55 14 55 1z m10 -45 c0 -8 -6 -15 -14 -15 -8 0 -18 -5 -22 -11 -5 -9 1 -10 20
-5 32 8 34 -1 4 -14 -20 -9 -19 -10 10 -7 46 5 40 -12 -8 -19 -22 -4 -40 -11
-40 -15 0 -5 19 -6 43 -3 28 4 39 3 32 -3 -5 -6 -29 -13 -52 -17 l-43 -6 0 45
c0 25 5 45 10 45 6 0 10 5 10 11 0 5 -4 7 -10 4 -5 -3 -10 -2 -10 4 0 5 8 12
18 14 35 9 52 7 52 -8z m-132 -81 c31 -6 45 -24 19 -24 -13 0 -108 30 -116 36
-1 1 0 7 3 13 4 6 16 4 34 -5 15 -7 42 -17 60 -20z"/>
<path d="M385 2281 c-22 -10 -46 -25 -53 -34 -9 -11 -23 -14 -46 -10 -43 7
-94 -19 -102 -53 -4 -14 -2 -41 3 -59 9 -30 8 -35 -15 -52 -26 -20 -24 -43 4
-43 10 0 13 6 9 19 -4 12 0 21 11 25 23 9 25 5 16 -30 -6 -22 -15 -30 -35 -32
-36 -4 -97 -63 -97 -93 0 -33 35 -88 63 -98 12 -5 36 -6 54 -4 22 4 38 0 49
-12 11 -10 25 -14 41 -11 13 4 36 0 53 -9 44 -23 101 -19 144 10 20 14 42 25
49 25 7 0 22 7 34 15 18 13 22 13 33 0 7 -8 25 -15 41 -15 15 0 30 -4 33 -9 3
-4 33 -16 66 -25 43 -12 60 -22 60 -34 0 -31 -27 -119 -54 -178 l-27 -58 32
-45 c18 -25 33 -47 34 -49 2 -3 248 58 253 63 3 2 -12 23 -32 47 -51 59 -96
223 -72 260 7 12 6 25 -4 45 -8 15 -16 31 -18 36 -2 4 3 7 12 7 23 0 39 36 26
60 -11 21 -6 37 64 198 20 46 34 88 31 92 -9 14 -103 30 -179 30 -129 0 -161
-15 -138 -63 15 -33 60 -147 76 -194 9 -26 11 -45 5 -48 -5 -4 -9 -17 -9 -30
0 -23 -17 -35 -50 -35 -11 0 -35 16 -54 36 -30 31 -33 39 -23 55 6 10 16 19
20 19 12 0 -4 141 -19 172 -17 32 -43 48 -78 48 -16 0 -36 11 -53 30 -23 26
-76 50 -108 50 -5 0 -28 -9 -50 -19z m108 -13 c12 -6 32 -22 44 -35 12 -13 34
-23 48 -23 37 0 85 -50 85 -89 0 -36 -9 -39 -33 -11 -19 23 -69 26 -129 9 -42
-11 -52 -31 -46 -94 5 -59 24 -54 26 6 1 62 14 79 58 79 35 0 101 -30 116 -52
25 -40 -12 -95 -57 -84 -16 4 -25 13 -25 27 0 31 -34 20 -38 -13 -4 -34 25
-52 62 -39 18 7 28 6 36 -4 17 -21 4 -64 -23 -74 -19 -7 -23 -3 -34 27 -13 39
-28 52 -60 52 -12 0 -28 3 -37 6 -10 4 -16 1 -16 -9 0 -33 -43 -67 -93 -73
-41 -6 -51 -4 -68 15 -11 11 -24 21 -29 21 -15 0 -50 76 -50 107 0 50 11 70
51 92 34 19 39 27 39 57 0 48 14 70 58 93 42 23 84 26 115 9z m-205 -50 c5 -7
12 -28 14 -46 4 -30 1 -36 -35 -59 -21 -13 -40 -23 -42 -21 -12 15 -25 51 -25
72 0 48 62 86 88 54z m722 2 c0 -6 -12 -15 -26 -20 -33 -13 -161 -13 -169 0
-4 6 8 10 29 10 19 0 37 4 40 9 8 12 126 13 126 1z m-120 -60 c10 -11 33 -20
58 -22 l42 -3 -32 -65 c-24 -48 -33 -79 -33 -117 0 -56 -12 -77 -38 -68 -20 8
-30 36 -17 49 7 7 10 3 10 -12 0 -13 6 -22 15 -22 23 0 18 37 -6 43 -27 7 -49
-1 -49 -19 0 -8 -4 -14 -8 -14 -11 0 -13 38 -2 45 11 7 -13 91 -46 164 -13 29
-24 56 -24 60 0 3 26 4 57 2 40 -2 62 -9 73 -21z m-705 -170 c4 -6 11 -8 16
-5 5 4 9 2 9 -4 0 -6 14 -26 31 -46 38 -43 34 -78 -10 -93 -53 -19 -130 13
-131 54 0 23 30 83 47 93 23 13 30 13 38 1z m354 -74 c7 -8 11 -27 9 -43 -3
-29 -13 -32 -57 -18 -21 6 -23 5 -18 -16 8 -28 -16 -48 -60 -49 -37 0 -116 56
-121 85 -3 18 -2 19 8 3 24 -40 186 -10 203 37 8 19 21 19 36 1z m235 -38 c18
7 42 12 54 12 26 0 72 -20 72 -32 0 -5 -9 -4 -19 2 -38 20 -45 9 -8 -12 43
-25 45 -33 15 -50 -28 -15 -77 -12 -144 9 -67 21 -87 36 -80 61 6 18 10 19 42
9 26 -8 44 -8 68 1z m-494 -54 c0 -8 -4 -12 -10 -9 -5 3 -10 10 -10 16 0 5 5
9 10 9 6 0 10 -7 10 -16z m554 -153 c-6 -94 -8 -101 -28 -101 -20 -1 -19 -2 4
-15 22 -13 21 -20 -4 -16 -4 1 -17 -1 -28 -5 -19 -6 -19 -7 8 -35 15 -16 23
-29 17 -29 -7 0 -21 14 -33 30 l-22 31 20 42 c26 56 52 133 52 157 0 22 11 53
17 47 2 -3 1 -50 -3 -106z m63 86 c0 -7 3 -25 7 -40 4 -19 3 -27 -6 -27 -9 0
-10 -3 -2 -8 13 -9 54 -133 48 -144 -3 -4 -16 -8 -30 -8 -13 0 -24 -5 -24 -11
0 -5 -4 -8 -9 -4 -5 3 -13 0 -17 -6 -8 -13 55 -2 70 12 16 15 39 11 32 -6 -3
-9 0 -15 9 -15 8 0 15 -4 15 -10 0 -5 -9 -10 -20 -10 -10 0 -45 -7 -77 -15
-78 -20 -91 -20 -70 3 8 9 20 29 26 44 8 20 19 29 48 34 l38 7 -40 12 -40 12
35 11 35 12 -32 -5 -33 -4 0 59 c0 33 4 60 8 60 5 0 7 14 4 30 -3 22 0 30 10
30 8 0 15 -6 15 -13z m-10 -203 c-3 -3 -12 -4 -19 -1 -8 3 -5 6 6 6 11 1 17
-2 13 -5z m-77 -34 c8 -5 11 -12 7 -16 -4 -4 -15 0 -24 9 -18 18 -8 23 17 7z"/>
<path d="M938 2123 c6 -2 18 -2 25 0 6 3 1 5 -13 5 -14 0 -19 -2 -12 -5z"/>
<path d="M850 1829 c0 -5 -8 -9 -17 -9 -15 0 -16 -2 -3 -10 8 -5 24 -9 35 -9
l20 0 -20 10 c-17 8 -16 9 7 6 31 -5 29 8 -2 16 -11 3 -20 1 -20 -4z"/>
<path d="M905 1490 c-7 -12 2 -12 30 0 19 8 19 9 -2 9 -12 1 -25 -3 -28 -9z"/>
<path d="M1558 2013 c6 -2 18 -2 25 0 6 3 1 5 -13 5 -14 0 -19 -2 -12 -5z"/>
<path d="M1558 1983 c7 -3 16 -2 19 1 4 3 -2 6 -13 5 -11 0 -14 -3 -6 -6z"/>
<path d="M1518 1923 c7 -3 16 -2 19 1 4 3 -2 6 -13 5 -11 0 -14 -3 -6 -6z"/>
<path d="M1514 1891 c3 -5 15 -7 26 -4 28 7 25 13 -6 13 -14 0 -23 -4 -20 -9z"/>
<path d="M1625 1860 c-4 -6 -3 -16 3 -22 13 -13 23 4 13 21 -7 10 -10 10 -16
1z"/>
<path d="M1510 1856 c0 -2 7 -7 16 -10 8 -3 12 -2 9 4 -6 10 -25 14 -25 6z"/>
<path d="M1135 1307 c-16 -5 -40 -19 -52 -30 -13 -11 -23 -17 -23 -12 0 4 -8
1 -18 -8 -10 -10 -21 -14 -25 -11 -3 3 -12 2 -19 -2 -7 -5 -15 -9 -18 -10 -34
-7 -72 -28 -84 -47 -16 -25 2 -34 20 -9 19 28 31 28 30 1 -1 -12 5 -24 12 -27
10 -3 13 4 10 24 -3 27 1 30 80 63 63 26 86 31 91 22 6 -10 12 -9 25 4 18 18
19 25 8 41 -5 8 -16 8 -37 1z"/>
<path d="M1200 1276 c0 -9 5 -16 10 -16 6 0 10 4 10 9 0 6 -4 13 -10 16 -5 3
-10 -1 -10 -9z"/>
<path d="M1939 1276 c20 -24 81 -48 106 -42 17 4 24 1 28 -14 5 -20 27 -28 27
-10 0 5 7 7 15 4 8 -4 15 -2 15 4 0 13 -25 33 -33 26 -3 -4 -9 5 -13 20 -5 23
-24 37 -24 18 0 -4 -9 -13 -21 -20 -17 -11 -25 -10 -53 8 -40 24 -65 27 -47 6z"/>
<path d="M1045 1210 c-3 -5 -1 -10 4 -10 6 0 11 5 11 10 0 6 -2 10 -4 10 -3 0
-8 -4 -11 -10z"/>
<path d="M2020 1210 c0 -5 7 -10 16 -10 8 0 12 5 9 10 -3 6 -10 10 -16 10 -5
0 -9 -4 -9 -10z"/>
<path d="M1930 1200 c0 -5 10 -10 23 -10 18 0 19 2 7 10 -19 13 -30 13 -30 0z"/>
<path d="M982 1188 c7 -19 38 -22 38 -4 0 10 -9 16 -21 16 -12 0 -19 -5 -17
-12z"/>
<path d="M872 1150 c0 -14 2 -19 5 -12 2 6 2 18 0 25 -3 6 -5 1 -5 -13z"/>
<path d="M487 1146 c-4 -10 -1 -13 9 -9 15 6 19 23 5 23 -5 0 -11 -7 -14 -14z"/>
<path d="M920 1141 c0 -6 5 -13 10 -16 6 -3 10 1 10 9 0 9 -4 16 -10 16 -5 0
-10 -4 -10 -9z"/>
<path d="M2090 1125 c0 -9 9 -15 21 -15 18 0 19 2 5 15 -8 8 -17 15 -20 15 -3
0 -6 -7 -6 -15z"/>
<path d="M460 1123 c0 -4 5 -15 10 -23 8 -13 10 -13 10 2 0 9 -4 20 -10 23 -5
3 -10 3 -10 -2z"/>
<path d="M852 1108 c-7 -7 -12 -21 -12 -31 0 -16 3 -17 15 -7 8 6 18 9 24 6
13 -9 41 4 41 19 0 8 -9 10 -26 7 -19 -3 -25 -1 -20 7 9 15 -7 14 -22 -1z"/>
<path d="M950 1090 c0 -5 5 -10 10 -10 6 0 10 5 10 10 0 6 -4 10 -10 10 -5 0
-10 -4 -10 -10z"/>
<path d="M810 1021 c0 -5 -3 -17 -7 -27 -6 -16 -4 -16 20 2 32 23 34 34 7 34
-11 0 -20 -4 -20 -9z"/>
<path d="M925 990 c-3 -5 -1 -10 4 -10 6 0 11 5 11 10 0 6 -2 10 -4 10 -3 0
-8 -4 -11 -10z"/>
<path d="M730 979 c0 -5 5 -7 10 -4 6 3 10 8 10 11 0 2 -4 4 -10 4 -5 0 -10
-5 -10 -11z"/>
<path d="M2075 970 c-3 -5 -1 -10 4 -10 6 0 11 5 11 10 0 6 -2 10 -4 10 -3 0
-8 -4 -11 -10z"/>
<path d="M870 940 c0 -5 5 -10 10 -10 6 0 10 5 10 10 0 6 -4 10 -10 10 -5 0
-10 -4 -10 -10z"/>
<path d="M610 930 c0 -5 5 -10 10 -10 6 0 10 5 10 10 0 6 -4 10 -10 10 -5 0
-10 -4 -10 -10z"/>
<path d="M835 930 c3 -5 10 -10 16 -10 5 0 9 5 9 10 0 6 -7 10 -16 10 -8 0
-12 -4 -9 -10z"/>
<path d="M575 920 c3 -5 8 -10 11 -10 2 0 4 5 4 10 0 6 -5 10 -11 10 -5 0 -7
-4 -4 -10z"/>
<path d="M476 911 c-4 -7 -5 -15 -2 -18 9 -9 19 4 14 18 -4 11 -6 11 -12 0z"/>
<path d="M545 910 c3 -5 8 -10 11 -10 2 0 4 5 4 10 0 6 -5 10 -11 10 -5 0 -7
-4 -4 -10z"/>
<path d="M730 909 c0 -5 5 -7 10 -4 6 3 10 8 10 11 0 2 -4 4 -10 4 -5 0 -10
-5 -10 -11z"/>
<path d="M695 900 c3 -5 8 -10 11 -10 2 0 4 5 4 10 0 6 -5 10 -11 10 -5 0 -7
-4 -4 -10z"/>
<path d="M950 896 c0 -9 5 -16 10 -16 6 0 10 4 10 9 0 6 -4 13 -10 16 -5 3
-10 -1 -10 -9z"/>
<path d="M320 889 c0 -5 5 -7 10 -4 6 3 10 8 10 11 0 2 -4 4 -10 4 -5 0 -10
-5 -10 -11z"/>
<path d="M116 875 c-3 -9 0 -15 9 -15 8 0 15 7 15 15 0 8 -4 15 -9 15 -5 0
-11 -7 -15 -15z"/>
<path d="M200 879 c0 -5 5 -7 10 -4 6 3 10 8 10 11 0 2 -4 4 -10 4 -5 0 -10
-5 -10 -11z"/>
<path d="M160 869 c0 -5 5 -7 10 -4 6 3 10 8 10 11 0 2 -4 4 -10 4 -5 0 -10
-5 -10 -11z"/>
<path d="M397 873 c-11 -10 -8 -43 3 -43 6 0 10 11 10 25 0 26 -2 29 -13 18z"/>
<path d="M860 870 c0 -5 5 -10 10 -10 6 0 10 5 10 10 0 6 -4 10 -10 10 -5 0
-10 -4 -10 -10z"/>
<path d="M2045 853 c9 -37 25 -53 25 -26 0 29 -10 53 -22 53 -6 0 -7 -11 -3
-27z"/>
<path d="M50 860 c0 -5 5 -10 10 -10 6 0 10 5 10 10 0 6 -4 10 -10 10 -5 0
-10 -4 -10 -10z"/>
<path d="M290 860 c0 -5 5 -10 10 -10 6 0 10 5 10 10 0 6 -4 10 -10 10 -5 0
-10 -4 -10 -10z"/>
<path d="M931 854 c0 -11 3 -14 6 -6 3 7 2 16 -1 19 -3 4 -6 -2 -5 -13z"/>
<path d="M346 835 c-3 -9 0 -15 8 -15 8 0 16 7 20 15 3 9 0 15 -8 15 -8 0 -16
-7 -20 -15z"/>
<path d="M2000 831 c0 -5 7 -11 15 -15 8 -3 15 -1 15 3 0 5 -7 11 -15 15 -8 3
-15 1 -15 -3z"/>
<path d="M491 814 c-35 -7 -66 -15 -68 -18 -6 -6 39 -129 75 -204 19 -41 25
-65 19 -71 -19 -19 9 -61 40 -62 16 -1 21 -3 11 -6 -12 -3 -19 -19 -24 -51 -8
-55 -59 -211 -74 -226 -17 -17 -11 -34 13 -42 12 -3 45 -17 74 -31 l51 -24 56
20 c133 47 160 68 116 91 -10 6 -25 29 -31 53 -7 23 -17 48 -23 56 -9 11 -5
12 22 7 25 -6 32 -4 32 8 0 9 -7 16 -15 16 -8 0 -15 7 -15 16 0 8 -4 13 -9 10
-5 -3 -11 1 -15 9 -3 8 -12 15 -19 15 -26 0 -50 81 -28 94 5 4 9 25 9 49 0 41
55 223 73 241 15 16 10 35 -13 47 -32 18 -181 19 -257 3z m223 -10 c36 -14 12
-24 -54 -24 -71 0 -97 15 -37 23 57 7 75 7 91 1z m0 -92 c-8 -26 -25 -76 -38
-112 -22 -60 -26 -65 -57 -68 -18 -2 -44 2 -57 10 l-25 13 29 6 29 6 -35 16
-35 16 33 1 c17 0 32 4 32 9 0 11 -25 21 -55 21 -13 0 -27 5 -30 10 -4 6 10
10 34 10 23 0 41 5 41 10 0 6 -6 10 -12 11 -93 4 -115 19 -30 19 72 0 85 19
15 22 l-48 1 50 6 c40 5 49 10 47 23 -2 14 7 17 55 20 32 2 61 2 65 0 4 -1 0
-24 -8 -50z m-152 -224 c-7 -7 -12 -8 -12 -2 0 6 3 14 7 17 3 4 9 5 12 2 2 -3
-1 -11 -7 -17z m58 -4 c0 -8 -4 -14 -10 -14 -5 0 -10 9 -10 21 0 11 5 17 10
14 6 -3 10 -13 10 -21z m37 4 c-3 -8 -6 -5 -6 6 -1 11 2 17 5 13 3 -3 4 -12 1
-19z m-15 -52 c14 -20 8 -44 -12 -49 -17 -4 -20 0 -20 24 0 16 -4 29 -10 29
-5 0 -10 4 -10 9 0 12 43 1 52 -13z m-57 -16 c3 -5 1 -10 -4 -10 -6 0 -11 5
-11 10 0 6 2 10 4 10 3 0 8 -4 11 -10z m-4 -158 c-4 -84 -2 -127 5 -133 19
-15 24 2 24 82 l0 77 33 5 c22 4 36 0 45 -11 17 -23 10 -35 -26 -44 -39 -10
-43 -31 -4 -22 15 4 32 11 39 16 8 7 18 -3 33 -31 11 -23 16 -41 10 -41 -5 0
-10 5 -10 10 0 6 -7 10 -15 10 -9 0 -18 6 -21 13 -3 9 -16 12 -34 9 -40 -6
-38 -22 3 -23 l32 -1 -32 -9 c-49 -14 -42 -33 10 -26 l42 6 -43 -19 c-49 -22
-66 -21 -135 10 -42 18 -46 23 -37 41 12 22 15 23 41 9 13 -8 19 -7 19 1 0 6
-9 13 -20 16 -31 8 -24 24 8 18 24 -6 25 -5 7 6 -11 7 -21 13 -23 15 -2 1 4
31 13 66 24 91 25 92 33 82 5 -5 6 -65 3 -132z m79 100 c-8 -3 -23 -9 -32 -14
-13 -6 -18 -5 -18 6 0 8 10 16 23 18 26 5 48 -4 27 -10z m-5 -43 c-13 -4 -28
-10 -34 -13 -5 -4 -12 -2 -16 4 -9 14 58 40 67 26 4 -7 -2 -14 -17 -17z"/>
<path d="M545 260 c3 -5 11 -10 16 -10 6 0 7 5 4 10 -3 6 -11 10 -16 10 -6 0
-7 -4 -4 -10z"/>
<path d="M640 260 c0 -5 6 -10 14 -10 8 0 18 5 21 10 3 6 -3 10 -14 10 -12 0
-21 -4 -21 -10z"/>
<path d="M519 166 c7 -9 23 -16 34 -16 26 0 12 15 -23 25 -22 7 -23 6 -11 -9z"/>
<path d="M1950 804 c0 -8 5 -12 10 -9 6 3 10 10 10 16 0 5 -4 9 -10 9 -5 0
-10 -7 -10 -16z"/>
<path d="M850 800 c-13 -8 -12 -10 3 -10 9 0 17 5 17 10 0 12 -1 12 -20 0z"/>
<path d="M1320 773 c0 -2 5 -13 11 -24 8 -16 13 -18 25 -8 20 17 17 26 -11 31
-14 3 -25 3 -25 1z"/>
<path d="M1972 768 c-19 -25 -22 -54 -7 -74 15 -18 16 -17 10 12 -4 22 -1 36
9 47 9 9 16 18 16 21 0 11 -17 6 -28 -6z"/>
<path d="M1870 768 c0 -2 9 -22 20 -44 17 -35 19 -37 20 -13 0 14 -9 34 -20
44 -11 10 -20 16 -20 13z"/>
<path d="M1923 754 c-3 -8 -1 -20 6 -27 8 -8 11 -4 11 16 0 30 -7 35 -17 11z"/>
<path d="M382 751 c2 -7 7 -12 11 -12 12 1 9 15 -3 20 -7 2 -11 -2 -8 -8z"/>
<path d="M2062 749 c2 -7 10 -15 17 -17 8 -3 12 1 9 9 -2 7 -10 15 -17 17 -8
3 -12 -1 -9 -9z"/>
<path d="M1300 740 c0 -5 5 -10 10 -10 6 0 10 5 10 10 0 6 -4 10 -10 10 -5 0
-10 -4 -10 -10z"/>
<path d="M2100 740 c0 -5 5 -10 10 -10 6 0 10 5 10 10 0 6 -4 10 -10 10 -5 0
-10 -4 -10 -10z"/>
<path d="M860 736 c0 -2 7 -9 15 -16 12 -10 15 -10 15 4 0 9 -7 16 -15 16 -8
0 -15 -2 -15 -4z"/>
<path d="M1857 720 c3 -11 9 -20 14 -20 11 0 11 3 3 24 -9 23 -23 20 -17 -4z"/>
<path d="M1995 730 c-4 -6 -3 -16 3 -22 13 -13 23 4 13 21 -7 10 -10 10 -16 1z"/>
<path d="M936 713 c-6 -14 -5 -15 5 -6 7 7 10 15 7 18 -3 3 -9 -2 -12 -12z"/>
<path d="M1460 710 c0 -5 5 -10 10 -10 6 0 10 5 10 10 0 6 -4 10 -10 10 -5 0
-10 -4 -10 -10z"/>
<path d="M1420 700 c0 -5 5 -10 10 -10 6 0 10 5 10 10 0 6 -4 10 -10 10 -5 0
-10 -4 -10 -10z"/>
<path d="M1530 696 c0 -9 5 -16 10 -16 6 0 10 4 10 9 0 6 -4 13 -10 16 -5 3
-10 -1 -10 -9z"/>
<path d="M1560 690 c0 -5 5 -10 10 -10 6 0 10 5 10 10 0 6 -4 10 -10 10 -5 0
-10 -4 -10 -10z"/>
<path d="M343 663 c-14 -5 -18 -43 -5 -43 4 0 14 4 22 10 9 5 19 5 26 -1 15
-13 26 3 18 25 -6 15 -35 20 -61 9z"/>
<path d="M895 660 c3 -5 15 -10 25 -10 10 0 22 5 25 10 4 6 -7 10 -25 10 -18
0 -29 -4 -25 -10z"/>
<path d="M1265 660 c-3 -5 -4 -14 0 -20 8 -13 35 -1 35 16 0 16 -26 19 -35 4z"/>
<path d="M1310 651 c0 -11 5 -23 10 -26 6 -4 10 5 10 19 0 14 -4 26 -10 26 -5
0 -10 -9 -10 -19z"/>
<path d="M1845 660 c3 -5 8 -10 11 -10 2 0 4 5 4 10 0 6 -5 10 -11 10 -5 0 -7
-4 -4 -10z"/>
<path d="M773 647 c-29 -13 -29 -23 -1 -30 27 -7 31 -4 26 21 -2 16 -7 18 -25
9z"/>
<path d="M1350 650 c0 -5 5 -10 10 -10 6 0 10 5 10 10 0 6 -4 10 -10 10 -5 0
-10 -4 -10 -10z"/>
<path d="M1670 652 c0 -5 11 -19 25 -32 19 -18 25 -20 25 -8 0 8 -8 22 -18 31
-20 19 -32 22 -32 9z"/>
<path d="M817 643 c-4 -3 -7 -13 -7 -21 0 -12 3 -12 15 -2 8 7 15 16 15 21 0
11 -14 12 -23 2z"/>
<path d="M1440 641 c0 -13 22 -27 51 -34 24 -6 26 -4 21 18 -5 27 -17 33 -25
13 -4 -10 -7 -10 -18 0 -15 14 -29 16 -29 3z"/>
<path d="M1930 641 c0 -5 -9 -7 -21 -4 -19 5 -20 4 -8 -15 17 -28 49 -25 49 5
0 13 -4 23 -10 23 -5 0 -10 -4 -10 -9z"/>
<path d="M428 633 c7 -3 16 -2 19 1 4 3 -2 6 -13 5 -11 0 -14 -3 -6 -6z"/>
<path d="M855 630 c-3 -5 -2 -10 4 -10 5 0 13 5 16 10 3 6 2 10 -4 10 -5 0
-13 -4 -16 -10z"/>
<path d="M2057 634 c-3 -4 -2 -15 3 -24 12 -23 44 -19 49 6 3 15 1 16 -12 6
-13 -11 -17 -10 -24 3 -5 8 -12 13 -16 9z"/>
<path d="M1980 615 c0 -8 5 -15 10 -15 6 0 10 7 10 15 0 8 -4 15 -10 15 -5 0
-10 -7 -10 -15z"/>
<path d="M1870 601 c0 -6 5 -13 10 -16 6 -3 10 1 10 9 0 9 -4 16 -10 16 -5 0
-10 -4 -10 -9z"/>
<path d="M1290 586 c0 -9 5 -16 10 -16 6 0 10 4 10 9 0 6 -4 13 -10 16 -5 3
-10 -1 -10 -9z"/>
<path d="M1380 586 c0 -8 5 -18 10 -21 6 -3 10 3 10 14 0 12 -4 21 -10 21 -5
0 -10 -6 -10 -14z"/>
<path d="M1560 591 c0 -6 5 -13 10 -16 6 -3 10 1 10 9 0 9 -4 16 -10 16 -5 0
-10 -4 -10 -9z"/>
<path d="M905 577 c-4 -10 -5 -21 -1 -24 10 -10 18 4 13 24 -4 17 -4 17 -12 0z"/>
<path d="M943 583 c-18 -7 -16 -23 2 -23 8 0 15 7 15 15 0 8 -1 15 -2 14 -2 0
-9 -3 -15 -6z"/>
<path d="M1250 578 c0 -9 5 -20 11 -23 17 -11 20 0 4 21 -13 17 -14 17 -15 2z"/>
<path d="M1340 581 c0 -6 5 -13 10 -16 6 -3 10 1 10 9 0 9 -4 16 -10 16 -5 0
-10 -4 -10 -9z"/>
<path d="M318 568 c-41 -11 -46 -19 -23 -38 11 -10 19 -10 27 -2 6 6 17 8 24
5 10 -4 14 3 14 21 0 14 -1 26 -2 25 -2 -1 -20 -6 -40 -11z"/>
<path d="M443 564 c-8 -23 15 -43 27 -24 7 10 10 11 10 3 0 -7 5 -13 10 -13
20 0 9 25 -16 37 -21 10 -26 9 -31 -3z"/>
<path d="M812 555 c6 -14 17 -25 25 -25 18 0 16 14 -5 33 -26 24 -33 21 -20
-8z"/>
<path d="M867 574 c-8 -8 1 -24 14 -24 5 0 9 7 9 15 0 15 -12 20 -23 9z"/>
<path d="M396 544 c-4 -10 -1 -14 6 -12 15 5 23 28 10 28 -5 0 -13 -7 -16 -16z"/>
<path d="M1670 530 c0 -16 5 -30 10 -30 6 0 10 14 10 30 0 17 -4 30 -10 30 -5
0 -10 -13 -10 -30z"/>
<path d="M741 546 c12 -10 59 -15 59 -6 0 5 -14 10 -32 10 -17 0 -29 -2 -27
-4z"/>
<path d="M1596 526 c9 -15 21 -22 30 -19 16 6 19 43 3 43 -6 0 -8 -7 -5 -17 6
-16 6 -16 -12 0 -27 25 -35 21 -16 -7z"/>
<path d="M1750 521 c0 -16 31 -41 51 -41 25 0 24 8 -3 31 -25 20 -48 25 -48
10z"/>
<path d="M1980 515 c0 -21 18 -55 30 -55 11 0 -8 57 -21 66 -5 3 -9 -2 -9 -11z"/>
<path d="M2020 508 c0 -16 5 -28 10 -28 13 0 13 20 0 40 -8 12 -10 9 -10 -12z"/>
<path d="M1469 493 c-1 -17 -3 -21 -6 -10 -4 16 -23 25 -23 10 1 -31 59 -41
72 -13 13 29 9 45 -7 24 -13 -17 -14 -17 -15 -1 0 28 -20 19 -21 -10z"/>
<path d="M2068 513 c7 -3 16 -2 19 1 4 3 -2 6 -13 5 -11 0 -14 -3 -6 -6z"/>
<path d="M967 503 c-4 -7 -14 -10 -21 -7 -8 3 -17 1 -20 -4 -3 -6 -15 -8 -26
-5 -28 7 -25 -15 3 -26 26 -10 97 -3 97 10 0 5 -4 9 -9 9 -5 0 -11 8 -13 18
-2 12 -6 13 -11 5z"/>
<path d="M1297 503 c-11 -10 -8 -53 3 -53 6 0 10 14 10 30 0 31 -2 35 -13 23z"/>
<path d="M1935 500 c-3 -5 1 -10 10 -10 9 0 13 5 10 10 -3 6 -8 10 -10 10 -2
0 -7 -4 -10 -10z"/>
<path d="M735 489 c-16 -4 -26 -7 -21 -8 5 0 2 -9 -5 -18 -13 -15 -11 -16 11
-10 14 4 32 7 41 7 8 0 24 6 34 14 17 12 17 13 -6 17 -13 3 -37 2 -54 -2z"/>
<path d="M1250 493 c0 -14 19 -38 25 -32 8 8 -5 39 -16 39 -5 0 -9 -3 -9 -7z"/>
<path d="M1337 493 c-12 -12 -7 -43 7 -43 9 0 12 8 8 25 -5 27 -6 28 -15 18z"/>
<path d="M830 479 c0 -5 5 -7 10 -4 6 3 10 8 10 11 0 2 -4 4 -10 4 -5 0 -10
-5 -10 -11z"/>
<path d="M1545 480 c-3 -5 -1 -10 4 -10 6 0 11 5 11 10 0 6 -2 10 -4 10 -3 0
-8 -4 -11 -10z"/>
<path d="M310 465 c0 -8 5 -15 10 -15 6 0 10 7 10 15 0 8 -4 15 -10 15 -5 0
-10 -7 -10 -15z"/>
<path d="M392 453 c2 -23 8 -28 34 -30 27 -2 33 2 38 23 8 31 3 39 -18 31 -9
-4 -13 -13 -10 -22 5 -11 2 -14 -10 -9 -9 3 -16 12 -16 20 0 8 -5 14 -11 14
-6 0 -9 -12 -7 -27z"/>
<path d="M350 455 c0 -9 5 -15 11 -13 6 2 11 8 11 13 0 5 -5 11 -11 13 -6 2
-11 -4 -11 -13z"/>
<path d="M2080 459 c0 -5 5 -7 10 -4 6 3 10 8 10 11 0 2 -4 4 -10 4 -5 0 -10
-5 -10 -11z"/>
<path d="M1618 444 c-14 -13 11 -42 32 -37 20 5 29 43 10 43 -5 0 -10 -8 -10
-17 0 -16 -1 -15 -13 1 -7 9 -16 14 -19 10z"/>
<path d="M495 430 c-3 -5 1 -10 9 -10 9 0 16 5 16 10 0 6 -4 10 -9 10 -6 0
-13 -4 -16 -10z"/>
<path d="M1770 433 c0 -14 19 -38 25 -32 8 8 -5 39 -16 39 -5 0 -9 -3 -9 -7z"/>
<path d="M1812 423 c5 -24 27 -28 25 -4 -1 12 -7 21 -15 21 -7 0 -12 -8 -10
-17z"/>
<path d="M914 415 c-8 -21 6 -41 17 -24 12 19 11 39 -1 39 -6 0 -13 -7 -16
-15z"/>
<path d="M1870 414 c0 -8 5 -12 10 -9 6 3 10 10 10 16 0 5 -4 9 -10 9 -5 0
-10 -7 -10 -16z"/>
<path d="M765 410 c-3 -5 -1 -10 4 -10 6 0 11 5 11 10 0 6 -2 10 -4 10 -3 0
-8 -4 -11 -10z"/>
<path d="M835 410 c-8 -12 17 -23 41 -18 10 1 19 9 22 16 5 15 -54 17 -63 2z"/>
<path d="M1590 410 c0 -5 5 -10 10 -10 6 0 10 5 10 10 0 6 -4 10 -10 10 -5 0
-10 -4 -10 -10z"/>
<path d="M265 399 c-4 -6 -5 -13 -2 -16 7 -7 27 6 27 18 0 12 -17 12 -25 -2z"/>
<path d="M724 394 c3 -9 6 -18 6 -20 0 -3 5 -2 10 1 16 10 12 35 -6 35 -11 0
-14 -5 -10 -16z"/>
<path d="M1373 391 c-6 -16 -12 -20 -17 -13 -4 7 -14 12 -22 12 -11 0 -10 -6
6 -28 16 -22 28 -28 46 -24 15 3 24 11 24 22 0 10 6 21 13 24 6 4 2 4 -10 2
-14 -2 -23 2 -26 13 -3 12 -6 11 -14 -8z"/>
<path d="M360 390 c0 -6 5 -8 10 -5 6 3 10 -1 10 -9 0 -19 45 -22 56 -4 5 7 2
9 -9 5 -9 -3 -17 -2 -19 2 -5 14 -48 24 -48 11z"/>
<path d="M945 390 c-3 -5 -1 -10 4 -10 6 0 11 5 11 10 0 6 -2 10 -4 10 -3 0
-8 -4 -11 -10z"/>
<path d="M1240 388 c0 -18 18 -34 28 -24 3 4 -2 14 -11 23 -16 16 -17 16 -17
1z"/>
<path d="M1962 380 c16 -25 61 -23 66 3 3 14 -4 17 -37 17 -39 0 -40 -1 -29
-20z"/>
<path d="M2060 383 c1 -16 28 -43 42 -43 10 0 16 9 16 25 0 14 -4 25 -9 25 -5
0 -9 -5 -9 -12 0 -9 -3 -9 -12 0 -13 13 -28 16 -28 5z"/>
<path d="M310 365 c0 -8 7 -15 15 -15 8 0 15 7 15 15 0 8 -7 15 -15 15 -8 0
-15 -7 -15 -15z"/>
<path d="M476 371 c-4 -7 -5 -15 -2 -18 9 -9 19 4 14 18 -4 11 -6 11 -12 0z"/>
<path d="M1430 360 c0 -5 5 -10 10 -10 6 0 10 5 10 10 0 6 -4 10 -10 10 -5 0
-10 -4 -10 -10z"/>
<path d="M1512 351 c12 -19 68 -27 68 -10 0 15 -22 21 -31 8 -6 -11 -9 -10
-15 4 -3 9 -12 17 -20 17 -11 0 -12 -4 -2 -19z"/>
<path d="M1940 356 c0 -9 -12 -16 -32 -18 -47 -4 -39 -25 16 -43 24 -7 15 -16
-25 -24 -50 -10 -49 -31 3 -32 l43 -1 -32 -9 c-36 -10 -46 -42 -17 -53 13 -5
15 -2 11 14 -4 15 0 20 13 20 16 0 20 -11 26 -60 8 -77 27 -79 22 -3 l-3 57
55 -3 c62 -2 108 20 80 39 -13 8 -83 15 -117 11 -6 -1 -15 4 -19 10 -5 8 3 10
25 7 18 -3 34 -1 37 4 3 4 -11 8 -31 8 -54 0 -33 20 23 21 26 1 37 4 25 6 -13
2 -23 11 -23 19 0 9 -11 14 -30 14 -20 0 -30 5 -30 15 0 8 -4 15 -10 15 -5 0
-10 -6 -10 -14z m60 -42 c0 -2 -9 -4 -21 -4 -11 0 -18 4 -14 10 5 8 35 3 35
-6z m74 -83 c7 -10 -36 -17 -76 -13 -16 2 -28 8 -28 13 0 12 97 12 104 0z"/>
<path d="M903 345 c-13 -9 -20 -22 -17 -30 9 -23 32 -18 37 8 4 19 4 18 6 -5
1 -27 31 -42 31 -17 0 7 8 18 18 26 16 12 15 13 -8 11 -14 -2 -30 3 -35 10 -8
10 -14 9 -32 -3z"/>
<path d="M1225 350 c3 -5 8 -10 11 -10 2 0 4 5 4 10 0 6 -5 10 -11 10 -5 0 -7
-4 -4 -10z"/>
<path d="M1600 345 c-8 -9 -8 -15 -2 -15 12 0 26 19 19 26 -2 2 -10 -2 -17
-11z"/>
<path d="M280 340 c0 -5 7 -10 16 -10 8 0 12 5 9 10 -3 6 -10 10 -16 10 -5 0
-9 -4 -9 -10z"/>
<path d="M1646 335 c-3 -8 -2 -15 3 -15 5 0 14 7 21 15 10 12 10 15 -3 15 -8
0 -17 -7 -21 -15z"/>
<path d="M803 333 c-7 -3 -13 -14 -13 -25 0 -12 5 -17 13 -14 6 3 20 9 30 12
9 4 17 11 17 16 0 6 -6 8 -14 5 -8 -3 -16 -2 -18 2 -2 4 -9 6 -15 4z"/>
<path d="M1760 325 c0 -8 5 -15 10 -15 6 0 10 7 10 15 0 8 -4 15 -10 15 -5 0
-10 -7 -10 -15z"/>
<path d="M1820 320 c0 -5 5 -10 10 -10 6 0 10 5 10 10 0 6 -4 10 -10 10 -5 0
-10 -4 -10 -10z"/>
<path d="M406 313 c-3 -4 -21 -7 -38 -7 -38 -1 -47 -20 -17 -37 18 -9 24 -9
27 0 3 9 7 9 18 0 17 -14 20 -12 29 24 7 25 -3 36 -19 20z"/>
<path d="M440 290 c0 -5 4 -10 9 -10 6 0 13 5 16 10 3 6 -1 10 -9 10 -9 0 -16
-4 -16 -10z"/>
<path d="M837 257 c-23 -14 -27 -21 -18 -30 9 -9 14 -8 21 3 8 13 10 13 10 -1
0 -11 10 -16 29 -17 28 -1 40 16 41 53 0 16 -51 11 -83 -8z"/>
<path d="M1320 276 c0 -3 4 -16 10 -30 13 -35 50 -36 50 -1 0 25 -20 37 -20
13 -1 -8 -6 -6 -14 5 -12 16 -26 23 -26 13z"/>
<path d="M1403 265 c-3 -9 -3 -18 0 -21 9 -9 27 6 27 22 0 19 -19 18 -27 -1z"/>
<path d="M1280 262 c0 -12 19 -26 26 -19 2 2 -2 10 -11 17 -9 8 -15 8 -15 2z"/>
<path d="M1569 252 c6 -11 18 -19 28 -18 21 3 30 26 10 26 -9 0 -23 3 -32 7
-15 5 -16 3 -6 -15z"/>
<path d="M1640 260 c-8 -5 -11 -12 -7 -16 4 -4 13 -2 19 4 15 15 7 24 -12 12z"/>
<path d="M1730 253 c0 -5 4 -15 10 -23 11 -18 25 -7 17 15 -6 15 -27 21 -27 8z"/>
<path d="M1530 235 c14 -7 27 -11 30 -9 6 7 -22 24 -40 23 -9 0 -5 -6 10 -14z"/>
<path d="M1770 240 c0 -5 5 -10 10 -10 6 0 10 5 10 10 0 6 -4 10 -10 10 -5 0
-10 -4 -10 -10z"/>
<path d="M340 212 c0 -4 4 -13 9 -21 8 -13 12 -13 27 0 9 8 19 13 21 12 1 -2
4 0 6 3 1 4 -13 8 -30 10 -18 2 -33 0 -33 -4z"/>
<path d="M1046 211 c-3 -5 1 -12 10 -15 20 -8 29 -1 19 13 -8 13 -22 14 -29 2z"/>
<path d="M1520 170 c0 -12 -5 -17 -14 -14 -8 3 -17 0 -21 -6 -6 -9 -9 -9 -15
0 -4 7 -10 8 -13 3 -4 -6 0 -18 7 -29 11 -14 17 -16 28 -6 11 9 17 9 26 0 9
-9 12 -7 12 7 0 11 3 30 6 43 4 13 2 22 -5 22 -6 0 -11 -9 -11 -20z"/>
<path d="M1592 168 c2 -6 10 -14 16 -16 7 -2 10 2 6 12 -7 18 -28 22 -22 4z"/>
<path d="M1630 171 c0 -6 5 -13 10 -16 6 -3 10 1 10 9 0 9 -4 16 -10 16 -5 0
-10 -4 -10 -9z"/>
<path d="M1820 133 c0 -42 12 -37 17 7 1 16 -2 30 -7 30 -6 0 -10 -16 -10 -37z"/>
<path d="M864 146 c-3 -8 -13 -12 -25 -9 -24 7 -24 -5 0 -36 16 -21 53 -27 52
-8 -1 4 -1 21 -1 37 0 31 -16 41 -26 16z"/>
<path d="M1690 150 c0 -5 5 -10 11 -10 5 0 7 5 4 10 -3 6 -8 10 -11 10 -2 0
-4 -4 -4 -10z"/>
<path d="M1730 145 c0 -12 28 -35 44 -35 11 0 6 19 -10 34 -19 20 -34 20 -34
1z"/>
<path d="M1790 125 c0 -14 2 -25 4 -25 2 0 6 11 8 25 3 14 1 25 -3 25 -5 0 -9
-11 -9 -25z"/>
<path d="M2110 135 c0 -8 5 -15 10 -15 6 0 10 7 10 15 0 8 -4 15 -10 15 -5 0
-10 -7 -10 -15z"/>
<path d="M905 130 c-8 -13 4 -50 16 -50 5 0 9 14 9 30 0 30 -13 40 -25 20z"/>
<path d="M1332 121 c2 -14 12 -27 26 -32 19 -7 22 -5 22 16 0 14 -4 25 -10 25
-5 0 -10 -5 -10 -12 0 -6 -7 -3 -15 8 -15 18 -16 18 -13 -5z"/>
<path d="M384 118 c-7 -10 19 -21 42 -16 10 1 19 8 21 15 5 14 -55 15 -63 1z"/>
<path d="M790 107 c0 -18 28 -42 37 -33 9 8 -9 38 -25 44 -7 2 -12 -3 -12 -11z"/>
<path d="M952 104 c4 -21 22 -23 26 -1 2 10 -3 17 -13 17 -10 0 -15 -6 -13
-16z"/>
<path d="M1395 110 c-7 -12 2 -30 16 -30 12 0 12 27 0 35 -5 3 -12 1 -16 -5z"/>
<path d="M352 98 c3 -7 13 -15 22 -16 12 -3 17 1 14 10 -3 7 -13 15 -22 16
-12 3 -17 -1 -14 -10z"/>
<path d="M996 102 c-3 -6 -1 -14 5 -17 15 -10 25 3 12 16 -7 7 -13 7 -17 1z"/>
<path d="M1652 84 c1 -9 9 -19 16 -22 9 -3 13 2 10 14 -1 9 -9 19 -16 22 -9 3
-13 -2 -10 -14z"/>
<path d="M81 76 c-8 -10 -9 -16 -1 -21 5 -3 13 1 16 10 9 22 -1 29 -15 11z"/>
<path d="M1710 70 c0 -5 5 -10 10 -10 6 0 10 5 10 10 0 6 -4 10 -10 10 -5 0
-10 -4 -10 -10z"/>
<path d="M555 3720 c-3 -5 -1 -10 4 -10 6 0 11 5 11 10 0 6 -2 10 -4 10 -3 0
-8 -4 -11 -10z"/>
<path d="M1490 3743 c0 -10 4 -24 9 -32 12 -19 24 3 16 29 -8 25 -25 26 -25 3z"/>
<path d="M1475 3270 c-3 -5 1 -10 10 -10 9 0 13 5 10 10 -3 6 -8 10 -10 10 -2
0 -7 -4 -10 -10z"/>
<path d="M1250 3067 c0 -19 10 -27 26 -20 11 4 12 9 3 19 -15 18 -29 18 -29 1z"/>
<path d="M1264 3002 c22 -25 51 -29 60 -7 4 10 -1 14 -17 14 -12 -1 -31 2 -42
6 -20 8 -20 8 -1 -13z"/>
<path d="M1260 2961 c0 -10 40 -22 52 -15 18 11 6 24 -22 24 -16 0 -30 -4 -30
-9z"/>
<path d="M1295 2800 c-3 -5 -1 -10 4 -10 6 0 11 5 11 10 0 6 -2 10 -4 10 -3 0
-8 -4 -11 -10z"/>
<path d="M1270 2680 c0 -5 5 -10 11 -10 5 0 7 5 4 10 -3 6 -8 10 -11 10 -2 0
-4 -4 -4 -10z"/>
<path d="M1270 2590 c0 -11 4 -20 8 -20 4 0 8 9 9 20 1 11 -2 20 -8 20 -5 0
-9 -9 -9 -20z"/>
<path d="M1260 2420 c0 -5 5 -10 10 -10 6 0 10 5 10 10 0 6 -4 10 -10 10 -5 0
-10 -4 -10 -10z"/>
<path d="M1427 2364 c-3 -3 3 -15 13 -27 22 -23 40 -15 24 10 -12 19 -27 26
-37 17z"/>
<path d="M1437 2304 c-8 -8 1 -24 14 -24 5 0 9 7 9 15 0 15 -12 20 -23 9z"/>
<path d="M1618 1677 c-27 -23 -35 -36 -29 -46 8 -12 12 -13 25 -1 9 7 14 15
11 18 -3 3 7 18 22 34 36 38 17 35 -29 -5z"/>
<path d="M1262 1688 c3 -7 18 -14 34 -16 28 -2 28 -2 10 13 -24 18 -49 20 -44
3z"/>
<path d="M1590 1600 c0 -5 5 -10 10 -10 6 0 10 5 10 10 0 6 -4 10 -10 10 -5 0
-10 -4 -10 -10z"/>
<path d="M1480 1580 c0 -5 6 -10 14 -10 8 0 18 5 21 10 3 6 -3 10 -14 10 -12
0 -21 -4 -21 -10z"/>
<path d="M1435 1540 c-3 -5 1 -10 9 -10 9 0 16 -4 16 -9 0 -14 -29 -41 -44
-41 -18 0 -16 -28 2 -35 20 -7 30 4 13 14 -23 14 24 34 48 21 34 -18 61 -13
60 13 0 12 -3 16 -6 10 -2 -7 -19 -13 -36 -13 -26 0 -28 2 -16 13 8 6 21 20
28 30 12 15 10 17 -27 17 -23 0 -44 -4 -47 -10z"/>
<path d="M1540 1531 c0 -6 4 -13 10 -16 6 -3 7 1 4 9 -7 18 -14 21 -14 7z"/>
<path d="M1585 1530 c-4 -6 7 -10 24 -10 17 0 31 5 31 10 0 6 -11 10 -24 10
-14 0 -28 -4 -31 -10z"/>
<path d="M1455 1450 c-3 -5 -1 -10 4 -10 6 0 11 5 11 10 0 6 -2 10 -4 10 -3 0
-8 -4 -11 -10z"/>
<path d="M1805 1330 c-3 -5 -1 -10 4 -10 6 0 11 5 11 10 0 6 -2 10 -4 10 -3 0
-8 -4 -11 -10z"/>
<path d="M1570 1315 c0 -27 47 -65 80 -65 18 0 29 4 25 10 -3 6 -15 10 -25 10
-11 0 -29 14 -42 30 -24 33 -38 38 -38 15z"/>
<path d="M1721 1304 c0 -11 3 -14 6 -6 3 7 2 16 -1 19 -3 4 -6 -2 -5 -13z"/>
<path d="M1795 1250 c-3 -5 -2 -10 4 -10 5 0 13 5 16 10 3 6 2 10 -4 10 -5 0
-13 -4 -16 -10z"/>
<path d="M1530 1238 c0 -13 5 -30 10 -38 7 -11 10 -5 10 23 0 20 -4 37 -10 37
-5 0 -10 -10 -10 -22z"/>
<path d="M1527 1137 c-11 -29 -9 -53 4 -40 6 6 9 21 7 34 -3 21 -4 22 -11 6z"/>
<path d="M1210 1126 c0 -2 17 -14 38 -25 l37 -21 -30 25 c-28 23 -45 31 -45
21z"/>
<path d="M1128 573 c7 -3 16 -2 19 1 4 3 -2 6 -13 5 -11 0 -14 -3 -6 -6z"/>
</g>
</svg>
