<?xml version="1.0" standalone="no"?>
<!DOCTYPE svg PUBLIC "-//W3C//DTD SVG 20010904//EN"
 "http://www.w3.org/TR/2001/REC-SVG-20010904/DTD/svg10.dtd">
<svg version="1.0" xmlns="http://www.w3.org/2000/svg"
 width="224.000000pt" height="384.000000pt" viewBox="0 0 224.000000 384.000000"
 preserveAspectRatio="xMidYMid meet">
<metadata>
Created by potrace 1.16, written by Peter Selinger 2001-2019
</metadata>
<g transform="translate(0.000000,384.000000) scale(0.100000,-0.100000)"
fill="#000000" stroke="none">
<path d="M19 3777 c0 -29 -2 -124 -4 -212 -2 -88 -3 -470 -2 -850 1 -753 1
-1539 -1 -2240 -1 -247 2 -453 6 -457 9 -9 2130 -13 2139 -4 7 7 16 6 -1245
12 -475 2 -867 6 -872 9 -6 4 -10 62 -10 130 l0 124 1064 -2 c585 -1 1068 -6
1073 -10 4 -5 7 -67 5 -138 -2 -114 -1 -129 14 -129 15 0 16 24 13 253 -1 138
0 518 4 842 20 1743 26 2554 19 2657 l-5 67 -1098 0 -1099 0 -1 -52z m2176 23
c4 -6 5 -250 4 -543 -2 -759 -2 -757 -16 -757 -6 0 -31 18 -55 41 -23 23 -56
47 -71 54 -16 6 -34 22 -40 35 -27 54 -76 51 -135 -7 -36 -35 -19 -28 25 10
12 11 27 17 33 15 14 -4 -82 -108 -99 -108 -8 0 -11 89 -11 305 1 291 2 304
20 310 26 8 53 48 101 145 36 74 38 84 32 140 -3 32 -14 73 -25 90 -45 74
-150 71 -223 -8 l-25 -27 -533 -1 c-292 -1 -539 2 -549 7 -9 5 -26 24 -37 43
-21 33 -47 48 -104 61 -46 10 -110 -27 -148 -86 l-32 -51 12 -66 c7 -37 18
-76 26 -88 7 -11 19 -40 25 -64 6 -24 25 -56 41 -73 l30 -29 0 -242 c1 -277 9
-485 19 -465 11 23 -1 809 -12 809 -6 0 -8 -12 -5 -30 14 -68 -33 -38 -54 34
-6 21 -19 55 -29 74 -10 19 -22 58 -25 86 -6 48 -4 56 26 100 41 62 82 81 143
65 49 -12 62 -30 72 -107 7 -54 -6 -73 -51 -76 -30 -1 -33 -12 -5 -19 28 -7
80 38 80 70 0 13 -5 34 -11 46 -11 21 -11 21 7 5 17 -14 74 -17 559 -20 297
-1 551 1 563 5 21 8 23 7 17 -12 -7 -23 7 -54 39 -89 13 -15 22 -39 23 -65 1
-23 6 -71 12 -107 12 -81 13 -818 0 -857 -8 -24 -8 -22 -5 15 3 34 1 42 -10
38 -9 -3 -17 7 -24 32 -5 21 -19 47 -30 59 -48 52 -58 80 -52 155 3 46 1 69
-5 65 -6 -4 -8 -30 -6 -59 3 -39 2 -49 -6 -38 -7 10 -11 130 -11 348 l0 332
-227 0 -228 0 -50 28 c-37 20 -51 34 -53 52 -2 19 -1 22 7 10 12 -18 26 -6 17
16 -4 10 -12 14 -22 10 -9 -3 -27 -6 -40 -6 -15 0 -24 -6 -24 -15 0 -8 7 -15
15 -15 35 0 10 -29 -46 -54 -56 -24 -70 -26 -214 -26 l-153 0 -4 -37 c-3 -21
-5 -132 -5 -248 0 -115 2 -175 4 -132 2 43 7 76 11 73 4 -2 7 53 6 122 -1 120
-1 122 6 37 l6 -90 2 107 c1 77 -1 107 -10 111 -10 3 -10 7 -1 19 7 8 10 18 6
21 -3 4 17 7 45 7 47 0 52 -2 53 -22 l2 -23 4 23 c2 12 11 22 19 22 8 0 15
-10 15 -22 l2 -23 4 23 c2 12 8 22 13 22 5 0 11 -10 13 -22 l4 -23 8 23 c9 27
45 30 45 4 0 -10 -7 -27 -15 -38 -8 -10 -14 -35 -13 -54 l1 -35 4 33 c4 29 8
32 36 32 21 0 36 7 45 20 14 22 54 27 69 8 6 -7 13 -32 16 -56 5 -39 3 -44
-20 -53 -39 -14 -53 -11 -53 14 0 17 -2 19 -9 8 -5 -8 -7 -20 -5 -26 5 -11
-43 -51 -51 -43 -2 2 -9 15 -14 28 -9 22 -10 20 -5 -12 4 -22 0 -59 -9 -90
-22 -75 -28 -118 -17 -118 6 0 11 12 12 28 3 68 27 140 52 157 31 22 33 19 27
-27 -4 -24 -5 -61 -5 -83 3 -58 -4 -73 -34 -77 -21 -2 -28 -9 -30 -30 -3 -26
-22 -41 -22 -18 0 5 -7 7 -15 4 -9 -4 -15 0 -16 7 0 8 -4 4 -9 -8 -7 -17 -18
-23 -39 -23 -22 0 -29 -4 -25 -15 5 -11 -1 -13 -30 -8 -39 6 -86 -17 -86 -42
0 -8 -11 -17 -25 -21 -51 -13 -109 -124 -120 -229 -4 -33 -13 -70 -21 -82 -16
-26 -19 -63 -4 -63 6 0 10 -7 10 -15 0 -8 -4 -15 -10 -15 -5 0 -10 -12 -10
-26 0 -23 -3 -25 -26 -20 -15 4 -32 2 -40 -5 -8 -7 -17 -10 -19 -7 -6 5 -20
257 -20 348 0 52 1 55 25 54 14 0 32 -3 40 -5 11 -3 16 5 18 29 3 31 2 32 -31
32 -35 0 -35 0 -30 38 4 31 1 41 -23 62 l-27 25 16 -25 c33 -49 11 -110 -40
-110 -86 0 -94 103 -10 130 l32 10 -34 -5 c-19 -3 -43 -13 -53 -22 -22 -20
-24 -76 -3 -93 26 -21 17 -33 -20 -26 -35 7 -35 7 -35 -30 0 -31 3 -35 18 -29
9 4 29 10 43 12 l27 5 7 -94 c4 -51 5 -120 3 -153 l-3 -60 -28 41 c-36 53 -75
63 -123 33 -19 -11 -34 -26 -34 -33 0 -7 -8 -21 -19 -30 -17 -16 -19 -16 -25
0 -9 24 -2 1406 7 1422 11 16 2142 18 2152 2z m-278 -252 c11 -13 26 -33 32
-45 13 -25 15 -145 3 -158 -5 -6 -15 -26 -22 -45 -14 -38 -62 -120 -70 -120
-18 1 -32 23 -35 56 -2 22 -7 56 -11 77 -6 35 -5 38 29 52 57 24 81 71 58 114
-14 25 -67 16 -88 -15 -14 -22 -13 -27 6 -59 14 -24 16 -35 8 -35 -16 0 -61
48 -70 73 -9 24 20 94 46 112 33 23 90 19 114 -7z m-37 -110 c0 -11 -5 -29
-11 -40 -11 -21 -12 -21 -25 -3 -14 19 -19 57 -8 67 12 12 44 -5 44 -24z
m-812 -137 c2 -31 -2 -42 -18 -51 -29 -16 -38 14 -14 43 11 13 6 9 -10 -7 -28
-28 -29 -29 -23 -7 5 21 0 18 -36 -17 -25 -25 -52 -42 -65 -42 -22 0 -22 1 -8
23 13 17 141 92 167 96 3 1 6 -17 7 -38z m32 -2 c0 -17 -4 -28 -10 -24 -5 3
-10 17 -10 31 0 13 5 24 10 24 6 0 10 -14 10 -31z m72 7 c55 -24 107 -71 94
-83 -4 -5 -21 8 -37 27 -21 24 -29 29 -29 17 0 -23 -12 -21 -28 4 -7 12 -16
18 -19 15 -3 -3 0 -12 7 -21 19 -23 5 -29 -24 -10 -19 13 -26 25 -24 46 1 16
3 29 5 29 1 0 26 -11 55 -24z m157 -29 c10 17 10 17 11 -2 1 -19 1 -19 14 -2
11 14 15 15 19 5 4 -10 8 -10 16 2 9 13 11 13 11 -2 0 -10 5 -18 10 -18 6 0
11 8 11 18 1 16 2 16 6 0 2 -10 7 -18 10 -18 3 0 12 8 19 18 13 16 13 16 14 0
0 -19 20 -25 20 -7 0 8 5 8 15 -1 10 -9 15 -9 15 -1 0 6 5 11 10 11 6 0 10 -8
10 -17 1 -16 2 -16 11 1 9 15 13 16 20 5 8 -12 11 -12 19 1 8 13 10 12 10 -3
0 -10 5 -15 10 -12 6 3 10 -1 10 -10 0 -9 4 -14 9 -11 10 7 14 -129 11 -434
l-1 -115 -31 38 c-37 46 -145 98 -195 95 -47 -3 -85 48 -77 108 2 16 1 21 -2
12 -3 -10 -10 -18 -16 -18 -5 0 -7 7 -4 15 3 8 8 21 11 28 3 8 -3 25 -15 38
l-20 24 10 -29 c9 -25 8 -27 -4 -17 -14 12 -29 64 -16 56 4 -2 7 8 7 23 -1 15
3 57 7 93 8 62 7 67 -20 98 -26 31 -26 33 -6 27 15 -5 22 -3 22 6 1 8 5 7 14
-5 14 -18 15 -18 25 0z m-201 -33 c17 -12 22 -25 22 -60 l0 -44 -49 0 -49 0
-4 42 c-3 31 1 47 14 60 22 22 37 23 66 2z m110 -54 c3 -60 -7 -73 -49 -65
-34 6 -34 7 -30 53 4 52 14 63 51 60 22 -3 25 -8 28 -48z m52 -5 c0 -13 -8
-29 -17 -34 -10 -6 -12 -11 -5 -11 6 0 12 -9 12 -20 0 -22 -7 -25 -30 -10 -12
8 -11 13 8 39 18 25 20 31 7 31 -13 0 -14 4 -5 20 14 25 30 17 30 -15z m-116
-74 c52 -11 43 -31 -13 -31 -55 0 -60 -6 -40 -56 5 -16 8 -39 4 -51 -4 -19
-10 -22 -33 -17 -26 6 -26 6 -7 -9 18 -14 22 -14 38 0 9 9 17 27 17 40 0 12 4
23 8 23 5 0 17 6 27 14 16 12 17 16 6 30 -7 9 -9 16 -3 16 20 0 33 -30 38 -87
4 -43 3 -54 -5 -43 -9 13 -11 12 -11 -4 0 -17 -1 -17 -25 -2 -33 22 -43 20
-15 -2 12 -10 28 -40 35 -67 9 -35 17 -50 29 -49 13 2 16 -10 18 -65 1 -36 3
-79 4 -96 1 -16 2 -49 3 -72 0 -24 6 -43 12 -43 7 0 9 10 4 28 -5 20 5 12 40
-35 78 -105 167 -136 380 -134 l30 0 -35 -15 c-43 -19 -213 -10 -273 13 -35
14 -127 104 -127 124 0 5 -5 9 -10 9 -15 0 5 -34 48 -82 40 -45 101 -77 145
-78 15 0 27 -4 27 -9 0 -5 18 -11 39 -13 22 -2 37 0 35 4 -3 5 17 8 44 8 41 0
51 -4 60 -22 8 -18 11 -19 11 -5 1 9 9 17 19 18 15 0 15 1 -2 8 -15 6 -11 9
21 19 22 7 43 12 45 12 3 0 11 -19 17 -42 12 -48 31 -83 31 -59 0 11 5 10 20
-4 26 -23 27 -49 3 -37 -21 11 -138 24 -129 14 4 -3 28 -9 54 -13 l47 -6 -40
-2 c-22 0 -55 -5 -73 -10 -17 -5 -32 -6 -32 -1 0 5 10 11 23 13 12 3 -3 3 -33
1 -100 -6 -265 28 -410 84 l-45 18 -6 64 -6 65 -1 -57 c-1 -32 -6 -58 -12 -58
-5 0 -10 9 -10 21 0 11 -4 28 -9 37 -5 9 -12 35 -15 56 -11 68 -19 55 -11 -19
6 -65 5 -71 -16 -83 -19 -12 -21 -12 -16 1 8 21 -21 46 -32 28 -6 -9 -11 -8
-22 5 -9 12 -10 15 -1 10 9 -5 12 4 11 36 -1 24 -3 35 -6 26 -7 -27 -22 -22
-28 10 -3 15 -10 41 -15 58 -14 42 -13 48 5 30 8 -8 15 -26 15 -40 0 -14 4
-26 9 -26 10 0 2 50 -11 67 -5 7 -5 14 2 18 12 7 14 142 1 149 -4 3 -6 29 -3
57 4 41 2 50 -8 44 -10 -6 -12 4 -8 45 6 60 -8 46 -21 -23 -6 -30 -9 -34 -10
-15 -1 15 -5 29 -10 32 -4 3 -6 -7 -4 -22 3 -25 3 -25 -6 -5 -6 14 -7 43 -1
78 5 31 6 63 3 71 -6 17 33 64 54 64 8 0 11 -5 8 -11 -4 -6 -10 -8 -13 -5 -8
9 -33 -15 -26 -25 9 -15 42 -10 52 7 7 13 13 14 31 5 12 -7 21 -8 21 -2 0 5 2
16 5 23 4 11 -7 14 -51 15 -31 1 -58 4 -62 7 -23 24 126 44 202 27z m80 -58
c20 -57 20 -58 1 -39 -8 8 -15 22 -15 31 0 9 -5 25 -10 36 -6 11 -7 19 -1 19
5 0 16 -21 25 -47z m4 -99 c-3 -27 -4 -25 -15 15 -10 39 -10 42 3 29 9 -9 14
-28 12 -44z m62 -100 c7 -8 10 -14 7 -14 -3 0 -13 -3 -23 -7 -12 -4 -15 -3
-10 6 4 6 1 23 -8 36 -9 13 -16 39 -16 57 1 32 1 32 20 -15 10 -27 24 -55 30
-63z m-91 19 c1 -52 -8 -54 -14 -3 -4 29 0 50 9 50 2 0 4 -21 5 -47z m35 11
c3 -8 2 -12 -4 -9 -6 3 -10 10 -10 16 0 14 7 11 14 -7z m-340 -12 c9 -14 -10
-33 -27 -26 -18 6 -21 16 -10 27 9 9 31 9 37 -1z m21 -123 c5 -58 10 -86 16
-78 7 12 9 11 9 -1 0 -20 -16 -45 -22 -34 -2 5 -13 35 -23 67 -17 52 -36 76
-35 45 1 -32 57 -153 71 -152 9 1 14 -10 15 -33 0 -18 -3 -33 -8 -33 -4 0 -21
27 -38 60 -17 33 -35 60 -41 60 -5 0 -7 -5 -3 -11 3 -6 -6 -23 -21 -39 -23
-24 -24 -28 -9 -34 10 -4 22 -1 28 5 8 9 6 10 -8 5 -16 -5 -17 -4 -6 9 16 19
36 19 43 1 6 -14 -31 -46 -53 -46 -28 0 -117 120 -105 140 3 6 1 10 -5 10 -6
0 -8 5 -4 11 4 7 0 9 -14 5 -28 -9 -79 53 -58 70 12 8 60 11 110 5 5 -1 3 -8
-4 -16 -9 -11 -9 -15 -1 -15 7 0 9 -4 6 -10 -3 -5 -1 -10 5 -10 6 0 8 -5 4
-12 -5 -7 3 -5 16 4 14 9 24 21 23 27 -2 6 1 11 7 11 19 0 10 -30 -15 -46 -14
-9 -25 -20 -25 -25 0 -5 13 0 30 12 16 13 32 20 36 17 3 -4 -8 -16 -25 -29
-17 -13 -31 -27 -31 -31 0 -5 13 1 30 13 40 30 49 17 13 -18 -16 -15 -24 -25
-19 -20 23 17 28 5 6 -18 -13 -14 -19 -25 -13 -25 5 0 20 11 33 25 14 15 18
25 11 25 -11 0 -11 3 -1 14 6 8 18 12 27 9 12 -5 13 -2 6 13 -6 10 -21 41 -34
68 -13 28 -30 52 -38 54 -10 3 -12 0 -8 -11 3 -9 2 -19 -4 -22 -5 -4 -7 -10
-4 -15 3 -5 0 -12 -6 -16 -8 -4 -9 -3 -5 4 4 7 2 12 -5 12 -9 0 -9 4 1 15 14
17 5 35 -18 36 -9 0 -3 5 13 10 17 5 44 7 60 4 19 -3 38 0 50 10 11 8 23 15
26 15 4 0 10 -41 14 -91z m62 39 c-3 -7 -5 -2 -5 12 0 14 2 19 5 13 2 -7 2
-19 0 -25z m-50 -10 c-3 -7 -5 -2 -5 12 0 14 2 19 5 13 2 -7 2 -19 0 -25z
m413 28 c0 -2 -7 -6 -15 -10 -8 -3 -15 -1 -15 4 0 6 7 10 15 10 8 0 15 -2 15
-4z m-16 -134 c47 -92 137 -145 255 -149 40 -1 76 -5 80 -9 3 -3 -37 -4 -89
-2 -98 5 -126 16 -206 75 -40 30 -72 95 -78 163 -5 50 -5 51 4 14 5 -23 20
-64 34 -92z m-361 34 c-4 -34 -2 -50 7 -56 7 -4 10 -15 7 -25 -15 -36 -27 1
-27 78 0 57 3 77 10 67 5 -8 7 -37 3 -64z m487 70 c0 -2 -9 -6 -20 -9 -11 -3
-18 -1 -14 4 5 9 34 13 34 5z m-116 -46 c-6 -5 -24 21 -24 34 0 6 6 1 14 -10
8 -10 12 -21 10 -24z m207 3 c34 -38 74 -94 82 -115 13 -35 -24 -18 -39 17
-11 26 -20 35 -38 35 -15 0 -33 12 -50 34 -27 35 -36 60 -14 38 17 -17 31 -15
24 3 -9 24 8 18 35 -12z m-91 7 c0 -5 -7 -7 -15 -4 -8 4 -15 8 -15 10 0 2 7 4
15 4 8 0 15 -4 15 -10z m-783 -54 c-1 -6 4 -10 10 -9 7 2 20 -9 30 -25 9 -15
26 -37 37 -49 36 -42 6 -24 -50 29 -30 28 -57 49 -60 46 -6 -7 142 -135 188
-163 18 -11 33 -28 33 -38 0 -18 42 -53 52 -43 3 3 14 1 25 -5 18 -10 19 -8
13 13 -5 18 -4 20 4 8 6 -8 11 -25 11 -36 0 -26 50 -59 200 -133 108 -52 151
-65 281 -84 63 -8 91 -7 165 7 174 35 223 38 208 15 -3 -5 7 -14 23 -20 16 -6
23 -13 15 -16 -6 -3 -9 -10 -6 -15 5 -8 -3 -9 -25 -5 -27 6 -33 3 -41 -18 -5
-14 -17 -25 -26 -25 -9 0 -42 -11 -73 -25 -112 -49 -256 -58 -366 -24 -37 11
-73 18 -80 16 -7 -3 -18 -26 -26 -52 -16 -53 -29 -68 -52 -59 -15 5 -15 10 -2
40 8 19 10 34 6 34 -5 0 -14 -13 -21 -30 -7 -16 -16 -30 -21 -30 -5 0 0 18 11
40 11 22 16 40 11 40 -6 0 -18 -16 -27 -35 -25 -53 -36 -53 -13 0 28 63 17 69
-15 8 -14 -26 -25 -42 -26 -35 0 7 7 27 16 43 8 17 13 36 11 42 -3 7 -14 -10
-26 -37 -12 -27 -24 -46 -27 -43 -3 3 3 26 15 51 11 25 15 46 10 46 -5 0 -18
-20 -29 -45 -26 -61 -33 -57 -9 6 28 72 18 86 -11 16 -13 -31 -27 -57 -32 -57
-4 0 3 25 17 55 30 69 17 73 -15 5 -13 -27 -27 -50 -32 -50 -5 0 3 22 17 50
28 54 29 60 16 60 -5 0 -18 -23 -30 -51 -13 -28 -24 -49 -27 -46 -2 2 5 26 16
52 11 26 18 50 15 53 -2 3 -15 -18 -28 -47 -12 -29 -26 -49 -29 -45 -4 3 4 29
18 56 14 27 23 55 21 61 -2 7 -16 -15 -31 -47 -14 -33 -29 -56 -33 -53 -3 4 6
30 20 58 30 56 31 59 19 59 -5 0 -19 -22 -32 -50 -13 -27 -27 -50 -32 -50 -5
0 3 23 17 51 15 28 24 56 22 62 -3 7 -17 -14 -31 -47 -15 -32 -29 -56 -32 -53
-3 3 7 28 21 57 34 68 25 77 -12 11 -15 -28 -32 -51 -36 -51 -5 0 5 25 23 56
40 72 31 83 -12 14 -39 -63 -51 -49 -14 16 30 54 32 61 11 44 -12 -10 -15 -9
-15 5 0 16 -2 16 -17 -2 -10 -10 -15 -14 -12 -8 3 5 9 19 12 30 7 21 9 24 -45
-48 -21 -27 -44 -11 -34 25 8 30 34 63 42 55 4 -4 2 -12 -4 -20 -12 -14 -34
-67 -28 -67 3 0 15 20 29 44 22 40 23 45 8 57 -83 69 -195 129 -241 129 -17 0
-29 4 -26 9 3 5 15 7 25 4 10 -3 22 0 25 6 5 7 -3 11 -18 11 -16 0 -26 6 -26
15 0 9 9 15 23 15 21 1 21 1 4 14 -16 13 -16 15 -2 30 15 15 15 16 -2 16 -14
1 -13 4 7 15 22 13 23 14 5 15 l-20 1 20 8 c11 5 23 7 28 4 4 -2 7 0 7 6 0 5
-9 11 -20 13 -20 3 -20 4 -4 27 14 19 23 22 53 18 l36 -6 -24 19 -23 20 26 0
c14 0 26 5 26 12 0 6 11 1 25 -12 13 -12 23 -28 22 -34z m750 30 c-3 -7 0 -19
6 -25 6 -6 7 -11 2 -11 -6 -1 4 -7 20 -15 25 -11 26 -14 9 -14 -27 -1 -67 41
-58 62 3 10 11 17 16 17 6 0 8 -6 5 -14z m-1027 -21 c0 -22 -3 -24 -19 -15
-11 5 -28 10 -38 10 -43 -1 -43 -4 -29 -239 8 -122 17 -225 20 -228 3 -4 6 0
6 9 0 18 37 54 46 45 4 -4 2 -12 -4 -20 -8 -10 -6 -16 9 -25 18 -11 19 -10 13
13 -7 28 7 33 26 11 6 -8 18 -12 26 -9 8 3 14 0 14 -5 0 -6 8 -13 18 -16 9 -2
0 -2 -20 1 -30 4 -38 2 -38 -10 0 -9 -6 -20 -13 -24 -8 -4 -19 -17 -25 -28
-10 -18 -11 -16 -12 17 0 20 -5 40 -11 44 -7 4 -10 -5 -9 -27 4 -65 -1 -76
-15 -39 l-13 35 -1 -66 c-1 -49 3 -68 13 -72 12 -5 13 1 9 29 -3 20 -1 34 5
34 5 0 13 -24 17 -52 3 -29 11 -63 18 -76 8 -18 8 -28 -1 -43 -7 -11 -8 -19
-2 -19 18 0 30 38 20 64 -6 17 -6 35 1 52 8 24 8 25 -6 14 -9 -7 -15 -8 -15
-2 0 24 13 42 31 42 12 0 21 10 25 28 10 42 33 62 71 62 23 0 36 -6 40 -17 4
-10 12 -22 20 -26 7 -4 13 -16 13 -25 -1 -16 -1 -16 -11 1 -5 9 -17 17 -25 17
-9 0 -12 -5 -8 -12 5 -7 2 -9 -8 -5 -19 7 -29 -21 -22 -60 4 -23 3 -25 -11
-13 -12 10 -15 10 -15 -4 0 -15 -2 -15 -27 1 l-28 17 22 -22 c24 -24 37 -60
31 -88 -6 -32 -25 -25 -38 16 -7 23 -17 43 -21 46 -4 2 -1 -16 8 -42 11 -34
12 -49 4 -57 -8 -8 -11 -8 -11 1 0 7 -4 12 -10 12 -5 0 -10 -8 -10 -19 0 -21
-25 -45 -38 -37 -5 3 -7 28 -4 55 2 28 1 58 -3 68 -5 10 -7 23 -6 30 1 8 -7 9
-28 3 -16 -4 -32 -6 -34 -3 -3 2 -8 0 -12 -6 -4 -7 5 -11 22 -11 28 0 62 -15
53 -23 -3 -2 -29 -7 -58 -10 -51 -6 -53 -5 -50 16 1 12 -2 28 -6 36 -11 17 18
41 48 41 13 0 16 3 10 8 -12 8 -22 92 -30 247 -3 55 -7 120 -9 145 -2 25 -4
83 -4 129 l-1 84 -50 -5 c-44 -5 -50 -3 -50 14 0 14 5 18 18 14 13 -4 178 6
215 13 4 0 7 -10 7 -24z m597 -17 c-3 -8 -6 -5 -6 6 -1 11 2 17 5 13 3 -3 4
-12 1 -19z m993 -70 c0 -22 -9 -23 -38 -2 -18 12 -20 19 -11 35 10 20 11 20
30 3 10 -9 19 -25 19 -36z m-574 11 c27 -3 32 -4 40 -11 4 -4 -1 -10 -10 -14
-20 -8 -57 22 -55 45 1 13 2 13 6 -1 2 -10 11 -19 19 -19z m559 -97 c-9 -10
-33 21 -41 53 -6 29 -6 29 20 -9 15 -21 24 -41 21 -44z m-471 62 c9 -3 16 -12
16 -20 0 -17 -2 -17 -35 -2 -42 19 -25 39 19 22z m418 -18 c3 -13 -1 -31 -8
-40 -10 -15 -15 -15 -33 -4 -18 11 -23 10 -38 -5 -17 -17 -17 -18 -1 -12 20 8
75 -30 58 -40 -5 -3 -10 -22 -10 -41 0 -39 -9 -43 -28 -13 -7 12 -16 19 -19
16 -2 -3 5 -19 18 -36 24 -33 20 -53 -6 -31 -26 22 -26 5 0 -20 14 -13 25 -18
25 -11 0 22 61 -22 66 -49 3 -14 12 -45 20 -70 22 -65 34 -134 39 -223 5 -88
12 -120 25 -112 5 3 5 16 0 31 -6 14 -10 46 -10 72 0 52 -23 182 -39 225 -6
16 -11 40 -10 55 1 25 17 -35 75 -273 22 -93 27 -102 66 -137 l43 -36 -26 -54
-26 -53 13 -210 c15 -258 17 -443 4 -555 -5 -47 -10 -113 -11 -147 -2 -43 -6
-63 -15 -63 -9 0 -11 74 -8 342 2 189 6 368 8 398 3 30 -2 80 -9 110 l-14 55
0 -70 c3 -520 -7 -835 -27 -835 -7 0 -16 -5 -19 -11 -5 -7 13 -9 52 -7 49 3
58 6 58 22 0 11 6 21 13 24 10 3 12 -8 10 -44 l-3 -49 -67 -3 c-39 -2 -68 -7
-68 -13 0 -7 26 -9 70 -7 67 3 88 -3 55 -16 -8 -3 -15 -10 -15 -15 0 -6 6 -8
14 -5 11 4 14 -6 12 -45 0 -28 -2 -51 -3 -51 -15 0 -36 18 -44 36 -4 13 -14
24 -21 23 -10 0 -10 -2 0 -6 6 -2 10 -8 7 -13 -8 -13 -84 33 -89 55 -7 30 10
574 19 583 4 4 4 -95 0 -220 -3 -137 -2 -228 3 -228 5 0 11 89 14 202 5 251
-3 654 -13 613 -7 -30 -7 -30 -8 7 -1 29 6 44 29 68 58 59 65 159 13 200 -15
12 -35 19 -44 17 -9 -3 -30 6 -45 18 l-29 23 23 40 c27 49 29 82 4 82 -14 0
-26 18 -45 68 -14 37 -28 82 -32 100 -4 18 -15 38 -26 45 -10 6 -19 16 -19 21
0 5 -6 17 -14 25 -21 24 -32 261 -12 261 8 0 27 14 43 30 34 36 49 38 55 6z
m162 -25 c30 -27 63 -52 75 -56 22 -7 25 -14 15 -39 -5 -14 -8 -14 -27 -1 -36
25 -44 16 -9 -11 17 -14 32 -33 32 -41 0 -14 -4 -13 -22 4 -13 11 -31 23 -40
26 -10 4 -18 15 -18 25 0 10 -9 27 -20 37 -11 10 -18 20 -15 23 9 10 -18 32
-39 32 -12 0 -27 9 -33 19 -13 20 -13 20 39 30 4 0 32 -21 62 -48z m-505 20
c7 -5 11 -13 7 -19 -8 -14 -46 -3 -46 14 0 16 18 18 39 5z m-669 -10 c0 -5 -7
-14 -15 -21 -11 -9 -12 -15 -2 -25 6 -7 18 -10 25 -8 8 4 10 -1 5 -13 -6 -17
-5 -17 10 -5 12 9 17 10 17 2 0 -27 -33 -22 -66 10 l-35 33 23 18 c25 19 38
23 38 9z m720 -1 c0 -5 -5 -10 -11 -10 -5 0 -7 5 -4 10 3 6 8 10 11 10 2 0 4
-4 4 -10z m30 0 c0 -5 -4 -10 -10 -10 -5 0 -10 5 -10 10 0 6 5 10 10 10 6 0
10 -4 10 -10z m-740 -30 c0 -5 -5 -10 -11 -10 -5 0 -7 5 -4 10 3 6 8 10 11 10
2 0 4 -4 4 -10z m1105 0 c3 -5 1 -10 -4 -10 -6 0 -11 5 -11 10 0 6 2 10 4 10
3 0 8 -4 11 -10z m-1051 -16 c3 -8 2 -12 -4 -9 -6 3 -10 10 -10 16 0 14 7 11
14 -7z m1014 5 c58 -14 69 -23 87 -66 8 -18 20 -33 28 -33 27 0 74 -70 61 -91
-15 -25 -125 69 -145 124 -7 21 -19 37 -27 37 -10 0 -8 -8 8 -30 18 -25 21
-47 25 -152 2 -68 6 -136 9 -153 5 -24 3 -23 -5 5 -6 19 -20 67 -31 105 -32
114 -48 154 -71 170 -18 12 -20 19 -11 33 7 10 22 16 35 15 22 -2 22 -2 -3 8
-16 6 -28 17 -28 25 0 17 8 17 68 3z m-1832 -92 c4 -12 2 -23 -3 -24 -6 -2 -3
-19 8 -41 24 -51 32 -82 21 -82 -5 0 -12 12 -15 28 -6 31 -43 82 -59 82 -7 0
-2 -10 9 -22 40 -44 61 -107 25 -75 -10 10 -34 17 -54 17 -22 0 -41 7 -53 20
-18 20 -18 21 12 49 23 21 39 27 60 24 27 -4 28 -4 5 9 -20 13 -21 15 -6 30
20 20 41 14 50 -15z m325 -20 c-25 -39 -27 -30 -4 18 10 20 19 32 21 26 2 -6
-6 -26 -17 -44z m63 19 c-6 -18 -5 -19 9 -8 14 12 16 11 14 -7 -2 -27 -47 -30
-47 -3 0 14 -2 15 -10 2 -13 -20 -12 -6 1 24 14 30 43 24 33 -8z m-354 4 c6
-12 10 -38 8 -58 -3 -33 -4 -35 -14 -17 -15 27 -25 95 -14 95 5 0 14 -9 20
-20z m1544 -9 c3 -5 -1 -12 -10 -15 -22 -9 -24 -8 -24 9 0 16 25 21 34 6z
m215 -58 c7 -25 10 -47 9 -49 -6 -5 -68 56 -68 67 0 6 5 19 11 30 15 29 34 10
48 -48z m-1296 20 c-1 -4 -4 -17 -8 -28 -6 -19 -6 -19 8 -2 19 23 30 22 17 -2
-16 -32 -11 -38 10 -11 14 19 22 22 30 14 9 -9 8 -20 -4 -43 -19 -35 -31 -41
-21 -10 5 15 4 19 -4 15 -13 -9 -91 50 -91 68 0 26 23 37 44 22 12 -8 20 -18
19 -23z m407 7 c0 -5 -5 -10 -11 -10 -5 0 -7 5 -4 10 3 6 8 10 11 10 2 0 4 -4
4 -10z m-815 -24 c9 -14 15 -37 13 -53 l-3 -28 -22 38 c-24 40 -29 67 -13 67
5 0 17 -11 25 -24z m857 -8 c-7 -7 -12 -8 -12 -2 0 14 12 26 19 19 2 -3 -1
-11 -7 -17z m969 6 c7 -8 25 -22 40 -30 l28 -14 -19 -43 c-14 -29 -20 -65 -20
-116 0 -65 -2 -72 -16 -61 -27 23 -34 48 -43 140 -11 125 -2 163 30 124z
m-1561 -19 c0 -16 -27 -32 -37 -22 -3 4 -3 13 0 22 8 20 37 20 37 0z m620 5
c0 -5 -5 -10 -11 -10 -5 0 -7 5 -4 10 3 6 8 10 11 10 2 0 4 -4 4 -10z m-540
-25 c14 -16 10 -18 -14 -9 -9 3 -16 10 -16 15 0 14 16 11 30 -6z m-352 -37
c13 -27 17 -44 11 -47 -16 -5 -47 30 -54 62 -11 44 18 34 43 -15z m964 20 c-7
-7 -12 -8 -12 -2 0 14 12 26 19 19 2 -3 -1 -11 -7 -17z m-1167 2 c3 -5 22 -10
42 -10 20 0 45 -8 55 -17 11 -10 34 -22 51 -28 18 -5 32 -14 32 -20 0 -5 4
-16 9 -24 7 -10 10 -10 16 -1 13 21 27 3 28 -35 1 -20 -3 -33 -7 -30 -5 3 -11
0 -13 -6 -3 -8 -13 -7 -35 5 -18 9 -38 16 -46 16 -16 0 -30 27 -21 41 9 16 27
10 58 -18 l29 -28 -22 33 c-21 31 -25 32 -89 32 -80 0 -112 8 -112 26 0 21 88
19 112 -3 10 -9 21 -14 24 -10 13 13 -49 39 -91 39 -41 -1 -45 1 -45 23 0 25
14 33 25 15z m498 -21 c-35 -7 -39 -4 -24 15 10 12 16 13 32 3 19 -11 18 -12
-8 -18z m-60 1 c-19 -22 -29 -19 -20 5 4 8 13 15 22 15 13 0 12 -3 -2 -20z
m787 -1 c-7 -11 -14 -19 -16 -16 -7 7 7 37 17 37 6 0 5 -9 -1 -21z m894 -40
c-7 -35 -10 -92 -7 -137 5 -63 3 -75 -8 -65 -8 8 -14 47 -17 105 -4 75 -1 98
13 125 27 49 33 40 19 -28z m-853 26 c6 16 8 17 8 3 1 -21 -11 -29 -28 -18 -9
5 -11 14 -6 26 8 17 9 16 13 -6 4 -23 5 -24 13 -5z m30 -28 c-8 -8 -11 -7 -11
4 0 9 3 19 7 23 4 4 9 2 11 -4 3 -7 -1 -17 -7 -23z m30 0 c-8 -8 -11 -7 -11 4
0 9 3 19 7 23 4 4 9 2 11 -4 3 -7 -1 -17 -7 -23z m26 1 c-3 -8 -6 -5 -6 6 -1
11 2 17 5 13 3 -3 4 -12 1 -19z m-827 2 c0 -5 -5 -10 -11 -10 -5 0 -7 5 -4 10
3 6 8 10 11 10 2 0 4 -4 4 -10z m221 -31 c-12 -19 -21 -30 -21 -26 0 14 31 69
36 64 3 -3 -4 -20 -15 -38z m647 29 c-2 -6 -10 -14 -16 -16 -7 -2 -10 2 -6 12
7 18 28 22 22 4z m19 -20 c-3 -8 -6 -5 -6 6 -1 11 2 17 5 13 3 -3 4 -12 1 -19z
m30 0 c-3 -8 -6 -5 -6 6 -1 11 2 17 5 13 3 -3 4 -12 1 -19z m50 0 c-3 -8 -6
-5 -6 6 -1 11 2 17 5 13 3 -3 4 -12 1 -19z m-773 -13 c-4 -8 -10 -15 -15 -15
-4 0 -6 7 -3 15 4 8 10 15 15 15 4 0 6 -7 3 -15z m-663 -11 c11 -6 18 -44 9
-44 -5 0 -25 9 -44 21 -20 12 -36 16 -36 10 0 -6 11 -13 25 -17 13 -3 29 -12
35 -19 8 -9 3 -14 -20 -19 -22 -4 -31 -11 -29 -23 3 -32 -1 -44 -11 -38 -5 3
-10 38 -10 76 l0 70 38 -7 c20 -4 40 -8 43 -10z m353 -33 c-8 -14 -14 -32 -14
-38 0 -7 -9 -13 -20 -13 -21 0 -27 15 -10 25 5 3 17 22 26 41 11 23 20 31 24
24 4 -7 1 -24 -6 -39z m179 17 c6 -22 5 -22 -8 -4 -17 22 -20 40 -6 32 5 -3
11 -16 14 -28z m-493 -16 c0 -7 -4 -10 -10 -7 -5 3 -10 16 -10 28 0 18 2 19
10 7 5 -8 10 -21 10 -28z m2037 -14 c-3 -8 -6 -5 -6 6 -1 11 2 17 5 13 3 -3 4
-12 1 -19z m-1497 2 c0 -5 -5 -10 -11 -10 -5 0 -7 5 -4 10 3 6 8 10 11 10 2 0
4 -4 4 -10z m1201 -10 c19 -11 26 -30 10 -30 -5 0 -19 9 -32 20 -26 21 -11 27
22 10z m-1680 -130 c-1 -69 -1 -123 2 -120 5 5 15 135 16 202 1 24 4 27 24 19
12 -4 28 -6 35 -4 23 9 12 -24 -13 -35 -21 -10 -24 -17 -21 -54 1 -24 8 -56
14 -71 7 -16 12 -38 13 -50 l0 -22 9 23 c7 17 17 22 45 22 44 0 46 -18 3 -22
-29 -3 -33 -7 -33 -30 1 -16 -3 -28 -7 -28 -4 0 -8 5 -8 11 0 6 -7 3 -16 -5
-8 -9 -22 -16 -29 -16 -8 0 -22 -11 -31 -25 -24 -37 -12 -109 27 -157 l30 -38
-2 -502 c-1 -276 -4 -508 -6 -515 -3 -7 -16 -13 -28 -13 -13 0 -27 -5 -31 -11
-3 -6 -17 -8 -30 -5 -16 4 -24 2 -24 -6 0 -7 -27 -23 -60 -35 l-60 -22 0 34
c0 18 6 36 12 38 10 4 10 8 -1 15 -17 12 3 27 24 18 10 -3 17 3 21 19 4 16 13
25 26 25 10 0 16 -5 13 -10 -3 -6 -1 -10 4 -10 6 0 11 7 11 15 0 12 13 15 55
15 44 0 55 3 55 16 0 12 -4 14 -13 6 -11 -9 -207 -17 -207 -8 0 2 3 12 6 20 5
13 9 14 20 5 12 -10 13 -9 8 5 -5 14 2 16 52 16 l59 0 -5 132 -4 133 -6 -90
-6 -90 -2 90 c-1 62 2 95 11 104 10 10 9 11 -4 6 -14 -5 -17 7 -23 77 -4 46
-12 87 -18 93 -7 7 -9 4 -5 -10 13 -46 26 -217 24 -317 -1 -58 1 -104 5 -101
5 2 8 -1 8 -6 0 -12 -11 -14 -32 -6 -10 4 -12 41 -10 177 2 94 -1 175 -5 179
-4 4 -6 -66 -5 -157 4 -168 -1 -194 -35 -194 -10 0 -11 5 -4 19 13 23 15 206
3 246 -6 21 -4 40 5 64 12 29 12 35 0 50 -25 27 -34 213 -26 526 2 84 4 72 10
-75 4 -120 12 -189 23 -220 15 -42 15 -42 11 -10 -3 19 -9 55 -14 80 -6 25
-10 124 -9 220 0 132 3 162 9 120 11 -74 23 -335 22 -495 0 -71 2 -107 4 -80
4 40 7 46 14 30 7 -14 8 -10 3 15 -3 19 -5 58 -4 87 0 28 -4 99 -10 158 -7 58
-9 113 -6 122 11 29 34 -17 46 -93 6 -38 13 -70 15 -73 2 -2 0 -12 -6 -23 -11
-21 -1 -388 11 -388 3 0 5 14 2 30 -6 40 9 38 28 -2 10 -23 14 -67 13 -143 0
-105 0 -107 8 -40 8 75 0 252 -11 221 -5 -16 -7 -16 -19 -2 -16 19 -36 240
-27 290 12 62 26 29 21 -47 l-4 -72 10 64 c9 53 8 69 -5 100 -18 40 -39 141
-31 149 11 11 26 -16 29 -52 2 -20 6 -39 10 -43 9 -10 7 38 -4 78 -6 22 -7 52
-2 75 9 38 9 38 17 -31 4 -38 11 -79 16 -90 11 -29 10 -2 -5 89 -7 44 -11 88
-9 97 3 11 -4 22 -17 29 -19 10 -20 9 -10 -7 14 -21 -1 -89 -18 -86 -5 1 -8
-7 -5 -17 4 -14 0 -20 -10 -20 -28 0 -59 126 -63 255 0 17 -2 53 -4 80 -2 43
-3 46 -9 20 l-7 -30 -12 34 c-17 47 -15 71 7 105 11 16 17 35 14 42 -5 15 3
19 55 28 31 5 32 5 33 -32 1 -20 3 -28 6 -17 2 11 6 30 9 43 3 17 10 22 27 20
21 -3 22 -6 18 -128z m574 59 c2 -30 7 -63 11 -74 6 -19 6 -19 -7 -2 -14 17
-16 17 -39 -4 -14 -11 -24 -26 -22 -31 1 -5 -2 -7 -7 -4 -5 4 -13 0 -18 -7
-16 -26 -123 -106 -136 -101 -7 2 -31 -9 -52 -26 -32 -25 -34 -30 -16 -30 11
0 26 9 33 20 14 23 39 25 71 9 32 -17 37 -28 36 -84 0 -43 -4 -53 -29 -73 -32
-25 -70 -37 -70 -21 0 5 11 14 25 19 14 5 31 25 40 46 13 32 13 37 0 51 -8 8
-15 11 -15 7 0 -3 -6 -1 -14 5 -22 18 -42 -10 -50 -71 -4 -29 -16 -68 -27 -86
-17 -30 -18 -35 -3 -57 13 -21 14 -27 1 -52 -19 -38 -29 -83 -18 -83 15 0 30
24 39 67 5 23 16 49 25 57 8 9 12 25 10 40 -3 16 -1 26 6 26 6 0 11 -17 11
-40 0 -39 1 -40 23 -29 12 6 32 21 45 32 l22 20 0 -21 c0 -12 -4 -22 -10 -22
-5 0 -10 -5 -10 -11 0 -5 5 -7 10 -4 6 4 10 -5 10 -19 0 -24 -4 -26 -39 -26
-22 0 -42 5 -44 13 -3 7 -6 5 -6 -5 -1 -15 8 -18 44 -18 51 0 62 -19 13 -22
l-33 -1 31 -4 c25 -3 33 -10 37 -31 7 -37 2 -42 -51 -44 l-47 -1 55 -7 c32 -4
43 -7 25 -9 -16 0 -39 -4 -51 -7 -21 -6 -21 -10 -26 -380 -3 -207 -9 -379 -14
-383 -5 -5 -67 -6 -139 -2 l-130 6 -2 475 c-1 261 1 487 4 503 6 36 19 34 28
-5 4 -18 9 -27 12 -20 7 17 23 15 23 -4 0 -14 2 -15 17 -3 13 11 17 11 20 1 3
-6 9 -10 14 -6 13 8 0 57 -22 75 -10 9 -15 19 -12 23 4 3 -1 6 -10 6 -14 0
-17 10 -17 48 0 55 -6 67 -41 81 -23 8 -28 6 -39 -15 -17 -31 -1 -70 35 -84
14 -5 25 -16 25 -24 0 -23 -18 -28 -29 -9 -6 10 -11 14 -11 9 0 -5 -13 7 -30
25 -21 24 -30 45 -30 69 0 74 51 101 117 60 24 -14 41 -17 70 -12 l38 7 -40 6
c-40 6 -40 6 12 8 28 0 58 4 67 7 28 11 17 23 -16 19 -91 -11 -138 -13 -134
-6 3 5 18 11 33 14 32 7 108 55 155 98 17 17 44 37 60 45 15 8 28 18 28 23 0
4 11 6 25 3 14 -2 25 -8 25 -13 0 -5 10 -8 23 -8 16 1 18 2 5 6 -24 6 -23 15
5 41 19 18 26 19 37 9 10 -10 12 -9 7 5 -3 9 1 22 9 28 8 7 14 24 14 38 0 48
21 8 25 -49z m-85 51 c0 -5 -4 -10 -10 -10 -5 0 -10 5 -10 10 0 6 5 10 10 10
6 0 10 -4 10 -10z m133 -15 c15 -13 27 -27 27 -30 0 -12 -24 -4 -36 13 -19 24
-18 -2 1 -39 15 -29 75 -63 85 -48 8 12 158 -63 163 -82 6 -23 68 -54 158 -79
80 -22 129 -26 129 -10 0 9 -28 15 -58 11 -6 -1 -20 3 -30 8 -13 8 -5 10 36
11 37 0 67 8 100 25 54 29 102 33 102 9 0 -10 -6 -13 -19 -9 -10 3 -24 -1 -31
-10 -7 -8 -23 -15 -36 -15 -13 0 -24 -5 -24 -12 0 -6 3 -8 7 -5 3 4 12 2 20
-4 10 -9 13 -8 13 1 0 7 7 10 15 6 8 -3 15 -2 15 3 0 12 54 11 61 -1 3 -5 14
-10 23 -12 9 -1 16 -6 16 -11 0 -5 -33 -8 -74 -7 -69 3 -165 -13 -153 -25 3
-3 29 1 57 8 44 11 53 11 60 -1 12 -19 -6 -26 -25 -10 -11 9 -15 9 -15 1 0 -6
6 -11 13 -11 8 0 7 -4 -3 -10 -11 -7 -18 -5 -26 5 -16 21 -26 18 -19 -5 4 -11
2 -20 -4 -20 -6 0 -11 7 -11 15 0 8 -4 15 -10 15 -13 0 -13 -13 0 -26 10 -10
-51 -84 -70 -84 -6 0 -9 -4 -5 -10 9 -15 -50 -40 -95 -40 -23 0 -55 7 -71 16
-17 8 -33 13 -36 10 -12 -11 60 -36 107 -36 65 0 93 15 156 83 43 48 60 58
121 77 68 21 72 21 124 4 30 -9 59 -21 66 -26 14 -11 37 -77 30 -85 -11 -11
-47 9 -47 26 0 20 -39 75 -47 67 -3 -3 2 -15 11 -28 25 -36 20 -58 -7 -27 -25
30 -87 63 -87 47 0 -6 -6 -6 -15 2 -9 8 -15 8 -15 2 0 -6 -8 -12 -17 -14 -13
-3 -7 -10 22 -25 l40 -21 -45 -21 c-62 -27 -83 -52 -139 -167 -27 -54 -58
-108 -68 -119 -10 -11 -22 -29 -26 -39 -7 -19 -8 -19 -22 0 -13 18 -14 16 -15
-18 0 -21 -4 -38 -10 -38 -5 0 -10 18 -10 40 0 22 -4 40 -10 40 -14 0 -13 -77
1 -86 7 -4 2 -16 -14 -33 -19 -21 -26 -40 -30 -96 -3 -42 -2 -62 3 -50 5 11 9
41 9 66 1 35 7 51 27 70 52 49 134 167 179 259 47 94 79 140 99 140 5 0 -2
-12 -16 -27 -42 -44 -58 -103 -28 -103 5 0 7 7 4 15 -5 11 -1 14 12 9 14 -4
16 -3 5 4 -22 16 4 55 32 47 17 -5 19 -4 7 4 -12 8 -12 13 4 30 14 16 23 18
37 10 12 -6 19 -6 19 0 0 5 -6 12 -12 15 -7 3 0 4 16 0 27 -5 28 -4 15 12 -12
16 -12 17 1 9 7 -5 31 -8 52 -6 39 2 92 -19 102 -41 3 -7 3 -2 0 11 -4 17 -3
21 6 16 6 -4 9 -17 6 -29 -3 -12 1 -46 9 -76 21 -79 17 -107 -4 -32 -10 34
-26 71 -36 82 -31 34 -82 24 -137 -28 -16 -14 -28 -20 -28 -14 0 16 91 81 113
82 10 0 28 -5 40 -11 21 -10 21 -10 3 5 -26 21 -48 20 -101 -5 -68 -32 -76
-46 -162 -279 -53 -145 -61 -177 -67 -281 -3 -53 -12 -114 -20 -135 -19 -56
-9 -71 20 -29 13 20 21 42 17 51 -4 10 1 22 11 30 18 13 68 176 61 197 -3 7 0
26 5 42 l10 30 -5 -32 c-2 -18 -3 -33 0 -33 4 0 24 68 24 83 0 4 7 15 16 23
14 15 12 39 -4 30 -15 -10 -33 13 -35 45 -4 49 2 53 29 20 19 -21 31 -27 50
-23 29 5 44 22 21 22 -14 0 -14 4 1 35 17 36 37 49 27 18 -3 -10 2 -7 10 7 18
30 20 40 5 40 -5 0 -8 -4 -5 -9 6 -9 -30 -24 -51 -22 -7 1 -13 -3 -13 -9 0 -6
5 -8 10 -5 15 10 12 -11 -4 -25 -8 -6 -12 -18 -9 -26 9 -23 -13 -16 -30 10
-28 43 -15 76 58 144 43 39 76 62 91 62 33 0 54 -36 53 -90 -1 -25 -4 -35 -6
-22 -5 26 -24 37 -73 45 l-35 6 34 -11 c31 -11 33 -14 28 -47 -4 -34 -4 -35 6
-8 6 15 15 27 19 27 11 0 -1 -49 -19 -78 -8 -13 -12 -26 -10 -29 3 -3 13 9 22
26 17 33 32 43 20 14 -4 -10 -8 -27 -9 -38 -5 -35 -76 -137 -92 -131 -8 3 -14
1 -14 -5 0 -5 -6 -9 -12 -8 -7 1 -22 1 -33 0 -18 -2 -18 -3 5 -15 21 -12 26
-12 37 3 19 25 16 -4 -6 -47 -27 -54 -76 -201 -69 -207 15 -15 88 18 119 53
56 61 109 178 121 262 18 138 28 153 23 40 -2 -58 -10 -124 -19 -147 -8 -24
-13 -43 -10 -43 8 0 -80 -112 -110 -139 -14 -13 -49 -32 -78 -41 -44 -15 -56
-25 -71 -55 -13 -27 -15 -41 -8 -48 6 -6 11 -19 11 -29 0 -10 5 -18 10 -18 6
0 10 -3 10 -7 0 -5 -15 -8 -32 -9 -18 0 -50 -4 -70 -8 -21 -4 -38 -5 -38 -2 0
9 44 29 80 37 34 7 34 7 5 8 -40 1 -95 -33 -95 -59 0 -11 5 -20 10 -20 6 0 10
4 10 8 0 5 22 14 48 21 55 14 98 3 109 -26 9 -24 29 -43 44 -43 17 0 74 -45
129 -102 l46 -48 146 0 146 0 62 -35 c34 -19 66 -35 71 -35 5 0 9 -4 9 -9 0
-9 -1069 -4 -1079 5 -2 2 8 21 23 42 30 43 66 163 66 218 l0 36 50 -7 c42 -6
49 -5 44 8 -3 8 4 33 15 56 33 63 30 66 -45 63 -43 -3 -70 0 -78 8 -8 9 -3 11
26 8 20 -2 34 0 31 5 -3 5 15 6 39 2 58 -9 67 3 73 101 4 62 3 74 -5 54 -23
-53 -98 -108 -140 -103 -3 0 -20 3 -39 7 -32 6 -33 5 -26 -22 3 -15 13 -40 21
-56 8 -16 12 -32 9 -34 -8 -9 -33 31 -28 44 5 14 -65 9 -110 -8 -21 -8 -31 -7
-45 4 -9 8 -46 25 -81 39 -71 27 -136 82 -146 122 -4 15 -10 27 -14 27 -8 0
-27 95 -37 184 -5 47 -4 57 6 51 10 -6 12 -2 7 16 -4 13 -7 42 -8 64 0 32 -2
36 -9 20 -7 -15 -9 -10 -9 24 -1 50 58 181 82 181 5 0 -1 -12 -12 -27 -29 -36
-18 -42 13 -7 13 16 20 31 15 32 -6 2 -4 11 3 20 11 13 10 14 -9 4 -33 -18
-38 -14 -12 8 13 10 19 19 13 20 -6 0 -21 -12 -35 -27 -13 -14 -18 -23 -11
-19 15 9 16 -10 1 -20 -6 -3 -19 -25 -28 -47 l-18 -42 -6 57 c-6 45 -3 69 13
111 24 65 39 79 104 101 60 20 57 20 49 -1 -6 -16 -5 -16 10 -4 23 18 21 31
-3 31 -26 0 -26 27 1 35 20 7 20 7 2 28 -18 20 -17 20 18 -1 48 -29 52 -28 35
7 -9 16 -12 31 -9 35 4 4 12 -8 17 -25 6 -18 22 -39 35 -48 24 -15 24 -15 17
12 l-7 28 38 -19 c21 -11 48 -22 59 -26 19 -6 21 -3 16 19 -4 21 -7 23 -19 14
-10 -9 -17 -9 -25 -1 -9 9 -9 12 0 12 7 0 12 5 12 11 0 5 -5 7 -11 4 -5 -4
-18 2 -28 14 -10 11 -20 18 -23 15 -9 -8 -137 27 -148 41 -9 11 -6 12 12 8
l23 -5 -22 19 c-19 16 -49 113 -34 113 3 0 18 -12 34 -25z m1017 16 c0 -5 14
-14 31 -20 17 -6 28 -15 24 -21 -3 -5 0 -7 9 -4 16 6 36 -24 36 -53 -1 -17 -1
-17 -11 0 -5 9 -16 17 -24 17 -25 0 -95 -41 -95 -56 0 -8 -7 -17 -15 -20 -8
-4 -15 -12 -15 -20 0 -8 -4 -14 -8 -14 -14 0 -32 23 -32 42 0 10 -4 18 -10 18
-5 0 -10 5 -10 11 0 5 5 7 11 3 9 -5 10 3 5 30 -5 24 -3 36 4 36 6 0 8 -4 5
-10 -3 -5 -1 -10 4 -10 14 0 14 17 1 25 -16 10 12 32 37 29 14 -1 23 3 23 12
0 8 7 14 15 14 8 0 15 -4 15 -9z m-1190 -18 c-1 -10 -7 -31 -16 -48 -12 -26
-14 -27 -9 -5 2 14 5 35 5 48 0 12 5 22 10 22 6 0 10 -8 10 -17z m-73 -15 c-3
-8 -6 -5 -6 6 -1 11 2 17 5 13 3 -3 4 -12 1 -19z m1537 -48 c8 -8 18 -28 21
-43 4 -15 16 -32 26 -38 16 -8 19 -21 19 -76 l0 -67 -45 44 c-27 26 -49 60
-55 80 -23 91 -37 160 -32 164 3 3 16 -7 29 -22 13 -15 30 -34 37 -42z m-1544
8 c0 -6 -7 -5 -15 2 -8 7 -15 17 -15 22 0 6 7 5 15 -2 8 -7 15 -17 15 -22z
m1130 17 c0 -9 -6 -12 -15 -9 -8 4 -15 2 -15 -2 0 -5 -13 -9 -29 -9 -35 0 -32
5 12 21 44 16 47 16 47 -1z m477 -17 c-3 -7 -5 -2 -5 12 0 14 2 19 5 13 2 -7
2 -19 0 -25z m-1294 -3 c-7 -21 -13 -19 -13 6 0 11 4 18 10 14 5 -3 7 -12 3
-20z m-215 3 c-2 -6 -10 -14 -16 -16 -7 -2 -10 2 -6 12 7 18 28 22 22 4z m674
-15 c4 -2 3 -15 -2 -28 -6 -16 -6 -25 0 -25 6 0 10 9 10 19 0 11 5 23 11 26 7
5 9 -3 7 -21 -2 -23 -9 -30 -38 -35 -45 -9 -50 -5 -40 31 5 17 5 30 0 30 -5 0
-11 -13 -15 -30 -4 -16 -10 -30 -15 -30 -5 0 -5 14 0 30 5 17 5 30 0 30 -5 0
-11 -13 -15 -30 -4 -16 -11 -30 -16 -30 -12 0 -12 1 6 45 16 36 17 36 58 30
23 -4 45 -9 49 -12z m586 -42 c15 -47 16 -111 2 -111 -5 0 -10 15 -10 33 -1
17 -7 49 -14 69 -13 35 -12 48 4 48 4 0 12 -17 18 -39z m252 7 c0 -21 -3 -29
-10 -22 -5 5 -7 19 -4 32 9 31 14 27 14 -10z m-787 -8 c-7 -28 -13 -25 -13 6
0 14 4 23 9 20 5 -3 7 -15 4 -26z m47 13 c0 -10 -4 -14 -8 -8 -4 6 -11 13 -16
18 -5 4 -2 7 7 7 10 0 17 -8 17 -17z m255 7 c-4 -6 -11 -7 -17 -4 -6 4 -6 0 1
-13 11 -22 6 -33 -15 -33 -9 0 -11 6 -7 18 6 15 5 15 -10 3 -26 -20 -30 -8 -7
17 20 22 67 32 55 12z m206 -51 c12 -47 8 -79 -11 -79 -5 0 -10 15 -10 33 0
17 -4 46 -9 64 -9 32 -4 50 10 36 4 -5 13 -29 20 -54z m-434 29 c-3 -8 -6 -5
-6 6 -1 11 2 17 5 13 3 -3 4 -12 1 -19z m-427 2 c0 -5 -5 -10 -11 -10 -5 0 -7
5 -4 10 3 6 8 10 11 10 2 0 4 -4 4 -10z m826 -57 c3 -18 3 -40 0 -49 -9 -24
-26 -6 -26 27 0 17 -5 39 -10 50 -6 11 -8 25 -4 31 10 16 32 -17 40 -59z
m-796 46 c0 -5 5 -7 10 -4 6 4 45 -1 85 -10 l75 -16 0 -45 c0 -24 -4 -44 -10
-44 -5 0 -10 19 -10 43 -1 38 -2 40 -15 24 -13 -18 -14 -17 -18 5 -3 15 -5 10
-6 -14 -1 -48 -21 -50 -21 -2 0 19 -4 33 -9 30 -4 -3 -6 -17 -3 -31 2 -15 0
-25 -7 -25 -6 0 -11 15 -11 33 0 26 -4 33 -20 34 -14 1 -20 -4 -20 -19 0 -14
5 -18 15 -14 16 6 21 -9 6 -18 -4 -3 -20 8 -35 24 -26 30 -34 60 -16 60 6 0
10 -5 10 -11z m905 -20 c-19 -35 -30 -32 -21 6 4 14 13 25 21 25 14 0 14 -4 0
-31z m-1605 -8 c0 -14 -11 -19 -55 -22 -32 -3 -40 0 -43 14 -3 14 4 17 47 17
28 0 51 -4 51 -9z m490 -6 c0 -8 -2 -15 -4 -15 -2 0 -6 7 -10 15 -3 8 -1 15 4
15 6 0 10 -7 10 -15z m600 5 c0 -5 -4 -10 -10 -10 -5 0 -10 5 -10 10 0 6 5 10
10 10 6 0 10 -4 10 -10z m-645 -68 c-9 -9 -23 11 -30 43 l-7 30 22 -34 c11
-18 19 -36 15 -39z m115 42 c0 -8 -4 -14 -10 -14 -5 0 -10 9 -10 21 0 11 5 17
10 14 6 -3 10 -13 10 -21z m346 10 c-3 -9 -6 -25 -6 -35 0 -11 -4 -17 -10 -14
-17 11 -12 65 6 65 11 0 14 -5 10 -16z m111 -16 c-3 -7 -5 -2 -5 12 0 14 2 19
5 13 2 -7 2 -19 0 -25z m435 -18 c2 -29 -1 -35 -17 -37 -23 -3 -62 23 -52 34
4 4 13 1 19 -5 20 -20 31 -14 24 13 -7 28 2 52 14 38 5 -4 10 -24 12 -43z
m-58 11 c-2 -3 -12 3 -22 13 -16 17 -16 18 5 5 12 -7 20 -15 17 -18z m-1047
-3 c-3 -8 -6 -5 -6 6 -1 11 2 17 5 13 3 -3 4 -12 1 -19z m-27 -8 c0 -5 -5 -10
-11 -10 -5 0 -7 5 -4 10 3 6 8 10 11 10 2 0 4 -4 4 -10z m929 -1 c17 -6 31
-15 31 -20 0 -9 -47 8 -64 23 -13 11 -5 10 33 -3z m-1572 -31 c-3 -7 -5 -2 -5
12 0 14 2 19 5 13 2 -7 2 -19 0 -25z m311 5 c-2 -10 -13 -19 -26 -21 -17 -3
-22 2 -22 17 0 16 6 21 26 21 19 0 25 -5 22 -17z m1402 -4 c24 -18 36 -21 72
-14 79 13 116 13 137 -1 11 -8 18 -21 15 -29 -7 -17 11 -21 21 -5 19 30 72 -5
75 -50 6 -66 0 -80 -42 -110 -37 -27 -43 -29 -51 -14 -6 10 -5 20 2 27 6 6 11
26 11 44 0 18 5 33 10 33 17 0 24 -31 11 -51 -15 -24 1 -25 23 -1 9 11 14 29
12 43 -3 13 -5 27 -5 32 -2 13 -52 8 -67 -7 -8 -8 -14 -25 -14 -38 0 -18 -2
-20 -10 -8 -8 12 -10 11 -10 -7 0 -13 -4 -23 -10 -23 -5 0 -10 -4 -10 -10 0
-5 7 -10 15 -10 12 0 10 -7 -9 -26 -15 -17 -23 -34 -19 -48 2 -12 5 -28 5 -36
1 -8 5 -18 11 -21 14 -10 -1 -79 -19 -86 -24 -9 -65 19 -71 48 -3 16 -10 26
-17 23 -7 -3 -17 14 -24 41 -9 35 -20 50 -47 66 -44 27 -85 108 -76 152 10 47
49 58 104 29 68 -36 78 -25 12 13 -38 22 -63 31 -69 25 -6 -6 -17 -10 -25 -10
-11 0 -10 4 5 16 19 15 18 15 -3 11 -22 -5 -30 3 -16 16 13 13 44 7 73 -14z
m-135 -9 c38 -25 30 -25 -21 0 -21 10 -32 19 -24 20 8 0 29 -9 45 -20z m-940
-8 c-3 -3 -11 0 -18 7 -9 10 -8 11 6 5 10 -3 15 -9 12 -12z m69 -3 c-3 -5 -10
-7 -15 -3 -5 3 -7 10 -3 15 3 5 10 7 15 3 5 -3 7 -10 3 -15z m-707 -21 c-3 -8
-6 -5 -6 6 -1 11 2 17 5 13 3 -3 4 -12 1 -19z m673 12 c0 -5 -5 -10 -11 -10
-5 0 -7 5 -4 10 3 6 8 10 11 10 2 0 4 -4 4 -10z m904 -11 c15 -12 25 -24 22
-26 -3 -3 -19 6 -36 21 -37 31 -25 35 14 5z m-970 -4 c-4 -8 -8 -15 -10 -15
-2 0 -4 7 -4 15 0 8 4 15 10 15 5 0 7 -7 4 -15z m36 -5 c0 -5 -5 -10 -11 -10
-5 0 -7 5 -4 10 3 6 8 10 11 10 2 0 4 -4 4 -10z m914 -19 c17 -19 17 -19 -3
-14 -12 3 -21 12 -21 19 0 18 4 18 24 -5z m-894 6 c0 -2 -10 -12 -22 -23 l-23
-19 19 23 c18 21 26 27 26 19z m790 -7 c0 -5 -9 -10 -20 -10 -11 0 -20 5 -20
10 0 6 9 10 20 10 11 0 20 -4 20 -10z m678 -112 c-3 -53 -18 -62 -36 -23 -16
35 -15 48 5 84 17 29 18 29 26 9 4 -12 6 -43 5 -70z m-1869 34 c6 -10 6 -24 1
-32 -7 -12 -12 -11 -29 4 -12 11 -21 25 -21 33 0 19 38 16 49 -5z m271 2 c0
-24 -19 -54 -35 -54 -15 0 -22 50 -8 63 13 13 43 7 43 -9z m987 -44 c-2 -24
-17 -15 -17 11 0 11 4 18 9 14 6 -3 9 -14 8 -25z m393 -75 c-7 -8 -17 -15 -23
-15 -5 0 -2 9 8 20 21 23 35 19 15 -5z m204 17 c6 -10 9 -213 5 -362 l-2 -105
-7 135 c-5 74 -11 181 -14 238 -4 61 -2 102 3 102 6 0 12 -4 15 -8z m-1810
-28 c23 -23 19 -40 -4 -19 -11 10 -20 22 -20 27 0 12 7 10 24 -8z m160 -8 c-6
-16 -24 -23 -24 -8 0 10 22 33 27 28 2 -2 1 -11 -3 -20z m1506 6 c0 -4 -4 -12
-9 -17 -13 -15 -25 -309 -12 -300 8 4 11 -32 11 -115 0 -69 -4 -119 -9 -116
-5 3 -14 -23 -20 -57 -19 -108 -11 -162 9 -66 7 32 8 -6 7 -136 -2 -99 -6
-186 -11 -193 -9 -15 -242 -17 -251 -2 -3 6 1 10 9 10 14 0 16 18 16 118 0 79
-3 112 -10 102 -5 -8 -10 -60 -10 -114 0 -55 -3 -97 -6 -94 -3 4 -2 109 2 235
4 125 11 217 15 203 6 -20 7 -16 8 20 0 31 -2 41 -9 30 -6 -9 -9 13 -8 65 0
44 2 74 5 68 7 -18 23 -16 23 2 0 8 -4 15 -10 15 -5 0 -10 11 -10 25 0 14 3
25 8 25 4 0 8 52 10 116 1 64 7 124 12 133 7 11 8 -13 5 -74 -5 -94 -1 -104
10 -22 l6 48 40 -36 c30 -27 46 -34 62 -30 31 9 66 53 78 100 5 22 12 46 14
53 5 13 25 17 25 4z m-64 -27 c-9 -9 -16 -13 -16 -8 0 12 22 34 28 28 2 -2 -3
-11 -12 -20z m-199 -97 c-2 -13 -4 -3 -4 22 0 25 2 35 4 23 2 -13 2 -33 0 -45z
m274 -149 c-8 -21 -9 -18 -7 16 2 22 5 67 7 100 l3 60 3 -76 c2 -41 -1 -86 -6
-100z m-631 -119 c0 -11 -4 -20 -9 -20 -5 0 -7 9 -4 20 3 11 7 20 9 20 2 0 4
-9 4 -20z m-23 -62 c-3 -7 -5 -2 -5 12 0 14 2 19 5 13 2 -7 2 -19 0 -25z
m-1334 -60 c-5 -13 -8 -34 -6 -48 1 -14 5 -56 7 -95 5 -67 4 -68 -5 -20 -5 28
-12 88 -15 135 -6 81 -5 84 12 68 14 -14 15 -22 7 -40z m1350 10 c-9 -49 -25
-82 -18 -39 3 18 5 42 5 52 0 11 4 19 10 19 5 0 7 -14 3 -32z m767 -166 c-11
-16 -11 -16 -6 1 3 10 7 49 8 85 l2 67 3 -68 c2 -39 -1 -74 -7 -85z m-2131
-64 c-1 -50 -4 -71 -8 -54 -6 29 -2 136 5 136 2 0 3 -37 3 -82z m1311 67 c0
-8 -4 -15 -10 -15 -5 0 -7 7 -4 15 4 8 8 15 10 15 2 0 4 -7 4 -15z m-243 -40
c20 -19 37 -45 39 -57 2 -13 6 -38 8 -57 7 -46 0 -54 -34 -36 -37 19 -99 19
-124 0 -40 -30 -50 -9 -13 26 12 12 16 18 9 14 -10 -5 -13 -2 -10 10 4 24 73
48 120 42 35 -5 37 -4 27 15 -12 22 -30 31 -68 32 -17 1 -25 6 -23 15 2 11 -2
11 -22 -2 -18 -12 -26 -13 -29 -4 -4 14 29 35 61 36 14 1 38 -13 59 -34z
m1067 -22 c-2 -21 -3 -51 -3 -66 -1 -18 -6 -27 -13 -24 -22 7 -6 127 17 127 1
0 1 -17 -1 -37z m-1074 -12 c0 -5 -17 -11 -37 -14 -21 -3 -49 -8 -63 -12 l-25
-7 24 21 c24 21 101 30 101 12z m-140 -92 c-28 -51 16 -169 87 -236 13 -12 23
-25 23 -28 0 -3 -226 -5 -501 -5 -299 1 -498 5 -493 10 5 5 48 23 94 41 81 29
91 31 226 30 139 -2 194 7 194 30 0 66 214 174 353 178 25 1 27 -1 17 -20z
m158 -39 c28 -17 33 -25 28 -45 -14 -54 -26 -76 -38 -69 -10 6 -9 3 0 -9 12
-14 10 -16 -25 -12 -27 3 -31 3 -14 -3 31 -9 34 -22 15 -47 -15 -20 -16 -19
-44 15 -32 39 -28 48 22 60 l33 8 -30 1 c-17 1 -36 -4 -43 -11 -14 -14 -38 4
-28 21 12 18 75 31 103 20 23 -8 24 -8 13 6 -16 19 -51 19 -97 0 -20 -8 -38
-13 -41 -10 -10 10 22 35 59 46 32 10 42 9 64 -5 15 -10 29 -15 32 -12 3 3
-11 13 -31 23 -35 16 -40 16 -82 1 -54 -19 -56 -2 -3 24 44 23 66 23 107 -2z
m-1044 -85 c-7 -17 -7 -17 -28 -9 -24 9 -19 24 9 24 18 0 23 -4 19 -15z m16
-170 c0 -18 20 -20 21 -2 0 8 2 8 6 -2 5 -11 7 -11 14 0 6 9 9 -1 9 -28 0 -24
5 -43 10 -43 6 0 10 20 10 45 0 25 5 45 10 45 6 0 10 -8 10 -17 0 -15 2 -14
15 3 14 18 14 17 15 -13 0 -17 5 -35 10 -38 6 -4 10 8 10 29 0 20 5 36 10 36
6 0 10 -21 10 -47 0 -89 15 -105 20 -23 l5 75 12 -45 11 -45 1 43 c1 23 6 42
11 42 12 0 13 -15 10 -90 -2 -63 -19 -106 -20 -51 0 19 -3 31 -7 27 -8 -8 -9
-13 -12 -41 -1 -12 -22 -15 -126 -15 l-125 0 0 66 c0 43 5 70 14 80 11 11 16
11 19 1 3 -7 6 -5 6 6 1 21 21 23 21 2z m268 -88 c0 -26 2 -51 6 -54 3 -3 6
31 6 77 0 105 18 97 23 -10 l3 -75 2 83 c1 47 6 82 12 82 6 0 10 -10 10 -22 1
-23 1 -23 15 2 8 14 14 19 15 11 0 -12 3 -12 12 -3 18 18 77 15 85 -4 5 -15 7
-15 15 0 19 33 28 14 28 -59 0 -46 4 -75 11 -75 6 0 9 26 8 72 -2 48 2 73 9
76 9 3 12 -19 12 -72 0 -44 4 -76 10 -76 6 0 10 30 10 70 0 40 4 70 10 70 6 0
10 -35 10 -86 l0 -85 -167 3 c-125 3 -168 7 -167 16 1 6 2 47 3 90 2 63 4 72
12 47 5 -16 8 -51 7 -78z m352 67 c0 -13 5 -24 11 -24 6 0 9 12 7 27 -2 20 2
29 15 31 15 3 17 -6 17 -79 0 -45 3 -79 6 -76 7 6 8 19 12 115 3 73 22 37 24
-46 l2 -77 5 80 c5 67 9 80 25 83 29 6 39 -13 46 -90 l7 -73 2 70 c2 88 8 97
57 93 32 -2 40 -7 42 -26 4 -27 22 -19 23 11 1 16 4 12 12 -13 l11 -35 6 35 7
35 2 -32 c1 -40 20 -44 22 -5 2 23 2 24 6 5 6 -31 23 -29 23 2 0 14 5 25 10
25 6 0 10 -10 10 -22 0 -13 5 -30 10 -38 7 -11 10 -5 10 23 0 49 16 48 24 -3
3 -22 10 -40 15 -40 6 0 7 16 4 35 -4 23 -2 35 6 35 6 0 11 -9 11 -20 0 -11 5
-20 10 -20 6 0 10 12 10 26 0 14 4 23 10 19 6 -3 10 -24 10 -46 0 -24 4 -38
10 -34 6 3 10 25 10 48 0 29 3 38 11 30 6 -6 11 -43 11 -82 0 -39 4 -71 9 -71
5 0 9 36 9 81 l0 80 140 -2 c77 -1 143 -6 146 -11 3 -5 6 -35 5 -66 0 -40 3
-52 9 -42 5 8 10 36 10 63 l0 47 95 0 95 0 2 -32 1 -33 4 33 c5 39 23 43 23 5
0 -16 5 -35 10 -43 7 -11 10 -4 10 28 0 46 20 60 21 15 0 -16 4 -37 9 -48 7
-16 9 -13 9 16 1 41 27 72 41 50 5 -9 10 -10 14 -2 10 15 53 14 60 -1 5 -10 7
-10 12 1 5 11 8 11 15 0 6 -11 11 -11 21 -1 18 18 27 15 21 -8 -4 -16 -14 -20
-45 -20 -23 0 -37 -4 -33 -10 3 -6 22 -10 41 -10 19 0 34 -4 34 -10 0 -5 -19
-10 -42 -10 -23 0 -38 -3 -35 -7 6 -6 17 -8 67 -13 11 -1 9 -4 -5 -10 -15 -7
-16 -9 -4 -9 9 -1 20 -11 24 -23 l8 -23 4 23 c4 18 11 22 45 22 32 0 39 -3 34
-16 -3 -9 -6 -20 -6 -25 0 -5 -38 -9 -85 -9 -81 0 -85 1 -86 23 l-2 22 -4 -23
c-6 -29 -23 -18 -24 16 -1 26 -1 26 -10 -5 -9 -30 -13 -33 -47 -33 -21 0 -43
5 -50 12 -9 9 -12 9 -12 0 0 -7 -5 -12 -10 -12 -6 0 -8 15 -4 40 4 27 3 40 -5
40 -6 0 -11 -16 -11 -35 0 -19 -3 -36 -7 -36 -52 -8 -58 -5 -61 39 -2 23 -7
40 -12 37 -4 -3 -6 -24 -3 -46 5 -33 3 -41 -8 -37 -9 3 -13 18 -10 47 2 29 -1
41 -8 37 -6 -4 -11 -24 -11 -45 l0 -37 -42 2 c-108 4 -98 -3 -99 62 l-2 57 -7
-50 c-4 -27 -5 -53 -3 -57 2 -5 -1 -8 -6 -8 -6 0 -12 23 -13 53 l-2 52 -3 -52
c-3 -37 -8 -53 -18 -53 -10 0 -14 12 -13 40 0 23 -2 44 -6 47 -3 4 -6 -14 -6
-38 0 -39 -3 -44 -23 -45 -20 -1 -23 2 -19 22 2 14 0 24 -7 24 -6 0 -11 -11
-11 -25 0 -34 -20 -32 -21 3 l-2 27 -4 -26 c-5 -31 -21 -37 -79 -31 -35 3 -41
7 -37 23 3 10 0 19 -6 19 -6 0 -11 -9 -11 -20 0 -11 -3 -20 -7 -20 -5 -1 -25
-3 -46 -6 -22 -3 -44 -1 -52 6 -8 7 -15 7 -19 1 -4 -6 -18 -6 -35 -1 -16 4
-31 6 -34 4 -2 -3 -34 -7 -71 -10 l-66 -5 0 30 c0 17 -4 31 -10 31 -5 0 -7
-13 -3 -30 l6 -30 -111 0 -111 0 -3 33 c-5 54 3 147 13 141 5 -3 9 -16 9 -30z
m1464 18 c3 -5 3 -18 -1 -30 -4 -16 -8 -18 -18 -9 -7 7 -10 17 -8 24 2 6 -4
13 -14 16 -12 3 -9 5 9 6 15 0 29 -3 32 -7z m-31 -49 c-7 -2 -21 -2 -30 0 -10
3 -4 5 12 5 17 0 24 -2 18 -5z m-3 -17 c0 -2 -7 -7 -16 -10 -8 -3 -12 -2 -9 4
6 10 25 14 25 6z m18 -33 c-10 -2 -28 -2 -40 0 -13 2 -5 4 17 4 22 1 32 -1 23
-4z"/>
<path d="M968 3743 c19 -4 22 -11 22 -54 0 -42 -3 -51 -22 -59 -15 -6 27 -8
122 -8 80 1 128 3 108 5 -21 2 -38 9 -38 14 0 23 43 91 63 99 14 6 -31 8 -128
8 -82 0 -140 -3 -127 -5z m117 -53 c14 -27 25 -52 25 -55 0 -3 -20 -5 -45 -5
l-45 0 0 48 c0 80 28 85 65 12z m85 41 c0 -5 -7 -25 -16 -46 -17 -41 -24 -39
-48 18 l-15 37 40 0 c21 0 39 -4 39 -9z"/>
<path d="M438 3519 c-12 -6 -18 -22 -18 -44 0 -28 6 -37 30 -50 38 -19 68 -11
80 21 22 57 -38 105 -92 73z m51 -9 c25 -13 33 -37 21 -61 -12 -21 -40 -25
-58 -7 -15 15 -15 51 0 66 14 14 15 14 37 2z"/>
<path d="M372 3398 c-15 -15 -16 -45 -2 -53 16 -10 41 16 38 38 -4 25 -20 31
-36 15z"/>
<path d="M470 3362 c0 -16 -7 -37 -15 -48 -17 -22 -19 -34 -5 -34 14 0 40 55
40 85 0 14 -4 25 -10 25 -5 0 -10 -13 -10 -28z"/>
<path d="M591 3274 c0 -11 3 -14 6 -6 3 7 2 16 -1 19 -3 4 -6 -2 -5 -13z"/>
<path d="M680 3270 c0 -5 5 -10 10 -10 6 0 10 5 10 10 0 6 -4 10 -10 10 -5 0
-10 -4 -10 -10z"/>
<path d="M721 3264 c0 -11 3 -14 6 -6 3 7 2 16 -1 19 -3 4 -6 -2 -5 -13z"/>
<path d="M860 3270 c0 -5 5 -10 10 -10 6 0 10 5 10 10 0 6 -4 10 -10 10 -5 0
-10 -4 -10 -10z"/>
<path d="M581 3184 c0 -11 3 -14 6 -6 3 7 2 16 -1 19 -3 4 -6 -2 -5 -13z"/>
<path d="M699 3188 c-4 -39 -1 -100 5 -105 3 -3 6 21 6 55 0 34 -2 62 -5 62
-3 0 -5 -6 -6 -12z"/>
<path d="M941 3184 c0 -11 3 -14 6 -6 3 7 2 16 -1 19 -3 4 -6 -2 -5 -13z"/>
<path d="M964 3189 c-3 -6 1 -18 10 -27 15 -15 17 -15 33 1 14 14 15 19 4 29
-10 11 -12 10 -9 -1 2 -8 -6 -17 -16 -19 -14 -3 -17 0 -13 12 7 18 2 21 -9 5z"/>
<path d="M890 3155 c0 -10 7 -15 18 -13 21 4 19 22 -2 26 -10 2 -16 -3 -16
-13z"/>
<path d="M583 3110 c0 -30 2 -43 4 -27 2 15 2 39 0 55 -2 15 -4 2 -4 -28z"/>
<path d="M534 3074 c3 -9 6 -47 6 -85 0 -40 4 -69 10 -69 6 0 9 22 6 58 -2 31
-5 69 -5 85 -1 15 -6 27 -12 27 -6 0 -8 -7 -5 -16z"/>
<path d="M904 3049 c-4 -6 -7 -30 -7 -53 1 -22 -4 -47 -10 -54 -12 -15 -1 -30
13 -16 7 7 20 134 13 134 -1 0 -5 -5 -9 -11z"/>
<path d="M573 2920 c0 -25 2 -35 4 -22 2 12 2 32 0 45 -2 12 -4 2 -4 -23z"/>
<path d="M652 2860 c0 -14 2 -19 5 -12 2 6 2 18 0 25 -3 6 -5 1 -5 -13z"/>
<path d="M671 2864 c0 -11 3 -14 6 -6 3 7 2 16 -1 19 -3 4 -6 -2 -5 -13z"/>
<path d="M590 2839 c0 -5 5 -7 10 -4 6 3 10 8 10 11 0 2 -4 4 -10 4 -5 0 -10
-5 -10 -11z"/>
<path d="M259 2804 c-17 -21 0 -49 31 -49 31 0 48 28 31 49 -8 9 -21 16 -31
16 -10 0 -23 -7 -31 -16z m48 -10 c8 -21 -13 -42 -28 -27 -13 13 -5 43 11 43
6 0 13 -7 17 -16z"/>
<path d="M555 2760 c4 -6 11 -8 16 -5 14 9 11 15 -7 15 -8 0 -12 -5 -9 -10z"/>
<path d="M520 2730 c0 -5 5 -10 10 -10 6 0 10 5 10 10 0 6 -4 10 -10 10 -5 0
-10 -4 -10 -10z"/>
<path d="M378 2333 c7 -3 16 -2 19 1 4 3 -2 6 -13 5 -11 0 -14 -3 -6 -6z"/>
<path d="M1874 3346 c-7 -30 1 -46 24 -45 11 0 12 3 5 6 -7 2 -13 12 -13 21 0
13 2 14 9 3 6 -9 10 -10 16 -2 7 12 -11 41 -26 41 -5 0 -11 -11 -15 -24z"/>
<path d="M1598 3190 c2 -22 6 -40 8 -40 2 0 4 18 4 40 0 22 -3 40 -8 40 -4 0
-6 -18 -4 -40z"/>
<path d="M1623 3110 c0 -47 2 -66 4 -42 2 23 2 61 0 85 -2 23 -4 4 -4 -43z"/>
<path d="M1621 2944 c0 -11 3 -14 6 -6 3 7 2 16 -1 19 -3 4 -6 -2 -5 -13z"/>
<path d="M1390 2869 c0 -5 5 -7 10 -4 6 3 10 8 10 11 0 2 -4 4 -10 4 -5 0 -10
-5 -10 -11z"/>
<path d="M1618 2805 c-1 -30 0 -55 5 -55 4 0 7 25 7 55 0 71 -7 71 -12 0z"/>
<path d="M1071 3206 c-15 -18 -4 -46 19 -46 29 0 43 25 25 44 -20 20 -29 20
-44 2z m37 -19 c2 -10 -3 -17 -12 -17 -10 0 -16 9 -16 21 0 24 23 21 28 -4z"/>
<path d="M1182 3188 c4 -30 41 -32 46 -3 2 18 2 18 -8 3 -6 -10 -15 -18 -20
-18 -15 0 -12 28 3 33 7 3 4 6 -6 6 -14 1 -18 -5 -15 -21z"/>
<path d="M975 2929 c-4 -6 -5 -12 -2 -15 2 -3 7 2 10 11 7 17 1 20 -8 4z"/>
<path d="M1020 2925 c-6 -8 -10 -21 -8 -29 2 -11 8 -7 20 14 18 31 10 41 -12
15z"/>
<path d="M1054 2917 c-21 -12 -17 -29 6 -22 11 3 38 6 60 7 22 0 40 4 40 8 0
11 -88 17 -106 7z"/>
<path d="M1032 2850 c0 -14 2 -19 5 -12 2 6 2 18 0 25 -3 6 -5 1 -5 -13z"/>
<path d="M1050 2860 c0 -5 5 -10 10 -10 6 0 10 5 10 10 0 6 -4 10 -10 10 -5 0
-10 -4 -10 -10z"/>
<path d="M1143 2854 c-7 -7 -13 -17 -13 -22 0 -12 32 -12 48 1 17 13 15 30 -2
24 -8 -3 -16 -2 -18 3 -2 4 -9 2 -15 -6z"/>
<path d="M1080 2815 c0 -27 3 -45 7 -42 7 8 6 77 -2 85 -3 3 -5 -16 -5 -43z"/>
<path d="M1100 2825 c0 -8 5 -15 10 -15 6 0 10 7 10 15 0 8 -4 15 -10 15 -5 0
-10 -7 -10 -15z"/>
<path d="M1043 2780 c0 -25 2 -35 4 -22 2 12 2 32 0 45 -2 12 -4 2 -4 -23z"/>
<path d="M1181 2803 c0 -4 4 -17 9 -28 8 -19 9 -19 9 2 1 12 -3 25 -9 28 -5 3
-10 3 -9 -2z"/>
<path d="M1162 2775 c0 -16 2 -22 5 -12 2 9 2 23 0 30 -3 6 -5 -1 -5 -18z"/>
<path d="M1112 2760 c0 -19 2 -27 5 -17 2 9 2 25 0 35 -3 9 -5 1 -5 -18z"/>
<path d="M1215 2665 c2 -62 0 -88 -5 -70 -7 26 -8 24 -8 -20 0 -44 14 -119 17
-87 1 6 8 12 17 12 12 0 14 5 8 18 -4 9 -9 42 -11 72 -1 30 -7 82 -12 115 -9
55 -10 52 -6 -40z"/>
<path d="M1081 2724 c0 -11 3 -14 6 -6 3 7 2 16 -1 19 -3 4 -6 -2 -5 -13z"/>
<path d="M1051 2723 c0 -6 -4 -20 -7 -30 -5 -14 -4 -15 5 -7 7 7 11 20 8 30
-3 11 -5 14 -6 7z"/>
<path d="M1102 2660 c0 -25 4 -58 8 -75 6 -25 8 -20 8 25 0 30 -3 64 -8 75 -6
15 -8 9 -8 -25z"/>
<path d="M1136 2692 c-2 -4 -1 -14 5 -22 7 -12 9 -10 9 8 0 23 -5 28 -14 14z"/>
<path d="M1052 2620 c0 -19 2 -27 5 -17 2 9 2 25 0 35 -3 9 -5 1 -5 -18z"/>
<path d="M1053 2545 c0 -22 2 -30 4 -17 2 12 2 30 0 40 -3 9 -5 -1 -4 -23z"/>
<path d="M1142 2535 c0 -16 2 -22 5 -12 2 9 2 23 0 30 -3 6 -5 -1 -5 -18z"/>
<path d="M1092 2515 c0 -16 4 -43 8 -60 l8 -30 0 35 c0 19 -4 46 -8 60 -8 24
-8 24 -8 -5z"/>
<path d="M1202 2428 l-1 -43 15 29 c14 25 14 30 2 43 -13 12 -15 8 -16 -29z"/>
<path d="M1061 2444 c0 -11 3 -14 6 -6 3 7 2 16 -1 19 -3 4 -6 -2 -5 -13z"/>
<path d="M1705 2330 c-16 -7 -17 -9 -3 -9 9 -1 20 4 23 9 7 11 7 11 -20 0z"/>
<path d="M1523 2323 c9 -2 25 -2 35 0 9 3 1 5 -18 5 -19 0 -27 -2 -17 -5z"/>
<path d="M1538 2293 c6 -2 18 -2 25 0 6 3 1 5 -13 5 -14 0 -19 -2 -12 -5z"/>
<path d="M1675 2291 c-3 -5 -1 -12 5 -16 5 -3 10 -2 10 4 0 5 10 12 23 14 19
4 19 4 -5 6 -15 0 -29 -3 -33 -8z"/>
<path d="M1538 2263 c7 -3 16 -2 19 1 4 3 -2 6 -13 5 -11 0 -14 -3 -6 -6z"/>
<path d="M725 2730 c-3 -5 -1 -10 4 -10 6 0 11 5 11 10 0 6 -2 10 -4 10 -3 0
-8 -4 -11 -10z"/>
<path d="M568 2653 c7 -3 16 -2 19 1 4 3 -2 6 -13 5 -11 0 -14 -3 -6 -6z"/>
<path d="M655 2641 c3 -6 34 -31 68 -57 34 -26 68 -51 75 -57 6 -5 12 -7 12
-4 0 7 -147 127 -155 127 -4 0 -4 -4 0 -9z"/>
<path d="M646 2613 c51 -43 146 -114 150 -111 4 5 -142 122 -158 126 -7 2 -3
-5 8 -15z"/>
<path d="M645 2576 c17 -14 35 -26 40 -26 11 1 -20 27 -50 41 -11 6 -6 -1 10
-15z"/>
<path d="M615 2563 c35 -34 155 -115 155 -104 0 6 -4 11 -9 11 -5 0 -16 6 -23
13 -16 15 -107 81 -128 92 -8 4 -6 -1 5 -12z"/>
<path d="M590 2542 c0 -5 10 -17 23 -26 15 -12 17 -16 5 -12 -28 8 -22 1 23
-28 22 -15 39 -30 36 -33 -3 -2 -17 3 -31 13 -15 9 -29 14 -32 11 -3 -3 25
-26 63 -51 37 -25 104 -73 148 -107 91 -69 260 -171 349 -211 47 -20 64 -24
74 -15 11 9 1 16 -50 32 -36 12 -111 47 -167 79 -111 63 -135 88 -30 31 35
-19 69 -34 74 -34 6 0 -2 7 -17 15 -34 18 -36 28 -5 19 18 -5 16 -3 -8 15 -37
26 -85 52 -85 46 0 -2 16 -14 36 -26 46 -29 37 -37 -13 -11 -22 10 -46 19 -54
18 -15 -2 -158 93 -159 106 0 10 38 -10 73 -39 16 -13 33 -24 39 -24 5 0 -11
16 -36 35 -26 19 -50 35 -54 35 -13 0 -78 59 -65 60 6 0 15 -4 18 -10 3 -5 11
-10 17 -10 6 0 -9 15 -33 33 -80 61 -139 98 -139 89z m100 -72 c19 -17 30 -30
25 -30 -9 0 -85 50 -85 56 0 12 30 -1 60 -26z m40 -60 l35 -31 -42 27 c-24 15
-43 28 -43 30 0 11 20 1 50 -26z"/>
<path d="M724 2521 c4 -5 21 -20 39 -32 l32 -23 -20 23 c-22 25 -62 51 -51 32z"/>
<path d="M844 2492 c20 -23 9 -31 -13 -9 -11 10 -13 9 -9 -3 3 -8 -3 -20 -14
-26 -17 -9 -13 -14 35 -47 30 -21 63 -47 72 -57 10 -11 22 -20 28 -20 5 0 -10
18 -34 40 -51 46 -39 54 16 10 44 -35 56 -39 29 -9 -19 22 -19 22 4 10 47 -25
19 6 -40 43 -38 24 -56 41 -49 45 12 8 5 18 -29 36 -10 5 -8 1 4 -13z m47 -64
c27 -17 47 -33 45 -36 -3 -2 -18 5 -34 17 -32 23 -47 27 -37 11 9 -15 -2 -12
-31 7 -19 12 -22 18 -12 24 18 12 14 13 69 -23z"/>
<path d="M835 2440 c3 -5 11 -10 16 -10 6 0 7 5 4 10 -3 6 -11 10 -16 10 -6 0
-7 -4 -4 -10z"/>
<path d="M786 2412 c18 -15 109 -86 124 -96 26 -17 -1 8 -59 58 -30 25 -59 46
-65 46 -6 0 -6 -3 0 -8z"/>
<path d="M1020 2352 c0 -4 30 -23 68 -41 78 -38 72 -28 -10 17 -32 18 -58 29
-58 24z"/>
<path d="M1014 2316 c11 -9 24 -16 30 -16 12 0 7 5 -24 19 -24 11 -24 11 -6
-3z"/>
<path d="M1010 2289 c27 -18 90 -50 90 -45 0 7 -85 56 -96 56 -5 0 -2 -5 6
-11z"/>
<path d="M1060 2296 c0 -3 14 -12 30 -21 17 -9 30 -13 30 -11 0 3 -13 12 -30
21 -16 9 -30 13 -30 11z"/>
<path d="M1749 2215 c-3 -2 -30 -11 -60 -19 -35 -9 -45 -15 -28 -15 26 -1 99
25 99 34 0 6 -5 6 -11 0z"/>
<path d="M1240 2200 c8 -5 20 -10 25 -10 6 0 3 5 -5 10 -8 5 -19 10 -25 10 -5
0 -3 -5 5 -10z"/>
<path d="M1288 2183 c7 -3 16 -2 19 1 4 3 -2 6 -13 5 -11 0 -14 -3 -6 -6z"/>
<path d="M1457 2173 c18 -2 50 -2 70 0 21 2 7 4 -32 4 -38 0 -55 -2 -38 -4z"/>
<path d="M1685 2170 l-30 -8 30 0 c17 0 39 3 50 8 l20 9 -20 -1 c-11 0 -33 -4
-50 -8z"/>
<path d="M1220 2145 c46 -18 64 -17 25 0 -16 8 -37 14 -45 14 -8 0 1 -7 20
-14z"/>
<path d="M1700 2144 l-45 -14 43 4 c24 3 46 7 49 10 13 12 -4 12 -47 0z"/>
<path d="M1438 2143 c23 -2 61 -2 85 0 23 2 4 4 -43 4 -47 0 -66 -2 -42 -4z"/>
<path d="M1195 2130 c27 -12 43 -12 25 0 -8 5 -22 9 -30 9 -10 0 -8 -3 5 -9z"/>
<path d="M1398 2123 c6 -2 18 -2 25 0 6 3 1 5 -13 5 -14 0 -19 -2 -12 -5z"/>
<path d="M1473 2113 c15 -2 37 -2 50 0 12 2 0 4 -28 4 -27 0 -38 -2 -22 -4z"/>
<path d="M1695 2110 c-13 -6 -15 -9 -5 -9 8 0 22 4 30 9 18 12 2 12 -25 0z"/>
<path d="M1423 2093 c26 -2 67 -2 90 0 23 2 2 3 -48 3 -49 0 -68 -1 -42 -3z"/>
<path d="M1385 2070 c30 -8 132 -13 124 -6 -2 2 -38 6 -79 9 -44 3 -63 2 -45
-3z"/>
<path d="M1528 2073 c6 -2 18 -2 25 0 6 3 1 5 -13 5 -14 0 -19 -2 -12 -5z"/>
<path d="M1205 2030 c-9 -18 -14 -34 -11 -37 2 -3 12 9 21 27 9 18 14 34 11
37 -2 3 -12 -9 -21 -27z"/>
<path d="M461 2025 c9 -11 19 -27 22 -35 5 -13 6 -13 6 1 1 9 -9 24 -21 35
-23 19 -23 19 -7 -1z"/>
<path d="M1900 2308 c0 -3 13 -43 30 -89 16 -46 30 -98 30 -116 0 -17 4 -34 8
-37 15 -9 -5 99 -31 168 -24 62 -37 89 -37 74z"/>
<path d="M2060 620 c-8 -5 -10 -10 -5 -10 6 0 17 5 25 10 8 5 11 10 5 10 -5 0
-17 -5 -25 -10z"/>
<path d="M2120 599 c0 -5 5 -7 10 -4 6 3 10 8 10 11 0 2 -4 4 -10 4 -5 0 -10
-5 -10 -11z"/>
<path d="M2065 590 c-3 -5 -1 -10 4 -10 6 0 11 5 11 10 0 6 -2 10 -4 10 -3 0
-8 -4 -11 -10z"/>
<path d="M630 2383 c1 -18 18 -35 24 -24 4 6 4 16 1 21 -7 12 -25 13 -25 3z"/>
<path d="M715 2330 c-3 -5 -1 -10 4 -10 6 0 11 5 11 10 0 6 -2 10 -4 10 -3 0
-8 -4 -11 -10z"/>
<path d="M72 2041 c-17 -48 -14 -73 4 -32 8 19 13 42 11 50 -1 9 -8 2 -15 -18z"/>
<path d="M142 2010 c0 -19 2 -27 5 -17 2 9 2 25 0 35 -3 9 -5 1 -5 -18z"/>
<path d="M81 1955 c-1 -48 15 -83 49 -103 24 -13 23 -13 -2 10 -20 17 -30 38
-37 78 -8 52 -9 52 -10 15z"/>
<path d="M152 1910 c0 -14 2 -19 5 -12 2 6 2 18 0 25 -3 6 -5 1 -5 -13z"/>
<path d="M250 1871 c0 -12 5 -21 10 -21 6 0 10 6 10 14 0 8 -4 18 -10 21 -5 3
-10 -3 -10 -14z"/>
<path d="M161 1858 c-1 -15 4 -30 9 -33 6 -3 11 -27 11 -53 l2 -47 9 45 c9 48
20 130 12 93 -3 -13 -10 -23 -15 -23 -5 0 -14 10 -19 23 -8 21 -9 21 -9 -5z"/>
<path d="M80 1848 c3 -16 29 -101 29 -94 1 5 9 2 19 -5 16 -13 16 -12 1 6 -9
11 -20 35 -24 52 -3 18 -11 35 -16 38 -5 4 -9 5 -9 3z"/>
<path d="M110 1723 c0 -4 5 -15 10 -23 8 -13 10 -13 10 2 0 9 -4 20 -10 23 -5
3 -10 3 -10 -2z"/>
<path d="M246 1569 c-3 -17 -6 -47 -6 -66 0 -19 -4 -32 -9 -29 -11 7 -19 -65
-19 -194 l0 -105 8 88 c5 49 11 91 14 95 3 3 6 -39 6 -93 0 -54 2 -96 5 -93 4
4 13 428 9 428 -1 0 -4 -14 -8 -31z m-6 -160 c0 -22 -4 -38 -8 -35 -8 5 -4 76
4 76 2 0 4 -18 4 -41z"/>
<path d="M57 1297 c-7 -19 3 -101 15 -112 7 -7 8 -1 3 20 -4 17 -7 47 -6 68 2
37 -3 47 -12 24z"/>
<path d="M186 1195 c7 -49 22 -78 35 -69 7 4 5 12 -4 22 -9 10 -20 33 -26 52
l-11 35 6 -40z"/>
<path d="M247 1098 c8 -44 13 -48 13 -10 0 17 -4 34 -10 37 -6 4 -7 -6 -3 -27z"/>
<path d="M232 1060 c0 -14 2 -19 5 -12 2 6 2 18 0 25 -3 6 -5 1 -5 -13z"/>
<path d="M241 939 c1 -19 5 -47 10 -64 5 -20 6 -9 2 30 -6 66 -14 88 -12 34z"/>
<path d="M213 768 c-22 -28 -24 -38 -9 -38 9 0 16 7 16 15 0 7 8 19 18 24 15
9 15 10 1 11 -9 0 -21 -6 -26 -12z"/>
<path d="M145 620 c-3 -5 -1 -10 4 -10 6 0 11 5 11 10 0 6 -2 10 -4 10 -3 0
-8 -4 -11 -10z"/>
<path d="M608 1973 c12 -2 30 -2 40 0 9 3 -1 5 -23 4 -22 0 -30 -2 -17 -4z"/>
<path d="M553 1953 c-7 -2 -13 -8 -13 -13 0 -12 39 -20 46 -9 3 5 -1 9 -8 10
-7 1 -2 5 12 9 l25 8 -25 0 c-14 0 -31 -2 -37 -5z"/>
<path d="M450 1789 c0 -5 5 -7 10 -4 6 3 10 8 10 11 0 2 -4 4 -10 4 -5 0 -10
-5 -10 -11z"/>
<path d="M350 1695 c1 -26 2 -28 11 -12 8 14 8 22 0 30 -8 8 -11 3 -11 -18z"/>
<path d="M483 1703 c4 -3 2 -12 -5 -20 -13 -16 1 -36 19 -25 14 9 6 52 -10 52
-6 0 -7 -3 -4 -7z"/>
<path d="M377 1683 c-4 -3 -7 -11 -7 -17 0 -6 5 -5 12 2 6 6 9 14 7 17 -3 3
-9 2 -12 -2z"/>
<path d="M544 1517 c-2 -7 -3 -58 -2 -113 l3 -99 5 113 c3 61 4 112 2 112 -1
0 -5 -6 -8 -13z"/>
<path d="M330 1508 c0 -22 17 -41 29 -34 16 10 14 20 -9 34 -16 10 -20 10 -20
0z"/>
<path d="M401 1494 c0 -11 3 -14 6 -6 3 7 2 16 -1 19 -3 4 -6 -2 -5 -13z"/>
<path d="M302 1455 c0 -16 2 -22 5 -12 2 9 2 23 0 30 -3 6 -5 -1 -5 -18z"/>
<path d="M365 1460 c-12 -20 51 -73 77 -64 20 6 21 7 2 17 -10 5 -31 21 -45
34 -19 18 -29 21 -34 13z"/>
<path d="M510 1390 c0 -22 2 -40 4 -40 2 0 6 18 8 40 2 22 0 40 -4 40 -5 0 -8
-18 -8 -40z"/>
<path d="M317 1313 c-4 -3 -7 -13 -7 -22 1 -13 3 -13 11 2 11 19 8 33 -4 20z"/>
<path d="M542 1170 c0 -19 2 -27 5 -17 2 9 2 25 0 35 -3 9 -5 1 -5 -18z"/>
<path d="M493 1145 c0 -22 2 -30 4 -17 2 12 2 30 0 40 -3 9 -5 -1 -4 -23z"/>
<path d="M311 1019 c0 -99 3 -135 9 -115 10 31 6 244 -4 254 -3 3 -6 -60 -5
-139z"/>
<path d="M353 1000 c0 -30 2 -43 4 -27 2 15 2 39 0 55 -2 15 -4 2 -4 -28z"/>
<path d="M543 985 c0 -22 2 -30 4 -17 2 12 2 30 0 40 -3 9 -5 -1 -4 -23z"/>
<path d="M344 840 c0 -52 1 -74 3 -47 2 26 2 68 0 95 -2 26 -3 4 -3 -48z"/>
<path d="M537 838 c-4 -29 -6 -91 -5 -138 1 -75 2 -69 9 50 8 139 6 179 -4 88z"/>
<path d="M309 748 c0 -29 -2 -65 -4 -80 -2 -16 1 -28 6 -28 5 0 9 36 9 80 0
44 -2 80 -5 80 -3 0 -5 -24 -6 -52z"/>
<path d="M500 745 c0 -19 2 -35 4 -35 2 0 6 16 8 35 2 19 0 35 -4 35 -4 0 -8
-16 -8 -35z"/>
<path d="M980 1866 c0 -8 5 -18 10 -21 6 -3 10 1 10 9 0 8 -4 18 -10 21 -5 3
-10 -1 -10 -9z"/>
<path d="M907 1853 c50 -17 109 -84 98 -110 -4 -13 1 -11 19 6 15 14 26 33 26
43 0 23 -17 24 -23 1 -3 -10 -3 -1 -2 20 2 20 -1 34 -6 31 -5 -3 -9 -15 -9
-27 l-1 -22 -19 23 c-20 24 -79 52 -107 51 -10 0 1 -7 24 -16z"/>
<path d="M1106 1852 c-4 -7 -4 -17 -1 -22 18 -30 176 -63 190 -41 5 8 -1 10
-18 6 -14 -4 -28 -2 -32 5 -4 6 -15 8 -26 5 -14 -5 -19 -1 -20 12 0 10 -3 13
-6 6 -7 -19 -40 -16 -52 5 -6 9 -11 13 -11 7 -1 -5 -5 -1 -9 9 -5 14 -10 16
-15 8z"/>
<path d="M877 1823 c-4 -3 -7 -11 -7 -17 0 -6 5 -5 12 2 6 6 9 14 7 17 -3 3
-9 2 -12 -2z"/>
<path d="M906 1805 c-9 -26 -7 -32 5 -12 6 10 9 21 6 23 -2 3 -7 -2 -11 -11z"/>
<path d="M1062 1775 c0 -16 2 -22 5 -12 2 9 2 23 0 30 -3 6 -5 -1 -5 -18z"/>
<path d="M751 1783 c-1 -7 -7 -13 -14 -13 -7 0 -13 -9 -13 -20 0 -24 5 -24 30
-5 27 20 63 19 69 -2 4 -14 5 -12 6 5 1 19 5 21 29 16 39 -10 42 -12 42 -41 0
-31 5 -28 14 9 5 23 2 28 -27 36 -47 15 -118 22 -111 11 3 -5 1 -9 -5 -9 -5 0
-12 6 -14 13 -4 10 -6 10 -6 0z"/>
<path d="M1082 1760 c0 -14 2 -19 5 -12 2 6 2 18 0 25 -3 6 -5 1 -5 -13z"/>
<path d="M1325 1770 c-4 -6 -11 -8 -16 -5 -5 4 -9 2 -9 -4 0 -5 9 -9 20 -8 11
1 20 7 20 14 0 16 -6 17 -15 3z"/>
<path d="M1110 1750 c0 -11 4 -20 9 -20 5 0 7 9 4 20 -3 11 -7 20 -9 20 -2 0
-4 -9 -4 -20z"/>
<path d="M776 1742 c-3 -5 1 -9 9 -9 8 0 15 4 15 9 0 4 -4 8 -9 8 -6 0 -12 -4
-15 -8z"/>
<path d="M845 1740 c-3 -5 -1 -10 4 -10 6 0 11 5 11 10 0 6 -2 10 -4 10 -3 0
-8 -4 -11 -10z"/>
<path d="M1652 1709 c6 -16 13 -28 15 -25 8 8 -6 56 -17 56 -5 0 -5 -13 2 -31z"/>
<path d="M927 1710 c-3 -11 -1 -20 4 -20 5 0 9 2 9 4 0 2 3 11 6 20 3 9 2 16
-4 16 -5 0 -12 -9 -15 -20z"/>
<path d="M1420 1709 c7 -11 14 -18 17 -15 8 8 -5 36 -17 36 -7 0 -7 -6 0 -21z"/>
<path d="M1060 1709 c0 -5 5 -7 10 -4 6 3 10 8 10 11 0 2 -4 4 -10 4 -5 0 -10
-5 -10 -11z"/>
<path d="M960 1701 c0 -5 -3 -16 -6 -25 -3 -9 -2 -16 4 -16 5 0 12 11 14 25 3
14 1 25 -3 25 -5 0 -9 -4 -9 -9z"/>
<path d="M700 1685 c-19 -22 -8 -25 13 -3 9 10 13 18 8 18 -5 0 -14 -7 -21
-15z"/>
<path d="M1090 1689 c0 -5 5 -7 10 -4 6 3 10 8 10 11 0 2 -4 4 -10 4 -5 0 -10
-5 -10 -11z"/>
<path d="M1378 1680 c-10 -11 -13 -22 -8 -25 6 -4 10 -1 10 4 0 6 5 10 12 9 6
-2 14 5 16 15 5 23 -10 22 -30 -3z"/>
<path d="M981 1672 c-13 -25 -14 -32 -2 -32 9 0 23 41 16 48 -2 2 -8 -5 -14
-16z"/>
<path d="M1122 1678 c-14 -14 -16 -28 -3 -28 9 0 24 30 18 36 -2 2 -9 -2 -15
-8z"/>
<path d="M891 1667 c80 -61 134 -139 106 -151 -9 -3 -9 -5 0 -5 7 -1 17 -10
23 -22 9 -17 8 -23 -7 -35 -10 -8 -13 -13 -5 -14 15 0 16 -50 0 -50 -7 0 -6
-5 4 -12 9 -7 18 -33 21 -58 3 -25 9 -65 13 -90 5 -37 4 -43 -7 -32 -7 6 -31
12 -54 12 -29 0 -36 3 -25 10 10 6 11 10 3 10 -7 0 -13 5 -13 11 0 5 4 8 9 4
5 -3 8 6 7 21 -2 14 -9 30 -17 35 -11 7 -10 9 6 9 11 0 15 4 10 8 -6 4 -10 14
-10 22 1 8 -1 20 -4 25 -3 6 -7 19 -8 30 -1 11 -4 34 -7 52 -3 22 0 33 11 37
9 4 14 9 11 11 -3 3 -12 3 -21 0 -13 -5 -14 -27 -9 -151 l5 -144 -29 0 c-16 0
-40 -7 -53 -17 -18 -12 -23 -13 -19 -2 2 8 15 20 29 27 24 13 24 13 -6 8 -28
-6 -29 -5 -11 9 16 12 17 15 4 15 -8 0 -21 -7 -28 -15 -7 -8 -9 -15 -4 -15 5
0 10 -20 11 -45 1 -28 -2 -43 -8 -39 -6 3 -7 -5 -3 -23 7 -25 6 -27 -9 -14
-10 7 -17 19 -17 25 0 6 -9 19 -20 29 -26 22 -26 5 0 -48 25 -52 80 -106 88
-86 3 10 9 8 23 -10 l18 -24 -5 25 c-5 20 -3 22 5 10 22 -31 11 14 -19 78 -36
76 -38 97 -7 60 l22 -27 39 19 c48 24 46 24 46 0 0 -29 33 -100 47 -100 6 0
15 -10 19 -22 7 -22 7 -22 15 -3 l8 20 1 -20 c0 -11 7 -31 16 -45 14 -24 14
-24 8 14 -6 37 -6 38 17 31 43 -14 54 -11 56 15 l3 25 -11 -25 c-10 -24 -11
-24 -25 -6 -8 11 -14 16 -14 12 0 -5 -6 -3 -13 3 -8 6 -17 8 -20 4 -4 -3 -7 1
-7 9 0 13 11 15 68 10 65 -4 69 -3 112 30 41 30 120 151 108 164 -3 2 -13 -13
-24 -33 -31 -61 -55 -94 -65 -88 -5 4 -9 0 -9 -8 0 -8 -7 -20 -15 -27 -10 -9
-15 -9 -15 -1 0 6 -5 11 -11 11 -6 0 -9 -6 -6 -14 7 -18 -17 -28 -32 -13 -8 8
-11 8 -11 -1 0 -7 -13 -12 -30 -12 l-30 0 0 101 c0 69 -3 98 -11 94 -7 -5 -9
-39 -7 -94 l3 -86 -24 3 c-34 3 -37 9 -17 30 10 12 14 26 10 37 -5 13 -4 16 4
11 9 -5 11 12 9 66 -1 52 -6 72 -14 71 -8 -2 -13 8 -13 27 0 17 -4 30 -10 30
-5 0 -10 5 -10 10 0 23 29 7 54 -30 28 -43 74 -76 63 -45 -4 9 -8 35 -9 58 -1
37 -2 38 -5 10 -6 -50 -23 -39 -24 15 -1 26 -3 38 -6 27 -9 -35 -24 -42 -17
-8 6 32 -15 71 -30 55 -13 -12 -25 22 -14 36 8 9 8 16 0 24 -9 9 -12 7 -13 -7
0 -11 -9 3 -20 30 -22 53 -103 145 -129 145 -13 -1 -13 -2 1 -13z m176 -409
c-3 -8 -6 -5 -6 6 -1 11 2 17 5 13 3 -3 4 -12 1 -19z m-100 -74 c-3 -3 -12 -4
-19 -1 -8 3 -5 6 6 6 11 1 17 -2 13 -5z m93 -116 c0 -13 -32 -6 -37 9 -3 7 3
9 16 6 12 -3 21 -10 21 -15z"/>
<path d="M1157 1673 c-4 -3 -7 -13 -7 -22 1 -13 3 -13 11 2 11 19 8 33 -4 20z"/>
<path d="M1181 1654 c0 -11 3 -14 6 -6 3 7 2 16 -1 19 -3 4 -6 -2 -5 -13z"/>
<path d="M1211 1654 c0 -11 3 -14 6 -6 3 7 2 16 -1 19 -3 4 -6 -2 -5 -13z"/>
<path d="M997 1638 c-4 -12 -4 -24 -1 -27 6 -7 24 20 24 37 0 21 -17 13 -23
-10z"/>
<path d="M1345 1640 c3 -5 8 -10 11 -10 2 0 4 5 4 10 0 6 -5 10 -11 10 -5 0
-7 -4 -4 -10z"/>
<path d="M764 1598 c-23 -26 -29 -43 -30 -81 -1 -29 2 -43 7 -35 5 7 9 20 9
29 0 9 7 22 15 29 9 7 13 21 9 34 -3 15 2 25 23 38 18 11 22 18 12 18 -9 0
-29 -15 -45 -32z"/>
<path d="M1027 1623 c-4 -3 -7 -16 -6 -27 0 -19 1 -19 10 3 10 24 8 36 -4 24z"/>
<path d="M1485 1610 c3 -5 11 -10 16 -10 6 0 7 5 4 10 -3 6 -11 10 -16 10 -6
0 -7 -4 -4 -10z"/>
<path d="M1046 1588 c-8 -31 -7 -38 3 -38 5 0 11 14 13 30 5 35 -7 41 -16 8z"/>
<path d="M780 1579 c0 -5 5 -7 10 -4 6 3 10 8 10 11 0 2 -4 4 -10 4 -5 0 -10
-5 -10 -11z"/>
<path d="M1098 1554 c-2 -19 0 -37 4 -40 4 -3 8 3 8 13 0 10 3 28 6 41 4 12 2
22 -4 22 -5 0 -12 -16 -14 -36z"/>
<path d="M1076 1571 c-4 -7 -5 -15 -2 -18 9 -9 19 4 14 18 -4 11 -6 11 -12 0z"/>
<path d="M1125 1542 c-4 -24 -5 -46 -2 -49 8 -7 20 63 14 79 -2 7 -7 -6 -12
-30z"/>
<path d="M790 1545 c-20 -24 -6 -28 15 -5 10 11 13 20 8 20 -6 0 -16 -7 -23
-15z"/>
<path d="M900 1551 c0 -5 10 -7 22 -3 17 4 20 2 15 -11 -4 -10 -3 -17 2 -17
16 0 21 13 10 27 -13 15 -49 18 -49 4z"/>
<path d="M1157 1553 c-4 -3 -7 -20 -6 -37 l1 -31 9 34 c10 33 8 47 -4 34z"/>
<path d="M1300 1550 c0 -5 5 -10 10 -10 6 0 10 5 10 10 0 6 -4 10 -10 10 -5 0
-10 -4 -10 -10z"/>
<path d="M1621 1556 c2 -2 14 -9 27 -15 18 -10 22 -9 22 4 0 10 -9 15 -27 15
-14 0 -24 -2 -22 -4z"/>
<path d="M1185 1514 c-3 -20 -4 -38 -1 -41 6 -7 12 10 19 50 6 41 -10 33 -18
-9z"/>
<path d="M1230 1525 c0 -14 4 -25 9 -25 5 0 9 11 9 25 0 14 -4 25 -9 25 -5 0
-9 -11 -9 -25z"/>
<path d="M1270 1535 c0 -8 5 -15 10 -15 6 0 10 7 10 15 0 8 -4 15 -10 15 -5 0
-10 -7 -10 -15z"/>
<path d="M712 1470 c-1 -55 1 -70 9 -58 6 12 7 38 1 75 l-10 58 0 -75z"/>
<path d="M692 1500 c0 -14 2 -19 5 -12 2 6 2 18 0 25 -3 6 -5 1 -5 -13z"/>
<path d="M775 1488 c-22 -13 -35 -28 -35 -43 1 -5 7 -2 14 8 7 9 18 17 23 17
6 0 16 7 23 15 15 18 3 19 -25 3z"/>
<path d="M1387 1489 c7 -7 15 -10 18 -7 3 3 -2 9 -12 12 -14 6 -15 5 -6 -5z"/>
<path d="M762 1425 c-26 -28 -29 -35 -15 -35 17 -1 17 -1 1 -11 -10 -5 -18
-15 -18 -21 0 -7 5 -6 15 2 21 17 19 1 -2 -23 -17 -19 -17 -20 3 -9 20 10 22
8 28 -20 3 -17 6 -47 7 -67 0 -20 7 -52 15 -71 l14 -35 -6 35 c-3 19 -8 49
-11 65 -4 25 -1 33 21 44 14 8 26 18 26 23 0 5 -9 4 -19 -2 -32 -17 -36 -12
-11 15 13 14 18 25 12 25 -6 0 -14 -4 -17 -10 -3 -5 -11 -10 -17 -10 -6 0 -1
11 12 25 23 25 16 37 -8 13 -9 -9 -12 -9 -12 1 0 7 10 21 23 32 12 10 17 18
10 19 -6 0 -15 -4 -18 -10 -3 -5 -11 -10 -17 -10 -5 0 0 9 13 21 20 17 21 20
5 14 -19 -6 -19 -5 -1 15 32 35 2 21 -33 -15z"/>
<path d="M1490 1425 c0 -8 2 -15 4 -15 2 0 6 7 10 15 3 8 1 15 -4 15 -6 0 -10
-7 -10 -15z"/>
<path d="M1350 1405 c0 -14 5 -25 10 -25 6 0 10 11 10 25 0 14 -4 25 -10 25
-5 0 -10 -11 -10 -25z"/>
<path d="M1606 1405 c-3 -9 -10 -14 -15 -11 -5 3 -11 0 -14 -8 -4 -9 0 -12 13
-9 18 5 35 31 26 40 -2 2 -6 -3 -10 -12z"/>
<path d="M1333 1365 c0 -22 2 -30 4 -17 2 12 2 30 0 40 -3 9 -5 -1 -4 -23z"/>
<path d="M1450 1361 c0 -5 7 -15 17 -22 15 -13 15 -12 4 9 -12 23 -21 28 -21
13z"/>
<path d="M1299 1303 c-1 -32 -2 -34 -8 -14 l-7 24 -17 -26 c-10 -16 -17 -46
-17 -77 0 -61 15 -58 24 5 5 29 12 45 22 45 8 0 15 8 15 18 1 9 3 27 4 40 1
12 -2 22 -6 22 -5 0 -9 -17 -10 -37z"/>
<path d="M702 1290 c-1 -38 4 -67 28 -168 1 -4 6 -14 12 -22 7 -11 8 -8 3 10
-9 35 -33 159 -38 195 -3 21 -4 17 -5 -15z"/>
<path d="M735 1299 c-11 -17 1 -21 15 -4 8 9 8 15 2 15 -6 0 -14 -5 -17 -11z"/>
<path d="M1550 1294 c0 -17 11 -18 33 -1 16 11 15 12 -8 13 -15 1 -25 -3 -25
-12z"/>
<path d="M824 1265 c-10 -8 -14 -14 -9 -14 6 0 19 6 29 14 11 8 15 15 10 15
-6 0 -19 -7 -30 -15z"/>
<path d="M1228 1195 c-1 -36 0 -65 5 -65 4 0 7 29 7 65 0 36 -2 65 -4 65 -2 0
-6 -29 -8 -65z"/>
<path d="M1201 1173 c1 -53 3 -61 9 -38 11 45 11 105 0 105 -6 0 -10 -28 -9
-67z"/>
<path d="M1168 1165 c-4 -75 6 -87 16 -19 8 64 8 84 -3 84 -5 0 -11 -29 -13
-65z"/>
<path d="M1305 1200 c-3 -5 -1 -10 4 -10 6 0 11 5 11 10 0 6 -2 10 -4 10 -3 0
-8 -4 -11 -10z"/>
<path d="M1515 1200 c3 -5 11 -10 16 -10 6 0 7 5 4 10 -3 6 -11 10 -16 10 -6
0 -7 -4 -4 -10z"/>
<path d="M1495 1180 c3 -5 1 -10 -5 -10 -6 0 -8 -4 -5 -10 3 -5 11 -10 16 -10
6 0 7 5 3 12 -5 8 -2 9 11 4 15 -5 16 -4 5 9 -14 17 -35 21 -25 5z"/>
<path d="M933 1128 c-35 -12 -42 -25 -18 -34 8 -4 12 -10 9 -15 -8 -13 10 -11
30 4 17 13 18 14 2 20 -11 5 -15 3 -10 -5 4 -7 3 -8 -4 -4 -17 10 -15 26 2 26
8 0 18 5 21 10 3 6 5 10 3 9 -2 -1 -18 -6 -35 -11z"/>
<path d="M1465 1130 c3 -5 14 -10 23 -10 15 0 15 2 2 10 -20 13 -33 13 -25 0z"/>
<path d="M1465 1100 c3 -5 14 -10 23 -10 15 0 15 2 2 10 -20 13 -33 13 -25 0z"/>
<path d="M1465 1070 c3 -5 11 -10 16 -10 6 0 7 5 4 10 -3 6 -11 10 -16 10 -6
0 -7 -4 -4 -10z"/>
<path d="M930 1060 c-8 -5 -10 -10 -5 -10 6 0 17 5 25 10 8 5 11 10 5 10 -5 0
-17 -5 -25 -10z"/>
<path d="M1440 1051 c0 -5 7 -11 15 -15 8 -3 15 -1 15 3 0 5 -7 11 -15 15 -8
3 -15 1 -15 -3z"/>
<path d="M935 1040 c-8 -13 37 -103 55 -108 12 -3 12 -2 1 6 -11 8 -11 10 0
15 11 4 11 6 1 6 -7 1 -10 6 -6 13 5 7 2 9 -8 6 -8 -4 -15 -1 -15 7 0 7 6 11
14 8 9 -3 11 0 7 10 -3 9 -13 14 -22 11 -14 -5 -14 -4 1 6 9 6 15 15 12 21 -8
12 -32 12 -40 -1z"/>
<path d="M1180 1019 c0 -11 5 -17 10 -14 6 3 10 13 10 21 0 8 -4 14 -10 14 -5
0 -10 -9 -10 -21z"/>
<path d="M1440 1021 c0 -5 5 -13 10 -16 6 -3 10 -2 10 4 0 5 -4 13 -10 16 -5
3 -10 2 -10 -4z"/>
<path d="M1410 890 c-13 -8 -12 -10 3 -10 9 0 17 5 17 10 0 12 -1 12 -20 0z"/>
<path d="M1344 856 c-12 -9 -23 -11 -30 -5 -11 9 -12 0 -4 -51 1 -9 7 -4 14
12 6 15 21 34 31 43 11 8 17 15 14 15 -3 0 -14 -6 -25 -14z"/>
<path d="M1408 853 c6 -2 18 -2 25 0 6 3 1 5 -13 5 -14 0 -19 -2 -12 -5z"/>
<path d="M1297 759 c11 -13 31 -44 42 -69 26 -55 42 -67 150 -114 91 -39 111
-43 111 -23 -1 16 -50 115 -50 100 0 -7 -11 -13 -25 -13 -14 0 -36 -7 -49 -15
-21 -14 -56 -12 -56 4 0 15 60 41 94 41 25 0 36 4 36 15 0 15 -38 41 -47 32
-2 -3 5 -8 16 -12 33 -10 25 -25 -13 -25 -19 0 -52 -10 -72 -22 l-37 -22 -24
28 c-13 16 -22 33 -20 40 1 6 23 21 48 33 24 12 38 22 31 23 -7 0 -30 -9 -50
-19 -37 -19 -38 -19 -50 -1 -6 11 -22 24 -34 31 l-23 12 22 -24z m263 -144 c0
-9 7 -27 16 -40 18 -28 16 -29 -21 -15 -18 7 -25 15 -21 25 4 11 -1 13 -24 8
-33 -6 -41 10 -12 26 26 16 62 13 62 -4z"/>
<path d="M1402 706 c-30 -17 -42 -31 -17 -21 11 4 40 14 65 21 45 13 45 13 10
12 -19 0 -45 -6 -58 -12z"/>
<path d="M1318 2005 c-3 -14 -1 -25 3 -25 5 0 9 11 9 25 0 14 -2 25 -4 25 -2
0 -6 -11 -8 -25z"/>
<path d="M1880 1830 l-55 -7 67 -1 c43 -1 68 -6 71 -14 2 -7 8 -10 12 -6 4 4
5 14 2 23 -7 16 -9 16 -97 5z"/>
<path d="M1880 1803 c0 -5 14 -9 30 -10 18 -1 28 2 25 7 -7 12 -55 14 -55 3z"/>
<path d="M1737 1782 c-9 -2 -15 -8 -12 -13 4 -5 2 -9 -2 -9 -17 0 -12 -45 9
-78 16 -26 26 -32 47 -30 20 2 25 -1 23 -15 -2 -10 2 -25 9 -33 13 -16 55 -19
64 -4 3 6 2 10 -4 10 -6 0 -8 7 -5 15 4 8 1 15 -5 15 -6 0 -11 5 -11 11 0 5 5
7 10 4 6 -3 10 3 10 15 0 12 -4 18 -10 15 -5 -3 -10 4 -10 16 0 18 -2 19 -15
9 -12 -10 -15 -10 -15 4 0 9 1 17 3 19 4 5 -38 44 -53 49 -8 2 -23 3 -33 0z
m47 -48 c9 -24 7 -64 -3 -64 -18 0 -41 32 -41 56 0 28 34 34 44 8z m51 -53 c3
-5 1 -12 -5 -16 -5 -3 -10 1 -10 9 0 18 6 21 15 7z m5 -61 c0 -5 -2 -10 -4
-10 -3 0 -8 5 -11 10 -3 6 -1 10 4 10 6 0 11 -4 11 -10z"/>
<path d="M1865 1530 c-3 -5 -1 -10 4 -10 6 0 11 5 11 10 0 6 -2 10 -4 10 -3 0
-8 -4 -11 -10z"/>
<path d="M1930 1240 c0 -5 5 -10 10 -10 6 0 10 5 10 10 0 6 -4 10 -10 10 -5 0
-10 -4 -10 -10z"/>
<path d="M1990 1098 c0 -7 5 -20 10 -28 8 -12 10 -11 10 7 0 12 -4 25 -10 28
-5 3 -10 0 -10 -7z"/>
<path d="M1761 934 c0 -11 3 -14 6 -6 3 7 2 16 -1 19 -3 4 -6 -2 -5 -13z"/>
<path d="M1980 788 c0 -20 -3 -43 -6 -52 -3 -9 -1 -16 4 -16 16 0 26 65 13 87
-9 15 -10 12 -11 -19z"/>
<path d="M1970 630 c0 -16 5 -30 10 -30 6 0 10 14 10 30 0 17 -4 30 -10 30 -5
0 -10 -13 -10 -30z"/>
<path d="M1790 610 c0 -11 5 -20 10 -20 6 0 10 9 10 20 0 11 -4 20 -10 20 -5
0 -10 -9 -10 -20z"/>
<path d="M1820 615 c0 -8 5 -15 10 -15 6 0 10 7 10 15 0 8 -4 15 -10 15 -5 0
-10 -7 -10 -15z"/>
<path d="M1030 790 c-17 -6 -11 -7 22 -3 42 5 50 2 74 -23 21 -23 24 -24 15
-7 -21 40 -58 51 -111 33z"/>
<path d="M51 385 c0 -34 3 -45 9 -35 4 9 5 31 0 50 -8 34 -8 33 -9 -15z"/>
<path d="M80 397 c0 -20 4 -37 10 -37 5 0 7 14 3 33 -8 45 -13 47 -13 4z"/>
<path d="M180 364 c0 -27 4 -43 10 -39 6 3 10 24 10 46 0 21 -4 39 -10 39 -5
0 -10 -21 -10 -46z"/>
<path d="M150 339 c0 -11 5 -17 10 -14 6 3 10 13 10 21 0 8 -4 14 -10 14 -5 0
-10 -9 -10 -21z"/>
<path d="M221 334 c0 -11 3 -14 6 -6 3 7 2 16 -1 19 -3 4 -6 -2 -5 -13z"/>
<path d="M490 400 c0 -40 4 -70 10 -70 6 0 10 30 10 70 0 40 -4 70 -10 70 -6
0 -10 -30 -10 -70z"/>
<path d="M550 383 c0 -28 3 -34 10 -23 13 20 13 60 0 60 -5 0 -10 -17 -10 -37z"/>
<path d="M451 398 c0 -7 4 -22 9 -33 7 -17 9 -15 9 13 1 17 -3 32 -9 32 -5 0
-10 -6 -9 -12z"/>
<path d="M837 463 c-3 -5 -1 -39 3 -78 l7 -70 2 78 c1 72 -2 88 -12 70z"/>
<path d="M950 449 c0 -5 5 -7 10 -4 6 3 10 8 10 11 0 2 -4 4 -10 4 -5 0 -10
-5 -10 -11z"/>
<path d="M1561 444 c0 -11 3 -14 6 -6 3 7 2 16 -1 19 -3 4 -6 -2 -5 -13z"/>
<path d="M910 440 c0 -5 5 -10 11 -10 5 0 7 5 4 10 -3 6 -8 10 -11 10 -2 0 -4
-4 -4 -10z"/>
<path d="M1321 386 c0 -36 4 -68 9 -71 6 -4 10 20 10 64 0 39 -4 71 -9 71 -5
0 -9 -29 -10 -64z"/>
<path d="M962 396 c-1 -18 2 -44 7 -57 8 -20 10 -14 10 34 1 61 -13 80 -17 23z"/>
<path d="M1000 358 c0 -49 5 -47 13 5 3 20 2 37 -4 37 -5 0 -9 -19 -9 -42z"/>
<path d="M1620 356 c0 -27 4 -45 9 -41 11 6 8 71 -3 82 -3 3 -6 -15 -6 -41z"/>
<path d="M1770 362 c0 -23 5 -42 10 -42 7 0 8 14 4 38 -9 51 -14 53 -14 4z"/>
<path d="M715 368 c-4 -10 -4 -26 0 -35 8 -17 8 -17 12 0 3 9 3 25 0 35 -4 16
-4 16 -12 0z"/>
<path d="M1032 350 c0 -14 2 -19 5 -12 2 6 2 18 0 25 -3 6 -5 1 -5 -13z"/>
<path d="M1900 345 c0 -14 5 -25 10 -25 6 0 10 11 10 25 0 14 -4 25 -10 25 -5
0 -10 -11 -10 -25z"/>
<path d="M2005 350 c-3 -5 -2 -10 4 -10 5 0 13 5 16 10 3 6 2 10 -4 10 -5 0
-13 -4 -16 -10z"/>
<path d="M1870 330 c0 -19 3 -21 12 -12 9 9 9 15 0 24 -9 9 -12 7 -12 -12z"/>
<path d="M133 214 c-8 -22 4 -29 21 -11 14 13 14 16 0 21 -8 3 -17 -1 -21 -10z"/>
<path d="M220 220 l-35 -5 0 -73 0 -72 35 0 c26 0 31 3 22 12 -13 13 -15 49
-6 98 6 29 10 31 35 26 16 -3 29 -2 29 3 0 12 -38 17 -80 11z"/>
<path d="M447 200 c5 -29 5 -30 -36 -30 -37 0 -41 2 -41 25 0 18 -5 25 -19 25
-17 0 -20 -9 -23 -75 -3 -72 -2 -75 19 -75 16 0 21 4 17 15 -4 8 -3 26 0 40 6
22 12 25 48 25 l41 0 -6 -40 c-5 -37 -3 -40 19 -40 21 0 22 3 14 24 -5 13 -7
49 -5 80 2 49 0 56 -16 56 -15 0 -17 -5 -12 -30z"/>
<path d="M518 149 l4 -79 48 0 c39 0 52 4 60 19 17 32 12 36 -14 12 -32 -30
-60 -24 -64 12 -3 25 -1 28 17 22 17 -5 21 -2 21 14 0 11 -4 23 -10 26 -5 3
-10 1 -10 -4 0 -6 -5 -11 -11 -11 -7 0 -9 12 -5 33 5 28 3 32 -17 33 -21 2
-22 -1 -19 -77z"/>
<path d="M590 210 c11 -11 22 -20 25 -20 3 0 5 9 5 20 0 15 -7 20 -25 20 l-25
0 20 -20z"/>
<path d="M791 203 c6 -16 8 -51 4 -81 l-7 -53 54 3 c44 2 53 6 57 23 3 19 2
19 -16 3 -28 -26 -65 -13 -61 21 2 20 8 26 26 25 15 0 22 5 22 18 0 14 -5 18
-19 13 -13 -4 -20 0 -24 14 -3 11 -2 22 1 25 10 10 52 6 52 -5 0 -5 5 -7 10
-4 22 14 -4 25 -55 25 l-55 0 11 -27z"/>
<path d="M958 159 c3 -52 0 -74 -10 -80 -8 -6 -2 -9 21 -9 25 0 31 3 24 13
-11 13 -15 75 -6 90 3 5 16 -2 30 -15 l25 -23 22 28 c12 15 26 27 30 27 5 0 6
-27 3 -60 -5 -55 -4 -60 15 -60 14 0 18 5 14 16 -3 9 -6 45 -6 80 0 71 -9 78
-45 37 l-24 -28 -26 28 c-14 15 -36 27 -48 27 -21 0 -22 -3 -19 -71z"/>
<path d="M1158 224 c8 -4 12 -30 12 -79 0 -65 2 -73 18 -68 14 3 17 12 14 39
-4 31 -2 34 21 34 14 0 35 9 48 19 20 16 22 23 13 38 -9 14 -25 18 -75 20 -35
1 -58 0 -51 -3z m87 -34 c0 -18 -6 -26 -22 -28 -20 -3 -23 1 -23 28 0 27 3 31
23 28 16 -2 22 -10 22 -28z"/>
<path d="M1328 148 l-3 -80 50 7 c28 3 57 13 65 22 13 14 13 15 -5 8 -11 -4
-32 -10 -47 -13 -26 -4 -28 -2 -28 27 0 17 5 31 10 31 6 0 10 -5 10 -11 0 -5
5 -7 10 -4 6 3 10 17 10 31 0 13 -4 24 -10 24 -5 0 -10 -4 -10 -10 0 -5 -4
-10 -10 -10 -5 0 -10 9 -10 19 0 21 38 35 64 25 9 -3 16 -1 16 5 0 7 -19 11
-54 10 l-55 -2 -3 -79z"/>
<path d="M1500 220 c-10 -7 -11 -10 -2 -10 12 0 11 -19 -3 -112 -4 -24 -1 -28
19 -28 22 0 24 3 19 40 -7 52 16 55 46 6 20 -31 48 -52 58 -42 2 2 -8 16 -22
31 -18 18 -25 32 -21 46 3 10 9 28 12 39 5 15 0 22 -21 30 -33 13 -65 13 -85
0z m80 -30 c0 -13 -7 -20 -20 -20 -13 0 -20 7 -20 20 0 13 7 20 20 20 13 0 20
-7 20 -20z"/>
<path d="M1866 222 c-3 -5 -5 -41 -4 -80 0 -64 3 -72 19 -72 15 0 19 8 19 40
0 52 18 52 48 0 12 -22 29 -40 37 -40 21 0 19 6 -11 46 -25 32 -26 36 -10 53
23 25 20 40 -10 51 -31 12 -81 13 -88 2z m74 -28 c0 -20 -30 -30 -40 -13 -11
17 7 40 26 32 8 -3 14 -12 14 -19z"/>
<path d="M1672 204 c-28 -20 -31 -83 -4 -107 28 -25 118 -23 132 2 16 31 12
75 -10 99 -25 26 -85 30 -118 6z m92 -10 c39 -39 -1 -106 -52 -88 -33 12 -42
56 -16 85 21 23 47 24 68 3z"/>
<path d="M2044 99 c-10 -17 13 -36 27 -22 12 12 4 33 -11 33 -5 0 -12 -5 -16
-11z"/>
</g>
</svg>
