<?xml version="1.0" standalone="no"?>
<!DOCTYPE svg PUBLIC "-//W3C//DTD SVG 20010904//EN"
 "http://www.w3.org/TR/2001/REC-SVG-20010904/DTD/svg10.dtd">
<svg version="1.0" xmlns="http://www.w3.org/2000/svg"
 width="219.000000pt" height="384.000000pt" viewBox="0 0 219.000000 384.000000"
 preserveAspectRatio="xMidYMid meet">
<metadata>
Created by potrace 1.16, written by Peter Selinger 2001-2019
</metadata>
<g transform="translate(0.000000,384.000000) scale(0.100000,-0.100000)"
fill="#000000" stroke="none">
<path d="M190 3830 l-165 -5 -7 -40 c-3 -22 -5 -632 -3 -1355 2 -723 4 -1567
5 -1874 l0 -559 833 7 c457 5 888 10 957 12 69 2 181 4 249 4 l124 0 -7 408
c-3 224 -8 844 -11 1377 -6 1072 -14 2018 -18 2021 -5 5 -1807 9 -1957 4z
m1110 -21 c415 0 772 -2 793 -5 l38 -6 -1 -381 c0 -351 2 -639 15 -1794 l4
-413 -40 0 c-26 0 -53 9 -77 25 -65 45 -154 66 -277 66 -60 1 -121 -1 -135 -3
l-25 -3 -6 141 c-3 77 -8 145 -11 150 -3 5 -9 77 -13 159 -3 83 -11 213 -16
290 -5 77 -14 194 -18 260 -9 133 -32 204 -73 226 -12 7 -43 17 -68 24 -33 8
-48 18 -59 39 -10 22 -18 27 -37 23 -19 -3 -25 2 -34 29 -6 18 -20 36 -31 39
-10 4 -24 15 -29 26 -6 10 -33 30 -61 44 -39 20 -58 24 -87 19 -83 -15 -131
-67 -135 -146 -2 -53 -2 -53 45 -83 53 -34 59 -48 39 -90 -8 -16 -19 -39 -24
-49 -5 -10 -16 -58 -24 -105 -13 -69 -16 -194 -18 -644 -1 -307 -4 -559 -6
-561 -2 -3 -49 -9 -104 -16 -55 -7 -104 -15 -110 -20 -19 -14 -102 -23 -320
-36 -60 -3 -115 -10 -121 -15 -12 -10 -164 -39 -207 -39 l-28 0 3 108 3 107
25 -2 c30 -3 46 9 84 64 16 24 32 40 37 37 14 -8 11 -30 -6 -44 -21 -18 -19
-35 2 -19 10 7 3 -3 -16 -23 -19 -21 -45 -38 -59 -40 -14 -2 -27 -9 -30 -16
-5 -15 44 -6 68 13 8 6 32 22 54 34 29 17 37 18 32 6 -3 -8 -9 -22 -12 -30 -3
-8 -2 -15 3 -15 11 0 43 53 43 72 0 8 7 23 15 34 14 18 16 18 26 2 5 -10 16
-18 24 -18 20 0 65 -22 65 -32 0 -4 -12 -8 -27 -9 -16 -1 4 -7 42 -14 39 -7
81 -16 95 -20 l25 -8 -27 22 c-16 13 -40 21 -62 21 -36 0 -44 8 -27 26 18 18
40 114 34 149 -4 22 -2 35 6 35 17 0 24 -43 19 -125 -2 -56 0 -75 9 -75 7 0
13 4 13 10 0 5 7 7 15 4 10 -4 13 -13 10 -25 -5 -14 -1 -19 13 -19 11 0 22 5
24 11 3 8 20 6 58 -5 34 -10 57 -13 63 -7 6 6 20 5 38 -5 15 -8 43 -14 61 -13
18 0 58 -2 88 -5 l55 -6 -63 16 c-40 10 -66 22 -69 32 -4 9 -11 20 -16 23 -11
8 -1 29 14 29 5 0 9 -11 9 -25 0 -29 12 -36 71 -38 45 -2 68 20 30 30 -16 4
-19 11 -15 28 3 13 1 26 -5 29 -6 4 -15 25 -21 46 -10 39 -31 52 -46 29 -4 -7
-11 -2 -18 13 -6 12 -22 24 -35 26 -19 3 -22 0 -16 -17 5 -16 3 -20 -9 -15
-19 7 -21 -7 -3 -25 10 -10 6 -10 -17 -1 -28 10 -28 10 -21 -17 3 -16 11 -29
16 -31 5 -2 9 -9 9 -16 0 -9 -16 -11 -57 -8 -32 2 -59 6 -61 7 -2 1 -5 26 -7
55 -4 55 -15 70 -50 70 -12 0 -26 5 -33 12 -7 7 -33 15 -60 18 l-47 5 -5 60
c-4 51 -9 61 -30 72 -35 18 -85 16 -104 -3 -9 -8 -16 -32 -17 -52 -1 -31 -2
-33 -8 -13 -14 52 -59 53 -89 1 -9 -16 -23 -30 -30 -30 -24 0 -50 -35 -57 -77
-6 -40 -24 -60 -26 -30 -4 59 -6 2313 -1 2379 l5 87 131 4 c72 1 185 1 251 -1
66 -2 460 -4 875 -3z m-195 -1079 c3 -6 -1 -7 -9 -4 -18 7 -21 14 -7 14 6 0
13 -4 16 -10z m2 -66 c-3 -3 -12 -4 -19 -1 -8 3 -5 6 6 6 11 1 17 -2 13 -5z
m-104 -31 c-7 -2 -19 -2 -25 0 -7 3 -2 5 12 5 14 0 19 -2 13 -5z m108 -11 c-7
-2 -18 1 -23 6 -8 8 -4 9 13 5 13 -4 18 -8 10 -11z m16 -28 c-3 -3 -12 -4 -19
-1 -8 3 -5 6 6 6 11 1 17 -2 13 -5z m183 -14 c0 -5 -4 -10 -9 -10 -6 0 -13 5
-16 10 -3 6 1 10 9 10 9 0 16 -4 16 -10z m-171 -16 c10 -9 -45 -3 -59 6 -11 7
-5 8 20 4 19 -4 37 -8 39 -10z m45 -18 c-3 -7 -32 -19 -64 -25 -33 -7 -62 -16
-65 -21 -9 -15 -25 -12 -25 5 0 8 -5 15 -11 15 -5 0 -7 5 -3 11 3 6 21 9 38 7
17 -3 51 1 76 8 60 16 60 16 54 0z m193 -24 c8 -5 -1 -8 -22 -8 -19 0 -35 4
-35 8 0 10 41 10 57 0z m43 -22 c0 -5 -2 -10 -4 -10 -3 0 -8 5 -11 10 -3 6 -1
10 4 10 6 0 11 -4 11 -10z m-260 -10 c13 -9 13 -10 0 -10 -8 0 -22 5 -30 10
-13 9 -13 10 0 10 8 0 22 -5 30 -10z m225 0 c3 -5 2 -10 -4 -10 -5 0 -13 5
-16 10 -3 6 -2 10 4 10 5 0 13 -4 16 -10z m-90 -30 c10 -11 16 -20 13 -20 -3
0 -13 9 -23 20 -10 11 -16 20 -13 20 3 0 13 -9 23 -20z m163 -25 c-3 -3 -9 2
-12 12 -6 14 -5 15 5 6 7 -7 10 -15 7 -18z m-51 -67 c-2 -13 -4 -3 -4 22 0 25
2 35 4 23 2 -13 2 -33 0 -45z m60 30 c-3 -8 -6 -5 -6 6 -1 11 2 17 5 13 3 -3
4 -12 1 -19z m-420 -20 c-3 -8 -6 -5 -6 6 -1 11 2 17 5 13 3 -3 4 -12 1 -19z
m3 -38 c0 -5 -5 -10 -11 -10 -5 0 -7 5 -4 10 3 6 8 10 11 10 2 0 4 -4 4 -10z
m307 -67 c-3 -10 -5 -4 -5 12 0 17 2 24 5 18 2 -7 2 -21 0 -30z m-310 -20 c-3
-10 -5 -2 -5 17 0 19 2 27 5 18 2 -10 2 -26 0 -35z m440 10 c-3 -10 -5 -4 -5
12 0 17 2 24 5 18 2 -7 2 -21 0 -30z m-70 -15 c-3 -7 -5 -2 -5 12 0 14 2 19 5
13 2 -7 2 -19 0 -25z m-368 -105 c-1 -43 -5 -96 -9 -118 -6 -30 -8 -12 -9 71
-1 97 3 124 16 124 1 0 2 -35 2 -77z m379 52 c-3 -3 -9 2 -12 12 -6 14 -5 15
5 6 7 -7 10 -15 7 -18z m92 -175 c0 -5 -4 -10 -10 -10 -5 0 -10 5 -10 10 0 6
5 10 10 10 6 0 10 -4 10 -10z m-483 -77 c-3 -10 -5 -4 -5 12 0 17 2 24 5 18 2
-7 2 -21 0 -30z m483 23 c0 -3 -4 -8 -10 -11 -5 -3 -10 -1 -10 4 0 6 5 11 10
11 6 0 10 -2 10 -4z m-103 -98 c-2 -13 -4 -3 -4 22 0 25 2 35 4 23 2 -13 2
-33 0 -45z m103 -6 c-7 -13 -9 -8 -9 23 0 35 1 37 10 17 6 -15 5 -30 -1 -40z
m-103 -54 c-3 -7 -5 -2 -5 12 0 14 2 19 5 13 2 -7 2 -19 0 -25z m106 7 c-7
-21 -13 -19 -13 6 0 11 4 18 10 14 5 -3 7 -12 3 -20z m-366 -17 c-3 -8 -6 -5
-6 6 -1 11 2 17 5 13 3 -3 4 -12 1 -19z m0 -60 c-3 -7 -5 -2 -5 12 0 14 2 19
5 13 2 -7 2 -19 0 -25z m376 16 c-7 -3 -9 -12 -6 -20 3 -8 0 -14 -6 -14 -6 0
-11 9 -11 20 0 13 6 20 18 19 9 0 12 -3 5 -5z m-116 -71 c-3 -10 -5 -2 -5 17
0 19 2 27 5 18 2 -10 2 -26 0 -35z m13 -66 c0 -5 -4 -5 -10 -2 -5 3 -10 14
-10 23 0 15 2 15 10 2 5 -8 10 -19 10 -23z m124 9 c6 -25 -1 -56 -13 -56 -3 0
-6 18 -6 40 0 45 10 53 19 16z m-127 -68 c-3 -7 -5 -2 -5 12 0 14 2 19 5 13 2
-7 2 -19 0 -25z m-274 7 c-3 -9 -8 -14 -10 -11 -3 3 -2 9 2 15 9 16 15 13 8
-4z m-821 -52 c0 -16 0 -40 -1 -55 -4 -48 15 -70 57 -66 l37 3 3 -44 c4 -53
-5 -94 -18 -86 -6 4 -13 -1 -16 -9 -15 -40 -82 0 -85 51 -1 17 -2 17 -6 0 -8
-31 -28 -12 -25 22 2 18 -2 38 -8 46 -9 11 -9 32 -1 84 6 38 11 72 11 75 0 3
11 6 25 6 20 0 25 -5 27 -27z m828 -34 c0 -11 -4 -17 -10 -14 -5 3 -10 13 -10
21 0 8 5 14 10 14 6 0 10 -9 10 -21z m267 -41 c-3 -8 -6 -5 -6 6 -1 11 2 17 5
13 3 -3 4 -12 1 -19z m-1233 -53 c-4 -8 -8 -15 -10 -15 -2 0 -4 7 -4 15 0 8 4
15 10 15 5 0 7 -7 4 -15z m1233 -32 c-3 -10 -5 -4 -5 12 0 17 2 24 5 18 2 -7
2 -21 0 -30z m-1224 -2 c-3 -11 -16 -30 -30 -43 l-26 -23 13 25 c12 23 40 60
46 60 1 0 0 -9 -3 -19z m834 -48 c-3 -10 -5 -2 -5 17 0 19 2 27 5 18 2 -10 2
-26 0 -35z m-477 11 c0 -2 -7 -4 -15 -4 -8 0 -15 4 -15 10 0 5 7 7 15 4 8 -4
15 -8 15 -10z m-460 -40 c0 -14 -4 -22 -10 -19 -5 3 -10 17 -10 31 0 14 4 22
10 19 6 -3 10 -17 10 -31z m1472 -36 c-2 -5 -10 -8 -19 -8 -12 0 -13 3 -4 14
7 8 11 20 10 28 -4 32 4 39 10 8 4 -19 5 -38 3 -42z m-415 5 c-3 -10 -5 -2 -5
17 0 19 2 27 5 18 2 -10 2 -26 0 -35z m678 37 c70 -10 195 -62 195 -81 0 -5
-13 -12 -30 -15 -16 -4 -30 -10 -30 -15 0 -13 20 -11 73 7 25 8 58 14 74 12
l28 -3 3 -102 c3 -98 2 -103 -18 -103 -11 0 -20 -7 -20 -15 0 -8 -5 -15 -11
-15 -5 0 -7 5 -4 10 3 6 -3 10 -14 10 -12 0 -21 -7 -21 -15 0 -9 -7 -18 -15
-21 -17 -7 -20 -34 -4 -34 8 0 8 -4 -1 -15 -6 -8 -9 -19 -6 -24 4 -5 2 -12 -4
-16 -18 -11 -11 -27 9 -20 18 5 20 0 23 -52 2 -34 7 -56 13 -53 6 3 8 29 7 57
-3 43 -1 54 14 60 16 6 16 7 -2 14 -17 7 -17 8 4 8 43 2 52 -20 52 -118 l0
-91 -33 0 c-18 0 -50 9 -72 20 -27 14 -59 20 -102 20 -40 0 -63 4 -63 11 0 6
20 53 44 104 25 52 48 109 51 128 6 31 3 38 -20 53 -40 26 -210 32 -269 10
-73 -28 -73 -31 -12 -149 48 -91 55 -112 52 -154 -2 -45 -4 -48 -32 -51 -16
-1 -35 2 -42 6 -15 10 -42 200 -42 295 0 54 1 57 24 57 14 0 28 5 31 10 4 6
-7 10 -24 10 -30 0 -31 2 -31 43 0 30 3 38 10 27 8 -12 13 -13 30 -2 11 6 25
12 32 12 7 -1 0 -8 -15 -16 -37 -20 -27 -31 13 -14 17 7 28 15 25 18 -2 3 0
11 6 19 9 10 7 13 -11 13 -26 0 -25 33 2 38 12 2 18 -7 23 -37 10 -59 25 -60
25 -2 0 32 -6 55 -16 65 -23 24 -67 20 -98 -9 -32 -30 -39 -20 -34 51 l3 49
45 6 c72 10 110 9 185 -1z m-458 -37 c-3 -10 -5 -4 -5 12 0 17 2 24 5 18 2 -7
2 -21 0 -30z m-529 -15 c-5 -15 -23 -11 -26 6 -2 11 2 14 13 10 9 -4 14 -11
13 -16z m-145 -12 c40 -14 81 -46 59 -46 -7 0 -30 9 -51 19 -26 14 -41 17 -48
10 -8 -8 -17 -7 -32 0 -53 29 2 42 72 17z m734 -48 c-3 -7 -5 -2 -5 12 0 14 2
19 5 13 2 -7 2 -19 0 -25z m-279 -45 c-1 -62 -2 -64 -7 -23 -3 25 -4 55 -2 68
7 42 11 22 9 -45z m426 14 c10 -52 5 -237 -5 -237 -6 0 -8 4 -5 9 4 5 0 12 -6
15 -10 5 -10 7 -1 12 7 3 10 11 7 18 -3 7 -6 58 -7 114 -3 101 5 133 17 69z
m-207 -9 c-3 -8 -6 -5 -6 6 -1 11 2 17 5 13 3 -3 4 -12 1 -19z m60 -55 c-3
-10 -5 -2 -5 17 0 19 2 27 5 18 2 -10 2 -26 0 -35z m-532 -23 c4 -6 -6 -10
-22 -10 -15 0 -44 -5 -63 -10 -19 -6 -71 -15 -115 -20 -44 -5 -109 -14 -145
-19 -36 -6 -107 -13 -158 -16 -52 -3 -122 -15 -155 -25 -54 -16 -190 -50 -203
-50 -2 0 -4 7 -4 15 0 16 40 28 149 45 40 6 82 15 93 21 11 6 50 12 86 14 133
6 338 26 372 37 19 6 60 14 90 18 30 4 58 8 62 9 4 0 10 -3 13 -9z m252 -182
c-2 -35 -3 -9 -3 57 0 66 1 94 3 63 2 -32 2 -86 0 -120z m-227 151 c0 -6 -120
-37 -180 -46 -19 -3 -40 -12 -47 -20 -10 -13 -15 -13 -27 -4 -11 9 -40 9 -127
0 -63 -6 -121 -11 -129 -11 -8 0 -26 -2 -40 -5 -48 -10 11 -21 70 -13 30 5 84
11 120 14 l65 5 -65 -19 c-36 -10 -90 -27 -120 -38 -58 -21 -70 -20 -70 4 0 9
-11 14 -34 14 -39 0 -88 -35 -111 -80 -12 -22 -26 -29 -90 -43 -91 -20 -114
-22 -98 -6 6 6 31 13 55 15 47 3 130 34 111 41 -7 3 -32 -2 -55 -11 -24 -9
-52 -15 -63 -15 -11 1 -28 -2 -37 -6 -13 -5 -18 -3 -18 8 0 16 74 41 106 36
10 -2 44 11 74 29 30 17 61 32 68 32 6 0 12 5 12 10 0 15 -10 12 -74 -20 -32
-17 -73 -30 -90 -31 -17 0 -40 -4 -51 -8 -25 -10 -45 -3 -45 15 0 8 2 14 5 14
20 0 166 33 195 44 36 14 139 29 320 46 143 14 166 17 256 39 80 19 114 22
114 10z m0 -34 c-7 -8 -23 -15 -36 -15 -12 0 -29 -7 -38 -15 -9 -9 -33 -15
-63 -14 -43 0 -46 1 -23 11 24 10 145 45 164 47 5 1 3 -6 -4 -14z m97 -32 c-3
-10 -5 -2 -5 17 0 19 2 27 5 18 2 -10 2 -26 0 -35z m823 28 c0 -5 12 -9 28
-10 58 -2 72 -6 72 -18 0 -15 -16 -17 -25 -3 -3 6 -16 10 -28 10 -21 -1 -21
-1 -3 -15 18 -13 17 -14 -5 -19 -44 -10 -131 -14 -164 -9 -25 4 -31 9 -28 23
5 19 25 29 83 40 53 11 70 11 70 1z m-910 -190 l0 -159 -37 -4 c-74 -9 -83 -2
-83 58 l0 54 -39 0 c-21 0 -58 -9 -82 -20 -24 -11 -63 -20 -86 -20 -37 0 -44
4 -58 30 -10 20 -23 30 -38 30 -14 0 -40 18 -67 44 l-43 45 29 12 c16 6 44 17
62 25 54 23 180 45 246 44 144 -4 176 -1 176 16 0 8 5 12 10 9 6 -4 10 -70 10
-164z m497 137 c-3 -7 -5 -2 -5 12 0 14 2 19 5 13 2 -7 2 -19 0 -25z m710 -4
c-3 -3 -12 -4 -19 -1 -8 3 -5 6 6 6 11 1 17 -2 13 -5z m-1120 -146 c-2 -29 -3
-8 -3 47 0 55 1 79 3 53 2 -26 2 -71 0 -100z m917 127 c-3 -8 -22 -19 -43 -24
-20 -5 -52 -14 -71 -20 -33 -10 -32 -10 14 -5 27 3 55 8 62 11 8 3 14 0 14 -6
0 -6 -12 -13 -27 -17 -16 -3 -39 -10 -53 -15 -20 -7 -17 -8 18 -5 23 2 42 0
42 -5 0 -5 -13 -9 -29 -9 -17 0 -33 -5 -37 -11 -5 -8 1 -10 20 -7 14 3 26 1
26 -3 0 -5 -14 -9 -31 -9 -17 0 -28 -4 -24 -10 3 -5 15 -10 25 -10 14 0 18 -5
13 -16 -4 -12 -8 -13 -13 -3 -5 6 -17 9 -28 7 -13 -4 -23 0 -26 8 -3 8 -14 14
-24 14 -10 0 -26 8 -34 18 -26 31 -68 111 -61 115 5 3 40 1 78 -3 39 -4 62 -8
53 -9 -10 0 -18 -5 -18 -10 0 -11 56 -5 108 11 17 5 32 14 32 19 0 5 4 9 10 9
5 0 7 -7 4 -15z m206 -20 c0 -11 -10 -15 -37 -14 -36 2 -36 2 -8 7 l30 5 -30
7 c-30 8 -29 8 8 9 27 1 37 -3 37 -14z m-562 -7 c-2 -6 -10 -14 -16 -16 -7 -2
-10 2 -6 12 7 18 28 22 22 4z m-1228 -7 c0 -5 25 -35 56 -66 53 -52 55 -57 40
-74 -9 -10 -16 -22 -16 -28 0 -6 -9 -13 -20 -16 -15 -4 -20 -14 -20 -37 0 -17
-4 -29 -9 -25 -5 3 -7 21 -4 40 3 21 1 35 -5 35 -14 0 -22 -25 -22 -68 -1 -31
-2 -34 -11 -19 -8 13 -8 31 0 62 13 53 13 55 2 55 -4 0 -13 -15 -19 -32 -12
-33 -12 -33 -7 10 6 44 -8 58 -21 20 -4 -13 -8 -50 -9 -83 -2 -40 -7 -60 -16
-63 -11 -3 -11 -2 -2 8 7 7 8 22 4 39 -5 14 -2 53 5 86 16 75 16 77 4 70 -13
-8 -13 1 1 27 10 18 9 20 -5 15 -14 -5 -15 -3 -6 13 17 32 80 56 80 31z m1247
-92 c11 -63 17 -159 9 -159 -2 0 -13 -3 -23 -6 -15 -5 -16 -4 -3 5 13 10 13
13 -4 26 -17 13 -18 15 -3 15 22 0 22 19 0 35 -15 11 -15 15 -4 29 11 13 11
16 0 17 -10 0 -10 2 -2 5 7 3 10 11 8 17 -2 7 -6 29 -8 50 -8 64 16 37 30 -34z
m-1404 -61 c-7 -29 -11 -63 -8 -75 5 -21 3 -21 -26 -11 -22 8 -37 7 -55 -1
-14 -6 -36 -11 -49 -11 -24 0 -25 3 -25 60 0 54 2 60 22 64 13 3 41 9 63 14
22 6 52 10 66 11 l26 1 -14 -52z m1244 10 c-3 -8 -6 -5 -6 6 -1 11 2 17 5 13
3 -3 4 -12 1 -19z m-917 -2 c0 -9 -7 -12 -21 -9 -16 4 -17 8 -7 14 19 13 28
11 28 -5z m627 -23 c-3 -10 -5 -4 -5 12 0 17 2 24 5 18 2 -7 2 -21 0 -30z
m-368 18 c10 -6 12 -23 9 -61 -6 -57 -16 -69 -55 -62 -23 4 -25 8 -19 41 3 20
6 46 6 58 0 18 9 25 40 32 3 0 11 -3 19 -8z m-532 -38 c-3 -10 -5 -4 -5 12 0
17 2 24 5 18 2 -7 2 -21 0 -30z m1533 17 c0 -5 -2 -10 -4 -10 -3 0 -8 5 -11
10 -3 6 -1 10 4 10 6 0 11 -4 11 -10z m-1274 -15 c19 -19 14 -19 -22 0 -21 11
-24 15 -11 15 10 0 25 -7 33 -15z m184 -10 c0 -13 -6 -28 -14 -32 -8 -4 -16
-21 -19 -38 -3 -23 -4 -20 -6 14 -1 42 -2 43 -31 39 -47 -7 -36 17 13 29 23 5
45 11 50 12 4 0 7 -10 7 -24z m-187 -40 c6 -14 -1 -25 -14 -25 -5 0 -6 7 -3
15 4 9 -3 16 -20 21 -26 6 -32 15 -20 27 8 8 51 -20 57 -38z m504 -2 c-3 -10
-5 -4 -5 12 0 17 2 24 5 18 2 -7 2 -21 0 -30z m928 27 c-3 -5 3 -10 15 -10 12
0 31 -5 43 -12 22 -12 21 -12 -8 -19 -33 -7 -171 -9 -142 -2 10 2 16 12 15 21
-2 11 3 16 15 16 9 -1 17 2 17 7 0 5 12 9 26 9 14 0 23 -4 19 -10z m-488 -37
c-3 -10 -5 -4 -5 12 0 17 2 24 5 18 2 -7 2 -21 0 -30z m268 -15 c7 -7 -30
-121 -58 -177 -15 -29 -27 -57 -27 -62 0 -19 66 -42 125 -43 48 -1 60 -4 63
-18 4 -21 -69 -178 -91 -197 -23 -18 -21 -37 3 -54 18 -12 5 -15 -117 -20 -76
-4 -273 -10 -438 -13 -264 -6 -304 -4 -330 10 -16 9 -42 16 -57 16 -15 0 -30
4 -33 10 -3 5 -16 10 -28 11 -12 1 -5 5 18 10 53 13 65 26 41 45 -34 25 -347
17 -373 -10 -3 -3 -1 -12 5 -19 7 -8 9 -17 5 -20 -10 -10 -65 -8 -61 2 2 4 28
31 59 60 37 33 66 51 82 51 14 0 30 7 35 17 15 25 150 11 210 -22 77 -43 82
-39 82 65 0 53 -4 90 -10 90 -5 0 -10 -15 -10 -34 0 -19 -5 -38 -12 -42 -8 -5
-9 5 -5 36 3 25 13 47 22 53 15 8 15 10 1 26 -25 28 -38 118 -25 171 l11 45
64 -3 c60 -3 63 -5 66 -30 3 -23 8 -27 36 -27 28 0 32 -3 32 -26 0 -47 30 -72
93 -77 40 -3 57 -9 57 -18 0 -8 21 -24 47 -37 37 -17 49 -29 55 -55 13 -50 -9
-78 -66 -84 -51 -6 -96 -31 -96 -53 0 -31 56 -46 180 -48 119 -2 120 -2 143
25 12 15 33 28 47 30 18 2 24 8 23 23 -8 63 -12 78 -22 84 -6 4 -8 22 -4 44 5
35 8 37 44 37 25 0 47 8 65 23 23 20 25 26 15 44 -21 39 -13 77 19 101 21 16
30 31 30 51 0 28 1 28 40 21 23 -4 43 -9 45 -12z m407 4 c16 -7 18 -32 20
-287 l3 -280 -75 -1 c-41 -1 -65 0 -52 3 30 6 28 23 -8 68 -35 44 -53 102 -52
165 4 167 5 172 52 252 40 68 54 81 90 86 3 0 13 -2 22 -6z m-1885 -49 c32
-21 70 -43 86 -50 22 -10 27 -18 26 -45 -1 -18 -3 -25 -6 -15 -6 21 -12 21
-35 0 -17 -15 -18 -15 -18 0 0 26 -17 20 -28 -10 l-10 -28 -1 33 c-1 32 -15
43 -24 20 -3 -7 -6 -3 -6 10 -1 35 -21 26 -21 -10 l-1 -33 -13 30 c-9 20 -10
34 -3 43 6 8 6 12 -2 12 -7 0 -10 15 -9 40 2 22 4 40 5 40 2 0 29 -17 60 -37z
m1221 -38 l0 -30 -8 30 c-4 17 -8 41 -8 55 l0 25 8 -25 c4 -14 8 -38 8 -55z
m476 50 c24 -21 25 -24 9 -28 -12 -3 -8 -5 10 -6 38 -1 34 -21 -5 -22 -24 -1
-27 -3 -10 -6 31 -6 28 -23 -5 -24 -24 -2 -25 -2 -5 -6 27 -5 29 -23 2 -23
-11 0 -20 -4 -20 -10 0 -5 5 -10 10 -10 6 0 10 -4 10 -10 0 -5 -7 -10 -16 -10
-21 0 -43 -28 -44 -55 0 -17 -2 -17 -10 -5 -5 8 -7 23 -4 32 3 10 0 23 -5 30
-11 14 -91 166 -91 173 0 3 33 4 74 4 61 -1 77 -5 100 -24z m-1353 -4 l23 -18
-21 -11 c-17 -10 -20 -9 -19 6 1 15 -13 18 -114 22 -122 5 -105 16 31 18 62 2
81 -2 100 -17z m144 9 c14 -23 -122 -83 -215 -94 -42 -5 -41 -4 23 18 37 13
88 37 115 54 51 33 67 38 77 22z m432 -12 c-3 -8 -6 -5 -6 6 -1 11 2 17 5 13
3 -3 4 -12 1 -19z m-1099 0 c-6 -18 -28 -21 -28 -4 0 9 7 16 16 16 9 0 14 -5
12 -12z m1542 -3 c-7 -9 -15 -13 -17 -11 -7 7 7 26 19 26 6 0 6 -6 -2 -15z
m153 2 c9 -23 -26 -178 -46 -204 -8 -11 -34 -5 -55 12 -2 2 10 29 26 61 15 33
34 78 42 102 14 43 24 52 33 29z m250 6 c-7 -2 -21 -2 -30 0 -10 3 -4 5 12 5
17 0 24 -2 18 -5z m-1859 -55 c-3 -24 -10 -70 -15 -102 -14 -100 -49 -109 -64
-18 -4 28 -3 42 4 42 6 0 11 20 11 48 0 39 4 49 23 58 42 21 48 17 41 -28z
m364 20 c-3 -26 -41 -37 -62 -19 -16 13 -54 16 -81 6 -19 -7 -19 -7 1 8 11 9
45 18 75 20 30 2 58 4 62 5 5 1 7 -8 5 -20z m246 0 c9 -34 7 -58 -4 -58 -5 0
-10 7 -10 15 0 8 -5 15 -11 15 -6 0 -8 -7 -5 -16 5 -13 3 -14 -6 -7 -7 5 -20
9 -28 8 -8 -1 -23 -3 -32 -3 -10 -1 -18 -10 -19 -19 0 -15 -2 -15 -8 2 -7 17
-1 24 38 43 25 13 50 28 56 33 14 14 22 11 29 -13z m-144 -52 c0 -2 -7 -6 -15
-10 -8 -3 -15 -1 -15 4 0 6 7 10 15 10 8 0 15 -2 15 -4z m1185 -56 c-28 -12
-45 -12 -45 0 0 6 15 10 33 9 27 0 29 -2 12 -9z m-368 -6 c-3 -3 -12 -4 -19
-1 -8 3 -5 6 6 6 11 1 17 -2 13 -5z m133 -9 c-7 -8 -17 -15 -23 -15 -6 0 -2 7
9 15 25 19 30 19 14 0z m-1373 -47 c-2 -13 -4 -5 -4 17 -1 22 1 32 4 23 2 -10
2 -28 0 -40z m392 37 c97 -17 112 -26 80 -49 -39 -27 -119 -50 -132 -37 -16
16 -68 14 -81 -4 -10 -12 -20 -12 -78 0 -37 8 -81 20 -99 28 l-33 13 54 22
c45 19 58 20 85 11 32 -12 38 -11 85 16 30 18 18 18 119 0z m199 -42 c-17 -21
-75 -49 -143 -68 -33 -10 -66 -20 -72 -22 -7 -3 -13 0 -13 6 0 7 17 19 38 27
67 27 102 48 135 82 l32 33 18 -22 c14 -17 15 -25 5 -36z m1022 37 c0 -5 -13
-10 -30 -10 -16 0 -30 5 -30 10 0 6 14 10 30 10 17 0 30 -4 30 -10z m-440 -4
c0 -3 -4 -8 -10 -11 -5 -3 -10 -1 -10 4 0 6 5 11 10 11 6 0 10 -2 10 -4z
m-113 -12 c-3 -3 -12 -4 -19 -1 -8 3 -5 6 6 6 11 1 17 -2 13 -5z m61 -1 c-10
-2 -26 -2 -35 0 -10 3 -2 5 17 5 19 0 27 -2 18 -5z m-1239 -67 c6 -4 11 -16
11 -27 0 -13 -7 -19 -22 -19 -21 1 -22 2 -5 14 17 13 16 14 -3 19 -16 4 -20
13 -20 44 l1 38 13 -31 c8 -18 19 -35 25 -38z m1844 44 c3 -12 0 -20 -8 -20
-8 0 -11 8 -8 20 3 11 7 20 8 20 1 0 5 -9 8 -20z m-156 4 c-3 -3 -12 -4 -19
-1 -8 3 -5 6 6 6 11 1 17 -2 13 -5z m-432 -24 c3 -5 1 -10 -4 -10 -6 0 -11 5
-11 10 0 6 2 10 4 10 3 0 8 -4 11 -10z m75 -10 c0 -5 -2 -10 -4 -10 -3 0 -8 5
-11 10 -3 6 -1 10 4 10 6 0 11 -4 11 -10z m-630 -31 c0 -16 -4 -28 -9 -25 -8
5 -3 56 5 56 2 0 4 -14 4 -31z m-415 -3 c76 -19 90 -26 93 -44 3 -16 -4 -25
-23 -32 -21 -8 -25 -14 -20 -37 l5 -28 -11 28 c-11 28 -29 37 -29 15 0 -8 -7
-5 -15 6 -15 19 -15 19 -15 -3 0 -12 -4 -19 -10 -16 -5 3 -10 17 -10 30 0 29
-16 41 -27 20 -7 -12 -13 -3 -25 35 -9 27 -13 50 -10 49 4 0 48 -11 97 -23z
m1515 -14 c0 -32 -37 -233 -45 -240 -2 -3 -10 0 -17 5 -7 6 -25 13 -40 17 -16
3 -28 10 -28 15 0 5 16 34 35 66 19 32 42 81 51 109 9 28 19 54 21 59 9 15 23
-5 23 -31z m-1720 18 c0 -5 -9 -10 -21 -10 -11 0 -17 5 -14 10 3 6 13 10 21
10 8 0 14 -4 14 -10z m340 0 c0 -5 -5 -10 -11 -10 -5 0 -7 5 -4 10 3 6 8 10
11 10 2 0 4 -4 4 -10z m870 -25 c0 -23 4 -34 13 -32 7 1 13 -12 15 -35 3 -41
1 -43 -29 -27 -15 7 -24 7 -35 -2 -11 -9 -17 -9 -30 2 -13 10 -17 10 -24 0 -5
-8 -10 -9 -14 -3 -7 11 -71 11 -82 -1 -11 -11 -52 -8 -59 4 -11 18 26 36 84
42 42 5 61 12 75 29 12 15 27 22 42 20 14 -2 24 2 24 8 0 7 -7 9 -16 6 -9 -3
-20 -3 -25 0 -17 10 2 24 32 24 27 0 29 -3 29 -35z m-1104 -95 c6 -64 -3 -140
-16 -140 -5 0 -14 10 -21 21 -19 36 -48 149 -38 149 5 0 9 9 9 20 0 11 7 20
15 20 9 0 15 10 16 28 1 27 1 27 16 -8 8 -19 17 -59 19 -90z m441 88 c-3 -7
-5 -2 -5 12 0 14 2 19 5 13 2 -7 2 -19 0 -25z m43 28 c0 -3 -4 -8 -10 -11 -5
-3 -10 -1 -10 4 0 6 5 11 10 11 6 0 10 -2 10 -4z m-225 -26 c3 -6 -4 -10 -17
-10 -18 0 -20 2 -8 10 19 12 18 12 25 0z m-369 -12 c7 -10 -9 -27 -46 -48 -12
-7 -12 -11 -1 -24 12 -14 10 -16 -16 -16 -28 0 -53 15 -53 32 0 4 11 8 24 8
15 0 33 11 48 29 26 33 33 36 44 19z m-96 -18 c0 -5 -4 -10 -10 -10 -5 0 -10
5 -10 10 0 6 5 10 10 10 6 0 10 -4 10 -10z m480 0 c0 -5 -5 -10 -11 -10 -5 0
-7 5 -4 10 3 6 8 10 11 10 2 0 4 -4 4 -10z m1390 0 c0 -5 -7 -10 -16 -10 -8 0
-12 5 -9 10 3 6 10 10 16 10 5 0 9 -4 9 -10z m5 -40 c-3 -5 -15 -10 -26 -10
-10 0 -19 5 -19 10 0 6 12 10 26 10 14 0 23 -4 19 -10z m-1628 -47 c-3 -10 -5
-4 -5 12 0 17 2 24 5 18 2 -7 2 -21 0 -30z m1643 17 c0 -5 -13 -10 -30 -10
-16 0 -30 5 -30 10 0 6 14 10 30 10 17 0 30 -4 30 -10z m-1770 -65 c12 -36 26
-67 31 -70 25 -16 1 -21 -73 -17 -85 5 -98 11 -98 49 0 27 16 38 51 35 33 -3
60 24 34 34 -15 6 -15 9 6 20 13 7 25 13 26 14 1 0 11 -29 23 -65z m1800 13
c0 -4 -12 -8 -27 -8 -16 0 -39 -3 -52 -7 -17 -4 -22 -3 -17 5 4 7 18 12 31 12
13 0 26 4 30 9 3 6 -10 8 -32 4 -27 -4 -35 -2 -28 5 26 27 95 13 95 -20z
m-1633 10 c-3 -8 -6 -5 -6 6 -1 11 2 17 5 13 3 -3 4 -12 1 -19z m-40 -35 c-3
-10 -5 -4 -5 12 0 17 2 24 5 18 2 -7 2 -21 0 -30z m411 29 c34 -1 62 -6 62
-11 0 -5 -30 -13 -67 -17 -75 -10 -84 -23 -26 -40 21 -6 45 -13 53 -17 8 -3
31 -8 50 -10 19 -1 -31 -4 -112 -5 -94 -1 -148 2 -148 8 0 5 -21 10 -47 10
-27 0 -55 5 -63 10 -11 7 -4 10 26 10 24 0 47 6 54 15 13 15 13 15 -30 28 -9
3 -1 8 19 14 32 8 77 9 229 5z m1288 -39 c-3 -8 -1 -11 4 -8 6 3 10 2 10 -4 0
-10 -84 -31 -123 -31 -35 0 0 18 51 26 23 3 42 11 42 16 0 6 -11 7 -27 3 -82
-22 -93 -23 -93 -10 0 9 22 16 63 22 69 10 81 8 73 -14z m-1642 -38 c8 -8 25
-15 37 -15 40 0 11 -13 -38 -17 -66 -5 -81 2 -52 27 29 24 34 24 53 5z"/>
<path d="M1112 3722 c-12 -2 -21 -9 -20 -15 1 -7 -1 -25 -6 -42 l-8 -30 -13
25 c-8 14 -12 33 -9 43 4 13 -1 17 -20 17 -31 0 -31 0 -5 -45 12 -19 19 -44
16 -55 -4 -17 0 -20 29 -20 23 0 32 4 28 13 -2 7 6 34 19 60 26 50 25 55 -11
49z"/>
<path d="M290 1200 c0 -12 -16 -36 -35 -55 -19 -19 -30 -35 -24 -35 13 0 67
36 91 61 16 16 16 19 2 33 -21 22 -34 20 -34 -4z"/>
<path d="M290 1501 c0 -26 16 -35 24 -15 10 25 7 34 -9 34 -8 0 -15 -9 -15
-19z"/>
<path d="M400 1360 c0 -5 5 -10 10 -10 6 0 10 5 10 10 0 6 -4 10 -10 10 -5 0
-10 -4 -10 -10z"/>
<path d="M360 1349 c0 -5 5 -7 10 -4 6 3 10 8 10 11 0 2 -4 4 -10 4 -5 0 -10
-5 -10 -11z"/>
<path d="M1815 1165 c-15 -14 -25 -36 -25 -53 0 -34 -13 -47 -57 -57 -18 -3
-33 -11 -33 -16 0 -5 3 -9 6 -9 17 0 91 25 109 37 11 7 28 13 38 13 10 0 17 6
16 13 -4 33 2 47 21 47 23 0 26 -10 8 -28 -6 -6 -10 -14 -7 -16 3 -3 20 9 39
27 30 28 32 32 15 36 -11 2 -29 10 -40 17 -29 21 -63 17 -90 -11z"/>
<path d="M2098 813 c7 -3 16 -2 19 1 4 3 -2 6 -13 5 -11 0 -14 -3 -6 -6z"/>
<path d="M1312 251 c-11 -7 -11 -9 2 -14 10 -4 16 -1 16 8 0 17 -1 17 -18 6z"/>
</g>
</svg>
