<?xml version="1.0" standalone="no"?>
<!DOCTYPE svg PUBLIC "-//W3C//DTD SVG 20010904//EN"
 "http://www.w3.org/TR/2001/REC-SVG-20010904/DTD/svg10.dtd">
<svg version="1.0" xmlns="http://www.w3.org/2000/svg"
 width="219.000000pt" height="381.000000pt" viewBox="0 0 219.000000 381.000000"
 preserveAspectRatio="xMidYMid meet">
<metadata>
Created by potrace 1.16, written by Peter Selinger 2001-2019
</metadata>
<g transform="translate(0.000000,381.000000) scale(0.100000,-0.100000)"
fill="#000000" stroke="none">
<path d="M1445 3792 c-2 -2 -318 -6 -702 -8 -384 -2 -706 -3 -717 -4 -17 0
-18 -22 -12 -637 3 -351 8 -1079 11 -1618 6 -1061 13 -1496 24 -1507 5 -6
2042 -14 2120 -9 12 1 13 195 7 1349 -12 2289 -13 2413 -24 2424 -9 9 -697 19
-707 10z m686 -55 c1 -18 3 -229 5 -469 l4 -437 -48 -3 -47 -3 0 -85 0 -85
-145 -4 c-270 -6 -305 -6 -405 2 -124 10 -120 -1 6 -14 98 -10 220 -12 422 -7
65 2 121 0 123 -4 9 -14 24 -9 18 6 -3 7 2 21 11 30 9 9 12 16 6 16 -6 0 -11
7 -11 15 0 8 5 15 12 15 6 0 3 7 -8 15 -17 13 -17 14 -1 15 21 0 22 7 2 26
-28 29 -18 44 28 43 l42 -2 -40 -7 -40 -6 34 -5 c29 -3 35 -8 38 -33 2 -17 -1
-33 -9 -37 -10 -7 -10 -9 0 -9 6 0 12 -11 12 -25 0 -14 -5 -25 -12 -25 -9 0
-9 -3 0 -12 16 -16 16 -125 0 -131 -10 -4 -10 -7 0 -14 6 -5 11 -27 10 -49 -1
-38 -3 -40 -29 -36 -15 2 -35 -1 -46 -7 -15 -8 -9 -10 30 -11 50 0 75 -23 46
-41 -10 -6 -10 -9 -1 -9 15 0 17 -195 2 -205 -6 -4 -23 0 -38 7 -19 9 -57 12
-132 8 -58 -3 -214 -1 -347 4 -196 7 -240 11 -236 22 3 8 17 15 32 15 16 1 19
3 9 6 -14 3 -15 8 -6 22 22 35 4 48 -69 50 -75 1 -92 13 -134 94 -27 51 -16
47 16 -7 24 -40 65 -87 65 -73 0 4 -20 37 -45 74 -39 57 -43 69 -29 72 16 3
38 -16 47 -43 2 -6 8 -8 12 -4 4 3 -9 37 -29 75 -40 78 -80 182 -73 190 3 2
15 -1 27 -7 12 -6 25 -9 28 -5 9 9 -19 25 -45 25 -13 0 -23 5 -23 10 0 13 12
12 94 -5 38 -8 79 -21 92 -30 14 -9 25 -11 29 -5 11 18 -3 26 -62 40 -127 28
-174 41 -219 60 l-47 21 -46 -48 c-25 -26 -70 -82 -100 -123 -30 -41 -74 -99
-98 -127 -25 -29 -39 -53 -31 -53 7 0 33 25 56 55 41 52 62 67 62 45 0 -6 -16
-35 -36 -65 -30 -45 -42 -55 -65 -55 -34 0 -39 -19 -8 -27 21 -6 21 -9 14
-139 -4 -94 -3 -134 4 -134 6 0 11 19 11 43 0 43 17 204 25 244 5 23 99 151
164 223 22 25 41 48 41 53 0 14 20 7 20 -8 0 -9 17 -48 39 -88 64 -119 75
-141 77 -154 3 -18 87 -143 96 -143 4 0 8 -7 8 -15 0 -13 -7 -12 -41 5 -76 39
-177 21 -255 -47 -23 -21 -129 -231 -120 -240 8 -8 4 -15 65 107 55 108 71
127 132 160 90 47 242 -1 282 -90 12 -25 23 -48 25 -51 1 -4 -13 -7 -33 -7
-26 0 -45 -8 -65 -27 -15 -15 -32 -25 -37 -23 -4 1 -15 -23 -23 -54 -13 -55
-30 -77 -30 -42 0 9 -6 14 -12 12 -16 -6 -23 -48 -8 -48 6 0 8 -4 5 -10 -3 -5
-11 -10 -16 -10 -6 0 -7 5 -4 10 3 6 1 10 -5 10 -6 0 -9 3 -7 8 3 4 -1 13 -9
19 -10 10 -15 10 -22 -4 -9 -15 -11 -15 -33 1 -13 9 -30 16 -39 16 -8 0 0 -10
19 -22 18 -13 48 -36 67 -52 19 -15 34 -24 34 -20 0 14 20 -20 20 -34 0 -7 -4
-10 -10 -7 -5 3 -10 1 -10 -6 0 -6 -8 -18 -17 -25 -17 -12 -17 -14 -1 -42 10
-17 18 -36 18 -44 -1 -7 -6 -3 -13 10 -7 12 -17 19 -22 15 -4 -4 -5 1 -1 12 6
17 5 18 -6 7 -11 -11 -10 -16 4 -26 13 -10 15 -15 6 -24 -9 -9 -8 -12 5 -12
16 0 24 -30 11 -43 -8 -8 -64 13 -64 24 0 5 -8 9 -17 9 -9 0 -25 7 -34 16 -15
13 -16 20 -7 38 10 19 10 20 -6 7 -14 -12 -19 -11 -34 3 -10 9 -23 16 -28 16
-5 0 -22 7 -38 15 -27 14 -28 14 -15 -2 13 -15 12 -16 -6 -8 -11 5 -39 9 -62
10 -25 0 -43 5 -43 11 0 18 28 37 41 28 7 -4 10 -2 7 7 -3 8 -11 13 -18 11
-14 -3 -40 16 -40 30 0 5 9 7 19 3 11 -3 22 -2 24 3 11 16 75 12 120 -8 46
-21 67 -20 67 2 0 6 -3 8 -7 5 -3 -4 -12 1 -20 11 -10 12 -16 14 -19 5 -3 -7
-10 -13 -15 -13 -4 0 -7 6 -5 13 1 6 1 10 -1 7 -5 -8 -83 1 -83 10 0 4 8 15
19 24 16 14 25 15 67 6 26 -6 55 -16 64 -23 8 -6 6 -2 -4 11 -12 13 -30 22
-48 22 -26 0 -29 3 -22 23 9 30 24 48 35 41 5 -3 9 4 9 16 0 11 8 23 18 26 48
15 67 33 68 66 0 18 4 41 8 51 5 10 4 17 -2 17 -20 0 -61 -45 -87 -96 -14 -29
-35 -60 -45 -69 -11 -10 -20 -23 -20 -29 0 -7 -13 -20 -30 -29 -23 -14 -28
-15 -24 -4 4 11 -1 13 -22 9 -25 -4 -27 -3 -21 19 7 27 -2 99 -13 99 -4 0 -7
-39 -8 -87 -1 -50 -6 -91 -13 -97 -8 -8 -9 -5 -4 12 3 12 4 22 0 22 -3 0 -10
-10 -16 -22 -9 -22 -9 -21 -6 5 3 15 0 27 -4 27 -5 0 -9 -9 -9 -21 0 -18 -4
-20 -28 -15 l-27 7 25 -22 25 -21 -38 21 c-45 25 -67 27 -67 6 0 -8 -6 -15
-14 -15 -11 0 -13 10 -9 43 4 23 10 44 14 45 10 4 12 32 3 32 -18 0 -54 -62
-54 -94 0 -7 10 -28 23 -47 l23 -34 -38 3 c-38 4 -43 11 -40 53 1 12 -4 15
-19 12 -19 -5 -20 -2 -14 31 5 23 3 36 -4 36 -10 0 81 196 116 249 12 19 13
28 4 43 -15 24 -14 29 4 22 10 -4 15 0 15 15 0 11 10 26 22 32 l21 11 -24 14
c-13 7 -32 13 -41 14 -21 0 -22 4 -7 32 9 17 8 23 -5 30 -10 6 -15 17 -11 27
4 15 1 17 -19 14 -17 -4 -27 1 -35 16 -15 27 -23 26 -53 -3 -13 -14 -36 -28
-51 -31 -42 -11 -42 -24 0 -18 23 3 46 15 59 30 l21 25 28 -28 c15 -15 20 -24
11 -21 -9 4 -16 2 -16 -4 0 -5 14 -12 30 -15 35 -8 37 -15 10 -39 -12 -11 -20
-31 -20 -51 0 -27 -3 -31 -20 -27 -11 3 -20 9 -20 14 0 13 -34 11 -48 -3 -17
-17 -32 6 -24 36 5 20 5 20 -19 5 -13 -9 -27 -29 -30 -45 l-7 -29 -1 28 c-1
35 15 67 34 67 20 0 19 16 -1 24 -26 10 -34 7 -27 -10 5 -13 2 -15 -16 -9 -14
4 -31 1 -46 -9 -28 -18 -29 -17 -15 18 11 30 -4 35 -36 11 -10 -8 -26 -15 -35
-15 -13 0 -16 -9 -13 -47 2 -26 9 -50 16 -54 7 -4 10 -9 8 -11 -44 -28 -50
-28 -50 -3 0 16 -6 25 -15 25 -11 0 -15 -12 -15 -49 0 -28 4 -52 8 -55 9 -5
35 21 44 46 4 8 19 18 34 21 54 10 316 8 328 -2 10 -8 -2 -41 -52 -143 -35
-73 -66 -135 -68 -137 -3 -4 -64 -5 -76 -1 -5 1 -12 4 -18 5 -5 1 -13 4 -17 5
-5 1 3 6 17 11 25 9 25 9 -3 5 -19 -2 -31 2 -37 15 -14 26 -13 27 23 32 31 4
31 4 -5 5 -42 2 -53 22 -13 22 14 0 25 4 25 8 0 5 -14 7 -30 4 -18 -3 -30 0
-30 7 0 6 15 12 33 12 31 2 31 2 -8 9 l-40 7 35 2 c29 1 32 3 17 12 -9 6 -26
7 -37 4 -11 -4 -20 -2 -20 4 0 5 15 12 33 14 31 4 31 4 -6 5 -46 2 -41 21 6
24 27 1 25 2 -13 8 -44 7 -45 7 -8 8 41 2 70 11 64 21 -4 6 98 3 119 -3 6 -2
13 -4 17 -5 4 -1 21 -6 38 -11 18 -5 30 -5 30 1 0 5 -9 9 -19 9 -10 0 -21 7
-25 15 -4 12 -25 15 -103 15 -116 0 -170 -8 -177 -25 -6 -15 70 -203 92 -228
14 -16 14 -19 -3 -31 -17 -12 -17 -16 -6 -30 8 -9 21 -14 28 -12 10 4 13 0 9
-12 -3 -9 -8 -47 -12 -84 -4 -50 -10 -68 -21 -68 -8 0 -12 -4 -8 -9 3 -5 -4
-13 -16 -16 -11 -4 -18 -13 -15 -20 7 -19 -36 -55 -67 -55 -20 0 -27 5 -27 20
0 14 11 22 40 30 l40 11 -15 29 c-9 17 -18 30 -21 30 -3 0 -3 -4 0 -9 3 -4 -3
-19 -14 -31 -11 -13 -20 -19 -21 -14 -2 17 3 59 8 68 3 4 7 31 9 60 2 28 11
98 20 154 8 57 13 106 10 110 -15 14 -24 -21 -34 -137 -14 -150 -18 -157 -103
-156 l-62 0 -13 45 c-18 59 -18 63 7 78 15 10 24 10 34 2 27 -22 86 -49 82
-37 -2 7 -16 18 -30 25 -22 10 -27 20 -27 48 0 42 -20 53 -55 30 l-25 -16 0
95 0 95 28 1 27 2 -27 4 -28 4 0 240 c0 131 3 238 8 238 34 -6 45 28 17 51
-12 10 -15 10 -15 -3 0 -9 -5 -19 -10 -22 -10 -6 -6 63 5 73 3 3 24 1 46 -5
38 -10 40 -9 36 8 -4 16 8 23 80 45 47 14 96 24 109 21 13 -2 25 1 27 7 3 6 8
-6 12 -26 4 -21 11 -38 15 -38 11 0 20 38 10 42 -5 2 -10 12 -12 23 -2 14 3
21 17 23 19 3 20 -2 18 -189 -1 -105 2 -201 7 -213 5 -13 8 13 10 74 3 108 3
102 0 233 -1 54 0 101 4 104 6 6 85 -13 203 -48 58 -17 148 -58 130 -59 -5 0
-5 -5 -2 -10 5 -8 11 -7 20 0 10 8 19 9 32 1 16 -9 16 -10 -4 -11 -13 0 -23
-4 -23 -10 0 -5 9 -10 20 -10 18 0 19 -5 14 -67 -7 -92 -11 -125 -19 -145 -5
-12 -2 -18 8 -18 11 0 16 19 22 78 13 152 15 157 50 164 29 5 19 24 -11 20
-23 -3 -25 -1 -20 30 3 18 7 60 8 92 l3 59 -54 38 c-44 31 -60 36 -87 32 -37
-6 -45 1 -168 138 -27 29 -55 58 -63 62 -17 10 -53 0 -54 -16 -1 -15 -164
-160 -226 -201 -26 -16 -41 -32 -35 -34 14 -4 6 -22 -9 -22 -6 0 -8 4 -5 8 3
5 -8 19 -24 31 -28 20 -32 21 -60 6 -16 -9 -30 -14 -30 -13 0 2 -1 183 -1 403
l-1 399 1012 3 c557 1 1014 4 1016 5 1 2 16 4 33 5 28 2 31 0 32 -30z m-1649
-569 c-11 -11 -32 -3 -32 12 0 4 9 6 21 3 13 -4 17 -9 11 -15z m-41 -47 c-6
-11 -20 -19 -30 -18 -22 1 -17 17 5 17 9 0 12 5 8 11 -3 6 0 15 7 20 18 11 23
-4 10 -30z m35 -16 c-5 -19 -13 -25 -35 -25 -46 0 -90 -30 -93 -64 -4 -35 -23
-45 -31 -16 -3 14 0 20 11 20 8 0 12 3 9 6 -4 4 3 20 14 35 15 22 29 29 52 29
40 0 52 8 62 40 10 31 19 9 11 -25z m54 20 c7 -8 8 -15 2 -15 -5 0 -15 7 -22
15 -7 8 -8 15 -2 15 5 0 15 -7 22 -15z m-1 -51 c17 -12 25 -14 30 -5 6 9 11 8
20 -2 9 -12 8 -16 -5 -21 -17 -7 -84 21 -84 35 0 13 13 11 39 -7z m-37 -21 c4
-2 5 -16 2 -31 -7 -35 0 -40 96 -77 117 -45 143 -56 137 -61 -3 -3 -33 6 -68
20 -34 15 -66 26 -71 26 -5 0 -32 10 -59 21 -45 20 -49 24 -49 55 0 28 -4 35
-27 40 -14 4 -39 2 -55 -4 -33 -12 -28 5 6 18 19 8 70 4 88 -7z m-74 -85 l-3
-71 -65 -19 c-36 -10 -75 -16 -87 -13 -15 4 -23 1 -23 -8 0 -14 -168 -66 -189
-59 -6 2 -11 21 -11 43 0 36 2 38 19 27 15 -9 31 -8 75 5 54 15 56 15 56 -4 0
-10 7 -19 15 -19 10 0 15 10 15 29 0 25 5 30 35 35 19 4 55 16 80 27 40 18 44
23 39 45 -5 18 -1 29 12 39 32 24 35 18 32 -57z m32 57 c0 -8 5 -15 10 -15 6
0 10 -11 10 -24 0 -26 44 -53 127 -77 30 -8 40 -16 36 -26 -8 -21 18 -35 32
-17 9 14 17 13 63 -5 62 -25 74 -26 48 -6 -17 13 -18 15 -3 15 10 0 17 8 17
20 0 11 4 20 9 20 21 0 32 -32 30 -89 -3 -72 -7 -73 -89 -35 -30 14 -96 36
-146 49 -51 13 -108 30 -127 38 l-34 15 -2 76 c-1 47 2 76 9 76 5 0 10 -7 10
-15z m108 -1 c12 -8 20 -20 17 -25 -7 -10 42 -32 59 -26 6 3 -1 10 -16 16 -29
11 -39 31 -14 27 21 -3 47 -27 57 -54 5 -14 12 -22 16 -18 3 3 15 -1 25 -11
17 -15 18 -15 18 0 0 10 6 17 13 17 7 0 4 7 -7 15 -19 15 -19 15 1 15 11 0 26
-6 32 -14 10 -11 8 -17 -9 -29 -15 -11 -18 -16 -8 -20 7 -2 10 -7 7 -11 -3 -3
-50 11 -105 33 -54 21 -107 41 -116 44 -10 4 -18 11 -18 16 0 7 9 7 25 1 14
-5 25 -6 25 -1 0 5 -11 12 -25 15 -14 4 -23 11 -20 16 8 14 17 13 43 -6z
m-255 -27 c-3 -5 -9 -3 -14 4 -4 7 -5 17 -2 22 3 5 9 3 14 -4 4 -7 5 -17 2
-22z m-46 -26 c14 5 28 7 31 4 8 -8 -2 -14 -36 -21 -27 -6 -32 -4 -31 12 0 11
3 14 5 7 4 -9 13 -9 31 -2z m108 -1 c-6 -10 -136 -53 -142 -47 -2 2 18 12 44
21 27 10 57 21 68 26 27 12 37 12 30 0z m-285 -30 c0 -5 -4 -10 -10 -10 -5 0
-10 5 -10 10 0 6 5 10 10 10 6 0 10 -4 10 -10z m45 -15 c0 -10 -6 -20 -12 -22
-8 -3 -13 5 -13 22 0 17 5 25 13 23 6 -3 12 -13 12 -23z m655 -15 c0 -11 -4
-20 -9 -20 -5 0 -7 9 -4 20 3 11 7 20 9 20 2 0 4 -9 4 -20z m-600 -5 c-14 -8
-32 -14 -40 -14 -8 0 -1 6 15 14 40 18 57 18 25 0z m-100 -15 c0 -11 -2 -20
-4 -20 -2 0 -6 9 -9 20 -3 11 -1 20 4 20 5 0 9 -9 9 -20z m301 -26 c-18 -8
-41 -13 -50 -11 -10 2 -3 8 19 14 51 16 70 14 31 -3z m-121 -33 c0 -10 -158
-56 -166 -48 -4 3 20 13 52 22 33 9 68 20 79 25 26 11 35 12 35 1z m855 -107
c28 -11 79 -134 55 -134 -5 0 -10 -4 -10 -10 0 -5 6 -10 14 -10 11 0 66 -97
66 -116 0 -10 -65 5 -68 16 -3 8 0 10 7 6 20 -13 12 13 -36 107 -26 50 -48 97
-49 102 -1 6 -5 18 -9 28 -7 18 2 21 30 11z m-87 -75 c-30 -37 -51 -48 -62
-31 -2 4 12 26 31 49 28 33 39 40 49 32 11 -9 7 -19 -18 -50z m87 -46 c22 -52
12 -50 -13 3 -12 25 -18 43 -12 39 6 -3 17 -23 25 -42z m-165 -17 c0 -19 -37
-63 -45 -54 -7 6 31 68 41 68 2 0 4 -6 4 -14z m-660 -268 c0 -13 5 -30 10 -38
8 -12 13 -13 30 -2 17 10 20 10 20 -4 0 -10 5 -14 16 -10 8 3 12 2 9 -4 -10
-17 -74 -11 -92 8 -22 21 -27 72 -7 72 8 0 14 -10 14 -22z m63 7 c-3 -9 -8
-14 -10 -11 -3 3 -2 9 2 15 9 16 15 13 8 -4z m30 -23 c-3 -12 -9 -19 -14 -16
-5 3 -4 14 2 25 13 26 20 21 12 -9z m252 18 c3 -5 1 -10 -5 -10 -7 0 -10 -7
-6 -15 3 -9 0 -15 -9 -15 -8 0 -15 -4 -15 -10 0 -5 -5 -10 -10 -10 -7 0 -7 6
-1 18 5 9 12 25 15 35 6 19 21 23 31 7z m-310 -20 c3 -5 -1 -10 -10 -10 -9 0
-13 5 -10 10 3 6 8 10 10 10 2 0 7 -4 10 -10z m120 -21 c8 -23 1 -34 -14 -24
-13 8 -15 45 -2 45 5 0 13 -9 16 -21z m912 -81 c-2 -13 -4 -3 -4 22 0 25 2 35
4 23 2 -13 2 -33 0 -45z m39 46 c-3 -9 -6 -21 -6 -27 0 -8 -3 -8 -11 0 -13 13
-5 43 12 43 6 0 8 -7 5 -16z m-1078 -51 c-10 -2 -26 -2 -35 0 -10 3 -2 5 17 5
19 0 27 -2 18 -5z m1107 -51 l30 -6 -30 -7 c-25 -5 -20 -7 25 -9 30 -1 68 -4
83 -6 17 -2 30 2 33 11 5 12 24 13 102 8 54 -3 98 -7 100 -8 2 -2 -10 -30 -26
-63 -17 -33 -28 -63 -24 -66 3 -3 18 -6 33 -6 30 0 40 -21 34 -71 -2 -16 0
-29 4 -29 5 0 11 26 15 58 13 120 13 117 -12 120 -28 4 -24 26 6 30 17 3 22
-2 22 -17 0 -12 5 -21 10 -21 6 0 10 11 10 25 0 20 -5 25 -25 25 -29 0 -31 6
-10 26 8 9 15 11 15 5 0 -6 5 -11 11 -11 26 0 38 -27 29 -61 -12 -42 -13 -222
-2 -215 5 3 9 38 10 77 1 87 10 129 25 129 7 0 6 4 -3 10 -12 8 -10 10 10 11
23 0 23 1 5 9 -17 7 -14 9 15 11 l35 2 -35 7 -35 7 37 2 c21 0 43 -5 52 -14
16 -17 51 -21 41 -5 -4 6 -11 8 -16 5 -5 -4 -9 -1 -9 5 0 8 22 10 78 5 42 -4
78 -8 79 -9 2 -2 5 -95 4 -137 l-1 -35 -87 0 c-80 1 -88 -1 -91 -19 -3 -11 -9
-23 -16 -27 -7 -5 -5 -8 6 -8 10 0 18 9 20 23 2 15 10 22 26 21 118 -3 121 -4
132 -25 7 -12 12 -95 14 -205 2 -160 0 -186 -13 -194 -14 -8 -14 -9 2 -10 13
0 17 -9 17 -37 0 -55 -10 -83 -29 -83 -13 0 -14 2 -2 9 21 13 -9 41 -44 41
-22 0 -26 -4 -22 -20 3 -11 1 -20 -4 -20 -5 0 -9 16 -9 35 0 27 -3 33 -16 28
-12 -4 -14 -14 -10 -36 6 -30 6 -30 -15 -11 -11 10 -16 20 -10 22 6 2 11 12
11 23 0 10 5 19 10 19 6 0 10 4 10 10 0 16 -29 -1 -35 -21 -4 -10 -15 -19 -26
-19 -10 0 -19 -4 -19 -10 0 -5 7 -10 15 -10 8 0 15 -2 15 -4 0 -2 2 -11 5 -18
4 -9 -2 -14 -14 -15 -14 -1 -18 3 -14 14 5 12 2 15 -10 10 -10 -4 -17 0 -20
11 -5 22 -1 139 8 217 6 52 3 68 -19 118 -28 63 -70 109 -91 101 -7 -3 -15 1
-18 9 -3 9 -19 18 -36 22 -32 7 -37 18 -32 78 1 15 -3 27 -8 27 -6 0 -11 -20
-11 -45 0 -38 -4 -47 -24 -56 -15 -7 -31 -29 -41 -55 -9 -24 -25 -46 -35 -49
-13 -4 -19 -15 -19 -33 2 -67 -14 -114 -42 -131 -16 -9 -29 -24 -29 -34 0 -10
-7 -25 -15 -33 -8 -9 -15 -29 -15 -45 0 -16 -4 -29 -9 -29 -4 0 -7 14 -5 31 2
18 -2 37 -10 45 -20 19 -30 0 -16 -27 7 -11 9 -23 6 -26 -3 -3 -8 2 -12 11 -3
9 -11 13 -16 10 -16 -10 1 34 33 85 16 25 32 54 35 64 4 9 10 17 15 17 5 0 9
5 9 11 0 6 -9 8 -22 4 -11 -4 -38 -7 -60 -7 -21 1 -36 -3 -33 -8 7 -12 -56 -1
-70 11 -5 6 -4 14 3 21 10 10 15 10 21 -1 11 -18 41 -7 41 15 0 11 5 14 16 10
9 -3 21 -6 27 -6 7 0 6 -4 -3 -10 -12 -8 -12 -10 3 -16 23 -8 47 2 47 21 0 9
-9 15 -26 15 -14 0 -23 4 -19 9 3 6 19 8 36 6 24 -3 30 0 27 13 -2 10 -15 18
-31 20 -25 3 -40 22 -17 22 6 0 10 5 10 10 0 6 -7 10 -15 10 -19 0 -20 16 -1
27 7 4 18 18 24 30 9 17 9 22 -4 27 -8 3 -13 10 -9 15 3 5 1 12 -4 15 -5 4 -3
19 6 37 8 17 13 33 10 35 -10 11 -67 -27 -80 -53 l-14 -27 -12 23 c-8 13 -18
20 -27 17 -19 -7 -18 7 4 35 11 13 24 38 29 55 9 26 7 36 -10 64 -21 33 -21
34 -2 26 11 -4 34 -10 50 -14z m68 -9 c-7 -2 -19 -2 -25 0 -7 3 -2 5 12 5 14
0 19 -2 13 -5z m44 1 c-3 -3 -12 -4 -19 -1 -8 3 -5 6 6 6 11 1 17 -2 13 -5z
m-487 -56 c0 -10 -40 -31 -47 -25 -2 3 3 17 13 32 13 20 19 23 25 13 5 -7 9
-16 9 -20z m315 -28 c0 -9 -7 -14 -17 -12 -12 2 -17 -3 -16 -15 4 -46 -3 -83
-15 -83 -7 0 -26 -13 -42 -30 -20 -21 -32 -27 -41 -20 -15 14 1 85 28 120 40
51 103 76 103 40z m433 -11 c-4 -29 -33 -48 -49 -32 -8 8 -6 16 10 32 27 27
43 27 39 0z m-352 -78 c-10 -11 -15 -25 -11 -30 3 -6 1 -11 -4 -11 -18 0 -12
48 6 59 25 14 29 5 9 -18z m-61 -37 c12 -19 23 -25 40 -22 13 3 30 1 37 -4 10
-6 7 -14 -13 -31 -25 -21 -26 -24 -13 -57 7 -19 13 -38 13 -41 2 -11 -48 3
-60 17 -15 19 -22 18 -49 -6 -32 -28 -44 -25 -36 10 5 27 2 32 -27 44 l-32 13
36 16 c27 11 40 24 49 51 14 43 31 46 55 10z m-932 -20 c-3 -8 -9 -14 -13 -14
-14 0 -22 20 -16 37 5 12 9 13 21 3 7 -6 11 -18 8 -26z m-53 16 c0 -5 -4 -10
-10 -10 -5 0 -10 5 -10 10 0 6 5 10 10 10 6 0 10 -4 10 -10z m90 -5 c0 -8 -4
-15 -10 -15 -5 0 -10 7 -10 15 0 8 5 15 10 15 6 0 10 -7 10 -15z m347 -17 c-2
-22 -8 -34 -20 -36 -15 -3 -16 0 -8 15 5 10 12 26 15 36 9 28 16 20 13 -15z
m-420 -24 c-3 -3 -12 -4 -19 -1 -8 3 -5 6 6 6 11 1 17 -2 13 -5z m30 -6 c-2
-7 -1 -70 3 -139 5 -104 10 -133 28 -163 12 -21 22 -40 22 -42 0 -3 -47 -4
-105 -2 -58 1 -105 0 -105 -4 0 -5 6 -8 13 -9 6 0 58 -3 115 -5 l104 -5 -7 23
c-4 13 -15 41 -25 63 -10 22 -21 67 -24 101 -6 56 -5 62 16 73 13 6 15 9 6 7
-20 -6 -25 10 -5 17 6 3 3 6 -8 7 -20 1 -20 1 -1 15 17 13 18 15 3 15 -23 0
-22 20 1 21 15 0 15 1 -2 8 -15 6 -16 10 -7 15 19 12 28 -2 45 -70 19 -75 19
-75 1 -68 -9 4 -18 -1 -21 -10 -9 -24 2 -31 23 -15 15 11 15 10 -1 -9 -11 -12
-14 -22 -8 -22 6 0 14 5 18 11 4 8 10 7 18 -1 8 -8 5 -16 -14 -31 l-25 -20 24
6 c18 5 22 4 16 -6 -6 -9 -3 -11 9 -6 11 5 15 3 10 -5 -5 -8 -1 -9 12 -4 10 4
24 8 29 9 15 3 12 -26 -4 -31 -8 -3 -11 0 -7 7 9 14 0 14 -26 0 -15 -8 -19 -8
-14 0 10 16 -6 13 -29 -5 -19 -16 -19 -16 5 -9 23 7 24 7 10 -11 -14 -17 -14
-17 10 -1 37 26 49 20 15 -8 -41 -34 -25 -31 27 4 24 16 45 27 48 24 6 -6 -59
-61 -82 -68 -10 -4 -18 -11 -18 -17 0 -6 12 -3 26 7 29 19 29 19 38 -11 l7
-22 -178 4 c-193 5 -243 10 -243 24 0 19 71 32 180 32 81 -1 78 3 -13 13 -74
8 -66 29 9 23 29 -3 51 -1 48 4 -3 4 -26 8 -50 8 -25 0 -44 3 -42 8 2 4 10 24
18 45 9 25 21 37 35 38 16 1 17 2 2 6 -17 5 -16 24 4 81 5 12 8 28 6 35 -1 7
7 11 18 9 20 -3 20 -2 1 13 -19 15 -19 15 5 16 22 0 23 1 4 9 -17 7 -17 9 -2
9 9 1 17 6 17 11 0 6 5 10 11 10 6 0 9 -6 6 -12z m1304 -8 c11 0 22 -7 25 -15
4 -8 12 -15 19 -15 7 0 18 -14 24 -30 9 -26 7 -34 -9 -50 -27 -27 -26 -43 1
-35 l22 7 -21 -29 c-36 -50 -49 -58 -76 -43 -33 17 -31 59 3 57 13 -1 26 4 28
11 3 8 -3 11 -18 10 -30 -4 -37 26 -14 52 10 11 15 26 12 35 -10 24 -27 18
-27 -9 0 -14 -4 -27 -9 -30 -5 -4 -12 -29 -16 -58 -7 -49 -6 -53 21 -74 23
-19 25 -24 12 -29 -9 -4 -29 -5 -45 -3 -21 2 -29 9 -31 27 -2 13 -12 26 -23
28 -21 6 -26 39 -8 45 9 3 9 9 0 26 -9 17 -8 23 6 30 10 5 24 7 31 5 8 -3 12
5 12 24 0 30 51 96 58 75 2 -7 12 -12 23 -12z m-1061 -5 c14 -16 10 -18 -14
-9 -9 3 -16 10 -16 15 0 14 16 11 30 -6z m14 -18 c48 -3 42 -38 -9 -49 -11 -2
-19 -10 -17 -16 1 -7 -7 -12 -19 -12 -18 0 -20 4 -14 30 5 22 3 32 -9 36 -28
11 -18 27 12 19 15 -4 40 -7 56 -8z m71 -28 c-10 -15 -25 -10 -19 6 4 8 10 12
15 9 5 -3 7 -10 4 -15z m1104 -36 c14 -40 14 -41 -23 -92 -21 -28 -55 -60 -75
-71 -20 -10 -30 -19 -22 -20 18 0 82 39 103 65 10 11 17 28 18 38 0 12 6 17
18 15 13 -2 18 -15 20 -52 4 -64 -4 -96 -24 -96 -13 0 -15 7 -11 30 4 16 3 31
-1 34 -12 7 -53 -19 -65 -44 -8 -15 -22 -24 -42 -25 -16 -2 -41 -8 -55 -13
-24 -10 -24 -11 -3 -11 12 -1 34 4 49 10 27 10 27 9 11 -9 -9 -10 -14 -22 -10
-25 3 -4 12 2 20 13 8 11 20 17 28 13 11 -4 13 -1 9 11 -7 19 2 20 45 5 17 -6
32 -16 32 -22 6 -53 3 -74 -8 -70 -18 7 -16 -8 3 -35 10 -15 14 -32 9 -49 -6
-25 -6 -25 -20 -6 -19 27 -78 36 -113 18 -15 -8 -48 -20 -74 -27 -27 -7 -48
-16 -48 -20 0 -12 35 -9 48 4 6 6 14 9 17 6 3 -3 -1 -13 -11 -22 -12 -12 -13
-20 -5 -29 8 -10 3 -22 -19 -49 -16 -19 -26 -38 -23 -42 12 -12 -20 -57 -37
-53 -18 5 -40 -22 -40 -48 0 -8 8 -15 18 -15 11 0 13 -3 5 -8 -20 -13 -1 -76
24 -80 26 -4 93 53 93 78 0 12 11 20 35 24 25 5 39 14 45 31 5 12 14 26 19 30
18 10 12 25 -6 18 -11 -3 -6 5 11 21 16 14 33 26 38 26 13 0 10 -18 -4 -23
-10 -4 -10 -8 1 -15 8 -6 11 -18 6 -31 -3 -11 -3 -26 2 -33 11 -18 14 -78 3
-78 -5 0 -10 11 -12 25 -2 14 -7 26 -13 25 -15 0 -14 -58 1 -64 18 -7 29 -92
14 -111 -7 -9 -8 -15 -2 -15 13 0 22 -49 10 -56 -6 -4 -5 -10 3 -14 10 -7 10
-11 -1 -25 -9 -11 -25 -15 -54 -12 -36 4 -41 7 -38 28 1 15 -1 19 -6 11 -6 -9
-13 -7 -30 8 -23 22 -37 27 -27 9 4 -6 -2 -13 -13 -16 -13 -3 -18 -11 -15 -19
4 -10 -3 -14 -21 -14 -14 0 -26 6 -27 13 0 6 -4 2 -9 -11 -9 -22 -10 -22 -42
-6 -18 9 -37 22 -41 28 -4 6 -5 60 -1 120 4 74 3 106 -4 102 -6 -4 -8 -22 -5
-41 3 -21 2 -35 -5 -35 -7 0 -9 -26 -5 -75 4 -63 2 -74 -10 -69 -19 7 -20 68
-1 164 8 41 14 90 14 108 0 20 8 39 20 49 11 10 20 23 20 29 0 7 5 14 11 16 6
2 16 30 21 63 5 32 13 64 18 70 6 7 -3 21 -26 40 -20 16 -39 45 -46 67 -6 21
-17 43 -25 49 -17 15 -17 43 1 36 10 -4 16 5 21 30 4 23 13 37 26 40 10 3 19
10 19 15 0 10 31 4 67 -14 35 -17 96 6 142 53 42 44 57 90 46 141 -11 46 17
31 34 -19z m-589 33 c0 -2 -9 -6 -20 -9 -11 -3 -18 -1 -14 4 5 9 34 13 34 5z
m-670 -32 c13 -34 14 -34 -16 -34 -21 0 -24 4 -19 20 5 16 2 20 -15 20 -12 0
-18 5 -15 10 3 6 17 10 31 10 17 0 27 -8 34 -26z m-427 -10 c18 -7 23 -29 7
-39 -5 -3 -7 -12 -3 -20 3 -8 1 -15 -4 -15 -5 0 -16 21 -26 46 -11 32 -13 44
-4 40 6 -3 20 -9 30 -12z m558 -78 c-25 -39 -26 -52 -7 -59 10 -4 12 0 9 14
-4 13 0 19 11 19 10 0 13 6 10 15 -4 10 0 15 12 15 16 0 17 2 4 10 -12 8 -10
10 10 11 17 1 19 3 8 6 -10 2 -18 9 -18 15 0 6 3 8 7 5 3 -4 12 -2 19 4 21 17
65 -2 120 -52 36 -33 65 -50 91 -54 72 -12 87 -16 76 -23 -15 -9 6 -38 32 -45
17 -4 16 -5 -5 -6 l-24 -1 22 -16 c12 -8 28 -12 35 -8 9 6 9 4 0 -7 -19 -20
-16 -31 6 -20 10 6 21 20 24 31 3 11 1 18 -4 15 -4 -3 -15 8 -24 24 -9 18 -11
32 -5 36 5 3 7 12 3 20 -3 8 0 15 5 15 6 0 14 -10 18 -22 4 -13 20 -52 36 -87
30 -65 31 -84 3 -61 -9 8 -13 21 -9 32 5 17 3 18 -14 9 -12 -6 -23 -15 -26
-20 -10 -15 5 -40 19 -35 8 3 12 -2 12 -13 -2 -13 4 -17 21 -16 32 4 37 -19
13 -66 -25 -48 -26 -55 -6 -48 26 11 24 -8 -9 -109 -39 -116 -54 -144 -78
-144 -10 0 -18 -3 -18 -6 0 -12 43 -44 67 -50 13 -4 23 -10 23 -14 0 -10 69
-34 77 -26 3 3 -27 20 -66 39 -39 18 -69 36 -65 40 4 3 24 -3 45 -13 21 -11
44 -20 51 -20 7 1 -9 12 -35 26 -46 24 -48 27 -33 43 9 9 21 32 27 49 8 24 17
32 37 33 24 2 24 2 5 6 -24 5 -30 27 -14 52 5 8 16 11 30 6 12 -4 21 -2 21 4
0 6 -6 11 -14 11 -19 0 -31 19 -19 31 6 6 19 6 34 -1 22 -10 23 -10 2 -6 -29
5 -30 -10 -3 -17 16 -4 20 -11 16 -29 -3 -13 -7 -66 -8 -118 -3 -104 -4 -103
60 -79 35 14 19 24 -17 11 -17 -6 -31 -7 -31 -3 0 4 15 13 33 19 l32 11 -32
-2 c-18 -2 -30 0 -27 5 3 4 12 8 20 8 8 0 14 4 14 9 0 5 -9 7 -20 4 -18 -5
-20 -2 -16 38 3 24 6 46 7 49 1 3 1 9 0 14 -1 5 4 13 11 17 10 7 10 9 1 9 -20
0 -15 20 5 21 10 0 12 3 5 6 -19 7 -16 23 5 24 16 1 16 2 0 6 -23 6 -24 26 -1
21 12 -2 22 -28 38 -103 12 -55 27 -115 33 -134 7 -19 9 -38 5 -42 -5 -3 -32
-14 -61 -24 -73 -23 -60 -28 19 -7 72 20 76 28 45 109 -8 23 -17 56 -20 75 -2
18 -10 57 -17 86 -11 46 -10 57 4 87 19 41 42 49 27 10 -6 -16 -6 -25 1 -25 5
0 12 7 15 15 4 8 10 12 15 9 5 -3 7 -10 3 -16 -3 -5 8 -2 26 7 l33 17 -6 -78
c-5 -75 -51 -327 -63 -346 -3 -5 -1 -15 5 -22 9 -11 8 -18 -3 -29 -18 -17 -10
-57 11 -57 21 0 14 -112 -7 -117 -13 -4 -13 -3 0 6 12 8 11 11 -5 16 -11 4
-28 11 -37 16 -20 10 -37 -9 -18 -21 8 -5 8 -10 2 -14 -13 -8 -24 22 -17 45 8
24 -8 24 -42 2 -32 -21 -54 -25 -70 -12 -16 14 -36 1 -28 -19 3 -8 0 -19 -7
-24 -18 -11 -62 -10 -74 2 -18 18 -41 -17 -26 -40 13 -21 7 -30 -22 -31 -12 0
-15 -3 -8 -6 22 -9 13 -23 -15 -24 -28 -2 -28 -2 2 -6 32 -5 65 -29 65 -48 0
-15 69 -176 83 -193 8 -10 7 -16 -2 -22 -8 -4 -10 -13 -6 -20 5 -9 4 -11 -3
-6 -22 13 -12 -15 13 -40 l25 -25 -19 -82 c-11 -45 -24 -94 -30 -109 l-10 -27
-137 2 -138 2 -18 32 c-10 17 -26 68 -34 113 -15 77 -15 82 3 95 14 11 16 17
7 32 -12 19 -3 42 78 210 29 61 44 82 31 46 -5 -15 -3 -14 10 2 18 23 6 44
-22 42 -12 -1 -16 -9 -15 -29 2 -24 0 -27 -12 -17 -7 6 -12 21 -10 32 9 59 88
40 94 -22 4 -42 -11 -59 -34 -40 -15 12 -17 12 -12 -1 2 -8 16 -16 31 -18 21
-3 28 2 33 24 9 37 -21 90 -67 120 -20 13 -39 29 -42 36 -4 10 -6 9 -6 -2 -1
-10 -13 -16 -35 -17 l-34 -1 16 28 c9 16 14 32 10 35 -9 9 -68 -33 -68 -48 0
-7 5 -4 11 6 5 9 17 17 26 17 13 0 12 -5 -8 -26 -22 -23 -24 -24 -36 -8 -11
15 -10 21 5 37 13 15 14 21 4 24 -10 4 -10 8 -1 19 6 7 9 31 7 51 -3 21 0 48
5 60 9 20 12 21 36 9 14 -8 41 -17 59 -21 17 -3 32 -8 32 -9 0 -2 -9 -31 -21
-65 -19 -61 -20 -99 0 -50 5 13 10 18 10 11 1 -16 31 -48 51 -54 8 -2 23 4 34
14 13 11 22 14 26 8 10 -16 56 7 67 33 10 21 10 21 28 -6 9 -15 21 -27 26 -27
14 0 -4 36 -34 69 -25 28 -26 32 -10 38 10 4 23 14 30 22 9 13 14 13 24 4 10
-10 9 -14 -4 -19 -19 -7 -23 -39 -7 -49 6 -3 10 -1 10 4 0 6 5 11 11 11 6 0 8
-7 5 -17 -6 -16 -6 -16 12 0 10 10 29 16 42 15 29 -4 52 28 30 42 -12 7 -12
12 -2 22 6 6 12 20 12 29 0 24 -67 20 -85 -4 -20 -28 -29 -2 -9 28 16 25 16
25 -10 25 -18 0 -26 6 -27 18 0 9 -5 4 -10 -12 -10 -36 -7 -41 20 -26 14 7 21
7 21 0 0 -5 -4 -10 -10 -10 -5 0 -10 -10 -10 -22 -1 -21 -2 -22 -14 -5 -7 9
-19 17 -25 17 -7 0 -11 10 -9 22 3 26 -27 38 -46 18 -8 -9 -6 -11 9 -8 15 2
20 -2 18 -17 -1 -11 3 -23 10 -27 8 -5 7 -11 -2 -22 -11 -13 -16 -13 -46 1
-31 15 -33 18 -17 30 16 12 16 14 -2 27 -15 12 -17 22 -11 58 4 24 8 70 8 103
1 55 3 60 24 61 29 2 81 43 89 71 4 15 -1 33 -16 53 -12 16 -16 30 -10 30 6 0
8 5 5 10 -4 6 -10 8 -15 5 -5 -3 -11 -1 -15 5 -3 5 5 14 19 20 30 11 36 50 9
50 -10 1 -27 9 -39 18 -16 14 -20 27 -17 60 3 44 -6 53 -27 27 -17 -20 -33
-19 -55 5 -10 11 -24 20 -30 20 -8 0 -14 17 -17 39 -3 39 -3 40 27 35 l30 -4
-34 15 c-40 19 -34 32 8 17 17 -6 31 -7 31 -3 0 4 -19 13 -42 20 -24 7 -51 20
-60 29 -25 22 -23 -3 2 -28 28 -28 25 -36 -5 -16 -34 22 -32 8 3 -22 l27 -23
-33 16 c-49 24 -51 11 -3 -16 33 -18 41 -28 41 -51 0 -15 -4 -28 -10 -28 -5 0
-10 4 -10 9 0 5 -10 12 -22 16 -58 16 -148 59 -148 70 0 17 -42 27 -52 12 -12
-19 -10 -27 10 -33 9 -3 25 -10 35 -15 10 -5 56 -22 103 -38 54 -19 92 -37
102 -52 10 -12 44 -52 78 -88 34 -36 73 -84 87 -105 24 -37 25 -40 9 -52 -27
-21 -37 -16 -16 7 19 22 19 22 -6 14 -22 -7 -23 -6 -11 9 11 14 11 16 -2 16
-11 0 -14 5 -10 17 4 10 2 14 -4 10 -6 -4 -14 4 -17 18 -4 14 -11 23 -16 20
-5 -3 -25 19 -44 49 -37 58 -69 86 -100 86 -20 0 -20 0 -1 -14 11 -8 23 -12
27 -10 4 3 19 -12 33 -33 98 -145 107 -163 85 -163 -5 0 -10 -4 -10 -9 0 -5 9
-7 20 -4 34 9 22 -16 -12 -27 l-33 -10 38 5 c27 3 37 0 34 -8 -2 -7 -18 -11
-36 -9 -44 3 -39 -16 7 -21 l37 -4 -43 -1 c-24 -1 -56 -10 -70 -21 -15 -10
-38 -22 -52 -26 l-25 -8 25 21 25 21 -27 1 c-16 0 -28 5 -28 10 0 6 11 10 25
10 14 0 25 5 25 11 0 6 -7 9 -15 6 -8 -4 -17 -2 -20 3 -4 6 1 10 9 10 9 0 16
5 16 11 0 6 -7 9 -15 5 -8 -3 -15 -1 -15 4 0 6 6 10 13 11 6 1 1 4 -13 8 -15
5 -24 14 -22 23 1 9 -5 19 -15 21 -13 3 -11 5 6 6 23 1 24 2 6 21 -10 11 -28
20 -40 20 -13 0 -26 7 -29 16 -4 12 -1 14 14 9 30 -10 24 9 -7 23 l-28 12 33
-5 c17 -2 32 0 32 5 0 6 -9 10 -19 10 -11 0 -28 3 -38 7 -14 6 -8 9 22 14 l40
6 -42 8 c-35 6 -43 12 -43 29 0 11 -5 28 -10 36 -16 25 -12 -29 6 -91 22 -72
56 -139 88 -168 32 -30 33 -56 4 -72 -13 -7 -36 -23 -51 -35 -28 -23 -74 -34
-62 -15 3 6 -9 7 -30 4 -37 -6 -50 11 -16 20 15 3 19 13 19 37 -1 27 -4 31
-22 26 -21 -5 -21 -5 -2 9 20 15 20 15 0 15 -18 1 -18 1 -1 14 18 14 18 14 0
19 -15 4 -14 6 7 13 l25 8 -25 7 -25 7 23 7 c27 9 29 25 2 25 -26 0 -25 14 3
34 15 12 17 16 5 12 -23 -7 -24 12 -1 21 15 6 14 7 -3 14 -18 6 -17 8 6 17 24
10 24 11 3 11 -13 1 -23 6 -23 11 0 6 10 11 23 11 16 1 18 2 5 6 -23 6 -23 23
-1 23 22 0 14 6 -17 13 -23 6 -26 3 -25 -21 0 -15 -6 -30 -15 -34 -12 -5 -11
-7 3 -7 11 -1 17 -6 14 -13 -2 -7 -10 -12 -16 -11 -6 2 -11 -2 -11 -7 0 -5 5
-10 10 -10 6 0 10 -12 10 -26 0 -19 -4 -25 -15 -20 -8 3 -15 1 -15 -4 0 -6 5
-10 10 -10 6 0 10 -4 10 -10 0 -5 -8 -10 -17 -10 -16 -1 -15 -2 2 -12 19 -12
19 -12 -5 -19 -24 -7 -24 -7 -2 -8 12 -1 22 -6 22 -12 0 -6 -9 -8 -20 -4 -11
4 -20 2 -20 -4 0 -6 9 -11 20 -11 14 0 20 -7 20 -22 0 -17 -3 -19 -12 -10 -7
7 -18 12 -26 12 -12 0 -12 -3 -1 -17 10 -11 10 -14 2 -9 -7 4 -13 2 -13 -3 0
-6 6 -11 14 -11 8 0 18 -5 22 -11 5 -9 -1 -10 -20 -5 -14 3 -26 2 -26 -3 0 -5
14 -12 30 -16 17 -4 30 -11 30 -16 0 -13 -12 -11 -54 6 -41 18 -44 32 -21 110
9 28 23 84 31 125 15 74 28 123 45 168 7 19 5 22 -17 22 -14 0 -23 4 -19 10 3
6 13 10 22 10 23 0 44 32 31 47 -5 6 -16 9 -24 6 -17 -6 -18 1 -3 28 7 14 16
18 30 14 11 -4 19 -3 18 2 -3 19 2 34 10 28 5 -3 12 -1 15 4 4 5 -12 12 -34
16 -22 4 -40 11 -40 16 0 5 3 9 8 10 4 0 17 2 30 3 12 2 28 8 35 15 22 23 20
-46 -2 -83z m-191 63 c0 -11 -4 -17 -10 -14 -5 3 -10 13 -10 21 0 8 5 14 10
14 6 0 10 -9 10 -21z m739 -23 c-14 -15 -10 -39 4 -33 9 3 13 -3 13 -16 -1
-24 13 -28 102 -31 65 -1 63 -19 -4 -27 l-49 -6 43 -1 c50 -2 57 -22 8 -22
-19 0 -38 -4 -41 -10 -4 -6 6 -7 25 -4 19 4 30 2 30 -5 0 -6 -12 -12 -27 -12
-24 -2 -25 -2 -5 -6 26 -5 26 -6 7 -44 -9 -16 -13 -35 -9 -41 8 -13 -75 -3
-115 15 l-26 11 28 4 c33 4 26 22 -9 22 -13 0 -24 5 -24 11 0 6 9 8 20 4 11
-4 20 -2 20 4 0 6 -15 12 -32 12 -31 2 -31 2 7 8 l40 7 -43 8 c-23 4 -40 12
-37 16 3 5 20 4 38 -1 39 -11 37 -11 37 0 0 6 -20 13 -45 17 -25 3 -45 10 -45
15 0 5 20 6 45 2 31 -4 45 -2 45 6 0 6 -15 11 -32 11 -18 0 -40 5 -48 10 -10
7 0 8 33 4 32 -5 47 -3 47 5 0 6 -7 11 -16 11 -8 0 -12 5 -9 10 4 6 -6 10 -22
10 -44 0 -73 11 -73 27 0 12 2 12 16 -1 22 -22 37 -20 29 4 -7 23 10 28 19 5
3 -8 13 -15 22 -15 13 0 14 3 4 15 -7 8 -10 22 -6 30 5 14 8 13 24 -2 11 -10
15 -22 11 -27z m-1160 -6 c13 -43 9 -60 -15 -60 -10 0 -14 13 -15 43 l-1 42
-10 -43 c-5 -24 -14 -40 -19 -36 -6 3 -7 20 -4 37 7 31 6 31 -9 12 -16 -19
-16 -19 -7 5 7 20 27 33 62 39 3 1 11 -17 18 -39z m1076 30 c-3 -5 -11 -10
-16 -10 -6 0 -7 5 -4 10 3 6 11 10 16 10 6 0 7 -4 4 -10z m130 0 c3 -5 1 -10
-4 -10 -6 0 -11 5 -11 10 0 6 2 10 4 10 3 0 8 -4 11 -10z m-365 -46 c16 -16
21 -27 14 -34 -7 -7 -23 3 -49 31 -36 37 -37 41 -15 34 14 -4 36 -18 50 -31z
m-332 9 c2 -8 -6 -13 -22 -13 -25 0 -33 10 -19 24 10 10 36 3 41 -11z m-38
-54 c-11 -20 -40 -27 -40 -9 0 6 7 10 15 10 8 0 15 7 15 16 0 8 5 12 10 9 7
-4 7 -13 0 -26z m-415 0 c0 -7 -11 -19 -25 -26 -24 -12 -25 -13 -2 -13 13 0
22 -6 22 -15 0 -9 -9 -15 -25 -15 -20 0 -25 5 -25 25 0 18 5 25 20 25 11 0 20
4 20 10 0 5 -8 6 -17 3 -16 -6 -16 -5 -4 10 16 20 36 18 36 -4z m132 -14 c-4
-8 -14 -15 -23 -15 -16 0 -16 2 1 20 20 22 31 20 22 -5z m-202 -6 c-3 -4 -12
-6 -20 -3 -8 4 -13 10 -10 15 3 4 12 6 20 3 8 -4 13 -10 10 -15z m525 14 c0
-5 -5 -15 -10 -23 -8 -12 -10 -11 -10 8 0 12 5 22 10 22 6 0 10 -3 10 -7z
m-528 -45 c-9 -9 -15 -9 -24 0 -9 9 -7 12 12 12 19 0 21 -3 12 -12z m108 8 c0
-3 -4 -8 -10 -11 -5 -3 -10 -1 -10 4 0 6 5 11 10 11 6 0 10 -2 10 -4z m80 -9
c0 -8 -12 -20 -27 -28 -16 -8 -30 -17 -33 -20 -3 -4 -15 -9 -27 -13 -17 -6
-23 -3 -23 8 0 9 8 16 17 16 9 0 13 3 10 7 -4 3 0 15 10 25 19 21 73 25 73 5z
m-238 -32 c-4 -33 -18 -53 -29 -42 -4 4 1 21 10 37 16 27 16 29 0 34 -14 4
-14 4 2 3 16 -2 19 -9 17 -32z m1792 10 c-6 -16 -24 -21 -24 -7 0 11 11 22 21
22 5 0 6 -7 3 -15z m-1744 -9 c0 -8 -4 -18 -10 -21 -12 -7 -14 -26 -2 -24 37
6 51 -2 50 -31 -1 -16 -4 -30 -7 -31 -3 0 -28 -1 -56 -2 -41 -2 -50 1 -53 17
-2 10 1 23 7 29 9 9 13 6 17 -11 5 -15 14 -22 31 -22 l24 0 -26 24 c-15 14
-23 30 -20 40 3 9 7 23 10 31 6 19 35 20 35 1z m62 -2 c3 -3 4 -14 1 -24 -4
-16 -11 -18 -32 -13 -33 8 -33 7 -25 27 6 15 44 22 56 10z m443 -34 c-3 -5
-11 -10 -16 -10 -6 0 -7 5 -4 10 3 6 11 10 16 10 6 0 7 -4 4 -10z m35 -19 c0
-14 -18 -23 -30 -16 -6 4 -8 11 -5 16 8 12 35 12 35 0z m-392 -77 c36 -4 40
-14 5 -14 -17 0 -37 8 -44 17 -12 14 -12 16 1 8 8 -5 25 -10 38 -11z m1018 7
c11 9 14 7 14 -10 0 -11 -4 -21 -8 -21 -12 0 -32 22 -31 35 0 5 3 4 6 -3 4
-10 8 -10 19 -1z m56 -6 c0 -5 -5 -11 -11 -13 -6 -2 -11 4 -11 13 0 9 5 15 11
13 6 -2 11 -8 11 -13z m202 -64 c-9 -9 -33 35 -33 59 1 22 3 20 19 -15 10 -22
17 -42 14 -44z m-1474 59 c-20 -13 -33 -13 -25 0 3 6 14 10 23 10 15 0 15 -2
2 -10z m105 0 c3 -6 -3 -24 -15 -40 -18 -25 -28 -30 -65 -30 -45 0 -59 9 -50
32 13 34 114 64 130 38z m468 -1 c-6 -6 -9 -18 -6 -25 3 -8 0 -14 -6 -14 -6 0
-11 4 -11 9 0 19 12 41 23 41 8 0 8 -3 0 -11z m437 1 c13 -9 13 -10 0 -10 -8
0 -22 5 -30 10 -13 9 -13 10 0 10 8 0 22 -5 30 -10z m302 -5 c0 -5 -5 -11 -11
-13 -6 -2 -11 4 -11 13 0 9 5 15 11 13 6 -2 11 -8 11 -13z m34 -12 c-10 -10
-19 5 -10 18 6 11 8 11 12 0 2 -7 1 -15 -2 -18z m-953 10 c-13 -2 -33 -2 -45
0 -13 2 -3 4 22 4 25 0 35 -2 23 -4z m-241 -186 c2 -75 0 -137 -4 -137 -5 0
-8 5 -8 10 0 6 -28 10 -64 10 -92 0 -96 2 -96 67 l0 56 31 -7 c17 -3 42 -6 55
-6 32 0 30 -13 -6 -50 -42 -43 -38 -60 5 -19 19 19 35 40 35 47 0 7 10 17 23
22 17 7 8 9 -38 9 l-59 1 43 44 c25 25 50 42 57 39 8 -3 14 0 14 6 0 6 -10 11
-23 11 -35 0 -39 10 -16 42 20 28 22 28 34 11 9 -13 14 -64 17 -156z m198 169
c0 -3 -4 -8 -10 -11 -5 -3 -10 -1 -10 4 0 6 5 11 10 11 6 0 10 -2 10 -4z m90
-6 c0 -5 -4 -10 -10 -10 -5 0 -10 5 -10 10 0 6 5 10 10 10 6 0 10 -4 10 -10z
m65 0 c3 -5 1 -10 -4 -10 -6 0 -11 5 -11 10 0 6 2 10 4 10 3 0 8 -4 11 -10z
m795 -5 c39 -20 38 -28 -2 -21 l-33 6 30 -15 30 -14 -30 -2 c-24 -1 -26 -3 -7
-6 12 -2 22 -9 22 -14 0 -5 -10 -9 -22 -10 -22 -1 -22 -1 2 -8 l25 -7 -29 -6
c-16 -3 -42 -1 -57 4 -50 17 -50 78 -1 97 37 13 39 13 72 -4z m-783 -20 c2 -1
-2 -15 -9 -31 l-11 -30 -71 8 c-39 3 -94 4 -122 1 -30 -3 -60 -1 -72 6 -17 9
-22 9 -23 -1 0 -7 -2 -26 -4 -43 -6 -62 -8 -406 -1 -412 3 -3 6 48 6 114 0 66
3 162 8 214 l7 94 5 -105 c3 -58 3 -107 0 -110 -3 -3 -6 -77 -7 -165 -1 -88
-2 -173 -3 -188 l-1 -28 -18 22 c-27 34 -51 19 -51 -31 0 -28 -4 -40 -14 -40
-11 0 -14 12 -12 45 3 54 7 59 51 59 18 0 31 4 29 8 -3 4 -13 8 -23 8 -16 0
-17 19 -15 308 2 169 3 308 3 309 1 3 345 -9 348 -12z m38 -5 c3 -5 1 -10 -4
-10 -6 0 -11 5 -11 10 0 6 2 10 4 10 3 0 8 -4 11 -10z m1236 -10 c20 -11 28
-70 9 -70 -5 0 -10 -8 -10 -18 0 -10 -11 -29 -24 -41 -23 -21 -24 -22 -65 -5
-27 10 -38 20 -31 24 9 6 9 9 1 14 -18 11 -2 28 20 21 21 -7 27 10 7 18 -7 3
1 6 19 6 17 1 34 -5 36 -11 3 -8 6 -6 6 5 1 10 -6 17 -18 17 -11 0 -23 5 -26
10 -5 8 -11 7 -21 -1 -8 -7 -14 -7 -14 -1 0 15 42 41 68 41 13 1 32 -4 43 -9z
m-1719 -25 c15 -9 12 -14 -19 -49 -31 -33 -38 -37 -58 -28 -18 8 -24 19 -23
44 0 18 2 36 4 39 5 9 78 5 96 -6z m478 5 c0 -5 -4 -10 -10 -10 -5 0 -10 5
-10 10 0 6 5 10 10 10 6 0 10 -4 10 -10z m960 0 c0 -5 -4 -10 -10 -10 -5 0
-10 5 -10 10 0 6 5 10 10 10 6 0 10 -4 10 -10z m415 -12 c4 4 4 -3 1 -15 -8
-27 2 -30 18 -7 7 9 30 17 57 19 25 1 54 5 65 9 18 6 19 -1 16 -237 -1 -133
-4 -247 -6 -253 -3 -6 -16 -9 -29 -7 -14 3 -28 0 -31 -6 -5 -7 5 -11 28 -11
32 0 35 -2 40 -37 11 -71 5 -103 -18 -104 -20 0 -20 -1 2 -10 19 -7 23 -15 20
-45 -3 -35 -6 -38 -53 -50 -27 -7 -51 -13 -52 -14 -2 0 -3 11 -3 24 0 13 -6
26 -12 29 -7 2 -10 8 -6 12 11 12 28 -5 28 -28 0 -15 3 -18 11 -10 8 8 8 17 0
32 -9 17 -9 21 2 21 8 0 14 6 14 13 0 6 4 20 8 30 5 13 2 17 -12 17 -27 0 -65
-30 -59 -46 3 -8 1 -14 -5 -14 -6 0 -8 -4 -5 -9 4 -5 -4 -7 -16 -4 -18 4 -20
2 -8 -6 8 -5 12 -13 8 -16 -3 -4 -16 4 -28 17 l-22 23 4 -30 c2 -17 8 -29 16
-27 6 1 12 -4 12 -11 0 -7 7 -23 16 -36 19 -26 42 -14 29 16 -14 32 -14 43 1
43 15 0 19 -37 8 -77 -6 -21 -7 -21 -40 -5 -26 13 -32 21 -27 37 3 11 2 17 -2
13 -5 -5 -17 6 -27 22 -18 30 -18 30 -54 15 -20 -8 -39 -15 -41 -15 -3 0 -2
20 1 45 4 25 4 45 -1 45 -4 0 -14 10 -22 21 -13 21 -12 22 28 16 34 -4 42 -2
56 19 22 34 35 30 35 -11 0 -30 3 -35 23 -35 33 0 40 -10 20 -32 -20 -22 -1
-24 21 -2 19 18 20 26 6 40 -5 5 -14 40 -19 76 -5 37 -12 72 -16 78 -4 6 -2
17 4 24 13 15 12 21 -41 241 -16 72 -35 135 -40 140 -7 7 -8 1 -4 -17 7 -29
-7 -39 -17 -14 -8 20 15 66 32 66 11 0 11 3 1 15 -15 18 -9 28 13 19 9 -3 13
-12 10 -20 -3 -8 0 -14 6 -14 6 0 11 11 11 25 0 22 3 24 19 16 10 -6 22 -7 26
-3z m-1380 -18 c3 -5 -1 -10 -9 -10 -9 0 -16 5 -16 10 0 6 4 10 9 10 6 0 13
-4 16 -10z m-178 -14 c-3 -8 -2 -27 3 -43 l8 -28 1 30 c1 17 6 37 11 45 7 11
10 1 12 -35 1 -47 2 -48 5 -10 6 52 23 71 23 25 0 -19 4 -42 9 -49 10 -15 12
-10 25 59 3 14 3 4 2 -22 -3 -38 2 -54 20 -80 31 -41 30 -46 -8 -92 -31 -38
-31 -39 -12 -55 28 -25 35 -68 15 -100 -7 -10 -17 -4 -45 25 l-36 39 -25 -27
c-13 -16 -29 -36 -34 -45 -10 -17 -13 -16 -36 10 -35 39 -33 64 7 75 17 4 33
12 35 18 2 5 -12 28 -30 50 -37 43 -54 104 -29 104 8 0 32 -20 54 -45 22 -25
44 -45 49 -45 6 0 8 4 4 9 -3 5 3 12 12 14 12 3 8 5 -9 6 -15 0 -30 6 -33 11
-4 7 9 9 37 5 l43 -5 -50 15 c-31 9 -38 13 -17 10 20 -3 31 -1 27 5 -4 6 6 5
20 -2 22 -10 28 -9 35 2 13 20 4 25 -17 9 -10 -7 -14 -9 -10 -4 6 6 -21 14
-70 20 l-78 10 0 40 c0 27 4 39 13 38 6 -2 12 2 12 7 0 6 4 10 9 10 5 0 13
-21 19 -47 l10 -48 1 53 c1 31 6 52 12 52 6 0 9 -6 6 -14z m1153 -73 c0 -7 -4
-13 -8 -13 -5 0 -8 10 -8 23 1 12 -4 21 -11 20 -15 -3 -15 2 -6 36 5 21 7 20
19 -15 8 -22 14 -45 14 -51z m-1254 25 c-2 -24 -4 -51 -5 -60 -1 -10 -5 -18
-10 -18 -8 0 -8 8 4 83 8 51 16 47 11 -5z m261 36 c-3 -3 -12 -4 -19 -1 -8 3
-5 6 6 6 11 1 17 -2 13 -5z m-80 -36 c-3 -8 -6 -5 -6 6 -1 11 2 17 5 13 3 -3
4 -12 1 -19z m83 0 c0 -13 -23 -5 -28 10 -2 7 2 10 12 6 9 -3 16 -11 16 -16z
m-20 -23 c6 -8 10 -20 8 -26 -2 -6 -12 0 -21 15 -18 27 -8 37 13 11z m980 -30
c0 -13 -4 -27 -10 -30 -5 -3 -10 3 -10 15 0 12 -4 18 -10 15 -14 -9 -12 3 3
19 16 18 27 10 27 -19z m216 -2 c30 -40 4 -105 -26 -67 -14 16 -45 20 -35 4 3
-5 2 -10 -3 -10 -5 0 -7 -10 -5 -23 3 -16 -4 -34 -22 -55 -33 -39 -65 -43 -65
-8 0 14 5 28 10 31 19 12 11 38 -10 32 -29 -7 -25 12 4 23 27 10 46 38 46 69
0 11 7 24 17 29 21 12 71 -2 89 -25z m-621 -13 c-3 -5 -12 -10 -18 -10 -7 0
-6 4 3 10 19 12 23 12 15 0z m754 -28 c-1 -10 1 -25 6 -34 4 -10 4 -25 1 -34
-4 -10 1 -22 11 -30 15 -11 16 -16 6 -33 -16 -26 -17 -44 -2 -35 6 3 15 0 20
-7 13 -21 11 -29 -8 -30 -17 -1 -17 -2 -1 -6 29 -7 32 -42 7 -69 -12 -13 -28
-24 -35 -24 -7 0 -10 -8 -7 -20 3 -11 0 -20 -6 -20 -7 0 -11 20 -10 53 1 33 3
44 7 30 5 -17 11 -20 22 -13 10 7 12 12 4 18 -6 4 -14 43 -17 87 -4 44 -10
107 -14 139 -5 45 -3 57 6 52 7 -4 11 -15 10 -24z m-379 -7 c0 -8 -4 -15 -10
-15 -5 0 -7 7 -4 15 4 8 8 15 10 15 2 0 4 -7 4 -15z m-1213 -17 c-3 -8 -6 -5
-6 6 -1 11 2 17 5 13 3 -3 4 -12 1 -19z m561 -17 c-7 -11 -16 -17 -20 -14 -10
5 10 33 23 33 5 0 4 -9 -3 -19z m-215 -13 c15 -7 17 -24 17 -121 0 -80 -4
-120 -15 -141 -14 -26 -14 -30 2 -41 16 -12 15 -13 -7 -8 l-25 4 2 157 c1 114
-1 145 -8 113 -12 -59 -21 -66 -15 -11 4 34 3 39 -3 20 -5 -14 -9 -45 -9 -70
0 -36 2 -40 7 -20 14 44 23 -58 12 -120 l-10 -55 4 68 c2 39 0 67 -5 67 -6 0
-9 -3 -9 -7 1 -5 0 -35 -1 -68 l-3 -60 -7 45 -7 45 -2 -40 c-1 -22 -5 -51 -9
-65 -6 -22 -8 -19 -13 20 l-6 45 -1 -42 -2 -43 -45 0 c-25 0 -45 -4 -45 -8 0
-5 40 -6 90 -4 l90 4 10 -26 c7 -19 7 -33 -1 -47 -9 -19 -12 -19 -27 -6 -14
13 -20 13 -35 2 -11 -8 -26 -11 -35 -9 -10 3 1 -5 23 -18 35 -19 37 -23 18
-26 -25 -4 -21 -32 4 -32 12 0 13 -3 3 -15 -13 -16 -10 -47 4 -45 9 1 36 -53
36 -72 0 -8 -52 -5 -120 8 -19 3 -21 2 -10 -5 8 -5 42 -13 76 -16 67 -8 70
-10 98 -94 11 -34 12 -48 3 -63 -10 -17 -8 -23 16 -42 l27 -22 -27 -107 -27
-107 -32 0 c-22 0 -38 7 -48 22 -14 19 -16 20 -22 4 -5 -14 -9 -14 -22 -4 -13
11 -15 10 -9 -5 8 -21 -1 -22 -24 -2 -15 14 -18 14 -31 1 -13 -13 -17 -8 -27
42 -7 31 -15 67 -18 79 -4 18 0 22 24 26 26 4 26 4 -6 6 -24 1 -32 5 -28 15 3
7 1 18 -4 23 -10 10 0 113 12 113 5 0 6 7 3 15 -5 12 -2 14 12 8 16 -6 17 -5
6 9 -16 20 -8 54 30 132 20 41 25 62 18 71 -7 8 -2 15 18 25 l27 12 -22 11
c-31 14 -29 25 5 21 15 -2 19 -1 10 2 -10 3 -18 13 -18 22 0 15 -2 15 -10 2
-8 -13 -10 -12 -10 4 0 17 -2 17 -24 3 l-24 -16 5 40 c6 40 6 40 -23 33 -16
-4 -33 -11 -38 -15 -18 -17 -46 -10 -46 11 0 25 -15 26 -30 3 -10 -16 -11 -15
-7 5 4 15 0 22 -10 22 -11 0 -13 4 -6 13 6 6 13 44 16 82 3 42 2 60 -3 45 -4
-15 -6 13 -3 70 4 101 13 136 13 55 0 -59 26 -101 85 -140 42 -27 69 -27 112
1 42 27 57 76 62 207 1 25 4 27 29 21 15 -4 35 -11 45 -16z m396 -15 c9 -32 7
-44 -13 -83 -26 -49 -56 -61 -108 -41 -21 8 -25 15 -22 39 3 25 -1 31 -20 36
-35 9 -42 36 -10 36 40 0 112 21 125 36 20 24 38 15 48 -23z m-988 -18 c4 -61
13 -66 20 -10 l6 50 1 -53 c2 -46 0 -53 -15 -50 -14 2 -19 15 -21 58 -2 30 -1
52 1 50 3 -3 6 -23 8 -45z m129 -1 c0 -27 -4 -43 -10 -39 -17 11 -11 85 7 85
2 0 3 -21 3 -46z m-63 -16 c-2 -13 -4 -5 -4 17 -1 22 1 32 4 23 2 -10 2 -28 0
-40z m33 5 c0 -35 -3 -44 -10 -33 -13 20 -13 80 0 80 6 0 10 -21 10 -47z m47
15 c-3 -8 -6 -5 -6 6 -1 11 2 17 5 13 3 -3 4 -12 1 -19z m1303 12 c0 -5 -4
-10 -10 -10 -5 0 -10 5 -10 10 0 6 5 10 10 10 6 0 10 -4 10 -10z m-680 -10 c0
-6 11 -22 25 -35 25 -26 22 -33 -6 -12 -22 17 -43 57 -29 57 5 0 10 -5 10 -10z
m-706 -52 c7 -5 5 -8 -6 -8 -14 0 -18 8 -17 33 2 27 2 28 6 7 3 -14 10 -28 17
-32z m246 42 c0 -5 -7 -10 -15 -10 -8 0 -15 5 -15 10 0 6 7 10 15 10 8 0 15
-4 15 -10z m350 -6 c0 -9 -5 -14 -12 -12 -18 6 -21 28 -4 28 9 0 16 -7 16 -16z
m-331 -18 c-12 -10 -49 -16 -49 -7 0 5 10 11 23 13 22 4 34 1 26 -6z m1107
-12 c-4 -9 -9 -15 -11 -12 -3 3 -3 13 1 22 4 9 9 15 11 12 3 -3 3 -13 -1 -22z
m-730 -9 c-2 -14 -5 -24 -8 -23 -3 2 -13 -3 -22 -11 -13 -11 -20 -11 -28 -3
-9 9 -9 12 0 12 7 0 12 6 12 13 0 16 20 37 36 37 8 0 12 -10 10 -25z m1114
-18 c0 -18 -2 -19 -10 -7 -13 20 -13 43 0 35 6 -3 10 -16 10 -28z m-1039 -7
c-2 -8 -4 -25 -4 -37 1 -13 -3 -20 -8 -17 -5 3 -9 15 -9 28 0 12 -6 28 -12 35
-11 10 -8 12 12 9 16 -2 24 -9 21 -18z m-643 0 c8 0 12 -18 12 -57 l0 -58 -73
1 c-97 0 -97 0 -97 30 0 43 78 98 125 88 11 -2 26 -4 33 -4z m-130 -12 c-6
-18 -28 -21 -28 -4 0 9 7 16 16 16 9 0 14 -5 12 -12z m862 -38 c27 -7 52 -8
75 -1 19 5 35 7 35 5 0 -3 -9 -23 -21 -45 -19 -38 -23 -41 -51 -35 -17 3 -39
6 -49 6 -19 0 -49 25 -49 41 0 5 11 2 25 -7 14 -9 25 -13 25 -9 0 11 -49 55
-61 55 -13 0 -11 14 3 28 10 10 14 8 20 -7 4 -12 23 -24 48 -31z m-170 10
c-19 -13 -30 -13 -30 0 0 6 10 10 23 10 18 0 19 -2 7 -10z m34 -5 c3 -8 1 -15
-4 -15 -6 0 -10 7 -10 15 0 8 2 15 4 15 2 0 6 -7 10 -15z m1096 -6 c0 -5 -4
-9 -10 -9 -5 0 -10 7 -10 16 0 8 5 12 10 9 6 -3 10 -10 10 -16z m-410 -15 c0
-8 -4 -12 -10 -9 -5 3 -10 10 -10 16 0 5 5 9 10 9 6 0 10 -7 10 -16z m-987 -1
c-13 -2 -33 -2 -45 0 -13 2 -3 4 22 4 25 0 35 -2 23 -4z m-35 -20 c-10 -2 -26
-2 -35 0 -10 3 -2 5 17 5 19 0 27 -2 18 -5z m252 -34 c0 -18 -18 -9 -23 12 -4
16 -3 18 9 8 8 -6 14 -15 14 -20z m80 22 c0 -4 -11 -6 -25 -3 -14 2 -25 6 -25
8 0 2 11 4 25 4 14 0 25 -4 25 -9z m6 -38 c-3 -8 -6 -21 -6 -29 0 -9 -5 -12
-10 -9 -6 4 -8 11 -5 16 4 5 -5 14 -19 21 -36 16 -32 25 10 20 26 -3 34 -8 30
-19z m478 -8 c-16 -24 -11 -51 7 -40 5 4 9 2 9 -3 0 -5 -18 -9 -40 -8 -43 1
-52 11 -20 21 22 7 26 21 8 27 -19 7 2 28 28 28 24 0 24 -1 8 -25z m193 -7
c-3 -7 -5 -2 -5 12 0 14 2 19 5 13 2 -7 2 -19 0 -25z m-1420 -15 c-3 -10 -5
-4 -5 12 0 17 2 24 5 18 2 -7 2 -21 0 -30z m41 -11 c2 -25 -1 -42 -7 -42 -6 0
-11 6 -12 13 -6 70 -6 78 5 74 6 -2 12 -22 14 -45z m24 -4 c2 -20 0 -34 -4
-32 -4 3 -8 24 -7 47 1 47 6 41 11 -15z m29 6 c-1 -19 2 -34 8 -34 6 0 12 19
13 43 l1 42 7 -50 c6 -51 12 -45 23 25 3 14 5 1 6 -27 1 -55 -2 -59 -46 -47
-20 5 -23 13 -23 52 0 25 3 42 7 38 4 -4 6 -23 4 -42z m564 -12 c-11 -11 -27
17 -20 35 6 16 8 16 16 -6 5 -13 7 -26 4 -29z m313 30 c2 -7 -3 -12 -12 -12
-9 0 -16 7 -16 16 0 17 22 14 28 -4z m152 14 c0 -3 -4 -8 -10 -11 -5 -3 -10
-1 -10 4 0 6 5 11 10 11 6 0 10 -2 10 -4z m783 -18 c14 -57 18 -118 8 -118 -6
0 -12 5 -12 10 -1 6 -3 15 -4 20 -1 6 -3 19 -4 30 -1 23 -26 27 -35 5 -3 -8
-12 -12 -20 -9 -9 3 -13 -1 -13 -12 2 -15 -5 -17 -45 -15 -39 2 -48 -1 -48
-14 0 -8 -6 -18 -14 -21 -8 -3 -12 -12 -9 -21 4 -11 1 -14 -13 -11 -12 2 -18
11 -16 23 3 18 2 18 -10 4 -7 -8 -26 -23 -41 -33 -16 -10 -27 -20 -24 -22 3
-3 14 0 26 8 17 10 23 10 33 -1 11 -11 9 -12 -11 -6 -19 6 -23 4 -18 -8 3 -8
0 -20 -6 -27 -9 -10 -9 -14 0 -17 7 -2 9 -11 6 -19 -3 -9 -20 -14 -48 -14 -37
0 -43 3 -47 25 -3 13 0 26 6 29 6 2 4 5 -5 5 -9 1 -19 -6 -23 -14 -8 -22 -46
-19 -46 3 0 10 -5 23 -12 30 -14 14 -48 16 -48 2 0 -5 7 -7 15 -4 8 4 15 1 15
-5 0 -6 -5 -11 -11 -11 -8 0 -7 -5 1 -15 7 -9 10 -18 6 -22 -7 -8 -35 27 -36
45 0 6 -7 12 -15 12 -14 0 -13 3 2 25 18 25 43 33 43 14 0 -15 63 -7 68 10 3
10 -3 11 -27 6 l-31 -7 2 64 1 63 6 -55 c6 -55 12 -56 31 -5 9 23 8 26 -5 21
-10 -4 -15 1 -15 16 0 19 1 20 18 6 39 -35 149 -30 177 9 13 17 15 17 43 -10
27 -26 34 -28 76 -22 25 4 49 11 51 16 3 4 12 6 20 2 9 -3 15 1 15 11 0 9 5
16 10 16 6 0 9 3 9 8 -2 14 1 22 10 22 5 0 11 -10 14 -22z m-1133 -33 c0 -36
-4 -45 -17 -45 -13 0 -14 3 -5 12 7 7 12 27 12 45 0 18 2 33 5 33 3 0 5 -20 5
-45z m-68 -15 c2 -21 -2 -26 -24 -28 -14 -2 -31 -9 -37 -16 -16 -20 -2 -46 24
-46 27 0 49 24 41 45 -7 20 -3 19 36 -5 l33 -20 -32 -12 c-29 -11 -33 -17 -33
-47 l0 -34 -25 23 c-24 23 -26 23 -60 7 -39 -18 -41 -14 -21 33 11 28 11 37 0
59 -14 25 -13 26 20 29 23 2 37 10 46 28 15 27 27 22 32 -16z m359 11 c4 -3
10 -15 13 -27 5 -16 0 -23 -19 -32 -35 -16 -53 -16 -37 0 7 7 12 16 12 21 0
14 -31 -14 -39 -35 -6 -16 -8 -15 -31 3 -22 18 -23 20 -5 18 42 -3 48 0 35 16
-11 13 -8 15 16 16 16 0 23 3 17 6 -7 2 -13 11 -13 20 0 10 6 12 23 8 12 -4
25 -10 28 -14z m-95 -16 c0 -14 -2 -25 -3 -25 -14 0 -31 15 -27 22 4 6 0 14
-7 19 -10 6 -7 9 12 9 22 0 27 -4 25 -25z m-846 -42 c0 -39 -14 -65 -42 -79
-18 -9 -26 -19 -21 -27 4 -7 6 -20 4 -31 -1 -10 3 -23 11 -27 10 -7 10 -9 1
-9 -7 0 -13 -4 -13 -10 0 -5 6 -10 13 -10 13 0 77 -120 77 -145 0 -8 4 -15 8
-15 14 0 35 -54 23 -58 -17 -6 -13 -23 9 -47 18 -19 19 -27 9 -80 -6 -33 -19
-76 -30 -97 -10 -20 -19 -43 -19 -51 0 -10 -18 -13 -72 -12 l-73 1 -2 87 -3
87 33 2 32 1 -32 4 c-27 4 -33 9 -33 29 0 19 5 24 28 25 l27 2 -27 4 c-22 3
-29 11 -34 37 -10 57 -2 81 26 79 25 -2 25 -2 -2 9 -19 8 -28 19 -28 35 0 19
6 23 33 24 l32 1 -30 7 -30 6 -3 93 c-2 53 1 99 7 106 6 7 6 17 1 26 -7 11 -4
17 8 22 16 6 16 7 0 7 -10 1 -18 6 -18 11 0 6 28 10 65 10 55 0 65 -3 65 -17z
m1182 -56 c-12 -23 -16 -26 -29 -15 -13 10 -13 14 4 26 17 13 17 14 -2 10 -29
-5 -32 -44 -4 -53 17 -6 28 -2 42 16 11 14 27 23 39 21 13 -2 18 1 14 7 -4 6
-2 11 3 11 17 0 13 -18 -10 -41 -11 -11 -26 -35 -34 -51 -12 -31 -13 -31 -24
-9 -10 18 -15 20 -27 10 -8 -6 -14 -23 -14 -38 l1 -26 13 23 c12 22 13 21 13
-22 0 -25 -4 -46 -8 -46 -4 0 -10 -8 -12 -17 -3 -10 -5 -4 -6 14 -1 39 -17 50
-40 29 -10 -9 -21 -13 -24 -9 -13 12 -7 21 22 31 20 7 30 19 34 39 7 35 4 38
-23 23 -29 -15 -32 -10 -19 29 9 24 9 39 0 57 -15 34 -15 35 16 23 22 -8 32
-6 52 9 26 19 26 19 31 -2 3 -11 0 -34 -8 -49z m-612 49 c0 -17 -27 -29 -35
-16 -4 6 -3 15 0 20 9 15 35 12 35 -4z m-480 -16 c0 -5 -9 -10 -20 -10 -11 0
-20 5 -20 10 0 6 9 10 20 10 11 0 20 -4 20 -10z m24 -51 c-14 -15 -15 -21 -4
-34 7 -9 10 -19 6 -22 -11 -11 -26 19 -24 47 2 14 9 24 16 23 7 -2 13 8 13 25
2 24 2 25 6 4 3 -14 -3 -32 -13 -43z m159 44 c-3 -10 -12 -25 -20 -34 -11 -14
-10 -17 13 -28 33 -15 26 -36 -12 -35 -17 0 -35 -8 -45 -20 -19 -24 -39 -14
-39 20 0 20 4 24 19 19 10 -3 23 1 30 9 10 12 9 19 -7 36 -13 14 -22 18 -27
11 -3 -6 1 -14 9 -17 9 -3 16 -13 16 -21 0 -12 -3 -13 -13 -4 -10 8 -18 7 -31
-2 -14 -10 -16 -21 -11 -51 5 -26 12 -36 21 -32 8 3 14 1 14 -4 0 -6 -8 -10
-18 -10 -28 0 -44 61 -26 95 10 20 11 32 3 47 -14 27 -7 31 33 21 23 -7 41 -5
58 4 34 17 41 16 33 -4z m722 -51 c-8 -9 -35 20 -28 31 4 6 11 3 19 -8 8 -10
12 -21 9 -23z m85 22 c0 -8 -4 -24 -10 -34 -14 -25 -3 -49 26 -56 33 -8 30
-20 -6 -28 -75 -15 -95 -17 -82 -8 11 7 11 10 -2 15 -17 7 -22 47 -6 47 6 0
10 -9 10 -19 0 -20 25 -35 41 -25 15 9 10 24 -7 24 -13 0 -15 7 -10 35 6 28 4
35 -9 35 -8 0 -15 5 -15 10 0 14 12 12 37 -5 20 -14 21 -13 16 5 -3 11 0 20 6
20 6 0 11 -7 11 -16z m-440 -14 c8 -15 7 -27 -4 -47 -29 -57 -16 -133 23 -133
28 0 37 -20 9 -21 -17 -1 -18 -3 -5 -6 26 -7 21 -23 -8 -23 -14 0 -25 -5 -25
-11 0 -6 9 -9 20 -6 11 3 20 1 20 -4 0 -5 -9 -9 -21 -9 -11 0 -17 -5 -14 -10
4 -6 11 -8 16 -5 5 4 6 -7 2 -26 -4 -21 -2 -34 8 -40 9 -6 -1 -9 -31 -9 -25 0
-52 5 -60 10 -12 8 -10 10 8 10 34 0 18 17 -23 24 -41 8 -48 25 -7 20 15 -2
20 -1 10 2 -9 3 -19 12 -22 20 -4 12 -1 14 14 9 29 -9 25 4 -5 15 -34 13 -33
32 1 24 19 -5 25 -4 20 5 -4 6 -18 11 -32 11 -38 0 -28 18 14 23 l37 4 -42 1
c-23 1 -45 7 -48 12 -4 6 7 8 29 5 21 -2 36 0 36 6 0 6 9 8 23 4 22 -7 22 -7
2 9 -22 17 -60 22 -50 6 3 -5 -1 -10 -9 -10 -9 0 -16 7 -16 16 0 13 9 15 45
12 32 -2 45 1 45 10 0 7 7 24 16 37 10 15 14 37 12 55 -5 35 -3 37 12 10z
m1250 11 c0 -12 -20 -25 -27 -18 -7 7 6 27 18 27 5 0 9 -4 9 -9z m-1445 -11
c8 -13 -15 -13 -35 0 -12 8 -11 10 7 10 12 0 25 -4 28 -10z m350 -18 c18 -11
16 -12 -14 -9 -19 2 -37 9 -39 15 -5 15 25 11 53 -6z m820 8 c-3 -5 -13 -10
-21 -10 -8 0 -12 5 -9 10 3 6 13 10 21 10 8 0 12 -4 9 -10z m-1615 -10 c0 -5
-12 -10 -26 -10 -14 0 -23 4 -19 10 3 6 15 10 26 10 10 0 19 -4 19 -10z m1025
0 c-3 -5 -12 -10 -18 -10 -7 0 -6 4 3 10 19 12 23 12 15 0z m-990 -10 c3 -5 1
-10 -4 -10 -6 0 -11 5 -11 10 0 6 2 10 4 10 3 0 8 -4 11 -10z m55 -24 c0 -6
-11 -16 -25 -23 -28 -12 -30 -7 -15 32 9 23 13 25 25 15 8 -7 15 -18 15 -24z
m398 19 l27 5 -27 -11 c-16 -6 -28 -17 -28 -25 0 -19 10 -18 26 4 10 14 15 15
26 4 11 -11 10 -12 -4 -7 -13 5 -19 0 -24 -19 -6 -27 -18 -33 -29 -15 -4 6
-14 8 -23 4 -13 -5 -13 -2 2 14 10 11 16 27 13 35 -3 8 -3 17 1 21 4 3 8 1 10
-4 2 -6 16 -9 30 -6z m250 3 c7 -7 12 -16 12 -22 0 -6 -5 -5 -12 2 -15 15 -58
16 -58 0 0 -6 -3 -8 -6 -5 -10 10 16 37 35 37 9 0 22 -5 29 -12z m233 -31 c-8
-8 -11 -7 -11 4 0 20 13 34 18 19 3 -7 -1 -17 -7 -23z m274 23 c3 -5 1 -10 -4
-10 -6 0 -11 5 -11 10 0 6 2 10 4 10 3 0 8 -4 11 -10z m365 -4 c0 -18 -30 -30
-43 -17 -5 5 -6 14 -3 20 10 16 46 13 46 -3z m-1635 -6 c3 -5 -1 -10 -10 -10
-9 0 -13 5 -10 10 3 6 8 10 10 10 2 0 7 -4 10 -10z m355 0 c0 -5 -6 -10 -14
-10 -7 0 -19 -7 -26 -15 -11 -13 -10 -14 6 -8 16 6 17 5 6 -9 -8 -10 -9 -17
-3 -20 6 -2 7 -9 2 -17 -6 -10 -12 -5 -24 18 -15 30 -15 31 16 50 37 24 37 24
37 11z m323 -27 c-4 -22 -2 -25 6 -13 6 8 11 11 11 6 0 -5 6 -4 13 1 6 5 28 6
47 2 19 -3 27 -7 17 -8 -11 0 -15 -6 -11 -12 5 -8 -6 -9 -35 -4 -28 5 -41 3
-41 -5 0 -6 -4 -8 -10 -5 -11 7 -14 48 -3 58 10 11 11 9 6 -20z m-73 8 c0 -6
-4 -13 -10 -16 -5 -3 -10 1 -10 9 0 9 5 16 10 16 6 0 10 -4 10 -9z m697 3 c-3
-3 -12 -4 -19 -1 -8 3 -5 6 6 6 11 1 17 -2 13 -5z m-47 -35 c0 -4 -9 -9 -20
-12 -11 -3 -20 -1 -20 4 0 5 5 9 10 9 6 0 10 8 10 18 0 14 2 15 10 2 5 -8 10
-18 10 -21z m362 17 c6 4 9 1 6 -7 -3 -8 -21 -15 -42 -17 -35 -3 -36 -2 -25
17 10 15 17 17 31 10 10 -6 23 -7 30 -3z m168 -29 c0 -5 -7 -4 -15 3 -8 7 -15
20 -15 29 1 13 3 13 15 -3 8 -11 15 -24 15 -29z m-1627 13 c3 -11 1 -20 -4
-20 -5 0 -9 9 -9 20 0 11 2 20 4 20 2 0 6 -9 9 -20z m412 10 c3 -5 -1 -10 -9
-10 -9 0 -16 5 -16 10 0 6 4 10 9 10 6 0 13 -4 16 -10z m805 -1 c0 -5 8 -9 18
-7 16 3 70 -28 61 -35 -2 -2 -23 -14 -46 -27 -23 -12 -43 -30 -46 -39 -3 -15
5 -17 58 -15 34 1 78 9 98 19 20 9 40 14 45 11 13 -8 23 20 15 42 -6 16 -5 16
14 -1 12 -10 26 -39 32 -65 7 -26 14 -55 17 -64 4 -15 -4 -18 -58 -21 l-63 -3
68 -2 c37 -1 67 -6 67 -12 0 -6 11 -8 25 -4 29 7 33 -3 8 -22 -15 -11 -16 -16
-5 -33 15 -25 15 -31 2 -31 -5 0 -10 7 -10 15 0 8 -5 15 -11 15 -6 0 -9 9 -6
20 3 11 1 20 -5 20 -5 0 -12 -9 -15 -20 -5 -18 -14 -20 -112 -20 -91 0 -109 3
-119 18 -10 13 -23 16 -53 14 -21 -2 -39 -8 -39 -13 0 -9 5 -10 46 -13 11 0
27 -5 35 -11 8 -5 69 -10 136 -10 155 0 156 -1 124 -140 -23 -97 -32 -115 -62
-115 -15 0 -31 5 -35 11 -4 8 -9 8 -17 0 -14 -14 -101 -15 -92 -1 3 6 2 10 -4
10 -5 0 -11 -4 -13 -8 -1 -5 -25 -6 -53 -3 l-50 6 -26 65 c-36 91 -43 144 -23
175 11 17 13 29 6 41 -14 25 5 64 27 56 13 -5 14 -3 4 10 -10 11 -10 23 -2 47
6 17 14 31 18 31 4 0 7 9 8 21 3 41 -19 12 -52 -66 l-33 -80 -68 0 c-49 0 -69
4 -72 14 -3 8 0 11 7 7 6 -4 11 -2 11 3 0 6 -10 12 -22 12 -15 1 -11 4 12 9
l35 7 -40 3 -40 3 35 7 35 7 -32 2 c-43 1 -53 21 -11 22 32 2 32 2 -7 9 -22 4
-32 8 -22 9 25 2 21 19 -5 24 -18 3 -17 5 7 6 18 1 25 4 18 9 -8 5 -3 12 17
19 28 11 30 10 30 -13 0 -30 28 -44 44 -22 6 9 20 18 31 20 14 3 19 11 18 26
-2 19 2 22 35 21 l37 -2 -35 -7 c-43 -8 -21 -20 30 -17 19 2 43 -1 54 -6 16
-8 18 -6 12 16 -3 14 -9 32 -12 41 -3 9 -1 16 5 16 6 0 11 -5 11 -11z m340 4
c0 -14 -19 -38 -25 -32 -8 8 5 39 16 39 5 0 9 -3 9 -7z m-1665 -13 c-3 -5 -16
-10 -28 -10 -18 0 -19 2 -7 10 20 13 43 13 35 0z m80 0 c3 -5 1 -10 -4 -10 -6
0 -11 5 -11 10 0 6 2 10 4 10 3 0 8 -4 11 -10z m149 -21 c-8 -13 -24 -1 -24
18 0 13 3 13 15 3 8 -7 12 -16 9 -21z m1016 21 c0 -5 -4 -10 -10 -10 -5 0 -10
5 -10 10 0 6 5 10 10 10 6 0 10 -4 10 -10z m50 -10 c0 -13 -6 -20 -17 -19 -11
0 -13 3 -5 6 6 2 12 11 12 19 0 8 2 14 5 14 3 0 5 -9 5 -20z m660 -29 c0 -37
-4 -50 -17 -56 -17 -6 -17 -7 0 -16 20 -12 24 -75 5 -82 -10 -4 -10 -7 0 -15
8 -6 12 -24 10 -48 l-3 -39 -55 -1 c-52 -2 -53 -1 -15 6 l40 7 -37 2 c-58 2
-45 21 15 23 l52 1 -50 6 c-38 5 -50 10 -51 24 -1 12 6 17 26 17 15 0 33 7 40
15 10 12 7 15 -13 20 -14 4 -36 5 -48 2 -19 -3 -17 -5 9 -6 17 0 32 -6 32 -12
0 -7 -15 -10 -40 -7 -35 3 -39 1 -34 -14 4 -13 0 -18 -13 -18 -17 -1 -17 -1 0
-14 18 -14 23 -36 8 -36 -5 0 -11 7 -15 15 -3 8 -12 15 -21 15 -8 0 -15 6 -15
14 0 10 -12 12 -50 8 -38 -3 -50 -1 -48 8 2 7 -8 17 -22 21 -22 6 -21 7 12 8
20 1 40 5 43 11 4 6 -12 8 -42 5 -38 -3 -42 -3 -18 4 l30 9 -35 1 c-43 1 -29
18 20 24 33 4 32 4 -10 7 l-45 3 40 7 40 7 -45 3 -45 3 35 7 35 7 -35 3 -35 3
35 7 35 7 -40 3 c-35 2 -37 3 -15 10 l25 8 -24 1 c-13 1 -21 4 -17 8 4 4 23 6
42 4 26 -2 34 1 34 13 0 22 26 20 50 -4 11 -11 26 -19 33 -18 6 2 11 -2 10 -8
-1 -7 7 -14 17 -17 11 -3 20 -1 20 4 0 5 5 9 10 9 6 0 10 -7 10 -15 0 -11 -12
-15 -42 -17 l-43 -1 38 -4 c30 -3 37 -8 33 -19 -3 -9 -6 -20 -6 -26 0 -6 -10
-8 -25 -4 -14 4 -25 2 -25 -4 0 -5 9 -10 20 -10 11 0 20 -5 20 -10 0 -6 -11
-8 -26 -4 -19 5 -25 4 -20 -5 4 -6 13 -11 21 -11 7 0 15 -6 18 -12 6 -19 10
-12 43 92 17 52 35 95 42 95 6 0 17 6 24 13 6 6 25 12 40 12 27 0 28 -2 28
-49z m-330 18 c0 -5 -4 -9 -10 -9 -5 0 -10 7 -10 16 0 8 5 12 10 9 6 -3 10
-10 10 -16z m-1385 -29 l24 0 -29 -82 c-30 -84 -43 -101 -72 -92 -9 2 -19 0
-23 -6 -3 -5 -18 -10 -33 -9 l-27 1 25 8 c24 8 24 8 -10 16 l-35 9 45 6 45 6
-55 3 c-30 1 -47 4 -37 7 22 6 12 23 -14 23 -10 0 -19 5 -19 11 0 7 10 9 25 5
14 -4 25 -2 25 3 0 5 -15 12 -32 14 -29 3 -27 4 12 7 l45 3 -49 6 c-27 3 -51
12 -54 19 -3 9 6 11 33 6 26 -4 35 -2 30 5 -3 6 -11 9 -16 6 -5 -4 -9 -1 -9 6
0 7 11 9 35 5 22 -4 35 -3 35 4 0 5 -6 10 -13 10 -7 0 -21 6 -30 13 -15 10 -5
11 53 9 53 -3 70 0 70 9 0 8 7 3 16 -9 8 -12 26 -22 39 -22z m430 30 c3 -5 1
-10 -4 -10 -6 0 -11 5 -11 10 0 6 2 10 4 10 3 0 8 -4 11 -10z m804 -11 c-9 -5
-5 -10 14 -14 15 -4 27 -11 27 -17 0 -5 -4 -7 -9 -4 -5 3 -22 -1 -39 -10 -32
-15 -132 -31 -132 -21 0 3 20 18 44 32 24 14 46 32 49 39 4 9 15 12 32 8 19
-3 23 -7 14 -13z m-1479 1 c12 -8 11 -10 -7 -10 -13 0 -23 5 -23 10 0 13 11
13 30 0z m467 4 c-3 -3 -12 -4 -19 -1 -8 3 -5 6 6 6 11 1 17 -2 13 -5z m-427
-11 c0 -5 -5 -15 -10 -23 -8 -12 -10 -11 -10 8 0 12 5 22 10 22 6 0 10 -3 10
-7z m616 -16 c8 3 14 0 14 -7 0 -17 -35 -7 -36 10 0 8 1 10 3 3 2 -7 11 -9 19
-6z m64 13 c0 -5 -7 -10 -16 -10 -8 0 -12 5 -9 10 3 6 10 10 16 10 5 0 9 -4 9
-10z m315 0 c3 -6 -5 -10 -19 -10 -14 0 -28 5 -31 10 -3 6 5 10 19 10 14 0 28
-4 31 -10z m-1030 -20 c3 -5 1 -10 -4 -10 -6 0 -11 5 -11 10 0 6 2 10 4 10 3
0 8 -4 11 -10z m1022 -6 c-3 -3 -12 -4 -19 -1 -8 3 -5 6 6 6 11 1 17 -2 13 -5z
m-294 -19 c-3 -9 -8 -14 -10 -11 -3 3 -2 9 2 15 9 16 15 13 8 -4z m-43 -35 c0
-5 -4 -10 -10 -10 -5 0 -10 5 -10 10 0 6 5 10 10 10 6 0 10 -4 10 -10z m16
-27 c-18 -33 -21 -26 -6 13 6 15 13 24 16 21 3 -3 -1 -18 -10 -34z m-40 -58
c-4 -14 -11 -25 -17 -25 -6 0 -6 7 1 20 6 11 8 20 5 20 -4 0 -3 5 0 11 11 17
18 2 11 -26z m-449 -57 c-3 -8 -6 -5 -6 6 -1 11 2 17 5 13 3 -3 4 -12 1 -19z
m866 1 c4 -16 3 -18 -9 -8 -7 6 -11 15 -8 20 8 13 11 11 17 -12z m40 2 c3 -14
1 -18 -9 -14 -8 3 -14 11 -14 19 0 21 17 17 23 -5z m37 10 c0 -6 -4 -13 -10
-16 -5 -3 -10 1 -10 9 0 9 5 16 10 16 6 0 10 -4 10 -9z m510 -6 c0 -9 -6 -12
-15 -9 -8 4 -15 10 -15 15 0 5 7 9 15 9 8 0 15 -7 15 -15z m50 1 c0 -21 -21
-31 -30 -15 -5 7 -6 17 -4 21 9 14 34 9 34 -6z m39 1 c8 -11 6 -19 -8 -35 -19
-23 -41 -29 -41 -12 0 6 5 10 10 10 6 0 10 8 10 18 0 16 8 32 15 32 2 0 8 -6
14 -13z m-1695 -13 c3 -8 2 -12 -4 -9 -6 3 -10 10 -10 16 0 14 7 11 14 -7z
m36 0 c0 -8 -4 -12 -10 -9 -5 3 -10 10 -10 16 0 5 5 9 10 9 6 0 10 -7 10 -16z
m50 0 c0 -17 -22 -14 -28 4 -2 7 3 12 12 12 9 0 16 -7 16 -16z m40 1 c0 -8 -5
-15 -11 -15 -5 0 -7 -5 -4 -10 4 -6 11 -7 17 -4 7 4 8 2 4 -4 -10 -16 -49 -16
-42 1 3 6 9 20 12 30 8 21 24 23 24 2z m1000 5 c0 -5 -5 -10 -11 -10 -5 0 -7
5 -4 10 3 6 8 10 11 10 2 0 4 -4 4 -10z m-670 -33 c0 -5 -4 -5 -10 -2 -5 3
-10 14 -10 23 0 15 2 15 10 2 5 -8 10 -19 10 -23z m46 5 c-9 -9 -37 8 -31 18
5 8 11 7 21 -1 8 -6 12 -14 10 -17z m52 16 c-3 -7 -11 -13 -18 -13 -7 0 -15 6
-17 13 -3 7 4 12 17 12 13 0 20 -5 18 -12z m42 -7 c0 -5 -5 -11 -10 -13 -7 -2
-7 -13 -1 -33 6 -17 14 -52 19 -78 8 -41 7 -49 -7 -54 -49 -15 -55 -22 -17
-20 35 2 40 -1 53 -30 l13 -33 -32 1 c-18 1 -25 3 -15 6 9 2 17 8 17 12 0 11
-49 1 -56 -10 -3 -5 -11 -9 -17 -9 -8 0 -11 15 -9 45 4 41 7 46 36 54 31 9 31
9 4 10 -29 1 -37 15 -15 25 10 5 10 7 0 12 -19 8 -16 35 2 28 8 -4 15 -1 15 5
0 6 -8 12 -17 12 -16 1 -16 2 0 6 17 4 17 6 2 17 -15 11 -16 15 -4 34 14 22
39 30 39 13z m540 -5 c0 -3 -4 -8 -10 -11 -5 -3 -10 -1 -10 4 0 6 5 11 10 11
6 0 10 -2 10 -4z m-45 -16 c3 -5 16 -10 28 -11 20 -1 20 -2 -3 -9 -23 -7 -23
-8 -3 -9 33 -2 37 -19 6 -24 -28 -4 -28 -4 2 -6 29 -1 32 -4 44 -63 8 -35 21
-71 29 -80 12 -15 12 -18 1 -23 -25 -8 -229 -13 -224 -4 3 4 12 6 20 2 8 -3
15 0 15 6 0 6 -7 11 -15 11 -25 0 -17 30 8 31 12 0 16 3 10 6 -21 8 -15 23 10
24 21 1 21 1 -3 9 l-25 8 23 7 c18 6 20 10 10 16 -9 6 -7 9 9 9 26 0 34 -21
28 -77 -3 -24 -1 -43 4 -43 5 0 9 28 10 62 0 35 4 82 7 106 5 35 4 42 -10 42
-10 0 -14 5 -11 10 3 6 10 10 15 10 5 0 12 -4 15 -10z m653 -22 c-17 -6 -25
-14 -21 -24 7 -19 23 -18 23 3 0 21 15 7 16 -15 1 -10 2 -29 3 -44 0 -17 7
-28 15 -28 12 0 12 7 4 36 -15 55 -7 64 56 62 l56 -2 -5 -50 c-2 -28 -4 -63
-5 -78 0 -28 -1 -28 -69 -28 -67 0 -69 1 -74 27 -3 16 0 31 6 35 9 6 9 8 0 8
-7 0 -20 25 -30 56 -14 47 -15 57 -3 64 8 5 22 4 34 -2 20 -11 20 -12 -6 -20z
m-121 16 c-3 -3 -12 -4 -19 -1 -8 3 -5 6 6 6 11 1 17 -2 13 -5z m-1096 -24 c8
-20 2 -30 -19 -30 -14 0 -15 2 -2 10 12 8 12 10 -3 16 -9 3 -17 10 -17 16 0
14 34 5 41 -12z m1332 13 c-13 -2 -35 -2 -50 0 -16 2 -5 4 22 4 28 0 40 -2 28
-4z m-1733 -13 c0 -5 -10 -10 -22 -11 -23 0 -23 0 -2 -9 14 -5 28 -30 43 -77
13 -37 27 -72 32 -77 5 -6 9 -16 9 -24 0 -10 -15 -12 -60 -10 -33 2 -61 5 -61
8 -6 21 -4 92 3 96 4 3 8 27 8 53 0 26 3 51 7 54 10 11 43 8 43 -3z m1500 1
c0 -5 -9 -11 -20 -14 -22 -6 -28 8 -7 16 19 8 27 8 27 -2z m60 -1 c0 -5 -7
-10 -15 -10 -28 0 -16 -30 13 -31 l27 -1 -25 -8 -25 -7 27 -7 c20 -6 27 -15
30 -42 4 -32 2 -34 -27 -35 -29 -1 -29 -1 10 -14 l40 -13 -45 -2 -45 -2 47
-12 c66 -16 66 -22 0 -21 l-58 0 3 90 c1 50 3 98 3 108 0 10 8 17 20 17 11 0
20 -4 20 -10z m-1630 -19 c0 -5 -9 -7 -20 -4 -11 3 -20 7 -20 9 0 2 9 4 20 4
11 0 20 -4 20 -9z m1005 -1 c4 -6 -5 -10 -19 -10 -14 0 -26 5 -26 10 0 6 9 10
19 10 11 0 23 -4 26 -10z m-1017 -19 c16 -10 6 -121 -10 -121 -6 0 -8 7 -4 15
3 9 0 15 -9 15 -7 0 -17 5 -21 12 -5 8 0 9 14 6 12 -4 22 -2 22 3 0 5 -7 9
-15 9 -8 0 -15 9 -15 21 0 16 4 19 23 14 20 -6 21 -5 5 8 -29 23 -20 37 10 18z
m1575 2 c-7 -2 -19 -2 -25 0 -7 3 -2 5 12 5 14 0 19 -2 13 -5z m-1099 -12 c3
-4 -6 -6 -19 -3 -14 2 -25 6 -25 8 0 8 39 4 44 -5z m541 -1 c4 -6 -5 -10 -19
-10 -14 0 -26 5 -26 10 0 6 9 10 19 10 11 0 23 -4 26 -10z m560 -72 c-3 -40
-9 -76 -11 -80 -7 -12 -74 -10 -74 2 0 6 10 11 23 11 18 1 19 2 4 6 -14 4 -17
11 -13 26 3 12 6 28 6 35 0 6 12 13 28 13 23 2 24 2 5 6 -13 2 -23 9 -23 14 0
5 10 10 23 10 16 1 18 2 5 6 -27 7 -21 23 8 23 l27 0 -8 -72z m-1098 48 c0 0
-1 -31 -4 -68 l-6 -68 -40 0 c-36 0 -39 2 -33 23 3 12 6 28 6 36 0 8 6 11 15
7 8 -3 15 -1 15 4 0 6 -4 10 -10 10 -5 0 -10 5 -10 10 0 6 11 8 25 4 31 -8 33
3 3 16 l-23 9 24 0 c24 1 24 1 5 17 -18 14 -18 15 6 8 14 -3 26 -7 27 -8z
m-510 -72 c-3 -3 -12 -4 -19 -1 -8 3 -5 6 6 6 11 1 17 -2 13 -5z m25 -38 c14
-21 8 -26 -32 -26 -22 0 -40 4 -40 10 0 5 8 7 18 3 14 -5 15 -3 5 8 -7 7 -13
17 -13 21 0 11 53 -2 62 -16z m1835 6 c8 -5 9 -12 2 -22 -8 -11 -12 -12 -16
-2 -2 6 -11 12 -19 12 -8 0 -14 -6 -15 -12 0 -10 -2 -10 -6 0 -2 6 -9 12 -14
12 -6 0 -7 -4 -4 -10 3 -5 -1 -10 -9 -10 -9 0 -16 2 -16 4 0 2 -3 11 -6 20 -5
13 2 16 42 16 27 0 54 -4 61 -8z"/>
<path d="M968 3702 c-21 -4 -24 -22 -5 -22 7 0 21 -16 30 -35 21 -45 21 -45
-3 -45 -11 0 -20 -4 -20 -10 0 -6 43 -10 110 -10 67 0 110 4 110 10 0 6 -7 10
-15 10 -11 0 -15 11 -15 39 0 31 4 40 22 44 45 12 3 22 -95 23 -56 0 -110 -1
-119 -4z m81 -29 c-1 -16 -18 -48 -18 -36 -1 6 -4 18 -7 27 -4 11 -1 16 10 16
9 0 16 -3 15 -7z m65 -9 c11 -30 -4 -64 -30 -64 -29 0 -29 0 -7 45 18 38 28
43 37 19z"/>
<path d="M455 2810 c3 -5 16 -10 28 -9 21 0 21 1 2 9 -28 12 -37 12 -30 0z"/>
<path d="M507 2781 c-3 -12 -1 -21 4 -21 5 0 9 -18 9 -39 0 -27 5 -41 16 -45
22 -8 22 -8 25 42 3 35 -1 46 -16 55 -11 5 -23 14 -26 19 -3 6 -9 0 -12 -11z
m43 -56 c0 -14 -4 -25 -10 -25 -11 0 -14 33 -3 43 11 11 13 8 13 -18z"/>
<path d="M538 2793 c7 -3 16 -2 19 1 4 3 -2 6 -13 5 -11 0 -14 -3 -6 -6z"/>
<path d="M440 2780 c0 -5 7 -10 16 -10 8 0 12 5 9 10 -3 6 -10 10 -16 10 -5 0
-9 -4 -9 -10z"/>
<path d="M167 2768 c-9 -7 -21 -28 -26 -46 -9 -30 -8 -32 10 -27 17 6 20 3 17
-22 -3 -24 1 -28 22 -28 21 0 27 7 34 38 7 25 6 41 0 45 -12 8 -26 42 -18 42
3 0 14 -10 24 -22 10 -13 22 -20 26 -16 11 12 -27 48 -51 48 -11 0 -29 -6 -38
-12z m9 -43 c-3 -9 -11 -13 -16 -10 -8 5 -7 11 1 21 14 18 24 11 15 -11z"/>
<path d="M482 2750 c0 -14 2 -19 5 -12 2 6 2 18 0 25 -3 6 -5 1 -5 -13z"/>
<path d="M695 2760 c3 -5 11 -10 16 -10 6 0 7 5 4 10 -3 6 -11 10 -16 10 -6 0
-7 -4 -4 -10z"/>
<path d="M2110 2760 c0 -5 5 -10 11 -10 5 0 7 5 4 10 -3 6 -8 10 -11 10 -2 0
-4 -4 -4 -10z"/>
<path d="M437 2749 c7 -7 15 -10 18 -7 3 3 -2 9 -12 12 -14 6 -15 5 -6 -5z"/>
<path d="M330 2740 c0 -5 7 -7 15 -4 8 4 15 8 15 10 0 2 -7 4 -15 4 -8 0 -15
-4 -15 -10z"/>
<path d="M311 2714 c0 -11 3 -14 6 -6 3 7 2 16 -1 19 -3 4 -6 -2 -5 -13z"/>
<path d="M358 2713 c7 -3 16 -2 19 1 4 3 -2 6 -13 5 -11 0 -14 -3 -6 -6z"/>
<path d="M725 2710 c3 -5 8 -10 11 -10 2 0 4 5 4 10 0 6 -5 10 -11 10 -5 0 -7
-4 -4 -10z"/>
<path d="M365 2660 c-3 -5 -1 -10 4 -10 6 0 11 5 11 10 0 6 -2 10 -4 10 -3 0
-8 -4 -11 -10z"/>
<path d="M1270 2640 c20 -13 43 -13 35 0 -3 6 -16 10 -28 10 -18 0 -19 -2 -7
-10z"/>
<path d="M356 2625 c4 -8 10 -15 15 -15 4 0 6 7 3 15 -4 8 -10 15 -15 15 -4 0
-6 -7 -3 -15z"/>
<path d="M195 2623 c-11 -3 -24 -10 -30 -15 -7 -8 -4 -9 8 -4 10 3 27 6 38 6
10 0 19 5 19 10 0 10 -3 11 -35 3z"/>
<path d="M1210 2620 c0 -6 7 -10 15 -10 8 0 15 2 15 4 0 2 -7 6 -15 10 -8 3
-15 1 -15 -4z"/>
<path d="M1450 2610 c20 -13 90 -13 90 0 0 6 -24 10 -52 10 -38 0 -49 -3 -38
-10z"/>
<path d="M1580 2610 c0 -5 12 -10 28 -10 21 0 24 2 12 10 -20 13 -40 13 -40 0z"/>
<path d="M1664 2609 c-3 -5 6 -9 20 -9 31 0 34 6 6 13 -11 3 -23 1 -26 -4z"/>
<path d="M1881 2616 c8 -8 88 -10 95 -3 4 4 -17 7 -46 7 -29 0 -51 -2 -49 -4z"/>
<path d="M1280 2601 c0 -5 9 -11 20 -14 24 -6 27 8 4 17 -21 8 -24 8 -24 -3z"/>
<path d="M2050 2601 c0 -11 49 -21 55 -11 3 4 -5 10 -18 14 -30 8 -37 7 -37
-3z"/>
<path d="M330 2580 c-11 -7 -7 -10 17 -10 17 0 35 5 38 10 8 13 -35 13 -55 0z"/>
<path d="M1270 2570 c0 -5 5 -10 11 -10 5 0 7 5 4 10 -3 6 -8 10 -11 10 -2 0
-4 -4 -4 -10z"/>
<path d="M1388 2573 c6 -2 18 -2 25 0 6 3 1 5 -13 5 -14 0 -19 -2 -12 -5z"/>
<path d="M1443 2563 c9 -2 23 -2 30 0 6 3 -1 5 -18 5 -16 0 -22 -2 -12 -5z"/>
<path d="M1640 2559 c0 -5 9 -9 20 -9 11 0 20 2 20 4 0 2 -9 6 -20 9 -11 3
-20 1 -20 -4z"/>
<path d="M730 2550 c0 -13 28 -25 38 -16 3 4 0 11 -8 16 -20 13 -30 12 -30 0z"/>
<path d="M1372 2531 c1 -20 6 -31 15 -31 10 0 13 9 11 27 -4 38 -27 42 -26 4z"/>
<path d="M1773 2553 c9 -2 23 -2 30 0 6 3 -1 5 -18 5 -16 0 -22 -2 -12 -5z"/>
<path d="M1890 2550 c0 -5 14 -10 30 -10 17 0 30 5 30 10 0 6 -13 10 -30 10
-16 0 -30 -4 -30 -10z"/>
<path d="M1980 2550 c0 -5 11 -10 25 -10 14 0 25 5 25 10 0 6 -11 10 -25 10
-14 0 -25 -4 -25 -10z"/>
<path d="M365 2540 c-3 -5 -1 -10 4 -10 6 0 11 5 11 10 0 6 -2 10 -4 10 -3 0
-8 -4 -11 -10z"/>
<path d="M1318 2543 c7 -3 16 -2 19 1 4 3 -2 6 -13 5 -11 0 -14 -3 -6 -6z"/>
<path d="M1034 2523 c-3 -10 -12 -31 -21 -46 -8 -16 -13 -31 -10 -34 3 -2 11
5 17 17 9 18 14 19 27 9 11 -10 19 -10 34 -1 16 10 21 8 33 -16 9 -15 15 -20
16 -12 0 19 -42 100 -53 100 -5 0 -6 -8 -2 -19 4 -13 0 -20 -15 -24 -23 -6
-24 -3 -10 24 8 13 7 19 0 19 -6 0 -13 -8 -16 -17z"/>
<path d="M1428 2533 c6 -2 18 -2 25 0 6 3 1 5 -13 5 -14 0 -19 -2 -12 -5z"/>
<path d="M1668 2523 c7 -3 16 -2 19 1 4 3 -2 6 -13 5 -11 0 -14 -3 -6 -6z"/>
<path d="M1718 2518 c9 -9 15 -9 24 0 9 9 7 12 -12 12 -19 0 -21 -3 -12 -12z"/>
<path d="M1810 2520 c0 -5 9 -10 20 -10 11 0 20 5 20 10 0 6 -9 10 -20 10 -11
0 -20 -4 -20 -10z"/>
<path d="M2045 2520 c-4 -6 6 -10 22 -10 22 0 25 2 13 10 -19 12 -27 12 -35 0z"/>
<path d="M724 2511 c7 -11 56 -21 56 -11 0 4 -10 10 -22 14 -32 8 -40 7 -34
-3z"/>
<path d="M1480 2506 c0 -12 -48 -30 -77 -29 -7 0 -13 -3 -13 -7 0 -14 62 -23
185 -27 66 -2 139 -6 163 -9 24 -3 42 -2 42 4 0 17 -40 22 -175 23 -71 0 -139
5 -150 10 -14 6 -1 8 46 6 44 -2 70 2 78 10 14 15 8 18 -56 27 -33 5 -43 3
-43 -8z"/>
<path d="M1620 2506 c0 -10 8 -16 22 -16 12 0 19 1 17 3 -2 1 -12 9 -21 16
-15 12 -18 11 -18 -3z"/>
<path d="M1938 2513 c12 -2 30 -2 40 0 9 3 -1 5 -23 4 -22 0 -30 -2 -17 -4z"/>
<path d="M78 2503 c7 -3 16 -2 19 1 4 3 -2 6 -13 5 -11 0 -14 -3 -6 -6z"/>
<path d="M680 2491 c0 -11 59 -20 65 -10 3 3 -5 9 -18 13 -31 8 -47 7 -47 -3z"/>
<path d="M1305 2470 c3 -5 10 -10 16 -10 5 0 9 5 9 10 0 6 -7 10 -16 10 -8 0
-12 -4 -9 -10z"/>
<path d="M1758 2473 c7 -3 16 -2 19 1 4 3 -2 6 -13 5 -11 0 -14 -3 -6 -6z"/>
<path d="M1865 2470 c3 -5 10 -10 16 -10 5 0 9 5 9 10 0 6 -7 10 -16 10 -8 0
-12 -4 -9 -10z"/>
<path d="M755 2460 c3 -5 8 -10 11 -10 2 0 4 5 4 10 0 6 -5 10 -11 10 -5 0 -7
-4 -4 -10z"/>
<path d="M1958 2463 c7 -3 16 -2 19 1 4 3 -2 6 -13 5 -11 0 -14 -3 -6 -6z"/>
<path d="M2050 2460 c0 -5 11 -10 25 -10 14 0 25 5 25 10 0 6 -11 10 -25 10
-14 0 -25 -4 -25 -10z"/>
<path d="M680 2430 c0 -21 5 -30 16 -30 13 0 14 3 5 14 -6 7 -9 21 -5 30 3 9
1 16 -5 16 -6 0 -11 -13 -11 -30z"/>
<path d="M1077 2454 c-10 -10 -9 -76 2 -93 14 -22 29 -4 29 33 0 37 -18 72
-31 60z"/>
<path d="M630 2440 c20 -13 43 -13 35 0 -3 6 -16 10 -28 10 -18 0 -19 -2 -7
-10z"/>
<path d="M1027 2408 c-6 -47 -3 -58 19 -58 12 0 14 11 12 47 -4 60 -23 67 -31
11z"/>
<path d="M1338 2433 c7 -3 16 -2 19 1 4 3 -2 6 -13 5 -11 0 -14 -3 -6 -6z"/>
<path d="M990 2395 c0 -14 5 -25 10 -25 6 0 10 11 10 25 0 14 -4 25 -10 25 -5
0 -10 -11 -10 -25z"/>
<path d="M1523 2413 c9 -2 25 -2 35 0 9 3 1 5 -18 5 -19 0 -27 -2 -17 -5z"/>
<path d="M1620 2410 c0 -5 9 -10 21 -10 11 0 17 5 14 10 -3 6 -13 10 -21 10
-8 0 -14 -4 -14 -10z"/>
<path d="M1460 2400 c-8 -5 -10 -10 -5 -10 6 0 17 5 25 10 8 5 11 10 5 10 -5
0 -17 -5 -25 -10z"/>
<path d="M1738 2403 c7 -3 16 -2 19 1 4 3 -2 6 -13 5 -11 0 -14 -3 -6 -6z"/>
<path d="M1853 2403 c15 -2 39 -2 55 0 15 2 2 4 -28 4 -30 0 -43 -2 -27 -4z"/>
<path d="M1963 2403 c9 -2 23 -2 30 0 6 3 -1 5 -18 5 -16 0 -22 -2 -12 -5z"/>
<path d="M492 2388 c-22 -22 -7 -68 22 -68 5 0 1 9 -9 20 -15 16 -16 22 -5 35
17 20 43 0 35 -26 -4 -11 -2 -19 4 -19 6 0 11 10 11 23 0 24 -17 47 -35 47 -6
0 -16 -5 -23 -12z"/>
<path d="M1122 2370 c0 -19 2 -27 5 -17 2 9 2 25 0 35 -3 9 -5 1 -5 -18z"/>
<path d="M1340 2389 c0 -5 5 -7 10 -4 6 3 10 8 10 11 0 2 -4 4 -10 4 -5 0 -10
-5 -10 -11z"/>
<path d="M1416 2379 c6 -8 14 -26 18 -41 3 -16 11 -28 16 -28 5 0 6 -7 3 -17
-5 -12 -3 -14 8 -7 8 4 22 7 33 5 11 -1 16 2 12 8 -4 6 -16 11 -27 11 -10 0
-19 5 -19 10 0 6 10 10 23 10 18 0 19 2 7 10 -8 5 -23 7 -32 4 -11 -3 -17 2
-20 17 -2 12 -10 25 -18 27 -12 4 -13 2 -4 -9z"/>
<path d="M1503 2383 c9 -2 23 -2 30 0 6 3 -1 5 -18 5 -16 0 -22 -2 -12 -5z"/>
<path d="M1598 2373 c6 -2 18 -2 25 0 6 3 1 5 -13 5 -14 0 -19 -2 -12 -5z"/>
<path d="M1700 2370 c19 -12 60 -13 60 -2 0 5 -17 9 -37 10 -28 1 -34 -1 -23
-8z"/>
<path d="M1793 2363 c9 -2 25 -2 35 0 9 3 1 5 -18 5 -19 0 -27 -2 -17 -5z"/>
<path d="M1300 2353 c0 -6 9 -21 20 -34 15 -18 19 -20 20 -8 0 9 -9 24 -20 34
-11 10 -20 13 -20 8z"/>
<path d="M1950 2328 c0 -15 -5 -17 -27 -12 -22 4 -25 3 -13 -5 8 -6 25 -11 38
-11 12 0 22 -4 22 -9 0 -5 -10 -12 -22 -14 l-23 -4 23 -2 c12 0 25 6 28 14 4
10 21 15 48 16 22 1 31 4 19 6 -13 2 -23 10 -23 18 0 7 -15 15 -35 17 -29 3
-35 1 -35 -14z"/>
<path d="M2067 2343 c-11 -10 -8 -23 4 -23 7 0 18 -8 26 -17 13 -16 14 -16 9
-1 -4 12 -1 15 11 11 11 -4 14 -2 11 8 -3 8 -13 13 -23 11 -10 -2 -14 1 -10 7
7 12 -17 15 -28 4z"/>
<path d="M1553 2333 c9 -2 23 -2 30 0 6 3 -1 5 -18 5 -16 0 -22 -2 -12 -5z"/>
<path d="M1660 2330 c0 -5 7 -7 15 -4 8 4 15 8 15 10 0 2 -7 4 -15 4 -8 0 -15
-4 -15 -10z"/>
<path d="M1744 2333 c8 -8 27 -12 81 -17 22 -2 25 -1 7 1 -18 2 -30 8 -27 14
4 5 -10 9 -31 9 -21 0 -34 -3 -30 -7z"/>
<path d="M747 2310 c-3 -11 -1 -23 4 -26 5 -3 9 6 9 20 0 31 -6 34 -13 6z"/>
<path d="M1010 2318 c0 -11 98 -10 104 0 2 4 -20 8 -50 8 -30 -1 -54 -4 -54
-8z"/>
<path d="M148 2308 c-41 -9 -48 -14 -48 -34 0 -13 5 -24 10 -24 6 0 10 9 10
20 0 14 7 20 23 21 12 0 40 6 62 14 49 16 15 18 -57 3z"/>
<path d="M1621 2300 c-19 -8 -22 -13 -13 -22 19 -19 14 -25 -20 -26 -17 0 -34
-5 -37 -11 -3 -5 -19 -13 -34 -16 -36 -9 -46 -27 -13 -23 14 2 28 6 31 10 3 3
25 2 48 -3 58 -11 65 -10 44 5 -16 13 -15 14 17 18 19 2 32 0 30 -4 -3 -4 16
-8 43 -9 26 0 58 -2 71 -5 12 -2 22 0 22 5 0 5 -12 12 -27 14 -16 2 10 6 57 7
l85 4 -94 5 c-62 4 -96 10 -99 19 -3 9 16 12 70 13 l73 2 -50 9 c-84 15 -179
18 -204 8z"/>
<path d="M1553 2293 c9 -2 23 -2 30 0 6 3 -1 5 -18 5 -16 0 -22 -2 -12 -5z"/>
<path d="M1498 2263 c6 -2 18 -2 25 0 6 3 1 5 -13 5 -14 0 -19 -2 -12 -5z"/>
<path d="M140 2211 c0 -39 4 -51 16 -51 12 0 14 10 12 47 -4 66 -28 70 -28 4z"/>
<path d="M2062 2245 c-7 -8 -13 -18 -13 -22 -5 -30 -13 -34 -22 -12 l-10 24
-6 -25 c-7 -23 -7 -24 -15 -5 -7 19 -8 19 -18 2 -5 -10 -8 -21 -5 -23 9 -10
83 -12 122 -4 32 6 34 8 13 9 -28 1 -32 7 -30 49 1 26 1 26 -16 7z"/>
<path d="M108 2202 c7 -78 9 -82 50 -81 20 1 48 5 62 10 17 6 7 7 -32 3 l-58
-5 0 44 c0 25 -6 49 -13 55 -10 9 -12 3 -9 -26z"/>
<path d="M1458 2233 c7 -3 16 -2 19 1 4 3 -2 6 -13 5 -11 0 -14 -3 -6 -6z"/>
<path d="M2110 2231 c0 -6 5 -13 10 -16 6 -3 10 1 10 9 0 9 -4 16 -10 16 -5 0
-10 -4 -10 -9z"/>
<path d="M696 2220 c-27 -5 -49 -35 -39 -53 7 -13 23 3 23 24 0 35 56 20 71
-19 12 -31 19 -26 12 9 -6 32 -30 46 -67 39z"/>
<path d="M1854 2195 c11 -8 34 -15 50 -15 30 1 30 1 -9 15 -51 19 -65 18 -41
0z"/>
<path d="M1770 2190 c0 -5 9 -10 21 -10 11 0 17 5 14 10 -3 6 -13 10 -21 10
-8 0 -14 -4 -14 -10z"/>
<path d="M1693 2183 c9 -2 23 -2 30 0 6 3 -1 5 -18 5 -16 0 -22 -2 -12 -5z"/>
<path d="M690 2150 c0 -18 6 -33 15 -37 20 -7 25 -1 31 36 5 28 3 31 -20 31
-22 0 -26 -4 -26 -30z"/>
<path d="M515 2160 c28 -12 47 -12 40 0 -3 6 -18 10 -33 9 -24 0 -25 -1 -7 -9z"/>
<path d="M1293 2135 c-10 -11 -9 -13 7 -12 20 1 26 12 13 20 -5 3 -14 -1 -20
-8z"/>
<path d="M503 2133 c9 -2 23 -2 30 0 6 3 -1 5 -18 5 -16 0 -22 -2 -12 -5z"/>
<path d="M1260 2112 c0 -6 -13 -9 -30 -8 -24 2 -27 0 -17 -12 10 -13 8 -14
-13 -7 -23 7 -24 7 -10 -10 13 -17 13 -18 -2 -13 -21 8 -33 -19 -17 -38 17
-20 26 -17 33 11 3 13 22 35 42 49 21 14 31 27 25 31 -6 3 -11 2 -11 -3z"/>
<path d="M498 2103 c6 -2 18 -2 25 0 6 3 1 5 -13 5 -14 0 -19 -2 -12 -5z"/>
<path d="M86 2092 c-2 -4 11 -6 30 -4 19 2 34 6 34 8 0 8 -59 4 -64 -4z"/>
<path d="M68 2063 c6 -2 18 -2 25 0 6 3 1 5 -13 5 -14 0 -19 -2 -12 -5z"/>
<path d="M488 2053 c7 -3 16 -2 19 1 4 3 -2 6 -13 5 -11 0 -14 -3 -6 -6z"/>
<path d="M1110 2040 c0 -7 9 -24 21 -36 l20 -21 -25 4 c-15 3 -26 1 -26 -5 0
-6 -9 -8 -20 -5 -11 3 -20 1 -20 -5 0 -15 40 -19 78 -7 32 10 46 45 18 45 -8
0 -22 10 -30 22 -10 14 -16 17 -16 8z"/>
<path d="M360 2002 c0 -4 9 -8 20 -9 11 -1 20 2 20 8 0 5 -9 9 -20 9 -11 0
-20 -4 -20 -8z"/>
<path d="M558 1965 c-3 -27 -1 -32 9 -23 7 6 13 19 13 30 0 14 5 18 15 14 8
-3 15 -1 15 4 0 6 -11 10 -24 10 -20 0 -25 -6 -28 -35z"/>
<path d="M966 1971 c-18 -7 -18 -8 -2 -14 19 -8 36 -1 36 14 0 10 -7 11 -34 0z"/>
<path d="M158 1853 c-17 -4 -32 -32 -23 -41 3 -3 11 3 19 13 13 18 13 18 24
-1 6 -10 13 -16 16 -13 7 6 -4 49 -13 48 -3 -1 -13 -3 -23 -6z"/>
<path d="M1100 1843 c0 -12 20 -40 20 -28 0 6 4 4 9 -4 6 -9 11 -10 15 -2 4 6
3 11 -3 11 -5 0 -17 7 -25 16 -9 8 -16 12 -16 7z"/>
<path d="M295 1821 c-3 -5 -1 -12 4 -15 5 -3 11 1 15 9 6 16 -9 21 -19 6z"/>
<path d="M568 1823 c7 -3 16 -2 19 1 4 3 -2 6 -13 5 -11 0 -14 -3 -6 -6z"/>
<path d="M290 1780 c0 -6 7 -10 15 -10 8 0 15 2 15 4 0 2 -7 6 -15 10 -8 3
-15 1 -15 -4z"/>
<path d="M855 1780 c3 -5 8 -10 11 -10 2 0 4 5 4 10 0 6 -5 10 -11 10 -5 0 -7
-4 -4 -10z"/>
<path d="M1105 1760 c-3 -5 -1 -10 4 -10 6 0 11 5 11 10 0 6 -2 10 -4 10 -3 0
-8 -4 -11 -10z"/>
<path d="M300 1745 c0 -8 4 -15 10 -15 5 0 7 7 4 15 -4 8 -8 15 -10 15 -2 0
-4 -7 -4 -15z"/>
<path d="M1025 1700 c-3 -5 -1 -10 4 -10 6 0 11 5 11 10 0 6 -2 10 -4 10 -3 0
-8 -4 -11 -10z"/>
<path d="M402 2990 c0 -19 2 -27 5 -17 2 9 2 25 0 35 -3 9 -5 1 -5 -18z"/>
<path d="M440 2975 c0 -14 4 -25 9 -25 4 0 6 11 3 25 -2 14 -6 25 -8 25 -2 0
-4 -11 -4 -25z"/>
<path d="M800 2856 c0 -20 5 -36 10 -36 6 0 10 13 10 29 0 17 -4 33 -10 36 -6
4 -10 -8 -10 -29z"/>
<path d="M1633 2113 c15 -2 39 -2 55 0 15 2 2 4 -28 4 -30 0 -43 -2 -27 -4z"/>
<path d="M1480 2101 c0 -6 5 -13 10 -16 6 -3 10 1 10 9 0 9 -4 16 -10 16 -5 0
-10 -4 -10 -9z"/>
<path d="M1550 2090 c0 -6 30 -10 70 -10 40 0 70 4 70 10 0 6 -30 10 -70 10
-40 0 -70 -4 -70 -10z"/>
<path d="M1435 2080 c3 -5 8 -10 11 -10 2 0 4 5 4 10 0 6 -5 10 -11 10 -5 0
-7 -4 -4 -10z"/>
<path d="M1960 2064 c0 -8 5 -12 10 -9 6 3 10 10 10 16 0 5 -4 9 -10 9 -5 0
-10 -7 -10 -16z"/>
<path d="M2010 1960 l-45 -7 53 -1 c29 -1 52 2 52 8 0 6 -3 9 -7 8 -5 0 -28
-4 -53 -8z"/>
<path d="M1497 1954 c-14 -14 -7 -25 11 -16 9 5 44 8 77 7 78 -3 75 -3 75 -20
0 -8 5 -15 11 -15 6 0 9 10 7 23 -3 21 -8 22 -88 25 -47 1 -89 0 -93 -4z"/>
<path d="M2088 1953 c6 -2 18 -2 25 0 6 3 1 5 -13 5 -14 0 -19 -2 -12 -5z"/>
<path d="M1517 1923 c-4 -3 -7 -25 -7 -49 0 -34 4 -43 22 -47 32 -9 38 -1 38
54 0 45 -2 49 -23 49 -13 0 -27 -3 -30 -7z"/>
<path d="M1585 1918 c-2 -7 -3 -29 -2 -48 1 -24 7 -36 20 -38 28 -6 45 15 43
56 -1 33 -4 37 -29 40 -16 2 -29 -2 -32 -10z"/>
<path d="M2004 1886 c-9 -36 -1 -68 19 -80 22 -14 37 5 37 50 0 51 -44 76 -56
30z"/>
<path d="M2076 1893 c-3 -8 -6 -33 -6 -55 0 -35 2 -39 23 -36 19 3 22 10 25
49 3 39 0 47 -17 52 -12 3 -22 -1 -25 -10z"/>
<path d="M1970 1854 c0 -8 5 -12 10 -9 6 3 10 10 10 16 0 5 -4 9 -10 9 -5 0
-10 -7 -10 -16z"/>
<path d="M1535 1799 c56 -11 95 -11 95 1 0 6 -28 10 -67 9 -63 -1 -65 -2 -28
-10z"/>
<path d="M1990 1770 c20 -13 137 -13 145 0 4 6 -24 10 -77 10 -57 0 -78 -3
-68 -10z"/>
<path d="M1511 1724 c0 -11 3 -14 6 -6 3 7 2 16 -1 19 -3 4 -6 -2 -5 -13z"/>
<path d="M2053 1582 c-25 -27 -30 -52 -12 -52 6 0 8 7 5 17 -6 15 -4 15 14 -2
11 -10 23 -15 27 -12 3 4 2 7 -4 7 -19 0 -24 32 -7 45 10 6 13 14 8 17 -5 3
-19 -6 -31 -20z"/>
<path d="M2015 1510 c-3 -5 -1 -10 4 -10 6 0 11 5 11 10 0 6 -2 10 -4 10 -3 0
-8 -4 -11 -10z"/>
<path d="M2046 1505 c-3 -9 -6 -22 -5 -28 0 -7 5 -1 10 12 5 13 8 26 5 28 -2
2 -6 -3 -10 -12z"/>
<path d="M1940 1481 c0 -11 39 -26 47 -17 8 8 3 12 -24 20 -13 4 -23 3 -23 -3z"/>
<path d="M2065 1480 c-8 -13 -1 -24 14 -19 6 3 7 10 2 18 -6 10 -10 10 -16 1z"/>
<path d="M1940 1450 c0 -5 5 -10 11 -10 5 0 7 5 4 10 -3 6 -8 10 -11 10 -2 0
-4 -4 -4 -10z"/>
<path d="M1310 2004 c0 -8 5 -12 10 -9 6 3 10 10 10 16 0 5 -4 9 -10 9 -5 0
-10 -7 -10 -16z"/>
<path d="M1336 1864 c-13 -33 51 -73 69 -43 4 5 4 21 1 35 -5 18 -13 24 -35
24 -18 0 -31 -6 -35 -16z m53 -3 c8 -5 11 -16 8 -25 -5 -14 -11 -15 -27 -6
-21 11 -25 22 -13 33 8 9 15 9 32 -2z"/>
<path d="M370 1660 c8 -5 20 -10 25 -10 6 0 3 5 -5 10 -8 5 -19 10 -25 10 -5
0 -3 -5 5 -10z"/>
<path d="M358 1623 c7 -3 16 -2 19 1 4 3 -2 6 -13 5 -11 0 -14 -3 -6 -6z"/>
<path d="M510 1610 c-13 -8 -13 -10 2 -10 9 0 20 5 23 10 8 13 -5 13 -25 0z"/>
<path d="M1765 1689 c-4 -6 -3 -15 3 -21 6 -6 11 -4 15 6 7 18 -9 31 -18 15z"/>
<path d="M1593 1554 c-47 -23 -41 -35 8 -16 32 12 45 13 60 4 15 -10 19 -9 19
2 0 28 -40 33 -87 10z"/>
<path d="M1720 1480 c0 -11 14 -11 50 0 22 7 21 8 -12 9 -21 1 -38 -3 -38 -9z"/>
<path d="M1734 1415 c-36 -19 -58 -24 -84 -20 -33 5 -34 4 -16 -10 28 -22 57
-19 96 10 19 14 41 25 49 25 9 0 23 5 31 10 34 22 -28 9 -76 -15z"/>
<path d="M1620 1315 c0 -8 5 -15 10 -15 6 0 10 7 10 15 0 8 -4 15 -10 15 -5 0
-10 -7 -10 -15z"/>
<path d="M1660 1311 c0 -6 5 -13 10 -16 6 -3 10 1 10 9 0 9 -4 16 -10 16 -5 0
-10 -4 -10 -9z"/>
<path d="M1630 1269 c0 -5 5 -7 10 -4 6 3 10 8 10 11 0 2 -4 4 -10 4 -5 0 -10
-5 -10 -11z"/>
<path d="M1666 1271 c-4 -7 -5 -15 -2 -18 9 -9 19 4 14 18 -4 11 -6 11 -12 0z"/>
<path d="M1616 1231 c-4 -7 -5 -15 -2 -18 9 -9 19 4 14 18 -4 11 -6 11 -12 0z"/>
<path d="M1596 1191 c-4 -7 -5 -15 -2 -18 9 -9 19 4 14 18 -4 11 -6 11 -12 0z"/>
<path d="M1841 1154 c0 -11 3 -14 6 -6 3 7 2 16 -1 19 -3 4 -6 -2 -5 -13z"/>
<path d="M1565 1150 c-3 -5 -1 -10 4 -10 6 0 11 5 11 10 0 6 -2 10 -4 10 -3 0
-8 -4 -11 -10z"/>
<path d="M1820 1130 c0 -5 5 -10 11 -10 5 0 7 5 4 10 -3 6 -8 10 -11 10 -2 0
-4 -4 -4 -10z"/>
<path d="M1544 1105 c-7 -16 23 -51 34 -40 4 3 -1 11 -10 16 -10 5 -15 16 -12
24 4 8 3 15 0 15 -4 0 -9 -7 -12 -15z"/>
<path d="M1790 1090 c0 -5 5 -10 11 -10 5 0 7 5 4 10 -3 6 -8 10 -11 10 -2 0
-4 -4 -4 -10z"/>
<path d="M1730 1074 c0 -8 5 -12 10 -9 6 3 10 10 10 16 0 5 -4 9 -10 9 -5 0
-10 -7 -10 -16z"/>
<path d="M1760 1076 c0 -9 5 -16 10 -16 6 0 10 4 10 9 0 6 -4 13 -10 16 -5 3
-10 -1 -10 -9z"/>
<path d="M1800 1035 c0 -8 4 -15 10 -15 5 0 7 7 4 15 -4 8 -8 15 -10 15 -2 0
-4 -7 -4 -15z"/>
<path d="M1741 1024 c0 -11 3 -14 6 -6 3 7 2 16 -1 19 -3 4 -6 -2 -5 -13z"/>
<path d="M1770 1020 c0 -5 5 -10 10 -10 6 0 10 5 10 10 0 6 -4 10 -10 10 -5 0
-10 -4 -10 -10z"/>
<path d="M1700 1010 c0 -5 5 -10 10 -10 6 0 10 5 10 10 0 6 -4 10 -10 10 -5 0
-10 -4 -10 -10z"/>
<path d="M1830 990 c0 -5 5 -10 10 -10 6 0 10 5 10 10 0 6 -4 10 -10 10 -5 0
-10 -4 -10 -10z"/>
<path d="M1580 980 c0 -5 5 -10 12 -10 6 0 20 -7 30 -17 15 -14 18 -14 18 -1
0 8 -11 20 -25 26 -32 15 -35 15 -35 2z"/>
<path d="M1730 980 c0 -5 5 -10 10 -10 6 0 10 5 10 10 0 6 -4 10 -10 10 -5 0
-10 -4 -10 -10z"/>
<path d="M1786 981 c-3 -5 1 -14 9 -21 12 -10 15 -10 15 3 0 19 -16 31 -24 18z"/>
<path d="M1665 970 c3 -5 8 -10 11 -10 2 0 4 5 4 10 0 6 -5 10 -11 10 -5 0 -7
-4 -4 -10z"/>
<path d="M1830 951 c0 -6 5 -13 10 -16 6 -3 10 1 10 9 0 9 -4 16 -10 16 -5 0
-10 -4 -10 -9z"/>
<path d="M1580 930 c0 -5 5 -10 10 -10 6 0 10 5 10 10 0 6 -4 10 -10 10 -5 0
-10 -4 -10 -10z"/>
<path d="M1665 930 c3 -5 8 -10 11 -10 2 0 4 5 4 10 0 6 -5 10 -11 10 -5 0 -7
-4 -4 -10z"/>
<path d="M1620 920 c0 -5 5 -10 11 -10 5 0 7 5 4 10 -3 6 -8 10 -11 10 -2 0
-4 -4 -4 -10z"/>
<path d="M1775 920 c3 -5 8 -10 11 -10 2 0 4 5 4 10 0 6 -5 10 -11 10 -5 0 -7
-4 -4 -10z"/>
<path d="M1740 909 c0 -5 5 -7 10 -4 6 3 10 8 10 11 0 2 -4 4 -10 4 -5 0 -10
-5 -10 -11z"/>
<path d="M1653 893 c3 -13 1 -23 -4 -23 -5 0 -9 -4 -9 -10 0 -18 19 -10 25 11
4 12 2 26 -5 33 -10 8 -12 6 -7 -11z"/>
<path d="M1815 900 c3 -5 8 -10 11 -10 2 0 4 5 4 10 0 6 -5 10 -11 10 -5 0 -7
-4 -4 -10z"/>
<path d="M1550 890 c0 -5 5 -10 10 -10 6 0 10 5 10 10 0 6 -4 10 -10 10 -5 0
-10 -4 -10 -10z"/>
<path d="M1700 889 c0 -5 5 -7 10 -4 6 3 10 8 10 11 0 2 -4 4 -10 4 -5 0 -10
-5 -10 -11z"/>
<path d="M1790 880 c0 -5 5 -10 10 -10 6 0 10 5 10 10 0 6 -4 10 -10 10 -5 0
-10 -4 -10 -10z"/>
<path d="M1600 870 c0 -5 5 -10 10 -10 6 0 10 5 10 10 0 6 -4 10 -10 10 -5 0
-10 -4 -10 -10z"/>
<path d="M1810 850 c0 -5 5 -10 11 -10 5 0 7 5 4 10 -3 6 -8 10 -11 10 -2 0
-4 -4 -4 -10z"/>
<path d="M1570 838 c0 -6 3 -8 7 -5 3 4 12 -1 19 -11 12 -15 13 -15 14 -1 0 9
-7 20 -16 23 -22 8 -24 8 -24 -6z"/>
<path d="M890 1561 c0 -12 21 -27 48 -35 35 -11 26 8 -13 27 -19 9 -35 13 -35
8z"/>
<path d="M730 1540 c-12 -8 -12 -10 5 -11 l20 0 -20 -9 c-19 -8 -19 -9 3 -9
16 -1 22 5 22 19 0 22 -7 25 -30 10z"/>
<path d="M998 1543 c7 -3 16 -2 19 1 4 3 -2 6 -13 5 -11 0 -14 -3 -6 -6z"/>
<path d="M805 1480 c3 -5 15 -10 26 -10 11 0 17 5 14 10 -3 6 -15 10 -26 10
-11 0 -17 -4 -14 -10z"/>
<path d="M815 1450 c3 -5 17 -10 31 -10 14 0 22 4 19 10 -3 6 -17 10 -31 10
-14 0 -22 -4 -19 -10z"/>
<path d="M1196 1364 c-8 -22 -7 -34 3 -34 5 0 11 11 13 25 6 28 -6 34 -16 9z"/>
<path d="M1445 1230 c-3 -5 -1 -10 4 -10 6 0 11 5 11 10 0 6 -2 10 -4 10 -3 0
-8 -4 -11 -10z"/>
<path d="M1260 1210 c0 -5 10 -10 23 -10 18 0 19 2 7 10 -19 13 -30 13 -30 0z"/>
<path d="M794 1195 c-10 -8 -14 -15 -8 -15 5 0 19 7 30 15 10 8 14 15 8 15 -5
0 -19 -7 -30 -15z"/>
<path d="M803 1166 c-13 -6 -23 -14 -23 -19 0 -6 55 17 69 29 9 8 -25 1 -46
-10z"/>
<path d="M818 1144 c-16 -8 -28 -17 -28 -19 0 -11 19 -4 41 15 29 23 24 25
-13 4z"/>
<path d="M1238 1133 c7 -3 16 -2 19 1 4 3 -2 6 -13 5 -11 0 -14 -3 -6 -6z"/>
<path d="M1100 1070 c0 -5 5 -10 11 -10 5 0 7 5 4 10 -3 6 -8 10 -11 10 -2 0
-4 -4 -4 -10z"/>
<path d="M1204 1071 c8 -12 46 -21 46 -11 0 8 -24 20 -41 20 -6 0 -8 -4 -5 -9z"/>
<path d="M1363 1020 c-28 -10 -54 -16 -57 -12 -3 3 -6 0 -6 -6 0 -7 4 -12 8
-12 15 0 107 33 117 41 13 13 -3 10 -62 -11z"/>
<path d="M997 668 c2 -5 31 -8 64 -8 32 0 59 3 59 8 0 4 -29 7 -64 7 -35 0
-62 -3 -59 -7z"/>
<path d="M1058 633 c6 -2 18 -2 25 0 6 3 1 5 -13 5 -14 0 -19 -2 -12 -5z"/>
<path d="M1083 544 c10 -11 58 -13 51 -3 -3 5 -17 9 -31 9 -15 0 -23 -3 -20
-6z"/>
<path d="M1088 513 c12 -2 30 -2 40 0 9 3 -1 5 -23 4 -22 0 -30 -2 -17 -4z"/>
<path d="M975 360 c22 -5 54 -9 71 -9 18 -1 45 -8 60 -16 33 -17 104 -20 104
-5 0 6 -20 10 -44 10 -25 0 -46 5 -48 12 -3 7 -36 12 -94 14 -71 3 -81 1 -49
-6z"/>
<path d="M904 322 c3 -6 20 -13 36 -17 17 -4 30 -12 30 -20 0 -7 9 -15 20 -18
11 -3 20 -10 20 -16 0 -13 -49 -14 -69 -2 -17 11 -56 -22 -46 -39 5 -8 10 -7
18 4 7 9 32 16 62 18 39 2 51 7 53 21 3 12 -4 20 -17 24 -12 3 -21 11 -21 18
0 7 -12 16 -27 19 -16 4 -36 9 -47 13 -11 3 -16 1 -12 -5z"/>
<path d="M928 283 c7 -3 16 -2 19 1 4 3 -2 6 -13 5 -11 0 -14 -3 -6 -6z"/>
<path d="M900 170 c0 -5 5 -10 10 -10 6 0 10 5 10 10 0 6 -4 10 -10 10 -5 0
-10 -4 -10 -10z"/>
<path d="M964 165 c-6 -16 2 -35 16 -35 4 0 6 10 2 22 -3 14 -2 19 6 14 7 -4
12 -14 12 -22 0 -15 -1 -15 50 -19 19 -2 27 -1 18 2 -10 2 -18 9 -18 15 0 5
-6 8 -14 5 -8 -3 -16 2 -19 14 -6 22 -45 26 -53 4z"/>
<path d="M1185 146 c-47 -12 -48 -13 -22 -20 15 -5 27 -12 27 -17 0 -5 8 -9
18 -9 16 1 16 1 0 14 -25 18 -22 26 7 26 14 0 25 5 25 10 0 6 -1 10 -2 9 -2 0
-25 -7 -53 -13z"/>
<path d="M1055 80 c-4 -6 7 -10 27 -9 27 0 30 2 13 9 -27 12 -33 12 -40 0z"/>
<path d="M1133 63 c9 -2 23 -2 30 0 6 3 -1 5 -18 5 -16 0 -22 -2 -12 -5z"/>
<path d="M1375 1520 c-3 -5 -1 -10 4 -10 6 0 11 5 11 10 0 6 -2 10 -4 10 -3 0
-8 -4 -11 -10z"/>
<path d="M260 830 c0 -5 5 -10 10 -10 6 0 10 5 10 10 0 6 -4 10 -10 10 -5 0
-10 -4 -10 -10z"/>
<path d="M1790 1359 c0 -5 5 -7 10 -4 6 3 10 8 10 11 0 2 -4 4 -10 4 -5 0 -10
-5 -10 -11z"/>
<path d="M1820 1360 c0 -5 5 -10 10 -10 6 0 10 5 10 10 0 6 -4 10 -10 10 -5 0
-10 -4 -10 -10z"/>
<path d="M1805 1250 c3 -5 8 -10 11 -10 2 0 4 5 4 10 0 6 -5 10 -11 10 -5 0
-7 -4 -4 -10z"/>
<path d="M2110 1299 c0 -5 5 -7 10 -4 6 3 10 8 10 11 0 2 -4 4 -10 4 -5 0 -10
-5 -10 -11z"/>
<path d="M2125 1220 c3 -5 8 -10 11 -10 2 0 4 5 4 10 0 6 -5 10 -11 10 -5 0
-7 -4 -4 -10z"/>
<path d="M2075 990 c-3 -5 -1 -10 4 -10 6 0 11 5 11 10 0 6 -2 10 -4 10 -3 0
-8 -4 -11 -10z"/>
<path d="M2110 880 c0 -5 5 -10 11 -10 5 0 7 5 4 10 -3 6 -8 10 -11 10 -2 0
-4 -4 -4 -10z"/>
<path d="M2070 800 c0 -5 7 -10 15 -10 8 0 15 5 15 10 0 6 -7 10 -15 10 -8 0
-15 -4 -15 -10z"/>
<path d="M2008 793 c7 -3 16 -2 19 1 4 3 -2 6 -13 5 -11 0 -14 -3 -6 -6z"/>
<path d="M2110 760 l-25 -8 28 -1 c15 -1 27 4 27 9 0 6 -1 10 -2 9 -2 -1 -14
-5 -28 -9z"/>
<path d="M2018 743 c6 -2 18 -2 25 0 6 3 1 5 -13 5 -14 0 -19 -2 -12 -5z"/>
<path d="M1889 707 c-22 -17 -7 -57 21 -57 24 0 37 26 23 48 -13 21 -25 24
-44 9z m31 -27 c0 -13 -5 -18 -15 -14 -16 7 -19 17 -8 27 12 13 23 7 23 -13z"/>
<path d="M2115 650 c27 -12 35 -12 35 0 0 6 -12 10 -27 9 -25 0 -26 -1 -8 -9z"/>
<path d="M2108 613 c6 -2 18 -2 25 0 6 3 1 5 -13 5 -14 0 -19 -2 -12 -5z"/>
<path d="M378 1245 c2 -14 6 -25 8 -25 2 0 4 11 4 25 0 14 -4 25 -9 25 -4 0
-6 -11 -3 -25z"/>
<path d="M1940 920 c0 -5 5 -10 11 -10 5 0 7 5 4 10 -3 6 -8 10 -11 10 -2 0
-4 -4 -4 -10z"/>
<path d="M341 905 c1 -11 5 -33 9 -50 l8 -30 1 35 c0 19 -4 42 -9 50 -8 12
-10 11 -9 -5z"/>
<path d="M372 825 c-1 -17 -7 -36 -14 -43 -9 -9 -4 -12 23 -11 18 1 26 3 17 6
-11 3 -18 17 -21 41 -3 33 -4 34 -5 7z"/>
<path d="M333 823 c2 -12 6 -26 10 -29 11 -11 8 19 -3 36 -8 12 -9 10 -7 -7z"/>
<path d="M402 820 c0 -14 2 -19 5 -12 2 6 2 18 0 25 -3 6 -5 1 -5 -13z"/>
<path d="M422 815 c0 -16 2 -22 5 -12 2 9 2 23 0 30 -3 6 -5 -1 -5 -18z"/>
<path d="M452 810 c0 -14 2 -19 5 -12 2 6 2 18 0 25 -3 6 -5 1 -5 -13z"/>
<path d="M470 448 c0 -4 33 -8 73 -7 84 1 79 6 -10 11 -35 3 -63 1 -63 -4z"/>
<path d="M455 340 c-13 -14 -14 -20 -5 -20 7 0 21 -6 29 -14 18 -16 171 -29
171 -15 0 8 -80 15 -117 10 -17 -2 -53 18 -53 29 0 6 9 10 20 10 11 0 20 5 20
10 0 18 -46 11 -65 -10z"/>
<path d="M629 254 c30 -8 56 -12 59 -9 8 8 -48 25 -81 24 -27 0 -23 -3 22 -15z"/>
<path d="M670 216 c0 -2 7 -6 15 -10 8 -3 15 -1 15 4 0 6 -7 10 -15 10 -8 0
-15 -2 -15 -4z"/>
<path d="M485 170 c-24 -6 -19 -8 29 -9 33 0 56 2 52 6 -10 10 -47 12 -81 3z"/>
<path d="M641 164 c-1 -7 -36 -15 -88 -20 -59 -5 -79 -9 -59 -13 31 -7 201 0
174 6 -9 2 -19 12 -21 21 -3 9 -5 12 -6 6z"/>
<path d="M1720 790 c0 -5 7 -10 16 -10 8 0 12 5 9 10 -3 6 -10 10 -16 10 -5 0
-9 -4 -9 -10z"/>
<path d="M1653 773 c9 -2 23 -2 30 0 6 3 -1 5 -18 5 -16 0 -22 -2 -12 -5z"/>
<path d="M1733 763 c9 -2 23 -2 30 0 6 3 -1 5 -18 5 -16 0 -22 -2 -12 -5z"/>
<path d="M1653 743 c9 -2 23 -2 30 0 6 3 -1 5 -18 5 -16 0 -22 -2 -12 -5z"/>
<path d="M1728 733 c7 -3 16 -2 19 1 4 3 -2 6 -13 5 -11 0 -14 -3 -6 -6z"/>
<path d="M1655 720 c-3 -5 1 -10 9 -10 9 0 16 5 16 10 0 6 -4 10 -9 10 -6 0
-13 -4 -16 -10z"/>
<path d="M135 710 c3 -5 11 -10 16 -10 6 0 7 5 4 10 -3 6 -11 10 -16 10 -6 0
-7 -4 -4 -10z"/>
<path d="M128 473 c7 -3 16 -2 19 1 4 3 -2 6 -13 5 -11 0 -14 -3 -6 -6z"/>
<path d="M100 434 c38 -8 90 -9 90 -2 0 4 -24 7 -52 7 -29 -1 -46 -3 -38 -5z"/>
<path d="M78 333 c7 -3 16 -2 19 1 4 3 -2 6 -13 5 -11 0 -14 -3 -6 -6z"/>
<path d="M123 303 c9 -2 23 -2 30 0 6 3 -1 5 -18 5 -16 0 -22 -2 -12 -5z"/>
<path d="M108 253 c23 -2 59 -2 80 0 20 2 1 4 -43 4 -44 0 -61 -2 -37 -4z"/>
<path d="M1398 483 c7 -3 16 -2 19 1 4 3 -2 6 -13 5 -11 0 -14 -3 -6 -6z"/>
<path d="M1513 423 c15 -2 37 -2 50 0 12 2 0 4 -28 4 -27 0 -38 -2 -22 -4z"/>
<path d="M1531 405 c9 -9 214 -13 234 -5 12 5 -29 9 -109 9 -71 1 -127 -1
-125 -4z"/>
<path d="M1515 160 c-46 -6 -44 -7 29 -8 44 -1 77 0 75 2 -11 9 -59 12 -104 6z"/>
<path d="M1548 123 c34 -2 88 -2 120 0 31 2 3 3 -63 3 -66 0 -92 -1 -57 -3z"/>
<path d="M1508 93 c7 -3 16 -2 19 1 4 3 -2 6 -13 5 -11 0 -14 -3 -6 -6z"/>
<path d="M1648 93 c29 -2 74 -2 100 0 26 2 2 3 -53 3 -55 0 -76 -1 -47 -3z"/>
<path d="M2118 543 c6 -2 18 -2 25 0 6 3 1 5 -13 5 -14 0 -19 -2 -12 -5z"/>
<path d="M1888 523 c7 -3 16 -2 19 1 4 3 -2 6 -13 5 -11 0 -14 -3 -6 -6z"/>
<path d="M2100 459 c0 -5 5 -7 10 -4 6 3 10 8 10 11 0 2 -4 4 -10 4 -5 0 -10
-5 -10 -11z"/>
<path d="M1953 443 c9 -2 23 -2 30 0 6 3 -1 5 -18 5 -16 0 -22 -2 -12 -5z"/>
<path d="M2090 426 c0 -8 51 -13 56 -5 3 5 -9 9 -25 9 -17 0 -31 -2 -31 -4z"/>
<path d="M328 522 c6 -2 9 -9 5 -14 -4 -7 2 -9 15 -6 12 4 20 2 16 -3 -6 -10
18 -10 61 1 l30 8 -28 1 c-16 0 -26 5 -23 9 3 5 -16 9 -42 9 -26 0 -41 -2 -34
-5z"/>
<path d="M373 463 c9 -2 25 -2 35 0 9 3 1 5 -18 5 -19 0 -27 -2 -17 -5z"/>
<path d="M375 430 c-3 -5 -2 -10 4 -10 5 0 13 5 16 10 3 6 2 10 -4 10 -5 0
-13 -4 -16 -10z"/>
<path d="M295 400 c3 -5 11 -10 16 -10 6 0 7 5 4 10 -3 6 -11 10 -16 10 -6 0
-7 -4 -4 -10z"/>
<path d="M815 70 c-4 -7 3 -8 22 -4 38 9 42 14 10 14 -14 0 -29 -5 -32 -10z"/>
<path d="M1378 183 c6 -2 18 -2 25 0 6 3 1 5 -13 5 -14 0 -19 -2 -12 -5z"/>
<path d="M1388 143 c6 -2 18 -2 25 0 6 3 1 5 -13 5 -14 0 -19 -2 -12 -5z"/>
<path d="M1388 88 c6 -6 18 -8 28 -6 14 3 12 5 -9 10 -19 3 -25 2 -19 -4z"/>
<path d="M1413 63 c9 -2 23 -2 30 0 6 3 -1 5 -18 5 -16 0 -22 -2 -12 -5z"/>
<path d="M2080 210 c0 -5 5 -10 10 -10 6 0 10 5 10 10 0 6 -4 10 -10 10 -5 0
-10 -4 -10 -10z"/>
<path d="M2080 100 c20 -5 39 -5 45 1 5 5 -8 9 -35 8 l-45 -1 35 -8z"/>
<path d="M1940 150 c20 -13 33 -13 25 0 -3 6 -14 10 -23 10 -15 0 -15 -2 -2
-10z"/>
<path d="M1938 113 c7 -3 16 -2 19 1 4 3 -2 6 -13 5 -11 0 -14 -3 -6 -6z"/>
</g>
</svg>
