<?xml version="1.0" standalone="no"?>
<!DOCTYPE svg PUBLIC "-//W3C//DTD SVG 20010904//EN"
 "http://www.w3.org/TR/2001/REC-SVG-20010904/DTD/svg10.dtd">
<svg version="1.0" xmlns="http://www.w3.org/2000/svg"
 width="219.000000pt" height="379.000000pt" viewBox="0 0 219.000000 379.000000"
 preserveAspectRatio="xMidYMid meet">
<metadata>
Created by potrace 1.16, written by Peter Selinger 2001-2019
</metadata>
<g transform="translate(0.000000,379.000000) scale(0.100000,-0.100000)"
fill="#000000" stroke="none">
<path d="M15 1903 c4 -1263 10 -1890 16 -1894 6 -3 492 -7 1080 -8 l1069 -2
-3 1884 c-2 1036 -7 1889 -11 1895 -5 9 -273 12 -1082 12 l-1075 0 6 -1887z
m2135 1477 c3 -217 4 -396 4 -398 -1 -2 -18 13 -37 33 -34 35 -37 36 -73 26
-33 -9 -39 -8 -52 10 -11 16 -21 20 -47 15 l-32 -6 -22 92 c-16 63 -20 93 -12
96 15 5 14 55 -1 70 -8 8 6 45 60 151 40 77 72 151 72 165 0 52 -70 74 -242
80 -43 1 -81 5 -84 9 -14 13 -34 7 -34 -10 0 -14 2 -15 9 -5 11 18 26 -2 36
-45 3 -18 10 -35 15 -38 14 -8 35 4 45 27 25 55 66 45 80 -19 5 -27 3 -33 -10
-33 -12 0 -15 6 -10 19 4 14 0 21 -14 26 -14 4 -18 12 -14 23 3 9 2 14 -2 9
-8 -7 -12 -28 -14 -69 -1 -19 -34 -24 -79 -11 -18 4 -23 11 -19 29 2 13 0 24
-4 24 -5 0 -9 8 -9 18 0 21 -36 40 -62 35 -17 -4 -38 -51 -38 -85 0 -11 -3
-17 -7 -15 -5 3 -6 -16 -4 -41 6 -74 -30 -217 -53 -209 -6 2 -15 -5 -21 -16
-14 -29 -35 -33 -35 -7 0 28 18 60 33 60 14 0 34 42 41 85 2 17 5 30 6 30 1 0
2 25 3 57 3 82 -9 62 -16 -27 -6 -76 -20 -113 -59 -145 -18 -15 -28 -76 -15
-97 4 -7 -1 -14 -13 -18 -11 -3 -20 -11 -20 -16 0 -6 4 -8 9 -5 5 4 12 0 14
-6 3 -8 6 -6 6 4 1 10 17 26 38 35 20 10 40 25 44 33 44 87 56 138 59 245 1
38 1 39 16 20 19 -25 124 -240 124 -254 0 -6 -4 -11 -10 -11 -18 0 -11 -39 11
-61 25 -25 22 -54 -12 -159 -22 -69 -38 -94 -46 -72 -7 18 -113 11 -113 -8 0
-4 15 -4 33 0 35 7 87 -6 87 -23 0 -11 -50 -80 -62 -85 -31 -13 18 -42 112
-66 36 -9 74 -19 85 -22 14 -4 17 -3 10 4 -5 6 -47 20 -93 32 -45 12 -84 26
-87 30 -3 5 5 21 18 37 26 30 101 217 112 277 4 20 13 36 20 36 9 0 14 -45 18
-172 3 -95 10 -186 15 -203 5 -19 7 46 4 173 -5 201 -5 202 17 202 23 0 28
-19 9 -38 -9 -9 -8 -12 8 -12 16 -1 16 -3 -6 -15 l-25 -14 25 -1 c23 0 29 -8
50 -71 14 -39 28 -73 32 -76 5 -2 8 -13 8 -24 0 -13 -7 -19 -22 -20 -22 0 -22
-1 -3 -9 14 -6 16 -9 5 -10 -8 -2 -1 -6 15 -9 l30 -8 -44 -12 c-55 -16 -49
-23 8 -10 24 5 46 8 48 5 12 -12 -11 -25 -57 -31 -28 -4 -50 -11 -50 -17 0 -5
5 -6 10 -3 6 3 10 -1 10 -9 0 -10 -10 -16 -27 -17 -20 -1 -23 -3 -9 -6 11 -3
49 3 85 13 63 16 89 32 72 44 -5 3 -21 29 -36 59 -24 46 -27 56 -16 74 11 17
11 19 -3 14 -9 -4 -16 -2 -16 2 0 5 7 12 16 15 18 7 44 -10 44 -29 0 -8 14
-11 49 -7 43 4 53 1 75 -21 32 -33 35 -59 3 -29 -29 28 -87 46 -101 32 -7 -7
-2 -10 12 -10 37 0 80 -28 98 -63 9 -17 22 -35 28 -39 11 -7 2 -12 -47 -22
-15 -4 -37 -16 -48 -27 -15 -15 -28 -19 -48 -14 -39 8 -78 -9 -126 -58 -48
-48 -65 -76 -65 -107 0 -11 -7 -23 -15 -26 -8 -3 -17 -14 -20 -25 -5 -14 -16
-19 -43 -19 -82 0 -145 -36 -157 -90 -5 -21 -13 -29 -36 -32 -16 -3 -32 -1
-34 3 -10 16 -81 19 -120 6 -28 -9 -44 -23 -55 -45 -28 -60 -53 -54 -74 18
-13 44 -13 54 0 85 15 37 40 55 75 55 19 0 21 4 16 35 -7 46 24 88 62 83 34
-3 82 29 62 41 -8 6 -16 31 -18 63 -3 42 1 61 19 92 30 52 69 79 113 80 19 1
35 4 35 9 0 22 -94 -4 -128 -35 -57 -54 -79 -149 -46 -196 9 -13 14 -26 11
-29 -8 -8 -47 58 -47 79 0 50 28 115 66 155 22 24 35 43 28 43 -7 0 -16 -5
-19 -10 -8 -12 -46 -3 -57 14 -10 15 -9 -4 2 -29 5 -11 9 -14 9 -7 1 7 6 10
12 7 7 -5 5 -13 -5 -24 -48 -53 -61 -169 -25 -215 l20 -26 -31 0 c-42 0 -80
-41 -80 -86 0 -28 -4 -34 -20 -34 -12 0 -32 -11 -46 -25 -14 -14 -27 -25 -29
-25 -11 0 -3 46 10 64 10 13 11 24 4 37 -7 14 -3 36 17 86 38 97 63 154 79
185 21 38 19 73 -7 90 -20 14 -19 15 32 37 29 13 63 21 75 19 18 -4 21 -1 17
14 -3 13 1 18 17 18 14 0 20 -4 15 -12 -5 -7 -2 -9 9 -5 9 3 18 0 21 -9 3 -8
2 -13 -3 -10 -5 3 -11 -1 -15 -9 -3 -9 0 -15 10 -15 35 0 22 70 -14 70 -9 0
-26 7 -36 15 -11 8 -24 15 -30 15 -5 0 -1 -6 9 -14 18 -13 15 -16 -42 -45 -82
-41 -199 -73 -240 -65 -48 9 -51 24 -4 24 22 0 64 5 93 11 58 13 164 56 156
64 -3 3 -27 -4 -54 -16 -54 -23 -209 -53 -231 -45 -8 3 -11 1 -8 -4 4 -6 -9
-10 -32 -10 -27 0 -34 3 -23 10 12 7 11 10 -5 16 -11 4 -40 16 -65 26 -25 11
-60 26 -77 34 -18 8 -33 10 -33 5 0 -5 11 -12 25 -15 13 -3 33 -16 44 -27 11
-12 24 -18 30 -15 6 4 23 0 38 -9 27 -16 21 -15 -22 1 -15 5 -17 4 -9 -5 5 -6
33 -17 62 -23 29 -7 52 -16 52 -20 0 -13 -105 4 -135 23 -16 10 -54 30 -82 44
-29 14 -53 29 -53 34 0 5 22 25 49 44 50 36 164 183 182 236 7 21 21 33 44 41
43 14 71 -2 86 -50 20 -62 50 -112 95 -160 24 -26 41 -50 37 -53 -3 -4 4 -7
17 -7 20 0 16 8 -36 63 -44 45 -66 79 -83 125 -46 124 -131 137 -182 28 -42
-90 -126 -189 -202 -238 -46 -30 -48 -32 -27 -40 22 -8 22 -9 5 -28 -10 -11
-26 -18 -36 -17 -30 5 -35 17 -6 17 14 0 28 4 31 9 4 5 -4 7 -16 3 -15 -4 -19
-2 -13 7 5 9 2 12 -11 9 -18 -3 -43 -62 -31 -74 9 -10 75 16 81 31 9 24 57 17
111 -15 28 -16 46 -30 40 -31 -5 0 -1 -4 10 -9 20 -9 20 -9 0 -9 -12 -1 -27
-7 -35 -13 -12 -11 -12 -10 -1 5 8 10 9 17 3 17 -6 0 -16 -8 -21 -17 -10 -17
-10 -16 -11 2 l-1 20 -9 -20 c-11 -27 -12 -37 -1 -31 12 8 62 -90 104 -201 30
-80 32 -93 20 -106 -13 -13 -13 -18 2 -41 10 -14 25 -27 34 -27 14 -1 14 -2
-1 -6 -14 -3 -15 -8 -6 -22 19 -31 4 -51 -34 -45 -44 7 -101 -30 -108 -70 -4
-22 -11 -29 -31 -32 -34 -3 -73 31 -63 55 4 9 9 31 13 50 4 20 17 42 33 54 33
25 116 34 149 16 22 -11 23 -11 11 4 -8 9 -21 19 -31 22 -9 3 -21 20 -26 37
-7 24 -22 40 -55 58 -91 50 -212 20 -296 -72 -18 -21 -36 -38 -38 -38 -8 0
-27 58 -41 125 -18 86 -19 105 -2 105 7 0 18 9 25 21 11 17 11 24 -2 44 -18
27 -14 43 34 154 33 77 60 156 60 179 0 6 -9 21 -21 33 -13 13 -17 24 -11 32
21 27 37 152 22 172 -8 11 -23 61 -24 83 -1 8 -19 27 -41 43 -34 25 -50 29
-105 30 -131 1 -175 -13 -184 -61 -1 -3 -14 -17 -29 -32 -16 -16 -27 -39 -28
-55 0 -15 -2 -53 -4 -83 -3 -55 12 -90 39 -90 6 0 20 -12 30 -27 l19 -26 -40
6 c-35 6 -41 4 -53 -17 -11 -22 -7 -34 41 -128 30 -56 68 -124 86 -149 23 -35
29 -49 20 -58 -8 -8 -8 -20 1 -44 22 -61 12 -98 -18 -62 -7 8 -23 15 -35 15
-14 0 -25 7 -28 20 -3 11 -13 20 -22 20 -9 0 -31 16 -49 35 -25 26 -42 35 -65
35 -39 0 -85 -22 -105 -52 -15 -21 -16 0 -17 245 -1 322 -1 270 0 485 l1 178
1053 0 1052 -1 5 -395z m-277 313 c-7 -2 -21 -2 -30 0 -10 3 -4 5 12 5 17 0
24 -2 18 -5z m84 -19 c-3 -3 -12 -4 -19 -1 -8 3 -5 6 6 6 11 1 17 -2 13 -5z
m-1465 -79 c-4 -11 -6 -11 -37 1 -18 6 -17 4 5 -21 l25 -28 -26 5 c-22 4 -25
1 -21 -18 5 -26 -13 -40 -32 -25 -7 6 -16 8 -19 4 -10 -9 -8 10 2 26 5 7 13
11 19 7 10 -6 25 29 22 52 -1 9 9 12 32 10 18 -2 31 -7 30 -13z m-83 -11 c10
-9 -16 -22 -56 -27 -48 -6 -54 3 -20 26 19 15 63 15 76 1z m146 6 c3 -6 -1 -7
-9 -4 -18 7 -21 14 -7 14 6 0 13 -4 16 -10z m1259 -16 c76 -2 141 -6 144 -9
10 -10 -7 -17 -60 -25 l-53 -9 48 2 c53 2 57 0 25 -13 -18 -7 -19 -9 -5 -9 25
-1 21 -21 -5 -22 -18 -1 -19 -2 -5 -6 26 -7 2 -33 -32 -34 -23 -2 -24 -2 -3
-6 33 -7 27 -23 -10 -24 l-33 -1 30 -8 30 -7 -35 -6 c-19 -4 -46 -8 -60 -10
-14 -3 0 -6 30 -7 l55 -3 -55 -7 c-46 -6 -49 -7 -17 -8 20 -1 37 -7 37 -12 0
-6 -12 -8 -27 -5 l-28 5 30 -15 30 -16 -34 6 c-18 3 -40 5 -48 5 -8 0 -12 4
-9 9 3 5 -3 11 -14 14 -25 6 -26 24 -2 30 13 4 11 5 -5 6 -27 1 -31 18 -5 24
11 3 7 5 -10 6 -23 1 -31 11 -58 67 -25 53 -29 69 -18 75 10 7 10 9 1 9 -7 0
-13 5 -13 11 0 7 8 9 23 4 12 -5 84 -9 161 -11z m-1274 -10 c0 -14 3 -14 16
-4 13 11 16 10 20 -7 3 -11 16 -25 30 -31 30 -14 22 -41 -11 -34 -20 3 -23 1
-18 -17 3 -12 1 -21 -6 -21 -6 0 -11 7 -11 16 0 11 -6 14 -20 9 -16 -5 -20 -2
-20 14 0 12 5 21 11 21 11 0 9 16 -6 53 -4 10 -3 17 4 17 6 0 11 -7 11 -16z
m70 -14 c0 -5 -2 -10 -4 -10 -3 0 -8 5 -11 10 -3 6 -1 10 4 10 6 0 11 -4 11
-10z m-96 -9 c9 -14 -4 -41 -20 -41 -8 0 -14 8 -14 18 0 29 22 43 34 23z
m-144 -17 c0 -9 -7 -14 -17 -12 -25 5 -28 28 -4 28 12 0 21 -6 21 -16z m-50
-25 c0 -18 -2 -19 -15 -9 -8 7 -15 16 -15 21 0 5 7 9 15 9 9 0 15 -9 15 -21z
m35 -9 c-3 -5 -11 -10 -16 -10 -6 0 -7 5 -4 10 3 6 11 10 16 10 6 0 7 -4 4
-10z m-60 -16 c12 -12 13 -19 4 -30 -15 -19 -29 -8 -29 22 0 28 3 29 25 8z
m97 -6 c-7 -7 -12 -8 -12 -2 0 14 12 26 19 19 2 -3 -1 -11 -7 -17z m106 4 c2
-7 -3 -12 -12 -12 -9 0 -16 7 -16 16 0 17 22 14 28 -4z m-42 -4 c4 -7 3 -8 -4
-4 -7 4 -12 2 -12 -5 0 -7 -3 -10 -6 -6 -6 5 3 27 11 27 2 0 7 -5 11 -12z
m178 -41 c-3 -9 -11 -17 -17 -17 -6 0 -7 3 -4 6 3 4 2 14 -3 24 -12 23 0 34
17 17 8 -7 11 -21 7 -30z m-219 23 c-3 -5 -11 -10 -16 -10 -6 0 -7 5 -4 10 3
6 11 10 16 10 6 0 7 -4 4 -10z m-45 -10 c0 -7 30 -9 83 -6 71 3 78 2 49 -8
-38 -13 -52 -31 -52 -65 0 -23 1 -23 18 -8 10 10 26 17 35 17 9 0 19 5 22 10
4 7 -2 9 -18 5 -31 -8 -44 10 -18 24 26 14 51 4 53 -23 5 -76 -7 -110 -52
-146 l-40 -32 -45 33 c-33 25 -50 48 -65 88 -12 30 -19 60 -16 68 6 15 42 18
51 3 3 -5 14 -10 23 -10 9 1 -2 11 -26 23 -24 13 -40 26 -36 30 11 11 34 8 34
-3z m-86 -45 c-4 -16 -2 -25 6 -25 7 0 10 -7 6 -15 -3 -9 1 -18 9 -21 8 -3 21
-19 29 -35 13 -26 13 -29 -1 -29 -8 0 -17 9 -20 20 -3 11 -13 20 -23 20 -10 0
-23 6 -29 14 -18 21 2 94 27 96 1 0 0 -11 -4 -25z m319 1 c27 -6 36 -29 16
-42 -6 -3 -15 -2 -21 4 -6 6 -16 8 -24 5 -9 -3 -12 5 -12 27 1 17 4 27 7 22 3
-5 18 -12 34 -16z m13 -68 c10 -15 -20 -40 -39 -32 -9 3 -17 16 -17 29 0 18 4
21 25 17 14 -2 28 -9 31 -14z m1131 -43 c1 -30 -1 -33 -17 -25 -23 12 -31 35
-17 49 20 20 33 11 34 -24z m78 15 c3 -5 11 -10 16 -10 6 0 7 5 4 10 -3 6 1
10 10 10 20 0 31 -28 17 -42 -8 -8 -15 -8 -26 1 -8 7 -20 10 -26 6 -5 -3 -10
1 -10 9 0 9 -4 16 -10 16 -5 0 -10 -7 -10 -15 0 -8 -4 -15 -10 -15 -12 0 -12
3 -4 24 7 18 39 22 49 6z m-1255 -20 c0 -5 -2 -10 -4 -10 -3 0 -8 5 -11 10 -3
6 -1 10 4 10 6 0 11 -4 11 -10z m70 -51 c0 -27 -67 -56 -156 -68 -67 -8 -67
-9 -19 -10 28 0 75 6 105 14 65 17 71 18 46 4 -14 -9 -15 -13 -5 -19 9 -6 3
-13 -22 -23 -19 -9 -27 -16 -19 -16 13 -1 13 -2 0 -12 -12 -8 -10 -10 10 -5
24 5 24 4 6 -9 -11 -8 -25 -15 -30 -16 -6 0 -2 -4 9 -9 17 -7 17 -9 3 -9 -10
-1 -20 -12 -24 -25 -3 -14 -13 -27 -22 -29 -11 -3 -8 -5 8 -6 25 -2 25 -2 -5
-17 -22 -11 -24 -13 -7 -10 12 2 20 0 16 -5 -3 -5 -12 -9 -21 -9 -10 0 -14 -6
-10 -19 3 -12 -1 -22 -10 -25 -23 -9 -45 -7 -38 4 3 6 -1 10 -9 10 -9 0 -16 4
-16 9 0 5 -3 16 -6 24 -3 10 2 17 13 20 12 3 7 5 -12 7 -30 2 -30 2 -5 10 21
7 22 8 5 10 l-20 1 20 9 c18 8 18 9 -5 10 -24 2 -23 3 5 10 l30 8 -35 2 c-19
1 -27 4 -17 7 9 2 17 8 17 13 0 5 10 11 23 13 19 4 18 4 -5 6 -39 2 -35 21 5
23 l32 1 -33 4 c-24 3 -32 9 -30 21 3 14 -5 17 -42 15 -42 -1 -43 -1 -10 6 34
7 34 7 -18 13 -29 3 -59 11 -65 18 -10 10 -8 11 8 4 11 -5 74 -9 140 -9 98 1
127 4 160 20 26 13 39 26 39 38 -1 9 2 17 7 17 5 0 9 -9 9 -21z m-253 -105
c-3 -3 -12 -4 -19 -1 -8 3 -5 6 6 6 11 1 17 -2 13 -5z m13 -34 c0 -5 -7 -7
-15 -4 -8 4 -15 8 -15 10 0 2 7 4 15 4 8 0 15 -4 15 -10z m677 -122 c-3 -8 -6
-5 -6 6 -1 11 2 17 5 13 3 -3 4 -12 1 -19z m33 1 c0 -15 5 -19 15 -15 10 3 15
-1 16 -12 1 -9 5 -1 9 18 l7 35 2 -32 c1 -41 21 -44 21 -3 0 27 3 30 30 30 26
0 30 -3 30 -29 0 -24 -5 -29 -31 -35 -17 -3 -56 -6 -85 -6 -45 0 -54 3 -54 18
0 14 2 15 10 2 10 -16 13 -8 10 28 -1 12 3 22 9 22 6 0 11 -9 11 -21z m244
-23 c-6 -15 -61 -32 -71 -22 -4 3 3 6 13 6 11 0 29 7 40 15 24 18 25 18 18 1z
m-279 -63 c46 -3 81 -1 89 6 15 12 156 20 156 8 0 -11 -47 -27 -81 -27 -16 0
-29 -5 -29 -11 0 -6 8 -8 18 -6 54 15 73 17 67 7 -3 -5 -16 -10 -28 -11 -12 0
-31 -5 -42 -10 -14 -6 -8 -7 23 -3 44 6 61 -11 20 -20 -55 -12 -61 -15 -25
-13 20 2 37 0 37 -5 0 -4 -17 -10 -37 -13 -55 -9 -64 -15 -21 -13 20 2 40 -1
44 -5 4 -4 -7 -7 -24 -7 -17 0 -34 -5 -38 -11 -5 -9 1 -10 20 -5 15 4 26 2 26
-4 0 -5 -12 -10 -27 -11 l-28 -1 25 -8 25 -8 -27 -1 c-31 -1 -38 -17 -10 -24
10 -3 7 -5 -10 -6 -21 -1 -29 -7 -34 -26 -8 -31 -1 -40 23 -31 15 6 15 8 3 16
-13 8 -12 10 3 10 29 0 19 -30 -18 -51 -20 -12 -35 -29 -35 -40 0 -11 -7 -19
-17 -19 -15 0 -15 -1 1 -13 16 -12 19 -31 21 -123 2 -60 3 -126 4 -146 1 -21
6 -38 11 -38 7 0 8 62 4 179 l-5 178 23 6 c12 4 25 3 29 -1 12 -14 41 -141 34
-151 -3 -6 -1 -11 4 -11 21 0 11 -16 -16 -28 l-28 -11 33 5 c19 4 32 1 32 -5
0 -6 -13 -11 -30 -11 -18 0 -30 -5 -30 -13 0 -9 9 -12 28 -9 45 6 85 -47 47
-62 -11 -4 -15 2 -15 26 0 27 -2 30 -12 16 -7 -9 -22 -18 -33 -21 -16 -4 -16
-5 5 -6 20 -1 22 -3 10 -11 -8 -5 -25 -10 -37 -10 -17 0 -21 -5 -18 -22 3 -12
10 -25 17 -30 9 -5 8 -8 -6 -8 -12 0 -16 -5 -12 -15 5 -13 -3 -15 -52 -11 -31
2 -76 9 -100 15 -24 7 -53 9 -65 5 -18 -5 -15 0 14 29 33 35 37 36 73 26 20
-6 43 -8 49 -6 7 2 -5 8 -26 12 -20 4 -40 11 -42 16 -3 4 4 35 15 69 11 33 25
95 32 138 6 45 17 82 26 90 14 11 14 12 -1 12 -12 0 -17 9 -17 32 0 17 2 29 4
27 2 -2 4 -7 3 -10 -3 -9 24 -39 35 -39 6 0 6 5 -1 14 -9 10 -8 16 4 26 21 17
12 26 -35 34 -25 4 -40 12 -40 20 0 8 -4 16 -9 18 -4 2 -12 14 -16 27 -6 21
-5 23 11 17 11 -4 33 -10 49 -13 23 -3 26 -2 15 6 -8 5 -31 13 -51 16 -37 6
-47 21 -84 130 -6 19 -6 19 8 2 12 -14 34 -20 92 -24z m-877 11 c13 -9 27 -27
32 -40 7 -16 16 -23 31 -21 12 1 24 -4 27 -12 3 -9 -1 -11 -17 -6 -13 4 -21 2
-21 -5 0 -6 -4 -9 -9 -6 -4 3 -14 -13 -21 -34 -10 -32 -18 -40 -37 -40 -12 0
-23 -5 -23 -10 0 -6 10 -8 23 -5 12 3 37 7 54 8 18 1 33 5 33 10 0 4 11 7 23
7 29 0 60 -32 55 -57 -3 -15 -7 -13 -18 11 -8 16 -22 32 -30 34 -13 5 -13 3
-1 -12 14 -17 12 -17 -30 -11 -58 9 -117 -7 -164 -45 -21 -17 -39 -30 -41 -30
-2 0 -2 14 0 30 3 25 0 30 -18 30 -20 0 -20 1 4 20 15 12 18 18 8 14 -10 -3
-18 -1 -18 5 0 6 9 11 20 11 19 0 20 1 5 37 -21 49 -6 87 44 113 45 24 60 24
89 4z m359 -20 c-9 -9 -28 6 -21 18 4 6 10 6 17 -1 6 -6 8 -13 4 -17z m-146
-7 c-10 -9 -11 -8 -5 6 3 10 9 15 12 12 3 -3 0 -11 -7 -18z m59 -1 c0 -29 -10
-38 -29 -27 -10 7 -10 13 -2 30 16 28 31 27 31 -3z m47 -10 c-4 -9 -12 -16
-18 -16 -8 0 -8 4 1 15 9 11 9 15 1 15 -7 0 -9 5 -5 11 10 16 28 -6 21 -25z
m1628 -6 c-3 -5 -13 -10 -22 -10 -21 0 -53 -29 -53 -47 0 -7 -4 -13 -10 -13
-26 0 -2 48 35 68 25 14 58 15 50 2z m15 -40 c0 -11 -5 -20 -11 -20 -5 0 -17
-16 -25 -35 -14 -35 -39 -51 -27 -17 6 15 5 15 -10 3 -15 -12 -20 -11 -40 8
-34 31 -40 26 -9 -7 39 -41 77 -40 98 1 11 19 19 27 22 19 2 -8 -8 -27 -24
-43 -19 -20 -23 -29 -13 -29 8 0 20 5 27 12 9 9 12 -7 12 -75 l0 -86 -45 24
c-34 18 -55 22 -83 18 -60 -9 -111 -40 -118 -71 -14 -56 -39 -68 -49 -23 -3
16 -14 35 -23 42 -14 11 -15 11 -4 -1 26 -30 10 -30 -25 -1 -58 48 -149 37
-179 -20 -17 -35 -3 -39 19 -6 19 30 69 51 99 43 38 -10 70 -44 78 -81 10 -46
-10 -43 -22 3 -13 48 -46 66 -97 52 -41 -11 -78 -50 -67 -69 4 -6 1 -19 -5
-30 -10 -15 -9 -24 4 -45 18 -26 41 -33 66 -17 15 9 7 51 -10 51 -6 0 -7 -9
-4 -21 6 -17 3 -20 -16 -17 -33 4 -35 33 -5 63 38 38 78 34 102 -10 19 -35 50
-52 76 -42 7 3 3 6 -9 6 -15 1 -32 15 -50 42 l-27 41 -55 -4 -54 -5 27 24 c27
23 61 29 82 15 7 -4 19 -23 27 -43 12 -30 22 -38 51 -43 31 -6 42 -3 67 18 34
29 31 34 -6 10 -25 -17 -55 -13 -55 6 0 7 6 8 18 1 22 -12 45 10 56 53 7 27
58 66 86 66 8 0 0 -9 -17 -20 -43 -26 -42 -34 2 -13 32 15 37 15 73 -1 21 -10
46 -30 55 -46 25 -41 21 -42 -17 -4 -19 19 -42 35 -53 35 -31 2 -58 -2 -67
-12 -5 -5 6 -6 27 -2 26 4 44 0 62 -11 26 -17 65 -72 65 -91 0 -5 -9 4 -20 22
-20 33 -73 67 -93 60 -7 -2 4 -9 23 -16 49 -17 72 -52 79 -127 4 -35 12 -69
19 -76 9 -9 12 -87 12 -290 l0 -278 -41 0 c-34 0 -47 -6 -76 -35 -29 -29 -34
-41 -31 -66 4 -22 0 -33 -15 -40 -27 -15 -34 -3 -12 21 16 17 17 25 7 40 -9
15 -6 33 14 92 14 40 30 90 36 111 10 37 28 51 28 21 0 -8 4 -12 10 -9 12 7
10 84 -2 91 -14 9 -9 40 11 58 10 9 24 37 31 61 16 57 0 108 -41 132 -34 20
-34 24 -14 64 10 19 14 41 10 63 -8 38 -54 95 -73 88 -7 -2 -12 1 -12 7 0 6 7
11 15 11 26 0 16 17 -12 23 -32 6 -63 -16 -63 -46 0 -10 -11 -33 -26 -49 -14
-17 -28 -44 -31 -59 -8 -42 -30 -36 -38 11 -5 28 -15 46 -36 61 -17 12 -32 20
-33 18 -7 -8 -26 -48 -26 -55 0 -3 6 -1 14 5 11 9 15 7 19 -9 3 -11 1 -22 -3
-25 -13 -8 10 -64 31 -76 13 -7 25 -6 39 1 17 9 22 7 30 -15 15 -38 13 -50
-14 -90 l-25 -36 -15 25 c-9 15 -23 37 -31 51 -10 15 -25 25 -39 25 -31 0 -38
-29 -29 -122 6 -67 5 -72 -10 -59 -22 17 -47 7 -47 -19 0 -12 -5 -30 -11 -41
-5 -11 -7 -29 -4 -40 5 -16 10 -18 21 -8 11 9 19 6 39 -12 13 -13 25 -29 25
-35 0 -6 12 -38 26 -69 20 -46 22 -60 12 -66 -20 -13 -76 -11 -81 4 -6 16 -36
-21 -37 -45 0 -22 9 -22 45 -4 17 9 22 16 13 19 -7 3 -2 6 12 6 14 1 34 4 45
7 26 6 54 -48 36 -70 -15 -18 -3 -46 20 -46 21 0 21 -5 -1 -87 -12 -45 -17
-52 -44 -58 -39 -7 -49 -7 -114 1 -46 6 -57 3 -91 -19 l-38 -25 -11 51 c-24
108 -25 134 -8 140 17 7 22 52 7 61 -14 9 -1 54 52 181 27 66 50 131 51 145 1
14 7 34 12 45 21 39 26 75 9 75 -19 0 -19 10 1 39 21 29 13 71 -21 115 -14 18
-25 41 -25 50 0 10 -18 35 -40 57 -48 48 -89 53 -114 14 -16 -24 -16 -27 4
-55 12 -16 27 -33 33 -37 26 -16 47 -63 41 -88 -3 -14 -1 -31 5 -39 8 -10 8
-20 -4 -42 -8 -15 -12 -38 -9 -50 6 -22 4 -23 -73 -18 -43 3 -87 7 -98 9 -21
5 -48 52 -38 67 3 6 0 27 -7 48 -11 34 -10 40 14 77 15 22 38 46 52 54 19 10
24 19 21 36 -2 13 0 26 4 29 5 3 4 14 -1 25 -6 11 -15 17 -20 14 -14 -9 -22
14 -16 41 13 49 111 67 156 29 9 -7 29 -11 47 -8 27 4 34 11 45 46 7 22 25 49
39 60 37 27 112 34 144 13 l25 -16 -7 31 c-5 25 -2 31 16 36 17 4 21 13 21 45
0 89 131 160 200 109 37 -27 40 -26 40 3 0 31 25 56 56 56 17 0 24 -5 24 -20z
m-1710 -22 c0 -18 -5 -92 -11 -163 -8 -92 -8 -141 -1 -168 10 -35 9 -37 -9
-32 -10 4 -19 2 -19 -4 0 -20 41 -21 107 -2 37 10 82 22 99 26 24 4 33 14 43
43 15 41 67 102 88 102 7 0 13 5 13 10 0 30 -109 -63 -110 -93 -1 -26 -40 37
-40 64 0 32 25 62 92 107 78 53 166 53 230 -1 45 -37 41 -57 -15 -72 -69 -18
-93 -44 -101 -112 -4 -34 -3 -60 4 -67 14 -14 13 -29 -2 -20 -6 4 -8 3 -5 -3
10 -16 -16 -34 -33 -23 -24 15 -151 11 -209 -6 -52 -15 -121 -68 -143 -107 -6
-11 -10 -40 -10 -64 1 -39 -3 -49 -38 -82 l-39 -37 -6 38 c-4 21 -5 69 -4 106
3 58 0 74 -24 116 -15 27 -27 52 -27 56 0 4 -7 13 -15 20 -9 7 -15 29 -15 51
0 26 -7 46 -20 59 -11 11 -20 25 -20 30 0 6 -5 10 -11 10 -6 0 -8 -7 -5 -16 3
-9 6 -19 6 -24 0 -4 9 -10 20 -13 17 -4 20 -14 20 -60 0 -31 4 -57 10 -59 5
-1 13 -46 16 -98 5 -66 3 -92 -4 -85 -6 6 -12 21 -14 35 -4 26 0 -269 4 -308
2 -12 8 -21 13 -20 6 2 8 10 7 18 -2 8 -5 63 -7 122 -2 59 -6 112 -10 118 -3
5 -2 10 3 10 12 0 22 -25 22 -56 0 -13 4 -24 10 -24 6 0 7 26 3 68 -3 37 -5
74 -5 82 1 8 2 30 2 49 0 34 1 34 16 13 12 -17 13 -42 9 -124 -6 -113 2 -208
17 -208 6 0 8 9 5 21 -3 12 -3 18 1 14 7 -7 32 -108 28 -112 -1 -1 -39 -5 -85
-9 l-84 -7 6 31 c11 57 20 162 13 162 -4 0 -11 -10 -16 -22 -6 -16 -7 -6 -3
32 2 30 9 65 15 77 6 13 9 26 5 29 -13 13 -32 -45 -38 -116 -4 -41 -9 -95 -13
-120 l-6 -45 12 45 c13 51 24 30 13 -26 -6 -32 -8 -34 -45 -34 -22 0 -40 2
-40 5 0 3 9 22 19 43 19 38 37 180 43 337 3 74 5 80 26 83 20 3 22 -1 23 -50
1 -29 5 -64 10 -78 6 -16 7 6 4 65 -3 49 -11 98 -19 110 -7 11 -11 34 -8 53 2
20 0 32 -7 32 -6 0 -11 -8 -11 -18 0 -10 -4 -22 -9 -27 -18 -19 -51 -85 -42
-85 11 0 21 -152 11 -165 -4 -5 -6 -30 -4 -55 2 -25 -1 -54 -6 -65 -4 -11 -11
-31 -14 -45 -4 -16 -19 -31 -41 -41 l-35 -16 0 212 0 213 29 5 c34 7 47 36 31
67 -8 16 -8 20 3 20 22 0 42 29 30 41 -8 8 -14 5 -22 -10 -7 -12 -17 -21 -23
-21 -9 0 -9 3 0 12 21 21 13 27 -15 13 -15 -8 -30 -12 -33 -8 -3 3 0 7 5 10 6
2 17 8 25 13 12 8 13 12 2 19 -25 15 55 89 113 106 72 21 155 -2 155 -41 0 -8
5 -14 11 -14 5 0 7 -5 3 -11 -4 -7 -14 -1 -28 16 -42 52 -154 44 -211 -15 -22
-23 -26 -33 -17 -42 9 -9 12 -8 12 4 0 24 55 66 96 74 54 10 94 -6 115 -45 21
-40 16 -56 -7 -23 -19 27 -65 52 -96 52 -26 0 -93 -38 -84 -47 3 -3 14 1 23 9
46 40 130 23 158 -31 15 -29 9 -48 -28 -89 -12 -13 -17 -26 -11 -30 12 -11
105 -34 112 -28 2 3 -16 10 -41 17 -41 10 -45 13 -31 26 10 10 18 12 27 5 7
-5 28 -13 47 -17 31 -7 33 -6 21 9 -7 9 -24 16 -37 16 -12 0 -26 5 -30 11 -4
8 4 9 27 4 25 -4 30 -3 19 4 -13 10 -13 11 0 11 8 1 3 6 -11 13 -25 12 -25 12
-12 60 11 37 19 47 36 48 18 1 19 2 4 6 -14 3 -17 11 -13 26 3 12 11 52 18 89
13 72 38 95 38 36z m1535 11 c-27 -3 -52 -5 -54 -3 -10 9 44 20 73 15 28 -5
26 -6 -19 -12z m-1481 -29 c6 0 4 -5 -4 -10 -9 -6 -11 -10 -3 -10 7 0 10 -7 7
-15 -4 -8 -1 -15 5 -15 7 0 7 -8 1 -26 -14 -35 -12 -42 4 -21 12 15 15 12 31
-30 10 -27 22 -53 27 -60 7 -9 0 -11 -29 -8 -35 4 -35 4 -8 -4 l30 -9 -33 -1
c-18 0 -31 -5 -28 -10 4 -5 22 -5 43 -1 26 6 40 5 45 -3 14 -22 8 -26 -52 -39
-33 -6 -60 -16 -60 -21 0 -5 7 -6 16 -3 9 3 34 8 57 11 34 4 29 1 -23 -14 -44
-13 -56 -19 -38 -20 45 -2 118 22 118 37 0 12 3 12 15 2 8 -7 15 -16 15 -20 0
-10 -170 -54 -178 -45 -8 8 -7 83 3 250 6 101 10 125 18 108 5 -13 15 -23 21
-23z m-160 24 c9 -3 16 -14 16 -24 0 -10 5 -20 11 -22 6 -2 9 -15 7 -28 l-3
-25 -24 28 c-14 15 -35 27 -47 27 -13 0 -26 5 -30 12 -4 6 -3 9 2 6 5 -3 18
-2 29 3 17 6 16 8 -10 9 -30 2 -30 2 -5 10 34 11 36 11 54 4z m-78 -52 c-9 -9
-37 8 -31 18 5 8 11 7 21 -1 8 -6 12 -14 10 -17z m974 -92 c0 -5 -2 -10 -4
-10 -3 0 -8 5 -11 10 -3 6 -1 10 4 10 6 0 11 -4 11 -10z m-7 -35 c-3 -9 -8
-14 -10 -11 -3 3 -2 9 2 15 9 16 15 13 8 -4z m861 -55 c14 -5 35 -24 46 -42
21 -34 28 -104 10 -93 -6 3 -7 17 -4 30 8 31 -24 77 -68 98 -36 18 -25 23 16
7z m-2029 -49 c-3 -5 -1 -12 5 -16 5 -3 10 -14 10 -23 0 -13 -2 -13 -15 4 -17
23 -19 44 -4 44 5 0 8 -4 4 -9z m935 -30 c-33 -17 -47 -42 -49 -86 0 -11 8 -2
18 22 19 40 46 63 73 63 7 -1 1 -7 -14 -16 -15 -8 -32 -23 -38 -34 -13 -25 -2
-26 16 -2 8 10 13 12 14 5 0 -7 6 -10 14 -7 30 11 -30 -144 -67 -174 -11 -10
-20 -8 -40 8 -26 21 -57 18 -57 -5 0 -7 6 -15 13 -18 6 -2 8 -8 4 -13 -4 -4
-17 -3 -28 4 -25 16 -49 1 -49 -29 0 -11 -7 -19 -15 -19 -20 0 -37 -34 -23
-48 7 -7 4 -13 -11 -21 -13 -7 -21 -22 -21 -36 0 -14 -9 -33 -20 -42 -11 -10
-20 -23 -20 -29 0 -6 -9 -14 -20 -17 -25 -7 -37 -35 -22 -56 12 -17 52 -100
52 -108 0 -3 -11 -3 -25 0 -35 6 -27 -14 13 -33 38 -18 83 -113 63 -133 -18
-18 -13 -56 9 -69 22 -14 25 -44 10 -100 l-10 -36 -58 5 c-52 5 -59 3 -81 -21
-15 -16 -35 -26 -52 -26 -33 0 -48 17 -22 27 58 22 76 90 48 185 -28 98 -121
164 -185 132 -31 -17 -34 -13 -15 22 8 16 15 37 15 46 0 12 10 18 38 20 28 2
37 7 36 21 -3 27 40 50 85 45 22 -2 37 0 35 4 -9 14 -89 8 -112 -8 -12 -8 -22
-24 -22 -35 0 -21 -1 -22 -24 -13 -22 8 -20 36 4 64 23 27 22 22 11 53 -6 16
-24 30 -45 38 -20 7 -36 15 -36 19 0 10 15 25 25 26 23 3 55 17 55 25 0 5 -12
4 -26 -1 -38 -15 -42 -12 -14 10 14 11 20 20 15 20 -18 0 -55 -30 -55 -45 0
-8 -4 -16 -8 -19 -4 -2 -8 6 -7 19 0 26 31 65 51 65 16 0 23 23 22 78 -1 51
20 84 81 127 41 29 47 30 149 30 59 0 115 -4 125 -9 12 -6 17 -4 17 7 0 19 55
39 86 31 21 -5 24 -3 24 21 0 33 50 85 82 85 20 0 18 -2 -12 -19z m45 -31 c-3
-5 -11 -10 -16 -10 -6 0 -7 5 -4 10 3 6 11 10 16 10 6 0 7 -4 4 -10z m-860
-58 c-35 -4 -39 1 -24 29 l12 23 20 -25 19 -24 -27 -3z m1145 -17 c-7 -9 -15
-13 -17 -11 -7 7 7 26 19 26 6 0 6 -6 -2 -15z m50 -9 c0 -11 -46 -36 -66 -36
-22 0 39 48 64 50 1 0 2 -6 2 -14z m148 -15 c4 -11 -2 -12 -24 -7 -45 11 -55
28 -15 24 19 -2 37 -9 39 -17z m517 -21 c8 -16 15 -39 15 -52 0 -32 -27 -68
-51 -68 -22 0 -26 18 -4 26 18 7 20 45 3 62 -7 7 -20 12 -31 12 -15 0 -14 4
10 25 36 31 39 31 58 -5z m-126 -56 c-7 -8 -7 -14 -1 -14 5 0 12 -21 15 -47 2
-27 11 -66 20 -88 14 -36 14 -41 1 -50 -9 -5 -23 -16 -32 -23 -15 -12 -14 -12
6 -7 20 6 21 4 13 -18 -8 -20 -6 -27 5 -31 24 -9 30 -1 43 59 7 30 16 55 20
55 11 0 42 -113 46 -167 2 -34 0 -43 -11 -39 -8 3 -14 -1 -14 -9 0 -7 -4 -17
-10 -20 -6 -3 -7 1 -4 9 8 21 -14 20 -38 -1 -10 -9 -18 -12 -18 -7 1 17 35 52
55 56 11 2 21 12 23 22 5 24 -18 107 -28 101 -5 -3 -11 -28 -15 -55 -5 -38
-14 -55 -35 -73 -30 -24 -115 -157 -100 -157 5 0 17 16 26 36 19 40 39 53 57
35 8 -8 5 -11 -13 -12 -19 0 -16 -3 15 -13 40 -13 40 -13 15 -24 -22 -9 -22
-11 -5 -12 17 0 17 -2 5 -10 -8 -5 -10 -10 -5 -10 6 0 3 -5 -5 -10 -13 -9 -13
-10 0 -10 11 0 12 -2 2 -8 -9 -6 -8 -13 6 -28 18 -19 18 -20 -12 -43 -17 -13
-23 -21 -13 -17 22 7 50 -17 45 -41 -4 -20 -48 -26 -48 -6 0 7 8 13 17 13 12
0 14 3 7 10 -16 16 -43 2 -37 -19 3 -11 -2 -21 -12 -25 -35 -13 -49 24 -17 44
15 10 15 10 -4 5 -12 -3 -32 -1 -45 4 -24 9 -24 9 21 24 8 3 2 6 -15 7 l-30 1
25 11 25 11 -33 6 -33 6 33 15 c24 11 28 15 15 18 -23 5 -11 22 16 23 21 0 21
1 2 8 -11 5 -23 7 -27 4 -12 -6 -10 5 6 35 19 38 28 82 17 82 -5 0 -16 -18
-25 -40 -9 -22 -20 -40 -25 -40 -5 0 -11 -13 -14 -30 -10 -45 -27 -36 -27 14
0 27 6 51 16 60 8 9 11 16 6 16 -5 0 -8 10 -8 22 1 13 -4 23 -10 23 -6 0 -18
8 -28 18 -21 21 -37 22 -30 3 3 -8 0 -17 -7 -22 -9 -5 -10 -2 -6 9 7 20 -6 22
-36 5 -20 -10 -21 -10 -8 5 7 10 21 17 31 17 33 0 41 25 39 115 -2 84 7 115
29 101 12 -7 42 -64 42 -78 0 -16 -19 -8 -25 12 -3 11 -13 20 -22 20 -13 0
-15 -9 -10 -55 3 -30 9 -60 14 -67 8 -14 9 -18 13 -50 1 -13 6 4 11 37 13 86
15 91 39 70 18 -16 20 -17 26 -1 6 16 8 16 24 1 17 -16 18 -11 17 112 0 108 3
133 19 163 l19 35 3 -33 c2 -18 -2 -40 -9 -48z m-419 57 c22 -6 23 -8 7 -14
-22 -8 -67 1 -67 14 0 10 23 10 60 0z m659 -41 c1 -13 0 -13 -9 0 -5 8 -9 24
-9 35 l0 20 9 -20 c5 -11 9 -27 9 -35z m-779 27 c0 -20 -40 -41 -54 -27 -8 8
-6 15 8 26 24 17 46 18 46 1z m190 -6 c14 -27 13 -54 -2 -48 -7 2 -13 9 -13
15 0 5 -3 14 -7 18 -11 11 -10 34 2 34 5 0 14 -9 20 -19z m-80 -21 c0 -5 -4
-10 -10 -10 -5 0 -10 5 -10 10 0 6 5 10 10 10 6 0 10 -4 10 -10z m-189 -58
c-11 -17 -21 -37 -21 -46 0 -9 -7 -16 -15 -16 -18 0 -20 29 -2 36 7 2 13 14
14 25 2 28 24 52 36 40 6 -6 2 -20 -12 -39z m240 38 c25 -14 24 -30 -1 -30
-11 0 -20 2 -20 4 0 2 -3 11 -6 20 -7 19 0 20 27 6z m-631 -15 c0 -8 -4 -15
-9 -15 -13 0 -22 16 -14 24 11 11 23 6 23 -9z m350 -9 c0 -13 -7 -29 -15 -36
-13 -11 -15 -7 -15 24 0 25 4 36 15 36 9 0 15 -9 15 -24z m346 -11 c10 -24 -6
-38 -21 -18 -7 10 -11 21 -9 25 8 13 24 9 30 -7z m-666 -11 c0 -8 -4 -12 -10
-9 -5 3 -10 10 -10 16 0 5 5 9 10 9 6 0 10 -7 10 -16z m-90 -48 c-17 -17 -31
14 -18 38 11 20 11 20 20 -4 5 -15 5 -27 -2 -34z m700 44 c0 -5 -2 -10 -4 -10
-3 0 -8 5 -11 10 -3 6 -1 10 4 10 6 0 11 -4 11 -10z m-632 -21 c-2 -6 -8 -10
-13 -10 -5 0 -11 4 -13 10 -2 6 4 11 13 11 9 0 15 -5 13 -11z m1098 -9 c9 0
32 -11 50 -25 43 -33 53 -81 29 -135 -21 -47 -39 -42 -32 9 5 46 -16 89 -48
97 -14 3 -25 10 -25 15 0 5 -6 9 -14 9 -19 0 -29 17 -22 36 4 11 10 12 25 4
11 -5 27 -10 37 -10z m-1038 -11 c1 -9 -7 -15 -23 -15 -26 -2 -35 20 -12 29
18 8 32 2 35 -14z m42 11 c0 -5 -4 -10 -9 -10 -6 0 -13 5 -16 10 -3 6 1 10 9
10 9 0 16 -4 16 -10z m206 -7 c7 -10 13 -27 13 -38 0 -19 -1 -19 -19 4 -19 22
-27 51 -14 51 4 0 13 -8 20 -17z m362 -48 c-3 -20 -3 -20 -15 1 -7 11 -9 31
-6 44 l6 24 9 -24 c5 -13 7 -33 6 -45z m52 25 c0 -35 -13 -45 -30 -25 -11 13
-11 20 0 40 16 30 30 23 30 -15z m-577 22 c3 -4 -3 -18 -14 -31 -16 -19 -22
-21 -34 -11 -20 17 -19 23 8 36 28 15 35 16 40 6z m118 -13 c16 -8 18 -17 14
-43 -5 -23 -2 -38 9 -49 9 -8 13 -23 10 -31 -3 -9 -1 -23 6 -30 9 -12 7 -17
-9 -26 -25 -13 -28 -52 -5 -74 8 -9 12 -16 9 -16 -4 0 23 -57 60 -127 39 -74
62 -129 56 -131 -14 -5 -14 -27 0 -50 12 -21 -2 -148 -17 -145 -5 1 -21 4 -34
7 -36 9 -90 -26 -90 -59 0 -30 3 -30 -55 -5 -56 24 -98 26 -119 5 -20 -20 -26
-19 -26 6 0 11 -6 44 -14 72 -27 98 -28 107 -10 107 13 0 15 7 9 36 -7 39 21
130 73 235 26 54 28 56 38 34 8 -17 8 -27 0 -35 -7 -7 -7 -16 3 -32 11 -17 11
-22 -1 -29 -11 -7 -11 -12 0 -30 9 -13 10 -24 4 -28 -5 -3 -9 -28 -8 -56 1
-43 4 -50 21 -50 14 0 19 6 17 20 -2 11 -4 88 -5 170 -2 83 -6 156 -10 163 -5
6 -17 12 -27 12 -10 0 -24 8 -29 18 -8 13 -10 14 -11 2 0 -13 -2 -13 -9 -1 -5
8 -5 21 -1 30 5 9 11 24 14 34 4 11 16 17 36 17 16 0 30 5 30 10 0 13 -12 13
-46 0 -37 -15 -39 -8 -7 28 41 46 87 61 124 41z m-361 -7 c0 -5 -6 -16 -13
-26 -13 -18 -14 -18 -20 -2 -4 10 -5 22 -1 27 7 11 34 12 34 1z m468 -35 c3
-22 -1 -27 -17 -27 -21 0 -26 15 -15 45 9 23 29 13 32 -18z m268 16 c16 -21
18 -37 4 -28 -13 8 -33 45 -24 45 4 0 13 -8 20 -17z m-626 -13 c0 -23 -22 -26
-39 -6 -9 11 -9 15 1 19 26 11 38 7 38 -13z m40 10 c0 -5 -4 -10 -10 -10 -5 0
-10 5 -10 10 0 6 5 10 10 10 6 0 10 -4 10 -10z m-120 -8 c0 -13 -12 -22 -22
-16 -10 6 -1 24 13 24 5 0 9 -4 9 -8z m150 -2 c0 -5 -2 -10 -4 -10 -3 0 -8 5
-11 10 -3 6 -1 10 4 10 6 0 11 -4 11 -10z m615 -39 c-3 -12 -11 -21 -16 -21
-10 0 -12 43 -2 54 12 12 25 -11 18 -33z m-377 13 c28 -19 28 -36 1 -32 -12 2
-26 13 -30 26 -10 26 -2 28 29 6z m-228 -8 c6 -8 10 -25 8 -38 -2 -19 -9 -23
-38 -23 -29 0 -36 4 -38 23 -4 28 14 52 38 52 10 0 23 -7 30 -14z m-210 -15
c0 -22 -25 -45 -40 -36 -11 7 -14 38 -3 48 14 15 43 7 43 -12z m80 -12 c0 -6
-5 -19 -11 -30 -8 -16 -13 -18 -24 -9 -8 7 -19 9 -25 5 -14 -9 -7 29 9 49 10
12 18 13 32 5 10 -5 19 -14 19 -20z m680 17 c0 -22 -11 -46 -21 -46 -5 0 -9
14 -9 30 0 20 5 30 15 30 8 0 15 -6 15 -14z m-640 -15 c0 -6 -4 -13 -10 -16
-5 -3 -10 1 -10 9 0 9 5 16 10 16 6 0 10 -4 10 -9z m380 -11 c0 -11 -4 -20 -9
-20 -11 0 -22 26 -14 34 12 12 23 5 23 -14z m334 -24 c-6 -26 -40 -53 -51 -42
-3 3 7 22 22 41 30 40 39 41 29 1z m145 -13 c1 -7 -3 -13 -9 -13 -5 0 -10 15
-9 33 0 27 2 29 9 12 5 -11 9 -26 9 -32z m193 12 c-5 -28 -22 -44 -22 -21 0
21 11 46 20 46 4 0 5 -11 2 -25z m-705 -1 c11 -11 13 -18 5 -26 -13 -13 -42 6
-42 28 0 19 18 18 37 -2z m294 -27 c-29 -29 -37 -15 -9 16 13 14 25 21 27 15
2 -5 -6 -19 -18 -31z m-616 13 c4 -6 11 -7 17 -4 8 5 9 1 5 -10 -4 -10 -7 -33
-7 -52 0 -19 -4 -34 -10 -34 -5 0 -7 7 -4 15 5 11 -1 15 -20 15 -32 0 -43 22
-28 56 12 25 36 32 47 14z m385 -10 c0 -21 -15 -27 -25 -10 -7 12 2 30 16 30
5 0 9 -9 9 -20z m-600 0 c0 -5 -4 -10 -10 -10 -5 0 -10 5 -10 10 0 6 5 10 10
10 6 0 10 -4 10 -10z m83 -30 c7 -27 -8 -44 -41 -46 -26 -2 -29 1 -24 20 12
50 54 67 65 26z m205 3 c-2 -20 -9 -28 -23 -28 -23 0 -33 34 -13 46 26 17 39
10 36 -18z m482 13 c0 -7 -7 -19 -15 -26 -16 -13 -20 -3 -9 24 8 20 24 21 24
2z m-124 -13 c11 -12 13 -18 5 -21 -19 -6 -41 6 -41 23 0 20 14 19 36 -2z m74
8 c0 -6 -5 -13 -12 -17 -6 -4 -8 -3 -4 4 3 5 0 13 -6 15 -8 3 -6 6 5 6 9 1 17
-3 17 -8z m259 -14 c11 -14 5 -27 -11 -27 -5 0 -6 5 -3 10 3 6 -1 10 -10 10
-9 0 -13 5 -10 10 8 14 20 13 34 -3z m-986 -11 c5 -13 -10 -36 -24 -36 -10 0
-20 30 -13 41 8 14 31 11 37 -5z m134 -8 c-3 -8 -6 -5 -6 6 -1 11 2 17 5 13 3
-3 4 -12 1 -19z m243 12 c0 -5 -2 -10 -4 -10 -3 0 -8 5 -11 10 -3 6 -1 10 4
10 6 0 11 -4 11 -10z m228 -8 c3 -10 -4 -13 -24 -10 -15 2 -29 9 -32 16 -3 10
4 13 24 10 15 -2 29 -9 32 -16z m230 6 c-5 -15 -58 -24 -58 -10 0 15 12 22 38
22 14 0 22 -5 20 -12z m48 -16 c-8 -24 -55 -47 -69 -33 -6 6 0 12 14 16 13 5
30 17 38 27 16 23 25 17 17 -10z m-567 -23 c-23 -14 -31 2 -12 23 16 18 18 19
21 3 2 -10 -2 -21 -9 -26z m240 17 c15 -8 33 -22 40 -30 12 -14 10 -16 -8 -16
-12 0 -24 7 -27 15 -4 10 -14 13 -29 9 -20 -5 -23 -3 -18 15 6 25 6 25 42 7z
m-849 -16 c-8 -5 -17 -7 -19 -4 -3 3 1 9 9 14 8 5 17 7 19 4 3 -3 -1 -9 -9
-14z m941 5 c0 -5 -9 -11 -21 -13 -20 -3 -27 8 -13 22 10 9 34 3 34 -9z m-521
-28 c0 -5 -4 -5 -10 -2 -5 3 -10 14 -10 23 0 15 2 15 10 2 5 -8 10 -19 10 -23z
m30 23 c0 -5 -2 -10 -4 -10 -3 0 -8 5 -11 10 -3 6 -1 10 4 10 6 0 11 -4 11
-10z m615 0 c3 -5 -1 -10 -9 -10 -8 0 -18 5 -21 10 -3 6 1 10 9 10 8 0 18 -4
21 -10z m-764 -30 c6 0 7 5 4 10 -3 6 1 10 9 10 18 0 20 -8 7 -29 -12 -18 -41
-7 -40 16 0 11 3 13 6 6 2 -7 9 -13 14 -13z m83 8 c14 -13 10 -55 -6 -64 -6
-4 -8 2 -3 15 4 12 2 21 -4 21 -6 0 -11 7 -11 16 0 8 -4 12 -10 9 -5 -3 -10
-1 -10 4 0 15 28 14 44 -1z m656 1 c0 -5 -18 -9 -40 -9 -52 0 -52 15 0 17 22
0 40 -3 40 -8z m-1407 -26 c8 -16 17 -38 21 -49 6 -19 3 -21 -19 -16 -14 2
-26 9 -26 16 -4 41 -3 76 3 76 4 0 14 -12 21 -27z m366 15 c0 -7 -15 -47 -32
-88 -22 -51 -39 -76 -52 -79 -23 -4 -46 -31 -40 -48 2 -6 -2 -17 -10 -23 -7
-6 -16 -23 -20 -38 -6 -23 -8 -25 -16 -9 -6 9 -19 17 -29 17 -11 0 -24 9 -30
19 -8 16 -6 20 13 24 19 4 18 4 -5 6 -33 1 -38 21 -5 22 21 1 21 1 -3 8 -25 7
-41 41 -20 41 7 0 10 6 7 14 -4 9 1 17 11 19 12 3 11 5 -5 6 -33 2 -28 21 5
22 15 0 21 3 15 6 -24 9 -13 23 17 23 17 0 30 4 30 10 0 5 -14 7 -32 4 -25 -4
-29 -3 -17 5 9 6 56 17 104 26 49 8 91 17 93 20 10 9 22 5 21 -7z m681 2 c0
-5 -5 -10 -11 -10 -5 0 -7 5 -4 10 3 6 8 10 11 10 2 0 4 -4 4 -10z m393 -18
c-16 -5 -20 -11 -14 -21 10 -16 50 -6 68 18 17 24 28 5 11 -21 -8 -13 -22 -44
-32 -70 -16 -44 -20 -48 -49 -47 l-32 1 30 8 30 8 -32 1 c-23 1 -35 -5 -43
-20 -7 -11 -9 -23 -6 -27 3 -3 6 0 6 6 0 7 15 12 34 12 l35 0 -13 -37 c-10
-27 -18 -37 -31 -35 -10 2 -14 -1 -11 -7 4 -7 -6 -10 -29 -9 -39 1 -49 18 -10
18 23 0 24 2 13 20 -10 17 -14 18 -16 5 -2 -9 -13 -14 -30 -14 -24 2 -24 2 -4
6 36 7 25 23 -15 24 -21 0 -32 3 -25 6 6 2 12 11 12 19 0 8 6 14 13 15 6 0 -7
9 -30 19 -40 18 -62 37 -28 24 18 -7 19 0 5 27 -7 12 -7 19 -1 19 6 0 8 6 6
13 -10 26 12 36 85 40 135 6 128 6 103 -1z m267 -12 c0 -12 -7 -20 -17 -20
-14 0 -15 2 -4 9 7 5 10 14 7 20 -4 6 -2 11 3 11 6 0 11 -9 11 -20z m-1020
-10 c0 -5 -7 -7 -15 -4 -8 4 -15 8 -15 10 0 2 7 4 15 4 8 0 15 -4 15 -10z
m543 3 c-7 -2 -21 -2 -30 0 -10 3 -4 5 12 5 17 0 24 -2 18 -5z m-1103 -33 c0
-5 -4 -10 -9 -10 -6 0 -13 5 -16 10 -3 6 1 10 9 10 9 0 16 -4 16 -10z m822 -2
c-5 -5 -28 -12 -53 -17 -27 -5 -34 -9 -19 -10 20 -1 22 -3 10 -11 -13 -9 -13
-10 1 -10 8 0 20 5 27 12 24 24 20 0 -10 -64 -22 -49 -38 -69 -57 -76 -35 -11
-61 -4 -59 16 3 33 -15 81 -31 84 -9 2 5 10 32 18 42 13 63 30 37 30 -7 0 -6
6 1 18 8 13 25 17 70 18 33 0 56 -3 51 -8z m98 2 c0 -5 -2 -10 -4 -10 -3 0 -8
5 -11 10 -3 6 -1 10 4 10 6 0 11 -4 11 -10z m-332 -29 c-1 -16 -6 -27 -10 -25
-4 3 -6 15 -4 27 6 28 5 27 11 27 3 0 4 -13 3 -29z m42 13 c0 -8 -4 -12 -10
-9 -5 3 -10 10 -10 16 0 5 5 9 10 9 6 0 10 -7 10 -16z m-734 -20 c21 -6 60
-61 50 -71 -3 -3 -17 6 -30 20 -14 15 -34 27 -45 27 -21 0 -35 13 -24 24 8 7
21 8 49 0z m734 -14 c0 -5 -5 -10 -11 -10 -5 0 -7 5 -4 10 3 6 8 10 11 10 2 0
4 -4 4 -10z m290 -10 c0 -5 -4 -10 -10 -10 -5 0 -10 5 -10 10 0 6 5 10 10 10
6 0 10 -4 10 -10z m-1029 -20 c10 -6 19 -17 19 -25 0 -7 13 -16 28 -20 35 -7
72 -69 54 -87 -17 -17 -15 -48 4 -55 13 -5 15 -15 10 -50 -7 -56 -14 -67 -31
-53 -18 15 -66 16 -92 1 -12 -6 -24 -11 -27 -11 -3 0 -6 50 -6 110 0 61 3 110
6 110 3 0 14 -5 26 -11 11 -6 22 -8 25 -6 3 3 -9 13 -26 22 -17 8 -31 22 -31
30 0 21 13 19 28 -5 8 -14 22 -20 45 -19 30 2 31 2 4 6 -15 3 -33 13 -40 24
-6 10 -17 19 -24 19 -7 0 -13 7 -13 15 0 18 14 19 41 5z m704 -29 c3 -5 1 -12
-5 -16 -5 -3 -10 1 -10 9 0 18 6 21 15 7z m325 -11 c0 -5 -4 -10 -10 -10 -5 0
-10 5 -10 10 0 6 5 10 10 10 6 0 10 -4 10 -10z m-562 -45 c-3 -3 -9 2 -12 12
-6 14 -5 15 5 6 7 -7 10 -15 7 -18z m1610 -14 c2 -23 -2 -37 -12 -43 -20 -11
-20 -47 -1 -72 10 -13 15 -44 15 -93 l0 -73 -45 7 c-33 4 -51 1 -71 -11 -14
-10 -28 -16 -30 -13 -3 2 -10 38 -18 79 -14 82 -7 118 23 118 17 0 18 5 14 40
-5 34 -2 43 26 70 24 25 38 31 63 28 29 -3 33 -7 36 -37z m-1048 -7 c0 -8 -5
-12 -10 -9 -6 4 -8 11 -5 16 9 14 15 11 15 -7z m-287 -1 c-7 -2 -13 -16 -13
-29 0 -27 -12 -31 -30 -9 -16 20 3 45 34 44 11 0 15 -3 9 -6z m63 -13 c8 0 14
-7 14 -16 0 -8 -4 -12 -10 -9 -5 3 -10 1 -10 -4 0 -6 -6 -11 -14 -11 -8 0 -16
-5 -18 -11 -2 -7 -9 -10 -14 -8 -7 3 -8 16 -2 37 7 24 13 32 24 28 9 -3 22 -6
30 -6z m62 -12 c-2 -13 -10 -23 -18 -23 -8 0 -16 10 -18 23 -3 17 2 22 18 22
16 0 21 -5 18 -22z m424 -3 c-3 -20 -7 -23 -18 -14 -11 9 -11 15 -3 25 18 21
27 17 21 -11z m58 -5 c0 -11 -6 -20 -14 -20 -18 0 -29 16 -21 30 11 18 35 11
35 -10z m33 -2 l4 -23 8 23 c9 27 30 24 30 -4 0 -10 -8 -20 -18 -22 -21 -4
-47 15 -47 34 0 23 18 16 23 -8z m-1243 -8 c-10 -7 -11 -10 -2 -10 6 0 12 -7
12 -15 0 -18 -12 -19 -28 -3 -17 17 -15 36 6 40 23 6 30 -1 12 -12z m1606 -17
c-11 -11 -19 6 -11 24 8 17 8 17 12 0 3 -10 2 -21 -1 -24z m26 5 c-7 -7 -12
-8 -12 -2 0 6 3 14 7 17 3 4 9 5 12 2 2 -3 -1 -11 -7 -17z m308 -9 c0 -11 -4
-17 -10 -14 -5 3 -10 13 -10 21 0 8 5 14 10 14 6 0 10 -9 10 -21z m-1260 -10
c0 -6 7 -9 15 -5 8 3 15 4 15 2 0 -2 9 -40 21 -86 11 -45 18 -88 15 -96 -3 -7
-17 -15 -33 -17 -18 -3 -15 -4 10 -3 20 1 37 -2 37 -6 0 -5 -16 -8 -35 -8 -19
0 -35 -4 -35 -9 0 -5 18 -7 39 -4 36 5 41 3 56 -27 15 -29 15 -33 1 -49 -9
-10 -16 -25 -16 -34 0 -11 -8 -17 -24 -17 -13 0 -35 -9 -49 -20 -26 -20 -26
-20 -36 -1 -6 11 -8 26 -5 35 3 9 -16 37 -55 76 -50 52 -59 66 -50 81 5 11 15
19 21 19 7 0 7 4 0 13 -11 14 3 61 16 53 5 -3 8 10 7 29 -2 21 2 35 9 35 7 0
6 4 -2 9 -10 6 -9 10 7 14 26 6 26 -1 5 -130 -8 -53 -13 -102 -10 -109 8 -22
25 -16 19 6 -4 16 21 211 32 248 5 15 25 16 25 1z m500 -19 c0 -5 -7 -7 -15
-4 -8 4 -15 8 -15 10 0 2 7 4 15 4 8 0 15 -4 15 -10z m75 0 c-3 -5 -15 -10
-26 -10 -10 0 -19 -4 -19 -8 0 -4 12 -8 27 -7 40 0 45 -34 6 -36 l-28 -2 28
-4 c15 -2 28 -9 29 -14 4 -28 1 -34 -22 -41 -24 -7 -24 -7 4 -5 16 1 31 -4 33
-10 3 -8 -4 -13 -19 -13 -22 0 -64 -19 -43 -20 6 0 3 -5 -5 -11 -11 -7 -6 -8
20 -3 19 3 38 11 41 16 9 14 16 0 27 -48 9 -39 9 -40 -17 -36 -15 2 -42 -1
-61 -7 -33 -10 -32 -11 16 -6 53 6 84 -1 84 -16 0 -5 -8 -9 -18 -9 -10 0 -31
-18 -48 -40 -23 -32 -35 -40 -61 -40 -18 0 -33 -4 -33 -9 0 -5 15 -7 33 -5 24
4 28 2 17 -5 -8 -6 -27 -11 -41 -11 -35 0 -40 23 -24 108 7 37 18 108 25 157
17 128 18 133 38 138 31 8 43 7 37 -3z m485 0 c0 -5 -10 -10 -22 -9 -22 0 -22
1 -3 9 11 5 21 9 23 9 1 1 2 -3 2 -9z m-75 -147 c-2 -207 2 -193 -42 -187
l-38 4 34 -13 c44 -17 55 -41 14 -31 -15 4 -36 11 -45 15 -9 5 -25 9 -35 8
-17 0 -17 -1 0 -8 17 -6 18 -8 3 -20 -21 -17 -28 -11 -29 30 -2 27 2 34 23 40
14 4 19 7 13 8 -7 1 -13 8 -13 16 0 12 7 14 26 9 19 -5 25 -4 20 5 -4 6 -14
11 -22 11 -8 0 -13 4 -9 10 4 6 15 6 31 0 31 -12 34 -12 34 0 0 5 -11 12 -25
16 -24 6 -36 34 -14 34 5 0 7 5 3 11 -5 8 1 10 19 7 15 -3 24 -1 21 3 -3 5
-11 9 -19 9 -17 0 -13 29 6 41 10 6 10 9 2 9 -19 0 -16 38 5 49 9 6 11 11 5
11 -20 0 -15 20 5 21 10 0 12 3 5 6 -19 7 -16 23 5 23 16 0 18 -12 17 -137z
m-489 105 c-3 -13 -10 -57 -16 -98 -25 -164 -43 -241 -56 -236 -7 3 -29 8 -48
12 -20 3 -36 11 -36 16 0 5 13 7 30 3 19 -4 30 -3 30 4 0 6 -9 11 -21 11 -12
0 -19 5 -16 13 2 6 11 11 21 9 19 -3 21 9 4 26 -9 9 -5 12 18 13 16 1 22 3 12
6 -10 2 -18 9 -18 14 0 6 10 8 23 4 22 -6 22 -6 2 11 -20 16 -20 16 5 11 l25
-6 -25 19 -25 20 30 1 c17 1 22 3 13 6 -10 2 -18 9 -18 14 0 5 8 9 18 10 10 0
12 3 5 6 -15 6 -18 43 -3 43 5 0 8 14 6 31 -2 19 1 32 10 36 8 3 11 9 8 14 -3
5 2 9 11 9 11 0 14 -7 11 -22z m569 12 c3 -6 -6 -11 -22 -11 l-28 -2 27 -4
c23 -4 28 -11 33 -41 3 -20 8 -45 10 -54 2 -14 -4 -18 -31 -18 -19 0 -34 -4
-34 -8 0 -4 16 -6 35 -4 21 3 35 0 35 -7 0 -6 -8 -11 -17 -11 -10 0 -25 -5
-33 -11 -12 -8 -9 -9 12 -5 17 4 32 1 42 -10 23 -22 20 -44 -6 -45 -13 0 -32
-4 -43 -9 -14 -6 -7 -8 25 -5 l45 5 -37 -13 c-20 -6 -40 -16 -45 -21 -5 -5 0
-6 12 -2 29 11 85 20 85 13 0 -3 -23 -13 -51 -22 -28 -9 -48 -19 -46 -22 3 -2
26 3 52 12 67 22 68 11 1 -19 -31 -14 -56 -28 -56 -31 0 -3 14 2 31 10 32 17
53 17 41 0 -4 -6 -23 -18 -42 -28 -32 -16 -27 -17 18 -1 9 4 0 -6 -22 -21 -31
-22 -40 -25 -47 -14 -9 15 -12 371 -2 395 6 16 49 19 58 4z m-1705 -32 c0 -52
-25 -218 -33 -218 -4 0 -6 -3 -4 -7 2 -5 -2 -24 -9 -43 -10 -25 -13 -28 -10
-10 2 14 5 31 7 39 2 7 -2 16 -10 19 -8 3 -11 0 -7 -7 5 -7 -1 -11 -13 -11
-23 0 -26 7 -12 29 5 7 15 10 22 7 8 -4 6 -1 -3 7 -23 18 -23 27 -1 27 13 0
14 3 5 12 -18 18 -15 28 11 29 16 1 18 2 5 6 -26 6 -22 23 5 24 16 1 18 2 5 6
-26 6 -22 23 5 23 20 1 21 2 5 14 -10 7 -18 16 -18 20 0 3 8 7 18 7 16 1 16 2
0 6 -10 2 -18 9 -18 14 0 5 8 9 18 9 14 0 15 2 2 10 -12 8 -11 10 8 10 16 0
22 -6 22 -22z m-160 -42 c0 -2 -7 -7 -16 -10 -8 -3 -12 -2 -9 4 6 10 25 14 25
6z m69 -27 c4 -32 -40 -170 -53 -166 -6 2 -10 15 -8 30 2 19 -3 29 -20 38 -29
15 -38 28 -37 54 0 11 3 14 6 8 7 -19 23 -15 23 5 0 28 48 65 75 58 6 -1 12
-13 14 -27z m581 16 c20 -25 -4 -69 -33 -61 -12 3 -29 6 -37 6 -8 0 -26 9 -39
19 l-24 19 29 15 c37 21 88 21 104 2z m-453 -15 c-4 -14 0 -20 11 -21 76 -3
82 -22 19 -53 -59 -29 -83 -34 -53 -11 15 11 16 15 5 16 -8 0 0 7 16 15 l30
15 -27 -6 c-25 -5 -28 -3 -28 23 0 30 7 42 23 42 5 0 7 -9 4 -20z m1003 11
c12 -8 12 -17 -4 -66 -9 -31 -33 -83 -52 -115 -19 -32 -34 -61 -34 -64 0 -19
121 -47 195 -47 l50 1 -31 -14 c-37 -16 -47 -37 -34 -71 12 -33 35 -41 73 -27
24 9 28 9 19 0 -7 -7 -12 -20 -12 -29 0 -20 -70 -34 -116 -24 -22 5 -25 4 -14
-4 13 -9 13 -11 -2 -11 -9 0 -26 12 -37 27 -12 14 -24 23 -27 20 -8 -8 -27 12
-39 38 -7 18 -9 17 -14 -9 -7 -34 -28 -45 -38 -20 -6 16 -7 16 -14 -2 -6 -17
-8 -16 -14 8 -9 36 0 58 24 58 32 0 32 15 0 42 -28 25 -36 22 -30 -14 2 -14
-16 -8 -33 11 -21 23 -24 94 -5 117 8 10 22 14 40 10 19 -3 29 0 33 10 3 8 16
19 28 24 l23 9 -22 0 c-12 1 -29 -9 -37 -21 -13 -18 -16 -19 -16 -5 0 22 45
51 67 43 17 -6 17 -5 1 8 -10 7 -18 19 -18 26 0 10 3 10 15 0 12 -10 15 -9 15
7 0 10 6 25 13 32 10 12 9 13 -7 7 -19 -7 -19 -6 -1 14 22 25 9 27 -19 3 -20
-17 -20 -17 -6 1 12 15 43 34 60 35 3 0 12 -3 20 -8z m421 -43 c6 -10 13 -8
29 10 20 21 40 29 40 16 0 -3 -10 -14 -22 -25 l-23 -19 30 5 c26 5 27 4 8 -4
-25 -11 -32 -27 -8 -17 20 7 20 5 -17 -70 -41 -84 -69 -98 -105 -55 -14 16
-37 33 -53 36 -22 5 -50 38 -50 60 0 13 18 3 26 -14 8 -18 11 -19 29 -4 20 15
20 15 -2 8 -17 -5 -23 -2 -23 10 0 8 10 20 23 26 19 8 18 9 -7 4 -26 -6 -28
-4 -17 9 8 9 28 17 45 17 29 2 29 2 4 6 -15 2 -37 -1 -50 -8 -21 -11 -22 -11
-9 4 28 35 132 39 152 5z m-1219 -19 c-29 -16 -58 -29 -63 -27 -10 3 89 58
106 58 6 0 -14 -14 -43 -31z m598 22 c0 -5 -9 -13 -20 -16 -13 -4 -20 -15 -20
-31 0 -29 16 -32 23 -4 10 40 101 33 115 -9 4 -11 -2 -12 -23 -7 -34 9 -65 -1
-65 -20 0 -18 8 -18 27 1 20 21 28 12 12 -13 -18 -28 -44 -33 -86 -16 -33 14
-35 18 -30 50 4 20 2 32 -4 29 -5 -4 -9 -2 -9 3 0 6 8 13 17 16 15 6 15 8 3
16 -11 7 -5 10 23 10 20 0 37 -4 37 -9z m-500 -6 c0 -2 -15 -8 -32 -13 -18 -6
-42 -13 -53 -16 -11 -4 -2 3 20 14 38 19 65 25 65 15z m30 -25 c-10 -6 6 -8
45 -5 l60 4 -50 -9 c-27 -5 -55 -8 -62 -5 -6 2 -23 -7 -37 -20 -34 -32 -33
-19 1 17 15 15 34 28 42 28 14 0 14 -2 1 -10z m1512 -19 c25 -24 13 -71 -19
-71 -13 0 -34 -5 -45 -11 -29 -16 -45 3 -32 38 10 30 51 46 72 30 7 -5 16 -7
19 -3 13 13 -21 27 -52 21 -16 -3 -36 -13 -43 -23 -13 -16 -14 -16 -10 3 4 24
46 47 73 39 11 -3 28 -13 37 -23z m-1862 -41 c0 -5 -4 -10 -10 -10 -5 0 -10 5
-10 10 0 6 5 10 10 10 6 0 10 -4 10 -10z m-200 -10 c8 13 10 13 10 -1 0 -17
-24 -32 -34 -22 -3 4 -6 13 -6 22 0 14 2 14 10 1 9 -13 11 -13 20 0z m180 -35
c-7 -9 -15 -13 -17 -11 -7 7 7 26 19 26 6 0 6 -6 -2 -15z m820 -5 c0 -5 -7 -7
-15 -4 -8 4 -15 8 -15 10 0 2 7 4 15 4 8 0 15 -4 15 -10z m565 -37 c13 -16 25
-33 25 -39 0 -13 30 -28 38 -19 3 3 0 5 -6 5 -7 0 -12 5 -12 10 0 6 7 10 15
10 18 0 37 -43 29 -65 -8 -20 6 -19 22 3 10 12 13 13 14 3 0 -9 9 -4 25 13 13
14 30 26 36 26 7 0 3 -9 -9 -20 -31 -30 -27 -34 8 -9 36 27 55 16 65 -39 7
-36 7 -37 24 -16 19 24 79 65 68 47 -5 -8 -3 -13 7 -13 11 0 16 9 16 28 0 16
7 37 15 48 13 17 14 16 8 -17 -3 -22 -1 -39 6 -43 7 -5 11 4 11 27 0 38 20 61
64 71 15 4 26 10 23 13 -3 3 -20 1 -36 -5 -17 -6 -31 -7 -31 -2 0 9 69 35 75
28 7 -7 7 -226 0 -238 -4 -7 -21 -19 -39 -27 -29 -13 -15 -12 34 3 32 10 25
-20 -12 -51 -25 -21 -39 -26 -65 -22 -22 4 -31 2 -27 -5 7 -11 55 -7 89 7 18
8 18 7 6 -8 -18 -22 -77 -32 -108 -18 -19 9 -24 9 -20 -1 3 -9 23 -13 60 -12
34 1 54 -3 51 -8 -4 -6 6 -2 21 8 22 14 27 15 23 4 -2 -8 -19 -25 -38 -37 -45
-31 -112 -31 -140 -1 -17 19 -20 19 -20 4 0 -18 64 -51 80 -41 6 4 10 1 10 -5
0 -8 -13 -10 -42 -5 -47 8 -98 48 -98 77 0 10 -4 18 -10 18 -15 0 -12 -33 6
-58 24 -35 68 -52 131 -51 32 0 52 3 46 6 -17 6 -16 23 1 23 7 0 25 9 39 20
14 11 28 20 31 20 4 0 2 -9 -4 -20 -8 -15 -8 -20 2 -20 7 0 3 -9 -9 -22 -30
-30 -118 -36 -178 -13 -48 18 -85 56 -85 86 0 11 -4 19 -9 19 -34 0 -10 -65
36 -96 69 -47 143 -57 210 -29 19 8 37 15 39 15 2 0 3 -170 2 -377 l-3 -378
-115 1 c-63 0 -146 1 -185 2 -38 1 -236 0 -440 -1 -203 -2 -400 -1 -437 1
l-67 4 -11 36 c-6 20 -15 46 -19 57 -61 157 -65 184 -51 345 7 80 14 164 14
188 0 23 3 42 6 42 3 0 23 -16 45 -35 56 -50 93 -68 142 -70 24 -2 49 -8 57
-14 10 -9 20 -9 33 -3 10 6 41 13 68 17 83 12 122 32 129 66 5 26 9 29 46 29
23 0 50 5 60 10 11 6 46 13 80 17 63 6 79 19 33 26 -20 3 -15 4 15 6 46 1 59
21 15 21 -16 0 -35 5 -43 10 -11 7 0 10 38 10 76 0 56 17 -31 26 l-72 7 47 14
c69 20 69 33 1 29 -32 -1 -65 -6 -74 -10 -13 -6 -16 -2 -11 20 8 42 -18 25
-37 -24 -24 -62 -50 -76 -109 -62 -26 6 -60 14 -75 17 -16 3 -31 12 -34 19 -3
8 -13 14 -23 14 -10 0 -29 13 -42 29 -12 16 -36 45 -53 66 -49 60 -49 62 -7
70 20 4 43 12 50 17 9 8 20 4 40 -15 18 -17 39 -27 58 -27 16 0 47 -9 68 -20
62 -31 117 -35 170 -12 26 12 48 17 51 11 8 -13 115 -11 153 2 29 10 34 8 56
-18 21 -24 31 -28 75 -26 28 0 51 -3 51 -8 0 -5 7 -9 15 -9 11 0 13 4 6 18 -5
9 -13 26 -16 37 -6 16 -8 17 -13 5 -7 -21 -23 -30 -53 -30 -34 0 -49 19 -56
70 -6 45 -18 52 -27 16 -6 -25 -66 -56 -111 -56 -39 0 -75 18 -75 37 1 17 1
17 11 1 5 -10 18 -18 27 -18 15 0 15 2 2 10 -12 8 -13 12 -2 19 18 11 14 22
-15 45 -23 17 -25 17 -43 1 -17 -15 -19 -15 -29 2 -10 17 -10 17 -12 -2 -1
-13 -4 -10 -8 10 -9 38 -6 45 25 45 20 0 24 5 26 33 1 27 2 26 8 -13 4 -25 8
-35 8 -22 1 13 7 20 12 17 6 -3 10 2 10 12 0 10 7 28 15 41 15 20 15 21 -1 15
-30 -11 -4 18 30 33 30 15 31 15 4 11 -34 -5 -36 1 -5 12 29 11 62 -2 92 -36z
m-1545 33 c0 -2 -11 -6 -25 -8 -13 -3 -22 -1 -19 3 5 9 44 13 44 5z m930 -11
c-7 -9 -15 -13 -17 -11 -7 7 7 26 19 26 6 0 6 -6 -2 -15z m47 -55 c2 -29 10
-61 18 -70 13 -14 12 -20 -3 -50 -9 -19 -26 -37 -36 -39 -19 -3 -19 -3 -1 15
17 17 17 19 2 22 -18 4 -50 -22 -40 -32 4 -3 1 -6 -4 -6 -21 0 -65 63 -60 86
2 13 -1 25 -7 27 -8 3 -7 11 2 27 13 21 12 22 -3 16 -15 -5 -16 -4 -6 8 8 10
23 13 45 9 27 -4 35 -1 50 22 25 38 39 27 43 -35z m426 26 c-10 -13 -20 -22
-22 -20 -4 4 29 44 36 44 2 0 -4 -11 -14 -24z m-1393 10 c0 -3 -4 -8 -10 -11
-5 -3 -10 -1 -10 4 0 6 5 11 10 11 6 0 10 -2 10 -4z m60 -26 c0 -22 -7 -25
-29 -11 -16 10 -6 31 15 31 8 0 14 -9 14 -20z m-50 -21 c0 -5 -12 -14 -27 -20
-21 -8 -30 -6 -42 7 -15 15 -14 16 9 9 20 -6 23 -5 13 6 -21 22 -15 29 17 18
17 -6 30 -15 30 -20z m33 -48 c-12 -10 -19 -22 -15 -26 4 -4 -4 -5 -18 -1 -14
4 -36 10 -50 13 -24 6 -24 5 -9 -17 9 -13 21 -25 28 -26 6 -1 7 0 1 3 -22 11
-8 18 34 18 26 0 42 -4 39 -10 -29 -51 -82 -61 -109 -20 -24 37 -12 75 25 75
15 0 36 9 46 20 17 19 20 19 34 5 15 -15 14 -18 -6 -34z m727 16 c0 -5 -4 -5
-10 -2 -5 3 -10 14 -10 23 0 15 2 15 10 2 5 -8 10 -19 10 -23z m-647 -267 c14
-58 33 -150 42 -205 8 -55 18 -115 21 -133 3 -21 -3 -49 -16 -80 -24 -53 -50
-237 -50 -349 l0 -73 -89 0 -88 0 -6 133 c-3 72 -6 300 -6 505 l-2 373 31 -16
c35 -18 88 -12 97 11 9 24 39 -52 66 -166z m747 105 c0 -5 -5 -3 -10 5 -5 8
-10 20 -10 25 0 6 5 3 10 -5 5 -8 10 -19 10 -25z m75 -85 l20 -25 -22 19 c-13
11 -23 24 -23 29 0 6 1 8 3 6 1 -2 11 -15 22 -29z m28 -45 c-3 -9 -8 -14 -10
-11 -3 3 -2 9 2 15 9 16 15 13 8 -4z m184 -147 c-2 -13 -4 -5 -4 17 -1 22 1
32 4 23 2 -10 2 -28 0 -40z"/>
<path d="M1540 3720 c-23 -23 -28 -87 -6 -87 7 0 13 5 13 11 -2 24 16 86 24
86 5 0 9 -6 9 -12 0 -9 3 -9 9 1 5 8 16 11 25 8 8 -3 18 -2 21 3 12 20 -74 11
-95 -10z"/>
<path d="M930 3705 c0 -8 4 -15 8 -15 12 0 53 -76 45 -84 -3 -3 -15 -6 -25 -6
-10 0 -18 -4 -18 -8 0 -7 85 -8 223 -4 26 1 47 7 47 12 0 6 -6 10 -14 10 -8 0
-16 14 -19 33 -4 24 -1 35 14 46 10 7 19 17 19 22 0 5 -63 9 -140 9 -118 0
-140 -2 -140 -15z m89 -57 l-12 -23 -13 30 c-11 28 -10 30 9 36 27 6 33 -11
16 -43z m59 -11 c-2 -14 -11 -23 -25 -25 -27 -4 -27 -5 -7 44 14 32 17 35 26
21 5 -10 8 -28 6 -40z m62 19 c0 -19 -4 -37 -9 -40 -11 -7 -25 49 -16 64 13
21 25 9 25 -24z"/>
<path d="M1102 3515 c0 -16 2 -22 5 -12 2 9 2 23 0 30 -3 6 -5 -1 -5 -18z"/>
<path d="M1120 3510 c0 -16 4 -30 9 -30 5 0 11 14 13 30 3 20 0 30 -9 30 -8 0
-13 -12 -13 -30z"/>
<path d="M1187 3516 c-8 -27 -9 -27 -22 -10 -14 18 -14 18 -15 -2 0 -12 7 -27
15 -34 12 -10 16 -7 25 16 6 15 9 35 7 43 -2 10 -6 4 -10 -13z"/>
<path d="M1210 3504 c-14 -36 -13 -40 15 -70 14 -15 25 -33 25 -40 0 -17 8
-17 40 1 14 8 19 14 12 15 -7 0 -10 5 -7 10 3 6 2 10 -4 10 -5 0 -13 -4 -16
-10 -3 -5 -1 -10 6 -10 7 0 10 -2 7 -5 -3 -3 -13 -3 -22 1 -15 6 -15 9 6 32
l23 25 -30 -19 -30 -18 23 25 c33 38 27 47 -10 13 l-31 -29 22 40 23 40 -27
-30 c-26 -29 -26 -29 -19 -5 4 14 9 31 11 38 3 6 2 12 -1 12 -4 0 -11 -12 -16
-26z"/>
<path d="M1064 3506 c-8 -20 9 -47 23 -38 14 9 6 52 -8 52 -6 0 -12 -6 -15
-14z"/>
<path d="M1024 3463 c16 -20 36 -23 36 -6 0 4 -3 3 -7 0 -3 -4 -16 1 -27 10
-21 18 -21 18 -2 -4z"/>
<path d="M996 3435 c10 -8 24 -14 29 -14 6 0 1 6 -9 14 -11 8 -24 15 -30 15
-5 0 -1 -7 10 -15z"/>
<path d="M940 3425 c0 -7 61 -47 66 -42 3 2 -11 14 -31 25 -19 12 -35 20 -35
17z"/>
<path d="M960 3381 c14 -11 32 -21 40 -21 13 0 5 5 -52 35 -7 4 -2 -3 12 -14z"/>
<path d="M1280 3375 c-14 -8 -20 -14 -14 -15 5 0 19 7 30 15 24 18 16 19 -16
0z"/>
<path d="M936 3358 c5 -8 2 -9 -9 -5 -28 11 -19 -1 13 -18 34 -17 44 -19 35
-5 -3 6 0 10 7 10 7 1 2 7 -12 15 -31 18 -44 19 -34 3z m31 -14 c-3 -3 -12 -4
-19 -1 -8 3 -5 6 6 6 11 1 17 -2 13 -5z"/>
<path d="M1290 3350 c-8 -5 -10 -10 -5 -10 6 0 17 5 25 10 8 5 11 10 5 10 -5
0 -17 -5 -25 -10z"/>
<path d="M1060 3329 c0 -12 -28 -51 -84 -115 -21 -24 -36 -47 -33 -50 6 -7 74
66 99 106 9 15 21 31 27 34 14 9 14 36 1 36 -5 0 -10 -5 -10 -11z"/>
<path d="M1092 3319 c-5 -13 -15 -55 -21 -94 -18 -105 -18 -106 -47 -95 -48
19 -49 9 -1 -15 47 -24 79 -35 45 -14 -13 7 -15 14 -8 27 11 19 50 205 44 211
-2 2 -7 -7 -12 -20z"/>
<path d="M1290 3320 c-18 -12 -2 -12 25 0 13 6 15 9 5 9 -8 0 -22 -4 -30 -9z"/>
<path d="M896 3311 c5 -5 20 -12 34 -15 l25 -7 -25 15 c-28 17 -50 21 -34 7z"/>
<path d="M1121 3238 c-1 -42 -4 -83 -7 -92 -3 -9 -2 -16 4 -16 14 0 25 131 13
161 -8 19 -10 8 -10 -53z"/>
<path d="M1200 3306 c0 -2 7 -17 15 -32 8 -16 15 -36 15 -44 1 -16 29 -71 30
-57 1 20 -43 137 -51 137 -5 0 -9 -2 -9 -4z"/>
<path d="M850 3297 c0 -12 74 -47 82 -39 5 5 3 14 -5 20 -15 13 -77 28 -77 19z
m75 -27 c3 -5 2 -10 -4 -10 -5 0 -13 5 -16 10 -3 6 -2 10 4 10 5 0 13 -4 16
-10z"/>
<path d="M1169 3278 c5 -12 12 -35 15 -50 4 -16 10 -28 15 -28 13 0 -13 93
-27 98 -9 3 -10 -2 -3 -20z"/>
<path d="M1298 3293 c7 -3 16 -2 19 1 4 3 -2 6 -13 5 -11 0 -14 -3 -6 -6z"/>
<path d="M1325 3280 c-25 -11 1 -11 35 0 20 6 21 8 5 8 -11 0 -29 -3 -40 -8z"/>
<path d="M852 3265 c4 -4 3 -16 -2 -26 -8 -13 -6 -20 7 -28 28 -16 5 -13 -27
4 -17 9 -30 13 -30 10 0 -2 17 -13 38 -24 36 -18 39 -19 49 -2 9 14 7 20 -9
30 -11 7 -17 15 -14 18 3 3 12 0 21 -7 9 -7 18 -10 21 -7 3 3 -9 13 -28 23
-18 9 -30 13 -26 9z"/>
<path d="M1358 3263 c7 -3 16 -2 19 1 4 3 -2 6 -13 5 -11 0 -14 -3 -6 -6z"/>
<path d="M1370 3220 c0 -5 7 -7 15 -4 8 4 15 8 15 10 0 2 -7 4 -15 4 -8 0 -15
-4 -15 -10z"/>
<path d="M1405 3210 c-13 -6 -15 -9 -5 -9 8 0 22 4 30 9 18 12 2 12 -25 0z"/>
<path d="M1425 3190 c-13 -5 -14 -9 -5 -9 8 0 24 4 35 9 13 5 14 9 5 9 -8 0
-24 -4 -35 -9z"/>
<path d="M1505 3185 c-25 -12 -26 -14 -5 -9 28 7 60 23 45 23 -5 0 -23 -6 -40
-14z"/>
<path d="M747 3169 c7 -7 15 -10 18 -7 3 3 -2 9 -12 12 -14 6 -15 5 -6 -5z"/>
<path d="M800 3170 c8 -5 20 -10 25 -10 6 0 3 5 -5 10 -8 5 -19 10 -25 10 -5
0 -3 -5 5 -10z"/>
<path d="M1550 3170 c-18 -12 -2 -12 25 0 13 6 15 9 5 9 -8 0 -22 -4 -30 -9z"/>
<path d="M1249 3134 c-31 -20 -75 -38 -98 -41 -23 -3 -41 -10 -41 -15 0 -23
136 23 181 62 46 40 26 37 -42 -6z"/>
<path d="M1448 3163 c7 -3 16 -2 19 1 4 3 -2 6 -13 5 -11 0 -14 -3 -6 -6z"/>
<path d="M780 3156 c0 -2 7 -7 16 -10 8 -3 12 -2 9 4 -6 10 -25 14 -25 6z"/>
<path d="M1400 3150 c8 -5 20 -10 25 -10 6 0 3 5 -5 10 -8 5 -19 10 -25 10 -5
0 -3 -5 5 -10z"/>
<path d="M1498 3153 c7 -3 16 -2 19 1 4 3 -2 6 -13 5 -11 0 -14 -3 -6 -6z"/>
<path d="M1593 3153 c9 -2 23 -2 30 0 6 3 -1 5 -18 5 -16 0 -22 -2 -12 -5z"/>
<path d="M750 3146 c0 -2 7 -7 16 -10 8 -3 12 -2 9 4 -6 10 -25 14 -25 6z"/>
<path d="M720 3130 c8 -5 22 -9 30 -9 10 0 8 3 -5 9 -27 12 -43 12 -25 0z"/>
<path d="M1305 3116 c-27 -14 -43 -25 -35 -25 9 -1 24 5 35 13 11 7 34 18 50
24 17 6 23 11 15 11 -8 0 -37 -10 -65 -23z"/>
<path d="M1598 3133 c7 -3 16 -2 19 1 4 3 -2 6 -13 5 -11 0 -14 -3 -6 -6z"/>
<path d="M1828 3133 c6 -2 18 -2 25 0 6 3 1 5 -13 5 -14 0 -19 -2 -12 -5z"/>
<path d="M680 3116 c0 -2 11 -6 25 -8 13 -3 22 -1 19 3 -5 9 -44 13 -44 5z"/>
<path d="M1608 3113 c7 -3 16 -2 19 1 4 3 -2 6 -13 5 -11 0 -14 -3 -6 -6z"/>
<path d="M1618 3093 c7 -3 16 -2 19 1 4 3 -2 6 -13 5 -11 0 -14 -3 -6 -6z"/>
<path d="M675 3081 c19 -8 18 -9 -5 -13 -24 -5 -24 -5 3 -7 16 0 35 6 43 14
14 13 11 15 -23 14 -29 0 -33 -2 -18 -8z"/>
<path d="M1618 3073 c6 -2 18 -2 25 0 6 3 1 5 -13 5 -14 0 -19 -2 -12 -5z"/>
<path d="M1618 3053 c6 -2 18 -2 25 0 6 3 1 5 -13 5 -14 0 -19 -2 -12 -5z"/>
<path d="M650 3040 c-13 -9 -13 -10 0 -9 8 1 26 5 40 9 l25 8 -25 1 c-14 0
-32 -4 -40 -9z"/>
<path d="M832 3010 c-5 -22 -6 -40 -2 -40 9 0 24 69 17 76 -2 3 -9 -13 -15
-36z"/>
<path d="M805 3014 c-4 -16 -8 -35 -11 -41 -2 -7 0 -13 5 -13 9 0 23 71 16 78
-2 2 -7 -9 -10 -24z"/>
<path d="M858 3005 c-5 -39 6 -34 16 8 3 15 2 27 -3 27 -5 0 -11 -16 -13 -35z"/>
<path d="M885 3000 c-4 -17 -5 -34 -2 -36 3 -3 8 9 12 26 4 17 5 34 2 36 -3 3
-8 -9 -12 -26z"/>
<path d="M655 3009 c-16 -7 -13 -8 13 -4 l33 5 -28 -25 c-15 -13 -23 -25 -17
-25 6 0 17 7 24 15 22 27 31 16 15 -17 l-16 -33 25 30 c26 30 34 51 16 40 -5
-3 -10 1 -10 9 0 18 -24 20 -55 5z"/>
<path d="M1401 3010 c0 -8 4 -22 9 -30 12 -18 12 -2 0 25 -6 13 -9 15 -9 5z"/>
<path d="M1868 3013 c6 -2 18 -2 25 0 6 3 1 5 -13 5 -14 0 -19 -2 -12 -5z"/>
<path d="M766 2975 c-22 -52 -19 -58 5 -12 11 22 18 41 15 44 -3 3 -12 -12
-20 -32z"/>
<path d="M1718 2998 c6 -6 18 -8 28 -6 14 3 12 5 -9 10 -19 3 -25 2 -19 -4z"/>
<path d="M728 2963 c-24 -51 -14 -54 12 -4 11 23 17 41 13 41 -5 -1 -16 -17
-25 -37z"/>
<path d="M1381 2990 c0 -8 4 -22 9 -30 12 -18 12 -2 0 25 -6 13 -9 15 -9 5z"/>
<path d="M1888 2993 c7 -3 16 -2 19 1 4 3 -2 6 -13 5 -11 0 -14 -3 -6 -6z"/>
<path d="M1848 2983 c7 -3 16 -2 19 1 4 3 -2 6 -13 5 -11 0 -14 -3 -6 -6z"/>
<path d="M1695 2970 c3 -6 16 -10 28 -11 20 -1 20 -2 -3 -9 l-25 -8 25 -1 c14
-1 36 -4 49 -8 25 -6 25 -6 5 14 -20 21 -90 41 -79 23z"/>
<path d="M1990 2970 c0 -5 15 -10 33 -10 33 -1 65 -21 85 -55 9 -15 11 -16 12
-4 0 20 -36 58 -67 70 -32 12 -63 12 -63 -1z"/>
<path d="M1565 2956 c-67 -30 -101 -86 -89 -146 l7 -35 7 30 8 30 1 -27 c1
-28 32 -68 52 -68 24 0 49 22 48 43 0 22 0 22 -9 1 -10 -25 -39 -39 -54 -24
-7 7 -3 10 12 10 16 0 22 6 22 22 l0 22 -22 -24 -22 -23 -8 28 c-11 42 0 72
36 100 17 14 25 25 17 25 -7 0 -29 -16 -47 -36 -19 -19 -34 -31 -34 -25 0 20
55 74 94 92 23 9 34 18 26 18 -8 0 -28 -6 -45 -13z"/>
<path d="M1868 2933 c7 -3 16 -2 19 1 4 3 -2 6 -13 5 -11 0 -14 -3 -6 -6z"/>
<path d="M1690 2921 c21 -12 99 -24 80 -13 -8 5 -33 12 -55 15 -23 4 -34 3
-25 -2z"/>
<path d="M2067 2906 c10 -13 19 -23 21 -21 7 6 -19 45 -29 45 -5 0 -2 -11 8
-24z"/>
<path d="M1715 2885 c22 -7 49 -14 60 -14 36 -1 -6 16 -55 22 l-45 5 40 -13z"/>
<path d="M1840 2783 c8 -3 18 -11 22 -17 5 -7 8 -4 8 7 0 11 -7 17 -22 16 -16
0 -18 -2 -8 -6z"/>
<path d="M1774 2745 c-26 -26 -30 -65 -8 -72 7 -2 10 6 6 23 -4 22 -2 26 11
21 9 -3 18 0 21 9 3 8 12 14 21 14 20 0 19 16 -1 24 -22 9 -22 9 -50 -19z"/>
<path d="M1393 2675 c-25 -17 -29 -41 -12 -65 8 -12 9 -10 4 7 -4 15 1 29 15
43 22 22 38 23 128 4 18 -3 32 -2 32 3 0 6 -12 11 -27 11 -16 1 -48 4 -73 7
-33 5 -51 2 -67 -10z"/>
<path d="M1426 2654 c-18 -17 -21 -34 -7 -34 5 0 11 9 14 20 6 25 27 25 73 1
35 -19 64 -19 64 1 0 5 -9 7 -20 3 -10 -3 -33 1 -49 9 -38 20 -56 20 -75 0z"/>
<path d="M879 2551 c-16 -16 -29 -34 -29 -39 0 -6 15 5 34 24 28 28 41 34 78
34 24 0 54 -7 66 -16 13 -9 22 -11 22 -4 0 16 -45 30 -96 30 -37 0 -51 -6 -75
-29z"/>
<path d="M1291 2534 c-12 -15 -21 -34 -21 -43 1 -9 7 -3 16 14 9 17 23 36 32
43 9 6 11 12 5 12 -7 0 -21 -12 -32 -26z"/>
<path d="M1471 2553 c-1 -6 -8 -19 -17 -27 -8 -9 -11 -16 -6 -16 15 0 34 28
29 42 -4 9 -6 9 -6 1z"/>
<path d="M1390 2543 c-59 -9 -70 -15 -85 -43 -24 -46 -17 -59 8 -15 19 34 29
41 65 46 23 3 45 8 48 12 4 4 3 6 -2 6 -5 -1 -20 -3 -34 -6z"/>
<path d="M1339 2481 c-16 -16 -29 -38 -29 -48 0 -13 5 -10 18 12 25 40 41 52
77 58 l30 4 -33 2 c-25 1 -41 -7 -63 -28z"/>
<path d="M1668 3553 c6 -2 18 -2 25 0 6 3 1 5 -13 5 -14 0 -19 -2 -12 -5z"/>
<path d="M1748 3553 c7 -3 16 -2 19 1 4 3 -2 6 -13 5 -11 0 -14 -3 -6 -6z"/>
<path d="M1685 3510 c3 -5 14 -10 23 -10 15 0 15 2 2 10 -20 13 -33 13 -25 0z"/>
<path d="M1838 3503 c12 -2 30 -2 40 0 9 3 -1 5 -23 4 -22 0 -30 -2 -17 -4z"/>
<path d="M1693 3483 c9 -2 25 -2 35 0 9 3 1 5 -18 5 -19 0 -27 -2 -17 -5z"/>
<path d="M1848 3473 c6 -2 18 -2 25 0 6 3 1 5 -13 5 -14 0 -19 -2 -12 -5z"/>
<path d="M1778 3433 c6 -2 18 -2 25 0 6 3 1 5 -13 5 -14 0 -19 -2 -12 -5z"/>
<path d="M1788 3403 c6 -2 18 -2 25 0 6 3 1 5 -13 5 -14 0 -19 -2 -12 -5z"/>
<path d="M340 3389 c0 -8 32 -29 44 -29 15 0 3 16 -19 27 -14 6 -25 7 -25 2z"/>
<path d="M428 3303 c6 -2 18 -2 25 0 6 3 1 5 -13 5 -14 0 -19 -2 -12 -5z"/>
<path d="M418 3264 c20 -14 24 -14 44 0 22 16 21 16 -22 16 -43 0 -44 0 -22
-16z"/>
<path d="M1030 2860 c25 -8 127 -13 119 -6 -2 2 -35 6 -74 9 -41 3 -60 2 -45
-3z"/>
<path d="M1035 2830 c19 -8 103 -14 94 -6 -2 2 -29 6 -59 9 -34 3 -47 2 -35
-3z"/>
<path d="M1050 2806 c3 -2 25 -9 49 -15 24 -5 39 -6 35 -1 -10 8 -92 25 -84
16z"/>
<path d="M1073 2733 c9 -2 25 -2 35 0 9 3 1 5 -18 5 -19 0 -27 -2 -17 -5z"/>
<path d="M1083 2703 c9 -2 23 -2 30 0 6 3 -1 5 -18 5 -16 0 -22 -2 -12 -5z"/>
<path d="M1107 2509 c7 -7 15 -10 18 -7 3 3 -2 9 -12 12 -14 6 -15 5 -6 -5z"/>
<path d="M1218 2443 c7 -3 16 -2 19 1 4 3 -2 6 -13 5 -11 0 -14 -3 -6 -6z"/>
<path d="M1208 2413 c7 -3 16 -2 19 1 4 3 -2 6 -13 5 -11 0 -14 -3 -6 -6z"/>
<path d="M1070 2326 c14 -8 27 -12 29 -10 6 6 -1 11 -29 18 l-25 7 25 -15z"/>
<path d="M1065 2296 c17 -8 32 -12 34 -10 7 6 -2 11 -34 17 l-30 6 30 -13z"/>
<path d="M1025 2250 l20 -9 -20 -1 c-33 -1 3 -17 55 -24 l45 -6 -40 15 -40 14
40 -4 c51 -6 18 9 -40 18 -28 5 -34 4 -20 -3z"/>
<path d="M114 2876 c-46 -20 -62 -79 -25 -89 14 -3 21 2 25 19 5 18 13 24 34
24 15 0 33 -5 40 -12 9 -9 12 -9 12 0 0 7 -12 18 -26 24 -21 10 -31 9 -55 -4
-34 -20 -39 -6 -7 16 31 22 64 20 88 -6 17 -18 20 -19 20 -5 0 9 -13 23 -30
32 -35 18 -36 18 -76 1z"/>
<path d="M191 2782 c-7 -13 -11 -28 -8 -35 2 -7 9 -2 16 11 7 13 11 28 8 35
-2 7 -9 2 -16 -11z"/>
<path d="M100 2725 c-19 -14 -27 -25 -19 -25 16 1 79 50 63 50 -5 0 -25 -11
-44 -25z"/>
<path d="M104 2697 c-15 -13 -23 -26 -18 -29 5 -4 22 7 38 23 35 35 19 39 -20
6z"/>
<path d="M1914 2750 c-31 -12 -54 -49 -54 -85 1 -29 1 -29 15 10 17 48 38 65
82 65 18 0 33 5 33 10 0 12 -47 12 -76 0z"/>
<path d="M1912 2704 c-12 -8 -22 -22 -22 -30 0 -11 4 -10 18 4 10 9 27 22 38
29 15 9 15 12 4 12 -9 1 -26 -6 -38 -15z"/>
<path d="M2005 2615 c-5 -2 -22 -6 -36 -9 -27 -6 -79 -51 -79 -69 0 -6 15 3
33 20 20 20 47 33 75 38 23 4 40 11 36 16 -5 9 -11 10 -29 4z"/>
<path d="M2110 2590 c14 -10 27 -17 29 -15 8 8 -22 35 -38 35 -12 0 -10 -5 9
-20z"/>
<path d="M1820 2590 c0 -5 5 -10 11 -10 5 0 7 5 4 10 -3 6 -8 10 -11 10 -2 0
-4 -4 -4 -10z"/>
<path d="M1850 2566 c0 -14 4 -27 8 -30 5 -3 9 8 9 24 0 17 -4 30 -9 30 -4 0
-8 -11 -8 -24z"/>
<path d="M1886 2511 c-4 -7 -5 -15 -2 -18 9 -9 19 4 14 18 -4 11 -6 11 -12 0z"/>
<path d="M1401 2439 c-13 -5 -21 -12 -18 -15 3 -3 14 -1 25 5 27 14 65 14 80
-1 6 -6 15 -8 19 -4 22 22 -60 33 -106 15z"/>
<path d="M1610 2431 c-18 -34 -12 -68 16 -90 46 -36 124 -20 124 25 0 21 -17
17 -23 -6 -8 -29 -34 -35 -74 -16 -35 16 -35 18 -29 61 6 49 2 56 -14 26z"/>
<path d="M1555 2420 c3 -5 10 -10 16 -10 5 0 9 5 9 10 0 6 -7 10 -16 10 -8 0
-12 -4 -9 -10z"/>
<path d="M1410 2410 c-11 -7 -5 -8 20 -4 43 8 51 14 19 14 -13 0 -31 -5 -39
-10z"/>
<path d="M1890 2400 c-8 -5 -12 -11 -9 -14 2 -3 11 -1 19 4 8 5 12 11 9 14 -2
3 -11 1 -19 -4z"/>
<path d="M756 2687 c-17 -12 -12 -13 37 -9 59 5 106 -8 141 -37 16 -14 18 -14
14 -1 -13 40 -154 75 -192 47z"/>
<path d="M688 2640 c-36 -20 -72 -59 -63 -69 3 -3 13 6 22 18 8 13 39 34 67
47 28 13 42 24 31 23 -11 0 -37 -9 -57 -19z"/>
<path d="M780 2645 c-31 -18 -28 -18 35 0 40 11 44 14 20 14 -16 0 -41 -6 -55
-14z"/>
<path d="M680 2600 c-14 -11 -20 -20 -15 -20 6 0 21 9 35 20 14 11 21 20 15
20 -5 0 -21 -9 -35 -20z"/>
<path d="M290 2552 c6 -13 14 -21 18 -18 3 4 -2 14 -12 24 -18 16 -18 16 -6
-6z"/>
<path d="M388 2563 c7 -3 16 -2 19 1 4 3 -2 6 -13 5 -11 0 -14 -3 -6 -6z"/>
<path d="M378 2538 c5 -5 16 -8 23 -6 8 3 3 7 -10 11 -17 4 -21 3 -13 -5z"/>
<path d="M697 2522 c-15 -15 -27 -35 -27 -43 1 -9 4 -7 11 6 6 11 23 30 38 42
14 13 21 23 15 23 -5 0 -22 -13 -37 -28z"/>
<path d="M787 2493 c-9 -9 -9 -51 1 -56 4 -3 8 10 9 29 2 36 1 38 -10 27z"/>
<path d="M180 2235 c0 -8 7 -15 15 -15 9 0 12 6 9 15 -4 8 -10 15 -15 15 -5 0
-9 -7 -9 -15z"/>
<path d="M508 2643 c7 -3 16 -2 19 1 4 3 -2 6 -13 5 -11 0 -14 -3 -6 -6z"/>
<path d="M505 2620 c-19 -8 -19 -9 2 -9 12 -1 25 4 28 9 7 12 -2 12 -30 0z"/>
<path d="M508 2593 c6 -2 18 -2 25 0 6 3 1 5 -13 5 -14 0 -19 -2 -12 -5z"/>
<path d="M520 2530 l-25 -8 25 0 c14 0 34 3 45 8 l20 9 -20 -1 c-11 0 -31 -4
-45 -8z"/>
<path d="M845 2370 c-10 -17 4 -28 27 -22 21 5 21 6 2 14 -14 6 -11 7 13 5 18
-2 30 0 27 5 -7 11 -62 10 -69 -2z"/>
<path d="M625 2351 c-89 -23 -155 -82 -155 -138 1 -26 2 -25 15 12 27 76 115
121 216 112 42 -4 58 -2 51 5 -14 14 -89 19 -127 9z"/>
<path d="M640 2321 c-87 -27 -141 -81 -150 -151 -4 -27 -3 -50 2 -50 9 0 19
37 16 65 -3 33 32 75 85 101 51 26 85 32 127 20 24 -7 24 -6 6 8 -21 17 -46
19 -86 7z"/>
<path d="M800 2324 c0 -3 4 -13 10 -23 7 -14 4 -23 -11 -37 -20 -18 -21 -18
-35 0 -7 11 -17 17 -20 13 -10 -10 16 -37 36 -37 29 0 62 48 49 71 -9 17 -29
27 -29 13z"/>
<path d="M912 2310 c0 -14 2 -19 5 -12 2 6 2 18 0 25 -3 6 -5 1 -5 -13z"/>
<path d="M777 2301 c3 -12 10 -21 15 -21 13 0 6 32 -9 37 -7 3 -9 -3 -6 -16z"/>
<path d="M881 2304 c0 -11 3 -14 6 -6 3 7 2 16 -1 19 -3 4 -6 -2 -5 -13z"/>
<path d="M937 2303 c-4 -3 -7 -11 -7 -17 0 -6 5 -5 12 2 6 6 9 14 7 17 -3 3
-9 2 -12 -2z"/>
<path d="M583 2254 c-26 -15 -43 -32 -43 -44 0 -10 -4 -22 -10 -25 -5 -3 -10
-19 -10 -34 0 -18 -8 -34 -22 -44 -13 -9 -17 -16 -10 -16 20 -1 52 37 52 63 0
58 38 101 105 117 27 6 28 7 5 8 -14 0 -44 -11 -67 -25z"/>
<path d="M700 2255 c0 -26 32 -50 56 -41 8 3 14 1 14 -4 0 -6 5 -10 11 -10 8
0 8 5 -1 15 -7 8 -23 15 -36 15 -19 0 -24 5 -24 25 0 14 -4 25 -10 25 -5 0
-10 -11 -10 -25z"/>
<path d="M841 2264 c0 -11 3 -14 6 -6 3 7 2 16 -1 19 -3 4 -6 -2 -5 -13z"/>
<path d="M710 2191 c0 -6 8 -11 18 -12 10 0 12 -3 4 -6 -13 -5 -7 -23 9 -23
18 0 5 45 -13 48 -10 2 -18 -1 -18 -7z"/>
<path d="M710 2130 c0 -5 4 -10 9 -10 6 0 13 5 16 10 3 6 -1 10 -9 10 -9 0
-16 -4 -16 -10z"/>
<path d="M683 2093 c9 -2 23 -2 30 0 6 3 -1 5 -18 5 -16 0 -22 -2 -12 -5z"/>
<path d="M655 2073 c-11 -3 -24 -9 -29 -13 -5 -5 8 -5 28 0 21 4 34 4 30 -1
-3 -5 -11 -9 -19 -9 -8 0 -16 -4 -19 -9 -3 -5 12 -4 34 1 22 6 40 16 40 24 0
14 -25 16 -65 7z"/>
<path d="M665 2020 c-19 -8 -19 -9 3 -9 12 -1 22 4 22 9 0 6 -1 10 -2 9 -2 0
-12 -4 -23 -9z"/>
<path d="M595 1990 c3 -5 18 -10 33 -9 24 0 25 1 7 9 -28 12 -47 12 -40 0z"/>
<path d="M598 1958 c9 -9 15 -9 24 0 9 9 7 12 -12 12 -19 0 -21 -3 -12 -12z"/>
<path d="M532 1885 c-12 -9 -22 -23 -22 -31 0 -22 17 -17 23 7 5 18 12 21 41
17 20 -2 36 0 36 4 0 4 -6 8 -14 8 -8 0 -20 2 -28 5 -7 3 -23 -2 -36 -10z"/>
<path d="M643 1882 c10 -10 17 -24 17 -30 0 -7 5 -12 10 -12 6 0 10 4 10 8 0
10 -38 52 -47 52 -3 0 1 -8 10 -18z"/>
<path d="M550 1838 c-15 -17 -31 -22 -63 -21 l-42 2 49 -11 c46 -10 49 -9 73
16 13 15 29 23 35 20 7 -4 8 -2 4 4 -11 18 -33 14 -56 -10z"/>
<path d="M584 1806 c-8 -14 -28 -27 -42 -29 -23 -3 -22 -4 7 -6 24 -1 40 6 56
23 21 23 23 36 4 36 -5 0 -16 -11 -25 -24z"/>
<path d="M438 1783 c6 -2 18 -2 25 0 6 3 1 5 -13 5 -14 0 -19 -2 -12 -5z"/>
<path d="M488 1783 c7 -3 16 -2 19 1 4 3 -2 6 -13 5 -11 0 -14 -3 -6 -6z"/>
<path d="M630 1769 c0 -5 11 -9 24 -9 26 0 41 -14 49 -45 4 -19 5 -19 6 1 0
11 -7 28 -16 36 -22 18 -63 30 -63 17z"/>
<path d="M603 1743 c9 -2 23 -2 30 0 6 3 -1 5 -18 5 -16 0 -22 -2 -12 -5z"/>
<path d="M658 1729 c15 -17 16 -61 0 -77 -9 -9 -9 -12 0 -12 31 0 33 89 2 98
-12 4 -13 2 -2 -9z"/>
<path d="M640 1696 c0 -8 -6 -17 -12 -19 -8 -3 -6 -6 5 -6 11 -1 17 6 17 19 0
11 -2 20 -5 20 -3 0 -5 -6 -5 -14z"/>
<path d="M1808 1983 c7 -3 16 -2 19 1 4 3 -2 6 -13 5 -11 0 -14 -3 -6 -6z"/>
<path d="M1897 1947 l-28 -37 26 0 c28 0 38 16 33 51 -3 21 -5 20 -31 -14z"/>
<path d="M1830 1930 c0 -5 7 -7 15 -4 8 4 15 8 15 10 0 2 -7 4 -15 4 -8 0 -15
-4 -15 -10z"/>
<path d="M1025 2160 c-3 -5 -1 -10 4 -10 6 0 11 5 11 10 0 6 -2 10 -4 10 -3 0
-8 -4 -11 -10z"/>
<path d="M1060 2070 c0 -5 17 -10 38 -9 33 1 34 2 12 9 -36 11 -50 11 -50 0z"/>
<path d="M1060 2035 c7 -8 22 -15 34 -15 20 1 20 2 -4 15 -33 19 -46 19 -30 0z"/>
<path d="M832 2058 c5 -15 28 -18 29 -3 0 6 -7 12 -17 13 -10 3 -15 -1 -12
-10z"/>
<path d="M360 1880 l-25 -8 25 0 c14 0 34 3 45 8 l20 9 -20 -1 c-11 0 -31 -4
-45 -8z"/>
<path d="M298 1863 c7 -3 16 -2 19 1 4 3 -2 6 -13 5 -11 0 -14 -3 -6 -6z"/>
<path d="M350 1851 c0 -4 11 -6 25 -3 14 2 25 6 25 8 0 2 -11 4 -25 4 -14 0
-25 -4 -25 -9z"/>
<path d="M300 1821 c0 -5 9 -7 20 -4 11 3 20 7 20 9 0 2 -9 4 -20 4 -11 0 -20
-4 -20 -9z"/>
<path d="M320 1800 l-25 -8 27 -1 c15 -1 30 4 33 9 7 11 0 11 -35 0z"/>
<path d="M304 1771 c5 -8 56 -3 56 5 0 2 -14 4 -31 4 -16 0 -28 -4 -25 -9z"/>
<path d="M330 1750 c-9 -6 -10 -10 -3 -10 6 0 15 5 18 10 8 12 4 12 -15 0z"/>
<path d="M1508 1833 c6 -2 18 -2 25 0 6 3 1 5 -13 5 -14 0 -19 -2 -12 -5z"/>
<path d="M1420 1785 c0 -8 7 -15 15 -15 8 0 15 7 15 15 0 8 -7 15 -15 15 -8 0
-15 -7 -15 -15z"/>
<path d="M1352 1778 c5 -15 28 -18 29 -3 0 6 -7 12 -17 13 -10 3 -15 -1 -12
-10z"/>
<path d="M1397 1754 c-4 -4 -7 -14 -7 -23 0 -11 3 -12 11 -4 6 6 10 16 7 23
-2 6 -7 8 -11 4z"/>
<path d="M1455 1710 c3 -5 13 -10 21 -10 8 0 14 5 14 10 0 6 -9 10 -21 10 -11
0 -17 -4 -14 -10z"/>
<path d="M938 1753 c7 -3 16 -2 19 1 4 3 -2 6 -13 5 -11 0 -14 -3 -6 -6z"/>
<path d="M865 1740 c3 -5 13 -10 21 -10 8 0 12 5 9 10 -3 6 -13 10 -21 10 -8
0 -12 -4 -9 -10z"/>
<path d="M856 1723 c-11 -11 6 -23 30 -23 14 0 23 4 20 9 -7 11 -43 21 -50 14z"/>
<path d="M2072 1647 c-12 -13 -22 -33 -22 -45 0 -33 15 -34 16 0 1 36 13 48
56 58 l33 8 -31 1 c-20 1 -38 -7 -52 -22z"/>
<path d="M2120 1633 c-8 -3 -18 -11 -22 -17 -11 -16 -10 -54 2 -61 5 -3 9 2 8
12 -3 37 3 50 25 61 23 11 13 15 -13 5z"/>
<path d="M2016 1524 c-19 -19 -20 -26 -4 -42 16 -16 28 -15 28 3 0 8 5 15 12
15 6 0 8 3 5 6 -4 4 -13 1 -22 -6 -12 -10 -15 -10 -15 4 0 9 10 21 23 26 16 6
17 9 5 9 -9 1 -24 -6 -32 -15z"/>
<path d="M2010 1435 c0 -9 7 -18 15 -22 23 -8 24 0 3 20 -15 14 -18 15 -18 2z"/>
<path d="M905 1470 c3 -5 10 -10 16 -10 5 0 9 5 9 10 0 6 -7 10 -16 10 -8 0
-12 -4 -9 -10z"/>
<path d="M910 1440 c0 -5 7 -7 15 -4 8 4 15 8 15 10 0 2 -7 4 -15 4 -8 0 -15
-4 -15 -10z"/>
<path d="M935 1320 l-30 -8 32 -1 c17 0 35 4 38 9 7 11 3 11 -40 0z"/>
<path d="M935 1290 l-20 -9 20 1 c11 0 31 4 45 8 l25 8 -25 0 c-14 0 -34 -3
-45 -8z"/>
<path d="M956 1261 c-4 -5 3 -7 14 -4 23 6 26 13 6 13 -8 0 -17 -4 -20 -9z"/>
<path d="M1438 1503 c6 -2 18 -2 25 0 6 3 1 5 -13 5 -14 0 -19 -2 -12 -5z"/>
<path d="M1448 1453 c6 -2 18 -2 25 0 6 3 1 5 -13 5 -14 0 -19 -2 -12 -5z"/>
<path d="M1488 1353 c7 -3 16 -2 19 1 4 3 -2 6 -13 5 -11 0 -14 -3 -6 -6z"/>
<path d="M1433 1343 c9 -2 23 -2 30 0 6 3 -1 5 -18 5 -16 0 -22 -2 -12 -5z"/>
<path d="M1478 1323 c6 -2 18 -2 25 0 6 3 1 5 -13 5 -14 0 -19 -2 -12 -5z"/>
<path d="M1423 1313 c9 -2 23 -2 30 0 6 3 -1 5 -18 5 -16 0 -22 -2 -12 -5z"/>
<path d="M1488 1273 c6 -2 18 -2 25 0 6 3 1 5 -13 5 -14 0 -19 -2 -12 -5z"/>
<path d="M1422 1257 c-9 -10 -3 -13 28 -12 29 0 36 3 28 13 -14 16 -43 16 -56
-1z"/>
<path d="M1838 1233 c6 -2 18 -2 25 0 6 3 1 5 -13 5 -14 0 -19 -2 -12 -5z"/>
<path d="M1928 1443 c6 -2 18 -2 25 0 6 3 1 5 -13 5 -14 0 -19 -2 -12 -5z"/>
<path d="M1925 1410 c3 -5 12 -7 20 -3 21 7 19 13 -6 13 -11 0 -18 -4 -14 -10z"/>
<path d="M1940 1320 c-12 -8 -12 -10 5 -10 11 0 27 5 35 10 12 8 12 10 -5 10
-11 0 -27 -5 -35 -10z"/>
<path d="M106 1407 c-25 -19 -17 -61 12 -65 24 -4 29 12 12 38 -8 12 -10 12
-11 -5 0 -13 -2 -15 -6 -6 -3 8 2 20 11 27 10 6 13 15 8 18 -5 3 -17 0 -26 -7z"/>
<path d="M654 1424 c-19 -15 -19 -16 1 -8 11 4 32 8 48 8 15 1 27 4 27 9 0 13
-56 7 -76 -9z"/>
<path d="M690 1402 c0 -5 14 -7 30 -4 17 2 30 6 30 8 0 2 -13 4 -30 4 -16 0
-30 -4 -30 -8z"/>
<path d="M1197 1253 c-4 -3 -7 -11 -7 -17 0 -6 5 -5 12 2 6 6 9 14 7 17 -3 3
-9 2 -12 -2z"/>
<path d="M1110 1187 c0 -18 6 -42 14 -52 12 -17 13 -16 12 13 0 18 -4 32 -8
32 -13 0 -9 28 5 33 7 3 5 6 -5 6 -14 1 -18 -7 -18 -32z"/>
<path d="M1113 1353 c-7 -2 -13 -9 -13 -14 0 -6 5 -7 11 -3 7 4 26 7 43 6 22
-1 26 2 16 8 -16 10 -37 11 -57 3z"/>
<path d="M2060 1295 c-13 -16 0 -21 16 -6 5 5 18 11 29 14 16 4 14 5 -6 6 -15
0 -32 -6 -39 -14z"/>
<path d="M1546 1167 c-32 -42 -33 -81 -4 -101 26 -18 48 -21 48 -6 0 6 -11 10
-24 10 -26 0 -34 13 -31 47 1 25 48 73 70 73 25 0 25 -18 0 -24 -14 -4 -25
-11 -25 -16 0 -13 1 -13 40 7 31 15 32 17 15 30 -32 22 -62 16 -89 -20z"/>
<path d="M2076 1179 c-14 -21 -12 -49 5 -49 4 0 6 7 2 15 -3 9 3 25 12 35 10
11 13 20 7 20 -6 0 -18 -10 -26 -21z"/>
<path d="M1840 1120 c-8 -5 -12 -12 -9 -15 4 -3 12 1 19 10 14 17 11 19 -10 5z"/>
<path d="M1953 1093 c-7 -2 -13 -12 -13 -21 1 -15 2 -15 11 1 5 9 15 17 21 17
6 0 5 -7 -3 -17 -13 -16 -12 -17 4 -4 30 23 17 39 -20 24z"/>
<path d="M2007 1073 c-10 -10 -8 -33 2 -33 6 0 9 9 8 20 -1 23 -1 22 -10 13z"/>
<path d="M1653 1024 c-3 -9 -20 -22 -37 -30 -27 -11 -28 -13 -8 -14 22 0 62
32 62 50 0 15 -10 12 -17 -6z"/>
<path d="M1713 1024 c-7 -20 12 -63 33 -71 21 -8 36 8 24 27 -8 13 -11 13 -19
1 -7 -11 -10 -10 -15 6 -4 11 -4 28 0 37 3 9 1 16 -5 16 -7 0 -14 -7 -18 -16z"/>
<path d="M1615 1020 c-4 -6 -15 -8 -24 -5 -10 3 -24 -1 -31 -10 -10 -12 -10
-15 4 -15 9 0 16 4 16 9 0 5 8 7 19 4 18 -4 39 13 28 23 -3 3 -8 0 -12 -6z"/>
<path d="M1976 1002 c-3 -5 -3 -18 0 -29 3 -10 -1 -7 -10 7 -14 22 -15 23 -15
5 -1 -33 15 -50 37 -39 17 8 18 12 7 38 -7 16 -15 24 -19 18z"/>
<path d="M1847 993 c-11 -11 -8 -48 5 -61 19 -19 28 -14 28 13 0 18 -4 23 -15
19 -18 -7 -20 7 -3 24 7 7 8 12 2 12 -6 0 -14 -3 -17 -7z"/>
<path d="M2022 960 c7 -21 62 -24 95 -5 15 9 19 13 8 10 -49 -16 -76 -17 -92
-4 -14 12 -16 12 -11 -1z"/>
<path d="M2030 856 c6 -5 22 -5 42 1 l33 10 -42 -1 c-25 -1 -38 -5 -33 -10z"/>
<path d="M2110 810 c-9 -6 -10 -10 -3 -10 6 0 15 5 18 10 8 12 4 12 -15 0z"/>
<path d="M2020 340 c0 -15 -9 -22 -30 -27 -39 -7 -48 -23 -19 -31 l24 -6 -23
-5 c-33 -8 -31 -25 4 -32 16 -4 22 -7 14 -8 -24 -2 -43 -18 -36 -30 5 -8 12
-7 22 4 9 8 21 15 28 15 16 0 27 -73 19 -124 -4 -29 -2 -36 11 -36 13 0 16 13
16 80 l0 80 46 0 c38 0 45 3 42 17 -2 10 -19 22 -43 29 -31 9 -36 12 -20 16
18 5 18 6 -2 7 -13 0 -23 5 -23 10 0 5 10 7 23 4 21 -4 21 -4 -3 10 l-24 15
24 4 c42 6 36 28 -9 28 -35 0 -41 -3 -41 -20z m57 4 c-3 -3 -12 -4 -19 -1 -8
3 -5 6 6 6 11 1 17 -2 13 -5z m-70 -50 c-3 -3 -12 -4 -19 -1 -8 3 -5 6 6 6 11
1 17 -2 13 -5z m6 -41 c-7 -2 -19 -2 -25 0 -7 3 -2 5 12 5 14 0 19 -2 13 -5z
m107 -13 c0 -5 -15 -10 -32 -10 -25 0 -29 3 -18 10 20 13 50 13 50 0z"/>
<path d="M1044 1205 c-10 -26 1 -35 13 -10 6 14 7 25 2 25 -5 0 -12 -7 -15
-15z"/>
<path d="M115 1060 c-3 -6 1 -7 9 -4 18 7 21 14 7 14 -6 0 -13 -4 -16 -10z"/>
</g>
</svg>
