<?xml version="1.0" standalone="no"?>
<!DOCTYPE svg PUBLIC "-//W3C//DTD SVG 20010904//EN"
 "http://www.w3.org/TR/2001/REC-SVG-20010904/DTD/svg10.dtd">
<svg version="1.0" xmlns="http://www.w3.org/2000/svg"
 width="221.000000pt" height="386.000000pt" viewBox="0 0 221.000000 386.000000"
 preserveAspectRatio="xMidYMid meet">
<metadata>
Created by potrace 1.16, written by Peter Selinger 2001-2019
</metadata>
<g transform="translate(0.000000,386.000000) scale(0.100000,-0.100000)"
fill="#000000" stroke="none">
<path d="M27 3845 c-4 -8 -7 -610 -7 -1337 -1 -728 -3 -1585 -5 -1905 -2 -321
0 -585 4 -587 3 -2 40 -5 81 -6 119 -4 1157 10 1360 18 182 7 509 8 643 3 41
-2 73 1 80 8 11 11 14 963 9 2953 l-2 867 -1079 1 c-953 0 -1079 -1 -1084 -15z
m2127 -25 c8 -8 10 -209 8 -703 -1 -381 -2 -713 -2 -739 0 -27 -4 -48 -9 -48
-12 0 -111 99 -111 111 0 13 -43 29 -121 44 -36 8 -86 23 -112 35 -41 20 -48
20 -74 7 -15 -8 -39 -27 -52 -41 -14 -14 -32 -26 -41 -26 -10 0 -32 -16 -51
-35 -47 -49 -64 -58 -87 -44 -30 19 -44 7 -80 -65 -41 -81 -68 -103 -136 -111
-29 -4 -57 -10 -63 -13 -5 -4 -22 -42 -37 -85 -16 -42 -38 -92 -51 -111 -12
-18 -28 -49 -34 -68 -19 -58 -58 -102 -94 -108 -25 -4 -33 -10 -35 -30 -2 -14
-11 -31 -20 -37 -23 -18 -62 -16 -62 2 0 26 -28 28 -66 6 -33 -20 -38 -20 -54
-6 -9 8 -24 15 -34 15 -9 0 -21 11 -26 24 -11 30 -47 56 -77 56 -13 0 -24 8
-28 19 -3 11 -15 31 -26 45 -22 27 -40 26 -75 -6 -21 -19 -21 -19 -54 19 -19
21 -51 74 -72 119 -24 53 -52 94 -79 118 -40 36 -41 37 -61 20 -10 -10 -40
-49 -64 -86 -35 -53 -51 -68 -70 -68 -13 0 -24 -4 -24 -8 0 -5 -6 -17 -14 -28
-13 -16 -14 105 -13 906 l2 925 140 5 c282 10 1947 2 1959 -10z m-428 -1366
c-3 -8 -19 -14 -38 -14 l-32 0 34 29 c27 22 36 26 38 14 2 -8 1 -21 -2 -29z
m247 5 c21 -6 37 -16 37 -24 0 -8 16 -27 35 -42 19 -15 35 -32 35 -37 0 -5
-11 1 -24 13 -22 21 -95 46 -105 36 -2 -3 2 -12 9 -20 9 -11 16 -13 24 -5 5 5
14 10 18 10 13 0 9 -20 -6 -35 -11 -12 -22 -6 -70 37 -31 27 -61 59 -67 70
-10 19 -9 20 33 13 23 -4 60 -11 81 -16z m-119 -25 c3 -8 2 -12 -4 -9 -6 3
-10 10 -10 16 0 14 7 11 14 -7z m-134 -63 c0 -5 -9 -11 -20 -14 -20 -5 -26 3
-13 16 9 10 33 8 33 -2z m-170 -21 c-24 -15 -37 -11 -16 5 11 8 22 12 25 9 3
-3 -1 -9 -9 -14z m386 -21 c4 -8 1 -8 -14 0 -12 6 -24 16 -28 22 -4 8 -1 8 14
0 12 -6 24 -16 28 -22z m-206 -26 c0 -10 -5 -25 -10 -33 -7 -11 -10 -7 -10 18
0 17 5 32 10 32 6 0 10 -8 10 -17z m280 -37 c-1 -20 -2 -20 -15 4 -19 33 -19
46 0 30 8 -7 15 -22 15 -34z m-316 18 c9 -23 -3 -37 -20 -23 -11 9 -16 7 -22
-12 -6 -15 -11 -18 -16 -11 -11 18 2 50 22 55 29 8 30 7 36 -9z m402 -51 c-5
-5 -36 50 -36 64 0 4 9 -7 21 -26 11 -18 18 -35 15 -38z m-122 17 c7 0 17 -12
23 -27 l11 -28 2 25 c2 25 2 25 15 -5 8 -16 14 -41 14 -55 0 -25 0 -25 -9 -2
-11 26 -40 30 -41 5 0 -10 -5 -5 -11 12 -6 17 -19 39 -29 51 -11 11 -19 31
-18 45 l0 24 16 -22 c8 -13 21 -23 27 -23z m-400 11 c17 -19 17 -19 -2 -14
-14 3 -24 -2 -31 -16 -7 -12 -18 -21 -25 -21 -7 0 -18 -12 -25 -26 -6 -15 -14
-24 -17 -21 -9 9 6 46 28 66 23 23 6 40 -19 19 -14 -11 -16 -11 -11 2 4 14 35
27 69 29 9 1 24 -8 33 -18z m73 -73 c-3 -8 -6 -5 -6 6 -1 11 2 17 5 13 3 -3 4
-12 1 -19z m-91 -24 c-4 -9 -9 -15 -11 -12 -3 3 -3 13 1 22 4 9 9 15 11 12 3
-3 3 -13 -1 -22z m-44 -6 c-7 -7 -12 -8 -12 -2 0 6 3 14 7 17 3 4 9 5 12 2 2
-3 -1 -11 -7 -17z m208 2 c0 -5 -4 -10 -10 -10 -5 0 -10 5 -10 10 0 6 5 10 10
10 6 0 10 -4 10 -10z m47 -12 c-3 -8 -6 -5 -6 6 -1 11 2 17 5 13 3 -3 4 -12 1
-19z m-1469 -13 c12 -15 18 -34 15 -45 -5 -19 -6 -20 -19 -3 -7 10 -14 25 -14
34 0 8 -5 20 -12 27 -8 8 -9 12 -1 12 6 0 20 -11 31 -25z m1801 -37 c-1 -48
-2 -50 -10 -23 -9 28 -5 75 6 75 3 0 5 -24 4 -52z m-630 22 c38 0 149 -51 175
-81 19 -21 35 -29 59 -29 39 0 57 -15 57 -47 0 -12 7 -26 16 -31 11 -6 14 -14
8 -23 -4 -8 -7 -26 -5 -41 1 -14 -2 -29 -8 -33 -6 -3 -11 -15 -11 -26 0 -11
-11 -24 -25 -31 -17 -8 -22 -15 -15 -23 14 -17 -32 -108 -68 -133 -43 -31 -57
-11 -61 91 -2 55 -21 25 -22 -35 0 -85 -14 -161 -29 -166 -6 -2 -25 -17 -41
-33 -40 -39 -75 -39 -84 1 -7 33 -25 41 -25 11 0 -25 -17 -30 -52 -17 -20 7
-37 7 -57 -1 -24 -9 -35 -7 -58 7 l-29 17 7 99 c6 83 13 115 44 189 22 52 39
113 42 145 5 69 29 143 51 162 31 28 76 45 94 36 9 -4 26 -8 37 -8z m431 -19
c0 -11 6 -22 13 -24 6 -3 -3 -6 -22 -6 -32 -1 -33 0 -16 12 10 8 15 19 11 25
-4 7 -2 12 3 12 6 0 11 -9 11 -19z m-5 -67 c8 3 15 2 15 -3 0 -5 -10 -12 -22
-15 -22 -7 -22 -7 -3 -16 15 -6 16 -9 4 -9 -9 -1 -24 -10 -34 -21 -10 -11 -22
-20 -27 -20 -16 0 -8 37 12 55 12 10 18 25 15 33 -4 12 -3 13 10 2 8 -7 22
-10 30 -6z m-100 -53 c3 -5 1 -12 -5 -16 -5 -3 -10 1 -10 9 0 18 6 21 15 7z
m-1537 -17 c12 -8 22 -24 22 -36 0 -11 13 -35 30 -54 17 -19 38 -63 50 -103
11 -38 28 -87 36 -107 15 -35 17 -37 29 -21 11 16 13 16 19 2 3 -9 10 -13 16
-10 6 3 13 -1 16 -9 9 -23 24 -20 24 5 0 20 2 19 33 -7 l32 -27 3 25 c2 13 -6
48 -17 77 -25 63 -26 75 -4 67 9 -4 20 -1 24 6 12 18 43 -2 47 -31 2 -11 9
-21 17 -21 15 0 55 -76 55 -104 0 -9 4 -15 9 -11 12 7 35 -93 29 -120 -3 -12
-8 3 -13 33 -10 66 -25 68 -25 2 0 -38 -4 -50 -15 -50 -8 0 -14 6 -13 13 4 18
-274 10 -285 -9 -10 -18 -60 -8 -115 23 -47 27 -78 67 -74 95 2 11 -3 18 -12
18 -10 0 -16 -12 -18 -37 l-3 -38 -14 27 c-11 22 -12 33 -1 58 14 33 20 36 38
18 24 -24 22 1 -3 37 -29 44 -37 128 -10 105 8 -7 15 -18 15 -24 0 -7 9 -29
20 -51 13 -25 20 -59 20 -93 0 -44 3 -53 15 -48 9 3 15 0 15 -9 0 -34 18 -12
24 30 9 54 0 107 -26 159 -35 69 -50 135 -43 187 7 52 17 58 53 33z m-75 -66
c-8 -72 -13 -73 -13 -5 0 32 4 57 10 57 5 0 7 -22 3 -52z m1694 0 c-2 -13 -4
-5 -4 17 -1 22 1 32 4 23 2 -10 2 -28 0 -40z m-1556 10 c11 -21 11 -22 -4 -9
-10 7 -17 17 -17 22 0 15 9 10 21 -13z m-194 -10 c-3 -8 -6 -5 -6 6 -1 11 2
17 5 13 3 -3 4 -12 1 -19z m443 -11 c0 -7 -9 -18 -20 -25 -12 -7 -20 -8 -20
-2 0 5 5 10 10 10 6 0 10 7 10 15 0 8 5 15 10 15 6 0 10 -6 10 -13z m-462 -34
c-2 -10 1 -46 6 -80 8 -64 -1 -104 -15 -67 -10 24 -11 148 -2 157 10 11 13 8
11 -10z m556 -53 c7 0 18 -11 24 -24 10 -23 10 -24 -18 -10 -15 8 -34 22 -41
31 -12 15 -12 16 4 10 10 -4 24 -7 31 -7z m-201 -55 c9 -25 12 -45 7 -45 -4 0
-11 12 -14 28 -4 15 -9 35 -12 45 -11 37 5 14 19 -28z m-228 -17 c26 -55 32
-112 15 -123 -6 -4 -10 15 -10 49 0 36 -5 58 -13 63 -14 8 -32 63 -22 63 3 0
17 -24 30 -52z m1622 20 c-3 -8 -6 -5 -6 6 -1 11 2 17 5 13 3 -3 4 -12 1 -19z
m-1348 -38 c1 -13 0 -13 -9 0 -5 8 -9 24 -9 35 l0 20 9 -20 c5 -11 9 -27 9
-35z m496 1 c-10 -9 -24 21 -17 37 4 12 7 10 14 -8 5 -13 6 -25 3 -29z m1069
30 c3 -5 18 -12 33 -16 35 -8 63 -33 63 -54 -1 -14 -2 -13 -11 2 -9 15 -59 47
-74 47 -15 0 -2 -18 20 -28 33 -15 41 -37 22 -57 -28 -27 -111 -9 -120 26 -3
13 -14 19 -31 19 -48 0 -23 56 29 63 54 7 64 7 69 -2z m-1304 -31 c6 -11 8
-20 6 -20 -3 0 -10 9 -16 20 -6 11 -8 20 -6 20 3 0 10 -9 16 -20z m183 -40
c-5 -19 0 -20 93 -20 55 0 104 -4 111 -8 7 -5 11 -33 10 -80 -1 -39 -2 -72 -3
-72 0 0 -15 7 -32 16 -20 9 -32 23 -32 35 0 19 -6 20 -67 17 l-68 -3 -10 42
c-14 56 -23 63 -78 65 -26 0 -52 7 -58 14 -10 12 1 14 64 14 70 0 75 -1 70
-20z m894 -22 c-3 -8 -6 -5 -6 6 -1 11 2 17 5 13 3 -3 4 -12 1 -19z m83 -3
c-7 -9 -15 -13 -17 -11 -7 7 7 26 19 26 6 0 6 -6 -2 -15z m-1190 -45 c0 -13
-1 -13 -10 0 -5 8 -10 22 -10 30 0 13 1 13 10 0 5 -8 10 -22 10 -30z m1271 23
c21 -11 58 -18 99 -19 60 -1 65 -3 68 -24 6 -39 -11 -44 -77 -21 -104 36 -147
37 -224 6 -16 -7 -18 -4 -15 16 2 17 11 25 36 30 19 4 39 12 45 18 15 15 28
14 68 -6z m-1176 -109 c39 -28 39 -29 15 -32 -14 -2 -29 -8 -34 -13 -18 -16
-46 -9 -55 14 -22 58 -30 91 -24 96 3 3 8 0 10 -7 3 -6 9 -10 13 -7 5 3 5 17
0 31 -17 45 -9 40 13 -7 13 -27 38 -58 62 -75z m1001 44 c-11 -128 -18 -168
-25 -163 -5 2 -4 30 0 62 4 32 11 84 14 116 9 83 18 70 11 -15z m-1016 9 c0
-16 -18 3 -23 25 -6 22 -5 22 8 4 8 -11 15 -24 15 -29z m1218 -6 c18 -6 49
-24 69 -41 19 -17 41 -29 49 -26 19 7 18 -28 -2 -44 -10 -9 -51 -14 -127 -14
-134 -1 -177 12 -177 53 0 68 87 101 188 72z m-248 -51 c-6 -37 -8 -40 -9 -13
-1 29 8 68 14 61 1 -2 -1 -23 -5 -48z m-180 21 c0 -11 -29 -35 -35 -29 -10 9
7 38 21 38 8 0 14 -4 14 -9z m-1406 -27 c9 -24 2 -26 -12 -4 -7 11 -8 20 -3
20 5 0 12 -7 15 -16z m1360 -22 c7 -12 -13 -82 -24 -82 -5 0 -12 -9 -15 -20
-10 -30 -26 -24 -20 8 9 50 17 87 22 95 6 10 31 9 37 -1z m-1092 -29 c-25 -10
1 -23 48 -23 26 0 50 -5 52 -10 2 -7 119 -13 317 -17 272 -5 315 -4 325 9 6 8
26 18 44 21 29 6 34 4 43 -21 11 -29 6 -92 -9 -101 -18 -12 -42 -72 -48 -118
-13 -115 -10 -111 -72 -140 -31 -15 -74 -44 -96 -65 -21 -20 -42 -35 -47 -33
-4 3 -12 -3 -18 -12 -7 -13 -13 -15 -21 -7 -12 12 -4 44 11 44 13 0 11 47 -3
69 -9 15 -8 24 5 45 18 27 30 29 82 16 l30 -8 -27 -1 c-16 0 -28 -6 -28 -11 0
-11 126 -7 137 4 4 3 1 6 -5 6 -7 0 -12 5 -12 10 0 6 7 10 15 10 8 0 15 9 15
20 0 12 -7 20 -17 20 -10 0 -31 7 -47 15 -33 17 -62 19 -71 5 -3 -5 -10 -10
-16 -10 -14 0 -11 33 7 59 23 32 54 120 48 135 -3 8 -23 16 -46 19 -64 9 -295
-1 -317 -13 -24 -12 -26 -37 -6 -64 22 -28 8 -39 -26 -19 -24 14 -29 22 -24
44 10 46 -9 52 -190 52 -134 0 -169 -3 -189 -16 -24 -16 -26 -45 -4 -74 5 -7
5 -14 -2 -18 -5 -3 -10 -1 -10 4 0 6 -18 23 -41 38 -33 22 -44 25 -59 15 -14
-9 -21 -8 -30 3 -14 17 -100 21 -100 5 0 -5 -7 -10 -16 -10 -22 0 -13 32 11
38 11 3 63 7 115 9 109 4 142 13 90 23 -26 6 -14 8 47 9 45 0 83 4 85 9 6 13
52 41 68 41 10 0 11 -2 2 -6z m-185 -19 c-3 -3 -12 -4 -19 -1 -8 3 -5 6 6 6
11 1 17 -2 13 -5z m788 -4 c4 -6 -25 -9 -82 -8 l-88 2 80 6 c44 3 81 7 82 8 1
1 5 -2 8 -8z m88 3 c-7 -2 -21 -2 -30 0 -10 3 -4 5 12 5 17 0 24 -2 18 -5z
m321 -20 c-8 -32 -34 -76 -41 -69 -9 8 8 66 24 81 21 21 24 19 17 -12z m296
12 c0 -18 -55 -21 -66 -3 -4 7 -3 8 4 4 7 -4 20 -2 29 3 25 14 33 13 33 -4z
m237 -32 c70 -1 134 -3 141 -3 6 0 12 -11 12 -25 0 -24 -3 -25 -60 -25 -63 0
-150 -19 -150 -32 0 -8 12 -6 85 11 17 4 51 5 78 3 41 -4 47 -7 47 -27 0 -13
-3 -26 -7 -28 -5 -3 -46 0 -93 5 -47 6 -108 11 -137 10 l-52 -1 6 33 c4 27 1
34 -20 43 -16 8 -24 18 -22 30 2 10 4 26 4 37 1 16 3 16 20 -5 18 -23 26 -24
148 -26z m-1894 30 c-13 -2 -33 -2 -45 0 -13 2 -3 4 22 4 25 0 35 -2 23 -4z
m1307 -6 c0 -7 -21 -55 -47 -107 -38 -75 -53 -96 -72 -98 -55 -8 -44 53 15 81
35 17 45 37 19 37 -11 0 -15 12 -15 44 l0 45 43 4 c23 2 45 4 50 5 4 1 7 -4 7
-11z m533 -4 c-7 -2 -19 -2 -25 0 -7 3 -2 5 12 5 14 0 19 -2 13 -5z m165 0
c-10 -2 -28 -2 -40 0 -13 2 -5 4 17 4 22 1 32 -1 23 -4z m-353 -34 c5 -5 -30
-9 -90 -8 -95 0 -98 1 -65 14 37 14 137 11 155 -6z m-695 -28 c0 -5 -36 -10
-81 -10 -50 -1 -78 3 -74 9 8 12 155 13 155 1z m-553 -7 c-9 -9 -67 -11 -67
-2 0 4 17 8 37 8 20 0 34 -3 30 -6z m1303 -4 c10 -7 -14 -9 -75 -9 -63 1 -81
4 -60 9 44 11 118 11 135 0z m-1370 -35 c0 -12 14 -15 67 -15 66 0 79 -5 32
-14 -37 -7 -37 -8 1 -16 l35 -7 -32 -2 c-38 -1 -45 -21 -8 -21 33 0 32 -16 -2
-29 -27 -11 -27 -11 7 -6 25 4 31 2 20 -5 -8 -5 -23 -10 -32 -10 -10 0 -18 -4
-18 -10 0 -5 7 -6 17 -3 11 4 14 3 9 -5 -4 -7 -14 -12 -22 -12 -8 0 -13 -4
-10 -9 3 -5 16 -7 29 -5 l22 5 -23 -10 c-12 -6 -29 -8 -37 -5 -8 4 -15 1 -15
-5 0 -6 15 -11 33 -12 31 -1 30 -2 -13 -14 l-45 -13 40 -3 c39 -2 39 -2 7 -6
-25 -3 -32 -8 -28 -19 4 -11 1 -14 -12 -12 -11 2 -41 51 -83 135 l-65 132 50
4 c28 2 57 4 64 5 6 1 12 -5 12 -13z m83 8 c-7 -2 -21 -2 -30 0 -10 3 -4 5 12
5 17 0 24 -2 18 -5z m342 -3 c-4 -6 8 -10 29 -10 19 0 38 -4 41 -10 3 -5 -3
-10 -15 -10 -12 0 -19 -4 -16 -9 3 -5 16 -7 29 -5 16 3 14 1 -8 -10 l-30 -15
35 -1 35 -1 -30 -14 -30 -13 40 -2 40 -2 -39 -9 c-56 -13 -60 -23 -6 -15 31 4
40 3 30 -4 -8 -5 -25 -10 -37 -10 -13 0 -23 -5 -23 -11 0 -6 9 -8 21 -4 15 5
19 4 15 -4 -4 -6 -18 -11 -31 -11 -13 0 -27 -5 -30 -11 -5 -7 6 -8 32 -5 l38
6 -35 -15 -35 -15 33 5 c17 2 32 1 32 -4 0 -11 -25 -21 -51 -21 -10 0 -19 -5
-19 -11 0 -5 5 -7 10 -4 6 3 10 -1 10 -10 0 -12 -5 -15 -16 -11 -9 3 -20 6
-25 6 -6 0 -7 4 -4 10 3 5 -19 63 -50 129 -30 66 -55 122 -55 125 0 3 27 6 61
6 37 0 58 -4 54 -10z m576 -17 c1 -16 2 -39 3 -53 1 -16 10 -29 29 -38 31 -15
27 -32 -7 -32 -13 0 -29 -7 -36 -15 -18 -22 -30 -9 -20 24 4 16 6 32 3 34 -7
8 -6 84 1 96 13 20 26 12 27 -16z m96 10 c-30 -8 -8 -23 34 -23 24 0 38 4 34
10 -9 14 7 12 30 -4 11 -7 29 -16 40 -19 18 -4 18 -5 -2 -6 -13 0 -23 -5 -23
-11 0 -5 28 -10 63 -11 61 -1 61 -1 22 -10 -22 -6 -50 -7 -62 -4 -26 6 -32
-10 -7 -19 9 -3 32 -6 52 -7 36 -1 36 -1 -13 -13 -37 -9 -45 -13 -32 -19 10
-4 31 -7 45 -7 23 -1 25 -2 10 -11 -10 -5 -24 -9 -31 -7 -23 5 -19 -17 5 -24
20 -5 18 -6 -9 -7 -18 -1 -33 -6 -33 -12 0 -7 10 -9 25 -7 14 3 25 1 25 -3 0
-5 -9 -9 -19 -9 -31 0 -34 -18 -4 -23 16 -2 3 -5 -28 -6 -67 -1 -84 13 -104
85 -7 27 -25 75 -39 107 -14 32 -26 60 -26 62 0 3 15 4 33 4 17 -1 24 -3 14
-6z m389 -42 c13 -12 145 -41 188 -41 l36 0 0 -155 0 -155 -176 4 c-96 2 -178
7 -181 10 -4 3 -21 6 -39 6 -40 0 -51 15 -30 39 9 10 16 34 16 55 0 35 15 71
78 181 21 37 36 52 58 56 16 4 31 7 35 8 3 0 9 -3 15 -8z m-546 -46 c0 -27 -6
-37 -35 -54 -35 -20 -48 -15 -20 9 8 7 15 21 15 31 0 24 21 59 32 53 4 -3 8
-20 8 -39z m-1117 -20 c42 -1 79 -4 81 -6 1 -2 19 -34 39 -71 35 -65 35 -68
16 -78 -25 -14 -24 -44 3 -70 24 -22 18 -41 -7 -20 -9 8 -37 11 -77 9 -53 -3
-63 -1 -66 14 -3 13 3 17 22 17 14 0 26 5 26 10 0 6 -5 10 -12 10 -24 0 7 18
36 22 30 3 50 28 22 28 -8 0 -21 8 -28 18 -20 28 -48 35 -68 17 -15 -14 -25
-13 -101 1 -121 24 -126 26 -125 66 1 28 5 34 31 40 17 3 53 4 80 1 28 -3 85
-7 128 -8z m397 5 c8 -5 11 -10 6 -10 -5 0 -2 -7 5 -17 13 -15 11 -16 -16 -11
-22 5 -34 1 -47 -15 -10 -11 -15 -24 -10 -29 5 -5 54 -5 110 0 l102 8 13 -35
c12 -30 12 -37 1 -49 -17 -16 -18 -34 -4 -48 15 -15 1 -47 -14 -35 -6 5 -40
16 -76 25 -59 14 -66 14 -75 -1 -10 -16 -20 -25 -73 -70 l-27 -23 -7 27 c-5
18 -3 32 7 43 17 19 20 56 5 65 -16 10 -12 31 25 110 35 74 46 84 75 65z m650
-20 c0 -4 -7 -13 -15 -20 -8 -7 -15 -23 -15 -36 0 -21 5 -24 34 -24 19 0 37
-4 40 -8 7 -11 -51 -39 -100 -48 -36 -7 -37 -6 -30 17 4 13 12 49 18 80 10 53
12 55 39 51 16 -2 29 -8 29 -12z m122 -43 c78 27 73 28 107 -32 21 -36 30 -63
26 -76 -4 -11 0 -31 10 -45 10 -16 13 -30 7 -41 -6 -11 -11 -12 -16 -4 -4 6
-18 8 -32 5 -21 -5 -24 -3 -24 21 l0 27 -62 -6 c-73 -8 -109 -16 -123 -26 -13
-11 -102 -16 -111 -7 -12 11 -43 8 -74 -8 -31 -16 -40 -9 -18 13 7 7 8 12 2
12 -5 0 -11 11 -12 25 -1 20 5 26 38 36 31 9 43 9 54 0 18 -15 60 -8 134 25
57 25 66 45 25 60 -26 9 -26 10 -9 27 17 17 19 17 31 0 11 -15 18 -16 47 -6z
m-1269 -88 c-9 -9 -53 -1 -53 10 0 4 14 6 31 3 17 -2 27 -8 22 -13z m774 15
c-3 -3 -12 -4 -19 -1 -8 3 -5 6 6 6 11 1 17 -2 13 -5z m-70 -71 c7 -3 9 4 6
16 -3 12 -1 21 6 21 6 0 11 -9 11 -20 0 -31 20 -24 21 8 l0 27 12 -24 c22 -46
-41 -62 -78 -21 -10 11 -14 24 -9 32 6 9 10 6 14 -11 3 -14 11 -26 17 -28z
m-446 10 c-8 -15 -10 -15 -11 -2 0 17 10 32 18 25 2 -3 -1 -13 -7 -23z m1182
6 c-4 -15 -8 -17 -14 -8 -8 14 -3 29 11 29 4 0 6 -9 3 -21z m97 -4 c0 -14 -4
-25 -10 -25 -5 0 -10 11 -10 25 0 14 5 25 10 25 6 0 10 -11 10 -25z m-1150 -5
c0 -11 -2 -20 -4 -20 -2 0 -6 9 -9 20 -3 11 -1 20 4 20 5 0 9 -9 9 -20z m1103
-5 c3 -16 0 -24 -7 -22 -14 4 -21 47 -8 47 5 0 12 -11 15 -25z m-936 -47 c46
-32 41 -41 -7 -15 -22 12 -40 25 -40 30 0 12 12 8 47 -15z m740 -19 c-11 -82
-59 -108 -192 -108 l-97 1 25 26 c14 15 30 39 36 55 9 24 16 27 56 27 41 0 46
-2 40 -19 -3 -11 -1 -22 4 -26 6 -3 13 7 17 22 10 49 14 49 9 0 -6 -60 10 -54
19 7 7 46 13 51 70 55 16 1 18 -4 13 -40z m-542 -9 c13 0 26 -4 29 -9 4 -5
-11 -7 -34 -4 -26 4 -40 2 -40 -6 0 -6 17 -11 40 -11 29 0 40 -4 40 -15 0 -11
-8 -13 -30 -8 -19 3 -30 1 -30 -6 0 -6 16 -11 35 -11 35 0 41 -6 47 -45 3 -17
-2 -19 -42 -16 -32 2 -42 -1 -35 -8 6 -6 30 -12 53 -13 42 -1 42 -2 59 -55 9
-29 20 -53 25 -53 4 0 8 -7 8 -15 0 -17 -2 -17 -24 -9 -8 3 -12 12 -9 20 4 11
-12 14 -91 14 -53 0 -96 -2 -96 -5 0 -3 10 -10 23 -15 19 -8 17 -9 -15 -9 -43
-1 -48 11 -23 59 8 16 27 75 41 132 28 111 37 133 42 106 2 -11 13 -18 27 -18z
m-875 0 c0 -14 6 -19 21 -17 12 1 24 -4 26 -10 3 -9 -7 -13 -31 -13 -33 0 -36
2 -36 30 0 17 5 30 10 30 6 0 10 -9 10 -20z m1150 7 c0 -32 -76 -97 -114 -97
-14 0 -13 6 8 33 14 19 23 37 19 40 -3 4 3 7 14 7 11 0 26 7 33 15 15 18 40
20 40 2z m474 -13 c-16 -7 -24 -13 -17 -13 7 -1 10 -8 7 -16 -5 -11 1 -15 20
-15 14 0 26 -4 26 -10 0 -5 -13 -7 -29 -4 -16 3 -31 2 -35 -4 -3 -6 13 -13 39
-16 59 -9 59 -28 0 -25 -24 2 -47 0 -51 -4 -4 -4 18 -7 48 -7 55 0 56 0 62
-32 3 -18 17 -56 30 -83 l23 -51 67 -2 c37 -1 66 3 66 8 0 6 -19 10 -42 11
-35 1 -38 2 -18 8 32 9 148 -5 166 -20 46 -38 -21 -70 -149 -70 -67 0 -94 4
-106 15 -13 14 -12 16 9 24 23 8 23 8 -6 20 -18 8 -68 11 -136 9 -60 -2 -108
-2 -108 -1 0 2 7 18 15 36 8 18 31 85 50 149 l36 115 31 -4 31 -5 -29 -13z
m-136 -13 c-2 -10 3 -15 15 -15 22 2 22 -20 -2 -72 l-19 -41 -63 9 c-34 4 -65
11 -68 14 -3 3 9 16 27 30 18 14 41 43 52 64 15 30 24 37 40 33 12 -3 19 -12
18 -22z m-1202 3 c-3 -9 -6 -20 -6 -25 0 -12 -42 -29 -53 -22 -10 6 42 63 56
63 5 0 6 -7 3 -16z m149 6 c-4 -6 7 -10 24 -10 17 0 31 -4 31 -10 0 -5 -13
-10 -30 -10 -41 0 -38 -20 3 -21 27 -2 28 -2 7 -6 -45 -8 -46 -23 -1 -23 25 0
40 -4 36 -10 -3 -5 -22 -10 -41 -10 -19 0 -34 -4 -34 -8 0 -5 19 -8 43 -8 36
1 42 -2 45 -21 3 -21 0 -23 -48 -23 -31 0 -49 -4 -45 -10 3 -5 28 -8 54 -6 48
3 48 3 70 -41 11 -24 21 -48 21 -54 0 -6 -45 -9 -122 -7 -103 3 -123 5 -121
18 3 20 79 245 87 259 4 6 12 11 17 11 6 0 7 -4 4 -10z m52 4 c-3 -3 -12 -4
-19 -1 -8 3 -5 6 6 6 11 1 17 -2 13 -5z m143 -4 c0 -5 -9 -10 -20 -10 -11 0
-20 5 -20 10 0 6 9 10 20 10 11 0 20 -4 20 -10z m1115 -10 c15 -17 16 -26 7
-62 -6 -23 -8 -46 -6 -50 3 -5 0 -16 -7 -24 -6 -8 -9 -18 -5 -22 4 -4 14 1 21
11 8 12 15 14 20 7 4 -6 38 -10 83 -9 111 2 159 -8 166 -34 6 -22 7 -22 21 3
14 24 14 24 15 3 0 -12 -4 -25 -10 -28 -5 -3 -10 -15 -10 -26 0 -23 -12 -24
-65 -4 -24 8 -79 14 -136 15 -112 0 -102 -10 -140 139 -17 69 -19 85 -8 92 21
13 34 11 54 -11z m276 -10 c17 0 19 -8 19 -65 0 -80 -8 -85 -95 -62 -35 9 -76
14 -97 11 l-36 -6 5 48 c2 27 6 54 8 61 5 14 71 22 134 17 24 -2 52 -4 62 -4z
m-236 -50 c-4 -23 -9 -39 -12 -36 -3 2 -2 23 2 46 4 23 9 39 12 36 3 -2 2 -23
-2 -46z m329 -77 l6 -113 -30 0 c-31 0 -36 9 -21 39 5 9 11 55 12 102 1 46 4
88 6 92 13 22 21 -17 27 -120z m-2010 98 c17 -7 16 -9 -8 -24 -24 -16 -28 -16
-63 -1 -34 14 -36 17 -18 24 25 11 64 11 89 1z m671 -62 c-26 -99 -55 -161
-70 -149 -10 8 -2 34 34 114 25 58 47 103 49 101 2 -1 -4 -31 -13 -66z m-460
41 c3 -5 13 -6 21 -3 12 4 15 1 12 -13 -3 -17 -15 -19 -128 -22 l-125 -4 20
22 c18 20 27 22 80 17 33 -3 69 -2 80 3 27 12 33 12 40 0z m805 -5 c0 -8 -7
-15 -16 -15 -14 0 -14 3 -4 15 7 8 14 15 16 15 2 0 4 -7 4 -15z m188 -41 c2
-1 -22 -8 -53 -14 -43 -9 -68 -9 -106 0 -27 7 -56 9 -64 6 -8 -3 -23 -2 -32 2
-24 10 105 19 187 14 36 -3 66 -6 68 -8z m-1219 -13 c18 -12 4 -19 -57 -27
-43 -5 -52 -4 -52 9 0 8 6 18 13 20 20 9 81 7 96 -2z m631 -6 c0 -14 -13 -15
-87 -11 -49 2 -90 6 -93 7 -3 2 36 6 85 9 50 3 91 7 93 8 1 1 2 -5 2 -13z
m-490 -6 c-67 -6 -108 -5 -114 1 -7 7 28 10 105 9 l114 -2 -105 -8z m975 -12
c107 6 256 6 262 -1 4 -4 1 -19 -8 -34 -13 -23 -24 -28 -78 -35 -77 -9 -131
-31 -131 -51 0 -9 -5 -16 -11 -16 -6 0 -8 8 -4 19 10 34 -41 52 -145 52 -79 0
-91 2 -100 20 -9 16 -7 21 17 30 46 18 106 27 133 20 14 -3 43 -5 65 -4z
m-892 -27 c-9 -32 -24 -38 -123 -42 -104 -5 -163 -26 -158 -56 2 -12 -4 -17
-22 -17 -22 0 -25 5 -28 38 -3 32 0 37 17 37 23 0 28 16 9 23 -33 12 14 23
120 28 64 3 133 6 154 7 31 2 35 -1 31 -18z m387 0 c-1 -33 -26 -50 -73 -50
-41 0 -48 3 -61 29 -9 16 -13 31 -10 34 3 3 37 5 75 4 54 -2 69 -5 69 -17z
m-402 -90 l23 -30 -78 0 c-89 0 -126 13 -69 24 20 4 36 11 36 16 0 9 21 17 51
19 8 0 25 -12 37 -29z m896 24 c26 -10 18 -32 -16 -43 -50 -15 -178 -25 -178
-13 0 11 33 22 70 22 18 0 21 3 12 9 -22 13 32 23 63 11 32 -12 35 -12 35 -1
0 5 -10 12 -22 14 -23 4 -23 4 -1 6 12 0 28 -2 37 -5z m287 -17 c-10 -9 -11
-8 -5 6 3 10 9 15 12 12 3 -3 0 -11 -7 -18z m-45 -22 c21 -11 45 -13 92 -9 71
8 88 -10 19 -19 -75 -10 -182 3 -196 24 -10 17 -8 19 23 19 18 0 47 -7 62 -15z
m-708 -6 c24 0 25 -1 7 -9 -11 -5 -42 -8 -70 -8 -27 0 -41 2 -30 5 11 3 24 9
30 14 5 5 16 7 23 4 8 -3 26 -5 40 -6z m1384 -121 c2 -62 1 -125 0 -139 -4
-25 -6 -26 -39 -19 -20 5 -40 13 -46 19 -7 7 -3 8 10 5 12 -3 24 -1 27 5 5 7
-9 11 -41 12 l-48 1 45 13 45 13 -41 1 c-28 1 -44 6 -48 17 -5 13 -12 10 -38
-17 -21 -21 -28 -34 -20 -37 6 -2 10 -8 6 -13 -8 -14 -24 -1 -24 20 0 25 37
106 55 121 8 7 15 18 15 24 0 6 11 24 25 40 14 16 25 33 25 38 0 4 20 8 44 8
l45 0 3 -112z m-1102 85 c2 -2 -2 -8 -10 -14 -12 -7 -11 -10 7 -15 19 -5 20
-8 8 -20 -7 -8 -19 -14 -26 -14 -25 0 6 -19 46 -29 23 -5 30 -9 18 -10 -25 -1
-42 -21 -19 -21 9 0 16 -4 16 -10 0 -5 -7 -10 -15 -10 -24 0 -17 -17 10 -24
28 -7 33 -24 10 -32 -8 -4 -15 -15 -15 -26 0 -10 -4 -17 -9 -14 -5 3 -7 15 -4
27 4 14 0 22 -14 25 -17 5 -113 168 -113 193 0 9 98 4 110 -6z m-400 -5 c0 -4
-9 -8 -20 -10 -33 -5 -28 -23 8 -26 21 -2 32 -9 32 -19 0 -11 6 -14 25 -9 14
4 25 2 25 -3 0 -5 -21 -12 -47 -16 -44 -6 -46 -8 -28 -21 18 -13 17 -14 -11
-15 -29 -1 -29 -1 -4 -9 14 -4 19 -8 13 -9 -21 -2 -15 -18 10 -26 l22 -8 -24
-4 c-28 -6 -54 22 -72 77 -7 19 -20 52 -30 72 l-19 37 60 -2 c33 -1 60 -5 60
-9z m312 -86 c44 -90 47 -102 44 -162 -2 -51 -12 -84 -45 -155 -23 -49 -51
-100 -63 -112 -30 -32 -72 -30 -96 4 -50 74 -90 230 -63 247 6 4 11 25 11 46
0 22 13 65 30 102 16 34 30 68 30 73 0 29 32 55 68 55 37 -1 37 -1 84 -98z
m370 56 c14 -24 31 -59 38 -78 17 -44 30 -61 41 -55 4 3 -7 40 -26 82 -19 41
-35 80 -35 85 0 11 44 -1 48 -13 2 -5 20 -9 40 -10 21 -1 48 -5 62 -9 l25 -8
-27 -1 c-39 -1 -35 -21 5 -23 l32 -1 -32 -4 c-45 -6 -42 -23 4 -23 42 0 41 -7
-2 -14 -43 -7 -44 -8 -5 -16 26 -5 31 -8 18 -13 -10 -4 -26 -10 -35 -14 -14
-5 -9 -8 17 -13 30 -6 31 -8 8 -9 -30 -1 -45 -16 -26 -24 7 -3 2 -6 -12 -6
-15 -1 -31 4 -38 11 -10 10 -17 8 -34 -9 -20 -21 -21 -23 -4 -48 17 -25 17
-30 -4 -98 -12 -39 -35 -97 -51 -129 -27 -53 -32 -58 -62 -58 -50 0 -89 46
-122 143 -15 46 -12 122 6 133 5 3 9 22 9 42 0 23 17 71 45 130 38 79 48 92
69 92 18 0 30 -11 48 -42z m405 -58 c27 -61 39 -98 33 -104 -15 -15 -12 -53 5
-60 13 -5 13 -10 1 -38 -8 -18 -29 -69 -46 -113 -33 -83 -54 -115 -76 -115
-24 0 -66 70 -96 156 -26 80 -27 87 -12 99 13 9 15 20 11 45 -6 26 2 49 45
132 67 129 77 129 135 -2z m-1597 38 c18 -29 42 -66 53 -82 16 -23 18 -33 8
-47 -14 -24 -14 -44 1 -68 9 -15 5 -35 -18 -102 -16 -46 -42 -106 -59 -134
-27 -45 -34 -50 -65 -50 l-35 0 -3 268 -2 267 44 0 c42 0 45 -2 76 -52z m85
32 c0 -9 12 -16 30 -19 26 -3 28 -4 10 -11 -18 -8 -18 -9 -2 -9 10 -1 15 -5
12 -11 -3 -6 5 -10 19 -10 14 0 28 -4 31 -10 4 -6 -5 -10 -20 -10 -36 0 -61
-25 -45 -45 7 -8 22 -15 33 -15 28 0 19 -6 -20 -13 -22 -4 -33 -3 -33 5 0 6
-8 21 -18 32 -10 12 -33 47 -51 79 l-32 58 43 -3 c30 -2 43 -7 43 -18z m302
-17 c31 -58 68 -156 64 -172 -1 -8 2 -24 9 -36 24 -44 -88 -286 -136 -293 -33
-5 -90 92 -118 202 -14 52 -14 61 0 88 9 17 13 41 10 56 -5 20 5 45 39 102 25
41 45 78 45 82 0 4 15 8 33 8 28 0 36 -6 54 -37z m1271 -3 c2 -6 21 -13 43
-16 21 -4 39 -10 39 -15 0 -5 9 -9 20 -9 11 0 20 -4 20 -10 0 -5 -9 -10 -20
-10 -30 0 -24 -18 8 -23 25 -4 24 -4 -6 -6 -36 -1 -35 -20 1 -22 20 -1 20 -2
2 -6 -11 -3 -24 -12 -30 -20 -8 -11 -21 -13 -46 -8 -33 6 -37 11 -64 82 -17
42 -31 80 -33 84 -2 4 12 4 30 -2 18 -5 35 -14 36 -19z m177 -10 c-3 -5 -18
-9 -33 -9 l-27 1 30 8 c17 4 31 8 33 9 2 0 0 -3 -3 -9z m-1718 -155 c1 -5 -2
-17 -7 -25 -8 -13 -11 -13 -26 2 -9 9 -13 21 -9 28 8 13 37 10 42 -5z m34 -32
c-9 -16 -10 -14 -11 12 0 21 3 26 11 18 8 -8 8 -16 0 -30z m49 33 c0 -3 -4 -8
-10 -11 -5 -3 -10 -1 -10 4 0 6 5 11 10 11 6 0 10 -2 10 -4z m298 -21 c0 -20
-3 -23 -14 -14 -7 6 -10 17 -7 25 8 23 21 16 21 -11z m87 -14 c-9 -29 -62 -30
-60 -1 2 25 15 39 15 17 0 -9 7 -17 15 -17 9 0 15 9 15 22 0 16 3 19 11 11 6
-6 8 -20 4 -32z m315 23 c0 -8 -5 -12 -10 -9 -6 4 -8 11 -5 16 9 14 15 11 15
-7z m490 1 c8 -10 10 -19 4 -25 -5 -5 -14 1 -21 16 -12 27 -2 32 17 9z m-100
-17 c0 -19 -2 -20 -10 -8 -13 19 -13 30 0 30 6 0 10 -10 10 -22z m436 -3 c-3
-9 -11 -13 -16 -10 -8 5 -7 11 1 21 14 18 24 11 15 -11z m-396 5 c0 -5 -2 -10
-4 -10 -3 0 -8 5 -11 10 -3 6 -1 10 4 10 6 0 11 -4 11 -10z m450 1 c0 -6 -4
-13 -10 -16 -5 -3 -10 1 -10 9 0 9 5 16 10 16 6 0 10 -4 10 -9z m-807 -16 c-3
-9 -8 -14 -10 -11 -3 3 -2 9 2 15 9 16 15 13 8 -4z m861 -14 c19 -7 19 -8 -3
-14 -27 -7 -25 -40 3 -45 14 -3 17 0 13 13 -4 9 -3 14 1 11 5 -3 9 -33 10 -66
2 -66 8 -84 23 -74 6 3 7 33 3 75 l-7 69 66 0 65 0 -5 -102 c-2 -57 -6 -109
-9 -116 -3 -9 -23 -12 -71 -10 l-67 3 -26 45 c-29 50 -60 140 -60 174 0 39 24
53 64 37z m135 -6 c-9 -8 -79 -12 -79 -4 0 5 19 9 42 9 23 0 39 -2 37 -5z
m-1477 -88 c-14 -86 -59 -181 -89 -185 -28 -4 -28 2 -4 42 16 26 56 120 85
200 13 38 18 6 8 -57z m861 66 c-32 -6 -29 -23 5 -24 23 -2 24 -2 5 -6 -27 -5
-31 -22 -5 -24 16 -1 16 -2 -1 -6 -23 -6 -12 -23 16 -23 17 0 26 -10 38 -45
l17 -45 -59 0 c-33 0 -59 -4 -59 -10 0 -6 28 -10 65 -10 54 0 66 -3 75 -20 6
-11 7 -20 1 -20 -5 0 -11 6 -14 14 -7 17 -157 22 -157 6 0 -6 30 -11 68 -11
62 -1 64 -2 27 -10 -55 -11 -125 -11 -125 1 0 5 16 53 35 107 19 54 35 106 35
116 0 12 7 17 28 16 23 -2 24 -2 5 -6z m-1190 -10 c-7 -2 -21 -2 -30 0 -10 3
-4 5 12 5 17 0 24 -2 18 -5z m387 -3 c0 -5 -5 -10 -11 -10 -5 0 -7 5 -4 10 3
6 8 10 11 10 2 0 4 -4 4 -10z m1190 -9 c0 -5 -9 -7 -20 -4 -14 4 -20 0 -20
-11 0 -9 -4 -16 -10 -16 -12 0 -12 3 -4 24 6 17 54 23 54 7z m-89 -32 c-5 -13
-10 -19 -10 -12 -1 15 10 45 15 40 3 -2 0 -15 -5 -28z m-1476 10 c4 -6 5 -12
4 -13 -8 -7 -69 7 -69 15 0 13 57 11 65 -2z m385 1 c0 -5 -7 -7 -15 -4 -8 4
-15 8 -15 10 0 2 7 4 15 4 8 0 15 -4 15 -10z m420 -18 c0 -5 -13 -7 -30 -4
-16 2 -30 6 -30 8 0 2 14 4 30 4 17 0 30 -4 30 -8z m-410 -11 c0 -4 -11 -6
-25 -3 -14 2 -25 6 -25 8 0 2 11 4 25 4 14 0 25 -4 25 -9z m284 -78 c-25 -65
-48 -102 -58 -92 -2 2 15 43 37 90 49 100 60 101 21 2z m-674 67 c0 -5 -18
-10 -41 -10 -27 0 -38 -4 -33 -11 4 -7 22 -9 45 -6 22 3 42 1 45 -4 3 -5 -18
-9 -45 -9 -70 0 -65 -18 6 -22 36 -2 58 -8 61 -16 3 -11 -10 -13 -58 -10 -39
2 -64 -1 -67 -8 -2 -7 21 -10 67 -10 47 1 71 -3 75 -11 3 -10 -14 -13 -64 -13
-74 0 -101 -6 -101 -22 0 -7 35 -9 95 -6 52 3 95 1 95 -4 0 -10 -216 -15 -226
-5 -3 2 9 35 24 73 16 38 32 77 35 87 5 12 17 17 47 17 22 0 40 -4 40 -10z
m1564 0 c16 -6 26 -17 26 -30 0 -17 -7 -20 -39 -20 -33 0 -40 -3 -38 -19 1
-15 10 -20 44 -23 32 -2 42 0 38 9 -2 7 -1 13 4 13 8 0 31 -44 31 -60 0 -6
-43 -10 -100 -10 -89 0 -118 8 -91 24 4 3 18 33 30 66 24 65 38 72 95 50z
m-754 -18 c0 -15 -6 -17 -35 -14 -21 3 -35 0 -35 -7 0 -6 10 -11 23 -11 12 0
33 -4 47 -8 20 -6 15 -8 -30 -13 l-55 -6 52 -1 c28 -1 55 -7 58 -12 4 -7 -10
-9 -42 -5 -44 4 -76 -3 -74 -19 6 -44 0 -56 -29 -56 -16 0 -30 2 -30 5 0 3 11
27 24 53 13 26 27 62 31 80 6 30 9 32 51 32 36 0 44 -3 44 -18z m-401 -23 c17
-48 15 -51 -33 -44 -25 4 -46 3 -50 -3 -7 -12 40 -22 75 -15 15 3 30 0 33 -6
5 -8 -12 -11 -53 -11 -83 0 -78 -18 6 -22 42 -2 68 -8 71 -15 3 -10 -20 -13
-91 -13 l-94 0 21 54 c21 53 22 54 59 52 21 -1 41 2 43 6 3 4 -13 8 -36 8 -24
0 -39 4 -35 10 3 5 19 7 35 3 18 -3 30 -1 30 5 0 6 -15 13 -32 15 l-33 4 37 1
c32 2 37 -1 47 -29z m1027 -26 c-8 -15 -15 -25 -16 -21 0 12 23 58 27 54 3 -2
-2 -17 -11 -33z m-390 -60 c-8 -15 -15 -25 -16 -21 0 12 23 58 27 54 3 -2 -2
-17 -11 -33z m-238 10 c-10 -2 -26 -2 -35 0 -10 3 -2 5 17 5 19 0 27 -2 18 -5z
m59 -49 c-3 -3 -12 -4 -19 -1 -8 3 -5 6 6 6 11 1 17 -2 13 -5z"/>
<path d="M910 3725 c0 -8 8 -15 18 -15 11 0 26 -16 39 -44 23 -46 21 -56 -9
-56 -10 0 -18 -4 -18 -9 0 -7 67 -7 260 -1 22 1 23 2 9 13 -24 18 -33 81 -14
97 30 25 14 31 -77 28 -91 -3 -93 -4 -96 -28 -2 -14 -8 -29 -13 -35 -14 -14
-30 15 -24 43 5 20 2 22 -35 22 -29 0 -40 -4 -40 -15z m249 -57 l-1 -53 -10
38 c-6 20 -7 44 -4 52 10 28 16 15 15 -37z m-89 -3 c0 -41 -2 -45 -25 -45 -30
0 -29 -1 -9 50 21 53 34 51 34 -5z m50 -6 c0 -28 -4 -39 -12 -37 -16 6 -22 32
-14 64 10 37 26 19 26 -27z"/>
<path d="M425 3222 c-48 -23 -91 -70 -118 -131 -28 -63 -20 -155 20 -219 55
-90 185 -130 285 -89 43 18 131 102 154 147 35 68 18 167 -38 216 -90 80 -223
114 -303 76z m155 -6 c0 -3 -24 -11 -53 -20 -166 -48 -187 -283 -32 -364 17
-8 55 -18 85 -22 l55 -6 -41 -13 c-61 -20 -143 -7 -193 29 -139 101 -122 302
34 383 26 14 145 24 145 13z m85 -45 c96 -44 133 -148 85 -241 -64 -125 -246
-125 -310 0 -77 150 73 311 225 241z"/>
<path d="M504 3084 c-17 -14 -17 -15 -1 -10 10 3 28 6 40 6 18 0 19 2 7 10
-20 13 -23 13 -46 -6z"/>
<path d="M630 3082 c0 -6 16 -12 35 -14 22 -2 34 0 32 6 -4 14 -67 21 -67 8z"/>
<path d="M530 3051 c-25 -7 -25 -7 -4 -19 21 -11 44 -1 44 20 0 9 -5 9 -40 -1z"/>
<path d="M640 3039 c0 -10 31 -20 41 -13 17 10 9 19 -16 19 -14 0 -25 -3 -25
-6z"/>
<path d="M565 2920 c-4 -6 12 -10 40 -10 28 0 44 4 40 10 -3 6 -21 10 -40 10
-19 0 -37 -4 -40 -10z"/>
<path d="M1520 1923 c0 -50 40 -153 60 -153 15 0 12 14 -16 69 -14 29 -25 62
-24 74 4 39 0 57 -10 57 -5 0 -10 -21 -10 -47z"/>
<path d="M1240 1410 c0 -5 6 -10 14 -10 8 0 18 5 21 10 3 6 -3 10 -14 10 -12
0 -21 -4 -21 -10z"/>
<path d="M911 826 c12 -10 59 -15 59 -6 0 5 -14 10 -32 10 -17 0 -29 -2 -27
-4z"/>
<path d="M1690 760 c36 -11 50 -11 50 0 0 6 -17 10 -37 9 -34 -1 -35 -2 -13
-9z"/>
<path d="M1585 660 c-4 -6 28 -10 89 -10 57 0 96 4 96 10 0 6 -36 10 -89 10
-50 0 -93 -4 -96 -10z"/>
<path d="M423 724 c-12 -30 -18 -54 -13 -54 8 0 44 100 38 105 -2 2 -13 -21
-25 -51z"/>
<path d="M480 770 c0 -5 18 -10 39 -10 22 0 43 5 46 10 4 6 -12 10 -39 10 -25
0 -46 -4 -46 -10z"/>
<path d="M430 660 c0 -12 62 -16 121 -9 64 7 59 9 -43 13 -43 2 -78 0 -78 -4z"/>
<path d="M2020 460 c0 -5 9 -10 20 -10 11 0 20 -4 20 -10 0 -14 47 -13 56 1 3
6 0 15 -7 20 -19 12 -89 11 -89 -1z"/>
<path d="M2050 260 c0 -5 7 -10 15 -10 8 0 15 5 15 10 0 6 -7 10 -15 10 -8 0
-15 -4 -15 -10z"/>
<path d="M1513 193 c9 -2 23 -2 30 0 6 3 -1 5 -18 5 -16 0 -22 -2 -12 -5z"/>
<path d="M1465 160 c3 -5 17 -10 31 -10 14 0 22 4 19 10 -3 6 -17 10 -31 10
-14 0 -22 -4 -19 -10z"/>
<path d="M1850 191 c0 -9 62 -22 70 -14 8 7 -24 23 -47 23 -13 0 -23 -4 -23
-9z"/>
</g>
</svg>
