<?xml version="1.0" standalone="no"?>
<!DOCTYPE svg PUBLIC "-//W3C//DTD SVG 20010904//EN"
 "http://www.w3.org/TR/2001/REC-SVG-20010904/DTD/svg10.dtd">
<svg version="1.0" xmlns="http://www.w3.org/2000/svg"
 width="222.000000pt" height="385.000000pt" viewBox="0 0 222.000000 385.000000"
 preserveAspectRatio="xMidYMid meet">
<metadata>
Created by potrace 1.16, written by Peter Selinger 2001-2019
</metadata>
<g transform="translate(0.000000,385.000000) scale(0.100000,-0.100000)"
fill="#000000" stroke="none">
<path d="M1115 3832 c-2 -2 -245 -5 -540 -7 -295 -1 -541 -7 -546 -12 -6 -6
-26 -1177 -22 -1363 10 -505 15 -1067 15 -1682 l0 -768 296 0 c162 0 293 2
290 5 -3 3 -130 6 -282 6 l-276 0 -1 72 c-1 40 -2 97 -3 127 -6 173 -7 513 -2
518 3 3 6 14 6 24 0 10 5 18 10 18 6 0 10 5 10 10 0 6 -6 10 -13 10 -14 0 -17
38 -4 58 5 6 4 12 0 12 -5 0 -8 99 -8 220 0 128 4 219 9 217 5 -1 10 -38 12
-82 5 -190 5 -305 -1 -315 -3 -6 0 -23 7 -38 8 -17 11 -45 8 -74 -3 -27 -3
-48 1 -48 19 0 39 13 39 26 0 16 92 64 123 64 28 0 97 65 97 91 0 16 5 19 20
14 13 -4 22 -1 26 9 3 9 17 16 30 16 21 0 24 -5 24 -38 0 -21 5 -43 10 -48 6
-6 14 -90 18 -188 6 -138 11 -179 22 -186 8 -5 47 -9 87 -8 l73 1 0 44 c0 39
2 44 17 38 10 -5 59 -15 110 -24 83 -14 92 -18 96 -40 3 -17 0 -25 -14 -28
-11 -3 -19 -10 -19 -15 0 -6 6 -8 14 -5 29 12 24 -7 -14 -44 -25 -25 -45 -37
-54 -33 -10 4 -16 1 -16 -10 0 -8 -18 -25 -40 -36 -42 -22 -100 -27 -100 -9 0
19 52 74 67 71 7 -2 26 6 41 16 15 11 37 23 50 26 24 8 30 26 8 26 -11 0 -13
9 -9 35 4 26 2 35 -9 35 -8 0 -14 -10 -13 -27 0 -21 -8 -32 -34 -48 -19 -11
-54 -40 -78 -65 -67 -70 -52 -116 32 -101 46 9 81 25 111 53 12 11 41 25 65
32 40 12 44 16 47 49 2 20 -1 52 -7 72 -9 33 -8 35 15 35 14 0 41 7 61 15 26
11 53 14 92 9 39 -4 70 -1 101 10 56 19 60 20 60 2 0 -8 16 -20 35 -26 34 -11
46 -32 25 -45 -11 -7 -2 -66 14 -81 6 -7 32 -17 59 -23 26 -6 67 -16 91 -22
62 -15 150 -8 154 12 5 26 -42 83 -78 96 l-35 11 35 4 35 3 1 67 c0 37 6 73
12 81 8 9 12 44 11 93 -1 44 2 111 7 149 l9 70 63 3 c60 3 62 2 62 -22 0 -33
20 -42 113 -51 69 -6 79 -9 87 -30 6 -17 23 -27 57 -37 44 -13 48 -16 48 -45
0 -38 24 -59 75 -69 19 -4 40 -11 47 -16 13 -10 18 -521 7 -630 l-6 -57 -72
-4 c-57 -3 -54 -3 19 -3 l90 1 -4 685 c-2 377 -4 1234 -5 1905 -1 671 -5 1226
-10 1233 -6 10 -110 12 -533 10 -288 -2 -526 -4 -528 -6z m1033 -27 c9 -3 12
-103 12 -451 0 -425 -1 -446 -18 -442 -10 3 -53 2 -95 -1 -42 -4 -77 -5 -77
-3 0 2 9 21 20 44 14 30 17 45 10 59 -16 29 -84 42 -182 34 -84 -6 -86 -6 -81
14 18 68 -27 95 -149 90 -90 -4 -108 -11 -108 -41 0 -27 49 -186 59 -193 14
-8 3 -99 -19 -161 -11 -32 -20 -60 -20 -61 0 -2 -4 -3 -10 -3 -5 0 -10 5 -10
11 0 6 -7 17 -15 25 -8 9 -15 24 -15 35 0 15 6 19 29 17 17 -2 31 2 33 7 2 6
-16 11 -39 13 -40 3 -42 5 -57 49 -28 82 -21 150 24 254 22 50 38 99 35 108
-9 31 -60 43 -160 39 -72 -2 -98 -7 -111 -20 -17 -16 -18 -16 -29 5 -6 12 -21
23 -33 25 -26 4 -28 -6 -5 -24 16 -11 15 -13 -10 -25 -21 -9 -30 -10 -35 -2
-4 6 -23 13 -42 16 l-35 4 37 1 c40 2 59 19 37 33 -35 22 -161 3 -173 -26 -6
-17 7 -66 43 -153 21 -50 26 -73 18 -81 -8 -8 -7 -18 3 -35 17 -33 8 -103 -25
-186 -35 -88 -41 -92 -64 -39 -17 37 -18 45 -5 52 8 4 18 6 23 3 12 -8 41 3
41 15 0 5 -22 9 -48 9 l-48 0 -11 48 c-16 66 -9 168 15 222 11 25 23 61 27 82
6 32 4 38 -19 53 -37 25 -196 18 -226 -10 -11 -10 -18 -25 -15 -34 4 -14 -8
-16 -93 -14 -54 1 -111 -1 -127 -5 -27 -7 -30 -13 -33 -51 -3 -42 -3 -42 -35
-35 -46 11 -164 6 -190 -7 -27 -15 -37 -28 -37 -54 0 -18 -5 -20 -35 -17 l-35
4 0 382 c1 210 4 387 8 393 9 15 178 19 1182 29 388 3 706 7 707 8 4 3 199 -5
211 -9z m-710 -598 c24 -19 -6 -30 -81 -30 -87 1 -131 16 -79 28 18 3 34 11
38 16 7 12 104 1 122 -14z m-592 -2 c16 -13 17 -16 4 -25 -20 -13 -47 -13
-112 1 l-53 12 40 12 c55 18 98 18 121 0z m380 -91 c35 -94 46 -147 45 -223 0
-71 -12 -117 -47 -178 -23 -39 -23 -43 -7 -51 10 -5 56 -15 102 -23 75 -12 86
-11 113 4 41 23 53 21 35 -6 -26 -40 -3 -55 107 -69 l97 -12 31 31 31 31 -22
52 c-12 28 -21 55 -19 60 2 5 21 2 43 -5 21 -8 42 -12 45 -9 9 9 -32 33 -67
40 -18 3 -36 10 -39 16 -3 5 -6 37 -5 71 0 49 6 74 27 112 27 47 28 48 37 24
6 -13 19 -42 30 -64 11 -22 23 -73 28 -113 7 -63 5 -81 -12 -128 -11 -30 -31
-67 -45 -83 -32 -38 -30 -51 8 -90 l33 -34 83 6 c93 5 88 11 60 -63 -12 -32
-15 -35 -35 -24 -13 6 -31 18 -42 28 -13 12 -27 15 -45 10 -16 -4 -26 -2 -26
5 0 12 -26 15 -33 4 -3 -5 -8 -22 -11 -40 -7 -30 -6 -32 26 -36 30 -4 31 -5
11 -12 -27 -9 -30 -32 -5 -38 13 -4 11 -5 -5 -6 -13 0 -23 -7 -23 -15 0 -8 -3
-21 -6 -30 -5 -12 1 -16 22 -17 24 -1 25 -2 7 -6 -15 -3 -23 -12 -23 -24 0
-39 -18 -9 -25 41 -4 27 -11 52 -16 56 -5 3 -9 16 -9 29 0 13 -7 28 -16 33
-13 7 -15 15 -7 38 9 28 9 28 22 -19 13 -44 35 -76 46 -65 3 3 -4 25 -15 49
-11 24 -20 54 -20 66 0 15 -5 21 -13 17 -9 -3 -13 3 -13 18 1 18 -5 24 -29 26
-24 2 -27 1 -15 -8 12 -9 9 -11 -15 -6 -17 2 -36 2 -41 -2 -35 -23 -13 -111
28 -113 l23 -2 -22 -4 c-18 -3 -23 -11 -23 -34 0 -23 5 -29 23 -30 l22 -2 -22
-4 c-36 -7 -28 -33 10 -34 29 -1 30 -2 7 -8 -21 -6 -25 -13 -26 -49 -2 -38 0
-42 22 -42 13 0 24 -4 24 -10 0 -5 -9 -10 -21 -10 -12 0 -17 -4 -14 -11 4 -6
13 -8 20 -5 19 7 28 -115 19 -270 -9 -158 -7 -559 4 -633 4 -31 13 -56 20 -59
11 -3 12 7 6 54 -7 50 -7 319 -2 754 1 52 -1 159 -3 237 -4 149 4 174 20 60
10 -73 41 -134 75 -147 20 -8 19 -9 -5 -9 -21 -1 -29 -8 -34 -28 -11 -43 -14
-93 -5 -93 4 0 7 -17 6 -37 -1 -34 2 -38 29 -44 l30 -7 -32 -1 c-26 -1 -33 -5
-33 -21 0 -11 0 -23 0 -27 0 -5 9 -9 20 -9 11 -1 24 -5 28 -9 4 -4 -8 -5 -27
-3 -47 4 -50 -16 -4 -30 l38 -11 -38 4 c-36 4 -37 3 -34 -23 3 -22 9 -28 35
-30 18 -2 32 -8 32 -14 0 -6 -13 -8 -30 -6 -41 6 -39 -17 3 -27 24 -6 27 -9
12 -12 -11 -2 -30 -6 -43 -9 -31 -6 -18 -24 19 -24 19 0 29 -5 29 -15 0 -9 -9
-15 -25 -15 -18 0 -25 -5 -25 -20 0 -11 -1 -23 -2 -27 -1 -5 11 -11 28 -14
l29 -7 -27 -1 c-32 -1 -39 -21 -8 -21 22 0 27 -25 8 -34 -10 -5 -10 -7 0 -12
21 -10 13 -24 -13 -24 -14 0 -25 -4 -25 -10 0 -5 14 -10 32 -10 17 0 28 -3 24
-7 -4 -4 -19 -7 -33 -8 -40 0 -41 -25 -1 -27 l33 -1 -32 -4 c-44 -6 -42 -23 2
-23 44 0 46 -18 3 -22 -18 -2 -31 -7 -28 -13 3 -5 17 -9 33 -7 18 1 27 -3 27
-13 0 -11 -11 -15 -37 -15 -40 0 -36 -15 7 -23 24 -4 24 -4 -2 -6 -35 -1 -37
-21 -3 -21 14 0 25 -5 25 -11 0 -5 -10 -9 -22 -7 -11 2 -23 -3 -25 -9 -3 -8 6
-13 24 -14 l28 -1 -30 -7 c-34 -7 -32 -28 3 -23 12 1 22 -2 22 -8 0 -5 -13
-10 -30 -10 -16 0 -30 -4 -30 -10 0 -5 14 -10 30 -10 17 0 30 -4 30 -10 0 -5
-13 -10 -30 -10 -16 0 -30 -4 -30 -10 0 -5 14 -10 31 -10 17 0 28 -4 24 -10
-3 -5 -17 -10 -31 -10 -14 0 -22 -4 -19 -10 3 -6 17 -7 31 -4 14 4 24 2 24 -5
0 -6 -14 -11 -32 -11 -34 0 -29 -14 7 -23 15 -4 13 -5 -7 -6 -18 -1 -28 -7
-28 -16 0 -8 -4 -15 -10 -15 -5 0 -10 24 -10 54 0 38 -6 60 -20 79 -12 14 -30
47 -41 73 -19 42 -23 46 -50 42 -26 -4 -32 0 -46 30 -9 18 -32 44 -52 57 -20
12 -47 34 -60 49 -14 14 -30 26 -38 26 -18 0 -17 29 1 36 8 3 24 0 36 -6 29
-16 103 6 137 40 58 57 87 187 51 227 -15 17 -78 126 -78 136 0 2 9 15 21 28
19 22 20 32 15 114 -11 164 -15 399 -8 460 6 49 10 59 25 57 27 -5 20 27 -9
38 -31 12 -74 3 -74 -16 0 -8 -19 -32 -41 -54 l-41 -40 -94 0 c-105 0 -140 10
-153 42 -15 37 -79 94 -92 81 -8 -8 0 -22 31 -50 23 -21 46 -39 51 -41 4 -2 5
-10 2 -18 -3 -7 2 -17 11 -20 46 -18 -15 -40 -126 -46 l-67 -4 -3 36 c-2 19 0
60 3 90 5 46 3 58 -13 74 -19 18 -24 18 -141 1 -75 -10 -128 -23 -137 -32 -16
-16 -19 -16 125 7 116 19 122 8 40 -77 -30 -32 -55 -65 -55 -73 0 -22 119 104
131 139 10 29 29 43 29 21 0 -5 -4 -10 -10 -10 -5 0 -10 -18 -10 -40 0 -27 -5
-43 -15 -46 -8 -4 -15 -13 -15 -21 0 -7 -9 -33 -21 -56 -11 -23 -23 -67 -25
-98 -5 -49 -2 -60 20 -86 31 -37 32 -54 5 -78 -13 -13 -19 -29 -17 -49 3 -25
-1 -31 -24 -37 -36 -9 -168 -145 -193 -198 -14 -29 -26 -40 -40 -40 -17 1 -17
2 -2 6 10 3 17 14 17 29 0 19 -5 24 -27 25 -24 2 -25 2 -5 6 12 2 22 11 22 19
0 11 -6 13 -20 9 -11 -4 -20 -2 -20 4 0 6 11 11 25 11 14 0 25 5 25 10 0 6 -9
10 -19 10 -11 0 -23 5 -26 10 -3 6 3 10 14 10 26 0 28 25 4 39 -10 6 -12 11
-5 11 19 0 14 20 -5 21 -17 1 -17 2 0 6 21 6 24 53 2 53 -8 0 -15 9 -15 20 0
13 5 18 15 14 8 -4 15 -1 15 5 0 6 -7 11 -15 11 -12 0 -15 14 -14 73 l1 72 14
-65 c8 -36 17 -91 21 -123 3 -31 9 -60 14 -63 12 -7 11 82 0 124 -9 30 -8 32
15 32 15 0 24 6 24 16 0 11 -8 14 -25 12 -13 -2 -23 2 -22 7 1 6 13 10 26 10
14 1 26 6 29 13 2 8 -9 12 -32 12 -20 0 -36 5 -36 10 0 6 11 10 25 10 33 0 32
16 -2 25 -25 6 -26 7 -9 17 16 9 24 5 50 -25 29 -34 43 -41 74 -38 23 2 12 21
-13 21 -18 0 -35 14 -66 55 -40 54 -62 68 -40 27 9 -17 8 -19 -9 -15 -19 5
-27 38 -22 96 2 19 -13 23 -23 7 -14 -23 -23 2 -9 28 7 15 14 30 14 35 0 12
-28 8 -33 -5 -3 -8 -6 -6 -6 4 -1 16 -4 16 -42 3 -55 -20 -80 -20 -54 -1 19
14 19 15 1 35 -28 31 -15 34 24 6 22 -17 38 -22 49 -16 14 7 62 19 157 37 32
6 36 30 10 59 -30 32 -69 135 -53 140 7 2 29 6 50 10 60 10 45 27 -17 20 -48
-6 -54 -5 -59 14 -3 12 -3 38 0 60 3 21 0 47 -5 58 -6 11 -8 24 -3 29 4 5 22
44 41 87 18 42 35 77 39 77 15 0 50 -111 45 -140 -5 -23 -3 -30 9 -30 28 0 7
-182 -29 -252 -8 -16 -14 -34 -11 -41 2 -6 38 -19 81 -28 l77 -17 47 26 c60
33 59 31 42 42 -21 14 5 13 30 0 10 -5 54 -14 97 -18 74 -8 80 -8 110 16 18
13 31 28 28 32 -3 5 -1 11 4 15 6 3 1 20 -10 40 l-21 35 47 0 c60 0 57 25 -4
26 -23 1 -44 4 -48 7 -11 12 -22 101 -16 139 3 21 1 44 -5 51 -8 10 -5 26 12
63 13 27 29 66 36 88 15 47 23 40 56 -50z m-156 53 c0 -8 -3 -17 -7 -20 -13
-13 -12 -57 2 -57 17 0 29 -31 15 -40 -6 -4 -8 -14 -5 -23 5 -12 -1 -16 -22
-19 -35 -4 -47 -44 -14 -50 20 -3 21 -10 24 -145 2 -134 1 -143 -16 -143 -13
0 -17 5 -13 15 3 9 0 15 -9 15 -8 0 -15 6 -15 14 0 7 -8 16 -19 19 -14 3 -17
11 -14 30 3 17 10 24 19 20 8 -3 14 -1 14 5 0 6 -4 12 -10 14 -6 2 -3 21 6 48
10 28 13 60 10 85 -3 22 -6 55 -6 74 1 18 -5 43 -13 55 -8 11 -21 42 -30 69
l-16 47 60 0 c42 0 59 -4 59 -13z m225 -11 c16 -3 31 -10 33 -16 2 -5 25 -10
50 -11 37 -1 42 -3 22 -8 -14 -5 -40 -6 -57 -3 -21 3 -33 0 -33 -7 0 -6 18
-11 46 -11 25 0 43 -4 40 -9 -3 -4 -24 -7 -46 -5 -22 2 -40 -1 -40 -6 0 -6 12
-11 28 -11 l27 -2 -26 -4 c-15 -2 -31 -14 -36 -25 -9 -20 -11 -18 -31 23 -29
60 -39 111 -21 104 8 -2 27 -7 44 -9z m-535 -6 c39 0 46 -3 47 -20 1 -16 -4
-20 -28 -20 -32 0 -43 -29 -11 -31 16 -1 16 -2 -1 -6 -12 -3 -17 -12 -15 -26
2 -14 -3 -23 -14 -25 -19 -4 -51 50 -63 107 -7 32 -6 34 16 28 13 -4 44 -7 69
-7z m657 4 c-3 -3 -12 -4 -19 -1 -8 3 -5 6 6 6 11 1 17 -2 13 -5z m-907 -24
c16 0 32 -4 35 -10 4 -6 -24 -10 -75 -10 -61 0 -81 3 -78 13 5 13 81 27 86 15
2 -5 17 -8 32 -8z m115 -19 c-6 -5 -21 -12 -35 -15 -25 -6 -25 -6 -2 5 12 7
22 19 22 28 0 12 3 12 12 3 8 -8 8 -15 3 -21z m1075 -2 c34 -18 -72 -37 -127
-23 -34 9 -28 24 10 24 17 0 39 5 47 10 15 9 40 6 70 -11z m-1224 -43 c7 -8
22 -12 33 -9 10 3 22 0 25 -6 5 -7 -3 -11 -18 -11 -38 0 -32 -20 7 -22 l32 -1
-32 -4 c-30 -4 -48 -23 -22 -23 5 0 7 -4 4 -10 -3 -5 1 -10 9 -10 21 0 30 -18
16 -35 -26 -31 -47 -16 -89 60 -23 41 -41 77 -41 80 0 11 62 4 76 -9z m-136
-6 c11 -8 7 -9 -15 -4 -37 8 -45 14 -19 14 10 0 26 -5 34 -10z m1295 -6 c64
-7 67 -8 35 -16 -19 -4 -47 -5 -62 -2 -17 3 -28 1 -28 -5 0 -6 4 -11 10 -11 5
0 7 -7 4 -15 -5 -11 1 -15 21 -15 14 0 23 -4 20 -10 -3 -5 -19 -7 -35 -3 -36
7 -38 -3 -8 -29 22 -18 22 -20 5 -32 -9 -7 -17 -22 -18 -32 -1 -21 1 -24 -29
71 -34 111 -34 118 -8 112 13 -3 55 -9 93 -13z m-1415 -4 c0 -5 19 -10 43 -10
46 0 77 -13 58 -24 -19 -12 -172 -9 -184 3 -16 16 11 33 41 26 12 -3 22 -1 22
5 0 5 5 10 10 10 6 0 10 -4 10 -10z m206 -71 c10 -24 17 -58 15 -81 -1 -21 3
-45 9 -53 6 -7 10 -33 8 -56 l-3 -43 -55 -12 c-30 -7 -61 -13 -67 -14 -16 0
-17 46 -2 56 6 4 9 19 5 37 -9 43 41 207 63 207 4 0 16 -19 27 -41z m1249 31
c-8 -13 -35 -13 -55 0 -11 7 -5 10 23 10 23 0 36 -4 32 -10z m293 1 c28 -2 10
-29 -24 -34 -44 -7 -124 2 -124 14 0 5 -7 9 -16 9 -8 0 -13 3 -11 8 4 5 113 8
175 3z m-1206 -36 c-5 -16 -11 -25 -14 -20 -6 11 10 61 17 53 2 -2 1 -17 -3
-33z m561 -19 c-4 -5 -14 1 -25 13 -10 13 -15 28 -12 33 4 6 14 1 25 -13 9
-13 15 -28 12 -33z m-226 22 c-3 -8 -6 -5 -6 6 -1 11 2 17 5 13 3 -3 4 -12 1
-19z m-832 -11 c0 -10 7 -22 15 -27 13 -8 13 -10 -2 -10 -14 0 -14 -4 -5 -25
7 -14 21 -25 32 -26 17 -1 17 -2 3 -6 -10 -2 -18 -7 -18 -10 0 -3 8 -12 18
-19 15 -12 10 -13 -39 -14 -50 0 -57 3 -67 26 -8 17 -9 31 -2 44 15 28 12 39
-17 66 l-27 25 54 -3 c45 -2 55 -6 55 -21z m548 8 c8 -18 -11 -31 -25 -17 -11
11 -3 32 12 32 4 0 10 -7 13 -15z m554 -7 c-3 -8 -6 -5 -6 6 -1 11 2 17 5 13
3 -3 4 -12 1 -19z m-1281 -13 c9 -8 26 -15 40 -15 30 0 31 -16 2 -24 -38 -10
-73 -7 -94 8 -18 14 -18 15 8 21 16 4 25 11 22 16 -9 14 6 10 22 -6z m1792 4
c59 -1 70 -3 49 -9 -16 -5 -35 -6 -43 -3 -8 3 -14 0 -14 -5 0 -6 15 -13 33
-15 28 -3 27 -4 -10 -5 -48 -2 -57 -18 -36 -68 10 -26 10 -35 -2 -50 -13 -18
-14 -18 -8 4 4 16 1 22 -10 22 -15 0 -50 65 -64 119 -5 20 -3 23 11 18 10 -4
52 -7 94 -8z m-1099 -91 c1 -35 6 -98 12 -142 7 -56 7 -82 0 -89 -8 -8 -11 -6
-11 6 0 9 -8 17 -17 18 -11 0 -13 3 -5 6 17 7 5 23 -19 23 -11 0 -17 -4 -14
-10 3 -5 1 -10 -5 -10 -15 0 -4 51 13 62 9 6 9 10 0 16 -8 5 -9 20 -3 52 5 25
9 64 10 87 0 37 13 57 31 47 3 -2 7 -32 8 -66z m559 -3 c3 -60 22 -162 37
-200 6 -15 2 -13 -18 8 -15 15 -27 34 -27 42 0 38 -56 18 -67 -23 -3 -15 -9
-20 -15 -14 -6 6 -4 20 5 39 20 38 47 143 47 183 0 25 4 31 18 28 13 -3 18
-15 20 -63z m42 46 c0 -10 3 -33 6 -50 5 -24 3 -31 -10 -31 -13 0 -16 11 -16
50 0 28 5 50 10 50 6 0 10 -8 10 -19z m-573 -48 c-3 -10 -5 -2 -5 17 0 19 2
27 5 18 2 -10 2 -26 0 -35z m296 5 c3 -21 2 -38 -4 -38 -5 0 -9 19 -9 42 0 49
5 47 13 -4z m-543 22 c0 -5 -5 -10 -11 -10 -5 0 -7 5 -4 10 3 6 8 10 11 10 2
0 4 -4 4 -10z m1070 -5 c0 -8 -4 -15 -10 -15 -5 0 -10 7 -10 15 0 8 5 15 10
15 6 0 10 -7 10 -15z m-1556 -10 c3 -9 -1 -18 -9 -21 -16 -6 -45 12 -45 27 0
16 48 10 54 -6z m446 11 c0 -3 -4 -8 -10 -11 -5 -3 -10 -1 -10 4 0 6 5 11 10
11 6 0 10 -2 10 -4z m1629 -5 c22 -14 -2 -22 -83 -28 -49 -4 -75 -2 -80 6 -5
7 1 11 16 11 13 0 30 5 38 10 19 12 90 13 109 1z m-1955 -94 c-3 -8 2 -20 11
-27 17 -14 22 -95 5 -85 -5 3 -19 1 -31 -5 -11 -7 -33 -9 -47 -5 l-27 7 24 9
c19 8 22 15 19 41 -3 20 2 50 14 78 19 42 21 43 29 22 4 -12 6 -28 3 -35z
m1411 -14 c4 -38 11 -88 15 -113 5 -25 7 -46 6 -48 -10 -9 -36 14 -45 39 -5
16 -15 29 -22 29 -6 0 -9 -7 -5 -15 3 -10 -1 -15 -13 -15 -12 0 -21 -10 -25
-26 -5 -18 -10 -24 -17 -17 -7 7 -1 29 19 69 16 33 35 83 42 112 17 75 37 68
45 -15z m503 46 c2 -5 11 -9 20 -10 26 -2 -28 -17 -68 -19 l-35 -3 35 -7 c19
-4 27 -8 16 -9 -12 -1 -16 -6 -13 -16 4 -8 2 -17 -3 -20 -17 -10 -11 -25 10
-25 11 0 20 -5 20 -11 0 -5 -4 -8 -9 -4 -24 14 -29 -34 -16 -155 8 -69 17
-135 21 -148 7 -23 6 -24 -70 -20 -69 3 -76 5 -74 22 2 11 10 22 18 24 12 4
13 3 2 -10 -10 -13 -7 -16 25 -22 56 -9 93 -7 93 4 0 6 -17 11 -37 11 -21 1
-30 3 -20 6 28 7 9 23 -30 23 -30 0 -34 3 -28 18 26 62 45 125 45 148 0 17 6
28 19 31 16 4 17 10 11 40 -5 19 -15 40 -24 46 -9 7 -24 37 -35 67 l-18 56 71
-4 c39 -3 73 -8 74 -13z m-2038 -14 c5 -14 14 -25 19 -25 6 0 15 -9 21 -20 9
-16 8 -18 -5 -14 -11 5 -15 -1 -15 -19 0 -14 -5 -29 -10 -32 -6 -4 -10 5 -10
19 0 14 -4 26 -10 26 -5 0 -10 -7 -10 -15 0 -8 -3 -15 -7 -15 -5 0 -8 27 -9
60 0 65 18 83 36 35z m485 -2 c3 -16 19 -64 36 -109 16 -45 29 -84 29 -88 0
-9 -28 -7 -32 3 -1 5 -18 6 -36 4 -23 -4 -32 -10 -28 -19 3 -8 -1 -14 -9 -14
-11 0 -12 6 -3 32 6 17 12 74 12 125 1 66 5 93 13 93 7 0 15 -12 18 -27z
m1413 -40 c13 -38 20 -76 17 -85 -8 -21 -7 -21 -40 -6 -18 8 -25 19 -25 38 0
44 12 120 19 120 4 0 17 -30 29 -67z m-327 14 c-8 -8 -11 -3 -11 19 1 25 2 27
11 11 8 -14 8 -22 0 -30z m-1331 24 c0 -13 -26 -32 -33 -24 -14 13 -6 33 13
33 11 0 20 -4 20 -9z m1589 -5 c9 -10 8 -15 -4 -20 -10 -4 -15 1 -15 14 0 24
4 25 19 6z m-1666 -16 c3 -11 11 -19 17 -18 18 4 26 -18 45 -122 10 -52 20
-101 22 -107 3 -8 -3 -13 -16 -13 -12 0 -21 -4 -21 -10 0 -5 -13 -10 -30 -10
-16 0 -30 -4 -30 -10 0 -5 -7 -10 -16 -10 -12 0 -14 5 -9 18 14 32 35 116 35
140 0 14 8 26 23 32 17 7 18 9 5 9 -22 1 -24 21 -3 21 8 0 15 9 15 20 0 11 -5
20 -12 20 -16 0 -48 31 -48 47 0 20 17 15 23 -7z m599 -22 c-6 -6 -15 -8 -19
-4 -4 4 -1 11 7 16 19 12 27 3 12 -12z m588 -3 c0 -2 -10 -10 -22 -16 -21 -11
-22 -11 -9 4 13 16 31 23 31 12z m420 -26 c0 -41 -29 -167 -41 -174 -5 -4 -9
1 -9 9 0 9 -4 16 -10 16 -5 0 -10 -4 -10 -10 0 -5 -5 -10 -10 -10 -6 0 -5 8 2
20 7 11 18 18 25 16 15 -6 27 24 14 37 -6 6 -4 24 5 49 8 22 14 49 14 59 0 11
5 19 10 19 6 0 10 -14 10 -31z m-990 6 c-7 -8 -20 -15 -29 -15 -11 1 -8 5 9
15 32 18 35 18 20 0z m1050 -19 c0 -19 -6 -37 -12 -40 -9 -3 -7 -9 6 -20 17
-14 18 -16 3 -16 -22 0 -22 -17 1 -23 10 -3 6 -5 -10 -6 -30 -1 -39 -20 -10
-22 16 -1 16 -2 0 -6 -32 -8 -19 -23 15 -17 24 4 28 3 17 -5 -8 -6 -25 -11
-37 -11 -13 0 -23 -5 -23 -11 0 -8 14 -10 40 -6 23 3 38 1 34 -4 -3 -5 -20 -9
-39 -9 -39 0 -56 -17 -23 -23 19 -4 19 -4 -5 -6 -26 -1 -28 1 -23 27 6 28 23
129 33 195 7 48 33 51 33 3z m256 -22 c-3 -26 -6 -62 -6 -80 0 -22 -5 -34 -14
-34 -21 0 -23 29 -8 98 16 73 38 86 28 16z m-2031 26 c3 -5 1 -10 -4 -10 -6 0
-11 5 -11 10 0 6 2 10 4 10 3 0 8 -4 11 -10z m315 -37 c-7 -21 -22 -56 -33
-78 l-20 -40 -29 64 c-16 35 -27 65 -26 67 5 4 113 30 116 28 2 -2 -2 -20 -8
-41z m980 37 c-8 -5 -19 -10 -25 -10 -5 0 -3 5 5 10 8 5 20 10 25 10 6 0 3 -5
-5 -10z m240 6 c0 -3 -4 -8 -10 -11 -5 -3 -10 -1 -10 4 0 6 5 11 10 11 6 0 10
-2 10 -4z m-210 -21 c0 -2 -10 -9 -22 -15 -22 -11 -22 -10 -4 4 21 17 26 19
26 11z m-575 -15 c-3 -5 -16 -15 -28 -21 -19 -9 -19 -8 3 10 28 23 34 26 25
11z m795 6 c0 -3 -4 -8 -10 -11 -5 -3 -10 -1 -10 4 0 6 5 11 10 11 6 0 10 -2
10 -4z m-663 -12 c-3 -3 -12 -4 -19 -1 -8 3 -5 6 6 6 11 1 17 -2 13 -5z m1013
-21 c-1 -24 -2 -26 -11 -10 -5 9 -7 22 -4 27 10 17 15 11 15 -17z m75 -13 c-5
-8 -11 -8 -17 -2 -6 6 -7 16 -3 22 5 8 11 8 17 2 6 -6 7 -16 3 -22z m-2004
-58 c4 -42 17 -92 32 -125 14 -31 23 -58 19 -61 -11 -11 -22 -6 -22 10 0 14
-9 16 -51 12 -49 -5 -50 -5 -45 18 4 13 9 44 13 69 3 28 11 45 19 45 17 0 18
17 2 23 -10 4 -9 8 2 16 13 10 13 12 0 21 -12 8 -12 10 -1 10 9 0 11 7 8 21
-3 13 -1 19 6 16 7 -2 15 -34 18 -75z m409 58 c0 -11 -4 -20 -10 -20 -5 0 -9
5 -7 11 1 6 -4 14 -12 17 -8 3 -11 0 -7 -7 4 -6 2 -11 -3 -11 -20 0 -11 -20
12 -30 12 -5 16 -9 9 -9 -7 -1 -12 -9 -10 -18 3 -20 -20 -27 -42 -14 -21 14
21 101 50 101 13 0 20 -7 20 -20z m-286 -22 c-12 -65 -25 -108 -33 -108 -9 0
-27 39 -37 83 -5 24 -2 29 27 42 47 20 49 19 43 -17z m1471 3 c-3 -6 -11 -11
-17 -11 -6 0 -6 6 2 15 14 17 26 13 15 -4z m291 9 c11 0 13 -9 8 -42 -13 -81
-19 -87 -37 -33 -22 63 -22 89 -1 81 9 -3 22 -6 30 -6z m-1636 -14 c0 -3 -4
-8 -10 -11 -5 -3 -10 -1 -10 4 0 6 5 11 10 11 6 0 10 -2 10 -4z m295 -45 c-12
-10 -135 -34 -142 -28 -2 3 22 10 54 17 32 6 63 13 68 15 20 7 29 5 20 -4z
m-263 -39 c-7 -2 -12 -8 -12 -14 0 -6 7 -8 15 -5 23 9 28 -11 5 -23 -17 -9
-22 -7 -30 16 -11 29 3 50 24 37 6 -4 5 -8 -2 -11z m1418 -34 c0 -16 -20 -7
-30 12 -10 19 -10 20 9 8 12 -7 21 -16 21 -20z m356 18 c3 -8 4 -27 2 -43 -3
-26 -4 -25 -14 15 -7 24 -8 42 -3 42 5 0 12 -6 15 -14z m-1991 -36 c-3 -5 -10
-10 -16 -10 -5 0 -9 5 -9 10 0 6 7 10 16 10 8 0 12 -4 9 -10z m1344 -40 c1
-32 -2 -50 -9 -50 -7 0 -9 8 -5 20 9 29 -13 25 -27 -5 -12 -26 -24 -30 -46
-16 -10 6 -4 15 22 34 19 15 38 36 41 47 11 35 21 22 24 -30z m-1129 10 c-14
-10 -54 -31 -90 -47 -36 -15 -83 -40 -104 -55 -21 -15 -44 -28 -50 -28 -6 0
-28 -11 -48 -25 -20 -14 -39 -21 -42 -16 -3 5 -3 30 0 55 l7 45 58 -6 c39 -4
59 -2 59 5 0 6 13 13 29 17 35 7 56 29 45 46 -5 9 6 11 47 7 37 -4 63 -2 79 8
35 19 39 17 10 -6z m130 -9 c0 -11 -6 -21 -12 -24 -9 -2 -13 -30 -13 -90 0
-48 -4 -87 -8 -87 -8 0 -8 199 0 213 9 15 33 6 33 -12z m-315 -11 c3 -5 -1
-10 -10 -10 -9 0 -13 5 -10 10 3 6 8 10 10 10 2 0 7 -4 10 -10z m229 -58 c13
-92 15 -182 22 -672 4 -272 10 -500 15 -505 4 -6 -5 -25 -19 -43 l-27 -33 1
488 c1 268 -3 535 -8 593 -4 58 -8 129 -8 158 1 30 -3 52 -9 52 -6 0 -11 -7
-11 -15 0 -8 -4 -15 -10 -15 -19 0 -10 27 13 37 30 14 34 10 41 -45z m502 -2
c24 0 15 -18 -18 -34 -17 -9 -33 -15 -35 -13 -1 2 5 22 15 45 12 31 18 36 20
22 2 -11 10 -20 18 -20z m404 20 c0 -5 -4 -10 -10 -10 -5 0 -10 5 -10 10 0 6
5 10 10 10 6 0 10 -4 10 -10z m75 -12 c14 -6 25 -15 25 -20 0 -12 -43 1 -52
15 -4 7 -12 6 -22 -2 -9 -8 -16 -9 -16 -4 0 25 25 29 65 11z m441 -15 c-4 -10
2 -17 16 -21 21 -6 21 -7 -7 -12 -25 -5 -29 -9 -27 -30 6 -38 21 -50 66 -51
40 -2 40 -2 8 -8 -43 -8 -46 -25 -4 -29 35 -4 45 -22 11 -22 -15 0 -19 -4 -15
-16 3 -9 6 -20 6 -25 0 -5 9 -9 20 -9 11 0 20 -4 20 -10 0 -5 -13 -10 -30 -10
-16 0 -30 -4 -30 -10 0 -5 5 -10 10 -10 6 0 10 -7 10 -15 0 -8 -9 -15 -20 -15
-11 0 -20 -4 -20 -10 0 -5 8 -10 17 -10 15 0 14 -2 -3 -15 -17 -13 -15 -14 34
-15 28 0 52 5 52 10 0 6 -7 10 -16 10 -13 0 -15 6 -9 28 3 15 11 32 17 37 8 7
9 5 5 -8 -8 -20 20 -70 34 -61 5 3 2 15 -6 27 -8 12 -21 67 -29 122 -10 65
-22 108 -35 126 l-21 28 23 3 c38 5 77 -4 77 -18 0 -8 4 -14 8 -14 5 0 17 -7
28 -15 18 -14 17 -15 -11 -8 -16 3 -36 13 -43 22 -11 13 -12 4 -5 -54 4 -38 8
-91 8 -117 0 -32 4 -48 12 -48 7 0 13 7 13 16 0 11 6 14 22 8 20 -6 21 -5 9
10 -12 14 -11 16 8 16 11 0 21 5 21 11 0 5 4 8 10 4 17 -10 -11 -62 -82 -156
-16 -20 -28 -42 -28 -50 -1 -10 -4 -9 -11 4 -6 9 -7 26 -4 37 6 19 3 20 -46
16 -56 -4 -82 -26 -32 -26 15 0 37 -7 47 -15 11 -8 14 -15 8 -15 -16 0 -15
-27 1 -33 6 -3 -7 -6 -30 -6 -47 -1 -60 -20 -15 -22 15 -1 20 -3 10 -6 -9 -2
-20 -17 -23 -34 -4 -16 -13 -29 -21 -29 -9 0 -12 -4 -9 -10 3 -5 24 -10 46
-10 22 0 39 -5 39 -11 0 -8 -13 -9 -39 -5 -39 6 -40 5 -37 -21 3 -26 7 -28 40
-25 20 2 36 -2 36 -8 0 -5 -19 -10 -42 -10 -47 0 -42 -16 7 -23 l30 -4 -32 -2
c-40 -1 -44 -20 -5 -22 l27 -2 -27 -4 c-22 -3 -28 -10 -28 -29 0 -16 6 -24 18
-25 16 -1 16 -2 0 -6 -26 -7 -22 -23 6 -23 24 0 43 -34 25 -46 -5 -3 -9 2 -9
10 0 10 -9 16 -25 16 -14 0 -25 -4 -25 -10 0 -5 -7 -10 -15 -10 -30 0 -14 -20
18 -21 21 -1 25 -3 12 -6 -35 -9 -41 -23 -9 -24 16 0 38 -5 49 -10 16 -8 15
-8 -8 -4 -32 7 -67 -2 -67 -16 0 -5 14 -9 30 -9 17 0 30 -4 30 -10 0 -5 -15
-10 -34 -10 -19 0 -38 -4 -41 -10 -4 -6 6 -10 24 -10 16 0 33 -4 36 -10 4 -6
-8 -10 -29 -10 -20 0 -36 -4 -36 -10 0 -5 11 -10 24 -10 13 0 37 -7 52 -15 29
-15 28 -15 -18 -9 -30 4 -48 3 -48 -4 0 -5 20 -13 45 -16 25 -4 45 -11 45 -17
0 -12 -37 -12 -44 0 -7 11 -46 2 -46 -10 0 -5 8 -9 18 -9 10 0 22 -4 28 -9 5
-5 18 -11 29 -14 15 -4 14 -5 -7 -6 -15 0 -30 4 -33 9 -10 15 -35 12 -35 -5 0
-10 14 -17 40 -21 22 -4 40 -11 40 -17 0 -5 -13 -7 -30 -3 -22 4 -30 2 -30 -9
0 -9 14 -15 38 -18 33 -3 32 -4 -12 -5 -41 -2 -47 -4 -36 -16 6 -8 24 -17 38
-19 20 -3 18 -4 -11 -6 -26 -1 -37 -5 -34 -13 2 -8 19 -13 41 -12 32 1 36 -2
36 -22 0 -25 -14 -30 -67 -25 -26 2 -31 -14 -8 -23 23 -9 18 -26 -9 -26 -19 0
-24 -5 -22 -25 1 -18 8 -28 24 -32 12 -3 22 -9 22 -14 0 -12 -53 1 -62 15 -4
6 -5 81 -3 166 3 85 7 234 10 330 2 96 9 240 15 320 6 80 11 235 11 345 -1
134 3 208 11 226 12 28 34 29 24 2z m-521 -12 c41 -19 88 -63 98 -93 10 -28
-7 -21 -31 12 -14 18 -28 27 -37 24 -11 -5 -13 -2 -8 11 5 15 2 17 -14 13 -16
-4 -19 -2 -16 13 6 21 -7 25 -25 7 -9 -9 -12 -8 -12 6 0 12 -5 16 -15 12 -8
-3 -15 -1 -15 4 0 15 31 11 75 -9z m-1045 -1 c0 -5 -8 -10 -17 -10 -15 0 -16
2 -3 10 19 12 20 12 20 0z m1171 -32 c-11 -18 -21 -27 -21 -20 0 16 31 64 38
58 2 -3 -5 -20 -17 -38z m-1071 22 c0 -5 -4 -10 -10 -10 -5 0 -10 5 -10 10 0
6 5 10 10 10 6 0 10 -4 10 -10z m857 -17 c18 -7 37 -22 43 -32 12 -24 13 -61
1 -61 -5 0 -11 -10 -15 -22 -4 -17 -8 -20 -14 -10 -5 7 -16 10 -25 6 -10 -4
-17 -1 -17 6 0 10 -3 10 -15 0 -12 -10 -15 -10 -15 4 0 19 -20 22 -20 4 0 -8
-8 -4 -16 7 -11 14 -18 16 -21 7 -3 -6 -10 -9 -16 -5 -20 12 -57 12 -57 0 0
-7 -4 -6 -10 3 -8 13 -11 13 -19 1 -5 -7 -14 -10 -20 -6 -7 4 -18 1 -26 -5
-11 -9 -15 -9 -15 -1 0 6 -4 11 -10 11 -5 0 -10 -8 -10 -17 0 -15 -2 -14 -15
3 -8 11 -15 14 -15 7 0 -19 -20 -16 -20 3 0 8 -4 12 -10 9 -13 -8 -13 31 0 55
27 50 264 72 357 33z m932 -50 c1 -24 -2 -43 -5 -43 -9 0 -134 93 -134 99 0 3
23 4 51 2 29 -2 56 2 62 8 15 15 25 -10 26 -66z m-1917 47 c11 0 18 -5 15 -12
-2 -7 -11 -12 -21 -10 -19 3 -22 -14 -4 -20 10 -4 10 -10 0 -32 -15 -33 -16
-66 -2 -66 6 0 10 6 10 13 1 6 14 39 31 72 16 33 26 51 23 40 -4 -11 -13 -47
-21 -80 -8 -33 -24 -75 -35 -93 -11 -18 -17 -36 -13 -40 15 -15 54 55 71 125
9 40 21 73 25 73 5 0 10 -62 11 -137 1 -76 3 -165 3 -199 1 -33 -2 -69 -6 -80
-7 -18 -15 144 -10 214 2 34 -13 45 -21 14 -3 -10 -2 -65 2 -123 4 -57 6 -153
5 -214 -18 -958 -14 -917 -83 -928 -20 -4 -38 -5 -40 -2 -10 9 11 25 34 25 13
0 24 5 24 11 0 7 -11 9 -30 6 -16 -4 -32 -2 -35 2 -2 5 11 12 30 15 46 9 45
26 -1 19 -34 -6 -36 -5 -32 23 2 22 8 28 23 27 11 -1 27 0 35 3 13 4 13 6 0
15 -13 8 -13 10 -1 18 11 7 9 11 -10 21 l-23 13 24 10 c24 10 23 11 -15 17
l-40 7 38 2 c32 1 37 4 37 26 0 22 -5 25 -37 27 l-38 1 38 4 c20 2 37 8 37 14
0 5 -17 10 -37 10 l-38 2 38 10 c45 13 49 26 7 25 -33 -1 -55 11 -24 13 42 3
47 4 51 17 3 8 -7 12 -32 12 -21 0 -34 4 -30 10 3 6 18 10 33 10 21 0 28 5 29
20 1 16 -4 20 -27 20 -16 0 -31 4 -34 9 -9 13 22 22 51 15 19 -5 24 -3 21 7
-3 9 -19 14 -42 13 -29 -1 -36 2 -34 15 2 10 15 17 36 19 41 4 41 20 0 25 -29
3 -27 4 10 5 23 1 42 5 42 8 0 3 -11 20 -25 38 -29 38 -31 46 -10 46 27 0 16
19 -12 22 -20 2 -29 9 -31 26 -2 12 1 22 7 22 13 0 51 31 51 42 0 5 -10 8 -22
8 l-23 0 21 18 c12 9 24 32 27 50 6 30 5 32 -26 34 l-32 1 33 4 c21 3 32 10
32 20 0 12 -7 14 -30 10 -16 -4 -30 -3 -30 2 0 5 16 12 35 15 46 9 45 26 -2
28 l-38 1 38 4 c22 3 37 9 37 18 0 7 5 15 11 17 8 3 8 21 0 68 -7 36 -12 75
-12 87 1 19 -3 21 -41 16 -29 -4 -39 -3 -34 5 4 7 14 12 22 12 17 0 18 15 3
61 -21 65 -21 66 -29 39 -7 -22 -8 -21 -9 12 -1 30 2 36 14 31 14 -5 15 3 9
58 -5 60 11 143 23 112 3 -7 14 -13 25 -13z m305 -42 c-2 -13 -4 -5 -4 17 -1
22 1 32 4 23 2 -10 2 -28 0 -40z m943 37 c0 -8 -7 -15 -15 -15 -16 0 -20 12
-8 23 11 12 23 8 23 -8z m-970 -47 c0 -16 -4 -28 -10 -28 -5 0 -10 19 -10 43
0 31 3 38 10 27 5 -8 10 -27 10 -42z m939 -7 c-15 -5 -22 6 -14 19 6 9 10 9
16 -1 5 -8 4 -15 -2 -18z m-1333 -1 c8 0 14 -4 14 -10 0 -15 -22 -12 -45 7
-18 14 -18 15 -2 9 10 -3 25 -6 33 -6z m1974 -36 c0 -10 0 -10 -57 1 -40 7
-50 14 -38 27 8 8 96 -17 95 -28z m-632 2 c-36 -13 -38 -38 -3 -32 14 3 23 1
20 -5 -8 -13 -52 -11 -61 2 -3 6 -1 21 6 33 9 18 18 22 38 18 l27 -6 -27 -10z
m-1397 7 c1 -5 3 -18 4 -30 4 -41 13 -51 42 -47 21 3 23 2 8 -4 -52 -19 -80
-54 -59 -75 21 -20 4 -745 -17 -732 -3 3 -7 181 -7 396 -1 216 -4 411 -8 435
-3 23 -3 47 1 53 7 12 34 15 36 4z m309 -18 c0 -8 -4 -15 -9 -15 -13 0 -22 16
-14 24 11 11 23 6 23 -9z m147 -8 c3 -4 -10 -7 -31 -7 -20 0 -35 4 -32 8 5 9
53 8 63 -1z m1483 -2 c10 -12 10 -15 -4 -15 -9 0 -16 7 -16 15 0 8 2 15 4 15
2 0 9 -7 16 -15z m-876 -27 c22 -35 26 -135 7 -152 -46 -42 -135 -38 -164 8
-15 23 -12 136 4 136 5 0 9 -7 9 -15 0 -9 9 -15 25 -15 14 0 25 2 25 4 0 2 3
11 6 20 5 13 -1 16 -26 16 -18 0 -29 4 -25 10 3 6 33 10 65 10 51 0 62 -3 74
-22z m212 -36 c-12 -11 -17 7 -9 34 l8 29 3 -28 c2 -16 1 -31 -2 -35z m54 48
c0 -5 -5 -10 -11 -10 -5 0 -7 5 -4 10 3 6 8 10 11 10 2 0 4 -4 4 -10z m-1020
-20 c0 -5 -4 -10 -10 -10 -5 0 -10 5 -10 10 0 6 5 10 10 10 6 0 10 -4 10 -10z
m140 -5 c0 -9 -9 -15 -24 -15 -35 0 -42 18 -9 23 16 2 29 5 31 6 1 0 2 -6 2
-14z m794 0 c-7 -16 21 -49 35 -41 4 3 16 -3 25 -13 11 -12 13 -21 7 -25 -5
-4 -12 -2 -16 3 -3 6 -12 8 -20 5 -8 -3 -20 4 -27 15 -14 24 -34 27 -41 9 -4
-9 -6 -8 -6 2 -1 18 26 60 39 60 5 0 7 -7 4 -15z m461 -15 c-3 -5 -13 -10 -21
-10 -8 0 -14 5 -14 10 0 6 9 10 21 10 11 0 17 -4 14 -10z m-332 -7 c-7 -2 -13
-20 -13 -38 0 -18 6 -36 13 -38 7 -3 5 -6 -5 -6 -24 -1 -23 -32 1 -38 19 -5
23 -35 9 -58 -9 -16 10 -55 27 -55 9 0 15 -9 15 -24 0 -40 -16 -38 -43 3 -30
45 -96 100 -148 124 -31 14 -36 20 -31 43 4 21 9 24 26 19 65 -21 124 -10 112
20 -6 16 21 55 37 54 9 0 9 -2 0 -6z m-1301 -88 c2 -43 -1 -76 -7 -78 -5 -2
-11 -52 -13 -110 -7 -182 -23 -120 -20 78 3 165 5 185 20 185 14 0 17 -13 20
-75z m351 68 c-7 -2 -19 -2 -25 0 -7 3 -2 5 12 5 14 0 19 -2 13 -5z m33 -315
c-5 -398 -11 -484 -37 -491 -11 -3 -22 -1 -25 5 -3 5 3 12 15 15 28 7 27 20
-1 26 l-23 4 23 8 c26 9 29 25 5 26 -17 1 -17 2 0 6 9 2 17 9 17 14 0 5 -8 10
-17 10 -16 1 -16 2 -2 6 18 4 23 53 6 53 -6 0 -2 7 9 15 18 14 18 14 -11 16
-21 1 -24 3 -10 6 34 8 41 23 12 23 -15 0 -27 5 -27 10 0 6 11 10 25 10 31 0
33 20 3 21 l-23 0 23 10 c28 11 25 29 -9 46 -24 13 -24 13 -1 13 12 0 22 5 22
10 0 6 -9 10 -20 10 -11 0 -20 5 -20 10 0 6 9 10 20 10 11 0 20 5 20 10 0 6
-9 10 -21 10 -11 0 -17 4 -14 10 4 6 15 8 26 5 14 -5 19 -2 19 10 0 13 -6 16
-25 12 -16 -3 -24 0 -22 7 2 6 16 12 30 14 15 2 27 10 27 17 0 11 -8 13 -30 9
-19 -4 -30 -2 -30 5 0 6 11 11 24 11 14 0 28 5 32 11 5 9 -3 10 -29 5 -31 -6
-36 -4 -31 9 3 8 17 15 30 15 13 0 24 5 24 10 0 6 -12 10 -27 10 -24 1 -26 2
-10 11 9 5 22 7 27 4 6 -3 10 1 10 10 0 13 -6 16 -25 11 -14 -4 -25 -2 -25 4
0 5 11 10 24 10 14 0 28 5 31 10 4 6 -8 10 -29 10 -46 0 -47 17 -1 26 46 8 45
24 -1 24 -21 0 -33 4 -29 10 3 6 17 10 31 10 13 0 24 5 24 10 0 6 -14 10 -32
10 -34 0 -32 12 3 14 12 0 24 7 27 15 3 10 -3 13 -27 9 -17 -2 -31 -1 -31 4 0
4 12 8 26 8 17 0 28 6 31 20 17 64 22 -15 19 -302z m721 300 c-3 -8 -6 -5 -6
6 -1 11 2 17 5 13 3 -3 4 -12 1 -19z m844 -11 c-10 -9 -11 -8 -5 6 3 10 9 15
12 12 3 -3 0 -11 -7 -18z m-1716 -27 c-3 -5 -11 -10 -16 -10 -6 0 -7 5 -4 10
3 6 11 10 16 10 6 0 7 -4 4 -10z m1782 -27 c-3 -10 -5 -4 -5 12 0 17 2 24 5
18 2 -7 2 -21 0 -30z m-91 3 c-4 -15 -1 -26 7 -29 6 -2 -2 -7 -19 -11 -25 -6
-31 -12 -31 -32 0 -19 5 -24 24 -24 21 0 23 -3 17 -22 -3 -13 -11 -29 -16 -35
-8 -10 -3 -13 18 -14 20 -1 23 -3 9 -6 -47 -10 -50 -15 -15 -28 l35 -13 -32
-1 c-41 -1 -44 -21 -3 -21 17 0 30 -4 30 -10 0 -5 -13 -10 -30 -10 -41 0 -38
-20 3 -21 l32 -2 -30 -4 c-16 -2 -37 -6 -45 -9 -13 -4 -13 -6 0 -14 8 -6 27
-10 43 -10 15 0 27 -4 27 -10 0 -5 -16 -10 -35 -10 -44 0 -46 -20 -2 -21 l32
-1 -29 -7 c-17 -3 -32 -15 -37 -28 -7 -21 -5 -23 21 -23 16 0 32 -4 35 -10 4
-6 -10 -10 -35 -10 -25 0 -39 -4 -35 -10 3 -5 19 -10 36 -10 16 0 29 -5 29
-11 0 -5 -4 -7 -10 -4 -5 3 -20 0 -32 -7 -23 -12 -23 -12 7 -19 l30 -7 -27 -1
c-21 -1 -28 -6 -28 -21 0 -16 7 -20 33 -22 l32 -1 -32 -4 c-41 -5 -43 -23 -3
-23 17 0 30 -4 30 -10 0 -5 -13 -10 -29 -10 -17 0 -33 -4 -36 -10 -4 -6 8 -10
29 -10 20 0 36 -4 36 -10 0 -5 -13 -10 -29 -10 -23 0 -30 -5 -33 -25 -5 -23
-2 -25 31 -27 l36 -1 -35 -4 c-53 -7 -62 -23 -12 -23 23 0 42 -4 42 -10 0 -5
-15 -10 -34 -10 -19 0 -38 -4 -41 -10 -4 -6 10 -10 34 -10 23 0 41 -4 41 -10
0 -5 -9 -10 -19 -10 -26 0 -51 -10 -51 -20 0 -5 16 -6 35 -3 35 6 35 5 35 -31
0 -35 -1 -36 -35 -36 -19 0 -35 -4 -35 -9 0 -5 -3 -16 -6 -25 -5 -13 1 -16 30
-16 44 0 48 -18 4 -22 -17 -2 -33 -8 -35 -15 -3 -8 6 -10 31 -6 28 4 36 2 36
-9 0 -10 -11 -14 -37 -14 -20 1 -38 -4 -40 -11 -3 -9 8 -13 36 -13 23 0 41 -3
41 -7 0 -5 -16 -8 -37 -8 -21 0 -38 -6 -41 -13 -3 -10 6 -12 37 -8 23 3 41 1
41 -5 0 -5 -18 -9 -40 -9 -40 0 -58 -19 -20 -21 39 -3 43 -4 48 -17 3 -10 -4
-12 -32 -7 -29 6 -36 4 -36 -9 0 -11 9 -16 30 -16 17 0 30 -4 30 -8 0 -4 -16
-6 -35 -4 -47 6 -45 -13 3 -27 l37 -10 -33 3 c-22 2 -36 -2 -39 -11 -25 -64
-30 94 -13 357 6 85 14 288 18 450 l8 295 40 52 c21 29 41 53 43 53 2 0 0 -11
-3 -24z m-1106 -57 c0 -25 6 -32 36 -45 35 -15 36 -16 18 -35 -16 -17 -16 -22
-4 -29 8 -6 18 -10 22 -10 4 0 15 -11 24 -25 14 -21 14 -26 2 -39 -8 -8 -21
-48 -28 -90 -7 -42 -17 -76 -22 -76 -14 0 -52 21 -60 34 -11 16 -8 56 7 101
13 39 13 38 8 -34 -5 -55 -3 -72 5 -67 7 4 12 22 12 40 0 18 7 56 16 85 15 53
12 79 -7 51 -7 -11 -8 -7 -3 13 9 39 -4 34 -22 -9 -8 -20 -17 -34 -20 -31 -3
3 2 22 10 42 18 43 20 65 6 65 -5 0 -10 -8 -10 -18 0 -10 -5 -23 -10 -28 -6
-6 -14 -30 -19 -55 -8 -40 -9 -41 -10 -11 -1 28 -4 32 -20 27 -11 -3 -23 0
-27 6 -4 7 -3 9 4 5 17 -11 22 8 11 47 -13 49 -33 49 -25 0 5 -32 4 -34 -5
-14 -13 34 -30 52 -40 46 -4 -3 6 -35 23 -70 24 -51 28 -73 23 -103 -12 -75
-29 -71 -103 27 -23 31 -42 40 -42 21 0 -5 7 -18 15 -27 9 -10 27 -32 40 -49
l25 -32 -34 -20 c-26 -16 -37 -30 -42 -58 -6 -32 -8 -35 -19 -21 -30 42 -60 4
-35 -44 9 -15 7 -21 -5 -25 -22 -9 -30 3 -15 21 18 21 -4 20 -30 -2 -11 -10
-20 -28 -20 -40 0 -16 -4 -21 -15 -17 -18 7 -20 30 -2 37 9 4 9 8 -2 15 -20
14 -4 32 30 32 16 0 29 5 29 10 0 6 -14 10 -31 10 -41 0 -33 24 9 28 18 2 32
8 32 14 0 6 -13 8 -30 6 -24 -4 -30 -1 -28 11 5 23 56 17 84 -10 13 -12 27
-19 31 -16 11 11 -37 56 -68 62 -33 8 -38 24 -9 32 20 5 28 23 10 23 -5 0 -10
5 -10 10 0 23 57 9 83 -20 25 -27 47 -39 47 -24 0 14 -54 74 -67 74 -12 0 -13
3 -4 14 10 11 8 16 -6 24 -17 10 -16 12 6 36 31 33 61 26 106 -23 19 -20 37
-33 41 -29 10 11 -25 60 -47 65 -10 3 -19 9 -19 14 0 5 -7 9 -15 9 -22 0 -19
6 30 55 48 47 84 63 148 64 35 1 37 -1 37 -30z m260 24 c0 -5 -11 -29 -24 -55
-17 -36 -20 -48 -9 -48 7 0 23 23 36 50 l22 50 50 -26 c70 -37 72 -40 45 -69
-30 -32 -18 -46 14 -16 31 30 56 18 28 -13 -24 -26 -38 -66 -22 -66 6 0 16 14
21 30 11 31 49 43 49 15 0 -8 -5 -15 -10 -15 -6 0 -15 -11 -22 -25 -6 -13 -14
-23 -17 -21 -11 7 -43 -23 -36 -34 5 -8 11 -7 23 2 12 9 11 6 -2 -10 -11 -12
-17 -22 -13 -22 22 0 42 19 58 56 17 41 37 58 40 34 1 -5 2 -16 3 -22 0 -7 7
-14 14 -14 6 -1 14 -2 17 -3 3 0 -2 -13 -12 -27 -17 -27 -17 -27 4 -15 12 6
24 7 27 2 3 -5 -1 -11 -9 -15 -22 -8 -18 -28 4 -21 15 4 26 -3 45 -32 14 -21
26 -47 26 -58 0 -15 -3 -17 -9 -7 -6 11 -13 11 -27 3 -11 -6 -32 -15 -47 -21
-16 -5 -25 -14 -22 -20 3 -5 1 -10 -4 -10 -13 0 -14 20 -3 36 4 6 18 14 32 17
34 9 56 24 47 33 -3 4 -14 1 -22 -6 -9 -8 -38 -13 -66 -12 -27 0 -49 -4 -49
-9 0 -6 -4 -7 -10 -4 -16 10 -11 25 9 25 10 0 24 7 31 15 7 8 19 15 26 15 8 0
14 5 14 10 0 16 -19 12 -65 -15 -24 -14 -46 -22 -49 -17 -3 5 12 16 34 25 22
8 40 20 40 26 0 13 -13 14 -25 2 -6 -5 -26 -13 -44 -18 -51 -13 -74 13 -72 82
1 49 -1 53 -24 59 -18 5 -27 15 -32 36 -3 17 -10 30 -16 30 -12 0 -1 -78 14
-96 7 -8 7 -14 -1 -19 -13 -8 -13 -45 0 -45 6 0 10 9 10 20 0 14 5 18 16 13 9
-3 11 -9 6 -12 -22 -14 -33 -50 -21 -69 13 -21 6 -52 -12 -52 -9 0 -8 4 0 14
9 11 9 16 -2 23 -9 5 -16 36 -20 91 -6 83 -20 127 -37 117 -5 -3 -5 -17 1 -33
5 -15 13 -64 17 -109 l8 -82 -46 5 c-25 3 -51 8 -59 10 -7 2 -20 -1 -28 -7
-23 -20 -27 -1 -12 64 12 51 18 63 36 65 16 2 24 12 29 37 3 19 3 38 -1 44 -3
6 1 11 10 11 11 0 15 5 11 15 -3 9 6 23 24 36 16 12 32 35 35 51 6 24 26 41
25 21z m-840 -13 c0 -5 -5 -10 -11 -10 -5 0 -7 5 -4 10 3 6 8 10 11 10 2 0 4
-4 4 -10z m1383 3 c-7 -2 -21 -2 -30 0 -10 3 -4 5 12 5 17 0 24 -2 18 -5z
m-277 -30 c-10 -10 -19 5 -10 18 6 11 8 11 12 0 2 -7 1 -15 -2 -18z m284 -3
c0 -5 -10 -10 -22 -9 -22 0 -22 1 -3 9 11 5 21 9 23 9 1 1 2 -3 2 -9z m390
-10 c0 -5 -4 -10 -10 -10 -5 0 -10 5 -10 10 0 6 5 10 10 10 6 0 10 -4 10 -10z
m-1770 -15 c0 -9 -6 -12 -15 -9 -8 4 -15 10 -15 15 0 5 7 9 15 9 8 0 15 -7 15
-15z m715 5 c-26 -11 -35 -12 -35 -2 0 4 12 8 28 9 23 1 24 1 7 -7z m658 -17
c-7 -2 -19 -2 -25 0 -7 3 -2 5 12 5 14 0 19 -2 13 -5z m401 -63 c-1 -32 -7
-56 -15 -61 -12 -7 -11 -11 1 -19 13 -9 13 -11 0 -20 -12 -8 -13 -11 -1 -19 9
-6 10 -11 2 -15 -6 -4 -8 -12 -5 -18 4 -6 0 -14 -7 -19 -10 -6 -8 -10 11 -18
17 -6 19 -10 8 -10 -27 -1 -31 -20 -6 -30 17 -7 18 -10 6 -10 -15 -1 -17 -8
-12 -48 4 -27 11 -52 15 -58 12 -13 11 -65 -1 -65 -5 0 -10 -7 -10 -15 0 -8 5
-15 10 -15 6 0 10 -7 10 -15 0 -8 -9 -15 -20 -15 -26 0 -26 -16 1 -23 25 -7
16 -27 -12 -27 -10 0 -19 -4 -19 -10 0 -5 11 -10 25 -10 37 0 35 -43 -2 -56
l-28 -9 23 -23 c16 -16 18 -22 7 -22 -8 0 -15 -4 -15 -10 0 -5 6 -10 13 -10 8
0 13 -9 12 -22 -1 -13 2 -29 8 -36 8 -10 7 -16 -2 -22 -8 -4 -10 -13 -7 -19 4
-6 2 -11 -3 -11 -6 0 -11 -7 -11 -16 0 -9 5 -12 12 -8 6 4 4 -3 -5 -17 -23
-32 -22 -69 1 -69 14 0 18 -8 18 -35 0 -22 -5 -35 -13 -35 -17 0 -17 -20 0
-21 6 0 1 -5 -13 -11 l-25 -11 23 -6 c30 -8 28 -26 -3 -26 -38 0 -34 -19 5
-24 35 -5 35 -5 -10 -10 -43 -6 -45 -8 -42 -35 3 -20 0 -27 -10 -24 -10 4 -12
29 -10 109 2 57 8 123 13 146 5 22 11 148 14 280 5 216 30 609 41 641 2 8 10
12 17 9 8 -3 11 -22 11 -57z m-1926 43 c-10 -2 -28 -2 -40 0 -13 2 -5 4 17 4
22 1 32 -1 23 -4z m152 -44 c0 -19 -5 -29 -14 -29 -23 0 -28 18 -9 30 13 8 14
13 6 16 -18 8 -16 25 2 18 9 -4 15 -19 15 -35z m660 21 c0 -5 -2 -10 -4 -10
-3 0 -8 5 -11 10 -3 6 -1 10 4 10 6 0 11 -4 11 -10z m-710 -54 c0 -8 -4 -18
-10 -21 -5 -3 -10 3 -10 14 0 12 5 21 10 21 6 0 10 -6 10 -14z m50 -21 c0 -8
-7 -15 -15 -15 -26 0 -18 20 13 29 1 1 2 -6 2 -14z m265 -15 c3 -5 1 -10 -4
-10 -6 0 -11 5 -11 10 0 6 2 10 4 10 3 0 8 -4 11 -10z m1295 -348 c-7 -142
-14 -314 -17 -384 -3 -79 -9 -128 -15 -128 -10 0 -4 250 7 355 2 17 6 111 9
210 4 99 10 200 14 225 6 43 7 43 10 12 2 -19 -2 -149 -8 -290z m-1373 302
c-3 -3 -12 -4 -19 -1 -8 3 -5 6 6 6 11 1 17 -2 13 -5z m-187 -24 c0 -5 -9 -10
-20 -10 -11 0 -20 5 -20 10 0 6 9 10 20 10 11 0 20 -4 20 -10z m-276 -213 c-2
-278 -4 -330 -13 -292 -15 61 -4 495 12 495 1 0 1 -91 1 -203z m276 173 c0 -5
-9 -10 -21 -10 -11 0 -17 5 -14 10 3 6 13 10 21 10 8 0 14 -4 14 -10z m-177
-7 c-7 -2 -19 -2 -25 0 -7 3 -2 5 12 5 14 0 19 -2 13 -5z m617 -3 c0 -5 -6
-10 -12 -10 -7 0 -24 -3 -38 -6 -24 -6 -25 -6 -5 9 22 18 55 22 55 7z m472
-12 c-9 -9 -15 -9 -24 0 -9 9 -7 12 12 12 19 0 21 -3 12 -12z m-385 -22 c33
-29 28 -36 -29 -46 -53 -10 -58 -6 -21 14 15 8 21 15 13 16 -8 0 -30 -9 -49
-21 -39 -24 -55 -18 -17 6 14 10 26 21 26 27 0 11 -38 -8 -67 -35 -35 -31 -37
-15 -3 18 24 23 51 34 112 44 4 0 20 -10 35 -23z m1156 7 c-7 -2 -19 -2 -25 0
-7 3 -2 5 12 5 14 0 19 -2 13 -5z m-1688 -13 c-3 -5 -13 -10 -21 -10 -8 0 -14
5 -14 10 0 6 9 10 21 10 11 0 17 -4 14 -10z m685 -37 c-1 -44 -2 -47 -15 -29
-18 24 -19 48 -3 64 18 18 18 16 18 -35z m119 32 c35 -11 12 -25 -47 -29 -39
-2 -52 1 -52 11 0 8 10 18 23 23 22 8 30 8 76 -5z m139 -12 c16 -16 16 -16 -1
-10 -10 4 -23 7 -28 7 -6 0 -7 5 -4 10 9 14 14 13 33 -7z m-1181 -25 c-3 -8
-6 -5 -6 6 -1 11 2 17 5 13 3 -3 4 -12 1 -19z m240 -26 c1 -25 -3 -32 -18 -32
-23 0 -25 25 -3 34 8 3 12 10 9 16 -4 6 -11 8 -16 5 -5 -4 -9 -1 -9 5 0 6 8
10 18 8 11 -2 18 -14 19 -36z m893 34 c0 -18 -17 -39 -38 -47 -35 -14 -21 -22
19 -11 26 6 34 14 33 30 -1 21 0 21 18 5 12 -10 22 -13 26 -8 8 11 62 14 62 4
0 -28 -170 -79 -195 -59 -8 6 -19 9 -25 5 -5 -3 -10 -1 -10 5 0 7 -7 9 -16 6
-10 -4 -14 -1 -12 6 3 7 17 14 31 16 15 2 25 8 22 13 -4 5 8 12 25 15 17 4 33
11 36 15 5 9 24 13 24 5z m-277 -38 c3 -18 0 -37 -6 -43 -7 -7 -8 -4 -4 8 5
14 3 18 -11 15 -11 -3 -16 -12 -15 -26 4 -30 -5 -28 -18 5 l-10 26 -19 -21
c-11 -12 -20 -28 -20 -37 0 -8 -4 -14 -9 -12 -5 1 -9 -2 -9 -7 0 -18 -28 -26
-90 -26 -58 0 -62 1 -48 16 20 20 21 38 1 30 -13 -5 -14 -2 -4 15 14 26 3 38
-14 15 -7 -9 -24 -22 -37 -29 -58 -29 -10 -67 85 -67 42 0 56 -3 45 -10 -22
-14 -70 -12 -123 6 -44 15 -83 44 -58 44 6 0 11 6 11 13 0 7 9 20 20 30 11 9
20 23 20 30 0 20 49 40 64 28 7 -6 28 -9 47 -8 33 3 35 2 31 -25 -4 -23 -1
-28 16 -28 20 0 82 53 82 70 0 5 8 11 18 13 41 11 50 7 55 -25z m537 23 c0
-11 -31 -24 -39 -16 -3 3 1 10 9 15 19 12 30 12 30 1z m-1208 -443 c-3 -109
-8 -198 -12 -198 -9 0 -10 416 -1 550 l5 95 7 -125 c4 -69 4 -214 1 -322z
m1413 432 c-3 -5 -12 -10 -18 -10 -7 0 -6 4 3 10 19 12 23 12 15 0z m-200 -29
c-8 -13 -35 -15 -35 -2 0 5 8 11 18 13 21 5 26 2 17 -11z m-463 -13 c-7 -7
-12 -8 -12 -2 0 14 12 26 19 19 2 -3 -1 -11 -7 -17z m358 13 c0 -13 -55 -51
-73 -51 -9 0 -17 -5 -19 -11 -5 -15 -198 -24 -198 -9 0 5 -6 7 -12 5 -7 -3
-24 4 -38 15 -30 23 -8 27 30 5 33 -19 104 -19 169 1 29 8 65 17 79 19 15 1
31 3 36 4 4 0 6 8 2 16 -3 9 0 15 9 15 8 0 15 -4 15 -9z m78 -37 c2 -1 -4 -16
-13 -33 -11 -23 -22 -31 -43 -31 l-27 0 33 20 c18 11 30 25 26 31 -4 7 -15 3
-29 -11 -16 -15 -30 -20 -44 -15 -20 6 -20 8 11 38 34 33 37 33 86 1z m-1369
-39 l0 -20 -9 20 c-5 11 -9 27 -9 35 -1 13 0 13 9 0 5 -8 9 -24 9 -35z m1751
41 c0 -3 -4 -8 -10 -11 -5 -3 -10 -1 -10 4 0 6 5 11 10 11 6 0 10 -2 10 -4z
m-1517 -13 c-7 -2 -19 -2 -25 0 -7 3 -2 5 12 5 14 0 19 -2 13 -5z m-193 -34
c0 -10 -4 -19 -9 -19 -12 0 -23 29 -15 41 8 14 24 0 24 -22z m520 5 c0 -8 -5
-12 -10 -9 -6 4 -8 11 -5 16 9 14 15 11 15 -7z m-66 -69 c21 -9 61 -18 88 -18
l49 -1 -28 -25 c-15 -14 -40 -35 -56 -47 -28 -19 -77 -94 -115 -176 -17 -38
-17 -38 -79 -38 -39 0 -63 -4 -63 -11 0 -7 21 -10 60 -7 33 1 60 0 60 -4 0 -5
-31 -8 -70 -8 -38 0 -70 2 -70 4 0 28 16 36 76 36 36 0 64 4 64 10 0 11 -16
13 -68 10 -28 -1 -33 2 -30 17 2 11 13 19 28 21 56 6 89 42 39 42 -11 0 -17 5
-14 10 3 6 31 10 61 10 30 0 54 5 54 10 0 6 -13 10 -30 10 -17 0 -30 5 -31 13
0 10 -2 10 -6 0 -2 -7 -12 -13 -20 -13 -14 0 -14 3 2 20 16 18 16 20 2 20 -20
0 -24 55 -4 63 9 4 9 8 -2 15 -12 8 -12 13 -2 25 9 12 9 17 0 23 -9 5 -7 11 6
21 11 7 13 13 7 13 -7 0 -12 8 -12 17 0 13 7 10 33 -13 17 -17 50 -39 71 -49z
m339 60 c-3 -9 -8 -14 -10 -11 -3 3 -2 9 2 15 9 16 15 13 8 -4z m-600 -2 c-7
-2 -19 -2 -25 0 -7 3 -2 5 12 5 14 0 19 -2 13 -5z m669 -32 c-5 -42 15 -89 40
-97 25 -8 34 2 19 20 -14 17 -11 67 4 66 5 0 10 -7 10 -15 0 -9 5 -19 11 -23
17 -11 23 -39 11 -51 -6 -6 -28 -11 -49 -11 -44 0 -57 20 -66 104 -4 39 -2 48
9 44 9 -3 13 -16 11 -37z m188 25 c0 -2 -7 -7 -16 -10 -8 -3 -12 -2 -9 4 6 10
25 14 25 6z m-231 -43 c-1 -33 -2 -35 -8 -13 -4 14 -6 31 -3 38 8 22 12 13 11
-25z m-859 -253 c0 -166 -4 -280 -9 -280 -9 0 -9 98 -2 478 0 45 3 82 6 82 3
0 5 -126 5 -280z m65 270 c4 -6 -6 -10 -22 -9 -25 0 -26 1 -8 9 11 5 21 9 22
9 1 1 5 -3 8 -9z m732 -27 c-3 -10 -5 -4 -5 12 0 17 2 24 5 18 2 -7 2 -21 0
-30z m253 -22 c0 -17 -6 -31 -15 -35 -12 -4 -14 0 -9 22 12 51 24 57 24 13z
m40 14 c0 -8 -4 -15 -10 -15 -5 0 -10 7 -10 15 0 8 5 15 10 15 6 0 10 -7 10
-15z m-850 -21 c0 -33 -33 -30 -38 4 -3 17 2 22 17 22 16 0 21 -6 21 -26z
m505 16 c3 -5 -1 -10 -9 -10 -9 0 -16 5 -16 10 0 6 4 10 9 10 6 0 13 -4 16
-10z m-86 -72 c-17 -24 -42 -46 -57 -50 -31 -9 -44 -2 -16 8 10 4 35 25 55 46
48 50 57 48 18 -4z m211 32 c0 -5 -8 -10 -17 -10 -15 0 -16 2 -3 10 19 12 20
12 20 0z m299 -39 c13 -23 21 -45 18 -48 -3 -2 -12 8 -21 24 -8 16 -22 35 -30
42 -19 16 -21 34 -3 29 6 -3 23 -24 36 -47z m-1259 9 c0 -5 -5 -10 -11 -10 -5
0 -7 5 -4 10 3 6 8 10 11 10 2 0 4 -4 4 -10z m330 -35 c0 -36 -3 -45 -17 -45
-10 0 -14 3 -8 8 13 9 16 62 3 62 -5 0 -6 5 -3 10 14 23 25 7 25 -35z m880 24
c0 -6 -4 -7 -10 -4 -5 3 -10 11 -10 16 0 6 5 7 10 4 6 -3 10 -11 10 -16z m172
-39 c10 -18 16 -35 13 -39 -8 -7 -35 28 -35 46 0 7 -3 13 -8 13 -4 0 -13 10
-20 21 -13 20 -13 21 8 6 12 -9 31 -30 42 -47z m-603 21 c-12 -33 -39 -62 -39
-41 0 16 32 70 42 70 4 0 2 -13 -3 -29z m111 19 c0 -5 -4 -10 -10 -10 -5 0
-10 5 -10 10 0 6 5 10 10 10 6 0 10 -4 10 -10z m-455 -20 c3 -5 -3 -10 -15
-10 -12 0 -18 5 -15 10 3 6 10 10 15 10 5 0 12 -4 15 -10z m518 4 c13 -5 13
-11 -1 -54 -8 -27 -19 -47 -23 -44 -4 2 -1 20 7 39 19 46 18 53 -8 58 -14 2
-16 5 -6 6 9 0 23 -2 31 -5z m387 -46 c0 -15 -20 -8 -30 11 -17 33 -11 47 10
21 11 -14 20 -28 20 -32z m-465 32 c-3 -5 -10 -10 -16 -10 -5 0 -9 5 -9 10 0
6 7 10 16 10 8 0 12 -4 9 -10z m201 -25 c14 -44 2 -56 -65 -63 l-49 -4 11 51
10 51 41 0 c38 0 42 -2 52 -35z m-270 13 c-3 -7 -9 -21 -12 -30 -4 -10 -11
-18 -16 -18 -5 0 -6 -9 -3 -20 5 -14 2 -20 -9 -20 -22 0 -20 14 7 60 20 36 47
58 33 28z m344 2 c0 -5 -4 -10 -10 -10 -5 0 -10 5 -10 10 0 6 5 10 10 10 6 0
10 -4 10 -10z m85 1 c3 -5 -4 -13 -16 -16 -15 -5 -18 -10 -10 -18 6 -6 11 -15
11 -19 0 -15 -15 -8 -29 14 -12 19 -11 23 5 35 21 15 31 16 39 4z m-323 -27
c-5 -25 -20 -40 -29 -29 -5 4 -3 10 3 12 7 2 9 13 6 25 -3 15 -1 19 9 16 8 -3
12 -14 11 -24z m-60 -17 c-2 -18 2 -27 17 -32 12 -3 21 -11 21 -16 0 -15 -13
-10 -50 21 -26 23 -30 30 -16 30 12 0 16 5 12 16 -4 10 -1 14 6 11 7 -2 12
-15 10 -30z m-132 13 c0 -5 -7 -10 -15 -10 -8 0 -15 -4 -15 -9 0 -5 -7 -12
-15 -15 -13 -5 -12 -1 2 19 18 25 43 33 43 15z m-87 -47 c-24 -43 -28 -61 -31
-160 -3 -78 -1 -113 7 -113 7 0 11 33 11 99 0 120 17 171 56 171 16 0 24 -5
21 -12 -2 -7 -11 -12 -20 -10 -29 5 -40 -37 -38 -143 0 -55 4 -111 7 -125 4
-14 7 -86 8 -162 0 -75 5 -140 10 -145 5 -5 5 69 0 177 -10 233 -10 327 -1
363 7 24 10 27 23 17 10 -9 11 -16 4 -25 -12 -15 -12 -220 0 -287 5 -26 6 -92
3 -147 -7 -113 -16 -125 -73 -96 -30 15 -39 38 -20 50 6 3 10 -3 10 -14 0 -11
5 -23 11 -27 9 -5 10 28 5 127 -3 74 -6 144 -6 157 0 14 -4 20 -11 16 -7 -4
-8 -30 -3 -78 10 -97 10 -146 2 -146 -5 0 -9 10 -10 23 -1 24 -3 39 -17 142
-5 39 -7 97 -5 130 5 51 3 58 -8 44 -7 -8 -21 -18 -32 -22 -15 -6 -17 -4 -11
10 4 10 11 43 15 74 4 31 13 65 20 75 11 18 11 18 5 -1 -4 -11 -10 -42 -13
-69 -4 -39 -2 -48 9 -44 8 3 16 25 19 54 3 27 12 60 19 72 7 13 10 26 7 30 -5
4 41 42 51 42 2 0 -10 -21 -24 -47z m543 8 c-4 -6 -11 -11 -15 -11 -11 0 -21
37 -13 45 9 9 35 -22 28 -34z m90 14 c9 -37 -2 -41 -14 -6 -7 18 -7 31 -2 31
5 0 12 -11 16 -25z m-846 5 c0 -5 -5 -10 -11 -10 -5 0 -7 5 -4 10 3 6 8 10 11
10 2 0 4 -4 4 -10z m-95 -10 c3 -5 -1 -10 -9 -10 -9 0 -16 5 -16 10 0 6 4 10
9 10 6 0 13 -4 16 -10z m405 0 c0 -5 -5 -10 -11 -10 -5 0 -7 5 -4 10 3 6 8 10
11 10 2 0 4 -4 4 -10z m615 -138 c-3 -59 -5 -189 -5 -289 l1 -183 -33 7 c-18
3 -37 10 -43 16 -7 7 -6 8 2 3 6 -3 22 -2 35 3 22 8 22 9 -9 15 -39 9 -44 26
-8 26 23 0 25 4 25 43 1 109 11 408 17 457 10 96 23 22 18 -98z m-215 123 c0
-8 -4 -15 -10 -15 -5 0 -10 7 -10 15 0 8 5 15 10 15 6 0 10 -7 10 -15z m310
-11 c0 -8 -4 -12 -10 -9 -5 3 -10 13 -10 21 0 8 5 12 10 9 6 -3 10 -13 10 -21z
m64 10 c19 -18 21 -35 5 -31 -6 1 -14 -4 -16 -10 -3 -8 5 -13 20 -13 19 0 28
-8 36 -30 10 -31 4 -39 -17 -18 -10 10 -17 10 -32 0 -17 -10 -20 -10 -21 5 0
10 -4 39 -8 66 -8 51 3 62 33 31z m-680 -25 c-5 -9 -34 -13 -34 -5 0 2 3 12 6
20 5 13 9 14 20 5 8 -6 11 -15 8 -20z m266 11 c0 -5 -10 -10 -22 -10 -19 0
-20 2 -8 10 19 13 30 13 30 0z m148 -13 c2 -12 -1 -15 -12 -11 -19 7 -22 38
-3 32 6 -3 13 -12 15 -21z m163 -4 c13 -15 12 -15 -8 -4 -24 12 -29 21 -14 21
5 0 15 -7 22 -17z m-651 -8 c7 -8 8 -15 2 -15 -5 0 -15 7 -22 15 -7 8 -8 15
-2 15 5 0 15 -7 22 -15z m170 5 c0 -5 -4 -10 -10 -10 -5 0 -10 5 -10 10 0 6 5
10 10 10 6 0 10 -4 10 -10z m260 6 c0 -3 -4 -8 -10 -11 -5 -3 -10 -1 -10 4 0
6 5 11 10 11 6 0 10 -2 10 -4z m-325 -16 c-3 -5 -11 -10 -16 -10 -6 0 -7 5 -4
10 3 6 11 10 16 10 6 0 7 -4 4 -10z m100 -17 c-3 -16 -13 -32 -21 -36 -8 -5
-12 -12 -9 -18 4 -5 1 -9 -5 -9 -16 0 -4 49 17 73 22 24 26 21 18 -10z m318
-1 c-20 -16 -21 -28 -26 -205 -2 -104 -8 -192 -13 -197 -5 -5 -8 67 -6 172 4
170 3 182 -17 209 -11 15 -17 30 -12 33 5 3 11 -1 15 -9 8 -21 30 -19 51 5 10
11 21 18 24 14 3 -3 -4 -13 -16 -22z m725 21 c-10 -2 -26 -2 -35 0 -10 3 -2 5
17 5 19 0 27 -2 18 -5z m-1678 -13 c0 -5 -4 -10 -10 -10 -5 0 -10 5 -10 10 0
6 5 10 10 10 6 0 10 -4 10 -10z m787 -16 c-9 -9 -28 6 -21 18 4 6 10 6 17 -1
6 -6 8 -13 4 -17z m-271 -14 c38 -27 44 -35 41 -62 -1 -18 3 -33 11 -35 6 -3
12 3 13 14 0 15 3 14 17 -6 9 -14 22 -63 28 -110 6 -47 17 -123 24 -167 13
-81 7 -155 -9 -124 -12 23 -30 153 -37 277 -4 62 -10 110 -15 107 -5 -3 -9
-14 -9 -25 0 -10 -5 -19 -11 -19 -8 0 -7 -5 1 -15 10 -12 10 -19 2 -27 -8 -8
-7 -15 6 -24 16 -13 16 -13 0 -14 -19 0 -26 -20 -8 -20 6 0 10 -4 10 -10 0 -5
-6 -7 -14 -4 -21 8 -34 133 -15 145 10 6 11 9 2 9 -8 0 -13 15 -13 40 0 22 -4
40 -10 40 -17 0 -17 -9 9 -313 16 -188 16 -199 0 -208 -29 -15 -51 -10 -56 12
-6 20 -7 21 -19 5 -9 -14 -20 -16 -43 -11 -41 9 -41 30 -1 22 17 -4 30 -3 30
2 0 5 -13 11 -30 15 -24 4 -30 11 -30 31 0 20 5 25 28 26 l27 2 -28 4 c-25 4
-28 8 -25 36 2 23 9 33 28 38 24 7 24 7 3 8 -28 1 -29 9 -5 27 16 13 16 13 0
14 -22 0 -24 20 -3 20 8 0 15 5 15 10 0 6 -9 10 -20 10 -11 0 -20 5 -20 10 0
6 9 10 20 10 11 0 20 7 20 16 0 8 4 13 8 10 5 -3 9 -49 10 -103 2 -115 10
-173 24 -173 6 0 8 14 3 38 -8 44 -7 424 1 458 4 15 2 24 -5 24 -6 0 -11 -5
-11 -12 0 -6 -3 -9 -6 -5 -7 7 2 37 11 37 4 0 26 -14 51 -30z m64 21 c0 -14
-18 -23 -30 -16 -6 4 -8 11 -5 16 8 12 35 12 35 0z m160 -7 c0 -8 -4 -12 -10
-9 -5 3 -10 10 -10 16 0 5 5 9 10 9 6 0 10 -7 10 -16z m330 1 c0 -8 -4 -15
-10 -15 -5 0 -10 7 -10 15 0 8 5 15 10 15 6 0 10 -7 10 -15z m-650 -5 c0 -5
-5 -10 -10 -10 -7 0 -10 -41 -8 -116 2 -87 0 -118 -9 -121 -10 -4 -13 21 -13
104 0 59 3 118 6 131 6 21 34 32 34 12z m241 -4 c-9 -10 -9 -16 -1 -21 8 -5 6
-15 -6 -33 -11 -17 -13 -27 -6 -30 6 -2 8 -10 5 -18 -3 -8 0 -21 7 -29 7 -8
10 -15 6 -15 -10 0 -58 81 -52 88 3 3 6 -1 6 -9 1 -10 5 -9 15 5 8 10 12 23 9
28 -8 12 6 48 18 48 7 0 6 -5 -1 -14z m39 4 c0 -5 -2 -10 -4 -10 -3 0 -8 5
-11 10 -3 6 -1 10 4 10 6 0 11 -4 11 -10z m167 -16 c3 -8 0 -21 -6 -27 -9 -9
-11 -8 -6 6 5 10 2 17 -5 17 -8 0 -10 -9 -6 -24 3 -14 0 -28 -8 -35 -11 -10
-15 -4 -18 29 -2 22 1 42 7 44 21 9 36 6 42 -10z m110 -193 c-4 -97 -7 -186
-7 -198 0 -14 -6 -23 -15 -23 -13 0 -14 27 -8 193 3 105 10 198 16 205 6 8 6
12 -2 12 -7 0 -9 5 -5 11 4 8 10 6 17 -6 6 -12 8 -83 4 -194z m-1144 182 c-7
-2 -21 -2 -30 0 -10 3 -4 5 12 5 17 0 24 -2 18 -5z m970 -50 c6 -60 -8 -108
-24 -82 -10 16 -12 123 -2 132 15 15 20 4 26 -50z m-93 23 c0 -13 -3 -31 -6
-40 -11 -29 -24 -16 -24 24 0 29 4 40 15 40 9 0 15 -9 15 -24z m42 -46 c3 -38
10 -75 15 -82 7 -9 5 -25 -7 -53 l-17 -40 -13 40 c-7 21 -9 40 -4 42 5 2 8 39
6 83 -5 99 13 108 20 10z m318 44 c0 -8 -4 -14 -10 -14 -5 0 -10 9 -10 21 0
11 5 17 10 14 6 -3 10 -13 10 -21z m-1072 5 c-2 -6 -8 -10 -13 -10 -5 0 -11 4
-13 10 -2 6 4 11 13 11 9 0 15 -5 13 -11z m1166 -221 c6 -57 5 -78 -4 -78 -7
0 -9 8 -5 20 3 11 3 20 -2 20 -4 0 -9 26 -9 58 -1 31 -4 93 -7 137 l-6 80 13
-80 c7 -44 17 -115 20 -157z m-720 134 c3 -65 1 -82 -10 -82 -17 0 -18 12 -2
28 9 9 9 12 0 12 -8 0 -12 21 -12 66 0 95 20 76 24 -24z m437 55 c-7 -7 -7
-14 0 -24 9 -10 7 -13 -10 -13 -11 0 -21 -4 -21 -10 0 -5 9 -10 20 -10 13 0
20 -7 20 -19 0 -14 -5 -18 -20 -14 -11 3 -20 0 -20 -6 0 -6 9 -11 20 -11 18 0
20 -7 20 -77 -1 -76 -14 -221 -21 -227 -2 -2 -17 -6 -32 -10 -26 -6 -27 -5
-17 14 6 11 17 20 25 20 8 0 16 7 16 15 4 49 3 75 -3 75 -17 0 -7 20 10 20 15
1 15 2 -3 16 -17 13 -18 16 -5 24 13 9 13 11 0 20 -13 9 -13 11 0 20 12 7 12
12 2 22 -16 16 -15 28 3 28 8 0 15 5 15 10 0 6 -9 10 -19 10 -31 0 -32 78 -2
127 15 23 26 33 29 25 2 -8 -1 -19 -7 -25z m356 -29 c-2 -13 -4 -5 -4 17 -1
22 1 32 4 23 2 -10 2 -28 0 -40z m-1197 0 c0 -9 -4 -20 -10 -23 -6 -4 -10 9
-10 32 0 28 3 34 10 23 5 -8 10 -23 10 -32z m125 22 c-4 -12 -1 -27 5 -35 10
-12 9 -15 -4 -15 -16 0 -21 25 -10 54 9 23 16 19 9 -4z m-38 -12 c-3 -8 -6 -5
-6 6 -1 11 2 17 5 13 3 -3 4 -12 1 -19z m1070 -10 c-3 -7 -5 -2 -5 12 0 14 2
19 5 13 2 -7 2 -19 0 -25z m-127 12 c0 -5 -4 -10 -10 -10 -5 0 -10 5 -10 10 0
6 5 10 10 10 6 0 10 -4 10 -10z m46 -242 c5 -125 4 -168 -4 -168 -8 0 -12 31
-12 98 0 53 -2 149 -5 212 -3 82 -2 102 5 70 4 -25 12 -120 16 -212z m384 222
c0 -5 -12 -10 -27 -10 -22 0 -25 2 -13 10 20 13 40 13 40 0z m-1680 -10 c0 -5
-7 -10 -15 -10 -8 0 -15 5 -15 10 0 6 7 10 15 10 8 0 15 -4 15 -10z m884 -5
c-4 -8 -8 -15 -10 -15 -2 0 -4 7 -4 15 0 8 4 15 10 15 5 0 7 -7 4 -15z m366 5
c0 -5 -4 -10 -10 -10 -5 0 -10 5 -10 10 0 6 5 10 10 10 6 0 10 -4 10 -10z
m-910 -36 c0 -2 -18 -4 -40 -4 -22 0 -40 3 -40 8 0 4 18 6 40 4 22 -2 40 -6
40 -8z m910 6 c0 -5 -5 -10 -11 -10 -5 0 -7 5 -4 10 3 6 8 10 11 10 2 0 4 -4
4 -10z m133 -22 c4 -12 3 -34 0 -48 l-7 -25 -7 25 c-10 36 -10 70 0 70 5 0 11
-10 14 -22z m297 7 c0 -8 -4 -15 -10 -15 -5 0 -10 7 -10 15 0 8 5 15 10 15 6
0 10 -7 10 -15z m-837 -61 c4 -36 13 -80 22 -96 18 -37 19 -48 4 -85 -11 -27
-13 -24 -25 47 -21 116 -28 200 -17 200 6 0 13 -30 16 -66z m47 56 c0 -5 -2
-10 -4 -10 -3 0 -8 5 -11 10 -3 6 -1 10 4 10 6 0 11 -4 11 -10z m118 -73 c-1
-26 -5 -47 -9 -47 -8 0 -17 103 -10 122 7 22 19 -28 19 -75z m613 50 c-14 -14
-55 -4 -59 14 -3 14 2 15 32 5 20 -6 31 -15 27 -19z m-371 8 c0 -8 -4 -15 -10
-15 -5 0 -10 7 -10 15 0 8 5 15 10 15 6 0 10 -7 10 -15z m-885 -67 c-3 -40 -9
-81 -12 -91 -3 -13 2 -20 16 -24 26 -7 27 -19 1 -26 -25 -6 -33 18 -25 80 3
27 8 67 11 91 9 71 16 47 9 -30z m45 50 c0 -7 3 -24 6 -38 5 -23 5 -23 -10 4
-18 33 -20 46 -6 46 6 0 10 -6 10 -12z m473 -4 c9 -3 12 -14 9 -30 -2 -13 1
-30 7 -38 8 -9 8 -21 2 -37 -7 -18 -10 -20 -15 -9 -7 19 -24 120 -20 120 1 0
9 -2 17 -6z m800 -1 c-7 -2 -19 -2 -25 0 -7 3 -2 5 12 5 14 0 19 -2 13 -5z
m-435 -78 c2 -52 -1 -75 -9 -75 -8 0 -8 -4 -1 -12 14 -18 15 -138 1 -154 -6
-8 -23 -14 -38 -13 l-26 1 25 10 c25 10 25 11 28 155 2 127 6 163 16 163 1 0
3 -34 4 -75z m-1342 50 c-4 -24 -16 -30 -16 -7 0 12 4 22 9 22 5 0 8 -7 7 -15z
m409 5 c4 -6 -6 -10 -22 -9 -25 0 -26 1 -8 9 11 5 21 9 22 9 1 1 5 -3 8 -9z
m658 -110 c-11 -49 -18 -44 -24 15 -3 35 -1 68 5 80 9 17 11 14 17 -25 4 -25
5 -56 2 -70z m-1023 80 c0 -5 -4 -10 -10 -10 -5 0 -10 5 -10 10 0 6 5 10 10
10 6 0 10 -4 10 -10z m355 -75 c-1 -41 4 -73 12 -83 7 -10 13 -45 13 -79 0
-35 4 -63 10 -63 6 0 10 25 10 55 0 34 4 55 11 55 7 0 9 -12 5 -35 -6 -32 7
-51 16 -24 3 9 10 9 27 -1 14 -7 19 -15 13 -19 -5 -3 -12 -20 -14 -36 -3 -29
-4 -30 -58 -30 l-55 0 -3 168 c-1 93 1 166 6 163 5 -3 8 -35 7 -71z m1535 65
c0 -5 -4 -10 -10 -10 -5 0 -10 5 -10 10 0 6 5 10 10 10 6 0 10 -4 10 -10z
m-1453 -32 c-3 -8 -6 -5 -6 6 -1 11 2 17 5 13 3 -3 4 -12 1 -19z m383 12 c0
-5 -9 -10 -20 -10 -11 0 -20 5 -20 10 0 6 9 10 20 10 11 0 20 -4 20 -10z m169
-210 c5 0 11 7 15 15 8 22 25 18 23 -5 -1 -22 -36 -36 -62 -26 -12 4 -14 21
-11 88 7 126 20 140 24 26 1 -54 7 -98 11 -98z m-169 170 c0 -5 -7 -10 -15
-10 -8 0 -15 5 -15 10 0 6 7 10 15 10 8 0 15 -4 15 -10z m1183 -7 c-7 -2 -21
-2 -30 0 -10 3 -4 5 12 5 17 0 24 -2 18 -5z m-1175 -36 c2 -11 -3 -17 -15 -18
-16 -1 -17 -2 0 -6 21 -5 23 -33 2 -33 -17 0 -30 42 -21 66 7 19 30 13 34 -9z
m1182 -7 c0 -13 -30 -13 -50 0 -11 7 -7 10 18 10 17 0 32 -4 32 -10z m-605
-10 c3 -5 -1 -10 -10 -10 -9 0 -13 5 -10 10 3 6 8 10 10 10 2 0 7 -4 10 -10z
m-922 -48 c12 -15 3 -27 -12 -17 -6 3 -10 21 -10 38 1 21 3 25 6 12 3 -11 10
-26 16 -33z m547 38 c0 -5 -7 -10 -16 -10 -8 0 -12 5 -9 10 3 6 10 10 16 10 5
0 9 -4 9 -10z m107 -42 c-3 -7 -5 -2 -5 12 0 14 2 19 5 13 2 -7 2 -19 0 -25z
m273 12 c0 -5 -2 -10 -4 -10 -3 0 -8 5 -11 10 -3 6 -1 10 4 10 6 0 11 -4 11
-10z m-382 -12 c-6 -18 -28 -21 -28 -4 0 9 7 16 16 16 9 0 14 -5 12 -12z
m-188 -8 c0 -5 -9 -10 -21 -10 -11 0 -17 5 -14 10 3 6 13 10 21 10 8 0 14 -4
14 -10z m90 -37 c-1 -31 -3 -35 -11 -20 -6 9 -7 26 -4 37 10 30 15 24 15 -17z
m212 -8 c3 -14 2 -25 -2 -25 -9 0 -20 25 -20 46 0 23 17 7 22 -21z m-302 15
c0 -5 -10 -10 -22 -10 -19 0 -20 2 -8 10 19 13 30 13 30 0z m10 -30 c0 -5 -9
-10 -21 -10 -11 0 -17 5 -14 10 3 6 13 10 21 10 8 0 14 -4 14 -10z m544 -37
c-5 -26 -12 -32 -44 -37 -21 -3 -49 -2 -61 3 l-23 8 24 13 c14 8 35 14 47 15
13 0 31 8 40 18 21 21 25 17 17 -20z m-189 17 c-3 -5 -10 -10 -16 -10 -5 0 -9
5 -9 10 0 6 7 10 16 10 8 0 12 -4 9 -10z m43 -61 c18 -28 0 -50 -26 -31 -9 7
-25 15 -34 18 -31 11 -21 34 15 34 22 0 36 -7 45 -21z m-48 -44 c7 -8 27 -15
46 -15 22 0 38 -7 47 -20 14 -20 58 -23 86 -5 13 7 40 -21 41 -42 0 -17 -74
-17 -103 -1 -12 7 -51 17 -87 23 -63 11 -65 12 -68 43 -4 35 16 44 38 17z"/>
<path d="M1003 3702 c-62 -3 -82 -15 -43 -25 26 -7 28 -61 3 -76 -14 -8 -7
-11 32 -11 28 0 75 -3 105 -5 60 -5 103 10 63 21 -33 9 -40 44 -14 65 45 37
32 40 -146 31z m77 -43 c9 -17 8 -25 -6 -40 -10 -11 -27 -19 -38 -17 -16 2
-22 12 -24 41 -3 35 -2 37 27 37 20 0 34 -7 41 -21z"/>
<path d="M1715 2710 c3 -5 8 -10 11 -10 2 0 4 5 4 10 0 6 -5 10 -11 10 -5 0
-7 -4 -4 -10z"/>
<path d="M972 2578 c3 -7 22 -14 44 -15 234 -9 325 -15 359 -23 37 -8 68 0 53
15 -12 12 -231 35 -341 35 -91 0 -118 -3 -115 -12z"/>
<path d="M1015 2540 c3 -5 8 -10 11 -10 2 0 4 5 4 10 0 6 -5 10 -11 10 -5 0
-7 -4 -4 -10z"/>
<path d="M812 2490 c-17 -21 -50 -49 -72 -61 -37 -21 -52 -39 -32 -39 27 0
147 110 141 129 -2 5 -19 -7 -37 -29z"/>
<path d="M1120 2522 c0 -10 56 -52 70 -52 19 0 10 19 -19 39 -30 22 -51 27
-51 13z"/>
<path d="M1018 2515 c-6 -6 -1 -67 8 -113 9 -44 21 -12 16 45 -4 57 -12 79
-24 68z"/>
<path d="M560 2500 c0 -5 7 -10 15 -10 8 0 15 5 15 10 0 6 -7 10 -15 10 -8 0
-15 -4 -15 -10z"/>
<path d="M610 2475 c0 -11 63 -36 78 -30 13 5 7 10 -23 21 -43 15 -55 17 -55
9z"/>
<path d="M560 2461 c0 -14 60 -54 68 -46 4 3 -1 11 -10 16 -9 5 -24 16 -32 24
-17 17 -26 19 -26 6z"/>
<path d="M990 2750 c0 -5 7 -10 16 -10 8 0 12 5 9 10 -3 6 -10 10 -16 10 -5 0
-9 -4 -9 -10z"/>
<path d="M740 2710 c0 -5 5 -10 11 -10 5 0 7 5 4 10 -3 6 -8 10 -11 10 -2 0
-4 -4 -4 -10z"/>
<path d="M1990 2450 c0 -5 5 -10 10 -10 6 0 10 5 10 10 0 6 -4 10 -10 10 -5 0
-10 -4 -10 -10z"/>
<path d="M540 2630 c0 -5 5 -10 10 -10 6 0 10 5 10 10 0 6 -4 10 -10 10 -5 0
-10 -4 -10 -10z"/>
<path d="M50 2530 c0 -5 5 -10 10 -10 6 0 10 5 10 10 0 6 -4 10 -10 10 -5 0
-10 -4 -10 -10z"/>
<path d="M1850 1960 c0 -5 11 -10 25 -10 14 0 25 5 25 10 0 6 -11 10 -25 10
-14 0 -25 -4 -25 -10z"/>
<path d="M1805 1110 c3 -5 22 -10 41 -10 19 0 34 5 34 10 0 6 -18 10 -41 10
-24 0 -38 -4 -34 -10z"/>
<path d="M200 1550 c0 -5 9 -10 20 -10 11 0 20 5 20 10 0 6 -9 10 -20 10 -11
0 -20 -4 -20 -10z"/>
<path d="M180 950 c0 -13 20 -13 40 0 12 8 9 10 -12 10 -16 0 -28 -4 -28 -10z"/>
<path d="M1077 2183 c-12 -12 -7 -20 18 -31 21 -10 27 -9 31 3 3 8 3 19 -1 25
-7 11 -38 14 -48 3z"/>
<path d="M1043 2097 c4 -14 26 -16 30 -3 1 5 -6 10 -16 12 -10 1 -16 -3 -14
-9z"/>
<path d="M1007 2083 c-12 -12 -7 -23 9 -23 9 0 23 -8 30 -17 13 -17 15 -17 28
0 7 9 18 17 24 17 6 0 14 5 17 10 4 7 -7 8 -34 4 -25 -4 -46 -2 -54 5 -8 6
-17 8 -20 4z"/>
<path d="M2005 1222 c-13 -13 -2 -22 26 -22 19 0 29 4 27 12 -4 12 -44 19 -53
10z"/>
<path d="M900 2011 c0 -6 5 -13 10 -16 6 -3 10 1 10 9 0 9 -4 16 -10 16 -5 0
-10 -4 -10 -9z"/>
<path d="M845 2003 c-23 -6 -45 -22 -45 -34 0 -4 12 -1 28 7 15 7 32 14 39 14
6 0 15 5 18 10 6 10 -6 11 -40 3z"/>
<path d="M916 1947 c-3 -12 -6 -33 -6 -46 0 -33 16 -16 25 26 7 36 -10 55 -19
20z"/>
<path d="M762 1928 c6 -18 28 -21 28 -4 0 9 -7 16 -16 16 -9 0 -14 -5 -12 -12z"/>
<path d="M687 1874 c-11 -11 3 -24 24 -24 12 0 19 5 17 13 -5 14 -31 21 -41
11z"/>
<path d="M1007 1807 c-17 -55 -23 -128 -10 -141 4 -4 13 24 19 61 7 37 16 83
19 101 12 53 -10 37 -28 -21z"/>
<path d="M750 1832 c0 -4 8 -15 18 -23 9 -9 25 -26 34 -38 19 -22 38 -28 38
-11 0 16 -61 80 -77 80 -7 0 -13 -3 -13 -8z"/>
<path d="M680 1715 c13 -14 30 -25 38 -25 12 0 9 7 -8 25 -13 14 -30 25 -38
25 -12 0 -9 -7 8 -25z"/>
<path d="M1255 1989 c-10 -15 3 -25 16 -12 7 7 7 13 1 17 -6 3 -14 1 -17 -5z"/>
<path d="M1282 1945 c-15 -32 -2 -32 21 0 14 19 15 25 4 25 -8 0 -19 -11 -25
-25z"/>
<path d="M1238 1955 c-8 -8 8 -65 22 -79 7 -7 10 -4 10 10 -1 27 -24 77 -32
69z"/>
<path d="M1310 1940 c-21 -21 -35 -62 -27 -82 3 -9 7 -6 11 7 4 11 16 37 27
58 22 41 19 47 -11 17z"/>
<path d="M1135 1867 c-4 -9 -5 -27 -2 -38 3 -12 0 -28 -9 -36 -16 -16 -19 -93
-4 -93 6 0 10 7 10 15 0 10 7 15 18 13 23 -4 27 51 9 112 -11 35 -16 41 -22
27z"/>
<path d="M1305 1841 c-3 -5 -1 -12 4 -15 5 -3 11 1 15 9 6 16 -9 21 -19 6z"/>
<path d="M1403 1770 c-35 -39 -73 -41 -73 -3 0 19 -3 24 -11 16 -6 -6 -9 -21
-7 -34 2 -20 10 -25 41 -27 32 -3 43 2 67 28 17 18 30 36 30 41 0 18 -20 8
-47 -21z"/>
<path d="M1070 1775 c0 -8 7 -15 15 -15 8 0 15 7 15 15 0 8 -7 15 -15 15 -8 0
-15 -7 -15 -15z"/>
<path d="M1073 1733 c-18 -7 -16 -23 2 -23 8 0 15 7 15 15 0 8 -1 15 -2 14 -2
0 -9 -3 -15 -6z"/>
<path d="M1150 1700 c0 -5 5 -10 10 -10 6 0 10 5 10 10 0 6 -4 10 -10 10 -5 0
-10 -4 -10 -10z"/>
<path d="M1475 1680 c-22 -10 -33 -19 -24 -19 24 -1 79 20 79 30 0 12 -8 11
-55 -11z"/>
<path d="M700 1550 c0 -5 5 -10 10 -10 6 0 10 5 10 10 0 6 -4 10 -10 10 -5 0
-10 -4 -10 -10z"/>
<path d="M540 1330 c0 -5 9 -10 21 -10 11 0 17 5 14 10 -3 6 -13 10 -21 10 -8
0 -14 -4 -14 -10z"/>
<path d="M1100 1256 c0 -20 5 -36 10 -36 6 0 10 13 10 29 0 17 -4 33 -10 36
-6 4 -10 -8 -10 -29z"/>
<path d="M1056 1264 c-9 -23 -7 -54 3 -54 11 0 21 25 21 51 0 23 -15 25 -24 3z"/>
<path d="M872 1093 c-14 -36 -2 -455 14 -497 11 -29 26 -17 21 17 -16 90 -30
415 -20 455 11 41 0 60 -15 25z"/>
<path d="M788 713 c6 -2 18 -2 25 0 6 3 1 5 -13 5 -14 0 -19 -2 -12 -5z"/>
<path d="M780 640 c0 -5 12 -10 28 -10 21 0 24 2 12 10 -20 13 -40 13 -40 0z"/>
<path d="M2003 443 c-18 -7 10 -33 36 -33 31 0 35 19 6 30 -14 6 -27 10 -28 9
-1 0 -8 -3 -14 -6z"/>
<path d="M1967 400 c-3 -14 -14 -20 -31 -20 -19 0 -26 -5 -26 -20 0 -11 6 -20
13 -20 9 0 8 -3 -2 -9 -19 -12 -7 -27 31 -36 l33 -8 -29 -6 c-34 -7 -32 -27 2
-23 21 3 22 1 22 -77 0 -47 4 -81 10 -81 6 0 10 6 11 13 0 6 1 44 2 82 l2 70
45 -3 c25 -2 59 2 75 8 29 11 29 12 11 26 -11 8 -30 14 -44 14 -13 0 -21 4
-17 9 3 5 -9 12 -27 14 l-33 4 33 1 c47 3 39 22 -10 24 l-43 1 45 6 c33 4 40
8 27 14 -10 4 -32 7 -48 7 -19 0 -29 5 -29 15 0 22 -17 18 -23 -5z m121 -117
c-16 -2 -40 -2 -55 0 -16 2 -3 4 27 4 30 0 43 -2 28 -4z"/>
<path d="M718 3 c56 -2 148 -2 205 0 56 1 10 3 -103 3 -113 0 -159 -2 -102 -3z"/>
<path d="M1638 3 c7 -3 16 -2 19 1 4 3 -2 6 -13 5 -11 0 -14 -3 -6 -6z"/>
<path d="M1808 3 c6 -2 18 -2 25 0 6 3 1 5 -13 5 -14 0 -19 -2 -12 -5z"/>
<path d="M1868 3 c12 -2 30 -2 40 0 9 3 -1 5 -23 4 -22 0 -30 -2 -17 -4z"/>
</g>
</svg>
