<?xml version="1.0" standalone="no"?>
<!DOCTYPE svg PUBLIC "-//W3C//DTD SVG 20010904//EN"
 "http://www.w3.org/TR/2001/REC-SVG-20010904/DTD/svg10.dtd">
<svg version="1.0" xmlns="http://www.w3.org/2000/svg"
 width="223.000000pt" height="389.000000pt" viewBox="0 0 223.000000 389.000000"
 preserveAspectRatio="xMidYMid meet">
<metadata>
Created by potrace 1.16, written by Peter Selinger 2001-2019
</metadata>
<g transform="translate(0.000000,389.000000) scale(0.100000,-0.100000)"
fill="#000000" stroke="none">
<path d="M21 3860 c-8 -20 -7 -3827 1 -3836 10 -9 219 -14 258 -5 27 6 8 9
-85 15 -66 4 -127 8 -135 9 -13 2 -15 47 -18 325 l-3 322 280 0 c197 0 282 -3
287 -11 4 -6 7 -30 7 -52 0 -22 6 -52 13 -66 17 -33 18 -85 2 -99 -7 -5 -22
-12 -33 -14 -23 -4 -34 -48 -13 -49 22 -1 81 -8 114 -14 22 -4 33 -1 37 9 3 8
18 16 34 18 33 4 43 37 18 58 -18 15 -21 100 -3 118 9 9 8 21 -1 52 -18 61 7
88 28 28 6 -17 18 -39 26 -49 9 -9 20 -45 26 -80 6 -35 11 -64 12 -64 1 0 17
-10 35 -23 18 -13 38 -20 44 -16 6 4 17 -1 24 -11 16 -21 84 -53 101 -48 21 7
15 32 -6 26 -10 -3 -22 1 -26 7 -16 26 -34 129 -34 190 l1 65 13 -40 c8 -22
14 -58 14 -80 1 -22 10 -59 20 -82 20 -44 49 -59 131 -69 19 -2 41 -6 48 -9 6
-2 12 0 12 5 0 6 11 10 25 10 14 0 25 5 25 10 0 6 -5 10 -11 10 -5 0 -7 5 -4
10 10 16 47 1 71 -28 28 -34 40 -13 13 22 -11 14 -27 26 -35 26 -8 0 -14 8
-14 18 0 11 -17 27 -42 40 -82 43 -93 51 -95 69 -1 10 -7 37 -14 60 -20 75
-20 75 153 67 184 -9 218 -19 218 -68 0 -18 -7 -39 -15 -46 -10 -8 -14 -28
-13 -56 0 -24 -4 -49 -10 -56 -15 -19 -3 -34 39 -52 57 -24 105 -2 59 26 -21
14 -26 52 -10 78 8 12 14 10 38 -13 53 -51 84 -23 41 38 -12 17 -18 21 -14 10
19 -53 17 -61 -8 -31 -30 34 -23 72 12 70 16 0 25 10 38 45 24 65 48 80 59 36
4 -16 0 -34 -10 -50 -21 -32 -20 -42 4 -50 13 -4 33 1 53 14 32 20 34 20 49 1
30 -34 40 -61 36 -102 -3 -47 9 -57 41 -31 18 15 22 29 23 83 1 55 4 67 24 83
14 10 24 29 24 43 0 24 1 24 95 24 l95 0 0 -335 0 -335 -261 0 c-143 0 -258
-4 -255 -8 3 -5 124 -9 270 -10 l266 -2 2 358 c6 686 0 3457 -7 3485 l-7 28
-1085 -3 c-954 -3 -1086 -5 -1092 -18z m2145 -12 c17 -11 29 -929 13 -939 -9
-5 -10 -11 -2 -21 6 -7 13 -48 17 -91 6 -73 6 -79 -13 -84 -21 -5 -35 -29 -25
-45 4 -6 10 -6 17 1 6 6 15 11 19 11 12 0 10 -34 -4 -48 -8 -8 -8 -15 0 -24
13 -17 11 -128 -3 -128 -5 -1 -23 -12 -40 -25 -21 -17 -26 -28 -19 -35 7 -7
18 -5 36 10 34 26 40 25 36 -7 -2 -23 -7 -27 -25 -25 -13 2 -23 -1 -23 -7 0
-5 -3 -18 -7 -28 -7 -17 -6 -17 20 0 33 22 37 21 37 -3 0 -13 -10 -24 -25 -30
-14 -5 -25 -15 -25 -21 0 -6 7 -9 15 -6 8 4 17 2 20 -2 2 -5 -4 -11 -15 -14
-11 -3 -20 -10 -20 -17 0 -7 8 -9 23 -5 18 6 20 5 10 -6 -17 -17 -16 -29 2
-29 8 0 15 -4 15 -10 0 -5 -7 -10 -15 -10 -8 0 -15 -7 -15 -16 0 -14 2 -14 16
-3 15 12 16 -30 11 -501 -3 -283 -6 -516 -6 -517 -2 -8 -71 -1 -76 7 -3 5 -18
10 -33 10 l-27 1 28 17 c36 22 56 84 36 108 -21 26 -100 74 -121 74 -30 0 -88
-65 -87 -97 3 -50 9 -63 33 -63 13 0 30 -7 37 -16 12 -15 10 -16 -21 -9 -60
13 -75 29 -77 86 -1 28 -4 53 -7 56 -3 3 -27 -1 -53 -10 -47 -15 -49 -14 -65
6 -10 12 -20 34 -23 50 -4 15 -15 32 -26 37 -16 9 -21 6 -31 -15 -10 -23 -16
-25 -84 -25 -63 0 -73 3 -79 19 -6 20 -52 41 -90 41 -27 0 -95 -59 -95 -83 0
-9 5 -17 10 -17 6 0 10 9 10 20 0 11 5 20 11 20 6 0 8 -8 4 -19 -3 -11 -1 -22
5 -26 5 -3 10 0 10 8 0 7 10 24 21 36 18 19 19 25 8 33 -10 7 -2 8 25 4 22 -3
47 -12 55 -21 14 -14 14 -16 -7 -21 -12 -4 -22 -11 -22 -16 0 -5 8 -7 19 -3
10 3 30 0 45 -6 21 -10 26 -19 26 -50 0 -48 -15 -57 -41 -27 -13 15 -22 19
-25 11 -3 -7 -12 -9 -20 -6 -17 6 -19 -8 -3 -24 16 -16 -25 -27 -51 -13 -28
15 -39 4 -15 -13 16 -13 16 -14 1 -20 -12 -5 -19 1 -26 19 -8 21 -15 25 -34
20 -13 -3 -31 1 -42 9 -24 18 -34 19 -34 1 0 -8 13 -20 29 -27 31 -14 24 -29
-13 -29 -10 0 -34 -14 -53 -30 -55 -49 -69 -35 -33 33 24 45 26 92 4 101 -8 3
-13 10 -9 15 9 16 -27 31 -48 20 -9 -6 -15 -14 -12 -18 3 -5 -2 -11 -10 -15
-8 -3 -15 -18 -15 -34 0 -15 -5 -33 -10 -40 -6 -6 -8 -10 -5 -8 4 2 20 -9 37
-24 40 -36 35 -63 -14 -71 -35 -5 -36 -5 -35 27 1 22 -7 42 -22 58 -19 20 -23
32 -18 62 3 20 14 42 24 49 140 99 211 157 223 181 8 16 22 33 30 38 45 29 80
86 44 72 -9 -4 -22 -2 -29 4 -8 7 -18 5 -31 -6 -10 -8 -14 -13 -9 -11 6 2 18
2 28 -2 18 -7 18 -8 -1 -31 -19 -24 -48 -20 -38 6 8 21 -2 17 -14 -7 -8 -14
-8 -24 -1 -33 7 -9 5 -17 -10 -29 -18 -16 -20 -16 -26 0 -4 9 -1 19 5 21 7 2
12 8 12 12 0 5 -22 -3 -50 -17 -27 -14 -50 -30 -50 -35 0 -5 -9 -6 -20 -3 -11
4 -34 1 -50 -7 l-29 -13 22 -20 c13 -11 18 -17 12 -13 -7 4 -15 5 -19 1 -3 -4
-12 1 -19 10 -10 14 -15 14 -30 2 -10 -7 -17 -19 -16 -27 2 -7 -3 -24 -10 -37
-7 -13 -11 -36 -9 -52 5 -34 -9 -41 -39 -22 -18 12 -20 19 -12 41 10 26 3 82
-10 82 -4 0 -7 -20 -7 -44 1 -54 -8 -65 -33 -42 -17 16 -20 16 -35 1 -9 -9
-16 -22 -16 -30 0 -7 -14 -25 -31 -39 -32 -27 -49 -70 -49 -123 0 -24 5 -33
16 -33 10 0 14 -6 11 -15 -4 -8 0 -38 7 -67 34 -132 31 -149 -25 -163 -22 -5
-27 -2 -33 17 -3 13 -6 34 -5 48 0 24 0 24 15 -5 8 -16 12 -22 9 -12 -3 10 -5
39 -5 64 0 35 -3 44 -14 40 -10 -4 -16 2 -18 16 -3 12 -4 -21 -5 -73 l0 -95
-39 3 c-40 3 -39 -12 1 -20 17 -3 20 -12 23 -75 2 -40 9 -85 17 -100 17 -32 9
-43 -31 -46 -28 -2 -29 -1 -35 58 -3 33 -12 80 -19 105 -7 25 -13 54 -12 64 1
11 -6 25 -15 31 -14 10 -15 26 -10 99 4 52 2 86 -3 86 -17 0 -11 37 11 61 l20
24 -6 -22 c-4 -16 -2 -23 7 -23 7 0 24 -3 37 -7 18 -4 22 -2 19 8 -3 8 -11 14
-18 14 -7 0 -18 9 -24 20 -21 38 -39 61 -33 43 4 -10 2 -20 -4 -23 -5 -4 -9
-3 -7 2 1 4 -4 35 -12 68 -7 33 -14 73 -14 89 -1 30 -26 51 -26 22 0 -26 -15
-18 -27 14 -8 21 -16 28 -27 24 -9 -3 -16 -11 -16 -18 1 -18 37 -56 53 -56 10
0 19 -18 27 -53 7 -28 17 -60 22 -70 15 -29 3 -50 -22 -37 -11 6 -18 15 -15
21 4 5 -8 9 -24 9 -23 0 -31 5 -31 18 0 29 -29 62 -55 62 -13 0 -28 7 -32 15
-12 21 -48 8 -62 -22 -11 -25 -12 -25 -31 -8 -34 31 -34 8 -1 -34 55 -69 90
-93 124 -85 20 4 27 3 23 -5 -4 -6 -26 -11 -49 -12 -41 -1 -41 -1 -12 -10 20
-6 39 -5 58 2 15 6 45 9 66 5 30 -4 40 -2 45 10 3 8 11 12 16 9 7 -4 8 -11 2
-18 -6 -7 -13 -31 -17 -54 -8 -50 -7 -49 -139 -63 -55 -6 -104 -14 -110 -19
-6 -4 -46 -11 -89 -15 -49 -4 -84 -11 -93 -21 -9 -8 -29 -15 -45 -15 -29 0
-30 1 -27 42 3 42 4 43 50 53 28 6 59 22 77 39 41 39 32 45 -15 10 -41 -31
-114 -42 -114 -17 0 7 11 13 25 13 30 0 115 74 115 99 -1 10 -16 -1 -43 -31
-30 -34 -51 -48 -69 -48 -21 0 -25 5 -25 26 0 29 24 44 38 23 7 -11 22 0 67
49 31 34 63 62 70 62 14 0 17 -20 2 -20 -5 0 -10 -5 -10 -10 0 -6 8 -5 20 2
13 8 20 24 20 43 0 25 6 33 30 42 39 15 52 59 23 83 -12 9 -23 25 -25 36 -2
15 -12 19 -43 19 -35 0 -40 -3 -43 -25 -2 -14 -12 -32 -23 -41 -18 -13 -19
-19 -8 -42 6 -14 25 -30 40 -36 16 -5 29 -14 29 -20 0 -8 -62 -36 -64 -29 -1
2 -7 13 -13 25 -7 13 -13 29 -13 37 0 18 -32 26 -54 14 -11 -6 -15 -16 -11
-28 4 -13 -1 -22 -15 -30 l-21 -11 1 490 c2 447 3 492 18 501 16 9 16 9 0 10
-25 0 -22 16 4 25 l23 8 -22 4 c-28 5 -30 33 -3 33 26 0 26 17 0 25 -32 10
-24 27 10 20 39 -9 39 10 0 24 -16 5 -30 17 -30 26 0 14 3 14 31 0 49 -26 58
-11 11 20 -23 15 -42 34 -42 42 0 15 6 13 52 -19 28 -20 48 -23 48 -9 0 12
-68 54 -86 54 -18 0 -20 127 -2 145 8 8 8 15 -2 27 -11 13 -11 18 0 28 9 8 11
8 7 1 -4 -7 0 -15 9 -18 28 -11 30 5 5 25 -19 16 -26 17 -32 7 -7 -10 -9 -9
-9 4 0 24 16 31 39 16 11 -7 23 -9 27 -5 11 10 -16 37 -37 37 -11 0 -19 5 -19
11 0 19 109 0 143 -24 30 -23 59 -72 70 -118 8 -31 39 -42 73 -27 28 13 88
113 80 134 -3 8 -14 14 -25 14 -44 0 -123 34 -132 57 -5 13 -12 23 -16 23 -8
0 -16 15 -48 93 -14 34 -35 50 -35 27 0 -5 5 -10 10 -10 6 0 10 -7 10 -16 0
-8 10 -38 22 -65 19 -47 20 -51 5 -67 -16 -15 -17 -15 -17 1 0 22 -9 22 -26 0
-17 -23 -19 0 -2 27 15 23 4 38 -15 22 -8 -7 -16 -9 -19 -6 -3 3 -9 0 -14 -7
-4 -8 -3 -10 4 -5 7 4 12 3 12 -3 0 -12 -7 -16 -42 -25 -39 -9 -37 18 3 72 23
31 34 40 44 32 16 -14 26 -1 15 20 -5 10 -6 20 -3 24 3 3 1 6 -5 6 -7 0 -28
-25 -48 -55 -20 -30 -38 -55 -40 -55 -10 0 3 76 14 86 11 8 11 12 -2 23 -24
20 -19 29 12 23 l27 -5 -23 25 c-27 29 -26 24 -24 515 l2 313 438 2 c821 5
1677 3 1688 -4z m-1895 -1058 c24 -11 54 -20 66 -20 37 0 36 -19 -3 -76 l-38
-55 -13 45 c-7 25 -18 48 -23 51 -6 3 -10 14 -10 25 0 10 -7 20 -15 24 -8 3
-15 10 -15 16 0 13 1 13 51 -10z m-4 -132 c-3 -8 -6 -5 -6 6 -1 11 2 17 5 13
3 -3 4 -12 1 -19z m933 -1163 c0 -8 -2 -15 -4 -15 -2 0 -6 7 -10 15 -3 8 -1
15 4 15 6 0 10 -7 10 -15z m-65 -39 c0 -29 -18 -29 -39 0 l-18 26 28 -4 c21
-2 29 -9 29 -22z m-895 -43 c-1 -16 -2 -34 -1 -40 1 -19 21 -16 21 3 0 9 5 14
12 12 18 -6 20 -22 4 -43 -14 -19 -16 -19 -44 -3 -21 13 -32 14 -40 6 -19 -19
-27 20 -8 41 9 10 16 25 16 34 0 11 8 17 21 17 16 0 20 -6 19 -27z m1502 -83
l27 -60 -28 0 c-16 0 -34 6 -40 14 -7 8 -30 13 -61 13 -57 -1 -58 0 -70 42
l-9 31 59 0 c32 0 62 5 65 10 14 22 31 6 57 -50z m278 26 c0 -15 -24 -28 -34
-19 -13 14 -5 33 14 33 11 0 20 -6 20 -14z m-1062 -99 c14 -30 38 -38 27 -9
-3 9 9 0 28 -21 37 -40 52 -67 37 -67 -5 0 -11 9 -15 19 -6 20 -41 38 -52 28
-10 -11 -6 -53 11 -112 21 -76 33 -267 18 -298 -6 -12 -13 -29 -15 -37 -3 -10
-9 -5 -18 15 -8 19 -13 80 -15 169 -1 116 -4 141 -18 151 -9 7 -16 26 -16 44
0 17 -4 31 -8 31 -17 0 18 -347 42 -415 15 -42 12 -65 -9 -65 -14 0 -34 86
-38 163 -3 66 -21 59 -27 -10 -4 -51 -6 -54 -13 -29 -15 52 -26 233 -18 284 4
27 7 56 5 64 -1 12 10 17 43 21 69 8 78 26 10 24 -65 -2 -75 4 -57 38 10 19
11 28 2 37 -17 17 -27 2 -12 -17 16 -20 6 -19 -14 1 -14 14 -14 18 -1 44 l15
29 48 -27 c26 -16 53 -40 60 -55z m220 47 c10 -7 12 -16 6 -25 -5 -8 -7 -21
-6 -31 4 -20 -13 -31 -36 -24 -20 7 -24 77 -4 83 6 3 12 12 13 21 0 14 2 14 6
2 4 -8 13 -20 21 -26z m-1068 -3 c0 -9 6 -23 13 -30 10 -10 8 -15 -7 -27 -26
-19 -45 -18 -53 2 -4 10 0 20 10 26 10 5 17 20 17 34 0 14 4 22 10 19 6 -3 10
-14 10 -24z m1984 13 c9 -8 16 -23 15 -32 0 -14 -3 -13 -16 6 -8 12 -22 22
-30 22 -8 0 -11 5 -8 10 9 14 21 12 39 -6z m-257 -40 c-4 -4 -19 -1 -34 6 -26
12 -27 13 -8 20 21 8 55 -13 42 -26z m211 22 c7 -1 18 -8 24 -14 9 -9 8 -12
-5 -12 -11 0 -17 -8 -18 -22 -1 -16 -3 -18 -6 -6 -6 22 -30 30 -53 18 -24 -13
-40 -13 -40 0 0 6 7 10 15 10 8 0 19 9 25 21 8 14 17 18 28 14 9 -4 23 -8 30
-9z m-1679 -40 c10 -25 43 -44 49 -27 7 22 22 10 22 -18 0 -35 -26 -62 -36
-37 -8 21 -24 21 -24 -1 0 -25 -14 -6 -15 20 0 12 -4 23 -10 24 -5 1 -8 -6 -7
-15 3 -13 1 -14 -12 -3 -19 16 -20 34 -6 62 14 26 29 24 39 -5z m1256 14 c7
-12 -36 -30 -72 -30 l-25 0 23 20 c26 21 64 26 74 10z m235 -20 c0 -5 -2 -10
-4 -10 -3 0 -8 5 -11 10 -3 6 -1 10 4 10 6 0 11 -4 11 -10z m234 -5 c-4 -8
-11 -15 -16 -15 -6 0 -5 6 2 15 7 8 14 15 16 15 2 0 1 -7 -2 -15z m-334 -20
c0 -23 -2 -24 -20 -15 -23 12 -27 32 -5 24 8 -4 15 -1 15 5 0 6 2 11 5 11 3 0
5 -11 5 -25z m-187 -2 c53 9 72 9 85 -1 9 -7 24 -15 32 -18 8 -3 24 -10 35
-14 23 -10 85 -10 85 0 0 3 -5 11 -12 18 -6 6 -9 15 -5 18 8 8 95 -15 120 -31
15 -11 12 -13 -25 -20 -24 -4 -66 -7 -94 -6 -35 1 -55 -4 -64 -14 -16 -20 -5
-32 14 -15 10 7 29 10 54 5 22 -3 50 -1 67 6 33 13 213 19 217 7 4 -10 45 -11
79 -3 35 9 38 -6 33 -185 -2 -80 -4 -169 -4 -199 l0 -54 -107 7 c-59 4 -112
11 -119 17 -21 18 -24 -7 -5 -44 17 -34 17 -37 1 -52 -10 -9 -35 -15 -64 -15
-43 0 -53 5 -87 39 -40 40 -46 61 -29 105 7 19 16 25 32 23 18 -2 24 4 26 26
4 31 2 31 53 16 21 -7 36 -16 33 -21 -8 -13 4 -58 16 -58 6 0 10 13 10 29 0
17 4 32 9 35 5 4 12 24 16 45 4 27 13 41 26 44 21 6 27 47 7 47 -10 0 -10 2 0
9 9 6 3 16 -24 39 -42 36 -53 38 -93 17 -40 -20 -45 -58 -13 -90 22 -23 23
-25 6 -27 -11 0 1 -4 26 -7 37 -5 46 -10 48 -29 3 -19 0 -23 -15 -18 -10 3
-36 8 -58 12 -49 7 -51 9 -34 30 12 14 10 16 -16 13 -17 -2 -47 5 -68 15 -21
10 -41 16 -44 12 -3 -3 -1 -6 5 -6 7 0 12 -9 12 -20 0 -11 -2 -20 -4 -20 -2 0
-12 -3 -21 -7 -15 -5 -16 -3 -7 14 8 14 8 23 0 31 -17 17 -28 15 -28 -6 0 -10
-3 -21 -6 -25 -9 -8 -81 19 -111 43 -14 11 -28 18 -31 15 -8 -7 38 -54 60 -61
15 -5 48 -51 48 -69 0 -3 -18 -5 -40 -5 -22 0 -40 -4 -40 -10 0 -5 11 -10 25
-10 14 0 25 -4 25 -10 0 -5 -4 -10 -8 -10 -4 0 -9 -15 -9 -32 -2 -27 0 -29 6
-13 5 12 16 27 26 35 12 10 9 1 -8 -33 -20 -38 -22 -47 -10 -51 11 -5 13 -16
7 -53 -9 -66 -17 -79 -34 -58 -18 21 -22 97 -7 107 9 5 7 11 -4 20 -9 7 -20
30 -23 51 -8 43 -22 48 -36 11 -8 -19 -6 -29 5 -41 22 -21 15 -24 -28 -12 -34
9 -52 29 -26 29 18 0 49 44 43 62 -3 9 2 21 12 26 17 9 17 19 -2 97 -4 17 -12
33 -18 37 -7 5 -3 17 12 37 24 33 16 43 -10 14 -25 -29 -30 -59 -18 -124 l11
-62 -34 -36 c-19 -20 -32 -42 -30 -48 4 -10 -29 -13 -140 -13 l-145 0 -12 50
c-7 28 -10 57 -6 65 3 8 -1 52 -9 97 -19 108 -20 103 17 103 17 0 33 5 35 11
2 6 -10 8 -33 6 -32 -4 -53 7 -54 28 0 3 35 6 78 7 77 2 77 2 52 -17 -20 -15
-22 -21 -11 -33 10 -13 9 -17 -8 -26 -11 -6 -29 -11 -40 -11 -11 0 -23 -4 -26
-10 -9 -14 41 -13 68 2 32 17 86 27 93 17 10 -17 53 -9 82 16 17 14 39 25 50
25 22 0 46 19 62 51 15 26 0 24 -32 -6 -15 -14 -36 -25 -46 -25 -11 0 -32 -12
-48 -27 -25 -23 -29 -24 -32 -9 -3 14 -10 16 -30 11 -48 -12 -82 -14 -82 -5 0
11 89 52 100 45 11 -7 112 16 125 28 6 6 -8 6 -40 1 -82 -14 -205 -11 -205 4
0 7 14 18 30 24 17 5 35 19 41 29 9 18 20 19 114 17 97 -3 105 -2 105 16 0 14
3 16 13 8 9 -8 32 -8 80 1z m-761 -45 c-2 -24 -9 -47 -14 -53 -11 -10 -3 69 8
87 9 14 10 9 6 -34z m-722 23 c0 -5 -8 -11 -17 -15 -10 -3 -24 -9 -30 -12 -23
-10 -14 11 10 22 29 15 37 16 37 5z m413 -36 c8 -20 -7 -27 -35 -16 -17 7 -18
10 -5 10 9 1 17 6 17 11 0 15 17 12 23 -5z m324 -102 c-2 -16 -4 -5 -4 22 0
28 2 40 4 28 2 -13 2 -35 0 -50z m214 -13 c5 0 9 8 9 17 0 33 13 2 31 -74 10
-43 18 -107 18 -143 0 -89 -15 -50 -23 63 -7 91 -13 120 -25 113 -4 -3 -4 -35
0 -73 10 -88 11 -198 2 -189 -4 4 -11 64 -14 134 -4 70 -10 143 -12 162 -2 19
-2 25 0 13 2 -13 9 -23 14 -23z m-94 -32 c-3 -8 -6 -5 -6 6 -1 11 2 17 5 13 3
-3 4 -12 1 -19z m-419 -20 c-3 -7 -24 -17 -48 -22 -34 -7 -45 -15 -53 -37 -9
-24 -18 -28 -66 -34 -70 -9 -101 -21 -101 -39 0 -7 10 -16 23 -20 33 -9 3 -26
-48 -26 -65 -1 -127 -17 -137 -34 -5 -9 -21 -16 -36 -16 -27 0 -27 1 -28 74
-1 80 3 85 62 86 12 0 27 6 33 14 6 7 42 16 86 19 41 4 83 11 92 17 10 6 54
14 98 19 119 13 127 12 123 -1z m1410 -41 c2 -19 -1 -27 -12 -27 -18 0 -40 36
-31 51 13 19 40 4 43 -24z m-1399 -38 c29 -48 76 -187 66 -197 -6 -7 -555 -3
-566 4 -16 10 -1 21 38 29 20 4 42 13 48 20 6 8 45 18 93 24 46 6 87 13 93 16
16 11 10 34 -13 46 -22 12 -22 12 -3 20 11 4 37 8 57 8 51 1 84 16 91 40 4 17
34 38 58 40 3 1 20 -22 38 -50z m1241 -29 c0 -5 -5 -10 -11 -10 -5 0 -7 -4 -4
-10 10 -16 43 -11 48 8 3 9 5 0 4 -22 -1 -29 -6 -40 -23 -46 -12 -5 -30 -23
-40 -39 -22 -38 -41 -40 -50 -6 -3 14 -14 31 -24 38 -9 6 -20 24 -23 39 -7 26
-6 27 26 21 24 -3 39 1 57 16 28 23 40 26 40 11z m-984 -157 c-10 -25 -28 -14
-22 15 3 15 9 52 13 82 l8 55 3 -69 c2 -38 1 -75 -2 -83z m51 100 c-3 -10 -5
-4 -5 12 0 17 2 24 5 18 2 -7 2 -21 0 -30z m-102 13 c20 -14 23 -72 6 -105 -7
-12 -7 -30 -1 -52 6 -19 10 -35 10 -36 0 -2 -8 -3 -19 -3 -22 0 -31 31 -38
138 -5 77 2 87 42 58z m128 -106 c-7 -27 -10 -25 -15 10 -3 22 -2 27 8 19 6
-5 10 -19 7 -29z m40 -63 c2 -67 -5 -87 -17 -44 -3 12 -6 47 -6 77 0 79 20 50
23 -33z m761 77 c25 -9 16 -112 -11 -121 -18 -6 -22 23 -8 50 11 22 11 28 0
37 -8 6 -11 18 -8 26 6 16 6 16 27 8z m-837 -41 c-3 -10 -5 -4 -5 12 0 17 2
24 5 18 2 -7 2 -21 0 -30z m180 -25 c-3 -8 -6 -5 -6 6 -1 11 2 17 5 13 3 -3 4
-12 1 -19z m123 -27 c5 -21 12 -53 14 -71 5 -42 7 -44 106 -98 29 -17 39 -27
32 -34 -16 -16 -110 22 -139 56 -14 17 -28 25 -33 20 -12 -13 44 -72 75 -80
27 -7 43 -29 30 -42 -3 -4 -12 0 -19 10 -8 11 -17 13 -27 7 -9 -5 -31 -4 -52
2 -32 9 -38 16 -51 57 -15 53 -13 62 15 62 18 0 20 4 14 44 -5 30 -2 56 6 75
8 17 15 31 16 31 1 0 7 -17 13 -39z m-60 21 c0 -4 -5 -13 -11 -19 -8 -8 -8
-17 0 -31 13 -25 15 -60 2 -46 -13 13 -31 85 -25 96 7 10 34 11 34 0z m-111
-52 c5 0 11 -26 14 -57 4 -32 9 -73 13 -91 5 -27 4 -31 -9 -26 -19 7 -37 87
-36 157 1 29 3 44 6 35 2 -10 8 -18 12 -18z m-259 -20 c0 -6 -60 -30 -73 -30
-18 0 -4 22 25 40 24 15 34 16 40 7 4 -7 8 -14 8 -17z m58 2 c2 -7 -3 -12 -12
-12 -9 0 -16 7 -16 16 0 17 22 14 28 -4z m142 -27 c12 -4 23 -27 33 -68 9 -34
14 -63 12 -66 -7 -7 -46 31 -60 59 -7 14 -16 48 -19 75 -5 42 -4 46 5 28 7
-13 20 -25 29 -28z m-209 -22 c0 -5 2 -42 3 -84 2 -80 -3 -86 -41 -57 -7 6
-17 7 -23 3 -16 -10 -12 11 5 25 10 8 15 31 15 66 0 47 2 54 20 54 11 0 20 -3
21 -7z m49 -49 c0 -25 5 -54 10 -65 9 -16 7 -19 -9 -19 -26 0 -32 22 -25 86 8
63 24 62 24 -2z m1175 46 c3 -5 1 -10 -4 -10 -6 0 -11 5 -11 10 0 6 2 10 4 10
3 0 8 -4 11 -10z m-369 -56 c1 -16 5 -37 9 -46 8 -21 -4 -23 -29 -5 -16 11
-17 17 -6 36 6 12 9 29 6 38 -4 9 -1 13 6 11 7 -3 14 -18 14 -34z"/>
<path d="M1024 3818 c-4 -6 4 -21 20 -35 27 -23 27 -25 12 -48 -9 -14 -21 -25
-26 -25 -6 0 -10 -7 -10 -15 0 -24 27 -17 48 12 17 23 22 25 36 14 9 -7 16
-20 16 -27 0 -8 9 -14 20 -14 24 0 26 13 4 30 -8 8 -20 22 -26 34 -9 17 -6 23
18 42 31 25 30 32 -7 36 -18 2 -25 -2 -27 -19 -4 -27 -20 -30 -29 -5 -11 30
-37 41 -49 20z"/>
<path d="M1030 3600 c0 -13 -5 -18 -15 -14 -12 5 -15 -2 -15 -30 0 -39 19 -51
21 -13 l2 22 4 -22 c5 -26 13 -29 31 -11 9 9 12 9 12 0 0 -7 5 -12 10 -12 6 0
10 11 10 25 0 27 -9 32 -28 13 -9 -9 -12 -4 -12 25 0 20 -4 37 -10 37 -5 0
-10 -9 -10 -20z"/>
<path d="M1145 3608 c-3 -7 -6 -27 -7 -45 -3 -37 14 -45 24 -11 l6 23 1 -22
c2 -48 31 -17 31 33 0 28 -16 32 -23 7 -4 -14 -5 -12 -6 5 -1 24 -19 30 -26
10z"/>
<path d="M1226 3602 c-2 -4 -7 -24 -11 -45 -6 -30 -4 -37 9 -37 9 0 16 6 16
14 0 7 3 28 6 45 6 28 -7 44 -20 23z"/>
<path d="M1266 3602 c-11 -19 -18 -92 -8 -92 13 0 33 83 23 93 -5 5 -11 5 -15
-1z"/>
<path d="M960 3554 c0 -32 4 -44 13 -41 6 2 12 9 11 15 -1 7 -2 26 -2 42 -3
48 -22 34 -22 -16z"/>
<path d="M1296 3568 c-8 -33 -7 -58 2 -58 11 0 32 67 24 74 -11 11 -20 6 -26
-16z"/>
<path d="M920 3545 c0 -24 5 -35 15 -35 15 0 20 26 9 54 -11 28 -24 17 -24
-19z"/>
<path d="M880 3548 c0 -13 4 -29 9 -37 13 -20 24 4 17 35 -8 30 -26 32 -26 2z"/>
<path d="M1100 3545 c0 -14 5 -25 10 -25 6 0 10 11 10 25 0 14 -4 25 -10 25
-5 0 -10 -11 -10 -25z"/>
<path d="M1341 3552 c-6 -11 -11 -28 -11 -36 0 -25 20 -18 31 11 12 33 -4 54
-20 25z"/>
<path d="M730 3542 c0 -35 20 -76 31 -65 12 12 2 58 -17 74 -11 9 -14 7 -14
-9z"/>
<path d="M810 3548 c0 -26 12 -58 22 -58 14 0 5 63 -9 68 -7 2 -13 -2 -13 -10z"/>
<path d="M850 3530 c0 -16 5 -30 10 -30 6 0 10 14 10 30 0 17 -4 30 -10 30 -5
0 -10 -13 -10 -30z"/>
<path d="M773 3529 c4 -13 7 -30 7 -36 0 -7 5 -13 11 -13 15 0 6 63 -10 68
-10 4 -12 -1 -8 -19z"/>
<path d="M1380 3531 c-13 -26 -13 -31 5 -31 9 0 15 9 15 25 0 30 -6 32 -20 6z"/>
<path d="M1426 3514 c-4 -15 -5 -29 -2 -31 9 -9 26 8 26 27 0 30 -17 32 -24 4z"/>
<path d="M1463 3505 c-12 -39 0 -57 16 -26 13 24 14 48 3 55 -5 3 -14 -10 -19
-29z"/>
<path d="M654 3498 c7 -35 21 -55 28 -41 3 4 1 23 -4 41 -11 43 -33 43 -24 0z"/>
<path d="M690 3517 c0 -18 27 -53 35 -46 10 11 -6 59 -21 59 -8 0 -14 -6 -14
-13z"/>
<path d="M614 3484 c8 -33 23 -51 33 -41 10 11 -10 60 -26 65 -11 4 -12 -2 -7
-24z"/>
<path d="M1502 3486 c-12 -28 -5 -41 15 -25 14 13 18 49 5 49 -5 0 -14 -11
-20 -24z"/>
<path d="M1546 3482 c-19 -38 -20 -42 -3 -42 19 0 41 50 28 63 -6 6 -15 -2
-25 -21z"/>
<path d="M560 3495 c0 -17 31 -75 39 -75 15 0 14 16 -4 50 -13 26 -35 41 -35
25z"/>
<path d="M963 3473 c-30 -3 -43 -9 -43 -20 0 -12 7 -14 38 -8 20 4 39 11 40
16 2 5 10 9 18 9 9 0 12 -4 9 -10 -4 -6 6 -10 22 -11 l28 -1 -27 -11 c-32 -13
-37 -37 -8 -37 31 0 24 -20 -10 -26 -34 -7 -41 -24 -10 -24 11 0 20 -4 20 -10
0 -5 -9 -10 -20 -10 -25 0 -26 -17 -2 -23 16 -4 16 -5 0 -6 -10 0 -18 -9 -18
-18 -1 -10 -7 0 -15 21 -8 22 -11 52 -8 67 6 32 -14 59 -45 59 -11 0 -23 6
-25 13 -4 9 -6 9 -6 0 -1 -7 15 -43 34 -80 27 -51 35 -79 35 -118 0 -54 -16
-122 -33 -143 -11 -14 -30 9 -72 90 -28 54 -31 77 -21 175 l8 71 -36 -1 c-38
-1 -49 -13 -18 -19 12 -3 7 -9 -19 -20 -82 -36 -137 -30 -71 7 26 15 26 16 2
9 -31 -8 -50 -23 -50 -38 0 -6 22 -38 49 -71 27 -33 47 -63 45 -67 -2 -3 0 -9
6 -13 14 -9 12 -61 -4 -125 -8 -30 -11 -59 -7 -63 5 -5 33 -11 63 -14 48 -5
57 -3 83 20 27 23 32 24 56 12 22 -12 36 -12 89 1 50 11 71 12 98 3 26 -9 43
-8 72 1 33 11 42 10 86 -12 41 -21 56 -23 88 -16 33 7 43 5 61 -12 18 -17 114
-50 144 -50 5 0 10 35 13 78 5 93 20 122 94 183 54 44 75 81 34 59 -15 -8 -27
-7 -50 5 -37 19 -38 27 -2 20 l27 -6 -30 17 c-16 9 -32 20 -35 25 -9 13 -58
21 -64 10 -4 -6 -13 -46 -21 -90 -8 -44 -21 -93 -29 -109 -16 -31 -90 -102
-106 -102 -17 0 -12 149 5 167 8 8 12 19 9 24 -3 6 17 37 46 70 49 56 56 79
24 79 -8 0 -14 -8 -14 -17 0 -14 2 -15 9 -4 6 9 11 10 15 2 13 -21 -21 -22
-73 -1 -58 22 -76 25 -46 7 11 -7 20 -19 20 -27 0 -8 10 -16 23 -18 12 -2 22
-7 22 -11 0 -4 -13 -6 -30 -3 -18 3 -30 0 -30 -7 0 -6 7 -11 15 -11 8 0 15 -4
15 -10 0 -5 -7 -7 -16 -3 -9 3 -20 0 -24 -8 -13 -20 -17 -10 -23 62 -7 72 -1
78 55 57 15 -6 36 -7 45 -3 14 5 5 12 -36 26 -84 29 -87 27 -87 -98 0 -99 -2
-112 -27 -154 -33 -56 -62 -85 -72 -70 -16 27 -36 129 -30 160 4 18 20 62 36
98 16 35 29 67 29 72 0 15 -28 21 -92 21 -51 0 -59 -2 -54 -16 4 -10 1 -14 -6
-11 -7 2 -12 12 -12 21 1 9 -2 16 -7 16 -5 0 -9 -8 -9 -17 0 -16 -1 -16 -13 0
-13 19 -60 27 -124 20z m297 -33 c0 -5 -21 -10 -46 -10 -27 0 -43 -4 -39 -10
3 -5 17 -10 31 -10 13 0 24 -5 24 -11 0 -7 -10 -9 -25 -7 -14 3 -25 2 -25 -3
0 -4 12 -10 28 -12 25 -4 25 -4 -5 -6 -35 -1 -47 -21 -13 -21 11 0 20 -4 20
-10 0 -5 -9 -10 -20 -10 -11 0 -20 -4 -20 -10 0 -5 7 -10 15 -10 8 0 15 -7 15
-15 0 -12 -6 -10 -24 7 -24 24 -41 68 -25 68 5 0 8 15 7 32 -3 30 0 33 32 39
55 10 70 10 70 -1z m-136 -118 c2 -37 6 -48 22 -50 43 -7 47 -11 33 -29 -12
-14 -12 -17 0 -21 11 -4 11 -6 0 -13 -11 -8 -11 -11 4 -20 18 -11 24 -39 7
-39 -5 0 -10 -5 -10 -11 0 -6 7 -9 15 -5 8 3 15 1 15 -4 0 -6 -8 -10 -17 -11
-12 -1 -10 -4 7 -9 l25 -8 -22 -7 c-13 -4 -23 -11 -23 -16 0 -5 11 -4 25 1 14
5 25 7 25 5 0 -15 -51 -23 -79 -12 -36 13 -36 14 -16 87 16 61 19 100 7 100
-5 0 -14 -29 -21 -65 -7 -36 -17 -65 -21 -65 -15 0 -42 101 -36 130 3 16 1 32
-4 35 -5 3 1 33 12 67 l21 61 14 -27 c8 -15 15 -48 17 -74z m-300 9 c-5 -50
-11 -71 -20 -71 -8 0 -14 5 -14 10 0 6 -10 11 -22 11 -17 1 -19 2 -5 6 9 2 17
8 17 13 0 5 -8 14 -17 19 -10 6 -12 11 -5 11 6 0 12 5 12 10 0 7 -15 9 -37 6
-37 -5 -37 -5 5 7 24 6 42 16 40 20 -3 8 44 39 50 33 1 -2 -1 -35 -4 -75z
m866 -64 c0 -4 -9 -3 -19 3 -11 5 -24 10 -30 10 -19 0 -12 -16 12 -28 20 -11
18 -11 -13 -7 -31 5 -33 4 -17 -8 23 -19 22 -30 -3 -17 -14 7 -20 7 -20 0 0
-5 -7 -10 -16 -10 -13 0 -15 8 -9 53 4 28 9 55 12 59 5 9 103 -43 103 -55z
m-654 -27 c-2 -32 1 -50 8 -51 7 0 6 -3 -1 -6 -7 -2 -13 -18 -13 -35 0 -24 3
-28 18 -24 13 5 22 -1 30 -19 13 -29 13 -29 -52 -40 l-38 -6 6 38 c4 21 10 49
12 63 5 20 3 22 -5 10 -6 -8 -11 -25 -11 -37 0 -13 -4 -23 -10 -23 -13 0 -12
1 1 56 8 32 14 41 20 32 6 -8 9 0 9 25 0 31 14 65 28 67 1 0 0 -22 -2 -50z
m-222 -5 c-4 -8 -10 -15 -15 -15 -4 0 -6 7 -3 15 4 8 10 15 15 15 4 0 6 -7 3
-15z m566 -5 c0 -5 -4 -10 -10 -10 -5 0 -10 5 -10 10 0 6 5 10 10 10 6 0 10
-4 10 -10z m-525 -57 c14 -27 33 -59 43 -73 13 -18 13 -22 2 -15 -8 5 -22 10
-30 10 -9 0 -21 22 -32 63 -9 34 -15 62 -12 62 2 0 15 -21 29 -47z m517 -2
c-2 -19 -9 -28 -20 -27 -9 0 -17 -6 -17 -14 -2 -26 7 -32 21 -13 12 16 13 15
14 -14 0 -18 -4 -33 -10 -33 -5 0 -10 4 -10 8 0 5 -11 14 -25 20 -30 14 -34
-2 -5 -18 11 -6 20 -15 20 -21 0 -5 -13 -3 -30 6 -16 9 -30 18 -30 21 0 14 64
93 71 88 5 -3 9 2 9 10 0 9 4 16 8 16 5 0 7 -13 4 -29z m147 -76 c-47 -68 -53
-74 -63 -50 -3 9 4 21 18 30 13 9 36 34 51 56 16 21 30 37 33 34 3 -3 -15 -34
-39 -70z m-687 23 c8 -24 19 -51 23 -60 6 -16 1 -18 -38 -18 -25 0 -49 5 -52
10 -11 18 15 82 31 76 17 -7 18 6 2 22 -9 9 -8 12 4 12 9 0 21 -17 30 -42z
m555 20 c-3 -8 -6 -5 -6 6 -1 11 2 17 5 13 3 -3 4 -12 1 -19z m193 -4 c-6 -14
-10 -43 -10 -65 0 -21 -4 -39 -10 -39 -5 0 -10 7 -10 15 0 18 -17 20 -23 3 -2
-7 -7 -11 -10 -8 -5 5 60 120 69 120 2 0 -1 -12 -6 -26z m-70 -119 c11 -13 10
-14 -4 -9 -9 3 -16 10 -16 15 0 13 6 11 20 -6z"/>
<path d="M1140 3120 c0 -5 5 -10 10 -10 6 0 10 5 10 10 0 6 -4 10 -10 10 -5 0
-10 -4 -10 -10z"/>
<path d="M1027 3103 c-14 -13 -6 -24 15 -21 27 4 36 28 11 28 -11 0 -23 -3
-26 -7z"/>
<path d="M776 3072 c-6 -10 53 -26 62 -17 8 7 0 13 -29 20 -15 4 -29 2 -33 -3z"/>
<path d="M1596 3458 c-21 -30 -7 -47 16 -19 10 13 18 27 18 32 0 16 -19 9 -34
-13z"/>
<path d="M530 3460 c0 -16 23 -60 32 -60 11 0 10 27 -2 51 -11 20 -30 26 -30
9z"/>
<path d="M1647 3435 c-24 -33 -1 -46 24 -14 10 13 19 27 19 32 0 16 -26 5 -43
-18z"/>
<path d="M488 3444 c-9 -8 19 -64 32 -64 6 0 10 6 10 14 0 19 -34 59 -42 50z"/>
<path d="M1696 3415 c-20 -30 -20 -35 -2 -35 14 0 46 36 46 52 0 17 -29 6 -44
-17z"/>
<path d="M450 3418 c1 -18 25 -48 39 -48 15 0 14 6 -5 35 -17 27 -34 33 -34
13z"/>
<path d="M406 3402 c-3 -6 4 -23 17 -38 15 -17 26 -23 31 -16 3 6 -4 23 -17
38 -15 17 -26 23 -31 16z"/>
<path d="M1746 3388 c-20 -28 -20 -38 -1 -38 14 0 35 29 35 49 0 18 -18 12
-34 -11z"/>
<path d="M1796 3355 c-30 -46 -15 -61 22 -22 26 27 27 33 8 40 -8 3 -21 -4
-30 -18z"/>
<path d="M363 3357 c3 -7 10 -11 16 -9 7 1 10 -2 6 -8 -9 -15 3 -30 20 -24 13
5 13 9 0 27 -16 22 -49 33 -42 14z"/>
<path d="M335 3331 c-10 -17 15 -45 29 -31 7 7 5 15 -6 26 -11 11 -18 13 -23
5z"/>
<path d="M505 3323 c-46 -24 -105 -73 -105 -86 1 -7 28 -32 60 -56 35 -26 60
-53 60 -63 0 -10 4 -18 8 -18 13 0 35 -103 30 -138 -3 -25 0 -32 16 -36 49
-13 72 -6 114 37 40 40 53 67 33 67 -19 0 -101 83 -101 103 0 11 -7 28 -15 37
-9 10 -21 50 -28 91 -13 81 -22 89 -72 62z m59 -104 c6 -45 4 -58 -9 -69 -15
-12 -16 -11 -13 6 2 15 -2 18 -19 17 -27 -3 -29 5 -6 23 24 17 7 32 -18 16
-23 -15 -65 -6 -73 14 -3 9 -1 12 4 9 5 -3 18 -1 27 4 10 6 14 11 8 11 -5 0 1
7 13 16 12 8 27 12 34 8 6 -4 8 -3 4 4 -3 6 2 15 11 21 22 12 27 0 37 -80z m5
-121 c0 -16 -2 -18 -6 -8 -3 8 -11 18 -17 22 -7 5 -4 8 7 8 11 0 17 -7 16 -22z
m90 -39 c40 -38 51 -53 42 -62 -8 -8 -11 -7 -11 6 0 25 -16 21 -39 -11 -15
-22 -17 -32 -9 -40 9 -9 9 -12 0 -12 -6 0 -14 12 -18 28 -6 30 -27 98 -39 125
-14 32 19 17 74 -34z m-72 -41 c-3 -7 -5 -2 -5 12 0 14 2 19 5 13 2 -7 2 -19
0 -25z"/>
<path d="M487 3233 c-16 -8 -26 -17 -24 -20 6 -5 67 24 67 32 0 8 -13 4 -43
-12z"/>
<path d="M1841 3316 c-16 -16 -19 -26 -11 -31 13 -8 62 34 54 46 -8 14 -19 10
-43 -15z"/>
<path d="M280 3309 c0 -19 37 -55 47 -45 4 3 -5 19 -20 34 -20 19 -27 22 -27
11z"/>
<path d="M1892 3297 c-22 -23 -29 -47 -14 -47 10 0 62 53 62 63 0 15 -28 6
-48 -16z"/>
<path d="M240 3272 c0 -4 7 -18 16 -31 12 -16 19 -20 27 -12 7 7 5 17 -8 31
-18 20 -35 26 -35 12z"/>
<path d="M1927 3262 c-19 -20 -22 -42 -8 -42 11 0 41 39 41 52 0 14 -16 9 -33
-10z"/>
<path d="M200 3232 c0 -14 39 -46 47 -38 4 4 2 15 -3 24 -12 19 -44 29 -44 14z"/>
<path d="M1800 3216 c0 -43 -24 -128 -37 -133 -7 -3 -13 -14 -13 -24 0 -20
-80 -85 -117 -95 -27 -7 -28 -11 -8 -56 11 -27 24 -39 57 -50 24 -8 51 -19 61
-23 14 -6 17 -2 17 19 0 14 9 49 20 78 22 58 25 82 10 73 -5 -3 -10 -1 -10 5
0 6 10 8 25 4 18 -4 27 -1 31 10 4 10 33 30 65 46 31 16 60 34 64 40 8 12 -70
97 -106 116 -41 21 -59 18 -59 -10z m60 -37 c8 -4 28 -14 44 -21 35 -15 43
-33 20 -42 -17 -7 -47 11 -39 24 2 4 -10 17 -28 30 l-32 23 21 -24 c12 -13 19
-30 17 -37 -3 -7 3 -20 13 -27 23 -17 11 -19 -18 -4 -27 15 -35 3 -13 -21 10
-11 13 -20 7 -20 -6 0 -14 5 -17 11 -4 6 -13 8 -20 5 -22 -8 -23 16 -5 72 10
29 13 55 9 58 -5 3 -6 10 -3 16 3 5 11 0 18 -13 6 -12 18 -26 26 -30z m-153
-208 c-61 -59 -58 -80 4 -24 24 21 39 32 35 24 -5 -8 -4 -16 4 -21 7 -5 9 -16
5 -29 -5 -17 -13 -21 -37 -19 -41 4 -47 -18 -8 -27 17 -4 29 -9 26 -12 -2 -3
-20 0 -39 6 -45 15 -72 68 -43 85 10 6 35 23 55 38 55 41 55 33 -2 -21z"/>
<path d="M1895 3130 c3 -5 11 -10 16 -10 6 0 7 5 4 10 -3 6 -11 10 -16 10 -6
0 -7 -4 -4 -10z"/>
<path d="M1955 3220 c-10 -11 -15 -23 -12 -26 10 -10 35 3 47 25 15 28 -10 29
-35 1z"/>
<path d="M160 3192 c0 -10 33 -42 43 -42 15 0 6 30 -12 40 -24 12 -31 13 -31
2z"/>
<path d="M2002 3184 c-12 -8 -22 -19 -22 -25 0 -15 26 -10 43 9 30 33 17 43
-21 16z"/>
<path d="M274 3161 c-33 -20 -94 -89 -94 -106 0 -13 150 -88 159 -80 3 4 -2
11 -11 16 -10 6 -15 16 -11 26 5 13 2 15 -23 9 -23 -6 -27 -5 -16 5 6 7 12 17
12 21 0 13 -27 9 -40 -7 -9 -11 -15 -11 -24 -3 -10 9 -5 18 21 41 32 28 49 62
18 37 -9 -7 -18 -10 -21 -7 -3 3 11 17 31 33 28 21 39 24 48 15 9 -10 2 -22
-35 -57 -26 -24 -43 -44 -39 -44 4 0 18 11 31 25 28 30 45 33 28 5 -15 -23 -4
-38 16 -21 12 10 14 9 9 -7 -3 -14 2 -21 16 -25 20 -5 30 -37 12 -37 -17 0
-19 -39 -1 -55 15 -14 25 -38 50 -125 6 -21 12 -25 41 -22 40 4 48 11 82 74
l26 47 -40 11 c-45 12 -125 80 -142 120 -5 14 -18 48 -27 75 -19 57 -32 63
-76 36z m174 -210 c48 -31 51 -36 37 -51 -8 -9 -15 -22 -15 -28 0 -21 19 -13
34 16 8 15 15 21 16 14 0 -7 -9 -26 -21 -41 l-21 -29 -30 57 c-16 31 -39 67
-51 80 -27 29 -17 26 51 -18z m-38 -35 c0 -5 -7 -1 -15 10 -8 10 -14 24 -14
29 0 6 6 1 14 -9 8 -11 15 -24 15 -30z m24 -70 c-3 -8 2 -16 13 -19 14 -4 14
-5 -4 -6 -22 -1 -31 18 -16 32 10 11 13 8 7 -7z"/>
<path d="M120 3152 c0 -14 39 -46 47 -39 3 4 -2 16 -12 27 -19 21 -35 26 -35
12z"/>
<path d="M2041 3124 c-16 -12 -20 -19 -12 -27 7 -7 17 -5 31 8 36 33 22 47
-19 19z"/>
<path d="M90 3122 c0 -14 39 -46 47 -39 3 4 -2 16 -12 27 -19 21 -35 26 -35
12z"/>
<path d="M60 3082 c0 -10 41 -35 47 -28 9 8 -17 36 -33 36 -8 0 -14 -3 -14 -8z"/>
<path d="M2076 3071 c-12 -13 -14 -21 -6 -26 13 -8 52 24 44 36 -8 14 -19 11
-38 -10z"/>
<path d="M2012 3028 c-5 -7 -22 -38 -37 -70 -15 -31 -36 -58 -46 -61 -11 -3
-19 -12 -19 -20 0 -14 -74 -49 -133 -62 -24 -5 -27 -9 -21 -28 7 -24 94 -123
107 -121 4 1 11 2 17 3 5 0 12 17 16 36 8 45 59 115 83 115 10 0 21 6 24 13 3
7 34 22 68 32 35 10 68 20 72 23 9 4 -15 44 -50 82 -13 14 -23 29 -23 34 0 9
-30 35 -41 36 -4 0 -11 -6 -17 -12z m39 -96 c-1 -8 4 -21 11 -30 9 -12 6 -12
-10 2 -25 22 -42 15 -22 -9 11 -13 10 -14 -4 -9 -11 4 -29 -2 -47 -15 -16 -12
-29 -19 -29 -16 0 3 16 38 36 77 l36 72 16 -29 c9 -17 15 -36 13 -43z m71 -26
c10 -19 8 -18 -16 3 -14 14 -26 29 -26 34 0 13 29 -12 42 -37z m-263 -90 c-12
-12 -79 -34 -79 -26 0 5 15 14 33 19 36 10 52 13 46 7z m45 -8 c-4 -7 -9 -23
-10 -37 -5 -39 -20 -46 -39 -17 -20 30 -21 28 20 49 37 20 38 20 29 5z m-71
-63 c23 -32 17 -32 -13 0 -13 14 -19 25 -14 25 5 0 17 -12 27 -25z"/>
<path d="M1080 2975 c0 -30 5 -55 10 -55 6 0 10 25 10 55 0 30 -4 55 -10 55
-5 0 -10 -25 -10 -55z"/>
<path d="M1047 3013 c-11 -10 -8 -73 3 -73 6 0 10 18 10 40 0 41 -2 45 -13 33z"/>
<path d="M1133 3006 c4 -10 7 -26 7 -37 0 -10 5 -19 11 -19 15 0 6 63 -10 68
-10 3 -12 0 -8 -12z"/>
<path d="M1184 3004 c3 -9 6 -29 6 -45 0 -16 5 -29 10 -29 6 0 10 20 10 45 0
35 -4 45 -16 45 -11 0 -14 -5 -10 -16z"/>
<path d="M1240 2970 c0 -37 4 -50 13 -47 7 2 12 21 12 47 0 26 -5 45 -12 48
-9 2 -13 -11 -13 -48z"/>
<path d="M2111 3006 c-9 -10 -9 -16 -1 -21 12 -7 40 11 40 26 0 14 -26 10 -39
-5z"/>
<path d="M927 2968 c6 -57 12 -73 22 -62 13 15 1 104 -14 104 -9 0 -12 -12 -8
-42z"/>
<path d="M960 2984 c0 -14 4 -23 10 -19 6 3 10 15 10 26 0 10 -4 19 -10 19 -5
0 -10 -12 -10 -26z"/>
<path d="M990 2985 c0 -14 4 -25 9 -25 5 0 11 11 13 25 4 17 1 25 -8 25 -8 0
-14 -11 -14 -25z"/>
<path d="M887 2994 c-8 -8 3 -34 14 -34 5 0 9 9 9 20 0 19 -11 26 -23 14z"/>
<path d="M826 2981 c-4 -6 -3 -19 3 -28 9 -17 10 -17 17 0 8 21 -10 45 -20 28z"/>
<path d="M1307 2983 c-10 -10 -8 -73 2 -73 11 0 21 25 21 56 0 23 -10 31 -23
17z"/>
<path d="M770 2974 c0 -28 25 -94 36 -94 17 0 17 -3 -2 53 -9 26 -20 47 -25
47 -5 0 -9 -3 -9 -6z"/>
<path d="M1358 2940 c-4 -43 5 -52 22 -21 14 28 12 61 -4 61 -9 0 -15 -14 -18
-40z"/>
<path d="M1414 2946 c-3 -13 -4 -35 -2 -47 l4 -24 11 25 c23 55 25 70 9 70 -9
0 -18 -11 -22 -24z"/>
<path d="M722 2949 c2 -7 10 -15 17 -17 8 -3 12 1 9 9 -2 7 -10 15 -17 17 -8
3 -12 -1 -9 -9z"/>
<path d="M2145 2949 c-4 -6 -4 -13 -1 -16 8 -8 36 5 36 17 0 13 -27 13 -35 -1z"/>
<path d="M1456 2926 c-3 -13 -9 -31 -12 -40 -13 -33 18 -15 32 19 17 42 17 45
0 45 -8 0 -17 -11 -20 -24z"/>
<path d="M688 2924 c-8 -7 21 -64 33 -64 12 0 11 12 -1 44 -9 25 -21 32 -32
20z"/>
<path d="M1496 2908 c-3 -13 -6 -32 -6 -43 0 -17 2 -17 14 -5 23 23 31 70 13
70 -8 0 -17 -10 -21 -22z"/>
<path d="M116 2894 c-5 -14 -4 -15 9 -4 17 14 19 20 6 20 -5 0 -12 -7 -15 -16z"/>
<path d="M654 2896 c-6 -17 22 -76 36 -76 14 0 13 12 -5 54 -17 39 -23 44 -31
22z"/>
<path d="M1546 2879 c-9 -13 -16 -29 -16 -36 0 -21 18 -15 36 13 23 34 4 56
-20 23z"/>
<path d="M560 2885 c0 -2 10 -25 22 -50 22 -45 38 -58 38 -30 0 25 -33 85 -47
85 -7 0 -13 -2 -13 -5z"/>
<path d="M611 2869 c7 -14 14 -18 21 -11 13 13 2 32 -18 32 -12 0 -13 -4 -3
-21z"/>
<path d="M1588 2835 c-16 -34 -1 -45 23 -16 23 28 24 41 4 41 -9 0 -21 -11
-27 -25z"/>
<path d="M2075 2835 c-25 -21 -27 -27 -15 -35 11 -7 22 -2 42 17 49 47 26 61
-27 18z"/>
<path d="M540 2830 c0 -20 25 -38 36 -27 7 6 -18 47 -28 47 -5 0 -8 -9 -8 -20z"/>
<path d="M1631 2802 c-39 -55 -17 -72 23 -19 14 19 17 30 9 38 -7 7 -17 2 -32
-19z"/>
<path d="M2108 2799 c-23 -22 -28 -33 -20 -41 9 -9 21 -2 46 24 32 33 36 48
14 48 -5 0 -23 -14 -40 -31z"/>
<path d="M500 2782 c0 -14 39 -46 47 -39 3 4 -2 16 -12 27 -19 21 -35 26 -35
12z"/>
<path d="M1967 2762 c-15 -16 -24 -31 -20 -35 3 -4 -2 -7 -13 -7 -15 0 -16 -2
-5 -9 10 -6 25 2 52 27 22 19 39 39 39 44 0 17 -27 7 -53 -20z"/>
<path d="M1672 2768 c-14 -14 -16 -48 -3 -48 11 0 41 39 41 52 0 12 -25 9 -38
-4z"/>
<path d="M2130 2753 c-29 -37 -10 -55 25 -23 14 13 25 29 25 37 0 22 -27 15
-50 -14z"/>
<path d="M427 2763 c-6 -10 49 -73 64 -73 17 0 9 16 -25 49 -19 18 -36 29 -39
24z"/>
<path d="M472 2751 c2 -7 7 -12 11 -12 12 1 9 15 -3 20 -7 2 -11 -2 -8 -8z"/>
<path d="M1988 2717 c-26 -21 -37 -47 -20 -47 8 1 72 57 72 65 0 12 -27 3 -52
-18z"/>
<path d="M1715 2710 c-10 -11 -15 -23 -12 -26 10 -10 35 3 47 25 15 28 -10 29
-35 1z"/>
<path d="M422 2683 c15 -15 31 -24 34 -20 10 10 -26 47 -45 47 -11 0 -8 -7 11
-27z"/>
<path d="M125 2691 c-6 -10 46 -51 64 -51 16 0 13 11 -6 27 -34 26 -52 33 -58
24z"/>
<path d="M1751 2673 c-27 -34 -9 -46 22 -14 15 15 18 24 10 32 -7 7 -17 3 -32
-18z"/>
<path d="M2005 2676 c-21 -17 -27 -28 -20 -35 13 -13 69 35 60 50 -8 12 -5 13
-40 -15z"/>
<path d="M380 2662 c0 -12 49 -37 57 -29 8 8 -26 36 -44 37 -7 0 -13 -4 -13
-8z"/>
<path d="M105 2650 c-3 -5 9 -19 27 -30 36 -22 48 -25 48 -11 0 14 -69 51 -75
41z"/>
<path d="M2027 2632 c-36 -39 -3 -46 33 -7 23 24 23 25 3 25 -11 0 -27 -8 -36
-18z"/>
<path d="M1790 2625 c-24 -29 4 -38 30 -10 23 24 23 25 3 25 -11 0 -26 -7 -33
-15z"/>
<path d="M360 2620 c0 -12 40 -34 47 -26 9 8 -17 36 -33 36 -8 0 -14 -4 -14
-10z"/>
<path d="M80 2611 c0 -13 68 -53 81 -49 6 2 -7 16 -30 31 -44 29 -51 32 -51
18z"/>
<path d="M1840 2592 c-22 -19 -30 -31 -22 -36 14 -8 84 42 76 55 -8 14 -17 11
-54 -19z"/>
<path d="M2062 2597 c-25 -27 -28 -37 -9 -37 16 0 57 37 57 50 0 18 -26 10
-48 -13z"/>
<path d="M310 2600 c0 -13 58 -42 73 -37 7 2 -4 14 -23 25 -39 24 -50 27 -50
12z"/>
<path d="M1892 2573 c-36 -18 -58 -48 -42 -58 10 -6 90 52 90 67 0 12 -11 10
-48 -9z"/>
<path d="M57 2573 c-3 -5 17 -23 43 -40 27 -18 52 -28 55 -23 5 8 -19 26 -82
63 -6 4 -14 4 -16 0z"/>
<path d="M270 2565 c0 -6 57 -35 70 -35 22 0 8 19 -21 29 -34 12 -49 14 -49 6z"/>
<path d="M2091 2549 c-16 -15 -20 -24 -12 -32 8 -8 18 -4 36 13 14 13 25 27
25 32 0 15 -26 8 -49 -13z"/>
<path d="M1913 2514 c-29 -22 -44 -54 -27 -54 9 0 84 64 84 73 0 14 -26 6 -57
-19z"/>
<path d="M230 2521 c0 -5 11 -12 24 -15 13 -3 32 -9 43 -12 14 -4 13 -1 -6 15
-23 21 -61 29 -61 12z"/>
<path d="M2122 2497 c-25 -27 -28 -37 -9 -37 14 0 57 41 57 53 0 15 -28 6 -48
-16z"/>
<path d="M190 2480 c0 -5 16 -17 36 -25 43 -18 44 -18 44 -4 0 5 -16 17 -35
25 -41 17 -45 17 -45 4z"/>
<path d="M1940 2465 c-34 -37 -13 -48 33 -19 21 14 35 29 32 34 -11 18 -41 10
-65 -15z"/>
<path d="M170 2426 c0 -13 59 -29 69 -20 8 7 -13 21 -41 28 -21 5 -28 3 -28
-8z"/>
<path d="M1968 2416 c-10 -7 -18 -18 -18 -25 0 -14 27 -15 35 -1 3 6 15 10 26
10 26 0 20 24 -7 27 -10 2 -27 -3 -36 -11z"/>
<path d="M160 2375 c0 -12 28 -35 44 -35 14 0 5 38 -10 44 -25 9 -34 7 -34 -9z"/>
<path d="M1988 2369 c-10 -5 -18 -17 -18 -24 0 -17 16 -20 25 -5 3 6 15 10 26
10 10 0 19 7 19 15 0 17 -27 19 -52 4z"/>
<path d="M156 2333 c-13 -14 -5 -33 14 -33 11 0 20 6 20 14 0 15 -24 28 -34
19z"/>
<path d="M2000 2320 c-10 -6 -11 -12 -5 -19 13 -12 59 5 50 19 -8 12 -25 13
-45 0z"/>
<path d="M157 2283 c-12 -11 -8 -23 8 -23 8 0 15 7 15 15 0 16 -12 20 -23 8z"/>
<path d="M2018 2276 c-18 -13 -25 -36 -10 -36 14 1 57 29 44 30 -7 0 -10 5 -7
10 9 14 -7 12 -27 -4z"/>
<path d="M160 2236 c0 -9 5 -16 10 -16 6 0 10 4 10 9 0 6 -4 13 -10 16 -5 3
-10 -1 -10 -9z"/>
<path d="M2026 2228 c-20 -28 -15 -32 20 -13 16 8 23 15 16 15 -7 0 -10 5 -7
10 13 20 -14 9 -29 -12z"/>
<path d="M2036 2181 c-4 -7 -5 -15 -2 -18 9 -9 19 4 14 18 -4 11 -6 11 -12 0z"/>
<path d="M2015 2131 c-3 -5 -1 -12 4 -16 6 -3 8 -12 4 -20 -3 -8 0 -15 5 -15
16 0 22 14 15 38 -6 23 -18 28 -28 13z"/>
<path d="M253 1654 c-5 -13 5 -28 35 -55 23 -20 42 -43 42 -52 0 -8 6 -20 14
-26 8 -7 12 -20 9 -29 -2 -10 7 -28 21 -41 14 -14 26 -30 26 -37 0 -7 9 -18
20 -24 24 -13 25 -7 4 25 -9 14 -14 34 -11 45 3 11 1 20 -4 20 -5 0 -9 7 -9
15 0 8 -5 15 -11 15 -6 0 -8 9 -4 20 7 22 -5 26 -23 8 -9 -9 -12 -8 -12 4 0
30 21 31 51 2 37 -35 39 -11 3 27 -20 21 -34 27 -53 24 -20 -4 -31 2 -51 27
-14 18 -19 29 -12 25 6 -5 12 -6 12 -3 0 3 -9 10 -20 16 -16 9 -22 7 -27 -6z"/>
<path d="M340 1656 c0 -8 -8 -16 -17 -18 -15 -3 -14 -5 4 -10 15 -4 23 -1 26
13 3 11 1 22 -4 25 -5 3 -9 -2 -9 -10z"/>
<path d="M602 1633 c-27 -22 -35 -84 -15 -113 20 -29 7 -41 -38 -36 -29 4 -39
2 -36 -7 2 -7 14 -11 27 -9 18 2 20 0 11 -12 -9 -11 -7 -15 10 -19 15 -4 19
-2 15 9 -3 8 1 14 9 14 8 0 15 5 15 10 0 7 6 7 19 0 11 -5 31 -10 45 -10 32 0
43 -17 14 -22 -22 -4 -21 -5 7 -17 23 -10 34 -10 52 0 21 11 27 9 53 -16 16
-16 33 -25 37 -22 11 12 -48 66 -80 73 -17 3 -37 13 -45 21 -12 12 -12 16 5
31 24 21 20 92 -6 116 -29 26 -74 30 -99 9z m88 -43 c0 -5 -4 -10 -10 -10 -5
0 -10 5 -10 10 0 6 5 10 10 10 6 0 10 -4 10 -10z m-33 -95 c5 -16 -36 -13 -42
3 -3 9 2 12 17 10 12 -2 23 -8 25 -13z"/>
<path d="M930 1615 c-7 -8 -12 -37 -12 -64 2 -47 0 -50 -30 -60 -17 -6 -40
-19 -50 -28 -19 -17 -25 -53 -8 -53 6 0 10 5 10 10 0 6 12 22 26 35 21 19 30
22 50 14 33 -12 37 -12 31 5 -4 11 3 13 34 9 24 -4 45 -1 54 7 20 16 18 99 -3
123 -19 21 -85 23 -102 2z"/>
<path d="M444 1504 c3 -8 6 -18 6 -20 0 -2 9 -4 21 -4 26 0 20 20 -10 32 -19
7 -22 5 -17 -8z"/>
<path d="M496 1441 c-4 -7 -5 -15 -2 -18 9 -9 19 4 14 18 -4 11 -6 11 -12 0z"/>
<path d="M939 1437 c0 -1 -1 -23 -2 -50 -3 -53 16 -61 21 -9 2 18 7 32 13 32
17 0 9 18 -11 23 -11 3 -20 4 -21 4z"/>
<path d="M767 1333 c-8 -13 2 -43 14 -43 10 0 10 8 0 34 -5 12 -10 16 -14 9z"/>
<path d="M1306 1333 c-4 -4 -15 -8 -23 -8 -25 0 -26 -22 -2 -28 21 -6 48 14
49 36 0 9 -14 9 -24 0z"/>
<path d="M390 1310 c0 -5 5 -10 10 -10 6 0 10 5 10 10 0 6 -4 10 -10 10 -5 0
-10 -4 -10 -10z"/>
<path d="M567 1293 c-3 -5 -1 -17 4 -28 7 -17 8 -17 8 8 1 27 -4 34 -12 20z"/>
<path d="M285 1110 c-3 -5 -2 -10 4 -10 5 0 13 5 16 10 3 6 2 10 -4 10 -5 0
-13 -4 -16 -10z"/>
<path d="M701 1100 c0 -8 4 -24 9 -35 5 -13 9 -14 9 -5 0 8 -4 24 -9 35 -5 13
-9 14 -9 5z"/>
<path d="M210 1080 c-24 -9 -46 -22 -48 -28 -3 -9 82 21 97 34 14 12 -10 9
-49 -6z"/>
<path d="M340 1092 c0 -6 21 -13 48 -16 26 -2 65 -7 87 -10 l40 -6 -36 14
c-48 19 -139 31 -139 18z"/>
<path d="M616 958 c8 -28 12 -33 20 -25 9 8 -6 47 -17 47 -6 0 -7 -10 -3 -22z"/>
<path d="M273 2729 c15 -24 27 -25 27 -1 0 10 -8 18 -20 19 -17 2 -18 -1 -7
-18z"/>
<path d="M317 2727 c-24 -37 -22 -56 4 -30 12 11 19 29 17 39 -3 15 -6 14 -21
-9z"/>
<path d="M940 1146 c0 -8 5 -18 10 -21 6 -3 10 3 10 14 0 12 -4 21 -10 21 -5
0 -10 -6 -10 -14z"/>
<path d="M1830 1190 c0 -5 5 -10 10 -10 6 0 10 5 10 10 0 6 -4 10 -10 10 -5 0
-10 -4 -10 -10z"/>
<path d="M1519 1142 l24 -4 -29 -23 c-28 -23 -29 -23 -10 -44 10 -11 27 -23
37 -26 11 -4 17 -11 14 -16 -4 -5 2 -9 12 -9 12 0 14 -3 6 -8 -7 -4 7 -17 37
-34 27 -15 52 -23 55 -18 3 5 -11 18 -32 29 -21 11 -31 20 -22 21 32 0 55 46
50 96 -2 19 -54 37 -111 39 -30 1 -44 -1 -31 -3z m126 -71 c-2 -31 -23 -49
-50 -43 -33 6 -28 20 15 44 19 10 35 18 36 18 0 0 0 -9 -1 -19z"/>
<path d="M1875 1138 c-11 -6 -40 -11 -65 -10 -46 2 -81 -11 -67 -25 4 -4 16
-2 26 4 11 7 33 8 60 3 28 -5 46 -4 54 4 7 6 23 17 37 23 l25 12 -25 0 c-14 0
-34 -5 -45 -11z"/>
<path d="M1960 1139 c0 -5 21 -9 47 -9 25 0 44 2 42 4 -10 8 -89 13 -89 5z"/>
<path d="M1752 1080 c-36 -8 -49 -17 -40 -26 4 -3 15 -1 26 5 12 6 32 11 46
11 14 0 26 5 26 10 0 11 -11 11 -58 0z"/>
<path d="M1824 935 c-18 -14 -18 -14 4 -8 12 3 22 9 22 14 0 12 -3 11 -26 -6z"/>
<path d="M1862 805 c0 -16 2 -22 5 -12 2 9 2 23 0 30 -3 6 -5 -1 -5 -18z"/>
<path d="M1801 771 c-9 -6 -11 -16 -5 -32 4 -13 9 -30 10 -38 3 -19 42 -57 50
-49 3 4 -3 19 -12 34 -14 20 -15 29 -6 32 15 5 16 34 0 50 -14 14 -19 15 -37
3z"/>
<path d="M1863 711 c-1 -18 5 -36 18 -47 19 -17 19 -17 16 2 -14 73 -31 95
-34 45z"/>
<path d="M2065 381 c-3 -5 0 -11 7 -14 7 -2 3 -2 -9 0 -22 3 -28 -8 -24 -44 1
-7 -3 -13 -9 -13 -6 0 -8 5 -5 10 4 6 -5 10 -19 10 -32 0 -34 -18 -4 -29 20
-7 20 -8 -11 -19 -40 -14 -32 -32 15 -32 22 0 34 -5 33 -12 -1 -7 -1 -43 0
-80 1 -53 4 -68 16 -68 12 0 15 14 15 65 l0 65 34 0 c44 0 66 9 66 26 0 14
-21 19 -75 15 -23 -1 -27 0 -15 8 8 6 27 11 41 11 16 0 26 6 26 15 0 11 -12
15 -44 15 -29 0 -42 4 -37 11 3 6 15 9 25 6 10 -3 22 -1 25 4 3 5 -10 10 -28
10 -27 1 -29 3 -8 6 35 6 48 22 30 33 -19 12 -37 13 -45 1z m-30 -111 c3 -6
-4 -10 -17 -10 -18 0 -20 2 -8 10 19 12 18 12 25 0z m105 -30 c0 -5 -16 -10
-35 -10 -19 0 -35 5 -35 10 0 6 16 10 35 10 19 0 35 -4 35 -10z"/>
<path d="M1995 229 c-4 -6 -5 -13 -2 -16 7 -7 27 6 27 18 0 12 -17 12 -25 -2z"/>
<path d="M435 29 c-33 -3 -53 -7 -45 -8 34 -6 790 -6 855 -1 39 4 -103 8 -315
10 -212 1 -396 3 -410 4 -14 0 -52 -2 -85 -5z"/>
<path d="M1332 25 c8 -8 317 -10 324 -2 4 4 -68 7 -161 7 -93 0 -166 -2 -163
-5z"/>
</g>
</svg>
