<?xml version="1.0" standalone="no"?>
<!DOCTYPE svg PUBLIC "-//W3C//DTD SVG 20010904//EN"
 "http://www.w3.org/TR/2001/REC-SVG-20010904/DTD/svg10.dtd">
<svg version="1.0" xmlns="http://www.w3.org/2000/svg"
 width="216.000000pt" height="381.000000pt" viewBox="0 0 216.000000 381.000000"
 preserveAspectRatio="xMidYMid meet">
<metadata>
Created by potrace 1.16, written by Peter Selinger 2001-2019
</metadata>
<g transform="translate(0.000000,381.000000) scale(0.100000,-0.100000)"
fill="#000000" stroke="none">
<path d="M148 3770 c-53 -3 -99 -8 -102 -11 -16 -16 -23 -564 -32 -2424 -3
-655 -7 -1212 -9 -1240 -2 -27 -1 -57 1 -66 4 -14 89 -15 807 -17 441 -1 901
-1 1022 -1 121 0 231 0 244 0 52 -2 50 -20 52 582 1 309 3 580 4 602 2 22 5
380 9 795 3 415 9 983 12 1261 5 422 4 508 -7 515 -15 9 -1830 13 -2001 4z
m1983 -43 c1 -69 -4 -1510 -6 -1550 -1 -26 -5 -219 -9 -430 -3 -210 -9 -456
-12 -547 l-6 -166 -37 3 c-36 2 -36 2 -5 -6 48 -12 49 -15 44 -92 l-5 -73 -50
-13 c-81 -23 -235 -17 -340 11 -49 14 -108 31 -130 40 -22 8 -49 15 -60 16
-21 0 -45 17 -45 32 0 4 10 9 23 9 20 1 20 2 2 6 -11 3 -24 10 -30 15 -7 7 11
8 55 4 176 -18 184 -18 260 4 41 12 98 26 125 32 78 16 96 27 35 21 -30 -3
-84 -17 -120 -31 -67 -27 -72 -27 -309 -19 l-54 2 -4 -85 c-2 -47 -6 -91 -8
-97 -7 -20 -70 -15 -120 9 -43 21 -45 24 -45 64 0 44 -16 67 -30 43 -6 -8 -11
6 -16 40 -5 37 -10 49 -17 42 -6 -6 -20 -11 -32 -12 -20 -1 -18 -2 24 -15 11
-4 10 -8 -4 -24 -16 -18 -16 -20 -2 -20 10 0 17 -4 17 -10 0 -5 0 -13 0 -17 1
-5 -14 -11 -32 -15 -64 -12 -82 -18 -92 -28 -17 -17 2 -23 26 -8 13 8 39 18
58 22 28 5 39 2 52 -13 20 -24 14 -31 -26 -31 -17 0 -37 -4 -45 -9 -8 -5 3 -7
31 -4 l45 5 17 -42 c9 -24 13 -47 9 -51 -14 -14 -125 -39 -172 -39 -33 0 -42
-3 -34 -11 13 -13 61 -8 145 14 49 12 60 12 69 1 9 -12 3 -14 -32 -16 -44 -1
-44 -1 -6 -5 20 -2 37 -8 37 -14 0 -5 -84 -9 -205 -9 -130 0 -205 4 -205 10 0
6 21 11 48 12 l47 1 -47 6 c-38 5 -46 9 -39 20 5 8 31 20 58 27 76 20 220 78
201 82 -9 2 -38 -8 -65 -21 -27 -14 -69 -30 -93 -37 -25 -6 -53 -14 -64 -17
-16 -4 -18 -1 -12 23 7 28 7 28 -8 8 -43 -60 -73 -179 -54 -217 14 -28 -7 -47
-45 -41 -43 6 -109 5 -182 -4 -33 -4 -76 -5 -95 -1 l-35 6 28 11 c16 7 36 12
45 12 10 0 26 6 37 13 11 7 40 21 65 30 52 19 71 48 95 141 16 65 26 76 68 76
19 0 30 7 36 23 8 19 10 20 16 5 8 -21 49 -31 88 -22 21 4 26 9 16 14 -9 6
-10 12 -2 22 6 7 13 25 17 41 4 16 14 27 24 28 15 1 15 2 -1 6 -33 9 -11 27
47 39 31 6 60 15 64 19 4 5 0 6 -9 2 -9 -3 -37 -9 -63 -12 l-46 -7 0 97 0 97
67 129 68 129 52 0 c51 0 52 -1 57 -32 19 -111 34 -238 31 -254 -2 -11 -4 -24
-4 -31 -1 -7 -11 -21 -23 -33 -12 -11 -17 -20 -11 -20 6 0 9 -9 6 -20 -15 -57
171 -146 192 -92 3 9 6 55 6 102 0 57 4 91 14 106 8 12 26 62 39 110 39 136
53 169 71 172 9 2 41 27 72 56 l55 53 -22 43 c-21 42 -21 70 1 70 7 0 9 -10 4
-27 -6 -27 -5 -27 11 -11 19 19 15 30 -98 265 l-49 102 20 20 c12 12 21 25 21
30 0 6 12 9 28 8 26 -2 27 0 26 46 0 26 3 47 8 47 7 0 13 -31 9 -52 -2 -12 14
-9 27 4 7 7 12 22 12 34 0 13 11 31 25 42 14 11 25 25 25 31 0 6 5 11 10 11 6
0 13 8 17 18 11 32 36 52 64 52 15 0 31 5 34 11 4 6 0 9 -10 7 -10 -2 -20 3
-22 10 -4 9 2 10 23 2 15 -6 27 -9 28 -8 0 2 9 17 19 35 13 25 17 48 13 102
-3 63 -7 75 -37 110 -19 22 -46 57 -61 79 -20 31 -40 45 -77 59 -33 11 -51 23
-51 34 0 36 -90 97 -185 125 -29 9 -30 12 -37 86 -9 103 -47 212 -94 275 -29
38 -120 71 -151 55 -10 -5 -49 -13 -88 -17 -38 -4 -92 -16 -120 -26 -69 -26
-82 -24 -118 16 -36 41 -64 45 -77 10 -5 -14 -14 -25 -19 -25 -6 0 -17 -13
-26 -30 -9 -16 -13 -30 -10 -30 4 0 -1 -10 -9 -22 -23 -32 -20 -53 9 -68 14
-7 25 -19 25 -26 0 -7 5 -14 11 -16 16 -5 0 -36 -23 -43 -13 -5 -18 -14 -16
-28 2 -17 11 -23 36 -25 29 -3 31 -6 26 -28 -5 -18 -2 -24 10 -24 9 0 16 -6
16 -14 0 -15 45 -27 68 -18 12 4 13 19 9 69 -7 66 -4 69 38 53 21 -8 25 -14
20 -32 -6 -16 -4 -20 8 -15 10 3 17 -1 20 -14 3 -12 14 -19 30 -19 16 0 31
-10 42 -26 16 -24 16 -25 -2 -23 -10 1 -36 -6 -58 -16 -22 -10 -54 -17 -72
-16 -39 3 -97 -25 -90 -43 3 -8 1 -18 -5 -24 -19 -19 -37 -85 -29 -100 11 -19
-5 -77 -27 -103 -9 -11 -32 -27 -49 -34 -18 -8 -33 -20 -33 -28 0 -8 -11 -22
-25 -31 -25 -16 -34 -46 -15 -46 6 0 10 7 10 15 0 8 18 22 41 31 31 13 39 21
36 35 -3 11 0 19 7 19 20 0 63 53 71 86 3 18 14 39 24 48 17 16 20 15 43 -12
25 -30 36 -53 59 -131 7 -24 18 -49 24 -55 7 -6 14 -48 17 -93 6 -87 -3 -112
-38 -99 -12 5 -14 15 -10 44 4 20 2 44 -4 52 -5 8 -10 13 -10 10 -12 -93 -10
-110 15 -122 25 -11 31 -24 17 -44 -11 -17 -126 -10 -156 9 -29 19 -34 37 -10
37 9 0 12 5 8 12 -5 8 -2 9 10 5 10 -4 15 -3 11 3 -4 6 8 13 25 16 28 6 31 10
29 38 -2 17 -10 39 -18 49 -9 11 -14 36 -13 67 1 37 -3 50 -14 50 -9 0 -14
-10 -14 -28 0 -16 -6 -37 -14 -47 -14 -19 -15 -19 -26 7 -10 22 -16 25 -34 18
-11 -5 -33 -11 -48 -14 -16 -4 -28 -10 -28 -15 0 -15 33 -22 41 -9 5 8 12 9
21 2 7 -6 26 -11 42 -12 31 -2 66 -27 66 -46 0 -6 -7 -2 -15 8 -22 29 -29 12
-10 -24 9 -18 14 -34 12 -37 -3 -2 -10 5 -17 16 -15 30 -28 26 -24 -6 l4 -28
-12 28 c-14 33 -33 36 -25 5 5 -21 5 -21 -7 -5 -18 23 -25 22 -18 -5 3 -14 2
-19 -6 -14 -7 4 -12 13 -12 21 0 8 -9 13 -20 12 -16 -1 -18 -6 -13 -27 6 -23
5 -24 -10 -8 -9 9 -17 27 -17 41 0 13 -8 31 -17 40 -19 16 -21 17 -50 17 -16
0 -16 2 -3 11 12 8 9 9 -12 5 -22 -5 -31 -1 -43 18 -15 22 -15 27 -2 48 15 23
8 68 -11 68 -10 0 11 50 70 169 26 53 34 78 27 87 -7 9 -4 25 10 53 25 48 27
71 6 71 -8 0 -15 5 -15 11 0 19 -62 1 -107 -31 -23 -17 -47 -30 -55 -30 -28 0
-41 -16 -29 -37 10 -19 6 -20 -70 -26 -44 -4 -84 -9 -89 -12 -10 -6 4 -41 44
-109 17 -27 32 -44 34 -38 2 7 18 13 35 13 l32 2 -35 7 c-29 6 -31 8 -10 10
21 2 19 4 -15 15 l-40 13 55 3 55 2 -52 6 c-72 9 -77 21 -7 16 45 -3 51 -2 24
4 -29 6 -19 8 52 12 82 4 104 -3 48 -14 -21 -5 18 -3 80 3 8 1 4 6 -10 10 -23
7 -23 8 -3 9 12 1 24 -3 27 -8 8 -13 -31 -101 -44 -101 -6 0 -8 -4 -5 -10 3
-5 1 -10 -5 -10 -6 0 -8 -5 -5 -10 7 -12 -30 -77 -48 -83 -7 -2 -22 1 -35 6
-17 8 -19 13 -10 19 9 5 7 8 -7 8 -17 0 -17 2 -5 10 13 8 12 10 -4 10 -12 0
-16 5 -12 15 4 10 -1 15 -17 16 -17 1 -16 3 8 9 l30 8 -31 1 c-43 1 -46 -6
-23 -51 19 -36 19 -41 5 -57 -20 -22 -21 -60 -2 -67 10 -4 12 -14 6 -38 -4
-19 -1 -54 7 -87 20 -76 7 -148 -39 -211 -19 -27 0 -38 86 -47 67 -8 84 -6
122 10 52 23 59 33 38 50 -21 17 -64 104 -64 129 0 30 38 26 50 -5 11 -29 41
-32 80 -10 38 22 74 18 101 -11 30 -32 71 -54 101 -54 109 0 117 1 126 16 7
12 13 2 27 -43 10 -32 25 -63 34 -70 14 -10 13 -15 -12 -40 -32 -35 -34 -43
-7 -38 11 2 19 1 17 -3 -2 -4 -25 -51 -52 -104 -27 -54 -55 -98 -62 -98 -7 0
-13 2 -13 5 0 11 33 71 71 128 44 67 44 66 24 63 -26 -4 -168 -184 -168 -212
0 -7 -4 -11 -8 -8 -4 2 -20 -16 -35 -41 -25 -43 -26 -49 -14 -88 20 -68 38
-101 65 -121 17 -12 16 -18 -5 -127 -13 -63 -29 -130 -36 -151 -7 -20 -16 -72
-19 -116 -4 -44 -11 -85 -15 -92 -5 -9 -26 -5 -81 15 -94 35 -208 39 -321 11
-43 -11 -76 -21 -74 -24 2 -2 52 6 111 18 123 26 169 23 278 -17 86 -31 86
-31 65 -47 -9 -7 -19 -30 -23 -51 -12 -75 -15 -85 -30 -85 -9 0 -23 4 -33 10
-67 38 -263 92 -278 77 -3 -2 16 -8 41 -11 49 -8 160 -43 243 -79 52 -22 53
-23 47 -57 -12 -69 -13 -70 -68 -72 l-52 -2 48 -3 c26 -2 47 -9 47 -14 0 -7
-109 -9 -317 -8 -175 1 -322 1 -328 -1 -18 -5 -35 0 -35 10 0 6 86 11 233 12
l232 3 -232 2 -233 3 0 49 0 49 80 12 c44 7 82 16 85 20 2 4 -15 4 -38 -1 -23
-4 -61 -8 -84 -9 -36 0 -43 3 -43 20 0 14 7 20 23 21 l22 2 -23 4 c-20 4 -23
10 -20 41 3 36 4 37 43 35 l40 -2 -43 10 c-25 6 -42 16 -42 25 0 11 22 14 113
15 61 1 123 4 137 8 14 4 -36 7 -110 7 l-135 -1 3 750 c4 1178 17 1985 32
1995 5 3 470 6 1034 7 l1026 2 1 -22z m-1247 -520 c17 -19 38 -36 46 -39 23
-8 -15 -47 -39 -41 -11 3 -22 -1 -26 -7 -5 -9 -1 -10 15 -5 20 6 22 5 15 -11
-4 -11 -10 -28 -13 -39 -3 -11 -11 -24 -19 -28 -7 -4 -13 -21 -13 -37 0 -15
-3 -35 -6 -44 -9 -23 -26 -20 -19 4 10 31 -3 24 -17 -9 -11 -25 -15 -27 -26
-16 -10 12 -8 16 8 25 11 6 34 39 50 73 17 34 24 54 18 44 -32 -46 -37 -52
-42 -46 -4 3 -2 18 3 33 6 14 7 26 2 26 -5 0 -11 -7 -15 -15 -3 -8 -10 -15
-17 -15 -6 0 -9 7 -5 15 5 13 2 14 -15 4 -35 -19 -19 23 18 46 37 23 42 36 11
27 -18 -4 -16 0 10 25 18 17 32 38 32 47 0 24 10 20 44 -17z m441 -1 c32 -17
41 -28 46 -58 3 -19 0 -56 -6 -81 -11 -44 -5 -77 14 -77 13 0 20 39 9 42 -6 2
-8 13 -6 23 8 33 30 -31 31 -92 1 -29 6 -53 11 -53 8 0 3 104 -8 150 -4 14 2
3 13 -25 14 -36 20 -76 20 -142 1 -124 -22 -186 -98 -265 -52 -52 -61 -58 -99
-58 -56 0 -168 47 -210 88 -51 52 -128 67 -165 35 -18 -17 -19 -17 -16 2 2 10
15 22 29 26 14 4 19 7 13 8 -21 2 -15 29 8 36 29 10 80 -2 109 -25 14 -11 20
-20 13 -20 -6 0 -15 5 -18 10 -8 12 -45 13 -45 2 0 -8 166 -53 252 -68 33 -5
39 -3 47 18 5 13 17 30 27 38 24 21 53 88 55 130 1 24 3 28 6 13 2 -13 9 -23
15 -23 15 0 4 54 -25 132 -22 55 -24 71 -15 95 6 16 8 41 5 55 -10 37 -52 85
-82 92 -14 4 -23 11 -20 17 8 12 36 4 90 -25z m-70 -10 c56 -24 83 -100 49
-142 -8 -10 -13 -13 -9 -6 5 11 -6 17 -27 13 -5 0 -8 4 -8 10 0 5 -4 7 -10 4
-5 -3 -10 1 -10 10 0 10 -4 13 -12 9 -19 -12 -48 -12 -48 0 0 6 -4 5 -9 -2 -7
-11 -9 -11 -14 2 -4 9 -13 13 -22 10 -8 -3 -12 -10 -9 -15 3 -5 -2 -9 -10 -9
-9 0 -16 4 -16 9 0 5 -9 7 -20 4 -11 -3 -20 -9 -20 -13 0 -4 -8 -7 -17 -7 -36
0 -43 -3 -43 -19 0 -8 -5 -12 -10 -9 -16 10 -33 -45 -19 -61 9 -11 8 -14 -1
-14 -6 0 -14 9 -17 20 -3 11 -14 20 -25 20 -12 0 -17 -4 -12 -12 4 -7 3 -8 -4
-4 -7 4 -12 24 -12 45 0 42 29 93 70 122 58 43 219 62 285 35z m-59 -172 c12
-30 17 -34 30 -23 8 6 18 8 22 4 4 -4 1 -10 -5 -12 -15 -6 -17 -49 -3 -58 6
-3 10 -15 10 -26 0 -11 7 -33 16 -50 11 -23 20 -29 35 -24 31 10 23 -22 -10
-39 -38 -20 -137 -35 -169 -27 -26 7 -43 31 -22 31 12 0 19 5 70 50 30 27 31
29 5 11 -16 -11 -37 -21 -45 -23 -15 -3 -92 75 -124 125 -35 57 9 96 112 97
63 0 63 0 78 -36z m-322 -65 c-1 -22 1 -52 6 -68 4 -15 4 -35 -1 -42 -7 -11
-9 -10 -9 4 0 10 -6 20 -13 23 -10 4 -11 20 -4 75 10 72 26 79 21 8z m41 -117
c-11 -11 -16 8 -20 74 l-4 69 14 -69 c8 -38 13 -72 10 -74z m423 55 c-2 -25
-8 -33 -27 -35 -29 -5 -52 15 -32 27 7 5 10 14 7 20 -4 6 -2 11 3 11 6 0 11 6
11 14 0 20 23 26 33 9 5 -7 7 -28 5 -46z m-712 -38 c14 -15 16 -24 8 -37 -16
-25 -36 -24 -68 2 l-29 24 29 16 c37 20 38 20 60 -5z m854 -49 c0 -5 -4 -10
-10 -10 -5 0 -10 5 -10 10 0 6 5 10 10 10 6 0 10 -4 10 -10z m-1008 -22 c-7
-7 -12 -8 -12 -2 0 14 12 26 19 19 2 -3 -1 -11 -7 -17z m1048 2 c0 -11 -7 -20
-15 -20 -17 0 -18 2 -9 24 9 23 24 20 24 -4z m-450 -3 c0 -38 100 -48 185 -18
30 11 55 16 55 11 0 -15 -99 -40 -155 -40 -38 0 -60 6 -79 21 -26 21 -34 39
-16 39 6 0 10 -6 10 -13z m498 -5 c2 -7 -3 -12 -12 -12 -9 0 -16 7 -16 16 0
17 22 14 28 -4z m-1063 -12 c3 -5 1 -10 -4 -10 -6 0 -11 5 -11 10 0 6 2 10 4
10 3 0 8 -4 11 -10z m85 -4 c0 -26 -42 -46 -95 -45 -27 1 -42 3 -32 6 9 2 15
9 12 14 -9 13 9 11 23 -3 9 -9 12 -9 12 0 0 7 7 12 16 12 8 0 13 4 9 9 -4 8 4
12 48 20 4 0 7 -5 7 -13z m900 -33 c0 -20 -18 -16 -30 7 -15 28 -1 49 17 25 7
-11 13 -25 13 -32z m58 16 c-2 -6 -8 -10 -13 -10 -5 0 -11 4 -13 10 -2 6 4 11
13 11 9 0 15 -5 13 -11z m47 1 c3 -5 1 -10 -4 -10 -6 0 -11 5 -11 10 0 6 2 10
4 10 3 0 8 -4 11 -10z m-331 -38 c-9 -20 -23 -32 -35 -32 -36 0 -108 22 -120
36 -10 12 -4 13 32 9 26 -3 63 0 89 8 25 8 46 14 48 12 1 -1 -5 -16 -14 -33z
m-834 19 c0 -7 -25 -11 -61 -11 -33 0 -58 3 -56 8 8 12 117 15 117 3z m1023
-42 c-6 -63 -16 -109 -22 -109 -4 0 -14 15 -23 33 -14 30 -14 34 6 69 23 41
42 45 39 7z m72 14 c-4 -10 -17 -43 -29 -74 -13 -34 -26 -54 -33 -52 -7 3 -13
11 -13 19 0 9 5 12 10 9 13 -8 40 54 40 90 0 16 6 25 16 25 12 0 14 -5 9 -17z
m-549 -28 c16 -12 17 -16 4 -24 -9 -6 -17 -6 -20 0 -4 5 -15 16 -26 24 -19 14
-19 14 2 15 11 0 29 -7 40 -15z m700 0 c16 -8 37 -15 46 -15 9 0 36 -19 60
-41 39 -38 41 -42 23 -49 -19 -7 -18 -8 6 -18 49 -19 75 -64 82 -137 4 -39 2
-75 -4 -86 -10 -20 -39 -26 -39 -9 0 6 -9 21 -20 33 -16 17 -33 22 -75 23 -30
1 -62 8 -71 15 -15 12 -17 12 -13 0 6 -17 20 -25 77 -42 45 -13 68 -31 30 -22
-14 3 -19 1 -12 -4 30 -23 25 -78 -6 -68 -23 7 -35 -11 -20 -30 7 -8 7 -15 1
-19 -5 -3 -11 0 -14 6 -3 10 -8 10 -18 -1 -11 -10 -11 -15 -1 -18 20 -8 14
-20 -10 -19 -19 1 -23 -4 -21 -28 2 -32 -16 -23 -21 10 -2 10 -9 20 -16 22 -9
3 -11 -1 -7 -12 7 -18 -13 -22 -30 -5 -11 11 -2 34 54 144 13 26 13 30 -1 41
-9 6 -16 22 -16 36 0 27 -45 94 -54 80 -3 -5 1 -15 9 -22 21 -17 19 -42 -2
-38 -12 2 -20 17 -25 47 -4 24 -12 49 -19 57 -10 12 -4 74 8 74 3 0 19 -12 37
-27 42 -35 81 -50 151 -58 70 -8 91 -18 100 -44 6 -19 35 -38 35 -23 0 4 -12
22 -27 40 -24 28 -36 33 -88 38 -84 8 -115 19 -157 59 -37 33 -45 56 -32 89 5
14 11 12 38 -10 17 -15 31 -32 31 -38 0 -12 91 -38 115 -33 8 2 -7 10 -33 17
-26 7 -52 21 -57 31 -6 10 -19 21 -31 24 -11 4 -19 9 -16 11 3 4 62 -20 110
-44 4 -2 7 1 7 8 0 6 -25 22 -55 36 -30 14 -55 27 -55 30 0 8 18 4 46 -11z
m-201 -35 c-4 -12 -9 -19 -12 -17 -3 3 -2 15 2 27 4 12 9 19 12 17 3 -3 2 -15
-2 -27z m-432 -19 c25 -20 9 -34 -19 -16 -19 12 -24 13 -24 2 0 -8 10 -19 23
-25 19 -9 19 -11 4 -11 -34 -2 -67 35 -58 63 3 9 60 0 74 -13z m352 -12 c4
-11 4 -32 0 -47 -6 -25 -6 -26 13 -9 10 9 26 17 34 17 16 0 33 -28 23 -38 -3
-3 -5 0 -5 6 0 23 -25 11 -43 -19 -11 -20 -22 -29 -32 -25 -13 4 -15 -10 -15
-89 0 -52 -3 -95 -7 -95 -5 0 -6 40 -5 89 4 83 3 89 -17 96 -13 4 -21 15 -21
29 0 12 -5 27 -12 34 -8 8 -9 12 -1 12 16 0 43 -29 43 -46 0 -8 9 -14 20 -14
11 0 20 5 20 11 0 5 -6 7 -12 3 -7 -4 -10 -3 -5 1 4 5 -2 19 -14 31 -20 21
-20 23 -4 48 21 31 31 33 40 5z m-210 -49 c3 -5 -1 -10 -9 -10 -8 0 -18 5 -21
10 -3 6 1 10 9 10 8 0 18 -4 21 -10z m-134 -37 c6 -18 12 -50 14 -71 2 -20 6
-45 10 -54 4 -9 5 -23 3 -32 -2 -12 -8 -10 -30 7 -24 20 -27 30 -30 103 -3 61
-1 81 9 81 7 0 18 -15 24 -34z m249 -3 c0 -10 10 -24 22 -32 19 -12 21 -23 20
-87 -2 -95 -25 -131 -83 -131 -37 0 -40 2 -34 23 4 12 16 32 27 44 15 16 19
31 15 55 -3 22 1 39 12 52 15 18 15 19 -14 12 -16 -4 -34 -12 -40 -18 -7 -8
-5 -9 8 -5 27 10 24 -69 -5 -100 -22 -23 -38 -30 -38 -15 0 4 10 12 23 17 35
16 34 57 -3 99 -38 42 -42 43 -55 14 -7 -16 -19 -23 -37 -23 -27 -1 -38 10
-18 17 5 2 6 18 0 43 -8 38 -8 39 7 18 10 -16 26 -23 46 -23 37 0 117 45 117
67 0 13 3 13 15 3 8 -7 15 -20 15 -30z m220 20 c0 -5 -4 -10 -10 -10 -5 0 -10
5 -10 10 0 6 5 10 10 10 6 0 10 -4 10 -10z m-75 -72 c-9 -99 -25 -121 -19 -28
6 80 10 100 20 100 4 0 3 -33 -1 -72z m-225 48 c0 -3 -4 -8 -10 -11 -5 -3 -10
-1 -10 4 0 6 5 11 10 11 6 0 10 -2 10 -4z m191 -123 c-2 -61 -7 -92 -17 -103
-12 -12 -14 -2 -14 81 0 60 4 99 12 107 6 6 14 10 16 7 3 -2 4 -44 3 -92z
m-999 57 c-6 -16 -11 -20 -16 -11 -4 6 -2 19 5 27 16 20 21 12 11 -16z m126
-5 c-3 -3 -9 2 -12 12 -6 14 -5 15 5 6 7 -7 10 -15 7 -18z m222 15 c0 -5 -5
-10 -11 -10 -5 0 -7 5 -4 10 3 6 8 10 11 10 2 0 4 -4 4 -10z m-307 -30 c4 -17
3 -19 -9 -9 -8 6 -14 18 -14 26 0 20 16 8 23 -17z m50 5 c-7 -21 -13 -19 -13
6 0 11 4 18 10 14 5 -3 7 -12 3 -20z m507 10 c0 -8 -2 -15 -4 -15 -2 0 -6 7
-10 15 -3 8 -1 15 4 15 6 0 10 -7 10 -15z m210 -72 c0 -31 -26 -40 -50 -18
-23 21 -24 24 -10 61 l11 27 24 -23 c14 -13 25 -34 25 -47z m339 20 c1 -7 -3
-13 -9 -13 -5 0 -10 15 -9 33 0 27 2 29 9 12 5 -11 9 -26 9 -32z m-75 -128
c-6 -68 -12 -85 -29 -78 -16 6 -20 105 -8 193 l6 45 18 -55 c12 -36 16 -72 13
-105z m-354 125 c0 -11 9 -29 21 -41 26 -26 19 -35 -10 -12 -22 18 -37 73 -20
73 5 0 9 -9 9 -20z m-700 -10 c0 -5 -4 -10 -10 -10 -5 0 -10 5 -10 10 0 6 5
10 10 10 6 0 10 -4 10 -10z m114 -30 c22 -33 31 -39 50 -34 18 4 25 1 28 -14
8 -30 -5 -43 -51 -49 -33 -5 -41 -3 -41 11 0 9 4 16 10 16 17 0 -28 85 -52 97
l-23 13 26 0 c20 0 33 -10 53 -40z m512 -16 c17 -39 11 -88 -9 -81 -11 3 -28
103 -18 113 8 8 12 4 27 -32z m-611 16 c4 -6 -5 -10 -20 -10 -15 0 -24 4 -20
10 3 6 12 10 20 10 8 0 17 -4 20 -10z m1189 -9 c10 -11 13 -21 7 -25 -5 -3
-17 -28 -26 -55 -8 -26 -27 -59 -42 -72 l-26 -24 7 55 c4 33 15 63 27 76 10
11 19 30 19 42 0 27 11 28 34 3z m-1125 -72 c8 -41 28 -98 47 -135 35 -66 37
-75 10 -48 -17 16 -41 10 -30 -8 4 -6 1 -9 -7 -6 -18 6 -57 216 -50 271 1 5 5
6 9 3 5 -3 14 -37 21 -77z m599 24 c2 -26 7 -50 12 -53 5 -3 14 -43 19 -90 13
-102 13 -103 2 -96 -5 3 -12 41 -16 84 -7 85 -11 95 -38 105 -15 5 -16 10 -7
27 6 11 10 26 9 33 -3 22 1 37 9 37 4 0 8 -21 10 -47z m-665 10 c-7 -2 -19 -2
-25 0 -7 3 -2 5 12 5 14 0 19 -2 13 -5z m724 -5 c6 -7 13 -52 16 -100 5 -73 3
-88 -8 -88 -16 0 -21 17 -30 108 -3 35 -9 70 -12 78 -6 17 21 19 34 2z m340
-55 c-2 -16 -4 -5 -4 22 0 28 2 40 4 28 2 -13 2 -35 0 -50z m-147 37 c17 -31
2 -70 -26 -70 -33 0 -40 23 -18 59 21 36 29 38 44 11z m187 -15 c-15 -32 -27
-32 -27 0 0 18 5 25 19 25 17 0 18 -3 8 -25z m-137 -4 c-5 -11 -10 -28 -10
-39 0 -11 -8 -26 -17 -33 -15 -13 -16 -11 -10 20 4 19 15 43 24 53 21 23 26
23 13 -1z m-963 3 c-3 -3 -12 -4 -19 -1 -8 3 -5 6 6 6 11 1 17 -2 13 -5z m750
-31 c-3 -10 -5 -4 -5 12 0 17 2 24 5 18 2 -7 2 -21 0 -30z m83 9 c0 -11 9 -27
20 -37 11 -10 20 -22 20 -27 0 -15 -19 -9 -39 13 -24 26 -33 69 -15 69 8 0 14
-8 14 -18z m-795 -84 c9 -51 19 -96 21 -100 2 -3 19 -3 37 2 29 9 30 8 13 -5
-20 -15 -79 -17 -70 -3 3 4 -14 11 -38 14 -34 6 -39 9 -23 16 14 5 10 6 -12 2
l-33 -6 20 44 c11 24 20 51 20 60 0 30 19 68 34 68 10 0 19 -27 31 -92z m145
88 c0 -15 -14 -35 -21 -30 -15 9 -10 34 6 34 8 0 15 -2 15 -4z m619 -29 c11
-32 29 -46 74 -61 12 -4 17 -14 15 -28 -4 -32 -32 -33 -48 -2 l-14 26 -22 -27
-21 -27 -7 48 c-13 100 0 141 23 71z m180 -4 c0 -31 -2 -34 -9 -18 -12 28 -12
55 0 55 6 0 10 -17 9 -37z m-764 7 c-3 -5 -12 -10 -18 -10 -7 0 -6 4 3 10 19
12 23 12 15 0z m398 -97 c3 -24 2 -43 -2 -43 -10 0 -31 77 -30 112 l1 33 12
-30 c8 -16 16 -49 19 -72z m471 71 c9 -25 7 -62 -5 -69 -22 -14 -52 58 -32 78
11 12 31 7 37 -9z m-441 -56 c3 -21 1 -38 -4 -38 -5 0 -9 13 -9 29 0 16 -3 38
-6 48 -5 12 -4 15 4 8 5 -5 12 -27 15 -47z m312 -16 c0 -55 -8 -82 -24 -82 -9
0 -5 115 4 130 14 22 20 7 20 -48z m67 -10 c-15 -11 -19 -9 -30 18 -18 45 -4
59 25 24 22 -27 22 -30 5 -42z m-115 -29 c-2 -16 -4 -3 -4 27 0 30 2 43 4 28
2 -16 2 -40 0 -55z m247 38 c7 -11 -13 -71 -24 -71 -5 0 -12 -9 -15 -20 -3
-11 -14 -20 -24 -20 -10 0 -24 -7 -31 -15 -7 -9 -15 -13 -18 -10 -3 3 3 14 13
25 10 11 13 20 7 20 -6 0 -18 -10 -26 -22 -18 -25 -21 -17 -6 13 7 12 7 19 1
19 -6 0 -16 -10 -22 -22 -8 -15 -14 -19 -17 -10 -2 7 6 24 19 38 27 29 17 32
-18 4 -15 -11 -29 -18 -32 -15 -3 4 10 18 28 33 56 45 151 76 165 53z m-316
-23 c16 -16 15 -58 0 -59 -7 -1 -22 0 -33 1 -17 2 -17 0 -5 -14 11 -15 9 -14
-18 1 -17 10 -36 28 -41 41 -14 31 -14 32 8 32 12 0 21 -8 23 -22 2 -12 9 -23
16 -26 7 -2 10 2 6 12 -6 16 11 46 25 46 4 0 12 -5 19 -12z m139 -10 c-3 -8
-6 -5 -6 6 -1 11 2 17 5 13 3 -3 4 -12 1 -19z m-87 -43 c0 -50 -19 -68 -44
-42 -13 12 -12 16 5 30 10 9 19 26 19 37 0 11 5 20 10 20 6 0 10 -20 10 -45z
m-900 4 c9 -5 1 -6 -20 -2 -19 3 -42 10 -50 14 -9 5 -1 6 20 2 19 -3 42 -10
50 -14z m754 -28 c-7 -9 -24 13 -24 32 0 21 1 21 13 -3 8 -14 12 -27 11 -29z
m211 -30 c-10 -16 -25 -3 -25 22 0 20 1 20 16 5 9 -9 13 -21 9 -27z m-265 -6
c27 -13 51 -29 55 -35 3 -5 15 -10 26 -10 21 0 26 -16 7 -22 -6 -2 -9 -12 -5
-21 7 -20 47 -23 65 -5 6 6 14 10 16 7 2 -2 2 -43 -1 -91 -4 -65 -9 -88 -19
-88 -8 0 -15 12 -16 28 -1 15 -3 38 -4 52 -1 14 -3 36 -3 49 -1 19 -4 21 -16
11 -16 -13 -35 -6 -35 15 0 13 -29 29 -37 21 -3 -3 7 -17 21 -33 17 -18 25
-35 22 -48 -4 -17 -2 -16 14 5 18 23 20 24 20 5 0 -12 -4 -25 -9 -30 -5 -6
-11 -19 -13 -30 -4 -18 -6 -17 -18 7 -7 16 -18 24 -26 21 -8 -3 -21 0 -29 7
-11 9 -12 17 -3 33 13 25 19 119 7 111 -5 -3 -9 -12 -9 -21 0 -31 -23 -93 -36
-93 -19 0 -23 -24 -8 -51 19 -34 17 -41 -8 -37 -19 2 -23 9 -22 36 2 38 -2 39
-33 10 -13 -12 -25 -19 -28 -16 -7 7 33 134 56 180 23 45 24 52 3 44 -8 -3
-12 -2 -9 4 9 15 21 13 75 -15z m213 -40 c-3 -9 -8 -14 -10 -11 -3 3 -2 9 2
15 9 16 15 13 8 -4z m-363 -50 c-7 -9 -15 -13 -18 -10 -3 2 1 11 8 20 7 9 15
13 18 10 3 -2 -1 -11 -8 -20z m381 7 c-7 -2 -18 1 -23 6 -8 8 -4 9 13 5 13 -4
18 -8 10 -11z m49 9 c0 -6 -4 -13 -10 -16 -5 -3 -10 1 -10 9 0 9 5 16 10 16 6
0 10 -4 10 -9z m60 -6 c0 -19 -11 -19 -36 0 -18 14 -18 14 9 15 17 0 27 -5 27
-15z m80 -25 c0 -13 -1 -13 -10 0 -5 8 -10 22 -10 30 0 13 1 13 10 0 5 -8 10
-22 10 -30z m-32 10 c14 -23 8 -40 -14 -40 -17 0 -28 24 -20 45 8 21 19 19 34
-5z m-133 -47 c3 -27 8 -66 10 -88 l5 -40 -25 28 c-13 15 -29 27 -35 27 -11 0
-13 41 -4 89 4 21 12 31 25 31 14 0 19 -10 24 -47z m-67 -35 c-9 -77 -18 -101
-18 -51 0 47 12 123 20 123 3 0 3 -32 -2 -72z m136 62 c24 -9 38 -50 18 -50
-9 0 -33 25 -46 48 -9 15 -5 15 28 2z m-47 -32 c-3 -7 -5 -2 -5 12 0 14 2 19
5 13 2 -7 2 -19 0 -25z m144 0 c-5 -13 -16 -25 -25 -26 -17 -4 -17 -2 -1 22
21 32 37 34 26 4z m-629 -38 c-16 -25 -21 -28 -26 -14 -6 16 7 40 29 56 18 13
16 -9 -3 -42z m662 14 c10 -25 -1 -29 -14 -5 -6 12 -7 21 -1 21 5 0 12 -7 15
-16z m-107 -41 c10 -25 16 -64 15 -110 -1 -62 1 -73 17 -78 13 -4 17 -12 14
-25 -6 -23 18 -28 35 -7 8 9 2 18 -24 36 -19 13 -34 32 -34 42 0 26 27 24 35
-2 5 -16 9 -18 15 -9 8 13 25 -18 45 -79 6 -21 5 -23 -23 -17 -24 6 -32 3 -46
-19 -27 -41 -54 -33 -68 22 -9 39 -13 44 -20 27 -7 -15 -7 -14 -3 6 2 14 5 39
6 55 1 20 6 7 16 -37 9 -38 20 -68 25 -68 5 0 7 8 4 18 -2 9 -10 50 -17 90 -8
39 -17 72 -22 72 -5 0 -7 9 -4 20 3 13 0 20 -9 20 -15 0 -29 42 -21 62 3 7 6
4 6 -7 1 -11 6 -27 12 -35 8 -11 9 -6 7 23 -3 26 0 37 10 37 7 0 20 -17 29
-37z m78 18 c7 -12 -12 -24 -25 -16 -11 7 -4 25 10 25 5 0 11 -4 15 -9z m-399
-49 c-9 -8 -26 10 -26 26 1 15 2 15 15 -2 8 -11 13 -21 11 -24z m-272 -4 c-4
-28 -3 -30 5 -10 6 12 18 22 27 22 13 0 15 -6 9 -27 -3 -14 -13 -36 -21 -47
-12 -18 -14 -19 -14 -3 0 14 -5 17 -20 12 -25 -8 -26 12 -2 54 9 17 18 31 19
31 1 0 0 -15 -3 -32z m170 -40 c-3 -10 -1 -18 5 -18 6 0 11 6 11 14 0 16 18
31 27 22 3 -3 -2 -21 -11 -41 -18 -38 -43 -46 -53 -17 -4 9 -15 23 -25 30 -25
18 -23 48 5 67 21 15 23 14 34 -12 7 -15 10 -36 7 -45z m554 55 c2 -8 -5 -13
-17 -13 -21 0 -35 13 -24 24 10 10 36 3 41 -11z m-632 -18 c-4 -14 -2 -34 4
-45 11 -21 1 -33 -18 -21 -15 9 -5 91 10 91 6 0 7 -11 4 -25z m630 -80 c29
-63 34 -100 14 -100 -13 0 -22 24 -37 98 -3 15 -11 27 -18 27 -8 0 -17 10 -20
23 -4 12 -9 30 -12 40 -9 35 49 -36 73 -88z m-83 75 c3 -11 2 -22 -3 -25 -4
-3 -10 6 -12 20 -6 30 7 34 15 5z m-265 -87 c7 -43 12 -93 12 -110 0 -18 4
-33 8 -33 5 0 6 28 4 63 -3 41 -1 59 6 52 11 -12 22 -136 11 -129 -5 2 -24 5
-44 6 -19 1 -35 2 -35 2 0 1 4 16 9 34 7 24 6 32 -3 32 -9 0 -15 25 -19 82 -6
92 -4 102 22 89 12 -7 21 -32 29 -88z m116 63 c9 -19 16 -40 16 -48 1 -8 4 -7
11 5 5 9 8 21 4 26 -3 5 -1 12 4 15 11 7 22 -30 15 -49 -8 -21 -27 -24 -62 -9
-39 16 -49 37 -34 70 16 33 27 30 46 -10z m-220 16 c2 -4 8 -41 12 -81 5 -57
4 -72 -5 -66 -7 4 -11 16 -8 26 8 29 -11 33 -34 7 l-20 -23 5 57 c3 31 9 63
12 72 6 17 29 22 38 8z m45 -120 c1 -18 -3 -31 -7 -28 -5 3 -9 40 -9 83 -1 73
0 75 7 28 5 -27 9 -65 9 -83z m-365 93 c-4 -15 -2 -25 5 -25 17 0 13 -25 -8
-44 -12 -11 -21 -14 -26 -7 -3 6 -1 11 5 11 8 0 10 9 6 25 -4 14 -2 34 4 45
15 28 22 25 14 -5z m102 -22 c-6 -86 -43 -152 -60 -108 -4 12 51 145 60 145 1
0 1 -17 0 -37z m364 11 c0 -9 11 -27 25 -40 35 -32 32 -48 -5 -29 -33 17 -54
49 -46 71 7 19 26 18 26 -2z m348 -12 c2 -7 -3 -12 -12 -12 -9 0 -16 7 -16 16
0 17 22 14 28 -4z m-774 -56 c-5 -21 -9 -24 -19 -16 -11 9 -11 15 3 30 20 24
25 20 16 -14z m103 -8 c-9 -53 -25 -88 -42 -88 -20 0 -21 59 0 66 8 4 15 14
15 23 0 20 8 31 23 31 5 0 7 -15 4 -32z m113 7 c0 -18 -7 -28 -25 -35 -27 -10
-30 -24 -15 -64 11 -30 -3 -35 -32 -12 -22 16 -22 34 -2 85 12 30 22 41 42 44
15 2 28 5 30 6 1 0 2 -10 2 -24z m320 -55 c0 -14 3 -35 6 -48 5 -19 9 -20 22
-10 13 11 14 10 10 -2 -3 -11 -22 -16 -66 -17 l-62 -3 2 58 c1 53 2 54 5 12 4
-46 23 -82 23 -44 0 16 2 17 10 4 7 -11 10 -6 11 20 l1 35 9 -32 c5 -18 14
-33 20 -33 6 0 8 7 5 16 -3 9 -9 34 -12 57 -4 31 -3 38 5 27 6 -8 11 -26 11
-40z m-415 13 c-3 -16 -11 -32 -16 -37 -5 -6 -4 5 1 25 6 18 10 35 10 36 0 2
3 3 6 3 3 0 3 -12 -1 -27z m-129 -18 c19 -18 34 -38 34 -43 0 -16 175 -44 270
-44 30 0 117 0 193 0 110 0 143 4 163 17 26 17 24 19 40 -33 2 -8 -3 -12 -14
-11 -9 2 -33 -2 -52 -9 -39 -13 -58 -13 -255 -8 -84 2 -164 10 -200 20 -32 9
-76 16 -97 16 -41 0 -103 43 -94 65 2 6 -5 17 -15 23 -18 11 -27 42 -13 42 4
0 22 -16 40 -35z m283 4 c16 -37 2 -61 -27 -43 -22 14 -27 41 -12 59 18 21 23
19 39 -16z m198 -16 c-3 -10 -5 -4 -5 12 0 17 2 24 5 18 2 -7 2 -21 0 -30z
m-267 -8 c0 -8 8 -19 18 -24 9 -6 12 -11 5 -11 -16 0 -43 28 -43 46 0 8 5 12
10 9 6 -3 10 -12 10 -20z m130 -10 c0 -21 -24 -45 -44 -45 -11 0 -6 26 10 48
20 29 34 28 34 -3z m448 3 c4 -20 -29 -33 -39 -16 -9 15 9 40 25 35 6 -2 12
-11 14 -19z m-51 -52 c-4 -9 -11 -16 -17 -16 -17 0 -24 31 -9 41 18 11 34 -5
26 -25z m-588 -42 c36 -9 70 -20 75 -24 5 -5 -21 -66 -58 -139 -64 -126 -66
-133 -64 -198 2 -105 -24 -137 -125 -149 -66 -8 -63 -14 -40 96 8 41 15 92 14
113 0 21 8 65 19 98 11 32 20 70 20 83 0 14 5 47 11 75 10 50 16 55 68 60 8 0
44 -6 80 -15z m465 -140 c-20 -65 -45 -132 -55 -149 -18 -31 -32 -175 -17
-175 15 0 8 -41 -7 -47 -20 -7 -102 24 -126 48 -26 26 -24 64 6 128 17 35 23
61 18 75 -6 19 -8 18 -14 -9 -6 -25 -7 -22 -8 20 -1 28 -8 81 -16 120 -8 38
-15 81 -15 94 0 22 3 23 38 17 88 -16 148 -17 187 -3 22 8 41 11 43 6 2 -4
-14 -60 -34 -125z m-534 -408 c-24 -73 -80 -87 -80 -20 0 24 -4 34 -12 32 -11
-4 -21 -25 -34 -75 -5 -19 -73 -17 -80 2 -4 8 -3 31 0 50 l7 35 57 1 c31 0 77
6 102 12 25 7 46 9 48 5 2 -4 -1 -23 -8 -42z m630 -8 c88 -31 230 -58 300 -57
60 0 84 3 176 24 l32 7 1 -81 1 -81 -82 -2 -83 -2 83 -3 c66 -3 82 -7 82 -19
0 -14 -17 -15 -147 -9 -82 4 -235 8 -340 8 -106 0 -193 4 -193 8 0 5 109 9
243 10 248 1 251 2 112 33 -33 8 -97 24 -143 36 -55 14 -104 21 -143 18 -32
-1 -59 0 -59 5 0 16 42 47 64 47 14 0 82 -13 151 -30 124 -29 164 -36 153 -24
-8 8 -233 62 -290 70 -49 7 -52 11 -42 51 7 26 30 24 124 -9z m-196 -98 c15 0
18 -5 13 -32 -3 -18 -6 -37 -8 -43 -2 -5 1 -36 5 -68 7 -53 11 -59 52 -87 24
-17 44 -35 44 -40 0 -5 14 -25 30 -43 17 -19 30 -38 30 -41 0 -11 -101 1 -148
17 -24 9 -51 26 -60 38 -9 13 -25 32 -36 43 -17 17 -21 35 -22 93 -1 46 2 73
9 73 5 0 3 8 -5 18 -9 9 -13 22 -11 29 2 6 -3 25 -11 42 -31 58 -22 65 42 31
31 -16 65 -30 76 -30z m262 -51 c36 -11 84 -24 107 -29 29 -5 -19 -8 -149 -9
-105 -1 -193 2 -196 5 -11 11 5 46 26 55 30 13 134 2 212 -22z m-966 -100 c-7
-11 -28 -27 -48 -35 -20 -8 -49 -21 -64 -29 -14 -8 -33 -15 -43 -15 -22 0 -75
-28 -75 -40 0 -17 75 -23 160 -13 55 7 106 8 144 2 75 -12 83 -5 89 81 l4 65
211 3 212 3 0 -61 c0 -59 1 -62 48 -110 31 -31 61 -52 87 -59 48 -12 152 -17
162 -8 4 4 -3 20 -15 35 -12 15 -33 44 -47 64 -13 20 -38 44 -54 54 -27 16
-41 39 -41 72 0 10 47 13 228 12 125 -1 278 -4 340 -7 l112 -6 0 -170 0 -169
-26 6 c-30 8 -1100 9 -1424 2 -217 -5 -615 4 -622 14 -2 3 -2 76 0 162 l3 157
27 4 c15 2 166 5 335 6 l308 1 -11 -21z m379 -343 c559 -1 1022 -5 1029 -9 8
-6 12 -42 12 -122 l0 -113 -72 -4 c-129 -6 -1996 0 -2007 6 -6 4 -9 51 -7 129
2 67 4 123 5 125 0 2 6 0 13 -4 6 -4 469 -8 1027 -8z"/>
<path d="M648 2363 c6 -2 18 -2 25 0 6 3 1 5 -13 5 -14 0 -19 -2 -12 -5z"/>
<path d="M483 1003 c9 -2 23 -2 30 0 6 3 -1 5 -18 5 -16 0 -22 -2 -12 -5z"/>
<path d="M585 997 c28 -8 69 -23 92 -35 23 -12 48 -22 55 -22 27 1 -112 60
-153 65 l-44 5 50 -13z"/>
<path d="M418 993 c6 -2 18 -2 25 0 6 3 1 5 -13 5 -14 0 -19 -2 -12 -5z"/>
<path d="M318 973 c7 -3 16 -2 19 1 4 3 -2 6 -13 5 -11 0 -14 -3 -6 -6z"/>
<path d="M1950 960 c-59 -25 -40 -25 30 0 30 11 46 19 35 19 -11 0 -40 -9 -65
-19z"/>
<path d="M268 963 c6 -2 18 -2 25 0 6 3 1 5 -13 5 -14 0 -19 -2 -12 -5z"/>
<path d="M228 953 c7 -3 16 -2 19 1 4 3 -2 6 -13 5 -11 0 -14 -3 -6 -6z"/>
<path d="M1590 940 c36 -10 66 -17 68 -15 5 5 -98 35 -117 34 -9 0 13 -9 49
-19z"/>
<path d="M148 943 c12 -2 32 -2 45 0 12 2 2 4 -23 4 -25 0 -35 -2 -22 -4z"/>
<path d="M1160 940 c-9 -6 -10 -10 -3 -10 6 0 15 5 18 10 8 12 4 12 -15 0z"/>
<path d="M1863 933 c9 -2 23 -2 30 0 6 3 -1 5 -18 5 -16 0 -22 -2 -12 -5z"/>
<path d="M1098 923 c6 -2 18 -2 25 0 6 3 1 5 -13 5 -14 0 -19 -2 -12 -5z"/>
<path d="M1678 913 c6 -2 18 -2 25 0 6 3 1 5 -13 5 -14 0 -19 -2 -12 -5z"/>
<path d="M1743 903 c9 -2 23 -2 30 0 6 3 -1 5 -18 5 -16 0 -22 -2 -12 -5z"/>
<path d="M1858 903 c12 -2 30 -2 40 0 9 3 -1 5 -23 4 -22 0 -30 -2 -17 -4z"/>
<path d="M343 893 c9 -2 25 -2 35 0 9 3 1 5 -18 5 -19 0 -27 -2 -17 -5z"/>
<path d="M203 873 c15 -2 37 -2 50 0 12 2 0 4 -28 4 -27 0 -38 -2 -22 -4z"/>
<path d="M148 863 c7 -3 16 -2 19 1 4 3 -2 6 -13 5 -11 0 -14 -3 -6 -6z"/>
<path d="M88 853 c7 -3 16 -2 19 1 4 3 -2 6 -13 5 -11 0 -14 -3 -6 -6z"/>
<path d="M1020 833 l-35 -14 35 6 c19 3 39 10 44 15 13 13 0 11 -44 -7z"/>
<path d="M225 831 c-13 -5 11 -8 65 -7 79 1 90 -2 165 -38 84 -41 283 -87 249
-58 -5 5 -46 14 -92 20 -63 9 -98 20 -149 48 -57 33 -76 38 -142 41 -42 1 -85
-1 -96 -6z"/>
<path d="M553 683 c9 -2 23 -2 30 0 6 3 -1 5 -18 5 -16 0 -22 -2 -12 -5z"/>
<path d="M1404 2832 c-5 -31 -9 -64 -9 -73 0 -9 -9 -28 -19 -43 -10 -15 -15
-30 -13 -33 3 -2 14 8 24 23 19 29 45 172 32 179 -4 3 -10 -21 -15 -53z"/>
<path d="M1033 3163 c-17 -6 -16 -30 1 -36 18 -7 36 11 29 29 -5 15 -10 16
-30 7z"/>
<path d="M1115 3026 c-18 -13 -18 -14 8 -9 15 3 27 9 27 14 0 13 -13 11 -35
-5z"/>
<path d="M1023 3003 c18 -5 24 -23 7 -23 -5 0 -10 -4 -10 -10 0 -14 27 -12 33
3 3 7 9 2 15 -13 6 -14 11 -18 11 -10 1 26 -29 60 -52 59 -17 -1 -18 -2 -4 -6z"/>
<path d="M1115 3000 c-3 -5 3 -10 14 -10 12 0 21 5 21 10 0 6 -6 10 -14 10 -8
0 -18 -4 -21 -10z"/>
<path d="M1112 2893 c-19 -4 -21 -7 -11 -19 6 -8 16 -14 22 -14 6 0 7 3 3 7
-3 4 4 13 16 20 23 12 14 14 -30 6z"/>
<path d="M580 2855 c-10 -12 -9 -16 5 -21 23 -9 40 10 22 25 -11 9 -17 8 -27
-4z"/>
<path d="M1580 2640 c0 -9 31 -30 44 -30 3 0 -2 9 -11 20 -19 21 -33 26 -33
10z"/>
<path d="M1081 1925 c-12 -26 -21 -55 -21 -64 0 -9 11 11 25 43 29 71 26 88
-4 21z"/>
<path d="M2000 784 c-19 -7 -71 -13 -114 -13 -44 -1 -76 -4 -73 -7 13 -13 154
-3 212 16 33 10 49 19 35 18 -14 0 -41 -6 -60 -14z"/>
<path d="M1952 606 c-8 -17 -20 -26 -43 -28 -46 -4 -47 -24 -2 -36 l38 -10
-32 -1 c-35 -1 -53 -18 -29 -27 20 -8 21 -24 1 -24 -9 0 -15 -9 -15 -22 1 -20
2 -21 13 -7 14 19 63 46 53 30 -4 -6 -2 -11 3 -11 6 0 11 -21 11 -50 0 -27 5
-50 10 -50 6 0 10 23 10 50 0 50 0 50 33 51 l32 1 -30 8 c-30 8 -30 8 8 9 25
1 36 -3 31 -10 -4 -7 1 -10 12 -7 35 6 13 23 -36 26 -27 2 -50 8 -50 14 0 7
17 9 48 6 44 -5 45 -5 18 7 -20 8 -25 14 -15 18 8 3 -1 6 -18 6 -18 1 -33 5
-33 10 0 6 17 7 38 5 28 -4 33 -3 22 5 -8 6 -25 11 -37 11 -14 0 -23 6 -23 15
0 9 9 15 23 14 21 0 21 -1 2 -9 -18 -8 -17 -9 8 -9 41 -1 33 33 -9 37 -24 2
-33 -2 -42 -22z m-12 -46 c0 -5 -4 -10 -9 -10 -6 0 -13 5 -16 10 -3 6 1 10 9
10 9 0 16 -4 16 -10z m0 -50 c0 -5 -6 -10 -14 -10 -8 0 -18 5 -21 10 -3 6 3
10 14 10 12 0 21 -4 21 -10z"/>
<path d="M80 220 c-24 -5 -25 -9 -25 -73 0 -61 2 -67 21 -67 17 0 20 5 16 30
-4 27 -1 31 27 36 36 7 54 26 49 51 -4 19 -49 32 -88 23z m48 -32 c-5 -34 -38
-37 -38 -4 0 20 5 26 21 26 15 0 20 -5 17 -22z"/>
<path d="M181 163 c-7 -32 -15 -64 -18 -70 -3 -8 4 -13 18 -13 17 0 20 3 12
11 -18 18 5 59 33 59 29 0 58 -38 42 -57 -8 -10 -4 -13 19 -13 l30 0 -24 53
c-37 80 -38 82 -69 85 -29 3 -30 1 -43 -55z m59 3 c-15 -15 -34 9 -26 31 7 17
8 17 22 -1 9 -13 11 -23 4 -30z"/>
<path d="M340 198 c-43 -46 -10 -118 53 -118 29 0 35 4 39 24 4 18 0 26 -16
30 -25 7 -35 -2 -16 -14 23 -14 3 -24 -24 -12 -48 22 -35 99 17 95 15 -1 27 2
27 8 0 18 -59 9 -80 -13z"/>
<path d="M460 152 c0 -38 2 -71 5 -73 2 -3 20 -3 40 -1 26 3 35 9 35 23 0 17
-3 17 -20 7 -24 -15 -44 0 -34 26 4 11 13 15 25 11 14 -5 19 -1 19 14 0 24
-10 27 -28 9 -9 -9 -12 -7 -12 9 0 27 17 38 35 23 7 -6 16 -7 19 -2 9 15 -5
22 -46 22 l-38 0 0 -68z"/>
<path d="M1034 210 c-26 -10 -54 -48 -54 -73 0 -30 45 -67 82 -67 18 0 40 5
48 11 12 9 10 10 -9 6 -74 -17 -121 86 -49 109 14 4 25 1 33 -10 16 -22 35
-20 35 3 0 27 -45 38 -86 21z"/>
<path d="M1160 211 c0 -6 5 -13 10 -16 6 -3 10 -25 10 -49 0 -58 24 -80 78
-71 l39 6 -3 60 c-2 36 0 59 7 59 5 0 7 5 4 10 -3 6 -21 10 -38 10 -29 -1 -30
-2 -14 -14 23 -18 24 -104 1 -113 -31 -12 -49 11 -49 63 0 27 -4 52 -10 56
-14 11 -35 10 -35 -1z"/>
<path d="M1352 150 c3 -63 5 -70 23 -70 16 0 20 7 20 32 0 25 5 33 24 38 29 7
46 31 38 54 -5 12 -19 16 -57 16 l-50 0 2 -70z m73 35 c0 -11 -8 -21 -17 -23
-14 -3 -18 3 -18 23 0 20 4 26 18 23 9 -2 17 -12 17 -23z"/>
<path d="M1506 207 c-27 -20 -16 -51 19 -57 24 -4 31 -11 33 -33 3 -22 -1 -27
-17 -27 -12 0 -30 6 -41 13 -17 10 -22 9 -30 -3 -8 -12 -1 -17 32 -23 60 -13
88 3 88 48 0 32 -2 35 -30 35 -31 0 -48 19 -35 40 5 8 13 6 25 -5 13 -12 20
-13 25 -5 16 26 -39 39 -69 17z"/>
<path d="M757 187 c-15 -11 -15 -16 3 -56 23 -50 25 -77 8 -84 -8 -4 -7 -6 3
-6 24 -1 42 25 35 53 -4 16 -1 26 9 30 22 8 7 39 -16 33 -22 -6 -37 12 -19 23
7 4 8 10 3 13 -6 4 -17 1 -26 -6z"/>
<path d="M692 131 c-25 -16 -10 -46 23 -46 25 0 30 4 30 25 0 27 -28 38 -53
21z m38 -21 c0 -5 -4 -10 -10 -10 -5 0 -10 5 -10 10 0 6 5 10 10 10 6 0 10 -4
10 -10z"/>
<path d="M1661 96 c-9 -11 -8 -15 5 -20 20 -8 39 7 30 23 -10 15 -21 14 -35
-3z"/>
</g>
</svg>
