<?xml version="1.0" standalone="no"?>
<!DOCTYPE svg PUBLIC "-//W3C//DTD SVG 20010904//EN"
 "http://www.w3.org/TR/2001/REC-SVG-20010904/DTD/svg10.dtd">
<svg version="1.0" xmlns="http://www.w3.org/2000/svg"
 width="222.000000pt" height="379.000000pt" viewBox="0 0 222.000000 379.000000"
 preserveAspectRatio="xMidYMid meet">
<metadata>
Created by potrace 1.16, written by Peter Selinger 2001-2019
</metadata>
<g transform="translate(0.000000,379.000000) scale(0.100000,-0.100000)"
fill="#000000" stroke="none">
<path d="M46 3758 c-7 -47 -16 -866 -22 -2178 -3 -624 -7 -1231 -7 -1348 l-2
-212 25 -1 c180 -5 449 -8 1227 -13 l923 -7 1 58 c3 151 7 823 14 2216 l7
1517 -28 0 c-20 0 -25 -3 -16 -9 11 -7 14 -159 15 -825 l2 -818 -25 -20 -24
-20 -10 24 c-38 95 -63 148 -85 178 -26 37 -127 109 -164 117 -13 2 -7 -4 16
-17 44 -24 47 -35 10 -45 -43 -10 -88 -50 -112 -97 -11 -24 -21 -36 -21 -27 0
30 29 99 56 134 15 20 24 38 21 42 -13 12 -87 -48 -107 -87 -11 -22 -23 -40
-25 -40 -8 0 25 62 43 83 26 30 3 32 -28 2 -29 -28 -41 -53 -18 -39 7 4 8 3 4
-5 -4 -6 -11 -9 -16 -6 -5 3 -12 -5 -16 -19 -7 -30 -34 -57 -34 -35 0 17 47
107 68 132 8 9 13 20 10 23 -4 3 -20 -15 -38 -40 -32 -48 -49 -62 -30 -25 19
35 4 32 -18 -3 -11 -18 -26 -61 -33 -95 -14 -66 -30 -86 -24 -30 6 63 26 116
55 147 33 36 34 49 2 29 -31 -19 -62 -82 -69 -139 -9 -74 -19 -69 -18 8 1 46
-4 80 -17 109 -25 56 -33 133 -19 173 6 18 8 37 4 44 -14 21 -11 39 9 67 18
24 20 33 10 54 -8 17 -20 25 -37 25 -23 0 -24 -2 -15 -21 7 -11 9 -27 6 -35
-3 -8 -1 -14 4 -14 6 0 10 15 11 33 0 30 1 31 11 9 9 -19 7 -26 -12 -47 -13
-14 -20 -31 -17 -39 4 -11 0 -16 -11 -17 -13 0 -12 -3 6 -11 30 -15 28 -28 -5
-29 -24 -2 -25 -2 -5 -6 12 -2 22 -9 22 -14 0 -5 -10 -10 -22 -10 -17 -1 -19
-2 -5 -6 25 -6 21 -23 -5 -24 -13 0 -17 -3 -10 -6 26 -10 10 -23 -28 -23 -27
0 -43 5 -46 15 -4 8 -10 13 -14 10 -5 -3 -12 0 -16 6 -5 8 -9 8 -14 -1 -5 -7
-9 0 -12 19 -4 27 2 37 49 81 39 36 53 45 53 32 0 -10 -5 -23 -12 -30 -9 -9
-7 -12 8 -12 17 0 20 5 16 30 -3 23 0 30 12 30 12 0 14 7 9 33 -8 43 -13 47
-13 9 0 -18 -5 -32 -10 -32 -17 0 -24 31 -12 51 6 9 8 19 4 21 -4 2 -15 27
-24 57 -10 32 -12 49 -6 43 18 -18 28 -14 28 8 0 15 -7 20 -25 20 -14 0 -29 8
-35 19 -15 28 -13 31 18 32 26 0 26 1 5 9 -13 5 -23 12 -23 14 0 3 7 3 15 0
10 -4 15 0 15 15 0 18 6 21 40 21 30 0 40 -4 40 -16 0 -14 9 -15 63 -10 68 6
66 1 -4 -13 l-44 -9 43 -1 c52 -1 56 -20 5 -23 l-38 -1 33 -4 c41 -5 37 -29
-4 -26 l-29 3 25 -11 c14 -6 20 -13 13 -16 -7 -2 -9 -11 -6 -19 6 -16 -12 -19
-22 -4 -11 18 -26 10 -20 -10 5 -17 2 -20 -22 -21 -15 0 -22 -3 -15 -6 9 -4
10 -9 2 -18 -8 -10 -3 -14 24 -17 l34 -4 61 126 c34 69 61 133 61 142 0 10 -9
22 -19 28 -25 13 -42 13 -18 -1 9 -5 17 -17 17 -24 0 -8 -8 -15 -17 -15 -15 0
-16 2 -3 10 13 8 12 10 -2 10 -10 0 -18 -6 -18 -14 0 -19 -87 -27 -170 -17
-60 8 -51 16 13 11 17 -1 34 5 41 16 9 12 19 15 32 10 10 -4 21 -7 23 -6 2 1
7 -3 11 -9 8 -14 40 -4 40 12 0 6 -3 7 -7 4 -3 -4 -12 -2 -20 4 -11 10 -97 9
-222 -1 -2 0 -1 -9 2 -21 4 -17 3 -18 -9 -8 -18 15 -1 39 30 39 11 0 28 5 36
10 10 6 2 7 -25 3 -71 -11 -82 -36 -42 -101 26 -42 87 -185 87 -204 0 -7 -9
-19 -20 -26 -26 -16 -26 -44 0 -67 20 -18 20 -18 -22 -54 -23 -20 -50 -39 -60
-43 -14 -6 -18 -18 -18 -54 0 -26 -3 -44 -7 -41 -3 4 -12 2 -20 -4 -10 -9 -13
-7 -13 12 0 26 -15 16 -23 -16 -5 -19 -5 -19 -12 3 -9 28 -22 28 -28 0 -4 -23
-4 -23 -6 1 -1 16 -5 21 -16 17 -8 -3 -15 -1 -15 4 0 5 -6 7 -14 4 -18 -7 -28
9 -20 30 4 10 19 16 43 17 20 0 56 4 81 9 36 7 30 8 -32 4 -110 -7 -111 -6
-168 141 -35 89 -83 166 -129 205 -51 43 -56 80 -11 80 20 0 33 7 41 22 10 18
8 24 -10 39 l-22 18 20 18 c15 12 19 24 14 42 -8 35 -22 49 -16 17 6 -28 -15
-56 -41 -56 -9 0 -16 -5 -16 -11 0 -5 4 -8 9 -4 5 3 12 1 16 -5 12 -20 -25
-22 -75 -4 -47 17 -66 34 -37 34 15 0 44 32 59 66 13 27 36 32 45 9 4 -12 9
-9 20 12 9 18 11 29 4 31 -13 4 -4 22 11 22 6 0 8 -11 6 -25 -7 -33 1 -31 37
12 l29 35 -27 20 c-22 16 -25 23 -16 39 13 25 -21 76 -55 85 -13 3 -28 17 -35
30 -6 13 -23 30 -37 36 -25 12 -29 10 -68 -34 -43 -48 -106 -74 -106 -42 0 8
-7 17 -15 20 -10 4 -14 20 -12 56 2 39 -2 53 -17 64 -32 23 -41 16 -16 -11 20
-21 22 -29 13 -57 l-11 -33 -1 28 c-2 57 -15 67 -94 68 -64 2 -68 3 -32 10 22
4 -11 5 -75 1 -185 -9 -202 -12 -145 -22 l40 -7 -40 -2 -40 -2 34 -18 c33 -18
33 -18 10 -24 -13 -3 -45 -9 -71 -12 -27 -4 -48 -11 -48 -15 0 -5 -10 -10 -22
-12 -31 -4 -35 -28 -5 -28 13 0 27 -3 31 -7 8 -8 11 -9 158 -29 85 -11 122
-12 137 -5 19 11 145 0 159 -13 3 -3 -7 -29 -22 -56 -24 -45 -26 -55 -18 -95
11 -50 3 -105 -21 -152 -16 -30 -16 -33 0 -48 22 -22 77 -14 109 16 15 14 24
18 24 10 0 -9 8 -11 22 -8 23 6 105 -7 151 -25 17 -7 27 -17 25 -27 -1 -9 2
-22 6 -30 7 -11 5 -13 -8 -8 -10 4 -20 7 -22 7 -2 0 -4 7 -4 15 0 12 -14 15
-72 14 -50 0 -67 -3 -53 -9 11 -5 32 -9 48 -9 30 -1 37 -17 10 -25 -10 -3 -39
-5 -65 -4 -28 1 -58 -6 -75 -16 l-28 -17 23 20 c12 10 22 24 22 30 0 6 3 11 8
11 4 0 8 16 9 35 2 20 -2 35 -8 35 -6 0 -9 -6 -6 -12 2 -7 -4 -24 -15 -37 -15
-19 -16 -26 -6 -33 9 -6 5 -7 -9 -3 -19 5 -23 1 -28 -22 -3 -15 -10 -47 -15
-71 -13 -55 -13 -128 0 -152 13 -24 36 -154 45 -245 5 -60 2 -80 -19 -135 -14
-36 -25 -59 -26 -52 0 8 -18 12 -55 12 -58 0 -75 -14 -75 -60 0 -19 -4 -20
-38 -14 -20 4 -41 10 -47 14 -43 32 -226 49 -277 26 -17 -8 -18 3 -19 150 -1
88 -1 161 -1 164 0 3 3 224 6 490 8 613 13 752 29 762 8 5 4 8 -10 8 -17 0
-23 -7 -27 -32z m354 -244 c-34 -7 -110 -9 -110 -2 0 5 28 7 63 7 34 -1 55 -3
47 -5z m97 -26 c20 -22 57 -98 48 -98 -3 0 -12 14 -20 31 -9 16 -25 39 -35 49
-18 18 -22 18 -67 5 -80 -25 -104 -16 -28 10 39 12 73 23 76 24 3 1 15 -9 26
-21z m30 16 c-3 -3 -12 -4 -19 -1 -8 3 -5 6 6 6 11 1 17 -2 13 -5z m-140 -10
c-3 -3 -12 -4 -19 -1 -8 3 -5 6 6 6 11 1 17 -2 13 -5z m173 -4 c0 -5 -4 -10
-10 -10 -5 0 -10 5 -10 10 0 6 5 10 10 10 6 0 10 -4 10 -10z m-100 -30 c-8 -5
-22 -10 -30 -10 -13 0 -13 1 0 10 8 5 22 10 30 10 13 0 13 -1 0 -10z m367 -22
c21 -24 43 -59 28 -45 -10 9 -55 -31 -55 -50 0 -20 11 -16 47 19 l33 32 28
-27 c24 -25 25 -29 10 -37 -34 -20 -118 -91 -118 -100 0 -6 -6 -10 -12 -10 -7
0 -24 -19 -38 -41 -26 -43 -61 -59 -85 -39 -21 17 -19 36 6 61 14 14 21 36 23
74 2 39 10 66 31 97 31 48 65 88 75 88 4 0 16 -10 27 -22z m-591 -1 c-11 -8
-30 -11 -45 -8 -25 5 -24 6 9 12 54 10 55 10 36 -4z m149 3 c-11 -5 -31 -9
-45 -9 -23 0 -23 1 -5 9 11 5 31 9 45 9 23 0 23 -1 5 -9z m-93 -22 c-10 -10
-82 -22 -82 -13 0 8 35 20 65 22 17 0 24 -2 17 -9z m103 2 c-3 -5 -14 -10 -23
-9 -14 0 -13 2 3 9 27 11 27 11 20 0z m65 6 c0 -2 -7 -6 -15 -10 -8 -3 -15 -1
-15 4 0 6 7 10 15 10 8 0 15 -2 15 -4z m0 -26 c0 -5 -5 -10 -11 -10 -5 0 -7 5
-4 10 3 6 8 10 11 10 2 0 4 -4 4 -10z m-51 -36 c-13 -7 -28 -10 -33 -7 -5 3 2
12 15 19 13 7 28 10 33 7 5 -3 -2 -12 -15 -19z m201 7 c0 -11 -4 -23 -10 -26
-5 -3 -10 1 -10 9 0 10 -6 13 -17 9 -15 -5 -14 -3 2 10 27 22 35 21 35 -2z
m-270 -1 c0 -5 -5 -10 -11 -10 -5 0 -7 5 -4 10 3 6 8 10 11 10 2 0 4 -4 4 -10z
m187 -6 c-3 -3 -12 -4 -19 -1 -8 3 -5 6 6 6 11 1 17 -2 13 -5z m156 -34 c-14
-25 -15 -32 -4 -39 9 -6 10 -14 4 -27 -5 -11 -17 -34 -26 -52 -21 -42 -21 -61
0 -84 16 -18 50 -24 68 -10 6 4 27 30 47 57 37 51 108 115 127 115 6 0 11 -7
11 -15 0 -9 6 -12 18 -9 16 5 16 5 -1 -6 -9 -6 -22 -8 -27 -5 -6 4 -9 1 -8 -7
2 -7 -4 -12 -14 -10 -12 2 -16 -2 -12 -13 4 -11 0 -15 -16 -15 -12 0 -18 -4
-15 -11 8 -12 -25 -40 -38 -32 -4 2 -6 -1 -5 -9 2 -7 -3 -12 -10 -10 -8 1 -11
-1 -8 -6 6 -9 -35 -48 -46 -44 -5 1 -8 -2 -8 -7 0 -16 -79 -61 -97 -55 -15 5
-16 4 -3 -5 13 -9 13 -11 0 -12 -8 -1 -18 -1 -22 0 -4 0 -5 -6 -2 -13 6 -15
-47 -32 -66 -21 -21 13 -10 27 18 21 24 -6 25 -5 7 5 -11 7 -21 13 -23 15 -2
1 4 14 14 29 14 21 16 39 11 101 -5 56 -3 84 9 114 20 51 66 90 105 90 l30 0
-18 -30z m119 -285 c34 -14 75 -25 91 -25 18 0 27 -4 25 -12 -7 -20 -35 -21
-114 -7 -52 9 -71 16 -67 26 3 7 0 13 -6 13 -6 0 -11 7 -11 15 0 20 10 19 82
-10z m808 -55 c0 -5 -12 -10 -27 -9 l-28 1 25 8 c14 4 26 8 28 9 1 1 2 -3 2
-9z m-77 -17 c-7 -2 -19 -2 -25 0 -7 3 -2 5 12 5 14 0 19 -2 13 -5z m-738 -83
c-3 -5 -11 -10 -16 -10 -6 0 -7 5 -4 10 3 6 11 10 16 10 6 0 7 -4 4 -10z m-35
-30 c33 -17 67 -42 77 -58 9 -15 28 -39 41 -54 28 -31 22 -51 -13 -42 -20 5
-27 1 -34 -19 -6 -14 -20 -28 -33 -32 -13 -4 -37 -20 -54 -36 l-30 -29 -25 26
c-22 24 -23 26 -4 24 11 -1 29 -1 40 0 19 2 -41 17 -94 24 -14 1 -27 8 -29 14
-2 7 -10 12 -18 12 -8 0 -14 5 -14 11 0 5 5 7 10 4 6 -3 10 2 11 12 0 11 3 13
6 5 8 -19 79 -52 110 -51 27 1 26 1 -6 9 -53 13 -85 42 -95 88 -6 23 -13 42
-18 42 -19 0 19 54 47 66 44 19 59 17 125 -16z m151 -7 l34 -37 -37 30 c-20
16 -37 32 -37 37 -2 12 4 8 40 -30z m-41 -19 c0 -8 -4 -12 -10 -9 -5 3 -10 10
-10 16 0 5 5 9 10 9 6 0 10 -7 10 -16z m29 -35 c-16 -10 -23 -4 -14 10 3 6 11
8 17 5 6 -4 5 -9 -3 -15z m66 -19 c9 -17 11 -30 5 -30 -5 0 -10 -9 -10 -20 0
-26 -6 -25 -40 7 -33 30 -30 43 7 43 18 0 24 4 19 15 -10 26 3 16 19 -15z
m550 1 c-3 -6 -11 -8 -17 -5 -6 4 -5 9 3 15 16 10 23 4 14 -10z m-105 -56 c-6
-8 -9 -23 -5 -35 8 -26 -1 -26 -15 1 -12 21 1 49 22 49 6 0 5 -6 -2 -15z
m-514 -67 c17 -18 44 -45 62 -60 l32 -27 -42 -60 c-23 -33 -44 -58 -47 -56 -2
3 1 11 7 17 19 19 14 30 -8 18 -24 -13 -25 -7 -4 26 25 37 10 40 -20 4 -30
-36 -33 -32 -11 10 9 18 11 30 5 30 -6 0 -16 -11 -22 -25 -6 -14 -16 -25 -21
-25 -5 0 -1 12 8 27 13 19 14 28 6 31 -6 2 -9 8 -5 13 3 5 1 9 -5 9 -5 0 -15
-8 -20 -17 -14 -24 -14 -7 -1 18 12 21 1 26 -18 7 -9 -9 -9 -5 0 15 7 15 21
30 31 33 9 3 17 14 17 25 0 28 23 23 56 -13z m18 16 c3 -8 2 -12 -4 -9 -6 3
-10 10 -10 16 0 14 7 11 14 -7z m88 -1 c30 -35 31 -47 4 -25 -16 12 -35 22
-43 22 -8 0 -11 5 -8 10 9 15 30 12 47 -7z m4 -70 c-8 -8 -46 22 -46 36 0 10
8 7 25 -9 14 -13 23 -25 21 -27z m52 -83 c0 -30 -6 -58 -12 -62 -8 -5 -7 -8 2
-8 19 0 14 -20 -5 -20 -16 -1 -16 -2 1 -15 19 -15 19 -15 -5 -16 -16 -1 -19
-3 -7 -6 15 -4 18 -14 16 -54 -2 -33 -7 -49 -15 -49 -8 0 -16 -14 -20 -31 -7
-35 -27 -25 -21 12 2 15 12 26 28 30 22 5 19 7 -15 10 -32 3 -41 8 -43 27 -4
24 -17 29 -25 10 -3 -7 -6 -3 -6 9 -1 26 19 73 30 73 5 0 6 6 4 13 -3 7 14 33
39 59 35 38 43 52 39 75 -4 22 -2 25 6 13 6 -8 10 -40 9 -70z m-398 56 c0 -9
-30 -14 -35 -6 -4 6 3 10 14 10 12 0 21 -2 21 -4z m356 -33 c-15 -29 -76 -92
-76 -80 0 4 8 20 17 35 39 63 88 100 59 45z m-316 7 c-20 -13 -43 -13 -35 0 3
6 16 10 28 10 18 0 19 -2 7 -10z m606 -27 c2 -21 1 -24 -6 -13 -11 17 -14 57
-3 47 3 -4 8 -19 9 -34z m-666 7 c0 -5 -4 -10 -10 -10 -5 0 -10 5 -10 10 0 6
5 10 10 10 6 0 10 -4 10 -10z m135 0 c3 -4 -10 -10 -28 -13 -17 -3 -45 -8 -62
-12 l-30 -7 24 20 c25 20 86 27 96 12z m9 -40 c15 -15 -3 -31 -23 -18 -10 6
-30 8 -46 4 l-28 -7 26 -27 c20 -21 23 -30 14 -44 -9 -13 -6 -21 14 -37 19
-16 21 -20 7 -21 -15 0 -58 48 -58 64 0 3 10 6 23 6 l22 1 -24 19 c-13 11 -29
20 -37 20 -8 0 -14 9 -14 20 0 15 7 20 24 20 14 0 28 5 32 11 7 11 52 4 68
-11z m49 -26 c-4 -12 0 -15 17 -12 18 2 25 -3 31 -25 4 -16 13 -35 19 -42 7
-8 9 -19 5 -25 -8 -13 -26 -13 -22 1 1 6 -7 13 -18 15 -11 1 -25 10 -31 18 -6
9 -16 16 -23 16 -6 0 -11 5 -11 10 0 15 26 12 40 -5 16 -19 31 -19 24 0 -4 8
-9 13 -13 11 -3 -2 -15 2 -25 10 -16 11 -17 16 -6 29 16 19 21 19 13 -1z m517
2 c0 -7 -10 -35 -21 -62 l-22 -48 35 -31 c33 -29 34 -31 22 -60 -20 -46 -16
-100 11 -166 17 -40 26 -79 26 -119 1 -45 5 -63 18 -70 14 -8 14 -9 1 -10 -28
0 -37 20 -32 69 3 38 -1 58 -26 107 -41 82 -46 113 -26 163 21 53 12 64 -15
20 -29 -47 -26 -93 9 -168 38 -80 53 -141 35 -141 -14 0 -25 22 -25 48 0 10
-12 39 -26 65 -16 31 -28 75 -33 118 l-7 70 34 25 c18 14 31 28 28 31 -3 3
-19 -6 -36 -21 -18 -14 -52 -31 -76 -37 -34 -9 -42 -14 -34 -24 7 -9 7 -15 1
-19 -15 -10 -24 33 -22 97 2 44 -2 64 -15 78 -19 21 -19 21 109 23 40 1 57 16
57 54 0 13 6 22 15 22 8 0 15 -6 15 -14z m-585 -26 c-8 -13 -35 0 -35 16 0 12
4 12 20 4 11 -6 18 -15 15 -20z m745 -36 c11 -37 20 -68 18 -69 -2 -2 -36 -7
-75 -10 -92 -9 -100 9 -10 23 l62 9 -61 2 c-60 1 -61 2 -56 26 4 21 10 25 38
25 18 0 36 4 39 10 4 6 -5 7 -23 4 -17 -4 -32 -1 -36 5 -5 7 3 12 21 12 23 2
24 2 6 6 -37 7 -26 23 16 23 l39 0 22 -66z m-135 19 c0 -14 -6 -28 -14 -31
-11 -4 -11 -6 0 -13 11 -7 10 -9 -5 -9 -15 0 -16 -3 -6 -15 7 -9 11 -18 8 -20
-3 -3 -11 1 -17 9 -10 12 -8 24 8 60 11 25 21 46 23 46 2 0 4 -12 3 -27z
m-285 -18 c0 -14 -4 -25 -10 -25 -11 0 -14 33 -3 43 11 11 13 8 13 -18z m-300
5 c0 -11 -42 -31 -49 -24 -2 2 2 10 9 19 14 17 40 20 40 5z m54 -84 c-3 -14
-10 -26 -14 -26 -17 0 -20 19 -8 45 14 32 32 18 22 -19z m241 34 c3 -5 1 -10
-4 -10 -6 0 -11 5 -11 10 0 6 2 10 4 10 3 0 8 -4 11 -10z m55 -34 c-8 -8 -26
-17 -40 -21 -24 -7 -24 -7 5 19 17 14 24 26 17 26 -7 0 -10 5 -6 11 4 7 11 6
22 -5 14 -14 14 -18 2 -30z m-435 14 c3 -5 19 -10 36 -10 16 0 29 -5 29 -11 0
-6 -6 -9 -14 -6 -8 3 -31 9 -50 13 -40 7 -59 24 -27 24 11 0 23 -4 26 -10z
m1300 -23 c24 -25 85 -132 85 -147 0 -5 -11 -10 -25 -10 -14 0 -25 5 -25 10 0
6 6 10 14 10 20 0 8 38 -14 45 -10 3 -20 19 -23 34 -13 64 -117 40 -181 -41
-28 -36 -35 -24 -12 20 21 40 60 73 90 76 29 3 48 16 23 16 -32 0 -71 -22
-105 -58 -20 -20 -31 -28 -25 -17 46 84 148 116 198 62z m-1073 6 c23 -20 24
-48 2 -39 -9 3 -21 6 -28 6 -9 0 -12 9 -8 25 5 29 9 30 34 8z m591 -45 c-5
-24 -7 -82 -6 -130 1 -94 -10 -118 -21 -42 -14 107 -3 214 24 214 7 0 8 -15 3
-42z m-763 17 c39 -9 46 -13 25 -13 -16 0 -46 6 -65 13 -45 17 -29 18 40 0z
m380 -5 c-16 -11 -40 -13 -40 -5 0 8 44 24 50 18 2 -2 -2 -8 -10 -13z m303
-12 c-11 -46 -9 -130 6 -218 9 -54 10 -83 2 -102 -17 -44 -27 -33 -26 30 0 40
-8 77 -27 125 -16 37 -28 79 -28 93 0 35 28 92 48 97 32 9 34 7 25 -25z m-827
-14 c-6 -19 -12 -28 -14 -20 -3 13 14 56 22 56 2 0 -2 -16 -8 -36z m116 10
c14 -4 15 -9 6 -30 -14 -29 -24 -30 -40 -4 -7 11 -23 20 -35 20 -15 0 -23 6
-23 16 0 13 7 15 38 10 20 -4 45 -9 54 -12z m138 -4 c11 -8 7 -9 -15 -4 -37 8
-45 14 -19 14 10 0 26 -5 34 -10z m270 -10 c-8 -5 -17 -7 -19 -4 -3 3 1 9 9
14 8 5 17 7 19 4 3 -3 -1 -9 -9 -14z m824 9 c-18 -5 -55 -30 -83 -55 -30 -27
-48 -38 -45 -27 17 47 82 93 129 92 l30 -1 -31 -9z m-1034 -8 c0 -5 -9 -7 -20
-4 -11 3 -20 7 -20 9 0 2 9 4 20 4 11 0 20 -4 20 -9z m107 -23 c-3 -7 -5 -2
-5 12 0 14 2 19 5 13 2 -7 2 -19 0 -25z m-244 -6 c-15 -15 -41 -35 -56 -45
-26 -17 -30 -17 -53 -2 -13 8 -24 22 -24 29 0 8 -6 17 -12 19 -9 4 -8 6 2 6 8
1 21 -8 28 -19 17 -27 58 -26 73 3 15 27 28 37 52 37 16 0 14 -5 -10 -28z
m676 -14 c-2 -24 0 -70 4 -103 l7 -60 -15 70 c-14 62 -13 135 1 135 3 0 4 -19
3 -42z m-558 22 c11 0 19 -4 19 -10 0 -15 -44 -12 -76 6 l-29 16 34 -6 c18 -3
42 -6 52 -6z m1084 0 c-4 -6 -10 -8 -15 -5 -16 10 -86 -33 -119 -72 l-32 -38
22 35 c30 48 86 90 121 90 17 0 27 -4 23 -10z m-1475 -9 c0 -4 -11 -6 -25 -3
-15 2 -25 0 -25 -7 0 -6 11 -11 25 -11 14 0 26 -3 26 -7 17 -96 16 -149 0
-145 -8 2 0 -12 17 -30 18 -18 30 -38 27 -46 -3 -7 0 -23 6 -34 7 -13 12 -83
13 -175 1 -140 3 -156 20 -169 18 -13 19 -19 8 -78 -7 -35 -12 -75 -12 -89 0
-38 21 -77 41 -77 24 0 49 -10 49 -21 0 -27 -114 11 -131 44 -16 29 -12 147 5
166 13 14 10 18 -25 35 -55 27 -69 63 -57 146 5 36 7 80 4 99 -3 18 -2 69 1
112 5 71 8 79 27 80 17 1 18 2 4 6 -10 2 -18 8 -19 11 0 4 -3 27 -6 51 -4 31
-1 46 8 52 10 6 7 9 -11 10 -23 0 -23 1 -5 9 19 8 19 8 -5 18 l-25 11 25 1
c25 1 25 1 3 10 -34 14 -29 40 7 40 17 0 30 -4 30 -9z m617 -23 c-3 -7 -5 -2
-5 12 0 14 2 19 5 13 2 -7 2 -19 0 -25z m100 0 c-8 -24 -12 -28 -15 -15 -5 23
4 47 17 47 6 0 5 -13 -2 -32z m-387 7 c7 -8 28 -15 46 -15 19 0 34 -5 34 -11
0 -7 -11 -9 -32 -5 -18 4 -48 9 -65 13 -19 3 -33 11 -33 19 0 19 34 18 50 -1z
m257 -7 c-3 -8 -6 -5 -6 6 -1 11 2 17 5 13 3 -3 4 -12 1 -19z m-759 -37 c94
-48 105 -98 57 -271 -19 -70 -22 -203 -5 -258 13 -42 35 -70 81 -104 15 -11
17 -16 7 -12 -14 5 -18 0 -19 -22 0 -30 -3 -27 -25 31 -6 17 -8 18 -11 3 -3
-11 -10 -15 -20 -11 -13 5 -15 2 -8 -18 14 -41 10 -122 -8 -164 l-18 -40 22
25 c12 14 26 37 31 53 11 31 20 34 38 12 7 -8 18 -15 24 -15 6 0 44 -16 84
-36 84 -40 107 -40 130 -2 19 31 10 48 -18 31 -32 -21 -31 10 3 78 17 35 37
78 44 94 11 26 12 15 10 -90 -4 -159 -9 -168 -122 -227 -49 -26 -85 -47 -80
-47 6 -1 52 22 104 49 103 55 125 60 141 31 13 -25 13 -42 -1 -18 -5 9 -16 17
-24 17 -16 0 -196 -86 -190 -91 2 -2 -10 -4 -26 -5 -16 -1 -26 3 -22 8 3 6 -4
5 -16 -2 -58 -31 43 -40 163 -15 38 8 73 12 78 9 5 -3 25 -6 44 -6 19 0 34 -4
34 -9 0 -5 -7 -9 -16 -9 -29 0 -84 -40 -77 -56 5 -13 7 -13 14 -2 6 9 34 14
91 15 46 1 94 3 108 5 28 3 28 7 10 -102 -6 -36 -12 -81 -14 -100 -1 -19 -8
-48 -14 -63 -7 -16 -12 -46 -12 -68 l0 -39 -57 -2 -58 -2 51 -3 c64 -5 82 -29
68 -95 l-9 -43 -120 -2 -120 -3 34 19 c19 10 38 27 42 37 7 18 8 17 15 -4 4
-14 12 -21 20 -18 8 3 14 0 14 -6 0 -6 9 1 20 15 25 32 25 49 0 72 -16 15 -22
16 -36 5 -13 -12 -17 -11 -24 1 -7 10 -3 15 18 19 34 7 -116 32 -200 34 -43 1
-62 6 -80 23 -39 37 -69 38 -129 5 -33 -18 -77 -33 -113 -37 l-58 -7 -52 58
c-28 31 -64 75 -80 98 -26 38 -28 46 -22 110 3 43 11 75 22 87 15 16 59 46
237 159 37 23 67 44 67 47 0 5 -32 -12 -104 -55 -47 -28 -60 -32 -67 -21 -8
11 -9 9 -7 -6 2 -16 -2 -19 -21 -17 -15 2 -21 0 -17 -7 4 -7 -1 -11 -14 -11
-13 0 -19 -4 -14 -11 4 -8 -1 -9 -16 -4 -19 6 -21 4 -15 -14 4 -12 2 -21 -4
-21 -6 0 -11 5 -11 11 0 5 -5 7 -12 3 -9 -6 -9 -9 0 -12 10 -3 10 -7 1 -18 -6
-8 -15 -14 -18 -14 -4 0 -6 159 -4 353 2 193 3 438 3 543 0 218 -6 203 90 213
62 7 151 -9 208 -38z m621 4 c0 -5 -4 -3 -9 5 -5 8 -9 22 -9 30 0 16 17 -16
18 -35z m1011 35 c0 -5 -16 -16 -35 -24 -20 -9 -51 -31 -69 -51 -18 -19 -42
-35 -52 -34 -14 0 -15 2 -4 6 23 8 60 45 60 59 0 15 59 54 83 54 9 0 17 -4 17
-10z m-228 -89 c-10 -14 -27 -28 -37 -29 -15 -3 -13 1 8 30 13 18 28 44 33 58
l9 25 3 -29 c2 -18 -4 -39 -16 -55z m268 49 c7 -17 9 -42 6 -57 -4 -16 -8 -36
-9 -45 -2 -21 1 -21 -32 -8 -15 6 -23 15 -19 21 3 6 8 31 10 56 6 71 23 84 44
33z m-453 -2 c-3 -8 -6 -5 -6 6 -1 11 2 17 5 13 3 -3 4 -12 1 -19z m-873 -13
c15 -14 24 -30 21 -35 -9 -15 -25 -12 -25 4 0 8 -9 18 -20 21 -11 3 -20 13
-20 21 0 21 14 17 44 -11z m71 15 c-3 -5 -11 -10 -16 -10 -6 0 -7 5 -4 10 3 6
11 10 16 10 6 0 7 -4 4 -10z m273 -18 c20 -31 1 -27 -22 5 -12 16 -14 24 -6
21 7 -2 20 -14 28 -26z m667 -2 c-10 -11 -24 -20 -32 -20 -8 0 -11 -5 -8 -11
5 -6 16 -4 33 7 l27 18 -16 -25 c-9 -13 -25 -24 -35 -24 -26 0 -31 35 -7 41
11 3 26 14 33 24 8 11 16 17 19 15 2 -3 -4 -14 -14 -25z m254 26 c-2 -2 -15
-9 -29 -15 -24 -11 -24 -11 -6 3 16 13 49 24 35 12z m-1329 -25 c0 -10 -37
-21 -44 -13 -8 7 27 31 36 26 5 -3 8 -9 8 -13z m315 -17 c5 -32 3 -40 -23 -65
-25 -25 -31 -27 -36 -13 -4 10 1 25 10 35 10 12 15 29 12 49 -4 23 -1 30 13
30 11 0 19 -11 24 -36z m152 14 c-3 -8 -6 -5 -6 6 -1 11 2 17 5 13 3 -3 4 -12
1 -19z m-292 -8 c13 0 25 3 28 8 2 4 2 2 1 -5 -2 -7 9 -21 23 -31 27 -20 25
-42 -4 -42 -9 0 -14 3 -10 6 3 4 -1 13 -9 21 -8 9 -18 12 -22 9 -3 -4 0 -11 7
-15 10 -6 10 -10 1 -16 -6 -4 -14 -4 -17 -1 -3 3 -12 -2 -18 -11 -11 -15 -17
-15 -39 -5 -32 14 -46 15 -46 3 0 -5 10 -12 23 -14 20 -5 20 -5 -3 -5 -14 1
-33 -3 -43 -7 -28 -12 -33 3 -9 27 l22 22 -28 23 c-20 16 -23 22 -11 23 9 0
22 -7 29 -15 7 -8 18 -15 25 -15 7 0 18 -7 25 -15 7 -8 18 -15 24 -15 6 1 1 9
-12 20 l-23 19 27 28 c18 17 29 23 32 15 2 -7 14 -12 27 -12z m265 -85 c5 -14
10 -42 10 -61 0 -19 3 -34 8 -33 18 3 52 -15 52 -26 0 -10 -12 -7 -42 9 -35
18 -44 29 -49 57 -6 35 -22 73 -44 99 -7 8 -16 26 -20 40 -6 22 -1 20 34 -17
22 -23 45 -53 51 -68z m-610 69 c6 -14 10 -35 9 -47 0 -18 -3 -17 -15 10 -7
17 -18 34 -24 38 -15 9 -12 25 5 25 9 0 20 -12 25 -26z m413 11 c-3 -9 -8 -14
-10 -11 -3 3 -2 9 2 15 9 16 15 13 8 -4z m254 -7 c-3 -8 -6 -5 -6 6 -1 11 2
17 5 13 3 -3 4 -12 1 -19z m110 0 c-3 -8 -6 -5 -6 6 -1 11 2 17 5 13 3 -3 4
-12 1 -19z m703 12 c0 -5 -5 -10 -11 -10 -5 0 -7 5 -4 10 3 6 8 10 11 10 2 0
4 -4 4 -10z m173 -66 c-2 -7 0 -15 6 -19 12 -7 15 -54 5 -79 -3 -8 -28 -22
-55 -31 -37 -13 -49 -22 -49 -36 0 -11 -4 -17 -10 -14 -28 18 7 75 46 75 44 0
54 69 16 113 -8 9 -10 17 -4 17 6 0 12 -6 15 -12 2 -7 7 -10 11 -7 4 3 2 18
-3 32 -5 14 -7 28 -3 32 8 8 31 -56 25 -71z m-1478 36 c3 -5 -1 -10 -9 -10 -9
0 -16 5 -16 10 0 6 4 10 9 10 6 0 13 -4 16 -10z m1280 -10 c-27 -12 -43 -12
-25 0 8 5 22 9 30 9 10 0 8 -3 -5 -9z m265 -25 c0 -23 -5 -35 -14 -35 -22 0
-28 31 -10 51 23 25 24 24 24 -16z m-1201 -11 c-9 -12 -8 -19 8 -37 24 -27 56
-78 51 -82 -11 -9 -105 -55 -113 -55 -5 0 -3 4 5 10 8 5 12 12 8 15 -3 4 -19
-1 -35 -11 -23 -15 -22 -12 7 14 39 35 35 40 -13 15 -30 -15 -31 -15 -18 0 7
10 19 17 27 17 7 0 16 5 20 11 4 8 -1 9 -17 4 l-24 -6 24 19 c13 11 19 21 14
23 -15 6 3 49 21 49 8 0 18 9 21 20 4 11 11 18 16 14 6 -4 5 -11 -2 -20z m118
4 c-3 -8 -6 -5 -6 6 -1 11 2 17 5 13 3 -3 4 -12 1 -19z m701 5 c-30 -16 -48
-16 -48 0 0 8 13 13 35 13 34 0 35 -1 13 -13z m-1218 -13 c0 -11 -4 -20 -10
-20 -5 0 -10 9 -10 20 0 11 5 20 10 20 6 0 10 -9 10 -20z m70 10 c0 -5 -10
-10 -22 -10 -19 0 -20 2 -8 10 19 13 30 13 30 0z m640 -12 c11 -12 20 -29 20
-37 0 -8 -11 0 -25 19 -14 19 -25 35 -25 37 0 8 11 1 30 -19z m440 4 c0 -8
-10 -24 -22 -36 -39 -37 -68 -80 -68 -98 0 -10 -7 -18 -16 -18 -28 0 -82 -40
-96 -70 -7 -17 -17 -30 -23 -30 -17 1 -55 37 -55 54 0 10 -6 13 -17 9 -11 -4
-14 -3 -9 6 5 7 14 10 22 7 9 -3 19 4 25 18 8 17 17 22 35 18 19 -3 35 7 75
49 29 30 56 65 60 79 8 21 16 26 49 26 29 1 40 -3 40 -14z m133 12 c9 -10 -4
-34 -19 -34 -8 0 -14 6 -14 13 0 22 19 35 33 21z m104 -19 c48 -14 82 -39 70
-51 -3 -3 -18 1 -34 9 -15 9 -49 19 -75 22 -46 6 -56 13 -41 28 9 10 24 9 80
-8z m-163 -10 c4 -11 -9 -22 -44 -40 -62 -32 -80 -32 -51 -1 17 19 72 53 87
56 1 0 4 -7 8 -15z m-918 -42 c-3 -4 -13 2 -21 13 -22 29 -18 41 6 15 12 -12
18 -25 15 -28z m257 4 c-3 -20 -10 -37 -14 -37 -12 0 -11 23 1 56 14 36 21 26
13 -19z m434 11 c-3 -7 -5 -2 -5 12 0 14 2 19 5 13 2 -7 2 -19 0 -25z m-1112
-15 c-12 -65 -20 -174 -20 -280 0 -99 1 -102 29 -132 17 -17 39 -31 50 -31 14
0 17 -3 9 -11 -8 -8 -22 -5 -50 10 -31 15 -44 31 -59 68 -25 62 -22 196 6 285
11 35 20 78 20 96 0 17 5 32 11 32 8 0 9 -12 4 -37z m165 23 c0 -8 -4 -17 -9
-20 -10 -7 -23 19 -14 28 11 11 23 6 23 -8z m180 4 c0 -5 6 -10 13 -10 13 -1
52 -48 45 -56 -5 -4 -78 63 -78 71 0 3 5 5 10 5 6 0 10 -4 10 -10z m1198 -35
c3 -3 -2 -21 -11 -40 -23 -49 -23 -95 1 -95 10 0 29 11 42 25 13 14 29 25 36
25 7 0 -1 -14 -17 -31 -19 -21 -27 -38 -24 -50 11 -34 -31 -74 -87 -83 -12 -2
-66 -64 -61 -70 4 -3 -1 -6 -10 -6 -17 0 -21 -11 -17 -39 1 -8 -14 -1 -34 17
-22 19 -53 34 -76 38 -22 4 -40 8 -40 10 0 2 20 55 45 119 42 109 89 203 108
216 8 6 135 -25 145 -36z m-1315 18 c-7 -2 -19 -2 -25 0 -7 3 -2 5 12 5 14 0
19 -2 13 -5z m119 -37 c6 -12 15 -24 21 -27 6 -4 6 -9 -1 -13 -5 -3 -23 8 -41
24 -17 17 -38 30 -46 30 -8 0 -15 6 -15 14 0 21 68 -2 82 -28z m998 3 c-12
-22 -37 -82 -57 -132 -19 -51 -39 -102 -44 -115 -5 -13 -13 -21 -18 -18 -16
10 95 281 122 298 19 12 19 10 -3 -33z m-415 -99 c15 -19 1 -8 -30 25 -31 33
-62 69 -67 80 -11 21 50 -46 97 -105z m374 97 c-10 -23 -69 -54 -69 -36 0 5 5
9 10 9 6 0 20 11 32 25 27 31 41 32 27 2z m296 13 c-3 -5 -12 -10 -18 -10 -7
0 -6 4 3 10 19 12 23 12 15 0z m95 -10 c0 -31 -36 -60 -72 -59 l-33 1 30 10
c37 13 65 37 65 55 0 7 2 13 5 13 3 0 5 -9 5 -20z m-1465 0 c-3 -5 -16 -10
-28 -10 -18 0 -19 2 -7 10 20 13 43 13 35 0z m89 -80 c-11 -11 -16 -12 -26 -2
-10 10 -10 15 2 22 12 7 12 12 2 22 -6 6 -12 17 -12 23 0 5 11 -3 24 -20 21
-26 23 -32 10 -45z m756 51 c0 -12 -20 -25 -27 -18 -7 7 6 27 18 27 5 0 9 -4
9 -9z m-900 -11 c0 -5 -2 -10 -4 -10 -3 0 -8 5 -11 10 -3 6 -1 10 4 10 6 0 11
-4 11 -10z m74 2 c-6 -4 -13 -12 -15 -18 -2 -7 -11 -4 -23 7 -19 19 -19 19 15
19 19 0 29 -4 23 -8z m457 -30 c-13 -24 -5 -71 16 -94 15 -17 15 -18 -1 -18
-10 0 -23 15 -32 37 -13 30 -14 44 -4 76 8 27 15 36 22 29 7 -7 6 -16 -1 -30z
m-81 -7 c15 5 20 2 20 -13 0 -12 -6 -19 -16 -18 -13 1 -17 -11 -18 -59 -3 -76
-12 -106 -31 -98 -8 3 -18 -2 -21 -11 -11 -28 -24 -17 -18 17 l5 32 -15 -25
-16 -25 6 27 c7 32 -22 71 -36 49 -5 -10 -9 -9 -14 4 -3 9 -10 14 -14 11 -5
-3 -19 5 -30 17 l-21 22 35 24 c19 13 37 21 40 18 3 -3 -8 -13 -25 -23 -17
-10 -31 -22 -31 -27 0 -9 10 -4 64 35 21 15 45 28 52 28 7 0 16 5 20 12 5 8 2
9 -9 5 -27 -10 -20 1 11 17 25 13 28 13 34 -6 6 -14 13 -18 28 -13z m1096
-350 c-3 -121 -5 -241 -6 -267 0 -27 -4 -48 -10 -48 -5 0 -10 6 -10 13 -1 40
-52 57 -77 26 -10 -12 -28 -31 -41 -43 -22 -19 -22 -21 -6 -33 15 -11 16 -13
2 -13 -9 0 -18 -7 -22 -15 -3 -8 -1 -15 4 -15 6 0 10 -7 10 -16 0 -13 -7 -15
-29 -11 -27 6 -31 2 -59 -51 -24 -45 -35 -57 -55 -58 -32 -1 -82 -33 -126 -78
-29 -30 -42 -36 -78 -36 -44 0 -83 -25 -83 -53 0 -15 -66 -55 -75 -45 -3 3 1
12 9 21 8 8 13 17 10 20 -3 3 16 36 43 73 100 140 153 242 153 297 0 31 -8 46
-45 85 -24 27 -73 68 -109 93 -36 24 -66 51 -66 59 0 8 4 53 10 99 10 87 24
115 63 125 22 5 22 5 2 -9 -36 -26 -45 -36 -45 -50 0 -23 17 -18 24 8 3 12 18
28 32 34 36 17 41 10 9 -11 -15 -10 -25 -26 -25 -41 0 -14 -5 -25 -10 -25 -14
0 -4 -51 12 -62 7 -4 18 -6 25 -3 7 2 15 -5 18 -15 16 -49 98 -78 125 -44 8 8
28 21 47 29 26 11 32 19 31 38 -4 41 132 211 161 203 20 -6 51 35 61 78 4 17
12 30 19 28 7 -1 15 6 18 16 2 10 18 23 34 29 18 7 33 22 37 35 13 46 22 -149
18 -367z m-971 365 c3 -5 1 -10 -4 -10 -6 0 -11 5 -11 10 0 6 2 10 4 10 3 0 8
-4 11 -10z m517 -31 c-8 -22 -25 -45 -36 -51 -18 -9 -18 -7 4 17 22 25 23 27
5 21 -16 -5 -16 -3 5 15 19 16 20 19 6 15 -16 -6 -17 -4 -6 9 7 8 18 15 25 15
11 0 10 -9 -3 -41z m-927 -14 c-35 -45 -56 -117 -54 -183 l2 -54 31 6 31 6 1
-121 c2 -118 1 -120 -16 -92 -12 19 -14 30 -6 35 7 5 6 8 -4 8 -13 0 -13 1 0
10 9 6 10 10 3 10 -14 0 -13 40 2 40 6 0 7 3 0 8 -14 10 -17 32 -4 32 5 0 8 4
4 9 -3 5 0 13 6 17 8 4 7 9 -2 15 -19 12 -42 11 -34 -1 3 -5 1 -18 -4 -27 -9
-16 -10 -14 -11 9 0 15 -4 29 -9 33 -14 8 -5 137 13 179 19 46 54 96 67 96 6
0 -2 -16 -16 -35z m-72 19 c3 -3 -4 -21 -15 -40 -16 -26 -18 -38 -9 -47 6 -6
11 -17 11 -25 0 -11 -3 -12 -14 -3 -11 9 -15 9 -19 -1 -3 -10 -10 -8 -26 6
-16 15 -24 17 -33 8 -19 -19 -28 -14 -28 13 0 18 5 25 19 25 10 0 21 -7 25
-15 3 -8 16 -15 28 -14 l23 0 -22 16 c-27 18 -28 31 -7 61 14 20 53 30 67 16z
m127 -4 c0 -5 -4 -10 -10 -10 -5 0 -10 5 -10 10 0 6 5 10 10 10 6 0 10 -4 10
-10z m790 -71 c0 -71 -2 -80 -15 -69 -8 7 -25 10 -39 6 -16 -4 -32 0 -47 12
l-22 19 19 39 c17 34 69 74 97 74 4 0 7 -37 7 -81z m-393 49 c-3 -8 -6 -5 -6
6 -1 11 2 17 5 13 3 -3 4 -12 1 -19z m-512 -17 c3 -5 1 -12 -5 -16 -5 -3 -10
1 -10 9 0 18 6 21 15 7z m92 -27 c-2 -2 -12 -2 -21 2 -13 5 -14 9 -5 21 11 12
14 12 22 -2 5 -9 7 -19 4 -21z m493 19 c0 -5 -14 -8 -30 -9 -17 -1 -30 3 -30
7 0 5 14 9 30 9 17 0 30 -3 30 -7z m175 -57 c51 -44 41 -56 -13 -16 -44 31
-81 81 -45 61 10 -6 36 -26 58 -45z m-310 -6 c8 0 15 -7 15 -16 0 -11 -6 -14
-20 -9 -11 3 -20 2 -20 -4 0 -22 21 -21 46 4 14 14 28 24 31 21 3 -3 22 -30
42 -60 32 -49 124 -136 143 -136 9 0 11 -42 2 -64 -4 -10 -18 -16 -37 -16 -43
0 -22 -18 33 -28 32 -6 70 -27 130 -72 157 -118 176 -143 158 -209 -21 -75
-97 -190 -125 -191 -7 0 -10 -7 -7 -15 5 -11 2 -13 -12 -8 -13 5 -16 3 -11
-10 4 -11 1 -17 -8 -17 -9 0 -12 -6 -9 -15 4 -9 0 -15 -10 -15 -10 0 -13 -6
-10 -15 4 -8 2 -15 -4 -15 -5 0 -9 -8 -8 -17 1 -13 -5 -17 -19 -15 -16 3 -18
1 -7 -9 16 -17 15 -29 -3 -29 -8 0 -12 -6 -9 -13 7 -19 -41 -59 -70 -59 -15 0
-26 -4 -26 -9 0 -5 -6 -6 -14 -3 -7 3 -21 -2 -29 -11 -9 -9 -20 -16 -24 -16
-4 0 -8 -11 -8 -26 0 -16 -7 -28 -18 -32 -10 -4 -18 -11 -18 -16 1 -6 -14 -10
-31 -10 -24 0 -34 5 -36 18 -7 33 8 84 34 122 23 34 26 61 5 39 -22 -21 -61
-114 -61 -143 0 -23 -4 -29 -15 -25 -8 4 -15 1 -15 -5 0 -6 -5 -11 -11 -11 -6
0 -9 7 -5 15 3 8 1 15 -4 15 -6 0 -10 -12 -10 -27 0 -19 -3 -24 -11 -16 -6 6
-9 21 -7 34 2 14 -4 31 -15 41 -19 17 -19 18 3 62 38 80 154 111 195 52 12
-16 19 -19 33 -10 9 6 18 23 20 37 2 15 15 36 30 47 65 51 110 102 145 165 33
60 36 72 27 99 -5 17 -8 46 -5 65 5 42 -2 56 -20 41 -11 -9 -12 -7 -8 11 4 15
3 20 -5 15 -7 -4 -12 -13 -12 -21 0 -15 -19 -14 -125 9 -103 22 -149 30 -162
27 -15 -2 -53 47 -53 68 0 10 6 23 13 30 10 11 9 13 -2 9 -60 -18 -23 -110 49
-121 11 -2 26 -9 33 -16 10 -11 7 -12 -13 -6 -72 22 -115 44 -115 60 0 9 -8
21 -18 26 -9 6 -17 17 -17 24 0 8 -7 15 -15 15 -18 0 -22 17 -32 168 l-8 123
37 29 c27 22 41 44 52 84 l16 55 25 -25 c13 -13 31 -24 40 -24z m185 30 c0 -5
-4 -10 -10 -10 -5 0 -10 5 -10 10 0 6 5 10 10 10 6 0 10 -4 10 -10z m320 0 c0
-5 -5 -10 -11 -10 -5 0 -7 5 -4 10 3 6 8 10 11 10 2 0 4 -4 4 -10z m-840 -24
c0 -19 -32 -30 -42 -14 -13 21 -9 28 17 28 15 0 25 -6 25 -14z m520 -6 c-19
-13 -30 -13 -30 0 0 6 10 10 23 10 18 0 19 -2 7 -10z m-679 -48 c-7 -2 -21 4
-32 14 -18 16 -20 16 -41 -2 -14 -12 -18 -14 -13 -4 21 38 25 39 62 17 20 -11
31 -23 24 -25z m96 22 c-3 -3 -12 -4 -19 -1 -8 3 -5 6 6 6 11 1 17 -2 13 -5z
m600 -10 c3 -8 -2 -23 -11 -32 -9 -10 -16 -12 -16 -5 0 7 5 15 10 18 8 5 7 11
-1 21 -9 10 -9 14 0 14 6 0 14 -7 18 -16z m-517 -9 c0 -8 -4 -15 -9 -15 -13 0
-22 16 -14 24 11 11 23 6 23 -9z m-210 -20 c7 -8 20 -15 28 -15 12 0 13 -3 4
-12 -8 -8 -15 -8 -27 2 -8 7 -26 10 -40 8 -27 -6 -32 1 -13 20 16 16 33 15 48
-3z m654 -1 c5 -14 4 -15 -9 -4 -17 14 -19 20 -6 20 5 0 12 -7 15 -16z m-474
-25 c0 -11 -4 -17 -10 -14 -5 3 -10 13 -10 21 0 8 5 14 10 14 6 0 10 -9 10
-21z m628 -15 c2 -16 9 -35 15 -43 17 -20 16 -55 -2 -71 -13 -12 -14 -12 -8 4
8 21 -13 126 -25 126 -5 0 -8 5 -8 11 0 24 25 0 28 -27z m-596 -56 c-2 -46 -6
-90 -9 -98 -3 -8 -5 -19 -3 -25 8 -27 8 -290 0 -304 -6 -11 -10 6 -10 54 -1
39 -4 102 -8 140 -13 144 -8 239 13 278 11 20 20 37 20 37 0 0 -1 -37 -3 -82z
m77 67 c39 -19 41 -31 26 -111 -7 -38 -18 -113 -25 -168 -10 -80 -9 -100 1
-107 8 -4 11 -9 9 -11 -3 -2 -19 -13 -37 -26 -18 -12 -35 -22 -38 -22 -10 0
-5 159 5 165 8 5 7 11 -1 21 -13 16 -2 242 13 262 13 15 13 15 47 -3z m591 5
c0 -5 -4 -10 -10 -10 -5 0 -10 5 -10 10 0 6 5 10 10 10 6 0 10 -4 10 -10z
m-130 -15 c0 -8 -4 -15 -10 -15 -5 0 -10 7 -10 15 0 8 5 15 10 15 6 0 10 -7
10 -15z m257 -7 c-3 -8 -6 -5 -6 6 -1 11 2 17 5 13 3 -3 4 -12 1 -19z m-1002
-2 c33 -12 37 -16 21 -22 -10 -4 -27 -2 -37 4 -10 7 -26 12 -34 12 -9 0 -13 5
-10 10 8 13 12 13 60 -4z m845 -12 c0 -8 -4 -12 -10 -9 -5 3 -10 13 -10 21 0
8 5 12 10 9 6 -3 10 -13 10 -21z m269 -3 c19 -9 38 -27 43 -39 l8 -24 -30 25
c-16 14 -45 31 -65 37 -19 6 -35 16 -35 21 0 12 28 4 79 -20z m-354 -11 c-3
-5 -14 -10 -23 -9 -14 0 -13 2 3 9 27 11 27 11 20 0z m325 -10 c48 -24 54 -34
35 -54 -9 -9 -11 -17 -5 -21 19 -12 10 -22 -17 -19 -16 2 -20 1 -10 -2 9 -3
17 -9 17 -14 0 -5 -7 -6 -17 -3 -10 4 -14 2 -10 -4 4 -6 0 -14 -9 -17 -27 -10
-72 -7 -81 6 -10 18 -13 88 -3 88 8 0 23 -27 24 -45 2 -16 32 -17 45 -2 8 10
9 22 1 41 -7 20 -16 26 -40 26 -32 0 -37 9 -18 28 17 17 43 15 88 -8z m-1040
-10 c0 -5 -7 -10 -16 -10 -8 0 -12 5 -9 10 3 6 10 10 16 10 5 0 9 -4 9 -10z
m-60 -10 c0 -5 -2 -10 -4 -10 -3 0 -8 5 -11 10 -3 6 -1 10 4 10 6 0 11 -4 11
-10z m805 -10 c3 -5 1 -10 -4 -10 -6 0 -11 5 -11 10 0 6 2 10 4 10 3 0 8 -4
11 -10z m164 -48 c1 -7 -3 -10 -9 -7 -5 3 -10 18 -9 33 0 24 1 25 9 7 5 -11 9
-26 9 -33z m79 36 c7 -7 12 -19 12 -27 0 -11 -4 -10 -20 4 -21 19 -26 35 -12
35 4 0 13 -5 20 -12z m-998 -45 c0 -7 -9 -13 -20 -13 -21 0 -27 -15 -10 -25
16 -10 11 -25 -9 -25 -13 0 -18 6 -16 24 2 14 6 29 9 35 4 5 2 12 -4 16 -22
14 -8 23 20 12 17 -6 30 -17 30 -24z m307 -31 c3 -36 3 -36 -10 -12 -7 14 -11
33 -9 43 7 26 15 12 19 -31z m487 1 c-9 -37 -8 -36 -29 -13 -16 18 -16 20 -2
20 10 0 17 5 17 10 0 6 5 10 10 10 6 0 8 -11 4 -27z m-503 -115 c1 -13 0 -29
-1 -37 -1 -11 7 -12 35 -8 28 5 36 3 32 -7 -3 -8 3 -16 14 -19 10 -3 19 -10
19 -16 0 -8 -10 -6 -30 4 -40 21 -59 19 -64 -7 -11 -52 -17 -158 -9 -159 4 0
20 -2 36 -4 15 -2 27 1 27 6 0 5 5 9 10 9 6 0 10 -9 10 -20 0 -22 -11 -24 -72
-14 -37 6 -38 8 -38 47 0 23 5 67 12 99 9 41 9 61 2 66 -13 8 -6 82 7 82 5 0
10 -10 10 -22z m-181 -14 c0 -9 -10 -14 -27 -13 -19 1 -22 3 -10 6 18 5 18 5
0 18 -16 12 -15 13 10 8 15 -3 27 -12 27 -19z m-6 -30 c9 -3 16 -10 16 -16 0
-5 -4 -6 -10 -3 -10 6 -15 -13 -12 -47 1 -14 -3 -14 -28 -5 -34 13 -41 28 -8
19 14 -3 19 -2 14 6 -4 7 -14 12 -22 12 -8 0 -13 4 -10 9 3 5 16 7 29 5 l22
-5 -22 10 c-13 6 -23 13 -23 16 0 7 35 6 54 -1z m233 -50 c-3 -3 -12 -4 -19
-1 -8 3 -5 6 6 6 11 1 17 -2 13 -5z m98 -46 c39 -12 72 -26 75 -30 3 -3 14 -6
25 -5 14 1 19 -4 18 -18 -1 -17 1 -17 18 5 10 14 19 29 19 34 0 9 29 6 128
-15 55 -11 63 -16 68 -38 3 -14 9 -40 13 -58 16 -59 -46 -159 -162 -262 -16
-13 -27 -34 -27 -49 0 -25 0 -25 -21 -6 -16 14 -36 19 -85 19 l-64 0 0 51 c0
61 27 144 75 230 l36 64 -38 -1 c-23 -1 -29 -3 -15 -6 12 -2 20 -8 17 -13 -3
-5 -13 -6 -23 -3 -14 6 -15 4 -5 -8 10 -13 6 -30 -21 -95 -39 -93 -60 -175
-52 -202 4 -12 -4 -32 -25 -58 -38 -48 -47 -69 -65 -166 -8 -42 -24 -98 -35
-124 -22 -50 -34 -150 -18 -159 20 -13 7 -25 -29 -25 -39 0 -82 28 -82 53 0 7
5 4 11 -5 5 -10 15 -18 20 -18 6 0 8 8 5 18 -3 9 -1 24 4 32 5 9 5 19 -2 27
-13 16 -2 63 16 63 9 0 12 -9 8 -27 -2 -16 -2 -25 2 -22 3 3 13 49 21 103 8
53 17 101 20 106 3 5 0 12 -6 16 -8 4 -7 9 2 15 11 7 10 9 -5 9 -12 0 -16 5
-12 15 3 9 0 15 -10 15 -8 0 -12 4 -9 10 3 5 8 20 10 32 3 12 10 25 17 30 10
6 10 8 -2 9 -10 0 -8 3 5 9 17 7 17 9 3 9 -10 1 -18 6 -18 11 0 6 8 10 18 10
14 0 15 2 2 10 -13 8 -12 10 3 10 16 0 17 1 1 26 -16 24 -16 25 5 31 20 5 20
6 4 19 -17 12 -16 13 7 15 17 1 20 3 8 6 -10 2 -18 9 -18 14 0 5 8 10 18 10
16 1 16 2 0 6 -26 6 -22 23 5 23 22 1 22 1 2 13 -29 17 -20 47 13 48 24 0 25
1 7 9 -18 8 -18 9 5 10 14 1 33 2 43 1 12 -2 17 5 17 23 0 14 4 26 9 26 5 0 8
8 7 17 -1 22 58 44 99 37 20 -4 26 -2 17 4 -8 5 -13 13 -13 18 2 16 -96 16
-149 0 l-50 -15 0 40 c0 37 1 39 33 39 17 0 64 -10 102 -22z m-185 -32 c0 -39
-2 -44 -20 -39 -14 4 -22 -1 -29 -18 -8 -20 -9 -17 -8 19 1 34 7 48 26 63 13
10 25 19 27 19 2 0 4 -20 4 -44z m330 24 c0 -5 -4 -10 -10 -10 -5 0 -10 5 -10
10 0 6 5 10 10 10 6 0 10 -4 10 -10z m-510 -40 c0 -5 -5 -10 -11 -10 -5 0 -7
5 -4 10 3 6 8 10 11 10 2 0 4 -4 4 -10z m-57 -15 c-3 -9 -8 -14 -10 -11 -3 3
-2 9 2 15 9 16 15 13 8 -4z m-39 -20 c-4 -8 -14 -15 -23 -15 -14 1 -13 3 3 15
25 19 27 19 20 0z m1415 -22 c-11 -49 -11 -83 0 -83 5 0 11 18 15 40 7 42 25
46 27 7 1 -17 3 -15 8 7 3 16 12 31 19 34 19 6 15 -49 -7 -99 -11 -25 -24 -92
-31 -152 -6 -60 -15 -119 -20 -133 -6 -15 -6 -24 0 -24 17 0 28 44 36 137 4
48 13 106 20 128 11 34 12 5 11 -210 -1 -137 -4 -277 -7 -311 l-5 -61 -30 13
c-29 13 -30 13 -5 15 17 1 20 3 8 6 -20 5 -24 29 -6 35 15 5 1 28 -17 28 -8 0
-28 -13 -45 -29 -30 -27 -31 -30 -14 -40 19 -10 19 -10 0 -11 -11 0 -16 -5
-13 -14 3 -7 0 -19 -6 -25 -9 -10 -6 -11 16 -6 22 6 27 4 28 -11 0 -11 3 -14
6 -6 2 6 14 13 26 13 17 1 18 2 5 6 -10 2 -18 10 -18 18 0 9 7 11 23 7 35 -9
47 -27 47 -72 l0 -41 -27 20 c-25 18 -83 37 -167 56 -22 5 -26 9 -17 18 18 18
13 33 -16 46 -24 10 -26 10 -10 -2 20 -16 22 -34 5 -39 -25 -9 5 -27 74 -43
80 -19 128 -40 128 -55 0 -14 -537 -13 -545 0 -4 6 -24 18 -46 27 -48 19 -49
30 -4 39 41 7 51 19 36 38 -22 26 -115 41 -416 67 -71 6 -131 12 -132 13 -1 1
1 12 4 25 6 23 7 23 122 17 129 -7 256 -20 346 -36 63 -11 217 -23 200 -16 -5
3 -41 8 -80 12 -67 7 -68 7 -33 15 22 5 48 5 63 -1 15 -6 41 -9 58 -9 l32 1
-30 7 c-29 7 -30 7 -8 19 12 7 46 19 75 27 42 12 45 14 16 11 -43 -5 -43 -5
-24 32 7 15 17 38 20 52 7 23 6 23 -13 -5 -22 -32 -27 -23 -11 19 6 17 17 26
31 26 17 0 20 5 16 21 -6 22 24 42 31 21 8 -24 22 -11 22 19 0 27 2 30 15 19
13 -10 15 -9 15 9 0 24 -34 30 -43 7 -4 -10 -22 -13 -73 -9 -58 4 -66 2 -60
-12 5 -14 1 -16 -22 -10 -21 4 -33 1 -46 -14 -22 -24 -13 -43 18 -35 15 3 30
-3 49 -20 33 -31 33 -34 0 -85 -29 -45 -49 -54 -39 -18 3 12 8 33 11 47 4 19
3 18 -6 -5 -16 -42 -28 -55 -45 -48 -10 4 -11 10 -3 24 20 39 -15 53 -46 19
-14 -15 -15 -20 -4 -21 8 0 3 -5 -10 -10 -17 -7 -22 -15 -18 -30 5 -18 2 -20
-25 -14 -21 5 -28 4 -24 -4 4 -6 17 -11 29 -12 14 -1 10 -4 -13 -9 -38 -9 -90
-3 -90 11 0 5 6 9 14 9 17 0 58 49 51 60 -3 5 -1 11 5 15 5 3 10 15 10 25 0
10 14 30 30 44 35 29 73 108 72 148 -1 34 12 44 67 52 35 5 57 18 104 62 49
46 64 54 85 49 27 -7 62 17 62 42 0 22 56 73 79 73 17 0 19 -5 14 -37 -3 -21
-10 -42 -14 -47 -5 -6 -9 -18 -9 -28 0 -10 -11 -24 -25 -30 -29 -13 -34 -31
-7 -26 9 1 18 0 20 -2 5 -8 -16 -57 -27 -65 -6 -3 -11 -18 -10 -33 1 -15 -1
-48 -6 -74 -6 -41 -5 -48 9 -48 13 0 15 -6 10 -27 -10 -39 -46 -86 -55 -72 -4
6 -12 8 -18 5 -6 -4 -11 0 -11 9 0 11 -7 15 -22 13 -15 -2 -23 -10 -23 -23 0
-16 6 -20 28 -18 24 2 27 0 17 -13 -7 -7 -18 -14 -26 -14 -7 0 -16 -4 -19 -10
-8 -12 24 0 82 31 29 15 44 31 48 50 4 15 13 33 21 40 17 14 19 49 3 49 -7 0
-6 9 4 23 13 21 21 62 18 92 -3 20 -21 -21 -21 -46 0 -15 -6 -32 -14 -38 -11
-9 -12 -2 -8 41 2 29 9 58 16 63 12 11 14 18 27 85 5 25 13 54 18 65 20 42 28
90 18 107 -13 20 6 48 33 48 16 0 17 -5 9 -37z m-1212 2 c-8 -19 -23 -19 -30
-1 -4 10 -1 13 9 9 7 -3 14 1 14 8 0 7 3 10 6 6 4 -3 4 -13 1 -22z m-257 11
c0 -2 -7 -7 -16 -10 -8 -3 -12 -2 -9 4 6 10 25 14 25 6z m205 -45 c-6 -4 -26
-11 -45 -15 -32 -5 -34 -5 -16 9 21 16 77 22 61 6z m-679 -366 c35 -47 44 -67
44 -101 0 -22 11 -71 24 -108 13 -36 20 -66 14 -66 -16 0 -138 71 -138 81 0 5
11 4 26 -1 23 -9 25 -8 19 12 -6 17 -4 20 9 15 9 -4 16 -4 16 -1 0 12 -29 34
-44 34 -21 0 -20 27 2 39 11 7 12 11 4 11 -19 0 -44 28 -37 40 4 6 -1 7 -11 3
-13 -5 -15 -3 -9 8 4 8 5 11 0 7 -20 -19 -35 17 -35 85 l0 71 36 -35 c20 -18
56 -61 80 -94z m1424 45 c0 -18 -47 -105 -64 -119 -14 -12 -16 -10 -16 8 0 22
-7 25 -34 15 -17 -7 -22 -34 -6 -34 20 0 9 -29 -12 -32 -13 -2 -29 -15 -36
-30 -11 -24 -19 -28 -54 -28 -45 0 -48 6 -8 12 27 3 54 43 46 65 -7 17 -17 16
-41 -1 -16 -12 -17 -16 -6 -30 11 -13 9 -16 -16 -22 -15 -3 -45 -12 -67 -19
-21 -6 -54 -10 -73 -8 -19 2 -40 0 -47 -5 -6 -5 -19 -6 -30 -3 -17 6 -16 9 9
25 29 19 50 21 103 10 30 -6 37 -2 75 38 50 53 109 88 142 86 29 -3 75 21 75
38 0 13 37 44 52 44 5 0 8 -5 8 -10z m-1091 -36 c17 -14 39 -26 50 -27 16 -1
17 -5 8 -24 -8 -19 -7 -27 9 -41 17 -17 20 -17 31 -3 11 14 12 14 13 -1 0 -19
20 -26 20 -8 0 6 7 10 15 10 8 0 15 -7 15 -15 0 -12 -13 -15 -61 -15 -33 0
-58 -4 -55 -9 3 -5 26 -6 50 -4 53 6 119 -4 111 -18 -4 -5 -18 -9 -31 -9 -16
0 -24 -5 -22 -12 3 -9 42 -14 131 -18 69 -3 128 -7 131 -10 7 -8 -22 -117 -41
-154 -8 -15 -13 -39 -10 -52 l4 -24 -289 0 c-227 1 -288 3 -280 13 9 11 -10
113 -30 167 -15 39 -28 84 -24 87 2 2 50 -1 107 -7 57 -5 122 -9 144 -8 51 4
58 -14 11 -25 -42 -10 -45 -20 -14 -41 18 -13 57 -16 215 -16 131 0 193 3 193
11 0 7 -45 10 -137 9 -226 -3 -265 -1 -261 12 3 7 19 17 36 22 18 5 32 15 32
22 0 16 -33 22 -190 29 -159 7 -150 6 -150 21 0 9 13 12 48 9 107 -10 183 -12
188 -4 3 5 -22 9 -55 9 -38 0 -61 4 -61 11 0 7 17 10 45 7 37 -3 45 0 45 14 0
28 19 31 26 3 8 -31 19 -32 29 -2 6 19 8 19 12 5 6 -24 23 -23 25 2 0 11 1 26
2 33 1 6 -6 12 -14 12 -8 0 -20 6 -26 14 -9 11 -14 10 -27 -10 l-17 -23 0 22
c0 15 -6 22 -19 22 -24 0 -34 -25 -21 -50 15 -27 13 -30 -19 -30 -20 0 -30 6
-34 20 -6 23 -35 27 -43 5 -4 -8 -1 -22 6 -30 17 -20 -13 -32 -43 -16 l-22 11
23 -6 c20 -5 22 -2 22 30 0 26 -4 36 -15 36 -21 0 -31 -30 -14 -41 11 -7 9 -9
-8 -9 -23 0 -48 33 -38 50 3 6 21 10 39 10 41 0 93 17 126 41 35 26 73 23 109
-7z m1007 -11 c-10 -10 -19 5 -10 18 6 11 8 11 12 0 2 -7 1 -15 -2 -18z m-868
-9 c34 -10 26 -24 -10 -17 -39 7 -61 23 -32 23 10 0 29 -3 42 -6z m102 -23 c0
-6 -4 -13 -10 -16 -5 -3 -10 1 -10 9 0 9 5 16 10 16 6 0 10 -4 10 -9z m-675
-31 c3 -5 1 -10 -4 -10 -6 0 -11 5 -11 10 0 6 2 10 4 10 3 0 8 -4 11 -10z
m675 -66 c0 -2 -7 -1 -15 2 -8 4 -15 18 -15 33 l0 26 15 -29 c8 -15 15 -30 15
-32z m-53 14 c-3 -8 -6 -5 -6 6 -1 11 2 17 5 13 3 -3 4 -12 1 -19z m-610 -14
c-3 -3 -12 -4 -19 -1 -8 3 -5 6 6 6 11 1 17 -2 13 -5z m48 -34 c3 -5 -5 -12
-19 -16 -13 -3 -27 -12 -30 -20 -9 -22 -26 -16 -26 9 0 13 3 27 7 30 10 11 61
8 68 -3z m979 -1 c-6 -11 -44 -12 -44 -1 0 4 11 8 25 8 14 1 22 -2 19 -7z
m646 -9 c-6 -11 -15 -20 -20 -20 -6 0 -5 9 2 20 7 11 16 20 21 20 4 0 3 -9 -3
-20z m-313 -20 c-1 -18 -8 -20 -47 -19 -57 2 -80 8 -80 20 0 6 15 9 33 7 17
-3 43 -1 57 3 38 11 39 10 37 -11z m198 -2 c-19 -11 -30 -5 -21 11 4 6 14 7
22 4 15 -5 14 -7 -1 -15z m63 -14 c-10 -10 -23 -14 -34 -10 -16 6 -16 8 -4 16
8 6 24 10 35 10 18 0 18 -1 3 -16z m-1628 -29 c0 -8 -4 -15 -10 -15 -5 0 -10
7 -10 15 0 8 5 15 10 15 6 0 10 -7 10 -15z m117 -20 c79 -43 92 -58 93 -107 0
-33 -3 -38 -23 -38 -38 0 -121 31 -107 40 9 5 -1 18 -30 39 -24 17 -36 31 -27
31 9 0 19 -4 22 -10 3 -5 11 -10 17 -10 7 0 -1 14 -17 30 -31 32 -30 35 9 20
36 -13 32 -4 -6 20 -57 35 -3 23 69 -15z m-123 -31 c-9 -35 25 -69 101 -104
l60 -27 -75 1 c-41 1 -80 4 -86 8 -15 10 -18 148 -4 148 6 0 8 -10 4 -26z
m1141 12 c222 -16 365 -39 365 -61 0 -7 -16 -16 -36 -19 -47 -9 -42 -34 11
-61 l40 -20 -43 -3 c-24 -2 -49 2 -57 8 -10 8 -14 8 -17 -1 -6 -18 -437 3
-449 22 -11 17 -12 110 -1 125 10 16 33 22 67 19 17 -2 71 -6 120 -9z m248
-177 l737 -12 0 -118 c0 -65 -3 -124 -6 -133 -6 -15 -149 -19 -869 -19 -27 0
-149 3 -270 6 -121 4 -393 9 -604 12 -211 2 -386 6 -388 9 -9 8 -16 202 -9
239 l7 35 332 -4 c182 -2 664 -9 1070 -15z"/>
<path d="M680 3196 c-18 -22 -5 -48 22 -44 17 2 23 10 23 28 0 29 -26 38 -45
16z"/>
<path d="M803 2722 c-17 -5 -20 -11 -13 -22 8 -12 11 -12 27 2 10 9 29 18 43
21 22 4 21 4 -5 5 -16 0 -40 -3 -52 -6z"/>
<path d="M956 2393 c-6 -14 -5 -15 5 -6 7 7 10 15 7 18 -3 3 -9 -2 -12 -12z"/>
<path d="M1018 2373 c7 -3 16 -2 19 1 4 3 -2 6 -13 5 -11 0 -14 -3 -6 -6z"/>
<path d="M1008 2343 c6 -2 18 -2 25 0 6 3 1 5 -13 5 -14 0 -19 -2 -12 -5z"/>
<path d="M980 2329 c0 -5 11 -9 25 -9 14 0 25 2 25 4 0 2 -11 6 -25 8 -14 3
-25 1 -25 -3z"/>
<path d="M1440 2390 l-45 -7 47 -1 c26 -1 50 3 53 8 3 6 3 9 -2 8 -4 0 -28 -4
-53 -8z"/>
<path d="M518 1963 c7 -3 16 -2 19 1 4 3 -2 6 -13 5 -11 0 -14 -3 -6 -6z"/>
<path d="M510 1936 c0 -2 7 -7 16 -10 8 -3 12 -2 9 4 -6 10 -25 14 -25 6z"/>
<path d="M280 1290 c0 -5 7 -10 16 -10 8 0 12 5 9 10 -3 6 -10 10 -16 10 -5 0
-9 -4 -9 -10z"/>
<path d="M236 1272 c-3 -6 -1 -14 5 -17 15 -10 25 3 12 16 -7 7 -13 7 -17 1z"/>
<path d="M196 1262 c-7 -12 22 -38 31 -28 4 3 0 14 -9 22 -9 10 -18 12 -22 6z"/>
<path d="M754 2118 c1 -7 12 -14 24 -16 17 -3 20 1 16 13 -5 11 -10 13 -19 5
-9 -8 -15 -8 -18 0 -3 6 -4 5 -3 -2z"/>
<path d="M1920 1990 c0 -5 5 -10 10 -10 6 0 10 5 10 10 0 6 -4 10 -10 10 -5 0
-10 -4 -10 -10z"/>
<path d="M1842 1942 c4 -12 2 -25 -3 -28 -5 -3 -9 -21 -7 -39 1 -25 8 -37 26
-45 14 -6 26 -9 28 -7 2 2 6 23 9 48 5 40 3 46 -27 69 -31 24 -31 24 -26 2z"/>
<path d="M1846 1804 c-4 -10 -1 -14 6 -12 15 5 23 28 10 28 -5 0 -13 -7 -16
-16z"/>
<path d="M672 1868 c-16 -16 -15 -28 3 -28 9 0 12 6 9 15 -5 11 -2 13 12 8 12
-4 15 -3 10 5 -9 15 -19 15 -34 0z"/>
<path d="M1008 1053 c7 -3 16 -2 19 1 4 3 -2 6 -13 5 -11 0 -14 -3 -6 -6z"/>
<path d="M919 1223 c-13 -16 -12 -17 4 -4 9 7 17 15 17 17 0 8 -8 3 -21 -13z"/>
<path d="M2047 1014 c-14 -14 -7 -44 11 -44 15 0 17 -10 15 -85 -1 -46 -7 -93
-12 -104 -6 -10 -10 -35 -9 -54 1 -20 -5 -43 -12 -52 -7 -8 -10 -18 -6 -22 3
-3 6 -1 6 5 0 7 5 12 11 12 5 0 7 -6 3 -12 -6 -10 -4 -10 7 -2 8 6 24 15 37
18 30 10 30 -18 -1 -64 -31 -46 -41 -73 -25 -68 7 3 15 13 18 24 3 10 13 30
22 44 10 14 24 44 32 68 12 34 13 42 2 42 -8 0 -19 -7 -26 -15 -7 -8 -21 -15
-32 -15 -17 0 -19 5 -15 38 11 72 20 107 34 128 14 22 8 58 -8 48 -5 -3 -9 13
-9 35 0 23 -6 43 -14 48 -7 4 -15 14 -17 21 -3 7 -8 10 -12 6z"/>
<path d="M1825 968 c-28 -15 -68 -58 -61 -65 3 -4 15 2 25 11 19 18 20 17 12
-10 -4 -16 -17 -34 -29 -40 -33 -17 -33 -19 0 -19 23 0 32 5 34 20 2 10 13 27
26 37 15 12 17 16 6 12 -29 -10 -21 5 15 27 25 16 27 20 10 16 -13 -3 -23 -3
-23 -1 0 3 10 9 23 14 20 8 20 9 2 9 -11 0 -29 -5 -40 -11z"/>
<path d="M2037 953 c-11 -10 -8 -63 3 -63 6 0 10 16 10 35 0 36 -2 40 -13 28z"/>
<path d="M1670 868 c0 -11 57 -10 64 1 3 5 -10 9 -29 8 -19 -1 -35 -5 -35 -9z"/>
<path d="M1862 868 c-7 -7 -12 -17 -12 -24 0 -7 -6 -14 -12 -17 -7 -2 -10 -8
-6 -12 9 -10 70 34 65 48 -5 16 -21 19 -35 5z"/>
<path d="M1683 843 c9 -2 25 -2 35 0 9 3 1 5 -18 5 -19 0 -27 -2 -17 -5z"/>
<path d="M1675 820 c3 -5 16 -10 28 -9 21 0 21 1 2 9 -28 12 -37 12 -30 0z"/>
<path d="M1678 793 c7 -3 16 -2 19 1 4 3 -2 6 -13 5 -11 0 -14 -3 -6 -6z"/>
<path d="M1591 689 c-13 -11 -21 -22 -18 -25 11 -11 62 12 65 29 5 23 -18 21
-47 -4z"/>
<path d="M1670 705 c0 -8 27 -35 34 -35 14 0 4 20 -14 30 -11 6 -20 8 -20 5z"/>
<path d="M1940 555 c14 -8 32 -14 40 -14 8 0 0 6 -19 14 -42 19 -54 19 -21 0z"/>
<path d="M1877 540 c-14 -17 -14 -20 -2 -20 8 0 15 6 15 14 0 8 6 17 13 19 6
3 7 6 2 6 -6 1 -18 -8 -28 -19z"/>
<path d="M1778 523 c12 -2 30 -2 40 0 9 3 -1 5 -23 4 -22 0 -30 -2 -17 -4z"/>
<path d="M1160 515 c37 -12 210 -30 226 -25 10 4 -15 10 -56 13 -41 3 -100 8
-130 11 -30 3 -48 3 -40 1z"/>
<path d="M1428 483 c12 -2 32 -2 45 0 12 2 2 4 -23 4 -25 0 -35 -2 -22 -4z"/>
<path d="M1733 483 c9 -2 25 -2 35 0 9 3 1 5 -18 5 -19 0 -27 -2 -17 -5z"/>
<path d="M1550 470 c0 -5 10 -10 23 -10 12 0 33 -3 47 -5 14 -3 19 -3 12 1 -6
3 -10 10 -6 15 3 5 -13 9 -35 9 -23 0 -41 -4 -41 -10z"/>
<path d="M1803 473 c9 -2 23 -2 30 0 6 3 -1 5 -18 5 -16 0 -22 -2 -12 -5z"/>
<path d="M1688 463 c7 -3 16 -2 19 1 4 3 -2 6 -13 5 -11 0 -14 -3 -6 -6z"/>
<path d="M1758 453 c7 -3 16 -2 19 1 4 3 -2 6 -13 5 -11 0 -14 -3 -6 -6z"/>
<path d="M1697 429 c9 -9 10 -16 1 -26 -8 -11 -7 -12 6 -7 21 8 21 30 -1 39
-14 5 -15 4 -6 -6z"/>
<path d="M1795 390 c-8 -13 13 -40 31 -40 7 0 18 -8 24 -17 8 -13 13 -14 16
-5 3 6 20 13 37 13 36 1 25 5 -46 14 -42 6 -48 9 -44 26 5 20 -7 26 -18 9z"/>
<path d="M1624 379 c-9 -15 5 -27 41 -33 l30 -6 -28 11 c-18 7 -26 16 -23 25
6 16 -10 19 -20 3z"/>
<path d="M1960 339 c0 -5 11 -9 24 -9 13 0 33 -3 43 -7 10 -3 15 -3 11 1 -10
12 -78 25 -78 15z"/>
<path d="M1718 333 c6 -2 18 -2 25 0 6 3 1 5 -13 5 -14 0 -19 -2 -12 -5z"/>
<path d="M290 560 c0 -5 5 -10 11 -10 5 0 7 5 4 10 -3 6 -8 10 -11 10 -2 0 -4
-4 -4 -10z"/>
<path d="M265 550 c-3 -5 -1 -10 4 -10 6 0 11 5 11 10 0 6 -2 10 -4 10 -3 0
-8 -4 -11 -10z"/>
<path d="M435 470 c3 -5 8 -10 11 -10 2 0 4 5 4 10 0 6 -5 10 -11 10 -5 0 -7
-4 -4 -10z"/>
<path d="M330 460 c0 -5 5 -10 10 -10 6 0 10 5 10 10 0 6 -4 10 -10 10 -5 0
-10 -4 -10 -10z"/>
<path d="M365 450 c-3 -5 -1 -10 4 -10 6 0 11 5 11 10 0 6 -2 10 -4 10 -3 0
-8 -4 -11 -10z"/>
<path d="M600 410 c0 -5 5 -10 10 -10 6 0 10 5 10 10 0 6 -4 10 -10 10 -5 0
-10 -4 -10 -10z"/>
<path d="M630 409 c0 -5 5 -7 10 -4 6 3 10 8 10 11 0 2 -4 4 -10 4 -5 0 -10
-5 -10 -11z"/>
<path d="M701 404 c0 -11 3 -14 6 -6 3 7 2 16 -1 19 -3 4 -6 -2 -5 -13z"/>
<path d="M480 396 c0 -9 5 -16 10 -16 6 0 10 4 10 9 0 6 -4 13 -10 16 -5 3
-10 -1 -10 -9z"/>
<path d="M515 400 c-3 -5 -1 -10 4 -10 6 0 11 5 11 10 0 6 -2 10 -4 10 -3 0
-8 -4 -11 -10z"/>
<path d="M800 400 c0 -5 5 -10 10 -10 6 0 10 5 10 10 0 6 -4 10 -10 10 -5 0
-10 -4 -10 -10z"/>
<path d="M380 389 c0 -5 5 -7 10 -4 6 3 10 8 10 11 0 2 -4 4 -10 4 -5 0 -10
-5 -10 -11z"/>
<path d="M710 372 c0 -4 10 -9 22 -9 18 -2 20 0 8 7 -18 12 -30 13 -30 2z"/>
<path d="M520 360 c0 -5 5 -10 10 -10 6 0 10 5 10 10 0 6 -4 10 -10 10 -5 0
-10 -4 -10 -10z"/>
<path d="M560 360 c0 -5 5 -10 11 -10 5 0 7 5 4 10 -3 6 -8 10 -11 10 -2 0 -4
-4 -4 -10z"/>
<path d="M805 350 c-3 -5 -1 -10 4 -10 6 0 11 5 11 10 0 6 -2 10 -4 10 -3 0
-8 -4 -11 -10z"/>
<path d="M1478 413 c6 -2 18 -2 25 0 6 3 1 5 -13 5 -14 0 -19 -2 -12 -5z"/>
<path d="M1436 381 c-3 -5 1 -12 10 -15 22 -8 25 -4 9 11 -8 7 -16 9 -19 4z"/>
<path d="M84 243 c3 -8 6 -44 6 -79 0 -56 2 -64 19 -64 16 0 18 5 14 40 -3 22
-2 40 3 40 5 -1 27 -19 49 -40 25 -25 49 -40 65 -40 25 0 25 0 -5 19 -66 43
-81 59 -69 77 5 10 25 25 44 36 30 15 31 18 12 18 -13 0 -35 -11 -50 -25 -35
-32 -56 -33 -50 -1 4 19 0 25 -19 29 -18 3 -23 1 -19 -10z"/>
<path d="M298 183 c4 -84 7 -94 27 -87 12 5 13 10 5 20 -6 7 -10 27 -8 44 l3
32 32 -46 c21 -29 40 -46 53 -46 18 0 20 6 20 70 0 40 -4 70 -10 70 -5 0 -10
-26 -10 -57 l-1 -58 -21 40 c-26 51 -57 85 -78 85 -13 0 -15 -10 -12 -67z"/>
<path d="M495 243 c-18 -3 -20 -12 -20 -71 0 -59 2 -67 20 -70 18 -2 20 3 20
73 0 41 0 74 0 74 0 -1 -9 -4 -20 -6z"/>
<path d="M571 225 c-21 -18 -31 -36 -31 -54 0 -36 38 -71 77 -71 26 0 31 4 35
30 4 28 2 30 -26 30 -23 0 -27 -3 -18 -12 14 -14 16 -28 3 -28 -33 0 -55 72
-29 98 15 15 48 16 48 2 0 -5 5 -10 10 -10 6 0 10 7 10 15 0 8 -4 15 -9 15 -5
0 -16 2 -24 6 -8 3 -28 -7 -46 -21z"/>
<path d="M682 170 c-2 -64 -1 -70 18 -70 16 0 20 7 20 35 0 23 6 38 16 42 21
8 33 -6 36 -45 2 -23 7 -32 20 -32 16 0 18 9 18 70 0 67 -1 70 -24 70 -19 0
-22 -4 -18 -25 4 -22 1 -25 -22 -25 -21 0 -26 5 -26 25 0 17 -5 25 -17 25 -15
0 -18 -11 -21 -70z"/>
<path d="M825 230 c-12 -20 7 -32 21 -13 12 16 13 10 14 -49 0 -58 3 -68 18
-68 15 0 17 8 14 61 l-4 62 26 -7 c28 -7 36 8 10 18 -25 10 -92 7 -99 -4z"/>
<path d="M1280 227 c-33 -17 -55 -57 -47 -88 11 -44 84 -64 123 -34 18 14 17
15 -17 9 -49 -8 -79 9 -79 44 0 34 16 52 46 52 16 0 24 -7 26 -22 4 -22 5 -22
18 5 7 15 11 29 9 31 -14 12 -58 13 -79 3z"/>
<path d="M1415 177 c1 -29 5 -59 9 -65 4 -7 29 -12 57 -12 48 0 49 1 38 21 -6
12 -9 42 -6 65 3 30 1 44 -7 44 -8 0 -13 -20 -15 -52 -2 -58 -11 -74 -35 -65
-12 5 -16 21 -16 62 0 40 -4 55 -14 55 -10 0 -13 -14 -11 -53z"/>
<path d="M1558 160 l-3 -70 30 0 c22 0 26 3 17 12 -24 24 -14 53 21 63 25 8
32 15 32 35 0 23 -4 25 -47 28 l-46 3 -4 -71z m67 50 c8 -13 -14 -42 -26 -34
-5 3 -9 14 -9 25 0 20 24 26 35 9z"/>
<path d="M1692 193 c2 -23 9 -29 38 -33 31 -4 36 -9 40 -39 4 -31 6 -32 19
-18 8 10 11 27 7 41 -5 20 -13 25 -44 28 -31 3 -37 7 -36 26 0 12 -5 22 -13
22 -10 0 -13 -9 -11 -27z"/>
<path d="M1744 205 c8 -8 17 -15 20 -15 3 0 6 7 6 15 0 9 -9 15 -21 15 -18 0
-19 -2 -5 -15z"/>
<path d="M1033 195 c-3 -9 3 -25 13 -36 13 -15 19 -36 19 -70 0 -27 3 -49 7
-49 11 0 21 47 16 75 -4 17 -1 25 9 25 8 0 13 6 10 13 -2 6 -11 12 -20 12 -9
0 -22 6 -29 13 -10 10 -10 15 2 22 13 8 12 10 -3 10 -10 0 -20 -7 -24 -15z"/>
<path d="M980 145 c-10 -12 -10 -18 0 -30 7 -8 18 -15 25 -15 7 0 18 7 25 15
10 12 10 18 0 30 -7 8 -18 15 -25 15 -7 0 -18 -7 -25 -15z m30 -15 c0 -5 -2
-10 -4 -10 -3 0 -8 5 -11 10 -3 6 -1 10 4 10 6 0 11 -4 11 -10z"/>
<path d="M1687 123 c-17 -16 -4 -29 30 -31 l37 -3 -26 21 c-29 22 -32 23 -41
13z"/>
<path d="M1860 100 c0 -5 4 -10 9 -10 6 0 13 5 16 10 3 6 -1 10 -9 10 -9 0
-16 -4 -16 -10z"/>
<path d="M102 3784 c10 -10 1086 -15 1223 -6 94 7 -60 9 -549 11 -374 0 -677
-2 -674 -5z"/>
<path d="M1833 3783 c26 -2 68 -2 95 0 26 2 4 3 -48 3 -52 0 -74 -1 -47 -3z"/>
<path d="M2013 3783 c15 -2 39 -2 55 0 15 2 2 4 -28 4 -30 0 -43 -2 -27 -4z"/>
<path d="M160 3516 c0 -8 6 -16 14 -19 10 -4 14 0 13 14 -1 21 -27 27 -27 5z"/>
<path d="M1427 3063 c18 -2 50 -2 70 0 21 2 7 4 -32 4 -38 0 -55 -2 -38 -4z"/>
<path d="M1611 2440 c-35 -5 -66 -12 -69 -15 -12 -12 7 -14 44 -3 46 13 196
16 239 5 20 -6 27 -5 20 2 -14 15 -159 21 -234 11z"/>
</g>
</svg>
