<?xml version="1.0" standalone="no"?>
<!DOCTYPE svg PUBLIC "-//W3C//DTD SVG 20010904//EN"
 "http://www.w3.org/TR/2001/REC-SVG-20010904/DTD/svg10.dtd">
<svg version="1.0" xmlns="http://www.w3.org/2000/svg"
 width="215.000000pt" height="370.000000pt" viewBox="0 0 215.000000 370.000000"
 preserveAspectRatio="xMidYMid meet">
<metadata>
Created by potrace 1.16, written by Peter Selinger 2001-2019
</metadata>
<g transform="translate(0.000000,370.000000) scale(0.100000,-0.100000)"
fill="#000000" stroke="none">
<path d="M610 3680 l-595 -5 4 -1430 c2 -786 5 -1531 6 -1655 1 -124 3 -305 4
-404 l1 -178 1048 7 c691 4 1051 10 1059 17 10 8 12 40 8 122 -11 271 -19
1436 -25 3364 l0 172 -457 -2 c-252 -2 -726 -5 -1053 -8z m1446 -19 l41 -1 3
-237 c1 -131 3 -254 3 -273 1 -19 0 -88 -1 -152 -2 -100 -4 -117 -17 -112 -10
4 -15 20 -15 45 0 46 -28 98 -41 77 -13 -20 -12 8 1 32 12 22 3 50 -16 50 -7
0 -18 10 -25 23 -6 12 -24 36 -39 52 -15 17 -31 41 -35 55 -11 39 -45 70 -74
69 -25 -2 -25 -2 -3 -6 13 -3 32 -19 43 -36 23 -39 26 -97 4 -97 -16 0 -39 36
-31 49 3 4 -6 13 -20 20 -20 9 -30 9 -40 0 -11 -9 -14 -9 -14 0 0 7 -5 9 -10
6 -15 -10 0 -27 17 -20 29 11 51 -5 58 -41 6 -33 8 -35 35 -29 22 5 31 1 44
-17 9 -12 16 -32 16 -44 0 -12 9 -33 20 -46 21 -28 16 -45 -8 -25 -13 10 -15
8 -9 -12 6 -25 -7 -51 -25 -51 -6 0 -7 7 -4 16 4 9 1 23 -5 30 -9 11 -8 14 1
14 8 0 10 3 7 6 -4 4 -13 1 -22 -6 -11 -9 -12 -16 -4 -26 6 -7 8 -18 4 -24
-10 -16 -35 -12 -35 6 0 8 -4 12 -10 9 -5 -3 -10 -1 -10 4 0 6 6 11 13 11 6 0
4 5 -5 11 -27 15 -21 37 12 44 38 8 51 27 13 19 -74 -15 -96 -9 -118 32 -12
22 -31 41 -49 47 -24 8 -26 11 -12 19 18 10 42 0 70 -31 22 -25 49 -27 66 -6
10 13 9 15 -9 16 -40 3 -46 5 -43 18 2 8 -3 11 -12 8 -11 -4 -18 1 -22 18 -8
33 3 75 20 75 7 0 19 7 27 16 11 13 11 15 -2 13 -7 -2 -39 6 -69 18 -111 42
-279 39 -417 -8 -113 -38 -157 -66 -215 -137 -74 -90 -96 -137 -110 -233 -10
-71 -9 -84 5 -109 15 -25 15 -29 1 -41 -24 -20 -44 -65 -44 -102 0 -18 -7 -42
-15 -53 -23 -30 -18 -36 26 -32 32 3 37 1 25 -8 -29 -21 -18 -48 28 -72 l43
-23 7 -200 c5 -124 4 -205 -2 -212 -5 -7 -13 -27 -17 -44 -3 -18 -10 -33 -14
-33 -5 0 -19 -11 -32 -24 -29 -28 -134 -45 -168 -27 -21 12 -30 61 -11 61 15
0 12 48 -2 53 -27 9 46 52 106 62 l61 11 3 57 c2 31 7 57 12 57 19 0 10 28
-10 33 -15 4 -20 14 -20 37 0 17 3 29 8 26 22 -13 67 57 63 99 -2 24 -59 75
-83 75 -25 0 -22 -13 5 -25 16 -7 23 -20 25 -47 2 -22 -1 -38 -7 -38 -6 0 -11
5 -11 10 0 6 -7 10 -15 10 -9 0 -15 -9 -15 -22 0 -19 -2 -20 -11 -8 -11 17 -7
-58 6 -97 5 -17 3 -23 -8 -23 -21 0 -32 -19 -18 -33 6 -6 11 -24 11 -39 l0
-28 -64 3 c-39 1 -59 5 -50 10 8 4 14 13 14 20 0 7 17 23 39 36 l39 24 -3 60
c-4 57 -7 63 -53 111 -27 28 -52 58 -56 66 -3 8 -15 29 -25 45 -22 33 -27 95
-10 112 8 8 5 15 -11 26 -15 11 -18 16 -8 20 10 5 9 9 -4 17 -10 6 -18 18 -18
25 0 8 -5 15 -11 15 -6 0 -8 -9 -4 -20 5 -14 2 -20 -9 -20 -9 0 -16 -4 -16
-10 0 -5 8 -10 18 -10 14 0 12 -4 -8 -20 -20 -15 -23 -21 -12 -31 18 -19 15
-75 -8 -119 -11 -22 -20 -48 -20 -58 0 -10 -16 -37 -36 -60 -37 -44 -67 -51
-91 -22 -12 13 -15 13 -27 -2 -20 -26 -26 -22 -26 16 0 25 7 40 25 54 15 12
21 23 15 27 -33 20 -90 -46 -90 -105 0 -32 32 -85 44 -73 3 3 6 1 6 -5 0 -7 7
-12 15 -12 17 0 9 -29 -13 -46 -13 -10 -13 -14 1 -35 10 -13 17 -40 17 -61 0
-43 17 -52 81 -43 33 5 51 1 85 -17 40 -21 59 -48 34 -48 -16 0 -12 -37 5 -44
27 -10 18 -46 -15 -57 -16 -6 -28 -14 -26 -18 2 -3 -2 -17 -10 -31 -7 -14 -13
-21 -14 -17 0 5 4 17 10 27 7 13 6 19 -6 24 -9 3 -20 4 -25 1 -8 -6 -29 -70
-29 -92 0 -22 30 -14 40 10 8 20 9 20 10 2 1 -15 6 -11 20 17 11 20 25 40 31
44 6 3 4 -4 -4 -17 -25 -40 -31 -69 -13 -69 9 0 16 6 16 14 0 8 5 18 11 22 8
4 9 -1 4 -16 -6 -20 -4 -22 19 -18 37 7 43 -10 9 -23 -20 -7 -38 -7 -64 0 -49
15 -59 13 -29 -4 33 -19 69 -19 113 0 42 17 93 20 102 5 12 -19 -62 -40 -139
-40 -40 0 -108 7 -151 16 -47 10 -87 13 -103 8 -34 -10 -42 -11 -70 -13 -13 0
-36 -13 -51 -29 l-28 -27 3 -170 c4 -188 -4 -236 -37 -228 -11 3 -25 17 -30
32 -11 26 -26 41 -45 41 -15 0 -48 -30 -62 -56 -7 -13 -24 -24 -42 -26 l-30
-5 0 176 c0 97 -2 622 -4 1167 -2 545 -1 996 3 1002 4 8 56 12 151 14 135 3
1775 2 1866 -1z m-363 -375 c31 -10 57 -19 57 -20 0 -2 -7 -17 -15 -34 l-16
-31 -37 17 c-28 12 -66 16 -152 16 -116 0 -116 0 -232 -49 -12 -5 -18 -3 -18
7 0 8 -11 21 -25 28 -21 11 -23 16 -13 26 16 14 102 43 166 54 69 13 218 5
285 -14z m-440 -80 c9 -7 17 -23 17 -35 0 -23 -10 -27 -28 -9 -8 8 -15 8 -28
-3 -16 -13 -17 -12 -12 9 4 12 2 20 -3 16 -5 -3 -9 -14 -9 -25 0 -15 6 -19 28
-17 38 3 53 -9 48 -37 -7 -40 -14 -44 -65 -41 -47 4 -48 3 -49 -25 -1 -34 7
-36 41 -9 14 11 34 20 45 20 12 0 24 5 27 10 3 6 13 10 21 10 8 0 13 -4 10 -9
-12 -19 25 -20 44 -1 43 43 202 64 279 36 l34 -12 -26 -17 c-33 -21 -34 -21
-40 3 -6 24 -44 27 -72 6 -16 -11 -17 -17 -7 -42 15 -39 32 -173 30 -237 -1
-46 -2 -48 -5 -12 -8 90 -34 249 -44 266 -13 25 -51 24 -74 -1 -14 -16 -16
-23 -7 -32 7 -7 12 -32 12 -57 0 -26 4 -63 9 -83 5 -21 5 -38 1 -38 -8 0 -30
100 -30 140 0 38 -18 49 -83 55 -54 6 -56 5 -82 -29 -23 -30 -78 -66 -102 -66
-4 0 -21 11 -36 25 -18 18 -27 21 -27 11 0 -7 7 -16 15 -20 8 -3 15 -13 15
-23 -1 -16 -2 -16 -13 -2 -7 9 -18 14 -24 12 -7 -3 -13 3 -13 12 0 9 -5 13
-11 9 -6 -3 -3 8 5 25 9 17 20 31 24 31 5 0 14 15 20 34 14 37 41 54 53 34 4
-7 11 -9 16 -5 4 4 2 16 -4 26 -6 10 -8 22 -3 27 4 5 11 20 14 34 l7 25 -20
-24 c-20 -22 -21 -23 -21 -2 0 40 85 66 123 37z m198 -79 c-8 -8 -11 -3 -11
19 1 25 2 27 11 11 8 -14 8 -22 0 -30z m26 11 c-3 -7 -5 -2 -5 12 0 14 2 19 5
13 2 -7 2 -19 0 -25z m50 0 c-3 -7 -5 -2 -5 12 0 14 2 19 5 13 2 -7 2 -19 0
-25z m30 10 c-3 -8 -6 -5 -6 6 -1 11 2 17 5 13 3 -3 4 -12 1 -19z m-147 -25
c0 -7 -4 -13 -10 -13 -5 0 -10 12 -10 28 0 21 2 24 10 12 5 -8 10 -21 10 -27z
m191 14 c-10 -9 -11 -8 -5 6 3 10 9 15 12 12 3 -3 0 -11 -7 -18z m367 -20 c24
-36 28 -62 12 -72 -10 -6 -14 1 -24 47 -3 15 -13 33 -21 42 -18 18 -19 27 -2
21 6 -3 22 -20 35 -38z m-855 9 c3 -8 -3 -22 -14 -32 -10 -9 -19 -21 -19 -27
0 -5 -13 -25 -30 -44 -16 -18 -30 -45 -30 -58 0 -13 -4 -27 -10 -30 -30 -19 5
88 52 156 35 52 43 57 51 35z m267 -7 c0 -6 -4 -7 -10 -4 -5 3 -10 11 -10 16
0 6 5 7 10 4 6 -3 10 -11 10 -16z m-27 -4 c4 -8 2 -17 -2 -20 -5 -2 -11 4 -14
15 -6 23 8 27 16 5z m-23 -16 c0 -6 -4 -7 -10 -4 -5 3 -10 11 -10 16 0 6 5 7
10 4 6 -3 10 -11 10 -16z m384 -60 c-9 -15 -18 -10 -30 16 -11 23 -11 24 12 8
13 -8 21 -19 18 -24z m302 5 c-4 -9 -9 -15 -11 -12 -3 3 -3 13 1 22 4 9 9 15
11 12 3 -3 3 -13 -1 -22z m-701 -66 c3 -24 9 -56 12 -73 3 -16 2 -27 -2 -23
-3 3 -10 28 -13 55 -7 46 -9 48 -39 48 -30 0 -31 1 -16 17 29 32 51 23 58 -24z
m389 -13 c7 -34 -7 -15 -19 25 -5 16 -4 22 3 15 5 -5 12 -23 16 -40z m333 19
c-3 -3 -12 -4 -19 -1 -8 3 -5 6 6 6 11 1 17 -2 13 -5z m-242 -13 c3 -5 1 -12
-5 -16 -5 -3 -10 1 -10 9 0 18 6 21 15 7z m205 -1 c0 -5 -4 -10 -10 -10 -5 0
-10 5 -10 10 0 6 5 10 10 10 6 0 10 -4 10 -10z m44 -68 c-4 -10 -7 -20 -6 -23
1 -4 -8 -9 -18 -12 -25 -6 -25 -2 0 23 11 11 21 35 21 53 2 31 2 31 6 4 3 -16
1 -36 -3 -45z m-831 38 c-3 -12 -8 -19 -11 -16 -5 6 5 36 12 36 2 0 2 -9 -1
-20z m781 1 c10 -15 -4 -39 -25 -44 -10 -3 -22 -1 -25 5 -3 5 3 12 15 15 12 3
21 10 21 15 0 5 -4 6 -10 3 -5 -3 -10 -1 -10 4 0 13 27 15 34 2z m33 -13 c-3
-8 -6 -5 -6 6 -1 11 2 17 5 13 3 -3 4 -12 1 -19z m-862 -8 c-3 -5 -10 -10 -16
-10 -5 0 -9 5 -9 10 0 6 7 10 16 10 8 0 12 -4 9 -10z m765 -5 c-13 -16 -40
-20 -40 -7 0 14 12 22 33 22 16 0 17 -3 7 -15z m-855 -4 c3 -5 1 -12 -5 -16
-5 -3 -10 1 -10 9 0 18 6 21 15 7z m41 -17 c-4 -9 -9 -15 -11 -12 -3 3 -3 13
1 22 4 9 9 15 11 12 3 -3 3 -13 -1 -22z m775 -10 c14 -30 15 -37 3 -49 -8 -7
-14 -19 -14 -26 0 -7 -6 -4 -15 7 -8 11 -15 14 -15 7 0 -7 -7 -13 -16 -13 -13
0 -14 3 -5 14 8 9 8 15 2 18 -7 2 -7 8 0 18 8 13 11 13 20 -2 5 -10 18 -18 27
-18 14 0 14 2 3 9 -7 5 -10 14 -7 20 4 6 1 11 -8 11 -9 0 -14 8 -13 20 2 31
20 23 38 -16z m-874 -16 c-3 -8 -6 -5 -6 6 -1 11 2 17 5 13 3 -3 4 -12 1 -19z
m143 12 c0 -5 -4 -10 -10 -10 -5 0 -10 5 -10 10 0 6 5 10 10 10 6 0 10 -4 10
-10z m50 0 c0 -5 -5 -10 -11 -10 -5 0 -7 5 -4 10 3 6 8 10 11 10 2 0 4 -4 4
-10z m730 0 c12 -8 11 -10 -7 -10 -13 0 -23 5 -23 10 0 13 11 13 30 0z m-908
-78 c14 -15 17 -23 8 -20 -23 7 -60 67 -53 86 5 12 9 10 14 -12 5 -16 18 -40
31 -54z m56 67 c-2 -6 -8 -10 -13 -10 -5 0 -11 4 -13 10 -2 6 4 11 13 11 9 0
15 -5 13 -11z m993 -6 c13 -15 12 -15 -8 -4 -24 12 -29 21 -14 21 5 0 15 -7
22 -17z m-951 -3 c0 -5 -7 -10 -16 -10 -8 0 -12 5 -9 10 3 6 10 10 16 10 5 0
9 -4 9 -10z m129 -35 c0 -5 -4 -3 -9 5 -5 8 -9 22 -9 30 0 16 17 -16 18 -35z
m100 0 c0 -5 -6 -1 -14 9 -8 11 -15 24 -15 30 0 5 7 1 15 -10 8 -10 14 -23 14
-29z m268 23 c-3 -8 -6 -5 -6 6 -1 11 2 17 5 13 3 -3 4 -12 1 -19z m-582 -18
c16 -17 16 -20 3 -15 -9 4 -19 13 -22 21 -7 19 -2 18 19 -6z m180 -5 c0 -18 8
-20 74 -23 61 -2 75 0 87 15 13 17 14 17 8 1 -8 -22 9 -24 26 -3 7 8 16 15 21
15 5 0 -6 -15 -26 -34 -30 -30 -35 -41 -35 -82 0 -63 -10 -51 -14 17 -2 46 -5
54 -22 54 -12 0 -18 -6 -18 -17 1 -10 -2 -15 -7 -12 -5 3 -9 12 -9 20 0 20
-30 17 -31 -3 0 -11 -3 -13 -6 -5 -10 26 -31 12 -31 -22 0 -28 4 -36 21 -38
11 -2 22 -9 23 -16 1 -7 0 -8 -3 -2 -2 5 -12 10 -20 10 -11 0 -14 -7 -11 -23
3 -16 0 -23 -11 -23 -9 -1 -22 -3 -30 -5 -9 -3 -14 8 -17 31 -2 19 -11 40 -19
46 -8 6 -15 16 -15 23 0 6 -6 11 -12 11 -8 1 -6 6 5 14 9 7 17 24 17 38 0 31
9 40 35 36 12 -2 20 -10 20 -23z m715 21 c0 -3 -4 -8 -10 -11 -5 -3 -10 -1
-10 4 0 6 5 11 10 11 6 0 10 -2 10 -4z m70 0 c0 -3 -4 -8 -10 -11 -5 -3 -10
-1 -10 4 0 6 5 11 10 11 6 0 10 -2 10 -4z m58 -8 c7 -7 12 -23 11 -37 l-1 -26
-9 26 c-5 15 -20 31 -32 37 -21 10 -21 11 -1 11 11 1 25 -4 32 -11z m-918 -18
c0 -11 -4 -20 -10 -20 -5 0 -10 9 -10 20 0 11 5 20 10 20 6 0 10 -9 10 -20z
m-35 0 c3 -5 -1 -10 -9 -10 -9 0 -16 5 -16 10 0 6 4 10 9 10 6 0 13 -4 16 -10z
m862 4 c-3 -3 -12 -4 -19 -1 -8 3 -5 6 6 6 11 1 17 -2 13 -5z m-857 -44 c0 -5
-7 -10 -16 -10 -8 0 -12 5 -9 10 3 6 10 10 16 10 5 0 9 -4 9 -10z m339 -23 c0
-21 -1 -21 -9 -2 -12 28 -12 37 0 30 6 -3 10 -16 9 -28z m471 9 c0 -21 -8 -26
-67 -40 -96 -23 -146 -25 -151 -5 -2 12 16 21 80 37 79 20 114 28 131 31 4 0
7 -10 7 -23z m-793 -31 c6 -14 8 -25 3 -25 -4 0 -7 -8 -6 -17 0 -10 -7 -19
-16 -21 -13 -2 -18 3 -18 17 0 24 -15 35 -37 27 -12 -5 -14 -9 -5 -18 7 -7 12
-20 12 -30 0 -10 9 -27 19 -37 19 -19 19 -19 0 -24 -13 -4 -17 -11 -13 -24 5
-16 4 -16 -7 1 -10 16 -10 21 1 24 7 3 8 7 4 11 -5 3 -17 20 -26 36 -10 17
-25 30 -37 30 -11 0 -24 5 -28 9 -4 5 -3 6 3 3 11 -6 24 12 24 34 0 14 -28 11
-33 -3 -3 -8 -6 -6 -6 5 -1 19 33 24 45 6 4 -7 20 -9 39 -6 24 4 35 1 39 -9 3
-8 13 -14 22 -14 8 0 14 6 11 13 -2 6 -9 11 -15 10 -6 -2 -9 4 -6 12 9 21 17
18 31 -10z m178 4 c10 -15 -1 -23 -20 -15 -9 3 -13 10 -10 16 8 13 22 13 30
-1z m762 -11 c-3 -8 -6 -5 -6 6 -1 11 2 17 5 13 3 -3 4 -12 1 -19z m-164 -27
c-12 -10 -44 -22 -70 -25 -26 -4 -56 -9 -65 -12 -10 -3 -18 -1 -18 5 0 5 17
13 38 17 20 3 55 12 77 20 54 18 64 17 38 -5z m-419 -41 c-6 -5 -24 21 -24 34
0 6 6 1 14 -10 8 -10 12 -21 10 -24z m506 36 c0 -3 -4 -8 -10 -11 -5 -3 -10
-1 -10 4 0 6 5 11 10 11 6 0 10 -2 10 -4z m-840 -27 c0 -11 -4 -18 -10 -14 -5
3 -7 12 -3 20 7 21 13 19 13 -6z m941 -11 c1 -18 1 -107 0 -196 -1 -157 -2
-165 -23 -183 -13 -10 -26 -18 -30 -19 -5 0 -8 91 -8 201 0 180 2 203 18 215
28 22 42 16 43 -18z m-911 18 c0 -3 -4 -8 -10 -11 -5 -3 -10 -1 -10 4 0 6 5
11 10 11 6 0 10 -2 10 -4z m717 -540 c3 -438 2 -536 -9 -536 -7 1 -35 7 -63
14 l-50 13 -3 389 c-1 214 -3 444 -5 510 l-2 122 60 14 c33 8 62 13 64 12 1
-2 5 -244 8 -538z m-1192 524 c-3 -5 -10 -10 -16 -10 -5 0 -9 5 -9 10 0 6 7
10 16 10 8 0 12 -4 9 -10z m307 -32 c-6 -6 -7 0 -4 19 5 21 7 23 10 9 2 -10 0
-22 -6 -28z m288 10 c0 -5 -5 -8 -11 -8 -5 0 -7 5 -4 10 3 6 1 10 -5 10 -6 0
-8 5 -4 11 6 11 23 -6 24 -23z m395 6 c-16 -13 -59 -33 -94 -44 -67 -21 -161
-27 -161 -10 0 6 19 10 41 10 47 0 173 35 204 56 33 24 42 15 10 -12z m-280
-4 c3 -5 1 -10 -4 -10 -6 0 -11 5 -11 10 0 6 2 10 4 10 3 0 8 -4 11 -10z m302
-15 c-15 -13 -45 -30 -67 -36 -22 -7 -40 -16 -40 -20 0 -12 62 9 92 31 31 23
38 24 38 9 0 -5 -28 -24 -62 -40 -38 -18 -51 -27 -33 -24 17 4 43 13 59 21 16
8 31 12 33 10 7 -7 -27 -27 -78 -47 -54 -20 -54 -20 -14 -16 37 4 38 4 13 -6
-16 -6 -28 -14 -28 -19 0 -4 12 -3 26 3 45 17 37 3 -8 -16 -24 -9 -80 -20
-125 -22 l-82 -6 14 39 c8 22 14 48 15 59 0 17 7 21 41 22 49 2 152 35 194 62
41 27 45 25 12 -4z m270 -132 c-2 -32 -3 -8 -3 52 0 61 1 87 3 58 2 -29 2 -78
0 -110z m-1294 115 c2 -18 2 -37 -1 -42 -7 -12 -20 21 -21 52 -1 34 16 26 22
-10z m484 26 c-3 -3 -12 -4 -19 -1 -8 3 -5 6 6 6 11 1 17 -2 13 -5z m-187 -8
c0 -3 -4 -8 -10 -11 -5 -3 -10 -1 -10 4 0 6 5 11 10 11 6 0 10 -2 10 -4z m927
-58 c-2 -13 -4 -3 -4 22 0 25 2 35 4 23 2 -13 2 -33 0 -45z m-777 42 c0 -5 -2
-10 -4 -10 -3 0 -8 5 -11 10 -3 6 -1 10 4 10 6 0 11 -4 11 -10z m187 -6 c2 -7
-8 -9 -27 -6 -16 2 -30 9 -30 14 0 13 53 6 57 -8z m83 1 c16 -19 3 -19 -30 0
-24 13 -24 14 -4 15 12 0 27 -7 34 -15z m547 -37 c-2 -13 -4 -5 -4 17 -1 22 1
32 4 23 2 -10 2 -28 0 -40z m-782 17 l-30 -14 40 -1 c22 0 47 -4 55 -10 27
-17 -16 -23 -69 -10 -28 6 -59 9 -70 5 -12 -3 -21 -2 -21 3 0 12 69 40 100 40
24 0 24 0 -5 -13z m95 0 c17 -20 -5 -20 -40 0 l-25 14 26 1 c15 0 32 -7 39
-15z m115 -5 c3 -5 -3 -10 -14 -10 -12 0 -21 5 -21 10 0 6 6 10 14 10 8 0 18
-4 21 -10z m-345 -30 c-8 -5 -28 -10 -43 -10 -37 0 -31 23 9 31 34 7 56 -7 34
-21z m290 15 c10 -13 9 -15 -8 -15 -22 0 -36 13 -25 24 10 10 20 7 33 -9z m95
-5 c3 -5 1 -10 -4 -10 -6 0 -11 5 -11 10 0 6 2 10 4 10 3 0 8 -4 11 -10z m-25
-8 c0 -13 -12 -22 -22 -16 -10 6 -1 24 13 24 5 0 9 -4 9 -8z m56 -21 c-7 -11
-36 -16 -36 -6 0 3 6 12 13 20 13 15 33 3 23 -14z m-326 9 c0 -5 6 -7 14 -4 8
3 34 -4 57 -16 29 -13 53 -18 71 -14 17 3 28 1 28 -5 0 -6 6 -8 13 -5 25 9 86
-25 93 -51 3 -14 17 -34 30 -44 27 -21 30 -31 11 -31 -8 0 -41 -14 -75 -31
-82 -40 -131 -27 -85 23 24 27 2 49 -25 25 -23 -21 -42 -22 -42 -3 0 8 -6 17
-12 19 -10 4 -10 8 0 15 10 7 4 11 -22 16 -27 5 -40 14 -46 32 -13 33 -13 32
6 30 9 0 19 5 21 12 4 11 -21 17 -54 13 -7 -1 -13 5 -13 14 0 8 7 15 15 15 8
0 15 -4 15 -10z m160 1 c0 -11 -31 -24 -39 -16 -3 3 1 10 9 15 19 12 30 12 30
1z m70 0 c0 -10 -25 -21 -48 -21 -12 1 -10 5 8 15 29 17 40 18 40 6z m-275
-21 c9 -15 -21 -23 -52 -15 -21 5 -24 8 -12 16 19 12 56 11 64 -1z m311 -5
c-23 -17 -36 -19 -36 -6 0 5 8 12 18 14 32 9 37 6 18 -8z m39 -35 c-6 -9 -9
-9 -16 1 -10 17 0 34 13 21 6 -6 7 -16 3 -22z m-309 -25 c9 -22 21 -35 33 -35
14 0 21 -10 26 -37 6 -34 4 -41 -23 -63 -16 -14 -33 -38 -39 -55 -6 -16 -19
-45 -30 -63 l-20 -32 -6 82 c-4 46 -7 118 -7 161 0 76 0 77 26 77 19 0 28 -8
40 -35z m811 -12 c-3 -10 -5 -2 -5 17 0 19 2 27 5 18 2 -10 2 -26 0 -35z
m-1191 -15 c9 -30 14 -33 59 -39 l50 -6 -52 -1 c-29 -1 -53 0 -53 2 0 2 -7 20
-15 40 -8 20 -11 36 -7 36 5 0 13 -15 18 -32z m-46 -15 c0 -7 -9 -13 -20 -13
-23 0 -24 4 -9 32 9 17 13 18 20 7 5 -8 9 -20 9 -26z m95 21 c33 -22 31 -34
-5 -34 -16 0 -30 4 -30 9 0 5 -3 16 -6 25 -8 21 10 20 41 0z m1192 -41 c-3
-10 -5 -4 -5 12 0 17 2 24 5 18 2 -7 2 -21 0 -30z m-1257 -5 c0 -5 -24 -7 -52
-6 l-53 2 47 3 c39 3 46 7 42 21 -5 14 -4 15 5 2 6 -8 11 -18 11 -22z m860
-24 c0 -11 -8 -14 -27 -12 -39 4 -42 28 -4 28 21 0 31 -5 31 -16z m-1040 -77
c0 -35 3 -40 39 -55 22 -9 44 -27 50 -38 8 -19 6 -23 -21 -28 -59 -12 -86 -7
-94 16 -4 14 -1 25 10 33 22 17 20 32 -5 38 -18 5 -21 11 -15 38 3 17 6 43 6
58 l1 26 14 -25 c8 -14 14 -42 15 -63z m130 68 c0 -9 -6 -12 -16 -8 -13 5 -15
0 -12 -28 1 -19 10 -37 18 -41 10 -4 6 -7 -12 -7 -26 -1 -28 1 -28 43 0 38 3
45 23 49 12 2 23 5 25 6 1 0 2 -6 2 -14z m46 7 c6 -4 13 -26 15 -49 4 -33 2
-39 -8 -31 -7 6 -10 20 -7 33 4 16 -1 27 -17 39 -23 16 -7 24 17 8z m101 -5
c11 4 14 3 9 -6 -5 -8 -19 -10 -38 -5 -26 5 -30 4 -25 -11 4 -9 7 -23 7 -30 0
-21 31 -27 50 -10 13 12 20 13 25 5 12 -19 -10 -32 -51 -28 -39 3 -39 3 -42
50 -3 48 -3 48 22 38 14 -5 33 -7 43 -3z m683 4 c0 -11 -25 -21 -53 -21 -35 0
-1 22 46 29 4 0 7 -3 7 -8z m-280 -26 c-7 -9 -15 -13 -17 -11 -7 7 7 26 19 26
6 0 6 -6 -2 -15z m176 -10 c-11 -8 -27 -15 -35 -15 -10 0 -7 6 9 14 33 19 50
19 26 1z m208 -7 c9 -12 16 -26 16 -30 0 -13 -22 -9 -41 8 -9 8 -33 16 -53 17
-64 3 -37 20 41 26 13 0 29 -8 37 -21z m-794 -14 c0 -8 -5 -12 -10 -9 -6 4 -8
11 -5 16 9 14 15 11 15 -7z m617 2 c-19 -15 -105 -31 -115 -22 -3 3 6 6 19 7
13 0 40 6 59 13 46 18 59 18 37 2z m-147 -11 c15 -18 1 -40 -30 -48 -29 -8
-24 2 8 14 l27 11 -22 11 c-13 5 -23 14 -23 19 0 13 27 9 40 -7z m216 -13
c-33 -13 -77 -10 -63 5 9 9 80 20 91 15 5 -3 -7 -12 -28 -20z m74 -6 c0 -9
-30 -14 -35 -6 -4 6 3 10 14 10 12 0 21 -2 21 -4z m-415 -27 c-10 -15 -25 -10
-19 6 4 8 10 12 15 9 5 -3 7 -10 4 -15z m260 11 c-3 -5 -22 -10 -41 -10 -19 0
-34 5 -34 10 0 6 18 10 41 10 24 0 38 -4 34 -10z m668 -117 c-3 -103 -7 -130
-20 -140 -9 -7 -18 -12 -19 -10 -2 1 -7 54 -13 117 l-10 115 27 22 c15 12 30
22 33 23 4 0 5 -57 2 -127z m-598 97 c-3 -5 -17 -10 -31 -10 -13 0 -24 5 -24
10 0 6 14 10 31 10 17 0 28 -4 24 -10z m65 -10 c11 -11 20 -23 20 -27 0 -7
-34 -9 -70 -4 -14 1 -13 24 2 39 17 17 25 15 48 -8z m-617 3 c-7 -2 -19 -2
-25 0 -7 3 -2 5 12 5 14 0 19 -2 13 -5z m243 -38 c-6 -25 -21 -51 -33 -60 -21
-15 -22 -23 -21 -108 2 -123 -7 -157 -37 -157 -13 0 -27 5 -30 10 -4 7 2 9 18
5 32 -8 37 10 37 147 0 111 18 178 47 178 7 0 12 3 12 8 -2 14 1 22 10 22 5 0
4 -20 -3 -45z m218 12 c-10 -33 -36 -88 -40 -84 -2 2 1 19 6 38 13 43 13 56 1
44 -5 -6 -14 -35 -20 -65 -6 -30 -14 -67 -17 -82 -6 -30 13 -49 22 -21 3 10
17 41 30 68 13 28 24 56 24 62 0 7 6 10 14 7 11 -4 12 -12 4 -35 -6 -16 -8
-38 -5 -49 4 -17 1 -19 -19 -14 -18 5 -24 2 -24 -10 0 -9 6 -16 13 -16 6 0 4
-5 -6 -11 -11 -7 -16 -17 -12 -29 3 -10 1 -21 -5 -25 -5 -3 -10 -15 -10 -26 0
-10 -7 -19 -15 -19 -8 0 -19 -9 -25 -20 -8 -14 -8 -20 0 -20 6 0 9 -4 6 -9 -4
-5 0 -12 6 -14 8 -3 5 -6 -5 -6 -11 -1 -21 8 -24 19 -3 11 -9 20 -14 20 -17 0
-9 20 21 50 30 30 39 60 20 60 -13 0 -13 76 1 102 9 16 8 19 -2 16 -15 -5 -31
-77 -27 -123 2 -21 -4 -36 -21 -51 -13 -11 -25 -32 -26 -45 -1 -20 -8 -25 -38
-27 l-37 -3 4 48 c2 26 1 63 -2 81 -3 26 -7 30 -18 21 -11 -9 -14 -6 -14 15 0
19 5 26 20 26 11 0 20 5 20 10 0 6 -7 10 -15 10 -8 0 -15 5 -15 10 0 6 9 10
20 10 10 0 24 10 31 23 6 12 25 38 43 57 22 25 24 29 6 14 -42 -35 -51 -38
-41 -12 10 28 33 34 122 30 66 -4 69 -5 63 -25z m211 23 c3 -5 2 -10 -4 -10
-5 0 -13 5 -16 10 -3 6 -2 10 4 10 5 0 13 -4 16 -10z m-1115 -14 c0 -2 -7 -6
-15 -10 -8 -3 -15 -1 -15 4 0 6 7 10 15 10 8 0 15 -2 15 -4z m280 -7 c0 -5 -9
-9 -19 -9 -11 0 -25 -2 -33 -5 -7 -3 -22 1 -33 8 -17 13 -13 14 33 14 29 0 52
-4 52 -8z m678 -1 c8 -10 4 -13 -14 -13 -24 0 -30 6 -17 18 10 10 19 8 31 -5z
m-708 -37 c0 -5 -9 -7 -20 -4 -11 3 -20 7 -20 9 0 2 9 4 20 4 11 0 20 -4 20
-9z m920 -12 c9 -5 -6 -6 -35 -2 -27 3 -54 10 -60 15 -12 11 73 -1 95 -13z
m-850 -24 c0 -19 -4 -35 -10 -35 -11 0 -14 53 -3 63 11 12 13 8 13 -28z m1147
-12 c-3 -10 -5 -2 -5 17 0 19 2 27 5 18 2 -10 2 -26 0 -35z m-1335 12 c3 -14
1 -25 -3 -25 -5 0 -9 11 -9 25 0 14 2 25 4 25 2 0 6 -11 8 -25z m95 3 c-3 -8
-6 -5 -6 6 -1 11 2 17 5 13 3 -3 4 -12 1 -19z m776 -122 c-5 -111 -24 -184
-53 -211 -18 -16 -20 -16 -26 -2 -3 9 -14 19 -25 22 -24 8 -27 55 -3 55 12 0
15 7 11 27 -3 16 1 32 9 40 8 8 14 26 15 41 0 15 3 21 6 15 10 -27 21 -11 21
32 0 26 -4 45 -11 45 -6 0 2 14 18 30 19 20 31 26 36 19 4 -7 5 -57 2 -113z
m169 111 l27 -12 -20 -24 c-23 -28 -42 -23 -64 18 -15 30 -15 31 7 31 13 -1
35 -6 50 -13z m-992 -17 c0 -5 -5 -10 -11 -10 -5 0 -7 5 -4 10 3 6 8 10 11 10
2 0 4 -4 4 -10z m105 0 c3 -5 1 -10 -4 -10 -6 0 -11 5 -11 10 0 6 2 10 4 10 3
0 8 -4 11 -10z m-28 -32 c-3 -7 -5 -2 -5 12 0 14 2 19 5 13 2 -7 2 -19 0 -25z
m806 12 c3 -11 1 -20 -4 -20 -5 0 -9 2 -9 4 0 2 -3 11 -6 20 -3 9 -2 16 4 16
5 0 12 -9 15 -20z m-470 -107 c-2 -42 -5 -79 -8 -82 -3 -2 -11 10 -17 27 -13
33 -22 39 -33 22 -9 -15 -35 -12 -35 5 0 8 11 17 24 21 13 3 33 22 45 45 12
21 23 39 25 39 1 0 1 -35 -1 -77z m483 40 c-7 -7 -26 7 -26 19 0 6 6 6 15 -2
9 -7 13 -15 11 -17z m441 -5 c-3 -7 -5 -2 -5 12 0 14 2 19 5 13 2 -7 2 -19 0
-25z m-1267 7 c8 -9 8 -15 2 -15 -6 0 -13 6 -16 13 -5 10 -7 10 -12 0 -7 -15
-54 -18 -54 -3 0 5 6 7 14 4 8 -3 17 -1 21 5 9 16 30 14 45 -4z m40 -5 c0 -5
-4 -10 -10 -10 -5 0 -10 5 -10 10 0 6 5 10 10 10 6 0 10 -4 10 -10z m620 -39
c0 -10 -7 -24 -15 -31 -12 -10 -15 -10 -15 3 0 23 11 47 21 47 5 0 9 -8 9 -19z
m175 -51 c0 -22 -3 -40 -7 -40 -5 0 -8 13 -8 29 0 17 -4 33 -10 36 -5 3 -10
16 -10 28 0 20 1 20 17 4 11 -10 18 -33 18 -57z m45 13 c0 -7 -4 -13 -10 -13
-5 0 -10 12 -10 28 0 21 2 24 10 12 5 -8 10 -21 10 -27z m450 27 c-8 -5 -19
-10 -25 -10 -5 0 -3 5 5 10 8 5 20 10 25 10 6 0 3 -5 -5 -10z m-63 -107 c-2
-21 -4 -4 -4 37 0 41 2 58 4 38 2 -21 2 -55 0 -75z m73 -30 c0 -60 3 -197 7
-307 6 -179 5 -199 -10 -208 -10 -5 -17 -16 -17 -23 0 -8 -7 -15 -16 -15 -15
0 -16 29 -11 328 3 180 6 328 7 330 0 1 9 2 20 2 19 0 20 -7 20 -107z m-1285
79 c-3 -3 -11 0 -18 7 -9 10 -8 11 6 5 10 -3 15 -9 12 -12z m233 4 c19 -12 14
-29 -8 -23 -11 3 -23 1 -26 -5 -4 -6 -9 -6 -14 3 -5 7 -27 12 -54 12 -48 -1
-63 12 -23 20 33 6 111 2 125 -7z m-337 -19 c-10 -9 -11 -8 -5 6 3 10 9 15 12
12 3 -3 0 -11 -7 -18z m197 -11 c46 -22 47 -23 32 -62 -11 -29 -18 -29 -140
-5 l-45 8 50 3 50 3 -55 7 c-46 6 -49 7 -20 10 30 2 32 3 10 8 -23 5 -22 6 15
18 33 10 36 13 15 14 -24 2 -23 3 5 10 35 9 29 10 83 -14z m272 3 c0 -5 -10
-9 -21 -9 -18 0 -19 2 -9 15 12 15 30 12 30 -6z m460 -34 c0 -25 -4 -45 -10
-45 -5 0 -10 20 -10 45 0 25 5 45 10 45 6 0 10 -20 10 -45z m-302 5 c19 0 30
-8 39 -25 8 -17 8 -25 0 -25 -6 0 -7 -3 -4 -7 4 -3 -5 -15 -20 -25 -30 -19
-108 -25 -118 -8 -4 7 -12 7 -25 0 -28 -15 -50 -12 -50 6 0 12 -6 15 -25 10
-14 -4 -25 -2 -25 4 0 5 -7 10 -15 10 -8 0 -15 -7 -15 -15 0 -8 -9 -15 -20
-15 -22 0 -27 -15 -7 -23 8 -4 7 -6 -3 -6 -8 0 -24 6 -34 14 -19 15 -19 15 2
15 17 0 22 6 22 25 0 28 -20 35 -21 8 0 -14 -2 -15 -6 -3 -4 8 -12 21 -20 28
-23 23 -15 27 55 28 91 0 221 15 228 26 3 4 12 1 20 -7 9 -8 27 -15 42 -15z
m252 -27 c0 -13 -3 -13 -15 -3 -8 7 -15 19 -15 27 0 13 3 13 15 3 8 -7 15 -19
15 -27z m-16 -29 c9 -3 16 -15 16 -26 0 -28 -34 -19 -38 10 -4 24 -2 25 22 16z
m-639 -24 c-3 -5 -12 -10 -20 -10 -7 0 -39 -14 -70 -30 -48 -25 -70 -31 -134
-32 -46 -1 -85 4 -100 12 -32 17 -120 14 -159 -6 -30 -14 -34 -14 -60 5 -19
13 -37 18 -53 14 -18 -4 -21 -3 -13 6 6 7 41 17 77 23 54 9 81 8 149 -6 112
-22 171 -20 248 8 67 25 146 34 135 16z m692 -32 c-3 -8 -6 -5 -6 6 -1 11 2
17 5 13 3 -3 4 -12 1 -19z m-657 -3 c14 -17 5 -35 -18 -35 -27 0 -43 -15 -36
-33 5 -13 11 -14 32 -5 15 6 47 10 72 10 25 0 38 2 29 5 -10 2 -19 13 -22 24
-4 15 0 19 19 19 13 0 24 5 24 10 0 6 12 10 28 10 19 0 23 -3 13 -9 -10 -7 -7
-9 12 -8 14 1 23 5 22 8 -2 3 18 5 45 5 54 -1 55 -2 2 -28 l-37 -18 35 4 35 5
-30 -14 c-16 -8 -38 -14 -48 -15 -9 0 -42 -20 -72 -45 -31 -25 -69 -52 -85
-60 -47 -24 -151 -45 -171 -34 -10 5 -31 9 -48 9 -16 0 -41 4 -54 9 -15 6 -37
6 -54 1 l-28 -8 30 -1 c17 -1 63 -8 103 -16 63 -13 80 -14 141 -1 38 8 83 22
100 31 17 8 31 11 31 5 0 -6 14 -7 38 -3 78 13 127 8 177 -20 26 -15 50 -25
53 -23 6 7 -60 46 -78 46 -10 0 -11 3 -3 11 12 12 44 -1 80 -33 l21 -20 -25
-29 c-36 -40 -57 -44 -99 -19 -19 12 -38 20 -41 17 -3 -4 11 -16 31 -28 20
-11 36 -25 36 -29 0 -4 -30 -16 -67 -26 -38 -9 -90 -29 -118 -44 -27 -15 -55
-25 -62 -23 -16 6 -21 -22 -25 -119 -3 -66 -7 -80 -25 -93 -12 -8 -27 -31 -33
-51 -7 -19 -14 -33 -16 -31 -2 2 2 23 11 46 8 23 14 45 13 49 -1 4 6 22 16 41
22 41 36 163 17 145 -7 -6 -14 -32 -17 -58 -2 -26 -11 -61 -20 -78 -12 -23
-70 -106 -89 -126 -10 -10 -35 63 -35 100 -1 32 -3 39 -10 27 -9 -16 0 -102
16 -152 6 -19 5 -20 -9 -8 -26 21 -39 87 -32 160 3 36 8 97 10 134 3 75 24
112 57 101 23 -7 24 12 1 25 -15 9 -12 10 15 11 17 0 71 14 119 30 130 45 250
38 281 -15 5 -10 15 -13 25 -9 24 9 14 19 -46 47 -55 25 -192 42 -203 26 -3
-5 -14 -9 -25 -9 -10 0 -19 -4 -19 -9 0 -5 -29 -14 -65 -21 -36 -7 -68 -16
-70 -20 -6 -10 -61 -4 -130 15 -65 18 -155 26 -155 14 0 -5 17 -9 38 -9 20 0
75 -9 122 -21 l86 -22 -21 -22 c-47 -50 -71 -83 -67 -94 2 -6 2 -11 -1 -11 -3
0 -16 25 -31 55 -14 30 -30 55 -36 55 -13 0 -13 -6 1 -33 7 -13 -4 -6 -24 16
-53 57 -65 44 -13 -15 43 -49 59 -77 36 -63 -12 7 -12 3 -4 -19 3 -9 12 -16
20 -16 8 0 14 -2 14 -4 0 -2 3 -12 6 -20 5 -12 2 -15 -12 -9 -14 5 -16 3 -10
-13 4 -10 7 -61 7 -112 -1 -60 2 -91 9 -87 5 3 10 5 10 3 0 -2 4 -18 9 -36 6
-19 6 -32 0 -32 -5 0 -11 11 -15 25 -6 26 -29 34 -37 13 -9 -26 -62 28 -100
101 -26 50 -40 92 -45 134 -9 80 1 210 16 215 7 2 12 12 12 23 0 28 71 60 175
76 136 22 193 24 232 8 31 -13 34 -13 23 0 -7 8 -27 17 -45 21 -41 7 -53 31
-22 44 52 21 -14 7 -78 -16 -38 -14 -90 -30 -115 -36 -185 -39 -217 -73 -230
-237 -6 -76 -11 -97 -26 -108 -18 -13 -20 -11 -26 24 -4 21 -7 84 -7 141 -1
65 -5 102 -12 102 -7 0 -10 -40 -9 -117 2 -156 3 -148 -15 -133 -13 10 -15 9
-15 -9 0 -25 -15 -28 -26 -3 -11 27 -14 353 -2 391 l10 33 64 -7 c49 -5 75 -3
109 11 43 16 48 16 100 -1 79 -25 197 -13 272 26 62 32 85 36 103 14z m615
-25 c0 -8 -10 -16 -22 -18 -17 -3 -20 1 -16 18 6 24 38 24 38 0z m402 -77 c-2
-21 -4 -6 -4 32 0 39 2 55 4 38 2 -18 2 -50 0 -70z m-583 76 c-5 -9 1 -10 20
-5 30 7 30 7 13 -27 -10 -20 -17 -23 -30 -15 -10 5 -23 8 -30 5 -7 -2 1 -11
17 -19 17 -9 25 -18 18 -22 -6 -4 -20 2 -32 14 -11 11 -32 19 -47 19 -20 -1
-23 -3 -9 -6 11 -3 32 -17 48 -32 25 -23 27 -29 15 -39 -11 -10 -26 -6 -73 18
-50 27 -64 30 -108 25 -27 -4 -73 -16 -100 -26 l-51 -19 35 30 c19 16 42 30
50 30 9 0 20 4 25 9 6 5 34 16 64 26 52 17 133 17 174 0 9 -4 17 -3 17 3 0 5
-17 13 -37 17 -32 6 -35 9 -18 15 30 12 47 12 39 -1z m-147 -5 c-3 -3 -12 -4
-19 -1 -8 3 -5 6 6 6 11 1 17 -2 13 -5z m770 -26 c-3 -7 -5 -2 -5 12 0 14 2
19 5 13 2 -7 2 -19 0 -25z m-1046 7 c-18 -8 -41 -15 -50 -15 -22 1 39 28 64
29 13 0 9 -5 -14 -14z m494 -27 c-21 -95 -93 -188 -174 -225 -31 -14 -59 -27
-63 -30 -5 -2 -8 -2 -8 1 0 3 23 17 50 32 28 15 50 31 50 35 0 5 19 30 43 56
23 27 56 74 72 106 17 31 31 57 33 57 2 0 0 -15 -3 -32z m482 -90 c-2 -24 -4
-7 -4 37 0 44 2 63 4 43 2 -21 2 -57 0 -80z m-377 95 c0 -5 -5 -15 -10 -23 -7
-12 -12 -12 -22 -2 -10 10 -10 15 2 22 18 12 30 13 30 3z m-743 -29 c-3 -3
-12 -4 -19 -1 -8 3 -5 6 6 6 11 1 17 -2 13 -5z m713 -26 c0 -7 -5 -20 -10 -28
-8 -12 -10 -9 -10 13 0 15 5 27 10 27 6 0 10 -6 10 -12z m-244 -14 c19 -9 39
-25 44 -35 15 -27 -7 -35 -33 -12 -39 34 -118 59 -101 31 5 -8 2 -9 -10 -5
-10 4 -36 7 -59 8 l-42 1 30 13 c41 19 130 18 171 -1z m547 -15 l38 -10 -25
-42 c-14 -23 -62 -81 -106 -129 -65 -71 -94 -93 -153 -121 -160 -76 -181 -70
-108 33 28 40 51 78 51 84 0 6 22 26 49 43 27 18 75 62 107 98 63 70 56 68
147 44z m-262 -12 c-13 -13 -26 -3 -16 12 3 6 11 8 17 5 6 -4 6 -10 -1 -17z
m393 -2 c-4 -8 -8 -15 -10 -15 -2 0 -4 7 -4 15 0 8 4 15 10 15 5 0 7 -7 4 -15z
m-57 -62 c-2 -16 -4 -5 -4 22 0 28 2 40 4 28 2 -13 2 -35 0 -50z m-436 24 c-8
-8 -11 -7 -11 4 0 9 3 19 7 23 4 4 9 2 11 -4 3 -7 -1 -17 -7 -23z m87 -4 c-4
-22 -22 -20 -26 1 -2 10 3 16 13 16 10 0 15 -7 13 -17z m72 7 c18 -12 2 -12
-25 0 -13 6 -15 9 -5 9 8 0 22 -4 30 -9z m-15 -20 c3 -6 -1 -7 -9 -4 -18 7
-21 14 -7 14 6 0 13 -4 16 -10z m-150 -20 c-3 -5 -13 -10 -21 -10 -8 0 -12 5
-9 10 3 6 13 10 21 10 8 0 12 -4 9 -10z m75 -12 c-1 -7 -7 -24 -14 -37 -16
-29 -31 -12 -22 25 6 24 36 34 36 12z m-90 -27 c0 -12 -38 -21 -57 -14 -12 5
-12 7 -1 14 17 11 58 11 58 0z m367 -38 c-3 -10 -5 -4 -5 12 0 17 2 24 5 18 2
-7 2 -21 0 -30z m-431 6 c11 -18 -13 -34 -31 -19 -8 7 -15 16 -15 21 0 13 38
11 46 -2z m623 -136 c-1 -121 -3 -139 -10 -98 -9 45 -2 245 7 245 2 0 3 -66 3
-147z m-588 104 c-8 -8 -11 -7 -11 4 0 9 3 19 7 23 4 4 9 2 11 -4 3 -7 -1 -17
-7 -23z m79 8 c0 -17 -17 -28 -30 -20 -7 4 -7 13 0 26 12 21 30 17 30 -6z
m300 -7 c-1 -26 -3 -30 -10 -16 -6 9 -7 23 -4 32 9 25 14 19 14 -16z m37 -10
c-3 -7 -5 -2 -5 12 0 14 2 19 5 13 2 -7 2 -19 0 -25z m-496 12 c26 -15 24 -26
-8 -39 -22 -8 -39 -7 -83 9 -57 19 -56 21 20 33 45 7 51 7 71 -3z m426 -57
c-3 -10 -5 -2 -5 17 0 19 2 27 5 18 2 -10 2 -26 0 -35z m-20 -15 c-2 -13 -4
-5 -4 17 -1 22 1 32 4 23 2 -10 2 -28 0 -40z m168 42 c-3 -5 1 -20 10 -34 11
-17 13 -26 5 -31 -6 -4 -10 -25 -9 -48 3 -62 -20 -139 -47 -160 -13 -10 -24
-13 -24 -7 0 5 -7 10 -16 10 -12 0 -11 6 8 32 23 33 58 128 58 159 0 9 -10 24
-22 33 -23 15 -23 16 6 6 16 -6 31 -8 34 -5 4 3 -4 8 -16 12 -12 3 -22 12 -22
20 0 8 4 12 9 8 5 -3 12 -1 16 5 3 5 8 10 11 10 3 0 2 -4 -1 -10z m-1735 -20
c0 -5 3 -16 7 -26 4 -12 3 -15 -6 -10 -6 4 -18 2 -26 -4 -20 -17 -31 11 -16
39 11 19 41 20 41 1z m908 -2 c21 -21 13 -25 -22 -14 -22 7 -30 13 -23 18 17
11 31 10 45 -4z m75 -37 l18 -31 -25 11 c-13 6 -27 19 -30 28 -3 9 -9 22 -12
29 -12 27 31 -5 49 -37z m81 24 c31 -14 70 -25 86 -25 36 0 39 -13 8 -27 -38
-17 -128 0 -150 28 -10 13 -23 30 -28 37 -18 20 22 15 84 -13z m16 15 c13 -8
13 -10 -2 -10 -9 0 -20 5 -23 10 -8 13 5 13 25 0z m120 -4 c0 -2 -7 -6 -15
-10 -8 -3 -15 -1 -15 4 0 6 7 10 15 10 8 0 15 -2 15 -4z m337 -33 c-3 -10 -5
-4 -5 12 0 17 2 24 5 18 2 -7 2 -21 0 -30z m-402 17 c3 -5 2 -10 -4 -10 -5 0
-13 5 -16 10 -3 6 -2 10 4 10 5 0 13 -4 16 -10z m136 -8 c-14 -27 -39 -45 -51
-37 -27 16 2 54 43 55 14 0 16 -4 8 -18z m246 -29 c-3 -10 -5 -4 -5 12 0 17 2
24 5 18 2 -7 2 -21 0 -30z m-611 11 c26 -9 56 -24 67 -35 21 -19 20 -19 -36
-19 -34 0 -67 6 -80 15 -13 8 -34 16 -47 18 -47 7 -26 25 42 36 4 0 28 -6 54
-15z m581 -26 c-3 -7 -5 -2 -5 12 0 14 2 19 5 13 2 -7 2 -19 0 -25z m-1587 2
c0 -5 -12 -10 -26 -10 -14 0 -23 4 -19 10 3 6 15 10 26 10 10 0 19 -4 19 -10z
m625 -98 c1 -100 2 -110 28 -147 28 -42 33 -55 18 -55 -16 0 -61 80 -61 109 0
45 -12 91 -21 85 -13 -7 -11 4 7 55 14 43 23 61 27 61 1 0 2 -48 2 -108z
m1125 76 c27 -44 26 -66 -2 -64 -13 1 -22 7 -20 14 3 16 -30 16 -46 0 -9 -9
-12 -9 -12 0 0 7 -7 12 -15 12 -8 0 -15 -4 -15 -9 0 -16 25 -28 58 -28 44 0
57 -14 40 -44 -23 -42 -48 -52 -48 -19 0 13 7 20 20 20 22 0 27 16 8 23 -7 2
-25 -9 -40 -26 -23 -26 -29 -29 -42 -18 -12 10 -14 23 -9 53 4 29 2 42 -8 48
-11 7 -9 14 10 34 22 23 41 31 84 35 10 0 26 -13 37 -31z m260 1 c0 -27 -3
-30 -27 -27 -35 4 -43 28 -9 28 16 0 26 6 26 15 0 8 2 15 5 15 3 0 5 -14 5
-31z m-463 -11 c-3 -7 -5 -2 -5 12 0 14 2 19 5 13 2 -7 2 -19 0 -25z m-227 14
c0 -4 -10 -13 -21 -20 -23 -15 -47 -3 -35 17 8 12 56 15 56 3z m200 -17 c0
-18 -5 -25 -20 -25 -25 0 -26 25 -2 39 23 14 22 14 22 -14z m-514 -27 c57 -34
63 -42 39 -51 -8 -4 -35 11 -62 33 -26 22 -55 40 -65 40 -9 0 -19 4 -23 10
-12 20 59 0 111 -32z m155 32 c26 0 29 -3 29 -30 0 -57 -45 -49 -77 13 -14 28
-14 29 2 23 9 -3 30 -6 46 -6z m-896 -15 c28 -7 41 -13 30 -13 -11 -1 -45 5
-75 13 -30 7 -44 13 -30 13 14 0 48 -6 75 -13z m980 5 c7 -12 -12 -40 -26 -40
-5 0 -9 11 -9 25 0 25 23 35 35 15z m-149 -14 c8 -6 13 -46 7 -46 -15 0 -73
47 -66 53 4 5 52 -1 59 -7z m371 -8 c-3 -8 -6 -5 -6 6 -1 11 2 17 5 13 3 -3 4
-12 1 -19z m-1352 2 c3 -5 -1 -10 -9 -10 -8 0 -18 5 -21 10 -3 6 1 10 9 10 8
0 18 -4 21 -10z m853 -32 c42 -36 48 -45 38 -60 -6 -10 -15 -18 -19 -18 -15 0
-103 97 -99 109 7 20 29 12 80 -31z m-907 16 c31 -12 78 -17 161 -17 81 0 115
-4 112 -11 -3 -7 -21 -10 -42 -8 -21 2 -64 -1 -95 -7 -50 -9 -64 -8 -108 9
-27 11 -73 20 -101 20 -55 0 -57 15 -3 23 17 2 31 5 31 6 1 0 21 -6 45 -15z
m168 0 c2 -2 -7 -4 -22 -4 -14 0 -29 5 -32 10 -6 10 42 4 54 -6z m1132 -76 c4
-248 4 -326 -2 -363 -8 -50 -13 104 -9 287 2 120 1 127 -19 138 -25 13 -19 30
10 30 17 0 19 -8 20 -92z m56 40 c-2 -13 -4 -5 -4 17 -1 22 1 32 4 23 2 -10 2
-28 0 -40z m33 42 c0 -5 -4 -10 -10 -10 -5 0 -10 5 -10 10 0 6 5 10 10 10 6 0
10 -4 10 -10z m537 4 c-3 -3 -12 -4 -19 -1 -8 3 -5 6 6 6 11 1 17 -2 13 -5z
m-722 -24 c-3 -5 -11 -10 -16 -10 -6 0 -7 5 -4 10 3 6 11 10 16 10 6 0 7 -4 4
-10z m-1198 -31 c49 -21 52 -21 188 -3 39 5 47 4 39 -6 -20 -21 -163 -25 -226
-6 -65 19 -98 20 -98 5 0 -6 8 -8 18 -4 11 3 34 -1 53 -9 l34 -15 -45 -1 c-25
0 -55 -3 -67 -6 -20 -6 -23 -3 -23 24 0 47 48 55 127 21z m864 -20 c13 -26 11
-29 -24 -22 -31 6 -43 24 -33 48 7 20 40 5 57 -26z m244 4 c43 -17 61 -29 53
-35 -23 -14 -50 -8 -80 17 -16 14 -42 25 -56 26 -24 0 -25 1 -7 9 11 5 21 9
22 9 2 1 32 -11 68 -26z m54 18 c7 -5 9 -11 4 -14 -6 -4 -19 0 -29 8 -15 11
-16 14 -4 15 8 0 21 -4 29 -9z m771 -1 c11 -7 6 -10 -20 -10 -26 0 -31 3 -20
10 8 5 17 10 20 10 3 0 12 -5 20 -10z m-452 -23 c3 -12 -4 -17 -21 -17 -14 0
-33 -3 -41 -6 -25 -10 -9 21 17 34 28 13 41 10 45 -11z m-1142 -48 c9 -10 11
-19 5 -23 -11 -7 -41 48 -40 73 0 9 4 6 10 -9 6 -13 17 -32 25 -41z m913 39
c0 -16 -2 -18 -6 -8 -3 8 -11 18 -17 22 -7 5 -4 8 7 8 11 0 17 -7 16 -22z
m281 8 c0 -21 48 -56 76 -56 29 0 30 -11 4 -35 -26 -24 -26 -39 1 -25 24 13
41 4 19 -10 -13 -8 -13 -10 -1 -10 11 0 9 -4 -5 -15 -19 -14 -18 -14 3 -15 12
0 27 8 32 18 8 13 10 14 11 2 0 -28 -15 -35 -74 -35 -52 0 -61 3 -79 27 -24
32 -34 116 -18 147 13 24 31 28 31 7z m-1270 -6 c0 -5 -4 -10 -10 -10 -5 0
-10 5 -10 10 0 6 5 10 10 10 6 0 10 -4 10 -10z m734 -11 c-3 -5 -14 -9 -26 -9
-17 0 -18 3 -8 14 12 15 44 10 34 -5z m813 -31 c-2 -13 -4 -5 -4 17 -1 22 1
32 4 23 2 -10 2 -28 0 -40z m-752 30 c24 -11 34 -28 16 -28 -5 0 -23 -3 -40
-6 -33 -7 -43 10 -19 34 15 15 12 15 43 0z m885 8 c0 -2 -11 -6 -25 -8 -14 -3
-25 -1 -25 3 0 5 11 9 25 9 14 0 25 -2 25 -4z m-1704 -21 c15 -11 16 -17 7
-38 -15 -33 -84 -48 -208 -46 -50 1 -103 -3 -119 -10 -37 -15 -58 1 -34 26 14
13 42 16 166 17 111 1 153 5 166 15 12 10 13 17 6 27 -8 9 -31 11 -84 7 -40
-3 -81 -1 -90 4 -13 7 10 10 77 11 64 0 101 -4 113 -13z m474 6 c0 -12 -41
-63 -47 -57 -4 4 37 66 44 66 2 0 3 -4 3 -9z m617 -133 c-2 -29 -3 -8 -3 47 0
55 1 79 3 53 2 -26 2 -71 0 -100z m-1288 117 c40 -10 82 -13 115 -9 43 5 49 4
38 -7 -18 -19 -322 -21 -322 -2 0 34 69 41 169 18z m723 -31 c-7 -27 -11 -34
-16 -23 -7 16 10 76 19 67 3 -3 1 -23 -3 -44z m58 24 c19 -24 18 -38 -3 -38
-25 0 -39 17 -32 39 8 26 12 26 35 -1z m68 6 c21 -6 32 -34 12 -34 -16 0 -60
23 -60 32 0 9 16 10 48 2z m559 -5 c-9 -5 -24 -26 -32 -45 -8 -18 -19 -34 -24
-34 -16 0 -13 30 3 36 8 3 17 16 20 30 4 16 13 24 29 24 20 -1 20 -2 4 -11z
m493 1 c0 -12 -8 -12 -35 0 -18 8 -17 9 8 9 15 1 27 -3 27 -9z m-965 -10 c-3
-5 -13 -10 -21 -10 -8 0 -14 5 -14 10 0 6 9 10 21 10 11 0 17 -4 14 -10z m425
0 c0 -5 -4 -10 -10 -10 -5 0 -10 5 -10 10 0 6 5 10 10 10 6 0 10 -4 10 -10z
m-250 -4 c0 -35 -42 -47 -83 -24 -21 12 -21 13 13 19 46 8 70 10 70 5z m-729
-31 c22 -14 44 -23 48 -20 8 4 21 -16 21 -32 0 -12 -83 6 -101 23 -17 15 -27
54 -14 54 3 0 23 -11 46 -25z m1044 15 c3 -5 1 -10 -4 -10 -6 0 -17 -15 -24
-32 -15 -36 -44 -65 -54 -54 -4 3 6 19 20 34 15 16 27 35 27 43 0 27 23 39 35
19z m206 1 c7 11 9 11 9 -2 0 -19 -26 -33 -35 -19 -4 6 -3 15 1 22 6 9 9 9 12
-1 4 -11 6 -11 13 0z m-1341 -51 c0 -8 -7 -2 -15 14 -19 36 -19 45 0 20 8 -10
14 -26 15 -34z m710 35 c39 -20 38 -25 -5 -25 -28 0 -35 4 -35 20 0 24 3 24
40 5z m817 -97 c-2 -24 -4 -7 -4 37 0 44 2 63 4 43 2 -21 2 -57 0 -80z m-969
96 c12 -4 22 -13 22 -20 0 -19 -14 -17 -41 6 -25 20 -20 24 19 14z m92 -9 c0
-9 -9 -15 -25 -15 -24 0 -32 10 -18 23 12 13 43 7 43 -8z m800 1 c6 -8 10 -23
8 -33 -2 -16 -7 -14 -31 14 -26 30 -27 33 -9 33 11 0 25 -7 32 -14z m-984 -20
c0 -13 -4 -22 -8 -19 -11 6 -10 43 1 43 5 0 8 -11 7 -24z m48 -3 c6 3 20 -1
31 -9 10 -8 27 -14 36 -14 21 0 33 -16 24 -31 -5 -7 -14 -4 -27 8 -12 11 -32
16 -52 15 -29 -3 -34 0 -38 22 -3 14 -2 28 1 32 3 3 8 -2 9 -11 2 -9 9 -14 16
-12z m-604 8 c0 -15 -41 -22 -188 -30 -82 -5 -148 -13 -155 -20 -13 -13 -27
-14 -27 -2 0 22 83 41 188 42 59 1 121 5 137 9 43 11 45 11 45 1z m167 -31 c6
0 16 -7 23 -15 7 -8 20 -15 30 -15 10 0 23 -7 30 -15 19 -23 -4 -19 -62 10
-58 29 -65 31 -48 10 7 -8 17 -15 22 -15 6 0 32 -11 59 -25 38 -19 49 -21 49
-10 0 8 6 15 13 15 9 0 14 -13 15 -36 1 -29 -2 -34 -16 -30 -9 3 -29 8 -43 11
-15 4 -40 20 -55 37 -16 16 -39 34 -51 39 -18 7 -23 16 -23 45 l0 37 23 -21
c13 -12 28 -22 34 -22z m267 25 c-8 -19 -43 -30 -57 -16 -8 8 -6 11 6 11 9 0
17 5 17 10 0 6 9 10 20 10 13 0 18 -5 14 -15z m523 -7 c-3 -8 -6 -5 -6 6 -1
11 2 17 5 13 3 -3 4 -12 1 -19z m58 -16 c-6 -6 -35 18 -35 29 0 5 9 1 20 -8
11 -9 17 -19 15 -21z m227 13 c3 -14 2 -25 -2 -25 -4 0 -10 11 -12 25 -3 14
-2 25 2 25 4 0 10 -11 12 -25z m268 0 c7 -9 16 -32 20 -53 4 -20 11 -50 15
-67 7 -26 6 -28 -7 -17 -8 7 -18 31 -21 54 -3 22 -15 54 -27 70 -15 21 -17 28
-7 28 8 0 20 -7 27 -15z m-1450 -10 c0 -8 -2 -15 -4 -15 -2 0 -6 7 -10 15 -3
8 -1 15 4 15 6 0 10 -7 10 -15z m388 -29 c-2 -39 -5 -43 -19 -35 -31 16 -35 9
-8 -14 15 -12 35 -35 45 -52 l19 -30 -31 26 c-17 14 -45 31 -63 38 -33 14 -39
26 -18 34 6 3 -5 6 -25 6 -21 1 -38 5 -38 11 0 5 21 7 50 3 36 -4 50 -2 50 7
0 7 -7 10 -15 6 -8 -3 -15 -1 -15 4 0 6 9 10 20 10 10 0 25 7 32 15 18 20 18
20 16 -29z m416 35 c7 -11 -49 -22 -71 -14 -14 6 -12 9 12 14 45 10 53 10 59
0z m625 -37 c13 -30 14 -34 3 -34 -5 0 -16 16 -25 35 -12 26 -13 33 -3 29 7
-3 18 -16 25 -30z m-1500 22 c-12 -10 -60 -16 -54 -6 3 5 18 10 32 10 15 0 24
-2 22 -4z m28 -18 c-3 -8 -6 -5 -6 6 -1 11 2 17 5 13 3 -3 4 -12 1 -19z m1000
-4 c-7 -7 -37 7 -37 17 0 6 9 5 21 -1 11 -7 19 -14 16 -16z m-1217 7 c0 -5 -9
-7 -19 -4 -10 3 -29 -1 -41 -7 -34 -18 -10 -32 56 -31 33 0 75 -4 94 -8 28 -6
14 -9 -71 -15 -90 -7 -111 -6 -138 9 -27 13 -30 19 -20 31 21 26 139 47 139
25z m65 -2 c-5 -7 12 -10 54 -8 33 1 60 -2 58 -6 -3 -12 -207 -16 -207 -4 0 5
14 6 30 3 30 -6 43 9 18 19 -7 3 2 6 20 6 21 1 31 -3 27 -10z m399 3 c3 -5 -8
-6 -25 -4 -16 2 -29 6 -29 8 0 8 49 4 54 -4z m726 -22 c11 0 20 -4 20 -8 0 -5
-13 -7 -30 -4 -23 3 -30 9 -30 26 1 19 2 19 11 4 5 -10 19 -18 29 -18z m217 8
c-3 -8 -6 -5 -6 6 -1 11 2 17 5 13 3 -3 4 -12 1 -19z m-1147 -82 c-3 -22 -11
-41 -19 -44 -11 -4 -12 1 -6 19 4 13 7 40 7 59 -1 19 1 42 5 50 10 23 19 -38
13 -84z m33 23 c-1 -42 1 -48 13 -38 11 9 14 8 14 -5 0 -9 -6 -16 -14 -16 -7
0 -20 -9 -27 -21 -8 -11 -21 -21 -29 -23 -8 -2 -23 -6 -32 -9 -66 -25 -64 -15
2 14 34 14 52 29 55 43 2 11 6 33 9 48 3 15 1 39 -5 55 -8 23 -8 26 3 15 8 -8
12 -33 11 -63z m403 39 c24 -41 31 -62 38 -108 6 -43 5 -44 -10 -25 -28 35
-54 99 -54 134 0 36 5 36 26 -1z m167 12 c22 -26 23 -64 1 -56 -23 9 -73 49
-73 60 -1 4 8 6 19 3 11 -3 20 -1 20 4 0 15 15 10 33 -11z m85 -51 c-20 -13
-34 -11 -20 3 7 7 12 22 12 33 0 36 15 39 18 5 2 -20 -2 -36 -10 -41z m72 63
c0 -4 -5 -13 -12 -20 -18 -18 -28 -15 -28 8 0 13 7 20 20 20 11 0 20 -4 20 -8z
m75 -2 c3 -5 2 -10 -4 -10 -5 0 -13 5 -16 10 -3 6 -2 10 4 10 5 0 13 -4 16
-10z m212 -27 c-3 -10 -5 -4 -5 12 0 17 2 24 5 18 2 -7 2 -21 0 -30z m-226 0
c13 -15 11 -16 -10 -10 -14 3 -37 -1 -55 -10 l-31 -16 24 27 c28 30 53 33 72
9z m294 7 c-3 -5 -12 -10 -18 -10 -7 0 -6 4 3 10 19 12 23 12 15 0z m210 -24
c-8 -19 -13 -50 -10 -68 3 -18 3 -27 -1 -20 -3 6 -18 12 -32 13 -16 0 -21 3
-12 6 23 9 29 24 23 56 -6 29 7 47 34 47 9 0 8 -9 -2 -34z m52 2 c-3 -8 -6 -5
-6 6 -1 11 2 17 5 13 3 -3 4 -12 1 -19z m263 7 c0 -8 -6 -15 -14 -15 -17 0
-28 14 -19 24 12 12 33 6 33 -9z m-1528 -25 c18 -16 36 -30 40 -30 22 0 88
-37 88 -49 0 -20 -31 -40 -61 -41 -36 0 -107 -33 -154 -70 -27 -22 -48 -30
-76 -30 -22 0 -39 5 -39 10 0 6 7 10 15 10 9 0 41 25 72 56 l57 56 82 -4 c45
-1 80 0 77 5 -2 4 -37 7 -78 7 l-73 0 11 36 c8 27 8 40 -1 55 -18 29 2 23 40
-11z m478 -23 c11 -4 9 -6 -5 -6 -28 -1 -41 10 -49 39 l-7 25 23 -26 c13 -15
30 -29 38 -32z m611 11 c9 -17 8 -18 -10 -6 -11 6 -22 20 -25 31 -4 15 -2 16
10 6 8 -7 20 -21 25 -31z m-276 22 c-3 -5 -15 -10 -26 -10 -11 0 -17 5 -14 10
3 6 15 10 26 10 11 0 17 -4 14 -10z m102 -97 c-2 -21 -4 -4 -4 37 0 41 2 58 4
38 2 -21 2 -55 0 -75z m88 97 c-3 -5 -12 -10 -18 -10 -7 0 -6 4 3 10 19 12 23
12 15 0z m-1360 -22 c72 -1 115 -3 98 -5 -34 -4 -46 -23 -15 -23 32 -1 -34
-30 -103 -44 -36 -8 -67 -15 -68 -17 -21 -40 -27 -44 -57 -44 -18 0 -35 5 -36
10 -5 16 86 54 148 61 58 6 90 25 68 39 -7 4 -45 4 -87 0 -79 -7 -133 5 -133
31 0 11 6 11 28 3 15 -6 85 -11 157 -11z m1093 -1 c3 -16 -1 -17 -35 -12 -62
11 -70 14 -53 26 25 16 84 7 88 -14z m-919 -41 c-9 -8 -10 -7 -5 7 3 10 7 26
7 35 1 9 4 6 6 -7 3 -13 -1 -28 -8 -35z m1118 32 c-3 -8 -6 -5 -6 6 -1 11 2
17 5 13 3 -3 4 -12 1 -19z m218 12 c3 -5 2 -10 -4 -10 -5 0 -13 5 -16 10 -3 6
-2 10 4 10 5 0 13 -4 16 -10z m252 -22 c-3 -7 -5 -2 -5 12 0 14 2 19 5 13 2
-7 2 -19 0 -25z m-581 0 c15 -18 16 -20 2 -9 -10 7 -25 11 -33 7 -15 -5 -21 5
-8 17 11 11 19 8 39 -15z m199 12 c4 -6 -7 -10 -27 -9 -31 1 -32 1 -8 9 14 4
26 8 27 9 1 1 5 -3 8 -9z m288 -11 c-6 -6 -17 -8 -24 -3 -9 5 -8 9 7 14 23 9
31 3 17 -11z m-710 -4 c1 -5 -13 -11 -30 -13 -34 -3 -46 13 -15 21 24 7 43 4
45 -8z m844 -32 c-3 -10 -5 -2 -5 17 0 19 2 27 5 18 2 -10 2 -26 0 -35z
m-1186 17 l24 -19 -27 -1 c-36 0 -58 9 -58 26 0 20 34 17 61 -6z m164 10 c3
-5 2 -10 -4 -10 -5 0 -13 5 -16 10 -3 6 -2 10 4 10 5 0 13 -4 16 -10z m280 -5
l30 -13 -37 -1 c-20 -1 -43 -4 -52 -7 -12 -4 -16 0 -16 15 0 25 29 27 75 6z
m390 -25 c-8 -13 -42 -18 -56 -9 -11 7 -10 9 4 9 11 0 17 8 17 22 0 20 1 21
20 3 11 -10 17 -21 15 -25z m-1562 5 c-17 -7 -34 -18 -37 -24 -12 -19 -23 -12
-23 17 0 26 2 27 45 23 l46 -3 -31 -13z m967 15 c0 -5 -10 -10 -22 -9 -22 0
-22 1 -3 9 11 5 21 9 23 9 1 1 2 -3 2 -9z m326 -37 c26 -36 26 -37 3 -15 -14
12 -30 22 -37 22 -6 0 -9 7 -6 15 8 20 8 20 40 -22z m444 27 c0 -5 -5 -10 -11
-10 -5 0 -7 5 -4 10 3 6 8 10 11 10 2 0 4 -4 4 -10z m-1502 -11 c-2 -6 -8 -11
-13 -11 -6 0 -14 -3 -20 -8 -5 -4 -35 -15 -65 -25 -30 -10 -64 -26 -75 -35
-11 -10 -36 -22 -55 -27 -46 -12 -52 -39 -10 -48 28 -6 31 -10 28 -38 -3 -28
0 -32 25 -35 34 -4 35 -18 2 -26 -14 -4 -32 -17 -41 -30 -20 -31 -7 -58 39
-83 41 -22 211 -22 272 0 34 13 42 13 59 1 11 -8 30 -14 42 -14 12 0 24 -6 27
-13 2 -7 28 -25 57 -41 50 -27 62 -29 224 -37 133 -6 187 -12 241 -30 52 -16
65 -23 51 -29 -11 -3 -42 -3 -70 2 -28 4 -127 12 -221 17 -184 10 -213 17
-318 79 -57 34 -59 35 -135 27 -147 -14 -177 -14 -227 3 -37 13 -54 25 -64 46
-18 39 -17 73 4 96 27 30 10 36 -20 7 -54 -50 -22 -141 59 -166 43 -14 125
-16 228 -7 l86 8 59 -36 c64 -39 133 -66 169 -66 12 0 26 -4 29 -10 11 -17
-76 -11 -135 10 -30 10 -77 30 -105 45 -48 25 -54 25 -170 19 -107 -5 -126 -4
-175 15 -30 11 -61 30 -68 41 -7 11 -15 54 -19 94 l-6 75 37 6 c48 9 50 41 3
53 -27 7 -32 13 -32 37 0 27 4 30 39 36 27 4 47 16 63 35 15 20 38 32 75 40
42 10 100 25 126 33 2 1 2 -4 0 -10z m842 2 c0 -11 -59 -26 -67 -18 -3 3 -2
10 2 16 8 13 65 15 65 2z m710 -1 c0 -5 -4 -10 -9 -10 -6 0 -13 5 -16 10 -3 6
1 10 9 10 9 0 16 -4 16 -10z m-1065 -15 c22 -4 47 -11 55 -16 32 -17 -18 -21
-64 -5 -26 9 -56 16 -67 16 -11 0 -18 4 -15 8 5 9 34 8 91 -3z m495 -2 c0 -9
-17 -13 -50 -13 -47 0 -60 7 -43 24 12 12 93 2 93 -11z m396 -11 c-9 -9 -37 8
-31 18 5 8 11 7 21 -1 8 -6 12 -14 10 -17z m-1337 -3 c-22 -14 -33 -10 -19 6
7 8 17 12 22 9 6 -4 5 -10 -3 -15z m691 6 c7 -9 10 -18 7 -22 -8 -7 -37 15
-37 28 0 14 16 11 30 -6z m850 5 c0 -5 -7 -10 -15 -10 -8 0 -15 -4 -15 -10 0
-5 -7 -10 -15 -10 -23 0 -18 19 8 30 30 12 37 12 37 0z m-778 -26 c-13 -9 -26
-13 -30 -9 -8 8 17 25 38 25 9 0 6 -6 -8 -16z m375 1 c0 -8 -4 -15 -9 -15 -4
0 -8 7 -8 15 0 8 4 15 8 15 5 0 9 -7 9 -15z m243 11 c0 -3 -4 -8 -10 -11 -5
-3 -10 -1 -10 4 0 6 5 11 10 11 6 0 10 -2 10 -4z m-997 -13 c-7 -2 -19 -2 -25
0 -7 3 -2 5 12 5 14 0 19 -2 13 -5z m437 2 c0 -2 -11 -15 -25 -29 -19 -19 -26
-22 -35 -11 -8 10 -5 17 12 29 21 15 48 21 48 11z m390 1 c0 -3 -4 -8 -10 -11
-5 -3 -10 -1 -10 4 0 6 5 11 10 11 6 0 10 -2 10 -4z m-1305 -16 c-11 -5 -30
-9 -43 -9 -12 -1 -30 -10 -40 -22 -9 -11 -26 -24 -37 -29 -47 -18 -65 -21 -65
-11 0 6 10 11 22 11 12 0 33 11 48 25 14 13 43 29 65 34 51 12 76 12 50 1z
m1010 -4 c-14 -10 -25 -11 -37 -5 -27 14 -22 19 19 19 34 0 35 -1 18 -14z
m345 -7 c0 -5 -7 -9 -15 -9 -15 0 -20 12 -9 23 8 8 24 -1 24 -14z m-1214 -4
c-11 -8 -25 -15 -30 -15 -6 0 -2 7 8 15 11 8 25 15 30 15 6 0 2 -7 -8 -15z
m274 -10 c17 -11 11 -33 -16 -54 -29 -23 -117 -30 -129 -11 -3 6 -1 10 4 10 6
0 11 5 11 10 0 6 -8 10 -17 8 -10 -2 -18 3 -18 11 0 21 91 51 126 41 16 -5 33
-11 39 -15z m400 -11 c5 -12 17 -27 27 -33 10 -6 13 -11 5 -11 -11 0 -82 63
-82 74 0 14 43 -11 50 -30z m145 22 c18 -13 18 -14 -3 -25 -47 -25 -90 -5 -50
23 27 19 29 19 53 2z m120 -16 c4 -7 -3 -8 -22 -4 -39 10 -47 15 -32 25 13 8
43 -4 54 -21z m560 20 c3 -5 -1 -10 -10 -10 -9 0 -13 5 -10 10 3 6 8 10 10 10
2 0 7 -4 10 -10z m-1600 -10 c3 -6 -4 -10 -17 -10 -18 0 -20 2 -8 10 19 12 18
12 25 0z m449 -5 c-4 -8 -14 -15 -24 -15 -10 0 -20 7 -24 15 -4 11 2 15 24 15
22 0 28 -4 24 -15z m801 5 c3 -5 -1 -10 -10 -10 -9 0 -13 5 -10 10 3 6 8 10
10 10 2 0 7 -4 10 -10z m165 0 c0 -5 -7 -10 -15 -10 -8 0 -15 5 -15 10 0 6 7
10 15 10 8 0 15 -4 15 -10z m-1470 -7 c0 -5 -19 -16 -43 -25 l-42 -18 28 25
c27 24 57 33 57 18z m560 -1 c0 -13 -12 -22 -22 -16 -10 6 -1 24 13 24 5 0 9
-4 9 -8z m110 -2 c0 -5 -7 -10 -15 -10 -8 0 -15 5 -15 10 0 6 7 10 15 10 8 0
15 -4 15 -10z m1160 1 c0 -12 -28 -22 -34 -12 -3 5 -3 11 1 15 9 9 33 7 33 -3z
m-1082 -13 c-7 -19 -38 -22 -38 -4 0 10 9 16 21 16 12 0 19 -5 17 -12z m277 2
c3 -5 3 -10 -2 -10 -4 0 -19 -3 -33 -6 -24 -5 -24 -5 -6 10 23 19 32 20 41 6z
m-892 -7 c-7 -2 -21 -2 -30 0 -10 3 -4 5 12 5 17 0 24 -2 18 -5z m467 -3 c0
-5 -2 -10 -4 -10 -3 0 -8 5 -11 10 -3 6 -1 10 4 10 6 0 11 -4 11 -10z m200 0
c0 -5 -2 -10 -4 -10 -3 0 -8 5 -11 10 -3 6 -1 10 4 10 6 0 11 -4 11 -10z
m-794 -7 c-4 -4 -28 -19 -53 -33 -26 -14 -49 -32 -51 -40 -4 -12 -2 -12 14 1
48 42 189 91 169 59 -3 -5 -17 -10 -31 -10 -14 0 -27 -7 -30 -15 -4 -8 -14
-15 -23 -15 -9 0 -33 -9 -54 -20 -45 -24 -72 -26 -63 -4 3 8 2 24 -4 34 -7 14
-5 19 9 23 15 4 18 1 13 -12 -5 -14 -4 -14 11 -2 9 7 34 19 54 27 45 16 49 16
39 7z m534 -3 c22 -14 2 -29 -42 -32 -39 -2 -75 17 -47 26 8 2 21 7 29 9 24 8
44 7 60 -3z m569 -3 c9 -11 0 -14 -48 -13 -67 1 -70 7 -8 17 23 3 43 7 43 8 1
0 7 -5 13 -12z m438 -19 c-3 -7 -5 -2 -5 12 0 14 2 19 5 13 2 -7 2 -19 0 -25z
m33 10 c0 -19 -2 -20 -10 -8 -13 19 -13 30 0 30 6 0 10 -10 10 -22z m17 0 c-3
-8 -6 -5 -6 6 -1 11 2 17 5 13 3 -3 4 -12 1 -19z m243 13 c0 -12 -35 -20 -50
-11 -9 6 -8 9 6 13 32 8 44 7 44 -2z m-474 -38 c-11 -11 -19 6 -11 24 8 17 8
17 12 0 3 -10 2 -21 -1 -24z m84 33 c0 -3 -4 -8 -10 -11 -5 -3 -10 -1 -10 4 0
6 5 11 10 11 6 0 10 -2 10 -4z m30 0 c0 -3 -4 -8 -10 -11 -5 -3 -10 -1 -10 4
0 6 5 11 10 11 6 0 10 -2 10 -4z m-1224 -17 c10 -17 -13 -36 -27 -22 -12 12
-4 33 11 33 5 0 12 -5 16 -11z m527 4 c-7 -2 -21 -2 -30 0 -10 3 -4 5 12 5 17
0 24 -2 18 -5z m473 -51 c-12 -11 -41 14 -44 39 -3 24 -3 24 23 -4 15 -16 24
-31 21 -35z m62 33 c8 -7 10 -15 5 -18 -12 -7 -73 20 -73 33 0 13 50 2 68 -15z
m92 15 c8 13 10 12 10 -2 0 -11 -8 -18 -20 -18 -12 0 -20 7 -20 18 0 14 2 15
10 2 9 -13 11 -13 20 0z m345 -11 c5 -5 22 -9 37 -9 18 0 28 -5 28 -15 0 -11
-11 -14 -46 -11 -32 2 -42 0 -35 -7 16 -16 13 -45 -7 -65 -25 -25 -42 -17 -42
19 0 26 -2 29 -19 19 -11 -5 -38 -11 -60 -12 -23 -1 -41 -6 -41 -11 0 -6 -7
-18 -16 -28 -21 -23 -12 -45 26 -67 16 -9 30 -23 30 -29 0 -7 8 -13 18 -14 12
0 13 -2 3 -6 -8 -3 -20 2 -27 12 -13 18 -14 18 -34 0 -12 -11 -20 -13 -20 -6
0 7 -5 9 -10 6 -7 -4 -1 -16 15 -30 29 -28 31 -40 9 -53 -12 -7 -8 -9 18 -9
18 -1 27 2 19 4 -10 4 -10 7 -2 13 7 4 13 15 13 26 1 14 10 19 30 20 35 1 36
-9 3 -24 -14 -6 -25 -17 -25 -23 0 -8 4 -8 15 1 8 7 22 10 30 6 8 -3 15 0 15
7 0 7 9 18 19 24 17 10 18 9 14 -10 l-5 -22 20 23 c26 28 32 28 32 -3 0 -22 3
-25 24 -19 14 3 27 1 31 -6 6 -9 10 -9 16 1 7 11 9 11 9 -3 0 -13 -7 -15 -42
-11 -24 4 -44 10 -46 14 -2 5 -8 9 -13 9 -4 0 -6 -7 -3 -15 5 -11 2 -13 -10
-9 -11 4 -16 1 -16 -12 0 -16 -2 -17 -11 -4 -8 11 -12 12 -16 3 -2 -7 -15 -13
-28 -13 -31 0 -55 -10 -55 -22 0 -7 5 -6 13 1 15 12 30 4 21 -10 -8 -14 -148
-11 -162 3 -8 8 -12 9 -12 1 0 -8 -55 -11 -185 -11 -127 1 -185 4 -185 12 0 6
-4 5 -9 -2 -6 -10 -23 -12 -67 -7 -32 4 -70 8 -82 9 -13 1 -27 7 -30 12 -4 5
-23 10 -42 11 -19 2 -36 7 -38 13 -2 5 -20 10 -40 11 -20 0 -46 4 -56 8 -18 7
-18 8 4 29 23 21 83 31 93 15 2 -5 2 -3 1 4 -4 18 32 26 56 13 12 -6 34 -8 51
-5 26 6 29 4 29 -19 0 -43 64 -61 108 -30 20 14 22 14 22 -1 0 -10 5 -13 12
-9 19 12 61 11 87 -2 25 -13 57 -4 73 20 5 7 8 7 8 -2 0 -9 7 -11 23 -6 33 11
119 5 135 -9 13 -10 14 -8 8 11 -6 18 -4 22 14 22 18 0 21 4 16 24 -4 18 0 28
19 40 14 9 25 24 25 34 0 9 11 38 25 64 28 53 29 58 15 58 -5 0 -10 -7 -10
-15 0 -19 -14 -19 -32 -2 -7 8 -26 17 -41 21 -15 3 -27 11 -27 16 0 6 -5 10
-11 10 -5 0 -8 -4 -4 -10 3 -5 -7 -8 -25 -7 -35 2 -41 17 -7 17 12 0 32 7 45
15 16 12 27 13 41 5 11 -5 29 -10 40 -10 12 0 21 -6 21 -12 0 -9 3 -9 8 -2 4
5 34 20 67 31 59 21 119 22 140 2z m-780 1 c3 -5 -3 -10 -14 -10 -11 0 -23 5
-26 10 -3 6 3 10 14 10 11 0 23 -4 26 -10z m-898 -6 c-3 -3 -12 -4 -19 -1 -8
3 -5 6 6 6 11 1 17 -2 13 -5z m758 -14 c0 -19 -51 -25 -88 -11 -43 17 -32 26
31 26 44 0 57 -3 57 -15z m105 4 l25 -15 -30 6 c-16 4 -34 11 -39 16 -16 15
16 10 44 -7z m195 7 c10 -18 -11 -20 -51 -6 l-39 14 42 1 c23 0 44 -4 48 -9z
m-982 -8 c-7 -2 -13 -9 -13 -14 0 -6 4 -8 9 -4 5 3 12 1 16 -5 3 -5 -5 -12
-19 -16 -39 -9 -52 -30 -36 -59 7 -13 16 -22 21 -20 8 5 24 -53 17 -61 -3 -2
-25 -8 -51 -13 -32 -6 -48 -5 -51 3 -3 8 -7 8 -13 0 -13 -19 -111 -9 -141 13
-40 29 -36 63 8 78 24 8 36 19 38 34 2 12 15 27 29 34 21 9 26 8 34 -6 6 -9
18 -17 27 -17 14 0 14 -3 -4 -18 -12 -9 -24 -27 -26 -38 -5 -18 -1 -22 21 -22
41 0 74 25 68 54 -2 13 0 24 5 24 5 0 6 5 2 11 -8 13 34 49 56 48 10 0 11 -2
3 -6z m312 -3 c4 -6 -7 -10 -24 -10 -17 0 -31 5 -31 10 0 6 11 10 24 10 14 0
28 -4 31 -10z m570 -8 c-3 -3 -11 0 -18 7 -9 10 -8 11 6 5 10 -3 15 -9 12 -12z
m-460 -13 c0 -8 -12 -15 -27 -17 -31 -4 -37 12 -10 27 21 13 37 9 37 -10z
m119 6 c-12 -31 -74 -48 -74 -20 0 8 15 19 33 24 45 13 47 13 41 -4z m486 -6
c0 -5 -9 -9 -20 -9 -19 0 -26 11 -14 23 8 8 34 -3 34 -14z m-1380 -10 c0 -5
-9 -9 -20 -9 -19 0 -26 11 -14 23 8 8 34 -3 34 -14z m278 9 c-5 -15 -58 -24
-58 -10 0 15 12 22 38 22 14 0 22 -5 20 -12z m149 -15 c-9 -9 -20 -13 -24 -9
-4 4 1 14 11 22 25 18 35 8 13 -13z m131 -2 c-4 -19 -59 -27 -84 -13 -15 8
-14 11 11 24 34 18 77 12 73 -11z m605 14 c20 0 37 -3 37 -7 0 -16 -97 -8
-111 8 -12 15 -11 16 11 8 14 -5 42 -9 63 -9z m137 11 c0 -2 3 -11 6 -20 4
-12 0 -16 -15 -16 -14 0 -21 6 -21 20 0 11 7 20 15 20 8 0 15 -2 15 -4z m200
-16 c-8 -5 -22 -10 -30 -10 -13 0 -13 1 0 10 8 5 22 10 30 10 13 0 13 -1 0
-10z m-885 -10 c3 -5 -1 -10 -9 -10 -9 0 -16 5 -16 10 0 6 4 10 9 10 6 0 13
-4 16 -10z m474 -2 c7 -8 38 -13 77 -13 35 0 64 -3 64 -6 0 -7 -52 -19 -84
-19 -24 0 -109 49 -85 50 8 0 21 -6 28 -12z m166 2 c3 -5 1 -10 -4 -10 -6 0
-11 5 -11 10 0 6 2 10 4 10 3 0 8 -4 11 -10z m755 0 c0 -5 -9 -10 -21 -10 -11
0 -17 5 -14 10 3 6 13 10 21 10 8 0 14 -4 14 -10z m-1312 -17 c-4 -22 -48 -31
-48 -10 0 19 10 27 32 27 13 0 18 -6 16 -17z m259 11 c-3 -3 -12 -4 -19 -1 -8
3 -5 6 6 6 11 1 17 -2 13 -5z m58 -24 c-5 -8 -11 -8 -17 -2 -6 6 -7 16 -3 22
5 8 11 8 17 2 6 -6 7 -16 3 -22z m385 16 c-38 -13 -79 -9 -44 5 10 4 33 8 49
8 l30 0 -35 -13z m151 -1 c-1 -11 -40 -16 -55 -7 -11 6 23 22 42 19 7 -1 13
-6 13 -12z m-1173 -12 c5 -16 -22 -27 -44 -19 -13 5 -14 9 -4 22 15 17 41 15
48 -3z m452 -3 c12 -8 11 -10 -7 -10 -12 0 -25 5 -28 10 -8 13 15 13 35 0z
m865 -3 c24 -18 12 -35 -30 -43 -37 -7 -95 3 -95 16 0 35 87 54 125 27z m340
3 c-3 -5 -18 -10 -33 -9 -24 0 -25 1 -7 9 28 12 47 12 40 0z m-1767 -17 c-2
-10 -13 -19 -26 -21 -24 -4 -29 7 -10 26 18 18 40 15 36 -5z m670 5 c-5 -15
-58 -24 -58 -10 0 15 12 22 38 22 14 0 22 -5 20 -12z m150 -5 c5 -18 -28 -29
-38 -12 -5 7 -6 17 -3 22 7 12 35 5 41 -10z m390 0 c2 -8 -5 -13 -17 -13 -21
0 -35 13 -24 24 10 10 36 3 41 -11z m377 7 c-3 -5 1 -10 9 -10 9 0 16 -4 16
-10 0 -14 -27 -13 -32 2 -2 6 -10 9 -17 7 -11 -4 -10 -9 3 -22 15 -15 15 -17
2 -17 -9 0 -16 5 -16 10 0 6 -9 10 -19 10 -11 0 -23 -4 -26 -10 -3 -5 -11 -10
-17 -10 -25 0 37 49 66 53 17 2 32 5 34 5 2 1 0 -2 -3 -8z m-1230 -16 c14 -6
14 -8 -1 -25 -26 -29 -114 -24 -114 6 0 7 6 16 13 18 18 8 83 8 102 1z m145
-4 c12 -8 12 -10 -3 -16 -22 -8 -50 3 -42 16 8 12 25 13 45 0z m410 -5 c0 -22
-67 -52 -82 -37 -16 16 6 40 40 45 15 2 30 5 35 6 4 0 7 -6 7 -14z m52 -7 c-6
-6 -15 -8 -19 -4 -4 4 -1 11 7 16 19 12 27 3 12 -12z m176 5 c-4 -22 -53 -30
-73 -13 -22 19 -8 30 36 30 33 0 40 -3 37 -17z m-928 3 c0 -11 -19 -15 -25 -6
-3 5 1 10 9 10 9 0 16 -2 16 -4z m214 -11 c4 -10 -1 -15 -14 -15 -30 0 -24
-17 8 -24 15 -4 36 -9 47 -12 14 -4 16 -3 7 4 -10 7 -10 11 2 22 13 10 19 8
36 -11 21 -26 26 -20 10 12 -11 20 3 28 15 9 3 -5 17 -10 30 -10 13 0 27 5 30
10 10 16 52 12 59 -5 3 -8 18 -20 32 -26 27 -10 27 -10 7 -24 -11 -7 -37 -16
-59 -18 -49 -6 -84 -17 -84 -27 0 -3 -19 -6 -42 -6 -37 1 -43 -2 -42 -19 0
-14 -7 -21 -25 -22 -36 -4 -111 7 -110 15 5 33 -2 41 -27 32 -36 -14 -51 -13
-36 2 17 17 15 48 -3 48 -9 0 -12 -6 -9 -15 4 -9 0 -15 -10 -15 -19 0 -20 9
-3 30 7 9 24 15 40 15 15 -1 27 3 27 7 0 4 7 8 15 8 25 0 88 37 73 43 -9 4 -8
6 3 6 9 1 19 -6 23 -14z m166 5 c0 -5 -7 -10 -15 -10 -8 0 -15 5 -15 10 0 6 7
10 15 10 8 0 15 -4 15 -10z m170 -9 c0 -22 -30 -35 -60 -26 -20 6 -26 25 -13
38 3 4 21 7 40 7 26 0 33 -4 33 -19z m-610 1 c0 -4 -8 -12 -18 -19 -21 -13
-48 -1 -38 16 8 12 56 15 56 3z m880 -1 c0 -6 -5 -13 -10 -16 -15 -9 -43 3
-35 15 8 13 45 13 45 1z m239 -7 c44 -9 38 -21 -16 -32 -61 -13 -112 5 -86 31
8 9 61 9 102 1z m261 -9 c0 -8 -7 -15 -15 -15 -13 0 -14 3 -3 15 16 18 18 18
18 0z m120 -26 c-8 -43 -25 -68 -37 -55 -5 4 0 14 10 21 15 10 17 21 12 44 -5
24 -3 31 8 31 11 0 13 -8 7 -41z m-1435 21 c-3 -5 -17 -10 -31 -10 -14 0 -22
4 -19 10 3 6 17 10 31 10 14 0 22 -4 19 -10z m1145 -16 c0 -7 -9 -18 -19 -24
-41 -21 -54 -6 -25 29 18 21 44 18 44 -5z m330 22 c0 -3 -4 -8 -10 -11 -5 -3
-10 -1 -10 4 0 6 5 11 10 11 6 0 10 -2 10 -4z m-726 -19 c30 -22 16 -51 -29
-58 -23 -4 -45 -3 -52 3 -46 37 33 90 81 55z m156 -1 c0 -3 -4 -8 -10 -11 -5
-3 -10 -1 -10 4 0 6 5 11 10 11 6 0 10 -2 10 -4z m304 -5 c8 -12 -21 -34 -34
-26 -17 11 -11 35 9 35 11 0 22 -4 25 -9z m-1202 -16 c-2 -10 -40 -15 -56 -7
-13 7 17 22 39 20 11 -2 19 -7 17 -13z m575 -2 c3 -7 -10 -22 -29 -33 -38 -23
-38 -23 -58 -10 -13 9 -11 14 14 36 29 25 66 29 73 7z m956 10 c-7 -2 -19 -2
-25 0 -7 3 -2 5 12 5 14 0 19 -2 13 -5z m-705 -14 c-2 -6 -8 -10 -13 -10 -5 0
-11 4 -13 10 -2 6 4 11 13 11 9 0 15 -5 13 -11z m197 -8 c7 -12 -12 -24 -25
-16 -11 7 -4 25 10 25 5 0 11 -4 15 -9z m510 -1 c3 -6 -4 -10 -17 -10 -18 0
-20 2 -8 10 19 12 18 12 25 0z m-625 -20 c0 -8 -24 -20 -41 -20 -14 0 -11 28
4 33 15 5 37 -2 37 -13z m-280 0 c0 -5 -7 -10 -15 -10 -8 0 -15 5 -15 10 0 6
7 10 15 10 8 0 15 -4 15 -10z m460 0 c12 -8 11 -10 -7 -10 -13 0 -23 5 -23 10
0 13 11 13 30 0z m-88 -16 c21 -11 27 -19 20 -26 -7 -7 -20 -4 -41 8 -53 31
-35 47 21 18z m298 6 c0 -5 -5 -10 -11 -10 -5 0 -7 5 -4 10 3 6 8 10 11 10 2
0 4 -4 4 -10z m-862 -16 c-9 -9 -21 -13 -27 -10 -20 13 -11 26 16 26 25 0 26
-1 11 -16z m337 -5 c-2 -27 -30 -48 -56 -42 -31 8 -34 24 -8 44 34 26 66 25
64 -2z m46 -2 c-13 -13 -26 -3 -16 12 3 6 11 8 17 5 6 -4 6 -10 -1 -17z m299
-12 c-15 -18 -42 -19 -58 -3 -20 20 -14 27 26 30 41 3 50 -5 32 -27z m430 25
c0 -5 -4 -10 -10 -10 -5 0 -10 5 -10 10 0 6 5 10 10 10 6 0 10 -4 10 -10z
m-1180 -10 c0 -5 -2 -10 -4 -10 -3 0 -8 5 -11 10 -3 6 -1 10 4 10 6 0 11 -4
11 -10z m-80 -9 c0 -12 -20 -25 -27 -18 -7 7 6 27 18 27 5 0 9 -4 9 -9z m658
-13 c-2 -13 -11 -24 -21 -26 -22 -4 -35 27 -16 39 25 16 41 10 37 -13z m-88 2
c0 -5 -7 -10 -16 -10 -8 0 -12 5 -9 10 3 6 10 10 16 10 5 0 9 -4 9 -10z
m-1204 -51 c27 -1 79 2 116 6 63 7 71 5 135 -26 53 -25 63 -33 46 -36 -12 -3
-44 6 -70 18 -41 18 -64 21 -159 20 -133 -2 -244 20 -244 49 0 16 5 16 64 -6
35 -12 86 -24 112 -25z m704 41 c0 -5 -9 -10 -20 -10 -11 0 -20 5 -20 10 0 6
9 10 20 10 11 0 20 -4 20 -10z m44 -11 c-3 -5 -10 -7 -15 -3 -5 3 -7 10 -3 15
3 5 10 7 15 3 5 -3 7 -10 3 -15z m1146 -51 c0 -17 -6 -19 -52 -16 -55 3 -75
22 -38 36 11 4 37 6 56 4 26 -3 34 -9 34 -24z m-2000 -2 c14 -1 31 -5 37 -9 7
-4 65 -7 129 -6 79 1 120 -3 127 -11 15 -16 -295 -8 -335 8 -34 14 -38 35 -5
27 12 -3 33 -7 47 -9z m1855 -6 c-3 -5 -13 -10 -21 -10 -8 0 -14 5 -14 10 0 6
9 10 21 10 11 0 17 -4 14 -10z m145 -158 l0 -119 -467 -4 c-258 -2 -722 -4
-1033 -4 l-565 0 -3 117 -3 117 153 3 c84 2 550 4 1036 6 l882 3 0 -119z"/>
<path d="M1810 3169 c0 -5 5 -7 10 -4 6 3 10 8 10 11 0 2 -4 4 -10 4 -5 0 -10
-5 -10 -11z"/>
<path d="M1170 3110 c0 -5 5 -10 10 -10 6 0 10 5 10 10 0 6 -4 10 -10 10 -5 0
-10 -4 -10 -10z"/>
<path d="M1230 3110 c0 -5 5 -10 10 -10 6 0 10 5 10 10 0 6 -4 10 -10 10 -5 0
-10 -4 -10 -10z"/>
<path d="M1182 2823 c5 -25 28 -28 28 -4 0 12 -6 21 -16 21 -9 0 -14 -7 -12
-17z"/>
<path d="M1195 2780 c3 -5 8 -10 11 -10 2 0 4 5 4 10 0 6 -5 10 -11 10 -5 0
-7 -4 -4 -10z"/>
<path d="M1200 2750 c0 -5 5 -10 11 -10 5 0 7 5 4 10 -3 6 -8 10 -11 10 -2 0
-4 -4 -4 -10z"/>
<path d="M1215 2690 c-3 -5 -1 -10 4 -10 6 0 11 5 11 10 0 6 -2 10 -4 10 -3 0
-8 -4 -11 -10z"/>
<path d="M1165 2190 c-3 -5 -1 -10 4 -10 6 0 11 5 11 10 0 6 -2 10 -4 10 -3 0
-8 -4 -11 -10z"/>
<path d="M1155 2160 c3 -5 10 -10 16 -10 5 0 9 5 9 10 0 6 -7 10 -16 10 -8 0
-12 -4 -9 -10z"/>
<path d="M1310 2210 c0 -5 5 -10 10 -10 6 0 10 5 10 10 0 6 -4 10 -10 10 -5 0
-10 -4 -10 -10z"/>
<path d="M1278 2183 c7 -3 16 -2 19 1 4 3 -2 6 -13 5 -11 0 -14 -3 -6 -6z"/>
<path d="M1255 2150 c3 -5 8 -10 11 -10 2 0 4 5 4 10 0 6 -5 10 -11 10 -5 0
-7 -4 -4 -10z"/>
<path d="M1228 2113 c7 -3 16 -2 19 1 4 3 -2 6 -13 5 -11 0 -14 -3 -6 -6z"/>
<path d="M1280 2090 c-13 -25 -9 -116 5 -113 9 3 18 133 9 133 -2 0 -8 -9 -14
-20z"/>
<path d="M1207 2063 c-10 -10 -8 -53 2 -53 5 0 11 14 13 30 4 29 -1 37 -15 23z"/>
<path d="M1088 1703 c12 -2 30 -2 40 0 9 3 -1 5 -23 4 -22 0 -30 -2 -17 -4z"/>
<path d="M345 1668 c-15 -47 -11 -208 5 -208 4 0 8 50 8 110 2 101 -2 130 -13
98z"/>
<path d="M890 1642 c8 -5 33 -12 55 -16 26 -4 35 -3 25 3 -8 5 -33 12 -55 16
-26 4 -35 3 -25 -3z"/>
<path d="M810 1580 c14 -4 34 -8 45 -9 16 -1 17 1 5 9 -8 5 -28 9 -45 9 -29
-1 -29 -1 -5 -9z"/>
<path d="M890 1575 c0 -8 -8 -15 -17 -16 -11 0 -13 -3 -6 -6 14 -5 117 26 110
33 -2 3 -15 0 -29 -5 -15 -5 -30 -5 -41 0 -13 8 -17 6 -17 -6z"/>
<path d="M1345 1620 c3 -5 11 -10 16 -10 6 0 7 5 4 10 -3 6 -11 10 -16 10 -6
0 -7 -4 -4 -10z"/>
<path d="M1745 1160 c3 -5 10 -10 16 -10 5 0 9 5 9 10 0 6 -7 10 -16 10 -8 0
-12 -4 -9 -10z"/>
<path d="M1710 1052 c0 -5 7 -17 15 -28 15 -19 20 -8 9 20 -6 17 -24 22 -24 8z"/>
<path d="M1755 980 c3 -5 8 -10 11 -10 2 0 4 5 4 10 0 6 -5 10 -11 10 -5 0 -7
-4 -4 -10z"/>
<path d="M1735 660 c-3 -5 -1 -10 4 -10 6 0 11 5 11 10 0 6 -2 10 -4 10 -3 0
-8 -4 -11 -10z"/>
<path d="M1990 659 c0 -5 5 -7 10 -4 6 3 10 8 10 11 0 2 -4 4 -10 4 -5 0 -10
-5 -10 -11z"/>
<path d="M1880 650 c0 -5 5 -10 10 -10 6 0 10 5 10 10 0 6 -4 10 -10 10 -5 0
-10 -4 -10 -10z"/>
<path d="M1960 650 c0 -5 5 -10 11 -10 5 0 7 5 4 10 -3 6 -8 10 -11 10 -2 0
-4 -4 -4 -10z"/>
<path d="M1980 579 c0 -5 5 -7 10 -4 6 3 10 8 10 11 0 2 -4 4 -10 4 -5 0 -10
-5 -10 -11z"/>
<path d="M1755 440 c-3 -5 -1 -10 4 -10 6 0 11 5 11 10 0 6 -2 10 -4 10 -3 0
-8 -4 -11 -10z"/>
<path d="M1135 420 c-3 -5 -1 -10 4 -10 6 0 11 5 11 10 0 6 -2 10 -4 10 -3 0
-8 -4 -11 -10z"/>
<path d="M1734 363 c3 -16 16 -22 16 -8 0 3 0 10 0 15 0 6 -4 10 -9 10 -5 0
-8 -8 -7 -17z"/>
<path d="M1218 363 c7 -3 16 -2 19 1 4 3 -2 6 -13 5 -11 0 -14 -3 -6 -6z"/>
<path d="M1430 360 c0 -5 5 -10 10 -10 6 0 10 5 10 10 0 6 -4 10 -10 10 -5 0
-10 -4 -10 -10z"/>
<path d="M1620 360 c0 -5 5 -10 11 -10 5 0 7 5 4 10 -3 6 -8 10 -11 10 -2 0
-4 -4 -4 -10z"/>
<path d="M1335 340 c-3 -5 -1 -10 4 -10 6 0 11 5 11 10 0 6 -2 10 -4 10 -3 0
-8 -4 -11 -10z"/>
<path d="M185 550 c-3 -5 -1 -10 4 -10 6 0 11 5 11 10 0 6 -2 10 -4 10 -3 0
-8 -4 -11 -10z"/>
<path d="M702 485 c-7 -8 -9 -15 -4 -15 5 0 15 7 22 15 16 19 -1 19 -18 0z"/>
<path d="M760 430 c0 -5 5 -10 10 -10 6 0 10 5 10 10 0 6 -4 10 -10 10 -5 0
-10 -4 -10 -10z"/>
<path d="M1436 242 c-13 -3 -15 -7 -6 -18 7 -7 13 -42 13 -76 2 -58 4 -63 25
-66 22 -3 23 -1 16 32 -6 35 -5 36 23 36 38 0 53 16 53 56 0 32 -1 32 -54 36
-29 1 -61 1 -70 0z m79 -47 c0 -13 -8 -21 -23 -23 -21 -3 -23 2 -13 46 1 2 9
2 19 0 9 -2 17 -12 17 -23z"/>
<path d="M435 230 c-20 -3 -26 -8 -17 -13 8 -5 12 -33 12 -78 l0 -69 39 0 c22
0 44 6 51 15 16 19 5 34 -12 17 -21 -21 -48 -14 -48 13 0 18 4 23 16 18 12 -4
15 0 12 18 -2 13 -9 23 -16 22 -7 -2 -12 8 -12 22 0 18 5 25 20 25 11 0 20 -4
20 -10 0 -5 5 -10 10 -10 11 0 14 29 3 31 -26 5 -52 4 -78 -1z"/>
<path d="M575 230 c-22 -4 -35 -8 -29 -9 7 0 11 -28 11 -73 0 -72 1 -73 28
-76 44 -6 75 6 75 28 0 23 -15 27 -24 5 -8 -23 -46 -19 -46 5 0 11 5 20 10 20
6 0 10 14 10 30 0 17 -4 30 -10 30 -5 0 -10 7 -10 15 0 18 36 20 43 3 2 -7 8
-10 12 -6 11 10 -2 38 -17 37 -7 -1 -31 -5 -53 -9z"/>
<path d="M670 230 c0 -5 5 -10 11 -10 7 0 9 -24 7 -70 -3 -67 -2 -70 20 -70
12 0 22 5 22 10 0 6 -4 10 -10 10 -5 0 -10 19 -10 41 l0 42 41 -52 c22 -28 44
-51 49 -51 4 0 8 32 9 71 0 38 3 74 6 80 4 5 -6 9 -21 9 -22 0 -24 -2 -15 -14
7 -8 11 -29 9 -46 l-3 -32 -34 46 c-24 32 -42 46 -58 46 -13 0 -23 -4 -23 -10z"/>
<path d="M1098 210 c-26 -27 -29 -35 -23 -68 3 -20 14 -43 23 -50 17 -13 69
-16 96 -6 24 9 19 26 -5 19 -30 -10 -78 14 -85 41 -7 29 19 74 44 74 9 0 29
-14 44 -32 l27 -33 1 43 0 42 -46 0 c-37 0 -51 -5 -76 -30z"/>
<path d="M1254 223 c3 -10 8 -40 12 -68 3 -27 11 -56 16 -62 12 -15 54 -17 63
-3 4 7 13 6 26 -1 11 -6 28 -7 37 -4 14 6 13 8 -7 16 -22 9 -23 13 -19 74 4
61 3 65 -18 65 -19 0 -21 -3 -14 -39 9 -48 -11 -104 -34 -95 -19 7 -31 63 -22
104 5 27 3 30 -20 30 -19 0 -24 -4 -20 -17z"/>
<path d="M1605 216 c-24 -36 -6 -66 40 -66 31 0 35 -3 35 -25 0 -21 -5 -25
-30 -25 -20 0 -40 9 -56 25 -32 32 -36 32 -32 -7 3 -31 4 -32 59 -36 43 -3 60
1 79 16 22 17 23 23 12 46 -9 19 -19 26 -41 26 -16 0 -34 7 -41 16 -11 12 -10
18 4 32 16 16 18 16 36 -5 10 -13 21 -23 25 -23 3 0 5 10 3 23 -2 17 -10 23
-40 25 -30 3 -40 -1 -53 -22z"/>
<path d="M111 204 c-56 -47 -31 -125 41 -127 26 -1 38 -6 41 -19 3 -11 14 -18
27 -18 19 0 21 2 10 15 -11 13 -10 22 8 53 26 48 19 88 -19 107 -41 22 -73 18
-108 -11z m81 -11 c10 -9 18 -30 18 -49 0 -28 -4 -33 -30 -39 -38 -8 -60 8
-60 46 0 28 22 59 42 59 6 0 20 -7 30 -17z"/>
<path d="M258 218 c7 -7 12 -38 12 -69 0 -34 5 -61 13 -67 13 -11 112 -10 124
1 3 4 -2 7 -11 7 -15 0 -17 9 -14 70 2 51 0 70 -9 70 -9 0 -13 -18 -13 -59 0
-69 -19 -96 -48 -67 -12 12 -17 33 -17 71 0 52 -1 55 -24 55 -20 0 -22 -3 -13
-12z"/>
<path d="M933 203 c-19 -7 -16 -34 7 -68 25 -37 26 -71 3 -84 -16 -9 -16 -10
-2 -11 24 0 41 25 38 57 -2 15 0 33 4 40 8 13 -8 27 -22 19 -5 -3 -12 2 -16
11 -3 10 -1 19 4 21 12 4 15 22 4 21 -5 0 -14 -3 -20 -6z"/>
<path d="M877 134 c-14 -15 -6 -43 14 -49 25 -8 42 6 37 31 -3 19 -38 31 -51
18z m33 -24 c0 -5 -2 -10 -4 -10 -3 0 -8 5 -11 10 -3 6 -1 10 4 10 6 0 11 -4
11 -10z"/>
<path d="M1780 100 c0 -15 5 -20 18 -18 9 2 17 10 17 18 0 8 -8 16 -17 18 -13
2 -18 -3 -18 -18z"/>
</g>
</svg>
