<?xml version="1.0" standalone="no"?>
<!DOCTYPE svg PUBLIC "-//W3C//DTD SVG 20010904//EN"
 "http://www.w3.org/TR/2001/REC-SVG-20010904/DTD/svg10.dtd">
<svg version="1.0" xmlns="http://www.w3.org/2000/svg"
 width="220.000000pt" height="386.000000pt" viewBox="0 0 220.000000 386.000000"
 preserveAspectRatio="xMidYMid meet">
<metadata>
Created by potrace 1.16, written by Peter Selinger 2001-2019
</metadata>
<g transform="translate(0.000000,386.000000) scale(0.100000,-0.100000)"
fill="#000000" stroke="none">
<path d="M9 2543 c-1 -1649 5 -2505 17 -2525 3 -4 100 -7 217 -9 116 -1 228
-2 247 -2 19 -1 352 2 740 6 707 7 887 13 926 27 21 8 21 12 28 552 8 576 8
1052 1 2318 -3 432 -5 822 -5 868 0 54 -4 82 -11 82 -9 0 -10 -285 -5 -1117 3
-615 9 -1127 12 -1139 3 -13 -1 -27 -11 -38 -9 -9 -12 -16 -6 -16 6 0 11 -7
11 -15 0 -8 -9 -15 -20 -15 -14 0 -20 7 -20 23 0 12 -5 29 -11 37 -8 11 -9 7
-4 -17 4 -21 3 -33 -4 -33 -6 0 -8 7 -4 15 3 10 1 15 -8 13 -15 -3 -24 26 -15
49 5 13 9 13 22 2 14 -11 18 -10 30 6 16 22 18 45 4 45 -5 0 -10 -6 -10 -14 0
-20 -19 -31 -32 -18 -12 12 -41 4 -33 -9 3 -5 -6 -11 -21 -15 -19 -5 -22 -9
-12 -16 10 -7 8 -13 -12 -29 -21 -18 -25 -19 -28 -6 -2 9 2 25 8 36 6 11 10
45 9 75 -1 33 3 62 11 71 17 20 5 32 -15 15 -11 -9 -15 -32 -15 -83 0 -60 -4
-77 -26 -109 -23 -33 -32 -38 -65 -38 -53 0 -50 18 4 23 l42 4 -45 1 c-33 2
-53 9 -73 28 -24 22 -27 32 -26 83 1 31 -3 67 -10 79 -16 29 -35 18 -20 -11
l11 -22 -22 22 c-21 19 -22 25 -11 52 12 26 19 30 74 39 56 9 58 10 20 11 -23
0 -44 5 -47 10 -3 4 7 6 22 3 15 -3 25 -2 22 1 -3 3 -28 8 -55 12 -44 5 -47 4
-31 -8 15 -11 16 -16 6 -22 -9 -6 -11 -4 -5 5 5 8 3 11 -6 8 -8 -3 -13 -11
-11 -17 1 -7 -2 -10 -8 -6 -8 5 -7 12 2 23 11 13 10 15 -5 9 -10 -4 -16 -3
-12 2 3 5 0 11 -7 13 -7 3 -5 7 6 11 11 4 15 3 10 -4 -7 -13 -6 -12 49 16 36
18 39 18 48 2 7 -11 22 -17 44 -17 28 0 35 4 35 20 0 28 11 25 64 -17 43 -35
44 -38 23 -44 -19 -5 -18 -7 13 -13 19 -5 41 -13 48 -18 19 -16 14 -56 -9 -79
-11 -11 -18 -23 -15 -26 11 -11 56 47 56 73 0 29 -49 81 -126 135 -45 31 -60
62 -38 80 17 14 28 70 19 98 -8 27 -71 30 -91 4 -18 -26 -26 -11 -8 15 10 15
26 22 47 22 l32 0 2 78 c1 42 1 93 2 112 0 51 21 122 42 146 27 29 24 40 -12
53 -42 15 -110 14 -159 -1 -46 -15 -50 -31 -16 -53 25 -17 35 -51 39 -135 2
-25 6 -53 11 -62 10 -21 0 -52 -13 -43 -5 3 -13 1 -16 -5 -4 -6 -1 -9 7 -8 22
5 23 -105 2 -123 -16 -13 -17 -11 -10 30 5 30 2 50 -7 65 -8 11 -17 37 -21 56
-8 44 -43 119 -69 147 -17 19 -19 32 -14 91 3 40 16 92 31 126 23 52 29 58 48
52 109 -32 168 -3 168 80 0 120 -255 306 -510 372 -41 11 -76 24 -78 31 -2 6
0 11 5 11 5 0 16 23 23 51 8 27 18 52 22 55 13 8 9 44 -4 45 -23 2 -33 5 -63
18 -16 7 -54 15 -84 17 -30 3 -61 10 -68 16 -9 7 -21 7 -40 0 -16 -6 -46 -14
-68 -17 -22 -4 -62 -14 -90 -23 -27 -9 -61 -17 -75 -17 -16 0 -29 -9 -37 -25
-19 -37 -15 -70 12 -115 30 -48 31 -55 5 -55 -43 0 -221 -74 -315 -131 -136
-83 -162 -104 -196 -157 -38 -61 -38 -104 0 -143 36 -36 64 -37 124 -4 l47 24
16 -25 c15 -23 15 -26 0 -43 -22 -24 -20 -53 4 -84 11 -14 20 -30 20 -35 0 -6
-31 -52 -69 -102 -80 -108 -139 -218 -147 -275 -4 -22 -26 -81 -50 -131 -24
-50 -44 -97 -44 -105 0 -9 11 -26 25 -39 27 -25 33 -67 14 -101 -5 -11 -14
-46 -20 -77 -8 -49 -6 -60 10 -83 18 -25 19 -31 4 -160 -21 -192 -16 -178 -61
-172 -23 3 -50 -1 -72 -11 -19 -9 -26 -13 -15 -10 42 13 103 16 109 5 5 -7 -4
-11 -25 -11 -31 0 -105 -37 -95 -47 3 -3 17 4 32 16 17 13 40 21 63 20 28 0
32 -2 16 -8 l-20 -8 20 -6 c11 -3 5 -4 -14 -4 -19 1 -36 -4 -39 -11 -2 -6 -10
-12 -18 -12 -8 0 -14 -3 -14 -8 0 -11 -79 -7 -115 6 -27 9 -25 10 20 7 49 -3
51 -2 53 23 l2 27 -18 -23 c-14 -18 -24 -22 -45 -17 -31 8 -41 20 -31 36 5 8
10 6 16 -5 5 -9 19 -15 31 -15 17 1 18 2 5 6 -19 5 -25 23 -8 23 6 0 10 8 10
17 0 13 -3 14 -12 5 -7 -7 -21 -12 -32 -12 -19 0 -19 0 0 21 15 17 27 19 66
16 46 -5 48 -4 42 17 -4 11 -14 26 -22 32 -9 7 -13 18 -9 28 4 10 3 15 -3 11
-15 -9 -12 -45 5 -51 21 -9 19 -19 -5 -21 -11 -1 -18 2 -15 7 3 4 -4 6 -15 3
-12 -3 -20 0 -20 7 0 9 -6 8 -19 -4 -17 -16 -18 -15 -17 20 1 26 7 41 24 52
20 13 22 13 16 -2 -3 -9 -1 -16 5 -16 6 0 8 -7 5 -15 -4 -8 -1 -15 4 -15 6 0
9 16 6 38 -3 23 -1 32 5 23 6 -9 11 -10 15 -2 10 15 79 14 94 -1 15 -15 16
-62 2 -53 -6 4 -9 1 -8 -6 2 -7 -5 -13 -14 -14 -10 0 -18 -3 -18 -7 0 -5 0
-12 0 -18 0 -16 14 -12 38 10 28 27 29 80 2 105 -23 21 -98 17 -148 -8 l-32
-15 0 36 c-3 1511 0 2426 7 2433 5 5 333 10 763 12 l755 2 -772 3 -773 2 -1
-1317z m1069 765 c-2 -6 -11 -12 -19 -14 -7 -1 -26 -5 -41 -9 -18 -4 -28 -3
-28 3 0 6 19 15 43 20 23 6 44 10 45 11 2 1 2 -4 0 -11z m259 -28 c11 -16 18
-19 26 -11 22 22 25 10 6 -29 -20 -41 -39 -45 -39 -10 0 10 -5 22 -11 25 -6 4
-8 13 -5 21 3 9 -6 15 -29 20 -19 3 -35 10 -35 14 0 16 72 -9 87 -30z m-97 15
c10 -12 10 -19 2 -27 -20 -20 -14 -28 21 -28 24 0 28 3 17 10 -8 5 -10 10 -4
10 6 0 18 -8 25 -17 10 -11 10 -14 2 -9 -10 5 -12 -3 -8 -36 l6 -43 -21 23
c-26 27 -36 28 -50 2 -13 -24 -30 -26 -30 -5 0 8 6 15 14 15 8 0 17 7 20 16 4
11 14 15 31 12 14 -3 22 -1 19 4 -4 6 -19 8 -35 6 -15 -2 -28 -2 -27 1 0 3 0
14 -1 24 -1 14 -4 15 -20 5 -15 -9 -23 -9 -34 1 -11 8 -16 9 -19 1 -4 -13 -78
-3 -78 10 0 35 144 56 170 25z m-336 -36 c-4 -7 0 -9 12 -6 53 16 72 18 79 7
4 -7 -1 -13 -13 -17 -11 -2 -22 -13 -25 -24 -4 -13 -14 -19 -35 -19 -34 0 -50
16 -34 32 6 6 8 17 5 24 -3 8 0 14 7 14 6 0 8 -5 4 -11z m282 -42 c-4 6 -1 15
5 18 7 5 9 -1 7 -16 -2 -15 -10 -23 -26 -24 -16 -1 -21 3 -17 12 3 8 5 20 5
26 0 6 7 2 16 -9 8 -10 13 -14 10 -7z m-49 -9 c-3 -8 -6 -5 -6 6 -1 11 2 17 5
13 3 -3 4 -12 1 -19z m-41 -3 c4 -8 12 -15 20 -15 8 0 14 -4 14 -10 0 -13 -6
-13 -30 2 -22 14 -54 2 -56 -21 -1 -6 -3 -14 -4 -18 -1 -5 -2 -12 -1 -17 1 -5
-5 -6 -14 -2 -9 3 -21 6 -26 6 -6 0 -7 5 -4 11 4 6 13 8 20 5 9 -3 16 6 21 27
9 45 48 65 60 32z m-86 -24 c0 -5 -7 -11 -15 -15 -9 -3 -15 0 -15 9 0 8 7 15
15 15 8 0 15 -4 15 -9z m-76 -43 c-9 -14 -24 2 -24 25 1 21 1 21 15 3 8 -10
12 -23 9 -28z m26 27 c0 -8 -2 -15 -4 -15 -2 0 -6 7 -10 15 -3 8 -1 15 4 15 6
0 10 -7 10 -15z m224 0 c3 -8 15 -15 26 -15 11 0 23 7 26 15 7 17 34 21 34 5
0 -5 -5 -9 -11 -7 -6 1 -13 -3 -16 -9 -5 -16 38 -26 54 -12 10 8 13 5 13 -14
0 -24 -1 -25 -35 -14 -19 6 -35 14 -35 18 0 5 -9 8 -21 8 -11 0 -32 9 -46 20
-17 14 -21 20 -10 20 8 0 17 -7 21 -15z m-78 -6 c3 -6 15 -9 25 -6 20 5 26 -7
9 -18 -6 -4 -22 0 -35 9 -32 21 -35 20 -35 -6 0 -17 3 -19 9 -9 7 11 13 11 32
-3 l23 -16 -26 0 c-43 0 -55 9 -50 36 5 25 35 34 48 13z m79 -29 c4 -6 -5 -10
-20 -10 -15 0 -24 4 -20 10 3 6 12 10 20 10 8 0 17 -4 20 -10z m-220 -20 c3
-5 12 -7 20 -3 11 4 13 1 9 -11 -7 -19 -6 -19 -38 -3 -14 8 -23 17 -19 20 9
10 21 9 28 -3z m65 -10 c0 -5 -5 -10 -11 -10 -5 0 -7 5 -4 10 3 6 8 10 11 10
2 0 4 -4 4 -10z m215 -2 c31 -14 33 -36 3 -40 -21 -3 -23 -7 -19 -56 3 -48 1
-53 -15 -50 -11 2 -18 11 -16 19 3 12 1 12 -10 1 -11 -11 -10 -16 5 -26 22
-17 22 -26 -3 -26 -11 0 -20 -3 -20 -8 0 -4 19 -6 41 -4 24 3 36 7 29 12 -9 5
-9 9 -1 14 6 4 11 23 11 42 0 34 16 46 26 20 3 -8 -1 -45 -8 -83 l-14 -68 -58
2 c-42 2 -68 9 -93 25 l-34 23 3 72 c3 60 7 76 28 98 37 39 100 54 145 33z
m224 -34 c114 -38 229 -95 295 -147 102 -80 148 -133 127 -147 -10 -5 -9 -11
3 -23 19 -18 21 -57 4 -57 -6 0 -8 -3 -5 -7 26 -26 -71 -45 -114 -22 -19 10
-18 29 2 29 6 0 7 -4 4 -10 -3 -5 1 -10 9 -10 9 0 16 9 16 20 0 26 -21 25 -56
-2 -15 -13 -37 -21 -48 -19 -17 2 -18 1 -7 -12 10 -13 9 -15 -11 -10 -21 4
-22 3 -5 -10 23 -19 22 -30 -2 -17 -24 12 -31 13 -31 1 0 -5 9 -13 20 -16 30
-10 24 -26 -6 -19 -19 5 -25 4 -20 -5 4 -6 14 -11 22 -11 8 0 14 -5 14 -11 0
-6 -9 -8 -20 -4 -11 4 -20 2 -20 -4 0 -6 7 -11 15 -11 9 0 15 -9 15 -25 0 -14
-4 -25 -9 -25 -5 0 -8 -16 -7 -35 4 -47 -9 -36 -24 22 -7 27 -21 66 -31 89
-11 22 -19 47 -19 55 0 20 -20 39 -42 39 -10 0 -18 5 -18 10 0 9 -68 84 -167
184 -24 25 -31 42 -32 72 0 21 -3 61 -7 87 -5 38 -3 52 11 68 10 10 22 19 28
19 5 0 57 -16 116 -36z m-530 -53 c6 -20 10 -53 9 -74 0 -21 6 -46 14 -55 16
-19 13 -53 -5 -51 -37 4 -59 -3 -64 -21 -3 -11 -9 -17 -14 -14 -17 10 -182
-77 -220 -116 -21 -21 -44 -40 -51 -42 -12 -4 -75 88 -70 104 1 3 -5 9 -13 12
-8 3 -15 1 -15 -5 0 -6 -11 -8 -29 -4 -28 6 -29 4 -33 -34 -2 -23 1 -43 7 -45
6 -3 6 -5 -1 -5 -24 -2 -64 41 -64 68 0 26 23 68 44 83 6 4 7 10 3 14 -12 12
-35 -16 -53 -62 -17 -44 -17 -46 5 -74 17 -24 18 -30 7 -30 -20 0 -36 31 -36
68 0 58 57 121 176 194 101 63 276 141 334 150 33 5 58 -17 69 -61z m116 2
c-2 -38 -3 -76 -4 -85 -2 -26 -46 -52 -67 -40 -14 8 -18 26 -19 89 l-2 80 36
10 c59 17 58 18 56 -54z m260 -83 c-13 -21 -25 -8 -25 28 l1 37 15 -28 c8 -15
12 -32 9 -37z m-245 -70 c6 -11 9 -20 7 -20 -2 0 -12 9 -22 20 -10 11 -13 20
-7 20 6 0 16 -9 22 -20z m-48 -10 c-3 -14 42 -66 70 -81 13 -7 16 -6 12 4 -3
8 -16 19 -30 25 -52 24 -15 32 74 16 33 -6 42 -18 20 -27 -7 -3 -3 -6 10 -6
12 -1 34 6 47 15 20 13 25 14 25 3 1 -8 7 -2 16 13 9 18 20 25 30 21 12 -5 12
-8 -6 -20 -11 -8 -20 -22 -20 -31 1 -15 2 -15 13 -1 7 8 20 18 30 22 10 4 15
11 12 17 -3 5 -2 10 4 10 24 0 21 -24 -4 -44 -16 -13 -25 -28 -21 -34 9 -14
-56 -48 -126 -66 -44 -11 -58 -11 -86 1 -19 8 -36 12 -39 9 -3 -3 10 -11 30
-19 37 -16 78 -12 157 16 50 18 66 16 20 -3 -16 -7 -27 -16 -25 -21 7 -11 -51
-54 -73 -54 -9 0 -20 5 -24 10 -5 6 -15 6 -28 -3 -15 -9 -26 -10 -41 -1 -11 6
-23 8 -26 5 -3 -3 9 -12 28 -20 29 -13 34 -13 37 0 2 8 8 14 13 14 12 0 11 -6
-6 -39 -8 -16 -12 -31 -9 -34 3 -3 1 -15 -6 -26 -11 -22 -40 -29 -40 -10 0 5
5 7 10 4 6 -3 10 -2 10 4 0 5 -10 13 -22 17 l-23 7 23 8 c23 9 23 9 3 30 -11
12 -23 19 -28 16 -5 -3 -14 8 -20 24 -10 25 -9 28 1 20 10 -8 17 -7 26 4 9 11
17 12 31 4 13 -7 19 -6 19 1 0 6 -8 13 -17 17 -28 10 -143 105 -143 118 0 6
16 19 35 28 24 11 35 24 35 38 0 12 5 19 13 16 6 -2 11 -10 9 -17z m-166 -117
c29 -31 45 -23 19 9 -10 13 -1 6 19 -15 42 -43 57 -43 29 0 -14 23 -15 26 -1
15 24 -19 95 -170 112 -238 19 -73 39 -251 32 -270 -3 -8 -2 -14 3 -14 4 0 7
-29 7 -65 0 -37 -5 -65 -11 -65 -5 0 -3 -4 5 -10 12 -8 12 -10 -4 -16 -14 -5
-15 -9 -4 -16 10 -8 11 -11 0 -15 -10 -4 -10 -8 -1 -19 8 -10 8 -14 0 -14 -6
0 -9 -13 -7 -30 2 -16 0 -30 -4 -30 -4 0 -10 -15 -13 -34 -5 -31 -67 -132 -67
-109 0 6 10 23 21 37 12 15 23 44 25 64 2 20 9 94 15 163 9 92 10 145 2 195
-6 40 -6 81 -2 99 8 25 5 33 -13 47 -13 10 -35 18 -50 18 -15 0 -30 5 -33 10
-4 6 -32 23 -63 39 -66 33 -77 45 -122 126 -18 33 -40 68 -48 78 -13 15 -13
17 -1 17 8 0 21 -6 28 -12 11 -11 12 -8 6 12 -8 25 -8 25 14 6 24 -22 41 -15
21 9 -17 20 -1 19 22 -2 25 -22 36 -8 13 17 -24 27 -7 26 22 -2 29 -27 42 -17
14 11 -12 12 -21 23 -21 26 0 11 12 4 36 -22z m517 6 c-43 -27 -41 -35 6 -34
22 0 37 -3 34 -8 -3 -4 11 -5 31 -2 31 6 35 5 30 -9 -4 -11 -2 -15 7 -11 8 3
20 -4 27 -16 11 -18 11 -23 -5 -35 -10 -8 -30 -17 -46 -20 -15 -4 -30 -11 -33
-15 -10 -17 31 -9 65 12 48 29 51 16 3 -16 -39 -26 -194 -74 -239 -75 -17 0
-24 7 -29 28 -3 15 -10 39 -14 55 -5 15 -5 27 0 27 4 0 10 -5 12 -11 5 -15 78
31 78 49 0 6 5 12 10 12 6 0 10 10 10 23 0 30 35 67 63 67 19 0 18 -3 -10 -21z
m87 -20 c0 -14 -17 -10 -23 5 -4 10 -1 13 9 9 7 -3 14 -9 14 -14z m-970 -9 c0
-5 -7 -10 -15 -10 -8 0 -15 5 -15 10 0 6 7 10 15 10 8 0 15 -4 15 -10z m790
-55 c0 -15 -38 -40 -47 -31 -7 7 26 46 39 46 4 0 8 -7 8 -15z m249 -77 c-45
-38 -171 -85 -244 -91 -33 -3 -49 -3 -35 -1 142 29 299 100 301 139 1 19 1 19
6 0 4 -13 -5 -28 -28 -47z m-859 42 c0 -5 -5 -10 -11 -10 -5 0 -7 5 -4 10 3 6
8 10 11 10 2 0 4 -4 4 -10z m53 -39 c-4 -16 10 -35 28 -36 3 0 20 -16 37 -37
18 -20 50 -45 72 -56 l39 -19 -98 -11 c-116 -14 -130 -18 -140 -46 -11 -28 5
-69 51 -137 40 -60 44 -69 28 -69 -17 0 -50 34 -50 51 0 9 -6 22 -14 28 -12
10 -15 8 -18 -10 -2 -19 -15 -25 -75 -40 -83 -21 -107 -34 -122 -67 -21 -44
13 -58 49 -20 19 21 20 24 4 35 -15 11 -15 13 7 21 13 5 42 12 64 15 37 6 42
4 72 -33 33 -38 33 -39 10 -46 -12 -3 -30 -13 -39 -22 -10 -8 -18 -12 -18 -7
0 4 -7 2 -15 -5 -11 -9 -15 -9 -15 -1 0 7 -4 9 -10 6 -5 -3 -10 -11 -10 -16 0
-6 5 -7 10 -4 13 8 13 -5 0 -25 -8 -12 -10 -12 -11 5 0 11 -3 15 -5 8 -3 -7
-12 -9 -20 -6 -11 4 -14 -4 -14 -35 0 -24 -7 -47 -16 -57 -15 -15 -18 -15 -32
-1 -14 14 -14 17 3 36 10 11 13 20 8 20 -6 0 -16 -7 -23 -15 -14 -17 -45 -21
-35 -5 3 6 1 10 -4 10 -6 0 -10 3 -10 8 5 29 -3 42 -27 42 -15 0 -23 4 -18 11
3 6 18 8 33 5 24 -6 25 -5 7 8 -10 9 -24 17 -30 19 -6 2 -8 8 -3 12 4 5 13 3
19 -3 7 -7 17 -12 23 -12 5 1 -1 10 -14 21 l-25 20 27 -6 c20 -6 27 -3 27 8 0
8 -7 18 -16 21 -15 6 -14 9 6 31 13 13 27 22 31 19 15 -9 10 13 -6 26 -8 7
-15 17 -15 22 0 6 7 5 15 -2 12 -10 15 -10 15 3 0 8 -6 18 -12 21 -7 4 -3 4
10 2 18 -3 22 -1 18 10 -3 9 -1 12 4 9 19 -12 41 22 34 52 -6 24 -5 26 8 15
13 -10 17 -10 22 3 3 8 3 21 0 29 -4 11 1 13 18 10 13 -2 17 -2 11 2 -21 10
-14 26 8 19 18 -6 20 -5 10 14 -8 14 -8 21 -1 21 5 0 10 -4 10 -10 0 -5 5 -10
10 -10 7 0 7 6 0 20 -13 25 -2 26 16 3 7 -10 16 -15 19 -11 4 4 0 14 -9 23
-21 21 -21 42 -1 25 20 -17 32 -5 15 15 -15 18 1 20 18 3 9 -9 12 -9 12 1 0 7
5 9 10 6 12 -7 12 -3 4 19 -8 22 -25 20 -17 -1 5 -15 3 -16 -8 -5 -11 10 -11
15 3 28 15 15 16 14 23 -5 3 -11 11 -21 16 -21 12 0 11 14 -2 27 -13 13 -5 43
10 43 5 0 7 -8 4 -19z m857 -22 c0 -10 5 -19 11 -19 6 0 9 -10 7 -22 -2 -19
-9 -23 -35 -22 -25 2 -33 -3 -35 -19 -5 -33 -30 -42 -66 -24 -29 14 -32 14
-37 -3 -8 -24 -38 -34 -80 -26 -25 5 -36 3 -43 -10 -7 -12 -15 -14 -33 -8 -13
4 -30 7 -37 5 -9 -1 -12 6 -10 20 2 19 16 26 88 45 88 23 172 57 225 92 34 22
45 20 45 -9z m-423 -9 c-2 -29 -17 -24 -17 6 0 14 4 23 9 19 6 -3 9 -14 8 -25z
m41 0 c-3 -16 -1 -30 4 -30 16 0 8 -75 -12 -107 -22 -37 -41 -44 -33 -13 3 11
0 27 -7 35 -7 8 -9 15 -6 15 4 0 0 7 -8 16 -18 17 -13 34 9 34 9 0 12 -6 8
-17 -6 -15 -5 -16 9 -3 9 8 12 18 7 21 -5 3 -2 14 6 25 8 10 15 27 15 37 0 9
3 17 6 17 4 0 4 -13 2 -30z m759 -64 c11 -11 -32 -47 -60 -50 -15 -1 -30 -5
-33 -8 -10 -11 -43 4 -38 17 3 7 -4 16 -15 20 -23 7 -19 25 5 25 9 0 12 -5 8
-12 -5 -8 -2 -9 10 -5 10 4 20 7 22 7 3 0 2 5 -2 11 -5 9 8 10 45 7 28 -3 54
-8 58 -12z m-342 -36 c-10 -17 -25 -11 -18 7 4 10 2 14 -5 9 -18 -11 -10 -47
9 -41 17 6 59 -40 59 -64 0 -6 7 -11 15 -11 17 0 49 -56 40 -71 -4 -5 -1 -8 5
-7 12 3 46 -69 38 -78 -10 -10 -291 72 -365 106 -24 11 -46 20 -50 20 -5 0
-28 16 -52 35 -45 36 -43 43 4 25 23 -9 26 -8 22 4 -4 10 -1 13 9 9 7 -3 14 1
14 8 0 13 14 3 16 -12 1 -5 2 -13 3 -19 2 -16 74 -57 127 -73 27 -8 58 -18 69
-23 11 -4 17 -4 13 1 -4 4 -3 14 3 22 13 14 -1 18 -16 4 -6 -5 -25 -3 -45 4
-31 12 -32 14 -10 14 43 2 54 18 13 18 -21 0 -41 -4 -44 -10 -4 -5 -16 -4 -30
4 -23 13 -22 13 24 20 69 11 67 16 -7 15 -68 -1 -87 7 -68 26 9 9 15 9 24 0 7
-7 21 -12 33 -12 16 0 17 2 5 10 -12 8 -11 10 7 10 30 0 38 18 11 23 -13 2 -4
5 20 6 35 1 44 5 54 26 6 13 15 22 19 19 5 -3 17 -1 26 5 20 10 39 -10 28 -29z
m-505 19 c0 -11 -27 -12 -34 -1 -2 4 4 9 15 9 10 1 19 -2 19 -8z m22 -46 c13
-12 15 -20 7 -34 -7 -13 -6 -26 3 -41 14 -27 18 -58 7 -58 -4 0 -16 11 -27 25
-11 14 -26 25 -33 26 -8 1 -3 5 11 9 20 6 21 8 6 9 -20 1 -20 1 0 16 19 14 18
14 -3 15 -13 0 -23 3 -23 8 0 4 -3 18 -7 31 -5 21 -3 23 18 16 13 -4 32 -14
41 -22z m784 -40 c-11 -11 -19 6 -11 24 8 17 8 17 12 0 3 -10 2 -21 -1 -24z
m-1109 21 c-3 -3 -12 -4 -19 -1 -8 3 -5 6 6 6 11 1 17 -2 13 -5z m73 -4 c0 -6
7 -6 18 1 20 13 76 6 102 -11 13 -9 12 -12 -4 -25 -29 -22 -162 -21 -170 1 -9
25 -8 27 20 21 18 -3 24 -1 20 9 -3 8 -1 14 4 14 6 0 10 -5 10 -10z m966 -15
c-3 -9 -11 -13 -16 -10 -8 5 -7 11 1 21 14 18 24 11 15 -11z m49 -12 c5 -18 2
-23 -13 -23 -27 0 -32 9 -20 36 12 26 22 22 33 -13z m-1169 18 c-6 -9 -46 -22
-46 -15 0 3 10 9 23 14 29 11 29 11 23 1z m71 -17 c-3 -3 -12 -4 -19 -1 -8 3
-5 6 6 6 11 1 17 -2 13 -5z m438 -15 c-4 -6 -1 -10 6 -8 28 3 39 -1 39 -16 0
-8 7 -15 15 -15 8 0 15 -4 15 -10 0 -5 11 -12 25 -16 14 -3 25 -10 25 -16 0
-5 -9 -7 -19 -3 -15 4 -19 1 -17 -12 2 -9 9 -19 16 -21 7 -3 10 0 6 7 -4 6 -2
11 3 11 15 0 14 -37 -1 -43 -10 -4 -10 -8 1 -15 11 -8 10 -11 -5 -15 -15 -4
-14 -5 6 -7 l25 -2 -25 -8 c-23 -7 -23 -8 -3 -9 28 -1 41 -21 14 -21 -12 0
-21 -4 -21 -10 0 -5 12 -10 28 -10 l27 -1 -25 -14 -25 -14 25 -2 c17 -1 20 -3
8 -6 -16 -4 -16 -6 -4 -19 8 -8 19 -14 25 -14 15 0 14 -17 -1 -23 -8 -3 -5 -6
5 -6 14 -1 17 -6 12 -21 -5 -15 -2 -20 12 -20 15 0 16 -2 3 -10 -12 -8 -10
-10 9 -10 16 0 21 -4 17 -15 -3 -9 0 -15 10 -15 8 0 17 -7 20 -15 4 -8 10 -15
15 -15 4 0 18 -10 31 -23 13 -13 47 -28 80 -35 51 -12 59 -17 87 -61 33 -50
38 -75 20 -87 -7 -4 -8 -9 0 -17 5 -5 7 -22 4 -37 -3 -19 0 -29 11 -33 11 -4
16 -17 15 -39 -1 -24 -3 -27 -6 -10 -2 12 -8 22 -13 22 -7 0 -21 -210 -14
-218 1 -2 11 1 21 7 10 6 13 11 6 11 -12 0 -12 37 0 57 4 6 3 14 -2 18 -6 3
-7 13 -4 21 12 31 23 -10 23 -86 0 -92 34 -400 54 -495 16 -74 12 -87 -26 -91
-13 -2 -17 0 -10 2 6 3 12 10 12 15 0 6 -5 7 -10 4 -6 -3 -10 -2 -10 4 0 5 6
12 13 14 6 3 1 6 -12 6 -24 1 -24 1 -5 17 16 13 16 15 2 10 -18 -5 -21 16 -5
41 4 7 -1 14 -13 18 -26 8 -25 22 2 31 21 6 21 7 -8 22 l-29 16 30 7 c28 6 29
7 5 9 -21 2 -22 3 -6 7 18 5 18 6 -5 19 l-24 13 25 1 c25 1 25 1 3 10 -13 5
-23 12 -23 16 0 3 7 4 15 0 20 -7 19 4 -2 21 -17 14 -17 14 0 9 9 -3 17 -1 17
4 0 6 -6 10 -12 11 -10 0 -10 2 0 6 10 4 10 8 1 19 -9 11 -9 14 1 14 10 0 10
3 0 15 -7 8 -9 15 -4 15 13 0 -30 29 -43 30 -7 0 -13 -4 -13 -10 0 -5 10 -10
22 -10 25 0 14 -15 -17 -23 -19 -5 -19 -5 3 -12 28 -9 30 -35 2 -28 -11 3 -20
0 -20 -6 0 -6 9 -11 20 -11 13 0 20 -7 20 -20 0 -15 -7 -20 -25 -20 -14 0 -25
-4 -25 -10 0 -5 9 -10 20 -10 11 0 20 -5 20 -11 0 -6 -9 -8 -20 -4 -11 4 -20
2 -20 -4 0 -6 11 -11 25 -11 40 0 29 -17 -15 -24 -52 -8 -53 -26 -1 -19 43 6
42 7 55 -89 3 -20 12 -55 20 -77 12 -36 12 -41 -1 -41 -8 0 -17 9 -20 19 -4
14 -13 19 -34 19 -32 -1 -46 -12 -29 -23 10 -6 -6 -16 -124 -78 -31 -16 -58
-21 -137 -21 l-98 -1 -50 50 -51 49 -51 -11 c-51 -10 -51 -10 -28 8 13 10 35
20 49 22 l25 4 -25 1 c-27 2 -96 -35 -86 -45 12 -12 -38 -53 -77 -64 -46 -12
-57 -6 -33 20 12 13 20 48 26 118 11 119 18 161 35 233 7 30 16 114 19 185 6
127 6 131 -14 131 -16 0 -20 -7 -20 -36 0 -19 -5 -42 -11 -50 -7 -11 -8 0 -4
38 5 35 3 52 -4 52 -6 0 -11 8 -11 17 0 15 2 14 15 -3 14 -18 14 -18 15 9 0
15 11 50 25 77 27 54 30 64 15 55 -14 -9 -13 8 2 23 8 8 8 12 1 12 -11 0 -63
-73 -63 -90 0 -5 -4 -10 -10 -10 -15 0 -13 6 16 50 32 47 26 65 -6 21 -12 -17
-28 -31 -35 -31 -8 0 -17 -5 -20 -10 -12 -20 -25 -189 -25 -342 -1 -150 -2
-158 -20 -158 -11 0 -20 -7 -20 -15 0 -10 10 -15 30 -15 29 0 30 2 30 44 0 41
2 45 28 49 25 4 24 4 -6 6 l-33 1 3 62 c3 61 4 63 33 69 l30 7 -30 2 c-25 2
-26 3 -7 7 12 2 22 8 22 13 0 5 -10 10 -22 12 -16 3 -12 5 15 9 31 4 37 2 37
-13 0 -10 5 -18 10 -18 15 0 12 -64 -10 -184 -11 -60 -20 -122 -20 -138 0 -20
-7 -31 -22 -38 -18 -7 -19 -9 -5 -9 24 -1 23 -75 -3 -124 -11 -20 -20 -43 -20
-51 0 -7 -10 -16 -22 -19 -21 -5 -21 -5 -5 7 22 17 22 33 -2 46 -30 16 -36 12
-16 -10 16 -17 16 -20 2 -20 -8 0 -24 11 -35 24 -10 14 -34 27 -54 31 -30 6
-38 3 -55 -19 l-20 -25 -24 25 c-20 21 -21 27 -9 34 8 5 20 10 25 10 6 0 31
27 57 59 44 55 48 65 59 148 6 48 16 97 22 108 6 11 12 65 12 120 1 55 5 110
9 123 6 16 3 22 -8 22 -12 0 -16 10 -15 43 1 23 4 32 6 20 11 -55 18 -14 20
103 1 76 6 131 13 139 9 11 6 12 -17 6 -30 -8 -34 -28 -20 -84 5 -19 4 -26 -3
-22 -5 3 -13 24 -16 46 -4 21 -10 39 -15 39 -5 0 -9 6 -9 14 0 19 91 40 103
23 5 -9 11 -7 21 6 7 9 21 17 30 17 18 0 22 25 6 35 -14 9 7 35 27 35 10 0 13
-6 9 -17 -8 -19 9 -33 42 -33 12 0 22 -5 22 -11 0 -6 -9 -8 -20 -4 -48 15
-120 -32 -120 -79 0 -19 1 -19 20 -1 12 10 19 24 16 31 -5 12 34 34 61 34 13
0 14 -3 5 -12 -21 -21 -13 -27 14 -13 22 11 34 11 73 -1 25 -7 60 -14 76 -15
28 0 28 -1 8 -9 -31 -13 -29 -26 6 -33 19 -4 36 -19 52 -44 25 -42 37 -53 58
-53 8 0 4 10 -13 25 -28 26 -30 33 -18 52 6 10 12 10 28 -2 18 -14 18 -15 0
-8 -12 4 -17 2 -15 -6 3 -7 8 -11 13 -9 12 5 36 -45 27 -57 -4 -5 1 -26 10
-45 l18 -35 2 35 c2 48 5 81 8 110 3 24 3 24 12 -5 5 -19 5 -31 -2 -36 -7 -4
-4 -19 9 -45 l20 -39 -3 73 c-2 60 0 75 13 80 9 3 17 1 19 -5 2 -5 11 -19 19
-29 14 -18 15 -17 10 16 -3 19 -3 29 0 23 9 -19 24 -16 17 4 -4 11 -3 14 5 9
7 -4 12 -1 12 7 0 18 -45 15 -85 -7 -16 -9 -47 -16 -67 -16 -37 0 -57 13 -38
25 5 3 10 11 10 17 0 6 -7 5 -17 -3 -11 -10 -17 -11 -20 -3 -5 14 -43 6 -43
-8 0 -5 9 -6 20 -3 22 7 28 -10 7 -18 -15 -5 -47 15 -47 30 0 6 14 13 32 17
17 3 56 18 86 32 78 37 130 54 164 54 17 0 27 4 23 10 -14 22 -94 1 -225 -59
-68 -31 -177 -24 -218 14 -19 18 -5 68 17 59 25 -10 40 -10 40 1 0 6 -7 9 -16
7 -8 -2 -24 6 -35 17 -10 12 -27 21 -38 21 -10 0 -22 5 -26 12 -5 7 -3 8 6 3
10 -6 12 -4 7 9 -7 19 -1 16 45 -17 14 -11 32 -17 40 -15 8 4 1 12 -20 24 -77
44 -77 53 1 20 20 -9 37 -13 37 -9 0 5 -20 16 -45 26 -25 11 -45 25 -45 32 0
38 14 75 29 76 10 0 11 2 4 6 -19 7 -16 23 5 24 16 1 16 2 0 6 -10 2 -18 9
-18 14 0 5 8 9 18 10 14 0 14 2 -3 9 -19 8 -19 9 -1 9 20 1 20 1 0 16 -18 14
-18 14 6 16 l25 1 -25 8 -25 8 24 8 25 7 -25 10 -24 10 25 7 c16 5 19 8 8 9
-10 1 -18 5 -18 10 0 5 8 12 18 14 13 4 12 5 -4 6 -18 1 -23 9 -26 44 -3 23
-1 48 5 55 6 8 6 12 -2 12 -6 0 -11 5 -11 12 0 6 11 1 24 -11 18 -17 26 -38
31 -80 12 -105 45 -255 66 -296 11 -22 32 -52 46 -67 29 -30 80 -55 91 -43 4
4 1 10 -6 12 -20 7 -4 22 18 16 11 -3 17 -9 14 -14 -3 -5 1 -6 9 -3 8 3 18 1
22 -5 3 -6 16 -11 28 -11 15 0 18 -3 10 -11 -6 -6 -42 -10 -80 -10 -47 0 -70
-4 -70 -12 0 -7 -4 -21 -8 -32 -6 -17 -4 -17 12 4 22 26 60 25 55 -2 -2 -9 2
-17 8 -17 5 0 10 7 10 15 0 18 20 20 20 3 1 -8 6 -6 14 4 10 13 15 15 24 6 9
-9 12 -8 12 6 0 13 5 16 20 11 12 -4 20 -2 20 6 0 17 88 5 149 -21 36 -16 48
-26 44 -37 -5 -12 -1 -14 15 -9 15 5 22 2 25 -11 4 -15 5 -15 6 3 0 11 -8 29
-19 39 -11 10 -17 21 -15 26 3 4 1 10 -5 14 -5 3 -10 1 -10 -4 0 -6 -4 -11
-10 -11 -5 0 -6 8 -3 18 6 15 5 15 -10 3 -15 -12 -17 -11 -17 9 0 19 -2 21
-16 9 -13 -10 -17 -10 -24 1 -5 9 -32 13 -82 14 -55 1 -85 7 -123 26 -64 31
-90 62 -110 133 -9 31 -20 57 -26 57 -5 0 -9 -5 -9 -11 0 -6 -7 -9 -15 -5 -13
4 -13 2 -5 -14 5 -10 14 -22 20 -25 5 -3 6 -13 3 -22 -5 -12 -3 -14 7 -8 10 6
12 3 8 -13 -4 -12 -2 -22 3 -22 5 0 8 -3 8 -7 -5 -29 3 -43 24 -43 14 0 24 -6
24 -15 0 -20 -9 -19 -39 4 -25 20 -69 109 -82 165 -6 25 -5 28 13 23 30 -8 33
4 17 75 -8 34 -17 90 -21 123 -4 33 -13 71 -22 84 -15 23 -15 24 16 19 17 -2
31 -1 31 4 0 4 5 8 11 8 5 0 7 -5 4 -11z m-258 -25 c-3 -3 -12 -4 -19 -1 -8 3
-5 6 6 6 11 1 17 -2 13 -5z m-37 -14 c0 -5 -15 -10 -32 -12 l-33 -4 25 -11 25
-11 -30 -7 c-48 -11 -52 -13 -22 -14 34 -1 36 -21 2 -21 -14 0 -25 -5 -25 -11
0 -6 7 -9 15 -6 8 4 17 2 20 -3 4 -6 -5 -10 -19 -10 -35 0 -33 -20 2 -21 l27
-1 -25 -7 c-24 -7 -24 -7 -5 -15 l20 -8 -20 -8 c-17 -7 -17 -9 -2 -9 12 -1 17
-10 18 -28 0 -16 3 -22 6 -15 7 19 23 14 23 -8 0 -13 -9 -22 -25 -26 -23 -6
-24 -8 -10 -27 8 -12 15 -26 15 -32 0 -5 -12 8 -25 30 -17 27 -32 40 -47 40
-12 0 -24 7 -26 14 -3 10 1 12 17 8 25 -6 28 14 7 40 -8 10 -33 41 -56 68 -23
28 -39 57 -37 67 3 10 -3 18 -14 21 -11 3 -19 12 -19 20 0 13 19 16 125 16 69
0 125 -4 125 -9z m965 -20 c4 -6 -8 -10 -29 -10 -20 0 -36 5 -36 10 0 6 13 10
29 10 17 0 33 -4 36 -10z m-896 -31 c-9 -6 -10 -12 -4 -16 6 -5 11 -17 13 -28
10 -77 11 -100 1 -112 -6 -7 -8 -13 -4 -13 4 0 2 -7 -5 -15 -10 -12 -10 -18 0
-30 11 -13 10 -14 -6 -8 -17 6 -17 5 -5 -10 11 -14 11 -17 0 -17 -10 0 -10 -3
-1 -12 20 -20 14 -29 -10 -16 -36 20 -37 28 -12 82 26 56 30 103 12 152 -9 26
-9 36 1 48 7 9 18 13 23 10 6 -4 5 -10 -3 -15z m161 1 c0 -5 -2 -10 -4 -10 -3
0 -8 5 -11 10 -3 6 -1 10 4 10 6 0 11 -4 11 -10z m718 -68 c2 -58 0 -72 -12
-72 -8 0 -18 5 -21 10 -3 6 0 10 7 10 10 0 10 2 -1 9 -7 5 -10 14 -7 20 4 6 1
11 -6 11 -9 0 -9 3 2 10 8 5 11 10 5 10 -5 0 -3 5 5 10 8 5 10 10 3 10 -6 0
-10 8 -8 18 2 9 4 21 4 25 1 5 7 7 14 5 8 -3 13 -30 15 -76z m-708 38 c0 -5
-7 -10 -15 -10 -8 0 -15 5 -15 10 0 6 7 10 15 10 8 0 15 -4 15 -10z m370 -30
c7 11 10 11 10 2 0 -7 7 -12 16 -10 10 2 19 -4 21 -12 3 -11 2 -12 -4 -3 -10
15 -58 -24 -68 -56 -4 -12 -14 -18 -30 -17 -23 1 -24 2 -8 15 17 12 16 13 -4
7 -19 -6 -21 -4 -20 28 1 23 5 31 13 25 6 -5 14 -6 17 -2 4 3 13 0 22 -7 18
-15 18 -11 5 27 -10 26 -9 27 5 8 14 -17 17 -18 25 -5z m-370 -10 c0 -5 -4
-10 -10 -10 -5 0 -10 5 -10 10 0 6 5 10 10 10 6 0 10 -4 10 -10z m-516 -16 c5
-14 4 -15 -9 -4 -17 14 -19 20 -6 20 5 0 12 -7 15 -16z m1040 -10 c4 -9 9 -14
13 -11 3 4 13 1 21 -6 13 -9 14 -9 8 1 -4 6 -5 12 -2 12 3 0 10 -9 16 -20 9
-18 8 -19 -17 -14 -44 8 -86 -25 -117 -92 -15 -33 -35 -67 -43 -76 -19 -21
-54 -23 -71 -6 -9 9 -5 14 20 22 20 7 43 27 61 54 35 51 30 62 -12 31 -31 -23
-71 -33 -71 -17 0 4 6 8 14 8 10 0 12 7 8 23 -5 19 -3 20 10 9 13 -11 19 -7
37 23 21 37 39 43 60 23 10 -11 11 -10 6 5 -4 10 -2 17 4 17 6 0 11 -5 11 -12
0 -6 3 -8 6 -5 4 4 2 13 -4 20 -7 8 -9 17 -5 20 12 13 41 7 47 -9z m-965 -24
c7 0 22 -5 33 -11 16 -8 18 -13 8 -19 -19 -12 -90 31 -90 53 0 6 8 3 18 -6 10
-10 24 -17 31 -17z m451 20 c0 -5 -4 -10 -10 -10 -5 0 -10 -4 -10 -10 0 -5 8
-10 18 -10 14 0 15 -2 2 -10 -13 -9 -13 -11 0 -20 13 -8 13 -10 -1 -10 -16 0
-29 27 -29 63 0 9 7 17 15 17 8 0 15 -4 15 -10z m-690 -46 c0 -8 -7 -14 -15
-14 -17 0 -18 2 -9 24 7 18 24 12 24 -10z m930 1 c7 -9 8 -15 2 -15 -5 0 -12
7 -16 15 -3 8 -4 15 -2 15 2 0 9 -7 16 -15z m130 -6 c0 -5 -4 -9 -10 -9 -5 0
-10 7 -10 16 0 8 5 12 10 9 6 -3 10 -10 10 -16z m-606 -21 c7 -36 -7 -59 -26
-40 -9 9 -8 12 8 12 11 0 15 3 8 8 -11 8 -14 52 -3 52 4 0 9 -14 13 -32z m796
13 c0 -6 -4 -13 -10 -16 -5 -3 -10 -1 -10 4 0 6 -4 11 -10 11 -5 0 -10 -8 -10
-17 0 -15 -2 -16 -10 -3 -8 13 -10 13 -10 -1 0 -24 11 -30 28 -16 13 10 14 9
3 -12 -8 -14 -10 -37 -6 -58 5 -29 13 -38 46 -51 21 -8 39 -19 39 -24 0 -8
-60 -38 -76 -38 -4 0 3 12 17 27 18 20 20 25 7 20 -10 -3 -17 -3 -17 1 3 18
-3 21 -28 11 -18 -7 -30 -6 -37 1 -5 5 -18 10 -28 10 -10 0 -18 4 -18 10 0 5
7 6 17 3 12 -5 14 -3 9 8 -4 8 -1 6 7 -4 14 -17 16 -17 31 5 23 32 20 71 -6
87 l-22 14 23 18 c24 20 71 26 71 10z m-1020 -10 c0 -6 -4 -13 -10 -16 -5 -3
-10 1 -10 9 0 9 5 16 10 16 6 0 10 -4 10 -9z m-68 -35 c-16 -19 -32 -40 -34
-48 -3 -7 -9 -10 -13 -6 -12 11 18 62 45 75 35 18 36 17 2 -21z m787 20 c13
-7 20 -16 15 -18 -13 -8 -54 9 -54 22 0 13 10 12 39 -4z m321 -3 c0 -10 -7
-27 -15 -37 -8 -11 -15 -28 -15 -39 0 -10 -4 -15 -10 -12 -15 9 -12 44 7 76
20 33 33 38 33 12z m-565 -3 c3 -5 -1 -10 -9 -10 -9 0 -16 5 -16 10 0 6 4 10
9 10 6 0 13 -4 16 -10z m715 -5 c0 -13 -29 -21 -45 -12 -2 1 -12 -8 -20 -21
-9 -12 -21 -20 -26 -16 -13 8 -2 22 35 45 37 23 56 24 56 4z m-1317 -37 c-4
-21 -2 -35 8 -42 8 -6 19 -20 25 -31 7 -11 19 -19 28 -19 9 1 16 -4 16 -12 0
-17 -17 -27 -25 -14 -3 5 -12 10 -18 10 -7 0 -6 -4 3 -10 12 -8 11 -10 -7 -10
-22 0 -28 13 -24 48 1 6 -3 12 -9 12 -21 0 -28 44 -12 73 21 35 23 34 15 -5z
m151 3 c-5 -13 -4 -13 6 2 16 25 48 21 81 -12 37 -38 38 -64 1 -28 -35 34 -63
34 -79 2 -10 -23 -9 -27 20 -40 18 -7 43 -23 57 -35 24 -19 22 -19 -30 3 -53
23 -78 24 -91 4 -9 -13 -67 75 -61 93 9 25 32 36 67 32 26 -3 32 -8 29 -21z
m931 -32 c-5 -16 -9 -18 -21 -8 -12 10 -12 14 -2 20 10 7 10 11 0 21 -6 6 -12
16 -12 22 0 5 9 0 21 -12 13 -15 18 -29 14 -43z m123 39 c0 -7 4 -30 8 -50 9
-52 -25 -50 -41 2 -7 23 -7 24 10 10 16 -14 17 -13 11 7 -4 13 -4 27 -1 33 8
13 11 13 13 -2z m-878 -8 c12 -8 11 -10 -7 -10 -13 0 -23 5 -23 10 0 13 11 13
30 0z m560 6 c0 -9 -30 -14 -35 -6 -4 6 3 10 14 10 12 0 21 -2 21 -4z m425 -6
c6 -9 -44 -40 -65 -40 -14 0 6 21 35 38 25 14 23 14 30 2z m-1352 -47 c7 -39
2 -40 -16 -4 -12 24 -13 31 -2 31 7 0 15 -12 18 -27z m372 11 c9 -9 14 -18 11
-21 -6 -6 -46 20 -46 29 0 13 18 9 35 -8z m-139 -21 c-10 -10 -19 5 -10 18 6
11 8 11 12 0 2 -7 1 -15 -2 -18z m1114 7 c0 -5 -7 -10 -15 -10 -8 0 -15 5 -15
10 0 6 7 10 15 10 8 0 15 -4 15 -10z m-1525 -39 c0 -15 -5 -28 -11 -28 -7 0
-11 11 -9 26 2 14 4 30 4 35 2 21 15 -7 16 -33z m462 27 c6 -7 13 -21 16 -31
6 -15 2 -14 -23 4 -16 12 -27 26 -24 31 7 12 20 10 31 -4z m103 -19 c0 -5 -9
-9 -20 -9 -11 0 -20 6 -20 14 0 9 7 12 20 9 11 -3 20 -9 20 -14z m50 -14 c0
-5 -5 -3 -10 5 -5 8 -10 20 -10 25 0 6 5 3 10 -5 5 -8 10 -19 10 -25z m865 25
c23 -9 26 -15 23 -47 -3 -28 -9 -39 -23 -41 -17 -3 -17 -1 -5 7 13 9 12 11 -5
12 l-20 0 20 9 c18 8 19 9 1 9 -12 1 -16 6 -13 16 4 8 2 17 -3 20 -10 6 -14
25 -6 25 3 0 17 -5 31 -10z m-965 -21 c0 -6 -4 -7 -10 -4 -5 3 -10 11 -10 16
0 6 5 7 10 4 6 -3 10 -11 10 -16z m-560 1 c0 -5 -5 -10 -11 -10 -5 0 -7 5 -4
10 3 6 8 10 11 10 2 0 4 -4 4 -10z m210 -8 c0 -10 -6 -24 -12 -32 -7 -8 -3 -6
9 3 14 13 23 15 28 7 4 -6 18 -15 31 -20 26 -10 33 -30 10 -30 -19 0 -35 -50
-25 -77 12 -32 27 -37 57 -17 20 13 24 14 15 2 -7 -8 -10 -17 -8 -20 3 -3 0
-17 -6 -32 -9 -20 -10 -29 -1 -38 8 -8 13 -7 18 5 3 9 11 17 17 17 7 0 7 -4
-1 -12 -7 -7 -12 -21 -13 -33 0 -11 -3 -14 -6 -7 -7 17 -23 15 -23 -3 0 -9 9
-15 23 -15 19 -1 19 -2 -8 -15 -16 -7 -23 -14 -15 -14 13 -1 13 -2 0 -11 -11
-7 -7 -10 18 -10 26 0 32 4 32 23 1 20 2 20 11 5 5 -10 18 -18 27 -18 13 0 14
-2 4 -9 -11 -7 -10 -9 3 -15 9 -3 13 -10 10 -16 -3 -5 2 -10 11 -10 29 0 54
-31 54 -66 0 -29 -4 -35 -32 -43 l-33 -9 33 -1 c28 -1 32 -4 32 -28 0 -35 -9
-49 -35 -56 -15 -4 -14 -5 8 -6 l27 -1 0 -79 c0 -115 -9 -171 -29 -172 -14 -1
-14 -2 0 -6 22 -5 31 -60 11 -68 -18 -7 -37 6 -37 24 0 8 -6 16 -14 19 -8 3
-11 0 -7 -6 3 -6 2 -13 -4 -17 -17 -10 -3 -22 36 -30 37 -6 36 -18 -1 -29 -12
-3 -9 -4 8 -2 34 4 36 -10 2 -18 -14 -4 -23 -11 -20 -16 3 -6 -5 -10 -19 -10
-18 0 -25 6 -28 23 -2 15 -11 1 -29 -48 -22 -59 -29 -69 -50 -70 -13 0 -25 -4
-26 -9 -1 -10 -24 -26 -35 -26 -5 0 -7 6 -5 12 1 7 -8 14 -21 16 -12 2 -20 7
-17 12 3 4 14 6 25 3 11 -3 20 0 20 6 0 6 -9 11 -20 11 -28 0 -25 20 3 21 12
0 17 3 10 5 -7 3 -9 12 -6 20 3 9 -1 14 -13 14 -16 0 -17 2 -4 10 12 8 13 11
1 19 -9 6 -10 11 -2 15 6 4 9 11 6 16 -3 4 2 10 10 14 17 6 21 46 5 46 -5 0
-10 -6 -10 -14 0 -8 -7 -16 -15 -20 -18 -6 -18 2 -4 78 11 61 6 106 -12 106
-6 0 -8 -11 -5 -28 6 -33 -6 -105 -18 -106 -5 -1 -11 41 -14 92 -3 73 -1 92
10 92 10 0 9 3 -2 10 -13 9 -13 11 0 21 11 8 12 12 3 16 -19 7 -16 23 5 24 16
1 16 2 0 6 -10 2 -18 14 -18 26 -1 114 -14 313 -21 315 -13 5 -11 32 2 32 5 0
8 4 4 9 -13 21 -23 110 -16 137 l8 29 8 -25 c4 -13 8 -46 8 -72 0 -40 3 -48
18 -48 11 0 19 7 19 15 0 8 -6 15 -13 15 -10 0 -14 17 -13 64 1 51 6 69 22 88
12 13 24 30 29 38 4 8 -3 3 -16 -12 -13 -14 -31 -28 -39 -30 -16 -5 -39 19
-40 41 0 11 4 11 18 -2 24 -22 35 -21 57 3 22 25 35 26 35 2z m50 -17 c0 -5
-5 -3 -10 5 -5 8 -10 20 -10 25 0 6 5 3 10 -5 5 -8 10 -19 10 -25z m968 -37
c24 -16 25 -18 7 -18 -12 0 -39 19 -60 42 -39 40 -39 41 -7 17 19 -13 46 -32
60 -41z m-743 21 c17 -10 25 -19 19 -19 -18 0 -78 22 -99 37 -18 14 -17 14 15
8 19 -4 49 -16 65 -26z m129 14 c3 -8 -2 -13 -14 -13 -11 0 -20 6 -20 13 0 8
7 14 15 14 8 0 16 -6 19 -14z m724 2 c-2 -1 -20 -5 -41 -8 -31 -5 -36 -3 -28
7 6 7 23 11 41 8 17 -2 30 -5 28 -7z m-1338 -17 c0 -6 -6 -5 -15 2 -8 7 -15
14 -15 16 0 2 7 1 15 -2 8 -4 15 -11 15 -16z m-20 -13 c11 -13 10 -14 -4 -9
-9 3 -16 10 -16 15 0 13 6 11 20 -6z m629 -22 c0 -25 -1 -26 -9 -8 -12 27 -12
35 0 35 6 0 10 -12 9 -27z m-289 -2 c-5 -11 -15 -32 -20 -48 l-10 -28 20 25
c12 15 20 20 20 11 0 -18 -29 -51 -46 -51 -18 0 -27 36 -15 57 8 14 10 15 11
3 0 -8 9 0 20 18 21 34 38 45 20 13z m150 9 c0 -5 -8 -10 -17 -10 -15 0 -15
-2 -4 -9 11 -7 12 -17 5 -43 -9 -28 -14 -33 -40 -31 l-29 2 30 -15 30 -15 -39
5 -38 5 18 -22 c19 -22 19 -22 -2 -5 l-20 18 30 65 c25 51 36 65 54 65 12 0
22 -4 22 -10z m182 -22 c-8 -8 -9 -4 -5 13 4 13 8 18 11 10 2 -7 -1 -18 -6
-23z m-674 4 c6 -18 -15 -14 -22 4 -4 10 -1 14 6 12 6 -2 14 -10 16 -16z m45
-2 c-3 -11 -7 -20 -9 -20 -2 0 -4 9 -4 20 0 11 4 20 9 20 5 0 7 -9 4 -20z
m532 10 c-3 -5 -15 -10 -26 -10 -10 0 -19 -4 -19 -10 0 -14 10 -13 43 4 28 15
36 9 15 -12 -7 -7 -22 -12 -35 -12 -13 0 -23 -4 -23 -8 0 -5 14 -6 31 -4 22 3
30 1 25 -7 -4 -6 -19 -12 -34 -12 -20 -1 -17 -4 13 -9 24 -4 31 -8 16 -9 -20
-1 -21 -3 -11 -16 11 -13 7 -15 -23 -15 -19 0 -40 -7 -47 -15 -13 -16 0 -21
16 -6 5 5 35 11 66 13 65 3 64 -4 -2 -22 -69 -19 -107 -23 -114 -12 -3 5 6 43
20 85 22 66 29 76 52 80 15 2 31 5 35 6 5 0 5 -3 2 -9z m-460 -20 c3 -5 1 -10
-4 -10 -6 0 -11 5 -11 10 0 6 2 10 4 10 3 0 8 -4 11 -10z m1222 4 c-3 -3 -12
-4 -19 -1 -8 3 -5 6 6 6 11 1 17 -2 13 -5z m-1270 -28 c-4 -10 4 -18 21 -25
l27 -9 -26 -1 c-32 -1 -35 -32 -4 -43 19 -6 18 -6 -2 -7 -16 -1 -23 -7 -23
-21 0 -14 7 -20 23 -21 l22 -2 -22 -4 c-13 -2 -23 -9 -23 -14 0 -6 3 -8 8 -6
4 3 16 1 27 -4 17 -6 16 -8 -10 -9 l-30 -2 35 -11 35 -11 -35 -4 -35 -4 35
-13 35 -13 -37 -1 c-31 -1 -38 -5 -38 -21 0 -12 7 -20 18 -20 10 -1 6 -6 -13
-14 l-30 -13 42 1 c33 1 43 5 43 18 0 9 -10 19 -22 21 -16 4 -13 5 7 4 24 -2
30 -7 30 -24 0 -12 4 -25 7 -29 4 -3 1 -13 -7 -20 -15 -16 -29 -19 -20 -5 8
14 -30 32 -49 25 -19 -7 -21 -24 -3 -24 8 0 7 -4 -3 -10 -11 -7 -6 -10 20 -11
l35 -1 -35 -13 c-36 -14 -33 -19 10 -15 14 1 28 7 32 14 5 7 8 3 8 -10 0 -17
-5 -20 -29 -16 -16 2 -32 -1 -35 -7 -5 -7 5 -11 28 -11 20 0 36 -5 36 -11 0
-7 -11 -8 -29 -4 -17 3 -32 2 -36 -4 -4 -7 3 -11 17 -11 13 0 30 -5 38 -11 11
-8 6 -9 -22 -5 -21 2 -38 1 -38 -5 0 -5 13 -9 29 -9 17 0 32 -4 35 -8 2 -4
-12 -7 -32 -5 l-37 2 40 -14 40 -13 -37 -1 c-21 -1 -38 -5 -38 -10 0 -5 -3
-16 -6 -25 -5 -12 0 -16 19 -16 31 0 57 -9 57 -20 0 -5 -17 -7 -37 -5 l-38 4
38 -11 c27 -9 37 -17 37 -33 0 -18 -5 -21 -37 -18 l-38 2 37 -10 c36 -10 37
-12 41 -62 2 -29 4 42 5 157 1 115 4 207 7 204 9 -9 13 -498 4 -498 -5 0 -9
14 -9 31 0 19 -4 28 -11 24 -6 -4 -7 -19 -4 -36 5 -22 3 -29 -8 -29 -8 0 -14
8 -13 18 0 9 -6 17 -14 17 -9 0 -15 -10 -15 -25 0 -21 4 -25 28 -22 15 1 27
-2 27 -8 0 -5 -12 -10 -27 -10 l-28 -1 24 -13 c37 -20 11 -26 -49 -10 -87 23
-85 17 -72 217 7 95 17 200 22 233 5 32 17 130 26 218 8 87 19 169 24 181 5
13 6 25 4 28 -6 6 14 47 22 47 4 0 4 -6 1 -14z m-54 -101 c-3 -9 -8 -14 -10
-11 -3 3 -2 9 2 15 9 16 15 13 8 -4z m384 -41 c-3 -3 -12 -4 -19 -1 -8 3 -5 6
6 6 11 1 17 -2 13 -5z m68 -94 c3 -6 -1 -7 -9 -4 -18 7 -21 14 -7 14 6 0 13
-4 16 -10z m57 -26 l7 -29 -19 25 c-22 29 -25 43 -8 38 7 -3 15 -18 20 -34z
m528 14 c0 -19 -2 -20 -10 -8 -13 19 -13 30 0 30 6 0 10 -10 10 -22z m-330
-48 c-6 -12 -14 -19 -17 -17 -2 3 1 15 7 27 6 12 14 19 17 17 2 -3 -1 -15 -7
-27z m795 10 c-3 -5 -12 -10 -18 -10 -7 0 -6 4 3 10 19 12 23 12 15 0z m141
-143 c-2 -73 -5 -178 -5 -234 -1 -96 -2 -103 -21 -103 -20 0 -20 5 -15 197 3
124 1 193 -5 187 -15 -15 -14 -432 1 -451 19 -22 -2 -30 -64 -27 -29 1 -54 3
-57 3 -3 1 9 10 26 20 l32 19 2 174 c2 216 3 222 18 241 7 8 9 22 6 32 -6 14
-1 16 27 14 25 -3 33 0 31 11 -5 23 8 61 18 55 7 -4 9 -57 6 -138z m64 129 c0
-8 -11 -27 -25 -42 l-25 -27 0 30 c0 31 15 53 37 53 7 0 13 -7 13 -14z m-1190
-16 c0 -5 -2 -10 -4 -10 -3 0 -8 5 -11 10 -3 6 -1 10 4 10 6 0 11 -4 11 -10z
m1008 -17 c-2 -11 -13 -19 -28 -20 -15 -1 -18 0 -7 3 9 3 17 9 17 14 0 5 -8
11 -17 13 -11 3 -7 5 10 6 22 1 28 -3 25 -16z m62 1 c0 -9 -7 -14 -17 -12 -25
5 -28 28 -4 28 12 0 21 -6 21 -16z m223 0 c-3 -8 -14 -31 -24 -51 -10 -20 -19
-50 -19 -66 0 -29 -1 -30 -46 -24 -25 2 -50 9 -55 14 -14 14 19 100 45 121 28
21 107 26 99 6z m-1142 -37 c-10 -9 -11 -8 -5 6 3 10 9 15 12 12 3 -3 0 -11
-7 -18z m856 -13 c8 -20 -10 -37 -33 -31 -17 4 -17 6 3 12 13 4 20 11 18 16
-3 4 -12 6 -20 2 -8 -3 -15 0 -15 6 0 17 40 13 47 -5z m323 8 c0 -4 -5 -13
-11 -19 -5 -5 -13 -32 -17 -58 -8 -56 -27 -69 -35 -25 -9 42 19 110 44 110 10
0 19 -4 19 -8z m-1216 -17 c3 -9 0 -15 -9 -15 -9 0 -12 6 -9 15 4 8 7 15 9 15
2 0 5 -7 9 -15z m-117 -55 c-1 -11 -5 -20 -9 -20 -4 0 -8 2 -8 4 0 2 -3 11 -6
20 -4 10 -1 16 9 16 10 0 15 -8 14 -20z m113 10 c0 -5 8 -11 18 -11 16 -1 16
-2 0 -6 -10 -2 -18 -9 -18 -14 0 -6 4 -8 9 -4 5 3 12 1 16 -5 3 -6 -4 -10 -17
-11 -21 0 -21 -1 -4 -8 19 -7 19 -8 -2 -13 -20 -6 -22 -3 -22 38 0 24 5 44 10
44 6 0 10 -4 10 -10z m898 -115 l-3 -120 -27 -3 c-16 -2 -28 1 -28 7 0 6 10
12 23 12 l22 2 -22 4 c-13 2 -23 9 -23 14 0 5 10 10 23 10 16 1 18 2 5 6 -26
6 -22 23 5 24 21 1 21 1 -3 9 -21 7 -22 8 -5 10 l20 1 -20 9 c-11 5 -16 9 -11
9 5 1 3 8 -4 16 -11 13 -8 15 14 15 14 0 26 4 26 9 0 5 -9 7 -20 4 -11 -3 -20
0 -20 6 0 6 6 11 13 11 8 0 7 4 -3 10 -13 8 -12 10 5 11 l20 1 -20 6 -20 5 20
8 c17 6 17 8 3 8 -28 1 -21 16 7 16 l26 0 -3 -120z m-1001 59 c-3 -3 -12 -4
-19 -1 -8 3 -5 6 6 6 11 1 17 -2 13 -5z m1313 -20 c0 -8 -5 -12 -10 -9 -6 4
-8 11 -5 16 9 14 15 11 15 -7z m-110 -10 c0 -21 -17 -25 -22 -6 -3 11 0 19 8
19 8 0 14 -6 14 -13z m-1623 -16 c-3 -8 -6 -5 -6 6 -1 11 2 17 5 13 3 -3 4
-12 1 -19z m548 12 c4 -6 -6 -10 -22 -9 -25 0 -26 1 -8 9 11 5 21 9 22 9 1 1
5 -3 8 -9z m1035 -16 c8 -19 15 -24 28 -19 44 19 88 21 102 6 12 -13 12 -14
-2 -9 -8 4 -25 0 -37 -8 -11 -8 -43 -18 -71 -21 l-50 -6 0 42 c0 46 16 54 30
15z m-1162 -36 c-6 -18 -28 -21 -28 -4 0 9 7 16 16 16 9 0 14 -5 12 -12z
m1312 -29 c0 -6 -9 -8 -22 -3 -23 7 -23 6 -4 -15 11 -11 16 -24 13 -28 -4 -3
-2 -12 4 -20 19 -22 -7 -15 -27 9 -19 21 -19 21 1 15 20 -7 20 -7 1 8 -11 8
-25 15 -30 15 -6 0 -4 -5 4 -10 13 -9 13 -10 0 -10 -9 -1 -2 -12 19 -30 19
-16 32 -33 28 -36 -3 -4 -22 7 -42 25 -39 34 -42 35 -97 22 -23 -5 -38 -5 -38
0 0 16 53 31 87 24 27 -5 32 -3 27 10 -4 10 2 18 17 24 33 13 59 13 59 0z
m-1313 -5 c-3 -3 -12 -4 -19 -1 -8 3 -5 6 6 6 11 1 17 -2 13 -5z m1173 -15
c-48 -7 -55 -6 -47 8 3 5 25 7 49 4 l43 -5 -45 -7z m-1760 -48 c0 -5 -13 -12
-29 -16 -28 -6 -102 -75 -80 -75 6 0 20 12 31 26 25 31 67 49 81 35 7 -7 2
-13 -15 -20 -31 -12 -83 -61 -64 -61 7 0 22 11 34 25 25 28 42 32 42 10 0 -8
-5 -15 -11 -15 -7 0 -22 -11 -35 -25 -16 -17 -19 -25 -9 -25 8 0 20 9 28 20
14 20 27 17 27 -7 0 -7 -6 -13 -14 -13 -7 0 -19 -7 -26 -15 -14 -17 -23 -13
-73 32 l-36 32 22 27 c46 56 70 74 98 74 16 0 29 -4 29 -9z m-167 -23 c27 -14
17 -17 -31 -11 -26 4 -42 11 -42 20 0 14 36 10 73 -9z m2025 -25 c26 -25 37
-38 25 -29 -31 25 -109 46 -145 39 -23 -5 -30 -3 -26 8 5 14 37 26 76 28 15 1
40 -15 70 -46z m-1973 27 c-3 -5 -10 -10 -16 -10 -5 0 -9 5 -9 10 0 6 7 10 16
10 8 0 12 -4 9 -10z m1700 0 c12 -19 -6 -52 -25 -47 -11 3 -21 0 -24 -7 -2 -6
-5 -1 -5 12 -1 16 5 22 22 23 l22 2 -22 4 c-13 2 -23 9 -23 14 0 12 47 12 55
-1z m-1764 -30 c23 -13 26 -45 3 -36 -9 3 -27 6 -40 6 -13 0 -24 5 -24 11 0 8
12 9 38 4 45 -8 37 4 -10 15 -25 6 -27 8 -10 9 13 1 32 -4 43 -9z m2029 -22
c19 -13 37 -36 41 -52 8 -30 1 -53 -8 -28 -13 37 -56 71 -100 80 -26 6 -51 8
-55 6 -4 -3 -8 0 -8 5 0 21 95 12 130 -11z m-1293 -40 c-3 -8 -6 -5 -6 6 -1
11 2 17 5 13 3 -3 4 -12 1 -19z m1023 18 c0 -2 -9 -6 -20 -9 -11 -3 -20 -1
-20 4 0 5 9 9 20 9 11 0 20 -2 20 -4z m233 -11 c38 -16 96 -87 76 -94 -6 -2
-25 12 -42 31 -33 36 -97 64 -122 54 -15 -5 -20 5 -8 17 11 12 59 8 96 -8z
m-1923 -41 c30 -26 62 -44 76 -44 13 0 24 -4 24 -10 0 -25 -93 9 -110 40 -10
19 -92 46 -109 35 -6 -3 -11 -2 -11 4 0 11 16 18 51 19 18 0 44 -14 79 -44z
m337 4 c-3 -7 -5 -2 -5 12 0 14 2 19 5 13 2 -7 2 -19 0 -25z m1524 0 c-35 -10
-55 -3 -33 11 8 4 25 6 40 3 27 -5 27 -6 -7 -14z m-1878 -34 c20 -19 33 -34
28 -34 -5 0 -14 7 -21 15 -20 24 -67 43 -94 38 -26 -5 -37 12 -14 19 26 9 64
-6 101 -38z m1694 30 c-3 -3 -12 -4 -19 -1 -8 3 -5 6 6 6 11 1 17 -2 13 -5z
m285 -40 l50 -47 -34 6 c-32 5 -145 -20 -134 -30 3 -3 25 2 49 10 45 15 92 13
103 -5 4 -6 -1 -8 -13 -4 -11 3 -44 1 -74 -5 -81 -16 -82 -16 -86 12 -3 24 1
28 41 39 25 7 58 10 73 6 24 -5 25 -5 9 5 -17 11 -52 8 -103 -7 -44 -13 -22
13 25 30 30 11 36 15 17 12 -16 -3 -38 -8 -47 -11 -10 -4 -18 -3 -18 3 0 5 19
14 43 19 23 6 44 11 46 12 2 0 26 -20 53 -45z m-1862 21 c0 -8 -7 -15 -16 -15
-14 0 -14 3 -4 15 7 8 14 15 16 15 2 0 4 -7 4 -15z m-156 -24 c3 -3 -13 -7
-35 -7 -21 -1 -39 2 -39 7 0 16 64 17 74 0z m358 -60 c-3 -44 -8 -61 -18 -61
-8 0 -14 7 -14 16 0 8 5 12 10 9 6 -4 10 15 10 50 0 31 3 54 8 52 4 -3 5 -32
4 -66z m38 59 c0 -5 -5 -10 -11 -10 -5 0 -7 5 -4 10 3 6 8 10 11 10 2 0 4 -4
4 -10z m1396 -26 c18 -18 30 -23 45 -19 16 5 20 3 17 -6 -8 -21 -66 -14 -93
11 -13 12 -28 19 -34 15 -6 -3 -11 -2 -11 4 0 10 17 19 39 20 7 1 24 -11 37
-25z m60 11 c-22 -17 -46 -20 -46 -6 0 11 18 19 45 20 20 0 20 0 1 -14z
m-1797 -24 c-6 -2 -18 4 -27 13 -15 15 -15 15 10 4 15 -7 23 -15 17 -17z m628
4 c-4 -8 -17 -15 -29 -14 -15 0 -18 3 -8 6 8 3 19 12 23 20 11 18 21 9 14 -12z
m-682 5 c3 -5 -12 -18 -35 -29 -37 -18 -40 -18 -40 -2 0 9 5 22 12 29 14 14
54 16 63 2z m183 -9 c10 -6 5 -10 -17 -14 -33 -7 -61 0 -61 14 0 11 61 12 78
0z m212 -12 c0 -5 -7 -9 -15 -9 -15 0 -20 12 -9 23 8 8 24 -1 24 -14z m215 1
c-4 -6 7 -10 27 -10 l33 -1 -25 -21 c-14 -11 -24 -24 -23 -28 1 -4 -7 -10 -18
-13 -19 -5 -21 -2 -15 25 3 17 6 37 6 44 0 8 5 14 11 14 5 0 7 -4 4 -10z
m1141 -4 c8 -20 61 -37 90 -30 18 5 23 3 19 -7 -8 -20 -81 -23 -89 -4 -3 8
-17 20 -31 25 -15 6 -23 14 -20 20 9 14 25 12 31 -4z m-1614 -22 c16 -8 28
-19 28 -24 0 -5 16 -20 35 -32 19 -13 37 -29 39 -35 9 -23 -22 -14 -56 16 -74
64 -153 79 -216 41 -41 -25 -44 -25 -30 4 23 51 129 67 200 30z m128 1 c-3 -5
-15 -10 -27 -10 -13 1 -23 -3 -23 -7 0 -4 7 -8 15 -8 8 0 15 -6 15 -14 0 -28
-17 -25 -50 9 l-33 34 34 4 c50 6 75 3 69 -8z m1781 -5 c5 0 9 -3 9 -7 0 -5
-21 -8 -47 -9 -27 -1 -68 -4 -93 -8 -39 -5 -41 -5 -15 4 46 16 108 28 123 24
8 -2 18 -4 23 -4z m-298 -35 c-7 -21 -13 -19 -13 6 0 11 4 18 10 14 5 -3 7
-12 3 -20z m-1640 4 c12 -6 33 -22 47 -35 14 -12 39 -30 55 -38 17 -9 24 -16
17 -16 -7 0 -43 18 -80 40 -59 36 -72 40 -107 34 -22 -3 -50 -12 -62 -20 -12
-8 -28 -14 -34 -14 -16 0 20 40 46 51 29 12 93 11 118 -2z m184 -32 c-16 -31
-24 -39 -28 -28 -4 9 -1 19 5 24 8 5 6 10 -4 17 -12 8 -11 10 8 10 12 0 22 5
22 10 0 6 4 10 10 10 5 0 -1 -19 -13 -43z m1751 34 c9 -5 -5 -10 -40 -15 -29
-3 -68 -9 -85 -12 -49 -9 -40 10 10 23 54 13 99 15 115 4z m-1721 -64 c1 -40
-1 -43 -38 -59 -21 -9 -39 -12 -39 -7 0 5 7 9 15 9 8 0 17 12 21 28 6 23 30
72 37 72 1 0 3 -19 4 -43z m83 17 c0 -8 -6 -14 -14 -14 -9 0 -12 7 -9 20 6 22
23 18 23 -6z m220 11 c-7 -8 -21 -15 -32 -15 -25 0 -34 -26 -18 -55 16 -30 47
-43 87 -38 21 4 45 -2 72 -18 43 -24 49 -24 221 8 25 4 25 3 25 -59 0 -35 4
-72 9 -82 9 -18 0 -19 -340 -13 -192 4 -375 7 -406 7 -66 0 -75 15 -33 48 19
15 36 19 68 16 l42 -3 -38 8 c-50 11 -58 21 -16 22 l34 1 -30 8 -30 8 30 1
c23 1 27 3 15 11 -12 7 -12 10 -1 10 7 0 11 6 7 15 -4 10 5 19 27 28 18 8 38
21 46 30 7 10 22 17 32 17 10 0 21 5 24 10 4 6 15 8 25 5 11 -3 28 -1 39 5 21
11 117 38 140 39 11 1 11 -2 1 -14z m1430 2 c0 -13 -124 -42 -141 -32 -18 12
-9 22 29 32 55 15 112 16 112 0z m-1910 -32 c30 -19 63 -35 73 -35 16 0 18 -5
12 -27 -4 -16 -8 -30 -10 -32 -9 -8 -73 41 -83 64 -14 31 -48 45 -110 45 -34
0 -43 3 -32 10 33 21 94 11 150 -25z m1725 15 c-3 -5 0 -10 7 -10 10 0 162
-209 176 -242 2 -5 -33 -8 -77 -7 -50 1 -81 5 -81 12 0 6 2 8 5 5 9 -9 89 18
93 30 2 7 -3 12 -11 12 -9 0 -18 8 -22 19 -3 10 -15 23 -28 29 -12 6 -16 11
-9 11 24 2 12 31 -13 31 -18 0 -25 -5 -25 -20 0 -11 -7 -20 -15 -20 -18 0 -19
-12 -3 -28 9 -9 9 -12 -2 -12 -11 -1 -10 -5 4 -15 19 -15 19 -15 -2 -15 -12 0
-22 -5 -22 -11 0 -6 9 -8 20 -4 14 5 20 2 20 -9 0 -17 -66 -20 -355 -16 -60 1
-167 1 -236 0 l-126 -2 -18 64 c-19 71 -17 106 6 98 8 -3 95 -5 194 -5 149 0
180 -2 180 -14 0 -8 6 -16 14 -19 10 -3 12 0 8 12 -6 15 -2 17 21 12 100 -19
173 -28 178 -23 12 12 -6 37 -46 62 -46 29 -50 42 -16 55 13 5 27 14 31 19 3
6 39 11 81 11 48 0 73 -4 69 -10z m-1788 -21 c18 -6 35 -19 38 -30 9 -26 64
-67 97 -71 20 -2 25 -7 19 -17 -7 -11 -17 -9 -54 7 -26 11 -57 30 -69 42 -31
29 -78 48 -139 56 -28 4 -46 10 -40 13 17 11 115 11 148 0z m993 1 c-34 -11
-60 -11 -35 0 11 5 29 8 40 8 16 0 15 -2 -5 -8z m977 -5 c8 -22 0 -27 -51 -32
-31 -4 -51 -1 -62 8 -15 12 -12 15 27 25 61 17 79 16 86 -1z m-447 1 c0 -3 -4
-8 -10 -11 -5 -3 -10 -1 -10 4 0 6 5 11 10 11 6 0 10 -2 10 -4z m-1556 -40
c18 -7 48 -27 67 -43 19 -16 48 -35 66 -42 21 -9 30 -18 26 -28 -16 -40 -86
-30 -166 26 -24 16 -59 33 -77 38 -19 5 -36 15 -38 22 -4 11 6 13 40 9 33 -4
64 -18 109 -51 61 -43 130 -73 116 -50 -4 6 -19 14 -33 17 -14 4 -50 25 -80
48 -39 29 -67 42 -99 46 -25 2 -48 9 -51 13 -8 14 83 10 120 -5z m2006 -15 c0
-10 -69 -23 -82 -15 -18 12 -6 19 37 22 25 1 45 -2 45 -7z m-980 -11 c0 -5 -2
-10 -4 -10 -3 0 -8 5 -11 10 -3 6 -1 10 4 10 6 0 11 -4 11 -10z m547 4 c-3 -3
-12 -4 -19 -1 -8 3 -5 6 6 6 11 1 17 -2 13 -5z m-532 -50 c19 -20 35 -38 35
-40 0 -2 -10 -4 -22 -4 -17 0 -19 3 -10 9 11 7 11 9 -2 14 -9 4 -16 13 -16 20
0 8 -10 19 -22 25 -13 6 -17 11 -10 11 7 1 28 -15 47 -35z m30 16 c0 -7 -5
-15 -10 -17 -6 -2 -11 6 -11 17 0 11 5 19 11 17 5 -2 10 -10 10 -17z m935 10
c0 -13 -46 -24 -62 -14 -9 6 -6 10 12 15 37 10 50 10 50 -1z m-2055 -34 c18
-13 18 -14 -8 -9 -15 3 -30 9 -33 14 -8 14 20 10 41 -5z m1039 -1 c-4 -8 -11
-15 -16 -15 -6 0 -5 6 2 15 7 8 14 15 16 15 2 0 1 -7 -2 -15z m1016 -32 l-1
-38 -24 30 c-31 38 -31 45 0 45 22 0 25 -4 25 -37z m-2073 16 c15 -6 38 -20
50 -31 12 -11 46 -29 75 -39 51 -17 52 -18 18 -18 -33 -1 -130 45 -145 69 -3
5 -15 10 -25 10 -10 0 -22 5 -25 10 -8 13 16 13 52 -1z m64 -16 c13 -16 12
-17 -3 -4 -17 13 -22 21 -14 21 2 0 10 -8 17 -17z m979 3 c0 -3 -4 -8 -10 -11
-5 -3 -10 -1 -10 4 0 6 5 11 10 11 6 0 10 -2 10 -4z m-1044 -37 c12 -19 88
-49 127 -49 33 0 37 -3 37 -25 0 -23 -3 -25 -50 -25 -38 0 -64 8 -105 31 -53
30 -76 49 -58 49 5 0 18 -7 29 -15 37 -29 107 -55 143 -54 20 1 27 3 16 6 -72
16 -96 27 -142 62 -29 21 -49 41 -46 45 7 7 39 -10 49 -25z m1124 17 c0 -3 -4
-8 -10 -11 -5 -3 -10 -1 -10 4 0 6 5 11 10 11 6 0 10 -2 10 -4z m-990 -16 c12
-8 11 -10 -7 -10 -12 0 -25 5 -28 10 -8 13 15 13 35 0z m1020 -5 c0 -8 -2 -15
-4 -15 -2 0 -6 7 -10 15 -3 8 -1 15 4 15 6 0 10 -7 10 -15z m-74 -17 c10 -12
13 -18 7 -14 -7 4 -13 2 -13 -3 0 -23 -15 -10 -16 14 -2 30 -2 30 22 3z m907
15 c-13 -2 -35 -2 -50 0 -16 2 -5 4 22 4 28 0 40 -2 28 -4z m-1800 -10 c-7 -2
-19 -2 -25 0 -7 3 -2 5 12 5 14 0 19 -2 13 -5z m937 -3 c0 -5 -5 -10 -11 -10
-5 0 -7 5 -4 10 3 6 8 10 11 10 2 0 4 -4 4 -10z m-1125 -65 c22 -10 54 -21 70
-25 25 -6 19 -8 -37 -15 -36 -4 -71 -4 -77 0 -12 7 -15 69 -3 63 4 -2 25 -12
47 -23z m339 13 c5 -10 7 -10 12 1 5 11 8 11 15 0 8 -12 11 -11 19 1 7 11 10
7 11 -20 l1 -35 8 30 c7 32 15 23 23 -25 3 -15 5 -8 6 18 1 46 20 59 22 15 1
-21 2 -23 6 -8 7 29 23 43 23 20 0 -18 0 -18 13 0 10 13 16 15 21 6 6 -9 11
-9 21 -1 11 9 16 3 23 -32 9 -41 10 -41 11 -10 1 35 21 36 21 1 0 -10 4 -19 8
-19 5 0 7 15 5 33 -4 29 -3 30 10 14 14 -17 16 -17 32 -1 14 15 18 15 26 3 7
-12 9 -12 9 1 1 9 6 5 15 -10 l14 -25 2 30 c1 24 3 25 6 8 6 -29 23 -30 23 -1
0 16 3 19 11 11 22 -22 0 -41 -80 -68 -122 -40 -193 -39 -307 8 -50 20 -101
37 -113 37 -23 0 -29 15 -8 23 25 11 85 7 91 -5z m456 -8 c0 -11 -4 -20 -10
-20 -5 0 -10 9 -10 20 0 11 5 20 10 20 6 0 10 -9 10 -20z m30 -2 c0 -16 -3
-19 -11 -11 -6 6 -8 16 -5 22 11 17 16 13 16 -11z m60 -4 c0 -33 -33 -30 -38
4 -3 17 2 22 17 22 16 0 21 -6 21 -26z m80 16 c9 13 10 13 10 0 0 -8 3 -32 6
-52 8 -45 -9 -52 -24 -10 -9 22 -11 23 -12 7 -1 -15 -4 -13 -10 8 -10 34 -2
66 11 45 7 -11 11 -10 19 2z m58 -23 c2 -15 7 -27 11 -27 5 0 6 11 3 25 -3 20
0 25 15 25 28 0 43 -20 43 -57 0 -18 4 -33 8 -33 5 0 7 14 4 30 -4 29 -3 30
31 30 24 0 40 6 46 18 9 14 10 12 11 -13 0 -54 -63 -81 -175 -76 l-30 1 3 56
c4 58 24 72 30 21z m152 23 c0 -5 -5 -10 -11 -10 -5 0 -7 5 -4 10 3 6 8 10 11
10 2 0 4 -4 4 -10z m265 -10 c-7 -22 2 -60 14 -60 4 0 6 14 3 30 -3 18 0 30 7
30 6 0 11 -14 11 -31 0 -19 4 -28 11 -23 6 3 9 19 7 35 -5 32 -16 29 125 33
18 1 22 -4 20 -29 -2 -28 -2 -28 5 -5 6 17 16 26 35 28 20 3 25 0 21 -11 -3
-8 -1 -18 5 -22 7 -4 11 5 12 22 l0 28 11 -25 11 -25 5 23 c3 22 4 23 17 5 13
-17 14 -17 15 0 0 25 40 23 40 -3 0 -11 -5 -20 -12 -20 -6 0 -50 -19 -97 -42
-73 -37 -94 -43 -146 -42 -70 1 -130 18 -147 43 -20 27 -53 41 -97 41 -32 0
-41 4 -41 18 0 15 2 15 10 2 9 -13 12 -13 21 3 8 13 24 17 75 17 61 0 65 -1
59 -20z m416 -10 c5 0 10 8 10 18 1 16 2 16 6 0 5 -22 23 -24 23 -3 0 21 20
19 21 -2 1 -17 2 -17 6 0 2 9 8 17 13 17 4 0 6 -9 3 -20 -3 -11 -1 -20 5 -20
6 0 13 10 15 23 3 16 5 14 6 -10 2 -45 21 -53 21 -8 0 22 4 34 10 30 6 -3 10
-21 10 -40 0 -19 5 -37 12 -41 8 -5 9 5 5 34 -3 23 -1 44 3 47 4 3 10 -18 12
-46 l3 -51 -28 6 c-16 3 -40 15 -54 26 -14 11 -47 23 -74 26 -42 6 -49 10 -48
28 1 17 2 17 6 4 2 -10 9 -18 14 -18z m206 -47 c-2 -16 -4 -3 -4 27 0 30 2 43
4 28 2 -16 2 -40 0 -55z m-1150 20 c-3 -10 -5 -2 -5 17 0 19 2 27 5 18 2 -10
2 -26 0 -35z m353 10 c0 -2 -9 -3 -20 -3 -13 0 -20 7 -20 20 0 19 1 19 20 3
11 -10 20 -19 20 -20z m-985 -4 c22 -6 71 -25 109 -41 63 -28 77 -30 150 -26
53 4 109 15 159 33 94 33 145 30 226 -11 65 -34 148 -42 206 -21 22 8 68 27
102 41 53 23 68 25 104 17 24 -5 50 -19 58 -30 34 -44 158 -64 244 -40 21 5
64 26 95 45 74 44 127 46 203 5 30 -16 73 -32 97 -36 28 -4 42 -12 42 -22 0
-23 -87 -10 -157 23 -67 31 -126 28 -184 -10 -46 -31 -144 -50 -216 -43 -34 4
-83 19 -128 42 l-72 35 -79 -32 c-59 -24 -99 -33 -159 -36 -50 -3 -73 -7 -60
-12 33 -12 147 7 210 34 73 33 83 32 150 -3 86 -46 149 -55 246 -37 53 10 96
25 120 42 51 35 106 36 184 1 34 -15 79 -27 103 -27 23 0 42 -4 42 -10 0 -15
-84 -12 -127 4 -71 26 -101 27 -176 2 -98 -33 -251 -42 -327 -20 -156 45 -147
44 -199 28 -90 -26 -192 -34 -246 -19 -35 9 -42 14 -25 15 21 1 18 4 -15 15
-22 7 -58 22 -80 34 -48 26 -97 26 -150 2 -63 -28 -182 -54 -225 -48 -21 3
-79 23 -128 46 -96 44 -139 50 -199 26 -60 -23 -186 -43 -212 -33 -43 15 -17
33 60 40 41 4 97 14 124 22 63 18 80 19 130 5z m79 -69 c37 -17 65 -34 63 -37
-3 -2 -33 10 -68 27 -56 29 -70 32 -128 28 -61 -4 -63 -3 -36 9 42 18 91 11
169 -27z m536 -11 c30 -17 44 -28 30 -24 -65 18 -139 17 -220 -4 -51 -13 -112
-21 -154 -20 l-71 2 61 8 c76 9 131 24 186 49 60 27 104 24 168 -11z m-783 5
c-34 -19 -173 -33 -164 -17 4 6 15 9 25 7 9 -3 46 2 82 10 84 18 91 18 57 0z
m245 -23 c36 -17 71 -31 79 -32 8 0 9 -3 4 -5 -6 -2 -38 5 -70 17 -89 32 -132
34 -209 10 -47 -14 -92 -21 -145 -20 l-76 2 55 7 c30 4 82 17 115 28 116 40
154 39 247 -7z m-22 -26 l35 -16 -40 7 c-50 9 -95 9 -165 0 l-55 -7 55 20 c61
22 116 21 170 -4z m578 6 c31 -11 68 -21 82 -24 15 -2 6 -5 -22 -6 -28 0 -48
4 -50 11 -6 17 -174 16 -213 -2 -33 -15 -118 -23 -110 -11 2 5 21 11 42 14 21
4 61 13 88 21 69 20 116 19 183 -3z m460 -10 c69 -24 74 -31 23 -31 -29 0 -40
4 -35 12 5 7 3 8 -5 3 -16 -9 -81 -12 -81 -3 0 4 15 9 33 11 17 2 14 2 -8 0
-22 -2 -80 -6 -130 -8 l-90 -4 70 10 c39 5 81 13 95 18 38 14 70 12 128 -8z
m562 4 c23 -8 66 -15 94 -16 36 0 45 -3 31 -8 -11 -5 -24 -6 -28 -4 -5 3 -74
5 -155 5 l-147 1 40 18 c50 22 110 23 165 4z m-1660 -15 c11 -7 7 -10 -18 -10
-20 0 -31 4 -27 10 8 13 26 13 45 0z m628 -5 c2 -2 -35 -5 -82 -7 -78 -3 -100
3 -51 15 20 5 127 -2 133 -8z m-415 -2 c-7 -2 -19 -2 -25 0 -7 3 -2 5 12 5 14
0 19 -2 13 -5z m670 -23 l918 0 -3 -127 -3 -128 -80 -6 c-44 -4 -519 -10
-1057 -14 l-976 -8 -4 124 c-2 68 -1 135 1 148 l4 24 141 -6 c78 -4 554 -7
1059 -7z"/>
<path d="M1106 3051 c-3 -4 7 -6 22 -4 l27 4 -30 -14 c-21 -10 -26 -15 -16
-21 8 -5 17 -3 22 5 6 10 9 11 9 2 0 -7 8 -13 18 -13 13 0 14 2 4 9 -11 7 -11
9 2 14 9 4 16 11 16 17 0 12 -67 14 -74 1z"/>
<path d="M1198 2893 c6 -2 18 -2 25 0 6 3 1 5 -13 5 -14 0 -19 -2 -12 -5z"/>
<path d="M1833 2801 c14 -17 29 -47 33 -66 3 -19 11 -35 16 -35 26 0 -29 123
-57 129 -16 3 -14 -2 8 -28z"/>
<path d="M1828 2742 c11 -15 22 -41 25 -57 4 -28 4 -28 6 5 1 36 -21 80 -40
80 -6 0 -1 -13 9 -28z"/>
<path d="M1813 2710 c9 -25 27 -42 27 -26 0 15 -21 56 -29 56 -5 0 -4 -13 2
-30z"/>
<path d="M1750 2720 c0 -5 5 -10 11 -10 5 0 7 5 4 10 -3 6 -8 10 -11 10 -2 0
-4 -4 -4 -10z"/>
<path d="M1716 2702 c-3 -6 -1 -14 5 -17 15 -10 25 3 12 16 -7 7 -13 7 -17 1z"/>
<path d="M1640 2520 c0 -5 5 -10 11 -10 5 0 7 5 4 10 -3 6 -8 10 -11 10 -2 0
-4 -4 -4 -10z"/>
<path d="M420 2754 c-13 -33 -13 -37 3 -59 13 -16 14 -15 10 12 -3 17 0 40 6
52 8 14 8 21 1 21 -6 0 -15 -12 -20 -26z"/>
<path d="M557 2743 c-4 -3 -7 -11 -7 -17 0 -6 5 -5 12 2 6 6 9 14 7 17 -3 3
-9 2 -12 -2z"/>
<path d="M575 2720 c-3 -5 -2 -10 4 -10 5 0 13 5 16 10 3 6 2 10 -4 10 -5 0
-13 -4 -16 -10z"/>
<path d="M590 2700 c-8 -5 -11 -12 -7 -16 4 -4 15 0 24 9 18 18 8 23 -17 7z"/>
<path d="M599 2674 c-12 -14 -11 -16 5 -13 11 2 21 10 24 17 5 17 -13 15 -29
-4z"/>
<path d="M957 2784 c-10 -10 2 -24 20 -24 8 0 28 -11 45 -25 30 -25 48 -32 48
-17 0 8 -92 72 -102 72 -3 0 -8 -3 -11 -6z"/>
<path d="M1021 2783 c0 -5 14 -19 31 -33 26 -20 45 -25 102 -27 47 -2 64 0 51
6 -11 5 -24 6 -28 4 -15 -9 -106 19 -123 38 -17 19 -34 25 -33 12z"/>
<path d="M1410 2660 c0 -5 7 -10 15 -10 8 0 15 5 15 10 0 6 -7 10 -15 10 -8 0
-15 -4 -15 -10z"/>
<path d="M1450 2643 c-19 -9 -30 -18 -23 -20 11 -4 73 23 73 32 0 8 -12 5 -50
-12z"/>
<path d="M531 2124 c-19 -24 -19 -27 -4 -51 15 -23 17 -23 26 -6 5 10 21 31
36 47 22 24 23 27 5 18 -11 -6 -26 -18 -34 -26 -14 -18 -30 -21 -30 -5 0 5 4
8 9 5 4 -3 19 6 31 19 23 25 23 25 2 25 -11 0 -30 -12 -41 -26z"/>
<path d="M585 2099 c-11 -17 -2 -18 19 -3 17 12 17 14 4 14 -9 0 -20 -5 -23
-11z"/>
<path d="M486 2068 c5 -8 2 -9 -11 -4 -15 5 -16 4 -5 -9 14 -17 35 -21 25 -5
-3 6 -1 10 5 10 6 0 8 5 5 10 -3 6 -11 10 -16 10 -6 0 -7 -5 -3 -12z"/>
<path d="M460 2030 c0 -5 5 -10 11 -10 5 0 7 5 4 10 -3 6 -8 10 -11 10 -2 0
-4 -4 -4 -10z"/>
<path d="M1909 2483 c19 -4 21 -7 10 -15 -10 -7 -11 -9 -1 -6 24 6 18 23 -8
25 l-25 1 24 -5z"/>
<path d="M1610 2270 c8 -5 22 -10 30 -10 13 0 13 1 0 10 -8 5 -22 10 -30 10
-13 0 -13 -1 0 -10z"/>
<path d="M1713 2245 c-17 -18 -16 -25 1 -25 8 0 16 -6 19 -12 2 -7 7 -11 10
-8 3 3 0 17 -6 32 -10 22 -14 24 -24 13z"/>
<path d="M1248 2333 c7 -3 16 -2 19 1 4 3 -2 6 -13 5 -11 0 -14 -3 -6 -6z"/>
<path d="M1245 2310 c3 -5 14 -10 23 -11 11 -1 8 -4 -8 -9 -14 -4 -18 -9 -10
-9 13 -1 13 -2 0 -11 -12 -8 -9 -10 13 -10 17 0 26 -4 22 -11 -4 -6 -13 -8
-21 -5 -8 3 -14 1 -14 -4 0 -6 9 -10 20 -10 11 0 20 -4 20 -10 0 -5 -8 -10
-18 -10 -10 0 -19 -7 -19 -15 0 -9 10 -15 24 -15 31 0 32 -37 1 -43 -20 -4
-19 -4 5 -6 33 -1 36 -18 5 -24 -18 -3 -17 -5 7 -6 23 -1 27 -3 15 -11 -13 -8
-12 -10 3 -10 28 0 19 -28 -10 -33 -22 -3 -20 -4 10 -6 25 0 36 -5 31 -12 -3
-6 -17 -9 -30 -6 -13 2 -24 0 -24 -6 0 -5 15 -7 35 -4 19 3 35 2 35 -3 0 -5
-12 -11 -27 -13 -24 -3 -24 -4 4 -3 43 1 55 -14 12 -15 l-34 -2 40 -7 c39 -6
39 -7 15 -18 -25 -11 -25 -11 8 -11 36 -1 45 -21 10 -22 -16 0 -18 -2 -8 -6 8
-3 18 -11 23 -17 5 -8 10 -6 16 4 8 12 14 11 35 -10 42 -38 30 -14 -17 34 -76
79 -115 176 -132 327 -5 37 -11 48 -31 58 -31 14 -37 14 -29 1z"/>
<path d="M1090 1970 c0 -5 5 -10 10 -10 6 0 10 5 10 10 0 6 -4 10 -10 10 -5 0
-10 -4 -10 -10z"/>
<path d="M1090 1940 c0 -6 7 -10 15 -10 8 0 15 2 15 4 0 2 -7 6 -15 10 -8 3
-15 1 -15 -4z"/>
<path d="M1080 1916 c0 -2 9 -6 20 -9 11 -3 18 -1 14 4 -5 9 -34 13 -34 5z"/>
<path d="M1435 1870 c3 -5 11 -10 16 -10 6 0 7 5 4 10 -3 6 -11 10 -16 10 -6
0 -7 -4 -4 -10z"/>
<path d="M1167 1772 c-9 -10 -17 -25 -17 -33 1 -11 4 -10 14 4 7 9 20 17 29
17 9 0 19 5 23 11 5 8 9 8 14 -1 5 -8 9 -7 13 4 7 18 -10 21 -33 6 -9 -5 -17
-5 -20 1 -4 5 -14 1 -23 -9z"/>
<path d="M1255 1769 c-4 -6 -5 -12 -2 -15 2 -3 7 2 10 11 7 17 1 20 -8 4z"/>
<path d="M1117 1763 c-4 -3 -7 -11 -7 -17 0 -6 5 -5 12 2 6 6 9 14 7 17 -3 3
-9 2 -12 -2z"/>
<path d="M1306 1754 c-9 -24 -7 -28 9 -14 17 14 20 30 6 30 -5 0 -12 -7 -15
-16z"/>
<path d="M1590 1745 c0 -8 5 -15 10 -15 6 0 10 7 10 15 0 8 -4 15 -10 15 -5 0
-10 -7 -10 -15z"/>
<path d="M1190 1739 c0 -5 5 -7 10 -4 6 3 10 8 10 11 0 2 -4 4 -10 4 -5 0 -10
-5 -10 -11z"/>
<path d="M1560 1736 c0 -8 5 -18 10 -21 6 -3 10 3 10 14 0 12 -4 21 -10 21 -5
0 -10 -6 -10 -14z"/>
<path d="M1620 1740 c0 -5 5 -10 10 -10 6 0 10 5 10 10 0 6 -4 10 -10 10 -5 0
-10 -4 -10 -10z"/>
<path d="M1510 1721 c0 -6 -8 -7 -17 -4 -13 5 -15 2 -10 -11 4 -10 7 -19 7
-21 0 -2 9 -1 20 2 11 3 20 9 20 14 0 5 4 8 9 7 5 -2 11 2 13 7 1 6 -7 11 -19
13 -13 2 -23 -1 -23 -7z"/>
<path d="M1450 1703 c0 -14 19 -38 25 -32 8 8 -5 39 -16 39 -5 0 -9 -3 -9 -7z"/>
<path d="M1615 1701 c-11 -5 -27 -6 -35 -4 -12 4 -13 3 -1 -5 7 -5 10 -15 6
-22 -6 -9 -10 -9 -17 1 -8 11 -9 11 -5 -1 2 -8 -1 -22 -8 -30 -30 -34 -104
-190 -115 -243 -7 -32 -19 -57 -25 -57 -7 0 -12 -8 -11 -17 1 -14 -6 -18 -26
-16 -15 1 -29 -5 -32 -13 -9 -23 39 -17 69 9 17 15 32 46 46 97 20 74 96 227
125 251 8 7 32 15 52 18 23 4 37 12 37 21 0 17 -31 23 -60 11z"/>
<path d="M1430 1683 c0 -13 5 -23 10 -23 13 0 13 11 0 30 -8 12 -10 11 -10 -7z"/>
<path d="M1380 1665 c0 -14 5 -25 10 -25 6 0 10 5 10 11 0 5 5 7 10 4 6 -3 10
3 10 14 0 14 -6 21 -20 21 -15 0 -20 -7 -20 -25z"/>
<path d="M1350 1665 c0 -8 5 -15 10 -15 6 0 10 7 10 15 0 8 -4 15 -10 15 -5 0
-10 -7 -10 -15z"/>
<path d="M1530 1660 c0 -5 5 -10 10 -10 6 0 10 5 10 10 0 6 -4 10 -10 10 -5 0
-10 -4 -10 -10z"/>
<path d="M1070 1649 c0 -6 14 -9 36 -6 51 7 54 17 6 17 -24 0 -42 -5 -42 -11z"/>
<path d="M962 1607 c-23 -24 -30 -57 -12 -57 6 0 10 8 10 17 0 9 7 25 17 35
24 27 10 32 -15 5z"/>
<path d="M1004 1606 c-16 -14 -24 -25 -19 -25 14 0 59 38 53 45 -3 3 -19 -6
-34 -20z"/>
<path d="M1600 1605 c-13 -14 -19 -25 -14 -25 11 1 54 36 54 44 0 13 -18 5
-40 -19z"/>
<path d="M1440 1606 c-9 -8 2 -116 11 -116 5 0 9 11 9 24 0 13 4 26 9 28 5 2
2 18 -8 36 -9 18 -19 31 -21 28z"/>
<path d="M1076 1528 c-9 -12 -16 -28 -16 -34 0 -7 -7 -14 -15 -18 -8 -3 -15
-17 -15 -31 0 -15 4 -24 10 -20 6 3 10 16 10 27 0 12 3 18 7 15 5 -6 53 65 53
79 0 12 -21 1 -34 -18z"/>
<path d="M1287 1503 c-17 -4 -18 -12 -12 -81 8 -83 25 -123 25 -57 0 26 7 46
21 61 16 17 19 28 13 46 -4 12 -7 26 -6 31 2 7 -12 8 -41 0z m19 -29 c-4 -12
-2 -15 9 -10 13 4 14 2 5 -15 -6 -11 -15 -17 -21 -14 -10 7 -12 38 -2 48 11
12 15 8 9 -9z"/>
<path d="M1390 1485 c0 -3 9 -22 20 -42 22 -41 28 -24 8 20 -11 23 -28 37 -28
22z"/>
<path d="M1338 1423 c-23 -27 -30 -43 -20 -43 11 0 46 50 39 56 -2 2 -11 -4
-19 -13z"/>
<path d="M1390 1408 c0 -13 -19 -40 -50 -68 -55 -51 -60 -70 -29 -101 37 -37
101 -8 145 66 38 66 24 66 -19 0 -51 -75 -117 -91 -117 -27 0 23 10 38 45 66
31 26 45 45 45 62 0 13 -4 24 -10 24 -5 0 -10 -10 -10 -22z"/>
<path d="M1345 1380 c-10 -11 -13 -20 -8 -20 13 0 38 29 31 35 -3 3 -13 -4
-23 -15z"/>
<path d="M1710 1340 c0 -5 9 -10 20 -10 11 0 20 5 20 10 0 6 -9 10 -20 10 -11
0 -20 -4 -20 -10z"/>
<path d="M1375 1320 c3 -5 8 -10 11 -10 2 0 4 5 4 10 0 6 -5 10 -11 10 -5 0
-7 -4 -4 -10z"/>
<path d="M1730 1301 c0 -5 -10 -11 -22 -13 -19 -3 -20 -4 -6 -10 10 -4 23 1
34 13 10 11 12 19 6 19 -7 0 -12 -4 -12 -9z"/>
<path d="M1510 1260 c0 -5 7 -10 15 -10 8 0 15 5 15 10 0 6 -7 10 -15 10 -8 0
-15 -4 -15 -10z"/>
<path d="M1690 1260 c0 -6 7 -10 15 -10 8 0 15 2 15 4 0 2 -7 6 -15 10 -8 3
-15 1 -15 -4z"/>
<path d="M1500 1220 c0 -5 4 -10 9 -10 6 0 13 5 16 10 3 6 -1 10 -9 10 -9 0
-16 -4 -16 -10z"/>
<path d="M1382 1209 c-13 -5 -34 -6 -46 -3 -17 4 -22 0 -23 -15 -1 -11 3 -23
8 -26 5 -4 3 -13 -6 -21 -18 -18 -18 -27 -5 -114 6 -36 15 -99 20 -140 9 -66
13 -78 42 -102 36 -31 53 -36 44 -13 -4 11 1 15 19 15 28 0 35 19 8 21 -12 1
-10 4 7 9 19 6 12 8 -30 8 -30 0 -47 -2 -37 -5 9 -2 17 -11 17 -18 0 -19 -28
-8 -40 16 -14 25 -13 27 13 32 22 4 22 4 -3 16 -23 11 -23 11 -2 7 31 -6 28 8
-5 22 -27 11 -27 12 10 7 47 -5 49 11 2 19 -19 4 -35 11 -35 16 0 6 10 6 26 0
51 -20 58 -8 9 16 -27 13 -39 22 -25 18 63 -15 72 -12 28 8 -27 12 -48 26 -48
30 0 5 8 5 18 0 30 -16 72 -23 72 -12 0 5 -8 10 -17 11 -15 0 -15 2 2 9 19 8
19 8 -5 19 -23 10 -23 11 -2 7 42 -8 22 12 -28 29 -37 12 -50 22 -50 36 0 10
5 19 10 19 6 0 9 -5 8 -12 -3 -14 62 -39 76 -30 6 3 -6 11 -25 18 -33 12 -33
13 -6 13 15 1 27 6 27 11 0 6 -12 11 -27 11 -17 1 -21 3 -10 6 25 6 21 23 -5
24 -17 0 -13 5 20 19 58 26 53 43 -6 19z m-27 -149 c18 -8 17 -9 -7 -9 -16 -1
-28 4 -28 9 0 12 8 12 35 0z"/>
<path d="M948 1170 c3 -20 10 -30 21 -30 19 0 27 40 8 41 -7 0 -3 4 8 9 17 7
15 9 -11 9 -28 1 -30 -1 -26 -29z"/>
<path d="M1476 1158 c-8 -40 -68 -292 -73 -308 -3 -10 0 -9 10 3 28 34 93 312
76 323 -5 2 -11 -5 -13 -18z"/>
<path d="M953 1123 c9 -2 23 -2 30 0 6 3 -1 5 -18 5 -16 0 -22 -2 -12 -5z"/>
<path d="M1668 1103 c6 -2 18 -2 25 0 6 3 1 5 -13 5 -14 0 -19 -2 -12 -5z"/>
<path d="M950 1070 c0 -5 7 -10 16 -10 8 0 12 5 9 10 -3 6 -10 10 -16 10 -5 0
-9 -4 -9 -10z"/>
<path d="M890 1049 c0 -5 5 -7 10 -4 6 3 10 8 10 11 0 2 -4 4 -10 4 -5 0 -10
-5 -10 -11z"/>
<path d="M958 1043 c7 -3 16 -2 19 1 4 3 -2 6 -13 5 -11 0 -14 -3 -6 -6z"/>
<path d="M1665 980 c-3 -5 3 -10 14 -10 12 0 21 5 21 10 0 6 -6 10 -14 10 -8
0 -18 -4 -21 -10z"/>
<path d="M872 957 c-14 -15 -22 -36 -22 -59 0 -27 -5 -38 -19 -43 -22 -7 -59
-45 -44 -45 6 0 16 7 23 15 17 21 34 19 56 -7 17 -20 17 -21 1 -8 -16 12 -20
12 -28 -1 -11 -18 -11 -26 1 -34 6 -3 10 -2 10 3 0 5 9 12 20 15 14 4 19 12
18 30 -1 14 -6 23 -11 20 -4 -3 -7 19 -5 49 3 52 3 53 33 50 28 -2 29 -2 12
12 -18 14 -18 14 0 19 15 4 15 5 -3 6 -11 0 -30 -9 -42 -22z"/>
<path d="M1624 955 c3 -8 1 -15 -4 -15 -15 0 -12 -17 6 -34 8 -9 21 -13 27 -9
7 4 3 9 -9 13 -18 7 -18 7 4 14 25 8 30 26 7 26 -8 0 -15 5 -15 10 0 6 -5 10
-11 10 -6 0 -9 -7 -5 -15z"/>
<path d="M1682 951 c2 -7 7 -12 11 -12 12 1 9 15 -3 20 -7 2 -11 -2 -8 -8z"/>
<path d="M885 920 c-3 -5 1 -10 9 -10 9 0 16 5 16 10 0 6 -4 10 -9 10 -6 0
-13 -4 -16 -10z"/>
<path d="M1465 900 c-12 -5 -14 -9 -6 -9 11 -1 10 -5 -5 -16 -21 -16 -8 -21
15 -6 11 7 27 44 18 40 -1 0 -11 -4 -22 -9z"/>
<path d="M820 880 c0 -5 5 -10 10 -10 6 0 10 5 10 10 0 6 -4 10 -10 10 -5 0
-10 -4 -10 -10z"/>
<path d="M1630 878 c0 -5 11 -8 25 -8 14 0 25 3 25 8 0 4 -11 7 -25 7 -14 0
-25 -3 -25 -7z"/>
<path d="M945 845 c0 -14 3 -25 6 -25 10 0 20 31 13 41 -10 17 -19 9 -19 -16z"/>
<path d="M1233 852 c-33 -5 -28 -22 5 -22 15 0 33 -5 40 -12 13 -13 27 -5 17
11 -10 17 -38 27 -62 23z"/>
<path d="M1450 850 c-13 -9 -13 -10 0 -10 8 0 22 5 30 10 13 9 13 10 0 10 -8
0 -22 -5 -30 -10z"/>
<path d="M1652 853 c-21 -8 -4 -21 23 -16 13 3 22 9 19 14 -6 10 -21 10 -42 2z"/>
<path d="M935 800 c3 -5 1 -10 -5 -10 -6 0 -8 -4 -5 -10 3 -5 11 -10 16 -10 6
0 7 5 4 10 -3 6 -1 10 5 10 6 0 8 5 5 10 -3 6 -11 10 -16 10 -6 0 -7 -4 -4
-10z"/>
<path d="M1250 792 c0 -4 22 -21 48 -39 46 -30 113 -46 128 -30 4 4 -5 7 -20
7 -30 0 -106 37 -119 58 -9 13 -37 17 -37 4z"/>
<path d="M1470 791 c0 -5 9 -7 20 -4 11 3 20 7 20 9 0 2 -9 4 -20 4 -11 0 -20
-4 -20 -9z"/>
<path d="M1565 793 c-16 -3 -34 -9 -39 -14 -6 -5 -25 -9 -43 -9 -18 0 -33 -4
-33 -10 0 -15 54 -12 86 5 16 8 36 15 44 15 8 0 22 5 30 10 17 11 14 11 -45 3z"/>
<path d="M1036 775 c-22 -17 -17 -29 7 -19 16 6 32 34 19 34 -4 0 -16 -7 -26
-15z"/>
<path d="M905 760 c3 -5 14 -10 23 -10 15 0 15 2 2 10 -20 13 -33 13 -25 0z"/>
<path d="M730 2258 c0 -4 16 -8 35 -8 19 0 35 2 35 4 0 2 -16 6 -35 8 -19 2
-35 0 -35 -4z"/>
<path d="M765 2230 c8 -13 35 -13 55 0 11 7 5 10 -23 10 -23 0 -36 -4 -32 -10z"/>
<path d="M783 2203 c9 -2 23 -2 30 0 6 3 -1 5 -18 5 -16 0 -22 -2 -12 -5z"/>
<path d="M800 2182 c0 -12 19 -26 26 -19 2 2 -2 10 -11 17 -9 8 -15 8 -15 2z"/>
<path d="M853 2095 c0 -8 4 -15 9 -15 4 0 8 7 8 15 0 8 -4 15 -8 15 -5 0 -9
-7 -9 -15z"/>
<path d="M480 1699 c0 -5 5 -7 10 -4 6 3 10 8 10 11 0 2 -4 4 -10 4 -5 0 -10
-5 -10 -11z"/>
<path d="M645 1570 c-3 -5 3 -10 14 -10 11 0 23 5 26 10 3 6 -3 10 -14 10 -11
0 -23 -4 -26 -10z"/>
<path d="M675 1553 c-35 -9 -43 -26 -8 -18 26 5 32 3 38 -15 8 -25 10 -23 -35
-38 l-35 -12 38 6 c44 6 50 -11 7 -21 -16 -4 -32 -11 -35 -16 -8 -12 7 -12 39
1 38 14 33 -7 -6 -25 l-33 -15 33 5 c20 3 31 1 27 -5 -3 -6 -21 -11 -38 -11
-30 -2 -30 -2 8 -9 l40 -7 -32 -8 c-42 -10 -43 -23 -2 -17 22 3 30 1 25 -7 -4
-6 -16 -11 -27 -11 -10 0 -19 -5 -19 -10 0 -6 11 -8 25 -4 34 8 32 -12 -2 -25
l-28 -11 28 4 c33 4 38 -21 5 -27 l-23 -4 23 -2 c30 -2 28 -21 -3 -21 -14 0
-25 -4 -25 -10 0 -5 13 -7 30 -3 18 3 30 1 30 -5 0 -5 -13 -15 -30 -21 -16 -5
-30 -13 -30 -16 0 -4 14 -4 30 0 40 9 38 -9 -2 -23 -30 -10 -30 -11 -5 -8 15
2 27 -1 27 -5 0 -5 -8 -9 -17 -9 -10 0 -25 -5 -33 -11 -11 -7 -6 -8 20 -3 40
7 33 -5 -13 -24 l-32 -12 33 5 c24 3 32 1 29 -8 -2 -6 -12 -14 -23 -15 -10 -2
-23 -8 -29 -13 -6 -6 3 -7 23 -3 49 10 39 -13 -10 -24 l-43 -10 40 -2 40 -2
-35 -13 c-22 -9 -28 -13 -15 -14 47 0 59 14 70 80 9 55 13 64 35 70 l25 7 -25
2 c-25 2 -25 2 5 16 29 14 29 15 4 11 -26 -4 -27 -2 -33 62 -3 36 -6 119 -6
183 0 112 -5 149 -19 147 -3 -1 -15 -3 -26 -6z"/>
<path d="M758 1533 c7 -3 16 -2 19 1 4 3 -2 6 -13 5 -11 0 -14 -3 -6 -6z"/>
<path d="M656 1511 c-11 -4 -15 -10 -10 -13 10 -6 54 8 54 17 0 7 -21 5 -44
-4z"/>
<path d="M768 1513 c7 -3 16 -2 19 1 4 3 -2 6 -13 5 -11 0 -14 -3 -6 -6z"/>
<path d="M778 1493 c7 -3 16 -2 19 1 4 3 -2 6 -13 5 -11 0 -14 -3 -6 -6z"/>
<path d="M765 1470 c-13 -6 -15 -9 -5 -9 8 0 22 4 30 9 18 12 2 12 -25 0z"/>
<path d="M778 1403 c7 -3 16 -2 19 1 4 3 -2 6 -13 5 -11 0 -14 -3 -6 -6z"/>
<path d="M490 1369 c0 -5 5 -7 10 -4 6 3 10 8 10 11 0 2 -4 4 -10 4 -5 0 -10
-5 -10 -11z"/>
<path d="M770 1370 c0 -5 4 -10 9 -10 6 0 13 5 16 10 3 6 -1 10 -9 10 -9 0
-16 -4 -16 -10z"/>
<path d="M768 1313 c6 -2 18 -2 25 0 6 3 1 5 -13 5 -14 0 -19 -2 -12 -5z"/>
<path d="M763 1283 c9 -2 23 -2 30 0 6 3 -1 5 -18 5 -16 0 -22 -2 -12 -5z"/>
<path d="M775 1250 c-19 -8 -19 -9 3 -9 12 -1 22 4 22 9 0 6 -1 10 -2 9 -2 0
-12 -4 -23 -9z"/>
<path d="M760 1211 c0 -5 9 -7 20 -4 11 3 20 7 20 9 0 2 -9 4 -20 4 -11 0 -20
-4 -20 -9z"/>
<path d="M768 1183 c7 -3 16 -2 19 1 4 3 -2 6 -13 5 -11 0 -14 -3 -6 -6z"/>
<path d="M740 1110 c-12 -8 -11 -10 8 -10 12 0 22 5 22 10 0 13 -11 13 -30 0z"/>
<path d="M735 1080 c3 -5 8 -10 11 -10 2 0 4 5 4 10 0 6 -5 10 -11 10 -5 0 -7
-4 -4 -10z"/>
<path d="M770 1060 c0 -5 5 -10 10 -10 6 0 10 5 10 10 0 6 -4 10 -10 10 -5 0
-10 -4 -10 -10z"/>
<path d="M635 964 c-32 -11 -34 -13 -10 -9 l30 4 -30 -14 c-25 -12 -26 -14 -9
-15 12 0 25 -10 31 -22 6 -15 12 -18 17 -10 4 7 2 12 -6 12 -9 0 -9 3 2 10 13
8 12 10 -3 10 -15 0 -13 5 10 25 32 28 25 30 -32 9z"/>
<path d="M615 900 c-3 -5 -1 -10 4 -10 6 0 11 5 11 10 0 6 -2 10 -4 10 -3 0
-8 -4 -11 -10z"/>
<path d="M595 860 c-8 -13 15 -13 35 0 12 8 11 10 -7 10 -12 0 -25 -4 -28 -10z"/>
<path d="M383 1203 c9 -2 25 -2 35 0 9 3 1 5 -18 5 -19 0 -27 -2 -17 -5z"/>
<path d="M378 1143 c12 -2 30 -2 40 0 9 3 -1 5 -23 4 -22 0 -30 -2 -17 -4z"/>
<path d="M383 1123 c9 -2 23 -2 30 0 6 3 -1 5 -18 5 -16 0 -22 -2 -12 -5z"/>
<path d="M383 1093 c9 -2 25 -2 35 0 9 3 1 5 -18 5 -19 0 -27 -2 -17 -5z"/>
<path d="M393 1063 c9 -2 23 -2 30 0 6 3 -1 5 -18 5 -16 0 -22 -2 -12 -5z"/>
<path d="M388 1033 c6 -2 18 -2 25 0 6 3 1 5 -13 5 -14 0 -19 -2 -12 -5z"/>
<path d="M728 883 c7 -3 16 -2 19 1 4 3 -2 6 -13 5 -11 0 -14 -3 -6 -6z"/>
<path d="M320 596 c0 -2 11 -6 25 -8 14 -3 25 -1 25 3 0 5 -11 9 -25 9 -14 0
-25 -2 -25 -4z"/>
<path d="M308 573 c7 -3 16 -2 19 1 4 3 -2 6 -13 5 -11 0 -14 -3 -6 -6z"/>
<path d="M1141 494 c0 -11 3 -14 6 -6 3 7 2 16 -1 19 -3 4 -6 -2 -5 -13z"/>
<path d="M1211 464 c0 -11 3 -14 6 -6 3 7 2 16 -1 19 -3 4 -6 -2 -5 -13z"/>
<path d="M1480 510 c0 -5 7 -10 15 -10 8 0 15 5 15 10 0 6 -7 10 -15 10 -8 0
-15 -4 -15 -10z"/>
<path d="M1698 514 c-5 -4 -8 -23 -8 -43 0 -25 3 -32 11 -24 6 6 9 25 7 43 -2
17 -6 28 -10 24z"/>
<path d="M1654 485 c3 -10 -1 -15 -11 -15 -19 0 -9 -13 12 -16 10 -1 15 6 15
22 0 13 -5 24 -11 24 -6 0 -9 -7 -5 -15z"/>
<path d="M1915 351 c-13 -5 0 -8 37 -7 31 0 52 4 45 8 -15 10 -56 9 -82 -1z"/>
<path d="M204 241 c-5 -3 -9 -36 -9 -73 -1 -64 1 -68 22 -68 19 0 23 5 23 33
l1 32 28 -31 c30 -33 66 -51 74 -37 3 5 -12 26 -34 47 -43 44 -41 58 16 82
l30 13 -31 1 c-19 0 -34 -6 -37 -14 -3 -8 -16 -20 -28 -26 -20 -11 -21 -10
-17 13 4 18 0 27 -12 30 -10 3 -22 2 -26 -2z"/>
<path d="M384 224 c3 -9 6 -40 6 -70 0 -45 3 -54 18 -54 14 0 17 10 17 70 1
67 0 70 -23 70 -18 0 -23 -4 -18 -16z"/>
<path d="M465 165 c0 -70 2 -76 20 -73 17 3 19 9 17 41 -2 20 -1 37 2 37 3 0
21 -16 39 -37 46 -49 67 -41 67 26 0 27 3 56 6 65 5 13 -1 16 -27 16 -28 -1
-31 -3 -19 -13 17 -14 25 -77 10 -77 -6 0 -25 20 -42 45 -20 28 -39 45 -52 45
-19 0 -21 -6 -21 -75z"/>
<path d="M662 220 c-28 -26 -29 -73 -2 -100 25 -25 95 -28 104 -4 13 35 7 44
-31 43 -33 0 -35 -1 -15 -9 26 -11 29 -30 4 -30 -27 0 -42 20 -42 56 0 32 13
44 50 44 10 0 22 5 25 10 12 20 -70 11 -93 -10z"/>
<path d="M1448 178 c4 -47 1 -59 -12 -64 -28 -11 -46 15 -46 67 0 46 -1 49
-27 49 -24 0 -25 -1 -10 -17 9 -11 13 -28 10 -43 -7 -36 32 -83 60 -74 12 4
35 7 50 6 24 -1 26 2 16 14 -7 9 -10 33 -7 63 4 44 3 50 -17 53 -20 4 -21 1
-17 -54z"/>
<path d="M1547 233 c-16 -4 -17 -13 -12 -64 3 -36 1 -59 -5 -59 -6 0 -10 -4
-10 -10 0 -5 11 -10 24 -10 20 0 24 5 22 31 -1 27 3 32 34 42 37 13 49 39 30
62 -12 15 -46 18 -83 8z m53 -27 c0 -17 -24 -38 -33 -29 -15 15 -6 43 13 43
11 0 20 -6 20 -14z"/>
<path d="M1202 214 c-15 -10 -22 -25 -22 -49 0 -46 22 -65 73 -64 l42 0 -34
12 c-45 16 -58 38 -43 71 15 33 52 36 52 4 l0 -22 23 22 c19 19 20 24 7 32
-23 15 -73 12 -98 -6z"/>
<path d="M1677 223 c-11 -10 -8 -41 4 -49 7 -4 21 -7 32 -8 26 -1 46 -31 30
-47 -9 -9 -20 -9 -43 0 -33 11 -50 8 -50 -10 0 -11 100 -12 118 0 8 5 12 21
10 37 -3 26 -7 29 -40 32 -30 3 -38 7 -38 23 0 20 24 26 35 9 9 -15 25 -12 25
5 0 11 -11 15 -38 15 -21 0 -42 -3 -45 -7z"/>
<path d="M936 204 c-3 -8 6 -35 20 -59 24 -43 26 -85 3 -85 -5 0 -9 -6 -9 -12
0 -7 12 0 26 16 20 22 24 36 20 58 -4 20 -2 28 9 28 9 0 12 6 8 16 -3 9 -13
14 -24 11 -10 -3 -23 1 -30 9 -10 13 -6 18 14 15 4 0 7 4 7 9 0 16 -37 11 -44
-6z"/>
<path d="M892 158 c-7 -7 -12 -22 -12 -35 0 -17 6 -23 23 -23 22 0 47 16 47
31 0 10 -29 39 -39 39 -4 0 -12 -5 -19 -12z m36 -27 c3 -8 -1 -12 -9 -9 -7 2
-15 10 -17 17 -3 8 1 12 9 9 7 -2 15 -10 17 -17z"/>
<path d="M1852 128 c-7 -7 -12 -16 -12 -20 0 -12 28 -10 36 3 10 17 -10 31
-24 17z"/>
<path d="M1658 3853 c17 -2 47 -2 65 0 17 2 3 4 -33 4 -36 0 -50 -2 -32 -4z"/>
<path d="M1896 1682 c-16 -26 -34 -92 -26 -92 6 0 10 8 10 18 0 10 6 26 13 36
13 17 15 15 30 -23 l17 -41 20 20 c23 23 27 38 5 20 -11 -9 -15 -9 -15 -1 0 7
-5 17 -10 24 -6 7 -17 21 -24 31 -8 12 -15 15 -20 8z"/>
<path d="M1817 1638 c-6 -22 -5 -22 8 -4 8 10 19 15 26 10 8 -4 10 -3 5 4 -12
20 -33 14 -39 -10z"/>
<path d="M1950 1650 c0 -5 7 -10 15 -10 8 0 15 5 15 10 0 6 -7 10 -15 10 -8 0
-15 -4 -15 -10z"/>
<path d="M1830 1609 c0 -5 5 -7 10 -4 6 3 10 8 10 11 0 2 -4 4 -10 4 -5 0 -10
-5 -10 -11z"/>
<path d="M1890 1610 c0 -5 5 -10 10 -10 6 0 10 5 10 10 0 6 -4 10 -10 10 -5 0
-10 -4 -10 -10z"/>
<path d="M152 1339 c2 -6 8 -10 13 -10 5 0 11 4 13 10 2 6 -4 11 -13 11 -9 0
-15 -5 -13 -11z"/>
</g>
</svg>
