<?xml version="1.0" standalone="no"?>
<!DOCTYPE svg PUBLIC "-//W3C//DTD SVG 20010904//EN"
 "http://www.w3.org/TR/2001/REC-SVG-20010904/DTD/svg10.dtd">
<svg version="1.0" xmlns="http://www.w3.org/2000/svg"
 width="223.000000pt" height="387.000000pt" viewBox="0 0 223.000000 387.000000"
 preserveAspectRatio="xMidYMid meet">
<metadata>
Created by potrace 1.16, written by Peter Selinger 2001-2019
</metadata>
<g transform="translate(0.000000,387.000000) scale(0.100000,-0.100000)"
fill="#000000" stroke="none">
<path d="M15 3851 c-6 -11 1 -3831 8 -3837 6 -6 709 -5 715 1 3 3 -141 6 -319
7 -178 1 -337 2 -354 2 l-30 1 -2 132 -2 133 577 2 c317 0 602 2 632 4 30 1
258 4 505 5 248 1 433 4 412 6 -29 3 -37 8 -33 19 3 8 1 12 -4 9 -5 -3 -12 17
-16 45 -6 44 -15 59 -64 113 -32 34 -81 96 -109 139 -48 72 -103 130 -133 141
-21 8 22 44 62 52 27 5 32 4 20 -5 -12 -9 -11 -10 6 -5 42 11 194 -142 194
-195 0 -11 10 -16 33 -15 17 0 35 -4 38 -9 4 -5 14 5 23 23 24 45 36 29 35
-44 -1 -36 -5 -63 -9 -60 -4 2 -3 -19 1 -48 5 -29 6 -93 3 -142 l-7 -90 -63 3
c-50 3 -64 0 -64 -11 0 -8 10 -13 23 -13 21 1 22 -3 22 -72 0 -57 3 -72 15
-72 19 0 51 20 33 20 -9 0 -13 20 -13 66 0 62 1 65 23 62 21 -3 22 -7 22 -98
l0 -95 -270 3 c-293 4 -1179 -7 -1171 -15 2 -3 161 -4 353 -3 191 1 519 2 728
3 l380 2 7 50 c5 28 6 257 3 510 -7 601 -8 2517 -1 2943 4 182 3 332 -2 332
-4 0 -391 1 -860 3 -468 1 -852 -1 -852 -5 0 -5 34 -8 75 -8 46 0 75 -4 75
-11 0 -5 -4 -8 -9 -5 -4 3 -11 -29 -15 -71 -3 -42 -10 -79 -15 -83 -5 -3 -11
-26 -14 -50 l-4 -45 -1 53 c-1 31 -7 52 -13 52 -8 0 -10 19 -6 65 4 36 3 65
-2 65 -9 0 -21 -98 -21 -178 0 -30 -3 -52 -7 -48 -4 4 -7 42 -6 84 2 87 -3 80
-16 -23 -8 -70 -8 -70 -10 -17 -1 66 -21 69 -21 2 0 -33 -4 -50 -13 -50 -8 0
-11 14 -10 43 7 128 8 197 1 197 -5 0 -8 -21 -8 -47 0 -60 -9 -51 -11 11 -1
25 -6 43 -10 39 -10 -10 -14 -221 -5 -230 3 -4 6 19 6 51 0 31 4 55 8 52 7 -4
8 -17 4 -88 -3 -39 -29 -36 -41 5 -9 31 -9 31 -10 5 -1 -16 -6 -28 -12 -28 -8
0 -10 31 -5 109 5 74 4 111 -3 116 -8 4 -11 -31 -11 -114 0 -74 -4 -121 -10
-121 -5 0 -11 21 -12 48 l-1 47 -4 -42 c-8 -87 -18 -39 -18 87 0 124 7 160 21
105 3 -14 4 -32 0 -40 -3 -8 -1 -25 4 -37 7 -18 9 -10 9 35 1 42 5 59 16 64 9
3 18 3 21 0 4 -3 6 -47 5 -96 -2 -125 17 -116 21 9 l3 100 -80 -1 c-44 0 -73
-3 -65 -6 27 -10 30 -26 28 -148 -1 -108 -2 -113 -8 -50 -8 82 -11 82 -14 2
-4 -77 -16 -85 -18 -11 l-1 59 -6 -59 c-3 -33 -10 -61 -16 -63 -6 -2 -10 42
-9 119 l1 123 -6 -117 c-3 -64 -9 -120 -13 -124 -5 -4 -9 49 -10 117 l-2 124
-3 -117 c-5 -162 -23 -152 -22 12 1 117 2 130 17 126 10 -3 24 -1 32 4 10 7
-23 10 -102 10 -64 0 -119 -4 -123 -9z m47 -108 c2 -104 2 -105 5 -23 3 94 10
133 21 126 4 -2 6 -64 4 -138 -3 -120 -5 -131 -17 -108 -14 25 -14 25 -15 3 0
-27 -6 -29 -26 -9 -9 10 -11 17 -4 21 12 8 10 124 -2 131 -5 3 -8 12 -8 20 0
8 5 12 10 9 6 -4 10 10 10 34 0 23 5 41 10 41 6 0 11 -44 12 -107z m47 -157
c-9 -8 -10 10 -5 74 3 47 7 110 8 140 1 30 4 -3 5 -74 3 -88 0 -133 -8 -140z
m49 42 c4 -4 6 42 4 102 -3 61 0 110 4 110 5 0 9 -57 9 -128 0 -120 -1 -127
-20 -127 -18 0 -20 8 -23 90 -2 50 0 110 5 135 7 38 8 27 11 -65 1 -60 6 -113
10 -117z m1405 165 c8 -70 0 -207 -13 -211 -5 -2 -9 -16 -9 -30 2 -24 2 -24 6
-4 l4 22 324 0 c184 0 326 -4 329 -9 8 -13 -4 -42 -15 -35 -5 3 -9 -3 -9 -12
0 -16 -1 -16 -15 2 -13 17 -14 17 -15 2 0 -10 -4 -18 -10 -18 -5 0 -11 8 -11
18 -1 16 -2 16 -6 0 -5 -22 -43 -24 -43 -3 0 22 -40 19 -41 -2 -1 -17 -2 -17
-6 0 -5 21 -23 23 -23 2 0 -8 -5 -15 -11 -15 -6 0 -9 7 -5 15 3 8 1 15 -4 15
-6 0 -10 -7 -10 -15 0 -11 -11 -15 -40 -15 -29 0 -40 4 -40 15 0 21 -20 19
-20 -2 -1 -16 -2 -16 -15 1 -13 17 -15 18 -15 3 0 -9 -5 -17 -11 -17 -5 0 -8
4 -4 9 3 5 1 12 -5 16 -5 3 -10 -1 -10 -9 0 -22 -20 -20 -21 2 -1 16 -2 16 -6
0 -5 -21 -19 -23 -27 -5 -5 10 -7 10 -12 0 -8 -19 -24 -16 -25 5 -1 15 -2 14
-6 -2 -4 -15 -7 -16 -14 -5 -8 12 -11 12 -19 -1 -8 -13 -10 -12 -10 3 0 9 -4
17 -10 17 -5 0 -10 -8 -10 -17 -1 -17 -2 -17 -14 0 -14 18 -14 18 -19 0 -4
-15 -6 -14 -13 7 l-8 25 -7 -25 c-7 -24 -7 -24 -8 -2 -1 12 -5 22 -10 22 -5 0
-7 -10 -3 -22 5 -20 3 -21 -10 -11 -13 11 -15 8 -16 -20 -1 -26 1 -29 9 -14 8
14 24 17 89 17 l80 0 0 -27 c0 -34 23 -121 40 -152 17 -32 56 -67 105 -93 52
-28 146 -30 193 -5 47 26 110 93 117 127 9 43 30 52 22 10 -4 -18 -7 -39 -7
-46 0 -20 -68 -92 -103 -111 -16 -8 -57 -21 -91 -29 l-61 -14 54 6 c72 7 118
27 164 72 l37 36 0 -47 c0 -31 -4 -47 -12 -47 -8 0 -9 -3 -3 -8 6 -4 11 -15
12 -26 1 -17 -5 -18 -60 -13 -37 3 -54 1 -42 -3 11 -5 40 -9 65 -9 26 -1 40
-5 35 -10 -13 -11 -95 -19 -95 -9 0 5 -13 8 -30 8 -16 0 -30 -4 -30 -10 0 -5
-22 -10 -50 -10 -27 0 -50 5 -50 10 0 6 -12 10 -27 9 l-28 -1 25 -8 c29 -9 25
-11 -55 -15 -33 -1 -50 -1 -37 2 32 6 27 23 -8 23 -19 0 -30 -5 -30 -14 0 -18
22 -26 68 -26 44 0 68 -13 57 -30 -5 -9 -4 -11 4 -6 7 5 9 16 5 28 -6 21 -5
21 114 15 143 -8 172 -17 172 -52 0 -15 -6 -25 -14 -25 -8 0 -17 -6 -19 -12
-4 -9 -6 -8 -6 2 -1 20 -61 27 -61 8 0 -9 -3 -8 -10 2 -8 13 -10 13 -10 1 0
-11 -4 -9 -15 5 -14 19 -14 19 -15 -1 l-1 -20 -9 20 c-5 11 -9 14 -9 6 -1 -7
-7 -11 -15 -8 -7 3 -19 0 -25 -6 -8 -8 -11 -6 -11 6 0 13 -4 16 -16 9 -8 -5
-39 -7 -67 -6 -41 2 -45 1 -18 -4 19 -4 36 -13 39 -20 4 -13 -41 -11 -119 4
-31 6 -37 -5 -46 -87 -4 -41 -12 -64 -26 -76 -20 -18 -20 -17 -13 22 25 150
25 149 -59 160 -59 9 -72 14 -54 26 11 7 10 9 -3 9 -10 0 -18 -7 -18 -15 0 -8
-4 -15 -9 -15 -16 0 -80 79 -86 105 -3 14 -7 36 -10 50 -8 38 -115 109 -115
76 0 -5 9 -11 20 -14 11 -3 20 -11 20 -17 0 -7 -7 -10 -15 -6 -8 3 -15 1 -15
-4 0 -6 17 -10 38 -10 30 -1 34 -2 19 -11 -10 -6 -32 -7 -49 -4 -23 5 -29 4
-26 -6 3 -9 21 -13 54 -12 l49 1 -53 -8 c-66 -10 -71 -15 -35 -32 18 -8 29
-22 31 -38 6 -57 12 -69 30 -64 15 5 15 4 1 -8 -18 -15 -31 -69 -21 -86 5 -6
42 -12 92 -14 l85 -3 3 -135 c2 -89 -1 -131 -7 -125 -6 6 -12 60 -13 120 l-3
110 -65 3 c-111 4 -106 -1 -113 98 -3 48 -10 91 -14 95 -5 5 -7 -22 -5 -60 4
-66 3 -70 -19 -74 -22 -4 -22 -4 4 -6 28 -1 35 -19 16 -38 -12 -12 16 -18 126
-27 65 -6 62 -5 45 -16 -13 -8 -12 -10 3 -10 29 0 14 -24 -19 -31 l-29 -7 33
-1 c53 -2 36 -21 -20 -23 l-53 -1 45 -4 c65 -6 75 -23 15 -25 -48 -1 -48 -2
-10 -5 22 -3 44 -9 50 -14 15 -15 -78 -10 -98 6 -11 7 -38 17 -60 21 -38 7
-40 8 -17 15 24 7 23 7 -6 8 -30 1 -32 4 -38 46 -4 25 -5 49 -1 54 3 5 0 13
-7 17 -9 6 -5 10 12 15 22 6 23 7 3 8 -17 1 -23 11 -33 52 -10 40 -10 53 -1
59 13 8 41 57 41 71 0 5 -4 9 -10 9 -5 0 -9 -3 -8 -7 4 -17 -14 -53 -23 -47
-6 3 -21 -4 -35 -17 -13 -12 -24 -17 -24 -11 0 22 -81 72 -116 72 -40 0 -113
-31 -137 -58 -15 -17 -16 -24 -7 -42 17 -32 18 -144 1 -164 -25 -30 -36 -2
-21 57 7 30 10 70 6 88 -3 19 -7 39 -8 46 -1 7 -7 14 -15 17 -20 8 -16 28 5
22 12 -4 26 1 37 14 17 19 17 21 2 38 -17 19 -23 53 -11 65 4 3 17 -1 30 -10
20 -13 22 -18 12 -30 -13 -17 3 -33 35 -33 25 0 46 48 26 61 -12 8 -11 11 4
23 9 7 17 18 17 25 0 6 5 11 10 11 6 0 10 -7 10 -15 0 -8 5 -15 10 -15 17 0
11 -28 -7 -39 -16 -9 -16 -12 -3 -25 8 -9 29 -18 46 -22 24 -4 33 -2 38 11 3
10 2 23 -4 30 -12 14 -3 26 15 19 7 -3 16 -1 20 5 13 22 25 10 25 -24 0 -28
-4 -35 -20 -35 -23 0 -26 -22 -5 -40 18 -15 45 -6 45 16 0 10 5 14 16 10 8 -3
12 -2 9 4 -3 6 -13 10 -21 10 -8 0 -13 3 -13 8 7 41 -3 62 -36 78 -43 20 -52
32 -30 40 13 6 14 8 3 15 -7 5 -17 9 -23 9 -5 0 -3 -4 5 -10 11 -7 8 -11 -15
-20 l-30 -12 38 -13 c50 -17 53 -21 22 -29 -26 -7 -34 -29 -14 -42 17 -10 -4
-24 -29 -18 -24 7 -30 30 -10 36 23 8 -22 78 -49 78 -13 0 -23 -6 -23 -13 0
-15 -65 -41 -79 -33 -5 4 -16 3 -25 0 -19 -7 -22 -64 -4 -82 8 -8 8 -15 -2
-26 -17 -22 -31 -10 -24 20 3 13 2 24 -4 24 -5 0 -9 -8 -8 -17 0 -10 -7 -19
-18 -21 -13 -3 -16 0 -11 9 6 8 4 10 -4 4 -7 -4 -11 -16 -8 -26 3 -12 0 -19
-8 -19 -8 0 -16 8 -18 18 -3 9 -5 -28 -6 -84 -1 -135 -4 -139 -109 -131 -56 4
-83 3 -88 -5 -4 -6 -10 -50 -13 -96 -4 -55 -10 -87 -18 -90 -10 -3 -13 23 -13
107 l0 110 43 5 c23 4 69 7 102 9 l60 2 3 89 c2 57 8 96 17 110 23 32 18 46
-14 46 -36 0 -50 -17 -19 -23 20 -4 19 -4 -4 -6 -22 -1 -28 4 -28 19 0 17 7
20 53 22 l52 2 -47 3 c-58 5 -64 23 -7 23 30 0 38 3 32 13 -4 6 -6 19 -5 29 6
32 -19 29 -53 -6 -22 -24 -37 -52 -44 -86 -15 -68 -34 -95 -98 -136 l-53 -34
-2 -82 c-2 -46 -1 -116 0 -156 3 -61 1 -73 -14 -79 -12 -4 -22 1 -33 17 -9 14
-33 44 -54 68 -36 42 -38 48 -36 106 2 49 11 79 46 153 24 50 50 94 58 97 8 3
36 49 62 103 44 92 47 104 50 188 1 50 -1 86 -5 80 -4 -5 -36 -10 -71 -10 -73
0 -68 5 -102 -103 -41 -130 -128 -195 -262 -195 -65 0 -165 49 -202 97 -23 30
-25 41 -25 142 0 64 4 103 9 96 5 -8 9 -37 9 -65 1 -74 40 -142 111 -192 36
-24 43 -26 58 -14 15 12 16 12 10 -5 -7 -17 -3 -18 53 -12 130 15 184 66 234
218 l23 73 82 3 81 3 0 39 c0 21 -4 42 -10 45 -6 4 -10 60 -10 136 l0 129 439
0 438 0 6 -47z m208 -18 l5 -60 5 60 c4 46 6 33 7 -52 2 -119 -8 -176 -19
-113 l-6 35 -2 -32 c-1 -26 -5 -33 -21 -33 -11 0 -24 8 -27 17 -6 15 -7 15
-14 -3 -5 -13 -8 -3 -9 31 0 41 -3 47 -11 32 -6 -11 -9 -30 -6 -43 2 -14 0
-27 -4 -30 -5 -3 -10 37 -11 88 l-2 93 -5 -89 c-4 -59 -10 -91 -19 -94 -9 -3
-11 19 -8 100 l5 103 -9 -80 c-15 -127 -19 -129 -14 -5 3 76 1 111 -5 105 -6
-6 -12 -57 -14 -115 l-3 -105 -2 128 -2 128 93 -3 92 -3 6 -60z m142 -65 l-1
-125 10 128 c10 124 11 127 34 127 24 0 24 -2 24 -92 0 -104 -9 -170 -20 -163
-5 3 -6 58 -3 123 3 84 2 113 -6 102 -6 -8 -11 -63 -11 -122 l0 -108 -35 0
-35 0 -2 98 -2 97 -6 -95 c-7 -115 -11 -109 -20 40 l-7 115 -1 -90 c-1 -55 -7
-96 -14 -103 -9 -9 -9 -12 0 -12 7 0 12 -11 12 -25 0 -16 -6 -25 -15 -25 -13
0 -15 20 -15 123 0 68 3 127 7 131 4 4 30 6 57 4 l50 -3 -1 -125z m129 49 c-3
-59 -1 -80 7 -75 6 4 11 38 11 82 l0 75 43 -3 c23 -2 42 -8 42 -15 0 -6 3 -15
8 -19 4 -4 7 4 7 17 1 18 3 20 9 9 5 -8 8 -67 7 -130 -1 -111 -2 -115 -23
-118 -25 -4 -27 7 -23 156 1 35 -3 62 -8 62 -6 0 -8 -40 -6 -104 5 -105 -3
-133 -29 -107 -9 9 -8 14 3 21 13 9 13 11 0 20 -12 8 -16 4 -18 -20 -4 -35
-21 -40 -23 -7 l-2 22 -4 -22 c-6 -32 -23 -29 -24 5 l-2 27 -4 -27 c-2 -16
-10 -28 -16 -28 -9 0 -10 27 -6 102 4 57 7 115 8 131 1 21 6 27 24 27 23 0 23
-2 19 -81z m155 -131 c-2 -29 -3 -6 -3 52 0 58 1 81 3 53 2 -29 2 -77 0 -105z
m-1540 55 c-2 -16 -4 -5 -4 22 0 28 2 40 4 28 2 -13 2 -35 0 -50z m-80 -45
c-3 -7 -5 -2 -5 12 0 14 2 19 5 13 2 -7 2 -19 0 -25z m63 -43 c0 -8 -4 -15
-10 -15 -5 0 -7 7 -4 15 4 8 8 15 10 15 2 0 4 -7 4 -15z m48 -58 c4 -32 -21
-46 -49 -29 -13 9 -19 8 -22 -1 -3 -7 -6 -4 -6 6 -1 9 -5 17 -11 17 -5 0 -10
-8 -10 -17 0 -15 -2 -16 -10 -3 -8 13 -11 13 -19 1 -7 -11 -11 -10 -20 5 -9
17 -10 17 -11 2 0 -10 -4 -18 -10 -18 -5 0 -14 8 -19 18 -10 16 -10 16 -11 0
0 -21 -11 -23 -28 -6 -9 9 -12 9 -12 0 0 -19 -20 -14 -21 6 -1 16 -2 16 -6 0
-2 -10 -9 -18 -14 -18 -5 0 -10 8 -10 18 -1 16 -2 16 -6 0 -5 -19 -23 -25 -23
-8 0 6 -5 10 -11 10 -5 0 -7 -4 -4 -10 3 -5 2 -10 -4 -10 -5 0 -12 6 -15 13
-5 9 -7 9 -12 -1 -5 -10 -9 -10 -20 -1 -11 9 -14 8 -14 -2 0 -9 -5 -6 -12 6
-11 19 -11 19 -19 0 -7 -19 -8 -18 -8 3 -1 27 -21 30 -21 2 0 -25 -16 -26 -29
-2 -10 16 -10 16 -11 0 0 -10 -4 -18 -10 -18 -5 0 -10 7 -10 15 0 8 -5 15 -11
15 -6 0 -9 -7 -5 -15 3 -8 1 -15 -4 -15 -6 0 -10 7 -10 15 0 21 -20 19 -20 -2
-1 -17 -1 -17 -14 0 -14 17 -32 24 -21 8 3 -5 1 -12 -5 -16 -5 -3 -10 1 -10 9
0 22 -20 20 -21 -1 0 -15 -2 -15 -9 2 -5 11 -9 28 -9 38 -1 16 19 17 327 15
l327 -3 3 -28z m-601 -53 c-3 -3 -12 -4 -19 -1 -8 3 -5 6 6 6 11 1 17 -2 13
-5z m205 -6 c-15 -15 -16 -55 -1 -64 8 -4 7 -9 -2 -16 -11 -8 -10 -9 4 -4 18
6 25 -18 8 -29 -6 -3 -9 -23 -8 -45 1 -22 -4 -45 -11 -52 -15 -15 -21 -8 -25
28 -2 16 -9 39 -16 52 -9 17 -9 22 1 22 9 0 9 3 -2 10 -12 8 -12 10 5 10 17 0
17 2 5 10 -8 5 -10 10 -4 10 7 0 11 16 10 40 -1 36 1 40 24 40 19 0 21 -3 12
-12z m118 8 c0 -11 -19 -15 -25 -6 -3 5 1 10 9 10 9 0 16 -2 16 -4z m100 -6
c0 -5 -4 -10 -10 -10 -5 0 -10 5 -10 10 0 6 5 10 10 10 6 0 10 -4 10 -10z
m1350 6 c0 -3 -4 -8 -10 -11 -5 -3 -10 -1 -10 4 0 6 5 11 10 11 6 0 10 -2 10
-4z m141 -5 c-9 -6 -11 -16 -7 -27 6 -16 8 -16 19 6 18 37 52 37 86 1 29 -31
51 -40 51 -20 0 5 -4 8 -9 4 -14 -8 -21 8 -12 24 14 21 51 4 51 -24 0 -13 -5
-27 -10 -30 -6 -4 -8 -16 -4 -27 5 -18 3 -20 -20 -14 -19 5 -26 3 -26 -9 0 -8
-6 -15 -14 -15 -8 0 -17 -6 -19 -12 -3 -7 -3 9 0 35 7 58 -11 99 -41 95 -27
-4 -32 -34 -11 -58 20 -22 15 -88 -10 -123 -8 -12 -15 -29 -15 -37 0 -9 -5
-21 -12 -28 -14 -14 -38 2 -38 27 0 9 -9 24 -19 33 -11 9 -25 35 -32 56 -10
33 -9 45 5 72 21 44 20 50 -8 50 -36 0 -59 -27 -53 -64 10 -64 26 -111 41
-122 23 -16 19 -26 -6 -18 -30 8 -59 34 -52 45 3 5 0 9 -6 9 -6 0 -9 3 -6 8 2
4 -2 16 -10 27 -8 10 -14 13 -14 6 0 -26 -25 -3 -27 25 -1 16 -4 41 -8 56 -5
20 -3 29 13 37 38 20 65 -5 41 -39 -8 -11 -12 -12 -16 -2 -6 14 -23 16 -23 2
0 -5 12 -13 27 -16 25 -7 25 -8 8 -15 -18 -7 -18 -8 3 -8 13 -1 22 4 21 12 -5
40 27 77 69 77 51 0 60 -30 23 -73 -12 -15 -13 -22 -3 -37 7 -11 12 -28 12
-38 0 -11 9 -27 21 -38 25 -22 52 -10 57 27 2 13 8 28 13 34 15 15 10 41 -11
60 -21 19 -24 13 -11 -20 5 -13 2 -26 -11 -39 -21 -23 -23 -36 -6 -36 9 0 9
-3 1 -11 -20 -20 -36 1 -30 42 3 26 1 39 -6 39 -8 0 -8 3 -2 8 15 11 18 61 5
78 -11 12 -7 14 21 14 24 0 30 -3 20 -9z m-1857 -43 c-3 -5 -15 -6 -26 -2 -14
4 -18 2 -14 -5 13 -20 46 -12 58 14 13 28 38 39 68 30 27 -9 25 -24 -7 -57
-23 -25 -26 -32 -15 -48 15 -24 15 -30 2 -30 -5 0 -14 9 -20 20 -9 17 -7 28 9
54 26 41 26 46 4 46 -10 0 -26 -12 -37 -26 -23 -33 -16 -115 14 -156 24 -33
25 -38 5 -38 -18 0 -65 43 -65 60 0 5 7 10 16 10 8 0 12 5 8 11 -3 6 -14 9
-24 6 -30 -8 -45 8 -33 35 8 18 7 30 -3 49 -18 33 -18 36 14 53 24 13 28 13
39 -1 7 -9 10 -20 7 -25z m232 31 c3 -6 14 -9 23 -6 12 3 16 -3 16 -22 0 -19
5 -26 20 -26 11 0 21 8 23 18 2 9 -1 17 -7 17 -6 0 -11 -8 -11 -17 0 -13 -3
-14 -12 -5 -8 8 -8 15 2 27 25 31 70 11 70 -31 0 -21 -25 -41 -32 -26 -2 4
-16 5 -33 1 l-30 -7 32 -1 c28 -1 60 -21 34 -21 -6 0 -11 -10 -11 -22 -1 -22
-1 -22 -15 -4 -20 26 -35 11 -28 -29 6 -37 -16 -75 -43 -75 -20 0 5 50 25 51
10 0 8 3 -6 9 -27 11 -27 9 -9 51 19 45 10 88 -21 102 -34 15 -53 -5 -29 -32
21 -23 15 -71 -9 -71 -13 0 -13 3 -3 20 10 16 9 23 -10 43 -25 27 -27 38 -10
55 15 15 65 16 74 1z m283 -36 c23 -6 23 -7 5 -14 -19 -7 -19 -8 1 -10 11 -1
-2 -5 -30 -9 l-50 -7 48 -1 c43 -2 47 -4 47 -27 0 -24 -3 -25 -57 -27 -53 -1
-54 -2 -13 -5 76 -6 79 -17 5 -23 l-70 -6 63 -2 c67 -2 72 -8 50 -57 -6 -14
-18 -25 -27 -25 -14 0 -14 -2 -1 -11 11 -8 5 -9 -23 -4 -21 3 -59 3 -85 -1
-40 -6 -43 -9 -22 -14 14 -4 31 -2 38 3 21 17 3 -44 -20 -68 -19 -20 -19 -20
-9 8 14 37 15 34 -16 40 -24 4 -26 4 -10 -8 21 -15 21 -21 0 -29 -10 -3 -29
-13 -43 -21 -19 -11 -21 -15 -7 -15 19 0 22 -17 7 -40 -8 -12 -10 -11 -10 6 0
17 -5 20 -26 16 -20 -3 -23 -7 -12 -14 9 -7 3 -8 -17 -4 -53 10 -254 16 -210
7 22 -5 44 -7 48 -4 7 4 176 -16 185 -22 1 -1 -4 -16 -11 -34 -7 -17 -17 -28
-21 -24 -4 4 -11 1 -16 -7 -8 -13 -10 -13 -10 1 0 9 -7 16 -15 16 -8 0 -15 -5
-15 -10 0 -5 -7 -4 -15 3 -12 10 -15 10 -16 -1 0 -10 -2 -11 -6 -1 -2 6 -13
12 -24 12 -10 0 -19 -6 -20 -12 0 -7 -4 -4 -9 7 -7 17 -9 17 -9 3 -1 -10 -5
-18 -10 -18 -5 0 -12 8 -14 18 -4 13 -5 11 -6 -5 -1 -28 -21 -31 -21 -3 0 28
-20 25 -21 -2 l-2 -23 -4 23 c-5 24 -5 24 -27 16 -9 -3 -16 -12 -16 -20 0 -8
-4 -14 -10 -14 -5 0 -7 7 -4 15 4 8 1 15 -5 15 -12 0 -15 -36 -3 -43 4 -2 35
-1 69 2 78 8 83 6 84 -32 l1 -32 13 35 13 35 3 -45 2 -45 7 45 c4 27 8 -33 8
-149 1 -107 5 -192 8 -188 3 3 6 73 6 154 0 81 3 166 8 188 6 31 8 14 9 -72 1
-68 5 -113 11 -113 6 0 10 -9 10 -19 0 -11 -4 -23 -10 -26 -6 -3 -10 -17 -10
-31 0 -17 4 -23 12 -18 8 5 9 0 3 -17 -4 -13 -9 -96 -10 -184 -1 -88 1 -142 4
-120 13 85 22 7 27 -222 3 -131 8 -240 11 -243 3 -3 3 79 1 183 -2 103 0 187
4 187 11 0 20 -38 13 -59 -3 -10 -1 -29 4 -42 10 -24 10 -24 10 4 1 16 5 26
11 22 6 -4 8 -32 5 -71 -3 -42 -2 -64 5 -64 6 0 9 4 5 9 -3 5 -1 12 5 16 6 4
10 -7 11 -27 0 -18 3 -27 6 -20 9 23 23 1 23 -38 0 -21 6 -41 13 -43 9 -4 9
-8 1 -14 -14 -10 -25 -246 -12 -265 4 -7 8 22 8 66 0 44 2 77 4 75 2 -2 6
-138 10 -301 5 -205 4 -298 -4 -298 -5 0 -11 12 -11 28 -1 22 -3 23 -6 5 l-4
-21 -42 24 c-29 16 -58 24 -92 24 -47 0 -54 -3 -92 -42 -52 -54 -63 -77 -63
-127 0 -42 34 -107 60 -114 15 -4 4 -10 -38 -23 -10 -3 -9 -10 5 -29 26 -36
73 -41 176 -21 91 19 117 17 117 -9 0 -11 -11 -15 -39 -15 -22 0 -43 -4 -46
-10 -3 -5 -17 -10 -31 -10 -14 0 -36 -12 -50 -27 -17 -18 -24 -22 -20 -11 3
10 1 18 -4 18 -6 0 -10 -5 -10 -11 0 -6 -6 -9 -14 -6 -10 4 -12 0 -9 -14 3
-10 9 -19 14 -19 5 0 9 -8 9 -17 0 -15 -2 -15 -9 -4 -7 11 -16 8 -42 -17 -24
-22 -36 -28 -41 -19 -15 24 -7 45 25 66 26 17 28 21 12 21 -34 0 32 30 69 31
30 0 30 1 7 10 -13 5 -32 7 -43 3 -26 -8 -109 42 -102 61 10 25 -48 18 -90
-10 l-36 -24 0 52 c0 37 3 48 10 37 14 -22 13 19 -2 92 -10 46 -10 63 0 78 8
13 12 58 11 122 -1 67 -4 94 -9 78 -5 -17 -8 1 -8 55 1 60 2 71 8 45 l7 -35 2
43 c0 23 -3 42 -9 42 -5 0 -10 14 -10 30 0 17 5 30 10 30 6 0 10 9 10 20 0 11
-4 20 -10 20 -5 0 -10 11 -10 25 0 14 5 25 10 25 7 0 8 18 5 48 -6 42 -12 241
-16 515 -1 54 1 100 5 104 10 11 7 91 -5 99 -7 4 -8 21 -4 48 4 22 8 100 8
171 1 72 3 120 5 108 6 -43 22 -23 22 27 0 47 -12 66 -23 38 -3 -7 -5 5 -5 27
0 22 2 34 5 28 12 -31 23 -8 21 45 -1 39 -2 46 -5 22 -7 -54 -20 -57 -24 -6
-3 37 -1 46 12 46 12 0 14 7 11 31 -3 22 -7 27 -13 18 -6 -10 -9 -4 -9 18 0
29 3 32 43 41 l42 9 -45 8 -45 9 45 7 45 6 -45 3 -45 3 35 7 35 7 -31 2 c-27
1 -31 5 -31 26 0 14 5 25 11 25 6 0 4 5 -4 10 -13 9 -13 10 0 10 12 0 13 2 1
9 -7 5 -10 14 -6 21 5 8 13 6 29 -9 30 -28 146 -81 178 -81 38 0 128 20 158
35 14 7 44 32 67 55 38 39 69 104 99 208 4 13 53 16 93 5z m-319 -121 c0 -16
-9 -37 -20 -47 -11 -10 -22 -26 -25 -36 -8 -24 -43 -25 -52 -1 -4 9 -15 29
-26 44 -11 14 -17 32 -15 39 3 9 14 0 29 -23 13 -21 28 -38 33 -38 19 0 56 44
56 67 0 13 5 23 10 23 6 0 10 -13 10 -28z m1745 -52 c-3 -5 -10 -10 -16 -10
-5 0 -9 5 -9 10 0 6 7 10 16 10 8 0 12 -4 9 -10z m-136 -36 c10 -9 -66 -3 -79
6 -10 7 -1 8 30 4 25 -4 47 -8 49 -10z m-1742 0 c-3 -3 -12 -4 -19 -1 -8 3 -5
6 6 6 11 1 17 -2 13 -5z m143 -4 c0 -5 -10 -10 -22 -9 -22 0 -22 1 -3 9 11 5
21 9 23 9 1 1 2 -3 2 -9z m497 -26 c-3 -3 -12 -4 -19 -1 -8 3 -5 6 6 6 11 1
17 -2 13 -5z m-217 -14 c0 -5 -7 -10 -16 -10 -8 0 -12 5 -9 10 3 6 10 10 16
10 5 0 9 -4 9 -10z m446 -55 c-9 -25 -23 -17 -29 18 -6 40 15 57 26 21 5 -13
6 -31 3 -39z m-512 8 c-8 -48 -22 -65 -17 -21 5 41 11 58 18 58 3 0 3 -17 -1
-37z m876 -13 c-36 -11 -52 -11 -45 0 3 6 21 10 38 9 31 -1 31 -1 7 -9z m-965
-48 c-1 -37 -7 -54 -28 -74 -17 -17 -27 -37 -26 -55 l1 -28 9 32 c5 17 22 41
37 51 18 13 32 36 40 66 17 65 30 57 21 -12 -4 -38 -16 -74 -35 -103 -35 -55
-51 -69 -82 -69 -13 0 -21 -4 -17 -10 4 -6 16 -8 28 -4 22 6 22 6 2 -10 l-20
-15 20 -1 20 -1 -20 -16 c-19 -15 -19 -15 13 -9 36 6 41 -5 13 -33 -19 -19
-19 -19 2 -26 21 -7 21 -7 2 -12 l-20 -6 20 -8 c17 -6 17 -8 3 -8 -10 -1 -18
-6 -18 -12 0 -5 4 -7 10 -4 6 3 15 3 22 -1 8 -5 6 -10 -8 -15 -18 -7 -18 -8 2
-8 16 -1 23 -9 26 -31 3 -17 0 -30 -6 -30 -7 0 -6 -3 1 -8 19 -12 35 -99 23
-122 -14 -27 -12 -34 5 -20 8 7 15 23 15 36 0 28 8 30 26 7 16 -21 18 -73 4
-73 -5 0 -10 -5 -10 -11 0 -5 5 -7 10 -4 18 11 10 -30 -11 -55 -13 -16 -19
-19 -15 -7 19 54 19 53 2 33 -12 -15 -16 -16 -16 -5 -1 8 -6 4 -14 -10 -11
-19 -14 -21 -19 -7 -4 9 -12 16 -19 16 -9 0 -9 -3 2 -10 12 -8 12 -10 -3 -16
-9 -3 -25 -3 -34 0 -15 6 -15 8 -3 16 12 8 10 10 -9 10 -24 0 -24 1 -5 14 19
14 19 15 0 13 -23 -2 -52 43 -34 54 7 4 6 8 -3 12 -12 5 -12 7 0 15 7 5 10 15
7 21 -4 6 0 11 8 11 21 0 20 10 -1 26 -17 13 -17 13 2 14 18 1 18 2 -2 10 -26
11 -30 38 -8 46 12 5 13 10 4 20 -8 10 -8 14 0 14 6 0 11 5 11 10 0 6 -9 10
-19 10 -21 0 -26 34 -8 58 6 8 5 12 -4 12 -11 0 -11 2 1 10 13 9 13 10 0 10
-12 0 -13 2 -1 9 11 7 10 11 -5 19 -10 6 -16 14 -12 18 5 4 3 13 -3 20 -8 10
-5 16 10 26 22 13 29 38 11 38 -5 0 -10 10 -9 23 0 12 3 16 6 10 9 -24 23 -13
24 20 2 67 12 82 49 80 19 -1 29 0 23 3 -8 4 -11 16 -7 32 15 68 22 69 19 4z
m348 21 c-7 -2 -21 -2 -30 0 -10 3 -4 5 12 5 17 0 24 -2 18 -5z m447 -9 c0 -8
-5 -12 -10 -9 -6 4 -8 11 -5 16 9 14 15 11 15 -7z m-95 -18 c38 -16 45 -32 18
-39 -14 -4 -13 -5 4 -6 33 -2 39 -21 6 -21 -16 0 -34 -5 -41 -12 -16 -16 -16
4 1 21 10 11 9 13 -3 9 -10 -3 -16 -20 -17 -49 -2 -35 -1 -40 7 -21 7 17 18
22 44 22 32 0 35 -3 39 -32 3 -28 4 -26 5 10 3 71 26 47 33 -34 3 -38 10 -77
14 -86 9 -21 -4 -23 -30 -4 -12 8 -18 25 -18 47 1 33 1 34 -11 9 -28 -63 -69
-95 -109 -85 -36 9 -85 61 -98 104 -16 54 -8 68 40 73 34 3 41 0 44 -17 2 -11
5 -4 6 16 1 44 -13 59 -57 59 -39 0 -35 14 11 34 42 19 70 19 112 2z m1003 7
c-10 -2 -28 -2 -40 0 -13 2 -5 4 17 4 22 1 32 -1 23 -4z m-1361 -9 c-3 -3 -12
-4 -19 -1 -8 3 -5 6 6 6 11 1 17 -2 13 -5z m-37 -24 c0 -5 -2 -10 -4 -10 -3 0
-8 5 -11 10 -3 6 -1 10 4 10 6 0 11 -4 11 -10z m40 0 c0 -5 -2 -10 -4 -10 -3
0 -8 5 -11 10 -3 6 -1 10 4 10 6 0 11 -4 11 -10z m105 -9 c3 -5 -5 -12 -17
-14 -19 -4 -18 -5 7 -7 l30 -2 -30 -8 -30 -8 28 -1 c18 -1 27 -6 24 -13 -2 -7
-14 -12 -25 -10 -12 2 -22 -2 -22 -7 0 -6 10 -11 23 -12 21 -1 21 -1 -3 -9
-17 -5 -19 -8 -7 -9 9 -1 17 -5 17 -11 0 -5 -8 -11 -17 -11 -17 -1 -17 -2 0
-6 23 -6 22 -23 -3 -23 -18 0 -20 7 -20 73 0 41 3 77 7 80 9 10 31 9 38 -2z
m-179 -47 c-6 -17 -48 -15 -44 1 1 6 8 9 14 7 6 -1 15 8 19 20 6 20 8 21 12 5
3 -10 2 -25 -1 -33z m773 32 c9 -11 8 -15 -4 -20 -9 -3 -13 -2 -10 4 3 6 1 10
-4 10 -6 0 -11 5 -11 10 0 14 16 12 29 -4z m-729 -6 c0 -5 -4 -10 -10 -10 -5
0 -10 5 -10 10 0 6 5 10 10 10 6 0 10 -4 10 -10z m295 0 c4 -6 -6 -10 -22 -10
-16 0 -34 -5 -41 -12 -15 -15 -24 -6 -16 16 7 18 69 23 79 6z m244 -255 c11
-66 25 -159 30 -207 6 -49 15 -97 21 -107 17 -32 12 -56 -19 -85 l-30 -29 -5
24 c-7 32 -24 210 -32 340 -4 71 -3 109 4 113 8 4 6 19 -4 48 -7 22 -14 64
-13 92 l1 51 14 -60 c7 -33 22 -114 33 -180z m159 209 c2 -15 -3 -23 -17 -27
-24 -6 -46 16 -37 39 9 23 50 14 54 -12z m226 6 c13 -13 -15 -152 -35 -175
-30 -34 -38 -67 -27 -121 10 -51 19 -169 11 -146 -3 6 -9 12 -15 12 -5 0 -18
10 -29 23 -17 20 -18 41 -19 226 l0 204 53 -7 c28 -4 56 -11 61 -16z m-916
-23 c4 -30 0 -32 -29 -17 -16 9 -17 15 -8 31 14 27 33 19 37 -14z m166 -20
c-2 -23 -9 -54 -15 -69 -9 -23 -8 -33 6 -54 16 -24 16 -37 0 -207 -22 -255
-23 -258 -46 -244 -11 7 -19 17 -19 23 0 6 -6 17 -14 23 -16 13 -14 35 10 161
8 41 19 118 24 170 12 115 40 251 51 244 4 -2 6 -23 3 -47z m586 43 c0 -5 -4
-10 -10 -10 -5 0 -10 5 -10 10 0 6 5 10 10 10 6 0 10 -4 10 -10z m30 -6 c0 -8
-5 -12 -10 -9 -6 4 -8 11 -5 16 9 14 15 11 15 -7z m382 -51 l1 -58 6 55 6 55
75 0 c41 0 92 -4 113 -8 l37 -8 -2 -87 -1 -87 -7 65 c-6 57 -7 50 -8 -52 -1
-73 2 -118 8 -118 6 0 9 -53 8 -142 -2 -135 -2 -138 -9 -58 -3 47 -4 -30 -1
-170 4 -140 5 -273 4 -295 -5 -76 -6 -242 -4 -589 2 -192 0 -351 -3 -354 -3
-3 -5 51 -6 119 0 68 -4 133 -9 144 -5 11 -6 -42 -3 -125 4 -101 10 -149 20
-158 12 -13 20 -162 8 -162 -5 0 -77 39 -84 46 -2 2 1 9 6 16 6 7 13 22 16 33
4 18 5 18 6 -2 0 -13 7 -23 15 -23 8 0 17 -10 19 -23 2 -12 5 -2 5 23 0 34 -2
40 -8 25 -7 -16 -9 -12 -10 20 -1 22 -3 45 -5 50 -1 6 -3 16 -3 23 -1 7 -7 10
-12 7 -6 -4 -13 7 -16 25 -4 18 -19 39 -38 52 -17 12 -33 26 -37 30 -11 16
-98 20 -143 7 -47 -14 -61 -29 -28 -29 10 0 26 6 36 13 23 17 98 7 124 -17 17
-14 42 -77 42 -103 0 -6 -9 -20 -20 -33 -14 -16 -33 -23 -73 -27 -48 -4 -57
-1 -87 25 -24 22 -33 38 -33 61 0 17 -5 31 -10 31 -6 0 -2 9 8 20 14 16 15 20
4 20 -28 0 -49 -38 -50 -92 -2 -66 22 -124 61 -146 32 -18 39 -32 16 -32 -7 0
-16 -9 -19 -20 -7 -28 -48 -26 -81 5 -22 20 -26 32 -26 80 0 31 -4 55 -10 55
-6 0 -8 -11 -4 -25 3 -14 3 -36 0 -50 -6 -22 -12 -25 -51 -25 l-45 0 0 50 c0
45 3 51 30 65 53 27 60 49 44 139 -18 101 -18 111 -9 226 8 103 -15 288 -42
343 -16 33 -12 51 29 132 19 36 34 83 39 120 3 33 6 -171 5 -453 0 -281 2
-512 7 -512 9 0 10 106 7 652 -2 478 11 634 21 233 l5 -240 2 265 c1 146 6
281 11 300 5 19 9 27 10 17 1 -10 5 -16 10 -13 10 7 15 146 4 146 -4 0 -8 72
-7 160 0 87 -2 158 -5 155 -4 -2 -6 11 -6 29 0 23 4 32 13 29 12 -5 17 -53 14
-158 -1 -49 0 -55 8 -32 13 41 13 390 0 382 -6 -4 -10 -32 -9 -63 2 -90 0
-112 -12 -112 -6 0 -9 9 -6 20 3 11 1 20 -4 20 -9 0 -13 -14 -10 -38 2 -10 -7
-11 -33 -7 -24 5 -42 2 -58 -9 -28 -20 -47 -21 -27 -1 8 8 35 22 59 30 l45 15
-45 -5 -45 -5 24 20 c12 11 27 18 31 15 5 -3 12 0 16 6 4 8 3 9 -4 5 -8 -5
-12 4 -12 28 0 19 5 38 11 42 8 5 10 -3 7 -25 -5 -34 14 -44 27 -13 7 15 9 14
15 -8 5 -18 7 -10 7 28 0 31 -4 47 -9 40 -5 -9 -8 -6 -8 10 0 20 5 22 51 22
42 0 50 -3 45 -16 -3 -8 -3 -27 0 -40 9 -34 34 -12 34 30 0 24 -3 27 -10 16
-8 -13 -10 -13 -10 1 0 19 9 29 27 29 9 0 13 -17 15 -57z m-1282 37 c0 -5 -4
-10 -10 -10 -5 0 -10 5 -10 10 0 6 5 10 10 10 6 0 10 -4 10 -10z m-351 -68
c-1 -38 3 -78 10 -89 12 -24 15 -93 3 -93 -4 0 -6 19 -5 43 2 32 1 37 -6 22
-9 -18 -10 -17 -12 10 -1 17 -2 39 -2 50 2 96 4 125 8 125 3 0 5 -31 4 -68z
m18 31 c-3 -10 -5 -4 -5 12 0 17 2 24 5 18 2 -7 2 -21 0 -30z m290 0 c-3 -10
-5 -4 -5 12 0 17 2 24 5 18 2 -7 2 -21 0 -30z m913 17 c0 -5 -4 -10 -10 -10
-5 0 -10 5 -10 10 0 6 5 10 10 10 6 0 10 -4 10 -10z m27 -12 c-3 -8 -6 -5 -6
6 -1 11 2 17 5 13 3 -3 4 -12 1 -19z m-897 -2 c0 -3 -4 -8 -10 -11 -5 -3 -10
-1 -10 4 0 6 5 11 10 11 6 0 10 -2 10 -4z m30 -6 c0 -5 -4 -10 -10 -10 -5 0
-10 5 -10 10 0 6 5 10 10 10 6 0 10 -4 10 -10z m200 -50 c0 -5 -7 -10 -15 -10
-8 0 -15 5 -15 10 0 6 7 10 15 10 8 0 15 -4 15 -10z m132 -25 c23 -30 68 -55
99 -55 11 0 35 15 53 33 l32 32 22 -32 c16 -26 18 -33 7 -33 -8 0 -15 7 -15
15 0 8 -4 15 -10 15 -5 0 -10 -9 -10 -19 0 -11 -5 -23 -12 -27 -8 -5 -9 -2 -5
9 7 17 -8 24 -17 8 -3 -4 -19 -11 -36 -15 -17 -3 -29 -10 -25 -15 3 -5 1 -12
-5 -16 -5 -3 -10 -1 -10 5 0 7 -7 9 -16 6 -18 -7 -74 20 -74 35 0 6 7 3 16 -6
9 -9 18 -14 20 -12 9 8 -8 35 -24 39 -10 3 -18 16 -20 31 -2 34 5 34 30 2z
m-134 0 c2 -2 1 -13 -3 -24 -5 -17 -15 -21 -48 -23 l-42 -1 45 -7 45 -7 -37
-1 c-29 -2 -36 -5 -32 -17 4 -9 0 -15 -8 -15 -8 0 -23 -6 -33 -14 -16 -12 -17
-17 -6 -43 6 -16 23 -41 36 -55 18 -20 21 -28 12 -38 -9 -10 -7 -11 11 -5 19
6 22 3 22 -24 0 -46 -20 -38 -63 25 -22 31 -41 53 -44 50 -3 -3 0 -12 7 -21
25 -30 5 -23 -33 11 -43 40 -46 48 -14 39 16 -5 18 -4 8 3 -8 6 -11 17 -8 26
4 9 3 15 -1 15 -37 -6 -42 1 -42 64 0 35 2 66 4 68 5 5 219 -1 224 -6z m102
-45 c0 -5 -4 -10 -10 -10 -5 0 -10 5 -10 10 0 6 5 10 10 10 6 0 10 -4 10 -10z
m683 -19 c-3 -11 -11 -22 -19 -25 -17 -6 -17 -1 -4 25 14 25 30 25 23 0z
m-653 -94 c0 -24 -4 -28 -22 -25 -15 2 -23 10 -23 23 -1 11 -4 26 -9 33 -4 7
-4 22 -1 33 7 21 8 21 31 -7 13 -16 23 -42 24 -57z m140 79 c0 -3 -4 -8 -10
-11 -5 -3 -10 -1 -10 4 0 6 5 11 10 11 6 0 10 -2 10 -4z m60 -6 c0 -5 -5 -10
-11 -10 -5 0 -7 5 -4 10 3 6 8 10 11 10 2 0 4 -4 4 -10z m957 -37 c-3 -10 -5
-2 -5 17 0 19 2 27 5 18 2 -10 2 -26 0 -35z m-917 -13 c0 -38 -4 -50 -15 -50
-8 0 -15 7 -15 15 0 8 -2 15 -4 15 -2 0 -20 -7 -39 -15 -50 -21 -97 -19 -132
6 -16 12 -21 18 -10 14 68 -26 143 -11 177 36 12 16 25 29 30 29 4 0 8 -22 8
-50z m525 28 c7 -7 -2 -9 -27 -5 -24 4 -42 1 -55 -9 -17 -15 -17 -15 0 -6 22
10 64 4 73 -10 9 -14 -57 -148 -71 -148 -7 0 -10 12 -7 30 2 17 8 30 12 30 13
0 19 54 7 63 -8 6 -6 7 5 3 10 -3 20 -1 24 5 9 16 -1 21 -30 13 -23 -5 -26
-11 -26 -48 0 -22 -11 -117 -25 -211 -13 -93 -36 -255 -51 -360 -14 -104 -28
-200 -31 -212 -9 -40 -23 -24 -20 23 1 30 -2 48 -10 51 -7 3 -13 0 -13 -7 0
-6 5 -8 10 -5 14 9 12 -26 -2 -58 -15 -31 -29 -33 -62 -12 -18 12 -30 13 -50
6 -14 -6 -26 -8 -26 -4 0 4 -9 -3 -20 -15 -12 -12 -25 -22 -30 -22 -6 0 -9 -6
-7 -12 1 -7 -4 -12 -10 -11 -15 3 -17 -13 -3 -22 15 -10 12 -21 -16 -54 -29
-34 -21 -41 14 -11 12 10 25 33 28 52 13 65 85 109 123 74 11 -10 31 -15 52
-14 30 3 34 0 33 -19 0 -13 3 -23 7 -23 4 0 17 -19 29 -42 l22 -43 -31 33
c-16 17 -37 32 -45 32 -20 0 -21 -14 -2 -29 11 -9 15 -9 18 1 3 7 15 -7 27
-31 14 -27 19 -46 13 -50 -12 -7 -4 -61 9 -61 5 0 8 15 7 33 -2 23 1 31 11 29
8 -2 18 3 23 10 6 8 8 1 4 -21 -3 -18 -6 -40 -6 -48 0 -8 -4 -11 -10 -8 -6 4
-10 -8 -10 -30 0 -22 -4 -34 -10 -30 -6 4 -10 -19 -10 -60 0 -56 3 -66 15 -61
19 7 19 -27 4 -196 -9 -93 -8 -122 1 -128 7 -5 9 -16 5 -29 -7 -22 -6 -22 14
-4 17 14 21 29 21 85 0 37 -4 69 -9 73 -6 3 -7 48 -4 110 5 91 4 105 -11 111
-18 7 -22 45 -4 41 8 -1 11 9 9 30 -2 25 1 32 12 27 11 -4 14 -37 13 -177 0
-106 5 -191 12 -221 11 -42 10 -52 -3 -73 -21 -31 -57 -47 -89 -39 -23 6 -26
12 -26 46 0 22 -5 40 -11 40 -7 0 -10 -19 -7 -52 2 -35 -1 -53 -9 -55 -9 -3
-13 10 -14 44 -1 49 -3 49 -14 -1 -5 -23 -8 -27 -15 -15 -7 11 -11 7 -15 -16
-6 -26 -18 -36 -96 -73 -171 -82 -301 -90 -501 -32 -37 11 -38 12 -38 60 0 43
-2 48 -20 43 -17 -4 -20 -14 -20 -54 0 -53 -8 -59 -55 -37 -26 12 -36 42 -10
32 11 -5 13 -2 9 10 -4 12 -11 13 -24 6 -10 -5 -21 -15 -23 -22 -3 -7 -6 4 -6
24 -1 20 4 40 9 43 6 3 10 -2 10 -11 0 -38 20 3 22 44 1 39 3 41 27 37 l26 -5
-27 12 c-16 7 -28 20 -28 29 0 21 -26 33 -33 15 -3 -8 0 -19 6 -25 6 -6 8 -14
4 -17 -11 -12 -19 2 -20 38 -1 22 2 32 11 30 7 -1 12 9 12 25 0 21 -3 24 -9
14 -7 -11 -11 -4 -14 25 -3 33 -5 36 -12 17 -12 -38 -25 -15 -25 45 0 51 1 54
15 36 13 -18 14 -15 15 29 0 52 -6 59 -20 25 -8 -22 -9 -21 -10 7 -1 26 -2 27
-9 10 -5 -11 -7 -37 -6 -58 2 -21 -1 -37 -7 -37 -7 0 -9 23 -6 65 3 36 2 65
-3 65 -5 0 -9 -14 -9 -32 0 -17 -2 -29 -5 -26 -10 10 -7 198 3 211 5 7 13 26
17 44 3 18 15 44 26 58 11 14 17 25 12 26 -4 0 8 7 27 14 l35 13 -43 1 c-54 1
-89 -22 -113 -73 -20 -47 -24 -29 -8 42 8 40 14 49 28 45 11 -3 21 4 28 19 7
13 12 18 12 12 1 -12 61 -6 61 6 0 4 -13 10 -28 13 -88 18 -246 178 -277 282
-3 11 4 3 17 -19 47 -79 97 -134 131 -145 19 -7 49 -30 67 -52 39 -49 51 -46
17 4 -33 48 -42 115 -26 193 11 57 11 68 -5 100 -9 20 -15 38 -13 41 3 2 15
-21 28 -51 22 -54 40 -69 55 -44 5 8 2 9 -9 5 -10 -3 -17 -2 -17 4 0 5 7 12
15 15 8 4 15 10 15 16 0 5 -4 7 -9 4 -5 -4 -16 -3 -25 0 -13 5 -14 9 -4 21 16
19 19 43 6 43 -6 0 -4 7 3 17 13 15 12 15 -10 4 -17 -9 -20 -15 -11 -21 8 -5
9 -10 2 -14 -6 -4 -16 3 -22 14 -18 33 -3 90 23 90 7 0 3 -7 -7 -15 -21 -16
-10 -21 13 -6 22 14 3 32 -27 25 l-27 -6 30 22 c22 16 24 20 9 16 -13 -4 -21
-2 -22 6 -1 7 -4 27 -7 43 -5 30 -5 30 8 -3 12 -32 27 -34 27 -5 0 8 -5 11
-12 7 -8 -5 -9 5 -4 37 17 110 18 129 7 129 -6 0 -11 12 -11 28 0 21 2 24 10
12 14 -21 51 -120 57 -150 6 -32 13 -39 13 -13 0 31 -37 145 -54 168 -18 23
-20 35 -7 35 5 0 13 -9 16 -20 3 -11 13 -20 20 -20 8 0 20 -9 28 -20 10 -14
20 -18 32 -13 18 6 18 7 -1 14 -16 6 -16 8 -2 8 10 1 22 -8 28 -18 13 -25 13
-31 -1 -31 -5 0 -7 5 -4 10 3 6 2 10 -4 10 -23 0 -20 -20 4 -26 27 -7 56 -44
34 -44 -6 0 -9 -6 -6 -14 3 -8 1 -17 -6 -20 -8 -3 -6 -5 3 -5 8 0 22 4 30 9
12 8 11 15 -8 55 l-22 46 34 -27 c29 -24 34 -33 29 -58 -9 -54 -13 -62 -23
-47 -5 9 -15 11 -26 6 -13 -5 -15 -9 -6 -12 6 -3 9 -10 5 -16 -4 -6 0 -8 10
-4 10 3 17 2 17 -3 0 -6 -4 -10 -10 -10 -21 0 -9 -15 14 -16 18 -1 22 2 19 17
-8 29 3 23 27 -17 30 -48 64 -45 68 8 3 34 32 78 32 48 0 -7 7 -10 15 -6 10 3
15 -1 16 -12 0 -10 3 -12 6 -4 7 18 23 15 24 -5 0 -11 3 -13 6 -5 2 6 8 12 13
12 17 0 24 -39 29 -163 7 -149 6 -151 -82 -86 -53 39 -93 88 -111 134 -8 20
-8 20 -16 0 -9 -24 -40 -52 -40 -37 0 5 7 15 15 22 8 7 15 17 15 23 0 5 -8 3
-18 -6 -27 -25 -36 -21 -12 5 11 12 18 24 15 27 -3 2 -11 -3 -18 -13 -11 -16
-14 -14 -31 21 -10 21 -20 47 -21 58 -7 52 -94 203 -95 164 0 -9 3 -18 6 -22
12 -12 62 -170 74 -235 7 -37 19 -78 26 -92 18 -33 17 -14 -1 57 -21 82 -17
98 8 31 27 -70 32 -75 54 -57 15 12 16 12 9 -5 -7 -20 -7 -20 15 0 l22 19 -18
-27 c-9 -16 -13 -28 -7 -28 5 0 13 7 16 16 4 9 9 14 12 11 3 -3 0 -16 -7 -29
-12 -23 -12 -23 8 -5 19 17 21 17 27 1 4 -9 4 -19 1 -22 -3 -3 -5 0 -5 7 0 7
-4 9 -10 6 -6 -4 -5 -11 3 -20 10 -11 15 -11 27 0 18 15 41 9 34 -10 -3 -8
-13 -11 -22 -7 -14 5 -15 4 -2 -10 8 -9 18 -14 23 -11 4 2 7 -2 7 -9 0 -10 3
-9 11 2 9 12 10 11 6 -7 -6 -28 17 -31 33 -5 10 15 11 14 6 -6 -3 -18 -1 -22
10 -18 8 3 14 2 14 -3 0 -5 9 -11 20 -14 21 -5 29 -50 11 -61 -5 -3 -7 -24 -4
-46 3 -23 1 -40 -4 -40 -20 0 -79 23 -95 38 -13 10 -18 11 -18 3 0 -7 21 -22
48 -33 26 -12 52 -28 58 -37 11 -14 27 -111 20 -118 -7 -7 -133 57 -154 79
-38 38 -82 95 -82 104 0 5 -11 30 -25 56 -13 25 -36 88 -49 140 -30 112 -74
240 -75 216 -1 -9 12 -59 28 -110 16 -51 34 -117 41 -147 36 -157 133 -287
250 -333 63 -25 89 -56 43 -51 -13 2 -23 -2 -23 -7 0 -6 11 -10 24 -10 18 0
25 -7 30 -31 10 -50 7 -97 -6 -103 -10 -5 -10 -7 0 -12 9 -4 12 -51 12 -182 0
-200 8 -247 45 -256 30 -8 73 11 80 35 4 10 0 29 -7 41 -7 13 -11 26 -10 30 1
4 4 79 6 165 2 87 7 165 10 173 10 25 71 59 87 49 24 -15 35 -9 14 8 -19 15
-19 15 10 9 27 -6 28 -5 13 7 -25 20 -22 30 4 21 20 -6 21 -5 9 10 -18 22 -6
33 15 15 15 -12 17 -12 12 1 -9 29 -34 20 -92 -35 -64 -60 -68 -60 -80 5 -5
28 -5 31 4 18 19 -31 31 -19 14 13 -11 22 -18 28 -24 19 -6 -10 -9 -10 -15 0
-5 9 10 29 45 59 30 25 80 82 112 125 55 76 74 111 45 87 -8 -6 -18 -7 -22 -3
-5 4 -5 -1 -2 -11 10 -26 -1 -41 -19 -26 -12 9 -14 6 -14 -20 0 -35 -7 -39
-27 -13 -12 15 -13 13 -7 -17 4 -23 3 -31 -5 -27 -6 4 -11 14 -11 22 0 8 -4
14 -10 14 -13 0 -13 -16 1 -43 11 -19 7 -26 -37 -66 l-49 -44 -7 39 c-5 30 -6
25 -4 -21 2 -33 10 -82 18 -110 11 -41 12 -67 3 -145 -12 -92 -11 -262 1 -327
5 -25 2 -33 -15 -42 -22 -12 -61 0 -61 19 0 14 14 12 29 -2 10 -11 15 -9 27 6
12 17 11 21 -7 34 -18 12 -22 12 -33 -4 -13 -17 -14 -17 -20 3 -4 12 -8 122
-10 245 -3 122 -9 331 -14 463 -18 431 -18 438 -4 442 8 3 13 -7 14 -29 l1
-33 4 33 c3 25 9 32 21 30 21 -4 29 -73 38 -337 7 -204 20 -233 17 -40 -1 109
0 122 13 105 20 -27 19 2 -1 31 -17 24 -10 32 58 73 37 22 39 22 52 4 13 -17
14 -17 15 -2 0 9 -4 19 -10 23 -5 3 0 16 12 30 12 13 26 22 31 18 6 -3 7 -1 3
5 -4 7 -1 12 9 12 9 0 13 5 10 10 -3 6 -1 10 5 10 6 0 8 5 5 10 -3 6 0 13 8
16 7 2 14 10 14 17 1 20 102 223 102 206 1 -9 8 -19 16 -23 8 -3 15 -10 15
-16 0 -7 -6 -7 -21 0 -11 7 -24 9 -27 5 -3 -3 4 -8 16 -12 32 -8 27 -26 -5
-19 -27 6 -27 6 -8 -10 20 -16 19 -16 -5 -10 -23 6 -23 6 -7 -7 9 -8 17 -17
17 -20 0 -4 -8 -3 -17 0 -16 6 -17 5 -3 -12 15 -18 15 -62 -1 -81 -5 -6 -6
-14 -2 -18 4 -4 1 -11 -7 -16 -10 -7 -11 -10 -2 -10 9 0 10 -10 6 -32 -3 -18
-7 -39 -7 -45 0 -7 -7 -13 -16 -13 -14 -1 -14 -2 0 -10 13 -7 17 -24 16 -69 0
-46 35 -210 50 -230 11 -15 10 13 -1 57 -13 48 -8 71 12 58 4 -2 14 0 22 5 11
7 5 9 -20 7 -35 -3 -35 -2 -38 39 -2 24 2 51 7 60 8 14 9 11 5 -14 -6 -32 -6
-33 30 -33 30 0 36 -4 37 -22 1 -25 13 29 23 107 5 35 4 45 -4 34 -6 -11 -18
-15 -35 -11 -31 5 -33 22 -2 23 21 0 21 1 2 9 -17 7 -17 9 -2 9 9 1 17 6 17
11 0 6 -8 10 -17 11 -15 0 -15 2 2 9 19 8 19 9 1 9 -17 1 -18 6 -12 49 3 26
11 49 16 50 6 2 8 8 4 13 -3 5 1 16 10 24 17 17 46 20 46 5 0 -5 -9 -10 -20
-10 -25 0 -27 -20 -2 -21 14 0 14 -2 -3 -9 -18 -8 -19 -9 -1 -9 15 -1 17 -7
12 -38 -4 -25 -3 -31 3 -18 4 11 11 45 14 75 6 53 6 56 -16 55 -13 -1 -28 -5
-35 -9 -15 -9 -15 -4 0 29 8 17 19 25 37 25 l26 -1 -25 -14 -25 -14 28 -1 c24
0 27 4 27 33 0 17 5 49 11 70 7 28 7 42 -1 52 -8 9 -8 14 0 17 6 2 14 29 17
61 5 49 10 60 32 72 26 14 58 11 76 -7z m-916 -35 c0 -27 -4 -56 -7 -66 -7
-16 -9 -16 -30 -1 -12 8 -20 20 -16 25 3 6 -4 21 -15 33 -22 24 -18 35 19 49
42 15 50 9 49 -40z m201 27 c0 -5 -7 -7 -15 -4 -8 4 -15 8 -15 10 0 2 7 4 15
4 8 0 15 -4 15 -10z m599 -29 c0 -14 -4 -35 -9 -46 -8 -20 -9 -19 -9 1 -1 12
-4 36 -7 53 -6 26 -4 30 10 25 9 -4 16 -17 15 -33z m-294 19 c-3 -5 8 -16 25
-25 16 -8 30 -12 30 -7 0 5 -10 14 -22 20 -23 10 -23 10 2 7 64 -7 65 -14 9
-71 -29 -30 -56 -54 -59 -54 -4 0 -11 27 -16 60 -9 52 -8 60 5 60 14 0 14 1 1
10 -12 8 -10 10 8 10 13 0 21 -4 17 -10z m-695 -14 c0 -3 -4 -8 -10 -11 -5 -3
-10 -1 -10 4 0 6 5 11 10 11 6 0 10 -2 10 -4z m843 -3 c-7 -2 -19 -2 -25 0 -7
3 -2 5 12 5 14 0 19 -2 13 -5z m-993 -28 c7 -9 11 -17 8 -20 -2 -2 -12 4 -21
15 -9 11 -13 20 -8 20 5 0 14 -7 21 -15z m1000 -2 c0 -5 3 -18 6 -30 5 -17 -1
-25 -24 -37 -16 -8 -53 -36 -83 -61 -29 -25 -56 -45 -60 -45 -4 0 -9 15 -12
33 -5 29 0 37 56 89 43 40 70 57 90 58 15 0 27 -3 27 -7z m-277 -27 c13 -4 17
-17 17 -59 l0 -54 -45 -17 c-41 -16 -46 -16 -60 -2 -17 17 -69 15 -103 -3 -12
-7 -31 -4 -65 11 -45 20 -47 22 -47 62 0 54 10 67 51 67 19 0 61 -1 94 -1 33
-1 72 3 85 8 14 5 32 6 40 1 8 -4 23 -10 33 -13z m537 -12 c0 -19 -4 -33 -8
-30 -8 5 -4 66 4 66 2 0 4 -16 4 -36z m-1130 16 c0 -5 -2 -10 -4 -10 -3 0 -8
5 -11 10 -3 6 -1 10 4 10 6 0 11 -4 11 -10z m-323 -108 c2 -53 8 -101 13 -106
5 -5 6 -21 3 -36 -4 -21 1 -33 23 -54 19 -17 24 -26 14 -26 -12 0 -13 -2 -1
-9 7 -5 11 -15 9 -22 -3 -8 6 -19 21 -26 l26 -13 -32 3 c-38 4 -38 5 -18 -33
12 -23 22 -30 45 -30 38 0 38 -11 0 -28 -17 -8 -28 -18 -24 -23 3 -5 12 -2 20
6 15 15 44 21 44 9 0 -4 -8 -13 -17 -21 -17 -13 -16 -14 4 -10 13 3 25 2 28
-3 6 -10 -24 -22 -36 -14 -27 16 10 -39 89 -133 24 -29 40 -53 36 -53 -21 0
-87 58 -112 99 -100 163 -102 165 -158 352 -24 82 -13 302 14 275 3 -4 7 -50
9 -104z m255 66 c2 -13 1 -39 -3 -58 l-6 -35 -2 35 c-1 19 -4 45 -7 58 -4 12
-2 22 4 22 5 0 11 -10 14 -22z m105 6 c-3 -3 -12 -4 -19 -1 -8 3 -5 6 6 6 11
1 17 -2 13 -5z m860 -10 c-4 -4 -17 -12 -29 -18 -15 -7 -38 -47 -68 -116 -59
-134 -94 -190 -120 -190 -12 0 -20 -7 -20 -17 0 -15 -2 -16 -10 -3 -7 12 -10
8 -11 -15 0 -16 -3 -24 -6 -17 -7 18 -23 15 -24 -5 0 -11 -3 -13 -6 -5 -8 21
-21 13 -17 -10 2 -13 2 -17 -2 -10 -9 20 -27 14 -21 -8 3 -11 1 -20 -3 -20 -5
0 -11 8 -13 18 -3 10 -5 4 -6 -13 -1 -26 -3 -28 -12 -12 -6 10 -13 67 -16 127
l-6 108 44 12 c24 7 49 16 55 21 13 11 24 -18 24 -64 0 -42 26 -45 66 -6 34
33 43 62 24 74 -22 13 -8 44 35 79 24 20 50 42 57 49 24 22 63 46 77 46 8 1
11 -2 8 -5z m203 -28 c-14 -14 -22 -2 -14 18 5 14 9 15 15 4 4 -7 4 -17 -1
-22z m-215 -6 c-3 -5 -11 -10 -16 -10 -6 0 -7 5 -4 10 3 6 11 10 16 10 6 0 7
-4 4 -10z m245 -10 c0 -5 -8 -10 -17 -10 -15 0 -16 2 -3 10 19 12 20 12 20 0z
m-55 -20 c-3 -5 -12 -10 -20 -10 -8 0 -17 5 -20 10 -4 6 5 10 20 10 15 0 24
-4 20 -10z m-1124 -36 c-9 -28 -9 -29 -10 -3 -1 14 2 29 6 32 11 12 13 2 4
-29z m1157 20 c-3 -19 -63 -30 -73 -14 -3 6 4 10 17 10 13 0 30 5 38 10 20 13
22 13 18 -6z m29 -6 c-3 -8 -6 -5 -6 6 -1 11 2 17 5 13 3 -3 4 -12 1 -19z
m-737 -65 c0 -18 -2 -33 -5 -33 -2 0 -29 9 -60 21 -55 20 -64 34 -50 72 5 12
15 11 60 -7 51 -19 55 -23 55 -53z m526 34 c-27 -46 -56 -163 -56 -227 0 -25
-5 -40 -16 -44 -35 -13 9 225 52 282 36 46 49 39 20 -11z m-308 -4 c3 -27 -1
-31 -40 -46 -60 -23 -68 -22 -68 13 0 27 6 34 43 50 52 24 61 22 65 -17z
m-699 -103 c1 -71 4 -137 7 -147 5 -17 5 -17 -6 0 -15 24 -24 150 -16 221 4
31 9 56 11 56 2 0 4 -58 4 -130z m579 113 c-2 -10 -16 -21 -33 -24 -28 -6 -25
-9 8 -13 7 -1 13 -20 15 -50 2 -36 0 -47 -10 -44 -7 3 -16 18 -19 34 l-7 29
-1 -32 c-1 -22 -6 -33 -16 -33 -15 0 -23 37 -23 108 l1 42 44 0 c37 0 44 -3
41 -17z m471 -4 c-16 -10 -23 -4 -14 10 3 6 11 8 17 5 6 -4 5 -9 -3 -15z m106
-9 c3 -5 -1 -10 -10 -10 -9 0 -13 -5 -10 -11 5 -7 14 -4 26 7 24 21 36 12 14
-10 -12 -12 -13 -16 -3 -16 10 0 9 -3 -2 -10 -13 -8 -12 -10 3 -10 20 0 23
-16 5 -23 -7 -3 -4 -6 7 -7 20 -1 20 -1 1 -15 -17 -13 -18 -15 -3 -15 24 0 23
-55 0 -69 -17 -10 -17 -10 1 -11 13 0 16 -3 9 -12 -6 -7 -9 -22 -7 -33 3 -18
0 -29 -29 -92 -11 -24 -50 -32 -62 -12 -4 6 -14 8 -22 5 -10 -4 -14 0 -11 17
2 17 9 21 30 19 14 -1 29 2 33 8 3 5 -2 10 -12 10 -10 0 -25 4 -32 9 -10 7 0
8 30 6 l44 -5 -44 11 c-43 11 -43 11 -37 47 3 20 9 67 12 105 5 52 11 67 23
68 10 0 12 2 4 6 -7 2 -13 16 -13 29 0 19 5 24 24 24 14 0 28 -4 31 -10z m65
-32 c-1 -28 -2 -30 -11 -15 -6 10 -8 25 -5 33 9 24 16 16 16 -18z m-1360 -122
c0 -11 -19 -15 -25 -6 -3 5 1 10 9 10 9 0 16 -2 16 -4z m110 -16 c0 -5 -4 -10
-10 -10 -5 0 -10 5 -10 10 0 6 5 10 10 10 6 0 10 -4 10 -10z m-100 -14 c0 -11
-19 -15 -25 -6 -3 5 1 10 9 10 9 0 16 -2 16 -4z m-2 -79 c2 -10 -3 -17 -11
-17 -18 0 -39 24 -30 34 12 12 38 2 41 -17z m32 7 c0 -8 -4 -12 -10 -9 -5 3
-10 10 -10 16 0 5 5 9 10 9 6 0 10 -7 10 -16z m1103 -71 c-7 -2 -21 -2 -30 0
-10 3 -4 5 12 5 17 0 24 -2 18 -5z m-5 -30 c-10 -2 -26 -2 -35 0 -10 3 -2 5
17 5 19 0 27 -2 18 -5z m72 -13 c0 -5 -5 -10 -11 -10 -5 0 -7 5 -4 10 3 6 8
10 11 10 2 0 4 -4 4 -10z m-66 -21 c-7 -12 -54 -12 -54 0 0 5 6 11 13 14 18 6
48 -4 41 -14z m-1074 2 c0 -5 -7 -11 -15 -15 -15 -5 -20 5 -8 17 9 10 23 9 23
-2z m70 -1 c0 -5 -4 -10 -10 -10 -5 0 -10 5 -10 10 0 6 5 10 10 10 6 0 10 -4
10 -10z m1138 -83 c-3 -40 -10 -81 -15 -92 -8 -14 -10 -2 -6 51 5 80 11 114
20 114 3 0 4 -33 1 -73z m-1190 51 c-6 -18 -28 -21 -28 -4 0 9 7 16 16 16 9 0
14 -5 12 -12z m22 -33 c-15 -18 1 -20 18 -3 7 7 12 9 12 4 0 -4 -7 -14 -16
-23 -14 -14 -16 -14 -29 3 -19 25 -18 32 3 36 24 6 27 1 12 -17z m1090 -55 c0
-5 -5 -10 -11 -10 -5 0 -7 5 -4 10 3 6 8 10 11 10 2 0 4 -4 4 -10z m-1155 -39
c6 -19 75 -86 108 -106 16 -9 15 -14 -9 -61 -23 -47 -25 -63 -27 -185 -1 -112
2 -144 20 -194 19 -54 20 -76 15 -218 l-5 -159 27 -24 c37 -35 36 -79 -4 -99
-17 -9 -28 -20 -24 -26 6 -10 32 7 63 41 12 13 13 12 8 -6 -4 -18 1 -23 24
-28 20 -4 29 -12 29 -25 0 -21 -26 -31 -55 -21 -17 6 -15 8 13 15 25 5 31 10
23 18 -8 8 -14 8 -22 0 -6 -6 -18 -9 -25 -6 -7 3 -21 -2 -29 -11 -15 -15 -15
-17 0 -23 24 -9 65 -9 99 0 26 7 25 4 -25 -52 -40 -44 -57 -57 -66 -49 -7 6
-13 18 -13 27 0 9 -17 42 -37 74 -29 44 -43 57 -62 57 l-25 0 21 22 c17 17 34
22 70 22 48 -1 48 -1 6 3 -42 4 -56 16 -30 26 6 3 -1 6 -16 6 -17 1 -26 -3
-22 -9 7 -12 -22 -26 -33 -16 -3 4 0 11 8 16 13 9 13 10 0 10 -13 0 -15 48
-18 358 -1 196 -5 421 -8 500 -3 89 -1 142 5 142 5 0 12 -9 16 -19z m1171
-105 c-9 -14 -16 -32 -16 -41 0 -9 -4 -14 -10 -10 -5 3 -6 13 -2 23 11 27 36
62 40 57 3 -2 -3 -16 -12 -29z m-26 10 c0 -3 -4 -8 -10 -11 -5 -3 -10 -1 -10
4 0 6 5 11 10 11 6 0 10 -2 10 -4z m28 -137 c-3 -8 -7 -3 -11 10 -4 17 -3 21
5 13 5 -5 8 -16 6 -23z m-1008 -4 c0 -8 -4 -15 -10 -15 -5 0 -7 7 -4 15 4 8 8
15 10 15 2 0 4 -7 4 -15z m-33 -92 l-16 -58 0 43 c-1 26 3 42 11 42 9 0 9 3 1
11 -6 6 -9 18 -6 26 4 9 9 11 15 5 7 -7 5 -31 -5 -69z m-22 -163 c7 -78 -9
-63 -21 20 -8 59 -9 64 -4 125 3 37 4 35 11 -20 4 -33 11 -89 14 -125z m-578
-227 c-2 -16 -4 -3 -4 27 0 30 2 43 4 28 2 -16 2 -40 0 -55z m611 52 c0 -14
-4 -25 -9 -25 -5 0 -9 11 -9 25 0 14 4 25 9 25 5 0 9 -11 9 -25z m-258 -52
c23 -15 44 -40 45 -53 0 -3 4 -11 8 -17 5 -9 3 -13 -7 -13 -9 0 -16 -6 -16
-14 0 -19 -66 -73 -96 -79 -13 -2 -24 0 -24 4 0 5 -9 9 -20 9 -12 0 -20 7 -20
16 0 11 -6 15 -20 11 -22 -6 -28 8 -7 17 10 5 10 7 0 12 -19 9 -16 48 7 77 11
14 20 30 20 36 0 18 102 13 130 -6z m260 7 c0 -5 -4 -10 -10 -10 -5 0 -10 5
-10 10 0 6 5 10 10 10 6 0 10 -4 10 -10z m1 -39 c-12 -7 -12 -13 -3 -24 7 -7
9 -17 5 -20 -14 -15 -23 -6 -23 23 0 22 5 30 18 30 14 0 14 -2 3 -9z m549 -1
c0 -5 -4 -10 -10 -10 -5 0 -10 5 -10 10 0 6 5 10 10 10 6 0 10 -4 10 -10z
m-543 -66 c-3 -3 -12 -4 -19 -1 -8 3 -5 6 6 6 11 1 17 -2 13 -5z m33 -15 c0
-5 -4 -9 -10 -9 -5 0 -10 7 -10 16 0 8 5 12 10 9 6 -3 10 -10 10 -16z m60 -50
c0 -11 -4 -17 -10 -14 -5 3 -10 15 -10 26 0 11 5 17 10 14 6 -3 10 -15 10 -26z
m-100 11 c0 -5 -4 -10 -10 -10 -5 0 -10 5 -10 10 0 6 5 10 10 10 6 0 10 -4 10
-10z m0 -51 c0 -11 -4 -17 -10 -14 -5 3 -10 13 -10 21 0 8 5 14 10 14 6 0 10
-9 10 -21z m970 -9 c0 -5 -8 -10 -17 -10 -15 0 -16 2 -3 10 19 12 20 12 20 0z
m-763 -32 c-3 -7 -5 -2 -5 12 0 14 2 19 5 13 2 -7 2 -19 0 -25z m790 10 c-3
-8 -6 -5 -6 6 -1 11 2 17 5 13 3 -3 4 -12 1 -19z m-1167 -28 c0 -10 -6 -20
-12 -22 -16 -6 -68 14 -68 25 0 4 5 5 10 2 6 -3 10 0 11 7 0 10 2 10 6 1 7
-18 23 -16 23 2 0 9 6 12 15 9 8 -4 15 -14 15 -24z m1140 20 c0 -5 -7 -10 -16
-10 -8 0 -12 5 -9 10 3 6 10 10 16 10 5 0 9 -4 9 -10z m-1285 -22 c12 -3 2 -8
-27 -12 -50 -9 -87 2 -52 14 10 4 25 3 32 -2 9 -8 12 -5 12 8 0 12 3 15 8 8 4
-7 16 -14 27 -16z m1295 -37 c0 -23 -5 -30 -25 -33 -14 -3 -25 -1 -25 3 0 5
10 10 23 10 l22 2 -22 4 c-13 2 -23 9 -23 14 0 5 10 10 23 10 20 2 20 2 -3 7
-23 4 -24 5 -5 12 27 10 35 4 35 -29z m-1414 18 c4 -8 38 -9 108 -4 55 4 98 5
95 1 -3 -3 -14 -7 -25 -9 -10 -1 -24 -6 -31 -10 -6 -4 -14 -1 -17 5 -5 11 -7
11 -12 0 -3 -6 -10 -10 -15 -6 -5 3 -9 0 -9 -5 0 -7 -15 -9 -37 -6 -43 6 -83
24 -83 37 0 12 18 10 26 -3z m1305 -74 c24 -23 25 -55 1 -55 -26 0 -34 11 -20
27 10 12 7 13 -18 8 -28 -6 -28 -6 -10 9 20 16 20 16 0 16 -16 0 -17 2 -4 10
13 9 13 11 0 20 -13 8 -12 10 5 11 11 0 15 3 8 6 -10 3 -10 7 0 18 10 10 13 7
15 -20 2 -18 12 -41 23 -50z m36 79 c-3 -3 -12 -4 -19 -1 -8 3 -5 6 6 6 11 1
17 -2 13 -5z m-1437 -25 c0 -5 5 -7 10 -4 6 3 10 -3 10 -15 0 -12 -4 -18 -10
-15 -5 3 -10 1 -10 -4 0 -6 4 -11 9 -11 4 0 13 -25 19 -56 14 -66 77 -191 102
-199 9 -3 28 -1 41 4 13 5 18 10 11 10 -10 1 -10 6 -2 21 6 11 16 17 25 14 8
-4 15 -1 15 6 0 6 -4 8 -10 5 -15 -10 -12 6 6 26 9 10 23 15 32 12 14 -4 15
-3 2 5 -16 12 -11 19 69 104 32 34 47 44 53 35 6 -9 10 -9 17 2 8 12 13 12 34
-2 31 -20 36 -72 6 -64 -12 3 -19 0 -19 -10 0 -8 -9 -17 -20 -20 -11 -3 -20
-12 -20 -20 0 -8 -4 -11 -10 -8 -6 3 -10 -3 -10 -14 0 -12 -7 -21 -16 -21 -8
0 -13 -4 -10 -9 3 -5 -9 -20 -27 -35 -17 -15 -33 -31 -33 -36 -1 -6 -2 -14 -3
-20 0 -5 -8 -7 -16 -4 -8 4 -15 1 -15 -6 0 -6 5 -8 10 -5 15 9 12 -7 -5 -29
-8 -11 -15 -14 -15 -7 0 7 -5 9 -11 5 -8 -4 -8 -9 -1 -13 7 -4 6 -26 -4 -66
-7 -33 -14 -82 -14 -109 0 -42 -2 -47 -15 -36 -10 9 -15 9 -15 1 0 -12 -48
-15 -74 -5 -9 3 -16 13 -16 21 0 8 5 11 10 8 6 -3 10 -1 10 4 0 6 -4 11 -10
11 -5 0 -10 7 -10 15 0 8 7 15 15 15 16 0 21 16 7 22 -5 2 -12 20 -15 41 -3
22 -2 35 4 32 5 -4 9 -2 9 3 0 6 -7 12 -15 16 -9 3 -12 12 -8 22 4 11 3 15 -4
11 -6 -4 -21 5 -32 19 -22 28 -28 50 -11 39 6 -3 10 -2 10 4 0 16 -18 22 -23
9 -3 -8 -9 -3 -15 12 -5 14 -6 26 -1 28 15 6 10 22 -7 22 -11 0 -14 5 -10 17
4 10 -1 23 -14 35 -23 21 -26 48 -8 66 9 9 8 12 -5 12 -9 0 -17 7 -17 15 0 8
6 15 13 15 9 0 9 2 -1 8 -9 6 -10 15 -3 35 13 34 61 63 61 36z m1279 -65 c-9
-11 -9 -17 1 -29 8 -10 9 -15 2 -15 -6 0 -15 6 -19 14 -4 7 -15 15 -23 18 -11
4 -9 8 10 16 20 9 21 11 6 11 -18 1 -18 2 -1 21 14 15 15 20 4 21 -8 0 -5 4 6
8 17 7 20 4 23 -21 2 -16 -2 -36 -9 -44z m157 49 c-3 -8 -6 -19 -6 -25 0 -6
-6 -5 -15 2 -13 11 -13 15 -3 21 10 7 10 9 1 9 -7 0 -13 4 -13 9 0 5 9 7 21 4
12 -4 18 -11 15 -20z m543 1 c15 -15 11 -16 -52 -11 -70 5 -83 9 -74 24 10 16
109 6 126 -13z m-149 6 c0 -5 -7 -10 -15 -10 -8 0 -15 5 -15 10 0 6 7 10 15
10 8 0 15 -4 15 -10z m-275 -10 c3 -5 -1 -10 -10 -10 -9 0 -13 5 -10 10 3 6 8
10 10 10 2 0 7 -4 10 -10z m-950 -10 c3 -6 -1 -7 -9 -4 -18 7 -21 14 -7 14 6
0 13 -4 16 -10z m1445 -15 c0 -18 -57 -29 -112 -21 -24 3 -69 9 -100 12 -32 4
-58 10 -58 15 0 6 49 7 119 3 85 -5 120 -4 125 5 9 14 26 5 26 -14z m-1163 9
c-3 -3 -12 -4 -19 -1 -8 3 -5 6 6 6 11 1 17 -2 13 -5z m320 -41 c-3 -10 -5 -2
-5 17 0 19 2 27 5 18 2 -10 2 -26 0 -35z m448 37 c3 -6 -5 -10 -19 -10 -14 0
-28 5 -31 10 -3 6 5 10 19 10 14 0 28 -4 31 -10z m-479 -37 c-11 -11 -19 6
-11 24 8 17 8 17 12 0 3 -10 2 -21 -1 -24z m353 16 c21 -17 22 -22 10 -30 -17
-10 -41 -11 -64 -2 -15 5 -15 8 6 25 l24 18 -27 -10 c-16 -5 -28 -6 -28 0 0 5
10 11 23 13 12 2 24 5 27 5 3 1 16 -8 29 -19z m88 -11 c34 -33 43 -58 20 -58
-7 0 -29 -11 -50 -25 -35 -24 -57 -26 -57 -4 0 5 8 10 18 10 9 1 4 4 -12 8
-43 9 -43 27 0 38 43 10 56 32 24 40 -16 4 -18 8 -8 14 21 14 30 11 65 -23z
m-1320 -10 c-3 -7 -5 -2 -5 12 0 14 2 19 5 13 2 -7 2 -19 0 -25z m358 22 c3
-5 1 -10 -4 -10 -6 0 -11 5 -11 10 0 6 2 10 4 10 3 0 8 -4 11 -10z m115 -19
c0 -26 -3 -28 -27 -23 -19 4 -22 7 -11 10 9 2 20 12 23 23 9 27 15 24 15 -10z
m110 25 c0 -3 -4 -8 -10 -11 -5 -3 -10 -1 -10 4 0 6 5 11 10 11 6 0 10 -2 10
-4z m-631 -67 c-7 -4 -9 -14 -6 -23 3 -8 2 -18 -3 -21 -11 -7 -12 0 -14 58
l-1 38 18 -22 c13 -16 15 -24 6 -30z m456 41 c8 -13 -5 -13 -25 0 -13 8 -13
10 2 10 9 0 20 -4 23 -10z m365 1 c0 -8 -110 -4 -119 5 -2 2 23 4 57 4 34 0
62 -4 62 -9z m255 -1 c3 -5 1 -10 -4 -10 -6 0 -11 5 -11 10 0 6 2 10 4 10 3 0
8 -4 11 -10z m-1265 -4 c0 -3 -4 -8 -10 -11 -5 -3 -10 -1 -10 4 0 6 5 11 10
11 6 0 10 -2 10 -4z m835 -6 c-3 -5 -13 -10 -20 -10 -9 0 -12 -6 -8 -16 4 -10
9 -12 16 -5 5 5 15 7 22 5 8 -3 12 2 12 13 -2 14 5 17 38 14 22 -1 42 -5 44
-7 3 -3 -6 -16 -20 -30 -17 -16 -43 -27 -78 -33 -50 -8 -53 -7 -63 15 -9 19
-8 28 7 44 18 20 62 29 50 10z m300 -44 c17 -39 5 -52 -32 -38 -15 6 -42 14
-59 17 -29 6 -73 40 -63 49 2 2 22 8 44 13 55 13 94 -1 110 -41z m813 48 c48
-13 20 -26 -45 -21 -82 6 -76 5 -68 17 7 11 77 13 113 4z m-725 -29 c15 -1 40
-3 57 -4 51 -2 96 -70 48 -72 -22 0 -22 -1 -3 -8 12 -5 23 -4 27 3 8 13 11 10
59 -59 l35 -50 -18 -35 c-9 -19 -23 -60 -29 -90 l-12 -55 -59 -2 c-32 0 -58 3
-58 8 0 5 24 10 53 11 l52 2 -55 3 c-38 3 -50 7 -40 13 10 7 11 10 3 10 -7 0
-13 5 -13 10 0 6 21 11 48 12 l47 2 -47 3 c-61 5 -62 21 -2 21 56 0 75 15 45
34 -11 7 -21 16 -21 21 0 4 3 6 8 3 4 -2 23 -1 42 4 25 6 4 8 -75 8 -69 0
-101 -3 -85 -8 25 -8 25 -8 -5 -10 -16 -1 -33 -2 -37 -1 -5 0 -8 -6 -8 -15 0
-8 4 -13 9 -10 5 3 12 -1 15 -10 6 -15 8 -15 24 2 13 15 28 18 67 16 28 -2 55
-8 60 -14 7 -7 -7 -9 -47 -6 -51 4 -58 2 -58 -14 0 -12 -7 -18 -22 -18 -13 0
-29 -4 -37 -9 -11 -7 -10 -11 7 -20 11 -6 29 -11 39 -11 15 0 16 -2 3 -10 -10
-6 -11 -10 -2 -10 6 0 12 -4 12 -10 0 -5 -12 -10 -26 -10 -14 0 -23 4 -19 10
3 6 -3 10 -14 10 -28 0 -27 -18 2 -24 12 -3 31 -7 42 -9 14 -3 12 -5 -7 -6
-16 0 -28 -6 -28 -11 0 -6 11 -8 25 -4 21 5 25 3 25 -14 0 -12 5 -24 11 -27 6
-4 10 -1 8 6 -4 33 3 37 61 41 58 3 60 2 60 -22 0 -14 -4 -30 -8 -36 -5 -8
-136 -13 -417 -18 l-410 -6 0 102 c0 57 4 109 8 116 5 7 6 21 2 30 -6 15 -8
15 -15 -3 -6 -17 -8 -16 -14 12 -6 24 -2 40 16 67 27 42 58 49 51 12 -4 -18 0
-26 17 -31 26 -8 69 1 90 20 8 7 24 15 35 17 11 3 -14 8 -56 12 -77 8 -130 25
-79 26 20 0 22 2 10 10 -12 7 -12 12 -2 22 10 10 14 10 21 -1 12 -18 90 -18
102 0 5 8 2 20 -8 31 -15 17 -15 18 5 18 12 0 23 -9 27 -21 6 -17 12 -20 38
-15 17 3 61 9 99 13 37 3 68 10 68 15 0 4 -10 7 -22 5 -13 -2 -17 -2 -10 0 6
3 12 12 12 20 0 12 7 9 26 -11 15 -14 45 -31 68 -37 22 -6 52 -15 66 -19 32
-9 50 -3 50 17 0 11 6 14 23 8 68 -21 102 -23 117 -9 13 14 13 17 -5 30 -19
15 -34 15 -107 -2 -17 -4 -28 -2 -28 4 0 6 10 13 23 15 19 4 18 4 -5 6 -16 0
-28 6 -28 12 0 7 8 9 23 4 12 -4 34 -8 50 -10z m192 -5 c4 -6 -5 -10 -19 -10
-14 0 -26 5 -26 10 0 6 9 10 19 10 11 0 23 -4 26 -10z m575 1 c0 -11 -31 -24
-39 -16 -3 3 1 10 9 15 19 12 30 12 30 1z m-1263 -7 c-3 -3 -12 -4 -19 -1 -8
3 -5 6 6 6 11 1 17 -2 13 -5z m1190 -10 c2 -6 -3 -14 -11 -17 -8 -3 -16 2 -19
14 -4 15 -1 19 10 17 9 -2 18 -8 20 -14z m-1340 -11 c-9 -9 -19 -14 -23 -11
-10 10 6 28 24 28 15 0 15 -1 -1 -17z m1263 7 c0 -5 -2 -10 -4 -10 -3 0 -8 5
-11 10 -3 6 -1 10 4 10 6 0 11 -4 11 -10z m-1974 -37 c-11 -11 -19 6 -11 24 8
17 8 17 12 0 3 -10 2 -21 -1 -24z m804 33 c0 -2 -7 -7 -16 -10 -8 -3 -12 -2
-9 4 6 10 25 14 25 6z m700 -6 c0 -5 -4 -10 -10 -10 -5 0 -10 5 -10 10 0 6 5
10 10 10 6 0 10 -4 10 -10z m650 6 c0 -3 -4 -8 -10 -11 -5 -3 -10 -1 -10 4 0
6 5 11 10 11 6 0 10 -2 10 -4z m-33 -22 c14 -13 14 -17 2 -24 -12 -8 -15 -21
-18 -79 -1 -10 -4 -11 -15 -2 -8 7 -12 20 -9 30 5 19 -31 61 -51 61 -6 0 -4 5
4 10 8 5 22 7 32 4 9 -2 19 0 23 6 8 14 14 13 32 -6z m-1827 -24 c0 -17 -15
-11 -28 11 -12 19 -11 19 8 9 11 -6 20 -15 20 -20z m276 8 c4 -13 2 -24 -4
-26 -7 -2 0 -18 15 -37 19 -24 30 -30 35 -22 6 9 8 9 8 0 0 -22 -19 -24 -54
-8 -19 9 -40 14 -45 10 -6 -3 -11 2 -11 12 0 24 -19 43 -43 43 -16 0 -17 3 -7
15 7 8 16 13 20 10 5 -3 11 1 13 7 4 8 6 7 6 -3 1 -14 20 -29 37 -29 2 0 4 11
4 25 0 31 16 33 26 3z m1124 12 c-20 -13 -33 -13 -25 0 3 6 14 10 23 10 15 0
15 -2 2 -10z m80 6 c0 -9 -30 -14 -35 -6 -4 6 3 10 14 10 12 0 21 -2 21 -4z
m-1520 -31 c0 -8 -2 -15 -4 -15 -2 0 -6 7 -10 15 -3 8 -1 15 4 15 6 0 10 -7
10 -15z m478 3 c-3 -7 -12 -14 -21 -16 -12 -2 -15 1 -11 12 7 19 38 22 32 4z
m97 2 c3 -5 1 -10 -4 -10 -6 0 -11 5 -11 10 0 6 2 10 4 10 3 0 8 -4 11 -10z
m783 -7 c6 -19 -45 -16 -52 3 -5 12 0 15 21 12 14 -2 28 -9 31 -15z m107 7 c4
-6 -5 -10 -20 -10 -15 0 -24 4 -20 10 3 6 12 10 20 10 8 0 17 -4 20 -10z m92
-5 c8 -9 12 -19 9 -23 -4 -3 -10 -2 -14 4 -10 16 -42 13 -42 -4 0 -9 -3 -13
-6 -9 -10 10 7 47 22 47 9 0 22 -7 31 -15z m-1797 -9 c0 -3 -4 -8 -10 -11 -5
-3 -10 -1 -10 4 0 6 5 11 10 11 6 0 10 -2 10 -4z m639 -22 c-6 -7 -7 -18 -3
-25 4 -7 2 -10 -6 -7 -24 8 -37 37 -21 47 21 14 44 2 30 -15z m-419 6 c0 -5
-5 -10 -11 -10 -5 0 -7 5 -4 10 3 6 8 10 11 10 2 0 4 -4 4 -10z m1489 5 c-9
-8 -79 -35 -79 -30 0 7 53 34 69 35 8 0 12 -2 10 -5z m-1459 -13 c0 -19 -39
-44 -57 -36 -16 7 -15 8 5 12 13 2 26 10 29 18 6 15 23 19 23 6z m1315 -18
c17 -26 15 -41 -4 -29 -6 3 -9 10 -6 15 3 4 -2 10 -10 14 -8 3 -15 10 -15 16
0 18 17 10 35 -16z m585 16 c0 -5 -5 -10 -11 -10 -5 0 -7 5 -4 10 3 6 8 10 11
10 2 0 4 -4 4 -10z m-310 -25 c9 -11 7 -12 -9 -8 -12 3 -27 0 -35 -6 -11 -9
-15 -8 -20 5 -12 32 39 39 64 9z m-102 4 c-24 -13 -23 -24 5 -38 20 -10 19
-11 -13 -7 -30 4 -32 3 -16 -7 10 -7 28 -19 40 -29 21 -16 21 -16 -9 -11 -42
8 -86 63 -50 63 8 0 15 5 15 10 0 9 -26 7 -67 -5 -6 -2 -14 -1 -18 3 -9 9 61
30 100 31 25 0 27 -1 13 -10z m-1736 -25 c-18 -13 -22 -24 -21 -70 1 -46 5
-54 20 -54 11 0 19 -3 19 -6 0 -8 -32 -33 -42 -34 -5 0 -8 40 -8 89 0 85 1 90
23 93 31 5 34 0 9 -18z m443 -12 c-8 -8 -25 10 -25 26 0 13 2 13 14 -4 8 -10
13 -21 11 -22z m25 28 c0 -5 -4 -10 -10 -10 -5 0 -10 5 -10 10 0 6 5 10 10 10
6 0 10 -4 10 -10z m317 4 c-3 -3 -12 -4 -19 -1 -8 3 -5 6 6 6 11 1 17 -2 13
-5z m33 -14 c0 -5 -7 -10 -16 -10 -8 0 -12 5 -9 10 3 6 10 10 16 10 5 0 9 -4
9 -10z m-430 -11 c0 -5 14 -23 32 -39 26 -24 32 -37 32 -70 0 -37 1 -39 17
-24 10 9 22 13 28 10 16 -10 1 -36 -20 -36 -11 0 -19 -7 -19 -16 0 -9 -6 -14
-12 -11 -8 2 -12 20 -11 46 2 37 0 41 -22 41 -21 0 -23 3 -18 34 4 26 1 36
-16 48 -11 8 -18 18 -14 21 10 10 23 8 23 -4z m260 1 c0 -5 -4 -10 -10 -10 -5
0 -10 5 -10 10 0 6 5 10 10 10 6 0 10 -4 10 -10z m1190 -3 c8 -7 23 -28 33
-47 l18 -35 -20 25 c-12 14 -31 35 -43 48 -24 23 -14 30 12 9z m-1073 -3 c-3
-3 -12 -4 -19 -1 -8 3 -5 6 6 6 11 1 17 -2 13 -5z m-718 -28 c8 -13 11 -29 7
-34 -3 -6 0 -13 6 -15 8 -3 6 -6 -4 -6 -13 -1 -18 7 -18 25 0 18 -6 28 -21 31
-16 4 -17 8 -7 14 20 13 23 11 37 -15z m399 8 c12 -8 27 -12 32 -9 6 3 10 2
10 -4 0 -16 -19 -23 -32 -11 -7 6 -22 17 -33 25 -11 8 -15 15 -10 15 6 0 21
-7 33 -16z m112 6 c5 8 12 11 16 7 4 -4 -3 -16 -15 -26 -19 -16 -26 -18 -42
-8 -33 20 -32 36 2 23 24 -9 32 -8 39 4z m1122 -19 c15 -16 32 -31 39 -33 7
-2 9 -9 5 -17 -5 -7 -15 -10 -23 -7 -9 4 -17 -1 -20 -14 l-6 -21 -18 20 c-11
11 -19 31 -19 45 0 14 -5 28 -10 31 -13 8 -3 25 14 25 7 0 24 -13 38 -29z
m-1312 -13 c0 -5 -10 -8 -22 -8 -21 -1 -21 -2 -5 -11 9 -5 17 -15 17 -20 0 -6
-5 -7 -10 -4 -12 7 -40 -12 -40 -27 0 -6 9 -8 20 -5 13 3 20 0 20 -9 0 -8 -7
-14 -16 -14 -9 0 -21 -13 -27 -30 -11 -28 -37 -42 -37 -20 0 6 4 10 9 10 5 0
7 9 4 20 -4 16 -2 19 11 14 9 -3 16 -1 16 4 0 6 -7 12 -15 14 -12 2 -8 16 21
61 27 43 39 55 45 45 5 -7 9 -16 9 -20z m1450 18 c0 -2 -7 -9 -15 -16 -13 -11
-14 -10 -9 4 5 14 24 23 24 12z m-230 -10 c0 -3 -4 -8 -10 -11 -5 -3 -10 -1
-10 4 0 6 5 11 10 11 6 0 10 -2 10 -4z m30 -27 c0 -10 -4 -19 -10 -19 -5 0
-10 12 -10 26 0 14 4 23 10 19 6 -3 10 -15 10 -26z m219 2 c-15 -5 -22 6 -14
19 6 9 10 9 16 -1 5 -8 4 -15 -2 -18z m-390 15 c-10 -11 -69 -16 -69 -6 0 5
17 10 37 10 20 0 34 -2 32 -4z m-902 -33 c15 -16 24 -21 20 -11 -4 11 1 18 16
22 26 7 35 0 19 -16 -22 -22 -14 -39 14 -32 24 6 25 5 13 -14 -8 -12 -19 -18
-28 -14 -13 5 -13 3 2 -12 9 -9 17 -24 17 -32 0 -7 9 -19 20 -26 26 -17 25
-25 -5 -30 -21 -5 -24 -2 -19 17 5 21 -20 54 -32 42 -9 -9 -8 -49 1 -72 7 -16
6 -18 -6 -7 -7 6 -24 12 -37 12 -31 0 -26 -34 6 -38 12 -2 22 -8 22 -13 0 -14
-48 -11 -53 4 -4 10 -7 10 -18 0 -7 -7 -32 -13 -55 -13 -33 0 -47 5 -58 22
-20 28 -20 48 -1 48 9 0 15 -9 15 -24 0 -27 15 -42 24 -27 4 5 22 7 41 4 39
-6 48 9 15 27 -26 14 -26 34 1 27 24 -6 74 35 84 71 5 17 -2 30 -29 57 -20 19
-36 39 -36 45 0 18 20 11 47 -17z m-532 7 c3 -5 1 -10 -4 -10 -6 0 -11 5 -11
10 0 6 2 10 4 10 3 0 8 -4 11 -10z m1815 -21 c0 -11 -4 -17 -10 -14 -5 3 -10
13 -10 21 0 8 5 14 10 14 6 0 10 -9 10 -21z m-279 -23 c-11 -27 -24 -37 -16
-11 3 8 7 22 10 31 3 9 8 15 11 12 2 -3 0 -17 -5 -32z m349 -9 c0 -6 -9 -2
-20 8 -11 10 -20 23 -20 28 0 6 9 2 20 -8 11 -10 20 -23 20 -28z m30 39 c0 -3
-4 -8 -10 -11 -5 -3 -10 -1 -10 4 0 6 5 11 10 11 6 0 10 -2 10 -4z m-330 -16
c0 -5 -5 -10 -11 -10 -5 0 -7 5 -4 10 3 6 8 10 11 10 2 0 4 -4 4 -10z m-1493
-15 c22 -23 13 -26 -32 -12 -36 11 -37 12 -14 18 13 4 25 7 27 8 2 1 10 -6 19
-14z m1651 -3 c6 -18 -15 -14 -22 4 -4 10 -1 14 6 12 6 -2 14 -10 16 -16z
m-1335 -8 c-4 -11 -53 -7 -53 5 0 3 13 6 29 6 17 0 27 -5 24 -11z m127 -29 c0
-13 -8 -33 -18 -45 -14 -18 -23 -21 -43 -14 -24 8 -24 8 6 14 28 5 30 8 27 49
-2 39 -1 42 13 31 8 -7 15 -23 15 -35z m1310 15 c-24 -16 -31 -11 -19 11 8 16
14 18 22 10 9 -9 8 -14 -3 -21z m82 8 c-7 -7 -12 -8 -12 -2 0 14 12 26 19 19
2 -3 -1 -11 -7 -17z m-288 -10 c9 -34 7 -43 -4 -32 -14 14 -21 54 -11 54 5 0
11 -10 15 -22z m-1586 -6 c2 -8 -3 -10 -13 -6 -10 4 -26 -2 -41 -16 -19 -19
-24 -20 -24 -7 0 33 68 58 78 29z m587 -30 c-11 -11 -27 17 -20 35 6 16 8 16
16 -6 5 -13 7 -26 4 -29z m715 38 c0 -5 -6 -10 -14 -10 -8 0 -18 5 -21 10 -3
6 3 10 14 10 12 0 21 -4 21 -10z m591 -23 c-8 -8 -11 -7 -11 4 0 20 13 34 18
19 3 -7 -1 -17 -7 -23z m-341 1 c21 -23 27 -44 9 -32 -8 4 -9 0 -4 -15 5 -16
3 -20 -9 -15 -18 7 -21 20 -6 29 16 10 12 22 -10 28 -11 3 -20 10 -20 16 0 18
18 13 40 -11z m165 12 c3 -5 2 -10 -4 -10 -19 0 -24 -68 -7 -95 16 -24 15 -25
-3 -25 -11 0 -21 -5 -23 -11 -2 -7 -10 -10 -17 -8 -10 4 -9 9 5 24 17 17 17
18 2 12 -10 -3 -18 -2 -18 2 0 5 -14 8 -31 7 -18 0 -34 5 -36 12 -3 7 4 12 16
12 23 0 33 10 61 58 19 32 43 41 55 22z m145 -15 c13 -14 34 -25 46 -25 34 0
37 -14 8 -39 -20 -17 -29 -20 -40 -10 -11 9 -15 8 -20 -5 -10 -26 -23 -19 -22
12 0 15 -3 42 -7 60 -9 39 3 41 35 7z m-1840 -20 c-14 -27 -40 -34 -40 -11 0
14 41 47 49 40 2 -2 -2 -15 -9 -29z m340 -7 c0 -4 -6 -8 -14 -8 -8 0 -13 11
-13 27 0 25 0 26 13 8 8 -10 14 -22 14 -27z m1257 20 c-3 -8 -6 -5 -6 6 -1 11
2 17 5 13 3 -3 4 -12 1 -19z m-1566 -31 c-13 -13 -15 1 -4 30 7 17 8 17 11 -1
2 -10 -1 -23 -7 -29z m399 28 c0 -8 -9 -15 -20 -15 -11 0 -20 7 -20 15 0 8 9
15 20 15 11 0 20 -7 20 -15z m1053 3 c14 -15 19 -100 6 -92 -5 3 -9 12 -9 20
0 8 -12 19 -26 24 -16 6 -23 14 -18 22 11 20 26 38 31 38 2 0 10 -6 16 -12z
m287 2 c0 -5 -5 -10 -11 -10 -5 0 -7 5 -4 10 3 6 8 10 11 10 2 0 4 -4 4 -10z
m150 0 c12 -8 11 -10 -7 -10 -13 0 -23 5 -23 10 0 13 11 13 30 0z m-200 -10
c0 -5 -7 -10 -15 -10 -8 0 -15 5 -15 10 0 6 7 10 15 10 8 0 15 -4 15 -10z
m-1446 -9 c13 -20 -7 -39 -47 -44 -49 -7 -60 -1 -25 12 14 5 28 17 31 25 7 17
32 22 41 7z m-387 -23 c-3 -8 -6 -5 -6 6 -1 11 2 17 5 13 3 -3 4 -12 1 -19z
m1913 -10 c0 -5 -5 -6 -11 -2 -7 4 -9 0 -5 -14 4 -11 3 -23 -2 -26 -6 -3 -12
5 -14 19 -3 14 -1 25 3 25 5 0 5 8 2 18 -6 15 -5 15 10 3 9 -7 17 -18 17 -23z
m-1440 8 c0 -18 -22 -26 -49 -19 -31 8 -25 21 12 26 17 2 33 5 35 5 1 1 2 -4
2 -12z m1030 4 c11 -7 -1 -9 -40 -9 -46 1 -50 3 -25 9 43 11 48 11 65 0z m315
0 c3 -5 1 -10 -4 -10 -6 0 -11 5 -11 10 0 6 2 10 4 10 3 0 8 -4 11 -10z
m-1732 -17 c12 -7 8 -21 -9 -27 -17 -6 -54 19 -54 36 0 8 44 1 63 -9z m1774
-15 c-3 -7 -5 -2 -5 12 0 14 2 19 5 13 2 -7 2 -19 0 -25z m193 -10 c0 -5 -4
-8 -10 -8 -5 0 -10 10 -10 23 0 18 2 19 10 7 5 -8 10 -18 10 -22z m-2030 7
c14 -16 10 -18 -14 -9 -9 3 -16 10 -16 15 0 14 16 11 30 -6z m120 11 c0 -11
-19 -15 -25 -6 -3 5 1 10 9 10 9 0 16 -2 16 -4z m1521 -23 c13 -16 12 -17 -3
-4 -10 7 -18 15 -18 17 0 8 8 3 21 -13z m169 7 c0 -5 -4 -10 -9 -10 -6 0 -13
5 -16 10 -3 6 1 10 9 10 9 0 16 -4 16 -10z m-1518 -11 c2 -7 12 -7 30 0 30 11
38 6 38 -26 0 -26 -21 -31 -40 -8 -7 8 -21 15 -31 15 -11 0 -19 7 -19 15 0 17
17 20 22 4z m-307 -9 c3 -5 1 -10 -4 -10 -6 0 -11 5 -11 10 0 6 2 10 4 10 3 0
8 -4 11 -10z m1640 0 c3 -5 1 -10 -4 -10 -6 0 -11 5 -11 10 0 6 2 10 4 10 3 0
8 -4 11 -10z m365 -5 c0 -8 -4 -15 -10 -15 -5 0 -7 7 -4 15 4 8 8 15 10 15 2
0 4 -7 4 -15z m-140 -11 c0 -8 -4 -12 -10 -9 -5 3 -10 10 -10 16 0 5 5 9 10 9
6 0 10 -7 10 -16z m75 -3 c-8 -14 -32 -14 -41 1 -5 8 0 9 14 6 13 -4 22 -1 22
5 0 6 3 8 6 4 3 -3 3 -10 -1 -16z m35 9 c0 -5 -5 -10 -11 -10 -5 0 -7 5 -4 10
3 6 8 10 11 10 2 0 4 -4 4 -10z m-1300 -10 c0 -5 -13 -10 -30 -10 -16 0 -30 5
-30 10 0 6 14 10 30 10 17 0 30 -4 30 -10z m895 0 c3 -5 2 -10 -4 -10 -5 0
-13 5 -16 10 -3 6 -2 10 4 10 5 0 13 -4 16 -10z m45 0 c0 -5 -4 -10 -9 -10 -6
0 -13 5 -16 10 -3 6 1 10 9 10 9 0 16 -4 16 -10z m-1587 -17 c-7 -2 -21 -2
-30 0 -10 3 -4 5 12 5 17 0 24 -2 18 -5z"/>
<path d="M1018 3778 c-21 -5 -21 -6 5 -7 19 -1 33 -10 47 -33 29 -47 22 -64
-23 -60 -20 2 -37 -1 -37 -6 0 -5 34 -8 75 -8 41 0 75 4 75 8 0 5 -5 8 -11 8
-21 0 36 84 61 91 15 4 -16 8 -72 10 -54 2 -108 1 -120 -3z m132 -17 c0 -5 -5
-22 -10 -37 -9 -24 -13 -25 -24 -13 -8 8 -17 24 -21 37 -6 19 -3 22 24 22 17
0 31 -4 31 -9z"/>
<path d="M1105 3508 c6 -27 -8 -53 -24 -44 -6 4 -11 16 -11 27 0 12 -7 19 -20
19 -11 0 -20 -4 -20 -10 0 -5 4 -10 8 -10 8 0 32 -43 32 -56 0 -2 -11 3 -24
11 -23 15 -25 15 -39 -6 -12 -17 -13 -26 -4 -40 6 -10 13 -16 16 -14 2 3 -2
11 -9 20 -10 12 -9 15 6 16 11 0 14 3 6 6 -6 2 -10 9 -7 13 9 15 35 -1 35 -22
0 -14 6 -19 23 -16 16 2 21 9 20 25 -3 23 23 51 35 38 4 -4 1 -10 -5 -12 -7
-3 -13 -10 -13 -16 0 -8 4 -7 12 1 18 18 30 14 26 -10 -2 -11 3 -23 10 -25 7
-3 12 5 12 21 0 14 3 26 8 26 4 0 7 14 7 30 0 17 -5 30 -12 30 -7 0 -13 -12
-13 -26 0 -16 -5 -24 -12 -21 -7 2 -12 18 -12 36 2 24 -2 31 -17 31 -15 0 -18
-5 -14 -22z"/>
<path d="M1950 3520 c0 -5 5 -10 10 -10 6 0 10 5 10 10 0 6 -4 10 -10 10 -5 0
-10 -4 -10 -10z"/>
<path d="M1204 3432 c0 -54 -6 -72 -24 -82 -19 -10 -20 -10 -8 9 7 11 9 24 5
28 -5 4 -12 1 -17 -7 -7 -11 -11 -11 -24 -1 -13 11 -19 11 -32 0 -13 -10 -17
-10 -25 2 -7 10 -8 7 -4 -12 4 -17 1 -30 -9 -39 -20 -15 -4 -40 25 -40 22 0
27 45 7 54 -9 3 -7 9 6 20 26 21 41 6 41 -42 0 -27 5 -37 18 -40 13 -3 17 3
17 26 0 18 6 32 16 36 24 9 28 7 15 -7 -8 -10 -7 -14 4 -14 17 0 20 23 4 33
-7 4 -9 21 -5 45 3 21 2 40 -2 43 -5 3 -8 -3 -8 -12z m-107 -128 c-9 -9 -28 6
-21 18 4 6 10 6 17 -1 6 -6 8 -13 4 -17z m73 -5 c0 -5 -4 -9 -10 -9 -5 0 -10
7 -10 16 0 8 5 12 10 9 6 -3 10 -10 10 -16z"/>
<path d="M1621 3433 l46 -4 22 -74 c13 -46 33 -88 51 -108 20 -23 26 -37 19
-44 -6 -6 -9 -23 -6 -39 4 -29 4 -28 6 4 1 22 6 32 17 32 11 0 14 -6 9 -22 -6
-22 -5 -22 9 -4 14 17 17 17 59 1 25 -9 53 -15 63 -12 14 3 12 5 -7 6 -14 0
-52 14 -85 31 -71 36 -102 77 -125 169 l-17 66 -53 1 c-49 1 -50 1 -8 -3z"/>
<path d="M1560 3362 c0 -83 20 -141 74 -211 44 -58 46 -61 24 -62 -13 -1 0 -5
27 -9 55 -8 65 -6 65 15 0 7 -16 17 -36 22 -41 9 -46 29 -6 26 15 -1 19 1 10
3 -10 3 -18 10 -18 15 0 5 -15 10 -32 10 -32 2 -32 2 7 9 l40 7 -37 3 c-53 4
-55 4 -64 13 -4 4 17 8 47 8 l54 2 -52 6 c-64 8 -80 20 -27 23 l39 1 -45 7
c-43 7 -44 7 -10 9 36 3 34 5 -13 15 -15 4 -25 11 -22 16 3 5 13 7 23 4 9 -3
6 2 -8 10 l-25 15 25 1 c14 1 19 4 10 7 -43 14 -44 16 -15 23 l30 8 -30 2
c-30 2 -30 2 -5 10 l25 8 -25 2 -25 2 25 8 25 8 -25 2 c-24 2 -23 3 5 10 l30
8 -32 1 -33 1 0 -58z m165 -262 c3 -6 -1 -7 -9 -4 -18 7 -21 14 -7 14 6 0 13
-4 16 -10z"/>
<path d="M1630 3399 c0 -5 5 -7 10 -4 6 3 10 8 10 11 0 2 -4 4 -10 4 -5 0 -10
-5 -10 -11z"/>
<path d="M972 3377 c-8 -9 -7 -20 3 -37 8 -14 20 -38 26 -53 6 -15 16 -26 23
-24 16 5 20 48 6 57 -7 5 -9 16 -5 29 5 18 9 20 21 10 8 -6 17 -10 19 -7 3 3
-2 11 -11 19 -14 11 -19 10 -35 -9 -10 -13 -15 -31 -12 -40 4 -13 2 -12 -10 3
-20 24 -22 51 -4 58 7 4 8 6 1 6 -6 1 -16 -5 -22 -12z m58 -88 c0 -6 -4 -7
-10 -4 -5 3 -10 11 -10 16 0 6 5 7 10 4 6 -3 10 -11 10 -16z"/>
<path d="M1237 3374 c-8 -8 3 -34 14 -34 11 0 12 27 0 34 -4 3 -11 3 -14 0z"/>
<path d="M949 3308 c-1 -13 -1 -26 0 -30 0 -5 -3 -8 -9 -8 -15 0 -12 -37 3
-43 19 -7 50 20 44 38 -4 8 -12 14 -19 13 -8 -2 -12 6 -10 25 2 15 1 27 -2 27
-3 0 -7 -10 -7 -22z m16 -66 c-8 -8 -25 10 -19 20 4 6 9 5 15 -3 4 -7 6 -15 4
-17z"/>
<path d="M1235 3313 c-31 -8 -40 -20 -25 -38 18 -21 29 -19 40 10 5 14 14 25
19 25 6 0 8 -7 5 -15 -4 -9 0 -15 9 -15 9 0 19 -5 23 -12 5 -7 2 -9 -9 -5 -21
8 -44 -20 -29 -35 7 -7 16 -6 31 4 12 8 18 18 14 21 -3 4 1 7 10 7 22 0 22
-29 1 -37 -9 -3 -14 -13 -11 -24 3 -10 -2 -27 -10 -38 -14 -21 -10 -41 7 -41
15 0 40 68 40 106 0 27 -5 36 -24 43 -13 5 -26 19 -29 30 -5 21 -20 24 -62 14z
m-1 -34 c-3 -5 -10 -7 -15 -3 -5 3 -7 10 -3 15 3 5 10 7 15 3 5 -3 7 -10 3
-15z"/>
<path d="M896 3271 c-3 -5 1 -11 9 -15 8 -3 15 -1 15 4 0 13 -18 22 -24 11z"/>
<path d="M1130 3259 c0 -5 5 -7 10 -4 6 3 10 8 10 11 0 2 -4 4 -10 4 -5 0 -10
-5 -10 -11z"/>
<path d="M880 3233 c0 -7 8 -28 17 -47 15 -33 15 -37 0 -54 -24 -26 -21 -32 8
-19 14 7 25 18 25 25 0 7 7 15 15 18 11 5 11 9 2 19 -6 7 -18 10 -24 8 -7 -3
-13 1 -13 9 0 18 -29 58 -30 41z"/>
<path d="M1110 3170 c0 -5 5 -10 11 -10 5 0 7 5 4 10 -3 6 -8 10 -11 10 -2 0
-4 -4 -4 -10z"/>
<path d="M1818 3153 c6 -2 18 -2 25 0 6 3 1 5 -13 5 -14 0 -19 -2 -12 -5z"/>
<path d="M1230 3140 c0 -5 5 -10 10 -10 6 0 10 5 10 10 0 6 -4 10 -10 10 -5 0
-10 -4 -10 -10z"/>
<path d="M1780 3140 c0 -5 5 -10 11 -10 5 0 7 5 4 10 -3 6 -8 10 -11 10 -2 0
-4 -4 -4 -10z"/>
<path d="M1862 3116 c13 -14 28 -12 28 5 0 5 -9 9 -20 9 -17 0 -19 -2 -8 -14z"/>
<path d="M1607 3083 c-10 -9 -9 -23 1 -23 5 0 9 7 9 15 0 17 -1 18 -10 8z"/>
<path d="M1648 3053 c6 -2 18 -2 25 0 6 3 1 5 -13 5 -14 0 -19 -2 -12 -5z"/>
<path d="M1703 3043 c9 -2 17 -11 17 -19 0 -8 5 -12 10 -9 21 13 10 35 -17 34
-17 -1 -21 -3 -10 -6z"/>
<path d="M1775 3030 c-10 -16 4 -30 28 -29 17 1 18 2 5 6 -21 5 -23 19 -5 26
7 3 6 6 -5 6 -9 1 -20 -3 -23 -9z"/>
<path d="M1843 3023 c9 -2 23 -2 30 0 6 3 -1 5 -18 5 -16 0 -22 -2 -12 -5z"/>
<path d="M1368 2843 c12 -2 30 -2 40 0 9 3 -1 5 -23 4 -22 0 -30 -2 -17 -4z"/>
<path d="M1488 2833 c7 -3 16 -2 19 1 4 3 -2 6 -13 5 -11 0 -14 -3 -6 -6z"/>
<path d="M1368 2793 c12 -2 32 -2 45 0 12 2 2 4 -23 4 -25 0 -35 -2 -22 -4z"/>
<path d="M1752 3770 c0 -14 2 -19 5 -12 2 6 2 18 0 25 -3 6 -5 1 -5 -13z"/>
<path d="M1741 3704 c0 -11 3 -14 6 -6 3 7 2 16 -1 19 -3 4 -6 -2 -5 -13z"/>
<path d="M1772 3680 c0 -14 2 -19 5 -12 2 6 2 18 0 25 -3 6 -5 1 -5 -13z"/>
<path d="M1880 3806 c0 -14 5 -28 10 -31 6 -4 10 7 10 24 0 17 -4 31 -10 31
-5 0 -10 -11 -10 -24z"/>
<path d="M1880 3698 c0 -34 2 -59 4 -57 8 10 14 119 5 119 -5 0 -9 -28 -9 -62z"/>
<path d="M2010 3764 c0 -32 2 -55 4 -53 9 10 14 99 5 104 -5 4 -9 -18 -9 -51z"/>
<path d="M2076 3767 c-5 -26 -6 -51 -2 -54 12 -13 17 6 14 53 l-3 49 -9 -48z"/>
<path d="M2147 3753 c-11 -10 -8 -53 3 -53 6 0 10 14 10 30 0 31 -2 35 -13 23z"/>
<path d="M2140 3620 c0 -16 4 -30 8 -30 5 0 9 14 9 30 0 17 -4 30 -9 30 -4 0
-8 -13 -8 -30z"/>
<path d="M2105 3410 c3 -5 14 -10 23 -10 15 0 15 2 2 10 -20 13 -33 13 -25 0z"/>
<path d="M106 3385 c4 -8 10 -15 15 -15 5 0 9 7 9 15 0 8 -7 15 -15 15 -9 0
-12 -6 -9 -15z"/>
<path d="M598 3423 c6 -2 18 -2 25 0 6 3 1 5 -13 5 -14 0 -19 -2 -12 -5z"/>
<path d="M570 3376 c0 -2 7 -7 16 -10 8 -3 12 -2 9 4 -6 10 -25 14 -25 6z"/>
<path d="M623 3363 c9 -2 25 -2 35 0 9 3 1 5 -18 5 -19 0 -27 -2 -17 -5z"/>
<path d="M560 3274 c38 -8 90 -9 90 -2 0 4 -24 7 -52 7 -29 -1 -46 -3 -38 -5z"/>
<path d="M580 3240 l35 -7 -35 -3 c-20 -1 -27 -4 -17 -7 26 -7 69 6 62 17 -3
6 -23 9 -43 9 l-37 -2 35 -7z"/>
<path d="M313 3083 c9 -2 23 -2 30 0 6 3 -1 5 -18 5 -16 0 -22 -2 -12 -5z"/>
<path d="M70 2909 c0 -16 4 -28 9 -25 5 3 9 17 9 31 0 14 -4 25 -9 25 -5 0 -9
-14 -9 -31z"/>
<path d="M201 2924 c0 -11 3 -14 6 -6 3 7 2 16 -1 19 -3 4 -6 -2 -5 -13z"/>
<path d="M222 2820 c0 -19 2 -27 5 -17 2 9 2 25 0 35 -3 9 -5 1 -5 -18z"/>
<path d="M66 2730 c-13 -181 -12 -315 2 -312 15 3 9 -56 -8 -88 -11 -21 -11
-219 0 -330 6 -55 7 -37 4 66 -5 151 3 250 17 204 4 -14 7 97 7 245 -1 284
-11 379 -22 215z"/>
<path d="M220 2773 c0 -4 5 -15 10 -23 8 -13 10 -13 10 2 0 9 -4 20 -10 23 -5
3 -10 3 -10 -2z"/>
<path d="M271 2401 c-1 -57 1 -102 3 -100 8 9 13 156 6 179 -5 16 -8 -14 -9
-79z"/>
<path d="M167 2343 c6 -148 11 -152 12 -10 1 64 -3 117 -7 117 -5 0 -7 -48 -5
-107z"/>
<path d="M193 2370 c0 -25 2 -35 4 -22 2 12 2 32 0 45 -2 12 -4 2 -4 -23z"/>
<path d="M271 2233 c0 -25 1 -26 9 -8 12 27 12 35 0 35 -5 0 -10 -12 -9 -27z"/>
<path d="M302 2195 c0 -16 2 -22 5 -12 2 9 2 23 0 30 -3 6 -5 -1 -5 -18z"/>
<path d="M171 2164 c0 -11 3 -14 6 -6 3 7 2 16 -1 19 -3 4 -6 -2 -5 -13z"/>
<path d="M84 2000 c0 -74 1 -105 3 -67 2 37 2 97 0 135 -2 37 -3 6 -3 -68z"/>
<path d="M169 2023 c4 -21 11 -37 16 -36 14 2 19 23 6 23 -6 0 -11 11 -11 25
0 14 -4 25 -8 25 -5 0 -6 -17 -3 -37z"/>
<path d="M367 2035 c-4 -8 -2 -17 3 -20 6 -4 10 3 10 14 0 25 -6 27 -13 6z"/>
<path d="M143 1965 c0 -38 2 -53 4 -32 2 20 2 52 0 70 -2 17 -4 1 -4 -38z"/>
<path d="M301 1719 c1 -145 5 -309 9 -364 3 -55 5 62 2 260 -3 198 -6 362 -8
364 -2 2 -3 -115 -3 -260z"/>
<path d="M393 1930 c0 -25 2 -35 4 -22 2 12 2 32 0 45 -2 12 -4 2 -4 -23z"/>
<path d="M364 1800 c0 -74 1 -105 3 -67 2 37 2 97 0 135 -2 37 -3 6 -3 -68z"/>
<path d="M422 1870 c0 -14 2 -19 5 -12 2 6 2 18 0 25 -3 6 -5 1 -5 -13z"/>
<path d="M391 1758 c-1 -53 3 -99 8 -102 8 -5 4 165 -4 189 -2 6 -4 -34 -4
-87z"/>
<path d="M63 1790 c0 -25 2 -35 4 -22 2 12 2 32 0 45 -2 12 -4 2 -4 -23z"/>
<path d="M91 1685 c-3 -92 -6 -110 -11 -75 -5 32 -7 14 -7 -65 -1 -70 2 -99 7
-80 5 19 8 -10 8 -80 0 -69 -3 -101 -8 -85 -5 15 -8 -38 -9 -133 -1 -97 3
-156 8 -152 6 3 12 -14 14 -37 2 -24 4 20 5 97 1 93 -2 135 -8 125 -14 -21
-14 35 0 60 7 12 9 118 7 282 -1 156 -4 214 -6 143z"/>
<path d="M342 1760 c0 -14 2 -19 5 -12 2 6 2 18 0 25 -3 6 -5 1 -5 -13z"/>
<path d="M421 1744 c0 -11 3 -14 6 -6 3 7 2 16 -1 19 -3 4 -6 -2 -5 -13z"/>
<path d="M71 1724 c0 -11 3 -14 6 -6 3 7 2 16 -1 19 -3 4 -6 -2 -5 -13z"/>
<path d="M142 1700 c0 -14 2 -19 5 -12 2 6 2 18 0 25 -3 6 -5 1 -5 -13z"/>
<path d="M361 1534 c1 -71 5 -142 9 -159 4 -16 5 40 2 125 -3 85 -6 157 -8
159 -2 2 -3 -54 -3 -125z"/>
<path d="M393 1456 c2 -102 6 -189 10 -192 4 -4 6 77 5 180 0 103 -5 189 -9
192 -5 2 -7 -79 -6 -180z"/>
<path d="M423 1605 c0 -22 2 -30 4 -17 2 12 2 30 0 40 -3 9 -5 -1 -4 -23z"/>
<path d="M342 1600 c0 -19 2 -27 5 -17 2 9 2 25 0 35 -3 9 -5 1 -5 -18z"/>
<path d="M131 1524 c1 -43 5 -92 9 -109 4 -16 5 17 3 75 -6 125 -13 147 -12
34z"/>
<path d="M451 1423 c0 -90 2 -163 7 -163 7 0 5 261 -2 305 -2 11 -4 -53 -5
-142z"/>
<path d="M420 1382 c0 -85 4 -152 9 -152 10 0 8 286 -2 297 -4 3 -7 -62 -7
-145z"/>
<path d="M336 1470 c8 -43 14 -51 14 -19 0 13 -5 31 -10 39 -7 11 -8 5 -4 -20z"/>
<path d="M343 1330 c0 -36 2 -50 4 -32 2 17 2 47 0 65 -2 17 -4 3 -4 -33z"/>
<path d="M223 1315 c0 -38 2 -53 4 -32 2 20 2 52 0 70 -2 17 -4 1 -4 -38z"/>
<path d="M373 1305 c0 -22 2 -30 4 -17 2 12 2 30 0 40 -3 9 -5 -1 -4 -23z"/>
<path d="M143 1285 c0 -22 2 -30 4 -17 2 12 2 30 0 40 -3 9 -5 -1 -4 -23z"/>
<path d="M180 1299 c0 -5 5 -7 10 -4 6 3 10 8 10 11 0 2 -4 4 -10 4 -5 0 -10
-5 -10 -11z"/>
<path d="M125 1150 c-3 -5 -1 -10 4 -10 6 0 11 5 11 10 0 6 -2 10 -4 10 -3 0
-8 -4 -11 -10z"/>
<path d="M61 934 c0 -11 3 -14 6 -6 3 7 2 16 -1 19 -3 4 -6 -2 -5 -13z"/>
<path d="M204 756 c-10 -8 -16 -17 -12 -21 3 -4 16 3 27 14 24 24 15 28 -15 7z"/>
<path d="M368 2843 c7 -3 16 -2 19 1 4 3 -2 6 -13 5 -11 0 -14 -3 -6 -6z"/>
<path d="M418 2793 c6 -2 18 -2 25 0 6 3 1 5 -13 5 -14 0 -19 -2 -12 -5z"/>
<path d="M536 2474 c-4 -9 -4 -19 -1 -22 2 -3 7 3 11 12 4 9 4 19 1 22 -2 3
-7 -3 -11 -12z"/>
<path d="M408 2433 c7 -3 16 -2 19 1 4 3 -2 6 -13 5 -11 0 -14 -3 -6 -6z"/>
<path d="M1120 2900 c-17 -5 -19 -8 -7 -9 24 -1 21 -18 -5 -24 -39 -11 -13
-18 28 -8 21 5 31 9 22 10 -21 1 -23 12 -6 29 13 13 5 14 -32 2z"/>
<path d="M1128 2833 c7 -3 16 -2 19 1 4 3 -2 6 -13 5 -11 0 -14 -3 -6 -6z"/>
<path d="M1455 2960 c3 -5 8 -10 11 -10 2 0 4 5 4 10 0 6 -5 10 -11 10 -5 0
-7 -4 -4 -10z"/>
<path d="M775 2950 c-3 -5 -1 -10 4 -10 6 0 11 5 11 10 0 6 -2 10 -4 10 -3 0
-8 -4 -11 -10z"/>
<path d="M2043 2895 c0 -38 2 -53 4 -32 2 20 2 52 0 70 -2 17 -4 1 -4 -38z"/>
<path d="M2086 2897 c-5 -26 -6 -51 -2 -54 12 -13 17 6 14 53 l-3 49 -9 -48z"/>
<path d="M1873 2890 c0 -25 2 -35 4 -22 2 12 2 32 0 45 -2 12 -4 2 -4 -23z"/>
<path d="M1983 2895 c0 -22 2 -30 4 -17 2 12 2 30 0 40 -3 9 -5 -1 -4 -23z"/>
<path d="M2151 2896 c-1 -43 -15 -40 -24 4 -3 14 -4 7 -1 -15 2 -22 7 -179 10
-350 3 -170 7 -317 8 -325 2 -8 4 116 5 275 1 191 5 285 11 275 12 -19 12 126
0 155 -7 16 -9 12 -9 -19z"/>
<path d="M1911 2628 c-1 -126 3 -229 9 -238 6 -10 9 67 8 218 -1 128 -5 235
-9 238 -4 2 -8 -96 -8 -218z"/>
<path d="M2074 2705 c0 -66 1 -92 3 -57 2 34 2 88 0 120 -2 31 -3 3 -3 -63z"/>
<path d="M2105 2769 c-4 -12 -2 -26 4 -32 8 -8 11 -2 11 21 0 37 -6 41 -15 11z"/>
<path d="M1872 2760 c0 -14 2 -19 5 -12 2 6 2 18 0 25 -3 6 -5 1 -5 -13z"/>
<path d="M2033 2664 c-2 -41 1 -63 7 -59 11 7 14 125 3 125 -5 0 -9 -30 -10
-66z"/>
<path d="M1877 2713 c-11 -10 -7 -337 3 -353 6 -10 10 53 10 173 0 103 -1 187
-3 187 -2 0 -7 -3 -10 -7z"/>
<path d="M1964 2430 c0 -69 1 -97 3 -62 2 34 2 90 0 125 -2 34 -3 6 -3 -63z"/>
<path d="M1873 2250 c0 -41 2 -58 4 -37 2 20 2 54 0 75 -2 20 -4 3 -4 -38z"/>
<path d="M1917 2055 c3 -148 7 -272 9 -274 6 -7 2 262 -6 409 -5 92 -6 50 -3
-135z"/>
<path d="M1963 2165 c0 -27 2 -38 4 -22 2 15 2 37 0 50 -2 12 -4 0 -4 -28z"/>
<path d="M1823 2174 c-7 -7 -13 -28 -12 -46 1 -31 1 -31 9 -8 l7 25 11 -25 c9
-21 11 -22 10 -5 0 11 -3 32 -7 46 -5 22 -8 25 -18 13z"/>
<path d="M1874 2068 c3 -35 9 -240 13 -455 4 -247 10 -393 16 -393 9 0 8 126
-10 698 -3 129 -10 212 -16 212 -6 0 -7 -24 -3 -62z"/>
<path d="M2112 2100 c0 -14 2 -19 5 -12 2 6 2 18 0 25 -3 6 -5 1 -5 -13z"/>
<path d="M1818 2037 c-6 -73 -2 -887 3 -887 12 0 17 63 14 145 -4 83 -7 650
-4 720 l2 40 7 -35 7 -35 2 36 c1 49 -28 64 -31 16z"/>
<path d="M2142 1890 c0 -102 2 -203 6 -225 7 -37 5 346 -2 390 -2 11 -4 -63
-4 -165z"/>
<path d="M2003 1985 c0 -33 2 -45 4 -27 2 18 2 45 0 60 -2 15 -4 0 -4 -33z"/>
<path d="M1843 1895 c0 -22 2 -30 4 -17 2 12 2 30 0 40 -3 9 -5 -1 -4 -23z"/>
<path d="M2002 1880 c-1 -25 -5 -63 -8 -85 -4 -32 -3 -36 6 -23 6 10 9 47 7
85 -2 48 -4 55 -5 23z"/>
<path d="M2113 1865 c0 -22 2 -30 4 -17 2 12 2 30 0 40 -3 9 -5 -1 -4 -23z"/>
<path d="M1844 1645 c2 -77 6 -212 7 -300 1 -125 3 -149 10 -110 9 55 -4 532
-16 543 -4 4 -4 -56 -1 -133z"/>
<path d="M2122 1760 c0 -14 2 -19 5 -12 2 6 2 18 0 25 -3 6 -5 1 -5 -13z"/>
<path d="M2023 1680 c0 -30 2 -43 4 -27 2 15 2 39 0 55 -2 15 -4 2 -4 -28z"/>
<path d="M2124 1620 c0 -52 1 -74 3 -47 2 26 2 68 0 95 -2 26 -3 4 -3 -48z"/>
<path d="M1920 1690 c0 -5 5 -10 11 -10 5 0 7 5 4 10 -3 6 -8 10 -11 10 -2 0
-4 -4 -4 -10z"/>
<path d="M1790 1407 c0 -114 3 -207 8 -207 8 0 6 399 -3 408 -3 3 -5 -88 -5
-201z"/>
<path d="M2153 1505 c0 -44 2 -61 4 -37 2 23 2 59 0 80 -2 20 -4 1 -4 -43z"/>
<path d="M1928 1533 c-5 -62 -3 -173 4 -173 4 0 8 43 8 95 0 52 -2 95 -5 95
-3 0 -6 -8 -7 -17z"/>
<path d="M2132 1347 c1 -21 5 -40 10 -43 11 -7 10 48 -2 66 -7 11 -9 5 -8 -23z"/>
<path d="M1927 1303 c-11 -10 -8 -63 3 -63 6 0 10 16 10 35 0 36 -2 40 -13 28z"/>
<path d="M2142 1180 c0 -19 2 -27 5 -17 2 9 2 25 0 35 -3 9 -5 1 -5 -18z"/>
<path d="M1788 1140 c-4 -14 -8 -43 -7 -65 0 -36 1 -38 10 -15 6 13 9 42 7 65
-3 35 -4 37 -10 15z"/>
<path d="M1075 2770 c3 -5 14 -10 23 -10 15 0 15 2 2 10 -20 13 -33 13 -25 0z"/>
<path d="M728 2813 c17 -2 47 -2 65 0 17 2 3 4 -33 4 -36 0 -50 -2 -32 -4z"/>
<path d="M830 2816 c0 -2 14 -6 30 -8 17 -3 30 -1 30 4 0 4 -13 8 -30 8 -16 0
-30 -2 -30 -4z"/>
<path d="M692 2785 c7 -8 108 -9 115 -1 3 3 -22 6 -57 6 -35 0 -61 -2 -58 -5z"/>
<path d="M690 2750 c0 -6 16 -8 43 -4 58 9 59 14 4 14 -26 0 -47 -5 -47 -10z"/>
<path d="M701 2726 c12 -10 59 -15 59 -6 0 5 -14 10 -32 10 -17 0 -29 -2 -27
-4z"/>
<path d="M662 2465 c0 -16 2 -22 5 -12 2 9 2 23 0 30 -3 6 -5 -1 -5 -18z"/>
<path d="M1580 2280 c0 -5 7 -10 16 -10 8 0 12 5 9 10 -3 6 -10 10 -16 10 -5
0 -9 -4 -9 -10z"/>
<path d="M646 2254 c-11 -7 -17 -16 -15 -19 3 -3 14 2 25 9 10 8 17 17 14 19
-3 3 -14 -1 -24 -9z"/>
<path d="M1361 2213 c-9 -10 -10 -18 -3 -25 7 -7 12 -3 17 12 9 27 4 32 -14
13z"/>
<path d="M841 2150 c12 -32 88 -124 97 -116 3 3 -14 26 -36 50 -23 25 -44 56
-48 70 -3 14 -10 26 -15 26 -4 0 -3 -13 2 -30z"/>
<path d="M1310 2168 c0 -9 5 -20 10 -23 13 -8 13 5 0 25 -8 13 -10 13 -10 -2z"/>
<path d="M1290 2146 c0 -8 5 -18 10 -21 6 -3 10 1 10 9 0 8 -4 18 -10 21 -5 3
-10 -1 -10 -9z"/>
<path d="M1266 2118 c2 -13 2 -17 -2 -10 -3 6 -10 12 -15 12 -5 0 -3 -12 3
-26 11 -23 13 -24 19 -7 11 26 11 53 0 53 -5 0 -7 -10 -5 -22z"/>
<path d="M1455 2090 c-3 -5 -1 -10 4 -10 6 0 11 5 11 10 0 6 -2 10 -4 10 -3 0
-8 -4 -11 -10z"/>
<path d="M670 2070 c-8 -5 -10 -10 -5 -10 6 0 17 5 25 10 8 5 11 10 5 10 -5 0
-17 -5 -25 -10z"/>
<path d="M680 2050 c-21 -13 -22 -50 -1 -42 13 4 12 1 -3 -16 -11 -12 -15 -22
-9 -22 5 0 18 9 28 20 12 13 14 20 5 20 -10 0 -10 3 0 15 13 15 2 21 -16 8 -5
-5 -1 0 9 10 20 18 12 23 -13 7z"/>
<path d="M1464 2052 c4 -7 1 -12 -9 -12 -23 0 -13 -24 11 -27 18 -3 18 -2 -1
6 -17 8 -18 10 -2 10 19 1 23 16 5 27 -7 4 -8 3 -4 -4z"/>
<path d="M1540 2031 c0 -4 11 -6 25 -3 14 2 25 6 25 8 0 2 -11 4 -25 4 -14 0
-25 -4 -25 -9z"/>
<path d="M950 1990 c0 -5 5 -10 11 -10 5 0 7 5 4 10 -3 6 -8 10 -11 10 -2 0
-4 -4 -4 -10z"/>
<path d="M1150 1983 c0 -13 -5 -23 -12 -23 -9 0 -9 -3 0 -12 7 -7 12 -25 12
-41 0 -15 4 -26 9 -23 16 10 18 69 5 95 -13 25 -14 25 -14 4z"/>
<path d="M1465 1990 c-17 -7 -17 -9 -2 -9 24 -1 21 -16 -5 -29 -15 -7 -18 -11
-8 -12 10 0 6 -6 -9 -14 -14 -8 -26 -21 -27 -30 -2 -14 1 -14 26 -1 16 8 35
15 43 15 19 0 25 18 20 58 -6 34 -7 35 -38 22z m-4 -75 c-18 -8 -36 -15 -40
-15 -13 1 45 29 59 29 8 0 0 -6 -19 -14z"/>
<path d="M685 1960 c-10 -11 -14 -20 -8 -20 5 0 18 9 28 20 10 11 14 20 8 20
-5 0 -18 -9 -28 -20z"/>
<path d="M1060 1969 c0 -5 5 -7 10 -4 6 3 10 8 10 11 0 2 -4 4 -10 4 -5 0 -10
-5 -10 -11z"/>
<path d="M1556 1971 c-3 -5 5 -11 19 -13 17 -4 25 -1 25 8 0 15 -36 19 -44 5z"/>
<path d="M695 1940 c-10 -11 -14 -20 -8 -20 5 0 18 9 28 20 10 11 14 20 8 20
-5 0 -18 -9 -28 -20z"/>
<path d="M710 1915 c-13 -14 -18 -25 -11 -25 7 0 9 -4 6 -10 -11 -17 7 -11 21
8 7 9 14 12 14 5 0 -6 -4 -15 -10 -18 -20 -12 -10 -44 14 -51 14 -3 32 -14 42
-25 14 -15 15 -21 4 -34 -7 -9 -10 -18 -6 -22 9 -10 22 8 30 40 5 19 3 27 -8
27 -22 0 -38 24 -24 38 9 9 9 12 1 12 -7 0 -15 -4 -18 -10 -13 -21 -23 -9 -16
18 6 19 4 31 -6 40 -7 7 -11 17 -8 23 11 17 -1 9 -25 -16z"/>
<path d="M1271 1848 c-1 -21 4 -38 9 -38 12 0 12 27 0 55 -7 16 -9 13 -9 -17z"/>
<path d="M1236 1844 c-9 -24 -7 -54 4 -54 6 0 10 16 10 35 0 38 -4 44 -14 19z"/>
<path d="M1460 1795 c13 -16 30 -16 33 -1 1 5 -9 11 -22 13 -20 3 -22 1 -11
-12z"/>
<path d="M1433 1778 c3 -17 19 -28 30 -21 9 5 -11 33 -24 33 -5 0 -8 -6 -6
-12z"/>
<path d="M1330 1761 c0 -5 5 -13 10 -16 6 -3 10 -2 10 4 0 5 -4 13 -10 16 -5
3 -10 2 -10 -4z"/>
<path d="M1496 1748 c-14 -13 -28 -36 -32 -52 -7 -29 -7 -29 13 -10 11 10 18
24 15 31 -2 7 11 21 30 33 20 12 27 20 16 20 -9 0 -28 -10 -42 -22z"/>
<path d="M669 1743 c-13 -15 -12 -15 9 -4 23 12 28 21 13 21 -5 0 -15 -7 -22
-17z"/>
<path d="M1310 1746 c0 -8 5 -18 10 -21 6 -3 10 1 10 9 0 8 -4 18 -10 21 -5 3
-10 -1 -10 -9z"/>
<path d="M1414 1731 c21 -23 26 -26 26 -11 0 5 -10 15 -22 21 -23 12 -23 12
-4 -10z"/>
<path d="M790 1725 c-11 -13 -10 -14 5 -9 13 5 16 4 10 -5 -6 -10 -3 -11 15
-1 18 10 20 14 9 21 -19 12 -25 11 -39 -6z"/>
<path d="M1280 1731 c0 -5 7 -14 15 -21 16 -14 18 -10 9 14 -6 17 -24 22 -24
7z"/>
<path d="M1261 1696 c7 -14 16 -26 20 -26 12 0 -6 43 -20 48 -9 3 -9 -2 0 -22z"/>
<path d="M749 1682 c14 -27 42 -48 86 -66 21 -9 43 -22 47 -29 4 -6 10 -8 14
-4 13 12 -28 46 -63 53 -21 4 -42 17 -55 35 -24 32 -44 40 -29 11z"/>
<path d="M1065 1680 c-3 -5 -1 -10 4 -10 6 0 11 5 11 10 0 6 -2 10 -4 10 -3 0
-8 -4 -11 -10z"/>
<path d="M1170 1665 c0 -8 -5 -15 -12 -15 -9 0 -9 -3 0 -12 7 -7 12 -29 12
-49 0 -21 5 -41 10 -44 6 -4 10 13 10 44 0 27 4 51 8 53 4 2 0 11 -10 21 -15
14 -18 14 -18 2z"/>
<path d="M684 1635 c-16 -25 -16 -56 1 -62 6 -1 18 11 27 27 17 30 17 30 -2
20 -14 -8 -20 -8 -20 1 0 6 9 13 20 16 23 6 27 23 5 23 -8 0 -22 -11 -31 -25z"/>
<path d="M1450 1631 c-5 -11 -10 -33 -10 -50 0 -17 -4 -31 -9 -31 -13 0 -17
-16 -40 -143 -23 -124 -60 -257 -72 -257 -5 0 -9 -7 -9 -15 0 -8 -4 -15 -9
-15 -5 0 -23 -11 -38 -24 -39 -33 -106 -33 -139 -1 -12 12 -36 32 -53 44 -33
24 -81 97 -81 124 0 10 -4 17 -10 17 -15 0 -12 -37 4 -68 17 -33 77 -91 130
-126 33 -22 50 -26 110 -26 l71 0 42 45 c42 44 63 93 94 222 7 28 17 51 22 50
24 -5 38 146 16 168 -15 15 -10 35 9 35 15 0 15 2 2 11 -11 8 -12 12 -2 16 19
7 14 23 -5 16 -12 -5 -15 -2 -10 10 9 23 0 21 -13 -2z m20 -111 c0 -5 -4 -10
-10 -10 -5 0 -10 5 -10 10 0 6 5 10 10 10 6 0 10 -4 10 -10z m-5 -58 c-8 -8
-25 10 -19 20 4 6 9 5 15 -3 4 -7 6 -15 4 -17z m-28 -18 c-3 -3 -12 -4 -19 -1
-8 3 -5 6 6 6 11 1 17 -2 13 -5z m-42 -183 c3 -5 1 -12 -5 -16 -5 -3 -10 1
-10 9 0 18 6 21 15 7z m-105 -166 c-7 -9 -15 -13 -19 -10 -3 3 1 10 9 15 21
14 24 12 10 -5z"/>
<path d="M661 1540 c-1 -19 -4 -52 -7 -72 -5 -25 -3 -38 5 -38 6 0 11 7 11 16
0 8 5 12 10 9 14 -9 11 43 -5 85 l-13 35 -1 -35z"/>
<path d="M890 1544 c0 -3 5 -14 10 -24 6 -11 15 -43 20 -72 13 -69 42 -138 57
-138 9 0 7 13 -6 43 -10 23 -23 65 -29 93 -15 67 -29 104 -42 104 -5 0 -10 -3
-10 -6z"/>
<path d="M1570 1135 c0 -14 5 -25 10 -25 6 0 10 11 10 25 0 14 -4 25 -10 25
-5 0 -10 -11 -10 -25z"/>
<path d="M1610 1065 c0 -8 5 -15 10 -15 6 0 10 7 10 15 0 8 -4 15 -10 15 -5 0
-10 -7 -10 -15z"/>
<path d="M1200 1040 c-12 -8 -12 -10 5 -10 11 0 27 5 35 10 12 8 12 10 -5 10
-11 0 -27 -5 -35 -10z"/>
<path d="M1480 1001 c0 -6 5 -13 10 -16 6 -3 10 1 10 9 0 9 -4 16 -10 16 -5 0
-10 -4 -10 -9z"/>
<path d="M900 956 c0 -13 7 -26 15 -30 8 -3 15 -1 15 4 0 6 -5 10 -11 10 -6 0
-8 9 -4 20 4 11 2 20 -4 20 -6 0 -11 -11 -11 -24z"/>
<path d="M990 910 c0 -5 5 -10 10 -10 6 0 10 5 10 10 0 6 -4 10 -10 10 -5 0
-10 -4 -10 -10z"/>
<path d="M1298 913 c6 -2 18 -2 25 0 6 3 1 5 -13 5 -14 0 -19 -2 -12 -5z"/>
<path d="M837 2714 c-9 -10 2 -24 19 -24 8 0 14 7 14 15 0 15 -21 21 -33 9z"/>
<path d="M1396 2665 c10 -8 24 -14 29 -14 6 0 1 6 -9 14 -11 8 -24 15 -30 15
-5 0 -1 -7 10 -15z"/>
<path d="M1380 2641 c0 -5 7 -11 15 -15 8 -3 15 -1 15 3 0 5 -7 11 -15 15 -8
3 -15 1 -15 -3z"/>
<path d="M1530 2641 c0 -5 5 -13 10 -16 6 -3 10 -2 10 4 0 5 -4 13 -10 16 -5
3 -10 2 -10 -4z"/>
<path d="M1125 2570 c3 -5 8 -10 11 -10 2 0 4 5 4 10 0 6 -5 10 -11 10 -5 0
-7 -4 -4 -10z"/>
<path d="M1680 2148 c0 -14 30 -22 41 -11 7 7 2 12 -15 15 -14 3 -26 1 -26 -4z"/>
<path d="M618 933 c6 -2 18 -2 25 0 6 3 1 5 -13 5 -14 0 -19 -2 -12 -5z"/>
<path d="M540 883 c0 -5 11 -8 25 -8 14 0 25 3 25 8 0 4 -11 7 -25 7 -14 0
-25 -3 -25 -7z"/>
<path d="M668 773 c6 -2 18 -2 25 0 6 3 1 5 -13 5 -14 0 -19 -2 -12 -5z"/>
<path d="M648 743 c6 -2 18 -2 25 0 6 3 1 5 -13 5 -14 0 -19 -2 -12 -5z"/>
<path d="M1508 803 c7 -3 16 -2 19 1 4 3 -2 6 -13 5 -11 0 -14 -3 -6 -6z"/>
<path d="M460 810 c0 -5 5 -10 10 -10 6 0 10 5 10 10 0 6 -4 10 -10 10 -5 0
-10 -4 -10 -10z"/>
<path d="M130 765 c0 -8 4 -15 10 -15 5 0 7 7 4 15 -4 8 -8 15 -10 15 -2 0 -4
-7 -4 -15z"/>
<path d="M425 770 c-3 -5 -2 -10 4 -10 5 0 13 5 16 10 3 6 2 10 -4 10 -5 0
-13 -4 -16 -10z"/>
<path d="M75 740 c3 -5 8 -10 11 -10 2 0 4 5 4 10 0 6 -5 10 -11 10 -5 0 -7
-4 -4 -10z"/>
<path d="M140 720 c0 -5 5 -10 11 -10 5 0 7 5 4 10 -3 6 -8 10 -11 10 -2 0 -4
-4 -4 -10z"/>
<path d="M1658 773 c12 -2 30 -2 40 0 9 3 -1 5 -23 4 -22 0 -30 -2 -17 -4z"/>
<path d="M1243 787 c0 -7 11 -18 23 -24 19 -9 22 -8 21 8 -1 11 -4 19 -8 19
-4 0 -14 2 -22 5 -7 3 -14 0 -14 -8z"/>
<path d="M943 703 c9 -2 25 -2 35 0 9 3 1 5 -18 5 -19 0 -27 -2 -17 -5z"/>
<path d="M1057 698 c2 -5 55 -7 116 -7 128 2 117 7 -25 11 -53 2 -94 0 -91 -4z"/>
<path d="M1313 683 c15 -2 39 -2 55 0 15 2 2 4 -28 4 -30 0 -43 -2 -27 -4z"/>
<path d="M1441 681 c-28 -7 -35 -20 -22 -40 14 -23 111 -19 128 5 12 16 11 19
-4 25 -34 12 -78 16 -102 10z m39 -11 c0 -5 -2 -10 -4 -10 -3 0 -8 5 -11 10
-3 6 -1 10 4 10 6 0 11 -4 11 -10z m-26 -21 c-8 -14 -24 -10 -24 6 0 9 6 12
15 9 8 -4 12 -10 9 -15z m71 11 c3 -5 2 -10 -4 -10 -5 0 -13 5 -16 10 -3 6 -2
10 4 10 5 0 13 -4 16 -10z m-28 -16 c-3 -3 -12 -4 -19 -1 -8 3 -5 6 6 6 11 1
17 -2 13 -5z"/>
<path d="M890 670 c58 -8 156 -13 149 -6 -2 2 -49 6 -104 9 -72 4 -85 3 -45
-3z"/>
<path d="M1153 673 c20 -2 54 -2 75 0 20 2 3 4 -38 4 -41 0 -58 -2 -37 -4z"/>
<path d="M980 634 c0 -10 -14 -29 -32 -44 -19 -16 -28 -31 -24 -38 9 -15 36
-16 36 -2 0 6 9 19 20 30 17 17 21 18 35 4 16 -17 21 -39 6 -30 -5 3 -11 -1
-15 -9 -3 -8 -15 -15 -26 -15 -23 0 -27 -18 -5 -26 8 -3 27 4 42 15 l27 22 29
-30 c33 -33 29 -51 -12 -51 -35 0 -61 -28 -61 -67 0 -37 27 -63 66 -63 47 0
67 20 67 69 0 26 4 40 11 38 6 -2 9 -20 8 -40 -3 -29 1 -39 22 -52 18 -12 35
-15 53 -10 41 10 53 24 53 61 0 38 -22 64 -54 64 -12 0 -28 6 -35 13 -11 10
-13 9 -8 -5 4 -12 1 -18 -8 -18 -24 0 -18 13 25 55 33 32 42 37 52 26 11 -11
10 -13 -5 -8 -22 8 -13 -9 12 -22 13 -7 20 -4 31 12 12 20 12 21 -3 9 -13 -11
-16 -10 -19 10 -2 13 -9 22 -16 20 -10 -2 -10 2 -2 18 6 11 15 20 21 20 6 0 7
-4 4 -10 -6 -9 16 -15 39 -11 5 1 6 -5 3 -14 -10 -23 7 -18 32 12 17 18 19 24
7 20 -10 -4 -28 6 -51 28 -19 19 -37 35 -41 35 -3 0 -32 -28 -65 -62 -49 -53
-60 -60 -71 -49 -11 12 -10 13 5 8 9 -4 17 -2 17 3 0 6 -11 10 -25 10 -42 0
-28 19 18 23 39 3 39 4 -11 5 -35 1 -64 9 -82 22 -15 11 -30 16 -34 12 -4 -4
-6 -1 -4 7 2 8 -5 17 -14 19 -12 2 -18 -3 -18 -14z m124 -110 c3 -8 2 -12 -4
-9 -6 3 -10 10 -10 16 0 14 7 11 14 -7z m140 -90 c25 -24 20 -63 -9 -76 -22
-10 -29 -9 -47 9 -24 25 -19 69 10 76 29 8 30 8 46 -9z m-130 -26 c8 -22 6
-32 -9 -48 -42 -46 -103 -3 -77 56 10 21 18 25 44 22 25 -2 35 -9 42 -30z"/>
<path d="M1195 409 c5 -14 4 -19 -4 -15 -7 5 -9 1 -5 -8 7 -19 20 -21 27 -3 4
10 6 10 6 0 1 -7 6 -13 12 -13 6 0 8 9 4 20 -4 13 -2 20 6 20 10 0 10 3 1 12
-10 10 -15 10 -22 -2 -7 -10 -10 -11 -10 -2 0 6 -5 12 -11 12 -6 0 -8 -9 -4
-21z"/>
<path d="M1036 414 c-11 -27 -7 -43 14 -54 43 -23 81 30 44 61 -13 10 -17 10
-25 -2 -6 -10 -9 -10 -9 -1 0 17 -17 15 -24 -4z m64 -14 c0 -5 -4 -10 -10 -10
-5 0 -10 5 -10 10 0 6 5 10 10 10 6 0 10 -4 10 -10z m-20 -31 c0 -5 -4 -9 -10
-9 -5 0 -10 7 -10 16 0 8 5 12 10 9 6 -3 10 -10 10 -16z"/>
<path d="M1103 633 c15 -2 37 -2 50 0 12 2 0 4 -28 4 -27 0 -38 -2 -22 -4z"/>
<path d="M725 600 c-3 -5 1 -10 9 -10 9 0 16 5 16 10 0 6 -4 10 -9 10 -6 0
-13 -4 -16 -10z"/>
<path d="M1538 603 c12 -2 32 -2 45 0 12 2 2 4 -23 4 -25 0 -35 -2 -22 -4z"/>
<path d="M738 573 c16 -3 22 -12 23 -31 l1 -27 8 25 c4 14 8 19 9 13 1 -18 21
-16 21 2 0 10 16 15 58 18 31 2 12 3 -43 4 -55 0 -90 -2 -77 -4z"/>
<path d="M1572 535 c0 -16 2 -22 5 -12 2 9 2 23 0 30 -3 6 -5 -1 -5 -18z"/>
<path d="M890 516 c0 -19 5 -38 10 -41 6 -4 10 10 10 34 0 23 -4 41 -10 41 -5
0 -10 -15 -10 -34z"/>
<path d="M923 485 c0 -22 2 -30 4 -17 2 12 2 30 0 40 -3 9 -5 -1 -4 -23z"/>
<path d="M1041 504 c0 -11 3 -14 6 -6 3 7 2 16 -1 19 -3 4 -6 -2 -5 -13z"/>
<path d="M1330 500 c0 -5 5 -10 10 -10 6 0 10 5 10 10 0 6 -4 10 -10 10 -5 0
-10 -4 -10 -10z"/>
<path d="M753 455 c0 -27 2 -38 4 -22 2 15 2 37 0 50 -2 12 -4 0 -4 -28z"/>
<path d="M1015 490 c-3 -5 -1 -10 4 -10 6 0 11 5 11 10 0 6 -2 10 -4 10 -3 0
-8 -4 -11 -10z"/>
<path d="M943 450 c-2 -22 2 -40 7 -40 6 0 10 18 10 40 0 52 -14 52 -17 0z"/>
<path d="M1503 463 c9 -2 23 -2 30 0 6 3 -1 5 -18 5 -16 0 -22 -2 -12 -5z"/>
<path d="M756 373 c-6 -14 -5 -15 5 -6 7 7 10 15 7 18 -3 3 -9 -2 -12 -12z"/>
<path d="M580 660 c0 -5 5 -10 11 -10 5 0 7 5 4 10 -3 6 -8 10 -11 10 -2 0 -4
-4 -4 -10z"/>
<path d="M1870 740 c0 -5 5 -10 11 -10 5 0 7 5 4 10 -3 6 -8 10 -11 10 -2 0
-4 -4 -4 -10z"/>
<path d="M2110 380 c0 -5 5 -10 10 -10 6 0 10 5 10 10 0 6 -4 10 -10 10 -5 0
-10 -4 -10 -10z"/>
<path d="M60 225 c0 -18 12 -19 27 -4 7 7 19 9 27 6 20 -8 23 -133 4 -140 -27
-9 3 -19 38 -12 26 4 33 9 24 15 -8 5 -13 30 -14 71 -1 53 2 64 17 67 10 2 17
-3 17 -13 0 -9 5 -13 10 -10 6 3 10 13 10 21 0 11 -17 14 -80 14 -64 0 -80 -3
-80 -15z"/>
<path d="M248 156 c3 -77 5 -83 23 -79 10 3 17 9 14 13 -3 4 -2 22 1 39 6 28
10 31 46 31 l40 0 -4 -40 c-3 -33 0 -40 14 -40 16 0 18 10 18 80 l0 80 -27 0
c-20 0 -24 -3 -15 -9 8 -5 12 -17 10 -27 -2 -14 -13 -20 -42 -22 -38 -3 -38
-3 -34 27 4 28 2 31 -21 31 l-26 0 3 -84z"/>
<path d="M447 158 l1 -83 44 3 c24 2 50 11 58 19 13 14 13 15 -5 8 -44 -17
-60 -12 -63 23 -2 18 1 32 7 32 6 0 11 -5 11 -11 0 -5 5 -7 10 -4 6 3 10 16
10 28 0 16 -3 18 -12 9 -20 -20 -28 -14 -28 19 0 31 1 31 35 26 19 -3 35 -2
35 4 0 5 -24 9 -52 9 l-53 0 2 -82z"/>
<path d="M638 231 c10 -6 13 -29 11 -82 -2 -58 1 -74 12 -74 9 0 15 14 17 43
l3 42 45 0 46 0 -4 -42 c-2 -41 1 -45 30 -39 4 0 7 37 7 81 0 77 -1 80 -23 80
-20 0 -22 -4 -17 -22 13 -40 11 -43 -33 -46 -47 -4 -64 16 -43 49 10 17 8 19
-26 19 -25 0 -33 -3 -25 -9z"/>
<path d="M847 158 c2 -82 2 -83 28 -86 24 -3 26 -2 15 18 -8 14 -10 47 -7 86
5 61 4 64 -16 64 -21 0 -22 -4 -20 -82z"/>
<path d="M918 229 c16 -17 16 -131 0 -147 -23 -23 96 -15 123 8 20 16 21 19 7
20 -9 0 -20 -5 -23 -10 -8 -13 -52 -13 -60 1 -4 5 -4 22 0 36 4 19 9 23 18 14
17 -17 27 -13 27 10 0 15 -5 19 -19 14 -13 -4 -20 0 -24 16 -5 20 -3 21 34 15
35 -6 40 -4 37 11 -3 15 -15 19 -68 21 -52 2 -63 1 -52 -9z"/>
<path d="M1085 155 c0 -80 1 -85 22 -85 19 0 21 4 16 40 -7 52 16 55 46 5 13
-23 28 -35 43 -35 21 0 21 1 -6 29 -28 29 -29 38 -4 74 19 27 -21 57 -76 57
l-41 0 0 -85z m69 69 c32 -12 13 -54 -25 -54 -10 0 -12 43 -2 53 8 8 8 8 27 1z"/>
<path d="M1255 215 c-15 -14 -25 -36 -25 -53 0 -38 35 -82 65 -82 86 0 122 96
53 144 -32 23 -65 20 -93 -9z m85 -10 c15 -18 6 -95 -12 -107 -16 -10 -20 -10
-37 1 -15 10 -20 88 -7 109 10 17 41 15 56 -3z"/>
<path d="M1420 237 c-1 -1 -2 -39 -3 -85 l-2 -82 30 0 c22 0 26 3 17 12 -7 7
-12 25 -12 40 0 22 4 28 23 28 47 0 89 55 56 75 -9 6 -108 17 -109 12z m70
-17 c26 -14 15 -52 -14 -48 -13 2 -21 11 -22 23 -1 36 6 41 36 25z"/>
<path d="M1566 213 c3 -16 7 -33 9 -38 1 -6 -1 -32 -5 -58 -6 -43 -5 -47 14
-47 19 0 21 5 18 40 l-4 40 41 0 41 0 0 -40 c0 -31 4 -40 18 -40 15 0 17 11
17 85 0 74 -2 85 -17 85 -14 0 -18 -8 -18 -35 0 -33 -2 -35 -35 -35 -33 0 -35
2 -35 35 0 31 -3 35 -25 35 -22 0 -25 -3 -19 -27z"/>
<path d="M1776 230 c11 -11 2 -66 -20 -137 -6 -18 -4 -22 7 -17 8 3 17 23 21
45 5 28 11 39 24 39 18 0 46 -55 36 -71 -3 -5 7 -9 21 -9 17 0 24 4 19 11 -4
7 -14 42 -23 78 l-16 66 -40 3 c-30 3 -37 0 -29 -8z m44 -41 c0 -12 -5 -19
-11 -17 -6 2 -10 7 -10 11 1 4 1 14 1 23 0 8 5 12 10 9 6 -3 10 -15 10 -26z"/>
<path d="M1905 160 c0 -78 1 -80 25 -80 19 0 21 3 12 12 -7 7 -12 35 -12 62
l1 51 32 -60 c36 -67 67 -84 68 -38 1 44 6 97 10 113 3 11 -5 16 -26 17 -16 1
-22 -1 -12 -3 13 -4 17 -16 17 -56 0 -57 -4 -56 -41 10 -18 33 -33 48 -50 50
-24 3 -24 2 -24 -78z"/>
</g>
</svg>
