<?xml version="1.0" standalone="no"?>
<!DOCTYPE svg PUBLIC "-//W3C//DTD SVG 20010904//EN"
 "http://www.w3.org/TR/2001/REC-SVG-20010904/DTD/svg10.dtd">
<svg version="1.0" xmlns="http://www.w3.org/2000/svg"
 width="219.000000pt" height="380.000000pt" viewBox="0 0 219.000000 380.000000"
 preserveAspectRatio="xMidYMid meet">
<metadata>
Created by potrace 1.16, written by Peter Selinger 2001-2019
</metadata>
<g transform="translate(0.000000,380.000000) scale(0.100000,-0.100000)"
fill="#000000" stroke="none">
<path d="M688 3792 l-657 -2 -3 -123 c-9 -305 -12 -1793 -5 -2422 3 -236 6
-612 6 -835 l1 -405 327 2 c1219 7 1816 12 1820 17 8 8 5 3594 -3 3688 -6 76
-7 76 -38 82 -17 2 -202 4 -411 3 -209 -1 -676 -3 -1037 -5z m1453 -30 c4 -4
10 -140 13 -302 6 -321 9 -2910 3 -2916 -2 -2 -18 2 -35 8 -23 9 -37 10 -50 2
-27 -16 -66 -10 -103 18 -52 38 -59 41 -75 27 -16 -13 -18 -12 -44 31 -7 13
-13 11 -37 -12 -16 -16 -36 -28 -44 -28 -8 0 -20 -9 -27 -21 -21 -33 -116 -72
-158 -64 -21 4 -41 2 -49 -5 -16 -13 -174 -18 -269 -7 -43 5 -73 4 -81 -3 -20
-17 -167 -33 -228 -26 -39 5 -67 16 -92 36 -20 16 -61 36 -91 46 -31 9 -69 30
-84 46 -20 20 -38 28 -63 28 -31 0 -38 -5 -59 -42 -20 -36 -29 -43 -52 -41
-27 2 -27 1 -10 -12 18 -13 18 -15 2 -32 -32 -32 -240 -142 -271 -143 -7 -1
-41 -11 -77 -23 -36 -12 -75 -21 -87 -19 -20 3 -23 9 -23 52 0 29 5 51 13 54
9 5 9 7 0 12 -19 9 -15 24 6 24 10 0 35 11 55 25 43 29 65 31 109 8 29 -15 30
-17 12 -24 -19 -7 -19 -8 1 -8 50 -2 132 21 169 48 22 15 47 31 55 34 11 4 11
6 -4 6 -10 1 -37 -14 -59 -31 -35 -28 -48 -33 -89 -31 -26 1 -61 9 -77 18 -43
22 -82 19 -121 -10 -19 -14 -42 -25 -52 -25 -17 0 -18 12 -18 158 0 86 -1 228
-2 315 -2 86 -1 156 2 155 3 -2 23 -11 46 -22 39 -18 40 -20 40 -67 0 -88 64
-143 164 -142 31 1 66 6 78 12 15 8 23 7 31 -3 7 -9 35 -13 84 -13 73 0 74 0
24 11 -15 4 -37 16 -49 28 l-21 21 7 -27 c7 -27 1 -32 -22 -17 -8 5 -12 17
-10 27 4 22 54 32 71 15 16 -16 59 -13 86 5 20 14 22 22 17 55 l-6 39 52 0
c29 0 59 -4 67 -9 37 -23 -36 -126 -97 -137 -20 -4 -31 -9 -25 -11 41 -14 124
44 150 105 11 26 18 32 31 26 9 -4 69 -9 132 -11 l115 -3 -3 -40 c-3 -51 11
-78 50 -94 39 -17 76 -9 95 20 13 20 13 31 2 72 -17 69 -11 79 57 84 50 4 61
9 88 40 61 70 76 93 76 120 0 15 7 33 16 40 49 41 54 49 54 92 0 25 -4 47 -9
51 -6 3 -7 28 -4 55 5 47 5 49 -28 69 -46 28 -60 27 -18 -2 38 -25 49 -66 24
-87 -19 -16 -105 -24 -105 -9 0 6 -5 7 -10 4 -6 -3 -10 -1 -10 6 0 7 -8 5 -21
-7 -22 -19 -22 -19 -10 4 6 12 8 22 2 22 -5 0 -12 -7 -15 -16 -4 -9 -9 -15
-12 -12 -2 3 1 17 7 32 10 20 10 29 1 38 -9 9 -12 5 -12 -19 0 -18 -4 -35 -10
-38 -5 -3 -10 -13 -10 -22 0 -13 15 -14 99 -12 119 5 136 -4 128 -64 -3 -22
-10 -44 -15 -49 -13 -13 -72 -19 -72 -7 0 6 -5 7 -10 4 -6 -4 -18 -1 -26 6
-13 10 -17 10 -25 -2 -7 -11 -9 -10 -9 6 0 15 -3 17 -9 7 -7 -11 -9 -11 -14 2
-9 22 -24 20 -30 -4 -3 -11 -19 -26 -35 -33 -26 -11 -17 -12 74 -9 57 3 104 1
104 -2 0 -4 -5 -27 -11 -52 -8 -32 -16 -44 -30 -44 -11 0 -19 5 -19 11 0 5 -5
7 -10 4 -6 -3 -10 0 -10 7 0 9 -3 9 -10 -2 -9 -13 -10 -13 -10 0 -1 12 -3 12
-14 -2 -18 -24 -29 -23 -21 3 5 15 4 19 -4 15 -6 -4 -11 -14 -11 -22 0 -8 -9
-14 -21 -14 -15 0 -19 5 -15 18 4 13 1 19 -9 19 -14 0 -20 -11 -16 -31 1 -5
-4 -13 -11 -18 -8 -5 22 -6 73 -2 103 7 117 -2 70 -50 -29 -28 -38 -31 -113
-36 -45 -3 -117 -1 -160 4 -52 7 -82 6 -89 -1 -6 -6 4 -10 34 -10 54 0 83 -14
47 -23 -56 -14 -164 -10 -243 9 -45 11 -120 22 -167 24 -54 3 -102 12 -132 25
-44 20 -47 23 -57 74 -10 44 -9 66 5 119 9 35 18 77 21 92 3 16 11 30 17 32
28 9 215 12 210 4 -17 -28 21 1 100 79 74 72 101 91 147 107 67 22 94 16 85
-19 -4 -17 -1 -26 10 -30 9 -3 91 -5 182 -5 92 1 155 4 139 8 -16 3 -33 18
-42 34 l-14 28 52 -7 c93 -11 171 -23 197 -30 19 -5 22 -4 14 6 -16 16 -166
37 -326 46 -142 7 -337 -7 -446 -32 -76 -17 -82 -17 -82 -3 0 5 4 8 8 5 15 -9
30 9 37 47 5 25 4 37 -4 37 -6 0 -11 6 -11 14 0 8 -6 16 -12 19 -7 2 -10 7 -7
11 3 3 41 1 85 -4 114 -15 637 -15 697 -1 58 14 67 9 66 -32 l-1 -32 -7 30 -6
30 -18 -44 c-20 -48 -16 -61 13 -43 18 11 20 9 20 -13 0 -14 5 -25 10 -25 6 0
10 37 10 90 0 50 -4 90 -9 90 -5 0 -30 -9 -56 -21 -33 -15 -77 -23 -145 -26
l-98 -6 -7 47 c-4 25 -11 49 -16 52 -5 3 -9 16 -9 30 0 15 -6 24 -15 24 -13 0
-14 77 -10 633 3 347 5 676 5 730 l0 97 40 0 c39 0 40 -1 40 -35 0 -45 19 -87
39 -83 19 4 27 53 13 71 -16 20 -2 64 24 76 13 6 29 22 34 36 5 14 17 28 25
31 8 4 15 16 15 29 0 12 7 28 15 35 8 7 15 18 15 25 0 18 38 41 80 48 l35 7
-25 -20 c-18 -14 -21 -20 -10 -21 8 -1 22 -3 30 -4 8 -1 23 -3 33 -4 31 -2 18
-20 -23 -31 -54 -14 -60 -30 -13 -30 22 0 48 -7 59 -15 17 -13 15 -14 -27 -9
-30 4 -49 2 -53 -5 -5 -7 3 -11 21 -11 15 0 41 -11 58 -26 21 -17 23 -22 8
-15 -28 14 -70 14 -78 1 -3 -6 1 -13 9 -16 9 -3 16 -16 16 -28 0 -12 9 -39 21
-60 28 -52 18 -56 -17 -7 -26 36 -54 54 -54 34 1 -21 48 -191 59 -211 7 -13
10 -26 7 -29 -8 -8 -56 98 -56 124 0 26 -16 39 -23 18 -13 -31 13 -129 46
-179 43 -64 70 -116 64 -123 -5 -4 -47 50 -47 61 0 5 -27 51 -57 95 -1 2 -9 1
-18 -3 -14 -5 -14 -8 0 -37 9 -17 41 -57 70 -89 55 -60 88 -121 82 -150 -2 -9
-16 8 -34 40 -49 86 -93 140 -109 133 -20 -7 -18 -17 12 -52 20 -24 22 -31 10
-31 -20 0 -21 -30 -1 -77 8 -19 15 -50 15 -67 0 -17 5 -38 11 -46 8 -12 9 -9
5 13 -4 17 -2 27 5 27 8 0 10 -12 6 -36 -4 -24 -1 -47 9 -66 8 -16 14 -46 12
-66 -3 -35 -4 -34 -17 23 -8 33 -21 64 -28 68 -7 4 -13 18 -13 30 -1 12 -7 36
-16 52 -12 26 -13 26 -8 5 3 -14 8 -58 11 -98 5 -64 3 -79 -21 -132 -21 -47
-25 -68 -20 -97 13 -72 38 -96 48 -45 14 69 17 107 8 92 -5 -8 -13 -35 -17
-59 -5 -30 -10 -39 -16 -30 -17 27 -9 103 16 154 14 28 25 64 26 80 l1 30 8
-34 c5 -19 4 -45 -1 -58 -5 -14 -9 -34 -8 -46 0 -21 1 -21 10 -2 7 16 9 14 6
-12 -2 -18 0 -33 5 -33 15 0 38 68 38 113 0 24 8 59 17 77 18 36 20 68 10 115
-6 24 -5 26 3 13 30 -49 41 15 15 79 -8 19 -15 46 -15 60 0 28 -14 57 -64 133
-20 30 -36 61 -36 70 0 8 9 1 19 -16 25 -41 41 -51 55 -32 6 8 17 17 24 19 10
3 8 11 -8 32 -21 27 -15 38 8 15 24 -24 22 1 -3 37 -23 35 -24 39 -8 50 17 12
17 15 0 49 -22 47 -21 49 4 36 11 -7 23 -9 26 -6 8 8 -18 37 -28 31 -10 -7
-44 43 -36 51 3 3 13 -7 22 -23 15 -26 15 -26 9 -3 -5 20 -4 23 7 13 7 -7 19
-13 26 -13 20 0 16 28 -7 47 -11 10 -20 21 -20 25 0 5 9 8 20 8 11 0 20 4 20
10 0 12 -52 40 -77 41 -19 1 -20 0 37 21 l25 9 -24 18 c-16 12 -20 21 -12 25
17 11 14 47 -3 40 -11 -4 -16 4 -18 28 -2 25 -8 34 -24 36 -16 2 -20 8 -17 23
7 25 -14 25 -22 -1 -7 -23 -49 -54 -65 -48 -7 2 -5 11 4 23 14 17 17 18 26 5
8 -12 10 -11 10 9 0 20 -4 22 -25 17 -15 -4 -25 -2 -25 4 0 6 -4 9 -9 6 -5 -3
-14 1 -21 9 -19 23 -33 18 -26 -9 7 -28 -2 -40 -21 -25 -10 9 -13 7 -13 -10 0
-26 -27 -81 -39 -81 -5 0 -14 7 -21 15 -8 9 -8 15 -2 15 6 0 13 14 17 31 5 24
2 35 -14 50 -23 22 -40 24 -76 7 -22 -10 -26 -18 -23 -44 1 -18 -1 -36 -5 -40
-4 -4 -7 10 -7 30 0 31 -7 45 -37 72 -20 19 -40 34 -43 34 -14 0 -38 -36 -51
-75 -11 -33 -14 -36 -17 -17 -4 24 -36 42 -76 42 -34 0 -55 -53 -32 -79 22
-25 21 -29 -16 -41 l-33 -10 35 5 c34 5 78 35 52 35 -20 0 -13 18 8 22 24 4
27 21 5 24 -9 1 -19 -4 -22 -12 -6 -17 -23 -19 -23 -1 1 26 26 45 51 40 20 -4
28 -13 35 -41 11 -42 40 -54 116 -47 80 6 87 10 82 54 -3 34 -1 40 21 45 16 4
31 0 44 -10 16 -14 17 -19 5 -42 -7 -14 -18 -28 -25 -33 -20 -12 69 -51 122
-53 42 -1 46 -3 37 -19 -7 -14 -16 -17 -31 -12 -62 18 -135 34 -157 34 -14 0
0 -6 30 -13 30 -7 72 -21 93 -30 37 -16 50 -36 22 -36 -9 0 -15 -9 -15 -25 l0
-24 -37 22 c-35 20 -50 22 -213 22 -148 0 -180 -3 -207 -17 -40 -22 -43 -22
-43 1 0 11 -4 23 -10 26 -6 3 -7 -1 -4 -9 3 -9 2 -16 -4 -16 -10 0 -26 49 -18
57 15 15 139 37 251 43 l130 8 -135 -3 c-123 -3 -154 -8 -257 -40 -17 -6 -23
-3 -23 9 0 9 -9 21 -19 28 -10 6 -17 18 -14 25 3 7 -2 13 -11 13 -9 0 -16 4
-16 9 0 5 10 9 23 9 17 0 27 -9 34 -29 10 -25 17 -29 48 -29 32 0 36 2 25 15
-6 8 -22 17 -33 21 -12 4 -26 12 -32 19 -14 18 -57 26 -75 15 -12 -8 -13 -13
-2 -30 11 -18 10 -20 -18 -20 -28 0 -70 -29 -70 -49 0 -4 10 -6 23 -4 14 3 29
-2 36 -11 12 -14 11 -16 -7 -16 -27 0 -122 -94 -122 -121 0 -19 2 -20 17 -8
15 12 16 12 9 -6 -13 -34 -19 -85 -10 -85 5 0 20 16 33 36 16 22 27 31 31 23
12 -18 24 11 21 51 -2 33 -1 34 12 15 12 -16 18 -17 30 -7 12 10 15 8 19 -12
4 -18 -1 -27 -18 -35 -13 -5 -30 -22 -40 -36 -9 -14 -22 -25 -28 -25 -18 0
-56 -92 -56 -133 0 -36 32 -16 53 33 22 52 37 64 37 30 0 -11 7 -20 15 -20 8
0 15 6 15 14 0 24 18 28 42 11 21 -15 21 -16 3 -13 -15 2 -21 -3 -23 -21 -3
-18 0 -22 12 -18 26 10 18 -10 -19 -52 -19 -21 -35 -45 -35 -54 0 -27 20 -30
39 -6 10 12 23 19 29 15 20 -12 13 -47 -13 -68 -14 -11 -25 -28 -25 -38 0 -10
-4 -22 -10 -25 -5 -3 -10 -20 -10 -37 l0 -32 32 30 c18 17 29 22 25 13 -3 -10
-11 -35 -18 -58 -10 -33 -15 -39 -26 -29 -11 9 -18 8 -30 -5 -15 -15 -15 -18
-1 -34 10 -12 13 -25 8 -38 -5 -11 -9 -30 -9 -43 -1 -20 2 -21 19 -12 17 9 20
8 20 -11 0 -12 -8 -23 -20 -26 -11 -3 -20 -14 -20 -25 0 -15 5 -18 20 -13 14
4 20 2 20 -9 0 -25 22 -66 37 -66 16 0 17 43 2 71 -15 28 9 81 33 73 25 -7 24
35 -1 101 -11 30 -18 67 -15 90 2 22 6 75 10 118 7 78 7 78 22 48 13 -27 13
-35 -2 -72 -16 -39 -14 -79 4 -79 4 0 11 16 14 35 8 41 12 42 36 13 l18 -23 7
28 c6 22 -1 44 -30 100 -20 40 -44 80 -53 90 -13 15 -14 22 -4 37 7 11 12 29
12 40 0 12 5 18 10 15 6 -3 10 -22 10 -41 0 -42 26 -97 43 -91 16 6 12 50 -8
89 -11 23 -12 34 -4 39 16 9 -29 68 -58 75 -13 4 -20 10 -18 15 3 4 12 6 20 2
12 -4 15 7 15 61 0 36 3 66 8 66 14 0 29 -15 36 -36 3 -12 18 -26 31 -32 28
-13 33 -44 14 -85 -9 -20 -7 -32 6 -61 13 -26 21 -34 28 -27 10 10 12 28 16
119 1 21 5 23 42 20 l42 -3 -2 -261 c-1 -143 -4 -276 -6 -295 -2 -19 -6 -169
-10 -334 -9 -460 -14 -559 -28 -570 -7 -5 -19 -35 -26 -65 -25 -103 -25 -103
-196 -70 -55 10 -103 15 -107 12 -9 -10 -14 -165 -5 -178 5 -8 22 -8 64 2 32
8 74 14 93 14 31 -1 33 -2 15 -12 -11 -6 -43 -33 -71 -60 l-51 -49 -17 26 c-9
14 -28 31 -41 37 -19 9 -23 16 -19 35 4 14 0 33 -11 49 -13 20 -14 28 -4 40
17 21 14 89 -6 120 -9 15 -30 32 -47 38 -23 9 -28 15 -22 31 4 11 9 49 11 85
4 55 1 72 -21 113 -14 26 -26 50 -26 51 0 2 11 7 25 10 51 13 45 112 -8 148
-32 21 -33 22 -29 85 5 75 -8 112 -54 153 -73 64 -192 61 -259 -6 -19 -19 -38
-46 -41 -59 -5 -20 -13 -25 -38 -25 -17 0 -42 -3 -55 -7 l-24 -6 5 701 c3 385
8 704 12 710 3 5 243 10 612 11 334 0 608 2 610 3 6 7 859 -3 865 -10z m-1023
-147 c-5 -59 -10 -71 -27 -60 -14 8 -14 70 -1 96 20 37 33 21 28 -36z m47 31
c23 -35 16 -91 -10 -91 -17 0 -20 8 -23 58 -3 62 7 72 33 33z m295 -36 c0 -5
-5 -10 -11 -10 -5 0 -7 5 -4 10 3 6 8 10 11 10 2 0 4 -4 4 -10z m-34 -24 c-3
-14 -1 -26 5 -28 22 -7 -4 -38 -33 -38 -33 0 -33 -1 1 53 27 43 36 47 27 13z
m122 -18 c-22 -33 -39 -35 -25 -4 7 14 18 26 26 26 11 0 11 -4 -1 -22z m-48
-8 c0 -5 -7 -10 -16 -10 -10 0 -14 -6 -10 -15 3 -9 0 -15 -9 -15 -18 0 -18 5
-5 31 11 20 40 27 40 9z m85 0 c-3 -5 -12 -10 -18 -10 -7 0 -6 4 3 10 19 12
23 12 15 0z m-869 -55 c-27 -21 -53 -20 -36 0 7 8 22 15 34 15 21 -1 21 -1 2
-15z m889 5 c-3 -5 -12 -10 -18 -10 -7 0 -6 4 3 10 19 12 23 12 15 0z m-855
-14 c0 -3 -4 -8 -10 -11 -5 -3 -10 -1 -10 4 0 6 5 11 10 11 6 0 10 -2 10 -4z
m-30 -75 c0 -11 6 -22 13 -24 6 -3 1 -6 -12 -6 -18 -1 -22 3 -18 18 3 15 0 17
-16 13 -14 -3 -18 -1 -13 6 12 20 46 14 46 -7z m110 -1 c0 -21 -15 -27 -25
-10 -7 12 2 30 16 30 5 0 9 -9 9 -20z m-63 -12 c-3 -8 -6 -5 -6 6 -1 11 2 17
5 13 3 -3 4 -12 1 -19z m293 -4 c0 -11 -5 -14 -16 -10 -9 3 -23 6 -32 6 -15 0
-15 2 -2 10 23 15 50 12 50 -6z m53 -454 c-3 -489 -10 -947 -16 -958 -2 -4 -2
-17 -1 -29 0 -13 -3 -23 -8 -23 -5 0 -6 -5 -2 -11 3 -6 2 -14 -3 -18 -5 -3
-17 -17 -27 -31 -19 -27 -19 -69 -1 635 2 94 7 307 11 475 3 168 8 323 10 345
1 22 3 50 3 63 1 17 6 23 19 20 16 -3 17 -32 15 -468z m66 -242 c-2 -392 -5
-748 -8 -791 l-6 -79 -23 32 -23 31 6 747 c4 411 8 753 10 760 3 6 14 12 25
12 l21 0 -2 -712z m81 702 l25 -7 -28 -12 c-41 -16 -57 -14 -57 9 0 21 16 24
60 10z m-620 -39 c-19 -16 -37 -27 -40 -24 -7 6 48 53 63 53 6 0 -4 -13 -23
-29z m354 20 c4 -5 -3 -7 -14 -4 -23 6 -26 13 -6 13 8 0 17 -4 20 -9z m322
-22 c-3 -17 -6 -49 -6 -70 0 -22 -3 -39 -7 -39 -5 0 -7 31 -5 70 2 40 8 70 14
70 6 0 8 -12 4 -31z m-517 -2 c6 -8 13 -29 16 -48 l5 -34 -12 33 c-8 25 -16
32 -30 29 -13 -4 -18 0 -18 14 0 22 22 25 39 6z m129 -11 c3 -12 -1 -17 -10
-14 -7 3 -15 13 -16 22 -3 12 1 17 10 14 7 -3 15 -13 16 -22z m337 14 c-3 -5
-21 -9 -38 -9 l-32 2 35 7 c19 4 36 8 38 9 2 0 0 -3 -3 -9z m95 -9 c0 -20 -17
-37 -27 -28 -7 8 7 47 18 47 5 0 9 -9 9 -19z m-331 -2 c21 -7 31 -17 31 -31 0
-18 -5 -20 -37 -15 -36 6 -53 20 -53 45 0 15 17 15 59 1z m-69 -41 c0 -24 -4
-49 -8 -56 -5 -7 -8 10 -8 43 1 30 4 55 9 55 4 0 7 -19 7 -42z m320 13 c0 -21
-19 -31 -56 -31 -17 0 -24 6 -24 19 0 22 13 29 53 30 20 1 27 -4 27 -18z
m-659 -48 c-8 -15 -10 -15 -11 -2 0 17 10 32 18 25 2 -3 -1 -13 -7 -23z m109
-8 c-7 -8 -16 -15 -21 -15 -5 0 -6 7 -3 15 4 8 13 15 21 15 13 0 13 -3 3 -15z
m35 -5 c3 -5 1 -10 -4 -10 -6 0 -11 5 -11 10 0 6 2 10 4 10 3 0 8 -4 11 -10z
m-91 -50 c-10 -4 -21 -6 -24 -3 -8 7 24 22 34 16 5 -4 1 -10 -10 -13z m86 10
c0 -5 -2 -10 -4 -10 -3 0 -8 5 -11 10 -3 6 -1 10 4 10 6 0 11 -4 11 -10z m564
-6 c9 -25 -4 -37 -19 -17 -13 18 -11 33 5 33 4 0 11 -7 14 -16z m277 -67 c33
-64 23 -68 -16 -7 -25 40 -47 109 -25 80 6 -8 24 -41 41 -73z m-805 56 c15
-20 20 -73 5 -57 -11 12 -31 74 -24 74 3 0 12 -8 19 -17z m154 -10 c0 -29 -2
-29 -19 5 -10 18 -9 22 4 22 10 0 15 -9 15 -27z m-233 -5 c-3 -8 -6 -5 -6 6
-1 11 2 17 5 13 3 -3 4 -12 1 -19z m-82 -68 c-4 -12 -9 -19 -12 -17 -3 3 -2
15 2 27 4 12 9 19 12 17 3 -3 2 -15 -2 -27z m245 -45 c0 -17 -2 -17 -10 -5 -5
8 -10 24 -10 35 0 17 2 17 10 5 5 -8 10 -24 10 -35z m-100 -2 c-1 -12 -60 -67
-60 -56 0 14 39 63 51 63 5 0 9 -3 9 -7z m831 -20 c13 -16 12 -17 -3 -4 -10 7
-18 15 -18 17 0 8 8 3 21 -13z m-791 -8 c0 -8 -2 -15 -4 -15 -2 0 -6 7 -10 15
-3 8 -1 15 4 15 6 0 10 -7 10 -15z m731 -110 c7 -13 3 -12 -10 5 -11 14 -21
30 -21 35 0 11 14 -7 31 -40z m-667 3 c3 -13 6 -30 6 -37 0 -23 -16 0 -24 32
-8 32 9 37 18 5z m-114 -8 c0 -5 -5 -10 -11 -10 -5 0 -7 5 -4 10 3 6 8 10 11
10 2 0 4 -4 4 -10z m66 -22 c-18 -26 -22 -17 -5 14 6 11 13 17 16 15 3 -3 -2
-16 -11 -29z m-96 -48 c-6 -12 -14 -19 -17 -16 -4 3 0 18 8 32 7 14 15 21 17
15 2 -5 -2 -20 -8 -31z m801 3 c13 -16 12 -17 -3 -4 -10 7 -18 15 -18 17 0 8
8 3 21 -13z m39 -127 c0 -6 -7 -2 -15 8 -8 11 -15 25 -15 30 0 6 7 2 15 -8 8
-11 15 -25 15 -30z m-800 3 c0 -5 -4 -9 -10 -9 -5 0 -10 7 -10 16 0 8 5 12 10
9 6 -3 10 -10 10 -16z m849 -94 c0 -37 -2 -34 -19 30 -24 87 -24 102 1 50 10
-22 18 -58 18 -80z m-909 25 c-17 -32 -22 -18 -8 21 8 22 13 28 16 17 2 -9 -2
-27 -8 -38z m50 -17 c0 -18 -4 -33 -10 -33 -5 0 -10 21 -10 48 0 34 3 43 10
32 5 -8 10 -30 10 -47z m40 19 c0 -7 -4 -10 -10 -7 -5 3 -10 16 -10 28 0 18 2
19 10 7 5 -8 10 -21 10 -28z m-41 -152 c0 -11 -3 -10 -14 4 -8 11 -15 29 -15
40 1 19 2 19 15 -4 8 -14 14 -32 14 -40z m-348 -73 c52 -35 76 -77 77 -139 1
-47 0 -50 -10 -28 -12 25 -12 25 -16 -10 -2 -19 -8 -39 -13 -45 -12 -12 -12
-28 1 -20 19 12 10 -12 -13 -33 -21 -20 -87 -47 -87 -36 0 2 16 10 35 18 25
11 33 19 29 31 -5 12 -10 13 -17 6 -16 -16 -35 -13 -57 9 -24 24 -27 4 -3 -22
9 -10 12 -18 6 -18 -14 0 -39 22 -51 45 -11 19 -11 18 -12 -7 0 -17 8 -33 22
-42 12 -9 18 -16 12 -16 -6 0 -23 9 -38 21 -50 39 -22 114 41 107 21 -2 28 -8
27 -24 0 -14 4 -20 13 -17 19 7 16 21 -11 48 -22 22 -28 23 -55 14 -38 -13
-51 -35 -51 -84 l0 -36 -30 16 c-53 27 -98 18 -152 -33 l-28 -26 0 85 c0 91 3
100 38 118 60 32 129 -42 92 -99 -7 -11 -10 -8 -10 16 0 16 -5 35 -12 42 -18
18 -64 15 -79 -5 -11 -15 -11 -16 1 -5 33 29 88 3 77 -37 -7 -30 19 -33 37 -5
18 26 13 66 -10 85 -35 28 -2 94 64 129 54 28 139 27 183 -3z m117 -267 c12
-11 25 -32 28 -46 8 -32 -10 -74 -32 -74 -16 0 -16 1 -1 18 20 22 22 73 5 90
-7 7 -21 12 -32 11 -20 0 -20 -1 2 -11 31 -15 38 -50 16 -87 l-18 -30 -35 22
c-48 29 -129 28 -193 -2 -72 -35 -108 -126 -76 -195 10 -23 8 -28 -15 -47 -15
-11 -27 -27 -27 -34 0 -8 13 -1 30 16 28 29 30 29 59 14 17 -8 40 -15 53 -14
22 1 22 1 -3 8 -75 23 -103 66 -89 139 11 60 50 98 115 113 69 15 117 5 161
-33 35 -31 70 -85 60 -95 -2 -3 -12 9 -20 25 -16 32 -52 62 -72 62 -6 0 5 -17
26 -38 32 -32 39 -47 45 -97 5 -40 4 -64 -4 -78 -17 -26 -5 -35 15 -11 15 17
15 16 0 -8 -9 -15 -16 -29 -16 -31 0 -2 18 -9 40 -16 21 -6 46 -21 55 -34 17
-25 20 -70 5 -98 -13 -23 -40 -25 -40 -4 0 31 -47 65 -89 65 -56 0 -78 -11
-144 -70 -52 -47 -61 -52 -82 -42 -37 17 -43 58 -19 116 5 14 4 17 -4 12 -7
-4 -12 -2 -12 4 0 7 7 10 15 6 8 -3 31 4 50 15 l35 21 40 -20 c43 -21 54 -13
18 12 -13 10 -43 16 -73 16 -43 0 -56 -4 -79 -29 -25 -26 -27 -34 -22 -75 4
-25 9 -52 12 -60 6 -15 47 -36 71 -36 10 0 13 -6 9 -16 -3 -9 -6 -21 -6 -29 0
-7 -17 -15 -42 -18 -23 -3 -61 -19 -87 -37 -45 -32 -45 -32 -77 -15 -40 22
-54 52 -54 121 0 50 3 59 34 90 24 24 43 34 66 34 18 0 29 -4 25 -10 -3 -5
-15 -10 -25 -10 -29 0 -78 -50 -85 -87 -4 -20 -3 -33 3 -33 6 0 14 15 17 33 9
39 42 77 67 77 38 0 45 21 25 75 -17 49 -17 49 -14 12 3 -36 1 -38 -34 -47
-20 -6 -42 -17 -49 -25 -7 -8 -16 -15 -21 -15 -4 0 -8 96 -7 213 1 235 8 265
66 300 57 33 132 11 151 -45 13 -38 24 -36 16 3 l-7 31 26 -17 c19 -13 40 -16
77 -13 42 4 57 12 87 42 42 42 50 43 80 16z m19 -302 c-3 -8 -6 -5 -6 6 -1 11
2 17 5 13 3 -3 4 -12 1 -19z m571 -35 c2 -8 -6 -13 -22 -13 -25 0 -33 10 -19
24 10 10 36 3 41 -11z m33 -33 c22 0 39 -4 39 -10 0 -11 -109 -14 -160 -4 -48
10 -15 26 39 19 24 -3 61 -5 82 -5z m43 -46 c9 -8 16 -26 16 -39 0 -13 3 -30
6 -39 5 -14 -7 -16 -97 -16 -64 0 -99 4 -90 9 10 6 5 11 -20 17 l-34 8 30 7
c28 6 29 7 5 9 -21 2 -20 4 10 10 l35 7 -32 2 c-46 2 -41 21 5 22 37 1 37 1 7
9 -21 5 -5 8 57 9 67 1 90 -3 102 -15z m-189 -92 c-3 -3 -11 0 -18 7 -9 10 -8
11 6 5 10 -3 15 -9 12 -12z m-463 -42 c18 -22 35 -87 25 -96 -3 -3 -14 0 -25
7 -30 19 -72 -2 -72 -36 0 -14 5 -25 11 -25 6 0 9 6 6 14 -9 22 18 39 45 29
20 -7 22 -13 17 -48 -3 -22 -7 -32 -8 -22 0 9 -5 17 -10 17 -5 0 -11 -8 -15
-17 -3 -10 -9 -24 -12 -31 -5 -11 -2 -12 15 -3 33 18 24 3 -11 -19 -40 -24
-78 -26 -78 -4 0 23 -53 72 -86 80 -36 9 -45 22 -37 54 8 37 23 48 24 20 0
-20 3 -18 15 14 8 21 19 45 25 53 39 46 138 54 171 13z m135 -12 c-3 -8 -6 -5
-6 6 -1 11 2 17 5 13 3 -3 4 -12 1 -19z m-62 -72 c19 -28 12 -50 -21 -65 -23
-10 -25 -9 -22 11 2 13 9 23 17 23 20 0 26 24 7 31 -17 7 -22 24 -6 24 5 0 16
-11 25 -24z m565 -16 c0 -20 -5 -30 -15 -30 -8 0 -15 5 -15 10 0 13 -66 13
-91 0 -11 -6 -19 -7 -19 -2 0 12 33 21 80 23 35 2 35 2 5 7 l-30 5 30 7 c51
13 55 11 55 -20z m74 8 c23 -32 20 -38 -18 -38 -40 0 -47 8 -39 38 7 29 37 28
57 0z m-187 6 c-3 -3 -12 -4 -19 -1 -8 3 -5 6 6 6 11 1 17 -2 13 -5z m-403
-79 c22 -17 14 -20 -13 -6 -20 11 -35 4 -44 -21 -4 -12 -1 -18 8 -18 8 0 15
-7 15 -15 0 -18 -31 -20 -48 -3 -19 19 -14 45 10 62 28 20 47 20 72 1z m-323
-18 c19 -13 40 -22 46 -20 16 6 26 -32 17 -70 -4 -17 -8 -43 -8 -56 -4 -58
-102 -83 -145 -37 -19 20 -22 29 -14 53 12 34 53 46 53 15 0 -11 -6 -22 -12
-25 -7 -2 -10 -8 -6 -12 11 -11 38 14 38 35 0 25 -25 43 -51 35 -14 -5 -19 -4
-15 4 13 21 55 12 73 -15 14 -22 14 -29 4 -46 -10 -16 -10 -19 1 -16 17 6 22
52 8 78 -13 24 -65 27 -97 5 -17 -12 -20 -23 -17 -62 4 -58 37 -93 88 -93 l34
0 -14 -37 c-28 -79 -12 -149 48 -218 l42 -48 -32 -28 c-27 -24 -41 -29 -83
-29 -90 0 -149 58 -149 147 0 58 12 70 53 55 48 -17 97 -16 97 3 0 8 -5 15
-12 15 -7 0 -24 12 -40 27 -15 14 -31 23 -35 19 -5 -4 3 -16 16 -27 15 -12 18
-19 9 -19 -19 0 -64 48 -79 85 -6 17 -13 24 -16 17 -3 -7 5 -28 16 -48 12 -19
16 -32 11 -29 -22 14 -38 64 -43 142 -5 76 -3 86 19 118 28 41 15 48 -15 8
-11 -16 -21 -23 -21 -17 0 20 67 75 116 94 64 25 75 25 115 -3z m324 -9 c14
-6 25 -19 25 -30 0 -10 -2 -18 -4 -18 -2 0 -11 -3 -20 -6 -12 -5 -16 0 -16 19
0 14 -8 31 -17 36 -25 14 0 14 32 -1z m-561 -57 c-14 -35 -33 -115 -28 -122 3
-5 -2 -19 -11 -33 -19 -28 -12 -66 16 -92 23 -21 24 -13 3 27 -8 17 -13 38 -9
47 4 11 12 2 29 -34 13 -27 31 -57 41 -67 14 -14 15 -20 5 -32 -24 -29 -74 -7
-99 42 -15 30 -16 104 -2 131 10 18 9 22 -4 22 -13 0 -15 13 -14 78 2 42 4 80
6 84 2 4 19 -2 39 -14 25 -15 33 -25 28 -37z m465 7 c12 -16 10 -18 -24 -18
l-37 0 23 19 c13 11 24 19 24 18 1 -1 7 -10 14 -19z m-458 -139 c-6 -24 -9
-28 -10 -12 -1 24 9 56 16 50 2 -3 0 -20 -6 -38z m267 -51 c-5 -24 -13 -44
-19 -46 -12 -5 -12 -62 1 -62 6 0 10 6 10 13 0 6 9 -7 20 -31 21 -47 64 -72
124 -72 35 0 66 -21 66 -43 0 -21 -30 -57 -48 -57 -13 0 -12 3 6 16 24 17 29
43 10 62 -15 15 -45 16 -54 1 -4 -7 0 -9 13 -5 28 9 50 -18 33 -39 -29 -35
-129 0 -170 61 -31 47 -40 151 -17 207 22 51 37 48 25 -5z m742 -223 c0 -11
-10 -15 -32 -14 -28 2 -29 2 -8 7 23 4 24 5 5 13 -17 7 -17 8 8 8 18 1 27 -4
27 -14z m8 -53 c25 -32 7 -72 -31 -72 -14 0 -17 5 -13 16 5 12 2 15 -12 12
-17 -5 -42 13 -42 28 0 4 7 16 16 26 19 20 61 15 82 -10z m-48 -82 c8 -5 10
-10 4 -10 -7 0 -22 9 -35 21 -19 16 -20 18 -4 10 11 -6 27 -15 35 -21z m810
-272 c20 12 25 11 49 -11 40 -37 90 -69 99 -63 4 2 14 1 22 -5 10 -6 11 -9 3
-9 -7 0 -13 -9 -13 -20 0 -11 6 -20 13 -20 6 0 4 -5 -6 -11 -14 -8 -15 -14 -7
-24 18 -21 -46 -29 -109 -13 -54 13 -70 30 -35 36 10 2 24 10 31 19 10 13 15
12 43 -8 26 -20 32 -21 40 -9 15 23 12 33 -6 26 -9 -4 -28 1 -42 10 -23 15
-26 15 -37 0 -15 -20 -67 -21 -103 -2 -81 41 -78 41 -112 7 -26 -25 -40 -31
-75 -31 -24 0 -46 4 -50 10 -7 11 -30 4 -65 -20 -35 -24 -243 -37 -295 -19
-28 11 -40 11 -55 1 -33 -20 -118 -13 -220 19 -20 6 -15 8 23 8 62 1 189 21
202 31 6 5 48 4 95 -2 121 -14 327 5 396 37 28 13 57 31 64 40 7 8 18 15 24
15 7 0 23 11 36 25 l24 25 22 -27 c20 -25 25 -27 44 -15z m-1218 -2 c22 -22
47 -36 73 -40 22 -4 70 -28 108 -53 67 -46 94 -55 250 -84 47 -9 61 -9 80 4
17 11 28 12 47 4 27 -12 38 -13 210 -20 63 -2 88 -2 55 0 -33 2 -64 9 -70 15
-7 7 3 9 34 5 37 -5 50 -1 77 20 25 18 39 23 56 17 22 -7 41 -10 96 -13 37 -2
20 -24 -29 -38 l-44 -13 45 6 c24 2 50 10 57 15 18 16 65 14 171 -5 96 -17
132 -29 132 -46 0 -20 19 -9 22 12 2 13 11 24 21 26 13 3 17 -3 17 -26 l0 -30
-112 -6 c-177 -9 -1327 -20 -1753 -16 -74 0 -75 13 -1 26 63 10 251 107 301
154 15 14 39 46 53 72 33 59 57 62 104 14z m1413 -45 c-3 -6 -11 -11 -17 -11
-6 0 -6 6 2 15 14 17 26 13 15 -4z m40 -11 c3 -5 -1 -10 -10 -10 -9 0 -13 5
-10 10 3 6 8 10 10 10 2 0 7 -4 10 -10z m-308 -56 c12 -8 30 -14 40 -14 17 -1
17 -1 0 -11 -17 -10 -134 -5 -145 6 -3 3 3 14 13 25 19 21 51 19 92 -6z m268
6 c3 -5 -1 -10 -9 -10 -9 0 -16 5 -16 10 0 6 4 10 9 10 6 0 13 -4 16 -10z m68
-16 c12 -12 -6 -34 -27 -33 -20 0 -20 1 -1 9 19 8 19 9 -3 9 -13 1 -20 5 -17
11 7 11 38 14 48 4z m-3 -54 c0 -5 -6 -10 -14 -10 -8 0 -18 5 -21 10 -3 6 3
10 14 10 12 0 21 -4 21 -10z m-9 -30 c5 0 9 -9 9 -20 0 -15 -7 -20 -25 -20
-20 0 -25 5 -25 26 0 20 4 25 16 20 9 -3 20 -6 25 -6z m-8 -69 c15 -1 17 -12
17 -85 0 -75 -2 -84 -20 -89 -11 -3 -20 -10 -20 -16 0 -6 9 -11 20 -11 15 0
20 -7 20 -25 0 -24 -2 -25 -67 -26 -38 0 -187 -2 -333 -4 -306 -4 -918 -8
-939 -6 -11 1 -11 4 -1 16 8 9 10 28 6 50 -6 29 -4 34 9 29 9 -4 15 -1 15 9 0
21 -20 33 -30 17 -6 -9 -11 -7 -19 8 -7 14 -8 23 -1 27 6 4 8 11 4 16 -7 12
-34 -8 -34 -26 0 -7 10 -24 21 -39 26 -33 27 -69 3 -93 -16 -17 -44 -18 -378
-18 l-361 0 -3 122 -3 121 53 6 c29 3 399 8 823 12 424 3 771 6 772 7 1 2 409
0 446 -2z"/>
<path d="M1245 3600 c-8 -12 20 -24 35 -15 6 3 8 11 5 16 -8 12 -32 12 -40 -1z"/>
<path d="M1129 3483 c0 -10 -3 -13 -6 -5 -6 17 -23 15 -23 -2 0 -16 19 -25 38
-18 14 5 16 28 2 37 -5 3 -10 -2 -11 -12z"/>
<path d="M1487 3410 c3 -51 -3 -151 -14 -250 -23 -211 -21 -292 8 -375 29 -84
36 -76 10 12 -27 91 -28 134 -6 358 15 154 17 204 8 265 l-11 75 5 -85z"/>
<path d="M950 3466 c0 -13 20 -26 41 -26 5 0 9 9 9 20 0 15 -7 20 -25 20 -15
0 -25 -6 -25 -14z m40 0 c0 -3 -4 -8 -10 -11 -5 -3 -10 -1 -10 4 0 6 5 11 10
11 6 0 10 -2 10 -4z"/>
<path d="M1252 3463 c4 -20 39 -24 46 -5 2 7 -2 10 -12 6 -9 -3 -16 -1 -16 5
0 6 -5 11 -11 11 -6 0 -9 -8 -7 -17z"/>
<path d="M790 2820 c0 -3 7 -23 15 -45 12 -33 14 -36 15 -14 0 14 -7 34 -15
45 -8 10 -14 17 -15 14z"/>
<path d="M790 2222 c0 -49 15 -67 67 -85 48 -16 53 -14 53 25 0 33 -31 68 -60
68 -11 0 -23 7 -26 15 -12 31 -34 16 -34 -23z m83 -20 c9 -8 17 -23 17 -33 0
-15 -5 -17 -32 -12 -37 7 -48 18 -48 50 0 17 4 20 23 16 12 -3 30 -13 40 -21z"/>
<path d="M1340 2201 c0 -61 32 -88 115 -94 14 -2 21 5 23 21 5 33 -22 69 -57
77 -16 3 -35 13 -42 21 -22 27 -39 16 -39 -25z m77 -13 c32 -14 43 -26 43 -49
0 -14 -7 -15 -41 -9 -43 8 -59 22 -59 53 0 20 18 22 57 5z"/>
<path d="M806 2062 c-3 -3 -6 -20 -6 -39 0 -27 6 -37 40 -58 22 -14 40 -30 40
-35 0 -6 7 -10 15 -10 22 0 31 65 12 93 -15 23 -91 60 -101 49z m77 -50 c9 -8
17 -26 17 -39 l0 -23 -40 20 c-31 16 -40 26 -40 46 0 22 3 24 23 18 12 -3 30
-13 40 -22z"/>
<path d="M636 2015 c-10 -28 -7 -60 10 -83 8 -12 19 -20 24 -17 4 2 19 -4 33
-15 33 -26 45 -25 53 5 8 32 -18 72 -54 86 -15 6 -34 17 -43 25 -15 13 -17 13
-23 -1z m82 -59 c12 -11 22 -27 22 -36 0 -16 -4 -16 -40 2 -41 21 -66 51 -55
68 7 11 37 -3 73 -34z"/>
<path d="M1525 1978 c9 -69 20 -88 50 -88 13 0 27 -5 30 -10 11 -18 35 10 35
41 0 30 -30 69 -53 69 -8 0 -22 9 -32 20 -30 33 -37 24 -30 -32z m93 -56 c3
-31 3 -31 -28 -20 -33 11 -54 47 -44 73 6 14 10 13 38 -3 23 -13 32 -26 34
-50z"/>
<path d="M1296 2004 c-17 -44 8 -94 46 -94 9 0 21 -7 28 -15 18 -22 37 -18 42
8 7 39 -2 56 -48 87 -51 34 -60 36 -68 14z m68 -38 c53 -49 49 -66 -11 -46
-31 11 -54 45 -46 68 7 19 19 15 57 -22z"/>
<path d="M737 1610 c-3 -11 -1 -20 4 -20 5 0 9 9 9 20 0 11 -2 20 -4 20 -2 0
-6 -9 -9 -20z"/>
<path d="M1451 1604 c0 -11 3 -14 6 -6 3 7 2 16 -1 19 -3 4 -6 -2 -5 -13z"/>
<path d="M1472 1600 c0 -14 2 -19 5 -12 2 6 2 18 0 25 -3 6 -5 1 -5 -13z"/>
<path d="M1115 1440 c-3 -5 -4 -14 0 -20 8 -13 35 -1 35 16 0 16 -26 19 -35 4z"/>
<path d="M1081 1423 c-16 -17 -11 -25 8 -14 7 5 12 13 10 19 -2 6 -10 4 -18
-5z"/>
<path d="M1168 1338 c9 -9 15 -9 24 0 9 9 7 12 -12 12 -19 0 -21 -3 -12 -12z"/>
<path d="M1187 1284 c-13 -14 -7 -32 11 -30 9 2 18 11 20 22 2 14 1 16 -6 5
-7 -9 -11 -10 -13 -2 -3 7 -8 9 -12 5z"/>
<path d="M1140 1265 c0 -8 7 -15 15 -15 8 0 15 7 15 15 0 8 -7 15 -15 15 -8 0
-15 -7 -15 -15z"/>
<path d="M1090 1260 c0 -5 5 -10 10 -10 6 0 10 5 10 10 0 6 -4 10 -10 10 -5 0
-10 -4 -10 -10z"/>
<path d="M1115 1152 c-6 -6 4 -22 15 -22 4 0 10 6 13 13 5 13 -17 20 -28 9z"/>
<path d="M1058 1143 c6 -2 18 -2 25 0 6 3 1 5 -13 5 -14 0 -19 -2 -12 -5z"/>
<path d="M1160 1060 c-28 -21 -25 -32 8 -23 13 3 22 13 22 24 0 23 1 23 -30
-1z"/>
<path d="M711 1051 c-8 -5 -38 -8 -65 -5 -37 3 -45 2 -31 -5 31 -15 89 -13
111 4 21 16 8 20 -15 6z"/>
<path d="M1010 1050 c0 -5 5 -10 10 -10 6 0 10 5 10 10 0 6 -4 10 -10 10 -5 0
-10 -4 -10 -10z"/>
<path d="M1040 1045 c0 -8 7 -15 15 -15 8 0 15 7 15 15 0 8 -7 15 -15 15 -8 0
-15 -7 -15 -15z"/>
<path d="M1090 1040 c0 -5 7 -10 15 -10 8 0 15 5 15 10 0 6 -7 10 -15 10 -8 0
-15 -4 -15 -10z"/>
<path d="M672 956 c-9 -25 -25 -40 -55 -55 -23 -12 -36 -21 -29 -21 38 0 112
64 112 96 0 26 -16 14 -28 -20z"/>
<path d="M640 955 c-7 -9 -11 -18 -8 -20 3 -3 11 1 18 10 7 9 11 18 8 20 -3 3
-11 -1 -18 -10z"/>
<path d="M187 444 c-3 -3 -30 -10 -59 -14 -48 -7 -49 -8 -13 -8 38 0 128 26
94 27 -9 1 -18 -2 -22 -5z"/>
<path d="M463 2360 c6 -16 13 -27 15 -25 7 7 -8 55 -17 55 -5 0 -4 -13 2 -30z"/>
<path d="M72 2268 c-7 -7 -12 -16 -12 -21 0 -5 7 -1 16 8 10 10 24 13 36 9 14
-4 18 -2 14 5 -9 15 -39 14 -54 -1z"/>
<path d="M134 2154 c-19 -15 -19 -16 1 -8 11 4 32 7 48 7 15 0 27 4 27 8 0 15
-55 10 -76 -7z"/>
<path d="M467 2163 c-14 -13 -6 -24 13 -18 14 5 20 2 20 -9 0 -9 5 -16 10 -16
13 0 13 6 0 31 -11 19 -31 25 -43 12z"/>
<path d="M111 2103 c-17 -16 -33 -41 -36 -58 l-5 -30 12 32 c17 43 39 63 79
73 32 7 32 8 7 9 -17 1 -39 -9 -57 -26z"/>
<path d="M234 2114 c3 -9 6 -18 6 -20 0 -3 4 -3 10 1 11 7 2 35 -12 35 -6 0
-7 -7 -4 -16z"/>
<path d="M363 2053 c9 -2 23 -2 30 0 6 3 -1 5 -18 5 -16 0 -22 -2 -12 -5z"/>
<path d="M231 1992 c-18 -34 -13 -100 9 -122 28 -28 48 -25 22 3 -27 29 -36
66 -22 101 13 34 6 46 -9 18z"/>
<path d="M293 1995 c-42 -30 -21 -115 29 -115 8 0 23 9 33 20 10 11 13 20 7
20 -7 0 -12 -5 -12 -11 0 -16 -52 -6 -63 13 -8 12 -7 24 1 42 27 60 131 10
118 -57 -3 -17 -14 -39 -23 -49 -9 -10 -11 -18 -5 -18 19 0 42 43 42 77 0 64
-79 112 -127 78z"/>
<path d="M317 1963 c-14 -13 -7 -43 10 -43 13 0 14 3 6 11 -6 6 -9 18 -6 25 5
15 1 18 -10 7z"/>
<path d="M484 1928 c2 -7 6 -29 10 -49 5 -24 3 -47 -8 -72 -8 -21 -11 -37 -6
-37 22 0 36 108 21 168 -3 9 -19 -1 -17 -10z"/>
<path d="M201 1803 c-22 -27 -29 -83 -10 -83 6 0 9 9 6 20 -3 11 0 20 6 20 7
0 19 11 28 23 13 18 14 24 3 34 -10 10 -17 7 -33 -14z m19 -14 c-7 -11 -14
-19 -16 -16 -7 7 7 37 17 37 6 0 5 -9 -1 -21z"/>
<path d="M565 1730 c11 -12 13 -20 6 -20 -7 0 -10 -4 -6 -10 3 -5 12 -7 20 -3
9 3 15 -1 15 -11 0 -9 5 -16 10 -16 6 0 10 6 10 14 0 20 -39 66 -57 66 -14 0
-14 -3 2 -20z"/>
<path d="M264 1694 c-20 -19 -24 -31 -19 -52 3 -15 11 -31 16 -36 14 -15 22 1
10 22 -13 25 0 66 26 81 10 6 13 11 5 11 -7 0 -24 -11 -38 -26z"/>
<path d="M286 1655 c-3 -8 -1 -15 4 -15 6 0 10 7 10 15 0 8 -2 15 -4 15 -2 0
-6 -7 -10 -15z"/>
<path d="M90 1591 c-16 -31 -12 -77 11 -102 18 -20 19 -21 13 -4 -5 11 -9 44
-9 73 0 28 -1 52 -2 52 -1 0 -7 -9 -13 -19z"/>
<path d="M116 1522 c-6 -10 31 -48 38 -41 2 2 -4 14 -14 27 -10 12 -21 18 -24
14z"/>
<path d="M60 1499 c0 -17 27 -45 35 -37 3 3 -3 16 -14 29 -16 19 -20 20 -21 8z"/>
<path d="M438 1649 c-31 -18 -19 -30 13 -14 28 15 33 15 55 0 13 -8 24 -20 24
-26 0 -6 5 -7 11 -4 7 5 2 16 -12 31 -24 25 -62 31 -91 13z"/>
<path d="M525 1510 c3 -5 11 -10 16 -10 6 0 7 5 4 10 -3 6 -11 10 -16 10 -6 0
-7 -4 -4 -10z"/>
<path d="M178 1034 c-11 -11 -10 -49 3 -77 14 -31 78 -67 119 -67 35 0 70 15
70 31 0 6 -10 3 -22 -5 -28 -20 -51 -20 -92 -1 -37 18 -57 47 -65 93 -3 19 -9
30 -13 26z"/>
<path d="M254 951 c19 -21 56 -34 56 -20 0 5 -6 9 -14 9 -7 0 -19 7 -26 15 -7
8 -17 15 -23 15 -5 0 -2 -9 7 -19z"/>
<path d="M340 940 c-9 -6 -10 -10 -3 -10 6 0 15 5 18 10 8 12 4 12 -15 0z"/>
<path d="M370 1064 c0 -22 73 -94 95 -94 12 0 7 7 -16 23 -19 12 -41 37 -49
54 -16 35 -30 43 -30 17z"/>
<path d="M1588 383 c6 -2 18 -2 25 0 6 3 1 5 -13 5 -14 0 -19 -2 -12 -5z"/>
<path d="M1992 254 c-38 -26 -26 -57 27 -70 48 -11 60 -26 41 -49 -16 -19 -25
-19 -45 1 -12 13 -19 14 -30 4 -8 -7 -15 -19 -15 -27 0 -21 109 -14 124 9 19
31 -4 71 -49 83 -21 7 -41 17 -43 23 -6 18 26 26 44 12 11 -10 18 -10 26 -2
14 14 11 18 -27 26 -20 4 -38 1 -53 -10z"/>
<path d="M1317 248 c-9 -6 -9 -8 1 -8 16 0 15 -22 -3 -46 -14 -18 -16 -18 -29
-1 -19 24 -63 22 -71 -4 -8 -25 -27 -12 -45 31 -11 26 -18 30 -49 29 -30 0
-32 -2 -15 -9 12 -4 33 -32 49 -61 22 -42 25 -57 16 -71 -10 -16 -8 -18 17
-18 37 0 44 8 31 33 -8 14 -8 26 2 43 17 32 23 30 50 -12 22 -36 22 -37 4 -50
-17 -13 -16 -14 13 -14 23 0 30 4 26 15 -6 16 36 135 48 135 5 0 8 4 8 9 0 11
-35 10 -53 -1z"/>
<path d="M1406 239 c-57 -44 -20 -139 55 -139 44 0 83 40 83 85 0 68 -80 100
-138 54z m88 -15 c34 -33 10 -104 -34 -104 -23 0 -40 28 -40 67 0 50 41 70 74
37z"/>
<path d="M1575 175 c0 -81 1 -85 22 -85 19 0 21 4 16 34 -9 54 14 56 58 5 31
-36 40 -42 51 -31 10 10 7 17 -17 36 -27 22 -29 26 -16 48 7 14 11 36 9 49 -3
22 -8 24 -63 27 l-60 3 0 -86z m90 45 c0 -36 -41 -41 -47 -6 -6 31 0 38 27 34
14 -2 20 -10 20 -28z"/>
<path d="M1765 193 c1 -38 -2 -73 -7 -80 -13 -16 1 -20 54 -15 62 5 98 37 98
87 0 53 -28 75 -93 75 l-53 0 1 -67z m91 31 c20 -19 24 -31 19 -51 -7 -30 -32
-52 -57 -53 -15 0 -18 9 -18 58 0 80 12 91 56 46z"/>
<path d="M970 235 c-17 -20 -8 -49 15 -53 61 -9 66 -12 63 -40 -2 -22 -9 -28
-35 -30 -24 -2 -34 2 -43 19 l-12 22 -24 -26 c-13 -14 -24 -29 -24 -32 0 -9
117 -5 144 5 20 7 26 17 26 39 0 33 -9 41 -54 50 -35 8 -50 41 -19 41 11 0 24
-5 30 -11 13 -13 33 -4 33 17 0 19 -83 19 -100 -1z"/>
<path d="M312 230 c-22 -9 -42 -46 -42 -78 0 -10 11 -30 25 -45 27 -28 75 -36
105 -17 12 8 11 10 -6 10 -35 0 -76 38 -72 68 4 34 32 51 58 34 25 -15 27 -15
34 5 4 9 1 20 -6 25 -17 10 -67 9 -96 -2z"/>
<path d="M477 163 l2 -77 50 -2 c37 -2 57 3 73 16 13 10 20 22 15 26 -4 4 -13
0 -20 -10 -9 -12 -23 -17 -42 -14 -24 2 -31 8 -33 31 -3 25 -1 28 17 22 17 -5
21 -2 21 15 0 17 -4 20 -21 15 -17 -6 -20 -3 -17 16 4 31 38 38 45 10 7 -29
23 -26 23 4 0 24 -3 25 -57 25 l-58 0 2 -77z"/>
<path d="M134 222 c2 -4 -6 -30 -19 -57 -13 -28 -24 -55 -24 -62 -1 -6 -7 -14
-13 -16 -9 -4 -7 -6 3 -6 10 -1 22 15 32 40 15 37 19 40 49 37 28 -3 33 -7 36
-32 2 -16 -2 -32 -10 -37 -8 -6 2 -9 28 -9 l41 0 -19 63 c-11 34 -21 68 -23
75 -3 7 -21 12 -45 12 -23 0 -39 -3 -36 -8z m50 -18 c7 -19 -1 -34 -19 -34
-21 0 -28 19 -15 35 16 19 26 19 34 -1z"/>
<path d="M717 144 c-12 -13 -8 -42 8 -48 25 -9 46 5 43 28 -3 21 -37 34 -51
20z"/>
</g>
</svg>
