<?xml version="1.0" standalone="no"?>
<!DOCTYPE svg PUBLIC "-//W3C//DTD SVG 20010904//EN"
 "http://www.w3.org/TR/2001/REC-SVG-20010904/DTD/svg10.dtd">
<svg version="1.0" xmlns="http://www.w3.org/2000/svg"
 width="222.000000pt" height="387.000000pt" viewBox="0 0 222.000000 387.000000"
 preserveAspectRatio="xMidYMid meet">
<metadata>
Created by potrace 1.16, written by Peter Selinger 2001-2019
</metadata>
<g transform="translate(0.000000,387.000000) scale(0.100000,-0.100000)"
fill="#000000" stroke="none">
<path d="M114 3852 l-91 -3 -5 -97 c-8 -145 -1 -3696 7 -3721 l7 -22 1051 6
c579 3 1064 8 1080 11 l27 6 -1 701 c0 874 9 2424 17 2820 5 246 4 297 -7 299
-20 4 -1977 4 -2085 0z m2066 -191 c0 -162 -2 -180 -17 -185 -10 -4 -39 -39
-66 -79 -76 -115 -483 -682 -536 -747 -12 -14 -71 -92 -132 -174 -87 -115
-109 -150 -98 -157 8 -5 19 -9 24 -9 17 -1 60 -38 52 -46 -4 -4 -17 2 -30 13
-21 20 -60 43 -71 43 -3 0 -6 -6 -6 -14 0 -7 -6 -19 -13 -25 -10 -8 -21 -3
-47 24 l-33 34 7 86 c8 105 -7 150 -51 158 -49 9 -155 6 -174 -4 -35 -18 -46
-59 -47 -169 0 -97 -2 -106 -22 -119 -21 -14 -24 -13 -49 16 -14 16 -48 63
-76 103 -328 480 -662 952 -721 1019 l-39 44 -1 162 c0 89 3 171 7 181 6 19
36 19 1073 22 l1066 3 0 -180z m-2082 -281 c24 -35 246 -353 378 -540 272
-387 348 -500 340 -507 -10 -10 -36 21 -118 142 -41 61 -130 191 -199 290
-120 171 -151 217 -334 485 -43 63 -89 128 -102 143 -13 16 -23 36 -23 45 0
18 19 -1 58 -58z m2016 -12 c-31 -46 -111 -162 -177 -258 -66 -96 -146 -210
-176 -252 -31 -42 -123 -170 -204 -285 -179 -252 -181 -255 -200 -247 -12 4
24 59 145 222 89 119 184 249 213 287 28 39 76 104 107 145 30 41 85 118 121
170 37 52 86 120 110 150 23 30 56 76 72 102 17 27 34 48 38 48 5 0 -17 -37
-49 -82z m45 15 c-12 -21 -40 -63 -61 -93 -21 -30 -130 -192 -241 -360 -212
-319 -390 -581 -434 -639 -2 -3 -10 2 -18 10 -12 12 -5 27 58 112 96 130 245
341 402 567 70 102 160 230 199 285 39 55 79 112 89 128 26 41 32 32 6 -10z
m-1998 -154 c57 -83 111 -161 119 -173 31 -45 308 -448 402 -585 87 -127 108
-171 81 -171 -4 0 -30 35 -58 78 -54 84 -446 682 -474 722 -68 97 -172 254
-182 271 -29 55 18 -5 112 -142z m2017 -544 c-3 -411 -8 -685 -14 -686 -32 -4
-121 15 -159 33 -42 20 -49 21 -109 9 -35 -7 -74 -10 -85 -6 -11 3 -56 1 -99
-6 -75 -11 -82 -11 -136 11 l-56 24 -53 -22 c-73 -31 -84 -29 -89 13 -3 30 -1
34 13 30 20 -7 59 30 59 56 0 10 -16 27 -35 39 -21 13 -32 26 -28 33 4 7 26
37 49 67 34 46 187 267 219 318 6 9 24 39 42 66 18 28 71 107 118 176 48 69
97 141 108 160 55 90 248 370 255 370 3 0 3 -308 0 -685z m-1983 440 c76 -115
231 -349 344 -520 113 -170 207 -319 209 -330 2 -12 13 -34 26 -50 l23 -29
-45 -41 -45 -41 26 -29 25 -30 30 22 29 21 -10 -41 c-5 -23 -11 -48 -13 -55
-3 -9 -25 -12 -76 -11 -40 1 -109 -4 -153 -11 -108 -17 -117 -18 -139 -10 -11
4 -40 1 -65 -7 -25 -8 -110 -17 -187 -20 l-142 -6 3 679 c2 764 2 741 14 729
4 -6 70 -104 146 -220z m923 -633 c2 -7 -6 -12 -17 -12 -21 0 -27 11 -14 24 9
9 26 2 31 -12z m68 -46 c32 -24 6 -33 -108 -38 -112 -5 -123 -1 -91 34 13 15
31 18 98 18 55 0 87 -5 101 -14z m-12 -62 c8 -20 -19 -93 -39 -108 -26 -20
-79 -20 -95 -1 -17 21 -50 87 -50 101 0 23 176 29 184 8z m-184 -115 c0 -4
-23 -24 -52 -45 -29 -21 -81 -63 -117 -92 -58 -47 -66 -51 -80 -37 -18 18 -26
9 114 124 98 81 111 89 123 74 6 -9 12 -20 12 -24z m337 -43 c102 -76 111 -85
99 -102 -13 -17 -16 -16 -62 22 -27 22 -72 54 -100 72 -61 38 -88 67 -79 81
12 20 29 11 142 -73z m-532 64 c-3 -5 -11 -10 -16 -10 -6 0 -7 5 -4 10 3 6 11
10 16 10 6 0 7 -4 4 -10z m74 -4 c16 -19 6 -39 -29 -60 -29 -16 -30 -16 -30 1
0 11 -5 24 -11 30 -8 8 -4 15 17 27 36 19 39 19 53 2z m488 -13 c4 -10 11 -21
17 -25 8 -5 7 -8 -1 -8 -8 0 -10 -7 -6 -17 6 -15 -15 -4 -66 33 -2 2 -1 10 2
19 9 21 46 19 54 -2z m-281 -33 c10 0 31 6 45 14 26 13 27 12 32 -13 4 -17 16
-32 34 -40 l28 -13 -40 -35 c-35 -31 -44 -35 -82 -30 -54 6 -110 49 -88 67 8
7 15 28 15 48 0 33 1 34 18 19 10 -10 27 -17 38 -17z m165 -43 c-12 -12 -71
28 -71 49 0 10 11 7 40 -12 26 -18 37 -31 31 -37z m-254 5 c-9 -9 -23 -12 -33
-8 -16 6 -15 10 11 31 25 19 31 21 33 8 2 -8 -3 -22 -11 -31z m-40 -29 c4 -12
-34 -29 -44 -19 -3 3 -3 12 1 21 7 18 37 17 43 -2z m326 11 c3 -4 2 -16 -4
-26 -13 -24 -35 -9 -26 16 7 17 19 21 30 10z m-62 -28 c-9 -11 -7 -15 11 -20
13 -3 35 -6 51 -6 38 0 34 -20 -5 -21 -24 -1 -27 -3 -10 -6 32 -6 27 -23 -8
-23 -30 0 -41 -14 -17 -23 7 -3 4 -6 -6 -6 -11 -1 -30 -10 -44 -21 -21 -16
-29 -18 -40 -8 -11 9 -16 9 -24 -3 -7 -11 -9 -10 -9 6 0 22 58 108 87 131 23
17 28 18 14 0z m-216 -4 c34 -23 69 -100 48 -103 -58 -8 -86 -7 -73 2 11 7 6
8 -17 4 -40 -8 -42 -1 -5 20 27 16 27 16 2 11 -14 -3 -35 -9 -47 -12 -40 -11
-24 11 20 28 29 11 35 17 20 17 -12 1 -33 -3 -47 -9 -45 -17 -28 4 22 27 52
24 62 26 77 15z m355 -49 c7 -16 15 -71 18 -125 4 -87 2 -101 -21 -152 -29
-64 -47 -70 -89 -31 -15 14 -34 25 -41 25 -8 0 -17 9 -20 20 -4 16 -11 19 -29
15 -17 -4 -30 0 -43 15 -16 18 -17 24 -6 42 10 16 10 22 0 28 -8 6 -5 9 11 12
19 2 34 18 46 46 1 2 22 -7 47 -19 32 -16 50 -32 58 -53 l11 -31 10 28 c8 22
7 32 -6 46 -9 10 -16 23 -16 29 0 15 -26 16 -35 2 -7 -11 -25 -4 -25 9 0 5 13
14 29 21 18 7 38 29 53 56 12 24 26 44 29 44 3 0 12 -12 19 -27z m-224 -2
c-10 -16 -45 -19 -63 -5 -16 12 -13 13 25 14 24 0 41 -4 38 -9z m-194 -71 c27
0 22 -13 -13 -33 -18 -10 -29 -20 -26 -23 3 -3 17 2 31 12 15 9 29 14 32 11 3
-3 -8 -13 -24 -21 -33 -17 -62 -52 -62 -74 0 -11 3 -12 14 -3 11 10 15 8 19
-6 3 -10 5 -5 6 13 0 17 10 39 21 49 19 18 20 17 20 -3 0 -29 28 -28 32 1 2
14 9 21 21 21 12 -1 17 5 17 22 0 28 15 31 29 7 9 -15 10 -14 11 10 0 36 18
35 31 -3 8 -22 17 -30 35 -30 36 0 29 -18 -8 -22 -30 -3 -33 -6 -33 -36 -1
-22 -7 -37 -19 -44 -10 -6 -35 -25 -55 -42 -94 -83 -128 -92 -164 -43 -29 37
-41 214 -20 269 l15 37 35 -34 c20 -19 44 -35 55 -35z m636 -3 c28 -14 259
-44 268 -34 3 3 -22 8 -56 12 -81 9 -67 20 28 21 43 1 94 5 115 9 30 6 46 4
75 -12 35 -20 50 -24 135 -38 23 -4 37 -11 37 -20 0 -17 17 -16 -473 -21
l-318 -2 3 30 c3 27 7 31 36 34 18 2 40 11 48 19 19 19 66 19 102 2z m-770
-69 c-3 -25 11 -24 -322 -27 -71 -1 -127 -4 -124 -7 4 -3 105 -5 226 -4 l219
1 6 -52 c4 -28 15 -66 26 -84 14 -24 16 -36 8 -44 -8 -8 -8 -11 0 -11 6 0 13
4 15 10 2 6 15 6 33 2 28 -8 30 -11 26 -53 -1 -24 -8 -50 -13 -56 -6 -7 -7
-24 -4 -38 4 -15 0 -37 -9 -55 -15 -29 -23 -33 -55 -31 -8 0 -10 -2 -4 -5 12
-5 8 -47 -7 -80 -6 -11 -9 -25 -7 -31 2 -7 -5 -18 -15 -25 -11 -8 -20 -32 -24
-58 -4 -38 -13 -53 -55 -93 -28 -26 -44 -47 -36 -47 8 0 29 16 48 35 46 47 60
45 60 -9 0 -41 -2 -44 -31 -50 -48 -9 -89 -7 -89 5 0 6 -6 9 -12 7 -7 -3 -15
-27 -18 -54 -5 -48 -6 -49 -40 -51 -34 -3 -34 -2 -10 9 l25 11 -30 7 c-16 4
-64 8 -105 9 -71 2 -110 8 -190 29 -29 8 -16 10 68 11 60 1 102 5 102 11 0 6
21 11 48 11 40 1 36 3 -28 11 -41 5 -105 7 -142 6 -37 -2 -62 0 -55 4 7 4 -14
8 -45 8 -45 0 -58 3 -58 15 0 8 -8 15 -17 15 -10 0 -25 5 -33 10 -12 7 -9 9
10 8 44 -3 124 2 119 7 -3 2 -29 5 -57 6 -51 2 -76 19 -28 19 14 0 28 5 31 10
3 6 50 10 103 11 132 1 79 16 -73 21 -77 2 -115 7 -115 14 0 20 -39 24 -50 6
-8 -15 -9 -14 -10 4 0 12 -7 27 -15 34 -20 17 -20 79 0 86 14 6 13 8 -1 19
-26 18 -8 35 39 36 23 1 33 3 22 6 -11 2 -30 6 -42 9 -40 8 -28 34 15 33 33
-1 34 -2 12 -9 -22 -7 -20 -8 15 -10 101 -5 321 -6 330 -1 5 3 -1 8 -15 12
-18 5 -11 7 27 8 28 1 60 4 70 8 10 3 15 3 11 -2 -4 -4 -25 -11 -45 -15 -21
-4 16 -5 82 -2 66 2 122 7 125 9 2 2 -2 8 -10 13 -17 11 -21 10 64 16 77 5 87
13 45 32 -19 9 -46 27 -59 39 -13 13 -32 21 -44 19 -12 -2 -38 -7 -59 -11 -27
-5 -44 -3 -62 9 -13 9 -32 16 -40 16 -9 0 -37 14 -62 32 -62 42 -129 49 -184
19 -21 -12 -66 -27 -100 -32 -34 -5 -71 -16 -83 -24 -24 -17 -56 -20 -56 -5 0
6 8 11 18 11 16 1 16 2 -1 6 -9 2 -17 11 -17 18 0 7 -3 20 -6 29 -5 12 1 16
22 17 16 1 40 5 54 9 19 6 14 8 -22 7 -82 -3 -52 18 34 24 97 6 93 10 -12 12
-67 2 -75 4 -78 22 -3 19 2 20 79 16 51 -2 85 1 92 8 8 8 -14 11 -81 11 -75 0
-92 3 -92 15 0 15 3 16 39 19 38 2 34 16 -5 16 -29 0 -35 3 -24 10 9 6 76 8
160 5 80 -2 132 -1 115 3 -29 8 -28 8 20 17 28 5 79 10 115 11 36 1 85 7 110
12 25 5 89 10 143 11 97 1 98 1 95 -21z m1373 -28 c1 -3 2 -178 4 -388 l3
-384 -34 6 c-29 6 -35 3 -48 -22 -16 -31 -23 -32 -151 -32 -39 0 -40 -13 0
-23 11 -3 3 -5 -18 -6 -57 -2 -35 -21 23 -21 40 0 48 -3 44 -15 -5 -13 8 -15
77 -16 46 -1 72 -4 56 -6 -35 -6 -25 -23 14 -23 22 0 29 -5 29 -20 0 -26 -34
-26 -60 0 -28 28 -75 26 -101 -4 -24 -28 -88 -45 -177 -48 -48 -2 -42 -3 33
-9 56 -4 28 -5 -75 -2 -91 2 -175 7 -187 10 -13 3 -23 1 -23 -5 0 -6 17 -13
38 -15 33 -3 32 -4 -11 -5 l-48 -2 2 58 c1 33 8 64 17 74 8 9 17 38 19 63 l6
45 -81 0 c-91 0 -92 1 -84 93 3 35 8 47 21 48 14 1 14 2 -1 6 -10 2 -18 10
-19 16 -1 7 -2 31 -3 54 -1 27 -10 54 -24 70 -28 36 -47 78 -56 127 -4 21 -13
48 -21 60 -7 12 -18 45 -25 74 -7 28 -16 55 -21 58 -12 7 -11 -2 2 -49 9 -34
8 -41 -16 -69 -14 -17 -23 -33 -20 -36 3 -3 11 3 19 13 13 18 53 15 42 -4 -3
-5 0 -11 8 -14 7 -3 16 -17 18 -32 5 -23 3 -26 -16 -21 -12 3 -28 1 -36 -4
-13 -9 -13 -11 0 -20 10 -6 16 -6 18 0 5 14 22 12 22 -3 0 -7 9 -18 20 -24 10
-7 23 -21 29 -30 8 -16 3 -18 -57 -18 -59 0 -72 -4 -106 -30 -21 -16 -33 -31
-26 -33 6 -2 21 5 33 16 51 46 123 52 170 15 24 -18 28 -30 31 -77 4 -60 -8
-76 -19 -26 -7 33 -48 61 -87 59 -16 0 -11 -4 17 -13 28 -8 44 -20 54 -41 8
-17 18 -38 23 -47 4 -10 8 -50 8 -90 1 -76 13 -191 29 -268 16 -73 31 -163 28
-166 -1 -1 -13 -4 -27 -8 -14 -3 -19 -3 -11 0 11 5 11 8 0 15 -12 8 -11 11 1
19 13 8 12 10 -3 10 -12 0 -16 4 -10 13 14 22 12 38 -5 35 -13 -2 -15 -15 -13
-68 1 -35 5 -68 7 -72 6 -10 -17 -22 -46 -24 -14 -1 -51 -7 -83 -13 -72 -15
-86 -8 -20 8 68 18 123 42 117 52 -7 12 -54 11 -54 -1 0 -5 8 -7 18 -3 13 4
14 3 6 -6 -14 -16 -157 -49 -191 -45 -22 3 -21 2 6 -7 27 -8 31 -13 20 -20
-27 -17 -93 -9 -147 18 -51 26 -56 26 -81 12 -36 -21 -71 -9 -71 25 0 14 -6
53 -14 88 -8 35 -17 101 -21 148 -4 47 -9 94 -12 105 -2 11 -7 49 -10 85 -3
39 -11 68 -19 73 -8 4 -14 22 -13 40 0 18 -3 53 -6 78 -6 39 -4 49 14 66 12
11 19 27 16 35 -7 17 19 48 40 48 7 0 26 7 41 15 33 17 26 18 -28 6 -52 -12
-51 10 1 45 34 22 46 25 83 19 39 -7 41 -6 29 9 -7 9 -25 16 -40 16 -21 0 -28
7 -37 35 -12 39 -2 54 20 33 8 -7 33 -26 55 -42 23 -17 41 -36 41 -43 0 -7 10
-13 23 -12 14 0 17 3 8 6 -8 3 -25 19 -38 34 -13 15 -39 37 -57 49 -20 12 -36
31 -39 46 -7 41 10 98 35 114 12 8 39 30 59 48 20 17 39 32 43 32 3 0 6 -26 6
-57 0 -36 4 -53 9 -47 6 5 7 32 2 67 -8 61 2 84 25 53 7 -10 30 -27 51 -38
113 -61 146 -76 159 -71 21 8 64 97 64 133 0 16 1 31 3 32 2 1 619 13 735 13
28 0 52 -2 53 -5z m-1791 -208 c0 -5 -15 -13 -32 -19 -18 -6 -58 -21 -88 -32
-61 -23 -74 -26 -65 -11 8 13 -20 13 -65 0 -30 -8 -33 -8 -17 4 9 7 41 17 69
20 28 4 61 12 72 18 41 22 126 35 126 20z m345 -98 c6 -11 16 -19 23 -16 6 2
12 -1 12 -7 0 -6 -16 -11 -36 -11 -28 0 -35 3 -30 15 3 8 1 15 -4 15 -6 0 -10
7 -10 16 0 22 32 14 45 -12z m-320 6 c4 -6 -10 -10 -34 -10 -22 0 -43 -4 -46
-10 -3 -5 -15 -10 -26 -10 -24 0 -16 18 15 30 29 12 84 12 91 0z m110 0 c11
-17 -5 -32 -21 -19 -7 6 -11 15 -8 20 7 12 21 11 29 -1z m140 0 c-3 -5 -17
-10 -31 -10 -13 0 -24 5 -24 10 0 6 14 10 31 10 17 0 28 -4 24 -10z m-425 -15
c0 -8 7 -15 15 -15 8 0 15 -7 15 -15 0 -19 -29 -20 -36 -1 -4 11 -11 12 -35 3
-58 -22 -33 -34 78 -36 59 -1 109 -4 112 -6 2 -3 -50 -5 -115 -5 l-120 0 2 28
c2 42 3 42 27 52 34 14 57 12 57 -5z m250 -9 c0 -3 -4 -8 -10 -11 -5 -3 -10
-1 -10 4 0 6 5 11 10 11 6 0 10 -2 10 -4z m-367 -343 c-7 -2 -19 -2 -25 0 -7
3 -2 5 12 5 14 0 19 -2 13 -5z m-29 -19 c9 -3 16 -13 16 -22 0 -12 -3 -13 -12
-4 -8 8 -15 8 -24 1 -14 -12 -29 5 -19 21 7 12 17 12 39 4z m63 -90 c-3 -3
-12 -4 -19 -1 -8 3 -5 6 6 6 11 1 17 -2 13 -5z m-38 -20 c2 -2 -15 -4 -38 -4
-25 0 -40 4 -36 10 5 8 63 3 74 -6z m2046 1 c5 0 11 -7 13 -16 2 -12 -4 -15
-28 -11 -16 2 -30 10 -30 16 0 18 11 27 24 18 6 -4 15 -7 21 -7z m-2001 -10
c4 -10 -1 -15 -14 -15 -20 0 -26 11 -13 23 10 11 20 8 27 -8z m642 -20 c7 -30
7 -30 -23 -39 -18 -6 -23 -3 -24 11 0 16 -1 16 -9 -2 -6 -13 -9 -15 -9 -5 -1
9 -4 11 -9 5 -13 -18 -66 -12 -70 8 -8 39 5 47 72 47 62 0 66 -1 72 -25z m760
0 c-2 -27 -15 -47 -17 -24 -1 8 -5 3 -9 -11 -8 -24 -8 -23 -9 8 -1 39 -18 43
-24 5 -3 -23 -4 -21 -6 10 -1 36 0 37 32 37 30 0 34 -3 33 -25z m21 -27 c-2
-13 -4 -5 -4 17 -1 22 1 32 4 23 2 -10 2 -28 0 -40z m-110 10 c-3 -7 -5 -2 -5
12 0 14 2 19 5 13 2 -7 2 -19 0 -25z m-1377 12 c0 -5 -12 -10 -26 -10 -14 0
-23 4 -19 10 3 6 15 10 26 10 10 0 19 -4 19 -10z m186 -21 c-26 -6 -43 -6 -50
1 -7 7 6 10 40 9 l49 -1 -39 -9z m564 -163 c10 -75 10 -101 2 -104 -7 -2 -12
-8 -12 -13 0 -4 7 -6 15 -3 10 4 15 0 15 -11 0 -11 -5 -15 -15 -11 -8 3 -15 2
-15 -3 0 -5 9 -11 20 -14 15 -4 20 -14 20 -38 0 -31 -1 -32 -15 -13 -12 15
-16 16 -24 5 -32 -48 -37 43 -20 359 2 32 11 -21 29 -154z m1230 164 c0 -5 -5
-10 -11 -10 -5 0 -7 5 -4 10 3 6 8 10 11 10 2 0 4 -4 4 -10z m-1880 -9 c0 -5
8 -12 18 -14 9 -3 1 -5 -18 -6 -26 0 -31 2 -20 9 10 7 -5 9 -50 8 -36 -1 -50
-3 -32 -5 46 -6 40 -24 -8 -21 -26 2 -39 7 -36 15 3 6 0 14 -7 17 -7 2 25 5
71 5 45 1 82 -3 82 -8z m1935 -11 c-3 -5 -10 -10 -16 -10 -5 0 -9 5 -9 10 0 6
7 10 16 10 8 0 12 -4 9 -10z m-1815 -40 c0 -10 -8 -21 -17 -23 -10 -3 27 -5
82 -5 66 0 90 3 70 8 -27 7 -24 8 20 10 50 2 209 0 212 -3 8 -8 -13 -57 -24
-57 -8 0 -11 5 -8 10 3 6 3 10 -2 10 -205 7 -323 3 -348 -10 -20 -11 -29 -12
-32 -3 -3 8 -37 10 -116 8 -81 -2 -96 -1 -52 4 l60 8 -58 1 c-38 1 -56 6 -52
12 10 16 125 10 125 -6 0 -7 8 -10 20 -7 22 6 28 23 8 23 -9 0 -9 3 1 13 10
10 15 8 27 -7 17 -24 32 -12 16 14 -10 16 -8 19 16 22 38 5 52 -1 52 -22z m73
23 c-7 -2 -19 -2 -25 0 -7 3 -2 5 12 5 14 0 19 -2 13 -5z m-283 -23 c0 -5 -16
-10 -35 -10 -19 0 -35 5 -35 10 0 6 16 10 35 10 19 0 35 -4 35 -10z m679 1
c11 -1 12 -27 7 -153 -6 -147 -6 -152 15 -175 l22 -23 -21 -1 c-88 -4 -87 -4
-93 27 -3 16 -4 50 -1 76 3 26 0 53 -5 60 -11 14 -18 173 -8 188 3 5 20 8 38
6 18 -2 38 -4 46 -5z m-612 -7 c-3 -3 -12 -4 -19 -1 -8 3 -5 6 6 6 11 1 17 -2
13 -5z m1377 -160 c0 -83 -4 -159 -7 -168 -5 -12 -19 -16 -57 -16 -27 0 -50 5
-50 10 0 6 3 10 8 10 4 0 19 10 34 23 27 22 27 22 13 74 -13 50 -18 101 -16
175 1 38 13 48 56 45 19 -2 20 -9 19 -153z m528 125 c21 -11 21 -12 -3 -25
-36 -20 -47 -17 -41 11 5 28 13 30 44 14z m-1877 -39 c-3 -6 -42 -10 -86 -10
-104 0 -95 14 11 17 51 2 79 -1 75 -7z m62 -6 c-3 -3 -12 -4 -19 -1 -8 3 -5 6
6 6 11 1 17 -2 13 -5z m180 -1 c-31 -2 -83 -2 -115 0 -31 2 -5 3 58 3 63 0 89
-1 57 -3z m110 1 c-3 -3 -12 -4 -19 -1 -8 3 -5 6 6 6 11 1 17 -2 13 -5z m127
-3 c3 -5 -5 -11 -19 -13 -14 -3 -25 -2 -25 3 0 4 -15 10 -32 12 -23 3 -17 4
19 5 28 1 54 -2 57 -7z m1496 -11 c0 -5 -9 -10 -19 -10 -11 0 -23 5 -26 10 -4
6 5 10 19 10 14 0 26 -4 26 -10z m-2072 -7 c-10 -2 -26 -2 -35 0 -10 3 -2 5
17 5 19 0 27 -2 18 -5z m48 -20 c-10 -10 -19 5 -10 18 6 11 8 11 12 0 2 -7 1
-15 -2 -18z m94 23 c0 -11 -19 -15 -25 -6 -3 5 1 10 9 10 9 0 16 -2 16 -4z
m349 -1 c-7 -7 -319 -9 -326 -1 -3 3 69 6 162 6 93 0 166 -2 164 -5z m1201
-21 c0 -2 -16 -4 -36 -4 -19 0 -33 4 -30 8 5 8 66 4 66 -4z m290 6 c-8 -5 -22
-10 -30 -10 -13 0 -13 1 0 10 8 5 22 10 30 10 13 0 13 -1 0 -10z m-1993 -6
c-3 -3 -12 -4 -19 -1 -8 3 -5 6 6 6 11 1 17 -2 13 -5z m593 -2 c0 -4 -49 -7
-110 -7 -60 0 -110 3 -110 8 0 4 50 7 110 7 61 0 110 -4 110 -8z m1187 2 c-3
-3 -12 -4 -19 -1 -8 3 -5 6 6 6 11 1 17 -2 13 -5z m-192 -14 c4 -6 -17 -10
-54 -10 -34 0 -61 4 -61 10 0 6 24 10 54 10 30 0 58 -4 61 -10z m250 0 c-3 -5
-10 -10 -16 -10 -5 0 -9 5 -9 10 0 6 7 10 16 10 8 0 12 -4 9 -10z m-1820 -10
c-3 -5 -15 -10 -25 -10 -10 0 -22 5 -25 10 -4 6 7 10 25 10 18 0 29 -4 25 -10z
m1745 -2 c0 -4 -19 -8 -42 -8 -32 0 -39 3 -28 10 17 11 70 10 70 -2z m-1322
-5 c-16 -2 -40 -2 -55 0 -16 2 -3 4 27 4 30 0 43 -2 28 -4z m1641 3 c-2 -2
-71 -6 -154 -9 -82 -2 -125 -1 -95 3 59 7 256 13 249 6z m-1491 -46 c4 -12
-29 -13 -368 -15 -257 -1 -280 0 -280 16 0 18 642 17 648 -1z m1492 5 c0 -13
-38 -15 -299 -15 -176 0 -302 4 -306 9 -8 13 32 16 338 19 234 2 267 1 267
-13z m-6 -34 c11 -1 0 -731 -11 -742 -4 -4 -449 -9 -989 -12 -539 -3 -984 -7
-990 -8 -5 -1 -39 -1 -77 0 l-67 1 2 378 3 377 325 0 325 0 3 -45 c5 -93 1
-90 103 -90 70 0 91 -3 95 -15 4 -8 13 -15 21 -15 20 0 6 -19 -23 -30 -13 -5
-24 -16 -24 -25 0 -22 83 -20 153 4 36 13 69 17 96 14 23 -3 75 0 116 7 69 12
76 11 117 -9 55 -26 108 -37 108 -22 0 6 -11 11 -24 11 -13 0 -45 10 -72 21
-44 20 -46 23 -29 35 33 25 78 17 108 -17 15 -18 30 -29 33 -26 3 2 -6 17 -20
32 -14 15 -23 31 -20 36 3 5 32 9 64 9 l58 0 7 65 7 64 137 3 c121 3 441 2
465 -1z m-1133 -170 l32 -20 -36 -14 c-47 -20 -147 -33 -147 -19 0 6 9 14 20
17 11 4 32 17 47 31 31 29 43 30 84 5z"/>
<path d="M970 3759 c0 -6 7 -9 15 -5 28 10 45 -5 45 -40 0 -24 -5 -36 -17 -40
-48 -16 -40 -19 57 -24 105 -5 147 -1 100 10 -21 5 -25 12 -28 48 -3 39 -1 42
22 42 14 0 26 5 26 10 0 6 -43 10 -110 10 -74 0 -110 -4 -110 -11z m140 -48
c0 -44 -4 -51 -31 -44 -26 7 -28 80 -1 86 27 6 32 -1 32 -42z"/>
<path d="M1553 3466 c-44 -14 -92 -60 -93 -88 0 -14 4 -13 25 7 45 46 131 26
149 -33 10 -30 -10 -70 -46 -92 l-33 -20 30 0 c93 0 158 116 103 185 -17 22
-76 58 -90 54 -2 0 -22 -6 -45 -13z m115 -51 c34 -40 26 -109 -17 -142 -25
-20 -33 -15 -17 9 48 68 -10 158 -94 146 -40 -6 -38 9 3 20 45 12 98 -2 125
-33z"/>
<path d="M1068 2338 c9 -9 15 -9 24 0 9 9 7 12 -12 12 -19 0 -21 -3 -12 -12z"/>
<path d="M1060 2304 c0 -3 8 -13 17 -22 16 -16 16 -16 10 1 -6 15 -3 17 13 12
11 -4 20 -2 20 4 0 6 -13 11 -30 11 -16 0 -30 -3 -30 -6z"/>
<path d="M1860 1994 c35 -7 98 -9 94 -2 -3 5 -29 7 -57 7 -29 -1 -45 -3 -37
-5z"/>
<path d="M173 1893 c9 -2 25 -2 35 0 9 3 1 5 -18 5 -19 0 -27 -2 -17 -5z"/>
<path d="M270 1890 c0 -12 8 -12 35 0 18 8 17 9 -7 9 -16 1 -28 -3 -28 -9z"/>
<path d="M360 1892 c0 -9 78 -8 87 2 4 3 -15 6 -40 6 -26 0 -47 -4 -47 -8z"/>
<path d="M590 1890 c0 -5 12 -10 28 -9 24 0 25 1 7 9 -27 12 -35 12 -35 0z"/>
<path d="M720 1890 c0 -5 9 -10 20 -10 11 0 20 5 20 10 0 6 -9 10 -20 10 -11
0 -20 -4 -20 -10z"/>
<path d="M518 1883 c12 -2 30 -2 40 0 9 3 -1 5 -23 4 -22 0 -30 -2 -17 -4z"/>
<path d="M268 1853 c7 -3 16 -2 19 1 4 3 -2 6 -13 5 -11 0 -14 -3 -6 -6z"/>
<path d="M398 1843 c6 -2 18 -2 25 0 6 3 1 5 -13 5 -14 0 -19 -2 -12 -5z"/>
<path d="M680 1840 c0 -5 7 -10 15 -10 8 0 15 5 15 10 0 6 -7 10 -15 10 -8 0
-15 -4 -15 -10z"/>
<path d="M720 1838 c0 -5 16 -8 35 -8 19 0 35 4 35 9 0 4 -16 8 -35 7 -19 0
-35 -4 -35 -8z"/>
<path d="M538 1833 c7 -3 16 -2 19 1 4 3 -2 6 -13 5 -11 0 -14 -3 -6 -6z"/>
<path d="M220 1806 c0 -9 37 -12 55 -5 15 6 11 8 -17 8 -21 1 -38 -1 -38 -3z"/>
<path d="M332 1805 c9 -9 128 -13 134 -4 3 5 -27 9 -67 9 -40 0 -70 -2 -67 -5z"/>
<path d="M588 1803 c23 -2 61 -2 85 0 23 2 4 4 -43 4 -47 0 -66 -2 -42 -4z"/>
<path d="M470 1772 c0 -4 35 -8 78 -9 72 -1 74 0 27 7 -67 11 -105 12 -105 2z"/>
<path d="M725 1770 c3 -5 22 -10 41 -10 19 0 34 5 34 10 0 6 -18 10 -41 10
-24 0 -38 -4 -34 -10z"/>
<path d="M213 1753 c15 -2 39 -2 55 0 15 2 2 4 -28 4 -30 0 -43 -2 -27 -4z"/>
<path d="M660 1739 c0 -5 32 -9 72 -9 39 0 69 3 65 6 -10 10 -137 12 -137 3z"/>
<path d="M528 1733 c7 -3 16 -2 19 1 4 3 -2 6 -13 5 -11 0 -14 -3 -6 -6z"/>
<path d="M90 1720 c0 -12 8 -12 35 0 18 8 17 9 -7 9 -16 1 -28 -3 -28 -9z"/>
<path d="M540 1700 c0 -5 9 -10 20 -10 11 0 20 5 20 10 0 6 -9 10 -20 10 -11
0 -20 -4 -20 -10z"/>
<path d="M693 1693 c31 -2 83 -2 115 0 31 2 5 3 -58 3 -63 0 -89 -1 -57 -3z"/>
<path d="M796 1671 c5 -5 29 -5 54 -1 l45 7 -54 2 c-33 0 -51 -3 -45 -8z"/>
<path d="M740 1531 c0 -4 24 -8 53 -9 40 0 46 2 27 8 -35 11 -80 12 -80 1z"/>
<path d="M160 1503 c0 -5 42 -9 93 -9 81 -2 86 -1 37 6 -74 11 -130 12 -130 3z"/>
<path d="M396 1502 c-3 -5 36 -9 87 -9 79 0 85 1 42 8 -69 10 -123 11 -129 1z"/>
<path d="M603 1504 c3 -3 48 -7 99 -9 52 -1 84 1 73 6 -24 9 -181 12 -172 3z"/>
<path d="M95 1460 c19 -8 83 -14 74 -6 -2 2 -24 6 -49 9 -30 4 -38 3 -25 -3z"/>
<path d="M333 1453 c20 -2 54 -2 75 0 20 2 3 4 -38 4 -41 0 -58 -2 -37 -4z"/>
<path d="M573 1453 c26 -2 68 -2 95 0 26 2 4 3 -48 3 -52 0 -74 -1 -47 -3z"/>
<path d="M768 1453 c7 -3 16 -2 19 1 4 3 -2 6 -13 5 -11 0 -14 -3 -6 -6z"/>
<path d="M195 1420 c-13 -6 -15 -9 -5 -9 8 0 22 4 30 9 18 12 2 12 -25 0z"/>
<path d="M418 1418 c-8 -4 4 -8 30 -8 23 0 42 2 42 4 0 8 -60 12 -72 4z"/>
<path d="M535 1420 c-3 -5 -1 -10 4 -10 6 0 11 5 11 10 0 6 -2 10 -4 10 -3 0
-8 -4 -11 -10z"/>
<path d="M125 1390 c-4 -6 6 -10 22 -10 22 0 25 2 13 10 -19 12 -27 12 -35 0z"/>
<path d="M617 1383 c24 -2 62 -2 86 0 23 2 4 4 -43 4 -47 0 -66 -2 -43 -4z"/>
<path d="M205 1353 c-11 -3 -24 -9 -30 -15 -6 -6 1 -7 20 -1 17 4 64 7 105 7
63 -1 68 0 35 7 -43 9 -98 9 -130 2z"/>
<path d="M138 1343 c7 -3 16 -2 19 1 4 3 -2 6 -13 5 -11 0 -14 -3 -6 -6z"/>
<path d="M513 1343 c26 -2 67 -2 90 0 23 2 2 3 -48 3 -49 0 -68 -1 -42 -3z"/>
<path d="M423 1283 c-7 -2 -13 -9 -13 -14 0 -11 60 -11 115 0 l40 9 -52 1
c-28 0 -57 3 -65 5 -7 3 -19 2 -25 -1z"/>
<path d="M613 1283 c9 -2 23 -2 30 0 6 3 -1 5 -18 5 -16 0 -22 -2 -12 -5z"/>
<path d="M698 1283 c6 -2 18 -2 25 0 6 3 1 5 -13 5 -14 0 -19 -2 -12 -5z"/>
<path d="M310 1259 c0 -5 14 -9 30 -9 39 0 39 15 0 16 -17 1 -30 -3 -30 -7z"/>
<path d="M228 1253 c7 -3 16 -2 19 1 4 3 -2 6 -13 5 -11 0 -14 -3 -6 -6z"/>
<path d="M455 1229 c-32 -5 -25 -6 33 -8 39 0 72 1 72 3 0 8 -66 11 -105 5z"/>
<path d="M618 1233 c18 -2 45 -2 60 0 15 2 0 4 -33 4 -33 0 -45 -2 -27 -4z"/>
<path d="M220 1212 c0 -4 40 -8 90 -7 49 0 90 3 90 8 0 4 -40 7 -90 7 -49 0
-90 -4 -90 -8z"/>
<path d="M578 1193 c6 -2 18 -2 25 0 6 3 1 5 -13 5 -14 0 -19 -2 -12 -5z"/>
<path d="M543 1123 c9 -2 23 -2 30 0 6 3 -1 5 -18 5 -16 0 -22 -2 -12 -5z"/>
<path d="M1423 1893 c15 -2 37 -2 50 0 12 2 0 4 -28 4 -27 0 -38 -2 -22 -4z"/>
<path d="M1550 1897 c11 -10 120 -18 120 -9 0 5 -28 10 -62 11 -34 1 -60 0
-58 -2z"/>
<path d="M2025 1891 c11 -5 40 -5 65 -1 43 7 43 8 -20 8 -42 1 -58 -2 -45 -7z"/>
<path d="M1843 1883 c32 -2 81 -2 110 0 29 2 3 3 -58 3 -60 0 -84 -1 -52 -3z"/>
<path d="M2110 1870 c0 -5 10 -10 23 -10 18 0 19 2 7 10 -19 13 -30 13 -30 0z"/>
<path d="M1768 1853 c12 -2 32 -2 45 0 12 2 2 4 -23 4 -25 0 -35 -2 -22 -4z"/>
<path d="M1895 1850 c-3 -5 1 -10 9 -10 8 0 18 5 21 10 3 6 -1 10 -9 10 -8 0
-18 -4 -21 -10z"/>
<path d="M1418 1843 c12 -2 30 -2 40 0 9 3 -1 5 -23 4 -22 0 -30 -2 -17 -4z"/>
<path d="M2053 1843 c9 -2 25 -2 35 0 9 3 1 5 -18 5 -19 0 -27 -2 -17 -5z"/>
<path d="M1498 1833 c6 -2 18 -2 25 0 6 3 1 5 -13 5 -14 0 -19 -2 -12 -5z"/>
<path d="M1623 1833 c9 -2 23 -2 30 0 6 3 -1 5 -18 5 -16 0 -22 -2 -12 -5z"/>
<path d="M1692 1824 c-12 -8 -22 -23 -22 -34 0 -21 -48 -41 -79 -33 -12 3 -21
1 -21 -6 0 -6 -10 -11 -23 -11 -13 0 -27 -4 -32 -9 -6 -6 -37 -12 -70 -14 -33
-2 57 -3 200 -3 143 0 266 -3 273 -8 8 -5 65 -5 128 -1 111 7 114 7 92 24 -13
10 -30 18 -39 18 -8 0 -30 10 -47 23 -28 21 -35 22 -70 12 -63 -19 -63 -19
-184 40 -32 15 -43 8 -18 -11 13 -11 28 -17 33 -14 9 6 37 -15 37 -28 0 -5 -9
-9 -20 -9 -11 0 -20 -4 -20 -10 0 -5 -4 -10 -10 -10 -5 0 -10 7 -10 15 0 19
-37 38 -61 32 -10 -3 -19 -1 -19 4 0 5 -5 9 -11 9 -6 0 -8 -7 -4 -17 5 -15 4
-16 -6 -5 -17 16 7 42 39 45 12 1 22 5 22 9 0 13 -34 9 -58 -8z m355 -73 c11
-17 8 -20 -21 -25 -34 -7 -132 10 -140 23 -3 4 21 5 53 3 37 -3 61 0 65 7 11
17 30 13 43 -8z"/>
<path d="M1978 1813 c7 -3 16 -2 19 1 4 3 -2 6 -13 5 -11 0 -14 -3 -6 -6z"/>
<path d="M1385 1790 c-3 -5 1 -10 9 -10 9 0 16 5 16 10 0 6 -4 10 -9 10 -6 0
-13 -4 -16 -10z"/>
<path d="M1565 1780 c-19 -8 -19 -9 3 -9 12 -1 22 4 22 9 0 6 -1 10 -2 9 -2 0
-12 -4 -23 -9z"/>
<path d="M1010 1765 c0 -14 -3 -15 -15 -5 -13 11 -15 8 -15 -14 0 -14 5 -26
11 -26 8 0 10 -14 6 -45 -4 -25 -3 -45 2 -45 10 0 26 138 17 147 -3 4 -6 -2
-6 -12z"/>
<path d="M1343 1743 c9 -2 23 -2 30 0 6 3 -1 5 -18 5 -16 0 -22 -2 -12 -5z"/>
<path d="M1508 1693 c6 -2 18 -2 25 0 6 3 1 5 -13 5 -14 0 -19 -2 -12 -5z"/>
<path d="M1574 1692 c5 -8 66 -4 66 4 0 2 -16 4 -36 4 -19 0 -33 -4 -30 -8z"/>
<path d="M1650 1692 c0 -4 18 -6 40 -4 22 2 40 6 40 8 0 2 -18 4 -40 4 -22 0
-40 -3 -40 -8z"/>
<path d="M1770 1696 c0 -2 16 -6 35 -8 19 -2 35 0 35 4 0 4 -16 8 -35 8 -19 0
-35 -2 -35 -4z"/>
<path d="M1344 1678 c-3 -4 13 -8 35 -8 23 0 41 2 41 4 0 8 -71 12 -76 4z"/>
<path d="M1873 1682 c-6 -4 50 -8 125 -10 75 -2 134 0 131 3 -9 9 -243 16
-256 7z"/>
<path d="M1510 1659 c45 -8 227 -12 219 -5 -2 2 -62 5 -134 8 -77 3 -112 2
-85 -3z"/>
<path d="M1508 1613 c7 -3 16 -2 19 1 4 3 -2 6 -13 5 -11 0 -14 -3 -6 -6z"/>
<path d="M1623 1613 c9 -2 25 -2 35 0 9 3 1 5 -18 5 -19 0 -27 -2 -17 -5z"/>
<path d="M1950 1611 c25 -3 77 -3 115 0 60 5 53 6 -45 6 -71 0 -98 -2 -70 -6z"/>
<path d="M1393 1603 c9 -2 23 -2 30 0 6 3 -1 5 -18 5 -16 0 -22 -2 -12 -5z"/>
<path d="M1193 1527 c-35 -28 -61 -52 -59 -55 7 -6 100 66 114 87 7 12 11 21
10 20 -2 0 -31 -24 -65 -52z"/>
<path d="M2100 1570 c0 -5 12 -10 26 -10 14 0 23 4 19 10 -3 6 -15 10 -26 10
-10 0 -19 -4 -19 -10z"/>
<path d="M1548 1553 c6 -2 18 -2 25 0 6 3 1 5 -13 5 -14 0 -19 -2 -12 -5z"/>
<path d="M1235 1520 c-16 -16 -37 -32 -47 -36 -10 -3 -18 -12 -18 -19 0 -8
-13 -21 -29 -30 -27 -14 -33 -13 -88 15 -32 16 -69 30 -83 30 -16 -1 -3 -8 35
-21 33 -11 67 -27 76 -35 8 -8 22 -14 29 -14 20 0 80 43 80 58 0 6 5 12 10 12
13 0 75 59 68 65 -2 3 -17 -9 -33 -25z"/>
<path d="M1908 1543 c23 -2 59 -2 80 0 20 2 1 4 -43 4 -44 0 -61 -2 -37 -4z"/>
<path d="M1648 1523 c7 -3 16 -2 19 1 4 3 -2 6 -13 5 -11 0 -14 -3 -6 -6z"/>
<path d="M2083 1523 c15 -2 37 -2 50 0 12 2 0 4 -28 4 -27 0 -38 -2 -22 -4z"/>
<path d="M1416 1500 c7 -7 24 -7 50 -1 l39 9 -49 1 c-34 1 -47 -2 -40 -9z"/>
<path d="M1010 1495 c0 -7 58 -35 72 -35 7 1 -3 9 -22 20 -35 19 -50 24 -50
15z"/>
<path d="M1550 1490 c0 -5 24 -10 53 -9 38 0 47 3 32 9 -28 12 -85 12 -85 0z"/>
<path d="M2070 1480 l-35 -7 43 -2 c23 0 42 4 42 9 0 6 -3 9 -7 9 -5 -1 -24
-5 -43 -9z"/>
<path d="M1858 1473 c12 -2 30 -2 40 0 9 3 -1 5 -23 4 -22 0 -30 -2 -17 -4z"/>
<path d="M1470 1439 c0 -5 11 -9 25 -9 14 0 25 2 25 4 0 2 -11 6 -25 8 -14 3
-25 1 -25 -3z"/>
<path d="M880 1423 c-8 -2 -21 -7 -29 -9 -8 -2 -11 -7 -8 -10 8 -9 77 7 71 17
-6 10 -11 10 -34 2z"/>
<path d="M1633 1423 c9 -2 25 -2 35 0 9 3 1 5 -18 5 -19 0 -27 -2 -17 -5z"/>
<path d="M1818 1413 c7 -3 16 -2 19 1 4 3 -2 6 -13 5 -11 0 -14 -3 -6 -6z"/>
<path d="M2048 1413 c18 -2 45 -2 60 0 15 2 0 4 -33 4 -33 0 -45 -2 -27 -4z"/>
<path d="M890 1369 c0 -7 11 -8 31 -4 22 5 36 2 50 -11 10 -9 19 -12 19 -6 0
6 -9 16 -19 22 -26 13 -81 13 -81 -1z"/>
<path d="M1485 1360 c3 -5 16 -10 28 -10 18 0 19 2 7 10 -20 13 -43 13 -35 0z"/>
<path d="M1678 1343 c7 -3 16 -2 19 1 4 3 -2 6 -13 5 -11 0 -14 -3 -6 -6z"/>
<path d="M1800 1340 c0 -5 12 -10 28 -9 24 0 25 1 7 9 -27 12 -35 12 -35 0z"/>
<path d="M2018 1343 c12 -2 32 -2 45 0 12 2 2 4 -23 4 -25 0 -35 -2 -22 -4z"/>
<path d="M2108 1343 c6 -2 18 -2 25 0 6 3 1 5 -13 5 -14 0 -19 -2 -12 -5z"/>
<path d="M1045 1313 c32 -18 185 -29 185 -14 0 5 -33 9 -73 9 -39 0 -85 5
-100 11 -41 16 -47 13 -12 -6z"/>
<path d="M915 1310 c3 -5 14 -10 23 -10 15 0 15 2 2 10 -20 13 -33 13 -25 0z"/>
<path d="M1550 1300 c0 -5 9 -10 20 -10 11 0 20 5 20 10 0 6 -9 10 -20 10 -11
0 -20 -4 -20 -10z"/>
<path d="M1480 1284 c0 -15 104 -136 108 -125 2 7 -7 25 -20 39 -14 15 -35 42
-47 60 -20 29 -41 42 -41 26z"/>
<path d="M1813 1283 c9 -2 25 -2 35 0 9 3 1 5 -18 5 -19 0 -27 -2 -17 -5z"/>
<path d="M2018 1283 c6 -2 18 -2 25 0 6 3 1 5 -13 5 -14 0 -19 -2 -12 -5z"/>
<path d="M985 1270 c3 -5 8 -10 11 -10 2 0 4 5 4 10 0 6 -5 10 -11 10 -5 0 -7
-4 -4 -10z"/>
<path d="M1903 1253 c9 -2 25 -2 35 0 9 3 1 5 -18 5 -19 0 -27 -2 -17 -5z"/>
<path d="M1565 1240 c3 -5 13 -10 21 -10 8 0 12 5 9 10 -3 6 -13 10 -21 10 -8
0 -12 -4 -9 -10z"/>
<path d="M930 1236 c0 -9 73 -76 78 -71 6 6 -58 75 -70 75 -4 0 -8 -2 -8 -4z"/>
<path d="M1673 1213 c9 -2 23 -2 30 0 6 3 -1 5 -18 5 -16 0 -22 -2 -12 -5z"/>
<path d="M1843 1213 c9 -2 23 -2 30 0 6 3 -1 5 -18 5 -16 0 -22 -2 -12 -5z"/>
<path d="M2038 1213 c6 -2 18 -2 25 0 6 3 1 5 -13 5 -14 0 -19 -2 -12 -5z"/>
<path d="M1030 1190 c0 -11 5 -20 11 -20 6 0 9 -6 6 -12 -2 -7 -11 -12 -21
-10 -18 3 -22 -13 -6 -23 6 -4 24 -37 41 -73 17 -37 33 -62 35 -56 3 6 -7 35
-20 66 -19 43 -23 63 -17 90 7 29 5 37 -10 47 -16 9 -19 8 -19 -9z"/>
<path d="M1162 1190 c0 -14 2 -19 5 -12 2 6 2 18 0 25 -3 6 -5 1 -5 -13z"/>
<path d="M1215 1180 c-3 -5 -1 -10 4 -10 6 0 11 5 11 10 0 6 -2 10 -4 10 -3 0
-8 -4 -11 -10z"/>
<path d="M1100 1138 c0 -32 3 -39 10 -28 7 11 10 3 11 -30 1 -38 2 -41 9 -20
4 14 8 48 8 75 0 39 -2 45 -8 25 -8 -24 -8 -24 -9 -2 -2 41 -21 23 -21 -20z"/>
<path d="M1385 1118 c-6 -36 -7 -64 -3 -62 10 7 20 66 16 100 -2 20 -6 7 -13
-38z"/>
<path d="M1082 1140 c0 -19 2 -27 5 -17 2 9 2 25 0 35 -3 9 -5 1 -5 -18z"/>
<path d="M1718 1163 c7 -3 16 -2 19 1 4 3 -2 6 -13 5 -11 0 -14 -3 -6 -6z"/>
<path d="M1838 1143 c7 -3 16 -2 19 1 4 3 -2 6 -13 5 -11 0 -14 -3 -6 -6z"/>
<path d="M1673 1133 c9 -2 23 -2 30 0 6 3 -1 5 -18 5 -16 0 -22 -2 -12 -5z"/>
<path d="M1773 1100 c-4 -15 -17 -21 -54 -26 -72 -10 -74 -34 -1 -34 35 0 52
4 44 9 -19 12 8 21 64 21 24 0 44 5 44 11 0 5 -4 8 -9 4 -6 -3 -15 4 -21 15
-14 27 -60 27 -67 0z"/>
<path d="M1160 1090 c0 -11 5 -20 10 -20 6 0 10 9 10 20 0 11 -4 20 -10 20 -5
0 -10 -9 -10 -20z"/>
<path d="M1638 1103 c7 -3 16 -2 19 1 4 3 -2 6 -13 5 -11 0 -14 -3 -6 -6z"/>
<path d="M1190 1040 c0 -33 4 -60 8 -60 5 0 8 27 8 60 -1 33 -4 60 -8 60 -5 0
-8 -27 -8 -60z"/>
<path d="M1030 1048 c4 -18 15 -62 25 -98 9 -36 21 -81 26 -100 10 -41 47
-105 56 -97 3 3 -4 21 -15 39 -11 18 -35 91 -53 161 -17 70 -35 127 -39 127
-4 0 -4 -15 0 -32z"/>
<path d="M1618 1043 c6 -2 18 -2 25 0 6 3 1 5 -13 5 -14 0 -19 -2 -12 -5z"/>
<path d="M1685 1020 c-19 -8 -19 -9 3 -9 12 -1 22 4 22 9 0 6 -1 10 -2 9 -2 0
-12 -4 -23 -9z"/>
<path d="M1788 1023 c6 -2 18 -2 25 0 6 3 1 5 -13 5 -14 0 -19 -2 -12 -5z"/>
<path d="M1858 1023 c6 -2 18 -2 25 0 6 3 1 5 -13 5 -14 0 -19 -2 -12 -5z"/>
<path d="M1360 994 c-16 -41 -29 -104 -21 -104 3 0 13 29 21 65 17 68 16 83 0
39z"/>
<path d="M1401 1004 c0 -11 3 -14 6 -6 3 7 2 16 -1 19 -3 4 -6 -2 -5 -13z"/>
<path d="M1588 1003 c6 -2 18 -2 25 0 6 3 1 5 -13 5 -14 0 -19 -2 -12 -5z"/>
<path d="M931 894 c0 -11 3 -14 6 -6 3 7 2 16 -1 19 -3 4 -6 -2 -5 -13z"/>
<path d="M1405 900 c-3 -5 -1 -10 4 -10 6 0 11 5 11 10 0 6 -2 10 -4 10 -3 0
-8 -4 -11 -10z"/>
<path d="M1410 869 c0 -5 5 -7 10 -4 6 3 10 8 10 11 0 2 -4 4 -10 4 -5 0 -10
-5 -10 -11z"/>
<path d="M1327 843 c-2 -10 -8 -26 -12 -35 -4 -10 -3 -18 3 -18 5 0 12 8 15
18 2 9 8 25 12 35 4 9 3 17 -3 17 -5 0 -12 -8 -15 -17z"/>
<path d="M1410 840 c-8 -5 -10 -10 -5 -10 6 0 17 5 25 10 8 5 11 10 5 10 -5 0
-17 -5 -25 -10z"/>
<path d="M955 830 c3 -5 11 -10 16 -10 6 0 7 5 4 10 -3 6 -11 10 -16 10 -6 0
-7 -4 -4 -10z"/>
<path d="M975 780 c3 -5 8 -10 11 -10 2 0 4 5 4 10 0 6 -5 10 -11 10 -5 0 -7
-4 -4 -10z"/>
<path d="M1370 740 c-13 -8 -13 -10 2 -10 9 0 20 5 23 10 8 13 -5 13 -25 0z"/>
<path d="M983 727 c9 -8 17 -19 17 -24 0 -17 52 -22 67 -7 11 11 7 15 -27 24
-23 6 -49 13 -58 16 -15 5 -15 4 1 -9z"/>
<path d="M1285 710 c-3 -5 -2 -10 4 -10 5 0 13 5 16 10 3 6 2 10 -4 10 -5 0
-13 -4 -16 -10z"/>
<path d="M1183 693 c9 -2 23 -2 30 0 6 3 -1 5 -18 5 -16 0 -22 -2 -12 -5z"/>
<path d="M1230 680 l-25 -8 27 -1 c15 -1 30 4 33 9 7 11 0 11 -35 0z"/>
<path d="M1085 650 c3 -5 8 -10 11 -10 2 0 4 5 4 10 0 6 -5 10 -11 10 -5 0 -7
-4 -4 -10z"/>
<path d="M835 740 c3 -5 11 -10 16 -10 6 0 7 5 4 10 -3 6 -11 10 -16 10 -6 0
-7 -4 -4 -10z"/>
<path d="M2035 426 c-14 -14 -34 -30 -46 -36 -23 -13 -16 -30 12 -30 31 0 22
-18 -13 -25 -29 -7 -30 -9 -14 -20 17 -13 17 -14 -1 -18 -10 -3 -4 -5 12 -4
29 2 30 1 33 -50 4 -67 22 -69 22 -3 0 50 0 50 33 51 28 0 29 2 12 10 -15 7
-9 8 23 4 25 -3 42 -1 42 5 0 5 -24 11 -52 11 -49 2 -51 2 -18 9 l35 7 -37 2
c-54 2 -47 19 10 24 l47 3 -47 2 c-27 1 -48 6 -48 10 0 5 15 7 33 5 l32 -3
-35 14 -35 14 40 3 c47 5 57 32 13 37 -19 2 -36 -5 -53 -22z m58 -3 c-7 -2
-21 -2 -30 0 -10 3 -4 5 12 5 17 0 24 -2 18 -5z m-73 -43 c0 -5 -7 -10 -16
-10 -8 0 -12 5 -9 10 3 6 10 10 16 10 5 0 9 -4 9 -10z"/>
<path d="M2065 270 c-3 -5 1 -10 10 -10 9 0 13 5 10 10 -3 6 -8 10 -10 10 -2
0 -7 -4 -10 -10z"/>
</g>
</svg>
