<?xml version="1.0" standalone="no"?>
<!DOCTYPE svg PUBLIC "-//W3C//DTD SVG 20010904//EN"
 "http://www.w3.org/TR/2001/REC-SVG-20010904/DTD/svg10.dtd">
<svg version="1.0" xmlns="http://www.w3.org/2000/svg"
 width="217.000000pt" height="387.000000pt" viewBox="0 0 217.000000 387.000000"
 preserveAspectRatio="xMidYMid meet">
<metadata>
Created by potrace 1.16, written by Peter Selinger 2001-2019
</metadata>
<g transform="translate(0.000000,387.000000) scale(0.100000,-0.100000)"
fill="#000000" stroke="none">
<path d="M40 3835 c-11 -13 -14 -110 -15 -553 -1 -295 -5 -1148 -9 -1894 -7
-1302 -6 -1357 11 -1366 11 -6 210 -8 513 -6 272 3 743 6 1045 7 303 2 556 6
563 11 11 6 13 48 12 190 -1 99 -2 555 -1 1011 0 457 1 1064 1 1350 0 286 3
617 5 735 6 308 -3 507 -24 516 -9 3 -482 9 -1051 11 -962 5 -1037 4 -1050
-12z m507 -19 c2 -2 -8 -21 -22 -42 -58 -85 -44 -142 43 -180 2 -1 -8 -18 -22
-39 -35 -50 -46 -96 -46 -184 0 -62 5 -83 31 -135 17 -33 41 -75 54 -92 24
-31 130 -94 159 -94 22 0 66 -91 66 -138 0 -59 -26 -121 -68 -164 -20 -21 -42
-38 -48 -38 -15 0 -54 74 -54 104 0 15 -7 43 -15 63 -22 51 -19 61 21 80 32
16 35 21 30 48 -4 16 -13 36 -21 44 -12 12 -20 11 -56 -13 -23 -15 -45 -24
-49 -19 -45 51 -100 145 -100 171 0 17 -7 38 -16 46 -21 21 -80 21 -88 0 -11
-28 -6 -62 9 -78 15 -14 68 -155 77 -199 2 -15 -9 -24 -47 -39 -66 -26 -70
-30 -50 -67 22 -44 36 -46 81 -16 l39 26 38 -43 c23 -26 90 -148 172 -313 115
-231 190 -375 203 -395 2 -3 19 13 38 34 37 43 43 76 18 97 -14 12 -144 260
-144 275 0 11 93 -7 135 -26 22 -9 52 -28 68 -41 l27 -25 0 -192 0 -193 22 7
c49 15 122 88 97 96 -7 2 -12 57 -15 143 l-3 140 47 32 c78 52 199 82 217 53
9 -15 -132 -284 -159 -302 -6 -4 -5 -12 3 -22 20 -24 119 -22 128 2 19 55 140
291 149 291 19 1 85 -78 107 -128 18 -40 20 -64 19 -185 -2 -206 -40 -338
-138 -486 -102 -155 -297 -360 -341 -360 -59 0 -214 112 -367 264 -122 122
-135 139 -187 241 -70 136 -104 274 -97 400 6 105 50 201 115 247 51 37 50 47
-4 20 -45 -23 -61 -40 -98 -104 -24 -43 -31 -48 -61 -48 -30 0 -37 4 -45 30
-10 26 -16 30 -50 30 -29 0 -42 6 -53 23 -21 32 -10 65 25 72 28 6 79 56 79
77 0 24 35 36 86 31 61 -7 107 3 101 20 -2 8 -23 11 -63 9 -32 -2 -70 1 -84 6
-22 8 -30 6 -48 -13 -12 -13 -22 -28 -22 -34 0 -18 -51 -61 -72 -61 -11 0 -31
-9 -45 -20 -41 -32 -92 -26 -142 16 -54 46 -68 35 -16 -13 49 -45 98 -66 136
-58 22 5 29 3 29 -9 0 -8 -4 -17 -9 -20 -11 -7 -32 -104 -66 -301 -14 -82 -36
-208 -49 -280 -22 -115 -39 -218 -76 -456 -5 -36 -10 -74 -9 -85 2 -29 56 239
69 341 6 50 22 142 35 205 13 63 36 185 50 270 40 238 48 265 71 263 68 -9 94
-17 94 -29 0 -8 9 -23 20 -34 15 -15 27 -18 51 -13 27 5 31 3 26 -9 -19 -52
-19 -159 2 -249 12 -52 24 -104 26 -117 4 -14 1 -21 -6 -20 -7 2 -15 -10 -19
-27 -13 -51 -57 -300 -95 -525 -19 -118 -44 -269 -55 -335 -11 -66 -31 -196
-45 -290 -23 -163 -47 -303 -61 -362 -5 -20 -3 -25 4 -18 15 14 58 232 72 365
6 58 22 164 35 235 13 72 26 157 30 190 3 33 15 105 26 160 10 55 28 156 38
225 33 206 67 370 79 370 4 0 27 -37 52 -82 53 -96 130 -195 228 -291 l69 -69
-30 -56 c-16 -31 -38 -66 -47 -77 -59 -70 -220 -379 -220 -422 0 -28 21 -39
49 -24 11 6 48 52 82 101 34 50 64 89 66 87 1 -2 -2 -19 -7 -38 -6 -19 -17
-76 -26 -127 -21 -129 -49 -265 -85 -409 -17 -68 -29 -131 -27 -140 7 -30 118
450 118 508 0 15 12 71 26 125 14 55 27 106 28 114 6 40 29 89 51 110 29 28
29 28 10 -36 -8 -27 -23 -103 -35 -169 -11 -66 -29 -167 -40 -225 -11 -58 -27
-154 -35 -215 -9 -60 -30 -175 -46 -255 -33 -164 -32 -160 -20 -160 5 0 12 19
16 43 3 23 10 65 15 92 24 130 76 437 110 657 10 65 30 160 44 211 14 52 26
103 26 114 0 21 58 118 66 110 2 -2 -4 -47 -15 -98 -11 -52 -27 -148 -36 -214
-38 -284 -47 -345 -66 -434 -21 -104 -24 -136 -10 -111 11 21 37 161 56 310
41 317 76 524 89 537 3 3 23 -8 45 -23 l41 -29 1 -290 c1 -285 2 -317 14 -402
5 -37 10 -43 29 -43 16 0 27 9 34 27 7 17 13 155 16 347 3 175 6 319 8 320 2
1 22 17 46 35 24 19 44 32 46 30 19 -24 90 -137 116 -184 17 -33 46 -81 64
-107 17 -25 46 -72 64 -103 27 -44 39 -55 55 -53 36 5 29 81 -12 149 -19 30
-65 113 -102 185 -65 124 -68 132 -58 168 6 21 8 40 5 44 -3 3 -9 -9 -12 -26
-7 -35 -18 -41 -28 -16 -10 27 -8 31 57 106 78 90 221 316 246 389 31 88 47
266 32 347 -23 123 -41 163 -98 224 -62 64 -62 64 -9 148 19 30 46 74 60 98
67 110 82 131 92 136 6 2 25 -5 42 -15 l30 -20 -30 -70 c-38 -86 -47 -85 -12
0 14 35 23 66 20 69 -9 8 -11 4 -49 -98 -20 -52 -50 -128 -67 -169 -17 -41
-29 -82 -28 -90 2 -9 18 24 37 72 19 48 36 86 38 84 2 -3 -1 -16 -7 -31 -5
-15 -10 -35 -10 -44 1 -9 16 21 34 68 54 137 76 179 102 196 29 20 41 59 24
79 -11 13 -8 21 15 45 16 17 32 30 36 30 12 0 -2 -94 -22 -142 -21 -51 -24
-72 -10 -63 5 3 12 18 16 34 10 45 32 59 55 35 31 -32 29 -57 -5 -65 -16 -3
-41 -12 -55 -18 -24 -11 -24 -11 5 -5 17 4 48 10 70 13 23 3 40 11 39 19 -1 6
-2 23 -2 37 -1 14 -8 25 -15 25 -24 0 -49 37 -50 74 -1 25 6 44 25 63 14 16
28 35 31 44 3 9 19 19 36 22 17 4 53 28 83 57 28 27 52 50 53 50 0 0 0 -188 0
-418 0 -343 -3 -422 -14 -436 -8 -9 -16 -14 -19 -11 -3 2 -19 -4 -37 -15 -20
-12 -52 -20 -88 -21 -47 -2 -65 3 -104 27 -27 17 -54 42 -61 57 -8 16 -24 33
-37 39 -12 5 -28 21 -34 35 -13 29 -15 110 -2 117 5 4 15 38 21 76 9 56 18 77
42 100 18 18 24 30 16 30 -31 0 -92 -93 -86 -133 1 -12 -1 -28 -6 -35 -4 -7
-5 -16 -2 -19 3 -4 -1 -14 -10 -24 -27 -30 -29 -89 -4 -131 12 -21 29 -40 38
-43 9 -3 26 -20 37 -38 47 -76 208 -109 302 -61 l41 21 4 -29 c5 -31 0 -2149
-4 -2153 -13 -11 -2067 -23 -2084 -12 -12 7 -11 1201 1 2667 3 393 5 801 5
907 0 174 2 192 18 196 21 5 473 -1 479 -7z m1584 -11 c5 -4 9 -127 9 -295 l0
-288 -33 -63 c-35 -68 -71 -99 -147 -126 -30 -11 -52 -26 -63 -45 -11 -19 -24
-28 -42 -28 -18 0 -28 -7 -35 -25 -12 -32 -29 -39 -63 -26 l-26 10 29 57 c17
31 30 70 30 88 0 24 8 38 30 54 37 28 38 54 4 81 -50 39 -100 16 -92 -43 1
-12 -5 -30 -14 -40 -9 -9 -34 -43 -54 -76 -20 -33 -42 -60 -48 -60 -7 0 -31
14 -55 32 l-43 31 -19 -24 c-28 -36 -24 -46 26 -68 47 -21 52 -29 35 -59 -20
-34 -36 -80 -39 -109 0 -7 -7 -10 -14 -7 -8 3 -27 -1 -43 -7 -22 -9 -25 -13
-12 -16 9 -2 27 1 39 7 12 7 20 8 18 3 -2 -5 -28 -57 -57 -117 -44 -88 -57
-107 -72 -103 -50 13 -207 -38 -239 -77 -8 -9 -17 -16 -22 -16 -10 0 -12 403
-2 413 3 4 16 -10 27 -30 12 -21 37 -48 55 -60 30 -20 46 -23 124 -22 54 1 85
5 80 10 -5 5 -23 9 -39 9 -126 -4 -126 -4 -161 34 -19 20 -36 50 -40 66 -4 21
-11 30 -26 30 -19 0 -20 4 -13 73 9 106 13 127 20 134 4 4 30 -1 58 -11 60
-21 68 -15 68 52 l0 42 -76 0 -76 0 5 26 c2 14 -1 53 -8 87 -11 52 -10 64 3
87 15 25 14 30 -1 54 -13 19 -26 26 -50 26 -18 0 -38 -5 -45 -12 -14 -14 -16
-69 -4 -83 5 -6 4 -50 -2 -98 l-10 -88 -58 6 -58 7 0 -50 c0 -57 11 -66 62
-52 17 6 36 6 41 1 4 -4 10 -35 12 -67 l4 -59 -48 -3 c-40 -2 -54 2 -79 23
-17 14 -32 36 -34 48 -2 18 -12 23 -57 30 -137 19 -226 104 -266 251 -17 62
-17 65 5 139 13 42 31 84 41 93 11 10 19 23 19 29 0 7 7 15 15 19 27 10 15 26
-20 26 -37 0 -75 28 -75 55 0 30 41 96 73 116 32 21 38 21 785 15 414 -3 758
-8 763 -11z m-1031 -385 c0 -23 -24 -43 -47 -38 -21 4 -29 43 -13 63 15 18 60
-1 60 -25z m-12 -99 c7 -21 12 -59 12 -85 0 -37 -3 -46 -17 -46 -22 0 -55 20
-34 20 11 0 11 3 1 15 -7 8 -8 15 -3 15 5 0 9 9 10 20 1 11 -3 20 -9 20 -7 0
-7 5 -1 13 5 6 9 24 8 40 -1 40 20 33 33 -12z m-659 -115 c5 -28 -26 -48 -50
-33 -19 12 -25 38 -12 51 14 14 58 1 62 -18z m1389 -18 c19 -19 14 -34 -14
-53 -31 -20 -44 -9 -44 38 0 22 5 27 23 27 13 0 28 -5 35 -12z m-670 -24 l92
5 0 -29 c0 -28 -2 -29 -32 -22 -18 4 -93 7 -166 7 -127 0 -132 1 -132 21 0 11
2 23 5 26 3 2 35 1 72 -4 38 -5 110 -7 161 -4z m-689 -68 c-4 -32 2 -44 20
-39 20 5 37 -22 19 -33 -6 -4 -7 -9 0 -13 14 -9 -4 -51 -23 -51 -9 0 -17 6
-19 13 -2 6 -9 30 -15 52 -7 22 -13 50 -14 63 -1 12 -5 22 -9 22 -4 0 -5 7 -1
15 5 14 8 14 24 -1 11 -10 19 -22 18 -28z m634 7 c-13 -2 -33 -2 -45 0 -13 2
-3 4 22 4 25 0 35 -2 23 -4z m671 -8 c6 -17 -18 -98 -40 -132 -21 -33 -40 -29
-40 7 0 17 4 30 8 30 5 0 6 5 3 10 -3 6 -2 10 4 10 6 0 8 7 5 15 -4 8 -2 15 2
15 5 0 15 14 22 30 15 33 27 38 36 15z m-659 -35 c0 -10 -13 -16 -37 -18 -32
-3 -38 0 -38 16 0 27 7 30 43 23 18 -4 32 -13 32 -21z m-285 -31 c0 -25 61
-89 84 -89 9 0 16 -3 16 -6 0 -4 -18 -78 -40 -167 -23 -88 -38 -162 -36 -165
8 -7 20 36 72 252 19 81 35 99 76 88 15 -3 18 -16 19 -66 1 -102 -2 -391 -5
-393 -1 -1 -25 10 -54 24 -35 17 -75 27 -121 31 l-69 5 -30 64 -30 64 58 57
c51 50 59 64 70 116 13 65 7 116 -20 163 -17 30 -17 43 2 43 4 0 8 -9 8 -21z
m-171 -21 c18 -21 17 -21 -78 -69 -53 -26 -119 -61 -148 -78 -50 -30 -53 -30
-63 -12 -13 25 -13 41 0 41 5 0 39 14 73 30 35 17 67 30 70 30 3 0 32 18 64
39 32 22 60 40 61 40 2 1 12 -9 21 -21z m451 12 c0 -5 -16 -10 -36 -10 -21 0
-33 4 -29 10 3 6 19 10 36 10 16 0 29 -4 29 -10z m477 -38 c26 -16 92 -49 146
-75 53 -26 97 -51 97 -56 0 -5 -6 -13 -13 -19 -10 -8 -29 -1 -77 30 -36 22
-99 57 -140 76 -90 42 -84 38 -77 57 8 20 8 20 64 -13z m-520 -446 c2 -391 1
-456 -12 -466 -8 -7 -15 -9 -16 -4 -1 9 0 916 1 922 0 1 6 2 13 2 9 0 13 -99
14 -454z m42 14 c0 -265 -4 -430 -10 -430 -5 0 -9 37 -9 83 0 45 -2 141 -5
212 -6 163 5 565 16 565 5 0 8 -193 8 -430z m-519 365 c0 -8 -82 -47 -87 -41
-3 2 12 14 34 25 39 20 53 25 53 16z m1070 -25 c55 -28 50 -45 -5 -18 -25 12
-45 26 -45 30 0 12 7 10 50 -12z m-1052 -23 c2 -11 -9 -21 -34 -32 -67 -28
-89 1 -26 34 41 22 56 22 60 -2z m1056 -18 c6 -5 4 -18 -3 -33 -12 -22 -16
-23 -40 -13 -46 19 -51 26 -39 52 9 21 14 22 42 13 17 -6 35 -15 40 -19z
m-1034 -19 c0 -13 -58 -42 -73 -37 -7 2 6 13 28 25 48 25 45 24 45 12z m971
-36 c17 -8 29 -18 26 -20 -3 -3 -20 4 -38 15 -40 25 -31 28 12 5z m-826 -296
c80 -160 144 -296 142 -301 -3 -11 -51 69 -63 106 -4 12 -18 39 -30 59 -13 21
-24 43 -24 50 0 7 -18 45 -40 83 -48 83 -140 272 -140 285 0 6 2 10 5 10 2 0
70 -131 150 -292z m785 249 c-7 -12 -46 -85 -86 -162 -39 -78 -81 -156 -93
-175 -12 -19 -43 -77 -69 -127 -43 -86 -62 -110 -62 -82 0 6 9 23 20 39 20 28
102 190 181 355 70 148 100 198 113 185 7 -7 7 -17 -4 -33z m-931 -57 c18 -44
45 -99 60 -122 28 -44 138 -249 176 -328 53 -108 39 -123 -20 -22 -41 71 -275
535 -275 546 0 3 6 6 13 6 7 0 28 -36 46 -80z m991 63 c0 -5 -16 -35 -36 -67
-20 -33 -85 -157 -146 -275 -60 -119 -113 -220 -118 -224 -4 -5 -15 -7 -23 -5
-12 2 4 39 64 153 44 83 109 206 145 275 36 69 70 131 76 137 11 14 38 18 38
6z m-700 -1357 c-1 -6 -22 -46 -48 -88 -26 -42 -73 -119 -104 -170 -66 -108
-157 -230 -175 -236 -24 -7 -13 28 44 135 56 107 81 150 183 314 53 85 55 86
77 72 13 -9 23 -20 23 -27z m513 -225 c64 -125 117 -233 117 -240 0 -17 -21
-13 -37 7 -7 9 -25 40 -40 67 -14 28 -38 69 -54 91 -30 44 -62 101 -116 203
-31 60 -32 66 -16 83 9 10 19 18 22 18 4 0 59 -103 124 -229z m-321 -202 c-2
-178 -6 -332 -9 -341 -8 -31 -21 -19 -27 27 -9 59 -18 593 -10 627 4 23 9 26
27 19 l22 -8 -3 -324z"/>
<path d="M1880 2784 c0 -8 5 -12 10 -9 6 4 8 11 5 16 -9 14 -15 11 -15 -7z"/>
<path d="M1677 2753 c-17 -27 -87 -228 -85 -242 2 -9 25 42 52 112 26 71 46
131 43 133 -3 3 -7 2 -10 -3z"/>
<path d="M286 2349 c-2 -8 -9 -41 -15 -74 -5 -33 -24 -134 -42 -225 -36 -191
-48 -280 -38 -280 4 0 11 21 14 48 4 26 13 76 20 112 8 36 23 119 35 185 12
66 28 145 35 175 10 34 11 58 5 64 -6 6 -11 4 -14 -5z"/>
<path d="M162 2287 c-6 -23 -18 -91 -27 -152 -9 -60 -29 -177 -46 -259 -31
-158 -35 -193 -20 -166 11 20 43 175 81 395 17 99 32 188 34 197 8 39 -12 25
-22 -15z"/>
<path d="M426 2280 c-7 -20 -43 -222 -62 -343 -8 -54 -32 -182 -54 -285 -21
-103 -46 -232 -54 -287 -9 -55 -18 -112 -21 -127 -2 -16 -1 -28 3 -28 5 0 18
62 30 138 13 75 38 209 57 297 19 88 46 230 60 315 14 85 34 189 44 230 12 45
16 81 11 90 -8 13 -9 13 -14 0z"/>
<path d="M2085 2168 c-4 -24 -11 -47 -15 -53 -4 -5 -10 -19 -13 -30 -18 -65
-79 -270 -97 -328 -12 -38 -19 -71 -16 -75 9 -8 8 -10 60 168 27 91 61 206 77
255 32 99 33 105 20 105 -5 0 -12 -19 -16 -42z"/>
<path d="M2025 2138 c-10 -35 -24 -85 -32 -113 -8 -27 -27 -90 -43 -140 -15
-49 -38 -126 -50 -170 -12 -44 -35 -118 -50 -165 -38 -116 -90 -319 -89 -350
0 -23 1 -23 9 -5 4 11 20 72 36 135 15 63 36 142 46 175 24 74 135 447 173
574 15 52 29 101 32 108 3 7 1 13 -4 13 -6 0 -18 -28 -28 -62z"/>
<path d="M1882 2159 c-42 -111 -135 -419 -129 -425 2 -2 23 58 47 134 23 75
56 175 72 221 15 46 26 86 24 89 -3 3 -9 -6 -14 -19z"/>
<path d="M1917 2123 c-3 -10 -21 -70 -42 -133 -20 -63 -50 -162 -66 -220 -16
-58 -38 -126 -49 -152 -24 -56 -25 -64 -6 -49 14 12 36 78 126 371 23 74 46
145 51 158 5 13 9 27 9 32 0 17 -17 11 -23 -7z"/>
<path d="M510 1726 c0 -5 -21 -119 -46 -255 -55 -295 -63 -351 -52 -351 4 0 8
8 8 18 0 18 40 238 65 357 23 112 38 225 31 232 -3 3 -6 3 -6 -1z"/>
<path d="M576 1709 c-5 -14 -15 -68 -71 -363 -14 -76 -24 -140 -21 -143 7 -7
14 22 36 152 12 66 32 173 46 238 14 65 23 121 20 124 -3 3 -8 0 -10 -8z"/>
<path d="M1732 1678 c-6 -23 -9 -44 -7 -46 2 -2 9 15 15 38 6 23 9 44 7 46 -2
3 -9 -14 -15 -38z"/>
<path d="M1687 1517 c-15 -56 -35 -124 -43 -150 -9 -26 -14 -50 -11 -53 3 -3
12 16 20 43 28 90 70 254 65 258 -2 2 -16 -42 -31 -98z"/>
<path d="M1205 1202 c-9 -48 -23 -112 -30 -142 -26 -113 -27 -115 -16 -105 6
6 24 78 42 160 17 83 33 153 35 157 2 4 0 9 -4 12 -5 3 -17 -34 -27 -82z"/>
<path d="M1197 1263 c-8 -14 -19 -73 -13 -73 6 0 27 72 22 78 -2 2 -6 0 -9 -5z"/>
<path d="M1252 1224 c-5 -22 -24 -104 -42 -184 -18 -79 -34 -150 -37 -157 -3
-7 0 -13 5 -13 6 0 16 26 22 58 6 31 15 71 20 87 16 52 51 237 46 242 -3 3 -9
-12 -14 -33z"/>
<path d="M1267 1050 c-16 -96 -39 -231 -52 -300 -13 -69 -31 -172 -40 -230 -8
-58 -18 -115 -20 -127 -3 -13 -1 -23 5 -23 5 0 10 9 10 21 0 11 7 57 15 102
80 454 117 684 113 709 -2 13 -16 -56 -31 -152z"/>
<path d="M457 1065 c-12 -42 -58 -289 -77 -420 -12 -75 -28 -171 -36 -214 -41
-200 -53 -268 -53 -296 1 -30 1 -30 9 5 18 75 81 410 95 510 9 58 29 174 46
257 17 84 29 158 26 165 -2 8 -6 5 -10 -7z"/>
<path d="M1899 454 c-10 -13 -10 -17 2 -25 9 -6 -2 -8 -34 -5 -50 4 -69 -6
-41 -22 13 -7 9 -11 -22 -17 l-39 -8 35 -12 c19 -8 27 -14 17 -14 -10 -1 -15
-6 -12 -11 4 -6 23 -7 45 -4 l39 6 7 -71 c9 -93 28 -90 25 3 -2 63 -1 68 16
62 10 -4 55 -10 101 -13 70 -5 82 -4 82 10 0 15 -48 37 -83 37 -16 0 -17 3 -7
15 11 13 8 15 -14 15 -15 0 -33 6 -40 12 -11 11 -11 15 3 25 14 10 13 13 -12
22 -38 15 -52 14 -68 -5z m-18 -102 c-7 -2 -18 1 -23 6 -8 8 -4 9 13 5 13 -4
18 -8 10 -11z m172 2 c20 -4 37 -11 37 -17 0 -11 -116 -2 -152 13 -19 7 -13 9
27 9 28 1 67 -2 88 -5z"/>
<path d="M1960 300 c0 -5 12 -10 26 -10 14 0 23 4 19 10 -3 6 -15 10 -26 10
-10 0 -19 -4 -19 -10z"/>
<path d="M1031 3761 c-38 -4 -66 -11 -69 -18 -2 -8 5 -13 17 -13 17 0 21 -6
21 -34 0 -19 -5 -36 -12 -38 -6 -2 -9 -8 -6 -14 10 -15 188 -5 188 11 0 7 -7
15 -15 19 -19 7 -20 56 -1 56 21 0 31 21 15 31 -15 9 -34 9 -138 0z m79 -56
c0 -19 -4 -35 -10 -35 -5 0 -10 16 -10 35 0 19 5 35 10 35 6 0 10 -16 10 -35z
m-57 3 c7 -23 1 -38 -14 -38 -5 0 -9 14 -9 30 0 35 15 40 23 8z"/>
<path d="M1212 2633 c-11 -43 -24 -87 -28 -98 -5 -14 -4 -17 4 -10 5 6 20 42
31 80 12 39 24 78 27 88 3 9 1 17 -4 17 -5 0 -18 -35 -30 -77z"/>
<path d="M1302 2651 c-11 -34 -17 -61 -13 -61 9 0 45 110 38 116 -3 3 -14 -22
-25 -55z"/>
<path d="M1246 2618 c-10 -38 -6 -45 9 -18 17 29 18 40 6 40 -5 0 -11 -10 -15
-22z"/>
<path d="M475 3040 c-3 -5 -1 -10 4 -10 6 0 11 5 11 10 0 6 -2 10 -4 10 -3 0
-8 -4 -11 -10z"/>
<path d="M836 2738 c-3 -13 -14 -58 -24 -100 -19 -81 -12 -110 9 -35 27 97 36
148 28 153 -5 2 -11 -5 -13 -18z"/>
<path d="M891 2652 c-12 -46 -20 -91 -18 -100 2 -11 6 -7 11 13 4 17 14 53 23
81 8 28 13 60 11 70 -2 11 -14 -18 -27 -64z"/>
</g>
</svg>
