<?xml version="1.0" standalone="no"?>
<!DOCTYPE svg PUBLIC "-//W3C//DTD SVG 20010904//EN"
 "http://www.w3.org/TR/2001/REC-SVG-20010904/DTD/svg10.dtd">
<svg version="1.0" xmlns="http://www.w3.org/2000/svg"
 width="216.000000pt" height="376.000000pt" viewBox="0 0 216.000000 376.000000"
 preserveAspectRatio="xMidYMid meet">
<metadata>
Created by potrace 1.16, written by Peter Selinger 2001-2019
</metadata>
<g transform="translate(0.000000,376.000000) scale(0.100000,-0.100000)"
fill="#000000" stroke="none">
<path d="M145 3740 l-140 -5 2 -30 c2 -49 5 -1389 4 -2100 -1 -363 -1 -871 -1
-1130 l0 -470 933 -4 c512 -2 929 -1 926 3 -3 3 -284 9 -625 12 -340 4 -621 8
-623 11 -3 2 209 2 470 1 863 -5 1035 -8 1019 -18 -12 -8 -9 -10 13 -10 l27 0
1 588 c2 1352 -1 2654 -7 2895 l-7 257 -631 1 c-347 0 -764 1 -926 2 -162 1
-358 0 -435 -3z m729 -39 c2 -3 7 -119 10 -256 4 -138 8 -320 11 -405 10 -329
17 -1055 10 -1048 -3 3 -29 89 -56 190 -27 100 -53 192 -58 203 -5 11 -12 270
-15 575 -4 305 -9 599 -13 652 l-6 97 34 3 c39 3 77 -1 83 -11z m-394 -1 c0
-5 -11 -10 -25 -10 -14 0 -25 5 -25 10 0 6 11 10 25 10 14 0 25 -4 25 -10z
m140 0 c0 -5 -4 -10 -10 -10 -5 0 -10 5 -10 10 0 6 5 10 10 10 6 0 10 -4 10
-10z m123 -67 c4 -43 9 -256 12 -473 3 -217 8 -472 10 -566 3 -94 3 -178 -1
-187 -5 -14 -42 -16 -345 -17 -225 0 -339 3 -339 10 0 6 37 10 93 11 50 0 198
1 327 2 l235 2 -3 325 c-2 179 -4 388 -5 465 -2 151 -3 153 -59 154 -21 1 -28
6 -28 21 0 17 7 20 40 20 51 0 53 18 3 22 -28 2 -39 8 -41 22 -4 18 -3 19 13
3 21 -21 29 -21 50 -1 14 14 15 34 10 140 -6 104 -5 124 8 124 11 0 16 -19 20
-77z m184 40 c-3 -10 -5 -4 -5 12 0 17 2 24 5 18 2 -7 2 -21 0 -30z m1186 10
c3 -15 4 -63 3 -107 l-1 -81 -529 -3 c-292 -1 -532 -4 -534 -7 -9 -9 3 -1323
13 -1410 2 -16 4 -132 4 -257 l1 -228 90 0 c50 0 90 -2 90 -5 0 -4 -7 -20 -16
-38 -9 -17 -24 -58 -33 -91 l-16 -60 -60 -19 c-96 -30 -164 -37 -265 -29 -127
11 -318 -3 -341 -24 -25 -22 -108 -23 -139 -1 -31 22 -33 22 -70 -9 -33 -29
-163 -63 -237 -64 l-43 0 0 560 0 560 73 0 c39 1 207 3 372 6 l300 6 54 -197
c29 -108 51 -198 49 -201 -3 -2 -192 -7 -421 -11 -230 -3 -414 -9 -411 -12 3
-3 196 -5 428 -3 l422 2 0 -34 c0 -38 27 -76 53 -76 9 0 27 16 40 35 21 32 22
37 9 57 -13 19 -16 115 -24 568 -4 300 -8 653 -8 785 l-1 240 80 2 c44 1 102
2 128 2 52 1 58 21 6 21 -34 0 -34 1 -13 46 10 21 24 34 35 34 11 0 19 5 19
11 0 6 -29 10 -77 9 -188 -3 -193 -3 -193 25 l0 25 579 0 579 0 5 -27z m-1802
7 c27 -15 24 -27 -11 -32 -23 -4 -30 -1 -30 12 0 30 12 35 41 20z m209 -5 c0
-8 -4 -15 -10 -15 -5 0 -10 7 -10 15 0 8 5 15 10 15 6 0 10 -7 10 -15z m170
-20 c0 -39 -15 -47 -23 -13 -5 19 7 48 19 48 2 0 4 -16 4 -35z m-580 10 c-14
-17 -40 -20 -40 -6 0 8 18 16 44 20 5 0 3 -6 -4 -14z m460 -4 c0 -10 -7 -21
-15 -25 -15 -5 -22 24 -8 37 12 13 23 7 23 -12z m-523 -13 c-3 -8 -6 -5 -6 6
-1 11 2 17 5 13 3 -3 4 -12 1 -19z m193 12 c0 -5 -2 -10 -4 -10 -3 0 -8 5 -11
10 -3 6 -1 10 4 10 6 0 11 -4 11 -10z m379 -35 c7 -20 11 -69 10 -113 -3 -80
-6 -102 -18 -102 -7 0 -5 160 3 168 9 9 7 22 -4 22 -5 0 -10 -6 -10 -14 0 -9
-12 -13 -41 -12 -33 0 -45 -4 -57 -22 -8 -12 -20 -22 -27 -22 -15 0 -28 71
-17 99 7 19 9 20 36 6 42 -22 87 -20 93 5 8 29 17 25 32 -15z m31 9 c0 -8 -4
-12 -10 -9 -5 3 -10 10 -10 16 0 5 5 9 10 9 6 0 10 -7 10 -16z m-520 -28 c0
-18 -7 -39 -15 -46 -21 -17 -29 -6 -15 20 6 12 9 28 6 35 -5 14 2 25 16 25 4
0 8 -15 8 -34z m115 11 c27 -21 13 -67 -20 -67 -22 0 -25 4 -25 40 0 43 12 50
45 27z m115 1 c0 -7 -4 -19 -9 -27 -11 -17 -25 3 -17 24 7 18 26 20 26 3z
m579 -45 c1 -13 -3 -23 -9 -23 -5 0 -10 19 -9 43 0 32 2 37 9 22 5 -11 9 -30
9 -42z m41 16 c0 -28 -4 -39 -12 -37 -24 8 -22 78 2 78 5 0 10 -18 10 -41z
m86 6 c31 -41 23 -59 -21 -53 -30 3 -39 24 -30 66 7 31 20 28 51 -13z m68 8
c-9 -38 -13 -41 -30 -19 -21 29 -17 46 11 46 23 0 25 -3 19 -27z m-824 1 c0
-14 -3 -14 -15 -4 -8 7 -15 14 -15 16 0 2 7 4 15 4 8 0 15 -7 15 -16z m130
-14 c0 -10 -4 -21 -9 -25 -12 -7 -25 31 -16 45 9 15 25 2 25 -20z m-378 -2
c-7 -7 -12 -8 -12 -2 0 14 12 26 19 19 2 -3 -1 -11 -7 -17z m118 -3 c0 -8 -7
-15 -15 -15 -16 0 -20 12 -8 23 11 12 23 8 23 -8z m520 -22 l0 -36 -25 23
c-35 33 -32 41 18 49 4 0 7 -16 7 -36z m-410 -3 c0 -5 -5 -10 -11 -10 -5 0 -7
5 -4 10 3 6 8 10 11 10 2 0 4 -4 4 -10z m67 -36 c1 -15 -3 -32 -9 -35 -16 -10
-37 20 -38 53 0 24 3 26 22 19 15 -5 23 -18 25 -37z m-300 -15 c-11 -18 -12
-18 -20 3 -4 12 -5 29 -2 37 6 14 8 14 20 -3 11 -14 11 -22 2 -37z m531 -2 l3
-48 -38 3 c-43 3 -52 23 -33 72 8 22 15 27 38 24 25 -3 27 -7 30 -51z m-448
33 c-8 -5 -19 -10 -25 -10 -5 0 -3 5 5 10 8 5 20 10 25 10 6 0 3 -5 -5 -10z
m300 -30 c0 -31 -3 -38 -15 -34 -15 6 -21 55 -8 67 15 16 23 5 23 -33z m-230
-35 c0 -13 -3 -15 -12 -7 -18 14 -70 -42 -54 -59 8 -9 6 -9 -11 0 -14 7 -23 8
-23 2 0 -6 9 -15 21 -22 14 -7 18 -14 11 -21 -13 -13 -49 6 -57 32 -3 11 -11
20 -16 20 -5 0 -9 10 -8 23 0 21 1 21 9 2 7 -19 8 -19 19 5 17 40 37 60 60 60
13 0 21 6 21 16 0 12 5 10 20 -9 11 -14 20 -33 20 -42z m490 8 c0 -16 -5 -16
-31 -3 -11 7 -19 21 -19 37 l0 26 25 -23 c14 -13 25 -29 25 -37z m-410 12 c0
-18 -5 -25 -20 -25 -21 0 -24 8 -14 34 10 25 34 19 34 -9z m653 -252 c11 -457
20 -1218 15 -1213 -3 3 -8 151 -12 330 -8 439 -15 748 -21 973 -3 104 -2 187
3 187 5 0 12 -125 15 -277z m-453 252 c0 -8 -7 -15 -15 -15 -8 0 -15 7 -15 15
0 8 7 15 15 15 8 0 15 -7 15 -15z m-166 -40 c3 -8 1 -15 -4 -15 -6 0 -10 7
-10 15 0 8 2 15 4 15 2 0 6 -7 10 -15z m35 -12 c0 -25 -1 -25 -8 -8 -5 11 -7
23 -4 28 8 14 13 7 12 -20z m135 19 c8 -13 -5 -52 -15 -46 -12 7 -12 54 0 54
6 0 12 -4 15 -8z m1626 -82 c3 -47 6 -465 5 -930 l0 -845 -380 -3 -379 -2 -21
26 c-22 28 -50 25 -58 -5 -5 -21 -43 -30 -133 -30 l-61 0 -6 97 c-4 53 -7 214
-8 357 0 143 -2 280 -4 305 -1 25 -5 284 -6 575 l-4 530 120 5 c66 3 302 5
525 5 l405 0 5 -85z m-1675 57 c0 -26 -20 -25 -23 2 -3 16 1 22 10 19 7 -3 13
-12 13 -21z m-260 -7 c-10 -11 -20 -18 -23 -15 -7 6 18 35 31 35 5 0 2 -9 -8
-20z m95 10 c10 -6 5 -9 -18 -8 -18 1 -32 5 -32 10 0 11 31 10 50 -2z m310
-15 c0 -16 -35 -20 -64 -9 -29 11 -16 24 24 24 29 0 40 -4 40 -15z m-297 -34
c9 -34 -20 -43 -47 -15 -24 23 -19 34 13 34 20 0 30 -6 34 -19z m162 0 c3 -5
1 -13 -5 -16 -15 -9 -43 3 -35 15 8 13 32 13 40 1z m99 0 c8 -13 -21 -34 -39
-27 -25 9 -18 36 9 36 14 0 27 -4 30 -9z m64 -8 c2 -8 -6 -13 -22 -13 -25 0
-33 10 -19 24 10 10 36 3 41 -11z m-533 -19 c15 -15 34 -24 48 -22 29 3 47 -9
47 -33 0 -15 -7 -19 -35 -19 -49 0 -82 18 -95 53 -19 55 -7 63 35 21z m123 14
c16 -16 15 -28 -2 -28 -7 0 -16 9 -19 20 -6 23 3 26 21 8z m132 2 c0 -5 -4
-10 -9 -10 -6 0 -13 5 -16 10 -3 6 1 10 9 10 9 0 16 -4 16 -10z m148 -44 c3
-12 -1 -17 -10 -14 -7 3 -15 13 -16 22 -3 12 1 17 10 14 7 -3 15 -13 16 -22z
m-225 -28 c-3 -6 -12 -3 -20 5 -9 9 -12 20 -8 28 6 9 11 8 21 -6 7 -10 11 -22
7 -27z m107 32 c0 -5 -9 -10 -19 -10 -11 0 -23 5 -26 10 -4 6 5 10 19 10 14 0
26 -4 26 -10z m75 -10 c8 -24 -1 -40 -21 -40 -9 0 -14 11 -14 30 0 35 25 42
35 10z m95 5 c0 -8 -6 -15 -14 -15 -17 0 -28 14 -19 24 12 12 33 6 33 -9z m71
-29 c9 -55 1 -76 -27 -76 -23 0 -24 3 -24 61 0 57 1 60 22 57 18 -2 24 -12 29
-42z m-306 24 c3 -5 1 -10 -4 -10 -6 0 -11 5 -11 10 0 6 2 10 4 10 3 0 8 -4
11 -10z m368 -7 c-9 -24 -26 -34 -34 -21 -11 17 1 38 22 38 13 0 17 -5 12 -17z
m-448 -23 c0 -7 -6 -15 -12 -17 -8 -3 -13 4 -13 17 0 13 5 20 13 18 6 -3 12
-11 12 -18z m485 13 c0 -5 -5 -15 -10 -23 -8 -12 -10 -11 -10 8 0 12 5 22 10
22 6 0 10 -3 10 -7z m-342 -31 c3 -20 1 -21 -22 -11 -33 15 -35 42 -3 37 14
-2 23 -11 25 -26z m-270 -64 c14 -16 34 -28 44 -28 15 0 18 -8 18 -45 0 -30
-5 -47 -16 -53 -14 -8 -15 -20 -10 -78 4 -38 8 -112 9 -164 1 -52 6 -103 11
-112 18 -39 -16 -16 -44 29 -25 40 -30 57 -30 112 0 50 -5 72 -20 91 -18 22
-20 41 -19 180 0 147 1 154 16 125 8 -16 27 -42 41 -57z m382 68 c0 -17 -14
-29 -23 -20 -8 8 3 34 14 34 5 0 9 -6 9 -14z m50 4 c0 -5 -4 -10 -10 -10 -5 0
-10 5 -10 10 0 6 5 10 10 10 6 0 10 -4 10 -10z m-225 -20 c13 -14 15 -24 8
-31 -20 -20 -63 17 -47 42 8 14 19 11 39 -11z m-119 -15 c-24 -18 -32 -18 -71
0 -29 13 -29 13 30 14 55 0 58 -1 41 -14z m64 -6 c10 -18 9 -20 -7 -17 -10 2
-19 11 -21 21 -5 24 15 21 28 -4z m448 -13 c7 -33 -5 -45 -35 -37 -31 8 -41
34 -23 56 15 18 54 5 58 -19z m-268 20 c0 -3 -4 -8 -10 -11 -5 -3 -10 -1 -10
4 0 6 5 11 10 11 6 0 10 -2 10 -4z m110 -16 c0 -11 -7 -20 -15 -20 -8 0 -15 9
-15 20 0 11 7 20 15 20 8 0 15 -9 15 -20z m-52 -12 c-2 -19 -10 -24 -40 -26
-22 -2 -38 1 -38 7 0 6 8 11 19 11 10 0 24 7 31 15 18 22 32 18 28 -7z m-292
-10 c-10 -6 -20 -7 -24 -3 -9 8 20 25 31 18 5 -3 2 -10 -7 -15z m169 12 c3 -5
-1 -10 -9 -10 -9 0 -16 5 -16 10 0 6 4 10 9 10 6 0 13 -4 16 -10z m-225 -10
c0 -5 -2 -10 -4 -10 -3 0 -8 5 -11 10 -3 6 -1 10 4 10 6 0 11 -4 11 -10z m125
-20 l-20 -9 20 0 c16 -1 17 -3 6 -10 -8 -5 -12 -15 -9 -23 4 -10 -4 -12 -34
-10 -74 7 -54 63 21 61 29 0 32 -2 16 -9z m82 4 c-3 -3 -12 -4 -19 -1 -8 3 -5
6 6 6 11 1 17 -2 13 -5z m233 -23 c-13 -25 -32 -28 -23 -3 7 18 25 34 31 27 2
-2 -1 -13 -8 -24z m-40 5 c0 -18 -16 -29 -30 -21 -13 8 -1 35 16 35 8 0 14 -6
14 -14z m90 6 c0 -13 -12 -22 -22 -16 -10 6 -1 24 13 24 5 0 9 -4 9 -8z m-189
-15 c-1 -12 -15 -9 -19 4 -3 6 1 10 8 8 6 -3 11 -8 11 -12z m43 -8 c-3 -5 -10
-7 -15 -3 -5 3 -7 10 -3 15 3 5 10 7 15 3 5 -3 7 -10 3 -15z m-124 1 c0 -5 -4
-10 -9 -10 -6 0 -13 5 -16 10 -3 6 1 10 9 10 9 0 16 -4 16 -10z m310 -13 c0
-17 -20 -37 -37 -37 -16 0 -17 22 -1 38 16 16 38 15 38 -1z m-332 -21 c3 -13
-1 -17 -14 -14 -11 2 -20 11 -22 22 -3 13 1 17 14 14 11 -2 20 -11 22 -22z
m254 2 c-6 -6 -16 -7 -22 -3 -9 6 -9 9 1 16 17 10 34 0 21 -13z m108 -3 c0 -8
-4 -15 -10 -15 -5 0 -10 7 -10 15 0 8 5 15 10 15 6 0 10 -7 10 -15z m-250 -10
c0 -8 -4 -15 -10 -15 -5 0 -10 7 -10 15 0 8 5 15 10 15 6 0 10 -7 10 -15z
m-226 -17 c9 -37 7 -118 -4 -118 -15 0 -40 67 -40 106 0 27 4 34 19 34 11 0
21 -9 25 -22z m276 12 c0 -5 -7 -10 -15 -10 -8 0 -15 5 -15 10 0 6 7 10 15 10
8 0 15 -4 15 -10z m-192 -12 c17 -17 15 -28 -4 -28 -23 0 -55 20 -49 31 9 13
39 11 53 -3z m252 2 c0 -5 -7 -10 -15 -10 -8 0 -15 5 -15 10 0 6 7 10 15 10 8
0 15 -4 15 -10z m72 -17 c20 -24 29 -83 12 -83 -7 0 -15 14 -19 30 -4 17 -15
36 -26 43 -10 6 -19 15 -19 19 0 15 37 8 52 -9z m56 -34 c4 -53 -12 -43 -22
15 -6 29 -4 37 6 34 7 -3 14 -23 16 -49z m-328 -46 c0 -54 -2 -63 -13 -54 -12
9 -15 55 -8 124 1 5 6 5 11 2 6 -3 10 -36 10 -72z m90 63 c0 -8 -4 -18 -10
-21 -5 -3 -10 3 -10 14 0 12 5 21 10 21 6 0 10 -6 10 -14z m40 7 c0 -5 -5 -15
-10 -23 -8 -12 -10 -11 -10 8 0 12 5 22 10 22 6 0 10 -3 10 -7z m73 -7 c3 -7
3 -32 0 -55 -6 -46 -28 -60 -65 -40 -20 11 -20 13 -6 18 12 4 15 10 8 21 -6
10 -4 20 7 32 9 10 13 18 9 18 -4 0 -4 5 -1 10 9 15 42 12 48 -4z m-274 -17
c31 -19 33 -22 26 -57 -4 -20 -8 -88 -8 -150 0 -62 -4 -115 -8 -118 -5 -3 -9
21 -9 54 0 32 -9 84 -20 116 -22 64 -37 176 -24 176 5 0 24 -9 43 -21z m-111
-35 c5 -17 6 -37 2 -44 -15 -23 -30 1 -30 48 0 49 10 48 28 -4z m437 -35 c-4
-5 -13 -9 -21 -9 -15 0 -21 60 -7 74 10 10 36 -52 28 -65z m307 -191 c2 -86 0
-151 -4 -145 -4 7 -7 100 -6 207 2 212 6 186 10 -62z m-440 152 c-7 -9 -32 34
-32 54 1 16 5 13 19 -14 9 -19 16 -37 13 -40z m227 13 c0 -35 -1 -36 -10 -14
-5 14 -7 31 -5 38 10 24 16 13 15 -24z m-41 9 c2 -7 -2 -10 -12 -6 -9 3 -16
11 -16 16 0 13 23 5 28 -10z m-419 -53 c18 -51 14 -66 -20 -78 -55 -19 -59
-16 -59 45 0 42 4 60 17 69 24 18 48 3 62 -36z m417 10 l28 -29 -39 -40 c-47
-48 -65 -51 -65 -10 0 16 -7 33 -16 38 -14 8 -14 13 7 44 27 41 44 40 85 -3z
m-96 23 c0 -5 -16 -26 -35 -48 -28 -32 -34 -35 -34 -19 -1 36 11 64 28 68 28
8 41 7 41 -1z m-102 -80 c3 -17 -2 -22 -17 -22 -14 0 -21 6 -21 18 0 38 33 41
38 4z m-131 -29 c-3 -10 -5 -4 -5 12 0 17 2 24 5 18 2 -7 2 -21 0 -30z m233 7
c0 -16 -59 -74 -67 -66 -1 1 2 19 8 39 14 53 59 73 59 27z m109 -126 c-23 -24
-89 -35 -89 -14 0 6 5 10 10 10 13 0 40 61 33 73 -3 5 10 24 28 43 l34 35 3
-62 c3 -52 0 -65 -19 -85z m-409 41 c0 -46 -4 -75 -11 -75 -5 0 -8 4 -4 9 3 5
1 12 -5 16 -5 3 -10 1 -10 -4 0 -6 -7 -11 -15 -11 -8 0 -15 7 -15 15 0 8 -6
12 -14 9 -25 -10 -27 48 -3 72 23 22 57 43 70 44 4 0 7 -34 7 -75z m218 25 c1
-59 -11 -72 -32 -33 -12 25 -12 32 0 56 21 40 30 33 32 -23z m-146 -10 c2 -28
0 -40 -9 -40 -14 0 -19 61 -6 73 10 11 11 9 15 -33z m-257 -28 c-12 -12 -35
11 -35 35 l0 28 20 -30 c10 -16 17 -31 15 -33z m525 24 c0 -34 -32 -58 -72
-54 -21 2 -33 8 -33 18 0 8 7 14 16 12 8 -1 28 12 43 28 29 33 46 32 46 -4z
m-530 -61 c0 -8 -4 -15 -10 -15 -5 0 -10 7 -10 15 0 8 5 15 10 15 6 0 10 -7
10 -15z m37 -50 c-8 -83 -23 -95 -21 -17 2 77 1 72 15 72 8 0 10 -17 6 -55z
m253 -8 c-1 -52 -16 -87 -40 -87 -9 0 -11 16 -8 59 7 99 48 123 48 28z m90 53
c-20 -13 -33 -13 -25 0 3 6 14 10 23 10 15 0 15 -2 2 -10z m50 -10 c0 -5 -2
-10 -4 -10 -3 0 -8 5 -11 10 -3 6 -1 10 4 10 6 0 11 -4 11 -10z m-318 -11 c12
-6 43 -11 70 -10 48 1 49 0 44 -27 -2 -15 -5 -39 -5 -53 -1 -21 -6 -26 -25
-26 -13 0 -33 -10 -45 -22 -15 -15 -32 -21 -57 -19 -52 3 -58 16 -44 98 12 74
20 81 62 59z m388 -10 c0 -25 -33 -22 -38 4 -2 12 3 17 17 17 15 0 21 -6 21
-21z m-110 1 c0 -5 -7 -10 -15 -10 -8 0 -15 5 -15 10 0 6 7 10 15 10 8 0 15
-4 15 -10z m232 -7 c14 -12 18 -31 18 -83 0 -73 -5 -80 -60 -80 -25 0 -31 5
-39 38 -5 20 -13 58 -16 84 l-7 47 33 4 c19 2 38 5 43 5 5 1 18 -5 28 -15z
m-622 -8 c0 -8 -4 -15 -10 -15 -5 0 -10 7 -10 15 0 8 5 15 10 15 6 0 10 -7 10
-15z m405 -47 c-17 -23 -17 -23 -10 12 10 46 19 60 23 33 2 -13 -4 -33 -13
-45z m45 7 c0 -25 -4 -45 -10 -45 -11 0 -14 49 -4 74 10 26 14 18 14 -29z
m-70 19 c0 -2 -9 -4 -21 -4 -11 0 -18 4 -14 10 5 8 35 3 35 -6z m128 -41 c3
-27 1 -31 -17 -26 -28 7 -31 66 -3 61 11 -2 18 -14 20 -35z m-528 12 c0 -8 -4
-15 -10 -15 -5 0 -10 7 -10 15 0 8 5 15 10 15 6 0 10 -7 10 -15z m868 -247
l-2 -263 -6 255 c-5 243 -5 270 6 270 2 0 3 -118 2 -262z m-482 230 c-3 -13
-5 -29 -5 -37 -1 -11 -5 -10 -15 4 -10 14 -11 25 -5 37 14 25 30 22 25 -4z
m-361 -34 c15 -16 15 -18 -2 -36 -26 -26 -53 -14 -53 23 0 34 28 40 55 13z
m405 -4 c0 -11 -4 -20 -10 -20 -5 0 -10 9 -10 20 0 11 5 20 10 20 6 0 10 -9
10 -20z m-123 -12 c-3 -8 -6 -5 -6 6 -1 11 2 17 5 13 3 -3 4 -12 1 -19z m-44
4 c15 -6 15 -10 5 -24 -14 -17 -115 -31 -124 -17 -3 5 1 9 9 9 8 0 22 9 32 20
18 20 46 24 78 12z m215 -20 c2 -14 -2 -22 -12 -22 -19 0 -28 14 -20 35 9 21
28 14 32 -13z m66 12 c12 -31 7 -45 -16 -42 -31 4 -40 58 -10 58 11 0 23 -7
26 -16z m-446 -36 c-7 -19 -38 -22 -38 -4 0 10 9 16 21 16 12 0 19 -5 17 -12z
m212 -8 c0 -11 -5 -20 -11 -20 -8 0 -8 -4 0 -14 10 -12 8 -17 -9 -26 -32 -17
-53 5 -26 26 19 13 18 14 -12 14 -18 0 -32 5 -32 10 0 6 11 10 24 10 14 0 28
5 31 10 11 18 35 11 35 -10z m80 -1 c0 -5 -4 -9 -10 -9 -5 0 -10 7 -10 16 0 8
5 12 10 9 6 -3 10 -10 10 -16z m-345 -19 c-5 -8 -11 -8 -17 -2 -6 6 -7 16 -3
22 5 8 11 8 17 2 6 -6 7 -16 3 -22z m106 8 c17 -11 23 -10 26 0 8 21 23 2 23
-28 0 -28 -2 -29 -42 -27 -30 1 -42 6 -46 19 -2 10 -11 18 -20 18 -13 0 -12 3
4 15 24 18 29 18 55 3z m509 -5 c0 -16 -8 -18 -66 -15 -36 2 -64 6 -62 8 4 3
51 12 121 23 4 0 7 -7 7 -16z m-152 -5 c-7 -20 -58 -23 -58 -4 0 11 10 16 31
16 20 0 29 -4 27 -12z m-83 -8 c4 -6 -5 -10 -20 -10 -15 0 -24 4 -20 10 3 6
12 10 20 10 8 0 17 -4 20 -10z m-190 -10 c3 -5 1 -10 -4 -10 -6 0 -11 5 -11
10 0 6 2 10 4 10 3 0 8 -4 11 -10z m-205 -12 c0 -4 -15 -8 -32 -8 -24 0 -29 3
-19 9 17 11 51 10 51 -1z m63 2 c8 0 8 -3 0 -11 -13 -13 -43 -5 -43 12 0 6 7
8 16 5 9 -3 21 -6 27 -6z m327 -16 c0 -2 -11 -4 -25 -4 -14 0 -25 4 -25 9 0 4
11 6 25 3 14 -2 25 -6 25 -8z m97 10 c-3 -3 -12 -4 -19 -1 -8 3 -5 6 6 6 11 1
17 -2 13 -5z m76 -1 c-7 -2 -21 -2 -30 0 -10 3 -4 5 12 5 17 0 24 -2 18 -5z
m-583 -53 c0 -5 -7 -10 -15 -10 -8 0 -15 5 -15 10 0 6 7 10 15 10 8 0 15 -4
15 -10z m857 -332 c-3 -7 -5 -2 -5 12 0 14 2 19 5 13 2 -7 2 -19 0 -25z m33
-128 c0 -5 -4 -10 -9 -10 -6 0 -13 5 -16 10 -3 6 1 10 9 10 9 0 16 -4 16 -10z
m7 -37 c-6 -13 -17 -23 -24 -23 -8 0 -11 5 -8 10 3 6 2 10 -3 10 -6 0 -12 6
-15 13 -4 10 5 13 28 13 30 -1 31 -3 22 -23z m393 -360 c0 -17 5 -35 10 -38 6
-3 10 3 10 15 0 12 5 18 10 15 13 -8 13 -57 -1 -92 -24 -60 -32 -72 -48 -71
-9 1 -33 -2 -53 -6 -36 -6 -38 -9 -38 -44 0 -21 -7 -47 -15 -58 -8 -12 -11
-25 -7 -30 4 -5 -1 -2 -10 5 -16 12 -18 10 -19 -20 l-1 -34 -11 35 -11 35 -6
-35 c-6 -26 -8 -29 -9 -11 -1 25 -27 61 -43 61 -5 0 -2 -13 7 -30 17 -33 20
-60 5 -60 -5 0 -10 7 -10 16 0 9 -11 39 -25 66 -14 28 -24 53 -22 55 7 7 57
-16 57 -27 0 -5 5 -10 10 -10 20 0 9 21 -20 38 -16 9 -30 20 -30 24 0 13 76
32 130 33 62 1 56 -12 46 110 -4 56 -4 58 6 23 7 -21 16 -38 20 -38 5 0 6 10
3 23 -5 17 -4 19 4 7 12 -17 13 -14 13 50 l0 45 7 -44 c3 -25 12 -46 20 -49
10 -3 12 3 7 24 -3 16 -8 47 -11 69 l-5 40 15 -30 c8 -16 14 -44 15 -62z m768
-143 c2 -107 0 -228 -3 -269 l-7 -74 -23 29 c-33 40 -41 60 -54 133 -14 74
-29 101 -54 101 -10 0 -16 4 -12 9 11 19 -27 28 -78 19 -29 -6 -66 -9 -83 -9
-19 1 -34 -4 -37 -13 -3 -8 -22 -19 -42 -26 -34 -11 -36 -14 -30 -43 6 -26 5
-30 -6 -19 -7 6 -22 12 -34 12 -11 0 -26 9 -33 21 -7 11 -33 29 -58 40 -26 10
-57 28 -71 39 -14 11 -33 20 -42 20 -32 0 -71 24 -65 40 11 26 17 108 10 134
-3 15 -13 26 -21 26 -8 0 -15 4 -15 10 0 10 205 15 575 15 l180 0 3 -195z
m-898 26 c-17 -45 -22 -24 -8 35 11 47 13 50 16 23 2 -16 -2 -43 -8 -58z m95
-76 c-3 -5 0 -10 8 -10 10 0 13 -8 9 -25 -3 -16 0 -25 9 -25 7 0 9 -3 6 -7 -4
-3 -2 -12 4 -20 9 -10 8 -13 -1 -13 -10 0 -10 -3 -1 -14 9 -11 9 -15 -1 -20
-9 -4 -10 -8 -2 -11 6 -3 10 -19 8 -34 -2 -19 2 -31 11 -35 27 -10 1 -50 -41
-64 l-39 -12 43 5 c24 3 48 6 54 8 14 3 31 -57 18 -61 -6 -2 -10 -12 -10 -23
0 -17 -3 -18 -21 -9 -11 7 -29 20 -40 31 -10 10 -25 19 -31 19 -7 -1 7 -18 30
-39 36 -31 41 -39 27 -45 -28 -10 -35 -7 -56 29 -29 48 -47 45 -51 -7 -2 -32
-8 -44 -22 -46 -18 -4 -18 -3 0 27 14 24 15 34 6 43 -8 8 -14 5 -21 -15 -6
-15 -15 -27 -21 -27 -13 0 -13 6 2 47 10 27 10 38 -1 54 -7 12 -8 18 -3 15 26
-16 62 115 62 228 0 32 5 48 18 55 22 13 55 14 47 1z m85 -4 c0 -3 -4 -8 -10
-11 -5 -3 -10 -1 -10 4 0 6 5 11 10 11 6 0 10 -2 10 -4z m79 -10 c6 -7 38 -25
71 -40 34 -16 61 -35 65 -46 4 -11 15 -20 26 -20 10 0 19 -4 19 -10 0 -5 6 -9
13 -7 7 1 11 -6 9 -17 -2 -10 1 -15 6 -12 10 6 55 -72 66 -114 4 -15 -2 -9
-14 15 -11 22 -27 43 -35 48 -9 4 -13 11 -11 15 3 4 -7 9 -21 10 -26 2 -52 27
-53 50 0 25 -25 41 -45 29 -14 -7 -20 -7 -23 1 -2 7 -8 10 -12 7 -5 -3 -21 15
-35 40 -29 48 -34 52 -53 33 -9 -9 -12 -9 -12 3 0 30 20 38 39 15z m-547 -12
c20 -4 25 -10 21 -21 -4 -11 -2 -14 5 -9 7 4 12 2 12 -6 0 -10 2 -10 9 1 6 9
11 10 15 2 4 -6 0 -18 -8 -27 -9 -8 -16 -11 -16 -5 0 6 -4 11 -10 11 -15 0
-12 -30 4 -36 8 -3 23 -1 34 5 16 8 21 6 31 -15 15 -33 15 -33 -14 -28 -14 2
-25 0 -25 -6 0 -7 -5 -8 -12 -3 -21 13 -42 13 -50 0 -6 -9 -11 -8 -18 3 -7 11
-10 11 -10 2 0 -8 -5 -10 -12 -6 -24 15 -88 12 -88 -4 0 -12 -3 -12 -15 -2
-12 10 -15 10 -16 -1 0 -10 -2 -11 -6 -1 -7 18 -23 15 -24 -5 0 -15 -2 -15 -7
-3 -8 17 -42 23 -42 8 0 -7 -4 -7 -13 0 -6 6 -27 9 -46 8 -18 -1 -39 4 -46 11
-8 7 -20 13 -27 13 -9 0 -14 12 -14 35 0 31 3 35 26 35 35 0 70 11 70 21 0 5
-7 9 -15 9 -8 0 -15 -3 -15 -8 0 -4 -18 -7 -40 -7 -49 0 -54 22 -7 30 79 13
298 13 369 -1z m1006 -9 c4 -31 -19 -54 -63 -61 -48 -7 -51 -9 -36 -28 10 -12
5 -16 -35 -22 l-47 -7 23 -17 c27 -20 12 -35 -25 -26 -29 7 -55 46 -30 46 20
0 19 12 -6 44 -22 28 -20 41 11 49 13 3 20 0 20 -8 0 -8 5 -17 12 -21 8 -5 9
-2 5 10 -4 10 -2 26 3 37 9 16 19 18 56 15 29 -2 50 -10 59 -22 8 -11 15 -15
15 -10 0 5 -8 18 -17 29 -17 18 -16 18 17 15 26 -2 36 -8 38 -23z m-1578 -5
c12 -8 12 -10 1 -10 -8 0 -11 -7 -8 -20 3 -11 2 -20 -2 -20 -4 0 -7 -9 -8 -20
-1 -11 2 -20 8 -20 13 0 11 -57 -3 -66 -8 -5 -9 0 -6 14 4 13 1 22 -5 22 -7 0
-20 18 -30 40 -17 37 -17 41 -1 64 17 28 30 31 54 16z m140 -25 c0 -10 -10
-15 -30 -15 -29 0 -38 9 -23 23 13 13 53 7 53 -8z m920 -1 c0 -12 37 -30 52
-26 11 3 30 -37 23 -48 -3 -6 -15 -10 -26 -10 -11 0 -19 -7 -19 -17 0 -15 -2
-16 -10 -3 -7 11 -10 7 -11 -20 -2 -34 -2 -34 -6 -5 -5 32 -23 59 -23 35 0
-13 -2 -13 -10 0 -5 8 -10 35 -10 60 0 39 3 46 20 46 11 0 20 -6 20 -12z m541
-37 c-8 -8 -11 -3 -11 19 1 25 2 27 11 11 8 -14 8 -22 0 -30z m-1461 -7 c0
-11 -4 -20 -10 -20 -5 0 -10 -9 -10 -20 0 -21 -2 -21 -58 16 -2 1 1 12 8 23
15 29 70 30 70 1z m-249 -17 c16 -29 15 -68 -2 -58 -5 4 -10 -4 -10 -17 -1
-17 -3 -18 -6 -5 -2 9 -9 17 -14 17 -5 0 -7 -11 -3 -24 3 -13 1 -27 -5 -30 -7
-4 -11 1 -11 13 0 31 -18 34 -23 4 -4 -27 -4 -27 -12 -5 -10 31 -23 28 -18 -5
l4 -28 -15 30 -14 30 -1 -27 c-1 -32 -21 -39 -21 -8 0 11 -5 20 -11 20 -6 0
-9 -9 -6 -20 3 -11 1 -23 -4 -26 -5 -3 -9 4 -9 15 0 26 -36 29 -43 4 -3 -10
-5 15 -6 55 l-1 72 43 1 c23 1 53 5 67 9 14 4 43 8 65 9 34 1 43 -3 56 -26z
m140 -10 c-10 -17 -10 -16 -11 3 0 23 13 41 18 25 2 -6 -1 -18 -7 -28z m-87 1
c9 -24 2 -26 -12 -4 -7 11 -8 20 -3 20 5 0 12 -7 15 -16z m1646 -3 c0 -6 -4
-12 -8 -15 -5 -3 -9 1 -9 9 0 8 4 15 9 15 4 0 8 -4 8 -9z m-860 -11 c0 -5 -4
-10 -10 -10 -5 0 -10 5 -10 10 0 6 5 10 10 10 6 0 10 -4 10 -10z m480 -4 c0
-2 -9 -6 -20 -9 -11 -3 -20 -1 -20 4 0 5 9 9 20 9 11 0 20 -2 20 -4z m-1181
-76 c0 -9 -4 -8 -9 5 -5 11 -9 27 -9 35 0 9 4 8 9 -5 5 -11 9 -27 9 -35z m658
7 c-15 -31 -21 -37 -29 -26 -8 12 -10 12 -15 0 -5 -11 -7 -11 -15 0 -8 12 -10
12 -15 0 -5 -11 -7 -11 -15 0 -8 11 -11 11 -15 1 -4 -10 -8 -10 -19 -1 -11 9
-14 8 -14 -2 0 -10 -3 -10 -11 -2 -9 9 -15 8 -25 -2 -8 -7 -14 -16 -14 -18 0
-8 112 -7 152 2 21 5 38 5 38 0 0 -9 -30 -19 -67 -22 -17 -1 -23 -8 -24 -27
-1 -22 -2 -22 -7 -5 -10 28 -42 29 -43 1 0 -19 -1 -19 -11 4 -10 24 -10 24
-18 5 -8 -19 -9 -19 -9 -1 -1 14 -6 17 -23 13 -12 -3 -30 -2 -40 4 -13 7 -18
6 -18 -3 0 -9 -3 -9 -10 2 -8 12 -11 13 -19 1 -7 -11 -10 -11 -16 0 -6 9 -10
8 -16 -7 -7 -17 -8 -17 -8 -1 -1 20 -17 23 -25 5 -3 -7 -5 -4 -3 6 2 17 10 19
80 17 70 -2 78 0 75 15 -4 22 -28 31 -28 10 0 -22 -20 -20 -20 2 -1 15 -2 15
-15 -2 -13 -17 -15 -18 -21 -2 -4 10 -10 13 -18 8 -15 -13 -49 -11 -59 2 -5 7
-11 5 -19 -8 -10 -18 -12 -18 -23 -2 -12 16 -13 15 -19 -1 -6 -15 -8 -15 -17
-3 -8 13 -10 13 -19 0 -8 -13 -10 -13 -10 1 0 9 -7 16 -16 15 -9 0 -18 4 -20
9 -3 6 26 10 74 11 154 1 382 17 404 29 40 20 45 13 25 -28z m-730 -4 c-3 -10
-5 -4 -5 12 0 17 2 24 5 18 2 -7 2 -21 0 -30z m1503 22 c-7 -9 -15 -13 -19
-10 -3 3 1 10 9 15 21 14 24 12 10 -5z m-230 -12 c19 -2 46 -6 60 -8 14 -1 28
-3 32 -4 4 -1 12 -10 18 -21 8 -16 8 -20 -2 -18 -7 2 -12 -3 -10 -11 5 -24 10
-67 5 -48 -7 26 -23 21 -23 -8 0 -16 -6 -25 -15 -25 -8 0 -15 -7 -15 -16 0 -9
-6 -14 -14 -11 -7 3 -21 -4 -31 -15 -13 -16 -19 -18 -25 -8 -4 7 -13 9 -20 5
-10 -6 -11 -1 -6 18 5 22 3 25 -10 20 -15 -5 -16 -1 -12 34 3 23 0 53 -8 71
-17 42 -9 65 20 56 11 -4 37 -9 56 -11z m250 2 c-7 -8 -10 -25 -8 -38 3 -17 0
-23 -14 -23 -21 0 -16 29 10 59 18 21 29 23 12 2z m-745 -5 c3 -5 -1 -10 -10
-10 -9 0 -13 5 -10 10 3 6 8 10 10 10 2 0 7 -4 10 -10z m810 0 c-3 -5 -12 -10
-18 -10 -7 0 -6 4 3 10 19 12 23 12 15 0z m-508 -22 c-3 -8 -6 -5 -6 6 -1 11
2 17 5 13 3 -3 4 -12 1 -19z m538 12 c-3 -5 -12 -10 -18 -10 -7 0 -6 4 3 10
19 12 23 12 15 0z m-435 -77 c0 -13 -4 -23 -10 -23 -5 0 -10 11 -10 24 0 13
-3 33 -6 43 -5 16 -4 16 10 -1 9 -11 16 -30 16 -43z m-39 -66 c-8 -8 -11 5
-10 54 l2 64 10 -53 c7 -39 7 -56 -2 -65z m-1014 97 c-3 -3 -12 -4 -19 -1 -8
3 -5 6 6 6 11 1 17 -2 13 -5z m983 -19 c0 -14 -2 -25 -4 -25 -2 0 -6 11 -8 25
-3 14 -1 25 3 25 5 0 9 -11 9 -25z m511 -8 c-16 -16 -26 0 -10 19 9 11 15 12
17 4 2 -6 -1 -17 -7 -23z m84 23 c3 -5 1 -10 -4 -10 -6 0 -11 5 -11 10 0 6 2
10 4 10 3 0 8 -4 11 -10z m-1425 -19 c0 -16 -18 -22 -24 -9 -5 10 -7 10 -12 1
-8 -18 -24 -16 -24 2 0 10 10 15 30 15 17 0 30 -4 30 -9z m490 -1 c0 -5 -4
-10 -10 -10 -5 0 -10 5 -10 10 0 6 5 10 10 10 6 0 10 -4 10 -10z m790 -31 c0
-6 -4 -7 -10 -4 -5 3 -10 11 -10 16 0 6 5 7 10 4 6 -3 10 -11 10 -16z m50 -9
c0 -5 -4 -10 -9 -10 -6 0 -13 5 -16 10 -3 6 1 10 9 10 9 0 16 -4 16 -10z
m-1352 -27 c-16 -2 -40 -2 -55 0 -16 2 -3 4 27 4 30 0 43 -2 28 -4z m-398 -7
c0 -2 -11 -6 -25 -8 -14 -3 -25 -1 -25 3 0 5 11 9 25 9 14 0 25 -2 25 -4z
m230 -6 l-35 -7 30 -3 c112 -10 571 -14 577 -5 5 6 8 6 8 -1 0 -16 109 -17
128 -2 12 11 17 10 26 -6 48 -81 48 -81 112 -79 70 2 154 16 209 35 31 11 47
12 74 3 20 -7 50 -9 75 -4 26 5 46 3 55 -4 9 -8 66 -11 177 -9 151 3 165 2
171 -15 4 -10 13 -23 20 -28 13 -10 -1975 -10 -2004 0 -8 3 -13 23 -13 52 0
47 1 48 37 60 25 8 43 8 56 2 19 -11 151 -10 177 0 9 3 -2 8 -25 12 -23 4 6 6
70 6 72 0 98 -2 75 -7z m423 -7 c-18 -2 -48 -2 -65 0 -18 2 -4 4 32 4 36 0 50
-2 33 -4z m1257 -87 c0 -8 -4 -17 -9 -21 -12 -7 -24 12 -16 25 9 15 25 12 25
-4z m-1660 -79 c-1 -21 -1 -21 -12 -2 -11 19 -11 19 -19 0 -7 -17 -8 -18 -8
-2 -1 9 -5 17 -11 17 -5 0 -11 -8 -11 -17 -1 -17 -2 -17 -6 0 -5 20 -19 22
-26 5 -3 -8 -6 -6 -6 4 -1 13 9 18 42 20 53 4 57 2 57 -25z m-390 8 c0 -8 -4
-15 -10 -15 -5 0 -10 7 -10 15 0 8 5 15 10 15 6 0 10 -7 10 -15z m120 0 c0 -8
-2 -15 -4 -15 -2 0 -6 7 -10 15 -3 8 -1 15 4 15 6 0 10 -7 10 -15z m27 -17
c-3 -7 -5 -2 -5 12 0 14 2 19 5 13 2 -7 2 -19 0 -25z m30 0 c-3 -7 -5 -2 -5
12 0 14 2 19 5 13 2 -7 2 -19 0 -25z m30 10 c-3 -8 -6 -5 -6 6 -1 11 2 17 5
13 3 -3 4 -12 1 -19z m43 1 c0 -11 -4 -17 -10 -14 -5 3 -10 13 -10 21 0 8 5
14 10 14 6 0 10 -9 10 -21z m170 1 c0 -11 -4 -20 -10 -20 -5 0 -10 9 -10 20 0
11 5 20 10 20 6 0 10 -9 10 -20z m23 0 c-3 -11 -7 -20 -9 -20 -2 0 -4 9 -4 20
0 11 4 20 9 20 5 0 7 -9 4 -20z m30 0 c-3 -11 -7 -20 -9 -20 -2 0 -4 9 -4 20
0 11 4 20 9 20 5 0 7 -9 4 -20z m37 -6 c0 -8 -4 -14 -10 -14 -5 0 -10 9 -10
21 0 11 5 17 10 14 6 -3 10 -13 10 -21z m140 6 c0 -25 -20 -27 -20 -2 -1 15
-2 15 -15 -2 -13 -17 -15 -18 -15 -3 0 23 -20 22 -21 0 0 -15 -2 -15 -9 2 -7
17 -9 17 -9 3 -1 -25 -21 -23 -21 2 0 18 7 20 55 20 48 0 55 -2 55 -20z m50 6
c0 -24 -17 -28 -23 -6 -3 13 0 20 9 20 8 0 14 -6 14 -14z m33 -6 c-3 -11 -9
-20 -13 -20 -5 0 -6 9 -3 20 3 11 9 20 13 20 5 0 6 -9 3 -20z m37 0 c0 -11 -4
-20 -10 -20 -5 0 -10 9 -10 20 0 11 5 20 10 20 6 0 10 -9 10 -20z m30 0 c0
-11 -4 -20 -10 -20 -5 0 -10 9 -10 20 0 11 5 20 10 20 6 0 10 -9 10 -20z m30
0 c0 -11 -4 -20 -10 -20 -5 0 -10 9 -10 20 0 11 5 20 10 20 6 0 10 -9 10 -20z
m83 0 c3 -11 1 -20 -4 -20 -5 0 -9 8 -10 18 0 14 -2 14 -9 -3 -7 -17 -9 -17
-9 -2 -1 22 -21 23 -21 0 0 -12 -3 -14 -11 -6 -17 17 -2 33 30 33 20 0 30 -6
34 -20z m31 5 c-4 -8 -8 -15 -10 -15 -2 0 -4 7 -4 15 0 8 4 15 10 15 5 0 7 -7
4 -15z m36 8 c0 -5 -5 -15 -10 -23 -8 -12 -10 -11 -10 8 0 12 5 22 10 22 6 0
10 -3 10 -7z m100 -12 c0 -11 -4 -23 -10 -26 -5 -3 -10 1 -10 9 0 19 -20 22
-20 4 0 -8 -7 -5 -15 6 -15 19 -15 19 -15 -3 0 -12 -4 -19 -10 -16 -5 3 -10
15 -10 26 0 16 7 19 45 19 38 0 45 -3 45 -19z m52 -6 c-2 -14 -6 -25 -8 -25
-2 0 -4 11 -4 25 0 14 4 25 9 25 4 0 6 -11 3 -25z m90 0 c-2 -14 -10 -24 -16
-22 -6 2 -10 11 -8 21 4 23 -15 20 -21 -4 -7 -28 -27 -25 -27 5 0 22 4 25 39
25 36 0 38 -2 33 -25z m100 -1 l-5 -27 -12 23 -12 22 -8 -23 -8 -24 -4 23 c-2
12 -8 22 -13 22 -5 0 -11 -10 -13 -22 -4 -20 -4 -19 -6 5 -1 26 1 27 43 27 41
0 43 -1 38 -26z m31 6 c-3 -11 -7 -20 -9 -20 -2 0 -4 9 -4 20 0 11 4 20 9 20
5 0 7 -9 4 -20z m24 -17 c-3 -10 -5 -4 -5 12 0 17 2 24 5 18 2 -7 2 -21 0 -30z
m50 15 c-5 -32 -27 -35 -27 -4 0 16 6 26 15 26 10 0 14 -8 12 -22z m33 -3 c0
-14 -4 -25 -10 -25 -5 0 -10 11 -10 25 0 14 5 25 10 25 6 0 10 -11 10 -25z
m145 15 c-4 -6 -11 -8 -16 -5 -5 4 -10 -2 -10 -12 -1 -17 -2 -17 -6 0 -2 9 -9
17 -15 17 -6 0 -8 -9 -5 -20 7 -28 -9 -25 -18 3 l-8 22 -4 -22 c-2 -13 -9 -23
-14 -23 -10 0 -12 33 -2 43 11 12 105 8 98 -3z m35 -15 c0 -14 -4 -25 -10 -25
-5 0 -10 11 -10 25 0 14 5 25 10 25 6 0 10 -11 10 -25z m110 -2 l-1 -28 -14
25 -14 25 -1 -25 c-1 -24 -1 -24 -12 -5 -6 11 -16 23 -22 27 -6 4 6 8 27 8 34
0 37 -2 37 -27z m147 -20 c-4 -17 -4 -17 -12 0 -4 9 -4 25 0 35 8 16 8 16 12
0 3 -10 3 -26 0 -35z m112 20 c0 -25 -1 -25 -8 -8 -5 11 -7 23 -4 28 8 14 13
7 12 -20z m-232 -15 c-3 -7 -5 -2 -5 12 0 14 2 19 5 13 2 -7 2 -19 0 -25z m33
11 c0 -11 -4 -17 -10 -14 -5 3 -10 13 -10 21 0 8 5 14 10 14 6 0 10 -9 10 -21z
m30 14 c0 -5 -5 -15 -10 -23 -8 -12 -10 -11 -10 8 0 12 5 22 10 22 6 0 10 -3
10 -7z m25 -13 c-2 -31 -15 -37 -15 -7 0 15 4 27 8 27 5 0 8 -9 7 -20z m65 -6
c0 -14 -4 -23 -10 -19 -5 3 -10 15 -10 26 0 10 5 19 10 19 6 0 10 -12 10 -26z
m30 1 c0 -14 -4 -25 -10 -25 -5 0 -10 11 -10 25 0 14 5 25 10 25 6 0 10 -11
10 -25z m17 -12 c-3 -10 -5 -4 -5 12 0 17 2 24 5 18 2 -7 2 -21 0 -30z m56 17
c3 -11 1 -20 -4 -20 -5 0 -9 9 -9 20 0 11 2 20 4 20 2 0 6 -9 9 -20z m37 6 c0
-8 -4 -18 -10 -21 -5 -3 -10 3 -10 14 0 12 5 21 10 21 6 0 10 -6 10 -14z
m-465 -16 c3 -5 1 -10 -4 -10 -6 0 -11 5 -11 10 0 6 2 10 4 10 3 0 8 -4 11
-10z m-925 -125 c278 -3 669 -7 870 -10 201 -3 400 -5 443 -5 64 0 77 -3 77
-16 0 -15 -34 -16 -382 -10 -211 3 -624 9 -918 12 -294 4 -584 7 -645 9 -118
2 -135 0 -135 -20 0 -16 177 -23 740 -30 245 -3 567 -7 715 -10 149 -2 350 -4
447 -5 192 0 190 1 180 -58 l-5 -23 -326 5 c-179 3 -630 8 -1001 11 -371 3
-689 8 -706 11 -18 3 -34 2 -37 -4 -7 -10 283 -22 587 -23 111 0 210 -4 221
-9 12 -6 -22 -7 -90 -5 -270 11 -725 14 -725 5 0 -6 6 -10 13 -11 6 0 28 -2
47 -4 19 -1 242 -6 495 -9 253 -4 566 -9 695 -11 129 -2 369 -4 533 -5 l297 0
0 -170 c0 -93 -1 -170 -3 -170 -1 0 -20 9 -42 20 l-39 20 39 1 c22 1 32 3 23
6 -19 5 -25 33 -8 33 6 0 10 7 10 15 0 11 -11 15 -39 15 -30 0 -40 -4 -44 -19
-3 -14 -15 -21 -38 -23 -42 -4 -43 -21 -3 -29 28 -6 26 -9 -16 -22 -10 -3 -5
-9 15 -18 28 -12 29 -13 8 -16 -24 -5 -30 -18 -13 -28 5 -3 10 -1 10 4 0 16
27 13 33 -3 8 -21 -3 -22 -338 -16 -165 3 -598 7 -962 8 -365 1 -669 5 -676 8
-11 4 -13 38 -11 172 2 92 4 228 4 302 l0 135 97 -2 c54 -1 325 -5 603 -8z
m1315 -185 c44 -5 -199 -6 -540 -3 -341 3 -622 7 -624 9 -8 8 1084 2 1164 -6z
m22 -276 c-3 -3 -12 -4 -19 -1 -8 3 -5 6 6 6 11 1 17 -2 13 -5z m-64 -41 c-7
-2 -19 -2 -25 0 -7 3 -2 5 12 5 14 0 19 -2 13 -5z m80 -70 c-7 -2 -21 -2 -30
0 -10 3 -4 5 12 5 17 0 24 -2 18 -5z m37 -29 c0 -10 -12 -14 -45 -12 -41 1
-53 7 -41 19 3 2 23 5 45 6 29 1 41 -3 41 -13z m-1977 -21 c-7 -2 -19 -2 -25
0 -7 3 -2 5 12 5 14 0 19 -2 13 -5z m187 -4 c0 -9 -159 -1 -169 8 -3 2 34 3
82 2 48 -1 87 -5 87 -10z m177 -6 c-20 -2 -52 -2 -70 0 -17 2 0 4 38 4 39 0
53 -2 32 -4z m96 0 c-7 -2 -19 -2 -25 0 -7 3 -2 5 12 5 14 0 19 -2 13 -5z"/>
<path d="M474 3609 c-3 -6 -1 -16 5 -22 8 -8 11 -5 11 11 0 24 -5 28 -16 11z"/>
<path d="M136 3501 c-4 -5 -2 -12 3 -15 5 -4 12 -2 15 3 4 5 2 12 -3 15 -5 4
-12 2 -15 -3z"/>
<path d="M1191 3437 c-6 -8 -11 -31 -11 -53 0 -21 -2 -65 -6 -96 l-6 -57 -36
-3 c-34 -3 -37 -6 -37 -33 0 -28 3 -30 39 -33 l38 -3 -4 -44 c-3 -24 -1 -48 5
-54 7 -7 12 -238 15 -683 4 -588 6 -675 20 -690 21 -25 51 -22 61 5 4 12 11
323 15 690 4 410 10 676 16 687 6 11 6 21 1 24 -5 4 -6 18 -2 34 5 20 15 28
37 32 23 4 30 11 32 33 2 17 -2 28 -10 29 -7 0 -17 2 -23 3 -5 2 -20 3 -31 4
-18 1 -23 10 -30 64 -4 34 -7 75 -5 90 5 50 -50 87 -78 54z m49 -22 c14 -17 4
-55 -15 -55 -16 0 -31 43 -20 59 9 15 20 14 35 -4z m-16 -71 c9 -3 13 -10 10
-15 -3 -6 0 -16 6 -24 7 -8 10 -15 6 -15 -3 0 -1 -11 4 -24 10 -28 -4 -46 -37
-46 -21 0 -23 5 -23 49 0 44 7 81 15 81 2 0 10 -3 19 -6z m124 -151 c3 -10
-24 -13 -112 -13 -105 0 -136 6 -119 24 13 13 226 2 231 -11z m-91 -53 c-3
-11 -1 -20 5 -20 5 0 6 -4 3 -10 -3 -5 -22 -10 -41 -10 -31 0 -34 2 -34 30 0
28 3 30 36 30 31 0 36 -3 31 -20z m23 -60 c0 -12 -77 -14 -83 -2 -3 4 15 8 39
9 24 1 44 -2 44 -7z m-50 -707 c0 -393 -4 -673 -9 -668 -5 6 -12 310 -15 678
-6 596 -5 667 9 667 13 0 15 -75 15 -677z m38 135 c-3 -622 -8 -848 -17 -751
-11 114 -2 1293 10 1293 7 0 9 -175 7 -542z"/>
<path d="M1522 3441 c-13 -8 -14 -18 -12 -71 0 -8 -3 -44 -7 -80 l-8 -65 -47
-3 c-43 -3 -48 -6 -48 -26 0 -25 17 -36 56 -36 17 0 25 -7 30 -26 4 -14 2 -30
-4 -36 -8 -8 -7 -17 3 -32 14 -23 20 -201 31 -941 5 -357 9 -423 22 -437 8
-10 20 -18 26 -18 31 0 35 41 41 436 3 220 8 413 10 429 3 17 5 159 6 316 1
158 4 291 8 297 3 5 17 12 31 13 19 3 26 11 28 32 3 25 1 27 -37 27 -22 0 -42
4 -45 8 -3 4 -7 50 -10 101 -2 51 -10 99 -17 107 -13 16 -37 18 -57 5z m45
-27 c3 -8 1 -25 -5 -37 -14 -30 -13 -67 1 -67 7 0 6 -4 -3 -10 -12 -8 -12 -10
-1 -10 11 0 11 -3 1 -15 -10 -12 -9 -15 4 -15 16 0 16 -2 2 -15 -8 -8 -22 -15
-30 -15 -18 0 -21 50 -7 111 5 21 5 43 0 50 -8 14 6 39 23 39 5 0 11 -7 15
-16z m103 -219 c0 -12 -17 -15 -87 -17 -91 -1 -145 1 -152 7 -1 2 0 8 4 14 4
7 50 11 121 11 95 0 114 -3 114 -15z m-107 -47 c7 -7 13 -21 15 -30 2 -14 -4
-18 -33 -18 -19 0 -35 3 -35 8 0 4 -3 17 -6 30 -5 19 -2 22 21 22 14 0 32 -6
38 -12z m42 -68 c-3 -5 -26 -10 -51 -10 -24 0 -44 5 -44 10 0 6 23 10 51 10
31 0 48 -4 44 -10z m-56 -703 c-1 -370 -5 -652 -9 -627 -9 59 -23 1294 -14
1303 4 3 11 4 15 1 5 -3 8 -308 8 -677z m46 312 c-1 -592 -6 -912 -15 -949 -5
-21 -8 142 -9 395 -1 237 -4 534 -8 661 -6 233 -3 269 20 261 9 -3 12 -85 12
-368z"/>
<path d="M1842 3438 c-14 -14 -16 -50 -3 -63 4 -6 4 -39 -2 -77 -12 -72 -18
-78 -84 -78 -25 0 -33 -4 -33 -18 0 -27 20 -42 57 -42 33 0 34 -1 33 -42 0
-24 4 -133 9 -243 5 -110 11 -421 14 -691 5 -484 5 -492 26 -513 52 -52 62
-18 67 232 2 117 7 424 10 682 4 259 8 484 9 500 1 17 3 40 4 52 1 18 8 22 44
25 37 3 42 6 45 30 3 26 1 27 -50 30 l-53 3 -1 40 c-1 22 -6 51 -12 65 -5 14
-7 40 -5 58 3 18 0 39 -7 47 -15 18 -51 20 -68 3z m55 -24 c3 -8 1 -25 -5 -37
-13 -26 -12 -57 1 -57 5 0 7 -6 4 -14 -3 -8 -1 -17 6 -20 9 -3 8 -8 -3 -15 -8
-6 -10 -11 -5 -11 6 0 11 -9 11 -20 0 -16 -6 -20 -26 -18 -30 4 -37 38 -21
105 8 31 8 49 1 63 -6 11 -8 25 -5 30 10 15 35 12 42 -6z m101 -210 c55 -15
11 -24 -118 -24 -128 0 -152 4 -133 23 8 9 220 9 251 1z m-104 -50 c9 -3 13
-10 10 -15 -3 -5 0 -9 7 -9 8 0 8 -4 -1 -16 -8 -9 -25 -14 -44 -12 -25 2 -32
8 -34 31 -3 23 0 27 22 27 13 0 31 -3 40 -6z m30 -76 c-7 -12 -94 -10 -94 2 0
6 21 10 50 9 27 -1 47 -6 44 -11z m-48 -630 c-3 -332 -5 -639 -6 -683 0 -46
-4 -75 -9 -70 -5 6 -12 313 -15 683 l-7 672 22 0 21 0 -6 -602z m42 -69 c-6
-618 -7 -673 -23 -688 -16 -15 -17 -14 -11 11 3 14 6 264 6 555 0 563 7 793
23 793 7 0 8 -227 5 -671z"/>
<path d="M530 3054 c0 -8 5 -12 10 -9 6 4 8 11 5 16 -9 14 -15 11 -15 -7z"/>
<path d="M1285 1340 c-10 -17 12 -37 25 -24 8 8 6 15 -4 23 -10 9 -16 9 -21 1z"/>
<path d="M1331 1046 c11 -9 69 -14 69 -6 0 6 -16 10 -37 10 -20 0 -34 -2 -32
-4z"/>
<path d="M1640 1212 c0 -5 7 -16 16 -23 14 -12 16 -11 13 5 -4 20 -29 35 -29
18z"/>
<path d="M660 1294 c0 -18 281 -15 287 2 3 8 -39 11 -142 11 -114 0 -145 -3
-145 -13z"/>
<path d="M830 1264 c0 -6 -10 -10 -22 -10 -13 1 -29 -2 -35 -7 -9 -6 -13 -5
-13 4 0 11 -2 11 -10 -1 -7 -11 -12 -12 -21 -3 -13 13 -65 7 -86 -10 -9 -7
-13 -5 -13 7 0 9 -4 16 -10 16 -5 0 -10 -4 -10 -9 0 -5 -10 -7 -22 -3 -21 5
-22 4 -9 -11 14 -17 52 -17 261 -2 19 1 47 3 63 4 18 1 27 7 27 17 0 14 -3 14
-15 4 -12 -10 -15 -10 -15 1 0 11 -2 11 -10 -1 -8 -12 -11 -13 -19 -1 -6 10
-10 10 -16 1 -6 -9 -10 -9 -16 1 -5 8 -9 9 -9 3z"/>
<path d="M1856 1296 c3 -9 13 -16 22 -16 8 0 13 1 11 3 -2 1 -12 9 -22 16 -15
12 -17 12 -11 -3z"/>
<path d="M1767 413 c-4 -3 -7 -24 -7 -45 0 -44 -18 -57 -55 -40 -13 6 -27 8
-29 3 -5 -8 -489 -20 -1151 -27 -381 -4 -401 -6 -420 -24 -46 -47 21 -58 400
-65 182 -4 332 -8 335 -10 3 -2 187 -6 410 -10 223 -3 414 -9 425 -12 11 -4
32 -5 47 -4 23 2 28 -2 32 -31 3 -18 5 -42 3 -53 -2 -16 4 -20 28 -20 29 0 30
2 35 55 l5 55 55 13 c30 7 62 16 70 19 8 3 23 5 33 4 26 -3 67 26 67 49 0 39
-67 68 -95 41 -6 -5 -36 -6 -67 -4 l-58 5 0 38 c0 21 -3 45 -6 54 -6 16 -45
22 -57 9z m40 -163 c-3 -83 -9 -155 -12 -160 -16 -26 -25 9 -25 94 0 139 10
216 27 216 13 0 14 -23 10 -150z m-137 34 l0 -26 -780 4 c-627 2 -777 5 -763
16 13 9 130 12 497 13 265 1 571 4 681 8 407 12 365 14 365 -15z m81 14 c-1
-5 -1 -21 -1 -38 0 -16 -4 -30 -10 -30 -5 0 -10 7 -10 15 0 8 -4 15 -9 15 -4
0 -6 11 -3 25 3 16 10 25 19 23 8 -2 14 -6 14 -10z m263 -1 c15 -11 17 -17 7
-35 -6 -12 -20 -22 -31 -22 -23 0 -36 36 -20 55 15 18 21 19 44 2z m-83 -13
c16 -9 11 -44 -6 -38 -10 4 -15 0 -16 -12 0 -15 -3 -14 -11 6 l-11 25 -7 -25
c-8 -24 -8 -24 -9 -2 -1 24 -16 30 -24 10 -3 -8 -6 -5 -6 5 -1 10 -5 15 -11
12 -12 -7 -12 -3 -3 20 5 14 14 16 50 11 25 -3 49 -8 54 -12z m-1724 -40 c-3
-3 -12 -4 -19 -1 -8 3 -5 6 6 6 11 1 17 -2 13 -5z m283 2 c0 -3 -4 -8 -10 -11
-5 -3 -10 -1 -10 4 0 6 5 11 10 11 6 0 10 -2 10 -4z m50 -12 c0 -2 -7 -4 -15
-4 -8 0 -15 4 -15 10 0 5 7 7 15 4 8 -4 15 -8 15 -10z m1007 -16 c-3 -8 -6 -5
-6 6 -1 11 2 17 5 13 3 -3 4 -12 1 -19z m30 0 c-3 -8 -6 -5 -6 6 -1 11 2 17 5
13 3 -3 4 -12 1 -19z m90 0 c-3 -8 -6 -5 -6 6 -1 11 2 17 5 13 3 -3 4 -12 1
-19z"/>
</g>
</svg>
