<?xml version="1.0" standalone="no"?>
<!DOCTYPE svg PUBLIC "-//W3C//DTD SVG 20010904//EN"
 "http://www.w3.org/TR/2001/REC-SVG-20010904/DTD/svg10.dtd">
<svg version="1.0" xmlns="http://www.w3.org/2000/svg"
 width="218.000000pt" height="383.000000pt" viewBox="0 0 218.000000 383.000000"
 preserveAspectRatio="xMidYMid meet">
<metadata>
Created by potrace 1.16, written by Peter Selinger 2001-2019
</metadata>
<g transform="translate(0.000000,383.000000) scale(0.100000,-0.100000)"
fill="#000000" stroke="none">
<path d="M35 3822 c-2 -2 -4 -146 -4 -320 -1 -174 -4 -400 -6 -502 -8 -339
-20 -1630 -18 -1990 1 -195 3 -502 3 -682 l0 -328 1078 0 1077 0 0 577 c0 318
1 1174 3 1902 2 1054 0 1326 -10 1333 -7 4 -409 8 -893 9 -484 1 -958 2 -1053
3 -95 1 -175 0 -177 -2z m2098 -25 c13 -5 17 -18 17 -57 0 -47 -2 -51 -39 -74
-34 -22 -43 -23 -68 -14 -27 10 -36 7 -89 -25 -69 -43 -88 -47 -79 -16 6 19 4
21 -24 17 -17 -2 -31 -1 -31 4 0 20 -34 4 -107 -50 -74 -56 -241 -152 -263
-152 -19 0 -10 37 15 60 14 13 25 28 25 33 0 5 9 22 20 37 17 24 18 29 5 34
-26 10 -16 31 40 85 47 45 76 93 64 106 -2 2 -27 -3 -54 -10 -44 -11 -96 -40
-337 -185 -40 -25 -52 -27 -80 -19 -29 8 -38 5 -87 -29 -59 -41 -72 -58 -44
-64 12 -2 -21 -27 -94 -71 -62 -37 -115 -67 -118 -67 -4 0 -3 10 0 21 5 13 2
25 -6 29 -10 7 -10 11 1 24 11 14 10 20 -6 37 -14 16 -26 19 -51 14 -27 -5
-32 -3 -27 10 5 11 -1 15 -23 15 -21 0 -40 -11 -65 -37 -19 -21 -44 -46 -56
-55 -12 -10 -19 -24 -16 -31 3 -8 -2 -20 -11 -27 -19 -16 -20 -40 0 -40 8 0
15 -8 15 -17 -1 -25 -78 -78 -109 -75 -15 1 -43 -10 -66 -26 -64 -46 -69 -48
-56 -23 7 11 16 21 21 21 6 0 10 9 10 19 0 11 5 23 10 26 19 12 10 35 -12 35
-33 -1 -75 -25 -192 -112 -57 -43 -107 -78 -109 -78 -7 0 -9 724 -3 731 7 7
2060 4 2079 -4z m-543 -52 c0 -6 -12 -23 -27 -38 -80 -75 -87 -85 -74 -113 10
-22 9 -30 -4 -44 -8 -9 -15 -21 -15 -26 0 -6 -13 -23 -28 -38 -34 -32 -43 -91
-13 -81 42 13 250 130 296 165 31 25 53 36 60 30 6 -5 17 -5 25 0 26 17 37 11
32 -15 -6 -34 5 -32 93 15 66 34 79 38 101 28 20 -9 32 -8 61 6 20 9 40 13 44
9 5 -5 9 -492 9 -1083 -1 -591 0 -1141 0 -1221 l1 -146 -32 -16 c-33 -15 -33
-15 -87 31 -60 51 -89 102 -121 209 -20 68 -35 92 -48 79 -3 -3 -1 -11 4 -18
5 -7 16 -35 23 -63 19 -71 65 -167 94 -194 14 -13 23 -28 20 -35 -4 -11 104
-86 125 -86 6 0 11 -9 11 -20 0 -16 -7 -20 -36 -20 -33 0 -36 -2 -30 -24 4
-17 1 -26 -10 -30 -13 -5 -14 -9 -4 -21 17 -21 -11 -52 -59 -65 -47 -13 -65
-25 -57 -39 9 -15 -17 -14 -32 1 -7 7 -8 16 -2 23 6 7 6 24 0 46 -14 48 -12
60 4 23 16 -36 37 -47 69 -35 12 4 28 6 35 4 6 -3 12 0 12 7 0 8 -14 9 -43 5
-41 -6 -44 -5 -55 22 -6 15 -14 42 -18 58 l-7 30 25 -30 c13 -16 27 -38 31
-47 3 -10 14 -18 24 -18 17 1 17 1 -1 15 -10 7 -15 19 -11 24 3 6 -1 14 -10
17 -22 9 -41 50 -59 128 -20 84 -20 92 -2 77 7 -6 21 -36 31 -67 11 -36 27
-62 46 -76 21 -16 27 -27 23 -43 -3 -13 2 -27 15 -39 18 -16 21 -17 21 -3 0 8
-6 18 -12 20 -10 4 -9 8 2 16 12 8 8 17 -26 48 -31 29 -48 59 -74 130 -19 50
-36 90 -39 88 -3 -1 -7 20 -8 49 -1 49 -29 134 -40 123 -3 -3 0 -22 7 -42 9
-26 9 -39 1 -49 -6 -7 -8 -22 -4 -31 4 -13 3 -16 -6 -10 -9 5 -11 21 -6 51 5
36 3 44 -9 44 -22 0 -32 -65 -16 -107 17 -50 47 -179 55 -243 4 -30 10 -71 15
-90 21 -89 21 -90 6 -90 -42 0 -136 129 -136 187 0 15 -5 21 -14 17 -9 -3 -16
2 -19 13 -3 10 -3 -2 -1 -25 5 -60 35 -122 79 -167 21 -20 29 -32 17 -26 -30
16 -98 97 -121 144 -11 23 -23 61 -27 84 -8 52 -24 57 -24 8 0 -87 117 -246
196 -267 24 -7 44 -16 44 -21 0 -5 7 -7 15 -3 8 3 15 4 15 2 0 -3 3 -11 6 -20
5 -14 3 -14 -24 -1 -16 8 -50 19 -74 24 -103 19 -191 122 -243 285 -25 77 -40
69 -17 -9 25 -88 71 -164 135 -227 l62 -60 -55 6 c-30 4 -70 8 -87 10 -18 1
-42 11 -53 21 -18 16 -20 17 -20 1 0 -9 11 -22 25 -28 29 -13 33 -28 8 -28
-19 0 -53 28 -53 43 0 6 -9 20 -20 32 -16 18 -40 99 -40 138 0 20 16 -7 34
-55 9 -25 24 -52 32 -58 19 -17 18 -4 -7 47 -24 50 -41 162 -32 213 4 29 3 33
-8 22 -9 -9 -14 -34 -13 -75 1 -46 0 -54 -6 -32 -11 44 -12 133 0 137 12 4 1
78 -11 78 -10 0 -12 -19 -9 -115 4 -159 18 -265 39 -301 28 -48 27 -52 -16
-45 -35 6 -38 10 -57 66 -16 49 -19 89 -20 222 0 90 -3 159 -7 155 -11 -11
-15 -206 -6 -317 l8 -100 -22 25 c-12 14 -25 24 -29 23 -20 -6 -15 325 5 375
8 19 15 49 15 66 -1 58 -27 2 -45 -95 -15 -85 -15 -191 0 -324 l5 -40 -36 38
c-34 37 -35 41 -30 90 12 118 19 151 32 165 8 7 14 31 14 53 0 44 14 110 41
189 10 30 16 56 14 58 -6 6 -24 -41 -42 -113 -18 -71 -34 -96 -22 -33 13 67
27 108 46 137 35 52 43 73 34 85 -6 7 -15 43 -21 81 -10 64 -26 142 -50 253
-6 23 -10 67 -10 98 0 34 -4 53 -10 49 -5 -3 -10 -22 -10 -41 0 -41 -27 -48
-32 -7 -4 31 -25 42 -30 16 -2 -12 -13 -18 -36 -19 -32 -2 -32 -1 -18 20 8 11
20 20 26 18 8 -2 11 5 7 20 -4 12 2 41 12 64 11 23 22 57 26 75 9 39 40 105
55 114 6 3 26 1 45 -7 25 -8 37 -20 41 -38 15 -75 27 -101 57 -124 22 -18 27
-26 15 -26 -9 0 -18 6 -21 13 -2 6 -8 9 -12 5 -12 -11 14 -38 36 -38 16 0 19
-8 19 -50 0 -45 -2 -50 -22 -50 -22 -1 -22 -1 5 -21 33 -25 36 -50 5 -41 -14
3 -19 2 -14 -6 4 -7 15 -12 25 -12 10 0 24 -7 32 -16 12 -14 14 -14 27 3 13
17 14 16 9 -7 -3 -14 -9 -42 -12 -62 -4 -21 -13 -42 -21 -49 -8 -6 -14 -20
-14 -31 0 -18 -5 -19 -50 -13 -47 6 -50 5 -60 -19 -12 -31 -4 -57 16 -49 10 4
14 -2 14 -20 0 -22 6 -27 35 -33 34 -6 35 -8 35 -49 0 -25 -5 -46 -12 -49 -7
-3 0 -4 17 0 28 5 29 5 12 -14 -9 -10 -17 -24 -17 -30 0 -7 -4 -12 -10 -12
-10 0 -14 15 -10 35 1 6 -4 5 -10 -2 -9 -8 -9 -20 1 -47 14 -40 38 -51 134
-62 47 -6 53 -4 104 34 47 35 56 39 68 26 8 -8 21 -14 29 -14 21 0 54 19 54
31 0 6 -7 6 -20 -1 -14 -7 -20 -7 -20 0 0 5 5 10 10 10 6 0 10 8 10 18 0 27
-24 67 -40 67 -8 0 -16 10 -18 23 -2 15 2 22 14 22 14 0 14 2 3 16 -11 14 -10
18 10 33 22 17 33 67 31 143 0 15 4 29 10 33 5 3 10 13 10 22 0 13 -3 13 -15
3 -15 -12 -22 0 -7 14 4 4 7 13 7 19 0 5 6 12 14 15 10 3 12 0 8 -12 -9 -24 2
-46 21 -39 10 3 6 -5 -10 -21 -37 -36 -36 -52 2 -24 29 21 37 48 24 82 -3 9
-10 13 -15 10 -5 -3 -9 0 -9 5 0 6 5 12 10 12 19 3 25 5 46 17 20 10 22 9 26
-18 3 -22 0 -30 -14 -33 -13 -4 -12 -5 4 -4 38 0 56 -13 71 -52 29 -73 24
-122 -20 -175 -27 -32 -17 -61 11 -34 8 9 12 19 8 22 -3 4 0 4 9 1 12 -4 15 3
16 30 1 20 4 39 7 42 6 6 37 -23 36 -34 -1 -4 3 -9 8 -11 5 -1 12 11 14 28 3
23 1 30 -9 26 -7 -3 -13 -1 -13 3 0 5 6 11 13 14 6 2 9 8 4 12 -4 5 -13 3 -19
-3 -18 -18 -23 -15 -25 21 -2 26 0 29 8 15 5 -10 18 -18 29 -18 10 0 21 -8 25
-19 7 -22 -11 -110 -27 -128 -14 -18 -29 -16 -22 2 4 9 0 15 -8 15 -25 0 -55
-29 -61 -59 -6 -29 -48 -64 -54 -45 -4 13 -81 10 -95 -4 -15 -15 -2 -42 21
-42 11 0 26 7 35 15 8 8 27 15 42 15 16 0 41 13 65 35 22 19 48 35 59 35 45 0
76 104 59 196 -6 32 -22 80 -35 108 -28 59 -28 57 -9 50 22 -9 19 24 -5 64
-11 18 -20 37 -20 43 0 12 -41 71 -57 82 -6 4 -17 24 -24 44 -17 52 -114 153
-147 153 -21 0 -24 3 -19 28 3 15 27 126 52 247 93 439 93 439 82 463 -20 45
-44 17 -74 -87 -25 -90 -29 -68 -8 42 21 108 20 127 -5 127 -16 0 -19 -5 -15
-22 3 -13 -10 -90 -29 -173 -19 -82 -35 -142 -35 -132 -1 10 10 68 23 130 32
145 38 182 29 174 -3 -4 -19 -67 -33 -140 -15 -73 -44 -203 -65 -289 -32 -132
-42 -158 -61 -166 -12 -6 -31 -8 -43 -5 -12 3 -21 1 -21 -5 0 -14 53 -22 68
-10 16 13 15 6 -4 -62 -15 -53 -17 -57 -42 -52 -49 9 -72 45 -34 55 12 3 9 5
-8 6 l-25 2 24 19 c17 15 19 20 7 20 -8 0 -23 -11 -31 -24 -14 -21 -14 -27 5
-72 12 -27 28 -54 36 -61 14 -10 14 -14 1 -40 -9 -16 -28 -35 -44 -42 -15 -7
-35 -17 -43 -21 -8 -4 -16 -19 -18 -34 -5 -39 -19 -32 -27 14 -4 24 -14 44
-26 50 -24 13 -24 26 1 73 11 20 17 37 13 37 -3 0 -31 -14 -61 -31 -30 -17
-56 -28 -59 -25 -3 3 -7 19 -8 36 -2 21 3 34 16 41 11 5 17 14 13 20 -4 6 -11
5 -21 -3 -12 -10 -17 -9 -28 5 -10 14 -14 15 -18 5 -2 -7 -7 -10 -11 -7 -9 8
12 61 22 55 4 -2 13 4 20 15 11 16 9 19 -9 19 -11 0 -18 4 -15 9 4 5 2 11 -3
13 -5 1 -12 18 -16 36 -5 24 -3 32 7 32 7 0 19 13 25 30 11 29 11 29 -24 28
-42 -2 -51 -18 -34 -65 23 -64 28 -113 16 -156 -6 -24 -4 -29 13 -34 32 -8 35
-53 6 -76 -27 -21 -64 -86 -64 -114 -1 -10 -9 -36 -20 -58 -11 -22 -19 -46
-20 -53 0 -8 -10 -28 -22 -44 -16 -23 -22 -47 -23 -97 -1 -36 -7 -77 -14 -90
-9 -16 -11 -42 -7 -78 7 -61 15 -54 -138 -133 -48 -25 -121 -71 -163 -102 -42
-32 -84 -58 -93 -58 -21 0 -31 -10 -24 -22 7 -11 109 45 149 82 34 32 233 150
252 150 18 0 17 -73 -3 -156 -8 -37 -13 -76 -11 -86 3 -10 1 -20 -4 -23 -12
-8 -40 51 -33 69 10 26 -4 62 -28 73 -30 13 -62 -1 -77 -35 -10 -22 -9 -30 10
-55 16 -22 20 -38 16 -67 -6 -45 15 -62 36 -29 7 11 28 22 51 26 35 5 61 31
80 78 2 6 16 -2 30 -17 25 -26 25 -29 12 -60 -8 -18 -19 -45 -25 -60 -6 -16
-17 -28 -26 -28 -8 0 -15 -6 -16 -12 0 -7 -4 -2 -10 10 -7 19 -5 27 13 43 13
10 18 18 13 19 -6 0 -16 -5 -22 -11 -8 -8 -20 -9 -41 -1 -26 9 -33 7 -48 -9
-17 -19 -50 -27 -40 -10 3 5 -1 12 -10 15 -11 4 -18 -1 -21 -14 -5 -17 -77
-70 -96 -70 -3 0 -1 15 4 32 5 18 9 37 9 41 0 14 -37 -2 -91 -39 -55 -37 -79
-43 -79 -19 0 20 -2 19 -60 -10 -27 -14 -51 -25 -54 -25 -2 0 -7 12 -11 28
-10 41 -34 62 -72 62 -18 0 -33 3 -33 8 0 4 34 31 76 61 97 69 237 140 196 99
-7 -7 -12 -16 -12 -22 0 -11 29 25 30 37 1 32 -125 -29 -257 -124 -80 -59
-106 -72 -84 -45 19 23 9 67 -21 89 -25 19 -30 19 -65 6 -21 -8 -42 -24 -47
-35 -13 -30 -70 -64 -95 -57 -12 3 -32 -2 -47 -12 -38 -24 -40 -12 -5 28 17
19 31 39 31 44 0 6 9 18 20 28 11 10 20 22 20 27 0 17 -64 7 -94 -15 -58 -44
-56 -46 -56 62 l0 99 37 23 c20 13 58 41 84 64 57 48 138 99 146 92 3 -4 18 0
34 8 15 8 38 15 50 15 22 0 22 0 3 -22 -26 -31 -44 -65 -44 -82 0 -12 6 -13
32 -4 18 6 38 15 45 20 8 6 19 2 32 -11 12 -12 31 -21 44 -21 25 0 95 41 167
98 25 20 47 38 49 39 2 2 1 6 -2 10 -4 4 -13 1 -19 -5 -14 -14 -38 -16 -38 -3
0 10 126 92 215 141 45 25 164 104 203 136 2 1 5 14 6 28 2 14 15 36 30 47 17
13 26 28 23 39 -2 9 0 25 5 34 6 11 5 16 -4 16 -17 -1 -43 -16 -109 -67 -31
-24 -59 -43 -62 -43 -9 0 4 32 20 52 16 18 9 58 -10 58 -22 0 -67 -29 -142
-90 -41 -33 -75 -56 -75 -51 0 6 9 26 21 45 l21 36 -24 9 c-14 5 -30 5 -41 -1
-10 -5 -25 -7 -33 -4 -26 10 -70 -21 -158 -109 -46 -47 -87 -85 -91 -85 -3 0
-3 9 0 20 12 38 -63 14 -142 -46 -25 -19 -52 -33 -60 -30 -8 3 -29 -2 -46 -11
-18 -9 -38 -16 -46 -14 -7 1 -28 -12 -47 -30 -30 -29 -32 -30 -27 -9 5 20 3
22 -19 17 l-26 -7 4 138 5 137 39 40 c24 24 40 50 40 64 0 16 23 45 72 92 61
59 69 70 58 84 -11 13 -9 20 11 41 20 21 21 27 9 34 -8 5 -18 10 -22 10 -18 0
-4 24 60 97 86 100 153 163 172 163 8 0 29 12 45 26 29 25 29 25 3 10 -15 -9
-34 -16 -42 -16 -22 0 -77 -51 -173 -159 -82 -92 -120 -147 -109 -158 3 -3 12
0 21 7 24 20 29 4 11 -34 -9 -19 -15 -39 -14 -44 2 -5 -26 -36 -61 -68 -48
-44 -63 -66 -63 -86 0 -16 -12 -37 -30 -54 l-29 -28 3 394 3 394 60 44 c110
79 224 152 239 152 7 0 -33 -78 -44 -85 -11 -7 -14 -45 -4 -45 3 0 33 16 65
35 33 19 70 35 81 35 34 0 146 81 151 110 3 14 2 30 -3 35 -16 20 -3 54 35 93
32 32 42 37 50 26 8 -11 18 -12 44 -4 46 13 60 0 56 -53 -1 -23 -6 -50 -10
-59 -16 -41 69 -2 233 106 73 49 84 62 57 72 -11 5 -5 13 22 31 30 20 41 23
55 14 27 -17 34 -15 131 46 51 31 122 73 158 93 37 20 76 44 88 52 25 17 81
20 81 3z m237 -677 c-3 -8 -6 -5 -6 6 -1 11 2 17 5 13 3 -3 4 -12 1 -19z m33
-139 c-16 -74 -37 -159 -45 -189 -8 -30 -27 -109 -41 -175 -36 -168 -47 -216
-94 -415 -23 -96 -52 -224 -66 -284 -13 -60 -25 -110 -27 -112 -1 -1 -24 -5
-50 -9 l-49 -8 4 29 c2 23 9 30 30 32 21 3 27 -1 30 -20 5 -31 20 23 107 382
138 574 225 922 228 913 2 -6 -10 -70 -27 -144z m47 99 c-3 -8 -6 -5 -6 6 -1
11 2 17 5 13 3 -3 4 -12 1 -19z m-90 -10 c-3 -8 -6 -5 -6 6 -1 11 2 17 5 13 3
-3 4 -12 1 -19z m80 -30 c-3 -8 -6 -5 -6 6 -1 11 2 17 5 13 3 -3 4 -12 1 -19z
m-112 -160 c-35 -204 -66 -349 -130 -613 -29 -121 -58 -244 -65 -273 -7 -29
-14 -51 -17 -49 -5 5 84 431 143 692 19 83 47 207 61 278 14 70 28 125 30 123
3 -2 -7 -73 -22 -158z m81 15 c-14 -65 -64 -299 -111 -520 -120 -569 -125
-587 -140 -571 -7 6 46 251 168 783 85 371 101 435 105 430 2 -2 -7 -57 -22
-122z m-122 -77 c-3 -21 -8 -35 -11 -32 -2 2 -1 20 3 40 3 21 8 35 11 32 2 -2
1 -20 -3 -40z m-20 -80 c-3 -15 -8 -25 -11 -23 -2 3 -1 17 3 31 3 15 8 25 11
23 2 -3 1 -17 -3 -31z m-55 -235 c-12 -50 -24 -89 -26 -87 -3 2 5 45 17 96 13
50 24 89 27 87 2 -3 -6 -45 -18 -96z m-48 -213 c-67 -325 -87 -412 -98 -415
-8 -3 -8 9 1 49 8 29 35 149 61 265 50 218 73 286 36 101z m251 29 c27 -29 51
-61 54 -72 12 -41 34 -82 53 -99 11 -10 17 -24 13 -30 -4 -6 -7 -29 -7 -51 0
-36 -3 -40 -24 -40 -19 0 -27 8 -36 35 -8 24 -18 35 -31 35 -15 0 -19 -8 -20
-35 0 -19 -1 -41 -2 -47 -3 -20 -20 -15 -27 8 -10 32 -39 19 -46 -21 -6 -32
-7 -33 -14 -12 -11 34 -41 24 -38 -13 1 -15 7 -31 13 -35 14 -9 29 -106 18
-122 -4 -7 -6 -24 -3 -38 4 -19 -4 -35 -34 -69 -37 -41 -39 -45 -23 -57 15
-12 14 -12 -7 -7 -17 4 -28 0 -41 -17 -12 -16 -23 -20 -38 -16 -23 8 -20 32 5
53 18 14 -4 18 -132 28 -81 6 -107 17 -89 35 9 9 48 7 269 -12 26 -3 30 1 33
23 3 23 -1 27 -32 33 -41 8 -41 7 -21 89 8 34 35 159 60 277 25 118 48 221 50
228 9 24 48 3 97 -51z m-274 -6 c-10 -47 -16 -57 -60 -88 -45 -33 -48 -38 -49
-81 0 -26 -4 -67 -8 -92 l-8 -45 -3 45 c-1 25 -1 65 0 90 1 42 -2 48 -39 78
-44 35 -55 64 -21 55 11 -3 20 -13 20 -22 0 -23 19 -41 36 -34 7 3 16 19 20
37 4 25 13 35 39 45 19 7 45 25 57 40 13 16 24 28 25 27 0 0 -4 -25 -9 -55z
m-625 24 c4 -8 2 -17 -3 -20 -13 -8 -39 -63 -32 -69 6 -7 64 28 118 71 45 36
56 41 48 18 -4 -9 -1 -15 7 -15 7 0 -2 -15 -20 -34 -19 -19 -34 -44 -35 -55 0
-11 -19 -33 -42 -49 -46 -34 -173 -112 -181 -112 -13 0 -173 -104 -193 -125
-13 -13 -23 -34 -24 -46 -2 -33 -86 -92 -120 -83 -17 4 -26 13 -26 25 0 25
-13 24 -66 -7 -24 -14 -44 -23 -44 -20 0 10 24 50 45 74 17 20 17 24 5 32 -21
14 -37 12 -71 -5 -16 -9 -33 -13 -38 -11 -5 3 -27 -8 -50 -24 -22 -17 -45 -30
-49 -30 -5 0 -19 -12 -33 -26 -13 -14 -50 -44 -81 -65 l-58 -40 0 111 c0 66 4
110 10 110 5 0 27 16 49 35 21 19 47 35 57 35 11 0 28 7 38 15 11 8 27 13 35
10 14 -4 42 11 122 66 38 27 69 33 69 14 0 -32 54 -4 111 59 57 61 142 130
151 120 3 -2 18 0 33 6 54 20 81 -16 39 -51 -17 -14 -18 -49 -1 -49 7 0 41 26
77 58 104 93 140 111 153 77z m591 -147 c-4 -37 -13 -84 -20 -110 -3 -10 -11
-15 -20 -11 -8 3 -14 -1 -14 -10 0 -9 8 -17 18 -19 15 -3 14 -6 -5 -16 -23
-13 -23 -12 -23 58 0 63 2 70 20 70 24 0 27 18 4 27 -12 4 -10 9 13 24 15 11
29 19 30 19 1 0 0 -15 -3 -32z m476 -146 c0 -15 -2 -15 -10 -2 -13 20 -13 33
0 25 6 -3 10 -14 10 -23z m-820 -12 c12 -12 24 -19 29 -16 22 14 68 -232 53
-284 -10 -33 -10 -34 -11 -7 -1 15 -8 41 -16 57 -8 16 -12 36 -9 44 3 9 2 16
-4 16 -18 0 -21 -29 -7 -64 19 -45 19 -66 1 -40 -14 18 -15 18 -26 -11 -6 -16
-9 -45 -6 -62 4 -26 1 -33 -11 -33 -12 0 -14 -7 -9 -30 5 -28 4 -30 -15 -19
-12 6 -34 9 -49 7 -25 -4 -28 -1 -33 32 -2 20 -1 72 4 116 4 43 8 85 8 92 1
11 4 10 16 -1 11 -11 12 -22 5 -48 -13 -43 -13 -62 0 -54 6 3 10 14 10 23 0
10 9 35 20 57 11 22 20 44 20 49 0 5 8 18 18 29 13 16 14 19 2 15 -8 -2 -19
-14 -25 -26 -12 -28 -45 -29 -45 -2 0 23 35 94 56 111 8 6 14 20 14 31 0 14
-6 19 -22 16 -19 -2 -24 -10 -26 -43 -4 -50 -17 -65 -26 -30 -7 29 18 82 43
88 9 3 17 5 19 6 1 0 11 -8 22 -19z m811 -83 c-6 -6 -11 -9 -12 -6 0 2 -2 20
-4 39 l-4 35 15 -29 c11 -20 13 -31 5 -39z m-71 22 c0 -6 -4 -7 -10 -4 -5 3
-10 11 -10 16 0 6 5 7 10 4 6 -3 10 -11 10 -16z m95 -57 c-8 -8 -25 10 -19 20
4 6 9 5 15 -3 4 -7 6 -15 4 -17z m-925 9 c0 -6 -4 -13 -10 -16 -5 -3 -10 1
-10 9 0 9 5 16 10 16 6 0 10 -4 10 -9z m945 -61 c3 -5 -1 -10 -9 -10 -9 0 -16
5 -16 10 0 6 4 10 9 10 6 0 13 -4 16 -10z m-567 -85 c6 -3 12 -9 12 -15 0 -12
-109 -13 -129 -1 -7 5 -10 14 -7 20 7 10 85 7 124 -4z m120 -12 c-2 -13 -15
-19 -46 -21 -37 -3 -42 -1 -42 17 0 18 6 21 46 21 38 0 45 -3 42 -17z m67 -18
c0 -5 -10 -11 -22 -13 -16 -2 -23 2 -23 13 0 11 7 15 23 13 12 -2 22 -7 22
-13z m-370 -75 c3 -5 -6 -19 -20 -32 -14 -12 -25 -28 -25 -35 0 -7 -5 -13 -11
-13 -14 0 0 43 17 53 8 4 14 15 14 22 0 17 16 20 25 5z m248 -12 c7 -23 -4
-38 -29 -38 -25 0 -28 7 -18 34 7 19 40 21 47 4z m-86 -30 c-3 -8 -6 -5 -6 6
-1 11 2 17 5 13 3 -3 4 -12 1 -19z m-492 -33 c0 -25 -4 -30 -24 -30 -32 0 -49
28 -31 50 7 9 23 15 34 13 16 -2 21 -10 21 -33z m335 25 c0 -5 -4 -10 -10 -10
-5 0 -10 5 -10 10 0 6 5 10 10 10 6 0 10 -4 10 -10z m410 -24 c14 -26 14 -29
-8 -44 -13 -9 -43 -34 -68 -54 -46 -39 -61 -47 -48 -26 5 8 0 9 -15 5 -19 -5
-20 -3 -9 11 11 14 10 15 -7 8 -11 -5 -29 -10 -40 -12 -17 -4 -17 -3 3 7 12 7
22 16 22 21 0 12 -5 10 -45 -13 -49 -29 -54 -18 -8 17 60 44 68 64 29 64 -14
0 -28 -4 -31 -10 -3 -5 -12 -10 -18 -10 -7 0 1 12 17 26 27 24 35 26 91 20 46
-5 66 -2 80 9 26 19 37 15 55 -19z m-434 -40 c-9 -19 -28 -78 -42 -132 -14
-54 -27 -100 -29 -102 -2 -2 -6 10 -10 27 -8 36 -31 40 -88 16 -51 -21 -55
-19 -21 16 16 16 34 47 39 67 6 22 20 41 35 49 13 6 30 23 37 37 12 23 83 69
92 60 2 -2 -4 -19 -13 -38z m-1164 -22 c-12 -8 -22 -20 -22 -26 0 -5 -18 -32
-40 -58 -53 -64 -51 -78 7 -46 34 20 48 23 54 14 8 -13 32 -4 77 28 18 14 21
14 17 2 -7 -17 11 -34 39 -39 29 -6 32 -29 4 -29 -26 0 -68 -33 -68 -53 -1
-34 -16 -40 -69 -26 -28 7 -51 16 -51 21 0 4 -13 8 -29 8 -29 0 -29 1 -33 63
-1 34 -2 72 0 84 3 21 76 78 90 69 5 -3 14 -1 22 4 24 15 25 1 2 -16z m1363
-3 c-3 -6 -11 -11 -17 -11 -6 0 -6 6 2 15 14 17 26 13 15 -4z m252 -3 c-3 -8
-6 -5 -6 6 -1 11 2 17 5 13 3 -3 4 -12 1 -19z m-767 -16 c0 -9 -5 -24 -10 -32
-7 -11 -10 -5 -10 23 0 23 4 36 10 32 6 -3 10 -14 10 -23z m-646 -8 c4 -15 5
-29 1 -32 -3 -3 -5 0 -5 6 0 19 -18 14 -23 -5 -4 -14 -5 -13 -6 4 -1 16 -5 21
-17 16 -14 -5 -14 -3 -3 16 19 29 45 27 53 -5z m685 -130 c-7 -9 -8 -14 -1
-14 11 0 10 -25 -2 -37 -12 -13 -36 28 -36 62 0 43 11 51 33 24 13 -16 15 -25
6 -35z m838 34 c-3 -8 -6 -5 -6 6 -1 11 2 17 5 13 3 -3 4 -12 1 -19z m-1523
-2 c-10 -8 -21 -12 -24 -10 -5 6 21 24 34 24 6 0 1 -6 -10 -14z m468 2 c-7 -7
-12 -25 -12 -40 0 -34 17 -36 62 -8 43 26 46 26 50 -12 3 -28 7 -33 30 -33 46
-1 42 -12 -14 -33 -47 -18 -53 -23 -51 -47 2 -25 0 -26 -30 -20 -18 4 -39 13
-48 21 -8 8 -23 14 -32 14 -9 0 -19 5 -22 11 -5 7 -34 8 -90 4 l-82 -7 -7 28
c-8 30 1 41 59 71 28 15 29 15 16 -1 -8 -9 -12 -19 -9 -21 8 -9 107 33 140 59
33 26 62 36 40 14z m-294 -26 c12 -18 12 -22 2 -20 -11 2 -13 -13 -11 -72 1
-41 -2 -86 -8 -100 -9 -23 -10 -21 -10 18 -1 23 -5 42 -11 42 -5 0 -10 9 -10
19 0 11 -4 23 -10 26 -5 3 -10 22 -10 41 0 22 4 33 11 29 6 -4 8 -13 5 -21 -3
-8 0 -14 6 -14 7 0 9 14 5 41 -4 33 -2 40 10 37 9 -2 22 -13 31 -26z m-120 0
c2 -7 -4 -12 -13 -12 -11 0 -15 -6 -11 -17 2 -10 6 -61 8 -113 l3 -95 -52 -2
c-58 -2 -54 -7 -74 92 -7 33 -16 64 -21 70 -15 17 -8 45 15 54 44 18 122 40
131 37 6 -1 12 -8 14 -14z m544 -12 c-6 -44 -22 -47 -22 -6 0 23 5 36 13 36 9
0 12 -10 9 -30z m36 -36 c-4 -3 -12 5 -18 18 -12 22 -12 22 6 6 10 -10 15 -20
12 -24z m232 12 c0 -26 -30 -41 -155 -79 -27 -8 -72 -25 -99 -37 -33 -15 -51
-19 -58 -12 -18 18 -1 39 39 52 21 7 56 21 78 31 41 18 174 67 188 68 4 1 7
-10 7 -23z m-763 -91 c7 -13 8 -43 2 -88 -10 -79 -13 -87 -41 -87 -16 0 -19 5
-14 23 3 12 11 72 18 132 9 84 14 102 18 75 4 -19 11 -44 17 -55z m778 -2 l-1
-48 -41 1 c-48 1 -63 9 -63 34 0 22 51 52 101 59 3 1 5 -20 4 -46z m42 25 c-3
-8 -6 -5 -6 6 -1 11 2 17 5 13 3 -3 4 -12 1 -19z m622 -72 c2 -45 -6 -27 -12
29 -4 34 -3 42 3 25 4 -14 8 -38 9 -54z m-1641 -69 c-2 -43 -7 -54 -25 -62
-27 -12 -29 -22 -5 -28 16 -4 16 -5 -2 -12 -26 -11 -52 8 -48 35 1 16 -2 21
-13 16 -10 -4 -15 1 -15 14 0 11 6 20 14 20 15 0 29 41 21 63 -3 7 2 20 11 28
16 13 17 11 11 -16 -4 -16 -9 -40 -13 -52 -4 -14 -2 -23 5 -23 6 0 11 5 11 11
0 6 7 36 17 67 l16 57 9 -33 c5 -19 8 -57 6 -85z m500 104 c9 -5 25 -12 35
-15 38 -12 15 -26 -43 -26 -62 0 -80 13 -35 24 14 4 23 11 20 16 -8 13 0 13
23 1z m362 -26 c0 -15 -27 -30 -66 -37 -31 -5 -29 29 3 40 41 15 63 14 63 -3z
m-559 -12 c5 -65 4 -105 -3 -109 -4 -3 -8 11 -8 30 0 20 -4 36 -10 36 -5 0
-10 -15 -10 -32 0 -18 -7 -42 -15 -52 -13 -17 -13 -22 1 -38 15 -16 15 -18 1
-23 -20 -8 -29 -57 -15 -95 9 -27 8 -35 -10 -52 -19 -20 -42 -18 -42 3 0 6 4
8 8 5 7 -4 17 56 38 228 3 25 13 47 30 61 16 14 23 27 18 38 -3 10 -1 17 5 17
6 0 12 -8 12 -17z m690 -30 c-12 -20 -14 -14 -5 12 4 9 9 14 11 11 3 -2 0 -13
-6 -23z m-1113 7 c14 0 7 -45 -10 -67 -7 -8 -3 -23 11 -46 15 -24 17 -37 10
-44 -8 -8 -1 -11 26 -10 48 1 56 -15 37 -72 -25 -76 -27 -140 -6 -156 17 -12
17 -14 3 -20 -9 -3 -49 -5 -90 -3 l-74 3 -1 113 c-1 62 -4 116 -8 119 -3 3 -3
10 1 16 3 6 5 37 4 69 -2 47 1 58 13 58 9 0 16 5 16 10 0 6 -10 10 -22 10 -13
0 -18 4 -12 9 13 13 45 20 69 15 11 -2 26 -4 33 -4z m745 -6 c12 -12 -16 -53
-44 -64 -35 -15 -37 -21 -44 -143 -3 -54 -8 -109 -11 -122 -3 -13 1 -38 9 -55
l15 -30 -184 0 c-116 0 -184 4 -184 10 0 6 5 10 10 10 6 0 10 12 10 26 0 17 6
28 19 31 10 3 27 19 36 37 14 26 15 37 6 55 -13 24 -7 57 17 84 8 9 12 17 8
17 -3 0 1 11 10 25 12 18 22 24 35 20 11 -4 19 -2 19 4 0 6 -7 11 -15 11 -8 0
-15 5 -15 10 0 6 11 10 25 10 14 0 25 5 25 10 0 6 -9 10 -19 10 -23 0 -35 15
-27 35 4 12 33 15 149 15 79 0 146 -3 150 -6z m81 -9 c-7 -18 26 -21 44 -3 13
13 14 10 32 -62 6 -25 13 -53 16 -62 4 -12 0 -18 -10 -18 -9 0 -16 -4 -16 -9
0 -5 7 -8 17 -7 12 1 19 -14 29 -54 17 -71 17 -68 -8 -73 -20 -4 -19 -4 5 -6
20 -1 27 -6 27 -20 0 -11 -8 -22 -17 -24 -14 -4 -13 -5 3 -6 15 -1 24 -10 28
-26 9 -34 1 -45 -32 -44 -24 0 -25 1 -7 9 19 8 19 9 -2 9 -13 1 -23 -3 -23 -9
0 -14 -27 -13 -32 1 -3 8 -14 8 -38 2 -46 -12 -75 -6 -60 12 6 7 18 12 28 10
9 -1 11 0 5 2 -20 7 -16 43 5 44 13 0 12 2 -5 9 -27 11 -30 27 -5 33 13 4 12
5 -5 6 -17 1 -23 9 -28 41 -8 45 2 72 17 46 10 -17 38 -22 38 -6 0 6 -4 10 -8
10 -4 0 -9 17 -10 38 -5 114 -8 135 -25 146 -20 15 -12 26 19 26 17 0 22 -4
18 -15z m146 5 c-8 -5 -19 -10 -25 -10 -5 0 -3 5 5 10 8 5 20 10 25 10 6 0 3
-5 -5 -10z m116 -12 c-3 -13 -9 -42 -12 -65 -5 -35 -11 -43 -28 -44 -20 -1
-20 -1 2 -7 13 -4 23 -11 23 -17 -2 -33 -15 -76 -24 -82 -7 -4 -8 5 -4 25 4
18 2 32 -3 32 -5 0 -11 9 -14 20 -3 11 -9 29 -12 40 -4 16 0 20 18 21 l23 2
-22 4 c-15 3 -26 15 -31 36 -12 42 1 57 50 57 37 0 40 -2 34 -22z m-97 -45 c5
-21 38 -159 71 -308 136 -597 162 -714 158 -727 -4 -11 -25 75 -154 622 -40
173 -81 340 -89 370 -17 63 -19 80 -5 80 5 0 14 -17 19 -37z m-652 5 c-3 -8
-6 -5 -6 6 -1 11 2 17 5 13 3 -3 4 -12 1 -19z m608 -10 c4 -18 15 -62 26 -98
52 -173 220 -938 208 -945 -10 -7 -7 -16 -115 435 -47 201 -101 425 -119 497
-18 73 -30 135 -27 138 12 12 21 3 27 -27z m-703 -15 c-2 -14 4 -23 18 -28 11
-3 20 -15 20 -25 0 -13 -5 -17 -14 -14 -17 6 -22 -2 -47 -69 l-18 -52 -1 40
c0 22 -5 47 -10 55 -7 10 -10 -7 -10 -57 0 -42 4 -73 10 -73 6 0 10 -4 10 -10
0 -5 -7 -10 -15 -10 -17 0 -35 -30 -35 -62 -1 -23 -1 -23 -16 -3 -11 14 -14
34 -11 70 6 62 24 141 38 168 8 14 8 22 -2 28 -10 6 -10 11 -1 22 7 7 9 17 5
21 -11 11 12 21 49 21 28 0 33 -3 30 -22z m855 -5 c-3 -8 -6 -5 -6 6 -1 11 2
17 5 13 3 -3 4 -12 1 -19z m-317 -7 c19 -37 29 -71 21 -71 -5 0 -14 14 -21 30
-16 40 -25 30 -21 -24 3 -51 -17 -75 -40 -48 -12 14 -16 58 -9 85 2 4 3 10 4
15 7 35 49 43 66 13z m-447 -54 c-3 -20 -9 -37 -12 -37 -9 0 -13 68 -5 81 12
21 23 -7 17 -44z m1677 -6 c0 -11 -8 -25 -17 -30 -17 -10 -17 -10 0 -11 10 0
17 -8 17 -20 0 -16 -6 -20 -27 -18 -54 3 -94 -2 -88 -12 4 -6 28 -7 61 -4 l54
7 0 -42 c0 -32 -4 -41 -17 -42 -17 -1 -17 -2 0 -6 24 -6 24 -63 0 -63 -15 0
-14 -2 3 -15 17 -13 8 -14 -94 -15 l-113 0 -19 46 c-26 60 -26 62 13 60 22 -1
32 4 33 14 1 32 34 78 65 89 17 6 35 9 39 6 5 -3 16 -2 25 1 12 5 13 9 5 14
-8 5 -9 13 -2 26 6 11 14 32 17 48 l6 29 20 -21 c10 -12 19 -30 19 -41z
m-1880 12 c0 -22 -17 -50 -24 -42 -5 5 15 59 22 59 1 0 2 -8 2 -17z m161 -109
c-6 -24 -11 -61 -11 -83 0 -62 -19 -94 -34 -55 -8 20 21 190 37 218 11 20 12
20 15 -8 2 -16 -1 -48 -7 -72z m839 61 c28 -39 54 -55 93 -59 15 -2 30 -6 33
-8 9 -9 -8 -38 -22 -38 -17 0 -18 -36 -1 -110 16 -69 11 -106 -13 -113 -36 -9
-109 5 -114 22 -19 65 -38 163 -37 196 1 51 20 145 29 145 4 0 18 -16 32 -35z
m-1028 -47 c-6 -18 -14 -54 -18 -80 -6 -45 -24 -68 -24 -32 0 26 41 157 47
151 3 -3 0 -21 -5 -39z m129 -78 c-9 -24 -10 -24 -10 7 -1 17 2 40 7 50 6 15
7 14 10 -7 2 -14 -2 -37 -7 -50z m539 -11 c10 -41 10 -53 0 -59 -18 -11 -40
-1 -40 19 0 9 -5 22 -11 28 -14 14 -4 47 11 38 6 -4 7 -11 4 -17 -5 -7 -2 -8
5 -3 7 4 11 18 8 31 -8 45 11 14 23 -37z m614 22 c41 -26 35 -25 83 -6 23 9
48 15 55 12 8 -4 7 -6 -4 -6 -10 -1 -18 -5 -18 -11 0 -5 -9 -10 -21 -10 -11 0
-17 -4 -14 -10 3 -5 17 -10 30 -10 13 0 27 5 30 10 3 6 10 10 14 10 12 0 31
-47 31 -75 l0 -25 -150 0 -150 0 -10 26 c-14 35 -13 67 2 58 7 -4 8 -3 4 4 -4
6 -2 21 4 32 14 26 72 27 114 1z m234 -39 c12 -27 22 -56 22 -65 0 -9 5 -17
11 -17 16 0 3 74 -18 107 l-17 26 29 -7 c17 -4 37 -13 45 -20 8 -8 20 -12 25
-10 19 7 49 -89 53 -173 l5 -83 -34 0 c-103 0 -141 38 -144 144 -1 44 -8 83
-18 103 -16 30 -13 38 14 42 3 1 15 -21 27 -47z m-1508 -42 c0 -5 -4 -10 -10
-10 -5 0 -10 5 -10 10 0 6 5 10 10 10 6 0 10 -4 10 -10z m73 -5 c-3 -9 -8 -14
-10 -11 -3 3 -2 9 2 15 9 16 15 13 8 -4z m37 -5 c0 -5 -5 -10 -11 -10 -5 0 -7
5 -4 10 3 6 8 10 11 10 2 0 4 -4 4 -10z m522 -42 c-9 -9 -12 -7 -12 12 0 19 3
21 12 12 9 -9 9 -15 0 -24z m-689 6 c43 -4 77 -11 77 -15 0 -12 -217 -12 -224
0 -14 22 18 25 147 15z m156 -15 c26 -29 34 -80 13 -97 -25 -19 -36 -10 -55
48 -14 43 -15 55 -5 61 19 13 25 11 47 -12z m71 -3 c0 -51 -23 -75 -33 -33 -2
12 -8 30 -12 40 -6 14 -2 17 19 17 21 0 26 -5 26 -24z m395 4 c-8 -13 -345
-13 -365 0 -10 6 50 10 178 10 126 0 191 -3 187 -10z m313 -7 c4 -15 -56 -17
-157 -7 -99 11 -70 25 46 22 74 -2 108 -7 111 -15z m560 11 c56 -15 10 -24
-127 -24 -136 0 -172 5 -154 24 8 8 250 8 281 0z m460 -11 c3 -10 -23 -13
-107 -13 -93 0 -111 2 -111 15 0 13 16 15 107 13 74 -2 108 -7 111 -15z
m-1858 -59 c11 -25 20 -53 20 -62 0 -9 7 -26 15 -36 8 -11 15 -32 15 -47 0
-23 -6 -30 -36 -39 -47 -16 -32 -32 44 -46 l57 -10 -30 -16 c-28 -15 -33 -14
-92 10 -37 15 -63 32 -66 43 -8 29 -53 42 -86 25 -47 -25 -56 -42 -37 -71 9
-14 23 -25 31 -25 8 0 32 -16 53 -34 l38 -35 127 64 c70 35 129 60 131 56 2
-3 -66 -42 -152 -86 -86 -43 -169 -87 -184 -97 -30 -20 -38 -22 -38 -8 0 5 22
21 50 35 27 14 50 28 50 30 0 3 -27 -8 -60 -25 -61 -31 -72 -48 -44 -71 13
-11 26 -8 80 19 80 40 107 36 232 -36 48 -27 120 -67 159 -88 40 -22 73 -42
73 -46 0 -10 -587 -10 -594 0 -6 10 -8 137 -7 415 l1 227 115 0 116 0 19 -46z
m528 -9 c4 -46 14 -55 64 -55 45 0 59 18 30 38 -12 8 -22 25 -22 38 0 24 0 24
124 24 141 0 140 1 122 -78 -7 -31 -6 -49 2 -63 27 -42 16 -57 -46 -64 l-59
-7 2 -34 c1 -39 -5 -42 -31 -13 -18 20 -18 21 1 35 19 14 15 17 -21 15 -14 -1
-37 15 -65 43 -46 48 -77 57 -103 30 -21 -21 -20 -27 10 -64 15 -17 23 -34 20
-38 -4 -3 -47 -7 -95 -7 -99 -1 -121 -11 -121 -55 0 -38 22 -54 62 -46 18 4
80 12 137 17 l104 10 50 -56 c47 -53 52 -56 86 -51 l36 7 -31 -30 c-22 -20
-47 -31 -80 -36 -84 -12 -152 -55 -107 -69 21 -6 153 -9 278 -6 97 2 115 -7
115 -57 l0 -23 -201 0 -202 0 -171 94 c-335 183 -336 184 -246 226 52 24 63
47 35 70 -13 11 -22 10 -50 -3 -29 -14 -35 -14 -35 -3 0 8 -3 22 -6 30 -4 12
4 20 30 31 40 17 46 31 16 40 -18 6 -19 14 -17 81 l2 74 190 -2 190 -3 3 -40z
m78 -25 c8 0 14 -4 14 -10 0 -5 -11 -10 -25 -10 -22 0 -25 4 -25 38 0 51 14
64 18 18 2 -23 8 -36 18 -36z m815 49 c5 -8 9 -39 9 -70 l0 -56 -158 -13 c-87
-7 -163 -11 -170 -9 -8 3 -5 17 8 48 23 49 26 101 8 102 -7 1 -3 4 10 7 13 4
82 6 154 6 99 -1 132 -5 139 -15z m402 15 c37 -7 37 -7 37 -55 0 -45 -2 -49
-23 -49 -13 0 -58 -3 -99 -6 l-75 -7 -11 46 c-19 72 -27 66 108 75 14 1 42 -1
63 -4z m-1276 -66 c-3 -8 -6 -5 -6 6 -1 11 2 17 5 13 3 -3 4 -12 1 -19z m-448
-92 l1 -94 -42 10 c-54 12 -56 15 -19 23 29 6 30 8 28 60 -1 39 -6 55 -17 58
-10 2 -5 9 15 20 17 9 30 16 31 17 1 0 2 -42 3 -94z m995 74 c-3 -8 -8 -28
-11 -44 -6 -27 -8 -28 -51 -22 -25 3 -46 7 -48 9 -1 1 -5 19 -9 39 l-7 37 66
-2 c54 -2 65 -5 60 -17z m479 -44 c23 0 48 2 56 4 10 3 17 -6 21 -27 6 -27 4
-35 -16 -48 -41 -26 -129 -16 -140 17 -3 11 -12 17 -19 14 -16 -6 -25 14 -25
54 l0 27 40 -20 c23 -11 60 -20 83 -21z m-706 12 c-3 -8 -6 -5 -6 6 -1 11 2
17 5 13 3 -3 4 -12 1 -19z m-741 -13 c-2 -7 1 -18 7 -24 8 -8 8 -14 -1 -23 -7
-7 -12 -10 -13 -7 -9 55 -8 80 1 74 6 -4 9 -13 6 -20z m1621 -1 c-3 -3 -12 -4
-19 -1 -8 3 -5 6 6 6 11 1 17 -2 13 -5z m56 -1 c-7 -2 -21 -2 -30 0 -10 3 -4
5 12 5 17 0 24 -2 18 -5z m-1111 -125 c104 -104 120 -123 101 -126 -16 -2 -38
14 -86 65 -119 127 -164 183 -149 183 6 0 66 -55 134 -122z m1080 109 l85 9 2
-58 c1 -44 -2 -58 -12 -58 -8 0 -36 -3 -63 -6 -51 -7 -54 10 -4 19 18 3 14 5
-13 6 -21 0 -36 5 -32 11 3 5 12 7 20 3 8 -3 15 0 15 6 0 6 7 8 15 5 8 -4 15
-1 15 5 0 8 -15 11 -42 8 -35 -3 -44 -8 -46 -25 -2 -14 -11 -22 -22 -22 -30 0
-33 -19 -5 -26 29 -7 34 -24 6 -24 -28 0 -37 -20 -12 -27 21 -5 30 -23 11 -23
-5 0 -10 -10 -10 -22 1 -22 1 -23 15 -4 15 19 15 19 16 -5 1 -13 0 -34 -1 -46
-1 -15 4 -23 13 -23 11 0 15 10 15 33 -1 58 -2 57 62 57 l61 0 -3 -138 -3
-137 -50 -2 c-39 -1 -43 0 -20 6 28 6 30 10 28 46 -3 43 -26 73 -77 100 -42
23 -61 55 -74 125 -27 143 -22 159 49 170 l44 7 -42 2 c-38 1 -43 4 -43 24 0
16 3 18 9 9 7 -11 26 -12 93 -5z m-1172 -79 c0 -15 -18 0 -41 35 l-22 32 31
-29 c18 -17 32 -34 32 -38z m435 47 c12 -3 12 -11 -2 -52 l-17 -48 -13 50
c-16 63 -16 65 2 60 8 -3 22 -7 30 -10z m245 -1 c-107 -12 -224 -17 -190 -8
26 7 193 21 250 21 36 0 15 -4 -60 -13z m121 -26 c-53 -8 -317 -38 -337 -38
-7 0 -11 6 -8 13 3 10 57 19 182 31 97 9 181 22 187 27 6 6 12 3 16 -8 5 -15
-1 -19 -40 -25z m-467 -149 c20 -85 36 -159 36 -163 0 -5 -12 -6 -27 -3 -16 3
-66 0 -113 -7 -86 -13 -224 -10 -215 4 3 4 39 16 80 25 48 10 85 25 101 40 14
13 34 29 45 37 22 15 39 92 39 181 0 37 4 57 9 52 5 -6 25 -80 45 -166z m-74
141 c0 -5 -9 -10 -19 -10 -11 0 -26 -3 -35 -6 -9 -3 -16 -1 -16 4 0 9 20 17
58 21 6 0 12 -3 12 -9z m623 -27 c3 -16 10 -48 16 -73 6 -25 10 -74 11 -108 0
-56 3 -67 28 -92 15 -15 37 -41 50 -58 12 -17 41 -37 65 -45 39 -14 22 -15
-254 -16 l-296 -1 -34 133 c-21 83 -32 150 -30 182 1 27 3 51 5 52 4 4 224 32
311 39 44 4 87 10 95 14 20 11 27 5 33 -27z m-1590 13 c9 -7 17 -18 17 -25 0
-12 80 -51 108 -52 10 0 3 -7 -16 -17 -21 -10 -36 -13 -40 -6 -18 24 -65 45
-91 39 -20 -4 -32 0 -45 14 -17 19 -17 20 3 40 24 24 39 26 64 7z m1693 -6
l32 0 12 -87 c14 -101 40 -149 96 -179 28 -15 74 -75 74 -96 0 -2 -28 -3 -62
-2 -75 2 -126 28 -157 80 -11 19 -28 34 -37 34 -14 0 -16 8 -10 58 4 38 1 76
-9 112 -21 79 -20 94 8 86 12 -3 36 -6 53 -6z m-951 -30 c10 -11 14 -20 9 -20
-5 0 -15 9 -22 20 -7 11 -11 20 -9 20 2 0 12 -9 22 -20z m225 4 c0 -11 -8 -14
-27 -12 -39 4 -42 28 -4 28 21 0 31 -5 31 -16z m-425 -22 c3 -8 -1 -22 -9 -31
-20 -19 -66 0 -66 28 0 32 63 35 75 3z m164 14 c8 -10 9 -16 1 -21 -5 -3 -10
-1 -10 6 0 9 -18 10 -65 6 -36 -4 -65 -2 -65 3 0 21 123 26 139 6z m1261 -21
c0 -24 -2 -25 -67 -23 -65 1 -66 1 -23 8 l45 7 -37 1 c-21 1 -38 6 -38 11 0 9
27 14 98 19 17 2 22 -3 22 -23z m-1006 -47 c-7 -53 -24 -90 -24 -52 0 11 -16
36 -36 55 l-35 34 38 6 c21 3 44 7 51 8 10 1 11 -12 6 -51z m-147 0 c37 -36
48 -75 12 -42 -28 25 -63 74 -53 74 5 0 23 -14 41 -32z m1143 2 c0 -5 -25 -10
-55 -10 -30 0 -55 5 -55 10 0 6 25 10 55 10 30 0 55 -4 55 -10z m-1757 -25 c1
-5 -19 -21 -45 -33 -40 -20 -49 -22 -62 -10 -12 11 -9 16 22 36 37 22 81 26
85 7z m252 -164 c202 -114 196 -110 167 -110 -27 -1 -54 12 -227 111 -193 111
-205 119 -199 129 6 11 49 -11 259 -130z m-171 46 c61 -35 147 -83 191 -108
49 -27 73 -45 63 -47 -9 -2 -63 22 -120 54 -57 31 -128 71 -158 87 -91 50
-110 63 -103 70 10 11 9 11 127 -56z m1563 -153 c-3 -3 -12 -4 -19 -1 -8 3 -5
6 6 6 11 1 17 -2 13 -5z"/>
<path d="M980 3759 c-25 -3 -34 -7 -20 -7 19 -2 31 -13 48 -44 27 -53 27 -56
0 -61 -13 -2 10 -5 50 -6 42 0 72 3 72 9 0 6 -11 10 -25 10 l-24 0 18 43 c12
28 25 43 39 45 12 2 22 8 22 13 0 10 -98 9 -180 -2z m110 -13 c0 -15 -24 -66
-31 -66 -9 0 -29 42 -29 61 0 5 14 9 30 9 17 0 30 -2 30 -4z"/>
<path d="M2106 3502 c-3 -5 -37 -21 -77 -37 -40 -16 -74 -36 -76 -45 -2 -9
-42 -38 -89 -65 -46 -28 -84 -55 -84 -60 0 -6 -36 -35 -80 -65 -147 -100 -166
-115 -226 -167 -63 -55 -67 -72 -10 -53 23 7 41 8 52 2 14 -8 2 -21 -71 -76
-48 -36 -98 -66 -110 -66 -12 0 -41 -13 -63 -30 -53 -38 -69 -38 -42 -1 13 19
17 32 10 36 -16 10 -68 -27 -194 -136 -23 -19 -61 -51 -85 -69 l-45 -35 20 35
c22 40 42 59 101 97 46 30 56 53 24 53 -23 0 -37 -16 -19 -22 6 -2 -23 -30
-66 -62 -42 -32 -75 -64 -72 -71 2 -7 -4 -19 -15 -28 -20 -17 -25 -37 -10 -37
5 0 50 33 100 73 51 39 106 82 122 94 17 12 48 38 70 57 21 20 45 36 52 36 6
-1 1 -10 -13 -21 -14 -12 -26 -32 -27 -45 -2 -24 -1 -24 29 -8 17 9 49 29 71
45 22 16 49 29 61 29 21 0 139 82 204 140 45 41 43 60 -5 53 -21 -3 -46 -10
-55 -15 -33 -16 -18 7 25 39 141 109 236 174 262 181 17 5 35 19 42 34 7 14
50 48 98 77 46 29 87 57 90 62 4 5 28 18 55 30 48 21 84 49 62 49 -6 0 -13 -4
-16 -8z m-1186 -866 c0 -2 -7 -7 -16 -10 -8 -3 -12 -2 -9 4 6 10 25 14 25 6z"/>
<path d="M627 2949 c-48 -25 -43 -35 6 -14 44 18 44 18 51 0 3 -9 -15 -33 -49
-66 -84 -79 -88 -121 -8 -79 33 18 47 22 50 13 7 -20 25 -15 82 22 58 38 73
43 65 20 -4 -8 -3 -15 2 -15 4 0 61 23 126 51 66 27 124 49 130 47 7 -3 -6
-17 -27 -34 -21 -16 -52 -42 -69 -57 -27 -25 -28 -27 -8 -22 17 5 22 2 22 -12
0 -15 4 -14 20 7 11 14 20 32 20 40 0 8 18 32 40 54 22 21 40 43 40 47 0 12
-26 11 -48 0 -9 -5 -37 -18 -62 -29 -25 -11 -71 -32 -104 -46 -32 -14 -60 -26
-61 -26 -2 0 -1 9 2 20 5 18 3 19 -20 11 -14 -6 -45 -24 -68 -41 -43 -30 -69
-38 -69 -20 0 17 -24 11 -63 -15 -59 -41 -44 -8 30 67 64 65 66 68 48 83 -26
19 -32 18 -78 -6z"/>
<path d="M1423 2732 c-56 -16 -66 -27 -32 -37 13 -4 27 -1 38 9 30 27 47 19
42 -21 -1 -8 5 -10 14 -7 10 4 15 0 15 -10 0 -9 5 -16 11 -16 7 0 18 -8 25
-17 7 -10 14 -13 14 -6 0 6 14 14 30 18 17 4 30 11 30 15 0 5 -8 6 -17 3 -17
-7 -17 -6 0 20 9 14 17 28 17 31 0 2 -19 2 -41 0 -36 -5 -41 -3 -35 12 5 13 2
15 -16 11 -12 -4 -27 -3 -32 2 -6 4 -35 1 -63 -7z"/>
<path d="M1304 2706 c-10 -8 -15 -18 -11 -22 4 -4 15 0 24 9 22 21 12 31 -13
13z"/>
<path d="M1321 2681 c-27 -37 -27 -64 0 -31 30 38 41 60 30 60 -5 0 -19 -13
-30 -29z"/>
<path d="M1342 2658 c-14 -14 -16 -28 -3 -28 9 0 24 30 18 36 -2 2 -9 -2 -15
-8z"/>
<path d="M1375 2637 c-8 -17 -15 -34 -15 -39 0 -13 26 -9 59 10 33 18 39 36
19 48 -27 17 -49 10 -63 -19z"/>
<path d="M1610 2643 c-14 -3 -29 -9 -34 -14 -17 -15 38 -10 60 6 20 15 17 16
-26 8z"/>
<path d="M1605 2605 c-23 -11 -25 -14 -10 -14 11 0 29 6 39 14 24 18 11 18
-29 0z"/>
<path d="M1404 2585 c-10 -8 -14 -15 -8 -15 5 0 19 7 30 15 10 8 14 15 8 15
-5 0 -19 -7 -30 -15z"/>
<path d="M1450 2576 c-6 -8 -17 -13 -24 -10 -7 3 -18 -2 -25 -10 -10 -12 -9
-17 7 -25 11 -6 18 -19 17 -33 -3 -33 3 -40 26 -28 21 12 28 80 8 80 -5 0 -7
-4 -4 -10 3 -5 -2 -10 -11 -10 -14 0 -12 6 11 30 16 17 24 30 18 30 -6 0 -16
-6 -23 -14z"/>
<path d="M1495 2569 c-11 -17 -2 -18 19 -3 17 12 17 14 4 14 -9 0 -20 -5 -23
-11z"/>
<path d="M1587 2573 c-15 -14 -6 -24 20 -21 34 4 43 28 11 28 -14 0 -28 -3
-31 -7z"/>
<path d="M2064 2557 c-11 -12 -32 -31 -47 -42 -15 -11 -29 -31 -30 -44 -1 -17
-20 -38 -64 -69 -35 -25 -63 -49 -63 -54 0 -12 6 -10 51 12 22 12 43 19 47 17
4 -3 18 0 32 6 33 13 91 16 83 4 -3 -5 0 -13 7 -17 10 -6 5 -16 -18 -40 -51
-51 -41 -64 24 -33 30 15 51 29 45 31 -5 2 -20 -2 -31 -8 -33 -18 -36 -3 -6
27 17 17 23 30 17 36 -5 5 -7 16 -4 24 4 11 -4 13 -38 9 -53 -5 -106 -19 -139
-35 l-25 -12 22 18 c11 10 37 31 57 46 27 21 35 34 31 47 -4 14 2 24 22 37 39
24 75 63 59 63 -7 0 -21 -10 -32 -23z"/>
<path d="M1511 2545 c-28 -16 -37 -48 -18 -64 10 -8 22 -2 47 24 31 32 31 34
9 29 -23 -5 -23 -5 -5 10 25 20 2 20 -33 1z"/>
<path d="M1590 2461 c0 -5 9 -7 20 -4 11 3 20 7 20 9 0 2 -9 4 -20 4 -11 0
-20 -4 -20 -9z"/>
<path d="M1440 2415 c0 -8 5 -15 10 -15 6 0 10 7 10 15 0 8 -4 15 -10 15 -5 0
-10 -7 -10 -15z"/>
<path d="M1326 2285 c4 -8 10 -15 15 -15 4 0 6 7 3 15 -4 8 -10 15 -15 15 -4
0 -6 -7 -3 -15z"/>
<path d="M1330 2249 c0 -5 5 -7 10 -4 6 3 10 8 10 11 0 2 -4 4 -10 4 -5 0 -10
-5 -10 -11z"/>
<path d="M1418 2053 c7 -3 16 -2 19 1 4 3 -2 6 -13 5 -11 0 -14 -3 -6 -6z"/>
<path d="M1900 1873 c0 -3 11 -18 25 -34 33 -40 43 -94 20 -119 -9 -10 -14
-23 -11 -28 3 -6 -5 -21 -19 -33 -13 -13 -25 -31 -25 -39 0 -9 -6 -22 -12 -29
-11 -11 -10 -13 4 -8 10 3 20 2 23 -3 4 -6 11 -10 17 -10 6 0 4 8 -4 18 -18
19 -11 49 16 71 9 7 16 19 16 26 0 7 7 26 15 41 20 40 19 77 -5 104 -11 13
-20 26 -20 30 0 4 -9 10 -20 13 -11 3 -20 3 -20 0z"/>
<path d="M1810 1771 c-6 -12 -7 -21 -1 -21 10 0 24 30 17 37 -2 3 -9 -5 -16
-16z"/>
<path d="M2035 1670 c3 -5 11 -10 16 -10 6 0 7 5 4 10 -3 6 -11 10 -16 10 -6
0 -7 -4 -4 -10z"/>
<path d="M1350 1657 c0 -15 36 -57 50 -57 4 0 15 -3 24 -6 9 -3 16 -1 16 5 0
6 -8 11 -18 11 -21 0 -52 29 -52 48 0 7 -4 12 -10 12 -5 0 -10 -6 -10 -13z"/>
<path d="M1920 1611 c0 -6 5 -13 10 -16 6 -3 10 1 10 9 0 9 -4 16 -10 16 -5 0
-10 -4 -10 -9z"/>
<path d="M1420 1388 c0 -19 18 -43 25 -36 9 9 -4 48 -16 48 -5 0 -9 -6 -9 -12z"/>
<path d="M1704 1276 c3 -14 1 -37 -4 -52 -7 -18 -7 -31 -1 -37 6 -6 12 -2 16
14 12 54 10 99 -6 99 -7 0 -9 -10 -5 -24z"/>
<path d="M1516 2073 c-11 -11 -6 -23 9 -23 8 0 15 4 15 9 0 13 -16 22 -24 14z"/>
<path d="M1238 1943 c-11 -22 -9 -76 4 -84 23 -15 26 -10 21 34 -6 42 -17 66
-25 50z"/>
<path d="M95 1110 c3 -5 10 -10 16 -10 5 0 9 5 9 10 0 6 -7 10 -16 10 -8 0
-12 -4 -9 -10z"/>
<path d="M68 1043 c7 -3 16 -2 19 1 4 3 -2 6 -13 5 -11 0 -14 -3 -6 -6z"/>
<path d="M73 1003 c9 -2 23 -2 30 0 6 3 -1 5 -18 5 -16 0 -22 -2 -12 -5z"/>
<path d="M98 933 c7 -3 16 -2 19 1 4 3 -2 6 -13 5 -11 0 -14 -3 -6 -6z"/>
<path d="M150 930 c-12 -8 -9 -10 13 -10 16 0 26 4 22 10 -8 12 -16 12 -35 0z"/>
<path d="M93 843 c9 -2 25 -2 35 0 9 3 1 5 -18 5 -19 0 -27 -2 -17 -5z"/>
<path d="M150 839 c0 -5 5 -7 10 -4 6 3 10 8 10 11 0 2 -4 4 -10 4 -5 0 -10
-5 -10 -11z"/>
<path d="M85 800 c27 -12 35 -12 35 0 0 6 -12 10 -27 9 -25 0 -26 -1 -8 -9z"/>
<path d="M90 750 c0 -5 14 -10 30 -10 17 0 30 5 30 10 0 6 -13 10 -30 10 -16
0 -30 -4 -30 -10z"/>
<path d="M618 1103 c7 -3 16 -2 19 1 4 3 -2 6 -13 5 -11 0 -14 -3 -6 -6z"/>
<path d="M713 1103 c9 -2 23 -2 30 0 6 3 -1 5 -18 5 -16 0 -22 -2 -12 -5z"/>
<path d="M813 1103 c9 -2 23 -2 30 0 6 3 -1 5 -18 5 -16 0 -22 -2 -12 -5z"/>
<path d="M660 1070 c0 -5 9 -10 19 -10 11 0 23 5 26 10 4 6 -5 10 -19 10 -14
0 -26 -4 -26 -10z"/>
<path d="M730 1070 c0 -5 9 -10 20 -10 11 0 20 5 20 10 0 6 -9 10 -20 10 -11
0 -20 -4 -20 -10z"/>
<path d="M670 1030 c0 -5 6 -10 14 -10 8 0 18 5 21 10 3 6 -3 10 -14 10 -12 0
-21 -4 -21 -10z"/>
<path d="M728 1023 c7 -3 16 -2 19 1 4 3 -2 6 -13 5 -11 0 -14 -3 -6 -6z"/>
<path d="M558 983 c7 -3 16 -2 19 1 4 3 -2 6 -13 5 -11 0 -14 -3 -6 -6z"/>
<path d="M630 979 c0 -5 5 -7 10 -4 6 3 10 8 10 11 0 2 -4 4 -10 4 -5 0 -10
-5 -10 -11z"/>
<path d="M718 973 c12 -2 30 -2 40 0 9 3 -1 5 -23 4 -22 0 -30 -2 -17 -4z"/>
<path d="M538 933 c7 -3 16 -2 19 1 4 3 -2 6 -13 5 -11 0 -14 -3 -6 -6z"/>
<path d="M663 933 c9 -2 23 -2 30 0 6 3 -1 5 -18 5 -16 0 -22 -2 -12 -5z"/>
<path d="M740 920 c0 -5 6 -10 14 -10 8 0 18 5 21 10 3 6 -3 10 -14 10 -12 0
-21 -4 -21 -10z"/>
<path d="M543 893 c9 -2 25 -2 35 0 9 3 1 5 -18 5 -19 0 -27 -2 -17 -5z"/>
<path d="M663 883 c15 -2 37 -2 50 0 12 2 0 4 -28 4 -27 0 -38 -2 -22 -4z"/>
<path d="M535 860 c-3 -5 3 -10 15 -10 12 0 18 5 15 10 -3 6 -10 10 -15 10 -5
0 -12 -4 -15 -10z"/>
<path d="M595 860 c-3 -5 1 -10 9 -10 9 0 16 5 16 10 0 6 -4 10 -9 10 -6 0
-13 -4 -16 -10z"/>
<path d="M693 853 c9 -2 25 -2 35 0 9 3 1 5 -18 5 -19 0 -27 -2 -17 -5z"/>
<path d="M580 820 c0 -5 9 -10 20 -10 11 0 20 5 20 10 0 6 -9 10 -20 10 -11 0
-20 -4 -20 -10z"/>
<path d="M515 810 c-3 -5 1 -10 10 -10 9 0 13 5 10 10 -3 6 -8 10 -10 10 -2 0
-7 -4 -10 -10z"/>
<path d="M680 810 c0 -5 7 -10 15 -10 8 0 15 5 15 10 0 6 -7 10 -15 10 -8 0
-15 -4 -15 -10z"/>
<path d="M578 773 c6 -2 18 -2 25 0 6 3 1 5 -13 5 -14 0 -19 -2 -12 -5z"/>
<path d="M478 753 c7 -3 16 -2 19 1 4 3 -2 6 -13 5 -11 0 -14 -3 -6 -6z"/>
<path d="M565 740 c-3 -5 3 -10 15 -10 12 0 18 5 15 10 -3 6 -10 10 -15 10 -5
0 -12 -4 -15 -10z"/>
<path d="M703 733 c9 -2 23 -2 30 0 6 3 -1 5 -18 5 -16 0 -22 -2 -12 -5z"/>
<path d="M955 1030 c3 -5 13 -10 21 -10 8 0 14 5 14 10 0 6 -9 10 -21 10 -11
0 -17 -4 -14 -10z"/>
<path d="M978 983 c7 -3 16 -2 19 1 4 3 -2 6 -13 5 -11 0 -14 -3 -6 -6z"/>
<path d="M980 940 c0 -5 5 -10 10 -10 6 0 10 5 10 10 0 6 -4 10 -10 10 -5 0
-10 -4 -10 -10z"/>
<path d="M1005 910 c3 -5 10 -10 16 -10 5 0 9 5 9 10 0 6 -7 10 -16 10 -8 0
-12 -4 -9 -10z"/>
<path d="M915 880 c-4 -6 7 -10 25 -10 18 0 29 4 25 10 -3 6 -15 10 -25 10
-10 0 -22 -4 -25 -10z"/>
<path d="M1005 880 c3 -5 12 -10 20 -10 8 0 17 5 20 10 4 6 -5 10 -20 10 -15
0 -24 -4 -20 -10z"/>
<path d="M980 840 c0 -5 5 -10 10 -10 6 0 10 5 10 10 0 6 -4 10 -10 10 -5 0
-10 -4 -10 -10z"/>
<path d="M998 783 c7 -3 16 -2 19 1 4 3 -2 6 -13 5 -11 0 -14 -3 -6 -6z"/>
<path d="M1015 750 c3 -5 10 -10 16 -10 5 0 9 5 9 10 0 6 -7 10 -16 10 -8 0
-12 -4 -9 -10z"/>
<path d="M1155 1100 c3 -5 12 -7 20 -3 21 7 19 13 -6 13 -11 0 -18 -4 -14 -10z"/>
<path d="M1170 1070 c0 -5 7 -10 15 -10 8 0 15 5 15 10 0 6 -7 10 -15 10 -8 0
-15 -4 -15 -10z"/>
<path d="M2108 963 c7 -3 16 -2 19 1 4 3 -2 6 -13 5 -11 0 -14 -3 -6 -6z"/>
<path d="M1975 860 c3 -5 15 -10 26 -10 10 0 19 5 19 10 0 6 -12 10 -26 10
-14 0 -23 -4 -19 -10z"/>
<path d="M2070 850 c0 -5 14 -10 30 -10 17 0 30 5 30 10 0 6 -13 10 -30 10
-16 0 -30 -4 -30 -10z"/>
<path d="M2028 823 c7 -3 16 -2 19 1 4 3 -2 6 -13 5 -11 0 -14 -3 -6 -6z"/>
<path d="M1960 810 c0 -5 9 -10 20 -10 11 0 20 5 20 10 0 6 -9 10 -20 10 -11
0 -20 -4 -20 -10z"/>
<path d="M2050 790 c0 -5 7 -10 15 -10 8 0 15 5 15 10 0 6 -7 10 -15 10 -8 0
-15 -4 -15 -10z"/>
<path d="M1945 780 c3 -5 10 -10 16 -10 5 0 9 5 9 10 0 6 -7 10 -16 10 -8 0
-12 -4 -9 -10z"/>
<path d="M1910 760 c0 -5 9 -10 21 -10 11 0 17 5 14 10 -3 6 -13 10 -21 10 -8
0 -14 -4 -14 -10z"/>
<path d="M1990 750 c0 -5 9 -10 20 -10 11 0 20 5 20 10 0 6 -9 10 -20 10 -11
0 -20 -4 -20 -10z"/>
<path d="M2093 753 c9 -2 23 -2 30 0 6 3 -1 5 -18 5 -16 0 -22 -2 -12 -5z"/>
<path d="M1930 720 c0 -5 7 -10 15 -10 8 0 15 5 15 10 0 6 -7 10 -15 10 -8 0
-15 -4 -15 -10z"/>
<path d="M2035 720 c-3 -5 1 -10 9 -10 9 0 16 5 16 10 0 6 -4 10 -9 10 -6 0
-13 -4 -16 -10z"/>
<path d="M1418 813 c7 -3 16 -2 19 1 4 3 -2 6 -13 5 -11 0 -14 -3 -6 -6z"/>
<path d="M1486 795 c10 -8 26 -14 34 -14 11 0 10 3 -4 14 -11 8 -27 15 -35 15
-11 0 -10 -4 5 -15z"/>
<path d="M1448 783 c7 -3 16 -2 19 1 4 3 -2 6 -13 5 -11 0 -14 -3 -6 -6z"/>
<path d="M1540 770 c0 -5 17 -10 38 -9 30 0 33 2 17 9 -28 12 -55 12 -55 0z"/>
<path d="M1508 753 c7 -3 16 -2 19 1 4 3 -2 6 -13 5 -11 0 -14 -3 -6 -6z"/>
<path d="M1645 750 c4 -6 11 -8 16 -5 14 9 11 15 -7 15 -8 0 -12 -5 -9 -10z"/>
<path d="M1608 743 c7 -3 16 -2 19 1 4 3 -2 6 -13 5 -11 0 -14 -3 -6 -6z"/>
<path d="M1445 720 c-4 -6 3 -10 14 -10 25 0 27 6 6 13 -8 4 -17 2 -20 -3z"/>
<path d="M1528 723 c7 -3 16 -2 19 1 4 3 -2 6 -13 5 -11 0 -14 -3 -6 -6z"/>
<path d="M1590 720 c0 -5 9 -10 20 -10 11 0 20 5 20 10 0 6 -9 10 -20 10 -11
0 -20 -4 -20 -10z"/>
<path d="M1820 770 c0 -5 5 -10 10 -10 6 0 10 5 10 10 0 6 -4 10 -10 10 -5 0
-10 -4 -10 -10z"/>
<path d="M2063 473 c9 -2 23 -2 30 0 6 3 -1 5 -18 5 -16 0 -22 -2 -12 -5z"/>
<path d="M2030 260 c0 -5 5 -10 10 -10 6 0 10 5 10 10 0 6 -4 10 -10 10 -5 0
-10 -4 -10 -10z"/>
</g>
</svg>
