<?xml version="1.0" standalone="no"?>
<!DOCTYPE svg PUBLIC "-//W3C//DTD SVG 20010904//EN"
 "http://www.w3.org/TR/2001/REC-SVG-20010904/DTD/svg10.dtd">
<svg version="1.0" xmlns="http://www.w3.org/2000/svg"
 width="217.000000pt" height="374.000000pt" viewBox="0 0 217.000000 374.000000"
 preserveAspectRatio="xMidYMid meet">
<metadata>
Created by potrace 1.16, written by Peter Selinger 2001-2019
</metadata>
<g transform="translate(0.000000,374.000000) scale(0.100000,-0.100000)"
fill="#000000" stroke="none">
<path d="M118 3722 l-108 -3 -1 -97 c-3 -227 10 -3298 15 -3537 l1 -60 115 -5
c63 -3 544 -5 1069 -5 l955 0 -3 530 c-1 292 -4 1068 -6 1725 -2 657 -4 1255
-4 1328 l-1 133 -962 -3 c-530 -2 -1011 -4 -1070 -6z m2006 -20 c3 -5 7 -301
9 -658 3 -530 1 -637 -9 -585 -6 35 -9 81 -7 102 4 30 2 40 -11 45 -42 16 -93
-28 -68 -59 13 -16 3 -147 -11 -147 -7 0 -7 -4 1 -12 27 -27 13 -38 -47 -38
-72 0 -91 -6 -91 -31 0 -10 -3 -19 -7 -19 -241 -6 -238 -6 -241 17 -3 22 0 23
67 23 39 0 71 4 71 9 0 5 -5 11 -12 13 -8 3 -9 24 -2 79 8 66 11 74 32 77 21
3 22 0 22 -62 0 -64 -1 -66 -25 -66 -14 0 -25 -3 -25 -8 0 -4 21 -5 48 -3 26
3 39 6 30 8 -12 3 -16 14 -15 41 1 20 0 64 -1 97 -3 46 -5 55 -12 39 -13 -32
-31 -40 -46 -19 -9 12 -10 23 -4 36 14 25 12 35 -2 20 -7 -7 -13 -31 -14 -54
-1 -157 -5 -201 -14 -187 -6 8 -7 27 -4 41 6 31 -20 63 -46 56 -9 -2 -25 2
-35 9 -24 18 -52 18 -62 0 -4 -8 -17 -15 -28 -17 -13 -3 -21 -13 -23 -30 -3
-26 -46 -59 -77 -59 -12 0 -15 5 -10 18 4 9 10 28 13 40 4 20 1 23 -19 20 -22
-3 -24 -7 -21 -46 2 -32 -1 -43 -10 -40 -14 5 -12 61 3 90 12 22 2 46 -37 87
-32 34 -33 34 -59 17 -20 -13 -30 -15 -40 -6 -11 9 -18 5 -35 -22 -11 -18 -20
-37 -20 -42 0 -14 29 27 30 42 0 17 10 15 33 -5 19 -17 20 -17 34 5 20 28 27
28 41 -3 6 -14 18 -25 27 -25 18 0 20 -41 3 -58 -17 -17 -28 -15 -28 4 0 11
-6 14 -20 9 -13 -4 -20 -2 -20 7 0 10 -3 9 -10 -2 -7 -11 -12 -12 -18 -3 -4 6
-19 10 -35 10 -28 -2 -36 -14 -14 -23 16 -6 20 -83 5 -101 -18 -22 -28 -14
-22 17 4 18 1 36 -6 45 -12 14 -15 14 -31 -1 -20 -18 -26 -54 -9 -54 6 0 10
-6 10 -12 0 -18 -113 -44 -199 -47 -65 -2 -71 -1 -71 17 0 29 -59 92 -86 92
-13 0 -26 4 -29 10 -3 5 -19 7 -35 4 -27 -6 -29 -4 -40 37 -6 24 -15 55 -20
69 -5 14 -11 39 -15 56 -4 21 -14 34 -33 41 -25 10 -25 11 -4 12 27 1 27 -2 0
100 -17 66 -19 87 -10 102 7 10 12 35 12 54 0 40 -36 129 -49 121 -5 -3 -16
20 -26 52 -56 184 -88 274 -100 278 -19 8 -55 -14 -55 -33 0 -8 7 -36 15 -62
53 -166 89 -301 87 -331 -3 -72 -12 -100 -31 -100 -27 0 -38 -18 -45 -80 -4
-30 -11 -59 -15 -65 -4 -5 -18 -39 -31 -75 -21 -57 -28 -113 -30 -233 0 -13
-5 -17 -19 -12 -11 3 -22 1 -26 -5 -8 -14 -75 -13 -75 1 0 6 -6 9 -14 6 -17
-7 -36 12 -36 36 0 13 5 17 15 13 19 -7 19 1 2 19 -9 9 -19 10 -30 3 -9 -5
-17 -6 -17 -2 0 3 -16 -6 -35 -20 -19 -15 -39 -25 -43 -22 -13 8 -8 89 6 94 6
2 12 -3 12 -12 0 -9 4 -16 9 -16 16 0 51 52 50 74 -1 20 -2 20 -6 1 -7 -30
-19 -38 -55 -39 -33 -1 -33 -1 -35 -54 -3 -47 0 -55 17 -59 12 -3 19 -11 17
-17 -4 -13 -84 -43 -92 -34 -8 8 -8 1359 0 1380 6 16 51 17 646 17 352 -1 643
1 646 5 10 9 791 7 797 -2z m-1494 -732 c0 -5 -4 -10 -10 -10 -5 0 -10 5 -10
10 0 6 5 10 10 10 6 0 10 -4 10 -10z m-10 -26 c0 -3 -10 -14 -21 -23 -18 -15
-20 -21 -10 -39 8 -16 9 -33 2 -58 -6 -23 -6 -45 0 -61 5 -13 9 -34 8 -46 0
-21 0 -21 -12 -2 -7 11 -25 32 -41 47 -15 15 -24 28 -19 28 12 0 34 70 27 82
-9 14 16 66 34 71 27 7 32 7 32 1z m30 -21 c0 -5 -5 -15 -10 -23 -8 -12 -10
-11 -10 8 0 12 5 22 10 22 6 0 10 -3 10 -7z m7 -45 c-3 -8 -6 -5 -6 6 -1 11 2
17 5 13 3 -3 4 -12 1 -19z m-147 -108 c0 -5 -4 -10 -10 -10 -5 0 -10 5 -10 10
0 6 5 10 10 10 6 0 10 -4 10 -10z m49 -39 c12 -16 21 -34 21 -40 0 -5 6 -14
14 -18 13 -7 56 -154 78 -266 8 -44 7 -51 -17 -83 -14 -19 -31 -34 -38 -34 -8
0 -8 -3 2 -9 9 -6 10 -11 3 -15 -18 -11 -39 34 -56 114 -13 66 -13 83 0 155 8
44 19 88 25 97 12 24 12 28 -5 28 -8 0 -18 9 -21 21 -8 25 -45 41 -62 27 -20
-16 -16 8 4 32 23 26 28 25 52 -9z m-29 -41 c5 8 13 1 24 -21 18 -36 14 -48
-9 -29 -9 7 -18 10 -22 6 -4 -3 4 -14 16 -23 18 -12 20 -17 10 -25 -11 -7 -11
-11 -1 -15 22 -9 13 -25 -10 -18 -21 6 -22 5 -5 -8 21 -18 22 -27 1 -27 -14 0
-15 -2 -3 -17 10 -11 10 -14 2 -9 -16 9 -17 -6 -1 -22 9 -9 9 -12 0 -12 -10 0
-10 -5 -2 -20 6 -11 8 -25 5 -30 -3 -5 -1 -12 5 -15 8 -5 7 -11 -1 -21 -9 -11
-8 -14 7 -14 14 0 15 -3 6 -12 -8 -8 -9 -15 -1 -25 9 -10 8 -13 -2 -13 -9 -1
-7 -6 6 -16 16 -12 17 -17 7 -23 -10 -6 -8 -10 10 -16 20 -6 17 -8 -20 -14
-59 -10 -72 -27 -17 -23 24 2 52 -1 62 -8 17 -10 17 -11 -2 -6 -30 9 -83 -10
-105 -36 -31 -37 -23 -42 17 -9 39 32 71 38 104 21 26 -15 26 -43 -1 -35 -30
10 -24 -2 10 -20 21 -11 49 -15 88 -12 l57 3 -62 2 c-34 1 -65 7 -68 12 -3 6
1 10 10 10 13 0 11 8 -11 45 -14 25 -24 49 -21 52 12 11 37 -7 37 -27 0 -11 5
-20 10 -20 6 0 10 -6 10 -13 0 -9 10 -12 30 -9 17 2 30 0 30 -6 0 -13 49 -22
56 -11 9 16 24 9 24 -10 0 -12 -8 -21 -22 -24 -18 -3 -16 -5 8 -6 17 0 34 -4
37 -8 9 -8 -22 -43 -39 -43 -24 0 -64 -23 -64 -37 0 -18 16 -17 24 2 3 8 12
15 21 15 14 0 14 -2 1 -23 -14 -21 -14 -24 4 -35 17 -10 21 -8 35 18 10 20 12
30 4 30 -8 0 -8 4 1 15 7 8 19 15 26 15 23 0 101 -78 106 -105 6 -30 -8 -34
-17 -5 -7 23 -25 27 -25 5 0 -9 -6 -12 -15 -9 -8 4 -15 1 -15 -5 0 -6 -9 -11
-19 -11 -22 0 -36 -26 -18 -34 9 -3 8 -7 -3 -15 -9 -6 -16 -7 -18 -1 -2 6 -8
10 -14 10 -6 0 -8 -6 -5 -14 3 -7 0 -19 -6 -25 -8 -8 -7 -11 6 -11 10 0 17 -8
17 -19 0 -13 -15 -25 -48 -39 -27 -12 -55 -28 -62 -37 -7 -8 -16 -15 -21 -15
-15 0 -10 25 16 75 13 27 22 51 20 53 -2 2 -16 -9 -30 -24 -25 -28 -26 -28
-14 -4 7 14 24 40 38 59 17 22 20 33 11 30 -8 -3 -30 -27 -47 -53 -33 -49 -43
-91 -22 -98 7 -2 2 -22 -14 -54 -25 -50 -25 -51 -6 -67 10 -10 24 -17 29 -17
12 0 12 -2 0 -35 -10 -25 -10 -25 -46 -10 -20 8 -39 15 -43 15 -12 -1 42 -40
55 -40 8 0 14 -4 14 -10 0 -14 -11 -12 -34 5 -23 18 -36 19 -36 5 0 -6 10 -15
23 -20 20 -8 20 -9 -8 -9 -17 -1 -46 4 -65 10 -19 6 -54 12 -78 14 -24 2 -50
9 -58 15 -7 7 -20 10 -28 7 -25 -10 -27 26 -6 111 11 45 25 117 31 159 6 43
14 106 19 141 4 35 10 64 12 66 1 1 22 18 46 39 43 38 46 45 11 27 -11 -6 -19
-7 -18 -3 5 31 -3 35 -26 13 l-25 -23 -1 24 c-1 13 -2 41 -3 61 -2 26 3 44 16
58 20 21 11 29 -10 8 -22 -22 -22 -1 0 27 18 23 19 28 5 22 -22 -8 -22 1 1 26
9 11 12 18 6 14 -15 -9 -17 63 -1 81 9 12 9 16 0 19 -17 6 -16 55 1 95 8 18
18 42 21 53 5 13 9 15 12 7 7 -18 23 -4 23 20 0 11 8 22 19 25 13 3 17 12 15
26 -2 12 -1 16 2 8 5 -10 8 -10 14 -1z m-56 -45 c-4 -8 -8 -15 -10 -15 -2 0
-4 7 -4 15 0 8 4 15 10 15 5 0 7 -7 4 -15z m1625 -59 c15 -18 3 -46 -20 -46
-22 0 -34 22 -25 45 7 19 30 19 45 1z m-1414 -6 c-3 -5 -10 -10 -16 -10 -5 0
-9 5 -9 10 0 6 7 10 16 10 8 0 12 -4 9 -10z m1416 -86 c4 -16 7 -55 8 -87 1
-58 1 -58 -26 -55 l-28 3 3 75 c1 41 5 81 7 88 8 22 30 8 36 -24z m-1396 6 c3
-5 1 -10 -4 -10 -6 0 -11 5 -11 10 0 6 2 10 4 10 3 0 8 -4 11 -10z m10 -40 c3
-5 1 -10 -4 -10 -6 0 -11 5 -11 10 0 6 2 10 4 10 3 0 8 -4 11 -10z m921 -4
c21 -22 17 -36 -11 -36 -18 0 -25 5 -25 18 0 33 14 39 36 18z m-58 -34 c2 -7
-3 -12 -12 -12 -9 0 -16 7 -16 16 0 17 22 14 28 -4z m139 2 c9 -23 -13 -40
-32 -24 -8 7 -15 19 -15 26 0 19 39 18 47 -2z m-399 -42 c-4 -43 -23 -53 -32
-17 -9 36 1 65 20 58 10 -4 14 -17 12 -41z m23 -15 c-8 -8 -11 -4 -11 14 0 33
14 47 18 19 2 -12 -1 -27 -7 -33z m119 49 c0 -3 -4 -8 -10 -11 -5 -3 -10 -1
-10 4 0 6 5 11 10 11 6 0 10 -2 10 -4z m140 -26 c0 -5 -4 -10 -10 -10 -5 0
-10 5 -10 10 0 6 5 10 10 10 6 0 10 -4 10 -10z m60 -6 c0 -9 -5 -14 -12 -12
-18 6 -21 28 -4 28 9 0 16 -7 16 -16z m-444 -31 c-11 -11 -19 6 -11 24 8 17 8
17 12 0 3 -10 2 -21 -1 -24z m921 15 c-3 -8 -6 -5 -6 6 -1 11 2 17 5 13 3 -3
4 -12 1 -19z m-1937 2 c0 -5 -5 -10 -11 -10 -5 0 -7 5 -4 10 3 6 8 10 11 10 2
0 4 -4 4 -10z m525 0 c-3 -5 -12 -10 -18 -10 -7 0 -6 4 3 10 19 12 23 12 15 0z
m843 -2 c7 -7 31 -11 54 -10 34 2 39 0 26 -8 -20 -12 -24 -50 -7 -67 9 -9 2
-13 -27 -18 -64 -10 -72 -14 -21 -11 26 2 47 0 47 -5 0 -4 -24 -9 -52 -11 -49
-3 -53 -5 -56 -30 -3 -27 -2 -28 47 -28 45 0 51 -2 51 -21 0 -11 4 -28 10 -38
5 -11 12 -198 15 -437 3 -231 7 -467 10 -525 5 -105 5 -106 -20 -117 -29 -13
-29 -13 -44 58 -7 30 -16 73 -21 94 -5 23 -4 50 1 63 27 71 -12 180 -72 199
-25 9 -36 19 -40 40 l-7 29 -1 -27 c-1 -21 -6 -28 -21 -28 -13 0 -20 7 -20 20
0 11 -5 20 -11 20 -5 0 -7 -5 -4 -10 8 -13 -4 -50 -16 -50 -5 0 -9 65 -10 153
0 83 -4 160 -8 171 -4 10 -5 -61 -3 -158 4 -172 4 -178 -17 -192 -12 -9 -27
-30 -35 -47 -20 -48 -63 -90 -86 -84 -12 3 -20 0 -20 -7 0 -7 -9 -21 -20 -31
l-20 -18 2 339 c3 331 3 339 23 339 19 0 20 -8 25 -160 l6 -160 2 197 c2 195
2 197 25 201 12 2 -3 4 -33 4 -30 0 -43 -2 -27 -4 22 -4 27 -9 27 -33 0 -23
-5 -29 -32 -34 l-33 -6 5 -365 c4 -294 3 -362 -7 -348 -10 12 -13 100 -15 342
0 179 0 333 0 341 1 8 3 23 4 33 1 9 9 17 18 18 10 0 9 3 -5 9 -11 5 -22 9
-25 9 -3 1 -4 -163 -2 -364 3 -275 2 -365 -7 -365 -7 0 -25 7 -41 15 -31 16
-33 20 -94 257 -35 135 -36 139 -25 240 5 56 15 108 20 115 19 22 -20 132 -63
176 -21 22 -38 43 -38 47 0 5 -14 20 -31 33 -39 30 -37 53 3 33 26 -14 27 -13
33 14 6 26 9 28 48 24 33 -2 35 -2 13 4 -29 7 -48 30 -24 29 32 -1 49 4 43 13
-4 6 23 10 73 10 94 0 94 0 85 -114 l-6 -73 -54 -6 c-64 -7 -67 -9 -59 -35 6
-17 18 -21 69 -24 34 -2 69 -1 77 4 8 4 -16 8 -57 8 -63 0 -96 11 -80 26 2 2
35 7 73 11 38 3 63 8 56 11 -16 5 -15 76 2 124 11 31 11 38 -1 42 -8 4 -13 16
-11 28 2 17 11 24 31 26 32 4 46 -21 29 -48 -7 -12 -8 -29 -2 -50 5 -17 10
-54 11 -81 l3 -49 57 0 c45 0 60 -4 68 -17 9 -16 10 -16 8 4 -1 15 -10 23 -29
27 -16 3 -28 12 -28 21 0 12 15 15 78 17 42 0 62 3 44 5 l-33 4 7 57 c3 31 11
65 15 74 7 13 4 20 -11 28 -15 8 -20 19 -18 38 2 22 9 28 34 30 39 4 63 -21
46 -48 -8 -13 -8 -29 -2 -52 6 -18 10 -54 10 -80 0 -27 3 -48 8 -48 4 0 5 25
3 56 -2 40 1 59 10 65 11 7 10 9 -3 9 -38 0 -15 20 25 22 l42 1 -37 4 c-34 4
-38 7 -38 32 0 15 -5 32 -12 39 -9 9 -7 13 8 17 10 4 33 13 49 20 38 17 48 18
63 3z m152 -3 c0 -8 -9 -15 -20 -15 -11 0 -20 7 -20 15 0 8 9 15 20 15 11 0
20 -7 20 -15z m-1550 -4 c0 -6 -4 -13 -10 -16 -5 -3 -10 1 -10 9 0 9 5 16 10
16 6 0 10 -4 10 -9z m75 -39 c17 -10 52 -19 79 -20 27 -1 52 -4 54 -6 4 -4 9
-85 16 -241 3 -64 -24 -270 -48 -363 -8 -31 -15 -76 -14 -100 0 -26 -6 -50
-16 -60 -8 -10 -23 -38 -31 -62 -19 -51 -46 -310 -35 -325 4 -5 10 -22 14 -37
5 -24 13 -27 77 -38 82 -14 89 -23 89 -125 0 -63 -1 -65 -45 -106 -25 -23 -45
-48 -45 -55 0 -7 -13 -26 -29 -41 -32 -31 -43 -63 -23 -70 7 -3 10 1 6 10 -3
9 4 25 15 36 30 30 85 28 128 -5 28 -21 33 -31 33 -65 0 -41 -12 -50 -30 -22
-9 16 -10 15 -5 -4 4 -13 2 -23 -3 -23 -5 0 -12 11 -14 25 -3 13 -1 22 3 19
13 -8 11 10 -3 24 -16 16 -31 16 -22 0 4 -7 -10 -2 -31 10 -30 18 -40 20 -46
10 -13 -20 -11 -22 21 -41 16 -10 39 -32 51 -49 l22 -31 -42 -83 c-23 -46 -46
-86 -52 -89 -5 -4 -9 -17 -9 -30 0 -13 -4 -27 -10 -30 -6 -3 -10 -12 -10 -18
1 -7 9 -2 20 11 17 20 26 23 75 19 65 -5 90 -21 63 -41 -16 -12 -14 -13 13
-14 17 0 41 -7 53 -15 12 -8 56 -25 97 -37 104 -30 181 -69 175 -87 -4 -8 -6
-19 -6 -24 0 -18 -28 -8 -33 12 -4 16 -10 20 -24 14 -10 -4 -67 -25 -127 -47
-87 -31 -115 -37 -135 -29 -22 8 -95 29 -166 48 -17 5 -15 1 8 -23 16 -16 33
-37 38 -49 6 -11 -10 2 -34 28 -39 43 -53 51 -128 71 -147 41 -139 32 -139
153 0 102 0 103 23 99 97 -20 129 -30 133 -41 3 -7 -2 -29 -10 -50 -21 -50
-20 -72 4 -80 21 -7 89 3 105 15 6 4 36 13 68 20 32 6 57 14 54 16 -4 4 -99
-15 -175 -37 -64 -18 -72 -4 -43 73 21 59 88 285 94 317 1 8 -3 16 -9 18 -6 2
-10 -6 -10 -18 1 -18 -13 -26 -94 -55 -52 -18 -103 -38 -113 -44 -11 -6 -22
-9 -25 -6 -3 3 -7 379 -10 836 l-4 830 63 0 c42 0 59 3 50 9 -11 7 -7 10 15
13 16 3 -2 5 -41 5 -50 0 -61 -2 -40 -7 30 -8 30 -8 -7 -9 -28 -1 -38 3 -38
14 0 11 12 16 43 17 l42 1 -42 4 c-32 3 -43 8 -43 21 0 12 23 25 78 43 95 33
100 33 137 11z m437 -9 c-3 -16 -7 -22 -10 -15 -4 13 4 42 11 42 2 0 2 -12 -1
-27z m678 21 c0 -3 -4 -14 -10 -24 -7 -13 -5 -24 9 -41 16 -21 17 -32 8 -96
l-10 -72 -46 -3 c-41 -3 -46 -5 -43 -25 3 -19 -2 -23 -22 -23 -26 0 -28 5 -41
103 -8 61 0 87 28 87 18 0 19 -2 7 -10 -13 -8 -12 -10 3 -10 9 0 17 5 17 10 0
6 17 10 38 9 30 0 33 -2 17 -9 -19 -8 -19 -9 1 -9 12 -1 24 6 28 14 4 12 -5
15 -50 15 -31 0 -71 7 -90 16 l-34 16 66 24 c36 12 69 25 72 28 7 8 52 8 52 0z
m778 -11 c-3 -16 -16 -18 -106 -18 -56 0 -102 -3 -102 -7 0 -5 11 -8 25 -8 25
0 36 -19 13 -21 -10 0 -10 -2 0 -6 6 -2 10 -9 6 -14 -3 -5 -3 -9 1 -9 3 0 10
11 15 25 5 14 13 25 18 25 22 0 27 -120 24 -592 l-2 -508 -28 -13 c-15 -8 -33
-12 -39 -10 -10 4 -13 -43 -13 -213 0 -119 -2 -215 -5 -212 -3 3 -9 302 -12
664 -3 363 -7 661 -9 663 -2 2 -4 -267 -4 -599 0 -332 -2 -601 -5 -598 -6 6
-13 169 -16 423 l-3 200 -6 -185 c-5 -182 -5 -185 -27 -188 -13 -2 -23 -8 -23
-13 0 -5 11 -7 25 -3 15 4 25 2 25 -5 0 -6 -10 -13 -22 -16 -25 -6 -23 14 -27
-308 -1 -54 -5 -86 -11 -82 -5 3 -9 62 -9 133 0 252 -14 1317 -17 1321 -2 2
-4 -176 -4 -397 0 -220 -3 -408 -7 -418 -4 -11 -3 -15 5 -10 8 4 11 -59 12
-226 0 -127 -2 -229 -5 -226 -4 3 -7 100 -7 215 -1 154 -3 182 -7 108 -5 -86
-9 -100 -24 -103 -18 -4 -18 19 -15 536 2 297 0 535 -4 529 -4 -7 -8 -22 -8
-34 0 -16 -7 -22 -27 -25 -22 -2 -29 -9 -31 -32 -2 -18 0 -26 7 -21 6 3 11 15
11 26 0 12 7 19 20 19 20 0 20 -7 20 -620 0 -341 -2 -620 -4 -620 -2 0 -12 -3
-21 -7 -14 -5 -16 -2 -10 15 5 16 2 22 -9 22 -13 0 -16 15 -16 88 0 48 -2 177
-5 287 -3 110 -7 347 -9 526 -2 192 -8 333 -13 344 -6 10 -8 26 -6 36 5 16 15
19 64 19 l59 0 0 -172 c0 -95 4 -178 8 -185 4 -6 5 72 4 174 -4 167 -2 185 12
180 11 -5 16 -1 16 13 0 11 7 20 15 20 13 0 15 -67 17 -537 l2 -538 6 570 c4
314 7 571 8 573 13 21 18 -50 21 -275 1 -147 5 -270 7 -273 3 -2 4 110 3 250
-1 205 1 255 12 255 7 0 16 -11 19 -25 6 -24 7 -23 11 8 4 23 2 32 -8 32 -8 0
-11 5 -8 10 3 6 -1 10 -10 10 -12 0 -15 5 -11 16 3 9 6 22 6 29 0 18 25 22
143 24 89 1 98 -1 95 -16z m-288 -68 c0 -34 -1 -35 -40 -35 -22 0 -40 5 -40
10 0 6 12 8 28 5 22 -4 21 -3 -5 7 -54 18 -43 48 19 48 37 0 38 -1 38 -35z
m280 5 c0 -28 -2 -30 -40 -30 -34 0 -42 4 -50 26 -6 14 -10 27 -10 30 0 2 23
4 50 4 49 0 50 -1 50 -30z m-1006 5 c-5 -12 -26 -15 -104 -15 -131 0 -141 18
-13 23 54 1 103 4 110 5 7 1 10 -4 7 -13z m606 -6 c0 -16 -5 -20 -27 -17 -17
2 -29 10 -31 21 -3 13 3 17 27 17 25 0 31 -4 31 -21z m-783 -25 c-3 -3 -12 -4
-19 -1 -8 3 -5 6 6 6 11 1 17 -2 13 -5z m811 -16 c7 -7 12 -16 12 -20 0 -4
-52 -8 -115 -8 -89 0 -115 3 -115 13 0 8 3 17 7 20 12 12 198 8 211 -5z m365
-66 l3 -47 4 55 c7 94 15 -380 12 -682 -2 -195 -6 -288 -14 -288 -5 0 -8 7 -5
15 4 8 3 17 -2 19 -4 3 -11 -90 -15 -206 -3 -117 -9 -214 -11 -217 -14 -13
-18 21 -17 136 4 383 2 1126 -2 1131 -3 3 -6 -197 -6 -444 0 -434 -8 -835 -16
-843 -2 -2 -6 -2 -9 1 -8 7 -6 1393 1 1413 13 34 24 11 24 -50 0 -36 3 -65 8
-65 4 0 6 20 4 45 -2 25 -1 57 2 71 10 40 34 12 39 -44z m-328 48 c3 -5 1 -10
-4 -10 -6 0 -11 5 -11 10 0 6 2 10 4 10 3 0 8 -4 11 -10z m-1345 -100 c0 -5
-7 -10 -16 -10 -8 0 -12 5 -9 10 3 6 10 10 16 10 5 0 9 -4 9 -10z m410 -10 c0
-5 -2 -10 -4 -10 -3 0 -8 5 -11 10 -3 6 -1 10 4 10 6 0 11 -4 11 -10z m25
-170 c-3 -5 -11 -10 -16 -10 -6 0 -7 5 -4 10 3 6 11 10 16 10 6 0 7 -4 4 -10z
m80 0 c3 -5 1 -10 -4 -10 -6 0 -11 5 -11 10 0 6 2 10 4 10 3 0 8 -4 11 -10z
m-65 -30 c0 -5 -4 -10 -9 -10 -6 0 -13 5 -16 10 -3 6 1 10 9 10 9 0 16 -4 16
-10z m69 -26 c-14 -17 -79 -23 -79 -8 0 7 13 15 30 19 16 4 33 11 36 17 4 6 9
5 15 -3 4 -7 3 -19 -2 -25z m-109 1 c0 -8 -7 -15 -15 -15 -8 0 -15 7 -15 15 0
8 7 15 15 15 8 0 15 -7 15 -15z m6 -52 c-10 -10 -19 5 -10 18 6 11 8 11 12 0
2 -7 1 -15 -2 -18z m82 -2 c-1 -19 -5 -28 -14 -24 -8 3 -11 -2 -10 -13 2 -10
8 -20 14 -22 20 -6 13 -22 -10 -23 -17 -1 -19 -2 -5 -6 9 -2 17 -11 17 -19 0
-11 -6 -13 -20 -9 -11 4 -20 2 -20 -4 0 -6 7 -11 15 -11 8 0 15 -4 15 -10 0
-18 -33 -95 -44 -102 -8 -5 -7 -11 2 -20 17 -17 15 -38 -5 -39 -17 -1 -17 -2
0 -6 9 -2 15 -9 12 -14 -4 -5 1 -9 11 -9 11 0 15 -6 11 -19 -3 -12 3 -27 13
-36 23 -21 32 -66 17 -84 -10 -12 -9 -13 6 -8 12 4 16 3 11 -4 -4 -6 -1 -14 5
-18 9 -6 6 -20 -8 -54 -20 -47 -44 -60 -55 -31 -9 24 -7 54 4 54 6 0 10 5 10
11 0 6 -7 9 -15 6 -16 -7 -48 33 -59 73 -6 19 -5 21 3 10 6 -8 11 -10 11 -5
-1 13 -31 47 -55 61 -17 9 -20 24 -23 98 -2 74 0 93 18 120 11 19 20 45 20 60
0 32 20 35 21 4 1 -21 2 -20 8 3 6 25 78 116 93 118 4 1 6 -12 6 -28z m-169
-57 c-74 -62 -110 -120 -40 -65 36 28 40 30 52 14 8 -10 9 -14 2 -10 -7 4 -13
0 -16 -10 -3 -10 -10 -39 -17 -65 -19 -73 -6 -149 36 -203 19 -25 34 -49 34
-54 0 -4 13 -28 30 -52 16 -24 30 -54 30 -66 0 -29 29 -58 43 -44 18 18 26 13
52 -39 20 -39 22 -51 11 -57 -23 -14 -36 -50 -36 -102 0 -27 -5 -51 -10 -53
-6 -1 10 -3 35 -3 l45 0 -24 18 c-30 21 -43 76 -26 107 15 28 32 21 42 -16 65
-236 158 -625 152 -636 -6 -10 -40 -7 -79 6 -15 5 -14 4 3 -5 31 -17 28 -33
-5 -24 -15 3 -90 30 -167 60 -78 30 -184 70 -236 90 -143 54 -164 65 -153 76
8 8 38 0 99 -24 49 -19 107 -41 129 -50 22 -8 57 -22 79 -31 l38 -17 -22 28
c-19 24 -21 35 -15 81 4 31 2 66 -5 87 -10 29 -9 38 4 50 8 9 18 32 21 53 12
67 27 107 49 124 11 10 15 18 9 18 -17 0 -69 -73 -83 -116 -6 -19 -17 -34 -23
-34 -7 0 -68 -20 -136 -45 -69 -25 -127 -42 -130 -39 -9 8 18 94 39 122 17 25
60 177 60 216 0 10 15 23 35 32 28 11 35 20 35 42 0 30 -23 194 -45 317 -13
71 -13 86 1 135 9 30 17 71 19 91 4 52 26 87 71 113 55 32 62 21 13 -20z m-99
-49 c0 -8 -4 -15 -10 -15 -5 0 -10 7 -10 15 0 8 5 15 10 15 6 0 10 -7 10 -15z
m-325 -192 l-6 -28 15 30 15 30 -4 -45 -5 -45 11 43 c14 56 33 56 27 -1 -3
-23 -1 -51 3 -62 4 -11 8 -14 8 -7 1 6 9 12 19 13 14 0 14 2 -3 9 l-20 9 20 1
20 1 -20 9 c-19 8 -19 9 3 9 25 1 28 11 10 30 -11 11 -9 13 12 8 14 -3 49 -9
79 -13 111 -14 127 -36 141 -181 5 -59 14 -124 20 -143 15 -51 12 -78 -7 -89
-17 -8 -18 -1 -18 83 -1 91 -30 262 -48 281 -10 11 -9 1 16 -100 22 -87 31
-229 17 -254 -16 -30 -30 -17 -23 22 3 19 -6 75 -22 135 -31 120 -38 184 -22
194 8 5 5 8 -7 8 -17 0 -18 -6 -12 -63 3 -35 15 -95 26 -135 11 -39 20 -94 20
-122 l0 -50 -35 0 c-24 0 -37 -6 -45 -20 -11 -20 -43 -26 -87 -14 -25 7 -39
34 -23 44 8 5 5 10 -7 15 -17 7 -17 8 2 15 17 7 17 9 3 9 -20 1 -25 21 -5 21
8 0 8 3 1 8 -5 4 -11 24 -11 45 0 27 4 37 16 38 14 1 13 2 -1 6 -10 2 -18 9
-18 14 0 5 8 10 18 10 16 1 16 2 0 6 -10 2 -18 9 -18 14 0 5 8 10 18 10 16 1
16 2 0 6 -10 2 -18 9 -18 14 0 5 8 10 18 10 15 1 15 2 0 6 -9 2 -19 12 -21 21
-3 9 -5 -52 -6 -135 -1 -122 -4 -153 -15 -153 -16 0 -26 50 -26 134 0 54 -1
58 -14 40 -8 -10 -11 -21 -7 -24 12 -8 11 -50 -2 -50 -8 0 -8 -3 1 -12 7 -7
12 -22 12 -35 0 -17 -4 -21 -17 -16 -15 5 -14 3 2 -10 20 -16 20 -16 -2 -17
-22 0 -23 3 -23 87 0 109 -9 105 -12 -5 -1 -45 -5 -82 -10 -82 -8 0 -14 160
-9 245 3 67 20 139 41 173 24 39 42 42 35 5z m1162 -75 c12 -6 29 -26 38 -43
19 -41 19 -45 0 -45 -8 0 -15 -6 -15 -13 0 -7 -7 -22 -16 -33 -8 -10 -13 -13
-9 -6 3 6 2 12 -3 12 -6 0 -12 -7 -16 -15 -3 -8 -13 -15 -23 -15 -10 0 -25 -5
-33 -11 -11 -8 -6 -9 18 -4 47 10 88 -10 102 -48 24 -64 44 -184 43 -262 0
-88 -22 -159 -70 -223 -25 -33 -25 -35 -4 -17 39 34 90 153 91 215 1 23 2 23
11 7 6 -10 9 -34 7 -53 -2 -19 0 -34 4 -34 4 0 8 9 8 20 0 25 15 26 25 3 22
-54 24 -77 10 -110 -19 -44 -19 -54 0 -29 20 26 34 12 41 -43 l6 -48 72 27
c126 47 301 121 311 131 15 15 25 11 25 -10 0 -11 -6 -22 -12 -25 -10 -5 -10
-7 0 -12 7 -3 12 -26 12 -60 0 -54 0 -54 -27 -48 -36 9 -41 14 -17 15 15 1 13
3 -6 9 -25 8 -25 8 5 10 l30 2 -30 8 -30 8 28 1 c18 1 27 6 25 14 -9 25 -37
18 -53 -12 -8 -17 -20 -31 -25 -31 -18 0 -10 -20 8 -21 10 0 12 -3 4 -6 -6 -2
-10 -8 -7 -13 3 -4 -4 -6 -15 -3 -25 7 -102 -26 -93 -39 3 -6 -3 -8 -13 -5
-12 4 -57 -14 -114 -43 -52 -27 -92 -49 -87 -49 4 -1 48 19 97 44 94 47 105
51 95 35 -4 -6 4 -5 19 1 14 7 23 17 19 22 -4 6 0 8 11 4 9 -4 15 -3 12 2 -3
5 1 12 10 15 21 8 65 -4 58 -15 -3 -5 -1 -9 5 -9 5 0 12 -15 14 -32 l4 -33 2
35 c1 29 7 38 36 51 l34 16 3 -81 c2 -45 2 -83 1 -85 -1 -2 -20 -4 -43 -5
l-40 -1 22 -17 c13 -10 30 -18 39 -18 23 0 30 -11 18 -27 -9 -9 -8 -13 0 -13
6 0 11 -7 11 -15 0 -12 -10 -16 -42 -14 -24 1 -54 -3 -68 -8 -14 -6 -32 -8
-40 -5 -8 3 -12 1 -8 -3 4 -5 3 -14 -3 -22 -8 -9 -8 -13 -1 -13 6 0 14 5 17
10 3 6 17 10 30 10 13 0 27 5 30 10 7 11 45 13 69 4 21 -8 22 -64 1 -64 -8 0
-19 8 -24 19 -6 10 -18 22 -28 25 -13 5 -11 0 7 -21 14 -15 33 -34 43 -41 21
-16 22 -38 1 -46 -35 -14 -87 -5 -137 24 -33 19 -67 30 -88 29 -32 -1 -32 -2
10 -10 24 -5 62 -21 83 -35 30 -21 50 -27 93 -27 38 0 55 -4 55 -13 0 -20 -17
-26 -78 -25 -40 0 -74 8 -116 27 -76 34 -129 40 -232 24 -80 -13 -86 -12 -144
11 -33 13 -60 27 -60 32 0 4 12 13 26 19 22 10 36 8 87 -10 34 -12 78 -22 97
-21 31 1 29 2 -20 14 -30 7 -76 21 -102 30 l-48 17 -47 -30 c-27 -16 -58 -33
-70 -37 -13 -3 -23 -11 -23 -16 0 -5 -13 -9 -29 -9 -37 0 -61 -9 -61 -23 0 -7
4 -7 12 1 19 19 72 14 145 -14 121 -47 155 -52 262 -36 90 13 97 13 140 -7 25
-11 64 -25 85 -32 38 -11 123 -8 159 7 16 6 18 2 15 -32 l-3 -39 -130 4 c-92
2 -133 7 -140 17 -18 24 -59 33 -109 23 -26 -5 -51 -11 -56 -14 -20 -12 -147
-5 -190 10 -64 23 -184 78 -191 88 -3 5 -12 34 -19 65 -11 49 -10 57 4 68 13
9 14 13 4 18 -7 3 1 4 17 1 19 -4 25 -2 17 3 -17 12 41 37 59 26 8 -4 10 -3 5
4 -4 7 14 22 46 38 29 14 55 28 57 30 2 2 3 24 3 48 -2 32 2 45 14 50 10 4 18
0 21 -13 7 -28 30 -33 61 -15 24 13 12 12 -25 -3 -21 -8 -15 15 8 31 12 8 18
19 14 25 -3 6 -2 11 4 11 5 0 12 -6 14 -12 4 -8 8 -4 12 9 8 25 21 30 27 11 3
-9 9 -8 22 5 22 22 26 21 26 -3 0 -11 -12 -26 -27 -34 -37 -20 -21 -20 17 -1
23 12 30 22 30 45 0 16 5 32 10 35 6 3 10 -3 10 -14 0 -12 5 -21 10 -21 6 0
10 11 10 25 0 25 19 37 21 13 0 -7 5 -2 11 12 11 25 11 25 15 2 3 -12 9 -22
15 -22 6 0 8 11 5 26 -4 21 -1 25 14 21 12 -3 19 0 19 10 0 10 6 12 20 8 14
-5 20 -2 20 9 0 21 -2 20 -59 -9 -27 -13 -88 -40 -137 -61 -124 -50 -154 -65
-150 -73 2 -3 -6 -7 -17 -7 -40 -3 -198 -78 -196 -94 2 -28 -1 -32 -16 -20
-12 10 -15 10 -15 -4 0 -18 -8 -20 -29 -7 -11 7 -10 11 5 21 18 11 18 11 -1 5
-35 -11 -39 -10 -43 10 -2 16 8 24 50 39 29 10 76 28 103 41 28 12 76 28 109
34 61 11 197 72 177 79 -7 2 -20 -3 -29 -11 -27 -24 -117 -56 -178 -63 -31 -4
-61 -12 -67 -18 -15 -14 -142 -66 -162 -66 -8 0 -19 17 -25 43 -6 23 -16 58
-21 77 -5 19 -29 117 -54 218 -40 165 -44 188 -34 228 6 24 9 51 5 59 -3 9 -2
13 3 10 11 -6 25 31 16 44 -3 5 -1 12 4 15 5 4 15 23 22 44 13 42 46 82 67 82
28 0 69 39 80 78 24 80 112 117 189 80z m39 -134 c-5 -17 -3 -23 4 -19 5 3 10
16 11 28 0 12 3 16 6 9 8 -21 -6 -62 -22 -62 -21 0 -26 16 -14 44 16 33 23 33
15 0z m-546 -34 c6 -11 17 -20 24 -20 16 0 103 -48 111 -61 10 -15 -22 -10
-35 6 -7 8 -17 15 -22 15 -5 0 7 -15 26 -34 20 -18 36 -38 36 -44 0 -5 -14 3
-31 19 -18 16 -34 27 -37 24 -3 -3 3 -11 13 -19 20 -14 32 -86 14 -86 -5 0 -9
7 -9 15 0 8 -15 21 -33 29 -33 13 -86 68 -88 89 0 7 -2 23 -3 37 -6 49 14 67
34 30z m-743 -102 c-3 -8 -6 -5 -6 6 -1 11 2 17 5 13 3 -3 4 -12 1 -19z m1763
-8 c0 -14 -58 -42 -65 -31 -6 11 33 41 52 41 7 0 13 -4 13 -10z m-23 -72 c-3
-7 -5 -2 -5 12 0 14 2 19 5 13 2 -7 2 -19 0 -25z m-30 -10 c-3 -8 -6 -5 -6 6
-1 11 2 17 5 13 3 -3 4 -12 1 -19z m-1349 -11 c11 -13 10 -20 -23 -157 -8 -33
-35 -87 -67 -136 l-54 -81 -27 23 c-15 13 -45 29 -67 35 -22 7 -40 16 -40 20
0 16 64 81 87 90 14 5 21 14 17 20 -3 6 -7 44 -8 85 l-2 74 42 0 c23 0 49 6
56 13 27 28 69 34 86 14z m1162 3 c0 -5 -9 -14 -20 -20 -15 -8 -20 -8 -20 3 0
8 3 17 7 20 10 10 33 8 33 -3z m77 -32 c-3 -7 -5 -2 -5 12 0 14 2 19 5 13 2
-7 2 -19 0 -25z m-746 -5 c-12 -20 -14 -14 -5 12 4 9 9 14 11 11 3 -2 0 -13
-6 -23z m549 -7 c0 -16 -37 -29 -45 -16 -3 5 3 13 12 19 25 14 33 13 33 -3z
m110 -10 c0 -8 -4 -18 -10 -21 -5 -3 -10 3 -10 14 0 12 5 21 10 21 6 0 10 -6
10 -14z m30 -245 c0 -89 0 -89 -27 -99 -27 -8 -29 -7 -50 46 -23 55 -30 107
-15 115 4 3 21 2 39 0 l32 -5 4 -72 3 -71 2 88 c1 48 4 87 7 87 3 0 5 -40 5
-89z m107 -8 c-2 -21 -4 -6 -4 32 0 39 2 55 4 38 2 -18 2 -50 0 -70z m-1066
20 c-8 -15 -10 -15 -11 -2 0 17 10 32 18 25 2 -3 -1 -13 -7 -23z m1037 -26
c16 -27 16 -29 -2 -43 -31 -22 -36 -17 -36 32 0 51 12 54 38 11z m-1068 9
c-17 -15 -242 -96 -268 -96 -34 0 7 21 128 64 137 49 164 55 140 32z m-294
-126 c-10 -67 -11 -98 -4 -105 8 -7 9 -6 4 3 -8 14 3 16 23 3 9 -6 21 -5 30 1
18 11 101 -6 101 -21 0 -12 -20 -26 -55 -40 -23 -9 -24 -10 -5 -6 21 4 194
-44 275 -76 11 -4 42 -15 69 -25 44 -16 47 -19 30 -31 -24 -17 -9 -17 24 1 45
24 157 64 165 59 10 -6 9 -43 -3 -43 -5 0 -91 -38 -191 -85 -99 -47 -187 -85
-194 -85 -7 0 -28 6 -46 14 l-33 14 50 24 c27 14 61 28 77 32 15 3 27 11 27
16 0 15 -51 32 -77 27 -12 -2 -20 -1 -18 4 7 11 -62 32 -76 23 -7 -4 -9 -3 -6
3 4 6 -38 23 -99 42 l-105 32 23 20 23 19 -37 -16 c-54 -25 -66 -16 -70 56 -3
57 -1 63 28 91 20 19 31 40 32 59 1 27 44 107 50 92 1 -4 -4 -50 -12 -102z
m259 31 l50 -16 -4 -55 c-1 -30 -4 -56 -6 -58 -2 -2 -20 4 -41 13 -22 9 -66
25 -98 36 -33 11 -78 30 -100 41 l-41 21 65 22 c69 24 91 23 175 -4z m-425
-11 c0 -5 -2 -10 -4 -10 -3 0 -8 5 -11 10 -3 6 -1 10 4 10 6 0 11 -4 11 -10z
m41 -37 c13 -16 12 -17 -3 -4 -17 13 -22 21 -14 21 2 0 10 -8 17 -17z m1712 7
c7 0 6 -4 -3 -10 -8 -5 -22 -9 -30 -9 -12 0 -12 2 -1 6 11 5 11 7 0 15 -11 7
-9 8 4 4 10 -3 24 -6 30 -6z m-1848 -40 c-17 -27 -225 -106 -225 -86 0 7 37
27 83 45 45 17 91 36 102 41 27 12 47 12 40 0z m-11 -52 c-9 -32 -11 -33 -41
-19 l-28 13 25 14 c38 20 53 18 44 -8z m166 -43 c0 -34 -4 -45 -15 -45 -24 0
-28 25 -10 59 8 17 18 31 20 31 3 0 5 -20 5 -45z m-253 -12 c-3 -10 -5 -4 -5
12 0 17 2 24 5 18 2 -7 2 -21 0 -30z m-17 -4 c0 -17 -4 -28 -10 -24 -5 3 -10
17 -10 31 0 13 5 24 10 24 6 0 10 -14 10 -31z m-31 -11 c-2 -31 -2 -31 -6 -5
-2 15 -9 27 -15 27 -6 0 -8 -10 -4 -25 4 -14 2 -25 -4 -25 -11 0 -14 43 -3 53
17 18 33 5 32 -25z m96 22 c3 -5 2 -10 -4 -10 -5 0 -13 5 -16 10 -3 6 -2 10 4
10 5 0 13 -4 16 -10z m-148 -57 c-3 -10 -5 -2 -5 17 0 19 2 27 5 18 2 -10 2
-26 0 -35z m-20 15 c-3 -8 -6 -5 -6 6 -1 11 2 17 5 13 3 -3 4 -12 1 -19z
m1441 -4 c4 2 8 -6 8 -19 2 -20 -12 -30 -96 -69 -54 -25 -102 -46 -108 -46
-10 0 -25 70 -17 79 3 2 5 -3 5 -12 0 -10 6 -17 14 -17 8 0 17 -8 19 -17 3
-13 5 -11 6 6 1 15 6 21 14 18 7 -3 19 4 26 15 9 14 19 18 34 14 12 -3 32 -3
44 0 18 5 21 10 13 24 -6 10 -10 23 -10 29 0 18 18 12 23 -6 3 -13 5 -11 7 7
2 18 4 20 7 7 2 -9 8 -15 11 -13z m-59 -21 c0 -25 -1 -26 -9 -8 -12 27 -12 35
0 35 6 0 10 -12 9 -27z m716 17 c3 -5 -1 -10 -9 -10 -9 0 -16 5 -16 10 0 6 4
10 9 10 6 0 13 -4 16 -10z m-745 -15 c0 -8 -4 -15 -10 -15 -5 0 -10 7 -10 15
0 8 5 15 10 15 6 0 10 -7 10 -15z m-930 -15 c0 -5 -7 -7 -15 -4 -8 4 -15 8
-15 10 0 2 7 4 15 4 8 0 15 -4 15 -10z m727 -80 c-3 -10 -1 -20 4 -22 5 -2 18
-38 29 -82 20 -75 20 -79 3 -92 -10 -7 -40 -14 -68 -15 l-50 -1 48 -8 c27 -5
60 -16 75 -26 l27 -17 -23 26 c-16 17 -20 27 -12 32 18 11 28 -5 36 -55 l7
-45 -28 28 c-28 28 -71 45 -82 33 -4 -3 2 -6 13 -6 22 0 64 -26 64 -41 0 -5
-26 -9 -58 -9 -91 0 -170 48 -84 51 26 1 30 3 13 6 -19 4 -21 7 -10 15 10 7 9
8 -6 3 -179 -65 -221 -76 -300 -73 l-80 3 36 17 c20 9 48 19 62 22 26 5 68 24
77 36 6 7 187 96 268 130 29 13 51 25 48 27 -2 3 -18 -3 -36 -12 -18 -9 -34
-15 -36 -13 -2 2 -6 22 -9 44 l-5 39 14 -35 c8 -20 15 -27 15 -17 1 10 8 20
18 24 14 5 13 8 -6 15 -12 4 -19 13 -16 19 4 6 13 8 21 5 7 -3 16 -1 19 4 10
17 18 11 12 -10z m-367 -30 c8 -5 11 -10 5 -10 -5 0 -17 5 -25 10 -8 5 -10 10
-5 10 6 0 17 -5 25 -10z m275 -10 c-3 -5 -11 -10 -16 -10 -6 0 -7 5 -4 10 3 6
11 10 16 10 6 0 7 -4 4 -10z m-15 -25 c13 4 20 0 22 -12 3 -14 -20 -29 -107
-72 -150 -72 -335 -151 -357 -151 -38 0 -15 17 55 40 39 14 74 29 76 34 2 4 7
2 12 -5 7 -11 9 -10 9 4 0 11 15 25 43 37 38 16 39 18 13 17 -18 -1 -30 4 -33
13 -4 13 -3 13 6 1 8 -12 14 -13 35 -3 22 10 26 9 26 -3 0 -19 7 -19 26 0 12
12 12 15 2 16 -10 0 -10 2 1 6 11 5 11 7 0 14 -12 8 -11 11 1 19 24 16 33 12
28 -15 -4 -17 -1 -25 8 -25 8 0 14 9 14 21 0 15 5 20 23 17 18 -2 21 1 19 19
-2 12 2 24 8 28 5 3 10 0 10 -7 0 -7 8 -1 17 12 15 22 18 23 21 7 3 -12 9 -16
22 -12z m477 -66 c42 -18 58 -20 128 -13 142 14 195 10 251 -19 60 -31 138
-43 177 -28 22 8 27 8 27 -4 0 -43 -121 -47 -231 -9 -63 22 -82 25 -129 18
-113 -16 -191 -11 -260 18 -36 14 -74 29 -85 33 l-20 7 20 8 c34 14 71 11 122
-11z m-1439 -108 c19 -23 32 -47 30 -53 -3 -7 -23 15 -46 49 -23 34 -46 65
-52 68 -5 3 -10 12 -10 18 1 12 11 1 78 -82z m69 -29 c9 -12 14 -24 12 -27 -5
-5 -99 111 -99 122 1 9 61 -58 87 -95z m539 63 c2 -29 -4 -31 -22 -7 -12 16
-13 15 -14 -8 0 -16 -3 -20 -8 -13 -6 9 -22 8 -67 -7 -33 -11 -48 -18 -32 -15
36 7 35 -8 -3 -22 -28 -10 -30 -10 -30 10 0 18 15 27 83 53 45 17 84 32 87 33
3 0 6 -10 6 -24z m-648 -39 c18 -25 29 -46 24 -46 -6 0 -21 17 -33 38 -13 20
-28 43 -33 51 -21 33 12 -1 42 -43z m122 17 c36 -55 45 -72 20 -43 -39 47 -61
80 -53 80 4 0 19 -17 33 -37z m90 -67 c0 -12 -5 -6 -43 46 -39 53 -33 59 8 7
19 -24 35 -48 35 -53z m1133 49 c42 -19 83 -35 91 -35 9 0 16 -4 16 -10 0 -6
-36 -10 -89 -10 l-89 0 -11 31 c-13 38 -14 59 -2 59 4 0 42 -16 84 -35z
m-1052 -7 c22 -28 25 -45 3 -28 -17 15 -38 50 -28 50 3 0 14 -10 25 -22z
m-317 -14 c9 -24 2 -26 -12 -4 -7 11 -8 20 -3 20 5 0 12 -7 15 -16z m466 2 c0
-2 -7 -7 -16 -10 -8 -3 -12 -2 -9 4 6 10 25 14 25 6z m518 -12 c44 -12 21 -24
-45 -23 -66 1 -67 1 -38 14 34 16 50 17 83 9z m808 -9 c17 -13 10 -14 -76 -14
-91 1 -93 1 -60 14 47 18 112 18 136 0z"/>
<path d="M955 3630 c-3 -6 2 -13 12 -17 21 -7 52 -43 53 -60 0 -8 -13 -13 -30
-13 -16 0 -30 -4 -30 -10 0 -13 220 -13 240 0 17 11 9 13 -32 10 -26 -1 -28 1
-28 39 0 39 2 41 30 41 17 0 30 5 30 10 0 13 -237 13 -245 0z m105 -27 c0 -35
-16 -45 -28 -19 -11 25 -7 36 15 36 7 0 13 -8 13 -17z m60 -23 c0 -36 -2 -40
-25 -40 -27 0 -31 13 -15 54 16 42 40 33 40 -14z"/>
<path d="M1895 2649 c-4 -6 -4 -25 -1 -42 3 -18 0 -74 -7 -124 -10 -69 -10
-93 -2 -93 7 0 13 18 14 43 3 85 16 142 31 142 18 0 28 -35 29 -111 1 -54 -2
-62 -21 -73 -14 -7 -16 -9 -5 -6 10 3 33 6 50 6 18 1 24 3 15 6 -13 3 -18 22
-24 81 -4 42 -7 95 -6 117 1 21 -4 45 -10 52 -13 16 -54 17 -63 2z m55 -14
c15 -18 6 -45 -15 -45 -18 0 -30 24 -21 45 7 19 20 19 36 0z"/>
<path d="M205 2510 c3 -5 8 -10 11 -10 2 0 4 5 4 10 0 6 -5 10 -11 10 -5 0 -7
-4 -4 -10z"/>
<path d="M239 2490 c5 -15 15 -24 25 -22 9 2 16 -2 16 -9 0 -6 7 -17 16 -24
22 -15 10 -55 -17 -55 -12 0 -19 -7 -18 -17 0 -11 3 -13 6 -5 2 6 11 12 19 12
8 0 19 11 25 24 10 20 8 30 -10 55 -12 17 -27 31 -33 31 -6 0 -17 8 -24 18
-13 15 -13 14 -5 -8z"/>
<path d="M1803 2343 c9 -2 25 -2 35 0 9 3 1 5 -18 5 -19 0 -27 -2 -17 -5z"/>
<path d="M426 2044 c-4 -9 -4 -19 -1 -22 2 -3 7 3 11 12 4 9 4 19 1 22 -2 3
-7 -3 -11 -12z"/>
<path d="M766 1894 c-4 -10 -1 -14 6 -12 15 5 23 28 10 28 -5 0 -13 -7 -16
-16z"/>
<path d="M750 1825 c-8 -9 -8 -15 -2 -15 12 0 26 19 19 26 -2 2 -10 -2 -17
-11z"/>
<path d="M614 1615 c11 -8 27 -15 35 -15 13 1 12 4 -3 15 -11 8 -27 15 -35 15
-13 -1 -12 -4 3 -15z"/>
<path d="M1010 2223 c0 -5 18 -8 39 -8 22 -1 37 3 35 7 -7 10 -74 11 -74 1z"/>
<path d="M1038 2183 c7 -3 16 -2 19 1 4 3 -2 6 -13 5 -11 0 -14 -3 -6 -6z"/>
<path d="M1557 2081 c4 -16 -1 -20 -29 -24 l-33 -5 35 2 c28 1 36 5 38 24 2
12 -1 22 -6 22 -6 0 -8 -9 -5 -19z"/>
<path d="M1448 2053 c7 -2 12 -22 12 -44 l0 -39 -42 0 c-39 0 -40 1 -22 15 18
14 18 14 -3 8 -20 -5 -23 -1 -23 26 0 17 -3 31 -7 31 -5 0 -6 -53 -3 -117 4
-99 5 -106 8 -45 2 54 6 72 17 72 12 0 15 -36 18 -217 l2 -218 3 218 2 217 24
0 c30 0 43 16 48 63 4 34 2 37 -22 36 -14 0 -19 -3 -12 -6z"/>
<path d="M1460 1865 c0 -49 2 -86 5 -83 8 7 10 157 2 164 -4 4 -7 -32 -7 -81z"/>
<path d="M1464 1645 c0 -66 1 -92 3 -57 2 34 2 88 0 120 -2 31 -3 3 -3 -63z"/>
<path d="M1222 1570 c0 -14 2 -19 5 -12 2 6 2 18 0 25 -3 6 -5 1 -5 -13z"/>
<path d="M1221 1514 c0 -11 3 -14 6 -6 3 7 2 16 -1 19 -3 4 -6 -2 -5 -13z"/>
<path d="M1216 1433 c-4 -9 -3 -20 2 -25 6 -6 10 1 10 16 0 30 -3 32 -12 9z"/>
<path d="M1222 1350 c0 -14 2 -19 5 -12 2 6 2 18 0 25 -3 6 -5 1 -5 -13z"/>
<path d="M270 2250 l-65 -7 60 -1 c33 0 69 3 80 8 22 9 19 9 -75 0z"/>
<path d="M138 2243 c12 -2 30 -2 40 0 9 3 -1 5 -23 4 -22 0 -30 -2 -17 -4z"/>
<path d="M298 2223 c6 -2 18 -2 25 0 6 3 1 5 -13 5 -14 0 -19 -2 -12 -5z"/>
<path d="M186 2212 c-2 -4 4 -9 15 -9 10 -1 19 2 19 8 0 11 -27 12 -34 1z"/>
<path d="M230 2210 c0 -5 5 -10 10 -10 6 0 10 5 10 10 0 6 -4 10 -10 10 -5 0
-10 -4 -10 -10z"/>
<path d="M288 2203 c12 -2 32 -2 45 0 12 2 2 4 -23 4 -25 0 -35 -2 -22 -4z"/>
<path d="M60 2170 c25 -8 87 -13 79 -6 -2 2 -26 6 -54 9 -34 4 -42 3 -25 -3z"/>
<path d="M250 2170 c-34 -7 -34 -7 -5 -8 17 0 41 4 55 8 33 11 0 11 -50 0z"/>
<path d="M168 2143 c7 -3 16 -2 19 1 4 3 -2 6 -13 5 -11 0 -14 -3 -6 -6z"/>
<path d="M370 710 c0 -6 8 -10 18 -10 21 -1 52 -23 52 -39 0 -6 5 -11 10 -11
18 0 11 29 -9 40 -40 21 -71 30 -71 20z"/>
<path d="M1253 2193 c9 -2 25 -2 35 0 9 3 1 5 -18 5 -19 0 -27 -2 -17 -5z"/>
<path d="M1973 2180 c0 -25 2 -35 4 -22 2 12 2 32 0 45 -2 12 -4 2 -4 -23z"/>
<path d="M1971 2114 c0 -11 3 -14 6 -6 3 7 2 16 -1 19 -3 4 -6 -2 -5 -13z"/>
<path d="M1685 1927 c2 -60 6 -111 9 -114 8 -9 6 162 -3 194 -5 17 -7 -13 -6
-80z"/>
<path d="M1965 1650 c0 -212 1 -298 2 -193 2 106 2 280 0 385 -1 106 -2 20 -2
-192z"/>
<path d="M1687 1793 c-10 -10 -8 -123 2 -123 6 0 11 129 5 130 0 0 -4 -3 -7
-7z"/>
<path d="M1784 1600 c0 -113 2 -159 3 -102 2 56 2 148 0 205 -1 56 -3 10 -3
-103z"/>
<path d="M1884 1620 c0 -58 1 -81 3 -52 2 28 2 76 0 105 -2 28 -3 5 -3 -53z"/>
<path d="M1691 1594 c0 -11 3 -14 6 -6 3 7 2 16 -1 19 -3 4 -6 -2 -5 -13z"/>
<path d="M1693 1520 c0 -30 2 -43 4 -27 2 15 2 39 0 55 -2 15 -4 2 -4 -28z"/>
<path d="M1690 1195 c0 -148 2 -266 5 -263 7 7 7 520 0 526 -3 3 -5 -115 -5
-263z"/>
<path d="M1961 1244 c0 -11 3 -14 6 -6 3 7 2 16 -1 19 -3 4 -6 -2 -5 -13z"/>
<path d="M1957 1200 c-3 -11 -1 -20 4 -20 5 0 9 9 9 20 0 11 -2 20 -4 20 -2 0
-6 -9 -9 -20z"/>
<path d="M1701 904 c0 -11 3 -14 6 -6 3 7 2 16 -1 19 -3 4 -6 -2 -5 -13z"/>
<path d="M2117 2093 c-4 -3 -7 -54 -7 -111 0 -58 2 -103 4 -101 4 4 15 219 11
219 -1 0 -5 -3 -8 -7z"/>
<path d="M2114 1580 c0 -162 2 -229 3 -147 2 81 2 213 0 295 -1 81 -3 14 -3
-148z"/>
<path d="M898 1663 c7 -3 16 -2 19 1 4 3 -2 6 -13 5 -11 0 -14 -3 -6 -6z"/>
<path d="M797 1614 c-3 -4 -3 -36 0 -73 6 -68 25 -111 49 -111 8 0 14 -4 14
-10 0 -5 4 -10 9 -10 4 0 6 11 3 25 -4 25 -22 35 -22 13 0 -6 -9 -2 -20 9 -15
16 -20 38 -22 92 -2 39 -3 71 -4 71 0 0 -3 -3 -7 -6z"/>
<path d="M920 1229 c0 -5 5 -7 10 -4 6 3 10 8 10 11 0 2 -4 4 -10 4 -5 0 -10
-5 -10 -11z"/>
<path d="M938 919 c-10 -5 -18 -15 -18 -21 0 -7 7 -5 18 4 9 9 24 18 32 21 13
5 13 5 0 6 -8 0 -23 -4 -32 -10z"/>
<path d="M965 900 c-3 -6 1 -7 9 -4 18 7 21 14 7 14 -6 0 -13 -4 -16 -10z"/>
<path d="M913 865 c-3 -9 -3 -18 -1 -21 3 -3 8 4 11 16 6 23 -1 27 -10 5z"/>
<path d="M885 819 c-4 -6 -5 -12 -2 -15 2 -3 7 2 10 11 7 17 1 20 -8 4z"/>
<path d="M1082 750 c0 -14 2 -19 5 -12 2 6 2 18 0 25 -3 6 -5 1 -5 -13z"/>
<path d="M861 734 c0 -11 3 -14 6 -6 3 7 2 16 -1 19 -3 4 -6 -2 -5 -13z"/>
<path d="M948 723 c7 -3 16 -2 19 1 4 3 -2 6 -13 5 -11 0 -14 -3 -6 -6z"/>
<path d="M991 726 c12 -10 60 -16 54 -6 -3 5 -18 10 -32 10 -15 0 -24 -2 -22
-4z"/>
<path d="M1065 645 c-10 -102 -1 -105 11 -5 5 44 6 80 3 80 -4 0 -10 -34 -14
-75z"/>
<path d="M850 701 c0 -5 7 -12 16 -15 14 -5 15 -4 4 9 -14 17 -20 19 -20 6z"/>
<path d="M898 693 c7 -3 16 -2 19 1 4 3 -2 6 -13 5 -11 0 -14 -3 -6 -6z"/>
<path d="M901 664 c0 -11 3 -14 6 -6 3 7 2 16 -1 19 -3 4 -6 -2 -5 -13z"/>
<path d="M882 655 c0 -11 4 -31 8 -45 l8 -25 0 25 c0 14 -3 34 -8 45 l-9 20 1
-20z"/>
<path d="M900 548 c0 -9 5 -20 10 -23 15 -10 12 -23 -7 -28 -10 -3 7 -5 37 -5
50 0 52 1 23 9 -19 6 -39 21 -47 37 -10 18 -15 22 -16 10z"/>
<path d="M1061 528 c-1 -14 -7 -29 -13 -31 -8 -4 -7 -6 3 -6 9 -1 22 -8 29
-16 7 -8 22 -15 34 -15 12 0 27 -5 34 -12 6 -6 14 -9 17 -7 3 3 -7 11 -23 18
-15 8 -34 17 -42 21 -8 4 -20 22 -27 41 -11 32 -12 32 -12 7z"/>
<path d="M575 1480 c3 -5 8 -10 11 -10 2 0 4 5 4 10 0 6 -5 10 -11 10 -5 0 -7
-4 -4 -10z"/>
<path d="M316 1464 c-7 -19 -19 -204 -11 -189 5 12 24 199 20 203 -1 2 -5 -5
-9 -14z"/>
<path d="M345 1380 c-1 -102 0 -103 9 -42 5 37 5 79 0 104 -7 35 -9 24 -9 -62z"/>
<path d="M616 1350 c2 -14 8 -45 13 -70 l9 -45 0 40 c1 22 -5 54 -13 70 -12
26 -14 27 -9 5z"/>
<path d="M1399 1389 c-20 -22 -44 -59 -52 -82 -8 -23 -18 -50 -22 -59 -4 -10
-3 -18 1 -18 5 0 22 32 38 70 18 44 41 81 63 100 18 17 28 30 22 30 -7 0 -29
-18 -50 -41z"/>
<path d="M1400 1350 c-16 -30 -51 -132 -46 -137 2 -2 17 31 34 74 30 74 36
109 12 63z"/>
<path d="M1266 1210 c-20 -22 -36 -46 -36 -53 0 -6 6 -3 12 8 6 11 24 35 41
53 17 17 28 32 25 32 -3 0 -22 -18 -42 -40z"/>
<path d="M1530 782 c0 -6 -21 -37 -47 -69 -25 -32 -34 -47 -20 -34 35 32 81
100 73 108 -3 3 -6 1 -6 -5z"/>
<path d="M1978 708 c-42 -18 -66 -48 -38 -48 6 0 10 7 10 16 0 10 5 14 15 10
9 -3 18 1 21 9 4 8 10 13 14 10 4 -3 13 2 20 10 16 19 15 19 -42 -7z"/>
<path d="M2000 575 c-19 -22 -8 -25 13 -3 9 10 13 18 8 18 -5 0 -14 -7 -21
-15z"/>
<path d="M1880 550 c-9 -6 -10 -10 -3 -10 6 0 15 5 18 10 8 12 4 12 -15 0z"/>
<path d="M1830 525 c-14 -8 -20 -14 -14 -15 5 0 19 7 30 15 24 18 16 19 -16 0z"/>
<path d="M1530 465 c0 -27 7 -30 30 -15 10 6 11 10 3 10 -7 0 -13 7 -13 15 0
8 -4 15 -10 15 -5 0 -10 -11 -10 -25z"/>
<path d="M1640 460 c-8 -5 -10 -10 -5 -10 6 0 17 5 25 10 8 5 11 10 5 10 -5 0
-17 -5 -25 -10z"/>
<path d="M1565 431 c-22 -11 -35 -19 -30 -19 14 -1 93 36 80 37 -5 0 -28 -8
-50 -18z"/>
<path d="M1995 429 c-22 -10 -52 -19 -66 -19 -14 0 -40 -7 -57 -16 -32 -15
-44 -28 -18 -18 7 3 30 -6 51 -20 21 -14 45 -26 54 -25 10 0 6 4 -9 10 -28 11
-60 38 -60 51 0 15 55 8 88 -12 37 -23 42 -24 42 -11 0 5 -9 13 -20 16 -30 9
-25 22 18 44 47 25 30 26 -23 0z"/>
<path d="M1510 380 c-8 -5 -10 -10 -5 -10 6 0 17 5 25 10 8 5 11 10 5 10 -5 0
-17 -5 -25 -10z"/>
<path d="M2058 383 c12 -2 30 -2 40 0 9 3 -1 5 -23 4 -22 0 -30 -2 -17 -4z"/>
<path d="M1450 355 c-14 -8 -20 -14 -15 -14 6 0 21 6 35 14 14 8 21 14 15 14
-5 0 -21 -6 -35 -14z"/>
<path d="M1765 350 c-39 -26 -25 -26 17 0 18 11 29 20 23 20 -5 0 -23 -9 -40
-20z"/>
<path d="M1852 330 c17 -16 40 -30 52 -29 21 0 21 0 -1 9 -12 5 -31 18 -42 29
-12 12 -25 21 -31 21 -5 0 4 -13 22 -30z"/>
<path d="M1648 313 c-10 -2 -18 -9 -18 -14 0 -6 7 -6 19 1 29 15 53 12 81 -10
18 -14 39 -19 75 -18 l50 1 -50 6 c-27 3 -61 14 -75 24 -24 17 -47 19 -82 10z"/>
<path d="M1938 293 c6 -2 18 -2 25 0 6 3 1 5 -13 5 -14 0 -19 -2 -12 -5z"/>
<path d="M1050 1152 c0 -10 50 -35 57 -28 3 2 -9 12 -26 21 -17 8 -31 12 -31
7z"/>
<path d="M570 470 c0 -5 5 -10 11 -10 5 0 7 5 4 10 -3 6 -8 10 -11 10 -2 0 -4
-4 -4 -10z"/>
<path d="M890 300 c-8 -5 -10 -10 -5 -10 6 0 17 5 25 10 8 5 11 10 5 10 -5 0
-17 -5 -25 -10z"/>
<path d="M1015 159 c-55 -27 -94 -49 -87 -49 14 0 192 88 192 95 0 6 10 11
-105 -46z"/>
</g>
</svg>
