<?xml version="1.0" standalone="no"?>
<!DOCTYPE svg PUBLIC "-//W3C//DTD SVG 20010904//EN"
 "http://www.w3.org/TR/2001/REC-SVG-20010904/DTD/svg10.dtd">
<svg version="1.0" xmlns="http://www.w3.org/2000/svg"
 width="218.000000pt" height="375.000000pt" viewBox="0 0 218.000000 375.000000"
 preserveAspectRatio="xMidYMid meet">
<metadata>
Created by potrace 1.16, written by Peter Selinger 2001-2019
</metadata>
<g transform="translate(0.000000,375.000000) scale(0.100000,-0.100000)"
fill="#000000" stroke="none">
<path d="M660 3740 l-604 -5 -7 -40 c-15 -93 -26 -961 -31 -2655 l-3 -1015 95
-5 c52 -3 532 -5 1065 -5 l970 0 1 855 c1 470 4 902 7 960 7 102 20 1131 21
1635 l1 249 -35 8 c-19 4 -201 10 -405 13 -203 3 -392 7 -420 8 -27 1 -322 0
-655 -3z m485 -25 c495 -3 914 -7 931 -9 77 -10 74 -4 75 -139 1 -67 1 -125 0
-130 -1 -8 -8 -558 -17 -1479 l-6 -588 -48 0 c-61 0 -80 7 -80 31 0 20 19 25
36 10 5 -4 27 -11 49 -14 37 -6 38 -5 21 8 -11 8 -26 15 -34 15 -7 0 -11 4 -7
10 3 5 12 7 19 4 7 -3 18 2 25 10 10 12 6 15 -21 21 -18 4 -41 16 -52 27 -13
14 -21 16 -26 9 -4 -7 -7 2 -7 19 0 17 -5 36 -11 42 -13 13 -15 -16 -12 -133
1 -54 -1 -58 -33 -83 -19 -14 -36 -26 -38 -26 -9 0 2 473 12 560 21 184 14
167 71 174 46 6 49 8 46 34 -3 25 -6 27 -60 30 l-56 3 -7 71 c-4 39 -11 84
-15 100 -5 16 -5 30 1 33 14 9 11 52 -6 69 -32 32 -105 -23 -76 -58 7 -8 7
-33 1 -77 -5 -35 -11 -82 -12 -104 l-3 -40 -63 -3 c-62 -3 -63 -3 -60 -30 3
-25 6 -27 59 -30 l56 -3 7 -76 c3 -42 6 -202 6 -357 l-1 -281 -24 30 c-28 34
-36 97 -10 75 9 -7 18 -10 22 -6 8 7 -36 46 -51 45 -8 0 -8 -2 0 -5 21 -9 1
-70 -38 -116 -22 -27 -46 -48 -53 -48 -10 0 -11 54 -8 263 3 144 9 266 14 271
5 6 9 34 9 63 l0 53 61 0 c60 0 60 0 57 28 -3 26 -6 27 -60 30 -37 2 -58 7
-58 15 0 7 -4 50 -10 96 -6 58 -6 90 1 103 8 14 8 27 1 43 -9 19 -6 26 18 43
l28 21 29 -36 c26 -32 32 -34 51 -24 29 15 28 33 -3 69 -14 17 -25 34 -25 39
0 5 29 38 65 73 55 55 65 70 63 95 -2 20 -9 31 -21 33 -28 6 -67 -7 -67 -21 0
-7 -25 -27 -55 -45 -44 -25 -57 -28 -61 -17 -5 13 45 97 66 110 6 3 10 19 10
35 0 55 -69 62 -85 9 -6 -19 -9 -20 -22 -6 -14 14 -11 21 26 73 22 31 41 62
41 68 0 6 9 17 20 24 40 25 16 102 -27 88 -10 -4 -51 -40 -92 -81 l-75 -74
-34 31 -35 30 -25 -26 -26 -26 32 -33 c18 -18 32 -36 32 -41 0 -23 -134 -189
-144 -179 -13 13 -5 43 17 66 12 12 23 28 24 34 14 69 13 76 -10 99 -21 21
-23 30 -19 98 l4 74 -40 27 c-51 34 -134 47 -178 29 -32 -14 -33 -14 -70 -142
-2 -7 -7 -11 -11 -10 -18 5 -53 -15 -54 -30 -1 -9 -2 -21 -4 -27 -1 -5 -3 -19
-3 -30 -1 -11 -20 -44 -41 -72 l-39 -52 -43 29 c-54 36 -66 37 -81 4 -10 -21
-9 -27 2 -34 8 -5 24 -16 35 -25 19 -15 18 -15 -20 -9 -22 4 -42 8 -44 10 -7
7 22 148 35 167 24 36 -3 87 -47 87 -33 0 -54 -30 -45 -66 5 -18 -29 -128 -50
-162 -1 -2 -26 7 -54 19 -51 22 -53 22 -66 4 -23 -31 -16 -43 36 -60 45 -15
50 -19 44 -38 -4 -12 -8 -44 -9 -72 -1 -27 -16 -102 -34 -165 -151 -557 -148
-547 -187 -583 -33 -30 -35 -35 -26 -67 l10 -35 1 41 c1 39 23 75 37 61 11
-11 -5 -39 -18 -31 -8 5 -9 -5 -5 -39 5 -33 3 -46 -5 -44 -15 3 -117 -181
-118 -210 0 -26 22 -30 40 -8 21 26 22 10 4 -55 -12 -42 -14 -64 -7 -71 18
-18 49 7 62 51 6 22 17 40 24 38 28 -5 66 19 137 85 41 38 77 74 79 81 2 6
-14 -5 -35 -24 l-39 -35 34 37 c19 21 38 35 42 32 4 -2 23 9 41 25 30 26 38
28 85 24 41 -4 61 -1 93 16 40 21 40 21 60 1 28 -28 44 -25 81 14 17 19 41 36
53 39 11 3 52 16 91 31 38 14 76 26 84 26 12 0 13 -31 8 -195 -4 -118 -3 -195
2 -195 6 0 8 17 6 38 -3 20 -2 29 1 19 3 -11 12 -16 20 -13 8 3 14 -1 14 -8 0
-8 -5 -16 -11 -18 -13 -4 36 -131 57 -149 11 -9 11 -15 3 -25 -13 -16 -40 -18
-54 -5 -6 5 -43 11 -82 13 -40 2 -67 0 -60 -4 8 -4 37 -8 65 -10 29 -2 52 -5
52 -8 0 -28 -183 -50 -249 -29 -60 19 -127 93 -152 167 -30 89 -92 156 -146
156 -21 1 -48 -3 -60 -7 -20 -7 -19 -5 6 22 24 25 34 29 69 27 26 -2 39 1 35
7 -8 13 38 2 95 -23 23 -11 45 -27 49 -37 6 -16 37 -61 95 -136 23 -31 78 -64
78 -47 0 5 -6 10 -13 10 -25 0 -130 128 -150 183 -11 29 -151 85 -163 66 -4
-6 -11 -5 -20 2 -13 10 -12 15 7 36 13 12 18 23 12 23 -5 0 -32 -24 -59 -52
-27 -29 -61 -61 -76 -70 -31 -20 -53 -76 -69 -176 -12 -79 -26 -95 -63 -72
-22 14 -42 19 -114 27 -31 4 -50 0 -70 -13 -15 -11 -40 -24 -55 -31 l-28 -12
7 37 c4 20 11 48 16 62 7 19 6 22 -2 14 -6 -7 -17 -35 -23 -64 -7 -30 -18 -55
-25 -58 -7 -2 -12 0 -11 5 4 23 -3 23 -22 -1 -18 -23 -19 -33 -12 -93 9 -78
-9 -70 148 -58 109 8 108 8 128 7 24 -3 21 -18 -4 -25 -12 -3 -18 -10 -15 -15
3 -6 0 -13 -6 -15 -10 -4 -9 -8 2 -16 13 -9 12 -11 -4 -11 -20 0 -20 0 0 -15
18 -13 18 -14 -6 -9 -24 5 -24 5 -6 -10 11 -9 15 -16 9 -16 -5 0 -10 -13 -11
-29 -1 -40 -45 -122 -91 -171 l-39 -41 -87 3 -87 3 -5 67 c-2 39 0 69 6 72 6
4 7 14 4 23 -5 13 -2 15 11 10 42 -16 238 -31 215 -16 -8 5 -46 9 -84 9 -39 0
-75 4 -80 9 -6 5 -21 11 -35 13 -20 2 -26 10 -28 34 l-3 30 73 -8 c77 -9 198
-7 198 2 0 3 -57 7 -127 8 -70 2 -132 7 -139 13 -7 5 -10 18 -7 29 4 15 12 18
37 15 27 -4 26 -3 -8 8 -30 10 -36 16 -25 22 8 5 25 8 39 7 23 -1 23 -1 5 7
-14 7 -16 10 -5 11 8 1 3 6 -11 11 -44 16 -46 99 -3 99 8 0 14 5 14 10 0 7 -6
7 -19 0 -11 -5 -21 -10 -23 -10 -2 0 -2 71 -1 158 2 86 5 551 7 1032 3 481 9
979 14 1105 6 127 11 258 11 293 l1 63 88 -6 c48 -3 492 -8 987 -10z m64 -796
c17 -6 31 -17 31 -25 0 -8 10 -14 23 -14 16 0 18 3 9 9 -11 6 -10 10 4 15 11
4 21 1 26 -9 5 -8 15 -15 22 -15 20 0 24 -18 18 -83 -4 -49 -7 -57 -21 -51
-35 14 -87 26 -115 27 -27 0 -50 -19 -40 -34 2 -4 0 -10 -6 -14 -6 -4 -8 -11
-5 -16 7 -11 -12 -11 -40 1 -21 8 -21 8 25 23 10 4 8 6 -6 6 -12 1 -24 9 -28
19 -3 9 -9 22 -12 29 -3 6 7 19 23 28 27 15 27 16 3 10 -24 -5 -24 -4 2 8 26
12 27 14 11 30 -16 16 -16 17 7 18 23 0 23 1 5 9 -17 7 -17 9 -2 9 9 1 17 8
17 16 0 18 7 18 49 4z m536 -59 c0 -16 -6 -26 -19 -28 -25 -5 -39 12 -31 38
10 31 50 24 50 -10z m-52 -38 c16 -17 14 -22 -19 -75 -20 -31 -41 -57 -47 -57
-7 0 -25 11 -41 25 l-30 26 49 49 c54 55 64 59 88 32z m-903 -46 c20 -26 8
-61 -22 -64 -35 -4 -60 37 -38 63 16 19 44 19 60 1z m780 -65 c74 -67 80 -75
66 -89 -14 -14 -17 -14 -28 -1 -7 8 -35 33 -62 55 -107 86 -102 80 -87 98 8 9
18 15 22 14 4 -2 45 -36 89 -77z m-801 -20 c11 -7 11 -18 1 -64 -17 -75 -21
-80 -60 -72 -28 6 -31 10 -25 33 12 50 44 112 57 112 7 0 19 -4 27 -9z m774
-36 c24 -21 26 -27 15 -45 -7 -11 -19 -18 -27 -15 -9 3 -11 0 -7 -10 7 -20
-13 -19 -36 2 -13 11 -18 12 -18 3 0 -7 -35 -51 -77 -98 -43 -47 -114 -126
-158 -176 -126 -144 -330 -370 -454 -504 -63 -67 -112 -125 -109 -127 3 -3 27
18 53 47 26 29 75 82 109 118 55 58 157 172 241 269 17 19 55 62 85 95 30 34
95 107 144 164 85 97 111 116 111 79 0 -13 -230 -268 -535 -592 -42 -44 -99
-104 -126 -134 -29 -31 -61 -55 -73 -56 -14 -1 -57 -37 -113 -96 -128 -132
-91 -87 118 145 98 110 201 224 228 255 50 58 91 105 241 276 48 55 98 109
111 120 13 12 24 24 24 29 0 11 31 50 112 138 50 54 76 75 87 70 14 -5 14 -3
3 10 -11 14 -11 20 0 37 16 26 17 26 51 -4z m205 -4 c5 -30 -10 -45 -37 -36
-13 4 -21 15 -21 30 0 40 53 46 58 6z m-422 -47 c4 -16 2 -29 -5 -33 -9 -6 -9
-15 -1 -35 14 -38 13 -47 -7 -44 -11 2 -17 -2 -15 -11 2 -10 -5 -12 -28 -8
-17 4 -30 2 -30 -3 0 -8 19 -14 40 -12 3 0 4 -15 2 -34 -2 -19 -7 -34 -9 -34
-3 0 -30 14 -59 31 -60 34 -67 33 -28 -6 28 -28 27 -57 -3 -104 -14 -21 -20
-23 -70 -18 -31 3 -61 11 -66 16 -16 16 -31 13 -18 -3 14 -17 98 -39 113 -30
6 4 9 1 6 -7 -4 -10 -20 -13 -57 -11 -40 2 -51 -1 -51 -13 0 -24 -16 -17 -44
20 -26 33 -26 35 -14 100 10 51 16 65 30 65 11 0 18 -7 18 -17 0 -13 -3 -14
-8 -6 -13 21 -35 -53 -23 -74 9 -15 11 -12 12 17 l1 35 8 -30 c7 -28 8 -28 9
-5 2 38 47 127 70 139 l21 11 -21 21 c-11 11 -17 25 -13 31 4 7 10 5 16 -6 11
-20 32 -21 24 -1 -3 8 -1 15 3 15 5 0 11 -5 13 -12 3 -7 11 -9 24 -3 10 4 24
7 29 7 14 -2 44 50 38 66 -3 7 3 19 13 27 25 18 71 -6 80 -41z m-329 -2 c0
-21 3 -48 7 -60 l7 -22 -35 21 -36 21 22 39 c12 21 25 39 28 39 4 0 7 -17 7
-38z m183 16 c0 -4 -7 -8 -15 -8 -8 0 -15 4 -15 8 0 5 7 9 15 9 8 0 15 -4 15
-9z m-335 -8 c3 -5 46 -33 95 -61 75 -44 110 -77 110 -104 0 -16 -40 3 -135
65 -60 39 -111 72 -113 75 -6 6 18 35 29 35 4 0 11 -4 14 -10z m179 -5 c-4 -8
-8 -15 -10 -15 -2 0 -4 7 -4 15 0 8 4 15 10 15 5 0 7 -7 4 -15z m176 0 c0 -8
-4 -15 -10 -15 -5 0 -7 7 -4 15 4 8 8 15 10 15 2 0 4 -7 4 -15z m493 -6 c8
-12 4 -24 -13 -49 -21 -29 -25 -31 -35 -16 -16 22 -38 20 -60 -4 -14 -16 -16
-23 -7 -32 7 -7 12 -14 12 -17 0 -7 -114 -3 -148 5 -20 4 -22 7 -11 21 10 12
26 14 70 10 l57 -5 47 55 c47 54 69 62 88 32z m-573 7 c0 -3 -4 -8 -10 -11 -5
-3 -10 -1 -10 4 0 6 5 11 10 11 6 0 10 -2 10 -4z m485 -6 c3 -5 -9 -25 -27
-45 -23 -25 -37 -32 -47 -26 -11 7 -7 16 20 44 37 38 45 42 54 27z m-971 -31
c27 -10 83 -25 125 -34 107 -23 104 -22 92 -44 -10 -18 -12 -18 -93 4 -202 54
-208 56 -208 83 0 19 4 23 18 17 9 -4 39 -16 66 -26z m541 1 c-3 -5 -12 -10
-18 -10 -7 0 -6 4 3 10 19 12 23 12 15 0z m703 -16 c4 -25 -20 -47 -41 -38
-22 8 -32 44 -16 55 23 15 54 6 57 -17z m-375 9 c11 -10 -13 -33 -34 -33 -22
0 -24 11 -7 28 13 13 31 16 41 5z m183 -111 c32 -42 70 -92 86 -110 28 -32 29
-52 4 -52 -6 0 -39 35 -71 77 -33 42 -72 90 -87 106 -31 34 -33 38 -16 55 15
15 18 13 84 -76z m101 -9 l-45 -46 -21 34 c-12 19 -21 37 -21 41 0 5 21 21 47
37 l47 29 19 -25 20 -25 -46 -45z m-737 77 c0 -5 -2 -10 -4 -10 -3 0 -8 5 -11
10 -3 6 -1 10 4 10 6 0 11 -4 11 -10z m-323 -31 c20 -7 21 -11 11 -41 -14 -41
-26 -49 -58 -41 -34 8 -49 23 -24 24 17 0 17 1 -3 9 -25 10 -26 13 -17 48 6
20 11 22 38 16 17 -3 41 -10 53 -15z m205 -5 c21 -15 38 -30 38 -33 0 -5 -21
-40 -36 -60 -4 -4 -74 39 -74 46 0 3 8 2 18 -1 13 -4 11 -1 -5 13 -20 17 -21
20 -7 40 19 27 20 26 66 -5z m-100 -23 c4 -3 -38 -93 -94 -199 -55 -106 -102
-192 -104 -189 -4 4 61 215 103 335 26 73 26 73 57 66 17 -3 34 -9 38 -13z
m751 3 c41 -7 51 -24 13 -24 -15 0 -34 -12 -50 -31 -22 -26 -31 -30 -56 -24
-17 4 -30 11 -30 15 0 5 8 6 18 3 14 -6 15 -4 4 9 -9 11 -10 18 -2 23 18 11
11 24 -17 28 -16 2 -3 5 27 5 30 1 72 -1 93 -4z m-150 -61 c-75 -93 -75 -93
-89 -82 -11 9 -3 23 39 70 28 32 60 59 70 59 15 0 12 -8 -20 -47z m-670 -195
c-61 -106 -138 -245 -173 -308 -107 -196 -121 -220 -130 -215 -7 4 108 229
275 540 23 44 57 109 75 144 28 57 33 62 47 48 14 -13 4 -35 -94 -209z m807
178 c-28 -41 -170 -166 -170 -149 0 10 182 192 192 193 4 0 -6 -20 -22 -44z
m95 8 c22 -28 26 -41 18 -53 -17 -26 -44 -18 -66 20 -18 31 -19 39 -8 53 19
23 25 21 56 -20z m-701 -65 c-4 -71 -2 -80 12 -75 12 5 14 1 8 -17 -13 -41
-35 -66 -52 -60 -15 6 -15 4 -4 -10 8 -9 11 -21 7 -27 -11 -17 5 -50 25 -50
24 0 66 55 75 98 5 23 11 32 21 28 7 -3 16 -1 19 4 3 4 -1 11 -7 13 -7 3 -1 6
15 6 15 1 27 -3 27 -8 0 -5 -26 -38 -57 -74 -32 -35 -98 -110 -146 -165 -49
-55 -94 -105 -100 -111 -16 -13 -19 96 -6 209 9 77 15 94 64 175 46 78 93 145
101 145 1 0 1 -36 -2 -81z m-304 63 c0 -8 -69 -247 -150 -521 -27 -90 -58
-170 -60 -149 0 3 38 145 84 315 46 169 86 320 90 336 6 24 36 40 36 19z m50
-11 c0 -4 -29 -100 -64 -213 -60 -193 -101 -296 -112 -285 -3 3 27 118 67 256
61 209 76 251 91 251 10 0 18 -4 18 -9z m200 -2 c0 -6 -32 -63 -71 -127 -90
-150 -73 -121 -188 -323 -55 -96 -113 -186 -127 -200 -15 -13 -25 -19 -22 -14
3 6 36 64 73 130 37 66 115 206 173 310 57 105 111 200 119 213 14 23 43 30
43 11z m574 -10 c16 -3 -32 -56 -210 -234 -355 -357 -449 -444 -473 -442 -28
2 -27 7 14 47 41 40 47 29 8 -14 -15 -17 -4 -9 24 18 29 27 49 54 46 59 -3 6
-2 7 4 4 10 -6 563 543 563 559 0 5 -124 -117 -276 -271 -151 -154 -274 -275
-272 -268 2 7 86 99 188 205 102 106 221 230 264 275 52 54 83 80 90 74 6 -5
20 -10 30 -12z m410 -2 c16 -26 -14 -53 -43 -38 -26 14 -27 36 -3 50 21 13 32
10 46 -12z m-278 -30 l15 -32 -25 30 c-26 30 -34 51 -16 40 6 -3 17 -21 26
-38z m-28 -10 c2 -10 -40 -50 -118 -114 -67 -54 -143 -116 -170 -138 -233
-193 -370 -305 -374 -305 -8 0 296 295 366 355 37 31 66 61 63 65 -3 4 3 14
13 21 15 13 16 12 3 -3 -18 -24 -4 -23 23 2 55 51 172 139 181 136 6 -1 11
-10 13 -19z m-260 -32 c-4 -19 -426 -455 -440 -455 -16 0 3 23 217 254 184
198 232 241 223 201z m555 1 c3 -7 8 -35 12 -62 3 -27 8 -64 11 -81 4 -25 1
-33 -10 -33 -8 0 -17 -4 -20 -8 -2 -4 27 -6 65 -4 57 4 70 1 75 -12 4 -9 3
-20 -1 -24 -3 -4 -74 -8 -157 -11 -117 -2 -152 0 -159 10 -14 24 1 29 84 30
61 0 76 3 59 10 -22 8 -23 13 -17 71 11 115 15 128 34 128 11 0 21 -6 24 -14z
m-233 -48 c0 -38 -61 -34 -68 6 -4 20 37 38 56 24 6 -6 12 -19 12 -30z m-86
-9 c-2 -4 -73 -62 -157 -129 -324 -259 -336 -270 -331 -288 4 -12 3 -13 -3 -4
-7 9 -36 -8 -115 -68 -101 -77 -135 -97 -108 -65 7 8 105 90 217 183 113 92
231 188 262 214 191 158 227 184 233 175 4 -6 5 -14 2 -18z m10 -36 c-3 -10
-8 -56 -12 -103 l-7 -85 -55 -5 c-51 -5 -55 -7 -55 -30 0 -23 4 -25 46 -28
l46 -3 8 -77 c10 -94 14 -283 8 -334 -5 -35 -8 -38 -37 -39 -26 0 -27 -2 -11
-8 11 -5 25 -6 32 -4 13 5 22 -21 19 -52 -2 -19 -51 -97 -105 -167 -23 -29
-28 -88 -8 -89 36 -2 58 -6 63 -12 10 -9 -6 -27 -24 -27 -15 0 -15 2 -2 11 13
9 13 10 0 6 -8 -2 -14 -10 -12 -17 2 -10 -1 -10 -15 1 -10 8 -21 18 -24 23 -4
4 -13 -11 -20 -34 -13 -41 -16 -43 -57 -44 -46 -1 -48 0 -27 28 19 25 19 53 1
63 -43 25 -67 108 -86 303 -5 58 -13 124 -16 147 -6 39 -5 42 19 48 42 11 66
48 91 137 13 47 27 91 30 97 4 6 11 47 15 92 5 44 10 81 12 83 54 44 175 136
180 136 4 0 5 -8 3 -17z m-559 -3 c3 -5 1 -10 -4 -10 -6 0 -11 5 -11 10 0 6 2
10 4 10 3 0 8 -4 11 -10z m609 -3 c14 -10 18 -29 19 -97 l2 -85 -31 -3 c-45
-4 -49 24 -28 166 5 35 11 38 38 19z m-627 -43 c-3 -3 -12 -4 -19 -1 -8 3 -5
6 6 6 11 1 17 -2 13 -5z m-27 -44 c0 -5 -4 -10 -10 -10 -5 0 -10 5 -10 10 0 6
5 10 10 10 6 0 10 -4 10 -10z m-191 -70 c-3 -39 -10 -74 -14 -78 -4 -4 -6 8
-3 26 6 39 -7 43 -15 5 -3 -17 0 -34 9 -44 22 -25 18 -42 -7 -28 -16 8 -20 8
-14 0 4 -7 2 -18 -5 -26 -9 -11 -7 -16 10 -25 12 -6 19 -14 17 -17 -3 -2 -16
1 -29 8 -23 12 -23 12 -5 -8 16 -19 17 -21 1 -27 -9 -3 -23 -1 -30 5 -17 14
-18 -2 -1 -20 10 -10 8 -11 -7 -5 -13 5 -17 4 -12 -4 4 -7 2 -12 -5 -12 -8 0
-8 -4 -1 -12 7 -9 6 -16 -2 -23 -8 -8 -21 -4 -45 12 -19 13 -28 23 -21 23 7 0
10 8 7 20 -3 14 1 24 14 31 11 5 17 14 14 20 -4 5 2 9 12 10 10 0 13 3 6 6
-20 8 -16 17 32 69 24 27 45 54 44 59 0 6 -6 1 -14 -9 -8 -11 -15 -17 -15 -13
0 10 74 127 80 127 3 0 3 -32 -1 -70z m586 -37 c-7 -60 -34 -164 -64 -243 -12
-34 -24 -47 -46 -55 -17 -5 -33 -14 -36 -19 -4 -5 -12 -6 -18 -2 -6 4 -21 0
-33 -8 -13 -8 -38 -17 -55 -21 -18 -4 -33 -10 -33 -13 0 -4 -17 -8 -37 -10
-20 -1 -44 -9 -53 -17 -14 -13 -17 -11 -29 20 -6 19 -21 37 -31 40 -28 9 -25
18 14 39 32 17 35 17 62 1 l29 -17 -24 21 c-31 28 -20 39 16 16 22 -15 25 -15
15 -3 -11 14 -7 21 26 48 26 20 38 38 35 48 -3 11 12 31 43 57 102 87 209 173
217 174 5 1 5 -25 2 -56z m555 17 c0 -23 -5 -30 -19 -30 -10 0 -21 -7 -25 -15
-6 -17 -46 -21 -46 -4 0 5 5 7 10 4 6 -3 10 -1 10 4 0 6 -6 11 -14 11 -14 0
-26 21 -26 46 0 10 14 14 55 14 54 0 55 0 55 -30z m-142 -32 c-3 -9 -45 -15
-139 -20 -163 -8 -210 -2 -182 25 3 4 78 7 166 7 122 0 158 -3 155 -12z m-991
-50 c-3 -8 -6 -5 -6 6 -1 11 2 17 5 13 3 -3 4 -12 1 -19z m868 11 c12 -18 -4
-59 -23 -59 -16 -1 -16 -2 1 -14 12 -9 14 -16 8 -21 -8 -4 -11 -182 -12 -558
-1 -304 -5 -586 -9 -627 -3 -41 -7 207 -8 553 -1 411 1 627 8 627 22 0 8 17
-22 25 -27 8 -34 16 -36 42 -3 28 0 32 25 36 52 8 62 7 68 -4z m195 -628 c0
-604 -3 -721 -21 -721 -4 0 -8 304 -9 675 0 597 1 675 15 675 13 0 15 -74 15
-629z m46 347 c-3 -156 -9 -443 -12 -638 -10 -594 -22 -474 -23 243 l-1 677
21 0 c21 0 21 -1 15 -282z m-298 -445 c-2 -490 -6 -627 -15 -631 -10 -3 -13
127 -13 627 0 559 2 631 15 631 14 0 15 -71 13 -627z m-538 573 c0 -3 -4 -8
-10 -11 -5 -3 -10 -1 -10 4 0 6 5 11 10 11 6 0 10 -2 10 -4z m-424 -62 c13
-19 14 -28 5 -37 -8 -8 -11 -5 -11 11 0 16 -10 27 -32 37 l-33 14 27 1 c19 0
33 -8 44 -26z m134 -19 c-7 -9 -15 -13 -18 -10 -3 2 1 11 8 20 7 9 15 13 18
10 3 -2 -1 -11 -8 -20z m-194 -12 c2 -33 -50 -66 -91 -59 -19 4 -36 2 -40 -4
-3 -5 -10 -10 -16 -10 -5 0 -4 9 3 19 6 11 28 22 49 25 24 4 42 14 53 32 20
29 40 27 42 -3z m236 -34 c9 -5 32 -9 51 -9 32 0 35 -3 45 -40 9 -38 9 -40
-14 -40 -13 0 -41 -9 -63 -21 -31 -16 -49 -19 -85 -14 -51 8 -60 22 -18 28 19
3 14 5 -18 6 -25 2 -56 7 -70 12 -17 6 -9 7 26 3 35 -4 54 -2 59 6 5 9 1 10
-13 6 -12 -4 -33 0 -49 9 l-28 15 37 -6 c48 -8 78 2 78 28 0 15 -4 18 -17 13
-10 -4 -27 -10 -38 -13 -17 -4 -16 -2 5 16 25 22 71 22 112 1z m118 -19 c0 -5
-2 -10 -4 -10 -3 0 -8 5 -11 10 -3 6 -1 10 4 10 6 0 11 -4 11 -10z m-200 -10
c0 -5 -4 -10 -10 -10 -5 0 -10 5 -10 10 0 6 5 10 10 10 6 0 10 -4 10 -10z
m-339 -146 c-44 -71 -85 -136 -90 -144 -6 -11 -8 -6 -7 17 1 17 5 35 9 40 5 4
5 0 1 -10 -12 -32 5 -17 32 28 14 25 24 48 21 51 -3 3 -13 -8 -22 -25 -8 -17
-18 -31 -20 -31 -6 0 38 87 56 110 11 16 11 11 -7 -37 -12 -31 12 -2 40 49 28
50 32 63 17 53 -5 -3 -13 0 -17 6 -5 9 0 10 15 6 15 -4 25 1 33 16 6 12 13 17
15 11 2 -6 -32 -69 -76 -140z m159 101 c-24 -25 -36 -31 -42 -22 -4 6 -8 15
-8 18 0 6 65 37 79 38 3 1 -10 -15 -29 -34z m51 -22 c-12 -24 -89 -98 -95 -92
-6 6 85 109 96 109 5 0 4 -8 -1 -17z m-17 -55 c-36 -37 -40 -45 -17 -28 18 13
34 29 37 36 4 11 46 40 46 32 0 -2 -42 -44 -92 -93 -51 -50 -80 -76 -65 -59
42 47 32 53 -15 9 -31 -30 -28 -24 12 20 114 124 134 144 139 140 3 -3 -17
-28 -45 -57z m-84 26 c0 -3 -9 -17 -20 -31 -23 -29 -26 -49 -8 -55 11 -4 -49
-87 -63 -88 -11 0 27 103 52 142 22 34 39 48 39 32z m170 3 c0 -2 -12 -14 -27
-28 l-28 -24 24 28 c23 25 31 32 31 24z m-220 -22 c0 -8 -2 -15 -4 -15 -2 0
-6 7 -10 15 -3 8 -1 15 4 15 6 0 10 -7 10 -15z m-20 -24 c0 -5 -18 -63 -40
-128 -51 -150 -50 -147 -55 -141 -3 3 13 65 35 138 22 73 40 135 40 137 0 2 5
3 10 3 6 0 10 -4 10 -9z m-66 -108 c-8 -27 -16 -52 -19 -58 -8 -16 7 58 16 83
15 40 17 23 3 -25z m868 22 c3 -14 1 -28 -3 -31 -5 -3 -9 9 -9 25 0 38 6 40
12 6z m328 -126 c0 -64 -3 -79 -15 -79 -8 0 -15 -7 -15 -16 0 -9 -6 -14 -12
-11 -7 2 -13 10 -13 18 0 7 -8 15 -17 17 -11 2 -18 -3 -18 -12 0 -17 -15 -22
-24 -8 -3 5 -3 18 0 29 5 18 10 20 37 12 39 -11 37 -11 37 1 0 6 -11 10 -25
10 -14 0 -25 4 -25 9 0 6 17 8 38 5 l37 -4 -32 12 -33 13 33 46 c17 26 35 45
40 42 4 -2 7 -40 7 -84z m180 66 c-13 -14 -26 -23 -28 -20 -7 7 29 45 41 45 6
0 0 -11 -13 -25z m-993 -24 c24 -19 44 -46 51 -67 l11 -35 -67 -30 c-37 -17
-81 -41 -97 -54 -28 -20 -31 -29 -32 -82 -4 -147 -86 -221 -181 -163 l-33 20
42 83 c23 45 45 90 51 100 5 10 17 52 28 94 11 44 27 83 39 95 12 10 21 22 21
27 0 4 10 18 21 30 31 33 93 25 146 -18z m-297 25 c0 -2 -8 -10 -17 -17 -16
-13 -17 -12 -4 4 13 16 21 21 21 13z m1678 -5 c1 -1 2 -30 2 -65 0 -74 -4 -77
-92 -77 -29 1 -62 1 -73 1 -49 -2 -65 9 -65 44 0 28 8 41 43 71 41 36 43 36
112 31 39 -3 71 -5 73 -5z m-338 -25 c0 -20 -38 -65 -71 -81 -17 -9 -29 -24
-29 -35 0 -11 -4 -20 -10 -20 -5 0 -10 9 -10 21 0 11 -4 17 -10 14 -5 -3 -10
-1 -10 4 0 6 6 11 13 11 8 0 7 4 -3 10 -8 5 -10 10 -4 10 5 0 16 -6 23 -12 11
-11 13 -10 8 4 -5 13 2 22 21 32 15 8 36 23 46 35 22 24 36 27 36 7z m-1463
-58 c-3 -8 -6 -5 -6 6 -1 11 2 17 5 13 3 -3 4 -12 1 -19z m1483 -48 c0 -13 -7
-20 -20 -20 -23 0 -26 10 -8 28 18 18 28 15 28 -8z m-493 -76 c-7 -7 -34 29
-42 56 -5 20 -1 17 20 -13 15 -21 25 -40 22 -43z m346 46 c3 -11 11 -19 18
-18 7 2 15 -5 17 -14 2 -13 -1 -16 -14 -11 -11 4 -22 -1 -30 -12 -13 -17 -14
-14 -14 28 0 48 13 63 23 27z m344 -16 c18 -18 29 -18 14 0 -9 11 -6 15 14 20
14 4 31 3 38 -1 7 -4 21 -6 33 -5 12 2 21 -3 21 -10 0 -8 -14 -14 -34 -15 -18
-2 -33 2 -33 7 0 6 -4 10 -10 10 -5 0 -10 -15 -10 -32 0 -18 -4 -28 -8 -22
-10 17 -88 23 -84 7 3 -18 -5 -16 -28 7 -11 11 -20 30 -20 41 0 20 4 21 47 14
25 -4 52 -13 60 -21z m-199 -63 c0 -70 -2 -79 -16 -74 -14 5 -13 2 3 -17 l20
-23 -24 8 c-16 5 -21 4 -17 -4 4 -6 2 -11 -3 -11 -6 0 -11 4 -11 10 0 5 -8 7
-17 3 -15 -5 -14 -3 2 13 12 10 15 15 8 10 -10 -6 -13 -2 -13 18 0 24 13 32
43 27 5 -1 6 3 2 9 -3 5 0 10 7 11 10 0 10 2 -1 6 -9 4 -10 7 -2 13 16 9 4 36
-21 47 -15 6 -18 12 -10 17 7 4 12 2 12 -3 0 -6 5 -11 10 -11 6 0 10 7 10 15
0 8 4 15 9 15 4 0 8 -36 9 -79z m-1436 42 c22 -20 23 -37 1 -58 -16 -16 -15
-17 3 -13 13 2 20 13 22 36 3 33 19 41 40 20 18 -18 15 -42 -8 -68 -11 -13
-20 -27 -20 -32 0 -20 -59 -7 -78 17 -11 14 -23 25 -26 25 -11 0 -6 -28 7 -33
6 -3 2 -6 -10 -6 -12 -1 -25 4 -28 9 -3 6 -11 10 -17 10 -7 0 -6 -6 2 -15 10
-12 10 -15 -3 -15 -9 0 -21 9 -27 20 -13 25 -30 26 -30 3 -1 -17 -1 -17 -14
-1 -7 10 -16 15 -19 11 -4 -3 -7 -2 -7 3 0 6 13 23 29 38 21 20 35 26 50 21
14 -4 21 -2 21 7 0 38 77 53 112 21z m1161 -35 c-11 -61 -41 -136 -72 -182
-40 -58 -47 -62 -63 -34 -15 28 -18 68 -5 65 6 -1 38 40 71 90 34 51 64 93 68
93 4 0 5 -15 1 -32z m-828 -3 c-35 -16 -65 -19 -65 -6 0 13 20 19 60 19 l35 0
-30 -13z m743 3 c10 -10 15 -10 22 2 5 8 12 11 16 8 4 -4 -1 -19 -11 -34 -15
-24 -19 -25 -27 -11 -5 10 -15 17 -23 17 -9 0 -12 6 -9 15 7 18 16 19 32 3z
m287 2 c12 -19 -6 -52 -23 -45 -43 18 -49 16 -59 -17 l-11 -33 -1 33 c-1 40
16 60 47 56 12 -2 22 1 22 6 0 13 17 13 25 0z m-935 -10 c13 -8 13 -10 -2 -10
-9 0 -20 5 -23 10 -8 13 5 13 25 0z m1206 -3 c19 3 34 2 34 -3 0 -5 -10 -9
-22 -10 -13 0 -30 -4 -38 -8 -12 -5 -16 0 -17 16 0 13 1 18 4 11 3 -7 17 -10
39 -6z m-1214 -19 c52 -18 44 -65 -9 -52 -15 4 -26 0 -35 -15 -12 -19 -113
-60 -123 -49 -3 3 -2 29 2 58 8 53 8 53 53 66 48 13 54 12 112 -8z m1134 -45
c-11 -13 -21 -23 -23 -23 -2 0 -3 18 -3 40 l0 41 23 -18 23 -17 -20 -23z m159
47 c3 -6 -1 -7 -9 -4 -18 7 -21 14 -7 14 6 0 13 -4 16 -10z m-1935 -10 c0 -5
-4 -10 -10 -10 -5 0 -10 5 -10 10 0 6 5 10 10 10 6 0 10 -4 10 -10z m1290 -16
c0 -12 -2 -12 -14 -2 -8 7 -12 16 -9 21 7 11 23 -2 23 -19z m-522 -4 c2 0 8
-14 14 -30 5 -17 22 -37 37 -45 l26 -14 -34 -1 c-27 0 -41 8 -72 43 -48 53
-50 69 -7 56 18 -5 34 -9 36 -9z m452 10 c12 -8 9 -10 -12 -10 -16 0 -28 -4
-28 -9 0 -4 12 -6 26 -3 24 4 25 3 15 -16 -10 -19 -15 -20 -36 -10 -14 6 -25
15 -25 19 0 5 -7 6 -15 3 -8 -4 -15 -2 -15 3 0 9 43 30 65 32 6 0 17 -4 25 -9z
m341 -6 c13 -5 14 -13 6 -55 -9 -44 -12 -48 -33 -45 -33 6 -44 15 -44 33 0 9
6 13 14 10 10 -4 16 2 18 16 2 15 9 21 23 20 18 -2 18 -1 -2 9 -24 11 -33 34
-10 24 6 -3 19 -9 28 -12z m-461 -16 c17 -12 30 -30 30 -39 0 -10 6 -20 13
-22 8 -4 7 -6 -3 -6 -19 -1 -43 -38 -34 -53 4 -7 3 -8 -4 -4 -7 4 -12 1 -12
-6 0 -30 -60 -18 -161 32 -117 58 -129 66 -129 90 0 15 9 16 73 13 39 -3 97 0
127 5 30 5 59 10 63 11 4 0 21 -9 37 -21z m-800 3 c0 -6 -4 -13 -10 -16 -5 -3
-10 1 -10 9 0 9 5 16 10 16 6 0 10 -4 10 -9z m972 -43 c-9 -9 -12 -9 -12 0 0
7 -7 12 -15 12 -20 0 -19 17 3 29 13 8 19 6 26 -10 6 -13 5 -24 -2 -31z m588
48 c0 -3 -4 -8 -10 -11 -5 -3 -10 -1 -10 4 0 6 5 11 10 11 6 0 10 -2 10 -4z
m105 -16 c3 -5 -3 -10 -15 -10 -12 0 -18 5 -15 10 3 6 10 10 15 10 5 0 12 -4
15 -10z m-155 -10 c-8 -5 -19 -10 -25 -10 -5 0 -3 5 5 10 8 5 20 10 25 10 6 0
3 -5 -5 -10z m94 -5 c4 -12 2 -13 -14 -3 -15 10 -22 10 -32 0 -6 -6 -17 -12
-22 -12 -18 1 27 30 45 30 9 0 19 -7 23 -15z m-1207 -1 c-3 -3 -12 -4 -19 -1
-8 3 -5 6 6 6 11 1 17 -2 13 -5z m-559 -20 c-9 -10 -21 -13 -29 -8 -9 5 -8 9
7 15 31 12 39 10 22 -7z m142 8 c0 -4 -4 -13 -9 -21 -8 -12 -14 -13 -35 -3
-36 16 -32 27 9 29 19 1 35 -1 35 -5z m1605 -2 c3 -5 1 -10 -4 -10 -6 0 -11 5
-11 10 0 6 2 10 4 10 3 0 8 -4 11 -10z m60 0 c3 -5 1 -10 -4 -10 -6 0 -11 5
-11 10 0 6 2 10 4 10 3 0 8 -4 11 -10z m-1300 -10 c3 -5 -3 -10 -14 -10 -12 0
-21 5 -21 10 0 6 6 10 14 10 8 0 18 -4 21 -10z m90 0 c3 -5 -1 -10 -10 -10 -9
0 -13 5 -10 10 3 6 8 10 10 10 2 0 7 -4 10 -10z m1075 0 c0 -5 -2 -10 -4 -10
-3 0 -8 5 -11 10 -3 6 -1 10 4 10 6 0 11 -4 11 -10z m-1795 -10 c3 -5 1 -10
-4 -10 -6 0 -11 5 -11 10 0 6 2 10 4 10 3 0 8 -4 11 -10z m1210 -9 c-3 -6 -11
-8 -17 -5 -6 4 -5 9 3 15 16 10 23 4 14 -10z m411 -16 c15 -14 24 -29 20 -33
-4 -4 -14 2 -22 12 -13 18 -15 18 -32 3 -10 -10 -22 -14 -26 -10 -4 4 3 15 16
25 18 15 19 17 4 11 -13 -4 -17 -3 -12 5 11 18 22 15 52 -13z m24 15 c0 -5 -2
-10 -4 -10 -3 0 -8 5 -11 10 -3 6 -1 10 4 10 6 0 11 -4 11 -10z m-966 -10
c113 -11 173 -28 106 -31 -19 0 -46 -5 -60 -10 -16 -5 3 -6 50 -3 42 3 94 1
115 -4 22 -6 53 -13 68 -16 16 -4 25 -11 21 -17 -9 -15 -230 1 -279 21 -21 8
-95 25 -159 36 -36 6 -38 8 -21 20 23 17 22 17 159 4z m1271 0 c3 -6 0 -13 -9
-16 -8 -3 -12 -12 -9 -20 3 -8 0 -14 -5 -14 -6 0 -14 9 -17 20 -7 24 -23 26
-31 5 -4 -8 -10 -15 -16 -15 -5 0 -7 4 -4 8 2 4 0 14 -5 22 -8 13 -11 12 -20
-3 -6 -9 -15 -14 -21 -11 -7 4 -8 2 -4 -4 4 -7 2 -12 -3 -12 -6 0 -11 7 -11
15 0 19 -7 19 -28 -1 -12 -13 -17 -14 -20 -4 -9 26 30 40 114 40 46 0 86 -5
89 -10z m-1452 -25 c20 -8 48 -15 62 -15 14 0 25 -4 25 -10 0 -5 23 -10 50
-10 28 0 50 -4 50 -9 0 -4 -18 -8 -39 -8 -22 0 -69 -8 -105 -18 -57 -15 -70
-16 -91 -5 -19 10 -22 16 -13 22 10 6 10 10 1 16 -10 6 -9 13 3 30 18 26 13
26 57 7z m401 -4 c3 -4 -11 -5 -31 -3 -21 3 -30 7 -23 12 13 8 47 2 54 -9z
m636 -17 c0 -29 -15 -31 -30 -5 -13 26 -13 27 10 28 15 1 20 -4 20 -23z m66
11 c-4 -11 1 -15 19 -15 16 0 25 -6 25 -15 0 -18 -21 -20 -38 -3 -9 9 -18 9
-37 0 -21 -10 -25 -9 -25 3 0 8 6 15 14 15 7 0 19 7 26 15 7 8 15 15 17 15 3
0 3 -7 -1 -15z m-106 -27 c0 -5 -4 -8 -10 -8 -5 0 -10 10 -10 23 0 18 2 19 10
7 5 -8 10 -18 10 -22z m-190 -7 c-10 -20 -30 -29 -30 -14 0 10 33 44 37 39 3
-2 0 -14 -7 -25z m549 16 c8 -10 7 -27 -3 -63 -8 -27 -19 -67 -25 -90 -10 -36
-14 -41 -41 -41 -16 0 -30 4 -30 9 0 4 -7 8 -15 8 -10 0 -15 10 -15 27 0 25 1
25 18 10 10 -10 30 -16 43 -15 21 2 26 8 27 35 2 27 -2 35 -23 45 -19 9 -28 9
-37 0 -22 -22 -29 -13 -26 31 l3 42 42 0 c22 0 45 3 49 8 11 10 20 9 33 -6z
m83 -5 c35 5 36 -34 2 -66 -25 -22 -26 -28 -16 -50 6 -15 7 -26 2 -26 -4 0
-14 26 -20 58 -6 31 -13 68 -16 81 -4 21 -3 23 10 12 8 -7 25 -11 38 -9z
m-697 -43 c30 -46 63 -80 114 -119 32 -24 34 -30 35 -90 1 -64 1 -65 -28 -68
-27 -3 -28 -2 -22 25 4 15 15 37 24 48 9 12 5 8 -10 -7 -16 -16 -28 -39 -28
-53 0 -14 -7 -43 -16 -65 -16 -40 -16 -40 -71 -40 l-55 0 29 28 c27 25 29 32
27 95 -2 52 -7 71 -21 85 -11 9 -37 39 -57 65 -42 53 -42 47 12 105 6 7 12 18
12 23 0 23 30 5 55 -32z m365 16 c7 -8 20 -15 29 -15 13 -1 13 -3 -3 -12 -15
-9 -22 -7 -33 8 -11 15 -17 17 -33 6 -31 -19 -38 -14 -10 8 30 24 34 24 50 5z
m-782 -20 c4 -4 -28 -5 -72 -3 -58 3 -79 1 -83 -9 -3 -7 -18 -13 -34 -13 -16
0 -39 -11 -55 -25 -15 -14 -30 -25 -35 -25 -4 0 -14 -6 -21 -13 -33 -31 -235
-62 -225 -34 2 6 12 12 23 13 10 0 29 4 42 8 22 7 22 9 8 25 -19 20 -20 31 -5
31 5 0 7 -4 4 -10 -3 -5 -4 -10 -1 -10 2 0 12 -3 22 -7 11 -4 15 -3 11 4 -4 6
2 22 13 35 14 19 26 24 48 20 16 -2 46 2 68 8 79 25 269 28 292 5z m572 15 c0
-5 -8 -10 -17 -11 -15 0 -15 -2 2 -9 17 -7 16 -9 -10 -10 -26 -1 -27 -3 -10
-10 18 -8 18 -9 -5 -8 -14 0 -38 3 -55 7 l-30 7 37 7 c20 4 39 14 42 22 6 17
46 21 46 5z m111 -29 c-15 -12 -20 -20 -12 -24 8 -4 7 -5 -1 -3 -22 5 -19 31
4 42 32 14 37 6 9 -15z m-518 12 c-7 -2 -21 -2 -30 0 -10 3 -4 5 12 5 17 0 24
-2 18 -5z m636 -23 c18 0 21 -6 21 -45 0 -49 -20 -62 -40 -25 -8 16 -8 20 4
20 8 0 17 -6 19 -12 3 -8 6 -6 6 5 1 9 -7 18 -16 18 -17 1 -17 2 0 6 9 2 17 9
17 14 0 12 -42 1 -51 -13 -3 -5 -12 -1 -20 8 -12 16 -12 17 4 11 9 -4 17 -2
17 4 0 7 -11 9 -25 7 -14 -3 -28 -1 -31 3 -3 5 4 9 15 9 11 0 23 5 27 12 5 8
11 6 19 -5 7 -10 22 -17 34 -17z m-656 3 c-13 -2 -35 -2 -50 0 -16 2 -5 4 22
4 28 0 40 -2 28 -4z m-198 -19 c-51 -14 -93 -18 -83 -9 6 7 86 23 113 23 11 0
-2 -6 -30 -14z m625 -29 c0 -25 -4 -45 -9 -45 -5 0 -7 8 -4 19 5 19 -24 35
-59 31 -10 -1 -18 4 -18 9 0 6 18 11 40 11 22 0 40 5 40 10 0 6 2 10 5 10 3 0
5 -20 5 -45z m-755 25 c-28 -12 -37 -12 -30 0 3 6 16 10 28 9 21 0 21 -1 2 -9z
m1140 -10 c0 -8 -8 -16 -17 -18 -13 -2 -18 3 -18 18 0 15 5 20 18 18 9 -2 17
-10 17 -18z m-1558 -5 c-10 -24 27 -40 51 -22 18 14 15 -4 -8 -54 -11 -26 -20
-66 -20 -96 0 -44 -4 -54 -22 -64 -13 -7 -51 -34 -86 -62 -87 -69 -182 -89
-167 -35 21 74 40 92 129 122 16 5 16 9 5 23 -13 15 -11 16 14 9 20 -5 27 -3
27 9 0 8 -6 15 -14 15 -9 0 2 28 31 85 24 47 49 85 55 85 5 0 8 -7 5 -15z
m822 -3 c8 -8 24 -12 37 -9 32 6 56 -11 103 -70 33 -42 41 -61 41 -93 l0 -40
-319 0 c-286 0 -363 6 -319 23 7 3 -23 5 -67 4 -74 -1 -75 -1 -17 -4 34 -2 61
-7 58 -11 -5 -9 -141 -6 -177 3 -16 4 -30 2 -33 -4 -4 -6 -18 -11 -31 -11 -19
0 -23 4 -18 18 7 16 6 16 -11 -1 -24 -24 -36 -13 -36 33 0 37 2 39 36 46 50 9
237 9 299 0 28 -4 92 -16 144 -27 93 -19 129 -19 77 1 -15 5 -36 10 -47 10
-12 0 -19 7 -19 19 0 13 -10 20 -32 25 -17 3 -33 4 -36 1 -3 -3 2 -5 10 -5 9
0 21 -7 28 -15 13 -16 9 -16 -103 6 -26 5 -78 9 -115 9 -93 0 -111 15 -37 30
44 9 63 9 80 0 15 -8 32 -9 56 -2 l34 10 -37 1 c-40 1 -59 18 -37 32 8 5 37 9
64 10 28 0 84 7 125 14 96 17 280 15 299 -3z m752 -15 c-10 -9 -11 -8 -5 6 3
10 9 15 12 12 3 -3 0 -11 -7 -18z m-228 7 c3 -4 -4 -15 -16 -25 l-22 -19 27
11 c24 11 30 9 47 -12 23 -28 12 -46 -18 -30 -15 8 -27 9 -40 1 -11 -5 -30
-10 -43 -9 -17 1 -14 3 12 11 44 12 60 13 85 4 19 -7 19 -7 1 8 -12 9 -33 14
-57 12 -41 -3 -46 3 -29 35 10 18 40 26 53 13z m-82 -51 c-9 -16 -10 -16 -11
-1 0 9 3 25 7 35 7 16 8 17 11 1 2 -10 -1 -25 -7 -35z m467 -3 c-2 -6 -8 -6
-18 0 -13 9 -13 11 0 20 15 10 25 0 18 -20z m-198 -25 c9 -11 16 -12 25 -5 20
16 26 -2 14 -43 -12 -44 -42 -83 -57 -73 -16 10 -15 66 1 67 10 0 10 2 0 6 -7
2 -13 9 -13 15 0 6 8 7 17 4 16 -6 16 -6 0 12 -9 10 -17 22 -17 25 0 12 17 7
30 -8z m-1390 -5 c0 -5 -20 -10 -45 -10 -25 0 -45 5 -45 10 0 6 20 10 45 10
25 0 45 -4 45 -10z m1224 -6 c12 -5 13 -10 5 -25 -5 -11 -14 -17 -19 -14 -6 3
-7 -1 -4 -10 5 -12 2 -14 -17 -7 -33 13 -48 40 -29 52 17 11 42 13 64 4z m366
-57 c0 -28 -14 -11 -28 33 l-12 35 20 -24 c11 -13 20 -33 20 -44z m-460 33 c0
-5 -4 -10 -10 -10 -5 0 -10 5 -10 10 0 6 5 10 10 10 6 0 10 -4 10 -10z m145
-45 l0 -40 -47 -3 c-27 -2 -48 0 -48 4 0 3 15 24 33 45 41 49 62 47 62 -6z
m-1656 -55 c27 0 32 -3 21 -10 -18 -12 -130 -13 -130 -2 0 17 16 23 44 18 16
-3 45 -6 65 -6z m1241 -10 c0 -7 -170 -10 -491 -10 -324 0 -488 3 -484 10 4 6
178 10 491 10 316 0 484 -3 484 -10z m730 0 c0 -6 -110 -10 -310 -10 -200 0
-310 4 -310 10 0 6 110 10 310 10 200 0 310 -4 310 -10z m-1977 -26 c3 -4 -1
-20 -9 -36 -21 -41 -15 -72 15 -76 49 -7 92 10 157 63 l67 55 477 0 c263 0
486 -3 495 -6 15 -6 15 -8 -1 -25 -24 -27 -9 -39 50 -39 56 0 82 13 88 45 3
19 12 20 324 23 l320 2 0 -112 c-1 -102 -3 -113 -20 -116 -11 -3 -16 0 -12 7
5 7 -3 12 -21 12 l-28 2 28 4 c15 2 27 9 27 14 0 6 -3 8 -8 5 -4 -2 -16 2 -27
10 -17 13 -18 16 -5 24 11 7 12 12 4 20 -18 18 -58 7 -69 -17 -5 -13 -19 -23
-30 -23 -11 0 -29 -8 -40 -17 -16 -13 -17 -15 -3 -10 10 4 28 2 40 -3 18 -7
19 -9 6 -9 -10 -1 -18 -6 -18 -12 0 -6 9 -8 20 -4 24 8 24 -13 0 -32 -8 -6
-12 -15 -7 -19 4 -4 7 -2 7 4 0 7 7 12 15 12 12 0 15 -16 17 -77 l2 -78 3 77
4 76 37 6 c78 12 77 15 77 -130 l0 -129 -1025 2 c-563 1 -1035 5 -1048 8 l-23
6 2 242 c1 133 4 245 6 250 5 9 97 10 106 1z m1894 -180 c-3 -3 -12 -4 -19 -1
-8 3 -5 6 6 6 11 1 17 -2 13 -5z m23 -40 c0 -2 -12 -4 -26 -4 -14 0 -23 4 -20
9 6 8 46 4 46 -5z"/>
<path d="M985 3609 c-33 -3 -48 -6 -33 -7 21 -2 32 -11 48 -42 11 -21 20 -42
20 -45 0 -3 -16 -5 -35 -5 -19 0 -35 -5 -35 -10 0 -11 306 -8 317 4 3 3 -3 6
-15 6 -19 0 -22 6 -22 44 0 44 0 45 38 48 20 2 -21 6 -93 9 -71 2 -157 1 -190
-2z m73 -50 c-12 -36 -21 -37 -37 -2 -14 30 -2 44 29 36 16 -4 17 -9 8 -34z
m87 -9 l0 -45 -38 1 c-49 2 -52 7 -36 46 15 39 27 49 54 46 17 -3 20 -11 20
-48z m63 2 c3 -37 1 -42 -17 -42 -18 0 -21 6 -21 38 0 68 33 71 38 4z"/>
<path d="M1164 1527 c0 -69 -6 -123 -19 -167 -10 -36 -20 -94 -23 -130 -3 -57
-1 -68 17 -84 25 -23 26 -19 5 23 -19 38 -15 87 15 201 21 75 29 244 14 253
-5 3 -8 -41 -9 -96z"/>
<path d="M1146 1550 c-4 -19 -19 -66 -32 -103 -26 -73 -29 -91 -14 -67 18 28
62 170 58 187 -3 11 -7 5 -12 -17z"/>
<path d="M820 1489 c0 -5 9 -9 20 -9 26 0 78 -26 108 -53 12 -11 22 -16 22
-10 0 12 -27 36 -60 53 -34 18 -90 30 -90 19z"/>
<path d="M1000 1174 c0 -2 19 -13 43 -24 41 -20 41 -20 17 -1 -23 19 -60 34
-60 25z"/>
<path d="M203 933 c-24 -2 -43 -8 -43 -12 0 -4 24 -4 53 0 28 4 68 10 87 12
28 3 26 4 -10 4 -25 0 -64 -2 -87 -4z"/>
<path d="M283 903 c9 -2 23 -2 30 0 6 3 -1 5 -18 5 -16 0 -22 -2 -12 -5z"/>
<path d="M290 760 c0 -5 5 -10 10 -10 6 0 10 5 10 10 0 6 -4 10 -10 10 -5 0
-10 -4 -10 -10z"/>
<path d="M103 732 c27 -15 45 -18 60 -13 12 5 43 5 69 1 26 -3 53 -3 60 1 8 6
-4 9 -32 11 -25 1 -65 3 -90 4 -25 1 -58 5 -75 9 -27 6 -26 5 8 -13z"/>
<path d="M1253 2580 c5 -32 22 -43 37 -26 16 21 6 46 -20 46 -14 0 -19 -6 -17
-20z"/>
<path d="M577 1163 c-4 -3 -7 -13 -7 -22 1 -13 3 -13 11 2 11 19 8 33 -4 20z"/>
<path d="M765 1060 c3 -5 8 -10 11 -10 2 0 4 5 4 10 0 6 -5 10 -11 10 -5 0 -7
-4 -4 -10z"/>
<path d="M1670 982 c0 -5 7 -9 15 -9 8 0 15 4 15 9 0 4 -7 8 -15 8 -8 0 -15
-4 -15 -8z"/>
<path d="M390 710 c0 -5 5 -10 10 -10 6 0 10 5 10 10 0 6 -4 10 -10 10 -5 0
-10 -4 -10 -10z"/>
<path d="M376 653 c-11 -11 -6 -23 9 -23 8 0 15 4 15 9 0 13 -16 22 -24 14z"/>
<path d="M1026 693 c-14 -4 -16 -7 -6 -13 11 -7 11 -11 1 -24 -14 -17 -11 -19
13 -10 9 3 16 12 16 20 0 15 20 17 60 4 25 -7 24 -9 -20 -23 -8 -3 14 -6 50
-6 36 -1 83 -3 105 -6 22 -2 31 -2 20 1 -11 3 -51 16 -90 29 -81 27 -122 35
-149 28z"/>
<path d="M500 650 c-85 -24 -57 -24 45 0 44 10 67 18 50 18 -16 0 -59 -8 -95
-18z"/>
<path d="M1303 644 c9 -3 17 -10 17 -15 0 -5 9 -9 21 -9 35 0 15 25 -22 27
-19 1 -26 -1 -16 -3z"/>
<path d="M555 620 c-8 -13 15 -13 35 0 12 8 11 10 -7 10 -12 0 -25 -4 -28 -10z"/>
<path d="M1935 689 c-11 -17 1 -21 15 -4 8 9 8 15 2 15 -6 0 -14 -5 -17 -11z"/>
</g>
</svg>
