<?xml version="1.0" standalone="no"?>
<!DOCTYPE svg PUBLIC "-//W3C//DTD SVG 20010904//EN"
 "http://www.w3.org/TR/2001/REC-SVG-20010904/DTD/svg10.dtd">
<svg version="1.0" xmlns="http://www.w3.org/2000/svg"
 width="219.000000pt" height="378.000000pt" viewBox="0 0 219.000000 378.000000"
 preserveAspectRatio="xMidYMid meet">
<metadata>
Created by potrace 1.16, written by Peter Selinger 2001-2019
</metadata>
<g transform="translate(0.000000,378.000000) scale(0.100000,-0.100000)"
fill="#000000" stroke="none">
<path d="M124 3762 l-92 -3 -6 -32 c-7 -37 -5 -3405 2 -3635 l2 -83 1061 5
c584 3 1063 6 1065 9 9 9 14 186 12 492 -1 182 -1 373 0 425 5 447 2 2813 -3
2818 -4 4 -233 6 -508 4 -642 -4 -1405 -3 -1426 1 -9 1 -57 1 -107 -1z m686
-27 c118 0 468 4 778 9 327 5 562 5 563 0 4 -71 2 -1334 -2 -1334 -10 0 -21
107 -14 131 9 26 -20 59 -50 59 -36 0 -50 -27 -50 -96 0 -61 -8 -85 -22 -70
-4 4 -7 49 -8 101 0 107 -13 133 -59 121 -34 -9 -51 -41 -37 -72 7 -15 7 -33
2 -48 -8 -21 -15 -23 -62 -22 -49 1 -53 3 -61 31 -5 17 -6 60 -3 96 5 55 3 68
-12 81 -16 14 -22 15 -49 3 l-32 -13 1 -89 c0 -49 -3 -95 -7 -101 -4 -7 -32
-12 -66 -12 -68 0 -76 10 -65 89 7 51 -9 81 -43 81 -13 0 -11 -4 6 -16 29 -20
26 -58 -4 -62 -30 -4 -51 24 -36 49 7 10 8 19 3 19 -19 0 -23 -23 -25 -114 -1
-50 -4 -95 -8 -101 -3 -5 -29 -8 -57 -7 -63 5 -72 19 -76 116 -3 90 0 83 -34
91 -58 13 -97 -34 -67 -80 11 -17 16 -48 16 -100 l0 -75 -30 0 c-25 0 -31 5
-41 40 -16 52 -31 64 -92 70 -43 4 -51 8 -52 28 -1 12 2 22 7 22 4 0 8 -7 8
-15 0 -17 -1 -17 62 -20 40 -2 45 0 33 11 -7 8 -23 14 -34 14 -25 0 -28 17 -3
23 13 3 10 6 -10 11 -16 5 -28 12 -28 18 0 5 9 6 20 3 11 -3 20 -4 20 -1 0 12
-39 44 -60 51 -20 6 -22 11 -16 59 6 41 4 56 -8 66 -21 17 -20 31 2 24 14 -5
15 -4 2 5 -8 6 -22 11 -30 11 -9 0 -23 9 -33 20 -9 11 -23 17 -32 14 -8 -4
-15 -1 -15 5 0 14 -59 14 -80 1 -13 -8 -12 -10 3 -10 16 0 25 -19 10 -21 -44
-5 -73 -4 -73 2 0 4 6 10 13 12 7 3 4 6 -6 6 -50 2 -127 -70 -127 -119 0 -16
5 -41 12 -57 16 -40 20 -55 19 -83 -1 -20 8 -29 41 -45 36 -17 39 -20 19 -23
-19 -3 -22 -8 -16 -30 5 -22 4 -24 -9 -13 -14 12 -16 10 -16 -8 0 -11 5 -21
10 -21 6 0 10 -7 10 -15 0 -9 11 -38 25 -65 14 -27 25 -57 25 -67 0 -10 7 -31
15 -46 8 -15 13 -33 11 -40 -1 -7 -1 -9 1 -5 3 5 15 5 28 2 20 -5 25 -1 30 20
3 14 7 38 11 52 3 15 16 43 31 63 27 39 27 38 -4 -29 -12 -25 -23 -61 -26 -80
-3 -19 -8 -43 -12 -52 -8 -20 -33 -32 -31 -15 0 7 -3 13 -9 14 -5 1 -9 -9 -8
-23 1 -13 -2 -22 -8 -19 -5 4 -9 14 -9 23 -1 16 -2 16 -14 0 -21 -28 -26 -21
-25 35 1 28 4 42 6 30 5 -24 23 -32 23 -10 0 23 -16 38 -34 31 -14 -5 -17 -16
-14 -56 2 -39 0 -48 -12 -46 -11 3 -15 18 -15 61 0 54 -7 72 -18 45 -3 -7 -6
3 -7 22 l-2 35 -13 -45 -13 -45 -2 55 c-1 41 -4 49 -9 30 l-7 -25 -8 23 c-4
12 -14 22 -21 22 -10 0 -13 10 -11 35 1 20 -2 35 -8 35 -6 0 -3 7 7 14 14 11
15 15 5 19 -9 4 -10 8 -2 14 6 4 13 16 17 25 3 9 25 21 49 27 l43 11 -43 -4
c-50 -5 -70 -19 -89 -64 -11 -26 -19 -33 -36 -30 -19 3 -22 10 -25 61 -2 31
-8 57 -14 57 -6 0 -9 -22 -6 -60 4 -52 2 -60 -13 -60 -24 0 -29 11 -35 70 -5
49 -4 50 24 56 32 6 56 43 46 69 -7 16 -49 31 -74 26 -31 -5 -38 -30 -33 -110
7 -101 -3 -121 -61 -121 -39 0 -44 3 -49 27 -3 15 -1 37 3 48 19 51 -41 96
-80 60 -15 -14 -17 -29 -12 -125 l5 -109 -29 -28 c-16 -16 -39 -35 -51 -43
-17 -11 -21 -21 -16 -42 6 -34 16 -35 55 -7 33 24 40 20 46 -19 2 -14 7 -31
11 -37 5 -5 11 -85 15 -177 6 -163 5 -168 -14 -168 -12 0 -21 8 -24 23 -20 97
-26 149 -20 171 3 15 2 26 -4 26 -5 0 -12 -9 -15 -20 -9 -34 -77 -23 -77 13 0
24 27 57 46 57 7 0 22 -10 34 -22 11 -12 20 -17 20 -11 0 25 -33 45 -64 39
-40 -8 -59 -34 -50 -66 4 -14 9 -73 11 -132 4 -93 2 -108 -11 -108 -9 0 -19
-1 -23 -2 -9 -3 -5 1934 4 1969 5 21 11 22 96 25 51 2 173 1 272 -2 99 -3 277
-5 395 -5z m187 -987 c-3 -8 -6 -5 -6 6 -1 11 2 17 5 13 3 -3 4 -12 1 -19z
m-196 -52 c22 1 60 9 85 19 57 22 66 14 19 -15 -47 -29 -37 -39 10 -11 46 27
55 26 54 -1 0 -13 -3 -17 -6 -10 -3 9 -12 7 -30 -8 -52 -40 -211 -68 -229 -39
-4 8 3 9 26 4 25 -5 31 -4 25 5 -5 9 -4 11 4 6 13 -9 78 11 87 26 4 6 -1 6
-14 -1 -33 -18 -79 -13 -95 9 -9 12 -20 18 -30 14 -10 -3 -20 3 -27 17 -11 19
-10 21 4 16 11 -4 16 -1 16 10 0 13 7 10 30 -12 24 -23 40 -29 71 -29z m21 13
c-15 -6 -30 -5 -40 1 -13 7 -8 9 23 9 35 0 37 -1 17 -10z m945 -5 c3 -8 -1
-22 -9 -30 -12 -12 -17 -12 -33 -1 -23 17 -14 47 15 47 11 0 23 -7 27 -16z
m-1032 -44 c7 -12 -2 -12 -30 0 -19 8 -19 9 2 9 12 1 25 -3 28 -9z m562 -47
c9 -24 -33 -56 -58 -43 -24 13 -25 56 -2 69 20 11 51 -2 60 -26z m472 -60 c1
-42 0 -43 -31 -42 -28 0 -30 2 -13 9 l20 9 -20 0 c-17 1 -17 3 -5 11 8 5 10
10 5 10 -17 0 -12 40 5 40 13 0 13 1 0 10 -13 9 -13 10 0 10 13 0 13 2 1 9
-11 7 -10 10 5 13 22 4 32 -18 33 -79z m-869 45 c0 -19 -9 -42 -22 -56 -20
-22 -21 -24 -4 -18 28 10 47 -21 33 -54 -6 -14 -17 -31 -26 -37 -22 -19 -8
-25 17 -7 12 8 22 23 22 33 0 24 26 45 46 37 13 -5 9 -13 -20 -48 -36 -42 -49
-71 -21 -48 8 7 15 9 15 5 0 -5 10 0 22 11 12 10 18 13 14 7 -4 -7 -3 -13 1
-13 12 0 36 41 28 48 -3 4 -10 0 -15 -8 -8 -13 -10 -13 -10 1 0 9 8 22 18 30
21 18 98 18 95 1 -2 -7 7 -12 20 -12 18 0 19 -2 7 -10 -13 -8 -12 -10 3 -10
20 0 23 -16 5 -23 -8 -3 -6 -6 5 -6 14 -1 17 -12 18 -73 0 -40 1 -90 2 -110 2
-36 -7 -48 -36 -48 -7 0 -4 5 6 11 19 11 23 34 6 44 -6 4 -18 -3 -27 -16 l-17
-24 -8 40 c-5 22 -9 50 -10 63 -1 12 -5 22 -9 22 -15 0 -16 -18 -4 -55 9 -26
11 -47 5 -63 -8 -20 -7 -23 5 -19 9 4 18 2 21 -3 3 -5 -5 -12 -17 -16 -14 -4
-24 -2 -26 5 -3 9 -8 9 -20 -1 -14 -12 -14 -10 -3 10 7 13 10 33 8 45 -4 19
-4 19 -6 -4 -2 -39 -43 -72 -92 -73 -29 -1 -44 4 -47 14 -5 13 -3 13 11 1 15
-12 17 -10 17 17 0 36 24 134 39 159 16 27 3 -64 -16 -108 -8 -20 -13 -47 -10
-60 3 -19 5 -18 6 8 0 17 5 34 10 38 6 3 7 -9 4 -31 -4 -23 -2 -35 4 -31 5 3
11 32 12 63 1 32 6 80 12 107 5 28 7 53 4 55 -12 12 -69 -61 -71 -89 -3 -47
-13 -79 -25 -79 -19 0 0 71 32 123 33 54 36 65 14 47 -8 -7 -15 -9 -15 -5 0 4
-7 2 -16 -6 -23 -19 -54 -84 -54 -113 0 -14 -5 -28 -10 -31 -17 -11 -40 15
-40 46 0 15 -6 34 -13 41 -18 18 -27 44 -37 107 -12 67 3 89 49 73 22 -8 34
-7 48 4 16 12 15 13 -12 9 -34 -6 -40 -3 -78 43 -31 39 -35 56 -9 48 9 -3 44
1 77 8 87 19 85 20 85 -16z m1084 15 c10 -25 -23 -48 -41 -30 -8 7 -11 21 -7
30 8 22 40 22 48 0z m-1500 -16 c16 -26 -27 -62 -55 -47 -19 10 -26 50 -12 64
13 12 56 2 67 -17z m1052 -82 c-1 -72 -15 -88 -32 -37 -5 18 -13 29 -17 26 -4
-4 -7 -2 -7 4 0 7 6 12 13 12 8 0 7 4 -3 10 -9 6 -10 10 -3 10 6 0 15 9 18 20
3 11 12 20 20 20 9 0 12 -17 11 -65z m574 40 c0 -18 -5 -25 -19 -25 -11 0 -23
5 -26 10 -11 18 3 40 25 40 15 0 20 -7 20 -25z m-802 -69 c7 -32 9 -62 6 -67
-3 -5 -20 -9 -37 -9 -24 0 -28 3 -17 10 13 9 13 10 0 10 -13 0 -13 1 0 10 13
9 13 10 0 10 -13 0 -13 1 0 10 12 8 12 10 -5 10 -19 1 -19 1 -2 14 14 11 15
15 5 19 -10 4 -10 7 1 15 7 5 11 14 7 20 -7 11 15 23 25 13 3 -3 11 -32 17
-65z m678 18 c8 -64 -1 -78 -42 -68 -25 6 -26 8 -9 15 14 5 15 8 5 9 -10 1 -9
4 5 10 18 8 18 9 -5 10 l-25 2 25 8 c21 7 22 8 5 10 l-20 1 20 9 20 9 -20 1
-20 1 20 9 20 9 -20 1 -20 1 20 9 c32 14 33 13 41 -46z m-1046 36 c0 -5 14
-10 32 -10 21 0 29 -3 22 -10 -12 -12 -66 2 -72 18 -2 7 1 12 7 12 6 0 11 -4
11 -10z m-672 -12 c17 -17 15 -43 -3 -58 -9 -8 -12 -16 -6 -19 11 -7 17 -92 7
-109 -15 -25 -33 12 -32 65 1 35 -2 54 -11 57 -28 11 -9 76 22 76 6 0 16 -5
23 -12z m1625 -48 c-5 -17 -19 -19 -160 -22 -85 -2 -157 1 -160 5 -3 4 -2 14
1 22 4 11 37 14 164 14 151 -1 159 -2 155 -19z m217 1 c0 -11 3 -26 6 -35 9
-24 -28 -20 -44 4 -10 17 -10 20 5 21 11 0 13 3 5 6 -15 6 -6 23 14 23 8 0 14
-9 14 -19z m-701 -45 c-12 -10 -59 -15 -59 -6 0 5 14 10 32 10 17 0 29 -2 27
-4z m369 -26 c1 -24 -3 -30 -16 -26 -9 2 -29 7 -44 10 -19 4 -28 13 -28 26 0
17 7 20 43 20 42 0 44 -1 45 -30z m109 24 c-3 -3 -12 -4 -19 -1 -8 3 -5 6 6 6
11 1 17 -2 13 -5z m-278 -10 c50 -6 61 -10 61 -25 0 -16 -9 -18 -87 -16 -83 2
-88 3 -91 25 -4 25 9 27 117 16z m419 -10 c78 -6 83 -7 80 -27 -3 -20 -8 -21
-88 -18 -218 8 -240 12 -227 43 5 14 52 15 235 2z m-558 -18 c0 -22 -5 -24
-72 -31 -40 -4 -107 -13 -148 -20 -41 -7 -76 -12 -77 -12 0 1 -3 13 -5 27 -3
27 -10 26 202 46 41 3 77 8 79 10 12 11 21 1 21 -20z m-910 -10 c0 -14 -9 -16
-182 -30 -32 -2 -58 -3 -58 -1 0 2 -3 10 -6 19 -6 17 23 21 164 24 65 2 82 -1
82 -12z m1595 -22 c0 -17 -9 -19 -72 -22 -49 -2 -73 1 -73 8 0 8 17 9 56 4 51
-6 56 -5 61 15 7 26 28 22 28 -5z m-617 -21 c-2 -17 -10 -29 -20 -31 -13 -2
-16 1 -12 12 7 18 -11 22 -21 5 -5 -6 -12 -4 -21 8 -13 16 -14 14 -10 -23 3
-23 8 -228 12 -457 7 -409 7 -415 -14 -437 -11 -12 -23 -41 -26 -65 -7 -43
-30 -75 -44 -61 -8 9 -18 318 -23 728 -2 159 -7 288 -10 288 -4 0 -9 -7 -13
-15 -4 -11 -20 -15 -57 -15 -42 0 -49 -2 -40 -14 17 -20 20 -63 36 -551 8
-247 17 -479 19 -514 4 -63 3 -65 -33 -100 -50 -47 -90 -69 -100 -53 -16 26
-43 473 -36 600 6 118 5 129 -13 152 -13 16 -17 30 -11 40 4 8 10 26 13 40 3
14 21 52 41 84 19 33 38 70 42 84 5 22 3 24 -13 17 -50 -20 -93 -27 -111 -16
-15 9 -13 11 17 12 l35 1 -30 8 c-23 6 -25 8 -8 9 12 0 28 8 37 16 8 8 21 15
28 15 9 0 10 -2 2 -8 -9 -5 -8 -11 2 -20 12 -11 15 -10 19 2 3 9 8 24 11 34 9
22 4 94 -6 107 -4 6 -10 28 -12 50 -3 40 -3 40 32 40 23 0 34 -4 33 -12 -2 -9
10 -13 40 -11 36 1 38 2 10 5 -35 5 -40 12 -21 31 15 15 65 16 74 1 4 -8 9 -7
15 2 7 12 104 34 167 38 20 1 23 -3 20 -26z m151 -255 l-2 -283 -25 -40 c-14
-22 -32 -45 -40 -51 -12 -9 -13 -20 -7 -50 5 -21 9 -73 9 -114 1 -71 0 -74
-24 -80 -19 -4 -26 -14 -30 -40 -14 -93 -19 25 -20 429 -1 243 1 445 4 448 3
4 6 19 6 35 0 28 0 28 65 28 l66 0 -2 -282z m74 245 c3 -21 4 -65 2 -98 -1
-33 -5 -289 -9 -570 -8 -657 -17 -1079 -24 -1085 -2 -3 -2 394 2 883 3 488 2
887 -2 887 -4 0 -8 -177 -9 -393 -2 -215 -4 -513 -6 -662 -2 -148 -5 -373 -6
-499 0 -126 -3 -227 -5 -225 -8 8 -14 1016 -8 1407 l5 392 27 0 c24 0 28 -5
33 -37z m87 12 c0 -8 9 -15 19 -15 11 0 23 -6 27 -12 6 -9 10 -5 14 12 5 20
13 26 43 28 35 3 37 2 37 -27 0 -30 -2 -31 -44 -31 l-44 0 0 -62 c2 -171 -3
-269 -12 -263 -5 3 -12 21 -16 40 -3 19 -9 35 -13 35 -4 0 -17 -21 -29 -47
-22 -51 -36 -220 -18 -226 10 -3 -11 -48 -28 -59 -19 -12 -2 -16 39 -8 23 4
30 8 17 9 -19 1 -22 5 -16 24 4 12 12 30 19 40 12 17 14 16 25 -15 14 -38 40
-47 38 -14 -2 47 14 531 18 535 2 3 9 0 16 -7 8 -8 8 -93 0 -339 -7 -180 -16
-456 -22 -613 -5 -157 -12 -341 -15 -410 -2 -69 -5 -182 -5 -252 0 -85 -4
-128 -11 -128 -7 0 -9 38 -5 123 3 67 8 331 10 587 2 293 1 400 -4 290 -4 -96
-9 -267 -11 -380 -2 -113 -5 -237 -7 -277 l-4 -72 -33 -7 c-18 -3 -42 -3 -52
0 -19 6 -20 20 -18 394 1 213 5 561 10 775 l8 387 34 0 c23 0 33 -5 33 -15z
m45 5 c-3 -5 -10 -10 -16 -10 -5 0 -9 5 -9 10 0 6 7 10 16 10 8 0 12 -4 9 -10z
m-1535 -19 c0 -8 -27 -26 -150 -100 -54 -32 -66 -36 -73 -24 -5 8 -7 16 -5 17
59 45 145 100 165 106 38 11 63 12 63 1z m130 -11 c0 -11 5 -20 10 -20 6 0 10
9 10 21 0 16 5 20 28 17 l27 -3 -2 -75 c-5 -149 -1 -285 8 -288 5 -2 9 -11 9
-21 0 -10 9 -35 19 -56 12 -25 16 -47 11 -60 -4 -11 -7 -51 -6 -88 1 -38 -2
-71 -6 -73 -9 -6 1 -85 12 -98 5 -5 6 -15 3 -22 -3 -8 -1 -14 5 -14 5 0 12 6
15 14 3 8 19 17 36 21 17 3 29 11 28 17 -1 6 34 23 78 38 100 36 83 39 -22 5
-43 -14 -81 -32 -86 -40 -4 -8 -16 -15 -26 -15 -24 0 -39 78 -19 92 64 41 384
103 364 69 -3 -5 -16 -8 -29 -8 -34 -1 -169 -24 -164 -29 3 -3 33 0 68 6 80
12 189 13 189 1 0 -6 -17 -12 -37 -14 -26 -2 -18 -4 24 -5 34 -1 65 -6 68 -12
3 -5 -1 -10 -11 -10 -14 0 -14 -3 -4 -16 17 -20 28 -180 11 -170 -6 4 -11 13
-11 21 0 7 -4 15 -9 17 -14 5 -30 127 -17 132 6 2 -16 5 -48 5 -43 1 -87 -9
-160 -33 -126 -44 -184 -68 -171 -72 6 -2 8 -27 6 -55 -4 -69 8 -167 20 -148
4 8 6 24 3 36 -3 12 -7 56 -7 98 -2 55 1 75 11 75 8 0 12 -12 11 -32 -2 -61
22 -363 32 -392 5 -16 9 -44 9 -62 0 -18 6 -34 12 -36 9 -3 15 -48 20 -149 3
-79 11 -164 18 -189 6 -24 9 -54 6 -66 -6 -23 1 -54 13 -54 4 0 5 19 3 43 -2
31 -1 38 7 27 6 -8 11 -32 11 -52 0 -37 14 -59 23 -36 4 9 6 7 6 -3 1 -9 8
-23 17 -30 15 -12 16 -10 9 21 -4 19 -12 40 -19 45 -6 6 -17 28 -24 50 -15 51
-34 204 -26 216 3 5 0 9 -7 9 -9 0 -10 -21 -6 -77 4 -61 3 -71 -5 -48 -6 17
-13 124 -17 240 -5 165 -8 199 -15 160 -8 -47 -9 -48 -19 -25 -9 24 -16 100
-33 353 -6 96 -5 107 9 107 10 0 20 0 25 0 4 1 12 -37 18 -82 11 -77 12 -79
14 -33 l2 50 9 -40 c5 -22 9 -113 9 -202 -1 -97 3 -164 9 -167 6 -4 9 26 7 85
-2 50 0 103 4 117 13 48 23 -81 21 -255 -2 -101 1 -163 7 -163 19 0 21 272 2
405 -10 67 -10 116 -3 190 8 83 10 90 12 43 0 -31 6 -60 11 -63 6 -3 10 -16
10 -27 0 -12 3 -19 6 -16 3 4 9 55 13 115 11 152 12 -459 2 -757 -7 -184 -6
-228 5 -239 7 -8 17 -11 21 -7 4 4 2 11 -5 15 -10 6 -12 57 -7 237 8 275 9
288 21 292 16 6 32 133 23 192 -12 77 -20 177 -13 162 3 -6 9 -10 14 -7 4 3
11 -29 15 -70 4 -41 11 -78 17 -81 7 -5 8 15 2 62 -4 38 -7 95 -5 127 2 48 -1
57 -15 57 -16 0 -16 2 -1 18 9 10 14 29 11 47 l-4 30 11 -30 c5 -16 12 -109
14 -205 3 -107 1 -165 -4 -150 -8 23 -9 23 -10 -10 -1 -92 18 -242 34 -266 10
-16 13 -29 8 -33 -6 -3 -13 -13 -16 -21 -3 -8 -6 4 -6 28 -1 24 -6 42 -12 42
-8 0 -9 -19 -4 -64 4 -42 3 -66 -4 -71 -6 -3 -11 -23 -11 -44 0 -46 19 -103
31 -95 5 3 5 13 -1 24 -5 10 -9 38 -9 62 l1 43 10 -50 c5 -27 14 -55 19 -62 7
-8 7 -18 0 -32 -17 -31 -13 -45 24 -94 19 -25 35 -48 35 -50 0 -2 -32 -7 -71
-9 -39 -3 -76 -11 -82 -17 -16 -16 -109 -14 -135 4 -12 9 -35 17 -52 18 -21 1
-30 7 -30 20 0 10 5 15 10 12 6 -3 10 3 10 14 0 11 5 23 10 26 15 10 13 115
-3 115 -13 0 -38 115 -59 270 -13 92 -34 124 -23 35 6 -57 33 -203 56 -310 6
-28 9 -61 7 -75 -4 -21 -6 -18 -11 15 -4 22 -18 87 -32 145 -28 122 -37 191
-40 315 -1 50 -5 119 -8 155 l-6 65 13 -70 c7 -38 18 -88 24 -109 6 -22 9 -44
5 -49 -3 -5 0 -7 8 -5 8 3 13 9 13 14 -1 5 -9 43 -17 84 -9 41 -20 107 -26
145 -6 39 -13 87 -16 108 -3 20 -10 37 -15 37 -6 0 -10 10 -11 23 -1 16 -3 14
-9 -10 -4 -18 -2 -65 6 -110 7 -43 17 -157 23 -254 6 -97 11 -180 12 -185 4
-23 -4 -32 -33 -39 -44 -9 -99 -8 -109 2 -11 11 -20 422 -22 959 l-2 411 -45
-4 c-34 -3 -41 -2 -30 6 10 7 11 11 3 11 -20 0 -15 20 5 21 14 0 14 2 -3 9
-16 7 -13 9 18 9 31 1 37 -2 37 -19z m1616 0 c8 0 14 -10 14 -25 0 -23 -4 -25
-45 -25 l-45 0 0 -175 c0 -168 -1 -175 -20 -175 -19 0 -20 7 -20 163 0 89 3
179 6 200 7 39 24 51 24 17 0 -11 5 -20 10 -20 6 0 10 9 10 19 0 21 17 32 38
25 8 -2 20 -4 28 -4z m-1716 -23 c0 -13 5 -28 10 -33 13 -13 16 -84 53 -1212
4 -99 3 -102 -18 -102 -12 0 -30 -9 -40 -20 -10 -11 -29 -20 -42 -20 l-23 0 0
-172 c0 -94 -3 -169 -6 -166 -3 3 -9 84 -13 179 l-8 174 -4 -180 -3 -180 -6
125 c-4 85 -7 103 -8 57 -2 -59 -4 -68 -19 -65 -22 4 -32 78 -12 78 10 0 10 3
1 12 -18 18 -14 35 10 41 l21 6 -6 248 c-4 136 -9 336 -11 443 -4 191 -4 192
5 60 5 -74 13 -243 18 -375 l9 -240 -4 320 c-3 176 -7 347 -11 380 -4 43 -2
57 6 50 7 -7 14 -138 21 -370 6 -198 12 -373 14 -390 6 -43 -3 519 -10 652 -6
106 -5 112 15 122 27 15 28 57 1 73 -19 12 -20 24 -20 243 l0 230 32 27 c40
34 48 34 48 5z m1768 -212 c1 -151 -2 -235 -8 -235 -6 0 -10 10 -10 23 0 13
-5 28 -11 34 -25 25 -5 413 21 413 4 0 8 -106 8 -235z m-1561 183 c-3 -7 -5
-2 -5 12 0 14 2 19 5 13 2 -7 2 -19 0 -25z m907 -385 c12 -713 15 -1224 7
-1219 -5 3 -11 189 -15 413 -3 224 -8 521 -11 658 -11 529 -11 565 1 565 8 0
13 -114 18 -417z m28 300 c5 -206 10 -1278 5 -1273 -2 3 -7 230 -11 505 -3
275 -9 587 -13 693 -4 135 -3 192 5 192 7 0 12 -41 14 -117z m444 -140 c-4
-131 -9 -276 -12 -323 -2 -47 -11 -258 -19 -469 -8 -211 -17 -386 -20 -390 -4
-3 -4 64 -1 149 3 85 8 254 11 375 4 121 10 308 15 415 5 107 10 259 10 338 0
99 3 142 11 142 9 0 10 -63 5 -237z m-1487 -56 c1 -149 6 -494 12 -766 5 -271
8 -496 5 -499 -3 -3 -6 21 -7 54 0 32 -4 68 -9 79 -7 15 -9 10 -8 -22 1 -23
-1 -45 -3 -48 -6 -5 -11 135 -29 800 -16 595 -17 675 -9 675 11 0 15 -108 18
-445 1 -165 3 -320 5 -345 2 -25 7 -168 11 -317 4 -150 11 -273 15 -273 4 0 6
10 4 23 -4 31 -13 421 -21 936 -4 306 -3 432 5 427 7 -4 11 -98 11 -279z m851
196 c0 -49 3 -164 6 -258 9 -268 21 -830 17 -834 -8 -12 -11 22 -17 244 -4
132 -11 384 -16 560 -12 402 -12 375 0 375 6 0 10 -36 10 -87z m-40 70 c8
-141 24 -697 35 -1258 3 -143 8 -293 11 -332 3 -47 1 -73 -6 -73 -6 0 -11 41
-12 108 0 59 -2 118 -3 132 -1 14 -5 122 -9 240 -4 118 -11 303 -16 410 -5
107 -12 265 -15 350 -3 85 -8 217 -11 293 -6 123 -5 137 10 137 9 0 16 -3 16
-7z m795 -395 c-4 -216 -11 -487 -15 -603 -7 -177 -7 -160 -4 115 2 179 6 449
10 600 4 183 2 270 -4 261 -6 -9 -11 -143 -11 -339 -1 -179 -3 -327 -5 -331
-2 -3 -7 -184 -11 -401 -4 -217 -10 -397 -13 -400 -2 -3 -2 326 2 730 3 404 6
741 6 748 0 6 12 12 27 12 l26 0 -8 -392z m-1805 373 c0 -6 -5 -13 -11 -16 -6
-4 -8 -13 -5 -20 2 -7 -5 -21 -16 -32 -20 -16 -21 -17 -15 0 4 9 2 17 -3 17
-15 0 -12 47 3 53 21 9 47 7 47 -2z m306 -10 c-4 -5 -1 -11 5 -13 7 -2 10 -9
8 -16 -3 -7 -9 -8 -18 -3 -13 8 -9 41 4 41 4 0 4 -4 1 -9z m46 -26 c3 -14 1
-25 -3 -25 -5 0 -9 11 -9 25 0 14 2 25 4 25 2 0 6 -11 8 -25z m25 -12 c-3 -10
-5 -4 -5 12 0 17 2 24 5 18 2 -7 2 -21 0 -30z m199 -30 c-11 -11 -19 6 -11 24
8 17 8 17 12 0 3 -10 2 -21 -1 -24z m314 4 c0 -40 -67 -51 -299 -49 -112 1
-206 4 -209 7 -10 10 -40 5 -51 -9 -9 -11 -6 -15 16 -21 l28 -8 -25 -7 -25 -7
28 -8 c37 -10 34 -20 -6 -20 -45 0 -54 9 -49 49 3 25 8 33 18 29 8 -3 14 -1
14 5 0 5 -11 13 -25 16 -16 4 -25 13 -25 26 0 25 -4 25 58 -5 49 -24 59 -25
185 -21 113 4 331 36 346 51 9 9 21 -7 21 -28z m-889 -180 c1 -98 -1 -180 -5
-184 -3 -3 -6 78 -6 182 0 104 2 186 4 184 3 -2 6 -84 7 -182z m-33 -14 c-2
-179 -6 -158 -10 60 -2 64 0 117 5 117 4 0 6 -80 5 -177z m509 131 c-3 -3 -12
-4 -19 -1 -8 3 -5 6 6 6 11 1 17 -2 13 -5z m156 -1 c-13 -2 -35 -2 -50 0 -16
2 -5 4 22 4 28 0 40 -2 28 -4z m113 -71 c-13 -12 -17 8 -10 40 l9 33 3 -33 c2
-19 1 -36 -2 -40z m-295 18 c7 -36 13 -32 9 8 -1 12 3 22 9 22 6 0 11 -6 12
-12 0 -10 2 -10 6 0 10 26 23 10 23 -28 0 -44 -3 -45 -70 -34 -34 6 -35 7 -32
45 5 52 34 51 43 -1z m190 10 c7 -25 7 -25 8 3 1 38 18 25 23 -18 l4 -35 -43
0 c-46 0 -50 7 -37 58 8 30 36 25 45 -8z m56 -17 c-4 -17 -4 -17 -12 0 -4 9
-4 25 0 35 8 16 8 16 12 0 3 -10 3 -26 0 -35z m-123 -35 c6 -4 -2 -8 -18 -8
-23 0 -27 3 -18 12 7 7 13 21 13 33 1 16 3 15 6 -5 3 -14 10 -28 17 -32z m307
23 c-13 -24 -107 -48 -243 -62 -183 -19 -392 11 -352 51 6 6 32 2 73 -10 35
-11 91 -23 125 -26 68 -6 214 15 311 45 82 26 99 26 86 2z m696 -66 c-3 -7 3
-22 14 -33 15 -17 19 -36 19 -89 l-1 -68 -23 29 c-15 17 -29 26 -36 21 -15 -9
-12 139 3 169 9 18 10 18 19 2 5 -9 7 -23 5 -31z m-740 19 c-3 -3 -12 -4 -19
-1 -8 3 -5 6 6 6 11 1 17 -2 13 -5z m-107 -64 c0 -21 -4 -41 -9 -44 -13 -8
-109 13 -117 25 -3 6 -3 21 0 35 8 31 56 35 56 5 0 -11 5 -23 10 -26 6 -4 10
5 10 21 0 36 9 26 14 -15 6 -51 16 -49 16 3 0 29 4 45 10 41 6 -3 10 -24 10
-45z m-855 -36 c19 -78 19 -104 -1 -104 -22 0 -39 21 -41 50 -1 14 -3 39 -6
56 -5 39 10 81 24 67 6 -6 16 -37 24 -69z m471 62 c11 -8 38 -18 60 -21 21 -4
64 -14 94 -22 30 -7 97 -23 148 -33 82 -17 152 -43 152 -55 0 -2 -15 2 -32 9
-49 20 -88 28 -88 17 0 -5 18 -13 41 -19 44 -11 109 -51 109 -67 0 -5 -4 -16
-9 -23 -7 -11 -16 -10 -48 6 -22 11 -81 30 -131 42 -51 12 -92 25 -92 30 0 8
37 2 90 -15 17 -5 22 -4 15 3 -5 6 -37 18 -69 26 -33 9 -64 20 -70 26 -5 5
-20 10 -31 10 -12 0 -43 7 -69 16 -26 9 -50 14 -53 11 -5 -5 61 -26 130 -41
15 -4 27 -11 27 -16 0 -11 -28 -7 -104 16 -26 8 -51 13 -53 10 -8 -8 44 -26
112 -39 l60 -11 -45 -7 c-25 -4 -69 -8 -98 -8 -58 -1 -69 9 -53 52 7 17 7 28
1 32 -16 10 -11 25 8 25 12 1 9 5 -10 16 -16 8 -28 21 -28 29 0 19 10 19 36 1z
m469 4 c-3 -5 -10 -10 -16 -10 -5 0 -9 5 -9 10 0 6 7 10 16 10 8 0 12 -4 9
-10z m-378 -6 c-3 -3 -12 -4 -19 -1 -8 3 -5 6 6 6 11 1 17 -2 13 -5z m151 -16
c-5 -34 -38 -37 -38 -4 0 20 5 26 21 26 15 0 20 -5 17 -22z m159 -45 c-2 -16
-4 -5 -4 22 0 28 2 40 4 28 2 -13 2 -35 0 -50z m48 -11 c1 -19 -3 -31 -9 -29
-6 2 -12 26 -14 53 -2 42 0 46 10 29 7 -11 13 -35 13 -53z m942 -461 c-4 -273
-7 -520 -7 -549 l0 -53 -37 3 -38 3 3 125 c3 114 13 404 28 800 3 85 7 160 9
167 2 7 13 9 26 6 l22 -6 -6 -496z m129 129 c-4 -157 -8 -387 -9 -512 -1 -211
-6 -252 -21 -213 -3 8 -14 15 -25 15 -20 0 -20 5 -15 123 4 118 24 837 24 893
l0 27 26 -24 26 -24 -6 -285z m-1823 238 c8 -24 -5 -38 -37 -38 -17 0 -82 -9
-144 -21 -62 -12 -115 -19 -118 -17 -9 10 8 37 27 43 27 9 219 43 246 44 12 1
23 -5 26 -11z m445 -10 c2 -10 -9 -20 -29 -27 -45 -15 -51 -14 -47 11 5 34 70
48 76 16z m70 4 c2 -7 -3 -12 -12 -12 -9 0 -16 7 -16 16 0 17 22 14 28 -4z
m-207 -42 c5 0 10 10 10 23 1 18 2 18 6 4 3 -11 11 -16 19 -13 21 8 17 -12 -5
-24 -38 -20 -51 -13 -50 28 2 30 3 32 6 10 2 -16 9 -28 14 -28z m156 28 c-3
-8 -6 -5 -6 6 -1 11 2 17 5 13 3 -3 4 -12 1 -19z m100 16 c-3 -3 -12 -4 -19
-1 -8 3 -5 6 6 6 11 1 17 -2 13 -5z m774 -37 c-8 -8 -11 -7 -11 4 0 9 3 19 7
23 4 4 9 2 11 -4 3 -7 -1 -17 -7 -23z m0 -27 c12 0 12 -887 0 -894 -5 -3 -12
5 -15 19 -4 14 -12 25 -20 25 -18 0 -48 -35 -39 -44 5 -5 -1 -6 -12 -4 -19 3
-20 13 -25 273 -3 149 -3 278 -2 287 2 9 10 14 18 11 11 -4 14 5 14 34 0 35 3
40 33 48 l32 10 -4 84 c-2 60 0 82 8 77 6 -4 11 -2 11 3 0 6 -6 11 -14 11 -7
0 -16 10 -20 23 -10 37 -7 50 10 43 9 -3 20 -6 25 -6z m-1431 -12 c0 -7 4
-110 10 -228 23 -543 24 -570 7 -570 -22 0 -24 31 -35 410 -11 384 -11 400 6
400 6 0 12 -6 12 -12z m-42 -27 c-2 -21 -9 -26 -33 -28 -27 -2 -28 -2 -7 7 32
14 27 20 -13 13 -23 -4 -35 -2 -35 6 0 6 12 11 28 12 24 0 24 1 7 9 -15 6 -11
7 18 7 35 -1 38 -3 35 -26z m-114 10 c7 -11 21 -178 42 -515 18 -287 20 -276
-48 -276 l-38 0 0 218 c0 119 -3 296 -7 393 -5 168 -5 177 13 182 30 8 33 7
38 -2z m895 -141 c1 -52 -2 -70 -9 -60 -5 8 -9 51 -9 95 0 54 3 73 9 60 5 -11
9 -54 9 -95z m80 -39 c5 -61 8 -189 8 -285 -1 -96 0 -172 3 -170 2 3 7 39 11
82 l6 77 2 -70 c1 -38 5 -87 10 -108 5 -21 5 -39 0 -43 -5 -3 -9 6 -9 20 0 14
-4 26 -10 26 -5 0 -10 -12 -10 -27 0 -14 -3 -24 -6 -20 -9 9 -22 192 -14 195
12 4 0 349 -15 442 -5 29 -4 31 4 13 6 -13 14 -72 20 -132z m-152 107 c-3 -7
-5 -2 -5 12 0 14 2 19 5 13 2 -7 2 -19 0 -25z m-713 0 c3 -13 7 -117 10 -233
3 -115 10 -302 15 -415 5 -113 13 -339 17 -504 6 -253 5 -298 -7 -294 -10 3
-16 29 -20 89 l-5 84 -2 -89 c-3 -147 -16 -87 -28 127 -6 111 -12 171 -12 134
-2 -60 -5 -69 -25 -77 -22 -9 -22 -9 0 -9 20 -1 22 -8 28 -104 4 -57 6 -112 4
-122 -3 -13 -21 -23 -57 -33 -62 -17 -74 -10 -70 43 2 22 9 31 28 36 14 4 18
7 11 8 -24 2 1 19 34 24 24 3 21 4 -12 6 -25 0 -43 -4 -43 -10 0 -5 -4 -7 -10
-4 -5 3 -10 19 -10 36 0 28 1 29 53 31 l52 2 -47 3 c-27 2 -48 8 -48 14 0 5 6
9 13 9 6 1 30 9 52 20 l40 19 -32 1 c-18 0 -33 -4 -33 -10 0 -5 -9 -10 -20
-10 -13 0 -18 5 -14 15 4 8 15 15 25 15 30 0 22 18 -9 22 l-27 3 1 100 0 100
54 0 c53 0 55 -1 62 -30 4 -18 5 -6 3 30 -3 33 -7 137 -10 230 -4 94 -10 233
-15 310 -22 339 -24 445 -9 445 8 0 15 -8 16 -17 0 -10 5 -117 11 -238 10
-201 28 -609 36 -845 2 -52 1 40 -1 205 -3 165 -6 318 -8 340 -2 22 -6 135
-10 250 -8 244 -8 209 -6 268 1 48 17 64 25 25z m696 18 c0 -3 -4 -8 -10 -11
-5 -3 -10 -1 -10 4 0 6 5 11 10 11 6 0 10 -2 10 -4z m-32 -33 c6 -15 12 -32
11 -37 0 -6 -4 -1 -10 12 -5 13 -13 21 -18 18 -10 -7 -23 19 -14 28 11 11 18
6 31 -21z m-39 -31 c0 -24 -1 -25 -9 -7 -12 28 -12 47 0 40 6 -3 10 -18 9 -33z
m40 -112 c0 -23 -1 -23 -9 -5 -5 11 -9 31 -9 45 0 23 1 23 9 5 5 -11 9 -31 9
-45z m265 -175 c24 -287 44 -385 89 -433 26 -28 31 -61 11 -87 -11 -15 -18
-17 -32 -9 -26 16 -67 83 -86 138 -25 76 -18 79 12 6 31 -74 63 -130 75 -130
13 0 7 18 -17 47 -12 15 -32 53 -43 83 -17 45 -18 57 -8 67 7 6 16 9 20 5 5
-4 5 4 1 18 -3 14 -9 51 -12 82 -4 32 -11 55 -15 52 -5 -3 -9 41 -9 98 0 57
-3 141 -6 188 -4 47 -4 83 -1 80 2 -3 12 -95 21 -205z m-37 -28 c-2 -23 -3 -1
-3 48 0 50 1 68 3 42 2 -26 2 -67 0 -90z m-114 23 c2 -41 1 -86 -2 -100 -7
-25 -8 -25 -15 -3 -9 27 -5 196 5 186 3 -5 9 -42 12 -83z m507 -248 l5 -332
-45 1 -45 2 40 7 40 7 -42 2 c-42 1 -43 2 -43 36 0 32 3 35 40 45 24 6 40 17
40 25 0 16 -12 18 -50 8 l-25 -7 25 -7 25 -7 -26 -1 c-23 -1 -27 4 -31 33 -3
24 1 37 13 44 9 6 21 32 28 59 7 26 16 63 21 81 7 27 6 33 -6 28 -18 -7 -17
12 1 44 17 30 18 40 5 40 -22 0 -42 -63 -36 -114 5 -49 -10 -126 -25 -126 -4
0 -9 73 -11 163 -3 171 5 216 44 240 10 7 18 23 18 40 0 22 4 28 18 25 16 -3
17 -29 22 -336z m-179 -42 l2 -134 -26 -7 c-19 -5 -33 -2 -49 12 -20 16 -20
18 -5 19 9 0 17 5 17 10 0 10 -3 11 -32 14 -13 1 -36 56 -37 87 -1 9 10 24 24
33 14 9 25 23 25 30 0 12 71 78 77 73 1 -1 3 -63 4 -137z m68 13 c-2 -79 -6
-70 -11 25 -2 28 0 52 5 52 4 0 6 -35 6 -77z m-169 33 c0 -2 -7 -6 -15 -10 -8
-3 -15 -1 -15 4 0 6 7 10 15 10 8 0 15 -2 15 -4z m867 -148 c-2 -24 -4 -7 -4
37 0 44 2 63 4 43 2 -21 2 -57 0 -80z m-1609 24 l3 -32 -48 1 c-47 2 -47 2
-13 9 l35 7 -42 2 c-25 0 -43 -4 -46 -11 -3 -8 -6 -6 -6 5 -1 10 10 21 27 27
15 6 34 14 42 20 27 17 45 6 48 -28z m228 -36 c6 -37 6 -38 -17 -31 -41 13
-84 34 -71 35 7 0 22 -5 33 -11 11 -5 28 -8 37 -6 29 7 -30 26 -88 28 -66 3
-76 19 -13 20 26 1 59 4 73 8 32 10 37 5 46 -43z m442 -76 c12 -19 40 -49 64
-66 49 -35 65 -78 27 -72 -12 2 -23 11 -25 21 -1 10 -16 32 -33 49 -17 18 -31
38 -31 45 0 8 -12 25 -26 38 -20 18 -28 37 -31 72 l-4 48 19 -50 c10 -27 28
-66 40 -85z m239 13 c-2 -21 -4 -6 -4 32 0 39 2 55 4 38 2 -18 2 -50 0 -70z
m-1097 77 c0 -5 -7 -10 -16 -10 -8 0 -12 5 -9 10 3 6 10 10 16 10 5 0 9 -4 9
-10z m-126 -37 c3 -21 6 -64 6 -95 l0 -58 -55 0 -55 0 0 35 c0 19 4 35 10 35
5 0 7 6 4 14 -4 11 6 16 43 19 l48 3 -55 2 c-63 3 -52 22 13 22 43 0 42 19 -1
21 l-27 1 30 8 c28 7 27 8 -15 10 l-45 3 35 7 c19 4 40 8 46 9 6 0 14 -16 18
-36z m391 0 c2 -10 4 -24 4 -31 1 -9 6 -10 19 -3 24 13 134 4 144 -12 4 -7 8
-20 8 -29 0 -20 -48 -25 -80 -8 -13 7 -24 5 -43 -10 -14 -11 -35 -20 -46 -20
-19 0 -21 6 -21 72 0 66 7 85 15 41z m-270 7 c3 -5 -1 -10 -9 -10 -9 0 -16 5
-16 10 0 6 4 10 9 10 6 0 13 -4 16 -10z m195 -55 l0 -65 -34 0 c-36 0 -56 -14
-34 -23 7 -3 -2 -6 -19 -6 -30 -1 -33 2 -33 28 0 28 3 30 48 36 69 10 75 15
12 12 -52 -2 -55 -1 -58 24 -3 24 0 26 44 28 65 2 69 11 6 11 -29 0 -52 5 -52
10 0 6 27 10 60 10 l60 0 0 -65z m848 -17 c3 -35 1 -38 -25 -39 l-28 -2 30 -5
30 -5 -25 -7 c-24 -8 -24 -8 -2 -9 19 -1 22 -6 22 -42 0 -32 -4 -42 -20 -46
-11 -3 -20 -12 -20 -20 0 -10 -9 -13 -27 -11 -32 4 -41 23 -14 31 27 7 38 63
16 87 -21 23 -12 40 20 40 13 0 27 5 30 10 3 6 -3 10 -14 10 -16 0 -21 6 -21
26 0 21 4 25 23 22 18 -2 23 -10 25 -40z m-207 -95 c-1 -25 42 -63 72 -63 18
0 17 -2 -6 -20 -33 -27 -41 -25 -71 11 -28 33 -33 58 -15 76 9 9 8 21 -5 46
-9 19 -16 46 -16 59 1 14 8 3 21 -32 11 -30 20 -65 20 -77z m565 117 c10 0 14
-12 14 -39 0 -43 -12 -51 -82 -51 -37 0 -38 1 -38 39 0 34 3 39 33 49 17 5 38
8 45 6 8 -2 20 -4 28 -4z m401 -12 c-3 -8 -6 -5 -6 6 -1 11 2 17 5 13 3 -3 4
-12 1 -19z m-197 -19 l0 -31 -46 7 c-32 4 -44 3 -39 -4 3 -6 -1 -11 -9 -11
-12 0 -16 10 -16 35 l0 35 55 0 c55 0 55 0 55 -31z m279 -3 c12 -32 2 -46 -33
-47 -24 0 -27 -2 -12 -8 17 -6 17 -8 4 -14 -23 -8 -28 1 -28 53 0 46 0 47 31
42 19 -3 33 -12 38 -26z m-1019 -28 c64 -101 72 -124 24 -70 -27 30 -48 65
-58 100 -11 35 -2 26 34 -30z m890 2 c0 -36 -3 -40 -24 -40 -44 0 -56 10 -56
46 0 33 1 34 40 34 l40 0 0 -40z m-1533 -87 c-2 -21 -4 -4 -4 37 0 41 2 58 4
38 2 -21 2 -55 0 -75z m176 82 c15 -2 34 -3 42 -4 8 0 15 -7 15 -15 0 -11 -8
-12 -37 -5 -28 6 -44 4 -60 -6 -12 -8 -34 -15 -48 -15 -14 0 -25 -4 -25 -9 0
-11 66 3 83 17 9 8 26 8 55 0 l42 -10 0 -82 c0 -62 -5 -86 -18 -104 -18 -23
-21 -24 -138 -18 -165 8 -226 7 -241 -6 -17 -14 -8 -24 9 -11 18 14 102 22
121 12 8 -5 59 -11 114 -14 54 -2 102 -4 106 -5 5 0 5 -10 2 -21 -11 -35 10
-14 29 29 25 54 54 69 95 48 l31 -17 -22 -30 c-27 -37 -93 -73 -119 -66 -12 3
-19 0 -19 -9 0 -8 2 -14 5 -14 16 0 105 36 127 51 14 11 39 19 54 19 27 0 27
1 8 15 -17 13 -12 14 57 15 45 0 88 -6 105 -14 40 -20 98 -31 90 -18 -3 6 -21
14 -39 17 -70 15 -92 65 -28 65 34 0 41 -4 55 -35 9 -19 21 -35 26 -35 10 0 3
27 -13 48 -12 15 5 36 46 57 36 18 51 19 41 4 -5 -8 6 -10 34 -7 22 2 38 0 36
-4 -3 -5 -17 -9 -32 -9 -18 -1 -21 -3 -9 -6 28 -7 67 5 67 21 0 9 14 16 38 18
20 3 45 8 55 12 10 5 17 4 17 -2 0 -5 -10 -12 -22 -15 -12 -4 -19 -9 -16 -13
4 -3 23 -1 42 6 l36 12 -22 28 c-13 16 -29 29 -36 29 -8 1 -12 9 -10 19 2 13
15 18 48 20 l45 3 3 -36 c3 -44 -25 -84 -71 -102 l-32 -13 40 5 c22 3 58 6 80
8 22 2 50 9 62 15 18 10 32 9 72 -4 27 -8 62 -14 77 -11 27 4 26 4 -6 6 -60 2
-72 21 -15 22 55 2 126 16 89 18 -18 1 -23 8 -25 44 -2 23 -3 52 -1 65 3 22 7
23 45 16 43 -7 66 -26 67 -56 0 -15 -9 -18 -50 -18 -27 0 -50 -5 -50 -10 0 -6
11 -8 25 -4 30 7 75 -2 75 -17 0 -6 -20 -8 -52 -4 l-53 5 50 -13 c32 -8 50
-17 50 -27 0 -12 -13 -15 -60 -13 l-60 2 70 -10 c38 -5 78 -15 90 -23 11 -7
32 -15 47 -18 25 -5 27 -3 22 18 -4 15 -2 24 5 24 21 0 11 19 -11 22 -17 2
-23 10 -23 27 0 13 7 26 15 28 13 4 13 3 0 -6 -12 -8 -7 -11 20 -10 19 0 29 3
22 6 -6 2 -10 9 -6 14 3 5 -9 9 -25 9 -26 0 -31 4 -31 25 0 23 4 25 40 25 l40
0 0 -60 c0 -33 -5 -69 -12 -80 -18 -28 -4 -35 73 -34 47 0 69 -3 69 -11 0 -18
-47 -25 -114 -18 -45 5 -60 2 -76 -12 -12 -11 -28 -15 -42 -12 -29 8 -111 -4
-101 -14 5 -5 42 -4 83 2 41 6 115 13 163 16 l88 4 -3 -127 -3 -128 -55 3
c-30 1 -56 7 -58 12 -2 5 -8 9 -13 9 -6 0 -7 -5 -4 -10 3 -6 -1 -10 -9 -10 -9
0 -16 7 -16 15 0 11 16 15 68 17 63 3 89 19 42 26 -11 2 -20 8 -20 13 0 5 -19
9 -42 9 -55 0 -31 19 27 21 30 2 33 3 13 6 -16 2 -28 9 -28 14 0 5 -13 9 -30
9 -16 0 -30 5 -30 10 0 6 14 10 30 10 20 0 30 5 30 15 0 10 -10 15 -34 15 -19
0 -38 4 -41 10 -4 6 8 10 29 10 20 0 36 5 36 10 0 6 23 10 50 10 28 0 50 5 50
10 0 16 -96 12 -110 -5 -8 -10 -31 -15 -71 -15 -33 0 -59 -4 -59 -9 0 -6 -52
-11 -115 -13 -89 -2 -114 0 -110 10 2 6 -3 12 -13 13 -120 5 -302 2 -302 -5 0
-5 -71 -7 -161 -4 -137 4 -163 7 -171 21 -6 12 -22 17 -51 16 -23 0 -35 -3
-27 -6 8 -4 20 -12 25 -20 7 -9 51 -15 148 -20 94 -4 143 -10 155 -20 15 -12
0 -13 -108 -8 -69 4 -127 8 -130 8 -3 1 -7 -2 -10 -8 -8 -15 128 -24 266 -18
66 3 138 3 160 -1 34 -7 37 -9 21 -21 -9 -6 -17 -17 -17 -22 0 -6 -27 -13 -60
-17 -95 -11 -92 -33 7 -42 58 -5 102 -21 157 -58 26 -17 27 -20 10 -29 -13 -7
-19 -7 -22 2 -3 8 -28 10 -95 5 -78 -6 -90 -5 -82 7 18 25 11 53 -15 60 -62
17 -214 5 -206 -16 3 -9 -10 -15 -37 -19 -40 -6 -323 -25 -379 -26 -16 0 -28
-4 -28 -10 0 -6 22 -8 53 -5 28 2 122 9 207 15 272 19 296 18 303 -11 5 -20
10 -20 121 -13 100 6 116 5 116 -8 0 -11 -15 -17 -52 -21 -29 -3 -98 -10 -152
-16 -82 -9 -102 -8 -115 3 -24 21 -93 29 -182 21 -106 -9 -91 -26 16 -18 68 5
93 3 123 -11 34 -15 50 -16 152 -6 63 6 141 14 173 17 36 3 61 11 64 19 6 17
30 18 35 2 3 -7 30 -15 63 -18 34 -3 60 -10 63 -18 3 -10 -18 -12 -90 -10 -51
1 -127 -1 -168 -5 -86 -9 -255 -12 -448 -8 -74 1 -136 1 -138 -2 -2 -2 73 -7
168 -11 95 -4 178 -7 183 -7 6 -1 84 5 175 12 180 13 201 14 275 10 70 -3 114
8 126 31 10 18 17 19 59 14 27 -4 61 -13 77 -21 33 -17 223 -21 223 -5 0 6
-41 10 -102 10 -80 0 -105 3 -119 16 -27 24 -148 23 -166 -2 -11 -14 -17 -16
-35 -6 -13 6 -43 13 -68 14 -37 3 -30 5 35 11 94 10 125 19 77 25 -24 2 -32 7
-28 18 8 20 -25 34 -78 34 -48 0 -69 14 -36 25 12 4 19 12 17 18 -3 11 -152
11 -170 0 -4 -3 -31 -1 -60 3 -44 6 -48 8 -27 15 14 4 40 7 59 8 23 1 42 10
58 27 30 32 21 45 -39 55 -34 5 -25 7 42 7 68 1 80 -2 63 -10 -33 -16 -28 -28
12 -28 26 0 33 -3 29 -15 -5 -13 11 -15 110 -15 65 0 116 -4 116 -9 0 -11 -18
-17 -80 -25 -47 -7 -79 -21 -69 -31 4 -3 29 -8 57 -12 28 -3 49 -9 47 -13 -9
-14 25 -20 105 -20 78 0 79 0 82 -27 2 -14 9 -28 15 -31 9 -2 11 5 6 29 -5 28
-4 31 11 26 10 -4 47 -7 82 -7 l65 0 -3 -72 -3 -73 -250 -6 c-137 -3 -574 -7
-970 -8 -396 -2 -740 -3 -765 -4 -99 -1 -110 1 -109 26 0 12 3 16 6 10 2 -7 9
-13 14 -13 6 0 7 5 4 11 -4 6 2 13 14 16 12 3 21 9 21 13 0 5 -9 6 -20 3 -27
-7 -51 3 -45 20 7 16 92 40 108 30 7 -5 64 -8 127 -9 101 0 116 12 19 15 l-36
1 -6 68 c-4 37 -7 93 -7 125 l0 57 33 2 32 1 -32 4 -33 4 0 60 c0 49 3 59 18
60 16 1 16 2 0 6 -44 11 -10 18 69 12 49 -3 90 -4 92 -2 2 1 -7 7 -20 12 -21
9 -21 10 -4 10 11 0 31 -5 45 -12 17 -9 37 -11 64 -5 22 5 53 6 70 2 26 -6 29
-4 18 8 -10 13 -4 14 46 12 l57 -3 -45 10 c-25 5 -67 8 -93 7 l-48 -3 3 60 c3
57 4 60 30 63 14 2 32 10 39 18 7 9 19 12 28 8 9 -4 28 -8 44 -9z m1174 -11
c-3 -3 -12 -4 -19 -1 -8 3 -5 6 6 6 11 1 17 -2 13 -5z m-1377 -79 l0 -56 -57
3 c-55 3 -58 5 -61 30 -3 24 1 27 35 33 64 11 70 15 16 10 -52 -4 -74 10 -30
19 102 22 97 24 97 -39z m1218 23 c-3 -31 -6 -33 -43 -36 -22 -2 -45 -8 -51
-13 -16 -13 -24 0 -24 37 0 36 9 41 78 43 43 1 43 1 40 -31z m249 0 c-3 -7 -5
-2 -5 12 0 14 2 19 5 13 2 -7 2 -19 0 -25z m228 -2 c0 -14 -9 -19 -37 -22 -32
-2 -38 0 -38 16 0 19 20 29 55 27 12 -1 20 -9 20 -21z m-1875 -1 c0 -8 -7 -15
-15 -15 -8 0 -15 7 -15 15 0 8 7 15 15 15 8 0 15 -7 15 -15z m-132 0 c-12 -12
-98 -17 -98 -6 0 7 21 11 52 11 28 0 49 -2 46 -5z m1369 -82 c-2 -16 -4 -5 -4
22 0 28 2 40 4 28 2 -13 2 -35 0 -50z m400 -15 c-2 -18 -4 -6 -4 27 0 33 2 48
4 33 2 -15 2 -42 0 -60z m-1639 50 c-5 -32 -28 -35 -28 -4 0 17 5 26 16 26 10
0 14 -7 12 -22z m1878 1 c4 -8 0 -9 -15 -4 -13 4 -27 1 -37 -9 -14 -15 -13
-16 8 -16 27 0 55 -16 46 -26 -4 -4 -23 -8 -43 -10 -35 -3 -35 -3 -35 36 0 39
1 40 34 40 19 0 38 -5 42 -11z m-496 -28 c0 -13 -30 -22 -43 -14 -7 4 -2 10
13 14 14 4 26 7 28 8 1 1 2 -3 2 -8z m300 -41 c0 -5 -4 -10 -10 -10 -5 0 -10
5 -10 10 0 6 5 10 10 10 6 0 10 -4 10 -10z m178 -17 c-10 -2 -28 -2 -40 0 -13
2 -5 4 17 4 22 1 32 -1 23 -4z m-629 -117 c-10 -8 -119 -14 -119 -5 0 5 28 9
62 9 34 0 59 -2 57 -4z m114 -12 c-5 -15 8 -16 138 -14 79 2 161 2 182 2 34
-2 36 -4 25 -22 -7 -10 -26 -20 -42 -22 -43 -4 -43 -24 1 -36 l38 -10 -32 -1
c-77 -2 -86 -30 -10 -32 50 -2 51 -2 13 -8 -22 -3 -41 -12 -44 -18 -4 -15 14
-17 23 -3 9 15 58 13 53 -2 -3 -8 -28 -14 -66 -16 -53 -3 -62 -1 -72 17 -8 16
-21 21 -58 22 l-47 2 45 6 c25 4 55 13 68 20 46 25 19 36 -104 41 -65 4 -113
7 -106 8 23 4 2 22 -26 23 -15 0 -21 3 -14 6 21 8 13 29 -15 40 -27 11 -27 11
14 12 35 1 41 -2 36 -15z m400 -71 c-7 -2 -21 -2 -30 0 -10 3 -4 5 12 5 17 0
24 -2 18 -5z m-431 -71 c-35 -10 -31 -26 8 -34 19 -4 55 -11 80 -16 l45 -9
-44 -8 c-40 -7 -42 -9 -26 -22 17 -12 14 -13 -29 -13 -41 0 -47 2 -36 15 16
20 5 34 -46 57 -24 10 -44 23 -44 28 0 6 26 10 58 9 36 -1 48 -3 34 -7z m476
1 c-16 -2 -40 -2 -55 0 -16 2 -3 4 27 4 30 0 43 -2 28 -4z m-718 -39 c0 -14
-8 -16 -46 -10 -26 3 -60 6 -76 6 -17 0 -27 4 -23 10 3 6 37 10 76 10 57 0 69
-3 69 -16z"/>
<path d="M990 3689 c-41 -3 -68 -6 -60 -7 15 -2 67 -76 63 -90 -1 -4 -12 -10
-25 -13 -13 -4 6 -5 42 -4 36 2 101 5 145 6 44 1 69 4 55 6 -14 3 -29 8 -33
13 -13 12 3 80 19 80 8 0 14 5 14 11 0 10 -68 10 -220 -2z m35 -36 c-9 -38
-13 -40 -30 -17 -22 29 -18 44 11 44 24 0 25 -3 19 -27z m87 -3 c0 -16 1 -35
2 -42 1 -6 -5 -13 -11 -15 -9 -3 -13 9 -13 41 0 50 19 64 22 16z m38 -16 c0
-27 -4 -43 -10 -39 -17 11 -11 85 7 85 2 0 3 -21 3 -46z m-80 -4 c0 -33 -3
-40 -19 -40 -17 0 -18 4 -11 30 18 61 30 66 30 10z"/>
<path d="M695 2375 c4 -22 8 -52 9 -67 1 -29 16 -52 16 -25 0 10 5 17 10 17 6
0 10 -5 10 -12 0 -6 2 -9 5 -6 10 10 -8 68 -21 68 -8 0 -14 8 -14 18 0 9 -5
24 -11 32 -8 11 -9 5 -4 -25z"/>
<path d="M620 2378 c0 -16 5 -28 10 -28 13 0 13 20 0 40 -8 12 -10 9 -10 -12z"/>
<path d="M670 2339 c0 -5 5 -7 10 -4 6 3 10 8 10 11 0 2 -4 4 -10 4 -5 0 -10
-5 -10 -11z"/>
<path d="M810 2551 c-25 -4 -30 -8 -18 -13 19 -8 58 1 58 13 0 5 -1 8 -2 8 -2
-1 -19 -4 -38 -8z"/>
<path d="M1005 2480 c-3 -5 -1 -10 4 -10 6 0 11 5 11 10 0 6 -2 10 -4 10 -3 0
-8 -4 -11 -10z"/>
<path d="M752 2443 c7 -16 16 -34 21 -40 11 -15 63 -17 72 -3 4 6 -6 10 -24
10 -24 0 -34 7 -46 30 -20 38 -39 40 -23 3z"/>
<path d="M1125 2390 c-3 -5 -1 -10 4 -10 6 0 11 5 11 10 0 6 -2 10 -4 10 -3 0
-8 -4 -11 -10z"/>
<path d="M1109 2304 c-11 -30 -3 -46 11 -24 10 16 13 50 5 50 -3 0 -10 -12
-16 -26z"/>
<path d="M991 2274 c0 -11 3 -14 6 -6 3 7 2 16 -1 19 -3 4 -6 -2 -5 -13z"/>
<path d="M1928 2313 c6 -2 18 -2 25 0 6 3 1 5 -13 5 -14 0 -19 -2 -12 -5z"/>
<path d="M1821 1684 c0 -11 3 -14 6 -6 3 7 2 16 -1 19 -3 4 -6 -2 -5 -13z"/>
<path d="M950 1690 c-13 -8 -12 -10 3 -10 9 0 17 5 17 10 0 12 -1 12 -20 0z"/>
<path d="M660 1670 c-45 -25 -30 -25 40 0 45 16 50 19 25 19 -16 0 -46 -8 -65
-19z"/>
<path d="M868 1663 c7 -3 16 -2 19 1 4 3 -2 6 -13 5 -11 0 -14 -3 -6 -6z"/>
<path d="M1080 1597 c0 -31 4 -57 8 -57 8 0 4 100 -4 109 -2 2 -4 -21 -4 -52z"/>
<path d="M970 1035 c0 -14 2 -25 4 -25 2 0 6 11 8 25 3 14 1 25 -3 25 -5 0 -9
-11 -9 -25z"/>
<path d="M876 872 c-2 -4 -1 -32 4 -62 l8 -55 1 63 c1 59 -2 72 -13 54z"/>
<path d="M1030 613 c0 -14 19 -38 25 -32 8 8 -5 39 -16 39 -5 0 -9 -3 -9 -7z"/>
<path d="M960 581 c0 -10 7 -22 16 -25 26 -10 28 0 5 23 -20 20 -21 20 -21 2z"/>
<path d="M1841 1924 c0 -11 3 -14 6 -6 3 7 2 16 -1 19 -3 4 -6 -2 -5 -13z"/>
<path d="M1574 1349 c-3 -6 -1 -16 5 -22 8 -8 11 -5 11 11 0 24 -5 28 -16 11z"/>
<path d="M202 360 c0 -19 2 -27 5 -17 2 9 2 25 0 35 -3 9 -5 1 -5 -18z"/>
<path d="M1241 916 c-8 -9 -11 -19 -7 -23 9 -9 29 13 24 27 -2 8 -8 7 -17 -4z"/>
<path d="M540 770 c0 -5 4 -10 9 -10 6 0 13 5 16 10 3 6 -1 10 -9 10 -9 0 -16
-4 -16 -10z"/>
<path d="M613 773 c9 -2 23 -2 30 0 6 3 -1 5 -18 5 -16 0 -22 -2 -12 -5z"/>
<path d="M653 753 c9 -2 25 -2 35 0 9 3 1 5 -18 5 -19 0 -27 -2 -17 -5z"/>
<path d="M1980 750 c-13 -8 -12 -10 3 -10 9 0 17 5 17 10 0 12 -1 12 -20 0z"/>
<path d="M1818 683 c7 -3 16 -2 19 1 4 3 -2 6 -13 5 -11 0 -14 -3 -6 -6z"/>
<path d="M1566 515 c-15 -14 -22 -25 -15 -25 7 0 21 7 31 17 10 9 18 12 18 7
0 -6 9 -10 21 -11 12 -1 19 3 16 10 -2 7 -10 12 -18 12 -8 0 -17 3 -20 8 -3 4
-18 -4 -33 -18z"/>
<path d="M423 513 c32 -2 81 -2 110 0 29 2 3 3 -58 3 -60 0 -84 -1 -52 -3z"/>
<path d="M643 513 c9 -2 23 -2 30 0 6 3 -1 5 -18 5 -16 0 -22 -2 -12 -5z"/>
<path d="M1495 510 l-30 -8 32 -1 c17 0 35 4 38 9 7 11 3 11 -40 0z"/>
<path d="M1780 509 c0 -5 -5 -7 -12 -3 -7 4 -8 3 -4 -4 10 -16 23 -15 30 3 3
8 1 15 -4 15 -6 0 -10 -5 -10 -11z"/>
<path d="M1806 511 c-4 -7 -5 -15 -2 -18 9 -9 19 4 14 18 -4 11 -6 11 -12 0z"/>
<path d="M1330 500 c0 -5 17 -10 38 -10 27 0 33 3 22 10 -20 13 -60 13 -60 0z"/>
<path d="M1675 500 c-3 -5 -1 -10 4 -10 6 0 11 5 11 10 0 6 -2 10 -4 10 -3 0
-8 -4 -11 -10z"/>
<path d="M1845 501 c-3 -5 -1 -12 5 -16 5 -3 10 1 10 9 0 18 -6 21 -15 7z"/>
<path d="M1197 479 c22 -7 31 -14 27 -24 -5 -13 8 -15 82 -13 80 2 82 2 24 5
-48 3 -69 9 -83 24 -11 12 -30 19 -50 18 l-32 -1 32 -9z"/>
<path d="M1430 450 c0 -12 276 -12 305 0 12 4 -49 8 -142 9 -100 0 -163 -3
-163 -9z"/>
<path d="M1775 450 c-3 -5 1 -10 9 -10 9 0 16 5 16 10 0 6 -4 10 -9 10 -6 0
-13 -4 -16 -10z"/>
<path d="M387 403 c-3 -5 50 -7 116 -5 179 4 192 9 30 11 -78 0 -144 -2 -146
-6z"/>
<path d="M2084 401 c5 -8 56 -3 56 5 0 2 -14 4 -31 4 -16 0 -28 -4 -25 -9z"/>
<path d="M550 382 c0 -4 25 -8 56 -8 34 -1 51 2 42 7 -16 11 -98 12 -98 1z"/>
<path d="M825 380 c28 -5 77 -8 110 -8 l60 1 -55 7 c-30 5 -80 8 -110 8 l-55
-1 50 -7z"/>
<path d="M2105 380 c-4 -6 3 -10 14 -10 25 0 27 6 6 13 -8 4 -17 2 -20 -3z"/>
<path d="M540 341 c8 -4 92 -4 185 -1 l170 7 -185 1 c-102 0 -178 -3 -170 -7z"/>
<path d="M935 339 c-24 -6 -21 -7 15 -3 25 2 67 0 95 -5 52 -10 69 -6 45 9
-18 12 -113 11 -155 -1z"/>
<path d="M370 321 c-41 -3 -68 -9 -60 -12 19 -8 146 4 156 14 4 4 1 6 -7 5 -8
-1 -48 -4 -89 -7z"/>
<path d="M500 318 c0 -5 82 -7 183 -6 203 2 188 6 -36 10 -81 2 -147 0 -147
-4z"/>
<path d="M1005 305 l30 -13 -28 -11 c-16 -6 -80 -11 -143 -11 -63 0 -114 -3
-114 -6 0 -4 8 -13 18 -20 14 -11 -4 -13 -118 -14 -174 0 -283 -10 -251 -22
14 -5 80 -4 155 2 72 6 160 11 196 13 46 1 64 6 62 15 -1 9 21 12 85 13 105 0
158 15 158 44 0 16 -7 20 -40 22 l-40 2 30 -14z"/>
<path d="M915 300 c11 -5 34 -8 50 -8 l30 0 -30 8 c-16 4 -39 8 -50 8 l-20 1
20 -9z"/>
<path d="M378 283 c-60 -2 -108 -7 -108 -11 0 -11 327 2 339 14 2 2 -25 3 -60
2 -35 -1 -112 -4 -171 -5z"/>
<path d="M953 223 c-35 -2 -63 -8 -63 -14 0 -9 100 -3 190 11 l45 8 -55 -1
c-30 -1 -83 -2 -117 -4z"/>
<path d="M383 183 c9 -2 23 -2 30 0 6 3 -1 5 -18 5 -16 0 -22 -2 -12 -5z"/>
<path d="M475 181 c-3 -6 39 -10 102 -10 73 0 103 3 93 9 -19 12 -187 13 -195
1z"/>
<path d="M278 163 c6 -2 18 -2 25 0 6 3 1 5 -13 5 -14 0 -19 -2 -12 -5z"/>
<path d="M345 160 c11 -5 43 -9 70 -9 28 -1 95 -8 149 -16 96 -14 164 -19 155
-11 -4 4 -224 30 -334 40 -39 3 -53 2 -40 -4z"/>
<path d="M820 123 c-100 -22 -168 -29 -279 -26 -58 1 -101 -2 -101 -8 0 -15
279 -10 325 6 22 8 66 17 98 21 31 4 57 11 57 15 0 12 -20 10 -100 -8z"/>
<path d="M115 120 c17 -4 41 -8 55 -8 22 0 22 1 -5 8 -16 4 -41 8 -55 8 -22 0
-22 -1 5 -8z"/>
<path d="M336 91 c-3 -5 9 -11 27 -14 30 -4 46 -2 36 7 -11 9 -58 15 -63 7z"/>
<path d="M120 73 l-35 -14 34 6 c34 5 49 12 40 18 -2 2 -20 -3 -39 -10z"/>
<path d="M275 70 c-3 -5 1 -10 10 -10 9 0 13 5 10 10 -3 6 -8 10 -10 10 -2 0
-7 -4 -10 -10z"/>
<path d="M170 61 c0 -5 9 -7 20 -4 11 3 20 7 20 9 0 2 -9 4 -20 4 -11 0 -20
-4 -20 -9z"/>
</g>
</svg>
