<?xml version="1.0" standalone="no"?>
<!DOCTYPE svg PUBLIC "-//W3C//DTD SVG 20010904//EN"
 "http://www.w3.org/TR/2001/REC-SVG-20010904/DTD/svg10.dtd">
<svg version="1.0" xmlns="http://www.w3.org/2000/svg"
 width="218.000000pt" height="374.000000pt" viewBox="0 0 218.000000 374.000000"
 preserveAspectRatio="xMidYMid meet">
<metadata>
Created by potrace 1.16, written by Peter Selinger 2001-2019
</metadata>
<g transform="translate(0.000000,374.000000) scale(0.100000,-0.100000)"
fill="#000000" stroke="none">
<path d="M52 3726 c-5 -6 -12 -236 -16 -511 -4 -275 -11 -691 -17 -925 -8
-344 -12 -1238 -9 -2158 l0 -132 1067 2 1067 3 2 230 c1 127 5 689 8 1250 4
561 9 1083 11 1160 7 268 8 1065 1 1072 -3 4 -444 8 -979 10 -534 2 -1007 5
-1049 7 -50 2 -81 0 -86 -8z m1073 -66 c3 -5 -1 -10 -9 -10 -9 0 -16 5 -16 10
0 6 4 10 9 10 6 0 13 -4 16 -10z m57 -12 c-31 -31 1 -98 53 -111 12 -3 5 -5
-16 -6 -28 -1 -36 3 -35 15 2 25 -32 43 -44 24 -5 -8 -8 -21 -5 -27 3 -10 -10
-13 -48 -12 -29 0 -46 3 -39 6 7 3 13 25 14 51 l1 47 6 -45 c4 -30 11 -46 22
-48 19 -3 63 51 57 70 -5 13 21 46 37 47 5 1 4 -4 -3 -11z m-767 -223 c0 -138
-2 -160 -16 -163 -14 -2 -17 18 -22 154 -4 86 -4 161 -1 166 3 5 13 8 22 6 15
-3 17 -22 17 -163z m59 49 c18 -7 23 -74 6 -74 -5 0 -10 -7 -10 -15 0 -24 -27
-18 -34 8 -18 68 -4 97 38 81z m806 -25 c706 -12 870 -18 870 -30 0 -5 -100
-10 -222 -11 l-223 -2 225 -6 c383 -9 95 -15 -700 -15 -638 0 -725 2 -725 15
0 11 10 14 40 13 93 -5 1068 -3 1073 2 3 3 -183 6 -414 7 -230 1 -446 3 -479
4 -33 1 -97 2 -142 3 -64 1 -83 4 -83 15 0 19 9 21 87 19 38 -2 349 -8 693
-14z m-1100 -4 c26 -31 -18 -71 -47 -43 -12 12 -13 20 -4 37 14 25 34 27 51 6z
m190 -20 l0 -35 -54 0 c-68 0 -118 17 -114 38 4 19 34 28 111 31 l57 2 0 -36z
m-32 -223 c2 -122 0 -143 -13 -148 -9 -4 -19 -3 -23 1 -8 8 -15 263 -7 283 3
7 13 12 22 10 16 -3 18 -19 21 -146z m72 28 c0 -11 -4 -20 -10 -20 -5 0 -10
-13 -10 -30 0 -19 -5 -30 -14 -30 -17 0 -26 21 -26 59 0 34 7 41 37 41 16 0
23 -6 23 -20z m-303 -37 c-16 -16 -18 -16 -34 0 -17 17 -17 19 2 33 17 12 21
12 34 -1 14 -13 13 -17 -2 -32z m173 12 l0 -35 -62 0 c-75 0 -98 11 -82 37 8
13 29 20 75 24 35 3 65 6 67 7 1 1 2 -14 2 -33z m985 20 c22 -1 222 -6 445
-10 223 -4 414 -11 425 -16 16 -6 13 -8 -15 -9 -68 -2 -1287 2 -1430 6 -80 1
-171 3 -202 3 -53 1 -58 3 -58 23 l0 21 398 -8 c218 -4 415 -8 437 -10z m625
-55 c319 -7 239 -9 -687 -17 -714 -5 -773 -4 -773 11 0 15 49 16 608 14 334
-1 717 -5 852 -8z m-1478 -197 c3 -165 2 -183 -18 -183 -18 0 -22 22 -29 188
l-6 142 25 0 25 0 3 -147z m88 12 c0 -14 -4 -25 -10 -25 -5 0 -10 -11 -10 -25
0 -20 -5 -25 -25 -25 -23 0 -25 3 -25 50 l0 50 35 0 c31 0 35 -3 35 -25z
m-325 -14 c0 -34 -32 -52 -50 -27 -19 25 -2 58 28 54 16 -2 22 -10 22 -27z
m175 -11 l0 -40 -59 0 c-78 0 -91 6 -91 40 0 32 11 36 103 39 l47 1 0 -40z
m1789 15 c41 -25 -19 -27 -751 -21 -777 7 -863 9 -874 28 -7 11 1607 5 1625
-7z m-353 -37 c165 -1 309 -5 320 -9 10 -4 -317 -8 -728 -8 -410 0 -750 -1
-755 -2 -4 -1 -29 -1 -55 0 -37 1 -48 5 -48 17 0 16 39 16 483 10 265 -3 617
-7 783 -8z m-1466 -163 c7 -147 0 -209 -22 -213 -16 -3 -18 8 -20 105 0 59 -2
134 -3 166 -1 53 1 58 19 55 19 -3 21 -12 26 -113z m80 -34 c0 -17 -4 -33 -10
-36 -5 -3 -10 -15 -10 -26 0 -12 -7 -19 -19 -19 -16 0 -21 9 -26 44 -9 55 -2
66 36 66 25 0 29 -4 29 -29z m1040 8 c382 -6 697 -13 699 -15 16 -15 -39 -19
-242 -18 -128 1 -512 3 -854 3 -512 2 -622 4 -626 16 -3 7 -3 16 0 19 9 9 243
8 1023 -5z m-1350 -20 c9 -15 8 -24 -1 -35 -19 -24 -39 -17 -39 14 0 46 21 57
40 21z m171 -6 c15 -40 -9 -54 -80 -47 -31 3 -60 10 -66 15 -16 16 9 43 46 50
73 14 89 11 100 -18z m1589 -24 c195 -2 141 -4 -230 -9 -267 -4 -643 -11 -837
-14 -341 -6 -375 -4 -359 23 5 8 390 8 1426 0z m-1399 -161 c1 -137 -1 -191
-7 -197 -15 -15 -23 33 -30 167 -7 151 -7 152 15 152 20 0 21 -4 22 -122z m99
-23 c0 -26 -3 -33 -15 -29 -11 4 -15 0 -15 -16 0 -16 -5 -21 -22 -18 -20 3
-23 10 -26 51 l-3 47 40 0 c40 0 41 -1 41 -35z m-364 11 c3 -8 0 -24 -6 -36
-22 -42 -73 -10 -56 36 7 18 55 18 62 0z m212 -13 c4 -29 -29 -43 -98 -43 -64
0 -100 14 -100 39 0 24 25 29 125 27 65 -1 70 -3 73 -23z m1732 18 c75 -21
-58 -26 -782 -28 -774 -3 -778 -3 -778 17 0 20 5 20 768 19 422 -1 778 -4 792
-8z m-45 -51 c-33 -4 -188 -8 -345 -9 -157 -1 -307 -4 -335 -6 -27 -2 -227 -7
-442 -10 l-393 -7 0 21 0 21 788 -1 c433 -1 760 -5 727 -9z m-1749 -187 c-3
-80 -8 -148 -11 -151 -2 -2 -11 -2 -20 1 -12 5 -15 30 -15 152 l0 145 26 0 27
0 -7 -147z m64 51 c17 -43 12 -74 -12 -83 -30 -11 -38 2 -38 62 0 41 3 47 20
47 13 0 24 -10 30 -26z m-312 -33 c-2 -18 -10 -27 -25 -29 -20 -3 -23 1 -23
26 0 17 6 32 13 35 23 8 38 -5 35 -32z m187 0 l0 -34 -75 2 c-41 1 -78 5 -82
7 -4 3 -8 16 -8 29 0 27 21 33 110 31 l55 -1 0 -34z m1750 23 c114 -5 120 -7
45 -15 -41 -4 -273 -5 -514 -2 -276 4 -437 2 -433 -4 4 -5 205 -10 509 -12
276 -1 504 -4 507 -6 2 -3 1 -8 -3 -12 -9 -9 -1652 -17 -1674 -8 -43 16 25 24
253 31 138 3 252 8 255 11 2 2 -111 3 -253 1 -141 -2 -257 -1 -257 3 0 31 20
31 775 23 413 -4 768 -9 790 -10z m-1597 -254 c2 -154 1 -160 -18 -160 -17 0
-20 7 -20 48 -1 26 -3 90 -5 142 -5 107 -1 130 23 130 15 0 17 -18 20 -160z
m120 9 c2 -26 -1 -38 -8 -34 -5 3 -13 -1 -16 -9 -8 -22 -70 -21 -78 0 -3 9 -6
31 -6 50 l0 34 53 0 52 0 3 -41z m872 25 c267 -3 494 -7 505 -9 11 -2 64 -4
118 -4 61 -1 97 -5 97 -12 0 -14 -1557 -6 -1572 9 -6 6 -7 16 -3 23 6 9 50 10
189 6 100 -4 399 -10 666 -13z m-1050 -29 l0 -35 -72 0 c-92 0 -118 7 -118 31
0 27 33 38 118 38 l72 1 0 -35z m-205 0 c0 -22 -31 -33 -47 -17 -17 17 -1 44
24 40 15 -2 23 -10 23 -23z m895 -14 c270 -2 302 -3 280 -16 -20 -12 -93 -14
-397 -15 -360 0 -373 1 -373 19 0 18 7 19 93 16 50 -2 229 -4 397 -4z m469
-17 c14 -12 -19 -1 -35 12 -18 14 -18 14 6 3 14 -6 27 -13 29 -15z m-64 -12
c-2 -2 -19 -1 -37 3 -28 7 -30 9 -13 15 18 6 60 -9 50 -18z m549 21 c224 -11
105 -24 -181 -21 -199 2 -265 6 -275 16 -11 11 17 13 157 12 94 -1 228 -4 299
-7z m-1677 -41 c9 -6 10 -50 5 -178 l-7 -171 -23 8 c-23 9 -23 10 -21 161 2
191 6 205 46 180z m1078 -2 c-28 -12 -47 -12 -40 0 3 6 18 10 33 9 24 0 25 -1
7 -9z m-75 -10 c0 -5 -5 -10 -11 -10 -5 0 -7 5 -4 10 3 6 8 10 11 10 2 0 4 -4
4 -10z m175 0 c4 -7 -3 -8 -21 -4 -23 6 -26 4 -21 -10 4 -9 3 -16 -2 -16 -16
0 -21 13 -10 27 14 16 45 17 54 3z m-230 -50 c3 -5 -1 -10 -10 -10 -9 0 -13 5
-10 10 3 6 8 10 10 10 2 0 7 -4 10 -10z m82 -49 c5 -20 5 -20 26 0 11 10 24
19 29 19 13 0 9 -33 -7 -54 -8 -11 -15 -38 -15 -59 0 -35 -2 -38 -16 -26 -13
10 -20 10 -42 -4 l-28 -16 -28 55 c-16 30 -32 54 -37 54 -5 0 -9 7 -9 15 0 20
34 34 83 34 30 1 40 -3 44 -18z m93 -2 c-20 -36 -7 -49 36 -37 21 5 48 17 61
25 13 9 26 13 29 10 3 -3 -10 -16 -30 -29 -20 -13 -36 -27 -36 -31 0 -10 39
11 69 37 l24 21 -12 -22 c-6 -12 -25 -30 -41 -40 -35 -20 -41 -39 -7 -23 l22
11 -22 -19 c-12 -11 -20 -22 -17 -25 3 -3 -8 -12 -24 -21 -40 -21 -52 -59 -62
-202 -4 -67 -13 -130 -18 -141 -17 -30 -38 -44 -57 -37 -15 6 -16 19 -10 136
5 101 12 143 31 194 13 35 24 83 24 106 0 24 9 55 21 74 23 37 36 47 19 13z
m-1045 -26 c14 -13 18 -14 25 -2 13 20 22 5 14 -24 -3 -15 -11 -25 -17 -24 -6
1 -11 -7 -12 -18 0 -15 -7 -20 -30 -20 -28 0 -30 3 -33 39 -6 65 17 86 53 49z
m811 -5 c10 -12 13 -18 5 -13 -11 6 -13 4 -8 -8 4 -10 10 -24 13 -32 4 -9 0
-15 -9 -15 -9 0 -19 -5 -23 -12 -5 -7 0 -9 14 -6 22 6 66 -18 57 -32 -3 -5 4
-24 15 -42 16 -27 19 -46 15 -94 -2 -32 -7 -104 -10 -159 -5 -97 -4 -98 9 -53
7 25 17 85 21 132 4 47 10 84 15 81 4 -3 8 -83 8 -179 l-1 -175 -24 -6 c-18
-4 -29 -1 -39 12 -12 16 -15 16 -24 3 -8 -12 -10 -11 -10 8 0 12 -4 22 -10 22
-13 0 -13 55 2 121 6 30 11 66 12 81 1 18 4 23 12 17 15 -12 25 13 13 32 -18
29 -43 -5 -57 -77 -16 -88 -14 -85 -36 -69 -16 12 -17 21 -11 62 7 43 8 45 16
24 5 -13 12 -22 14 -19 9 9 15 128 6 128 -13 0 -21 -27 -15 -45 4 -8 1 -15 -5
-15 -7 0 -17 -13 -22 -30 -7 -19 -18 -30 -29 -30 -16 0 -17 4 -9 32 8 30 1 57
-8 30 -9 -25 -22 0 -16 31 8 41 26 77 58 116 15 17 25 36 23 43 -2 6 -23 -15
-46 -47 -45 -63 -54 -60 -22 7 23 49 26 68 6 48 -8 -8 -25 -46 -39 -85 -29
-78 -36 -67 -11 16 22 73 29 89 60 127 15 17 22 32 16 32 -16 0 -82 -89 -82
-110 0 -10 -9 -20 -19 -23 -18 -4 -18 -3 -4 32 34 81 54 111 73 111 26 0 34
17 11 23 -26 6 -54 -25 -84 -94 -14 -30 -32 -61 -41 -68 -9 -7 -16 -20 -16
-28 0 -7 -7 -24 -15 -36 -27 -42 -56 -140 -44 -148 9 -5 6 -19 -9 -48 -12 -23
-38 -110 -58 -194 -19 -83 -40 -162 -45 -175 -5 -13 -9 -48 -9 -78 0 -47 4
-58 28 -79 15 -13 21 -25 14 -25 -16 0 -55 45 -63 73 -3 12 -2 38 3 57 4 19
12 62 18 95 5 33 18 89 29 125 10 36 37 134 60 218 45 163 117 323 174 389 28
32 34 34 69 29 23 -4 38 -2 38 4 0 17 26 11 46 -12z m-1141 -8 c5 -17 8 -18
20 -6 15 14 148 31 165 21 5 -3 10 -19 10 -35 0 -35 -11 -38 -113 -27 -56 6
-83 5 -93 -4 -27 -22 -63 39 -37 64 13 14 42 6 48 -13z m899 10 c72 -5 78 -6
61 -20 -15 -12 -62 -14 -293 -12 -152 2 -278 5 -280 7 -3 2 -2 11 2 20 5 14
32 16 218 13 117 -1 249 -5 292 -8z m1154 -18 c2 -1 2 -14 0 -29 l-3 -28 -266
-3 c-238 -2 -267 -1 -273 14 -6 15 9 16 154 10 100 -3 160 -2 160 4 0 6 -62
10 -155 10 -85 0 -155 4 -155 8 0 24 34 27 277 21 142 -3 259 -6 261 -7z
m-1119 -38 c1 -1 0 -7 -4 -13 -4 -7 -96 -11 -276 -11 -266 0 -269 0 -269 21 0
21 1 21 273 14 149 -4 274 -9 276 -11z m-594 -231 c-1 -160 -2 -168 -20 -168
-19 0 -20 9 -21 168 -2 165 -2 167 20 167 21 0 21 -3 21 -167z m1095 142 c-19
-20 -27 -46 -36 -108 -10 -70 -12 -75 -13 -34 -1 67 18 135 42 152 31 22 34
18 7 -10z m-481 -130 c-22 -93 -44 -336 -43 -481 0 -80 4 -107 18 -129 24 -36
30 -26 11 19 -9 21 -14 43 -12 49 2 7 10 -6 17 -28 7 -22 17 -45 22 -51 5 -7
4 -22 -3 -38 l-12 -26 -22 20 c-12 11 -30 44 -40 73 -15 46 -16 69 -8 187 5
78 5 138 0 141 -5 3 1 39 14 80 31 104 57 229 48 229 -9 0 -11 -6 -34 -105 -9
-38 -25 -99 -36 -135 -28 -89 -51 -282 -43 -353 5 -48 4 -56 -9 -51 -15 6 -31
38 -42 85 -4 14 0 48 8 75 8 27 25 94 37 149 32 143 99 345 115 345 7 0 16 7
19 16 15 40 13 2 -5 -71z m-424 30 c310 -5 305 -5 305 -20 0 -15 -8 -17 -87
-19 -70 -2 -61 -16 11 -16 42 0 65 -4 61 -10 -8 -13 -345 -14 -345 -1 0 5 30
12 68 16 109 10 112 12 20 14 -51 0 -88 5 -88 11 0 6 -4 10 -10 10 -5 0 -10
-16 -10 -35 0 -19 -4 -35 -10 -35 -5 0 -10 7 -10 15 0 22 -17 18 -23 -5 -3
-14 -14 -20 -31 -20 -24 0 -26 3 -26 48 0 27 3 52 7 56 5 4 28 4 53 0 25 -4
77 -8 115 -9z m-441 -18 c22 -34 -28 -73 -59 -47 -20 17 -19 26 6 51 22 22 37
21 53 -4z m184 11 c1 -5 2 -21 2 -38 l0 -30 -66 0 c-61 0 -104 11 -104 28 1
18 20 35 51 41 43 9 113 8 117 -1z m739 -50 c0 -69 5 -87 32 -109 20 -16 23
-29 27 -141 3 -68 10 -135 16 -150 11 -30 4 -48 -17 -48 -22 0 -30 44 -30 153
1 53 -3 97 -7 97 -4 0 -8 17 -8 38 -1 29 -3 33 -10 20 -14 -23 -14 -247 -1
-278 6 -14 16 -33 23 -42 10 -14 9 -20 -5 -36 -9 -10 -17 -22 -17 -26 0 -4 -8
-18 -17 -32 -16 -25 -17 -25 -30 -8 -7 10 -13 28 -13 41 0 13 -7 26 -15 29
-10 4 -15 21 -15 53 0 126 46 528 49 434 2 -38 18 -26 25 17 3 22 8 40 9 40 2
0 4 -24 4 -52z m1033 32 c0 -6 -54 -10 -132 -11 -73 0 -167 -1 -208 -2 -145
-3 -290 3 -290 12 0 14 49 16 353 13 170 -2 277 -6 277 -12z m0 -39 c0 -6
-124 -10 -315 -11 -209 0 -315 3 -315 10 0 7 107 10 315 10 192 0 315 -4 315
-9z m-655 -110 c-4 -29 -15 -57 -26 -67 -24 -22 -24 -17 1 37 11 24 20 55 20
68 0 13 3 22 6 18 3 -3 3 -28 -1 -56z m-274 -164 c-8 -8 -11 -3 -11 19 1 25 2
27 11 11 8 -14 8 -22 0 -30z m-248 -69 c-3 -35 -9 -67 -13 -71 -7 -8 -4 65 6
111 9 42 12 22 7 -40z m472 -38 c3 -5 1 -10 -4 -10 -6 0 -11 5 -11 10 0 6 2
10 4 10 3 0 8 -4 11 -10z m-87 -11 c-2 -6 -7 -10 -12 -9 -4 1 -13 -6 -20 -16
-9 -12 -20 -15 -45 -9 -38 8 -36 27 5 36 47 11 76 10 72 -2z m60 -7 c16 -11
-63 -63 -83 -56 -8 4 -15 1 -15 -5 0 -6 5 -11 12 -11 6 0 9 -2 6 -5 -8 -8 -58
5 -58 15 0 10 56 30 64 23 10 -10 35 18 29 33 -6 15 23 19 45 6z m130 -9 c-6
-7 -14 -13 -19 -13 -5 0 -9 6 -9 13 0 7 9 13 19 13 15 0 17 -3 9 -13z m36 -7
c-3 -7 2 -20 10 -29 20 -20 20 -27 1 -27 -8 0 -15 8 -15 17 0 13 -3 14 -12 5
-8 -8 -8 -15 2 -27 10 -13 9 -15 -6 -14 -11 0 -28 4 -38 8 -17 7 -16 11 18 44
39 40 48 45 40 23z m46 -1 c0 -8 -7 -15 -15 -15 -8 0 -15 7 -15 15 0 8 7 15
15 15 8 0 15 -7 15 -15z m60 9 c0 -10 -62 -85 -67 -81 -2 3 4 23 13 46 11 28
22 41 35 41 10 0 19 -3 19 -6z m32 -6 c-17 -17 -15 -48 3 -48 13 0 13 -3 3
-13 -10 -12 -15 -10 -29 7 -15 19 -15 22 0 43 9 12 20 23 26 23 5 0 4 -5 -3
-12z m128 -2 c0 -17 -44 -86 -55 -86 -25 0 -25 17 1 29 22 9 25 16 19 40 -6
26 -4 29 14 24 12 -3 21 -6 21 -7z m114 -11 c25 -4 46 -10 46 -14 -1 -17 -18
-31 -32 -26 -10 4 -22 -2 -31 -16 -12 -16 -28 -23 -63 -25 l-46 -2 6 31 c7 35
42 71 61 63 7 -2 33 -8 59 -11z m-160 -26 c-9 -16 -20 -10 -21 12 -2 17 1 18
12 9 8 -7 12 -16 9 -21z m-1696 9 c-2 -8 9 -13 28 -14 38 -1 54 -10 54 -30 0
-8 4 -13 9 -10 14 9 42 -5 35 -16 -4 -6 0 -14 7 -19 9 -6 10 -9 2 -9 -8 0 -10
-11 -6 -35 4 -26 2 -36 -10 -41 -9 -3 -13 -12 -11 -19 6 -16 -18 -24 -69 -23
-27 0 -47 8 -67 27 -27 24 -29 31 -26 91 1 36 8 75 14 88 13 23 44 31 40 10z
m1146 -9 c-3 -5 -10 -7 -15 -3 -5 3 -7 10 -3 15 3 5 10 7 15 3 5 -3 7 -10 3
-15z m176 11 c0 -5 -9 -14 -19 -20 -25 -13 -38 5 -14 19 23 13 33 14 33 1z
m-220 -15 c0 -8 -7 -15 -16 -15 -14 0 -14 3 -4 15 7 8 14 15 16 15 2 0 4 -7 4
-15z m900 11 c0 -2 -7 -7 -16 -10 -8 -3 -12 -2 -9 4 6 10 25 14 25 6z m-40
-10 c0 -3 -4 -8 -10 -11 -5 -3 -10 -1 -10 4 0 6 5 11 10 11 6 0 10 -2 10 -4z
m-393 -21 c0 -8 -4 -15 -9 -15 -10 0 -11 14 -1 23 9 10 10 9 10 -8z m363 -4
c0 -5 -7 -12 -16 -15 -10 -4 -14 -12 -9 -24 5 -13 3 -14 -5 -6 -9 9 -9 17 -1
33 12 21 31 29 31 12z m-726 -20 c3 -4 -4 -18 -15 -31 -18 -24 -19 -25 -19 -3
0 12 -3 28 -6 36 -4 12 0 14 15 10 12 -3 23 -8 25 -12z m120 13 c25 -4 46 -11
46 -17 0 -5 -13 -25 -30 -44 -16 -18 -30 -30 -30 -26 0 4 -5 2 -12 -5 -15 -15
-72 -16 -63 -2 9 14 -29 12 -44 -2 -18 -19 -3 20 22 54 23 31 37 28 37 -6 0
-19 5 -23 30 -23 17 0 30 4 30 8 0 4 7 15 16 24 9 9 14 19 10 22 -3 3 -14 -4
-25 -16 l-19 -22 -26 26 c-14 14 -26 28 -26 30 0 7 29 6 84 -1z m-555 -36 c6
-18 20 -41 30 -53 10 -11 21 -31 23 -45 3 -14 9 -33 13 -42 16 -40 -54 -7 -76
35 -12 21 -12 21 15 3 36 -23 42 -16 11 14 -15 14 -25 35 -25 52 0 15 -4 28
-10 28 -5 0 -10 9 -10 20 0 31 17 24 29 -12z m364 17 c4 -8 2 -17 -3 -20 -6
-4 -10 -4 -10 -1 0 2 -3 11 -6 20 -3 9 -2 16 4 16 5 0 12 -7 15 -15z m832 5
c3 -5 1 -10 -4 -10 -6 0 -11 5 -11 10 0 6 2 10 4 10 3 0 8 -4 11 -10z m55 6
c0 -3 -4 -8 -10 -11 -5 -3 -10 -1 -10 4 0 6 5 11 10 11 6 0 10 -2 10 -4z
m-1134 -107 c22 -43 10 -49 -15 -8 -13 21 -21 50 -20 74 l1 40 9 -38 c5 -21
16 -51 25 -68z m614 91 c8 -5 13 -10 10 -11 -3 0 -15 -2 -27 -5 -12 -2 -23 2
-27 11 -6 17 20 20 44 5z m175 -11 c11 -17 -16 -100 -29 -92 -6 4 -19 6 -28 5
-10 -2 -18 2 -18 9 0 8 -5 7 -16 -2 -15 -12 -16 -11 -9 11 14 45 24 58 25 30
l1 -25 11 23 c7 13 17 21 25 18 7 -3 13 -2 13 3 0 5 -19 11 -41 15 -42 7 -63
1 -43 -12 7 -5 5 -19 -6 -46 -11 -23 -20 -33 -23 -25 -4 11 -7 12 -15 1 -8
-12 -42 -7 -42 6 0 2 12 24 28 48 l27 44 67 0 c37 0 70 -5 73 -11z m-605 -9
c0 -5 -4 -10 -10 -10 -5 0 -10 5 -10 10 0 6 5 10 10 10 6 0 10 -4 10 -10z m10
-38 c32 -9 31 -10 -22 -9 -32 1 -58 3 -58 5 0 2 5 12 11 23 9 18 12 19 22 5 7
-8 28 -19 47 -24z m690 33 c0 -10 -40 -24 -54 -19 -28 11 -17 24 19 24 19 0
35 -2 35 -5z m88 -12 c-4 -21 -35 -19 -58 3 -12 12 -9 14 24 14 30 0 37 -3 34
-17z m-1578 -3 c0 -5 17 -9 38 -9 37 1 37 1 7 9 -17 4 55 7 163 7 l192 -2 0
-35 c0 -19 7 -44 15 -54 19 -25 19 -36 0 -36 -8 0 -15 5 -15 10 0 6 -4 10 -9
10 -5 0 -7 -9 -4 -20 4 -14 0 -20 -13 -22 -11 -1 13 -5 51 -9 43 -4 -1 -6
-115 -4 -116 3 -179 0 -170 -5 23 -14 -223 -12 -269 2 l-38 12 18 49 c10 27
20 50 21 51 2 0 18 9 36 19 19 9 40 17 48 17 8 0 14 5 14 10 0 6 7 10 15 10 8
0 15 -4 15 -10z m462 -15 c3 -14 1 -25 -3 -25 -5 0 -9 11 -9 25 0 14 2 25 4
25 2 0 6 -11 8 -25z m748 22 c0 -2 -7 -19 -16 -37 -12 -24 -19 -29 -25 -19 -5
9 -3 17 6 22 8 4 15 15 15 22 0 8 5 15 10 15 6 0 10 -2 10 -3z m540 -20 c0 -6
-7 -30 -16 -53 -13 -35 -19 -40 -40 -36 -26 5 -32 18 -11 25 6 2 9 8 5 12 -10
10 -38 -13 -38 -31 0 -15 -46 -19 -67 -6 -13 8 -3 73 15 95 13 16 152 10 152
-6z m-604 3 c9 0 12 -4 9 -10 -9 -14 -18 -13 -41 6 -17 14 -17 15 -1 10 10 -3
25 -6 33 -6z m372 -16 c3 -18 2 -18 -9 -1 -10 18 -12 18 -30 1 -10 -9 -19 -12
-19 -6 0 13 31 33 45 28 6 -1 11 -11 13 -22z m-467 -27 c-10 -9 -11 -8 -5 6 3
10 9 15 12 12 3 -3 0 -11 -7 -18z m365 -7 c-1 -16 -4 -30 -8 -30 -10 0 -10 22
-2 44 9 23 11 20 10 -14z m-660 11 c-8 -12 -46 -21 -46 -11 0 5 8 11 18 13 29
8 33 7 28 -2z m91 3 c-3 -3 -12 -4 -19 -1 -8 3 -5 6 6 6 11 1 17 -2 13 -5z
m-233 -82 c-21 -5 -54 26 -54 50 0 15 6 13 35 -14 25 -24 30 -34 19 -36z m286
43 c-38 -28 -47 -27 -30 4 7 13 21 21 37 21 l27 0 -34 -25z m120 16 c0 -17
-14 -18 -40 -5 l-25 14 33 0 c17 0 32 -4 32 -9z m-174 -16 c-3 -9 -13 -40 -22
-70 -16 -58 -44 -76 -44 -30 0 14 5 25 11 25 6 0 8 9 4 23 -4 15 -3 18 3 8 7
-9 12 -10 16 -2 12 18 -4 32 -27 25 -12 -4 -37 -7 -56 -8 -19 -1 -36 -7 -38
-14 -3 -7 1 -10 11 -6 14 5 15 2 6 -20 -5 -14 -6 -26 -1 -26 5 0 12 12 16 27
4 18 9 23 14 15 4 -7 15 -10 24 -6 13 5 16 2 11 -10 -4 -10 -12 -15 -19 -12
-8 3 -16 -2 -19 -10 -9 -23 -7 -27 9 -21 8 4 17 2 20 -2 2 -5 -4 -11 -15 -14
-11 -3 -20 -1 -20 5 0 5 -4 7 -9 4 -5 -4 -12 0 -14 6 -3 8 -6 6 -6 -4 -1 -10
-3 -18 -5 -18 -2 0 -11 -3 -20 -6 -12 -5 -14 1 -10 33 12 78 24 102 57 112 18
5 54 10 81 10 39 1 47 -2 42 -14z m296 -1 c-23 -12 -30 -20 -22 -29 15 -18 1
-25 -28 -14 -14 6 -37 8 -49 4 -26 -6 -29 2 -9 30 11 16 27 21 77 23 l64 2
-33 -16z m147 -10 c2 -2 -8 -4 -23 -4 -14 0 -29 -7 -32 -15 -4 -8 -15 -15 -26
-15 -14 0 -18 -5 -15 -15 4 -8 2 -17 -3 -20 -16 -10 -12 -38 5 -31 8 3 15 1
15 -4 0 -14 -15 -19 -39 -13 -26 7 -25 28 3 95 16 37 16 38 64 31 26 -3 49 -7
51 -9z m251 6 c13 -8 13 -10 -2 -10 -9 0 -20 5 -23 10 -8 13 5 13 25 0z m-180
-4 c0 -11 -19 -15 -25 -6 -3 5 1 10 9 10 9 0 16 -2 16 -4z m-706 -22 c3 -8 2
-12 -4 -9 -6 3 -10 10 -10 16 0 14 7 11 14 -7z m667 -11 c13 -16 12 -17 -3 -4
-17 13 -22 21 -14 21 2 0 10 -8 17 -17z m216 4 c2 -3 -1 -30 -9 -61 -10 -44
-17 -56 -31 -56 -14 0 -17 3 -10 13 21 25 21 56 1 73 -23 22 -46 26 -70 13
-24 -13 -23 -29 2 -29 25 0 37 -25 21 -44 -9 -11 -9 -15 1 -19 7 -3 -3 -6 -22
-6 -59 -1 -66 8 -51 75 l13 57 75 -6 c41 -3 77 -8 80 -10z m-390 -19 c-3 -8
-6 -5 -6 6 -1 11 2 17 5 13 3 -3 4 -12 1 -19z m123 14 c0 -13 -12 -22 -22 -16
-10 6 -1 24 13 24 5 0 9 -4 9 -8z m325 -2 c-3 -5 -10 -10 -16 -10 -5 0 -9 5
-9 10 0 6 7 10 16 10 8 0 12 -4 9 -10z m-721 -15 c3 -8 12 -15 21 -15 8 0 15
-5 15 -10 0 -6 -10 -9 -22 -8 -27 4 -37 -15 -11 -20 41 -8 35 -22 -11 -22 -52
0 -51 -2 -25 68 10 25 24 29 33 7z m842 -1 c-3 -9 -6 -27 -6 -40 0 -13 -4 -24
-8 -24 -5 0 -6 14 -4 31 3 20 0 34 -9 40 -10 6 -8 9 10 9 17 0 22 -4 17 -16z
m-741 -30 c-8 -20 -15 -38 -15 -40 0 -2 -7 -4 -15 -4 -8 0 -15 5 -15 10 0 6 7
10 15 10 20 0 19 19 -1 27 -12 4 -11 8 8 18 36 20 39 17 23 -21z m-330 16 c-7
-12 -42 -12 -70 0 -15 6 -8 9 28 9 30 1 46 -3 42 -9z m382 -2 c9 24 21 12 14
-15 -5 -20 -15 -29 -34 -31 -26 -3 -26 -2 -15 28 8 24 13 29 20 18 7 -10 11
-10 15 0z m457 -11 c7 -11 7 -20 0 -27 -6 -6 -13 0 -21 21 -13 33 1 37 21 6z
m261 -37 c3 -40 0 -50 -12 -50 -12 0 -14 7 -9 31 3 17 6 43 6 57 0 45 13 14
15 -38z m-645 40 c0 -5 -7 -10 -15 -10 -8 0 -15 -7 -15 -16 0 -8 -5 -12 -10
-9 -14 9 7 45 25 45 8 0 15 -4 15 -10z m473 -10 c-5 -20 -33 -49 -33 -34 1 25
14 54 25 54 8 0 11 -8 8 -20z m-1708 -5 c21 -7 -151 -3 -175 4 -14 5 18 6 70
4 52 -3 100 -6 105 -8z m478 8 c-7 -2 -21 -2 -30 0 -10 3 -4 5 12 5 17 0 24
-2 18 -5z m247 -2 c43 -8 41 -9 -25 -9 -38 0 -81 4 -95 8 -35 11 59 11 120 1z
m-673 -7 c-3 -3 -12 -4 -19 -1 -8 3 -5 6 6 6 11 1 17 -2 13 -5z m101 -1 c-16
-2 -40 -2 -55 0 -16 2 -3 4 27 4 30 0 43 -2 28 -4z m1601 -2 c9 -6 10 -11 2
-15 -13 -8 -31 1 -31 15 0 11 11 11 29 0z m-1889 -28 c0 -15 30 -14 41 1 11
15 39 -2 39 -23 0 -16 -6 -19 -32 -18 -18 2 -38 6 -45 10 -7 4 -13 0 -16 -10
-3 -11 -5 -6 -6 11 0 16 -4 26 -7 23 -9 -9 -46 12 -40 22 9 13 66 0 66 -16z
m630 5 c0 -19 2 -20 10 -8 7 11 10 11 10 2 0 -7 5 -10 10 -7 6 4 8 10 5 15 -3
5 -1 11 5 15 5 3 10 -1 10 -10 0 -9 5 -13 10 -10 6 4 8 11 5 16 -4 5 0 9 8 9
8 0 18 -8 21 -17 6 -15 8 -15 16 -3 8 13 10 12 10 -2 0 -10 -4 -18 -10 -18 -5
0 -10 -7 -10 -15 0 -12 -13 -15 -55 -15 -30 0 -55 4 -55 8 0 5 -11 14 -25 20
-22 10 -27 9 -33 -6 -9 -22 -52 -28 -52 -6 0 8 7 22 15 30 8 9 15 11 15 6 0
-6 9 -8 20 -5 11 3 20 9 20 14 0 5 11 9 25 9 19 0 25 -5 25 -22z m-491 0 c11
-7 16 -19 13 -30 -5 -21 -32 -25 -32 -3 0 9 -6 12 -16 8 -14 -5 -15 -3 -5 15
14 25 15 26 40 10z m82 0 c0 -10 2 -10 6 0 10 26 111 9 135 -23 5 -6 8 -5 8 3
0 7 13 12 29 12 17 0 33 5 36 10 3 6 23 9 43 9 23 -1 29 -3 15 -6 -15 -3 -23
-12 -24 -26 -1 -17 -2 -18 -6 -4 -4 17 -23 24 -23 9 0 -14 -84 -32 -91 -20 -4
6 -12 7 -18 4 -6 -4 -11 0 -11 8 0 22 -40 21 -41 -1 -1 -12 -4 -9 -8 7 l-7 25
-8 -30 c-7 -29 -8 -29 -22 -11 -8 11 -14 16 -14 10 0 -5 -5 -2 -10 6 -8 12
-10 10 -10 -8 0 -13 -4 -20 -10 -17 -5 3 -10 17 -10 31 0 17 5 24 20 24 11 0
20 -6 21 -12z m698 -10 c0 -22 -1 -22 -9 -3 -8 19 -8 19 -17 -4 l-10 -25 -7
25 c-7 23 -8 23 -16 4 -7 -17 -9 -17 -9 -3 -1 22 -31 12 -32 -11 0 -13 -2 -13
-6 -1 -3 8 -12 21 -21 28 -13 10 -3 12 56 12 68 0 72 -1 71 -22z m481 -25 c-1
-37 -28 -154 -29 -125 -1 23 -15 30 -26 12 -3 -5 -10 -10 -16 -10 -18 0 -8 16
21 33 38 23 40 58 5 81 -28 18 -47 13 -79 -23 -12 -13 -16 -28 -12 -44 4 -19
1 -26 -15 -30 -14 -4 -18 -10 -13 -19 4 -7 3 -9 -1 -5 -11 9 -7 91 5 123 9 24
30 30 113 33 45 1 47 0 47 -26z m-330 2 c0 -12 -7 -14 -27 -9 -16 4 -30 8 -32
10 -2 2 -17 -4 -32 -13 -31 -18 -35 -36 -20 -76 9 -22 7 -25 -15 -30 -21 -4
-24 -1 -23 22 3 65 13 86 49 98 51 17 100 16 100 -2z m142 -4 c4 -4 4 -33 0
-65 -8 -66 -14 -70 -87 -60 l-40 5 4 62 c1 34 8 66 15 70 12 8 97 -1 108 -12z
m349 13 l35 -6 -4 -57 c-2 -31 -8 -62 -12 -70 -11 -21 -57 -23 -65 -3 -6 15
-7 15 -15 1 -12 -21 -88 -25 -96 -4 -3 8 0 44 7 80 l13 65 50 0 c28 0 67 -3
87 -6z m409 -9 c0 -8 -4 -15 -10 -15 -5 0 -7 7 -4 15 4 8 8 15 10 15 2 0 4 -7
4 -15z m-310 -14 c0 -6 -5 -13 -10 -16 -6 -3 -8 -17 -6 -31 3 -16 -2 -32 -15
-45 -10 -10 -19 -25 -19 -33 0 -14 42 -26 93 -26 17 0 27 -3 23 -7 -4 -5 -12
-8 -17 -8 -5 0 -9 -4 -8 -9 1 -15 -55 -46 -74 -40 -10 3 -24 1 -31 -6 -15 -11
-10 -50 6 -50 5 0 6 9 3 20 -5 16 -2 20 14 20 12 0 21 -5 21 -11 0 -17 -27
-39 -47 -39 -15 0 -19 9 -21 51 -2 32 2 59 11 73 8 12 18 46 21 76 10 79 15
90 37 90 10 0 19 -4 19 -9z m-637 -7 c9 -10 -4 -34 -19 -34 -8 0 -14 9 -14 20
0 19 19 27 33 14z m751 -2 c10 -17 -7 -122 -19 -122 -9 0 -11 8 -7 23 5 19 4
20 -11 8 -9 -7 -24 -10 -34 -6 -16 6 -15 8 8 20 32 17 42 40 29 66 -9 16 -7
19 9 19 11 0 22 -4 25 -8z m166 -8 c26 -5 26 -5 16 -65 -10 -62 -31 -76 -31
-20 0 31 -17 51 -42 51 -7 0 -13 7 -13 15 0 9 -9 15 -22 14 -13 0 -17 -3 -10
-6 6 -2 12 -18 12 -34 0 -16 5 -29 10 -29 6 0 10 5 10 10 0 6 9 10 20 10 26 0
27 -36 1 -50 -23 -12 -98 -14 -104 -2 -3 4 0 33 6 65 l11 58 55 -6 c31 -3 67
-8 81 -11z m-1032 -36 l3 -36 -113 -4 c-62 -3 -283 -5 -490 -7 l-378 -2 0 36
0 35 73 1 c39 1 151 5 247 8 96 4 283 7 415 7 l240 -1 3 -37z m428 6 c-4 -9
-9 -15 -11 -12 -3 3 -3 13 1 22 4 9 9 15 11 12 3 -3 3 -13 -1 -22z m384 4 c0
-19 -2 -20 -10 -8 -13 19 -13 30 0 30 6 0 10 -10 10 -22z m-675 -7 c-3 -6 -11
-11 -17 -11 -6 0 -6 6 2 15 14 17 26 13 15 -4z m25 -21 c0 -5 -5 -10 -11 -10
-5 0 -7 5 -4 10 3 6 8 10 11 10 2 0 4 -4 4 -10z m-3 -42 c-3 -8 -6 -5 -6 6 -1
11 2 17 5 13 3 -3 4 -12 1 -19z m-794 -5 c-7 -2 -19 -2 -25 0 -7 3 -2 5 12 5
14 0 19 -2 13 -5z m80 0 c-13 -2 -33 -2 -45 0 -13 2 -3 4 22 4 25 0 35 -2 23
-4z m85 0 c-10 -2 -26 -2 -35 0 -10 3 -2 5 17 5 19 0 27 -2 18 -5z m219 1 c-3
-3 -12 -4 -19 -1 -8 3 -5 6 6 6 11 1 17 -2 13 -5z m120 0 c-3 -3 -12 -4 -19
-1 -8 3 -5 6 6 6 11 1 17 -2 13 -5z m246 -1 c-7 -2 -21 -2 -30 0 -10 3 -4 5
12 5 17 0 24 -2 18 -5z m292 -3 c3 -5 1 -10 -4 -10 -6 0 -11 5 -11 10 0 6 2
10 4 10 3 0 8 -4 11 -10z m675 6 c0 -3 -4 -8 -10 -11 -5 -3 -10 -1 -10 4 0 6
5 11 10 11 6 0 10 -2 10 -4z m-1089 -20 c5 -5 -7 -175 -12 -180 -2 -2 -22 0
-44 4 l-40 8 35 2 c33 2 33 3 10 10 l-25 8 28 1 c32 1 34 11 7 31 -15 11 -17
17 -8 28 14 16 -8 35 -30 27 -8 -3 -17 -5 -22 -5 -4 0 -10 -8 -13 -18 -6 -27
-47 -36 -47 -12 0 26 -13 26 -320 17 -146 -4 -314 -6 -375 -5 l-110 3 -3 37
-3 37 93 4 c152 5 874 7 879 3z m119 -11 c0 -18 16 -20 24 -2 3 6 4 -19 3 -58
l-3 -70 -43 -9 c-33 -7 -45 -6 -53 5 -7 11 -11 11 -15 2 -2 -7 -9 -13 -15 -13
-15 0 1 111 19 132 8 9 27 19 42 21 14 2 29 5 34 6 4 0 7 -6 7 -14z m190 -4
c0 -19 -2 -19 -32 -4 -29 15 -34 15 -61 -1 -32 -18 -43 -16 -34 9 5 11 22 15
67 15 53 0 60 -2 60 -19z m118 -1 l53 0 -5 -37 c-3 -21 -5 -50 -5 -65 -1 -16
-6 -28 -12 -28 -5 0 -7 5 -3 11 4 8 -1 9 -17 4 -23 -7 -23 -7 -8 11 24 29 31
44 20 44 -5 0 -13 -9 -16 -20 -4 -11 -10 -18 -15 -15 -5 3 -11 -4 -15 -15 -5
-15 -15 -20 -41 -20 -35 0 -46 16 -19 26 8 4 15 10 15 15 0 5 -7 9 -15 9 -11
0 -15 12 -15 46 0 43 2 46 23 40 12 -3 46 -6 75 -6z m232 -13 c0 -16 -3 -18
-12 -9 -7 7 -29 12 -50 12 -31 0 -40 -5 -52 -27 -8 -16 -15 -22 -16 -15 0 6
-5 12 -10 12 -7 0 -9 -17 -5 -45 4 -36 2 -45 -10 -45 -11 0 -15 13 -15 54 0
81 0 81 90 82 75 2 80 0 80 -19z m265 -13 c-7 -15 -11 -33 -8 -42 4 -10 2 -13
-5 -8 -6 3 -13 2 -17 -4 -14 -23 -25 -7 -25 35 0 45 0 45 34 45 34 0 35 0 21
-26z m122 12 c3 -2 0 -13 -6 -23 -9 -15 -10 -15 -11 -2 0 9 -14 21 -32 27
l-33 12 39 -5 c21 -2 41 -6 43 -9z m-812 -10 c-19 -14 -19 -15 0 -37 13 -14
15 -20 6 -17 -36 11 -40 68 -4 68 15 0 15 -2 -2 -14z m882 -15 c0 -20 -4 -28
-14 -24 -7 3 -13 0 -13 -6 0 -6 6 -11 13 -11 8 0 13 -14 14 -37 0 -28 -1 -33
-7 -18 -7 18 -8 19 -15 3 -4 -10 -13 -18 -21 -18 -10 0 -14 14 -14 50 0 38 4
50 15 50 8 0 15 7 15 16 0 9 -5 12 -12 8 -7 -4 -8 -3 -4 4 4 7 15 12 25 12 13
0 18 -8 18 -29z m-827 5 c0 -23 -16 -27 -17 -5 -1 10 2 19 8 19 5 0 9 -6 9
-14z m530 -27 c0 -6 6 -9 14 -6 19 8 28 -18 16 -48 -9 -22 -15 -25 -64 -25
-45 0 -54 3 -50 15 4 8 10 15 14 15 4 0 11 11 14 25 4 14 11 23 16 20 5 -3 11
-1 15 5 8 13 25 13 25 -1z m-500 -21 c0 -13 -4 -29 -9 -36 -6 -10 -10 -8 -14
8 -6 25 1 50 14 50 5 0 9 -10 9 -22z m668 -14 c-10 -10 -28 6 -28 24 0 15 1
15 17 -1 9 -9 14 -19 11 -23z m-779 12 c9 -10 8 -15 -4 -20 -10 -4 -15 1 -15
14 0 24 4 25 19 6z m-982 -15 c1 -11 -4 -24 -10 -28 -8 -5 -3 -10 13 -15 19
-6 15 -7 -13 -3 -45 5 -87 -11 -88 -34 -1 -9 -6 -1 -12 17 -9 30 -13 32 -42
26 -27 -5 -33 -2 -38 16 -4 17 -2 20 14 15 14 -5 17 -2 13 8 -4 12 11 15 78
16 78 2 84 0 85 -18z m252 -3 c15 -24 7 -36 -14 -18 -8 7 -23 10 -33 8 -11 -3
-23 2 -30 12 -9 16 -6 18 27 18 27 1 40 -5 50 -20z m168 10 c3 6 11 12 18 12
7 0 16 -6 18 -12 4 -10 8 -9 16 2 9 12 11 11 11 -7 0 -29 25 -30 42 -3 7 11
21 20 31 20 10 0 15 -4 12 -10 -3 -5 2 -10 12 -11 10 0 13 -3 6 -5 -7 -3 -9
-12 -6 -20 7 -18 -12 -18 -31 1 -21 21 -28 19 -14 -5 7 -11 20 -20 28 -21 19
-1 -19 -18 -40 -18 -10 1 -11 2 -2 6 24 10 11 23 -23 23 -24 0 -39 6 -47 20
-15 23 -30 27 -22 5 8 -20 -1 -19 -26 2 -24 21 -27 41 -3 22 13 -11 17 -11 20
-1z m-84 -15 c-7 -2 -21 -2 -30 0 -10 3 -4 5 12 5 17 0 24 -2 18 -5z m374 1
c-3 -3 -12 -4 -19 -1 -8 3 -5 6 6 6 11 1 17 -2 13 -5z m1040 -20 c-7 -7 -37 7
-37 17 0 6 9 5 21 -1 11 -7 19 -14 16 -16z m60 4 c-3 -8 -6 -5 -6 6 -1 11 2
17 5 13 3 -3 4 -12 1 -19z m-1724 5 c-13 -2 -33 -2 -45 0 -13 2 -3 4 22 4 25
0 35 -2 23 -4z m245 -10 c-54 -6 -47 -23 10 -24 38 -1 42 -2 22 -9 -24 -8 -24
-8 -2 -9 12 -1 22 -5 22 -11 0 -5 7 -10 15 -10 8 0 15 -4 15 -10 0 -14 -15
-13 -55 4 -19 8 -35 21 -35 27 0 10 -3 10 -11 2 -25 -25 16 -83 59 -83 21 0
24 -2 12 -10 -13 -8 -12 -11 5 -23 10 -8 26 -12 34 -9 9 3 12 1 7 -6 -4 -7 -1
-12 9 -12 11 0 15 -5 12 -14 -4 -11 3 -14 29 -13 37 2 41 20 6 25 -26 4 -29
17 -6 26 8 3 12 2 9 -4 -3 -6 1 -10 10 -10 9 0 14 4 11 8 -2 4 -1 14 5 22 7
12 9 10 9 -8 0 -12 6 -25 14 -28 8 -3 12 -12 9 -20 -3 -9 2 -14 16 -14 22 0
28 -14 11 -25 -5 -3 -10 0 -11 7 0 10 -2 10 -6 -1 -5 -11 -7 -11 -15 0 -6 9
-11 10 -14 3 -8 -18 -66 -3 -108 28 -73 52 -123 70 -168 57 -36 -9 -40 -13
-35 -37 l5 -27 -19 24 c-11 13 -18 30 -15 38 6 15 -40 17 -114 4 -43 -8 -42
-9 30 -11 l75 -3 -60 -7 c-33 -4 -52 -7 -43 -8 10 -1 17 -8 15 -14 -1 -9 9
-12 31 -10 24 3 32 -1 32 -13 0 -9 -4 -14 -9 -10 -5 3 -12 1 -16 -5 -11 -18
-51 -10 -75 15 -26 28 -46 31 -85 13 -16 -7 -25 -19 -24 -32 1 -17 2 -18 6 -3
5 19 5 19 48 22 31 2 55 -10 55 -27 0 -6 -7 -5 -15 2 -9 7 -18 10 -22 6 -3 -3
-1 -6 5 -6 7 0 12 -4 12 -10 0 -15 -30 -12 -31 3 0 10 -2 9 -6 0 -5 -14 -83
-18 -83 -5 0 4 5 13 11 19 8 8 1 10 -28 6 -38 -5 -41 -4 -52 27 -6 19 -9 35
-7 37 2 2 22 -4 45 -13 42 -17 117 -12 106 7 -4 5 0 9 8 9 8 0 20 7 27 15 15
18 179 22 197 4 19 -19 27 41 7 62 -14 15 -14 20 -3 31 34 33 67 47 104 46
l40 -1 -37 -4z m322 -2 c0 -6 -5 -13 -10 -16 -8 -5 -8 -11 0 -20 8 -10 8 -19
-2 -35 -11 -17 -11 -22 2 -30 10 -6 16 -32 18 -84 6 -108 21 -94 19 17 l-2 92
38 3 c28 2 39 -1 44 -14 9 -23 -16 -141 -39 -187 -18 -37 -19 -37 -81 -38 -34
0 -236 -2 -450 -5 l-387 -5 0 28 0 28 328 5 c180 2 362 4 405 4 l77 0 0 133
c0 126 1 133 20 133 11 0 20 -4 20 -9z m1015 -1 c-3 -5 -10 -10 -16 -10 -5 0
-9 5 -9 10 0 6 7 10 16 10 8 0 12 -4 9 -10z m-1556 -13 c-15 -11 -15 -15 -3
-32 20 -28 17 -35 -13 -34 -23 1 -24 2 -6 6 23 5 22 33 -2 33 -8 0 -11 8 -8
20 3 12 14 20 27 20 19 -1 19 -2 5 -13z m-269 -17 c13 -8 12 -10 -2 -10 -10 0
-18 -6 -18 -12 0 -9 -3 -8 -9 2 -17 25 1 38 29 20z m366 -25 c2 -18 0 -25 -5
-17 -5 8 -17 11 -34 7 -19 -5 -28 -2 -36 13 -14 26 -4 34 38 30 29 -3 34 -7
37 -33z m702 -39 c-4 -82 -10 -95 -33 -76 -18 15 -32 6 -18 -12 6 -7 9 -24 8
-38 -1 -18 -7 -24 -21 -22 -10 1 -35 3 -53 3 -29 1 -32 3 -17 11 15 8 16 12 5
19 -12 8 -12 11 1 19 11 7 12 12 3 18 -8 5 -9 13 -3 22 6 10 27 15 65 15 30 0
55 3 55 8 0 4 -7 7 -15 7 -19 0 -19 14 0 30 23 19 15 54 -13 58 -17 3 -25 -2
-29 -17 -5 -21 -23 -29 -23 -11 0 6 -6 10 -14 10 -9 0 -12 -7 -9 -19 3 -10 0
-22 -7 -26 -17 -11 -21 -2 -14 33 7 33 18 38 93 41 l43 1 -4 -74z m82 35 c0
-25 5 -41 15 -45 8 -3 15 -15 15 -26 0 -15 -7 -20 -29 -20 -27 0 -29 3 -33 52
-6 60 -2 78 18 78 10 0 14 -12 14 -39z m40 24 c0 -8 -7 -15 -15 -15 -16 0 -20
12 -8 23 11 12 23 8 23 -8z m56 -16 c-3 -17 -6 -47 -6 -65 0 -27 -4 -34 -20
-34 -22 0 -27 15 -7 23 7 3 5 6 -5 6 -19 1 -26 21 -8 21 6 0 10 10 9 23 -4 45
1 57 22 57 19 0 21 -4 15 -31z m67 21 c-28 -11 -44 -41 -36 -68 3 -14 1 -22
-7 -22 -8 0 -10 14 -7 48 3 26 6 48 6 50 1 1 16 2 34 1 28 0 30 -1 10 -9z m87
1 c0 -18 -17 -20 -36 -6 -18 14 -18 14 9 15 15 0 27 -4 27 -9z m184 0 c3 -5 3
-30 -1 -56 l-6 -47 -39 5 c-21 3 -38 1 -38 -4 0 -5 -20 -9 -45 -9 l-45 0 0 44
c0 74 2 76 90 76 44 0 81 -4 84 -9z m58 -3 c-7 -7 -12 -22 -12 -35 0 -14 -6
-23 -15 -23 -10 0 -15 10 -15 28 0 34 6 42 34 42 15 0 17 -3 8 -12z m313 2
c11 -17 -6 -110 -19 -110 -6 0 -18 9 -26 20 -17 23 -35 27 -27 6 4 -10 0 -14
-14 -13 -13 1 -19 9 -19 27 l-1 25 -12 -25 c-7 -14 -20 -26 -29 -28 -15 -2
-18 5 -18 48 0 27 5 50 10 50 6 0 10 -4 10 -10 0 -5 7 -10 15 -10 8 0 15 -4
15 -10 0 -5 5 -10 11 -10 5 0 7 5 3 11 -4 7 3 10 17 9 13 -1 33 -2 44 -1 16 1
17 3 5 11 -8 5 -34 7 -57 5 -24 -2 -43 1 -43 6 0 13 127 11 135 -1z m-1739
-15 c14 -13 11 -15 -23 -14 -23 1 -29 3 -15 6 12 2 20 9 17 14 -9 14 5 11 21
-6z m1551 -17 c-3 -7 -5 -2 -5 12 0 14 2 19 5 13 2 -7 2 -19 0 -25z m-105 0
c-7 -7 -12 -8 -12 -2 0 14 12 26 19 19 2 -3 -1 -11 -7 -17z m348 9 c-27 -15
-36 -14 -25 2 3 6 16 11 28 11 21 0 21 -1 -3 -13z m-1275 -7 c18 -8 17 -9 -7
-9 -16 -1 -28 4 -28 9 0 12 8 12 35 0z m152 4 c-3 -3 -12 -4 -19 -1 -8 3 -5 6
6 6 11 1 17 -2 13 -5z m-877 -8 c0 -3 -4 -8 -10 -11 -5 -3 -10 -1 -10 4 0 6 5
11 10 11 6 0 10 -2 10 -4z m133 -3 c-7 -2 -21 -2 -30 0 -10 3 -4 5 12 5 17 0
24 -2 18 -5z m547 -24 c0 -21 -16 -26 -23 -6 -6 17 3 38 14 31 5 -3 9 -14 9
-25z m-72 -17 c2 -12 -2 -22 -9 -22 -7 0 -9 3 -6 7 4 3 -1 15 -10 26 -17 19
-17 19 2 16 12 -3 21 -14 23 -27z m122 18 c12 -8 11 -10 -7 -10 -13 0 -23 5
-23 10 0 13 11 13 30 0z m-400 -10 c10 -7 -14 -9 -75 -8 -94 1 -91 2 45 16 8
1 22 -3 30 -8z m1430 -9 c0 -14 -6 -17 -25 -13 -24 4 -24 5 -8 18 25 18 33 17
33 -5z m-1618 3 c27 -8 22 -34 -6 -34 -14 0 -36 -4 -50 -10 -18 -6 -37 -5 -66
5 -22 8 -44 14 -48 14 -4 0 -8 6 -10 14 -2 10 16 14 80 14 46 1 91 -1 100 -3z
m853 -4 c4 -6 -5 -10 -20 -10 -15 0 -24 4 -20 10 3 6 12 10 20 10 8 0 17 -4
20 -10z m-262 -7 c-7 -2 -19 -2 -25 0 -7 3 -2 5 12 5 14 0 19 -2 13 -5z m1255
-33 c-2 -5 -9 -6 -16 -1 -7 4 -10 15 -6 25 6 17 8 17 16 2 5 -9 8 -21 6 -26z
m-371 14 c-3 -3 -12 -4 -19 -1 -8 3 -5 6 6 6 11 1 17 -2 13 -5z m40 0 c-3 -3
-12 -4 -19 -1 -8 3 -5 6 6 6 11 1 17 -2 13 -5z m-89 -36 c-4 -31 -21 -32 -35
-3 -10 23 -9 25 14 25 19 0 24 -4 21 -22z m-482 -15 c-10 -10 -19 5 -10 18 6
11 8 11 12 0 2 -7 1 -15 -2 -18z m144 -6 c0 -23 -7 -40 -22 -53 -13 -10 -17
-12 -10 -4 14 17 16 56 2 65 -17 10 -11 25 10 25 16 0 20 -7 20 -33z m150 1
c0 -25 -9 -33 -34 -29 -4 1 -14 -4 -22 -10 -13 -11 -17 -3 -13 27 1 8 -22 24
-34 24 -4 0 -2 -8 4 -19 7 -10 9 -27 5 -37 -7 -18 -8 -18 -22 0 -15 21 -19 58
-7 70 4 3 33 5 65 4 56 -2 58 -3 58 -30z m56 11 c-35 -27 -34 -57 2 -65 47
-10 48 -12 5 -13 l-43 -1 0 50 c0 49 0 50 31 50 l32 0 -27 -21z m295 8 c-14
-18 -2 -30 16 -15 7 6 16 9 19 6 9 -10 17 -77 10 -94 -6 -15 -9 -14 -32 7 -13
12 -23 32 -22 43 2 10 -3 21 -11 24 -11 4 -13 -4 -7 -37 6 -39 5 -41 -19 -41
-14 0 -28 7 -31 15 -5 12 -10 13 -20 4 -27 -22 -44 -3 -44 51 l0 50 76 0 c63
0 74 -2 65 -13z m134 6 c-37 -6 -53 -18 -57 -45 -2 -14 -6 -10 -14 16 l-11 36
56 -1 c34 -1 44 -4 26 -6z m-712 -10 c-32 -6 -43 -83 -11 -83 5 0 7 -4 4 -9
-4 -5 -17 -4 -31 2 -25 12 -25 17 -4 75 6 16 16 22 36 21 22 -1 24 -3 6 -6z
m370 -26 c-3 -5 -10 -4 -15 1 -6 6 -7 16 -3 22 6 9 9 9 16 -1 4 -7 5 -17 2
-22z m464 -46 c-2 -69 -27 -43 -27 28 0 21 3 41 7 45 11 11 22 -29 20 -73z
m43 54 c0 -8 -7 -15 -15 -15 -8 0 -15 7 -15 15 0 8 7 15 15 15 8 0 15 -7 15
-15z m-120 -5 c0 -5 -5 -10 -11 -10 -5 0 -7 5 -4 10 3 6 8 10 11 10 2 0 4 -4
4 -10z m-1450 -10 c0 -5 -2 -10 -4 -10 -3 0 -8 5 -11 10 -3 6 -1 10 4 10 6 0
11 -4 11 -10z m86 -11 c1 -12 -8 -16 -37 -17 -22 -1 -39 2 -39 8 0 5 6 7 14 4
8 -3 20 2 27 10 17 18 31 16 35 -5z m899 1 c3 -5 1 -10 -4 -10 -6 0 -11 5 -11
10 0 6 2 10 4 10 3 0 8 -4 11 -10z m-1435 -24 c0 -1 -13 -3 -30 -3 -30 0 -40
12 -17 20 11 4 47 -9 47 -17z m435 14 c3 -5 1 -10 -4 -10 -6 0 -11 5 -11 10 0
6 2 10 4 10 3 0 8 -4 11 -10z m935 -20 c0 -5 -4 -10 -10 -10 -5 0 -10 5 -10
10 0 6 5 10 10 10 6 0 10 -4 10 -10z m455 -20 c8 0 15 -4 15 -10 0 -5 -11 -10
-25 -10 -21 0 -25 5 -25 28 1 23 2 24 11 10 5 -10 17 -18 24 -18z m101 -7
c-11 -11 -19 6 -11 24 8 17 8 17 12 0 3 -10 2 -21 -1 -24z m-866 17 c0 -5 -7
-10 -16 -10 -8 0 -12 5 -9 10 3 6 10 10 16 10 5 0 9 -4 9 -10z m950 -6 c0 -8
-5 -12 -10 -9 -6 4 -8 11 -5 16 9 14 15 11 15 -7z m-1100 -4 c-20 -13 -33 -13
-25 0 3 6 14 10 23 10 15 0 15 -2 2 -10z m75 0 c8 -13 -5 -13 -25 0 -13 8 -13
10 2 10 9 0 20 -4 23 -10z m266 -10 c13 -7 62 -8 152 -1 106 7 144 6 187 -5
30 -8 77 -14 105 -15 27 0 59 -4 70 -9 12 -5 -105 -9 -283 -9 -313 -1 -309 -2
-279 37 12 15 22 15 48 2z m-161 -10 c0 -5 -4 -10 -10 -10 -5 0 -10 5 -10 10
0 6 5 10 10 10 6 0 10 -4 10 -10z m-60 -30 c0 -5 -2 -10 -4 -10 -3 0 -8 5 -11
10 -3 6 -1 10 4 10 6 0 11 -4 11 -10z m90 0 c0 -5 -5 -10 -11 -10 -5 0 -7 5
-4 10 3 6 8 10 11 10 2 0 4 -4 4 -10z m-239 -17 c13 -17 13 -17 -6 -3 -11 8
-22 16 -24 17 -2 2 0 3 6 3 6 0 17 -8 24 -17z m-81 -15 c0 -26 37 -32 173 -25
78 4 127 11 141 21 19 12 97 15 445 19 233 2 434 2 447 -1 23 -4 25 -8 22 -61
l-3 -56 -1040 0 -1040 0 -3 49 c-5 83 -43 77 433 75 403 -2 425 -3 425 -21z"/>
<path d="M981 2316 c9 -8 109 -12 121 -4 7 4 -17 8 -56 8 -38 0 -67 -2 -65 -4z"/>
<path d="M1230 1630 c0 -5 5 -10 10 -10 6 0 10 5 10 10 0 6 -4 10 -10 10 -5 0
-10 -4 -10 -10z"/>
<path d="M1249 1380 c-4 -30 -5 -57 -3 -59 10 -11 15 12 12 60 l-3 54 -6 -55z"/>
<path d="M1924 1831 c8 -13 206 -14 206 -1 0 6 -39 10 -106 10 -58 0 -103 -4
-100 -9z"/>
<path d="M1045 1447 c-8 -66 -1 -239 11 -260 6 -9 9 50 9 149 0 165 -8 209
-20 111z"/>
<path d="M1070 1136 c0 -9 5 -16 10 -16 6 0 10 4 10 9 0 6 -4 13 -10 16 -5 3
-10 -1 -10 -9z"/>
<path d="M1270 1160 c0 -5 5 -10 10 -10 6 0 10 5 10 10 0 6 -4 10 -10 10 -5 0
-10 -4 -10 -10z"/>
<path d="M1867 1123 c-13 -12 -7 -43 8 -43 9 0 15 9 15 25 0 24 -10 32 -23 18z"/>
<path d="M463 1003 c9 -2 25 -2 35 0 9 3 1 5 -18 5 -19 0 -27 -2 -17 -5z"/>
<path d="M250 882 c0 -15 11 -21 27 -15 12 5 12 7 1 14 -17 11 -28 11 -28 1z"/>
<path d="M335 870 c-4 -6 19 -10 61 -10 37 0 65 2 63 4 -11 9 -118 15 -124 6z"/>
<path d="M2000 990 c-10 -6 -8 -9 6 -12 18 -5 18 -5 0 -13 -12 -5 -21 -3 -27
6 -7 11 -9 11 -9 -2 0 -9 6 -19 14 -22 15 -6 56 18 56 32 0 13 -25 20 -40 11z"/>
<path d="M2060 970 c6 -11 13 -20 15 -20 3 0 5 9 5 20 0 11 -7 20 -15 20 -13
0 -14 -4 -5 -20z"/>
<path d="M1212 757 c-15 -18 -2 -30 23 -21 10 4 26 -2 41 -16 13 -13 24 -19
24 -13 0 15 -34 43 -52 43 -9 0 -18 5 -20 11 -2 7 -8 6 -16 -4z"/>
<path d="M1260 760 c20 -13 33 -13 25 0 -3 6 -14 10 -23 10 -15 0 -15 -2 -2
-10z"/>
<path d="M1260 685 c-14 -16 -3 -20 19 -6 8 5 9 11 3 15 -5 3 -15 -1 -22 -9z"/>
<path d="M1553 738 c-17 -28 -13 -48 8 -48 17 0 19 3 10 13 -6 8 -8 16 -5 20
10 10 34 -5 34 -22 0 -12 5 -10 19 8 14 18 20 21 26 10 5 -7 4 -14 -3 -17 -17
-5 -15 -22 2 -22 20 0 30 38 16 55 -8 10 -18 11 -35 5 -15 -6 -27 -6 -30 0 -9
14 -32 12 -42 -2z"/>
<path d="M1950 650 c0 -5 5 -10 10 -10 6 0 10 5 10 10 0 6 -4 10 -10 10 -5 0
-10 -4 -10 -10z"/>
<path d="M1086 586 c3 -9 11 -16 16 -16 13 0 5 23 -10 28 -7 2 -10 -2 -6 -12z"/>
<path d="M1125 570 c3 -5 8 -10 11 -10 2 0 4 5 4 10 0 6 -5 10 -11 10 -5 0 -7
-4 -4 -10z"/>
<path d="M1080 494 c0 -8 5 -12 10 -9 6 4 8 11 5 16 -9 14 -15 11 -15 -7z"/>
<path d="M1410 579 c0 -5 9 -9 20 -9 11 0 20 2 20 4 0 2 -9 6 -20 9 -11 3 -20
1 -20 -4z"/>
<path d="M1351 564 c-18 -21 -6 -30 14 -11 8 9 15 18 15 21 0 11 -15 5 -29
-10z"/>
<path d="M2070 500 c0 -5 5 -10 10 -10 6 0 10 5 10 10 0 6 -4 10 -10 10 -5 0
-10 -4 -10 -10z"/>
<path d="M85 500 c4 -6 11 -8 16 -5 14 9 11 15 -7 15 -8 0 -12 -5 -9 -10z"/>
<path d="M120 500 c0 -5 5 -10 11 -10 5 0 7 5 4 10 -3 6 -8 10 -11 10 -2 0 -4
-4 -4 -10z"/>
<path d="M180 489 c0 -5 5 -7 10 -4 6 3 10 8 10 11 0 2 -4 4 -10 4 -5 0 -10
-5 -10 -11z"/>
<path d="M920 379 c0 -5 5 -7 10 -4 6 3 10 8 10 11 0 2 -4 4 -10 4 -5 0 -10
-5 -10 -11z"/>
<path d="M370 439 c0 -5 11 -9 25 -9 14 0 25 2 25 4 0 2 -11 6 -25 8 -14 3
-25 1 -25 -3z"/>
<path d="M1055 320 c-3 -5 -1 -10 4 -10 6 0 11 5 11 10 0 6 -2 10 -4 10 -3 0
-8 -4 -11 -10z"/>
<path d="M1030 270 c0 -5 5 -10 11 -10 5 0 7 5 4 10 -3 6 -8 10 -11 10 -2 0
-4 -4 -4 -10z"/>
<path d="M1210 349 c0 -5 5 -7 10 -4 6 3 10 8 10 11 0 2 -4 4 -10 4 -5 0 -10
-5 -10 -11z"/>
<path d="M1560 390 c0 -5 5 -10 10 -10 6 0 10 5 10 10 0 6 -4 10 -10 10 -5 0
-10 -4 -10 -10z"/>
<path d="M1955 400 c-3 -5 -1 -10 4 -10 6 0 11 5 11 10 0 6 -2 10 -4 10 -3 0
-8 -4 -11 -10z"/>
<path d="M180 363 c-14 -3 -29 -9 -35 -15 -13 -13 56 0 70 13 10 9 8 10 -35 2z"/>
<path d="M1410 280 c0 -5 5 -10 11 -10 5 0 7 5 4 10 -3 6 -8 10 -11 10 -2 0
-4 -4 -4 -10z"/>
<path d="M1680 301 c0 -5 9 -13 20 -16 21 -7 28 -25 10 -25 -5 0 -10 -7 -10
-16 0 -11 5 -14 16 -10 9 3 18 6 20 6 12 0 2 39 -14 53 -20 19 -42 22 -42 8z"/>
<path d="M1750 246 c0 -9 5 -16 10 -16 6 0 10 4 10 9 0 6 -4 13 -10 16 -5 3
-10 -1 -10 -9z"/>
<path d="M1810 250 c0 -5 7 -10 16 -10 8 0 12 5 9 10 -3 6 -10 10 -16 10 -5 0
-9 -4 -9 -10z"/>
</g>
</svg>
