<?xml version="1.0" standalone="no"?>
<!DOCTYPE svg PUBLIC "-//W3C//DTD SVG 20010904//EN"
 "http://www.w3.org/TR/2001/REC-SVG-20010904/DTD/svg10.dtd">
<svg version="1.0" xmlns="http://www.w3.org/2000/svg"
 width="223.000000pt" height="381.000000pt" viewBox="0 0 223.000000 381.000000"
 preserveAspectRatio="xMidYMid meet">
<metadata>
Created by potrace 1.16, written by Peter Selinger 2001-2019
</metadata>
<g transform="translate(0.000000,381.000000) scale(0.100000,-0.100000)"
fill="#000000" stroke="none">
<path d="M29 3797 c-3 -10 -8 -743 -13 -2077 -3 -872 -8 -1610 -11 -1641 l-6
-57 38 -4 c56 -7 2142 -2 2149 5 10 10 15 433 30 2577 3 454 7 905 10 1002 2
97 1 179 -4 182 -8 5 -2191 18 -2193 13z m1161 -87 c0 -5 -6 -10 -13 -10 -8 0
-21 -8 -31 -18 -15 -18 -15 -20 1 -34 10 -9 27 -18 38 -20 11 -3 -13 -7 -53
-9 -39 -2 -72 -1 -72 4 0 4 7 7 15 7 13 0 35 28 35 44 0 4 -15 15 -32 26 l-33
20 73 0 c41 0 72 -4 72 -10z m227 -704 c2 -1 5 -47 8 -101 5 -107 2 -115 -47
-115 -26 0 -28 3 -28 39 0 65 11 99 34 107 20 6 19 7 -6 11 -31 5 -42 27 -27
55 8 15 17 18 37 13 15 -4 28 -8 29 -9z m-253 -41 c16 -12 18 -19 8 -40 -20
-44 -82 -28 -82 21 0 34 40 44 74 19z m660 -11 c35 -13 11 -64 -30 -64 -28 0
-38 14 -30 46 6 24 27 30 60 18z m-1173 -36 c9 -17 9 -24 -3 -32 -10 -8 -15
-29 -14 -71 1 -58 0 -60 -26 -63 -27 -3 -28 -2 -28 42 0 32 5 48 17 55 16 8
15 11 -6 28 -17 14 -22 25 -17 41 10 30 61 30 77 0z m154 -19 c7 -10 12 -51
18 -141 2 -40 -16 -58 -21 -20 -2 15 -10 22 -26 22 -30 0 -34 5 -28 37 3 15
13 28 26 31 20 6 20 6 -4 12 -28 7 -38 34 -20 55 15 18 46 20 55 4z m172 -25
c7 -20 -16 -46 -40 -42 -28 4 -41 43 -21 63 17 17 51 5 61 -21z m161 -43 c3
-41 3 -41 -32 -41 -31 0 -36 3 -36 24 0 14 4 36 10 50 8 21 13 24 32 17 18 -6
24 -17 26 -50z m707 -26 c4 -36 6 -68 3 -70 -2 -2 -22 -7 -45 -11 l-41 -6 2
33 c2 19 4 49 5 67 1 24 7 35 24 42 41 16 45 12 52 -55z m-881 -13 c-11 -9
-26 -30 -34 -47 l-14 -30 -4 33 c-5 50 3 62 40 62 33 0 33 -1 12 -18z m-526
-16 c2 -10 -2 -29 -8 -42 -10 -18 -10 -32 0 -68 16 -60 9 -76 -35 -76 l-35 0
0 55 c0 48 2 55 20 55 27 0 25 18 -2 22 -27 4 -36 41 -17 64 18 21 73 14 77
-10z m1112 -1 c-7 -8 -29 -15 -49 -15 -20 0 -90 -7 -154 -15 -117 -16 -142
-14 -134 8 4 13 164 33 281 35 60 2 67 0 56 -13z m-372 -11 c14 -3 22 -12 22
-24 0 -18 -7 -20 -57 -19 -72 1 -170 13 -179 22 -4 3 -4 13 -1 21 5 13 21 15
99 10 51 -3 103 -7 116 -10z m-620 -41 c-4 -24 -108 -33 -108 -9 0 19 15 24
68 25 36 1 43 -2 40 -16z m77 -3 c0 -9 -11 -16 -27 -18 -23 -3 -28 1 -28 18 0
17 5 21 28 18 16 -2 27 -9 27 -18z m152 7 c-2 -7 -29 -13 -65 -15 -49 -2 -62
0 -62 11 0 11 15 15 66 15 46 0 64 -3 61 -11z m1213 -6 c0 -16 -9 -21 -47 -26
-27 -4 -103 -20 -170 -37 -129 -31 -166 -33 -171 -7 -2 12 13 18 65 28 37 8
93 20 123 28 49 14 134 28 183 32 11 1 17 -6 17 -18z m-560 -20 c0 -31 -34
-51 -44 -25 -3 8 -19 14 -36 14 -16 0 -30 4 -30 8 0 19 27 32 67 32 41 0 43
-2 43 -29z m-470 -5 c0 -22 -11 -26 -107 -31 -48 -2 -109 -7 -134 -11 -38 -4
-47 -2 -53 12 -4 9 -5 18 -4 19 6 4 185 22 241 23 44 2 57 -1 57 -12z m166 1
c10 -12 13 -47 5 -47 -6 0 -11 4 -11 9 0 6 -17 11 -37 13 -28 2 -39 8 -41 22
-4 17 0 18 39 12 24 -4 44 -8 45 -9z m974 -27 c23 -23 25 -39 7 -64 -9 -13
-20 -16 -40 -11 -39 10 -53 40 -32 71 19 29 38 31 65 4z m-1458 -14 c3 -16 0
-27 -9 -30 -23 -9 -35 -7 -28 4 4 6 -5 10 -19 10 -19 0 -26 5 -26 20 0 17 7
20 39 20 33 0 39 -4 43 -24z m367 9 c-10 -11 -41 -17 -90 -20 -72 -4 -73 -4
-16 4 32 5 64 14 70 20 6 6 20 11 31 11 18 0 19 -2 5 -15z m364 -2 c-7 -2 -21
-2 -30 0 -10 3 -4 5 12 5 17 0 24 -2 18 -5z m-280 -10 c-13 -2 -33 -2 -45 0
-13 2 -3 4 22 4 25 0 35 -2 23 -4z m751 -15 c7 -29 0 -36 -51 -44 -35 -5 -44
-3 -49 10 -10 27 17 44 87 55 4 1 9 -9 13 -21z m-1016 -11 c3 -14 -5 -17 -37
-17 -51 0 -54 -17 -3 -23 32 -3 30 -4 -14 -5 l-51 -2 5 29 c4 26 9 30 41 34
49 5 55 3 59 -16z m588 -86 c-4 -53 -11 -184 -16 -291 -6 -107 -14 -256 -20
-330 -5 -74 -16 -236 -25 -360 -8 -124 -17 -256 -20 -295 -3 -38 -10 -153 -16
-255 -6 -102 -15 -189 -20 -194 -11 -12 -11 -6 1 169 5 77 14 237 20 355 16
331 38 780 51 1050 11 232 17 269 42 253 5 -3 6 -48 3 -102z m-56 -8 c0 -60
-4 -189 -10 -288 -5 -99 -17 -319 -25 -490 -8 -170 -20 -382 -25 -470 -6 -88
-15 -229 -20 -314 -5 -84 -12 -156 -15 -159 -8 -8 -6 99 5 308 5 102 12 253
15 335 9 262 25 624 35 820 5 105 10 229 10 278 0 71 3 87 15 87 12 0 15 -19
15 -107z m110 97 c-19 -13 -30 -13 -30 0 0 6 10 10 23 10 18 0 19 -2 7 -10z
m-500 -28 c0 -26 -3 -28 -42 -30 -24 0 -37 1 -30 5 10 4 9 8 -5 18 -20 15 -13
20 37 28 14 2 28 5 33 6 4 0 7 -12 7 -27z m146 -279 c-6 -289 -20 -807 -31
-1113 -2 -74 -5 -179 -5 -233 0 -54 -4 -96 -9 -93 -4 3 -7 29 -6 58 2 29 6
303 9 608 4 305 9 671 12 813 4 158 2 257 -3 257 -6 0 -13 -256 -18 -647 -4
-357 -11 -749 -15 -873 -6 -157 -7 -71 -4 280 2 278 4 673 4 878 l0 372 36 0
36 0 -6 -307z m-890 276 c12 -13 15 -22 7 -27 -6 -4 -12 -16 -14 -27 -6 -31
-47 -26 -67 8 -16 28 -16 29 7 48 30 24 43 24 67 -2z m1218 -4 c-5 -13 8 -15
77 -17 l84 -2 -80 -6 -80 -6 100 -3 c184 -5 206 -18 37 -22 l-152 -4 0 31 c0
17 3 34 7 37 10 11 13 8 7 -8z m-896 -19 c-3 -19 -16 -22 -153 -38 -142 -16
-176 -14 -161 10 8 14 92 29 195 36 46 3 85 7 87 9 13 13 35 1 32 -17z m48 -7
c8 -76 28 -1745 21 -1739 -3 3 -9 140 -12 305 -6 292 -18 789 -31 1244 -5 181
-4 223 6 219 8 -2 15 -15 16 -29z m42 -12 c-1 -18 1 -414 5 -882 3 -467 2
-805 -3 -750 -4 55 -9 285 -10 510 -1 226 -5 529 -8 675 -8 318 -5 493 8 485
6 -3 9 -20 8 -38z m1005 16 c-7 -2 -19 -2 -25 0 -7 3 -2 5 12 5 14 0 19 -2 13
-5z m183 -115 c-7 -125 -42 -608 -71 -973 -31 -409 -53 -647 -60 -653 -7 -7
-1 109 16 303 5 61 16 221 24 358 8 136 22 358 30 495 8 136 20 317 25 402 5
85 10 163 10 173 0 9 7 17 16 17 15 0 16 -13 10 -122z m169 112 c-20 -8 -134
-4 -143 5 -3 3 33 5 79 4 54 0 77 -3 64 -9z m93 -47 l-3 -58 -34 2 c-46 2 -51
11 -35 66 13 43 17 47 45 47 l30 0 -3 -57z m-308 5 c0 -188 -101 -1703 -115
-1716 -4 -4 -4 29 -1 73 11 143 26 458 24 525 l-1 65 -6 -55 -6 -55 -42 -3
c-43 -3 -43 -3 -43 31 l0 35 43 -4 42 -3 -39 11 -38 12 6 51 c3 27 15 124 25
214 11 90 21 164 23 165 2 2 14 -3 28 -11 19 -9 20 -13 8 -13 -10 0 -18 -4
-18 -10 0 -5 7 -10 15 -10 12 0 15 -17 17 -87 1 -59 3 -70 5 -33 2 30 10 152
18 270 14 206 31 551 28 578 0 6 5 12 13 12 10 0 14 -13 14 -42z m-968 15 c5
-22 4 -1073 -2 -1448 -6 -469 -15 -163 -18 653 -2 431 -6 790 -9 798 -3 8 1
14 10 14 8 0 17 -8 19 -17z m148 -330 c0 -494 -20 -1356 -32 -1368 -7 -7 -9
142 -6 443 3 250 2 448 -2 442 -4 -6 -8 -190 -9 -408 -2 -218 -6 -415 -11
-437 -4 -22 -8 346 -9 818 l-1 857 35 0 35 0 0 -347z m-194 305 c1 -18 5 -409
9 -868 5 -568 4 -832 -3 -825 -6 6 -13 191 -17 505 -4 272 -9 515 -10 540 -2
25 -6 188 -10 363 -7 306 -7 317 11 317 14 0 19 -8 20 -32z m1201 25 c-20 -2
-52 -2 -70 0 -17 2 0 4 38 4 39 0 53 -2 32 -4z m-1531 -37 c-4 -15 -1 -26 7
-29 6 -3 2 -6 -9 -6 -12 -1 -35 -4 -52 -7 -25 -5 -31 -2 -37 16 -9 28 -4 32
48 41 23 3 44 7 46 8 2 0 0 -10 -3 -23z m1147 17 c-13 -2 -35 -2 -50 0 -16 2
-5 4 22 4 28 0 40 -2 28 -4z m122 -7 c17 -12 18 -18 7 -40 -14 -30 -42 -34
-65 -8 -15 16 -15 20 -1 40 18 25 33 28 59 8z m228 7 c-13 -2 -33 -2 -45 0
-13 2 -3 4 22 4 25 0 35 -2 23 -4z m-1699 -53 c9 -30 7 -35 -20 -56 -36 -30
-40 -30 -48 0 -9 35 4 84 23 89 27 8 35 2 45 -33z m1243 34 c-3 -3 -12 -4 -19
-1 -8 3 -5 6 6 6 11 1 17 -2 13 -5z m476 -1 c-7 -2 -19 -2 -25 0 -7 3 -2 5 12
5 14 0 19 -2 13 -5z m-366 -9 c-3 -3 -12 -4 -19 -1 -8 3 -5 6 6 6 11 1 17 -2
13 -5z m-1100 -20 c-3 -3 -12 -4 -19 -1 -8 3 -5 6 6 6 11 1 17 -2 13 -5z
m1524 -20 c144 -30 169 -39 169 -59 0 -20 -12 -19 -122 9 -51 14 -112 28 -135
31 -44 7 -59 18 -48 35 8 13 -5 14 136 -16z m-1681 -2 c0 -4 16 -6 35 -4 l35
4 1 -93 c1 -52 5 -141 9 -199 6 -80 7 -62 3 75 -2 99 -1 176 3 173 3 -4 12
-107 20 -230 11 -195 18 -337 39 -828 11 -276 17 -495 12 -490 -3 3 -13 186
-22 407 -18 424 -42 819 -43 718 -1 -33 3 -150 8 -260 5 -110 14 -315 20 -455
5 -140 12 -300 16 -355 3 -64 2 -95 -4 -85 -5 8 -17 170 -26 360 -9 190 -26
480 -36 645 -11 165 -23 369 -26 453 -4 83 -11 152 -16 152 -4 0 -30 -16 -56
-35 -125 -94 -210 -155 -216 -155 -3 0 -6 9 -6 19 0 19 104 108 192 163 45 29
58 33 58 20z m163 -9 c-7 -2 -21 -2 -30 0 -10 3 -4 5 12 5 17 0 24 -2 18 -5z
m1199 -39 c2 -20 2 -49 0 -66 -4 -26 -8 -29 -36 -26 -38 4 -45 34 -21 91 21
50 51 51 57 1z m-1199 19 c-7 -2 -19 -2 -25 0 -7 3 -2 5 12 5 14 0 19 -2 13
-5z m1550 -34 c37 -10 44 -22 28 -47 -6 -11 -17 -11 -50 -2 -49 13 -54 22 -8
15 25 -4 28 -3 12 4 -11 5 -28 12 -38 15 -19 6 -14 26 6 26 7 0 29 -5 50 -11z
m-1340 -6 c-7 -2 -19 -2 -25 0 -7 3 -2 5 12 5 14 0 19 -2 13 -5z m154 -9 c-3
-3 -12 -4 -19 -1 -8 3 -5 6 6 6 11 1 17 -2 13 -5z m-729 -11 c-10 -2 -28 -2
-40 0 -13 2 -5 4 17 4 22 1 32 -1 23 -4z m1065 0 c-25 -5 -30 -18 -10 -27 6
-3 -1 -3 -18 1 -36 7 -39 9 -30 22 3 6 23 10 43 10 23 -1 29 -3 15 -6z m-488
-12 c-6 -11 -45 -10 -45 1 0 4 12 8 26 8 14 0 23 -4 19 -9z m308 2 c-7 -2 -19
-2 -25 0 -7 3 -2 5 12 5 14 0 19 -2 13 -5z m-785 -86 c-36 -30 -52 -30 -56 0
-2 14 9 31 35 52 l38 31 8 -27 c6 -24 2 -32 -25 -56z m1069 69 c3 -3 -17 -6
-45 -6 -29 0 -52 4 -52 8 0 10 87 8 97 -2z m-274 -13 c-7 -2 -21 -2 -30 0 -10
3 -4 5 12 5 17 0 24 -2 18 -5z m430 0 c-7 -2 -19 -2 -25 0 -7 3 -2 5 12 5 14
0 19 -2 13 -5z m50 0 c-7 -2 -19 -2 -25 0 -7 3 -2 5 12 5 14 0 19 -2 13 -5z
m65 0 c-10 -2 -26 -2 -35 0 -10 3 -2 5 17 5 19 0 27 -2 18 -5z m432 -25 c0
-31 -70 -523 -154 -1088 -57 -381 -58 -390 -67 -390 -5 0 -9 1 -9 3 0 1 9 70
20 152 109 827 105 793 96 784 -2 -2 -12 -68 -22 -146 -16 -131 -19 -142 -41
-152 -44 -20 -53 -14 -53 32 1 71 27 358 34 364 3 4 6 1 6 -5 0 -7 16 -12 40
-12 39 0 40 -1 40 -37 0 -67 8 -30 29 142 19 154 26 203 46 343 8 52 35 59 35
10z m-717 15 c-13 -2 -35 -2 -50 0 -16 2 -5 4 22 4 28 0 40 -2 28 -4z m757
-34 c0 -42 -28 -249 -55 -404 -9 -49 -31 -193 -50 -320 -52 -357 -105 -699
-111 -714 -2 -8 -7 -11 -10 -9 -5 5 5 79 41 328 7 52 27 194 44 315 39 278
110 770 117 813 7 46 24 40 24 -9z m-593 25 c-3 -3 -12 -4 -19 -1 -8 3 -5 6 6
6 11 1 17 -2 13 -5z m238 -13 c69 -11 39 -26 -53 -25 -111 1 -162 10 -162 30
0 12 14 14 88 8 48 -3 105 -9 127 -13z m-982 2 c-7 -2 -21 -2 -30 0 -10 3 -4
5 12 5 17 0 24 -2 18 -5z m505 0 c-10 -2 -28 -2 -40 0 -13 2 -5 4 17 4 22 1
32 -1 23 -4z m732 -23 c0 -7 -14 -8 -37 -4 -52 9 -54 14 -5 14 23 0 42 -5 42
-10z m-657 -7 c-7 -2 -19 -2 -25 0 -7 3 -2 5 12 5 14 0 19 -2 13 -5z m232 -4
c45 -1 43 -2 -24 -10 -41 -5 -76 -7 -79 -5 -11 11 13 27 32 22 11 -3 44 -6 71
-7z m598 4 c-7 -2 -21 -2 -30 0 -10 3 -4 5 12 5 17 0 24 -2 18 -5z m50 0 c-7
-2 -19 -2 -25 0 -7 3 -2 5 12 5 14 0 19 -2 13 -5z m-1949 -38 c-34 -30 -45
-34 -89 -33 l-50 1 43 4 c28 3 59 15 84 34 55 39 60 37 12 -6z m999 18 c-7 -2
-21 -2 -30 0 -10 3 -4 5 12 5 17 0 24 -2 18 -5z m435 0 c-10 -2 -26 -2 -35 0
-10 3 -2 5 17 5 19 0 27 -2 18 -5z m289 1 c-3 -3 -12 -4 -19 -1 -8 3 -5 6 6 6
11 1 17 -2 13 -5z m-1663 -259 c9 -137 20 -360 26 -495 6 -135 15 -315 20
-400 6 -85 9 -184 9 -220 -2 -64 -2 -63 -10 25 -4 50 -18 245 -29 435 -12 190
-27 422 -35 515 -27 328 -28 364 -15 380 7 9 14 14 16 13 1 -2 9 -115 18 -253z
m1283 249 c-3 -3 -12 -4 -19 -1 -8 3 -5 6 6 6 11 1 17 -2 13 -5z m131 -19 c2
-2 1 -13 -3 -24 -5 -17 -15 -21 -46 -21 -41 0 -57 16 -45 46 5 13 15 14 49 9
23 -4 44 -9 45 -10z m489 -1 c-3 -3 -12 -4 -19 -1 -8 3 -5 6 6 6 11 1 17 -2
13 -5z m-274 -11 c-7 -2 -21 -2 -30 0 -10 3 -4 5 12 5 17 0 24 -2 18 -5z
m-1679 -110 c4 -60 9 -128 11 -153 8 -83 33 -449 50 -755 4 -55 10 -154 15
-220 5 -66 9 -131 9 -145 0 -23 -1 -23 -8 -5 -5 11 -11 76 -15 145 -4 69 -13
197 -21 285 -8 88 -19 228 -25 310 -6 83 -17 229 -25 325 -8 96 -17 208 -21
248 -5 59 -3 72 9 72 11 0 16 -23 21 -107z m114 90 c-10 -2 -28 -2 -40 0 -13
2 -5 4 17 4 22 1 32 -1 23 -4z m175 0 c-7 -2 -19 -2 -25 0 -7 3 -2 5 12 5 14
0 19 -2 13 -5z m-343 -13 c0 -5 -17 -9 -37 -9 -38 1 -38 1 -8 9 43 11 45 11
45 0z m189 -4 c-10 -9 -79 -14 -74 -5 4 5 22 9 42 9 20 0 34 -2 32 -4z m-183
-24 c-7 -12 -98 -14 -127 -3 -19 8 -7 10 54 10 43 1 76 -3 73 -7z m1014 -6 c0
-9 13 -16 33 -19 17 -2 3 -4 -33 -4 -46 -1 -58 1 -40 7 14 4 21 8 17 9 -11 1
2 21 14 21 5 0 9 -6 9 -14z m427 -15 c-4 -16 -8 -71 -11 -123 l-5 -93 14 100
c7 55 14 110 14 123 1 17 6 22 18 20 22 -4 22 -9 -27 -418 -22 -179 -52 -424
-66 -545 -14 -121 -32 -247 -39 -280 -12 -57 -13 -58 -14 -20 -1 36 54 574 79
780 6 44 9 93 9 110 -1 28 -18 -89 -38 -275 -46 -409 -73 -635 -77 -639 -2 -2
-6 -2 -8 0 -4 4 33 415 63 694 6 55 18 170 26 255 26 277 36 340 52 340 12 0
14 -7 10 -29z m-1274 12 c-13 -2 -33 -2 -45 0 -13 2 -3 4 22 4 25 0 35 -2 23
-4z m140 0 c-7 -2 -19 -2 -25 0 -7 3 -2 5 12 5 14 0 19 -2 13 -5z m-304 -18
c-8 -7 -139 -9 -146 -1 -3 3 29 6 72 6 43 0 76 -2 74 -5z m359 -2 c-10 -2 -26
-2 -35 0 -10 3 -2 5 17 5 19 0 27 -2 18 -5z m-190 -10 c-10 -2 -28 -2 -40 0
-13 2 -5 4 17 4 22 1 32 -1 23 -4z m1192 -1 c0 -13 -117 -15 -125 -2 -4 6 16
10 59 10 36 0 66 -4 66 -8z m-1467 -19 c-7 -2 -21 -2 -30 0 -10 3 -4 5 12 5
17 0 24 -2 18 -5z m90 0 c-13 -2 -33 -2 -45 0 -13 2 -3 4 22 4 25 0 35 -2 23
-4z m194 1 c-3 -3 -12 -4 -19 -1 -8 3 -5 6 6 6 11 1 17 -2 13 -5z m156 -1 c-7
-2 -21 -2 -30 0 -10 3 -4 5 12 5 17 0 24 -2 18 -5z m740 0 c-24 -2 -62 -2 -85
0 -24 2 -5 4 42 4 47 0 66 -2 43 -4z m-403 -7 c0 -3 -4 -8 -10 -11 -5 -3 -10
-1 -10 4 0 6 5 11 10 11 6 0 10 -2 10 -4z m710 -6 c0 -5 -15 -10 -32 -10 -25
0 -29 3 -18 10 20 13 50 13 50 0z m135 -8 c-3 -3 -11 0 -18 7 -9 10 -8 11 6 5
10 -3 15 -9 12 -12z m-1515 -8 c0 -2 -35 -3 -77 -2 l-78 1 65 6 c61 6 90 4 90
-5z m1298 9 c-10 -2 -26 -2 -35 0 -10 3 -2 5 17 5 19 0 27 -2 18 -5z m-1004
-18 c-4 -8 -8 -15 -10 -15 -2 0 -4 7 -4 15 0 8 4 15 10 15 5 0 7 -7 4 -15z
m553 9 c-3 -3 -12 -4 -19 -1 -8 3 -5 6 6 6 11 1 17 -2 13 -5z m210 0 c-3 -3
-12 -4 -19 -1 -8 3 -5 6 6 6 11 1 17 -2 13 -5z m46 -1 c-7 -2 -19 -2 -25 0 -7
3 -2 5 12 5 14 0 19 -2 13 -5z m631 -1 c3 -5 -15 -9 -39 -9 -24 0 -42 4 -39 9
3 4 20 8 39 8 19 0 36 -4 39 -8z m213 1 c-20 -2 -52 -2 -70 0 -17 2 0 4 38 4
39 0 53 -2 32 -4z m-1264 -10 c-7 -2 -19 -2 -25 0 -7 3 -2 5 12 5 14 0 19 -2
13 -5z m675 0 c-16 -2 -40 -2 -55 0 -16 2 -3 4 27 4 30 0 43 -2 28 -4z m-240
-15 c-3 -7 -20 -14 -39 -14 l-34 -2 34 5 c26 3 31 7 20 14 -11 7 -11 9 4 9 11
0 17 -6 15 -12z m409 6 c-3 -3 -12 -4 -19 -1 -8 3 -5 6 6 6 11 1 17 -2 13 -5z
m429 -3 c-8 -12 -116 -13 -116 -1 0 6 27 10 61 10 33 0 58 -4 55 -9z m-1988
-8 c-21 -2 -57 -2 -80 0 -24 2 -7 4 37 4 44 0 63 -2 43 -4z m578 -2 c-5 -8
-56 -3 -56 5 0 2 14 4 31 4 16 0 28 -4 25 -9z m137 -24 c18 -4 17 -5 -5 -6
-23 -1 -28 3 -27 22 1 15 3 17 6 5 2 -9 14 -19 26 -21z m301 24 c7 -11 -22
-23 -35 -15 -5 3 -7 10 -4 15 8 12 32 12 39 0z m46 -1 c0 -5 -4 -10 -10 -10
-5 0 -10 5 -10 10 0 6 5 10 10 10 6 0 10 -4 10 -10z m333 3 c-13 -2 -33 -2
-45 0 -13 2 -3 4 22 4 25 0 35 -2 23 -4z m345 0 c-16 -2 -40 -2 -55 0 -16 2
-3 4 27 4 30 0 43 -2 28 -4z m-1535 -10 c-7 -2 -21 -2 -30 0 -10 3 -4 5 12 5
17 0 24 -2 18 -5z m1354 1 c-3 -3 -12 -4 -19 -1 -8 3 -5 6 6 6 11 1 17 -2 13
-5z m-179 -11 c-10 -2 -26 -2 -35 0 -10 3 -2 5 17 5 19 0 27 -2 18 -5z m631 3
c-9 -8 -139 -13 -139 -5 0 5 32 9 72 9 39 0 69 -2 67 -4z m-1128 -21 c0 -5 -7
-12 -16 -13 -23 -5 -47 6 -40 19 8 13 56 8 56 -6z m249 -1 c0 -2 -16 -4 -35
-4 -19 0 -35 4 -35 8 0 4 16 6 35 4 19 -2 35 -6 35 -8z m420 -6 c11 -4 8 -8
-10 -16 -27 -10 -36 -2 -25 26 4 10 9 13 13 6 4 -6 14 -13 22 -16z m193 15
c-13 -2 -33 -2 -45 0 -13 2 -3 4 22 4 25 0 35 -2 23 -4z m-343 -13 c11 -7 -2
-10 -42 -10 -32 0 -58 -4 -58 -10 0 -5 -11 -10 -25 -10 -15 0 -25 6 -25 15 0
10 16 15 63 18 34 2 64 4 67 5 3 1 12 -3 20 -8z m-1475 -7 c-32 -8 -42 -23
-14 -23 18 0 21 -2 10 -9 -11 -7 -4 -11 25 -14 27 -3 22 -4 -16 -3 -55 1 -61
7 -51 51 1 3 16 4 34 4 21 -1 25 -3 12 -6z m83 0 c-10 -2 -28 -2 -40 0 -13 2
-5 4 17 4 22 1 32 -1 23 -4z m1730 0 c-16 -2 -40 -2 -55 0 -16 2 -3 4 27 4 30
0 43 -2 28 -4z m205 0 c-13 -2 -35 -2 -50 0 -16 2 -5 4 22 4 28 0 40 -2 28 -4z
m70 0 c-7 -2 -21 -2 -30 0 -10 3 -4 5 12 5 17 0 24 -2 18 -5z m-1593 -48 l0
-45 -55 0 -55 0 0 45 0 45 55 0 55 0 0 -45z m307 39 c-3 -3 -12 -4 -19 -1 -8
3 -5 6 6 6 11 1 17 -2 13 -5z m310 0 c-3 -3 -12 -4 -19 -1 -8 3 -5 6 6 6 11 1
17 -2 13 -5z m76 -1 c-13 -2 -33 -2 -45 0 -13 2 -3 4 22 4 25 0 35 -2 23 -4z
m637 -20 c3 -3 -14 -3 -38 0 -23 2 -46 7 -49 11 -3 3 14 3 38 0 24 -3 46 -8
49 -11z m240 7 c0 -6 -26 -9 -62 -8 l-63 1 60 7 c33 4 61 7 63 8 1 1 2 -2 2
-8z m-1762 -59 c3 -46 1 -53 -13 -47 -9 3 -30 6 -46 6 -28 0 -29 1 -29 51 l0
50 43 -3 42 -3 3 -54z m352 29 c0 -28 -3 -30 -35 -30 -32 0 -35 2 -35 30 0 28
3 30 35 30 32 0 35 -2 35 -30z m550 20 c0 -5 -12 -10 -27 -9 l-28 1 25 8 c14
4 26 8 28 9 1 1 2 -3 2 -9z m-400 -15 c0 -10 -9 -15 -27 -14 -24 2 -25 2 -5 6
12 2 20 9 17 14 -4 5 -1 9 4 9 6 0 11 -7 11 -15z m337 9 c-3 -3 -12 -4 -19 -1
-8 3 -5 6 6 6 11 1 17 -2 13 -5z m301 -1 c-21 -2 -55 -2 -75 0 -21 2 -4 4 37
4 41 0 58 -2 38 -4z m-1323 -12 c10 -18 -15 -22 -37 -7 l-22 16 26 0 c15 0 29
-4 33 -9z m1502 3 c-3 -3 -12 -4 -19 -1 -8 3 -5 6 6 6 11 1 17 -2 13 -5z m181
-1 c-16 -2 -40 -2 -55 0 -16 2 -3 4 27 4 30 0 43 -2 28 -4z m182 -7 c-6 -8
-18 -12 -26 -9 -8 3 -18 -4 -23 -18 l-10 -24 0 26 c-1 33 6 39 42 39 24 0 27
-2 17 -14z m63 7 c-7 -2 -19 -2 -25 0 -7 3 -2 5 12 5 14 0 19 -2 13 -5z
m-1096 -9 c-3 -3 -12 -4 -19 -1 -8 3 -5 6 6 6 11 1 17 -2 13 -5z m163 -4 c0
-5 -9 -10 -19 -10 -11 0 -21 -5 -23 -12 -2 -6 -10 -8 -16 -4 -21 13 -13 25 21
29 17 2 33 5 35 5 1 1 2 -2 2 -8z m93 3 c-7 -2 -21 -2 -30 0 -10 3 -4 5 12 5
17 0 24 -2 18 -5z m240 0 c-18 -2 -48 -2 -65 0 -18 2 -4 4 32 4 36 0 50 -2 33
-4z m170 -10 c-7 -2 -19 -2 -25 0 -7 3 -2 5 12 5 14 0 19 -2 13 -5z m144 1
c-3 -3 -12 -4 -19 -1 -8 3 -5 6 6 6 11 1 17 -2 13 -5z m50 0 c-3 -3 -12 -4
-19 -1 -8 3 -5 6 6 6 11 1 17 -2 13 -5z m-1770 -10 c-3 -3 -22 -6 -42 -6 -20
0 -39 3 -42 6 -4 3 15 6 42 6 27 0 46 -3 42 -6z m1303 -9 c0 -12 14 -15 66
-15 l66 0 -6 -42 c-3 -24 -13 -110 -21 -193 -9 -82 -18 -156 -20 -162 -6 -19
-29 -16 -86 10 l-51 22 6 130 c9 203 17 265 32 265 8 0 14 -7 14 -15z m93 8
c-13 -2 -33 -2 -45 0 -13 2 -3 4 22 4 25 0 35 -2 23 -4z m665 -209 l-3 -216
-115 7 c-63 4 -116 8 -118 10 -3 3 23 188 39 283 10 52 15 62 33 63 11 1 28 3
36 4 8 1 31 3 50 4 36 2 79 26 67 38 -4 3 -24 6 -44 5 -28 -1 -34 1 -23 8 8 5
30 10 48 10 l33 0 -3 -216z m-900 199 c-10 -2 -26 -2 -35 0 -10 3 -2 5 17 5
19 0 27 -2 18 -5z m-1078 -13 c0 -5 -16 -10 -36 -10 -21 0 -33 4 -29 10 3 6
19 10 36 10 16 0 29 -4 29 -10z m1637 4 c-3 -3 -12 -4 -19 -1 -8 3 -5 6 6 6
11 1 17 -2 13 -5z m46 -1 c-7 -2 -19 -2 -25 0 -7 3 -2 5 12 5 14 0 19 -2 13
-5z m-856 -9 c-3 -3 -12 -4 -19 -1 -8 3 -5 6 6 6 11 1 17 -2 13 -5z m252 -3
c11 -7 12 -24 8 -73 -4 -34 -10 -110 -13 -168 -4 -58 -8 -107 -11 -110 -10
-11 -116 -37 -134 -33 -20 6 -21 11 -17 182 l3 176 65 6 c36 3 61 6 55 7 -5 1
-3 7 5 12 18 12 21 12 39 1z m768 -7 c-3 -3 -12 -4 -19 -1 -8 3 -5 6 6 6 11 1
17 -2 13 -5z m-1940 -10 c-3 -3 -12 -4 -19 -1 -8 3 -5 6 6 6 11 1 17 -2 13 -5z
m773 -94 l0 -100 -25 0 c-25 0 -25 0 -25 93 0 52 3 97 7 100 3 4 15 7 25 7 16
0 18 -10 18 -100z m150 -85 c0 -153 -2 -185 -14 -185 -8 0 -21 -3 -30 -6 -14
-5 -16 15 -16 185 l0 191 30 0 30 0 0 -185z m-299 158 c0 -10 3 -45 5 -78 6
-75 0 -93 -22 -71 -8 9 -24 16 -35 16 -17 0 -19 7 -19 65 0 63 1 65 26 65 14
0 23 4 19 10 -3 6 1 10 9 10 9 0 16 -8 17 -17z m-568 0 c-23 -2 -64 -2 -90 0
-26 2 -8 3 42 3 50 0 71 -1 48 -3z m200 0 c-13 -2 -33 -2 -45 0 -13 2 -3 4 22
4 25 0 35 -2 23 -4z m-200 -30 c-23 -2 -64 -2 -90 0 -26 2 -8 3 42 3 50 0 71
-1 48 -3z m195 0 c-10 -2 -28 -2 -40 0 -13 2 -5 4 17 4 22 1 32 -1 23 -4z
m145 -10 c-40 -8 -25 -19 25 -19 l47 1 3 -47 c2 -29 -1 -48 -7 -48 -6 0 -11 7
-11 15 0 11 -12 15 -45 15 l-45 0 0 45 c0 43 1 45 28 44 23 -2 24 -2 5 -6z
m-433 -24 c0 -6 16 -10 38 -9 78 4 102 0 102 -15 0 -8 -7 -15 -15 -15 -8 0
-15 4 -15 10 0 5 -35 10 -77 12 -50 2 -78 7 -81 16 -2 7 6 12 22 12 14 0 26
-5 26 -11z m320 -14 c0 -23 -4 -25 -45 -25 -33 0 -45 4 -45 15 0 10 11 15 35
15 19 0 35 5 35 10 0 6 5 10 10 10 6 0 10 -11 10 -25z m-335 -25 c3 -5 17 -10
31 -10 13 0 24 -5 24 -11 0 -8 17 -10 50 -7 57 6 57 7 62 -127 l3 -80 -50 -6
c-27 -4 -74 -9 -102 -12 l-53 -4 0 127 c0 70 3 130 7 133 9 10 21 9 28 -3z
m460 -60 c-4 -6 8 -10 29 -10 l36 0 0 -94 c0 -102 -2 -106 -60 -106 -33 0 -40
23 -40 141 0 73 2 79 21 79 11 0 17 -4 14 -10z m-121 -31 c3 -17 6 -62 6 -100
l0 -69 -33 0 c-23 0 -34 -5 -34 -15 0 -19 34 -30 51 -16 18 15 26 4 26 -36 0
-32 -1 -33 -42 -35 l-43 -1 41 -4 42 -4 6 -62 c3 -34 8 -127 11 -207 l7 -145
-41 -22 c-23 -12 -43 -18 -45 -15 -2 4 -4 30 -5 57 0 28 -7 176 -16 330 -8
154 -15 301 -15 328 l0 47 39 0 c35 0 39 -3 45 -31z m330 5 c13 -5 16 -23 16
-90 0 -88 -2 -91 -50 -84 -25 3 -30 21 -30 103 0 75 1 77 24 77 13 0 31 -3 40
-6z m156 -78 c0 -74 -2 -84 -19 -89 -11 -3 -22 -2 -25 1 -3 3 -6 40 -6 83 0
79 1 81 43 88 4 0 7 -37 7 -83z m383 -123 c-1 -32 -2 -61 -2 -65 -1 -5 -35 -8
-76 -8 l-75 0 0 50 c0 46 2 50 24 50 13 0 39 7 57 15 19 8 43 14 54 15 18 0
20 -6 18 -57z m227 12 c8 5 10 -7 8 -37 l-3 -43 -67 -3 -68 -3 0 59 c0 32 3
61 6 64 3 4 30 -5 60 -19 29 -13 59 -21 64 -18z m-465 -31 c0 -46 -2 -49 -27
-52 -27 -3 -28 -2 -28 47 0 39 4 51 18 54 31 8 37 1 37 -49z m990 36 c-3 -5
-17 -10 -31 -10 -13 0 -24 -5 -24 -11 0 -7 10 -9 28 -5 34 8 38 9 88 0 31 -5
44 -2 57 11 22 21 47 5 47 -31 0 -28 -9 -31 -145 -39 l-110 -6 3 50 4 51 45 0
c27 0 42 -4 38 -10z m85 0 c10 0 11 -3 4 -10 -7 -7 -19 -8 -37 -1 -33 13 -36
26 -4 17 12 -3 29 -6 37 -6z m-1892 -6 c18 -5 22 -13 22 -43 l0 -37 -105 1
-105 0 0 26 c0 34 37 54 84 46 20 -3 36 -2 36 4 0 10 34 12 68 3z m672 -39 c0
-41 -2 -45 -25 -45 -23 0 -25 4 -25 45 0 41 2 45 25 45 23 0 25 -4 25 -45z
m956 -11 c-6 -30 -11 -34 -36 -34 -17 0 -30 -4 -30 -10 0 -5 13 -10 30 -10 27
0 29 -2 24 -30 -4 -16 -18 -109 -33 -207 -20 -140 -29 -178 -41 -178 -22 0
-24 61 -6 267 9 99 16 186 16 194 0 8 9 14 20 14 22 0 27 15 8 24 -7 3 -3 3
10 0 15 -4 24 0 29 12 10 27 16 -1 9 -42z m-1256 6 l0 -40 -45 0 c-45 0 -45 0
-45 34 0 32 3 35 33 39 17 2 38 5 45 5 8 1 12 -12 12 -38z m160 0 l0 -40 -40
0 c-39 0 -40 1 -40 33 0 42 5 47 47 47 32 0 33 -1 33 -40z m-500 -78 c0 -49
21 -295 30 -352 4 -30 5 -58 1 -62 -10 -11 -148 -19 -203 -12 l-48 7 0 223 0
224 110 0 110 0 0 -28z m340 26 c1 -2 4 -87 7 -190 l6 -188 -41 0 -41 0 -5 53
c-10 96 -16 314 -9 320 6 6 82 10 83 5z m160 -110 c0 -62 3 -157 7 -210 l6
-98 -25 0 c-13 0 -33 6 -43 14 -17 12 -19 31 -22 197 -2 101 -1 190 2 197 2 6
20 12 40 12 l35 0 0 -112z m128 104 c9 -7 12 -57 10 -218 -3 -201 -4 -209 -23
-209 -19 0 -20 8 -23 218 -2 223 -1 232 36 209z m152 -202 c0 -209 0 -211 -22
-219 -13 -5 -26 -7 -30 -4 -10 5 -11 417 -1 426 3 4 17 7 30 7 l23 0 0 -210z
m237 113 c-4 -54 -7 -140 -7 -190 0 -105 7 -97 -97 -107 l-53 -5 0 187 c0 112
4 192 10 198 5 5 42 11 82 12 l71 3 -6 -98z m229 86 c4 -6 -2 -90 -12 -185
l-18 -174 -57 0 c-32 0 -60 3 -62 8 -7 13 13 316 23 340 8 19 17 22 64 22 30
0 58 -5 62 -11z m187 3 c6 -8 -10 -321 -19 -370 -4 -27 -9 -32 -22 -26 -9 3
-33 10 -52 13 -41 8 -40 -8 -15 206 13 116 22 163 33 173 17 13 68 17 75 4z
m495 -6 c8 -5 10 -58 6 -184 -3 -97 -7 -182 -8 -187 -2 -6 -21 -12 -42 -13
-20 -2 -42 -6 -48 -10 -6 -3 -29 -7 -51 -8 -22 -1 -68 -5 -102 -9 l-63 -8 0
34 c0 19 5 52 10 74 5 22 16 90 25 150 23 161 24 163 48 168 33 7 212 1 225
-7z m-723 -387 c4 -6 4 -13 0 -17 -3 -3 -9 -1 -14 6 -5 9 -16 9 -41 2 -48 -14
-60 -13 -60 5 0 11 13 15 54 15 30 0 58 -5 61 -11z m-855 -63 c0 -58 -3 -66
-27 -86 l-28 -21 25 6 c14 4 39 8 55 10 17 1 36 3 43 3 8 2 12 22 12 65 l0 64
38 -6 c37 -6 37 -6 40 -60 3 -45 1 -53 -12 -48 -19 8 -46 -1 -46 -15 0 -5 5
-6 10 -3 15 9 12 -4 -5 -21 -21 -21 -19 -38 3 -29 9 4 33 12 52 17 19 6 47 19
61 29 24 17 26 24 21 64 -4 43 -4 45 22 45 22 0 26 -4 26 -31 0 -17 -5 -39
-11 -51 -15 -27 -7 -31 27 -14 16 8 37 17 47 20 12 4 17 16 17 41 0 32 2 35
30 35 36 0 37 -6 8 -37 -12 -13 -18 -26 -13 -30 4 -5 10 -2 12 5 3 6 17 12 33
12 43 0 60 10 60 34 0 43 22 58 88 63 57 4 62 2 62 -17 0 -11 -8 -23 -17 -26
-54 -18 -179 -68 -188 -76 -16 -15 45 2 89 24 61 31 116 48 116 37 0 -10 -19
-19 -111 -53 -63 -23 -112 -67 -169 -151 -26 -38 -72 -96 -101 -128 -45 -49
-65 -62 -125 -82 -38 -13 -110 -29 -158 -34 -62 -7 -92 -15 -101 -27 -8 -12
-21 -15 -44 -12 -20 3 -30 1 -28 -6 7 -21 74 -19 94 2 17 18 113 36 113 21 0
-3 -23 -16 -52 -30 -55 -26 -80 -27 -343 -18 -94 3 -115 1 -138 -14 -36 -24
-30 -41 16 -45 20 -2 37 -7 37 -12 0 -9 -100 -18 -105 -10 -2 3 -6 33 -9 68
-6 66 -7 65 47 76 15 4 27 12 27 20 0 8 17 16 43 19 23 4 56 9 73 13 27 5 32
3 37 -17 6 -21 9 -22 88 -16 69 4 85 3 95 -11 11 -15 18 -14 85 2 97 23 131
47 181 129 22 37 53 74 67 82 19 10 21 14 9 15 -28 0 -83 -55 -116 -118 -32
-60 -53 -76 -116 -87 -25 -5 -36 -4 -36 5 0 9 -25 11 -102 6 -75 -4 -95 -3
-73 5 94 31 97 31 106 18 13 -22 56 5 64 40 4 17 11 33 16 36 15 10 10 25 -6
19 -8 -3 -20 -21 -27 -40 -6 -19 -16 -34 -20 -34 -5 0 1 18 12 39 13 27 37 50
75 73 49 29 68 49 48 48 -20 -1 -119 -78 -130 -101 -7 -15 -19 -32 -27 -38
-17 -15 -155 -53 -170 -48 -6 2 5 7 24 12 57 12 104 44 133 90 35 55 95 110
144 131 21 9 33 18 26 21 -32 12 -135 -71 -193 -155 -12 -18 -34 -38 -49 -44
-59 -23 -209 -58 -255 -58 -43 0 -48 -2 -43 -20 4 -15 0 -20 -14 -20 -14 0
-19 7 -19 25 0 21 5 25 33 25 17 0 64 8 102 18 66 17 71 21 94 62 14 24 27 38
29 32 2 -7 -4 -24 -13 -38 -9 -14 -14 -28 -11 -31 11 -11 45 28 51 58 4 16 18
43 32 59 14 17 19 30 13 30 -10 0 -9 4 0 15 7 9 11 18 8 21 -7 6 -94 -90 -124
-138 -16 -25 -33 -38 -56 -43 -18 -4 -42 -9 -53 -11 -17 -5 -16 -2 5 15 14 11
31 19 39 18 14 -2 20 6 46 68 10 22 24 48 33 58 10 12 11 17 3 17 -7 0 -9 5
-6 10 3 6 2 10 -3 10 -16 0 -52 -46 -80 -101 -19 -38 -36 -58 -60 -68 -19 -9
-31 -20 -28 -28 6 -14 1 -15 -31 -7 -31 8 -29 24 2 24 19 0 35 16 75 73 27 39
71 96 96 125 47 52 74 69 54 33 -17 -32 -12 -46 8 -28 10 9 32 21 48 27 27 9
29 14 26 48 -3 34 0 40 37 64 22 14 42 23 45 20 3 -3 6 -25 6 -49 0 -34 -6
-50 -30 -75 -32 -33 -36 -43 -21 -53 6 -3 15 4 21 15 6 11 17 20 25 20 8 0 15
7 15 15 0 8 16 19 40 25 38 10 52 31 30 45 -5 3 -10 24 -10 45 0 32 4 39 23
43 57 11 57 11 57 -57z m1036 24 c22 0 24 -4 24 -44 0 -25 -4 -48 -10 -51 -16
-10 -12 -19 15 -32 14 -6 25 -7 25 -2 0 5 4 9 9 9 6 0 3 -16 -5 -35 -8 -20
-12 -40 -8 -46 3 -5 0 -16 -6 -24 -7 -8 -9 -15 -4 -15 5 0 10 -21 11 -46 1
-41 0 -44 -12 -27 -13 17 -14 16 -15 -12 -1 -28 -2 -29 -10 -7 -14 33 -18 27
-18 -24 1 -34 -4 -51 -20 -67 -12 -12 -22 -16 -22 -10 0 6 7 13 15 17 16 6 21
46 6 46 -5 0 -11 -10 -14 -22 -6 -22 -7 -22 -39 8 -41 38 -83 64 -103 64 -8 0
-15 5 -15 10 0 6 -26 10 -57 11 l-58 1 33 14 c24 11 32 19 28 31 -4 8 -1 22 6
30 10 13 9 15 -7 12 -12 -3 -21 -14 -23 -27 -2 -12 -16 -29 -31 -36 -15 -8
-33 -21 -40 -30 -7 -8 -19 -12 -27 -9 -8 3 -14 -1 -14 -11 0 -19 -16 -21 -23
-3 -3 7 -6 5 -6 -5 -1 -19 -21 -25 -21 -7 0 8 -5 8 -15 -1 -12 -10 -15 -10
-15 4 0 9 -4 16 -10 16 -5 0 -10 -8 -10 -17 0 -12 -3 -14 -11 -6 -7 7 -22 8
-47 1 -20 -5 -48 -9 -61 -9 -14 1 -28 -5 -33 -11 -6 -10 -10 -10 -17 1 -6 9
-11 10 -15 2 -5 -8 -12 -6 -23 4 -9 9 -22 14 -31 10 -12 -4 -11 0 3 22 10 16
25 37 35 48 9 11 27 36 39 56 37 64 124 123 229 157 28 9 32 8 32 -8 0 -11 -8
-25 -18 -32 -21 -15 -47 -58 -35 -58 5 0 14 9 20 19 9 14 26 21 60 23 l48 3 7
44 c4 25 13 48 20 52 17 11 97 23 104 16 3 -3 1 -22 -5 -43 -7 -25 -7 -42 -1
-48 7 -7 10 -6 10 3 0 18 69 9 103 -13 39 -26 42 -16 7 23 -29 31 -39 69 -23
85 5 4 21 5 37 2 16 -3 39 -6 52 -6z m419 0 l20 -9 -20 0 c-11 0 -29 4 -40 9
l-20 9 20 0 c11 0 29 -4 40 -9z m-76 -16 c6 4 29 2 51 -4 33 -9 44 -8 62 5 13
8 38 14 58 14 l35 -2 -35 -6 -35 -7 33 -8 c17 -4 32 -12 32 -16 0 -5 -6 -7
-14 -4 -8 3 -17 1 -21 -5 -3 -7 2 -11 14 -11 12 0 21 -4 21 -10 0 -5 -7 -10
-16 -10 -14 0 -14 -1 0 -16 32 -31 20 -49 -41 -61 -66 -12 -73 -10 -73 19 0
26 -37 68 -60 68 -9 0 -25 7 -36 15 -10 8 -30 15 -44 15 -14 0 -32 5 -40 11
-11 8 -4 9 28 5 26 -4 41 -3 38 3 -8 12 17 21 25 8 4 -5 12 -7 18 -3z m-209
-24 c0 -16 -4 -30 -10 -30 -5 0 -8 13 -7 30 3 39 17 39 17 0z m-1710 16 c0 -2
-7 -6 -15 -10 -8 -3 -15 -1 -15 4 0 6 7 10 15 10 8 0 15 -2 15 -4z m29 -39
c-15 -12 -34 -35 -42 -52 -9 -16 -16 -23 -17 -15 0 19 57 90 73 90 7 -1 0 -11
-14 -23z m201 6 c0 -10 -26 -43 -57 -73 -31 -30 -69 -77 -86 -103 -16 -26 -32
-46 -34 -43 -3 3 9 25 26 50 28 43 30 55 5 38 -6 -4 -25 -27 -42 -51 -18 -24
-32 -38 -32 -30 -1 10 -4 9 -14 -3 -17 -23 -26 -23 -26 2 0 11 6 20 13 20 8 0
22 19 32 43 10 23 21 46 23 51 2 5 -2 6 -9 4 -8 -3 -24 -22 -36 -44 -33 -57
-28 -22 6 50 17 33 40 67 52 74 23 15 20 4 -9 -31 -8 -9 -12 -20 -8 -24 4 -5
12 1 18 12 27 47 66 71 123 73 47 2 55 0 55 -15z m1447 -45 c-3 -7 -5 -2 -5
12 0 14 2 19 5 13 2 -7 2 -19 0 -25z m290 -13 c15 -22 17 -39 3 -30 -5 3 -10
-3 -10 -13 0 -11 -6 -22 -14 -25 -12 -5 -13 -1 -4 25 11 32 1 48 -34 48 -9 0
-20 5 -23 10 -12 19 67 4 82 -15z m-137 6 c0 -6 15 -11 33 -13 l32 -3 -35 -23
c-19 -12 -39 -22 -45 -21 -5 0 -4 3 3 6 6 2 12 9 12 14 0 12 -60 4 -93 -11
-20 -9 -20 -9 -3 2 10 7 32 23 50 35 35 24 46 27 46 14z m-134 -46 c-17 -26
-21 -55 -8 -55 4 0 8 -16 9 -35 1 -30 -2 -35 -22 -35 -19 0 -23 7 -29 50 -8
57 12 100 46 100 19 0 19 -1 4 -25z m214 11 c0 -2 -8 -10 -17 -17 -16 -13 -17
-12 -4 4 13 16 21 21 21 13z m210 -40 c0 -8 -14 -17 -30 -21 -17 -4 -35 -15
-40 -26 -10 -17 -7 -19 22 -18 24 1 27 3 10 6 -29 6 -18 23 14 23 22 0 25 -4
22 -27 -3 -24 -7 -28 -30 -25 -20 3 -28 -1 -28 -12 0 -9 -4 -16 -10 -16 -20 0
-10 -19 13 -23 13 -3 7 -5 -17 -6 -33 -1 -37 1 -31 17 15 34 17 60 7 95 -10
35 -10 36 21 40 66 8 77 7 77 -7z m-333 -2 c-3 -3 -12 -4 -19 -1 -8 3 -5 6 6
6 11 1 17 -2 13 -5z m88 -50 c-62 -32 -67 -30 -14 5 24 16 47 27 52 24 5 -3
-12 -16 -38 -29z m-115 12 c0 -3 -4 -8 -10 -11 -5 -3 -10 -1 -10 4 0 6 5 11
10 11 6 0 10 -2 10 -4z m210 -10 c0 -3 -4 -8 -10 -11 -5 -3 -10 -1 -10 4 0 6
5 11 10 11 6 0 10 -2 10 -4z m-1835 -55 c-8 -17 -18 -31 -21 -31 -3 0 -4 3 -2
8 21 43 32 61 35 58 3 -2 -3 -18 -12 -35z m1856 -4 c-10 -9 -11 -8 -5 6 3 10
9 15 12 12 3 -3 0 -11 -7 -18z m-1974 -31 c-6 -17 -47 -20 -47 -3 0 9 6 17 13
20 18 6 38 -4 34 -17z m1663 10 c0 -8 -7 -16 -15 -20 -10 -4 -15 1 -15 14 0
11 7 20 15 20 8 0 15 -6 15 -14z m180 10 c0 -2 -11 -6 -25 -8 -14 -3 -25 -1
-25 3 0 5 11 9 25 9 14 0 25 -2 25 -4z m-513 -26 c25 0 29 -10 11 -28 -6 -6
-9 -14 -6 -18 4 -3 16 4 28 16 12 12 24 19 27 16 3 -3 -15 -25 -41 -49 -25
-24 -46 -47 -46 -51 0 -13 61 29 76 52 13 20 18 21 32 10 13 -11 15 -11 9 5
-3 9 -3 17 2 17 19 0 19 -15 0 -42 -23 -31 -19 -49 6 -28 9 7 15 8 15 2 0 -6
-6 -13 -12 -15 -10 -4 -10 -8 1 -15 11 -8 10 -12 -7 -21 -11 -6 -29 -11 -39
-11 -11 0 -29 -13 -41 -30 -12 -16 -45 -39 -72 -51 -28 -12 -54 -28 -59 -37
-9 -16 -99 -34 -107 -21 -2 4 6 9 18 11 19 2 22 8 20 35 -2 17 1 34 7 38 20
12 12 63 -13 82 l-23 18 41 36 c22 21 38 40 35 44 -4 3 -23 -10 -43 -29 -43
-44 -55 -46 -26 -6 33 46 151 99 175 78 5 -4 19 -8 32 -8z m307 -27 c8 -8 38
-13 91 -14 40 -1 40 -1 10 -10 -16 -5 -46 -7 -65 -4 -27 5 -42 1 -62 -14 -37
-29 -40 -26 -15 14 23 35 29 40 41 28z m454 -30 c2 -24 -1 -33 -11 -33 -8 0
-21 -7 -28 -16 -10 -12 -24 -15 -55 -10 -32 4 -44 2 -48 -9 -7 -20 -55 -19
-77 1 -15 13 -27 14 -71 6 l-53 -10 52 -1 c28 0 55 -5 58 -11 8 -12 98 -13
111 -1 11 11 114 2 114 -10 0 -12 -79 -31 -125 -30 -73 2 -133 8 -143 15 -14
8 -62 -11 -62 -25 0 -8 4 -8 14 0 9 8 28 10 50 5 80 -14 40 -44 -59 -44 -70 0
-99 -10 -126 -44 -15 -18 -32 -21 -153 -27 -75 -3 -139 -8 -142 -11 -4 -5 77
-4 253 1 12 1 39 15 59 33 33 29 42 32 122 36 71 3 90 8 102 23 12 16 31 20
90 23 41 2 87 7 102 11 l27 7 0 -81 0 -81 -60 0 c-33 0 -59 4 -59 10 0 6 16
10 35 10 47 0 45 20 -2 21 -38 1 -38 1 -8 9 l30 8 -27 1 c-15 0 -30 6 -33 12
-11 17 3 23 20 9 20 -17 75 4 57 22 -16 16 -90 0 -102 -23 -6 -10 -19 -19 -30
-19 -25 0 -36 -19 -15 -27 16 -5 16 -7 1 -15 -22 -12 -11 -28 20 -28 34 0 30
-16 -6 -23 -18 -4 -30 -13 -30 -22 0 -19 16 -20 24 0 3 8 12 15 21 15 12 0 15
-12 15 -55 0 -30 5 -55 10 -55 12 0 13 11 10 67 l-2 43 39 2 38 1 -38 4 c-53
6 -36 23 23 23 62 0 70 -13 70 -113 l0 -73 -272 -2 c-939 -7 -1450 -8 -1639
-5 l-216 4 -6 72 c-5 77 2 98 33 90 34 -9 158 27 195 57 26 21 51 30 98 35 34
4 78 11 97 16 34 8 119 57 172 98 14 12 38 21 51 21 14 0 28 4 32 9 3 5 19 12
35 16 16 4 45 17 65 30 33 23 41 24 195 23 l159 -2 -47 -44 c-60 -56 -91 -72
-153 -79 -43 -5 -53 -3 -70 16 -18 19 -30 22 -87 20 -111 -3 -164 -31 -112
-59 13 -7 20 -21 20 -40 0 -39 13 -45 100 -45 41 -1 82 -5 90 -10 8 -5 43 -10
77 -10 34 0 64 -3 67 -6 4 -3 27 -2 51 4 34 8 51 7 69 -2 17 -10 45 -11 97 -6
82 8 92 12 156 61 38 29 52 34 99 34 41 0 59 5 74 20 11 11 20 16 20 10 0 -5
15 -10 34 -10 25 0 36 5 41 19 3 10 14 26 25 36 25 23 27 50 3 40 -10 -4 -31
-10 -48 -12 -23 -3 -27 -2 -15 6 8 6 25 11 36 11 13 0 24 8 27 20 3 12 14 20
26 20 20 0 29 -14 14 -23 -5 -2 -1 -2 7 0 8 3 27 7 43 10 15 3 27 9 27 14 0 5
8 9 18 9 10 0 22 3 25 6 4 4 27 9 53 11 26 2 59 10 73 18 17 9 50 14 91 12
l65 -2 3 -32z m-623 -13 c3 -5 1 -10 -4 -10 -6 0 -11 5 -11 10 0 6 2 10 4 10
3 0 8 -4 11 -10z m15 -50 c0 -5 -4 -10 -10 -10 -5 0 -10 5 -10 10 0 6 5 10 10
10 6 0 10 -4 10 -10z m-400 -25 c0 -8 -6 -15 -12 -15 -18 0 13 -20 31 -20 8 0
11 7 8 20 -6 22 -5 23 17 14 20 -8 21 -33 1 -40 -8 -4 -15 -16 -16 -28 0 -11
-3 -15 -6 -8 -2 6 -9 12 -15 12 -11 0 -1 -40 15 -55 7 -7 8 -4 4 8 -4 9 -2 17
4 17 20 0 3 -35 -19 -38 -15 -2 -22 2 -23 15 -1 17 -2 17 -6 1 -2 -10 -9 -18
-14 -18 -5 0 -9 8 -9 18 0 13 -2 14 -9 3 -6 -9 -11 -10 -15 -2 -4 6 -15 11
-26 11 -13 0 -17 -5 -13 -20 3 -11 0 -20 -6 -20 -6 0 -11 6 -12 13 0 6 -2 27
-4 45 -2 27 2 35 19 42 11 4 34 20 49 34 31 29 57 34 57 11z m530 -23 c-1 -26
-20 -34 -63 -28 -35 5 -46 4 -50 -9 -4 -8 -18 -15 -32 -15 l-26 0 21 28 c19
26 27 29 86 30 35 1 64 -2 64 -6z m-920 -24 c0 -13 -23 -5 -28 10 -2 7 2 10
12 6 9 -3 16 -11 16 -16z m148 -20 c24 -12 29 -47 10 -66 -8 -8 -45 -12 -100
-12 -94 0 -111 9 -89 47 9 16 10 16 11 -4 0 -26 16 -29 70 -13 22 6 38 6 44 0
17 -17 36 -12 29 8 -10 27 -52 62 -76 63 -17 1 -15 3 8 9 20 4 37 2 50 -7 11
-7 30 -18 43 -25z m557 22 c-3 -5 -10 -10 -16 -10 -5 0 -9 5 -9 10 0 6 7 10
16 10 8 0 12 -4 9 -10z m-750 -10 c3 -5 2 -10 -4 -10 -5 0 -13 5 -16 10 -3 6
-2 10 4 10 5 0 13 -4 16 -10z m-293 -34 c69 -1 74 -2 52 -14 -13 -7 -77 -17
-141 -23 -64 -6 -124 -14 -132 -19 -13 -7 -10 -9 12 -10 35 0 35 -15 0 -28
-95 -37 -185 -42 -191 -10 -4 19 49 38 106 38 21 0 35 6 39 16 8 21 -13 34
-56 34 -26 0 -32 3 -24 11 18 18 121 25 193 15 36 -5 100 -10 142 -10z m408 3
c0 -5 -10 -9 -21 -9 -18 0 -19 2 -9 15 12 15 30 12 30 -6z m583 -4 c-3 -9 -8
-14 -10 -11 -3 3 -2 9 2 15 9 16 15 13 8 -4z m-451 -25 c3 -16 1 -30 -4 -30
-4 0 -8 14 -8 30 0 17 2 30 4 30 2 0 6 -13 8 -30z m48 -6 c0 -14 -4 -23 -9
-20 -5 3 -7 15 -4 26 7 28 13 25 13 -6z m1077 20 c-3 -3 -12 -4 -19 -1 -8 3
-5 6 6 6 11 1 17 -2 13 -5z m-697 -14 c3 -1 -6 -5 -20 -9 -14 -5 -24 -14 -22
-22 3 -11 1 -11 -9 -2 -25 25 10 48 51 33z m-300 -41 c0 -6 -4 -7 -10 -4 -5 3
-10 11 -10 16 0 6 5 7 10 4 6 -3 10 -11 10 -16z m917 5 c-3 -3 -12 -4 -19 -1
-8 3 -5 6 6 6 11 1 17 -2 13 -5z m0 -40 c-3 -3 -12 -4 -19 -1 -8 3 -5 6 6 6
11 1 17 -2 13 -5z"/>
<path d="M1110 3690 c0 -5 4 -10 9 -10 6 0 13 5 16 10 3 6 -1 10 -9 10 -9 0
-16 -4 -16 -10z"/>
<path d="M1110 3640 c0 -5 7 -10 15 -10 8 0 15 5 15 10 0 6 -7 10 -15 10 -8 0
-15 -4 -15 -10z"/>
<path d="M1785 2610 c-19 -8 -19 -9 3 -9 12 -1 22 4 22 9 0 6 -1 10 -2 9 -2 0
-12 -4 -23 -9z"/>
<path d="M1703 1575 c0 -44 2 -61 4 -37 2 23 2 59 0 80 -2 20 -4 1 -4 -43z"/>
<path d="M929 2448 c-3 -57 -2 -238 1 -403 l6 -300 2 403 c1 221 0 402 -2 402
-2 0 -5 -46 -7 -102z"/>
<path d="M1603 1860 c0 -25 2 -35 4 -22 2 12 2 32 0 45 -2 12 -4 2 -4 -23z"/>
<path d="M914 767 c-72 -38 -110 -65 -102 -72 3 -3 16 3 30 14 13 11 50 32 81
46 32 15 60 31 63 36 9 15 -9 9 -72 -24z"/>
<path d="M665 780 c-3 -5 -2 -10 4 -10 5 0 13 5 16 10 3 6 2 10 -4 10 -5 0
-13 -4 -16 -10z"/>
<path d="M904 693 c-43 -43 -92 -95 -109 -115 -30 -38 -65 -53 -72 -31 -2 6
18 26 44 44 50 34 63 47 63 64 0 6 -8 1 -18 -11 -9 -12 -31 -29 -49 -39 -36
-21 -58 -56 -50 -79 10 -26 37 -18 73 22 18 20 72 77 119 126 47 49 83 91 81
93 -1 2 -38 -32 -82 -74z"/>
<path d="M489 741 c-13 -11 -20 -23 -16 -27 4 -4 20 4 35 19 30 31 16 37 -19
8z"/>
<path d="M639 721 c-13 -11 -22 -22 -19 -25 3 -3 19 6 35 19 17 13 25 24 19
25 -7 0 -22 -9 -35 -19z"/>
<path d="M254 429 c-9 -15 23 -39 42 -32 16 6 10 19 -16 33 -13 7 -21 7 -26
-1z"/>
<path d="M2105 870 c-3 -5 -12 -7 -20 -3 -8 3 -15 0 -15 -6 0 -6 6 -11 14 -11
22 0 46 11 46 21 0 12 -17 12 -25 -1z"/>
<path d="M2018 863 c7 -3 16 -2 19 1 4 3 -2 6 -13 5 -11 0 -14 -3 -6 -6z"/>
<path d="M1405 420 c-22 -22 -45 -40 -52 -40 -7 0 -13 -5 -13 -11 0 -8 -4 -8
-14 0 -11 9 -15 7 -19 -10 -3 -12 -10 -18 -16 -14 -6 3 -11 1 -11 -6 0 -8 -4
-8 -15 1 -16 13 -18 6 -7 -22 6 -16 14 -13 67 23 61 41 131 107 123 114 -2 3
-22 -13 -43 -35z"/>
<path d="M2075 180 c4 -6 11 -8 16 -5 14 9 11 15 -7 15 -8 0 -12 -5 -9 -10z"/>
</g>
</svg>
