<?xml version="1.0" standalone="no"?>
<!DOCTYPE svg PUBLIC "-//W3C//DTD SVG 20010904//EN"
 "http://www.w3.org/TR/2001/REC-SVG-20010904/DTD/svg10.dtd">
<svg version="1.0" xmlns="http://www.w3.org/2000/svg"
 width="221.000000pt" height="383.000000pt" viewBox="0 0 221.000000 383.000000"
 preserveAspectRatio="xMidYMid meet">
<metadata>
Created by potrace 1.16, written by Peter Selinger 2001-2019
</metadata>
<g transform="translate(0.000000,383.000000) scale(0.100000,-0.100000)"
fill="#000000" stroke="none">
<path d="M125 3810 l-110 -5 1 -205 c3 -443 7 -724 11 -712 3 6 8 10 12 8 4
-3 8 1 8 9 0 8 -4 15 -9 15 -19 0 -6 45 22 77 17 19 44 63 62 99 28 57 48 80
48 55 0 -23 -55 -129 -86 -164 -19 -23 -34 -45 -34 -51 1 -11 17 7 53 59 22
31 34 27 17 -5 -6 -12 -9 -24 -7 -27 3 -2 17 23 32 56 30 66 47 85 85 95 l25
7 -22 -18 c-32 -27 -86 -121 -79 -139 3 -8 10 -12 16 -9 6 4 7 11 4 17 -4 6
-2 8 3 5 11 -7 47 38 48 58 0 6 5 10 10 10 24 1 34 16 25 40 -8 20 -4 28 21
49 17 15 43 26 58 26 32 0 81 34 81 56 0 8 7 14 15 14 13 0 14 -4 4 -22 -9
-16 -3 -13 18 10 28 29 53 41 53 26 0 -3 -14 -24 -31 -45 -25 -32 -34 -37 -45
-28 -11 9 -18 8 -30 -2 -9 -8 -35 -21 -57 -29 -44 -16 -57 -34 -32 -44 9 -3
14 -2 11 3 -7 11 22 36 31 27 3 -3 1 -6 -5 -6 -7 0 -12 -8 -12 -19 0 -19 -23
-45 -32 -36 -2 3 -18 -10 -34 -28 -28 -31 -28 -31 -1 -8 15 14 27 22 27 19 0
-4 -16 -36 -35 -73 l-36 -67 31 -34 c16 -19 30 -41 30 -49 0 -8 16 -33 36 -54
31 -35 59 -111 40 -111 -3 0 -24 11 -46 25 -22 14 -52 24 -67 24 -23 -1 -24
-2 -6 -6 23 -5 24 -12 4 -98 -4 -16 -4 -48 -1 -70 5 -36 6 -33 14 34 13 127
25 126 24 -4 -2 -137 0 -146 27 -160 28 -15 26 -55 -4 -67 -20 -7 -22 -6 -12
6 9 11 8 14 -6 12 -13 -1 -18 6 -18 26 1 14 -3 24 -8 21 -5 -3 -6 -21 -2 -39
5 -27 3 -34 -10 -34 -14 0 -18 22 -19 108 0 12 -4 22 -9 22 -18 0 -47 -21 -47
-35 0 -17 -16 -20 -25 -5 -8 14 -45 13 -45 -1 0 -16 40 -49 59 -49 11 0 12 -3
4 -11 -15 -15 -51 -2 -79 28 -14 15 -28 22 -35 17 -9 -5 -6 -10 9 -15 17 -7
22 -17 22 -44 0 -22 -4 -34 -10 -30 -6 4 -8 11 -5 16 4 5 1 9 -4 9 -6 0 -11 7
-11 15 0 9 -6 12 -15 9 -12 -5 -15 3 -15 36 0 38 2 41 22 34 19 -6 21 -4 11 7
-16 20 -28 109 -14 109 6 0 11 -15 11 -32 0 -18 4 -39 9 -46 5 -8 8 28 7 87 0
56 -2 101 -4 101 -2 0 -9 -15 -17 -32 l-14 -33 -1 50 c0 28 6 57 12 64 10 10
10 15 1 18 -8 3 -7 11 3 31 24 46 12 99 -13 60 -5 -9 -10 -1 -14 22 -6 32 -9
-192 -12 -770 -1 -188 6 -431 12 -460 1 -3 8 3 16 13 9 13 20 17 34 12 14 -4
21 -2 21 6 0 8 3 9 9 3 17 -17 21 -147 6 -168 -8 -10 -17 -39 -21 -63 -5 -37
-3 -50 15 -73 29 -39 28 -93 -1 -114 l-23 -16 25 9 c30 10 38 26 84 166 33
102 50 222 26 185 -5 -8 -10 -32 -10 -52 0 -20 -5 -40 -10 -43 -19 -11 -60
-84 -60 -104 0 -32 -17 -33 -28 -3 -12 35 6 93 41 131 30 31 57 83 57 108 0
14 2 15 9 5 6 -10 10 -8 14 10 10 36 8 78 -4 78 -6 0 -9 15 -7 35 2 20 7 35
13 34 12 -1 26 36 32 86 2 22 8 44 12 50 4 5 16 39 25 75 22 79 37 97 93 112
25 6 43 16 43 24 0 8 7 14 15 14 8 0 15 -6 15 -14 0 -8 3 -22 7 -32 5 -13 3
-15 -7 -9 -8 5 -11 4 -7 -1 3 -5 18 -11 34 -12 25 -2 29 1 28 25 0 18 6 29 18
31 13 3 17 -3 17 -25 0 -21 8 -32 30 -45 23 -13 30 -24 30 -47 0 -25 -8 -36
-40 -56 -28 -18 -42 -35 -47 -56 -7 -35 -22 -47 -34 -28 -13 22 -11 55 6 69 8
7 15 16 15 21 0 4 -12 -3 -26 -16 -23 -22 -25 -28 -17 -62 8 -33 14 -40 58
-56 68 -25 83 -40 122 -127 18 -41 38 -84 43 -95 5 -11 11 -30 15 -41 7 -26
255 -195 255 -174 0 5 -16 16 -35 24 -19 8 -35 18 -35 21 0 3 9 1 21 -6 21
-11 79 -9 109 4 10 5 20 -3 30 -26 20 -42 91 -88 145 -94 51 -6 155 36 186 75
29 37 42 98 30 134 -10 29 -10 30 14 24 13 -3 43 0 67 8 23 9 44 14 46 12 3
-3 -55 -135 -83 -186 -7 -14 -22 -29 -34 -35 -12 -5 -21 -13 -21 -17 0 -5 -10
-18 -21 -29 -16 -16 -18 -23 -9 -29 8 -5 10 -17 6 -33 -10 -40 2 -58 33 -51
38 10 49 21 81 83 16 31 41 71 57 89 l28 34 1 -109 c0 -76 10 -157 32 -273 17
-91 33 -189 36 -219 l5 -53 -52 6 c-74 10 -200 75 -284 146 -40 34 -73 66 -73
72 0 5 -49 58 -109 118 -92 92 -112 108 -132 103 -38 -9 -47 -20 -104 -132
-44 -87 -69 -120 -133 -184 -60 -60 -86 -79 -115 -84 -33 -5 -37 -3 -43 22 -4
17 4 79 20 159 49 238 51 374 7 492 -12 30 -21 57 -21 59 0 3 16 -12 35 -34
27 -30 54 -45 116 -67 70 -24 83 -33 99 -64 30 -58 58 -77 111 -72 26 3 30 28
7 49 -12 10 -18 12 -14 6 9 -17 -6 -17 -23 -1 -9 8 -11 8 -8 2 4 -7 1 -14 -6
-17 -14 -5 -42 21 -70 65 -9 15 -30 31 -45 34 -90 22 -157 70 -198 141 -16 29
-17 37 -5 68 11 31 10 39 -3 60 -9 14 -19 25 -21 25 -3 0 2 -11 11 -25 14 -21
15 -31 6 -50 -7 -14 -19 -25 -27 -25 -15 0 -15 -1 -1 -16 9 -8 16 -30 16 -48
0 -19 7 -53 16 -77 49 -140 50 -248 5 -473 -23 -115 -28 -159 -24 -227 4 -67
1 -99 -16 -160 -11 -41 -21 -94 -21 -116 0 -38 3 -42 35 -53 33 -11 49 -39 23
-41 -7 0 -4 -4 7 -9 13 -6 15 -9 5 -9 -8 0 -35 8 -59 19 -24 11 -49 20 -57 20
-11 0 -12 12 -8 53 6 55 8 136 5 202 -1 22 3 144 10 270 9 189 15 237 30 268
11 20 15 37 9 37 -6 0 -13 -7 -16 -15 -8 -20 -21 -19 -51 5 -14 11 -31 20 -37
20 -6 0 2 -10 17 -23 41 -33 49 -81 37 -222 -14 -150 -38 -308 -57 -360 -7
-21 -16 -72 -20 -113 -5 -59 -10 -75 -26 -84 -11 -6 -31 -23 -45 -39 -13 -16
-28 -29 -34 -29 -6 0 -4 7 3 17 12 15 12 16 -7 11 -35 -9 -22 28 25 71 39 36
43 44 38 73 -19 104 -19 158 -2 213 17 53 17 61 1 148 -9 51 -23 121 -32 157
-22 92 -28 177 -14 230 23 89 27 138 14 187 -19 69 -18 73 15 73 18 0 41 10
58 26 l28 26 -29 -21 c-16 -12 -39 -21 -52 -21 -28 0 -57 39 -48 66 5 16 4 16
-5 4 -6 -8 -9 -31 -5 -51 11 -73 -93 -327 -164 -397 -21 -21 -23 -32 -21 -96
1 -55 -2 -79 -15 -97 -22 -32 -20 -86 4 -132 11 -21 20 -56 20 -80 0 -42 -1
-44 -40 -56 -22 -7 -45 -9 -50 -6 -6 4 -10 87 -10 207 0 111 -2 199 -5 196 -3
-3 -8 -135 -11 -294 -4 -162 -2 -285 2 -281 5 5 9 21 10 35 0 15 1 48 2 74 l2
46 51 7 c27 4 52 5 54 3 3 -2 5 -35 6 -72 1 -61 -1 -70 -27 -97 -37 -39 -71
-47 -89 -23 -11 16 -13 -6 -14 -161 -1 -99 -4 -219 -7 -266 l-7 -87 33 -7 c27
-6 1061 3 1160 10 14 1 186 3 383 3 250 2 357 5 357 13 0 8 -209 9 -748 3
-898 -10 -1139 -10 -1148 -2 -9 9 -15 186 -9 229 l6 36 552 7 c1532 19 1587
19 1588 5 0 -8 0 -61 0 -119 -1 -58 3 -121 9 -140 6 -23 7 641 4 1860 -4 1439
-8 1896 -17 1902 -13 8 -1878 7 -2052 -2z m325 -25 c0 -19 -10 -21 -210 -39
-221 -21 -210 -22 -210 13 0 20 6 31 18 34 9 3 104 5 210 6 163 1 192 -1 192
-14z m1251 -2 c1 -10 0 -22 -1 -28 -2 -5 -7 -34 -12 -62 -20 -123 -90 -251
-188 -343 l-59 -55 60 -87 c36 -53 57 -93 53 -102 -10 -26 -18 -19 -59 51 -21
36 -41 61 -43 55 -2 -7 13 -38 32 -71 34 -56 45 -91 28 -91 -4 0 -21 25 -37
55 -43 80 -52 68 -10 -14 22 -45 31 -72 24 -76 -13 -9 -11 -10 -42 50 -31 59
-36 40 -6 -24 11 -25 17 -52 13 -60 -5 -12 -13 -2 -30 34 -25 55 -33 39 -9
-19 8 -20 11 -36 6 -36 -5 0 -15 16 -22 35 -7 19 -17 35 -21 35 -11 0 -10 -5
7 -47 18 -43 18 -43 2 -43 -8 0 -19 18 -26 40 -6 22 -16 40 -21 40 -5 0 -3
-19 5 -41 19 -52 19 -59 0 -59 -8 0 -17 14 -21 35 -3 19 -11 38 -16 41 -7 4
-7 -6 -3 -27 11 -48 11 -53 0 -59 -5 -3 -14 14 -20 38 -12 50 -26 47 -18 -4 5
-28 3 -33 -9 -29 -9 4 -20 21 -26 38 l-10 32 -1 -32 c-1 -48 -21 -41 -21 7 0
37 2 40 28 41 24 2 24 2 4 6 l-23 5 25 25 c14 14 26 30 26 34 0 5 15 15 34 23
19 8 37 23 40 34 4 11 18 28 32 37 14 9 23 22 21 28 -2 7 4 23 14 38 27 38 9
56 -25 24 -16 -14 -41 -29 -57 -32 -24 -5 -29 -2 -29 15 0 21 18 32 55 32 12
0 29 8 36 17 12 14 12 16 -1 11 -9 -3 -24 0 -34 7 -15 11 -15 16 -4 35 11 18
11 22 -4 31 -10 6 -18 16 -18 24 0 21 -15 26 -42 15 l-23 -11 23 5 c19 4 22 1
17 -15 -5 -15 -1 -19 14 -19 12 0 21 -4 21 -10 0 -5 -4 -10 -9 -10 -14 0 0
-43 18 -57 14 -11 14 -12 -1 -13 -33 0 -66 -22 -61 -39 3 -11 -5 -21 -24 -28
-15 -7 -19 -10 -7 -7 18 4 21 0 22 -26 0 -17 -4 -30 -11 -30 -14 0 -53 41 -49
53 3 10 -26 9 -33 -2 -3 -5 4 -12 15 -16 11 -3 25 -15 30 -26 20 -37 64 -19
65 26 0 15 8 21 30 23 17 2 41 15 54 28 28 31 39 25 16 -9 -8 -14 -15 -29 -14
-33 4 -13 -76 -94 -91 -94 -9 0 -6 8 8 23 12 13 22 28 22 35 0 6 8 16 18 21
14 9 14 10 1 11 -8 0 -22 -15 -30 -32 -11 -25 -20 -33 -41 -33 -15 -1 -30 -4
-34 -8 -4 -4 0 -7 9 -7 9 0 17 -4 17 -10 0 -5 -9 -10 -20 -10 -15 0 -20 -7
-21 -27 0 -16 -10 -48 -22 -73 -17 -34 -30 -47 -56 -54 -32 -9 -36 -7 -77 36
-24 25 -46 59 -49 74 -4 16 -9 36 -12 44 -4 8 -7 20 -7 25 -1 6 -21 11 -46 11
-39 1 -40 1 -7 -3 23 -3 37 -9 37 -19 0 -8 -4 -14 -10 -14 -18 0 -10 -27 15
-52 22 -22 23 -27 9 -32 -8 -3 -25 -4 -37 -1 -20 5 -22 2 -24 -46 -2 -55 -11
-73 -30 -61 -10 6 -10 17 -3 42 12 43 13 60 1 60 -5 0 -12 -20 -15 -45 -6 -36
-11 -45 -27 -45 -20 0 -20 18 2 78 11 30 11 45 0 38 -4 -3 -14 -26 -21 -51 -7
-25 -17 -48 -21 -51 -7 -4 -89 15 -89 21 0 1 14 35 30 75 38 93 31 104 -10 14
-28 -62 -31 -66 -44 -48 -12 16 -9 28 31 107 24 49 42 91 39 94 -3 3 -24 -33
-48 -80 -33 -67 -45 -84 -55 -75 -21 17 -16 29 43 127 31 51 54 94 51 97 -2 2
-28 -36 -58 -86 -54 -90 -71 -105 -83 -73 -5 11 12 44 50 100 31 46 60 83 63
83 4 0 17 -7 29 -16 12 -8 28 -14 35 -11 6 2 -2 11 -20 20 -63 33 -152 117
-201 190 -58 88 -91 176 -99 270 l-6 67 617 0 c580 0 616 -1 617 -17z m469 -9
l0 -27 -102 6 c-57 4 -160 10 -230 13 -98 5 -128 10 -128 20 0 11 43 14 230
14 l230 0 0 -26z m-30 -42 c22 1 30 -6 30 -28 l0 -27 -67 6 c-162 15 -393 51
-393 61 0 8 59 8 213 -1 116 -6 214 -11 217 -11z m-1690 1 c0 -15 -29 -23
-203 -51 -111 -19 -204 -36 -206 -38 -14 -14 18 -14 86 -1 43 9 121 23 173 32
52 8 110 18 128 21 27 4 32 2 32 -15 0 -11 -8 -22 -17 -25 -10 -2 -97 -26
-193 -51 -96 -26 -182 -49 -191 -51 -12 -3 -18 4 -23 27 -6 30 -9 128 -3 130
10 3 350 37 380 38 29 1 37 -3 37 -16z m1703 -73 c15 0 18 -7 15 -32 -2 -18
-7 -32 -13 -32 -5 1 -90 18 -189 38 -98 21 -183 35 -189 33 -14 -4 49 -20 213
-52 74 -15 145 -29 158 -32 17 -4 22 -12 22 -35 0 -26 -3 -30 -22 -25 -236 61
-448 124 -448 135 0 7 14 12 33 13 l32 1 -32 9 c-31 9 -40 19 -28 31 3 2 101
-8 218 -23 116 -16 220 -28 230 -29z m-1679 -35 c4 -10 -2 -19 -17 -25 -38
-15 -415 -150 -421 -150 -3 0 -5 18 -4 40 0 39 1 39 52 53 28 8 116 33 196 55
163 45 185 49 194 27z m1450 -55 c116 -34 219 -63 229 -66 11 -4 17 -15 17
-35 0 -16 -2 -29 -4 -29 -7 0 -481 162 -485 166 -6 5 10 24 21 24 6 0 106 -27
222 -60z m-1429 -1 c4 -11 5 -21 3 -23 -1 -1 -46 -22 -98 -46 -52 -24 -150
-70 -218 -102 -68 -32 -130 -58 -138 -58 -10 0 -14 13 -14 44 l0 44 93 36
c129 50 339 125 354 125 6 1 15 -8 18 -20z m1345 -35 c85 -30 182 -64 215 -75
112 -37 115 -39 115 -70 0 -16 -5 -29 -11 -29 -28 0 -489 205 -489 217 0 7 3
13 8 13 4 0 77 -25 162 -56z m7 -61 c84 -37 151 -68 150 -69 -1 -1 -36 4 -77
11 -51 8 -102 26 -160 55 -99 50 -112 59 -104 72 7 11 3 13 191 -69z m-1332
37 c0 -14 -70 -59 -195 -125 -36 -20 -94 -54 -130 -76 -36 -23 -82 -50 -103
-61 -22 -11 -37 -22 -34 -25 3 -2 15 1 27 7 21 11 21 11 3 -17 -9 -15 -22 -31
-28 -35 -7 -5 -6 -8 1 -8 13 0 94 85 94 98 0 5 14 9 30 10 42 1 71 12 64 23
-3 6 4 13 16 16 12 3 17 9 12 12 -15 9 245 154 263 147 26 -9 17 -19 -63 -74
-55 -37 -87 -52 -112 -53 -19 0 -44 -4 -55 -9 -29 -12 92 -1 138 12 34 10 40
9 62 -12 15 -14 32 -48 41 -80 34 -124 47 -154 99 -231 30 -45 55 -84 55 -88
0 -7 107 -41 129 -41 7 0 10 -4 6 -9 -3 -6 9 -7 30 -4 23 4 35 2 35 -6 0 -6
-10 -11 -22 -11 -18 0 -20 -2 -9 -9 12 -8 12 -12 -2 -26 -10 -9 -17 -14 -17
-11 0 3 -9 -3 -20 -14 -22 -22 -40 -26 -40 -10 0 6 -4 10 -9 10 -5 0 -7 -10
-4 -22 5 -23 5 -23 -11 -3 -13 16 -15 17 -10 3 8 -23 -12 -24 -20 -2 -8 20 2
56 18 66 6 4 29 5 51 3 l40 -5 -35 10 c-19 5 -42 7 -50 4 -8 -3 -26 -8 -40
-10 -24 -5 -24 -5 -6 15 23 25 14 27 -19 5 -21 -14 -25 -14 -43 2 -11 9 -18
24 -15 32 5 12 2 12 -15 3 -33 -17 -44 -13 -22 9 19 19 28 46 13 38 -5 -2 -20
-10 -35 -17 -28 -14 -83 -7 -73 9 4 6 -7 7 -26 3 -26 -5 -31 -3 -24 8 5 8 -1
6 -13 -5 -17 -15 -19 -21 -9 -37 12 -19 12 -19 29 1 15 19 18 19 52 5 20 -9
36 -19 36 -24 0 -5 15 -12 34 -15 19 -4 39 -13 45 -20 6 -8 25 -16 42 -20 22
-4 29 -10 26 -20 -4 -11 -1 -13 10 -9 11 5 14 3 9 -6 -5 -7 -17 -11 -27 -8
-10 3 -21 1 -25 -4 -3 -5 -11 -3 -19 4 -8 7 -10 16 -4 23 6 8 2 14 -13 18 -17
4 -28 -1 -40 -16 -9 -13 -15 -25 -13 -28 2 -3 -5 -6 -16 -6 -24 0 -24 8 0 23
22 14 37 57 16 49 -8 -3 -15 0 -17 5 -2 6 -14 -4 -27 -21 -23 -31 -23 -32 -1
-20 12 6 24 9 28 6 7 -8 -27 -34 -56 -42 -29 -8 -65 22 -58 50 8 32 -14 2 -28
-37 -11 -33 -13 -34 -24 -16 -10 15 -10 19 1 19 8 0 14 6 14 13 0 6 4 21 9 32
7 18 6 18 -9 6 -9 -7 -17 -19 -17 -26 0 -7 -7 -18 -15 -25 -12 -10 -15 -9 -15
4 0 10 5 27 11 39 7 15 2 13 -15 -8 -21 -24 -26 -26 -26 -12 0 19 27 77 36 77
3 0 12 -7 21 -15 8 -8 19 -13 24 -10 5 4 9 1 9 -5 0 -8 9 -10 23 -6 21 5 23 3
19 -24 -4 -26 -1 -30 19 -30 22 0 22 1 4 14 -18 13 -18 15 9 38 l28 24 -56 0
c-33 0 -61 5 -68 13 -11 11 -9 12 12 6 24 -7 24 -7 5 8 -19 14 -19 16 -2 34
25 29 21 34 -23 27 -53 -9 -53 10 0 24 43 11 90 -2 90 -24 0 -7 12 -15 26 -18
31 -8 45 0 19 10 -15 6 -15 9 6 21 l24 14 -27 -5 c-14 -3 -37 -2 -50 3 -13 6
-17 10 -10 10 8 1 10 6 5 14 -13 22 -11 35 8 53 10 9 16 21 13 25 -3 5 2 6 11
2 15 -5 14 -9 -7 -27 -13 -12 -19 -18 -14 -13 6 4 19 7 31 7 20 -1 20 -1 0
-16 -20 -16 -20 -16 3 -9 13 4 22 2 22 -5 0 -6 -10 -15 -22 -20 -13 -5 -17 -9
-10 -9 7 -1 29 6 50 15 36 15 36 16 17 30 -17 13 -18 16 -5 25 11 7 7 8 -14 3
-25 -6 -28 -4 -23 10 4 9 2 16 -4 16 -6 0 -9 7 -5 15 3 8 0 15 -6 15 -7 0 -6
5 2 15 24 29 -4 14 -33 -17 -17 -18 -27 -25 -24 -15 8 20 -11 23 -19 3 -3 -8
-12 -17 -19 -20 -22 -8 -7 21 20 38 16 10 25 12 27 5 2 -6 17 6 32 27 16 22
23 33 16 27 -25 -23 -32 -14 -11 13 19 24 31 67 14 51 -3 -4 -12 -2 -18 3 -9
7 -17 3 -29 -15 -21 -32 -61 -33 -77 -3 -12 23 -7 30 47 65 11 7 -4 2 -32 -10
-29 -12 -48 -24 -43 -25 22 -9 -6 -22 -46 -22 -24 0 -47 -5 -50 -10 -3 -6 -16
-8 -29 -4 -37 9 -75 -13 -147 -86 -38 -39 -69 -67 -69 -62 0 4 5 13 12 20 8 8
9 12 1 12 -7 0 -11 31 -12 90 0 50 4 90 9 90 6 0 67 27 136 60 69 33 127 60
129 60 1 0 45 20 96 45 96 45 114 49 114 25z m1202 -30 c32 -17 58 -35 58 -41
0 -16 88 -49 100 -38 16 12 134 -15 198 -46 31 -14 67 -41 82 -61 l28 -36 -24
7 c-13 4 -33 16 -45 26 -17 16 -91 59 -101 59 -2 0 -3 -7 -3 -15 0 -21 -17
-19 -30 5 -6 11 -25 27 -42 36 -25 13 -32 13 -39 3 -6 -11 -20 -9 -68 8 -34
12 -61 18 -61 13 0 -5 18 -14 40 -20 33 -9 40 -15 40 -35 0 -24 -3 -25 -62
-25 -52 -1 -68 -5 -93 -25 l-30 -25 33 -6 c40 -8 43 -34 6 -63 -23 -18 -24
-21 -8 -22 14 0 11 -4 -11 -14 -24 -11 -26 -14 -10 -16 17 -1 16 -2 -5 -9
l-25 -8 24 -1 c20 -1 21 -3 11 -16 -10 -12 -9 -15 8 -15 11 0 22 5 24 12 3 7
11 9 24 3 18 -7 17 -8 -5 -14 -36 -10 -39 -31 -4 -31 20 0 24 -3 14 -9 -8 -5
-20 -7 -28 -4 -9 3 -16 -3 -20 -15 -4 -18 -7 -19 -19 -7 -9 8 -22 11 -32 7
-16 -6 -16 -7 1 -10 30 -6 18 -19 -15 -15 -18 2 -27 0 -20 -3 21 -10 13 -24
-13 -24 -33 0 -32 -18 2 -22 46 -5 40 -28 -6 -24 -23 2 -41 0 -41 -5 0 -5 5
-9 10 -9 6 0 10 -11 10 -25 0 -34 -28 -33 -56 3 -22 26 -23 26 -37 8 -9 -13
-26 -19 -55 -19 -23 0 -39 -4 -36 -8 3 -5 -4 -9 -15 -9 -12 0 -21 -7 -21 -16
0 -8 4 -13 9 -9 6 3 8 -12 6 -35 -2 -22 0 -40 4 -40 12 0 31 -48 31 -77 0 -26
-1 -26 -15 -7 -15 18 -15 18 -9 -7 9 -40 -15 -185 -42 -257 -30 -79 -30 -81
-1 -51 13 13 21 29 19 35 -2 6 4 14 12 17 10 4 13 13 9 23 -4 12 -3 15 5 10 7
-4 12 -2 12 3 0 6 -4 11 -9 11 -4 0 -6 11 -3 25 2 14 11 25 21 25 12 0 13 2 3
9 -8 4 -12 19 -10 32 2 19 8 23 27 21 14 -2 21 0 17 6 -4 6 -2 13 4 17 15 9
12 25 -5 25 -8 0 -15 -7 -15 -15 0 -8 -7 -15 -15 -15 -12 0 -12 5 3 34 9 19
20 32 25 29 4 -2 7 1 7 6 0 6 -5 11 -11 11 -8 0 -8 5 1 15 7 9 8 15 2 15 -5 0
-8 9 -5 20 3 11 1 20 -5 20 -14 0 -23 40 -9 40 7 0 4 5 -5 11 -22 12 -23 39
-2 39 8 0 12 5 9 10 -6 9 8 14 29 11 4 -1 14 3 21 9 9 8 14 6 19 -5 4 -11 -1
-15 -19 -15 -43 0 -37 -19 9 -31 25 -6 47 -16 49 -23 7 -17 -9 -164 -22 -214
-9 -32 -15 -40 -29 -36 -13 5 -14 4 -3 -4 11 -8 6 -25 -28 -94 -22 -47 -41
-91 -41 -97 0 -7 -9 -30 -21 -52 -18 -35 -23 -40 -47 -35 -18 4 -37 -1 -57
-14 -16 -11 -40 -20 -52 -20 -19 0 -23 6 -23 29 0 30 42 125 60 136 6 3 10 19
10 36 0 29 13 39 25 19 3 -5 11 -10 17 -10 7 0 6 6 -2 15 -7 8 -21 15 -31 15
-11 0 -19 5 -19 11 0 7 12 8 33 4 26 -6 30 -5 19 6 -7 7 -31 14 -55 15 -23 1
-52 6 -65 11 -23 9 -23 9 -5 33 11 14 18 35 17 48 -1 12 3 22 8 22 5 0 7 4 3
9 -3 5 -1 12 5 16 6 4 8 11 4 16 -3 6 2 19 11 29 9 10 17 24 19 32 2 15 25 56
26 46 0 -4 -5 -19 -10 -34 -13 -32 -4 -64 17 -64 12 0 13 -3 4 -14 -9 -11 -9
-15 1 -19 8 -3 5 -6 -6 -6 -11 -1 -16 -4 -13 -8 4 -3 1 -13 -6 -21 -10 -13 -8
-14 18 -8 16 4 31 9 33 11 2 2 6 65 9 141 5 102 3 135 -5 130 -7 -4 -12 -2
-12 3 0 6 5 11 12 11 6 0 39 13 72 29 113 53 190 167 221 325 17 89 34 122 73
138 15 6 38 15 51 22 l23 11 -30 6 c-24 5 -56 22 -101 55 -5 4 10 24 19 24 5
0 35 -14 67 -30z m-48 -37 c42 -25 44 -27 24 -36 -17 -7 -29 -4 -52 12 -17 13
-31 29 -31 37 0 19 6 18 59 -13z m-1118 -45 c-28 -25 -81 -39 -81 -20 0 14 83
60 98 54 12 -4 8 -12 -17 -34z m1078 11 c18 -14 21 -23 13 -31 -8 -8 -18 -6
-36 6 -15 9 -26 12 -26 6 0 -5 9 -15 20 -22 11 -7 20 -20 20 -28 0 -9 -11 -3
-32 17 -31 32 -31 33 -13 53 22 24 24 24 54 -1z m-1029 -19 c0 -6 -12 -22 -27
-35 -16 -13 -25 -26 -22 -30 4 -3 21 6 38 21 23 19 35 24 43 16 8 -8 0 -23
-30 -54 -37 -37 -42 -40 -47 -22 -4 10 -12 30 -20 44 -12 22 -11 26 18 47 34
25 47 29 47 13z m1008 -77 c2 -1 1 -7 -3 -13 -5 -8 -18 -1 -41 21 -42 40 -33
61 10 22 17 -15 32 -29 34 -30z m347 16 c6 -6 -4 -7 -25 -3 -19 4 -39 11 -45
16 -7 7 2 8 25 3 19 -4 39 -11 45 -16z m205 6 c20 -24 6 -28 -15 -5 -10 11
-13 20 -8 20 6 0 16 -7 23 -15z m-1529 -70 c-45 -59 -61 -68 -61 -33 0 28 80
112 94 98 6 -6 -6 -30 -33 -65z m931 33 c25 -31 33 -49 29 -65 -5 -21 -10 -18
-49 33 -38 49 -46 74 -23 74 5 0 24 -19 43 -42z m388 -8 c25 -35 25 -38 -2
-42 -26 -4 -88 22 -107 46 -17 20 -2 20 23 1 11 -8 27 -15 35 -15 10 1 5 7
-11 16 -38 20 -35 31 7 26 24 -3 41 -13 55 -32z m150 -45 c8 -29 25 -56 48
-76 l34 -31 -27 4 c-21 2 -33 13 -49 45 -24 48 -31 52 -40 21 -9 -35 -23 -10
-31 55 l-7 58 30 -15 c21 -11 33 -27 42 -61z m-1880 55 c0 -5 -8 -10 -17 -10
-15 0 -16 2 -3 10 19 12 20 12 20 0z m485 0 c3 -5 -17 -44 -46 -86 -48 -71
-53 -76 -65 -59 -16 21 -8 37 55 113 36 44 46 49 56 32z m829 -54 c46 -58 54
-80 37 -91 -11 -6 -112 135 -104 148 8 14 20 4 67 -57z m246 54 c-20 -13 -33
-13 -25 0 3 6 14 10 23 10 15 0 15 -2 2 -10z m37 -10 c-1 -12 -8 -20 -19 -20
-9 0 -19 -4 -22 -9 -3 -4 7 -6 22 -4 22 4 24 2 12 -7 -12 -9 -8 -11 20 -7 19
3 29 3 21 0 -11 -5 -11 -7 0 -14 10 -6 3 -12 -23 -23 -48 -20 -66 -12 -74 31
-7 37 4 53 39 53 9 0 17 5 17 10 0 6 2 10 4 10 3 0 4 -9 3 -20z m-107 -10 c0
-5 -5 -10 -11 -10 -5 0 -7 5 -4 10 3 6 8 10 11 10 2 0 4 -4 4 -10z m-1310 -50
c16 0 12 -18 -11 -41 -14 -14 -24 -17 -33 -10 -7 6 -17 6 -26 1 -19 -12 -31
-3 -23 17 4 11 2 14 -8 11 -8 -3 -16 -18 -19 -33 -4 -23 -14 -33 -43 -44 -59
-22 -68 -4 -29 58 l31 51 -50 -37 c-52 -40 -104 -107 -94 -123 8 -12 -16 -47
-46 -68 -22 -15 -22 -15 -16 20 6 40 82 145 132 183 24 19 48 26 94 29 36 3
61 0 61 -6 0 -5 12 -1 28 10 26 20 27 20 34 1 4 -10 12 -19 18 -19z m1727 -2
c-3 -8 -6 -5 -6 6 -1 11 2 17 5 13 3 -3 4 -12 1 -19z m-157 -3 c7 -8 8 -15 2
-15 -5 0 -15 7 -22 15 -7 8 -8 15 -2 15 5 0 15 -7 22 -15z m-94 -50 c-9 -14
-21 -25 -27 -25 -5 0 0 13 12 30 27 35 39 32 15 -5z m-55 5 c-25 -21 -44 -24
-76 -10 -16 7 -12 9 20 9 22 1 47 6 55 11 25 16 26 10 1 -10z m184 -74 c7 -94
-18 -53 -39 64 l-6 35 20 -21 c15 -14 22 -37 25 -78z m-1823 62 c-7 -7 -12 -8
-12 -2 0 14 12 26 19 19 2 -3 -1 -11 -7 -17z m1848 9 c0 -7 11 -29 25 -50 26
-37 21 -52 -7 -19 -20 23 -40 82 -27 82 5 0 9 -6 9 -13z m-115 -17 c-3 -5 0
-12 6 -15 5 -4 8 -13 5 -21 -3 -8 1 -14 10 -14 24 0 -1 -37 -31 -44 -14 -4
-23 -11 -20 -16 3 -5 12 -7 20 -3 29 11 15 -27 -17 -47 -29 -17 -30 -20 -11
-20 12 0 25 -4 28 -10 3 -5 -2 -10 -12 -10 -10 0 -26 -9 -36 -20 -9 -11 -26
-20 -37 -20 -11 0 -20 -5 -20 -11 0 -7 10 -9 25 -5 35 9 32 -10 -5 -29 -33
-17 -86 -20 -95 -5 -3 6 -1 10 4 10 14 0 51 37 51 50 0 6 -10 10 -22 10 -19 0
-20 -2 -8 -10 13 -9 12 -13 -9 -30 -26 -22 -80 -26 -112 -9 -17 8 -23 7 -35
-8 -15 -20 -19 -7 -5 16 6 9 20 12 41 9 18 -3 49 1 69 8 32 12 33 13 11 15
l-25 1 25 8 25 8 -27 1 c-32 1 -58 10 -58 21 0 5 9 6 20 3 26 -7 65 3 84 22
12 13 20 14 36 5 22 -12 50 1 50 23 0 5 11 25 26 44 14 18 22 33 18 33 -4 0 0
8 9 18 10 11 14 26 10 41 -4 17 -3 22 6 17 6 -4 9 -11 6 -16z m32 -2 c-3 -8
-6 -5 -6 6 -1 11 2 17 5 13 3 -3 4 -12 1 -19z m-1527 -2 c0 -11 -46 -84 -72
-114 -40 -47 -68 -106 -61 -131 3 -13 1 -21 -7 -21 -7 0 -10 7 -5 18 5 14 4
15 -6 5 -25 -24 -27 -13 -7 30 50 103 158 249 158 213z m1345 -6 c18 -8 17 -9
-7 -9 -15 -1 -30 4 -33 9 -7 12 12 12 40 0z m96 -20 c-24 -21 -85 -27 -96 -11
-3 6 11 13 32 16 21 4 45 8 53 10 32 6 34 4 11 -15z m237 -15 c-3 -3 -9 2 -12
12 -6 14 -5 15 5 6 7 -7 10 -15 7 -18z m68 -12 c-7 -7 -26 7 -26 19 0 6 6 6
15 -2 9 -7 13 -15 11 -17z m-1913 -45 c-2 -4 -10 -5 -18 -1 -8 3 -16 0 -16 -6
-1 -6 -3 -15 -4 -21 -1 -5 -3 -13 -4 -17 0 -4 -6 -2 -12 4 -11 11 12 58 36 75
10 7 26 -21 18 -34z m157 27 c-7 -9 -15 -13 -17 -11 -7 7 7 26 19 26 6 0 6 -6
-2 -15z m1414 3 c-15 -7 -28 -7 -40 1 -16 9 -12 10 21 10 35 0 37 -2 19 -11z
m332 -16 c-4 -3 -14 2 -24 12 -16 18 -16 18 6 6 13 -6 21 -14 18 -18z m-81
-12 c3 -6 13 -10 21 -10 9 0 12 5 8 12 -4 7 8 3 27 -8 36 -21 41 -37 13 -42
-11 -3 -14 0 -9 8 5 8 2 11 -9 8 -10 -1 -16 -6 -14 -10 2 -4 -11 -22 -29 -40
-17 -18 -34 -46 -38 -63 l-6 -30 14 31 c18 37 66 84 87 84 9 0 2 -11 -18 -26
-32 -26 -68 -81 -58 -91 2 -3 14 13 26 36 11 23 25 41 31 41 7 0 6 -8 -3 -22
-8 -13 -18 -34 -21 -48 -6 -23 -5 -23 17 5 39 48 39 23 1 -31 -19 -27 -35 -54
-35 -61 0 -16 -49 -73 -63 -73 -6 0 -55 -46 -109 -102 -105 -109 -123 -115
-121 -42 2 55 22 91 72 128 77 57 110 98 120 146 10 51 28 100 36 100 6 0 0
-76 -11 -145 -3 -21 -2 -25 4 -15 5 8 12 44 16 80 4 41 13 75 26 92 26 35 26
34 -11 47 -18 6 -28 15 -24 21 5 8 14 6 31 -4 40 -27 50 -18 16 13 -17 17 -32
33 -32 36 0 8 37 -13 45 -25z m-1927 -15 c-6 -14 -13 -23 -15 -21 -5 5 15 46
22 46 3 0 -1 -11 -7 -25z m842 4 c0 -6 -4 -7 -10 -4 -5 3 -10 11 -10 16 0 6 5
7 10 4 6 -3 10 -11 10 -16z m242 -1 c-7 -7 -12 -8 -12 -2 0 14 12 26 19 19 2
-3 -1 -11 -7 -17z m603 2 c-20 -22 -73 -35 -104 -25 -25 8 -28 25 -3 19 9 -3
26 2 37 10 11 9 35 16 54 16 33 0 34 0 16 -20z m-1385 6 c0 -3 -4 -8 -10 -11
-5 -3 -10 -1 -10 4 0 6 5 11 10 11 6 0 10 -2 10 -4z m1500 -41 c11 -13 10 -14
-4 -9 -9 3 -16 10 -16 15 0 13 6 11 20 -6z m50 -28 c0 -26 -15 -12 -25 23 -7
22 -6 23 9 11 9 -7 16 -23 16 -34z m-276 2 c-7 -11 -34 -12 -34 -1 0 14 11 21
26 15 8 -3 11 -9 8 -14z m323 -2 c-6 -20 -27 -19 -27 2 0 14 5 19 15 14 9 -3
14 -10 12 -16z m-1073 -46 c-4 -14 -7 -30 -8 -36 0 -5 -11 -24 -22 -40 -12
-17 -24 -48 -27 -70 -3 -22 -14 -57 -25 -78 -20 -37 -20 -38 -1 -77 10 -21 19
-42 19 -45 0 -11 -45 7 -78 32 -28 21 -31 27 -20 40 11 14 10 15 -12 8 -23 -7
-24 -7 -10 10 14 16 13 17 -6 11 -18 -5 -21 -2 -21 24 0 16 2 28 5 25 2 -2 11
3 19 11 9 8 22 13 29 10 8 -3 13 0 11 7 -1 6 8 13 21 15 13 2 20 8 16 14 -5 7
-1 9 9 5 11 -4 14 -2 10 9 -3 7 0 14 6 14 6 0 11 6 11 13 0 6 15 20 33 31 24
14 28 20 16 25 -12 5 -13 14 -6 49 7 36 11 41 23 31 9 -7 12 -21 8 -38z m36
10 c0 -17 -4 -33 -10 -36 -6 -4 -10 8 -10 29 0 20 5 36 10 36 6 0 10 -13 10
-29z m-627 12 c-7 -2 -21 -2 -30 0 -10 3 -4 5 12 5 17 0 24 -2 18 -5z m1575
-83 l-1 -45 -8 45 c-4 25 -7 56 -7 70 l0 25 8 -25 c4 -14 8 -45 8 -70z m213
-172 c2 -139 2 -274 2 -300 -2 -46 -27 -98 -48 -96 -39 3 -51 -21 -30 -61 14
-27 13 -28 -24 -49 -49 -28 -51 -28 -51 8 0 19 10 40 30 60 17 17 30 41 30 55
0 18 9 28 35 41 44 21 52 50 29 109 l-17 46 -40 -40 c-33 -34 -38 -46 -33 -69
9 -34 7 -102 -2 -116 -4 -6 -12 39 -18 99 l-11 110 29 33 c15 18 35 47 44 65
9 17 25 43 35 56 24 30 24 52 -1 81 -11 13 -20 27 -20 31 0 4 -7 9 -15 11 -11
2 -8 12 13 45 15 23 32 41 37 39 6 -2 10 12 11 30 0 22 -4 34 -13 34 -11 0
-11 5 -3 20 6 11 15 18 19 15 5 -2 10 -118 12 -257z m-181 227 c0 -8 -4 -17
-10 -20 -6 -4 -10 5 -10 20 0 15 4 24 10 20 6 -3 10 -12 10 -20z m-1667 -2
c-6 -15 -4 -16 9 -5 11 9 18 10 23 2 8 -13 -3 -32 -15 -25 -5 3 -12 0 -16 -6
-4 -8 -3 -9 4 -5 7 4 12 3 12 -2 0 -5 -9 -12 -20 -15 -17 -4 -18 -3 -8 16 8
16 8 22 -1 25 -9 3 -9 7 0 18 15 19 20 18 12 -3z m1580 -45 l-10 -43 0 53 c0
36 3 50 10 43 7 -7 7 -24 0 -53z m-818 22 c18 -34 30 -40 20 -10 -4 14 -2 20
8 20 16 0 30 -27 21 -41 -3 -5 -3 -9 0 -9 3 0 12 12 20 28 15 27 16 27 22 5 4
-17 14 -23 33 -23 15 0 31 -8 38 -19 11 -17 9 -23 -13 -40 -29 -23 -59 -30
-157 -35 -38 -2 -71 -6 -74 -9 -10 -11 179 3 199 14 11 6 22 8 25 5 3 -3 -5
-9 -18 -14 -46 -17 -54 -22 -29 -18 14 2 35 8 48 11 14 5 22 3 22 -4 0 -6 -8
-11 -17 -11 -10 0 -25 -5 -33 -11 -11 -8 -8 -9 13 -4 19 4 26 2 22 -5 -3 -5
-13 -10 -21 -10 -8 0 -14 -5 -14 -11 0 -5 5 -7 10 -4 6 3 10 1 10 -4 0 -6 -10
-12 -22 -12 -17 -1 -19 -2 -5 -6 26 -7 20 -19 -15 -31 -30 -9 -31 -10 -8 -11
25 -2 25 -2 -5 -17 -22 -11 -24 -13 -7 -10 12 2 22 0 22 -5 0 -5 -17 -10 -37
-11 -37 -1 -37 -1 -5 -5 17 -2 32 -8 32 -14 0 -5 -15 -10 -32 -10 l-33 -1 30
-8 30 -8 -35 -2 -35 -3 35 -7 35 -7 -25 -11 c-22 -9 -23 -11 -5 -12 11 -1 14
-4 7 -7 -6 -2 -34 11 -61 31 -37 27 -58 36 -89 36 -50 0 -65 17 -20 23 l33 4
-36 1 c-23 1 -39 8 -43 18 -5 12 -1 14 17 10 15 -4 13 -1 -5 6 -16 7 -28 18
-28 25 0 9 9 12 28 8 26 -5 26 -5 5 6 -24 12 -30 33 -14 44 5 3 12 1 16 -5 3
-5 12 -10 18 -10 7 1 1 10 -12 21 -13 11 -21 22 -17 26 3 4 12 1 18 -5 16 -16
33 -16 21 1 -5 6 -9 23 -8 37 0 19 5 24 20 22 77 -14 173 -12 205 3 21 9 25
13 10 9 -14 -3 -54 -8 -90 -11 -71 -5 -140 14 -140 40 0 21 12 28 26 16 11 -9
15 -7 20 7 23 73 44 83 69 34z m585 10 c0 -5 -4 -10 -10 -10 -5 0 -10 5 -10
10 0 6 5 10 10 10 6 0 10 -4 10 -10z m-396 -20 c27 -10 36 -30 14 -30 -17 1
-67 39 -51 40 6 0 23 -4 37 -10z m603 -22 c-3 -12 -2 -28 2 -37 15 -29 23 -77
12 -66 -19 19 -40 102 -28 114 16 16 20 13 14 -11z m50 -15 c-3 -10 -5 -4 -5
12 0 17 2 24 5 18 2 -7 2 -21 0 -30z m-271 -4 c8 -14 -23 -22 -52 -15 -25 7
-25 8 -9 20 19 14 51 11 61 -5z m-356 -11 c0 -9 4 -8 11 2 7 11 8 -5 4 -55 -8
-76 -9 -80 -24 -71 -7 5 -7 15 -1 32 14 35 13 85 0 64 -8 -11 -9 -9 -8 13 2
26 18 39 18 15z m270 2 c0 -5 0 -13 -1 -17 -1 -12 -32 -3 -49 13 -12 12 -10
14 18 14 18 0 32 -4 32 -10z m164 -1 c14 -7 26 -23 30 -40 3 -16 15 -38 27
-50 15 -15 18 -24 10 -32 -15 -15 -41 10 -41 39 0 12 -10 30 -22 38 -33 23
-41 20 -22 -9 17 -26 14 -42 -5 -30 -15 9 -42 75 -35 86 7 12 28 11 58 -2z
m-771 -32 c-3 -5 -10 -4 -15 1 -6 6 -7 16 -3 22 6 9 9 9 16 -1 4 -7 5 -17 2
-22z m859 -29 c2 -21 0 -38 -4 -38 -4 0 -7 24 -7 53 1 54 5 49 11 -15z m44
-10 c11 -12 12 -18 4 -23 -18 -11 -30 15 -28 60 1 34 2 35 5 10 3 -16 11 -37
19 -47z m-1248 40 c-3 -7 -13 -15 -24 -17 -16 -3 -17 -1 -5 13 16 19 34 21 29
4z m1019 -8 c2 -18 0 -18 -13 -6 -17 18 -18 26 -1 26 7 0 13 -9 14 -20z m301
8 c-6 -18 -28 -21 -28 -4 0 9 7 16 16 16 9 0 14 -5 12 -12z m-1883 -27 c3 -5
1 -12 -5 -16 -5 -3 -10 1 -10 9 0 18 6 21 15 7z m385 -1 c0 -5 -2 -10 -4 -10
-3 0 -8 5 -11 10 -3 6 -1 10 4 10 6 0 11 -4 11 -10z m1154 -2 c-4 -7 -3 -8 4
-4 7 4 24 -4 39 -18 15 -15 32 -26 38 -26 5 0 19 -8 30 -17 19 -15 19 -15 -10
-9 -24 5 -27 4 -12 -4 9 -6 26 -8 37 -5 20 6 20 7 -2 25 l-23 19 22 1 c27 0
34 -26 15 -64 -14 -28 -14 -28 -28 -7 -17 24 -46 29 -38 7 3 -8 -2 -16 -13
-19 -15 -4 -15 -5 3 -6 12 0 28 -9 35 -18 12 -15 12 -16 -6 -9 -11 5 -31 10
-45 12 -21 3 -20 2 8 -11 39 -18 41 -26 5 -21 -16 2 -20 1 -11 -1 9 -2 22 -11
30 -20 12 -15 11 -15 -9 -5 -27 15 -55 16 -30 1 9 -6 15 -14 12 -20 -4 -5 -1
-9 4 -9 6 0 11 -5 11 -10 0 -6 -12 -8 -27 -5 -26 5 -26 5 -5 -4 21 -10 21 -13
9 -43 -8 -19 -23 -35 -38 -39 -15 -5 -18 -7 -6 -8 28 -2 19 -21 -10 -22 -24
-2 -25 -2 -5 -6 12 -2 22 -9 22 -14 0 -6 -9 -7 -20 -4 -11 4 -20 2 -20 -4 0
-6 7 -11 15 -11 18 0 19 -5 4 -32 -9 -16 -13 -18 -20 -7 -4 7 -11 10 -16 6 -4
-5 -1 -12 6 -16 14 -9 7 -31 -10 -31 -6 0 -7 5 -4 10 3 6 1 10 -4 10 -6 0 -12
-6 -12 -12 -1 -7 -2 -18 -3 -24 0 -6 -34 -43 -73 -82 -40 -39 -73 -78 -73 -86
0 -9 14 -25 30 -38 22 -15 30 -30 30 -51 l0 -30 -20 26 c-23 29 -83 43 -123
28 -19 -7 -28 -7 -33 1 -4 7 -2 14 5 16 11 4 11 6 0 14 -10 6 -7 8 11 7 38 -2
47 2 25 11 -17 7 -15 9 13 9 31 1 47 21 16 21 -27 0 -4 20 24 21 17 1 21 3 10
6 -26 6 -22 23 5 23 21 1 22 1 3 15 -19 14 -18 15 15 16 19 1 26 3 17 6 -25 6
-22 23 5 24 l22 2 -23 4 c-29 6 -18 23 16 24 l27 1 -25 8 c-25 8 -25 8 4 9 28
1 29 2 10 16 -18 14 -18 14 11 16 l30 1 -30 8 -30 7 35 10 c31 10 32 11 10 13
-25 2 -25 2 5 15 30 14 30 14 5 16 -23 1 -23 2 5 9 17 4 22 8 13 9 -26 2 -22
21 5 22 21 1 21 1 -3 9 l-25 8 24 8 c22 6 22 8 7 19 -15 11 -14 14 14 23 37
14 39 20 3 16 -27 -4 -27 -4 5 11 38 18 43 29 7 15 -38 -14 -31 7 8 25 17 8
22 12 10 9 -34 -8 -28 10 10 29 l32 17 -29 -7 c-20 -4 -27 -3 -22 6 4 6 16 11
26 11 10 0 22 5 25 10 4 7 -3 9 -22 5 l-28 -5 30 15 30 16 -27 -4 c-16 -2 -28
0 -28 4 0 5 9 9 19 9 11 0 23 5 27 11 5 9 -1 10 -20 5 -15 -4 -26 -2 -26 4 0
5 14 10 30 10 17 0 30 4 30 8 0 5 -14 6 -31 4 -22 -3 -30 -1 -25 7 4 6 18 11
31 11 13 0 27 4 30 10 4 6 -5 7 -24 4 -26 -5 -30 -4 -28 15 1 15 8 21 25 21
15 0 21 -4 16 -12z m-990 -8 c-12 -12 -115 -31 -126 -23 -21 12 -2 22 50 26
31 2 64 4 72 5 9 1 11 -1 4 -8z m106 0 c0 -6 -10 -15 -22 -20 -18 -7 -19 -9
-5 -9 9 -1 17 -5 17 -11 0 -5 -21 -11 -47 -12 l-48 -1 45 -7 45 -7 -45 -3 -45
-3 35 -7 c19 -4 28 -8 20 -9 -13 -1 -13 -2 0 -11 8 -5 10 -10 4 -10 -11 0 -15
-15 -15 -68 0 -32 22 -67 35 -54 4 3 4 -1 1 -9 -4 -10 3 -20 22 -28 l28 -13
-25 -21 c-15 -12 -18 -18 -8 -14 10 3 20 2 23 -2 3 -5 14 -7 24 -4 10 3 22 0
25 -6 5 -7 -3 -11 -21 -12 l-28 -1 25 -8 c14 -4 18 -9 10 -9 -8 -1 -24 -4 -35
-7 -17 -4 -28 8 -63 66 -45 75 -69 149 -48 151 7 0 7 2 -1 6 -14 5 -18 33 -4
33 4 0 3 15 -3 34 -12 41 -31 37 -35 -7 -1 -17 -4 -44 -5 -59 -1 -16 2 -28 7
-28 5 0 7 -9 4 -20 -3 -11 -1 -20 3 -20 5 0 14 -16 20 -35 6 -19 31 -63 54
-97 24 -35 51 -78 60 -96 9 -18 39 -57 66 -88 28 -30 50 -60 50 -67 0 -8 -11
-20 -25 -27 -13 -7 -27 -21 -30 -30 -14 -46 -95 -104 -95 -69 0 5 4 8 9 5 5
-3 8 2 7 12 0 10 6 17 16 17 9 0 26 12 37 27 24 30 39 88 23 88 -14 0 -112 94
-112 107 0 6 -18 37 -40 69 -22 33 -40 64 -40 69 0 6 -6 21 -13 36 -33 63 -30
237 4 246 10 3 20 11 23 19 3 8 13 14 22 14 13 0 14 -3 4 -15 -11 -13 -8 -15
16 -14 16 0 23 3 17 6 -23 9 -14 32 15 36 15 2 30 5 35 6 4 0 7 -4 7 -9z
m-322 -52 c-2 -9 -10 -1 -20 20 l-17 36 20 -21 c12 -11 19 -27 17 -35z m87
-12 c20 -88 22 -114 13 -194 -13 -120 -12 -146 12 -191 28 -56 26 -60 -20 -49
-41 11 -70 41 -50 53 16 10 1 25 -23 24 -18 -1 -19 -2 -4 -6 12 -3 16 -10 13
-20 -4 -9 -1 -22 5 -30 9 -10 9 -17 1 -25 -14 -14 -19 -10 -24 17 -4 27 -48
39 -63 18 -7 -9 -17 -13 -24 -9 -15 10 15 35 41 36 9 0 20 4 23 10 3 6 -1 7
-9 4 -10 -4 -16 -1 -16 7 0 8 -3 31 -6 52 -5 29 -3 37 9 37 16 0 21 11 32 70
5 26 3 31 -4 20 -10 -13 -11 -13 -10 0 1 8 5 26 9 40 l8 25 2 -25 c1 -14 4
-19 7 -12 3 7 0 26 -6 42 -5 17 -7 38 -4 48 6 14 8 13 14 -8 4 -14 5 7 3 45
-2 39 0 60 4 47 9 -30 28 -28 25 3 -2 22 0 23 17 13 10 -6 21 -26 25 -42z
m1655 -20 c0 -8 -8 -24 -18 -36 -23 -28 -46 -18 -65 28 -12 31 -15 33 -16 14
-1 -13 8 -35 19 -49 21 -26 26 -53 12 -53 -5 0 -20 16 -34 36 l-25 35 -27 -31
c-32 -39 -32 -50 -2 -83 21 -23 26 -43 36 -138 6 -61 8 -114 6 -117 -7 -7 -35
17 -47 40 -8 14 -7 25 4 41 32 49 30 74 -9 111 -33 32 -74 50 -59 26 5 -8 -30
-90 -39 -90 -3 0 -13 -3 -23 -7 -17 -6 -17 -5 1 16 11 12 21 31 23 42 3 18 1
18 -19 -5 -25 -27 -68 -44 -68 -27 0 6 7 11 15 11 8 0 15 4 15 10 0 5 -7 7
-15 4 -8 -4 -15 -1 -15 6 0 6 4 9 9 6 5 -3 14 1 21 9 7 8 19 15 26 15 8 0 14
6 14 14 0 7 7 19 15 26 8 6 14 15 13 18 -6 31 139 163 170 156 12 -4 22 3 32
20 l13 26 19 -30 c10 -17 18 -37 18 -44z m-1605 32 c-4 -13 -6 -39 -6 -58 l0
-35 -14 45 c-8 25 -15 46 -15 48 0 1 7 2 16 2 8 0 12 5 9 10 -3 6 -1 10 6 10
7 0 9 -8 4 -22z m222 0 c-3 -8 -6 -5 -6 6 -1 11 2 17 5 13 3 -3 4 -12 1 -19z
m1095 -10 c-7 -7 -12 -8 -12 -2 0 14 12 26 19 19 2 -3 -1 -11 -7 -17z m-1095
-26 c12 -21 47 -56 78 -77 49 -34 65 -40 123 -43 57 -3 71 -8 92 -31 14 -15
21 -21 16 -14 -17 25 0 23 22 -2 21 -24 21 -25 3 -25 -30 0 -51 11 -51 26 0
21 -34 17 -55 -6 -10 -11 -28 -20 -39 -20 -12 -1 -32 -7 -46 -15 -28 -16 -106
-20 -114 -6 -3 5 2 8 12 7 10 0 17 6 16 16 -1 11 4 15 15 12 9 -2 3 2 -14 10
l-30 14 25 5 c23 4 23 4 -5 7 l-30 2 30 8 30 8 -33 1 c-18 0 -42 6 -53 11 -11
7 -19 7 -19 1 0 -5 -8 -8 -17 -7 -31 5 -37 55 -13 109 11 26 24 47 28 47 4 0
17 -17 29 -38z m1061 10 c-10 -2 -18 -10 -18 -18 0 -8 -6 -13 -12 -11 -7 1
-12 -4 -10 -10 1 -7 -3 -13 -9 -13 -5 0 -7 -4 -4 -10 3 -5 -1 -10 -9 -10 -13
0 -13 -4 -1 -26 11 -23 11 -29 0 -40 -8 -8 -17 -23 -20 -34 -4 -11 -15 -20
-27 -20 -16 0 -18 -3 -9 -14 9 -11 8 -15 -6 -21 -16 -6 -15 -8 5 -16 13 -5 20
-14 17 -20 -4 -6 -13 -8 -21 -5 -7 3 -16 1 -19 -4 -3 -4 0 -10 6 -12 9 -3 7
-24 -6 -76 -14 -60 -20 -71 -31 -61 -8 7 -18 9 -22 5 -4 -4 1 -14 11 -21 16
-11 17 -17 7 -35 -10 -18 -9 -21 2 -18 7 2 19 23 26 46 11 33 19 42 35 41 21
0 22 -1 2 -10 -17 -8 -17 -9 5 -4 14 2 31 5 38 5 7 0 10 5 7 10 -3 6 -22 10
-41 10 -44 0 -36 19 9 21 l32 2 -35 7 -35 6 35 12 c29 10 30 11 7 8 -21 -3
-27 0 -25 13 2 10 15 17 36 19 30 3 32 1 30 -25 -2 -42 9 -66 41 -87 21 -14
31 -31 35 -59 5 -26 18 -51 41 -74 19 -19 37 -43 40 -53 4 -11 10 -20 15 -20
5 0 22 -12 39 -26 23 -19 31 -34 30 -57 l0 -32 -17 38 c-9 21 -24 37 -33 37
-18 0 -45 -53 -34 -69 3 -7 -3 -11 -16 -11 -19 0 -21 -4 -16 -36 6 -35 6 -35
-16 -21 -30 20 -35 63 -8 72 11 3 20 9 19 13 -1 4 1 24 6 45 4 22 3 52 -3 70
-12 35 -45 62 -63 51 -6 -4 -8 -3 -5 3 8 13 -24 23 -71 23 -20 0 -31 -4 -27
-10 3 -6 -1 -17 -10 -26 -22 -22 -14 -26 23 -13 19 7 29 16 26 24 -4 10 0 12
15 8 11 -3 18 -9 15 -14 -3 -5 4 -9 16 -9 19 0 21 -4 15 -29 -3 -16 -2 -32 4
-35 6 -4 7 -14 4 -23 -4 -10 3 -22 18 -34 19 -14 22 -20 12 -30 -10 -10 -16
-10 -25 -1 -9 9 -8 12 7 13 15 0 13 3 -8 11 -15 5 -25 13 -23 17 3 4 -1 8 -9
8 -20 0 -19 -11 4 -31 11 -10 22 -35 26 -56 8 -45 37 -75 85 -85 82 -17 97
-44 106 -191 3 -60 15 -151 25 -203 10 -52 19 -109 19 -127 0 -38 9 -64 21
-64 6 0 6 7 1 18 -5 9 -12 46 -15 82 -3 36 -9 75 -12 86 -5 17 -1 23 24 32 17
6 31 18 31 26 0 8 10 21 23 27 12 7 25 17 29 23 4 6 9 8 12 5 7 -7 9 -389 2
-396 -3 -4 -6 5 -6 18 0 13 -10 35 -21 49 -20 24 -20 24 -9 2 6 -13 9 -26 6
-29 -3 -4 -2 -11 3 -17 16 -22 19 -43 5 -43 -7 0 -11 4 -8 9 3 5 1 15 -5 22
-7 8 -11 18 -10 22 5 26 -3 33 -29 28 -24 -5 -34 0 -61 32 -43 48 -58 85 -67
162 -3 34 -10 65 -15 67 -16 10 -33 211 -19 220 6 3 10 11 10 17 0 6 -9 3 -20
-7 -11 -10 -20 -25 -20 -33 0 -11 -10 -14 -50 -10 -27 3 -50 1 -50 -3 0 -13
47 -22 75 -15 23 6 25 4 25 -28 0 -19 -9 -63 -20 -99 -20 -65 -20 -66 -1 -109
36 -82 46 -170 43 -391 -3 -186 -1 -213 16 -260 16 -42 32 -115 37 -172 4 -38
21 -88 47 -133 20 -36 27 -57 20 -65 -5 -7 -8 -20 -7 -29 2 -13 -1 -15 -18 -9
-13 5 -27 25 -35 50 -8 23 -20 45 -27 48 -9 3 -12 16 -9 36 4 24 -6 53 -41
122 -25 49 -49 110 -52 135 l-6 45 21 -25 c29 -35 27 -18 -4 32 -14 22 -40 80
-57 127 -24 70 -30 102 -31 171 0 77 3 92 33 153 18 38 40 71 47 74 8 3 14 10
14 16 0 15 -69 -53 -76 -75 -3 -10 -11 -18 -19 -18 -9 0 -13 -11 -13 -30 1
-17 -3 -34 -7 -38 -4 -4 -5 3 -2 15 3 13 1 23 -4 23 -5 0 -9 -12 -9 -27 l-1
-28 -14 25 c-9 15 -14 19 -15 10 0 -11 -4 -9 -13 6 -42 70 -61 96 -65 86 -2
-7 10 -31 27 -54 17 -23 31 -53 31 -67 0 -32 8 -44 39 -61 l24 -12 -7 -164
c-6 -147 -5 -167 11 -191 14 -21 19 -57 24 -163 3 -74 9 -145 13 -157 7 -19 4
-23 -31 -29 -42 -7 -118 -42 -110 -51 3 -2 14 0 25 6 11 6 41 15 68 21 61 14
77 27 69 57 -4 16 -1 23 10 23 8 0 32 9 52 20 l38 20 15 -29 c52 -98 59 -107
95 -120 31 -11 39 -11 46 0 10 17 2 52 -23 102 -11 22 -17 42 -14 45 3 3 6 1
6 -5 0 -6 8 -13 18 -17 9 -3 24 -9 32 -14 8 -5 29 -15 45 -23 26 -13 30 -21
33 -60 l3 -46 -38 -7 c-56 -9 -1083 -7 -1083 2 0 17 -81 42 -186 58 -60 9
-113 21 -119 27 -7 6 5 7 35 3 25 -4 83 -12 130 -17 93 -10 136 -22 190 -50
42 -23 66 -24 104 -4 15 8 45 15 65 15 20 1 54 7 76 15 22 8 70 15 106 15 57
0 68 3 87 25 18 21 31 25 74 25 l51 0 -38 -33 c-39 -34 -44 -67 -10 -67 9 0
14 4 10 9 -3 5 4 16 16 24 11 8 16 18 11 21 -6 3 -12 1 -14 -6 -3 -9 -6 -9
-11 -1 -5 7 13 22 44 40 l52 28 -6 65 c-3 36 -15 99 -26 140 -12 41 -21 90
-21 110 0 19 -4 51 -9 70 -5 19 -14 69 -21 110 -7 41 -16 91 -21 110 -22 92
-28 180 -18 281 5 57 9 150 9 207 -1 76 2 103 12 106 49 15 53 20 16 24 -21 2
-38 8 -38 13 0 6 5 7 10 4 6 -3 10 -1 10 4 0 6 -5 11 -11 11 -6 0 -8 7 -5 16
14 36 18 64 8 64 -19 0 -29 -80 -24 -198 6 -155 1 -177 -54 -240 -25 -29 -49
-65 -53 -80 -5 -16 -14 -27 -25 -27 -10 0 -25 -9 -33 -20 -15 -19 -15 -19 -9
5 7 24 6 24 -8 6 -18 -23 -21 -14 -5 16 8 16 17 19 40 14 21 -4 28 -2 23 5 -4
6 0 15 7 20 18 11 2 11 -39 0 -40 -12 -44 6 -4 20 22 7 37 29 73 107 44 91 47
105 58 225 11 132 25 180 57 209 24 21 104 36 104 19 0 -6 4 -11 8 -11 5 0 9
14 9 31 0 21 7 37 24 50 13 10 19 19 12 19 -6 0 -15 -4 -18 -10 -3 -5 -22 -10
-41 -10 -25 0 -34 4 -34 16 0 12 7 15 27 11 26 -5 26 -4 8 9 -10 8 -15 14 -9
14 5 0 1 5 -9 11 -12 7 -16 17 -11 31 4 15 -1 27 -21 44 -25 21 -26 24 -9 25
17 1 17 2 1 6 -9 2 -15 9 -11 14 3 5 9 7 14 4 4 -3 10 4 13 16 5 17 3 18 -9 8
-8 -6 -17 -9 -21 -5 -3 3 -15 -1 -25 -11 -24 -22 -36 -8 -14 16 19 21 12 45
-20 72 -16 13 -17 12 -10 -6 17 -42 18 -61 1 -32 -19 33 -29 35 -20 5 5 -18 4
-19 -4 -8 -19 28 -21 3 -2 -36 18 -36 18 -72 1 -44 -5 8 -8 -1 -8 -21 1 -19
-11 -54 -26 -80 -22 -40 -30 -46 -52 -41 -19 3 -23 9 -18 21 20 48 17 63 -20
97 -20 18 -36 37 -36 42 0 14 59 86 80 97 33 18 148 163 164 207 8 24 25 69
37 101 16 44 25 57 41 57 17 0 18 3 8 15 -10 12 -8 21 10 50 25 41 59 67 74
57 7 -4 4 -8 -6 -10z m-1457 -92 c17 -13 18 -20 8 -48 -7 -20 -15 -29 -22 -25
-7 4 -6 -1 2 -10 13 -16 8 -22 -13 -18 -5 1 -3 -5 4 -15 13 -14 12 -16 -5 -12
-11 2 -18 11 -16 19 2 8 4 46 6 84 2 77 5 90 12 60 3 -11 14 -27 24 -35z
m1663 24 c9 -3 16 -15 16 -25 0 -10 5 -19 10 -19 15 0 12 -17 -6 -35 -16 -15
-19 -15 -42 8 -19 19 -23 31 -18 51 7 27 13 30 40 20z m-1497 -116 c-3 -7 -5
-2 -5 12 0 14 2 19 5 13 2 -7 2 -19 0 -25z m242 11 c18 -11 31 -23 28 -26 -6
-5 -77 34 -77 43 0 9 16 3 49 -17z m-394 -39 c-4 -12 -9 -19 -12 -17 -3 3 -2
15 2 27 4 12 9 19 12 17 3 -3 2 -15 -2 -27z m890 9 c-4 -6 -9 -32 -12 -57 -3
-30 -13 -56 -27 -72 -13 -14 -29 -46 -37 -72 -14 -49 -23 -56 -49 -37 -11 8
-9 9 10 3 22 -6 23 -5 8 10 -10 9 -24 13 -33 9 -15 -5 -16 -3 -5 17 6 12 10
36 7 54 -5 32 43 152 51 127 3 -8 9 -6 18 6 13 16 14 15 9 -12 -5 -29 -5 -29
5 -5 6 13 16 28 23 32 18 11 39 10 32 -3z m685 -16 c0 -9 3 -13 7 -10 7 8 32
-22 33 -40 0 -17 -29 -43 -49 -43 -28 0 -42 61 -23 93 17 27 32 27 32 0z
m-1414 2 c-3 -8 -1 -15 5 -15 6 0 8 -4 4 -9 -3 -5 0 -13 6 -17 8 -4 7 -9 -2
-15 -11 -7 -10 -9 4 -9 9 0 17 -4 17 -9 0 -5 -8 -12 -17 -14 -11 -3 -7 -5 10
-6 16 0 26 -5 22 -11 -3 -5 0 -10 8 -10 15 0 26 -16 23 -34 0 -5 10 -13 23
-17 14 -6 21 -15 18 -23 -3 -7 0 -19 6 -25 13 -13 9 -18 -26 -26 -21 -6 -28
-4 -27 6 6 40 0 49 -30 43 -25 -6 -30 -3 -36 20 -3 14 -10 26 -15 26 -22 0 -6
19 19 23 25 4 24 4 -6 6 -18 0 -31 5 -27 10 3 5 1 12 -4 16 -6 3 -7 13 -4 21
3 9 7 30 8 48 3 38 3 36 16 36 6 0 9 -7 5 -15z m1209 -1 c-9 -9 -19 -13 -23
-10 -3 4 0 11 8 16 24 15 33 11 15 -6z m-975 -4 c0 -5 -10 -10 -22 -10 -19 0
-20 2 -8 10 19 13 30 13 30 0z m234 -20 c-4 -24 -4 -24 5 -2 6 12 15 22 21 22
7 0 9 -9 6 -22 l-6 -23 11 23 c7 12 21 22 33 21 20 0 20 -1 -1 -9 -13 -5 -23
-14 -23 -20 0 -6 5 -8 10 -5 13 8 12 -2 -5 -55 l-15 -45 5 45 c4 32 2 39 -4
25 l-10 -20 -1 20 c-2 14 -5 11 -12 -12 -6 -18 -14 -33 -19 -33 -4 0 -6 15 -4
33 2 17 1 24 -1 15 -10 -32 -27 -20 -20 15 l6 32 -15 -25 c-11 -20 -14 -21
-15 -7 0 29 17 53 39 53 16 0 19 -5 15 -26z m1131 4 c0 -10 5 -23 12 -29 16
-14 -2 -55 -25 -55 -10 0 -23 5 -30 12 -14 14 -16 48 -3 48 5 0 12 12 15 26 8
29 31 28 31 -2z m-1795 -8 c0 -14 -20 -45 -20 -31 0 6 -3 20 -6 33 -5 18 -3
21 10 16 9 -3 16 -11 16 -18z m610 17 c0 -5 -5 -15 -10 -23 -8 -12 -10 -11
-10 8 0 12 5 22 10 22 6 0 10 -3 10 -7z m165 -13 c-4 -11 -8 -41 -10 -66 -1
-25 -5 -48 -8 -51 -10 -10 -27 8 -23 25 11 56 30 112 38 112 5 0 6 -9 3 -20z
m29 -5 c-4 -8 -8 -15 -10 -15 -2 0 -4 7 -4 15 0 8 4 15 10 15 5 0 7 -7 4 -15z
m-914 -45 c0 -20 -5 -30 -15 -30 -29 0 -18 50 13 59 1 1 2 -12 2 -29z m1531
20 c6 0 7 -4 4 -10 -10 -16 -45 -12 -45 6 0 11 5 14 16 10 9 -3 20 -6 25 -6z
m45 -18 c-18 -16 -18 -16 -6 6 6 13 14 21 18 18 3 -4 -2 -14 -12 -24z m-1646
-2 c0 -5 -4 -10 -9 -10 -6 0 -13 5 -16 10 -3 6 1 10 9 10 9 0 16 -4 16 -10z
m642 -15 c-2 -5 -11 -9 -22 -7 -10 2 -22 -2 -26 -9 -5 -9 5 -10 40 -5 46 7 68
-8 24 -17 -18 -3 -17 -5 7 -6 29 -2 29 -2 10 -17 -19 -15 -19 -15 6 -9 32 8
47 -9 22 -24 -16 -9 -15 -10 7 -11 20 0 22 -2 10 -11 -12 -8 -12 -10 5 -8 11
1 27 1 35 0 13 -1 13 -2 0 -11 -13 -8 -13 -10 2 -10 9 0 24 -10 33 -22 8 -13
18 -22 20 -20 12 6 26 1 20 -8 -3 -5 1 -10 9 -10 9 0 16 -4 16 -10 0 -5 7 -10
15 -10 22 0 18 -28 -4 -35 -18 -6 -93 18 -119 38 -11 8 -11 12 0 19 8 5 2 6
-14 2 -30 -7 -36 4 -15 25 6 7 8 12 2 11 -22 -5 -35 1 -35 14 0 7 -10 17 -22
21 -14 4 -18 8 -10 12 19 7 14 23 -7 23 -26 0 -36 17 -14 23 11 3 6 5 -11 6
-16 0 -27 4 -23 7 3 3 -3 14 -14 25 -24 24 -24 36 -1 42 27 8 57 3 54 -8z m43
5 c3 -5 2 -10 -4 -10 -5 0 -13 5 -16 10 -3 6 -2 10 4 10 5 0 13 -4 16 -10z
m1060 -1 c4 -5 18 -14 31 -19 31 -12 34 -65 4 -75 -21 -7 -50 -57 -50 -86 0
-10 8 -22 17 -28 10 -5 15 -13 11 -16 -14 -15 -34 4 -48 44 -12 36 -11 45 5
81 15 34 16 44 5 64 -17 33 6 66 25 35z m-48 -19 c-3 -13 0 -20 9 -20 17 0 18
-11 2 -45 -7 -16 -19 -25 -33 -25 -28 0 -40 15 -49 59 -5 30 -4 33 14 28 10
-3 24 1 31 9 17 21 32 17 26 -6z m-1702 -39 c7 -12 -12 -24 -25 -16 -11 7 -4
25 10 25 5 0 11 -4 15 -9z m55 -16 c0 -8 -4 -15 -9 -15 -13 0 -22 16 -14 24
11 11 23 6 23 -9z m1977 -37 c-3 -34 -11 -56 -23 -65 -23 -17 -35 -17 -28 1 3
7 -2 16 -10 19 -19 8 -22 59 -3 56 26 -3 35 2 40 21 3 11 10 20 17 20 8 0 10
-16 7 -52z m-1906 2 c-15 -9 -61 -1 -61 10 0 13 33 17 54 7 13 -6 15 -11 7
-17z m674 20 c-3 -5 -11 -10 -16 -10 -6 0 -7 5 -4 10 3 6 11 10 16 10 6 0 7
-4 4 -10z m150 0 c-3 -5 -10 -10 -16 -10 -5 0 -9 5 -9 10 0 6 7 10 16 10 8 0
12 -4 9 -10z m-935 -24 c0 -15 -28 -42 -36 -34 -2 3 0 17 6 32 10 27 30 28 30
2z m216 16 c6 -4 10 -17 9 -29 -2 -27 -15 -44 -15 -20 0 10 -6 17 -14 17 -18
0 -29 16 -21 30 7 12 25 13 41 2z m614 -2 c0 -5 -4 -10 -10 -10 -5 0 -10 5
-10 10 0 6 5 10 10 10 6 0 10 -4 10 -10z m1009 -38 c0 -26 -1 -26 -9 -4 -5 12
-14 22 -20 22 -5 0 -10 7 -10 15 0 13 4 14 20 5 13 -7 20 -20 19 -38z m-36 -4
c20 3 24 -37 5 -56 -7 -7 -8 -12 -4 -12 5 0 15 8 22 18 12 15 13 7 14 -56 0
-72 0 -73 -22 -61 -23 11 -57 48 -58 61 0 4 7 13 15 21 13 13 11 16 -15 26
-28 9 -43 41 -20 41 6 0 10 8 10 18 0 10 6 24 13 31 10 10 13 7 18 -11 3 -15
12 -22 22 -20z m-1875 -8 c-3 -18 1 -35 9 -41 16 -14 17 -52 1 -47 -6 2 -18
23 -27 45 -12 34 -12 44 -2 57 19 23 24 20 19 -14z m172 15 c10 -12 10 -15 -1
-15 -11 0 -11 -2 1 -10 12 -7 12 -12 3 -21 -10 -10 -14 -9 -19 4 -3 9 -10 14
-15 11 -10 -6 -12 29 -2 39 10 11 19 8 33 -8z m80 -6 c0 -5 -12 -9 -26 -9 -22
0 -24 2 -14 14 12 15 40 11 40 -5z m237 15 c-3 -3 -12 -4 -19 -1 -8 3 -5 6 6
6 11 1 17 -2 13 -5z m-22 -19 c14 -3 25 -10 25 -16 0 -6 -4 -7 -10 -4 -16 10
-12 -12 5 -29 20 -20 19 -46 -2 -46 -13 0 -14 -3 -5 -12 7 -7 11 -26 11 -42
-1 -21 -3 -25 -6 -11 -3 11 -15 28 -26 38 -14 12 -18 20 -11 23 14 6 6 44 -8
44 -5 0 -7 8 -3 19 4 15 -1 20 -25 25 -18 3 -29 10 -25 16 3 6 17 8 31 5 13
-3 35 -7 49 -10z m-372 -1 c8 -8 -3 -34 -14 -34 -5 0 -9 9 -9 20 0 19 11 26
23 14z m234 -14 c-3 -11 -1 -23 4 -26 12 -7 11 -24 -1 -24 -13 0 -29 41 -23
58 8 20 26 14 20 -8z m566 6 c4 -10 0 -12 -14 -9 -22 6 -26 23 -5 23 8 0 16
-6 19 -14z m50 0 c4 -10 1 -13 -8 -9 -8 3 -12 9 -9 14 7 12 11 11 17 -5z
m-291 -38 c10 -10 18 -19 18 -20 0 -2 -24 -4 -53 -5 -47 -2 -50 0 -33 13 24
17 16 18 -19 2 -22 -10 -28 -9 -36 3 -14 22 -11 27 19 37 32 11 76 -2 104 -30z
m378 32 c12 -7 10 -9 -8 -7 -12 0 -22 5 -22 9 0 11 12 10 30 -2z m-962 -25 c1
-1 0 -10 -4 -19 -9 -23 -27 -20 -19 4 4 13 2 20 -5 18 -7 -2 -15 3 -17 10 -4
12 -1 12 18 2 13 -7 25 -14 27 -15z m192 -17 c0 -10 -6 -21 -14 -24 -8 -3 -12
-12 -9 -20 4 -10 0 -12 -11 -8 -9 4 -15 12 -13 18 2 6 -3 16 -10 21 -17 13 -8
42 15 48 23 5 42 -11 42 -35z m146 -15 c-2 -2 -16 1 -32 7 -22 9 -25 13 -14
20 10 6 21 4 32 -7 10 -9 16 -18 14 -20z m-306 1 c0 -8 -4 -14 -10 -14 -5 0
-10 9 -10 21 0 11 5 17 10 14 6 -3 10 -13 10 -21z m190 11 c0 -8 -4 -15 -10
-15 -5 0 -10 7 -10 15 0 8 5 15 10 15 6 0 10 -7 10 -15z m1798 -76 l-3 -74
-15 45 c-16 48 -50 69 -50 31 0 -20 -9 -25 -37 -22 -25 3 -34 -37 -19 -82 13
-38 13 -44 -2 -61 -16 -17 -17 -16 -24 30 -7 56 0 130 15 159 6 11 10 23 9 27
-1 4 5 5 13 1 9 -3 24 2 34 11 10 9 20 13 24 10 3 -3 14 -1 24 4 28 16 34 1
31 -79z m-1948 62 c0 -10 -7 -21 -15 -25 -11 -4 -15 1 -15 19 0 16 6 25 15 25
8 0 15 -9 15 -19z m827 13 c-3 -3 -12 -4 -19 -1 -8 3 -5 6 6 6 11 1 17 -2 13
-5z m139 -16 c35 -8 46 -7 68 7 25 17 26 17 26 -4 0 -11 -5 -21 -10 -21 -6 0
-15 -11 -22 -24 -6 -14 -17 -27 -25 -30 -10 -4 -11 -1 -3 14 13 24 13 30 0 30
-5 0 -10 -6 -10 -12 -1 -16 -50 -77 -50 -62 0 6 7 17 15 24 8 7 15 22 15 34
-1 16 -5 13 -17 -14 -9 -19 -17 -41 -17 -49 -1 -8 -7 -16 -15 -19 -9 -3 -11 0
-6 9 6 11 5 12 -6 2 -7 -7 -20 -13 -28 -13 -10 0 -1 14 22 38 36 37 47 62 27
62 -5 0 -10 -8 -10 -18 0 -19 -49 -72 -67 -72 -6 0 -16 6 -22 13 -8 11 -5 19
13 36 25 24 41 61 25 61 -5 0 -9 -8 -9 -18 0 -10 -11 -29 -25 -42 -14 -13 -25
-19 -25 -13 0 6 7 16 15 23 8 7 15 28 15 46 l0 34 43 -5 c23 -4 61 -11 83 -17z
m-1127 -2 c14 -16 4 -46 -14 -46 -16 0 -23 19 -17 43 5 21 16 22 31 3z m206
-7 c-4 -5 -13 -9 -22 -9 -13 0 -13 3 -3 15 13 15 35 11 25 -6z m163 -16 c-3
-31 -34 -44 -44 -19 -9 24 3 46 26 46 17 0 21 -5 18 -27z m299 5 c-3 -8 -6 -5
-6 6 -1 11 2 17 5 13 3 -3 4 -12 1 -19z m258 -44 l30 -14 -50 3 c-32 1 -56 8
-66 20 -10 10 -23 15 -33 11 -11 -4 -16 -1 -16 12 -1 18 -2 18 -13 2 -7 -9
-26 -20 -42 -24 -36 -9 -26 9 15 26 16 7 30 16 30 21 0 7 63 -17 145 -57z
m-855 36 c9 -16 8 -20 -5 -20 -8 0 -15 9 -15 20 0 11 2 20 5 20 2 0 9 -9 15
-20z m230 -17 c0 -24 -25 -9 -28 17 -3 21 -2 22 12 11 9 -7 16 -20 16 -28z
m1223 5 c6 -22 5 -22 -8 -4 -17 22 -20 40 -6 32 5 -3 11 -16 14 -28z m-1395
-6 c3 -9 -2 -13 -14 -10 -9 1 -19 9 -22 16 -3 9 2 13 14 10 9 -1 19 -9 22 -16z
m97 8 c7 -12 -16 -50 -31 -50 -6 0 -10 8 -9 18 2 35 26 54 40 32z m195 0 c0
-5 -2 -10 -4 -10 -3 0 -8 5 -11 10 -3 6 -1 10 4 10 6 0 11 -4 11 -10z m224 -5
c-4 -8 -8 -15 -10 -15 -2 0 -4 7 -4 15 0 8 4 15 10 15 5 0 7 -7 4 -15z m-484
-15 c0 -11 -4 -20 -10 -20 -5 0 -10 9 -10 20 0 11 5 20 10 20 6 0 10 -9 10
-20z m-97 -56 c-2 -28 4 -49 23 -76 15 -21 31 -38 36 -38 5 0 8 -10 6 -22 -2
-15 -11 -24 -26 -26 -20 -3 -23 0 -20 20 2 17 -1 22 -14 20 -16 -3 -20 10 -30
108 -2 14 -10 26 -19 28 -35 6 -56 -111 -31 -170 10 -25 17 -28 55 -28 54 0
65 -9 31 -27 -34 -17 -64 -17 -90 2 -18 12 -22 29 -28 100 -8 93 0 119 48 157
18 15 24 15 41 3 15 -10 19 -22 18 -51z m474 14 c-2 -13 -4 -5 -4 17 -1 22 1
32 4 23 2 -10 2 -28 0 -40z m1033 45 c-1 -18 -28 -44 -35 -33 -4 6 -1 17 5 25
13 16 30 20 30 8z m-1296 -12 c7 -11 -22 -23 -35 -15 -5 3 -9 9 -9 15 0 12 37
12 44 0z m537 -1 c27 -15 24 -38 -7 -52 -14 -7 -32 -25 -40 -41 -10 -19 -20
-27 -31 -23 -8 4 0 -8 18 -25 18 -17 35 -26 37 -20 4 11 32 16 32 6 0 -4 -15
-22 -34 -41 -34 -35 -49 -76 -40 -111 5 -17 1 -19 -24 -15 -48 7 -87 -58 -66
-112 12 -31 21 -15 17 27 -6 50 11 70 60 71 30 1 30 2 31 54 1 48 5 57 35 84
25 23 41 29 63 26 16 -3 31 -1 34 4 3 4 -11 8 -30 8 -20 0 -36 5 -36 10 0 6
-11 10 -24 10 -14 0 -27 4 -30 9 -11 17 13 61 37 70 12 5 29 16 36 25 22 27
101 21 134 -9 15 -14 27 -30 27 -36 0 -5 13 -8 28 -7 35 2 51 -7 62 -38 11
-29 30 -32 30 -5 0 22 23 34 38 19 7 -7 12 -3 17 11 11 37 45 52 88 40 61 -17
85 -70 47 -104 -11 -10 -20 -24 -20 -30 0 -19 -40 -66 -64 -75 -16 -7 -17 -9
-4 -9 9 -1 24 6 32 15 29 28 48 -4 22 -38 -11 -15 -17 -16 -62 -3 -27 7 -40
14 -29 15 16 2 17 3 3 7 -9 2 -22 18 -28 34 -23 54 -69 72 -119 46 -22 -11
-28 -9 -48 10 -16 16 -33 23 -60 22 l-38 -1 34 -8 c45 -11 74 -42 74 -80 0
-17 5 -29 11 -27 6 2 11 13 11 24 1 42 55 69 91 45 37 -24 39 -81 4 -111 -11
-10 -20 -36 -23 -67 -6 -53 4 -74 33 -74 12 1 12 2 -2 11 -10 5 -18 17 -18 26
0 13 3 14 11 6 13 -13 28 -3 48 35 8 16 9 22 0 22 -6 0 -13 -9 -16 -20 -8 -30
-33 -25 -33 7 0 38 27 63 67 63 35 0 73 -29 73 -55 0 -9 6 -12 15 -9 10 4 13
14 9 30 -14 53 55 99 103 68 12 -7 29 -11 38 -8 9 4 23 -1 33 -12 14 -16 17
-35 14 -111 -4 -89 -5 -94 -34 -118 -17 -14 -42 -25 -59 -25 -40 0 -86 25 -94
50 -9 27 -82 80 -101 73 -8 -3 -17 -17 -21 -33 -11 -39 -67 -99 -111 -117 -48
-20 -153 -22 -217 -3 -37 10 -65 29 -109 72 -33 32 -62 56 -64 53 -3 -2 1 -11
7 -19 9 -10 9 -16 1 -21 -15 -10 -47 21 -55 53 -3 14 -18 51 -33 81 -23 47
-34 57 -79 77 -51 23 -52 24 -43 55 21 72 64 90 116 48 46 -36 52 -36 46 0 -3
21 2 33 23 49 15 12 33 18 42 15 11 -5 14 -3 9 6 -5 8 -18 10 -32 7 -14 -4
-24 -2 -24 4 0 5 5 10 12 10 6 0 8 3 5 6 -4 4 -14 1 -22 -6 -11 -9 -12 -15 -5
-20 7 -4 3 -13 -11 -26 l-21 -19 8 40 c8 46 20 57 52 50 18 -4 22 -1 22 18 0
49 72 82 121 57z m1257 -20 c-3 -17 -1 -33 4 -36 17 -11 7 -34 -17 -40 -14 -3
-25 -10 -25 -15 0 -18 -15 -8 -27 18 -16 32 -17 63 -3 63 6 0 10 -4 10 -10 0
-5 5 -10 10 -10 6 0 10 4 10 10 0 10 31 50 38 50 3 0 2 -14 0 -30z m-1958 5
c0 -8 -7 -15 -15 -15 -8 0 -15 7 -15 15 0 8 7 15 15 15 8 0 15 -7 15 -15z
m1670 0 c0 4 7 2 15 -5 16 -13 21 -35 6 -25 -5 3 -12 -4 -16 -15 -10 -31 -22
-24 -17 10 3 18 0 30 -7 30 -6 0 -11 5 -11 11 0 8 5 8 15 -1 8 -7 15 -9 15 -5z
m-607 -64 c-3 -4 -8 0 -10 7 -3 6 -12 12 -20 12 -13 0 -13 -3 -3 -15 15 -18
-1 -20 -18 -3 -17 17 -27 1 -11 -19 10 -12 4 -10 -18 6 -29 20 -48 41 -24 26
6 -3 29 6 53 19 l43 24 7 -26 c4 -14 5 -28 1 -31z m347 49 c0 -5 -4 -10 -10
-10 -5 0 -10 5 -10 10 0 6 5 10 10 10 6 0 10 -4 10 -10z m63 -23 c-8 -13 29
-101 49 -119 24 -22 17 -35 -25 -43 -44 -9 -74 -30 -96 -65 l-18 -30 -12 24
c-12 21 -20 23 -89 24 -70 2 -91 10 -92 34 0 14 48 63 55 56 4 -4 0 -14 -9
-23 -18 -19 -22 -55 -5 -55 6 0 8 7 5 16 -8 22 11 44 38 44 17 0 18 2 6 10 -8
5 -11 12 -8 16 4 4 18 0 31 -9 31 -20 49 -8 52 37 2 38 26 65 58 66 9 0 17 5
17 10 0 6 7 10 15 10 9 0 12 6 8 17 -6 15 -5 16 9 3 9 -8 14 -18 11 -23z
m-1418 13 c10 -16 -14 -50 -35 -50 -19 0 -36 32 -25 50 8 13 52 13 60 0z m31
-37 c-10 -10 -19 5 -10 18 6 11 8 11 12 0 2 -7 1 -15 -2 -18z m839 7 c3 -5 1
-10 -4 -10 -6 0 -11 5 -11 10 0 6 2 10 4 10 3 0 8 -4 11 -10z m-1010 -38 c-8
-8 -25 10 -19 20 4 6 9 5 15 -3 4 -7 6 -15 4 -17z m1595 8 c6 -11 7 -20 2 -20
-6 0 -12 9 -15 20 -3 11 -3 20 -1 20 2 0 8 -9 14 -20z m490 -175 c0 -169 -2
-194 -15 -189 -8 4 -15 17 -15 29 0 38 -16 37 -59 -3 -46 -43 -49 -56 -23
-101 15 -28 15 -33 2 -41 -23 -14 -32 3 -34 63 -1 51 1 57 40 96 23 22 47 41
53 41 16 0 37 49 40 94 2 31 0 38 -12 33 -10 -4 -22 4 -31 19 -20 29 -36 31
-36 5 0 -10 -7 -24 -15 -31 -19 -16 -19 -60 -1 -85 14 -20 11 -45 -8 -57 -21
-14 -26 6 -26 98 l0 94 65 65 c35 36 67 65 70 65 3 0 5 -88 5 -195z m-220 159
c0 -8 5 -14 10 -14 14 0 13 -20 -2 -53 -14 -29 -45 -36 -66 -15 -19 19 -14 38
9 38 16 0 20 5 16 19 -5 22 11 54 24 46 5 -4 9 -13 9 -21z m-1712 -1 c-5 -25
-28 -28 -28 -4 0 12 6 21 16 21 9 0 14 -7 12 -17z m42 -3 c0 -5 -5 -10 -11
-10 -5 0 -7 5 -4 10 3 6 8 10 11 10 2 0 4 -4 4 -10z m-191 -14 c8 -10 9 -16 1
-21 -13 -8 -30 3 -30 21 0 18 14 18 29 0z m131 -32 c0 -8 -4 -12 -10 -9 -5 3
-10 10 -10 16 0 5 5 9 10 9 6 0 10 -7 10 -16z m-130 -14 c0 -5 -4 -10 -10 -10
-5 0 -10 5 -10 10 0 6 5 10 10 10 6 0 10 -4 10 -10z m577 -12 c-3 -8 -6 -5 -6
6 -1 11 2 17 5 13 3 -3 4 -12 1 -19z m1314 -35 c-9 -15 -10 -13 -11 13 0 17 3
34 8 38 11 12 14 -32 3 -51z m-1741 33 c0 -10 -7 -12 -22 -8 -21 5 -21 6 -2
13 10 4 20 8 22 8 1 1 2 -5 2 -13z m-140 -16 c0 -5 -2 -10 -4 -10 -3 0 -8 5
-11 10 -3 6 -1 10 4 10 6 0 11 -4 11 -10z m2010 -61 c0 -33 7 -36 26 -11 12
15 13 13 8 -18 -9 -47 -18 -56 -49 -42 -26 12 -35 54 -15 67 6 3 10 15 10 26
0 11 5 17 10 14 6 -3 10 -19 10 -36z m-1870 1 c0 -29 -29 -56 -67 -64 -42 -10
-57 -30 -56 -77 2 -49 -13 -51 -26 -3 -12 45 7 99 38 109 12 3 21 14 21 23 0
14 1 14 13 -2 15 -21 43 -13 50 15 7 25 27 24 27 -1z m-205 -10 c3 -5 1 -10
-4 -10 -6 0 -11 5 -11 10 0 6 2 10 4 10 3 0 8 -4 11 -10z m55 -26 c0 -8 -4
-12 -10 -9 -5 3 -10 10 -10 16 0 5 5 9 10 9 6 0 10 -7 10 -16z m-29 -24 c12 0
12 -37 -1 -45 -5 -3 -10 2 -10 12 0 10 -2 27 -4 38 -2 11 -1 14 1 8 3 -7 9
-13 14 -13z m130 -72 c1 -24 0 -47 -1 -53 -2 -5 -6 -28 -9 -50 -4 -30 -11 -41
-26 -43 -17 -2 -20 3 -20 35 0 24 6 40 15 45 12 5 12 7 -2 7 -21 1 -25 21 -4
21 16 0 29 27 19 42 -3 7 -1 8 5 4 16 -9 15 7 0 22 -9 9 -8 12 5 12 13 0 17
-10 18 -42z m1932 -57 c-2 -13 3 -21 12 -21 16 0 19 -17 9 -44 -9 -23 -61 -21
-74 3 -5 11 -10 28 -10 37 0 14 3 15 12 6 20 -20 28 -14 28 19 0 20 4 29 13
26 6 -2 11 -14 10 -26z m-840 -11 c20 0 57 -43 57 -66 0 -53 -83 -76 -114 -32
-14 20 -14 24 -1 43 15 20 19 27 31 63 4 11 8 13 11 5 3 -7 10 -13 16 -13z
m-474 -87 c28 -21 51 -44 51 -50 0 -23 2 -28 12 -41 18 -21 3 -24 -23 -4 -13
11 -38 26 -56 35 -43 23 -81 76 -62 88 21 13 24 12 78 -28z m1115 -93 l6 -105
-17 50 c-17 54 -22 119 -10 149 4 10 9 17 11 15 2 -2 6 -51 10 -109z m-543 84
c17 -21 16 -101 -2 -139 -21 -45 -91 -78 -165 -79 -52 -1 -66 3 -97 27 -45 34
-65 73 -58 111 5 23 15 32 55 47 27 10 54 23 60 29 15 15 22 12 34 -14 11 -24
48 -41 58 -25 9 15 64 10 70 -6 4 -8 -1 -26 -10 -40 -9 -14 -12 -25 -7 -25 14
0 31 34 31 59 0 12 -4 21 -10 21 -6 0 -5 10 2 25 13 29 21 31 39 9z m-444 -94
l28 1 -32 14 c-43 18 -44 40 -2 31 17 -3 49 -6 70 -6 47 0 52 -19 12 -50 -20
-16 -34 -19 -57 -14 -41 9 -73 31 -79 54 -8 32 6 32 19 0 10 -23 19 -30 41
-30z m-607 11 c8 -30 7 -56 -4 -108 -27 -126 -27 -158 -2 -266 58 -252 58
-326 -2 -338 -31 -6 -32 -5 -32 26 0 19 -8 39 -20 50 -17 16 -20 31 -20 109 0
54 6 107 15 131 21 58 19 124 -5 163 -26 42 -26 45 11 154 17 51 32 99 35 106
6 21 13 13 24 -27z m-170 -101 c0 -5 -5 -10 -11 -10 -5 0 -7 5 -4 10 3 6 8 10
11 10 2 0 4 -4 4 -10z m810 -64 c0 -2 -7 -7 -16 -10 -8 -3 -12 -2 -9 4 6 10
25 14 25 6z m1051 -48 c30 -59 86 -111 120 -112 l29 -1 0 -217 c0 -201 -1
-218 -17 -217 -10 0 -54 6 -98 12 l-80 12 -1 133 c-1 132 -1 132 23 132 12 0
23 4 23 9 0 4 16 11 36 14 45 8 64 23 64 53 0 27 -28 64 -47 64 -7 0 -13 6
-13 14 0 22 -21 31 -34 15 -6 -8 -22 -20 -35 -27 -23 -13 -24 -13 -18 10 4 12
7 54 7 91 0 76 8 79 41 15z m-580 -21 c-10 -9 -11 -8 -5 6 3 10 9 15 12 12 3
-3 0 -11 -7 -18z m-1176 -47 c11 -51 -21 -131 -76 -190 -27 -29 -52 -63 -55
-76 -9 -35 -24 -19 -24 25 0 32 9 48 56 101 61 69 74 94 74 146 0 41 16 37 25
-6z m-56 16 c16 -19 3 -76 -18 -76 -12 0 -13 2 -3 9 10 6 8 10 -10 15 l-23 7
25 11 25 11 -23 5 c-19 3 -21 6 -11 18 14 18 23 18 38 0z m1527 -26 c8 0 14
-5 14 -11 0 -23 -35 -3 -37 21 -1 15 0 18 3 8 3 -10 12 -18 20 -18z m-634 -92
c44 -46 92 -99 107 -118 57 -76 187 -177 275 -214 18 -8 65 -20 104 -27 l71
-13 20 -76 c12 -42 21 -82 21 -89 0 -11 -34 -12 -172 -7 -189 8 -299 19 -397
42 -79 19 -142 12 -236 -27 -55 -23 -95 -31 -189 -39 -75 -6 -123 -7 -129 -1
-6 6 -2 41 12 93 11 46 21 96 21 111 0 20 5 27 20 27 31 0 66 27 158 120 70
71 92 102 133 187 69 141 73 142 181 31z m964 36 c8 3 14 -1 14 -9 0 -8 7 -15
15 -15 24 0 17 -36 -10 -48 -25 -12 -85 -6 -85 8 0 4 -3 21 -6 38 -5 27 -4 30
14 26 14 -4 21 1 27 18 l8 23 4 -23 c3 -15 10 -22 19 -18z m-1906 6 c0 -5 -4
-10 -10 -10 -5 0 -10 5 -10 10 0 6 5 10 10 10 6 0 10 -4 10 -10z m23 -27 c-7
-2 -19 -2 -25 0 -7 3 -2 5 12 5 14 0 19 -2 13 -5z m1806 -51 c1 -15 -4 -22
-11 -19 -7 2 -13 9 -12 15 1 7 2 24 3 40 2 24 3 25 11 7 5 -11 9 -30 9 -43z
m-1764 -173 c0 -55 3 -103 6 -105 3 -2 6 -20 7 -41 1 -21 4 -51 8 -67 4 -20 3
-26 -5 -22 -6 4 -11 5 -11 2 0 -2 -3 -11 -6 -20 -4 -11 0 -16 12 -16 15 0 16
-2 5 -9 -8 -5 -11 -16 -8 -25 4 -9 1 -16 -6 -16 -9 0 -8 -3 1 -9 11 -7 10 -9
-3 -15 -9 -3 -13 -11 -10 -16 4 -6 1 -17 -5 -25 -14 -17 -6 -19 20 -5 11 6 17
17 14 25 -8 19 3 19 22 0 9 -8 27 -15 41 -15 l25 0 -32 -32 c-25 -27 -31 -40
-28 -68 l3 -35 -115 0 c-64 1 -121 4 -128 9 -15 9 -16 48 0 64 17 17 31 15 24
-4 -5 -14 -1 -16 34 -10 22 3 40 2 40 -2 0 -8 -29 -25 -60 -35 -8 -3 -1 -6 16
-6 20 -1 34 5 38 14 4 10 20 15 50 15 73 0 86 11 30 26 -27 7 -59 13 -71 14
-28 0 -29 8 -5 26 16 12 16 13 -2 20 -10 4 -21 2 -25 -3 -3 -6 -20 -18 -38
-27 -24 -12 -34 -13 -39 -4 -4 6 -2 14 4 16 6 2 28 15 48 29 33 22 38 23 46 9
12 -22 62 -22 54 0 -3 9 -6 20 -6 25 0 4 -7 5 -17 2 -11 -4 -14 -3 -9 6 5 7
15 10 24 6 17 -6 32 11 32 38 0 11 -8 17 -22 18 -22 2 -21 2 2 6 l24 5 -24 15
c-24 14 -24 14 -2 10 12 -3 22 -1 22 4 0 5 -7 9 -15 9 -8 0 -15 5 -15 10 0 6
8 10 18 10 11 0 18 8 19 20 2 17 -1 18 -18 10 -15 -8 -19 -7 -19 5 0 8 6 15
13 16 10 0 10 2 0 6 -18 7 -16 24 5 39 16 12 15 13 -5 14 -12 0 -25 5 -28 10
-4 7 2 9 19 4 36 -9 35 18 -1 34 l-28 12 30 -5 30 -5 -25 15 -25 14 25 2 c20
1 18 3 -10 9 l-35 7 35 3 35 2 -30 8 c-16 4 -24 8 -16 9 7 0 11 7 7 16 -4 11
1 15 17 15 18 0 19 2 7 10 -12 8 -12 10 5 10 17 0 17 2 5 10 -12 8 -12 10 5
10 19 0 20 -7 20 -101z m1580 13 c2 -15 9 -45 14 -67 15 -56 14 -85 -3 -85
-16 0 -40 34 -49 70 -4 13 -3 58 0 100 6 75 6 75 20 42 7 -18 15 -45 18 -60z
m-1525 -98 c0 -23 -18 -24 -24 -1 -11 41 -7 54 9 33 8 -11 15 -25 15 -32z m73
-151 c4 -53 5 -99 2 -101 -9 -9 -73 40 -79 61 -3 12 -6 48 -6 80 l0 57 38 0
39 0 6 -97z m1490 43 c19 -56 -16 -167 -43 -139 -9 8 -9 24 -1 63 6 28 11 65
11 81 0 37 20 34 33 -5z m231 19 c28 -8 63 -17 78 -20 26 -5 27 -7 25 -73 l-2
-67 -59 4 c-92 5 -113 26 -131 134 -5 33 -4 37 16 37 12 0 45 -7 73 -15z
m-1594 -110 c0 -59 -2 -65 -21 -65 -15 0 -19 5 -16 18 3 9 8 35 12 57 13 79
25 74 25 -10z m-293 -21 c-3 -3 -12 -4 -19 -1 -8 3 -5 6 6 6 11 1 17 -2 13 -5z
m949 -4 c14 -6 60 -13 100 -17 41 -3 72 -8 69 -11 -10 -10 -228 1 -268 14 -10
3 -39 -1 -65 -10 -121 -39 -164 -47 -257 -51 l-100 -4 120 18 c69 10 146 29
180 44 65 27 171 36 221 17z m-826 -25 c7 -8 19 -15 27 -15 8 0 12 -4 8 -9 -6
-11 -95 18 -95 31 0 14 47 8 60 -7z m795 -25 c23 -10 23 -10 -92 -15 -45 -2
-91 -9 -102 -15 -11 -5 -46 -9 -78 -9 l-58 1 49 9 c27 4 61 12 75 18 55 21
168 27 206 11z m400 -5 c-16 -7 -33 -11 -38 -8 -15 9 2 19 35 20 l33 2 -30
-14z m343 3 c-5 -16 -48 -24 -48 -9 0 8 17 16 43 20 5 0 7 -5 5 -11z m-551 -4
c-3 -3 -12 -4 -19 -1 -8 3 -5 6 6 6 11 1 17 -2 13 -5z m127 0 c30 -12 16 -19
-41 -21 -221 -9 -238 -9 -227 9 4 7 34 8 78 5 39 -3 80 -2 91 3 24 10 77 12
99 4z m241 -10 c-27 -8 -71 -21 -96 -29 -51 -16 -243 -20 -233 -4 3 5 37 9 75
9 39 0 80 5 92 12 26 15 94 25 162 26 l50 0 -50 -14z m509 0 c8 -20 -1 -34
-21 -34 -9 0 -13 6 -9 15 4 11 -2 15 -24 15 -17 0 -30 5 -30 10 0 17 77 12 84
-6z m-1704 -14 c0 -5 -6 -10 -12 -10 -8 0 -6 -5 4 -10 27 -17 11 -50 -26 -51
-19 -1 -6 -5 34 -13 57 -10 110 -30 110 -40 0 -2 -59 -4 -132 -5 -72 -1 -129
2 -125 5 4 4 24 16 45 26 20 10 29 16 20 13 -29 -7 -20 15 12 33 17 9 33 27
36 40 6 21 34 32 34 12z m117 -4 c-8 -19 32 -33 43 -16 6 9 21 10 56 4 58 -10
48 -8 154 -19 47 -4 101 -7 120 -6 20 1 56 -6 80 -14 32 -12 73 -15 142 -13
66 2 101 -1 109 -9 10 -10 -14 -11 -107 -6 -65 3 -127 10 -136 14 -9 5 -50 9
-91 9 -40 0 -99 5 -131 11 -32 6 -77 7 -100 3 -39 -6 -40 -7 -16 -17 14 -5 79
-18 144 -28 65 -11 125 -24 133 -30 22 -19 8 -21 -39 -6 -32 11 -77 15 -166
12 -112 -3 -122 -2 -122 15 0 10 -7 23 -15 30 -11 9 -12 15 -5 20 6 4 -3 7
-19 7 -33 0 -61 18 -61 39 0 8 7 14 16 14 10 0 14 -6 11 -14z m418 -17 c-22
-4 -60 -8 -85 -7 -37 0 -41 1 -20 8 14 4 52 8 85 8 57 0 58 -1 20 -9z m102 -5
c-3 -3 -12 -4 -19 -1 -8 3 -5 6 6 6 11 1 17 -2 13 -5z m243 -11 c134 -10 53
-23 -98 -15 -90 5 -115 8 -87 13 59 9 91 10 185 2z m155 -23 c-3 -5 -21 -10
-38 -9 -31 1 -31 1 -7 9 36 11 52 11 45 0z m119 -28 c3 -5 -1 -9 -9 -9 -8 0
-12 4 -9 9 3 4 7 8 9 8 2 0 6 -4 9 -8z m-424 -23 c0 -10 -34 -12 -79 -3 -50
10 -36 19 24 16 30 -2 55 -8 55 -13z m-745 -31 c99 1 203 4 230 6 28 3 42 3
32 0 -9 -3 -15 -10 -12 -15 4 -5 -66 -9 -172 -10 -98 0 -239 -3 -313 -5 -141
-5 -200 0 -200 17 0 7 17 9 48 5 27 -4 53 -2 62 4 9 7 39 8 80 4 36 -4 146 -6
245 -6z m512 -2 c12 -11 -2 -13 -72 -8 -53 4 -64 7 -45 13 27 9 107 5 117 -5z"/>
<path d="M960 3736 c0 -2 11 -24 25 -47 31 -54 31 -69 3 -69 -12 0 -18 -3 -15
-6 9 -10 197 -11 197 -2 0 5 -6 8 -14 8 -9 0 -15 15 -18 47 -3 38 0 47 14 51
10 2 18 8 18 13 0 5 -47 9 -105 9 -58 0 -105 -2 -105 -4z m89 -46 c-13 -37
-26 -38 -39 -4 -14 35 -14 34 19 34 29 0 30 -1 20 -30z m59 -17 c-3 -44 -5
-48 -30 -51 -33 -4 -35 6 -8 58 27 54 42 51 38 -7z"/>
<path d="M1085 3410 c-13 -14 -25 -18 -49 -13 -17 3 -32 10 -34 15 -7 18 -20
7 -26 -23 -5 -25 -9 -30 -23 -24 -49 21 -60 18 -61 -16 -1 -35 -15 -49 -50
-49 -22 0 -22 -1 -8 -22 21 -29 20 -35 -4 -41 -11 -3 -20 -11 -19 -19 0 -10 2
-10 6 0 2 6 8 10 12 8 4 -3 13 -1 21 4 11 7 12 14 2 34 -14 30 -13 31 35 11
47 -20 56 -19 50 5 -8 29 8 24 35 -10 64 -84 62 -82 88 -72 l25 10 -26 12
c-33 15 -57 87 -39 121 11 20 13 20 22 6 14 -26 28 -20 28 11 0 28 15 52 33
52 5 0 6 -11 3 -24 -7 -27 3 -39 23 -27 15 10 61 -9 61 -26 0 -6 -16 -30 -35
-53 -20 -24 -34 -47 -32 -53 7 -22 26 -17 43 10 30 48 55 71 72 67 9 -2 28 5
42 16 14 11 20 20 13 20 -6 0 -15 -4 -18 -10 -3 -5 -19 -10 -34 -10 -15 0 -33
-6 -40 -12 -10 -11 -11 -8 -6 13 4 17 1 31 -9 41 -13 13 -13 18 -1 34 10 15
16 16 26 7 6 -6 18 -9 26 -6 11 4 8 9 -9 18 -20 10 -27 9 -48 -10 -40 -35 -60
-39 -60 -10 0 32 -14 39 -35 15z m-55 -29 c0 -4 -7 -16 -15 -27 -8 -10 -15
-29 -15 -40 0 -29 28 -94 40 -94 6 0 10 -5 10 -12 0 -6 -11 -1 -25 12 -14 13
-25 29 -25 36 0 16 -62 62 -77 57 -7 -2 -9 -11 -6 -19 3 -8 -1 -14 -9 -14 -25
0 -27 11 -7 34 11 11 18 28 16 38 -4 14 -1 15 18 6 30 -14 55 -4 55 21 0 14 5
18 20 14 11 -3 20 -8 20 -12z m143 -113 c-10 -17 -24 -33 -32 -36 -8 -3 -1 12
15 32 36 44 42 46 17 4z"/>
<path d="M1408 3303 c6 -2 12 -13 12 -23 0 -10 5 -22 10 -25 11 -7 12 0 4 33
-4 12 -14 22 -23 21 -10 0 -11 -2 -3 -6z"/>
<path d="M905 3190 c-4 -6 -16 -8 -28 -5 -21 6 -21 5 -3 -6 15 -9 24 -9 37 0
29 17 56 13 73 -11 16 -22 16 -22 16 -1 0 13 -8 23 -22 27 -35 9 -66 7 -73 -4z"/>
<path d="M785 3180 c-11 -18 21 -74 69 -121 37 -37 51 -44 86 -45 25 0 36 2
28 7 -7 5 -25 9 -39 9 -30 0 -102 60 -125 105 -16 32 -14 38 10 29 9 -3 16
-16 16 -28 0 -13 13 -30 33 -43 33 -23 77 -31 77 -14 0 5 -8 7 -17 5 -29 -7
-82 31 -76 55 3 13 10 18 21 14 12 -5 11 -1 -4 14 -10 11 -23 16 -28 12 -5 -4
-17 -4 -27 1 -12 7 -20 6 -24 0z"/>
<path d="M911 3161 c-10 -7 -8 -9 10 -8 13 0 33 -3 44 -8 l20 -8 -20 16 c-23
19 -34 20 -54 8z"/>
<path d="M1030 3138 c0 -4 9 -8 19 -8 11 0 27 -3 37 -7 11 -4 15 -3 11 4 -8
13 -67 23 -67 11z"/>
<path d="M1124 3115 c-3 -14 -3 -33 2 -42 6 -15 9 -12 12 12 2 17 8 36 14 43
8 9 6 12 -6 12 -8 0 -18 -11 -22 -25z"/>
<path d="M1382 3118 c-15 -20 -46 -84 -34 -73 12 12 53 85 48 85 -2 0 -8 -6
-14 -12z"/>
<path d="M1010 3112 c0 -14 43 -23 54 -12 7 7 4 10 -6 10 -9 0 -23 3 -32 6 -9
3 -16 2 -16 -4z"/>
<path d="M1163 3099 c11 -7 23 -7 35 0 14 9 11 10 -18 10 -29 0 -32 -1 -17
-10z"/>
<path d="M787 3018 c-8 -24 -18 -51 -22 -60 -4 -10 -3 -18 3 -18 6 0 17 19 25
43 8 23 18 50 22 60 4 9 3 17 -3 17 -6 0 -17 -19 -25 -42z"/>
<path d="M1097 3024 c3 -8 -1 -14 -11 -14 -9 0 -16 -3 -16 -7 0 -5 20 -9 45
-9 25 -1 45 2 45 7 0 5 -10 9 -21 9 -17 0 -19 3 -10 14 9 11 7 14 -13 14 -17
0 -23 -5 -19 -14z"/>
<path d="M1310 3030 c-9 -6 -10 -10 -3 -10 6 0 15 5 18 10 8 12 4 12 -15 0z"/>
<path d="M1108 2973 c7 -3 16 -2 19 1 4 3 -2 6 -13 5 -11 0 -14 -3 -6 -6z"/>
<path d="M305 3300 c-18 -8 -17 -9 8 -9 15 -1 27 4 27 9 0 12 -8 12 -35 0z"/>
<path d="M504 2859 c-19 -22 -19 -22 4 -8 12 8 22 17 22 21 0 12 -6 9 -26 -13z"/>
<path d="M1793 3353 c9 -2 23 -2 30 0 6 3 -1 5 -18 5 -16 0 -22 -2 -12 -5z"/>
<path d="M1516 2932 c-7 -11 34 -45 43 -36 3 2 -4 14 -16 25 -13 13 -23 17
-27 11z"/>
<path d="M1472 2773 c6 -7 16 -13 22 -13 6 0 5 4 -3 9 -11 7 -10 10 5 14 12 3
9 4 -8 4 -21 -1 -24 -4 -16 -14z"/>
<path d="M1478 2743 c7 -3 16 -2 19 1 4 3 -2 6 -13 5 -11 0 -14 -3 -6 -6z"/>
<path d="M1468 2723 c6 -2 18 -2 25 0 6 3 1 5 -13 5 -14 0 -19 -2 -12 -5z"/>
<path d="M1468 2703 c6 -2 18 -2 25 0 6 3 1 5 -13 5 -14 0 -19 -2 -12 -5z"/>
<path d="M1480 2680 c0 -5 5 -10 11 -10 5 0 7 5 4 10 -3 6 -8 10 -11 10 -2 0
-4 -4 -4 -10z"/>
<path d="M1460 2600 c0 -5 5 -10 10 -10 6 0 10 5 10 10 0 6 -4 10 -10 10 -5 0
-10 -4 -10 -10z"/>
<path d="M1270 2590 c-24 -6 -24 -7 8 -11 17 -3 32 -2 32 2 0 13 -14 16 -40 9z"/>
<path d="M1408 2573 c7 -3 16 -2 19 1 4 3 -2 6 -13 5 -11 0 -14 -3 -6 -6z"/>
<path d="M1268 2553 c7 -3 16 -2 19 1 4 3 -2 6 -13 5 -11 0 -14 -3 -6 -6z"/>
<path d="M1333 2339 c9 -5 17 -15 17 -21 0 -9 -3 -9 -12 0 -15 15 -48 16 -48
1 0 -5 5 -7 11 -4 5 4 18 0 28 -9 17 -16 19 -16 25 0 7 18 -10 44 -28 44 -6 0
-3 -5 7 -11z"/>
<path d="M213 3168 c-15 -20 -25 -38 -20 -38 3 0 12 11 21 25 17 26 16 35 -1
13z"/>
<path d="M70 3059 c-7 -11 -10 -23 -7 -25 2 -2 9 7 15 21 14 30 7 33 -8 4z"/>
<path d="M1765 2969 c-34 -21 -29 -25 10 -7 14 6 25 15 25 20 0 10 1 10 -35
-13z"/>
<path d="M2041 2804 c0 -11 3 -14 6 -6 3 7 2 16 -1 19 -3 4 -6 -2 -5 -13z"/>
<path d="M849 2758 c-5 -18 -6 -38 -1 -34 7 8 12 36 6 36 -2 0 -4 -1 -5 -2z"/>
<path d="M862 2718 c-10 -13 -29 -67 -20 -58 7 7 37 70 33 70 -1 0 -7 -6 -13
-12z"/>
<path d="M985 2790 c-3 -6 1 -7 9 -4 18 7 21 14 7 14 -6 0 -13 -4 -16 -10z"/>
<path d="M1595 2510 c-3 -5 3 -10 15 -10 12 0 18 5 15 10 -3 6 -10 10 -15 10
-5 0 -12 -4 -15 -10z"/>
<path d="M1578 2473 c6 -2 18 -2 25 0 6 3 1 5 -13 5 -14 0 -19 -2 -12 -5z"/>
<path d="M1548 2373 c7 -3 16 -2 19 1 4 3 -2 6 -13 5 -11 0 -14 -3 -6 -6z"/>
<path d="M430 2426 c0 -2 8 -10 18 -17 15 -13 16 -12 3 4 -13 16 -21 21 -21
13z"/>
<path d="M1869 2523 c-13 -16 -12 -17 4 -4 9 7 17 15 17 17 0 8 -8 3 -21 -13z"/>
<path d="M690 2634 c0 -12 7 -27 15 -34 19 -16 19 -10 0 26 -13 25 -15 26 -15
8z"/>
<path d="M760 2630 c0 -5 5 -10 11 -10 5 0 7 5 4 10 -3 6 -8 10 -11 10 -2 0
-4 -4 -4 -10z"/>
<path d="M730 2608 c0 -5 18 -8 40 -8 22 0 40 2 40 4 0 2 -18 6 -40 8 -22 2
-40 0 -40 -4z"/>
<path d="M773 2583 c9 -2 25 -2 35 0 9 3 1 5 -18 5 -19 0 -27 -2 -17 -5z"/>
<path d="M957 2543 c-14 -15 -21 -15 -37 -5 -28 17 -49 15 -26 -3 19 -14 19
-15 1 -15 -10 0 -16 -2 -13 -5 9 -9 63 6 88 26 14 10 20 19 15 19 -6 0 -19 -8
-28 -17z"/>
<path d="M1707 2573 c-12 -11 -8 -23 8 -23 8 0 15 7 15 15 0 16 -12 20 -23 8z"/>
<path d="M1718 2383 c7 -3 16 -2 19 1 4 3 -2 6 -13 5 -11 0 -14 -3 -6 -6z"/>
<path d="M1635 2340 c3 -5 8 -10 11 -10 2 0 4 5 4 10 0 6 -5 10 -11 10 -5 0
-7 -4 -4 -10z"/>
<path d="M1630 2310 c0 -5 5 -10 11 -10 5 0 7 5 4 10 -3 6 -8 10 -11 10 -2 0
-4 -4 -4 -10z"/>
<path d="M1556 2255 c-22 -34 -20 -43 4 -15 18 21 26 40 16 40 -2 0 -11 -11
-20 -25z"/>
<path d="M1695 2260 c-27 -7 -27 -8 -5 -8 14 0 36 4 50 8 20 6 21 8 5 8 -11 0
-33 -4 -50 -8z"/>
<path d="M1596 2246 c3 -9 11 -16 16 -16 13 0 5 23 -10 28 -7 2 -10 -2 -6 -12z"/>
<path d="M1665 2230 c-7 -11 22 -26 32 -16 4 3 0 7 -8 7 -8 1 4 5 26 9 l40 7
-42 2 c-23 0 -45 -4 -48 -9z"/>
<path d="M1510 2220 c0 -5 5 -10 11 -10 5 0 7 5 4 10 -3 6 -8 10 -11 10 -2 0
-4 -4 -4 -10z"/>
<path d="M1520 2174 c0 -5 7 -18 15 -28 12 -16 15 -17 15 -4 0 8 -7 21 -15 28
-8 7 -15 9 -15 4z"/>
<path d="M1500 2157 c0 -3 7 -18 15 -33 l16 -29 -3 29 c-2 16 -9 31 -15 34 -7
2 -13 2 -13 -1z"/>
<path d="M1475 2130 c-5 -8 -4 -11 2 -7 7 4 13 -11 17 -38 4 -24 12 -48 18
-51 8 -5 9 -1 5 10 -4 10 -7 28 -7 40 0 31 -24 63 -35 46z"/>
<path d="M1436 2121 c-4 -5 5 -18 19 -27 20 -13 25 -24 25 -60 0 -24 4 -44 8
-44 5 0 5 23 2 50 -7 52 -41 103 -54 81z"/>
<path d="M1770 2085 c0 -12 -7 -14 -27 -9 -22 6 -25 4 -20 -10 4 -10 7 -20 7
-22 0 -12 29 -2 34 12 5 13 9 14 21 4 10 -8 15 -9 15 -2 0 6 -5 14 -10 17 -6
4 -8 11 -5 16 4 5 1 9 -4 9 -6 0 -11 -7 -11 -15z"/>
<path d="M1520 2081 c0 -6 5 -13 10 -16 6 -3 10 1 10 9 0 9 -4 16 -10 16 -5 0
-10 -4 -10 -9z"/>
<path d="M1878 1703 c7 -3 16 -2 19 1 4 3 -2 6 -13 5 -11 0 -14 -3 -6 -6z"/>
<path d="M1713 1448 c2 -7 10 -13 17 -13 7 0 15 6 18 13 2 7 -5 12 -18 12 -13
0 -20 -5 -17 -12z"/>
<path d="M1216 2474 c-4 -9 -4 -19 -1 -22 2 -3 7 3 11 12 4 9 4 19 1 22 -2 3
-7 -3 -11 -12z"/>
<path d="M1138 2390 c-14 -9 -15 -16 -6 -40 12 -37 29 -38 45 -4 12 26 12 26
-9 8 -21 -19 -21 -19 -8 5 10 19 10 22 -1 16 -9 -6 -11 -3 -6 8 7 20 7 20 -15
7z"/>
<path d="M898 2223 c6 -2 18 -2 25 0 6 3 1 5 -13 5 -14 0 -19 -2 -12 -5z"/>
<path d="M937 2175 c27 -19 74 -37 81 -31 4 5 -82 46 -96 46 -4 0 3 -7 15 -15z"/>
<path d="M1120 2149 c0 -6 -9 -25 -21 -42 l-21 -32 26 28 c23 25 35 57 21 57
-3 0 -5 -5 -5 -11z"/>
<path d="M786 2068 c-9 -12 -16 -32 -16 -43 1 -15 4 -12 14 11 8 18 22 37 33
43 16 9 16 10 1 11 -9 0 -24 -10 -32 -22z"/>
<path d="M815 2054 c-9 -9 -13 -19 -10 -22 3 -3 11 1 18 10 6 9 19 18 27 21
12 4 12 6 -2 6 -9 1 -24 -6 -33 -15z"/>
<path d="M931 2051 c-10 -10 -28 -22 -40 -26 -12 -3 -21 -11 -21 -16 0 -10 34
7 65 33 11 9 31 18 45 21 25 4 24 4 -2 6 -16 0 -36 -7 -47 -18z"/>
<path d="M1026 2046 c21 -15 30 -14 19 3 -3 6 -14 11 -23 11 -13 0 -13 -2 4
-14z"/>
<path d="M985 2030 c28 -12 37 -12 30 0 -3 6 -16 10 -28 9 -21 0 -21 -1 -2 -9z"/>
<path d="M925 2008 c-27 -18 -28 -19 -5 -13 26 8 47 22 39 28 -2 3 -17 -4 -34
-15z"/>
<path d="M1356 2009 c22 -25 9 -54 -25 -53 -11 0 -21 -3 -21 -8 0 -14 48 -9
64 8 21 20 20 37 -2 57 -26 24 -39 21 -16 -4z"/>
<path d="M988 1993 c7 -3 16 -2 19 1 4 3 -2 6 -13 5 -11 0 -14 -3 -6 -6z"/>
<path d="M1053 1975 c12 -13 24 -20 25 -14 5 13 -17 39 -33 39 -9 0 -6 -9 8
-25z"/>
<path d="M1095 1990 c-3 -5 0 -7 8 -4 8 3 18 1 22 -5 10 -17 25 -13 19 4 -7
17 -40 20 -49 5z"/>
<path d="M1310 1996 c0 -2 7 -9 15 -16 12 -10 15 -10 15 4 0 9 -7 16 -15 16
-8 0 -15 -2 -15 -4z"/>
<path d="M1210 1970 c0 -5 5 -10 10 -10 6 0 10 5 10 10 0 6 -4 10 -10 10 -5 0
-10 -4 -10 -10z"/>
<path d="M748 1959 c-10 -5 -18 -20 -18 -32 0 -21 1 -21 13 3 8 16 21 25 35
24 12 0 22 3 22 8 0 11 -31 10 -52 -3z"/>
<path d="M757 1933 c-4 -3 -7 -16 -6 -27 0 -14 2 -16 6 -6 3 8 12 21 21 28 14
10 14 12 1 12 -9 0 -19 -3 -22 -7z"/>
<path d="M570 1905 c-6 -8 -10 -20 -7 -27 4 -8 6 -7 6 4 1 9 9 22 19 27 9 6
12 11 6 11 -6 0 -17 -7 -24 -15z"/>
<path d="M885 1885 c-25 -24 -31 -49 -19 -79 11 -28 24 -17 18 14 -8 36 16 77
48 83 l23 4 -23 2 c-13 0 -34 -10 -47 -24z"/>
<path d="M955 1891 c-48 -23 -42 -27 9 -6 29 12 40 13 56 3 22 -14 26 -28 8
-28 -9 0 -9 -3 0 -12 7 -7 12 -22 12 -35 0 -37 17 -26 23 15 4 30 1 41 -20 60
-29 27 -37 27 -88 3z"/>
<path d="M594 1892 c-14 -9 -25 -52 -13 -52 5 0 9 9 9 20 0 12 10 24 23 30 12
5 15 9 7 9 -8 0 -20 -3 -26 -7z"/>
<path d="M1130 1869 c0 -6 9 -8 21 -4 15 5 22 2 26 -14 5 -21 23 -30 23 -12 0
27 -15 41 -41 41 -16 0 -29 -5 -29 -11z"/>
<path d="M610 1859 c0 -5 5 -7 10 -4 6 3 10 8 10 11 0 2 -4 4 -10 4 -5 0 -10
-5 -10 -11z"/>
<path d="M945 1860 c-14 -7 -8 -8 20 -3 22 3 42 7 44 9 9 8 -45 2 -64 -6z"/>
<path d="M1128 1833 c7 -3 16 -2 19 1 4 3 -2 6 -13 5 -11 0 -14 -3 -6 -6z"/>
<path d="M1386 1798 c-8 -12 -13 -25 -9 -31 3 -5 10 2 17 14 6 13 22 26 36 30
l25 7 -27 1 c-17 1 -32 -7 -42 -21z"/>
<path d="M1233 1770 c-23 -9 -32 -40 -13 -40 6 0 10 6 10 14 0 17 35 30 51 20
8 -4 9 -3 5 4 -8 14 -22 14 -53 2z"/>
<path d="M786 1741 c-3 -4 6 -6 19 -3 14 2 25 6 25 8 0 8 -39 4 -44 -5z"/>
<path d="M756 1685 c4 -8 10 -15 15 -15 4 0 6 7 3 15 -4 8 -10 15 -15 15 -4 0
-6 -7 -3 -15z"/>
<path d="M840 1683 c1 -16 36 -51 66 -66 43 -22 127 -32 150 -18 16 8 10 10
-30 11 -69 0 -123 19 -151 52 -24 28 -35 35 -35 21z"/>
<path d="M1370 1664 c0 -14 40 -49 65 -58 11 -4 16 -4 10 1 -5 4 -25 21 -42
37 -18 17 -33 25 -33 20z"/>
<path d="M1505 1640 c-3 -5 -16 -11 -28 -11 -16 -1 -17 -3 -5 -6 9 -2 29 3 45
11 19 10 22 15 11 16 -9 0 -20 -4 -23 -10z"/>
<path d="M800 1632 c0 -22 93 -92 122 -92 7 0 -2 8 -20 17 -18 8 -46 31 -62
49 -30 34 -40 41 -40 26z"/>
<path d="M1369 1623 c13 -26 47 -46 64 -39 8 3 7 5 -2 5 -8 1 -28 13 -44 29
-26 24 -28 24 -18 5z"/>
<path d="M1146 1609 c-45 -45 -159 -52 -231 -14 -26 14 -50 23 -53 21 -3 -3
19 -17 49 -31 76 -35 148 -34 222 3 42 22 54 24 47 12 -11 -21 -54 -50 -89
-60 -20 -6 -21 -8 -7 -9 29 -1 105 38 117 61 8 16 8 23 -2 29 -20 13 -32 10
-53 -12z"/>
<path d="M1505 1610 c-3 -5 -2 -10 4 -10 5 0 13 5 16 10 3 6 2 10 -4 10 -5 0
-13 -4 -16 -10z"/>
<path d="M948 1533 c6 -2 18 -2 25 0 6 3 1 5 -13 5 -14 0 -19 -2 -12 -5z"/>
<path d="M1583 2008 c-12 -13 -23 -36 -25 -53 -2 -20 -11 -34 -28 -42 -24 -12
-24 -13 -3 -13 27 0 56 40 47 64 -7 19 11 45 41 56 14 6 15 9 4 9 -8 1 -25 -9
-36 -21z"/>
<path d="M1620 1992 c-12 -10 -24 -30 -25 -46 -2 -15 -9 -35 -16 -44 -10 -13
-8 -12 9 2 13 11 22 31 22 46 0 17 9 34 23 43 12 9 19 16 16 16 -4 1 -17 -7
-29 -17z"/>
<path d="M1452 1898 c-15 -15 -16 -28 -2 -28 6 0 10 6 10 14 0 8 8 17 18 19
13 4 13 5 2 6 -9 0 -21 -4 -28 -11z"/>
<path d="M1569 1853 c-13 -16 -12 -17 4 -4 9 7 17 15 17 17 0 8 -8 3 -21 -13z"/>
<path d="M1250 1589 c-14 -24 -6 -49 14 -49 21 0 70 20 64 26 -3 2 -18 0 -33
-6 -32 -12 -40 -8 -31 16 5 13 9 14 22 4 11 -10 18 -10 26 -2 8 8 4 14 -16 22
-35 13 -33 13 -46 -11z"/>
<path d="M1374 1495 c1 -46 16 -46 16 0 0 19 -4 35 -8 35 -5 0 -8 -16 -8 -35z"/>
<path d="M1091 1454 c-1 -25 8 -40 39 -68 34 -31 47 -36 88 -36 55 0 126 30
142 59 15 28 2 27 -21 -3 -10 -13 -39 -29 -64 -36 -79 -22 -153 15 -175 86
l-8 29 -1 -31z"/>
<path d="M1120 1470 c0 -5 14 -25 31 -45 25 -28 38 -35 68 -35 20 0 43 5 51
10 10 6 4 8 -22 4 -30 -5 -43 -1 -72 21 -20 15 -36 34 -36 41 0 8 -4 14 -10
14 -5 0 -10 -4 -10 -10z"/>
<path d="M2083 964 c9 -3 14 -10 11 -16 -4 -6 -1 -9 5 -7 22 8 16 24 -9 26
-15 1 -18 0 -7 -3z"/>
<path d="M2050 947 c0 -10 -12 -22 -27 -28 -28 -10 -23 -23 12 -32 19 -5 19
-5 -2 -12 -13 -4 -23 -13 -23 -20 0 -8 10 -15 23 -18 21 -3 21 -4 -5 -15 -16
-6 -28 -17 -28 -24 0 -9 3 -9 12 0 23 23 38 13 38 -23 0 -19 5 -35 10 -35 6 0
10 15 10 34 0 33 2 35 38 38 55 4 50 31 -8 39 l-45 6 40 2 40 3 -40 12 -40 13
30 5 30 5 -29 2 c-22 1 -26 4 -18 14 7 8 6 18 -4 31 -12 18 -14 18 -14 3z"/>
<path d="M2108 923 c6 -2 18 -2 25 0 6 3 1 5 -13 5 -14 0 -19 -2 -12 -5z"/>
<path d="M428 383 c7 -3 16 -2 19 1 4 3 -2 6 -13 5 -11 0 -14 -3 -6 -6z"/>
<path d="M693 443 c9 -2 25 -2 35 0 9 3 1 5 -18 5 -19 0 -27 -2 -17 -5z"/>
<path d="M206 2974 c-5 -14 -4 -15 9 -4 17 14 19 20 6 20 -5 0 -12 -7 -15 -16z"/>
<path d="M198 2916 c2 -17 7 -40 12 -51 5 -11 11 -31 14 -45 6 -27 44 -75 53
-66 3 3 -4 17 -16 32 -11 15 -21 33 -21 40 0 7 -8 29 -17 49 -14 29 -15 40 -5
55 9 16 9 18 -6 17 -14 -1 -17 -8 -14 -31z"/>
<path d="M89 2926 c9 -11 9 -15 -1 -19 -8 -3 -5 -6 7 -6 10 -1 35 -16 54 -33
19 -18 29 -24 21 -13 -17 23 -80 85 -87 85 -3 0 0 -6 6 -14z"/>
<path d="M177 2915 c-4 -8 -2 -17 3 -20 6 -4 10 3 10 14 0 25 -6 27 -13 6z"/>
<path d="M85 2874 c17 -9 38 -23 48 -32 9 -8 17 -11 17 -6 -1 13 -40 40 -70
48 -22 6 -21 4 5 -10z"/>
<path d="M83 2839 c12 -7 15 -17 11 -33 -3 -13 -1 -27 5 -30 18 -11 13 -26
-11 -36 -14 -5 -17 -9 -8 -9 9 -1 21 4 28 11 16 16 87 -19 73 -36 -12 -15 -13
-104 -1 -111 6 -4 10 -17 10 -31 0 -19 -5 -25 -17 -22 -15 3 -18 14 -18 66 0
34 -3 62 -8 62 -4 0 -7 6 -6 13 1 6 1 19 0 27 -1 12 -4 12 -12 -3 -5 -9 -8
-21 -5 -26 3 -5 0 -14 -7 -20 -11 -8 -13 -4 -11 22 l3 32 -9 -35 c-5 -19 -5
-36 0 -38 4 -2 4 -17 -1 -35 -11 -40 -11 -116 2 -142 6 -14 8 -1 4 42 -4 36
-2 64 4 67 6 4 8 13 5 21 -3 8 0 23 8 33 11 17 13 6 10 -74 -2 -52 1 -94 6
-94 4 0 6 16 4 37 -4 31 -2 35 13 29 10 -3 24 -1 31 5 11 9 14 6 14 -20 0 -50
17 -36 24 22 14 98 15 146 6 152 -5 3 -14 -3 -19 -14 -14 -25 -14 -34 -1 -26
12 7 13 -25 1 -43 -11 -19 -17 -1 -20 61 -2 38 1 47 15 47 24 0 -22 35 -58 44
-26 6 -60 46 -39 46 5 0 12 -4 15 -9 8 -12 46 -21 46 -11 0 10 -84 70 -97 70
-4 0 0 -5 10 -11z m129 -281 c-7 -7 -12 -8 -12 -2 0 14 12 26 19 19 2 -3 -1
-11 -7 -17z"/>
<path d="M376 2073 c-4 -5 -13 -8 -19 -8 -7 -1 -11 -6 -9 -13 1 -7 -2 -12 -8
-12 -5 0 -10 -4 -10 -10 0 -5 5 -9 12 -7 6 1 13 -7 15 -18 3 -11 6 -27 9 -35
8 -23 24 8 24 48 0 20 4 31 10 27 6 -3 10 2 10 11 0 16 -1 16 -19 0 -11 -10
-17 -26 -15 -39 4 -20 4 -20 -6 2 -8 19 -7 28 6 42 16 18 16 27 0 12z"/>
<path d="M470 2041 c0 -6 5 -13 10 -16 6 -3 8 -17 6 -31 -3 -15 0 -24 9 -24
10 0 11 8 3 40 -9 35 -28 56 -28 31z"/>
<path d="M420 2025 c0 -8 2 -15 4 -15 2 0 6 7 10 15 3 8 1 15 -4 15 -6 0 -10
-7 -10 -15z"/>
<path d="M590 2015 c7 -8 9 -23 6 -32 -6 -14 -4 -15 4 -7 14 14 4 54 -12 54
-6 0 -6 -6 2 -15z"/>
<path d="M329 1996 c9 -10 9 -16 1 -21 -6 -4 -8 -16 -4 -27 4 -14 2 -18 -5
-14 -7 4 -11 -1 -11 -13 0 -29 7 -26 25 9 20 38 19 66 -1 74 -14 5 -15 4 -5
-8z"/>
<path d="M565 1981 c0 -16 3 -27 8 -24 4 2 7 15 7 29 0 13 -3 24 -7 24 -5 0
-8 -13 -8 -29z"/>
<path d="M346 1925 c-9 -13 -18 -37 -20 -52 -7 -44 -18 -73 -27 -73 -12 0 -11
17 1 25 13 8 13 55 -1 55 -6 0 -9 -8 -6 -17 2 -10 -3 -30 -10 -45 -7 -16 -11
-28 -7 -28 4 0 0 -8 -7 -17 -12 -14 -9 -13 16 2 56 36 72 50 67 64 -3 10 0 12
11 8 24 -9 33 30 12 53 -10 11 -15 26 -12 35 9 22 1 18 -17 -10z m25 -50 c5 4
9 2 9 -3 0 -10 -41 -24 -48 -17 -2 2 0 10 4 17 5 7 9 16 10 21 4 20 7 20 11
-1 2 -12 9 -20 14 -17z"/>
<path d="M585 1640 c-3 -5 -1 -10 4 -10 6 0 11 5 11 10 0 6 -2 10 -4 10 -3 0
-8 -4 -11 -10z"/>
<path d="M360 1620 c0 -5 5 -10 11 -10 5 0 7 5 4 10 -3 6 -8 10 -11 10 -2 0
-4 -4 -4 -10z"/>
<path d="M500 1624 c0 -17 27 -37 42 -31 8 4 7 6 -4 6 -9 1 -22 9 -27 19 -6 9
-11 12 -11 6z"/>
<path d="M21 1439 c-1 -167 7 -289 18 -289 9 0 1 379 -9 420 -5 23 -8 -20 -9
-131z"/>
<path d="M510 1394 c0 -9 5 -14 12 -12 18 6 21 28 4 28 -9 0 -16 -7 -16 -16z"/>
<path d="M920 1368 c14 -7 28 -18 32 -24 4 -6 19 -9 33 -6 32 6 20 21 -21 28
-16 3 -38 7 -49 9 -14 4 -12 1 5 -7z"/>
<path d="M106 1194 c-17 -12 -17 -14 -4 -14 9 0 20 5 23 11 11 17 2 18 -19 3z"/>
<path d="M80 1139 c-11 -20 -11 -20 14 -4 30 20 32 25 11 25 -8 0 -19 -9 -25
-21z"/>
<path d="M1557 263 c-23 -4 -26 -7 -17 -18 7 -9 10 -40 8 -80 l-3 -65 30 1
c17 0 24 3 18 6 -15 6 -18 83 -3 83 5 0 16 -15 24 -34 12 -30 41 -56 61 -56 3
0 -6 16 -21 35 -25 33 -26 38 -13 63 7 15 14 30 16 34 2 3 -4 14 -13 22 -15
16 -31 17 -87 9z m61 -35 c-5 -34 -38 -37 -38 -4 0 20 5 26 21 26 15 0 20 -5
17 -22z"/>
<path d="M1742 261 c-25 -16 -9 -55 31 -74 27 -14 37 -25 37 -43 0 -19 -5 -24
-24 -24 -13 0 -29 7 -36 15 -15 17 -30 11 -30 -13 0 -13 10 -18 41 -19 57 -4
79 10 79 51 0 30 -4 34 -41 45 -29 9 -39 17 -37 29 3 18 48 30 48 13 0 -6 5
-11 10 -11 6 0 10 9 10 20 0 16 -7 20 -37 20 -21 0 -44 -4 -51 -9z"/>
<path d="M872 252 c-18 -3 -21 -6 -12 -17 7 -9 10 -40 8 -80 l-3 -65 46 0 c30
0 51 6 59 15 17 21 4 32 -20 17 -44 -27 -52 -17 -49 57 2 39 1 71 -1 73 -3 2
-15 2 -28 0z"/>
<path d="M1036 239 c-21 -17 -26 -29 -26 -65 0 -39 4 -47 33 -64 44 -28 74
-25 108 9 47 47 36 109 -22 130 -45 16 -63 14 -93 -10z m102 -61 c4 -55 -15
-76 -56 -62 -44 15 -50 93 -9 112 39 17 62 0 65 -50z"/>
<path d="M1180 250 c0 -5 4 -10 8 -10 5 0 25 -34 46 -75 20 -42 41 -73 46 -70
5 3 16 31 25 63 9 31 23 67 31 80 14 21 13 22 -12 22 -19 0 -25 -4 -20 -15 3
-8 1 -25 -3 -38 -5 -12 -12 -31 -16 -42 -5 -17 -10 -12 -31 29 -20 39 -22 51
-12 57 8 6 -1 9 -24 9 -21 0 -38 -4 -38 -10z"/>
<path d="M1385 175 l0 -85 41 0 c28 0 47 6 59 20 22 24 13 39 -10 16 -17 -16
-45 -22 -45 -8 0 4 -3 18 -7 31 -5 20 -3 22 16 16 17 -5 21 -2 21 15 0 17 -4
20 -20 15 -17 -5 -20 -2 -20 24 0 24 4 31 19 31 10 0 22 -7 25 -16 7 -18 26
-10 26 12 0 10 -13 14 -52 14 l-53 0 0 -85z"/>
<path d="M255 240 c-70 -4 -80 -7 -80 -24 0 -27 21 -31 28 -6 8 29 27 25 29
-7 2 -52 1 -78 -6 -101 -6 -19 -4 -22 21 -22 28 0 28 0 28 67 0 64 1 68 24 71
13 2 27 -2 31 -8 9 -15 30 -4 30 15 0 18 -15 21 -105 15z"/>
<path d="M385 239 c4 -6 7 -42 6 -80 -1 -65 0 -69 22 -69 19 0 22 5 22 37 0
36 2 38 34 41 l33 3 -4 -40 c-3 -39 -2 -41 25 -41 23 0 27 3 19 13 -12 14 -19
118 -8 135 5 8 -2 12 -23 12 -28 0 -30 -2 -20 -19 18 -28 4 -51 -31 -51 -28 0
-30 3 -30 35 0 31 -3 35 -26 35 -15 0 -23 -4 -19 -11z"/>
<path d="M581 170 l3 -80 46 0 c43 0 70 13 70 32 0 14 -27 9 -40 -7 -21 -25
-38 -17 -42 20 -4 34 14 51 25 23 8 -22 27 5 21 30 -7 26 -19 29 -28 6 -9 -22
-26 -7 -26 23 0 24 2 25 40 20 22 -3 40 -1 40 4 0 5 -25 9 -56 9 l-55 0 2 -80z"/>
<path d="M1883 118 c2 -7 10 -13 17 -13 7 0 15 6 18 13 2 7 -5 12 -18 12 -13
0 -20 -5 -17 -12z"/>
<path d="M1950 30 c0 -6 45 -10 115 -10 70 0 115 4 115 10 0 6 -45 10 -115 10
-70 0 -115 -4 -115 -10z"/>
</g>
</svg>
