<?xml version="1.0" standalone="no"?>
<!DOCTYPE svg PUBLIC "-//W3C//DTD SVG 20010904//EN"
 "http://www.w3.org/TR/2001/REC-SVG-20010904/DTD/svg10.dtd">
<svg version="1.0" xmlns="http://www.w3.org/2000/svg"
 width="212.000000pt" height="370.000000pt" viewBox="0 0 212.000000 370.000000"
 preserveAspectRatio="xMidYMid meet">
<metadata>
Created by potrace 1.16, written by Peter Selinger 2001-2019
</metadata>
<g transform="translate(0.000000,370.000000) scale(0.100000,-0.100000)"
fill="#000000" stroke="none">
<path d="M28 3177 c-9 -1296 -5 -3158 6 -3165 6 -4 166 -5 356 -2 190 3 397 4
460 3 422 -5 1245 -2 1252 5 8 8 14 3046 7 3452 l-4 215 -1037 2 -1037 2 -3
-512z m1350 481 l332 2 -4 -22 c-3 -13 -16 -70 -30 -128 -13 -58 -43 -196 -65
-306 -23 -111 -48 -224 -56 -250 -19 -62 -19 -74 1 -74 8 0 12 4 9 10 -3 5 6
12 20 16 43 11 71 -34 30 -48 -19 -6 -19 -6 3 -7 12 -1 22 -7 22 -16 0 -11 -5
-12 -22 -5 -13 5 -36 12 -53 16 l-30 7 25 7 c14 3 -15 7 -67 7 -73 1 -93 -2
-97 -14 -5 -12 -11 -11 -41 7 -19 12 -35 19 -35 16 0 -3 -12 -1 -27 4 -16 5
-47 14 -69 20 -25 6 -44 17 -47 28 -2 9 -8 25 -12 35 -6 13 -2 17 18 17 37 0
77 36 77 71 0 19 5 29 15 29 8 0 15 -7 15 -15 0 -24 27 -29 55 -11 13 9 29 16
34 16 9 0 78 43 91 57 11 11 -46 -10 -61 -23 -21 -19 -56 -18 -56 1 0 10 6 14
14 10 17 -6 96 72 98 97 1 9 7 24 15 33 12 15 10 15 -23 -1 -20 -10 -37 -24
-37 -31 0 -7 -5 -13 -10 -13 -7 0 -7 7 1 21 30 56 -39 92 -94 49 -14 -11 -36
-20 -49 -20 -22 1 -22 1 -4 15 10 8 24 16 30 18 6 2 8 7 4 11 -3 4 -20 0 -38
-9 -23 -12 -30 -22 -28 -38 3 -19 9 -22 41 -20 41 3 46 -6 19 -30 -14 -13 -21
-14 -30 -5 -9 9 -15 9 -24 0 -19 -19 -32 -15 -71 23 -35 34 -56 42 -71 28 -4
-4 -24 -6 -44 -5 -49 4 -132 -15 -154 -35 -17 -15 -22 -14 -67 10 -27 15 -63
27 -80 27 -39 0 -87 -24 -101 -50 -6 -11 -19 -20 -29 -20 -11 0 -21 -7 -25
-15 -9 -24 6 -18 58 25 51 42 74 47 138 30 47 -13 51 -21 54 -88 1 -42 6 -59
22 -71 11 -9 28 -32 37 -51 26 -51 74 -107 96 -113 19 -5 27 -37 10 -37 -6 0
-30 -12 -55 -27 -71 -43 -101 -111 -101 -228 1 -84 3 -95 42 -176 27 -57 48
-89 62 -94 21 -6 33 -44 35 -114 0 -31 -6 -45 -38 -77 -36 -36 -111 -153 -160
-248 -19 -37 -19 -39 -1 -52 10 -8 19 -28 20 -50 2 -42 -28 -133 -39 -115 -4
6 -20 11 -36 11 -24 0 -32 6 -44 34 -23 56 -90 77 -133 44 -13 -10 -53 6 -53
22 0 13 -36 13 -63 -1 -34 -17 -106 -98 -113 -126 -4 -14 -2 -40 3 -58 6 -19
7 -39 2 -46 -5 -8 -6 -27 -3 -42 3 -16 1 -34 -6 -42 -7 -8 -10 -26 -6 -39 7
-28 -7 -36 -60 -36 -140 0 -219 -195 -115 -283 l28 -23 -23 -11 c-18 -8 -32
-6 -68 11 l-45 21 -1 556 c0 306 3 880 7 1277 l6 721 101 3 c56 2 279 1 496
-2 217 -3 545 -4 728 -2z m696 1 c2 -2 7 -299 10 -659 4 -488 3 -647 -6 -625
-6 17 -15 35 -20 41 -11 14 -98 44 -128 44 -13 0 -18 4 -15 11 11 17 -15 96
-39 117 -34 33 -87 35 -139 8 -72 -39 -114 -27 -86 25 5 11 9 28 7 37 -2 9
-14 -11 -26 -45 -24 -65 -43 -84 -37 -35 2 15 5 29 6 32 1 3 2 24 3 48 1 37
-1 42 -18 38 -10 -3 -25 1 -32 9 -12 11 -8 18 23 44 21 17 32 31 26 31 -7 0
-28 -14 -48 -31 -25 -22 -35 -27 -35 -15 0 8 16 28 35 43 23 19 30 30 22 35
-8 5 -4 8 10 8 27 0 33 -10 55 -80 12 -39 17 -47 17 -28 1 25 4 27 43 25 35
-2 44 2 54 23 17 33 4 47 -53 56 l-45 7 7 61 c4 33 13 88 20 121 8 33 32 166
55 295 22 129 45 263 51 297 l11 62 52 3 c65 4 216 2 220 -3z m-324 -2 c0 -9
-60 -299 -74 -357 -16 -68 -19 -86 -11 -79 7 7 33 113 56 224 11 55 24 114 29
130 4 17 11 42 14 58 4 15 10 27 14 27 5 0 2 -37 -4 -82 -19 -124 -72 -427
-83 -473 -5 -22 -15 -68 -22 -102 -11 -58 -28 -79 -43 -54 -3 5 3 59 14 121
12 62 19 117 17 123 -2 6 -11 -37 -22 -94 -22 -126 -30 -149 -50 -149 -16 0
-16 4 6 90 4 19 18 85 29 145 24 123 85 392 101 443 6 17 15 32 20 32 5 0 9
-2 9 -3z m-360 -387 c0 -5 -7 -7 -15 -4 -8 4 -15 8 -15 10 0 2 7 4 15 4 8 0
15 -4 15 -10z m-20 -28 c-8 -2 -23 -14 -32 -26 -10 -11 -18 -15 -18 -8 0 19
39 54 52 46 9 -6 8 -9 -2 -12z m-315 -29 c-16 -2 -41 -13 -55 -24 -24 -19 -25
-20 -6 -34 13 -10 23 -12 30 -5 5 5 17 10 26 9 10 0 11 -2 3 -6 -23 -9 -14
-29 27 -64 41 -35 49 -54 28 -62 -8 -3 -6 -6 5 -6 11 -1 17 6 17 19 0 15 7 20
29 20 44 0 46 17 5 30 -22 8 -32 15 -25 19 6 4 9 15 5 24 -4 12 -11 14 -31 6
-42 -16 -60 -9 -23 9 19 9 39 27 45 40 14 32 28 27 20 -8 -7 -32 10 -44 18
-12 4 14 5 14 6 -3 0 -11 -6 -31 -15 -43 -8 -12 -11 -22 -7 -22 5 0 16 12 25
28 11 16 18 21 18 12 0 -9 -5 -21 -12 -28 -9 -9 -9 -12 0 -12 7 0 12 5 12 11
0 5 5 7 12 3 6 -4 8 -3 4 4 -3 6 -2 13 4 17 14 9 12 -18 -2 -34 -11 -11 -10
-13 5 -8 10 4 17 1 17 -6 0 -22 -23 -37 -57 -37 -18 0 -33 -4 -33 -10 0 -14
63 -13 78 2 6 6 14 9 18 6 12 -12 -37 -48 -63 -47 l-28 1 25 8 c23 8 23 8 -8
9 -33 1 -33 0 -27 -31 19 -87 50 -128 93 -120 19 4 14 -33 -8 -53 -25 -22
-101 -31 -139 -15 -16 6 -35 24 -41 40 -10 23 -8 35 8 69 22 46 17 51 -21 21
-35 -28 -48 -25 -80 15 -35 44 -47 77 -40 106 5 18 3 21 -10 16 -10 -4 -18 1
-22 14 -9 26 3 59 21 59 8 0 14 10 14 23 1 20 2 20 11 5 11 -20 39 -24 39 -6
0 26 44 57 80 56 33 -1 33 -1 5 -5z m55 -38 c-11 -14 -15 -14 -35 -1 -17 11
-25 12 -34 3 -8 -8 -11 -8 -11 0 0 17 29 24 50 13 27 -14 33 -12 25 8 -5 13
-4 14 6 5 10 -10 9 -16 -1 -28z m280 25 c0 -5 -5 -10 -11 -10 -5 0 -7 5 -4 10
3 6 8 10 11 10 2 0 4 -4 4 -10z m-25 -30 c3 -5 2 -10 -4 -10 -5 0 -13 5 -16
10 -3 6 -2 10 4 10 5 0 13 -4 16 -10z m-80 -20 c-3 -5 -12 -10 -18 -10 -7 0
-6 4 3 10 19 12 23 12 15 0z m-415 -14 c0 -3 -4 -8 -10 -11 -5 -3 -10 -1 -10
4 0 6 5 11 10 11 6 0 10 -2 10 -4z m400 -20 c0 -3 -4 -8 -10 -11 -5 -3 -10 -1
-10 4 0 6 5 11 10 11 6 0 10 -2 10 -4z m383 -195 c8 -8 2 -10 -23 -5 -60 12
-80 25 -31 20 24 -2 48 -9 54 -15z m-369 -57 c18 -7 12 -49 -11 -75 -11 -13
-13 -33 -9 -80 5 -56 4 -60 -5 -29 -17 55 -25 60 -98 60 -61 0 -69 3 -113 38
-26 20 -47 40 -48 45 0 13 23 7 44 -12 45 -40 141 -48 190 -15 24 15 30 28 29
62 -1 14 0 14 21 6z m61 -24 c-3 -4 5 -10 16 -13 13 -4 20 -11 16 -20 -3 -8
-1 -20 4 -28 6 -10 9 -10 9 -1 0 6 9 12 20 12 11 0 20 -4 20 -10 0 -5 -6 -10
-12 -10 -9 0 -8 -3 2 -10 14 -9 20 -31 21 -73 0 -9 4 -15 9 -12 5 3 11 1 15
-5 3 -5 -1 -10 -10 -10 -9 0 -13 -4 -10 -10 3 -5 2 -17 -3 -27 -7 -12 -12 3
-17 55 -4 40 -11 72 -15 72 -11 0 -1 -109 13 -138 8 -18 7 -26 -4 -37 -13 -13
-15 -12 -16 12 -2 57 -16 142 -22 139 -4 -3 -2 -43 3 -91 7 -63 6 -89 -2 -97
-9 -9 -12 -5 -12 15 0 23 -2 26 -14 15 -8 -7 -10 -14 -5 -16 16 -6 10 -22 -8
-22 -14 0 -15 -2 -5 -9 11 -6 10 -10 -5 -16 -44 -18 -73 -23 -78 -14 -4 5 -13
9 -22 9 -22 0 -92 33 -93 43 0 5 -15 26 -32 49 -37 46 -125 95 -140 80 -6 -6
-16 -8 -23 -5 -17 6 -37 -30 -29 -51 7 -18 -21 -66 -38 -66 -14 0 -4 136 14
177 33 77 84 93 140 44 50 -43 71 -51 136 -51 64 0 62 1 86 -72 3 -10 10 -18
15 -18 16 0 22 36 12 79 -8 36 -5 49 17 95 16 32 32 52 39 49 7 -3 11 -9 8
-13z m146 4 c38 -6 65 -24 36 -24 -8 0 -17 -6 -20 -14 -4 -11 -14 -12 -43 -6
-20 5 -41 13 -47 19 -15 15 0 44 19 37 9 -3 33 -9 55 -12z m57 -41 c-10 -2
-18 -12 -18 -20 0 -9 -3 -14 -6 -10 -12 11 5 37 23 36 17 -1 17 -2 1 -6z m148
-4 c39 -10 44 -14 38 -33 -9 -28 -6 -28 -45 -15 -41 14 -35 10 -43 37 -8 26
-9 26 50 11z m-198 -31 c5 -7 8 -24 7 -38 -2 -14 -4 -33 -4 -42 -1 -10 -5 -18
-11 -18 -13 0 -27 28 -35 73 -6 33 -5 37 13 37 11 0 24 -6 30 -12z m36 -89
c-6 -11 -24 -2 -24 11 0 5 7 7 15 4 8 -4 12 -10 9 -15z m56 -15 c0 -8 -4 -12
-10 -9 -5 3 -10 10 -10 16 0 5 5 9 10 9 6 0 10 -7 10 -16z m-30 -4 c0 -5 -12
-13 -27 -16 -70 -17 -60 -47 12 -39 l40 5 -32 -15 c-39 -18 -44 -29 -7 -14 15
5 29 7 33 4 8 -8 -20 -25 -42 -25 -10 0 -22 -11 -27 -24 -13 -35 -62 -77 -85
-74 -32 5 -30 44 6 112 39 72 48 83 80 89 42 8 49 7 49 -3z m-487 -59 c15 -14
27 -34 27 -45 1 -32 24 -57 51 -54 21 3 23 0 20 -44 -1 -29 2 -48 8 -48 6 0
11 6 11 14 0 8 7 17 16 20 8 3 12 10 9 16 -4 6 -11 8 -16 5 -5 -4 -9 0 -9 7 0
8 10 13 25 13 27 -2 28 -5 18 -32 -4 -9 -1 -19 5 -21 7 -2 12 -10 12 -17 0 -8
5 -17 12 -21 8 -5 9 0 5 15 -7 27 29 72 71 87 26 10 29 9 25 -7 -4 -12 6 -30
28 -51 19 -17 26 -29 17 -25 -10 3 -20 2 -23 -4 -4 -5 -11 -7 -16 -4 -5 4 -9
1 -9 -5 0 -6 -4 -9 -9 -5 -11 6 -26 -13 -17 -22 3 -3 11 -1 18 4 23 18 45 22
45 8 0 -8 -3 -14 -6 -13 -3 0 -13 0 -21 -1 -12 -1 -12 -4 3 -12 21 -13 22 -35
1 -47 -13 -7 -14 -11 -4 -17 7 -4 15 -2 19 4 4 6 7 -33 7 -88 -1 -55 -5 -103
-9 -107 -4 -5 -7 10 -5 31 4 72 -2 145 -12 145 -5 0 -7 -7 -3 -16 3 -9 0 -20
-8 -25 -10 -6 -10 -9 -1 -9 19 0 15 -57 -5 -69 -10 -6 -13 -11 -6 -11 6 0 16
-14 22 -31 15 -42 14 -49 -4 -49 -11 0 -14 7 -9 25 5 20 3 24 -9 19 -9 -3 -13
-12 -10 -20 3 -8 0 -14 -6 -14 -6 0 -11 11 -11 24 0 14 -4 27 -9 30 -4 3 -7
-6 -5 -21 3 -28 -16 -53 -40 -53 -18 0 -22 35 -6 45 6 3 8 17 6 31 -3 13 0 24
5 24 12 0 12 -47 -1 -71 -7 -11 -7 -19 -1 -19 13 0 20 40 24 155 2 55 2 81 0
58 -2 -24 -8 -43 -13 -43 -5 0 -7 -7 -4 -15 4 -8 1 -15 -6 -15 -8 0 -10 12 -5
43 4 23 4 39 -1 34 -4 -4 -11 -50 -14 -102 -3 -52 -9 -97 -13 -101 -18 -18
-61 -2 -126 46 -58 44 -70 58 -67 77 3 12 0 25 -5 28 -16 11 -10 25 9 18 14
-5 14 -3 -3 11 -20 17 -20 17 5 11 60 -15 100 -17 100 -6 0 6 14 11 32 11 42
0 103 45 86 64 -7 8 -19 11 -27 8 -10 -4 -13 -1 -8 12 4 10 3 15 -3 11 -13 -8
-13 -42 1 -50 15 -10 -38 -36 -57 -28 -10 4 -12 9 -4 18 7 9 6 16 -4 24 -10 8
-20 7 -42 -5 l-29 -16 34 6 35 6 -23 -24 c-19 -21 -27 -23 -54 -15 -33 9 -67
43 -94 94 -9 17 -22 34 -29 38 -8 5 -14 25 -14 47 0 22 -4 40 -10 40 -5 0 -6
8 -3 18 6 15 5 15 -10 3 -9 -7 -17 -27 -17 -43 0 -36 48 -128 67 -128 7 0 13
-7 13 -15 0 -48 -70 37 -90 110 -12 43 -11 49 14 94 14 27 26 57 26 67 0 11
10 24 23 30 25 12 63 -4 110 -45z m497 29 c0 -5 -6 -10 -12 -10 -7 0 -23 -3
-35 -6 -13 -4 -23 -2 -23 4 0 9 20 17 58 21 6 0 12 -3 12 -9z m301 -61 c20
-22 29 -41 29 -65 0 -33 -6 -41 -45 -69 -11 -7 -17 -16 -13 -20 4 -4 17 0 30
9 29 20 66 20 129 0 36 -12 53 -24 60 -41 14 -36 11 -86 -6 -110 -10 -14 -12
-24 -5 -28 11 -7 18 8 30 59 5 19 8 -25 9 -113 1 -127 -1 -142 -14 -131 -17
14 -79 8 -101 -11 -8 -6 -14 -23 -13 -38 l1 -26 9 26 c13 35 56 53 92 40 26
-10 27 -12 27 -96 0 -61 -3 -85 -12 -85 -7 0 -24 -3 -37 -7 -20 -5 -22 -3 -17
15 7 20 4 21 -23 16 -19 -4 -37 -2 -46 6 -18 15 -20 51 -3 68 9 9 8 12 -5 12
-21 0 -32 -42 -17 -69 14 -28 97 -66 132 -62 l28 3 0 -101 c0 -57 -4 -101 -9
-101 -17 0 -21 16 -11 49 5 19 5 29 -1 26 -5 -4 -9 -12 -9 -19 0 -7 -14 -27
-31 -44 -28 -28 -38 -32 -85 -32 -45 0 -59 5 -89 31 -19 17 -35 26 -35 20 0
-22 -70 -12 -96 14 -34 34 -29 66 12 77 17 4 37 15 44 23 16 19 3 19 -30 0
-29 -17 -64 -20 -55 -5 4 6 -8 10 -30 10 -72 0 -122 60 -110 134 10 69 67 116
140 116 26 0 45 5 45 11 0 7 -16 9 -50 4 -34 -5 -50 -3 -50 4 0 6 -11 16 -25
21 -41 16 -65 66 -65 139 0 62 1 65 40 103 42 39 105 72 121 62 5 -3 9 0 9 6
0 19 -30 23 -49 6 -13 -12 -21 -14 -26 -6 -4 6 -13 9 -21 6 -22 -9 -28 21 -10
49 9 14 20 42 24 62 7 34 11 38 38 38 17 0 37 5 45 12 51 42 112 42 150 2z
m-336 -66 c-14 -9 -15 -16 -7 -26 12 -14 5 -31 -18 -41 -8 -3 -2 -4 13 -2 18
2 25 0 19 -6 -18 -18 -57 -5 -60 20 -4 30 61 116 67 87 2 -10 -5 -24 -14 -32z
m95 17 c0 -5 -4 -10 -10 -10 -5 0 -10 5 -10 10 0 6 5 10 10 10 6 0 10 -4 10
-10z m-20 -30 c0 -6 -4 -10 -10 -10 -5 0 -10 -5 -10 -11 0 -6 -6 -25 -14 -42
-8 -18 -19 -49 -26 -69 -15 -50 -71 -111 -94 -102 -9 4 -15 12 -12 19 2 7 -1
18 -7 25 -9 10 -8 12 6 7 18 -7 24 8 7 18 -5 3 -7 22 -4 43 4 20 6 49 6 65 -1
34 14 36 22 2 6 -23 20 -30 56 -25 23 2 42 32 35 57 -8 35 4 54 26 42 10 -5
19 -14 19 -19z m-673 -32 c-3 -8 -6 -5 -6 6 -1 11 2 17 5 13 3 -3 4 -12 1 -19z
m670 -89 c-9 -5 -27 -24 -41 -42 l-26 -32 22 52 c19 46 24 51 41 41 18 -9 18
-11 4 -19z m-185 -74 c-2 -19 1 -42 8 -50 15 -18 46 -20 57 -2 4 6 19 21 32
32 l23 20 -7 -33 c-13 -62 3 -120 47 -168 l40 -44 -23 -20 c-13 -10 -27 -19
-30 -20 -14 0 -29 -55 -29 -102 0 -47 4 -54 40 -89 26 -25 51 -39 72 -41 30
-3 33 -6 36 -39 5 -54 41 -84 102 -85 34 0 56 -6 71 -20 28 -26 138 -27 165
-2 18 15 20 15 42 -2 15 -13 22 -29 22 -54 0 -38 -10 -45 -30 -21 -27 33 -100
2 -100 -43 0 -14 -7 -17 -39 -14 -76 7 -118 -70 -66 -119 13 -13 25 -30 25
-36 0 -20 47 -45 70 -38 11 3 20 2 20 -4 0 -5 10 -13 22 -17 21 -6 21 -7 -7
-21 -41 -22 -132 -12 -152 16 -8 12 -22 21 -31 21 -14 0 -17 11 -17 66 0 61
-2 68 -32 94 -57 51 -153 50 -224 -3 -28 -20 -31 -21 -40 -4 -13 23 -72 23
-95 0 -9 -10 -35 -23 -58 -28 -56 -15 -90 -64 -83 -122 4 -41 3 -43 -29 -53
-55 -19 -78 -88 -50 -155 8 -19 13 -35 11 -35 -2 0 -10 -3 -18 -6 -25 -9 -34
157 -12 216 24 66 81 234 107 320 21 69 25 75 52 77 31 2 41 9 41 26 0 7 14
12 30 13 58 1 64 4 81 40 15 31 16 41 5 68 -7 17 -21 57 -31 88 -10 32 -28 78
-40 102 -19 41 -20 47 -6 79 8 19 17 66 19 104 4 47 3 57 -3 33 -7 -30 -7 -28
-4 15 2 28 4 60 4 73 0 12 4 22 8 22 4 0 6 -16 4 -35z m-415 -17 c-3 -7 -5 -2
-5 12 0 14 2 19 5 13 2 -7 2 -19 0 -25z m10 -65 c-3 -10 -5 -2 -5 17 0 19 2
27 5 18 2 -10 2 -26 0 -35z m263 -33 c0 -5 -2 -10 -4 -10 -3 0 -8 5 -11 10 -3
6 -1 10 4 10 6 0 11 -4 11 -10z m97 -32 c-3 -8 -6 -5 -6 6 -1 11 2 17 5 13 3
-3 4 -12 1 -19z m-326 -43 c21 -19 67 -49 101 -67 55 -27 73 -32 135 -31 40 0
70 -3 67 -8 -3 -5 1 -9 8 -9 11 0 10 -2 0 -9 -11 -7 -10 -9 3 -15 9 -3 13 -10
10 -16 -3 -5 -2 -10 3 -10 5 0 15 -21 21 -46 7 -25 18 -56 26 -68 38 -58 13
-123 -37 -98 -18 9 -19 11 -3 7 11 -2 27 0 35 5 11 7 3 10 -30 11 -27 1 -35 3
-20 6 14 3 29 9 34 13 5 5 1 7 -10 4 -33 -9 -53 17 -64 86 -13 87 -11 129 4
66 7 -27 18 -52 25 -54 9 -3 10 0 2 14 -6 11 -15 37 -21 60 -5 22 -16 41 -23
41 -10 0 -11 -17 -1 -91 6 -50 9 -97 7 -103 -3 -7 0 -13 7 -13 6 0 8 -4 5 -10
-15 -24 -23 -3 -35 95 -7 58 -16 108 -20 110 -3 2 -3 -19 1 -48 4 -29 8 -80 8
-113 1 -94 9 -123 32 -117 10 3 19 0 19 -6 0 -6 -9 -11 -20 -11 -25 0 -84 29
-76 37 3 3 13 0 22 -8 15 -12 16 -11 10 18 -4 17 -7 71 -7 120 -1 98 -8 151
-18 134 -4 -6 -6 -29 -5 -51 1 -22 -3 -40 -7 -40 -5 0 -9 25 -9 57 0 31 -3 54
-6 50 -3 -3 -5 -75 -5 -161 1 -87 -3 -157 -8 -161 -18 -11 -24 89 -12 198 12
108 10 157 -3 77 -3 -22 -11 -40 -16 -40 -5 0 -6 -7 -3 -17 4 -11 3 -14 -5 -9
-7 4 -12 2 -12 -3 0 -6 6 -11 13 -11 8 0 11 -14 9 -45 -3 -38 -7 -45 -26 -45
-21 -1 -21 -1 -2 -15 19 -15 19 -15 -5 -16 -24 -1 -24 -1 4 -12 16 -6 27 -18
27 -30 0 -24 18 -57 31 -57 5 0 14 10 19 23 5 12 9 17 9 10 1 -7 8 -10 16 -7
19 8 19 2 -4 -65 -11 -31 -36 -107 -55 -169 -20 -62 -42 -125 -50 -140 -13
-27 -31 -132 -27 -163 2 -20 -49 -32 -82 -20 -67 26 -77 94 -26 168 l32 46 -2
141 c-2 140 -2 141 25 174 22 26 34 32 66 32 32 0 39 3 36 18 -2 9 -14 19 -27
20 -15 2 -21 0 -17 -7 5 -7 -2 -11 -17 -11 -25 0 -38 17 -36 48 0 14 2 13 10
-3 7 -14 7 -7 3 25 -4 25 -6 68 -6 95 l0 50 -12 -50 c-11 -43 -14 -46 -19 -25
-3 14 -3 -8 0 -48 l5 -73 -28 7 c-86 19 -90 26 -77 119 4 35 11 49 25 53 15 4
16 7 6 20 -10 12 -10 16 -1 19 7 2 9 11 6 19 -3 8 1 14 8 14 11 0 11 3 -1 10
-13 8 -12 10 4 10 15 0 16 3 6 15 -8 10 -9 15 -2 15 6 0 9 7 6 15 -11 28 -21
5 -50 -115 -27 -110 -42 -138 -59 -110 -3 6 -2 10 4 10 5 0 9 8 9 18 -1 29 10
73 23 88 6 8 9 14 6 14 -6 0 15 54 50 127 12 24 17 47 12 54 -5 9 -10 4 -15
-17 -4 -16 -21 -58 -37 -94 -42 -93 -67 -169 -67 -202 0 -29 -14 -38 -23 -15
-4 9 -8 8 -16 -3 -9 -13 -11 -13 -11 3 0 9 7 17 16 17 14 0 14 3 4 15 -10 12
-9 15 6 15 16 0 17 2 4 10 -12 8 -12 10 -1 10 11 0 11 3 0 17 -12 15 -12 16 4
10 15 -6 17 -3 12 14 -5 15 -4 19 4 14 8 -5 10 1 5 19 -4 16 -2 26 5 26 6 0
11 10 11 23 -1 14 -13 -2 -36 -48 -37 -75 -50 -92 -60 -82 -7 6 123 233 154
270 23 26 50 21 93 -18z m274 -35 c3 -5 1 -10 -4 -10 -6 0 -11 5 -11 10 0 6 2
10 4 10 3 0 8 -4 11 -10z m76 -92 c6 -12 17 -44 24 -72 7 -28 16 -60 20 -71 5
-13 5 -17 -2 -10 -9 9 -63 154 -63 169 0 13 10 5 21 -16z m-151 -108 c0 -5 -2
-10 -4 -10 -3 0 -8 5 -11 10 -3 6 -1 10 4 10 6 0 11 -4 11 -10z m-183 -82 c-3
-8 -6 -5 -6 6 -1 11 2 17 5 13 3 -3 4 -12 1 -19z m-118 -57 c11 -6 42 -16 70
-22 28 -6 51 -15 51 -20 0 -9 -84 -126 -104 -144 -6 -5 -31 -37 -56 -70 -24
-33 -65 -82 -91 -108 -34 -35 -47 -56 -47 -75 2 -52 -67 -152 -105 -152 -31 0
-67 39 -67 72 0 57 61 158 96 158 19 0 44 41 44 71 0 15 7 46 16 70 8 24 27
82 40 129 33 112 44 128 83 122 22 -3 31 0 32 9 0 8 4 4 9 -8 5 -12 18 -26 29
-32z m-428 8 c32 -30 34 -30 42 -11 12 25 58 37 86 22 29 -15 40 -40 39 -89 0
-23 5 -48 12 -54 10 -9 11 -5 8 20 -3 25 0 33 16 37 12 3 27 -2 36 -12 16 -16
15 -25 -12 -112 -42 -137 -44 -140 -74 -140 -24 0 -26 3 -20 30 4 25 2 30 -13
30 -10 0 -23 -6 -29 -13 -14 -16 -154 -21 -197 -7 -48 16 -87 100 -52 113 10
3 10 9 0 26 -25 41 -14 111 18 111 10 0 19 6 19 14 0 17 56 66 75 66 7 0 28
-14 46 -31z m816 5 c-3 -3 -12 -4 -19 -1 -8 3 -5 6 6 6 11 1 17 -2 13 -5z m3
-24 c0 -5 -4 -10 -9 -10 -6 0 -13 5 -16 10 -3 6 1 10 9 10 9 0 16 -4 16 -10z
m-315 -287 c-2 -83 -5 -96 -34 -142 -17 -28 -31 -64 -31 -80 0 -16 -7 -34 -15
-41 -19 -16 -19 -80 0 -127 12 -29 13 -38 3 -44 -8 -5 -15 -1 -20 10 -24 67
-151 66 -204 -1 -24 -31 -44 -25 -44 12 0 19 6 29 20 33 13 3 20 14 20 30 0
49 79 211 144 296 23 31 67 89 97 129 53 72 54 73 60 45 3 -15 5 -69 4 -120z
m1031 102 c4 -8 13 -15 20 -15 12 0 14 -20 12 -112 l-3 -113 -33 -3 c-19 -2
-44 4 -57 12 -14 9 -34 16 -45 16 -34 0 -62 19 -56 38 4 12 -2 21 -17 27 -25
11 -35 58 -16 81 14 17 80 19 97 2 7 -7 13 -8 13 -2 1 5 3 19 4 31 1 12 5 28
8 37 8 21 66 21 73 1z m-316 -90 c36 -34 45 -73 30 -122 -23 -70 -83 -106
-118 -71 -19 19 -27 0 -8 -21 16 -18 16 -19 -8 -25 -13 -3 -41 -21 -61 -40
-19 -19 -51 -37 -70 -40 -42 -8 -96 13 -119 45 -22 33 -20 91 5 123 24 31 11
35 -16 5 -20 -21 -25 -75 -12 -121 6 -22 4 -28 -8 -28 -30 0 -73 -30 -87 -60
-7 -16 -20 -30 -29 -30 -26 0 -53 26 -46 44 4 9 3 16 -1 16 -4 0 -8 17 -9 39
-2 45 29 82 71 85 25 1 26 3 20 44 -4 25 -1 54 6 71 17 43 90 70 90 34 0 -16
14 -10 16 8 1 5 2 13 3 19 2 18 50 42 71 35 23 -7 27 -25 6 -25 -8 0 -17 -9
-21 -19 -3 -10 -15 -21 -25 -24 -11 -3 -20 -13 -20 -24 1 -17 1 -17 14 0 7 9
21 17 30 17 9 0 16 7 16 15 0 18 41 29 76 21 22 -6 25 -4 19 14 -5 16 0 23 27
35 51 23 122 14 158 -20z m-1371 2 c6 -8 28 -19 48 -25 45 -13 170 -13 196 0
12 6 17 5 17 -3 0 -7 7 -20 15 -29 14 -15 14 -19 0 -30 -12 -10 -20 -7 -46 14
-30 25 -37 27 -113 23 -58 -3 -85 0 -94 10 -7 7 -22 13 -33 13 -12 0 -19 7
-19 20 0 23 13 26 29 7z m22 -74 c0 -16 3 -22 6 -15 8 21 21 13 15 -10 -5 -22
-4 -22 27 5 45 38 117 38 154 1 25 -24 25 -26 10 -62 -8 -20 -18 -39 -22 -42
-14 -10 -51 -101 -51 -125 0 -14 -6 -43 -12 -65 -12 -39 -14 -40 -56 -40 -39
0 -45 3 -54 28 -9 24 -15 27 -49 24 -24 -3 -39 0 -39 7 0 6 -11 11 -25 11 -17
0 -23 -4 -19 -14 3 -8 -2 -16 -13 -19 -17 -4 -17 -4 2 -11 59 -21 70 -31 68
-67 0 -18 -4 -47 -8 -62 -7 -28 -7 -28 28 -22 21 4 37 3 41 -4 4 -6 -11 -39
-33 -73 -22 -34 -37 -67 -33 -72 3 -6 8 -4 10 4 3 8 16 29 29 46 12 17 23 35
23 40 0 5 18 25 41 44 27 23 53 60 75 108 19 39 38 72 43 72 5 0 1 -16 -10
-36 -19 -38 -14 -66 14 -77 18 -7 11 -51 -9 -68 -8 -6 -14 -20 -14 -31 0 -12
-6 -18 -17 -16 -13 2 -18 -4 -19 -24 -1 -28 -36 -64 -91 -95 -32 -17 -34 -17
-68 1 -27 15 -38 17 -47 8 -7 -7 -26 -12 -44 -12 -18 0 -34 -6 -37 -12 -2 -7
-8 -9 -13 -5 -4 4 -2 18 6 30 16 26 22 67 9 67 -4 0 -15 -12 -24 -27 l-16 -28
7 35 c9 52 29 79 54 73 27 -7 110 6 110 18 0 5 -9 9 -21 9 -15 0 -19 5 -15 15
4 11 -1 15 -19 15 -13 0 -27 4 -30 10 -3 5 -27 7 -53 4 l-47 -6 25 21 c14 12
36 24 50 27 40 9 70 23 70 32 0 5 -12 7 -27 4 -25 -5 -27 -4 -14 11 12 15 10
17 -25 17 -48 -1 -113 -15 -126 -28 -6 -6 -10 -27 -10 -48 0 -26 -6 -43 -21
-54 -13 -11 -18 -23 -14 -35 6 -13 10 -15 21 -6 17 14 26 -13 26 -76 0 -40 -1
-42 -29 -40 -26 2 -30 6 -35 46 -10 76 -7 301 5 301 5 0 27 -10 49 -22 37 -22
39 -22 58 -4 13 11 28 15 41 11 32 -10 26 20 -6 34 -46 20 -68 59 -68 121 1
100 72 173 149 152 28 -8 36 -6 50 9 9 11 27 19 41 19 20 0 25 -5 26 -27z
m1424 -92 c3 -6 -4 -15 -15 -21 -11 -6 -20 -17 -20 -25 0 -19 16 -19 24 0 6
16 47 21 60 8 4 -5 29 -8 54 -8 65 -1 129 -42 137 -89 4 -19 4 -44 0 -55 -4
-12 -2 -21 4 -21 12 0 4 -59 -10 -75 -15 -16 -10 -25 16 -25 l25 0 0 -114 c0
-73 -4 -117 -11 -122 -6 -3 -29 -1 -50 6 -30 10 -45 11 -65 1 -21 -9 -31 -8
-53 5 -26 15 -29 15 -74 -14 -43 -27 -53 -29 -115 -26 -37 3 -82 9 -101 14
-25 7 -41 5 -64 -6 -63 -33 -247 -39 -247 -9 0 14 -22 25 -47 25 -21 0 -113
59 -113 72 0 6 7 7 16 4 13 -5 15 -1 10 18 -8 34 19 60 54 52 26 -5 27 -3 26
39 -1 55 42 112 99 132 44 15 62 12 94 -18 18 -17 25 -19 31 -8 7 10 14 11 32
2 64 -31 85 -26 64 15 -8 15 -12 39 -9 54 7 39 60 98 88 98 13 0 27 5 30 10 8
13 48 13 62 -1 6 -6 17 -8 24 -4 8 6 4 12 -14 22 l-27 14 33 29 c35 32 43 35
52 21z m274 -110 l-1 -86 -11 50 c-10 39 -19 54 -47 73 -19 13 -36 27 -38 32
-5 12 35 22 59 15 14 -5 19 -4 15 4 -5 7 -1 9 8 5 13 -5 16 -23 15 -93z
m-1472 -31 c21 -16 36 -20 62 -16 l34 5 -21 -22 c-11 -12 -22 -31 -24 -42 -6
-34 -46 -31 -84 6 -35 34 -37 44 -17 114 6 19 6 19 14 -1 4 -12 20 -31 36 -44z
m370 -12 c17 -16 39 -23 83 -26 62 -5 65 -8 60 -56 -1 -10 3 -22 10 -26 7 -5
6 -11 -6 -21 -16 -12 -17 -12 -11 3 5 14 -1 17 -31 20 -29 2 -37 8 -42 27 -8
34 -26 37 -34 6 -8 -30 -41 -34 -56 -6 -11 22 -14 101 -3 101 4 0 17 -10 30
-22z m432 -24 c14 -18 21 -22 21 -11 0 10 13 16 43 19 23 3 49 8 57 11 12 6
14 -1 12 -43 -4 -47 -13 -62 -26 -41 -3 5 -22 12 -41 15 -19 3 -50 9 -69 12
-71 13 -164 -56 -181 -133 -4 -21 -13 -33 -23 -33 -19 0 -52 -28 -52 -45 0 -7
-8 -19 -19 -29 -17 -16 -18 -14 -25 41 -4 37 -3 59 4 61 5 2 10 12 10 22 0 10
9 21 19 25 12 3 21 17 23 33 2 22 8 27 33 29 17 0 36 2 42 2 7 1 19 17 27 36
25 59 108 76 145 29z m-1023 -83 c11 -15 26 -21 55 -21 21 0 39 -3 39 -6 0
-10 -23 -49 -46 -76 -19 -23 -24 -25 -34 -13 -7 8 -23 15 -35 15 -21 0 -22 4
-18 44 4 35 1 48 -15 64 -19 19 -19 19 10 17 16 -1 36 -11 44 -24z m512 -22
c5 -34 18 -45 37 -29 8 7 18 10 21 7 4 -3 6 -67 5 -141 -1 -98 2 -137 11 -143
7 -4 40 -9 73 -9 87 -2 245 -13 253 -17 4 -3 28 -8 54 -11 26 -4 57 -15 70
-25 13 -10 31 -20 41 -24 9 -3 17 -12 17 -18 0 -8 -15 -10 -49 -6 -43 5 -50 3
-54 -14 -9 -32 -114 -24 -217 18 -9 4 -2 9 20 12 l35 6 -29 20 c-22 15 -51 20
-125 23 -95 4 -115 12 -116 47 0 5 -9 11 -20 13 -11 2 -37 10 -58 18 -21 8
-43 12 -48 9 -5 -4 -9 0 -9 8 0 13 10 12 61 -4 72 -22 91 -24 66 -4 -11 7 -37
17 -59 20 -22 4 -56 17 -76 28 -32 19 -40 20 -101 9 -36 -7 -76 -15 -88 -18
-17 -5 -23 -2 -23 10 0 9 -5 25 -12 36 -10 16 -9 24 9 47 13 18 29 27 42 26
24 -3 61 25 55 41 -7 18 78 94 116 104 47 12 94 -6 98 -39z m1178 -6 c-10 -10
-19 5 -10 18 6 11 8 11 12 0 2 -7 1 -15 -2 -18z m-1419 -10 c11 -22 10 -31 -2
-50 -9 -13 -24 -23 -35 -23 -45 0 -80 -86 -48 -118 16 -16 9 -20 -34 -15 l-37
5 29 55 c17 31 30 62 30 69 0 8 5 14 10 14 6 0 10 5 10 12 0 13 48 78 58 78 4
0 13 -12 19 -27z m349 10 c-7 -23 8 -48 23 -39 6 4 8 18 5 32 -6 25 -3 27 33
18 21 -6 22 -13 25 -102 l3 -97 64 -47 c41 -31 74 -48 92 -48 16 0 29 -4 29
-9 0 -14 -47 -17 -110 -8 -30 5 -86 10 -125 10 l-70 2 1 40 c1 22 3 91 4 153
2 90 5 112 17 112 9 0 12 -6 9 -17z m-430 -9 c18 -15 18 -15 -5 -8 -16 4 -21
3 -17 -5 4 -6 2 -11 -3 -11 -6 0 -11 9 -11 20 0 24 10 25 36 4z m-411 -43 c-3
-6 -14 -11 -23 -11 -13 0 -13 2 4 14 21 15 30 14 19 -3z m-26 -204 c1 -16 -3
-26 -9 -22 -5 3 -10 25 -9 48 0 33 2 38 9 22 5 -11 9 -33 9 -48z m616 44 c-11
-4 -31 -12 -45 -18 -26 -11 -144 -32 -214 -37 -23 -2 -45 -11 -52 -21 -7 -10
-33 -27 -56 -37 -47 -21 -108 -74 -108 -95 0 -15 -26 -18 -35 -3 -10 16 -32
11 -63 -15 -32 -27 -134 -46 -146 -27 -4 7 13 10 48 10 46 -1 60 4 93 31 26
20 46 29 56 25 12 -4 31 6 60 32 23 21 43 41 45 46 7 17 -59 -16 -77 -38 -10
-13 -26 -24 -34 -24 -22 0 -67 -21 -67 -32 0 -16 -46 -26 -81 -18 l-34 8 30 2
c17 1 37 2 45 1 8 -1 30 13 49 30 19 17 45 35 58 40 12 4 23 15 23 23 0 25 33
35 91 29 51 -5 57 -3 98 31 40 34 48 36 110 36 36 -1 91 6 121 14 58 15 124
21 85 7z m1144 -55 c10 -12 5 -16 -26 -26 -21 -7 -64 -23 -95 -36 -32 -13 -78
-24 -102 -24 -25 0 -48 -4 -51 -10 -3 -5 -11 -10 -16 -10 -6 0 -7 5 -4 10 3 6
-4 11 -17 11 -13 1 12 5 55 10 64 7 92 16 150 48 81 44 90 47 106 27z m-1253
-5 c-3 -5 3 -11 14 -14 10 -3 21 0 23 6 3 11 84 11 121 0 26 -7 5 -18 -51 -28
-24 -4 -41 -12 -40 -18 1 -8 -20 -13 -60 -15 -44 -2 -63 1 -63 9 0 16 -79 5
-133 -19 -23 -11 -66 -40 -96 -65 -63 -54 -115 -81 -143 -74 -11 3 -38 -1 -60
-9 -26 -9 -55 -11 -82 -7 l-41 7 53 7 c31 4 69 18 93 34 36 23 43 25 57 12 24
-20 50 -8 81 39 17 25 46 49 81 67 30 15 61 35 68 44 11 15 16 16 34 4 15 -9
23 -10 28 -1 6 9 42 19 113 29 5 0 6 -3 3 -8z m1404 -5 c22 -2 25 -8 28 -51 3
-43 1 -47 -15 -40 -40 16 -179 16 -258 1 -82 -16 -80 -16 87 1 31 3 86 0 122
-7 58 -11 66 -15 66 -35 0 -28 -43 -46 -104 -44 l-41 2 39 6 c54 8 57 27 5 36
-37 6 -44 4 -59 -15 -10 -14 -22 -20 -29 -15 -13 8 -43 -24 -35 -37 3 -5 18
-8 35 -8 20 0 29 -5 29 -16 0 -19 -41 -13 -109 17 -48 21 -88 27 -61 9 16 -10
-72 -16 -160 -11 -46 2 -90 23 -90 42 0 8 4 8 13 2 15 -12 217 -26 217 -15 0
4 15 12 34 18 26 8 40 7 58 -2 13 -7 28 -13 33 -13 6 0 -5 8 -24 18 -32 17
-39 17 -76 4 -37 -12 -50 -12 -129 7 -48 11 -95 20 -105 20 -10 0 -24 7 -31
15 -11 13 -8 15 16 16 16 0 37 2 46 4 10 2 20 -1 24 -6 3 -5 31 -8 62 -8 49 1
52 3 22 8 -31 6 -28 7 30 13 61 6 143 33 235 78 25 12 51 18 70 14 17 -3 41
-6 55 -8z m-370 -24 c45 -5 61 -10 51 -16 -18 -12 -242 -23 -301 -15 l-45 6
45 2 c25 1 68 10 95 20 28 10 59 17 70 14 11 -3 49 -8 85 -11z m-1490 -51
c-47 -43 -61 -50 -103 -53 -54 -3 -68 6 -43 30 10 10 35 17 67 18 39 1 56 6
68 21 15 20 34 30 55 32 6 1 -14 -21 -44 -48z m660 40 c-14 -4 -40 -11 -57
-15 -38 -10 -42 -22 -12 -31 34 -11 11 -20 -53 -20 -37 0 -63 -5 -65 -12 -5
-15 31 -22 140 -28 87 -5 148 -22 162 -45 13 -22 -4 -22 -48 -1 -24 11 -52 21
-63 20 -11 0 -3 -7 21 -16 22 -9 42 -20 43 -25 2 -4 16 -8 32 -8 54 0 169 -46
217 -86 45 -39 75 -50 167 -62 27 -4 51 -13 54 -19 6 -19 -39 -16 -95 6 -26
10 -77 21 -113 25 -36 4 -85 14 -110 22 -24 8 -82 22 -129 30 -47 8 -90 19
-96 24 -6 5 -42 19 -78 30 -37 12 -67 23 -67 26 0 2 10 2 23 -1 12 -3 40 -8
62 -10 22 -2 54 -7 70 -10 17 -3 36 -1 44 4 24 16 -5 41 -48 41 -20 0 -41 4
-46 9 -6 4 -32 14 -60 20 -27 7 -53 17 -56 23 -4 6 -33 11 -64 12 -48 0 -60
-3 -75 -22 -20 -24 -42 -30 -34 -8 3 8 0 17 -6 21 -22 13 -71 -8 -119 -51 -39
-35 -64 -48 -128 -65 -43 -12 -96 -22 -118 -23 -22 -1 -46 -5 -53 -10 -16 -10
-62 1 -62 14 0 6 17 10 37 10 20 0 56 9 80 21 35 17 46 19 59 9 24 -21 87 7
158 69 67 59 148 109 154 93 4 -13 192 -4 210 11 18 15 88 35 122 35 l25 0
-25 -7z m-764 -20 c-6 -9 -46 -22 -46 -15 0 3 10 9 23 14 29 11 29 11 23 1z
m809 -7 c20 -11 68 -18 140 -22 61 -3 104 -7 98 -9 -24 -8 -14 -41 13 -47 14
-4 37 -14 50 -22 20 -14 22 -18 9 -30 -13 -13 -20 -13 -61 1 -25 8 -70 16
-100 17 -56 2 -62 6 -42 26 7 7 8 15 2 21 -10 9 -90 35 -141 46 -22 4 -30 11
-26 21 7 18 21 18 58 -2z m615 -18 c-25 -7 -49 -10 -55 -7 -11 6 37 19 75 19
16 0 8 -5 -20 -12z m-650 -36 c10 -7 -10 -9 -65 -8 -74 1 -76 2 -30 8 76 10
79 10 95 0z m115 -32 c10 -9 -22 -4 -75 13 -17 6 -10 7 20 3 25 -3 50 -10 55
-16z m585 2 c13 -8 13 -10 -2 -10 -9 0 -20 5 -23 10 -8 13 5 13 25 0z m440 -6
c0 -2 -14 -4 -31 -4 -16 0 -28 4 -25 9 5 8 56 3 56 -5z m-1340 -19 c-7 -9 -29
-15 -51 -15 -28 0 -39 4 -39 15 0 11 12 15 51 15 45 0 50 -2 39 -15z m830 -4
c0 -32 60 -46 182 -43 75 2 125 -2 165 -13 88 -25 92 -27 63 -34 -24 -7 -42
-41 -21 -41 6 0 11 7 11 16 0 9 7 14 18 12 16 -4 20 -32 7 -66 -5 -15 -2 -16
-125 48 -60 31 -72 34 -165 36 -132 2 -174 11 -187 39 -7 16 -7 29 1 44 15 27
51 28 51 2z m-1020 -6 c-10 -12 -10 -15 1 -15 8 0 6 -5 -6 -12 -11 -6 -28 -19
-38 -29 -10 -11 -28 -19 -40 -19 -12 0 -40 -11 -62 -25 -22 -13 -49 -25 -60
-25 -12 0 -45 -8 -75 -18 -56 -19 -152 -23 -148 -6 2 5 8 9 15 9 6 0 14 3 18
6 3 4 25 4 48 2 32 -4 61 2 117 25 41 17 90 36 109 43 19 7 49 28 67 46 34 34
80 49 54 18z m1608 3 c-3 -9 -29 -13 -79 -14 l-74 -2 63 8 c34 4 65 10 69 13
11 12 25 8 21 -5z m-1328 -13 c42 -22 37 -27 -17 -19 -58 8 -69 14 -52 25 20
12 36 11 69 -6z m664 -23 c20 -33 31 -39 82 -49 33 -7 86 -10 119 -8 l60 5
-50 -14 c-69 -21 -82 -20 -175 11 -81 26 -108 49 -96 79 10 25 35 15 60 -24z
m499 21 c-7 -2 -19 -2 -25 0 -7 3 -2 5 12 5 14 0 19 -2 13 -5z m-1273 -17 c0
-8 8 -17 18 -20 130 -37 161 -48 164 -58 2 -6 13 -13 24 -14 88 -13 158 -28
207 -44 31 -11 83 -20 115 -20 31 -1 71 -7 87 -15 l30 -13 -40 -2 c-96 -5
-213 3 -243 15 -17 8 -53 16 -78 19 -26 3 -61 13 -78 22 -91 48 -127 62 -192
73 -87 15 -157 5 -229 -34 -27 -14 -55 -23 -63 -20 -7 2 -11 1 -8 -3 8 -14
-47 -31 -129 -39 -113 -12 -138 -2 -32 13 67 9 94 17 113 35 16 15 38 23 67
24 44 2 72 13 119 48 24 18 103 45 136 46 6 1 12 -5 12 -13z m385 4 c3 -6 -1
-7 -9 -4 -18 7 -21 14 -7 14 6 0 13 -4 16 -10z m252 -30 c23 -42 19 -47 -20
-29 -25 11 -51 52 -40 63 16 16 40 2 60 -34z m66 -24 c89 -18 127 -29 127 -36
0 -7 -73 3 -124 18 -29 8 -53 52 -37 67 3 4 7 -5 9 -19 2 -17 11 -27 25 -30z
m737 40 c0 -8 -6 -17 -12 -19 -10 -4 -10 -8 1 -15 11 -8 10 -12 -5 -21 -17 -9
-17 -10 -1 -11 13 0 17 -8 17 -34 0 -32 -3 -35 -37 -40 -47 -7 -108 6 -107 22
1 7 2 23 3 37 1 20 7 25 29 26 l27 1 -30 8 c-28 7 -29 8 -5 9 25 2 25 2 3 11
-13 5 -23 16 -23 25 0 12 14 15 70 15 54 0 70 -3 70 -14z m-1200 -6 c0 -12 -8
-12 -35 0 -18 8 -17 9 8 9 15 1 27 -3 27 -9z m297 -36 c74 -47 156 -74 224
-74 19 0 71 -9 115 -21 54 -14 92 -19 122 -14 42 6 137 -9 146 -24 3 -4 -66
-5 -152 -3 -127 3 -166 7 -201 23 -24 10 -54 19 -67 19 -62 0 -131 25 -179 65
-27 23 -60 45 -72 49 -20 7 -33 26 -17 26 4 0 40 -21 81 -46z m-524 -31 c41
-23 87 -58 67 -51 -135 47 -230 48 -266 3 -14 -18 -38 -30 -80 -40 -117 -27
-75 8 96 81 66 28 139 31 183 7z m682 -13 c49 -16 53 -19 20 -14 -38 6 -110
32 -90 33 6 0 37 -8 70 -19z m437 1 c13 -11 38 -23 54 -27 16 -3 34 -13 40
-20 7 -9 44 -16 110 -19 54 -4 100 -8 103 -11 13 -12 -18 -16 -116 -16 -82 1
-123 6 -168 22 -36 13 -105 24 -175 30 -105 7 -220 26 -220 35 0 3 44 2 98 0
53 -2 129 0 167 5 l70 9 -70 -3 c-42 -2 -62 0 -50 5 40 16 131 10 157 -10z
m-999 -17 c18 -9 39 -23 48 -31 9 -7 40 -16 68 -20 28 -3 54 -10 58 -16 4 -7
-15 -8 -56 -4 -88 10 -109 16 -116 38 -4 11 -18 26 -33 34 -37 20 -9 19 31 -1z
m-143 -19 c72 -23 119 -41 126 -48 4 -4 -71 -6 -167 -6 -96 1 -164 4 -152 6
13 2 31 15 41 28 29 36 80 43 152 20z m983 -22 c-7 -2 -19 -2 -25 0 -7 3 -2 5
12 5 14 0 19 -2 13 -5z m-1343 -33 c-20 -13 -90 -13 -90 0 0 6 24 10 53 10 37
0 48 -3 37 -10z m1783 -35 l27 -7 0 -119 0 -119 -137 -1 c-76 0 -535 -1 -1020
-2 -875 -2 -882 -2 -886 18 -6 31 -9 223 -3 233 6 10 1981 8 2019 -3z"/>
<path d="M720 3540 c0 -5 5 -10 10 -10 6 0 10 5 10 10 0 6 -4 10 -10 10 -5 0
-10 -4 -10 -10z"/>
<path d="M589 3503 c-13 -16 -12 -17 4 -4 9 7 17 15 17 17 0 8 -8 3 -21 -13z"/>
<path d="M870 3510 c0 -5 4 -10 9 -10 6 0 13 5 16 10 3 6 -1 10 -9 10 -9 0
-16 -4 -16 -10z"/>
<path d="M959 3507 c7 -7 14 -8 21 -1 6 6 2 10 -12 11 -16 2 -18 -1 -9 -10z"/>
<path d="M535 3470 c-3 -5 -1 -10 4 -10 6 0 11 5 11 10 0 6 -2 10 -4 10 -3 0
-8 -4 -11 -10z"/>
<path d="M991 3471 c-8 -5 -9 -11 -3 -15 5 -3 12 1 16 9 6 17 6 18 -13 6z"/>
<path d="M1050 3469 c0 -5 5 -7 10 -4 6 3 10 8 10 11 0 2 -4 4 -10 4 -5 0 -10
-5 -10 -11z"/>
<path d="M745 3430 c-8 -13 5 -13 25 0 13 8 13 10 -2 10 -9 0 -20 -4 -23 -10z"/>
<path d="M641 3371 c-8 -6 -9 -11 -3 -15 6 -3 14 -1 17 5 9 14 2 20 -14 10z"/>
<path d="M453 3125 c-54 -27 -94 -71 -119 -130 -18 -45 -18 -136 2 -183 20
-48 72 -102 98 -102 19 0 19 1 -4 13 -13 7 -39 31 -56 54 -39 50 -53 132 -35
193 26 86 121 163 202 163 21 0 36 4 33 8 -10 17 -71 9 -121 -16z"/>
<path d="M480 2656 c0 -38 89 -80 140 -65 19 5 14 7 -23 8 -42 1 -54 6 -83 35
-19 19 -34 28 -34 22z"/>
<path d="M650 2567 c0 -43 26 -67 85 -78 49 -9 95 4 95 28 0 18 -15 16 -31 -3
-10 -12 -25 -15 -57 -11 -53 6 -85 32 -78 63 4 13 2 26 -4 29 -6 4 -10 -8 -10
-28z"/>
<path d="M1588 2734 c-16 -8 -28 -17 -28 -19 0 -11 19 -4 41 15 29 23 24 25
-13 4z"/>
<path d="M968 3093 c-24 -6 -23 -20 3 -34 15 -8 19 -8 15 0 -4 6 0 14 8 17 9
3 16 10 16 15 0 9 -13 10 -42 2z"/>
<path d="M955 2990 c-3 -5 1 -10 9 -10 9 0 16 5 16 10 0 6 -4 10 -9 10 -6 0
-13 -4 -16 -10z"/>
<path d="M971 2966 c-9 -11 -8 -15 5 -20 22 -8 26 -8 19 3 -3 6 3 14 12 20 16
9 16 10 -3 11 -12 0 -27 -6 -33 -14z"/>
<path d="M1336 2760 c3 -19 6 -47 7 -62 1 -16 5 -28 9 -28 4 0 9 -15 11 -32 2
-18 3 -10 1 17 -2 28 -11 70 -19 95 -13 38 -14 40 -9 10z"/>
<path d="M1305 2650 c5 -30 8 -73 7 -95 -1 -30 1 -35 7 -20 11 25 2 146 -12
160 -6 7 -7 -8 -2 -45z"/>
<path d="M1293 2545 c0 -27 2 -38 4 -22 2 15 2 37 0 50 -2 12 -4 0 -4 -28z"/>
<path d="M1293 2360 c1 -11 5 -20 9 -20 4 0 8 9 8 20 0 11 -4 20 -9 20 -6 0
-9 -9 -8 -20z"/>
<path d="M1320 2350 c0 -5 4 -10 9 -10 6 0 13 5 16 10 3 6 -1 10 -9 10 -9 0
-16 -4 -16 -10z"/>
<path d="M1320 2320 c0 -5 5 -10 11 -10 5 0 7 5 4 10 -3 6 -8 10 -11 10 -2 0
-4 -4 -4 -10z"/>
<path d="M1320 2290 c12 -8 13 -11 1 -19 -11 -7 -11 -9 0 -14 12 -4 11 -7 -1
-16 -10 -7 -11 -11 -2 -11 20 0 15 -50 -5 -51 -11 0 -13 -3 -5 -6 6 -2 12 -12
13 -21 0 -11 4 -9 11 8 6 14 10 28 10 33 -1 4 3 7 9 7 8 0 8 5 -1 15 -7 8 -10
31 -8 50 3 30 1 35 -17 35 -16 0 -17 -2 -5 -10z"/>
<path d="M1200 2110 c0 -5 -8 -7 -17 -3 -15 5 -16 3 -6 -7 9 -10 18 -11 35 -3
19 8 19 10 5 16 -9 3 -17 2 -17 -3z"/>
<path d="M2004 2216 c-10 -8 -15 -18 -11 -22 4 -5 12 -2 16 5 5 8 23 14 40 15
17 0 31 4 31 9 0 13 -55 8 -76 -7z"/>
<path d="M1960 2141 c0 -20 39 -74 40 -54 0 6 -5 15 -11 19 -6 3 -9 17 -6 30
3 16 0 24 -9 24 -8 0 -14 -9 -14 -19z"/>
<path d="M1855 1804 c-19 -21 -25 -37 -23 -68 l1 -41 4 36 c2 21 15 48 33 67
16 18 24 32 19 32 -5 0 -21 -12 -34 -26z"/>
<path d="M2023 1819 c11 -6 25 -25 33 -43 13 -30 13 -30 14 -5 0 28 -27 59
-51 59 -10 -1 -8 -4 4 -11z"/>
<path d="M1472 2394 c10 -10 20 -16 22 -13 3 3 -5 11 -17 18 -21 13 -21 12 -5
-5z"/>
<path d="M1462 2365 c9 -10 21 -16 28 -13 7 2 -1 10 -16 17 -27 12 -28 11 -12
-4z"/>
<path d="M1450 2346 c0 -3 9 -10 20 -16 11 -6 20 -8 20 -6 0 3 -9 10 -20 16
-11 6 -20 8 -20 6z"/>
<path d="M1056 1949 c-3 -17 -5 -43 -5 -58 1 -14 5 -2 10 28 10 58 6 83 -5 30z"/>
<path d="M960 1870 c0 -5 5 -10 11 -10 5 0 7 5 4 10 -3 6 -8 10 -11 10 -2 0
-4 -4 -4 -10z"/>
<path d="M1358 1843 c7 -3 16 -2 19 1 4 3 -2 6 -13 5 -11 0 -14 -3 -6 -6z"/>
<path d="M1140 1800 c0 -5 4 -10 9 -10 6 0 13 5 16 10 3 6 -1 10 -9 10 -9 0
-16 -4 -16 -10z"/>
<path d="M1373 1803 c9 -2 23 -2 30 0 6 3 -1 5 -18 5 -16 0 -22 -2 -12 -5z"/>
<path d="M954 1783 c4 -24 21 -27 23 -3 1 11 -4 20 -12 20 -7 0 -12 -8 -11
-17z"/>
<path d="M747 1373 c-2 -10 -8 -26 -12 -35 -4 -10 -3 -18 3 -18 8 0 32 50 32
66 0 12 -19 1 -23 -13z"/>
<path d="M870 1373 c0 -5 15 -15 33 -23 28 -13 32 -20 30 -50 -2 -41 -40 -80
-79 -80 -21 0 -24 -3 -18 -24 5 -21 2 -25 -22 -28 -15 -2 -29 -9 -32 -16 -3
-9 3 -11 21 -7 30 8 61 -19 54 -47 -4 -12 -1 -18 6 -15 19 6 20 43 2 60 -20
20 -6 45 37 70 57 32 71 120 25 152 -23 16 -57 20 -57 8z"/>
<path d="M247 763 c-10 -9 -9 -23 2 -23 5 0 11 7 15 15 5 15 -5 20 -17 8z"/>
<path d="M1016 893 c-6 -50 3 -104 20 -110 5 -2 9 31 9 77 1 90 -18 112 -29
33z"/>
<path d="M2028 483 c6 -2 18 -2 25 0 6 3 1 5 -13 5 -14 0 -19 -2 -12 -5z"/>
<path d="M2023 463 c9 -2 23 -2 30 0 6 3 -1 5 -18 5 -16 0 -22 -2 -12 -5z"/>
<path d="M1992 401 c2 -7 7 -12 11 -12 12 1 9 15 -3 20 -7 2 -11 -2 -8 -8z"/>
<path d="M70 145 c0 -41 2 -75 4 -75 21 0 36 17 36 39 0 20 7 29 30 38 57 22
30 73 -39 73 l-31 0 0 -75z m68 38 c-5 -25 -28 -28 -28 -4 0 12 6 21 16 21 9
0 14 -7 12 -17z"/>
<path d="M212 198 c0 -35 -23 -112 -36 -120 -6 -5 0 -8 15 -8 15 0 27 6 26 13
-2 66 25 78 49 22 11 -28 20 -35 41 -35 23 0 25 2 11 13 -8 6 -24 35 -34 62
-22 61 -31 75 -54 75 -11 0 -18 -8 -18 -22z m32 -33 c3 -8 1 -15 -4 -15 -6 0
-10 7 -10 15 0 8 2 15 4 15 2 0 6 -7 10 -15z"/>
<path d="M352 204 c-19 -13 -22 -23 -20 -57 2 -34 9 -44 33 -59 40 -23 75 -14
75 18 0 19 -5 24 -25 24 -14 0 -25 -5 -25 -11 0 -5 -4 -7 -10 -4 -5 3 -10 21
-10 40 0 39 25 55 47 28 13 -17 13 -16 11 7 -4 31 -42 38 -76 14z"/>
<path d="M480 148 l5 -73 33 -3 c47 -5 62 3 55 29 -6 20 -6 20 -16 3 -5 -11
-11 -20 -12 -22 -9 -11 -35 15 -35 35 0 20 4 23 20 18 16 -5 20 -2 20 15 0 17
-4 20 -20 15 -15 -5 -20 -2 -20 14 0 25 18 37 33 22 15 -15 27 -14 27 4 0 11
-12 15 -47 15 l-48 0 5 -72z"/>
<path d="M1100 213 c-55 -10 -66 -44 -21 -64 34 -15 47 -47 24 -56 -10 -4 -23
3 -35 17 -21 26 -25 25 -30 -9 -3 -23 1 -25 48 -28 64 -5 86 14 63 55 -8 14
-25 29 -38 32 -14 3 -26 11 -29 18 -5 17 25 27 42 13 10 -9 15 -8 19 3 6 14
-1 27 -12 25 -3 -1 -17 -4 -31 -6z"/>
<path d="M1186 202 c12 -9 29 -41 39 -69 9 -29 23 -53 30 -53 7 0 19 16 27 36
l15 37 22 -37 c13 -20 26 -36 30 -36 8 0 41 77 41 95 0 4 7 17 17 27 15 17 15
18 -10 18 -19 0 -25 -4 -21 -14 5 -12 -24 -83 -30 -74 -34 51 -36 57 -20 72
14 15 11 16 -31 16 -42 0 -45 -1 -31 -16 18 -17 20 -42 7 -63 -7 -11 -13 -5
-25 24 -9 20 -16 41 -16 46 0 5 -15 9 -32 9 -33 0 -33 -1 -12 -18z"/>
<path d="M1447 206 c-42 -43 -27 -111 28 -122 19 -3 43 -1 55 6 20 11 22 18
18 61 -6 58 -6 58 -50 65 -24 4 -39 1 -51 -10z m73 -46 c0 -15 -3 -35 -6 -44
-7 -18 -39 -22 -49 -6 -11 18 -8 69 5 84 19 24 50 2 50 -34z"/>
<path d="M1578 151 c3 -55 7 -69 18 -64 8 3 14 19 14 39 0 19 5 34 10 34 6 0
10 -6 10 -14 0 -20 46 -73 56 -64 4 5 -1 17 -11 28 -12 14 -16 27 -11 47 14
58 14 58 -39 61 l-50 3 3 -70z m62 39 c0 -11 -7 -20 -15 -20 -8 0 -15 9 -15
20 0 11 7 20 15 20 8 0 15 -9 15 -20z"/>
<path d="M1715 151 l0 -71 33 0 c39 0 82 38 82 73 0 38 -22 59 -71 64 l-44 5
0 -71z m59 43 c20 -8 21 -63 2 -89 -24 -33 -46 -12 -46 45 0 51 7 58 44 44z"/>
<path d="M1854 205 c-8 -20 11 -41 42 -49 19 -5 25 -12 22 -29 -4 -26 -48 -38
-48 -13 0 24 -14 19 -27 -9 -11 -25 -11 -25 43 -25 41 0 55 4 62 18 16 30 -1
66 -36 78 -39 12 -39 30 1 28 15 -1 27 2 27 7 0 16 -80 10 -86 -6z"/>
<path d="M803 199 c-7 -7 -7 -23 0 -50 7 -28 6 -47 -1 -65 -9 -19 -9 -24 2
-24 16 0 26 21 26 56 0 15 6 24 15 24 8 0 15 5 15 10 0 6 -9 10 -20 10 -11 0
-20 5 -20 10 0 6 4 10 10 10 5 0 7 7 4 15 -7 18 -16 19 -31 4z"/>
<path d="M717 143 c-25 -25 21 -85 51 -67 23 15 26 38 7 58 -17 16 -46 21 -58
9z m39 -39 c-4 -12 -10 -14 -17 -7 -5 5 -7 17 -3 27 4 12 10 14 17 7 5 -5 7
-17 3 -27z"/>
<path d="M2017 104 c-9 -10 2 -24 18 -24 9 0 12 6 9 15 -6 16 -17 19 -27 9z"/>
</g>
</svg>
