<?xml version="1.0" standalone="no"?>
<!DOCTYPE svg PUBLIC "-//W3C//DTD SVG 20010904//EN"
 "http://www.w3.org/TR/2001/REC-SVG-20010904/DTD/svg10.dtd">
<svg version="1.0" xmlns="http://www.w3.org/2000/svg"
 width="215.000000pt" height="377.000000pt" viewBox="0 0 215.000000 377.000000"
 preserveAspectRatio="xMidYMid meet">
<metadata>
Created by potrace 1.16, written by Peter Selinger 2001-2019
</metadata>
<g transform="translate(0.000000,377.000000) scale(0.100000,-0.100000)"
fill="#000000" stroke="none">
<path d="M55 3763 c-16 -3 -33 -9 -36 -14 -5 -8 -4 -792 3 -2948 0 -140 3
-263 6 -273 6 -24 20 -23 24 2 3 20 5 19 38 -10 23 -20 31 -33 23 -36 -16 -7
1 -44 19 -44 9 0 9 3 0 12 -7 7 -12 17 -12 23 1 5 10 -1 20 -14 11 -13 20 -31
19 -40 0 -10 -2 -11 -6 -3 -9 22 -25 13 -18 -10 7 -23 7 -23 -9 -3 -8 11 -16
16 -16 11 0 -5 -9 -1 -20 9 -23 21 -26 9 -5 -19 25 -33 16 -43 -10 -11 -14 18
-24 43 -25 62 0 17 -4 35 -10 38 -7 4 -10 -79 -10 -240 l0 -247 1044 4 c574 1
1048 7 1053 11 7 8 12 3190 5 3559 -3 144 -5 159 -22 168 -13 7 -239 10 -682
8 -775 -2 -887 -2 -1148 4 -107 3 -208 3 -225 1z m1715 -23 c0 -5 -26 -10 -57
-11 -74 -1 -74 -1 -208 -43 -151 -48 -206 -73 -203 -92 2 -11 -21 -23 -85 -44
-79 -25 -87 -26 -82 -10 3 10 2 21 -2 23 -14 9 -115 -45 -120 -63 -3 -12 -18
-20 -44 -24 -50 -8 -86 -25 -94 -44 -9 -24 4 -27 24 -5 12 13 48 27 95 38 42
9 76 21 76 26 0 5 -4 9 -10 9 -19 0 -10 17 15 28 34 15 36 15 28 -5 -5 -14 -1
-15 33 -11 62 9 206 68 201 83 -4 8 27 24 91 48 123 46 191 63 267 66 32 1 72
9 87 17 20 10 67 14 178 14 l150 0 0 -32 c0 -19 -9 -41 -22 -55 -17 -18 -19
-26 -10 -35 9 -9 12 -8 12 5 0 9 6 17 13 17 8 0 11 -13 9 -44 -4 -42 -5 -43
-47 -53 -36 -8 -51 -7 -89 10 -42 18 -48 18 -79 4 -18 -9 -68 -20 -112 -26
-84 -11 -182 -35 -194 -47 -3 -3 3 -4 14 -1 61 18 158 37 216 42 36 3 76 12
90 19 20 11 30 10 62 -6 37 -18 59 -19 120 -2 15 5 17 -5 17 -115 0 -97 -3
-121 -14 -121 -8 0 -13 -8 -12 -17 1 -23 -53 -48 -134 -61 -36 -6 -94 -16
-129 -21 -36 -6 -68 -14 -72 -18 -13 -13 73 -8 98 5 26 14 53 16 53 2 0 -13
-76 -32 -130 -33 -25 0 -50 -4 -56 -9 -7 -5 -16 -8 -20 -7 -5 1 -14 1 -21 0
-17 -2 -94 -103 -89 -117 5 -14 -21 -40 -31 -31 -12 12 63 120 102 148 22 16
51 38 65 49 14 11 30 20 37 20 7 0 17 9 23 20 9 17 -2 13 -50 -17 -90 -55
-148 -109 -175 -163 -13 -26 -31 -50 -40 -53 -8 -4 -15 -13 -15 -22 0 -9 -9
-15 -24 -15 -17 0 -27 8 -36 29 -10 25 -18 30 -58 33 -26 3 -51 2 -57 -2 -5
-3 -24 -7 -42 -9 -68 -5 -88 -16 -91 -47 -3 -28 -7 -31 -54 -41 -49 -10 -50
-10 -28 7 42 32 7 65 -41 40 -27 -15 -24 5 5 27 13 10 45 31 71 46 30 18 45
33 42 41 -3 8 1 17 9 20 20 8 18 36 -4 36 -9 0 -32 -4 -50 -10 -59 -16 -19 15
51 40 63 23 153 73 173 97 6 7 60 36 119 63 73 35 105 55 102 64 -3 8 5 18 19
25 29 13 32 31 4 31 -13 0 -17 -5 -14 -14 3 -9 -3 -17 -15 -21 -22 -7 -29 -25
-9 -25 20 0 2 -10 -82 -45 -45 -19 -105 -52 -134 -74 -47 -37 -78 -53 -203
-106 -42 -18 -81 -51 -71 -60 3 -3 24 2 48 10 23 8 46 15 51 15 19 0 8 -17
-18 -30 -16 -7 -23 -15 -15 -17 22 -8 13 -21 -40 -51 -58 -32 -106 -78 -94
-89 6 -6 20 -2 79 22 29 12 19 -15 -13 -33 -16 -9 -30 -24 -30 -34 0 -15 4
-15 49 -1 26 9 59 13 73 10 22 -6 27 -14 32 -54 4 -27 9 -60 12 -75 5 -23 2
-28 -15 -28 -11 0 -23 -4 -26 -10 -10 -15 -52 -12 -70 6 -8 9 -22 13 -30 10
-8 -3 -17 0 -21 5 -13 21 -171 81 -179 68 -6 -8 26 -29 44 -29 8 0 116 -47
129 -56 2 -1 -2 -11 -9 -23 -19 -30 -1 -40 21 -11 11 14 20 20 20 13 0 -6 -4
-15 -10 -18 -5 -3 -10 -14 -10 -22 0 -13 6 -11 28 10 36 34 67 37 55 5 -12
-35 -6 -114 12 -160 9 -23 -2 -23 -46 1 -43 23 -65 14 -55 -22 8 -34 -9 -43
-28 -16 -10 16 -12 28 -5 46 12 32 12 33 -6 33 -8 0 -15 5 -15 10 0 6 9 10 20
10 11 0 20 -4 20 -10 0 -5 6 -10 13 -10 8 0 13 15 13 40 2 45 -8 51 -24 18
-10 -22 -11 -21 -11 10 -1 37 -10 40 -34 11 -14 -16 -16 -24 -6 -35 19 -23
-17 -18 -38 5 -10 11 -45 35 -78 53 -38 22 -60 41 -59 51 1 9 -2 15 -6 12 -5
-3 -11 4 -15 15 -4 11 -11 18 -16 15 -5 -3 -6 1 -3 9 3 9 1 16 -5 16 -9 0 -9
6 0 23 11 20 11 21 -5 8 -9 -8 -19 -12 -21 -9 -3 3 2 11 10 18 13 11 23 11 55
0 47 -16 66 -6 24 12 -53 22 -84 49 -104 89 -13 25 -27 39 -40 39 -10 0 -21 4
-24 9 -7 11 17 21 49 21 55 0 72 32 40 77 -13 19 -19 20 -52 11 -62 -17 -78
15 -134 257 -10 44 -29 115 -44 159 -14 43 -24 80 -23 81 22 15 77 45 82 45 3
0 6 -7 6 -16 0 -11 5 -14 16 -10 9 3 20 6 25 6 5 0 17 8 27 18 10 9 47 31 82
49 36 18 59 33 52 33 -7 0 -34 -11 -60 -25 -26 -14 -52 -25 -57 -25 -6 0 -18
-9 -28 -20 -18 -21 -37 -26 -37 -10 0 15 -37 12 -71 -6 -17 -8 -33 -13 -36
-11 -2 3 -10 28 -18 57 l-14 51 182 -1 c219 -2 1010 10 1016 16 9 9 101 3 101
-6z m-1381 -37 c5 -21 12 -55 15 -75 7 -36 5 -38 -31 -53 -21 -8 -43 -25 -48
-37 -6 -12 -21 -25 -35 -28 -14 -3 -30 -16 -36 -28 -11 -23 -42 -51 -56 -52
-4 0 1 16 12 36 11 19 18 39 15 45 -11 17 -48 9 -84 -18 -20 -15 -43 -26 -53
-25 -9 2 -19 -2 -23 -8 -3 -5 -13 -10 -21 -10 -13 0 -14 21 -10 143 2 78 5
143 5 145 1 1 77 2 171 2 l169 0 10 -37z m31 -6 c1 -26 58 -198 59 -179 1 8
-6 37 -14 65 -22 77 -34 147 -24 147 9 0 34 -78 45 -138 4 -20 10 -41 14 -47
11 -14 35 -100 71 -254 17 -74 33 -140 36 -148 3 -7 -1 -13 -10 -13 -18 0 -26
22 -63 180 -15 63 -31 132 -36 154 -5 21 -12 36 -14 33 -6 -6 16 -119 52 -261
28 -116 28 -116 9 -116 -17 0 -25 29 -61 200 -14 69 -36 172 -49 230 -34 154
-38 183 -26 175 6 -3 11 -16 11 -28z m5 -159 c3 -18 10 -55 15 -83 6 -27 14
-72 19 -98 9 -47 8 -48 -22 -63 -27 -15 -29 -15 -24 0 8 21 6 21 -73 -14 -38
-16 -73 -30 -79 -30 -10 0 -41 -39 -41 -52 0 -5 16 -1 36 7 48 20 78 19 42 -1
-16 -8 -28 -21 -28 -28 0 -8 -11 -24 -25 -37 -13 -13 -25 -29 -25 -35 0 -6
-11 -16 -24 -22 -43 -19 -108 -63 -103 -69 3 -3 21 6 39 20 18 14 53 35 76 47
24 12 42 24 39 26 -3 3 8 19 24 37 16 17 29 36 29 43 0 6 11 17 25 24 37 20
15 35 -30 20 -41 -13 -61 -6 -24 9 13 5 45 19 72 30 27 11 47 15 47 9 0 -6 9
-8 23 -4 68 19 62 22 77 -46 7 -35 15 -86 17 -115 l5 -52 -41 -11 c-22 -6 -42
-14 -45 -18 -3 -5 0 -27 6 -51 11 -43 15 -45 59 -26 13 5 20 -5 34 -50 16 -48
22 -57 47 -62 35 -7 43 -18 43 -62 0 -27 6 -38 27 -50 25 -14 29 -14 58 7 21
16 34 20 43 13 6 -6 28 -23 47 -39 19 -16 53 -39 75 -52 22 -13 46 -32 53 -42
7 -10 19 -18 25 -18 12 0 53 -58 45 -64 -1 -2 -16 -6 -33 -10 -24 -6 -28 -5
-17 5 39 40 -10 38 -144 -6 -58 -20 -109 -34 -111 -31 -3 3 9 23 26 44 17 22
31 43 31 46 0 12 -55 5 -74 -9 -27 -20 -42 -19 -25 2 13 15 11 16 -23 10 -22
-3 -38 -1 -40 5 -4 12 -186 -72 -233 -108 -17 -12 -42 -27 -58 -33 -24 -9 -27
-8 -27 9 0 10 5 22 11 26 8 4 8 9 0 17 -8 8 -1 19 22 38 17 15 29 30 25 34
-12 13 -67 -6 -104 -36 -21 -16 -49 -32 -63 -36 -14 -3 -43 -15 -64 -25 -22
-11 -40 -18 -42 -16 -7 7 -10 438 -3 438 18 0 118 72 118 85 0 8 -3 15 -7 16
-65 6 -88 3 -91 -15 -3 -15 0 -17 14 -11 36 15 64 17 64 6 0 -9 -91 -74 -96
-68 -1 1 -4 118 -6 260 -4 238 -3 259 13 268 10 5 24 6 32 3 8 -3 30 8 50 25
19 17 44 31 55 31 18 0 19 -3 9 -25 -7 -14 -15 -25 -19 -25 -5 0 -8 -9 -8 -20
0 -26 13 -25 65 6 28 16 42 30 39 39 -4 9 3 16 20 21 15 3 36 18 47 33 39 49
75 53 84 9z m1692 -430 c-3 -95 -6 -174 -6 -175 -1 -2 -25 -15 -53 -30 -50
-26 -60 -27 -188 -26 -74 0 -148 1 -164 2 -15 0 -37 -4 -48 -10 -16 -9 -25 -6
-48 16 -37 36 -38 90 0 113 14 9 30 20 35 26 18 20 74 56 85 56 6 0 9 4 6 9
-4 5 3 7 13 4 11 -3 43 3 72 12 70 23 234 109 232 121 -1 5 9 15 23 22 13 7
24 17 24 22 0 6 5 10 11 10 8 0 10 -50 6 -172z m-82 114 c-6 -4 -39 -21 -75
-37 -36 -17 -67 -33 -70 -37 -7 -9 -66 -33 -102 -42 -54 -13 -27 11 32 29 33
10 65 24 71 32 6 7 18 13 25 13 8 0 13 6 12 13 -2 6 5 11 16 10 10 0 32 5 50
13 35 15 55 18 41 6z m-255 -81 c0 -5 -15 -15 -32 -22 -18 -7 -36 -14 -41 -17
-4 -2 -4 4 -1 13 10 25 74 47 74 26z m-100 -26 c-7 -9 -15 -13 -19 -10 -3 3 1
10 9 15 21 14 24 12 10 -5z m-1060 -13 c0 -4 -9 -8 -20 -8 -11 0 -20 4 -20 8
0 4 9 8 20 8 11 0 20 -4 20 -8z m7 -28 c-3 -3 -12 -4 -19 -1 -8 3 -5 6 6 6 11
1 17 -2 13 -5z m101 -16 c-3 -7 -18 -19 -34 -27 -43 -21 -184 -52 -197 -44 -7
4 -16 8 -21 8 -5 0 -11 5 -13 10 -2 6 49 22 114 37 138 30 156 32 151 16z
m942 7 c0 -2 -18 -14 -41 -26 -26 -13 -40 -16 -37 -8 3 10 35 26 76 38 1 1 2
-1 2 -4z m-1034 -92 c-10 -10 -19 5 -10 18 6 11 8 11 12 0 2 -7 1 -15 -2 -18z
m707 -8 c22 -19 42 -33 45 -30 2 2 0 18 -6 34 -16 46 10 41 39 -6 13 -21 35
-54 51 -73 29 -36 38 -61 15 -42 -7 6 -32 9 -55 8 -35 -3 -46 1 -57 18 -8 11
-43 39 -79 61 -36 22 -65 43 -66 47 0 6 25 13 58 17 8 0 32 -15 55 -34z m197
9 c0 -3 -5 -15 -11 -26 -9 -16 -8 -23 2 -29 11 -7 11 -9 -1 -9 -8 0 0 -9 18
-20 17 -11 32 -25 32 -30 0 -6 -5 -8 -11 -4 -7 4 -7 -1 1 -16 8 -15 8 -20 1
-16 -15 10 -14 1 10 -67 11 -32 19 -61 16 -63 -3 -3 -12 14 -20 38 -11 31 -16
36 -16 20 -1 -13 4 -32 9 -43 9 -16 7 -19 -14 -19 -14 0 -27 -4 -30 -8 -3 -5
18 -5 47 -1 96 14 103 7 12 -11 -152 -32 -172 -26 -194 54 -15 57 -6 56 21 -3
20 -45 27 -51 53 -51 40 0 59 28 42 64 -10 20 -17 24 -37 19 -28 -7 -42 -22
-33 -37 3 -5 1 -6 -4 -3 -6 4 -16 21 -24 39 -20 51 -47 70 -89 63 -25 -4 -31
-3 -20 4 13 9 13 11 -1 11 -29 0 -48 -34 -61 -107 -14 -86 -8 -97 60 -109 26
-4 39 -9 29 -12 -14 -3 -17 -11 -15 -35 3 -29 6 -32 33 -30 43 2 95 -6 95 -16
0 -5 -20 -7 -45 -4 -44 4 -64 -11 -27 -20 11 -3 8 -5 -9 -6 -24 -1 -83 36
-139 87 -19 19 -25 34 -25 68 0 24 -3 44 -7 44 -12 0 -20 -40 -14 -66 4 -14 2
-24 -4 -24 -17 0 -12 90 5 96 8 4 15 14 15 23 0 14 2 14 10 1 9 -13 11 -13 20
0 5 8 12 29 16 46 5 27 54 99 54 79 0 -4 8 -1 17 6 11 10 14 10 9 2 -4 -7 -2
-13 3 -13 6 0 11 6 12 13 0 9 2 9 5 0 3 -7 12 -9 20 -6 8 3 14 0 14 -6 0 -6 9
-11 19 -11 12 0 21 -9 25 -25 13 -50 116 -22 116 32 0 14 -14 43 -31 64 -23
29 -27 39 -15 39 9 0 21 9 28 20 12 19 28 27 28 14z m-955 -13 c-15 -14 -55
-23 -55 -13 0 15 12 22 39 22 15 0 21 -4 16 -9z m115 -6 c19 -23 50 -88 45
-94 -3 -2 -16 -5 -30 -6 -13 0 -23 1 -21 3 2 1 -2 19 -9 40 -10 28 -19 37 -37
38 -41 2 -43 4 -18 19 32 18 55 19 70 0z m-110 -24 c0 -10 -50 -25 -58 -17 -3
3 6 10 19 15 31 13 39 13 39 2z m75 -92 c-3 -4 -14 -1 -25 8 -13 11 -16 19 -9
24 7 4 8 12 5 18 -4 6 -4 16 0 23 5 7 12 -3 21 -26 7 -21 10 -42 8 -47z m-65
61 c-8 -5 -24 -10 -35 -10 -17 0 -17 2 -5 10 8 5 24 10 35 10 17 0 17 -2 5
-10z m-16 -36 c4 -10 1 -14 -6 -12 -15 5 -23 28 -10 28 5 0 13 -7 16 -16z
m1536 -19 c0 -29 -4 -35 -22 -35 -17 0 -19 -3 -10 -12 31 -31 -14 -38 -76 -12
-42 17 -130 29 -213 27 -47 -1 -79 -10 -143 -41 -5 -3 -6 3 -2 13 3 10 1 24
-5 32 -15 18 4 39 44 48 37 10 34 -8 -4 -22 -17 -7 -28 -17 -24 -23 4 -7 13
-6 28 2 14 8 78 13 180 14 134 2 163 5 195 22 51 27 52 26 52 -13z m-655 -35
c3 -5 2 -10 -4 -10 -5 0 -13 5 -16 10 -3 6 -2 10 4 10 5 0 13 -4 16 -10z
m-774 -22 c10 -18 8 -24 -7 -35 -24 -18 -31 -17 -44 8 -9 15 -8 24 1 35 17 20
37 17 50 -8z m49 18 c0 -3 -4 -8 -10 -11 -5 -3 -10 -1 -10 4 0 6 5 11 10 11 6
0 10 -2 10 -4z m1267 -55 c40 -17 81 -31 92 -31 12 0 21 -4 21 -10 0 -17 -30
-11 -87 15 -29 14 -58 23 -64 20 -5 -4 -15 -2 -22 3 -7 5 -40 14 -74 20 -66
12 -101 6 -152 -24 -38 -22 -52 -11 -23 19 45 45 190 39 309 -12z m-729 23
c-4 -23 16 -28 34 -10 23 23 40 3 57 -65 l16 -63 59 -12 c60 -12 90 -9 80 7
-3 5 -1 9 4 9 13 0 12 -52 -1 -69 -14 -17 -58 -35 -77 -32 -8 2 -20 10 -26 19
-10 14 -17 15 -46 4 -19 -6 -37 -12 -40 -12 -14 0 -13 36 2 47 13 11 13 14 0
22 -8 5 -18 7 -22 4 -18 -11 -39 21 -37 56 2 20 -3 46 -10 59 -7 13 -10 30 -7
38 7 19 18 18 14 -2z m340 -36 c12 -21 17 -38 12 -38 -11 0 -40 52 -40 71 0
15 1 14 28 -33z m36 -17 c-6 -6 -34 20 -34 32 0 6 8 2 19 -9 10 -10 17 -21 15
-23z m270 13 c16 -8 37 -12 45 -9 9 3 38 -6 65 -20 27 -14 57 -25 65 -26 10 0
6 -5 -9 -12 l-25 -11 28 -4 c23 -3 27 -8 27 -37 0 -40 -5 -44 -67 -51 -44 -5
-56 -2 -131 41 -76 44 -86 47 -129 40 -37 -5 -59 -17 -102 -57 -61 -54 -90
-72 -136 -82 -21 -4 -13 3 28 24 31 17 57 34 57 39 0 5 14 14 30 21 17 7 30
17 30 22 0 6 -11 3 -25 -6 -39 -26 -43 -18 -5 12 19 15 35 25 35 23 0 -2 10 1
23 8 26 14 29 46 6 59 -9 5 -14 14 -10 21 10 15 37 14 31 -1 -4 -9 9 -13 45
-13 48 0 65 16 24 23 -10 2 -23 8 -29 14 -14 15 93 0 129 -18z m-214 -45 c0
-14 -17 -10 -23 5 -4 10 -1 13 9 9 7 -3 14 -9 14 -14z m-88 -41 c-26 -26 -10
-30 16 -5 26 25 52 35 52 21 0 -12 -26 -30 -38 -26 -6 2 -12 0 -12 -5 0 -5
-16 -28 -36 -51 -31 -37 -37 -40 -50 -27 -13 13 -12 19 6 55 12 23 31 45 43
49 26 10 35 5 19 -11z m246 -38 c29 -18 33 -24 27 -50 -6 -28 11 -78 22 -66 9
9 43 -14 43 -29 0 -21 -40 -19 -56 2 -16 22 -32 8 -17 -15 6 -11 24 -17 47
-18 23 0 45 -8 58 -21 l20 -21 -35 -11 c-19 -7 -47 -9 -62 -5 -24 6 -25 8 -11
22 14 14 13 17 -6 26 -22 11 -44 76 -26 76 11 0 1 54 -14 84 -16 29 -31 4 -18
-30 l11 -29 -35 34 c-41 39 -62 35 -25 -5 l24 -26 -34 7 c-43 9 -34 -9 17 -33
22 -11 39 -28 45 -45 8 -26 -1 -56 -10 -31 -3 8 -15 7 -44 -2 -45 -16 -67 -9
-93 28 -19 26 -20 39 -5 36 6 -2 12 12 14 30 1 17 -2 32 -8 32 -17 0 25 41 63
61 45 24 68 23 108 -1z m-1308 -41 c0 -6 6 -9 13 -6 50 21 50 21 42 -1 -8 -27
5 -28 47 -2 40 24 74 27 41 3 -13 -8 -23 -21 -23 -28 0 -7 -7 -18 -15 -25 -8
-7 -15 -16 -15 -21 0 -13 53 -11 87 2 51 20 183 57 183 51 0 -3 -8 -14 -17
-25 -18 -19 -17 -19 32 -13 44 6 53 5 70 -14 19 -21 66 -50 81 -50 3 0 4 8 2
18 -4 15 3 17 66 16 88 -1 127 -18 166 -72 16 -23 36 -42 43 -42 7 0 20 -9 30
-20 9 -11 24 -20 32 -20 18 0 19 -12 3 -28 -20 -20 -5 -21 69 -2 65 16 123 17
123 1 0 -3 34 -6 76 -6 71 0 77 -2 85 -23 19 -50 7 -142 -18 -142 -11 0 -14
11 -13 43 1 23 1 47 1 52 -2 18 -21 -20 -21 -42 0 -12 -5 -25 -11 -28 -17 -11
-21 1 -8 23 10 16 10 23 -3 36 -11 11 -18 12 -20 4 -2 -6 -11 -12 -19 -13 -11
-2 -14 5 -12 29 3 31 3 31 -9 6 l-12 -25 -4 28 c-2 15 -8 27 -13 27 -5 0 -9
-12 -9 -27 -1 -24 -2 -26 -11 -10 -10 17 -12 16 -31 -8 -22 -28 -57 -50 -66
-41 -3 4 3 13 14 21 27 20 0 19 -32 -1 -13 -9 -28 -14 -32 -10 -4 4 1 12 11
17 17 10 24 39 9 39 -4 0 -15 -9 -25 -20 -9 -11 -21 -20 -27 -20 -16 0 -12 27
5 34 16 6 21 26 7 26 -5 0 -17 -9 -29 -19 -48 -45 -116 -64 -127 -36 -4 12
-11 13 -32 5 -24 -9 -25 -9 -14 5 7 8 18 15 25 15 7 0 18 14 24 31 9 28 9 30
-7 24 -9 -3 -29 -9 -44 -12 -15 -3 -33 -12 -39 -19 -6 -8 -19 -14 -29 -14 -9
0 -30 -10 -46 -22 -26 -20 -27 -20 -11 -2 9 11 17 33 17 47 0 22 7 30 38 42
30 12 43 26 59 60 22 47 15 59 -14 25 -10 -11 -26 -20 -37 -20 -64 0 -139 -42
-157 -89 -5 -13 -12 -21 -16 -18 -3 3 3 24 14 47 18 35 19 40 4 40 -9 0 -27
-7 -41 -15 -61 -34 -111 -55 -132 -55 -13 0 -34 -7 -46 -16 -12 -8 -22 -11
-22 -5 0 5 5 13 10 16 17 10 0 26 -21 20 -16 -6 -18 -3 -10 17 4 13 6 29 3 36
-2 8 5 20 17 28 31 22 18 33 -32 27 -52 -7 -65 -17 -69 -51 -2 -16 -13 -32
-28 -40 -77 -40 -85 -48 -82 -82 2 -26 -1 -31 -13 -26 -9 3 -43 -8 -77 -25
-62 -31 -88 -34 -43 -5 14 9 25 23 25 31 0 27 -62 16 -179 -30 -138 -55 -138
-55 -116 -68 14 -7 22 -5 34 11 16 20 147 76 209 88 41 8 42 -8 1 -37 -21 -14
-27 -25 -20 -32 11 -11 59 5 104 36 16 10 30 18 32 15 7 -7 -123 -88 -142 -88
-17 0 -54 -21 -84 -48 -8 -7 -35 -26 -62 -42 -53 -34 -71 -67 -59 -113 9 -35
63 -72 94 -64 13 4 18 0 18 -18 0 -18 7 -24 39 -29 22 -3 50 -2 64 3 19 7 26
5 36 -11 8 -13 9 -24 3 -31 -6 -7 -12 -25 -14 -41 l-3 -29 96 -4 c92 -3 237
18 309 45 56 21 138 -91 125 -172 -3 -23 -6 -54 -6 -71 2 -166 1 -167 -34
-226 -44 -71 -97 -120 -175 -159 -63 -32 -109 -72 -171 -150 -48 -60 -174
-183 -196 -192 -10 -3 -35 -7 -56 -7 -21 -1 -51 -8 -67 -16 -29 -15 -30 -15
-30 7 0 22 28 132 67 265 10 35 27 69 38 77 16 12 17 16 6 30 -21 25 3 73 40
81 34 8 36 13 12 31 -10 7 -15 15 -12 18 3 3 16 -2 28 -13 15 -13 18 -21 11
-26 -18 -11 0 -22 46 -30 26 -4 44 -2 49 4 3 6 15 11 26 11 10 0 19 5 19 10 0
6 -9 10 -20 10 -13 0 -20 7 -20 20 0 13 -7 20 -19 20 -10 0 -24 6 -30 13 -9
11 -3 18 29 32 34 15 44 16 68 5 29 -13 122 -24 122 -14 0 3 -11 15 -25 26
-20 16 -23 23 -14 34 6 8 9 20 5 29 -6 16 21 35 42 28 6 -3 12 0 12 6 0 17
-46 24 -126 19 -43 -3 -70 -1 -62 3 7 5 21 9 31 9 9 0 17 5 17 10 0 6 9 10 21
10 11 0 17 5 14 10 -3 6 -22 10 -41 10 -37 0 -47 19 -14 27 11 3 20 9 20 13 0
13 -39 22 -66 16 -19 -5 -24 -3 -24 13 0 16 4 18 35 11 24 -5 40 -4 52 6 22
17 50 18 55 2 3 -7 12 -9 23 -4 18 7 17 10 -14 37 -19 16 -43 29 -55 29 -36
-1 -100 -18 -104 -29 -2 -5 -9 -8 -17 -5 -7 3 -16 1 -19 -4 -3 -6 1 -13 10
-16 12 -5 14 -10 5 -20 -6 -7 -8 -16 -4 -19 8 -9 -7 -11 -79 -11 -32 -1 -58
-5 -58 -11 0 -5 10 -10 23 -10 12 0 33 -11 45 -24 l24 -24 -34 -14 c-29 -12
-31 -16 -15 -24 21 -12 23 -39 2 -39 -18 0 -19 -12 -4 -27 8 -8 5 -22 -9 -49
-10 -22 -27 -69 -36 -107 -10 -37 -23 -67 -28 -67 -7 0 -7 -5 0 -13 14 -17
-18 -154 -38 -167 -11 -7 -12 -12 -4 -20 8 -8 6 -28 -8 -73 -11 -34 -25 -82
-31 -107 l-12 -45 -55 -7 c-30 -3 -57 -5 -59 -3 -2 3 2 24 8 47 7 24 16 61 21
83 5 22 14 62 19 89 12 55 21 71 21 38 0 -34 18 -27 73 29 43 43 48 53 35 60
-18 10 -68 -5 -80 -24 -5 -8 -8 -6 -8 5 0 10 -10 20 -25 24 -28 7 -27 6 -19
28 3 9 13 16 21 16 8 0 11 -4 8 -10 -3 -5 1 -10 9 -10 25 0 -4 40 -29 41 -11
0 -14 3 -7 6 6 2 12 9 12 15 0 6 11 21 25 34 29 27 32 41 7 47 -16 4 -16 5 2
12 11 5 26 3 38 -4 14 -9 28 -9 58 0 47 14 49 21 15 39 -14 7 -25 19 -25 26 0
9 -9 12 -29 8 -16 -4 -32 -1 -35 5 -5 7 2 11 17 11 31 0 73 33 63 48 -16 26
-136 5 -136 -23 0 -8 5 -17 10 -20 17 -11 11 -37 -10 -42 -15 -4 -20 -13 -19
-37 2 -48 -16 -145 -29 -158 -9 -9 -12 154 -12 678 l0 690 42 27 c23 15 52 27
64 27 11 0 42 16 67 35 25 19 56 35 69 34 23 0 23 0 3 -14 -59 -41 -61 -44
-45 -56 11 -8 12 -12 3 -16 -7 -2 -13 -13 -13 -24 0 -31 36 -23 119 25 87 51
192 105 204 106 4 0 7 -5 7 -11z m650 -64 c0 -16 -22 0 -35 25 -24 46 -18 57
10 16 14 -20 25 -39 25 -41z m758 56 c3 -8 -1 -12 -9 -9 -7 2 -15 10 -17 17
-3 8 1 12 9 9 7 -2 15 -10 17 -17z m-736 -19 c26 -36 91 -72 133 -73 45 0 84
-13 69 -21 -7 -5 -73 -4 -120 1 -15 1 -114 90 -114 102 0 15 18 10 32 -9z
m818 -2 c-14 -4 -34 -8 -45 -9 -16 -1 -17 1 -5 9 8 5 29 9 45 9 29 -1 29 -1 5
-9z m66 -37 c-9 -10 -89 -4 -99 6 -8 8 -5 11 9 12 10 0 35 6 54 12 31 11 35
10 38 -6 2 -10 1 -21 -2 -24z m-593 30 c-7 -2 -19 -2 -25 0 -7 3 -2 5 12 5 14
0 19 -2 13 -5z m116 -20 c-22 -28 -32 -33 -64 -32 l-30 1 30 10 c17 6 39 17
50 24 26 19 30 18 14 -3z m-529 -8 c14 -16 10 -18 -14 -9 -9 3 -16 10 -16 15
0 14 16 11 30 -6z m392 3 c-9 -9 -15 -9 -24 0 -9 9 -7 12 12 12 19 0 21 -3 12
-12z m158 -22 c0 -3 -4 -8 -10 -11 -5 -3 -10 -1 -10 4 0 6 5 11 10 11 6 0 10
-2 10 -4z m-154 -21 c-37 -19 -57 -19 -50 0 4 10 19 15 43 15 l36 0 -29 -15z
m54 -24 c-11 -21 -30 -29 -30 -12 0 12 31 43 37 37 3 -2 0 -14 -7 -25z m560
14 c0 -18 -4 -18 -50 0 l-35 13 43 1 c31 1 42 -3 42 -14z m-496 -18 c8 -13 6
-20 -9 -32 -20 -16 -20 -16 3 -10 34 10 61 -3 78 -38 l16 -32 -26 30 c-29 34
-33 28 -11 -15 15 -30 15 -30 -12 -30 -34 1 -54 16 -71 53 -9 20 -17 27 -29
23 -13 -5 -14 -4 -3 9 7 8 19 15 26 15 8 0 14 7 14 16 0 8 -4 12 -10 9 -11 -7
-14 8 -3 19 10 9 25 3 37 -17z m96 -55 c0 -8 -14 -2 -35 15 -19 15 -35 34 -35
41 0 8 14 2 35 -15 19 -15 35 -34 35 -41z m-190 -4 c0 -5 -4 -8 -10 -8 -5 0
-10 6 -10 14 0 7 -7 19 -15 26 -8 7 -15 18 -15 24 0 12 49 -44 50 -56z m-58
35 c10 -9 18 -20 18 -25 0 -14 -28 -9 -44 8 -32 32 -8 48 26 17z m-67 -3 c8
-13 -15 -13 -35 0 -12 8 -11 10 7 10 12 0 25 -4 28 -10z m415 0 c0 -5 -5 -10
-11 -10 -5 0 -7 5 -4 10 3 6 8 10 11 10 2 0 4 -4 4 -10z m300 -10 c0 -5 -4
-10 -10 -10 -5 0 -10 5 -10 10 0 6 5 10 10 10 6 0 10 -4 10 -10z m-54 -22 c4
-6 9 -49 12 -93 l4 -82 -31 -13 c-26 -11 -29 -15 -20 -32 14 -26 -1 -42 -25
-25 -9 7 -20 31 -23 55 -3 23 -10 42 -16 42 -12 0 -36 31 -37 48 0 10 5 10 20
2 11 -6 20 -17 20 -25 0 -8 2 -15 4 -15 2 0 12 -3 21 -6 14 -6 16 -1 13 27 -2
26 -8 35 -25 37 -31 4 -29 22 1 22 13 0 26 -7 30 -15 3 -8 10 -15 16 -15 15 0
12 26 -5 40 -12 10 -12 15 2 36 17 27 28 30 39 12z m-1338 -38 c2 -35 -2 -42
-23 -50 -15 -6 -25 -17 -25 -30 0 -24 8 -25 37 -5 19 13 21 13 26 -4 5 -20 5
-20 -98 -39 -59 -11 -65 -9 -65 24 0 28 8 31 25 8 17 -25 55 2 55 39 0 15 6
30 14 33 8 3 19 19 25 35 14 41 27 36 29 -11z m706 34 c9 -3 16 -10 16 -16 0
-14 -43 -5 -48 10 -4 13 7 15 32 6z m329 -44 c-6 -6 -33 30 -33 44 0 6 9 0 20
-14 10 -14 16 -27 13 -30z m40 38 c12 -6 28 -18 36 -26 13 -13 12 -14 -9 -8
-14 4 -33 10 -42 12 -10 3 -18 12 -18 20 0 17 5 17 33 2z m-633 -33 c-7 -8
-17 -15 -23 -15 -19 0 -57 -43 -57 -65 0 -12 -11 -32 -25 -45 -14 -13 -25 -29
-25 -37 0 -24 46 -14 75 17 16 17 38 30 49 30 11 0 30 10 43 22 13 12 26 18
30 14 5 -4 -5 -18 -22 -32 l-29 -23 23 -22 c20 -19 27 -20 43 -10 11 7 22 10
25 7 7 -7 -58 -46 -77 -46 -8 0 -31 4 -50 9 -29 8 -213 20 -312 21 -26 0 -26
1 -12 28 22 42 18 55 -13 47 -20 -5 -25 -3 -17 5 6 6 36 15 67 20 32 5 67 16
79 24 29 20 39 20 31 0 -3 -8 -16 -20 -29 -25 -24 -8 -35 -49 -14 -49 30 0 89
43 107 76 20 38 61 60 117 63 24 1 27 -1 16 -14z m400 3 c0 7 5 10 10 7 17
-11 11 -22 -15 -27 -28 -6 -27 -6 -19 17 5 13 8 14 15 3 7 -10 9 -11 9 0z
m400 2 c0 -5 -7 -7 -15 -4 -8 4 -15 8 -15 10 0 2 7 4 15 4 8 0 15 -4 15 -10z
m-52 -11 c-2 -6 -8 -10 -13 -10 -5 0 -11 4 -13 10 -2 6 4 11 13 11 9 0 15 -5
13 -11z m-178 -9 c0 -5 -7 -10 -16 -10 -8 0 -12 5 -9 10 3 6 10 10 16 10 5 0
9 -4 9 -10z m105 -20 c3 -5 15 -10 26 -10 20 0 59 -64 46 -76 -10 -11 -59 -7
-66 4 -9 15 -28 2 -34 -23 -3 -14 -5 -11 -6 10 0 17 -5 44 -10 62 -5 17 -7 34
-3 37 9 10 40 7 47 -4z m273 -152 l-3 -33 -17 31 c-15 28 -16 33 -3 44 8 7 16
20 16 29 1 9 4 4 6 -11 2 -15 3 -42 1 -60z m-1319 46 c-21 -25 -70 -43 -102
-37 -54 11 -18 45 57 53 60 7 63 6 45 -16z m-155 -20 c9 -24 7 -28 -9 -14 -17
14 -20 30 -6 30 5 0 12 -7 15 -16z m625 -36 c-136 -88 -439 -222 -597 -263
-61 -17 -180 -32 -172 -22 3 3 40 13 81 22 208 42 511 164 685 275 26 16 52
30 58 30 5 0 -20 -19 -55 -42z m-670 15 c30 -26 54 -88 38 -101 -24 -20 -139
-82 -152 -82 -7 0 -17 12 -23 28 -5 15 -22 39 -37 55 -32 31 -32 31 19 52 37
16 37 15 31 -5 -4 -13 -2 -20 7 -21 96 -10 99 -9 72 29 -9 13 -26 22 -40 22
-29 0 -23 17 10 30 33 13 52 12 75 -7z m758 -32 c-18 -28 -38 -50 -46 -50 -11
-1 -10 4 4 19 34 37 -1 20 -39 -19 -31 -32 -37 -44 -32 -65 4 -15 2 -26 -4
-26 -5 0 -10 5 -10 10 0 16 -52 0 -77 -23 -13 -11 -26 -18 -29 -15 -3 3 14 20
38 36 24 17 65 52 92 78 42 41 46 49 31 54 -17 6 -17 7 -2 13 9 3 17 2 17 -4
0 -6 14 1 31 15 50 42 61 32 26 -23z m134 23 c4 -2 4 -15 1 -30 -4 -25 -6 -25
-56 -19 -28 4 -53 9 -55 11 -2 2 4 15 14 30 15 23 21 25 53 19 20 -4 40 -9 43
-11z m161 -1 c64 -25 133 -76 136 -101 2 -12 -6 -34 -17 -48 -12 -15 -21 -35
-21 -46 0 -18 -26 -78 -35 -78 -4 0 8 42 24 84 6 16 9 31 6 34 -3 3 3 14 12
24 10 12 13 22 8 26 -47 34 -141 92 -155 97 -10 3 -35 -1 -54 -9 -45 -19 -46
-14 -3 13 39 25 45 25 99 4z m415 -5 c-3 -8 -6 -5 -6 6 -1 11 2 17 5 13 3 -3
4 -12 1 -19z m-1298 -31 c-17 -14 -25 -15 -28 -6 -2 7 7 21 20 32 17 14 25 15
28 6 2 -7 -7 -21 -20 -32z m280 17 c68 -2 126 -5 128 -8 10 -10 -173 -94 -340
-157 l-78 -29 -8 23 c-21 57 -23 99 -4 113 69 57 109 75 143 69 19 -4 91 -9
159 -11z m797 6 c9 0 12 -4 9 -10 -9 -14 -18 -13 -41 6 -17 14 -17 15 -1 10
10 -3 25 -6 33 -6z m102 -16 c14 -15 14 -16 -3 -13 -10 2 -20 10 -23 17 -5 17
6 15 26 -4z m-1432 -21 c-10 -10 -19 5 -10 18 6 11 8 11 12 0 2 -7 1 -15 -2
-18z m199 -22 c-8 -26 -17 -26 -40 -1 -17 19 -17 20 6 29 29 11 43 0 34 -28z
m1124 4 c8 -16 18 -38 23 -47 14 -30 10 -39 -12 -26 -30 19 -36 1 -9 -30 24
-27 23 -27 -8 2 -27 24 -30 32 -22 49 12 21 -2 67 -21 67 -5 0 -10 5 -10 11 0
23 45 3 59 -26z m37 20 c-3 -8 2 -18 10 -23 14 -8 14 -10 0 -21 -13 -11 -16
-9 -22 13 -3 13 -3 30 1 35 9 16 18 13 11 -4z m38 -17 c-3 -4 2 -5 11 -2 29
12 65 -6 89 -45 14 -21 36 -41 49 -45 25 -6 46 -36 25 -36 -19 0 -77 40 -97
68 -11 15 -23 24 -27 19 -4 -4 -2 -13 4 -19 16 -16 15 -38 -2 -38 -29 0 -54
35 -60 85 -5 34 -4 45 3 35 5 -8 7 -18 5 -22z m156 17 c-10 -12 -10 -19 -2
-27 14 -14 16 -28 3 -28 -11 0 -24 48 -16 60 4 6 11 10 17 10 6 0 6 -6 -2 -15z
m-51 -16 c13 -11 21 -22 18 -25 -3 -4 -20 5 -37 20 -17 14 -26 26 -18 26 7 -1
24 -10 37 -21z m-769 7 c0 -9 -148 -122 -208 -159 -37 -22 -101 -53 -142 -67
-42 -14 -81 -29 -87 -33 -6 -4 -16 0 -23 8 -7 8 -19 15 -26 15 -8 0 -14 6 -14
13 0 6 67 40 149 75 82 35 187 83 233 107 73 37 118 53 118 41z m200 -12 c30
-4 65 -14 78 -22 20 -13 22 -20 16 -61 -12 -87 -67 -186 -144 -262 -123 -121
-240 -197 -345 -225 -79 -22 -88 -20 -82 19 9 51 -21 144 -60 185 -18 19 -32
36 -31 37 2 1 23 7 48 14 84 24 176 79 276 164 54 47 110 103 124 126 19 31
30 40 45 37 11 -3 45 -8 75 -12z m-1049 -34 c36 -40 57 -86 43 -99 -4 -3 -8
-1 -11 4 -18 49 -53 91 -81 101 -25 8 -29 13 -20 22 19 19 30 15 69 -28z m255
-8 c-3 -5 -44 -37 -92 -71 -82 -58 -114 -73 -114 -51 0 6 4 10 10 10 5 0 24
13 42 29 35 31 151 102 157 96 1 -2 0 -8 -3 -13z m618 -13 c-21 -24 -29 -18
-14 10 6 12 16 19 21 15 6 -4 4 -13 -7 -25z m-922 -1 c22 -18 69 -103 62 -111
-4 -4 -1 -13 6 -22 18 -21 7 -19 -20 5 -29 25 -36 25 -93 0 -49 -22 -102 -18
-112 8 -3 8 -4 17 -1 19 7 7 40 6 59 -2 26 -11 22 30 -5 50 -13 10 -18 19 -13
22 6 2 26 12 45 22 43 23 52 24 72 9z m366 -73 c0 -25 -2 -24 -9 10 -10 51
-10 92 1 50 4 -16 8 -43 8 -60z m1243 25 c20 0 29 -5 29 -16 0 -11 5 -14 16
-10 14 5 15 4 4 -9 -14 -17 -35 -21 -24 -4 4 7 1 10 -6 7 -8 -2 -16 -10 -18
-17 -3 -10 6 -12 35 -10 39 4 39 4 40 -31 1 -44 -5 -54 -23 -39 -23 19 -25 6
-5 -33 17 -34 17 -36 0 -25 -10 6 -16 14 -13 18 2 4 0 10 -6 14 -5 3 -10 15
-10 26 0 40 -71 141 -88 124 -3 -3 2 -30 12 -61 20 -63 14 -86 -8 -32 -8 19
-15 62 -14 95 l1 61 24 -29 c17 -20 34 -29 54 -29z m149 44 c0 -8 -4 -12 -10
-9 -5 3 -10 10 -10 16 0 5 5 9 10 9 6 0 10 -7 10 -16z m-1430 -61 c0 -38 -3
-42 -32 -52 -18 -5 -59 -13 -90 -17 -46 -5 -58 -3 -58 7 1 20 163 127 172 114
4 -5 8 -29 8 -52z m907 40 c-4 -3 0 -15 10 -25 15 -17 15 -20 -5 -39 -12 -11
-22 -27 -22 -36 0 -9 -12 -34 -26 -54 -27 -40 -25 -59 6 -59 27 0 31 -12 13
-48 -12 -25 -13 -36 -4 -45 16 -16 14 -27 -5 -27 -12 0 -15 9 -13 35 6 61 -36
72 -74 19 -14 -18 -16 -28 -8 -38 8 -9 7 -18 -4 -32 -13 -16 -16 -17 -25 -4
-5 8 -7 22 -4 30 4 12 3 12 -7 3 -21 -21 -19 -43 6 -49 32 -8 57 -2 63 15 3 8
0 11 -6 7 -7 -4 -10 2 -8 16 5 39 25 80 36 73 14 -9 12 -45 -2 -45 -9 0 -8 -3
2 -10 8 -5 12 -12 8 -15 -3 -4 -3 -19 2 -34 5 -19 3 -39 -8 -62 -15 -33 -16
-33 -20 -9 -2 13 1 26 7 28 18 6 13 22 -6 22 -24 -1 -103 -73 -103 -94 0 -34
-44 -67 -94 -71 -51 -5 -79 -17 -113 -48 -17 -15 -20 -23 -12 -34 9 -10 7 -13
-10 -13 -14 0 -25 -9 -31 -26 -9 -22 -13 -24 -25 -14 -19 16 -19 31 0 24 9 -4
15 0 15 10 0 9 -3 16 -7 16 -5 0 -19 3 -32 7 -22 6 -24 4 -18 -23 5 -24 1 -31
-19 -41 -30 -14 -40 1 -30 43 6 23 4 26 -13 21 -22 -5 -31 15 -31 71 0 27 4
32 24 32 27 0 74 14 133 41 24 10 46 19 49 19 21 0 208 149 259 205 77 86 100
128 139 248 3 9 9 17 12 17 4 0 4 -3 1 -7z m-402 -60 c-64 -58 -159 -114 -141
-84 4 5 -8 12 -25 16 l-31 7 43 29 c48 31 69 38 49 14 -6 -8 -10 -22 -7 -32 3
-14 6 -12 15 10 9 21 17 27 30 23 13 -4 25 3 40 24 14 18 31 30 45 30 20 -1
18 -5 -18 -37z m620 17 c-28 -12 -37 -12 -30 0 3 6 16 10 28 9 21 0 21 -1 2
-9z m245 -10 c0 -5 -5 -10 -11 -10 -5 0 -7 5 -4 10 3 6 8 10 11 10 2 0 4 -4 4
-10z m-212 -31 c15 -24 15 -24 -15 -33 -17 -6 -23 -3 -23 8 0 9 5 16 11 16 5
0 7 5 4 10 -4 6 -11 8 -16 5 -5 -4 -9 -1 -9 4 0 19 35 12 48 -10z m-218 -33
c0 -9 -7 -16 -15 -16 -10 0 -15 10 -15 31 0 27 2 29 15 15 8 -8 15 -22 15 -30z
m470 35 c0 -5 -9 -11 -20 -14 -20 -5 -26 3 -13 16 9 10 33 8 33 -2z m-127 -58
c3 -13 3 -23 1 -23 -6 0 -34 65 -34 77 0 13 27 -31 33 -54z m-1483 17 c0 -5
-9 -14 -21 -20 -19 -11 -20 -10 -9 9 11 22 30 29 30 11z m1633 -48 c5 -25 3
-33 -6 -30 -6 3 -13 19 -15 36 -3 28 -6 31 -23 22 -15 -8 -19 -7 -19 4 0 18
31 26 46 11 6 -5 14 -25 17 -43z m-1147 33 c-11 -8 -28 -15 -38 -15 -9 0 -33
-14 -52 -30 -23 -20 -44 -30 -63 -29 -15 1 -48 -1 -73 -5 l-45 -6 50 14 c28 8
91 30 140 50 101 40 108 41 81 21z m884 3 c0 -32 22 -88 45 -112 38 -41 14
-30 -38 17 -44 41 -60 80 -40 100 11 12 33 8 33 -5z m-1463 -33 c-13 -28 -47
-34 -47 -9 0 11 -5 14 -17 10 -10 -4 -14 -3 -9 1 10 11 69 31 78 27 3 -2 1
-15 -5 -29z m337 20 c-6 -16 -34 -21 -34 -7 0 13 11 22 26 22 8 0 11 -6 8 -15z
m-64 -5 c0 -5 -9 -10 -21 -10 -11 0 -17 5 -14 10 3 6 13 10 21 10 8 0 14 -4
14 -10z m1043 -25 c-4 -27 -2 -36 11 -41 15 -6 15 -9 -5 -30 -17 -19 -26 -21
-41 -13 -17 9 -18 13 -5 27 8 9 20 34 27 55 15 46 20 48 13 2z m221 -5 c16 0
42 -38 32 -48 -3 -3 -6 1 -6 8 0 11 -3 11 -12 2 -19 -19 -26 -15 -48 28 -25
49 -25 62 -1 33 11 -13 26 -23 35 -23z m-894 22 c0 -11 -66 -42 -74 -35 -12
12 -6 24 17 33 28 11 57 12 57 2z m564 2 c19 -7 22 -38 4 -31 -7 2 -21 0 -30
-4 -24 -13 -35 11 -13 28 22 15 19 15 39 7z m-999 -23 c21 -5 55 -7 75 -5 l35
4 -30 -10 c-16 -6 -63 -9 -102 -8 -64 3 -73 5 -73 22 0 15 5 17 28 12 15 -4
45 -11 67 -15z m1475 -2 c7 -11 9 -23 6 -26 -8 -9 -47 28 -40 38 9 15 23 10
34 -12z m-1604 -16 c-7 -7 -26 7 -26 19 0 6 6 6 15 -2 9 -7 13 -15 11 -17z
m1301 12 c9 -24 -1 -27 -15 -5 -8 13 -8 20 -2 20 6 0 13 -7 17 -15z m-837 -14
c0 -10 -116 -56 -167 -66 -20 -4 -33 -3 -33 4 0 11 38 26 61 23 19 -3 85 24
94 38 8 12 45 13 45 1z m683 -16 c-3 -9 -8 -14 -10 -11 -3 3 -2 9 2 15 9 16
15 13 8 -4z m-949 -28 c-13 -10 -24 -23 -24 -28 0 -14 26 -10 40 6 9 11 16 13
23 6 15 -15 7 -20 -58 -32 -59 -11 -175 -4 -175 11 0 14 32 21 45 10 10 -8 19
-8 34 1 17 11 23 10 39 -4 18 -17 20 -17 26 -1 9 24 2 28 -66 34 -63 6 -88 -4
-88 -36 0 -8 -7 -14 -16 -14 -11 0 -14 6 -8 23 13 44 21 46 138 44 112 -1 113
-1 90 -20z m1136 13 c0 -5 -9 -10 -20 -10 -11 0 -20 5 -20 10 0 6 9 10 20 10
11 0 20 -4 20 -10z m295 -13 c14 -11 16 -20 10 -43 l-8 -29 -8 28 c-4 16 -13
35 -20 43 -15 18 1 18 26 1z m-227 -22 c12 -14 30 -26 39 -26 10 -1 25 -3 33
-4 8 -1 25 -3 38 -4 19 -1 21 -4 13 -20 -6 -10 -7 -21 -4 -25 3 -3 -3 -6 -15
-6 -14 0 -22 6 -22 16 0 14 -3 14 -16 3 -29 -24 -104 34 -104 81 0 17 16 11
38 -15z m192 6 c5 -11 10 -22 10 -26 0 -8 -60 0 -90 13 -26 11 -26 11 27 16 6
1 15 5 19 9 12 12 23 8 34 -12z m-269 -18 c12 -15 12 -16 -3 -11 -9 4 -19 4
-23 0 -3 -4 9 -12 27 -19 l33 -13 -32 6 c-40 7 -45 -12 -5 -21 15 -3 38 -15
52 -26 25 -20 24 -20 -17 0 -23 12 -49 21 -58 21 -23 0 -18 -17 8 -24 39 -9
99 -37 94 -42 -3 -3 -26 4 -52 16 -25 12 -54 20 -63 18 -9 -2 11 -16 46 -31
34 -16 62 -32 62 -38 0 -5 -12 -14 -27 -19 -16 -5 -41 -16 -56 -25 -16 -8 -37
-15 -48 -15 -22 0 -24 -10 -6 -29 10 -11 9 -13 -3 -9 -8 3 -15 16 -15 29 0 20
5 24 28 22 18 -1 27 2 24 10 -2 7 -14 12 -26 12 -12 0 -26 7 -31 14 -11 18
-40 6 -40 -16 0 -10 9 -33 21 -52 11 -18 18 -36 15 -39 -4 -3 -6 0 -6 6 0 6
-7 9 -15 6 -11 -5 -13 -2 -9 10 3 9 1 16 -5 16 -6 0 -16 -11 -21 -25 -5 -14
-12 -25 -15 -25 -4 0 -3 5 0 11 10 15 -4 61 -15 54 -6 -3 -10 -13 -10 -22 0
-9 -8 -21 -17 -28 -16 -12 -16 -14 0 -38 17 -26 42 -27 59 -3 5 7 8 7 8 -2 0
-7 10 -16 22 -21 l22 -8 -22 -12 c-27 -15 -92 2 -92 24 0 7 -7 18 -15 25 -17
14 -21 75 -4 64 6 -3 28 12 50 35 22 22 35 41 29 41 -19 0 -10 18 12 24 17 4
20 8 11 17 -17 17 21 121 51 141 20 14 63 8 77 -9z m283 -58 c24 -26 54 -111
42 -122 -3 -3 -6 5 -6 18 0 18 -3 20 -9 10 -5 -8 -7 -21 -4 -30 3 -9 -4 -5
-16 9 -26 32 -26 43 -1 35 30 -9 24 11 -10 36 -23 17 -27 26 -19 36 9 10 7 14
-7 20 -10 4 -19 2 -22 -5 -2 -7 -8 -10 -13 -6 -5 3 -7 10 -4 15 11 17 46 9 69
-16z m-141 -79 c-10 -13 -19 -23 -21 -21 -7 6 19 45 29 45 5 0 2 -11 -8 -24z
m-455 -43 c20 -43 13 -163 -9 -163 -12 0 -33 45 -49 103 -11 43 -11 49 5 67
24 27 38 25 53 -7z m395 -23 c-61 -13 -82 -26 -76 -50 3 -11 8 -20 12 -20 12
1 45 30 33 30 -7 0 -12 4 -12 9 0 12 49 20 56 10 3 -5 -3 -9 -13 -10 -16 0
-16 -1 1 -8 18 -7 16 -9 -14 -24 -18 -9 -44 -17 -57 -17 -15 0 -23 -6 -23 -16
0 -13 -3 -14 -14 -5 -11 9 -18 8 -30 -4 -17 -17 -59 -17 -54 0 2 6 7 9 12 7 4
-1 13 4 20 13 6 9 22 14 36 13 20 -3 25 2 30 27 6 36 40 55 95 54 l40 -1 -42
-8z m244 -22 c-3 -7 -5 -2 -5 12 0 14 2 19 5 13 2 -7 2 -19 0 -25z m-184 -9
c-8 -16 -17 -28 -20 -25 -6 5 23 56 31 56 3 0 -2 -14 -11 -31z m-524 -41 c6
-17 9 -33 6 -36 -2 -3 -7 4 -10 14 -4 10 -11 27 -16 37 -5 10 -5 17 0 17 5 0
14 -14 20 -32z m656 22 c3 -5 -1 -10 -9 -10 -9 0 -16 5 -16 10 0 6 4 10 9 10
6 0 13 -4 16 -10z m-1630 -20 c-3 -5 -14 -10 -23 -10 -15 0 -15 2 -2 10 20 13
33 13 25 0z m945 -16 c0 -8 9 -23 20 -34 11 -11 20 -27 20 -37 0 -14 -2 -14
-21 3 -22 19 -22 19 -14 -6 7 -23 6 -24 -9 -11 -11 10 -15 22 -11 38 3 13 2
23 -3 23 -7 0 -8 28 -3 48 3 9 21 -11 21 -24z m693 -39 c-33 -54 -90 -85 -154
-85 -40 0 -69 13 -69 29 0 4 24 6 53 7 32 0 67 8 92 22 46 24 95 67 96 85 0 9
2 9 6 -1 2 -7 -8 -32 -24 -57z m-752 -96 c8 -5 33 -15 56 -21 l42 -12 -26 -48
c-14 -26 -30 -48 -36 -48 -5 0 -6 -7 -3 -16 4 -12 1 -14 -14 -9 -25 8 -38 -20
-21 -46 6 -11 7 -19 2 -19 -5 0 -13 9 -16 20 -3 11 -11 20 -16 20 -13 0 -11
-7 7 -34 9 -15 11 -26 5 -30 -6 -4 -17 7 -26 24 -20 38 -29 38 -21 0 4 -22 2
-30 -9 -31 -8 -1 -20 -2 -26 -3 -6 0 -17 -10 -25 -20 -8 -11 -14 -14 -14 -8 0
7 -4 12 -10 12 -5 0 -10 -7 -10 -15 0 -8 -4 -15 -10 -15 -5 0 -10 4 -10 10 0
5 -10 8 -22 6 -16 -2 -22 -9 -20 -22 2 -14 1 -16 -6 -5 -10 14 -52 7 -52 -10
0 -5 -7 -9 -16 -9 -8 0 -12 -4 -9 -10 3 -6 -1 -7 -9 -4 -9 3 -16 1 -16 -6 0
-6 -5 -8 -11 -4 -6 3 -14 3 -18 -2 -3 -5 -19 -16 -36 -24 -29 -14 -38 -16 -61
-19 -6 0 -19 -17 -30 -37 -28 -51 -98 -101 -174 -124 -37 -11 -75 -20 -84 -20
-16 0 -26 -6 -61 -37 -7 -7 -18 -13 -24 -13 -6 0 -11 -4 -11 -10 0 -5 -7 -6
-17 -3 -11 4 -14 3 -9 -5 4 -7 1 -12 -9 -12 -8 0 -18 -7 -21 -15 -4 -8 -13
-15 -21 -15 -8 0 -11 -5 -8 -10 3 -6 -2 -13 -12 -17 -27 -10 -56 -40 -49 -51
8 -14 -21 -49 -48 -56 -13 -3 -43 1 -66 9 -52 18 -74 19 -64 3 4 -7 -7 0 -24
16 -18 17 -32 33 -32 38 0 4 17 8 39 8 22 0 49 8 62 18 13 10 45 30 71 44 66
36 177 122 288 222 52 47 99 86 103 86 4 0 22 15 40 33 18 17 46 39 62 47 16
8 71 56 123 107 52 51 102 95 113 98 10 4 19 14 19 24 0 10 6 24 14 31 8 6 16
21 18 33 3 19 6 17 25 -16 26 -44 66 -66 91 -51 12 7 24 6 42 -3 l25 -14 -30
2 c-73 3 -73 -6 -1 -20 41 -7 105 1 125 16 2 2 -21 27 -52 55 -58 55 -60 59
-58 121 1 29 6 39 23 46 20 7 24 2 44 -57 11 -35 27 -68 35 -73z m5 106 c-5
-20 -3 -23 11 -18 12 5 15 2 10 -11 -4 -10 1 -23 13 -33 22 -19 17 -33 -11
-33 -21 0 -37 30 -46 88 -5 26 -2 32 12 32 13 0 16 -6 11 -25z m794 -121 c0
-127 -1 -136 -20 -141 -11 -3 -20 -13 -20 -22 0 -10 -6 -25 -13 -36 -13 -16
-14 -15 -9 13 4 32 4 32 -27 21 -18 -6 -34 -9 -37 -6 -3 3 2 29 10 58 8 30 18
75 22 102 5 38 10 47 26 47 14 0 18 5 14 16 -5 12 -2 15 10 10 11 -4 14 -1 13
12 -3 14 20 62 28 62 2 0 3 -61 3 -136z m-666 66 c-7 -6 -24 22 -23 40 0 9 6
5 14 -10 7 -14 11 -27 9 -30z m-1088 -7 l-16 -28 6 30 c8 38 17 52 21 38 3 -7
-3 -24 -11 -40z m1187 41 c3 -3 -5 -23 -18 -45 -14 -21 -50 -89 -80 -151 -54
-108 -79 -147 -89 -137 -8 8 163 339 175 339 3 0 8 -3 12 -6z m238 -11 c13
-16 12 -17 -3 -4 -10 7 -18 15 -18 17 0 8 8 3 21 -13z m-1372 -49 c-7 -8 -21
-20 -31 -25 -18 -10 -18 -7 3 32 18 36 23 40 31 25 7 -12 6 -22 -3 -32z m1359
14 c-3 -7 -12 -14 -21 -16 -12 -2 -15 1 -11 12 7 19 38 22 32 4z m28 -46 c-11
-10 -15 4 -8 28 l7 25 3 -23 c2 -13 1 -26 -2 -30z m-813 -12 c6 -8 0 -5 -12 6
-16 15 -21 27 -15 35 7 11 9 9 12 -6 2 -11 9 -27 15 -35z m447 38 c0 -25 -16
-37 -38 -31 -25 6 -27 14 -10 31 16 16 48 15 48 0z m135 3 c3 -5 19 -9 35 -9
17 1 33 -2 37 -5 3 -4 -4 -7 -16 -7 -17 0 -22 -4 -17 -16 6 -16 -46 -98 -64
-100 -6 -1 -14 -2 -19 -3 -5 0 -7 -9 -4 -20 5 -21 -68 -135 -92 -145 -8 -3
-14 -11 -13 -18 2 -7 -6 -13 -17 -13 -29 0 -21 47 16 101 16 23 29 45 29 49 0
14 102 195 110 195 5 0 11 -4 15 -9z m115 -43 c0 -32 -3 -39 -12 -30 -15 15
-19 42 -7 42 5 0 8 3 8 8 -2 12 1 22 6 22 3 0 5 -19 5 -42z m-565 0 c6 -13 17
-22 24 -20 7 1 10 -2 6 -8 -8 -14 -41 4 -55 30 -8 15 -8 20 2 20 7 0 18 -10
23 -22z m78 8 c13 -10 15 -16 7 -21 -7 -4 -22 2 -33 14 -25 24 -4 30 26 7z
m673 -19 c-3 -12 -10 -51 -17 -87 -6 -36 -16 -69 -20 -74 -13 -14 -11 10 6 79
8 33 14 73 15 88 0 16 4 26 10 22 6 -3 8 -16 6 -28z m74 7 c0 -30 -34 -151
-49 -174 -17 -25 -25 -2 -13 37 6 21 14 61 18 88 6 50 18 75 35 75 5 0 9 -12
9 -26z m25 -21 c-10 -69 -44 -173 -56 -173 -7 0 -8 7 -4 18 18 42 44 130 50
165 3 20 8 37 12 37 3 0 2 -21 -2 -47z m-78 5 c-3 -8 -6 -5 -6 6 -1 11 2 17 5
13 3 -3 4 -12 1 -19z m-932 -36 c-2 -3 -11 1 -20 8 -17 15 -19 7 -5 -21 13
-24 -5 -26 -19 -2 -6 11 -6 24 1 36 9 18 11 18 29 1 10 -9 17 -19 14 -22z m30
28 c-3 -5 -10 -10 -16 -10 -5 0 -9 5 -9 10 0 6 7 10 16 10 8 0 12 -4 9 -10z
m266 -18 c-7 -2 -19 -1 -29 3 -14 5 -14 7 -2 15 9 5 20 4 28 -3 10 -8 11 -12
3 -15z m390 11 c12 -15 12 -16 -5 -10 -15 6 -17 4 -13 -13 3 -10 2 -19 -2 -18
-19 2 -31 -4 -31 -16 0 -8 6 -17 13 -20 6 -3 1 -3 -12 0 -19 5 -23 3 -18 -9 4
-12 2 -14 -10 -10 -11 4 -14 2 -11 -8 5 -15 -19 -45 -29 -36 -6 6 89 150 103
156 1 1 8 -7 15 -16z m183 -37 c-3 -21 -8 -35 -11 -32 -2 2 -1 20 3 40 3 21 8
35 11 32 2 -2 1 -20 -3 -40z m-103 -33 c-5 -10 -14 -29 -20 -43 l-11 -25 5 27
c4 24 2 26 -21 24 -14 -2 -34 -10 -45 -19 -40 -35 -17 7 29 52 47 46 47 46 60
24 8 -15 9 -29 3 -40z m79 47 c0 -5 -2 -10 -4 -10 -3 0 -8 5 -11 10 -3 6 -1
10 4 10 6 0 11 -4 11 -10z m-890 -47 c0 -13 -3 -13 -15 -3 -8 7 -15 19 -15 27
0 13 3 13 15 3 8 -7 15 -19 15 -27z m353 30 c-7 -2 -19 -2 -25 0 -7 3 -2 5 12
5 14 0 19 -2 13 -5z m504 -45 c-3 -8 -6 -5 -6 6 -1 11 2 17 5 13 3 -3 4 -12 1
-19z m98 -18 c-9 -41 -17 -33 -9 9 4 17 9 30 11 27 3 -2 2 -19 -2 -36z m-985
20 c0 -5 -7 -7 -15 -4 -8 4 -15 8 -15 10 0 2 7 4 15 4 8 0 15 -4 15 -10z m860
-15 c0 -14 -4 -25 -9 -25 -4 0 -6 11 -3 25 2 14 6 25 8 25 2 0 4 -11 4 -25z
m219 -24 c-7 -23 -15 -41 -19 -41 -4 0 0 20 8 44 20 55 28 53 11 -3z m-157 -3
c-6 -6 -7 0 -4 19 5 21 7 23 10 9 2 -10 0 -22 -6 -28z m-936 5 c-7 -7 -26 7
-26 19 0 6 6 6 15 -2 9 -7 13 -15 11 -17z m464 -18 c0 -5 -5 -3 -10 5 -5 8
-10 20 -10 25 0 6 5 3 10 -5 5 -8 10 -19 10 -25z m-490 0 c0 -9 -6 -12 -17 -8
-12 5 -15 2 -10 -10 8 -20 -4 -22 -22 -4 -11 10 -13 8 -8 -11 5 -20 3 -21 -10
-11 -12 11 -14 10 -11 -7 2 -14 -2 -18 -16 -16 -13 3 -17 -1 -13 -12 4 -10 1
-13 -9 -9 -9 3 -14 -1 -14 -13 0 -9 -2 -15 -6 -12 -3 3 -24 -14 -47 -39 -38
-40 -44 -43 -56 -29 -12 14 -10 16 10 16 18 0 20 3 11 12 -18 18 -14 32 4 17
15 -12 16 -11 9 10 -5 16 -4 21 4 17 7 -5 11 1 11 14 0 12 4 19 9 15 6 -3 13
1 18 8 4 8 28 27 53 43 25 16 47 32 50 35 7 9 43 17 53 12 4 -2 7 -11 7 -18z
m960 -50 c86 -23 189 -19 287 10 l23 7 -1 -225 -1 -225 -34 5 c-33 6 -41 -3
-35 -40 1 -4 -10 -12 -24 -17 -31 -12 -33 -30 -2 -31 12 0 16 -3 8 -6 -11 -5
-11 -7 0 -15 9 -5 5 -6 -13 -2 -18 4 -28 2 -28 -5 0 -6 11 -11 25 -11 14 0 25
-5 25 -11 0 -7 -10 -9 -27 -4 -14 3 -81 8 -148 10 -67 3 -134 9 -149 15 -42
16 -85 12 -122 -10 -42 -27 -117 -39 -257 -41 -106 -1 -117 0 -207 34 -59 23
-110 36 -135 35 -50 -2 -108 34 -124 77 -7 21 -24 38 -53 52 -24 11 -63 31
-87 43 l-43 23 38 20 c22 11 59 37 83 59 57 49 134 93 191 108 25 6 73 22 107
36 34 13 66 24 71 24 18 0 -1 -51 -25 -67 -27 -18 -113 -120 -113 -134 0 -5 9
-9 20 -9 11 0 20 4 20 8 0 5 17 18 38 29 34 20 42 21 116 10 76 -11 79 -11 96
11 17 20 50 22 50 2 0 -4 14 -10 31 -14 36 -7 59 7 59 35 0 26 42 51 96 57 28
3 42 8 36 14 -6 6 -30 4 -63 -6 -62 -19 -69 -19 -69 -6 0 6 10 10 23 10 12 0
29 5 37 10 11 7 6 8 -17 4 -31 -6 -33 -5 -33 20 0 36 25 83 52 97 52 28 199
35 278 14z m-454 -25 c9 0 12 -5 8 -12 -4 -6 -8 -26 -10 -42 -1 -17 -9 -57
-19 -88 -16 -57 -17 -58 -53 -57 -31 0 -34 2 -15 9 24 10 30 25 42 100 6 37 5
53 -5 61 -23 19 -58 6 -74 -28 -8 -18 -18 -33 -22 -33 -9 0 0 25 24 66 16 27
23 31 52 27 20 -2 38 2 42 9 6 9 9 9 12 0 2 -7 10 -12 18 -12z m132 0 c-7 -11
-16 -20 -20 -20 -5 0 -8 -10 -8 -22 0 -13 -7 -31 -14 -41 -14 -18 -14 -18 -18
0 -4 18 48 103 64 103 4 0 3 -9 -4 -20z m-1436 -35 c-2 -14 -6 -25 -8 -25 -2
0 -4 11 -4 25 0 14 4 25 9 25 4 0 6 -11 3 -25z m38 -7 c0 -7 -5 -20 -10 -28
-8 -12 -10 -9 -10 13 0 15 5 27 10 27 6 0 10 -6 10 -12z m1190 -13 c-7 -8 -19
-15 -26 -15 -8 0 -11 6 -8 15 4 8 15 15 26 15 17 0 18 -3 8 -15z m130 -44 c0
-9 7 -27 16 -39 18 -26 15 -63 -5 -70 -10 -3 -12 0 -8 12 3 8 3 15 -1 14 -4
-1 -19 4 -34 10 -25 10 -27 13 -17 44 6 18 12 39 15 45 5 18 34 4 34 -16z
m-125 -18 c-9 -51 -11 -53 -49 -53 -18 0 -58 -13 -89 -28 l-55 -28 34 40 c29
34 130 101 158 105 4 0 5 -16 1 -36z m-1229 -30 c-10 -19 -15 -22 -16 -11 0 9
5 20 10 23 6 3 11 16 11 28 1 16 3 17 6 5 2 -9 -3 -29 -11 -45z m544 15 c0 -6
-7 -5 -15 2 -8 7 -15 17 -15 22 0 6 7 5 15 -2 8 -7 15 -17 15 -22z m-30 -22
c0 -5 -6 -3 -13 3 -18 14 -30 2 -16 -16 9 -9 8 -13 0 -13 -21 0 -24 30 -5 45
19 13 33 5 34 -19z m-52 -52 c-10 -10 -28 6 -28 24 0 15 1 15 17 -1 9 -9 14
-19 11 -23z m-22 -21 c-6 -6 -36 9 -36 18 0 5 9 4 20 -3 10 -7 18 -14 16 -15z
m-46 -34 c0 -6 -4 -7 -10 -4 -5 3 -10 11 -10 16 0 6 5 7 10 4 6 -3 10 -11 10
-16z m-147 -64 c-15 -20 -39 -38 -53 -41 -14 -3 -60 -23 -103 -45 -101 -51
-109 -50 -105 3 3 37 7 43 33 51 17 5 52 11 78 13 33 2 58 12 79 29 19 16 42
25 64 25 l35 0 -28 -35z m87 14 c0 -6 -4 -7 -10 -4 -5 3 -10 11 -10 16 0 6 5
7 10 4 6 -3 10 -11 10 -16z m-20 -20 c0 -6 -4 -7 -10 -4 -5 3 -10 11 -10 16 0
6 5 7 10 4 6 -3 10 -11 10 -16z m379 -37 c88 -44 106 -69 42 -58 -29 4 -48 2
-62 -8 -26 -18 -13 -26 47 -32 43 -4 124 -39 124 -54 0 -4 -11 -5 -24 -3 -40
8 -40 -15 1 -32 35 -15 39 -15 53 2 35 42 212 13 238 -40 10 -20 28 -31 78
-47 37 -11 80 -20 96 -20 17 0 57 -7 91 -16 44 -11 97 -14 196 -12 146 3 332
-10 309 -22 -7 -4 -435 -10 -950 -13 -910 -4 -938 -4 -938 14 0 12 7 19 19 19
10 0 24 7 31 16 8 8 28 21 45 29 20 8 35 22 39 38 7 29 40 44 60 28 22 -19 57
2 121 74 56 63 181 157 222 168 50 13 92 5 162 -31z m1341 -52 c0 -5 -4 -10
-10 -10 -5 0 -10 5 -10 10 0 6 5 10 10 10 6 0 10 -4 10 -10z m30 -40 c0 -15
-6 -20 -27 -19 -25 0 -26 1 -8 9 17 7 17 9 3 9 -28 1 -21 21 7 21 18 0 25 -5
25 -20z m0 -45 c0 -10 -9 -15 -27 -14 -22 1 -24 2 -8 7 l20 5 -20 8 c-17 7
-16 8 8 8 18 1 27 -4 27 -14z m0 -35 c0 -5 -14 -10 -31 -10 -17 0 -28 4 -24
10 3 6 17 10 31 10 13 0 24 -4 24 -10z m-510 -5 c0 -8 -62 -37 -67 -31 -3 3
10 12 28 20 42 18 39 17 39 11z m77 -1 c-3 -3 -12 -4 -19 -1 -8 3 -5 6 6 6 11
1 17 -2 13 -5z m246 -8 c53 -2 100 -6 104 -10 3 -3 -3 -6 -15 -6 -23 0 -38
-15 -23 -24 5 -4 12 -2 16 4 3 5 13 10 21 10 12 0 13 -8 8 -35 -4 -23 -2 -35
5 -35 6 0 11 9 11 21 0 14 5 19 15 16 8 -4 17 -2 20 3 4 6 -1 10 -9 10 -9 0
-16 5 -16 10 0 6 11 10 25 10 24 0 25 -3 25 -54 0 -51 -2 -54 -27 -59 -36 -7
-267 11 -315 24 -22 6 -86 7 -157 3 -137 -8 -207 4 -207 36 0 16 11 20 66 26
36 3 86 17 113 30 61 30 66 30 29 -1 -31 -26 -94 -44 -157 -45 -30 0 -36 -3
-25 -10 9 -6 43 -8 80 -4 75 6 128 23 109 34 -21 14 32 39 74 35 31 -2 35 -1
22 8 -12 10 -2 11 47 10 35 -2 107 -5 161 -7z m160 -13 c-7 -2 -19 -2 -25 0
-7 3 -2 5 12 5 14 0 19 -2 13 -5z m-483 -43 c-8 -5 -19 -10 -25 -10 -5 0 -3 5
5 10 8 5 20 10 25 10 6 0 3 -5 -5 -10z m-283 -6 c-3 -3 -12 -4 -19 -1 -8 3 -5
6 6 6 11 1 17 -2 13 -5z m-1256 -26 c11 -21 11 -22 -4 -9 -10 7 -17 17 -17 22
0 15 9 10 21 -13z m1312 5 c-7 -2 -21 -2 -30 0 -10 3 -4 5 12 5 17 0 24 -2 18
-5z m737 -217 c0 -99 -3 -125 -15 -129 -8 -4 -473 -6 -1035 -7 l-1020 0 0 120
0 120 128 1 c939 4 1767 11 1771 15 2 2 42 4 88 4 l83 0 0 -124z"/>
<path d="M1824 3653 c-3 -10 -11 -28 -17 -40 -6 -13 -7 -26 -3 -30 4 -4 9 3
13 15 3 12 9 22 13 22 4 0 10 11 12 25 6 28 -10 34 -18 8z"/>
<path d="M1948 3633 c12 -2 22 -8 22 -13 0 -13 49 -60 54 -52 9 14 -54 72 -76
71 l-23 -2 23 -4z"/>
<path d="M1557 3473 c-13 -13 -7 -43 9 -43 13 0 14 3 5 13 -8 10 -7 17 1 25 7
7 8 12 2 12 -6 0 -14 -3 -17 -7z"/>
<path d="M1870 3453 c22 -8 50 -45 50 -66 0 -10 5 -15 10 -12 6 3 10 12 10 20
0 21 -45 65 -66 64 -14 0 -15 -2 -4 -6z"/>
<path d="M674 3396 c-49 -25 -83 -45 -76 -45 7 -1 44 15 82 34 38 19 72 35 75
35 3 0 5 -9 5 -20 0 -14 7 -20 23 -20 13 0 27 4 33 9 5 5 18 12 29 15 11 3 2
3 -20 0 -32 -5 -38 -3 -27 7 43 45 -18 37 -124 -15z"/>
<path d="M1944 3360 c-33 -33 -75 -66 -96 -74 -20 -9 -39 -20 -43 -26 -18 -29
86 38 138 88 31 31 57 53 57 49 0 -16 -31 -67 -40 -67 -6 0 -10 -7 -10 -15 0
-10 -6 -12 -17 -8 -16 6 -16 5 -4 -10 12 -15 11 -17 -12 -17 -39 0 -56 -10
-50 -27 5 -13 2 -15 -15 -11 -12 4 -22 2 -22 -3 0 -27 184 3 226 37 19 15 19
15 -1 8 -11 -4 -33 -9 -49 -12 -25 -4 -28 -2 -22 14 14 34 36 109 36 122 0 23
-18 12 -76 -48z m-34 -100 c0 -5 -4 -10 -10 -10 -5 0 -10 5 -10 10 0 6 5 10
10 10 6 0 10 -4 10 -10z"/>
<path d="M1727 3293 c-5 -27 -2 -41 7 -32 11 10 17 59 8 59 -5 0 -12 -12 -15
-27z"/>
<path d="M1795 3230 c-3 -5 1 -10 10 -10 9 0 13 5 10 10 -3 6 -8 10 -10 10 -2
0 -7 -4 -10 -10z"/>
<path d="M1294 2735 c-8 -19 13 -45 35 -45 14 0 14 2 1 10 -13 9 -13 10 0 10
12 1 11 3 -3 11 -9 6 -15 14 -12 20 4 5 1 9 -5 9 -6 0 -13 -7 -16 -15z"/>
<path d="M1825 2671 c22 -4 63 -19 92 -34 57 -29 63 -31 63 -19 0 18 -111 62
-153 61 l-42 -2 40 -6z"/>
<path d="M2000 2611 c0 -11 39 -26 47 -17 8 8 3 12 -24 20 -13 4 -23 3 -23 -3z"/>
<path d="M1580 2605 c0 -12 -5 -26 -12 -33 -8 -8 -8 -12 -1 -12 21 0 35 28 24
47 -10 17 -10 17 -11 -2z"/>
<path d="M1730 2491 c0 -14 9 -18 60 -25 42 -6 43 -6 20 7 -34 20 -80 29 -80
18z"/>
<path d="M1723 2443 c9 -2 25 -2 35 0 9 3 1 5 -18 5 -19 0 -27 -2 -17 -5z"/>
<path d="M1671 2214 c0 -11 3 -14 6 -6 3 7 2 16 -1 19 -3 4 -6 -2 -5 -13z"/>
<path d="M131 2086 c-9 -11 -9 -15 1 -19 7 -2 -8 -15 -34 -28 -27 -12 -48 -27
-48 -31 0 -4 24 5 53 21 36 20 52 34 53 49 1 25 -8 28 -25 8z"/>
<path d="M1355 1578 c7 -28 -7 -44 -27 -32 -8 5 -7 9 5 13 10 4 13 11 8 19 -6
10 -18 6 -55 -14 -40 -22 -47 -30 -44 -53 3 -22 8 -26 39 -27 62 -2 121 76 82
108 -12 10 -13 7 -8 -14z m-55 -67 c-12 -24 -40 -17 -40 9 0 12 9 20 23 22 27
4 32 -5 17 -31z"/>
<path d="M1120 1484 c-14 -7 -33 -14 -42 -14 -10 0 -18 -7 -18 -15 0 -18 12
-19 28 -3 9 9 12 9 12 0 0 -19 -28 -26 -45 -12 -12 10 -15 10 -15 -1 1 -19 39
-45 75 -51 17 -3 24 -3 18 -1 -7 3 -13 9 -13 14 0 5 -7 9 -16 9 -8 0 -12 4 -9
10 4 6 13 5 25 -2 21 -14 47 2 60 37 16 43 -11 56 -60 29z m40 -25 c0 -5 -9
-9 -20 -9 -22 0 -27 16 -7 23 15 5 27 -1 27 -14z"/>
<path d="M1769 1565 c30 -14 62 -24 70 -23 24 5 -64 48 -97 48 -22 0 -18 -5
27 -25z"/>
<path d="M1750 1541 c19 -11 39 -17 44 -14 14 9 -25 33 -53 33 -25 -1 -24 -2
9 -19z"/>
<path d="M1626 1502 c-2 -4 -1 -14 3 -21 6 -9 11 -10 15 -2 4 6 2 11 -4 11 -6
0 -8 5 -5 10 3 6 4 10 1 10 -3 0 -7 -4 -10 -8z"/>
<path d="M1365 1230 c3 -5 8 -10 11 -10 2 0 4 5 4 10 0 6 -5 10 -11 10 -5 0
-7 -4 -4 -10z"/>
<path d="M1220 1066 c0 -9 5 -16 10 -16 6 0 10 4 10 9 0 6 -4 13 -10 16 -5 3
-10 -1 -10 -9z"/>
<path d="M1670 431 c-21 -6 -15 -9 30 -14 30 -4 73 -9 95 -12 37 -4 36 -4 -10
9 -85 24 -89 25 -115 17z"/>
<path d="M1445 153 c0 -75 15 -96 25 -34 l5 33 29 -31 c28 -29 56 -41 56 -23
0 5 -11 19 -25 32 -25 23 -25 23 -4 38 12 8 19 23 17 35 -3 19 -10 22 -53 23
l-50 0 0 -73z m75 53 c0 -18 -15 -36 -31 -36 -12 0 -19 7 -19 20 0 15 7 20 25
20 14 0 25 -2 25 -4z"/>
<path d="M1578 213 c-2 -10 -2 -43 1 -73 6 -51 8 -55 33 -58 41 -5 78 36 78
87 0 46 -18 61 -73 61 -25 0 -36 -5 -39 -17z m66 -9 c19 -18 21 -75 4 -92 -31
-31 -48 1 -39 76 4 36 12 40 35 16z"/>
<path d="M1738 223 c-26 -7 -22 -42 7 -65 28 -22 34 -58 9 -58 -9 0 -18 9 -21
20 -7 26 -27 20 -31 -9 -3 -21 0 -22 45 -19 44 3 48 5 51 30 2 20 -4 35 -22
52 -32 28 -33 36 -5 29 16 -4 20 -2 17 8 -5 15 -23 20 -50 12z"/>
<path d="M1006 204 c-30 -29 -14 -59 34 -66 14 -1 25 -10 25 -18 0 -22 -43
-25 -66 -4 -18 16 -19 16 -19 -9 0 -25 3 -27 43 -27 48 0 67 13 67 46 0 29
-21 45 -49 37 -18 -4 -22 -2 -19 8 3 8 15 13 27 12 15 -2 21 3 21 17 0 25 -41
28 -64 4z"/>
<path d="M1110 200 c6 -12 14 -40 18 -63 10 -54 36 -62 46 -15 l7 33 28 -34
c15 -19 33 -31 38 -28 6 4 16 26 22 51 6 24 13 51 17 60 4 11 1 16 -10 16 -9
0 -15 -3 -14 -7 3 -16 -14 -83 -22 -83 -12 0 -33 58 -26 75 4 11 -2 15 -22 15
-26 0 -28 -2 -24 -35 3 -21 0 -35 -6 -35 -6 0 -14 16 -18 35 -4 26 -11 35 -25
35 -17 0 -18 -3 -9 -20z"/>
<path d="M1306 198 c-34 -49 -11 -108 42 -108 62 0 92 57 56 108 -21 30 -77
30 -98 0z m75 -33 c8 -47 5 -55 -22 -55 -28 0 -46 43 -30 76 17 38 44 28 52
-21z"/>
<path d="M97 138 c1 -52 6 -73 15 -73 7 0 15 16 18 35 l6 35 14 -25 c8 -14 13
-28 12 -32 -1 -5 18 -8 42 -8 l45 0 3 43 3 42 28 -43 c38 -59 52 -51 52 32 0
54 -2 66 -15 64 -11 -2 -14 -15 -12 -48 l3 -45 -31 48 c-17 27 -36 46 -43 44
-7 -3 -11 -10 -9 -16 6 -28 6 -100 0 -107 -12 -11 -35 3 -64 41 l-28 37 24 18
c14 10 21 22 17 26 -4 4 -15 0 -25 -9 -23 -21 -33 -22 -26 -2 4 10 0 15 -13
15 -17 0 -19 -7 -16 -72z"/>
<path d="M368 205 c-9 -9 8 -119 20 -123 18 -6 17 114 -2 121 -8 3 -16 4 -18
2z"/>
<path d="M533 143 c3 -50 8 -68 18 -68 10 0 13 10 11 33 -3 26 0 32 17 32 15
0 20 -8 23 -32 5 -58 22 -30 23 37 0 45 -4 65 -12 65 -8 0 -13 -13 -13 -30 0
-16 -3 -30 -7 -30 -19 1 -34 19 -31 36 2 11 -4 20 -15 22 -15 3 -17 -4 -14
-65z"/>
<path d="M647 203 c-14 -14 -6 -24 14 -18 21 7 21 5 17 -54 -4 -57 -3 -61 17
-61 20 0 21 4 17 62 -4 55 -3 61 10 50 16 -13 28 -7 28 15 0 9 -15 13 -48 13
-27 0 -52 -3 -55 -7z"/>
<path d="M855 196 c-19 -13 -19 -14 0 -56 15 -34 17 -47 8 -71 -9 -23 -9 -29
0 -26 7 2 18 21 25 42 7 22 18 42 24 46 12 7 1 49 -13 49 -5 0 -9 -5 -9 -11 0
-8 -5 -8 -15 1 -13 11 -13 14 2 26 24 18 2 18 -22 0z"/>
<path d="M425 176 c-23 -35 -16 -77 17 -96 33 -18 61 -6 66 29 3 17 -1 21 -25
20 -15 0 -22 -3 -15 -6 14 -6 16 -33 2 -33 -18 0 -32 52 -21 77 11 24 31 31
31 12 0 -5 5 -7 10 -4 20 12 9 25 -20 25 -20 0 -35 -8 -45 -24z"/>
<path d="M803 125 c-14 -11 -16 -18 -7 -32 17 -28 48 -23 52 8 4 32 -18 43
-45 24z m32 -14 c3 -5 1 -12 -4 -15 -5 -3 -11 1 -15 9 -6 16 9 21 19 6z"/>
<path d="M1875 111 c-3 -5 -1 -12 5 -16 12 -7 30 2 30 16 0 12 -27 12 -35 0z"/>
<path d="M96 437 c3 -10 9 -15 12 -12 3 3 0 11 -7 18 -10 9 -11 8 -5 -6z"/>
</g>
</svg>
