<?xml version="1.0" standalone="no"?>
<!DOCTYPE svg PUBLIC "-//W3C//DTD SVG 20010904//EN"
 "http://www.w3.org/TR/2001/REC-SVG-20010904/DTD/svg10.dtd">
<svg version="1.0" xmlns="http://www.w3.org/2000/svg"
 width="222.000000pt" height="388.000000pt" viewBox="0 0 222.000000 388.000000"
 preserveAspectRatio="xMidYMid meet">
<metadata>
Created by potrace 1.16, written by Peter Selinger 2001-2019
</metadata>
<g transform="translate(0.000000,388.000000) scale(0.100000,-0.100000)"
fill="#000000" stroke="none">
<path d="M179 3872 l-165 -2 1 -1916 c1 -1400 5 -1918 13 -1926 8 -8 308 -11
1094 -12 l1083 -1 -1 710 c-1 391 -2 978 -4 1305 -1 327 0 773 3 990 5 394 -3
833 -14 844 -6 7 -1709 13 -2010 8z m1982 -99 c1 -43 3 -94 4 -113 5 -52 10
-945 7 -1255 l-2 -270 -42 2 c-24 1 -46 2 -51 2 -4 1 -17 13 -30 27 -68 81
-196 65 -231 -28 -19 -48 -50 -68 -103 -68 -37 0 -82 -20 -102 -44 -7 -9 -15
-37 -16 -62 -4 -56 -18 -68 -91 -73 -6 -1 -25 -14 -42 -31 -29 -27 -31 -28
-37 -10 -4 11 -10 20 -15 20 -4 0 -3 11 3 25 11 22 18 25 65 25 35 0 52 4 52
13 0 6 3 22 6 35 6 21 3 22 -49 22 l-55 0 -7 36 c-4 25 -2 41 8 53 8 9 22 41
31 71 30 93 57 105 51 22 -3 -51 4 -61 40 -54 22 4 23 6 10 26 -20 30 -28 116
-13 134 7 8 13 36 14 63 3 59 6 64 52 85 57 26 102 63 102 83 0 10 6 24 14 31
8 6 13 17 10 25 -3 7 -1 16 5 20 6 3 11 13 11 21 0 26 -66 17 -112 -16 -45
-33 -56 -33 -39 -2 25 47 -2 43 -56 -9 -32 -30 -43 -48 -43 -70 0 -20 -11 -41
-32 -64 -18 -18 -42 -46 -53 -62 l-20 -28 -6 42 c-3 23 -4 96 -2 162 2 75 -1
121 -7 121 -8 0 -17 -438 -11 -540 1 -14 -5 -34 -13 -45 -14 -18 -15 19 -10
355 2 206 6 436 9 510 2 74 4 256 5 403 0 181 3 266 10 262 7 -4 10 -152 10
-438 0 -238 1 -448 2 -467 2 -19 5 177 8 435 5 457 4 471 -15 502 -25 41 -36
41 -57 1 -15 -29 -17 -101 -22 -613 -4 -319 -9 -617 -13 -661 l-6 -82 -41 5
c-22 2 -51 9 -63 15 -12 6 -42 8 -67 5 -32 -5 -47 -2 -56 8 -7 8 -18 15 -24
15 -7 0 -22 11 -33 23 -14 17 -40 28 -84 36 -85 16 -99 21 -99 32 0 5 11 15
25 21 22 10 25 17 23 50 -1 28 3 42 18 52 19 15 19 15 -1 13 -23 -2 -72 -47
-51 -47 19 0 28 -40 10 -47 -15 -6 -47 -1 -79 13 -17 7 -15 3 8 -25 25 -30 32
-48 28 -78 -1 -7 3 -13 9 -13 5 0 10 5 10 11 0 8 5 8 15 -1 16 -13 20 -40 6
-40 -5 0 -28 9 -52 19 -45 19 -129 37 -129 27 0 -3 19 -10 43 -16 67 -17 97
-31 97 -46 0 -8 -8 -15 -17 -15 -17 -1 -17 -2 0 -6 9 -2 17 -9 17 -14 0 -18
-31 -21 -49 -5 -10 9 -23 16 -29 16 -7 0 -12 5 -12 10 0 6 11 8 25 4 14 -3 25
-2 25 3 0 11 -78 39 -134 49 l-38 7 17 -26 c13 -20 14 -30 5 -47 -16 -29 -44
-22 -48 13 -3 20 1 27 15 28 17 0 17 1 0 8 -17 6 -17 8 -3 20 9 8 31 17 49 20
27 6 32 12 35 39 3 29 22 47 22 21 0 -5 5 -7 10 -4 7 4 7 11 2 18 -5 7 -12 20
-15 30 -6 17 -4 16 19 -2 29 -23 49 -19 39 7 -3 9 -3 13 1 9 8 -8 33 73 34
110 0 37 21 71 53 87 17 8 35 12 39 10 4 -3 7 -27 7 -53 -1 -27 4 -57 10 -67
11 -17 12 -16 6 9 -13 63 -7 162 14 215 l21 53 -26 24 c-15 14 -32 25 -38 25
-6 0 0 -9 13 -19 20 -16 23 -23 17 -55 -7 -36 -8 -37 -29 -23 -16 11 -22 25
-22 50 0 21 -4 32 -9 27 -5 -5 -22 -6 -38 -3 -22 4 -35 0 -53 -17 -23 -22 -25
-22 -26 -4 -1 18 -2 18 -6 1 -5 -18 -5 -18 -19 0 -7 10 -14 13 -14 7 0 -6 -15
-11 -32 -12 -129 -4 -142 -6 -155 -32 -7 -14 -13 -21 -13 -17 0 5 -5 5 -11 1
-7 -4 -2 -16 14 -33 36 -39 50 -70 54 -125 2 -28 8 -56 14 -62 5 -7 6 -14 2
-16 -9 -3 -33 -80 -54 -168 -7 -30 -14 -57 -16 -59 -1 -2 -12 7 -23 21 -28 36
-60 39 -176 18 -109 -19 -146 -34 -182 -73 -33 -35 -34 -98 -3 -131 30 -31 76
-42 107 -25 13 7 26 10 28 8 8 -8 30 -158 24 -164 -3 -3 -18 2 -35 11 -44 26
-99 12 -145 -36 l-36 -39 5 462 c3 254 5 677 5 939 l1 478 356 2 c196 2 672 4
1059 6 l702 4 1 -79z m-806 -496 c-4 -458 -15 -967 -24 -1102 l-6 -105 27 0
c36 0 47 -20 11 -21 -25 -2 -24 -2 7 -8 45 -8 54 -38 13 -43 -49 -5 -103 3
-103 17 0 7 4 15 10 17 5 2 11 113 15 273 2 149 7 353 10 455 3 102 8 336 11
520 3 184 8 343 10 353 17 58 22 -34 19 -356z m-578 -391 c-3 -8 1 -17 9 -20
12 -5 14 -1 9 17 -6 18 -5 20 6 10 21 -21 0 -67 -34 -71 -32 -4 -34 -13 -6
-30 11 -7 18 -19 15 -27 -4 -10 2 -11 25 -5 30 9 81 -1 63 -12 -14 -9 -228
-49 -273 -51 -22 -1 -41 3 -41 8 -2 15 81 33 112 24 18 -5 31 -3 39 7 7 8 22
12 38 9 24 -5 25 -5 4 4 -16 7 -23 19 -24 38 0 15 -2 36 -4 45 -2 10 10 29 27
43 34 28 43 31 35 11z m-223 -22 c20 -8 21 -42 0 -65 -14 -16 -14 -18 5 -24
28 -9 28 -37 0 -33 -14 2 -31 20 -47 50 -21 39 -23 49 -12 62 13 17 29 20 54
10z m50 -7 c-3 -8 4 -13 17 -14 14 -1 19 3 15 13 -7 17 13 18 35 1 14 -10 24
-39 32 -86 3 -20 -30 -38 -44 -24 -9 9 -9 16 1 28 15 18 12 23 -17 28 -12 1
-28 9 -37 16 -17 15 -22 51 -6 51 5 0 7 -6 4 -13z m226 -37 c0 -5 -2 -10 -4
-10 -3 0 -8 5 -11 10 -3 6 -1 10 4 10 6 0 11 -4 11 -10z m40 -19 c0 -26 -16
-35 -24 -15 -10 25 -7 34 9 34 8 0 15 -9 15 -19z m-46 -10 c7 -11 -22 -23 -35
-15 -5 3 -9 9 -9 15 0 12 37 12 44 0z m-194 -31 c-12 -22 -40 -27 -40 -7 0 19
10 27 32 27 16 0 17 -3 8 -20z m150 -50 c0 -5 -10 -10 -22 -9 -22 0 -22 1 -3
9 11 5 21 9 23 9 1 1 2 -3 2 -9z m-80 -29 c0 -5 -7 -14 -15 -21 -9 -7 -14 -19
-11 -27 3 -7 -1 -18 -8 -25 -10 -10 -9 -15 8 -29 21 -17 21 -17 -8 -12 -19 4
-27 2 -23 -4 4 -6 0 -16 -8 -23 -8 -7 -15 -17 -15 -23 0 -6 7 -2 15 9 13 17
14 17 15 2 0 -9 -5 -20 -10 -23 -6 -4 -8 -16 -4 -27 4 -13 2 -18 -4 -14 -6 3
-13 -2 -17 -11 -3 -10 -17 -26 -31 -37 l-26 -18 12 23 c7 13 21 31 32 40 15
12 18 22 12 44 -7 28 -8 27 -39 -36 -18 -35 -42 -72 -54 -83 -11 -10 -18 -23
-15 -28 3 -5 12 -1 20 9 12 16 13 14 14 -24 0 -41 19 -73 44 -73 7 0 22 9 34
21 17 15 30 19 52 14 35 -8 32 -22 -5 -22 -31 0 -55 -19 -55 -44 0 -11 -4 -19
-10 -19 -14 0 -40 -67 -40 -104 0 -38 15 -56 47 -56 13 0 33 -9 44 -19 l21
-19 -21 -7 c-26 -8 -27 -23 -3 -42 13 -11 13 -13 2 -10 -8 2 -25 22 -38 45
-26 47 -63 57 -84 23 -9 -15 -15 -17 -25 -9 -18 15 -17 22 13 57 14 17 27 37
28 43 8 40 19 76 28 95 14 28 3 43 -30 43 -15 0 -35 7 -45 15 -18 13 -18 14 2
27 26 16 27 31 2 23 -18 -5 -19 -2 -14 32 7 42 21 85 22 66 1 -22 21 -14 21 8
0 12 -4 17 -11 13 -8 -4 -9 4 -4 27 9 46 26 100 37 122 6 12 5 23 -2 32 -18
21 0 44 43 54 55 12 107 13 107 2z m50 -31 c0 -11 -4 -20 -10 -20 -5 0 -7 7
-4 15 4 8 -1 17 -10 21 -9 3 -16 10 -16 15 0 6 9 5 20 -1 11 -6 20 -20 20 -30z
m10 -39 c0 -5 -7 -12 -16 -15 -14 -5 -15 -4 -4 9 14 17 20 19 20 6z m822 -38
c-23 -34 -41 -119 -19 -90 8 9 17 17 20 17 3 0 8 -8 10 -17 2 -10 3 0 0 22 -3
38 -1 41 29 53 l33 12 -25 -20 -25 -20 30 11 c17 5 40 20 52 31 13 12 25 19
29 16 3 -3 -15 -21 -40 -39 -57 -40 -52 -52 6 -15 l43 27 -42 -36 c-48 -41
-57 -66 -15 -41 26 16 26 16 -3 -9 -16 -14 -53 -33 -81 -42 -40 -12 -50 -20
-47 -33 3 -9 -3 -34 -11 -55 l-16 -38 -25 27 c-26 28 -33 60 -15 71 17 10 50
82 50 109 0 16 13 34 38 55 46 38 48 38 24 4z m-862 13 c0 -3 -4 -8 -10 -11
-5 -3 -10 -1 -10 4 0 6 5 11 10 11 6 0 10 -2 10 -4z m-4 -83 c-1 -2 -13 9 -26
24 -16 18 -18 24 -6 20 9 -4 16 -1 17 6 0 7 5 -1 10 -17 4 -17 7 -31 5 -33z
m-79 -75 c-3 -8 -6 -5 -6 6 -1 11 2 17 5 13 3 -3 4 -12 1 -19z m-224 -39 c4
-16 3 -18 -9 -8 -16 13 -19 29 -5 29 5 0 11 -9 14 -21z m-85 -33 c12 -11 22
-15 22 -8 0 6 -12 20 -26 31 -15 12 -21 21 -15 21 7 0 23 -12 36 -27 25 -29
33 -49 15 -38 -13 8 -13 -5 0 -25 7 -11 12 -12 21 -3 9 9 7 21 -10 50 l-21 38
29 -33 c17 -20 30 -29 33 -21 2 6 16 13 30 15 23 2 26 -1 23 -23 -1 -14 -9
-29 -16 -34 -10 -6 -15 -37 -17 -106 -2 -54 -4 -132 -6 -173 -1 -43 -8 -86
-17 -100 -13 -23 -15 -11 -20 135 -5 129 -10 170 -27 214 -22 57 -66 111 -89
111 -8 0 -11 5 -8 10 7 11 18 5 63 -34z m557 33 c12 -19 -5 -23 -22 -6 -16 16
-16 17 -1 17 9 0 20 -5 23 -11z m-617 -23 c44 -23 59 -47 82 -126 18 -62 23
-110 26 -270 7 -276 25 -382 63 -375 9 2 16 4 16 5 0 1 50 4 110 6 61 2 153 5
205 7 62 3 98 0 103 -7 4 -7 10 -8 15 -1 4 6 51 10 105 10 55 0 101 3 104 8 2
4 -4 7 -14 8 -38 2 -227 -1 -434 -7 -253 -8 -231 -18 -249 119 -12 85 -8 135
5 90 4 -13 11 -23 16 -23 5 0 6 -19 3 -43 -5 -33 -1 -53 14 -84 25 -48 37 -51
165 -48 258 8 464 15 570 21 83 4 117 3 117 -5 0 -6 -9 -11 -20 -11 -11 0 -20
-4 -20 -9 0 -14 16 -22 24 -13 12 11 70 11 84 0 8 -7 12 -7 12 1 0 6 7 11 15
11 8 0 15 -7 15 -15 0 -8 -4 -15 -10 -15 -5 0 -10 -7 -10 -15 0 -8 -9 -15 -20
-15 -13 0 -18 -5 -14 -15 4 -11 0 -15 -16 -15 -20 0 -21 -2 -9 -17 12 -14 12
-16 0 -8 -11 6 -13 4 -8 -8 3 -10 2 -17 -4 -17 -6 0 -8 -9 -4 -20 5 -15 2 -20
-11 -20 -13 0 -14 -3 -4 -15 9 -11 10 -15 1 -15 -8 0 -10 -8 -6 -21 5 -14 3
-19 -3 -15 -6 3 -13 2 -17 -4 -3 -5 -1 -10 4 -10 6 0 11 -4 11 -10 0 -5 -7 -7
-15 -4 -14 6 -16 2 -19 -46 -1 -8 -8 -15 -16 -15 -9 0 -14 -8 -12 -19 3 -14
-1 -17 -12 -13 -9 4 -16 2 -16 -4 0 -5 -5 -15 -10 -22 -42 -48 -90 -123 -86
-133 3 -9 -5 -11 -27 -7 -19 2 -44 -2 -60 -10 -27 -14 -32 -13 -62 5 -27 15
-38 17 -55 8 -16 -9 -25 -8 -35 0 -11 9 -21 9 -42 -2 -20 -10 -38 -11 -63 -5
-19 5 -47 10 -62 11 -21 1 -30 8 -37 29 -6 15 -14 27 -19 27 -5 0 -14 11 -20
25 -14 31 -6 32 23 3 39 -39 55 -49 73 -49 110 3 244 11 252 16 5 3 11 1 15
-5 8 -13 51 -13 78 1 36 19 143 137 170 187 14 26 32 74 41 107 24 92 52 144
75 138 10 -2 21 -1 24 4 9 14 -922 1 -945 -13 -5 -4 -5 -10 0 -17 5 -7 12 -35
16 -62 12 -99 43 -163 109 -226 15 -15 27 -32 27 -38 0 -15 -63 -2 -73 16 -4
7 -15 13 -23 13 -8 0 -13 4 -10 9 10 15 -6 43 -20 37 -8 -3 -14 -1 -14 4 0 6
5 10 11 10 5 0 7 5 4 10 -4 6 -11 7 -17 4 -6 -4 -8 -2 -5 3 9 14 -12 73 -25
73 -5 0 -6 5 -2 11 3 6 0 15 -7 20 -12 7 -12 9 0 9 9 0 10 4 4 13 -5 6 -9 21
-9 32 1 11 -3 23 -9 28 -6 4 -4 11 5 17 13 8 12 10 -2 10 -21 0 -23 11 -6 28
9 9 8 12 -5 12 -9 0 -17 5 -17 10 0 6 5 10 12 10 9 0 9 3 1 11 -6 6 -9 18 -6
25 3 8 0 14 -6 14 -7 0 -9 14 -6 40 3 28 1 40 -8 40 -7 0 -4 7 7 15 18 13 18
15 2 21 -14 5 -15 9 -4 15 11 8 11 10 -1 18 -10 6 -10 10 -1 16 9 6 9 10 -1
16 -12 8 -11 11 1 20 12 9 13 12 1 16 -11 5 -11 7 0 14 12 8 11 11 -1 20 -12
9 -13 12 -1 16 11 5 11 7 0 15 -11 7 -11 11 -1 15 13 5 17 43 5 43 -5 0 -9 42
-9 93 -1 50 -4 108 -7 127 -3 19 -6 41 -6 48 -1 7 -5 10 -11 7 -5 -3 -10 1
-10 9 0 9 -4 16 -10 16 -5 0 -10 7 -10 16 0 8 -4 12 -10 9 -5 -3 -10 -1 -10 4
0 6 -7 11 -15 11 -8 0 -15 6 -16 13 0 9 -2 9 -5 0 -3 -7 -11 -10 -18 -7 -23 9
-85 -24 -98 -51 -18 -40 11 -95 51 -95 16 0 34 7 41 15 16 20 8 50 -14 48 -13
-1 -15 2 -8 9 16 16 42 1 42 -23 0 -44 -61 -77 -95 -51 -18 13 -35 51 -35 80
0 31 51 87 85 94 46 9 68 7 93 -6z m731 -12 c12 -14 20 -29 16 -32 -4 -4 -13
2 -21 13 -8 11 -19 21 -24 21 -20 3 -21 4 -15 14 10 16 20 12 44 -16z m-306
-19 c1 -5 -6 -11 -15 -13 -11 -2 -18 3 -18 13 0 17 30 18 33 0z m251 9 c23 -9
20 -24 -4 -24 -11 0 -20 7 -20 15 0 17 2 18 24 9z m504 -29 c13 1 33 -6 45
-16 12 -10 17 -18 10 -19 -6 0 -15 5 -18 10 -3 6 -11 10 -17 10 -6 0 -4 -8 5
-18 22 -24 22 -33 0 -25 -12 5 -15 2 -10 -10 5 -14 2 -16 -21 -11 l-27 5 21
-19 c22 -18 22 -19 2 -31 -15 -9 -17 -16 -9 -24 26 -26 7 -87 -27 -87 -12 0
-13 16 -8 88 3 48 7 98 9 112 2 14 5 34 6 45 2 17 4 17 9 4 4 -9 17 -15 30
-14z m12 15 c0 -5 -4 -10 -10 -10 -5 0 -10 5 -10 10 0 6 5 10 10 10 6 0 10 -4
10 -10z m-1202 -25 c41 -35 51 -84 53 -275 5 -394 52 -668 133 -770 26 -34 32
-48 25 -61 -13 -26 -11 -55 6 -69 8 -7 12 -16 9 -21 -9 -15 26 -22 50 -10 16
9 22 21 21 49 0 32 -3 37 -24 37 -13 0 -26 -6 -29 -14 -3 -9 1 -11 17 -6 26 8
30 -19 4 -29 -25 -10 -47 17 -39 49 6 22 11 26 39 23 66 -6 74 -103 9 -123
-18 -5 -32 -15 -32 -22 0 -11 5 -11 20 -3 26 14 25 2 -2 -27 -27 -29 -38 -29
-38 0 -1 29 -29 90 -72 154 -44 63 -79 157 -108 285 -29 128 -39 258 -39 475
0 114 -4 189 -11 208 -7 17 -12 50 -11 74 0 25 -5 51 -11 58 -14 18 -53 17
-68 -2 -15 -18 -6 -45 15 -45 8 0 15 -4 15 -10 0 -5 -2 -10 -4 -10 -2 0 -11
-3 -19 -6 -20 -7 -47 22 -47 51 0 30 44 65 81 65 15 0 41 -11 57 -25z m582 21
c0 -11 -19 -15 -25 -6 -3 5 1 10 9 10 9 0 16 -2 16 -4z m44 -28 c-4 -34 -5
-35 -13 -13 -9 21 -5 35 8 35 4 0 7 -10 5 -22z m170 -4 c3 -8 2 -12 -4 -9 -6
3 -10 10 -10 16 0 14 7 11 14 -7z m100 7 c7 -11 -17 -21 -50 -21 -15 0 -24 6
-24 15 0 17 65 22 74 6z m-129 -31 c44 -10 82 -7 175 15 14 4 -2 -8 -35 -25
-49 -25 -67 -29 -100 -24 -53 8 -136 44 -129 55 3 5 13 5 23 -1 10 -5 40 -14
66 -20z m-5 20 c0 -5 -7 -7 -15 -4 -8 4 -15 8 -15 10 0 2 7 4 15 4 8 0 15 -4
15 -10z m-270 -20 c19 -19 19 -19 -4 -62 -13 -24 -32 -65 -41 -93 -23 -62 -33
-75 -45 -55 -5 8 -24 15 -42 15 -29 0 -33 3 -36 30 -5 38 17 105 35 105 7 0
14 6 14 13 1 6 2 19 3 27 1 10 11 15 31 14 17 0 34 5 38 13 11 18 24 16 47 -7z
m96 6 c3 -7 -8 -34 -24 -59 -32 -50 -49 -101 -82 -247 -12 -52 -28 -106 -35
-120 -11 -23 -14 -143 -4 -180 3 -10 -4 -15 -21 -15 l-25 0 1 125 c1 100 7
144 28 222 28 104 69 199 111 254 28 36 42 42 51 20z m104 -52 c0 -19 -6 -18
-30 8 -28 30 -25 42 5 22 14 -9 25 -23 25 -30z m-444 25 c3 -6 15 -9 25 -6 23
6 35 -9 20 -27 -6 -7 -9 -20 -6 -28 7 -18 -22 -51 -36 -43 -5 4 -9 14 -9 23 0
14 -4 12 -19 -7 -16 -21 -19 -21 -24 -6 -11 27 -8 80 5 93 15 15 35 15 44 1z
m720 -15 c-30 -21 -44 -16 -17 7 13 11 27 17 30 13 3 -3 -3 -12 -13 -20z
m-310 -19 c47 -41 54 -43 54 -10 0 14 5 25 10 25 6 0 9 -20 8 -45 -2 -25 -6
-45 -10 -45 -5 0 -8 4 -8 9 0 5 -11 12 -25 15 -16 4 -25 13 -25 26 0 13 -5 18
-15 14 -15 -6 -21 -34 -7 -34 4 0 20 -12 35 -26 21 -19 35 -24 52 -20 21 5 24
11 18 36 -7 35 9 40 25 8 13 -27 34 -129 28 -135 -2 -2 -10 18 -17 46 -7 27
-16 48 -20 46 -14 -9 23 -125 41 -125 5 0 10 -8 10 -18 0 -10 9 -35 20 -57 11
-22 20 -41 20 -42 0 -2 -13 -3 -29 -3 -25 0 -30 5 -44 48 -8 26 -18 70 -21 97
-9 63 -15 85 -25 85 -7 0 13 -116 34 -192 8 -31 5 -32 -46 -18 -26 7 -39 17
-43 34 -3 14 -18 29 -36 36 -27 11 -110 118 -110 142 0 7 37 87 45 96 6 7 34
-11 29 -19 -8 -13 5 -49 18 -49 6 0 7 7 3 18 -4 9 -8 24 -8 32 0 8 -7 20 -15
26 -15 11 -9 34 7 34 5 0 26 -16 47 -35z m373 -49 c-2 -70 -7 -88 -25 -110
-26 -29 -65 -34 -84 -11 -11 13 -7 15 30 15 55 0 49 7 -13 13 -40 4 -49 2 -58
-15 -8 -16 -13 -17 -25 -7 -9 7 -22 26 -31 42 -14 28 -14 30 4 25 10 -3 26 -9
36 -13 10 -4 17 -3 17 4 0 6 -5 11 -12 11 -15 0 -78 42 -78 53 0 4 11 7 25 7
14 0 44 9 65 19 22 11 48 17 58 14 10 -2 29 5 43 16 44 37 51 29 48 -63z
m-119 69 c0 -10 -44 -27 -91 -34 -27 -5 -49 -7 -49 -5 0 1 -3 9 -6 17 -4 12 3
14 38 10 24 -3 54 0 68 6 28 11 40 13 40 6z m873 -84 c32 -35 41 -40 68 -34
51 10 58 -11 59 -178 l0 -147 -26 -5 c-18 -3 -33 3 -52 20 -15 14 -37 29 -50
34 -30 12 -123 11 -142 0 -10 -7 -24 0 -51 24 -61 55 -96 69 -172 70 l-68 0 6
35 c4 19 14 43 22 53 16 17 75 37 103 35 8 -1 30 2 48 7 25 6 32 13 32 31 0
52 32 85 100 106 33 10 86 -12 123 -51z m-1529 -46 c-18 -28 -27 -31 -43 -12
-14 18 5 37 36 37 23 0 23 -1 7 -25z m-44 -48 c0 -13 -7 -32 -15 -43 -13 -18
-14 -17 -15 17 0 20 3 39 7 42 13 14 23 7 23 -16z m357 -39 c7 -15 31 -39 53
-53 31 -19 40 -31 38 -48 -3 -19 4 -23 62 -34 108 -20 139 -23 145 -13 3 6 13
10 22 10 11 0 8 -6 -11 -21 -14 -11 -26 -29 -26 -39 0 -13 -5 -17 -15 -14 -8
4 -15 1 -15 -6 0 -6 -4 -8 -10 -5 -6 3 -10 -4 -10 -17 -1 -22 -1 -22 -15 -4
-15 20 -15 20 -16 0 0 -18 -1 -18 -9 1 -7 17 -9 17 -9 3 -1 -10 -5 -18 -11
-18 -5 0 -11 8 -11 18 -1 14 -2 13 -7 -3 l-5 -20 -8 20 c-6 17 -8 17 -8 3 -1
-10 -5 -18 -11 -18 -5 0 -11 8 -11 18 -1 16 -2 16 -6 0 -6 -26 -23 -22 -24 5
-1 21 -1 21 -9 -3 -8 -24 -8 -23 -9 8 -1 19 -5 31 -11 27 -5 -3 -11 2 -11 12
-1 10 -5 5 -9 -12 l-8 -30 -2 35 c-1 19 -2 38 -1 43 2 11 -14 8 -28 -5 -10
-11 -12 -7 -11 17 3 43 1 55 -8 55 -4 0 -7 -21 -7 -46 0 -32 5 -49 18 -59 12
-9 17 -23 15 -42 l-3 -28 -28 43 c-35 54 -46 49 -17 -7 13 -27 27 -41 40 -41
11 0 20 -4 20 -10 0 -13 -26 -13 -51 0 -26 15 -24 -4 4 -24 22 -17 22 -17 -13
-11 -55 9 -69 31 -60 90 4 28 14 75 23 105 8 30 18 77 22 104 10 73 14 81 34
59 9 -10 22 -30 28 -45z m-623 11 c35 -16 39 -36 41 -199 1 -80 5 -174 10
-210 8 -65 8 -65 -12 -47 -36 31 -84 32 -137 3 -26 -15 -52 -24 -57 -21 -5 4
-9 28 -9 54 0 59 16 76 63 67 26 -5 38 -2 51 13 16 18 16 20 -5 40 -13 12 -26
21 -29 21 -4 0 -13 11 -20 25 -7 14 -19 25 -25 25 -21 0 -37 45 -32 91 9 78
33 116 87 138 33 13 45 13 74 0z m976 -21 c0 -6 -7 -5 -15 2 -8 7 -15 17 -15
22 0 6 7 5 15 -2 8 -7 15 -17 15 -22z m-600 2 c0 -11 5 -20 10 -20 6 0 10 -9
10 -20 0 -13 7 -20 19 -20 25 0 29 -14 23 -83 -3 -44 -9 -60 -24 -68 -15 -8
-22 -7 -32 7 -8 10 -20 15 -29 11 -27 -10 -42 19 -26 51 7 15 15 30 17 35 2 4
-3 7 -12 7 -22 0 -23 78 0 87 8 3 13 12 10 19 -3 9 2 14 14 14 13 0 20 -7 20
-20z m560 -64 c0 -10 8 -25 18 -33 13 -11 13 -13 2 -11 -18 5 -59 84 -59 113
0 26 38 -42 39 -69z m10 58 c0 -8 -4 -12 -10 -9 -5 3 -10 13 -10 21 0 8 5 12
10 9 6 -3 10 -13 10 -21z m-660 -4 c0 -5 -5 -10 -11 -10 -5 0 -7 5 -4 10 3 6
8 10 11 10 2 0 4 -4 4 -10z m1024 -30 c5 -5 6 -16 3 -24 -8 -20 -100 -22 -159
-4 -31 9 -45 9 -71 -3 -18 -8 -53 -13 -79 -11 -43 3 -48 6 -48 27 0 22 4 24
58 27 94 5 286 -3 296 -12z m-1024 -14 c-1 -6 -6 -21 -13 -34 l-13 -23 -12 25
c-6 14 -9 32 -6 40 6 16 44 10 44 -8z m642 -53 c6 -7 6 -13 1 -13 -10 0 -43
64 -43 83 1 7 7 -3 16 -22 8 -19 19 -41 26 -48z m188 19 c0 -5 12 -13 28 -19
l27 -11 -27 -1 c-38 -1 -36 -21 1 -21 17 0 33 -4 36 -10 4 -6 -7 -10 -27 -10
l-33 -1 30 -14 c24 -11 26 -14 10 -15 -11 0 -44 -9 -74 -19 -46 -16 -58 -17
-85 -6 -17 7 -32 20 -34 28 -2 9 -11 17 -20 20 -10 2 17 20 68 45 89 43 100
47 100 34z m480 -37 c21 -13 46 -34 54 -47 16 -22 15 -24 -4 -37 -11 -7 -20
-21 -20 -31 0 -9 -13 -31 -30 -48 -17 -18 -30 -43 -30 -57 0 -23 -2 -24 -44
-19 -41 6 -48 4 -75 -24 -17 -17 -31 -40 -31 -51 0 -12 -3 -21 -6 -21 -20 0
-83 66 -108 114 -33 63 -56 89 -56 63 0 -9 5 -19 10 -22 12 -7 14 -35 3 -35
-5 0 -25 31 -45 69 -32 57 -36 71 -24 80 11 9 16 5 23 -25 4 -21 14 -39 21
-42 7 -2 12 0 11 5 -11 60 42 129 91 118 18 -4 35 1 54 16 55 43 132 41 206
-6z m-1290 1 c-5 -5 -10 -23 -10 -38 0 -25 7 -32 46 -48 25 -11 54 -20 65 -20
14 0 19 -7 19 -26 0 -19 -4 -25 -15 -21 -10 4 -16 -4 -21 -28 -3 -18 -3 -38 1
-44 4 -7 -4 -11 -19 -11 -21 0 -26 5 -26 25 0 14 4 25 9 25 5 0 13 9 16 20 10
31 -20 70 -53 70 -15 0 -37 3 -50 6 -26 7 -25 20 3 88 13 32 18 36 31 25 10
-8 12 -15 4 -23z m880 24 c0 -5 -2 -10 -4 -10 -3 0 -8 5 -11 10 -3 6 -1 10 4
10 6 0 11 -4 11 -10z m-940 -52 c0 -9 -4 -20 -10 -23 -14 -8 -34 40 -26 61 6
16 8 16 21 -2 8 -10 15 -27 15 -36z m1612 -44 c20 -15 40 -35 43 -45 8 -23 21
-25 29 -4 3 8 14 15 24 15 17 0 19 -10 19 -130 1 -71 -2 -130 -6 -130 -4 0
-15 6 -26 14 -31 22 -101 26 -127 8 -13 -9 -25 -18 -28 -22 -3 -3 -17 -13 -32
-23 -17 -11 -28 -26 -28 -40 1 -21 1 -21 12 -2 13 24 29 35 39 29 4 -2 21 10
38 27 20 19 37 29 47 25 9 -3 24 -6 34 -6 10 0 32 -12 49 -26 31 -26 31 -26
31 -130 0 -86 -3 -104 -15 -104 -9 0 -15 9 -15 25 0 33 -22 86 -44 104 -24 20
-106 31 -131 18 -11 -7 -44 -12 -74 -13 -47 0 -57 -4 -80 -31 -14 -17 -34 -33
-43 -36 -10 -4 -18 -11 -18 -16 0 -14 -59 -41 -66 -30 -9 15 6 48 26 59 11 6
17 17 14 25 -4 8 -1 15 5 15 6 0 11 8 11 17 0 57 100 85 147 41 25 -24 32 -9
7 16 -21 21 -57 30 -98 22 -38 -7 -55 -24 -86 -84 -23 -43 -39 -43 -40 1 0 10
-10 39 -23 65 -34 69 -34 107 2 143 33 33 44 35 85 14 45 -24 73 -16 45 12
-14 14 -1 61 21 73 9 5 20 6 24 3 3 -3 6 7 6 23 0 34 4 41 48 77 46 38 120 38
174 1z m-902 -17 c0 -20 -17 -40 -28 -33 -7 4 -6 14 1 30 12 24 27 26 27 3z
m-1068 -35 c7 -11 23 -24 36 -31 26 -14 29 -41 5 -42 -73 -5 -93 10 -93 68 0
40 2 43 19 33 11 -5 26 -18 33 -28z m1275 21 c4 -9 -1 -30 -11 -46 -10 -18
-13 -33 -7 -36 5 -3 10 -13 11 -21 5 -34 0 -41 -27 -38 -27 3 -28 6 -29 58 0
30 4 61 10 69 9 12 8 13 -4 6 -13 -8 -13 -7 -1 8 17 22 50 22 58 0z m-870 -12
c32 12 53 -3 53 -38 0 -20 -4 -24 -19 -20 -25 6 -51 -10 -51 -33 0 -11 -3 -20
-7 -20 -9 1 -43 66 -43 82 0 6 8 20 18 31 14 16 17 17 20 4 3 -13 8 -14 29 -6z
m608 0 c-3 -6 -11 -11 -17 -11 -6 0 -6 6 2 15 14 17 26 13 15 -4z m165 -12
c16 -30 8 -31 -13 -3 -10 13 -13 24 -8 24 6 0 15 -9 21 -21z m-170 -24 c0 -15
-20 -19 -67 -15 -14 1 -26 -7 -34 -22 -6 -13 -13 -24 -14 -26 -7 -8 -45 20
-56 41 -10 18 -6 17 20 -7 17 -17 31 -25 31 -19 0 6 -7 16 -15 23 -27 22 -16
29 48 33 34 2 68 4 75 5 6 1 12 -5 12 -13z m110 -37 c32 -20 24 -28 -29 -28
-35 0 -51 4 -55 16 -8 22 -8 24 7 24 7 0 18 10 26 22 l14 22 8 -21 c4 -12 17
-28 29 -35z m8 32 c7 -11 11 -20 9 -20 -2 0 -12 9 -22 20 -10 11 -14 20 -9 20
5 0 15 -9 22 -20z m64 -34 c-2 -4 -15 4 -28 19 -32 37 -30 42 5 13 15 -13 26
-27 23 -32z m127 18 c29 -49 26 -57 -4 -12 -14 20 -25 39 -25 42 0 13 9 4 29
-30z m-521 -25 c14 -17 19 -29 11 -29 -17 0 -49 30 -49 47 0 20 13 15 38 -18z
m26 16 c3 -8 1 -15 -3 -15 -5 0 -11 7 -15 15 -3 8 -1 15 3 15 5 0 11 -7 15
-15z m-281 -14 c5 -22 -1 -33 -14 -25 -12 7 -12 44 0 44 5 0 11 -9 14 -19z
m-113 -11 c0 -11 -7 -20 -15 -20 -15 0 -21 21 -8 33 12 13 23 7 23 -13z m280
-10 c0 -5 -12 -10 -26 -10 -14 0 -23 4 -19 10 3 6 15 10 26 10 10 0 19 -4 19
-10z m630 -20 c0 -5 -12 -10 -26 -10 -14 0 -23 4 -19 10 3 6 15 10 26 10 10 0
19 -4 19 -10z m133 -87 c38 -39 43 -59 7 -30 -30 24 -90 97 -90 110 1 6 10 1
21 -13 10 -14 38 -44 62 -67z m-1327 -15 c24 -24 39 -49 49 -88 21 -78 20 -93
-5 -80 -10 6 -37 11 -58 13 -22 1 -47 9 -56 17 -19 15 -70 19 -103 7 -22 -8
-23 -6 -23 52 0 46 3 59 13 55 8 -3 19 2 26 10 7 8 19 12 26 10 7 -3 18 4 25
15 17 32 63 27 106 -11z m634 23 c0 -12 -35 -41 -50 -41 -10 0 -23 -7 -30 -16
-23 -27 -51 -38 -61 -23 -18 28 -10 39 24 32 29 -6 31 -5 18 11 -17 20 -7 33
13 17 9 -8 16 -8 20 -2 4 6 14 7 23 4 12 -5 15 -2 10 10 -4 11 0 15 14 14 10
-1 19 -3 19 -6z m315 -11 c17 -11 37 -20 46 -20 9 0 22 -7 29 -15 15 -17 7
-19 -21 -5 -26 14 -24 -2 2 -18 17 -11 19 -19 13 -45 -3 -18 -12 -40 -19 -49
-10 -16 -13 -14 -29 20 -10 21 -12 32 -5 25 7 -7 20 -13 29 -13 13 1 12 3 -2
14 -25 18 -22 29 5 21 l22 -6 -22 17 c-13 9 -23 24 -23 33 0 17 -53 46 -68 37
-5 -3 -12 -19 -16 -36 -3 -17 -20 -44 -38 -60 -19 -17 -26 -30 -18 -30 11 0
11 -3 2 -12 -13 -13 -17 -11 -26 18 -5 16 0 23 19 32 26 12 39 34 49 85 8 33
29 35 71 7z m-515 -24 c6 -18 21 -43 35 -56 20 -19 22 -26 14 -49 -13 -32 -48
-71 -66 -71 -20 0 -16 16 10 37 38 30 39 40 9 82 -29 40 -51 46 -31 9 8 -15 6
-25 -8 -41 -23 -28 -35 -37 -50 -37 -23 0 -14 30 12 42 29 13 36 51 8 42 -13
-4 -11 0 6 13 17 15 22 26 16 41 -5 18 -2 22 14 22 13 0 23 -10 31 -34z m45
17 c-2 -10 -4 -19 -4 -21 -1 -2 -6 0 -11 3 -8 5 -7 11 1 21 15 18 18 18 14 -3z
m360 6 c11 -17 -1 -21 -15 -4 -8 9 -8 15 -2 15 6 0 14 -5 17 -11z m170 1 c3
-5 2 -10 -4 -10 -5 0 -13 5 -16 10 -3 6 -2 10 4 10 5 0 13 -4 16 -10z m183 -2
c20 -20 15 -58 -8 -58 -11 0 -20 5 -20 10 0 6 7 10 15 10 9 0 12 6 9 15 -4 8
-13 15 -21 15 -8 0 -11 5 -8 10 8 13 18 13 33 -2z m-911 -4 c-3 -3 -12 -4 -19
-1 -8 3 -5 6 6 6 11 1 17 -2 13 -5z m398 -4 c4 -6 12 -7 18 -4 9 5 9 4 1 -6
-13 -14 -58 -4 -49 11 8 12 22 12 30 -1z m80 -10 c8 -25 23 -26 21 -2 -2 25
28 21 32 -5 2 -16 10 -23 25 -23 l22 -1 -24 -19 c-29 -25 -36 -25 -58 -1 -10
10 -28 24 -41 30 -19 10 -21 15 -11 27 16 19 27 18 34 -6z m547 -15 c64 -31
78 -42 101 -77 19 -30 23 -73 7 -63 -7 5 -9 -14 -6 -57 3 -35 8 -110 11 -168
11 -202 33 -328 67 -392 17 -32 35 -58 39 -58 13 0 11 6 -16 46 -14 20 -29 53
-35 73 -22 76 -51 456 -35 439 4 -3 17 -61 31 -129 13 -68 41 -169 60 -224 20
-55 46 -126 58 -159 11 -32 34 -70 49 -85 16 -14 35 -39 44 -55 13 -26 13 -30
-1 -44 -15 -15 -16 -14 -16 16 0 18 -5 32 -11 32 -6 0 -8 -7 -5 -16 9 -24 -12
-54 -39 -54 -13 0 -32 -11 -44 -26 -17 -21 -29 -26 -67 -26 -25 0 -51 5 -57
11 -6 6 -20 11 -32 11 -31 0 -65 28 -65 54 0 23 -38 81 -47 72 -3 -2 5 -18 17
-34 12 -17 19 -35 15 -42 -10 -16 31 -57 71 -70 37 -13 48 -35 12 -25 -37 11
-71 39 -106 89 -32 45 -33 52 -37 155 -2 59 1 148 7 198 10 76 9 106 -6 204
-24 150 -46 207 -91 238 -29 20 -34 28 -28 50 13 54 23 71 48 77 19 5 25 12
25 35 0 36 13 37 82 4z m-932 6 c0 -11 -25 -21 -53 -21 -22 1 -22 1 -3 15 22
17 56 20 56 6z m-130 -11 c-20 -13 -33 -13 -25 0 3 6 14 10 23 10 15 0 15 -2
2 -10z m50 6 c0 -2 -8 -10 -17 -17 -16 -13 -17 -12 -4 4 13 16 21 21 21 13z
m658 -8 c16 -16 15 -28 -3 -28 -8 0 -19 9 -25 20 -8 15 -8 20 3 20 7 0 18 -5
25 -12z m-298 -13 c-11 -13 -9 -15 11 -13 18 2 25 -2 27 -19 2 -13 -1 -23 -7
-23 -6 0 -11 7 -11 15 0 8 -7 15 -15 15 -18 0 -20 -24 -2 -38 6 -5 33 -13 60
-16 26 -4 47 -12 47 -17 0 -6 -4 -8 -9 -4 -5 3 -12 1 -15 -4 -7 -11 18 -33 34
-29 7 2 14 -2 17 -8 2 -7 -4 -11 -14 -10 -14 1 -19 -8 -23 -43 -3 -25 -11 -47
-20 -51 -8 -4 -28 -14 -44 -22 -27 -14 -33 -14 -75 4 -53 23 -71 42 -71 75 0
15 -6 23 -17 23 -15 0 -14 2 3 14 10 8 16 18 12 22 -4 4 0 13 10 21 16 12 16
14 -2 28 -18 14 -18 15 -2 15 9 0 25 -4 35 -10 25 -13 57 11 48 35 -4 10 -13
15 -22 11 -8 -3 -15 -1 -15 4 0 6 6 10 14 10 7 0 19 7 26 15 7 8 17 15 22 15
6 0 5 -7 -2 -15z m75 -16 c4 -5 18 -14 31 -19 13 -5 24 -14 24 -20 0 -15 -29
-12 -47 5 -8 8 -19 13 -24 10 -5 -4 -9 3 -9 14 0 22 14 28 25 10z m-445 -3 c0
-2 -8 -10 -17 -17 -16 -13 -17 -12 -4 4 13 16 21 21 21 13z m290 -11 c0 -8 -6
-15 -14 -15 -8 0 -23 -3 -33 -6 -14 -4 -13 -1 6 15 27 25 41 27 41 6z m528
-47 c-12 -65 -49 -140 -84 -167 -38 -30 -52 -26 -22 7 38 41 74 111 88 169 15
68 30 60 18 -9z m-790 25 c-9 -10 -23 -31 -32 -48 -15 -26 -16 -27 -10 -5 8
31 44 83 52 76 3 -3 -2 -14 -10 -23z m583 4 c-9 -11 -8 -17 4 -27 18 -15 11
-31 -10 -23 -18 6 -20 44 -3 61 16 16 24 6 9 -11z m-281 -7 c0 -5 -5 -10 -11
-10 -5 0 -7 5 -4 10 3 6 8 10 11 10 2 0 4 -4 4 -10z m-175 -10 c3 -5 -1 -10
-9 -10 -9 0 -16 5 -16 10 0 6 4 10 9 10 6 0 13 -4 16 -10z m525 -43 c0 -12 0
-11 -24 28 l-17 30 20 -24 c12 -13 21 -28 21 -34z m-706 18 c-4 -8 -8 -15 -10
-15 -2 0 -4 7 -4 15 0 8 4 15 10 15 5 0 7 -7 4 -15z m42 -56 c-11 -26 -15 -29
-15 -13 -1 12 5 36 11 55 10 28 13 30 16 13 2 -12 -4 -37 -12 -55z m-390 37
c19 -14 19 -15 -1 -22 -29 -10 -65 -45 -65 -63 -1 -17 -23 -51 -34 -51 -3 0
-6 29 -6 63 0 56 3 65 23 75 31 15 60 14 83 -2z m1934 -1 c37 -19 50 -43 50
-93 0 -32 5 -41 25 -50 25 -11 25 -13 25 -142 l0 -130 -32 -20 c-18 -11 -43
-20 -55 -20 -12 0 -36 -12 -53 -26 -23 -20 -34 -24 -43 -15 -6 6 -21 11 -33
11 -13 0 -26 5 -29 10 -11 18 -81 11 -109 -11 -15 -12 -28 -20 -30 -18 -6 9
-47 162 -66 249 -26 117 -22 137 28 145 65 11 69 12 45 20 -13 4 -20 11 -18
16 3 4 12 6 20 2 9 -3 15 1 15 11 0 9 10 26 21 37 18 18 29 21 74 15 42 -5 54
-3 59 9 7 20 68 20 106 0z m-1320 -5 c0 -5 -5 -10 -11 -10 -5 0 -7 5 -4 10 3
6 8 10 11 10 2 0 4 -4 4 -10z m350 -37 c0 -20 -28 -16 -40 7 -16 30 -2 45 21
24 10 -9 19 -23 19 -31z m77 9 c8 -19 9 -32 3 -32 -5 0 -10 6 -10 14 0 7 -7
19 -15 26 -18 15 -20 33 -3 28 7 -3 18 -19 25 -36z m-596 1 c-7 -26 -31 -45
-31 -24 0 14 23 51 32 51 3 0 3 -12 -1 -27z m34 2 c0 -14 -3 -25 -7 -25 -10 0
-10 34 -1 43 3 4 7 7 7 7 1 0 1 -11 1 -25z m-359 0 c28 -12 41 -27 66 -82 17
-37 51 -97 75 -132 60 -89 60 -86 37 -267 -7 -52 10 -115 41 -152 18 -21 25
-42 25 -71 0 -40 -1 -41 -61 -71 -34 -16 -62 -30 -64 -30 -6 0 -12 39 -7 45 4
4 7 14 7 23 0 12 11 19 34 22 24 3 35 11 37 24 2 17 -3 18 -56 13 -53 -4 -58
-3 -45 10 9 8 31 19 51 25 35 9 35 10 18 29 -9 10 -24 19 -33 19 -33 0 -96
-29 -99 -44 -2 -9 -8 -16 -13 -16 -5 0 -9 32 -9 70 l0 70 44 0 c42 0 74 19 48
28 -20 6 -3 22 24 22 16 0 24 6 24 16 0 14 -10 16 -67 12 -39 -3 -59 -2 -48 3
11 4 32 8 48 8 33 1 36 21 3 21 -14 0 -28 5 -31 10 -4 6 13 10 44 10 28 0 51
5 51 10 0 6 7 10 16 10 14 0 14 2 3 16 -10 12 -25 15 -56 11 -30 -3 -43 -1
-47 10 -3 8 -10 11 -16 8 -5 -3 -10 -1 -10 4 0 6 18 11 40 11 38 0 54 14 28
22 -19 7 -16 42 4 48 13 4 15 9 8 20 -14 22 -129 19 -166 -4 -24 -16 -25 -20
-11 -28 26 -14 20 -35 -13 -41 -16 -4 -30 -13 -30 -21 0 -28 -31 -26 -56 4
-14 16 -34 32 -44 35 -17 5 -20 16 -20 72 0 58 3 67 25 85 14 11 25 26 25 33
0 22 50 75 70 75 10 0 22 5 25 10 9 14 40 12 81 -5z m884 -6 c0 -5 -4 -9 -10
-9 -5 0 -10 7 -10 16 0 8 5 12 10 9 6 -3 10 -10 10 -16z m65 12 c3 -5 1 -12
-5 -16 -5 -3 -10 1 -10 9 0 18 6 21 15 7z m-502 -17 c10 -11 -4 -33 -18 -28
-8 3 -11 12 -8 20 5 15 16 18 26 8z m699 -17 c46 -39 67 -124 74 -309 7 -162
7 -163 -13 -145 -11 9 -28 17 -37 17 -15 0 -17 5 -12 28 25 103 13 344 -18
375 -18 18 -38 57 -29 57 4 -1 20 -11 35 -23z m-342 -18 c0 -6 -4 -7 -10 -4
-5 3 -10 11 -10 16 0 6 5 7 10 4 6 -3 10 -11 10 -16z m-415 1 c3 -5 0 -22 -7
-37 -15 -31 -45 -38 -40 -10 2 13 -2 17 -15 15 -11 -2 -18 3 -18 12 0 9 9 15
22 15 12 0 25 4 29 8 10 10 22 9 29 -3z m510 -16 c0 -14 -6 -18 -24 -16 -17 1
-22 -2 -18 -13 4 -8 1 -17 -5 -21 -7 -4 -6 -9 3 -15 10 -6 5 -12 -18 -21 -18
-7 -33 -18 -33 -25 0 -18 -38 -36 -65 -29 -42 11 -40 47 3 60 15 5 24 3 28 -8
3 -9 10 -16 15 -16 15 0 10 22 -8 43 -17 19 -17 19 3 7 22 -13 54 -8 54 9 0 5
-8 7 -18 4 -10 -2 -29 5 -43 16 -17 15 -20 20 -8 21 8 0 20 -5 26 -11 8 -8 16
-4 28 13 l17 23 -5 -22 c-7 -30 6 -29 29 2 21 28 39 28 39 -1z m195 22 c0 -2
-7 -9 -15 -16 -13 -11 -14 -10 -9 4 5 14 24 23 24 12z m-646 -24 c2 -4 -4 -13
-14 -20 -20 -12 -36 0 -25 18 7 12 32 13 39 2z m687 -43 c11 -34 10 -42 -2
-50 -32 -20 -63 -7 -72 31 -9 37 4 50 55 59 4 0 13 -17 19 -40z m-643 9 c14
-18 18 -70 7 -90 -16 -26 -65 -28 -65 -2 0 10 -6 13 -19 9 -10 -3 -23 1 -31
10 -16 19 -5 65 16 65 12 0 15 -6 10 -25 -4 -14 -2 -25 3 -25 12 0 32 26 25
33 -4 3 -4 13 -1 22 8 18 41 20 55 3z m542 -24 c0 -8 -5 -12 -10 -9 -6 4 -8
11 -5 16 9 14 15 11 15 -7z m-340 -24 c0 -5 -9 -10 -21 -10 -11 0 -17 5 -14
10 3 6 13 10 21 10 8 0 14 -4 14 -10z m-146 -17 c4 -9 3 -20 -2 -25 -6 -6 -11
1 -14 16 -6 29 6 35 16 9z m420 11 c18 -7 22 -49 6 -59 -13 -8 -42 14 -35 26
3 4 12 6 20 2 8 -3 15 0 15 5 0 16 -16 23 -35 16 -14 -6 -16 -15 -11 -48 4
-22 14 -48 22 -57 26 -29 54 -117 54 -172 0 -65 -24 -119 -83 -185 -51 -57
-52 -72 -9 -132 52 -73 105 -120 135 -120 34 0 67 -16 67 -33 0 -9 -2 -9 -8 0
-4 6 -25 12 -47 13 -58 3 -67 1 -60 -10 4 -6 -5 -10 -19 -10 -40 0 -31 -18 12
-23 20 -2 -30 -4 -112 -5 -134 -2 -147 0 -135 14 9 10 21 14 38 9 40 -10 161
-14 161 -6 0 4 -5 12 -12 19 -9 9 -7 13 5 18 20 7 23 24 4 24 -20 0 -117 94
-117 113 0 9 -4 17 -9 17 -6 0 -27 16 -48 35 -21 19 -32 35 -25 35 6 0 12 6
12 14 0 11 -8 13 -33 9 -38 -6 -69 19 -49 39 17 17 15 28 -6 28 -27 0 -62 29
-62 51 0 29 -23 23 -42 -11 -9 -17 -25 -30 -35 -30 -29 0 -50 -17 -37 -30 7
-7 9 -20 7 -31 -4 -14 -14 -19 -39 -19 -34 0 -46 -13 -21 -23 7 -4 3 -8 -10
-12 -13 -4 -23 -11 -23 -15 0 -4 -16 -17 -35 -29 -19 -11 -35 -16 -35 -10 0 6
9 13 20 16 11 3 28 21 37 40 14 30 14 36 2 44 -19 12 -39 11 -39 -1 0 -5 5
-10 10 -10 6 0 10 -4 10 -10 0 -5 -8 -10 -17 -10 -15 0 -16 -2 -3 -10 13 -8
12 -12 -6 -24 -16 -12 -22 -26 -22 -61 -1 -36 -8 -54 -34 -85 -18 -22 -39 -40
-45 -40 -20 0 -15 -17 5 -23 19 -4 38 -47 21 -47 -5 0 -9 3 -9 8 0 4 -28 8
-63 9 -34 1 -76 7 -92 14 l-30 12 45 9 c25 5 52 13 60 17 24 11 80 136 85 189
5 45 3 51 -21 67 -51 33 -70 137 -39 213 9 20 31 53 50 72 18 19 43 51 55 70
l22 35 -5 -38 c-6 -35 -5 -37 19 -33 21 4 25 2 19 -12 -31 -81 -47 -148 -42
-179 6 -37 41 -83 63 -83 6 0 14 -7 18 -15 7 -18 28 -20 25 -2 -5 37 2 46 39
49 35 3 37 5 40 43 4 44 -14 65 -57 65 -37 0 -13 18 31 23 29 3 44 -2 72 -24
l34 -29 30 25 c21 17 41 25 68 25 l39 -1 -27 -15 c-21 -11 -28 -22 -28 -46 0
-36 24 -68 52 -68 14 0 18 -8 18 -35 0 -19 5 -35 10 -35 6 0 10 13 10 28 0 23
7 31 38 45 43 19 69 58 81 119 l9 43 1 -43 c2 -65 -21 -110 -66 -129 -21 -9
-33 -18 -26 -20 19 -7 64 19 87 50 16 22 21 43 21 90 0 52 -6 71 -33 115 -35
58 -40 80 -17 88 8 4 15 12 15 20 0 8 5 14 10 14 6 0 10 6 10 14 0 8 10 22 22
30 25 18 30 19 52 10z m-364 -24 c11 -7 12 -12 3 -21 -13 -13 -33 -4 -33 17 0
16 9 18 30 4z m430 -36 c0 -39 -2 -45 -14 -35 -8 7 -25 9 -42 5 -19 -5 -25 -4
-20 5 4 6 13 11 21 11 7 0 18 14 24 30 15 45 31 36 31 -16z m88 33 c32 2 33 0
30 -33 -3 -39 -21 -50 -26 -16 -2 12 2 22 8 22 6 0 8 5 5 10 -11 17 -35 -9
-35 -36 0 -17 7 -25 25 -30 34 -8 31 -26 -6 -43 -22 -10 -29 -18 -26 -32 7
-25 0 -24 -13 2 -9 16 -8 24 5 39 14 16 14 19 1 33 -9 8 -20 17 -24 19 -5 1
-12 20 -15 41 -6 36 -5 38 16 30 12 -4 37 -7 55 -6z m-448 -7 c0 -5 -4 -10
-10 -10 -5 0 -10 5 -10 10 0 6 5 10 10 10 6 0 10 -4 10 -10z m336 -81 c3 -6 1
-16 -5 -22 -9 -9 -14 -8 -21 3 -5 8 -10 18 -10 23 0 11 28 8 36 -4z m-326 -29
c12 -12 15 -22 8 -34 -11 -19 -39 -21 -56 -4 -17 17 -15 31 3 25 8 -4 17 -2
21 4 3 6 -3 13 -15 16 -11 3 -18 9 -16 14 7 11 34 0 55 -21z m382 -2 c-9 -9
-12 -7 -12 12 0 19 3 21 12 12 9 -9 9 -15 0 -24z m-601 -4 c24 -25 24 -26 5
-40 -25 -18 -50 -18 -66 1 -14 16 -6 35 16 35 20 0 18 18 -3 23 -15 4 -14 5 3
6 11 0 31 -11 45 -25z m125 1 c8 -31 -10 -55 -36 -48 -21 5 -28 -11 -10 -22
12 -7 14 -45 3 -45 -21 1 -31 19 -34 63 -3 34 0 47 9 47 7 0 15 7 18 15 10 25
43 18 50 -10z m182 11 c-10 -7 -18 -16 -18 -20 0 -11 18 -6 34 10 15 14 16 13
16 -11 0 -30 -34 -48 -62 -33 -24 12 -22 32 5 51 27 19 49 22 25 3z m-958 -14
c13 -11 24 -32 26 -53 3 -29 0 -36 -23 -46 -15 -7 -31 -13 -35 -13 -4 0 -8 29
-8 65 0 36 4 65 9 65 5 0 19 -8 31 -18z m1214 -8 c10 -4 16 -18 16 -40 0 -41
-23 -37 -38 6 -13 36 -7 45 22 34z m121 -13 c3 -5 1 -12 -5 -16 -5 -3 -10 1
-10 9 0 18 6 21 15 7z m-294 -28 c11 -29 -1 -43 -36 -42 -16 0 -13 4 10 14
l30 14 -32 1 c-18 0 -33 5 -33 11 0 6 9 8 20 4 14 -5 20 -2 20 9 0 24 9 19 21
-11z m-157 -25 c5 -22 3 -25 -14 -21 -11 3 -17 9 -14 14 3 5 -1 9 -8 9 -8 1
-6 6 6 15 23 17 21 18 30 -17z m-214 -2 c0 -17 -7 -25 -25 -28 -20 -4 -24 -1
-21 14 2 19 22 38 39 38 4 0 7 -11 7 -24z m143 17 c-7 -2 -19 -2 -25 0 -7 3
-2 5 12 5 14 0 19 -2 13 -5z m513 -56 c-5 -36 -4 -52 6 -58 10 -6 10 -11 1
-20 -18 -18 -20 -13 -28 69 -6 66 -5 72 10 66 14 -6 16 -15 11 -57z m-364 32
c-3 -19 27 -30 64 -23 14 3 24 0 24 -7 0 -8 -13 -9 -42 -5 -24 4 -54 8 -68 9
-23 2 -26 7 -21 38 0 6 11 9 24 7 14 -2 21 -9 19 -19z m328 -20 c0 -22 -5 -29
-19 -29 -26 0 -35 29 -15 51 21 24 34 16 34 -22z m-703 25 c-3 -3 -12 -4 -19
-1 -8 3 -5 6 6 6 11 1 17 -2 13 -5z m210 0 c-3 -3 -12 -4 -19 -1 -8 3 -5 6 6
6 11 1 17 -2 13 -5z m17 -41 c-15 -7 -29 -11 -32 -8 -3 3 0 5 6 5 6 0 14 9 17
21 5 16 9 18 21 8 12 -10 10 -14 -12 -26z m-239 17 c3 -5 -1 -10 -9 -10 -9 0
-16 5 -16 10 0 6 4 10 9 10 6 0 13 -4 16 -10z m20 -29 c-8 -13 -55 -15 -55 -2
0 5 12 11 28 13 32 4 36 3 27 -11z m1505 -8 c0 -26 0 -26 -20 -8 -16 14 -17
20 -8 27 22 13 28 9 28 -19z m-2080 -3 c-20 -13 -60 -13 -60 0 0 6 17 10 38
10 27 0 33 -3 22 -10z m1020 0 c0 -5 -18 -10 -40 -10 -22 0 -40 5 -40 10 0 6
18 10 40 10 22 0 40 -4 40 -10z m192 -3 c-18 -21 -11 -76 14 -102 22 -24 16
-44 -8 -28 -7 4 -21 6 -30 5 -22 -4 -23 13 -6 85 8 33 18 53 26 53 11 0 12 -3
4 -13z m621 -23 c5 -9 17 -12 33 -8 27 7 30 -2 9 -30 -21 -28 -19 -70 5 -91
11 -10 20 -13 20 -7 0 6 -4 14 -10 17 -24 15 -7 85 21 85 10 0 19 7 19 15 0
21 45 47 76 43 15 -2 32 -12 38 -23 6 -11 16 -23 22 -27 8 -6 11 -48 8 -139
-1 -72 -5 -133 -6 -135 -2 -1 -28 7 -58 20 -76 32 -122 46 -153 46 -40 0 -77
21 -83 47 -12 46 21 77 57 55 25 -16 27 -15 22 12 -4 21 -8 23 -41 15 -20 -4
-42 -16 -49 -25 -15 -20 -15 -20 -31 27 -14 40 -15 79 -4 95 23 34 88 39 105
8z m-1258 6 c4 -6 -7 -10 -24 -10 -17 0 -31 5 -31 10 0 6 11 10 24 10 14 0 28
-4 31 -10z m703 -43 c3 -43 1 -48 -15 -45 -11 2 -17 11 -15 21 2 10 -4 17 -13
17 -9 0 -15 9 -15 23 0 30 9 39 35 35 16 -2 21 -12 23 -51z m-260 32 c-4 -11
-35 -14 -123 -9 -32 1 -36 3 -20 10 31 13 147 12 143 -1z m-359 -13 c-7 -7
-129 -10 -136 -3 -3 4 27 7 67 7 40 0 71 -2 69 -4z m-675 -21 c3 -8 16 -15 29
-15 33 0 54 -63 32 -97 -19 -28 -19 -33 0 -33 17 0 21 -35 5 -45 -5 -3 -10 1
-10 9 0 9 -7 16 -15 16 -8 0 -15 -4 -15 -10 0 -5 -16 -10 -35 -10 l-35 0 0
100 c0 91 2 100 19 100 10 0 21 -7 25 -15z m1384 -10 c-3 -3 -9 2 -12 12 -6
14 -5 15 5 6 7 -7 10 -15 7 -18z m-710 3 c-3 -7 -10 -13 -16 -12 -7 1 -33 2
-59 3 -37 2 -43 4 -28 11 32 14 107 12 103 -2z m337 2 c-3 -5 -33 -10 -65 -10
-32 0 -62 5 -65 10 -4 6 20 10 65 10 45 0 69 -4 65 -10z m351 -18 c9 -14 8
-22 -2 -37 -18 -25 -34 -9 -27 28 6 32 14 34 29 9z m-756 -6 c0 -3 -4 -8 -10
-11 -5 -3 -10 -1 -10 4 0 6 5 11 10 11 6 0 10 -2 10 -4z m185 -36 c4 -6 -7
-10 -24 -10 -17 0 -31 5 -31 10 0 6 11 10 24 10 14 0 28 -4 31 -10z m626 -190
c11 -24 10 -24 -10 -6 -19 17 -51 94 -51 123 0 8 8 30 17 51 l16 37 9 -90 c4
-49 13 -101 19 -115z m-111 180 c0 -5 -2 -10 -4 -10 -3 0 -8 5 -11 10 -3 6 -1
10 4 10 6 0 11 -4 11 -10z m-480 -9 c0 -13 -45 -22 -67 -14 -14 6 -8 9 22 14
22 3 41 7 43 8 1 0 2 -3 2 -8z m328 -17 c-7 -15 -14 -21 -16 -15 -2 7 2 18 8
26 18 22 21 18 8 -11z m52 -25 c0 -33 -3 -39 -21 -39 -19 0 -21 4 -14 37 8 46
13 55 26 48 5 -4 9 -24 9 -46z m-1060 -39 c-6 -10 -9 1 -9 35 1 48 1 49 9 15
5 -19 4 -41 0 -50z m1145 60 c22 -25 9 -43 -26 -38 -22 3 -25 9 -20 48 2 17
27 11 46 -10z m48 -10 c-3 -11 -7 -20 -9 -20 -2 0 -4 9 -4 20 0 11 4 20 9 20
5 0 7 -9 4 -20z m-559 -25 c14 -21 25 -25 64 -25 39 -1 44 -3 28 -11 -10 -6
-38 -9 -62 -6 -33 3 -44 1 -44 -9 0 -8 -5 -14 -11 -14 -6 0 -8 7 -5 16 5 13 2
15 -16 10 -13 -3 -45 -8 -73 -10 -27 -2 -39 -2 -25 1 14 2 29 9 35 14 5 5 18
9 30 9 20 1 20 1 1 15 -19 14 -18 15 13 15 19 0 30 4 26 10 -14 23 24 8 39
-15z m-559 -25 c-5 -23 -3 -30 9 -30 12 0 16 -11 16 -49 0 -42 -3 -51 -21 -56
-33 -11 -56 36 -24 49 20 7 19 25 -2 48 -11 12 -13 22 -7 26 6 4 13 15 17 25
11 28 19 19 12 -13z m1110 10 c3 -5 0 -18 -6 -29 -10 -15 -9 -24 4 -45 10 -14
23 -26 31 -26 17 0 49 -36 42 -48 -3 -5 -20 -5 -41 2 -31 10 -41 23 -36 50 1
4 -5 19 -14 32 -18 28 -59 32 -74 7 -8 -15 -10 -11 -11 19 0 36 0 37 34 31 19
-3 36 -1 40 6 9 14 23 14 31 1z m-203 -22 c-7 -7 -12 -8 -12 -2 0 14 12 26 19
19 2 -3 -1 -11 -7 -17z m-2 -47 c0 -11 -5 -10 -20 4 -11 10 -20 28 -20 39 0
20 1 20 20 -4 11 -14 20 -31 20 -39z m85 20 c-5 -22 -2 -32 12 -41 17 -11 17
-11 0 -6 -10 3 -22 6 -27 6 -5 0 -15 13 -23 29 -16 32 -16 31 36 40 5 0 6 -12
2 -28z m-1195 -31 c-35 -32 -60 -30 -60 6 0 15 5 22 13 18 7 -2 24 -1 38 4 38
15 42 3 9 -28z m710 25 c7 -8 10 -21 7 -29 -3 -8 1 -38 9 -68 19 -73 18 -81
-13 -95 -35 -17 -75 -16 -98 1 -17 12 -17 16 -6 30 8 9 11 19 7 23 -11 11 -19
-6 -20 -42 -1 -40 -2 -40 -22 -20 -8 8 -22 19 -31 23 -8 5 -15 21 -15 36 0 16
-6 26 -14 26 -11 0 -13 8 -8 28 10 40 14 44 30 31 8 -6 16 -10 17 -8 2 2 11
16 20 32 13 20 25 27 50 27 17 0 39 5 47 10 20 13 25 12 40 -5z m205 7 c6 -4
11 -25 13 -47 4 -54 -23 -80 -84 -80 -25 0 -43 -4 -41 -10 2 -5 17 -10 33 -10
24 -1 28 -5 26 -23 -2 -15 2 -22 13 -22 12 0 15 5 11 16 -4 10 -1 14 6 12 7
-3 13 -13 13 -24 0 -14 -8 -20 -31 -22 -39 -4 -104 33 -104 59 0 10 -6 19 -12
19 -9 0 -8 4 2 10 12 8 13 11 1 19 -9 6 -10 11 -2 15 6 4 11 15 11 24 0 20 51
54 95 63 17 4 32 7 35 8 3 0 10 -3 15 -7z m425 -13 c0 -6 -4 -7 -10 -4 -5 3
-10 11 -10 16 0 6 5 7 10 4 6 -3 10 -11 10 -16z m557 -9 c42 0 131 -35 119
-47 -2 -3 -20 4 -39 16 -40 24 -62 29 -29 5 23 -16 22 -20 -22 -64 -15 -15
-17 -22 -7 -33 9 -12 7 -16 -10 -20 -14 -4 -20 -11 -16 -21 4 -10 1 -16 -8
-16 -17 0 -20 -35 -5 -45 6 -3 10 3 10 15 0 17 5 21 28 18 24 -3 27 -7 27 -40
0 -67 16 -57 27 16 3 16 12 20 56 20 l53 1 -4 -49 -3 -49 -189 -3 c-141 -3
-186 -1 -177 8 8 8 7 19 -4 41 -12 23 -13 31 -4 37 7 5 11 19 8 34 -5 26 -5
26 58 26 36 0 64 -4 64 -10 0 -5 5 -10 10 -10 6 0 10 7 10 15 0 8 9 15 19 15
35 0 33 18 -5 43 -19 14 -31 28 -25 31 5 4 8 12 6 19 -2 7 -6 26 -10 42 -5 24
-4 28 6 18 7 -7 33 -13 56 -13z m-1637 -27 c-1 -28 -3 -34 -10 -22 -8 14 -3
59 6 59 2 0 4 -17 4 -37z m1023 23 c3 -8 -4 -21 -18 -30 -22 -14 -23 -14 -27
9 -3 14 -3 27 0 30 11 10 40 5 45 -9z m-1225 -15 c8 -5 12 -21 10 -41 -3 -29
-7 -34 -33 -37 -16 -2 -42 -13 -57 -23 -15 -11 -30 -20 -33 -20 -3 0 -5 19 -5
43 0 43 1 43 30 39 25 -3 30 -1 30 15 0 11 3 23 7 26 9 9 35 8 51 -2z m694
-13 c-7 -7 -12 -8 -12 -2 0 14 12 26 19 19 2 -3 -1 -11 -7 -17z m411 3 l37
-19 -33 -5 c-34 -5 -64 13 -53 32 9 14 5 14 49 -8z m-1023 -16 c0 -14 -4 -25
-10 -25 -5 0 -10 11 -10 25 0 14 5 25 10 25 6 0 10 -11 10 -25z m228 -47 c-22
-41 -26 -44 -85 -53 -52 -8 -67 -16 -97 -48 -27 -29 -36 -47 -36 -73 l0 -34
-70 0 c-79 0 -83 6 -44 57 14 19 23 41 20 49 -14 35 76 74 172 74 21 0 47 7
58 15 12 8 24 11 28 8 4 -4 9 3 12 14 4 12 13 24 23 26 40 11 43 7 19 -35z
m922 32 c0 -5 -12 -10 -27 -9 -25 0 -26 1 -8 9 27 12 35 12 35 0z m779 -4 c7
-8 8 -17 3 -19 -4 -3 -13 3 -20 14 -14 22 0 26 17 5z m7 -71 c6 -25 -4 -33
-21 -16 -6 5 -26 11 -45 14 -33 4 -33 4 8 5 23 1 42 7 42 12 0 6 -7 10 -15 10
-8 0 -15 5 -15 10 0 6 -7 10 -15 10 -13 0 -13 2 -3 14 11 11 17 10 35 -11 13
-13 26 -35 29 -48z m-1066 61 c0 -2 -13 -6 -30 -8 -16 -3 -30 -1 -30 4 0 4 14
8 30 8 17 0 30 -2 30 -4z m196 -17 c15 -17 16 -22 4 -29 -15 -9 -50 19 -50 40
0 17 26 11 46 -11z m240 -46 c-10 -11 -49 34 -41 46 4 8 14 3 27 -14 11 -14
17 -29 14 -32z m402 29 c12 -8 22 -16 22 -18 0 -2 -34 -4 -75 -4 -62 0 -73 2
-69 15 4 8 14 15 24 15 11 0 22 5 25 10 8 12 39 4 73 -18z m-1648 6 c-135 -24
-176 -47 -165 -91 4 -16 -1 -29 -16 -42 -22 -20 -22 -20 -14 0 26 66 11 84
-39 44 -31 -25 -37 -3 -6 24 11 9 20 24 20 32 0 14 22 20 60 17 8 -1 24 3 35
8 11 5 43 11 70 13 92 6 110 4 55 -5z m1171 -13 c19 -13 45 -30 59 -37 14 -7
30 -19 36 -27 10 -12 17 -13 38 -3 27 12 89 6 81 -9 -3 -4 -20 -5 -38 -2 -19
3 -48 -2 -69 -10 -32 -14 -37 -13 -52 1 -15 15 -16 15 -16 -1 0 -9 -4 -17 -9
-17 -13 0 -32 26 -24 34 11 11 11 51 -1 58 -6 4 -18 8 -26 8 -11 0 -12 -2 -3
-8 9 -6 7 -11 -7 -20 -11 -7 -20 -9 -21 -5 0 5 -3 20 -5 36 -6 35 12 35 57 2z
m-368 -17 c20 -20 27 -33 19 -36 -6 -2 -10 -8 -6 -13 8 -13 -10 -11 -31 4 -12
10 -16 22 -13 40 3 15 0 28 -6 31 -6 2 -7 5 -3 5 5 1 23 -13 40 -31z m287 17
c10 -13 9 -15 -8 -15 -22 0 -36 13 -25 24 10 10 20 7 33 -9z m-764 -49 c24
-18 13 -30 -32 -33 -35 -2 -36 2 -11 35 12 15 19 15 43 -2z m969 4 c3 -5 1
-10 -4 -10 -6 0 -11 5 -11 10 0 6 2 10 4 10 3 0 8 -4 11 -10z m-255 -20 c11
-7 7 -10 -17 -10 -17 0 -35 5 -38 10 -8 13 35 13 55 0z m450 -11 c0 -6 -4 -7
-10 -4 -5 3 -10 11 -10 16 0 6 5 7 10 4 6 -3 10 -11 10 -16z m353 14 c-7 -2
-21 -2 -30 0 -10 3 -4 5 12 5 17 0 24 -2 18 -5z m-705 -21 c2 -8 -11 -12 -45
-11 -27 1 -37 4 -23 6 14 3 29 9 35 14 11 11 27 7 33 -9z m-513 -2 c15 -7 10
-9 -25 -10 -25 0 -73 -3 -107 -6 -44 -4 -63 -2 -63 6 0 6 3 9 8 7 5 -3 121 5
162 11 3 0 14 -3 25 -8z m-835 -20 c-13 -24 -50 -46 -50 -29 0 11 39 48 53 49
4 0 3 -9 -3 -20z m1559 11 c21 -13 -3 -41 -30 -34 -11 3 -28 -2 -38 -11 -14
-13 -24 -14 -45 -7 -30 12 -36 25 -6 16 11 -4 20 -2 20 4 0 6 9 11 21 11 11 0
27 7 35 15 18 17 24 18 43 6z m114 -18 c28 -26 20 -33 -38 -33 -30 0 -55 5
-55 10 0 6 6 10 14 10 10 0 12 7 9 21 -6 20 -3 21 23 15 16 -4 37 -15 47 -23z
m-1173 13 c0 -2 -7 -7 -16 -10 -8 -3 -12 -2 -9 4 6 10 25 14 25 6z m62 -7
c-15 -6 -30 -5 -40 1 -13 7 -8 9 23 9 35 0 37 -1 17 -10z m-138 -23 c61 0 299
4 529 8 l417 9 0 -31 c0 -18 5 -32 12 -32 6 0 9 -3 5 -6 -8 -8 -989 -14 -1115
-7 -93 5 -93 6 -90 31 4 31 34 42 92 34 22 -3 89 -5 150 -6z m-429 -26 c-3 -5
-14 -10 -23 -10 -15 0 -15 2 -2 10 20 13 33 13 25 0z m1474 -10 c16 0 33 5 36
10 3 6 14 10 23 10 14 0 15 -2 3 -9 -15 -10 -6 -14 59 -25 14 -2 -22 -3 -80
-2 -93 1 -105 3 -108 19 -3 16 -1 17 16 8 12 -6 34 -11 51 -11z m-859 -50
c201 0 613 3 916 6 469 6 551 5 555 -7 2 -8 3 -69 1 -137 l-3 -122 -562 0
-562 1 0 42 c0 23 4 45 9 49 14 9 -13 38 -35 38 -10 0 -21 4 -24 10 -3 5 1 10
9 10 9 0 16 7 16 16 0 10 -7 14 -22 12 -17 -2 -23 -10 -23 -28 0 -20 -6 -26
-30 -30 -25 -4 -30 -10 -30 -34 0 -36 27 -56 52 -40 10 7 18 21 17 33 -1 29
19 21 31 -13 6 -18 6 -33 -1 -44 -10 -15 -45 -17 -372 -20 -316 -2 -361 -1
-356 12 4 11 -4 18 -28 24 -35 9 -35 6 -22 94 8 49 -20 78 -75 78 -53 0 -91
-31 -91 -74 0 -45 33 -86 70 -86 16 0 40 -10 53 -23 l24 -22 -71 -3 c-39 -1
-78 2 -86 7 -12 8 -15 36 -17 130 -1 103 1 120 15 123 9 2 75 2 146 1 72 -1
295 -2 496 -3z m-523 -92 c21 -28 22 -49 4 -67 -41 -41 -95 16 -56 59 21 23
38 25 52 8z m783 -83 c0 -8 -4 -15 -10 -15 -5 0 -10 7 -10 15 0 8 5 15 10 15
6 0 10 -7 10 -15z"/>
<path d="M718 3252 c-15 -9 -29 -24 -31 -34 -6 -22 11 -24 20 -2 4 11 13 14
29 10 19 -5 24 -2 24 13 0 15 8 21 33 24 28 3 28 4 -8 4 -22 1 -52 -6 -67 -15z"/>
<path d="M850 2890 c0 -5 5 -10 10 -10 6 0 10 5 10 10 0 6 -4 10 -10 10 -5 0
-10 -4 -10 -10z"/>
<path d="M825 2671 c3 -6 -3 -14 -12 -20 -20 -11 -4 -15 21 -5 21 8 21 34 0
34 -8 0 -13 -4 -9 -9z"/>
<path d="M525 2850 c-3 -5 3 -10 15 -10 12 0 18 5 15 10 -3 6 -10 10 -15 10
-5 0 -12 -4 -15 -10z"/>
<path d="M632 2641 c-7 -19 -10 -36 -7 -39 6 -7 26 49 22 62 -2 6 -9 -5 -15
-23z"/>
<path d="M587 2654 c-4 -4 -7 -17 -7 -28 1 -19 1 -20 11 -3 11 19 8 43 -4 31z"/>
<path d="M565 2591 c-3 -5 -1 -12 5 -16 5 -3 10 1 10 9 0 18 -6 21 -15 7z"/>
<path d="M605 2560 c-3 -5 -1 -10 4 -10 6 0 11 5 11 10 0 6 -2 10 -4 10 -3 0
-8 -4 -11 -10z"/>
<path d="M558 2534 c-5 -4 -8 -16 -8 -28 0 -14 3 -17 11 -9 6 6 9 19 7 28 -1
9 -6 13 -10 9z"/>
<path d="M1141 1624 c13 -16 29 -19 29 -5 0 5 -9 11 -21 14 -16 4 -18 3 -8 -9z"/>
<path d="M1180 1630 c0 -5 7 -10 15 -10 8 0 15 5 15 10 0 6 -7 10 -15 10 -8 0
-15 -4 -15 -10z"/>
<path d="M1220 1630 c0 -5 5 -10 10 -10 6 0 10 5 10 10 0 6 -4 10 -10 10 -5 0
-10 -4 -10 -10z"/>
<path d="M874 2104 c4 -10 12 -41 17 -68 9 -51 19 -72 19 -43 0 33 -22 117
-33 124 -7 4 -8 0 -3 -13z"/>
<path d="M904 2104 c3 -9 9 -27 12 -40 3 -13 10 -24 14 -24 4 0 2 18 -3 40 -6
22 -15 40 -20 40 -5 0 -6 -7 -3 -16z"/>
<path d="M1123 2163 c-20 -8 -15 -19 13 -32 23 -10 26 -9 21 4 -8 18 -3 18 39
3 26 -9 36 -9 48 1 9 8 16 18 16 23 0 6 -7 5 -15 -2 -12 -10 -21 -10 -41 -1
-26 11 -59 13 -81 4z"/>
<path d="M1250 2111 c0 -5 5 -13 10 -16 6 -3 10 -2 10 4 0 5 -4 13 -10 16 -5
3 -10 2 -10 -4z"/>
<path d="M782 2009 c2 -7 10 -15 17 -17 8 -3 12 1 9 9 -2 7 -10 15 -17 17 -8
3 -12 -1 -9 -9z"/>
<path d="M815 1950 c3 -5 10 -10 16 -10 5 0 9 5 9 10 0 6 -7 10 -16 10 -8 0
-12 -4 -9 -10z"/>
<path d="M880 1919 c0 -5 5 -7 10 -4 6 3 10 8 10 11 0 2 -4 4 -10 4 -5 0 -10
-5 -10 -11z"/>
<path d="M847 1899 c12 -12 26 -18 33 -14 7 5 2 12 -15 21 -38 20 -43 17 -18
-7z"/>
<path d="M1557 1454 c-4 -4 -2 -13 5 -21 6 -8 14 -42 18 -76 l7 -62 1 60 c1
57 -16 113 -31 99z"/>
<path d="M1570 1266 c0 -7 -7 -76 -15 -152 -17 -156 -24 -384 -13 -384 5 0 8
17 9 38 2 108 19 123 19 16 0 -70 11 -117 23 -104 10 11 -11 211 -23 225 -11
13 -11 45 -1 173 7 86 15 167 18 180 3 13 1 22 -6 22 -6 0 -11 -6 -11 -14z"/>
<path d="M1660 617 c0 -4 12 -23 26 -44 26 -38 26 -38 22 -9 -2 16 -13 35 -25
44 -13 8 -23 12 -23 9z"/>
<path d="M914 1395 c-20 -15 -11 -18 20 -6 11 4 15 10 9 14 -5 3 -19 0 -29 -8z"/>
<path d="M819 1392 c11 -8 10 -11 -4 -20 -17 -9 -16 -10 5 -17 15 -5 25 -2 31
6 13 21 5 34 -22 37 -17 2 -20 0 -10 -6z"/>
<path d="M915 1370 c-4 -6 5 -10 19 -10 14 0 26 5 26 10 0 6 -9 10 -19 10 -11
0 -23 -4 -26 -10z"/>
<path d="M864 1319 c-3 -5 6 -9 20 -9 31 0 34 6 6 13 -11 3 -23 1 -26 -4z"/>
<path d="M855 1280 c-3 -5 3 -10 15 -10 12 0 18 -4 15 -10 -3 -5 -1 -10 4 -10
6 0 11 5 11 10 0 6 7 10 16 10 8 0 12 5 9 10 -3 6 -19 10 -35 10 -16 0 -32 -4
-35 -10z"/>
<path d="M1045 720 c-8 -13 3 -50 15 -50 5 0 7 6 4 14 -3 8 0 17 5 21 12 7 5
25 -9 25 -5 0 -12 -5 -15 -10z"/>
<path d="M810 1061 c0 -17 18 -21 24 -6 3 9 0 15 -9 15 -8 0 -15 -4 -15 -9z"/>
<path d="M815 700 c3 -5 12 -7 20 -3 21 7 19 13 -6 13 -11 0 -18 -4 -14 -10z"/>
<path d="M780 630 c0 -5 5 -10 10 -10 6 0 10 5 10 10 0 6 -4 10 -10 10 -5 0
-10 -4 -10 -10z"/>
<path d="M693 605 c-3 -9 -2 -19 2 -23 4 -4 10 -1 12 6 4 9 8 10 18 2 15 -12
30 3 20 20 -10 16 -45 12 -52 -5z"/>
<path d="M745 510 l-20 -9 20 0 c11 0 27 4 35 9 13 9 13 10 0 9 -8 0 -24 -4
-35 -9z"/>
<path d="M733 475 c-3 -9 -3 -18 0 -21 9 -9 27 6 27 22 0 19 -19 18 -27 -1z"/>
<path d="M960 625 c-15 -18 -13 -22 15 -27 14 -2 20 3 20 16 0 25 -19 31 -35
11z"/>
<path d="M1990 606 c0 -2 7 -7 16 -10 8 -3 12 -2 9 4 -6 10 -25 14 -25 6z"/>
<path d="M2080 410 c0 -5 7 -10 15 -10 8 0 15 5 15 10 0 6 -7 10 -15 10 -8 0
-15 -4 -15 -10z"/>
<path d="M1490 471 c0 -5 5 -13 10 -16 6 -3 10 -2 10 4 0 5 -4 13 -10 16 -5 3
-10 2 -10 -4z"/>
<path d="M246 242 c-3 -5 0 -15 8 -21 7 -6 11 -22 9 -35 -3 -14 0 -41 7 -61
12 -36 13 -36 61 -34 27 2 52 0 55 -4 11 -11 42 -8 49 4 4 6 -3 13 -15 16 -20
5 -22 11 -18 69 l4 64 -28 0 c-15 0 -28 -4 -28 -10 0 -5 5 -10 11 -10 6 0 9
-19 7 -47 -3 -40 -6 -48 -25 -51 -17 -2 -24 4 -33 33 -7 20 -9 47 -6 61 5 17
2 24 -8 24 -8 0 -21 3 -29 6 -8 3 -18 1 -21 -4z"/>
<path d="M1358 243 c-36 -4 -37 -4 -17 -24 21 -21 23 -28 10 -48 -13 -20 -29
-5 -37 34 -6 32 -9 35 -40 35 -36 0 -54 -15 -26 -22 11 -3 26 -26 36 -54 31
-81 59 -99 71 -44 9 43 20 44 44 5 22 -39 38 -44 48 -17 3 9 16 40 28 67 29
67 29 70 0 70 -25 1 -34 -10 -14 -17 13 -4 -15 -68 -30 -68 -15 0 -32 51 -21
65 9 11 3 27 -9 23 -3 -1 -23 -3 -43 -5z"/>
<path d="M1650 239 c-11 -8 -12 -12 -2 -16 7 -3 12 -25 12 -58 0 -34 -5 -55
-12 -58 -9 -3 -7 -7 5 -12 29 -12 47 2 48 37 0 30 1 31 12 14 41 -65 46 -67
131 -57 87 10 104 21 112 73 9 53 -20 78 -89 78 l-53 0 4 -61 c6 -76 -7 -91
-43 -55 l-27 27 22 24 c26 28 20 60 -13 69 -35 9 -91 7 -107 -5z m90 -33 c0
-8 -5 -18 -11 -22 -14 -8 -33 11 -25 25 10 16 36 13 36 -3z m172 -11 c16 -35
0 -79 -30 -83 -20 -3 -22 0 -22 52 0 50 2 56 20 56 12 0 25 -10 32 -25z"/>
<path d="M450 159 l0 -81 43 7 c51 9 57 12 57 31 0 17 -12 18 -27 3 -16 -16
-43 -3 -43 21 0 22 10 26 27 9 7 -7 13 -7 17 -1 10 16 -5 44 -20 38 -9 -3 -14
2 -14 14 0 11 5 20 10 20 6 0 10 -4 10 -10 0 -5 7 -10 15 -10 8 0 15 9 15 20
0 17 -7 20 -45 20 l-45 0 0 -81z"/>
<path d="M577 233 c-4 -3 -7 -37 -7 -75 l0 -68 44 0 c31 0 46 5 50 16 9 23 1
28 -23 13 -23 -15 -28 -12 -33 16 -2 14 2 19 15 17 10 -2 17 3 17 13 0 8 -7
15 -15 15 -8 0 -15 9 -15 20 0 23 10 26 28 8 15 -15 26 -4 19 17 -6 15 -67 22
-80 8z"/>
<path d="M670 231 c0 -5 7 -11 15 -15 20 -7 20 -85 -1 -114 -15 -21 -14 -22
14 -22 29 0 29 0 24 51 -6 61 3 60 48 -7 26 -37 34 -43 50 -34 16 8 18 18 13
64 -4 34 -2 56 6 60 20 13 11 26 -18 26 -30 0 -51 -15 -30 -22 6 -2 9 -17 7
-33 l-3 -29 -15 30 c-8 16 -22 34 -30 41 -17 14 -80 17 -80 4z"/>
<path d="M1128 229 c-21 -12 -24 -49 -6 -67 7 -7 27 -12 45 -12 26 0 33 -4 33
-19 0 -30 -15 -33 -55 -14 -31 15 -37 15 -45 3 -6 -8 -10 -18 -10 -22 0 -13
111 -21 136 -9 48 22 18 91 -39 91 -18 0 -27 5 -27 15 0 11 8 15 28 13 19 -2
27 2 27 12 0 18 -62 25 -87 9z"/>
<path d="M1506 218 c-24 -34 -21 -94 6 -112 81 -57 175 42 110 117 -23 26 -96
23 -116 -5z m78 -4 c22 -8 22 -82 1 -90 -23 -9 -45 15 -45 51 0 43 10 52 44
39z"/>
<path d="M1978 215 c-15 -33 4 -55 48 -55 26 0 34 -4 34 -18 0 -29 -11 -34
-37 -16 -22 14 -27 14 -49 -1 -37 -24 -29 -32 34 -33 63 0 102 18 102 48 0 26
-38 51 -67 44 -19 -5 -23 -2 -23 15 0 22 33 30 45 11 8 -13 25 -3 25 16 0 10
-13 14 -50 14 -44 0 -52 -3 -62 -25z"/>
<path d="M2117 114 c-14 -14 -7 -25 13 -22 12 2 21 8 21 13 0 12 -24 18 -34 9z"/>
</g>
</svg>
