<?xml version="1.0" standalone="no"?>
<!DOCTYPE svg PUBLIC "-//W3C//DTD SVG 20010904//EN"
 "http://www.w3.org/TR/2001/REC-SVG-20010904/DTD/svg10.dtd">
<svg version="1.0" xmlns="http://www.w3.org/2000/svg"
 width="220.000000pt" height="385.000000pt" viewBox="0 0 220.000000 385.000000"
 preserveAspectRatio="xMidYMid meet">
<metadata>
Created by potrace 1.16, written by Peter Selinger 2001-2019
</metadata>
<g transform="translate(0.000000,385.000000) scale(0.100000,-0.100000)"
fill="#000000" stroke="none">
<path d="M26 3800 c-10 -63 -6 -3210 4 -3210 5 0 11 4 15 9 3 5 38 15 79 21
68 11 76 15 108 54 l35 41 -36 0 -36 0 -3 109 c-1 61 0 117 4 125 4 9 8 22 10
29 4 21 13 27 40 27 15 1 26 -6 30 -18 4 -14 14 -17 42 -15 41 3 50 21 15 26
-32 5 -29 17 7 32 52 22 38 36 -39 43 -54 5 -65 24 -22 40 40 15 49 37 15 37
-13 0 -27 7 -30 15 -4 8 -17 15 -30 15 -25 0 -33 15 -11 23 9 3 9 8 -2 21 -11
13 -25 16 -63 12 -58 -5 -70 -13 -44 -31 16 -12 17 -16 4 -28 -8 -8 -29 -18
-46 -22 l-32 -7 0 141 0 141 41 21 c63 32 140 36 181 11 45 -28 98 -87 98
-109 0 -10 7 -31 15 -47 9 -16 16 -59 17 -100 1 -73 3 -63 15 84 6 82 7 84 18
50 6 -19 17 -46 23 -60 12 -25 12 -25 7 5 -3 17 -7 40 -9 53 -2 12 -10 30 -18
40 -27 32 -48 93 -48 136 0 31 -6 48 -21 62 -22 20 -22 58 0 159 6 28 14 64
16 80 6 33 36 107 42 102 1 -2 -4 -26 -12 -53 -21 -68 -32 -259 -15 -269 9 -6
11 0 6 21 -3 16 -1 58 5 94 5 36 11 84 13 106 4 49 21 104 49 159 18 35 21 38
28 20 4 -11 8 -35 8 -53 1 -50 41 -82 101 -82 43 0 52 4 99 50 29 28 54 50 57
50 2 0 4 -15 4 -34 0 -58 59 -86 95 -46 16 18 17 25 7 54 -7 18 -10 40 -6 49
3 8 0 18 -6 22 -7 4 -8 11 -1 19 5 6 12 29 14 51 7 63 15 75 52 75 42 0 47 8
39 59 -6 38 -8 40 -39 37 -17 -2 -37 -6 -44 -10 -17 -11 -28 0 -45 50 -23 69
-50 236 -38 243 5 3 24 35 42 71 58 116 54 113 180 114 61 1 110 -2 110 -6 0
-3 27 -42 60 -86 l60 -79 6 -284 c7 -305 12 -340 61 -364 21 -11 21 -12 5 -30
-16 -17 -16 -17 1 -12 11 4 16 3 12 -3 -3 -6 -17 -7 -31 -4 -15 4 -24 2 -24
-6 0 -6 9 -14 20 -17 11 -3 20 -9 20 -14 0 -5 7 -9 15 -9 8 0 15 -6 15 -13 0
-17 72 -40 95 -31 12 5 24 -1 37 -17 67 -85 82 -187 38 -249 -23 -32 -25 -44
-25 -140 0 -58 -7 -217 -14 -353 -11 -194 -17 -250 -28 -254 -8 -3 -20 0 -26
7 -9 10 -9 14 1 17 17 7 15 23 -4 23 -11 0 -14 -8 -12 -27 3 -24 8 -28 33 -28
l30 0 7 140 c9 173 30 457 33 453 2 -2 5 -115 9 -253 3 -137 11 -268 17 -290
11 -40 92 -135 114 -135 17 0 58 -47 47 -53 -17 -12 -114 22 -165 57 -60 41
-82 45 -98 15 -9 -17 -17 -20 -45 -14 -25 4 -39 2 -50 -10 -20 -19 -108 -20
-189 0 -77 18 -83 18 -59 -1 18 -14 16 -15 -21 -8 -66 13 -92 8 -130 -21 -39
-29 -72 -29 -128 0 -19 10 -46 13 -90 9 -34 -3 -82 -1 -107 3 -42 8 -45 11
-42 37 3 25 2 27 -18 16 -12 -6 -31 -27 -42 -47 l-21 -35 -61 6 c-34 3 -80 9
-103 12 l-42 6 24 48 c14 27 29 51 35 55 5 3 10 21 9 38 l-1 32 -9 -30 c-5
-16 -15 -35 -23 -41 -9 -6 -24 -32 -35 -57 -11 -26 -27 -47 -35 -47 -8 0 -21
-6 -29 -14 -9 -10 -39 -16 -85 -17 -81 -2 -109 -13 -60 -23 26 -5 30 -9 18
-16 -20 -13 -33 -13 -25 0 3 6 -4 10 -17 10 l-24 0 1 -272 0 -273 470 -1 c259
-1 744 -2 1079 -3 335 -1 610 0 612 2 2 2 4 451 3 998 0 547 0 1032 0 1079 0
47 1 459 1 915 l1 830 -1079 2 -1080 2 -6 -39z m602 15 c13 -5 14 -29 7 -173
-5 -92 -9 -179 -9 -194 -1 -32 -16 -39 -16 -8 0 44 -62 242 -82 262 l-21 21
-19 -23 c-10 -12 -18 -32 -18 -44 1 -17 3 -16 14 9 10 21 15 26 19 15 8 -23
60 -284 77 -390 5 -30 18 -107 29 -170 12 -63 37 -209 56 -325 20 -115 38
-219 42 -230 10 -34 41 -250 36 -257 -2 -5 -10 -8 -16 -8 -16 0 -33 61 -47
165 -6 44 -27 163 -46 265 -18 102 -45 262 -59 355 -15 94 -30 197 -35 229 -5
33 -7 63 -4 67 2 4 1 10 -4 13 -5 3 -15 45 -22 93 -8 48 -16 81 -18 72 -1 -8
11 -105 28 -215 18 -109 40 -257 51 -329 10 -71 24 -154 30 -184 12 -59 6
-106 -16 -131 -8 -9 -28 -74 -44 -145 -16 -72 -48 -184 -71 -250 -22 -66 -52
-154 -65 -195 -28 -84 -49 -145 -72 -205 -35 -93 -34 -165 2 -165 11 0 12 -7
4 -32 -15 -53 -11 -124 8 -144 17 -16 27 -66 38 -179 l6 -60 -19 40 c-21 45
-66 91 -112 116 -45 25 -124 18 -189 -15 l-31 -17 0 63 c-5 544 -1 2181 5
2235 l7 72 91 3 c138 4 468 0 485 -7z m1518 9 l29 -6 -1 -594 c0 -326 -3 -597
-7 -600 -3 -3 -18 3 -32 14 -37 29 -85 10 -85 -33 0 -17 -12 -29 -47 -46 -55
-27 -78 -64 -64 -100 9 -22 10 -20 10 14 1 41 29 77 60 77 33 0 51 11 51 32 0
47 52 81 66 43 4 -8 12 -15 18 -15 7 0 17 -5 23 -11 17 -17 -24 -59 -59 -59
-31 0 -36 -17 -16 -49 9 -15 9 -25 0 -46 -18 -39 -15 -45 23 -45 50 0 68 -38
59 -125 -7 -69 -24 -92 -59 -79 -16 6 -16 5 -1 -24 9 -17 16 -43 16 -57 0 -34
-25 -82 -49 -95 -33 -17 -106 -12 -133 10 -35 27 -54 75 -41 103 10 22 9 23
-48 22 -51 0 -62 4 -86 27 -18 19 -29 42 -34 75 l-6 48 -2 -40 c-1 -48 28
-101 65 -115 14 -6 42 -10 62 -10 36 0 37 -1 38 -36 2 -84 125 -143 194 -94
17 12 35 33 40 46 12 30 15 84 6 105 -5 11 -1 18 13 22 21 5 21 3 21 -339 l0
-344 -25 0 c-19 0 -25 5 -25 23 0 24 -38 66 -77 86 -32 16 -93 13 -139 -8 -28
-13 -52 -35 -78 -75 -25 -37 -46 -58 -64 -62 -43 -11 -100 -42 -111 -61 -20
-36 -21 -4 -2 48 21 59 46 165 56 244 10 78 -11 207 -57 350 -35 110 -42 145
-44 225 -1 69 1 88 8 69 10 -29 55 -54 85 -46 12 3 9 5 -9 6 -33 1 -68 33 -68
60 0 11 -6 21 -12 23 -10 4 -14 57 -16 211 l-3 207 35 0 c115 0 187 -102 172
-243 l-6 -59 26 5 c34 6 68 -26 61 -59 -2 -13 0 -21 4 -18 16 10 9 54 -11 74
-11 11 -30 20 -42 20 -22 0 -23 3 -20 72 2 60 -2 81 -21 118 -32 62 -91 102
-150 102 -58 1 -60 7 -56 142 1 55 2 207 1 336 -2 182 -5 231 -14 222 -15 -15
-158 -17 -158 -2 0 6 26 9 67 8 46 -2 68 1 71 10 2 6 8 10 13 6 5 -3 9 0 9 5
0 6 -6 11 -12 11 -10 0 -10 2 -1 8 8 5 13 48 15 132 l3 125 255 5 c140 3 262
7 271 8 9 1 29 -1 45 -4z m-1336 -14 c0 -6 35 -11 83 -11 166 -3 137 -16 -37
-17 -138 0 -181 -3 -187 -14 -5 -7 -9 -10 -9 -6 0 3 -3 13 -6 22 -5 14 5 16
67 18 72 1 72 1 24 8 l-50 7 58 1 c32 1 57 -2 57 -8z m388 -10 c132 0 232 -16
232 -37 0 -6 -17 -14 -37 -16 -21 -2 8 -4 65 -3 l102 1 0 -27 c0 -26 -3 -28
-47 -29 -27 -1 -58 0 -71 1 -21 1 -22 -1 -16 -54 5 -43 3 -61 -10 -81 -25 -38
-63 -58 -109 -57 l-42 0 30 -13 c23 -11 25 -14 10 -15 -16 0 -13 -6 18 -35
l37 -35 -29 0 c-40 0 -45 -12 -19 -45 17 -22 18 -29 7 -35 -11 -7 -11 -12 2
-27 8 -10 14 -33 13 -50 -1 -18 2 -33 7 -33 6 0 7 5 4 10 -3 6 4 10 17 11 l23
0 -22 9 c-24 10 -31 30 -11 30 6 0 4 8 -6 19 -16 17 -16 19 4 24 13 3 20 0 20
-9 0 -8 5 -14 10 -14 6 0 10 4 10 9 0 6 -4 13 -10 16 -21 13 -9 45 27 74 41
34 53 38 53 18 0 -9 11 -12 35 -9 33 4 35 3 35 -26 0 -17 6 -32 14 -35 9 -4
12 -14 9 -26 -3 -12 -1 -21 3 -21 5 0 9 -11 9 -25 0 -26 -10 -34 -17 -13 -2 6
-14 -5 -25 -24 -19 -33 -67 -57 -95 -50 -5 1 -8 -2 -8 -8 0 -13 10 -13 58 4
25 9 44 11 47 5 4 -5 -2 -10 -12 -10 -10 -1 0 -5 22 -9 l40 -7 -36 -2 c-32 -1
-37 -5 -43 -31 -3 -19 -15 -34 -31 -42 -22 -10 -30 -8 -55 11 -17 12 -30 17
-30 12 0 -5 6 -13 12 -17 9 -6 5 -11 -12 -16 -15 -4 8 -6 55 -4 44 2 74 1 68
-1 -21 -7 -15 -23 8 -23 11 0 17 -4 14 -10 -3 -5 3 -10 14 -10 27 0 27 16 0
23 -28 7 -19 31 12 34 22 2 22 2 4 -6 -16 -8 -17 -10 -4 -10 22 -1 27 -18 18
-61 -5 -28 -15 -26 -10 3 0 4 -9 7 -21 7 -20 0 -20 -1 -5 -18 30 -33 14 -91
-32 -113 -20 -10 -22 -13 -9 -16 15 -4 16 -6 1 -23 -20 -22 -33 -17 -34 13 0
22 0 22 -10 -1 -5 -13 -13 -20 -19 -17 -5 3 -10 4 -10 0 0 -3 12 -10 26 -15
15 -6 24 -16 21 -24 -10 -24 8 -39 32 -27 26 14 41 7 41 -20 0 -10 6 -19 14
-19 16 0 26 -30 26 -82 0 -38 -13 -51 -24 -23 -3 8 -13 14 -23 14 -15 -1 -16
-2 -2 -6 9 -2 19 -15 21 -28 4 -17 1 -22 -10 -18 -8 4 -22 -4 -33 -18 -21 -28
-26 -25 -66 51 -39 74 -80 137 -94 145 -7 5 -9 23 -4 51 6 41 5 44 -22 50 -26
5 -114 35 -121 40 -2 1 1 12 7 23 10 17 9 20 -4 15 -8 -4 -15 -2 -15 4 0 5 10
13 23 17 l22 8 -22 4 c-13 2 -23 9 -23 15 0 5 7 7 16 4 9 -3 22 -6 30 -6 11 0
12 -4 4 -19 -7 -13 -7 -22 0 -26 5 -3 10 1 10 9 0 22 16 20 41 -5 16 -16 18
-23 9 -29 -8 -5 -8 -10 -2 -14 5 -3 15 1 22 9 13 16 35 21 25 6 -8 -14 15 -25
27 -13 8 8 6 18 -5 36 -10 15 -13 27 -7 31 6 3 10 1 10 -6 0 -7 3 -10 6 -6 8
8 33 -16 27 -26 -6 -11 25 -57 38 -57 8 0 8 4 0 14 -16 19 -9 79 9 89 9 4 4 6
-13 3 -15 -2 -30 1 -33 6 -4 5 -21 7 -39 4 -19 -4 -36 -2 -39 3 -3 5 16 11 44
13 28 1 50 0 50 -3 0 -4 14 -9 30 -11 22 -3 30 -1 30 11 0 13 2 13 9 3 6 -11
10 -10 15 4 6 15 1 16 -38 11 -32 -5 -47 -2 -56 8 -7 8 -18 15 -24 15 -6 0 -4
-5 4 -10 12 -8 11 -10 -7 -10 -13 0 -23 5 -23 10 0 6 -10 10 -22 10 -21 1 -22
2 -5 14 11 9 15 20 10 31 -4 13 -3 16 5 11 7 -4 12 -1 12 9 0 12 -4 13 -18 6
-10 -5 -24 -17 -32 -25 -21 -26 -75 -20 -94 9 -15 22 -15 31 -4 61 14 41 3 67
-30 72 -12 2 -33 17 -47 34 -20 23 -28 28 -39 19 -10 -8 -16 -7 -26 4 -19 22
-92 19 -123 -5 -14 -11 -34 -20 -45 -20 -12 0 -24 -5 -27 -11 -4 -6 -14 -8
-22 -5 -11 4 -13 1 -8 -14 5 -17 2 -20 -23 -20 -37 0 -59 -39 -35 -62 8 -8 18
-31 22 -51 8 -31 6 -36 -13 -41 -37 -10 -56 -6 -73 14 -22 25 -37 26 -24 2 6
-11 6 -24 1 -32 -7 -12 -9 -11 -10 5 -1 45 -5 65 -12 65 -4 0 -8 9 -8 20 0 13
6 20 18 19 10 0 12 -3 4 -6 -13 -5 -7 -23 9 -23 21 0 4 45 -18 48 -13 2 -23 8
-23 13 0 13 38 11 42 -2 2 -6 15 -9 28 -7 22 4 18 8 -27 28 -43 18 -51 25 -43
39 5 10 5 23 0 31 -4 7 -6 19 -3 26 2 7 0 22 -7 33 -8 17 -8 21 3 21 15 0 57
33 57 44 0 14 -26 4 -38 -14 -15 -24 -32 -18 -32 11 0 19 6 20 83 18 82 -3
107 -13 107 -42 0 -8 7 -20 15 -27 17 -14 21 0 5 16 -12 12 -3 44 12 44 5 0 6
-4 3 -10 -3 -5 -1 -10 5 -10 6 0 8 -4 5 -10 -3 -5 -4 -10 -1 -10 2 0 13 -3 23
-7 17 -7 17 -6 1 20 -17 25 -17 27 0 37 12 8 13 13 5 16 -19 8 -16 24 5 24 14
0 15 2 2 10 -19 12 -7 23 18 16 17 -6 19 -13 14 -51 -5 -49 5 -58 27 -23 13
21 14 21 27 3 12 -16 14 -16 14 -2 0 9 -7 20 -16 25 -15 8 -15 10 0 15 8 3 21
0 28 -7 7 -7 27 -17 43 -21 l30 -9 -28 -4 c-15 -2 -25 -7 -22 -12 3 -5 12 -7
20 -3 10 3 15 -1 15 -15 0 -25 25 -35 40 -17 6 8 18 11 26 8 8 -3 14 0 14 7 0
6 -4 8 -10 5 -5 -3 -10 1 -10 11 0 14 7 15 43 10 23 -3 49 -2 57 4 8 5 11 10
5 11 -70 7 -111 7 -121 -2 -8 -6 -13 -5 -18 6 -3 8 0 15 7 15 8 0 6 4 -3 10
-11 7 -6 10 20 9 29 0 31 -2 15 -9 -14 -6 -3 -9 41 -9 33 -1 65 -6 72 -13 9
-9 12 -6 12 13 0 14 -4 29 -9 34 -5 6 -11 28 -13 50 -3 37 -1 40 21 37 15 -2
21 0 17 7 -5 7 5 11 26 12 l33 1 -30 8 -30 8 35 2 c31 3 32 3 8 7 -37 6 -36
23 2 23 25 0 30 4 30 24 0 14 -10 36 -22 51 -21 23 -32 26 -113 30 -49 2 -82
2 -72 -1 19 -6 19 -25 -1 -32 -6 -2 -14 8 -18 22 -4 17 -15 27 -35 31 -16 4
-32 4 -36 2 -5 -3 -33 -2 -63 3 -54 7 -53 8 35 10 51 2 72 5 48 7 -24 2 -43 6
-43 9 0 11 25 31 28 23 2 -5 61 -9 130 -9z m335 2 c-38 -4 -43 -24 -10 -40 19
-9 14 -11 -33 -10 -31 0 -46 3 -35 6 29 10 30 32 1 32 -14 0 -27 4 -30 8 -2 4
28 8 67 8 40 0 57 -2 40 -4z m-633 -32 c29 0 40 -3 31 -9 -8 -6 7 -11 45 -16
53 -8 56 -9 29 -16 -25 -5 -21 -7 25 -9 l55 -3 -45 -7 c-32 -6 -54 -4 -74 6
-37 18 -50 18 -92 -2 -21 -10 -34 -24 -34 -35 0 -16 8 -19 48 -21 l47 -1 -50
-7 -50 -7 45 -2 c35 -2 41 -4 25 -11 -17 -7 -17 -9 -2 -9 33 -2 17 -20 -20
-24 -35 -3 -34 -4 12 -7 l50 -3 -39 -6 -39 -6 28 -15 c22 -12 29 -12 32 -2 6
15 25 16 41 0 9 -9 5 -17 -15 -35 -23 -22 -32 -24 -77 -18 -28 4 -61 13 -74
21 -36 24 -54 89 -38 140 6 19 2 21 -46 23 -72 3 -75 11 -4 11 32 0 55 4 51 9
-3 5 3 12 12 14 11 3 6 5 -11 6 -45 2 -19 19 34 24 35 3 28 4 -30 7 l-75 3 60
7 c33 4 69 6 80 4 11 -2 40 -4 65 -4z m-200 -53 c34 -4 33 -4 -4 -3 -26 1 -41
6 -43 16 -3 10 -2 11 4 3 4 -6 24 -13 43 -16z m423 -17 c8 -29 -6 -32 -20 -4
-9 19 -8 24 2 24 7 0 15 -9 18 -20z m-154 -6 c2 -2 -12 -4 -32 -4 -20 0 -37 4
-37 10 0 8 58 3 69 -6z m256 6 c-28 -12 -37 -12 -30 0 3 6 16 10 28 9 21 0 21
-1 2 -9z m-178 -6 c-3 -3 -12 -4 -19 -1 -8 3 -5 6 6 6 11 1 17 -2 13 -5z m246
-1 c-7 -2 -19 -2 -25 0 -7 3 -2 5 12 5 14 0 19 -2 13 -5z m-344 -19 c2 -2 -17
-4 -43 -4 -27 0 -45 4 -41 9 5 9 73 4 84 -5z m329 -36 c3 -39 -9 -54 -56 -68
-25 -6 -34 -4 -48 11 -18 20 -34 25 -34 11 0 -4 20 -21 45 -36 25 -16 45 -36
45 -45 0 -41 -54 -55 -84 -22 -14 15 -17 34 -15 94 l3 75 45 15 c65 20 95 10
99 -35z m-729 -25 c24 -81 66 -260 75 -323 3 -25 15 -85 25 -135 10 -49 24
-126 31 -170 6 -44 26 -156 45 -250 43 -219 75 -397 75 -412 0 -14 -40 -19
-40 -5 -1 16 -41 251 -55 322 -16 79 -73 419 -106 630 -10 69 -33 184 -49 256
-17 73 -30 137 -30 143 0 26 10 7 29 -56z m532 36 c11 -40 10 -59 -5 -59 -7 0
-19 -7 -26 -15 -14 -17 0 -21 17 -4 18 18 33 0 33 -40 0 -52 -22 -70 -85 -68
-27 0 -42 3 -32 5 11 2 17 13 17 33 0 17 6 32 15 35 22 9 18 24 -6 24 -34 0
-56 18 -63 51 -10 50 15 71 78 66 43 -3 51 -7 57 -28z m236 25 c-3 -3 -12 -4
-19 -1 -8 3 -5 6 6 6 11 1 17 -2 13 -5z m241 -36 c-2 -24 -6 -42 -10 -40 -5 1
-29 3 -55 4 l-48 1 50 7 50 7 -47 1 c-27 1 -48 7 -48 12 0 6 21 11 48 12 46 1
46 1 7 5 -22 2 -47 6 -55 9 -23 9 16 22 68 23 l43 1 -3 -42z m-218 12 c0 -5
-9 -10 -21 -10 -11 0 -17 5 -14 10 3 6 13 10 21 10 8 0 14 -4 14 -10z m-647
-7 c-7 -2 -19 -2 -25 0 -7 3 -2 5 12 5 14 0 19 -2 13 -5z m30 -20 c-13 -2 -33
-2 -45 0 -13 2 -3 4 22 4 25 0 35 -2 23 -4z m7 -23 c0 -5 -12 -10 -27 -10 -22
0 -25 2 -13 10 20 13 40 13 40 0z m392 -77 c2 -24 0 -43 -4 -43 -5 0 -7 26 -7
58 1 61 6 55 11 -15z m436 52 c3 -3 -24 -5 -59 -5 -42 0 -59 3 -50 9 14 9 100
6 109 -4z m-835 -2 c-13 -2 -33 -2 -45 0 -13 2 -3 4 22 4 25 0 35 -2 23 -4z
m27 -23 c0 -5 -20 -10 -45 -10 -25 0 -45 5 -45 10 0 6 20 10 45 10 25 0 45 -4
45 -10z m762 3 c-12 -2 -20 -9 -17 -14 4 -5 -3 -9 -14 -9 -14 0 -19 5 -15 15
4 9 18 14 38 14 23 -1 25 -3 8 -6z m-742 -32 c0 -5 -10 -12 -22 -14 -13 -2 -2
-5 25 -6 26 0 47 -6 47 -12 0 -7 -20 -10 -55 -7 -30 1 -51 0 -47 -4 4 -4 36
-9 72 -11 49 -2 41 -4 -37 -5 -87 -2 -102 -4 -106 -19 -3 -10 -5 -1 -6 19 -2
62 4 68 70 68 32 0 59 -4 59 -9z m800 -71 c0 -37 -2 -39 -22 -31 -13 5 -33 5
-45 0 -14 -5 -25 -4 -29 3 -4 7 -28 8 -68 3 -71 -8 -71 3 1 15 l48 8 -52 1
c-67 1 -81 21 -16 22 43 1 45 2 18 9 -20 5 1 8 68 9 l97 1 0 -40z m-327 3 c-7
-2 -19 -2 -25 0 -7 3 -2 5 12 5 14 0 19 -2 13 -5z m-486 -9 c-3 -3 -12 -4 -19
-1 -8 3 -5 6 6 6 11 1 17 -2 13 -5z m573 -64 c0 -5 -2 -10 -4 -10 -3 0 -8 5
-11 10 -3 6 -1 10 4 10 6 0 11 -4 11 -10z m26 -35 c1 -14 -2 -25 -7 -25 -10 0
-12 33 -2 43 3 4 7 7 7 7 1 0 2 -11 2 -25z m-296 -62 c14 -10 35 -16 47 -15
17 3 24 -3 29 -22 8 -33 -3 -51 -22 -35 -8 7 -31 12 -51 11 -20 -1 -42 3 -49
9 -10 8 -18 7 -30 -5 -9 -10 -24 -14 -35 -11 -10 4 -29 -1 -41 -9 -12 -9 -26
-16 -30 -16 -12 0 -10 48 2 55 6 3 10 1 10 -4 0 -6 7 -11 16 -11 11 0 14 5 10
16 -4 10 -1 14 6 12 7 -3 21 6 31 19 22 28 71 31 107 6z m133 -114 c-14 -14
-37 17 -29 38 6 14 9 14 23 -6 10 -15 12 -26 6 -32z m-339 24 c4 -10 -1 -24
-15 -37 -12 -12 -19 -16 -15 -9 3 6 0 14 -6 16 -10 4 -9 8 2 16 13 10 8 15
-12 12 -5 0 -8 4 -8 9 0 17 47 11 54 -7z m241 -3 c3 -5 1 -10 -4 -10 -6 0 -11
5 -11 10 0 6 2 10 4 10 3 0 8 -4 11 -10z m-74 -9 c-9 -6 -10 -11 -2 -15 19
-12 12 -23 -14 -23 -14 0 -25 3 -25 8 0 5 5 9 11 9 8 0 8 5 -1 15 -11 13 -8
15 16 15 20 0 25 -3 15 -9z m103 -6 c-4 -8 -13 -15 -20 -15 -12 0 -12 3 -2 15
17 19 29 19 22 0z m-219 -5 c5 -8 11 -8 20 0 9 7 16 6 24 -4 10 -11 8 -16 -7
-20 -23 -8 -82 -4 -82 4 0 9 23 30 31 30 4 0 11 -5 14 -10z m162 -5 c0 -8 -4
-15 -9 -15 -4 0 -8 7 -8 15 0 8 4 15 8 15 5 0 9 -7 9 -15z m70 -46 c31 -8 42
-17 46 -35 5 -29 7 -29 -43 -3 -37 19 -53 21 -139 16 -61 -3 -110 -11 -129
-21 -41 -21 -42 -21 -42 11 0 14 3 24 6 20 3 -3 18 0 34 6 37 16 214 20 267 6z
m421 -6 c-10 -2 -26 -2 -35 0 -10 3 -2 5 17 5 19 0 27 -2 18 -5z m5 -20 c-7
-2 -19 -2 -25 0 -7 3 -2 5 12 5 14 0 19 -2 13 -5z m-483 -17 c0 -2 3 -11 6
-20 4 -11 0 -16 -14 -16 -11 0 -28 -3 -37 -6 -14 -6 -14 -8 1 -25 27 -30 51
-22 45 14 -1 5 4 7 11 5 23 -8 26 -53 7 -94 -10 -21 -18 -48 -19 -59 0 -12 -5
-26 -12 -33 -18 -18 3 -14 24 5 17 15 18 15 18 0 0 -26 -44 -48 -99 -49 -27
-1 -48 -5 -45 -10 9 -14 104 0 132 18 13 9 27 25 29 35 3 10 12 19 19 19 17 0
18 -12 2 -28 -9 -9 -7 -12 10 -12 12 0 22 -4 22 -10 0 -5 -8 -10 -19 -10 -10
0 -34 -11 -54 -24 -20 -14 -46 -26 -59 -29 -22 -4 -22 -4 3 -6 14 0 40 10 59
24 19 14 41 25 51 25 22 0 44 26 29 35 -12 8 -13 25 -1 25 20 0 41 -31 32 -48
-4 -9 -7 -22 -4 -28 2 -6 -20 -16 -52 -23 -30 -7 -57 -16 -60 -21 -3 -5 -44
-7 -90 -5 -92 5 -243 48 -252 72 -9 22 5 28 25 10 10 -10 30 -17 43 -17 14 0
35 -7 47 -16 12 -8 28 -14 35 -11 6 2 -11 16 -40 30 -33 17 -51 32 -47 40 3 8
8 58 12 113 6 81 10 99 24 102 15 3 16 -5 11 -75 -3 -43 -10 -86 -14 -95 -19
-37 28 -96 66 -82 13 6 12 11 -10 40 -34 44 -32 52 5 16 32 -33 104 -52 122
-34 8 8 5 9 -9 6 -41 -11 -88 20 -116 78 -27 55 -32 83 -21 112 7 17 44 22 44
6 0 -5 -7 -10 -15 -10 -8 0 -15 -4 -15 -10 0 -14 23 -13 38 2 14 14 27 3 35
-27 3 -11 5 -5 4 14 -2 31 -6 36 -37 44 -44 11 -46 13 -30 32 9 11 32 15 86
15 41 0 74 -2 74 -4z m90 -78 c0 -28 5 -68 12 -89 13 -46 6 -59 -21 -35 -14
13 -21 37 -26 84 -3 37 -9 80 -12 95 l-5 29 26 -17 c22 -15 26 -24 26 -67z
m87 56 c-3 -3 -12 -4 -19 -1 -8 3 -5 6 6 6 11 1 17 -2 13 -5z m-491 -25 c3 -5
-12 -9 -33 -9 -28 0 -34 -3 -23 -10 13 -8 13 -11 1 -22 -10 -10 -12 -10 -7 0
4 6 2 12 -3 12 -17 0 -13 21 6 35 17 13 49 9 59 -6z m437 1 c-3 -12 -8 -19
-11 -16 -5 6 5 36 12 36 2 0 2 -9 -1 -20z m82 -32 c6 -4 2 -8 -7 -8 -10 0 -18
7 -18 17 0 9 3 12 8 7 4 -5 12 -12 17 -16z m-475 3 c0 -4 -12 -7 -27 -5 -16 2
-22 1 -15 -2 6 -3 10 -10 6 -15 -3 -5 -13 -5 -25 1 -11 6 -17 15 -14 21 8 11
75 12 75 0z m-55 -52 c4 -10 10 -19 13 -19 12 0 8 -83 -4 -87 -6 -2 -10 7 -10
19 1 15 -7 27 -22 33 -27 12 -39 49 -22 70 14 17 37 9 45 -16z m565 10 c0 -5
-4 -9 -10 -9 -5 0 -10 7 -10 16 0 8 5 12 10 9 6 -3 10 -10 10 -16z m-502 -29
c-3 -37 -22 -34 -26 3 -2 19 1 27 12 27 12 0 16 -8 14 -30z m467 -66 c21 -5
35 -29 35 -63 0 -17 -49 -6 -70 16 -12 12 -12 16 -2 20 10 4 9 10 -5 26 -17
20 -17 20 0 14 11 -4 29 -10 42 -13z m-465 -13 c0 -12 -20 -25 -27 -18 -7 7 6
27 18 27 5 0 9 -4 9 -9z m78 -19 c10 -15 11 -22 3 -22 -6 0 -15 8 -18 18 -4 9
-11 21 -17 25 -7 6 -6 7 3 5 8 -2 21 -14 29 -26z m662 13 c-9 -10 -9 -15 -1
-15 6 0 11 -5 11 -12 0 -6 -9 -3 -20 7 -26 23 -25 35 1 35 18 0 19 -2 9 -15z
m-810 -19 c0 -3 -4 -8 -10 -11 -5 -3 -10 -1 -10 4 0 6 5 11 10 11 6 0 10 -2
10 -4z m777 -10 c-4 -10 -1 -13 7 -10 8 3 17 0 21 -5 3 -6 11 -9 16 -6 5 4 9
-8 9 -24 0 -34 -19 -42 -27 -12 -5 21 -29 35 -43 26 -15 -9 -21 14 -8 29 17
20 32 20 25 2z m-759 -43 c15 -9 29 -18 31 -19 2 -2 -7 -17 -19 -35 -26 -35
-33 -29 -43 34 -7 42 -6 43 31 20z m544 -13 c42 -18 68 -51 68 -86 0 -8 9 -22
21 -32 29 -24 93 -153 119 -242 12 -41 51 -163 87 -270 46 -139 69 -225 79
-299 8 -58 12 -107 9 -109 -6 -6 -9 3 -40 131 -15 60 -37 137 -51 173 -13 35
-24 73 -24 84 0 25 -160 339 -204 400 -19 27 -44 66 -55 87 -11 22 -38 63 -60
91 -36 46 -40 54 -29 72 16 25 24 25 80 0z m-466 -95 c-18 -30 -39 -68 -46
-85 -7 -16 -16 -30 -20 -30 -4 0 -12 27 -17 59 -9 58 -9 60 25 100 33 40 34
40 62 26 l29 -15 -33 -55z m391 21 c15 -24 57 -86 91 -136 84 -122 198 -341
240 -460 49 -141 102 -348 103 -405 1 -49 -26 -172 -41 -188 -4 -5 -10 45 -13
110 -5 113 -30 254 -60 338 -67 187 -253 538 -358 678 -32 44 -59 83 -59 87 0
9 22 17 52 19 9 0 29 -18 45 -43z m-588 -121 c26 -147 26 -188 2 -240 -11 -22
-20 -34 -20 -27 -3 39 -29 -7 -116 -202 -11 -25 -20 -34 -25 -26 -9 15 -117
-194 -134 -258 -13 -53 -36 -69 -36 -25 0 83 57 215 127 293 77 87 111 134
119 165 5 20 4 26 -5 21 -6 -4 -11 -15 -11 -25 0 -20 -26 -56 -98 -137 -48
-53 -53 -56 -46 -29 4 17 24 74 45 127 37 93 106 315 115 368 12 67 17 87 31
109 8 13 18 19 23 15 4 -5 17 -63 29 -129z m917 -9 c8 -8 14 -27 13 -43 0 -24
-1 -26 -9 -8 -7 16 -8 14 -7 -12 1 -17 5 -29 10 -26 4 2 7 0 7 -5 0 -5 -10
-14 -22 -20 l-23 -11 22 0 c16 -1 21 -5 16 -16 -11 -30 -34 -10 -58 49 -23 56
-23 60 -7 82 20 27 37 30 58 10z m614 -88 c0 -63 -2 -69 -17 -63 -10 4 -26 10
-35 12 -14 4 -18 16 -18 52 0 40 4 48 28 62 15 9 30 14 35 12 4 -2 7 -36 7
-75z m-849 -83 c75 -140 117 -231 148 -319 17 -47 37 -99 46 -115 21 -42 19
-47 -10 -20 -13 13 -25 31 -25 40 0 33 -40 69 -75 69 -20 0 -35 6 -39 15 -7
20 -23 19 -43 -4 -19 -23 -33 -19 -33 11 0 14 5 18 15 15 8 -4 17 -2 20 2 7
13 68 -3 111 -28 20 -12 34 -16 32 -9 -6 18 -87 58 -119 58 -32 0 -49 23 -49
68 0 16 -6 67 -14 113 -22 132 -29 205 -18 194 5 -5 29 -46 53 -90z m253 -50
c-5 -22 -26 -38 -23 -17 1 4 0 12 -1 17 -6 25 -4 41 5 47 15 11 26 -18 19 -47z
m-300 -72 c5 -36 3 -43 -10 -43 -13 0 -14 3 -4 15 7 8 8 15 3 15 -5 0 -9 16
-10 36 -1 47 13 31 21 -23z m-494 32 c0 -6 -73 -25 -78 -20 -2 2 11 8 29 14
41 11 49 12 49 6z m30 -39 c0 -14 -29 -26 -62 -26 -20 0 -24 26 -5 33 26 11
67 7 67 -7z m-150 -6 c0 -5 -9 -10 -21 -10 -11 0 -17 5 -14 10 3 6 13 10 21
10 8 0 14 -4 14 -10z m-20 -54 c-38 -7 -50 -13 -45 -23 3 -8 5 -26 5 -40 0
-16 7 -27 20 -30 15 -4 20 -14 20 -39 0 -24 5 -37 18 -41 59 -21 60 -69 4
-121 -29 -27 -42 -33 -65 -28 -40 8 -87 44 -85 64 1 9 -3 36 -10 59 -12 39
-11 45 12 82 14 22 28 51 32 66 7 28 56 70 89 77 11 2 28 -1 38 -6 15 -9 9
-13 -33 -20z m293 7 c3 -16 4 -29 2 -31 -1 -2 -43 -7 -92 -12 -49 -5 -118 -18
-153 -29 -35 -11 -65 -19 -67 -17 -2 1 -5 16 -9 32 l-6 30 89 13 c48 7 108 19
133 26 77 21 97 19 103 -12z m347 -8 c0 -8 -7 -15 -15 -15 -16 0 -20 12 -8 23
11 12 23 8 23 -8z m0 -35 c0 -5 -4 -10 -10 -10 -5 0 -10 5 -10 10 0 6 5 10 10
10 6 0 10 -4 10 -10z m-467 -27 c-7 -2 -21 -2 -30 0 -10 3 -4 5 12 5 17 0 24
-2 18 -5z m454 -15 c-3 -8 -6 -5 -6 6 -1 11 2 17 5 13 3 -3 4 -12 1 -19z
m-457 -20 c-18 -15 -25 -16 -37 -6 -13 10 -15 9 -11 -7 4 -21 8 -22 48 -10 23
7 24 6 9 -10 -9 -9 -22 -17 -30 -18 -8 -2 -20 -6 -27 -10 -7 -5 -22 -6 -35 -2
-20 5 -20 5 3 -9 21 -12 27 -12 44 0 11 8 27 14 36 14 8 0 -2 -9 -22 -20 -48
-26 -90 -13 -112 35 -20 41 -20 49 -1 41 8 -3 15 -1 15 4 0 11 23 15 88 16 53
0 54 0 32 -18z m550 -57 c0 -20 -13 -41 -21 -35 -15 9 -10 44 6 44 8 0 15 -4
15 -9z m-83 -23 c-3 -8 -6 -5 -6 6 -1 11 2 17 5 13 3 -3 4 -12 1 -19z m13 -93
c7 -8 8 -15 3 -15 -14 0 -43 67 -42 98 1 20 4 15 14 -21 7 -26 19 -54 25 -62z
m149 89 c3 -2 -4 -11 -15 -19 -18 -14 -18 -15 5 -12 13 1 26 -4 28 -11 3 -7
-1 -10 -9 -7 -8 3 -26 1 -40 -4 -36 -14 -54 6 -30 33 9 11 11 16 5 12 -7 -4
-13 -3 -13 3 0 18 50 22 69 5z m-640 -30 c10 -9 -55 -3 -69 6 -10 6 -2 7 25 3
22 -3 42 -7 44 -9z m506 6 c-3 -5 -11 -10 -16 -10 -6 0 -7 5 -4 10 3 6 11 10
16 10 6 0 7 -4 4 -10z m34 -13 c-2 -1 -13 -9 -24 -17 -19 -14 -19 -14 -6 3 7
9 18 17 24 17 6 0 8 -1 6 -3z m-501 -66 c-4 -31 -29 -39 -52 -16 -22 22 -20
34 7 44 32 12 49 2 45 -28z m630 8 c11 -17 11 -24 -1 -42 -11 -17 -11 -28 -4
-45 9 -20 7 -27 -13 -42 -31 -24 -36 -19 -15 14 15 23 15 26 2 20 -9 -3 -23
-17 -32 -31 -9 -13 -19 -22 -22 -19 -3 2 4 18 16 34 45 64 9 98 -41 38 -17
-20 -32 -35 -34 -33 -10 9 40 100 57 104 10 3 16 9 13 14 -3 5 10 9 28 9 23 0
37 -7 46 -21z m103 -150 c26 -126 28 -307 6 -514 -14 -137 -12 -305 4 -305 4
0 5 64 2 143 -3 78 -1 152 3 164 6 14 9 -30 10 -120 1 -133 14 -227 33 -227 4
0 4 24 0 53 -10 66 -11 175 -3 217 5 21 15 35 32 41 l25 10 -23 24 c-16 17
-23 36 -23 64 0 69 68 136 118 117 8 -3 15 -1 15 4 0 6 7 10 15 10 8 0 15 5
15 11 0 6 8 8 18 4 16 -4 19 0 20 27 1 47 21 77 66 100 77 39 180 -4 192 -81
5 -32 9 -37 32 -36 22 0 28 -5 30 -27 3 -25 0 -27 -38 -30 -22 -2 -40 -7 -39
-13 0 -5 -9 -12 -20 -17 -27 -9 -27 -28 -1 -28 38 0 20 -18 -25 -24 -42 -7
-64 -26 -30 -26 8 0 15 -4 15 -10 0 -5 -13 -10 -30 -10 -32 0 -40 -14 -14 -24
9 -3 29 -6 45 -6 17 0 28 -4 24 -9 -3 -6 3 -14 12 -20 15 -9 11 -10 -19 -11
-39 0 -60 -16 -31 -23 18 -4 6 -8 -62 -22 -39 -8 -29 -25 14 -25 64 0 57 -18
-9 -26 -33 -4 -60 -10 -60 -14 0 -6 42 -19 80 -24 4 -1 26 -18 50 -39 33 -28
41 -40 32 -49 -9 -9 -9 -15 0 -25 10 -12 6 -13 -18 -7 -16 3 -38 12 -50 19
-22 14 -54 3 -54 -19 0 -8 -10 -11 -31 -8 -24 3 -30 1 -27 -9 2 -8 17 -15 31
-17 25 -3 39 -22 17 -22 -5 0 -10 -7 -10 -15 0 -8 7 -15 15 -15 11 0 15 -11
15 -42 0 -24 3 -54 7 -67 5 -21 4 -23 -18 -16 -13 4 -27 13 -31 19 -5 8 -13 8
-28 -2 -11 -6 -29 -12 -40 -12 -16 0 -20 7 -20 33 0 45 -36 78 -97 88 -26 4
-57 11 -68 15 -15 5 -17 4 -9 -5 6 -6 34 -14 62 -18 38 -4 58 -13 77 -33 32
-33 30 -66 -3 -63 -44 5 -17 -52 29 -62 23 -5 28 -9 18 -16 -24 -15 -92 -9
-138 12 -25 11 -51 17 -59 14 -21 -8 -61 21 -73 52 -5 15 -12 92 -14 172 -2
80 -7 217 -10 303 -4 106 -3 164 5 178 6 11 12 59 13 108 2 83 0 91 -36 164
-38 76 -38 77 -22 114 19 47 46 77 57 66 5 -5 18 -55 29 -113z m-181 53 c0
-13 -36 -43 -43 -36 -10 10 12 44 28 44 8 0 15 -4 15 -8z m110 -392 l-8 -35
-1 31 c-1 17 2 34 6 37 11 12 12 3 3 -33z m140 -197 c0 -7 -4 -13 -10 -13 -5
0 -10 12 -10 28 0 21 2 24 10 12 5 -8 10 -21 10 -27z m-1475 -83 c3 -5 -1 -10
-10 -10 -9 0 -13 5 -10 10 3 6 8 10 10 10 2 0 7 -4 10 -10z m-65 -20 c13 -9
13 -10 -1 -10 -48 0 -60 -52 -14 -64 20 -5 41 -33 32 -43 -2 -2 -17 3 -33 12
-16 8 -35 15 -41 15 -8 0 -13 15 -13 40 0 33 3 40 20 40 11 0 20 5 20 10 0 13
11 13 30 0z m160 0 c-8 -5 -24 -9 -35 -9 l-20 0 20 9 c11 5 27 9 35 9 13 1 13
0 0 -9z m-73 -122 c-3 -7 -5 -2 -5 12 0 14 2 19 5 13 2 -7 2 -19 0 -25z m1920
-65 c-2 -16 -4 -3 -4 27 0 30 2 43 4 28 2 -16 2 -40 0 -55z m50 -65 c-2 -18
-4 -4 -4 32 0 36 2 50 4 33 2 -18 2 -48 0 -65z m-2010 50 c-3 -8 -6 -5 -6 6
-1 11 2 17 5 13 3 -3 4 -12 1 -19z m1916 -60 c1 -47 -3 -72 -17 -92 -22 -35
-35 -24 -43 33 -5 38 -3 43 17 48 22 6 22 7 4 20 -18 13 -18 14 4 19 22 6 31
24 12 24 -5 0 -7 7 -3 16 11 30 25 -4 26 -68z m-1929 30 c3 -13 7 -58 10 -100
6 -76 5 -78 -17 -78 -12 0 -39 14 -60 31 -36 29 -37 33 -37 94 l0 64 33 4 c64
8 67 7 71 -15z m1973 -35 c-3 -10 -5 -4 -5 12 0 17 2 24 5 18 2 -7 2 -21 0
-30z m0 -85 c-2 -13 -4 -5 -4 17 -1 22 1 32 4 23 2 -10 2 -28 0 -40z m-127 6
c0 -14 -4 -23 -10 -19 -5 3 -10 15 -10 26 0 10 5 19 10 19 6 0 10 -12 10 -26z
m-190 -28 c0 -3 -4 -8 -10 -11 -5 -3 -10 -1 -10 4 0 6 5 11 10 11 6 0 10 -2
10 -4z m122 -17 c18 -12 25 -18 15 -15 -10 3 -35 6 -55 6 -35 1 -36 2 -18 15
24 18 19 19 58 -6z m-1787 -37 c10 2 20 -2 21 -7 4 -11 -35 -30 -83 -40 l-33
-7 0 51 0 51 39 -26 c21 -14 47 -24 56 -22z m1824 2 c3 -2 0 -9 -6 -15 -13
-13 -53 5 -53 22 0 10 48 4 59 -7z m161 6 c0 -5 -2 -10 -4 -10 -3 0 -8 5 -11
10 -3 6 -1 10 4 10 6 0 11 -4 11 -10z m-50 -60 c0 -57 -12 -64 -35 -20 -23 45
-20 70 10 70 23 0 25 -3 25 -50z m-192 32 c13 -9 35 -72 28 -80 -4 -4 -83 -3
-158 1 -21 1 -38 7 -38 12 0 6 -3 19 -6 30 -5 18 0 20 56 20 48 0 64 -4 71
-17 11 -20 39 -25 39 -7 0 6 -5 19 -10 30 -11 20 -4 24 18 11z m242 -2 c0 -5
-2 -10 -4 -10 -3 0 -8 5 -11 10 -3 6 -1 10 4 10 6 0 11 -4 11 -10z m-650 -9
c0 -5 -7 -11 -15 -15 -15 -5 -20 5 -8 17 9 10 23 9 23 -2z m697 -38 c-3 -10
-5 -2 -5 17 0 19 2 27 5 18 2 -10 2 -26 0 -35z m-2019 15 c-5 -13 -84 -31
-103 -24 -5 2 13 10 40 19 62 20 68 20 63 5z m1899 -64 c24 -25 28 -34 17 -38
-7 -3 -14 -14 -14 -25 0 -10 -9 -21 -20 -24 -11 -3 -20 -10 -20 -17 0 -7 8 -9
20 -5 14 4 20 2 18 -7 -2 -7 -11 -15 -21 -18 -24 -7 -23 -24 3 -28 25 -4 27
-22 1 -22 -22 0 -46 -25 -33 -34 6 -3 12 1 16 9 8 23 36 18 45 -7 5 -13 7 -26
4 -30 -2 -5 0 -8 6 -8 6 0 8 12 5 30 l-6 30 51 0 51 0 0 -45 0 -45 -153 0
c-143 0 -153 1 -165 21 -10 16 -11 24 -1 35 14 17 15 17 -36 35 -72 27 -55 79
26 79 52 0 70 13 42 29 -14 8 1 10 60 11 65 0 79 3 84 18 4 9 11 20 16 23 4 3
-15 30 -45 59 -42 42 -46 47 -18 29 19 -13 49 -38 67 -55z m-77 32 c0 -10 -54
12 -58 23 -3 9 4 8 27 -3 17 -9 31 -18 31 -20z m-909 -12 l24 -26 -32 6 c-18
3 -46 9 -63 12 -49 9 -35 32 21 33 15 1 35 -9 50 -25z m444 16 c3 -5 26 -16
51 -23 25 -7 45 -17 45 -22 -1 -19 -164 -20 -296 -3 -71 9 -134 17 -138 18 -5
0 -5 5 -2 10 3 6 39 10 78 11 40 0 90 4 112 8 57 12 143 13 150 1z m-1177 -32
c-8 -24 -181 -38 -194 -16 -5 8 4 9 32 5 25 -4 48 -1 64 8 32 18 103 20 98 3z
m1671 -50 c2 -21 -27 -3 -47 29 l-23 36 35 -29 c19 -16 35 -32 35 -36z m-67
24 c16 -16 11 -17 -77 -16 -98 0 -111 4 -102 26 7 20 156 12 179 -10z m-917 1
c9 -6 -9 -9 -48 -9 -34 0 -80 -4 -102 -8 -29 -6 -37 -6 -30 2 6 6 20 13 32 15
13 2 26 7 30 11 9 9 96 1 118 -11z m295 -9 c63 -8 143 -13 178 -10 61 5 62 4
62 -20 0 -17 -8 -27 -24 -33 -36 -14 -180 -6 -207 12 -13 9 -58 18 -99 22 -41
3 -92 8 -113 11 -36 6 -37 7 -21 22 20 20 53 19 224 -4z m834 6 c24 -9 26 -14
26 -72 l0 -63 -52 4 c-51 5 -52 5 -18 12 l35 6 -35 3 -35 2 45 14 45 13 -42
-5 c-28 -4 -43 -2 -43 5 0 6 10 11 23 11 12 0 29 5 37 11 11 8 5 9 -22 4 -30
-5 -38 -3 -38 10 0 8 8 15 18 15 26 0 34 11 21 27 -14 16 -1 17 35 3z m-1844
-9 c0 -5 -8 -12 -17 -15 -10 -3 7 -3 37 0 l55 5 -45 -24 c-25 -12 -69 -46 -99
-75 -30 -29 -59 -52 -65 -52 -6 0 0 9 13 19 21 16 23 22 14 43 l-11 23 -7 -27
c-6 -23 -9 -25 -25 -15 -15 9 -23 7 -40 -8 -19 -17 -22 -17 -37 -2 -13 13 -14
19 -4 31 8 9 8 16 2 20 -5 4 -14 -1 -20 -11 -8 -16 -10 -14 -16 10 -6 21 -3
31 11 42 11 8 14 14 7 15 -7 0 -13 5 -13 11 0 5 5 7 11 4 6 -4 47 -8 92 -9 45
-2 71 0 57 3 -18 4 -10 7 30 12 30 3 58 6 63 7 4 1 7 -2 7 -7z m263 -5 l87 0
-37 -17 c-42 -20 -90 -24 -95 -9 -2 6 -31 12 -66 13 -34 1 -62 5 -62 9 0 9 52
16 70 9 8 -3 54 -6 103 -5z m196 -22 c-12 -15 -10 -16 24 -12 20 2 37 1 37 -2
0 -13 -69 -33 -117 -34 -83 -2 -75 34 12 55 53 12 59 11 44 -7z m251 7 c0 -12
-67 -24 -83 -14 -8 5 -2 10 18 14 45 10 65 10 65 0z m910 -1 c21 -7 19 -8 -12
-6 -21 1 -41 6 -45 9 -9 9 26 7 57 -3z m-1475 -19 c-51 -9 -100 -35 -119 -63
-13 -18 -16 -19 -16 -6 0 9 -8 21 -17 26 -28 16 54 47 128 49 54 1 58 0 24 -6z
m715 -1 c19 -12 -14 -12 -80 -1 l-45 8 55 2 c30 0 62 -4 70 -9z m685 -14 l40
-15 -52 0 c-32 -1 -57 -7 -67 -16 -14 -14 -19 -14 -53 4 -87 45 -86 50 7 46
47 -2 103 -11 125 -19z m-942 8 c3 -3 32 -7 64 -9 70 -4 160 -19 169 -28 3 -3
-2 -6 -12 -5 -11 0 -92 -3 -181 -7 -90 -4 -163 -5 -163 -2 0 3 17 13 38 22 20
9 44 21 52 25 19 11 25 12 33 4z m377 -5 c11 -7 4 -8 -25 -3 -50 8 -58 14 -19
14 16 0 36 -5 44 -11z m360 -4 c11 -13 8 -13 -19 -4 -35 12 -40 19 -12 19 10
0 24 -7 31 -15z m-1044 -20 c13 -8 24 -19 24 -24 0 -14 -90 -84 -98 -76 -4 4
2 13 12 21 11 8 15 14 9 14 -6 0 -16 -7 -23 -15 -7 -9 -18 -14 -24 -12 -6 3
-19 -2 -28 -10 -20 -17 -62 -8 -54 12 8 22 -41 25 -66 4 -20 -18 -60 -25 -119
-20 -14 1 -31 -4 -37 -11 -12 -14 -62 -16 -99 -4 -13 4 -23 3 -23 -2 0 -6 -7
-12 -15 -16 -33 -12 -13 32 26 57 39 26 42 26 54 10 7 -9 10 -23 7 -31 -4 -12
-1 -12 19 -2 13 7 38 22 54 35 17 12 41 27 53 34 23 12 24 12 17 -19 l-7 -32
25 17 c14 9 33 28 42 41 27 41 70 55 153 50 43 -3 83 -11 98 -21z m745 -6 c9
-4 31 -6 50 -4 66 9 207 13 213 7 4 -3 13 -7 20 -8 7 -1 24 -5 36 -9 18 -6 20
-9 9 -16 -10 -6 -7 -9 11 -10 14 0 20 -3 13 -5 -6 -3 -102 2 -212 10 -110 9
-225 16 -256 16 -49 0 -55 2 -55 21 0 20 3 20 78 14 42 -4 84 -11 93 -16z m6
-40 c13 -5 63 -12 111 -15 82 -5 172 -27 172 -42 0 -10 -37 -33 -80 -51 -30
-13 -138 -15 -718 -16 -376 0 -688 3 -693 6 -13 8 69 39 85 33 7 -3 46 4 87
15 l74 20 25 -24 c24 -23 28 -23 47 -10 19 13 21 13 26 -5 9 -35 57 -26 91 16
25 32 33 36 62 31 39 -6 56 9 24 21 -14 5 12 8 67 8 48 0 131 5 183 10 121 13
406 15 437 3z m696 4 c-7 -2 -19 -2 -25 0 -7 3 -2 5 12 5 14 0 19 -2 13 -5z
m-1260 -10 c-7 -2 -21 -2 -30 0 -10 3 -4 5 12 5 17 0 24 -2 18 -5z m-727 -30
c-10 -10 -19 5 -10 18 6 11 8 11 12 0 2 -7 1 -15 -2 -18z m2064 17 c-20 -5
-39 -5 -44 1 -6 5 7 9 35 8 l44 -1 -35 -8z m-333 -37 c16 -16 35 -38 42 -50
l12 -23 -108 1 c-59 0 -117 5 -128 10 -16 7 -13 8 13 4 17 -2 32 0 32 5 0 6
10 10 21 10 18 0 21 4 16 29 -5 23 -2 31 11 34 39 10 60 6 89 -20z m-1247 -34
c0 -5 -9 -9 -20 -9 -19 0 -26 11 -14 23 8 8 34 -3 34 -14z m-457 -26 c-7 -2
-19 -2 -25 0 -7 3 -2 5 12 5 14 0 19 -2 13 -5z m1197 -26 l885 -4 3 -118 c1
-66 -2 -123 -7 -128 -9 -9 -605 -11 -1658 -5 -325 2 -435 6 -444 15 -16 16
-26 233 -11 242 6 3 86 5 179 4 92 -1 566 -3 1053 -6z"/>
<path d="M482 3600 c0 -14 2 -19 5 -12 2 6 2 18 0 25 -3 6 -5 1 -5 -13z"/>
<path d="M1850 3034 c0 -7 62 -29 74 -26 4 2 14 -3 22 -9 19 -15 30 -4 15 15
-6 8 -20 12 -30 9 -10 -3 -22 0 -25 6 -7 11 -56 16 -56 5z"/>
<path d="M1803 2983 c-7 -2 -13 -9 -13 -15 0 -6 6 -6 15 2 11 9 19 10 28 1 10
-8 17 -7 25 1 8 8 15 8 27 -2 8 -7 19 -10 22 -6 19 19 -67 34 -104 19z"/>
<path d="M1908 2423 c6 -2 18 -2 25 0 6 3 1 5 -13 5 -14 0 -19 -2 -12 -5z"/>
<path d="M1153 3784 c3 -4 21 -8 39 -10 18 -2 47 -6 63 -8 17 -3 48 -1 70 3
39 9 39 9 -20 11 -33 1 -82 4 -109 6 -28 3 -47 2 -43 -2z"/>
<path d="M1168 3753 c18 -2 45 -2 60 0 15 2 0 4 -33 4 -33 0 -45 -2 -27 -4z"/>
<path d="M1403 3706 c4 -11 128 -8 139 2 4 4 -26 7 -67 7 -42 0 -74 -4 -72 -9z"/>
<path d="M972 3348 c-17 -17 -15 -33 2 -19 8 7 21 11 30 9 8 -2 16 2 18 7 5
15 -35 18 -50 3z"/>
<path d="M697 3343 c-4 -3 -7 -13 -7 -21 0 -12 4 -11 21 4 16 15 24 16 39 6
27 -16 35 -15 20 3 -13 15 -61 21 -73 8z"/>
<path d="M1113 3343 c-15 -5 -18 -33 -4 -33 8 0 25 30 19 35 -2 1 -9 0 -15 -2z"/>
<path d="M875 3331 c-3 -6 0 -11 9 -11 8 0 17 -6 20 -12 3 -7 5 -4 3 6 -2 22
-22 32 -32 17z"/>
<path d="M1183 3334 c-25 -11 -12 -22 22 -21 20 1 34 6 32 11 -4 12 -35 18
-54 10z"/>
<path d="M1460 3330 c-18 -11 -13 -16 28 -23 33 -7 40 1 20 21 -14 14 -28 15
-48 2z"/>
<path d="M830 3313 c0 -25 16 -48 24 -35 3 6 1 14 -5 17 -5 4 -8 13 -5 21 3 8
1 14 -4 14 -6 0 -10 -8 -10 -17z"/>
<path d="M1240 3163 c0 0 13 -6 29 -11 21 -8 34 -7 45 1 13 10 8 12 -29 12
-25 0 -45 -1 -45 -2z"/>
<path d="M1242 3121 c2 -7 7 -12 11 -12 12 1 9 15 -3 20 -7 2 -11 -2 -8 -8z"/>
<path d="M1440 3119 c0 -5 5 -7 10 -4 6 3 10 8 10 11 0 2 -4 4 -10 4 -5 0 -10
-5 -10 -11z"/>
<path d="M740 3109 c0 -5 5 -7 10 -4 6 3 10 8 10 11 0 2 -4 4 -10 4 -5 0 -10
-5 -10 -11z"/>
<path d="M1490 2965 c0 -8 2 -15 4 -15 2 0 6 7 10 15 3 8 1 15 -4 15 -6 0 -10
-7 -10 -15z"/>
<path d="M1225 2920 c3 -5 15 -10 26 -10 11 0 17 5 14 10 -3 6 -15 10 -26 10
-11 0 -17 -4 -14 -10z"/>
<path d="M1428 2805 c-3 -6 -6 -33 -5 -60 0 -28 2 -40 4 -29 l4 22 24 -24 c13
-13 30 -24 37 -24 7 1 1 7 -14 16 -27 14 -34 30 -40 84 -2 14 -6 20 -10 15z"/>
<path d="M1517 2709 c7 -7 15 -10 18 -7 3 3 -2 9 -12 12 -14 6 -15 5 -6 -5z"/>
<path d="M1487 2651 c3 -12 10 -21 15 -21 13 0 6 32 -9 37 -7 3 -9 -3 -6 -16z"/>
<path d="M1450 2656 c0 -2 8 -10 18 -17 15 -13 16 -12 3 4 -13 16 -21 21 -21
13z"/>
<path d="M1482 2590 c0 -14 2 -19 5 -12 2 6 2 18 0 25 -3 6 -5 1 -5 -13z"/>
<path d="M858 3623 c7 -3 16 -2 19 1 4 3 -2 6 -13 5 -11 0 -14 -3 -6 -6z"/>
<path d="M1213 3663 c-7 -2 -13 -14 -13 -26 1 -20 2 -20 11 -4 8 13 14 15 30
7 21 -12 26 -1 7 18 -13 13 -16 13 -35 5z"/>
<path d="M1170 3500 c0 -5 7 -10 15 -10 8 0 15 5 15 10 0 6 -7 10 -15 10 -8 0
-15 -4 -15 -10z"/>
<path d="M977 3653 c-14 -13 -6 -19 28 -19 27 0 32 3 23 13 -11 14 -40 17 -51
6z"/>
<path d="M1025 3510 c-3 -5 3 -10 15 -10 12 0 18 5 15 10 -3 6 -10 10 -15 10
-5 0 -12 -4 -15 -10z"/>
<path d="M668 3503 c6 -2 18 -2 25 0 6 3 1 5 -13 5 -14 0 -19 -2 -12 -5z"/>
<path d="M668 3483 c7 -3 16 -2 19 1 4 3 -2 6 -13 5 -11 0 -14 -3 -6 -6z"/>
<path d="M1490 3472 c35 -3 41 -6 25 -12 -17 -7 -16 -9 9 -9 24 -1 27 1 16 14
-8 10 -27 14 -54 13 l-41 -1 45 -5z"/>
<path d="M1100 3245 c0 -9 5 -15 11 -13 6 2 11 8 11 13 0 5 -5 11 -11 13 -6 2
-11 -4 -11 -13z"/>
<path d="M1001 2931 c-20 -6 -22 -8 -9 -19 12 -10 18 -9 28 3 16 19 11 23 -19
16z"/>
<path d="M993 2883 c15 -2 37 -2 50 0 12 2 0 4 -28 4 -27 0 -38 -2 -22 -4z"/>
<path d="M968 2753 c6 -2 18 -2 25 0 6 3 1 5 -13 5 -14 0 -19 -2 -12 -5z"/>
<path d="M716 2953 c-11 -11 -6 -23 9 -23 8 0 15 4 15 9 0 13 -16 22 -24 14z"/>
<path d="M1320 2164 c0 -19 24 -34 57 -34 20 0 41 -8 53 -20 15 -15 20 -16 20
-6 0 22 -40 46 -75 46 -17 0 -36 5 -43 12 -7 7 -12 8 -12 2z"/>
<path d="M578 2147 c-5 -10 -8 -34 -8 -53 0 -21 -4 -33 -10 -29 -6 4 -9 -18
-7 -59 1 -41 7 -68 14 -70 8 -3 10 -13 6 -23 -6 -16 -5 -17 13 -3 10 8 21 16
24 18 3 2 -6 12 -20 22 -20 16 -22 20 -7 20 21 0 22 13 2 30 -8 7 -15 21 -15
31 0 15 4 16 32 8 17 -5 34 -7 36 -4 8 8 -10 25 -28 25 -16 0 -19 9 -22 53 -2
35 -5 46 -10 34z"/>
<path d="M600 2007 c0 -18 32 -47 51 -47 9 0 24 6 34 14 18 13 18 14 -7 9 -19
-4 -32 1 -44 16 -21 24 -34 27 -34 8z"/>
<path d="M730 2076 c0 -2 7 -6 15 -10 8 -3 15 -1 15 4 0 6 -7 10 -15 10 -8 0
-15 -2 -15 -4z"/>
<path d="M1460 1911 c0 -5 5 -13 10 -16 6 -3 10 -2 10 4 0 5 -4 13 -10 16 -5
3 -10 2 -10 -4z"/>
<path d="M225 150 c0 -77 1 -80 23 -80 21 0 23 3 17 30 -8 38 1 38 40 0 26
-25 40 -30 87 -32 32 -1 60 1 63 4 9 8 13 148 5 153 -4 2 -15 2 -26 -1 -16 -4
-19 -15 -20 -60 -1 -30 -4 -61 -8 -69 -10 -26 -50 -17 -85 19 l-32 33 41 33
c27 22 38 36 31 43 -6 6 -22 -1 -48 -22 -46 -38 -55 -39 -51 -3 2 21 -2 28
-17 30 -19 3 -20 -3 -20 -78z"/>
<path d="M494 214 c3 -9 6 -45 6 -80 0 -60 1 -64 23 -64 22 0 23 3 19 55 -2
30 -2 55 2 55 3 0 17 -22 31 -49 44 -87 60 -81 67 27 5 62 3 72 -11 72 -15 0
-16 -10 -14 -67 l3 -68 -35 68 c-32 61 -38 67 -66 67 -24 0 -30 -3 -25 -16z"/>
<path d="M680 200 c-20 -20 -27 -74 -12 -97 10 -15 57 -33 88 -33 20 0 24 5
24 30 0 26 -4 30 -27 30 -27 -1 -27 -1 -8 -16 20 -15 19 -15 -5 -12 -29 4 -46
42 -36 82 7 28 33 35 42 11 9 -22 34 -18 34 5 0 17 -7 20 -40 20 -27 0 -47 -7
-60 -20z"/>
<path d="M1052 208 c-25 -25 -6 -65 41 -81 9 -4 17 -13 17 -22 0 -19 -34 -20
-50 0 -21 25 -47 19 -47 -12 0 -28 1 -28 58 -25 65 4 82 17 77 59 -2 22 -9 29
-33 33 -33 6 -41 33 -12 38 9 2 17 -1 17 -7 0 -6 5 -11 10 -11 6 0 10 9 10 20
0 16 -7 20 -38 20 -21 0 -43 -5 -50 -12z"/>
<path d="M1198 145 c34 -71 62 -96 62 -57 0 10 6 27 14 37 13 18 14 17 30 -12
9 -18 20 -34 25 -38 5 -3 27 28 49 70 l39 75 -31 0 c-19 0 -26 -3 -18 -8 9 -7
8 -17 -5 -50 -10 -23 -21 -42 -24 -42 -6 0 -39 72 -39 84 0 3 8 7 18 9 9 3 -3
5 -27 6 -38 1 -42 -1 -35 -16 10 -24 8 -63 -4 -75 -7 -7 -16 6 -29 41 -14 40
-22 51 -40 51 -21 0 -20 -2 15 -75z"/>
<path d="M1433 198 c-29 -32 -36 -63 -22 -90 16 -32 28 -38 71 -38 43 0 58 19
58 72 0 71 -63 104 -107 56z m62 -12 c35 -53 -1 -130 -43 -93 -17 15 -18 24
-10 59 15 67 27 74 53 34z"/>
<path d="M1560 205 c7 -9 11 -37 8 -75 -3 -52 -1 -60 15 -60 13 0 17 9 17 40
0 44 15 53 26 18 9 -33 34 -58 56 -58 22 0 24 16 3 24 -8 3 -20 17 -27 31 -9
21 -8 28 7 45 31 34 13 50 -56 50 -53 0 -60 -2 -49 -15z m80 -16 c0 -25 -33
-22 -38 4 -2 12 3 17 17 17 15 0 21 -6 21 -21z"/>
<path d="M1718 153 c5 -96 5 -97 54 -90 53 7 68 23 70 75 2 55 -14 70 -78 77
l-50 6 4 -68z m86 25 c15 -59 1 -98 -36 -98 -15 0 -18 9 -18 53 0 30 3 57 7
60 14 15 41 6 47 -15z"/>
<path d="M1882 204 c-34 -23 -25 -56 18 -70 44 -15 51 -40 13 -47 -15 -3 -31
0 -34 5 -9 15 -42 1 -37 -15 5 -13 96 -21 114 -9 11 6 18 39 15 70 -1 6 -14
12 -30 12 -31 0 -57 22 -46 40 9 15 25 12 25 -5 0 -8 7 -15 15 -15 8 0 15 9
15 20 0 11 -4 20 -9 20 -5 0 -15 2 -23 5 -7 3 -23 -2 -36 -11z"/>
<path d="M914 195 c-3 -8 4 -31 16 -50 16 -26 21 -45 16 -68 l-6 -32 21 24
c13 16 18 33 15 47 -4 13 -1 24 6 26 6 2 8 10 4 17 -5 7 -14 10 -21 7 -8 -3
-19 2 -25 10 -9 10 -9 14 -1 14 6 0 11 5 11 10 0 16 -30 12 -36 -5z"/>
<path d="M854 125 c-9 -23 3 -45 24 -45 25 0 46 25 38 45 -7 19 -55 20 -62 0z
m50 -11 c4 -11 1 -14 -11 -12 -9 2 -18 9 -21 16 -6 18 25 15 32 -4z"/>
<path d="M2010 70 c0 -13 27 -13 35 0 3 6 -3 10 -14 10 -12 0 -21 -4 -21 -10z"/>
<path d="M854 2510 c3 -41 9 -115 13 -163 4 -57 10 -86 17 -84 7 2 11 48 12
133 l0 129 -5 -115 -6 -115 -7 85 c-11 138 -17 193 -24 199 -4 3 -4 -28 0 -69z"/>
<path d="M1195 2513 c-3 -27 -5 -100 -3 -163 1 -63 -1 -144 -5 -180 -6 -51 -5
-60 4 -40 12 27 28 419 17 426 -3 2 -9 -17 -13 -43z"/>
<path d="M1166 2359 c-12 -41 -37 -286 -37 -364 0 -127 -10 -157 -64 -196 -25
-18 -43 -35 -40 -37 3 -3 19 4 35 16 16 12 33 22 38 22 22 0 36 64 42 190 4
74 15 188 24 254 9 65 15 121 12 124 -3 2 -7 -1 -10 -9z"/>
<path d="M992 2200 c-1 -41 -9 -113 -17 -159 -14 -78 -14 -103 1 -89 9 10 25
202 21 264 -3 57 -3 57 -5 -16z"/>
<path d="M1097 2248 c-3 -13 -6 -57 -6 -98 -2 -76 -33 -261 -53 -314 -23 -58
-124 -106 -155 -75 -6 6 -17 9 -25 6 -12 -4 49 -37 70 -37 25 0 105 64 117 94
33 78 84 421 66 439 -5 5 -11 -2 -14 -15z"/>
<path d="M902 2105 c0 -22 4 -53 8 -70 l8 -30 0 30 c1 17 -3 48 -7 70 l-9 40
0 -40z"/>
<path d="M1240 1936 c0 -14 4 -27 8 -30 5 -3 6 8 4 25 -5 35 -12 38 -12 5z"/>
<path d="M970 1882 c-22 -41 -31 -49 -70 -59 l-45 -11 41 -1 c36 -1 45 4 67
33 23 29 46 86 36 86 -2 0 -15 -21 -29 -48z"/>
<path d="M646 1764 c-91 -33 -131 -85 -140 -185 -5 -59 4 -213 12 -204 3 3 6
66 6 139 1 120 3 138 22 163 47 63 131 96 188 75 35 -13 44 -9 26 13 -15 19
-62 18 -114 -1z"/>
<path d="M1280 1760 c-8 -5 -22 -7 -31 -5 -21 7 -64 -9 -90 -34 -31 -28 -134
-64 -183 -63 -26 0 -64 11 -97 28 -76 39 -192 46 -231 14 -43 -33 -33 -45 15
-17 38 22 49 24 104 17 39 -5 80 -18 108 -35 32 -18 61 -27 91 -27 60 0 169
38 209 73 18 16 41 29 50 29 12 0 -2 -20 -46 -62 -35 -35 -68 -62 -72 -60 -4
1 -23 -9 -41 -23 -36 -27 -85 -32 -144 -16 -25 7 -32 7 -29 -2 5 -15 74 -29
115 -23 19 3 49 17 68 31 19 14 34 23 34 20 0 -18 -85 -115 -101 -115 -11 0
-19 -5 -19 -11 0 -6 10 -9 23 -7 14 2 46 35 93 97 66 88 164 181 191 181 6 0
15 5 18 10 8 13 -15 13 -35 0z"/>
<path d="M1367 1723 c-11 -11 -8 -19 23 -58 17 -21 35 -55 42 -76 11 -37 28
-53 28 -26 -1 21 -36 91 -53 106 -19 15 -23 41 -7 41 6 0 10 5 10 10 0 11 -33
14 -43 3z"/>
<path d="M690 1672 c0 -5 13 -12 28 -15 55 -11 262 -183 262 -218 0 -7 -10 -9
-25 -5 -24 6 -25 4 -19 -21 3 -16 21 -64 40 -108 18 -44 44 -116 58 -160 17
-53 38 -95 63 -126 21 -25 45 -56 54 -70 9 -13 20 -21 23 -18 4 4 -9 26 -28
50 -59 74 -87 126 -105 197 -10 37 -26 82 -36 101 -9 19 -25 58 -36 88 l-18
53 25 0 c48 0 18 55 -72 131 -110 93 -214 152 -214 121z"/>
<path d="M1374 1617 c-2 -7 9 -43 26 -80 36 -79 37 -117 14 -342 -32 -308 -30
-405 8 -367 10 10 10 14 1 20 -20 12 -19 130 2 317 27 238 26 305 -8 379 -15
33 -25 66 -23 73 3 7 1 13 -5 13 -5 0 -12 -6 -15 -13z"/>
<path d="M678 1582 c-66 -40 -76 -145 -28 -292 17 -50 30 -98 30 -106 0 -8 7
-14 15 -14 20 0 20 5 -16 112 -19 55 -34 122 -37 165 -5 71 -4 73 28 103 23
22 42 30 69 30 27 0 32 3 21 10 -22 14 -51 12 -82 -8z"/>
<path d="M696 1438 c-13 -43 -12 -67 9 -147 23 -89 39 -270 36 -421 -1 -41 2
-60 7 -52 7 10 11 5 16 -18 9 -48 8 -51 -18 -38 -14 6 -33 7 -43 3 -10 -5 -24
-7 -31 -6 -21 4 -9 -33 12 -37 11 -3 16 0 12 7 -13 20 23 24 71 8 26 -9 50
-14 52 -11 3 2 -3 26 -12 52 -18 51 -30 127 -47 297 -6 61 -20 159 -31 219
-11 60 -18 120 -14 133 6 24 -12 34 -19 11z"/>
<path d="M534 1326 c-3 -8 -7 -106 -10 -218 -5 -287 -5 -286 -46 -330 -20 -22
-48 -40 -66 -44 -18 -4 -32 -11 -32 -15 0 -9 31 -5 70 8 8 2 31 23 50 45 34
39 34 42 47 182 8 92 9 175 4 239 -4 54 -6 109 -3 122 5 27 -5 34 -14 11z"/>
<path d="M618 1244 c-3 -5 -6 -49 -7 -99 -1 -49 -6 -119 -12 -155 -17 -118
-21 -166 -11 -150 10 16 28 139 38 265 4 44 10 87 15 96 9 17 -14 59 -23 43z"/>
<path d="M637 1033 c-6 -159 -24 -223 -70 -252 -37 -23 -103 -108 -92 -119 4
-4 12 2 19 12 22 38 70 88 92 96 12 5 32 30 45 57 22 44 24 61 24 191 0 78 -3
142 -6 142 -4 0 -9 -57 -12 -127z"/>
<path d="M387 1068 c-9 -35 -18 -92 -21 -128 -3 -36 -8 -83 -11 -105 -4 -36
-4 -37 5 -11 5 16 12 61 16 100 3 39 12 100 20 135 19 83 12 90 -9 9z"/>
<path d="M1030 1046 c0 -17 30 -80 57 -120 18 -27 36 -60 39 -75 7 -36 31 -78
71 -128 37 -45 55 -56 78 -47 22 9 18 24 -5 24 -26 0 -107 103 -121 155 -6 22
-25 63 -43 90 -17 28 -37 62 -44 78 -6 15 -16 27 -22 27 -5 0 -10 -2 -10 -4z"/>
<path d="M226 983 c-6 -14 -5 -15 5 -6 7 7 10 15 7 18 -3 3 -9 -2 -12 -12z"/>
<path d="M1112 958 c2 -6 10 -14 16 -16 7 -2 10 2 6 12 -7 18 -28 22 -22 4z"/>
<path d="M1177 900 c-3 -11 -1 -23 4 -26 5 -3 9 6 9 20 0 31 -6 34 -13 6z"/>
<path d="M1270 745 c-20 -24 1 -38 28 -19 12 8 22 19 22 25 0 15 -36 10 -50
-6z"/>
<path d="M754 701 c18 -19 48 -34 87 -44 77 -19 77 -3 -1 19 -32 9 -67 25 -76
35 -9 11 -22 19 -27 19 -6 0 2 -13 17 -29z"/>
<path d="M345 690 c-10 -11 -16 -22 -13 -25 3 -3 13 4 23 15 10 11 16 22 13
25 -3 3 -13 -4 -23 -15z"/>
<path d="M925 666 c-11 -8 -17 -17 -14 -20 8 -8 59 8 59 19 1 16 -24 17 -45 1z"/>
</g>
</svg>
