<?xml version="1.0" standalone="no"?>
<!DOCTYPE svg PUBLIC "-//W3C//DTD SVG 20010904//EN"
 "http://www.w3.org/TR/2001/REC-SVG-20010904/DTD/svg10.dtd">
<svg version="1.0" xmlns="http://www.w3.org/2000/svg"
 width="219.000000pt" height="374.000000pt" viewBox="0 0 219.000000 374.000000"
 preserveAspectRatio="xMidYMid meet">
<metadata>
Created by potrace 1.16, written by Peter Selinger 2001-2019
</metadata>
<g transform="translate(0.000000,374.000000) scale(0.100000,-0.100000)"
fill="#000000" stroke="none">
<path d="M65 3725 c-9 -28 -16 -592 -20 -1615 -3 -624 -8 -1352 -11 -1617 l-7
-483 304 0 c1181 -1 1813 1 1816 4 2 2 6 223 8 492 2 269 7 714 10 989 9 853
10 2223 2 2232 -13 12 -2099 10 -2102 -2z m2075 -31 c11 -11 14 -779 5 -1609
-2 -242 -5 -601 -5 -798 -1 -307 -3 -358 -16 -353 -8 3 -14 -1 -14 -8 0 -8 6
-17 13 -19 9 -4 9 -6 -1 -6 -7 -1 -16 7 -19 17 -4 9 -12 21 -20 25 -7 4 -13
14 -13 21 0 7 -11 21 -24 32 -14 10 -23 21 -20 25 2 4 0 10 -6 14 -10 6 -11 2
-14 -49 -1 -15 -10 -34 -21 -42 -10 -8 -13 -14 -6 -14 7 0 10 -4 6 -10 -3 -5
-12 -7 -20 -3 -11 4 -14 -1 -13 -18 2 -15 -3 -24 -14 -27 -11 -2 -18 3 -18 11
0 22 -28 29 -39 10 -8 -15 -10 -15 -25 -1 -9 9 -13 24 -10 32 4 10 0 18 -11
22 -9 4 -14 13 -11 20 5 13 -11 18 -51 17 -7 -1 -10 3 -7 8 3 5 17 6 32 3 26
-7 27 -6 10 13 -10 11 -18 25 -18 31 0 7 -5 12 -11 12 -5 0 -8 4 -4 9 3 5 -4
13 -16 16 -15 5 -18 10 -9 15 16 10 12 23 -12 36 -14 7 -17 14 -9 18 6 4 11
10 11 14 0 12 -61 12 -82 1 -12 -7 -18 -7 -14 -1 3 5 -1 15 -8 21 -10 8 -16 9
-21 1 -3 -5 -1 -10 5 -10 6 0 8 -5 5 -10 -4 -6 -12 -4 -22 5 -10 11 -19 13
-27 6 -9 -8 -19 -5 -34 9 -24 23 -52 17 -52 -10 0 -11 -5 -22 -11 -25 -6 -4
-8 -13 -5 -21 6 -17 -10 -19 -20 -3 -3 6 0 15 7 20 11 6 9 12 -9 29 l-23 22
-34 -24 c-24 -16 -33 -28 -29 -40 3 -12 0 -18 -10 -18 -8 0 -17 -13 -21 -30
-4 -16 -16 -36 -27 -44 -19 -14 -19 -15 -1 -26 10 -7 12 -10 3 -7 -21 6 -42
-17 -28 -31 13 -13 2 -32 -19 -32 -10 0 -13 -6 -9 -16 5 -13 2 -15 -14 -11
-11 3 -20 4 -20 2 0 -2 -3 -11 -7 -21 -5 -13 -3 -16 10 -11 9 3 17 2 17 -3 0
-6 -4 -10 -9 -10 -4 0 -25 -11 -45 -25 -20 -13 -36 -20 -36 -15 0 6 -9 10 -20
10 -15 0 -20 7 -20 28 0 21 -2 24 -10 12 -8 -13 -10 -12 -10 3 0 9 -7 17 -15
17 -8 0 -15 -9 -15 -19 0 -14 -5 -18 -20 -14 -14 4 -20 0 -20 -11 0 -12 -7
-14 -32 -9 -33 6 -33 6 -15 -14 18 -20 18 -21 0 -19 -10 0 -21 5 -25 11 -4 5
-25 9 -48 8 -23 -1 -38 2 -35 8 4 5 -1 9 -9 9 -9 0 -16 -7 -16 -15 0 -8 3 -14
8 -14 20 3 45 -2 38 -8 -4 -4 -23 -6 -42 -5 -26 2 -34 -1 -29 -10 4 -7 0 -5
-8 4 -18 23 -33 23 -46 1 -9 -16 -10 -16 -11 3 0 18 -36 54 -53 54 -10 0 -13
-50 -4 -59 6 -6 9 -11 6 -11 -11 0 -69 32 -74 41 -15 24 -22 5 -8 -22 11 -23
12 -34 4 -42 -8 -8 -11 -5 -11 14 -1 13 -7 35 -15 49 l-14 25 -2 -30 c-1 -18
-3 -23 -6 -12 -2 9 -9 15 -14 11 -5 -3 -7 -10 -4 -15 4 -5 1 -9 -4 -9 -6 0
-11 -7 -11 -16 0 -13 -3 -14 -14 -5 -7 6 -20 10 -27 8 -8 -2 -11 -2 -7 0 17 9
7 22 -22 28 -21 5 -30 13 -30 26 0 10 4 19 10 19 5 0 7 7 4 15 -4 8 -11 12
-18 8 -6 -4 -21 -6 -33 -4 -13 1 -23 -2 -23 -8 0 -6 4 -11 10 -11 15 0 50 -38
50 -55 0 -8 -7 -15 -16 -15 -9 0 -14 6 -11 13 7 19 -8 41 -23 32 -6 -4 -9 -17
-6 -29 5 -20 4 -20 -13 3 -13 17 -23 22 -39 16 -13 -4 -22 -2 -22 4 0 6 3 10
7 10 22 -4 23 3 2 22 -22 18 -22 20 -4 15 16 -5 21 -1 21 14 0 24 -3 25 -22 5
-8 -8 -21 -12 -29 -9 -8 3 -21 -1 -30 -9 -17 -18 -20 -37 -5 -37 6 0 10 -5 10
-11 0 -8 -4 -9 -13 0 -8 6 -16 9 -19 6 -3 -3 -11 1 -18 10 -16 20 -34 19 -26
-1 4 -12 1 -14 -14 -9 -12 4 -20 2 -20 -5 0 -6 -10 0 -23 12 -13 13 -22 30
-19 39 4 19 -14 34 -23 19 -3 -5 -9 -10 -13 -10 -9 0 -6 1345 3 1360 17 27 61
39 108 28 39 -8 52 -7 72 6 42 27 27 76 -23 76 -18 0 -23 -5 -20 -22 2 -12 9
-23 17 -26 10 -3 11 2 6 19 -7 23 -6 23 10 7 10 -9 15 -23 12 -32 -8 -21 -80
-22 -97 -1 -10 12 -10 15 1 15 8 0 2 10 -13 23 -28 23 -53 88 -28 72 10 -6 12
-1 7 23 -8 37 7 76 42 115 23 26 49 38 36 17 -3 -5 9 -3 27 4 48 20 108 29
108 17 0 -6 13 -17 29 -25 27 -14 30 -14 61 14 38 34 39 34 63 16 26 -20 21
-46 -12 -57 -38 -13 -45 -35 -21 -59 21 -21 60 -27 60 -10 0 6 -8 10 -19 10
-17 0 -50 27 -40 33 2 1 17 9 34 17 36 19 43 45 19 71 -20 23 -61 25 -83 5
-14 -13 -24 -13 -80 1 -58 15 -68 15 -112 0 -49 -15 -49 -15 -49 8 0 33 -24
48 -69 43 l-39 -3 1 130 c2 127 3 130 25 133 12 2 20 7 17 12 -3 5 6 12 21 16
23 6 32 1 56 -25 33 -37 35 -61 9 -85 -21 -19 -41 -14 -41 10 0 8 -4 14 -10
14 -19 0 -10 -39 10 -45 31 -10 57 3 70 35 7 17 16 30 21 30 19 0 8 41 -19 65
-15 14 -22 25 -17 24 6 -1 30 3 54 10 50 14 156 6 208 -16 46 -19 109 -78 140
-131 22 -37 27 -58 27 -116 0 -81 -11 -149 -23 -141 -5 3 -12 -6 -15 -20 -3
-13 -16 -40 -27 -60 -16 -27 -26 -34 -40 -30 -11 4 -19 2 -19 -3 0 -6 4 -12
10 -14 13 -4 31 -68 19 -68 -5 0 -9 5 -9 10 0 6 -4 10 -9 10 -5 0 -6 -21 -3
-46 l5 -46 -44 7 c-63 11 -106 7 -149 -15 -43 -22 -87 -71 -96 -106 -3 -13
-13 -24 -21 -24 -9 0 -37 -12 -63 -26 -39 -21 -51 -24 -69 -15 -24 13 -30 -3
-6 -17 14 -7 14 -12 0 -45 -21 -50 -19 -120 5 -166 22 -43 73 -91 98 -91 11 0
4 -10 -19 -30 -49 -40 -69 -86 -69 -159 0 -76 16 -117 70 -175 67 -72 163
-100 254 -75 34 9 41 8 49 -6 13 -24 72 -46 105 -40 15 4 36 8 48 10 35 7 74
51 74 83 0 17 6 32 15 36 11 4 13 11 6 29 -8 20 -5 26 20 41 16 9 40 37 55 61
22 39 25 52 19 96 -5 35 -16 61 -37 85 l-30 34 24 8 c76 29 153 21 328 -33 41
-13 93 -26 115 -30 22 -4 55 -11 72 -17 29 -8 44 -4 120 30 49 22 128 53 178
67 49 15 98 33 108 39 10 6 35 45 55 86 20 41 51 100 69 130 18 30 33 60 33
66 0 7 22 60 50 118 27 58 50 117 50 131 0 30 -25 45 -59 35 l-26 -7 0 121
c-1 110 -3 127 -29 191 -71 173 -222 291 -405 317 -141 20 -271 -16 -394 -110
-184 -140 -247 -406 -147 -619 l31 -67 -23 -18 c-13 -10 -28 -18 -35 -18 -6 0
-13 -5 -15 -10 -3 -10 -188 -80 -209 -80 -5 0 -9 15 -9 34 0 33 -37 99 -68
122 -12 9 -13 16 -2 48 7 21 10 54 7 72 -5 28 -1 41 22 67 61 69 76 114 76
217 -1 80 -4 102 -24 140 -43 82 -79 116 -154 150 -100 45 -169 44 -307 -4
-56 -20 -103 -36 -104 -36 -3 0 5 745 8 755 5 15 2031 14 2046 -1z m-628 -680
c76 -23 159 -76 219 -142 180 -196 169 -485 -26 -683 -61 -62 -77 -71 -110
-63 -35 9 -32 18 18 50 62 39 131 126 163 202 25 58 28 80 29 172 0 98 -2 110
-32 172 -41 86 -81 137 -146 181 -156 107 -334 111 -497 12 -199 -121 -268
-388 -154 -594 25 -46 21 -70 -11 -57 -34 12 -95 188 -95 271 0 71 28 175 64
240 118 209 350 306 578 239z m-57 -59 c116 -19 236 -113 292 -230 71 -150 52
-301 -55 -449 -45 -62 -142 -126 -190 -126 -52 0 -143 26 -224 65 -40 19 -78
35 -86 35 -22 0 -7 14 83 79 l85 62 88 -65 c82 -62 112 -77 112 -58 0 5 -13
53 -30 108 -16 54 -30 104 -30 110 0 7 43 42 95 79 52 37 95 71 95 76 0 5 -55
10 -121 11 l-122 3 -14 50 c-37 130 -57 185 -67 182 -5 -2 -27 -55 -47 -118
l-36 -114 -127 -3 c-69 -1 -126 -7 -126 -11 0 -9 118 -101 168 -132 28 -18 28
-23 -10 -147 l-32 -104 -55 5 c-68 7 -97 35 -131 123 -44 116 -37 239 20 354
29 58 125 146 196 181 61 30 158 50 209 43 11 -2 38 -6 60 -9z m-1205 -53 c0
-15 -2 -15 -10 -2 -13 20 -13 33 0 25 6 -3 10 -14 10 -23z m1146 -139 c15 -49
29 -94 31 -100 4 -10 -12 -13 -61 -13 -36 0 -66 3 -66 7 0 13 61 193 66 193 2
0 15 -39 30 -87z m-1231 -124 c15 -23 -6 -79 -35 -94 -38 -20 -52 -19 -48 2 2
10 12 18 23 18 11 0 21 8 23 18 2 9 -1 17 -7 17 -6 0 -11 -4 -11 -10 0 -5 -4
-10 -9 -10 -16 0 -23 40 -11 55 14 17 66 20 75 4z m1287 -64 c10 -33 18 -65
18 -70 0 -12 -94 -85 -110 -85 -13 0 -110 70 -110 79 0 10 37 118 45 131 3 5
35 8 72 7 l67 -2 18 -60z m198 58 c-1 -7 -131 -103 -152 -111 -9 -4 -22 26
-32 75 -6 28 -4 32 16 36 40 8 168 7 168 0z m-380 -11 c0 -9 -31 -105 -36
-110 -3 -4 -164 108 -164 114 0 2 45 4 100 4 55 0 100 -4 100 -8z m-1035 -32
c-3 -5 -12 -10 -18 -10 -7 0 -6 4 3 10 19 12 23 12 15 0z m-121 -97 c-18 -51
-18 -134 1 -159 21 -28 18 -38 -15 -51 l-30 -11 0 86 c0 141 7 163 51 171 4 0
1 -16 -7 -36z m1386 -85 c12 -40 26 -84 31 -97 8 -19 7 -22 -5 -18 -22 8 -145
101 -146 109 0 5 89 77 97 78 1 0 12 -33 23 -72z m-207 31 c23 -17 42 -34 42
-39 0 -9 -133 -110 -146 -110 -4 0 6 41 23 90 16 50 32 90 34 90 2 0 23 -14
47 -31z m643 -34 c4 -8 -6 -24 -22 -38 -23 -20 -28 -33 -30 -73 -1 -41 -13
-71 -74 -178 -40 -71 -84 -141 -99 -157 -25 -27 -88 -54 -240 -101 -35 -11
-77 -28 -93 -38 -21 -13 -41 -17 -66 -13 -25 4 -33 3 -28 -5 10 -17 68 -15 93
3 12 8 90 39 175 69 143 50 155 56 186 95 41 55 41 43 -3 -34 -38 -69 -46 -73
-170 -106 -44 -11 -113 -37 -154 -56 l-74 -36 -136 38 c-243 67 -361 91 -370
76 -5 -7 -37 -21 -72 -30 -64 -18 -91 -41 -46 -41 34 0 73 -34 87 -76 31 -94
-49 -194 -155 -194 -23 0 -34 -4 -30 -11 4 -5 25 -9 47 -7 25 2 43 -2 45 -9 3
-7 -4 -9 -19 -6 -22 6 -23 6 -5 -14 24 -27 14 -65 -26 -99 -27 -23 -38 -25
-81 -21 -36 3 -55 11 -68 27 -18 22 -17 23 13 57 31 36 37 82 12 91 -9 2 -11
-5 -7 -28 8 -36 -21 -74 -73 -96 -115 -49 -286 41 -319 167 -8 30 -10 57 -5
62 5 5 11 -11 15 -37 7 -42 46 -106 66 -106 4 0 -4 13 -20 30 -45 48 -55 151
-19 202 12 16 19 31 17 34 -7 7 -34 -28 -47 -61 l-11 -30 6 30 c9 50 49 92
104 110 58 19 66 33 16 27 -47 -5 -108 30 -135 78 -25 44 -27 57 -6 40 18 -15
19 -9 3 24 -16 36 4 98 43 130 17 14 27 26 22 26 -5 0 -14 -5 -21 -12 -6 -6
-14 -9 -18 -5 -9 8 58 48 76 44 13 -2 35 -50 45 -99 11 -53 63 -95 121 -99 55
-4 108 0 101 7 -3 3 3 14 14 25 29 29 26 103 -5 134 -22 22 -27 23 -55 12 -23
-8 -31 -17 -29 -31 2 -11 9 -21 17 -24 9 -3 11 1 7 16 -5 14 -1 21 13 25 25 6
49 -19 57 -61 5 -27 2 -36 -26 -62 -51 -48 -131 -34 -180 32 -30 41 -39 141
-17 185 39 74 112 105 206 85 75 -16 109 -50 125 -129 6 -27 2 -37 -27 -70
-33 -37 -62 -82 -55 -87 2 -1 18 -8 36 -16 65 -26 111 -120 92 -191 -13 -48
-57 -94 -101 -107 -58 -16 -142 1 -188 39 -24 19 -41 41 -41 53 0 14 -3 17
-10 10 -28 -28 48 -109 123 -133 24 -8 56 -10 84 -6 38 6 56 16 100 60 29 30
53 62 54 72 0 10 2 27 4 38 11 54 -42 155 -91 177 -13 6 -24 19 -24 28 0 30
62 77 120 90 76 18 146 46 203 82 64 41 99 47 212 37 77 -8 109 -16 158 -40
60 -31 192 -68 245 -70 15 0 45 -7 67 -14 l40 -14 -37 6 c-33 4 -39 2 -49 -21
-9 -20 -9 -29 1 -41 13 -16 60 -21 60 -7 0 5 -10 8 -22 8 -18 -1 -23 5 -23 24
0 23 3 25 35 22 42 -4 59 -17 42 -34 -17 -17 -15 -31 4 -24 8 3 13 2 10 -3
-11 -17 -169 -20 -240 -4 -56 13 -75 14 -102 4 -24 -9 -39 -9 -54 -1 -22 12
-27 1 -8 -18 9 -9 8 -12 -7 -12 -11 0 -27 -5 -35 -11 -11 -8 -1 -9 38 -5 38 4
51 2 46 -6 -5 -8 -2 -9 9 -5 21 8 22 -12 3 -58 -23 -54 0 -41 24 14 21 45 26
49 74 60 28 6 89 12 136 12 106 2 127 10 147 56 13 32 13 39 1 46 -10 7 3 26
57 81 46 47 81 94 103 138 41 84 93 124 108 83z m-20 -82 c-8 -15 -15 -22 -16
-15 0 17 20 55 27 49 2 -3 -2 -18 -11 -34z m-269 -265 c-3 -7 -5 -2 -5 12 0
14 2 19 5 13 2 -7 2 -19 0 -25z m-257 -48 c0 -5 -6 -10 -12 -10 -7 0 -22 -3
-33 -6 -11 -3 -29 2 -40 10 -19 14 -17 15 33 16 28 0 52 -4 52 -10z m160 -844
c0 -3 -4 -8 -10 -11 -5 -3 -10 -1 -10 4 0 6 5 11 10 11 6 0 10 -2 10 -4z m-2
-54 c6 -18 -15 -14 -22 4 -4 10 -1 14 6 12 6 -2 14 -10 16 -16z m97 -22 c3 -5
1 -10 -4 -10 -6 0 -11 5 -11 10 0 6 2 10 4 10 3 0 8 -4 11 -10z m-55 -4 c0 -3
-4 -8 -10 -11 -5 -3 -10 -1 -10 4 0 6 5 11 10 11 6 0 10 -2 10 -4z m-174 -33
c-10 -10 -19 5 -10 18 6 11 8 11 12 0 2 -7 1 -15 -2 -18z m128 5 c-5 -7 -2 -9
9 -5 8 3 32 9 53 13 33 6 36 5 30 -11 -4 -12 -2 -16 8 -12 8 3 17 0 20 -8 3
-9 0 -12 -8 -9 -7 3 -16 -1 -19 -9 -4 -10 0 -13 11 -11 11 3 23 -6 34 -26 15
-26 15 -32 2 -44 -12 -13 -12 -15 1 -18 9 -2 12 -8 6 -17 -7 -11 -13 -10 -36
5 l-27 17 -38 -41 c-40 -45 -50 -48 -79 -31 -14 10 -25 7 -57 -15 -25 -17 -40
-22 -43 -14 -2 6 4 17 15 25 17 12 17 13 -4 13 -12 0 -22 5 -22 11 0 6 7 8 16
5 12 -4 14 -1 9 14 -4 14 -2 20 9 20 8 0 18 5 22 11 4 7 1 10 -7 7 -17 -6 -46
21 -32 30 10 7 20 29 21 47 1 6 10 12 22 15 12 3 20 9 18 13 -3 10 40 36 60
37 8 0 10 -5 6 -12z m156 -33 c10 -12 10 -15 -2 -15 -8 0 -15 7 -15 15 0 8 1
15 2 15 2 0 8 -7 15 -15z m25 -35 c3 -5 1 -10 -4 -10 -6 0 -11 5 -11 10 0 6 2
10 4 10 3 0 8 -4 11 -10z m-349 -11 c9 -16 -12 -33 -31 -25 -14 5 -15 9 -5 21
15 18 26 19 36 4z m675 -12 c-1 -12 -15 -9 -19 4 -3 6 1 10 8 8 6 -3 11 -8 11
-12z m-291 -57 c0 -5 -2 -10 -4 -10 -3 0 -8 5 -11 10 -3 6 -1 10 4 10 6 0 11
-4 11 -10z m280 -6 c0 -8 -4 -12 -10 -9 -5 3 -10 10 -10 16 0 5 5 9 10 9 6 0
10 -7 10 -16z m-370 -25 c39 -19 42 -23 27 -34 -25 -18 -22 -69 6 -89 l22 -17
-22 6 c-20 5 -23 3 -21 -19 1 -14 6 -26 11 -26 4 0 5 -5 2 -10 -4 -6 -11 -7
-17 -4 -8 5 -9 -3 -5 -25 5 -23 3 -30 -5 -25 -8 5 -9 2 -5 -9 8 -22 -16 -22
-38 -1 -18 18 -26 14 -30 -13 -5 -41 -18 -63 -37 -63 -10 0 -17 -4 -14 -9 3
-5 32 -2 63 5 32 8 61 14 65 14 15 0 -5 -29 -23 -35 -22 -7 -26 -25 -4 -25 8
0 12 -6 9 -14 -6 -15 13 -32 24 -22 3 4 6 21 7 39 0 32 0 32 48 30 26 -1 47 3
47 9 0 5 8 7 18 4 9 -2 36 -8 60 -11 34 -5 42 -4 42 8 0 9 6 18 13 20 7 3 5 6
-5 6 -10 1 -18 6 -18 11 0 6 -7 10 -15 10 -21 0 -19 17 4 25 10 3 26 14 36 25
13 15 22 17 36 9 15 -8 19 -6 19 6 0 15 2 15 17 0 12 -13 13 -19 4 -25 -14 -8
32 -25 57 -21 21 3 13 -16 -14 -34 -24 -16 -25 -17 -7 -30 10 -8 20 -9 21 -4
2 5 21 9 43 9 l39 0 0 -65 c0 -62 -15 -91 -22 -42 -2 14 -11 23 -26 25 -27 4
-19 22 9 22 27 0 19 24 -9 28 -13 2 -32 -7 -48 -23 -20 -20 -29 -23 -40 -14
-20 16 -18 49 4 50 10 0 12 3 5 6 -7 2 -13 12 -13 21 0 10 -5 24 -11 32 -9 13
-10 12 -5 -3 3 -9 1 -28 -5 -41 -9 -19 -8 -31 5 -56 8 -18 13 -36 11 -40 -3
-5 4 -6 15 -3 11 3 20 0 20 -6 0 -6 -7 -11 -15 -11 -8 0 -15 -4 -15 -10 0 -5
7 -10 15 -10 8 0 15 -5 15 -11 0 -6 -9 -9 -20 -6 -11 3 -18 1 -14 -4 3 -5 0
-9 -5 -9 -6 0 -11 9 -11 21 0 12 -4 17 -11 13 -8 -4 -9 1 -4 16 5 15 2 25 -6
31 -11 6 -11 11 -1 21 16 16 15 28 -4 28 -8 0 -13 -4 -10 -9 4 -5 2 -21 -4
-35 -6 -18 -6 -26 1 -26 6 0 9 -6 6 -14 -3 -8 -1 -17 6 -20 9 -3 8 -7 -2 -14
-16 -11 -5 -17 29 -17 14 0 28 -4 33 -10 4 -6 11 -4 17 5 7 11 10 7 10 -18 0
-20 4 -31 10 -27 6 3 10 17 10 31 0 21 4 24 41 24 39 0 40 -1 37 -32 l-3 -33
-83 -3 c-58 -2 -82 0 -77 8 4 6 16 8 28 4 22 -7 22 -6 3 15 -15 16 -22 18 -33
10 -7 -6 -13 -18 -13 -25 0 -8 -10 -14 -25 -14 -19 0 -23 4 -18 17 7 17 6 17
-19 1 -23 -15 -57 -17 -305 -16 -153 1 -280 5 -283 9 -3 3 -31 8 -63 11 -46 4
-57 2 -53 -9 4 -11 -40 -13 -246 -13 -138 0 -248 3 -245 7 4 3 20 6 36 5 32
-1 51 25 25 35 -8 3 -13 12 -10 20 7 17 -31 56 -45 47 -8 -4 -8 -1 -1 12 5 11
7 24 5 31 -2 6 1 14 6 18 7 4 11 -4 11 -19 0 -14 5 -28 12 -32 8 -5 9 0 6 14
-4 12 -2 25 3 28 15 9 10 34 -6 28 -9 -4 -15 -1 -15 7 0 8 -8 2 -18 -14 -10
-15 -23 -24 -27 -20 -5 5 -3 0 4 -9 15 -20 7 -38 -17 -38 -12 0 -13 -3 -5 -11
6 -6 23 -11 37 -12 13 0 27 -6 31 -15 7 -20 -4 -30 -14 -13 -11 17 -23 -1 -15
-22 3 -8 1 -18 -5 -21 -6 -4 -13 9 -17 29 -3 19 -12 39 -19 43 -7 4 -15 32
-19 62 -3 30 -8 71 -11 89 -2 21 -13 42 -26 52 -13 9 -18 19 -11 23 5 3 8 15
5 26 -7 25 4 26 29 3 17 -15 20 -15 28 -3 7 10 4 19 -7 28 -15 11 -14 12 9 12
37 0 58 -10 58 -26 0 -8 5 -14 10 -14 6 0 10 -4 10 -10 0 -5 -11 -10 -24 -10
-31 0 -50 -24 -49 -63 0 -24 4 -32 17 -30 13 1 16 -4 13 -19 -4 -12 -1 -18 6
-15 13 4 13 28 1 66 -5 17 -4 22 4 17 6 -3 14 0 19 8 7 11 10 12 20 1 9 -10 9
-14 -1 -18 -15 -6 -19 -64 -5 -72 5 -4 9 -1 9 5 0 6 5 8 10 5 18 -11 32 6 15
19 -15 11 -12 14 19 31 20 11 36 24 37 30 1 5 5 -10 10 -34 10 -51 13 -56 31
-45 14 9 24 10 105 15 50 4 52 5 47 29 -4 22 -3 22 9 -4 12 -27 18 -30 67 -31
30 -1 84 2 120 6 35 4 67 5 70 1 8 -11 100 -12 100 -2 0 6 -5 10 -11 10 -5 0
-7 5 -4 10 4 6 14 1 25 -12 18 -23 18 -23 -8 -29 -24 -6 -25 -7 -4 -8 12 0 25
-8 28 -16 4 -10 19 -14 45 -13 33 1 39 5 44 30 4 15 10 26 15 23 4 -3 10 2 14
10 4 10 -6 20 -29 29 -22 9 -35 22 -35 33 0 15 2 16 10 3 11 -18 25 -7 17 15
-4 8 -15 15 -26 15 -17 0 -20 5 -14 30 5 30 -10 43 -21 18 -3 -7 -3 1 0 19 4
25 1 32 -15 38 -12 3 -21 11 -21 17 0 5 7 8 15 4 9 -3 24 3 35 14 18 18 18 20
3 20 -12 0 -7 7 15 20 18 11 38 17 44 14 7 -5 2 -11 -13 -17 -17 -7 -20 -11
-8 -14 21 -5 107 44 126 73 8 13 16 24 17 24 1 0 22 -10 46 -21z m-380 1 c0
-5 -5 -10 -11 -10 -5 0 -7 5 -4 10 3 6 8 10 11 10 2 0 4 -4 4 -10z m455 0 c3
-5 -1 -10 -9 -10 -9 0 -16 5 -16 10 0 6 4 10 9 10 6 0 13 -4 16 -10z m-1668
-7 c-4 -3 1 -12 11 -19 20 -15 12 -27 -12 -18 -18 7 -22 44 -4 44 6 0 8 -3 5
-7z m211 -21 c2 -7 -2 -10 -12 -6 -9 3 -16 11 -16 16 0 13 23 5 28 -10z m1637
-2 c3 -5 1 -10 -4 -10 -6 0 -11 5 -11 10 0 6 2 10 4 10 3 0 8 -4 11 -10z m65
0 c0 -5 -4 -10 -10 -10 -5 0 -10 5 -10 10 0 6 5 10 10 10 6 0 10 -4 10 -10z
m-910 -10 c12 -8 11 -10 -7 -10 -13 0 -23 5 -23 10 0 13 11 13 30 0z m947 -22
c-3 -8 -6 -5 -6 6 -1 11 2 17 5 13 3 -3 4 -12 1 -19z m-1302 2 c3 -5 1 -10 -4
-10 -6 0 -11 5 -11 10 0 6 2 10 4 10 3 0 8 -4 11 -10z m1115 0 c0 -5 -4 -10
-10 -10 -5 0 -10 5 -10 10 0 6 5 10 10 10 6 0 10 -4 10 -10z m-1650 -20 c11
-7 4 -10 -25 -9 -31 0 -36 2 -20 9 26 11 28 11 45 0z m110 0 c0 -5 -8 -10 -17
-10 -15 0 -16 2 -3 10 19 12 20 12 20 0z m972 -32 c-9 -9 -12 -7 -12 12 0 19
3 21 12 12 9 -9 9 -15 0 -24z m-1031 4 c-7 -2 -18 1 -23 6 -8 8 -4 9 13 5 13
-4 18 -8 10 -11z m654 8 c3 -5 2 -10 -4 -10 -5 0 -13 5 -16 10 -3 6 -2 10 4
10 5 0 13 -4 16 -10z m162 -22 c-3 -7 -5 -2 -5 12 0 14 2 19 5 13 2 -7 2 -19
0 -25z m934 19 c-1 -12 -15 -9 -19 4 -3 6 1 10 8 8 6 -3 11 -8 11 -12z m59 3
c0 -5 -5 -10 -11 -10 -5 0 -7 5 -4 10 3 6 8 10 11 10 2 0 4 -4 4 -10z m-1320
-10 c0 -5 -5 -10 -11 -10 -5 0 -7 5 -4 10 3 6 8 10 11 10 2 0 4 -4 4 -10z
m607 -12 c-3 -8 -6 -5 -6 6 -1 11 2 17 5 13 3 -3 4 -12 1 -19z m743 12 c0 -5
-4 -10 -10 -10 -5 0 -10 5 -10 10 0 6 5 10 10 10 6 0 10 -4 10 -10z m-1930
-35 c0 -8 5 -14 11 -12 6 1 14 -4 17 -12 7 -20 -20 -8 -32 14 -6 11 -18 26
-26 33 -13 11 -12 11 8 2 12 -6 22 -17 22 -25z m220 16 c0 -11 -5 -21 -11 -23
-6 -2 -9 -17 -7 -33 l3 -30 16 33 c14 28 18 31 29 17 7 -8 19 -15 26 -15 16 0
19 -16 4 -25 -6 -4 -8 -10 -5 -15 3 -4 -2 -13 -10 -20 -12 -10 -15 -9 -15 9 0
17 -3 19 -24 11 -17 -6 -30 -4 -45 6 -25 18 -28 39 -5 30 13 -5 15 -1 11 20
-5 25 8 53 26 54 4 0 7 -9 7 -19z m814 3 c5 -14 4 -15 -9 -4 -17 14 -19 20 -6
20 5 0 12 -7 15 -16z m121 -4 c3 -5 1 -10 -4 -10 -6 0 -11 5 -11 10 0 6 2 10
4 10 3 0 8 -4 11 -10z m-491 -15 c-4 -8 -8 -15 -10 -15 -2 0 -4 7 -4 15 0 8 4
15 10 15 5 0 7 -7 4 -15z m229 0 c4 -8 2 -17 -3 -20 -6 -4 -10 3 -10 14 0 25
6 27 13 6z m87 5 c0 -5 -2 -10 -4 -10 -3 0 -8 5 -11 10 -3 6 -1 10 4 10 6 0
11 -4 11 -10z m95 0 c3 -5 1 -10 -4 -10 -6 0 -11 5 -11 10 0 6 2 10 4 10 3 0
8 -4 11 -10z m585 -20 c-20 -13 -6 -23 31 -22 22 0 28 -3 22 -9 -6 -6 -23 -9
-39 -7 -21 2 -30 9 -32 26 -3 16 2 22 15 22 15 0 16 -2 3 -10z m-559 -13 c-1
-12 -15 -9 -19 4 -3 6 1 10 8 8 6 -3 11 -8 11 -12z m129 3 c0 -5 -5 -10 -11
-10 -5 0 -7 5 -4 10 3 6 8 10 11 10 2 0 4 -4 4 -10z m600 1 c0 -12 -20 -25
-27 -18 -7 7 6 27 18 27 5 0 9 -4 9 -9z m-1700 -16 c0 -8 10 -20 23 -26 29
-16 38 -30 31 -52 -3 -10 0 -24 6 -32 10 -12 9 -15 -4 -15 -9 0 -16 -4 -16
-10 0 -5 -8 -10 -17 -10 -16 1 -16 2 -3 13 8 7 15 27 15 45 0 29 -3 33 -25 30
-14 -2 -24 -9 -22 -15 4 -21 -20 -14 -25 7 -3 11 -9 20 -15 20 -5 0 -3 10 3
23 19 36 49 50 49 22z m650 5 c0 -5 -2 -10 -4 -10 -3 0 -8 5 -11 10 -3 6 -1
10 4 10 6 0 11 -4 11 -10z m-700 -10 c0 -5 -2 -10 -4 -10 -3 0 -8 5 -11 10 -3
6 -1 10 4 10 6 0 11 -4 11 -10z m830 -5 c10 -12 10 -15 -4 -15 -9 0 -16 7 -16
15 0 8 2 15 4 15 2 0 9 -7 16 -15z m-200 -16 c0 -4 -7 -6 -15 -3 -8 4 -15 10
-15 15 0 4 7 6 15 3 8 -4 15 -10 15 -15z m115 11 c-3 -5 -10 -10 -16 -10 -5 0
-9 5 -9 10 0 6 7 10 16 10 8 0 12 -4 9 -10z m185 -18 c0 -8 -1 -13 -3 -11 -1
2 -9 12 -16 22 -12 15 -12 17 3 11 9 -3 16 -13 16 -22z m160 19 c0 -6 -4 -13
-10 -16 -5 -3 -10 1 -10 9 0 9 5 16 10 16 6 0 10 -4 10 -9z m80 -1 c0 -5 -7
-10 -16 -10 -8 0 -12 5 -9 10 3 6 10 10 16 10 5 0 9 -4 9 -10z m380 -10 c6
-11 15 -18 20 -15 5 3 12 0 16 -6 5 -8 -1 -10 -19 -7 -14 3 -28 0 -30 -6 -2
-6 -3 -2 -1 8 2 11 -2 26 -8 33 -7 9 -7 13 0 13 6 0 16 -9 22 -20z m-1658 -60
c4 0 8 7 8 15 0 26 28 16 38 -14 12 -33 5 -46 -14 -30 -22 18 -50 -5 -52 -45
-2 -20 2 -36 7 -36 5 0 7 8 4 19 -6 23 19 30 98 26 64 -3 83 -11 75 -31 -3 -8
1 -14 10 -14 8 0 13 4 10 9 -7 11 21 48 30 39 4 -4 1 -14 -5 -22 -7 -8 -8 -17
-3 -20 6 -4 6 -22 0 -48 -5 -24 -8 -56 -8 -73 3 -45 0 -53 -10 -27 -5 12 -7
29 -4 37 4 8 3 27 -1 43 l-7 27 -20 -25 c-13 -17 -16 -26 -8 -28 9 -3 9 -7 -1
-13 -11 -7 -10 -9 5 -9 18 0 18 -1 3 -18 -19 -20 -23 -37 -7 -27 6 3 10 0 10
-9 0 -8 6 -17 13 -19 6 -3 -16 -6 -51 -6 -68 -1 -94 13 -90 46 3 21 -33 123
-44 123 -4 0 -4 -22 -1 -49 3 -26 1 -57 -5 -67 -8 -14 -11 -4 -17 49 -4 36 -5
82 -3 102 2 19 0 35 -5 35 -5 0 -7 7 -3 15 3 9 0 15 -9 15 -9 0 -15 9 -15 21
0 14 5 19 14 16 9 -4 16 3 20 16 3 12 1 24 -5 26 -7 2 -6 7 2 12 11 7 16 0 23
-26 5 -19 13 -35 18 -35z m1778 55 c0 -9 -6 -12 -15 -9 -8 4 -12 10 -9 15 8
14 24 10 24 -6z m-910 -5 c0 -5 -4 -10 -10 -10 -5 0 -10 5 -10 10 0 6 5 10 10
10 6 0 10 -4 10 -10z m-166 -40 c-6 -5 -24 21 -24 34 0 6 6 1 14 -10 8 -10 12
-21 10 -24z m266 30 c0 -5 -2 -10 -4 -10 -3 0 -8 5 -11 10 -3 6 -1 10 4 10 6
0 11 -4 11 -10z m623 -8 c-21 -22 -26 -21 -17 2 3 9 12 16 20 16 11 0 10 -4
-3 -18z m401 -11 c-7 -8 -35 9 -29 19 4 6 11 5 20 -3 7 -6 11 -14 9 -16z
m-1113 -8 c-12 -20 -14 -14 -5 12 4 9 9 14 11 11 3 -2 0 -13 -6 -23z m207 10
c6 -19 -25 -16 -32 3 -4 11 -1 14 11 12 9 -2 18 -9 21 -15z m132 13 c0 -2 -9
-6 -20 -9 -11 -3 -20 -1 -20 4 0 5 9 9 20 9 11 0 20 -2 20 -4z m-555 -16 c3
-5 2 -10 -4 -10 -5 0 -13 5 -16 10 -3 6 -2 10 4 10 5 0 13 -4 16 -10z m378 -4
c3 -8 0 -19 -7 -25 -10 -9 -12 -6 -8 14 5 29 8 31 15 11z m574 -6 c-1 -12 -5
-16 -10 -11 -5 5 -6 14 -3 20 11 16 15 13 13 -9z m-825 -12 c-2 -10 -7 -18
-11 -18 -4 0 -17 -9 -29 -20 -22 -20 -32 -14 -12 6 8 8 6 15 -5 24 -24 20 -18
25 23 25 32 0 38 -3 34 -17z m-462 -3 c0 -8 -2 -15 -4 -15 -2 0 -6 7 -10 15
-3 8 -1 15 4 15 6 0 10 -7 10 -15z m1350 5 c0 -5 -4 -10 -10 -10 -5 0 -10 5
-10 10 0 6 5 10 10 10 6 0 10 -4 10 -10z m-1370 -36 c0 -27 14 -46 42 -57 10
-3 15 -12 13 -19 -4 -9 3 -14 17 -15 14 -1 18 1 10 6 -9 5 -7 13 8 29 25 27
45 28 59 5 9 -16 10 -16 11 5 0 12 5 22 10 22 6 0 10 -8 10 -18 0 -10 5 -23
11 -29 7 -7 4 -12 -11 -16 -13 -3 -28 2 -40 16 -24 25 -27 5 -3 -23 12 -13 24
-18 40 -14 26 7 27 3 13 -44 -7 -28 -7 -33 5 -28 22 8 18 -2 -12 -31 -27 -25
-27 -25 -5 -18 19 6 23 4 20 -11 -2 -13 -15 -18 -52 -21 -36 -3 -46 -1 -41 8
6 8 4 10 -6 3 -18 -11 -59 -17 -41 -6 9 6 7 14 -9 31 -13 14 -19 30 -16 43 7
26 -2 78 -14 78 -5 0 -7 -14 -5 -30 2 -17 0 -33 -5 -36 -8 -4 -14 25 -10 49 0
4 -3 7 -9 7 -5 0 -10 -4 -10 -10 0 -5 -11 -10 -25 -10 -15 0 -25 6 -25 15 0 8
6 12 14 9 26 -10 56 15 56 45 0 15 -3 31 -7 35 -11 11 -12 67 -2 60 5 -3 9
-16 9 -30z m69 5 c6 -18 11 -39 11 -47 0 -13 -3 -13 -18 1 -10 10 -24 17 -30
17 -8 0 -8 8 -1 30 14 38 24 38 38 -1z m866 21 c3 -5 -1 -10 -9 -10 -8 0 -18
5 -21 10 -3 6 1 10 9 10 8 0 18 -4 21 -10z m407 -49 c-4 -10 -7 -10 -14 4 -5
9 -7 24 -3 33 6 15 8 15 15 -3 4 -11 5 -26 2 -34z m-1157 19 c3 -5 1 -10 -4
-10 -6 0 -11 5 -11 10 0 6 2 10 4 10 3 0 8 -4 11 -10z m505 6 c0 -3 -4 -8 -10
-11 -5 -3 -10 -1 -10 4 0 6 5 11 10 11 6 0 10 -2 10 -4z m-716 -73 c5 -17 3
-23 -8 -23 -21 0 -28 15 -20 46 7 28 15 22 28 -23z m1031 29 c-3 -3 -11 0 -18
7 -9 10 -8 11 6 5 10 -3 15 -9 12 -12z m39 -17 c-4 -9 -19 -15 -35 -15 -34 0
-39 17 -6 23 42 8 46 7 41 -8z m-1413 -76 c-9 -23 -10 -22 -10 11 -1 23 2 31
9 24 7 -7 7 -19 1 -35z m355 -25 c-3 -14 -10 -32 -16 -39 -6 -7 -9 -17 -8 -23
3 -9 -1 -12 -19 -12 -5 0 -9 11 -9 25 -1 15 2 22 8 19 6 -4 9 -1 6 7 -3 8 -14
15 -26 17 -12 2 -22 8 -22 14 0 5 6 8 14 5 12 -5 31 -1 74 12 1 1 0 -11 -2
-25z m1694 -8 c0 -3 -4 -8 -10 -11 -5 -3 -10 -1 -10 4 0 6 5 11 10 11 6 0 10
-2 10 -4z m-1660 -42 c0 -8 -4 -12 -10 -9 -5 3 -10 10 -10 16 0 5 5 9 10 9 6
0 10 -7 10 -16z m223 -26 c4 -12 4 -24 1 -27 -6 -7 -24 20 -24 37 0 21 17 13
23 -10z m67 2 c0 -5 -7 -7 -15 -4 -8 4 -15 8 -15 10 0 2 7 4 15 4 8 0 15 -4
15 -10z m-665 -10 c-3 -5 -11 -10 -16 -10 -6 0 -7 5 -4 10 3 6 11 10 16 10 6
0 7 -4 4 -10z m365 -5 c11 -13 8 -15 -21 -15 -31 0 -32 1 -13 15 10 8 20 15
20 15 1 0 7 -7 14 -15z m-300 -5 c13 -8 13 -10 -2 -10 -9 0 -20 5 -23 10 -8
13 5 13 25 0z m223 -7 c-7 -2 -21 -2 -30 0 -10 3 -4 5 12 5 17 0 24 -2 18 -5z
m1623 -23 l134 0 0 -90 c0 -88 -16 -126 -22 -53 -3 31 -8 38 -37 48 -19 6 -37
17 -39 23 -7 21 28 25 48 7 19 -17 20 -17 20 2 0 40 -89 36 -105 -5 -8 -20 23
-52 51 -52 23 0 41 -31 29 -50 -12 -19 -45 -11 -45 11 0 17 -3 19 -14 10 -8
-6 -16 -23 -19 -37 -4 -25 -4 -26 49 -22 30 1 54 0 54 -4 0 -5 7 -8 16 -8 9 0
14 -6 12 -12 -4 -10 -157 -14 -714 -16 l-709 -2 0 35 c0 19 3 35 8 35 9 0 9
34 0 43 -3 4 -12 2 -19 -4 -9 -7 -14 -6 -20 2 -4 7 -2 15 4 17 17 5 15 22 -3
22 -25 0 -28 -26 -10 -74 31 -80 44 -76 -300 -76 l-305 0 0 25 c0 18 4 23 15
19 23 -9 51 4 38 17 -16 16 5 72 24 65 8 -3 21 -6 28 -6 9 0 15 -14 17 -37 2
-25 8 -37 20 -39 22 -3 33 13 20 29 -5 7 -13 40 -17 75 l-7 62 -51 -1 c-29 -1
-44 -3 -34 -6 10 -3 16 -10 14 -16 -3 -7 -13 -32 -22 -57 -35 -89 -45 -84 -42
20 l2 95 885 5 c487 3 891 4 898 3 8 -2 74 -3 148 -3z m-1826 -91 c0 -10 -6
-19 -13 -19 -22 0 -27 11 -16 32 12 22 29 15 29 -13z"/>
<path d="M109 2881 c-13 -11 -19 -20 -12 -21 7 0 10 -7 7 -15 -4 -8 -2 -15 4
-15 5 0 12 7 16 15 3 8 0 15 -6 15 -7 0 -6 5 2 15 16 20 35 19 55 -2 16 -16
17 -15 13 3 -5 27 -49 30 -79 5z"/>
<path d="M115 2685 c-23 -10 -25 -13 -10 -14 11 0 31 6 45 14 32 18 5 19 -35
0z"/>
<path d="M184 2665 c26 -19 42 -19 26 0 -7 8 -20 15 -29 15 -13 -1 -13 -3 3
-15z"/>
<path d="M357 2543 c-4 -3 -7 -15 -7 -25 0 -10 -4 -18 -10 -18 -19 0 -10 -41
15 -65 26 -26 86 -34 115 -15 13 8 12 10 -3 10 -60 0 -118 63 -95 103 9 17 -2
24 -15 10z m46 -122 c-2 -3 -16 8 -31 24 l-27 28 31 -24 c17 -13 30 -26 27
-28z"/>
<path d="M130 2375 c0 -8 4 -15 10 -15 5 0 7 7 4 15 -4 8 -8 15 -10 15 -2 0
-4 -7 -4 -15z"/>
<path d="M102 2234 c-12 -8 -22 -24 -22 -35 0 -27 18 -59 32 -59 9 0 9 3 0 12
-20 20 -14 65 10 82 12 9 18 16 12 16 -5 0 -20 -7 -32 -16z"/>
<path d="M122 2218 c-7 -7 -12 -21 -11 -32 0 -15 2 -17 6 -6 3 8 12 23 21 33
17 19 3 24 -16 5z"/>
<path d="M2060 1026 c0 -9 8 -16 20 -16 13 0 20 6 19 18 0 11 -2 12 -6 4 -4
-10 -8 -10 -19 -1 -11 9 -14 8 -14 -5z"/>
<path d="M1080 955 c-9 -11 -9 -15 -1 -15 7 0 9 -5 5 -11 -4 -7 -1 -10 6 -7
14 4 22 48 10 48 -4 0 -13 -7 -20 -15z"/>
<path d="M393 935 c-7 -8 -13 -18 -13 -24 0 -14 32 -23 44 -11 7 7 5 10 -7 10
-9 0 -17 5 -17 11 0 6 7 8 16 5 10 -4 14 -1 12 6 -6 18 -21 19 -35 3z"/>
<path d="M195 908 c1 -13 5 -22 9 -21 23 6 26 10 21 26 -10 25 -32 21 -30 -5z"/>
<path d="M770 910 c0 -5 5 -10 10 -10 6 0 10 5 10 10 0 6 -4 10 -10 10 -5 0
-10 -4 -10 -10z"/>
<path d="M991 874 c0 -11 3 -14 6 -6 3 7 2 16 -1 19 -3 4 -6 -2 -5 -13z"/>
<path d="M712 868 c2 -6 10 -14 16 -16 7 -2 10 2 6 12 -7 18 -28 22 -22 4z"/>
<path d="M893 865 c0 -8 7 -15 15 -15 7 0 12 5 10 12 -6 18 -25 21 -25 3z"/>
<path d="M475 850 c-4 -6 -11 -7 -17 -4 -7 4 -8 2 -4 -5 6 -9 11 -9 22 0 14
11 18 19 10 19 -3 0 -8 -5 -11 -10z"/>
<path d="M520 826 c0 -8 5 -18 10 -21 6 -3 10 3 10 14 0 12 -4 21 -10 21 -5 0
-10 -6 -10 -14z"/>
<path d="M359 2248 c-49 -22 -79 -65 -79 -112 0 -31 20 -86 31 -86 5 0 4 12
-2 28 -6 15 -11 41 -11 58 0 38 29 97 45 91 7 -2 20 3 31 12 10 9 45 19 80 22
l61 6 -55 0 c-35 1 -72 -7 -101 -19z"/>
<path d="M1200 2120 c0 -5 5 -10 10 -10 6 0 10 5 10 10 0 6 -4 10 -10 10 -5 0
-10 -4 -10 -10z"/>
<path d="M1215 2090 c3 -5 11 -10 16 -10 6 0 7 5 4 10 -3 6 -11 10 -16 10 -6
0 -7 -4 -4 -10z"/>
<path d="M165 2079 c-11 -17 1 -21 15 -4 8 9 8 15 2 15 -6 0 -14 -5 -17 -11z"/>
<path d="M477 2050 c7 -25 -23 -60 -51 -60 -15 0 -17 -3 -9 -11 24 -24 90 41
77 75 -9 23 -23 19 -17 -4z"/>
<path d="M443 2034 c-12 -27 -2 -32 17 -9 8 10 10 19 4 25 -5 5 -14 -1 -21
-16z"/>
<path d="M330 2010 c0 -6 6 -10 14 -10 8 0 16 -5 18 -11 2 -6 12 -10 22 -8 14
3 10 8 -18 21 -20 10 -36 13 -36 8z"/>
<path d="M150 1880 c0 -5 9 -14 20 -20 11 -6 20 -7 20 -3 0 5 -9 14 -20 21
-11 7 -20 8 -20 2z"/>
<path d="M302 1855 c0 -16 2 -22 5 -12 2 9 2 23 0 30 -3 6 -5 -1 -5 -18z"/>
<path d="M473 1853 c-14 -5 -18 -39 -5 -47 5 -3 8 5 8 17 -1 25 28 35 49 17 8
-7 15 -25 15 -41 0 -21 -7 -32 -30 -44 -50 -26 -83 -15 -104 35 -3 8 -4 2 0
-15 5 -28 4 -29 -11 -14 -10 9 -21 32 -25 50 -8 33 -8 33 -9 6 -1 -21 9 -39
34 -64 32 -32 39 -35 73 -28 61 11 82 30 82 73 0 54 -29 75 -77 55z"/>
<path d="M321 1834 c0 -11 3 -14 6 -6 3 7 2 16 -1 19 -3 4 -6 -2 -5 -13z"/>
<path d="M230 1780 c-13 -8 -13 -10 2 -10 9 0 20 5 23 10 8 13 -5 13 -25 0z"/>
<path d="M260 1760 c-13 -8 -13 -10 2 -10 9 0 20 5 23 10 8 13 -5 13 -25 0z"/>
<path d="M748 1733 c12 -17 22 -44 22 -60 1 -23 2 -25 11 -11 11 20 -8 65 -37
89 -14 10 -13 6 4 -18z"/>
<path d="M575 1732 c-16 -10 -32 -18 -34 -19 -2 -2 -2 -6 1 -9 7 -7 64 21 73
36 9 14 -5 11 -40 -8z"/>
<path d="M246 1713 c-33 -33 -40 -61 -27 -104 l11 -34 -6 37 c-6 44 7 74 44
105 15 13 22 23 16 23 -6 0 -23 -12 -38 -27z"/>
<path d="M744 1672 c0 -15 -4 -36 -9 -47 -8 -18 -7 -19 8 -6 9 7 17 26 17 42
0 36 -15 46 -16 11z"/>
<path d="M174 1665 c-10 -40 10 -135 28 -135 7 0 7 4 0 13 -17 20 -25 102 -13
126 8 13 8 21 2 21 -6 0 -13 -11 -17 -25z"/>
<path d="M618 1563 c6 -2 18 -2 25 0 6 3 1 5 -13 5 -14 0 -19 -2 -12 -5z"/>
<path d="M574 1551 c13 -20 72 -24 102 -6 l29 16 -30 -7 c-40 -9 -55 -9 -84 0
-16 6 -21 5 -17 -3z"/>
<path d="M230 1533 c0 -13 27 -49 33 -43 3 3 -3 16 -14 29 -10 13 -19 19 -19
14z"/>
<path d="M255 1464 c29 -23 81 -44 107 -43 15 0 8 5 -20 14 -23 7 -54 20 -67
29 -31 21 -46 20 -20 0z"/>
<path d="M468 1449 c-15 -14 -42 -31 -60 -36 -30 -10 -30 -11 -8 -12 29 -1 88
32 97 54 9 24 0 23 -29 -6z"/>
<path d="M661 1408 c-2 -34 -68 -50 -114 -27 -21 10 -21 9 2 -10 13 -12 35
-21 50 -21 36 1 74 32 68 56 -4 16 -5 16 -6 2z"/>
<path d="M559 1397 c16 -20 47 -22 57 -5 5 8 2 9 -10 5 -10 -4 -27 -2 -39 5
-20 10 -21 10 -8 -5z"/>
<path d="M1505 1040 c-3 -5 -1 -10 4 -10 6 0 11 5 11 10 0 6 -2 10 -4 10 -3 0
-8 -4 -11 -10z"/>
<path d="M1560 1040 c-9 -6 -10 -10 -3 -10 6 0 15 5 18 10 8 12 4 12 -15 0z"/>
<path d="M1645 970 c3 -5 11 -10 16 -10 6 0 7 5 4 10 -3 6 -11 10 -16 10 -6 0
-7 -4 -4 -10z"/>
<path d="M615 630 c3 -5 11 -10 16 -10 6 0 7 5 4 10 -3 6 -11 10 -16 10 -6 0
-7 -4 -4 -10z"/>
<path d="M1930 597 c0 -15 4 -27 10 -27 5 0 9 9 7 20 -5 31 -17 36 -17 7z"/>
<path d="M811 563 c0 -7 -11 -21 -23 -33 -12 -11 -19 -23 -15 -26 4 -4 1 -14
-5 -22 -10 -12 -9 -14 7 -11 11 3 20 9 20 16 0 6 3 15 8 19 4 4 7 -10 6 -32
-2 -56 2 -103 8 -81 2 9 12 17 21 17 13 0 17 10 18 40 1 44 -10 53 -21 18 -6
-19 -8 -20 -12 -6 -2 9 0 25 6 36 6 11 6 23 2 28 -5 5 -11 18 -14 29 -3 11 -5
15 -6 8z"/>
<path d="M1596 525 c-19 -15 -19 -15 1 -15 11 0 26 7 33 15 17 20 -7 20 -34 0z"/>
<path d="M915 510 c-3 -5 -1 -10 4 -10 6 0 11 5 11 10 0 6 -2 10 -4 10 -3 0
-8 -4 -11 -10z"/>
<path d="M1225 510 c-16 -6 -14 -8 15 -12 41 -7 49 -3 23 10 -10 5 -27 6 -38
2z"/>
<path d="M1730 505 c-8 -9 -8 -15 -2 -15 12 0 26 19 19 26 -2 2 -10 -2 -17
-11z"/>
<path d="M1770 505 c0 -8 4 -15 9 -15 5 0 14 7 21 15 10 13 9 15 -9 15 -12 0
-21 -6 -21 -15z"/>
<path d="M1110 500 c0 -5 10 -10 23 -10 18 0 19 2 7 10 -19 13 -30 13 -30 0z"/>
<path d="M1290 499 c0 -5 5 -7 10 -4 6 3 10 8 10 11 0 2 -4 4 -10 4 -5 0 -10
-5 -10 -11z"/>
<path d="M1320 494 c0 -8 5 -12 10 -9 6 4 8 11 5 16 -9 14 -15 11 -15 -7z"/>
<path d="M1375 490 c3 -5 11 -10 16 -10 6 0 7 5 4 10 -3 6 -11 10 -16 10 -6 0
-7 -4 -4 -10z"/>
<path d="M1290 470 c0 -5 5 -10 11 -10 5 0 7 5 4 10 -3 6 -8 10 -11 10 -2 0
-4 -4 -4 -10z"/>
<path d="M1331 462 c-13 -25 -1 -40 29 -32 22 5 23 7 7 13 -10 4 -16 11 -12
16 3 5 1 12 -4 16 -6 3 -14 -3 -20 -13z"/>
<path d="M1700 469 c-13 -8 -13 -10 0 -19 27 -18 39 -9 22 17 -5 8 -12 9 -22
2z"/>
<path d="M940 460 c0 -5 12 -10 28 -9 24 0 25 1 7 9 -27 12 -35 12 -35 0z"/>
<path d="M1160 459 c0 -5 5 -7 10 -4 6 3 10 8 10 11 0 2 -4 4 -10 4 -5 0 -10
-5 -10 -11z"/>
<path d="M870 434 c0 -17 22 -14 28 4 2 7 -3 12 -12 12 -9 0 -16 -7 -16 -16z"/>
<path d="M1780 434 c-22 -12 -23 -13 -5 -13 24 -1 50 14 38 22 -4 3 -19 -1
-33 -9z"/>
<path d="M1840 440 c0 -5 5 -10 10 -10 6 0 10 5 10 10 0 6 -4 10 -10 10 -5 0
-10 -4 -10 -10z"/>
<path d="M1202 418 c5 -15 28 -23 28 -10 0 5 -7 13 -16 16 -10 4 -14 1 -12 -6z"/>
<path d="M1665 414 c-6 -9 -23 -16 -39 -16 -17 0 -23 -3 -16 -8 22 -14 80 -9
80 6 0 8 6 11 18 7 14 -5 13 -3 -3 10 -25 21 -28 21 -40 1z"/>
<path d="M750 401 c0 -5 7 -12 16 -15 21 -8 24 -8 24 5 0 5 -4 7 -10 4 -5 -3
-10 -1 -10 4 0 6 -4 11 -10 11 -5 0 -10 -4 -10 -9z"/>
<path d="M1075 402 c-2 -3 -2 -8 1 -13 5 -9 34 -1 34 10 0 8 -27 10 -35 3z"/>
<path d="M840 366 c0 -26 5 -36 21 -41 12 -4 26 -2 33 5 8 10 7 12 -7 7 -19
-7 -39 27 -30 51 3 6 0 12 -6 12 -6 0 -11 -15 -11 -34z"/>
<path d="M940 390 c0 -5 5 -10 10 -10 6 0 10 5 10 10 0 6 -4 10 -10 10 -5 0
-10 -4 -10 -10z"/>
<path d="M985 390 c-3 -5 1 -10 10 -10 9 0 13 5 10 10 -3 6 -8 10 -10 10 -2 0
-7 -4 -10 -10z"/>
<path d="M1125 390 c4 -6 11 -8 16 -5 14 9 11 15 -7 15 -8 0 -12 -5 -9 -10z"/>
<path d="M1250 389 c0 -5 5 -7 10 -4 6 3 10 8 10 11 0 2 -4 4 -10 4 -5 0 -10
-5 -10 -11z"/>
<path d="M1320 390 c-12 -8 -10 -10 8 -10 13 0 20 4 17 10 -7 12 -6 12 -25 0z"/>
<path d="M1700 381 c0 -15 29 -33 45 -27 24 9 18 28 -6 21 -15 -5 -19 -4 -15
4 4 6 0 11 -8 11 -9 0 -16 -4 -16 -9z"/>
<path d="M1775 380 c3 -5 8 -10 11 -10 2 0 4 5 4 10 0 6 -5 10 -11 10 -5 0 -7
-4 -4 -10z"/>
<path d="M808 345 c-3 -14 -2 -25 2 -25 4 0 10 11 12 25 3 14 2 25 -2 25 -4 0
-10 -11 -12 -25z"/>
<path d="M1215 350 c3 -5 8 -10 11 -10 2 0 4 5 4 10 0 6 -5 10 -11 10 -5 0 -7
-4 -4 -10z"/>
<path d="M1245 350 c-3 -5 -1 -10 4 -10 6 0 11 5 11 10 0 6 -2 10 -4 10 -3 0
-8 -4 -11 -10z"/>
<path d="M1270 350 c0 -5 5 -10 10 -10 6 0 10 5 10 10 0 6 -4 10 -10 10 -5 0
-10 -4 -10 -10z"/>
<path d="M1320 345 c0 -8 3 -15 8 -16 46 -4 102 -3 102 2 0 7 -71 29 -94 29
-9 0 -16 -7 -16 -15z"/>
<path d="M1925 350 c-3 -5 -1 -10 4 -10 6 0 11 5 11 10 0 6 -2 10 -4 10 -3 0
-8 -4 -11 -10z"/>
<path d="M915 340 c3 -5 8 -10 11 -10 2 0 4 5 4 10 0 6 -5 10 -11 10 -5 0 -7
-4 -4 -10z"/>
<path d="M1672 341 c-10 -6 -8 -10 9 -14 26 -7 34 -3 24 12 -7 13 -15 14 -33
2z"/>
<path d="M1850 340 c0 -5 7 -10 15 -10 8 0 15 5 15 10 0 6 -7 10 -15 10 -8 0
-15 -4 -15 -10z"/>
<path d="M1070 330 c0 -5 5 -10 10 -10 6 0 10 5 10 10 0 6 -4 10 -10 10 -5 0
-10 -4 -10 -10z"/>
<path d="M2080 330 c0 -5 4 -10 9 -10 6 0 13 5 16 10 3 6 -1 10 -9 10 -9 0
-16 -4 -16 -10z"/>
<path d="M125 520 c3 -5 11 -10 16 -10 6 0 7 5 4 10 -3 6 -11 10 -16 10 -6 0
-7 -4 -4 -10z"/>
<path d="M218 523 c7 -3 16 -2 19 1 4 3 -2 6 -13 5 -11 0 -14 -3 -6 -6z"/>
<path d="M295 480 c3 -5 8 -10 11 -10 2 0 4 5 4 10 0 6 -5 10 -11 10 -5 0 -7
-4 -4 -10z"/>
<path d="M170 402 c0 -5 7 -9 15 -9 8 0 15 4 15 9 0 4 -7 8 -15 8 -8 0 -15 -4
-15 -8z"/>
<path d="M176 361 c-4 -7 -5 -15 -2 -18 9 -9 19 4 14 18 -4 11 -6 11 -12 0z"/>
<path d="M195 330 c-3 -5 -1 -10 4 -10 6 0 11 5 11 10 0 6 -2 10 -4 10 -3 0
-8 -4 -11 -10z"/>
<path d="M442 498 c2 -6 10 -13 16 -14 7 -1 8 0 2 3 -5 2 -8 9 -4 14 3 5 0 9
-6 9 -7 0 -10 -5 -8 -12z"/>
<path d="M480 449 c0 -5 5 -7 10 -4 6 3 10 8 10 11 0 2 -4 4 -10 4 -5 0 -10
-5 -10 -11z"/>
<path d="M562 418 c6 -18 28 -21 28 -4 0 9 -7 16 -16 16 -9 0 -14 -5 -12 -12z"/>
<path d="M485 370 c3 -5 8 -10 11 -10 2 0 4 5 4 10 0 6 -5 10 -11 10 -5 0 -7
-4 -4 -10z"/>
<path d="M515 370 c-3 -5 -1 -10 4 -10 6 0 11 5 11 10 0 6 -2 10 -4 10 -3 0
-8 -4 -11 -10z"/>
<path d="M540 359 c0 -5 5 -7 10 -4 6 3 10 8 10 11 0 2 -4 4 -10 4 -5 0 -10
-5 -10 -11z"/>
<path d="M417 253 c-2 -5 -5 -44 -5 -88 l-2 -80 59 -1 c47 -1 60 2 70 18 17
27 6 34 -23 18 -32 -17 -56 -7 -56 24 0 18 4 24 15 20 11 -5 15 1 15 21 0 23
-2 26 -15 15 -13 -11 -15 -8 -15 14 0 21 5 26 25 26 14 0 25 -4 25 -10 0 -5 5
-10 10 -10 20 0 9 28 -12 34 -32 8 -86 7 -91 -1z"/>
<path d="M769 250 c-1 -3 0 -9 1 -15 4 -17 0 -119 -6 -137 -4 -15 1 -18 26
-18 29 0 30 1 28 41 -3 41 -2 42 37 53 32 9 41 17 43 38 3 22 -2 28 -20 32
-37 8 -108 12 -109 6z m96 -34 c0 -24 -43 -42 -51 -21 -10 25 4 47 28 43 15
-2 23 -10 23 -22z"/>
<path d="M1890 251 c-30 -4 -41 -9 -32 -14 10 -7 12 -28 6 -87 l-6 -78 48 5
c48 5 79 26 67 46 -3 5 -10 3 -15 -7 -5 -9 -20 -16 -33 -16 -22 0 -25 4 -25
36 0 31 3 35 20 29 16 -5 20 -2 20 15 0 17 -4 20 -20 15 -16 -5 -20 -2 -20 19
0 19 5 26 19 26 11 0 23 -5 26 -10 4 -6 11 -8 16 -4 10 6 -8 35 -20 32 -3 0
-26 -4 -51 -7z"/>
<path d="M255 225 c-31 -30 -33 -83 -6 -116 22 -27 87 -33 115 -10 23 19 10
32 -19 19 -19 -9 -29 -7 -50 6 -33 21 -41 41 -29 74 13 36 50 47 72 22 22 -27
32 -25 32 5 0 23 -4 25 -45 25 -35 0 -52 -6 -70 -25z"/>
<path d="M925 165 l0 -85 51 0 c34 0 56 5 64 15 12 14 8 15 -28 9 -41 -6 -42
-6 -42 23 0 35 9 47 25 33 16 -13 30 19 15 34 -7 7 -10 6 -10 -2 0 -7 -7 -12
-16 -12 -11 0 -14 8 -12 28 3 27 4 27 52 19 5 -1 11 4 13 11 3 9 -11 12 -54
12 l-58 0 0 -85z"/>
<path d="M1078 238 c7 -7 12 -39 12 -73 0 -34 -5 -66 -12 -73 -9 -9 -5 -12 18
-12 29 0 29 1 26 48 -2 41 -1 44 10 28 65 -96 88 -99 88 -10 0 36 5 74 10 85
10 17 7 19 -22 19 -21 0 -28 -3 -20 -9 9 -5 12 -25 10 -61 l-3 -54 -40 62
c-31 47 -46 61 -64 62 -20 0 -22 -3 -13 -12z"/>
<path d="M1257 243 c-16 -15 -5 -22 24 -16 l31 6 -4 -77 c-3 -73 -2 -76 20
-76 21 0 22 4 22 75 0 66 2 75 18 75 10 0 23 -5 29 -11 13 -13 28 5 18 21 -7
11 -148 14 -158 3z"/>
<path d="M1448 241 c11 -6 8 -21 -13 -72 -15 -35 -34 -68 -41 -72 -20 -11 -9
-24 18 -22 15 1 22 8 20 17 -1 9 2 28 8 42 8 21 16 26 44 26 37 0 46 -12 46
-61 0 -25 4 -29 26 -29 29 0 30 -9 -3 112 l-18 68 -50 0 c-31 0 -45 -4 -37 -9z
m60 -39 c4 -25 -23 -41 -40 -24 -7 7 -6 17 2 32 14 26 34 22 38 -8z"/>
<path d="M1605 225 c-27 -27 -32 -68 -13 -110 15 -34 82 -56 104 -33 13 13 11
15 -17 15 -54 0 -78 61 -43 111 17 25 60 31 51 7 -10 -24 11 -27 24 -4 14 27
-1 39 -49 39 -22 0 -41 -8 -57 -25z"/>
<path d="M1732 159 c-2 -79 0 -90 14 -85 9 3 33 6 54 6 26 0 40 5 44 16 8 22
-1 31 -16 16 -7 -7 -22 -12 -35 -12 -22 0 -23 4 -23 69 0 46 4 71 13 74 6 3
-2 6 -18 6 l-31 1 -2 -91z"/>
<path d="M590 125 c-16 -19 -4 -35 25 -35 29 0 41 16 25 35 -16 19 -34 19 -50
0z"/>
</g>
</svg>
