<?xml version="1.0" standalone="no"?>
<!DOCTYPE svg PUBLIC "-//W3C//DTD SVG 20010904//EN"
 "http://www.w3.org/TR/2001/REC-SVG-20010904/DTD/svg10.dtd">
<svg version="1.0" xmlns="http://www.w3.org/2000/svg"
 width="217.000000pt" height="375.000000pt" viewBox="0 0 217.000000 375.000000"
 preserveAspectRatio="xMidYMid meet">
<metadata>
Created by potrace 1.16, written by Peter Selinger 2001-2019
</metadata>
<g transform="translate(0.000000,375.000000) scale(0.100000,-0.100000)"
fill="#000000" stroke="none">
<path d="M125 3740 l-110 -5 -3 -525 c-2 -289 0 -568 4 -620 l7 -95 16 45 c45
125 88 155 226 155 82 0 96 -3 159 -34 40 -19 96 -60 136 -98 80 -75 166 -194
157 -217 -4 -9 -10 -16 -14 -16 -4 1 -35 37 -68 82 -105 141 -242 247 -347
269 -67 15 -134 -9 -183 -62 -46 -51 -57 -81 -57 -150 1 -120 99 -254 233
-321 41 -20 97 -43 124 -52 45 -13 215 -42 379 -63 56 -8 91 -31 74 -49 -11
-10 -206 16 -303 41 -49 13 -108 26 -131 29 -68 10 -229 90 -285 143 -66 62
-109 145 -109 213 0 27 -4 50 -10 50 -5 0 -8 -6 -5 -12 4 -13 15 -1420 15
-2056 1 -194 3 -359 6 -367 5 -13 44 -15 255 -15 159 0 249 4 249 10 0 6 -88
10 -245 10 l-244 0 -3 258 c-3 252 0 292 25 292 7 0 6 -4 -3 -10 -13 -9 -13
-10 0 -10 70 -2 226 -12 324 -21 65 -6 157 -8 205 -5 116 9 428 9 442 1 14 -9
5 -69 -16 -113 -9 -17 -32 -41 -51 -53 -28 -17 -84 -99 -84 -124 0 -8 31 -6
64 5 17 5 51 15 74 21 25 6 62 26 85 47 23 20 51 42 62 48 21 12 23 35 13 127
l-6 47 57 0 c52 0 60 -3 92 -36 41 -43 64 -53 140 -59 53 -5 59 -3 59 13 0 21
-43 72 -60 72 -6 0 -24 28 -40 62 l-30 63 22 9 c65 24 89 39 153 96 94 82 118
94 190 94 74 0 112 -19 181 -89 61 -63 75 -71 137 -80 40 -6 47 -11 47 -30 0
-21 -4 -23 -42 -19 -40 3 -35 0 20 -12 41 -8 26 -34 -20 -35 -24 -1 -50 -2
-58 -3 -8 -1 -27 2 -42 6 -15 3 -58 2 -95 -4 -77 -12 -183 -2 -148 13 17 8 16
8 -5 4 -14 -4 -45 -9 -70 -11 l-45 -5 25 21 c64 55 123 62 189 25 24 -14 45
-24 47 -22 2 2 -19 16 -47 32 -41 22 -60 26 -96 22 -24 -2 -54 -14 -66 -25
-41 -37 -92 -57 -162 -63 -72 -6 -59 -7 419 -8 110 -1 196 -4 192 -9 -4 -4
-155 -9 -334 -12 l-327 -6 334 -2 333 -2 -5 -257 c-3 -142 -6 -259 -6 -260 -1
-1 -345 -1 -765 0 -572 2 -768 -1 -777 -10 -9 -9 176 -10 776 -7 434 2 789 5
791 7 4 4 19 2178 17 2667 -2 844 -6 1041 -23 1050 -18 10 -91 11 -995 11
-369 0 -724 1 -790 2 -66 1 -169 0 -230 -3z m1840 -20 l161 0 2 -252 c8 -801
9 -1207 3 -1948 l-6 -825 -35 2 c-63 4 -76 12 -139 83 -69 77 -121 110 -174
110 -27 0 -36 5 -40 22 -3 12 -2 29 4 39 5 10 9 31 9 48 0 40 9 61 27 61 8 0
11 5 8 10 -11 17 -37 11 -42 -10 -5 -20 -33 -29 -33 -10 0 17 -41 33 -53 21
-8 -8 -7 -11 4 -11 49 0 67 -92 19 -98 -20 -2 -28 4 -38 28 -11 23 -20 30 -43
30 -21 0 -27 -4 -23 -15 8 -19 -15 -19 -38 -1 -17 12 -17 14 1 30 10 9 25 14
34 10 8 -3 27 2 41 11 27 18 36 38 12 29 -7 -3 -16 2 -19 10 -4 10 -1 16 9 16
8 0 24 9 36 20 18 16 19 20 5 20 -8 0 -19 -4 -22 -10 -3 -5 -18 -10 -32 -10
-26 0 -27 -7 -8 -52 6 -15 2 -18 -17 -16 -22 2 -24 6 -23 48 1 44 -38 144 -70
180 -16 17 -14 45 3 62 17 17 15 38 -3 38 -8 0 -23 9 -32 20 -10 11 -26 20
-36 20 -15 0 -13 -5 11 -25 17 -14 35 -25 41 -25 6 0 11 -5 11 -10 0 -7 -13
-8 -37 -4 -33 6 -36 5 -30 -15 7 -27 -9 -28 -23 -1 -6 11 -16 20 -22 20 -6 0
-19 7 -29 16 -10 9 -25 14 -34 11 -22 -9 -18 -43 7 -67 23 -21 18 -35 -17 -42
-15 -3 -20 -11 -18 -31 2 -27 -19 -38 -32 -17 -3 6 -15 10 -26 10 -13 0 -19 7
-19 24 0 26 -19 39 -39 26 -8 -5 -11 -16 -6 -30 4 -12 4 -42 0 -66 -5 -37 -10
-44 -29 -44 -29 0 -59 34 -76 88 -14 44 -43 59 -39 20 3 -28 -10 -70 -25 -80
-37 -25 -68 8 -70 76 -1 34 -4 41 -21 41 -16 0 -19 -6 -17 -32 3 -29 -1 -34
-37 -52 -23 -10 -43 -15 -46 -11 -3 5 -7 39 -9 77 -3 61 -6 68 -25 71 -15 3
-21 -2 -21 -17 0 -11 -4 -22 -9 -25 -4 -3 -6 -17 -3 -31 3 -20 0 -25 -17 -25
-21 0 -48 42 -42 65 2 6 9 45 16 87 21 116 52 212 79 241 l24 26 53 -20 c72
-28 73 -28 53 -50 -13 -14 -15 -28 -10 -63 4 -27 3 -47 -4 -51 -12 -8 -13 -35
-1 -35 13 0 53 68 47 79 -3 5 8 21 26 36 26 22 39 26 69 22 20 -3 42 0 47 5 6
6 34 12 62 14 49 4 57 1 104 -35 68 -52 109 -91 131 -124 25 -39 31 -25 7 17
l-21 35 24 -9 c14 -5 42 -18 64 -30 52 -26 153 -50 213 -50 103 0 233 77 277
164 13 26 28 78 33 114 10 60 8 75 -12 139 -36 113 -72 160 -158 204 -95 48
-189 68 -332 72 l-115 2 -32 60 c-17 33 -32 69 -32 81 -1 26 -53 73 -94 85
-18 5 -51 9 -74 9 l-43 0 0 39 c0 33 4 40 22 43 15 2 29 16 40 40 10 20 29 49
43 64 14 15 25 38 25 51 0 33 -94 127 -151 152 -55 23 -69 40 -40 48 23 6 28
19 9 26 -8 3 -5 6 5 6 10 1 15 6 12 11 -3 6 1 10 9 10 10 0 13 6 10 15 -4 10
0 15 12 15 14 0 16 2 6 9 -10 6 -8 10 10 15 19 5 20 8 8 16 -12 8 -12 10 5 10
15 0 17 2 6 9 -11 7 -9 10 9 16 18 6 20 9 9 16 -11 7 -10 9 4 9 9 0 17 6 17
13 0 7 9 19 20 27 11 8 20 20 20 27 0 7 7 13 16 13 8 0 13 4 10 9 -7 11 22 23
36 15 6 -4 14 0 19 7 8 11 14 9 33 -13 32 -36 25 -97 -24 -208 -46 -101 -90
-207 -90 -215 0 -3 5 -5 10 -5 6 0 10 5 10 11 0 10 13 39 86 198 24 52 36 95
40 142 6 66 5 69 -25 99 -26 26 -36 30 -65 26 -19 -3 -46 -11 -59 -17 -23 -11
-114 -129 -180 -236 -34 -54 -106 -123 -128 -123 -30 0 -51 -30 -45 -63 3 -17
1 -36 -5 -43 -6 -8 -9 -23 -6 -35 5 -17 2 -20 -14 -16 -22 6 -25 -3 -7 -21 9
-9 8 -12 -5 -12 -25 0 -21 -36 5 -55 15 -10 24 -11 26 -5 2 6 10 3 17 -7 11
-15 10 -22 -11 -46 -13 -16 -24 -35 -24 -43 0 -13 -47 -50 -55 -43 -2 2 -27
40 -55 84 -56 87 -111 143 -207 212 -139 99 -305 103 -398 7 l-43 -44 -3 38
c-2 20 -3 271 -1 557 l2 521 883 -3 c485 -2 954 -3 1042 -3z m-918 -1000 c23
-10 63 -39 88 -64 49 -49 57 -82 28 -111 -16 -16 -18 -14 -30 27 -22 75 -105
121 -215 119 -38 -1 -70 3 -73 10 -10 15 0 22 48 30 73 12 111 9 154 -11z
m-698 -80 c100 -50 129 -185 61 -279 -38 -52 -76 -71 -147 -73 -73 -2 -126 22
-160 73 -38 57 -47 111 -29 173 35 118 159 166 275 106z m635 5 c-4 -8 -11
-15 -16 -15 -6 0 -5 6 2 15 7 8 14 15 16 15 2 0 1 -7 -2 -15z m60 -35 c6 0 17
5 24 12 9 9 13 7 18 -8 4 -10 13 -23 21 -27 7 -4 13 -18 13 -29 0 -17 -3 -19
-12 -10 -21 21 -37 13 -49 -27 -9 -30 -16 -38 -28 -33 -14 5 -14 4 -2 -12 14
-16 16 -16 27 -2 6 9 16 16 22 16 19 0 24 20 11 38 -12 16 -12 16 6 0 17 -16
17 -18 -15 -68 -30 -47 -56 -70 -78 -70 -5 0 -21 12 -36 26 -14 15 -26 22 -26
17 0 -12 38 -53 50 -53 16 0 11 -13 -15 -44 l-25 -29 -14 35 c-13 30 -21 36
-54 42 -22 3 -45 12 -52 20 -14 17 -4 40 14 33 8 -3 17 15 25 54 6 33 16 57
20 54 5 -2 21 7 35 20 15 14 31 25 36 25 5 0 15 8 22 18 17 24 42 33 46 15 2
-7 9 -13 16 -13z m-538 -77 c27 -27 76 -83 109 -127 l60 -78 -31 -27 c-43 -36
-61 -68 -68 -123 -9 -61 -20 -57 -125 44 l-80 76 25 17 c33 21 74 109 74 158
0 21 -7 53 -14 72 -8 19 -11 35 -7 35 4 0 30 -21 57 -47z m366 -177 c17 -21
23 -43 20 -79 -1 -11 3 -17 10 -15 19 7 35 -13 30 -38 -2 -12 1 -25 7 -28 6
-4 11 -18 11 -32 0 -14 7 -27 15 -30 10 -4 12 -15 9 -33 -5 -21 -1 -30 12 -35
16 -6 16 -8 4 -16 -48 -31 -87 8 -189 189 -47 84 -51 95 -36 104 10 5 25 17
34 27 19 22 49 16 73 -14z m169 5 c-6 -10 -21 -21 -33 -24 -20 -6 -19 -3 7 18
36 30 38 30 26 6z m-121 -21 c9 -16 8 -20 -5 -20 -8 0 -15 9 -15 20 0 11 2 20
5 20 2 0 9 -9 15 -20z m256 -16 c62 -25 94 -61 94 -105 0 -21 -4 -41 -10 -44
-5 -3 -10 3 -10 14 0 11 -4 22 -9 25 -5 4 -8 -23 -8 -61 l2 -68 -60 -12 c-108
-22 -147 -21 -174 4 -19 18 -21 26 -12 37 10 12 8 17 -8 26 -16 8 -20 17 -15
35 4 15 2 25 -5 25 -6 0 -11 9 -11 21 0 19 1 19 16 4 19 -19 38 -15 42 9 2 11
-4 19 -17 23 -13 3 -21 13 -21 25 0 18 2 19 16 7 13 -10 17 -10 24 1 4 7 6 19
3 27 -3 7 0 13 6 13 6 0 11 -9 11 -21 0 -12 5 -19 13 -16 6 2 12 14 11 26 0
18 5 21 41 21 24 0 60 -7 81 -16z m-391 -81 c62 -112 155 -249 267 -389 125
-158 205 -222 388 -316 99 -50 109 -53 180 -53 41 0 93 7 114 14 82 28 171
141 190 239 16 90 -56 198 -159 235 -117 43 -171 57 -253 67 -78 10 -106 8
-257 -16 -214 -33 -284 -39 -297 -26 -7 7 8 12 48 17 33 4 73 11 89 15 28 8
29 8 5 10 -24 2 47 18 180 41 93 15 275 16 340 0 93 -22 189 -63 225 -95 52
-48 95 -141 102 -223 14 -169 -71 -280 -243 -319 -68 -15 -80 -15 -142 -1
-186 42 -398 193 -550 392 -150 198 -312 461 -297 485 12 20 22 9 70 -77z
m-38 -35 c67 -113 89 -156 82 -163 -9 -8 -49 7 -49 19 0 6 -11 34 -24 62 -24
52 -95 114 -130 114 -9 0 -16 3 -16 7 0 12 53 63 65 63 6 0 39 -46 72 -102z
m-617 -18 c29 -29 80 -62 143 -92 l97 -47 0 -70 c0 -61 3 -73 27 -102 15 -17
37 -53 49 -80 29 -61 62 -79 148 -79 84 0 112 12 133 54 l16 34 18 -36 c21
-40 24 -68 9 -77 -30 -18 -99 -212 -101 -281 0 -16 -6 -45 -13 -64 -10 -28 -9
-39 2 -57 9 -14 10 -23 3 -28 -25 -15 -8 -26 36 -24 l46 3 13 -44 c8 -25 34
-81 59 -125 63 -111 101 -194 107 -235 4 -19 8 -41 10 -49 2 -8 -35 -35 -97
-70 -82 -46 -107 -56 -145 -55 -49 1 -109 25 -78 32 10 2 18 8 18 14 0 5 -7 8
-15 5 -23 -10 -27 9 -9 53 9 22 14 44 10 47 -3 4 -6 1 -6 -5 0 -9 -4 -9 -19 0
-15 9 -17 17 -10 42 13 44 11 45 -12 6 -11 -19 -18 -27 -15 -17 3 9 1 17 -4
17 -6 0 -10 -6 -10 -14 0 -7 -9 -16 -21 -19 -11 -3 -23 -15 -26 -27 -4 -15
-11 -19 -22 -15 -29 12 -118 18 -155 11 -20 -4 -51 -20 -69 -35 -45 -39 -130
-81 -167 -81 l-30 0 0 83 c0 45 -3 408 -5 807 l-6 725 23 -30 c13 -16 43 -50
68 -75z m54 62 c14 -7 31 -4 64 10 36 16 49 18 69 9 34 -15 43 -14 36 7 -5 13
-3 14 7 6 14 -14 17 -51 5 -79 -8 -17 -7 -18 7 -8 8 7 18 9 22 5 4 -4 4 6 0
22 l-7 29 38 -34 c106 -94 125 -113 125 -125 0 -14 -8 -14 -75 2 -16 4 -34 8
-40 9 -5 0 -9 6 -8 13 4 15 -13 16 -22 2 -4 -6 -11 -8 -16 -4 -5 3 1 14 13 25
l23 20 -25 -7 c-25 -7 -25 -7 -6 15 11 11 14 21 8 21 -7 0 -12 -4 -12 -10 0
-5 -6 -10 -14 -10 -8 0 -16 -11 -18 -25 l-3 -25 -60 31 c-33 16 -67 37 -75 45
-13 13 -13 16 0 24 36 23 110 -2 110 -36 0 -8 5 -14 10 -14 20 0 10 29 -17 50
-24 19 -36 21 -84 16 -50 -5 -59 -3 -78 17 -11 13 -21 27 -21 32 0 5 6 2 13
-7 6 -8 21 -20 31 -26z m776 17 c0 -5 -4 -9 -10 -9 -5 0 -10 7 -10 16 0 8 5
12 10 9 6 -3 10 -10 10 -16z m-755 -7 c-3 -3 -11 0 -18 7 -9 10 -8 11 6 5 10
-3 15 -9 12 -12z m492 -91 c7 -9 13 -23 13 -31 0 -13 2 -13 9 -1 7 11 12 7 24
-15 8 -16 18 -40 22 -53 7 -23 6 -23 -46 -17 -99 13 -106 16 -119 47 -15 34
-7 48 15 29 9 -7 18 -10 21 -8 3 3 -7 15 -21 26 -28 22 -26 42 3 42 13 0 14
-2 3 -9 -9 -6 -5 -8 13 -8 22 0 24 2 14 15 -11 13 -9 14 12 7 14 -4 30 -15 37
-24z m599 -16 c-3 -8 -1 -15 4 -15 6 0 10 -7 10 -16 0 -8 5 -12 10 -9 6 3 10
1 10 -4 0 -6 -9 -12 -20 -12 -11 -1 -26 -2 -32 -3 -16 -1 -11 56 6 66 16 11
19 10 12 -7z m-709 -60 c9 -25 -4 -29 -17 -6 -7 15 -7 21 0 21 6 0 13 -7 17
-15z m-185 -133 c3 -34 1 -57 -4 -50 -4 7 -7 40 -7 73 1 73 6 62 11 -23z m223
34 c39 -9 82 -16 98 -16 15 0 27 -4 27 -10 0 -5 -4 -10 -10 -10 -6 0 -6 -9 1
-26 8 -24 8 -25 -6 -14 -14 12 -14 10 -5 -14 15 -40 11 -56 -5 -21 l-14 30 6
-34 c3 -18 1 -36 -4 -40 -6 -3 -14 -17 -18 -31 -7 -22 -6 -23 9 -11 25 21 21
-11 -4 -34 -20 -18 -22 -18 -50 -2 -16 10 -36 14 -47 10 -16 -6 -16 -5 -4 10
16 20 1 23 -18 5 -11 -11 -12 -9 -7 9 7 22 -11 43 -23 26 -3 -6 -13 -12 -21
-15 -10 -3 -2 -14 28 -35 l42 -31 -34 1 c-20 1 -32 5 -29 11 4 5 0 7 -9 3 -10
-3 -15 0 -14 11 1 12 -6 16 -24 14 -19 -2 -22 0 -13 9 14 14 1 46 -29 70 -16
12 -21 32 -25 96 l-6 81 69 -13 c38 -8 101 -21 139 -29z m752 22 c6 -7 19 -40
29 -73 10 -34 30 -72 46 -88 16 -16 26 -33 23 -37 -3 -5 0 -12 8 -17 7 -4 17
-32 23 -61 10 -47 8 -59 -9 -90 -18 -36 -19 -36 -14 -8 l5 30 -19 -25 c-11
-13 -17 -17 -13 -8 7 23 -11 32 -26 14 -16 -20 -40 -19 -40 1 0 9 -6 14 -12
11 -7 -2 -12 -11 -10 -21 2 -9 -2 -16 -8 -16 -6 0 -8 5 -5 10 3 6 -3 10 -14
10 -21 0 -34 37 -31 87 4 62 -1 113 -11 113 -12 0 -8 -175 5 -202 12 -25 -6
-22 -25 5 -11 15 -18 53 -21 116 -3 54 -2 88 3 80 7 -12 9 -11 10 1 3 32 -3
75 -11 80 -5 3 -5 21 -1 40 6 30 12 36 51 46 59 16 56 16 67 2z m180 1 c43 -6
94 -18 113 -26 l35 -16 -41 -9 c-50 -11 -121 -69 -141 -115 -11 -28 -16 -32
-27 -20 -7 7 -17 23 -20 35 -4 12 -13 22 -19 22 -7 0 -21 26 -31 58 -9 31 -20
63 -23 70 -6 15 47 16 154 1z m-337 -34 c-10 -12 -10 -15 0 -15 10 0 10 -3 0
-15 -10 -12 -10 -15 1 -15 9 -1 8 -5 -5 -15 -11 -8 -14 -15 -8 -15 20 0 13
-28 -10 -44 -21 -15 -21 -16 -3 -17 17 -1 17 -2 3 -6 -10 -2 -18 -9 -18 -14 0
-6 5 -7 10 -4 6 3 10 1 10 -4 0 -6 -12 -12 -27 -12 -24 -2 -25 -2 -5 -6 22 -4
33 -43 11 -43 -5 0 -7 -4 -4 -10 3 -5 2 -10 -3 -10 -16 0 -55 49 -56 72 -1 14
-9 24 -23 28 -12 3 -43 33 -68 67 -48 66 -51 73 -35 73 6 0 10 -5 10 -11 0
-16 36 -59 44 -52 3 4 -3 17 -15 29 -13 14 -17 24 -10 29 6 3 11 0 11 -8 0
-16 27 -30 41 -21 5 3 9 12 9 19 0 8 10 17 23 19 12 3 31 7 42 9 11 3 35 5 54
6 29 1 32 -1 21 -14z m-290 -81 c25 -33 62 -80 83 -104 20 -24 37 -52 37 -61
0 -10 5 -21 12 -25 7 -5 9 -2 4 7 -4 8 0 5 8 -5 9 -11 22 -23 28 -28 31 -19
-143 2 -220 27 -92 30 -110 48 -119 115 -5 36 -4 40 12 34 14 -6 16 -4 9 9 -5
9 -8 35 -6 57 l4 41 51 -3 c50 -3 53 -5 97 -64z m882 25 c99 -50 127 -182 59
-276 -30 -41 -72 -66 -129 -77 -31 -5 -32 -4 -21 16 9 16 13 18 20 7 6 -11 9
-8 9 8 0 17 -4 21 -17 16 -11 -4 -14 -3 -9 5 12 19 -21 14 -36 -5 -8 -12 -26
-18 -51 -18 -97 0 -151 165 -85 261 58 85 164 111 260 63z m-572 -99 c0 -5 -5
-10 -11 -10 -5 0 -7 5 -4 10 3 6 8 10 11 10 2 0 4 -4 4 -10z m-7 -27 c-7 -2
-13 -12 -13 -20 0 -9 -3 -14 -6 -10 -10 10 4 37 18 36 10 0 10 -2 1 -6z m7
-38 c0 -8 -8 -15 -17 -16 -16 0 -16 -1 1 -8 18 -7 18 -8 2 -14 -25 -10 -26 -9
-26 13 0 11 7 20 15 20 8 0 15 5 15 10 0 6 2 10 5 10 3 0 5 -7 5 -15z m-590
-11 c0 -2 -7 -4 -15 -4 -8 0 -15 4 -15 10 0 5 7 7 15 4 8 -4 15 -8 15 -10z
m236 -60 c44 -15 81 -28 82 -29 2 -2 -5 -8 -16 -14 -26 -14 -152 36 -152 60 0
12 -3 13 86 -17z m354 6 c0 -17 -2 -19 -14 -8 -10 9 -11 15 -2 20 16 11 16 10
16 -12z m-108 -64 c-55 -16 -87 14 -34 32 21 7 31 6 46 -7 17 -15 17 -16 -12
-25z m-79 12 c7 -25 1 -38 -18 -38 -13 0 -25 21 -25 46 0 23 37 16 43 -8z
m469 0 c-7 -7 -12 -8 -12 -2 0 6 3 14 7 17 3 4 9 5 12 2 2 -3 -1 -11 -7 -17z
m-522 -13 c0 -8 -10 -20 -22 -26 -13 -6 -33 -21 -45 -32 -20 -18 -23 -18 -29
-4 -8 21 1 35 40 58 37 23 56 24 56 4z m466 -25 c8 0 14 -4 14 -9 0 -5 -11 -8
-24 -7 -13 0 -22 4 -20 8 2 4 -5 10 -17 13 -16 5 -18 9 -9 15 8 5 19 2 27 -6
8 -8 21 -14 29 -14z m84 21 c0 -5 16 -19 36 -31 38 -24 39 -36 2 -26 -32 9
-71 43 -63 56 8 12 25 13 25 1z m-160 -26 c9 -10 9 -15 1 -15 -6 0 -11 4 -11
10 0 5 -7 6 -17 3 -11 -4 -14 -3 -9 5 10 16 21 15 36 -3z m316 -12 c-13 -51
-78 -78 -68 -28 2 14 9 25 14 25 6 0 8 -7 4 -15 -10 -28 13 -15 29 15 19 37
29 39 21 3z m139 -3 c-10 -11 -23 -20 -29 -20 -6 0 0 9 14 20 32 25 38 25 15
0z m-296 -14 c23 -28 101 -49 162 -43 33 3 59 3 59 1 0 -2 -16 -11 -36 -19
-55 -23 -138 -19 -218 10 -38 14 -71 25 -72 25 -2 0 -4 5 -4 10 0 6 11 10 24
10 14 0 28 5 31 10 9 14 41 12 54 -4z m171 -26 c0 -5 -5 -10 -11 -10 -5 0 -7
5 -4 10 3 6 8 10 11 10 2 0 4 -4 4 -10z m80 2 c0 -5 -13 -7 -30 -4 -16 2 -30
6 -30 8 0 2 14 4 30 4 17 0 30 -4 30 -8z m-429 -212 c18 -16 36 -27 41 -24 17
11 55 -25 87 -80 45 -81 42 -114 -25 -260 -90 -194 -104 -233 -104 -288 0 -35
-17 -40 -61 -16 -36 20 -36 21 -26 60 7 30 6 56 -8 113 -22 96 -15 135 35 189
l39 41 31 -17 c38 -21 40 -4 2 20 -38 23 -181 132 -187 142 -4 7 26 2 84 -16
23 -7 24 -5 18 28 -5 32 -3 35 29 47 39 14 41 21 14 46 -21 19 -27 45 -10 45
6 0 24 -13 41 -30z m-591 -110 c1 -38 40 -82 40 -45 0 8 8 15 18 15 9 0 26 14
37 30 20 30 39 41 29 17 -2 -7 2 -30 11 -50 21 -50 60 -52 95 -5 l24 32 7 -27
c4 -15 11 -66 15 -114 4 -49 8 -97 10 -108 1 -11 3 -32 3 -47 1 -16 11 -38 24
-50 31 -32 47 -108 40 -205 -4 -50 -1 -100 6 -129 12 -47 12 -50 -13 -71 -15
-12 -32 -20 -39 -17 -7 2 -19 33 -26 67 -7 34 -35 108 -62 163 -27 56 -53 119
-56 140 l-6 39 32 -29 c41 -39 40 -17 -1 25 -55 54 -202 333 -213 404 -6 39
-6 39 9 15 8 -14 16 -36 16 -50z m483 -90 l67 -52 -41 -37 c-38 -34 -42 -42
-47 -94 -3 -37 1 -74 12 -106 17 -54 21 -117 7 -125 -4 -3 -16 3 -25 13 -10
11 -30 25 -46 31 -20 8 -31 21 -35 43 -4 18 -21 54 -38 81 -25 40 -32 63 -38
135 -11 128 -11 139 4 121 15 -18 69 -23 79 -7 4 7 8 25 8 41 0 21 3 26 13 19
6 -6 42 -34 80 -63z m271 -182 c-4 -13 0 -18 15 -18 12 0 21 -7 21 -15 0 -19
0 -19 -39 1 -32 16 -32 16 -14 38 l18 21 -22 -19 c-28 -24 -30 -46 -3 -46 11
0 20 -4 20 -9 0 -5 -8 -7 -17 -5 -10 3 -27 -2 -38 -10 -20 -14 -19 -15 12 -46
18 -18 43 -33 57 -34 51 -3 48 -22 -10 -74 -31 -28 -65 -52 -75 -55 -29 -8
-23 -1 24 26 23 14 53 40 66 57 26 36 7 30 -22 -7 -19 -24 -87 -66 -124 -77
-20 -7 -22 -5 -16 31 7 45 30 107 80 214 35 75 38 78 55 62 11 -10 16 -24 12
-35z m100 17 c22 -33 20 -40 -11 -54 -21 -10 -28 -10 -31 -1 -3 7 -12 20 -22
30 -16 16 -16 18 9 33 34 21 36 21 55 -8z m-14 -85 c-20 -13 -37 -12 -46 1 -4
7 0 9 14 5 11 -4 23 -2 27 4 4 6 10 9 13 5 4 -3 0 -10 -8 -15z m-13 -36 c-3
-3 -12 -4 -19 -1 -8 3 -5 6 6 6 11 1 17 -2 13 -5z m-1072 -63 c-9 -16 -25 -3
-18 15 4 10 9 12 15 6 6 -6 7 -15 3 -21z m45 10 c0 -20 -13 -41 -21 -35 -15 9
-10 44 6 44 8 0 15 -4 15 -9z m-115 -31 c11 -5 48 -31 83 -59 34 -28 81 -56
103 -63 57 -17 134 1 201 46 29 20 59 36 66 36 9 0 12 6 8 15 -3 8 -1 15 4 15
10 0 90 -138 90 -155 0 -13 -19 -14 -297 -21 -152 -3 -233 -1 -233 5 0 13 -65
31 -111 31 -20 0 -53 -7 -72 -15 -41 -17 -257 -22 -257 -6 0 16 13 20 72 22
46 2 66 9 111 39 104 71 141 72 277 8 153 -72 150 -71 251 -60 70 9 103 18
150 44 33 18 54 34 46 36 -8 2 -32 -8 -52 -22 -49 -33 -102 -47 -184 -49 -60
-1 -75 4 -176 53 -98 47 -117 53 -177 54 -55 1 -71 -3 -95 -21 -52 -42 -102
-63 -163 -70 -50 -5 -60 -3 -60 9 0 10 14 18 41 22 43 7 117 45 156 79 48 43
145 55 218 27z m116 -23 c-10 -9 -11 -8 -5 6 3 10 9 15 12 12 3 -3 0 -11 -7
-18z m642 -15 c34 -30 18 -41 -23 -15 -22 15 -40 31 -40 35 0 12 41 -1 63 -20z
m-27 -34 c39 -30 45 -40 32 -55 -5 -7 -7 -25 -4 -39 7 -25 6 -26 -23 -21 -19
4 -31 2 -31 -4 0 -6 22 -9 57 -8 37 2 58 -1 61 -9 3 -9 -17 -12 -67 -12 l-71
0 0 31 c0 29 2 31 26 25 17 -5 23 -3 19 4 -3 5 -15 10 -26 10 -12 0 -19 7 -19
20 0 21 15 27 25 10 3 -5 13 -10 21 -10 21 0 7 19 -22 30 -14 6 -24 18 -24 30
0 26 10 25 46 -2z m154 -58 c14 0 21 -10 26 -35 5 -26 13 -37 30 -41 13 -3 24
-10 24 -15 0 -6 16 -19 35 -30 20 -12 40 -30 46 -41 11 -20 9 -20 -47 -16 -32
3 -60 10 -62 16 -2 7 -10 12 -18 12 -17 0 -19 17 -1 23 6 3 -3 8 -20 12 -18 4
-30 11 -27 16 3 5 0 9 -6 9 -6 0 -8 5 -4 12 5 7 3 8 -5 4 -8 -5 -14 0 -18 13
-3 12 -12 21 -20 21 -8 0 -12 4 -9 9 3 5 -1 11 -9 15 -15 5 -21 37 -8 49 3 4
22 -2 40 -13 19 -11 43 -20 53 -20z m-905 -45 l30 -15 -40 5 c-22 2 -60 5 -85
5 -35 1 -40 3 -25 10 31 13 87 11 120 -5z m1522 -11 c-3 -3 -12 -4 -19 -1 -8
3 -5 6 6 6 11 1 17 -2 13 -5z m-1307 -17 c141 1 175 -1 145 -9 -50 -12 -528
-3 -570 11 -21 7 10 8 105 3 74 -4 218 -6 320 -5z m370 -8 c0 -7 -22 -8 -67
-4 -91 10 -92 15 -5 15 45 0 72 -4 72 -11z m149 -111 c5 -13 5 -24 0 -26 -5
-2 -9 -10 -9 -17 0 -8 -5 -17 -12 -21 -7 -5 -8 -3 -3 6 5 9 4 11 -3 6 -7 -4
-12 -13 -12 -19 0 -7 -9 -19 -19 -27 -11 -7 -18 -17 -15 -21 2 -5 -8 -15 -24
-23 -36 -19 -161 -51 -168 -43 -12 11 45 83 75 94 17 6 31 7 31 2 0 -14 22
-10 42 8 19 17 25 63 7 63 -5 0 -7 -4 -4 -10 3 -5 1 -10 -5 -10 -6 0 -9 -4 -6
-9 3 -5 -3 -11 -13 -14 -17 -4 -18 -2 -9 24 7 21 16 29 34 29 13 0 24 -4 24
-10 0 -5 11 2 25 15 30 31 53 32 64 3z"/>
<path d="M1109 3666 c0 -6 -1 -31 -2 -55 -3 -64 -27 -67 -27 -3 0 43 -3 50
-22 56 -13 3 -27 1 -32 -4 -7 -7 -2 -10 12 -10 19 0 22 -5 22 -45 0 -41 -2
-45 -25 -45 -42 0 -28 -20 15 -21 22 -1 59 -2 82 -2 44 -2 66 19 26 25 -20 3
-23 9 -23 43 0 34 3 40 23 43 20 3 31 20 15 24 -31 6 -63 3 -64 -6z"/>
<path d="M239 2573 c-16 -53 -27 -64 -55 -57 -13 3 -32 3 -41 -1 -16 -5 -13
-10 16 -34 l34 -28 -16 -46 c-9 -26 -13 -47 -10 -47 3 0 21 11 39 25 18 14 37
25 41 25 5 0 24 -11 43 -25 19 -14 37 -25 41 -25 5 0 2 21 -6 48 -14 43 -14
48 3 59 60 42 60 42 10 43 l-46 0 -13 50 c-7 28 -16 50 -20 50 -4 0 -13 -17
-20 -37z m34 -55 c-7 -13 -33 -9 -33 5 0 6 3 23 7 37 l7 25 12 -30 c7 -17 10
-33 7 -37z m-72 -18 c4 0 6 -7 3 -15 -5 -11 -10 -12 -25 -2 -23 14 -25 32 -3
23 9 -3 20 -6 25 -6z m89 -18 c0 -37 -46 -56 -69 -28 -19 23 -2 46 35 46 26 0
34 -4 34 -18z m45 8 c-3 -5 -13 -10 -21 -10 -8 0 -14 5 -14 10 0 6 9 10 21 10
11 0 17 -4 14 -10z m-111 -59 c3 -4 -3 -16 -14 -26 -20 -18 -25 -11 -14 19 7
18 20 21 28 7z m86 -10 c15 -29 13 -32 -15 -19 -26 11 -30 19 -18 31 11 12 22
8 33 -12z"/>
<path d="M990 2586 c0 -2 9 -6 20 -9 11 -3 18 -1 14 4 -5 9 -34 13 -34 5z"/>
<path d="M993 2555 c0 -8 7 -15 15 -15 7 0 12 5 10 12 -6 18 -25 21 -25 3z"/>
<path d="M996 2461 c-3 -4 6 -13 21 -20 22 -10 25 -10 19 4 -3 9 -6 19 -6 21
0 8 -29 4 -34 -5z"/>
<path d="M1000 2430 c0 -5 5 -10 11 -10 5 0 7 5 4 10 -3 6 -8 10 -11 10 -2 0
-4 -4 -4 -10z"/>
<path d="M995 2170 c-8 -14 3 -30 21 -30 8 0 14 9 14 20 0 21 -24 28 -35 10z"/>
<path d="M1005 2110 c-4 -7 -3 -16 3 -22 14 -14 45 -2 40 15 -6 16 -34 21 -43
7z"/>
<path d="M1325 1740 c-3 -5 -1 -10 4 -10 6 0 11 5 11 10 0 6 -2 10 -4 10 -3 0
-8 -4 -11 -10z"/>
<path d="M1330 1670 c0 -5 5 -10 10 -10 6 0 10 5 10 10 0 6 -4 10 -10 10 -5 0
-10 -4 -10 -10z"/>
<path d="M1060 1890 c0 -13 7 -20 20 -20 13 0 20 7 20 20 0 13 -7 20 -20 20
-13 0 -20 -7 -20 -20z m25 0 c3 -5 1 -10 -4 -10 -6 0 -11 5 -11 10 0 6 2 10 4
10 3 0 8 -4 11 -10z"/>
<path d="M783 1843 c4 -6 2 -13 -4 -15 -6 -2 -2 -14 10 -29 11 -15 17 -30 13
-34 -4 -5 -1 -5 6 -1 10 6 10 11 1 22 -6 8 -8 14 -4 14 4 0 1 7 -6 17 -8 9
-12 18 -11 20 2 3 0 8 -4 11 -4 4 -4 2 -1 -5z"/>
<path d="M1694 1861 l-18 -50 -55 -3 -55 -3 41 -27 42 -27 -16 -41 c-9 -22
-13 -43 -10 -47 4 -3 25 7 47 22 l40 28 40 -31 c21 -18 42 -32 46 -32 6 0 3
25 -11 82 -6 23 -3 29 24 42 44 23 39 34 -16 38 -46 3 -47 4 -58 45 -5 23 -13
44 -16 48 -4 3 -15 -17 -25 -44z m36 -38 c0 -7 -7 -13 -15 -13 -15 0 -21 31
-8 43 8 8 23 -12 23 -30z m-70 -35 c0 -4 -7 -8 -15 -8 -8 0 -15 4 -15 8 0 5 7
9 15 9 8 0 15 -4 15 -9z m89 -12 c2 -11 -5 -25 -14 -32 -14 -11 -22 -10 -41 2
-20 13 -21 19 -11 35 16 26 60 22 66 -5z m53 8 c-22 -15 -42 -12 -42 7 0 5 15
9 32 9 32 0 32 0 10 -16z m-112 -65 c0 -4 -9 -13 -20 -19 -21 -11 -25 -4 -14
24 6 15 34 11 34 -5z m88 -24 c-3 -16 -5 -15 -28 4 -21 17 -23 22 -10 30 19
13 43 -9 38 -34z"/>
<path d="M1020 1645 c0 -8 5 -15 10 -15 6 0 10 7 10 15 0 8 -4 15 -10 15 -5 0
-10 -7 -10 -15z"/>
<path d="M310 672 c-19 -10 -48 -26 -65 -35 -16 -9 -36 -17 -42 -17 -7 0 -13
-4 -13 -10 0 -15 10 -13 84 25 91 45 130 45 221 0 77 -38 143 -56 131 -37 -4
7 -16 12 -26 12 -11 0 -50 16 -89 36 -86 45 -151 54 -201 26z"/>
<path d="M955 641 c-50 -18 -99 -44 -88 -48 6 -2 30 5 52 16 22 12 47 21 56
21 8 0 15 5 15 10 0 11 -6 11 -35 1z"/>
<path d="M1740 801 c-51 -16 -96 -45 -157 -102 -42 -39 -78 -62 -110 -72 -30
-9 -39 -15 -25 -16 39 -2 85 24 155 87 69 64 120 92 165 92 35 0 99 -33 147
-76 41 -36 113 -79 121 -71 3 2 -10 10 -27 17 -18 8 -57 36 -88 63 -74 66
-135 92 -181 78z"/>
<path d="M1695 733 c-16 -8 -50 -35 -75 -59 -25 -24 -62 -50 -84 -59 -21 -9
-36 -18 -33 -21 11 -11 85 30 127 70 50 49 98 76 132 76 37 -1 105 -36 124
-65 10 -15 38 -36 62 -46 63 -27 76 -23 16 5 -28 13 -53 30 -57 38 -3 8 -27
29 -53 46 -54 36 -109 42 -159 15z"/>
<path d="M1791 606 c2 -2 18 -6 34 -10 22 -5 26 -4 15 4 -14 9 -59 15 -49 6z"/>
<path d="M2028 603 c6 -2 18 -2 25 0 6 3 1 5 -13 5 -14 0 -19 -2 -12 -5z"/>
<path d="M1983 404 c-7 -3 -13 -16 -13 -29 0 -18 -7 -24 -35 -29 -40 -8 -47
-26 -10 -26 14 0 25 -4 25 -10 0 -5 -11 -10 -25 -10 -16 0 -25 -6 -25 -15 0
-10 10 -15 30 -15 17 0 30 -4 30 -10 0 -5 -16 -10 -36 -10 -35 0 -44 -18 -14
-28 7 -3 10 0 6 7 -5 7 2 11 18 11 23 0 26 -4 27 -37 1 -21 5 -51 10 -68 6
-23 7 -16 4 25 -5 63 0 76 35 83 l25 4 -27 2 c-25 1 -52 21 -29 21 6 0 8 7 5
15 -5 12 4 15 42 17 l49 1 -50 7 c-45 6 -47 7 -15 10 l35 3 -35 7 -35 7 35 3
35 2 -30 7 c-35 7 -43 44 -10 49 16 2 17 1 5 -7 -18 -13 -8 -24 14 -15 9 4 15
12 13 18 -4 12 -35 18 -54 10z m-30 -121 c-7 -2 -19 -2 -25 0 -7 3 -2 5 12 5
14 0 19 -2 13 -5z"/>
<path d="M2038 283 c33 -4 42 -17 20 -27 -7 -3 -4 -5 7 -3 11 1 20 9 20 17 0
11 -12 15 -40 16 -32 1 -34 1 -7 -3z"/>
</g>
</svg>
