<?xml version="1.0" standalone="no"?>
<!DOCTYPE svg PUBLIC "-//W3C//DTD SVG 20010904//EN"
 "http://www.w3.org/TR/2001/REC-SVG-20010904/DTD/svg10.dtd">
<svg version="1.0" xmlns="http://www.w3.org/2000/svg"
 width="221.000000pt" height="379.000000pt" viewBox="0 0 221.000000 379.000000"
 preserveAspectRatio="xMidYMid meet">
<metadata>
Created by potrace 1.16, written by Peter Selinger 2001-2019
</metadata>
<g transform="translate(0.000000,379.000000) scale(0.100000,-0.100000)"
fill="#000000" stroke="none">
<path d="M45 3778 c-5 -18 -16 -869 -20 -1643 -2 -357 -7 -984 -10 -1393 -5
-658 -3 -742 10 -742 9 0 15 10 16 25 1 14 2 31 3 38 1 6 -3 15 -9 19 -6 4 -2
13 10 22 11 9 14 16 8 16 -7 0 -13 4 -13 8 0 4 16 6 36 4 26 -3 35 -1 30 7 -4
6 -24 12 -44 13 -23 1 -12 4 28 7 l65 6 -45 12 -45 12 62 -3 c42 -3 66 0 73 9
13 16 -14 24 -80 25 -39 1 -42 3 -21 11 15 6 43 6 73 1 46 -9 78 1 41 12 -11
3 -8 4 7 3 27 -2 27 1 15 -108 -5 -47 -3 -57 11 -63 22 -9 30 0 15 18 -9 11
-8 17 4 29 8 9 12 22 9 30 -3 8 -1 18 5 22 6 3 11 17 11 31 0 13 5 24 11 24
15 0 5 -133 -10 -138 -20 -7 -12 -22 12 -22 32 0 46 29 53 110 5 51 11 70 21
70 8 0 12 4 8 9 -3 5 9 11 27 13 l33 4 -35 11 -35 12 40 0 c56 -1 65 2 30 11
-29 7 -29 8 6 5 19 -1 44 4 54 11 10 8 28 14 39 14 23 0 11 15 -19 24 -11 3
-1 3 22 1 23 -3 45 -1 48 5 3 5 20 10 36 10 18 0 28 4 24 10 -3 6 4 10 16 10
26 0 15 16 -16 23 -11 2 1 3 28 0 66 -5 59 12 -10 24 l-58 11 68 -5 c62 -5 67
-4 60 13 -5 14 -3 16 11 11 25 -10 44 4 20 15 -12 5 -2 7 28 3 40 -4 49 -1 62
17 17 24 17 25 38 -18 14 -29 14 -31 -11 -42 -14 -7 -36 -12 -50 -13 -15 -1 1
-7 34 -15 73 -16 95 -17 95 -4 0 6 -19 11 -42 11 -30 2 -35 3 -15 6 15 2 27 8
27 12 0 3 9 7 20 7 19 0 20 -7 20 -147 0 -109 3 -149 13 -152 6 -3 -9 -6 -35
-6 -50 -1 -69 -21 -20 -21 15 0 33 -4 41 -9 8 -5 27 -5 44 0 20 5 35 5 41 -1
7 -7 4 -10 -7 -10 -19 0 -21 -8 -7 -30 6 -10 10 -11 10 -3 0 10 23 12 93 8 74
-3 82 -3 44 5 -60 11 -72 20 -26 20 19 0 51 3 71 6 28 5 35 10 30 23 -5 14 -3
14 12 -2 10 -10 33 -17 56 -17 50 0 57 -12 29 -51 -30 -43 -12 -59 67 -60 64
-1 118 18 171 58 l33 25 0 -28 c0 -33 -9 -49 -30 -57 -8 -3 -1 -6 17 -6 37 -1
49 21 38 69 -5 23 -3 30 9 30 22 0 20 17 -1 23 -11 3 -7 5 10 6 28 1 37 15 15
24 -7 3 -3 6 10 6 13 1 22 -5 22 -13 0 -8 5 -16 12 -18 7 -3 8 -9 3 -19 -5 -8
-8 -22 -7 -31 3 -13 -4 -18 -23 -18 -34 0 -24 -16 15 -25 17 -4 30 -13 30 -21
0 -8 6 -14 13 -14 14 0 16 15 16 102 0 31 5 60 11 63 8 5 11 -18 8 -79 -2 -60
0 -86 8 -86 17 0 24 25 24 81 0 44 2 49 23 49 12 0 37 9 56 21 l34 20 -4 162
-4 162 115 1 115 0 -105 -6 -105 -6 104 -2 c106 -2 131 -17 41 -25 l-45 -4 53
-1 c70 -3 66 -22 -5 -24 l-58 -2 53 -3 c28 -2 52 -9 52 -14 0 -7 -32 -8 -92
-3 -51 3 -90 4 -87 0 6 -6 71 -14 139 -16 35 -1 40 -3 25 -10 -18 -8 -19 -9
-1 -9 12 -1 16 -6 13 -16 -4 -8 -2 -17 4 -21 6 -4 8 -63 3 -170 -6 -143 -4
-164 9 -164 13 0 15 74 15 628 1 345 3 1191 6 1880 3 689 3 1259 -1 1267 -4
13 -143 15 -1074 15 -847 0 -1070 -3 -1074 -12z m735 -7 c0 -5 -8 -11 -17 -15
-10 -3 -36 -17 -58 -31 -22 -14 -50 -25 -62 -25 -13 0 -23 -5 -23 -11 0 -12
-25 -35 -85 -78 -22 -16 -67 -54 -100 -85 -33 -31 -72 -66 -88 -77 l-27 -20 0
20 c0 12 -4 21 -10 21 -5 0 -10 -7 -10 -15 0 -9 -10 -20 -22 -24 l-23 -9 23
-9 c21 -8 20 -11 -33 -63 -54 -53 -54 -53 -64 -29 -8 20 -10 21 -16 7 -4 -9
-4 -21 -1 -26 10 -16 -22 -35 -49 -28 -21 5 -25 3 -25 -16 0 -13 4 -18 8 -13
9 13 52 17 52 5 0 -15 -49 -66 -50 -52 0 24 -20 1 -20 -23 0 -13 -4 -27 -10
-30 -6 -4 -10 44 -10 136 l0 142 31 -7 c17 -3 42 -6 55 -6 16 0 24 -6 24 -17
1 -17 1 -17 11 0 5 9 19 17 29 17 11 0 20 5 20 10 0 6 -24 10 -52 10 -73 0
-98 8 -98 32 0 10 -5 16 -10 13 -6 -4 -10 11 -10 37 0 31 3 39 10 28 5 -8 10
-10 10 -4 0 6 34 17 75 25 70 12 101 29 55 29 -11 0 -23 7 -26 15 -9 22 -24
18 -24 -5 0 -19 -8 -23 -74 -33 l-28 -5 6 46 c3 24 6 73 6 108 l0 64 355 0
c195 -1 355 -5 355 -9z m461 -16 c94 -32 269 -126 359 -194 101 -75 430 -405
508 -509 36 -49 62 -94 62 -108 0 -13 -2 -24 -4 -24 -2 0 -26 30 -52 68 -131
185 -446 502 -601 604 -38 25 -105 65 -149 88 -43 24 -83 46 -87 50 -4 4 -90
5 -190 3 -164 -4 -187 -6 -232 -27 -46 -21 -253 -159 -307 -205 -95 -79 -136
-117 -230 -209 -58 -57 -139 -144 -179 -193 -40 -49 -75 -87 -77 -84 -10 10
99 143 224 273 208 217 389 354 599 453 77 37 84 38 184 38 81 -1 118 -6 172
-24z m119 -1 c64 -36 171 -106 167 -111 -6 -5 -237 122 -237 130 0 10 35 0 70
-19z m317 11 c8 -23 -2 -28 -68 -33 -38 -3 -58 -8 -56 -16 2 -6 15 -10 28 -9
13 1 52 3 86 4 41 2 64 7 67 16 3 8 -2 13 -14 13 -11 0 -20 7 -20 15 0 14 9
18 45 18 155 0 255 -5 255 -11 0 -5 -12 -13 -27 -19 -24 -9 -18 -11 45 -12 40
-1 82 -6 93 -12 14 -7 24 -7 33 0 7 6 16 8 19 4 11 -10 8 -95 -3 -88 -5 3 -7
12 -3 20 3 8 0 15 -6 15 -6 0 -14 -13 -17 -30 -5 -20 -12 -30 -25 -30 -10 0
-21 -4 -24 -10 -4 -6 11 -10 39 -10 l45 0 3 -52 c2 -29 2 -93 0 -142 l-3 -88
-37 5 c-42 5 -86 -8 -77 -23 3 -5 21 -10 40 -10 19 0 37 -5 40 -10 5 -8 11 -7
21 1 12 10 14 2 13 -52 -1 -35 -4 -52 -6 -36 -6 36 -23 35 -23 -3 0 -18 -5
-30 -13 -30 -21 0 -128 126 -121 143 3 10 -4 18 -23 24 -15 6 -50 32 -76 59
-47 47 -48 48 -25 57 13 5 39 7 58 4 l36 -5 -3 75 c-2 72 -2 74 25 86 27 11
27 11 -13 14 -84 6 -105 13 -105 33 0 11 -4 20 -10 20 -5 0 -10 -7 -10 -15 0
-17 -30 -35 -59 -35 -12 0 -21 -4 -21 -10 0 -5 34 -9 80 -8 45 0 84 -2 87 -6
4 -3 7 -32 7 -64 l1 -57 -59 -9 c-69 -11 -91 -2 -175 75 -52 47 -54 50 -35 63
18 14 18 15 2 21 -10 4 -25 5 -33 1 -25 -9 -65 11 -65 34 0 11 -4 20 -10 20
-5 0 -10 -5 -10 -11 0 -10 -33 6 -75 37 -17 13 -18 16 -5 24 12 8 11 10 -7 10
-35 0 -53 11 -53 31 0 18 9 19 120 19 100 0 122 -3 127 -15z m-862 -33 c-39
-20 -84 -46 -100 -57 -17 -11 -37 -24 -46 -30 -108 -67 -319 -255 -448 -399
-65 -74 -127 -145 -136 -160 -20 -29 -38 -35 -28 -8 6 16 39 59 156 200 60 73
215 218 333 311 81 63 290 181 322 181 9 0 -15 -17 -53 -38z m1355 28 c0 -11
-23 -14 -90 -10 -79 4 -69 20 13 20 45 0 77 -4 77 -10z m-896 -55 c15 -8 33
-15 40 -15 19 0 224 -136 299 -198 144 -121 400 -385 459 -475 16 -23 44 -64
63 -91 34 -47 35 -51 35 -140 l0 -91 -39 65 c-36 60 -79 114 -228 292 -66 78
-312 316 -428 412 -44 37 -110 86 -147 108 -38 22 -68 44 -68 49 0 5 -20 9
-45 9 l-45 0 0 39 c0 42 -2 40 65 49 6 1 23 -5 39 -13z m-238 -29 c3 -19 3
-39 -1 -45 -3 -6 -30 -11 -60 -11 -57 0 -69 -6 -235 -122 -179 -126 -502 -442
-668 -654 l-22 -29 2 75 3 76 69 89 c111 145 385 405 523 497 26 17 50 35 53
38 6 6 130 80 175 104 17 9 56 15 92 16 l62 0 7 -34z m54 -6 c0 -22 -4 -40
-10 -40 -5 0 -10 18 -10 40 0 22 5 40 10 40 6 0 10 -18 10 -40z m50 0 c0 -22
-4 -40 -10 -40 -5 0 -10 18 -10 40 0 22 5 40 10 40 6 0 10 -18 10 -40z m580
-164 c107 -86 360 -343 410 -415 62 -93 43 -94 -24 -2 -65 90 -290 319 -405
415 -41 33 -88 74 -105 90 l-31 29 40 -29 c22 -15 74 -55 115 -88z m-425 65
c82 -47 178 -124 320 -261 271 -259 458 -478 529 -618 38 -76 31 -97 -9 -27
-20 33 -58 92 -86 130 -28 39 -65 93 -83 120 -72 110 -363 396 -541 531 -62
48 -233 146 -245 142 -7 -2 40 -34 103 -72 142 -85 289 -207 477 -396 121
-120 163 -170 247 -295 122 -182 163 -254 163 -286 0 -17 -14 -1 -50 60 -28
46 -50 85 -50 87 0 7 -69 106 -146 209 -104 139 -348 376 -506 490 -86 63
-212 145 -261 170 l-54 29 -59 -24 c-249 -100 -664 -463 -854 -745 -93 -139
-126 -185 -132 -185 -21 0 -4 53 33 106 46 65 130 176 139 184 3 3 31 37 62
76 65 82 283 290 378 361 209 157 238 177 293 203 26 12 46 24 43 27 -8 9
-111 -43 -187 -95 -106 -72 -179 -129 -293 -234 -225 -206 -296 -287 -453
-517 l-23 -34 0 35 c0 63 158 263 346 438 215 201 339 300 489 391 43 26 108
34 265 34 78 0 90 -3 145 -34z m-130 -43 c6 -6 -5 -3 -24 7 -36 18 -55 17
-116 -10 -50 -22 -41 -11 16 19 40 20 47 21 79 9 19 -8 40 -19 45 -25z m-32
-12 c9 -7 17 -17 17 -22 0 -6 13 -17 29 -27 29 -17 152 -106 161 -117 3 -3 22
-19 43 -34 100 -76 286 -381 313 -514 l6 -28 -119 -37 c-203 -63 -314 -80
-513 -80 -123 0 -203 5 -270 17 -113 21 -256 61 -286 81 -21 14 -22 17 -9 62
17 63 69 176 130 288 40 72 70 111 154 193 58 56 128 116 156 133 l50 30 -52
-48 c-71 -65 -93 -106 -93 -170 0 -67 7 -83 37 -83 13 0 22 4 18 9 -3 5 -1 12
5 16 5 3 10 24 10 46 0 92 79 169 174 169 70 0 133 -36 162 -93 19 -35 34
-117 23 -117 -5 0 -9 -4 -9 -10 0 -5 9 -10 20 -10 40 0 49 76 17 155 -18 46
-75 97 -150 135 -72 35 -67 35 -141 5 -14 -6 -17 -5 -12 3 4 7 4 12 0 12 -10
0 -113 -60 -119 -70 -3 -4 -33 -31 -67 -60 -62 -51 -61 -51 14 24 43 42 75 76
71 76 -8 0 -106 -84 -163 -140 -90 -89 -206 -279 -248 -407 -11 -34 -25 -69
-30 -80 -5 -10 -12 -34 -16 -53 l-6 -35 70 -24 c39 -14 73 -28 76 -33 3 -4
-30 5 -73 21 -95 35 -96 39 -54 172 84 262 261 491 474 613 54 32 64 28 11 -4
-61 -38 -30 -32 51 10 81 42 109 48 138 26z m87 -22 c0 -2 -9 0 -20 6 -11 6
-20 13 -20 16 0 2 9 0 20 -6 11 -6 20 -13 20 -16z m125 -79 c79 -59 172 -157
225 -235 79 -118 210 -383 210 -425 0 -13 -184 -87 -270 -109 -63 -16 -184
-31 -135 -17 17 5 64 16 105 26 78 18 258 81 274 96 34 31 -169 425 -268 518
-20 19 -36 30 -36 25 0 -6 12 -21 26 -35 41 -37 166 -235 202 -319 33 -79 62
-157 62 -170 0 -13 -192 -81 -300 -107 -94 -21 -375 -46 -360 -31 3 3 52 8
110 11 124 8 230 27 360 66 143 43 174 57 165 78 -4 10 -18 50 -32 88 -35 98
-50 129 -106 220 -74 119 -148 206 -237 276 -44 34 -80 64 -80 66 0 7 64 -39
122 -89 54 -46 76 -59 63 -38 -7 11 -126 114 -165 143 -25 18 -25 18 5 1 17
-9 44 -27 60 -39z m-595 -128 c0 -2 -10 -12 -22 -23 l-23 -19 19 23 c18 21 26
27 26 19z m-88 -109 c-10 -18 -35 -61 -56 -94 -33 -57 -74 -142 -90 -188 -4
-10 -9 -17 -11 -14 -12 12 61 168 122 261 46 69 70 93 35 35z m1508 -75 c-1
-27 -1 -27 -15 -9 -19 25 -19 36 0 36 10 0 15 -10 15 -27z m-1688 -329 c-3
-22 -8 -32 -14 -26 -5 5 -5 19 1 35 14 37 18 34 13 -9z m1484 -212 c103 -114
161 -187 188 -239 25 -49 12 -40 -19 12 -36 63 -160 209 -226 269 -62 56 -128
106 -141 106 -19 0 -5 -16 33 -40 121 -75 379 -390 367 -448 -3 -12 -9 -8 -22
18 -27 51 -132 197 -187 257 -65 73 -174 163 -196 163 -52 0 -253 -152 -334
-253 -117 -145 -221 -375 -254 -559 l-17 -98 -47 0 -46 0 -21 88 c-31 127 -83
252 -184 437 -73 134 -189 273 -299 356 -35 27 -62 49 -59 49 2 0 27 -7 54
-15 284 -83 514 -104 771 -70 165 21 239 41 387 104 l70 29 43 -29 c23 -16 86
-78 139 -137z m-1391 148 c13 -6 15 -9 5 -9 -8 0 -22 4 -30 9 -18 12 -2 12 25
0z m-125 -6 c0 -3 -14 -10 -31 -16 -47 -16 -217 -154 -294 -238 -37 -41 -72
-76 -76 -78 -45 -17 107 151 200 222 125 95 157 116 178 116 13 0 23 -2 23 -6z
m195 -14 c13 -5 14 -9 5 -9 -8 0 -24 4 -35 9 -13 5 -14 9 -5 9 8 0 24 -4 35
-9z m-146 -36 c78 -45 146 -110 223 -211 90 -120 100 -136 177 -290 80 -159
158 -393 131 -393 -5 0 -14 19 -20 43 -46 181 -142 398 -243 545 -108 158
-263 302 -324 302 -41 0 -164 -90 -280 -205 -62 -61 -113 -108 -113 -104 0 3
39 47 86 97 98 105 266 234 313 241 2 1 25 -11 50 -25z m311 1 l65 -14 -56 5
c-32 3 -70 9 -85 14 -48 14 3 11 76 -5z m1068 -102 c126 -116 292 -356 292
-420 0 -24 -5 -19 -35 34 -137 247 -316 455 -378 439 -76 -19 -241 -160 -339
-291 -100 -133 -208 -404 -208 -521 0 -22 -5 -34 -14 -34 -8 0 -12 8 -10 23
30 186 56 268 136 417 47 89 181 280 196 280 4 0 25 16 47 36 86 76 190 138
212 125 8 -4 53 -44 101 -88z m-853 77 c13 -6 -7 -7 -55 -3 -41 3 -77 7 -79 9
-9 8 115 2 134 -6z m-501 -44 c74 -53 151 -140 234 -262 52 -77 81 -132 162
-309 22 -47 50 -127 50 -141 0 -11 -5 -12 -17 -6 -22 11 -60 6 -88 -12 -23
-15 -65 -94 -65 -122 0 -15 -2 -16 -9 -5 -5 8 -3 23 4 38 8 14 11 32 8 39 -3
8 -1 14 5 14 6 0 8 9 5 19 -6 25 46 54 90 49 29 -3 32 -1 29 24 -4 36 -51 147
-114 267 -99 189 -286 389 -379 408 -32 6 -68 -14 -168 -94 -72 -57 -175 -175
-204 -233 -21 -44 -22 -44 -25 -17 -5 39 33 91 139 197 95 95 222 188 258 189
13 1 51 -19 85 -43z m309 37 c-7 -2 -21 -2 -30 0 -10 3 -4 5 12 5 17 0 24 -2
18 -5z m65 -10 c-10 -2 -26 -2 -35 0 -10 3 -2 5 17 5 19 0 27 -2 18 -5z m415
0 c-7 -2 -19 -2 -25 0 -7 3 -2 5 12 5 14 0 19 -2 13 -5z m-360 -10 c-7 -2 -19
-2 -25 0 -7 3 -2 5 12 5 14 0 19 -2 13 -5z m245 0 c-38 -2 -98 -2 -135 0 -38
2 -7 3 67 3 74 0 105 -1 68 -3z m-967 -266 c-8 -8 -11 -7 -11 4 0 20 13 34 18
19 3 -7 -1 -17 -7 -23z m196 13 c20 0 22 -4 19 -32 -8 -62 -22 -86 -48 -81
-19 4 -26 -2 -36 -29 -18 -51 -92 -85 -92 -42 0 8 -7 14 -15 14 -18 0 -19 12
-3 28 6 6 8 15 4 19 -10 10 -75 -68 -76 -92 -2 -32 -35 -80 -57 -83 -18 -3
-19 3 -19 90 1 69 4 93 14 93 7 0 17 7 22 15 8 12 10 10 10 -9 0 -28 15 -18
23 14 3 15 5 13 6 -8 0 -15 7 -30 15 -33 18 -7 56 25 56 47 0 38 94 104 135
94 11 -3 30 -5 42 -5z m-230 -22 c-3 -8 -6 -5 -6 6 -1 11 2 17 5 13 3 -3 4
-12 1 -19z m283 -48 c0 -11 -4 -20 -10 -20 -5 0 -10 9 -10 20 0 11 5 20 10 20
6 0 10 -9 10 -20z m91 -53 c-10 -9 -11 -8 -5 6 3 10 9 15 12 12 3 -3 0 -11 -7
-18z m-75 -32 c8 -16 7 -24 -7 -37 -10 -10 -15 -26 -12 -38 6 -23 6 -23 -34
-10 -33 12 -64 61 -43 68 7 3 20 12 29 21 22 22 54 20 67 -4z m174 -29 c0 -2
-7 -7 -16 -10 -8 -3 -12 -2 -9 4 6 10 25 14 25 6z m-143 -28 c-3 -8 -6 -5 -6
6 -1 11 2 17 5 13 3 -3 4 -12 1 -19z m-147 -3 c0 -11 -10 -15 -37 -14 -28 1
-31 3 -13 6 14 3 29 9 35 14 12 12 15 11 15 -6z m197 -22 c-3 -10 -5 -4 -5 12
0 17 2 24 5 18 2 -7 2 -21 0 -30z m43 30 c0 -5 -5 -15 -10 -23 -8 -12 -10 -11
-10 8 0 12 5 22 10 22 6 0 10 -3 10 -7z m-363 -35 c-3 -8 -6 -5 -6 6 -1 11 2
17 5 13 3 -3 4 -12 1 -19z m103 -8 c-14 -4 -18 -9 -10 -10 8 -1 4 -5 -10 -9
-14 -4 -31 -5 -39 -3 -23 8 18 32 53 31 30 -1 30 -1 6 -9z m1208 -23 c22 -21
29 -37 14 -37 -5 0 -18 9 -30 20 -12 11 -28 20 -36 20 -17 0 -28 14 -19 24 10
10 45 -4 71 -27z m-139 20 c-2 -1 -13 -9 -24 -17 -19 -14 -19 -14 -6 3 7 9 18
17 24 17 6 0 8 -1 6 -3z m-971 -24 c12 -3 22 -10 22 -17 1 -6 24 -22 51 -36
64 -31 93 -55 83 -71 -4 -7 -3 -9 3 -6 6 4 13 0 17 -8 4 -11 -2 -15 -19 -15
-14 0 -35 -10 -47 -22 -13 -13 -26 -22 -30 -21 -5 2 -7 -2 -5 -9 1 -7 -5 -12
-13 -13 -8 0 -17 -11 -21 -25 l-7 -25 -1 27 c-1 19 10 36 41 62 40 34 40 36
16 36 -18 0 -32 -11 -50 -37 -27 -40 -44 -128 -28 -138 6 -3 10 -12 9 -18 0
-8 -2 -8 -5 -1 -5 12 -64 6 -64 -7 0 -5 9 -9 20 -9 24 0 25 -8 4 -38 -13 -20
-13 -22 0 -22 8 0 22 12 30 28 10 17 15 21 16 11 0 -9 -9 -27 -19 -41 -23 -28
-67 -31 -65 -4 1 11 -6 16 -25 16 -19 0 -22 3 -12 9 18 12 6 43 -15 39 -23 -4
-34 38 -32 129 1 40 -1 76 -5 79 -4 4 -19 2 -33 -5 -38 -17 -41 -6 -5 15 16
10 32 28 36 42 4 16 19 29 45 39 39 16 58 42 44 64 -5 9 0 10 17 5 13 -4 34
-10 47 -13z m315 10 c-7 -2 -19 -2 -25 0 -7 3 -2 5 12 5 14 0 19 -2 13 -5z
m1039 -28 c47 -30 69 -62 94 -145 17 -56 22 -400 15 -1200 -1 -140 1 -312 5
-382 l7 -127 -29 8 c-19 5 -27 13 -24 22 9 24 7 839 -2 839 -4 0 -8 -173 -8
-385 0 -370 -1 -385 -19 -395 -29 -15 -30 -13 -21 23 4 17 11 169 14 337 3
168 8 323 10 345 11 88 26 255 31 340 4 67 2 86 -6 78 -16 -16 -48 -461 -59
-803 -4 -151 -12 -293 -17 -315 l-8 -40 -52 3 c-62 4 -93 -4 -93 -24 0 -8 -4
-12 -10 -9 -5 3 -11 41 -11 83 -1 42 -3 69 -6 60 -2 -10 -10 -18 -17 -18 -21
0 -125 60 -154 90 -27 26 -82 128 -82 150 0 5 -9 14 -20 20 -11 6 -20 19 -20
29 0 10 -7 24 -15 31 -8 7 -15 19 -15 26 0 8 -4 14 -10 14 -15 0 -12 -22 10
-65 12 -23 20 -59 20 -87 0 -45 2 -48 28 -49 l27 -2 -27 -4 c-32 -5 -28 -32 6
-34 13 -1 7 -5 -14 -9 l-35 -7 35 -3 c26 -1 30 -4 15 -8 -11 -4 -21 -11 -22
-17 -1 -5 -5 -18 -8 -27 -5 -13 -2 -18 11 -19 11 0 14 -3 7 -6 -24 -9 -14 -30
12 -25 15 2 25 0 25 -7 0 -6 -15 -12 -32 -12 l-33 -2 35 -7 35 -7 -31 -2 c-31
-1 -33 -4 -25 -55 0 -4 12 -6 26 -4 14 3 25 1 25 -3 0 -5 -9 -9 -19 -9 -28 0
-37 -20 -9 -21 19 -1 18 -3 -7 -9 -28 -7 -29 -8 -5 -10 16 -1 19 -4 10 -7 -8
-3 -23 -15 -32 -27 -17 -20 -18 -21 -18 -1 -6 272 -13 443 -20 456 -5 9 -6 19
-3 23 3 3 1 6 -5 6 -7 0 -10 -24 -8 -70 3 -47 0 -70 -8 -70 -6 0 -4 -5 4 -10
10 -6 11 -10 3 -10 -20 0 -15 -40 5 -41 15 -1 15 -2 0 -6 -9 -2 -16 -13 -15
-24 1 -11 7 -17 14 -15 7 3 13 1 13 -4 0 -6 -8 -11 -17 -11 -17 -1 -17 -2 0
-6 9 -2 17 -9 17 -14 0 -5 -8 -10 -17 -10 -17 -1 -17 -2 0 -6 25 -6 21 -23 -5
-24 -22 -1 -22 -1 2 -9 24 -8 24 -8 3 -9 -13 -1 -23 -6 -23 -12 0 -6 8 -8 18
-5 14 5 14 4 -2 -9 -19 -15 -19 -15 5 -16 l24 0 -22 -9 c-13 -5 -23 -18 -23
-28 0 -11 -6 -25 -14 -31 -22 -18 -23 8 -10 194 7 94 13 226 14 295 2 108 4
119 12 80 5 -25 10 -51 10 -57 1 -7 5 -13 9 -13 13 0 16 24 6 65 -13 59 -9
377 7 475 8 47 14 75 15 63 2 -36 15 -27 31 20 11 30 21 43 37 45 12 2 27 10
33 18 7 8 21 14 31 14 15 0 19 7 19 33 0 17 7 43 15 57 8 14 20 37 28 52 7 15
32 44 55 64 44 37 49 67 6 39 -29 -19 -32 -5 -4 20 11 10 20 24 20 31 0 8 11
21 26 30 15 10 23 23 19 32 -4 12 1 14 30 9 45 -7 45 8 0 24 l-35 13 24 13
c18 9 27 26 35 63 19 90 13 116 -31 133 -24 9 -23 19 8 52 23 25 30 27 77 23
33 -3 69 -15 99 -33z m-1277 -13 c-3 -3 -11 0 -18 7 -9 10 -8 11 6 5 10 -3 15
-9 12 -12z m65 -2 c0 -11 -4 -20 -9 -20 -5 0 -7 9 -4 20 3 11 7 20 9 20 2 0 4
-9 4 -20z m32 -7 c-3 -16 -7 -22 -10 -15 -4 13 4 42 11 42 2 0 2 -12 -1 -27z
m829 13 c46 -19 73 -50 66 -76 -4 -16 -2 -20 9 -16 20 8 17 -7 -6 -32 -12 -12
-30 -22 -41 -22 -11 0 -18 -4 -15 -9 3 -4 17 -6 31 -3 28 5 35 -13 8 -21 -10
-2 -27 -8 -37 -13 -14 -5 -17 -4 -12 4 5 9 -5 10 -37 6 -57 -8 -79 11 -67 58
5 18 12 48 17 67 5 19 14 36 21 37 7 1 8 0 2 -3 -5 -2 -10 -11 -10 -19 0 -9 5
-12 12 -8 8 5 9 2 4 -12 -5 -10 -11 -28 -14 -39 -3 -11 -10 -23 -15 -26 -5 -4
-6 -15 -2 -25 4 -12 9 -14 12 -7 2 7 12 9 21 6 14 -6 15 -4 4 9 -10 13 -10 17
0 21 10 4 10 7 -1 15 -12 8 -11 14 7 37 22 28 20 51 -7 72 -14 11 -14 12 0 13
9 0 32 -6 50 -14z m-1321 -37 c0 -9 -7 -20 -16 -23 -13 -5 -15 -16 -12 -51 4
-28 2 -42 -4 -39 -6 4 -14 0 -19 -7 -13 -20 -12 7 1 31 11 20 -3 39 -15 20
-10 -16 -22 -12 -28 9 -3 12 1 22 10 25 8 3 11 10 8 16 -4 6 -11 8 -16 5 -5
-4 -9 0 -9 9 0 19 16 25 62 23 28 -2 38 -6 38 -18z m1503 -87 c-2 -67 -14 -92
-43 -92 -13 0 -17 6 -13 20 3 11 0 27 -7 35 -14 16 -5 51 15 58 8 4 11 14 8
27 -5 18 -2 21 18 18 23 -3 24 -7 22 -66z m-1363 50 c0 -5 -16 -16 -35 -25
-44 -21 -45 -15 -2 12 37 24 37 24 37 13z m441 -75 c-13 -13 -26 -3 -16 12 3
6 11 8 17 5 6 -4 6 -10 -1 -17z m-645 -27 c8 0 14 -6 14 -12 0 -7 3 -23 6 -35
5 -17 2 -23 -9 -23 -10 0 -13 6 -10 18 2 10 -3 24 -11 31 -9 8 -15 25 -15 40
2 23 2 24 6 4 2 -13 11 -23 19 -23z m696 22 c-20 -15 -22 -23 -16 -60 5 -33 3
-43 -10 -48 -9 -3 -22 -1 -30 5 -28 24 22 121 62 121 14 0 13 -4 -6 -18z
m-511 -13 c-13 -11 -26 -17 -29 -14 -7 6 29 34 43 34 6 0 -1 -9 -14 -20z m369
6 c10 -12 10 -15 0 -15 -9 0 -7 -8 5 -26 13 -21 16 -39 11 -79 -4 -37 -2 -57
9 -71 18 -24 18 -62 0 -94 -18 -32 -18 -41 0 -34 8 4 19 20 23 37 4 17 11 27
14 22 10 -18 -10 -52 -47 -80 -30 -23 -39 -26 -58 -17 -18 9 -19 11 -4 11 23
1 22 9 -4 30 -17 14 -22 31 -26 86 -2 38 -4 71 -5 74 0 3 0 28 1 54 2 72 21
47 21 -27 0 -46 4 -67 16 -77 14 -11 15 -9 10 22 -10 69 -17 179 -11 189 9 15
31 12 45 -5z m170 -14 c0 -5 -7 -11 -15 -15 -15 -5 -20 5 -8 17 9 10 23 9 23
-2z m-515 -11 c-3 -5 -16 -15 -28 -21 -21 -10 -21 -9 2 10 25 23 36 27 26 11z
m650 -6 c46 -18 34 -100 -20 -142 -32 -25 -57 -29 -49 -7 4 8 -1 17 -9 21 -28
10 -14 74 22 106 35 31 33 30 56 22z m387 -2 c-7 -5 -10 -16 -6 -25 3 -9 2
-17 -4 -17 -6 0 -12 6 -15 13 -7 19 4 37 22 37 12 0 13 -2 3 -8z m228 3 c0
-10 -59 -34 -64 -26 -4 5 6 14 21 19 33 12 43 14 43 7z m-870 -21 c0 -8 -4
-12 -10 -9 -5 3 -10 10 -10 16 0 5 5 9 10 9 6 0 10 -7 10 -16z m708 -15 c4
-24 3 -24 -12 -4 -19 24 -20 38 -3 33 6 -3 13 -15 15 -29z m40 3 c6 -18 -15
-14 -22 4 -4 10 -1 14 6 12 6 -2 14 -10 16 -16z m-1168 -22 c-33 -26 -48 -26
-25 0 10 11 25 20 34 20 12 0 9 -6 -9 -20z m267 -42 c-2 -13 -4 -5 -4 17 -1
22 1 32 4 23 2 -10 2 -28 0 -40z m-407 11 c0 -5 0 -12 0 -16 -1 -10 -39 -4
-63 9 -10 5 -15 12 -13 17 6 10 76 1 76 -10z m154 -14 c-23 -18 -34 -19 -34
-4 0 18 33 39 44 28 6 -5 3 -14 -10 -24z m438 18 c10 -9 18 -26 17 -37 0 -21
0 -21 -16 2 -19 28 -38 29 -23 1 6 -11 9 -28 7 -37 -5 -22 -27 29 -27 64 0 28
16 31 42 7z m311 -38 c42 -15 181 0 202 21 23 24 18 -6 -6 -35 -16 -20 -32
-26 -80 -29 -32 -2 -59 -9 -59 -14 0 -6 22 -9 55 -6 30 3 52 1 49 -4 -7 -12
-182 -10 -189 2 -4 6 8 10 27 11 l33 1 -40 12 c-43 12 -51 32 -31 71 10 20 11
20 14 -1 2 -12 13 -25 25 -29z m300 32 c7 -19 69 -47 102 -47 19 0 26 4 22 14
-4 9 3 16 17 18 16 3 22 0 22 -14 0 -10 -6 -18 -13 -18 -8 0 -13 -12 -13 -31
0 -27 2 -30 15 -19 9 8 15 8 15 2 0 -16 -57 -54 -96 -62 -26 -6 -34 -5 -34 6
0 8 -9 14 -20 14 -11 0 -20 3 -20 8 0 4 22 5 50 4 43 -3 50 -1 50 15 0 10 -5
25 -10 33 -8 12 -11 11 -17 -10 l-7 -25 -5 23 c-3 13 -10 23 -14 22 -4 0 -14
5 -21 12 -8 7 -23 20 -35 28 -11 8 -21 20 -21 27 0 17 26 17 33 0z m-1263 -36
c0 -6 -4 -13 -10 -16 -5 -3 -10 1 -10 9 0 9 5 16 10 16 6 0 10 -4 10 -9z m230
0 c0 -5 -7 -12 -16 -15 -24 -9 -28 -7 -14 9 14 17 30 20 30 6z m481 -66 c-2
-42 1 -55 11 -53 17 4 25 -179 8 -196 -7 -7 -10 3 -10 33 0 25 -4 40 -10 36
-5 -3 -10 -26 -10 -51 0 -28 4 -43 10 -39 6 4 10 -11 10 -39 0 -36 -3 -44 -15
-40 -12 5 -15 -4 -16 -47 -2 -49 -2 -51 -9 -19 l-7 35 -11 -25 c-6 -14 -12
-20 -13 -15 -1 6 -5 -8 -10 -30 -5 -25 -7 12 -5 103 1 78 -1 142 -5 142 -13 0
-20 -110 -19 -285 2 -236 -2 -310 -10 -175 l-6 105 -2 -117 c-1 -64 -5 -124
-9 -134 -4 -12 -3 -15 5 -10 7 4 12 3 12 -2 0 -6 -7 -12 -15 -16 -13 -5 -15
16 -15 152 0 101 4 152 10 142 5 -8 11 -12 14 -9 3 2 6 78 7 167 1 89 5 177 9
195 4 17 9 25 9 17 1 -12 5 -11 16 4 14 18 15 13 15 -57 0 -45 4 -77 10 -77 6
0 10 -5 10 -11 0 -5 -4 -7 -10 -4 -6 4 -10 -9 -9 -32 1 -38 1 -38 12 -10 6 15
14 27 19 27 4 0 8 16 8 35 0 19 -4 35 -10 35 -5 0 -10 25 -10 56 0 34 4 53 10
49 6 -4 10 10 10 35 0 28 -4 39 -11 34 -14 -8 -3 65 12 81 12 12 12 52 -1 60
-6 4 -7 11 -4 17 14 22 28 -14 25 -67z m-237 14 c-11 -18 -24 -8 -24 19 1 26
1 26 15 8 8 -10 12 -23 9 -27z m782 10 c19 -22 19 -22 -3 -10 -24 12 -39 31
-25 31 5 0 17 -10 28 -21z m-1256 -38 c0 -20 2 -21 15 -11 12 10 15 9 15 -5 0
-12 5 -15 16 -11 14 5 15 1 10 -21 -8 -34 -17 -556 -10 -528 9 32 22 39 18 9
-1 -15 -8 -30 -14 -34 -8 -5 -11 -69 -8 -230 1 -122 0 -210 -4 -194 -4 16 -11
146 -15 289 -4 143 -9 222 -11 175 -1 -47 1 -178 5 -293 6 -152 5 -207 -3
-207 -8 0 -12 36 -13 113 -1 61 -6 251 -12 420 -8 218 -8 320 -1 350 21 83 23
127 7 143 -8 9 -15 32 -15 52 0 28 3 33 10 22 5 -8 10 -26 10 -39z m71 12
c-10 -17 -10 -16 -11 3 0 23 13 41 18 25 2 -6 -1 -18 -7 -28z m69 -15 c8 -27
21 -42 46 -54 35 -17 45 -27 20 -22 -8 2 -36 -22 -62 -52 -36 -42 -46 -49 -41
-30 4 14 7 54 8 90 1 36 4 55 6 43 2 -13 9 -23 14 -23 11 0 2 41 -10 50 -4 3
-7 15 -7 27 0 29 11 18 26 -29z m96 37 c-10 -8 -23 -12 -28 -9 -14 9 2 24 25
24 21 -1 21 -1 3 -15z m986 -2 c18 -16 24 -33 11 -33 -10 1 -46 50 -37 50 4 0
16 -7 26 -17z m78 -13 c0 -5 -5 -10 -11 -10 -5 0 -7 5 -4 10 3 6 8 10 11 10 2
0 4 -4 4 -10z m-105 -20 c18 -20 15 -38 -4 -25 -15 9 -33 45 -23 45 5 0 17 -9
27 -20z m-755 0 c0 -5 -4 -10 -10 -10 -5 0 -10 -4 -10 -10 0 -5 11 -10 25 -10
14 0 25 -5 25 -10 0 -6 -12 -8 -27 -4 -22 4 -25 3 -13 -5 8 -6 23 -11 33 -11
14 0 17 -5 12 -20 -5 -15 2 -29 25 -50 31 -29 33 -34 40 -138 8 -126 7 -379
-3 -389 -4 -3 -7 5 -7 18 0 39 -36 154 -63 201 -14 23 -30 70 -36 103 -6 33
-13 78 -17 100 -4 22 -6 46 -5 53 1 7 -19 32 -44 54 -44 39 -45 41 -29 59 9
11 23 19 30 19 7 0 23 13 36 29 24 31 38 38 38 21z m-147 -12 c-13 -6 -23 -15
-23 -21 0 -5 -7 -3 -17 4 -15 13 -13 15 13 20 44 10 51 9 27 -3z m819 0 c-23
-9 -132 -8 -157 1 -11 4 23 7 77 7 54 -1 89 -4 80 -8z m9 -35 c-8 -15 -10 -15
-11 -2 0 17 10 32 18 25 2 -3 -1 -13 -7 -23z m-158 -125 c-1 -73 -5 -151 -9
-174 -3 -24 0 -61 9 -90 10 -34 12 -66 7 -104 -4 -30 -8 -253 -9 -494 -1 -242
-3 -442 -6 -444 -3 -3 -8 -3 -11 1 -8 8 -6 1410 2 1431 15 38 20 -2 17 -126z
m90 53 c-4 -49 -11 -83 -22 -95 -15 -17 -16 -16 -21 30 -3 27 -3 72 -2 100 3
47 5 51 27 46 23 -4 23 -6 18 -81z m353 80 c-8 -13 -71 -41 -92 -41 -9 0 -15
3 -12 6 4 4 82 36 106 43 2 1 1 -3 -2 -8z m-317 -48 c-2 -85 -17 -106 -18 -25
-1 42 3 72 9 72 6 0 10 -21 9 -47z m321 13 c0 -3 -4 -8 -10 -11 -5 -3 -10 -1
-10 4 0 6 5 11 10 11 6 0 10 -2 10 -4z m-423 -43 c-3 -10 -5 -4 -5 12 0 17 2
24 5 18 2 -7 2 -21 0 -30z m-327 23 c0 -3 -4 -8 -10 -11 -5 -3 -10 -1 -10 4 0
6 5 11 10 11 6 0 10 -2 10 -4z m710 -68 c0 -11 -7 -18 -20 -18 -23 0 -26 -10
-8 -28 9 -9 8 -15 -8 -27 -10 -8 -27 -15 -36 -15 -10 0 -27 -13 -39 -30 -12
-16 -26 -27 -30 -24 -8 5 -24 -41 -37 -110 -4 -22 -13 -41 -20 -44 -8 -2 -10
2 -5 13 6 16 4 16 -23 0 l-29 -17 28 26 c15 14 30 40 34 58 l6 33 -27 -19
c-15 -9 -30 -15 -33 -12 -3 3 11 15 31 27 20 11 36 24 36 29 0 4 -27 6 -60 3
l-60 -4 0 32 c0 52 37 105 89 127 l45 20 12 -21 c8 -17 8 -24 -2 -33 -8 -6
-18 -22 -23 -35 -10 -24 -10 -24 -10 5 -1 24 -3 27 -16 16 -8 -7 -21 -10 -30
-7 -16 7 -45 -28 -45 -54 0 -19 55 -30 87 -18 12 5 3 8 -27 10 -42 2 -42 3
-10 6 19 3 39 8 45 13 12 9 103 25 125 21 12 -2 13 0 2 10 -9 10 -19 11 -45 1
-78 -28 -88 -8 -19 37 36 24 41 30 21 26 -38 -9 -44 10 -14 41 21 21 29 24 35
13 7 -11 10 -10 15 3 6 15 10 13 36 -9 16 -15 29 -35 29 -45z m-1150 12 c0 -5
-5 -10 -11 -10 -6 0 -8 -8 -4 -19 3 -12 0 -21 -10 -25 -17 -6 -19 3 -5 38 9
25 30 36 30 16z m767 -27 c-3 -10 -5 -4 -5 12 0 17 2 24 5 18 2 -7 2 -21 0
-30z m-911 -61 c-12 -11 -15 5 -8 48 l7 45 3 -44 c2 -23 1 -46 -2 -49z m284
75 c0 -7 9 -29 20 -50 11 -21 20 -50 19 -65 -1 -15 2 -81 6 -147 7 -114 7
-121 -11 -121 -11 0 -29 -4 -40 -7 -23 -8 -49 20 -55 59 -4 20 1 24 27 24 14
0 14 -3 4 -15 -16 -20 -7 -29 20 -20 12 4 19 12 16 20 -3 8 0 16 7 18 7 3 1 9
-13 15 -24 10 -24 11 -2 11 31 1 28 19 -5 23 l-28 4 25 12 25 11 -25 8 -25 7
30 7 30 6 -25 11 c-24 10 -24 11 -2 11 23 1 32 21 10 21 -10 0 -9 3 1 9 11 7
10 11 -5 20 -12 6 -14 11 -5 11 8 0 11 6 7 17 -4 9 -9 32 -12 52 -3 20 -7 42
-9 49 -2 6 0 12 5 12 6 0 10 -6 10 -13z m-209 -20 c-6 -8 -9 -17 -6 -21 3 -3
0 -2 -6 3 -12 10 -4 31 13 31 7 0 7 -4 -1 -13z m439 -23 c0 -8 -5 -12 -10 -9
-6 4 -8 11 -5 16 9 14 15 11 15 -7z m477 -27 c-7 -13 -31 -44 -54 -68 -35 -36
-41 -40 -36 -20 6 22 82 111 96 111 3 0 0 -11 -6 -23z m-870 7 c-3 -3 -12 -4
-19 -1 -8 3 -5 6 6 6 11 1 17 -2 13 -5z m-87 -24 c0 -5 -4 -10 -10 -10 -5 0
-10 5 -10 10 0 6 5 10 10 10 6 0 10 -4 10 -10z m471 -102 c-3 -140 -11 -138
-11 2 0 62 3 111 6 107 4 -3 6 -52 5 -109z m-381 92 c0 -5 -7 -10 -15 -10 -8
0 -15 -4 -15 -10 0 -5 5 -10 12 -10 6 0 3 -7 -8 -15 -19 -14 -18 -14 4 -15 12
0 22 -4 22 -9 0 -5 -11 -8 -25 -8 -28 0 -32 17 -15 61 9 25 40 37 40 16z
m-128 -102 c1 -43 -1 -80 -5 -84 -4 -4 -7 32 -7 81 0 107 8 109 12 3z m972 34
c-7 -2 -20 -14 -28 -28 -15 -22 -15 -27 -1 -54 9 -17 12 -30 7 -30 -4 0 -13
14 -19 30 -6 17 -16 30 -21 30 -5 0 1 -26 13 -57 13 -31 22 -60 20 -63 -1 -3
3 -11 11 -18 12 -11 14 -9 14 13 0 15 4 24 10 20 6 -3 10 2 10 13 0 10 9 28
20 40 11 11 17 27 14 35 -3 8 -1 18 5 22 6 3 11 1 11 -6 0 -7 10 -9 26 -6 l25
4 -24 -26 c-59 -62 -92 -183 -77 -277 6 -32 10 -61 10 -63 0 -16 -37 34 -62
83 -28 56 -30 65 -24 131 5 52 2 83 -9 114 -18 53 -19 61 -1 61 7 0 26 19 42
41 27 40 29 41 34 18 4 -15 1 -25 -6 -27z m-734 -12 c0 -5 -7 -7 -15 -4 -8 4
-12 10 -9 15 6 11 24 2 24 -11z m827 0 c-14 -11 -30 -20 -35 -20 -6 0 -21 -14
-33 -31 -21 -30 -23 -31 -36 -13 -17 24 -17 30 7 54 16 16 28 19 55 14 23 -4
35 -2 35 5 0 6 7 11 16 11 12 0 10 -5 -9 -20z m-877 -20 c0 -5 -7 -7 -15 -4
-8 4 -15 8 -15 10 0 2 7 4 15 4 8 0 15 -4 15 -10z m-82 -7 c-15 -2 -29 -12
-31 -21 -3 -12 -5 -10 -6 6 -1 19 4 22 32 21 29 -2 29 -2 5 -6z m131 -35 c0
-38 -1 -40 -10 -19 -8 22 -4 61 7 61 2 0 4 -19 3 -42z m-49 8 c0 -9 -7 -12
-20 -9 -11 3 -20 9 -20 14 0 5 9 9 20 9 11 0 20 -6 20 -14z m-153 -28 c-3 -7
-5 -2 -5 12 0 14 2 19 5 13 2 -7 2 -19 0 -25z m610 0 c-3 -7 -5 -2 -5 12 0 14
2 19 5 13 2 -7 2 -19 0 -25z m-453 -14 c3 -9 6 -26 6 -39 0 -12 7 -28 15 -35
22 -18 18 -39 -7 -38 -13 1 -27 5 -33 9 -18 12 -108 21 -100 10 3 -6 1 -11 -5
-11 -6 0 -10 8 -8 18 4 19 68 31 68 12 0 -6 12 -10 28 -8 21 2 26 8 24 23 -2
11 -3 28 -3 38 0 9 -4 17 -10 17 -5 0 -9 5 -9 10 0 16 27 11 34 -6z m-80 -10
c27 -10 18 -21 -14 -16 -16 2 -30 8 -30 13 0 10 21 12 44 3z m506 -39 c0 -23
-4 -34 -12 -32 -10 1 -14 -24 -16 -98 -3 -150 -10 -148 -11 4 -1 114 1 132 14
127 10 -4 15 1 15 14 0 11 2 20 5 20 3 0 5 -16 5 -35z m421 -130 l-8 -80 -2
101 c0 55 2 104 7 108 11 12 13 -42 3 -129z m66 58 c-2 -16 -4 -3 -4 27 0 30
2 43 4 28 2 -16 2 -40 0 -55z m-692 19 c14 -45 10 -51 -21 -26 -10 8 -14 13
-7 10 6 -4 14 -2 18 4 4 6 -5 10 -19 10 -14 0 -26 5 -26 10 0 6 7 10 15 10 9
0 12 6 8 16 -4 11 -2 15 7 12 7 -2 19 -23 25 -46z m152 11 c-3 -10 -5 -4 -5
12 0 17 2 24 5 18 2 -7 2 -21 0 -30z m80 -55 c-3 -7 -5 -2 -5 12 0 14 2 19 5
13 2 -7 2 -19 0 -25z m-80 0 c-3 -8 -6 -5 -6 6 -1 11 2 17 5 13 3 -3 4 -12 1
-19z m-208 -7 c12 -22 5 -67 -33 -194 -14 -48 -26 -97 -26 -108 0 -16 -4 -19
-17 -14 -10 4 -28 10 -40 12 -18 4 -23 13 -25 42 -4 97 0 115 27 147 29 34 29
32 10 77 -8 20 -15 40 -15 44 0 4 25 9 55 11 45 2 56 -1 64 -17z m-135 -7 c12
-31 6 -88 -11 -107 -14 -14 -18 -38 -20 -96 -2 -94 -1 -91 -12 -91 -5 0 -15
16 -21 36 -9 28 -10 57 -1 129 7 51 9 104 5 119 -6 24 -4 26 24 26 18 0 32 -6
36 -16z m783 -51 c-2 -16 -4 -5 -4 22 0 28 2 40 4 28 2 -13 2 -35 0 -50z
m-390 25 c-3 -7 -5 -2 -5 12 0 14 2 19 5 13 2 -7 2 -19 0 -25z m-594 -10 c3
-10 1 -21 -5 -24 -7 -4 -9 -72 -7 -190 3 -117 0 -185 -6 -186 -10 -3 -24 319
-17 388 3 34 28 42 35 12z m421 -86 c-1 -1 -12 2 -25 7 -13 5 -18 10 -10 10 7
1 11 7 8 15 -3 7 0 19 6 26 9 10 7 11 -13 6 l-25 -7 25 15 c25 14 25 14 30
-27 3 -23 5 -43 4 -45z m188 -59 c8 -10 7 -12 -6 -7 -13 5 -16 19 -14 78 l2
71 3 -65 c2 -35 9 -70 15 -77z m-555 111 c-3 -3 -12 -4 -19 -1 -8 3 -5 6 6 6
11 1 17 -2 13 -5z m-28 -178 c0 -71 3 -131 6 -134 3 -3 5 50 5 117 0 84 3 120
11 116 6 -4 10 -26 9 -49 -1 -22 -1 -78 -1 -124 1 -79 2 -83 21 -77 11 3 20 2
20 -3 0 -10 -71 -25 -79 -16 -3 3 -7 78 -9 167 -2 111 0 157 7 147 6 -8 10
-73 10 -144z m868 107 c-3 -10 -5 -4 -5 12 0 17 2 24 5 18 2 -7 2 -21 0 -30z
m63 -400 c-1 -367 -5 -413 -30 -387 -5 5 -11 191 -15 414 l-7 405 26 -24 26
-25 0 -383z m-418 367 c3 -16 1 -30 -4 -30 -4 0 -8 14 -8 30 0 17 2 30 4 30 2
0 6 -13 8 -30z m-453 -99 c1 -27 8 -52 19 -64 9 -11 12 -17 5 -14 -7 5 -15 -2
-19 -15 l-8 -23 -7 25 c-4 14 -7 68 -7 120 0 76 2 87 9 55 4 -22 8 -60 8 -84z
m23 47 c2 -21 0 -38 -4 -38 -4 0 -7 24 -7 53 1 54 5 49 11 -15z m342 17 c1
-19 -2 -35 -6 -35 -5 0 -8 19 -8 42 0 49 13 44 14 -7z m536 -332 c0 -201 -2
-364 -5 -361 -3 2 -5 150 -6 329 0 389 0 399 6 399 3 0 5 -165 5 -367z m61
354 c-6 -8 -8 -17 -4 -20 3 -4 1 -7 -5 -7 -13 0 -16 22 -5 33 12 13 25 7 14
-6z m-660 -53 l-9 -39 -1 41 c-1 22 2 44 6 48 12 12 14 -8 4 -50z m-34 -26
c-2 -13 -4 -5 -4 17 -1 22 1 32 4 23 2 -10 2 -28 0 -40z m207 37 c-5 -11 1
-15 20 -15 27 0 35 14 14 24 -16 7 66 -1 155 -16 37 -6 67 -15 67 -19 0 -8
-226 -156 -417 -272 -9 -6 -11 -3 -7 7 7 19 -30 42 -83 51 -49 8 -62 29 -34
59 11 12 22 33 26 47 3 14 20 34 37 43 25 15 217 105 225 106 1 0 0 -7 -3 -15z
m480 -20 c-4 -9 0 -15 7 -15 12 0 12 -2 0 -9 -9 -6 -10 -11 -3 -15 12 -7 5
-36 -9 -36 -5 0 -9 20 -9 45 0 25 4 45 10 45 5 0 7 -7 4 -15z m-903 -70 c11
-4 16 -11 13 -17 -4 -6 -9 -6 -13 -1 -3 5 -14 12 -23 16 -12 4 -15 12 -11 24
7 17 8 17 11 1 2 -9 12 -20 23 -23z m756 3 c-3 -7 -5 -2 -5 12 0 14 2 19 5 13
2 -7 2 -19 0 -25z m-652 -17 c22 -11 34 -20 27 -20 -9 -1 -11 -8 -7 -21 8 -25
-3 -25 -35 0 -14 11 -31 20 -37 20 -7 0 -13 9 -13 20 0 25 14 25 65 1z m815
-17 c0 -2 -7 -4 -15 -4 -8 0 -15 4 -15 10 0 5 7 7 15 4 8 -4 15 -8 15 -10z
m-912 -26 c16 -16 15 -80 -1 -103 -16 -20 -33 -5 -23 20 7 18 -6 19 -22 3 -9
-9 -15 -9 -24 0 -9 9 -4 14 21 23 29 10 32 15 27 40 -6 31 2 37 22 17z m749
-250 c-1 -51 -3 -12 -3 87 0 99 2 141 3 93 2 -48 2 -129 0 -180z m157 230 c7
-5 4 -8 -6 -8 -12 0 -18 7 -17 23 0 15 2 17 6 7 3 -8 11 -18 17 -22z m-826 0
c7 -7 12 -30 12 -51 0 -29 4 -38 14 -34 7 3 24 -2 36 -10 17 -12 24 -13 30 -3
6 9 12 9 29 1 29 -16 19 -29 -27 -36 -20 -3 -61 -11 -90 -17 -32 -7 -56 -8
-61 -2 -12 12 19 164 33 164 7 0 17 -5 24 -12z m-168 -57 c0 -11 9 -23 20 -26
11 -3 20 -10 20 -14 0 -4 12 -13 26 -19 19 -9 24 -17 19 -31 -9 -31 27 -45 73
-30 20 7 47 13 59 15 12 1 36 5 55 9 46 10 29 -5 -62 -54 -79 -43 -105 -48
-173 -30 -23 5 -80 15 -127 22 -76 11 -85 14 -82 32 2 11 9 24 15 28 9 6 9 10
0 14 -7 2 -13 12 -13 21 0 12 25 27 78 49 92 38 92 38 92 14z m987 3 c-3 -3
-12 -4 -19 -1 -8 3 -5 6 6 6 11 1 17 -2 13 -5z m-307 -44 c0 -13 -5 -18 -15
-14 -11 5 -12 9 -2 20 16 18 17 17 17 -6z m310 16 c0 -2 -7 -6 -15 -10 -8 -3
-15 -1 -15 4 0 6 7 10 15 10 8 0 15 -2 15 -4z m906 -31 c-17 -13 -17 -14 10
-20 55 -13 48 -14 -60 -12 -87 2 -110 5 -114 17 -4 12 -2 13 9 3 7 -7 31 -12
54 -12 l40 2 -40 7 -40 7 53 2 c28 0 52 6 52 11 0 6 12 10 28 10 25 -1 26 -1
8 -15z m-903 -2 c-7 -2 -19 -2 -25 0 -7 3 -2 5 12 5 14 0 19 -2 13 -5z m-6
-29 c-3 -3 -12 -4 -19 -1 -8 3 -5 6 6 6 11 1 17 -2 13 -5z m-217 -30 c0 -14
-3 -15 -17 -3 -10 7 -20 15 -22 16 -2 2 5 3 17 3 14 0 22 -6 22 -16z m220 6
c0 -5 -8 -10 -17 -10 -15 0 -16 2 -3 10 19 12 20 12 20 0z m-5 -30 c-3 -5 -10
-10 -16 -10 -5 0 -9 5 -9 10 0 6 7 10 16 10 8 0 12 -4 9 -10z m250 -71 c-5
-14 4 -21 42 -34 l48 -15 -50 5 c-40 4 -46 3 -32 -6 10 -6 38 -9 63 -7 30 2
45 -1 49 -11 4 -11 -8 -12 -65 -9 -38 2 -70 0 -70 -4 0 -4 25 -8 55 -8 30 0
55 -4 55 -10 0 -5 -23 -10 -51 -10 -42 0 -48 -2 -37 -13 7 -8 31 -19 53 -25
l40 -11 -42 2 c-23 0 -45 -2 -49 -6 -4 -4 14 -7 39 -7 28 0 47 -5 47 -11 0 -7
-17 -10 -45 -7 -33 2 -44 0 -40 -9 2 -7 -1 -13 -7 -13 -7 0 -6 -5 2 -15 7 -8
26 -15 43 -15 17 0 27 -3 24 -7 -4 -3 -23 -6 -42 -5 -19 1 -35 -3 -35 -8 0 -6
10 -10 23 -11 12 0 16 -3 9 -6 -7 -3 -27 1 -43 7 l-30 13 3 158 3 158 23 -21
c14 -14 20 -28 17 -39z m-828 45 c-3 -3 -12 -4 -19 -1 -8 3 -5 6 6 6 11 1 17
-2 13 -5z m578 -4 c-3 -5 -10 -10 -16 -10 -5 0 -9 5 -9 10 0 6 7 10 16 10 8 0
12 -4 9 -10z m-1118 -47 c-3 -10 -5 -4 -5 12 0 17 2 24 5 18 2 -7 2 -21 0 -30z
m166 11 c32 -8 61 -14 63 -14 2 0 3 -12 3 -27 -1 -17 -3 -21 -6 -10 -5 20 -19
22 -26 5 -3 -7 -6 -2 -6 11 -1 15 -6 21 -15 18 -7 -3 -19 0 -25 6 -8 8 -11 5
-11 -11 0 -12 -5 -22 -11 -22 -6 0 -8 7 -5 15 6 17 -3 22 -44 27 -14 2 -30 7
-37 11 -8 5 -13 -2 -16 -20 -4 -26 -4 -26 -6 5 l-1 32 43 -6 c23 -3 68 -12
100 -20z m396 10 c10 -9 -66 -3 -79 6 -10 7 -1 8 30 4 25 -4 47 -8 49 -10z
m556 -4 c-3 -5 -10 -10 -16 -10 -5 0 -9 5 -9 10 0 6 7 10 16 10 8 0 12 -4 9
-10z m290 -28 c-3 -3 -11 0 -18 7 -9 10 -8 11 6 5 10 -3 15 -9 12 -12z m-1438
-79 c-3 -10 -5 -4 -5 12 0 17 2 24 5 18 2 -7 2 -21 0 -30z m1000 -10 c-3 -10
-5 -2 -5 17 0 19 2 27 5 18 2 -10 2 -26 0 -35z m143 27 c0 -11 -2 -20 -4 -20
-2 0 -6 9 -9 20 -3 11 -1 20 4 20 5 0 9 -9 9 -20z m-3 -83 c-4 -28 -2 -48 5
-55 9 -9 7 -12 -10 -12 -20 0 -22 5 -22 55 0 44 3 55 16 55 14 0 16 -7 11 -43z
m346 36 c-7 -2 -21 -2 -30 0 -10 3 -4 5 12 5 17 0 24 -2 18 -5z m224 -65 c-3
-7 -5 -2 -5 12 0 14 2 19 5 13 2 -7 2 -19 0 -25z m-381 -44 c-3 -8 -11 -14
-18 -14 -10 0 -10 2 0 9 7 4 12 12 11 17 -1 5 0 16 1 24 2 11 4 10 7 -3 3 -10
2 -25 -1 -33z m219 -13 c2 -11 0 -21 -6 -21 -5 0 -9 12 -9 27 0 30 9 27 15 -6z
m-368 5 c-15 -15 -82 -25 -93 -13 -4 4 -1 7 7 8 33 1 72 8 77 13 3 3 9 6 14 6
5 0 3 -6 -5 -14z m-97 -36 c0 -5 -2 -10 -4 -10 -3 0 -8 5 -11 10 -3 6 -1 10 4
10 6 0 11 -4 11 -10z m450 -20 c0 -5 -7 -10 -15 -10 -8 0 -15 5 -15 10 0 6 7
10 15 10 8 0 15 -4 15 -10z m-46 -16 c3 -8 2 -12 -4 -9 -6 3 -10 10 -10 16 0
14 7 11 14 -7z m-94 -1 c0 -14 -14 -29 -32 -36 -24 -9 -30 4 -11 25 16 18 43
25 43 11z m58 -18 c-3 -3 -9 2 -12 12 -6 14 -5 15 5 6 7 -7 10 -15 7 -18z"/>
<path d="M240 3715 c0 -11 -12 -15 -50 -15 -27 0 -50 -4 -50 -10 0 -12 4 -13
105 -10 79 2 136 20 62 20 -24 0 -40 5 -43 15 -4 8 -10 15 -15 15 -5 0 -9 -7
-9 -15z"/>
<path d="M510 3699 c0 -8 -18 -10 -55 -7 -52 4 -72 -3 -40 -16 21 -8 20 -74
-2 -98 -15 -17 -15 -18 9 -18 29 0 43 34 33 80 -6 26 -4 27 46 33 58 7 70 14
49 27 -20 13 -40 12 -40 -1z"/>
<path d="M290 3573 c0 -5 5 -15 11 -23 8 -11 12 -12 16 -2 2 6 16 12 29 12 13
0 24 5 24 10 0 6 -18 10 -40 10 -22 0 -40 -3 -40 -7z"/>
<path d="M1790 3725 c0 -16 67 -25 100 -13 20 7 22 11 10 18 -23 14 -110 10
-110 -5z"/>
<path d="M2088 3450 c-14 -9 -15 -50 0 -50 6 0 52 49 52 56 0 8 -35 4 -52 -6z"/>
<path d="M1041 3504 c-18 -8 -31 -17 -28 -20 3 -3 19 2 37 11 18 9 40 13 52 9
14 -4 18 -2 14 5 -9 14 -33 13 -75 -5z"/>
<path d="M1035 3360 c-40 -16 -95 -90 -72 -97 4 -2 26 -3 50 -3 42 0 43 1 60
49 9 27 17 51 17 55 0 8 -31 6 -55 -4z"/>
<path d="M1115 3338 c10 -46 22 -75 34 -82 16 -10 91 5 91 19 0 22 -41 65 -77
80 -50 21 -56 19 -48 -17z"/>
<path d="M1087 3303 c-2 -10 -8 -26 -12 -36 -7 -16 -4 -18 16 -15 19 2 23 8
21 28 -5 33 -18 46 -25 23z"/>
<path d="M739 3223 c-57 -63 -53 -73 20 -53 41 11 41 11 41 60 0 28 -2 50 -4
50 -2 0 -28 -26 -57 -57z"/>
<path d="M1380 3243 c0 -40 1 -41 38 -45 20 -3 39 -3 42 -1 2 2 -15 23 -38 46
l-42 42 0 -42z"/>
<path d="M994 3225 c25 -19 46 -19 46 0 0 10 -10 15 -32 15 -31 -1 -32 -1 -14
-15z"/>
<path d="M1062 3228 c-18 -18 -15 -36 7 -48 26 -13 33 -13 55 3 15 11 17 17 7
35 -13 24 -50 29 -69 10z"/>
<path d="M1155 3230 c-11 -18 26 -23 43 -6 15 15 14 16 -10 16 -15 0 -30 -5
-33 -10z"/>
<path d="M950 3208 c0 -13 10 -39 21 -58 l21 -34 14 24 c19 36 17 43 -21 68
l-35 22 0 -22z"/>
<path d="M1200 3203 c-14 -9 -26 -17 -28 -18 -5 -4 21 -65 28 -65 11 0 38 43
46 74 7 31 -9 34 -46 9z"/>
<path d="M1030 3155 c0 -17 2 -18 24 -9 18 7 12 24 -10 24 -8 0 -14 -7 -14
-15z"/>
<path d="M1126 3161 c-7 -10 22 -37 30 -28 9 8 -3 37 -15 37 -5 0 -12 -4 -15
-9z"/>
<path d="M739 3127 c-96 -46 -138 -95 -169 -194 -11 -37 -11 -45 4 -68 19 -29
42 -34 31 -7 -4 12 -3 14 5 6 6 -6 22 -9 36 -6 22 4 24 9 24 57 0 38 6 61 23
86 28 41 82 79 113 79 16 0 24 6 24 16 0 14 2 14 16 3 14 -11 15 -9 12 17 -3
25 -7 29 -38 31 -19 1 -56 -8 -81 -20z"/>
<path d="M914 3128 c21 -30 20 -37 -4 -31 -11 3 -20 10 -20 15 0 5 -4 6 -10 3
-19 -12 -10 -25 30 -41 42 -17 110 -86 111 -113 0 -9 7 1 16 22 23 57 101 65
125 12 12 -28 28 -33 28 -10 0 22 56 81 90 95 19 8 30 20 30 32 0 18 -2 18
-22 4 -34 -24 -44 -19 -18 9 16 17 19 25 9 25 -8 0 -26 -15 -41 -33 -72 -91
-222 -89 -283 4 -11 16 -28 29 -38 29 -17 0 -17 -2 -3 -22z"/>
<path d="M1330 3130 c0 -13 9 -22 28 -26 124 -27 182 -92 182 -201 0 -26 4
-33 20 -33 11 0 20 5 20 10 0 6 8 10 18 10 11 0 13 -3 5 -8 -20 -12 2 -35 26
-27 30 9 26 32 -19 122 -66 132 -120 173 -232 173 -41 0 -48 -3 -48 -20z"/>
<path d="M1046 3121 c-28 -19 -28 -19 -7 -31 26 -13 113 -10 118 5 4 12 -47
45 -69 45 -7 0 -26 -9 -42 -19z"/>
<path d="M1315 3062 c-31 -7 -68 -37 -88 -70 l-17 -31 46 -7 c25 -3 49 -3 53
2 13 14 40 103 33 107 -4 2 -16 1 -27 -1z"/>
<path d="M793 3049 c-45 -13 -86 -65 -78 -98 4 -14 7 -26 8 -26 1 -1 15 -6 30
-13 24 -10 28 -10 33 6 3 9 17 40 30 69 35 76 35 79 -23 62z"/>
<path d="M874 3022 c10 -54 16 -72 25 -72 5 0 6 -12 3 -26 -4 -20 -1 -25 9
-20 8 3 22 9 32 12 10 4 16 13 13 20 -3 9 2 14 14 14 24 0 25 8 3 40 -22 32
-41 47 -77 59 l-28 11 6 -38z"/>
<path d="M1380 3040 c0 -11 7 -36 14 -55 14 -33 18 -35 60 -35 59 0 60 18 7
71 -43 43 -81 52 -81 19z"/>
<path d="M837 2990 c-21 -42 -22 -40 8 -40 26 0 31 16 16 54 -7 18 -9 16 -24
-14z"/>
<path d="M1342 2991 c-11 -32 -7 -41 19 -41 15 0 16 5 9 31 -13 43 -16 45 -28
10z"/>
<path d="M1067 2983 c-12 -11 -8 -23 8 -23 8 0 15 7 15 15 0 16 -12 20 -23 8z"/>
<path d="M1110 2976 c0 -9 7 -16 16 -16 9 0 14 5 12 12 -6 18 -28 21 -28 4z"/>
<path d="M812 2928 c-18 -18 -14 -42 9 -56 17 -11 25 -11 45 3 13 8 24 19 24
23 -1 27 -58 50 -78 30z"/>
<path d="M1062 2928 c6 -18 28 -21 28 -4 0 9 -7 16 -16 16 -9 0 -14 -5 -12
-12z"/>
<path d="M1110 2918 c0 -20 1 -21 20 -3 11 10 20 20 20 22 0 1 -9 3 -20 3 -14
0 -20 -7 -20 -22z"/>
<path d="M1249 2920 c30 -26 51 -25 51 0 0 17 -7 20 -37 20 l-38 -1 24 -19z"/>
<path d="M1415 2930 c-4 -6 -1 -17 5 -25 10 -12 15 -12 36 3 13 9 24 20 24 25
0 11 -58 8 -65 -3z"/>
<path d="M953 2904 c-18 -14 -33 -32 -33 -39 0 -19 22 -65 31 -65 11 0 49 83
49 108 0 28 -8 28 -47 -4z"/>
<path d="M1314 2908 c-5 -16 -1 -27 16 -40 27 -22 31 -22 55 -5 13 10 16 21
11 40 -5 23 -12 27 -41 27 -26 0 -35 -5 -41 -22z"/>
<path d="M699 2887 c9 -39 29 -77 40 -77 9 0 31 45 31 63 0 13 -50 47 -68 47
-6 0 -7 -13 -3 -33z"/>
<path d="M1026 2880 c-17 -110 -146 -180 -249 -136 -30 12 -87 67 -101 98 -5
10 -7 10 -12 0 -3 -6 -10 -9 -16 -6 -11 7 -37 -25 -38 -47 0 -26 33 -49 101
-69 152 -46 246 -33 324 45 58 57 64 88 26 124 l-29 27 -6 -36z m-376 -75 c0
-8 -4 -15 -10 -15 -5 0 -10 7 -10 15 0 8 5 15 10 15 6 0 10 -7 10 -15z"/>
<path d="M1463 2892 c-25 -22 -30 -32 -26 -55 6 -32 19 -31 44 4 21 28 35 79
23 79 -5 -1 -23 -13 -41 -28z"/>
<path d="M1161 2896 c-7 -9 -20 -16 -28 -16 -11 0 -13 -7 -8 -27 20 -82 89
-141 176 -150 85 -8 289 55 289 91 0 19 -12 27 -25 16 -9 -8 -14 -2 -18 20 -8
38 -18 38 -38 -3 -19 -38 -68 -74 -115 -83 -93 -17 -195 48 -213 136 -6 29 -8
31 -20 16z"/>
<path d="M1210 2892 c0 -25 40 -86 50 -76 5 5 11 20 15 34 5 22 1 28 -29 43
-34 16 -36 16 -36 -1z"/>
<path d="M780 2850 c-15 -28 -7 -36 20 -17 17 12 18 16 6 26 -12 10 -17 8 -26
-9z"/>
<path d="M875 2849 c-4 -6 1 -16 11 -24 23 -16 28 -13 19 14 -7 23 -20 27 -30
10z"/>
<path d="M1290 2841 c-5 -11 -10 -22 -10 -25 0 -11 25 -6 43 9 18 13 18 14 -2
24 -16 9 -22 8 -31 -8z"/>
<path d="M1390 2846 c-9 -12 -7 -17 9 -26 18 -9 21 -8 21 9 0 26 -15 34 -30
17z"/>
<path d="M515 2809 c-8 -23 7 -39 37 -39 22 0 35 40 17 51 -24 15 -47 10 -54
-12z"/>
<path d="M802 2812 c-39 -19 -37 -33 6 -46 33 -9 102 0 102 14 0 8 -62 51 -71
49 -2 0 -19 -8 -37 -17z"/>
<path d="M1321 2808 c-38 -24 -27 -38 29 -38 33 0 70 14 60 22 -45 35 -56 36
-89 16z"/>
<path d="M1642 2821 c-23 -14 -10 -46 18 -43 30 3 30 3 23 30 -6 23 -19 27
-41 13z"/>
<path d="M1076 2745 c-15 -25 -31 -45 -37 -45 -6 0 -7 -4 -4 -10 3 -5 40 -10
81 -10 43 0 74 4 74 10 0 6 -3 10 -7 10 -5 0 -21 20 -38 45 -16 24 -33 45 -37
45 -3 0 -18 -20 -32 -45z"/>
<path d="M1670 2658 c-83 -47 -189 -132 -244 -196 -105 -121 -219 -332 -260
-480 -28 -98 -47 -222 -34 -222 4 0 8 3 9 8 17 182 106 412 231 594 84 123
160 190 348 306 55 34 12 26 -50 -10z"/>
<path d="M700 2596 c0 -4 31 -47 70 -96 113 -144 269 -446 310 -601 6 -21 14
-39 18 -39 4 0 16 33 26 73 20 79 139 324 212 439 26 40 76 106 112 146 35 40
62 75 60 78 -3 2 -39 -4 -79 -15 -266 -71 -447 -67 -711 15 -10 3 -18 3 -18 0z
m318 -76 c144 -10 246 -2 367 29 39 11 71 18 73 17 1 -2 -16 -22 -39 -46 -97
-102 -268 -421 -317 -590 -6 -22 -10 -27 -11 -15 -4 83 -196 469 -288 579 -29
35 -53 67 -53 69 0 3 30 -3 68 -14 37 -10 127 -24 200 -29z"/>
<path d="M840 2519 c0 -4 8 -14 18 -21 11 -7 24 -23 31 -35 7 -13 21 -23 34
-23 12 0 36 -9 52 -20 39 -26 55 -26 27 0 -12 12 -22 31 -22 44 0 13 -6 28
-12 34 -17 13 -128 31 -128 21z"/>
<path d="M1343 2519 c-19 -7 -54 -15 -85 -18 -4 -1 -10 -16 -14 -35 -3 -19
-13 -37 -21 -40 -11 -4 -13 -14 -8 -37 4 -18 2 -42 -5 -58 -35 -76 -35 -76
-73 -75 l-36 1 15 -36 c9 -20 18 -41 21 -48 3 -7 -2 -22 -11 -35 -13 -18 -16
-19 -16 -5 0 9 -4 17 -9 17 -15 0 -20 27 -12 58 11 38 3 49 -34 48 -27 -1 -30
2 -31 31 0 17 -6 38 -13 46 -7 9 -13 25 -14 36 -1 12 -8 21 -17 21 -9 0 -26 7
-38 16 -12 8 -22 13 -22 11 0 -4 20 -43 133 -257 25 -46 49 -86 54 -87 5 -2
24 34 42 79 45 112 127 242 205 326 33 35 27 56 -11 41z m-59 -104 c-11 -16
-25 -25 -43 -25 -14 0 -21 4 -15 8 6 4 13 15 17 25 4 10 17 17 32 17 25 0 25
-1 9 -25z"/>
<path d="M1016 2473 c13 -12 24 -29 24 -38 0 -21 13 -19 35 5 25 28 60 25 83
-7 l20 -27 15 37 c9 20 21 37 26 37 6 0 11 3 11 8 0 4 -53 7 -119 7 l-119 0
24 -22z"/>
<path d="M1070 2385 c-10 -13 -9 -15 9 -15 11 0 21 4 21 9 0 18 -18 21 -30 6z"/>
<path d="M1117 2394 c-11 -11 3 -24 25 -24 17 0 18 2 8 15 -13 16 -23 19 -33
9z"/>
<path d="M1067 2341 c-16 -6 -16 -9 8 -31 l25 -23 0 26 c0 30 -8 37 -33 28z"/>
<path d="M1121 2328 c-5 -13 -5 -24 1 -26 12 -5 38 18 38 34 0 23 -30 16 -39
-8z"/>
<path d="M330 1990 c0 -5 4 -10 9 -10 6 0 13 5 16 10 3 6 -1 10 -9 10 -9 0
-16 -4 -16 -10z"/>
<path d="M415 1790 c-16 -4 -25 -8 -18 -9 7 0 10 -8 7 -16 -6 -16 13 -20 31
-7 9 6 21 44 13 41 -2 -1 -16 -5 -33 -9z"/>
<path d="M339 1778 c-1 -2 -3 -13 -4 -25 -2 -23 18 -32 30 -13 3 6 -1 10 -9
10 -10 0 -13 6 -10 15 5 12 -2 23 -7 13z"/>
<path d="M405 1690 c3 -5 10 -10 16 -10 5 0 9 5 9 10 0 6 -7 10 -16 10 -8 0
-12 -4 -9 -10z"/>
<path d="M1800 1846 c-9 -26 5 -80 27 -104 7 -7 20 -38 29 -68 8 -30 17 -54
19 -54 7 0 -6 144 -16 174 -5 16 -9 40 -9 52 0 33 -37 33 -50 0z"/>
<path d="M1660 1825 c-23 -24 -23 -25 -3 -25 26 0 50 27 36 41 -6 6 -18 0 -33
-16z"/>
<path d="M1790 1740 c0 -5 5 -10 11 -10 5 0 7 5 4 10 -3 6 -8 10 -11 10 -2 0
-4 -4 -4 -10z"/>
<path d="M1704 1589 c-4 -7 -7 -84 -8 -171 0 -88 -2 -155 -4 -149 -8 24 -20 9
-25 -31 -12 -100 -48 -164 -107 -188 -16 -7 -27 -16 -24 -21 8 -14 60 18 93
58 18 22 35 59 42 90 7 30 15 56 18 58 13 7 -7 -153 -22 -176 -8 -13 -18 -35
-22 -49 -4 -14 -16 -37 -26 -52 -22 -30 -23 -38 -9 -38 6 0 22 24 35 53 l25
52 -1 -45 c0 -52 -13 -206 -28 -330 -20 -168 -22 -250 -6 -250 12 0 15 16 15
78 0 42 5 115 10 162 10 86 12 111 31 320 24 270 39 624 27 636 -3 3 -9 0 -14
-7z"/>
<path d="M1881 1584 c0 -11 3 -14 6 -6 3 7 2 16 -1 19 -3 4 -6 -2 -5 -13z"/>
<path d="M1325 1303 c-23 -54 -29 -83 -17 -83 6 0 17 19 25 43 8 23 18 50 22
60 4 10 3 17 -4 17 -6 0 -18 -17 -26 -37z"/>
<path d="M1359 1293 c-2 -39 1 -57 12 -67 5 -6 9 10 9 42 0 53 -19 75 -21 25z"/>
<path d="M1592 1256 c-11 -15 -24 -36 -27 -45 -7 -23 -47 -41 -89 -41 -28 0
-36 5 -46 30 -7 17 -16 30 -21 30 -13 0 -11 -17 6 -49 10 -21 24 -30 52 -34
48 -8 88 15 126 71 33 48 32 79 -1 38z"/>
<path d="M1280 1132 c0 -174 13 -363 24 -359 6 3 10 9 9 14 -1 5 -4 61 -7 124
l-5 114 10 -85 c12 -103 64 -326 90 -385 22 -49 103 -144 114 -133 4 4 -10 27
-32 52 -65 74 -120 243 -143 441 -7 67 -16 104 -27 112 -12 9 -14 30 -12 99 2
62 0 89 -9 92 -9 3 -12 -20 -12 -86z"/>
<path d="M1373 1188 c2 -7 14 -41 27 -75 23 -63 49 -89 35 -35 -12 47 -47 122
-57 122 -6 0 -8 -6 -5 -12z"/>
<path d="M1340 1128 c0 -15 12 -64 26 -110 22 -68 34 -91 70 -125 25 -24 49
-43 54 -43 20 0 9 18 -26 45 -41 31 -78 103 -95 185 -14 62 -29 88 -29 48z"/>
<path d="M1455 1051 c-3 -5 10 -21 28 -35 36 -28 47 -32 47 -17 0 14 -68 62
-75 52z"/>
<path d="M1530 420 c0 -8 51 -40 65 -40 16 0 1 22 -25 35 -34 18 -40 18 -40 5z"/>
<path d="M1462 1987 c-6 -7 -7 -18 -3 -26 7 -10 11 -10 22 2 8 7 20 12 27 9 7
-2 10 2 6 12 -7 19 -37 21 -52 3z"/>
<path d="M604 1657 c-8 -21 2 -35 16 -21 5 5 6 15 0 24 -8 12 -10 12 -16 -3z"/>
<path d="M570 1618 c0 -14 39 -43 47 -34 7 7 -6 25 -28 36 -14 8 -19 7 -19 -2z"/>
<path d="M1430 1670 c0 -11 5 -20 10 -20 6 0 10 9 10 20 0 11 -4 20 -10 20 -5
0 -10 -9 -10 -20z"/>
<path d="M766 1567 c-5 -15 -6 -31 -2 -34 11 -11 18 5 14 34 l-4 28 -8 -28z"/>
<path d="M76 1513 c-5 -80 -9 -203 -7 -260 1 -13 4 -23 9 -23 4 0 8 44 10 98
1 53 5 136 8 185 4 54 2 87 -4 87 -5 0 -12 -39 -16 -87z"/>
<path d="M180 1580 c0 -5 5 -10 10 -10 6 0 10 5 10 10 0 6 -4 10 -10 10 -5 0
-10 -4 -10 -10z"/>
<path d="M406 1571 c-4 -5 -2 -12 3 -15 5 -4 12 -2 15 3 4 5 2 12 -3 15 -5 4
-12 2 -15 -3z"/>
<path d="M495 1560 c3 -5 8 -10 11 -10 2 0 4 5 4 10 0 6 -5 10 -11 10 -5 0 -7
-4 -4 -10z"/>
<path d="M1394 1511 c21 -23 26 -26 26 -11 0 5 -10 15 -22 21 -23 12 -23 12
-4 -10z"/>
<path d="M1360 1475 c-16 -19 0 -19 26 0 16 12 16 14 3 15 -9 0 -22 -7 -29
-15z"/>
<path d="M1204 1455 c-10 -8 -14 -15 -8 -15 6 0 17 7 24 15 16 19 9 19 -16 0z"/>
<path d="M412 1129 c-13 -5 -21 -13 -18 -18 7 -10 56 9 56 22 0 9 -9 8 -38 -4z"/>
<path d="M1060 1121 c0 -6 4 -13 10 -16 6 -3 7 1 4 9 -7 18 -14 21 -14 7z"/>
<path d="M1070 1043 c0 -13 5 -23 10 -23 13 0 13 11 0 30 -8 12 -10 11 -10 -7z"/>
<path d="M1080 1001 c0 -5 5 -13 10 -16 6 -3 10 -2 10 4 0 5 -4 13 -10 16 -5
3 -10 2 -10 -4z"/>
<path d="M887 804 c-14 -14 -7 -24 18 -24 14 0 25 5 25 11 0 6 -6 9 -14 6 -8
-3 -16 -1 -18 4 -2 6 -7 7 -11 3z"/>
<path d="M297 463 c-12 -11 -8 -21 12 -28 22 -7 51 3 51 17 0 6 -7 7 -16 4 -9
-4 -22 -2 -29 4 -6 5 -15 7 -18 3z"/>
<path d="M840 476 c0 -2 9 -6 20 -9 11 -3 20 -1 20 4 0 5 -9 9 -20 9 -11 0
-20 -2 -20 -4z"/>
<path d="M780 460 c0 -5 9 -10 21 -10 11 0 17 5 14 10 -3 6 -13 10 -21 10 -8
0 -14 -4 -14 -10z"/>
<path d="M1968 443 c7 -3 16 -2 19 1 4 3 -2 6 -13 5 -11 0 -14 -3 -6 -6z"/>
<path d="M755 410 c3 -5 15 -10 26 -10 10 0 19 5 19 10 0 6 -12 10 -26 10 -14
0 -23 -4 -19 -10z"/>
<path d="M870 398 c0 -4 16 -8 35 -8 19 0 35 2 35 4 0 2 -16 6 -35 8 -19 2
-35 0 -35 -4z"/>
<path d="M928 373 c7 -3 16 -2 19 1 4 3 -2 6 -13 5 -11 0 -14 -3 -6 -6z"/>
<path d="M2030 335 c-5 -14 -16 -25 -25 -25 -8 0 -15 -4 -15 -10 0 -5 9 -10
20 -10 11 0 20 -4 20 -10 0 -5 -7 -10 -15 -10 -8 0 -15 -7 -15 -15 0 -9 9 -15
22 -15 20 0 20 -1 5 -18 -21 -23 -22 -42 -2 -42 12 0 15 -13 15 -55 0 -30 5
-55 10 -55 6 0 10 32 10 75 l0 75 50 0 c37 0 50 4 50 14 0 11 -15 16 -52 18
l-53 4 35 9 35 9 -35 7 c-33 6 -32 6 15 8 28 2 43 5 35 8 -8 2 -22 7 -30 10
-18 7 -26 10 -42 13 -7 1 -2 5 11 9 40 11 38 31 -3 31 -30 0 -38 -5 -46 -25z
m93 -102 c-13 -2 -33 -2 -45 0 -13 2 -3 4 22 4 25 0 35 -2 23 -4z"/>
<path d="M880 309 c0 -5 5 -7 10 -4 6 3 10 8 10 11 0 2 -4 4 -10 4 -5 0 -10
-5 -10 -11z"/>
<path d="M2072 201 c2 -7 7 -12 11 -12 12 1 9 15 -3 20 -7 2 -11 -2 -8 -8z"/>
<path d="M858 174 c12 -8 20 -20 17 -25 -4 -5 -1 -9 4 -9 6 0 11 5 11 10 0 6
15 10 33 10 23 0 34 5 34 15 0 12 -14 15 -61 15 -58 0 -59 -1 -38 -16z"/>
<path d="M855 100 c3 -5 8 -10 11 -10 2 0 4 5 4 10 0 6 -5 10 -11 10 -5 0 -7
-4 -4 -10z"/>
<path d="M360 90 c0 -5 5 -10 10 -10 6 0 10 5 10 10 0 6 -4 10 -10 10 -5 0
-10 -4 -10 -10z"/>
<path d="M423 93 c15 -2 39 -2 55 0 15 2 2 4 -28 4 -30 0 -43 -2 -27 -4z"/>
<path d="M155 79 c-14 -5 -16 -8 -5 -10 8 -1 -5 -5 -30 -9 -33 -5 -18 -7 55
-7 55 0 78 3 50 5 -35 3 -44 6 -31 11 20 8 20 8 0 13 -10 3 -28 1 -39 -3z"/>
<path d="M606 64 c-8 -20 -8 -24 2 -24 4 0 8 9 9 20 2 24 -3 26 -11 4z"/>
<path d="M515 60 c-3 -5 -1 -10 4 -10 6 0 11 5 11 10 0 6 -2 10 -4 10 -3 0 -8
-4 -11 -10z"/>
<path d="M900 60 c-8 -5 -11 -12 -7 -16 4 -4 13 -2 19 4 15 15 7 24 -12 12z"/>
<path d="M804 52 c-7 -4 -8 -15 -3 -27 7 -19 8 -19 8 3 1 13 5 20 11 17 6 -3
10 -1 10 4 0 13 -10 14 -26 3z"/>
<path d="M930 39 c0 -4 12 -10 28 -12 15 -2 -7 -5 -47 -6 -56 -1 -72 -4 -64
-12 8 -8 33 -9 75 -5 35 4 70 6 78 6 8 -1 43 -2 78 -4 34 -2 62 0 62 5 0 5
-30 10 -67 10 -38 1 -59 3 -48 6 47 11 33 21 -29 21 -36 -1 -66 -5 -66 -9z"/>
<path d="M1286 35 c-7 -18 -72 -21 -79 -2 -4 10 -6 10 -6 0 -1 -7 -8 -13 -16
-13 -8 0 -15 -4 -15 -10 0 -6 37 -10 91 -10 81 0 90 2 87 18 -2 9 -10 16 -17
14 -7 -1 -19 2 -26 8 -9 8 -14 6 -19 -5z"/>
<path d="M211 33 c-1 -6 -16 -14 -33 -16 -18 -2 37 -2 122 1 85 3 157 7 160 9
3 3 -50 3 -118 1 -75 -2 -124 1 -126 7 -3 6 -5 5 -5 -2z"/>
<path d="M550 21 c-68 -6 -64 -19 5 -17 22 1 77 3 123 4 47 1 82 6 82 12 0 11
-96 11 -210 1z"/>
<path d="M88 3 c7 -3 16 -2 19 1 4 3 -2 6 -13 5 -11 0 -14 -3 -6 -6z"/>
</g>
</svg>
