<?xml version="1.0" standalone="no"?>
<!DOCTYPE svg PUBLIC "-//W3C//DTD SVG 20010904//EN"
 "http://www.w3.org/TR/2001/REC-SVG-20010904/DTD/svg10.dtd">
<svg version="1.0" xmlns="http://www.w3.org/2000/svg"
 width="216.000000pt" height="372.000000pt" viewBox="0 0 216.000000 372.000000"
 preserveAspectRatio="xMidYMid meet">
<metadata>
Created by potrace 1.16, written by Peter Selinger 2001-2019
</metadata>
<g transform="translate(0.000000,372.000000) scale(0.100000,-0.100000)"
fill="#000000" stroke="none">
<path d="M511 3710 l-494 -5 -1 -1847 -1 -1847 505 -2 c899 -3 1593 0 1601 8
13 14 24 1094 24 2410 0 699 -2 1274 -5 1277 -9 8 -1066 12 -1629 6z m1612
-152 c7 -227 2 -2526 -5 -2533 -4 -4 -23 -2 -43 5 -30 10 -40 9 -61 -5 -35
-23 -54 -13 -54 30 0 48 -29 76 -67 66 -29 -8 -47 -51 -21 -51 10 0 10 -2 -1
-9 -9 -6 -14 -25 -13 -55 2 -35 -1 -46 -13 -46 -17 0 -20 35 -4 46 8 5 8 9 -1
14 -7 4 -11 34 -11 76 0 77 -24 154 -47 154 -12 0 -12 -2 -1 -16 12 -15 11
-16 -7 -10 -32 10 -59 -6 -60 -34 -1 -14 -2 -69 -3 -122 -1 -109 -15 -129 -26
-40 -8 65 -14 80 -26 61 -4 -7 -11 -10 -15 -6 -4 4 1 14 12 21 18 14 18 15
-11 26 -27 10 -32 9 -53 -16 -18 -20 -20 -29 -11 -35 10 -6 10 -11 0 -23 -11
-13 -10 -18 4 -32 21 -22 17 -78 -7 -82 -13 -3 -18 3 -18 20 0 16 -3 19 -9 10
-6 -11 -10 -8 -14 10 -7 28 1 89 14 102 5 6 9 16 9 23 0 17 -68 88 -92 96 -13
5 -18 17 -18 47 0 23 -5 51 -11 62 -8 15 -8 22 1 28 7 4 15 23 19 41 5 25 13
35 29 37 20 3 22 9 22 74 0 53 4 76 19 94 28 35 36 136 16 204 -9 30 -18 69
-19 85 -3 38 -50 131 -72 143 -9 5 -25 7 -35 5 -11 -3 -19 0 -19 5 0 25 -48
39 -163 50 l-69 7 21 24 c23 27 26 37 11 46 -5 3 -10 17 -10 30 0 13 -5 25
-12 27 -9 3 -8 16 5 49 22 57 22 59 -8 59 -25 0 -33 14 -15 25 16 10 51 83 55
115 5 44 -14 111 -42 149 -36 47 -122 85 -178 78 -65 -7 -116 -37 -152 -91
-54 -79 -44 -184 24 -257 l24 -26 -32 -7 c-28 -5 -31 -8 -24 -33 5 -16 8 -37
7 -48 -4 -75 -1 -97 12 -124 9 -17 25 -35 36 -41 27 -14 25 -30 -3 -30 -13 0
-32 -9 -42 -20 -10 -11 -31 -20 -46 -20 -24 0 -55 -21 -128 -86 -2 -2 -5 -23
-6 -46 -1 -24 -5 -52 -10 -62 -5 -11 -4 -37 2 -60 7 -26 8 -60 2 -95 -4 -30
-6 -73 -3 -95 16 -117 14 -129 -22 -162 -30 -28 -34 -38 -34 -82 0 -28 5 -54
10 -57 17 -11 11 -53 -8 -59 -25 -8 -56 -97 -47 -138 7 -33 7 -33 -10 -10 -27
37 -61 28 -56 -15 1 -6 -8 -14 -19 -18 -17 -5 -20 -14 -18 -58 l2 -52 3 48 c4
49 15 60 29 30 6 -13 9 -6 13 27 7 56 24 58 33 5 10 -59 13 -74 21 -81 4 -4 7
-18 7 -32 0 -21 -2 -22 -15 -12 -8 7 -15 19 -15 26 0 22 -13 16 -34 -15 -19
-27 -21 -28 -43 -14 -14 10 -23 25 -23 42 0 20 -2 23 -10 11 -15 -25 -23 -3
-29 81 -7 84 -15 99 -58 99 -22 0 -23 -4 -23 -84 0 -96 -18 -122 -35 -52 -9
34 -16 42 -38 44 -27 3 -27 3 -27 -57 0 -66 -14 -80 -29 -28 -9 31 -9 31 -10
5 -1 -25 -21 -52 -21 -29 0 6 -9 11 -20 11 -18 0 -20 7 -21 73 -2 102 3 126
20 98 5 -7 14 -12 21 -9 6 2 -1 15 -19 30 l-30 27 -7 -34 c-3 -19 -4 -41 -1
-49 3 -8 -1 -17 -10 -20 -13 -5 -13 -9 -2 -23 11 -13 11 -17 1 -20 -17 -6 -15
-29 4 -59 9 -13 13 -28 9 -32 -4 -4 -10 -1 -12 6 -6 16 -40 16 -47 0 -3 -7 -4
23 -3 67 2 69 4 80 20 79 23 -2 22 12 -2 19 -18 4 -19 41 -18 1298 0 712 2
1299 4 1304 2 7 362 11 1043 13 l1039 3 4 -133z m-1033 -920 c117 -60 130
-214 25 -294 -33 -25 -47 -29 -105 -29 -57 0 -71 4 -103 28 -48 37 -70 80 -70
142 -1 66 23 109 81 146 57 36 110 38 172 7z m86 -345 c-3 -10 -8 -30 -11 -44
l-6 -26 -132 -5 c-73 -3 -138 -7 -146 -9 -10 -3 -18 9 -24 34 -10 43 -11 42
20 51 19 6 25 2 33 -19 13 -34 53 -32 58 3 3 19 9 22 53 22 37 0 49 -4 49 -15
0 -10 10 -15 31 -15 23 0 30 4 26 14 -7 19 1 26 30 26 19 0 23 -4 19 -17z
m-66 -3 c0 -5 -4 -10 -10 -10 -5 0 -10 5 -10 10 0 6 5 10 10 10 6 0 10 -4 10
-10z m-155 -10 c3 -5 -3 -10 -14 -10 -12 0 -21 5 -21 10 0 6 6 10 14 10 8 0
18 -4 21 -10z m147 -89 c29 -2 9 -28 -22 -29 -36 -1 -50 -9 -50 -27 0 -13 7
-13 65 -6 6 1 3 6 -5 11 -13 9 -13 10 1 10 32 0 55 -59 29 -75 -5 -3 -10 -19
-10 -34 0 -19 -8 -34 -24 -45 -24 -15 -39 -15 -112 0 -31 6 -67 70 -59 105 4
16 11 32 17 35 7 5 8 2 3 -6 -6 -10 -1 -12 23 -7 22 4 32 3 32 -5 0 -9 3 -9
13 1 17 18 -18 43 -50 35 -35 -9 -28 14 10 30 28 12 55 13 139 7z m-39 -226
c19 -8 21 -14 8 -34 -6 -10 -13 -11 -29 -2 -15 8 -23 8 -27 0 -4 -5 -31 -21
-60 -35 -63 -30 -87 -54 -89 -88 -1 -33 -12 -33 -20 -2 -8 32 0 51 30 71 13 8
24 20 24 26 0 8 -5 7 -15 -1 -10 -8 -15 -9 -15 -1 0 11 65 56 103 71 23 9 61
7 90 -5z m44 -63 c-4 -2 -14 -1 -23 2 -13 5 -12 9 3 33 l18 27 5 -29 c3 -17 2
-32 -3 -33z m198 24 c17 -9 38 -16 48 -16 27 0 75 -37 92 -70 18 -34 20 -100
4 -100 -7 0 -9 12 -5 34 4 20 2 37 -4 41 -6 3 -10 -3 -10 -15 0 -23 -27 -70
-41 -70 -5 0 -2 12 8 27 l18 26 -26 -17 c-26 -16 -27 -16 -32 5 -4 13 -10 18
-18 13 -9 -5 -10 -2 -6 9 4 11 1 15 -13 12 -10 -2 -21 3 -24 12 -4 8 -13 13
-20 10 -15 -6 -30 19 -20 34 3 5 -4 9 -16 9 -14 0 -19 -4 -14 -12 5 -9 3 -9
-9 1 -9 7 -14 18 -10 25 4 6 -2 4 -12 -4 -17 -14 -18 -13 -12 9 4 17 3 21 -5
13 -11 -11 -48 19 -48 39 0 17 138 5 175 -15z m-221 -45 c3 -4 16 -6 29 -4 29
6 89 -43 114 -91 23 -45 25 -133 3 -149 -9 -6 -25 -27 -34 -45 -21 -40 -83
-72 -141 -72 -114 0 -209 109 -189 216 8 46 59 112 104 135 36 20 105 26 114
10z m-239 -165 c4 -82 3 -87 -18 -96 -12 -5 -16 -9 -9 -9 7 -1 10 -6 6 -12 -5
-9 1 -10 20 -5 18 4 25 3 21 -4 -3 -5 -15 -10 -25 -10 -31 0 -34 -20 -3 -21
15 0 22 -3 16 -6 -9 -3 -8 -11 4 -30 l16 -25 14 27 c16 29 39 29 36 -1 -1 -10
0 -13 3 -6 8 18 27 15 20 -4 -5 -14 -4 -15 9 -4 8 7 15 9 15 4 0 -5 30 -9 67
-9 65 0 68 -1 65 -23 -2 -13 -12 -32 -23 -43 -10 -10 -19 -23 -19 -29 0 -5 -5
-10 -11 -10 -6 0 -8 7 -5 15 16 41 15 47 -3 15 -21 -36 -29 -26 -10 13 10 21
10 21 -5 3 -9 -11 -16 -23 -16 -28 0 -14 -18 -9 -24 8 -3 8 -2 13 3 10 5 -3
11 0 14 7 3 8 -2 14 -10 14 -8 0 -19 -12 -24 -25 l-10 -25 -16 23 -16 23 -19
-24 -19 -24 6 30 5 30 -12 -27 c-14 -32 -33 -38 -25 -7 4 16 3 18 -8 9 -10 -8
-14 -7 -18 2 -4 8 -6 7 -6 -4 -1 -10 -5 -18 -11 -18 -5 0 -10 8 -10 18 0 10
-3 13 -8 6 -10 -16 -40 -13 -47 3 -3 8 0 24 7 36 11 21 10 21 -7 7 -17 -14
-18 -13 -12 3 3 9 2 17 -3 17 -6 0 -10 9 -10 21 0 13 -4 18 -12 13 -9 -6 -9
-3 0 9 15 18 7 61 -9 51 -13 -7 12 38 26 48 5 4 13 4 17 2 4 -3 8 14 8 37 0
36 6 49 37 81 20 21 38 36 40 34 2 -2 6 -43 8 -90z m485 -6 c0 -5 -4 -10 -9
-10 -6 0 -13 5 -16 10 -3 6 1 10 9 10 9 0 16 -4 16 -10z m91 -24 c-9 -10 -9
-16 -1 -21 8 -5 7 -11 -1 -22 -7 -8 -14 -24 -14 -36 -1 -11 -7 -23 -13 -25 -7
-2 -12 -10 -12 -19 0 -33 -25 -4 -28 33 -2 21 -7 43 -12 47 -4 5 -6 16 -3 26
3 13 12 16 32 13 17 -2 32 2 40 12 8 9 16 14 19 11 3 -2 -1 -11 -7 -19z m-110
-54 c1 -40 2 -43 8 -17 4 19 9 26 14 18 9 -14 3 -101 -8 -111 -4 -4 -25 -28
-48 -54 -34 -39 -47 -48 -74 -48 -41 0 -55 25 -26 45 14 10 22 30 26 70 5 54
19 85 38 85 5 0 4 -9 -3 -20 -17 -27 -2 -37 30 -20 24 14 26 20 23 64 -2 33 1
46 8 42 6 -4 12 -28 12 -54z m49 -102 c0 -5 -5 -10 -11 -10 -5 0 -7 5 -4 10 3
6 8 10 11 10 2 0 4 -4 4 -10z m-225 -50 c-10 -11 -20 -18 -23 -15 -7 6 18 35
31 35 5 0 2 -9 -8 -20z m15 -47 c0 -27 -3 -34 -11 -26 -7 7 -9 23 -5 37 9 37
16 32 16 -11z m-26 -19 c4 -11 1 -14 -11 -12 -9 2 -18 9 -21 16 -6 18 25 15
32 -4z m-69 -110 c19 -15 18 -16 -15 -9 -44 9 -63 25 -29 25 13 0 33 -8 44
-16z m-211 -45 c68 -49 168 -95 236 -110 28 -6 50 -15 50 -20 0 -5 7 -9 15 -9
11 0 15 -11 15 -42 0 -24 5 -50 10 -58 7 -11 10 -2 10 33 0 26 5 47 10 47 6 0
10 -48 11 -122 1 -68 3 -115 6 -105 7 28 28 14 28 -19 0 -28 -2 -29 -47 -32
-48 -3 -48 -3 -48 28 0 23 6 33 25 40 35 13 31 23 -5 15 -30 -7 -30 -6 -30 39
0 24 -4 47 -9 50 -13 9 -19 55 -8 59 16 5 0 37 -18 37 -18 0 -19 -11 -1 -77
10 -39 11 -53 3 -54 -8 0 -8 -2 -1 -5 17 -7 3 -64 -19 -76 -13 -6 -52 -8 -106
-5 l-86 6 55 -15 c58 -16 160 -11 160 7 0 6 4 8 9 5 11 -7 20 -52 12 -63 -10
-14 -55 -34 -76 -34 -52 0 -155 15 -155 22 0 17 -18 9 -22 -9 -4 -15 -12 -18
-36 -14 -17 2 -33 10 -36 18 -13 34 -28 239 -24 346 2 67 -1 113 -6 108 -5 -5
-7 -88 -4 -184 4 -189 5 -188 -47 -164 l-25 11 0 171 c0 216 0 216 55 216 33
0 54 -9 99 -41z m151 31 c3 -6 -1 -7 -9 -4 -18 7 -21 14 -7 14 6 0 13 -4 16
-10z m-309 -16 c-3 -9 -6 -110 -6 -226 0 -194 -1 -209 -17 -206 -26 5 -31 58
-6 58 17 1 17 1 1 14 -15 11 -19 38 -24 168 -6 143 -5 157 12 181 21 29 50 37
40 11z m503 7 c8 -5 9 -11 3 -15 -5 -3 -15 1 -22 9 -14 16 -3 20 19 6z m-239
-11 c0 -5 -7 -7 -15 -4 -8 4 -15 8 -15 10 0 2 7 4 15 4 8 0 15 -4 15 -10z
m193 -17 c-7 -2 -19 -2 -25 0 -7 3 -2 5 12 5 14 0 19 -2 13 -5z m92 -44 c30
-15 34 -18 13 -14 -35 7 -78 23 -78 30 0 10 25 4 65 -16z m555 -188 c0 -146
-2 -170 -16 -175 -10 -4 -14 -12 -10 -23 4 -9 1 -20 -6 -25 -10 -6 -10 -8 0
-8 6 0 12 -5 12 -10 0 -11 -43 -12 -117 -3 -30 4 -44 11 -48 24 -12 37 -57 19
-68 -26 -3 -12 -5 -4 -6 17 -1 33 2 38 26 44 21 6 31 2 49 -19 13 -15 33 -27
46 -27 22 1 22 1 3 12 -30 17 -36 33 -40 101 -5 96 3 127 31 127 22 0 24 -4
25 -52 3 -179 6 -195 40 -178 18 10 19 23 19 200 l0 190 30 0 30 0 0 -169z
m-1177 108 c-4 -4 -14 -5 -20 -1 -10 6 -9 14 5 32 l17 25 3 -24 c2 -13 0 -27
-5 -32z m887 36 c7 -9 8 -15 2 -15 -5 0 -12 7 -16 15 -3 8 -4 15 -2 15 2 0 9
-7 16 -15z m-234 -16 c8 -14 -10 -11 -32 6 -18 13 -18 14 4 8 12 -3 25 -9 28
-14z m277 -26 c8 -7 -11 -33 -24 -33 -5 0 -9 9 -9 20 0 19 20 27 33 13z m-925
-35 c-2 -17 -11 -24 -30 -26 -31 -4 -33 0 -18 29 15 28 52 25 48 -3z m1327
-42 c4 -35 5 -86 1 -113 -3 -26 -5 -71 -5 -99 0 -40 -4 -53 -18 -58 -15 -6
-15 -9 -3 -16 17 -10 26 -100 10 -100 -5 0 -10 6 -10 14 0 41 -44 24 -53 -19
-2 -14 -4 -25 -3 -25 1 0 16 4 34 9 31 9 32 9 32 -20 l0 -29 -69 0 c-68 0 -98
13 -71 30 10 6 9 9 -3 11 -13 3 -14 8 -6 19 8 11 12 12 16 3 2 -7 16 -13 29
-13 19 0 24 5 24 26 0 24 -3 26 -30 22 -36 -5 -41 8 -38 94 l3 58 35 1 c19 0
29 3 23 6 -16 6 -17 73 -2 73 5 0 8 4 4 9 -3 5 -1 12 5 16 6 4 10 -11 10 -39
0 -25 5 -48 10 -51 6 -4 10 30 10 94 0 98 3 107 33 102 4 0 7 8 7 20 0 16 -4
19 -20 14 -14 -5 -20 -2 -20 9 0 11 9 16 29 16 29 0 30 -1 36 -64z m-1592 37
c10 -36 7 -136 -4 -149 -23 -28 -29 -12 -29 76 0 71 3 90 14 90 8 0 17 -8 19
-17z m1158 -243 c-2 -129 -5 -236 -6 -238 -2 -2 -30 2 -64 9 -59 13 -72 21
-51 34 6 3 10 22 10 40 0 26 3 33 15 29 11 -5 15 1 15 19 0 14 5 29 10 32 6 3
10 28 10 54 0 33 5 53 16 62 14 11 16 28 11 100 -6 91 -3 102 23 97 13 -3 15
-32 11 -238z m-281 150 c0 -47 -4 -80 -10 -80 -5 0 -10 19 -10 43 0 45 10 117
16 117 2 0 4 -36 4 -80z m35 3 c4 -36 9 -72 12 -80 3 -8 -2 -13 -15 -13 -18 0
-19 7 -20 85 -1 100 12 105 23 8z m63 -53 c-2 -40 -7 -55 -18 -55 -10 0 -18
20 -27 70 -17 101 -17 102 17 70 28 -27 31 -34 28 -85z m-699 16 c-3 -107 -2
-115 26 -126 14 -5 28 -16 31 -24 3 -7 18 -16 34 -20 35 -7 57 -41 40 -62 -10
-11 -9 -19 4 -39 9 -14 15 -25 14 -26 -2 -1 -39 -7 -83 -14 -44 -7 -87 -14
-95 -16 -13 -3 -15 24 -18 195 -2 204 1 222 35 209 11 -4 14 -23 12 -77z
m1464 52 c27 -10 27 -11 27 -94 0 -46 -4 -84 -8 -84 -5 0 -9 30 -9 66 -1 72
-9 87 -44 82 -18 -2 -25 -10 -27 -32 -3 -27 -4 -28 -18 -8 -8 11 -11 27 -8 36
9 23 -3 20 -16 -4 -9 -16 -7 -26 9 -47 29 -36 26 -43 -14 -43 l-36 0 16 30 c9
17 11 30 5 30 -5 0 -10 14 -10 31 0 22 4 30 13 26 7 -3 24 4 38 14 13 10 31
16 39 13 8 -3 27 -11 43 -16z m-1835 -55 c3 -44 0 -53 -17 -63 -20 -10 -21 -8
-21 55 0 58 2 66 18 63 13 -2 18 -15 20 -55z m1824 -38 c0 -30 1 -61 2 -67 1
-7 -6 -14 -15 -16 -13 -2 -18 8 -24 47 -8 57 0 91 21 91 10 0 14 -15 16 -55z
m-372 35 c0 -5 -5 -10 -11 -10 -5 0 -7 5 -4 10 3 6 8 10 11 10 2 0 4 -4 4 -10z
m-1310 -50 l21 -30 -24 0 c-32 0 -61 32 -45 48 18 18 24 15 48 -18z m1145 -13
c3 -20 0 -39 -5 -42 -6 -4 -10 13 -10 41 0 54 8 54 15 1z m-1225 2 c0 -5 -17
-9 -37 -9 l-38 1 24 19 c18 16 27 18 37 9 8 -6 14 -15 14 -20z m-185 10 c4 -5
-1 -19 -11 -30 -10 -11 -12 -19 -6 -19 7 0 12 3 12 8 0 4 12 15 26 25 24 18
25 18 44 -5 11 -13 19 -26 20 -30 0 -10 -102 -7 -122 4 -14 7 -18 4 -18 -12 0
-11 7 -20 15 -20 8 0 15 -9 15 -20 0 -24 -13 -26 -30 -5 -7 8 -21 15 -31 15
-15 0 -19 7 -19 31 0 32 24 67 35 49 10 -16 45 -12 45 5 0 17 16 20 25 4z
m1455 -20 c0 -11 -4 -18 -10 -14 -5 3 -7 12 -3 20 7 21 13 19 13 -6z m-1067
-39 c-21 -3 -39 -5 -41 -4 -2 1 4 14 14 29 l17 26 24 -23 25 -23 -39 -5z m240
28 c11 -6 17 -20 17 -45 0 -35 -1 -35 -32 -29 -44 9 -58 23 -58 62 0 32 2 34
28 28 15 -4 35 -11 45 -16z m517 -19 c0 -16 5 -29 11 -29 7 0 9 10 5 25 -5 20
-3 25 13 25 27 0 34 -14 26 -51 -7 -32 -4 -31 -82 -19 -2 0 -3 20 -3 45 0 35
3 43 15 39 9 -4 15 -19 15 -35z m110 17 c0 -14 -5 -28 -10 -31 -6 -4 -10 5 -8
24 3 37 18 42 18 7z m-1060 -7 c0 -5 -9 -9 -19 -9 -28 0 -62 -59 -49 -83 7
-15 7 -22 -3 -28 -11 -6 -15 -1 -17 22 -2 17 0 38 4 47 4 10 6 21 5 26 -5 21
9 31 43 32 20 1 36 -3 36 -7z m120 -1 c0 -7 3 -23 6 -35 5 -19 2 -23 -15 -23
-11 0 -21 -6 -22 -12 0 -10 -2 -10 -6 0 -3 8 -27 12 -69 12 -35 0 -64 2 -64 4
0 29 16 36 81 36 55 0 69 3 69 15 0 8 5 15 10 15 6 0 10 -6 10 -12z m1257 -2
c-3 -7 0 -19 6 -25 6 -6 7 -14 3 -18 -9 -9 -26 16 -26 40 0 9 5 17 11 17 6 0
9 -6 6 -14z m283 3 c0 -5 4 -7 10 -4 6 3 7 -1 4 -10 -4 -9 -3 -15 2 -13 5 1
19 -3 31 -10 12 -7 26 -12 30 -11 4 1 18 1 31 0 20 -1 22 -5 21 -63 -1 -35 -4
-53 -6 -40 -3 15 -11 22 -28 22 -13 0 -27 -5 -30 -10 -3 -6 -16 -8 -28 -5 -32
7 -47 -6 -54 -49 -5 -32 -3 -38 16 -43 34 -9 26 -35 -10 -31 l-31 3 1 129 c1
71 4 133 7 138 7 12 34 10 34 -3z m-1799 -46 c0 -11 3 -13 6 -5 2 6 11 12 19
12 7 0 11 -6 9 -13 -3 -7 -1 -33 3 -59 9 -43 8 -47 -12 -51 -11 -2 14 -3 58
-3 66 1 80 -2 90 -17 6 -10 19 -28 29 -39 28 -34 22 -49 -20 -47 -21 2 -44 7
-52 13 -11 8 -13 8 -7 -1 4 -8 2 -13 -8 -13 -26 0 -46 12 -39 24 5 8 3 8 -8 0
-8 -6 -31 -11 -51 -11 -34 0 -36 2 -26 20 9 18 8 19 -18 13 -16 -4 -43 -8 -61
-9 -19 -1 -38 -10 -47 -22 -17 -24 -27 -17 -19 14 3 14 11 20 20 17 27 -11 27
26 0 48 -50 40 -28 98 36 93 14 -1 27 3 27 8 4 26 23 45 45 45 17 0 25 -6 26
-17z m349 -13 c0 -12 7 -20 18 -21 15 -1 14 -2 -2 -6 -15 -4 -16 -7 -5 -14 12
-8 12 -11 -1 -19 -13 -8 -12 -10 4 -10 15 0 16 -3 7 -14 -9 -11 -9 -15 1 -19
8 -4 5 -8 -9 -12 -13 -4 -23 -14 -23 -21 0 -17 12 -18 28 -2 9 9 12 8 12 -5 0
-19 -22 -22 -51 -7 -21 12 -26 40 -6 41 10 0 10 2 0 6 -7 2 -13 13 -13 24 0
10 -4 19 -10 19 -5 0 -10 18 -10 40 0 38 2 40 30 40 23 0 30 -4 30 -20z m846
-16 c14 4 24 2 24 -4 0 -5 -4 -10 -10 -10 -5 0 -10 -5 -10 -11 0 -5 5 -7 10
-4 6 3 10 1 10 -4 0 -11 -13 -15 -37 -12 -7 1 -13 -4 -13 -11 0 -9 -3 -9 -11
-1 -7 7 -8 26 -3 55 6 31 9 37 12 20 3 -20 8 -23 28 -18z m14 26 c0 -5 -5 -10
-11 -10 -5 0 -7 5 -4 10 3 6 8 10 11 10 2 0 4 -4 4 -10z m194 -25 c3 -8 13
-15 21 -15 9 0 14 -4 10 -9 -8 -14 -65 8 -65 25 0 19 26 18 34 -1z m-1205 -12
c-8 -10 -21 -31 -29 -46 -13 -26 -15 -27 -27 -11 -7 10 -16 15 -19 11 -9 -8
-34 18 -34 36 0 23 11 27 68 27 51 0 54 -1 41 -17z m646 -7 c11 0 32 3 46 7
25 6 27 4 32 -35 3 -23 1 -50 -4 -59 -5 -10 -9 -27 -9 -38 0 -11 -12 -27 -29
-37 -16 -10 -35 -28 -42 -41 -16 -30 -27 -29 -39 1 -5 14 -21 32 -34 42 -14 9
-23 20 -20 25 2 5 -2 19 -10 31 -7 13 -17 45 -21 72 l-7 49 59 -8 c32 -4 67
-8 78 -9z m291 -11 c1 -11 5 -43 9 -70 l7 -51 -40 4 c-36 4 -42 8 -47 33 -4
19 -1 38 8 53 14 21 14 25 -1 40 -16 16 -15 17 23 14 32 -2 40 -7 41 -23z
m-873 6 c13 -2 7 -29 -9 -35 -10 -4 -13 -2 -8 6 4 7 -9 2 -29 -11 -20 -12 -37
-18 -37 -12 0 5 5 13 10 16 6 3 10 15 10 25 0 15 6 18 28 15 15 -2 30 -4 35
-4z m723 -7 c-11 -30 4 -64 30 -64 18 0 22 5 19 20 -5 24 3 50 16 50 4 0 6
-21 3 -47 -7 -55 26 -168 54 -190 15 -11 15 -14 3 -22 -37 -24 -131 21 -131
63 0 13 -13 35 -30 50 l-30 26 19 38 c17 33 18 40 5 65 -14 27 -14 27 17 27
24 0 30 -3 25 -16z m-283 -24 c3 -11 1 -23 -4 -26 -5 -3 0 -19 11 -35 24 -33
20 -64 -10 -72 -10 -3 -29 -26 -42 -53 -23 -49 -65 -82 -104 -83 -41 -2 -33
-15 18 -32 29 -9 61 -20 71 -24 22 -9 23 12 0 37 -14 16 -15 22 -5 36 7 9 21
36 32 59 24 54 64 68 92 33 57 -70 -27 -158 -202 -211 -77 -23 -199 -31 -252
-16 -40 11 -98 65 -98 91 0 37 56 113 99 135 40 21 190 66 196 59 7 -6 -9 -23
-46 -51 -29 -22 -47 -27 -92 -27 -65 0 -73 -11 -22 -31 l36 -14 -58 -44 c-32
-25 -53 -46 -46 -48 6 -2 51 12 99 30 91 36 110 37 117 9 4 -13 5 -12 6 4 0
11 14 33 30 48 16 16 35 48 42 72 9 29 18 43 26 40 7 -3 13 -1 13 3 0 5 -5 11
-12 13 -17 6 0 28 23 28 16 0 18 5 13 25 -4 16 -2 25 6 25 6 0 8 -4 5 -10 -3
-5 -1 -10 4 -10 6 0 11 10 11 23 0 24 18 49 30 42 4 -3 10 -14 13 -25z m855
23 c-10 -2 -28 -2 -40 0 -13 2 -5 4 17 4 22 1 32 -1 23 -4z m-140 -26 c2 -11
-6 -22 -25 -30 -34 -15 -40 -62 -8 -79 19 -11 19 -11 0 -19 -39 -15 -44 -11
-43 41 0 36 5 53 16 60 11 6 12 9 4 10 -25 0 -1 20 26 21 24 1 23 3 -8 9 l-35
8 35 -1 c25 -2 36 -7 38 -20z m42 2 c0 -5 -4 -9 -10 -9 -5 0 -10 7 -10 16 0 8
5 12 10 9 6 -3 10 -10 10 -16z m38 -29 c1 -34 -27 -57 -46 -38 -17 17 -15 38
3 38 10 0 15 10 15 26 0 39 27 13 28 -26z m80 5 c3 -22 0 -27 -13 -21 -9 3
-13 2 -10 -4 3 -6 -3 -10 -13 -10 -11 0 -22 -7 -26 -15 -3 -8 -11 -15 -17 -15
-7 0 -5 8 6 20 10 11 15 28 12 40 -4 15 1 24 16 30 32 13 42 7 45 -25z m-1278
5 c0 -5 -4 -10 -10 -10 -5 0 -10 5 -10 10 0 6 5 10 10 10 6 0 10 -4 10 -10z
m1560 -38 c0 -34 -15 -45 -41 -31 -22 12 -22 13 -5 17 14 3 16 6 6 12 -7 4
-10 15 -7 24 5 14 11 15 27 6 11 -6 20 -18 20 -28z m-431 -1 c19 -12 6 -41
-19 -41 -11 0 -20 5 -20 10 0 6 4 10 10 10 5 0 7 7 4 15 -7 17 4 19 25 6z
m-239 -11 c0 -5 -4 -10 -10 -10 -5 0 -10 5 -10 10 0 6 5 10 10 10 6 0 10 -4
10 -10z m385 -9 c-3 -6 -14 -11 -23 -11 -15 1 -15 2 2 15 21 16 32 13 21 -4z
m-1210 -39 c-3 -3 -19 -5 -37 -4 -23 1 -28 -2 -18 -8 12 -8 10 -10 -7 -10 -29
0 -35 12 -17 38 14 21 16 21 49 5 19 -9 33 -19 30 -21z m-404 -2 c-23 -20 -71
-28 -71 -12 0 7 26 15 90 30 3 1 -6 -8 -19 -18z m608 8 c0 -7 -4 -22 -8 -33
-7 -18 -9 -17 -25 13 l-17 32 26 0 c14 0 25 -6 24 -12z m886 2 c-3 -5 -12 -10
-18 -10 -7 0 -6 4 3 10 19 12 23 12 15 0z m75 -5 c0 -16 -27 -32 -37 -22 -3 4
-3 13 0 22 8 20 37 20 37 0z m-1270 -16 c0 -5 -4 -9 -10 -9 -5 0 -10 7 -10 16
0 8 5 12 10 9 6 -3 10 -10 10 -16z m936 6 c136 -26 195 -69 194 -142 -1 -53
-30 -74 -133 -93 -100 -18 -259 9 -342 60 -36 22 -65 68 -65 103 0 32 45 69
79 65 32 -4 51 -58 20 -58 -32 0 -21 -17 15 -24 50 -10 62 -28 40 -65 -10 -17
-15 -34 -11 -37 4 -4 41 7 82 25 41 18 82 30 91 27 33 -13 158 -36 163 -30 6
5 -18 28 -64 61 -19 13 -19 15 -2 27 27 20 21 26 -27 26 -33 0 -52 7 -75 26
-19 16 -39 24 -51 21 -11 -3 -21 1 -24 9 -7 18 12 18 110 -1z m674 3 c0 7 13
12 30 12 20 0 30 -5 30 -15 0 -11 -12 -15 -45 -15 -42 0 -54 7 -38 23 4 4 10
2 15 -5 6 -10 8 -10 8 0z m-1343 -34 c2 -7 -10 -14 -27 -16 -32 -5 -37 1 -18
20 15 15 40 12 45 -4z m-298 0 c90 -14 18 -24 -180 -24 -173 0 -209 2 -209 14
0 12 32 14 174 15 96 1 193 -2 215 -5z m921 -9 c11 -13 8 -15 -19 -15 -30 0
-39 9 -24 23 11 11 30 8 43 -8z m775 -4 c0 -22 -533 -17 -555 5 -13 13 18 14
270 12 238 -3 285 -5 285 -17z m-1396 -39 c-16 -25 -53 -33 -91 -20 -41 14
-21 31 45 38 28 3 53 5 55 4 2 -1 -2 -11 -9 -22z m-299 2 c0 -7 -4 -15 -10
-19 -20 -12 -30 -76 -16 -109 17 -40 40 -59 100 -81 43 -17 58 -17 140 -7 188
24 333 96 355 178 9 36 22 37 32 2 15 -56 45 -84 129 -117 134 -53 319 -58
395 -11 51 31 65 59 67 125 l2 57 250 -7 c138 -4 251 -7 251 -8 5 -14 -15
-480 -20 -485 -7 -8 -1738 -12 -1937 -5 l-127 5 0 250 -1 249 195 -2 c151 -2
195 -5 195 -15z m974 -3 c5 -8 -35 -31 -53 -31 -5 0 -11 9 -14 20 -4 17 0 20
28 20 19 0 36 -4 39 -9z m-776 -29 c8 -6 -7 -16 -43 -31 -31 -13 -58 -21 -61
-19 -5 6 67 57 81 57 6 0 16 -3 23 -7z m833 -12 l24 -20 -40 6 c-63 9 -72 13
-55 24 23 15 46 12 71 -10z m-151 -5 c0 -6 -92 -46 -96 -42 -2 2 3 13 12 25
11 15 25 22 50 22 19 0 34 -2 34 -5z m-490 -30 c16 -19 0 -19 -26 0 -16 12
-16 14 -3 15 9 0 22 -7 29 -15z"/>
<path d="M925 3619 c4 -6 21 -9 38 -7 31 3 32 2 35 -44 3 -47 3 -48 -27 -48
-17 0 -31 -3 -31 -7 0 -5 61 -9 135 -9 74 -1 135 3 135 7 0 5 -10 9 -23 9 -34
0 -37 7 -23 48 8 22 21 38 32 40 10 2 23 8 29 13 5 5 -54 9 -149 9 -109 0
-155 -3 -151 -11z m225 -18 c0 -11 -3 -27 -6 -36 -6 -14 -10 -10 -20 15 -18
41 -18 40 6 40 13 0 20 -7 20 -19z m-55 -27 c21 -51 20 -54 -20 -54 -35 0 -35
0 -35 45 0 38 3 45 20 45 13 0 25 -12 35 -36z"/>
<path d="M1755 1291 c-3 -5 -1 -12 5 -16 5 -3 10 1 10 9 0 18 -6 21 -15 7z"/>
<path d="M1726 1244 c-4 -10 -1 -14 6 -12 15 5 23 28 10 28 -5 0 -13 -7 -16
-16z"/>
<path d="M984 2584 l-17 -45 -49 6 c-26 4 -48 3 -48 -2 0 -4 16 -19 35 -32 37
-25 41 -43 21 -96 -15 -38 -15 -45 -3 -45 7 0 29 11 49 25 20 14 41 25 46 25
5 0 19 -11 32 -25 39 -41 50 -33 33 25 l-14 49 33 30 c33 30 33 30 8 31 -55 1
-70 11 -82 56 -7 24 -15 44 -19 44 -4 0 -15 -21 -25 -46z m36 -25 c0 -10 -7
-19 -15 -19 -16 0 -19 9 -9 34 8 20 24 11 24 -15z m-65 -38 c10 -18 -17 -23
-33 -7 -15 15 -15 16 5 16 12 0 24 -4 28 -9z m89 -24 c10 -41 -30 -61 -67 -33
-14 11 -15 19 -8 38 8 20 15 24 39 20 20 -3 32 -11 36 -25z m44 11 c-3 -7 -11
-13 -18 -13 -7 0 -15 6 -17 13 -3 7 4 12 17 12 13 0 20 -5 18 -12z m-106 -59
c20 -11 20 -12 -8 -35 -39 -32 -44 -30 -31 11 12 39 11 39 39 24z m86 -34 c-3
-12 -6 -12 -22 0 -16 12 -17 17 -6 30 12 15 14 15 22 0 5 -8 8 -22 6 -30z"/>
<path d="M958 2103 c7 -3 16 -2 19 1 4 3 -2 6 -13 5 -11 0 -14 -3 -6 -6z"/>
<path d="M1010 2050 c10 -7 11 -10 3 -11 -7 -1 -18 -2 -25 -3 -6 0 -13 -7 -16
-14 -3 -9 2 -10 21 -3 14 5 42 8 62 5 23 -3 34 -1 30 6 -3 5 -15 10 -26 10
-10 0 -19 5 -19 10 0 6 -10 10 -22 10 -19 0 -20 -2 -8 -10z"/>
<path d="M1025 2010 c-19 -8 -19 -9 3 -9 12 -1 22 4 22 9 0 6 -1 10 -2 9 -2 0
-12 -4 -23 -9z"/>
<path d="M1025 1803 l-20 -58 -47 3 c-27 2 -48 -1 -48 -6 0 -5 16 -20 35 -33
40 -27 40 -31 21 -87 -20 -56 -5 -62 49 -23 l44 32 48 -30 c26 -16 50 -28 54
-25 4 2 -2 21 -12 41 -27 53 -24 68 19 95 l37 23 -57 9 c-54 9 -58 11 -73 48
-8 21 -15 45 -15 53 0 32 -16 12 -35 -42z m40 -31 c4 -16 2 -24 -10 -28 -23
-9 -28 0 -20 36 7 33 18 31 30 -8z m-65 -51 c0 -19 -22 -23 -38 -7 -15 15 -14
16 11 16 15 0 27 -4 27 -9z m90 -17 c9 -21 7 -29 -7 -40 -24 -18 -33 -17 -62
5 -20 15 -22 21 -12 39 18 33 68 30 81 -4z m56 11 c-25 -19 -32 -19 -40 0 -4
11 2 15 27 15 30 -1 31 -1 13 -15z m-117 -69 c9 -11 5 -19 -20 -37 l-32 -23 6
25 c4 13 7 30 7 37 0 16 25 15 39 -2z m98 -16 l11 -30 -29 15 c-29 15 -35 26
-22 38 14 15 29 6 40 -23z"/>
<path d="M775 1670 c-4 -23 -5 -43 -2 -46 2 -3 7 14 11 37 4 23 5 44 2 46 -2
2 -7 -14 -11 -37z"/>
<path d="M743 1605 c0 -22 2 -30 4 -17 2 12 2 30 0 40 -3 9 -5 -1 -4 -23z"/>
<path d="M750 1549 c0 -17 24 -32 34 -22 11 11 6 24 -5 17 -6 -3 -15 0 -20 7
-7 11 -9 11 -9 -2z"/>
<path d="M820 870 c-24 -8 -24 -8 7 -9 17 -1 35 4 38 9 7 11 -9 11 -45 0z"/>
<path d="M1758 1173 c7 -3 16 -2 19 1 4 3 -2 6 -13 5 -11 0 -14 -3 -6 -6z"/>
<path d="M1750 1135 c0 -8 5 -15 10 -15 6 0 10 7 10 15 0 8 -4 15 -10 15 -5 0
-10 -7 -10 -15z"/>
<path d="M1630 1000 c0 -5 5 -10 10 -10 6 0 10 5 10 10 0 6 -4 10 -10 10 -5 0
-10 -4 -10 -10z"/>
<path d="M1755 920 c3 -5 8 -10 11 -10 2 0 4 5 4 10 0 6 -5 10 -11 10 -5 0 -7
-4 -4 -10z"/>
<path d="M1898 993 c7 -3 16 -2 19 1 4 3 -2 6 -13 5 -11 0 -14 -3 -6 -6z"/>
<path d="M1810 794 c0 -8 5 -12 10 -9 6 4 8 11 5 16 -9 14 -15 11 -15 -7z"/>
<path d="M1850 800 c0 -5 5 -10 10 -10 6 0 10 5 10 10 0 6 -4 10 -10 10 -5 0
-10 -4 -10 -10z"/>
<path d="M1880 771 c0 -6 5 -13 10 -16 6 -3 10 1 10 9 0 9 -4 16 -10 16 -5 0
-10 -4 -10 -9z"/>
<path d="M2055 940 c3 -5 8 -10 11 -10 2 0 4 5 4 10 0 6 -5 10 -11 10 -5 0 -7
-4 -4 -10z"/>
<path d="M2051 774 c0 -11 3 -14 6 -6 3 7 2 16 -1 19 -3 4 -6 -2 -5 -13z"/>
<path d="M125 655 c-39 -32 -24 -32 23 0 20 14 30 25 22 25 -8 -1 -28 -12 -45
-25z"/>
<path d="M208 623 c7 -3 16 -2 19 1 4 3 -2 6 -13 5 -11 0 -14 -3 -6 -6z"/>
<path d="M1198 673 c7 -3 16 -2 19 1 4 3 -2 6 -13 5 -11 0 -14 -3 -6 -6z"/>
<path d="M1208 643 c7 -3 16 -2 19 1 4 3 -2 6 -13 5 -11 0 -14 -3 -6 -6z"/>
<path d="M1960 395 c-6 -15 -17 -25 -29 -25 -33 0 -34 -20 -2 -26 36 -7 32
-24 -5 -24 -34 0 -26 -24 9 -28 31 -4 37 -22 7 -22 -14 0 -20 -6 -19 -22 1
-17 2 -19 6 -5 9 35 33 19 33 -22 0 -22 5 -43 11 -46 7 -5 8 7 4 38 l-7 44 61
5 c33 2 64 8 68 12 13 13 -20 26 -72 27 -43 2 -45 3 -15 7 l35 5 -30 7 -30 8
35 1 c27 1 31 4 20 11 -8 5 -26 10 -40 11 -20 1 -18 3 10 9 19 4 26 8 16 9
-18 1 -18 2 -3 19 21 23 13 32 -25 32 -21 0 -31 -6 -38 -25z m-3 -91 c-3 -3
-12 -4 -19 -1 -8 3 -5 6 6 6 11 1 17 -2 13 -5z m86 -31 c-13 -2 -33 -2 -45 0
-13 2 -3 4 22 4 25 0 35 -2 23 -4z"/>
<path d="M2000 230 c0 -5 7 -10 15 -10 8 0 15 5 15 10 0 6 -7 10 -15 10 -8 0
-15 -4 -15 -10z"/>
<path d="M1960 140 c0 -5 5 -10 11 -10 5 0 7 5 4 10 -3 6 -8 10 -11 10 -2 0
-4 -4 -4 -10z"/>
</g>
</svg>
