<?xml version="1.0" standalone="no"?>
<!DOCTYPE svg PUBLIC "-//W3C//DTD SVG 20010904//EN"
 "http://www.w3.org/TR/2001/REC-SVG-20010904/DTD/svg10.dtd">
<svg version="1.0" xmlns="http://www.w3.org/2000/svg"
 width="219.000000pt" height="375.000000pt" viewBox="0 0 219.000000 375.000000"
 preserveAspectRatio="xMidYMid meet">
<metadata>
Created by potrace 1.16, written by Peter Selinger 2001-2019
</metadata>
<g transform="translate(0.000000,375.000000) scale(0.100000,-0.100000)"
fill="#000000" stroke="none">
<path d="M36 3657 c-22 -313 -26 -1527 -5 -1527 6 0 7 -5 3 -12 -12 -19 -21
-992 -16 -1725 l2 -393 1081 0 1080 0 -3 1864 -3 1864 -55 5 c-30 2 -510 5
-1066 5 l-1012 2 -6 -83z m422 -109 l-2 -173 -6 150 c-5 140 -3 195 6 195 2 0
3 -78 2 -172z m94 157 c5 -6 8 -5 8 3 0 6 6 12 13 12 9 0 12 -118 12 -558 0
-306 -1 -521 -3 -477 -2 44 -7 84 -13 90 -6 6 -8 -53 -5 -165 3 -96 5 -241 5
-321 l1 -146 30 -6 c16 -4 38 -3 47 1 13 5 7 8 -22 12 l-40 5 -1 225 0 225 6
-195 c3 -107 7 -196 8 -197 1 -2 10 -3 20 -4 14 0 14 -2 -3 -9 -15 -7 -10 -9
23 -9 24 -1 41 3 38 8 -9 14 48 20 202 21 109 0 142 -2 143 -12 0 -10 2 -10 6
0 3 7 25 12 61 12 41 0 53 -3 42 -10 -13 -8 -12 -10 3 -10 9 0 17 5 17 10 0 6
5 10 11 10 5 0 7 -5 3 -11 -4 -8 59 -10 220 -8 l226 4 0 52 c0 63 -17 71 -23
11 -3 -37 -4 -35 -5 15 -1 32 2 56 7 53 12 -8 22 20 15 39 -4 8 -10 12 -15 9
-5 -3 -8 21 -7 53 1 36 3 45 5 25 2 -18 9 -30 14 -27 5 4 8 68 7 148 -2 123
-3 129 -5 42 -2 -55 -7 -103 -11 -107 -8 -7 -9 91 -3 237 3 70 5 81 10 48 5
-38 8 -40 24 -28 16 11 16 13 2 19 -9 3 -13 11 -9 17 3 6 6 29 6 52 -1 23 5
45 11 49 9 6 9 10 0 16 -10 6 -14 101 -16 400 l-3 392 29 0 c23 0 27 -4 26
-22 -1 -13 -1 -185 0 -383 2 -267 5 -354 13 -337 22 44 31 23 26 -60 -3 -46
-2 -105 2 -133 5 -27 7 147 6 387 -1 241 -6 441 -10 445 -4 4 -6 -65 -6 -152
1 -265 0 -295 -10 -295 -16 0 -13 500 3 501 10 0 10 2 0 6 -7 2 -13 14 -13 25
0 14 6 19 23 16 18 -2 22 -9 23 -43 0 -22 2 -60 3 -85 l3 -45 12 40 c10 33 12
-47 10 -445 -3 -450 -23 -1157 -32 -1100 -2 14 1 156 7 315 12 301 15 1172 4
1162 -3 -4 -5 -215 -5 -469 0 -255 -3 -521 -7 -593 l-9 -130 1 192 c1 105 -1
194 -4 198 -6 5 -26 -658 -22 -710 1 -19 -4 -20 -154 -17 -86 2 -160 -1 -164
-5 -4 -4 61 -7 146 -5 104 2 155 -1 155 -8 0 -9 -14 -14 -32 -11 -5 0 -8 -4
-8 -9 0 -7 -7 -7 -21 0 -11 6 -28 9 -37 7 -12 -3 -11 -5 5 -6 37 -2 34 -18 -5
-25 -20 -3 -120 -7 -222 -8 l-185 -2 185 -6 c164 -6 153 -6 -102 -6 -157 1
-281 -2 -275 -6 7 -4 131 -9 277 -10 l265 -2 -210 -6 c-144 -4 -180 -7 -115
-9 52 -2 85 -6 73 -8 -13 -2 -23 -9 -23 -15 0 -7 -5 -6 -15 2 -8 7 -26 9 -44
5 -35 -8 -214 -7 -288 1 -35 4 -53 2 -53 -5 0 -6 -11 -10 -25 -9 -14 1 -25 6
-25 10 0 4 -15 8 -33 8 -25 0 -37 -6 -46 -23 -6 -12 -9 -14 -7 -5 6 22 -11 33
-28 18 -11 -8 -15 -8 -18 1 -3 8 -14 8 -41 1 -20 -6 -45 -9 -54 -7 -10 2 -39
4 -65 4 -74 1 -57 21 20 23 l67 2 -67 3 -68 4 2 417 c1 229 4 375 5 325 2 -51
7 -93 11 -93 4 0 8 262 10 583 1 320 3 587 4 594 2 14 60 13 70 -2z m116 -68
c3 -71 1 -77 -17 -77 -17 0 -20 8 -23 71 -3 68 5 93 27 86 5 -2 11 -38 13 -80z
m167 43 c12 -36 45 -55 45 -26 0 9 5 16 10 16 7 0 8 -13 5 -34 -5 -26 -3 -36
10 -44 19 -10 12 -32 -10 -32 -7 0 -22 -11 -33 -25 -24 -30 -46 -33 -39 -6 3
12 -1 22 -9 25 -10 4 -14 -2 -14 -19 0 -22 -4 -25 -40 -25 l-40 0 2 93 c1 52
-2 99 -6 106 -6 9 6 11 50 9 56 -3 58 -4 69 -38z m373 26 c3 -3 -51 -5 -119
-4 -120 2 -122 2 -39 7 94 7 149 5 158 -3z m116 5 c3 -5 -1 -14 -9 -21 -8 -7
-15 -10 -15 -7 0 3 -3 12 -6 21 -7 17 20 23 30 7z m120 -33 c5 -35 4 -90 -3
-161 -1 -4 -22 -7 -48 -5 -41 3 -48 6 -51 26 -4 27 -22 30 -22 3 0 -17 -18
-31 -40 -31 -10 0 -7 76 3 86 4 4 7 16 7 26 0 10 6 18 14 18 8 0 21 18 30 40
15 38 18 40 60 40 l45 0 5 -42z m94 -41 c3 -71 1 -77 -17 -77 -16 0 -20 8 -23
58 -4 81 0 104 20 100 14 -3 18 -18 20 -81z m222 48 c0 -19 -2 -35 -4 -35 -2
0 -6 16 -8 35 -2 19 0 35 4 35 4 0 8 -16 8 -35z m-1540 15 c0 -5 -5 -10 -11
-10 -5 0 -7 5 -4 10 3 6 8 10 11 10 2 0 4 -4 4 -10z m665 -10 c-14 -16 -20
-17 -27 -8 -13 22 -9 28 19 28 26 0 26 0 8 -20z m65 5 c7 -9 8 -15 2 -15 -5 0
-12 7 -16 15 -3 8 -4 15 -2 15 2 0 9 -7 16 -15z m318 -44 c-3 -47 -14 -56 -32
-28 -7 11 -5 21 7 35 21 23 22 36 3 29 -10 -4 -13 -1 -10 8 3 8 12 11 20 8 11
-4 14 -18 12 -52z m-1098 45 c0 -11 -19 -15 -25 -6 -3 5 1 10 9 10 9 0 16 -2
16 -4z m1433 -392 c-2 -383 -6 -449 -13 -194 -6 248 0 615 9 529 3 -31 5 -182
4 -335z m-563 344 c11 -18 20 -36 20 -40 0 -15 -58 -8 -64 7 -3 8 -12 12 -20
9 -20 -8 -26 28 -6 43 26 21 49 14 70 -19z m80 25 c0 -5 -9 -19 -19 -32 l-19
-24 -16 31 -17 32 36 0 c19 0 35 -3 35 -7z m96 -4 c11 -18 -46 -69 -78 -69
-34 0 -34 3 -7 46 16 26 28 34 49 34 16 0 32 -5 36 -11z m-275 -26 c7 -18 6
-30 -1 -37 -16 -16 -34 9 -26 38 8 33 14 33 27 -1z m-564 11 c-3 -3 -12 -4
-19 -1 -8 3 -5 6 6 6 11 1 17 -2 13 -5z m330 -16 c-3 -8 -6 -5 -6 6 -1 11 2
17 5 13 3 -3 4 -12 1 -19z m-487 -7 c0 -6 -4 -13 -10 -16 -5 -3 -10 1 -10 9 0
9 5 16 10 16 6 0 10 -4 10 -9z m-134 -16 c-11 -8 -25 -15 -30 -15 -6 0 -2 7 8
15 11 8 25 15 30 15 6 0 2 -7 -8 -15z m219 5 c3 -5 1 -10 -4 -10 -6 0 -11 5
-11 10 0 6 2 10 4 10 3 0 8 -4 11 -10z m-155 -10 c0 -5 -2 -10 -4 -10 -3 0 -8
5 -11 10 -3 6 -1 10 4 10 6 0 11 -4 11 -10z m1070 -4 c0 -15 -18 -31 -26 -23
-7 7 7 37 17 37 5 0 9 -6 9 -14z m600 -1 c-10 -12 -10 -15 0 -15 10 0 10 -3 0
-15 -10 -12 -10 -15 0 -15 10 0 10 -3 0 -15 -9 -11 -9 -15 -1 -15 7 0 9 -4 6
-10 -15 -24 -25 -6 -25 45 0 44 3 55 16 55 14 0 14 -3 4 -15z m-840 -7 c0 -22
-40 -79 -50 -73 -15 9 -12 24 11 56 21 30 39 38 39 17z m1109 -37 c-2 -6 -12
4 -22 22 l-18 32 21 -21 c13 -12 21 -27 19 -33z m-1983 1 c-8 -9 -19 -13 -22
-9 -10 9 16 38 28 31 6 -4 4 -13 -6 -22z m54 18 c0 -5 -4 -10 -10 -10 -5 0
-10 5 -10 10 0 6 5 10 10 10 6 0 10 -4 10 -10z m866 1 c-3 -5 -15 -11 -26 -14
-17 -4 -19 -3 -9 9 12 15 44 20 35 5z m161 -18 l14 -21 -40 20 c-48 23 -52 31
-15 26 15 -2 33 -13 41 -25z m73 -13 c0 -27 -12 -32 -27 -11 -17 25 -7 57 13
40 8 -6 14 -19 14 -29z m-563 8 c-3 -8 -6 -5 -6 6 -1 11 2 17 5 13 3 -3 4 -12
1 -19z m-422 2 c3 -5 1 -10 -4 -10 -6 0 -11 5 -11 10 0 6 2 10 4 10 3 0 8 -4
11 -10z m908 -32 c29 -21 60 -71 50 -82 -4 -3 -28 -6 -55 -6 -48 0 -49 1 -67
43 -11 23 -22 52 -25 64 -7 21 -5 21 31 11 21 -6 50 -19 66 -30z m-140 -15
c-9 -27 -20 -54 -26 -60 -12 -16 -97 -17 -97 -2 0 34 83 109 122 109 16 0 16
-3 1 -47z m-813 22 c0 -8 -4 -15 -10 -15 -5 0 -7 7 -4 15 4 8 8 15 10 15 2 0
4 -7 4 -15z m-165 -5 c3 -5 1 -10 -4 -10 -6 0 -11 5 -11 10 0 6 2 10 4 10 3 0
8 -4 11 -10z m120 0 c3 -5 -1 -10 -10 -10 -9 0 -13 5 -10 10 3 6 8 10 10 10 2
0 7 -4 10 -10z m210 0 c-3 -5 -12 -7 -20 -3 -21 7 -19 13 6 13 11 0 18 -4 14
-10z m275 -5 c0 -8 -9 -15 -20 -15 -11 0 -20 7 -20 15 0 8 9 15 20 15 11 0 20
-7 20 -15z m240 -11 c0 -14 -21 -19 -33 -7 -9 9 13 34 24 27 5 -3 9 -12 9 -20z
m628 14 c-7 -19 -38 -22 -38 -4 0 10 9 16 21 16 12 0 19 -5 17 -12z m-1258 -2
c0 -11 -19 -15 -25 -6 -3 5 1 10 9 10 9 0 16 -2 16 -4z m817 -72 c-2 -2 -14
-5 -28 -6 -26 -3 -28 9 -7 61 l10 26 14 -39 c8 -22 13 -41 11 -42z m-930 30
c-9 -9 -28 6 -21 18 4 6 10 6 17 -1 6 -6 8 -13 4 -17z m108 6 c3 -5 1 -10 -4
-10 -6 0 -11 5 -11 10 0 6 2 10 4 10 3 0 8 -4 11 -10z m1265 -35 c0 -38 -3
-45 -20 -45 -17 0 -20 7 -20 45 0 38 3 45 20 45 17 0 20 -7 20 -45z m277 38
c-4 -3 -2 -12 4 -20 9 -10 8 -13 -1 -13 -8 0 -9 -6 -5 -17 10 -24 12 -353 3
-353 -7 0 -9 28 -10 153 0 20 -3 39 -7 41 -11 7 0 216 11 216 6 0 8 -3 5 -7z
m-549 -63 c0 -9 -3 -7 -8 5 -5 11 -8 29 -8 40 0 16 2 15 8 -5 4 -14 8 -32 8
-40z m-598 15 c0 -28 -4 -35 -20 -35 -16 0 -20 7 -20 35 0 28 4 35 20 35 16 0
20 -7 20 -35z m110 31 c0 -3 -4 -8 -10 -11 -5 -3 -10 -1 -10 4 0 6 5 11 10 11
6 0 10 -2 10 -4z m525 -14 c0 -18 -20 -15 -23 4 -3 10 1 15 10 12 7 -3 13 -10
13 -16z m54 -4 c5 -13 7 -25 5 -27 -7 -7 -34 21 -34 35 0 22 20 16 29 -8z
m-939 2 c0 -5 -4 -10 -10 -10 -5 0 -10 5 -10 10 0 6 5 10 10 10 6 0 10 -4 10
-10z m314 -5 c-4 -8 -10 -12 -15 -9 -14 8 -10 24 6 24 9 0 12 -6 9 -15z m141
5 c-3 -5 -10 -10 -16 -10 -5 0 -9 5 -9 10 0 6 7 10 16 10 8 0 12 -4 9 -10z
m589 -11 c-3 -5 -10 -7 -15 -3 -5 3 -7 10 -3 15 3 5 10 7 15 3 5 -3 7 -10 3
-15z m-1099 1 c-28 -12 -37 -12 -30 0 3 6 16 10 28 9 21 0 21 -1 2 -9z m1035
0 c0 -5 -4 -10 -10 -10 -5 0 -10 5 -10 10 0 6 5 10 10 10 6 0 10 -4 10 -10z
m30 -10 c0 -5 -2 -10 -4 -10 -3 0 -8 5 -11 10 -3 6 -1 10 4 10 6 0 11 -4 11
-10z m-1350 -10 c0 -5 -5 -10 -11 -10 -5 0 -7 5 -4 10 3 6 8 10 11 10 2 0 4
-4 4 -10z m70 0 c0 -5 -5 -10 -11 -10 -5 0 -7 5 -4 10 3 6 8 10 11 10 2 0 4
-4 4 -10z m555 0 c3 -5 1 -10 -4 -10 -6 0 -11 5 -11 10 0 6 2 10 4 10 3 0 8
-4 11 -10z m-595 -10 c0 -5 -5 -10 -11 -10 -5 0 -7 5 -4 10 3 6 8 10 11 10 2
0 4 -4 4 -10z m267 4 c-3 -3 -12 -4 -19 -1 -8 3 -5 6 6 6 11 1 17 -2 13 -5z
m364 -17 c-13 -13 -26 -3 -16 12 3 6 11 8 17 5 6 -4 6 -10 -1 -17z m89 -8 c0
-20 -15 -26 -25 -9 -9 15 3 43 15 35 5 -3 10 -15 10 -26z m43 24 c3 -5 8 -23
12 -42 5 -26 4 -32 -6 -29 -18 6 -42 55 -34 68 7 12 22 13 28 3z m137 -8 c0
-8 -6 -15 -14 -15 -7 0 -19 7 -26 15 -11 13 -8 15 14 15 16 0 26 -5 26 -15z
m109 -7 c7 -19 4 -26 -20 -41 -26 -17 -29 -17 -54 -1 -15 10 -24 23 -21 31 4
8 6 19 6 24 0 5 18 9 40 9 33 0 42 -4 49 -22z m56 7 c-21 -17 -37 -15 -43 3
-2 8 8 12 30 12 31 -1 32 -1 13 -15z m70 -33 c-7 -40 -29 -87 -44 -97 -10 -6
-55 84 -46 93 16 17 81 49 88 45 5 -3 6 -21 2 -41z m64 -18 c-18 -22 -29 -17
-29 16 0 17 7 33 18 39 14 8 18 5 20 -15 2 -14 -2 -32 -9 -40z m95 45 c-3 -5
-10 -7 -15 -3 -5 3 -7 10 -3 15 3 5 10 7 15 3 5 -3 7 -10 3 -15z m56 11 c0
-13 -28 -25 -38 -16 -3 4 0 11 8 16 20 13 30 12 30 0z m-1160 -15 c11 -13 8
-15 -14 -15 -25 0 -33 10 -19 23 10 11 19 8 33 -8z m664 -6 c29 -23 30 -28 15
-83 l-11 -40 -18 24 c-17 23 -40 85 -40 109 0 17 25 13 54 -10z m391 11 c3 -5
1 -10 -4 -10 -6 0 -11 5 -11 10 0 6 2 10 4 10 3 0 8 -4 11 -10z m125 -9 c0
-12 -20 -25 -27 -18 -7 7 6 27 18 27 5 0 9 -4 9 -9z m-1103 -7 c-3 -3 -12 -4
-19 -1 -8 3 -5 6 6 6 11 1 17 -2 13 -5z m33 -4 c0 -5 -5 -10 -11 -10 -5 0 -7
5 -4 10 3 6 8 10 11 10 2 0 4 -4 4 -10z m295 1 c3 -5 1 -12 -5 -16 -5 -3 -10
1 -10 9 0 18 6 21 15 7z m-35 -11 c0 -5 -6 -10 -14 -10 -8 0 -18 5 -21 10 -3
6 3 10 14 10 12 0 21 -4 21 -10z m870 0 c0 -5 -9 -10 -20 -10 -11 0 -20 5 -20
10 0 6 9 10 20 10 11 0 20 -4 20 -10z m370 0 c0 -5 -4 -10 -10 -10 -5 0 -10 5
-10 10 0 6 5 10 10 10 6 0 10 -4 10 -10z m90 -11 c0 -5 -4 -9 -10 -9 -5 0 -10
7 -10 16 0 8 5 12 10 9 6 -3 10 -10 10 -16z m123 6 c4 -8 3 -16 -1 -19 -4 -3
-9 4 -9 15 -2 23 3 25 10 4z m-2023 -15 c-13 -11 -28 -20 -34 -20 -13 0 35 39
48 40 5 0 -1 -9 -14 -20z m1271 -13 c-11 -29 -41 -35 -41 -8 0 20 28 43 42 35
4 -3 3 -15 -1 -27z m64 23 c3 -5 -3 -10 -14 -10 -12 0 -21 5 -21 10 0 6 6 10
14 10 8 0 18 -4 21 -10z m-1137 -7 c-10 -2 -26 -2 -35 0 -10 3 -2 5 17 5 19 0
27 -2 18 -5z m82 3 c0 -2 -7 -6 -15 -10 -8 -3 -15 -1 -15 4 0 6 7 10 15 10 8
0 15 -2 15 -4z m77 -33 c-3 -10 -5 -4 -5 12 0 17 2 24 5 18 2 -7 2 -21 0 -30z
m361 25 c18 -18 15 -38 -6 -38 -21 0 -42 18 -42 37 0 16 32 17 48 1z m-598 -8
c0 -5 -4 -10 -10 -10 -5 0 -10 5 -10 10 0 6 5 10 10 10 6 0 10 -4 10 -10z
m530 -10 c0 -11 -2 -20 -4 -20 -2 0 -6 9 -9 20 -3 11 -1 20 4 20 5 0 9 -9 9
-20z m288 7 c8 -10 6 -16 -9 -26 -25 -15 -33 -9 -24 18 7 24 18 27 33 8z m110
-12 c19 -42 14 -47 -23 -23 -31 21 -33 24 -18 36 23 17 28 15 41 -13z m-476
-31 c2 -32 -1 -48 -10 -51 -17 -7 -18 -5 -25 50 -6 42 -4 47 12 47 15 0 20 -9
23 -46z m48 30 c0 -8 -4 -12 -10 -9 -5 3 -10 10 -10 16 0 5 5 9 10 9 6 0 10
-7 10 -16z m140 6 c0 -5 -2 -10 -4 -10 -3 0 -8 5 -11 10 -3 6 -1 10 4 10 6 0
11 -4 11 -10z m403 -5 c-3 -9 -8 -14 -10 -11 -3 3 -2 9 2 15 9 16 15 13 8 -4z
m197 -6 c0 -5 -4 -9 -10 -9 -5 0 -10 7 -10 16 0 8 5 12 10 9 6 -3 10 -10 10
-16z m80 -35 c0 -50 -2 -55 -20 -52 -12 2 -21 6 -20 11 0 4 0 27 0 52 0 38 3
45 20 45 18 0 20 -7 20 -56z m-1230 36 c0 -5 -11 -10 -25 -10 -14 0 -25 5 -25
10 0 6 11 10 25 10 14 0 25 -4 25 -10z m67 4 c-3 -3 -12 -4 -19 -1 -8 3 -5 6
6 6 11 1 17 -2 13 -5z m544 -16 c11 -21 11 -22 -4 -9 -10 7 -17 17 -17 22 0
15 9 10 21 -13z m1194 13 c3 -5 1 -12 -5 -16 -5 -3 -10 1 -10 9 0 18 6 21 15
7z m-805 -32 c0 -16 -33 -39 -56 -39 -14 0 0 40 19 53 26 17 37 13 37 -14z
m-946 0 c-8 -14 -24 -10 -24 6 0 9 6 12 15 9 8 -4 12 -10 9 -15z m408 -1 c-7
-7 -12 -8 -12 -2 0 14 12 26 19 19 2 -3 -1 -11 -7 -17z m128 0 c20 -22 27 -48
12 -48 -18 0 -52 33 -52 51 0 25 14 24 40 -3z m226 -5 c24 -16 43 -31 44 -34
0 -4 -19 -11 -42 -17 -43 -11 -97 -5 -133 15 -16 9 -14 13 21 37 48 33 56 32
110 -1z m284 -23 c0 -4 -6 -13 -14 -19 -20 -17 -40 12 -31 46 l7 28 19 -24
c10 -13 19 -27 19 -31z m-1240 20 c0 -5 -4 -10 -10 -10 -5 0 -10 5 -10 10 0 6
5 10 10 10 6 0 10 -4 10 -10z m55 0 c-3 -5 -10 -10 -16 -10 -5 0 -9 5 -9 10 0
6 7 10 16 10 8 0 12 -4 9 -10z m78 3 c-7 -2 -21 -2 -30 0 -10 3 -4 5 12 5 17
0 24 -2 18 -5z m154 -40 c-3 -10 -5 -2 -5 17 0 19 2 27 5 18 2 -10 2 -26 0
-35z m256 10 c-4 -10 -9 -11 -16 -4 -5 5 -7 18 -3 28 6 14 9 15 16 4 4 -8 6
-21 3 -28z m637 33 c0 -3 -4 -8 -10 -11 -5 -3 -10 -1 -10 4 0 6 5 11 10 11 6
0 10 -2 10 -4z m120 -26 c0 -20 -5 -30 -15 -30 -18 0 -18 2 -3 35 15 32 18 32
18 -5z m517 8 c-3 -8 -6 -5 -6 6 -1 11 2 17 5 13 3 -3 4 -12 1 -19z m-1177 -8
c0 -11 -7 -20 -15 -20 -15 0 -21 21 -8 33 12 13 23 7 23 -13z m50 -22 c0 -4
-6 -5 -14 -2 -8 3 -14 15 -13 25 1 19 2 19 14 3 7 -10 13 -21 13 -26z m1197
10 c-3 -7 -5 -2 -5 12 0 14 2 19 5 13 2 -7 2 -19 0 -25z m-1303 6 c3 -8 2 -12
-4 -9 -6 3 -10 10 -10 16 0 14 7 11 14 -7z m-674 -4 c0 -5 -4 -10 -10 -10 -5
0 -10 5 -10 10 0 6 5 10 10 10 6 0 10 -4 10 -10z m235 0 c-3 -5 -17 -10 -30
-10 -13 0 -27 5 -30 10 -4 6 8 10 30 10 22 0 34 -4 30 -10z m913 -2 c-2 -6
-15 -13 -28 -15 -24 -3 -24 -3 -5 11 24 18 38 20 33 4z m-1074 -19 c-3 -5 -10
-7 -15 -3 -5 3 -7 10 -3 15 3 5 10 7 15 3 5 -3 7 -10 3 -15z m226 11 c0 -5 -9
-10 -19 -10 -11 0 -22 -6 -24 -12 -4 -8 -6 -7 -6 4 -1 16 12 26 37 27 6 1 12
-3 12 -9z m-310 -31 c0 -6 -4 -7 -10 -4 -5 3 -10 11 -10 16 0 6 5 7 10 4 6 -3
10 -11 10 -16z m236 12 c-3 -5 -15 -7 -26 -4 -28 7 -25 13 6 13 14 0 23 -4 20
-9z m370 -17 c-3 -9 -6 -29 -6 -45 0 -19 -5 -29 -15 -29 -11 0 -15 12 -15 45
0 39 3 45 21 45 15 0 19 -4 15 -16z m294 6 c0 -13 -11 -13 -30 0 -12 8 -11 10
8 10 12 0 22 -4 22 -10z m439 -17 c0 -25 -1 -26 -9 -8 -12 27 -12 35 0 35 6 0
10 -12 9 -27z m-1239 13 c0 -3 -4 -8 -10 -11 -5 -3 -10 -1 -10 4 0 6 5 11 10
11 6 0 10 -2 10 -4z m207 -2 c-3 -3 -12 -4 -19 -1 -8 3 -5 6 6 6 11 1 17 -2
13 -5z m373 -3 c0 -5 -6 -20 -13 -34 -12 -23 -14 -24 -24 -8 -9 14 -8 22 5 35
18 18 32 21 32 7z m346 -6 c8 -20 23 -19 46 2 10 9 21 13 26 9 4 -4 -7 -20
-24 -36 -41 -36 -58 -87 -50 -153 4 -29 9 -78 12 -109 5 -48 9 -58 24 -58 10
0 26 7 34 15 13 14 19 14 41 2 25 -12 25 -14 9 -28 -13 -10 -46 -14 -123 -14
-110 0 -151 9 -151 32 0 17 25 17 54 -2 39 -26 56 -10 56 50 0 30 5 66 11 82
6 17 8 55 4 97 -7 64 -9 69 -36 79 -16 6 -29 17 -29 24 0 10 6 10 24 -2 22
-15 24 -14 29 5 6 23 35 27 43 5z m442 -33 c3 -40 2 -43 -20 -40 -19 2 -23 9
-23 38 0 45 3 52 23 48 12 -2 18 -16 20 -46z m-687 -14 l-18 -53 -51 -3 c-59
-3 -65 7 -29 50 24 30 72 58 99 58 16 0 16 -4 -1 -52z m98 37 c30 -15 81 -70
81 -86 0 -5 -23 -9 -50 -9 -54 0 -62 9 -77 83 -6 31 4 34 46 12z m311 7 c0 -5
-7 -29 -16 -55 l-16 -47 -54 0 c-30 0 -54 3 -54 6 0 3 9 19 21 35 29 41 119
87 119 61z m103 -20 c16 -9 38 -32 49 -49 l20 -33 -56 0 c-31 0 -56 1 -56 3 0
1 -9 26 -20 56 l-21 53 28 -7 c15 -3 41 -14 56 -23z m-1123 8 c0 -5 -4 -10
-10 -10 -5 0 -10 5 -10 10 0 6 5 10 10 10 6 0 10 -4 10 -10z m1220 -5 c16 -19
3 -40 -16 -24 -15 13 -19 39 -5 39 5 0 14 -7 21 -15z m-1310 -5 c0 -5 -2 -10
-4 -10 -3 0 -8 5 -11 10 -3 6 -1 10 4 10 6 0 11 -4 11 -10z m143 3 c-7 -2 -19
-2 -25 0 -7 3 -2 5 12 5 14 0 19 -2 13 -5z m82 -3 c-3 -5 -10 -10 -16 -10 -5
0 -9 5 -9 10 0 6 7 10 16 10 8 0 12 -4 9 -10z m-265 -15 c0 -8 -2 -15 -4 -15
-2 0 -6 7 -10 15 -3 8 -1 15 4 15 6 0 10 -7 10 -15z m337 -37 c-2 -13 -4 -5
-4 17 -1 22 1 32 4 23 2 -10 2 -28 0 -40z m447 20 c10 -38 7 -48 -14 -48 -11
0 -20 6 -20 13 0 23 12 57 20 57 4 0 10 -10 14 -22z m-484 2 c0 -5 -5 -10 -11
-10 -5 0 -7 5 -4 10 3 6 8 10 11 10 2 0 4 -4 4 -10z m879 -20 c9 -28 8 -30
-16 -30 -19 0 -24 4 -19 16 3 9 6 22 6 30 0 25 18 15 29 -16z m407 3 c-10 -10
-19 5 -10 18 6 11 8 11 12 0 2 -7 1 -15 -2 -18z m-1456 5 c0 -4 -4 -8 -9 -8
-6 0 -12 4 -15 8 -3 5 1 9 9 9 8 0 15 -4 15 -9z m140 8 c0 -2 -9 -6 -20 -9
-11 -3 -18 -1 -14 4 5 9 34 13 34 5z m330 -6 c0 -5 -4 -10 -10 -10 -5 0 -10 5
-10 10 0 6 5 10 10 10 6 0 10 -4 10 -10z m763 -13 c4 3 7 -1 7 -10 0 -9 -2
-17 -5 -17 -9 0 -45 35 -45 44 0 5 8 2 18 -7 10 -10 22 -14 25 -10z m527 13
c0 -5 -5 -10 -11 -10 -5 0 -7 5 -4 10 3 6 8 10 11 10 2 0 4 -4 4 -10z m-130
-10 c0 -5 -4 -10 -10 -10 -5 0 -10 5 -10 10 0 6 5 10 10 10 6 0 10 -4 10 -10z
m-1760 -10 c0 -5 -4 -10 -10 -10 -5 0 -10 5 -10 10 0 6 5 10 10 10 6 0 10 -4
10 -10z m265 -10 c-3 -5 -10 -10 -16 -10 -5 0 -9 5 -9 10 0 6 7 10 16 10 8 0
12 -4 9 -10z m300 -15 c0 -11 -8 -21 -17 -23 -14 -3 -18 3 -18 23 0 20 4 26
18 23 9 -2 17 -12 17 -23z m865 -6 c0 -12 -7 -19 -20 -19 -14 0 -20 7 -20 24
0 19 4 23 20 19 11 -3 20 -14 20 -24z m169 24 c0 -5 -4 -17 -9 -28 -8 -18 -9
-17 -9 8 -1 15 4 27 9 27 6 0 10 -3 9 -7z m391 -3 c0 -5 -5 -10 -11 -10 -5 0
-7 5 -4 10 3 6 8 10 11 10 2 0 4 -4 4 -10z m-1280 -40 c0 -25 -8 -25 -40 0
l-25 20 33 0 c25 0 32 -4 32 -20z m94 4 c11 -29 6 -43 -20 -60 -24 -16 -26
-16 -45 3 -16 16 -18 24 -10 46 8 21 17 27 40 27 17 0 31 -6 35 -16z m76 10
c0 -8 -32 -33 -42 -34 -5 0 -8 9 -8 20 0 15 7 20 25 20 14 0 25 -3 25 -6z m32
-112 c-10 -19 -23 -37 -29 -39 -10 -4 -50 94 -42 101 2 2 22 15 44 30 l40 26
3 -41 c2 -25 -4 -54 -16 -77z m372 110 c3 -5 -6 -15 -20 -23 -22 -11 -27 -11
-34 1 -7 11 -4 17 13 22 32 9 35 9 41 0z m63 -14 c-3 -8 -6 -5 -6 6 -1 11 2
17 5 13 3 -3 4 -12 1 -19z m-688 -18 l34 -29 -13 -45 c-7 -25 -16 -46 -20 -46
-18 0 -50 69 -50 109 0 22 3 41 8 41 4 -1 22 -14 41 -30z m394 -3 l38 -32 -14
-40 c-16 -45 -24 -47 -51 -12 -19 26 -35 117 -20 117 5 0 26 -15 47 -33z m51
18 c-8 -19 -15 -19 -40 0 -18 14 -17 14 13 15 25 0 31 -4 27 -15z m102 -11 c5
-18 1 -29 -12 -39 -40 -30 -82 -6 -70 40 5 21 12 25 41 25 29 0 36 -4 41 -26z
m-1229 -20 c-9 -17 -17 -23 -21 -15 -4 6 -3 11 2 11 5 0 12 10 15 22 4 12 9
19 12 16 4 -3 0 -19 -8 -34z m1353 19 c0 -34 -20 -90 -38 -106 -17 -15 -19
-14 -34 28 l-17 44 32 26 c38 29 57 32 57 8z m385 -10 c0 -16 4 -31 9 -34 4
-4 5 -13 0 -20 -11 -19 -13 -49 -2 -49 5 0 6 -6 2 -12 -12 -19 -12 -48 0 -48
7 0 7 -3 -1 -8 -6 -4 -10 -20 -9 -35 2 -15 0 -27 -5 -27 -8 0 -18 248 -10 256
11 10 17 2 16 -23z m-1605 7 c0 -5 -4 -10 -9 -10 -6 0 -13 5 -16 10 -3 6 1 10
9 10 9 0 16 -4 16 -10z m157 4 c-3 -3 -12 -4 -19 -1 -8 3 -5 6 6 6 11 1 17 -2
13 -5z m1332 -36 c1 -5 -3 -8 -9 -8 -5 0 -10 12 -9 28 0 24 1 25 9 7 5 -11 9
-23 9 -27z m371 38 c0 -11 -19 -15 -25 -6 -3 5 1 10 9 10 9 0 16 -2 16 -4z
m-1815 -16 c3 -5 1 -10 -4 -10 -6 0 -11 5 -11 10 0 6 2 10 4 10 3 0 8 -4 11
-10z m406 -27 c0 -21 2 -57 5 -80 3 -38 -8 -64 -23 -49 -3 3 -8 41 -10 86 -4
69 -3 80 11 80 12 0 16 -10 17 -37z m862 -28 c6 -65 0 -125 -12 -125 -24 1
-29 20 -24 103 7 107 27 120 36 22z m-53 45 c0 -5 -4 -10 -10 -10 -5 0 -10 5
-10 10 0 6 5 10 10 10 6 0 10 -4 10 -10z m440 0 c0 -5 -2 -10 -4 -10 -3 0 -8
5 -11 10 -3 6 -1 10 4 10 6 0 11 -4 11 -10z m194 -5 c3 -8 1 -15 -4 -15 -6 0
-10 7 -10 15 0 8 2 15 4 15 2 0 6 -7 10 -15z m-1869 -4 c3 -5 1 -12 -5 -16 -5
-3 -10 1 -10 9 0 18 6 21 15 7z m452 -23 c-3 -8 -6 -5 -6 6 -1 11 2 17 5 13 3
-3 4 -12 1 -19z m1303 18 c0 -3 -4 -8 -10 -11 -5 -3 -10 -1 -10 4 0 6 5 11 10
11 6 0 10 -2 10 -4z m-1882 -31 c-3 -3 -9 2 -12 12 -6 14 -5 15 5 6 7 -7 10
-15 7 -18z m252 15 c0 -5 -5 -10 -11 -10 -5 0 -7 5 -4 10 3 6 8 10 11 10 2 0
4 -4 4 -10z m570 -16 c16 -41 12 -47 -19 -22 -20 16 -26 27 -18 36 15 19 27
15 37 -14z m408 -14 c13 -35 4 -38 -32 -9 -25 20 -26 22 -9 34 22 16 28 13 41
-25z m539 18 c-3 -8 -6 -5 -6 6 -1 11 2 17 5 13 3 -3 4 -12 1 -19z m-1042 3
c3 -6 -4 -15 -15 -21 -22 -12 -23 -10 -14 14 7 18 20 21 29 7z m387 -23 c-15
-15 -24 -6 -16 16 5 12 10 14 17 7 8 -8 8 -14 -1 -23z m238 28 c0 -3 -4 -8
-10 -11 -5 -3 -10 -1 -10 4 0 6 5 11 10 11 6 0 10 -2 10 -4z m490 -6 c0 -5 -4
-10 -10 -10 -5 0 -10 5 -10 10 0 6 5 10 10 10 6 0 10 -4 10 -10z m-1760 -10
c0 -5 -2 -10 -4 -10 -3 0 -8 5 -11 10 -3 6 -1 10 4 10 6 0 11 -4 11 -10z m83
-10 c-8 -30 -21 -33 -19 -5 0 14 6 25 13 25 6 0 9 -9 6 -20z m-213 0 c0 -5 -4
-10 -9 -10 -6 0 -13 5 -16 10 -3 6 1 10 9 10 9 0 16 -4 16 -10z m258 -15 c-3
-3 -9 2 -12 12 -6 14 -5 15 5 6 7 -7 10 -15 7 -18z m49 9 c-3 -3 -12 -4 -19
-1 -8 3 -5 6 6 6 11 1 17 -2 13 -5z m534 -21 c22 -14 38 -31 36 -36 -9 -29
-100 -30 -140 -2 -17 12 -16 14 15 39 18 14 36 26 41 26 4 0 25 -12 48 -27z
m401 -3 c45 -30 44 -42 -4 -53 -38 -9 -118 7 -118 23 0 10 72 62 80 58 3 -2
22 -14 42 -28z m168 18 c0 -19 -18 -43 -25 -36 -9 9 4 48 16 48 5 0 9 -6 9
-12z m440 -8 c0 -5 -2 -10 -4 -10 -3 0 -8 5 -11 10 -3 6 -1 10 4 10 6 0 11 -4
11 -10z m120 -6 c0 -8 -5 -12 -10 -9 -6 4 -8 11 -5 16 9 14 15 11 15 -7z
m-1320 -26 c0 -5 -4 -8 -10 -8 -5 0 -10 10 -10 23 0 18 2 19 10 7 5 -8 10 -18
10 -22z m1260 22 c0 -5 -4 -10 -10 -10 -5 0 -10 5 -10 10 0 6 5 10 10 10 6 0
10 -4 10 -10z m-1740 -10 c0 -5 -2 -10 -4 -10 -3 0 -8 5 -11 10 -3 6 -1 10 4
10 6 0 11 -4 11 -10z m54 -5 c-4 -8 -11 -12 -16 -9 -6 4 -5 10 3 15 19 12 19
11 13 -6z m86 5 c-19 -13 -30 -13 -30 0 0 6 10 10 23 10 18 0 19 -2 7 -10z
m1050 0 c0 -5 -5 -10 -11 -10 -5 0 -7 5 -4 10 3 6 8 10 11 10 2 0 4 -4 4 -10z
m-1340 -10 c0 -5 -4 -10 -9 -10 -6 0 -13 5 -16 10 -3 6 1 10 9 10 9 0 16 -4
16 -10z m1795 0 c3 -5 1 -10 -4 -10 -6 0 -11 5 -11 10 0 6 2 10 4 10 3 0 8 -4
11 -10z m201 -20 c0 -11 -6 -20 -13 -20 -16 0 -17 12 -1 28 7 7 12 12 13 12 0
0 1 -9 1 -20z m-1816 1 c0 -5 8 -12 18 -15 10 -3 7 -4 -7 -3 -24 2 -44 27 -22
27 6 0 11 -4 11 -9z m756 -28 c-11 -11 -19 6 -11 24 8 17 8 17 12 0 3 -10 2
-21 -1 -24z m124 16 c0 -5 -4 -9 -10 -9 -5 0 -10 7 -10 16 0 8 5 12 10 9 6 -3
10 -10 10 -16z m284 13 c9 -15 -11 -34 -35 -30 -22 3 -22 4 -5 21 19 18 32 22
40 9z m-1287 -24 c-3 -8 -6 -5 -6 6 -1 11 2 17 5 13 3 -3 4 -12 1 -19z m635 5
c32 -38 31 -43 -9 -42 -36 1 -36 2 -9 8 l30 6 -27 12 c-15 7 -27 17 -27 23 0
16 26 12 42 -7z m685 -5 c-3 -8 -6 -5 -6 6 -1 11 2 17 5 13 3 -3 4 -12 1 -19z
m683 1 c0 -6 -4 -7 -10 -4 -5 3 -10 11 -10 16 0 6 5 7 10 4 6 -3 10 -11 10
-16z m-1920 1 c0 -5 -2 -10 -4 -10 -3 0 -8 5 -11 10 -3 6 -1 10 4 10 6 0 11
-4 11 -10z m160 0 c0 -5 -10 -10 -22 -9 -22 0 -22 1 -3 9 11 5 21 9 23 9 1 1
2 -3 2 -9z m324 -31 c-10 -16 -24 -9 -24 12 0 18 2 19 15 9 8 -7 12 -16 9 -21z
m883 9 c-3 -8 -6 -5 -6 6 -1 11 2 17 5 13 3 -3 4 -12 1 -19z m-738 3 c8 -5 9
-11 3 -15 -13 -8 -42 3 -42 15 0 11 21 11 39 0z m51 -1 c0 -5 -2 -10 -4 -10
-3 0 -8 5 -11 10 -3 6 -1 10 4 10 6 0 11 -4 11 -10z m430 -5 c-13 -16 -55 -20
-64 -6 -9 14 5 21 42 21 29 0 33 -2 22 -15z m-1200 -5 c0 -5 -2 -10 -4 -10 -3
0 -8 5 -11 10 -3 6 -1 10 4 10 6 0 11 -4 11 -10z m130 6 c0 -3 -4 -8 -10 -11
-5 -3 -10 -1 -10 4 0 6 5 11 10 11 6 0 10 -2 10 -4z m400 -6 c0 -5 -4 -10 -10
-10 -5 0 -10 5 -10 10 0 6 5 10 10 10 6 0 10 -4 10 -10z m715 0 c3 -6 -1 -13
-10 -16 -19 -8 -30 0 -20 15 8 14 22 14 30 1z m50 0 c3 -5 -1 -10 -9 -10 -9 0
-16 5 -16 10 0 6 4 10 9 10 6 0 13 -4 16 -10z m-1360 -10 c3 -5 1 -10 -4 -10
-6 0 -11 5 -11 10 0 6 2 10 4 10 3 0 8 -4 11 -10z m1175 0 c0 -5 -4 -10 -10
-10 -5 0 -10 5 -10 10 0 6 5 10 10 10 6 0 10 -4 10 -10z m280 0 c0 -5 -9 -10
-21 -10 -11 0 -17 5 -14 10 3 6 13 10 21 10 8 0 14 -4 14 -10z m265 0 c3 -5 1
-10 -4 -10 -6 0 -11 5 -11 10 0 6 2 10 4 10 3 0 8 -4 11 -10z m270 -10 c3 -5
1 -10 -4 -10 -6 0 -11 5 -11 10 0 6 2 10 4 10 3 0 8 -4 11 -10z m-1850 -10 c3
-5 2 -10 -4 -10 -5 0 -13 5 -16 10 -3 6 -2 10 4 10 5 0 13 -4 16 -10z m50 0
c3 -5 1 -10 -4 -10 -6 0 -11 5 -11 10 0 6 2 10 4 10 3 0 8 -4 11 -10z m112 4
c-3 -3 -12 -4 -19 -1 -8 3 -5 6 6 6 11 1 17 -2 13 -5z m-227 -14 c0 -5 -4 -10
-10 -10 -5 0 -10 5 -10 10 0 6 5 10 10 10 6 0 10 -4 10 -10z m521 -2 c1 -7 1
-44 2 -83 0 -54 -3 -70 -14 -70 -8 0 -14 6 -13 13 1 6 2 44 3 82 0 39 5 70 11
70 6 0 10 -6 11 -12z m179 0 c-14 -6 -40 -18 -58 -26 -36 -16 -37 -16 -46 16
-7 21 -5 22 61 21 58 0 64 -2 43 -11z m149 -15 c23 -15 41 -30 41 -35 0 -14
-16 -9 -35 12 -10 11 -23 20 -29 20 -6 1 -24 7 -41 15 l-30 13 27 1 c14 1 45
-11 67 -26z m133 -1 c-21 -17 -25 -32 -38 -153 -5 -43 -2 -65 10 -90 11 -21
13 -35 6 -37 -5 -2 -10 -19 -10 -38 l0 -34 -50 0 c-52 0 -65 15 -35 40 13 10
15 9 15 -10 0 -13 5 -20 12 -18 15 5 17 37 4 56 -5 7 -4 17 2 25 21 24 30 95
20 140 -6 23 -10 57 -9 75 1 26 -4 34 -24 44 -41 18 -29 23 47 20 70 -4 71 -4
50 -20z m-1022 -3 c0 -6 -4 -7 -10 -4 -5 3 -10 11 -10 16 0 6 5 7 10 4 6 -3
10 -11 10 -16z m1104 8 c-16 -7 -44 -22 -62 -35 -25 -18 -32 -20 -32 -9 0 25
52 56 90 56 l35 -1 -31 -11z m199 -7 c-6 -21 -28 -27 -38 -10 -3 5 -20 14 -38
19 -29 8 -27 9 25 10 51 1 56 -1 51 -19z m121 -8 c-3 -116 -4 -122 -19 -122
-12 0 -15 15 -15 76 0 66 2 75 18 72 10 -2 17 -12 16 -26z m-804 -2 c6 -11 8
-25 5 -30 -11 -19 -23 -10 -27 20 -5 34 6 39 22 10z m1100 16 c0 -3 -4 -8 -10
-11 -5 -3 -10 -1 -10 4 0 6 5 11 10 11 6 0 10 -2 10 -4z m-964 -18 c-3 -7 -11
-32 -18 -55 -12 -43 -12 -43 -60 -43 -26 0 -48 3 -48 6 0 3 7 18 17 34 24 42
125 95 109 58z m88 -2 c29 -12 86 -71 86 -89 0 -4 -24 -7 -54 -7 l-54 0 -11
44 c-18 73 -18 73 33 52z m283 -48 c-15 -43 -15 -43 -67 -46 l-53 -3 19 33
c20 33 106 87 112 69 2 -5 -3 -29 -11 -53z m133 29 c19 -14 50 -58 50 -69 0
-5 -22 -8 -50 -8 l-49 0 -14 48 c-8 26 -13 50 -11 54 5 8 53 -8 74 -25z m90 2
c0 -21 -16 -26 -23 -6 -6 17 3 38 14 31 5 -3 9 -14 9 -25z m-1230 0 c0 -5 -4
-9 -10 -9 -5 0 -10 7 -10 16 0 8 5 12 10 9 6 -3 10 -10 10 -16z m1820 11 c24
-8 24 -8 -5 -8 -16 0 -43 4 -60 8 l-30 8 35 0 c19 0 46 -4 60 -8z m-1673 -6
c-3 -3 -12 -4 -19 -1 -8 3 -5 6 6 6 11 1 17 -2 13 -5z m913 -66 c0 -11 -7 -18
-20 -18 -22 0 -24 9 -13 61 l7 34 12 -30 c7 -16 13 -38 14 -47z m535 -28 c-1
-55 -4 -103 -8 -106 -4 -4 -7 41 -7 99 0 59 4 107 8 107 4 0 7 -45 7 -100z
m-1547 78 c7 -7 12 -17 12 -22 0 -6 -5 -3 -11 7 -6 9 -14 15 -20 12 -5 -4 -9
-1 -9 4 0 14 13 14 28 -1z m632 -59 c0 -5 -11 -9 -25 -9 -28 0 -29 4 -14 50
l12 32 13 -32 c8 -18 14 -36 14 -41z m-213 14 c-3 -10 -5 -4 -5 12 0 17 2 24
5 18 2 -7 2 -21 0 -30z m33 17 c0 -5 -4 -10 -10 -10 -5 0 -10 5 -10 10 0 6 5
10 10 10 6 0 10 -4 10 -10z m-460 -32 c0 -5 -4 -8 -10 -8 -5 0 -10 10 -10 23
0 18 2 19 10 7 5 -8 10 -18 10 -22z m1190 22 c0 -5 -4 -10 -10 -10 -5 0 -10 5
-10 10 0 6 5 10 10 10 6 0 10 -4 10 -10z m-1300 -21 c0 -11 -4 -17 -10 -14 -5
3 -10 1 -10 -6 0 -10 -3 -10 -11 -2 -8 8 -8 15 2 27 19 21 29 20 29 -5z m1905
11 c3 -6 -1 -7 -9 -4 -18 7 -21 14 -7 14 6 0 13 -4 16 -10z m-1979 -27 c-7 -7
-26 7 -26 19 0 6 6 6 15 -2 9 -7 13 -15 11 -17z m149 17 c3 -5 2 -10 -4 -10
-5 0 -13 5 -16 10 -3 6 -2 10 4 10 5 0 13 -4 16 -10z m1242 -12 c-3 -8 -6 -5
-6 6 -1 11 2 17 5 13 3 -3 4 -12 1 -19z m513 12 c0 -5 -4 -10 -10 -10 -5 0
-10 5 -10 10 0 6 5 10 10 10 6 0 10 -4 10 -10z m-1803 -22 c-3 -8 -6 -5 -6 6
-1 11 2 17 5 13 3 -3 4 -12 1 -19z m633 -18 c0 -25 -11 -25 -41 0 l-24 19 33
1 c25 0 32 -4 32 -20z m101 -6 c12 -29 11 -32 -16 -50 -23 -15 -27 -15 -50 0
-24 16 -25 34 -4 61 13 18 62 10 70 -11z m89 17 c0 -4 -12 -13 -27 -20 -21 -9
-28 -9 -34 1 -4 6 -6 15 -4 18 5 8 65 10 65 1z m200 -11 c0 -23 -4 -24 -31
-10 -27 15 -24 30 6 30 18 0 25 -5 25 -20z m190 11 c0 -8 -43 -41 -54 -41 -8
0 -16 32 -10 41 7 12 64 12 64 0z m-1135 -20 c-3 -6 -11 -11 -17 -11 -6 0 -6
6 2 15 14 17 26 13 15 -4z m535 -46 c0 -22 -22 -75 -31 -75 -20 0 -54 96 -43
124 5 13 11 11 40 -10 19 -15 34 -32 34 -39z m363 32 l38 -32 -13 -43 c-7 -24
-17 -44 -23 -45 -16 -1 -55 84 -55 120 0 18 3 33 8 33 4 0 24 -15 45 -33z
m152 6 c4 -19 1 -32 -14 -46 -19 -19 -21 -19 -45 -3 -16 10 -26 26 -26 40 0
30 7 36 46 36 26 0 33 -5 39 -27z m-618 -20 c-3 -10 -5 -4 -5 12 0 17 2 24 5
18 2 -7 2 -21 0 -30z m353 12 c0 -29 -20 -80 -43 -110 -15 -20 -16 -20 -25 5
-25 69 -24 78 15 105 47 31 53 31 53 0z m386 -22 c-8 -34 -42 -93 -54 -93 -13
0 -35 81 -25 90 65 56 90 57 79 3z m-1299 15 c-3 -8 -6 -5 -6 6 -1 11 2 17 5
13 3 -3 4 -12 1 -19z m33 12 c0 -5 -2 -10 -4 -10 -3 0 -8 5 -11 10 -3 6 -1 10
4 10 6 0 11 -4 11 -10z m139 -11 c-22 -13 -31 -11 -17 5 7 8 17 12 22 9 4 -3
2 -9 -5 -14z m1221 17 c0 -11 -19 -15 -25 -6 -3 5 1 10 9 10 9 0 16 -2 16 -4z
m257 -18 c-3 -8 -6 -5 -6 6 -1 11 2 17 5 13 3 -3 4 -12 1 -19z m-1672 2 c3 -5
2 -10 -4 -10 -5 0 -13 5 -16 10 -3 6 -2 10 4 10 5 0 13 -4 16 -10z m555 -6 c0
-8 -4 -12 -10 -9 -5 3 -10 10 -10 16 0 5 5 9 10 9 6 0 10 -7 10 -16z m-435 -3
c3 -5 1 -12 -5 -16 -5 -3 -10 1 -10 9 0 18 6 21 15 7z m140 -1 c3 -5 1 -10 -4
-10 -6 0 -11 5 -11 10 0 6 2 10 4 10 3 0 8 -4 11 -10z m1548 3 c-7 -2 -19 -2
-25 0 -7 3 -2 5 12 5 14 0 19 -2 13 -5z m-393 -63 c0 -47 -3 -60 -15 -60 -12
0 -15 13 -15 60 0 47 3 60 15 60 12 0 15 -13 15 -60z m-853 -38 c1 -56 -2 -72
-13 -72 -11 0 -14 17 -14 76 0 56 3 75 13 72 8 -3 13 -29 14 -76z m273 39 c10
-36 4 -38 -29 -10 -23 19 -23 20 -5 33 23 17 22 17 34 -23z m520 35 c0 -3 -4
-8 -10 -11 -5 -3 -10 -1 -10 4 0 6 5 11 10 11 6 0 10 -2 10 -4z m535 -6 c3 -5
1 -10 -4 -10 -6 0 -11 5 -11 10 0 6 2 10 4 10 3 0 8 -4 11 -10z m-1949 -27
c-10 -10 -19 5 -10 18 6 11 8 11 12 0 2 -7 1 -15 -2 -18z m104 17 c0 -5 -4
-10 -10 -10 -5 0 -10 5 -10 10 0 6 5 10 10 10 6 0 10 -4 10 -10z m688 1 c10
-6 7 -12 -12 -25 -26 -16 -31 -12 -20 18 7 18 13 19 32 7z m402 -20 c0 -8 -41
-33 -46 -28 -3 2 0 17 6 32 9 23 13 25 25 15 8 -7 15 -15 15 -19z m94 -30 c-2
-2 -13 4 -24 14 -16 15 -18 21 -8 33 11 12 14 10 24 -14 7 -16 10 -31 8 -33z
m-1119 39 c3 -5 1 -10 -4 -10 -6 0 -11 5 -11 10 0 6 2 10 4 10 3 0 8 -4 11
-10z m-95 -21 c0 -6 -4 -7 -10 -4 -5 3 -10 11 -10 16 0 6 5 7 10 4 6 -3 10
-11 10 -16z m590 -10 c0 -10 -4 -19 -10 -19 -5 0 -10 12 -10 26 0 14 4 23 10
19 6 -3 10 -15 10 -26z m756 -27 c-4 -3 -11 -1 -17 5 -8 8 -7 18 3 34 l13 24
3 -28 c2 -16 1 -31 -2 -35z m-555 21 c21 -16 37 -32 36 -38 -9 -27 -134 -24
-152 5 -4 7 60 60 73 60 2 0 21 -12 43 -27z m902 7 c3 -11 1 -20 -4 -20 -5 0
-9 9 -9 20 0 11 2 20 4 20 2 0 6 -9 9 -20z m67 10 c0 -5 -2 -10 -4 -10 -3 0
-8 5 -11 10 -3 6 -1 10 4 10 6 0 11 -4 11 -10z m110 0 c0 -5 -5 -10 -11 -10
-5 0 -7 5 -4 10 3 6 8 10 11 10 2 0 4 -4 4 -10z m-1740 -4 c0 -3 -4 -8 -10
-11 -5 -3 -10 -1 -10 4 0 6 5 11 10 11 6 0 10 -2 10 -4z m1059 -25 l34 -28
-36 -12 c-33 -11 -86 -8 -111 7 -10 6 53 61 69 61 6 0 25 -12 44 -28z m-939
15 c0 -3 -4 -8 -10 -11 -5 -3 -10 -1 -10 4 0 6 5 11 10 11 6 0 10 -2 10 -4z
m1527 -18 c-3 -8 -6 -5 -6 6 -1 11 2 17 5 13 3 -3 4 -12 1 -19z m-1677 2 c0
-5 -2 -10 -4 -10 -3 0 -8 5 -11 10 -3 6 -1 10 4 10 6 0 11 -4 11 -10z m80 0
c0 -5 -2 -10 -4 -10 -3 0 -8 5 -11 10 -3 6 -1 10 4 10 6 0 11 -4 11 -10z
m1121 -13 c-13 -13 -26 -3 -16 12 3 6 11 8 17 5 6 -4 6 -10 -1 -17z m-1311
-18 c0 -5 -4 -9 -10 -9 -5 0 -10 7 -10 16 0 8 5 12 10 9 6 -3 10 -10 10 -16z
m260 11 c0 -5 -4 -10 -10 -10 -5 0 -10 5 -10 10 0 6 5 10 10 10 6 0 10 -4 10
-10z m1448 -8 c2 -7 -3 -12 -10 -12 -8 0 -15 7 -15 15 0 18 19 15 25 -3z
m-1062 -6 c21 -16 19 -20 -12 -30 -24 -7 -60 16 -50 32 10 16 38 15 62 -2z
m1244 4 c0 -5 -4 -10 -10 -10 -5 0 -10 5 -10 10 0 6 5 10 10 10 6 0 10 -4 10
-10z m-850 -15 c20 -24 -2 -41 -24 -20 -9 9 -16 21 -16 26 0 14 26 10 40 -6z
m287 -1 c5 -15 -36 -36 -58 -29 -26 8 -19 28 12 36 28 8 42 6 46 -7z m81 -12
c3 -17 -2 -22 -17 -22 -16 0 -21 6 -21 26 0 33 33 30 38 -4z m437 18 c3 -5 2
-10 -4 -10 -5 0 -13 5 -16 10 -3 6 -2 10 4 10 5 0 13 -4 16 -10z m-1725 -14
c0 -3 -4 -8 -10 -11 -5 -3 -10 -1 -10 4 0 6 5 11 10 11 6 0 10 -2 10 -4z m719
-12 c2 -2 -32 -4 -77 -4 -45 0 -82 4 -82 9 0 9 149 3 159 -5z m856 6 c3 -5 1
-10 -4 -10 -6 0 -11 5 -11 10 0 6 2 10 4 10 3 0 8 -4 11 -10z m-1720 -10 c3
-5 2 -10 -4 -10 -5 0 -13 5 -16 10 -3 6 -2 10 4 10 5 0 13 -4 16 -10z m55 2
c0 -5 -7 -9 -15 -9 -8 0 -12 4 -9 9 3 4 9 8 15 8 5 0 9 -4 9 -8z m1196 -3 c3
-5 -22 -9 -55 -9 -33 0 -62 4 -65 8 -3 5 22 9 54 9 33 1 63 -3 66 -8z m469
-18 c-3 -5 -1 -13 5 -16 6 -4 8 -15 5 -25 -12 -38 -13 -60 -4 -66 6 -3 6 -11
2 -17 -10 -15 -10 -68 0 -84 5 -8 4 -13 -2 -13 -12 0 -10 -27 2 -47 5 -8 3
-13 -3 -13 -7 0 -10 -6 -7 -13 3 -8 1 -20 -4 -28 -5 -8 -9 53 -9 159 0 114 4
172 11 172 5 0 8 -4 4 -9z m-1599 -28 c-7 -7 -26 7 -26 19 0 6 6 6 15 -2 9 -7
13 -15 11 -17z m461 -33 c2 -47 -1 -60 -12 -60 -12 0 -15 14 -15 60 0 42 4 60
13 60 9 0 13 -19 14 -60z m94 28 c-28 -22 -41 -23 -41 -3 0 17 39 36 54 27 5
-3 -1 -13 -13 -24z m221 14 c15 -15 58 -16 58 -2 0 6 14 10 30 10 20 0 30 -5
30 -15 0 -19 27 -19 64 0 31 16 86 20 86 6 0 -15 -48 -41 -101 -55 -29 -7 -57
-20 -64 -29 -17 -23 -42 -21 -48 3 -3 11 -12 20 -21 20 -18 0 -93 38 -102 51
-15 25 45 34 68 11z m-275 2 c-3 -3 -12 -4 -19 -1 -8 3 -5 6 6 6 11 1 17 -2
13 -5z m181 -16 c5 -24 -10 -23 -39 2 l-24 20 30 -2 c19 -2 31 -9 33 -20z
m259 16 c-3 -3 -12 -4 -19 -1 -8 3 -5 6 6 6 11 1 17 -2 13 -5z m198 -3 c-18
-17 -65 -17 -65 -1 0 6 17 10 37 10 23 0 33 -4 28 -9z m96 -1 c21 -12 26 -40
6 -40 -20 0 -58 30 -52 41 8 12 22 11 46 -1z m77 -39 c2 -24 0 -51 -3 -60 -10
-26 -35 15 -35 59 0 67 33 67 38 1z m-694 -9 c-14 -22 -44 -28 -44 -8 0 23 31
49 44 36 7 -7 8 -15 0 -28z m1206 34 c0 -3 -4 -8 -10 -11 -5 -3 -10 -1 -10 4
0 6 5 11 10 11 6 0 10 -2 10 -4z m-750 -21 c0 -8 -4 -15 -9 -15 -13 0 -22 16
-14 24 11 11 23 6 23 -9z m655 5 c3 -5 -1 -10 -9 -10 -9 0 -16 5 -16 10 0 6 4
10 9 10 6 0 13 -4 16 -10z m-1730 -10 c3 -5 2 -10 -4 -10 -5 0 -13 5 -16 10
-3 6 -2 10 4 10 5 0 13 -4 16 -10z m95 0 c0 -5 -4 -10 -10 -10 -5 0 -10 5 -10
10 0 6 5 10 10 10 6 0 10 -4 10 -10z m1044 0 c16 -6 26 -17 26 -30 0 -24 -22
-26 -44 -4 -15 14 -22 44 -12 44 3 0 16 -4 30 -10z m-594 -12 c0 -21 -13 -35
-39 -43 -18 -5 -22 -4 -16 6 24 42 55 62 55 37z m133 5 c-7 -2 -19 -2 -25 0
-7 3 -2 5 12 5 14 0 19 -2 13 -5z m559 -23 c31 -28 32 -29 11 -30 -23 0 -63
32 -63 50 0 18 19 11 52 -20z m563 20 c3 -5 1 -10 -4 -10 -6 0 -11 5 -11 10 0
6 2 10 4 10 3 0 8 -4 11 -10z m-1048 -17 c5 -14 -40 -28 -57 -18 -8 5 -8 11 1
21 14 17 51 15 56 -3z m273 2 c7 -9 10 -19 6 -22 -8 -9 -38 9 -44 25 -5 17 23
15 38 -3z m-1135 -5 c3 -5 1 -10 -4 -10 -6 0 -11 5 -11 10 0 6 2 10 4 10 3 0
8 -4 11 -10z m230 0 c3 -5 1 -10 -4 -10 -6 0 -11 5 -11 10 0 6 2 10 4 10 3 0
8 -4 11 -10z m545 1 c0 -12 -20 -25 -27 -18 -7 7 6 27 18 27 5 0 9 -4 9 -9z
m417 -17 c-9 -9 -28 6 -21 18 4 6 10 6 17 -1 6 -6 8 -13 4 -17z m656 19 c-7
-2 -21 -2 -30 0 -10 3 -4 5 12 5 17 0 24 -2 18 -5z m-942 -26 c-13 -13 -26 -3
-16 12 3 6 11 8 17 5 6 -4 6 -10 -1 -17z m187 6 c6 -19 -25 -16 -32 3 -4 11
-1 14 11 12 9 -2 18 -9 21 -15z m587 7 c3 -5 1 -10 -4 -10 -6 0 -11 5 -11 10
0 6 2 10 4 10 3 0 8 -4 11 -10z m-1648 -32 c-3 -7 -5 -2 -5 12 0 14 2 19 5 13
2 -7 2 -19 0 -25z m123 22 c0 -5 -2 -10 -4 -10 -3 0 -8 5 -11 10 -3 6 -1 10 4
10 6 0 11 -4 11 -10z m520 0 c0 -5 -5 -10 -11 -10 -5 0 -7 5 -4 10 3 6 8 10
11 10 2 0 4 -4 4 -10z m365 0 c3 -5 1 -10 -4 -10 -6 0 -11 5 -11 10 0 6 2 10
4 10 3 0 8 -4 11 -10z m567 -102 c-4 -205 -8 -225 -10 -55 -1 92 1 167 6 167
4 0 6 -51 4 -112z m163 102 c3 -6 -4 -10 -17 -10 -18 0 -20 2 -8 10 19 12 18
12 25 0z m-1550 -41 c-4 -5 -12 -9 -18 -8 -9 0 -8 2 1 6 6 2 9 10 6 15 -4 7
-2 8 5 4 6 -4 9 -12 6 -17z m75 11 c0 -5 -9 -10 -20 -10 -11 0 -20 5 -20 10 0
6 9 10 20 10 11 0 20 -4 20 -10z m272 -22 c-15 -15 -26 -4 -18 18 5 13 9 15
18 6 9 -9 9 -15 0 -24z m203 12 c0 -12 -18 -16 -87 -18 -72 -2 -88 0 -88 12 0
17 21 21 110 21 51 0 65 -3 65 -15z m193 6 c15 -16 -19 -26 -83 -26 -69 0 -93
8 -81 29 5 8 155 5 164 -3z m190 -8 c-3 -9 -32 -14 -86 -16 -68 -2 -82 0 -82
13 0 12 15 15 86 15 64 0 85 -3 82 -12z m76 -3 c-4 -8 -17 -15 -30 -15 -15 0
-24 6 -24 15 0 10 10 15 30 15 22 0 28 -4 24 -15z m146 0 c0 -12 -13 -15 -60
-15 -47 0 -60 3 -60 15 0 12 13 15 60 15 47 0 60 -3 60 -15z m50 0 c0 -8 -7
-15 -15 -15 -8 0 -15 7 -15 15 0 8 7 15 15 15 8 0 15 -7 15 -15z m-1420 -5 c0
-5 -4 -10 -10 -10 -5 0 -10 5 -10 10 0 6 5 10 10 10 6 0 10 -4 10 -10z m110 0
c0 -5 -2 -10 -4 -10 -3 0 -8 5 -11 10 -3 6 -1 10 4 10 6 0 11 -4 11 -10z
m1795 0 c-3 -5 -17 -10 -31 -10 -13 0 -24 5 -24 10 0 6 14 10 31 10 17 0 28
-4 24 -10z m-1861 -15 c-4 -8 -8 -15 -10 -15 -2 0 -4 7 -4 15 0 8 4 15 10 15
5 0 7 -7 4 -15z m1756 11 c0 -3 -4 -8 -10 -11 -5 -3 -10 -1 -10 4 0 6 5 11 10
11 6 0 10 -2 10 -4z m147 -2 c-3 -3 -12 -4 -19 -1 -8 3 -5 6 6 6 11 1 17 -2
13 -5z m-287 -25 c0 -5 -4 -9 -10 -9 -5 0 -10 7 -10 16 0 8 5 12 10 9 6 -3 10
-10 10 -16z m-1430 1 c0 -5 -5 -10 -11 -10 -5 0 -7 5 -4 10 3 6 8 10 11 10 2
0 4 -4 4 -10z m-40 -16 c0 -8 -4 -12 -10 -9 -5 3 -10 10 -10 16 0 5 5 9 10 9
6 0 10 -7 10 -16z m1660 6 c0 -5 -4 -10 -9 -10 -6 0 -13 5 -16 10 -3 6 1 10 9
10 9 0 16 -4 16 -10z m-1733 -22 c-3 -8 -6 -5 -6 6 -1 11 2 17 5 13 3 -3 4
-12 1 -19z m163 18 c0 -11 -19 -15 -25 -6 -3 5 1 10 9 10 9 0 16 -2 16 -4z
m-270 -46 c0 -5 -4 -10 -10 -10 -5 0 -10 5 -10 10 0 6 5 10 10 10 6 0 10 -4
10 -10z m160 1 c0 -6 -4 -13 -10 -16 -5 -3 -10 1 -10 9 0 9 5 16 10 16 6 0 10
-4 10 -9z m1765 -1 c3 -5 1 -10 -4 -10 -6 0 -11 5 -11 10 0 6 2 10 4 10 3 0 8
-4 11 -10z m-1874 -31 c-9 -22 -10 -22 -10 -3 -1 11 2 24 6 27 12 12 14 0 4
-24z m69 11 c0 -5 -4 -10 -10 -10 -5 0 -10 5 -10 10 0 6 5 10 10 10 6 0 10 -4
10 -10z m1550 0 c0 -5 -5 -10 -11 -10 -5 0 -7 5 -4 10 3 6 8 10 11 10 2 0 4
-4 4 -10z m-1700 -20 c0 -5 -5 -10 -11 -10 -5 0 -7 5 -4 10 3 6 8 10 11 10 2
0 4 -4 4 -10z m1930 0 c0 -5 -2 -10 -4 -10 -3 0 -8 5 -11 10 -3 6 -1 10 4 10
6 0 11 -4 11 -10z m-1815 -21 c-10 -15 -25 -10 -19 6 4 8 10 12 15 9 5 -3 7
-10 4 -15z m135 12 c0 -6 -4 -13 -10 -16 -5 -3 -10 1 -10 9 0 9 5 16 10 16 6
0 10 -4 10 -9z m-50 -11 c0 -5 -4 -10 -10 -10 -5 0 -10 5 -10 10 0 6 5 10 10
10 6 0 10 -4 10 -10z m-40 -4 c0 -3 -4 -8 -10 -11 -5 -3 -10 -1 -10 4 0 6 5
11 10 11 6 0 10 -2 10 -4z m1702 -31 c9 -4 19 -14 23 -23 5 -14 7 -14 15 -2 7
11 9 9 7 -8 -1 -16 -6 -21 -20 -16 -10 3 -29 -2 -44 -11 -17 -12 -28 -14 -35
-7 -13 13 17 47 32 37 5 -3 10 -1 10 4 0 6 -14 11 -31 11 -16 0 -28 -4 -24 -9
3 -6 -12 -8 -36 -6 -40 4 -41 3 -62 -43 -13 -30 -22 -41 -25 -30 -2 9 4 32 13
50 13 27 13 29 1 13 -9 -11 -19 -24 -23 -30 -5 -5 -7 -20 -5 -32 3 -22 -28
-41 -47 -28 -5 3 -12 1 -16 -5 -3 -5 3 -10 14 -10 12 0 21 -3 21 -7 -1 -21
-20 -34 -46 -32 -16 1 -42 1 -59 1 l-29 -2 21 -22 c12 -12 37 -27 54 -32 18
-6 35 -17 37 -25 4 -10 0 -12 -14 -6 -37 15 -54 17 -54 8 0 -5 11 -16 25 -23
39 -21 47 -59 30 -146 -4 -19 -10 -21 -49 -17 -45 5 -103 -3 -93 -13 3 -3 -10
-19 -29 -36 -19 -17 -34 -35 -34 -40 0 -6 18 6 40 26 43 38 71 49 113 44 35
-5 40 -22 7 -26 -51 -5 -106 -26 -133 -51 -24 -22 -25 -26 -10 -34 13 -8 23
-3 44 21 15 17 38 36 51 42 12 6 -5 -14 -39 -45 -35 -31 -63 -61 -63 -67 0 -5
33 20 73 56 39 36 77 66 83 66 7 0 14 -9 17 -20 3 -11 16 -24 29 -29 l23 -10
-22 -7 c-15 -4 -23 -14 -23 -30 0 -12 -4 -26 -10 -29 -5 -3 -10 -11 -10 -17 0
-6 11 -1 24 11 14 13 32 21 43 18 16 -3 15 -6 -7 -16 -23 -10 -21 -11 14 -5
l39 5 -6 -33 c-3 -19 -17 -52 -32 -74 -20 -29 -25 -46 -21 -69 8 -38 8 -41 -2
-95 -5 -34 -9 -40 -15 -27 -4 11 -5 23 -2 27 10 16 -14 60 -30 54 -8 -3 -15
-11 -15 -18 0 -6 -14 -26 -30 -45 -17 -18 -28 -36 -25 -41 3 -4 -2 -13 -9 -19
-11 -9 -16 -9 -21 -1 -5 8 -24 -4 -54 -33 -25 -24 -59 -49 -76 -54 -37 -12
-50 -49 -13 -38 22 6 22 6 4 -9 -11 -9 -15 -16 -9 -16 6 0 9 -9 6 -20 -10 -38
-38 -19 -43 30 -3 25 -9 45 -14 45 -10 0 -55 -83 -56 -102 0 -7 -12 -18 -27
-25 -15 -7 -29 -22 -31 -33 -2 -11 -6 -27 -9 -35 -4 -8 -7 -18 -7 -22 -1 -3
-5 -10 -10 -15 -5 -4 -6 -3 -3 3 4 7 -5 14 -22 17 -29 6 -47 40 -42 80 1 10
-4 17 -13 17 -9 0 -16 7 -16 16 0 22 37 81 55 88 19 7 19 -3 0 -28 -20 -27
-19 -46 4 -46 18 0 61 73 61 102 -1 18 -29 -34 -30 -53 0 -22 -30 -48 -30 -27
0 8 5 19 11 25 13 13 2 56 -12 48 -5 -4 -9 1 -9 10 0 22 20 58 37 68 7 5 10
13 7 19 -4 6 -1 9 5 7 14 -5 14 -8 5 -44 -3 -14 -10 -22 -15 -19 -14 8 -23
-26 -11 -38 8 -8 17 2 32 36 21 51 25 76 12 76 -5 0 -8 62 -7 138 2 151 11
186 78 317 59 115 128 209 201 275 58 53 73 61 96 56 24 -4 37 3 84 48 31 29
56 58 56 64 0 7 19 24 43 38 23 15 43 30 45 34 2 6 75 -9 114 -25z m-1872 5
c0 -5 -4 -10 -10 -10 -5 0 -10 5 -10 10 0 6 5 10 10 10 6 0 10 -4 10 -10z
m300 -24 c-14 -14 -24 0 -16 21 6 15 8 15 16 3 6 -9 5 -19 0 -24z m-80 14 c0
-5 -2 -10 -4 -10 -3 0 -8 5 -11 10 -3 6 -1 10 4 10 6 0 11 -4 11 -10z m130 0
c0 -5 -2 -10 -4 -10 -3 0 -8 5 -11 10 -3 6 -1 10 4 10 6 0 11 -4 11 -10z m-90
-24 c0 -3 -4 -8 -10 -11 -5 -3 -10 -1 -10 4 0 6 5 11 10 11 6 0 10 -2 10 -4z
m-220 -16 c0 -5 7 -10 15 -10 8 0 15 -7 15 -15 0 -21 -12 -19 -33 5 -20 23
-21 30 -7 30 6 0 10 -4 10 -10z m90 0 c0 -5 -4 -10 -10 -10 -5 0 -10 5 -10 10
0 6 5 10 10 10 6 0 10 -4 10 -10z m74 -5 c-4 -8 -10 -15 -15 -15 -5 0 -9 7 -9
15 0 8 7 15 15 15 9 0 12 -6 9 -15z m96 5 c0 -5 -4 -10 -10 -10 -5 0 -10 5
-10 10 0 6 5 10 10 10 6 0 10 -4 10 -10z m1466 -39 c2 -2 10 2 18 8 9 7 17 8
20 2 6 -10 -71 -77 -80 -69 -2 3 4 16 15 30 13 16 17 29 10 39 -5 8 -9 19 -9
24 1 6 6 1 12 -10 6 -11 12 -22 14 -24z m-1596 25 c0 -3 -4 -8 -10 -11 -5 -3
-10 -1 -10 4 0 6 5 11 10 11 6 0 10 -2 10 -4z m130 -20 c0 -3 -4 -8 -10 -11
-5 -3 -10 -1 -10 4 0 6 5 11 10 11 6 0 10 -2 10 -4z m-165 -16 c3 -5 -1 -10
-9 -10 -9 0 -16 5 -16 10 0 6 4 10 9 10 6 0 13 -4 16 -10z m1605 7 c0 -2 -9
-12 -19 -21 -19 -17 -19 -17 -14 3 3 12 12 21 19 21 8 0 14 -2 14 -3z m-1560
-27 c0 -5 -5 -10 -11 -10 -5 0 -7 5 -4 10 3 6 8 10 11 10 2 0 4 -4 4 -10z m80
6 c0 -3 -4 -8 -10 -11 -5 -3 -10 -1 -10 4 0 6 5 11 10 11 6 0 10 -2 10 -4z
m50 0 c0 -11 -19 -15 -25 -6 -3 5 1 10 9 10 9 0 16 -2 16 -4z m1597 -5 c10 9
13 8 13 -2 0 -17 -15 -41 -24 -40 -21 3 -26 -1 -26 -20 0 -11 5 -17 10 -14 13
8 13 -25 0 -45 -8 -12 -10 -10 -10 10 -1 24 -1 25 -16 5 -8 -11 -20 -20 -27
-20 -7 0 -11 -10 -9 -23 6 -42 -25 -24 -39 22 -7 25 -17 42 -21 40 -4 -3 -8 0
-8 5 0 6 9 11 20 11 22 0 25 7 11 29 -6 9 -4 19 4 28 19 19 22 17 17 -15 -2
-18 2 -33 12 -41 13 -11 19 -10 36 10 10 13 19 35 20 49 0 18 3 21 12 12 8 -8
15 -9 25 -1z m-1897 -31 c0 -5 -2 -10 -4 -10 -3 0 -8 5 -11 10 -3 6 -1 10 4
10 6 0 11 -4 11 -10z m120 0 c0 -5 -5 -10 -11 -10 -5 0 -7 5 -4 10 3 6 8 10
11 10 2 0 4 -4 4 -10z m165 0 c-3 -5 -1 -10 4 -10 6 0 11 -4 11 -10 0 -19 -26
-10 -27 10 -1 11 3 20 8 20 6 0 7 -4 4 -10z m1767 -12 c-3 -13 -11 -27 -19
-31 -7 -5 -11 -12 -8 -18 4 -5 1 -9 -4 -9 -16 0 -14 8 10 46 24 40 29 42 21
12z m-1982 3 c0 -6 -4 -13 -10 -16 -5 -3 -10 1 -10 9 0 9 5 16 10 16 6 0 10
-4 10 -9z m260 -1 c0 -5 -5 -10 -11 -10 -5 0 -7 5 -4 10 3 6 8 10 11 10 2 0 4
-4 4 -10z m1356 -71 c1 -64 -1 -69 -20 -68 -14 1 -16 3 -6 5 13 4 15 19 13 76
-2 39 0 68 4 64 5 -4 8 -39 9 -77z m-1452 56 c-4 -8 -8 -15 -10 -15 -2 0 -4 7
-4 15 0 8 4 15 10 15 5 0 7 -7 4 -15z m1483 -7 c-3 -8 -6 -5 -6 6 -1 11 2 17
5 13 3 -3 4 -12 1 -19z m113 12 c0 -5 -2 -10 -4 -10 -3 0 -8 5 -11 10 -3 6 -1
10 4 10 6 0 11 -4 11 -10z m-1640 -10 c0 -5 -5 -10 -11 -10 -5 0 -7 5 -4 10 3
6 8 10 11 10 2 0 4 -4 4 -10z m1759 7 c-2 -1 -13 -9 -24 -17 -19 -14 -19 -14
-6 3 7 9 18 17 24 17 6 0 8 -1 6 -3z m-1614 -16 c3 -5 1 -12 -5 -16 -5 -3 -10
1 -10 9 0 18 6 21 15 7z m1325 5 c0 -3 -4 -8 -10 -11 -5 -3 -10 -1 -10 4 0 6
5 11 10 11 6 0 10 -2 10 -4z m-1563 -28 c-3 -8 -6 -5 -6 6 -1 11 2 17 5 13 3
-3 4 -12 1 -19z m43 3 c0 -6 -4 -13 -10 -16 -5 -3 -10 1 -10 9 0 9 5 16 10 16
6 0 10 -4 10 -9z m1248 -12 c-10 -5 -22 -17 -28 -27 -9 -15 -10 -14 -5 5 5 20
3 21 -42 20 -26 -1 -51 -6 -55 -12 -6 -7 -10 -6 -15 1 -5 6 -15 14 -23 17 -8
3 30 6 85 6 71 0 95 -2 83 -10z m-1158 -9 c0 -5 -4 -10 -10 -10 -5 0 -10 5
-10 10 0 6 5 10 10 10 6 0 10 -4 10 -10z m1485 0 c3 -5 1 -10 -4 -10 -6 0 -11
5 -11 10 0 6 2 10 4 10 3 0 8 -4 11 -10z m-1643 -32 c-7 -7 -12 -8 -12 -2 0
14 12 26 19 19 2 -3 -1 -11 -7 -17z m119 -1 c-13 -13 -26 -3 -16 12 3 6 11 8
17 5 6 -4 6 -10 -1 -17z m113 -1 c-6 -16 -44 -23 -44 -8 0 7 42 30 48 26 1 0
0 -9 -4 -18z m386 14 c0 -5 -7 -10 -16 -10 -8 0 -12 5 -9 10 3 6 10 10 16 10
5 0 9 -4 9 -10z m1224 -6 c3 -8 2 -12 -4 -9 -6 3 -10 10 -10 16 0 14 7 11 14
-7z m-1914 -4 c0 -5 -5 -10 -11 -10 -5 0 -7 5 -4 10 3 6 8 10 11 10 2 0 4 -4
4 -10z m796 -17 c-10 -10 -19 5 -10 18 6 11 8 11 12 0 2 -7 1 -15 -2 -18z
m-456 7 c0 -5 -4 -10 -10 -10 -5 0 -10 5 -10 10 0 6 5 10 10 10 6 0 10 -4 10
-10z m409 1 c7 -5 10 -14 7 -20 -5 -8 -11 -7 -22 3 -24 24 -14 35 15 17z
m-709 -15 c0 -3 -4 -8 -10 -11 -5 -3 -10 -1 -10 4 0 6 5 11 10 11 6 0 10 -2
10 -4z m85 -6 c-3 -5 -11 -10 -16 -10 -6 0 -7 5 -4 10 3 6 11 10 16 10 6 0 7
-4 4 -10z m363 -10 c-7 -11 -16 -20 -20 -20 -11 0 -10 9 5 25 18 21 29 18 15
-5z m157 10 c3 -5 1 -10 -4 -10 -6 0 -11 5 -11 10 0 6 2 10 4 10 3 0 8 -4 11
-10z m55 1 c0 -5 9 -12 19 -16 21 -6 25 -45 5 -45 -19 0 -37 -27 -24 -35 6 -4
9 -19 5 -34 -7 -34 23 -100 37 -80 8 11 8 11 4 -1 -3 -8 -9 -23 -12 -33 -7
-19 -47 -33 -65 -21 -7 4 -9 3 -5 -4 4 -7 -1 -10 -14 -9 -13 1 -20 9 -21 22 0
20 0 20 -9 0 -8 -19 -9 -19 -9 2 -1 14 -6 21 -14 17 -8 -3 -19 2 -26 10 -10
12 -8 17 8 26 26 13 28 40 4 40 -15 0 -16 2 -3 10 13 9 13 11 0 20 -13 8 -11
11 8 16 12 4 22 12 22 20 0 19 42 44 79 47 36 2 38 7 11 27 -21 15 -26 30 -10
30 6 0 10 -4 10 -9z m360 -1 c0 -5 -2 -10 -4 -10 -3 0 -8 5 -11 10 -3 6 -1 10
4 10 6 0 11 -4 11 -10z m47 -12 c-3 -8 -6 -5 -6 6 -1 11 2 17 5 13 3 -3 4 -12
1 -19z m-812 2 c3 -5 -3 -10 -15 -10 -12 0 -18 5 -15 10 3 6 10 10 15 10 5 0
12 -4 15 -10z m85 6 c0 -3 -4 -8 -10 -11 -5 -3 -10 -1 -10 4 0 6 5 11 10 11 6
0 10 -2 10 -4z m215 -6 c-3 -5 -16 -10 -28 -10 -18 0 -19 2 -7 10 20 13 43 13
35 0z m285 1 c0 -11 -31 -24 -39 -16 -3 3 1 10 9 15 19 12 30 12 30 1z m25 -1
c3 -5 1 -10 -4 -10 -6 0 -11 5 -11 10 0 6 2 10 4 10 3 0 8 -4 11 -10z m55 6
c0 -3 -4 -8 -10 -11 -5 -3 -10 -1 -10 4 0 6 5 11 10 11 6 0 10 -2 10 -4z
m-770 -15 c0 -5 -7 -11 -15 -15 -15 -5 -20 5 -8 17 9 10 23 9 23 -2z m350 -5
c0 -13 -20 -26 -43 -26 -11 0 23 38 36 39 4 1 7 -5 7 -13z m670 -7 c0 -5 -4
-9 -10 -9 -5 0 -10 7 -10 16 0 8 5 12 10 9 6 -3 10 -10 10 -16z m512 -4 c3
-14 2 -27 -1 -30 -4 -2 -8 10 -9 26 -3 36 4 38 10 4z m-1652 11 c0 -3 -4 -8
-10 -11 -5 -3 -10 -1 -10 4 0 6 5 11 10 11 6 0 10 -2 10 -4z m734 -2 c17 -7
22 -34 6 -34 -5 0 -14 9 -20 20 -12 22 -10 23 14 14z m176 -16 c0 -19 -2 -20
-10 -8 -8 12 -10 12 -10 1 0 -8 -3 -11 -6 -8 -6 6 13 37 22 37 2 0 4 -10 4
-22z m-388 -10 c-24 -10 -61 -37 -83 -59 -44 -44 -53 -37 -13 11 30 35 89 69
119 69 13 -1 4 -8 -23 -21z m473 12 c3 -5 1 -10 -4 -10 -6 0 -11 5 -11 10 0 6
2 10 4 10 3 0 8 -4 11 -10z m-960 -19 c-3 -6 -11 -11 -17 -11 -6 0 -6 6 2 15
14 17 26 13 15 -4z m188 -1 c-3 -11 -12 -20 -19 -20 -8 0 -14 9 -14 20 0 13 7
20 19 20 14 0 18 -5 14 -20z m563 -7 c-10 -10 -19 5 -10 18 6 11 8 11 12 0 2
-7 1 -15 -2 -18z m-636 -8 c-7 -9 -15 -13 -18 -10 -3 2 1 11 8 20 7 9 15 13
18 10 3 -2 -1 -11 -8 -20z m260 11 c0 -8 -9 -22 -21 -30 -12 -8 -18 -19 -15
-25 4 -5 2 -12 -3 -15 -16 -11 -20 36 -4 60 17 27 43 32 43 10z m295 4 c3 -5
1 -10 -4 -10 -6 0 -11 5 -11 10 0 6 2 10 4 10 3 0 8 -4 11 -10z m1012 4 c-3
-3 -12 -4 -19 -1 -8 3 -5 6 6 6 11 1 17 -2 13 -5z m-1797 -20 c0 -2 -9 -4 -20
-4 -11 0 -20 4 -20 9 0 5 9 7 20 4 11 -3 20 -7 20 -9z m157 -16 c-3 -8 -6 -5
-6 6 -1 11 2 17 5 13 3 -3 4 -12 1 -19z m263 12 c0 -5 -4 -10 -10 -10 -5 0
-10 5 -10 10 0 6 5 10 10 10 6 0 10 -4 10 -10z m152 -42 c-21 -29 -39 -64 -40
-78 0 -14 -6 -26 -12 -28 -16 -6 -12 -20 8 -25 13 -4 11 -5 -5 -6 -24 -1 -31
-15 -13 -26 6 -3 10 -14 10 -23 1 -9 9 -35 20 -57 24 -50 25 -72 3 -78 -11 -3
-7 -5 10 -6 30 -1 37 -17 10 -24 -10 -2 -5 -3 11 -3 26 1 30 -3 33 -33 3 -18
-1 -46 -7 -61 -10 -25 -9 -31 10 -50 20 -20 23 -21 38 -6 15 15 14 16 -8 17
l-25 1 25 8 c14 4 19 8 11 9 -8 1 -11 8 -8 21 3 13 0 20 -9 20 -8 0 -11 6 -8
15 4 8 1 22 -6 30 -14 16 -10 18 14 9 9 -3 16 -14 16 -23 1 -18 30 -61 30 -44
0 7 -5 15 -10 18 -8 5 -8 11 -1 19 7 9 7 16 -2 25 -8 8 -8 14 -1 19 20 14 57
118 56 160 0 31 4 42 15 42 8 0 13 -6 10 -12 -4 -13 43 -40 81 -47 4 -1 2 -5
-5 -9 -10 -6 -9 -14 1 -34 8 -15 12 -29 9 -32 -3 -3 0 -13 8 -23 9 -11 10 -14
2 -9 -8 4 -13 1 -13 -8 0 -11 10 -16 33 -16 43 0 47 -5 35 -43 -5 -18 -10 -40
-10 -49 1 -14 -2 -15 -13 -5 -9 9 -10 14 -1 19 6 4 7 8 3 8 -4 0 -3 9 3 19 7
14 6 21 -3 24 -19 6 -67 -34 -67 -57 0 -17 -2 -18 -9 -7 -6 9 -6 22 1 34 9 17
8 19 -8 13 -17 -6 -17 -6 -1 12 22 24 22 33 0 25 -16 -6 -16 -4 1 15 11 12 14
22 9 22 -6 0 -22 -17 -34 -37 -33 -53 -33 -53 -10 -53 12 0 21 -4 21 -10 0 -5
-9 -10 -20 -10 -12 0 -20 -6 -18 -12 1 -7 -9 -25 -24 -39 -19 -19 -25 -33 -21
-49 4 -16 3 -21 -6 -16 -6 4 -22 -6 -39 -25 -56 -66 -58 -71 -61 -141 -1 -10
-10 -22 -21 -28 -19 -10 -20 -8 -14 52 4 47 3 59 -5 46 -6 -9 -14 -52 -18 -95
-6 -72 -5 -77 10 -64 15 12 17 11 17 -5 0 -11 9 -39 20 -63 11 -24 19 -45 17
-47 -1 -2 -24 17 -49 42 -43 42 -66 93 -61 142 1 14 -13 16 -21 3 -3 -5 1 -32
10 -62 12 -40 28 -64 67 -101 29 -26 57 -46 64 -44 6 3 14 -1 17 -9 3 -8 0
-15 -6 -17 -13 -5 4 -41 18 -38 5 1 10 -4 13 -11 3 -9 -11 -10 -52 -5 -41 5
-57 4 -64 -6 -4 -7 -18 -19 -30 -26 -20 -10 -24 -9 -35 8 -7 11 -16 20 -21 20
-4 0 -5 -5 -2 -10 4 -6 -3 -42 -14 -80 -19 -63 -24 -70 -54 -78 -47 -13 -56
-6 -50 36 8 51 -11 30 -27 -31 -7 -26 -17 -50 -22 -54 -6 -3 -7 3 -3 16 4 12
2 21 -4 21 -6 0 -11 4 -11 10 0 5 5 9 12 7 7 -1 12 10 12 28 1 17 5 36 9 43 5
7 3 12 -5 12 -8 0 -7 4 4 11 9 5 15 15 12 23 -3 7 1 18 9 25 12 9 16 7 20 -9
3 -11 1 -23 -4 -26 -12 -7 -12 -34 0 -34 5 0 12 14 15 30 3 17 9 44 12 60 3
16 11 30 18 30 19 0 39 67 32 106 -10 50 -30 44 -22 -6 3 -22 3 -52 0 -65 -6
-23 -8 -24 -19 -9 -11 16 -14 16 -36 1 -29 -21 -43 -22 -35 -2 5 13 -5 20 -26
16 -5 0 -8 6 -8 14 0 8 4 15 9 15 5 0 17 17 26 37 15 31 16 38 3 47 -8 6 -17
19 -21 30 -7 18 -8 18 -27 1 -22 -20 -28 -4 -6 17 7 8 17 29 21 46 6 28 44 65
46 45 0 -4 5 1 10 12 8 17 8 16 4 -7 -7 -35 13 -78 37 -78 24 0 25 5 37 126
13 125 16 134 50 134 46 0 87 33 94 76 8 45 -9 64 -55 64 -24 0 -28 4 -28 28
-1 25 -2 26 -14 9 -13 -17 -14 -16 -19 2 -3 11 -1 21 4 23 5 2 4 15 -3 30 -15
32 -76 64 -91 49 -8 -8 -6 -11 6 -11 9 0 17 -6 17 -13 0 -8 9 -22 20 -32 20
-18 21 -18 14 1 -6 15 -4 17 6 7 20 -18 14 -149 -8 -179 -9 -13 -24 -24 -33
-24 -21 0 -36 -18 -44 -55 -4 -17 -13 -35 -21 -41 -10 -8 -11 -19 -4 -43 8
-28 6 -32 -21 -46 -16 -9 -32 -27 -35 -40 -9 -34 -24 -31 -24 5 0 21 -4 28
-14 24 -18 -7 -45 32 -39 57 7 26 59 63 69 48 7 -12 -12 -28 -36 -30 -11 0
-12 -2 -2 -6 10 -4 9 -8 -4 -17 -23 -17 -11 -33 25 -34 35 -1 60 23 43 40 -7
7 -12 24 -12 39 0 21 -5 28 -22 31 -17 2 -22 9 -21 26 2 13 -1 21 -7 17 -6 -3
-10 -14 -11 -23 0 -10 -3 -12 -6 -5 -5 15 44 123 56 123 5 0 12 7 15 16 6 17
-6 12 -36 -14 -10 -8 -18 -12 -18 -7 0 4 11 16 25 27 14 11 23 23 20 28 -3 5
6 17 20 28 13 11 22 22 19 25 -3 3 4 8 17 12 16 5 18 9 8 15 -9 6 -2 11 22 18
20 6 26 11 14 11 -11 0 -32 -6 -47 -13 -36 -19 -35 -10 2 25 30 29 146 89 171
89 11 0 11 -2 -1 -10 -13 -8 -12 -10 3 -10 9 0 17 -7 17 -16 0 -9 6 -14 13
-11 6 2 10 11 8 18 -2 8 -4 21 -5 29 0 8 -3 17 -6 20 -3 3 -11 17 -17 31 -10
24 -8 30 42 80 43 44 69 62 93 68 1 1 -15 -23 -36 -51z m458 43 c0 -5 -7 -11
-15 -15 -15 -5 -20 5 -8 17 9 10 23 9 23 -2z m-1000 -5 c0 -3 -4 -8 -10 -11
-5 -3 -10 -1 -10 4 0 6 5 11 10 11 6 0 10 -2 10 -4z m49 -22 c-14 -18 -24 -11
-15 11 3 9 11 13 16 10 8 -5 7 -11 -1 -21z m661 16 c0 -5 -4 -10 -9 -10 -6 0
-13 5 -16 10 -3 6 1 10 9 10 9 0 16 -4 16 -10z m996 -15 c-9 -14 -12 -25 -7
-25 5 0 11 7 15 15 3 8 9 15 14 15 12 0 12 -49 1 -56 -5 -3 -9 -10 -9 -16 0
-7 6 -6 15 2 8 7 15 8 15 2 0 -5 -7 -15 -15 -22 -10 -9 -15 -9 -15 -1 0 21
-29 11 -33 -11 -2 -13 -3 -5 -1 17 3 40 2 40 -12 15 -9 -14 -13 -17 -10 -7 3
10 6 27 6 38 0 18 32 59 46 59 4 0 -1 -11 -10 -25z m69 15 c3 -6 -1 -7 -9 -4
-18 7 -21 14 -7 14 6 0 13 -4 16 -10z m-1608 -22 c-3 -8 -6 -5 -6 6 -1 11 2
17 5 13 3 -3 4 -12 1 -19z m116 3 c6 -24 0 -31 -27 -31 -21 1 -21 1 -2 15 11
8 14 15 8 15 -7 0 -12 5 -12 10 0 18 28 10 33 -9z m474 -3 c-3 -8 -6 -5 -6 6
-1 11 2 17 5 13 3 -3 4 -12 1 -19z m403 18 c0 -3 -4 -8 -10 -11 -5 -3 -10 -1
-10 4 0 6 5 11 10 11 6 0 10 -2 10 -4z m-243 -41 c2 -14 1 -25 -2 -25 -9 0
-23 44 -18 53 7 12 17 -1 20 -28z m933 20 c0 -8 -4 -15 -10 -15 -5 0 -10 7
-10 15 0 8 5 15 10 15 6 0 10 -7 10 -15z m-1890 1 c0 -3 -4 -8 -10 -11 -5 -3
-10 -1 -10 4 0 6 5 11 10 11 6 0 10 -2 10 -4z m150 -16 c-16 -11 -40 -13 -40
-5 0 8 44 24 50 18 2 -2 -2 -8 -10 -13z m100 10 c0 -5 -5 -10 -11 -10 -5 0 -7
5 -4 10 3 6 8 10 11 10 2 0 4 -4 4 -10z m780 -11 c0 -6 -4 -7 -10 -4 -5 3 -10
11 -10 16 0 6 5 7 10 4 6 -3 10 -11 10 -16z m-965 1 c3 -5 2 -10 -4 -10 -5 0
-13 5 -16 10 -3 6 -2 10 4 10 5 0 13 -4 16 -10z m715 -6 c0 -8 -5 -12 -10 -9
-6 4 -8 11 -5 16 9 14 15 11 15 -7z m-760 -14 c0 -5 -2 -10 -4 -10 -3 0 -8 5
-11 10 -3 6 -1 10 4 10 6 0 11 -4 11 -10z m439 1 c11 -7 9 -11 -8 -20 -18 -10
-21 -9 -21 9 0 22 7 25 29 11z m531 -7 c0 -8 -5 -12 -10 -9 -6 4 -8 11 -5 16
9 14 15 11 15 -7z m880 12 c0 -2 -7 -9 -15 -16 -13 -11 -14 -10 -9 4 5 14 24
23 24 12z m-1690 -21 c0 -8 -4 -15 -10 -15 -5 0 -7 7 -4 15 4 8 8 15 10 15 2
0 4 -7 4 -15z m990 5 c8 -5 11 -10 5 -10 -5 0 -17 5 -25 10 -8 5 -10 10 -5 10
6 0 17 -5 25 -10z m-1050 -7 c-1 -14 -27 -43 -33 -37 -7 7 14 44 25 44 5 0 8
-3 8 -7z m103 -8 c-3 -9 -8 -14 -10 -11 -3 3 -2 9 2 15 9 16 15 13 8 -4z m83
4 c-14 -9 -16 -13 -5 -20 7 -4 10 -11 6 -15 -11 -11 -41 22 -33 35 4 6 17 11
29 11 21 -1 21 -1 3 -11z m610 -4 c9 -8 11 -15 6 -15 -5 0 -15 7 -22 15 -7 8
-9 15 -6 15 4 0 14 -7 22 -15z m-876 -5 c0 -5 -4 -10 -10 -10 -5 0 -10 5 -10
10 0 6 5 10 10 10 6 0 10 -4 10 -10z m306 -17 c-10 -10 -19 5 -10 18 6 11 8
11 12 0 2 -7 1 -15 -2 -18z m724 17 c0 -5 -7 -7 -15 -4 -8 4 -15 8 -15 10 0 2
7 4 15 4 8 0 15 -4 15 -10z m755 0 c3 -5 -1 -10 -9 -10 -9 0 -16 5 -16 10 0 6
4 10 9 10 6 0 13 -4 16 -10z m-1674 -20 c20 -11 25 -35 10 -45 -10 -6 -51 32
-51 47 0 11 17 10 41 -2z m699 6 c0 -3 -4 -8 -10 -11 -5 -3 -10 -1 -10 4 0 6
5 11 10 11 6 0 10 -2 10 -4z m295 -5 c3 -5 1 -12 -5 -16 -5 -3 -10 1 -10 9 0
18 6 21 15 7z m555 -108 c0 -7 -7 -13 -15 -13 -10 0 -15 10 -15 34 0 19 -3 42
-7 52 -6 16 -7 16 -14 -2 -7 -18 -8 -17 -8 3 -1 13 6 23 17 25 13 3 20 -7 29
-42 7 -25 13 -51 13 -57z m-1720 87 c0 -5 -2 -10 -4 -10 -3 0 -8 5 -11 10 -3
6 -1 10 4 10 6 0 11 -4 11 -10z m260 1 c0 -6 -4 -13 -10 -16 -5 -3 -10 1 -10
9 0 9 5 16 10 16 6 0 10 -4 10 -9z m770 -1 c0 -5 -2 -10 -4 -10 -3 0 -8 5 -11
10 -3 6 -1 10 4 10 6 0 11 -4 11 -10z m-695 -10 c3 -5 -3 -10 -14 -10 -12 0
-21 5 -21 10 0 6 6 10 14 10 8 0 18 -4 21 -10z m-300 -10 c3 -5 -3 -10 -15
-10 -12 0 -18 5 -15 10 3 6 10 10 15 10 5 0 12 -4 15 -10z m945 -6 c0 -8 -4
-12 -10 -9 -5 3 -10 10 -10 16 0 5 5 9 10 9 6 0 10 -7 10 -16z m-180 2 c0 -3
-4 -8 -10 -11 -5 -3 -10 -1 -10 4 0 6 5 11 10 11 6 0 10 -2 10 -4z m45 -6 c3
-6 -1 -7 -9 -4 -18 7 -21 14 -7 14 6 0 13 -4 16 -10z m-685 -6 c0 -3 -7 -12
-15 -21 -20 -19 -32 -10 -14 11 14 15 29 21 29 10z m1330 3 c0 -2 -10 -12 -22
-23 l-23 -19 19 23 c18 21 26 27 26 19z m320 -7 c0 -5 -4 -10 -10 -10 -5 0
-10 5 -10 10 0 6 5 10 10 10 6 0 10 -4 10 -10z m-1490 -11 c-11 -8 -12 -12 -2
-16 17 -7 15 -43 -3 -43 -8 0 -12 6 -9 14 3 8 1 17 -5 21 -20 12 -12 35 12 35
18 0 19 -2 7 -11z m1520 1 c0 -5 -4 -10 -10 -10 -5 0 -10 5 -10 10 0 6 5 10
10 10 6 0 10 -4 10 -10z m115 0 c-3 -5 -12 -10 -18 -10 -7 0 -6 4 3 10 19 12
23 12 15 0z m-1955 -40 c0 -13 -1 -13 -10 0 -5 8 -10 22 -10 30 0 13 1 13 10
0 5 -8 10 -22 10 -30z m80 30 c0 -5 -6 -10 -12 -10 -7 0 -24 -3 -38 -6 -17 -5
-22 -3 -15 4 9 9 30 17 58 21 4 0 7 -3 7 -9z m102 -12 c-7 -7 -12 -8 -12 -2 0
14 12 26 19 19 2 -3 -1 -11 -7 -17z m652 13 c4 -5 -1 -8 -9 -7 -21 3 -31 16
-12 16 9 0 18 -4 21 -9z m136 5 c0 -3 -4 -8 -10 -11 -5 -3 -10 -1 -10 4 0 6 5
11 10 11 6 0 10 -2 10 -4z m-360 -22 c0 -2 -7 -4 -15 -4 -8 0 -15 4 -15 10 0
5 7 7 15 4 8 -4 15 -8 15 -10z m410 6 c0 -5 -5 -10 -11 -10 -5 0 -7 5 -4 10 3
6 8 10 11 10 2 0 4 -4 4 -10z m-770 -10 c0 -5 -5 -10 -11 -10 -5 0 -7 5 -4 10
3 6 8 10 11 10 2 0 4 -4 4 -10z m370 -82 c0 -14 5 -18 19 -13 19 6 39 -21 25
-34 -4 -3 -9 0 -11 7 -8 20 -23 14 -24 -10 0 -24 -7 -12 -47 82 -8 19 -17 40
-19 45 -3 6 9 -5 26 -24 17 -18 31 -42 31 -53z m63 48 c-1 -14 2 -24 8 -21 5
4 9 2 9 -3 0 -9 -23 -22 -40 -22 -14 0 -19 42 -7 61 16 26 32 18 30 -15z m982
24 c-3 -5 -10 -10 -16 -10 -5 0 -9 5 -9 10 0 6 7 10 16 10 8 0 12 -4 9 -10z
m-1545 -8 c0 -13 -12 -22 -22 -16 -10 6 -1 24 13 24 5 0 9 -4 9 -8z m100 -17
c0 -8 -4 -15 -10 -15 -5 0 -10 7 -10 15 0 8 5 15 10 15 6 0 10 -7 10 -15z
m517 -7 c-3 -8 -6 -5 -6 6 -1 11 2 17 5 13 3 -3 4 -12 1 -19z m250 0 c-3 -8
-6 -5 -6 6 -1 11 2 17 5 13 3 -3 4 -12 1 -19z m913 18 c0 -3 -4 -8 -10 -11 -5
-3 -10 -1 -10 4 0 6 5 11 10 11 6 0 10 -2 10 -4z m-1850 -22 c0 -2 -9 -4 -21
-4 -11 0 -18 4 -14 10 5 8 35 3 35 -6z m1930 6 c0 -5 -4 -10 -10 -10 -5 0 -10
5 -10 10 0 6 5 10 10 10 6 0 10 -4 10 -10z m-1825 -10 c-3 -5 -11 -10 -16 -10
-6 0 -7 5 -4 10 3 6 11 10 16 10 6 0 7 -4 4 -10z m125 0 c0 -5 -7 -10 -16 -10
-8 0 -12 5 -9 10 3 6 10 10 16 10 5 0 9 -4 9 -10z m660 -10 c0 -5 -2 -10 -4
-10 -3 0 -8 5 -11 10 -3 6 -1 10 4 10 6 0 11 -4 11 -10z m-218 -32 c-8 -8 -9
-4 -5 13 4 13 8 18 11 10 2 -7 -1 -18 -6 -23z m208 1 c0 -6 -4 -7 -10 -4 -5 3
-10 11 -10 16 0 6 5 7 10 4 6 -3 10 -11 10 -16z m-910 1 c0 -5 -4 -10 -10 -10
-5 0 -10 5 -10 10 0 6 5 10 10 10 6 0 10 -4 10 -10z m120 1 c0 -6 -4 -13 -10
-16 -5 -3 -10 1 -10 9 0 9 5 16 10 16 6 0 10 -4 10 -9z m857 -23 c-3 -8 -6 -5
-6 6 -1 11 2 17 5 13 3 -3 4 -12 1 -19z m-42 2 c-3 -5 -11 -10 -16 -10 -6 0
-7 5 -4 10 3 6 11 10 16 10 6 0 7 -4 4 -10z m925 6 c0 -3 -4 -8 -10 -11 -5 -3
-10 -1 -10 4 0 6 5 11 10 11 6 0 10 -2 10 -4z m-1710 -16 c0 -5 -7 -10 -16
-10 -8 0 -12 5 -9 10 3 6 10 10 16 10 5 0 9 -4 9 -10z m102 -17 c-10 -16 -22
-37 -26 -47 -3 -10 -9 -16 -12 -13 -7 6 12 44 34 70 23 26 26 20 4 -10z m1498
23 c0 -11 -19 -15 -25 -6 -3 5 1 10 9 10 9 0 16 -2 16 -4z m-1071 -28 c-22
-42 -30 -49 -45 -37 -8 6 -14 16 -14 21 0 6 6 5 15 -2 12 -10 16 -8 25 14 5
14 14 26 20 26 7 0 7 -7 -1 -22z m1011 -8 c0 -5 -5 -10 -11 -10 -5 0 -7 5 -4
10 3 6 8 10 11 10 2 0 4 -4 4 -10z m-1585 -10 c-3 -5 -11 -10 -16 -10 -6 0 -7
5 -4 10 3 6 11 10 16 10 6 0 7 -4 4 -10z m-105 -14 c0 -3 -4 -8 -10 -11 -5 -3
-10 -1 -10 4 0 6 5 11 10 11 6 0 10 -2 10 -4z m165 -6 c-3 -5 -10 -10 -16 -10
-5 0 -9 5 -9 10 0 6 7 10 16 10 8 0 12 -4 9 -10z m875 6 c0 -3 -4 -8 -10 -11
-5 -3 -10 -1 -10 4 0 6 5 11 10 11 6 0 10 -2 10 -4z m70 -21 c0 -8 -2 -15 -4
-15 -2 0 -6 7 -10 15 -3 8 -1 15 4 15 6 0 10 -7 10 -15z m-606 -16 c5 -4 16
-5 25 -2 13 4 14 3 1 -5 -8 -6 -19 -8 -25 -4 -5 3 -3 -3 5 -13 8 -10 10 -16 3
-12 -7 4 -17 0 -23 -10 -9 -15 -10 -14 -5 10 4 22 2 27 -14 27 -10 0 -21 7
-25 15 -4 12 0 14 22 9 15 -4 31 -10 36 -15z m1170 4 c-10 -7 -13 -13 -7 -13
7 0 11 -9 10 -21 -1 -19 -2 -19 -14 -3 -20 28 -16 53 8 51 19 -1 19 -2 3 -14z
m-694 -3 c0 -5 -5 -10 -11 -10 -5 0 -7 5 -4 10 3 6 8 10 11 10 2 0 4 -4 4 -10z
m970 6 c0 -3 -4 -8 -10 -11 -5 -3 -10 -1 -10 4 0 6 5 11 10 11 6 0 10 -2 10
-4z m-1103 -48 c-3 -8 -6 -5 -6 6 -1 11 2 17 5 13 3 -3 4 -12 1 -19z m1160 0
c-3 -8 -6 -5 -6 6 -1 11 2 17 5 13 3 -3 4 -12 1 -19z m-2007 2 c0 -5 -4 -10
-10 -10 -5 0 -10 5 -10 10 0 6 5 10 10 10 6 0 10 -4 10 -10z m930 0 c0 -5 -5
-10 -11 -10 -5 0 -7 5 -4 10 3 6 8 10 11 10 2 0 4 -4 4 -10z m990 6 c0 -3 -4
-8 -10 -11 -5 -3 -10 -1 -10 4 0 6 5 11 10 11 6 0 10 -2 10 -4z m-1470 -16 c0
-5 -4 -10 -10 -10 -5 0 -10 5 -10 10 0 6 5 10 10 10 6 0 10 -4 10 -10z m-390
-11 c0 -6 9 -8 20 -4 11 4 20 2 20 -4 0 -12 -20 -14 -44 -5 -18 7 -22 24 -6
24 6 0 10 -5 10 -11z m-50 -13 c0 -3 -4 -8 -10 -11 -5 -3 -10 -1 -10 4 0 6 5
11 10 11 6 0 10 -2 10 -4z m780 -16 c0 -5 -4 -10 -10 -10 -5 0 -10 5 -10 10 0
6 5 10 10 10 6 0 10 -4 10 -10z m110 1 c0 -6 -4 -13 -10 -16 -5 -3 -10 1 -10
9 0 9 5 16 10 16 6 0 10 -4 10 -9z m85 -1 c3 -5 1 -10 -4 -10 -6 0 -11 5 -11
10 0 6 2 10 4 10 3 0 8 -4 11 -10z m672 -22 c-3 -7 -5 -2 -5 12 0 14 2 19 5
13 2 -7 2 -19 0 -25z m98 -8 c-10 -11 -22 -17 -27 -14 -4 3 2 14 14 24 29 23
37 17 13 -10z m-1015 16 c0 -3 -4 -8 -10 -11 -5 -3 -10 -1 -10 4 0 6 5 11 10
11 6 0 10 -2 10 -4z m-760 -16 c0 -5 -4 -10 -10 -10 -5 0 -10 5 -10 10 0 6 5
10 10 10 6 0 10 -4 10 -10z m135 0 c-3 -5 -13 -10 -21 -10 -8 0 -12 5 -9 10 3
6 13 10 21 10 8 0 12 -4 9 -10z m645 -10 c0 -5 -4 -10 -10 -10 -5 0 -10 5 -10
10 0 6 5 10 10 10 6 0 10 -4 10 -10z m-630 -10 c0 -5 -4 -10 -10 -10 -5 0 -10
5 -10 10 0 6 5 10 10 10 6 0 10 -4 10 -10z m1760 6 c0 -3 -4 -8 -10 -11 -5 -3
-10 -1 -10 4 0 6 5 11 10 11 6 0 10 -2 10 -4z m-1480 -10 c0 -2 -8 -10 -17
-17 -16 -13 -17 -12 -4 4 13 16 21 21 21 13z m340 -33 c0 -8 5 -11 11 -7 8 4
8 1 1 -12 -10 -21 -5 -45 12 -56 8 -6 8 -8 -1 -8 -8 0 -9 -18 -6 -60 4 -40 2
-60 -5 -60 -7 0 -9 13 -7 32 3 21 -1 36 -13 44 -11 9 -12 13 -4 14 17 0 15 20
-2 20 -19 0 -40 26 -26 35 5 3 10 -1 10 -10 0 -9 4 -14 9 -11 9 6 8 83 -2 93
-14 13 -6 25 8 13 8 -7 15 -19 15 -27z m290 21 c0 -8 -4 -12 -10 -9 -5 3 -10
10 -10 16 0 5 5 9 10 9 6 0 10 -7 10 -16z m-1050 -14 c0 -5 -4 -10 -10 -10 -5
0 -10 5 -10 10 0 6 5 10 10 10 6 0 10 -4 10 -10z m183 -10 c-3 -11 -10 -23
-16 -27 -7 -4 -8 0 -4 11 4 10 7 22 7 27 0 5 4 9 9 9 5 0 7 -9 4 -20z m692 10
c3 -5 1 -10 -4 -10 -6 0 -11 5 -11 10 0 6 2 10 4 10 3 0 8 -4 11 -10z m805 0
c0 -5 -2 -10 -4 -10 -3 0 -8 5 -11 10 -3 6 -1 10 4 10 6 0 11 -4 11 -10z m75
0 c3 -5 1 -10 -4 -10 -6 0 -11 5 -11 10 0 6 2 10 4 10 3 0 8 -4 11 -10z
m-1048 -22 c-3 -8 -6 -5 -6 6 -1 11 2 17 5 13 3 -3 4 -12 1 -19z m823 -79
c-12 -51 -26 -99 -32 -106 -6 -7 -7 -13 -3 -13 5 0 6 -2 3 -5 -3 -3 -12 -3
-21 1 -12 4 -14 11 -7 23 14 27 40 104 40 120 0 21 -13 4 -26 -32 -6 -18 -15
-32 -20 -32 -5 -1 -26 -17 -47 -37 -22 -20 -49 -39 -60 -42 -14 -3 -1 14 37
47 32 29 59 61 60 72 2 25 27 65 42 65 6 0 19 9 29 20 10 11 20 18 22 16 2 -2
-6 -45 -17 -97z m190 91 c0 -5 -5 -10 -11 -10 -5 0 -7 5 -4 10 3 6 8 10 11 10
2 0 4 -4 4 -10z m-885 -10 c3 -5 1 -10 -4 -10 -6 0 -11 5 -11 10 0 6 2 10 4
10 3 0 8 -4 11 -10z m-810 -10 c-3 -5 -11 -10 -16 -10 -6 0 -7 5 -4 10 3 6 11
10 16 10 6 0 7 -4 4 -10z m95 0 c0 -5 -8 -10 -17 -10 -15 0 -16 2 -3 10 19 12
20 12 20 0z m230 -7 c0 -10 -5 -25 -10 -33 -8 -13 -10 -13 -10 2 0 9 -3 23 -6
32 -4 11 -1 16 10 16 9 0 16 -8 16 -17z m60 8 c0 -6 -4 -13 -10 -16 -5 -3 -10
1 -10 9 0 9 5 16 10 16 6 0 10 -4 10 -9z m280 -8 c0 -14 -19 -38 -25 -32 -8 8
5 39 16 39 5 0 9 -3 9 -7z m1040 3 c0 -3 -4 -8 -10 -11 -5 -3 -10 -1 -10 4 0
6 5 11 10 11 6 0 10 -2 10 -4z m-820 -20 c0 -3 -4 -8 -10 -11 -5 -3 -10 -1
-10 4 0 6 5 11 10 11 6 0 10 -2 10 -4z m-650 -16 c0 -5 -4 -10 -10 -10 -5 0
-10 5 -10 10 0 6 5 10 10 10 6 0 10 -4 10 -10z m-245 -10 c3 -6 -4 -10 -17
-10 -18 0 -20 2 -8 10 19 12 18 12 25 0z m626 -17 c-12 -20 -14 -14 -5 12 4 9
9 14 11 11 3 -2 0 -13 -6 -23z m-511 13 c0 -3 -4 -8 -10 -11 -5 -3 -10 -1 -10
4 0 6 5 11 10 11 6 0 10 -2 10 -4z m730 -6 c0 -5 -4 -10 -10 -10 -5 0 -10 5
-10 10 0 6 5 10 10 10 6 0 10 -4 10 -10z m-165 -19 c-3 -6 -11 -11 -16 -11 -5
0 -4 6 3 14 14 16 24 13 13 -3z m-521 -7 c4 -10 1 -14 -6 -12 -15 5 -23 28
-10 28 5 0 13 -7 16 -16z m543 -16 c-3 -7 -5 -2 -5 12 0 14 2 19 5 13 2 -7 2
-19 0 -25z m913 28 c0 -3 -4 -8 -10 -11 -5 -3 -10 -1 -10 4 0 6 5 11 10 11 6
0 10 -2 10 -4z m52 -18 c-7 -7 -12 -8 -12 -2 0 14 12 26 19 19 2 -3 -1 -11 -7
-17z m-1647 2 c3 -5 1 -10 -4 -10 -6 0 -11 5 -11 10 0 6 2 10 4 10 3 0 8 -4
11 -10z m251 -22 c-11 -15 -16 -18 -16 -7 0 16 21 42 28 34 2 -2 -3 -14 -12
-27z m1127 8 c-10 -13 -20 -20 -22 -14 -1 5 5 16 15 23 26 20 28 18 7 -9z
m-1018 4 c3 -5 1 -10 -4 -10 -6 0 -11 5 -11 10 0 6 2 10 4 10 3 0 8 -4 11 -10z
m1260 0 c3 -5 1 -10 -4 -10 -6 0 -11 5 -11 10 0 6 2 10 4 10 3 0 8 -4 11 -10z
m-826 -145 c-9 -50 -23 -74 -35 -62 -4 4 -2 12 3 19 6 7 13 29 17 48 5 27 4
30 -3 14 -14 -33 -36 -43 -28 -14 3 13 1 31 -6 39 -10 12 -9 14 7 8 17 -7 18
-3 13 45 l-5 53 23 -50 c21 -43 22 -56 14 -100z m921 125 c-6 -11 -15 -20 -20
-20 -16 0 -11 18 8 29 24 14 24 14 12 -9z m-1610 6 c0 -3 -4 -8 -10 -11 -5 -3
-10 -1 -10 4 0 6 5 11 10 11 6 0 10 -2 10 -4z m-30 -16 c0 -5 -7 -10 -16 -10
-8 0 -12 5 -9 10 3 6 10 10 16 10 5 0 9 -4 9 -10z m589 -7 c9 -16 12 -16 21
-3 8 13 10 12 11 -5 1 -11 1 -25 0 -32 -1 -6 3 -14 9 -18 5 -3 10 -14 10 -23
-1 -14 -4 -13 -20 7 -23 27 -28 7 -6 -24 7 -11 21 -69 30 -130 8 -60 29 -172
46 -248 35 -160 36 -175 14 -173 -9 0 -19 -5 -21 -12 -6 -16 46 -13 65 5 14
14 16 27 2 18 -6 -3 -7 1 -4 9 4 9 1 16 -6 16 -10 0 -10 3 0 15 10 12 10 15 0
15 -7 0 -10 6 -7 14 3 7 0 19 -6 25 -8 8 -7 11 3 11 10 0 11 3 3 11 -6 6 -9
18 -6 25 3 8 -1 14 -8 14 -11 0 -11 2 1 10 12 7 10 11 -10 19 -17 6 -19 10 -8
10 10 1 16 8 15 20 0 11 -6 17 -14 14 -7 -3 -13 2 -13 11 0 9 5 16 11 16 8 0
8 5 -1 15 -7 8 -9 15 -4 15 5 0 2 5 -6 10 -13 9 -13 11 0 19 12 9 12 11 -4 17
-14 5 -15 9 -4 15 11 7 10 11 -2 19 -10 6 -11 10 -2 10 19 0 14 20 -5 21 -16
1 -17 2 -1 6 11 3 15 10 11 21 -4 12 -3 14 4 7 6 -5 20 -71 33 -145 29 -181
51 -273 61 -263 5 5 2 33 -6 63 -8 30 -26 125 -39 211 -21 129 -24 161 -14
187 7 18 16 32 20 32 4 0 5 8 2 18 -4 12 0 10 12 -5 17 -23 62 -34 48 -12 -4
7 6 3 22 -9 16 -11 46 -23 67 -27 23 -3 35 -10 31 -17 -4 -5 0 -14 7 -19 10
-6 6 -9 -13 -9 -65 0 -106 -41 -54 -54 30 -7 25 -37 -7 -51 -37 -17 -33 -41
10 -52 21 -5 45 -6 53 -2 44 23 80 37 80 30 0 -12 -80 -53 -93 -48 -16 6 -57
-10 -57 -23 0 -5 17 -10 37 -10 37 0 37 0 15 -16 -25 -17 -30 -39 -7 -30 27
10 16 -18 -15 -39 -37 -25 -37 -36 -1 -77 16 -18 32 -47 35 -65 7 -31 6 -32
-41 -47 l-48 -16 55 6 c71 8 82 17 64 52 -8 15 -14 32 -14 39 0 7 -15 26 -32
43 l-33 31 30 24 c17 14 35 25 41 25 10 0 30 -71 41 -142 3 -21 10 -38 15 -38
7 0 8 23 3 65 -7 65 -6 65 19 65 29 0 43 -17 27 -33 -16 -16 -13 -37 5 -37 9
0 29 11 46 25 50 43 62 35 54 -37 -3 -34 -11 -67 -16 -72 -6 -6 -10 -22 -10
-37 0 -36 37 -46 79 -21 31 17 42 42 19 42 -8 0 -5 5 4 11 13 7 26 5 47 -6 17
-8 32 -11 36 -6 3 5 -4 12 -15 16 -31 10 -42 41 -38 110 1 35 0 66 -3 69 -3 4
-26 -3 -50 -13 -27 -13 -48 -16 -53 -11 -15 15 -1 23 62 35 49 10 57 15 60 36
2 13 12 48 23 77 10 29 19 63 19 75 0 12 14 42 30 67 16 25 30 52 30 60 0 8 9
21 20 28 14 8 20 9 20 1 0 -7 15 -10 40 -7 22 2 40 0 40 -3 0 -4 23 -7 50 -7
32 -1 50 3 50 11 0 7 6 1 13 -12 19 -38 45 -50 62 -27 8 10 12 23 8 29 -3 5 0
13 8 17 10 7 10 12 -2 26 -11 15 -12 16 0 9 11 -6 12 -2 7 21 l-8 29 25 -27
c14 -15 49 -33 83 -43 111 -33 179 -57 192 -67 13 -11 17 -325 5 -450 -6 -67
-6 -68 -34 -68 -16 0 -29 4 -29 9 0 5 -8 12 -17 15 -10 3 -6 4 10 2 15 -2 30
1 33 5 3 5 -8 9 -25 9 -23 0 -29 4 -25 15 4 10 0 15 -14 15 -32 0 -36 18 -5
22 43 5 36 33 -7 33 -30 0 -35 -4 -38 -25 -2 -14 -11 -31 -20 -38 -16 -12 -16
-14 2 -28 19 -14 19 -14 -1 -14 -34 0 -36 -18 -6 -34 26 -14 27 -15 6 -16 -14
0 -23 -6 -23 -15 0 -18 12 -19 28 -3 9 9 12 3 12 -30 0 -43 18 -58 27 -23 3
11 15 22 26 25 22 6 22 7 3 21 -18 14 -15 15 37 15 l57 0 0 -74 c0 -41 -4 -77
-8 -80 -5 -3 -479 -6 -1053 -7 l-1044 -1 -3 136 c-2 118 -1 135 13 130 8 -4
15 -10 15 -15 0 -5 9 -9 20 -9 11 0 20 -3 20 -7 0 -26 131 -46 145 -23 3 6 -4
10 -17 10 -13 0 -30 6 -36 12 -10 10 -15 10 -22 -2 -5 -8 -13 -11 -17 -6 -4 5
-2 11 5 13 17 6 15 23 -3 23 -8 0 -15 -6 -15 -12 0 -7 -5 -5 -11 5 -11 19 -39
23 -39 6 0 -6 -7 -3 -16 5 -8 9 -22 16 -30 16 -11 0 -14 15 -14 63 l0 63 40
-4 c26 -3 40 0 40 8 0 6 -5 8 -10 5 -21 -13 -45 5 -46 35 -1 25 2 29 20 26 11
-1 27 -16 35 -32 13 -26 15 -27 22 -9 4 11 8 29 8 40 1 11 16 34 34 52 47 46
78 37 112 -33 l26 -53 -19 -83 c-11 -46 -25 -116 -32 -155 -11 -66 -14 -73
-35 -73 -12 0 -28 -7 -36 -16 -12 -14 -8 -15 35 -11 27 3 52 9 55 14 3 4 13 8
21 8 10 0 17 16 23 55 11 75 38 201 49 222 5 10 15 15 23 12 9 -4 15 0 15 9 0
10 7 13 18 10 10 -2 28 5 41 16 13 12 27 21 31 21 4 0 10 10 13 22 5 17 9 19
21 9 11 -9 13 -26 9 -65 -6 -53 -5 -54 28 -71 23 -11 50 -41 83 -93 42 -65 50
-87 55 -142 9 -94 8 -93 117 -88 80 4 100 9 134 32 41 27 55 66 24 66 -8 0
-12 -5 -9 -10 3 -6 -1 -13 -9 -16 -9 -3 -13 -10 -10 -15 3 -5 -1 -9 -10 -9 -8
0 -16 -6 -19 -12 -3 -10 -7 -10 -17 -1 -19 18 -4 43 27 44 21 1 18 3 -14 9
-23 5 -51 14 -62 19 -29 16 -46 14 -33 -2 8 -10 8 -23 0 -49 l-11 -36 -23 28
c-31 36 -30 45 6 67 35 20 36 24 11 47 -10 10 -22 32 -25 49 -4 18 -10 39 -16
47 -8 12 -11 12 -27 -2 -21 -19 -73 -34 -73 -22 0 5 19 17 41 26 39 17 41 19
36 52 -3 18 -1 38 4 43 9 9 -15 185 -28 206 -3 4 0 14 6 21 12 15 -4 62 -43
125 -26 41 -57 131 -50 143 12 20 24 5 24 -31 0 -22 5 -43 11 -47 7 -4 9 11 5
52 l-6 59 15 -65 c17 -76 34 -120 46 -120 5 0 6 -7 3 -15 -4 -8 1 -17 10 -21
19 -7 22 -74 6 -105 -7 -12 -7 -19 -1 -19 19 0 33 42 27 76 -4 18 -20 62 -36
96 -31 66 -52 152 -43 175 7 19 40 16 52 -4z m-661 -18 c0 -25 -23 -53 -35
-41 -3 3 -1 6 5 6 7 0 12 14 12 30 0 17 4 30 9 30 5 0 9 -11 9 -25z m352 15
c0 -5 -2 -10 -4 -10 -3 0 -8 5 -11 10 -3 6 -1 10 4 10 6 0 11 -4 11 -10z
m-230 -10 c0 -5 -4 -10 -10 -10 -5 0 -10 5 -10 10 0 6 5 10 10 10 6 0 10 -4
10 -10z m106 -17 c-10 -10 -19 5 -10 18 6 11 8 11 12 0 2 -7 1 -15 -2 -18z
m1554 17 c0 -5 -4 -10 -10 -10 -5 0 -10 5 -10 10 0 6 5 10 10 10 6 0 10 -4 10
-10z m-377 -34 c-10 -13 -36 -29 -58 -35 -45 -11 -60 -6 -24 8 13 5 40 21 59
34 42 30 49 27 23 -7z m107 24 c0 -5 -5 -10 -11 -10 -5 0 -7 5 -4 10 3 6 8 10
11 10 2 0 4 -4 4 -10z m170 -22 c0 -16 -3 -19 -11 -11 -6 6 -8 16 -5 22 11 17
16 13 16 -11z m137 0 c-3 -8 -6 -5 -6 6 -1 11 2 17 5 13 3 -3 4 -12 1 -19z
m-1649 -13 c17 -11 28 -24 25 -32 -3 -7 0 -13 7 -13 6 0 9 -4 5 -10 -8 -12 16
-50 32 -50 17 0 16 -15 -2 -30 -19 -16 -20 -40 -1 -40 15 0 29 -38 20 -52 -4
-5 -12 -7 -20 -4 -8 3 -14 1 -14 -5 0 -5 6 -12 14 -15 17 -7 9 -54 -10 -54 -8
0 -14 -4 -14 -10 0 -5 5 -10 10 -10 6 0 10 -9 10 -20 0 -11 6 -20 13 -20 8 0
7 -4 -3 -10 -12 -7 -18 -3 -27 18 -15 33 -16 69 -3 74 14 5 0 48 -16 48 -7 0
-16 -5 -19 -10 -7 -12 -25 -4 -25 11 0 5 7 9 15 9 9 0 12 6 9 15 -4 8 -12 15
-20 15 -8 0 -14 7 -14 15 0 19 9 19 32 -2 16 -14 18 -14 18 -1 0 9 -7 18 -15
22 -8 3 -15 10 -15 17 0 6 7 9 15 5 8 -3 15 -1 15 4 0 6 -7 10 -15 10 -9 0
-12 6 -8 17 6 14 9 13 25 -7 10 -13 21 -20 25 -17 8 9 -25 57 -40 57 -15 0
-42 -40 -39 -57 1 -6 -2 -14 -7 -17 -12 -8 -24 58 -17 97 6 30 5 30 -5 7 -6
-14 -9 -49 -7 -78 3 -57 0 -60 -60 -43 -19 6 -32 6 -32 1 0 -5 -7 -7 -16 -3
-10 4 -15 1 -13 -8 1 -8 -4 -27 -11 -44 -7 -16 -16 -41 -20 -55 -8 -23 -8 -22
-10 10 -9 178 -4 250 18 236 4 -2 22 8 40 22 27 22 42 27 86 26 32 -1 67 -9
84 -19z m1062 11 c0 -3 -4 -8 -10 -11 -5 -3 -10 -1 -10 4 0 6 5 11 10 11 6 0
10 -2 10 -4z m-1280 -16 c0 -5 -5 -10 -11 -10 -5 0 -7 5 -4 10 3 6 8 10 11 10
2 0 4 -4 4 -10z m1300 -13 c-14 -12 -35 -33 -48 -47 l-22 -25 12 26 c7 14 26
36 42 47 40 28 48 28 16 -1z m300 19 c0 -3 -4 -8 -10 -11 -5 -3 -10 -1 -10 4
0 6 5 11 10 11 6 0 10 -2 10 -4z m60 0 c0 -2 -11 -6 -25 -8 -14 -3 -25 -1 -25
3 0 5 11 9 25 9 14 0 25 -2 25 -4z m-170 -30 c0 -14 -4 -27 -10 -31 -5 -3 -7
-12 -3 -20 4 -11 1 -13 -11 -9 -9 3 -16 2 -16 -4 0 -6 5 -12 11 -14 16 -5 -1
-38 -20 -38 -14 0 -14 -2 -1 -10 12 -8 11 -11 -8 -16 -16 -5 -21 -12 -17 -24
5 -15 2 -17 -17 -12 -20 5 -21 3 -10 -10 11 -14 11 -18 0 -25 -7 -4 -18 -17
-24 -27 -6 -11 -16 -22 -24 -24 -7 -3 -10 0 -6 7 13 20 -5 12 -24 -11 l-19
-23 6 24 c5 20 3 23 -13 19 -27 -7 -46 16 -38 47 7 30 -6 32 -31 5 -10 -11
-24 -20 -30 -20 -7 0 -11 -10 -10 -23 2 -13 -2 -29 -9 -38 -16 -21 -67 -59
-79 -59 -5 0 10 14 34 32 35 25 40 33 26 36 -12 2 -16 9 -13 19 3 8 6 21 6 29
0 8 9 14 20 14 11 0 20 5 20 10 0 6 -7 10 -15 10 -22 0 -18 21 4 27 12 3 17
11 14 19 -3 9 1 14 12 14 9 0 19 8 22 18 3 9 26 33 52 51 34 26 57 35 86 35
22 1 43 6 48 11 4 6 11 4 17 -5 8 -13 10 -12 10 4 0 12 5 16 15 12 9 -3 15 0
15 9 0 8 7 15 15 15 9 0 15 -9 15 -24z m425 6 c-3 -3 -11 0 -18 7 -9 10 -8 11
6 5 10 -3 15 -9 12 -12z m-258 2 c-3 -3 -12 -4 -19 -1 -8 3 -5 6 6 6 11 1 17
-2 13 -5z m110 -36 c-3 -8 -6 -5 -6 6 -1 11 2 17 5 13 3 -3 4 -12 1 -19z
m-157 2 c0 -5 -2 -10 -4 -10 -3 0 -8 5 -11 10 -3 6 -1 10 4 10 6 0 11 -4 11
-10z m-1307 -8 c2 7 8 10 12 5 5 -4 4 -12 -2 -18 -14 -14 -43 -5 -43 12 0 9 3
9 14 0 11 -9 15 -9 19 1z m1357 -2 c0 -5 -5 -10 -11 -10 -5 0 -7 5 -4 10 3 6
8 10 11 10 2 0 4 -4 4 -10z m380 -31 c0 -6 -4 -7 -10 -4 -5 3 -10 11 -10 16 0
6 5 7 10 4 6 -3 10 -11 10 -16z m-953 -15 c-3 -3 -12 -4 -19 -1 -8 3 -5 6 6 6
11 1 17 -2 13 -5z m3 -33 c0 -13 -50 -51 -66 -51 -8 0 -14 5 -14 10 0 6 9 10
20 10 11 0 25 9 32 20 13 21 28 27 28 11z m58 -46 c-61 -43 -108 -70 -132 -76
l-31 -7 30 -1 c18 -1 46 10 68 25 43 29 63 25 26 -5 -40 -32 -89 -44 -124 -31
l-30 12 33 14 c21 9 32 21 32 34 0 11 6 20 13 20 6 0 32 13 57 30 44 29 45 29
53 8 4 -11 6 -22 5 -23z m-138 22 c-14 -8 -27 -12 -30 -10 -7 6 23 23 40 23 8
0 4 -6 -10 -13z m-930 -27 c0 -5 -2 -10 -4 -10 -3 0 -8 5 -11 10 -3 6 -1 10 4
10 6 0 11 -4 11 -10z m100 -4 c0 -2 -7 -6 -15 -10 -8 -3 -15 -1 -15 4 0 6 7
10 15 10 8 0 15 -2 15 -4z m-120 -26 c0 -5 -7 -7 -15 -4 -8 4 -12 10 -9 15 6
11 24 2 24 -11z m40 -31 c-10 -17 -9 -23 1 -30 7 -4 10 -11 6 -15 -4 -4 -13
-2 -19 4 -9 9 -8 22 3 54 8 24 15 35 17 26 2 -9 -2 -27 -8 -39z m270 31 c0 -4
-9 -6 -21 -3 -15 4 -17 8 -8 14 14 8 29 3 29 -11z m240 -14 c0 -2 -7 -6 -15
-10 -8 -3 -15 -1 -15 4 0 6 7 10 15 10 8 0 15 -2 15 -4z m-470 -38 c0 -25 -3
-29 -10 -18 -13 20 -13 50 0 50 6 0 10 -15 10 -32z m504 14 c3 -5 -1 -9 -9 -9
-8 0 -15 4 -15 9 0 4 4 8 9 8 6 0 12 -4 15 -8z m-584 -11 c0 -5 -7 -11 -15
-15 -9 -3 -15 0 -15 9 0 8 7 15 15 15 8 0 15 -4 15 -9z m1350 5 c0 -3 -4 -8
-10 -11 -5 -3 -10 -1 -10 4 0 6 5 11 10 11 6 0 10 -2 10 -4z m-170 -17 c0 -7
9 -9 21 -6 13 3 19 1 16 -6 -2 -7 -16 -13 -30 -15 -17 -2 -25 -8 -21 -14 5 -7
2 -9 -8 -5 -19 7 -63 -36 -54 -52 4 -5 -2 -14 -11 -20 -10 -5 -15 -13 -10 -17
4 -4 15 0 24 8 19 17 77 48 89 48 5 0 -8 -11 -27 -25 -19 -14 -33 -29 -32 -33
1 -4 -4 -6 -12 -4 -7 1 -12 -5 -11 -14 0 -11 -7 -18 -21 -19 -12 -1 -20 2 -17
7 3 5 -2 18 -12 29 -12 14 -13 19 -4 19 7 0 11 3 8 6 -4 3 -16 1 -27 -6 -17
-9 -22 -8 -27 5 -3 8 -18 15 -33 16 l-26 1 30 10 c21 8 30 8 33 0 5 -17 50 9
97 57 39 40 65 52 65 30z m-649 -32 c-8 -8 -11 -7 -11 4 0 20 13 34 18 19 3
-7 -1 -17 -7 -23z m59 24 c0 -6 -4 -13 -10 -16 -5 -3 -10 1 -10 9 0 9 5 16 10
16 6 0 10 -4 10 -9z m38 -63 c-2 -14 -11 -22 -30 -24 -15 -1 -30 1 -33 6 -3 4
1 8 8 7 51 -2 50 -2 29 63 -2 8 3 5 12 -8 10 -12 16 -32 14 -44z m696 56 c21
-8 20 -24 -1 -25 -12 0 -13 -2 -5 -6 10 -4 10 -8 1 -19 -15 -18 -73 -28 -94
-16 -15 8 -13 11 14 20 17 6 31 16 31 22 0 6 5 8 10 5 6 -3 10 1 10 9 0 17 9
20 34 10z m-1294 -34 c0 -18 -19 -11 -30 11 -11 19 -10 20 9 9 12 -6 21 -15
21 -20z m450 6 c0 -3 -4 -8 -10 -11 -5 -3 -10 -1 -10 4 0 6 5 11 10 11 6 0 10
-2 10 -4z m480 -6 c0 -5 -8 -10 -17 -10 -15 0 -16 2 -3 10 19 12 20 12 20 0z
m60 -5 c-7 -8 -16 -12 -21 -9 -13 8 -1 24 18 24 13 0 13 -3 3 -15z m151 -21
c-30 -13 -56 -22 -59 -19 -7 7 -3 9 43 28 63 25 76 18 16 -9z m-1151 -5 c0
-14 -14 -17 -40 -7 -18 7 -21 11 -11 17 15 10 51 3 51 -10z m510 11 c0 -5 -5
-10 -11 -10 -5 0 -7 5 -4 10 3 6 8 10 11 10 2 0 4 -4 4 -10z m15 -41 c-10 -15
-25 -10 -19 6 4 8 10 12 15 9 5 -3 7 -10 4 -15z m675 6 c-7 -8 -17 -15 -22
-15 -6 0 -5 7 2 15 7 8 17 15 22 15 6 0 5 -7 -2 -15z m86 -20 c-7 -20 -66 -20
-66 0 0 8 5 15 10 15 6 0 10 -4 10 -10 0 -5 9 -10 20 -10 14 0 20 7 21 23 0
12 3 16 6 9 3 -7 2 -19 -1 -27z m-683 8 c-7 -2 -19 -2 -25 0 -7 3 -2 5 12 5
14 0 19 -2 13 -5z m-28 -15 c14 2 25 0 25 -6 0 -10 -60 -26 -68 -17 -3 3 0 5
6 5 6 0 10 6 8 13 -1 6 -1 9 1 6 2 -3 15 -4 28 -1z m635 -1 c0 -8 -17 -22 -39
-33 -21 -10 -37 -23 -35 -29 3 -6 -7 -22 -21 -35 -27 -25 -33 -17 -10 13 7 11
11 25 8 33 -3 8 4 18 18 23 13 5 20 10 16 10 -5 1 -5 6 -1 12 4 8 9 7 15 -2 8
-11 11 -11 20 4 12 20 29 23 29 4z m-690 -7 c0 -5 -5 -10 -11 -10 -5 0 -7 5
-4 10 3 6 8 10 11 10 2 0 4 -4 4 -10z m100 -24 c0 -9 -14 -15 -40 -18 -50 -5
-52 7 -2 20 20 5 38 10 40 11 1 1 2 -5 2 -13z m-120 -16 c0 -5 -4 -10 -10 -10
-5 0 -10 5 -10 10 0 6 5 10 10 10 6 0 10 -4 10 -10z m-275 -10 c3 -5 2 -10 -4
-10 -5 0 -13 5 -16 10 -3 6 -2 10 4 10 5 0 13 -4 16 -10z m1035 0 c-13 -9 -13
-10 0 -10 13 0 13 -1 0 -10 -10 -6 -11 -10 -2 -10 6 0 12 -8 12 -18 0 -20 -45
-46 -61 -36 -15 9 0 24 24 25 20 1 20 2 -3 9 -21 7 -22 8 -5 10 l20 1 -20 9
c-16 7 -16 9 -4 9 9 1 19 8 23 16 3 8 11 15 18 15 9 0 8 -3 -2 -10z m-1040
-32 c0 -7 -4 -19 -9 -27 -7 -10 -9 -7 -8 12 2 26 17 39 17 15z m394 -4 c7 -19
-10 -44 -31 -44 -11 0 -14 7 -11 25 3 13 0 26 -6 29 -6 2 1 5 15 5 16 1 29 -6
33 -15z m656 -76 c-1 -26 -42 -61 -65 -56 -12 2 -10 11 10 41 29 42 55 49 55
15z m-625 -18 c8 -24 -1 -40 -21 -40 -17 0 -28 24 -20 45 8 22 34 18 41 -5z
m-453 -35 c-2 -19 -8 -35 -12 -35 -7 0 -5 22 6 58 7 23 10 12 6 -23z m466 -17
c-3 -7 -13 -15 -24 -17 -16 -3 -17 -1 -5 13 16 19 34 21 29 4z m22 -22 c0 -12
-40 -46 -55 -46 -3 0 4 14 17 30 23 32 38 38 38 16z m-503 -28 c-3 -8 -6 -5
-6 6 -1 11 2 17 5 13 3 -3 4 -12 1 -19z m1781 15 c-10 -2 -26 -2 -35 0 -10 3
-2 5 17 5 19 0 27 -2 18 -5z m-1194 -65 c-9 -31 -14 -35 -24 -19 -11 18 -2 41
17 41 10 0 12 -6 7 -22z"/>
<path d="M520 3680 c0 -5 5 -10 10 -10 6 0 10 5 10 10 0 6 -4 10 -10 10 -5 0
-10 -4 -10 -10z"/>
<path d="M1630 3679 c0 -5 5 -7 10 -4 6 3 10 8 10 11 0 2 -4 4 -10 4 -5 0 -10
-5 -10 -11z"/>
<path d="M543 3620 c0 -25 2 -35 4 -22 2 12 2 32 0 45 -2 12 -4 2 -4 -23z"/>
<path d="M521 3634 c0 -11 3 -14 6 -6 3 7 2 16 -1 19 -3 4 -6 -2 -5 -13z"/>
<path d="M510 3591 c-7 -15 -7 -21 0 -21 12 0 25 28 17 36 -3 3 -10 -4 -17
-15z"/>
<path d="M1643 3520 c0 -25 2 -35 4 -22 2 12 2 32 0 45 -2 12 -4 2 -4 -23z"/>
<path d="M531 3514 c0 -11 3 -14 6 -6 3 7 2 16 -1 19 -3 4 -6 -2 -5 -13z"/>
<path d="M552 3510 c0 -14 2 -19 5 -12 2 6 2 18 0 25 -3 6 -5 1 -5 -13z"/>
<path d="M486 3180 c-4 -143 -5 -264 -2 -269 3 -4 6 -124 7 -265 1 -141 6
-259 10 -261 6 -4 1 1045 -6 1053 -1 1 -5 -115 -9 -258z"/>
<path d="M1643 3385 c0 -22 2 -30 4 -17 2 12 2 30 0 40 -3 9 -5 -1 -4 -23z"/>
<path d="M525 3400 c3 -5 8 -10 11 -10 2 0 4 5 4 10 0 6 -5 10 -11 10 -5 0 -7
-4 -4 -10z"/>
<path d="M561 3364 c0 -11 3 -14 6 -6 3 7 2 16 -1 19 -3 4 -6 -2 -5 -13z"/>
<path d="M530 3320 c0 -5 5 -10 10 -10 6 0 10 5 10 10 0 6 -4 10 -10 10 -5 0
-10 -4 -10 -10z"/>
<path d="M520 3256 c0 -31 6 -34 13 -6 3 11 1 23 -4 26 -5 3 -9 -6 -9 -20z"/>
<path d="M1630 3260 c0 -5 5 -10 10 -10 6 0 10 5 10 10 0 6 -4 10 -10 10 -5 0
-10 -4 -10 -10z"/>
<path d="M551 3038 c0 -107 4 -165 9 -152 10 26 8 324 -2 324 -5 0 -8 -78 -7
-172z"/>
<path d="M1631 3168 c-1 -20 4 -28 15 -28 12 0 14 4 7 13 -6 6 -13 19 -16 27
-3 9 -6 3 -6 -12z"/>
<path d="M525 3130 c-3 -5 -1 -10 4 -10 6 0 11 5 11 10 0 6 -2 10 -4 10 -3 0
-8 -4 -11 -10z"/>
<path d="M511 2992 c-1 -60 3 -91 9 -87 11 7 11 105 0 150 -5 21 -8 1 -9 -63z"/>
<path d="M1669 2938 c-3 -16 -3 -95 1 -93 3 2 4 -72 2 -163 -2 -92 1 -162 5
-155 13 18 16 413 4 413 -6 0 -11 -1 -12 -2z"/>
<path d="M520 2820 c0 -5 5 -10 10 -10 6 0 10 5 10 10 0 6 -4 10 -10 10 -5 0
-10 -4 -10 -10z"/>
<path d="M1640 2810 c0 -5 5 -10 11 -10 5 0 7 5 4 10 -3 6 -8 10 -11 10 -2 0
-4 -4 -4 -10z"/>
<path d="M1642 2735 c0 -16 2 -22 5 -12 2 9 2 23 0 30 -3 6 -5 -1 -5 -18z"/>
<path d="M1600 2739 c0 -5 5 -7 10 -4 6 3 10 8 10 11 0 2 -4 4 -10 4 -5 0 -10
-5 -10 -11z"/>
<path d="M1620 2700 c0 -5 5 -10 11 -10 5 0 7 5 4 10 -3 6 -8 10 -11 10 -2 0
-4 -4 -4 -10z"/>
<path d="M530 2675 c0 -8 5 -15 10 -15 6 0 10 7 10 15 0 8 -4 15 -10 15 -5 0
-10 -7 -10 -15z"/>
<path d="M1623 2590 c0 -30 2 -43 4 -27 2 15 2 39 0 55 -2 15 -4 2 -4 -28z"/>
<path d="M1644 2325 c0 -126 2 -177 3 -112 2 65 2 168 0 230 -1 62 -3 9 -3
-118z"/>
<path d="M1666 2495 c4 -8 8 -15 10 -15 2 0 4 7 4 15 0 8 -4 15 -10 15 -5 0
-7 -7 -4 -15z"/>
<path d="M461 2463 c-1 -24 4 -43 9 -43 12 0 12 37 0 65 -7 15 -9 10 -9 -22z"/>
<path d="M1624 2320 c0 -96 2 -136 3 -87 2 48 2 126 0 175 -1 48 -3 8 -3 -88z"/>
<path d="M543 2280 c0 -113 3 -175 6 -138 3 36 3 128 0 205 -5 128 -5 124 -6
-67z"/>
<path d="M1671 2430 c-6 -63 -5 -118 2 -111 4 4 6 37 4 72 -2 35 -4 53 -6 39z"/>
<path d="M460 2360 c0 -5 5 -10 10 -10 6 0 10 5 10 10 0 6 -4 10 -10 10 -5 0
-10 -4 -10 -10z"/>
<path d="M493 2250 c1 -60 5 -110 10 -110 10 0 9 208 -2 215 -6 3 -9 -39 -8
-105z"/>
<path d="M524 2190 c0 -96 2 -136 3 -87 2 48 2 126 0 175 -1 48 -3 8 -3 -88z"/>
<path d="M461 2273 c-1 -18 4 -33 9 -33 12 0 12 17 0 45 -7 17 -9 15 -9 -12z"/>
<path d="M1672 2244 c-1 -28 -4 -80 -7 -115 l-4 -64 10 55 c5 30 8 82 6 115
l-3 60 -2 -51z"/>
<path d="M827 2199 c7 -7 15 -10 18 -7 3 3 -2 9 -12 12 -14 6 -15 5 -6 -5z"/>
<path d="M918 2203 c7 -3 16 -2 19 1 4 3 -2 6 -13 5 -11 0 -14 -3 -6 -6z"/>
<path d="M1053 2203 c9 -2 23 -2 30 0 6 3 -1 5 -18 5 -16 0 -22 -2 -12 -5z"/>
<path d="M460 2047 c0 -80 3 -147 8 -149 4 -2 81 -1 172 2 171 6 158 10 -40
13 l-115 2 -5 132 c-3 72 -8 135 -12 139 -5 4 -8 -58 -8 -139z"/>
<path d="M1318 2183 c12 -2 30 -2 40 0 9 3 -1 5 -23 4 -22 0 -30 -2 -17 -4z"/>
<path d="M1421 2186 c11 -9 69 -14 69 -6 0 6 -16 10 -37 10 -20 0 -34 -2 -32
-4z"/>
<path d="M1525 2180 c-18 -8 -17 -9 8 -9 16 -1 26 3 22 9 -3 6 -7 10 -8 9 -1
0 -11 -4 -22 -9z"/>
<path d="M600 2172 c0 -9 270 -5 279 4 2 2 -59 4 -137 4 -78 0 -142 -4 -142
-8z"/>
<path d="M1053 2173 c15 -2 37 -2 50 0 12 2 0 4 -28 4 -27 0 -38 -2 -22 -4z"/>
<path d="M1260 2160 c0 -5 5 -10 11 -10 5 0 7 5 4 10 -3 6 -8 10 -11 10 -2 0
-4 -4 -4 -10z"/>
<path d="M708 2148 c-18 -11 112 -14 133 -3 14 8 2 11 -52 10 -39 0 -75 -3
-81 -7z"/>
<path d="M910 2150 c0 -5 5 -10 10 -10 6 0 10 5 10 10 0 6 -4 10 -10 10 -5 0
-10 -4 -10 -10z"/>
<path d="M1120 2150 c0 -5 5 -10 10 -10 6 0 10 5 10 10 0 6 -4 10 -10 10 -5 0
-10 -4 -10 -10z"/>
<path d="M1550 2156 c0 -2 14 -6 30 -8 17 -3 30 -1 30 4 0 4 -13 8 -30 8 -16
0 -30 -2 -30 -4z"/>
<path d="M1470 2125 c0 -24 2 -25 68 -23 l67 1 -55 7 -55 6 50 5 50 5 -52 2
c-29 1 -53 7 -53 12 0 6 -4 10 -10 10 -5 0 -10 -11 -10 -25z"/>
<path d="M1000 2129 c0 -5 5 -7 10 -4 6 3 10 8 10 11 0 2 -4 4 -10 4 -5 0 -10
-5 -10 -11z"/>
<path d="M1294 2130 c-5 -5 -61 -11 -124 -13 l-115 -3 121 -2 c98 -2 124 1
134 13 14 16 0 21 -16 5z"/>
<path d="M1415 2130 c22 -4 34 -8 27 -9 -7 0 -10 -6 -6 -12 4 -7 10 -7 16 -1
18 18 -2 32 -40 31 l-37 -2 40 -7z"/>
<path d="M610 2120 c-94 -9 -41 -16 75 -10 101 5 105 6 45 10 -36 3 -90 3
-120 0z"/>
<path d="M493 2033 c-1 -57 2 -79 7 -63 11 34 12 150 2 150 -5 0 -9 -39 -9
-87z"/>
<path d="M858 2113 c12 -2 30 -2 40 0 9 3 -1 5 -23 4 -22 0 -30 -2 -17 -4z"/>
<path d="M1348 2108 c8 -8 20 -8 44 -1 l33 11 -44 1 c-34 1 -42 -2 -33 -11z"/>
<path d="M1070 2080 l-195 -6 208 -2 c114 -1 207 0 207 2 0 10 -37 11 -220 6z"/>
<path d="M560 2070 c-10 -7 5 -9 50 -9 51 1 58 3 35 9 -43 11 -68 11 -85 0z"/>
<path d="M733 2073 c15 -2 39 -2 55 0 15 2 2 4 -28 4 -30 0 -43 -2 -27 -4z"/>
<path d="M1403 2073 c48 -2 125 -2 170 0 45 1 6 3 -88 3 -93 0 -130 -2 -82 -3z"/>
<path d="M823 2053 c15 -2 37 -2 50 0 12 2 0 4 -28 4 -27 0 -38 -2 -22 -4z"/>
<path d="M1160 2048 c0 -5 107 -7 238 -6 238 2 211 6 -81 10 -86 2 -157 0
-157 -4z"/>
<path d="M1008 2043 c17 -2 47 -2 65 0 17 2 3 4 -33 4 -36 0 -50 -2 -32 -4z"/>
<path d="M578 2033 c12 -2 32 -2 45 0 12 2 2 4 -23 4 -25 0 -35 -2 -22 -4z"/>
<path d="M885 2020 c11 -4 -56 -6 -150 -6 -93 1 -181 -1 -195 -5 -14 -4 69 -8
183 -8 157 -1 206 2 201 11 -5 8 -2 9 12 4 15 -6 252 -7 672 -2 28 1 52 3 52
6 0 3 -179 5 -397 6 -219 0 -389 -2 -378 -6z"/>
<path d="M1217 1988 c2 -5 32 -8 65 -8 34 0 59 3 56 6 -9 8 -127 10 -121 2z"/>
<path d="M1075 1980 c-38 -4 -179 -7 -313 -7 -134 0 -246 -4 -250 -8 -11 -12
639 1 668 13 l25 11 -30 -1 c-16 -1 -61 -4 -100 -8z"/>
<path d="M1418 1954 c-3 -3 -69 -6 -147 -6 -78 0 -141 -3 -141 -7 0 -6 136 -8
263 -3 37 1 67 7 67 12 0 11 -33 14 -42 4z"/>
<path d="M1518 1953 c7 -3 16 -2 19 1 4 3 -2 6 -13 5 -11 0 -14 -3 -6 -6z"/>
<path d="M510 1942 c0 -4 19 -9 42 -9 30 -2 38 1 28 7 -18 12 -70 13 -70 2z"/>
<path d="M675 1940 c-94 -9 132 -16 286 -10 l124 6 -175 4 c-96 3 -202 3 -235
0z"/>
<path d="M878 1903 c12 -2 32 -2 45 0 12 2 2 4 -23 4 -25 0 -35 -2 -22 -4z"/>
<path d="M683 1873 c54 -2 139 -2 190 0 51 1 7 3 -98 3 -104 0 -146 -2 -92 -3z"/>
<path d="M988 1873 c6 -2 18 -2 25 0 6 3 1 5 -13 5 -14 0 -19 -2 -12 -5z"/>
<path d="M754 3676 c-8 -22 -1 -59 14 -64 8 -2 12 8 12 32 0 37 -16 57 -26 32z"/>
<path d="M1397 3684 c-10 -11 -8 -64 2 -64 14 0 23 37 14 55 -5 9 -12 12 -16
9z"/>
<path d="M1545 1870 c-3 -6 1 -7 9 -4 18 7 21 14 7 14 -6 0 -13 -4 -16 -10z"/>
<path d="M1567 1844 c3 -8 -1 -14 -11 -14 -9 0 -16 -7 -16 -16 0 -11 -6 -14
-22 -9 -20 5 -21 4 -8 -7 9 -7 16 -31 17 -53 1 -22 2 -48 2 -57 1 -20 36 -25
47 -7 6 11 44 8 77 -6 12 -5 17 -3 17 10 0 9 -3 14 -8 11 -4 -2 -16 2 -27 10
-15 11 -16 14 -3 14 18 0 31 26 22 42 -3 5 -15 7 -26 5 -14 -4 -18 -1 -14 8 8
21 -16 73 -35 78 -12 3 -16 0 -12 -9z m30 -37 c11 -24 10 -25 -44 -60 -16 -10
-6 51 11 70 16 18 21 16 33 -10z m28 -73 c-33 -14 -40 -12 -32 9 4 10 15 13
34 9 l28 -5 -30 -13z m-55 -33 c0 -6 -4 -13 -10 -16 -5 -3 -10 1 -10 9 0 9 5
16 10 16 6 0 10 -4 10 -9z"/>
<path d="M1561 1659 c-13 -5 -21 -12 -18 -15 3 -3 15 0 27 6 12 6 34 8 51 5
18 -4 29 -3 29 4 0 13 -56 13 -89 0z"/>
<path d="M1499 1619 c-23 -19 -23 -20 -2 -10 12 6 25 16 28 21 10 16 -1 12
-26 -11z"/>
<path d="M1360 1615 c0 -8 2 -15 4 -15 2 0 6 7 10 15 3 8 1 15 -4 15 -6 0 -10
-7 -10 -15z"/>
<path d="M1573 1590 c-35 -14 -27 -20 10 -8 17 6 34 13 36 14 8 7 -24 3 -46
-6z"/>
<path d="M1609 1513 c-13 -16 -12 -17 4 -4 9 7 17 15 17 17 0 8 -8 3 -21 -13z"/>
<path d="M1610 1479 c0 -5 5 -7 10 -4 6 3 10 1 10 -5 0 -6 5 -8 10 -5 17 10
11 25 -10 25 -11 0 -20 -5 -20 -11z"/>
<path d="M1518 1441 c-27 -24 -31 -32 -20 -42 10 -11 16 -9 35 11 l22 23 -30
-18 -30 -18 34 37 c42 43 34 48 -11 7z"/>
<path d="M1594 1430 c0 -11 3 -20 7 -20 10 0 19 27 12 34 -12 11 -19 6 -19
-14z"/>
<path d="M1710 1410 c-13 -8 -13 -10 2 -10 9 0 20 5 23 10 8 13 -5 13 -25 0z"/>
<path d="M1525 1380 c-10 -11 -14 -20 -8 -20 5 0 18 9 28 20 10 11 14 20 8 20
-5 0 -18 -9 -28 -20z"/>
<path d="M1613 1384 c-3 -8 -13 -14 -22 -15 -12 0 -12 -2 4 -9 18 -8 18 -9 -5
-10 -23 -1 -24 -2 -7 -14 26 -20 21 -29 -13 -23 -23 5 -28 3 -23 -9 3 -9 12
-12 25 -8 17 5 19 3 13 -15 -3 -12 -2 -21 4 -21 5 0 13 9 16 20 3 11 11 20 16
20 12 0 11 -14 -2 -27 -8 -8 -7 -13 1 -18 7 -4 16 -1 21 6 4 8 14 14 21 14 7
0 13 9 13 20 0 11 5 29 12 41 15 26 2 47 -22 38 -12 -5 -16 -4 -12 3 4 6 -2
13 -14 16 -12 3 -22 0 -26 -9z"/>
<path d="M1529 1343 c-13 -16 -12 -17 4 -4 9 7 17 15 17 17 0 8 -8 3 -21 -13z"/>
<path d="M1510 1285 c-7 -8 -8 -15 -3 -15 16 0 -2 -101 -20 -112 -10 -5 -17
-16 -17 -23 0 -8 -4 -15 -9 -15 -4 0 -6 12 -4 28 4 21 2 24 -6 12 -6 -8 -11
-23 -11 -34 0 -10 -17 -34 -37 -52 -52 -47 -28 -43 32 7 58 47 97 112 91 150
-3 14 0 32 7 39 9 10 9 11 -2 5 -11 -6 -13 -4 -8 8 8 21 3 22 -13 2z"/>
<path d="M1525 1167 c-16 -54 -14 -72 4 -38 7 13 18 18 29 15 16 -5 16 -5 0 9
-22 17 -23 28 -3 21 14 -6 16 -2 19 28 1 6 -7 12 -16 14 -13 2 -22 -11 -33
-49z"/>
<path d="M1470 1083 c-13 -15 -12 -16 4 -10 10 4 20 7 22 7 2 0 4 5 4 10 0 15
-13 12 -30 -7z"/>
<path d="M1256 1048 c-3 -7 -7 -26 -10 -43 -6 -28 -5 -29 9 -11 8 11 15 30 15
43 0 25 -8 31 -14 11z"/>
<path d="M1300 1046 c0 -8 -6 -17 -12 -19 -8 -3 -6 -6 5 -6 11 -1 17 6 17 19
0 11 -2 20 -5 20 -3 0 -5 -6 -5 -14z"/>
<path d="M1216 925 c-20 -25 -36 -51 -33 -58 2 -7 9 -1 17 13 7 14 26 40 43
58 17 17 26 32 21 32 -5 0 -27 -20 -48 -45z"/>
<path d="M1268 933 c-10 -2 -18 -8 -18 -13 0 -5 -15 -25 -34 -45 -33 -34 -33
-36 -14 -46 14 -8 18 -8 14 0 -9 14 43 91 60 91 8 0 14 5 14 10 0 6 -1 9 -2 9
-2 -1 -11 -3 -20 -6z"/>
<path d="M722 1695 c-16 -34 -17 -32 20 -51 30 -16 31 -17 13 -30 -15 -12 -16
-14 -3 -14 18 0 34 33 19 38 -6 2 -11 14 -11 27 0 28 -9 55 -19 55 -4 0 -13
-11 -19 -25z m28 -9 c0 -3 -4 -8 -10 -11 -5 -3 -10 -1 -10 4 0 6 5 11 10 11 6
0 10 -2 10 -4z"/>
<path d="M767 1582 c-23 -25 -21 -35 2 -22 29 15 35 12 20 -7 -13 -16 -12 -17
3 -4 14 10 15 18 7 32 -12 23 -12 23 -32 1z"/>
<path d="M580 1430 c-13 -8 -12 -10 3 -10 9 0 17 5 17 10 0 12 -1 12 -20 0z"/>
<path d="M585 1400 c-8 -13 5 -13 25 0 13 8 13 10 -2 10 -9 0 -20 -4 -23 -10z"/>
<path d="M425 1390 c3 -5 11 -10 16 -10 6 0 7 5 4 10 -3 6 -11 10 -16 10 -6 0
-7 -4 -4 -10z"/>
<path d="M608 1373 c7 -3 16 -2 19 1 4 3 -2 6 -13 5 -11 0 -14 -3 -6 -6z"/>
<path d="M356 1281 c-4 -7 -5 -15 -2 -18 9 -9 19 4 14 18 -4 11 -6 11 -12 0z"/>
<path d="M305 1240 c-3 -5 -2 -10 4 -10 5 0 13 5 16 10 3 6 2 10 -4 10 -5 0
-13 -4 -16 -10z"/>
<path d="M322 1208 c-7 -7 -12 -8 -12 -4 0 5 -7 3 -15 -4 -8 -7 -15 -16 -15
-21 0 -5 7 -9 15 -9 20 0 19 -16 -1 -24 -9 -4 -14 -9 -11 -12 3 -3 18 3 33 13
16 10 25 13 21 6 -4 -6 -3 -14 2 -17 11 -7 35 49 28 66 -4 8 -6 7 -6 -4 -1
-10 -6 -18 -12 -18 -6 0 -9 9 -6 20 6 23 -3 26 -21 8z"/>
<path d="M756 1195 c-3 -8 -1 -15 4 -15 6 0 10 7 10 15 0 8 -2 15 -4 15 -2 0
-6 -7 -10 -15z"/>
<path d="M548 1033 c7 -3 16 -2 19 1 4 3 -2 6 -13 5 -11 0 -14 -3 -6 -6z"/>
<path d="M548 1013 c7 -3 16 -2 19 1 4 3 -2 6 -13 5 -11 0 -14 -3 -6 -6z"/>
<path d="M443 866 c4 -10 7 -22 7 -27 0 -5 5 -9 11 -9 15 0 7 43 -10 48 -10 3
-12 0 -8 -12z"/>
<path d="M475 570 c3 -5 10 -10 16 -10 5 0 9 5 9 10 0 6 -7 10 -16 10 -8 0
-12 -4 -9 -10z"/>
<path d="M475 540 c3 -5 8 -10 11 -10 2 0 4 5 4 10 0 6 -5 10 -11 10 -5 0 -7
-4 -4 -10z"/>
<path d="M740 932 c0 -5 7 -15 15 -22 8 -7 15 -9 15 -6 0 4 -7 14 -15 22 -8 9
-15 11 -15 6z"/>
<path d="M1060 411 c0 -10 19 -25 25 -20 1 2 -3 10 -11 17 -8 7 -14 8 -14 3z"/>
<path d="M397 304 c-3 -4 -2 -15 4 -26 15 -27 74 -22 74 7 0 16 -8 21 -35 23
-20 2 -39 0 -43 -4z"/>
<path d="M958 233 c7 -3 16 -2 19 1 4 3 -2 6 -13 5 -11 0 -14 -3 -6 -6z"/>
<path d="M139 139 c-23 -19 -23 -20 -2 -10 12 6 25 16 28 21 10 16 -1 12 -26
-11z"/>
<path d="M238 867 c10 -12 10 -16 0 -20 -10 -4 -11 -7 0 -18 9 -9 15 -10 23
-2 16 16 7 47 -16 52 -16 3 -17 1 -7 -12z"/>
<path d="M225 800 c3 -5 11 -10 16 -10 6 0 7 5 4 10 -3 6 -11 10 -16 10 -6 0
-7 -4 -4 -10z"/>
<path d="M1405 820 c3 -5 8 -10 11 -10 2 0 4 5 4 10 0 6 -5 10 -11 10 -5 0 -7
-4 -4 -10z"/>
<path d="M1370 814 c0 -10 31 -36 37 -31 3 3 -2 13 -10 22 -16 15 -27 19 -27
9z"/>
<path d="M1435 810 c-3 -5 -1 -10 4 -10 6 0 11 5 11 10 0 6 -2 10 -4 10 -3 0
-8 -4 -11 -10z"/>
<path d="M1310 770 c0 -5 5 -10 11 -10 5 0 7 5 4 10 -3 6 -8 10 -11 10 -2 0
-4 -4 -4 -10z"/>
<path d="M1350 770 c0 -5 5 -10 10 -10 6 0 10 5 10 10 0 6 -4 10 -10 10 -5 0
-10 -4 -10 -10z"/>
<path d="M1450 771 c0 -5 9 -11 20 -14 24 -6 27 8 4 17 -21 8 -24 8 -24 -3z"/>
<path d="M1385 750 c-3 -5 -1 -10 4 -10 6 0 11 5 11 10 0 6 -2 10 -4 10 -3 0
-8 -4 -11 -10z"/>
<path d="M1293 733 c9 -9 20 -13 24 -9 4 4 1 11 -7 16 -25 16 -35 11 -17 -7z"/>
<path d="M1340 740 c0 -5 5 -10 11 -10 5 0 7 5 4 10 -3 6 -8 10 -11 10 -2 0
-4 -4 -4 -10z"/>
<path d="M1450 730 c0 -5 5 -10 10 -10 6 0 10 5 10 10 0 6 -4 10 -10 10 -5 0
-10 -4 -10 -10z"/>
<path d="M1380 710 c0 -5 5 -10 10 -10 6 0 10 5 10 10 0 6 -4 10 -10 10 -5 0
-10 -4 -10 -10z"/>
<path d="M1356 681 c-4 -5 -2 -12 3 -15 5 -4 12 -2 15 3 4 5 2 12 -3 15 -5 4
-12 2 -15 -3z"/>
<path d="M1395 670 c3 -5 10 -10 16 -10 5 0 9 5 9 10 0 6 -7 10 -16 10 -8 0
-12 -4 -9 -10z"/>
<path d="M1385 640 c-3 -5 -1 -10 4 -10 6 0 11 5 11 10 0 6 -2 10 -4 10 -3 0
-8 -4 -11 -10z"/>
<path d="M1340 630 c0 -5 5 -10 10 -10 6 0 10 5 10 10 0 6 -4 10 -10 10 -5 0
-10 -4 -10 -10z"/>
<path d="M1160 711 c0 -6 -19 -21 -42 -35 -24 -14 -36 -26 -27 -26 9 0 31 10
49 23 34 23 50 47 31 47 -6 0 -11 -4 -11 -9z"/>
</g>
</svg>
