<?xml version="1.0" standalone="no"?>
<!DOCTYPE svg PUBLIC "-//W3C//DTD SVG 20010904//EN"
 "http://www.w3.org/TR/2001/REC-SVG-20010904/DTD/svg10.dtd">
<svg version="1.0" xmlns="http://www.w3.org/2000/svg"
 width="221.000000pt" height="377.000000pt" viewBox="0 0 221.000000 377.000000"
 preserveAspectRatio="xMidYMid meet">
<metadata>
Created by potrace 1.16, written by Peter Selinger 2001-2019
</metadata>
<g transform="translate(0.000000,377.000000) scale(0.100000,-0.100000)"
fill="#000000" stroke="none">
<path d="M38 3763 c-12 -3 -18 -14 -18 -31 1 -15 0 -855 -2 -1867 l-3 -1840
160 -6 c177 -7 1993 -14 1999 -8 9 9 25 3734 16 3742 -6 6 -2129 16 -2152 10z
m1204 -23 l927 0 3 -87 c2 -49 1 -482 -2 -963 l-5 -875 -22 -3 c-19 -3 -23 5
-38 75 -32 147 -43 188 -44 163 0 -14 10 -72 23 -130 13 -58 24 -106 23 -107
-1 0 -18 -3 -37 -5 l-35 -3 4 143 4 142 -64 -2 c-63 -2 -63 -2 -12 -5 l52 -4
-5 -72 c-4 -54 -3 -68 5 -57 8 11 10 -3 5 -55 -6 -67 -17 -96 -30 -83 -3 3 -1
23 5 45 6 21 11 47 10 58 0 11 -7 -7 -15 -40 -17 -69 -13 -85 18 -85 13 1 38
-2 57 -6 38 -8 24 -24 -21 -24 -14 0 -28 -5 -30 -11 -3 -8 -14 -6 -36 5 -34
17 -41 31 -19 39 6 2 9 7 6 11 -3 3 -14 0 -24 -8 -17 -12 -17 -14 3 -34 43
-43 138 -41 192 4 l30 26 0 -242 c-1 -170 -4 -247 -13 -261 -16 -26 -27 -24
-27 5 0 56 -72 77 -78 24 -4 -33 -9 -34 -29 -10 -14 16 -14 16 -9 0 3 -12 0
-18 -10 -18 -9 0 -12 5 -8 13 5 9 4 9 -6 0 -8 -7 -13 -30 -12 -53 1 -25 -2
-39 -8 -35 -6 3 -10 14 -10 24 0 10 -12 36 -26 57 -15 21 -30 50 -35 64 -7 24
-7 24 -8 3 -1 -18 -7 -23 -26 -23 -20 0 -25 5 -25 27 0 14 -3 23 -7 19 -4 -4
-8 -14 -8 -22 0 -10 -25 -23 -67 -38 -53 -18 -68 -20 -68 -9 0 23 -47 63 -74
63 -15 0 -26 7 -29 18 -4 13 -5 13 -6 -4 -1 -16 6 -23 31 -28 70 -14 78 -58
19 -105 -29 -24 -41 -41 -49 -78 -29 -127 -33 -141 -55 -151 -21 -10 -21 -11
-2 -12 20 -1 20 -1 1 -15 -17 -13 -18 -15 -3 -15 9 0 17 -4 17 -10 0 -5 -5
-10 -11 -10 -6 0 -9 -7 -5 -15 3 -10 -3 -17 -20 -21 -46 -12 -103 -9 -116 5
-11 12 -10 13 4 8 10 -3 20 -2 23 3 4 6 0 10 -7 10 -10 0 -9 3 2 10 12 7 10
11 -10 19 -18 7 -20 10 -7 10 22 1 23 21 1 21 -14 0 -14 3 -4 15 7 8 8 15 3
15 -15 0 -8 40 8 51 11 7 11 9 -3 9 -23 0 -23 17 0 23 12 3 10 5 -7 6 -24 1
-24 1 -5 16 19 14 19 14 0 15 -20 0 -20 0 0 15 19 14 19 14 -1 15 -13 1 -15 4
-6 7 11 4 11 7 0 13 -10 7 -10 11 0 24 8 9 9 16 3 16 -5 0 -9 11 -8 25 0 14 4
25 9 25 4 0 7 5 7 10 0 6 -7 10 -15 10 -10 0 -15 10 -15 31 0 16 4 28 9 24 5
-3 12 -1 16 5 3 5 -3 10 -14 10 -24 0 -28 18 -6 26 8 4 15 10 15 15 0 4 -8 5
-17 2 -16 -6 -16 -4 -5 9 11 14 10 16 -5 14 -13 -2 -17 -10 -15 -27 2 -22 2
-23 -11 -6 -8 9 -18 50 -22 90 -3 39 -12 78 -17 85 -8 9 -8 16 -1 23 7 7 9 71
6 182 -6 210 11 435 38 489 10 20 37 57 59 83 22 26 47 60 55 76 13 24 22 29
54 29 59 0 122 -38 148 -90 13 -24 23 -60 23 -80 0 -20 6 -45 14 -56 16 -22
10 -78 -7 -67 -5 3 -15 -1 -21 -9 -6 -8 -21 -20 -34 -27 -19 -10 -21 -15 -10
-34 10 -20 10 -21 -5 -8 -17 14 -21 6 -20 -36 1 -7 -4 -13 -11 -13 -11 0 14
-20 26 -20 7 0 25 30 52 86 9 17 22 34 31 38 9 3 13 2 10 -4 -3 -6 -1 -10 4
-10 6 0 11 -9 11 -19 0 -11 8 -22 18 -24 14 -4 14 -5 1 -6 -9 0 -22 6 -29 14
-7 8 -16 15 -21 15 -5 0 -1 -9 8 -20 14 -16 30 -20 80 -20 49 0 63 -3 63 -15
0 -8 9 -19 20 -25 17 -9 25 -6 46 15 24 24 33 26 98 25 96 -3 96 -3 96 20 0
13 -7 20 -20 20 -11 0 -20 -7 -20 -15 0 -11 -12 -15 -49 -15 -27 0 -62 3 -79
6 -29 6 -30 8 -34 68 -4 57 -3 63 24 89 20 19 24 27 13 27 -9 0 -18 -7 -21
-15 -4 -8 -10 -15 -15 -15 -15 0 14 40 33 46 10 3 18 10 18 17 0 8 -3 8 -12
-1 -7 -7 -21 -12 -32 -12 -20 0 -19 2 4 19 13 11 28 17 32 15 13 -8 8 40 -6
59 -15 20 -37 22 -54 5 -9 -9 -15 -9 -24 0 -10 10 -10 15 2 23 13 9 13 10 0 6
-8 -2 -15 -14 -15 -27 0 -17 -8 -26 -25 -30 -27 -6 -50 -42 -50 -77 0 -24 -24
-53 -45 -53 -8 0 -15 18 -20 48 -10 76 -42 131 -93 163 -25 16 -59 29 -74 29
-21 0 -32 7 -40 25 -6 14 -23 28 -37 32 -14 3 -31 13 -37 21 -6 9 -18 13 -27
9 -23 -9 -61 31 -86 91 -17 42 -20 57 -10 68 12 15 6 68 -13 110 -9 18 -20 24
-47 26 -100 4 -114 7 -132 27 -20 21 -69 29 -69 11 0 -5 -8 -10 -17 -10 -16 0
-16 2 -3 11 12 8 10 9 -8 7 -12 -2 -21 -6 -20 -9 2 -4 -5 -16 -15 -27 -12 -13
-15 -22 -8 -27 19 -11 12 -42 -13 -53 -61 -27 -75 -126 -24 -164 45 -34 58
-51 64 -85 4 -23 14 -37 29 -43 31 -12 37 -24 26 -53 -6 -16 -23 -29 -45 -37
-48 -16 -81 -62 -96 -135 -7 -33 -23 -87 -36 -121 -13 -33 -24 -67 -24 -75 1
-25 48 94 65 166 29 115 34 125 82 148 37 18 45 19 53 7 5 -8 5 -21 1 -29 -5
-9 -7 -24 -6 -33 2 -10 -1 -18 -6 -18 -11 0 -7 -23 6 -32 6 -5 5 -8 -3 -8 -7
0 -10 -5 -6 -11 3 -6 0 -15 -7 -20 -12 -7 -12 -9 0 -9 9 0 10 -4 4 -12 -6 -7
-10 -30 -9 -50 1 -21 -2 -38 -6 -38 -11 0 -6 -23 7 -32 6 -5 5 -11 -3 -17 -17
-10 -22 -42 -9 -58 6 -9 5 -13 -4 -13 -11 0 -11 -2 1 -10 13 -9 13 -11 0 -20
-8 -5 -10 -10 -5 -10 6 0 11 -26 12 -58 1 -31 4 -93 5 -137 2 -44 8 -83 13
-87 7 -5 6 -8 -1 -8 -14 0 -14 -83 0 -92 7 -5 5 -8 -4 -8 -13 0 -13 -1 0 -10
13 -9 13 -11 0 -20 -8 -5 -10 -10 -5 -10 15 0 16 -243 1 -252 -8 -6 -7 -11 4
-18 10 -6 11 -10 3 -10 -7 0 -10 -7 -7 -15 12 -31 33 -15 37 28 3 32 4 25 7
-28 l3 -70 7 60 c4 33 8 113 9 178 1 72 5 117 11 117 10 0 6 -311 -5 -437 -3
-29 -1 -53 3 -53 5 0 12 106 15 235 3 130 9 240 12 244 3 5 14 7 26 4 16 -4
17 -8 7 -14 -10 -6 -13 -50 -14 -186 -1 -114 1 -150 5 -101 11 133 24 101 17
-41 -3 -74 -7 -136 -9 -137 -1 -1 -21 -5 -45 -9 -41 -7 -42 -6 -48 24 -5 22
-12 31 -26 31 -17 0 -19 -5 -15 -32 6 -42 14 -76 21 -86 3 -5 -8 -6 -25 -4
-16 2 -29 9 -30 16 -1 6 -5 0 -9 -14 -8 -24 -8 -24 -9 -2 -1 12 -6 22 -13 22
-6 0 -21 9 -33 20 -21 19 -21 27 -18 163 2 78 6 148 9 156 3 8 14 12 29 9 l25
-5 -2 101 -2 101 -3 -93 c-4 -89 -5 -93 -25 -90 -20 3 -21 9 -21 78 1 61 0 68
-7 35 l-7 -40 -3 45 c-1 25 -1 55 -1 67 1 11 -3 24 -8 28 -7 4 -11 -16 -11
-59 0 -81 -6 -99 -30 -86 -9 5 -20 6 -24 3 -3 -3 -6 -1 -6 6 0 7 -5 9 -11 6
-7 -5 -9 22 -7 89 4 117 -8 114 -15 -4 -2 -47 -8 -93 -11 -102 -9 -20 31 -49
70 -52 l26 -1 -4 -182 c-5 -169 -4 -183 13 -199 11 -9 19 -21 19 -25 0 -5 8
-18 17 -29 16 -19 18 -19 25 -3 6 17 7 17 7 1 1 -20 21 -25 21 -5 0 8 3 8 9
-2 15 -24 41 -22 41 2 0 18 2 19 10 7 9 -13 11 -13 20 0 8 12 10 10 10 -10 0
-14 4 -31 9 -39 6 -9 5 -21 -2 -33 -15 -23 -27 -23 -27 1 0 10 -7 24 -15 31
-18 15 -45 6 -45 -15 0 -22 -25 -18 -43 7 -8 13 -18 19 -23 14 -5 -5 -4 -11 4
-13 6 -3 12 -11 12 -18 0 -8 7 -18 15 -23 22 -12 9 -39 -21 -45 -13 -2 -24 0
-24 4 0 5 -6 9 -14 9 -19 0 -16 48 4 60 8 5 12 12 8 15 -10 10 -48 -33 -43
-47 3 -7 -3 -18 -13 -24 -15 -10 -21 -7 -38 17 -10 16 -25 29 -31 29 -7 0 -13
6 -13 13 0 8 -18 13 -52 15 -38 1 -49 -1 -38 -8 8 -5 31 -10 50 -11 29 0 31
-2 15 -9 -11 -5 -14 -9 -7 -9 9 -1 10 -6 2 -20 -8 -16 -17 -18 -50 -14 -26 4
-40 2 -40 -6 0 -26 -28 -9 -32 20 l-5 31 51 -5 51 -6 -40 14 c-38 12 -50 12
-109 0 -39 -8 -41 22 -3 60 65 69 77 85 62 85 -8 0 -18 -7 -22 -15 -5 -8 -23
-19 -41 -24 -27 -8 -32 -7 -32 8 0 26 100 141 122 141 7 0 2 -10 -13 -23 -14
-13 -28 -32 -32 -42 -5 -17 -4 -16 9 3 15 20 25 22 93 21 l76 -1 -40 -12 -40
-13 60 4 c44 3 56 2 45 -6 -8 -6 -26 -11 -40 -12 l-25 -1 25 -8 25 -8 -25 -1
c-19 -1 -21 -4 -11 -10 10 -6 25 -1 48 17 36 29 41 42 18 42 -8 0 -15 5 -15
10 0 6 -34 10 -82 10 -78 0 -80 1 -65 18 16 17 23 42 12 42 -2 0 -21 -11 -41
-25 -40 -27 -54 -22 -54 20 0 40 -31 138 -52 168 -20 27 -20 31 -5 42 28 20
20 22 -40 13 -31 -5 -62 -7 -70 -4 -7 3 -13 1 -13 -4 0 -5 17 -10 37 -12 42
-3 54 -25 28 -51 -19 -20 -19 -27 0 -27 8 0 15 -9 15 -20 0 -20 -1 -20 -31 2
-17 13 -55 46 -84 75 l-54 53 27 14 c23 13 25 15 10 21 -24 9 -23 27 2 43 11
7 20 20 21 30 0 15 2 14 10 -3 8 -17 9 -17 5 5 -6 29 1 42 29 58 13 8 15 11 6
12 -24 0 -108 -97 -123 -142 -21 -61 -39 -61 -37 -1 2 59 20 143 30 143 5 0
25 11 45 25 37 25 104 35 104 15 0 -5 -6 -10 -14 -10 -8 0 -18 -4 -21 -10 -4
-7 3 -7 20 0 15 6 33 10 41 10 23 0 16 -18 -8 -23 -14 -3 -9 -5 15 -6 20 0 37
2 37 6 0 12 -33 43 -47 43 -7 0 -13 4 -13 9 0 11 -75 2 -114 -14 -49 -21 -73
-55 -91 -129 -14 -55 -15 -73 -5 -91 11 -20 7 -27 -42 -76 -35 -35 -68 -82
-92 -132 -21 -42 -42 -77 -47 -77 -10 0 -1 2608 8 2624 3 5 65 6 137 3 72 -4
548 -7 1058 -7z m-168 -836 c3 -8 2 -12 -4 -9 -6 3 -10 10 -10 16 0 14 7 11
14 -7z m-24 -23 c0 -4 -18 -8 -40 -8 -22 0 -37 4 -34 8 3 5 21 9 40 9 19 0 34
-4 34 -9z m67 -126 c15 -75 73 -170 88 -145 3 6 1 10 -5 10 -6 0 -8 5 -5 10 3
6 1 10 -5 10 -6 0 -8 5 -5 10 3 6 1 10 -5 10 -6 0 -8 5 -5 10 3 6 1 10 -5 10
-7 0 -9 8 -5 19 3 10 0 25 -7 32 -8 8 -13 24 -12 37 1 12 -3 22 -8 22 -6 0 -8
7 -4 15 3 8 1 15 -5 15 -6 0 -7 5 -4 10 13 21 26 -2 71 -129 2 -8 6 -12 9 -10
2 3 -9 41 -24 87 -16 45 -26 82 -24 82 5 0 51 -103 73 -165 10 -27 21 -58 25
-67 4 -10 3 -18 -3 -18 -6 0 -15 14 -21 32 -6 17 -14 29 -17 25 -3 -3 -1 -14
5 -25 6 -12 11 -31 11 -44 0 -13 5 -29 12 -36 7 -7 10 -12 7 -13 -33 -6 -49
-4 -49 8 0 7 -2 13 -4 13 -2 0 -11 3 -20 6 -11 4 -16 0 -16 -12 -1 -16 -4 -15
-23 7 -12 14 -29 28 -38 31 -9 4 -26 42 -43 98 -29 97 -28 142 2 159 14 8 20
2 35 -32 10 -23 21 -55 24 -72z m149 90 c19 -29 15 -37 -19 -40 -21 -2 -46 25
-47 53 0 23 49 13 66 -13z m-259 -71 c-7 -44 -15 -53 -27 -34 -8 12 -10 9 -10
-10 -1 -25 -1 -25 -16 -5 -16 19 -16 19 -12 -12 2 -18 1 -30 -4 -27 -4 3 -8
14 -8 25 0 21 -16 26 -23 7 -3 -7 -6 -3 -6 10 -1 32 50 82 85 82 25 0 26 -2
21 -36z m238 -44 c3 -5 1 -10 -4 -10 -6 0 -11 5 -11 10 0 6 2 10 4 10 3 0 8
-4 11 -10z m35 -49 c14 -27 13 -31 -7 -31 -9 0 -13 3 -10 6 3 4 2 15 -4 25 -6
13 -6 19 0 19 6 0 15 -9 21 -19z m-244 -28 c9 -10 23 -32 31 -51 7 -18 18 -30
24 -26 6 3 23 -6 39 -21 18 -17 40 -27 64 -28 40 -2 44 -20 5 -25 -13 -2 -29
-8 -36 -14 -7 -5 -16 -7 -21 -4 -6 3 -16 -2 -23 -11 -13 -15 -9 -15 41 -9 85
10 89 11 102 24 9 9 8 12 -7 12 -18 0 -18 1 1 23 11 12 26 35 32 50 16 37 46
33 50 -7 2 -16 -1 -33 -7 -39 -6 -6 -11 -16 -11 -21 0 -6 5 -4 10 4 5 8 10 10
10 4 0 -19 -13 -24 -27 -12 -12 10 -13 7 -7 -18 7 -26 6 -28 -9 -15 -12 9 -17
10 -17 2 0 -7 -5 -9 -12 -5 -7 5 -9 2 -5 -9 4 -11 2 -14 -9 -10 -8 3 -14 -1
-14 -10 0 -8 -14 -20 -31 -26 -39 -13 -39 -13 -39 -1 0 6 9 10 20 10 11 0 20
4 20 9 0 4 -11 6 -25 3 -34 -6 -97 7 -90 19 4 5 2 9 -2 9 -5 0 -14 10 -22 22
-12 19 -11 23 5 35 17 13 17 14 -8 8 -18 -5 -28 -3 -28 4 0 6 -7 8 -15 5 -10
-4 -18 3 -25 22 -6 16 -16 39 -22 51 -9 19 -8 26 7 43 22 24 29 25 51 3z m384
-112 c0 -6 -11 -22 -25 -37 -14 -15 -25 -32 -25 -37 0 -6 -9 -21 -21 -33 -12
-12 -20 -27 -18 -33 2 -5 26 20 52 55 27 36 51 63 54 61 7 -8 -27 -68 -43 -74
-7 -3 -14 -11 -14 -18 0 -7 -3 -15 -7 -17 -21 -9 -64 -74 -74 -111 -16 -60
-16 -60 -24 -197 -3 -69 -9 -134 -11 -145 -4 -16 -3 -17 5 -5 8 12 11 8 11
-16 0 -17 -7 -37 -15 -44 -11 -9 -12 -16 -2 -31 10 -16 9 -21 -1 -28 -10 -6
-12 -25 -6 -82 6 -57 9 -68 15 -49 8 24 8 24 6 -4 -3 -43 -22 -42 -35 2 -9 29
-9 98 -2 273 12 266 30 383 68 449 15 25 29 50 32 56 21 44 80 92 80 65z
m-343 -99 c3 -25 -12 -30 -21 -6 -9 24 -7 36 6 32 6 -2 13 -14 15 -26z m833
-32 c0 -5 -9 -10 -21 -10 -11 0 -17 5 -14 10 3 6 13 10 21 10 8 0 14 -4 14
-10z m-646 -27 c-3 -16 -10 -44 -15 -63 -14 -52 -28 -281 -30 -477 -1 -95 -5
-173 -10 -173 -5 0 -9 12 -10 28 l-1 27 -13 -30 c-8 -16 -15 -28 -15 -25 -1 3
-4 41 -6 85 -3 44 -8 82 -10 84 -2 2 -4 -35 -4 -82 0 -83 -9 -107 -26 -69 -4
9 -11 60 -14 112 l-8 95 2 -113 c1 -71 -3 -111 -9 -109 -12 5 -12 0 -14 160
-2 101 -5 126 -13 107 -5 -15 -8 -68 -5 -127 3 -57 4 -103 2 -103 -2 0 -10 13
-18 30 -12 24 -15 71 -13 247 4 283 26 431 57 382 7 -11 9 -11 9 2 0 12 11 16
48 17 27 0 55 2 63 4 11 2 14 -8 12 -47 l-2 -50 9 47 c9 52 16 68 31 68 5 0 7
-12 3 -27z m594 -2 c10 -6 7 -10 -12 -15 -18 -4 -28 -16 -35 -43 -12 -41 -7
-55 14 -46 12 4 15 -4 15 -35 0 -58 -8 -72 -40 -72 -43 0 -55 21 -42 78 25
109 28 117 52 129 30 15 31 15 48 4z m72 -1 c0 -14 -49 -44 -58 -35 -4 3 4 15
17 26 26 21 41 24 41 9z m-50 -304 c-5 -5 -15 -6 -24 -3 -12 5 -14 23 -10 104
7 154 16 163 30 28 6 -66 8 -124 4 -129z m-148 162 c-23 -23 -14 -53 21 -66
18 -7 43 -12 56 -12 19 0 20 -3 11 -20 -9 -16 -8 -18 5 -14 8 4 15 1 15 -5 0
-26 -91 -1 -120 34 -22 27 -14 95 13 95 8 0 8 -3 -1 -12z m-519 -623 c39 -16
12 -20 -63 -10 -104 13 -128 34 -27 24 39 -4 80 -10 90 -14z m17 15 c0 -5 -2
-10 -4 -10 -3 0 -8 5 -11 10 -3 6 -1 10 4 10 6 0 11 -4 11 -10z m-165 -30 c3
-5 34 -10 68 -10 34 0 69 -5 77 -10 12 -8 12 -10 -5 -11 -60 -4 -149 14 -160
31 -3 6 -2 10 4 10 5 0 13 -4 16 -10z m5 -70 c0 -22 -3 -40 -7 -40 -5 0 -8 18
-8 40 0 22 3 40 8 40 4 0 7 -18 7 -40z m156 5 c10 -9 11 -15 4 -15 -12 0 -9
-58 4 -79 4 -6 2 -11 -4 -11 -6 0 -8 -15 -6 -37 3 -21 1 -63 -3 -93 -6 -48 -8
-36 -15 93 -5 81 -12 147 -16 147 -4 0 -6 -19 -3 -42 9 -97 20 -385 16 -415
-3 -19 -11 -33 -19 -33 -12 0 -14 44 -14 250 0 246 0 250 21 250 11 0 27 -7
35 -15z m-69 -87 c-2 -18 -4 -6 -4 27 0 33 2 48 4 33 2 -15 2 -42 0 -60z m143
42 c0 -5 -4 -10 -9 -10 -6 0 -13 5 -16 10 -3 6 1 10 9 10 9 0 16 -4 16 -10z
m-235 -40 c0 -7 -5 -15 -10 -17 -6 -2 -11 6 -11 17 0 11 5 19 11 17 5 -2 10
-10 10 -17z m-176 -176 c-2 -168 -16 -195 -17 -36 -2 123 1 152 14 152 3 0 4
-52 3 -116z m456 92 c2 -11 6 -61 9 -111 3 -49 8 -133 12 -186 l7 -97 -32 -7
c-22 -5 -31 -11 -27 -21 7 -18 -15 -18 -39 0 -20 14 -31 56 -15 56 7 0 7 7 0
20 -6 11 -8 25 -5 30 3 6 -4 11 -17 11 l-23 2 23 4 c26 5 29 28 5 42 -10 6
-13 11 -6 11 17 0 28 87 13 105 -9 11 -9 19 -2 28 18 21 24 77 10 77 -9 0 -8
3 2 10 13 9 13 11 0 21 -13 9 -12 10 3 5 10 -3 20 0 22 7 3 6 16 13 30 13 18
1 26 -4 30 -20z m-1048 -7 c15 -6 39 -20 52 -32 25 -24 91 -158 91 -187 0 -16
16 -75 65 -250 17 -57 70 -209 111 -317 29 -74 29 -83 5 -76 -22 6 -51 -30
-44 -56 2 -9 -4 -24 -13 -32 -15 -12 -16 -12 -9 0 5 10 4 12 -3 7 -7 -4 -12
-15 -13 -24 0 -11 -2 -12 -6 -4 -2 6 -9 10 -13 7 -5 -3 -6 -13 -3 -22 5 -13 2
-15 -15 -11 -16 4 -22 2 -22 -9 0 -9 -6 -13 -14 -10 -8 3 -20 -1 -26 -9 -10
-11 -10 -14 0 -14 7 0 10 -7 6 -16 -3 -8 -2 -13 3 -10 5 3 11 -5 13 -19 3 -14
1 -25 -3 -25 -5 0 -9 5 -9 10 0 6 -5 10 -11 10 -5 0 -8 -4 -5 -8 4 -8 -45 -52
-57 -52 -3 0 -7 10 -11 22 -5 20 -7 21 -18 7 -13 -15 -63 -49 -73 -49 -3 0 -5
8 -5 18 0 14 -2 15 -10 2 -7 -11 -12 -12 -17 -4 -11 16 -81 24 -87 10 -3 -7
-7 -7 -14 3 -5 7 -15 10 -21 7 -6 -4 -11 -2 -11 4 0 7 -7 10 -15 6 -8 -3 -15
-1 -15 5 0 6 -4 8 -9 4 -5 -3 -13 0 -17 6 -4 8 -9 7 -15 -2 -5 -8 -9 100 -9
254 0 171 4 267 10 267 6 0 10 -7 10 -15 0 -12 4 -13 18 -6 9 5 22 11 27 13 9
3 11 55 2 65 -9 8 -56 -20 -60 -36 -3 -9 -5 8 -6 37 0 28 2 52 7 52 7 0 28
105 38 190 4 34 3 34 -21 -15 l-25 -50 0 41 c0 26 6 47 16 55 8 7 31 44 49 83
39 81 84 140 129 167 36 22 36 22 73 8z m1793 -76 c0 -32 3 -68 6 -80 9 -31
34 -29 34 2 0 16 6 25 16 25 8 0 12 -4 9 -10 -3 -5 -2 -10 3 -10 5 0 7 -30 5
-67 -11 -224 -12 -232 -37 -197 -10 13 -13 33 -9 62 5 33 3 42 -10 42 -8 0
-18 -7 -21 -16 -4 -12 -2 -15 9 -10 17 6 19 -2 6 -22 -11 -17 -36 11 -28 32 4
9 1 13 -6 10 -7 -2 -26 23 -45 59 -28 52 -33 71 -30 116 5 88 25 74 33 -22 11
-127 22 -123 30 9 4 66 9 122 12 127 13 22 23 0 23 -50z m-1582 20 c9 -16 9
-22 -3 -26 -9 -4 -12 -1 -8 9 4 10 0 12 -12 8 -15 -6 -15 -4 -4 14 7 12 14 20
15 19 1 -1 6 -12 12 -24z m1403 -9 c17 -17 29 -38 29 -53 0 -18 -3 -22 -9 -13
-7 11 -9 11 -14 -1 -3 -8 9 -27 29 -46 18 -18 52 -67 74 -109 22 -42 62 -103
90 -135 l50 -59 0 -290 c0 -260 -2 -290 -16 -284 -9 3 -39 7 -67 7 -45 1 -48
2 -22 9 l30 8 -29 1 c-42 1 -21 19 29 24 39 4 39 4 -10 7 -45 2 -47 3 -20 10
23 6 25 8 8 9 -28 1 -41 21 -14 21 30 0 51 11 51 26 0 9 -12 14 -34 14 -28 0
-35 -4 -40 -25 -4 -15 -17 -30 -32 -35 -26 -10 -25 -30 2 -30 21 0 17 -17 -6
-23 -27 -7 -25 -27 3 -28 l22 0 -21 -9 c-26 -10 -38 -26 -25 -34 5 -3 11 1 15
9 3 8 10 15 16 15 6 0 10 -32 10 -82 0 -85 8 -105 11 -28 0 25 3 60 6 78 l5
32 64 0 64 0 -4 -87 c-2 -49 -4 -107 -5 -131 l-1 -43 -37 3 c-34 3 -38 6 -36
29 2 32 -27 36 -35 5 -6 -20 -6 -20 -13 4 -7 24 -7 24 -8 3 -1 -30 -21 -30
-21 -1 0 17 -3 19 -11 11 -9 -9 -19 -8 -40 2 -15 8 -35 12 -43 9 -9 -4 -16 -1
-16 6 0 10 -3 10 -15 0 -12 -10 -15 -9 -15 6 -1 18 -1 18 -15 0 -13 -17 -15
-18 -15 -3 0 26 -20 20 -21 -5 l-2 -23 -4 23 c-2 12 -9 20 -14 17 -5 -4 -9 0
-9 7 0 8 -9 14 -20 15 -13 1 -20 -4 -20 -17 0 -10 -4 -22 -10 -25 -6 -4 -10 7
-10 27 0 25 -3 29 -10 18 -6 -9 -10 -10 -10 -3 0 12 -37 29 -53 25 -5 -2 -7 3
-4 10 4 13 19 14 70 4 15 -3 27 -1 27 4 0 5 -16 12 -35 16 -19 3 -33 10 -30
14 8 13 -45 50 -74 50 -48 0 -113 28 -150 66 -33 33 -36 40 -39 107 -2 40 -8
76 -13 82 -6 5 -9 4 -9 -4 0 -7 -4 -9 -10 -6 -30 18 3 194 54 293 17 33 30 44
20 17 -4 -8 -1 -15 4 -15 6 0 12 6 15 13 2 6 3 4 2 -5 -4 -24 11 -23 18 1 2
11 23 29 45 40 28 14 46 34 63 68 32 66 34 72 10 43 -20 -24 -21 -24 -21 -4 0
37 22 88 49 111 30 26 21 30 -14 7 -29 -19 -45 -64 -47 -128 0 -25 -5 -49 -11
-53 -16 -10 -1 164 21 237 11 36 23 77 26 91 3 16 23 37 53 56 106 68 191 78
244 27z m259 -38 c0 -3 -4 -8 -10 -11 -5 -3 -10 -1 -10 4 0 6 5 11 10 11 6 0
10 -2 10 -4z m-1686 -68 c3 -13 5 -45 5 -73 l-1 -50 -12 50 c-7 28 -16 60 -20
73 -5 16 -3 22 7 22 8 0 17 -10 21 -22z m53 0 c-3 -8 -6 -5 -6 6 -1 11 2 17 5
13 3 -3 4 -12 1 -19z m603 -148 c0 -5 19 -10 41 -10 36 0 41 -2 36 -20 -3 -11
0 -20 6 -20 22 0 -8 -19 -38 -23 -27 -4 -26 -4 8 -6 34 -1 37 -3 37 -31 0 -22
-5 -30 -17 -31 -12 0 -13 -2 -5 -6 7 -3 19 1 28 7 13 12 34 7 22 -5 -10 -10
-117 -45 -138 -45 -24 0 -53 60 -50 105 1 17 2 42 1 57 0 26 11 34 52 37 9 0
17 -3 17 -9z m-1099 -102 l-9 -33 -1 32 c-1 17 2 40 6 50 12 30 16 -9 4 -49z
m1309 -98 c-13 -8 25 -40 48 -40 18 0 6 -40 -17 -58 -9 -7 -25 -20 -36 -29
-15 -12 -42 -17 -108 -18 -52 -1 -83 2 -75 7 9 6 5 8 -12 6 -37 -4 -30 -22 10
-26 19 -2 38 -9 42 -15 5 -8 14 -7 34 2 19 8 30 9 38 1 7 -7 4 -10 -11 -10
-12 0 -28 -3 -37 -6 -13 -5 -13 -8 -1 -20 7 -8 24 -15 37 -15 19 -1 18 -3 -7
-8 l-30 -7 35 -8 35 -9 -40 -7 c-38 -7 -39 -7 -7 -9 17 0 32 -5 32 -10 0 -5
-9 -7 -20 -4 -11 3 -20 0 -20 -6 0 -6 3 -10 8 -10 20 3 28 -3 30 -28 2 -21 -1
-24 -10 -15 -18 18 -27 15 -25 -8 1 -14 6 -18 19 -14 10 3 18 1 18 -5 0 -6
-10 -11 -22 -11 -23 -1 -23 -1 2 -15 l25 -14 -27 -1 c-23 0 -28 -5 -28 -24 0
-19 6 -25 28 -28 19 -2 27 -9 27 -23 0 -19 -9 -20 -131 -26 -73 -4 -141 -10
-152 -13 -26 -9 -59 4 -40 15 7 5 25 9 39 9 15 0 32 7 39 15 7 8 20 15 29 15
17 1 61 33 61 46 0 4 7 12 16 19 13 9 14 16 6 32 -9 17 -42 179 -45 223 -2 36
4 73 11 66 4 -4 7 -13 7 -19 0 -19 66 -27 100 -12 29 14 28 14 -25 9 -40 -4
-51 -3 -40 5 8 6 24 11 35 11 27 1 105 37 105 49 0 5 -15 11 -32 13 -20 2 -32
8 -30 16 2 14 -14 16 -23 2 -3 -5 3 -15 15 -22 26 -16 26 -38 0 -38 -11 0 -20
5 -20 10 0 19 -42 10 -47 -10 -6 -24 -19 -26 -27 -5 -3 8 -15 15 -26 15 -15 0
-20 -7 -20 -25 0 -14 -5 -25 -10 -25 -16 0 0 53 22 73 19 16 19 17 2 18 -11 0
8 8 41 18 33 10 77 25 99 34 49 22 56 21 56 -3 0 -12 -10 -24 -22 -30 -21 -8
-21 -9 -3 -9 28 -1 43 11 39 32 -1 9 5 25 14 34 15 15 17 13 25 -17 6 -23 5
-35 -3 -40z m180 50 c0 -25 -16 -40 -48 -46 -21 -4 -44 -13 -53 -21 -25 -21
-49 -6 -49 32 l0 33 50 -4 c33 -2 54 1 62 10 13 14 38 11 38 -4z m-512 -24 c3
-20 0 -27 -10 -23 -7 2 -22 0 -32 -6 -16 -8 -18 -7 -11 9 4 11 10 27 12 37 8
28 38 16 41 -17z m-241 -11 c10 -10 13 -24 9 -41 -4 -16 -3 -23 3 -20 5 4 12
2 16 -4 8 -13 -174 -13 -195 0 -12 8 -11 10 6 10 12 0 25 7 28 16 6 15 8 15
30 0 22 -14 25 -14 30 0 3 8 10 12 16 9 5 -3 10 2 10 13 0 34 21 42 47 17z
m87 -50 c16 -24 16 -25 -9 -25 -20 0 -25 5 -25 25 0 14 4 25 9 25 5 0 16 -11
25 -25z m150 15 c39 -15 33 -40 -9 -40 -27 0 -35 4 -35 18 0 16 8 32 16 32 1
0 14 -4 28 -10z m-81 -57 c-62 -2 -164 -2 -225 0 -62 1 -12 3 112 3 124 0 174
-2 113 -3z m-343 -38 c0 -14 -2 -25 -4 -25 -2 0 -6 11 -8 25 -3 14 -1 25 3 25
5 0 9 -11 9 -25z m472 0 c23 -17 29 -34 43 -115 9 -52 20 -109 25 -126 6 -23
3 -36 -14 -56 -22 -28 -110 -80 -119 -72 -3 3 -19 -2 -36 -11 -70 -36 -16 -53
109 -35 49 7 112 10 139 6 91 -12 91 -12 91 187 l1 172 36 23 36 23 -9 -63
c-12 -90 -8 -176 11 -205 9 -13 19 -46 22 -72 8 -71 66 -125 156 -147 l66 -17
3 -61 c3 -56 5 -62 33 -76 21 -10 69 -15 155 -17 112 -2 170 -13 170 -32 0 -3
-298 -5 -663 -4 -364 1 -803 2 -975 2 l-313 1 3 67 c3 66 4 68 28 65 14 -1 75
-3 135 -4 111 -2 163 10 205 46 8 7 59 23 113 35 140 32 147 43 121 183 -3 14
0 29 5 33 17 10 13 69 -8 127 -21 59 -35 151 -24 161 4 4 102 6 217 5 193 -3
213 -5 238 -23z m218 -85 c0 -5 -7 -7 -15 -4 -8 4 -15 8 -15 10 0 2 7 4 15 4
8 0 15 -4 15 -10z m-650 -154 c0 -2 -7 -20 -16 -41 -10 -26 -13 -51 -9 -79 6
-34 5 -39 -6 -28 -17 16 -16 116 1 137 11 14 30 21 30 11z m1447 -62 c-3 -3
-12 -4 -19 -1 -8 3 -5 6 6 6 11 1 17 -2 13 -5z m-797 -24 c0 -5 -2 -10 -4 -10
-3 0 -8 5 -11 10 -3 6 -1 10 4 10 6 0 11 -4 11 -10z m-708 -42 c-7 -7 -12 -8
-12 -2 0 6 3 14 7 17 3 4 9 5 12 2 2 -3 -1 -11 -7 -17z m-10 -53 c6 -29 -7
-43 -16 -19 -9 24 -7 56 3 50 5 -3 11 -17 13 -31z m-33 -22 c1 -7 -3 -13 -8
-13 -10 0 -21 47 -12 55 6 6 19 -21 20 -42z m64 27 c3 -11 1 -20 -4 -20 -5 0
-9 9 -9 20 0 11 2 20 4 20 2 0 6 -9 9 -20z m-103 -22 c0 -19 -2 -20 -10 -8
-13 19 -13 30 0 30 6 0 10 -10 10 -22z m1613 5 c-13 -2 -35 -2 -50 0 -16 2 -5
4 22 4 28 0 40 -2 28 -4z m-1986 -105 c-3 -8 -6 -5 -6 6 -1 11 2 17 5 13 3 -3
4 -12 1 -19z m239 13 c-7 -11 -56 -21 -56 -10 0 9 19 17 43 18 10 1 16 -3 13
-8z m-149 -25 c3 -3 -5 -6 -20 -6 -14 0 -28 4 -31 9 -7 10 41 8 51 -3z m1470
-68 c-3 -7 -5 -2 -5 12 0 14 2 19 5 13 2 -7 2 -19 0 -25z"/>
<path d="M974 3709 c-3 -5 2 -9 11 -9 13 0 55 -54 55 -72 0 -4 -15 -8 -32 -10
-18 -2 17 -7 78 -12 62 -4 127 -4 145 0 l34 8 -35 6 c-32 5 -35 8 -38 43 -3
35 -2 37 27 37 17 0 31 5 31 10 0 13 -267 12 -276 -1z m120 -31 c-15 -50 -21
-53 -38 -20 -21 41 -21 42 15 42 27 0 30 -3 23 -22z m66 -8 c0 -32 -11 -50
-31 -50 -23 0 -23 1 -4 46 15 36 35 38 35 4z"/>
<path d="M204 3555 c-66 -33 -106 -96 -112 -175 -3 -40 1 -67 13 -91 82 -162
284 -183 392 -41 29 39 33 51 33 107 0 77 -8 101 -52 150 -67 77 -179 97 -274
50z m184 -10 c49 -21 81 -52 103 -100 67 -144 -62 -298 -220 -264 -133 28
-196 171 -125 286 51 82 152 115 242 78z"/>
<path d="M301 3488 c-5 -13 -12 -31 -15 -40 -4 -14 -17 -18 -63 -19 -49 0 -55
-2 -39 -12 10 -7 29 -20 42 -30 l24 -18 -26 -51 c-14 -27 -23 -52 -20 -56 3
-3 29 11 57 31 l52 36 47 -34 c26 -19 52 -35 58 -35 6 0 0 25 -13 55 l-24 54
37 31 37 30 -30 2 c-17 1 -39 1 -49 1 -13 0 -24 13 -34 39 -17 43 -29 48 -41
16z m26 -42 c-4 -9 -11 -16 -18 -16 -6 0 -8 7 -5 16 3 9 6 21 6 27 0 8 3 8 11
0 7 -7 9 -19 6 -27z m-57 -30 c0 -2 -3 -11 -6 -20 -5 -12 -9 -13 -25 -3 -26
16 -24 27 6 27 14 0 25 -2 25 -4z m79 -15 c8 -14 6 -22 -8 -35 -21 -19 -32
-20 -55 -3 -15 11 -17 17 -7 35 15 27 56 29 70 3z m61 14 c0 -2 -9 -9 -19 -14
-14 -8 -20 -7 -25 4 -4 11 2 15 19 15 14 0 25 -2 25 -5z m-120 -75 c0 -5 -14
-18 -30 -30 l-30 -21 10 27 c6 15 13 31 16 35 6 10 34 0 34 -11z m94 -12 c7
-18 12 -35 10 -37 -1 -2 -17 7 -34 19 -25 18 -28 25 -19 36 18 21 28 17 43
-18z"/>
<path d="M1037 3565 c-61 -23 -94 -52 -121 -107 -90 -180 79 -368 272 -304 54
18 114 74 133 124 29 74 4 188 -53 238 -65 58 -158 77 -231 49z m187 -42 c98
-69 114 -214 33 -302 -29 -31 -100 -61 -146 -61 -60 0 -137 44 -168 97 -31 54
-36 139 -11 188 57 107 197 145 292 78z"/>
<path d="M1094 3475 c-7 -19 -14 -39 -14 -45 0 -6 -25 -10 -57 -10 -63 -1 -64
3 7 -50 l25 -18 -23 -46 c-12 -26 -22 -49 -22 -51 0 -13 31 -2 65 24 l39 29
38 -31 c21 -17 41 -27 44 -24 4 4 -1 27 -11 52 -19 51 -19 51 48 92 15 10 27
21 27 25 0 4 -27 8 -60 8 l-59 0 -11 40 c-6 22 -13 40 -16 40 -3 0 -12 -16
-20 -35z m30 -30 c3 -9 0 -15 -9 -15 -9 0 -12 6 -9 15 4 8 7 15 9 15 2 0 5 -7
9 -15z m16 -51 c14 -36 13 -42 -10 -54 -15 -8 -25 -8 -39 2 -17 12 -18 17 -6
46 17 39 42 42 55 6z m55 20 c14 -6 14 -8 -1 -25 -22 -24 -30 -24 -37 0 -7 29
5 37 38 25z m-125 -18 c0 -25 -17 -27 -41 -6 l-24 19 33 1 c21 0 32 -5 32 -14z
m19 -70 c9 -10 6 -17 -13 -30 -34 -22 -36 -21 -23 14 13 33 19 36 36 16z m81
-31 c0 -19 -1 -18 -22 3 -19 19 -21 24 -8 32 17 10 30 -4 30 -35z"/>
<path d="M1837 3570 c-101 -31 -171 -150 -147 -251 25 -102 120 -179 220 -179
65 0 147 43 184 97 52 75 49 180 -9 255 -56 75 -155 106 -248 78z m169 -39
c99 -61 128 -196 60 -285 -30 -40 -117 -86 -161 -86 -48 0 -129 45 -160 90
-64 92 -32 219 70 281 42 26 148 26 191 0z"/>
<path d="M1890 3475 l-13 -45 -53 0 c-30 0 -54 -4 -54 -9 0 -5 18 -24 40 -43
l40 -33 -16 -43 c-10 -23 -14 -45 -11 -49 4 -3 22 6 41 21 43 33 53 32 96 -4
53 -46 62 -39 39 28 l-20 57 43 37 43 37 -57 1 -58 0 -11 45 c-6 25 -17 45
-24 45 -7 0 -18 -20 -25 -45z m39 -32 c1 -7 -6 -13 -14 -13 -17 0 -18 4 -8 39
6 23 7 23 14 5 4 -10 8 -25 8 -31z m-65 -45 c-9 -32 -9 -32 -39 -12 -29 19
-19 34 23 34 20 0 22 -4 16 -22z m86 -4 c9 -21 6 -29 -12 -45 -41 -34 -78 -7
-59 44 14 37 57 38 71 1z m45 6 c-14 -16 -20 -17 -27 -8 -13 22 -9 28 19 28
26 0 26 0 8 -20z m-21 -86 c9 -36 2 -40 -28 -17 -19 15 -22 23 -13 32 18 18
34 13 41 -15z m-90 7 c7 -10 -22 -37 -30 -28 -9 8 3 37 15 37 5 0 12 -4 15 -9z"/>
<path d="M265 3000 c-57 -15 -81 -28 -116 -67 -70 -77 -74 -177 -11 -267 76
-110 253 -116 339 -11 99 119 46 296 -101 340 -54 16 -66 17 -111 5z m99 -21
c74 -21 126 -79 141 -160 16 -89 -48 -188 -140 -214 -97 -29 -186 11 -232 103
-21 44 -25 61 -20 104 9 72 46 124 110 154 58 27 84 29 141 13z"/>
<path d="M285 2897 l-20 -52 -52 -3 c-29 -2 -53 -7 -53 -12 0 -5 18 -19 39
-30 l39 -20 -19 -51 c-11 -28 -18 -53 -16 -56 3 -2 26 10 53 26 58 38 66 38
121 5 25 -14 47 -23 50 -20 3 3 -2 26 -12 52 -19 49 -19 48 28 75 31 17 18 29
-32 29 l-49 0 -23 55 c-12 30 -25 55 -28 55 -3 0 -15 -24 -26 -53z m45 -13
c15 -39 13 -44 -20 -44 -16 0 -30 2 -30 4 0 15 24 66 31 66 5 0 14 -12 19 -26z
m34 -70 c10 -26 7 -33 -17 -49 -21 -14 -27 -14 -55 1 -32 16 -43 48 -19 57 29
12 85 7 91 -9z m66 7 c0 -9 -24 -21 -41 -21 -5 0 -9 7 -9 15 0 9 9 15 25 15
14 0 25 -4 25 -9z m-180 -11 c0 -13 -20 -13 -40 0 -12 8 -9 10 13 10 15 0 27
-4 27 -10z m31 -50 c10 -6 19 -14 19 -18 0 -10 -69 -47 -75 -40 -7 7 18 68 28
68 5 0 17 -5 28 -10z m117 -22 c6 -17 10 -33 9 -34 -2 -2 -18 6 -37 17 -32 20
-33 22 -15 35 26 19 29 18 43 -18z"/>
<path d="M1842 2997 c-169 -62 -192 -297 -38 -384 181 -101 393 87 307 272
-47 101 -163 150 -269 112z m169 -37 c81 -42 119 -148 82 -231 -67 -148 -246
-170 -337 -41 -94 133 16 316 177 296 22 -2 56 -13 78 -24z"/>
<path d="M1883 2900 l-18 -50 -52 0 c-54 0 -71 -13 -30 -24 12 -3 30 -12 40
-20 17 -13 17 -16 1 -55 -24 -61 -15 -67 45 -27 52 35 54 36 80 20 14 -9 36
-26 48 -37 39 -35 39 -9 0 62 l-37 69 25 5 c25 4 25 4 9 -14 -25 -28 -4 -23
31 7 l30 25 -53 -4 -52 -4 -17 48 c-10 27 -21 49 -25 49 -4 0 -15 -22 -25 -50z
m41 -12 c9 -35 8 -38 -18 -38 -23 0 -24 2 -15 30 13 36 24 38 33 8z m-74 -64
c0 -9 -5 -14 -12 -12 -18 6 -21 28 -4 28 9 0 16 -7 16 -16z m100 -4 c15 -28
-21 -46 -61 -30 -32 14 -35 20 -17 38 19 19 66 15 78 -8z m-66 -43 c18 -13 17
-15 -9 -35 -25 -20 -45 -28 -45 -18 0 13 23 66 29 66 4 0 15 -6 25 -13z m96
-7 c12 -23 7 -25 -21 -9 -11 5 -17 14 -14 20 10 15 23 11 35 -11z"/>
<path d="M209 2412 c-98 -51 -145 -170 -106 -265 36 -85 113 -136 205 -137
101 0 186 65 213 164 35 131 -81 266 -229 266 -16 0 -54 -13 -83 -28z m176
-16 c58 -27 78 -47 100 -99 52 -126 -27 -255 -164 -265 -147 -11 -252 133
-192 263 24 53 55 83 105 106 54 25 91 24 151 -5z"/>
<path d="M280 2326 l-24 -56 -48 0 c-26 0 -48 -4 -48 -8 0 -5 16 -17 35 -28
40 -21 42 -29 18 -79 -9 -19 -14 -38 -10 -41 3 -4 29 8 57 26 l50 32 50 -32
c28 -18 53 -30 56 -28 2 3 -3 27 -12 54 l-16 48 28 23 c16 13 32 23 37 23 4 0
7 5 7 10 0 6 -24 10 -53 10 -51 0 -53 1 -65 33 -6 18 -18 41 -25 51 -13 17
-16 14 -37 -38z m49 -16 c10 -29 9 -30 -20 -30 -31 0 -35 9 -19 41 15 27 26
24 39 -11z m19 -52 c45 -45 -33 -87 -85 -46 -19 15 2 46 34 51 16 2 30 5 34 6
3 0 10 -4 17 -11z m63 -8 c-24 -21 -41 -19 -41 6 0 9 11 14 33 14 l32 -1 -24
-19z m-161 1 c0 -19 -22 -23 -38 -7 -15 15 -14 16 11 16 15 0 27 -4 27 -9z
m24 -64 c17 -12 16 -14 -9 -31 -32 -21 -38 -17 -29 18 7 30 13 31 38 13z m110
-13 c9 -34 6 -36 -23 -15 -13 10 -21 23 -17 30 13 20 34 12 40 -15z"/>
<path d="M1641 2266 c-7 -9 -23 -16 -35 -16 -12 0 -31 -7 -42 -16 -10 -8 -12
-12 -4 -8 22 12 100 22 100 13 0 -4 -19 -18 -42 -32 -24 -14 -51 -40 -61 -59
l-19 -33 34 37 c18 20 48 44 66 52 32 17 36 26 23 59 -6 17 -8 17 -20 3z"/>
<path d="M1667 2083 c3 -20 -5 -40 -28 -70 -35 -45 -49 -53 -49 -28 0 9 16 29
35 46 19 17 35 36 35 42 0 6 -11 0 -24 -12 -18 -17 -30 -20 -52 -16 -20 5 -25
4 -15 -3 10 -7 10 -11 1 -17 -8 -5 -10 -21 -6 -48 4 -24 3 -43 -4 -47 -16 -10
10 -37 43 -44 l29 -7 -22 31 c-20 28 -20 31 -5 46 9 9 23 27 32 40 20 31 35
31 27 0 -4 -18 0 -28 18 -40 19 -14 21 -19 11 -35 -10 -15 -10 -21 0 -25 9 -3
8 -7 -3 -15 -9 -6 -10 -11 -3 -11 7 0 11 -15 10 -39 -1 -27 -6 -38 -16 -36
-19 2 -26 22 -14 38 5 7 6 34 3 61 l-5 48 -19 -21 c-14 -15 -15 -20 -5 -16 11
4 14 -1 13 -22 -1 -16 -3 -38 -3 -50 -1 -14 -7 -23 -17 -23 -9 0 -13 -5 -9
-12 4 -7 -2 -2 -14 12 -16 20 -22 23 -32 13 -7 -7 -9 -13 -5 -13 5 0 3 -7 -4
-15 -19 -22 -3 -245 17 -245 12 0 14 -8 9 -34 -5 -26 -3 -35 10 -40 13 -5 15
-9 6 -18 -7 -7 -12 -19 -12 -27 0 -15 18 9 36 49 7 15 17 27 68 83 22 24 32
27 73 24 29 -2 57 2 73 11 25 14 25 14 -10 9 l-35 -6 30 14 c64 30 -11 14
-126 -27 -14 -5 -38 -29 -54 -54 -15 -24 -35 -44 -44 -44 -13 1 -13 3 3 15 11
8 14 15 8 15 -7 0 -12 11 -12 25 0 14 -6 25 -14 25 -9 0 -15 23 -19 83 -10
123 -9 137 9 137 8 0 13 -4 10 -9 -8 -12 49 -59 80 -67 24 -6 58 -2 103 12 23
7 24 6 18 -34 -4 -22 -3 -43 2 -46 15 -10 35 268 26 371 l-7 71 -61 4 c-34 2
-69 7 -78 11 -13 6 -15 3 -12 -20z m86 -29 c-10 -15 -19 -22 -21 -15 -2 7 4
19 14 26 26 20 27 19 7 -11z m53 -119 c-1 -148 -9 -172 -33 -104 -18 48 -9
135 22 237 10 29 12 4 11 -133z m-111 105 c-3 -10 0 -22 6 -26 8 -5 10 -2 7 8
-4 8 -3 20 2 27 4 8 12 -18 18 -61 7 -46 8 -74 2 -76 -6 -2 -10 -8 -10 -14 0
-6 6 -8 14 -5 10 4 15 -6 20 -33 3 -21 9 -45 12 -54 5 -12 0 -16 -20 -16 -16
0 -26 6 -26 15 0 8 5 15 11 15 8 0 7 6 -2 17 -10 11 -10 14 -1 9 8 -5 12 0 12
13 0 12 -5 21 -11 21 -5 0 -7 -4 -4 -10 3 -5 1 -10 -4 -10 -7 0 -11 29 -12 73
0 53 -3 66 -9 50 -15 -36 -20 -27 -20 33 0 36 4 53 10 49 6 -4 8 -15 5 -25z
m64 -32 c-7 -13 -14 -18 -16 -11 -3 7 1 22 8 35 7 13 14 18 16 11 3 -7 -1 -22
-8 -35z m-31 -253 c3 -3 -3 -11 -13 -19 -22 -16 -65 -5 -87 21 -12 15 -8 16
41 10 29 -4 56 -9 59 -12z"/>
<path d="M1520 2043 c-6 -21 -18 -113 -27 -205 -15 -156 -15 -170 1 -212 32
-84 41 -65 42 93 1 100 -1 132 -7 101 -4 -25 -8 -79 -8 -119 -1 -58 -4 -72
-13 -63 -16 16 5 341 25 400 8 23 11 42 6 42 -4 0 -13 -17 -19 -37z"/>
<path d="M818 2053 c-24 -28 -58 -100 -58 -125 -1 -36 -25 -70 -61 -87 -26
-12 -35 -24 -39 -49 -4 -28 -13 -36 -57 -57 -34 -15 -57 -34 -67 -54 -20 -37
-20 -41 -1 -41 19 0 19 -11 0 -36 -17 -22 -19 -50 -5 -59 5 -3 23 1 39 10 17
8 39 15 51 15 17 0 19 4 14 25 -4 15 -2 25 5 25 6 0 11 -7 11 -15 0 -8 4 -15
9 -15 10 0 57 52 64 72 4 11 8 11 26 0 18 -10 25 -10 43 2 19 14 23 12 55 -20
28 -29 36 -33 53 -24 18 10 24 22 21 43 0 4 4 7 10 7 5 0 7 5 4 10 -3 6 -1 10
6 10 9 0 9 3 0 14 -8 10 -9 15 -1 18 6 2 12 11 14 20 1 10 5 21 9 24 4 4 2 13
-4 21 -9 10 -7 13 7 13 15 0 16 2 5 9 -11 7 -11 9 0 14 12 4 11 7 -1 16 -8 6
-10 11 -5 11 9 0 11 27 6 114 -1 13 -6 16 -17 12 -14 -5 -15 -4 -4 9 11 13 10
18 -6 30 -29 22 -82 29 -112 15 -27 -12 -27 -12 -8 9 11 12 17 23 14 26 -3 3
-12 -3 -20 -12z m72 -61 c0 -25 -95 -140 -107 -128 -4 4 -1 13 7 19 23 18 60
74 60 91 0 8 6 17 13 19 19 8 27 8 27 -1z m30 -24 c0 -6 -8 -21 -17 -32 -18
-21 -18 -21 4 -2 21 17 23 17 29 2 5 -12 -9 -31 -47 -67 -52 -49 -52 -49 -5
-10 51 43 67 45 61 8 -5 -23 -48 -67 -68 -67 -6 0 4 14 23 31 l35 31 -32 -22
c-18 -11 -35 -25 -38 -30 -10 -16 -23 -11 -30 11 -5 16 2 31 26 58 33 35 33
35 -9 -4 -28 -26 -42 -34 -42 -24 0 9 9 24 20 34 12 11 31 36 42 57 21 36 48
51 48 26z m-106 -43 c-10 -16 -20 -23 -22 -16 -4 12 28 55 35 47 3 -2 -3 -17
-13 -31z m-42 -47 c-7 -7 -12 -8 -12 -2 0 14 12 26 19 19 2 -3 -1 -11 -7 -17z
m48 -81 c12 -36 13 -67 2 -67 -5 0 -14 -12 -21 -26 -14 -31 -37 -26 -33 7 7
61 -36 111 -77 89 -12 -6 -21 -7 -21 -2 0 10 21 30 30 31 3 0 12 2 20 5 38 12
46 12 67 3 12 -5 27 -23 33 -40z m113 1 c-4 -7 -8 -17 -9 -23 0 -5 -2 -16 -2
-22 -1 -7 -9 -13 -18 -13 -13 0 -14 -3 -5 -14 8 -9 8 -16 2 -20 -6 -4 -7 -14
-4 -22 5 -14 3 -15 -16 -5 -24 13 -29 23 -33 61 -2 19 5 29 37 46 46 26 59 29
48 12z m-191 -33 c9 -20 8 -28 -5 -42 -8 -10 -23 -37 -32 -60 -19 -47 -51 -70
-41 -29 8 31 -3 38 -43 30 -24 -5 -35 -15 -45 -39 -8 -18 -19 -36 -25 -39 -11
-7 14 57 32 82 5 6 19 12 31 12 12 0 31 7 42 16 18 14 18 15 1 10 -11 -3 -31
-9 -45 -12 -15 -4 -37 -16 -49 -27 -13 -11 -23 -16 -23 -11 0 23 33 53 80 73
27 12 56 31 63 41 17 28 45 25 59 -5z m-92 -115 c0 -5 -5 -10 -11 -10 -5 0 -7
5 -4 10 3 6 8 10 11 10 2 0 4 -4 4 -10z m-60 -65 c0 -2 -10 -10 -22 -16 -21
-11 -22 -11 -9 4 13 16 31 23 31 12z"/>
<path d="M860 1741 c0 -6 4 -13 10 -16 6 -3 7 1 4 9 -7 18 -14 21 -14 7z"/>
<path d="M1325 1990 c-4 -17 -5 -34 -2 -36 3 -3 8 9 12 26 4 17 5 34 2 36 -3
3 -8 -9 -12 -26z"/>
<path d="M1491 2020 c-1 -3 -8 -40 -16 -82 -10 -51 -11 -85 -5 -100 7 -18 9
-12 9 32 1 30 6 72 12 93 6 21 8 44 5 50 -2 7 -5 10 -5 7z"/>
<path d="M1323 1850 c0 -36 2 -50 4 -32 2 17 2 47 0 65 -2 17 -4 3 -4 -33z"/>
<path d="M1568 1873 c6 -2 18 -2 25 0 6 3 1 5 -13 5 -14 0 -19 -2 -12 -5z"/>
<path d="M1593 1853 c-13 -2 -23 -8 -23 -13 0 -10 38 -1 46 11 3 5 4 8 2 8 -2
-1 -13 -4 -25 -6z"/>
<path d="M1332 1618 c-2 -128 4 -159 24 -126 4 6 2 14 -5 16 -8 3 -6 8 6 18
17 13 17 13 -1 14 -15 0 -17 3 -8 12 7 7 8 16 2 23 -5 6 -11 49 -13 95 -2 62
-3 47 -5 -52z"/>
<path d="M1593 1685 c0 -27 2 -38 4 -22 2 15 2 37 0 50 -2 12 -4 0 -4 -28z"/>
<path d="M1748 1687 c-5 -10 -8 -31 -8 -45 1 -24 2 -25 11 -9 6 10 9 30 7 45
-2 23 -4 24 -10 9z"/>
<path d="M1849 1573 c8 -3 30 -16 49 -29 19 -13 47 -23 61 -23 l26 2 -25 4
c-14 3 -39 16 -57 29 -17 13 -40 24 -50 23 -13 0 -14 -2 -4 -6z"/>
<path d="M470 1561 c0 -5 5 -11 12 -13 16 -6 21 -50 6 -60 -10 -6 -10 -8 0 -8
22 0 13 -19 -13 -26 -33 -8 -32 -23 1 -16 16 3 30 -1 35 -9 13 -21 11 85 -3
116 -11 24 -38 35 -38 16z"/>
<path d="M397 1553 c-4 -6 0 -14 9 -17 23 -9 34 -7 34 5 0 6 -6 9 -14 6 -8 -3
-16 -1 -19 6 -2 8 -5 8 -10 0z"/>
<path d="M1743 1545 c0 -8 7 -15 14 -15 8 0 12 4 9 9 -4 5 0 12 6 14 7 3 4 6
-8 6 -12 1 -21 -5 -21 -14z"/>
<path d="M561 1526 c-9 -10 -9 -16 -1 -21 13 -8 42 14 34 26 -8 13 -20 11 -33
-5z"/>
<path d="M1926 1496 c3 -8 12 -12 20 -9 17 6 9 23 -11 23 -8 0 -12 -6 -9 -14z"/>
<path d="M1770 1490 c0 -5 7 -10 15 -10 17 0 20 -16 5 -25 -5 -3 -10 -1 -10 4
0 6 -4 11 -10 11 -5 0 -10 -9 -10 -19 0 -11 -6 -22 -12 -24 -9 -4 -8 -6 2 -6
26 -1 74 44 67 62 -7 18 -47 24 -47 7z"/>
<path d="M1834 1478 c3 -10 -1 -23 -8 -30 -16 -17 -31 -72 -16 -63 5 3 10 13
10 21 0 8 5 14 10 14 6 0 10 10 10 23 1 22 1 22 16 2 10 -13 13 -32 10 -55 -4
-26 -3 -30 4 -15 15 35 11 63 -16 92 -16 17 -24 21 -20 11z"/>
<path d="M562 1463 c2 -10 10 -18 18 -18 8 0 16 8 18 18 2 12 -3 17 -18 17
-15 0 -20 -5 -18 -17z"/>
<path d="M1939 1403 c0 -16 -4 -37 -9 -48 -7 -17 -9 -14 -10 15 -1 19 -4 27
-7 17 -3 -10 -2 -30 1 -43 5 -19 9 -22 19 -12 13 12 24 98 12 98 -3 0 -5 -12
-6 -27z"/>
<path d="M577 1274 c-14 -15 -6 -34 14 -34 14 0 19 5 17 17 -3 18 -20 27 -31
17z m23 -14 c0 -5 -4 -10 -10 -10 -5 0 -10 5 -10 10 0 6 5 10 10 10 6 0 10 -4
10 -10z"/>
<path d="M1013 1200 c-2 -34 1 -50 10 -50 8 0 7 -4 -3 -11 -12 -8 -10 -9 10
-7 20 2 25 8 24 28 -1 14 -2 40 -3 58 -1 23 -6 32 -18 32 -14 0 -18 -10 -20
-50z"/>
<path d="M583 1194 c-8 -21 13 -42 28 -27 13 13 5 43 -11 43 -6 0 -13 -7 -17
-16z"/>
<path d="M1496 1181 c-4 -6 -1 -11 6 -11 10 0 9 -3 -2 -10 -8 -5 -12 -11 -9
-14 2 -3 11 -1 18 3 9 6 11 14 4 26 -7 12 -13 14 -17 6z"/>
<path d="M1505 1130 c-19 -8 -19 -9 3 -9 12 -1 22 4 22 9 0 6 -1 10 -2 9 -2 0
-12 -4 -23 -9z"/>
<path d="M1510 1090 c-8 -5 -12 -11 -9 -14 2 -3 11 -1 19 4 8 5 12 11 9 14 -2
3 -11 1 -19 -4z"/>
<path d="M1515 1060 c-16 -7 -17 -9 -3 -9 9 -1 20 4 23 9 7 11 7 11 -20 0z"/>
<path d="M650 1034 c0 -8 5 -12 10 -9 6 3 10 10 10 16 0 5 -4 9 -10 9 -5 0
-10 -7 -10 -16z"/>
<path d="M620 1005 c-29 -35 11 -55 70 -34 21 7 19 8 -14 6 -24 -1 -41 3 -43
11 -3 8 7 12 33 12 43 0 42 5 -3 13 -21 4 -35 1 -43 -8z"/>
<path d="M774 981 c3 -4 -7 -6 -22 -4 -19 3 -23 2 -12 -5 23 -14 80 -23 80
-12 0 6 -7 10 -15 10 -8 0 -15 5 -15 10 0 6 -5 10 -11 10 -5 0 -8 -4 -5 -9z"/>
<path d="M675 950 l-30 -8 30 0 c17 0 41 4 55 8 l25 8 -25 0 c-14 0 -38 -4
-55 -8z"/>
<path d="M700 934 l-65 -13 80 4 c60 4 76 3 65 -6 -13 -9 -13 -10 0 -6 8 2 16
11 18 20 4 20 -5 20 -98 1z"/>
<path d="M1044 2819 c-3 -6 0 -18 9 -26 13 -13 14 -12 10 11 -6 29 -9 31 -19
15z"/>
<path d="M1065 2758 c-7 -18 38 -131 54 -136 10 -3 11 2 6 19 -4 13 -11 26
-15 29 -4 3 -6 15 -5 28 1 12 -3 22 -8 22 -5 0 -7 6 -4 13 2 6 -2 18 -9 25
-12 11 -15 11 -19 0z"/>
<path d="M996 2621 c-8 -12 22 -36 32 -26 4 4 1 10 -6 12 -6 3 -10 9 -6 14 3
5 1 9 -5 9 -5 0 -12 -4 -15 -9z"/>
<path d="M1290 2539 c-16 -30 -8 -31 13 -3 10 13 13 24 8 24 -6 0 -15 -9 -21
-21z"/>
<path d="M1163 2345 c0 -22 2 -30 4 -17 2 12 2 30 0 40 -3 9 -5 -1 -4 -23z"/>
<path d="M1184 2367 c-2 -7 0 -24 5 -38 9 -22 10 -21 10 14 1 37 -5 48 -15 24z"/>
<path d="M1116 2343 c-12 -64 -17 -128 -8 -113 5 8 12 43 16 78 7 63 2 85 -8
35z"/>
<path d="M1076 2325 c-3 -9 -5 -33 -5 -53 1 -34 2 -33 10 13 8 51 6 68 -5 40z"/>
<path d="M1182 2224 c-1 -28 -4 -80 -7 -115 l-4 -64 10 60 c5 33 8 85 6 115
l-3 55 -2 -51z"/>
<path d="M1146 2229 c-3 -19 -10 -86 -16 -149 -6 -63 -13 -126 -16 -140 -4
-23 -4 -23 5 -4 10 23 43 315 36 322 -2 2 -6 -11 -9 -29z"/>
<path d="M1213 2195 c0 -22 2 -30 4 -17 2 12 2 30 0 40 -3 9 -5 -1 -4 -23z"/>
<path d="M1103 2120 c0 -41 2 -58 4 -37 2 20 2 54 0 75 -2 20 -4 3 -4 -38z"/>
<path d="M1065 2089 c-3 -50 -4 -93 -1 -97 3 -3 6 3 7 14 0 10 4 54 7 97 4 42
5 77 1 77 -4 0 -10 -41 -14 -91z"/>
<path d="M1203 2090 c0 -36 2 -50 4 -32 2 17 2 47 0 65 -2 17 -4 3 -4 -33z"/>
<path d="M1160 1993 c0 -27 -3 -65 -6 -85 -4 -21 -3 -38 2 -38 5 0 11 38 12
85 2 47 1 85 -2 85 -4 0 -6 -21 -6 -47z"/>
<path d="M1188 1955 c-1 -36 0 -65 5 -65 4 0 7 29 7 65 0 36 -2 65 -4 65 -2 0
-6 -29 -8 -65z"/>
<path d="M1191 1823 c-1 -6 -4 -20 -7 -30 -5 -17 -5 -17 6 0 6 10 9 23 6 30
-3 9 -5 9 -5 0z"/>
<path d="M1790 2204 c0 -8 9 -14 20 -14 11 0 20 4 20 9 0 5 -9 11 -20 14 -13
3 -20 0 -20 -9z"/>
<path d="M1308 1133 c6 -2 18 -2 25 0 6 3 1 5 -13 5 -14 0 -19 -2 -12 -5z"/>
<path d="M1315 1100 c-19 -8 -19 -9 3 -9 12 -1 22 4 22 9 0 6 -1 10 -2 9 -2 0
-12 -4 -23 -9z"/>
<path d="M1315 1060 c-19 -8 -19 -9 2 -9 12 -1 25 4 28 9 7 12 -2 12 -30 0z"/>
<path d="M1310 1020 c-8 -5 -10 -10 -5 -10 6 0 17 5 25 10 8 5 11 10 5 10 -5
0 -17 -5 -25 -10z"/>
<path d="M1294 981 c5 -8 56 -3 56 5 0 2 -14 4 -31 4 -16 0 -28 -4 -25 -9z"/>
<path d="M206 1319 c-15 -17 -25 -33 -22 -36 3 -4 -3 -13 -15 -21 -20 -14 -31
-34 -43 -82 -3 -15 0 -11 10 10 9 19 27 46 40 59 13 13 24 29 24 36 0 7 7 16
16 19 9 4 14 10 10 13 -4 4 4 13 16 20 16 8 18 12 7 13 -9 0 -28 -14 -43 -31z"/>
<path d="M258 1323 c7 -3 16 -2 19 1 4 3 -2 6 -13 5 -11 0 -14 -3 -6 -6z"/>
<path d="M268 1303 c7 -3 16 -2 19 1 4 3 -2 6 -13 5 -11 0 -14 -3 -6 -6z"/>
<path d="M145 1173 c-9 -20 -14 -40 -13 -45 2 -5 11 11 20 37 20 54 15 61 -7
8z"/>
<path d="M111 1134 c0 -11 3 -14 6 -6 3 7 2 16 -1 19 -3 4 -6 -2 -5 -13z"/>
<path d="M171 719 c-1 -26 36 -85 47 -75 3 3 -3 14 -12 25 -9 10 -21 32 -26
47 l-8 29 -1 -26z"/>
<path d="M153 665 c0 -8 4 -12 9 -9 5 3 6 10 3 15 -9 13 -12 11 -12 -6z"/>
<path d="M525 670 c-3 -5 -1 -10 4 -10 6 0 11 5 11 10 0 6 -2 10 -4 10 -3 0
-8 -4 -11 -10z"/>
<path d="M535 639 c-11 -17 1 -21 15 -4 8 9 8 15 2 15 -6 0 -14 -5 -17 -11z"/>
<path d="M545 609 c-10 -15 3 -25 16 -12 7 7 7 13 1 17 -6 3 -14 1 -17 -5z"/>
<path d="M274 581 c9 -10 16 -25 14 -32 -2 -10 6 -13 26 -11 24 3 28 0 23 -17
-3 -15 -1 -18 11 -14 12 5 14 1 10 -15 -4 -12 -2 -20 2 -17 17 10 23 -18 7
-30 -10 -7 -17 -16 -17 -20 0 -5 8 0 19 9 17 16 19 16 25 -6 4 -13 10 -18 12
-11 3 6 -7 37 -21 67 -19 39 -40 65 -70 86 -50 34 -66 39 -41 11z"/>
<path d="M574 544 c-18 -14 -18 -15 4 -4 12 6 22 13 22 15 0 8 -5 6 -26 -11z"/>
<path d="M310 520 c-9 -6 -10 -10 -3 -10 6 0 15 5 18 10 8 12 4 12 -15 0z"/>
<path d="M580 512 c-13 -10 -21 -23 -19 -29 2 -5 14 3 27 19 27 32 24 36 -8
10z"/>
<path d="M359 403 c-13 -16 -12 -17 4 -4 16 13 21 21 13 21 -2 0 -10 -8 -17
-17z"/>
<path d="M2110 1130 c0 -5 5 -10 11 -10 5 0 7 5 4 10 -3 6 -8 10 -11 10 -2 0
-4 -4 -4 -10z"/>
<path d="M1791 1284 c0 -11 3 -14 6 -6 3 7 2 16 -1 19 -3 4 -6 -2 -5 -13z"/>
<path d="M1810 1284 c0 -8 5 -12 10 -9 6 3 10 10 10 16 0 5 -4 9 -10 9 -5 0
-10 -7 -10 -16z"/>
<path d="M1760 1280 c0 -7 -7 -10 -15 -6 -8 3 -15 1 -15 -5 0 -6 -7 -9 -15 -5
-9 3 -15 0 -15 -10 0 -12 6 -15 23 -9 12 4 30 7 40 8 18 1 23 22 7 32 -5 3
-10 1 -10 -5z"/>
<path d="M1855 1280 c-3 -5 -1 -10 4 -10 6 0 11 5 11 10 0 6 -2 10 -4 10 -3 0
-8 -4 -11 -10z"/>
<path d="M1825 1260 c-3 -6 -11 -8 -16 -5 -5 4 -9 1 -9 -5 0 -16 26 -23 45
-13 14 8 14 11 2 22 -11 8 -17 9 -22 1z"/>
<path d="M1669 1225 c-3 -21 -9 -30 -21 -29 -22 2 -23 -9 -4 -25 12 -10 17 -8
26 9 6 11 10 33 8 48 l-4 27 -5 -30z"/>
<path d="M1640 1220 c0 -5 5 -10 10 -10 6 0 10 5 10 10 0 6 -4 10 -10 10 -5 0
-10 -4 -10 -10z"/>
<path d="M1648 953 c7 -3 16 -2 19 1 4 3 -2 6 -13 5 -11 0 -14 -3 -6 -6z"/>
<path d="M1531 804 c0 -11 3 -14 6 -6 3 7 2 16 -1 19 -3 4 -6 -2 -5 -13z"/>
<path d="M1500 788 c0 -19 2 -20 10 -8 13 19 13 30 0 30 -5 0 -10 -10 -10 -22z"/>
<path d="M1403 653 c-7 -2 -9 -11 -6 -19 3 -8 1 -14 -3 -14 -5 0 -10 -23 -11
-50 -2 -71 11 -62 26 16 13 71 13 74 -6 67z"/>
<path d="M1688 409 c-26 -15 -23 -32 3 -18 26 13 34 6 48 -46 9 -34 8 -42 -6
-52 -9 -7 -19 -10 -24 -8 -4 3 -10 1 -14 -5 -3 -5 1 -10 10 -10 23 0 55 18 55
31 0 6 9 22 20 36 18 23 18 27 4 54 -16 32 -24 35 -42 17 -9 -9 -12 -9 -12 0
0 15 -19 15 -42 1z m84 -61 c-15 -15 -27 14 -17 40 6 15 8 15 18 -6 7 -16 7
-26 -1 -34z"/>
<path d="M1670 339 c11 -36 20 -49 20 -28 0 25 -12 59 -20 59 -5 0 -5 -14 0
-31z"/>
<path d="M2045 250 c4 -6 11 -8 16 -5 14 9 11 15 -7 15 -8 0 -12 -5 -9 -10z"/>
<path d="M1937 113 c-4 -3 -7 -11 -7 -17 0 -6 5 -5 12 2 6 6 9 14 7 17 -3 3
-9 2 -12 -2z"/>
<path d="M2091 54 c0 -11 3 -14 6 -6 3 7 2 16 -1 19 -3 4 -6 -2 -5 -13z"/>
<path d="M1149 1007 c5 -5 19 -7 32 -5 20 3 19 5 -9 9 -20 3 -29 2 -23 -4z"/>
<path d="M1158 983 c6 -2 18 -2 25 0 6 3 1 5 -13 5 -14 0 -19 -2 -12 -5z"/>
<path d="M1178 913 c7 -3 16 -2 19 1 4 3 -2 6 -13 5 -11 0 -14 -3 -6 -6z"/>
<path d="M1238 703 c7 -3 16 -2 19 1 4 3 -2 6 -13 5 -11 0 -14 -3 -6 -6z"/>
<path d="M1391 844 c0 -11 3 -14 6 -6 3 7 2 16 -1 19 -3 4 -6 -2 -5 -13z"/>
</g>
</svg>
