<?xml version="1.0" standalone="no"?>
<!DOCTYPE svg PUBLIC "-//W3C//DTD SVG 20010904//EN"
 "http://www.w3.org/TR/2001/REC-SVG-20010904/DTD/svg10.dtd">
<svg version="1.0" xmlns="http://www.w3.org/2000/svg"
 width="223.000000pt" height="383.000000pt" viewBox="0 0 223.000000 383.000000"
 preserveAspectRatio="xMidYMid meet">
<metadata>
Created by potrace 1.16, written by Peter Selinger 2001-2019
</metadata>
<g transform="translate(0.000000,383.000000) scale(0.100000,-0.100000)"
fill="#000000" stroke="none">
<path d="M88 3822 c-38 -3 -38 -3 -39 -50 -1 -26 -2 -69 -4 -97 -1 -27 -5
-401 -9 -830 -3 -429 -8 -960 -12 -1180 -3 -220 -7 -680 -8 -1022 l-3 -623 86
-1 c47 0 131 -2 186 -5 114 -5 1080 -8 1567 -5 l326 2 4 62 c2 34 5 217 7 406
1 190 4 348 6 351 5 9 20 1900 20 2500 0 250 -4 463 -7 472 -7 16 -72 17 -980
18 -535 0 -1002 2 -1038 3 -36 2 -82 1 -102 -1z m2097 -43 c8 -23 8 -818 0
-1174 -2 -132 -5 -252 -5 -267 0 -69 -96 -4 -103 70 -3 24 -13 51 -22 60 -17
16 -17 16 -12 0 5 -14 1 -18 -20 -18 -24 0 -25 1 -11 18 23 26 30 42 19 42
-18 0 -56 -75 -57 -114 0 -26 -6 -41 -18 -48 -39 -22 -56 -48 -56 -87 0 -43
-19 -56 -53 -37 -23 14 -37 -6 -37 -55 0 -47 24 -70 65 -61 l30 6 -35 6 c-33
5 -35 7 -38 49 -3 39 -1 43 12 32 9 -8 23 -10 33 -6 10 4 32 7 48 6 25 -1 27
0 13 9 -29 18 -22 100 9 100 8 0 11 4 8 10 -3 5 3 15 15 22 11 7 20 22 20 34
0 12 10 26 23 32 21 10 21 11 2 12 -18 1 -19 1 -2 11 26 15 39 1 35 -37 -3
-26 0 -35 19 -43 39 -18 28 -34 -19 -28 -24 3 -52 1 -63 -3 -15 -6 -7 -9 30
-11 28 -1 62 -2 77 -3 29 -1 52 -16 24 -16 -16 0 -16 -1 -2 -16 14 -13 14 -20
3 -47 -9 -20 -12 -55 -9 -96 4 -51 2 -63 -9 -59 -8 3 -15 15 -17 27 -2 12 -11
30 -21 40 -20 20 -34 10 -51 -34 -9 -23 -15 -25 -66 -25 -49 0 -55 -2 -44 -15
14 -17 40 -20 40 -5 0 15 37 12 43 -4 10 -25 -15 -32 -108 -30 -49 1 -95 -2
-101 -7 -15 -12 -21 129 -23 508 -1 161 -4 299 -7 307 -4 10 3 17 21 22 18 4
24 11 21 21 -4 8 -3 20 1 26 9 15 5 94 -14 287 -18 180 -18 180 -6 291 5 42 6
87 3 100 l-6 24 -659 -3 c-363 -2 -668 -6 -678 -8 -15 -5 -17 -13 -12 -52 4
-26 7 -81 9 -122 3 -68 5 -75 24 -75 11 0 24 -3 28 -7 4 -5 -7 -8 -24 -8 -32
0 -32 0 -32 -52 0 -29 -3 -78 -6 -108 -4 -40 -3 -51 5 -40 9 12 11 10 10 -10
-1 -14 -5 -36 -9 -50 -8 -25 -8 -25 -10 5 -2 23 -5 18 -10 -20 -10 -62 -12
-110 -4 -103 3 3 6 20 6 37 2 50 18 36 18 -15 0 -41 -2 -46 -20 -41 -13 3 -20
0 -20 -9 0 -8 7 -14 16 -14 11 0 14 -5 10 -16 -3 -9 0 -25 8 -36 8 -11 12 -26
10 -33 -3 -7 -1 -16 5 -20 16 -10 13 -32 -6 -39 -27 -11 -38 9 -26 49 6 19 8
35 4 35 -15 0 -30 -72 -20 -92 5 -10 7 -18 4 -18 -3 0 -2 -8 4 -17 5 -10 14
-70 21 -133 6 -63 22 -214 36 -335 21 -190 22 -221 10 -233 -8 -8 -22 -12 -31
-8 -13 5 -15 13 -10 34 11 38 8 64 -10 98 -8 16 -15 45 -15 64 -1 21 -10 46
-24 64 l-24 29 -16 -32 c-9 -17 -14 -36 -10 -42 4 -7 -3 -10 -18 -7 -14 1 -33
-3 -42 -11 -15 -12 -16 -7 -16 62 0 70 -2 77 -29 99 -15 13 -31 31 -34 39 -4
11 -6 11 -6 -2 -1 -8 -12 -26 -26 -39 -21 -20 -25 -32 -23 -74 1 -48 2 -49 5
-10 4 37 6 41 27 37 19 -4 25 -14 32 -46 l8 -42 4 33 c5 47 -3 62 -33 62 -28
0 -31 7 -10 34 14 19 15 18 24 -5 l10 -24 0 24 c1 23 2 24 21 6 18 -16 20 -31
20 -124 0 -63 4 -101 9 -95 5 5 11 18 13 28 1 11 9 21 16 24 22 7 13 -36 -19
-82 -21 -33 -28 -52 -24 -67 7 -20 5 -22 -31 -17 -33 5 -42 2 -57 -18 -10 -13
-14 -24 -8 -24 5 0 11 6 14 13 3 9 9 7 24 -5 27 -24 40 -23 18 2 -18 20 -17
20 12 20 36 0 52 -33 25 -50 -15 -8 -14 -9 6 -10 29 0 29 -16 0 -23 -13 -2
-31 -8 -41 -12 -13 -5 -17 -2 -17 14 0 12 -6 21 -13 21 -7 0 -28 16 -46 34
-32 33 -34 37 -28 92 3 31 8 59 11 62 3 3 16 -3 27 -14 22 -19 22 -19 14 6
-12 39 -28 43 -52 13 -15 -19 -20 -35 -16 -54 3 -16 0 -30 -7 -34 -10 -6 -11
107 -6 536 4 299 7 688 8 864 0 176 2 323 5 327 2 4 478 8 1058 8 1052 0 1054
0 1060 -21z m-1585 -214 c0 -8 7 -15 15 -15 8 0 15 7 15 15 0 17 35 21 45 5 4
-6 13 -7 23 -1 23 11 242 15 242 4 0 -5 9 -9 19 -9 11 0 17 4 15 8 -3 4 21 7
53 7 32 -1 48 -4 36 -6 -13 -2 -23 -9 -23 -15 0 -5 -7 -8 -15 -4 -8 3 -15 1
-15 -4 0 -13 26 -13 52 1 11 6 22 8 25 6 10 -10 -38 -87 -71 -112 -29 -22 -37
-24 -58 -15 -13 6 -30 21 -37 32 -12 19 -11 20 16 14 21 -5 24 -4 13 4 -11 7
-4 9 28 7 46 -4 57 9 17 19 -14 3 -25 11 -25 18 0 6 -12 17 -27 24 -20 9 -24
9 -15 0 11 -11 17 -48 8 -48 -2 0 -12 -3 -22 -7 -14 -5 -16 -2 -12 19 4 19 -2
28 -23 40 -23 13 -27 14 -22 2 3 -8 12 -14 20 -14 9 0 12 -6 9 -17 -3 -10 -2
-24 3 -32 10 -16 -10 -36 -63 -63 -23 -12 -25 -16 -12 -21 9 -4 16 -2 16 4 0
6 4 8 9 5 5 -4 11 0 14 6 6 19 37 -9 37 -33 0 -14 -15 -23 -62 -37 -42 -13
-67 -16 -75 -9 -9 7 -13 5 -13 -7 0 -10 -8 -16 -21 -16 -12 0 -19 5 -16 13 2
6 10 11 17 9 11 -3 11 0 0 12 -13 16 -4 20 38 19 6 -1 12 7 12 16 0 14 2 14
10 1 8 -12 10 -9 10 13 l0 28 -21 -20 c-12 -11 -35 -25 -51 -30 -27 -10 -29
-9 -23 11 5 14 3 18 -4 14 -6 -4 -11 -14 -11 -22 0 -8 -5 -14 -11 -14 -5 0 -8
-4 -4 -10 3 -5 12 -7 20 -3 8 3 15 0 15 -6 0 -6 -5 -11 -11 -11 -5 0 -8 -4 -5
-9 3 -5 -4 -11 -17 -15 -37 -10 -105 -7 -113 6 -4 7 -3 8 4 4 7 -4 12 -2 12 4
0 7 7 9 16 6 8 -3 24 -1 34 4 13 7 20 6 23 -3 8 -21 19 1 12 24 -5 15 -9 18
-15 9 -4 -7 -26 -14 -49 -16 -31 -3 -41 0 -41 11 0 11 -7 14 -25 9 -29 -7 -34
10 -7 25 9 6 13 11 7 11 -5 0 -4 4 3 8 9 6 7 15 -11 36 -22 25 -25 26 -31 10
-4 -10 -4 -15 0 -11 12 12 32 -13 27 -33 -6 -21 -29 -34 -38 -20 -4 6 -11 10
-16 10 -6 0 -8 -4 -4 -9 3 -5 1 -12 -5 -16 -6 -4 -11 13 -11 44 -1 28 -2 57
-3 64 -1 6 4 11 11 10 20 -4 23 25 2 30 -10 3 -19 12 -19 21 0 22 49 21 66 -1
13 -17 14 -17 8 0 -5 15 -2 17 20 13 14 -2 28 0 31 5 10 15 45 10 45 -6z m569
3 c11 -10 14 -10 18 0 3 6 21 12 41 12 32 -1 35 -2 20 -13 -21 -16 -19 -48 4
-65 25 -18 56 0 56 34 0 17 -3 22 -9 13 -4 -7 -5 -17 -2 -22 7 -12 -17 -27
-34 -20 -19 7 -16 43 5 59 20 16 237 20 227 5 -8 -13 23 -41 46 -41 16 0 18 5
13 25 -6 25 -6 25 62 25 38 0 76 -4 84 -10 9 -6 17 -5 22 3 5 9 12 8 24 -5 17
-17 11 -43 -8 -32 -7 5 -8 -16 -3 -65 4 -39 5 -71 2 -71 -3 0 -13 3 -22 6 -13
5 -14 8 -3 15 10 7 11 9 0 9 -7 0 -10 5 -7 10 3 6 2 10 -4 10 -5 0 -13 -10
-17 -22 -5 -16 -1 -27 16 -40 12 -10 26 -15 31 -12 5 3 9 1 9 -5 0 -15 -40 -7
-87 17 -49 26 -89 74 -86 105 1 18 1 19 -4 3 -4 -14 -7 -16 -13 -6 -4 7 -13
11 -20 8 -10 -3 -9 -7 2 -19 8 -8 13 -20 10 -28 -3 -8 0 -11 7 -7 6 4 11 0 11
-9 0 -9 5 -13 10 -10 6 3 10 2 10 -4 0 -5 -6 -12 -12 -14 -8 -4 -7 -6 4 -6 9
-1 23 -8 32 -16 8 -9 18 -16 21 -15 31 2 38 -1 28 -11 -13 -13 -83 -1 -83 15
0 6 -12 11 -27 10 -16 -1 -39 5 -52 13 -12 8 -47 28 -77 44 -51 28 -53 29 -63
10 -21 -38 -42 -34 -92 15 -46 45 -48 46 -66 28 -17 -17 -17 -18 0 -11 13 5
30 -5 64 -38 25 -25 50 -45 57 -45 6 0 24 -12 40 -26 15 -15 40 -28 55 -30 54
-8 63 -11 71 -24 4 -7 15 -10 24 -7 9 4 16 2 16 -2 0 -5 20 -8 45 -8 25 1 45
-2 45 -6 0 -5 5 -5 10 -2 6 4 8 16 4 27 -5 16 -2 19 13 16 10 -2 17 -11 15
-19 -2 -9 5 -6 20 9 36 33 46 27 13 -8 -15 -16 -31 -29 -34 -28 -18 2 -24 -3
-12 -11 10 -6 23 0 45 20 37 34 51 38 34 8 -10 -17 -10 -23 0 -26 6 -3 12 -11
12 -19 0 -9 -4 -12 -10 -9 -5 3 -10 1 -10 -6 0 -8 -4 -8 -13 -1 -7 6 -22 10
-34 9 -22 -1 -32 -27 -68 -173 -21 -84 -17 -104 24 -104 34 0 49 -16 31 -33
-9 -9 -14 -8 -25 6 -11 16 -13 14 -18 -20 -3 -27 1 -44 13 -58 11 -13 15 -30
11 -49 -7 -32 -40 -60 -48 -38 -3 6 -11 12 -19 12 -33 0 -42 50 -43 252 l-2
197 33 18 33 18 -50 3 c-27 2 -57 10 -67 19 -9 8 -21 12 -26 9 -13 -8 -75 14
-103 36 -13 11 -18 16 -10 12 9 -5 12 -3 7 4 -4 7 -18 9 -32 6 -20 -5 -26 -1
-39 27 -8 19 -14 26 -15 16 0 -15 -3 -15 -20 -5 -11 7 -20 19 -20 26 0 7 5 10
10 7 6 -3 10 -2 10 4 0 17 -22 24 -31 10 -11 -18 -27 -2 -60 61 -13 25 -28 48
-34 52 -5 4 4 8 21 8 16 0 36 -6 43 -12z m369 -17 c3 -8 -1 -12 -9 -9 -7 2
-15 10 -17 17 -3 8 1 12 9 9 7 -2 15 -10 17 -17z m-576 -131 c7 -1 0 -7 -17
-14 -34 -15 -41 -13 -55 14 -9 17 -8 19 7 13 15 -6 16 -4 6 9 -22 26 -1 29 23
3 13 -14 29 -25 36 -25z m168 13 c0 -11 6 -14 25 -9 20 5 25 3 25 -14 0 -11 7
-20 15 -20 20 0 19 -26 -1 -34 -11 -4 -13 -13 -8 -28 9 -31 9 -31 33 -19 23
13 34 1 25 -24 -4 -9 -12 -14 -20 -11 -7 3 -15 0 -17 -7 -3 -7 -8 -4 -12 8 -8
20 -44 54 -57 55 -5 0 -8 -7 -8 -15 0 -19 -19 -19 -26 0 -5 11 -11 12 -24 5
-27 -14 -32 -12 -25 9 4 13 0 23 -11 29 -11 6 -13 11 -5 16 6 4 8 18 5 32 -7
27 -2 29 27 14 16 -9 21 -7 29 15 10 27 30 26 30 -2z m278 -17 c42 -20 54 -42
28 -52 -7 -3 -29 2 -47 10 -20 8 -27 15 -16 15 9 1 17 5 17 10 0 4 -11 6 -25
3 -17 -3 -25 0 -25 10 0 16 11 30 19 26 3 -2 25 -12 49 -22z m-368 -21 c0 -2
-13 -11 -29 -20 -17 -8 -38 -28 -48 -45 -19 -32 -33 -39 -33 -15 0 25 60 85
86 85 13 0 24 -2 24 -5z m451 -19 c5 3 9 0 9 -6 0 -7 7 -10 15 -6 8 3 15 1 15
-4 0 -5 7 -7 15 -4 8 4 15 1 15 -5 0 -6 3 -10 8 -10 21 4 42 -2 42 -12 0 -7
-8 -9 -22 -4 -13 4 -33 6 -45 6 -11 0 -38 6 -60 14 -21 9 -27 13 -14 11 18 -4
21 -2 12 7 -6 6 -11 16 -10 22 0 5 3 4 6 -3 2 -6 9 -10 14 -6z m-1011 -5 c0
-14 37 -20 51 -7 10 8 10 7 0 -6 -11 -15 -11 -22 3 -43 13 -20 14 -25 2 -25
-16 0 -38 24 -30 33 4 3 -8 14 -25 25 -17 10 -28 22 -24 25 9 10 23 9 23 -2z
m800 -68 c0 -14 6 -23 16 -23 10 0 14 -5 10 -15 -4 -12 0 -15 17 -14 12 1 37
1 56 1 28 -2 32 -4 21 -17 -10 -12 -10 -15 4 -15 10 0 16 -9 16 -25 0 -14 -5
-25 -11 -25 -5 0 -7 -4 -4 -10 3 -5 -1 -10 -9 -10 -9 0 -16 -5 -16 -11 0 -6
-9 -8 -22 -4 -20 5 -20 4 -6 -5 13 -8 23 -7 37 2 27 16 40 2 15 -17 -15 -11
-16 -14 -4 -15 13 0 16 -15 17 -87 0 -76 -2 -84 -14 -67 -13 18 -15 18 -24 2
-6 -10 -17 -18 -25 -18 -11 0 -12 5 -6 18 5 9 8 22 7 27 -2 6 -6 22 -9 38 -4
15 -11 27 -17 27 -6 0 -7 -4 -4 -10 3 -5 1 -10 -6 -10 -8 0 -6 -6 4 -18 10
-10 17 -26 17 -35 0 -15 -3 -14 -20 3 -11 11 -20 25 -20 30 0 6 -7 10 -16 10
-8 0 -12 5 -9 11 4 6 13 8 20 5 13 -4 35 33 35 59 0 8 5 15 11 15 6 0 9 -7 5
-15 -3 -8 -1 -15 4 -15 14 0 12 26 -3 38 -16 14 -39 0 -32 -20 8 -19 -25 -20
-44 -1 -19 19 -61 82 -61 91 0 4 4 0 10 -8 5 -8 12 -11 16 -7 4 3 1 13 -6 22
-7 8 -8 15 -3 15 11 0 33 -44 33 -65 0 -8 9 -24 20 -35 18 -18 20 -18 22 -2 1
9 2 24 4 32 1 8 2 22 3 31 2 26 49 53 66 39 8 -7 20 -10 27 -7 9 4 7 6 -3 6
-9 1 -20 8 -23 17 -6 16 -8 16 -24 0 -10 -9 -25 -16 -33 -16 -10 1 -9 3 4 11
23 14 22 33 -3 26 -25 -6 -52 14 -57 42 -4 30 -21 61 -33 61 -6 0 -10 10 -10
22 0 21 1 21 30 -7 17 -16 30 -39 30 -52z m473 -26 c3 -27 1 -45 -3 -40 -10 9
-14 46 -11 83 3 32 8 17 14 -43z m-745 41 c18 -18 14 -28 -12 -28 -19 0 -23 4
-19 20 6 23 14 25 31 8z m-518 -24 c0 -8 6 -13 13 -11 6 1 12 -5 12 -13 0 -9
-9 -15 -25 -15 -18 0 -26 6 -28 23 -2 12 2 22 8 22 6 0 8 5 4 12 -4 7 -3 8 4
4 7 -4 12 -14 12 -22z m210 -236 c0 -139 -3 -188 -12 -192 -7 -3 -3 -3 8 -1
13 3 28 -1 37 -9 13 -14 15 -12 15 19 0 20 -5 35 -11 35 -7 0 -5 5 3 10 10 6
11 10 3 10 -7 0 -13 7 -13 15 0 8 6 15 13 15 8 0 9 3 1 8 -14 9 -14 194 0 204
7 5 6 8 -3 8 -7 0 -11 6 -8 15 4 8 2 17 -3 20 -20 13 -9 25 23 24 27 0 29 -2
12 -9 -19 -8 -19 -9 2 -9 21 -1 22 -4 25 -148 2 -111 0 -150 -10 -160 -11 -11
-7 -13 22 -13 33 0 34 -1 26 -29 -13 -48 -38 -77 -89 -105 -46 -24 -109 -34
-124 -19 -4 3 0 15 9 25 13 14 20 15 31 7 17 -15 27 -5 19 18 -4 10 -7 20 -7
23 -1 3 -5 10 -10 17 -6 7 -6 13 1 16 6 3 5 4 -2 3 -7 -1 -15 -13 -16 -27 -2
-13 -8 -28 -12 -33 -5 -5 -9 105 -10 248 l0 258 40 -29 40 -28 0 -187z m234
226 c22 -9 20 -24 -3 -24 -21 0 -34 13 -24 24 8 7 8 7 27 0z m146 -4 c0 -5 -4
-10 -10 -10 -5 0 -10 5 -10 10 0 6 5 10 10 10 6 0 10 -4 10 -10z m-53 -6 c-3
-3 -12 -4 -19 -1 -8 3 -5 6 6 6 11 1 17 -2 13 -5z m-481 -41 c-11 -11 -17 4
-9 23 7 18 8 18 11 1 2 -10 1 -21 -2 -24z m434 27 c0 -5 -5 -10 -11 -10 -5 0
-7 5 -4 10 3 6 8 10 11 10 2 0 4 -4 4 -10z m50 -10 c0 -5 -4 -10 -10 -10 -5 0
-10 5 -10 10 0 6 5 10 10 10 6 0 10 -4 10 -10z m50 0 c0 -5 -4 -10 -9 -10 -6
0 -13 5 -16 10 -3 6 1 10 9 10 9 0 16 -4 16 -10z m90 0 c0 -5 -5 -10 -11 -10
-5 0 -7 -4 -4 -10 3 -5 2 -10 -4 -10 -5 0 -9 9 -8 20 1 20 27 29 27 10z m90
-11 c0 -6 -4 -7 -10 -4 -5 3 -10 11 -10 16 0 6 5 7 10 4 6 -3 10 -11 10 -16z
m-663 5 c-3 -3 -12 -4 -19 -1 -8 3 -5 6 6 6 11 1 17 -2 13 -5z m518 -4 c3 -5
1 -10 -4 -10 -6 0 -11 5 -11 10 0 6 2 10 4 10 3 0 8 -4 11 -10z m95 0 c0 -5
-4 -10 -9 -10 -6 0 -13 5 -16 10 -3 6 1 10 9 10 9 0 16 -4 16 -10z m290 0 c0
-5 -13 -10 -29 -10 -17 0 -33 5 -36 10 -4 6 8 10 29 10 20 0 36 -4 36 -10z
m196 -34 c2 -20 0 -36 -6 -36 -5 0 -10 19 -10 42 0 49 9 45 16 -6z m-1199 19
c0 -8 -6 -15 -14 -15 -7 0 -13 7 -13 15 0 8 6 15 13 15 8 0 14 -7 14 -15z
m398 -15 c4 -16 10 -32 15 -35 12 -8 0 -45 -15 -45 -7 0 -16 -6 -19 -12 -5
-10 -7 -10 -12 -1 -8 18 -38 -13 -30 -32 3 -9 0 -15 -9 -15 -11 0 -15 12 -15
46 0 26 4 43 10 39 5 -3 7 -13 4 -23 -5 -15 -4 -14 6 1 9 15 9 22 -4 36 -9 10
-16 30 -16 44 0 25 3 27 39 27 36 0 40 -3 46 -30z m150 4 c-27 -7 -54 -12 -60
-10 -14 5 54 24 85 24 15 0 4 -6 -25 -14z m200 6 c3 -5 -1 -10 -9 -10 -9 0
-16 5 -16 10 0 6 4 10 9 10 6 0 13 -4 16 -10z m415 -5 c0 -8 -4 -15 -10 -15
-5 0 -10 7 -10 15 0 8 5 15 10 15 6 0 10 -7 10 -15z m70 -12 c-1 -42 9 -133
15 -142 2 -5 -2 -14 -9 -20 -11 -10 -16 -8 -21 10 -4 13 -2 24 5 29 8 5 9 10
1 14 -13 8 -13 136 0 136 5 0 9 -12 9 -27z m-1170 -13 c0 -10 -7 -20 -15 -24
-11 -4 -15 1 -15 18 0 12 3 26 6 29 11 10 24 -3 24 -23z m635 20 c3 -5 -1 -10
-9 -10 -9 0 -16 5 -16 10 0 6 4 10 9 10 6 0 13 -4 16 -10z m281 -7 c6 -10 10
-26 8 -35 -1 -10 2 -18 7 -18 5 0 4 -11 -1 -25 -7 -18 -6 -25 3 -26 8 0 8 -2
-2 -6 -11 -5 -11 -7 0 -14 10 -6 11 -9 2 -9 -7 0 -13 -9 -13 -20 0 -11 6 -20
13 -21 10 0 10 -2 0 -6 -7 -2 -13 -11 -13 -19 0 -8 6 -14 13 -14 7 0 8 -3 2
-8 -14 -10 -15 -42 -1 -42 6 0 4 -5 -4 -10 -8 -5 -11 -10 -6 -10 6 0 1 -7 -10
-15 -12 -9 -14 -14 -6 -15 9 0 12 -10 10 -27 -2 -23 1 -29 20 -31 13 -2 26
-10 29 -19 3 -8 17 -19 31 -24 39 -15 12 -32 -50 -32 -76 0 -141 41 -177 110
-22 43 -15 56 27 49 27 -5 33 -4 22 3 -13 9 -13 11 3 11 20 0 22 -11 5 -29
-11 -12 -10 -13 6 -7 14 5 17 2 12 -9 -6 -18 -2 -19 24 -5 17 9 18 20 13 149
-7 172 3 222 33 174z m283 -25 c0 -35 -2 -39 -9 -21 -8 19 -3 63 6 63 2 0 4
-19 3 -42z m-608 10 c48 -26 49 -36 7 -40 -32 -3 -33 -5 -36 -50 -3 -42 -6
-48 -25 -48 -20 -1 -21 -1 -4 -11 27 -16 47 -3 47 30 0 22 5 30 25 35 26 7 35
26 13 27 -7 0 -2 5 12 10 19 8 27 6 37 -7 7 -10 13 -25 13 -35 0 -9 7 -22 15
-29 16 -13 21 -40 7 -40 -18 0 -42 43 -43 78 -1 33 -2 31 -9 -15 -4 -28 -18
-71 -31 -95 -21 -37 -29 -43 -60 -46 -19 -2 -47 2 -62 7 -31 12 -65 73 -73
134 -6 40 -4 45 16 50 12 3 19 10 15 16 -3 6 1 11 9 11 8 0 19 6 23 14 7 12
27 21 57 25 4 0 26 -9 47 -21z m-221 2 c0 -5 -2 -10 -4 -10 -3 0 -8 5 -11 10
-3 6 -1 10 4 10 6 0 11 -4 11 -10z m355 0 c3 -5 1 -10 -4 -10 -6 0 -11 5 -11
10 0 6 2 10 4 10 3 0 8 -4 11 -10z m372 -51 c-2 -21 0 -39 5 -39 5 0 6 -4 3
-10 -9 -14 -45 11 -45 33 0 10 6 20 14 23 8 3 12 13 8 26 -4 15 -2 19 7 13 8
-4 11 -22 8 -46z m-1161 24 c-4 -26 -36 -29 -36 -4 0 14 6 21 19 21 13 0 18
-6 17 -17z m479 -5 c-10 -31 -25 -47 -25 -26 0 24 11 48 22 48 5 0 6 -10 3
-22z m325 8 c0 -3 -4 -8 -10 -11 -5 -3 -10 -1 -10 4 0 6 5 11 10 11 6 0 10 -2
10 -4z m-726 -28 c3 -13 6 -25 6 -28 0 -3 -17 -6 -38 -7 -28 -1 -32 0 -17 7
l20 9 -20 1 -20 1 20 9 c13 6 15 9 5 9 -13 1 -13 2 0 11 24 15 37 12 44 -12z
m1118 -14 c2 -19 0 -37 -4 -40 -4 -3 -8 13 -8 35 0 51 6 53 12 5z m-1218 -9
c-4 -8 -8 -15 -10 -15 -2 0 -4 7 -4 15 0 8 4 15 10 15 5 0 7 -7 4 -15z m23
-22 c-9 -58 -18 -97 -23 -102 -2 -3 -10 1 -16 7 -9 9 -9 20 -2 41 9 23 8 30
-5 39 -14 10 -14 11 1 11 10 1 22 10 28 21 16 31 23 24 17 -17z m1269 10 c-10
-10 -19 5 -10 18 6 11 8 11 12 0 2 -7 1 -15 -2 -18z m-879 -8 c-14 -30 -37
-33 -37 -5 0 12 5 17 14 14 8 -3 17 -1 21 5 12 20 13 11 2 -14z m35 -24 c-2
-16 1 -32 7 -35 7 -4 11 1 11 13 0 24 10 51 19 51 12 0 6 -113 -7 -118 -7 -2
-12 -8 -12 -13 0 -6 5 -7 10 -4 6 3 10 2 10 -4 0 -18 -22 -23 -46 -11 -13 7
-21 17 -18 22 3 5 1 7 -4 6 -6 -2 -10 0 -11 5 -3 26 1 37 15 37 8 0 12 -4 9
-10 -3 -5 1 -10 9 -10 18 0 21 16 6 25 -12 7 -14 75 -2 75 5 0 7 -13 4 -29z
m-342 9 c0 -5 7 -10 15 -10 8 0 15 -8 15 -17 0 -16 -2 -16 -10 -3 -8 11 -10 5
-8 -24 2 -32 -1 -42 -17 -50 -12 -7 -19 -18 -17 -29 4 -18 5 -17 18 2 27 38
34 22 34 -76 0 -115 -5 -128 -44 -113 -35 13 -36 13 -36 -5 0 -8 13 -24 30
-36 28 -21 29 -25 25 -78 -7 -81 -11 -103 -24 -134 -6 -16 -11 -32 -11 -37 0
-16 26 -18 45 -3 19 15 19 15 -3 10 -15 -4 -22 -1 -19 6 3 7 10 11 18 9 17 -4
97 -13 127 -13 12 -1 21 -6 20 -13 -4 -21 13 -140 23 -158 8 -14 6 -18 -7 -18
-37 0 -74 -62 -43 -72 7 -2 7 -11 -1 -30 l-12 -26 -24 26 c-13 15 -24 22 -24
16 0 -6 7 -17 15 -24 8 -7 15 -17 15 -23 0 -5 -9 -2 -20 8 -11 10 -23 15 -27
11 -4 -4 3 -16 17 -26 14 -11 20 -20 13 -20 -8 0 -10 -7 -6 -17 6 -16 5 -16
-10 -5 -9 8 -24 12 -34 10 -15 -4 -13 -7 10 -18 15 -7 27 -17 27 -21 0 -5 -15
0 -33 11 -34 21 -73 27 -62 10 3 -5 2 -10 -4 -10 -12 0 -16 15 -30 123 -6 43
-16 87 -21 97 -14 27 -12 47 7 70 17 19 17 19 29 -8 10 -25 11 -23 11 26 -1
35 -4 47 -9 37 -5 -8 -13 -15 -17 -15 -11 0 -25 195 -22 304 3 83 5 91 31 118
16 15 33 28 39 28 6 0 11 11 11 25 0 21 -5 25 -29 25 -36 0 -48 15 -24 29 24
14 7 14 -19 0 -18 -10 -20 -9 -15 6 4 9 7 23 7 31 0 8 4 14 10 14 5 0 7 -7 3
-16 -5 -14 -3 -15 15 -5 21 11 30 23 15 19 -16 -3 -43 15 -43 28 0 8 8 14 18
14 15 0 15 -2 2 -11 -12 -9 -12 -10 -1 -7 22 6 25 28 4 28 -16 1 -15 3 6 20
25 21 51 26 51 10z m1070 -11 c0 -5 -7 -9 -15 -9 -15 0 -20 12 -9 23 8 8 24
-1 24 -14z m50 -9 c0 -5 -4 -10 -10 -10 -5 0 -10 5 -10 10 0 6 5 10 10 10 6 0
10 -4 10 -10z m-840 -18 c0 -24 -8 -32 -26 -25 -22 8 -17 43 6 43 13 0 20 -7
20 -18z m791 -2 c-11 -6 -10 -9 5 -13 10 -3 4 -5 -15 -4 -45 3 -52 24 -9 25
21 0 28 -2 19 -8z m46 -20 c-1 -11 -5 -20 -9 -20 -4 0 -8 9 -8 20 0 11 4 20 9
20 6 0 9 -9 8 -20z m-83 -6 c23 -9 20 -24 -4 -24 -11 0 -20 7 -20 15 0 17 2
18 24 9z m136 -28 c0 -25 -25 -43 -35 -25 -10 15 5 49 21 49 8 0 14 -10 14
-24z m-910 10 c0 -2 -7 -6 -15 -10 -8 -3 -15 -1 -15 4 0 6 7 10 15 10 8 0 15
-2 15 -4z m416 -5 c13 10 17 10 25 -2 6 -10 3 -15 -11 -17 -11 -2 -20 -10 -20
-18 0 -25 -18 -15 -29 17 -9 27 -9 30 4 19 12 -10 18 -10 31 1z m-776 -42 c0
-10 6 -19 13 -19 6 0 4 -5 -5 -11 -23 -13 -23 -25 1 -32 28 -7 17 -58 -12 -53
-26 4 -48 36 -29 43 7 3 12 24 12 54 0 31 4 48 10 44 6 -3 10 -15 10 -26z
m404 -1 c-8 -13 -31 -9 -37 6 -3 8 -3 16 0 19 8 8 43 -16 37 -25z m807 19 c-6
-8 -8 -17 -4 -20 3 -4 1 -7 -5 -7 -14 0 -14 2 -6 24 3 9 11 16 16 16 7 0 6 -5
-1 -13z m-864 -11 c-3 -7 0 -19 6 -25 8 -8 8 -11 0 -11 -11 0 -23 22 -23 41 0
5 5 9 11 9 6 0 9 -6 6 -14z m950 -33 c-3 -10 -5 -2 -5 17 0 19 2 27 5 18 2
-10 2 -26 0 -35z m-603 -2 c-6 -37 -5 -39 15 -34 17 4 21 1 21 -16 0 -12 -5
-32 -11 -44 -10 -21 -9 -21 10 2 27 30 26 49 -1 79 -20 21 -20 24 -5 19 10 -4
27 -7 38 -7 17 0 18 -5 13 -42 -10 -63 -20 -76 -67 -89 -55 -16 -66 -25 -60
-50 7 -25 -16 -43 -34 -27 -7 6 -10 20 -7 34 6 25 5 26 -77 39 -45 7 -56 20
-75 81 -11 36 -11 50 -2 55 22 14 37 -2 31 -31 -6 -35 33 -80 69 -80 19 0 18
3 -12 18 -27 13 -36 24 -38 47 -2 27 -1 28 11 13 19 -24 24 -23 31 7 7 26 30
33 42 14 5 -8 10 -6 16 5 5 9 17 16 27 16 9 0 26 7 37 15 30 22 35 18 28 -24z
m-268 2 c-10 -10 -19 5 -10 18 6 11 8 11 12 0 2 -7 1 -15 -2 -18z m404 -5 c0
-48 39 -108 90 -143 37 -24 55 -30 100 -30 31 0 69 7 87 16 29 16 32 16 38 0
12 -30 18 -277 8 -296 -8 -14 -13 1 -22 66 -6 46 -16 106 -22 132 -10 45 -10
50 12 74 l24 26 -36 -27 c-20 -14 -56 -31 -80 -36 -43 -9 -42 -9 11 -4 71 7
55 -11 -19 -20 -44 -6 -53 -5 -48 7 4 11 -5 16 -34 21 -29 5 -52 18 -84 50
l-43 44 -13 -30 c-21 -50 2 -138 56 -217 45 -67 54 -94 35 -106 -6 -4 -9 3 -7
16 1 15 -6 27 -22 35 -32 16 -58 58 -76 124 -22 77 -25 84 -31 77 -12 -12 39
-149 71 -192 19 -25 33 -45 30 -45 -3 0 -24 12 -46 26 -22 14 -48 24 -57 22
-11 -3 1 -13 34 -30 27 -15 56 -34 63 -42 8 -9 21 -16 29 -16 12 0 13 -3 5
-11 -8 -8 -22 -4 -49 14 -48 29 -113 63 -99 50 6 -5 36 -29 68 -52 32 -24 55
-46 53 -49 -3 -2 -36 16 -73 40 -94 61 -97 63 -89 49 4 -6 39 -32 77 -57 38
-25 69 -50 69 -56 0 -6 -10 -3 -22 6 -133 94 -210 111 -263 56 -16 -16 -35
-30 -42 -30 -8 0 -33 -8 -56 -19 -46 -20 -97 -34 -97 -26 0 5 60 32 120 55 40
15 67 36 35 27 -45 -12 -141 -50 -155 -60 -13 -11 -13 -10 -1 6 8 10 27 25 43
33 42 22 34 37 -9 19 -34 -13 -36 -13 -18 0 10 9 43 23 72 32 29 9 53 20 53
25 0 11 1 11 -75 -17 -67 -26 -104 -29 -45 -5 16 7 30 16 30 20 0 5 15 13 33
20 17 7 27 14 20 17 -6 2 -27 -4 -45 -13 -30 -16 -32 -16 -19 0 21 26 4 32
-22 8 -13 -12 -33 -22 -45 -22 -12 0 -22 -4 -22 -9 0 -13 18 -23 22 -12 1 4
14 12 28 15 20 6 18 3 -9 -14 -27 -17 -36 -19 -42 -8 -18 27 -8 53 41 104 49
51 110 161 110 196 0 9 -11 39 -25 66 -27 53 -33 96 -13 90 6 -2 16 -23 22
-46 14 -54 66 -109 111 -118 52 -9 44 -28 -9 -21 -48 7 -62 1 -45 -20 13 -15
-2 -18 -17 -3 -7 7 -19 -5 -38 -39 -15 -28 -50 -75 -77 -106 -31 -34 -45 -55
-36 -55 20 0 87 77 118 135 26 48 39 55 60 29 12 -15 11 -16 -9 -10 -12 4 -22
3 -22 -2 0 -5 19 -13 42 -18 47 -10 63 -32 21 -29 -16 1 -19 0 -6 -2 12 -2 24
-14 27 -29 6 -22 11 -24 65 -24 66 0 72 8 63 83 l-4 37 -58 0 c-39 0 -62 5
-70 15 -9 10 -9 15 -1 15 6 0 11 -5 11 -11 0 -8 5 -8 15 1 11 9 19 9 28 2 8
-7 18 -7 27 -2 8 6 24 9 35 9 l20 0 -20 -9 c-18 -8 -18 -9 -2 -9 10 -1 29 -8
42 -17 15 -10 25 -12 25 -5 0 6 -6 11 -12 12 -10 0 -10 2 0 6 6 2 12 11 12 19
0 13 12 18 33 15 11 -2 8 14 -5 28 -10 11 -10 14 0 18 6 3 12 10 12 18 0 7 7
18 15 25 10 9 13 24 8 55 -6 48 2 95 17 95 6 0 10 -15 10 -32z m429 1 c-19
-12 -29 -11 -29 1 0 6 7 10 15 10 8 0 15 6 16 13 0 8 2 8 6 -2 3 -7 -1 -17 -8
-22z m-49 1 c0 -12 -28 -25 -36 -17 -9 9 6 27 22 27 8 0 14 -5 14 -10z m-820
-54 c0 -92 -88 -176 -185 -176 -41 0 -117 29 -129 49 -9 14 0 14 26 0 49 -26
153 -6 206 40 24 21 61 95 62 124 0 10 5 15 10 12 6 -3 10 -25 10 -49z m-312
24 c5 -13 3 -13 -11 -1 -9 7 -23 11 -30 8 -8 -3 -20 -1 -28 4 -10 7 -2 9 25 7
24 -2 41 -9 44 -18z m1082 10 c0 -5 -2 -10 -4 -10 -3 0 -8 5 -11 10 -3 6 -1
10 4 10 6 0 11 -4 11 -10z m105 -28 c-22 -5 -29 3 -21 25 7 17 8 17 22 -2 13
-18 13 -20 -1 -23z m-71 -28 c4 -11 14 -15 31 -12 l25 5 -1 -346 c0 -190 2
-400 5 -466 3 -66 3 -113 -2 -105 -4 8 -15 27 -24 41 -18 25 -58 192 -58 239
0 14 12 49 25 79 18 37 22 58 15 65 -5 5 -10 20 -10 32 0 12 -5 24 -11 26 -12
4 -19 458 -8 458 4 0 10 -7 13 -16z m-1189 -224 l4 -185 -19 115 c-23 144 -25
262 -3 258 12 -2 15 -35 18 -188z m185 170 c0 -5 -2 -10 -4 -10 -3 0 -8 5 -11
10 -3 6 -1 10 4 10 6 0 11 -4 11 -10z m373 -27 c-7 -2 -19 -2 -25 0 -7 3 -2 5
12 5 14 0 19 -2 13 -5z m-603 -21 c0 -4 -9 -8 -20 -9 -11 -1 -20 2 -20 8 0 5
9 9 20 9 11 0 20 -4 20 -8z m790 -7 c0 -11 -12 -15 -46 -15 -40 0 -45 2 -34
15 7 8 28 15 46 15 24 0 34 -5 34 -15z m-776 -165 c9 -69 19 -152 21 -185 2
-33 9 -76 14 -95 16 -50 44 -348 35 -368 -8 -20 -36 132 -59 328 -34 291 -51
461 -46 465 10 11 19 -24 35 -145z m285 84 c-23 -61 -29 -66 -67 -59 -56 9
-72 15 -72 26 0 6 19 8 48 4 l47 -5 -43 18 c-24 10 -43 21 -43 25 1 4 1 10 1
15 0 4 31 6 69 4 70 -4 70 -4 60 -28z m421 -44 l0 -50 -50 0 -50 0 0 50 0 50
50 0 50 0 0 -50z m410 41 c0 -15 -66 -18 -79 -4 -9 10 -3 13 34 13 25 0 45 -4
45 -9z m3 -46 c-4 -17 -42 -17 -59 0 -16 15 -14 16 22 13 21 -2 38 -7 37 -13z
m-905 -21 c12 -4 22 -13 22 -21 0 -13 -9 -15 -45 -10 -51 5 -60 10 -50 26 7
12 38 14 73 5z m922 -23 c0 -16 -36 -19 -55 -5 -17 13 -16 14 18 14 20 0 37
-4 37 -9z m-936 -32 c14 -13 -12 -38 -34 -32 -25 7 -44 29 -35 43 7 11 53 4
69 -11z m939 -13 c3 -8 -1 -17 -9 -20 -26 -10 -33 -7 -31 14 1 23 32 27 40 6z
m-98 -73 c15 -93 27 -144 32 -139 5 5 -12 122 -23 159 -5 17 -4 18 25 3 16 -9
40 -16 52 -16 14 0 19 -5 16 -14 -20 -51 -27 -98 -18 -114 9 -15 10 -14 11 8
0 39 20 100 32 100 6 0 8 -10 5 -22 -4 -13 -8 -43 -11 -68 l-6 -45 13 44 c7
25 19 47 26 49 8 3 11 1 8 -4 -2 -5 -12 -33 -21 -62 -17 -58 -5 -63 14 -6 9
25 15 33 23 25 7 -7 7 -14 0 -23 -5 -7 -17 -32 -26 -56 -16 -39 -16 -50 -2
-135 19 -115 19 -107 -7 -107 -13 0 -38 -9 -55 -20 -33 -20 -44 -15 -21 8 7 7
8 12 2 12 -5 0 -15 -5 -22 -12 -9 -9 -12 -8 -12 4 0 8 7 21 15 28 9 7 13 15
10 18 -3 3 -14 -3 -25 -13 -11 -10 -20 -13 -20 -8 0 6 7 16 15 23 8 7 15 17
15 22 0 6 -7 4 -16 -3 -15 -12 -16 -11 -10 9 6 17 4 21 -8 16 -11 -4 -16 0
-16 14 0 12 5 24 10 27 6 3 10 11 10 17 0 7 -6 6 -15 -2 -9 -8 -15 -9 -15 -2
0 6 5 14 10 17 6 3 10 11 10 17 0 7 -4 7 -13 0 -8 -7 -18 -7 -27 -2 -12 8 -13
13 -2 30 28 45 8 80 -45 80 -38 0 -38 2 -18 60 8 23 15 53 15 66 0 38 16 28
38 -23 12 -27 21 -43 22 -36 0 7 -8 29 -17 49 -17 35 -17 36 2 50 28 21 33 18
40 -23z m92 31 c-3 -3 -12 -4 -19 -1 -8 3 -5 6 6 6 11 1 17 -2 13 -5z m-1090
-76 c-3 -7 -5 -2 -5 12 0 14 2 19 5 13 2 -7 2 -19 0 -25z m658 22 c4 -6 -9
-10 -33 -10 -29 0 -50 -8 -78 -31 -50 -40 -119 -71 -166 -75 -58 -5 -54 13 5
20 57 7 149 54 169 86 10 15 24 20 55 20 23 0 45 -4 48 -10z m120 -70 l40 -33
-39 6 c-22 4 -44 12 -50 18 -8 9 -6 10 8 5 16 -6 17 -4 5 10 -7 9 -23 20 -36
25 -13 5 -23 13 -23 19 0 14 45 -10 95 -50z m-113 33 c24 -21 23 -32 -2 -26
-11 3 -20 10 -20 15 0 7 -16 8 -39 5 -33 -4 -38 -3 -28 9 17 19 67 17 89 -3z
m207 -42 c-15 -44 -6 -62 28 -55 l28 5 3 -101 3 -102 -23 7 -23 7 23 -17 c19
-14 22 -22 16 -53 -4 -20 -8 -39 -10 -40 -1 -2 -23 8 -47 22 -69 41 -272 110
-352 121 -64 8 -136 16 -175 19 -41 4 -45 6 -41 27 7 49 19 59 71 59 57 0 142
-17 189 -37 28 -13 35 -13 42 -2 6 9 9 10 9 2 0 -10 112 -53 142 -53 7 0 39
-11 71 -24 46 -19 56 -21 44 -8 -8 9 -18 27 -21 39 -4 11 -13 27 -21 33 -22
18 -19 40 17 118 33 73 47 90 27 33z m-592 -13 c-3 -7 -5 -2 -5 12 0 14 2 19
5 13 2 -7 2 -19 0 -25z m367 22 c14 -5 26 -16 26 -23 0 -15 40 -37 68 -37 9 0
24 -5 32 -11 15 -10 7 -10 -65 6 -11 3 -2 -4 20 -15 22 -11 32 -18 21 -15 -10
3 -58 8 -107 12 -49 3 -86 10 -83 14 3 5 20 9 39 9 19 0 37 5 40 10 10 16 -56
12 -89 -5 -16 -9 -31 -14 -33 -11 -2 2 15 13 39 25 37 18 39 21 17 21 -14 0
-34 -7 -45 -15 -10 -8 -23 -15 -29 -15 -11 0 24 25 63 46 32 16 52 17 86 4z
m-337 -77 c-2 -16 -4 -5 -4 22 0 28 2 40 4 28 2 -13 2 -35 0 -50z m424 47 c24
-11 38 -20 31 -20 -16 0 -82 27 -82 34 0 9 4 8 51 -14z m-254 -26 c-3 -3 -12
-4 -19 -1 -8 3 -5 6 6 6 11 1 17 -2 13 -5z m-200 -81 c-5 -58 -20 -124 -45
-193 -10 -31 -18 47 -11 115 5 55 11 72 28 83 12 8 21 25 21 38 0 13 3 24 6
24 4 0 4 -30 1 -67z m203 57 c-8 -5 -26 -9 -40 -9 -23 1 -23 2 5 9 43 11 52
11 35 0z m1197 -49 c5 -38 4 -41 -17 -41 -13 0 -20 -3 -16 -7 4 -5 13 -8 19
-8 7 0 13 -19 15 -42 2 -34 0 -43 -12 -43 -9 0 -16 -5 -16 -11 0 -6 -5 -9 -12
-7 -21 7 -22 113 -2 168 20 56 33 53 41 -9z m-1797 -27 c0 -29 -3 -34 -25 -34
-23 0 -24 2 -20 53 2 28 4 54 4 57 1 3 11 -6 21 -19 11 -13 20 -38 20 -57z
m884 35 c8 -9 -5 -10 -59 -5 -38 3 -100 6 -137 6 -45 0 -68 4 -68 12 0 15 248
4 264 -13z m-954 -29 c0 -5 -2 -10 -4 -10 -3 0 -8 5 -11 10 -3 6 -1 10 4 10 6
0 11 -4 11 -10z m984 -16 c9 -24 2 -26 -12 -4 -7 11 -8 20 -3 20 5 0 12 -7 15
-16z m-974 -14 c0 -5 -4 -10 -10 -10 -5 0 -10 5 -10 10 0 6 5 10 10 10 6 0 10
-4 10 -10z m1160 -81 c25 -95 25 -99 -5 -99 -25 0 -25 1 -25 92 0 50 2 89 5
86 3 -3 14 -38 25 -79z m-1100 51 c12 -8 10 -10 -10 -10 -14 0 -32 -4 -40 -10
-8 -5 -19 -5 -25 0 -7 6 -17 -1 -29 -20 -9 -17 -21 -30 -27 -30 -13 0 -11 9
12 46 18 30 26 34 62 34 23 0 49 -5 57 -10z m521 -82 c-17 -96 -33 -142 -26
-73 9 75 26 157 32 151 4 -3 1 -39 -6 -78z m-226 -65 c-14 -13 -30 -23 -36
-23 -14 0 -1 47 29 108 l27 52 3 -57 c3 -52 0 -60 -23 -80z m117 120 c-6 -10
-13 -38 -17 -63 -5 -25 -10 -39 -12 -32 -7 18 17 112 28 112 6 0 6 -7 1 -17z
m178 -18 c0 -24 -16 -42 -28 -30 -3 3 -1 10 7 14 9 6 6 10 -11 15 -22 6 -22 7
-4 21 24 18 36 11 36 -20z m1095 25 c4 -6 2 -17 -4 -24 -9 -10 -7 -15 6 -21
16 -7 15 -9 -7 -15 l-25 -8 28 -1 c15 -1 27 -5 27 -10 0 -15 -30 -21 -51 -11
-11 6 -24 8 -29 5 -6 -3 -10 -1 -10 4 0 6 5 11 11 11 6 0 9 7 6 15 -4 8 -2 17
4 20 5 4 7 11 4 16 -4 5 -3 14 0 19 8 13 32 13 40 0z m-1659 -15 c4 -8 3 -23
-1 -32 -12 -27 -15 -102 -4 -109 5 -3 9 2 9 10 0 15 18 32 26 23 3 -2 -1 -16
-7 -31 -10 -22 -19 -26 -56 -27 -101 -3 -103 -2 -103 16 0 8 -4 15 -10 15 -5
0 -10 11 -10 24 0 24 2 25 55 21 30 -2 55 0 55 5 0 4 -8 21 -17 38 -9 16 -14
36 -10 45 8 22 65 23 73 2z m-76 -64 c0 -8 -6 -11 -16 -7 -9 3 -27 6 -40 6
l-25 0 23 30 22 31 18 -23 c10 -13 18 -29 18 -37z m721 9 c6 0 7 -5 4 -10 -11
-19 -25 1 -24 33 2 30 2 31 6 5 2 -16 9 -28 14 -28z m34 -55 c-4 -52 -12 -98
-17 -101 -7 -5 -9 2 -5 17 3 13 9 61 13 107 3 45 9 80 12 78 2 -3 1 -48 -3
-101z m-464 75 c13 -10 19 -19 12 -20 -6 0 -15 5 -18 11 -4 5 -12 8 -18 6 -15
-5 -18 -39 -5 -54 17 -20 -6 -83 -42 -118 -36 -34 -39 -18 -6 31 22 33 26 81
5 68 -5 -3 -9 13 -9 35 0 37 2 41 26 41 14 0 23 4 19 10 -10 17 11 11 36 -10z
m384 -12 c-3 -18 -10 -68 -14 -111 -8 -89 -7 -90 79 -83 25 2 62 5 83 5 33 1
37 3 33 24 -3 12 -7 60 -10 107 -6 101 8 69 18 -42 7 -67 10 -77 29 -82 49
-13 50 -12 44 82 -6 87 4 66 18 -40 4 -32 11 -48 21 -48 8 0 14 6 15 13 0 10
2 10 6 0 2 -7 9 -13 15 -13 7 0 9 19 5 53 -7 57 6 46 17 -15 6 -33 10 -37 36
-36 30 1 30 1 24 50 l-7 48 48 0 c39 0 52 -5 72 -26 16 -18 23 -34 19 -48 -9
-37 8 -49 76 -53 35 -3 70 -7 78 -11 17 -8 -731 -19 -977 -14 l-163 3 0 29 c0
25 5 31 33 38 25 6 33 15 37 38 4 21 15 34 39 46 19 9 38 15 43 12 4 -3 5 -30
2 -60 -6 -45 -4 -54 9 -54 8 0 18 8 20 18 4 13 5 11 6 -5 1 -20 6 -23 45 -23
42 0 44 1 54 38 l10 37 1 -38 1 -37 50 1 c28 1 51 5 51 8 1 3 3 16 4 27 17
157 23 194 32 194 2 0 1 -15 -2 -32z m131 -34 c1 -32 0 -48 -3 -34 -3 13 -12
30 -21 37 -16 12 -16 13 1 7 9 -3 17 -1 17 5 0 6 -8 12 -17 12 -17 1 -17 2 0
6 19 5 23 19 7 26 -6 3 -5 4 2 3 9 -2 13 -23 14 -62z m-1066 17 c0 -6 -4 -13
-10 -16 -5 -3 -10 1 -10 9 0 9 5 16 10 16 6 0 10 -4 10 -9z m1165 -1 c3 -5 -1
-10 -10 -10 -9 0 -13 5 -10 10 3 6 8 10 10 10 2 0 7 -4 10 -10z m939 1 c3 -5
-10 -11 -29 -13 -24 -3 -35 0 -35 9 0 15 56 18 64 4z m-834 -41 c0 -11 -2 -20
-4 -20 -2 0 -6 9 -9 20 -3 11 -1 20 4 20 5 0 9 -9 9 -20z m499 9 c5 8 11 9 15
3 7 -11 161 -10 172 1 4 3 16 1 27 -4 11 -6 22 -7 26 -3 8 12 54 11 63 0 4 -6
13 -4 22 3 14 12 16 2 16 -105 0 -66 3 -129 6 -141 5 -19 2 -23 -14 -23 -20 0
-49 -36 -38 -47 8 -9 26 7 26 25 1 15 2 16 13 1 7 -9 12 -42 11 -75 -1 -52 -3
-59 -20 -56 -37 6 -44 12 -44 37 0 15 -4 24 -10 20 -5 -3 -10 -15 -10 -26 0
-23 -22 -25 -40 -4 -13 16 -6 65 10 65 6 0 10 7 10 16 0 14 3 14 15 4 11 -9
15 -9 15 -1 0 20 -32 25 -45 8 -7 -10 -14 -17 -17 -17 -2 0 -3 48 -1 108 2 59
0 112 -4 119 -5 8 -46 12 -113 14 l-105 2 -3 -73 c-3 -65 -6 -76 -32 -102
l-30 -30 0 133 c0 112 2 134 17 144 13 10 21 10 35 1 14 -8 21 -8 27 3z
m-1749 -14 c11 -13 8 -15 -14 -15 -25 0 -33 10 -19 23 10 11 19 8 33 -8z m365
-29 c-17 -26 -14 -60 11 -120 5 -12 4 -17 -3 -13 -6 4 -16 27 -23 53 -12 41
-11 50 5 80 10 19 20 32 22 30 3 -2 -3 -16 -12 -30z m302 -13 c-3 -10 -5 -2
-5 17 0 19 2 27 5 18 2 -10 2 -26 0 -35z m927 5 c56 -65 45 -108 -27 -108 -24
0 -36 4 -32 10 4 6 14 10 23 9 32 -3 40 1 45 21 3 11 2 20 -2 20 -4 0 -15 14
-25 31 -24 41 -32 29 -12 -21 9 -22 12 -40 6 -40 -15 0 -50 42 -57 70 l-7 25
-6 -30 c-6 -26 -8 -28 -15 -11 -6 15 -2 25 19 43 37 32 49 29 90 -19z m-729
11 c12 -18 -4 -59 -23 -59 -15 0 -15 2 -2 10 13 8 12 10 -2 10 -10 0 -18 4
-18 9 0 5 9 7 20 4 25 -7 26 12 3 26 -17 10 -17 10 -1 11 9 0 20 -5 23 -11z
m-808 -21 c7 -5 10 -14 7 -19 -3 -5 2 -12 10 -15 13 -5 16 -24 16 -100 0 -87
-1 -94 -20 -94 -11 0 -20 -7 -20 -15 0 -22 -13 -18 -38 10 -12 14 -28 25 -36
25 -21 0 -27 90 -7 113 11 13 12 20 4 25 -7 4 -12 27 -11 51 l0 43 41 -6 c23
-4 47 -12 54 -18z m339 -16 c1 -15 5 -45 8 -67 l7 -40 -16 40 c-25 62 -28 73
-21 91 9 22 21 9 22 -24z m127 6 c-3 -16 -9 -28 -14 -28 -12 0 -11 4 3 35 14
31 18 29 11 -7z m701 17 c3 -8 1 -15 -4 -15 -6 0 -10 7 -10 15 0 8 2 15 4 15
2 0 6 -7 10 -15z m-177 -47 c-2 -13 -4 -5 -4 17 -1 22 1 32 4 23 2 -10 2 -28
0 -40z m-17 18 c0 -8 -4 -17 -9 -21 -6 -3 -9 4 -8 15 1 23 17 28 17 6z m-876
-48 c-3 -34 -2 -38 5 -18 9 24 9 23 11 -10 l2 -35 9 44 c11 56 19 64 20 20 0
-28 2 -30 9 -14 5 11 9 16 9 10 1 -5 6 -3 12 5 7 11 8 3 4 -27 -4 -25 -3 -43
3 -43 5 0 12 21 15 46 2 25 10 51 16 57 9 9 10 2 5 -30 -4 -29 -3 -43 5 -43 6
0 11 10 11 23 0 22 16 55 22 47 2 -3 1 -108 -2 -233 -3 -126 -2 -231 3 -234 4
-2 7 23 7 57 0 53 2 61 18 58 11 -2 18 -14 20 -36 4 -38 23 -38 33 -1 5 17 7
8 8 -28 1 -60 13 -55 -136 -57 -61 -1 -75 -4 -97 -25 -28 -26 -34 -43 -13 -39
7 2 13 -9 15 -24 3 -22 0 -27 -12 -22 -9 3 -16 14 -16 23 -1 14 -2 14 -15 -2
-12 -17 -14 -15 -20 28 -4 25 -5 49 -1 52 3 4 6 -3 6 -15 0 -12 5 -22 10 -22
6 0 9 30 9 73 -2 62 -3 66 -9 32 l-7 -40 -3 40 c-3 53 0 78 11 90 13 13 11 45
-3 45 -8 0 -9 34 -5 124 5 101 9 128 24 145 10 10 19 20 20 20 0 1 -1 -18 -3
-41z m559 24 c-10 -10 -20 -17 -22 -16 -6 5 20 34 30 34 5 0 1 -8 -8 -18z
m1105 -70 c12 2 19 17 23 48 l6 45 1 -49 c1 -27 5 -46 9 -42 4 4 6 25 4 48 -2
27 1 38 8 34 6 -4 12 -24 13 -44 1 -37 1 -37 8 8 l7 45 3 -45 c1 -25 2 -53 1
-62 -1 -10 4 -18 13 -18 13 0 16 -12 16 -56 0 -30 -4 -53 -8 -50 -5 3 -6 -22
-4 -54 5 -66 -4 -114 -18 -105 -12 7 -12 -12 0 -40 8 -19 9 -19 9 -1 1 14 4
17 11 10 6 -6 10 -42 8 -84 l-3 -73 -25 38 c-33 50 -70 76 -117 84 l-38 6 2
120 c3 256 5 291 13 265 7 -23 8 -22 9 10 1 26 4 31 11 20 8 -12 10 -10 12 10
1 14 3 3 5 -23 3 -39 7 -48 21 -45z m-661 72 c-3 -3 -12 -4 -19 -1 -8 3 -5 6
6 6 11 1 17 -2 13 -5z m-779 -82 c19 -3 22 -10 22 -48 0 -34 -4 -44 -17 -44
-9 0 -25 -7 -35 -17 -17 -15 -18 -12 -17 83 0 92 1 96 13 64 8 -23 20 -36 34
-38z m1137 48 c-3 -5 -11 -10 -16 -10 -6 0 -7 5 -4 10 3 6 11 10 16 10 6 0 7
-4 4 -10z m-1055 -30 c0 -11 -4 -20 -9 -20 -14 0 -23 18 -16 30 10 17 25 11
25 -10z m6 -45 c4 -8 10 -12 15 -9 5 3 9 0 9 -5 0 -6 5 -11 10 -11 6 0 10 7
10 15 0 18 41 20 58 3 9 -9 12 -9 12 1 0 11 3 11 15 1 10 -9 15 -9 15 -1 0 6
9 11 21 11 11 0 18 -4 15 -8 -3 -5 -1 -22 4 -38 8 -29 8 -29 9 9 2 60 21 43
23 -20 l2 -58 3 58 c5 73 23 75 23 2 0 -30 5 -55 10 -55 6 0 10 25 10 55 0 30
5 55 10 55 6 0 10 -22 10 -50 0 -27 5 -50 10 -50 6 0 10 23 10 50 0 28 5 50
10 50 6 0 10 -20 10 -45 0 -26 5 -45 11 -45 7 0 10 17 7 45 l-3 45 132 0 133
0 0 -65 c0 -37 4 -65 10 -65 6 0 10 -7 10 -15 0 -8 5 -15 10 -15 6 0 10 23 10
50 0 38 -4 50 -15 50 -12 0 -14 7 -9 28 4 15 7 28 8 28 1 1 58 4 128 8 124 7
126 6 121 -14 -3 -11 0 -20 6 -20 6 0 11 10 11 22 0 25 15 14 23 -17 3 -15 5
-13 6 8 1 25 4 28 29 25 22 -2 27 -8 28 -31 1 -39 14 -47 14 -9 0 18 5 32 10
32 6 0 10 -17 10 -37 0 -20 3 -33 7 -30 3 4 6 20 5 37 0 16 4 32 9 35 5 4 10
-21 10 -57 l1 -63 8 55 c5 30 6 58 3 63 -3 5 5 7 18 5 22 -3 24 -8 27 -65 4
-82 17 -82 17 0 1 56 3 62 23 65 20 3 22 -1 21 -35 -1 -27 -3 -31 -6 -13 -10
53 -19 37 -20 -33 0 -39 2 -57 4 -39 8 61 19 32 15 -40 -6 -97 11 -78 19 20 5
64 6 52 7 -65 l2 -143 -62 0 c-71 0 -135 -15 -160 -37 -9 -8 -22 -41 -28 -72
-6 -31 -25 -110 -41 -177 -16 -67 -29 -126 -29 -132 0 -7 9 -21 21 -33 19 -19
19 -22 4 -46 -24 -37 -86 -103 -96 -103 -5 0 -9 11 -9 25 0 32 -34 51 -66 36
-38 -17 -49 -80 -29 -160 25 -103 53 -171 91 -223 43 -58 73 -80 141 -102 62
-20 83 -42 32 -31 -113 23 -162 56 -216 146 -79 132 -107 294 -62 365 35 57
107 56 129 -1 6 -15 14 -23 20 -20 6 4 4 17 -5 35 -18 35 -20 36 -67 45 -32 6
-41 3 -73 -27 -33 -30 -38 -42 -43 -89 -2 -30 -12 -62 -21 -73 -12 -14 -16
-39 -16 -101 0 -46 3 -81 7 -78 5 2 8 -3 8 -11 0 -13 -12 -16 -60 -16 -54 0
-60 2 -60 21 0 11 4 18 9 15 4 -3 6 6 3 19 -2 14 1 38 7 53 14 33 -4 85 -38
116 -12 11 -21 29 -21 41 0 39 -42 90 -77 93 -39 4 -91 -22 -102 -50 -7 -21
-11 -19 -60 27 -74 69 -80 83 -42 96 39 14 39 32 6 130 -31 88 -51 160 -60
213 -10 60 -43 86 -110 86 l-55 0 2 108 c1 94 2 100 8 47 6 -50 7 -42 8 55 1
77 -1 110 -8 100 -7 -11 -10 -7 -10 17 0 39 34 60 46 28z m1264 -65 c0 -24 -4
-30 -22 -31 l-23 -2 23 -4 c18 -4 22 -11 22 -39 0 -22 -6 -37 -15 -40 -42 -17
-63 71 -25 103 11 10 20 23 20 30 0 7 5 13 10 13 6 0 10 -13 10 -30z m-1724
-31 c9 -18 17 -52 17 -78 2 -44 1 -46 -27 -49 -16 -2 -33 1 -39 7 -8 8 -5 11
8 11 15 0 16 3 7 9 -15 9 -18 51 -8 99 9 40 21 41 42 1z m392 -60 c-2 -49 -6
-70 -17 -74 -15 -6 -66 23 -57 32 3 3 13 0 22 -8 15 -12 16 -11 10 9 -6 17 -3
22 11 23 16 1 16 2 1 6 -25 6 -34 44 -14 55 9 5 16 15 16 23 0 9 6 12 15 9 11
-5 14 -22 13 -75z m-308 0 c0 -63 -1 -65 -31 -49 -23 13 -26 62 -4 84 8 8 15
20 15 26 0 6 5 8 10 5 6 -3 10 -33 10 -66z m1600 -66 c0 -7 -4 -13 -10 -13 -5
0 -10 12 -10 28 0 21 2 24 10 12 5 -8 10 -21 10 -27z m31 -16 c-8 -8 -11 -5
-11 9 0 27 14 41 18 19 2 -9 -1 -22 -7 -28z m267 0 c3 -22 -1 -27 -18 -27 -16
0 -20 4 -16 16 3 9 6 22 6 31 0 25 25 8 28 -20z m60 5 c2 -15 -2 -22 -12 -22
-11 0 -16 9 -16 26 0 31 23 28 28 -4z m52 -8 c0 -8 -4 -12 -10 -9 -5 3 -10 10
-10 16 0 5 5 9 10 9 6 0 10 -7 10 -16z m-2043 -11 c3 -7 -7 -11 -26 -11 -31 1
-38 8 -24 22 11 10 46 3 50 -11z m1673 -29 c0 -27 -24 -53 -47 -54 -7 0 -13 9
-13 20 0 12 7 20 18 20 15 0 15 -2 2 -11 -12 -8 -12 -10 4 -7 25 4 23 22 -4
26 -11 2 -20 8 -20 13 0 6 9 7 20 4 11 -4 20 -2 20 4 0 6 5 11 10 11 6 0 10
-12 10 -26z m-1696 -5 c-15 -5 -12 -8 18 -14 68 -13 57 -62 -15 -67 -39 -3
-42 -5 -45 -35 -2 -25 -8 -33 -23 -33 -20 0 -27 34 -9 45 6 4 8 11 5 16 -4 5
4 14 17 19 22 10 22 10 -4 5 -24 -5 -27 -2 -26 25 1 30 11 39 23 20 10 -17 25
-11 25 9 0 21 17 31 39 23 11 -4 10 -7 -5 -13z m2052 4 c17 -17 17 -18 0 -21
-14 -3 -15 -6 -5 -19 11 -13 4 -14 -52 -9 l-64 5 60 -11 c69 -12 75 -15 55
-28 -10 -7 -11 -10 -2 -10 6 0 12 -9 12 -20 0 -11 -4 -20 -9 -20 -5 0 -11 9
-14 20 -3 12 -14 20 -29 21 -21 1 -35 3 -76 7 -9 2 -12 14 -10 40 2 28 7 37
21 36 9 -1 17 4 17 12 0 21 74 18 96 -3z m-338 -78 c7 -14 12 -53 12 -85 0
-53 -2 -60 -20 -60 -16 0 -20 7 -20 31 0 16 -5 51 -11 76 -10 37 -9 47 2 54
21 13 25 11 37 -16z m-117 -25 c24 -45 25 -115 2 -124 -20 -8 -33 10 -33 47 0
15 -7 44 -15 64 -20 47 -19 55 6 51 13 -2 30 -18 40 -38z m226 0 c10 -12 9
-18 -4 -27 -27 -20 -41 -15 -48 17 -12 54 13 59 52 10z m-1336 9 c19 -10 19
-11 -8 -37 -27 -25 -62 -106 -52 -117 3 -2 21 0 40 6 42 13 89 -2 89 -28 0
-15 -9 -18 -58 -17 -37 0 -67 7 -85 18 -22 15 -43 17 -119 14 -51 -3 -101 -8
-110 -12 -11 -5 -18 -4 -18 3 0 6 8 11 19 11 16 0 18 8 17 78 l-1 77 28 3 c25
3 27 1 21 -22 -3 -15 -3 -46 0 -71 7 -42 9 -45 37 -45 27 0 29 3 29 39 0 72
10 101 36 101 20 0 22 -3 14 -30 -5 -16 -10 -46 -12 -67 -3 -35 -1 -38 22 -38
22 0 26 6 31 40 6 46 34 105 50 105 6 0 19 -5 30 -11z m-445 -17 c6 -4 14 -29
17 -57 7 -65 -19 -144 -48 -146 -17 -1 -17 -2 -2 -6 9 -2 17 -8 17 -13 0 -14
-29 -32 -42 -27 -8 4 -7 6 5 6 18 1 25 21 7 21 -17 0 -11 28 8 33 13 4 12 5
-4 6 -27 1 -31 13 -26 79 3 40 8 52 20 53 11 0 12 2 5 6 -24 9 -14 33 15 34
l27 1 -25 8 c-21 7 -21 8 -5 9 11 0 25 -3 31 -7z m1414 -59 c0 -8 -6 -13 -12
-11 -17 6 -38 49 -31 62 8 11 43 -30 43 -51z m555 -48 l0 -100 -40 -2 -40 -1
35 8 35 7 -42 2 c-47 1 -49 6 -45 91 4 72 9 80 50 81 l37 2 -40 7 -40 8 45 -2
45 -1 0 -100z m-1483 57 c4 -26 1 -28 -29 -28 -35 0 -39 6 -23 37 16 29 47 24
52 -9z m-575 -8 c-3 -3 -12 -4 -19 -1 -8 3 -5 6 6 6 11 1 17 -2 13 -5z m-4
-21 c-7 -2 -19 -2 -25 0 -7 3 -2 5 12 5 14 0 19 -2 13 -5z m1544 -15 c-3 -8
-6 -5 -6 6 -1 11 2 17 5 13 3 -3 4 -12 1 -19z m386 -10 c4 -12 5 -23 4 -24 -8
-6 -117 -11 -117 -6 0 4 7 18 16 30 22 32 89 32 97 0z m-386 -32 c-9 -7 -17
-18 -17 -25 0 -7 -21 -11 -55 -11 -48 0 -55 2 -55 20 0 22 2 22 78 20 35 -1
52 2 52 11 0 7 3 9 7 5 5 -4 0 -13 -10 -20z m239 -3 c25 -9 17 -101 -14 -163
l-27 -55 -53 1 c-57 2 -90 23 -117 75 -21 39 -29 115 -14 125 43 26 175 36
225 17z m-1598 -10 c2 -9 -8 -13 -32 -13 -34 0 -44 8 -29 24 11 11 56 2 61
-11z m128 -25 c-3 -13 -6 -26 -6 -30 0 -12 -50 -9 -50 3 0 5 5 7 10 4 6 -4 18
-1 26 6 14 12 14 14 -2 26 -17 12 -16 13 5 13 19 0 22 -4 17 -22z m87 15 c-7
-2 -21 -2 -30 0 -10 3 -4 5 12 5 17 0 24 -2 18 -5z m-148 -13 c-3 -5 -12 -10
-18 -10 -7 0 -6 4 3 10 19 12 23 12 15 0z m1852 -332 c-4 -189 -7 -367 -7
-395 0 -29 -4 -53 -10 -53 -5 0 -10 9 -10 20 0 29 -26 76 -45 84 -9 3 -35 6
-57 6 l-41 0 6 50 c4 30 1 68 -7 94 -12 40 -12 103 -1 162 5 23 59 44 113 44
17 0 33 4 37 9 6 11 -74 11 -90 1 -40 -27 -45 -21 -38 43 3 40 12 69 24 83 11
11 19 35 19 52 0 26 4 32 23 32 12 0 33 6 47 13 20 10 24 19 22 45 -3 31 3 52
15 52 3 0 3 -154 0 -342z m-2107 303 c0 -28 -25 -33 -26 -5 -1 15 4 24 12 24
8 0 14 -9 14 -19z m423 5 c8 3 18 1 21 -4 7 -12 -30 -23 -50 -15 -8 3 -14 12
-14 20 0 12 3 13 14 4 7 -6 20 -9 29 -5z m1535 -26 c-3 -24 -7 -25 -70 -28
-66 -3 -68 -2 -68 22 0 27 14 31 98 32 40 0 43 -2 40 -26z m-1737 0 c5 0 9 -9
9 -19 0 -16 -9 -20 -62 -23 -75 -5 -81 -3 -68 22 10 18 66 31 98 23 8 -2 18
-3 23 -3z m1827 -7 c-10 -2 -26 -2 -35 0 -10 3 -2 5 17 5 19 0 27 -2 18 -5z
m-2038 -29 c0 -8 10 -14 25 -14 26 0 36 -27 13 -34 -64 -20 -105 -11 -50 11
l27 11 -27 1 c-21 1 -28 6 -28 20 0 19 18 32 33 24 4 -2 7 -11 7 -19z m617 5
c13 -5 23 -11 23 -14 0 -3 -38 -5 -85 -5 -67 0 -85 3 -85 14 0 8 6 17 13 20
15 6 103 -3 134 -15z m913 12 c0 -5 3 -16 6 -25 5 -14 -5 -16 -75 -16 -72 0
-81 2 -81 18 0 10 3 22 7 25 10 11 143 8 143 -2z m477 -7 c-3 -3 -12 -4 -19
-1 -8 3 -5 6 6 6 11 1 17 -2 13 -5z m-1654 -45 c-8 -8 -16 -8 -30 0 -16 9 -14
10 12 11 21 0 26 -3 18 -11z m30 -26 c3 -5 -14 -8 -38 -8 -24 0 -41 3 -38 8 2
4 19 7 38 7 19 0 36 -3 38 -7z m1551 -8 c35 -6 37 -8 23 -22 -14 -14 -173 -45
-188 -37 -4 2 -4 15 -2 28 4 20 14 27 47 34 41 8 50 8 120 -3z m-1894 -23 c0
-20 -4 -23 -22 -18 -13 3 -31 6 -40 6 -10 0 -18 6 -18 14 0 16 21 24 58 22 16
0 22 -6 22 -24z m557 17 c71 -12 80 -27 31 -50 -42 -20 -178 -14 -178 7 0 24
-17 24 -44 -1 -28 -26 -70 -32 -96 -14 -11 8 -7 9 18 4 26 -5 40 -2 67 19 18
14 40 26 49 26 8 0 18 5 21 10 8 13 53 13 132 -1z m986 -6 c4 -2 7 -10 7 -17
0 -19 -210 -31 -221 -14 -14 22 8 31 83 38 67 6 112 4 131 -7z m-1329 -8 c12
-33 -3 -40 -84 -40 -82 0 -108 11 -97 39 9 23 172 23 181 1z m1396 -25 c5 0
22 -12 39 -26 27 -22 31 -32 31 -75 0 -28 -7 -64 -16 -81 -18 -35 -11 -126 11
-134 17 -7 124 48 149 75 26 29 40 26 33 -6 -3 -16 1 -39 8 -53 19 -34 19
-100 -1 -128 -14 -20 -14 -22 0 -22 9 0 16 -7 16 -15 0 -20 -36 -20 -44 0 -3
8 -10 15 -16 15 -6 0 -9 -4 -6 -9 7 -11 -77 -2 -129 14 -38 12 -36 12 40 9
l80 -3 -65 8 c-36 4 -74 12 -85 19 -16 9 -8 11 45 7 l65 -4 -70 10 c-60 9 -71
9 -81 -6 -28 -38 -111 -39 -143 -1 -21 26 -33 18 -15 -9 9 -14 30 -29 47 -33
21 -5 33 -16 38 -33 16 -62 35 -76 107 -82 37 -3 85 -10 107 -15 36 -8 38 -9
15 -15 -14 -4 -36 -8 -50 -11 -14 -2 -6 -4 18 -3 51 3 59 -20 10 -26 -18 -2
-14 -3 10 -2 52 3 53 -17 1 -26 l-34 -6 30 -2 c26 -2 27 -4 10 -11 -62 -26
-236 6 -309 57 -32 23 -45 41 -60 86 -14 40 -25 57 -37 57 -11 0 -22 13 -30
35 -13 34 -23 43 -32 28 -5 -9 18 -56 47 -97 14 -21 16 -29 6 -40 -36 -45
-138 74 -183 214 -41 128 -41 130 -12 130 14 0 40 7 56 16 25 13 33 13 46 2
14 -11 15 -10 9 8 -4 15 1 27 20 45 15 13 39 41 54 62 l28 38 11 -51 c13 -60
60 -157 90 -184 24 -22 119 -56 136 -50 7 3 17 22 24 44 10 33 9 43 -8 72 -24
40 -51 139 -51 186 0 27 3 33 16 28 9 -3 19 -6 24 -6z m-1592 -22 c15 -8 22
-20 22 -40 0 -28 -1 -28 -60 -28 -46 0 -60 3 -60 15 0 14 14 20 75 29 17 2 6
3 -22 2 -45 -3 -53 0 -53 15 0 30 44 33 98 7z m1526 -54 c9 -8 16 -19 16 -23
0 -14 -144 -30 -152 -17 -18 26 -8 45 25 49 69 8 96 6 111 -9z m-1025 0 c27
-6 30 -9 24 -33 -3 -14 -7 -27 -8 -29 -1 -1 -34 1 -74 4 -70 7 -71 7 -71 35 0
28 2 29 49 29 27 0 63 -3 80 -6z m1366 -5 c2 -3 2 -15 -2 -27 -5 -21 -10 -22
-82 -20 -70 3 -76 5 -79 25 -3 18 3 22 30 26 37 5 126 2 133 -4z m-1665 -19
c0 -11 -3 -20 -7 -21 -140 -11 -143 -11 -143 10 0 25 12 29 88 30 56 1 62 -1
62 -19z m-177 -20 c5 -18 0 -20 -59 -20 -57 0 -64 2 -64 20 0 18 7 20 59 20
50 0 59 -3 64 -20z m1158 -27 c12 -33 -11 -58 -44 -47 -25 9 -25 10 -11 42 15
38 42 40 55 5z m-1149 -21 c6 -6 9 -14 6 -17 -9 -9 -138 17 -138 28 0 13 118
3 132 -11z m758 -1 c0 -5 -9 -11 -20 -14 -22 -6 -29 18 -7 26 14 5 27 -1 27
-12z m774 -17 c28 -28 19 -42 -31 -49 -27 -4 -56 -9 -65 -11 -12 -4 -22 3 -30
20 -6 15 -9 29 -5 32 3 3 30 10 59 14 29 4 54 8 55 9 1 0 9 -6 17 -15z m-1561
-11 c28 -4 42 -13 53 -34 12 -25 12 -33 -2 -69 -9 -22 -14 -50 -10 -63 9 -34
-14 -127 -32 -127 -9 0 -24 -7 -34 -17 -12 -11 -18 -12 -18 -3 0 7 -7 10 -15
6 -9 -3 -15 0 -15 9 0 8 -4 15 -10 15 -5 0 -10 -4 -10 -10 0 -5 -4 -10 -10
-10 -6 0 -10 45 -10 115 0 63 4 115 9 115 4 0 6 12 3 26 -3 19 -1 25 7 20 6
-4 11 -2 11 3 0 6 -4 11 -10 11 -5 0 -10 7 -10 16 0 13 6 15 33 9 17 -3 49 -9
70 -12z m217 -8 c0 -26 -1 -26 -72 -23 -59 2 -73 6 -76 20 -4 19 17 25 96 27
49 1 52 0 52 -24z m278 10 c2 -2 -1 -12 -7 -23 -9 -18 -18 -20 -73 -15 -85 6
-91 9 -79 31 8 15 20 17 83 14 40 -2 74 -6 76 -7z m1302 -5 c13 -8 13 -11 -1
-26 -15 -14 -23 -14 -73 -3 -77 17 -76 39 2 39 31 0 64 -5 72 -10z m-723 -165
c18 -57 70 -147 108 -187 l26 -28 -30 0 c-16 0 -33 -4 -36 -10 -4 -6 6 -10 23
-10 32 0 82 -39 82 -65 0 -9 5 -13 10 -10 6 3 10 1 10 -6 0 -6 -8 -9 -20 -6
-11 3 -20 0 -20 -6 0 -7 -9 3 -20 21 -11 17 -24 32 -30 32 -13 0 -13 -13 1
-27 6 -6 9 -17 7 -24 -3 -9 -13 -5 -32 14 -31 31 -50 29 -21 -3 18 -20 11 -25
-19 -14 -9 3 -16 12 -16 20 0 17 -17 18 -23 2 -3 -7 -6 -4 -6 8 -1 11 6 29 14
40 19 26 19 94 -1 123 -43 60 -67 185 -47 238 6 14 9 11 16 -17 4 -19 15 -57
24 -85z m-829 63 c-3 -25 -29 -27 -80 -7 -44 18 -33 29 28 29 52 0 55 -1 52
-22z m192 16 c0 -16 -39 -33 -76 -34 -33 0 -43 4 -47 20 -5 18 0 20 59 20 35
0 64 -3 64 -6z m1250 -8 c0 -3 -4 -8 -10 -11 -5 -3 -10 -1 -10 4 0 6 5 11 10
11 6 0 10 -2 10 -4z m-900 -77 c-17 -69 -23 -56 -8 16 6 33 13 54 16 47 2 -7
-2 -35 -8 -63z m-325 1 c3 -5 -1 -10 -10 -10 -9 0 -13 5 -10 10 3 6 8 10 10
10 2 0 7 -4 10 -10z m55 -42 c-22 -55 -77 -136 -105 -154 -19 -12 -50 -17
-125 -18 -91 -1 -100 1 -100 17 0 11 -9 32 -21 48 -11 16 -16 29 -10 29 6 0
18 -11 27 -25 18 -28 34 -33 34 -10 0 8 5 15 10 15 6 0 10 -13 10 -30 0 -30 0
-30 58 -30 40 0 71 7 102 23 39 19 51 33 84 99 39 77 61 99 36 36z m311 -35
c-12 -20 -14 -14 -5 12 4 9 9 14 11 11 3 -2 0 -13 -6 -23z m-90 -60 c-38 -72
-90 -109 -171 -118 -8 0 -34 -13 -57 -28 -24 -15 -49 -27 -57 -27 -8 0 -17 -4
-20 -9 -7 -11 49 -5 148 15 38 7 71 13 72 11 1 -1 5 -12 8 -24 l7 -23 -163 1
c-98 0 -152 4 -137 9 59 17 162 75 199 111 22 21 43 53 49 71 6 22 10 26 10
12 1 -11 -6 -29 -14 -40 -19 -25 -19 -40 2 -48 25 -10 85 37 113 88 29 55 40
54 11 -1z m-565 -48 c13 -51 -27 -77 -54 -35 -14 22 -3 27 18 8 15 -14 -25 58
-47 83 -25 30 -13 30 32 -1 25 -17 48 -42 51 -55z m883 56 c24 -34 27 -89 6
-117 -16 -22 -20 -74 -5 -74 6 0 10 -4 10 -10 0 -6 -45 -10 -115 -10 -63 0
-115 3 -115 6 0 3 9 17 20 31 22 29 25 60 9 96 -9 20 -7 32 10 66 l21 41 70 0
c64 0 70 -2 89 -29z m914 -13 c19 -22 23 -103 7 -128 -8 -12 -10 -9 -10 13 0
34 -7 34 -41 1 -18 -17 -35 -24 -50 -22 -23 4 -23 5 -4 13 22 9 54 44 55 59 0
6 -16 -5 -35 -24 -19 -18 -37 -31 -41 -28 -7 8 14 49 35 66 14 12 14 13 -1 8
-10 -3 -25 -9 -33 -12 -10 -4 -15 0 -15 10 0 10 15 23 35 32 19 8 35 19 35 25
0 8 -4 8 -14 -1 -8 -6 -23 -10 -33 -9 -10 1 -31 -3 -46 -9 -16 -7 -37 -12 -49
-12 -11 0 -22 -8 -25 -20 -6 -23 -5 -22 -28 -14 -12 5 -7 13 26 37 30 22 57
32 103 37 77 10 106 5 129 -22z m-2067 -83 c1 -14 -2 -25 -7 -25 -5 0 -9 14
-9 32 0 36 12 31 16 -7z m1454 25 c0 -5 -5 -10 -11 -10 -5 0 -7 5 -4 10 3 6 8
10 11 10 2 0 4 -4 4 -10z m472 -10 c9 -21 10 -48 0 -34 -4 6 -15 13 -24 17
-10 3 -18 13 -18 21 0 18 33 15 42 -4z m-1863 -35 c0 -5 -4 -3 -9 5 -5 8 -9
22 -9 30 0 16 17 -16 18 -35z m1276 15 c3 -5 2 -10 -4 -10 -5 0 -13 5 -16 10
-3 6 -2 10 4 10 5 0 13 -4 16 -10z m782 -7 c0 -10 -6 -27 -13 -38 -18 -25 -18
-36 1 -29 10 4 15 0 15 -11 0 -15 -8 -16 -65 -10 -36 3 -77 10 -91 15 -40 16
-63 10 -26 -6 17 -8 32 -16 32 -18 0 -2 -36 -4 -81 -5 -53 -1 -78 2 -74 9 3 5
15 10 25 10 10 0 32 11 48 25 26 22 33 23 63 13 19 -6 42 -14 51 -19 35 -17
98 15 98 51 0 14 8 30 15 30 1 0 2 -8 2 -17z m-1979 -38 c-3 -3 -13 7 -23 22
l-17 28 23 -22 c12 -12 20 -25 17 -28z m1310 9 c95 -24 123 -35 115 -47 -3 -6
-1 -7 5 -3 14 8 62 -3 62 -15 0 -6 -59 -9 -135 -8 -132 1 -135 1 -124 21 6 11
9 31 6 44 -2 13 -2 24 0 24 3 0 35 -7 71 -16z m-1328 -29 c0 -8 6 -16 13 -18
9 -4 9 -6 0 -6 -12 -1 -43 37 -43 52 0 5 7 4 15 -3 8 -7 15 -18 15 -25z m187
19 c-3 -3 -12 -4 -19 -1 -8 3 -5 6 6 6 11 1 17 -2 13 -5z m556 -19 c-3 -9 -8
-14 -10 -11 -3 3 -2 9 2 15 9 16 15 13 8 -4z m43 -22 c-11 -11 -17 4 -9 23 7
18 8 18 11 1 2 -10 1 -21 -2 -24z m-666 7 c0 -11 -7 -20 -15 -20 -13 0 -14 4
-5 20 6 11 13 20 15 20 3 0 5 -9 5 -20z m70 10 c0 -5 -9 -10 -21 -10 -11 0
-17 5 -14 10 3 6 13 10 21 10 8 0 14 -4 14 -10z m-297 -27 c-7 -2 -19 -2 -25
0 -7 3 -2 5 12 5 14 0 19 -2 13 -5z m1071 -25 c558 0 1019 3 1026 7 14 9 3
-264 -12 -280 -11 -12 -1919 -13 -2040 -1 l-78 8 0 133 0 134 38 3 c20 2 40 2
45 0 4 -2 464 -4 1021 -4z"/>
<path d="M973 3743 c22 -4 33 -14 48 -46 27 -60 25 -67 -21 -67 -22 0 -40 -4
-40 -10 0 -6 60 -10 160 -10 100 0 160 4 160 10 0 6 -11 10 -25 10 -23 0 -25
3 -25 50 0 46 2 50 24 50 14 0 28 5 31 10 4 7 -54 9 -167 9 -95 -1 -160 -4
-145 -6z m117 -22 c0 -5 -5 -22 -11 -38 -11 -30 -19 -24 -33 25 -6 19 -4 22
18 22 14 0 26 -4 26 -9z m110 -41 c0 -43 -3 -50 -20 -50 -17 0 -20 7 -20 50 0
43 3 50 20 50 17 0 20 -7 20 -50z m-74 -47 c-2 -2 -13 -3 -24 -1 -19 3 -19 4
2 48 l20 45 4 -44 c2 -23 1 -45 -2 -48z"/>
<path d="M1935 2260 c4 -6 11 -8 16 -5 14 9 11 15 -7 15 -8 0 -12 -5 -9 -10z"/>
<path d="M193 2170 c0 -30 2 -43 4 -27 2 15 2 39 0 55 -2 15 -4 2 -4 -28z"/>
<path d="M1952 2176 c2 -10 14 -23 28 -28 21 -8 23 -7 10 4 -8 7 -20 20 -27
28 -12 13 -13 13 -11 -4z"/>
<path d="M1848 2163 c7 -3 16 -2 19 1 4 3 -2 6 -13 5 -11 0 -14 -3 -6 -6z"/>
<path d="M128 2085 c2 -14 6 -25 8 -25 2 0 4 11 4 25 0 14 -4 25 -9 25 -4 0
-6 -11 -3 -25z"/>
<path d="M1872 2088 c-5 -7 -6 -22 -2 -33 6 -17 8 -15 12 13 5 36 5 37 -10 20z"/>
<path d="M191 2054 c0 -11 3 -14 6 -6 3 7 2 16 -1 19 -3 4 -6 -2 -5 -13z"/>
<path d="M180 1961 c0 -6 5 -13 10 -16 6 -3 10 1 10 9 0 9 -4 16 -10 16 -5 0
-10 -4 -10 -9z"/>
<path d="M450 3550 c0 -5 5 -10 11 -10 5 0 7 5 4 10 -3 6 -8 10 -11 10 -2 0
-4 -4 -4 -10z"/>
<path d="M768 3553 c7 -3 16 -2 19 1 4 3 -2 6 -13 5 -11 0 -14 -3 -6 -6z"/>
<path d="M825 3550 c-3 -5 -1 -10 4 -10 6 0 11 5 11 10 0 6 -2 10 -4 10 -3 0
-8 -4 -11 -10z"/>
<path d="M805 3527 c3 -10 5 -24 5 -31 0 -7 11 -18 24 -24 19 -8 27 -8 36 3 9
11 7 13 -7 9 -22 -5 -35 4 -51 36 -7 14 -10 17 -7 7z"/>
<path d="M980 3530 c0 -5 12 -10 28 -9 24 0 25 1 7 9 -27 12 -35 12 -35 0z"/>
<path d="M679 3498 c-1 -7 -1 -16 0 -20 0 -4 -12 -6 -29 -4 -16 2 -27 -1 -24
-5 3 -5 13 -9 22 -9 12 0 13 -3 4 -12 -8 -8 -15 -8 -29 3 -16 13 -17 12 -4 -3
13 -18 8 -23 -20 -20 -3 1 -6 -5 -6 -13 0 -15 26 -29 35 -20 3 3 0 5 -6 5 -7
0 -12 4 -12 10 0 5 8 9 18 8 34 -3 53 2 47 12 -3 6 -1 10 5 10 6 0 8 5 5 10
-11 17 16 11 33 -8 10 -9 14 -13 10 -8 -4 5 3 17 15 27 l22 18 -22 1 c-13 0
-23 5 -23 10 0 6 12 8 28 5 26 -5 26 -5 3 5 -17 7 -28 7 -38 -2 -12 -10 -11
-14 9 -24 14 -8 17 -13 8 -13 -8 0 -23 5 -32 13 -13 10 -15 15 -6 24 9 9 9 12
0 12 -7 0 -13 -6 -13 -12z"/>
<path d="M557 3453 c-11 -11 -8 -20 8 -20 8 0 16 6 19 14 5 13 -15 18 -27 6z"/>
<path d="M565 3390 c-3 -5 -1 -10 4 -10 6 0 11 5 11 10 0 6 -2 10 -4 10 -3 0
-8 -4 -11 -10z"/>
<path d="M1580 3561 c0 -5 7 -11 14 -14 10 -4 13 -1 9 9 -6 15 -23 19 -23 5z"/>
<path d="M1359 3547 c-15 -11 -15 -15 -2 -32 14 -20 15 -20 12 0 -2 11 0 26 4
33 10 15 7 15 -14 -1z"/>
<path d="M1445 3540 c3 -5 13 -10 21 -10 8 0 12 5 9 10 -3 6 -13 10 -21 10 -8
0 -12 -4 -9 -10z"/>
<path d="M1664 3529 c0 -10 4 -19 8 -19 4 0 8 6 8 14 0 8 -4 17 -8 20 -4 2 -8
-4 -8 -15z"/>
<path d="M1387 3520 c-3 -12 0 -20 7 -20 6 0 12 9 13 20 1 11 -2 20 -6 20 -5
0 -11 -9 -14 -20z"/>
<path d="M1468 3513 c7 -3 16 -2 19 1 4 3 -2 6 -13 5 -11 0 -14 -3 -6 -6z"/>
<path d="M1693 3509 c3 -9 0 -22 -6 -28 -8 -8 -8 -11 1 -11 19 0 27 30 12 43
-10 9 -12 9 -7 -4z"/>
<path d="M1440 3489 c0 -8 57 -6 65 3 4 3 -10 6 -29 5 -20 -1 -36 -4 -36 -8z"/>
<path d="M1660 3489 c0 -5 5 -7 10 -4 6 3 10 8 10 11 0 2 -4 4 -10 4 -5 0 -10
-5 -10 -11z"/>
<path d="M1325 3159 c-4 -6 -5 -12 -2 -15 2 -3 7 2 10 11 7 17 1 20 -8 4z"/>
<path d="M1360 3040 c-24 -15 -7 -18 20 -3 14 7 18 13 10 13 -8 0 -22 -4 -30
-10z"/>
<path d="M1361 2994 c0 -11 3 -14 6 -6 3 7 2 16 -1 19 -3 4 -6 -2 -5 -13z"/>
<path d="M1385 2990 c-3 -5 1 -10 10 -10 9 0 13 5 10 10 -3 6 -8 10 -10 10 -2
0 -7 -4 -10 -10z"/>
<path d="M470 3270 c0 -5 5 -10 11 -10 5 0 7 5 4 10 -3 6 -8 10 -11 10 -2 0
-4 -4 -4 -10z"/>
<path d="M755 2870 c3 -5 8 -10 11 -10 2 0 4 5 4 10 0 6 -5 10 -11 10 -5 0 -7
-4 -4 -10z"/>
<path d="M829 3227 c-1 -1 -3 -12 -4 -24 -2 -24 18 -32 30 -13 5 8 11 7 21 -1
8 -7 14 -7 14 -1 0 14 -55 50 -61 39z"/>
<path d="M1034 3152 c3 -6 -3 -13 -14 -17 -11 -4 -18 -11 -15 -16 10 -15 61
-10 75 6 15 19 13 21 -24 31 -20 5 -27 3 -22 -4z"/>
<path d="M1065 3009 c8 -12 75 -12 75 0 0 5 -18 9 -40 9 -23 1 -38 -3 -35 -9z"/>
<path d="M1098 2983 c7 -3 16 -2 19 1 4 3 -2 6 -13 5 -11 0 -14 -3 -6 -6z"/>
<path d="M633 2435 c-3 -9 -3 -18 -1 -21 3 -3 8 4 11 16 6 23 -1 27 -10 5z"/>
<path d="M696 2402 c-14 -28 -28 -70 -31 -94 l-5 -43 10 38 c6 21 21 62 35 90
31 67 24 74 -9 9z"/>
<path d="M593 2400 c0 -25 2 -35 4 -22 2 12 2 32 0 45 -2 12 -4 2 -4 -23z"/>
<path d="M561 2400 c0 -8 4 -22 9 -30 12 -18 12 -2 0 25 -6 13 -9 15 -9 5z"/>
<path d="M517 2310 c6 -40 23 -65 23 -34 -1 10 -7 30 -15 44 -14 25 -14 25 -8
-10z"/>
<path d="M680 2210 c0 -5 5 -10 11 -10 5 0 7 5 4 10 -3 6 -8 10 -11 10 -2 0
-4 -4 -4 -10z"/>
<path d="M620 2140 c20 -13 33 -13 25 0 -3 6 -14 10 -23 10 -15 0 -15 -2 -2
-10z"/>
<path d="M1091 2833 c-1 -12 -7 -24 -13 -26 -7 -3 1 -6 18 -6 20 -1 34 5 38
14 3 10 -1 15 -13 15 -11 0 -22 6 -24 13 -3 6 -6 2 -6 -10z"/>
<path d="M1208 2633 c7 -3 16 -2 19 1 4 3 -2 6 -13 5 -11 0 -14 -3 -6 -6z"/>
<path d="M940 2616 c0 -2 9 -6 20 -9 11 -3 18 -1 14 4 -5 9 -34 13 -34 5z"/>
<path d="M1200 2601 c0 -5 9 -7 20 -4 11 3 20 7 20 9 0 2 -9 4 -20 4 -11 0
-20 -4 -20 -9z"/>
<path d="M983 2583 c9 -2 23 -2 30 0 6 3 -1 5 -18 5 -16 0 -22 -2 -12 -5z"/>
<path d="M914 2569 c-3 -5 9 -9 25 -9 17 0 31 2 31 4 0 8 -51 13 -56 5z"/>
<path d="M1213 2573 c9 -2 23 -2 30 0 6 3 -1 5 -18 5 -16 0 -22 -2 -12 -5z"/>
<path d="M1210 2546 c0 -2 11 -6 25 -8 14 -3 25 -1 25 3 0 5 -11 9 -25 9 -14
0 -25 -2 -25 -4z"/>
<path d="M928 2533 c7 -3 16 -2 19 1 4 3 -2 6 -13 5 -11 0 -14 -3 -6 -6z"/>
<path d="M945 2435 c-16 -7 -23 -14 -15 -14 8 0 29 6 45 14 17 7 23 14 15 14
-8 0 -28 -6 -45 -14z"/>
<path d="M816 2204 c-9 -25 6 -36 45 -32 26 2 34 8 34 23 0 27 -69 35 -79 9z
m58 -10 c6 -14 4 -15 -10 -4 -13 12 -17 11 -25 -1 -5 -8 -9 -9 -9 -3 0 27 34
33 44 8z"/>
<path d="M926 2203 c-9 -23 3 -32 57 -39 40 -6 47 -4 47 10 0 16 -19 27 -71
39 -20 5 -29 2 -33 -10z m57 -10 c-7 -2 -21 -2 -30 0 -10 3 -4 5 12 5 17 0 24
-2 18 -5z m20 -20 c-7 -2 -19 -2 -25 0 -7 3 -2 5 12 5 14 0 19 -2 13 -5z"/>
<path d="M1070 2161 c-8 -15 -5 -20 13 -25 59 -16 83 13 27 32 -25 9 -31 8
-40 -7z"/>
<path d="M1187 2143 c-16 -15 -4 -32 33 -47 47 -19 50 -19 50 -7 0 5 -16 15
-35 22 -19 7 -35 16 -35 20 0 5 16 1 36 -7 20 -8 39 -13 41 -10 5 5 -16 15
-63 30 -11 3 -23 3 -27 -1z"/>
<path d="M1313 2085 c-3 -9 -4 -17 -2 -19 25 -18 79 -43 83 -39 3 4 6 16 6 29
0 16 -9 25 -31 33 -42 14 -49 14 -56 -4z m57 -20 c0 -8 -4 -15 -10 -15 -5 0
-7 7 -4 15 4 8 8 15 10 15 2 0 4 -7 4 -15z"/>
<path d="M1115 2330 c3 -5 13 -10 21 -10 8 0 14 5 14 10 0 6 -9 10 -21 10 -11
0 -17 -4 -14 -10z"/>
<path d="M1938 1963 c7 -3 16 -2 19 1 4 3 -2 6 -13 5 -11 0 -14 -3 -6 -6z"/>
<path d="M100 1930 c0 -5 5 -10 10 -10 6 0 10 5 10 10 0 6 -4 10 -10 10 -5 0
-10 -4 -10 -10z"/>
<path d="M90 1810 c0 -5 7 -10 16 -10 8 0 12 5 9 10 -3 6 -10 10 -16 10 -5 0
-9 -4 -9 -10z"/>
<path d="M378 1547 c-5 -10 -8 -37 -7 -60 l1 -42 9 34 c12 40 9 97 -3 68z"/>
<path d="M347 1526 c-4 -15 -6 -31 -2 -34 10 -10 16 6 13 35 l-3 28 -8 -29z"/>
<path d="M1854 1635 c0 -77 2 -107 3 -67 2 40 2 103 0 140 -2 37 -3 4 -3 -73z"/>
<path d="M1873 1585 c0 -27 2 -38 4 -22 2 15 2 37 0 50 -2 12 -4 0 -4 -28z"/>
<path d="M1997 1463 c-2 -5 0 -21 4 -38 7 -29 7 -29 8 8 1 35 -3 46 -12 30z"/>
<path d="M1400 1785 c0 -8 4 -15 10 -15 5 0 7 7 4 15 -4 8 -8 15 -10 15 -2 0
-4 -7 -4 -15z"/>
<path d="M1502 1780 c0 -14 2 -19 5 -12 2 6 2 18 0 25 -3 6 -5 1 -5 -13z"/>
<path d="M1100 1780 c0 -5 5 -10 10 -10 6 0 10 5 10 10 0 6 -4 10 -10 10 -5 0
-10 -4 -10 -10z"/>
<path d="M1130 1770 c0 -11 5 -20 10 -20 6 0 10 9 10 20 0 11 -4 20 -10 20 -5
0 -10 -9 -10 -20z"/>
<path d="M1630 1738 c0 -62 5 -60 14 5 5 31 4 47 -3 47 -7 0 -11 -22 -11 -52z"/>
<path d="M1040 1770 c0 -5 5 -10 10 -10 6 0 10 5 10 10 0 6 -4 10 -10 10 -5 0
-10 -4 -10 -10z"/>
<path d="M555 1747 c-4 -10 -5 -21 -1 -24 10 -10 18 4 13 24 -4 17 -4 17 -12
0z"/>
<path d="M624 1664 c3 -9 6 -17 6 -20 0 -2 7 -1 15 2 12 5 12 8 0 20 -18 19
-29 18 -21 -2z"/>
<path d="M888 1648 c-38 -12 -68 -25 -68 -30 0 -5 9 -4 19 2 28 14 38 13 45
-7 8 -21 -18 -43 -48 -43 -16 1 -13 5 14 20 42 23 27 26 -24 5 -20 -8 -36 -11
-36 -6 0 5 6 11 13 14 6 2 10 7 7 10 -8 8 -125 -35 -201 -73 -48 -25 -58 -34
-49 -44 8 -10 21 -12 47 -6 22 6 44 5 56 -1 13 -8 27 -7 46 0 32 14 95 17 171
9 54 -6 76 -22 46 -34 -13 -5 -16 -22 -16 -84 0 -87 7 -114 40 -148 20 -21 21
-30 17 -105 -6 -82 -4 -86 8 -14 3 21 10 35 16 32 5 -4 9 6 9 22 0 22 -2 25
-10 13 -8 -13 -10 -12 -10 3 0 21 3 21 41 1 17 -8 35 -28 40 -43 11 -32 52
-55 80 -46 11 4 28 23 39 44 13 26 34 45 67 62 57 30 76 72 87 187 l6 72 -32
0 c-32 0 -32 0 -10 16 26 18 35 19 131 5 50 -7 78 -8 86 -1 7 6 19 8 28 4 8
-3 18 -1 21 5 4 6 20 8 35 5 16 -3 39 -1 51 6 21 11 20 13 -32 34 -30 13 -88
41 -129 63 -72 39 -164 73 -200 73 -10 0 -34 -14 -54 -31 -35 -31 -36 -31 -69
-15 -27 13 -40 14 -66 5 -27 -10 -36 -9 -61 10 -41 31 -75 33 -151 9z m135
-24 c21 -14 35 -29 31 -32 -4 -4 -9 -2 -11 5 -2 7 -11 9 -20 6 -9 -4 -21 1
-28 10 -9 13 -19 15 -43 8 -30 -9 -42 -6 -42 10 0 7 25 14 60 18 9 0 33 -11
53 -25z m322 16 c15 -6 6 -9 -32 -9 -42 -1 -51 -4 -47 -16 4 -10 0 -15 -15
-15 -12 0 -21 -4 -21 -10 0 -5 -7 -10 -15 -10 -8 0 -15 5 -15 10 0 6 5 10 10
10 6 0 20 11 32 25 23 26 63 32 103 15z m76 -26 c17 -8 28 -18 26 -21 -9 -9
-78 18 -72 28 8 12 11 12 46 -7z m-261 -14 c24 -24 24 -29 4 -58 -17 -24 -56
-29 -71 -9 -21 27 -22 48 -3 67 25 25 45 25 70 0z m240 -15 c45 -24 17 -33
-35 -11 -43 18 -84 21 -47 4 33 -16 27 -28 -10 -17 -51 14 -65 12 -42 -7 18
-15 17 -15 -13 -10 -19 3 -33 1 -33 -4 0 -6 -7 -10 -15 -10 -21 0 -19 19 3 26
9 3 24 10 32 15 8 5 25 13 38 19 12 5 22 14 22 19 0 12 57 -2 100 -24z m-430
15 c0 -12 -34 -30 -57 -30 -16 1 -15 3 6 20 25 21 51 26 51 10z m-226 -47
c-23 -17 -153 -57 -161 -50 -6 6 83 53 137 72 40 14 55 0 24 -22z m276 29 c0
-12 -49 -37 -56 -29 -11 10 17 37 37 37 11 0 19 -4 19 -8z m535 -37 c60 -29
66 -34 40 -34 -50 0 -139 33 -143 52 -5 26 24 21 103 -18z m-675 20 c0 -7 -77
-45 -92 -45 -27 0 34 34 90 49 1 1 2 -1 2 -4z m173 -10 c7 -16 -8 -29 -23 -20
-10 6 -2 35 10 35 4 0 10 -7 13 -15z m-288 -19 c-29 -24 -73 -41 -81 -33 -5 5
86 55 101 56 6 1 -3 -10 -20 -23z m165 16 c0 -4 -6 -14 -12 -21 -11 -11 -9
-11 9 -2 12 6 24 7 27 2 3 -5 -8 -14 -25 -21 -25 -11 -32 -11 -39 0 -4 7 -17
10 -29 7 -35 -9 -23 9 17 26 44 18 52 19 52 9z m519 -38 c25 -13 38 -23 28
-23 -15 -1 -117 46 -117 54 0 7 45 -9 89 -31z m-86 11 c37 -15 57 -35 36 -35
-12 0 -79 39 -79 46 0 6 5 5 43 -11z m-373 -15 c-6 -11 -15 -20 -20 -20 -14 0
-12 6 6 24 21 22 27 20 14 -4z m328 10 c1 0 2 -5 2 -10 0 -11 -44 -4 -70 12
-12 7 13 7 68 -2z m-291 -37 c-3 -3 -11 -2 -17 2 -8 5 -7 11 2 22 12 15 13 14
16 -1 2 -10 1 -20 -1 -23z m43 33 c0 -3 -4 -8 -10 -11 -5 -3 -10 -1 -10 4 0 6
5 11 10 11 6 0 10 -2 10 -4z m455 -6 c19 -8 19 -9 -2 -9 -12 -1 -25 4 -28 9
-7 12 2 12 30 0z m-315 -10 c8 -5 12 -11 10 -14 -3 -2 -14 2 -24 10 -22 15
-10 19 14 4z m-64 -29 c15 -12 49 -21 95 -25 l72 -7 -7 -71 c-9 -96 -27 -130
-86 -162 -38 -21 -52 -35 -58 -59 -7 -27 -13 -32 -38 -32 -23 0 -32 6 -43 31
-8 19 -32 42 -63 60 -71 41 -88 69 -89 145 -2 104 -8 96 76 101 54 2 80 8 92
21 21 21 20 21 49 -2z"/>
<path d="M1094 1415 c-3 -8 -21 -23 -40 -34 -46 -27 -46 -61 0 -96 22 -16 36
-37 38 -53 2 -21 8 -27 28 -27 21 0 26 5 28 33 2 17 7 32 13 32 20 0 49 41 49
71 0 24 -6 32 -29 40 -16 6 -31 19 -34 30 -6 22 -45 26 -53 4z m36 -35 c0 -33
-15 -41 -22 -12 -6 21 1 42 13 42 5 0 9 -13 9 -30z m-40 -26 c0 -9 11 -14 30
-14 21 0 30 5 30 16 0 9 7 14 18 12 9 -2 17 -10 17 -18 0 -12 -14 -15 -67 -15
-73 0 -93 9 -64 30 21 16 36 11 36 -11z m100 -44 c0 -32 -107 -37 -138 -6 -14
13 -7 15 61 15 43 0 77 -4 77 -9z m-57 -52 c5 -17 -3 -48 -13 -48 -10 0 -21
41 -14 52 8 12 22 10 27 -4z"/>
<path d="M552 1555 c0 -16 2 -22 5 -12 2 9 2 23 0 30 -3 6 -5 -1 -5 -18z"/>
<path d="M520 1491 c0 -25 6 -27 13 -6 4 8 2 17 -3 20 -6 4 -10 -3 -10 -14z"/>
<path d="M815 1400 c-3 -5 -1 -10 4 -10 6 0 11 5 11 10 0 6 -2 10 -4 10 -3 0
-8 -4 -11 -10z"/>
<path d="M1440 1327 c0 -20 4 -38 9 -42 6 -3 7 10 4 32 -8 50 -13 55 -13 10z"/>
<path d="M830 1339 c0 -5 5 -7 10 -4 6 3 10 8 10 11 0 2 -4 4 -10 4 -5 0 -10
-5 -10 -11z"/>
<path d="M751 1284 c0 -11 3 -14 6 -6 3 7 2 16 -1 19 -3 4 -6 -2 -5 -13z"/>
<path d="M783 1225 c0 -44 2 -61 4 -37 2 23 2 59 0 80 -2 20 -4 1 -4 -43z"/>
<path d="M1410 1241 c0 -5 5 -13 10 -16 6 -3 10 -2 10 4 0 5 -4 13 -10 16 -5
3 -10 2 -10 -4z"/>
<path d="M827 1173 c-9 -91 -9 -163 1 -163 4 0 8 52 10 115 1 63 0 115 -2 115
-2 0 -6 -30 -9 -67z"/>
<path d="M798 1164 c-1 -36 0 -71 4 -77 3 -6 8 24 10 66 1 43 0 77 -4 77 -3 0
-8 -30 -10 -66z"/>
<path d="M1352 1195 c-1 -11 -5 -38 -8 -60 -5 -31 -4 -37 5 -29 8 7 11 30 8
60 -2 27 -4 40 -5 29z"/>
<path d="M1376 1154 c-8 -63 -8 -124 2 -124 4 0 8 38 10 85 1 47 1 85 -1 85
-3 0 -7 -21 -11 -46z"/>
<path d="M862 1150 c0 -14 2 -19 5 -12 2 6 2 18 0 25 -3 6 -5 1 -5 -13z"/>
<path d="M1021 1154 c0 -11 3 -14 6 -6 3 7 2 16 -1 19 -3 4 -6 -2 -5 -13z"/>
<path d="M1028 1063 c7 -3 16 -2 19 1 4 3 -2 6 -13 5 -11 0 -14 -3 -6 -6z"/>
<path d="M1167 983 c-4 -3 -7 -11 -7 -17 0 -6 5 -5 12 2 6 6 9 14 7 17 -3 3
-9 2 -12 -2z"/>
<path d="M1390 968 c0 -19 2 -20 10 -8 13 19 13 30 0 30 -5 0 -10 -10 -10 -22z"/>
<path d="M1082 830 c0 -14 2 -19 5 -12 2 6 2 18 0 25 -3 6 -5 1 -5 -13z"/>
<path d="M1098 742 c-5 -103 4 -161 13 -77 l6 60 1 -69 c3 -105 15 -70 17 46
1 57 -1 92 -5 78 -3 -15 -9 -20 -13 -13 -4 6 -4 18 -1 26 3 8 1 18 -4 21 -6 3
-11 -26 -14 -72z"/>
<path d="M1770 1650 c0 -6 7 -13 15 -17 24 -9 27 1 5 15 -13 8 -20 8 -20 2z"/>
<path d="M147 1657 c-3 -9 -2 -19 4 -23 15 -9 18 -2 9 20 -6 17 -7 18 -13 3z"/>
<path d="M54 1469 c-3 -5 6 -9 20 -9 31 0 34 6 6 13 -11 3 -23 1 -26 -4z"/>
<path d="M110 1476 c0 -2 7 -6 15 -10 8 -3 15 -1 15 4 0 6 -7 10 -15 10 -8 0
-15 -2 -15 -4z"/>
<path d="M2128 1483 c7 -3 16 -2 19 1 4 3 -2 6 -13 5 -11 0 -14 -3 -6 -6z"/>
<path d="M1655 1240 c-17 -7 -17 -9 -2 -9 9 -1 17 -6 17 -12 0 -8 11 -9 32 -5
39 8 47 15 28 26 -18 12 -48 12 -75 0z"/>
<path d="M1782 1237 c-7 -7 -7 -25 -2 -47 4 -19 8 -27 9 -17 1 12 10 17 34 18
30 1 31 1 7 9 -22 7 -12 15 15 11 6 -1 2 5 -8 13 -18 14 -18 14 0 19 10 3 5 5
-13 6 -17 0 -36 -5 -42 -12z"/>
<path d="M1688 1193 c6 -2 18 -2 25 0 6 3 1 5 -13 5 -14 0 -19 -2 -12 -5z"/>
<path d="M1750 1128 c0 -11 28 -10 35 1 3 6 -4 9 -15 8 -11 -1 -20 -5 -20 -9z"/>
<path d="M1719 1099 c-9 -6 2 -9 38 -7 29 1 50 4 47 7 -9 10 -70 10 -85 0z"/>
<path d="M1758 1073 c7 -3 16 -2 19 1 4 3 -2 6 -13 5 -11 0 -14 -3 -6 -6z"/>
<path d="M2088 1113 c7 -3 16 -2 19 1 4 3 -2 6 -13 5 -11 0 -14 -3 -6 -6z"/>
<path d="M2100 1071 c8 -6 28 -11 44 -11 39 0 31 6 -19 14 -29 5 -36 4 -25 -3z"/>
<path d="M2073 1032 c-7 -4 13 -9 44 -10 31 -1 55 0 52 3 -10 9 -84 15 -96 7z"/>
<path d="M2054 988 c-3 -4 21 -7 53 -7 60 1 56 5 -10 11 -21 2 -40 0 -43 -4z"/>
<path d="M2113 943 c9 -2 25 -2 35 0 9 3 1 5 -18 5 -19 0 -27 -2 -17 -5z"/>
<path d="M2106 805 c19 -14 18 -14 -3 -15 -13 0 -23 -4 -23 -10 0 -5 -7 -10
-15 -10 -16 0 -17 -40 -1 -52 6 -4 4 -13 -3 -22 -11 -13 -11 -16 3 -16 13 0
16 -11 16 -51 0 -34 3 -48 11 -43 7 4 10 24 6 53 -6 55 -1 71 21 72 14 0 13 2
-3 9 -17 8 -16 9 10 11 28 2 28 2 5 7 -23 4 -24 5 -5 12 19 8 19 8 -5 18 l-25
9 23 7 c26 9 29 21 6 30 -28 11 -38 6 -18 -9z"/>
<path d="M1748 663 c7 -3 16 -2 19 1 4 3 -2 6 -13 5 -11 0 -14 -3 -6 -6z"/>
<path d="M1645 650 c-3 -5 -1 -10 4 -10 6 0 11 5 11 10 0 6 -2 10 -4 10 -3 0
-8 -4 -11 -10z"/>
<path d="M1790 650 c8 -5 24 -9 35 -9 l20 0 -20 9 c-11 5 -27 9 -35 9 -13 1
-13 0 0 -9z"/>
<path d="M40 678 c0 -11 12 -10 30 2 12 7 10 9 -8 7 -12 0 -22 -5 -22 -9z"/>
<path d="M1100 360 c0 -5 5 -10 10 -10 6 0 10 5 10 10 0 6 -4 10 -10 10 -5 0
-10 -4 -10 -10z"/>
<path d="M1058 353 c7 -3 16 -2 19 1 4 3 -2 6 -13 5 -11 0 -14 -3 -6 -6z"/>
<path d="M1138 343 c7 -3 16 -2 19 1 4 3 -2 6 -13 5 -11 0 -14 -3 -6 -6z"/>
<path d="M1470 370 c0 -6 7 -10 15 -10 8 0 15 2 15 4 0 2 -7 6 -15 10 -8 3
-15 1 -15 -4z"/>
<path d="M130 240 c0 -23 12 -25 40 -8 10 7 22 10 25 6 11 -11 7 -120 -5 -128
-17 -11 15 -21 37 -12 15 6 18 19 18 72 0 55 3 65 18 68 10 2 25 -5 33 -15 14
-17 14 -17 12 7 -3 24 -5 25 -90 28 -83 3 -88 2 -88 -18z"/>
<path d="M335 180 l0 -80 35 0 c26 0 31 3 22 12 -13 13 -17 58 -4 59 4 0 20 2
35 4 28 4 29 3 25 -36 -3 -36 -2 -39 22 -39 25 0 25 0 22 80 -3 71 -6 80 -23
80 -14 0 -19 -7 -19 -29 0 -36 -12 -45 -47 -36 -22 5 -25 10 -19 35 5 27 3 30
-22 30 l-27 0 0 -80z"/>
<path d="M520 211 c0 -27 -3 -63 -6 -80 l-6 -31 60 0 c41 0 63 5 72 15 18 22
4 31 -18 12 -10 -10 -31 -17 -45 -17 -24 0 -27 4 -27 35 0 24 5 35 15 35 8 0
15 -4 15 -10 0 -5 5 -10 10 -10 6 0 10 11 10 25 0 22 -3 25 -25 19 -21 -5 -25
-3 -25 16 0 21 4 22 40 17 22 -3 40 -2 40 3 0 12 -28 20 -71 20 l-39 0 0 -49z"/>
<path d="M886 228 c-36 -33 -42 -68 -16 -101 18 -23 29 -27 70 -27 27 0 52 5
56 11 5 9 -1 10 -21 5 -62 -16 -104 56 -59 101 29 29 40 29 48 1 4 -17 8 -20
17 -11 6 6 9 19 6 27 -10 25 -71 20 -101 -6z"/>
<path d="M1035 170 c0 -80 0 -80 26 -80 26 0 26 2 21 46 l-5 45 34 -3 c32 -3
34 -5 37 -45 3 -37 6 -43 25 -43 21 0 22 4 22 80 0 79 0 80 -26 80 -23 0 -25
-3 -21 -30 4 -29 3 -30 -33 -30 -36 0 -37 1 -31 30 5 27 3 30 -22 30 l-27 0 0
-80z"/>
<path d="M1260 241 c0 -5 5 -11 10 -13 11 -3 -15 -94 -31 -112 -14 -16 -10
-26 9 -26 14 0 19 8 20 30 1 41 9 50 44 50 30 0 31 -1 25 -40 -5 -36 -3 -40
17 -40 21 0 21 3 18 73 -3 39 -9 75 -16 79 -16 11 -96 10 -96 -1z m76 -26 c8
-21 -3 -34 -26 -28 -16 4 -18 9 -9 24 12 23 27 25 35 4z"/>
<path d="M1413 170 c-3 -79 -3 -80 22 -80 22 0 24 3 15 25 -10 26 -4 55 11 55
6 0 19 -15 30 -34 19 -32 46 -52 57 -42 2 3 -5 17 -17 32 -25 31 -27 50 -6 58
20 7 19 52 -1 60 -9 3 -37 6 -62 6 l-47 0 -2 -80z m92 40 c0 -20 -5 -25 -25
-25 -20 0 -26 6 -28 28 -3 26 -1 28 25 25 22 -2 28 -8 28 -28z"/>
<path d="M1592 213 c6 -21 8 -57 5 -80 -4 -43 -4 -43 27 -43 21 0 27 3 17 9
-10 6 -12 27 -9 80 l4 71 -27 0 c-27 0 -27 -1 -17 -37z"/>
<path d="M1712 243 c-17 -6 -42 -57 -42 -83 0 -31 44 -70 79 -70 20 0 37 9 55
31 30 35 30 35 15 78 -16 44 -60 63 -107 44z m79 -61 c7 -54 -7 -75 -46 -70
-28 3 -30 7 -33 47 -5 62 2 73 40 69 31 -3 33 -6 39 -46z"/>
<path d="M1850 237 c0 -21 12 -28 27 -15 20 16 27 3 30 -52 2 -34 -2 -53 -13
-64 -14 -15 -12 -16 26 -16 29 0 39 3 34 12 -8 12 -6 119 2 127 3 3 13 0 24
-7 20 -12 36 -1 25 18 -10 16 -155 13 -155 -3z"/>
<path d="M2010 115 c0 -11 7 -15 23 -13 12 2 22 8 22 13 0 6 -10 11 -22 13
-16 2 -23 -2 -23 -13z"/>
</g>
</svg>
