<?xml version="1.0" standalone="no"?>
<!DOCTYPE svg PUBLIC "-//W3C//DTD SVG 20010904//EN"
 "http://www.w3.org/TR/2001/REC-SVG-20010904/DTD/svg10.dtd">
<svg version="1.0" xmlns="http://www.w3.org/2000/svg"
 width="215.000000pt" height="380.000000pt" viewBox="0 0 215.000000 380.000000"
 preserveAspectRatio="xMidYMid meet">
<metadata>
Created by potrace 1.16, written by Peter Selinger 2001-2019
</metadata>
<g transform="translate(0.000000,380.000000) scale(0.100000,-0.100000)"
fill="#000000" stroke="none">
<path d="M15 3791 c-14 -24 -4 -3748 11 -3772 8 -14 2106 7 2114 21 3 5 5 74
3 152 -1 79 -3 865 -5 1748 -1 883 -4 1662 -6 1733 l-3 127 -1054 0 c-632 0
-1056 -4 -1060 -9z m2086 -28 c8 -20 13 -439 16 -1449 l6 -1422 -34 -5 c-19
-3 -52 -10 -74 -16 -22 -6 -65 -11 -96 -11 l-57 0 -7 38 c-3 20 -15 66 -26
102 -14 44 -22 107 -26 196 -6 139 -4 150 50 211 12 13 17 29 13 41 -4 11 -2
23 4 27 13 8 13 72 0 80 -20 12 -50 84 -71 171 -25 100 -60 175 -95 203 -22
17 -23 25 -23 112 1 107 10 139 38 139 11 0 41 11 68 24 96 49 109 123 49 273
-20 50 -36 98 -36 107 0 9 -8 33 -18 54 -10 20 -29 66 -42 102 -13 36 -26 69
-31 74 -13 14 -201 43 -255 39 -49 -4 -52 -3 -56 21 -3 15 1 31 8 37 21 17 17
29 -11 29 -14 0 -25 6 -25 13 0 7 -16 21 -35 30 -22 10 -35 24 -35 36 0 26
-42 41 -126 43 -76 2 -124 -16 -124 -48 0 -10 -6 -14 -15 -11 -25 10 -54 -46
-67 -128 l-12 -77 35 -29 c18 -16 44 -29 56 -29 33 0 37 -18 11 -45 -25 -25
-70 -143 -89 -232 -7 -36 -21 -64 -45 -89 -46 -51 -48 -64 -29 -149 13 -61 22
-79 51 -104 19 -17 40 -31 47 -32 7 0 26 -2 43 -4 20 -3 36 1 44 10 19 23 39
18 45 -10 3 -14 8 -37 11 -52 3 -16 14 -58 25 -95 16 -54 24 -68 39 -68 21 0
27 -15 11 -24 -5 -4 -11 0 -14 6 -2 7 -8 9 -13 5 -4 -4 -3 -17 4 -28 11 -17
10 -27 -8 -62 -12 -22 -34 -77 -50 -121 -16 -45 -38 -106 -49 -136 -24 -64
-20 -105 15 -138 13 -13 25 -28 26 -35 5 -36 2 -157 -4 -157 -4 0 -7 -39 -6
-87 1 -103 -5 -128 -32 -130 -24 -2 -24 -5 0 48 39 86 14 190 -58 247 -34 28
-71 64 -97 95 -8 9 -27 17 -41 17 -26 0 -84 51 -84 74 0 8 2 8 8 0 13 -20 89
-26 106 -9 21 21 31 80 17 97 -7 7 -18 22 -25 32 -8 11 -15 15 -19 9 -4 -6 2
-22 13 -36 25 -32 25 -47 0 -47 -11 0 -20 -7 -20 -15 0 -8 7 -15 16 -15 8 0
12 -5 9 -10 -10 -17 -39 -11 -53 10 -7 11 -19 20 -27 20 -12 0 -12 5 1 35 21
52 18 153 -6 193 l-21 34 21 5 c27 7 25 37 -4 56 -16 11 -26 30 -31 57 -4 25
-16 47 -31 59 -14 11 -24 29 -24 44 0 32 -45 70 -72 61 -16 -5 -18 -2 -12 23
9 36 13 43 25 43 6 0 9 -10 7 -22 -2 -19 2 -24 25 -26 15 -2 27 -8 27 -13 0
-5 7 -9 16 -9 23 0 13 33 -13 45 -12 5 -25 22 -29 37 -6 32 -29 58 -49 58 -7
0 -26 -17 -42 -38 -15 -22 -34 -37 -40 -35 -20 7 -15 31 8 44 13 6 19 17 16
28 -2 10 2 29 9 42 7 13 13 34 14 46 0 24 -27 56 -40 48 -5 -3 -11 -1 -15 5
-3 5 -17 10 -30 10 -40 0 -58 38 -45 95 13 58 1 102 -41 150 -38 42 -109 56
-159 30 -30 -15 -31 -19 -25 -53 7 -38 24 -67 33 -57 3 3 11 0 19 -6 10 -9 13
-7 13 7 1 17 3 16 20 -5 11 -13 20 -18 20 -12 0 19 18 12 45 -16 14 -15 25
-24 25 -19 0 16 -42 56 -59 56 -9 0 -25 7 -35 15 -11 8 -28 15 -37 15 -27 0
-36 40 -13 57 23 17 95 9 130 -13 36 -24 55 -84 47 -154 -3 -33 -7 -60 -8 -60
-2 0 -17 13 -35 30 -32 30 -113 60 -159 60 -14 -1 -43 -7 -64 -14 -33 -12 -39
-12 -44 0 -3 8 0 21 7 29 6 8 9 19 6 24 -9 13 33 41 62 41 14 0 21 4 16 11
-16 26 -94 -18 -94 -53 0 -11 -5 -18 -12 -15 -8 2 -13 22 -13 48 0 36 -4 45
-25 56 -14 7 -32 12 -40 12 -11 0 -11 -2 -2 -6 9 -3 10 -9 2 -18 -6 -7 -7 -20
-4 -29 6 -15 9 -15 30 -2 22 15 23 15 17 -19 -4 -25 0 -41 16 -61 27 -34 26
-46 -4 -72 -13 -12 -33 -39 -44 -60 -23 -45 -51 -63 -51 -32 0 10 4 21 10 25
6 3 5 15 -2 30 -11 25 -9 34 23 97 13 26 11 39 -8 60 -16 18 -24 52 -25 113
-2 239 5 1119 11 1145 l7 35 454 5 c250 3 710 6 1022 8 l568 3 11 -28z m-836
-834 c11 -17 -1 -21 -15 -4 -8 9 -8 15 -2 15 6 0 14 -5 17 -11z m-152 -53 c29
1 36 -10 12 -20 -8 -3 -15 -10 -15 -16 0 -10 38 6 50 21 11 14 73 -4 77 -22 6
-22 23 -26 23 -5 0 8 7 16 15 20 8 3 15 1 15 -4 0 -6 11 -10 25 -10 37 0 105
-32 105 -50 0 -37 -75 -100 -119 -100 -21 0 -27 16 -23 63 2 25 -15 21 -22 -5
-3 -13 -17 -35 -31 -50 -27 -30 -61 -38 -52 -14 3 8 1 17 -6 19 -7 2 2 11 18
21 l30 17 -27 -4 c-16 -2 -28 0 -28 4 0 5 -10 8 -22 6 -18 -1 -27 7 -41 35
-16 33 -21 36 -42 28 -18 -7 -25 -5 -30 7 -3 10 0 20 9 25 8 5 12 16 9 29 -5
19 -3 20 18 13 13 -5 36 -8 52 -8z m493 -56 c38 -7 78 -18 87 -25 14 -10 76
-161 77 -186 0 -11 -40 -18 -46 -8 -11 18 -44 10 -44 -11 0 -12 -12 -26 -30
-35 -16 -9 -30 -20 -30 -25 0 -11 -47 8 -70 28 -69 61 -97 82 -112 82 -21 0
-29 -12 -18 -30 14 -23 0 -40 -29 -34 -14 4 -31 11 -38 16 -7 5 -14 5 -17 0
-3 -5 -31 -13 -61 -17 -30 -3 -62 -13 -70 -21 -18 -18 -20 -4 -2 15 10 11 9
13 -2 9 -8 -2 -21 -24 -30 -49 -8 -24 -16 -39 -18 -33 -2 6 3 30 11 53 9 27
10 41 3 38 -6 -2 -16 -21 -23 -43 -10 -32 -12 -34 -13 -14 -1 14 6 36 16 49
12 18 13 23 2 19 -8 -2 -19 -20 -26 -39 l-12 -34 0 29 c-1 32 23 66 46 66 8 0
11 -4 8 -10 -3 -5 -1 -10 5 -10 6 0 13 6 16 14 6 14 61 25 142 28 23 1 42 5
42 9 0 4 13 10 29 14 52 11 91 72 91 142 0 31 2 35 23 30 12 -3 54 -11 93 -17z
m-132 -31 c-1 -38 -36 -99 -57 -99 -7 0 -25 -7 -40 -15 -31 -16 -170 -28 -161
-14 3 5 29 9 58 9 43 0 61 6 94 30 49 36 65 63 60 102 -4 26 -2 29 21 26 23
-3 26 -7 25 -39z m-374 -50 c0 -6 -4 -7 -10 -4 -5 3 -10 11 -10 16 0 6 5 7 10
4 6 -3 10 -11 10 -16z m40 -19 c0 -5 -4 -10 -10 -10 -5 0 -10 5 -10 10 0 6 5
10 10 10 6 0 10 -4 10 -10z m-16 -56 c18 -25 18 -26 -3 -48 -15 -16 -21 -35
-21 -69 0 -26 5 -47 10 -47 6 0 10 -7 10 -15 0 -23 -37 -18 -55 8 -15 21 -17
21 -29 5 -22 -29 -36 -22 -29 15 11 55 42 140 60 159 22 24 34 22 57 -8z m32
-2 c-4 -3 -14 2 -24 12 -16 18 -16 18 6 6 13 -6 21 -14 18 -18z m329 -70 c17
-12 41 -55 49 -85 5 -20 11 -27 21 -23 8 3 15 0 15 -6 0 -7 4 -7 14 1 16 13
42 6 50 -15 4 -10 14 -12 29 -8 19 4 29 -1 45 -21 12 -15 23 -21 27 -15 3 6
-7 24 -24 40 -16 17 -24 30 -17 30 6 0 17 -5 24 -12 9 -9 12 -8 12 4 0 9 -10
18 -22 22 -19 5 -21 8 -8 16 8 5 10 10 4 10 -7 0 -9 11 -6 25 4 23 22 36 22
17 0 -5 9 -18 21 -30 11 -12 17 -27 14 -32 -3 -6 -1 -10 5 -10 7 0 10 -7 6
-15 -3 -8 0 -15 6 -15 7 0 6 -5 -2 -15 -10 -12 -10 -15 4 -15 9 0 15 3 15 8
-4 26 2 41 17 35 8 -3 13 -12 9 -21 -3 -9 3 -21 16 -30 17 -12 18 -16 8 -24
-11 -7 -11 -11 -1 -15 22 -9 13 -25 -10 -18 -21 6 -22 5 -5 -8 9 -8 17 -19 17
-25 0 -6 -8 -9 -17 -6 -12 4 -9 -1 7 -15 23 -18 23 -20 4 -15 -19 5 -21 1 -22
-28 0 -18 0 -37 -1 -42 -2 -14 -41 25 -41 41 0 7 -10 23 -22 35 l-23 23 -6
-40 c-4 -26 -2 -46 7 -60 12 -18 11 -21 -5 -22 -11 -1 -22 5 -25 13 -4 9 -16
14 -33 12 -19 -2 -28 2 -28 12 0 8 -10 16 -22 18 -13 2 -23 8 -23 14 0 6 -7 5
-17 -3 -15 -12 -16 -12 -10 4 9 24 -2 47 -19 40 -16 -6 -19 13 -3 23 7 4 7 10
1 16 -5 5 -7 29 -4 54 3 29 1 44 -7 44 -6 0 -11 -7 -11 -15 0 -12 -28 -35 -44
-35 -3 0 -1 12 4 26 12 31 13 104 2 104 -5 0 -17 6 -27 14 -16 12 -17 16 -6
30 15 18 21 19 36 8z m-92 -29 l38 -6 -38 -18 c-35 -16 -36 -18 -15 -24 13 -5
22 -15 22 -27 0 -20 0 -20 -17 0 -13 14 -35 21 -78 25 -33 3 -55 3 -48 1 9 -4
4 -22 -17 -61 -29 -53 -31 -81 -7 -67 9 5 9 4 1 -5 -8 -8 -18 -9 -37 -2 -46
18 -64 81 -28 100 10 6 24 24 31 41 7 17 22 32 34 35 68 14 109 17 159 8z
m384 -10 c4 -10 11 -21 17 -25 6 -4 7 -10 3 -14 -6 -7 -46 34 -47 49 0 14 21
7 27 -10z m-329 -29 c16 -11 22 -25 22 -55 0 -21 -4 -39 -10 -39 -5 0 -10 15
-10 33 0 40 -28 70 -56 61 -16 -5 -16 -4 -4 5 20 15 32 14 58 -5z m-21 -51
c-4 -20 -11 -41 -17 -47 -8 -8 -10 -4 -5 14 3 14 7 35 8 48 0 12 5 22 10 22 5
0 7 -16 4 -37z m-139 -515 c-1 -299 -5 -578 -8 -620 l-5 -77 -25 12 c-27 14
-28 18 -32 215 -1 50 -6 92 -10 92 -7 0 -12 -52 -11 -97 1 -7 -4 -13 -9 -13
-6 0 -8 14 -5 35 7 42 -7 47 -20 8 -7 -20 -5 -36 4 -53 16 -32 16 -60 0 -99
-10 -24 -16 -28 -25 -19 -17 17 -15 38 5 60 14 16 15 23 5 38 -19 30 -15 69
19 176 17 54 33 113 34 129 2 26 6 30 29 27 39 -4 52 36 26 80 -21 38 -50 167
-50 228 0 28 -4 39 -11 34 -8 -4 -9 -23 -4 -58 10 -68 12 -177 3 -168 -4 4
-11 25 -17 47 -5 22 -13 51 -17 65 -6 25 -6 25 11 5 14 -17 16 -17 11 -3 -3
10 -8 40 -12 68 -7 56 -23 77 -25 33 l-1 -28 -7 25 c-10 32 8 73 42 100 l27
21 0 -36 c0 -20 4 -34 9 -31 5 3 10 -41 13 -99 2 -63 8 -109 16 -117 19 -19
23 -5 12 52 -5 29 -10 90 -10 136 0 72 -3 85 -20 97 -21 14 -21 14 5 95 14 44
22 87 19 96 -6 15 21 86 32 86 3 0 4 -244 2 -542z m100 459 c9 -10 22 -15 29
-13 7 3 13 -1 13 -9 0 -8 8 -20 18 -27 9 -7 24 -26 32 -41 8 -16 27 -36 42
-45 15 -9 31 -24 34 -34 3 -12 15 -18 34 -18 45 0 59 -31 64 -136 5 -128 -16
-232 -55 -264 -16 -14 -29 -31 -29 -37 0 -9 -17 -13 -50 -13 -47 0 -50 1 -40
19 5 11 11 67 12 125 1 58 5 106 10 106 4 0 8 11 8 25 0 28 -24 34 -34 9 -3
-9 -3 -51 0 -94 11 -128 -12 -210 -59 -210 -24 0 -32 42 -30 150 1 82 0 92
-11 71 -11 -20 -14 7 -19 175 -5 180 2 384 11 309 2 -16 11 -38 20 -48z
m-1338 32 c0 -6 -4 -7 -10 -4 -5 3 -10 11 -10 16 0 6 5 7 10 4 6 -3 10 -11 10
-16z m973 5 c11 -4 13 -13 7 -39 -5 -23 -4 -35 4 -38 6 -2 3 -3 -8 -1 -21 3
-56 -16 -56 -31 0 -5 -10 -26 -22 -45 l-21 -35 -9 30 c-8 28 -5 33 43 76 40
36 51 51 46 68 -6 23 -5 24 16 15z m171 -89 l34 -15 -16 -52 c-20 -65 -16 -60
-48 -60 -32 0 -64 33 -64 68 0 23 -16 41 -27 30 -4 -4 -7 -33 -7 -66 1 -64 -6
-74 -25 -37 -11 21 -11 21 -7 -7 5 -35 -2 -58 -15 -50 -16 10 -9 -13 8 -27 11
-10 14 -10 9 -1 -4 7 -2 12 4 12 7 0 10 7 6 15 -8 23 22 18 34 -5 6 -11 16
-20 22 -20 6 0 5 6 -3 17 -12 14 -12 16 1 11 23 -7 24 -35 2 -47 -16 -8 -19
-7 -18 6 0 9 -5 18 -13 21 -10 3 -12 0 -8 -11 4 -10 -2 -17 -16 -22 -36 -12
-61 -5 -80 21 -10 13 -26 24 -35 25 -11 0 -12 2 -4 6 14 6 16 33 2 33 -9 0 -9
4 5 45 5 16 8 17 15 5 7 -11 12 -12 21 -3 6 6 18 9 25 6 10 -4 14 3 14 21 0
18 -5 26 -17 26 -17 1 -17 1 0 11 14 8 21 7 31 -7 12 -15 14 -14 24 15 6 17
18 34 27 37 8 3 15 11 15 18 0 6 7 22 16 35 l16 23 19 -32 c11 -17 35 -38 53
-45z m-822 12 c104 -62 126 -185 51 -285 -51 -68 -155 -92 -231 -53 -68 35
-102 93 -102 174 0 45 6 63 33 103 17 26 48 56 67 66 50 26 135 24 182 -5z
m178 -97 c0 -5 9 -10 19 -10 29 0 35 -17 17 -55 -9 -18 -14 -40 -11 -48 4 -8
-5 -21 -22 -33 -27 -18 -94 -54 -100 -54 -2 0 6 17 17 37 14 26 20 57 20 99 0
33 3 64 7 67 10 11 53 8 53 -3z m-475 -152 c6 -22 5 -22 -18 5 -23 27 -28 71
-11 99 6 8 11 -3 15 -34 4 -25 10 -57 14 -70z m1263 82 c2 -22 -2 -30 -14 -30
-13 0 -14 3 -5 13 6 8 8 17 5 20 -5 5 3 27 9 27 2 0 4 -13 5 -30z m-208 -22
c0 -13 -5 -9 -31 19 l-24 26 27 -19 c15 -10 28 -22 28 -26z m-460 -69 c0 -5
-7 -9 -15 -9 -15 0 -20 12 -9 23 8 8 24 -1 24 -14z m670 1 c0 -11 -4 -20 -8
-20 -4 0 -8 9 -9 20 -1 11 2 20 8 20 5 0 9 -9 9 -20z m-1256 -30 c9 0 79 -70
75 -75 -7 -7 -101 -14 -115 -8 -19 7 -18 43 1 43 12 0 13 4 5 19 -5 11 -10 27
-10 37 0 16 1 16 18 1 10 -10 22 -17 26 -17z m467 -10 c30 0 50 -126 26 -165
-6 -12 -21 -36 -32 -55 -21 -36 -36 -52 -79 -88 l-27 -23 -31 31 c-17 17 -35
29 -41 27 -6 -2 -20 4 -31 12 -50 41 -56 51 -56 97 0 42 2 46 35 60 65 27 118
8 85 -31 -10 -12 -10 -15 0 -15 7 0 19 8 26 18 12 15 13 9 14 -45 0 -34 5 -65
11 -69 7 -4 10 16 7 65 -1 39 0 71 4 71 11 0 21 -22 28 -60 6 -28 8 -32 15
-17 5 12 2 32 -8 53 -18 37 -13 43 15 17 10 -9 18 -12 18 -6 0 5 -9 18 -19 27
-15 14 -24 15 -39 7 -24 -13 -32 -5 -32 30 0 23 8 33 38 48 20 11 43 18 50 16
8 -3 18 -5 23 -5z m796 -16 c3 -8 1 -20 -6 -27 -6 -6 -11 -7 -12 -1 0 5 -2 17
-4 27 -4 21 13 23 22 1z m-727 -13 c0 -6 -4 -13 -10 -16 -5 -3 -10 1 -10 9 0
9 5 16 10 16 6 0 10 -4 10 -9z m717 -83 c-2 -13 -4 -5 -4 17 -1 22 1 32 4 23
2 -10 2 -28 0 -40z m-653 26 c9 -3 16 -17 16 -29 0 -18 -7 -25 -32 -30 -18 -4
-41 -14 -51 -23 -18 -16 -18 -15 -11 13 15 62 40 84 78 69z m-476 -24 c23 -22
20 -43 -11 -69 -8 -6 -13 -20 -10 -30 3 -12 -5 -26 -26 -40 -32 -23 -41 -57
-19 -79 9 -9 9 -17 -1 -36 -8 -13 -10 -29 -7 -35 10 -16 -36 -24 -67 -12 -23
9 -27 16 -27 48 0 34 1 36 15 17 19 -26 21 3 1 31 -7 11 -17 35 -21 53 -6 31
-5 33 13 28 17 -6 19 -3 15 13 -3 12 -2 28 1 37 6 16 8 16 24 0 26 -23 36 -20
18 6 -16 23 -21 69 -9 81 15 16 90 7 111 -13z m-138 -24 c0 -2 -9 -2 -20 1
-11 3 -20 9 -20 15 0 5 9 4 20 -2 11 -6 20 -12 20 -14z m1273 -26 c3 -11 0
-23 -6 -27 -7 -3 -9 -3 -5 2 4 4 3 16 -3 26 -5 11 -6 19 -1 19 6 0 12 -9 15
-20z m-1293 -11 c-7 -11 -14 -18 -17 -15 -8 8 5 36 17 36 7 0 7 -6 0 -21z
m640 -9 c0 -5 7 -10 16 -10 9 0 12 5 8 11 -4 7 -1 10 7 7 18 -6 48 -69 41 -87
-3 -8 3 -20 13 -27 37 -27 6 -25 -36 3 -36 24 -52 28 -116 28 -69 0 -94 8 -55
18 53 15 74 16 91 8 24 -13 36 -2 14 14 -10 7 -14 19 -10 29 7 17 27 22 27 6z
m1000 -31 c0 -11 7 -33 15 -49 14 -27 14 -30 -1 -30 -14 0 -15 -9 -7 -77 9
-92 7 -206 -7 -282 -9 -49 -8 -57 10 -76 11 -12 20 -27 20 -33 0 -7 4 -12 9
-12 12 0 0 53 -16 65 -11 8 -11 27 -2 100 6 50 9 133 6 185 -4 91 -4 93 9 50
8 -27 13 -89 12 -158 -1 -102 1 -116 21 -143 15 -20 19 -34 13 -42 -16 -20
-21 -67 -7 -67 8 0 14 -34 19 -107 10 -156 14 -194 25 -207 17 -20 41 -145 41
-210 l0 -63 -40 -7 c-53 -8 -107 14 -121 51 -6 15 -14 58 -18 95 -7 65 -6 67
11 51 27 -25 22 -2 -11 43 -28 38 -101 218 -101 249 0 17 13 24 51 29 24 3 43
9 87 27 12 5 22 15 22 24 0 19 -19 19 -40 0 -9 -8 -30 -18 -47 -21 -35 -7 -46
5 -57 69 -5 27 -11 37 -21 33 -21 -8 -29 49 -15 108 6 26 7 58 3 70 -6 17 -8
12 -14 -24 -11 -64 -11 -154 0 -166 5 -5 11 -33 14 -61 5 -41 3 -53 -8 -53
-46 0 -73 103 -56 214 14 95 14 186 1 186 -5 0 -10 -25 -10 -55 0 -30 -5 -89
-11 -131 -9 -60 -9 -87 2 -132 7 -32 11 -59 9 -61 -3 -3 -15 -5 -27 -6 -26 -1
-43 36 -45 98 -1 39 -13 49 -22 20 -3 -10 -3 6 -1 35 4 54 -8 71 -19 27 -9
-37 4 -127 21 -147 17 -19 8 -42 -13 -34 -7 3 -16 1 -19 -4 -8 -12 43 -21 95
-15 79 8 91 -2 129 -123 18 -59 39 -116 46 -127 7 -11 15 -38 19 -59 l7 -39
-33 7 c-18 3 -49 18 -68 31 -20 14 -40 25 -46 25 -5 0 -36 -14 -68 -30 -108
-55 -100 -79 -92 293 3 177 9 375 13 439 5 110 7 117 24 107 10 -5 38 -12 61
-14 24 -3 60 -8 80 -10 30 -4 38 -2 43 15 3 11 11 20 16 20 5 0 9 10 10 23 1
22 1 22 8 -2 6 -22 9 -19 33 30 14 30 29 62 32 72 7 23 26 13 26 -14z m60 -48
c12 -32 17 -57 11 -60 -6 -4 -4 -27 5 -61 8 -30 19 -100 24 -155 6 -55 13
-116 16 -135 l7 -35 -29 29 c-29 28 -29 30 -35 175 -3 80 -9 153 -13 162 -4
10 -3 20 3 24 7 4 6 17 -6 38 -9 18 -20 47 -24 66 -11 50 14 21 41 -48z
m-1466 -15 c11 -27 19 -33 35 -29 28 7 67 -20 73 -51 5 -23 3 -24 -23 -19 -21
4 -30 0 -39 -17 -9 -17 -14 -19 -26 -9 -8 6 -14 17 -14 25 0 20 -33 34 -78 34
-26 0 -42 5 -46 15 -3 10 1 15 14 15 20 0 34 16 35 40 0 8 11 17 25 21 14 4
26 7 27 8 2 1 9 -14 17 -33z m969 -3 c-6 -14 -8 -14 -14 3 -12 30 -10 37 5 24
8 -6 12 -19 9 -27z m83 -10 c-11 -11 -17 4 -9 23 7 18 8 18 11 1 2 -10 1 -21
-2 -24z m41 -5 c-3 -7 -5 -2 -5 12 0 14 2 19 5 13 2 -7 2 -19 0 -25z m-656
-14 c47 -30 66 -56 85 -121 17 -60 9 -108 -29 -164 -38 -56 -91 -80 -168 -77
-109 6 -178 70 -187 173 -6 69 10 114 55 159 67 67 167 79 244 30z m619 -24
c0 -11 -2 -20 -4 -20 -2 0 -6 9 -9 20 -3 11 -1 20 4 20 5 0 9 -9 9 -20z m215
0 c4 -7 -8 -8 -37 -4 -57 9 -61 14 -10 14 22 0 44 -5 47 -10z m-374 -37 c-12
-20 -14 -14 -5 12 4 9 9 14 11 11 3 -2 0 -13 -6 -23z m-899 -28 c9 -34 -12
-74 -43 -82 -10 -3 -16 -9 -13 -14 3 -5 14 -5 25 1 10 6 19 7 19 2 0 -11 -49
-57 -77 -71 -23 -12 -32 -41 -13 -41 6 0 10 6 10 13 0 14 44 40 70 41 8 1 17
12 20 26 4 16 12 24 22 22 15 -2 31 25 27 44 -3 14 20 64 29 64 21 0 37 -38
36 -83 -1 -26 -4 -51 -8 -54 -3 -3 -6 -20 -6 -38 0 -37 -32 -75 -63 -75 -13 0
-27 -4 -33 -10 -5 -5 -19 -7 -32 -3 -21 5 -21 6 -5 19 17 12 16 13 -5 14 -31
0 -78 -25 -87 -47 -6 -14 -10 -9 -17 22 -6 22 -11 54 -12 70 -1 17 -6 44 -10
62 -10 41 7 73 34 66 23 -6 27 16 8 47 -18 29 4 41 66 38 46 -3 50 -5 58 -33z
m1058 20 c0 -8 -4 -15 -10 -15 -5 0 -7 7 -4 15 4 8 8 15 10 15 2 0 4 -7 4 -15z
m0 -45 c0 -11 -4 -20 -10 -20 -5 0 -10 9 -10 20 0 11 5 20 10 20 6 0 10 -9 10
-20z m-1231 -26 c2 -2 -2 -11 -9 -19 -11 -13 -11 -23 -1 -51 7 -19 9 -43 6
-54 -4 -11 1 -32 12 -50 14 -25 15 -35 6 -61 -11 -29 -11 -31 7 -26 11 3 20 2
20 -1 -1 -13 -38 -52 -49 -52 -6 0 -11 -4 -11 -10 0 -23 -19 -8 -25 20 -4 16
-11 32 -16 35 -10 7 -10 74 0 119 l6 29 19 -44 c11 -24 21 -38 23 -32 2 6 -5
30 -16 52 -26 50 -26 55 -1 48 11 -3 20 -1 20 5 0 5 -12 8 -27 6 -27 -3 -28
-1 -31 50 l-3 54 33 -7 c18 -4 35 -9 37 -11z m1228 -26 c-3 -8 -6 -5 -6 6 -1
11 2 17 5 13 3 -3 4 -12 1 -19z m483 -21 c0 -5 -4 -5 -10 -2 -5 3 -10 14 -10
23 0 15 2 15 10 2 5 -8 10 -19 10 -23z m-690 -38 c-13 -44 -13 -102 0 -115 7
-7 4 -16 -10 -29 -19 -17 -20 -17 -27 1 -13 33 -7 78 17 132 25 58 35 64 20
11z m700 -55 c11 -26 20 -53 20 -60 0 -17 -19 -18 -25 -1 -7 18 -23 107 -19
107 2 0 12 -21 24 -46z m-494 -25 c-3 -17 -6 -45 -6 -61 0 -16 -4 -27 -8 -24
-5 3 -8 27 -6 53 3 65 2 63 15 63 8 0 9 -11 5 -31z m-850 -60 c10 -8 11 -15 1
-30 -19 -30 -42 -32 -81 -5 l-37 24 23 17 c24 17 70 14 94 -6z m236 -21 c-6
-6 -15 -8 -19 -4 -4 4 -1 11 7 16 8 5 17 7 19 4 3 -2 -1 -10 -7 -16z m480 -46
c-8 -40 -22 -8 -15 33 6 35 7 37 13 15 3 -14 4 -35 2 -48z m-375 31 c17 -19
35 -28 56 -28 53 0 42 -22 -15 -30 -83 -11 -148 -53 -185 -120 -5 -8 -18 -11
-35 -8 l-27 5 20 36 c10 20 19 47 19 59 0 27 14 36 55 37 25 1 30 5 30 26 0
56 40 67 82 23z m-475 -3 c110 -31 170 -168 118 -269 -75 -147 -279 -144 -347
6 -20 42 -24 64 -19 95 21 130 126 201 248 168z m161 -41 c-20 -33 -28 -36
-41 -12 -7 12 -4 21 11 34 33 26 51 13 30 -22z m109 29 c26 -20 25 -77 -1
-133 -24 -51 -49 -77 -88 -89 -20 -6 -21 -3 -21 40 0 45 14 84 30 84 5 0 14
-15 22 -32 l15 -33 -4 55 c-2 30 -8 56 -13 58 -20 6 15 62 38 62 3 0 13 -6 22
-12z m708 -70 c0 -45 -3 -79 -6 -75 -9 9 -12 157 -2 157 4 0 8 -37 8 -82z
m-800 -9 c-12 -22 -30 -25 -30 -6 0 17 21 38 32 31 4 -3 3 -14 -2 -25z m653
19 c12 -6 28 -19 34 -28 7 -10 23 -20 36 -24 l23 -5 1 -228 2 -228 -53 -17
c-66 -23 -112 -23 -120 -2 -11 28 -6 97 10 167 16 64 34 89 34 47 0 -11 5 -20
10 -20 16 0 12 34 -11 85 -12 27 -19 60 -17 76 3 16 0 29 -6 29 -6 0 -5 5 2
12 7 7 12 29 12 49 0 40 10 99 17 99 2 0 14 -5 26 -12z m-1109 -40 c6 -4 9
-22 7 -40 -4 -40 -4 -40 -25 -32 -12 5 -16 19 -16 63 1 47 2 53 12 36 6 -11
16 -23 22 -27z m859 21 c21 -6 56 -26 77 -45 125 -113 43 -329 -125 -328 -142
1 -236 144 -175 268 23 49 61 82 119 102 45 16 56 17 104 3z m657 -40 c0 -6
-4 -7 -10 -4 -5 3 -10 11 -10 16 0 6 5 7 10 4 6 -3 10 -11 10 -16z m-262 -373
c2 -210 0 -326 -6 -326 -6 0 -9 52 -8 135 1 84 -2 135 -8 135 -6 0 -5 5 1 11
7 7 8 22 4 38 -6 21 -7 264 -1 281 1 3 1 18 0 34 -1 15 2 26 7 23 4 -3 9 -152
11 -331z m-663 234 c0 -50 -2 -57 -12 -43 -7 9 -15 14 -18 12 -8 -9 19 -59 30
-55 6 2 17 -11 27 -28 14 -27 14 -34 2 -57 -7 -15 -30 -33 -53 -42 -22 -9 -42
-21 -46 -27 -14 -23 -25 4 -19 49 7 56 -11 93 -57 117 -34 17 -37 46 -9 74 17
17 24 18 45 8 13 -6 22 -14 20 -18 -3 -4 2 -13 10 -20 18 -15 19 -41 3 -59
-11 -11 -9 -13 10 -8 22 5 23 4 17 -34 -4 -24 -3 -39 3 -39 19 0 25 77 8 111
-9 17 -13 35 -10 40 3 5 0 19 -7 31 -10 18 -8 24 10 39 35 28 46 15 46 -51z
m-599 13 c3 -10 11 -28 17 -40 12 -26 -7 -73 -30 -73 -9 0 -13 18 -13 65 0 62
14 87 26 48z m474 -127 c35 -35 34 -60 -1 -109 -11 -16 -18 -35 -15 -43 3 -8
-1 -14 -9 -14 -15 0 -19 -10 -16 -41 1 -9 -14 -28 -34 -43 -28 -22 -35 -34
-35 -61 l0 -34 -25 23 c-14 13 -25 27 -25 32 0 18 -60 65 -78 62 -12 -2 -29 9
-44 27 -22 26 -25 39 -24 95 1 50 4 65 16 66 8 0 23 4 33 8 23 11 66 -1 74
-21 4 -11 -3 -24 -20 -37 -27 -22 -36 -46 -17 -46 5 0 9 4 7 8 -1 5 13 21 31
36 17 15 33 24 33 19 7 -48 6 -63 -2 -68 -14 -10 -11 -25 5 -19 8 3 16 -2 19
-13 3 -13 5 -12 6 6 1 24 1 24 16 5 15 -20 18 -13 9 24 -4 12 -12 22 -20 22
-7 0 -12 8 -12 18 0 9 -3 25 -7 34 -11 26 24 37 41 13 16 -21 27 -16 18 9 -3
9 -15 16 -25 16 -27 0 -24 25 6 48 31 25 56 19 95 -22z m-381 -17 c20 -19 23
-29 19 -77 -5 -61 -28 -88 -63 -76 -11 4 -32 7 -47 8 -26 1 -28 4 -28 42 0 22
6 48 13 59 13 16 14 15 11 -16 -4 -32 -3 -32 13 11 27 74 44 84 82 49z m926
-95 c-7 -44 -16 -69 -28 -75 -11 -7 -17 -22 -17 -44 0 -41 -13 -45 -35 -11
-11 16 -14 33 -9 51 5 20 4 26 -5 21 -20 -13 -12 -67 14 -98 14 -16 25 -42 25
-56 0 -19 3 -23 9 -13 5 7 6 22 4 32 -6 22 15 26 23 4 12 -30 -5 -80 -34 -95
-33 -19 -77 -5 -66 20 25 54 15 141 -21 194 -14 20 -25 38 -25 40 0 11 35 15
47 5 22 -19 63 8 63 41 0 31 17 50 45 50 20 0 21 -2 10 -66z m469 11 c27 -14
60 -25 72 -25 23 0 41 -16 30 -27 -3 -3 -43 2 -89 11 -54 11 -108 15 -153 12
l-69 -6 48 14 c26 8 58 21 70 30 30 20 34 20 91 -9z m-1527 -7 c-3 -8 -6 -5
-6 6 -1 11 2 17 5 13 3 -3 4 -12 1 -19z m818 -27 c62 -28 115 -104 115 -166 0
-53 -55 -141 -104 -167 -68 -37 -154 -27 -213 25 -44 39 -63 82 -63 142 0 61
21 107 62 138 66 51 133 60 203 28z m1273 -14 l3 -28 -73 6 c-40 3 -96 5 -125
5 -85 -1 -69 17 21 22 46 3 92 11 102 17 11 6 30 10 44 8 19 -1 26 -8 28 -30z
m-526 -13 c52 -12 67 -20 72 -37 3 -11 3 -24 0 -29 -9 -15 -33 -8 -39 11 -3
10 -18 22 -33 26 -21 5 -31 1 -49 -20 -13 -15 -21 -31 -18 -36 4 -5 1 -9 -4
-9 -6 0 -11 -7 -11 -16 0 -14 -8 -16 -47 -10 -26 3 -49 10 -52 15 -4 5 -20 11
-36 13 -28 3 -30 6 -33 51 l-3 47 33 1 c18 1 44 5 58 9 29 9 67 5 162 -16z
m-1492 -34 c6 -11 18 -20 26 -20 10 0 14 -6 10 -15 -8 -21 17 -29 44 -15 16 9
20 18 16 36 -10 36 18 31 50 -11 14 -19 32 -35 39 -35 13 0 25 -21 25 -45 0
-20 -65 -85 -86 -85 -35 0 -122 -48 -145 -79 -12 -17 -26 -31 -30 -31 -4 0 -8
69 -8 154 -1 140 0 155 16 159 31 8 32 8 43 -13z m2008 4 c6 -2 12 -11 12 -20
0 -15 -9 -16 -76 -11 -47 3 -85 1 -100 -5 -21 -10 -28 -8 -47 11 -19 18 -20
23 -7 31 13 9 186 4 218 -6z m-500 -37 c5 -23 -10 -21 -26 4 -12 18 -11 20 5
17 10 -2 19 -11 21 -21z m-521 -7 c3 -10 13 -22 22 -25 16 -5 93 12 134 30 14
6 17 2 17 -18 0 -40 -24 -57 -62 -46 -18 5 -35 9 -38 9 -3 0 -5 -20 -5 -45 0
-25 1 -45 3 -45 2 0 8 14 13 30 7 19 18 30 29 30 29 0 33 -18 11 -49 -14 -19
-21 -45 -21 -74 0 -32 -5 -47 -16 -51 -11 -4 -13 -10 -6 -19 5 -6 13 -27 17
-44 6 -32 6 -33 -27 -33 -18 0 -53 -10 -78 -23 -40 -21 -98 -28 -152 -18 -28
4 22 66 83 103 15 9 33 37 44 65 10 26 26 54 34 61 12 10 13 15 4 18 -28 12
-10 68 21 69 5 0 11 6 14 13 3 9 -3 13 -14 11 -34 -4 -54 12 -54 42 0 33 19
39 27 9z m794 -48 c-20 -56 -39 -72 -83 -72 -21 0 -38 -4 -38 -10 0 -12 63
-24 89 -15 17 5 21 2 21 -14 0 -11 9 -49 21 -85 17 -52 28 -69 62 -92 52 -37
117 -100 117 -114 0 -23 -152 1 -217 36 -16 7 -38 14 -50 14 -20 0 -23 5 -23
38 0 20 -4 52 -9 70 -8 25 -7 32 5 32 18 0 18 8 -2 28 -10 10 -12 18 -6 20 6
2 8 10 5 19 -4 11 -2 14 5 9 7 -4 12 -3 12 1 0 5 -23 26 -51 48 -53 40 -77 81
-60 98 7 7 17 5 30 -7 37 -34 170 -33 157 1 -10 24 3 58 17 44 8 -8 7 -21 -2
-49z m237 1 c3 -40 -9 -56 -23 -33 -17 28 -115 -9 -115 -44 0 -7 -15 -19 -32
-27 -25 -10 -32 -20 -31 -36 3 -27 -13 -31 -21 -5 -16 56 -15 99 3 136 23 49
61 63 151 56 l65 -5 3 -42z m-553 27 c3 -5 4 -10 1 -10 -2 0 -12 -3 -20 -6
-12 -5 -15 -2 -10 10 7 18 20 21 29 6z m97 -20 c-3 -23 5 -44 32 -85 40 -61
46 -80 19 -66 -10 5 -26 12 -35 15 -9 2 -18 15 -20 28 -6 42 -108 42 -108 -1
0 -26 -10 -32 -32 -20 -14 8 -25 7 -43 -5 -22 -14 -35 -12 -35 6 0 4 7 8 15 8
8 0 15 7 15 15 0 8 -8 15 -17 15 -13 0 -14 3 -5 12 9 9 21 8 51 -2 47 -15 76
-1 66 31 -4 13 -1 19 9 19 8 0 25 13 38 29 32 41 56 41 50 1z m-1132 -2 c11
-12 20 -33 20 -47 1 -38 33 -102 69 -135 l31 -29 -42 -19 c-24 -11 -66 -19
-97 -19 -47 -1 -58 2 -71 22 -31 46 -93 100 -121 106 -37 7 -42 15 -24 39 12
17 16 18 47 5 18 -7 42 -14 54 -15 27 -1 54 -24 54 -45 0 -9 17 -30 38 -47 42
-34 72 -48 72 -33 0 5 -10 13 -22 18 -13 5 -34 21 -47 35 l-24 26 29 0 29 0
-35 18 c-31 15 -35 22 -38 62 -3 43 8 59 55 79 1 1 11 -9 23 -21z m1065 1 c-4
-5 -18 -14 -32 -20 -18 -7 -23 -14 -18 -28 8 -28 -10 -34 -45 -16 -34 18 -70
6 -70 -22 0 -11 -3 -14 -10 -7 -5 5 -7 25 -4 44 6 35 6 35 52 32 26 -2 65 4
87 12 22 8 41 15 43 15 2 1 0 -4 -3 -10z m-320 -176 c-5 -33 -11 -43 -24 -43
-30 0 -33 38 -5 63 13 11 24 25 24 30 0 6 -8 3 -18 -6 -10 -10 -22 -17 -26
-17 -11 0 4 63 20 81 8 8 14 22 14 31 0 8 3 18 8 22 9 10 15 -108 7 -161z m95
152 c-10 -12 -8 -16 11 -24 26 -11 25 -11 -9 -15 -13 -2 -26 3 -29 11 -8 20 4
43 23 43 13 0 14 -3 4 -15z m716 -33 c6 -4 14 -25 17 -47 3 -22 9 -55 13 -74
l7 -35 -25 20 c-18 14 -40 20 -74 19 -47 0 -50 -1 -71 -43 -22 -45 -26 -45
-37 -1 -4 20 -1 29 10 33 11 4 14 13 10 30 -5 20 -1 24 24 30 17 3 30 11 30
18 0 36 65 70 96 50z m-691 -62 c0 -32 3 -35 28 -35 15 1 27 -3 27 -8 0 -5 10
-3 23 5 13 9 35 13 55 10 27 -4 32 -1 32 16 0 22 23 46 34 35 4 -4 17 -8 29
-8 14 0 23 -8 27 -25 4 -18 14 -26 33 -28 21 -3 27 -9 27 -26 0 -13 9 -35 20
-49 21 -27 38 -117 22 -117 -6 0 -13 16 -16 35 -4 20 -21 51 -38 71 -94 106
-260 97 -333 -18 -26 -41 -39 -35 -31 15 4 23 9 65 12 92 6 66 11 77 31 73 13
-2 18 -13 18 -38z m29 -16 c3 -8 2 -12 -4 -9 -6 3 -10 10 -10 16 0 14 7 11 14
-7z m-383 -17 c-13 -13 -26 -3 -16 12 3 6 11 8 17 5 6 -4 6 -10 -1 -17z m-718
-1 c39 -16 82 -61 96 -99 53 -139 -81 -287 -223 -247 -49 13 -108 68 -126 116
-23 58 1 155 46 196 54 48 141 62 207 34z m661 -1 c3 -8 12 -15 21 -15 8 0 15
-6 15 -14 0 -9 -7 -12 -19 -9 -11 3 -21 -1 -23 -9 -2 -9 -14 -12 -42 -8 l-39
5 31 33 c33 35 47 40 56 17z m340 -43 c-7 -5 -9 -27 -4 -67 4 -33 5 -62 3 -64
-2 -3 -12 4 -23 15 -16 16 -19 28 -13 72 5 44 9 52 27 52 12 0 16 -3 10 -8z
m283 -7 c50 -21 72 -42 94 -90 37 -80 10 -186 -59 -232 -151 -100 -354 67
-273 225 48 94 148 134 238 97z m416 -5 c3 -14 10 -18 22 -14 9 4 14 13 11 20
-8 21 11 17 39 -8 14 -12 25 -32 25 -45 0 -20 -5 -23 -35 -23 -24 0 -37 -6
-45 -20 -14 -26 -22 -25 -58 5 -37 31 -34 65 6 65 24 0 25 0 7 20 -18 19 -17
20 2 20 12 0 23 -8 26 -20z m-1115 -27 c-2 -10 4 -19 15 -21 12 -2 17 3 17 18
0 16 4 20 16 16 9 -3 25 -6 37 -6 22 -1 22 -1 2 -12 -11 -6 -32 -22 -47 -36
-16 -14 -28 -20 -28 -14 0 7 -9 21 -20 32 -12 12 -18 25 -15 30 10 16 26 11
23 -7z m327 7 c16 -7 17 -9 3 -9 -23 -1 -33 -20 -18 -34 10 -9 14 -9 17 1 3 6
9 12 14 12 19 0 8 -25 -15 -36 -21 -10 -25 -9 -30 10 -8 30 -7 66 2 65 4 0 16
-4 27 -9z m-375 -36 c35 -14 40 -20 40 -49 0 -43 29 -69 68 -60 24 5 36 1 57
-19 l28 -26 -26 0 c-16 0 -32 -10 -45 -26 -14 -20 -28 -27 -54 -28 -19 -1 -42
-9 -52 -18 -10 -10 -29 -19 -44 -19 -52 -3 -107 3 -119 13 -15 12 -17 54 -3
63 18 11 10 37 -20 65 -25 23 -28 30 -15 40 11 9 20 9 42 -2 26 -12 28 -18 28
-70 0 -31 5 -61 10 -66 14 -14 55 -25 55 -15 0 5 -10 13 -22 18 -16 7 -22 17
-20 35 3 33 6 34 37 14 29 -19 131 -29 141 -13 3 5 -16 9 -42 9 -45 0 -144 42
-144 62 0 12 12 10 31 -8 10 -9 26 -14 36 -11 15 3 13 6 -10 16 -16 6 -31 20
-34 31 -3 11 -9 20 -14 20 -15 0 -10 19 11 40 24 24 29 24 80 4z m-143 -24 c2
-14 0 -19 -4 -10 -10 24 -24 29 -51 19 -21 -8 -23 -7 -14 4 7 8 24 14 39 13
22 -1 28 -6 30 -26z m-137 0 c28 -28 26 -58 -6 -66 -18 -5 -29 -1 -38 12 -12
15 -16 16 -30 5 -9 -7 -13 -18 -10 -23 4 -6 10 -5 15 3 7 11 9 10 9 -4 0 -10
10 -22 23 -26 22 -9 22 -9 -5 -16 -33 -8 -62 -40 -53 -55 5 -8 11 -4 19 11 6
12 18 24 26 26 10 3 9 1 -2 -7 -10 -6 -18 -19 -18 -30 0 -33 -12 -50 -55 -80
l-43 -30 -17 26 c-17 26 -13 57 11 84 21 25 54 103 54 131 0 29 13 44 45 52
39 9 55 7 75 -13z m1540 -28 c0 -16 -2 -31 -5 -34 -10 -10 -54 4 -59 19 -9 23
5 36 18 17 15 -19 40 -10 32 12 -3 8 -1 14 4 14 6 0 10 -13 10 -28z m-950 -15
c0 -11 -103 -68 -115 -63 -24 9 -18 21 23 44 31 18 92 30 92 19z m950 -79 c0
-23 -4 -37 -10 -33 -17 11 -32 -5 -19 -21 14 -17 -2 -19 -18 -3 -15 15 -44 4
-37 -14 3 -8 -6 -18 -21 -25 -25 -12 -27 -10 -38 19 -9 24 -17 29 -34 26 -15
-3 -23 2 -27 17 -7 28 -3 30 52 16 65 -17 122 -7 122 22 0 11 -7 26 -17 33
-13 10 -11 11 15 7 30 -4 32 -7 32 -44z m-1506 0 c5 -20 1 -30 -15 -41 -11 -9
-16 -18 -11 -21 19 -11 42 25 42 65 0 31 4 39 18 39 11 0 27 -9 37 -20 17 -19
17 -22 -1 -77 -16 -47 -26 -61 -59 -80 -61 -35 -78 -41 -144 -49 -73 -8 -79 4
-21 41 42 27 60 52 60 84 0 11 9 25 21 31 11 7 19 14 16 16 -3 3 5 16 17 29
23 26 30 23 40 -17z m666 12 c0 -5 -8 -10 -18 -10 -29 0 -62 -38 -62 -70 0
-17 -10 -39 -27 -57 -16 -16 -32 -37 -38 -47 -5 -9 -23 -19 -38 -20 -16 -2
-33 -8 -39 -14 -13 -13 -2 -32 18 -32 8 0 14 -4 14 -10 0 -7 -156 -10 -447
-10 -393 0 -445 2 -433 15 9 9 43 16 88 19 41 2 76 7 80 10 13 13 84 5 117
-14 39 -22 110 -26 148 -9 14 6 29 25 34 43 11 39 37 41 41 3 3 -24 7 -28 30
-26 15 2 33 0 40 -5 16 -9 42 10 43 33 0 12 3 10 9 -5 7 -18 17 -21 72 -22 40
0 76 6 98 16 31 15 35 22 38 61 3 40 5 43 28 38 13 -2 27 -1 29 3 3 4 -8 10
-23 13 -21 5 -32 0 -49 -21 -26 -30 -29 -48 -10 -55 9 -4 9 -7 0 -18 -11 -11
-15 -10 -26 6 -17 22 -40 11 -32 -16 5 -15 1 -19 -16 -19 -12 0 -28 8 -35 18
-10 14 -15 15 -25 5 -17 -17 -29 -16 -29 2 0 21 -37 19 -49 -2 -9 -16 -10 -16
-11 5 0 24 -1 25 -24 16 -9 -3 -16 -12 -16 -20 0 -8 -4 -14 -10 -14 -5 0 -10
8 -10 18 0 25 -19 42 -47 42 -21 0 -22 3 -13 21 9 16 14 18 25 9 23 -19 124
-16 185 5 30 10 62 19 70 20 8 1 43 12 77 24 34 11 69 21 78 21 8 0 15 5 15
11 0 7 10 9 26 5 19 -5 33 0 55 19 31 25 69 34 69 15z m60 -40 c0 -8 8 -26 17
-40 12 -17 13 -25 5 -28 -19 -6 -14 -24 6 -21 34 6 62 -19 62 -55 0 -44 -18
-57 -76 -56 -27 0 -72 -2 -101 -6 -30 -3 -67 -1 -87 6 l-34 11 26 39 c14 22
31 40 39 40 13 0 26 37 27 80 1 18 9 27 30 35 24 8 31 6 47 -14 10 -13 19 -34
19 -47 0 -20 -5 -24 -30 -24 -22 0 -28 -4 -23 -15 4 -11 -6 -20 -36 -32 -26
-10 -38 -20 -32 -26 5 -5 17 -4 31 3 11 6 34 12 51 12 22 1 33 8 44 32 19 38
11 101 -16 124 -14 12 -15 18 -6 24 14 9 37 -17 37 -42z m514 44 c18 -7 22
-24 5 -24 -6 0 -17 7 -25 15 -16 16 -7 19 20 9z m-40 -13 c4 -5 -3 -7 -14 -4
-23 6 -26 13 -6 13 8 0 17 -4 20 -9z m-1744 -43 c0 -5 -7 -8 -15 -8 -17 0 -18
2 -9 25 5 13 8 14 15 3 5 -7 9 -16 9 -20z m1684 -6 c-22 -21 -40 -38 -42 -37
-2 2 5 19 14 39 13 27 24 36 42 36 23 0 23 -2 -14 -38z m140 12 c3 -9 4 -19 1
-24 -3 -4 2 -13 10 -20 11 -9 18 -10 28 -1 11 8 16 5 25 -15 15 -31 15 -45 1
-21 -13 23 -46 22 -59 -2 -5 -11 -22 -21 -37 -23 l-28 -4 25 -11 c18 -9 20
-12 8 -12 -10 -1 -18 -5 -18 -10 0 -5 8 -12 18 -14 13 -4 13 -5 -4 -6 -12 0
-27 5 -33 13 -7 8 -25 17 -40 21 -29 6 -51 39 -51 75 0 37 71 67 84 35 8 -22
21 -18 34 10 13 29 27 32 36 9z m226 -49 c0 -20 -6 -25 -35 -31 -49 -9 -55 2
-11 20 20 8 36 20 36 25 0 6 2 11 5 11 3 0 5 -11 5 -25z m-2001 1 c7 -8 9 -25
6 -39 -5 -19 -2 -28 12 -36 24 -12 81 -8 112 8 17 9 21 10 16 1 -4 -7 -1 -11
6 -9 33 4 49 -2 49 -20 0 -20 -25 -31 -72 -31 -14 0 -40 -11 -56 -25 -25 -20
-40 -25 -88 -25 -42 0 -55 3 -44 10 10 6 11 10 3 10 -7 0 -13 7 -13 16 0 12 6
15 25 10 33 -8 32 2 -2 16 l-28 12 28 4 c34 4 36 22 2 22 -22 0 -25 4 -25 38
0 21 3 42 7 45 11 12 50 7 62 -7z m1601 -26 c0 -5 -8 -10 -17 -10 -15 0 -16 2
-3 10 19 12 20 12 20 0z m370 -22 c30 18 31 16 28 -35 l-3 -48 -60 -2 c-53 -2
-56 -1 -27 8 40 12 41 28 1 36 -19 4 -26 9 -18 13 8 5 4 10 -12 15 -22 7 -23
8 -4 15 10 4 32 2 47 -4 21 -8 34 -7 48 2z m-360 -12 c0 -23 -92 -37 -105 -16
-6 9 10 15 65 23 14 3 28 5 33 6 4 0 7 -5 7 -13z m-1080 -27 c-9 -15 -8 -24 1
-35 6 -8 8 -14 3 -14 -5 0 -19 -3 -31 -6 -17 -5 -23 -2 -23 10 0 9 -4 16 -10
16 -32 0 8 29 68 49 1 1 -2 -8 -8 -20z m827 3 c9 -6 7 -11 -7 -20 -17 -11 -20
-10 -20 8 0 21 7 25 27 12z m98 -24 c30 -13 32 -24 6 -38 -29 -15 -49 -12 -47
7 1 13 -6 18 -26 18 -34 -1 -35 3 -5 15 30 12 42 12 72 -2z m113 5 c-10 -2
-26 -2 -35 0 -10 3 -2 5 17 5 19 0 27 -2 18 -5z m337 -3 c-3 -5 -25 -9 -48 -9
-40 1 -40 2 -12 9 44 11 67 11 60 0z m-1471 -25 c-4 -8 -10 -12 -15 -9 -11 6
-2 24 11 24 5 0 7 -7 4 -15z m1141 0 c-11 -8 -25 -18 -30 -23 -17 -14 -85 -22
-85 -10 0 5 9 12 20 15 11 3 20 9 20 14 0 4 19 10 43 12 23 2 44 4 47 5 3 1
-4 -5 -15 -13z m55 5 c0 -5 -4 -10 -9 -10 -6 0 -13 5 -16 10 -3 6 1 10 9 10 9
0 16 -4 16 -10z m133 -30 c25 -6 17 -8 -43 -11 -41 -2 -95 -1 -120 2 -44 6
-44 6 -8 7 40 2 88 20 88 34 0 5 11 1 25 -8 14 -9 40 -20 58 -24z m-373 -16
c0 -2 -26 -4 -57 -4 l-56 0 22 24 23 24 34 -20 c19 -11 34 -22 34 -24z m610
15 c0 -13 -26 -15 -110 -11 -47 3 -75 8 -62 11 31 8 172 8 172 0z m-985 -9 c3
-5 1 -10 -4 -10 -6 0 -11 5 -11 10 0 6 2 10 4 10 3 0 8 -4 11 -10z m225 -6 c0
-2 -12 -4 -26 -4 -14 0 -23 4 -20 9 6 8 46 4 46 -5z"/>
<path d="M950 3740 c-80 -3 -144 -8 -142 -12 1 -5 5 -8 8 -7 11 2 64 -55 64
-68 0 -7 -11 -13 -24 -13 -14 0 -28 -5 -31 -10 -5 -8 43 -10 149 -9 143 1 192
10 152 25 -10 4 -16 18 -16 39 0 27 5 34 28 40 25 7 25 8 7 15 -11 5 -27 8
-35 7 -8 -1 -80 -4 -160 -7z m0 -27 c0 -5 -7 -17 -15 -27 -14 -19 -15 -19 -35
-1 -29 26 -25 35 15 35 19 0 35 -3 35 -7z m70 -14 c0 -37 -19 -61 -43 -53 -31
9 -31 10 -7 43 25 36 50 41 50 10z m48 -11 c-2 -18 -7 -33 -13 -33 -5 0 -11
15 -13 33 -3 24 1 32 13 32 12 0 16 -8 13 -32z"/>
<path d="M330 2519 c0 -6 10 -9 23 -8 30 4 69 -10 62 -22 -4 -5 -2 -9 4 -9 24
0 19 20 -8 35 -35 17 -81 20 -81 4z"/>
<path d="M1137 2833 c-12 -11 -8 -21 10 -27 10 -4 14 -4 10 0 -4 4 -2 13 4 21
9 10 8 13 -3 13 -8 0 -18 -3 -21 -7z"/>
<path d="M1184 2599 c-4 -8 1 -9 16 -4 15 5 20 4 16 -4 -4 -6 -3 -11 3 -11 17
0 21 18 5 24 -23 9 -32 7 -40 -5z"/>
<path d="M1670 2443 c0 -5 9 -19 20 -33 21 -26 27 -12 10 21 -10 19 -30 26
-30 12z"/>
<path d="M1770 2410 c0 -5 5 -10 11 -10 5 0 7 5 4 10 -3 6 -8 10 -11 10 -2 0
-4 -4 -4 -10z"/>
<path d="M1730 2355 c0 -3 11 -16 25 -29 14 -13 26 -34 26 -47 1 -21 2 -20 9
6 11 44 11 75 0 75 -5 0 -10 -8 -10 -17 -1 -17 -1 -17 -14 0 -12 16 -36 24
-36 12z"/>
<path d="M1650 2249 c0 -5 5 -7 10 -4 6 3 10 8 10 11 0 2 -4 4 -10 4 -5 0 -10
-5 -10 -11z"/>
<path d="M1393 2135 c-9 -25 2 -27 22 -5 17 18 17 20 1 20 -9 0 -19 -7 -23
-15z"/>
<path d="M1616 2099 c-3 -17 -6 -55 -6 -85 0 -114 -37 -208 -60 -150 -5 14 -7
33 -4 41 4 8 2 15 -4 15 -14 0 -23 -43 -12 -54 6 -6 10 -20 10 -33 0 -30 11
-29 44 6 24 26 28 39 36 132 6 57 12 116 15 132 6 38 -11 34 -19 -4z"/>
<path d="M1406 2091 c-4 -7 -5 -15 -2 -18 9 -9 19 4 14 18 -4 11 -6 11 -12 0z"/>
<path d="M1409 2048 c-7 -30 -8 -191 -1 -204 6 -11 10 18 10 95 0 61 -2 111
-4 111 -2 0 -4 -1 -5 -2z"/>
<path d="M1162 2308 c-7 -7 -12 -23 -12 -36 0 -29 33 -27 39 3 3 17 2 18 -14
5 -17 -14 -17 -13 -6 8 14 27 10 37 -7 20z"/>
<path d="M256 2305 c-18 -45 -18 -45 -67 -45 -27 0 -49 -4 -49 -9 0 -5 16 -22
36 -38 l35 -28 -21 -49 c-11 -27 -18 -51 -16 -53 3 -3 25 9 49 27 l45 32 42
-31 c64 -46 73 -42 49 26 -10 31 -18 57 -17 58 37 23 68 48 68 55 0 5 -21 10
-47 12 -47 3 -48 4 -61 46 -8 23 -17 42 -22 42 -4 0 -15 -20 -24 -45z m28 -36
c-3 -5 -10 -7 -15 -3 -5 3 -7 10 -3 15 3 5 10 7 15 3 5 -3 7 -10 3 -15z m-64
-44 c0 -9 -6 -12 -15 -9 -8 4 -15 10 -15 15 0 5 7 9 15 9 8 0 15 -7 15 -15z
m88 -10 c4 -29 -33 -50 -57 -33 -14 10 -16 19 -10 36 11 30 62 28 67 -3z m49
19 c-3 -3 -12 -4 -19 -1 -8 3 -5 6 6 6 11 1 17 -2 13 -5z m-26 -80 c12 -34 4
-42 -21 -19 -15 14 -17 21 -9 32 16 18 18 17 30 -13z m-87 7 c6 -10 -22 -37
-29 -29 -8 7 5 38 15 38 5 0 11 -4 14 -9z"/>
<path d="M1378 1663 c-2 -5 -1 -26 3 -48 l6 -40 2 48 c1 44 -3 57 -11 40z"/>
<path d="M590 1699 c-15 -45 -18 -47 -73 -52 -50 -6 -55 -13 -19 -31 43 -22
46 -30 22 -82 -11 -26 -18 -49 -15 -52 5 -6 56 18 86 40 14 9 26 5 68 -22 29
-18 55 -30 58 -26 4 4 -2 28 -14 55 l-20 49 44 32 c25 17 43 34 39 37 -3 3
-29 6 -58 7 l-53 1 -15 43 c-8 23 -19 42 -26 42 -6 0 -17 -18 -24 -41z m40
-41 c0 -5 -7 -8 -15 -8 -15 0 -20 21 -8 33 7 7 23 -11 23 -25z m15 -53 c0 -31
-31 -42 -55 -20 -22 20 -18 30 15 38 30 7 40 2 40 -18z m55 21 c0 -11 -19 -15
-25 -6 -3 5 1 10 9 10 9 0 16 -2 16 -4z m-136 -90 c-24 -18 -29 -14 -14 14 9
16 15 19 23 11 8 -8 6 -15 -9 -25z m109 5 c4 -17 2 -18 -13 -8 -10 6 -16 15
-14 19 9 14 22 9 27 -11z"/>
<path d="M276 1281 c-22 -63 -30 -69 -91 -73 l-50 -3 43 -24 c23 -14 42 -28
42 -32 0 -3 -7 -23 -16 -44 -8 -20 -12 -40 -9 -43 4 -4 24 3 45 16 49 28 57
28 102 -3 20 -14 40 -25 44 -25 7 0 0 54 -11 82 -5 13 5 23 44 43 73 36 69 57
-10 53 l-62 -3 -15 53 c-8 28 -20 52 -26 52 -7 0 -20 -22 -30 -49z m43 -48 c1
-7 -8 -13 -19 -13 -19 0 -19 3 -4 48 6 15 7 15 14 -3 5 -11 9 -26 9 -32z m86
-42 c-8 -13 -45 -15 -45 -2 0 5 10 11 23 13 27 5 31 3 22 -11z m-180 -1 c3 -5
2 -10 -4 -10 -5 0 -13 5 -16 10 -3 6 -2 10 4 10 5 0 13 -4 16 -10z m109 -7 c9
-21 -20 -45 -49 -41 -23 4 -33 37 -13 49 22 14 55 10 62 -8z m-74 -63 c0 -5
-4 -10 -10 -10 -5 0 -10 5 -10 10 0 6 5 10 10 10 6 0 10 -4 10 -10z m94 -6 c9
-24 8 -26 -14 -14 -11 6 -18 15 -15 21 9 14 22 11 29 -7z"/>
<path d="M876 1202 c-25 -49 -27 -51 -73 -54 -55 -3 -59 -15 -16 -44 l32 -21
-24 -52 c-13 -28 -20 -51 -14 -51 5 0 32 11 60 25 51 27 70 25 99 -9 17 -22
43 -21 36 2 -20 67 -20 68 28 98 25 16 46 32 46 36 0 9 -31 16 -80 20 -31 3
-35 6 -42 43 -13 61 -24 63 -52 7z m34 -27 c0 -16 -6 -25 -15 -25 -18 0 -18 5
-5 31 14 26 20 24 20 -6z m-80 -55 c0 -5 -4 -10 -9 -10 -6 0 -13 5 -16 10 -3
6 1 10 9 10 9 0 16 -4 16 -10z m89 -12 c10 -28 6 -38 -17 -38 -27 1 -53 26
-46 44 9 25 53 20 63 -6z m67 7 c-25 -19 -36 -19 -36 0 0 10 10 15 28 15 26
-1 26 -1 8 -15z m-128 -58 c9 -10 4 -17 -18 -30 l-28 -17 11 30 c13 33 19 36
35 17z m85 -21 c4 -10 1 -13 -9 -9 -15 6 -19 23 -5 23 5 0 11 -7 14 -14z"/>
<path d="M400 764 c0 -8 5 -12 10 -9 6 3 10 10 10 16 0 5 -4 9 -10 9 -5 0 -10
-7 -10 -16z"/>
<path d="M992 650 c0 -17 4 -28 9 -25 11 8 12 55 1 55 -5 0 -9 -14 -10 -30z"/>
<path d="M748 780 c-21 -51 -31 -56 -90 -51 -31 3 -28 -18 6 -45 l34 -27 -15
-44 c-9 -24 -12 -47 -9 -50 4 -4 27 3 52 15 l46 23 44 -36 c24 -20 48 -34 53
-30 6 3 2 29 -10 62 -10 31 -19 57 -19 59 0 1 18 13 40 25 53 30 54 53 2 46
-45 -6 -72 6 -72 33 0 25 -21 70 -32 70 -5 0 -18 -22 -30 -50z m42 -32 c0 -11
-8 -18 -19 -18 -18 0 -19 3 -9 31 8 23 13 27 19 17 5 -7 9 -21 9 -30z m-85
-49 c11 -17 -1 -21 -15 -4 -8 9 -8 15 -2 15 6 0 14 -5 17 -11z m103 -13 c6
-28 -36 -57 -60 -43 -18 12 -24 47 -11 61 15 15 68 1 71 -18z m52 10 c0 -2 -7
-6 -15 -10 -8 -3 -15 -1 -15 4 0 6 7 10 15 10 8 0 15 -2 15 -4z m-133 -93
c-21 -22 -32 -11 -17 17 9 16 15 19 23 11 8 -8 7 -16 -6 -28z m112 -3 c8 -24
7 -29 -2 -24 -26 15 -46 37 -41 45 11 19 32 8 43 -21z"/>
<path d="M101 709 c-13 -11 -21 -22 -18 -26 4 -3 13 0 21 7 28 23 39 5 12 -20
-26 -25 -36 -47 -14 -34 15 9 2 -13 -24 -42 -11 -12 -15 -24 -10 -28 14 -8 75
79 78 113 5 41 -15 54 -45 30z"/>
<path d="M174 695 c10 -8 23 -12 29 -8 11 7 -12 23 -33 23 -12 -1 -11 -4 4
-15z"/>
<path d="M469 626 c7 -9 21 -16 30 -16 9 0 22 -5 29 -12 9 -9 12 -8 12 4 0 9
-10 20 -22 23 -67 19 -64 19 -49 1z"/>
<path d="M390 588 c0 -7 5 -20 10 -28 8 -12 10 -11 10 7 0 12 -4 25 -10 28 -5
3 -10 0 -10 -7z"/>
<path d="M220 500 c-19 -37 -24 -40 -60 -40 -48 0 -53 -18 -11 -43 l29 -17
-14 -47 c-8 -25 -14 -50 -14 -55 0 -15 25 -8 64 19 l39 26 48 -26 c26 -15 50
-27 53 -27 11 0 6 27 -9 56 -21 41 -19 50 20 73 49 29 44 41 -18 41 -53 0 -54
1 -72 40 -10 22 -22 40 -26 40 -5 0 -18 -18 -29 -40z m44 -25 c3 -9 0 -15 -9
-15 -8 0 -15 7 -15 15 0 8 4 15 9 15 5 0 11 -7 15 -15z m-77 -41 c-3 -3 -12
-4 -19 -1 -8 3 -5 6 6 6 11 1 17 -2 13 -5z m98 -15 c12 -35 -25 -50 -59 -24
-26 20 -13 45 23 45 21 0 32 -6 36 -21z m55 11 c-19 -13 -30 -13 -30 0 0 6 10
10 23 10 18 0 19 -2 7 -10z m-113 -67 c4 -11 -26 -27 -35 -19 -2 3 -2 12 2 21
6 18 27 16 33 -2z m98 -31 c-2 -2 -12 2 -24 9 -15 10 -17 16 -9 27 10 11 14 9
24 -10 7 -13 11 -24 9 -26z"/>
<path d="M1508 430 c-21 -49 -22 -49 -72 -52 l-51 -3 36 -24 36 -25 -19 -44
c-11 -24 -17 -46 -14 -49 3 -4 29 6 57 22 50 27 53 27 83 11 17 -9 39 -21 48
-28 22 -16 33 -5 20 19 -5 10 -12 30 -16 45 -5 22 -1 29 29 47 48 28 44 41
-12 41 -47 0 -48 1 -66 45 -11 25 -23 45 -28 45 -5 0 -19 -22 -31 -50z m46
-25 c4 -10 -1 -15 -14 -15 -20 0 -26 11 -13 23 10 11 20 8 27 -8z m-84 -45 c0
-5 -4 -10 -10 -10 -5 0 -10 5 -10 10 0 6 5 10 10 10 6 0 10 -4 10 -10z m94 4
c22 -8 20 -31 -3 -44 -26 -13 -33 -13 -56 4 -36 26 12 58 59 40z m61 -4 c-3
-5 -11 -10 -16 -10 -6 0 -7 5 -4 10 3 6 11 10 16 10 6 0 7 -4 4 -10z m-131
-77 c-20 -15 -34 -17 -34 -5 0 16 23 30 38 25 13 -5 12 -8 -4 -20z m101 16
c10 -14 1 -21 -19 -13 -9 3 -13 10 -10 15 7 12 21 11 29 -2z"/>
<path d="M1335 157 c-4 -10 -5 -21 -1 -24 10 -10 18 4 13 24 -4 17 -4 17 -12
0z"/>
</g>
</svg>
