<?xml version="1.0" standalone="no"?>
<!DOCTYPE svg PUBLIC "-//W3C//DTD SVG 20010904//EN"
 "http://www.w3.org/TR/2001/REC-SVG-20010904/DTD/svg10.dtd">
<svg version="1.0" xmlns="http://www.w3.org/2000/svg"
 width="222.000000pt" height="377.000000pt" viewBox="0 0 222.000000 377.000000"
 preserveAspectRatio="xMidYMid meet">
<metadata>
Created by potrace 1.16, written by Peter Selinger 2001-2019
</metadata>
<g transform="translate(0.000000,377.000000) scale(0.100000,-0.100000)"
fill="#000000" stroke="none">
<path d="M31 3752 c3 -39 -13 -1802 -18 -1972 -5 -201 -8 -1135 -4 -1602 l1
-178 1089 0 1089 0 5 137 c2 76 5 365 6 643 1 278 3 516 6 529 6 34 11 2428 5
2435 -9 8 -2180 17 -2179 8z m1756 -26 c15 -14 -15 -47 -63 -71 -66 -32 -108
-85 -123 -153 -24 -116 46 -235 154 -258 45 -10 55 -22 55 -70 0 -42 -2 -45
-40 -60 -22 -9 -58 -36 -79 -61 -106 -119 -62 -308 87 -370 30 -12 32 -16 32
-64 0 -48 -2 -51 -35 -64 -89 -38 -148 -128 -149 -230 0 -92 50 -172 136 -216
33 -17 38 -24 38 -54 0 -29 -6 -37 -40 -56 -23 -13 -54 -43 -70 -67 -71 -107
-37 -257 71 -312 l39 -20 0 -95 c0 -93 0 -95 -27 -109 -39 -20 -79 -65 -97
-108 -21 -50 -20 -134 3 -184 17 -37 93 -114 113 -114 4 0 8 -35 8 -79 0 -75
-1 -78 -22 -75 -13 2 -44 6 -69 9 -43 5 -46 7 -46 37 0 40 -33 68 -82 68 l-36
0 3 60 c4 57 3 59 -22 66 -20 5 -26 12 -26 35 0 25 -4 29 -26 29 -24 0 -26 -3
-20 -30 5 -26 2 -32 -20 -40 -59 -23 -101 0 -125 68 -6 18 -15 32 -20 32 -16
0 -31 51 -19 65 6 7 10 39 9 71 -2 85 28 166 66 176 54 14 61 58 13 81 -18 8
-50 18 -70 22 -34 6 -39 5 -49 -19 -10 -22 -9 -29 5 -45 17 -18 17 -22 0 -75
-16 -51 -34 -74 -34 -44 0 11 -29 80 -51 121 -7 14 -4 20 15 28 13 6 29 22 35
35 7 15 19 24 34 24 28 0 70 37 63 55 -3 8 0 29 5 48 8 28 6 42 -9 69 -10 18
-27 38 -38 43 -10 6 -30 22 -44 36 -19 19 -40 27 -79 32 -58 7 -91 -4 -125
-42 -11 -12 -28 -21 -38 -21 -10 0 -21 -8 -25 -17 -3 -10 -14 -26 -25 -36 -30
-29 -23 -71 15 -92 26 -14 17 -30 -15 -27 -16 1 -28 -1 -28 -5 0 -5 -4 -14 -9
-22 -8 -12 -12 -12 -25 -2 -9 8 -16 22 -16 32 0 26 -37 25 -45 -1 -3 -11 -12
-20 -19 -20 -18 0 -41 -28 -32 -38 4 -4 14 1 21 11 9 13 15 15 20 6 8 -12 -11
-29 -32 -29 -7 0 -31 -18 -53 -39 -28 -27 -47 -37 -61 -34 -11 3 -19 0 -19 -7
0 -6 -8 -9 -18 -6 -9 3 -23 1 -31 -3 -13 -8 -13 -12 -1 -26 13 -15 12 -20 -8
-36 l-23 -18 36 -3 36 -3 -36 -55 c-19 -30 -35 -65 -35 -77 0 -13 -5 -23 -11
-23 -6 0 -24 -9 -41 -21 -28 -20 -28 -22 -12 -40 16 -18 16 -19 -9 -19 -15 0
-27 -5 -27 -10 0 -6 11 -8 23 -6 37 7 53 -8 40 -36 -7 -13 -17 -41 -23 -63 -7
-22 -19 -51 -28 -65 -13 -20 -15 -53 -14 -167 1 -82 -2 -143 -8 -143 -10 0
-25 20 -25 35 0 6 -7 10 -15 10 -10 0 -16 12 -18 34 -4 39 18 40 29 0 6 -22 7
-21 8 8 1 17 -3 35 -9 38 -5 3 -10 25 -11 48 -1 75 -13 122 -31 121 -14 -1
-16 5 -12 30 l4 31 -14 -35 c-8 -19 -15 -30 -17 -25 -1 6 -5 -23 -9 -62 -3
-40 -9 -75 -12 -78 -3 -3 -18 -3 -33 1 -24 6 -27 10 -22 40 5 31 3 34 -19 34
-15 0 -24 -6 -24 -15 0 -8 -7 -15 -15 -15 -8 0 -15 6 -15 14 0 11 -49 34 -54
24 0 -2 -7 -13 -14 -25 -7 -14 -8 -23 -2 -23 5 0 10 5 10 11 0 8 5 7 15 -1 14
-12 14 -15 0 -30 -22 -25 -19 -29 28 -32 37 -3 42 -6 45 -30 3 -25 2 -26 -32
-18 -19 4 -42 15 -51 24 -15 14 -19 15 -38 1 -38 -27 -47 -19 -47 40 0 35 -4
55 -12 55 -8 0 -9 70 -5 277 13 546 22 1328 27 2560 0 5 1733 -6 1737 -11z
m123 -8 c0 -19 -2 -20 -10 -8 -7 11 -8 5 -4 -20 l7 -35 -27 24 c-24 23 -37 49
-17 37 5 -3 11 1 15 9 9 24 36 18 36 -7z m25 -10 c-4 -18 -12 -37 -17 -43 -10
-10 -2 49 9 68 10 17 14 5 8 -25z m16 -29 c-5 -26 -9 -34 -10 -19 -1 27 9 73
15 67 2 -2 0 -23 -5 -48z m89 32 c11 -22 14 -158 3 -147 -5 4 -8 36 -8 71 0
37 -6 69 -14 79 -8 10 -9 16 -3 16 6 0 16 -9 22 -19z m31 17 c1 -2 5 -52 9
-113 l7 -110 3 115 c3 113 3 114 10 45 10 -97 10 -372 0 -320 -4 22 -6 61 -4
87 3 29 0 49 -7 54 -9 5 -11 -17 -6 -96 8 -133 0 -225 -19 -209 -10 8 -13 32
-12 73 l1 61 7 -65 c5 -47 6 -24 6 80 0 80 -1 116 -3 80 -2 -36 -8 -69 -14
-75 -5 -5 -8 -59 -8 -120 1 -75 4 -99 9 -75 7 34 7 35 8 5 1 -16 -5 -41 -12
-54 -13 -24 -14 -24 -17 20 -5 52 5 198 20 323 11 89 8 114 -9 86 -8 -13 -10
-13 -10 1 0 8 -14 37 -32 65 -37 57 -40 68 -31 109 l7 30 7 -30 c5 -24 7 -25
8 -7 1 23 15 29 26 11 4 -6 7 -35 6 -65 0 -30 3 -64 7 -75 7 -19 9 -19 21 -5
13 16 17 148 5 167 -3 5 0 9 5 9 6 0 12 -1 12 -2z m67 -153 c-2 -85 0 -155 5
-155 4 0 7 -7 7 -15 0 -8 -7 -15 -15 -15 -13 0 -15 26 -15 170 0 114 4 170 11
170 7 0 9 -50 7 -155z m31 71 c-2 -46 -1 -82 4 -79 4 2 7 40 7 84 0 47 4 79
10 79 7 0 8 -42 4 -126 -5 -105 -9 -129 -25 -145 -19 -19 -19 -16 -19 126 0
99 3 145 11 145 7 0 10 -27 8 -84z m-354 44 c3 -5 -1 -10 -10 -10 -9 0 -13 5
-10 10 3 6 8 10 10 10 2 0 7 -4 10 -10z m114 -89 c23 -18 49 -47 57 -63 20
-39 21 -126 1 -163 -46 -89 -158 -129 -243 -89 -189 90 -121 365 87 352 45 -3
64 -10 98 -37z m248 -176 c-7 -13 -14 -20 -15 -14 -2 5 2 16 8 24 18 21 20 18
7 -10z m20 -55 c1 -28 -2 -50 -6 -50 -14 0 -31 24 -30 45 0 19 1 19 9 -2 14
-34 19 -28 13 17 -3 22 -2 40 3 40 5 0 10 -23 11 -50z m-58 -43 c1 7 7 10 14
8 9 -4 12 -71 14 -280 1 -151 -2 -273 -6 -271 -9 6 -4 -90 10 -165 8 -50 3
-348 -7 -358 -4 -5 -9 183 -6 234 1 24 0 27 -8 13 -7 -11 -7 -76 0 -199 8
-131 7 -185 -1 -195 -7 -8 -8 -33 -4 -69 6 -45 4 -59 -9 -74 -11 -13 -17 -37
-18 -72 0 -29 -4 -62 -8 -73 -6 -14 -9 1 -9 50 -1 47 4 77 14 90 25 33 16 39
-15 9 -22 -21 -30 -24 -30 -13 0 9 6 18 14 21 8 3 20 16 27 29 12 23 12 23 -9
4 -12 -10 -28 -16 -36 -13 -12 5 -13 -1 -9 -30 5 -27 3 -34 -6 -29 -9 6 -10
28 -5 79 6 72 16 98 28 78 4 -6 2 -11 -3 -11 -14 0 -14 -57 -1 -65 16 -10 40
14 33 32 -4 11 -8 11 -13 3 -4 -7 -10 -8 -13 -3 -3 5 3 14 14 21 20 13 23 10
42 -48 2 -8 3 -1 0 15 -2 17 -4 126 -4 242 0 149 -3 212 -11 210 -6 -1 -13 4
-15 11 -3 6 2 12 11 12 9 0 19 15 25 38 16 55 12 73 -6 25 -10 -29 -20 -43
-33 -43 -39 0 -55 135 -22 193 9 18 18 33 19 35 1 2 11 -1 22 -8 15 -8 21 -20
20 -43 -1 -30 -1 -30 -8 -7 -16 58 -61 9 -61 -67 0 -46 14 -93 29 -93 12 0 31
55 32 94 0 26 2 28 9 11 6 -14 9 -2 9 42 1 51 -3 66 -20 82 -17 15 -20 26 -14
48 4 15 7 143 7 283 0 143 3 244 8 230 4 -14 8 -20 9 -13z m-127 -157 l-9 -85
-2 126 c0 69 2 129 7 133 11 12 14 -81 4 -174z m184 -144 c4 -183 2 -266 -5
-266 -8 0 -11 84 -11 259 0 143 -3 268 -6 278 -5 14 -4 15 5 7 9 -8 14 -88 17
-278z m-219 177 c-2 -21 -4 -6 -4 32 0 39 2 55 4 38 2 -18 2 -50 0 -70z m-5
-70 c12 -15 5 -28 -11 -18 -7 4 -10 37 -9 83 l2 77 3 -65 c2 -35 9 -70 15 -77z
m-32 52 c0 -36 -3 -46 -10 -35 -5 8 -10 38 -10 65 0 36 3 46 10 35 5 -8 10
-37 10 -65z m168 -52 c-1 -111 -2 -118 -7 -53 -3 41 -4 99 -3 128 7 95 12 54
10 -75z m-198 76 c0 -10 -4 -19 -10 -19 -5 0 -10 12 -10 26 0 14 4 23 10 19 6
-3 10 -15 10 -26z m-73 -56 c-3 -10 -5 -2 -5 17 0 19 2 27 5 18 2 -10 2 -26 0
-35z m240 -15 c-3 -8 -6 -5 -6 6 -1 11 2 17 5 13 3 -3 4 -12 1 -19z m-151 -43
c117 -34 177 -169 125 -280 -67 -145 -272 -156 -356 -20 -70 113 -12 267 115
303 49 14 60 14 116 -3z m166 -67 c2 -25 0 -44 -4 -41 -5 2 -7 30 -7 61 1 62
6 53 11 -20z m-22 31 c0 -11 -4 -18 -10 -14 -5 3 -7 12 -3 20 7 21 13 19 13
-6z m29 -241 c-7 -21 -16 -38 -20 -38 -4 0 -1 16 7 35 7 19 15 63 16 97 l2 63
4 -60 c2 -33 -2 -77 -9 -97z m-29 -62 c0 -2 -7 -19 -16 -37 -11 -25 -14 -27
-10 -9 3 14 6 31 6 38 0 6 5 12 10 12 6 0 10 -2 10 -4z m107 -28 c-3 -8 -6 -5
-6 6 -1 11 2 17 5 13 3 -3 4 -12 1 -19z m-150 -60 c-2 -13 -4 -5 -4 17 -1 22
1 32 4 23 2 -10 2 -28 0 -40z m93 41 c0 -6 -7 -17 -15 -25 -16 -16 -19 -7 -9
20 7 18 24 22 24 5z m-113 -116 c-2 -21 -4 -4 -4 37 0 41 2 58 4 38 2 -21 2
-55 0 -75z m-17 26 c0 -44 -4 -68 -10 -64 -5 3 -10 35 -10 71 0 36 4 64 10 64
6 0 10 -30 10 -71z m-32 -1 l-1 -63 -6 55 c-4 30 -5 58 -3 63 9 19 12 2 10
-55z m-39 25 c2 43 21 21 21 -24 0 -25 -4 -38 -10 -34 -6 4 -8 11 -5 16 3 5
-1 6 -9 3 -13 -5 -16 1 -15 32 1 38 2 38 9 9 l8 -30 1 28z m-72 -20 c-3 -10
-5 -4 -5 12 0 17 2 24 5 18 2 -7 2 -21 0 -30z m260 -19 c3 -8 1 -20 -4 -25 -7
-7 -12 -2 -15 15 -6 28 9 36 19 10z m-80 -36 c-3 -7 -5 -2 -5 12 0 14 2 19 5
13 2 -7 2 -19 0 -25z m73 -103 c0 -15 -4 -24 -10 -20 -5 3 -10 21 -10 40 0 19
-6 38 -13 42 -8 4 -17 22 -21 38 -5 23 0 19 24 -22 16 -29 30 -64 30 -78z
m-119 43 c62 -34 104 -107 103 -178 -2 -121 -89 -210 -207 -211 -123 -1 -204
74 -214 197 -6 68 13 118 64 166 66 63 169 74 254 26z m87 -6 c6 -18 -15 -14
-22 4 -4 10 -1 14 6 12 6 -2 14 -10 16 -16z m49 -104 c-2 -13 -4 -5 -4 17 -1
22 1 32 4 23 2 -10 2 -28 0 -40z m3 -218 c0 -79 0 -80 -21 -69 -12 6 -29 9
-39 6 -11 -3 -21 2 -24 10 -4 11 -2 13 9 9 10 -4 15 1 16 17 1 21 1 21 9 -3 8
-25 8 -25 9 -2 1 13 5 21 10 18 5 -3 7 -15 4 -26 -3 -12 0 -20 7 -20 8 0 11
19 10 63 -3 70 -2 77 5 77 3 0 5 -36 5 -80z m53 -113 c-5 -75 -10 -102 -24
-119 -11 -11 -19 -16 -19 -11 0 6 7 16 16 24 11 9 15 28 13 63 -2 49 10 150
17 144 1 -2 0 -47 -3 -101z m-148 -14 c5 -50 3 -73 -4 -73 -7 0 -11 28 -11 77
0 42 2 74 4 72 2 -2 7 -37 11 -76z m-28 -25 c-2 -18 -4 -6 -4 27 0 33 2 48 4
33 2 -15 2 -42 0 -60z m-17 26 c0 -27 -4 -43 -10 -39 -5 3 -10 24 -10 46 0 21
5 39 10 39 6 0 10 -21 10 -46z m-33 -16 c-2 -13 -4 -5 -4 17 -1 22 1 32 4 23
2 -10 2 -28 0 -40z m-107 16 c0 -8 -4 -14 -10 -14 -5 0 -10 9 -10 21 0 11 5
17 10 14 6 -3 10 -13 10 -21z m90 11 c0 -8 -4 -15 -10 -15 -5 0 -10 7 -10 15
0 8 5 15 10 15 6 0 10 -7 10 -15z m13 -89 c46 -20 94 -75 107 -123 20 -79 -20
-167 -92 -202 -88 -42 -177 -20 -233 58 -100 141 58 336 218 267z m247 -28 c0
-12 -3 -18 -7 -14 -5 4 -13 -23 -19 -61 l-11 -68 -2 58 c-1 41 4 65 17 82 21
30 22 30 22 3z m0 -105 c-1 -55 -3 -73 -10 -61 -9 14 -3 138 6 138 2 0 4 -35
4 -77z m-1020 -23 c0 -5 -2 -10 -4 -10 -3 0 -8 5 -11 10 -3 6 -1 10 4 10 6 0
11 -4 11 -10z m-190 -10 c0 -5 -5 -10 -11 -10 -5 0 -7 5 -4 10 3 6 8 10 11 10
2 0 4 -4 4 -10z m1160 -41 c0 -21 -4 -39 -10 -39 -5 0 -10 21 -10 46 0 27 4
43 10 39 6 -3 10 -24 10 -46z m-21 -242 c1 -87 3 -98 18 -95 9 2 21 18 26 38
9 33 10 34 19 13 9 -18 5 -26 -21 -52 -18 -17 -36 -29 -41 -26 -5 3 -9 -26 -8
-65 0 -39 -2 -74 -6 -77 -3 -4 -7 54 -7 128 -3 202 -7 319 -13 335 -3 7 -1 16
4 19 6 4 11 18 12 33 2 47 16 -149 17 -251z m52 158 c2 -74 3 -76 9 -30 l7 50
1 -65 c2 -60 0 -66 -18 -66 -19 0 -20 7 -20 111 0 129 19 129 21 0z m-1141 85
c0 -5 -4 -10 -10 -10 -5 0 -10 5 -10 10 0 6 5 10 10 10 6 0 10 -4 10 -10z
m-80 -10 c0 -5 -4 -10 -10 -10 -5 0 -10 5 -10 10 0 6 5 10 10 10 6 0 10 -4 10
-10z m120 6 c0 -3 -4 -8 -10 -11 -5 -3 -10 -1 -10 4 0 6 5 11 10 11 6 0 10 -2
10 -4z m61 -39 c-10 -9 -11 -8 -5 6 3 10 9 15 12 12 3 -3 0 -11 -7 -18z m-38
-5 c-6 -14 -25 -12 -30 4 -2 5 5 10 16 10 11 0 17 -5 14 -14z m97 3 c11 7 35
-18 40 -40 1 -5 6 -16 12 -22 8 -10 5 -13 -10 -13 -12 0 -28 -12 -38 -29 -11
-19 -23 -27 -32 -23 -11 4 -14 1 -9 -11 7 -20 -13 -23 -31 -5 -6 6 -15 8 -19
4 -4 -4 0 -12 9 -17 19 -10 13 -49 -7 -49 -19 0 -77 70 -71 86 3 8 1 14 -4 14
-15 0 -12 -46 5 -86 14 -33 11 -64 -5 -64 -4 0 -10 20 -12 45 -3 25 -17 63
-31 84 -25 38 -26 39 -7 56 11 10 28 15 40 12 17 -4 20 -2 15 14 -4 11 -2 19
4 19 6 0 11 -7 11 -15 0 -27 44 -16 75 19 21 23 34 30 42 24 7 -5 17 -7 23 -3z
m957 -205 c8 -19 4 -52 -8 -65 -5 -5 -8 46 -7 130 2 113 3 122 5 45 2 -52 6
-102 10 -110z m-60 -110 c0 -87 -1 -96 -7 -55 -5 28 -8 120 -7 205 0 152 0
153 7 55 4 -55 8 -147 7 -205z m-25 100 c2 -88 0 -160 -3 -160 -15 0 -19 39
-19 176 0 200 18 187 22 -16z m-1092 75 c12 -19 25 -56 28 -82 9 -58 31 -67
66 -26 l24 28 -11 -42 c-7 -26 -18 -43 -29 -46 -10 -3 -18 -14 -18 -26 0 -12
-4 -21 -10 -21 -5 0 -9 3 -9 8 4 21 -3 32 -18 32 -13 0 -14 -3 -5 -12 18 -18
15 -33 -3 -18 -9 7 -15 20 -14 29 1 9 -1 23 -4 31 -18 47 -28 91 -22 100 3 6
-1 13 -9 16 -9 3 -16 14 -16 23 0 9 -5 22 -11 28 -6 6 -8 16 -5 22 11 17 41
-3 66 -44z m1060 -77 c0 -72 -3 -128 -7 -125 -12 12 -16 257 -4 257 7 0 11
-42 11 -132z m-33 75 c-3 -10 -5 -4 -5 12 0 17 2 24 5 18 2 -7 2 -21 0 -30z
m-17 -69 c0 -46 -4 -84 -8 -84 -4 0 -9 41 -10 91 -2 60 1 88 8 84 5 -3 10 -43
10 -91z m-1050 12 c0 -17 -38 25 -44 47 -4 18 -1 16 19 -8 13 -17 24 -34 25
-39z m900 -85 c-5 -17 -8 6 -8 64 l1 90 7 -64 c4 -36 4 -76 0 -90z m39 52 c1
-36 -3 -63 -9 -63 -6 0 -10 34 -9 83 1 97 17 79 18 -20z m26 88 c3 -5 1 -12
-5 -16 -5 -3 -10 1 -10 9 0 18 6 21 15 7z m55 -47 c0 -30 -4 -53 -9 -50 -12 8
-12 106 0 106 5 0 9 -25 9 -56z m-660 21 c8 -10 21 -13 37 -9 23 6 24 5 13
-15 -7 -14 -17 -20 -27 -17 -8 3 -26 9 -39 12 -15 4 -24 13 -24 25 0 23 23 25
40 4z m713 -77 c3 -45 2 -78 -4 -78 -5 0 -9 37 -9 82 0 45 2 79 4 77 2 -2 6
-39 9 -81z m187 69 c0 -8 -7 -14 -15 -14 -16 0 -19 9 -8 20 11 11 23 8 23 -6z
m-290 -35 c-5 -2 -10 -11 -10 -20 0 -15 2 -15 10 -2 9 13 10 13 10 -1 0 -8 -7
-24 -15 -35 -13 -17 -14 -14 -14 41 0 56 1 59 15 40 9 -12 11 -21 4 -23z
m-526 3 c-6 -16 -24 -21 -24 -7 0 11 11 22 21 22 5 0 6 -7 3 -15z m-93 -95
c-14 -46 -27 -70 -37 -70 -17 0 -15 10 18 103 15 41 24 55 31 48 8 -8 4 -32
-12 -81z m-412 41 c29 -22 40 -80 33 -166 -4 -60 -6 -64 -31 -67 -29 -3 -41
-39 -22 -62 8 -10 7 -17 -5 -26 -37 -31 -69 -160 -40 -160 9 0 12 7 9 20 -11
43 8 92 55 141 26 27 50 49 54 49 4 0 -9 -24 -29 -52 -29 -44 -34 -59 -30 -90
3 -21 1 -38 -4 -38 -5 0 -14 -11 -19 -25 -19 -50 -80 -20 -81 40 -1 33 18 95
34 113 18 20 36 83 19 67 -5 -5 -12 -19 -14 -29 -7 -41 -23 -25 -21 21 2 41 0
37 -13 -27 -8 -41 -18 -94 -21 -117 -5 -46 -21 -55 -40 -23 -9 14 -10 27 -3
45 6 15 10 44 10 66 0 22 9 57 19 77 11 20 24 48 29 62 5 14 14 37 21 53 7 17
7 27 1 27 -6 0 -13 -13 -16 -30 -4 -16 -10 -30 -15 -30 -5 0 -9 -8 -9 -18 0
-9 -9 -34 -20 -55 -12 -22 -20 -57 -20 -84 0 -30 -4 -42 -9 -33 -12 23 8 221
27 259 9 19 25 36 34 39 23 6 23 18 1 27 -16 6 -16 8 6 26 29 24 79 24 110 0z
m1071 -5 c0 -2 3 -11 6 -20 3 -9 1 -16 -5 -16 -6 0 -11 7 -11 16 0 14 -3 14
-15 4 -13 -11 -14 -10 -9 4 5 14 34 24 34 12z m236 -58 c-9 -13 -16 -45 -17
-73 -1 -39 -3 -44 -8 -25 -5 14 -6 41 -3 60 6 38 34 89 40 72 2 -6 -4 -22 -12
-34z m-980 -5 c6 -30 4 -39 -12 -48 -23 -13 -63 -54 -87 -89 -29 -42 -29 -26
-2 29 14 26 25 61 25 77 0 30 30 68 55 68 8 0 17 -14 21 -37z m-556 -5 c0 -7
-10 -42 -23 -78 -17 -50 -27 -66 -44 -68 -20 -3 -21 -1 -11 37 6 23 14 41 18
41 4 0 15 18 25 40 18 39 35 53 35 28z m420 -3 c-7 -9 -15 -13 -17 -11 -7 7 7
26 19 26 6 0 6 -6 -2 -15z m935 -22 c120 -83 108 -270 -20 -337 -61 -32 -144
-28 -198 10 -135 94 -105 305 50 354 48 16 124 3 168 -27z m180 -162 c-13 -14
-15 -14 -15 1 0 9 5 20 11 24 8 4 10 29 7 73 -3 36 -3 73 1 81 3 8 7 -25 9
-74 2 -70 -1 -93 -13 -105z m-972 118 c-18 -5 -33 -14 -33 -19 0 -5 13 -5 32
1 54 15 76 9 28 -8 -59 -20 -64 -26 -17 -21 42 4 51 -8 12 -18 -14 -3 -25 -11
-25 -16 0 -6 8 -7 18 -3 9 4 23 9 30 12 6 3 12 1 12 -5 0 -6 -14 -15 -32 -21
-17 -6 -37 -20 -45 -31 -7 -10 -29 -22 -48 -26 -19 -3 -35 -12 -35 -19 0 -29
-104 -105 -145 -105 -20 0 -20 47 0 98 14 34 23 41 70 56 37 11 62 27 77 47
51 68 76 89 105 88 l28 -1 -32 -9z m944 -104 c5 -50 5 -130 2 -180 -6 -102
-10 -91 -14 40 -1 50 -6 126 -10 170 -5 58 -5 77 4 70 6 -6 14 -51 18 -100z
m-1267 -15 c-19 -13 -30 -13 -30 0 0 6 10 10 23 10 18 0 19 -2 7 -10z m331
-39 c-18 -33 -13 -44 11 -27 29 20 38 20 38 0 0 -11 -6 -15 -20 -11 -11 3 -20
1 -20 -4 0 -17 -25 -9 -38 12 -12 18 -11 24 10 46 24 26 36 17 19 -16z m39 29
c0 -5 -5 -10 -11 -10 -5 0 -7 5 -4 10 3 6 8 10 11 10 2 0 4 -4 4 -10z m870
-120 c0 -71 -4 -110 -11 -110 -7 0 -10 30 -9 83 4 164 20 187 20 27z m-1549
73 c13 -36 5 -53 -26 -53 -26 0 -27 10 -9 68 6 21 24 13 35 -15z m729 -14 c0
-6 -4 -7 -10 -4 -5 3 -10 11 -10 16 0 6 5 7 10 4 6 -3 10 -11 10 -16z m874
-147 c-5 -81 -10 -127 -12 -102 -5 55 9 280 16 262 2 -8 0 -80 -4 -160z
m-1265 108 c-15 -71 -19 -78 -30 -59 -9 17 4 72 24 97 15 19 17 10 6 -38z
m224 28 c-12 -13 -24 -38 -28 -56 -7 -35 -21 -38 -39 -9 -9 14 -4 24 24 51 40
39 77 50 43 14z m97 -22 c32 16 34 16 50 -2 9 -10 30 -31 46 -46 27 -26 31
-26 57 -13 15 7 27 12 27 10 0 -3 11 0 25 5 22 8 25 7 25 -11 0 -14 -6 -19
-20 -17 -10 2 -19 -1 -19 -7 0 -5 16 -9 35 -7 23 2 34 -1 29 -7 -3 -6 -16 -11
-29 -11 -12 0 -27 -5 -33 -11 -9 -9 -18 -8 -38 5 -14 10 -32 15 -38 13 -7 -2
5 -13 26 -23 32 -15 41 -16 58 -5 23 14 34 9 26 -12 -5 -15 -73 -12 -83 4 -3
5 -16 9 -28 9 -33 0 -170 46 -174 58 -2 6 2 21 8 33 7 12 8 19 2 15 -6 -3 -13
0 -15 6 -4 8 -8 4 -12 -9 -4 -13 -11 -23 -16 -23 -5 0 -6 7 -4 15 16 49 13 47
38 30 21 -14 27 -14 57 1z m860 -66 c0 -40 -4 -70 -10 -70 -11 0 -14 98 -4
124 11 29 14 17 14 -54z m-1458 37 c-7 -8 -8 -17 -4 -22 4 -4 -9 -4 -28 0 -19
4 -47 8 -62 9 -16 1 -28 6 -27 11 1 11 25 10 73 -1 21 -5 31 -3 38 10 6 10 12
15 15 12 3 -3 1 -12 -5 -19z m289 -90 c-8 -8 -11 1 -11 30 0 64 14 87 18 29 2
-27 -2 -54 -7 -59z m606 62 c-3 -11 -2 -19 3 -19 4 0 7 -14 6 -31 -1 -22 -9
-37 -26 -47 l-25 -16 25 28 c24 28 24 28 3 17 -15 -8 -23 -8 -23 -1 0 5 4 10
9 10 15 0 21 29 11 54 -9 25 -4 39 12 30 5 -4 8 -15 5 -25z m533 -46 l0 -56
-25 23 -25 23 -23 -21 c-13 -12 -26 -20 -29 -17 -2 3 -4 -24 -3 -61 1 -36 -2
-67 -7 -70 -4 -3 -8 22 -8 55 0 32 -3 66 -6 74 -3 8 3 22 12 32 12 11 19 14
22 6 5 -16 22 -14 22 4 0 9 6 12 15 9 10 -4 15 0 16 12 0 18 1 17 9 -1 8 -18
9 -18 9 6 1 23 8 39 18 39 2 0 3 -26 3 -57z m-1456 26 c8 -8 -2 -10 -42 -7
-29 3 -59 11 -65 18 -10 10 -1 11 42 7 30 -4 59 -12 65 -18z m400 -38 c-16
-15 -16 -15 -9 4 4 11 10 29 13 40 6 18 7 18 10 -4 2 -13 -4 -31 -14 -40z
m-474 -21 c0 -19 5 -30 14 -30 8 0 29 -19 45 -42 38 -53 88 -93 143 -116 59
-25 93 -20 177 25 48 25 103 29 139 9 18 -10 37 -10 85 -1 l62 11 7 42 c4 23
15 59 25 79 28 59 28 12 -1 -77 -27 -85 -17 -79 -156 -83 -100 -3 -170 -30
-237 -91 l-53 -48 -49 16 c-65 21 -78 20 -84 -5 -5 -19 -11 -21 -47 -15 -50 8
-92 28 -121 59 -20 21 -21 29 -15 142 4 80 3 115 -4 105 -8 -13 -10 -13 -10 1
0 9 9 28 21 43 17 21 24 24 40 16 12 -7 19 -21 19 -40z m445 30 c-19 -21 -35
-18 -35 6 0 9 10 14 27 14 25 0 26 -1 8 -20z m-82 -10 c4 -16 0 -20 -19 -20
-36 0 -30 35 7 39 4 1 9 -8 12 -19z m934 -122 c-2 -24 -4 -7 -4 37 0 44 2 63
4 43 2 -21 2 -57 0 -80z m43 -28 c5 0 9 17 8 38 -1 20 0 53 2 72 l2 35 8 -30
c9 -36 12 -120 4 -127 -3 -3 -14 -4 -25 -1 -17 5 -19 14 -17 82 l2 76 3 -72
c2 -40 8 -73 13 -73z m49 0 c-5 -9 -8 16 -7 65 l1 80 7 -65 c4 -36 4 -72 -1
-80z m-1547 58 c4 -98 -3 -142 -25 -146 -11 -2 -17 3 -17 16 0 27 -21 33 -43
14 -24 -22 -67 -2 -67 32 0 29 21 39 56 26 50 -19 54 -15 54 60 0 62 2 70 19
70 17 0 20 -9 23 -72z m991 52 c11 -10 -18 -66 -38 -74 -35 -13 -46 -7 -40 22
l6 27 -15 -25 c-15 -24 -15 -24 -16 -3 0 12 5 25 10 28 6 3 10 15 10 26 0 18
5 19 38 13 20 -3 41 -10 45 -14z m669 3 c14 -12 18 -29 17 -72 -1 -31 -4 -42
-6 -26 -8 73 -14 93 -28 99 -17 6 -49 -48 -41 -70 3 -8 0 -14 -6 -14 -15 0 -2
59 19 82 20 22 22 22 45 1z m121 -112 c4 -69 3 -101 -4 -94 -10 10 -20 189
-11 198 8 8 9 5 15 -104z m-713 95 c0 -2 -13 -9 -30 -15 -24 -8 -30 -7 -30 5
0 9 10 14 30 14 17 0 30 -2 30 -4z m181 -6 c13 -8 19 -21 19 -45 0 -31 -6 -39
-71 -84 -39 -28 -97 -60 -128 -72 -62 -24 -168 -35 -190 -21 -20 14 -17 60 6
90 24 32 111 97 119 89 16 -16 -11 -45 -56 -61 -60 -22 -64 -36 -10 -36 38 0
39 -1 30 -26 -22 -58 -10 -58 66 1 48 37 65 45 101 45 32 0 43 4 43 15 0 8 -7
15 -15 15 -23 0 -18 13 15 45 34 32 31 49 -6 35 -34 -13 -39 -13 -24 5 14 17
72 20 101 5z m404 -31 c4 -22 4 -43 1 -46 -3 -4 -6 6 -6 20 0 28 -14 37 -23
15 -4 -8 -6 -7 -6 4 -1 22 9 48 19 48 5 0 11 -18 15 -41z m65 -20 c0 -36 -4
-49 -14 -49 -11 0 -14 12 -11 53 4 63 3 60 15 52 6 -3 10 -28 10 -56z m-620
32 c0 -24 -18 -31 -50 -19 l-25 10 30 14 c40 18 45 17 45 -5z m650 -42 c0 -37
-4 -58 -10 -54 -5 3 -10 31 -10 61 0 30 5 54 10 54 6 0 10 -27 10 -61z m-1955
41 c3 -5 1 -10 -4 -10 -6 0 -11 5 -11 10 0 6 2 10 4 10 3 0 8 -4 11 -10z m72
-43 c-3 -8 -19 -11 -46 -9 -43 4 -47 22 -5 22 14 0 27 7 31 16 5 15 7 15 15
-1 5 -9 8 -22 5 -28z m-210 -29 c-3 -8 -6 -5 -6 6 -1 11 2 17 5 13 3 -3 4 -12
1 -19z m1433 12 c22 -13 3 -28 -48 -36 -36 -6 -41 -4 -36 9 3 9 18 20 32 26
35 12 34 12 52 1z m45 -20 c3 -5 -1 -10 -10 -10 -9 0 -13 5 -10 10 3 6 8 10
10 10 2 0 7 -4 10 -10z m218 4 c57 -10 29 -34 -39 -34 -55 0 -68 11 -36 29 20
12 26 13 75 5z m-489 -54 c-37 -74 32 -125 138 -103 43 9 54 8 61 -3 6 -11 41
-14 159 -14 142 0 153 1 175 22 18 17 23 32 23 75 l0 53 153 0 152 0 38 -65
c48 -82 48 -96 1 -88 -28 5 -40 2 -50 -11 -11 -16 -15 -15 -55 13 -36 27 -50
31 -106 31 -65 0 -123 -18 -155 -47 -16 -14 -50 -17 -226 -19 -114 -1 -228 0
-254 3 -45 5 -48 7 -58 43 -6 22 -22 47 -36 58 l-27 19 38 36 c21 21 40 36 42
34 2 -2 -4 -19 -13 -37z m-1082 0 c9 0 32 -7 52 -15 20 -8 36 -12 36 -8 0 4 5
2 11 -4 15 -15 -15 -59 -46 -67 -22 -6 -77 15 -76 28 3 24 -2 32 -26 43 -22
11 -29 10 -45 -4 -10 -9 -18 -27 -18 -40 0 -12 -4 -23 -10 -23 -5 0 -10 18
-10 40 0 38 3 42 42 59 37 16 45 17 59 5 8 -8 23 -14 31 -14z m1268 16 c0 -9
-61 -48 -66 -43 -13 12 18 47 41 47 14 0 25 -2 25 -4z m307 -20 c0 0 3 -23 5
-49 l3 -49 -145 2 c-79 0 -146 3 -148 5 -2 2 18 15 45 29 26 13 64 36 83 49
30 21 43 24 95 20 33 -3 61 -6 62 -7z m-568 -40 c38 -29 47 -43 72 -120 16
-48 38 -99 48 -114 11 -15 38 -59 60 -99 45 -79 53 -87 91 -87 20 -1 26 -7 28
-28 2 -16 -1 -28 -7 -28 -16 0 -58 -43 -66 -69 -5 -16 -4 -21 4 -17 6 4 11 14
11 21 0 17 36 38 50 30 16 -10 12 -23 -17 -50 -28 -25 -22 -35 8 -12 27 20 40
52 27 65 -9 9 -9 12 0 12 7 0 12 8 12 19 0 15 11 20 58 26 68 8 141 10 148 2
9 -9 -21 -47 -33 -42 -7 2 -12 -1 -10 -8 1 -7 -4 -11 -10 -10 -7 2 -13 -1 -13
-7 0 -5 -7 -7 -15 -4 -10 4 -15 0 -15 -12 0 -16 -2 -17 -11 -4 -8 11 -12 12
-16 2 -2 -6 -9 -10 -14 -6 -5 3 -9 -3 -9 -12 0 -16 -1 -16 -15 2 -14 18 -14
18 -15 -5 0 -13 -3 -22 -6 -19 -3 4 -22 -5 -41 -18 -41 -28 -106 -34 -97 -9 5
11 -1 15 -19 15 -18 0 -26 6 -30 25 -4 24 -3 24 13 10 16 -15 40 -20 40 -9 0
3 -7 12 -16 21 -8 9 -13 22 -10 30 3 8 2 11 -4 8 -11 -7 -32 29 -22 40 4 5 1
5 -5 1 -8 -4 -13 -1 -13 7 0 8 -15 20 -32 28 -18 7 -60 32 -94 56 -62 43 -76
65 -107 163 -10 32 -19 45 -33 46 -26 2 -197 63 -209 75 -15 15 46 69 107 95
37 16 73 23 118 23 58 0 70 -3 109 -33z m-1054 -77 c-6 -28 7 -40 20 -19 8 13
35 1 35 -16 0 -12 -14 -14 -65 -11 -36 2 -67 6 -70 9 -3 3 -1 17 5 32 8 23 13
25 30 16 16 -8 20 -8 20 4 0 8 -7 22 -16 30 -12 13 -13 18 -2 30 19 20 51 -36
43 -75z m184 54 c-34 -40 -95 -77 -110 -67 -15 9 -1 21 31 27 19 4 34 16 41
31 10 22 40 44 63 45 4 1 -7 -16 -25 -36z m53 11 c-12 -8 -22 -20 -22 -25 0
-6 -10 -25 -23 -43 -19 -29 -24 -32 -36 -18 -12 12 -12 16 2 24 10 5 17 16 17
24 0 8 15 23 33 34 38 24 61 27 29 4z m62 -19 c11 -8 28 -15 37 -15 10 0 35
-11 55 -25 20 -14 46 -25 58 -25 12 0 28 -5 36 -11 18 -12 -135 -4 -218 12
-57 11 -59 17 -9 36 l32 11 -34 1 c-29 1 -32 3 -21 16 16 19 39 19 64 0z
m-244 -35 c0 -5 -2 -10 -4 -10 -3 0 -8 5 -11 10 -3 6 -1 10 4 10 6 0 11 -4 11
-10z m1825 -29 c100 -46 141 -149 100 -248 -19 -46 -41 -70 -80 -91 -78 -40
-155 -33 -220 21 -46 38 -65 81 -65 147 0 57 15 93 57 132 60 57 137 72 208
39z m-1207 0 c23 0 42 -5 42 -11 0 -6 -37 -10 -91 -10 -79 0 -90 2 -79 15 7 9
25 13 48 11 21 -2 56 -4 80 -5z m-543 -11 c4 -6 11 -8 16 -5 5 4 9 4 9 0 0 -3
-10 -10 -22 -15 -21 -8 -20 -9 10 -9 18 -1 31 -5 28 -10 -8 -12 -246 -11 -246
0 0 5 39 9 86 9 77 0 86 2 91 20 6 22 18 26 28 10z m1895 -37 c0 -27 -4 -43
-8 -36 -8 12 -4 83 4 83 2 0 4 -21 4 -47z m43 -36 c8 -5 5 -7 -8 -5 -11 2 -20
9 -19 16 1 6 2 27 4 45 3 31 4 30 7 -8 3 -22 10 -43 16 -48z m-1773 46 c0 -11
-3 -14 -8 -7 -4 6 -14 14 -22 17 -10 4 -8 6 8 6 15 1 22 -5 22 -16z m76 -25
c-3 -18 -2 -27 4 -23 6 3 10 17 10 31 0 13 5 24 10 24 6 0 10 -16 10 -35 0
-32 -2 -35 -30 -35 -27 0 -30 3 -30 33 0 37 7 50 22 41 6 -4 7 -20 4 -36z
m-36 -3 c0 -24 -5 -35 -15 -35 -10 0 -15 11 -15 35 0 24 5 35 15 35 10 0 15
-11 15 -35z m87 -17 c-2 -13 -4 -5 -4 17 -1 22 1 32 4 23 2 -10 2 -28 0 -40z
m33 11 c0 -16 -4 -29 -10 -29 -5 0 -10 16 -10 36 0 21 4 33 10 29 6 -3 10 -19
10 -36z m17 -11 c-2 -13 -4 -5 -4 17 -1 22 1 32 4 23 2 -10 2 -28 0 -40z m50
0 c-2 -13 -4 -5 -4 17 -1 22 1 32 4 23 2 -10 2 -28 0 -40z m33 17 c0 -19 -4
-35 -10 -35 -11 0 -13 30 -4 54 10 25 14 19 14 -19z m30 0 c0 -19 -4 -35 -10
-35 -5 0 -10 16 -10 35 0 19 5 35 10 35 6 0 10 -16 10 -35z m28 -10 c-2 -49
-18 -44 -18 6 0 23 4 38 10 34 5 -3 9 -21 8 -40z m36 29 c9 -25 7 -41 -4 -24
-8 13 -10 12 -10 -2 0 -10 5 -18 10 -18 6 0 10 -4 10 -10 0 -5 -7 -10 -15 -10
-11 0 -15 11 -15 40 0 40 13 53 24 24z m66 -19 c0 -36 -15 -48 -23 -17 -3 12
-5 11 -6 -6 -2 -35 -21 -15 -21 21 0 21 3 28 9 19 7 -11 9 -11 14 2 11 28 27
17 27 -19z m52 5 c3 -17 1 -33 -4 -36 -4 -3 -8 11 -8 30 0 44 6 47 12 6z m424
-28 c-12 -12 -18 8 -10 35 l8 28 4 -28 c2 -16 1 -31 -2 -35z m21 6 c-2 -13 -4
-5 -4 17 -1 22 1 32 4 23 2 -10 2 -28 0 -40z m24 -5 c-9 -15 -10 -13 -11 13 0
17 3 34 8 38 11 12 14 -32 3 -51z m26 5 c-2 -13 -4 -5 -4 17 -1 22 1 32 4 23
2 -10 2 -28 0 -40z m70 0 c-2 -13 -4 -5 -4 17 -1 22 1 32 4 23 2 -10 2 -28 0
-40z m80 0 c-2 -13 -4 -5 -4 17 -1 22 1 32 4 23 2 -10 2 -28 0 -40z m62 15 c0
-31 -2 -34 -9 -18 -12 28 -12 55 0 55 6 0 10 -17 9 -37z m61 18 c0 -11 -4 -23
-10 -26 -6 -4 -10 5 -10 19 0 14 5 26 10 26 6 0 10 -9 10 -19z m17 -33 c-2
-13 -4 -5 -4 17 -1 22 1 32 4 23 2 -10 2 -28 0 -40z m30 5 c-3 -10 -5 -2 -5
17 0 19 2 27 5 18 2 -10 2 -26 0 -35z m-1077 7 c0 -16 -4 -30 -10 -30 -5 0
-10 14 -10 30 0 17 5 30 10 30 6 0 10 -13 10 -30z m240 -6 c0 -21 -4 -33 -10
-29 -5 3 -10 19 -10 36 0 16 5 29 10 29 6 0 10 -16 10 -36z m49 -1 c-1 -34 -2
-35 -9 -13 -11 36 -11 50 0 50 6 0 10 -17 9 -37z m374 17 c-3 -12 -8 -19 -11
-16 -5 6 5 36 12 36 2 0 2 -9 -1 -20z m114 -27 c-3 -10 -5 -2 -5 17 0 19 2 27
5 18 2 -10 2 -26 0 -35z m113 23 c0 -14 -4 -28 -10 -31 -6 -4 -10 7 -10 24 0
17 5 31 10 31 6 0 10 -11 10 -24z m110 14 c0 -5 -2 -10 -4 -10 -3 0 -8 5 -11
10 -3 6 -1 10 4 10 6 0 11 -4 11 -10z m110 1 c0 -6 -4 -13 -10 -16 -5 -3 -10
1 -10 9 0 9 5 16 10 16 6 0 10 -4 10 -9z m-803 -38 c-3 -10 -5 -4 -5 12 0 17
2 24 5 18 2 -7 2 -21 0 -30z m500 0 c-3 -10 -5 -4 -5 12 0 17 2 24 5 18 2 -7
2 -21 0 -30z m130 0 c-3 -10 -5 -4 -5 12 0 17 2 24 5 18 2 -7 2 -21 0 -30z
m-1180 -5 c-3 -7 -5 -2 -5 12 0 14 2 19 5 13 2 -7 2 -19 0 -25z m33 18 c0 -8
-4 -18 -10 -21 -5 -3 -10 3 -10 14 0 12 5 21 10 21 6 0 10 -6 10 -14z m546
-23 c-11 -11 -19 6 -11 24 8 17 8 17 12 0 3 -10 2 -21 -1 -24z m-666 2 c6 -15
17 -25 30 -25 28 0 26 -17 -15 -174 -19 -74 -35 -141 -35 -149 0 -15 40 -26
71 -19 10 2 24 27 36 70 19 62 22 67 49 67 70 1 72 4 106 145 l13 55 193 2
c175 1 220 -4 176 -21 -9 -4 -14 -13 -10 -21 3 -9 -8 -30 -26 -50 l-31 -36 23
-24 c17 -18 36 -24 78 -28 32 -2 75 -9 97 -15 27 -8 54 -8 87 -1 60 13 105 0
154 -46 31 -29 35 -38 29 -64 -11 -50 32 -111 78 -111 32 0 225 81 267 112 35
25 65 77 53 89 -12 12 -82 14 -156 4 -53 -7 -59 -6 -74 15 -12 16 -22 21 -42
17 -24 -5 -32 1 -68 56 -23 34 -49 77 -57 95 -16 31 -16 32 6 32 13 0 102 1
198 3 l175 2 1 -60 c2 -173 171 -275 327 -197 l55 28 7 -33 c9 -47 38 -75 71
-67 l25 6 -3 -88 -3 -89 -1064 2 c-841 2 -1066 6 -1073 15 -9 16 -11 512 -1
521 3 4 60 7 125 7 117 0 119 0 128 -25z m40 10 c0 -9 -6 -12 -15 -9 -8 4 -15
10 -15 15 0 5 7 9 15 9 8 0 15 -7 15 -15z m27 -7 c-3 -8 -6 -5 -6 6 -1 11 2
17 5 13 3 -3 4 -12 1 -19z m633 8 c0 -8 -4 -18 -10 -21 -5 -3 -10 3 -10 14 0
12 5 21 10 21 6 0 10 -6 10 -14z m30 -12 c0 -8 -4 -14 -10 -14 -5 0 -10 9 -10
21 0 11 5 17 10 14 6 -3 10 -13 10 -21z m457 4 c-3 -8 -6 -5 -6 6 -1 11 2 17
5 13 3 -3 4 -12 1 -19z m140 0 c-3 -8 -6 -5 -6 6 -1 11 2 17 5 13 3 -3 4 -12
1 -19z m573 -136 c0 -70 -4 -112 -9 -107 -5 6 -11 21 -14 35 -2 14 -2 -8 1
-47 3 -49 1 -73 -6 -73 -13 0 -26 36 -17 50 3 5 -1 10 -10 10 -9 0 -14 4 -10
9 3 5 1 12 -5 16 -6 4 -4 12 5 22 9 8 15 25 14 37 -3 39 3 52 12 26 8 -23 8
-22 4 6 -18 133 -18 132 1 136 11 3 22 3 27 1 4 -2 7 -57 7 -121z m-1124 95
c4 -3 3 -10 -1 -16 -8 -14 -52 -14 -60 -1 -3 6 -15 10 -26 10 -10 0 -19 4 -19
10 0 10 96 7 106 -3z m-692 -12 c-18 -14 -18 -14 6 -15 19 0 22 -2 10 -10 -12
-8 -12 -10 4 -16 17 -7 17 -8 1 -17 -14 -8 -15 -11 -4 -19 10 -7 11 -11 2 -14
-7 -3 -9 -12 -6 -20 3 -9 -1 -14 -12 -14 -14 0 -15 -3 -5 -15 10 -12 10 -15
-4 -15 -9 0 -16 -4 -16 -10 0 -6 5 -9 11 -8 6 2 14 -3 16 -9 3 -7 0 -13 -6
-13 -6 0 -11 -11 -11 -24 0 -14 -5 -37 -11 -53 l-12 -28 -7 25 -6 25 -8 -23
c-9 -27 -33 -24 -28 4 2 10 16 66 32 124 15 58 30 117 34 133 4 16 13 27 23
27 15 0 14 -2 -3 -15z m112 -25 c24 0 16 -20 -8 -21 -22 -1 -22 -1 2 -9 17 -5
19 -8 8 -9 -10 -1 -18 -5 -18 -11 0 -5 8 -11 18 -11 15 -1 14 -2 -2 -6 -15 -4
-16 -7 -5 -15 10 -7 11 -11 3 -14 -7 -3 -10 -14 -7 -24 4 -14 0 -20 -12 -20
-12 0 -15 5 -10 20 4 11 2 20 -4 20 -6 0 -11 -9 -11 -20 0 -20 -14 -27 -24
-12 -3 4 6 39 20 78 13 38 24 71 25 74 0 3 3 -1 6 -7 2 -7 11 -13 19 -13z
m545 -35 c26 -32 52 -55 64 -56 35 -1 56 -7 72 -21 14 -12 13 -14 -13 -19 -53
-12 -111 -9 -148 6 -20 9 -47 13 -61 9 -25 -6 -75 17 -75 34 0 5 13 23 28 40
30 34 62 42 62 17 0 -20 29 -19 37 1 7 20 -15 36 -44 31 -13 -2 -23 0 -23 4 0
5 13 9 29 9 22 0 37 -11 72 -55z m29 19 c0 -8 -19 -13 -24 -6 -3 5 1 9 9 9 8
0 15 -2 15 -3z m50 -46 c0 -14 -27 -9 -40 7 -10 12 -10 18 1 31 11 14 14 13
25 -8 8 -13 13 -26 14 -30z"/>
<path d="M917 3674 c-10 -11 3 -24 23 -24 10 0 27 -15 39 -36 26 -44 26 -43
-3 -41 -14 1 -25 -2 -25 -8 -1 -5 6 -10 14 -9 8 0 80 1 160 2 89 1 145 6 145
12 0 6 -6 10 -14 10 -17 0 -27 55 -12 70 5 5 16 10 23 10 7 0 13 5 13 10 0 11
-352 15 -363 4z m153 -23 c0 -5 -8 -19 -19 -32 -16 -20 -21 -22 -35 -9 -10 7
-22 22 -27 32 -9 16 -5 18 36 18 25 0 45 -4 45 -9z m50 -31 c0 -39 -1 -40 -35
-40 l-35 0 26 40 c15 22 31 40 35 40 5 0 9 -18 9 -40z m50 0 c0 -16 -4 -32
-10 -35 -6 -4 -10 10 -10 35 0 25 4 39 10 35 6 -3 10 -19 10 -35z m40 0 c0
-22 -4 -40 -10 -40 -5 0 -10 18 -10 40 0 22 5 40 10 40 6 0 10 -18 10 -40z"/>
<path d="M42 938 c-17 -17 -15 -33 3 -18 15 13 39 5 29 -11 -3 -5 -9 -7 -13
-5 -4 3 -8 -17 -8 -44 -1 -28 3 -50 8 -50 5 0 9 16 9 36 0 24 8 46 25 66 26
31 27 50 1 29 -10 -8 -16 -9 -21 -1 -8 13 -18 13 -33 -2z"/>
<path d="M432 890 c0 -14 2 -19 5 -12 2 6 2 18 0 25 -3 6 -5 1 -5 -13z"/>
<path d="M421 844 c0 -11 3 -14 6 -6 3 7 2 16 -1 19 -3 4 -6 -2 -5 -13z"/>
<path d="M2000 3658 c0 -26 -3 -30 -11 -18 -8 12 -10 12 -7 -4 2 -11 9 -21 16
-24 8 -2 12 9 12 37 0 23 -2 41 -5 41 -3 0 -5 -15 -5 -32z"/>
<path d="M2160 3520 c0 -16 4 -30 9 -30 5 0 9 14 9 30 -1 17 -5 30 -10 30 -4
0 -8 -13 -8 -30z"/>
<path d="M1803 3597 c-5 -6 -15 -27 -23 -44 -12 -31 -15 -33 -61 -33 -27 0
-49 -3 -49 -8 0 -4 16 -16 35 -26 19 -11 35 -23 35 -28 0 -5 -10 -32 -21 -59
-12 -27 -19 -52 -16 -55 3 -4 25 7 49 23 24 16 48 32 54 35 6 4 32 -8 59 -27
26 -19 51 -32 56 -29 4 2 -1 25 -11 50 -11 25 -20 49 -20 54 0 4 17 18 38 30
33 21 35 23 17 31 -11 4 -36 8 -56 8 -33 1 -37 4 -48 41 -13 44 -24 55 -38 37z
m15 -75 c-27 -5 -30 1 -17 34 l11 29 13 -30 c12 -27 12 -30 -7 -33z m-63 -32
c-3 -5 -12 -7 -20 -3 -21 7 -19 13 6 13 11 0 18 -4 14 -10z m100 -11 c5 -14 1
-25 -12 -34 -23 -18 -23 -18 -52 4 -33 26 -22 51 23 51 26 0 36 -5 41 -21z
m51 6 c-19 -14 -36 -12 -36 6 0 5 12 9 28 9 26 -1 26 -1 8 -15z m-116 -65 c0
-11 -49 -45 -55 -38 -3 3 0 19 6 36 9 27 14 30 30 22 10 -6 19 -15 19 -20z
m99 -10 c12 -35 6 -37 -29 -10 -21 17 -23 21 -10 30 23 15 27 13 39 -20z"/>
<path d="M2135 3230 c9 -147 10 -376 1 -407 -6 -22 -5 -33 2 -33 6 0 12 8 12
18 6 55 -3 433 -10 462 -7 26 -8 16 -5 -40z"/>
<path d="M2158 2565 c-3 -14 -1 -25 3 -25 5 0 9 11 9 25 0 14 -2 25 -4 25 -2
0 -6 -11 -8 -25z"/>
<path d="M1840 3024 c-11 -25 -20 -50 -20 -55 0 -5 -22 -9 -50 -9 -61 0 -67
-18 -15 -49 l35 -20 -20 -53 c-11 -29 -20 -54 -20 -55 0 -10 30 2 72 27 l50
31 49 -31 c27 -16 51 -30 54 -30 10 0 4 46 -10 70 -21 36 -19 42 20 68 19 12
35 27 35 32 0 6 -22 10 -49 10 l-49 0 -23 55 c-12 30 -27 55 -31 55 -5 0 -18
-21 -28 -46z m46 -19 c19 -45 19 -45 -16 -45 -16 0 -30 4 -30 9 0 13 21 71 26
71 3 0 12 -16 20 -35z m-82 -80 c-5 -11 -11 -12 -25 -4 -26 13 -24 19 6 19 17
0 23 -4 19 -15z m116 -5 c0 -11 -11 -27 -25 -36 -21 -14 -31 -15 -50 -6 -24
11 -33 40 -18 55 3 4 26 7 50 7 36 0 43 -3 43 -20z m42 8 c-9 -9 -15 -9 -24 0
-9 9 -7 12 12 12 19 0 21 -3 12 -12z m-128 -63 c17 -13 17 -15 -15 -34 -18
-11 -34 -19 -36 -17 -5 5 19 66 25 66 4 0 15 -7 26 -15z m115 -17 c6 -17 10
-33 8 -34 -1 -2 -17 6 -35 18 -30 19 -31 21 -15 34 26 19 30 18 42 -18z"/>
<path d="M1868 2438 c-22 -41 -26 -43 -73 -46 -28 -2 -54 -7 -58 -11 -5 -5 7
-21 26 -37 l35 -27 -25 -41 c-15 -23 -30 -42 -34 -44 -11 -4 -12 -32 -1 -32 4
0 34 14 66 30 l60 30 25 -24 c35 -32 78 -59 90 -54 5 1 0 32 -11 68 -13 41
-16 66 -10 68 22 7 76 47 80 60 3 9 -13 12 -56 12 l-60 0 -7 40 c-4 22 -10 42
-15 45 -5 3 -19 -14 -32 -37z m34 -23 c4 -21 1 -25 -18 -25 -22 0 -23 2 -12
25 6 14 14 25 18 25 4 0 10 -11 12 -25z m-82 -60 c0 -16 -9 -19 -34 -9 -25 9
-19 24 9 24 16 0 25 -6 25 -15z m100 6 c0 -5 3 -16 6 -25 4 -10 -5 -22 -27
-35 l-33 -20 -22 20 c-19 18 -21 25 -12 45 9 19 19 24 50 24 21 0 38 -4 38 -9z
m90 4 c0 -4 -55 -35 -63 -35 -3 0 -7 9 -10 20 -4 17 0 20 34 20 21 0 39 -2 39
-5z m-180 -80 c15 -18 15 -17 -27 -39 -38 -19 -40 -15 -16 25 20 33 26 35 43
14z m118 -27 c6 -23 9 -44 7 -46 -2 -2 -18 10 -37 27 -32 30 -32 32 -14 46 29
22 32 19 44 -27z"/>
<path d="M1848 1915 c-21 -43 -24 -45 -63 -45 -56 0 -61 -9 -23 -41 32 -26 33
-28 19 -60 -33 -84 -26 -95 35 -54 20 14 42 25 49 25 7 0 29 -11 49 -25 37
-25 66 -32 66 -16 0 5 -7 28 -15 51 -20 58 -19 63 15 83 42 25 37 35 -17 39
-47 3 -48 4 -63 46 -8 23 -18 42 -22 42 -5 0 -18 -20 -30 -45z m30 -43 c-28
-5 -33 4 -18 35 l13 28 12 -30 c12 -27 12 -30 -7 -33z m-68 -37 c0 -13 -4 -14
-20 -5 -11 6 -20 13 -20 15 0 3 9 5 20 5 11 0 20 -7 20 -15z m107 -2 c4 -10
-3 -24 -21 -39 -25 -23 -28 -23 -51 -8 -26 17 -29 23 -19 48 9 23 82 22 91 -1z
m38 7 c-3 -5 -10 -10 -16 -10 -5 0 -9 5 -9 10 0 6 7 10 16 10 8 0 12 -4 9 -10z
m-10 -80 c28 -54 16 -59 -40 -15 -20 16 -20 16 -1 31 25 18 23 19 41 -16z
m-108 5 c3 -10 -36 -40 -43 -33 -2 2 -1 14 3 26 6 23 33 27 40 7z"/>
<path d="M1161 1684 c10 -12 9 -13 -6 -7 -15 5 -17 3 -12 -11 4 -10 7 -19 7
-21 0 -2 9 -1 20 2 26 7 26 39 -1 46 -17 4 -18 3 -8 -9z"/>
<path d="M1865 1315 l-25 -55 -47 0 -47 0 34 -35 34 -35 -19 -55 c-10 -30 -15
-58 -12 -61 3 -4 29 10 57 31 l51 37 46 -36 c43 -33 73 -45 73 -30 0 4 -10 34
-22 66 l-21 59 21 15 c12 8 29 22 38 32 17 16 15 17 -32 20 -47 3 -52 6 -67
38 -10 19 -17 41 -17 49 0 32 -22 12 -45 -40z m55 -46 c0 -5 -13 -9 -30 -9
-35 0 -35 -1 -14 48 l15 37 15 -34 c8 -18 14 -37 14 -42z m18 -46 c5 -33 -37
-57 -72 -42 -52 24 -18 71 49 66 12 -1 21 -10 23 -24z m62 22 c0 -2 -9 -9 -19
-14 -14 -8 -20 -7 -25 4 -4 11 2 15 19 15 14 0 25 -2 25 -5z m-170 -15 c0 -13
-11 -13 -30 0 -12 8 -11 10 8 10 12 0 22 -4 22 -10z m136 -75 c22 -52 17 -59
-21 -29 -34 25 -35 28 -19 45 22 25 23 25 40 -16z m-108 6 c11 -6 7 -13 -14
-30 -31 -24 -42 -15 -24 18 12 23 18 25 38 12z"/>
<path d="M485 980 c-4 -6 -2 -16 3 -23 7 -8 7 -28 -1 -60 -8 -35 -8 -57 0 -80
6 -18 14 -51 18 -75 8 -48 29 -67 89 -78 54 -10 39 10 -18 25 -27 7 -47 18
-50 29 -28 88 -36 137 -26 171 5 20 10 48 10 63 0 29 -15 45 -25 28z"/>
<path d="M540 901 c0 -16 70 -100 102 -121 32 -22 32 -21 -4 11 -20 19 -49 53
-63 77 -28 42 -35 49 -35 33z"/>
<path d="M822 734 c-29 -18 -62 -34 -75 -35 -20 0 -21 -1 -2 -8 14 -6 36 3 82
32 35 21 63 41 63 43 0 9 -18 1 -68 -32z"/>
<path d="M670 700 c0 -5 7 -10 15 -10 8 0 15 5 15 10 0 6 -7 10 -15 10 -8 0
-15 -4 -15 -10z"/>
<path d="M2075 730 c-9 -14 22 -60 39 -60 21 0 26 25 10 49 -16 23 -39 27 -49
11z m39 -25 c3 -8 1 -15 -3 -15 -5 0 -11 7 -15 15 -3 8 -1 15 3 15 5 0 11 -7
15 -15z"/>
<path d="M1430 279 c0 -11 4 -18 10 -14 5 3 7 12 3 20 -7 21 -13 19 -13 -6z"/>
<path d="M1385 130 c-3 -5 -1 -10 4 -10 6 0 11 5 11 10 0 6 -2 10 -4 10 -3 0
-8 -4 -11 -10z"/>
<path d="M1880 564 c-22 -53 -25 -56 -54 -51 -54 8 -63 -3 -26 -33 l33 -27
-18 -52 c-9 -29 -15 -54 -13 -57 3 -2 23 9 46 26 23 16 48 30 55 30 8 0 33
-13 55 -30 37 -26 62 -37 62 -27 0 2 -9 29 -19 60 l-20 57 29 20 c15 11 33 20
38 20 6 0 14 5 18 12 5 8 -5 9 -35 5 -64 -8 -76 -1 -91 54 -8 27 -19 49 -26
49 -6 0 -22 -25 -34 -56z m53 -46 c-5 -10 -40 -10 -47 0 -2 4 3 23 11 42 l15
35 13 -35 c7 -19 10 -38 8 -42z m-83 -28 c0 -5 -6 -10 -14 -10 -8 0 -18 5 -21
10 -3 6 3 10 14 10 12 0 21 -4 21 -10z m104 -7 c7 -17 -27 -52 -50 -53 -19 0
-45 36 -38 54 9 23 79 22 88 -1z m46 13 c0 -2 -7 -6 -15 -10 -8 -3 -15 -1 -15
4 0 6 7 10 15 10 8 0 15 -2 15 -4z m-15 -94 c7 -23 7 -23 -24 -7 -35 18 -39
30 -14 44 19 10 25 5 38 -37z m-115 28 c13 -9 11 -13 -9 -30 -28 -24 -36 -20
-27 15 7 27 13 30 36 15z"/>
<path d="M555 281 c-94 -12 -135 -41 -135 -96 0 -25 8 -40 35 -64 20 -17 48
-33 63 -37 15 -3 44 -10 65 -16 69 -17 212 -11 262 11 49 22 86 70 77 103 -6
25 -67 65 -125 83 -60 18 -168 25 -242 16z m244 -40 c56 -21 101 -55 101 -77
0 -7 -13 -23 -29 -37 -80 -67 -395 -26 -432 57 -16 34 -1 52 60 71 66 21 228
14 300 -14z"/>
<path d="M666 238 c-11 -6 -43 -8 -77 -5 -58 5 -79 -5 -38 -18 20 -7 19 -8
-10 -26 -18 -11 -30 -23 -27 -28 3 -4 39 -6 80 -3 64 4 80 1 109 -17 19 -11
40 -21 47 -21 11 0 11 4 -7 46 -2 7 13 14 37 18 53 8 42 26 -15 26 -34 0 -47
5 -55 20 -12 23 -17 24 -44 8z m28 -34 c9 -3 16 -10 16 -15 0 -14 -44 -10 -66
6 -18 14 -18 14 8 15 14 0 33 -3 42 -6z m-75 -18 c-12 -10 -60 -16 -54 -6 3 5
18 10 32 10 15 0 24 -2 22 -4z m106 -26 c3 -5 2 -10 -4 -10 -5 0 -13 5 -16 10
-3 6 -2 10 4 10 5 0 13 -4 16 -10z"/>
<path d="M1967 213 c-4 -3 -7 -15 -7 -25 0 -10 -6 -18 -14 -18 -25 0 -28 -20
-5 -29 23 -8 23 -8 -4 -15 -37 -9 -34 -26 5 -26 17 0 28 -3 24 -7 -8 -8 -13
-9 -41 -12 -16 -1 -21 -31 -5 -31 6 0 10 5 10 10 0 21 39 10 43 -12 4 -22 4
-22 6 -2 0 12 8 25 16 28 10 3 15 1 13 -7 -2 -6 2 -12 7 -12 6 0 9 5 9 11 -1
7 18 14 43 17 49 5 58 10 48 26 -8 15 -52 14 -61 -1 -5 -8 -2 -9 9 -5 9 3 19
2 22 -3 4 -6 -15 -10 -47 -9 -45 1 -49 3 -23 9 l30 8 -30 2 -30 3 35 7 35 7
-30 2 -30 2 25 10 c14 6 33 8 42 5 10 -2 18 0 18 5 0 5 -11 9 -24 9 -21 0 -24
4 -20 30 5 28 3 30 -29 30 -18 0 -37 -3 -40 -7z m-4 -100 c-7 -2 -19 -2 -25 0
-7 3 -2 5 12 5 14 0 19 -2 13 -5z"/>
</g>
</svg>
