<?xml version="1.0" standalone="no"?>
<!DOCTYPE svg PUBLIC "-//W3C//DTD SVG 20010904//EN"
 "http://www.w3.org/TR/2001/REC-SVG-20010904/DTD/svg10.dtd">
<svg version="1.0" xmlns="http://www.w3.org/2000/svg"
 width="220.000000pt" height="379.000000pt" viewBox="0 0 220.000000 379.000000"
 preserveAspectRatio="xMidYMid meet">
<metadata>
Created by potrace 1.16, written by Peter Selinger 2001-2019
</metadata>
<g transform="translate(0.000000,379.000000) scale(0.100000,-0.100000)"
fill="#000000" stroke="none">
<path d="M1536 3783 c-1 -2 -328 -6 -727 -9 -398 -3 -735 -7 -749 -8 -22 -1
-26 -7 -32 -46 -6 -41 -10 -977 -12 -2975 l-1 -740 800 3 c440 1 925 5 1077 8
244 6 278 9 282 23 7 24 12 3728 5 3735 -5 6 -637 14 -643 9z m466 -23 l156 0
6 -27 c3 -16 7 -257 8 -537 l3 -510 -30 -8 c-22 -6 -33 -4 -40 6 -17 22 -59
-50 -56 -95 1 -25 -4 -41 -19 -54 -20 -18 -20 -18 -20 76 1 88 2 95 25 112 14
10 30 15 36 11 6 -3 21 4 35 16 21 21 23 29 19 88 -2 36 -8 69 -14 75 -6 6 -8
29 -5 51 6 39 3 45 -40 88 -25 26 -46 52 -46 58 0 22 -25 7 -76 -46 -30 -31
-54 -62 -54 -70 0 -8 -5 -14 -10 -14 -6 0 -22 -11 -35 -25 -36 -35 -35 -96 1
-124 21 -17 24 -24 15 -35 -7 -8 -11 -31 -9 -52 l3 -38 52 0 c49 -1 51 0 36
16 -13 14 -14 23 -5 40 11 22 11 22 6 -4 -5 -20 -2 -30 10 -34 9 -3 16 -11 15
-18 -1 -6 1 -19 6 -29 9 -20 2 -133 -9 -144 -4 -4 -31 -7 -61 -8 -45 0 -58 -4
-84 -29 -22 -21 -41 -30 -66 -30 l-35 -1 1 -75 c0 -41 3 -69 6 -62 4 11 53 18
53 8 0 -2 3 -12 6 -21 6 -14 1 -16 -32 -13 -36 3 -39 1 -42 -24 -9 -79 -152
-19 -152 63 0 16 -4 29 -9 29 -17 0 1 73 27 113 14 20 31 37 39 37 8 0 11 5 7
11 -4 7 -1 10 7 7 7 -2 18 -1 24 4 5 5 19 15 30 23 28 19 12 30 -44 30 -46 0
-47 0 -27 18 21 18 21 18 1 14 -11 -3 -29 -8 -40 -13 -17 -7 -18 -6 -7 8 10
13 10 17 0 21 -7 3 0 4 16 4 16 -1 31 4 33 11 3 7 -4 12 -19 12 -28 0 -41 -9
-56 -35 -9 -15 -11 -16 -12 -4 0 27 25 51 60 55 18 2 35 6 38 9 9 9 62 -26 79
-51 11 -18 16 -46 16 -92 -1 -60 0 -63 9 -32 12 44 13 59 4 91 -7 24 -5 26 16
22 16 -3 31 4 48 22 24 26 24 28 6 39 -45 26 -100 84 -117 121 -22 50 -74 113
-85 102 -4 -4 4 -20 18 -35 35 -37 54 -75 40 -80 -6 -2 -9 -11 -6 -20 5 -14 3
-14 -10 2 -8 10 -34 27 -58 38 -34 15 -40 21 -28 29 12 9 12 10 -2 5 -22 -7
-24 17 -3 34 8 7 15 20 15 29 0 12 9 16 32 16 18 0 33 6 36 14 3 10 -1 12 -17
8 -30 -7 -91 11 -91 28 0 8 -7 18 -16 23 -29 16 -6 33 34 26 45 -8 65 -29 51
-55 -6 -13 -6 -19 0 -19 6 0 14 12 17 27 6 20 2 31 -16 45 -19 16 -21 20 -9
35 12 15 12 16 -3 10 -19 -7 -25 7 -8 18 6 3 10 12 10 18 0 7 -4 6 -10 -3 -7
-11 -10 -11 -10 -2 0 7 -4 10 -10 7 -5 -3 -10 -1 -10 5 0 7 -7 5 -16 -4 -8 -9
-14 -26 -12 -38 2 -14 -5 -30 -17 -40 -18 -15 -19 -19 -7 -50 17 -40 17 -42 8
-101 -7 -46 -6 -50 28 -82 24 -22 36 -43 36 -60 0 -15 -4 -24 -10 -20 -13 8
-80 -58 -80 -79 0 -9 7 -16 15 -16 8 0 15 -4 15 -10 0 -5 6 -10 14 -10 7 0 16
-9 19 -20 3 -14 14 -20 31 -20 32 0 33 -17 4 -60 -18 -26 -30 -34 -58 -35 -21
0 -41 6 -50 16 -8 9 -25 19 -37 23 -12 4 -24 15 -28 25 -3 9 -23 34 -45 56
-36 35 -45 39 -107 44 -62 5 -68 8 -68 29 0 12 5 21 10 20 6 -1 9 -8 7 -15 -2
-7 4 -13 12 -13 8 0 14 8 13 18 -1 25 27 64 74 102 47 37 80 102 72 142 -8 41
-50 74 -138 107 -99 38 -180 42 -240 10 -45 -23 -65 -45 -64 -68 0 -11 3 -9 9
5 13 33 67 66 115 72 53 6 151 -16 137 -30 -6 -6 -16 -7 -23 -3 -18 12 -68 14
-75 4 -3 -5 -11 -9 -19 -9 -20 0 -68 -47 -60 -60 10 -16 -43 -32 -66 -20 -17
9 -19 7 -19 -18 0 -15 5 -33 12 -40 9 -9 8 -21 -1 -52 -13 -45 -6 -67 34 -98
38 -30 33 -58 -12 -67 -80 -15 -133 -58 -177 -143 -17 -33 -18 -33 -70 -27
-40 5 -55 3 -65 -8 -10 -12 -18 -13 -42 -5 -22 8 -35 7 -52 -5 -30 -19 -127
-47 -127 -36 0 5 -31 9 -69 9 -92 0 -105 12 -98 93 6 65 12 76 29 59 36 -36
97 5 105 69 4 24 13 49 21 55 8 6 16 35 19 70 9 94 7 105 -23 129 -17 14 -29
33 -29 49 -2 28 -30 66 -50 66 -7 0 -18 -7 -25 -15 -16 -20 -34 -19 -26 0 6
17 -13 55 -28 55 -16 0 -46 -32 -46 -50 0 -10 -7 -20 -14 -23 -15 -6 -33 -73
-23 -83 3 -4 11 -3 17 1 8 5 9 10 1 18 -11 11 2 43 24 62 7 6 16 23 19 39 5
22 10 26 19 17 6 -6 11 -23 12 -39 0 -21 4 -26 20 -24 11 2 28 11 38 20 16 14
19 14 32 -4 7 -10 17 -43 21 -71 6 -51 16 -65 30 -42 14 23 27 -9 19 -48 -5
-21 -9 -53 -9 -71 -1 -21 -8 -37 -18 -43 -13 -7 -18 -22 -18 -51 0 -43 -29
-88 -57 -88 -19 0 -16 17 7 40 21 21 28 46 10 35 -17 -11 -11 7 7 21 24 17 10
29 -17 14 -16 -9 -25 -8 -37 2 -11 9 -17 10 -20 2 -2 -6 -17 -10 -34 -8 -31 4
-50 -8 -61 -38 -5 -11 -17 -16 -40 -15 -26 2 -34 7 -36 25 -2 14 2 22 11 22
20 0 41 26 27 35 -33 20 14 75 65 75 19 0 35 5 35 11 0 8 -12 10 -36 6 -43 -7
-74 15 -74 55 0 29 15 46 23 26 2 -7 8 -10 13 -5 4 4 0 15 -9 25 -16 15 -19
15 -27 2 -15 -23 -12 -90 5 -106 13 -13 13 -18 -1 -40 -9 -13 -14 -33 -11 -45
4 -15 -1 -22 -19 -29 -28 -11 -30 -27 -8 -58 10 -14 25 -22 45 -22 17 0 32 -6
35 -15 4 -8 15 -15 25 -15 10 0 19 -6 19 -12 0 -7 3 -30 7 -51 l6 -39 -46 7
c-38 6 -53 3 -84 -16 -21 -13 -39 -27 -41 -31 -19 -45 -22 56 -20 608 1 339 4
634 6 655 l4 38 277 1 c576 2 1214 10 1219 14 2 3 70 3 151 1 80 -3 217 -5
303 -5z m8 -690 c0 -11 7 -20 15 -20 8 0 15 -4 15 -10 0 -5 5 -10 11 -10 11 0
48 -40 49 -52 0 -5 -7 -8 -15 -8 -8 0 -15 -9 -15 -20 0 -10 -8 -24 -17 -29
-15 -9 -13 -10 14 -11 38 0 54 -19 24 -27 -26 -7 -26 -9 -1 -40 21 -27 26 -58
11 -68 -5 -3 -12 3 -16 14 -13 42 -80 37 -72 -5 3 -17 -1 -28 -15 -35 -25 -13
-40 -2 -32 23 6 19 3 20 -27 14 -18 -3 -37 -12 -41 -19 -6 -9 -10 -9 -18 3
-12 19 -13 30 -1 30 11 0 26 59 17 67 -3 3 -12 1 -19 -5 -10 -9 -18 -8 -32 2
-15 11 -16 17 -6 49 7 21 17 37 22 37 13 0 69 55 69 68 0 5 7 12 15 16 8 3 20
17 25 31 11 30 40 34 40 5z m-720 -83 c44 -26 57 -39 64 -68 9 -38 -10 -95
-29 -88 -5 2 -9 6 -9 9 1 3 5 15 9 28 5 18 2 22 -13 22 -11 0 -22 6 -25 14 -4
10 0 12 14 9 13 -4 19 0 19 12 0 14 -6 16 -27 11 -26 -6 -27 -5 -9 8 23 19 12
40 -14 26 -15 -8 -17 -7 -12 12 4 18 2 20 -21 14 -20 -5 -27 -3 -27 9 0 23 20
18 80 -18z m-106 -42 c32 -8 63 -18 67 -22 18 -18 19 -88 1 -114 -9 -15 -29
-45 -44 -67 -15 -23 -36 -46 -46 -51 -27 -15 -84 17 -102 56 -14 30 -30 44
-30 26 0 -36 76 -103 117 -103 7 0 13 -4 13 -9 0 -5 7 -16 15 -24 13 -13 9
-19 -34 -47 -27 -17 -55 -38 -61 -46 -22 -26 -160 -13 -160 15 0 5 12 23 26
40 24 29 21 44 -4 19 -7 -7 -12 -8 -12 -2 0 6 12 16 26 22 19 9 24 9 18 0 -5
-8 -2 -9 9 -5 13 5 17 0 17 -20 0 -14 3 -23 7 -19 9 9 10 175 1 169 -15 -8 -8
8 11 28 10 11 28 44 39 74 19 49 49 95 62 95 3 -1 32 -7 64 -15z m354 -55
c-10 -15 -10 -27 -1 -51 10 -26 10 -29 -3 -19 -14 13 -20 71 -7 83 14 15 22 6
11 -13z m-508 -69 c-6 -12 -18 -21 -27 -21 -14 0 -13 4 5 23 12 13 23 32 23
43 2 16 2 16 6 -3 2 -12 -1 -31 -7 -42z m580 -77 c0 -8 -4 -14 -10 -14 -5 0
-10 9 -10 21 0 11 5 17 10 14 6 -3 10 -13 10 -21z m121 -11 c23 -21 47 -42 55
-46 12 -7 12 -11 -2 -25 -15 -15 -18 -14 -31 4 -8 10 -18 18 -23 17 -4 -1 -16
7 -25 17 -19 21 -7 28 13 8 25 -25 11 7 -15 34 -39 41 -19 34 28 -9z m300 4
c-10 -9 -11 -8 -5 6 3 10 9 15 12 12 3 -3 0 -11 -7 -18z m-346 -45 c-9 -9 -55
29 -55 45 0 13 7 10 30 -12 16 -16 28 -31 25 -33z m-125 12 c0 -3 -13 -19 -30
-34 -32 -30 -40 -19 -14 18 14 20 44 31 44 16z m620 -65 c0 -12 -7 -19 -20
-19 -24 0 -38 29 -20 40 19 12 40 1 40 -21z m-70 0 c0 -5 -10 -9 -21 -9 -18 0
-19 2 -9 15 12 15 30 12 30 -6z m-762 -56 c23 -19 42 -36 42 -39 0 -2 -31 -3
-69 -3 -38 1 -79 -2 -92 -6 -41 -13 -132 -80 -184 -136 -28 -30 -63 -65 -78
-78 l-27 -24 -24 23 c-39 35 -67 106 -73 182 -5 62 -4 71 17 93 39 41 45 32
46 -62 0 -64 5 -99 19 -128 10 -22 18 -53 16 -69 -2 -18 1 -26 8 -21 6 3 11
15 11 26 0 28 15 54 75 129 62 77 85 98 145 134 58 34 107 28 168 -21z m772 7
c0 -10 7 -20 15 -24 8 -3 15 -17 15 -31 0 -15 6 -25 14 -25 10 0 12 -7 8 -22
-5 -20 -6 -21 -12 -3 -5 13 -9 15 -14 6 -4 -6 -1 -23 8 -36 9 -13 16 -37 15
-52 0 -16 -3 -22 -6 -13 -12 30 -53 42 -53 15 0 -8 -4 -15 -10 -15 -5 0 -10
10 -10 21 0 17 -5 20 -25 17 -14 -3 -25 -1 -25 3 0 5 5 9 10 9 13 0 13 27 0
32 -16 5 11 137 29 141 25 5 41 -4 41 -23z m53 -15 c-7 -21 -13 -19 -13 6 0
11 4 18 10 14 5 -3 7 -12 3 -20z m-1343 -80 c0 -30 9 -78 20 -106 19 -53 64
-109 85 -109 7 0 51 40 100 89 110 112 164 143 260 149 55 3 81 0 108 -13 43
-20 45 -28 15 -43 -21 -10 -20 -11 7 -5 35 7 30 -2 -17 -26 -30 -17 -36 -27
-61 -117 -25 -85 -30 -129 -39 -311 -12 -235 -5 -316 37 -398 12 -25 19 -45
14 -45 -4 0 -22 28 -39 63 -29 59 -31 70 -37 225 -3 89 -8 160 -11 157 -9 -9
-2 -261 9 -315 16 -78 66 -151 118 -172 41 -16 43 -16 59 3 9 10 21 19 26 19
5 0 18 8 29 18 20 17 20 16 13 -18 -3 -19 -15 -53 -25 -75 -10 -22 -26 -58
-35 -80 -23 -53 -80 -91 -113 -76 -24 11 -31 3 -12 -16 8 -8 5 -13 -10 -18
-40 -12 -19 -65 26 -65 29 0 40 26 24 52 -7 11 -11 21 -9 21 2 1 22 12 46 24
26 13 42 17 42 10 0 -7 5 -6 11 3 7 11 8 3 4 -30 -14 -96 -25 -122 -78 -173
-48 -46 -50 -49 -24 -45 30 6 36 -6 10 -21 -10 -6 -13 -11 -6 -11 19 0 7 -35
-13 -38 -25 -4 -74 41 -74 66 0 11 -7 22 -15 26 -12 4 -15 23 -14 88 0 71 2
79 11 53 6 -16 23 -44 39 -60 16 -17 29 -36 29 -43 0 -7 4 -12 10 -12 14 0 1
31 -26 60 -37 40 -45 77 -53 230 -5 80 -9 125 -11 100 -6 -83 -17 127 -15 280
1 108 -1 133 -7 100 -8 -41 -5 -298 8 -652 6 -153 19 -195 77 -245 20 -18 39
-48 51 -83 28 -81 121 -216 181 -260 65 -49 97 -65 192 -95 58 -18 87 -33 111
-60 19 -19 46 -38 60 -41 99 -20 114 -27 138 -66 19 -29 31 -38 52 -38 34 0
52 -16 52 -47 0 -19 -5 -23 -29 -23 -16 0 -31 -6 -33 -12 -7 -20 -308 -24
-345 -5 l-28 15 38 7 c43 8 52 22 43 60 -7 28 -87 85 -118 85 -36 0 -132 44
-170 78 -34 31 -39 40 -34 66 4 22 3 27 -4 16 -16 -25 -12 -47 16 -80 32 -37
64 -54 159 -85 92 -29 134 -53 141 -82 8 -29 0 -40 -36 -48 -17 -4 -38 -14
-47 -23 -20 -21 -144 -25 -150 -5 -3 9 -29 11 -97 6 -75 -5 -97 -3 -117 10
-13 9 -54 21 -92 27 -60 11 -76 10 -149 -10 -64 -17 -100 -21 -165 -17 -45 2
-88 9 -95 15 -7 5 -29 13 -48 17 -19 4 -40 11 -45 16 -6 4 -27 4 -47 0 -20 -5
-40 -5 -45 0 -10 10 1 231 17 344 14 99 48 274 56 286 3 5 1 9 -5 9 -6 0 -15
-18 -21 -41 -23 -83 -19 -27 9 162 17 107 35 250 40 319 6 69 15 170 21 225
26 274 39 568 28 612 -5 18 -4 49 2 75 5 23 9 57 9 73 -1 27 -2 26 -16 -15
-12 -34 -15 -88 -14 -220 1 -163 0 -172 -13 -136 -24 64 -48 81 -115 81 -67 0
-67 -1 -5 88 25 34 30 47 19 47 -11 0 -14 7 -9 25 7 29 -2 32 -26 10 -10 -9
-24 -13 -33 -9 -18 6 -31 34 -17 34 6 0 10 -4 10 -10 0 -5 7 -7 15 -4 8 4 15
15 15 25 0 12 7 19 20 19 20 0 71 67 69 92 0 10 -2 10 -6 1 -2 -7 -16 -13 -29
-13 -26 0 -30 -10 -12 -28 8 -8 8 -15 -2 -26 -7 -9 -16 -13 -21 -11 -4 3 -26
-3 -48 -14 l-40 -21 -3 28 c-3 24 -8 27 -45 30 -28 2 -43 -1 -43 -9 0 -12 -68
-4 -82 10 -8 7 68 48 132 72 19 7 55 12 79 11 25 -1 50 3 57 9 7 5 34 9 61 7
41 -3 48 -6 45 -23 -3 -17 -23 -67 -39 -97 -2 -5 0 -8 5 -8 12 0 36 57 62 143
12 37 25 67 30 67 6 0 10 -25 10 -55z m178 21 c42 0 36 -20 -8 -24 -45 -5 -80
5 -80 23 0 12 7 14 28 8 15 -4 42 -7 60 -7z m924 -9 c22 3 38 1 38 -4 0 -6
-11 -8 -24 -6 -29 6 -51 -27 -42 -60 14 -55 -17 -82 -65 -56 -15 7 -24 7 -34
-1 -8 -7 -19 -9 -24 -5 -6 3 -20 1 -31 -5 -18 -10 -20 -8 -20 20 0 22 5 30 18
31 10 0 12 3 5 6 -21 8 -14 23 10 23 13 0 41 15 63 34 26 22 44 31 53 26 8 -4
32 -5 53 -3z m93 -27 c-3 -11 -2 -20 3 -20 6 0 5 -10 -1 -25 -7 -14 -14 -25
-17 -25 -10 0 -9 64 1 77 16 19 21 16 14 -7z m-1804 -22 c12 -18 11 -80 -1
-98 -8 -12 -10 -9 -10 13 0 27 -2 28 -42 25 -33 -2 -45 -8 -54 -26 -9 -19 -13
-20 -23 -8 -10 11 -7 17 11 30 12 9 35 16 50 16 16 0 28 5 28 11 0 12 -77 7
-114 -7 -29 -11 -11 12 32 41 28 19 46 24 76 21 21 -3 43 -10 47 -18z m789 8
c0 -11 -19 -15 -25 -6 -3 5 1 10 9 10 9 0 16 -2 16 -4z m917 -18 c-3 -8 -6 -5
-6 6 -1 11 2 17 5 13 3 -3 4 -12 1 -19z m60 -56 c-4 -35 -11 -70 -17 -77 -5
-6 -7 -15 -3 -18 3 -4 -12 -7 -35 -7 -40 0 -42 1 -42 30 0 25 4 30 25 30 26 0
34 15 13 23 -10 4 -10 8 -1 14 6 4 13 24 16 43 3 30 4 27 5 -13 2 -61 22 -53
22 9 0 31 4 43 11 38 8 -5 10 -28 6 -72z m-1647 34 c19 -2 43 -4 53 -5 34 -2
16 -20 -37 -35 -71 -21 -83 -20 -89 5 -8 29 1 48 21 43 9 -3 33 -6 52 -8z
m1175 5 c3 -5 1 -12 -5 -16 -6 -4 -8 -10 -5 -14 2 -5 -5 -17 -16 -27 -28 -25
-53 -76 -74 -148 -20 -68 -31 -68 -17 1 17 75 39 119 74 147 18 14 29 26 25
26 -25 0 -77 -56 -91 -98 -24 -75 -44 -199 -50 -307 l-5 -100 14 100 13 100
-5 -100 c-3 -55 -10 -103 -15 -106 -6 -4 -7 -12 -4 -18 4 -6 2 -11 -4 -11 -13
0 -10 -167 3 -205 4 -11 0 -4 -9 15 -23 50 -31 172 -23 350 10 217 42 354 92
396 29 24 90 33 102 15z m-1440 -41 c-3 -5 -13 -10 -21 -10 -8 0 -12 5 -9 10
3 6 13 10 21 10 8 0 12 -4 9 -10z m1965 0 c0 -5 -4 -10 -10 -10 -5 0 -10 5
-10 10 0 6 5 10 10 10 6 0 10 -4 10 -10z m108 -37 c2 -27 -2 -46 -13 -56 -14
-15 -14 -17 5 -27 20 -10 19 -12 -17 -55 -29 -35 -40 -42 -50 -33 -8 6 -11 18
-8 26 3 8 -3 16 -15 19 -24 6 -26 19 -5 27 8 3 15 10 15 16 0 5 -7 10 -15 10
-8 0 -25 10 -37 22 -20 20 -20 22 -3 35 25 18 62 17 69 -3 3 -9 6 -31 6 -50 0
-29 3 -34 23 -34 20 1 20 2 5 11 -10 5 -18 17 -18 26 0 9 8 26 18 37 16 20 16
20 -2 6 -11 -8 -17 -10 -14 -5 2 6 10 25 17 43 17 43 35 36 39 -15z m-1948
-49 c0 -54 -3 -75 -12 -72 -15 5 -30 59 -21 78 9 22 10 59 1 54 -4 -3 -9 -15
-9 -27 -1 -17 -3 -16 -10 8 -6 24 -7 19 -6 -25 1 -30 6 -58 12 -62 5 -4 6 -10
2 -14 -16 -16 -32 20 -32 74 0 55 1 57 30 63 17 3 33 4 38 2 4 -2 7 -38 7 -79z
m1350 16 c0 -14 9 -38 20 -55 15 -23 28 -30 56 -32 20 -1 42 -7 48 -13 5 -5
18 -10 28 -10 18 0 23 19 18 65 -1 15 1 17 10 9 6 -7 12 -27 13 -45 2 -32 14
-44 62 -63 6 -2 6 -8 -1 -16 -9 -9 -17 -9 -34 0 -17 9 -29 9 -48 1 -22 -11
-24 -10 -19 9 3 11 1 20 -3 20 -5 0 -10 -12 -12 -27 -2 -18 -9 -27 -23 -28
-11 -1 -30 -5 -42 -9 -22 -7 -23 -5 -23 43 0 40 -4 52 -20 61 -11 6 -26 23
-34 38 -14 25 -15 25 -16 5 0 -12 11 -30 25 -41 l25 -20 -23 -19 c-18 -14 -36
-17 -76 -14 l-54 3 6 49 c3 27 12 59 19 71 12 23 13 22 18 -12 l6 -35 6 43 c3
24 14 52 24 63 16 18 18 18 30 1 7 -9 14 -28 14 -42z m-1200 32 c0 -10 -19
-32 -42 -50 -23 -18 -37 -32 -32 -32 6 0 19 7 30 15 10 8 27 15 37 15 26 0 17
-34 -10 -38 -12 -2 -27 -10 -33 -18 -7 -8 -20 -14 -30 -14 -13 0 -17 -7 -16
-25 1 -23 26 -37 26 -15 0 21 53 60 81 60 16 0 29 -4 29 -8 0 -16 -25 -32 -51
-32 -15 0 -31 -5 -34 -11 -4 -6 4 -9 21 -7 20 2 29 -2 32 -14 3 -14 -3 -18
-29 -18 -18 0 -37 -7 -45 -17 -13 -17 -14 -16 -20 5 -5 18 -9 20 -15 10 -17
-27 -9 -38 26 -38 23 0 35 -4 34 -12 -1 -7 2 -21 6 -32 6 -14 2 -23 -16 -37
-32 -24 -38 -24 -49 6 -5 14 -17 25 -27 25 -17 1 -17 2 1 15 18 14 18 15 -8
26 -29 13 -35 29 -11 29 8 0 15 6 15 14 0 8 3 22 6 31 5 12 2 16 -11 13 -10
-2 -20 3 -23 11 -3 10 1 12 18 8 20 -5 22 -3 18 29 -2 19 0 34 4 34 16 0 68
44 68 56 0 12 26 33 43 34 4 0 7 -8 7 -18z m1750 8 c0 -5 -5 -10 -11 -10 -5 0
-7 5 -4 10 3 6 8 10 11 10 2 0 4 -4 4 -10z m-1594 -39 c3 -11 7 -11 19 -1 12
10 15 9 15 -4 0 -9 -4 -16 -9 -16 -5 0 -12 -12 -16 -27 l-8 -28 -8 30 c-15 49
-18 73 -11 80 4 3 8 0 10 -7 2 -7 6 -19 8 -27z m1368 4 c4 -15 0 -37 -8 -52
-13 -26 -14 -25 -12 29 1 58 9 67 20 23z m-66 -21 c-3 -27 -4 -26 -9 8 -3 22
-1 34 4 29 5 -5 7 -21 5 -37z m30 10 c-3 -14 -5 -12 -10 9 -3 19 -2 25 4 19 6
-6 8 -18 6 -28z m-1387 9 c13 -15 12 -15 -11 -3 -34 17 -36 20 -18 20 9 0 22
-7 29 -17z m-27 -11 c6 -11 -5 -27 -25 -35 -12 -4 -18 1 -22 19 -3 20 0 24 19
24 12 0 25 -4 28 -8z m136 -28 c0 -8 -5 -12 -10 -9 -6 4 -8 11 -5 16 9 14 15
11 15 -7z m-450 -18 c0 -24 -2 -24 -32 -14 -41 14 -42 14 -33 27 3 6 19 11 36
11 24 0 29 -4 29 -24z m344 -57 c-41 -42 -51 -35 -15 10 17 21 32 47 32 57 1
11 4 6 6 -10 3 -21 -3 -36 -23 -57z m1536 47 c0 -19 -4 -22 -25 -18 -45 8 -45
42 1 42 19 0 24 -5 24 -24z m-1583 -43 c-13 -13 -13 -10 -3 22 9 30 12 32 14
15 2 -13 -3 -29 -11 -37z m186 30 c38 3 37 -16 -1 -28 -21 -6 -31 -14 -27 -23
3 -7 5 -18 5 -23 0 -5 6 -9 14 -9 22 0 30 -20 14 -36 -11 -11 -20 -12 -48 -1
-19 6 -41 17 -48 24 -9 9 -20 9 -38 3 -14 -6 -31 -7 -37 -3 -17 10 55 32 75
22 23 -12 58 -12 39 0 -10 7 -11 13 -1 31 17 31 6 36 -14 5 -19 -28 -36 -33
-36 -9 0 27 42 64 61 54 9 -5 28 -8 42 -7z m1230 5 c32 -17 47 -34 47 -55 1
-14 4 -11 16 10 15 28 29 31 83 21 39 -8 40 -30 1 -39 -35 -8 -47 -22 -31 -38
18 -18 13 -25 -16 -29 -24 -3 -28 -7 -25 -32 2 -15 -3 -36 -11 -45 -8 -9 -17
-25 -19 -36 -3 -17 -6 -15 -21 12 -11 21 -15 42 -11 59 5 20 2 26 -15 31 -21
5 -30 23 -11 23 6 0 10 13 10 29 0 22 -6 31 -30 41 -34 14 -37 22 -14 44 19
19 19 19 47 4z m64 -10 c-3 -8 -6 -5 -6 6 -1 11 2 17 5 13 3 -3 4 -12 1 -19z
m-1783 -34 c11 -28 7 -37 -9 -24 -12 10 -19 10 -27 2 -16 -16 -28 -15 -28 3 0
8 9 15 20 15 11 0 20 5 20 10 0 16 17 12 24 -6z m105 -47 c-2 -3 -15 -8 -29
-12 -22 -7 -23 -6 -11 8 7 9 11 22 8 29 -4 8 -6 7 -6 -4 -1 -10 -6 -18 -12
-18 -6 0 -10 -21 -9 -52 2 -75 0 -87 -10 -61 -10 25 -1 133 11 133 5 0 9 8 9
17 0 14 5 12 27 -9 15 -15 25 -29 22 -31z m1377 -99 c-13 -287 -77 -531 -133
-511 -28 10 -43 24 -37 35 3 5 1 15 -5 22 -7 8 -18 58 -26 111 -12 79 -13 120
-4 214 6 64 12 132 13 151 2 19 6 50 11 68 5 27 9 31 21 21 8 -6 37 -12 64
-12 39 -1 55 4 73 21 12 12 23 22 26 22 2 0 1 -64 -3 -142z m402 100 c-3 -7
-11 -13 -18 -13 -7 0 -15 6 -17 13 -3 7 4 12 17 12 13 0 20 -5 18 -12z m42 -3
c0 -8 -4 -15 -9 -15 -13 0 -22 16 -14 24 11 11 23 6 23 -9z m-1919 -22 c12
-31 3 -97 -12 -88 -5 4 -7 11 -4 16 4 5 -6 14 -20 19 -23 9 -25 13 -14 26 11
13 10 18 -5 26 -15 8 -16 12 -5 19 26 16 49 9 60 -18z m1654 15 c17 -8 24 -17
20 -29 -4 -13 0 -18 16 -21 17 -2 22 -10 24 -38 1 -19 5 -43 9 -52 5 -11 4
-18 -2 -18 -5 0 -12 14 -15 30 -8 36 -30 39 -60 6 -12 -13 -36 -30 -54 -39
-19 -10 -33 -26 -35 -39 -4 -32 -23 -24 -23 10 0 15 -6 32 -14 38 -12 10 -11
13 7 23 28 15 30 57 2 66 -27 8 -25 19 4 33 28 12 36 1 36 -50 0 -30 19 -58
39 -58 10 0 7 90 -4 127 -3 10 1 14 22 22 1 1 14 -4 28 -11z m-1365 -8 c0 -5
-8 -10 -17 -10 -13 -1 -10 -5 10 -16 30 -16 34 -29 12 -38 -22 -8 -18 -25 5
-19 21 6 23 0 20 -54 -1 -18 3 -33 9 -33 8 0 10 23 7 69 -4 57 -2 69 10 64 8
-3 11 -10 8 -15 -8 -12 16 -29 29 -21 4 2 3 11 -3 18 -9 11 -6 16 15 21 14 3
36 2 48 -4 21 -9 20 -11 -16 -26 -39 -17 -60 -47 -39 -54 13 -4 17 -33 5 -31
-24 4 -33 -5 -39 -38 -4 -21 -8 -41 -11 -45 -5 -10 -43 24 -43 38 0 7 -7 15
-16 18 -11 4 -14 13 -10 30 4 15 0 28 -10 37 -8 7 -14 8 -13 3 3 -19 -1 -34
-11 -34 -5 0 -7 7 -4 15 4 8 1 15 -5 15 -19 0 -12 28 10 44 24 16 18 33 -17
46 -38 15 -28 30 21 30 25 0 45 -4 45 -10z m1745 -4 c18 -9 22 -16 13 -20 -10
-5 -10 -7 0 -12 11 -5 18 -34 8 -34 -23 0 -35 15 -30 36 5 21 3 24 -21 24 -15
0 -24 4 -20 10 8 13 18 13 50 -4z m-441 -17 c-3 -5 -10 -7 -15 -3 -5 3 -7 10
-3 15 3 5 10 7 15 3 5 -3 7 -10 3 -15z m351 -8 c-9 -16 -25 -3 -18 15 4 10 9
12 15 6 6 -6 7 -15 3 -21z m-45 9 c0 -5 -4 -10 -9 -10 -6 0 -13 5 -16 10 -3 6
1 10 9 10 9 0 16 -4 16 -10z m-30 -26 c0 -16 -16 -19 -25 -4 -8 13 4 32 16 25
5 -4 9 -13 9 -21z m-1796 -20 c-4 -50 -11 -52 -16 -5 -2 26 1 41 8 41 7 0 10
-14 8 -36z m1756 16 c0 -11 -7 -20 -15 -20 -27 0 -18 30 13 39 1 1 2 -8 2 -19z
m-1310 -13 c-25 -10 -25 -10 10 -18 19 -4 45 -10 58 -14 32 -10 27 2 -10 25
-21 12 -27 20 -16 20 23 0 78 -48 90 -79 15 -36 17 -85 5 -93 -7 -4 -6 -16 2
-35 7 -17 10 -43 7 -59 -2 -16 -5 -56 -7 -89 -2 -54 -3 -52 -9 32 -9 100 -34
161 -86 202 -35 27 -93 46 -106 33 -6 -6 2 -11 22 -16 45 -9 88 -42 121 -94
26 -41 29 -55 29 -127 0 -48 5 -86 12 -93 9 -9 8 -49 -2 -169 -7 -87 -14 -167
-15 -178 -1 -11 -3 -31 -5 -45 -2 -24 -2 -24 -10 4 -5 16 -9 146 -10 288 0
278 -3 295 -56 365 -19 25 -32 33 -57 33 l-32 -1 37 -19 c23 -12 48 -39 65
-68 27 -45 28 -53 30 -187 l2 -140 -14 108 c-7 59 -19 124 -26 145 -16 49 -51
102 -67 102 -8 0 -2 -16 15 -42 45 -72 55 -133 58 -373 4 -238 -2 -225 -29 65
-28 292 -42 334 -112 323 -40 -7 -41 -4 -14 27 11 13 25 42 31 64 6 23 13 46
15 53 2 8 15 10 38 6 25 -4 36 -2 36 7 0 8 -8 10 -25 6 -21 -5 -25 -3 -25 17
0 31 4 34 42 29 32 -5 32 -5 8 -15z m1405 4 c0 -23 -22 -24 -28 -1 -4 16 -1
20 11 18 9 -2 17 -10 17 -17z m-415 -12 c0 -5 -4 -9 -10 -9 -5 0 -10 7 -10 16
0 8 5 12 10 9 6 -3 10 -10 10 -16z m450 -4 c0 -8 -4 -15 -9 -15 -13 0 -22 16
-14 24 11 11 23 6 23 -9z m-93 -10 c7 -20 -2 -29 -21 -22 -9 4 -13 13 -10 22
8 19 23 19 31 0z m-1739 -20 c3 -20 3 -20 -13 -1 -15 19 -15 19 -15 -2 0 -12
-4 -22 -8 -22 -7 0 -8 27 -3 48 3 13 36 -7 39 -23z m1782 -17 c0 -30 -25 -15
-25 15 -1 20 2 24 12 15 7 -6 13 -19 13 -30z m-90 21 c0 -6 10 -19 22 -28 12
-10 18 -23 14 -29 -12 -19 -29 -14 -23 7 3 15 0 17 -16 13 -14 -3 -18 -1 -13
6 4 7 2 12 -3 12 -6 0 -11 7 -11 15 0 8 7 15 15 15 8 0 15 -5 15 -11z m163
-24 c4 -26 1 -30 -19 -30 -13 0 -24 0 -24 1 0 6 33 64 35 62 2 -2 5 -16 8 -33z
m77 15 c0 -15 -7 -20 -24 -20 -34 0 -42 18 -14 29 34 14 38 13 38 -9z m-540 6
c0 -2 -7 -9 -15 -16 -12 -10 -15 -10 -15 4 0 9 7 16 15 16 8 0 15 -2 15 -4z
m170 -5 c0 -5 -6 -12 -12 -14 -8 -3 -6 -6 5 -6 10 -1 17 -9 17 -20 0 -26 15
-34 57 -33 43 2 42 -11 -4 -33 -34 -17 -35 -18 -18 -31 10 -8 25 -14 32 -14 7
0 16 -12 19 -27 4 -16 12 -31 17 -35 14 -9 -8 -35 -36 -44 -12 -3 -29 -13 -39
-21 -15 -13 -16 -11 -12 26 3 40 3 41 -26 41 -17 0 -30 2 -30 4 0 18 17 39 39
48 21 9 23 12 9 15 -10 3 -18 11 -18 19 0 11 -6 13 -22 9 -35 -11 -40 -11 -45
2 -3 7 9 11 32 10 19 -1 40 4 46 10 12 12 9 17 -32 63 -13 13 -14 21 -6 29 13
13 27 14 27 2z m260 -6 c0 -8 -4 -15 -10 -15 -5 0 -10 7 -10 15 0 8 5 15 10
15 6 0 10 -7 10 -15z m-1754 -22 c-10 -10 -19 5 -10 18 6 11 8 11 12 0 2 -7 1
-15 -2 -18z m-208 -9 c4 -18 3 -18 -12 1 -11 14 -15 16 -16 6 0 -8 -3 -12 -6
-8 -9 9 6 29 19 24 7 -2 14 -12 15 -23z m1898 -29 c-1 -14 -5 -25 -11 -25 -5
0 -10 5 -9 10 1 6 2 19 3 31 2 29 18 15 17 -16z m44 9 c0 -8 -7 -14 -15 -14
-15 0 -21 21 -9 33 10 9 24 -2 24 -19z m120 5 c0 -4 -7 -6 -15 -3 -8 4 -15 10
-15 15 0 4 7 6 15 3 8 -4 15 -10 15 -15z m-1954 -15 c-4 -15 -17 -34 -29 -44
l-21 -18 32 -7 c27 -5 31 -9 21 -21 -6 -8 -16 -14 -21 -14 -17 0 -54 -42 -41
-47 8 -3 9 -12 3 -29 -5 -13 -7 -37 -4 -54 8 -39 1 -38 -25 5 -13 22 -28 35
-41 35 -16 0 -19 5 -14 24 3 14 0 29 -10 39 -23 23 -21 51 4 44 11 -3 22 -1
25 4 3 4 12 6 20 3 12 -5 10 -10 -8 -24 -15 -13 -19 -22 -12 -29 7 -6 21 0 43
20 18 16 28 29 22 29 -5 0 -10 11 -10 25 0 13 -7 28 -16 33 -14 8 -12 12 11
30 15 12 39 22 52 22 22 0 24 -3 19 -26z m134 12 c0 -8 -4 -17 -9 -21 -12 -7
-24 12 -16 25 9 15 25 12 25 -4z m1433 -9 c21 -8 12 -30 -10 -25 -9 2 -18 14
-20 28 -1 14 0 20 4 14 5 -6 16 -13 26 -17z m-153 -7 c0 -11 -7 -20 -15 -20
-17 0 -18 2 -9 24 9 23 24 20 24 -4z m-1550 -10 c0 -5 -8 -10 -17 -10 -15 0
-16 2 -3 10 19 12 20 12 20 0z m430 -5 c0 -8 -7 -15 -15 -15 -8 0 -15 7 -15
15 0 8 7 15 15 15 8 0 15 -7 15 -15z m1530 -2 c0 -5 -9 -19 -20 -33 -21 -27
-27 -12 -8 20 13 20 28 27 28 13z m-1703 -9 c-3 -3 -12 -4 -19 -1 -8 3 -5 6 6
6 11 1 17 -2 13 -5z m1793 -8 c0 -8 -13 -28 -30 -46 -16 -18 -30 -34 -30 -36
0 -2 11 -4 25 -4 26 0 34 -15 13 -24 -10 -3 -8 -9 5 -19 20 -17 7 -33 -18 -23
-16 6 -47 -22 -75 -68 l-19 -29 -7 39 c-9 53 -21 74 -42 74 -15 0 -15 2 -2 11
13 8 12 12 -7 26 -13 8 -23 24 -23 34 0 10 -12 25 -27 33 -25 13 -26 15 -10
22 12 4 40 -2 73 -16 l54 -22 38 31 c39 32 82 41 82 17z m-1995 -6 c3 -5 -3
-10 -14 -10 -12 0 -21 -4 -21 -10 0 -5 -11 -10 -25 -10 -16 0 -25 6 -25 16 0
10 6 13 18 10 9 -3 24 -1 32 4 19 12 27 12 35 0z m275 -8 c0 -13 -12 -22 -22
-16 -10 6 -1 24 13 24 5 0 9 -4 9 -8z m1310 5 c0 -2 -9 -12 -20 -22 -17 -16
-20 -16 -20 -2 0 8 8 18 18 20 9 3 18 5 20 6 1 0 2 -1 2 -2z m-1362 -24 c-4
-22 -22 -20 -26 1 -2 10 3 16 13 16 10 0 15 -7 13 -17z m119 -15 c-3 -8 -6 -5
-6 6 -1 11 2 17 5 13 3 -3 4 -12 1 -19z m1195 -3 c23 -30 54 -33 61 -5 3 14
14 20 31 20 31 0 30 1 11 -38 -16 -30 -40 -45 -66 -40 -7 2 -14 -5 -16 -14 -3
-12 1 -15 15 -12 16 5 51 -21 41 -30 -15 -13 -69 -13 -79 -1 -7 8 -19 15 -26
15 -8 0 -14 5 -14 10 0 6 8 10 18 10 27 0 33 10 21 32 -10 18 -8 19 11 13 16
-5 20 -4 15 5 -4 6 -18 9 -34 5 -22 -5 -29 0 -44 25 l-18 30 26 0 c17 0 35
-10 47 -25z m496 8 c-1 -5 2 -18 6 -31 4 -13 3 -28 -3 -36 -7 -9 -7 -16 0 -23
16 -16 7 -75 -9 -64 -20 12 -25 86 -7 101 12 10 13 16 4 26 -6 8 -18 14 -25
14 -8 0 -14 5 -14 10 0 6 11 10 25 10 14 0 24 -3 23 -7z m-1782 -40 c-10 -10
-19 5 -10 18 6 11 8 11 12 0 2 -7 1 -15 -2 -18z m168 5 c8 -13 17 -38 21 -55
6 -29 4 -32 -11 -26 -12 4 -15 3 -10 -5 9 -14 -2 -52 -14 -52 -5 0 -10 10 -12
23 -2 12 -13 26 -26 32 -14 6 -20 15 -16 25 4 8 9 26 12 40 9 43 34 51 56 18z
m-309 3 c3 -5 21 -7 40 -4 28 5 35 2 35 -11 0 -9 7 -27 16 -40 10 -16 12 -26
5 -31 -6 -3 -11 -13 -11 -22 0 -8 -12 -24 -26 -35 -14 -12 -30 -32 -35 -46 -9
-24 -10 -24 -29 -7 -24 22 -25 33 -5 56 15 15 14 17 -10 23 -30 8 -33 26 -5
33 16 4 19 11 14 27 -3 11 -10 25 -15 31 -14 14 -11 35 5 35 8 0 17 -4 21 -9z
m196 -24 c-8 -8 -11 -7 -11 4 0 20 13 34 18 19 3 -7 -1 -17 -7 -23z m1169 18
c0 -8 -4 -15 -10 -15 -5 0 -7 7 -4 15 4 8 8 15 10 15 2 0 4 -7 4 -15z m-1260
-15 c0 -5 -2 -10 -4 -10 -3 0 -8 5 -11 10 -3 6 -1 10 4 10 6 0 11 -4 11 -10z
m256 -35 c3 -19 4 -40 2 -47 -3 -7 -9 11 -15 39 -5 29 -6 50 -2 47 5 -2 11
-20 15 -39z m-206 19 c0 -8 -5 -12 -10 -9 -6 4 -8 11 -5 16 9 14 15 11 15 -7z
m-25 -24 c3 -5 1 -10 -4 -10 -6 0 -11 5 -11 10 0 6 2 10 4 10 3 0 8 -4 11 -10z
m1009 -90 c4 -40 3 -49 -4 -33 -5 13 -12 46 -15 75 -4 35 -2 46 4 33 4 -11 11
-45 15 -75z m261 51 c17 -10 31 -26 32 -37 1 -10 4 -30 6 -44 2 -14 2 -17 0
-8 -2 9 -16 29 -31 44 -18 18 -21 25 -9 21 9 -3 17 -2 17 3 0 13 -27 13 -35 0
-8 -12 -45 -13 -45 -1 0 5 10 11 23 15 18 5 20 8 7 16 -26 17 4 9 35 -9z m295
5 c0 -8 -4 -17 -8 -20 -13 -8 -35 11 -28 23 10 16 36 14 36 -3z m-1436 -15
c26 -29 6 -61 -38 -61 -19 0 -50 -7 -70 -15 -45 -19 -47 -6 -3 20 25 15 28 20
15 23 -25 5 -22 14 10 34 37 22 65 22 86 -1z m1604 1 c2 -7 -3 -12 -12 -12 -9
0 -16 7 -16 16 0 17 22 14 28 -4z m-231 -24 c-3 -7 -5 -2 -5 12 0 14 2 19 5
13 2 -7 2 -19 0 -25z m91 7 c-3 -3 -9 2 -12 12 -6 14 -5 15 5 6 7 -7 10 -15 7
-18z m-1363 -282 c17 -39 20 -93 6 -93 -33 0 -60 124 -56 260 4 146 19 146 28
1 4 -76 14 -148 22 -168z m1144 248 c0 -14 -1 -14 -6 -1 -3 8 -13 24 -22 35
-16 20 -16 20 7 1 12 -11 22 -26 21 -35z m326 19 c0 -22 -29 -18 -33 3 -3 14
1 18 15 15 10 -2 18 -10 18 -18z m-1939 -7 c11 -15 16 -16 33 -5 26 15 31 15
31 -2 0 -7 10 -25 21 -40 24 -31 25 -29 -21 -42 -25 -7 -34 -15 -32 -27 2 -11
-4 -17 -16 -17 -11 0 -22 -7 -26 -15 -8 -22 -26 -18 -26 6 0 30 -18 59 -37 59
-14 0 -14 3 3 21 17 19 18 21 1 30 -9 6 -17 19 -17 29 0 16 7 20 36 20 23 0
42 -6 50 -17z m2020 0 c3 -10 10 -26 15 -35 22 -41 2 -62 -33 -35 -17 12 -21
26 -19 65 1 26 29 30 37 5z m-1801 -2 c3 -5 -4 -12 -15 -16 -11 -3 -33 -23
-50 -43 -16 -20 -30 -34 -30 -31 0 15 41 88 52 92 21 9 36 8 43 -2z m1599 -22
c-10 -16 -24 -9 -24 12 0 18 2 19 15 9 8 -7 12 -16 9 -21z m156 21 c0 -5 -4
-10 -10 -10 -5 0 -10 5 -10 10 0 6 5 10 10 10 6 0 10 -4 10 -10z m-500 -16 c0
-8 -5 -12 -10 -9 -6 4 -8 11 -5 16 9 14 15 11 15 -7z m-975 -139 c4 -66 3
-116 -1 -112 -4 4 -9 20 -10 35 -2 15 -8 52 -14 82 -11 57 -4 154 10 129 4 -8
11 -68 15 -134z m-110 97 c-22 -5 -27 1 -19 23 7 17 8 17 21 -1 12 -17 12 -19
-2 -22z m1413 14 c28 -17 43 -21 55 -15 18 10 57 -4 57 -21 0 -20 -22 -21 -27
-1 -3 12 -10 21 -15 21 -5 0 -6 -9 -3 -20 5 -16 2 -20 -14 -20 -12 0 -21 6
-21 14 0 15 -24 28 -34 19 -12 -12 28 -43 56 -43 22 0 28 -5 28 -21 0 -11 -4
-18 -9 -15 -5 3 -16 -5 -25 -19 -9 -14 -24 -25 -34 -25 -13 -1 -11 -6 10 -24
24 -21 25 -25 10 -32 -20 -8 -28 -11 -42 -13 -12 -1 -13 -12 0 -31 8 -12 11
-12 28 3 30 27 44 20 16 -8 l-26 -26 39 -28 c21 -16 40 -26 43 -24 5 5 -32 38
-53 46 -12 5 59 77 75 77 18 0 6 -28 -17 -40 -25 -13 -33 -30 -15 -30 6 0 10
-7 10 -15 0 -9 9 -15 21 -15 19 0 20 -4 15 -34 -4 -20 -2 -37 4 -41 5 -3 10 1
10 9 0 12 11 16 45 16 42 0 44 -1 33 -20 -10 -15 -10 -22 0 -32 21 -21 15 -58
-9 -58 -18 0 -20 -4 -15 -25 6 -25 -7 -35 -19 -15 -4 7 -13 7 -26 0 -11 -6
-24 -8 -29 -5 -14 9 -7 50 12 69 21 21 13 46 -12 39 -14 -4 -22 2 -29 20 -10
26 -57 49 -106 52 -16 1 -37 5 -45 8 -8 3 -26 8 -40 10 -24 3 -23 4 12 22 33
16 59 55 37 55 -6 0 -8 12 -7 26 3 21 -4 30 -40 49 -41 22 -39 40 5 29 14 -4
18 1 19 20 1 18 -4 26 -23 30 -33 9 -19 26 22 26 21 0 37 -6 43 -17 10 -17 42
-12 42 7 0 6 -5 8 -11 5 -17 -11 -49 26 -49 57 0 34 1 34 48 4z m102 20 c0 -3
-4 -8 -10 -11 -5 -3 -10 -1 -10 4 0 6 5 11 10 11 6 0 10 -2 10 -4z m36 -33
c-7 -17 -8 -17 -17 0 -12 21 -2 44 13 29 6 -6 8 -19 4 -29z m-471 3 c-11 -8
-23 -12 -28 -9 -13 8 3 23 26 23 20 0 20 0 2 -14z m65 -2 c0 -14 -3 -14 -15
-4 -8 7 -15 14 -15 16 0 2 7 4 15 4 8 0 15 -7 15 -16z m-1177 -32 c13 -12 28
-22 34 -22 6 0 13 -39 16 -91 7 -108 -1 -127 -69 -160 -51 -24 -87 -21 -148
14 -98 56 -101 201 -6 265 46 31 137 28 173 -6z m1138 15 c-1 -12 -15 -9 -19
4 -3 6 1 10 8 8 6 -3 11 -8 11 -12z m152 1 c32 -15 34 -24 7 -38 -15 -8 -20
-21 -20 -50 0 -21 5 -40 13 -43 8 -3 4 -11 -11 -22 -15 -11 -22 -24 -19 -36 3
-11 1 -19 -4 -19 -5 0 -10 14 -10 30 -1 17 -3 35 -4 40 -1 6 -3 12 -4 15 0 3
-13 -2 -28 -12 -26 -17 -26 -17 -21 5 7 25 -1 28 -21 10 -10 -11 -12 -10 -9 2
2 11 -8 16 -39 18 -24 2 -43 7 -43 12 0 16 37 30 76 30 29 0 43 7 68 34 36 40
34 40 69 24z m304 -20 c-3 -8 -6 -5 -6 6 -1 11 2 17 5 13 3 -3 4 -12 1 -19z
m88 -10 c5 -5 -6 -6 -25 -3 l-35 6 30 -17 c17 -9 32 -18 34 -20 2 -2 -7 -13
-20 -24 -18 -15 -20 -18 -5 -14 16 6 18 3 11 -33 -4 -26 -2 -43 4 -48 18 -11
13 -30 -17 -61 l-28 -30 2 67 c2 63 1 68 -22 73 -25 7 -34 26 -11 26 7 0 18 9
25 20 10 17 10 21 -3 26 -15 6 -21 45 -9 57 6 6 52 -11 69 -25z m-109 -13 c0
-19 -4 -35 -8 -35 -10 0 -11 54 -1 63 9 10 9 10 9 -28z m-1835 -23 c-6 -2 -11
-10 -11 -18 0 -9 -4 -13 -9 -10 -4 3 -3 21 3 40 10 33 11 34 19 13 5 -13 4
-23 -2 -25z m1425 33 c-22 -17 -46 -20 -46 -6 0 11 18 19 45 20 20 0 20 0 1
-14z m-1451 -15 c-3 -5 -10 -10 -16 -10 -5 0 -9 5 -9 10 0 6 7 10 16 10 8 0
12 -4 9 -10z m-125 -29 c0 -6 -4 -13 -10 -16 -5 -3 -10 1 -10 9 0 9 5 16 10
16 6 0 10 -4 10 -9z m80 -21 c0 -11 -7 -20 -15 -20 -17 0 -18 2 -9 24 9 23 24
20 24 -4z m547 -132 c-2 -29 -3 -6 -3 52 0 58 1 81 3 53 2 -29 2 -77 0 -105z
m1343 127 c0 -8 -4 -15 -10 -15 -5 0 -10 7 -10 15 0 8 5 15 10 15 6 0 10 -7
10 -15z m-1858 -20 c0 -5 -5 -11 -11 -13 -6 -2 -11 4 -11 13 0 9 5 15 11 13 6
-2 11 -8 11 -13z m16 -29 c-8 -6 -13 -17 -10 -24 2 -7 -2 -20 -9 -28 -11 -13
-9 -19 10 -34 28 -21 20 -29 -49 -47 -25 -6 -56 -15 -69 -19 -18 -5 -23 -4
-19 7 2 8 19 15 36 17 20 2 32 9 32 18 0 17 12 18 28 2 9 -9 12 -9 12 -1 0 7
-5 15 -11 19 -6 4 -9 19 -5 38 5 25 3 28 -7 16 -18 -22 -91 -20 -95 3 -3 16 1
17 32 12 29 -6 37 -4 42 10 4 10 1 21 -7 27 -10 7 -9 8 6 3 59 -20 76 -18 83
6 5 21 7 22 10 5 2 -11 -2 -24 -10 -30z m1817 24 c4 -6 11 -8 16 -4 5 3 25 0
44 -6 29 -10 33 -14 26 -33 -11 -29 -36 -37 -28 -8 6 25 -11 28 -52 7 -27 -14
-27 -14 -28 20 -1 33 9 44 22 24z m-415 -10 c0 -5 -5 -10 -11 -10 -5 0 -7 5
-4 10 3 6 8 10 11 10 2 0 4 -4 4 -10z m260 -35 c-1 -33 -36 -47 -72 -28 -36
17 -35 25 5 43 32 16 67 8 67 -15z m-326 1 c-3 -13 -1 -27 5 -31 6 -3 8 -11 5
-17 -5 -7 -1 -9 9 -5 11 4 17 1 17 -8 0 -21 -16 -19 -40 5 -23 23 -23 21 -10
54 12 33 22 34 14 2z m36 5 c0 -12 -20 -25 -27 -18 -7 7 6 27 18 27 5 0 9 -4
9 -9z m30 -11 c0 -5 -5 -10 -11 -10 -5 0 -7 5 -4 10 3 6 8 10 11 10 2 0 4 -4
4 -10z m15 -29 c-9 -17 -11 -31 -5 -31 17 0 11 -26 -12 -46 -21 -19 -21 -19
-13 1 4 11 8 31 9 45 1 27 24 75 33 67 2 -3 -3 -19 -12 -36z m112 -35 c-4 -9
-11 -16 -18 -16 -6 0 -8 7 -5 16 3 9 6 25 7 37 l0 22 11 -22 c6 -12 8 -29 5
-37z m-1617 10 c0 -24 -15 -34 -39 -25 -24 9 -24 10 -5 28 20 19 44 17 44 -3z
m1993 -1 c-3 -8 -9 -15 -14 -15 -10 0 -12 24 -3 33 11 11 24 -3 17 -18z
m-1463 -47 c0 -28 -2 -49 -5 -47 -8 9 -11 108 -3 103 5 -3 8 -28 8 -56z m850
39 c0 -7 -7 -22 -15 -33 -13 -17 -14 -16 -4 14 11 33 19 41 19 19z m31 -20
c-13 -13 -26 -3 -16 12 3 6 11 8 17 5 6 -4 6 -10 -1 -17z m269 13 c8 -5 12
-11 9 -14 -3 -3 -14 1 -25 9 -21 16 -8 20 16 5z m-213 -30 c-8 -21 -18 -30
-34 -30 -25 0 -36 -13 -37 -47 -1 -12 -5 -22 -11 -21 -5 2 -8 21 -7 43 4 40
23 63 67 77 33 10 34 9 22 -22z m73 9 c0 -11 -4 -17 -10 -14 -5 3 -10 13 -10
21 0 8 5 14 10 14 6 0 10 -9 10 -21z m-1370 -30 c0 -5 -11 -4 -24 2 -15 7 -22
17 -19 26 5 11 9 11 24 -3 11 -9 19 -21 19 -25z m1402 19 c-7 -7 -12 -8 -12
-2 0 6 3 14 7 17 3 4 9 5 12 2 2 -3 -1 -11 -7 -17z m475 0 c-3 -8 -6 -5 -6 6
-1 11 2 17 5 13 3 -3 4 -12 1 -19z m-437 3 c0 -17 -12 -41 -21 -41 -10 0 -12
33 -2 43 9 10 23 9 23 -2z m42 -45 c23 -25 23 -36 -2 -36 -10 0 -28 -10 -40
-22 -29 -32 -32 -19 -10 43 11 29 20 56 21 59 0 3 3 -2 6 -10 3 -8 14 -23 25
-34z m-160 -7 c-22 -41 -52 -51 -52 -19 0 20 -2 21 -17 9 -14 -12 -16 -12 -11
1 8 25 38 25 38 0 0 -12 4 -18 11 -15 5 4 9 14 7 23 -2 10 6 22 17 28 28 15
29 11 7 -27z m229 31 c27 0 29 -2 23 -27 -9 -37 -47 -74 -64 -63 -11 7 -11 11
-1 24 10 12 10 19 -3 38 -20 29 -20 42 0 34 9 -3 29 -6 45 -6z m-1563 -29
c117 -86 52 -281 -95 -281 -50 0 -87 16 -123 55 -21 23 -25 36 -24 88 0 110
52 167 150 167 41 0 59 -6 92 -29z m1398 -8 c-4 -4 -11 -1 -16 7 -16 25 -11
35 7 17 9 -9 13 -20 9 -24z m-1293 0 c31 -15 34 -25 11 -43 -12 -11 -15 -11
-12 0 2 8 -6 16 -17 18 -23 5 -55 31 -55 44 0 11 31 2 73 -19z m232 -5 c7 -7
16 -27 20 -44 5 -24 2 -33 -11 -38 -21 -8 -42 9 -46 37 -4 32 -31 27 -47 -10
-11 -24 -22 -33 -50 -38 l-35 -7 22 -17 c20 -14 22 -22 16 -59 -7 -44 3 -54
26 -27 23 27 48 27 85 -1 39 -29 44 -22 23 36 -9 29 -9 35 7 47 31 22 34 16
30 -53 -5 -78 -13 -90 -67 -105 -51 -13 -94 -4 -140 33 -86 68 -68 201 35 249
46 22 111 20 132 -3z m1017 0 c-7 -7 -12 -8 -12 -2 0 6 3 14 7 17 3 4 9 5 12
2 2 -3 -1 -11 -7 -17z m70 -20 c-9 -9 -12 -7 -12 12 0 19 3 21 12 12 9 -9 9
-15 0 -24z m-1042 -16 c0 -15 -2 -15 -10 -2 -13 20 -13 33 0 25 6 -3 10 -14
10 -23z m725 -7 c0 -25 -40 -33 -49 -10 -9 24 2 37 27 33 14 -2 22 -10 22 -23z
m-694 -37 c0 -29 3 -62 5 -73 9 -38 5 -155 -5 -172 -9 -15 -11 -14 -13 12 -5
77 -2 285 5 285 4 0 7 -24 8 -52z m979 36 c0 -8 -4 -12 -10 -9 -5 3 -10 10
-10 16 0 5 5 9 10 9 6 0 10 -7 10 -16z m100 12 c0 -3 -4 -8 -10 -11 -5 -3 -10
-1 -10 4 0 6 5 11 10 11 6 0 10 -2 10 -4z m195 -14 c4 -11 -1 -13 -17 -8 -13
3 -41 6 -63 6 -29 0 -36 3 -25 10 23 14 99 8 105 -8z m-1395 -28 c0 -8 -7 -14
-15 -14 -15 0 -21 21 -9 33 10 9 24 -2 24 -19z m1027 3 c12 5 42 -21 43 -38 0
-4 -13 -9 -30 -12 -21 -5 -31 -14 -36 -32 -6 -25 -24 -35 -24 -14 0 6 -8 9
-19 6 -14 -3 -17 0 -14 14 3 12 0 19 -8 20 -8 1 0 4 16 8 24 5 31 12 33 35 3
20 7 25 14 18 6 -6 17 -8 25 -5z m203 3 c0 -5 -9 -10 -20 -10 -11 0 -20 5 -20
10 0 6 9 10 20 10 11 0 20 -4 20 -10z m205 0 c4 -6 11 -8 16 -5 5 4 9 1 9 -4
0 -15 -13 -14 -36 4 -10 8 -14 15 -7 15 6 0 15 -5 18 -10z m-1625 -10 c0 -5
-2 -10 -4 -10 -3 0 -8 5 -11 10 -3 6 -1 10 4 10 6 0 11 -4 11 -10z m342 -15
c3 -14 1 -28 -3 -31 -5 -3 -9 9 -9 25 0 38 6 40 12 6z m782 10 c-6 -16 -24
-21 -24 -7 0 11 11 22 21 22 5 0 6 -7 3 -15z m41 -5 c0 -22 -21 -22 -22 1 -1
12 3 19 10 16 7 -2 12 -10 12 -17z m179 -18 c-8 -38 -16 -40 -29 -9 -8 18 -6
24 10 33 26 14 26 13 19 -24z m251 18 c59 -29 89 -84 83 -156 -5 -64 -28 -99
-84 -131 -69 -40 -157 -23 -208 41 -27 33 -31 46 -31 100 0 52 4 68 27 98 51
67 135 86 213 48z m-205 -4 c0 -11 -19 -15 -25 -6 -3 5 1 10 9 10 9 0 16 -2
16 -4z m-1192 -18 c15 -15 -3 -38 -30 -38 -23 0 -36 29 -17 41 19 12 33 11 47
-3z m1099 -35 c3 -7 -7 -15 -21 -19 -31 -7 -34 -34 -6 -41 34 -9 16 -28 -24
-27 -38 1 -54 9 -43 20 4 4 13 1 22 -6 9 -8 15 -8 15 -2 0 6 -5 14 -11 17 -7
5 -5 15 6 31 8 13 11 24 5 24 -6 0 -15 -11 -20 -25 -5 -14 -14 -25 -20 -25
-20 0 19 59 42 63 34 7 51 3 55 -10z m-1157 -33 c-18 -11 -22 -7 -14 14 5 13
10 14 18 6 8 -8 7 -13 -4 -20z m83 10 c3 -11 2 -20 -3 -20 -12 0 -31 26 -23
33 11 12 21 7 26 -13z m1552 0 c3 -5 -1 -10 -10 -10 -9 0 -13 5 -10 10 3 6 8
10 10 10 2 0 7 -4 10 -10z m-610 -22 c14 -6 25 -19 25 -30 0 -22 -8 -23 -31
-2 -14 12 -22 13 -38 4 -22 -11 -41 -6 -41 12 0 6 10 8 25 4 18 -5 25 -2 25 9
0 18 2 18 35 3z m575 -18 c0 -5 -4 -10 -10 -10 -5 0 -10 5 -10 10 0 6 5 10 10
10 6 0 10 -4 10 -10z m50 2 c0 -13 -12 -22 -22 -16 -10 6 -1 24 13 24 5 0 9
-4 9 -8z m-1807 -29 c-5 -12 -7 -12 -14 -1 -13 20 -11 28 5 22 8 -3 12 -12 9
-21z m-293 -18 c7 -9 10 -18 7 -21 -10 -11 -37 5 -37 21 0 19 14 19 30 0z
m1396 -34 c-8 -9 -22 -34 -31 -56 -17 -39 -18 -39 -25 -15 -14 43 -11 56 16
84 21 20 30 24 41 15 11 -10 11 -14 -1 -28z m194 17 c51 -35 72 -69 72 -120 1
-56 -24 -100 -72 -127 -44 -24 -78 -26 -123 -7 -95 40 -121 160 -50 228 54 52
120 62 173 26z m508 1 c-2 -6 -8 -10 -13 -10 -5 0 -11 4 -13 10 -2 6 4 11 13
11 9 0 15 -5 13 -11z m-1733 -28 c100 -58 101 -211 3 -271 -105 -64 -232 -9
-254 108 -14 72 40 160 109 181 41 13 104 5 142 -18z m-224 -3 c-14 -5 -30 -7
-38 -4 -7 3 -15 1 -18 -5 -8 -12 -25 -2 -25 14 0 8 16 11 52 8 45 -3 49 -5 29
-13z m-107 4 c2 -4 0 -14 -6 -22 -8 -12 -9 -12 -4 2 3 10 -1 18 -12 21 -16 4
-16 5 0 6 9 0 19 -3 22 -7z m556 -31 c0 -17 5 -33 10 -36 11 -7 13 -48 4 -82
-9 -33 -44 -31 -44 3 0 20 -4 25 -16 20 -17 -6 -54 9 -54 23 0 5 9 11 20 14
11 3 20 2 20 -3 0 -4 11 -5 25 -2 29 5 34 36 8 50 -19 11 -11 42 12 42 10 0
15 -10 15 -29z m-102 -20 c3 -8 -1 -12 -9 -9 -7 2 -15 10 -17 17 -3 8 1 12 9
9 7 -2 15 -10 17 -17z m-448 -21 c0 -11 -4 -20 -10 -20 -5 0 -10 9 -10 20 0
11 5 20 10 20 6 0 10 -9 10 -20z m520 11 c0 -18 -18 -21 -30 -6 -10 13 -9 15
9 15 11 0 21 -4 21 -9z m1450 -1 c0 -5 -4 -10 -10 -10 -5 0 -10 5 -10 10 0 6
5 10 10 10 6 0 10 -4 10 -10z m60 0 c0 -5 -4 -10 -10 -10 -5 0 -10 5 -10 10 0
6 5 10 10 10 6 0 10 -4 10 -10z m27 -12 c-3 -8 -6 -5 -6 6 -1 11 2 17 5 13 3
-3 4 -12 1 -19z m-391 -15 c-7 -7 -26 7 -26 19 0 6 6 6 15 -2 9 -7 13 -15 11
-17z m-1706 7 c0 -5 -4 -10 -10 -10 -5 0 -10 5 -10 10 0 6 5 10 10 10 6 0 10
-4 10 -10z m2040 -10 c0 -5 -4 -10 -10 -10 -5 0 -10 5 -10 10 0 6 5 10 10 10
6 0 10 -4 10 -10z m-1970 -14 c0 -22 -23 -36 -40 -25 -13 8 -12 12 4 24 25 19
36 19 36 1z m1836 -11 c-11 -8 -38 -15 -61 -15 -24 0 -62 -10 -90 -25 -50 -25
-65 -25 -65 0 0 30 45 47 107 40 33 -4 69 -2 83 4 36 14 48 13 26 -4z m-1906
-3 c0 -13 -12 -22 -22 -16 -10 6 -1 24 13 24 5 0 9 -4 9 -8z m2006 -16 c1 -9
-3 -19 -11 -22 -9 -4 -6 -12 12 -31 15 -14 28 -20 32 -15 11 19 55 18 59 0 2
-13 -3 -18 -18 -18 -13 0 -24 -8 -27 -20 -7 -28 -20 -25 -37 9 -9 16 -29 40
-45 54 -27 23 -28 25 -11 30 11 3 20 13 20 22 0 22 22 14 26 -9z m34 4 c0 -5
-4 -10 -10 -10 -5 0 -10 5 -10 10 0 6 5 10 10 10 6 0 10 -4 10 -10z m-2010
-25 c8 -10 10 -19 4 -25 -5 -5 -14 1 -21 16 -12 27 -2 32 17 9z m463 0 c1 -5
-6 -11 -15 -13 -11 -2 -18 3 -18 13 0 17 30 18 33 0z m1437 -20 c75 -39 105
-151 62 -230 -19 -37 -67 -73 -110 -85 -46 -12 -57 -8 -85 27 -11 13 -40 35
-67 48 -26 13 -50 31 -54 40 -19 50 7 137 52 178 50 46 138 55 202 22z m150
16 c0 -6 -4 -13 -10 -16 -5 -3 -10 1 -10 9 0 9 5 16 10 16 6 0 10 -4 10 -9z
m-2090 -22 c0 -11 -4 -18 -10 -14 -5 3 -7 12 -3 20 7 21 13 19 13 -6z m2050
11 c0 -5 -2 -10 -4 -10 -3 0 -8 5 -11 10 -3 6 -1 10 4 10 6 0 11 -4 11 -10z
m-1472 -16 c12 -4 22 -13 22 -21 0 -8 -6 -12 -12 -9 -7 3 -21 9 -30 12 -10 4
-18 10 -18 15 0 10 7 11 38 3z m-84 -19 c-4 -9 0 -15 10 -15 9 0 16 -8 16 -19
0 -14 -10 -20 -42 -24 -24 -3 -44 -4 -46 -2 -6 6 27 63 40 68 23 9 28 7 22 -8z
m-384 -3 c0 -13 -12 -22 -22 -16 -10 6 -1 24 13 24 5 0 9 -4 9 -8z m1566 -41
c-9 -16 -16 -37 -16 -45 0 -8 -7 -19 -16 -24 -15 -8 -15 -11 1 -36 l18 -27
-35 21 c-20 11 -38 30 -41 41 -4 15 -11 18 -30 14 -14 -4 -28 -2 -31 4 -4 6 1
11 11 11 10 0 32 9 48 20 38 25 44 25 38 0 -3 -11 -9 -20 -14 -20 -5 0 -9 -4
-9 -10 0 -5 7 -7 15 -4 15 6 30 41 27 61 -3 14 42 47 46 34 2 -5 -4 -23 -12
-40z m-1651 19 c3 -5 -1 -10 -10 -10 -9 0 -13 5 -10 10 3 6 8 10 10 10 2 0 7
-4 10 -10z m80 -39 c-16 -15 -85 -41 -85 -32 0 15 44 40 70 40 14 1 20 -3 15
-8z m262 -48 c-18 -19 -70 -27 -65 -11 4 11 69 37 77 31 3 -2 -3 -11 -12 -20z
m213 2 c14 -13 20 -29 18 -49 -2 -24 -8 -30 -31 -33 -24 -3 -30 1 -42 32 -19
43 -33 45 -46 5 -10 -26 -16 -30 -49 -30 -50 0 -57 -13 -21 -39 l29 -21 -15
-40 c-9 -22 -13 -43 -10 -47 4 -3 24 6 45 20 39 25 39 25 68 6 16 -10 33 -19
38 -19 8 0 4 39 -8 70 -4 9 2 20 15 28 21 13 21 12 17 -55 -2 -38 -7 -74 -11
-80 -5 -7 -26 -17 -47 -23 -138 -37 -248 126 -163 239 14 18 40 39 57 47 42
19 130 13 156 -11z m-389 1 c144 -60 125 -262 -27 -296 -53 -12 -105 3 -143
42 -38 39 -51 82 -41 138 19 102 117 155 211 116z m1899 -18 c0 -13 -32 -6
-37 9 -3 7 3 9 16 6 12 -3 21 -10 21 -15z m-2085 2 c-3 -5 -10 -10 -16 -10 -5
0 -9 5 -9 10 0 6 7 10 16 10 8 0 12 -4 9 -10z m2080 -39 c3 -5 -3 -12 -12 -14
-11 -3 -8 -5 10 -6 24 -1 27 -5 27 -36 0 -23 -5 -35 -14 -35 -8 0 -13 8 -12
18 1 12 -7 18 -26 20 -31 4 -36 23 -12 46 18 18 30 20 39 7z m-1580 -11 c3 -5
1 -10 -4 -10 -6 0 -11 5 -11 10 0 6 2 10 4 10 3 0 8 -4 11 -10z m22 -57 c2 -6
-5 -16 -16 -22 -15 -9 -23 -7 -35 5 -9 9 -13 20 -10 25 8 14 56 7 61 -8z
m1503 -18 c0 -8 -4 -15 -10 -15 -5 0 -10 7 -10 15 0 8 5 15 10 15 6 0 10 -7
10 -15z m-1550 -24 c0 -3 -9 -12 -20 -19 -20 -12 -25 -6 -14 22 5 14 34 12 34
-3z m64 -7 c5 -12 2 -15 -10 -10 -8 3 -18 6 -20 6 -3 0 -2 5 1 10 9 15 22 12
29 -6z m1456 -5 c0 -5 -7 -9 -15 -9 -15 0 -20 12 -9 23 8 8 24 -1 24 -14z m43
-4 c4 -8 2 -17 -3 -20 -6 -4 -10 3 -10 14 0 25 6 27 13 6z m-83 -9 c0 -3 -4
-8 -10 -11 -5 -3 -10 -1 -10 4 0 6 5 11 10 11 6 0 10 -2 10 -4z m36 -33 c-10
-10 -19 5 -10 18 6 11 8 11 12 0 2 -7 1 -15 -2 -18z m79 18 c3 -5 1 -12 -5
-16 -5 -3 -10 1 -10 9 0 18 6 21 15 7z m-1659 -81 c19 0 18 -17 -2 -28 -11 -6
-27 -4 -46 5 -16 9 -40 12 -53 9 -27 -7 -31 0 -15 24 8 13 11 13 19 1 6 -10
13 -11 27 -2 18 10 18 10 -2 11 -26 0 -39 27 -24 46 9 10 19 4 47 -27 19 -21
42 -39 49 -39z m1624 45 c0 -8 -4 -15 -10 -15 -5 0 -10 7 -10 15 0 8 5 15 10
15 6 0 10 -7 10 -15z m50 -5 c0 -5 -4 -10 -10 -10 -5 0 -10 5 -10 10 0 6 5 10
10 10 6 0 10 -4 10 -10z m20 -30 c0 -5 -5 -10 -11 -10 -5 0 -7 5 -4 10 3 6 8
10 11 10 2 0 4 -4 4 -10z m-1528 -42 c2 -49 1 -61 -7 -80 -9 -23 18 -24 96 -2
51 15 62 15 110 1 100 -29 185 -31 277 -8 94 25 191 21 252 -10 28 -14 80 -19
255 -27 121 -6 271 -8 333 -6 105 4 112 3 112 -15 0 -12 -11 -23 -30 -30 -36
-12 -39 -31 -5 -31 34 0 32 -18 -2 -22 -38 -4 -32 -22 9 -28 l33 -6 -42 -7
c-24 -4 -43 -12 -43 -17 0 -13 17 -13 25 0 9 15 41 12 59 -5 17 -17 30 -20 21
-5 -3 5 1 10 10 10 9 0 13 -5 10 -10 -3 -6 1 -10 10 -10 9 0 13 4 10 10 -3 5
3 10 14 10 22 0 30 -30 9 -31 -56 -2 -802 -9 -1390 -12 l-718 -3 -6 31 c-7 39
-1 125 9 143 5 7 4 12 -2 12 -6 0 -11 11 -11 25 0 20 6 27 30 31 26 6 29 10
23 32 -6 23 -4 24 23 18 16 -4 29 -8 29 -9 0 -1 5 -11 11 -22 8 -15 23 -21 62
-23 44 -3 55 1 84 27 26 22 38 27 51 20 11 -7 23 -6 34 1 16 10 15 11 -4 7
-13 -3 -26 -1 -29 4 -8 13 -41 11 -48 -3 -5 -10 -7 -10 -12 0 -10 21 -33 -5
-28 -31 l5 -22 -10 23 c-12 26 -26 28 -40 5 -10 -17 -10 -17 -11 0 0 9 -4 17
-10 17 -5 0 -14 -8 -19 -17 -10 -17 -10 -17 -11 0 0 10 7 20 15 23 8 4 15 12
15 20 0 10 20 13 77 13 43 1 87 1 98 1 11 0 54 -1 95 -3 78 -4 111 3 136 28
24 23 34 18 36 -17z m-511 0 c60 -34 48 -50 -20 -27 -35 12 -44 9 -46 -19 0
-9 -5 -17 -10 -17 -15 0 -9 66 6 76 20 13 27 11 70 -13z m604 -57 c-15 -13
-83 -26 -70 -13 6 6 24 12 40 15 17 2 32 5 35 6 2 0 0 -3 -5 -8z m1435 -91 c0
-27 -4 -50 -10 -50 -5 0 -10 5 -10 10 0 6 -12 10 -27 11 l-28 1 25 7 c28 8 41
41 16 41 -19 0 -21 16 -3 23 31 13 37 6 37 -43z m-107 -47 c-7 -2 -19 -2 -25
0 -7 3 -2 5 12 5 14 0 19 -2 13 -5z m70 0 c-7 -2 -21 -2 -30 0 -10 3 -4 5 12
5 17 0 24 -2 18 -5z m12 -43 c-28 -12 -45 -12 -45 0 0 6 15 10 33 9 27 0 29
-2 12 -9z m10 -30 c-3 -5 -17 -10 -31 -10 -13 0 -24 5 -24 10 0 6 14 10 31 10
17 0 28 -4 24 -10z"/>
<path d="M982 3691 c-11 -6 -9 -9 6 -13 11 -3 21 -17 25 -37 8 -37 1 -58 -21
-64 -29 -8 120 -5 178 3 30 4 43 8 29 9 -16 0 -33 11 -43 26 -16 25 -16 27 13
55 l29 30 -101 0 c-56 0 -108 -4 -115 -9z m100 -28 c22 -20 23 -31 1 -55 -23
-26 -30 -23 -36 19 -9 54 2 66 35 36z m48 7 c0 -5 -4 -10 -9 -10 -6 0 -13 5
-16 10 -3 6 1 10 9 10 9 0 16 -4 16 -10z"/>
<path d="M1550 2990 c0 -5 6 -10 14 -10 8 0 18 5 21 10 3 6 -3 10 -14 10 -12
0 -21 -4 -21 -10z"/>
<path d="M1625 2820 c3 -5 11 -10 16 -10 6 0 7 5 4 10 -3 6 -11 10 -16 10 -6
0 -7 -4 -4 -10z"/>
<path d="M1105 2890 c28 -12 37 -12 30 0 -3 6 -16 10 -28 9 -21 0 -21 -1 -2
-9z"/>
<path d="M1100 2860 c0 -5 7 -10 16 -10 8 0 12 5 9 10 -3 6 -10 10 -16 10 -5
0 -9 -4 -9 -10z"/>
<path d="M1197 2853 c-16 -27 -35 -83 -27 -83 4 0 11 14 15 31 5 23 10 28 18
20 14 -14 27 -14 27 -1 0 6 -7 10 -16 10 -8 0 -12 5 -8 11 3 6 17 8 31 4 16
-4 22 -2 18 5 -7 12 -52 14 -58 3z"/>
<path d="M1110 2748 c14 -6 34 -12 45 -14 20 -4 20 -4 1 11 -11 8 -31 15 -45
14 l-26 0 25 -11z"/>
<path d="M2077 2494 c-9 -10 2 -24 19 -24 8 0 14 7 14 15 0 15 -21 21 -33 9z"/>
<path d="M1337 2455 c-35 -36 -55 -91 -38 -108 6 -6 5 -18 -4 -31 -30 -46 -56
-235 -39 -280 13 -34 19 -12 20 77 2 86 17 151 60 262 7 18 6 18 -9 6 -21 -16
-21 -10 -3 33 8 18 24 41 37 49 12 9 20 19 17 22 -3 4 -22 -10 -41 -30z"/>
<path d="M1260 2440 c-7 -17 -10 -33 -7 -37 4 -3 9 3 12 13 4 10 11 27 16 37
5 9 5 17 0 17 -5 0 -14 -14 -21 -30z"/>
<path d="M1096 2378 c-8 -13 -17 -41 -20 -63 -6 -38 -5 -38 8 8 8 26 20 54 26
62 7 8 10 15 6 15 -3 0 -12 -10 -20 -22z"/>
<path d="M702 2305 c-15 -32 -15 -45 -2 -45 6 0 10 7 10 15 0 21 20 19 21 -2
0 -12 2 -13 6 -5 6 17 -5 62 -16 62 -4 0 -13 -11 -19 -25z"/>
<path d="M952 2120 c0 -14 2 -19 5 -12 2 6 2 18 0 25 -3 6 -5 1 -5 -13z"/>
<path d="M742 2110 c15 -24 33 -27 24 -4 -3 9 -6 18 -6 20 0 2 -7 4 -15 4 -13
0 -13 -3 -3 -20z"/>
<path d="M901 1968 c-28 -220 -42 -344 -57 -513 -9 -99 -20 -207 -25 -240 -14
-100 0 284 16 430 18 165 25 326 14 319 -5 -3 -9 -44 -9 -92 -1 -48 -5 -121
-10 -162 -12 -96 -26 -278 -40 -503 -6 -98 -17 -224 -25 -280 -27 -196 -32
-256 -35 -425 -1 -65 2 -108 9 -115 8 -8 11 1 12 34 l1 44 10 -40 c12 -44 60
-115 66 -97 2 6 -5 24 -16 39 -44 63 -49 140 -25 348 7 66 -9 49 -19 -18 -6
-47 -6 -46 -3 13 3 36 7 76 10 90 3 14 6 48 6 75 1 32 4 43 8 31 5 -14 11 1
19 50 7 44 8 70 2 72 -6 2 -9 25 -9 50 2 46 2 46 9 12 6 -33 7 -33 13 -10 3
14 8 66 12 115 8 130 79 786 91 843 2 12 0 22 -4 22 -5 0 -14 -42 -21 -92z"/>
<path d="M1102 2000 c0 -14 2 -19 5 -12 2 6 2 18 0 25 -3 6 -5 1 -5 -13z"/>
<path d="M1212 1935 c0 -16 2 -22 5 -12 2 9 2 23 0 30 -3 6 -5 -1 -5 -18z"/>
<path d="M1202 1860 c0 -19 2 -27 5 -17 2 9 2 25 0 35 -3 9 -5 1 -5 -18z"/>
<path d="M950 1829 c0 -5 5 -7 10 -4 6 3 10 8 10 11 0 2 -4 4 -10 4 -5 0 -10
-5 -10 -11z"/>
<path d="M1189 1788 c-3 -22 -1 -34 4 -29 5 5 7 21 5 37 -3 27 -4 26 -9 -8z"/>
<path d="M965 1787 c4 -12 7 -135 9 -272 4 -300 21 -610 41 -722 15 -87 39
-148 56 -137 7 4 5 12 -4 22 -23 27 -55 197 -62 327 -3 66 -10 192 -16 280 -6
88 -9 237 -7 330 3 94 3 176 1 183 -8 22 -24 13 -18 -11z"/>
<path d="M1252 1710 c0 -14 2 -19 5 -12 2 6 2 18 0 25 -3 6 -5 1 -5 -13z"/>
<path d="M1183 1660 c0 -36 2 -50 4 -32 2 17 2 47 0 65 -2 17 -4 3 -4 -33z"/>
<path d="M1186 1517 c2 -40 5 -184 8 -322 4 -137 10 -288 15 -335 10 -90 54
-244 73 -256 8 -5 9 0 4 17 -27 95 -46 185 -51 249 -4 41 -8 85 -10 98 -2 13
-7 69 -10 125 -4 56 -8 118 -10 137 -2 19 -5 106 -6 193 -1 86 -4 159 -8 161
-4 3 -6 -28 -5 -67z"/>
<path d="M1288 1563 c-6 -23 41 -110 68 -126 8 -5 20 -14 26 -21 14 -15 53 -9
69 10 16 20 4 29 -23 17 -13 -6 -32 -7 -43 -2 -19 7 -19 8 1 8 26 1 39 28 23
47 -17 21 -49 17 -57 -7 -8 -21 -9 -20 -28 7 -10 16 -21 43 -24 59 -5 27 -6
28 -12 8z m108 -74 c8 -14 -11 -33 -25 -25 -11 7 -4 36 9 36 5 0 12 -5 16 -11z"/>
<path d="M1375 1380 c22 -25 35 -26 35 -2 0 12 -9 18 -27 20 -26 2 -26 2 -8
-18z"/>
<path d="M1363 1184 c6 -40 18 -47 33 -19 16 30 19 48 5 26 -8 -12 -12 -13
-25 -2 -14 12 -16 11 -13 -5z"/>
<path d="M847 1063 c-11 -10 -8 -63 3 -63 5 0 9 16 8 35 -1 38 -1 38 -11 28z"/>
<path d="M1290 931 c0 -25 38 -247 49 -288 5 -18 21 -43 35 -55 14 -13 34 -48
44 -78 17 -48 24 -58 66 -79 39 -20 53 -35 73 -78 16 -34 38 -60 60 -74 48
-30 51 -17 5 20 -24 18 -48 50 -61 80 -18 42 -27 52 -65 66 -42 16 -66 46 -66
82 0 14 -43 80 -61 93 -6 5 -14 36 -54 223 -9 43 -14 84 -11 92 3 8 1 15 -4
15 -6 0 -10 -9 -10 -19z"/>
<path d="M1036 905 c-9 -24 -7 -55 3 -55 5 0 11 6 14 13 2 6 12 -13 22 -43 17
-54 34 -84 42 -77 2 3 -6 29 -18 58 -12 30 -25 67 -28 83 -7 34 -26 44 -35 21z"/>
<path d="M1045 827 c-9 -22 18 -87 36 -87 8 0 7 5 -1 16 -8 8 -16 32 -20 52
-6 30 -8 33 -15 19z"/>
<path d="M1440 722 c0 -5 7 -15 15 -22 8 -7 15 -8 15 -2 0 5 -7 15 -15 22 -8
7 -15 8 -15 2z"/>
<path d="M1090 690 c0 -25 47 -118 82 -162 64 -80 95 -106 140 -113 24 -3 57
-8 73 -11 l30 -5 -22 19 c-12 11 -44 23 -70 26 -26 4 -56 9 -65 12 -21 6 -100
116 -139 192 -16 32 -29 50 -29 42z"/>
<path d="M1203 669 c9 -5 17 -17 17 -26 0 -9 3 -14 6 -10 11 11 -7 47 -24 47
-16 -1 -15 -2 1 -11z"/>
<path d="M1470 649 c0 -5 5 -7 10 -4 6 3 10 8 10 11 0 2 -4 4 -10 4 -5 0 -10
-5 -10 -11z"/>
<path d="M1161 634 c0 -11 3 -14 6 -6 3 7 2 16 -1 19 -3 4 -6 -2 -5 -13z"/>
<path d="M1600 549 c0 -11 4 -18 10 -14 5 3 7 12 3 20 -7 21 -13 19 -13 -6z"/>
<path d="M1808 2447 c-16 -6 -28 -14 -28 -19 0 -4 11 -3 25 2 15 6 26 6 30 0
8 -12 55 -13 55 -1 0 5 -8 11 -17 15 -10 3 -22 8 -28 10 -5 2 -22 -1 -37 -7z"/>
<path d="M1930 2330 c0 -5 5 -10 10 -10 6 0 10 5 10 10 0 6 -4 10 -10 10 -5 0
-10 -4 -10 -10z"/>
<path d="M288 2393 c7 -3 16 -2 19 1 4 3 -2 6 -13 5 -11 0 -14 -3 -6 -6z"/>
<path d="M1500 2337 c0 -8 -2 -21 -5 -29 -3 -7 1 -22 9 -33 14 -18 15 -16 10
25 -5 44 -14 68 -14 37z"/>
<path d="M1525 2220 c3 -5 11 -10 16 -10 6 0 7 5 4 10 -3 6 -11 10 -16 10 -6
0 -7 -4 -4 -10z"/>
<path d="M1862 2100 c0 -19 2 -27 5 -17 2 9 2 25 0 35 -3 9 -5 1 -5 -18z"/>
<path d="M1563 2080 c0 -25 2 -35 4 -22 2 12 2 32 0 45 -2 12 -4 2 -4 -23z"/>
<path d="M1516 2079 c-3 -17 -5 -50 -5 -73 1 -30 4 -23 10 29 8 74 6 97 -5 44z"/>
<path d="M1553 1960 c0 -36 2 -50 4 -32 2 17 2 47 0 65 -2 17 -4 3 -4 -33z"/>
<path d="M1496 1904 c-3 -26 -4 -49 -2 -52 3 -2 8 17 11 43 4 25 5 48 3 51 -3
2 -8 -17 -12 -42z"/>
<path d="M1533 1828 c-7 -35 -15 -74 -18 -88 -3 -14 1 -8 10 13 14 38 32 137
23 137 -2 0 -9 -28 -15 -62z"/>
<path d="M1472 1793 c-7 -22 -23 -57 -37 -77 -13 -20 -20 -36 -14 -36 13 0 72
126 67 141 -2 7 -9 -6 -16 -28z"/>
<path d="M1496 1693 c-6 -14 -5 -15 5 -6 7 7 10 15 7 18 -3 3 -9 -2 -12 -12z"/>
<path d="M1750 2089 c-13 -24 -4 -41 10 -19 10 16 13 40 5 40 -2 0 -9 -9 -15
-21z"/>
<path d="M545 1920 c3 -5 11 -10 16 -10 6 0 7 5 4 10 -3 6 -11 10 -16 10 -6 0
-7 -4 -4 -10z"/>
<path d="M725 1530 c3 -5 8 -10 11 -10 2 0 4 5 4 10 0 6 -5 10 -11 10 -5 0 -7
-4 -4 -10z"/>
<path d="M1832 1860 c-16 -26 -15 -33 2 -27 9 4 16 -3 20 -16 5 -21 6 -21 23
-4 17 17 17 19 1 28 -10 6 -18 17 -18 24 0 21 -13 18 -28 -5z"/>
<path d="M110 1801 c0 -5 5 -13 10 -16 6 -3 10 -2 10 4 0 5 -4 13 -10 16 -5 3
-10 2 -10 -4z"/>
<path d="M2036 1885 c-16 -12 -17 -15 -4 -15 8 0 21 7 28 15 16 19 1 19 -24 0z"/>
<path d="M1950 1854 c17 -15 34 -24 37 -20 8 7 -38 45 -55 46 -8 0 1 -12 18
-26z"/>
<path d="M2008 1810 c4 -42 22 -56 22 -18 0 21 0 21 15 2 8 -10 15 -14 15 -8
0 10 -44 64 -52 64 -2 0 -2 -18 0 -40z"/>
<path d="M1720 1845 c-7 -8 -8 -15 -2 -15 5 0 15 7 22 15 7 8 8 15 2 15 -5 0
-15 -7 -22 -15z"/>
<path d="M240 1826 c0 -3 9 -10 20 -16 11 -6 20 -8 20 -6 0 3 -9 10 -20 16
-11 6 -20 8 -20 6z"/>
<path d="M265 1779 c-16 -12 -22 -19 -12 -15 19 6 21 -2 7 -38 -16 -44 -2 -29
23 24 13 28 21 50 18 50 -3 0 -19 -10 -36 -21z"/>
<path d="M55 1702 c6 -5 24 -12 40 -16 34 -7 15 7 -25 19 -16 5 -22 4 -15 -3z"/>
<path d="M80 1650 c0 -5 7 -7 15 -4 11 5 15 -2 16 -27 l1 -34 8 29 c5 16 7 33
4 38 -7 11 -44 10 -44 -2z"/>
<path d="M158 1653 c7 -3 16 -2 19 1 4 3 -2 6 -13 5 -11 0 -14 -3 -6 -6z"/>
<path d="M1880 1560 c0 -5 7 -10 15 -10 21 0 19 -27 -2 -39 -16 -9 -16 -10 5
-11 15 0 22 6 22 20 0 11 12 26 28 34 15 8 23 15 19 16 -5 0 -17 -5 -28 -10
-13 -8 -25 -7 -39 0 -14 7 -20 7 -20 0z"/>
<path d="M1905 1481 c-3 -5 -1 -12 5 -16 5 -3 10 1 10 9 0 18 -6 21 -15 7z"/>
<path d="M1894 1380 c0 -19 16 -27 29 -13 7 6 -11 33 -22 33 -4 0 -7 -9 -7
-20z"/>
<path d="M2095 1270 c3 -5 11 -10 16 -10 6 0 7 5 4 10 -3 6 -11 10 -16 10 -6
0 -7 -4 -4 -10z"/>
<path d="M2090 1231 c0 -5 7 -14 15 -21 16 -14 18 -10 9 14 -6 17 -24 22 -24
7z"/>
<path d="M2070 1195 c-7 -9 -8 -15 -2 -15 5 0 12 7 16 15 3 8 4 15 2 15 -2 0
-9 -7 -16 -15z"/>
<path d="M375 1570 c-13 -25 -22 -30 -50 -30 -40 0 -48 -22 -15 -40 22 -12 26
-41 9 -72 -17 -32 -2 -33 41 -3 l40 28 40 -28 c47 -32 55 -30 35 9 -16 30 -31
99 -18 80 5 -7 16 -8 31 -3 35 13 26 29 -18 29 -34 0 -42 4 -55 30 -9 17 -18
30 -20 30 -2 0 -11 -13 -20 -30z m29 -15 c3 -9 0 -15 -9 -15 -9 0 -12 6 -9 15
4 8 7 15 9 15 2 0 5 -7 9 -15z m-57 -41 c-3 -3 -12 -4 -19 -1 -8 3 -5 6 6 6
11 1 17 -2 13 -5z m80 -10 c8 -22 -16 -35 -41 -21 -12 7 -23 13 -25 14 -1 1 0
6 4 12 10 17 55 13 62 -5z m-47 -45 c0 -8 -32 -29 -44 -29 -3 0 -1 11 5 24 11
23 39 26 39 5z m65 0 c11 -17 -1 -21 -15 -4 -8 9 -8 15 -2 15 6 0 14 -5 17
-11z"/>
<path d="M1726 1584 c-22 -21 -20 -27 4 -14 11 6 20 15 20 20 0 14 -6 12 -24
-6z"/>
<path d="M1665 1550 c3 -5 10 -10 16 -10 5 0 9 5 9 10 0 6 -7 10 -16 10 -8 0
-12 -4 -9 -10z"/>
<path d="M1705 1530 c-3 -5 -1 -10 4 -10 6 0 11 5 11 10 0 6 -2 10 -4 10 -3 0
-8 -4 -11 -10z"/>
<path d="M159 1273 c-5 -16 -12 -34 -14 -40 -3 -8 -22 -13 -47 -13 l-43 -1 34
-29 c32 -27 33 -29 21 -65 -17 -52 -15 -52 58 -8 18 11 25 9 50 -12 36 -30 45
-24 27 19 -13 32 -13 34 15 61 36 34 30 47 -18 43 -35 -3 -37 -1 -46 35 -11
44 -23 47 -37 10z m23 -45 c-9 -9 -12 -7 -12 12 0 19 3 21 12 12 9 -9 9 -15 0
-24z m23 -39 c8 -23 -9 -41 -35 -36 -20 3 -26 37 -8 48 22 14 36 10 43 -12z
m45 17 c0 -2 -7 -9 -15 -16 -12 -10 -15 -10 -15 4 0 9 7 16 15 16 8 0 15 -2
15 -4z m-120 -16 c0 -5 -7 -7 -15 -4 -8 4 -15 8 -15 10 0 2 7 4 15 4 8 0 15
-4 15 -10z m21 -63 c-13 -13 -26 -3 -16 12 3 6 11 8 17 5 6 -4 6 -10 -1 -17z
m74 -5 c-8 -8 -25 10 -19 20 4 6 9 5 15 -3 4 -7 6 -15 4 -17z"/>
<path d="M1556 1184 c-10 -25 1 -29 14 -5 6 12 7 21 1 21 -5 0 -12 -7 -15 -16z"/>
<path d="M1878 1185 c-3 -6 -9 -25 -13 -42 -7 -34 -19 -46 -45 -48 -8 -1 -25
-2 -37 -3 -24 -2 -33 -22 -10 -22 7 0 22 -7 34 -15 19 -13 20 -19 10 -50 -14
-47 -5 -52 37 -20 l35 27 47 -26 c26 -14 48 -26 50 -26 2 0 -6 21 -19 46 l-22
46 35 30 35 29 -45 -6 -45 -6 -20 48 c-12 26 -24 43 -27 38z m22 -72 c0 -7 -7
-13 -16 -13 -11 0 -14 5 -10 16 3 9 6 21 6 27 0 16 20 -14 20 -30z m60 -27 c0
-3 -4 -8 -10 -11 -5 -3 -10 -1 -10 4 0 6 5 11 10 11 6 0 10 -2 10 -4z m-120
-16 c0 -13 -11 -13 -30 0 -12 8 -11 10 8 10 12 0 22 -4 22 -10z m78 -6 c-5
-29 -35 -41 -54 -22 -22 21 -10 38 27 38 23 0 30 -4 27 -16z m25 -44 c3 -11 2
-20 -3 -20 -12 0 -31 26 -23 33 11 12 21 7 26 -13z m-78 1 c3 -6 -4 -15 -15
-21 -16 -8 -20 -8 -20 3 0 25 23 36 35 18z"/>
<path d="M1558 982 c-16 -40 -19 -42 -57 -42 -49 0 -52 -9 -10 -33 25 -14 30
-22 25 -40 -18 -66 -18 -67 -2 -67 9 0 16 4 16 10 0 5 11 17 24 25 23 15 27
15 65 -7 22 -12 43 -20 46 -16 4 3 -3 25 -15 47 l-21 42 31 17 c41 23 38 32
-14 32 -41 0 -44 2 -57 37 l-14 37 -17 -42z m-27 -65 c-1 -12 -15 -9 -19 4 -3
6 1 10 8 8 6 -3 11 -8 11 -12z m72 -1 c7 -17 -11 -36 -35 -36 -18 0 -25 29
-11 43 11 12 41 8 46 -7z m27 -56 c12 -23 7 -25 -21 -9 -11 5 -17 14 -14 20
10 15 23 11 35 -11z m-70 6 c0 -2 -7 -9 -15 -16 -12 -10 -15 -10 -15 4 0 9 7
16 15 16 8 0 15 -2 15 -4z"/>
<path d="M316 940 c-14 -36 -19 -40 -51 -40 -42 0 -47 -20 -11 -44 22 -14 23
-18 13 -45 -15 -40 -4 -48 31 -22 37 26 43 26 94 1 23 -11 45 -20 50 -20 4 0
-2 21 -13 47 l-20 47 28 22 28 23 -42 1 c-38 0 -42 3 -53 35 -15 46 -34 44
-54 -5z m42 -18 c2 -14 -2 -22 -11 -22 -17 0 -30 27 -21 41 9 16 29 4 32 -19z
m22 -45 c0 -7 -5 -18 -12 -25 -24 -24 -73 -7 -62 21 8 21 74 24 74 4z m27 -52
c12 -27 4 -32 -28 -14 -16 8 -18 13 -8 25 16 20 22 18 36 -11z m-100 -12 c-9
-9 -19 -14 -23 -11 -10 10 6 28 24 28 15 0 15 -1 -1 -17z"/>
<path d="M640 880 c0 -5 5 -10 10 -10 6 0 10 5 10 10 0 6 -4 10 -10 10 -5 0
-10 -4 -10 -10z"/>
<path d="M1795 860 c-3 -5 1 -10 9 -10 8 0 18 5 21 10 3 6 -1 10 -9 10 -8 0
-18 -4 -21 -10z"/>
<path d="M1875 770 c-8 -36 -16 -42 -61 -42 -42 0 -43 -12 -5 -44 30 -25 30
-25 15 -66 -8 -23 -13 -43 -11 -45 2 -2 22 7 44 19 l40 22 40 -32 c22 -17 43
-29 46 -26 3 3 -1 27 -9 52 -18 61 -19 58 16 79 42 24 38 33 -16 33 -44 0 -46
2 -62 40 -20 48 -28 50 -37 10z m25 -35 c0 -8 -4 -15 -10 -15 -5 0 -10 7 -10
15 0 8 5 15 10 15 6 0 10 -7 10 -15z m-50 -35 c0 -5 -7 -10 -15 -10 -8 0 -15
5 -15 10 0 6 7 10 15 10 8 0 15 -4 15 -10z m68 -15 c10 -21 9 -26 -9 -36 -28
-15 -54 9 -44 40 9 29 39 27 53 -4z m47 5 c-3 -5 -10 -10 -16 -10 -5 0 -9 5
-9 10 0 6 7 10 16 10 8 0 12 -4 9 -10z m-95 -59 c0 -12 -20 -25 -27 -18 -7 7
6 27 18 27 5 0 9 -4 9 -9z m80 -12 c7 -11 10 -22 8 -25 -8 -7 -48 27 -43 37
10 15 24 10 35 -12z"/>
<path d="M500 740 c0 -5 7 -7 15 -4 8 4 15 8 15 10 0 2 -7 4 -15 4 -8 0 -15
-4 -15 -10z"/>
<path d="M167 620 c-14 -36 -19 -40 -51 -40 -20 0 -36 -4 -36 -10 0 -5 6 -10
14 -10 30 0 40 -28 23 -70 -8 -21 -12 -41 -9 -44 3 -3 22 4 44 16 l38 22 30
-22 c16 -12 31 -22 33 -22 2 0 -1 18 -6 40 -11 39 -10 41 23 70 36 30 35 32
-24 34 -23 1 -31 7 -40 33 -16 47 -21 47 -39 3z m28 -20 c3 -5 1 -10 -4 -10
-6 0 -11 5 -11 10 0 6 2 10 4 10 3 0 8 -4 11 -10z m10 -60 c0 -16 -6 -26 -18
-28 -19 -4 -32 20 -23 44 9 25 41 13 41 -16z m45 15 c-12 -15 -30 -12 -30 6 0
5 10 9 21 9 18 0 19 -2 9 -15z m-86 -53 c2 -4 -4 -13 -15 -20 -21 -13 -22 -12
-13 12 7 17 20 21 28 8z m66 -18 c0 -8 -4 -12 -10 -9 -5 3 -10 10 -10 16 0 5
5 9 10 9 6 0 10 -7 10 -16z"/>
<path d="M575 330 c-4 -6 7 -10 25 -10 18 0 29 4 25 10 -3 6 -15 10 -25 10
-10 0 -22 -4 -25 -10z"/>
<path d="M495 280 c-4 -7 7 -10 30 -8 20 1 39 6 41 10 3 4 -11 8 -30 8 -19 0
-38 -5 -41 -10z"/>
<path d="M368 273 c7 -3 16 -2 19 1 4 3 -2 6 -13 5 -11 0 -14 -3 -6 -6z"/>
<path d="M118 218 c-8 -4 12 -8 46 -8 33 0 56 3 53 7 -10 10 -84 11 -99 1z"/>
<path d="M277 223 c18 -2 50 -2 70 0 21 2 7 4 -32 4 -38 0 -55 -2 -38 -4z"/>
<path d="M723 223 c37 -2 96 -2 130 0 34 2 4 3 -68 3 -71 0 -99 -1 -62 -3z"/>
<path d="M1023 223 c9 -2 23 -2 30 0 6 3 -1 5 -18 5 -16 0 -22 -2 -12 -5z"/>
<path d="M1163 223 c9 -2 23 -2 30 0 6 3 -1 5 -18 5 -16 0 -22 -2 -12 -5z"/>
<path d="M178 163 c7 -3 16 -2 19 1 4 3 -2 6 -13 5 -11 0 -14 -3 -6 -6z"/>
<path d="M400 135 c-5 -14 -16 -25 -25 -25 -8 0 -15 -7 -15 -16 0 -11 5 -14
16 -10 9 3 45 6 80 6 59 0 64 2 64 21 0 17 -5 20 -24 17 -18 -4 -26 0 -29 14
-8 29 -55 24 -67 -7z"/>
<path d="M148 103 c7 -3 16 -2 19 1 4 3 -2 6 -13 5 -11 0 -14 -3 -6 -6z"/>
<path d="M1268 63 c23 -2 59 -2 80 0 20 2 1 4 -43 4 -44 0 -61 -2 -37 -4z"/>
</g>
</svg>
