<?xml version="1.0" standalone="no"?>
<!DOCTYPE svg PUBLIC "-//W3C//DTD SVG 20010904//EN"
 "http://www.w3.org/TR/2001/REC-SVG-20010904/DTD/svg10.dtd">
<svg version="1.0" xmlns="http://www.w3.org/2000/svg"
 width="223.000000pt" height="379.000000pt" viewBox="0 0 223.000000 379.000000"
 preserveAspectRatio="xMidYMid meet">
<metadata>
Created by potrace 1.16, written by Peter Selinger 2001-2019
</metadata>
<g transform="translate(0.000000,379.000000) scale(0.100000,-0.100000)"
fill="#000000" stroke="none">
<path d="M1490 3780 c-195 -3 -602 -4 -905 -2 -306 1 -556 -1 -563 -6 -13 -9
-13 -24 -8 -1212 0 -25 -1 -76 -3 -115 -6 -144 -2 -2343 5 -2393 l7 -52 1093
0 1094 0 2 138 c1 75 3 180 4 232 5 176 7 1825 3 2650 -1 239 -1 508 -1 598 0
89 -3 162 -6 163 -33 3 -435 3 -722 -1z m627 -45 c-8 -17 -20 -25 -37 -25 -14
0 -32 -5 -40 -10 -13 -9 -13 -11 0 -20 8 -5 24 -10 35 -10 18 -1 18 -2 -2 -10
-25 -10 -31 -29 -10 -31 6 0 -3 -5 -20 -10 -33 -10 -46 -39 -18 -39 8 0 14 6
13 13 -2 8 9 12 32 12 30 0 35 -4 38 -25 5 -36 22 -50 22 -18 0 33 11 41 42
29 17 -7 18 -10 6 -10 -10 -1 -18 -6 -18 -12 0 -6 7 -9 15 -5 11 4 15 -2 15
-24 l0 -29 -107 -3 c-242 -8 -784 -13 -1398 -13 l-650 0 0 125 0 125 609 2
c335 1 611 5 613 7 3 3 200 5 438 6 l433 0 -11 -25z m69 -124 c-3 -5 -15 -7
-26 -4 -28 7 -25 13 6 13 14 0 23 -4 20 -9z m4 -144 l0 -23 -552 -4 c-762 -5
-754 -5 -1205 -2 -395 2 -403 2 -403 22 0 20 8 20 708 23 389 1 875 3 1080 5
l372 2 0 -23z m-407 -104 c-7 -91 -13 -93 -13 -5 0 40 4 72 9 72 5 0 6 -30 4
-67z m67 2 c0 -37 -4 -65 -10 -65 -5 0 -10 12 -10 28 0 33 11 102 16 102 2 0
4 -29 4 -65z m38 1 c1 -30 -3 -58 -8 -61 -6 -4 -10 20 -10 60 0 79 16 80 18 1z
m32 9 c0 -30 -4 -55 -10 -55 -11 0 -14 93 -3 103 12 12 13 8 13 -48z m77 -22
c-2 -16 -4 -3 -4 27 0 30 2 43 4 28 2 -16 2 -40 0 -55z m101 12 c0 -30 -5 -55
-9 -55 -5 0 -9 27 -9 61 0 34 4 58 9 55 5 -4 9 -31 9 -61z m-2031 8 c-3 -10
-5 -2 -5 17 0 19 2 27 5 18 2 -10 2 -26 0 -35z m30 0 c-3 -10 -5 -2 -5 17 0
19 2 27 5 18 2 -10 2 -26 0 -35z m85 -5 c-9 -9 -12 -4 -11 23 0 32 1 33 11 11
8 -17 8 -26 0 -34z m38 5 c0 -13 -4 -23 -10 -23 -5 0 -10 17 -10 38 0 27 3 33
10 22 5 -8 10 -25 10 -37z m30 5 c0 -9 -4 -20 -10 -23 -6 -4 -10 9 -10 32 0
28 3 34 10 23 5 -8 10 -23 10 -32z m161 -79 c-4 -94 -5 -99 -13 -59 -9 47 0
190 11 172 3 -5 4 -57 2 -113z m30 15 c-1 -54 -4 -100 -6 -103 -3 -2 -5 44 -5
104 0 60 3 106 6 102 4 -3 6 -50 5 -103z m26 -51 c-2 -32 -3 -8 -3 52 0 61 1
87 3 58 2 -29 2 -78 0 -110z m35 20 c-7 -115 -17 -85 -13 34 3 73 6 97 10 73
4 -19 5 -68 3 -107z m38 45 c0 -51 -5 -100 -10 -108 -7 -10 -10 19 -10 93 0
65 4 107 10 107 6 0 10 -37 10 -92z m38 -10 c-2 -61 -7 -103 -14 -105 -7 -2
-10 31 -10 102 1 78 4 105 14 105 10 0 12 -24 10 -102z m42 50 c0 -76 -11
-158 -21 -158 -10 0 -12 97 -3 164 9 62 24 58 24 -6z m30 -47 c0 -59 -4 -102
-10 -106 -7 -5 -10 28 -9 99 1 58 5 106 10 106 5 0 9 -45 9 -99z m33 27 c4
-40 3 -89 -2 -108 -5 -19 -10 -33 -11 -30 -5 14 -4 210 1 210 3 0 9 -33 12
-72z m35 -33 c0 -52 -4 -97 -9 -101 -5 -3 -9 40 -9 101 0 59 4 104 9 101 5 -3
9 -49 9 -101z m90 0 c-1 -58 -5 -102 -10 -99 -5 3 -8 46 -7 95 2 49 0 92 -4
95 -4 4 -7 -8 -8 -27 0 -19 -4 -43 -9 -54 -6 -14 -9 -4 -9 38 -1 54 0 57 24
57 l24 0 -1 -105z m87 17 c-3 -42 -8 -78 -10 -81 -3 -2 -5 35 -5 83 0 59 3 85
11 81 6 -5 8 -34 4 -83z m315 78 c0 -5 -2 -10 -4 -10 -3 0 -8 5 -11 10 -3 6
-1 10 4 10 6 0 11 -4 11 -10z m27 -22 c-3 -7 -5 -2 -5 12 0 14 2 19 5 13 2 -7
2 -19 0 -25z m43 -10 c0 -10 -4 -18 -10 -18 -5 0 -10 15 -10 33 0 24 3 28 10
17 5 -8 10 -23 10 -32z m30 -22 c0 -51 -6 -43 -14 19 -5 36 -4 46 3 35 6 -8
11 -33 11 -54z m29 -15 c1 -61 -5 -48 -12 24 -3 36 -2 52 3 40 5 -11 9 -40 9
-64z m32 57 c0 -13 2 -34 4 -48 3 -25 7 -152 6 -179 -1 -8 -4 -12 -7 -8 -3 3
-8 56 -10 119 -3 62 -7 119 -9 126 -2 6 0 12 5 12 6 0 10 -10 11 -22z m41 -35
c2 -32 1 -87 -2 -123 l-5 -65 -8 85 c-9 113 -9 160 2 160 5 0 10 -26 13 -57z
m25 -76 c-2 -23 -3 -1 -3 48 0 50 1 68 3 42 2 -26 2 -67 0 -90z m58 76 c-1
-104 -5 -153 -12 -153 -5 0 -7 47 -5 105 3 109 17 149 17 48z m22 10 c-3 -10
-5 -2 -5 17 0 19 2 27 5 18 2 -10 2 -26 0 -35z m42 -25 c-2 -117 -17 -138 -18
-25 -1 58 3 97 9 97 6 0 10 -30 9 -72z m87 -27 c5 -50 4 -71 -5 -71 -6 0 -11
6 -11 13 0 6 -3 46 -6 87 -6 98 13 72 22 -29z m41 67 c-3 -7 -5 -2 -5 12 0 14
2 19 5 13 2 -7 2 -19 0 -25z m32 -42 c-5 -6 -9 7 -8 35 l1 44 8 -35 c5 -20 5
-39 -1 -44z m28 -33 c-2 -21 -4 -4 -4 37 0 41 2 58 4 38 2 -21 2 -55 0 -75z
m69 61 c-3 -26 -6 -55 -6 -66 0 -11 -3 -17 -7 -15 -12 7 -3 127 9 127 7 0 8
-17 4 -46z m241 -36 c-2 -18 -4 -6 -4 27 0 33 2 48 4 33 2 -15 2 -42 0 -60z
m70 -10 c-2 -18 -4 -4 -4 32 0 36 2 50 4 33 2 -18 2 -48 0 -65z m-1970 50 c-3
-7 -5 -2 -5 12 0 14 2 19 5 13 2 -7 2 -19 0 -25z m682 -85 c-2 -100 -3 -109
-9 -63 -7 50 -2 180 6 180 2 0 3 -53 3 -117z m78 35 c-2 -18 -4 -6 -4 27 0 33
2 48 4 33 2 -15 2 -42 0 -60z m30 30 c-2 -13 -4 -5 -4 17 -1 22 1 32 4 23 2
-10 2 -28 0 -40z m259 23 c77 -35 132 -132 119 -210 -10 -59 -46 -113 -98
-145 -98 -61 -224 -33 -287 63 -52 78 -37 194 33 259 55 51 160 66 233 33z
m-456 -76 c0 -50 -4 -85 -10 -85 -11 0 -14 152 -3 163 12 13 13 7 13 -78z
m117 63 c-3 -8 -6 -5 -6 6 -1 11 2 17 5 13 3 -3 4 -12 1 -19z m-490 -10 c-3
-8 -6 -5 -6 6 -1 11 2 17 5 13 3 -3 4 -12 1 -19z m1590 -30 c-2 -13 -4 -5 -4
17 -1 22 1 32 4 23 2 -10 2 -28 0 -40z m60 5 c-3 -10 -5 -2 -5 17 0 19 2 27 5
18 2 -10 2 -26 0 -35z m-360 5 c-3 -7 -5 -2 -5 12 0 14 2 19 5 13 2 -7 2 -19
0 -25z m30 -45 c-2 -16 -4 -3 -4 27 0 30 2 43 4 28 2 -16 2 -40 0 -55z m-90
-15 c-2 -18 -4 -6 -4 27 0 33 2 48 4 33 2 -15 2 -42 0 -60z m-1438 63 c20 -13
4 -31 -27 -31 -34 0 -57 14 -48 29 8 13 55 14 75 2z m1359 -57 c-2 -71 -18
-82 -18 -11 0 47 5 67 16 67 2 0 3 -25 2 -56z m58 6 c-1 -65 -16 -65 -16 0 0
28 4 50 9 50 4 0 8 -22 7 -50z m-1506 14 c0 -11 -5 -14 -16 -10 -9 3 -20 6
-25 6 -5 0 -9 5 -9 10 0 6 11 10 25 10 16 0 25 -6 25 -16z m238 -37 c3 -32 0
-37 -17 -37 -17 0 -21 6 -21 33 0 61 33 63 38 4z m549 -19 c-2 -13 -4 -5 -4
17 -1 22 1 32 4 23 2 -10 2 -28 0 -40z m-100 -10 c-2 -13 -4 -5 -4 17 -1 22 1
32 4 23 2 -10 2 -28 0 -40z m583 19 c0 -18 -2 -19 -10 -7 -13 20 -13 43 0 35
6 -3 10 -16 10 -28z m572 3 c3 -16 1 -30 -4 -30 -4 0 -8 14 -8 30 0 17 2 30 4
30 2 0 6 -13 8 -30z m25 -7 c-3 -10 -5 -4 -5 12 0 17 2 24 5 18 2 -7 2 -21 0
-30z m65 2 c-6 -34 -12 -32 -12 6 0 16 4 28 9 25 4 -3 6 -17 3 -31z m30 -7
c-10 -22 -11 -21 -11 12 -1 26 2 31 11 22 8 -8 8 -17 0 -34z m40 7 c-2 -15 -8
-23 -13 -18 -10 10 0 55 11 48 4 -2 5 -16 2 -30z m-1729 -12 c-6 -52 -13 -55
-13 -5 0 23 4 42 9 42 4 0 6 -17 4 -37z m1504 15 c-3 -8 -6 -5 -6 6 -1 11 2
17 5 13 3 -3 4 -12 1 -19z m35 -3 c3 -13 1 -22 -3 -19 -9 5 -13 44 -5 44 2 0
6 -11 8 -25z m85 -12 c-3 -10 -5 -4 -5 12 0 17 2 24 5 18 2 -7 2 -21 0 -30z
m137 10 c-10 -40 -14 -41 -14 -5 0 18 5 32 10 32 6 0 8 -11 4 -27z m27 -14
l-10 -24 0 26 c-1 14 2 29 6 33 12 12 14 -9 4 -35z m-322 -14 c0 -5 -4 -3 -9
5 -5 8 -9 22 -9 30 0 16 17 -16 18 -35z m367 29 c-3 -9 -6 -22 -6 -30 0 -9 -4
-13 -9 -10 -11 7 -2 56 11 56 6 0 7 -7 4 -16z m-729 -41 c-3 -10 -5 -2 -5 17
0 19 2 27 5 18 2 -10 2 -26 0 -35z m380 25 c-3 -8 -6 -5 -6 6 -1 11 2 17 5 13
3 -3 4 -12 1 -19z m-1460 -50 c-2 -13 -4 -3 -4 22 0 25 2 35 4 23 2 -13 2 -33
0 -45z m1303 37 c0 -8 -2 -15 -4 -15 -2 0 -6 7 -10 15 -3 8 -1 15 4 15 6 0 10
-7 10 -15z m30 0 c0 -8 -2 -15 -4 -15 -2 0 -6 7 -10 15 -3 8 -1 15 4 15 6 0
10 -7 10 -15z m-1438 -19 c3 -16 0 -27 -9 -31 -20 -7 -33 2 -33 24 0 38 35 43
42 7z m-137 4 c3 -5 2 -10 -4 -10 -5 0 -13 5 -16 10 -3 6 -2 10 4 10 5 0 13
-4 16 -10z m1469 -25 c5 -22 4 -26 -4 -15 -5 8 -10 24 -10 34 0 26 6 18 14
-19z m516 7 l75 -17 3 -75 3 -75 -33 55 c-81 134 -241 158 -347 52 -112 -113
-88 -281 51 -353 114 -58 242 -15 300 102 l27 54 0 -200 c0 -190 -1 -199 -17
-175 -53 79 -145 128 -219 114 -98 -18 -180 -89 -204 -177 -48 -178 163 -338
323 -244 25 15 62 46 82 69 l36 43 0 -81 c0 -80 0 -81 -24 -77 -16 3 -28 -2
-38 -16 -13 -19 -17 -20 -28 -6 -13 16 -48 20 -65 7 -5 -4 -15 -16 -21 -27 -6
-11 -20 -22 -30 -24 -35 -6 -55 -32 -49 -63 9 -37 -8 -36 -35 2 -23 32 -57 40
-67 14 -4 -11 -13 -14 -32 -8 -14 4 -46 10 -70 13 l-44 6 2 340 c2 279 5 343
17 356 33 36 19 40 -138 37 -147 -3 -153 -4 -149 -23 9 -45 16 -322 11 -446
l-5 -132 -38 46 c-20 25 -51 73 -68 107 -40 78 -97 119 -174 127 -71 7 -134
-11 -184 -53 -32 -28 -47 -34 -86 -34 -38 0 -46 3 -41 15 3 8 -2 29 -12 46
-13 24 -14 33 -4 36 6 3 12 11 12 19 0 9 -4 12 -10 9 -6 -3 -10 4 -10 17 0 45
161 225 282 316 140 105 376 220 518 252 30 7 81 21 112 32 32 10 77 23 100
27 70 14 208 10 288 -7z m-1992 -22 c14 -19 17 -27 8 -24 -8 3 -17 12 -20 20
-3 8 -13 14 -23 14 -15 0 -16 2 -3 10 8 5 15 10 16 10 0 0 10 -13 22 -30z
m1425 -2 c6 -22 5 -22 -8 -4 -17 22 -20 40 -6 32 5 -3 11 -16 14 -28z m-1483
12 c0 -5 -2 -10 -4 -10 -3 0 -8 5 -11 10 -3 6 -1 10 4 10 6 0 11 -4 11 -10z
m100 0 c0 -5 -8 -10 -17 -10 -15 0 -16 2 -3 10 19 12 20 12 20 0z m368 -37
c-2 -35 -8 -49 -19 -51 -22 -4 -31 22 -23 64 5 25 12 34 26 34 17 0 19 -6 16
-47z m112 -4 c0 -47 -2 -50 -22 -47 -20 3 -23 10 -26 51 -3 45 -2 47 22 47 24
0 26 -3 26 -51z m110 6 c0 -43 -1 -45 -30 -45 -32 0 -34 6 -24 59 5 24 12 31
30 31 22 0 24 -4 24 -45z m109 -45 c0 -30 -4 -64 -9 -75 -6 -13 -9 13 -9 75 0
62 3 88 9 75 5 -11 9 -45 9 -75z m661 47 c0 -16 -18 3 -23 25 -6 22 -5 22 8 4
8 -11 15 -24 15 -29z m-30 0 c0 -5 -4 -5 -10 -2 -5 3 -10 14 -10 23 0 15 2 15
10 2 5 -8 10 -19 10 -23z m561 10 c27 -14 57 -42 77 -71 27 -42 32 -57 32
-110 0 -51 -5 -70 -29 -108 -46 -72 -83 -93 -168 -93 -64 0 -75 3 -114 31 -59
43 -84 94 -83 169 0 90 37 148 119 186 54 25 113 24 166 -4z m-1976 3 c13 0
26 -8 30 -17 5 -15 4 -16 -6 -5 -7 6 -22 12 -34 12 -11 0 -27 5 -35 11 -12 9
-12 10 3 5 10 -3 29 -6 42 -6z m1385 1 c0 -5 3 -17 7 -27 4 -11 3 -15 -4 -11
-14 9 -24 47 -12 47 5 0 9 -4 9 -9z m-1089 -15 c39 -17 100 -78 117 -119 28
-65 7 -159 -48 -215 -80 -83 -217 -80 -297 6 -70 76 -70 205 0 281 51 55 157
77 228 47z m424 4 c3 -6 -1 -7 -9 -4 -18 7 -21 14 -7 14 6 0 13 -4 16 -10z
m32 -177 c-2 -37 -3 -9 -3 62 0 72 1 102 3 68 2 -34 2 -93 0 -130z m62 67 c-1
-52 -4 -122 -9 -155 -6 -45 -8 -17 -8 109 0 102 3 163 9 155 5 -8 8 -57 8
-109z m-419 79 c0 -11 -4 -18 -9 -14 -6 3 -9 14 -8 25 2 24 17 15 17 -11z
m950 -9 c0 -13 -1 -13 -10 0 -5 8 -10 22 -10 30 0 13 1 13 10 0 5 -8 10 -22
10 -30z m-32 5 c-3 -3 -9 2 -12 12 -6 14 -5 15 5 6 7 -7 10 -15 7 -18z m-8
-39 c0 -6 -9 0 -20 14 -26 33 -25 52 0 21 11 -13 20 -28 20 -35z m-30 -9 c0
-20 -25 1 -28 24 -2 23 -2 23 13 5 8 -11 15 -24 15 -29z m-587 6 c-7 -2 -19
-2 -25 0 -7 3 -2 5 12 5 14 0 19 -2 13 -5z m552 -21 c-8 -8 -25 10 -19 20 4 6
9 5 15 -3 4 -7 6 -15 4 -17z m-1235 9 c0 -5 -9 -7 -20 -4 -11 3 -20 7 -20 9 0
2 9 4 20 4 11 0 20 -4 20 -9z m698 -8 c-10 -2 -26 -2 -35 0 -10 3 -2 5 17 5
19 0 27 -2 18 -5z m-724 -24 c-3 -6 0 -16 6 -24 10 -12 10 -18 0 -30 -13 -16
-34 -10 -24 7 4 6 2 13 -4 17 -16 10 -3 51 14 44 8 -3 11 -9 8 -14z m736 1 c0
-5 -18 -10 -41 -10 -24 0 -38 4 -34 10 3 6 22 10 41 10 19 0 34 -4 34 -10z
m-217 -84 c-1 -42 1 -46 22 -46 25 0 35 17 35 60 0 16 7 30 15 34 17 6 20 -9
4 -20 -8 -4 -7 -9 2 -14 8 -6 14 -37 16 -90 2 -52 -1 -79 -7 -75 -6 3 -10 -1
-10 -9 0 -9 5 -16 12 -16 9 0 9 -3 1 -11 -15 -15 -33 -3 -33 20 0 10 -6 24
-14 30 -14 12 -46 5 -46 -9 0 -5 -9 -8 -20 -7 -15 1 -20 8 -20 30 0 19 5 27
14 25 8 -2 15 0 15 5 2 22 0 27 -14 27 -11 0 -15 12 -15 45 0 35 3 43 15 39 8
-4 15 -2 15 4 0 5 -7 12 -15 16 -8 3 -15 10 -15 15 0 7 8 7 23 2 19 -7 22 -15
20 -55z m227 56 c0 -4 -16 -6 -35 -4 -19 2 -35 6 -35 8 0 2 16 4 35 4 19 0 35
-4 35 -8z m177 -29 c-3 -10 -5 -4 -5 12 0 17 2 24 5 18 2 -7 2 -21 0 -30z
m103 -38 c14 -19 14 -19 -2 -6 -10 7 -18 18 -18 24 0 6 1 8 3 6 1 -2 9 -13 17
-24z m31 8 c13 -16 12 -17 -3 -4 -10 7 -18 15 -18 17 0 8 8 3 21 -13z m-396
-4 c11 -16 1 -19 -13 -3 -7 8 -8 14 -3 14 5 0 13 -5 16 -11z m132 -96 c-2 -21
-4 -4 -4 37 0 41 2 58 4 38 2 -21 2 -55 0 -75z m223 54 c0 -6 -9 0 -20 13 -11
13 -20 25 -20 28 0 3 9 -3 20 -13 11 -10 20 -23 20 -28z m-45 13 c16 -17 16
-20 3 -15 -9 4 -19 13 -22 21 -7 19 -2 18 19 -6z m-225 -7 c0 -12 -3 -14 -8
-7 -4 7 -16 14 -27 17 -15 4 -14 5 8 6 20 1 27 -4 27 -16z m220 -36 c0 -6 -9
-2 -20 8 -11 10 -20 23 -20 28 0 6 9 2 20 -8 11 -10 20 -23 20 -28z m-300 -12
c0 -33 -4 -45 -15 -45 -9 0 -15 9 -15 25 0 14 5 25 10 25 6 0 10 9 10 20 0 11
2 20 5 20 3 0 5 -20 5 -45z m60 41 c0 -3 -4 -8 -10 -11 -5 -3 -10 -1 -10 4 0
6 5 11 10 11 6 0 10 -2 10 -4z m205 -34 l19 -27 -24 16 c-24 16 -38 39 -23 39
4 0 17 -13 28 -28z m-218 2 c-3 -3 -12 -4 -19 -1 -8 3 -5 6 6 6 11 1 17 -2 13
-5z m213 -45 c0 -14 -11 -11 -32 8 -27 24 -22 36 7 17 14 -9 25 -20 25 -25z
m-913 -4 c-22 -16 -47 -9 -47 12 0 10 6 12 20 8 13 -4 20 -2 20 6 0 11 2 11
13 0 10 -10 8 -15 -6 -26z m717 29 c27 -10 18 -21 -15 -16 -22 3 -27 7 -18 13
17 11 14 10 33 3z m151 -34 c16 -17 16 -20 3 -15 -9 4 -19 13 -22 21 -7 19 -2
18 19 -6z m538 13 c-7 -2 -21 -2 -30 0 -10 3 -4 5 12 5 17 0 24 -2 18 -5z
m185 0 c-27 -2 -69 -2 -95 0 -27 2 -5 3 47 3 52 0 74 -1 48 -3z m-873 -23 c-3
-5 -23 -10 -43 -10 -28 0 -33 3 -22 10 20 13 73 13 65 0z m130 -10 c10 -11 14
-20 8 -20 -5 0 -18 9 -28 20 -10 11 -14 20 -8 20 5 0 18 -9 28 -20z m755 -335
c-1 -265 -4 -355 -13 -355 -7 0 -25 -11 -42 -25 -18 -15 -23 -22 -11 -18 13 4
17 2 14 -8 -3 -8 -11 -14 -19 -14 -22 0 -29 -17 -24 -63 4 -40 36 -98 48 -86
3 3 10 -3 16 -14 9 -17 5 -21 -32 -36 -41 -16 -42 -16 -65 9 -14 15 -34 25
-51 25 -38 0 -47 15 -45 75 2 28 3 230 3 450 0 221 3 404 7 408 4 4 54 7 111
7 l104 0 -1 -355z m-1580 331 c0 -33 -62 -45 -68 -13 -3 15 0 18 16 13 11 -4
23 -2 27 4 9 15 25 12 25 -4z m820 -39 c0 -6 -9 -2 -20 8 -11 10 -20 23 -20
28 0 6 9 2 20 -8 11 -10 20 -23 20 -28z m-799 10 c-10 -9 -11 -8 -5 6 3 10 9
15 12 12 3 -3 0 -11 -7 -18z m446 -4 c-3 -3 -11 -2 -17 2 -9 6 -9 10 1 16 14
8 27 -7 16 -18z m-120 -20 c-3 -10 -5 -4 -5 12 0 17 2 24 5 18 2 -7 2 -21 0
-30z m285 14 c-16 -17 -33 -23 -57 -23 -43 2 -59 16 -19 17 53 2 59 4 57 17
-2 6 7 12 19 12 l21 0 -21 -23z m153 -7 c10 -11 14 -20 8 -20 -5 0 -18 9 -28
20 -10 11 -14 20 -8 20 5 0 18 -9 28 -20z m-412 -20 c-3 -12 -8 -19 -11 -16
-5 6 5 36 12 36 2 0 2 -9 -1 -20z m74 6 c-6 -16 42 -29 70 -19 14 4 15 3 7 -6
-6 -7 -25 -14 -41 -16 -24 -3 -35 2 -52 26 l-22 29 22 0 c14 0 19 -5 16 -14z
m68 4 c-3 -5 -12 -10 -18 -10 -7 0 -6 4 3 10 19 12 23 12 15 0z m255 -21 c0
-5 -7 -6 -15 -3 -8 4 -15 13 -15 21 0 13 3 13 15 3 8 -7 15 -16 15 -21z m-750
-12 c0 -5 -4 -5 -10 -2 -5 3 -10 14 -10 23 0 15 2 15 10 2 5 -8 10 -19 10 -23z
m17 11 c-3 -8 -6 -5 -6 6 -1 11 2 17 5 13 3 -3 4 -12 1 -19z m183 7 c0 -8 -6
-15 -14 -15 -17 0 -28 14 -19 24 12 12 33 6 33 -9z m358 -17 c-5 -13 -38 -20
-38 -8 0 8 17 18 33 19 5 1 7 -4 5 -11z m162 -3 c7 -8 8 -15 2 -15 -5 0 -15 7
-22 15 -7 8 -8 15 -2 15 5 0 15 -7 22 -15z m-645 -4 c3 -5 1 -12 -5 -16 -5 -3
-10 1 -10 9 0 18 6 21 15 7z m335 -57 c0 -24 -4 -44 -10 -44 -5 0 -10 23 -10
51 0 31 4 48 10 44 6 -3 10 -26 10 -51z m-142 31 c20 -9 48 -26 61 -38 58 -54
79 -168 42 -239 -13 -27 -15 -40 -7 -49 8 -9 8 -10 -1 -5 -7 4 -29 -4 -50 -18
-64 -40 -108 -50 -168 -37 -137 31 -201 172 -136 299 34 67 91 101 169 102 29
0 69 -7 90 -15z m309 -62 c-2 -16 -4 -3 -4 27 0 30 2 43 4 28 2 -16 2 -40 0
-55z m128 66 c11 -17 2 -18 -19 -3 -17 12 -17 14 -4 14 9 0 20 -5 23 -11z
m-767 -24 c-6 -14 -13 -23 -16 -21 -7 7 9 46 18 46 5 0 4 -11 -2 -25z m112 16
c0 -5 -7 -11 -14 -14 -10 -4 -13 -1 -9 9 6 15 23 19 23 5z m444 2 c-5 -5 -12
-12 -16 -18 -4 -6 -8 -2 -8 8 0 9 7 17 17 17 9 0 12 -3 7 -7z m202 -31 c-4 -3
-14 2 -24 12 -16 18 -16 18 6 6 13 -6 21 -14 18 -18z m-269 -19 c-3 -10 -5 -4
-5 12 0 17 2 24 5 18 2 -7 2 -21 0 -30z m1542 4 c60 -40 95 -114 88 -184 -7
-67 -31 -108 -85 -150 -55 -42 -117 -52 -180 -28 -144 55 -185 235 -75 336 50
47 83 60 149 56 47 -2 72 -9 103 -30z m-1329 2 c0 -6 -4 -7 -10 -4 -5 3 -10
11 -10 16 0 6 5 7 10 4 6 -3 10 -11 10 -16z m-183 -21 c-3 -8 -6 -5 -6 6 -1
11 2 17 5 13 3 -3 4 -12 1 -19z m20 -25 c-3 -10 -5 -4 -5 12 0 17 2 24 5 18 2
-7 2 -21 0 -30z m24 -98 l-9 -60 -1 50 c0 28 2 61 6 75 12 41 14 1 4 -65z
m104 25 c3 -6 -1 -7 -9 -4 -18 7 -21 14 -7 14 6 0 13 -4 16 -10z m443 -1 c103
-22 169 -114 160 -224 -14 -174 -246 -238 -366 -101 -58 66 -64 149 -16 232
26 46 60 72 119 90 51 16 45 16 103 3z m-571 -46 c-3 -10 -5 -2 -5 17 0 19 2
27 5 18 2 -10 2 -26 0 -35z m223 32 c11 -13 8 -15 -15 -15 -23 0 -26 2 -15 15
7 8 14 15 15 15 1 0 8 -7 15 -15z m-59 -48 c-8 -8 -11 -7 -11 4 0 20 13 34 18
19 3 -7 -1 -17 -7 -23z m-173 -79 c0 -40 -3 -58 -5 -40 -6 44 -23 41 -24 -5
-2 -33 -3 -34 -6 -9 -6 36 5 79 17 71 6 -4 10 7 10 24 0 17 2 31 5 31 3 0 4
-33 3 -72z m90 44 c2 -7 -2 -10 -12 -6 -9 3 -16 11 -16 16 0 13 23 5 28 -10z
m237 6 c4 -4 2 -15 -4 -26 -6 -12 -11 -46 -11 -76 l0 -56 -84 0 c-83 0 -84 0
-96 30 -13 30 -10 62 9 111 9 26 11 26 95 25 47 -1 88 -5 91 -8z m-228 -41 c4
-7 0 -8 -11 -4 -10 4 -22 7 -27 7 -5 0 -9 4 -9 9 0 12 38 2 47 -12z m-2 -27
c4 -6 -7 -10 -24 -10 -17 0 -31 5 -31 10 0 6 11 10 24 10 14 0 28 -4 31 -10z
m-178 -52 c-3 -7 -5 -2 -5 12 0 14 2 19 5 13 2 -7 2 -19 0 -25z m156 25 c-7
-2 -19 -2 -25 0 -7 3 -2 5 12 5 14 0 19 -2 13 -5z m-508 -13 c3 -5 1 -10 -4
-10 -6 0 -11 5 -11 10 0 6 2 10 4 10 3 0 8 -4 11 -10z m1229 -25 c21 -32 20
-35 -9 -35 -21 0 -25 5 -25 30 0 36 12 38 34 5z m-1204 -21 c0 -2 -7 -4 -15
-4 -8 0 -15 4 -15 10 0 5 7 7 15 4 8 -4 15 -8 15 -10z m500 -6 c0 -6 -3 -9 -6
-5 -3 3 -17 2 -30 -3 -16 -6 -24 -6 -24 1 0 6 -7 6 -20 -1 -15 -8 -20 -8 -21
2 0 10 -2 10 -6 -1 -5 -11 -7 -11 -15 0 -8 12 -10 12 -15 0 -5 -11 -7 -11 -14
0 -7 12 -9 11 -9 -1 0 -13 -1 -13 -10 0 -9 13 -11 13 -20 0 -6 -9 -10 -10 -10
-3 0 8 -13 11 -35 9 -19 -2 -32 0 -29 5 8 14 264 11 264 -3z m-300 -8 c0 -5
-4 -10 -10 -10 -5 0 -10 5 -10 10 0 6 5 10 10 10 6 0 10 -4 10 -10z m-122 -48
c3 -37 1 -42 -17 -42 -16 0 -21 6 -21 29 0 71 33 81 38 13z m615 18 c33 0 47
-4 47 -14 0 -22 73 -82 123 -101 93 -35 213 1 268 81 25 37 34 44 52 38 12 -3
23 -7 24 -8 1 -1 3 -15 5 -31 2 -24 -1 -29 -14 -27 -39 6 -93 -18 -113 -50
-31 -54 -45 -89 -38 -101 3 -5 -2 -16 -12 -24 -11 -7 -15 -13 -9 -13 11 0 64
-48 64 -58 0 -4 -15 -9 -32 -10 -18 -1 -54 -13 -80 -26 l-48 -23 0 39 c0 41
-14 49 -36 21 -13 -17 -13 -17 -14 0 0 12 -6 17 -17 15 -14 -3 -18 -14 -18
-53 0 -39 4 -50 18 -53 11 -2 17 3 17 14 0 16 1 16 15 -2 22 -30 18 -34 -30
-34 l-45 0 -7 43 c-4 23 -6 46 -5 51 2 4 -3 15 -9 23 -9 11 -34 14 -103 12
l-91 -2 -12 64 c-7 35 -12 88 -13 117 0 43 -5 58 -25 78 -35 35 -23 47 39 40
28 -3 72 -5 99 -6z m567 -41 c0 -36 -4 -49 -12 -47 -16 5 -22 41 -14 74 11 42
26 26 26 -27z m-982 34 c-10 -2 -28 -2 -40 0 -13 2 -5 4 17 4 22 1 32 -1 23
-4z m80 0 c-10 -2 -28 -2 -40 0 -13 2 -5 4 17 4 22 1 32 -1 23 -4z m120 0
c-10 -2 -28 -2 -40 0 -13 2 -5 4 17 4 22 1 32 -1 23 -4z m22 -93 c0 -49 -4
-80 -11 -80 -10 0 -12 135 -2 153 10 18 13 2 13 -73z m1400 69 c0 -5 4 -8 9
-5 11 7 22 -20 15 -38 -3 -8 -19 -16 -35 -18 -34 -5 -49 7 -18 15 17 5 19 9
10 26 -14 26 -14 31 4 31 8 0 15 -5 15 -11z m106 -3 c16 -17 19 -52 4 -61 -6
-4 -8 -10 -5 -15 11 -18 16 -80 6 -80 -6 0 -11 -5 -11 -11 0 -5 5 -7 10 -4 6
3 10 -1 10 -9 0 -9 -3 -15 -7 -15 -19 3 -33 -2 -48 -17 -15 -15 -17 -15 -21 3
-4 14 -13 19 -29 18 -30 -4 -42 31 -14 38 11 3 19 0 20 -6 0 -8 2 -8 6 1 2 6
11 12 19 12 9 0 13 4 9 9 -3 6 3 15 12 21 16 10 15 10 -4 5 -20 -5 -22 -3 -20
31 2 20 10 42 20 49 9 6 14 15 11 18 -6 6 3 27 12 27 3 0 12 -6 20 -14z
m-1736 -46 c0 -47 -2 -50 -25 -50 -23 0 -25 4 -25 43 0 48 5 57 32 57 15 0 18
-8 18 -50z m131 33 c6 -70 3 -78 -24 -81 -26 -3 -27 -2 -27 47 0 48 2 51 25
51 17 0 25 -6 26 -17z m-254 -15 c-3 -8 -6 -5 -6 6 -1 11 2 17 5 13 3 -3 4
-12 1 -19z m310 16 c-3 -3 -12 -4 -19 -1 -8 3 -5 6 6 6 11 1 17 -2 13 -5z
m-547 -119 c0 -52 4 -97 10 -100 6 -4 10 13 10 44 0 28 5 51 10 51 6 0 10 7
10 16 0 8 -5 12 -10 9 -6 -3 -10 1 -10 9 0 9 6 13 14 10 10 -4 15 -30 18 -97
3 -51 8 -101 13 -112 5 -14 5 -17 -3 -10 -5 6 -12 19 -14 29 -1 11 -8 21 -14
23 -15 5 -6 -45 12 -72 8 -11 14 -29 13 -40 0 -19 -1 -18 -12 3 -8 17 -16 22
-31 17 -53 -16 -55 -14 -41 53 5 21 4 32 -4 32 -6 0 -11 -9 -11 -19 0 -11 -5
-23 -11 -27 -8 -4 -9 9 -5 47 4 30 8 77 10 104 3 51 15 114 23 128 14 23 23
-15 23 -98z m555 95 c3 -5 -3 -10 -15 -10 -12 0 -18 5 -15 10 3 6 10 10 15 10
5 0 12 -4 15 -10z m95 -6 c0 -8 -4 -12 -10 -9 -5 3 -10 10 -10 16 0 5 5 9 10
9 6 0 10 -7 10 -16z m659 -13 c22 -17 23 -21 13 -67 -8 -34 -10 -38 -8 -14 5
54 -1 61 -42 55 -35 -6 -36 -5 -18 9 11 9 14 16 8 16 -7 0 -12 5 -12 10 0 16
33 11 59 -9z m-1096 -53 c-7 -55 -33 -51 -33 5 0 24 3 47 7 51 15 14 30 -20
26 -56z m334 46 c-3 -3 -12 -4 -19 -1 -8 3 -5 6 6 6 11 1 17 -2 13 -5z m1373
-29 c0 -5 -5 -3 -10 5 -5 8 -10 20 -10 25 0 6 5 3 10 -5 5 -8 10 -19 10 -25z
m74 -1 c9 -3 16 -11 16 -16 0 -6 -7 -8 -15 -4 -8 3 -15 1 -15 -4 0 -6 -8 -10
-17 -10 -14 0 -15 2 -4 9 7 5 10 14 7 20 -8 12 4 14 28 5z m-713 -41 c-10 -17
-10 -16 -11 3 0 23 13 41 18 25 2 -6 -1 -18 -7 -28z m336 23 c0 -8 -6 -12 -14
-9 -7 3 -13 9 -13 14 0 5 6 9 13 9 8 0 14 -6 14 -14z m53 4 c0 -5 -7 -10 -15
-10 -8 0 -15 5 -15 10 0 6 7 10 15 10 8 0 15 -4 15 -10z m-1026 -97 c4 -34 3
-53 -4 -53 -5 0 -10 10 -11 23 0 12 -2 47 -4 77 -5 65 8 33 19 -47z m1266 66
c3 7 13 9 21 6 17 -6 23 -75 7 -75 -5 0 -6 5 -2 11 4 7 0 9 -13 5 -29 -9 -42
13 -33 59 1 6 4 4 7 -4 4 -9 7 -10 13 -2z m-1745 -40 c0 -15 -7 -25 -17 -27
-13 -3 -18 3 -18 21 0 13 3 27 7 31 13 12 28 -1 28 -25z m178 24 c-7 -2 -19
-2 -25 0 -7 3 -2 5 12 5 14 0 19 -2 13 -5z m1297 -15 c0 -9 9 -22 21 -28 11
-7 18 -17 16 -24 -3 -6 1 -20 9 -31 8 -10 14 -29 14 -42 0 -13 12 -35 28 -49
15 -14 21 -23 15 -19 -17 8 -16 4 2 -31 29 -56 15 -72 -39 -45 -20 11 -43 24
-50 30 -16 13 -14 68 3 100 7 13 9 22 4 19 -4 -2 -21 -10 -37 -18 -27 -14 -30
-13 -52 13 -13 16 -24 38 -24 50 1 20 2 21 14 5 7 -10 19 -18 26 -18 10 0 10
-3 -1 -16 -11 -14 -10 -15 11 -12 32 4 36 24 6 32 -15 4 -26 14 -28 29 -2 14
-9 21 -21 21 -20 -2 -23 26 -5 44 7 7 30 12 50 10 29 -1 38 -6 38 -20z m70 7
c0 -8 -4 -15 -9 -15 -5 0 -11 7 -15 15 -3 9 0 15 9 15 8 0 15 -7 15 -15z
m-1240 -11 c0 -2 -13 -4 -30 -4 -16 0 -30 4 -30 8 0 5 14 7 30 4 17 -2 30 -6
30 -8z m-123 0 c-3 -3 -12 -4 -19 -1 -8 3 -5 6 6 6 11 1 17 -2 13 -5z m213
-17 c0 -33 -7 -37 -38 -22 -39 21 -38 45 4 45 29 0 34 -3 34 -23z m1240 8 c0
-8 -3 -15 -6 -15 -3 0 -12 7 -20 15 -14 13 -13 15 5 15 12 0 21 -6 21 -15z
m75 -25 c-3 -5 -14 -10 -23 -10 -15 0 -15 2 -2 10 20 13 33 13 25 0z m-1657
-43 c3 -32 0 -37 -17 -37 -17 0 -21 6 -21 33 0 61 33 63 38 4z m372 -38 c0
-46 -4 -78 -9 -74 -5 3 -8 36 -6 73 5 87 4 82 10 82 3 0 5 -36 5 -81z m-491
44 c-1 -16 2 -48 5 -73 l7 -45 -20 55 c-25 66 -26 90 -6 90 10 0 15 -9 14 -27z
m1711 8 c0 -36 64 -36 75 0 8 25 21 24 28 -1 3 -14 14 -20 32 -20 18 0 29 6
32 20 7 25 19 26 32 1 12 -22 60 -25 68 -5 3 8 12 14 19 14 13 0 15 -51 13
-344 -2 -328 -3 -343 -21 -338 -27 7 -29 16 -13 56 44 104 -16 248 -119 286
-17 6 -37 15 -44 18 -14 7 -52 104 -52 132 0 19 -41 59 -87 86 -35 20 -42 44
-18 64 8 7 15 21 15 31 0 12 7 19 20 19 13 0 20 -7 20 -19z m-1267 -8 c-7 -2
-19 -2 -25 0 -7 3 -2 5 12 5 14 0 19 -2 13 -5z m807 -20 c0 -20 -3 -24 -11
-16 -7 7 -9 19 -6 27 10 24 17 19 17 -11z m380 7 c0 -5 -4 -10 -10 -10 -5 0
-10 5 -10 10 0 6 5 10 10 10 6 0 10 -4 10 -10z m-1271 -74 c-9 -8 -10 -5 -5
14 3 14 7 34 7 45 1 11 4 5 6 -14 3 -19 -1 -39 -8 -45z m91 64 c0 -5 -6 -10
-14 -10 -8 0 -18 5 -21 10 -3 6 3 10 14 10 12 0 21 -4 21 -10z m752 -22 c14
-13 34 -28 44 -35 17 -10 14 -12 -23 -12 -42 -1 -103 25 -103 45 0 31 48 32
82 2z m-1002 -13 c0 -14 -4 -25 -10 -25 -5 0 -10 11 -10 25 0 14 5 25 10 25 6
0 10 -11 10 -25z m364 -44 c9 -65 4 -84 -18 -60 -14 15 -29 113 -19 123 16 16
29 -5 37 -63z m210 61 c3 -5 7 -30 11 -56 7 -60 10 -66 40 -66 l24 0 -26 -46
c-26 -46 -26 -46 -39 -23 -9 17 -21 24 -47 25 -27 0 -42 9 -62 32 -15 18 -33
32 -41 32 -17 0 -34 40 -34 81 l0 29 84 0 c47 0 87 -4 90 -8z m-700 -48 c5
-22 3 -41 -5 -50 -18 -22 -29 -7 -29 42 0 55 25 61 34 8z m803 14 c-3 -8 -6
-5 -6 6 -1 11 2 17 5 13 3 -3 4 -12 1 -19z m-434 5 c-7 -2 -19 -2 -25 0 -7 3
-2 5 12 5 14 0 19 -2 13 -5z m557 -22 c-9 -19 -30 -29 -30 -16 0 7 34 42 38
39 2 -1 -1 -12 -8 -23z m-850 -21 c0 -13 -1 -13 -10 0 -5 8 -10 22 -10 30 0
13 1 13 10 0 5 -8 10 -22 10 -30z m1021 -6 c21 -4 39 -10 39 -15 0 -5 6 -9 14
-9 8 0 17 -7 20 -16 4 -11 13 -14 30 -10 16 4 26 1 30 -10 3 -8 11 -12 16 -9
8 5 8 11 0 20 -8 10 -3 14 21 17 42 6 49 -16 40 -132 -1 -19 0 -73 2 -120 4
-65 2 -92 -11 -115 -8 -17 -17 -24 -19 -17 -3 6 -12 12 -20 12 -13 0 -13 3 -3
15 10 12 10 15 -1 15 -8 0 -5 6 7 15 19 14 18 14 -3 15 l-23 0 20 20 c19 19
19 22 5 44 -10 14 -12 27 -6 30 5 3 8 17 6 31 -1 14 2 28 6 31 14 8 10 34 -7
51 -25 25 -36 3 -41 -84 -7 -117 -10 -150 -17 -162 -4 -5 -1 -13 5 -16 6 -4 8
-18 4 -32 -3 -14 -1 -31 6 -39 17 -21 1 -17 -29 7 -15 11 -46 33 -68 49 -32
22 -41 35 -41 56 0 16 -6 30 -12 32 -6 2 -21 13 -33 24 -21 18 -21 19 -3 13
11 -4 28 -7 37 -7 18 1 31 -30 32 -73 1 -11 9 -21 20 -23 15 -3 17 0 11 14 -4
11 -12 43 -17 72 -7 33 -15 52 -24 52 -8 0 -14 -7 -14 -15 0 -12 -4 -13 -19
-5 -13 7 -18 18 -15 34 2 14 -3 30 -16 41 -11 10 -17 21 -15 25 3 5 1 20 -5
34 -8 21 -7 26 7 26 13 0 12 5 -7 25 l-23 25 23 0 c18 0 21 3 13 11 -6 6 -10
17 -8 23 2 6 6 24 9 39 6 25 8 26 22 12 8 -8 33 -18 55 -21z m-948 10 c-3 -12
-43 -18 -43 -6 0 5 3 11 6 14 8 9 39 2 37 -8z m1292 -52 c-2 -2 -12 1 -22 7
-38 22 -55 40 -48 51 4 7 18 -1 40 -22 18 -18 31 -34 30 -36z m-1073 37 c84
-38 118 -64 118 -91 0 -10 -2 -18 -4 -18 -2 0 -12 -3 -21 -7 -14 -5 -16 -2
-11 15 4 11 2 23 -4 27 -5 3 -10 1 -10 -6 0 -7 -7 -4 -15 7 -13 18 -14 18 -12
-10 1 -17 -5 -32 -15 -39 -21 -14 -36 -1 -20 15 7 7 12 17 12 23 -1 18 -40
-37 -40 -56 0 -20 15 -26 25 -9 8 14 35 13 35 -1 0 -6 -6 -9 -14 -6 -15 6 -39
-15 -34 -29 2 -5 -1 -10 -7 -11 -5 -1 -9 8 -7 20 2 16 0 19 -9 10 -19 -19 -6
-46 26 -55 16 -4 36 -15 42 -25 12 -15 13 -15 13 5 0 12 -3 22 -7 22 -5 0 -15
5 -23 10 -12 7 -11 13 10 34 22 25 47 36 35 17 -3 -5 5 -12 17 -14 l23 -4 -23
-8 c-18 -6 -20 -10 -11 -21 6 -8 9 -21 5 -29 -3 -8 -2 -15 3 -15 5 0 12 10 15
23 7 21 7 21 16 2 14 -32 11 -45 -7 -45 -17 -1 -17 -1 0 -11 9 -5 17 -16 17
-24 0 -7 4 -15 8 -17 19 -8 53 -80 51 -105 -2 -16 0 -34 4 -41 5 -6 4 -12 -2
-12 -5 0 -16 -3 -25 -6 -10 -4 -16 -1 -16 7 0 7 -7 20 -16 30 -23 25 -8 45 17
23 37 -33 28 -7 -12 34 -22 24 -49 42 -61 42 -24 0 -58 27 -58 45 0 7 -12 13
-27 13 -50 3 -65 8 -75 26 -8 14 -12 15 -18 6 -13 -21 -40 13 -41 52 -1 18 -3
25 -6 16 -9 -34 -26 -22 -37 25 -6 26 -5 28 15 22 19 -6 21 -4 16 18 -5 18 0
32 19 52 14 15 23 29 20 32 -3 3 -17 -8 -32 -23 -14 -16 -32 -28 -40 -26 -8 2
-19 -8 -25 -22 -13 -27 -5 -61 11 -51 6 4 10 -7 10 -25 0 -23 5 -33 19 -37 11
-3 22 -12 25 -21 3 -10 9 -24 13 -32 3 -8 -11 0 -33 19 -21 19 -39 39 -40 45
0 6 -2 17 -2 24 -1 6 -7 12 -13 12 -6 0 -9 -9 -6 -20 3 -11 1 -18 -4 -14 -18
11 -10 100 11 127 11 14 20 29 20 34 0 17 44 51 80 62 38 11 96 7 132 -10z
m885 1 c-14 -11 -28 -20 -31 -20 -3 0 2 9 11 20 10 11 24 20 32 20 8 0 3 -8
-12 -20z m-1307 -67 c0 -5 -9 6 -20 22 -11 17 -20 37 -20 45 0 8 9 -2 20 -23
11 -20 20 -40 20 -44z m1255 67 c-3 -5 -10 -10 -16 -10 -5 0 -9 5 -9 10 0 6 7
10 16 10 8 0 12 -4 9 -10z m161 -28 c-23 -5 -13 -42 15 -55 29 -15 64 -76 77
-135 13 -56 -2 -54 -18 2 -16 60 -45 105 -74 116 -16 6 -25 19 -28 42 -8 48
-1 60 23 45 16 -10 17 -13 5 -15z m-1286 -17 c0 -19 -4 -35 -10 -35 -11 0 -13
30 -4 54 10 25 14 19 14 -19z m825 13 c0 -13 -6 -33 -13 -45 -16 -29 -15 -46
2 -40 11 4 18 -15 31 -84 9 -49 23 -106 32 -126 27 -66 104 -174 147 -205 23
-16 42 -38 42 -49 1 -23 -71 -109 -92 -109 -23 0 -16 13 18 35 33 21 69 74 61
88 -3 5 -16 -8 -29 -27 -27 -39 -78 -71 -96 -60 -7 5 2 12 23 19 35 12 75 64
66 87 -3 7 -11 -1 -18 -19 -7 -17 -23 -36 -36 -42 -34 -16 -41 -13 -15 5 25
17 58 74 42 74 -5 0 -17 -11 -26 -25 -18 -27 -52 -50 -61 -41 -3 3 5 10 18 16
13 6 32 25 42 42 17 30 17 30 -3 25 -18 -4 -19 -3 -9 9 26 31 -1 23 -34 -10
-23 -23 -48 -37 -74 -41 -84 -13 -84 -13 -72 1 6 8 20 14 31 14 35 0 108 22
108 33 0 6 7 19 17 29 9 10 12 18 7 18 -14 -1 -44 -26 -44 -37 0 -13 -33 -23
-74 -23 -16 0 -44 -11 -63 -26 -25 -19 -33 -22 -33 -10 0 18 -16 21 -25 6 -3
-5 -1 -10 4 -10 6 0 11 -7 11 -16 0 -8 5 -12 10 -9 6 3 10 2 10 -4 0 -5 6 -11
13 -14 6 -2 2 -3 -9 -1 -14 3 -24 -3 -28 -13 -6 -14 -9 -15 -16 -3 -7 11 -11
11 -24 1 -9 -8 -16 -20 -16 -27 0 -20 -9 -17 -31 9 -24 28 -23 34 2 47 27 15
38 4 13 -14 -32 -24 -10 -27 24 -3 28 19 47 48 22 32 -5 -3 -10 0 -10 8 0 10
-7 13 -20 10 -11 -3 -20 0 -20 6 0 6 9 11 20 11 14 0 20 6 18 17 -2 10 5 19
15 21 11 2 26 10 35 18 10 7 26 21 37 30 16 13 17 15 3 10 -10 -3 -26 -9 -35
-12 -15 -5 -14 -3 2 11 11 9 29 14 40 11 11 -3 36 -6 55 -6 29 -1 32 -2 17
-11 -9 -6 -26 -7 -37 -4 -12 4 -20 2 -20 -6 0 -8 14 -10 47 -6 43 5 46 4 28
-9 -22 -16 -71 -19 -80 -4 -3 6 -15 5 -30 -2 -28 -13 -35 -34 -7 -23 14 5 15
4 5 -6 -21 -21 -15 -31 9 -15 12 9 36 16 53 16 38 0 74 19 94 49 15 23 14 23
-7 17 -13 -5 -22 -3 -22 3 0 6 5 11 10 11 6 0 10 5 10 11 0 5 -4 7 -10 4 -20
-12 -32 7 -13 21 16 14 15 14 -17 8 -19 -4 -43 -8 -52 -8 -32 -1 -19 -16 15
-17 30 -1 30 -1 7 -8 -14 -5 -33 -4 -44 2 -12 6 -27 5 -42 -2 -13 -6 -24 -7
-24 -3 0 4 15 14 32 22 18 8 34 21 36 28 3 11 -3 10 -26 -2 -36 -19 -42 -19
-42 -6 0 6 9 10 19 10 11 0 23 5 26 10 3 6 21 10 38 10 18 0 41 7 51 15 20 15
20 15 0 15 -16 0 -17 2 -4 11 11 7 12 12 3 15 -7 3 -10 11 -7 19 3 7 -1 19 -9
26 -7 7 -11 23 -9 36 2 13 -1 23 -7 23 -7 0 -11 -6 -10 -12 3 -26 -14 -58 -30
-58 -18 -1 -67 -38 -59 -46 3 -2 21 4 39 15 19 11 40 17 47 13 7 -5 -6 -16
-37 -29 -41 -17 -51 -18 -55 -7 -3 8 -9 14 -13 13 -21 -4 -25 2 -10 14 26 18
29 55 7 69 -10 6 -16 18 -13 25 3 7 -2 13 -12 13 -9 0 -13 5 -10 10 3 6 15 10
27 10 16 0 19 -4 14 -24 -9 -36 6 -39 48 -8 21 14 33 28 28 30 -6 2 -4 15 5
33 16 32 11 51 -9 31 -15 -15 -28 -16 -28 -2 0 6 6 10 14 10 8 0 24 9 37 20
21 17 22 19 5 20 -16 0 -16 2 5 20 13 10 24 19 24 20 1 0 1 -10 0 -22z m42 0
c-3 -8 -6 -5 -6 6 -1 11 2 17 5 13 3 -3 4 -12 1 -19z m-1067 -13 c6 -8 9 -19
5 -26 -8 -11 11 -29 30 -29 6 0 3 5 -5 10 -10 7 -11 10 -2 10 7 0 15 -7 18
-15 4 -8 10 -12 15 -9 5 3 9 0 9 -5 0 -6 -3 -11 -7 -12 -28 -3 -68 -11 -72
-14 -2 -2 4 -11 13 -20 20 -21 20 -26 0 -18 -12 4 -15 1 -12 -13 2 -10 13 -20
25 -22 29 -4 20 -31 -21 -62 -18 -13 -33 -29 -34 -35 -3 -39 -40 -120 -55
-123 -19 -3 -23 14 -4 21 9 4 8 8 -3 16 -12 9 -11 11 8 11 12 0 22 5 22 10 0
6 -6 10 -14 10 -8 0 -18 4 -21 10 -4 6 3 9 16 7 12 -1 24 4 26 11 3 8 -6 12
-24 13 -15 0 -22 3 -15 6 6 2 12 9 12 14 0 6 -5 7 -10 4 -6 -3 -10 1 -10 9 0
19 1 19 32 7 19 -7 28 -4 47 15 23 23 20 50 -4 40 -7 -2 -12 3 -11 12 1 13 -6
16 -25 14 -20 -2 -28 3 -32 18 -5 20 6 25 41 21 17 -3 43 19 37 29 -3 4 2 11
10 14 12 4 13 10 5 25 -5 11 -7 27 -3 37 5 13 3 16 -10 11 -9 -3 -17 -2 -17 3
0 15 26 12 40 -5z m170 -30 c0 -33 -4 -45 -15 -45 -11 0 -15 12 -15 45 0 33 4
45 15 45 11 0 15 -12 15 -45z m83 38 c-7 -2 -19 -2 -25 0 -7 3 -2 5 12 5 14 0
19 -2 13 -5z m446 -17 c9 -11 6 -12 -14 -8 -14 2 -22 8 -19 13 8 13 20 11 33
-5z m851 -2 c0 -2 -7 -4 -15 -4 -8 0 -15 4 -15 10 0 5 7 7 15 4 8 -4 15 -8 15
-10z m-1597 -38 c-10 -13 -20 -20 -21 -15 -7 17 7 39 23 39 14 0 14 -3 -2 -24z
m1740 -66 c23 0 40 18 34 35 -4 9 -3 14 3 10 13 -8 13 -65 0 -65 -5 0 -9 -5
-7 -12 1 -6 -7 -13 -18 -15 -20 -3 -20 -3 0 5 16 8 15 10 -14 15 -18 4 -30 11
-26 17 4 6 -1 7 -11 3 -11 -4 -13 -8 -6 -11 7 -2 9 -9 6 -14 -5 -7 -2 -8 7 -3
11 6 12 5 2 -5 -9 -10 -9 -17 -2 -26 13 -15 4 -34 -16 -34 -9 0 -12 6 -9 15 4
10 0 15 -12 15 -16 0 -17 2 -4 10 12 8 12 10 -5 11 -11 0 -14 3 -7 6 6 2 12 9
12 14 0 6 -4 8 -9 5 -5 -3 -12 2 -15 11 -4 9 -1 20 6 25 9 5 7 8 -7 8 -14 0
-21 7 -22 20 -2 28 21 25 37 -6 12 -22 12 -27 0 -35 -11 -8 -8 -8 10 -3 35 9
35 9 4 51 l-27 38 42 -42 c23 -24 48 -43 54 -43z m-963 66 c0 -3 -4 -8 -10
-11 -5 -3 -10 -1 -10 4 0 6 5 11 10 11 6 0 10 -2 10 -4z m180 -6 c0 -5 -8 -10
-17 -10 -15 0 -16 2 -3 10 19 12 20 12 20 0z m-614 -27 c-10 -10 -19 5 -10 18
6 11 8 11 12 0 2 -7 1 -15 -2 -18z m-168 -41 c3 -37 1 -42 -17 -42 -18 0 -21
6 -21 38 0 68 33 71 38 4z m-61 16 c-3 -8 -6 -5 -6 6 -1 11 2 17 5 13 3 -3 4
-12 1 -19z m836 15 c-7 -2 -19 -2 -25 0 -7 3 -2 5 12 5 14 0 19 -2 13 -5z
m582 -13 c-3 -5 -1 -10 6 -10 8 0 8 -4 -1 -15 -10 -12 -9 -15 6 -15 17 0 17
-1 -2 -15 -19 -14 -19 -14 1 -15 19 0 19 -1 -3 -18 l-22 -17 22 -31 22 -31 33
19 c28 17 33 18 33 4 0 -8 -13 -22 -30 -31 -21 -11 -30 -23 -30 -40 0 -14 5
-25 10 -25 6 0 10 -7 10 -15 0 -30 -28 -14 -34 20 -7 35 -20 46 -29 23 -3 -7
-4 6 -2 30 1 23 -2 45 -6 48 -10 6 -12 104 -3 128 3 9 10 16 16 16 5 0 6 -4 3
-10z m-668 -32 c-3 -8 -6 -5 -6 6 -1 11 2 17 5 13 3 -3 4 -12 1 -19z m-757 8
c0 -3 -4 -8 -10 -11 -5 -3 -10 -1 -10 4 0 6 5 11 10 11 6 0 10 -2 10 -4z m650
-42 c0 -19 -4 -34 -8 -34 -5 0 -8 18 -8 39 0 22 4 37 8 35 4 -3 8 -21 8 -40z
m1185 -3 c50 -23 101 -79 116 -130 36 -120 -61 -251 -186 -251 -118 0 -198 81
-198 200 0 143 142 239 268 181z m-1080 -1 c3 -5 -1 -10 -10 -10 -9 0 -14 -4
-11 -9 4 -5 0 -11 -6 -14 -10 -3 -10 -7 1 -20 12 -15 11 -17 -8 -17 -25 0 -26
13 -4 51 18 31 28 35 38 19z m-594 -11 c114 -35 177 -161 133 -267 -82 -198
-377 -155 -392 57 -11 148 118 252 259 210z m-316 -9 c3 -5 1 -10 -4 -10 -6 0
-11 5 -11 10 0 6 2 10 4 10 3 0 8 -4 11 -10z m823 -118 c8 -60 9 -108 4 -122
-8 -22 -9 -20 -15 16 -14 80 -20 204 -10 204 5 0 15 -44 21 -98z m274 51 c-10
-4 -10 -8 0 -20 11 -14 10 -15 -8 -9 -12 3 -33 0 -50 -8 -15 -9 -30 -13 -33
-11 -2 3 -2 6 0 8 30 18 86 45 94 45 6 0 4 -2 -3 -5z m-557 -13 c3 -5 1 -10
-4 -10 -6 0 -11 5 -11 10 0 6 2 10 4 10 3 0 8 -4 11 -10z m345 0 c0 -5 -4 -10
-10 -10 -5 0 -10 5 -10 10 0 6 5 10 10 10 6 0 10 -4 10 -10z m340 -15 c0 -8
-2 -15 -4 -15 -2 0 -6 7 -10 15 -3 8 -1 15 4 15 6 0 10 -7 10 -15z m40 -5 c0
-5 -2 -10 -4 -10 -3 0 -8 5 -11 10 -3 6 -1 10 4 10 6 0 11 -4 11 -10z m-652
-28 c2 -7 -3 -12 -12 -12 -9 0 -16 7 -16 16 0 17 22 14 28 -4z m262 3 c0 -8
-4 -15 -10 -15 -5 0 -10 7 -10 15 0 8 5 15 10 15 6 0 10 -7 10 -15z m815 -15
c-9 -16 -18 -30 -21 -30 -2 0 2 14 11 30 9 17 18 30 21 30 2 0 -2 -13 -11 -30z
m-412 -15 c16 -20 26 -41 24 -48 -3 -7 -6 -5 -6 5 -1 11 -6 15 -16 12 -10 -4
-15 0 -15 15 0 14 -5 19 -15 15 -10 -4 -15 0 -15 15 0 30 11 26 43 -14z m-780
4 c-4 -13 3 -30 23 -50 28 -29 20 -38 -17 -19 -14 8 -19 21 -19 50 0 22 4 40
9 40 5 0 7 -9 4 -21z m168 -22 c-7 -7 -15 -6 -25 3 -22 17 -9 32 16 19 14 -8
17 -14 9 -22z m253 22 c-3 -6 0 -16 7 -21 11 -7 9 -8 -5 -4 -10 4 -25 1 -33
-5 -21 -18 -26 -3 -6 20 18 22 50 30 37 10z m56 7 c0 -3 -4 -8 -10 -11 -5 -3
-10 -1 -10 4 0 6 5 11 10 11 6 0 10 -2 10 -4z m-420 -21 c0 -8 -4 -15 -10 -15
-5 0 -10 7 -10 15 0 8 5 15 10 15 6 0 10 -7 10 -15z m22 -17 c-8 -8 -9 -4 -5
13 4 13 8 18 11 10 2 -7 -1 -18 -6 -23z m818 -46 c0 -4 -5 -14 -10 -22 -8 -12
-10 -11 -10 8 0 24 -15 30 -23 10 -3 -7 -6 -3 -6 10 -1 12 -5 22 -11 22 -5 0
-10 4 -10 10 0 5 16 0 35 -11 19 -12 35 -24 35 -27z m84 24 c-3 -9 -10 -16
-15 -16 -14 0 -11 28 4 33 16 6 19 3 11 -17z m177 -7 c-5 -13 -10 -19 -10 -12
-1 15 10 45 15 40 3 -2 0 -15 -5 -28z m-995 -18 c-1 -17 -5 -26 -9 -21 -5 4
-6 17 -2 29 9 29 12 26 11 -8z m874 -10 c-6 -12 -20 -21 -33 -20 -22 0 -22 0
1 10 13 5 27 19 30 31 3 12 7 17 9 11 3 -7 -1 -21 -7 -32z m-1506 14 c7 -19
-29 -40 -40 -23 -4 7 -3 8 4 4 7 -4 12 -2 12 3 0 6 -4 11 -10 11 -5 0 -10 5
-10 10 0 16 37 12 44 -5z m913 -1 c-3 -3 -12 -4 -19 -1 -8 3 -5 6 6 6 11 1 17
-2 13 -5z m708 -48 c11 -6 22 -12 25 -14 2 -2 -2 -8 -10 -13 -12 -8 -9 -9 10
-7 19 2 26 10 30 33 6 29 6 30 18 8 8 -15 9 -24 2 -28 -8 -5 -8 -11 -1 -19 8
-9 4 -16 -13 -26 -22 -11 -27 -10 -60 22 -28 27 -36 42 -35 69 1 29 2 31 8 10
3 -13 15 -29 26 -35z m-1021 -18 c-5 -8 -2 -9 10 -5 10 4 24 -1 36 -13 11 -11
25 -20 30 -20 17 0 11 32 -7 46 -10 7 -15 16 -11 20 8 7 47 -35 47 -51 0 -11
-34 -55 -43 -55 -3 0 -6 9 -6 19 0 21 -22 33 -44 25 -15 -6 -36 43 -36 80 1
19 3 18 16 -7 8 -15 12 -33 8 -39z m-58 19 c4 -3 1 -14 -7 -24 -12 -15 -12
-16 3 -10 10 3 20 2 23 -3 10 -16 -6 -38 -31 -43 -18 -3 -22 -1 -14 8 8 9 6
14 -6 19 -39 15 -39 -12 2 -59 23 -27 23 -29 7 -47 -12 -13 -20 -15 -27 -8 -8
8 -6 15 6 24 19 14 14 28 -7 20 -7 -3 -15 5 -19 18 -9 35 -7 78 4 78 6 0 10 5
10 10 0 6 -7 10 -15 10 -8 0 -15 2 -15 4 0 2 -2 11 -6 19 -4 12 2 12 40 3 25
-7 48 -15 52 -19z m299 13 c3 -5 1 -10 -4 -10 -6 0 -11 5 -11 10 0 6 2 10 4
10 3 0 8 -4 11 -10z m61 -5 c-20 -15 -20 -15 0 -15 16 0 16 -2 4 -10 -9 -5
-19 -5 -24 0 -13 13 1 40 21 40 17 -1 16 -2 -1 -15z m510 -55 c8 0 14 -7 14
-15 0 -31 20 -14 21 18 0 27 2 29 9 12 25 -58 -6 -74 -58 -30 -17 14 -36 25
-43 25 -7 0 -9 3 -5 8 4 4 13 7 19 7 7 0 14 11 17 25 4 20 5 18 8 -12 2 -25 8
-38 18 -38z m-658 30 c-7 -10 -16 -16 -20 -14 -12 8 -9 32 5 37 20 7 27 -3 15
-23z m812 -1 c0 -6 -4 -7 -10 -4 -5 3 -10 11 -10 16 0 6 5 7 10 4 6 -3 10 -11
10 -16z m-1575 1 c-3 -5 -14 -10 -23 -9 -14 0 -13 2 3 9 27 11 27 11 20 0z
m875 1 c0 -13 -28 -22 -35 -11 -3 4 1 11 7 13 20 8 28 8 28 -2z m470 -1 c0 -5
-2 -10 -4 -10 -3 0 -8 5 -11 10 -3 6 -1 10 4 10 6 0 11 -4 11 -10z m-150 -25
c-7 -8 -17 -15 -23 -15 -6 0 -2 7 9 15 25 19 30 19 14 0z m-1139 -21 c11 -14
10 -19 -10 -35 -13 -11 -35 -19 -50 -19 -25 0 -25 1 8 18 19 9 37 24 39 32 4
12 1 11 -15 -2 -21 -20 -53 -24 -53 -8 0 6 9 10 19 10 11 0 23 5 26 10 9 14
21 12 36 -6z m834 6 c-3 -5 -13 -10 -21 -10 -8 0 -14 5 -14 10 0 6 9 10 21 10
11 0 17 -4 14 -10z m211 -15 c-13 -10 -14 -14 -4 -18 7 -3 1 -6 -13 -6 -15 -1
-29 5 -32 13 -6 16 6 23 42 23 23 0 23 -1 7 -12z m-650 -97 c-18 -12 -26 2
-26 46 0 61 13 66 25 9 7 -32 7 -50 1 -55z m-51 43 c-4 -23 -11 -41 -16 -41
-12 0 -11 5 3 51 14 49 22 43 13 -10z m402 33 c-3 -3 -12 -4 -19 -1 -8 3 -5 6
6 6 11 1 17 -2 13 -5z m620 -16 c-3 -8 -6 -5 -6 6 -1 11 2 17 5 13 3 -3 4 -12
1 -19z m413 -47 c0 -27 -3 -62 -6 -78 -5 -28 -8 -29 -30 -19 -13 6 -24 17 -24
25 0 9 -7 11 -24 7 -12 -3 -26 -2 -30 2 -8 7 -12 8 -56 11 -20 1 -22 3 -10 11
8 5 10 10 5 10 -15 0 -13 52 3 58 8 2 12 -8 12 -31 0 -30 4 -35 30 -40 36 -8
60 0 60 19 0 8 9 23 21 35 13 13 18 27 14 40 -6 18 -5 19 14 10 17 -10 21 -21
21 -60z m-1750 44 c0 -8 -6 -15 -14 -15 -9 0 -12 -7 -9 -19 5 -20 -21 -31 -67
-30 -22 1 -21 2 7 10 47 14 50 29 6 23 l-38 -4 30 11 c17 7 39 18 50 25 25 18
35 18 35 -1z m276 -12 c-10 -10 -19 5 -10 18 6 11 8 11 12 0 2 -7 1 -15 -2
-18z m478 4 c-3 -8 -12 -18 -20 -21 -20 -8 -18 21 3 33 21 12 25 9 17 -12z
m526 19 c0 -2 -7 -9 -15 -16 -13 -11 -14 -10 -9 4 5 14 24 23 24 12z m320 -6
c0 -5 -4 -10 -9 -10 -6 0 -13 5 -16 10 -3 6 1 10 9 10 9 0 16 -4 16 -10z
m-490 -4 c0 -11 -19 -15 -25 -6 -3 5 1 10 9 10 9 0 16 -2 16 -4z m265 -6 c3
-5 1 -10 -4 -10 -6 0 -11 5 -11 10 0 6 2 10 4 10 3 0 8 -4 11 -10z m142 -12
c-3 -8 -6 -5 -6 6 -1 11 2 17 5 13 3 -3 4 -12 1 -19z m138 12 c3 -5 1 -10 -4
-10 -6 0 -11 5 -11 10 0 6 2 10 4 10 3 0 8 -4 11 -10z m131 -64 c-4 -31 -12
-59 -18 -62 -8 -5 -9 7 -5 41 4 26 7 59 7 73 0 19 3 23 11 15 8 -8 9 -30 5
-67z m-1246 44 c0 -11 -4 -20 -10 -20 -5 0 -7 7 -4 15 5 13 2 14 -20 5 -25 -9
-39 3 -13 13 28 12 47 7 47 -13z m552 -16 c118 -83 117 -241 0 -331 -39 -29
-51 -33 -106 -33 -84 0 -140 30 -181 95 -69 112 -16 255 111 295 54 17 131 6
176 -26z m241 19 c9 -3 17 -10 17 -15 0 -6 -7 -8 -15 -4 -9 3 -20 -5 -30 -22
l-16 -27 5 40 5 40 -14 -32 c-16 -35 -81 -90 -93 -78 -4 4 -1 10 6 12 27 10
70 54 76 79 5 19 11 24 24 19 9 -4 25 -10 35 -12z m-733 -3 c0 -5 -5 -10 -11
-10 -5 0 -7 5 -4 10 3 6 8 10 11 10 2 0 4 -4 4 -10z m1425 1 c3 -5 1 -12 -5
-16 -16 -10 -12 -28 6 -21 11 4 15 0 12 -16 -4 -25 -28 -37 -28 -14 0 9 -4 16
-9 16 -9 0 -25 -30 -23 -42 3 -11 -16 -10 -38 2 -21 11 -47 74 -28 68 7 -3 20
4 30 14 19 19 73 25 83 9z m-195 -16 c-10 -12 -10 -15 0 -15 9 0 8 -7 -4 -24
-11 -17 -12 -27 -5 -32 6 -3 8 -17 5 -30 -4 -14 -2 -24 4 -24 7 0 8 -6 1 -18
-6 -10 -7 -28 -4 -40 3 -15 1 -22 -8 -22 -11 0 -11 -2 1 -10 12 -8 13 -13 2
-30 -7 -12 -8 -20 -2 -20 17 0 11 -18 -7 -22 -10 -2 -24 3 -31 12 -10 11 -15
12 -18 3 -3 -7 -10 -13 -15 -13 -6 0 -7 5 -4 10 3 6 -1 10 -11 10 -12 0 -14 3
-6 13 5 6 13 31 17 54 3 22 15 49 26 59 10 9 19 25 19 35 0 47 22 119 37 119
13 0 13 -3 3 -15z m-1135 -5 c3 -6 -7 -18 -24 -28 -34 -19 -39 -30 -15 -39 9
-3 21 3 30 16 8 11 21 21 27 21 7 0 3 -7 -7 -15 -11 -8 -17 -18 -13 -21 4 -4
-1 -13 -10 -19 -15 -11 -15 -15 -4 -29 7 -9 20 -16 27 -16 8 0 14 -4 14 -10 0
-5 -7 -10 -15 -10 -7 0 -18 -8 -24 -17 -5 -10 -13 -14 -17 -10 -4 4 -3 12 3
18 15 15 -7 59 -30 59 -13 0 -16 5 -11 24 4 18 1 25 -13 28 -14 3 -10 9 22 31
44 30 51 32 60 17z m100 -1 c10 -16 -3 -23 -18 -11 -8 7 -18 8 -22 4 -5 -4 -5
-1 -1 6 9 15 32 16 41 1z m425 -19 c-19 -17 -39 -30 -44 -30 -6 0 5 13 24 30
19 16 40 29 45 29 6 0 -6 -13 -25 -29z m444 -1 c-10 -16 -23 -9 -21 10 1 15 4
17 14 9 7 -5 10 -14 7 -19z m-1164 11 c-8 -5 -19 -10 -25 -10 -5 0 -3 5 5 10
8 5 20 10 25 10 6 0 3 -5 -5 -10z m40 -25 c0 -27 -40 -60 -62 -52 -8 3 1 11
20 18 17 8 32 17 32 21 0 4 -15 5 -32 2 l-33 -5 35 20 c19 11 36 20 38 21 1 0
2 -11 2 -25z m-595 -5 c-3 -5 -18 -9 -33 -9 l-27 1 30 8 c17 4 31 8 33 9 2 0
0 -3 -3 -9z m447 -2 c21 1 36 -3 33 -9 -9 -14 -137 -10 -170 6 -29 14 -27 14
34 9 35 -4 81 -6 103 -6z m-429 -20 c-13 -6 -23 -15 -23 -20 0 -5 -10 -7 -22
-4 -13 3 -17 3 -10 0 6 -3 10 -10 6 -15 -7 -12 -24 -2 -24 15 0 7 15 18 33 24
43 13 68 14 40 0z m1957 -19 c0 -5 -4 -9 -10 -9 -5 0 -10 7 -10 16 0 8 5 12
10 9 6 -3 10 -10 10 -16z m-685 -9 c-10 -11 -23 -20 -29 -20 -6 0 0 9 14 20
32 25 38 25 15 0z m213 8 c7 -7 12 -38 12 -69 0 -62 -14 -83 -52 -77 -19 2
-22 8 -19 33 9 58 6 88 -8 93 -10 3 -12 0 -7 -13 3 -9 1 -35 -4 -57 -8 -30 -8
-43 1 -54 6 -8 9 -18 4 -22 -10 -10 -65 58 -59 73 4 9 -6 11 -39 8 -56 -7 -67
9 -25 36 18 11 41 29 50 40 14 17 30 21 76 21 32 0 63 -5 70 -12z m157 2 c-3
-5 -12 -10 -20 -10 -8 0 -17 5 -20 10 -4 6 5 10 20 10 15 0 24 -4 20 -10z
m-1565 -10 c0 -5 -5 -10 -11 -10 -5 0 -7 5 -4 10 3 6 8 10 11 10 2 0 4 -4 4
-10z m710 0 c0 -5 -8 -10 -17 -10 -15 0 -16 2 -3 10 19 12 20 12 20 0z m-560
-4 c0 -2 -11 -6 -25 -8 -14 -3 -25 -1 -25 3 0 5 11 9 25 9 14 0 25 -2 25 -4z
m148 -36 c11 0 24 5 27 10 3 6 11 10 17 10 6 0 4 -8 -5 -18 -13 -14 -14 -21
-5 -30 6 -6 8 -15 4 -19 -4 -4 -12 0 -17 10 -11 18 -69 24 -69 7 0 -5 -4 -10
-10 -10 -5 0 -7 7 -3 16 9 23 -25 48 -44 33 -8 -8 -13 -8 -13 -1 0 6 12 15 28
20 21 8 31 6 48 -9 11 -11 30 -19 42 -19z m192 16 c0 -13 -7 -27 -16 -30 -25
-10 -30 2 -8 20 18 14 18 15 -6 9 -24 -6 -24 -5 -6 9 27 22 36 20 36 -8z
m1495 15 c-19 -8 -19 -8 0 -19 18 -10 15 -12 -20 -14 -22 -1 -52 -2 -67 -1
-16 1 -28 -3 -28 -8 0 -5 12 -9 26 -9 14 0 23 -4 20 -9 -3 -4 -18 -7 -33 -5
l-28 4 30 -15 c30 -14 27 -19 -8 -16 -9 1 -20 -5 -23 -13 -3 -9 -12 -16 -20
-16 -10 0 -14 15 -14 60 0 61 6 69 38 49 13 -8 30 -7 67 4 52 16 96 22 60 8z
m-2041 -16 c-4 -8 -8 -15 -10 -15 -2 0 -4 7 -4 15 0 8 4 15 10 15 5 0 7 -7 4
-15z m1636 -4 c14 -28 13 -31 -14 -31 -28 0 -40 14 -32 35 8 21 33 18 46 -4z
m-1585 -11 c3 -5 4 -10 1 -10 -2 0 -12 -3 -20 -6 -12 -5 -15 -2 -10 10 7 18
20 21 29 6z m155 1 c0 -11 -59 -20 -66 -10 -2 4 4 10 13 12 31 8 53 7 53 -2z
m1545 -23 c-4 -18 -11 -37 -17 -43 -6 -6 -7 0 -3 18 5 19 3 27 -6 27 -8 0 -5
6 7 15 26 20 27 19 19 -17z m306 -4 c12 -15 11 -16 -9 -10 -23 8 -32 -8 -9
-17 7 -3 4 -6 -7 -6 -15 -1 -16 -4 -6 -16 11 -13 10 -14 -4 -9 -9 3 -16 2 -16
-4 0 -6 6 -13 13 -15 8 -4 7 -6 -3 -6 -8 -1 -21 -5 -29 -10 -13 -8 -13 -12 -1
-28 12 -15 12 -16 0 -5 -8 6 -25 12 -38 12 -30 0 -26 31 6 45 13 6 25 21 29
35 10 46 49 63 74 34z m-1511 -4 c0 -5 -8 -10 -17 -10 -15 0 -16 2 -3 10 19
12 20 12 20 0z m-579 -10 c5 0 2 -14 -7 -31 l-16 -31 -20 21 c-16 18 -17 25
-7 37 7 8 19 12 26 9 8 -3 19 -5 24 -5z m122 -10 c-3 -11 -7 -20 -9 -20 -2 0
-4 9 -4 20 0 11 4 20 9 20 5 0 7 -9 4 -20z m82 10 c-3 -5 -11 -10 -16 -10 -6
0 -7 5 -4 10 3 6 11 10 16 10 6 0 7 -4 4 -10z m105 -6 c0 -2 -9 -4 -20 -4 -11
0 -20 4 -20 9 0 5 9 7 20 4 11 -3 20 -7 20 -9z m250 -58 c34 -39 34 -40 7 -22
-30 18 -77 15 -77 -5 0 -8 -5 -8 -15 1 -8 7 -33 11 -59 9 -24 -2 -42 -1 -39 4
2 4 11 7 19 7 8 0 17 7 20 15 4 8 17 15 30 15 13 0 31 11 41 25 16 22 19 22
28 8 6 -9 26 -35 45 -57z m220 66 c0 -13 -12 -22 -22 -16 -10 6 -1 24 13 24 5
0 9 -4 9 -8z m865 -2 c3 -5 -1 -10 -10 -10 -9 0 -13 5 -10 10 3 6 8 10 10 10
2 0 7 -4 10 -10z m-1352 -40 c9 0 21 -9 27 -20 10 -19 8 -20 -40 -20 -47 0
-50 -2 -50 -25 0 -29 15 -33 29 -8 14 25 23 11 12 -18 -5 -13 -10 -20 -10 -16
-1 4 -9 3 -19 -2 -14 -7 -21 -5 -30 9 -6 11 -9 26 -6 35 8 19 -15 48 -33 41
-25 -10 -12 9 25 35 36 26 37 26 58 8 11 -11 28 -19 37 -19z m347 3 c0 -32 -5
-28 -14 10 -4 19 -3 26 4 22 5 -3 10 -18 10 -32z m43 24 c3 -8 2 -19 -3 -26
-5 -10 -9 -8 -14 4 -3 9 -6 21 -6 26 0 14 17 11 23 -4z m-631 -12 c0 -5 -5
-11 -11 -13 -6 -2 -11 4 -11 13 0 9 5 15 11 13 6 -2 11 -8 11 -13z m538 0 c0
-8 -4 -15 -10 -15 -5 0 -10 7 -10 15 0 8 5 15 10 15 6 0 10 -7 10 -15z m1050
1 c0 -3 -4 -8 -10 -11 -5 -3 -10 -1 -10 4 0 6 5 11 10 11 6 0 10 -2 10 -4z
m-1473 -12 c-3 -3 -12 -4 -19 -1 -8 3 -5 6 6 6 11 1 17 -2 13 -5z m230 -8 c-2
-6 -14 -11 -27 -11 -13 0 -25 5 -27 11 -2 6 10 11 27 11 17 0 29 -5 27 -11z
m-317 -29 c0 -12 -5 -17 -14 -14 -7 3 -18 1 -23 -4 -5 -5 -17 -4 -29 5 -18 14
-18 15 6 24 37 15 60 10 60 -11z m1617 17 c-3 -3 -12 -4 -19 -1 -8 3 -5 6 6 6
11 1 17 -2 13 -5z m-387 -29 c33 -12 33 -13 10 -18 -22 -4 -21 -4 6 -6 17 0
51 -15 75 -31 l44 -31 -44 41 c-24 22 -39 40 -33 40 14 0 82 -59 82 -71 0 -9
56 -69 65 -69 3 0 5 7 5 15 0 21 24 19 44 -4 25 -28 18 -76 -11 -75 -22 1 -23
-3 -23 -67 0 -36 6 -80 13 -96 15 -37 126 -132 212 -182 45 -26 86 -63 131
-115 59 -69 68 -76 101 -76 28 0 45 8 70 32 30 29 46 24 25 -8 -21 -33 -78
-49 -172 -49 l-95 0 0 -43 c0 -53 -13 -62 -90 -61 -33 0 -54 3 -47 6 21 8 13
27 -17 45 -36 20 -91 94 -91 121 0 29 29 57 57 57 16 0 23 5 20 13 -6 17 -56
11 -78 -9 -11 -10 -19 -31 -19 -50 0 -58 -26 -29 -38 40 -8 50 -22 81 -61 141
-48 71 -51 81 -51 139 l0 62 36 0 c20 0 39 6 45 15 12 19 11 69 -1 69 -5 0
-10 -11 -10 -24 0 -58 -60 -61 -74 -3 -9 35 -8 40 20 62 23 19 27 26 17 36
-11 11 -13 10 -13 -3 0 -9 -15 -24 -32 -35 -33 -18 -33 -18 -56 4 l-24 22 23
-6 c20 -6 19 -2 -11 30 -18 20 -41 39 -51 42 -11 4 -19 12 -19 20 0 15 97 12
129 -4 36 -20 47 -11 18 14 -22 19 -39 25 -77 25 -37 0 -54 5 -69 21 -22 24
-17 54 8 43 9 -4 32 -12 51 -19z m254 -4 c57 -40 122 -56 178 -44 54 12 93 2
124 -32 16 -17 33 -25 48 -23 16 2 37 -9 65 -35 31 -28 50 -37 76 -37 19 0 35
-4 35 -10 0 -22 -74 -10 -122 20 -60 37 -73 37 -75 3 0 -15 -9 -51 -19 -80
-15 -45 -16 -57 -5 -74 9 -16 10 -41 4 -98 -4 -42 -7 -83 -6 -92 2 -10 -10
-22 -28 -29 -34 -14 -53 -5 -27 14 12 9 19 33 23 77 4 35 8 70 10 76 2 7 -6
25 -19 40 -19 24 -52 96 -70 155 -5 16 -10 15 -58 -7 -69 -32 -102 -33 -95 -3
12 45 -45 101 -87 85 -8 -3 -31 12 -55 36 -38 38 -40 43 -24 54 9 7 25 13 34
13 10 0 21 5 24 10 10 16 23 12 69 -19z m97 15 c5 3 9 0 9 -5 0 -13 -27 -15
-34 -2 -3 4 -2 11 2 15 3 4 8 2 10 -3 2 -6 8 -9 13 -5z m-1521 0 c0 -3 -4 -8
-10 -11 -5 -3 -10 -1 -10 4 0 6 5 11 10 11 6 0 10 -2 10 -4z m624 -11 c3 -8 1
-15 -4 -15 -6 0 -10 7 -10 15 0 8 2 15 4 15 2 0 6 -7 10 -15z m996 5 c0 -5 -4
-10 -10 -10 -5 0 -10 5 -10 10 0 6 5 10 10 10 6 0 10 -4 10 -10z m-1800 -7 c0
-5 -5 -15 -10 -23 -8 -12 -10 -11 -10 8 0 12 5 22 10 22 6 0 10 -3 10 -7z
m1965 -3 c3 -6 -1 -7 -9 -4 -18 7 -21 14 -7 14 6 0 13 -4 16 -10z m-1905 -41
c0 -27 18 -23 32 6 6 14 15 25 20 25 14 0 9 -19 -12 -40 -24 -24 -90 -28 -90
-5 0 8 8 15 18 16 10 0 12 3 4 6 -6 2 -10 9 -7 13 9 15 35 -1 35 -21z m666
-26 c-6 -15 -9 -16 -15 -3 -5 8 -12 26 -16 40 l-7 25 22 -22 c16 -14 21 -27
16 -40z m59 37 c3 -5 -1 -10 -9 -10 -9 0 -16 5 -16 10 0 6 4 10 9 10 6 0 13
-4 16 -10z m35 0 c0 -5 -5 -10 -11 -10 -5 0 -7 5 -4 10 3 6 8 10 11 10 2 0 4
-4 4 -10z m1178 -12 c3 -14 -4 -16 -37 -15 -24 1 -41 7 -41 14 0 27 73 28 78
1z m-1559 3 c12 -8 12 -12 2 -25 -19 -23 -31 -20 -31 9 0 27 6 30 29 16z m101
3 c0 -21 -22 -42 -40 -37 -26 7 -25 16 3 29 26 14 37 16 37 8z m1505 -4 c3 -5
2 -10 -4 -10 -5 0 -13 5 -16 10 -3 6 -2 10 4 10 5 0 13 -4 16 -10z m-1813 -44
c44 -69 45 -76 10 -76 -17 0 -34 -4 -37 -10 -3 -5 -15 -15 -26 -20 -16 -9 -19
-7 -19 15 0 19 5 26 18 24 52 -5 64 23 26 62 -14 15 -23 32 -20 38 12 18 20
12 48 -33z m148 37 c-1 -29 -40 -41 -40 -13 0 13 7 20 20 20 11 0 20 -3 20 -7z
m300 -3 c0 -21 -30 -70 -49 -80 -32 -17 -34 -12 -8 20 14 16 28 39 32 50 7 21
25 28 25 10z m-70 -22 c11 -3 8 -11 -13 -32 -21 -21 -25 -31 -17 -46 5 -10 14
-20 20 -22 5 -1 7 -13 4 -25 -6 -21 -7 -21 -40 14 l-34 36 27 49 c14 27 29 45
32 40 3 -5 13 -11 21 -14z m1497 16 c-3 -3 -12 -4 -19 -1 -8 3 -5 6 6 6 11 1
17 -2 13 -5z m-1941 -35 c23 -25 25 -30 10 -28 -10 2 -24 13 -30 24 -6 11 -15
23 -21 27 -7 5 -6 8 1 8 5 0 23 -14 40 -31z m638 1 c7 -35 29 -39 44 -7 10 22
11 22 11 -5 1 -24 5 -28 32 -28 27 0 30 -2 19 -15 -7 -8 -18 -15 -26 -15 -7 0
-17 -7 -22 -17 -6 -9 -16 -14 -25 -10 -22 8 -70 94 -63 112 9 24 23 17 30 -15z
m1260 24 c20 -8 21 -30 1 -38 -8 -3 -15 -1 -15 3 0 5 6 11 12 13 7 3 2 7 -10
10 -18 5 -22 2 -22 -18 0 -14 6 -24 14 -24 8 0 16 -7 20 -15 9 -25 -8 -17 -44
20 -29 30 -32 37 -20 45 17 11 42 13 64 4z m-1762 -34 c-8 -21 -9 -22 -16 -5
-4 11 -2 22 6 26 17 11 20 6 10 -21z m612 10 c-10 -4 -21 -6 -24 -3 -8 7 24
22 34 16 5 -4 1 -10 -10 -13z m-854 -10 c0 -21 -15 -27 -25 -10 -7 12 2 30 16
30 5 0 9 -9 9 -20z m2077 14 c-3 -3 -12 -4 -19 -1 -8 3 -5 6 6 6 11 1 17 -2
13 -5z m-917 -20 c11 -13 10 -16 -9 -21 -14 -4 -24 -16 -28 -34 -7 -38 -20
-37 -26 4 -8 52 34 87 63 51z m-720 -3 c0 -6 -4 -13 -10 -16 -5 -3 -10 1 -10
9 0 9 5 16 10 16 6 0 10 -4 10 -9z m532 -25 c12 -17 10 -22 -17 -34 -35 -16
-63 -16 -47 0 18 18 14 31 -8 25 -27 -7 -25 6 3 19 25 11 58 6 69 -10z m-902
0 c0 -8 -7 -16 -15 -20 -17 -6 -18 -4 -9 18 8 20 24 21 24 2z m240 4 c0 -5 -4
-10 -9 -10 -6 0 -13 5 -16 10 -3 6 1 10 9 10 9 0 16 -4 16 -10z m70 -61 c0
-52 -3 -70 -12 -67 -16 6 -19 90 -4 101 8 6 7 10 -1 14 -18 7 -16 23 2 23 12
0 15 -15 15 -71z m670 55 c0 -8 -5 -12 -10 -9 -6 4 -8 11 -5 16 9 14 15 11 15
-7z m-330 -40 c7 -19 20 -39 31 -44 27 -15 24 -27 -8 -33 -35 -7 -42 -1 -19
16 17 13 16 15 -10 38 -32 26 -46 73 -20 63 8 -3 20 -21 26 -40z m503 39 c-7
-2 -13 -11 -13 -19 0 -8 -7 -14 -16 -12 -10 2 -19 -3 -22 -11 -4 -11 2 -12 24
-7 37 10 23 -5 -19 -19 -21 -7 -32 -17 -31 -28 1 -9 -3 -17 -10 -17 -6 0 -12
11 -12 25 -1 14 2 25 6 25 5 0 17 13 26 30 16 26 34 36 69 38 6 0 4 -2 -2 -5z
m-583 -12 c0 -6 -5 -13 -11 -17 -8 -4 -7 -9 2 -16 11 -7 11 -11 2 -15 -7 -2
-13 -9 -13 -14 0 -6 4 -8 9 -4 5 3 17 -9 25 -26 17 -34 22 -64 7 -40 -8 12
-13 12 -35 -2 -29 -20 -36 -21 -36 -7 0 6 7 10 15 10 8 0 15 5 15 11 0 8 -13
9 -40 5 -40 -6 -41 -6 -26 16 8 13 17 39 21 58 4 19 9 38 12 43 6 10 53 9 53
-2z m-640 -11 c0 -5 -7 -10 -15 -10 -8 0 -15 5 -15 10 0 6 7 10 15 10 8 0 15
-4 15 -10z m305 -34 c-3 -48 -12 -69 -25 -61 -8 5 -4 60 6 93 9 29 22 8 19
-32z m955 23 c0 -6 -4 -7 -10 -4 -5 3 -10 11 -10 16 0 6 5 7 10 4 6 -3 10 -11
10 -16z m-1025 -18 c8 -17 12 -38 8 -48 -6 -16 -8 -15 -13 7 -3 14 -16 30 -29
36 -22 11 -22 12 -5 23 11 6 20 11 21 11 1 0 9 -13 18 -29z m795 19 c0 -5 -7
-7 -15 -4 -8 4 -15 8 -15 10 0 2 7 4 15 4 8 0 15 -4 15 -10z m-954 -27 c14
-40 12 -95 -5 -101 -9 -3 -11 0 -6 8 4 7 2 16 -6 22 -11 7 -11 11 -1 15 6 2
12 12 12 20 0 13 -3 13 -15 3 -18 -15 -20 1 -2 19 10 11 10 14 0 18 -17 6 -17
23 0 23 7 0 17 -12 23 -27z m1004 23 c0 -3 -4 -8 -10 -11 -5 -3 -10 -1 -10 4
0 6 5 11 10 11 6 0 10 -2 10 -4z m-938 -89 c-3 -50 0 -73 17 -108 20 -42 20
-43 1 -21 -36 43 -49 144 -24 184 9 15 10 8 6 -55z m681 44 c4 -17 2 -18 -19
-9 -29 13 -31 28 -5 28 10 0 21 -9 24 -19z m457 9 c0 -5 -2 -10 -4 -10 -3 0
-8 5 -11 10 -3 6 -1 10 4 10 6 0 11 -4 11 -10z m483 -87 c14 -23 31 -44 36
-47 5 -4 -1 -17 -13 -29 -13 -13 -29 -40 -37 -61 -14 -37 -39 -52 -76 -43 -13
3 -8 7 15 12 36 8 48 28 63 103 7 35 5 51 -11 82 -11 22 -20 50 -19 62 1 19 2
17 8 -7 4 -16 19 -49 34 -72z m307 61 c0 -24 -4 -34 -12 -31 -12 4 -13 24 -3
55 8 23 15 12 15 -24z m-1142 16 c22 -1 24 -2 11 -10 -22 -13 -99 -24 -99 -15
0 14 34 35 48 30 8 -3 26 -5 40 -5z m1002 -35 c0 -21 -5 -25 -28 -25 -39 0
-44 8 -26 41 12 25 18 28 34 19 12 -6 20 -21 20 -35z m-1439 -45 c-9 -21 -10
-16 -7 25 6 62 8 68 13 30 2 -17 -1 -42 -6 -55z m699 70 c0 -5 -2 -10 -4 -10
-3 0 -8 5 -11 10 -3 6 -1 10 4 10 6 0 11 -4 11 -10z m790 -12 c0 -5 4 -7 9 -4
14 9 33 -21 29 -46 -3 -24 -33 -37 -49 -21 -5 5 -11 28 -13 50 -3 33 -1 40 10
36 8 -3 14 -9 14 -15z m-690 2 c0 -5 -4 -10 -10 -10 -5 0 -10 5 -10 10 0 6 5
10 10 10 6 0 10 -4 10 -10z m-45 -10 c3 -5 1 -10 -4 -10 -6 0 -11 5 -11 10 0
6 2 10 4 10 3 0 8 -4 11 -10z m-1068 -32 c-3 -7 -5 -2 -5 12 0 14 2 19 5 13 2
-7 2 -19 0 -25z m631 -25 c-3 -50 -20 -67 -23 -23 -1 14 -5 35 -9 48 -6 18 -4
22 14 22 19 0 21 -5 18 -47z m212 37 c0 -5 -2 -10 -4 -10 -3 0 -8 5 -11 10 -3
6 -1 10 4 10 6 0 11 -4 11 -10z m-470 -20 c0 -5 -4 -10 -10 -10 -5 0 -10 5
-10 10 0 6 5 10 10 10 6 0 10 -4 10 -10z m764 -19 c-18 -21 -34 -19 -34 4 0 7
10 15 23 17 30 5 31 3 11 -21z m-624 -1 c0 -5 -3 -9 -7 -7 -5 1 -8 -2 -8 -8 0
-5 5 -9 11 -7 11 2 24 -40 24 -78 0 -11 -11 -22 -27 -27 -33 -12 -53 -7 -53
13 0 7 -6 11 -13 8 -17 -6 -11 52 6 63 6 4 8 0 5 -9 -5 -11 1 -15 23 -15 17 0
26 3 21 6 -5 3 -14 16 -21 28 -9 18 -8 24 6 32 23 13 33 14 33 1z m67 -5 c0
-8 -4 -12 -9 -9 -4 3 -8 9 -8 15 0 5 4 9 8 9 5 0 9 -7 9 -15z m491 -2 c-2 -12
-13 -18 -33 -19 -24 0 -29 -4 -27 -20 5 -27 7 -28 36 -8 15 9 28 15 29 13 5
-7 27 -75 27 -82 0 -4 -10 -7 -21 -7 -18 0 -19 3 -9 15 6 8 9 19 5 25 -10 17
-25 11 -25 -9 0 -34 -18 -33 -37 1 -9 18 -18 39 -19 47 -2 8 -8 17 -14 21 -14
9 -3 18 38 30 43 13 54 11 50 -7z m675 10 c-7 -2 -19 -2 -25 0 -7 3 -2 5 12 5
14 0 19 -2 13 -5z m-1723 -13 c0 -5 -2 -10 -4 -10 -3 0 -8 5 -11 10 -3 6 -1
10 4 10 6 0 11 -4 11 -10z m392 -15 c21 5 20 4 -6 -19 -24 -20 -27 -27 -18
-39 16 -19 0 -26 -49 -20 l-37 5 17 39 c16 39 37 52 58 36 7 -5 22 -6 35 -2z
m-495 -17 c13 -12 23 -27 23 -35 0 -7 9 -22 20 -33 26 -26 11 -25 -42 2 -56
28 -56 28 -35 39 13 8 15 14 7 30 -14 25 -2 24 27 -3z m146 1 c3 -13 1 -19 -6
-16 -15 5 -22 37 -9 37 5 0 12 -9 15 -21z m185 -4 c-8 -17 -15 -22 -21 -16 -7
7 -6 15 3 26 20 24 31 18 18 -10z m428 -2 c-10 -10 -19 5 -10 18 6 11 8 11 12
0 2 -7 1 -15 -2 -18z m239 8 c131 -59 153 -231 42 -328 -65 -57 -142 -67 -223
-29 -132 62 -154 244 -40 331 63 48 151 58 221 26z m251 -4 c13 -18 11 -47 -5
-61 -18 -16 -20 -16 -35 6 -9 12 -16 33 -16 46 0 21 3 23 27 17 16 -4 29 -7
29 -8z m631 7 c-3 -3 -12 -4 -19 -1 -8 3 -5 6 6 6 11 1 17 -2 13 -5z m-2002
-12 c6 -4 11 -19 12 -34 2 -25 -1 -28 -30 -27 -18 0 -26 3 -19 6 6 2 12 18 12
34 0 29 7 35 25 21z m2060 -68 c5 -17 0 -26 -23 -43 -17 -11 -35 -21 -42 -21
-15 0 -3 41 18 58 10 8 12 12 3 12 -7 0 -9 5 -6 10 4 6 11 8 16 5 5 -4 9 -1 9
4 0 6 -5 11 -10 11 -7 0 -6 8 2 23 12 22 12 22 19 -8 4 -16 10 -40 14 -51z
m-1677 43 c3 -13 -4 -17 -32 -17 -27 0 -36 4 -36 17 0 13 3 14 12 5 17 -17 28
-15 28 4 0 20 24 13 28 -9z m397 4 c3 -5 1 -12 -5 -16 -5 -3 -10 1 -10 9 0 18
6 21 15 7z m1195 -1 c0 -5 -5 -10 -11 -10 -5 0 -7 5 -4 10 3 6 8 10 11 10 2 0
4 -4 4 -10z m-37 -7 c-7 -2 -19 -2 -25 0 -7 3 -2 5 12 5 14 0 19 -2 13 -5z
m-1164 -70 c1 -8 -12 -13 -31 -13 -32 0 -32 0 -10 16 12 8 22 23 23 32 0 14 2
13 9 -3 5 -11 9 -26 9 -32z m1204 40 c-7 -2 -19 -2 -25 0 -7 3 -2 5 12 5 14 0
19 -2 13 -5z m-20 -30 c-13 -2 -33 -2 -45 0 -13 2 -3 4 22 4 25 0 35 -2 23 -4z
m-596 -25 c-3 -8 -6 -5 -6 6 -1 11 2 17 5 13 3 -3 4 -12 1 -19z m-997 2 c0 -5
-5 -10 -11 -10 -5 0 -7 5 -4 10 3 6 8 10 11 10 2 0 4 -4 4 -10z m953 -4 c4
-10 0 -14 -14 -13 -10 1 -19 7 -19 14 0 18 27 16 33 -1z m-769 -5 c4 -5 -3 -7
-14 -4 -23 6 -26 13 -6 13 8 0 17 -4 20 -9z m136 -12 c0 -4 -4 -11 -10 -14
-16 -10 -12 -23 10 -30 28 -9 25 -21 -11 -35 -18 -8 -28 -18 -25 -26 3 -8 -1
-14 -9 -14 -7 0 -15 10 -17 23 -2 18 -8 22 -36 19 -26 -2 -32 2 -32 17 0 13
-10 20 -31 25 -36 7 -30 26 10 26 15 0 31 4 37 9 18 18 114 19 114 0z m751
-16 l20 -32 -28 2 c-22 2 -29 -3 -31 -20 -2 -12 -10 -27 -18 -33 -12 -11 -14
-6 -14 29 0 38 2 42 20 36 22 -7 26 5 9 22 -12 12 -3 36 12 31 6 -2 19 -18 30
-35z m-956 17 c4 -6 -7 -10 -27 -9 -31 1 -32 1 -8 9 14 4 26 8 27 9 1 1 5 -3
8 -9z m1605 0 c-20 -13 -53 -13 -45 0 3 6 18 10 33 10 21 0 24 -2 12 -10z
m-163 -6 c-3 -3 -12 -4 -19 -1 -8 3 -5 6 6 6 11 1 17 -2 13 -5z m-630 -25 c-5
-18 -2 -20 19 -15 19 5 24 3 24 -14 0 -17 -5 -19 -24 -14 -13 3 -34 0 -47 -6
-19 -11 -21 -10 -16 5 4 9 7 28 7 41 0 18 5 24 21 24 17 0 20 -5 16 -21z
m-1247 1 c0 -5 -4 -10 -10 -10 -5 0 -10 5 -10 10 0 6 5 10 10 10 6 0 10 -4 10
-10z m2050 0 c0 -6 -28 -9 -67 -8 l-68 1 60 7 c33 4 63 7 68 8 4 1 7 -2 7 -8z
m-1841 -24 c6 -7 9 -20 6 -28 -4 -11 2 -18 19 -22 32 -8 32 -17 1 -54 l-25
-30 32 -12 c25 -10 28 -14 16 -17 -10 -3 -18 -11 -18 -19 0 -15 60 -44 91 -44
11 0 19 -7 19 -15 0 -8 -5 -15 -11 -15 -6 0 -8 -8 -4 -19 5 -16 -1 -19 -52
-23 -31 -3 -59 -10 -61 -16 -2 -7 -12 -12 -23 -12 -16 0 -17 4 -9 26 14 35 13
36 -17 30 -16 -3 -34 -2 -42 3 -10 6 -5 12 18 24 30 15 33 15 52 -4 29 -29 59
-25 59 8 0 25 -1 26 -20 8 -17 -15 -20 -16 -25 -2 -8 20 -46 29 -63 15 -11
-10 -16 -8 -23 5 -6 9 -19 17 -31 17 -21 0 -21 0 -2 21 l19 22 -57 -7 c-34 -4
-58 -4 -58 2 0 9 73 44 101 47 28 4 39 15 39 41 0 38 28 83 51 84 4 0 12 -6
18 -14z m71 -1 c0 -8 -7 -15 -15 -15 -8 0 -15 7 -15 15 0 8 7 15 15 15 8 0 15
-7 15 -15z m45 5 c3 -5 1 -10 -4 -10 -6 0 -11 5 -11 10 0 6 2 10 4 10 3 0 8
-4 11 -10z m-198 -32 c-3 -8 -6 -5 -6 6 -1 11 2 17 5 13 3 -3 4 -12 1 -19z
m1886 15 c-7 -2 -19 -2 -25 0 -7 3 -2 5 12 5 14 0 19 -2 13 -5z m-579 -12 c3
-5 -3 -11 -15 -14 -16 -4 -18 -3 -8 9 13 16 16 17 23 5z m-1014 -10 c0 -6 -4
-13 -10 -16 -5 -3 -10 1 -10 9 0 9 5 16 10 16 6 0 10 -4 10 -9z m1580 -3 c0
-5 -16 -8 -36 -8 -20 0 -33 4 -29 10 7 11 65 9 65 -2z m-2063 -16 c-10 -10
-17 -24 -17 -30 0 -6 -4 -14 -10 -17 -6 -4 -10 8 -10 29 0 32 3 36 27 36 25 0
25 -1 10 -18z m388 8 c3 -5 1 -10 -4 -10 -6 0 -11 5 -11 10 0 6 2 10 4 10 3 0
8 -4 11 -10z m945 -15 c0 -8 -4 -16 -9 -19 -12 -8 -34 21 -27 33 9 14 36 2 36
-14z m633 18 c-7 -2 -19 -2 -25 0 -7 3 -2 5 12 5 14 0 19 -2 13 -5z m-1873
-23 c0 -5 -2 -10 -4 -10 -3 0 -8 5 -11 10 -3 6 -1 10 4 10 6 0 11 -4 11 -10z
m1396 -17 c-10 -10 -19 5 -10 18 6 11 8 11 12 0 2 -7 1 -15 -2 -18z m-1336 7
c0 -5 -5 -10 -11 -10 -5 0 -7 5 -4 10 3 6 8 10 11 10 2 0 4 -4 4 -10z m1130
-21 c0 -5 -9 -9 -20 -9 -23 0 -23 0 -11 -33 11 -28 81 -52 129 -45 26 4 29 1
28 -19 0 -13 -7 -23 -14 -23 -7 0 -10 -5 -7 -10 4 -6 10 -8 15 -5 15 9 60 -37
60 -61 0 -20 -5 -21 -64 -21 l-64 0 -5 37 c-6 49 -34 87 -74 102 -19 7 -29 16
-26 25 3 7 0 13 -6 13 -6 0 -11 -7 -11 -15 0 -8 -4 -15 -9 -15 -5 0 -18 -3
-28 -7 -10 -3 3 17 30 45 26 28 47 56 47 63 0 8 4 8 15 -1 8 -7 15 -16 15 -21z
m830 11 c0 -11 -2 -20 -4 -20 -2 0 -6 9 -9 20 -3 11 -1 20 4 20 5 0 9 -9 9
-20z m-1740 -5 c0 -8 -4 -15 -10 -15 -5 0 -10 7 -10 15 0 8 5 15 10 15 6 0 10
-7 10 -15z m995 5 c3 -5 -1 -10 -10 -10 -9 0 -13 5 -10 10 3 6 8 10 10 10 2 0
7 -4 10 -10z m-1335 -10 c0 -5 -4 -10 -10 -10 -5 0 -10 5 -10 10 0 6 5 10 10
10 6 0 10 -4 10 -10z m450 -5 c0 -8 -7 -15 -15 -15 -26 0 -18 20 13 29 1 1 2
-6 2 -14z m958 2 c7 -21 0 -26 -18 -15 -11 7 -20 15 -20 19 0 8 34 5 38 -4z
m-716 -32 c11 -19 48 -19 74 0 23 18 56 19 72 3 19 -19 14 -28 -23 -44 -34
-14 -39 -22 -36 -55 2 -20 -25 -32 -52 -23 -16 5 -19 3 -14 -10 8 -20 -25 -40
-41 -24 -8 8 -8 17 -1 30 12 23 -12 58 -40 58 -14 1 -13 3 2 14 17 13 16 15
-9 35 -15 12 -32 21 -38 22 -6 0 -2 4 9 9 28 13 87 4 97 -15z m788 1 c0 -13
-7 -26 -15 -30 -9 -3 -12 -12 -8 -22 4 -12 3 -15 -5 -10 -17 10 -15 26 5 48
18 20 4 25 -15 6 -7 -7 -12 -9 -12 -6 0 10 30 38 41 38 5 0 9 -11 9 -24z m510
8 c0 -2 -14 -4 -31 -4 -16 0 -28 4 -25 9 5 8 56 3 56 -5z m50 6 c0 -5 -7 -10
-16 -10 -8 0 -12 5 -9 10 3 6 10 10 16 10 5 0 9 -4 9 -10z m-760 -21 c0 -5 -7
-9 -15 -9 -15 0 -20 12 -9 23 8 8 24 -1 24 -14z m55 11 c3 -5 1 -10 -4 -10 -6
0 -11 5 -11 10 0 6 2 10 4 10 3 0 8 -4 11 -10z m-965 -10 c0 -5 -4 -10 -10
-10 -5 0 -10 5 -10 10 0 6 5 10 10 10 6 0 10 -4 10 -10z m150 6 c0 -3 -4 -8
-10 -11 -5 -3 -10 -1 -10 4 0 6 5 11 10 11 6 0 10 -2 10 -4z m850 -15 c0 -10
-7 -22 -16 -25 -25 -10 -28 0 -7 22 23 26 23 26 23 3z m-756 -10 c4 -5 -3 -7
-14 -4 -23 6 -26 13 -6 13 8 0 17 -4 20 -9z m-174 -15 c0 -3 -4 -8 -10 -11 -5
-3 -10 -1 -10 4 0 6 5 11 10 11 6 0 10 -2 10 -4z m157 -12 c-3 -3 -12 -4 -19
-1 -8 3 -5 6 6 6 11 1 17 -2 13 -5z m827 -62 c-6 -14 -8 -11 -14 13 -9 42 1
67 13 32 5 -15 6 -35 1 -45z m-264 27 c0 -5 -9 -9 -20 -9 -11 0 -20 6 -20 14
0 9 7 12 20 9 11 -3 20 -9 20 -14z m-1176 -12 c9 -14 7 -21 -7 -31 -10 -8 -15
-20 -11 -30 7 -18 4 -19 -20 -10 -16 6 -23 74 -9 88 11 11 35 2 47 -17z m606
14 c0 -5 -9 -7 -20 -4 -11 3 -20 7 -20 9 0 2 9 4 20 4 11 0 20 -4 20 -9z m673
-71 c1 -19 -3 -35 -10 -37 -8 -3 -13 5 -13 21 0 15 -7 43 -15 64 l-16 37 26
-26 c17 -16 27 -38 28 -59z m342 28 c22 -22 34 -37 27 -33 -7 4 -34 10 -60 13
-44 7 -47 9 -50 40 -3 31 -2 33 20 27 13 -4 41 -25 63 -47z m-961 17 c-3 -14
1 -37 9 -55 l15 -30 -44 0 c-45 0 -53 7 -32 28 9 9 4 12 -25 12 -20 0 -37 5
-37 10 0 6 6 10 14 10 8 0 28 11 43 25 38 33 65 33 57 0z m1226 -19 c0 -38
-16 -57 -26 -32 -8 21 3 66 16 66 6 0 10 -15 10 -34z m-1830 9 c0 -8 -4 -15
-10 -15 -5 0 -10 7 -10 15 0 8 5 15 10 15 6 0 10 -7 10 -15z m795 -5 c3 -5 1
-10 -4 -10 -6 0 -11 5 -11 10 0 6 2 10 4 10 3 0 8 -4 11 -10z m185 0 c0 -5 -4
-10 -10 -10 -22 0 -8 -22 20 -33 17 -6 30 -15 30 -19 0 -4 -13 -8 -30 -8 -20
0 -30 5 -30 15 0 7 -7 18 -17 23 -21 12 -10 42 17 42 11 0 20 -4 20 -10z m923
-7 c-7 -2 -21 -2 -30 0 -10 3 -4 5 12 5 17 0 24 -2 18 -5z m-738 -13 c3 -5 1
-10 -4 -10 -6 0 -11 5 -11 10 0 6 2 10 4 10 3 0 8 -4 11 -10z m-405 -4 c0 -11
-19 -15 -25 -6 -3 5 1 10 9 10 9 0 16 -2 16 -4z m120 -6 c0 -5 -4 -10 -10 -10
-5 0 -10 5 -10 10 0 6 5 10 10 10 6 0 10 -4 10 -10z m570 1 c0 -6 -4 -13 -10
-16 -5 -3 -10 1 -10 9 0 9 5 16 10 16 6 0 10 -4 10 -9z m580 -1 c0 -6 -11 -8
-27 -4 -40 10 -41 14 -5 14 18 0 32 -5 32 -10z m-1230 -9 c0 -6 -4 -13 -10
-16 -5 -3 -10 1 -10 9 0 9 5 16 10 16 6 0 10 -4 10 -9z m-95 -11 c3 -5 1 -10
-4 -10 -6 0 -11 5 -11 10 0 6 2 10 4 10 3 0 8 -4 11 -10z m899 -11 c8 -8 -3
-10 -49 -4 -81 9 -101 30 -21 22 32 -3 64 -11 70 -18z m-1099 1 c-3 -5 -14
-10 -23 -10 -15 0 -15 2 -2 10 20 13 33 13 25 0z m630 0 c3 -5 -1 -10 -9 -10
-9 0 -16 5 -16 10 0 6 4 10 9 10 6 0 13 -4 16 -10z"/>
<path d="M1015 3670 c3 -5 21 -10 40 -10 47 0 71 -32 48 -66 -10 -16 -25 -24
-44 -24 -15 0 -31 -4 -34 -10 -4 -6 31 -10 99 -10 59 0 108 4 111 10 4 6 -6
10 -23 10 -28 0 -62 26 -62 47 0 17 35 43 58 43 12 0 22 5 22 10 0 6 -44 10
-111 10 -71 0 -108 -4 -104 -10z m127 -22 c-9 -9 -15 -9 -24 0 -9 9 -7 12 12
12 19 0 21 -3 12 -12z m2 -63 c4 -10 -1 -15 -14 -15 -13 0 -18 5 -14 15 4 8
10 15 14 15 4 0 10 -7 14 -15z"/>
<path d="M1094 3298 c-11 -30 -26 -54 -34 -54 -8 -1 -36 -2 -62 -3 -27 0 -48
-5 -48 -10 0 -6 57 -50 88 -67 2 -1 -8 -27 -22 -58 -30 -67 -19 -73 51 -25
l46 32 53 -29 c29 -16 56 -26 59 -23 3 4 -3 30 -14 60 l-20 53 41 35 42 36
-59 5 -60 5 -14 48 c-8 26 -18 47 -22 47 -3 0 -15 -24 -25 -52z m36 -34 c0 -8
-7 -14 -15 -14 -17 0 -18 2 -9 24 7 18 24 12 24 -10z m-72 -51 c-5 -25 -22
-26 -49 -4 l-24 20 38 1 c31 0 38 -3 35 -17z m97 -4 c5 -15 0 -28 -18 -46 -22
-22 -27 -23 -46 -12 -24 16 -25 18 -11 53 13 34 65 37 75 5z m50 7 c-20 -14
-35 -12 -35 5 0 5 12 9 27 9 26 0 26 -1 8 -14z m-20 -86 c24 -46 15 -54 -26
-21 -20 16 -21 21 -10 35 18 21 18 21 36 -14z m-127 -31 c-18 -15 -35 -26 -37
-24 -2 2 7 20 19 40 18 30 25 34 37 23 13 -10 10 -16 -19 -39z"/>
<path d="M1943 3091 l-17 -59 -50 -6 c-70 -8 -75 -19 -23 -51 l45 -29 -19 -53
c-21 -62 -13 -67 45 -23 43 33 36 34 123 -20 33 -21 39 -5 20 48 -9 26 -17 52
-17 58 0 5 18 23 40 40 22 16 40 33 40 38 0 5 -25 6 -55 2 -52 -6 -55 -5 -69
21 -7 16 -17 43 -21 61 -10 47 -23 39 -42 -27z m42 -33 c6 -24 4 -28 -14 -28
-22 0 -25 10 -15 48 8 27 20 19 29 -20z m26 -65 c9 -23 7 -30 -13 -45 -44 -34
-87 -13 -69 35 17 44 66 50 82 10z m54 7 c-19 -21 -35 -18 -35 6 0 9 10 14 27
14 25 0 26 -1 8 -20z m-152 -10 c-6 -24 -5 -23 -38 -8 -35 16 -31 28 9 28 29
0 33 -3 29 -20z m135 -105 c-2 -11 -10 -10 -37 7 l-33 21 23 18 c23 17 24 17
37 -7 7 -14 12 -32 10 -39z m-111 28 c2 -5 -7 -18 -21 -26 l-25 -17 11 31 c10
28 28 35 35 12z"/>
<path d="M279 3071 l-23 -70 -60 -3 -61 -3 47 -34 47 -34 -20 -51 c-10 -28
-19 -54 -19 -58 0 -14 21 -8 58 17 47 32 55 32 108 -7 24 -17 47 -29 50 -25 3
3 -1 27 -10 53 -9 26 -16 51 -16 55 0 5 20 20 45 35 25 14 45 30 45 35 0 5
-25 9 -55 9 -62 0 -65 3 -85 88 -6 28 -16 54 -20 57 -5 3 -19 -26 -31 -64z
m43 -46 c2 -24 -1 -30 -17 -30 -16 0 -20 6 -18 29 1 16 5 37 8 45 6 14 7 14
15 1 5 -9 10 -29 12 -45z m-82 -60 c0 -8 -4 -15 -9 -15 -5 0 -14 7 -21 15 -10
13 -9 15 9 15 12 0 21 -6 21 -15z m104 -1 c11 -28 7 -41 -17 -57 -22 -14 -26
-14 -50 6 -20 18 -24 26 -17 45 7 17 17 22 44 22 22 0 36 -6 40 -16z m62 -9
c-25 -19 -32 -19 -40 0 -4 11 2 15 27 15 30 -1 31 -1 13 -15z m-137 -59 c10
-11 7 -17 -10 -30 -28 -19 -32 -16 -23 18 7 29 16 33 33 12z m102 -29 c6 -24
5 -26 -11 -17 -24 13 -33 27 -25 41 11 16 28 5 36 -24z"/>
<path d="M600 2859 c0 -11 5 -17 10 -14 6 3 10 13 10 21 0 8 -4 14 -10 14 -5
0 -10 -9 -10 -21z"/>
<path d="M635 2870 c-8 -13 4 -32 16 -25 12 8 12 35 0 35 -6 0 -13 -4 -16 -10z"/>
<path d="M1599 2785 c-3 -25 0 -77 5 -82 13 -14 27 12 21 40 -7 33 -24 59 -26
42z"/>
<path d="M1550 2740 c0 -29 4 -40 15 -40 11 0 15 11 15 40 0 29 -4 40 -15 40
-11 0 -15 -11 -15 -40z"/>
<path d="M1507 2513 c-4 -3 -7 -17 -7 -30 0 -18 5 -23 25 -23 20 0 25 5 25 24
0 13 -7 27 -16 30 -19 7 -19 7 -27 -1z"/>
<path d="M1602 2328 c2 -13 8 -23 13 -23 6 0 11 10 13 23 2 15 -2 22 -13 22
-11 0 -15 -7 -13 -22z"/>
<path d="M1520 2145 c0 -8 0 -18 -1 -22 0 -4 4 -9 10 -11 6 -2 11 8 11 22 0
14 -4 26 -10 26 -5 0 -10 -7 -10 -15z"/>
<path d="M1554 1915 c-3 -8 -3 -19 1 -25 11 -18 25 -11 25 15 0 27 -17 34 -26
10z"/>
<path d="M297 2633 c-2 -5 -12 -32 -21 -60 l-18 -53 -66 0 -67 -1 48 -42 49
-43 -16 -54 c-9 -29 -14 -55 -12 -58 3 -2 25 10 51 28 l46 31 50 -37 c27 -20
53 -34 56 -30 3 3 -1 31 -10 62 -9 31 -14 60 -12 65 3 4 25 20 50 36 25 15 45
31 45 36 0 4 -27 7 -60 7 l-60 0 -17 60 c-15 56 -26 71 -36 53z m25 -83 c2
-20 -2 -26 -21 -28 -19 -3 -22 0 -17 13 3 9 9 28 12 42 8 29 20 16 26 -27z
m-78 -49 c9 -13 -4 -41 -19 -41 -6 0 -20 9 -29 19 -13 15 -14 20 -4 24 21 9
46 8 52 -2z m99 -25 c8 -25 7 -32 -13 -48 -26 -21 -40 -22 -64 -5 -17 12 -17
16 -2 51 13 32 20 37 43 34 19 -2 29 -11 36 -32z m77 22 c0 -8 -41 -38 -52
-38 -5 0 -8 11 -8 25 0 22 4 25 30 23 17 -1 30 -6 30 -10z m-60 -90 c0 -7 3
-24 7 -37 l6 -25 -33 24 c-31 22 -32 24 -14 37 22 16 34 17 34 1z m-93 -14 c3
-9 -36 -39 -42 -32 -1 2 1 14 6 26 9 23 29 26 36 6z"/>
<path d="M1960 2578 c-25 -97 -21 -93 -83 -96 -31 -2 -57 -7 -57 -12 0 -5 18
-19 40 -30 45 -23 49 -39 25 -97 -8 -19 -15 -37 -15 -39 0 -12 30 0 64 26 48
36 52 37 98 5 30 -21 68 -33 68 -22 0 1 -7 25 -16 52 l-15 50 43 37 43 38 -61
0 -61 0 -16 43 c-8 23 -18 52 -22 65 -10 34 -23 26 -35 -20z m50 -80 c0 -5
-11 -8 -25 -8 -28 0 -32 20 -14 67 l11 28 14 -40 c7 -22 14 -43 14 -47z m-90
-48 c0 -25 -11 -25 -41 0 l-24 19 33 1 c25 0 32 -4 32 -20z m115 -2 c6 -16 1
-26 -16 -39 -30 -23 -41 -23 -69 -1 -19 16 -21 22 -11 40 17 31 87 32 96 0z
m55 7 c-7 -8 -19 -15 -26 -15 -8 0 -14 7 -14 15 0 10 10 15 26 15 22 0 25 -2
14 -15z m-141 -68 c11 -14 7 -19 -41 -56 -16 -12 -16 -11 0 28 18 44 24 48 41
28z m115 -9 c12 -45 7 -50 -24 -28 -25 18 -28 25 -19 36 17 21 36 17 43 -8z"/>
<path d="M1106 2471 c-4 -6 -14 -33 -22 -61 l-15 -50 -59 0 c-33 0 -60 -4 -60
-9 0 -4 18 -20 40 -35 46 -30 47 -37 20 -108 -11 -28 -18 -54 -15 -56 2 -2 28
12 58 32 l55 37 57 -36 c31 -20 59 -34 62 -31 5 4 -11 56 -31 107 -5 12 6 25
43 49 56 35 62 46 29 46 -107 1 -105 0 -123 57 -20 59 -30 74 -39 58z m34 -98
c0 -7 -11 -13 -25 -13 -29 0 -28 -2 -14 40 l12 33 13 -24 c7 -13 13 -30 14
-36z m-90 -53 c0 -11 -4 -20 -8 -20 -5 0 -17 9 -27 20 -18 20 -17 20 8 20 20
0 27 -5 27 -20z m110 1 c17 -32 12 -48 -20 -61 -25 -10 -34 -10 -55 4 -29 19
-28 17 -15 50 8 21 16 26 44 26 25 0 38 -6 46 -19z m71 -1 c-21 -18 -51 -27
-51 -16 0 2 -3 11 -6 20 -5 13 2 16 37 16 l44 -1 -24 -19z m-153 -72 c7 -7 12
-15 12 -20 0 -8 -60 -42 -65 -36 -6 6 24 68 33 68 4 0 13 -5 20 -12z m118 -31
c7 -20 11 -37 8 -37 -3 0 -21 12 -40 26 -32 25 -33 28 -17 40 25 19 35 13 49
-29z"/>
<path d="M765 2197 c-4 -10 -5 -21 -1 -24 10 -10 18 4 13 24 -4 17 -4 17 -12
0z"/>
<path d="M800 2185 c0 -8 7 -15 15 -15 8 0 15 7 15 15 0 8 -7 15 -15 15 -8 0
-15 -7 -15 -15z"/>
<path d="M850 2185 c0 -8 5 -15 10 -15 6 0 10 7 10 15 0 8 -4 15 -10 15 -5 0
-10 -7 -10 -15z"/>
<path d="M956 2031 c-4 -5 -2 -12 3 -15 5 -4 12 -2 15 3 4 5 2 12 -3 15 -5 4
-12 2 -15 -3z"/>
<path d="M900 1985 c0 -8 5 -15 10 -15 6 0 10 7 10 15 0 8 -4 15 -10 15 -5 0
-10 -7 -10 -15z"/>
<path d="M2126 1995 c4 -8 8 -15 10 -15 2 0 4 7 4 15 0 8 -4 15 -10 15 -5 0
-7 -7 -4 -15z"/>
<path d="M60 1959 c0 -17 4 -28 10 -24 6 3 10 17 10 31 0 13 -4 24 -10 24 -5
0 -10 -14 -10 -31z"/>
<path d="M1692 1991 c-11 -7 -11 -9 1 -14 16 -6 27 0 27 15 0 10 -11 10 -28
-1z"/>
<path d="M608 1993 c7 -3 16 -2 19 1 4 3 -2 6 -13 5 -11 0 -14 -3 -6 -6z"/>
<path d="M1876 1892 c-16 -15 -4 -39 19 -39 17 0 25 5 25 17 0 17 -33 34 -44
22z"/>
<path d="M2156 1873 c-12 -12 -6 -33 9 -33 8 0 15 6 15 14 0 17 -14 28 -24 19z"/>
<path d="M2060 1689 c0 -11 5 -17 10 -14 6 3 10 13 10 21 0 8 -4 14 -10 14 -5
0 -10 -9 -10 -21z"/>
<path d="M2090 1670 c0 -19 3 -21 12 -12 9 9 9 15 0 24 -9 9 -12 7 -12 -12z"/>
<path d="M2120 1640 c0 -19 3 -21 12 -12 9 9 9 15 0 24 -9 9 -12 7 -12 -12z"/>
<path d="M2150 1615 c0 -8 5 -15 10 -15 6 0 10 7 10 15 0 8 -4 15 -10 15 -5 0
-10 -7 -10 -15z"/>
<path d="M1358 1793 c7 -3 16 -2 19 1 4 3 -2 6 -13 5 -11 0 -14 -3 -6 -6z"/>
<path d="M1530 1745 c0 -9 5 -15 11 -13 6 2 11 8 11 13 0 5 -5 11 -11 13 -6 2
-11 -4 -11 -13z"/>
<path d="M1342 1654 c4 -91 26 -99 24 -8 -1 46 -5 69 -14 72 -10 3 -12 -12
-10 -64z"/>
<path d="M484 1791 c-34 -21 -51 -41 -36 -41 5 0 15 7 22 15 7 8 18 15 24 15
7 0 21 7 32 15 29 22 -4 19 -42 -4z"/>
<path d="M561 1781 c-42 -11 -66 -55 -66 -119 0 -63 10 -97 25 -87 6 4 5 13
-2 25 -10 15 -10 27 -1 51 10 26 10 29 -3 19 -26 -23 -15 8 17 45 19 22 26 35
18 36 -8 0 4 9 26 19 40 18 32 24 -14 11z"/>
<path d="M595 1725 c-14 -13 -25 -29 -25 -36 0 -6 -7 -17 -16 -24 -25 -18 -7
-110 20 -110 11 0 21 -6 24 -13 2 -6 13 -12 24 -12 12 0 27 -8 34 -17 18 -25
27 -11 13 21 -8 17 -20 26 -36 26 -12 0 -23 5 -23 11 0 5 -4 8 -8 5 -13 -8
-26 7 -38 41 -9 25 -9 35 0 43 7 5 16 7 19 3 4 -3 7 4 7 16 0 12 12 33 26 46
15 14 22 25 15 25 -7 0 -23 -11 -36 -25z"/>
<path d="M720 1500 c0 -5 5 -10 10 -10 6 0 10 5 10 10 0 6 -4 10 -10 10 -5 0
-10 -4 -10 -10z"/>
<path d="M1140 1670 c0 -5 5 -10 10 -10 6 0 10 5 10 10 0 6 -4 10 -10 10 -5 0
-10 -4 -10 -10z"/>
<path d="M1135 1640 c-3 -5 1 -10 9 -10 8 0 18 5 21 10 3 6 -1 10 -9 10 -8 0
-18 -4 -21 -10z"/>
<path d="M1078 1598 c-20 -17 -30 -58 -14 -58 18 0 46 33 46 53 0 20 -10 22
-32 5z"/>
<path d="M1135 1440 c-8 -13 35 -13 55 0 11 7 7 10 -17 10 -17 0 -35 -4 -38
-10z"/>
<path d="M1025 1291 c-6 -11 9 -23 19 -14 9 9 7 23 -3 23 -6 0 -12 -4 -16 -9z"/>
<path d="M100 1630 c0 -5 5 -10 10 -10 6 0 10 5 10 10 0 6 -4 10 -10 10 -5 0
-10 -4 -10 -10z"/>
<path d="M145 1580 c-3 -5 -1 -10 4 -10 6 0 11 5 11 10 0 6 -2 10 -4 10 -3 0
-8 -4 -11 -10z"/>
<path d="M1845 1640 c-3 -6 1 -7 9 -4 18 7 21 14 7 14 -6 0 -13 -4 -16 -10z"/>
<path d="M1934 1518 l-19 -53 -63 -3 c-34 -2 -62 -6 -62 -10 0 -4 12 -15 28
-25 67 -41 66 -39 41 -96 -12 -29 -19 -54 -16 -57 3 -4 27 8 52 25 25 17 51
31 57 31 6 0 33 -16 60 -36 28 -19 52 -33 55 -30 3 3 -4 32 -15 65 l-21 60 28
23 c15 13 38 31 51 41 25 18 25 18 -33 13 -67 -5 -82 5 -92 64 -9 55 -29 50
-51 -12z m46 -35 c0 -16 -6 -23 -20 -23 -23 0 -24 7 -9 47 8 22 12 24 19 13 6
-8 10 -25 10 -37z m-80 -45 c-1 -30 -15 -38 -38 -22 -30 21 -27 34 8 34 17 0
30 -5 30 -12z m99 -10 c15 -38 -33 -77 -69 -58 -23 12 -24 18 -10 54 13 35 66
37 79 4z m71 12 c-43 -30 -50 -31 -50 -10 0 16 6 20 33 20 25 0 29 -3 17 -10z
m-161 -113 c-26 -21 -36 -9 -19 23 10 18 14 19 27 9 13 -12 12 -15 -8 -32z
m121 13 c17 -40 11 -43 -28 -18 -26 16 -30 23 -21 34 18 22 36 16 49 -16z"/>
<path d="M284 1559 c-6 -8 -17 -35 -24 -61 l-12 -47 -66 -3 -67 -3 52 -37 52
-37 -19 -56 c-22 -65 -14 -70 50 -30 22 14 44 25 50 25 6 0 28 -11 50 -25 38
-24 60 -31 60 -20 0 3 -7 22 -15 42 -22 51 -19 59 25 84 58 33 52 49 -16 49
-54 0 -55 0 -70 38 -34 87 -39 95 -50 81z m24 -68 c7 -21 12 -41 12 -45 0 -7
-44 -8 -52 -1 -7 7 14 85 22 85 4 0 12 -17 18 -39z m-78 -76 c0 -19 -11 -19
-36 0 -18 14 -18 14 9 15 17 0 27 -5 27 -15z m105 3 c2 -2 6 -15 10 -29 5 -21
2 -27 -20 -37 -23 -11 -31 -9 -56 9 -19 13 -28 27 -25 36 3 8 6 19 6 25 0 9
75 6 85 -4z m65 -17 c-26 -21 -40 -19 -40 5 0 9 11 14 33 14 l32 0 -25 -19z
m-126 -70 c3 -5 -10 -18 -29 -30 -38 -22 -40 -20 -24 27 9 27 14 30 29 22 11
-6 21 -14 24 -19z m92 -28 c-3 -4 -14 1 -24 10 -15 16 -15 19 -2 27 11 7 17 4
24 -10 5 -11 6 -23 2 -27z"/>
<path d="M570 1280 c0 -5 4 -10 9 -10 6 0 13 5 16 10 3 6 -1 10 -9 10 -9 0
-16 -4 -16 -10z"/>
<path d="M1855 1139 c-11 -17 1 -21 15 -4 8 9 8 15 2 15 -6 0 -14 -5 -17 -11z"/>
<path d="M1845 1090 c3 -5 11 -10 16 -10 6 0 7 5 4 10 -3 6 -11 10 -16 10 -6
0 -7 -4 -4 -10z"/>
<path d="M1095 1095 l-18 -65 -41 -2 c-23 0 -51 0 -63 1 -40 3 -32 -15 22 -48
l54 -33 -20 -55 c-12 -30 -18 -57 -15 -60 3 -3 30 11 59 31 l54 37 57 -36 c61
-39 66 -35 41 35 -8 23 -15 46 -15 51 0 4 22 22 50 40 27 17 47 36 44 41 -4 5
-32 8 -63 7 -31 -2 -61 -1 -67 3 -6 4 -19 32 -29 62 -11 31 -22 56 -26 56 -4
0 -15 -29 -24 -65z m49 -42 c6 -20 4 -23 -18 -23 -29 0 -31 6 -15 47 11 30 19
24 33 -24z m20 -62 c15 -28 14 -30 -10 -46 -21 -13 -31 -15 -50 -6 -39 18 -29
65 16 74 14 2 26 5 27 6 1 0 9 -12 17 -28z m86 24 c0 -2 -12 -12 -26 -21 -21
-15 -27 -15 -34 -4 -5 8 -6 18 -4 22 5 8 64 11 64 3z m-190 -25 c0 -25 -8 -25
-40 0 l-25 20 33 0 c25 0 32 -4 32 -20z m144 -109 c-2 -2 -16 4 -30 14 -26 17
-27 18 -9 31 17 13 20 11 31 -13 6 -16 10 -30 8 -32z m-114 39 c13 -8 12 -11
-5 -24 -26 -20 -39 -20 -31 0 3 9 6 20 6 25 0 11 11 11 30 -1z"/>
<path d="M2100 1140 c0 -5 7 -10 16 -10 8 0 12 5 9 10 -3 6 -10 10 -16 10 -5
0 -9 -4 -9 -10z"/>
<path d="M1905 940 c-3 -5 -1 -10 4 -10 6 0 11 5 11 10 0 6 -2 10 -4 10 -3 0
-8 -4 -11 -10z"/>
<path d="M1467 1034 c-10 -11 3 -24 23 -24 13 0 17 5 14 15 -6 15 -26 20 -37
9z"/>
<path d="M1745 1020 c-3 -5 -1 -10 4 -10 6 0 11 5 11 10 0 6 -2 10 -4 10 -3 0
-8 -4 -11 -10z"/>
<path d="M60 950 c0 -5 5 -10 10 -10 6 0 10 5 10 10 0 6 -4 10 -10 10 -5 0
-10 -4 -10 -10z"/>
<path d="M1470 753 c0 -5 5 -15 10 -23 9 -13 11 -13 20 0 15 22 12 30 -10 30
-11 0 -20 -3 -20 -7z"/>
<path d="M1610 710 c0 -5 5 -10 10 -10 6 0 10 5 10 10 0 6 -4 10 -10 10 -5 0
-10 -4 -10 -10z"/>
<path d="M1050 740 c0 -5 5 -10 10 -10 6 0 10 5 10 10 0 6 -4 10 -10 10 -5 0
-10 -4 -10 -10z"/>
<path d="M710 709 c0 -5 5 -7 10 -4 6 3 10 8 10 11 0 2 -4 4 -10 4 -5 0 -10
-5 -10 -11z"/>
<path d="M705 640 c-3 -5 -1 -10 4 -10 6 0 11 5 11 10 0 6 -2 10 -4 10 -3 0
-8 -4 -11 -10z"/>
<path d="M735 640 c-3 -5 -1 -10 4 -10 6 0 11 5 11 10 0 6 -2 10 -4 10 -3 0
-8 -4 -11 -10z"/>
<path d="M765 480 c-3 -5 -1 -10 4 -10 6 0 11 5 11 10 0 6 -2 10 -4 10 -3 0
-8 -4 -11 -10z"/>
<path d="M790 459 c0 -5 5 -7 10 -4 6 3 10 8 10 11 0 2 -4 4 -10 4 -5 0 -10
-5 -10 -11z"/>
<path d="M1103 463 l-20 -58 -64 -3 c-35 -2 -68 -7 -73 -13 -6 -6 -5 -9 2 -9
10 0 40 -17 101 -57 2 -1 -4 -23 -13 -49 -9 -26 -14 -49 -12 -52 3 -2 22 8 43
22 20 14 42 26 47 26 5 0 31 -14 58 -31 27 -17 51 -29 54 -26 3 3 -2 29 -10
58 -9 29 -16 53 -16 54 0 1 23 16 51 33 56 36 57 54 1 47 -65 -8 -80 1 -97 61
-8 30 -20 54 -24 54 -5 0 -18 -26 -28 -57z m42 -25 c6 -25 4 -28 -18 -28 -24
0 -25 1 -14 35 11 38 22 36 32 -7z m-78 -63 c1 -5 -1 -16 -6 -24 -7 -11 -13
-10 -35 4 -14 10 -26 20 -26 24 0 10 63 7 67 -4z m103 -11 c13 -34 14 -31 -20
-49 -35 -18 -40 -18 -62 -1 -15 11 -16 18 -7 45 9 27 16 31 45 31 28 0 36 -5
44 -26z m90 21 c0 -2 -14 -12 -31 -21 -26 -13 -33 -13 -40 -3 -4 7 -5 17 -3
21 5 8 74 11 74 3z m-171 -89 c10 -12 8 -17 -9 -26 -26 -14 -34 -8 -25 19 7
25 18 27 34 7z m108 -21 c13 -41 11 -42 -28 -14 -24 17 -27 24 -18 35 19 23
35 16 46 -21z"/>
<path d="M1430 495 c0 -8 5 -15 10 -15 6 0 10 7 10 15 0 8 -4 15 -10 15 -5 0
-10 -7 -10 -15z"/>
<path d="M1397 134 c-8 -8 1 -24 14 -24 5 0 9 7 9 15 0 15 -12 20 -23 9z"/>
<path d="M1435 130 c-3 -5 1 -10 9 -10 9 0 16 5 16 10 0 6 -4 10 -9 10 -6 0
-13 -4 -16 -10z"/>
<path d="M1420 85 c0 -9 6 -12 15 -9 19 8 19 24 0 24 -8 0 -15 -7 -15 -15z"/>
<path d="M1443 56 c-13 -6 -23 -16 -23 -23 0 -18 17 -16 28 3 5 9 13 15 18 14
5 -1 10 3 12 9 4 13 -5 12 -35 -3z"/>
<path d="M1490 35 c0 -9 6 -12 15 -9 19 8 19 24 0 24 -8 0 -15 -7 -15 -15z"/>
</g>
</svg>
