<?xml version="1.0" standalone="no"?>
<!DOCTYPE svg PUBLIC "-//W3C//DTD SVG 20010904//EN"
 "http://www.w3.org/TR/2001/REC-SVG-20010904/DTD/svg10.dtd">
<svg version="1.0" xmlns="http://www.w3.org/2000/svg"
 width="214.000000pt" height="374.000000pt" viewBox="0 0 214.000000 374.000000"
 preserveAspectRatio="xMidYMid meet">
<metadata>
Created by potrace 1.16, written by Peter Selinger 2001-2019
</metadata>
<g transform="translate(0.000000,374.000000) scale(0.100000,-0.100000)"
fill="#000000" stroke="none">
<path d="M1868 3714 c-3 -2 -420 -4 -926 -4 l-922 0 -2 -333 c-1 -182 -2 -494
-3 -692 0 -198 -2 -880 -4 -1515 l-3 -1155 109 -2 c232 -4 913 -3 1438 3 l550
6 2 21 c1 26 12 1620 18 2782 2 457 1 845 -2 862 l-5 33 -123 -1 c-68 0 -125
-2 -127 -5z m-977 -25 c437 -1 887 2 1000 6 l207 8 5 -54 c6 -56 -1 -1723 -9
-2269 -2 -173 -4 -341 -4 -372 l0 -58 -87 -1 c-61 -1 -79 -4 -58 -9 17 -4 56
-5 88 -2 l57 5 0 -46 0 -45 -32 8 c-18 4 -53 16 -78 25 -25 9 -83 19 -130 21
-47 3 -105 6 -129 8 -28 3 -39 1 -30 -5 8 -5 37 -9 64 -10 l50 -2 -55 -6 c-30
-4 -65 -12 -77 -19 -13 -7 -34 -10 -48 -6 -14 3 -39 1 -56 -6 -41 -17 -48 -5
-9 15 18 9 30 19 27 22 -7 6 -100 -47 -110 -64 -4 -7 -27 -14 -50 -14 -39 -1
-40 -2 -12 -8 19 -5 -1 -7 -55 -7 -47 0 -76 2 -66 4 11 2 25 10 32 17 10 10
-6 13 -86 14 -57 1 -101 -3 -105 -9 -9 -15 -25 -12 -25 5 0 8 6 15 13 16 132
8 250 19 279 27 21 5 36 6 33 2 -3 -5 1 -11 7 -14 7 -3 -5 -3 -26 1 -26 4 -37
2 -32 -5 3 -6 -2 -13 -11 -15 -15 -4 -14 -5 3 -6 53 -3 273 95 274 122 0 4 -9
3 -21 -3 -36 -20 -32 -3 4 19 38 23 53 47 34 55 -9 3 -9 5 0 5 7 1 28 -15 48
-34 27 -27 40 -34 58 -29 13 3 41 -2 62 -10 52 -22 69 -18 20 5 -22 10 -54 19
-71 19 -20 0 -40 10 -59 30 -38 40 -74 40 -103 0 -13 -17 -28 -30 -35 -30 -7
0 -32 -14 -56 -30 -27 -19 -57 -30 -78 -30 -18 0 -49 -6 -67 -14 -18 -7 -82
-17 -143 -21 l-111 -7 -4 58 c-4 56 27 216 51 262 5 9 12 61 16 115 6 82 9 97
24 97 9 0 25 6 34 13 14 11 15 26 6 155 -12 172 -8 213 9 82 7 -52 18 -110 25
-128 9 -26 9 -37 -2 -53 -16 -27 -5 -38 16 -16 16 15 16 20 1 69 -9 29 -21 98
-28 153 -6 55 -17 132 -23 170 -7 39 -10 117 -9 175 2 58 3 137 4 176 0 65 2
71 19 67 27 -7 24 14 -3 23 -20 6 -20 8 -5 19 19 14 22 40 7 50 -18 11 -11 23
10 18 22 -6 29 21 8 31 -10 5 -10 7 0 12 10 5 10 10 -4 25 -16 17 -16 19 -1
19 20 0 23 16 5 23 -10 3 -10 7 -2 18 6 8 17 36 24 62 7 27 19 51 26 54 8 3
11 9 9 14 -3 5 7 11 22 14 15 4 38 10 51 15 18 8 22 6 22 -10 0 -15 -7 -20
-26 -20 -19 0 -25 -4 -20 -15 3 -8 -3 -19 -12 -25 -15 -9 -15 -10 4 -16 19 -5
21 -11 17 -52 -10 -113 -25 -172 -49 -191 -13 -10 -24 -26 -24 -34 0 -9 -8
-21 -17 -26 -16 -9 -16 -10 -1 -11 9 0 25 15 37 33 11 17 28 42 37 54 14 19
32 136 38 246 0 15 7 27 14 27 19 0 25 25 12 50 -10 18 -7 27 15 56 14 19 35
34 46 34 27 0 59 18 59 33 0 7 9 23 20 37 22 28 27 86 8 94 -9 3 -8 8 4 16 35
22 68 94 68 149 0 122 -84 204 -209 203 -141 -1 -232 -147 -172 -277 10 -22
28 -48 39 -59 l21 -19 -32 -37 c-18 -21 -43 -70 -57 -109 -13 -39 -26 -71 -27
-71 -2 0 -18 10 -36 22 l-33 21 0 126 c0 69 -5 165 -11 213 -9 74 -15 93 -42
127 -48 61 -144 88 -247 70 -27 -5 -67 -11 -89 -13 -22 -2 -58 -10 -80 -19
-22 -9 -54 -16 -71 -17 -56 0 -90 -19 -108 -57 -15 -32 -16 -39 -3 -48 9 -6
13 -28 13 -61 -1 -62 22 -94 67 -94 29 0 30 1 24 43 -4 23 -9 54 -13 70 -3 15
-2 27 3 27 5 0 15 -30 23 -67 9 -45 16 -61 19 -48 4 13 16 21 34 22 44 3 59
21 55 65 -2 21 0 38 5 38 5 0 6 11 3 24 -8 31 2 56 19 50 7 -3 18 7 26 25 13
30 25 36 93 46 43 7 140 -11 178 -33 35 -20 61 -69 56 -107 -5 -47 -34 -40
-30 7 2 31 0 37 -13 32 -10 -4 -15 0 -16 12 -1 11 -5 3 -9 -16 l-7 -35 -2 38
c-1 45 -20 50 -23 5 l-1 -33 -4 33 c-5 40 -23 42 -23 2 0 -16 -4 -30 -8 -30
-5 0 -7 13 -4 29 2 16 -1 32 -7 35 -6 4 -11 0 -12 -11 0 -16 -1 -16 -9 2 -7
17 -9 15 -9 -12 -1 -31 -4 -33 -34 -33 -25 0 -41 -8 -60 -30 -15 -16 -34 -30
-42 -30 -15 0 -45 -49 -45 -75 0 -8 -7 -15 -15 -15 -8 0 -15 -4 -15 -10 0 -5
7 -10 15 -10 8 0 15 -4 15 -10 0 -15 -16 -12 -30 5 -9 11 -17 12 -31 4 -15 -8
-19 -6 -19 6 0 28 -19 6 -26 -30 -3 -20 -12 -35 -20 -35 -8 0 -14 5 -14 11 0
5 -4 7 -10 4 -5 -3 -10 -13 -10 -21 0 -22 48 -17 60 6 l11 21 26 -21 c14 -11
36 -20 49 -20 13 0 24 -5 24 -11 0 -16 29 -41 40 -34 5 3 10 2 10 -4 0 -5 -5
-13 -11 -17 -6 -3 -9 -17 -6 -29 4 -23 3 -23 -21 -7 -21 13 -31 14 -71 3 -67
-18 -96 -50 -112 -124 -7 -34 -12 -69 -11 -77 1 -8 2 -92 2 -186 -1 -141 2
-173 15 -184 9 -8 13 -21 9 -36 -4 -14 -1 -31 6 -39 7 -9 10 -18 7 -22 -4 -3
-2 -12 4 -20 7 -7 13 -29 15 -48 4 -46 10 -55 39 -55 22 0 24 4 30 86 4 47 5
116 1 153 l-6 66 19 -48 c11 -27 31 -63 44 -81 34 -44 45 -101 24 -124 -9 -10
-16 -26 -15 -37 1 -11 -18 -63 -42 -115 -23 -52 -57 -135 -75 -185 -53 -145
-65 -169 -77 -157 -7 7 0 35 25 94 19 46 47 112 62 148 27 67 53 120 88 179
12 19 16 31 10 28 -21 -13 -88 -141 -123 -232 -18 -49 -46 -116 -62 -147 -29
-59 -29 -82 0 -92 9 -3 22 -9 29 -12 7 -3 10 2 6 14 -2 10 7 47 21 82 14 35
26 68 26 73 0 23 125 299 137 304 25 10 23 -2 -10 -67 -80 -159 -186 -457
-171 -481 3 -6 14 -9 24 -6 11 3 20 -2 23 -12 2 -9 22 -23 44 -30 l40 -13 -2
-123 c-3 -122 -9 -145 -55 -215 -6 -8 -15 -26 -21 -40 -6 -14 -19 -41 -30 -60
-10 -19 -19 -54 -19 -77 l0 -43 -40 0 c-47 0 -51 13 -15 46 24 22 26 28 19 86
-12 110 -46 156 -103 141 -12 -3 -27 0 -35 6 -7 6 -34 10 -60 10 -36 -2 -51 3
-67 19 -22 25 -49 28 -82 10 -20 -10 -51 -15 -124 -17 -15 -1 -27 -12 -40 -39
-20 -42 -41 -67 -50 -58 -6 6 -5 1029 2 1656 2 162 4 442 4 622 l1 327 23 3
c12 2 25 3 28 1 4 -2 364 -4 800 -4z m-145 -422 l-38 -32 9 -73 c16 -122 -13
-91 -33 35 -7 49 4 69 51 89 48 21 51 16 11 -19z m809 7 c86 -40 121 -162 72
-249 -25 -44 -103 -94 -140 -89 -79 11 -100 18 -127 41 -112 94 -84 254 55
310 38 16 91 11 140 -13z m-875 -12 c0 -4 -5 -13 -10 -18 -8 -8 -8 -25 -1 -55
6 -24 11 -64 11 -88 l0 -44 -19 25 c-30 38 -36 74 -17 103 20 30 3 34 -17 4
-9 -12 -18 -16 -21 -10 -4 5 3 19 16 30 12 12 19 24 15 27 -4 4 -15 0 -25 -9
-10 -9 -27 -14 -39 -11 -15 4 -23 0 -28 -15 -3 -12 -11 -21 -17 -21 -5 0 -1
15 9 33 16 27 25 32 63 35 25 2 49 7 55 13 11 11 25 12 25 1z m387 -94 c-3 -8
-6 -5 -6 6 -1 11 2 17 5 13 3 -3 4 -12 1 -19z m-483 -60 c-1 -40 -3 -75 -3
-77 -1 -2 -10 4 -21 14 -24 22 -27 81 -4 113 8 12 18 22 22 22 4 0 6 -33 6
-72z m448 36 c24 -12 27 -18 17 -30 -7 -8 -9 -28 -6 -48 4 -28 3 -34 -9 -29
-8 3 -14 0 -14 -6 0 -10 22 -16 44 -12 10 2 -1 -65 -15 -90 -7 -14 -15 -15
-51 -7 -24 5 -47 13 -52 19 -12 11 -26 12 -26 0 0 -4 18 -20 40 -35 39 -25 52
-57 30 -71 -5 -3 -10 -15 -10 -26 0 -10 -4 -19 -10 -19 -5 0 -10 11 -10 24 0
26 -52 66 -84 66 -14 0 -16 6 -10 35 4 24 1 43 -10 60 -18 27 -9 68 18 78 9 4
16 17 16 29 0 39 11 67 28 70 45 9 88 5 114 -8z m114 -232 c-2 -71 -9 -110
-20 -127 -9 -13 -16 -33 -16 -43 0 -45 -80 -73 -147 -52 -21 7 -66 30 -101 52
-71 46 -135 59 -167 34 -19 -15 -18 -15 15 -10 19 4 37 7 40 6 28 0 43 -6 76
-29 77 -52 131 -73 193 -73 55 0 61 3 89 34 16 19 32 40 34 48 4 11 9 11 31
-1 34 -18 30 -49 -13 -98 -46 -52 -81 -66 -117 -48 -16 8 -34 15 -41 15 -6 0
-11 5 -10 12 3 12 -83 60 -92 51 -5 -4 5 -13 55 -49 17 -12 18 -16 5 -24 -9
-6 -20 -5 -29 3 -11 9 -15 9 -18 0 -3 -7 -9 -13 -14 -13 -4 0 -6 7 -3 15 4 8
3 15 -1 15 -10 0 -44 -43 -45 -56 0 -14 45 -38 58 -30 5 3 13 -4 17 -17 6 -19
8 -20 12 -4 5 20 -14 50 -27 42 -11 -7 -40 5 -40 16 0 5 19 6 41 4 24 -3 47
-1 55 6 8 7 28 9 50 4 31 -5 35 -9 32 -30 -3 -14 0 -26 8 -29 23 -9 16 -22
-21 -36 -31 -12 -48 -31 -27 -30 22 2 77 38 74 50 -2 8 2 24 9 37 11 21 13 21
25 5 12 -15 13 -14 14 9 0 29 73 119 96 119 7 0 20 -10 28 -22 14 -20 14 -25
1 -45 -8 -12 -15 -29 -15 -36 0 -8 -9 -22 -20 -32 -11 -10 -20 -23 -20 -30 0
-7 -9 -20 -20 -30 -11 -10 -20 -22 -20 -27 0 -4 9 -8 20 -8 27 0 25 -12 -9
-49 -19 -20 -39 -31 -57 -31 -22 0 -25 3 -16 12 7 7 12 17 12 22 -1 6 -14 -5
-31 -24 -29 -34 -31 -35 -112 -36 -97 -2 -118 2 -111 21 6 14 -41 85 -56 85
-4 0 -10 -10 -14 -22 -6 -25 28 -63 46 -52 10 6 2 -50 -9 -69 -7 -11 -25 3
-20 16 5 15 -20 67 -32 67 -5 0 -12 11 -15 24 -3 13 -26 45 -51 70 -25 26 -45
53 -45 61 0 8 -2 15 -4 15 -2 0 -11 3 -19 6 -12 4 -14 -6 -11 -58 10 -185 7
-244 -11 -227 -2 3 -5 68 -5 145 -1 128 8 194 27 194 5 0 8 13 9 30 1 16 -3
27 -7 24 -5 -3 -9 -14 -9 -24 0 -21 -16 -35 -24 -22 -19 31 57 177 98 188 29
7 120 -22 166 -53 19 -13 48 -23 65 -23 16 0 37 -5 45 -11 12 -8 9 -9 -12 -5
-30 7 -39 -8 -12 -18 30 -12 74 -7 74 9 0 18 -31 35 -63 35 -29 0 -93 25 -102
40 -9 14 -1 13 42 -9 33 -17 81 -25 135 -22 24 1 56 77 62 146 2 33 5 63 5 68
1 4 7 6 14 5 15 -4 16 24 1 29 -16 5 -34 -42 -35 -90 -1 -54 -11 -89 -27 -95
-8 -2 -7 7 4 33 8 20 12 45 9 56 -8 25 12 87 39 120 l21 26 8 -26 c4 -14 6
-72 3 -129z m-378 60 c5 -17 -9 -14 -38 8 l-25 19 29 -7 c16 -5 31 -13 34 -20z
m586 -44 c-4 -7 -14 -21 -22 -30 -32 -38 6 -56 48 -23 8 6 33 22 55 35 l40 23
-45 -46 c-24 -26 -38 -47 -31 -47 6 0 9 -4 6 -10 -3 -5 -2 -10 3 -10 25 0 3
-35 -42 -68 -28 -20 -54 -40 -57 -45 -4 -5 -20 -2 -37 8 -28 17 -29 20 -19 49
6 17 16 42 24 56 7 14 13 30 13 37 0 7 14 28 31 48 31 35 46 46 33 23z m66 -7
c0 -8 -67 -51 -80 -51 -6 0 1 15 15 34 18 24 31 32 45 29 11 -3 20 -8 20 -12z
m138 -31 c-18 -23 -45 -43 -60 -46 -15 -4 -35 -15 -45 -26 -18 -20 -18 -20 27
-13 50 8 80 21 80 35 0 5 -12 2 -27 -6 -16 -7 -35 -14 -43 -13 -8 0 -4 5 10
10 14 6 41 24 60 42 19 18 27 23 17 11 -20 -24 -22 -39 -5 -28 7 4 3 -8 -8
-27 -16 -26 -28 -35 -59 -40 -22 -4 -41 -11 -43 -17 -2 -6 -13 -26 -25 -44
-17 -25 -31 -34 -57 -36 l-35 -3 23 21 c24 23 29 35 10 25 -7 -4 2 7 21 23 33
28 49 62 30 62 -6 0 -8 4 -4 10 3 5 11 8 18 6 7 -1 8 -1 4 2 -10 5 32 52 46
52 6 0 2 -9 -8 -20 -17 -18 -17 -20 -1 -20 9 0 36 18 59 40 23 22 43 40 45 40
2 0 -12 -18 -30 -40z m-101 -16 c-21 -20 -41 -34 -45 -30 -8 9 53 66 70 66 7
0 -4 -16 -25 -36z m-406 -1 c-8 -15 -10 -15 -11 -2 0 17 10 32 18 25 2 -3 -1
-13 -7 -23z m-133 -29 c12 -8 22 -24 22 -35 0 -20 -1 -20 -24 -6 -13 9 -38 20
-57 24 -37 10 -49 29 -22 36 23 6 52 -1 81 -19z m99 -41 c-9 -9 -19 -14 -23
-11 -10 10 6 28 24 28 15 0 15 -1 -1 -17z m243 -98 c16 -8 34 -24 40 -34 17
-34 11 -34 -19 -2 -16 17 -36 31 -44 31 -9 0 -19 5 -22 10 -9 15 12 12 45 -5z
m77 -10 c-7 -13 -14 -20 -15 -14 -5 14 6 39 17 39 5 0 4 -11 -2 -25z m-47 -72
c0 -5 -18 -42 -39 -85 -21 -42 -33 -74 -27 -72 11 4 13 -194 2 -223 -3 -7 -1
-22 6 -32 6 -11 8 -33 4 -55 l-7 -38 -80 4 c-89 4 -94 7 -104 76 -9 58 -20 45
-16 -19 2 -47 1 -50 -17 -40 -21 11 -70 171 -58 190 4 6 21 11 38 11 17 0 51
7 77 15 25 8 59 17 74 20 34 7 69 59 60 92 -3 15 1 31 12 43 10 11 16 23 13
26 -3 3 5 17 18 31 13 14 24 34 24 44 0 11 5 19 10 19 6 0 10 -3 10 -7z m-578
-160 c15 -15 28 -35 28 -44 0 -10 6 -22 14 -26 19 -11 36 -48 36 -77 0 -33 22
-34 48 -1 16 20 29 25 65 25 41 0 44 -2 40 -23 -2 -12 5 -55 16 -94 11 -40 16
-75 11 -78 -8 -5 -26 36 -55 130 l-15 50 4 -46 c3 -26 12 -65 19 -88 25 -72 1
-44 -31 37 -17 42 -31 69 -32 60 0 -10 9 -41 20 -69 12 -28 19 -53 17 -55 -2
-2 -16 13 -30 33 -15 21 -27 32 -27 26 0 -7 5 -15 10 -18 6 -3 10 -11 10 -17
0 -6 -9 -3 -20 7 -11 10 -20 14 -20 10 0 -12 -40 26 -53 50 -6 11 -26 63 -44
115 l-34 95 8 -100 c11 -137 10 -228 -2 -232 -6 -2 -11 48 -12 135 -1 75 -5
156 -8 180 -3 23 -3 42 1 42 5 0 21 -12 36 -27z m108 -43 c0 -5 -4 -10 -10
-10 -5 0 -10 5 -10 10 0 6 5 10 10 10 6 0 10 -4 10 -10z m-170 -201 c0 -11 -4
-18 -10 -14 -5 3 -7 12 -3 20 7 21 13 19 13 -6z m20 -86 c0 -45 -5 -40 -13 10
-3 22 -2 35 4 32 5 -4 9 -22 9 -42z m245 3 c28 -9 59 -16 69 -16 23 0 130 -49
123 -57 -6 -5 -135 35 -152 47 -5 4 -36 15 -67 24 -32 9 -58 21 -58 26 0 6 7
7 18 1 9 -5 40 -16 67 -25z m-20 -22 c22 -8 65 -23 95 -33 30 -11 78 -29 105
-42 41 -18 46 -23 28 -26 -12 -3 -43 5 -69 16 -28 13 -68 21 -100 21 -57 0
-154 19 -154 31 0 4 7 9 15 13 8 3 15 12 15 21 0 19 14 18 65 -1z m303 -20
c23 -5 28 -20 12 -44 -8 -12 -13 -13 -27 -2 -10 7 -37 21 -60 32 -24 11 -43
22 -43 24 0 6 73 -1 118 -10z m-338 -59 c0 -3 -11 -22 -24 -43 -28 -42 -126
-305 -151 -403 -23 -92 -24 -94 -36 -82 -28 28 163 533 201 533 5 0 10 -2 10
-5z m40 -22 c0 -10 -9 -56 -21 -103 -17 -73 -72 -332 -86 -412 -6 -33 -34 -41
-80 -22 -33 14 -35 17 -28 52 11 66 104 340 105 312 0 -3 -7 -26 -15 -52 -8
-27 -10 -48 -6 -48 5 0 16 30 25 66 19 74 84 224 97 224 5 0 9 -8 9 -17z m108
5 c6 -65 1 -141 -18 -238 -17 -86 -20 -118 -11 -132 13 -20 -14 -156 -34 -173
-7 -6 -15 -20 -19 -31 -8 -26 -61 -38 -78 -17 -6 7 -18 12 -27 11 -22 -4 -20
38 13 196 39 187 67 296 76 291 4 -3 11 12 15 32 4 21 11 46 16 55 11 21 65
25 67 6z m65 -14 c43 -14 47 -19 47 -47 3 -234 -5 -530 -15 -564 -2 -7 -13 -9
-26 -6 -22 6 -22 8 -15 127 12 220 14 245 21 256 3 5 1 10 -4 10 -6 0 -11 -10
-12 -22 0 -13 -4 -32 -8 -43 -15 -36 0 209 15 250 5 14 4 17 -4 10 -16 -15
-32 -128 -32 -230 0 -49 -4 -126 -10 -170 -21 -176 -21 -181 -10 -160 l10 20
-3 -20 c-1 -11 -5 -18 -8 -15 -3 3 -13 -1 -22 -8 -41 -35 -45 21 -12 168 25
109 43 240 33 246 -5 3 -5 11 1 18 6 7 15 45 21 85 8 61 8 75 -5 87 -28 28
-24 29 38 8z m157 6 c0 -5 -4 -10 -10 -10 -5 0 -10 5 -10 10 0 6 5 10 10 10 6
0 10 -4 10 -10z m-23 -50 c13 -10 20 -21 16 -23 -4 -3 -7 -116 -7 -252 2 -181
-1 -245 -10 -242 -8 3 -10 73 -8 258 2 140 1 251 -3 247 -5 -4 -10 -119 -12
-254 -4 -239 -10 -290 -36 -281 -9 3 -12 79 -12 291 l0 287 24 -6 c13 -3 35
-15 48 -25z m40 -152 c-3 -7 -5 -2 -5 12 0 14 2 19 5 13 2 -7 2 -19 0 -25z m3
-313 c3 -45 1 -57 -10 -50 -6 4 -9 68 -8 163 l1 157 7 -120 c4 -66 9 -133 10
-150z m-413 -89 c21 -3 53 -4 70 -3 24 2 34 -2 38 -14 3 -9 12 -20 19 -22 21
-8 -29 -148 -76 -217 -24 -34 -37 -62 -34 -74 6 -22 -24 -85 -50 -107 -18 -14
-20 -15 -71 -17 -25 -2 -31 -6 -26 -18 4 -10 14 -14 27 -11 12 3 37 8 56 12
l35 8 -24 -27 c-27 -29 -18 -36 12 -8 19 17 19 16 6 -7 -27 -46 -139 -74 -139
-35 0 8 -4 14 -10 14 -5 0 -10 4 -10 10 0 5 7 7 15 4 8 -4 15 -1 15 5 0 6 -6
11 -12 11 -9 0 -8 4 2 10 10 6 11 10 3 10 -7 0 -13 5 -13 11 0 5 3 8 8 6 4 -3
7 16 8 41 1 47 12 76 59 162 21 38 24 59 25 135 0 50 3 108 7 129 5 33 7 36
14 19 5 -15 19 -23 46 -27z m342 -78 c-3 -46 -15 -110 -26 -143 -11 -33 -28
-100 -39 -148 l-19 -88 -50 7 c-27 3 -58 10 -67 15 -37 19 -36 114 0 165 23
33 37 84 23 84 -5 0 -13 18 -19 41 -12 47 7 109 33 109 9 0 18 7 22 16 4 12 8
13 14 3 11 -18 52 -22 64 -5 6 8 22 16 35 19 14 2 27 5 30 6 3 0 2 -36 -1 -81z
m-200 -125 c1 -20 -37 -130 -60 -175 -13 -25 -11 -102 2 -115 19 -19 1 -31
-46 -31 -41 0 -57 9 -37 22 5 3 14 38 21 78 12 71 33 137 52 168 6 8 20 37 32
63 17 38 23 44 28 30 4 -10 8 -28 8 -40z m-635 -43 c13 0 17 -5 13 -19 -3 -12
3 -27 13 -36 31 -28 13 -104 -25 -105 -13 0 -37 74 -30 93 8 18 -33 68 -52 65
-9 -2 -18 2 -20 8 -2 7 9 9 29 7 18 -1 27 0 21 3 -7 3 -13 11 -13 17 0 6 10 1
23 -11 13 -12 31 -22 41 -22z m-122 -2 c-19 -19 -14 -26 13 -20 13 2 32 1 41
-2 15 -6 14 -9 -5 -25 -28 -25 -27 -37 3 -18 23 16 23 16 22 -24 0 -21 -5 -39
-11 -39 -5 0 -3 -5 5 -10 27 -17 -3 -33 -48 -25 -49 8 -86 40 -79 67 4 14 0
22 -14 25 -10 3 -16 9 -13 14 2 5 -3 20 -12 34 -9 14 -14 25 -10 25 13 0 56
-45 56 -58 0 -22 13 -5 15 18 1 11 -3 20 -9 20 -12 0 34 27 49 29 5 1 4 -4 -3
-11z m207 -12 c6 -7 8 -22 4 -31 -4 -12 -3 -16 5 -11 6 3 23 -5 39 -20 19 -17
24 -27 16 -31 -7 -2 -13 -14 -13 -26 0 -48 -11 -64 -42 -65 -27 -1 -30 2 -25
24 2 13 0 24 -4 24 -5 0 -9 -4 -9 -10 0 -5 -4 -10 -9 -10 -6 0 -3 12 5 28 18
34 17 62 -1 86 -10 13 -11 24 -4 37 12 23 22 24 38 5z m111 -21 c6 -8 9 -19 5
-25 -3 -5 0 -13 8 -16 15 -5 18 -56 4 -70 -13 -14 -8 -36 8 -30 19 7 20 -27 2
-43 -11 -8 -19 -6 -35 8 -25 21 -41 81 -23 81 20 0 11 46 -14 70 -19 18 -22
26 -13 32 20 12 44 9 58 -7z m-430 -29 c0 -3 -4 -8 -10 -11 -5 -3 -10 -1 -10
4 0 6 5 11 10 11 6 0 10 -2 10 -4z m-32 -52 c-9 -9 -22 -14 -30 -11 -8 3 -4 8
12 15 35 15 37 14 18 -4z m62 -8 c0 -7 7 -19 15 -26 8 -7 15 -20 15 -29 -1
-15 -2 -15 -13 0 -7 9 -22 19 -35 23 -24 8 -30 31 -9 39 21 9 27 7 27 -7z
m1510 -26 c0 -6 -16 -20 -36 -32 -22 -13 -31 -24 -24 -28 15 -9 -2 -22 -67
-50 -53 -23 -83 -20 -60 5 7 7 16 9 22 5 6 -5 17 -5 25 0 8 6 11 10 5 10 -5 0
18 18 52 40 34 22 64 44 68 50 8 13 15 13 15 0z m-1575 -10 c-11 -5 -14 -9 -7
-9 6 -1 12 -5 12 -11 0 -14 -27 -1 -34 16 -4 10 2 14 22 13 24 0 25 -1 7 -9z
m295 -14 c0 -3 -4 -8 -10 -11 -5 -3 -10 -1 -10 4 0 6 5 11 10 11 6 0 10 -2 10
-4z m-235 -24 c-3 -3 -11 0 -18 7 -9 10 -8 11 6 5 10 -3 15 -9 12 -12z m-55
-8 c30 -12 40 -22 40 -39 0 -20 -6 -23 -45 -27 l-45 -3 0 42 c0 24 2 43 5 43
2 0 23 -7 45 -16z m914 -3 c21 -7 58 -11 82 -8 49 5 56 1 22 -13 -20 -8 -21
-9 -4 -9 20 -1 20 -1 0 -17 -10 -8 -13 -13 -6 -9 6 3 12 1 12 -4 0 -6 -9 -11
-19 -11 -11 0 -21 -5 -23 -11 -7 -20 -71 8 -104 43 -16 18 -21 26 -11 19 21
-17 22 -4 1 20 -18 20 -10 20 50 0z m-796 -29 c2 -15 -2 -22 -12 -22 -11 0
-16 9 -16 26 0 31 23 28 28 -4z m140 0 c-5 -27 -28 -26 -28 2 0 19 4 24 15 19
9 -3 15 -12 13 -21z m75 2 c8 -8 -3 -34 -14 -34 -5 0 -9 9 -9 20 0 19 11 26
23 14z m1587 -59 c19 -8 46 -16 60 -17 18 -2 26 -10 28 -28 2 -24 2 -24 -12
-7 -11 15 -22 17 -46 12 -22 -5 -30 -3 -28 6 4 16 -58 48 -94 49 -16 0 -28 4
-28 9 0 11 70 -3 120 -24z m-646 14 c-11 -4 -62 -7 -114 -7 -83 1 -88 2 -35 7
88 9 171 8 149 0z m-1106 -6 c-10 -2 -28 -2 -40 0 -13 2 -5 4 17 4 22 1 32 -1
23 -4z m107 -9 c20 -15 20 -16 -4 -12 -14 2 -26 9 -29 16 -5 16 9 15 33 -4z
m1415 5 c0 -8 5 -8 15 1 16 14 129 6 155 -10 20 -13 -23 -13 -66 -1 -22 6 -52
3 -105 -10 -41 -11 -56 -17 -34 -15 35 4 38 3 23 -8 -27 -20 -22 -26 20 -27
l37 -2 -40 -7 c-35 -6 -36 -7 -10 -8 17 -1 55 5 85 13 56 15 191 20 140 5 -53
-15 -70 -23 -70 -30 0 -10 38 -1 46 11 3 5 26 8 52 7 37 -1 40 -2 15 -5 -49
-6 -40 -19 11 -15 l43 4 2 -66 c1 -36 -2 -66 -6 -66 -4 0 -18 -3 -30 -6 -18
-5 -23 -2 -23 14 0 15 8 22 28 25 21 3 19 4 -11 6 -24 0 -40 -4 -43 -13 -8
-21 -44 -7 -44 16 0 17 -4 19 -27 14 -16 -4 -44 -9 -63 -11 -19 -2 -50 -7 -67
-10 -18 -3 -33 -2 -33 3 0 11 -96 8 -122 -3 -11 -4 -18 -3 -18 4 0 19 -29 12
-40 -9 -11 -20 -44 -27 -54 -11 -3 4 -29 11 -57 14 -28 4 -61 13 -73 20 -11 8
-33 17 -48 21 -16 3 -28 11 -28 18 0 14 267 3 285 -12 8 -6 80 -10 181 -10 93
1 194 -1 224 -5 36 -3 48 -2 35 3 -11 5 -69 13 -130 17 -85 7 -102 10 -72 15
58 11 53 17 -20 22 -112 9 -258 10 -249 1 4 -4 48 -9 98 -9 68 -1 94 -6 106
-18 15 -15 10 -16 -61 -16 -45 0 -77 4 -77 10 0 6 -26 10 -59 10 -33 0 -62 4
-65 9 -4 5 3 7 14 4 15 -4 19 -2 14 10 -4 12 3 17 28 21 18 3 40 5 48 4 49 -5
100 3 100 16 0 18 -34 26 -68 16 -39 -13 -167 -40 -185 -40 -8 0 -17 7 -21 15
-4 10 1 15 14 15 11 0 20 7 20 15 0 8 6 15 13 16 6 0 31 2 55 4 24 2 40 -1 36
-6 -3 -5 -12 -9 -21 -9 -9 0 -13 -3 -10 -7 4 -3 22 1 39 9 79 38 105 47 136
47 17 1 32 -4 32 -10z m-1532 -15 c29 -3 81 -14 115 -25 70 -24 100 -44 52
-36 -89 16 -105 17 -105 7 0 -5 5 -10 12 -10 8 0 8 -3 2 -9 -5 -5 -56 -11
-114 -14 -58 -2 -105 -8 -105 -13 0 -5 20 -15 44 -23 46 -15 41 -31 -12 -31
-16 0 -26 -4 -22 -10 3 -5 -3 -10 -14 -10 -12 0 -21 -4 -21 -8 0 -5 18 -8 41
-8 27 1 44 7 50 19 6 9 19 17 29 17 11 0 20 6 20 14 0 8 6 17 13 20 6 3 -5 4
-25 1 -20 -3 -39 -1 -42 4 -8 12 51 20 136 18 52 -2 68 1 68 12 0 11 11 12 51
8 46 -6 50 -5 44 13 -8 24 -6 24 31 6 16 -8 48 -16 72 -17 48 -3 50 -9 22 -67
-22 -46 -24 -52 -12 -52 7 0 57 114 76 172 5 18 36 15 36 -3 0 -5 7 -9 15 -9
9 0 12 -6 9 -15 -4 -10 0 -15 12 -15 15 0 16 -2 5 -9 -8 -5 -12 -18 -8 -30 4
-15 -1 -26 -13 -34 -15 -8 -16 -14 -8 -25 9 -11 6 -12 -18 -7 l-29 7 29 -24
c18 -15 26 -29 22 -37 -5 -8 -14 -4 -28 14 -10 14 -29 25 -41 25 -18 0 -19 -2
-7 -10 8 -5 11 -12 7 -16 -4 -4 0 -16 10 -26 9 -10 11 -18 5 -18 -6 0 -14 5
-17 10 -8 14 -42 13 -51 -2 -4 -6 2 -17 12 -25 19 -14 19 -14 0 -29 -11 -8
-23 -14 -28 -14 -4 0 -8 -7 -8 -15 0 -8 6 -15 14 -15 8 0 13 -7 12 -16 -2 -25
24 -29 31 -6 3 13 11 18 19 15 8 -3 14 0 14 7 0 6 5 8 10 5 6 -3 10 -1 10 5 0
7 -7 10 -15 7 -8 -4 -17 -2 -20 3 -7 11 43 70 61 70 19 0 30 27 37 90 3 30 13
70 23 89 16 32 19 33 58 28 23 -3 57 -13 76 -22 21 -10 25 -13 10 -10 -56 15
-83 15 -37 0 37 -12 52 -13 69 -4 19 10 20 9 13 -7 -4 -11 -9 -49 -10 -86 -2
-37 -6 -75 -8 -85 -3 -10 -8 -40 -12 -67 -5 -40 -3 -48 9 -43 8 3 17 1 19 -6
3 -9 8 -8 20 2 15 11 22 11 48 -1 25 -13 27 -16 13 -22 -9 -3 -23 -1 -31 5
-11 9 -19 7 -38 -11 -22 -21 -23 -25 -10 -40 18 -20 19 -30 2 -30 -7 0 -19 16
-26 35 -7 19 -16 35 -21 35 -4 0 -7 8 -6 18 2 29 -47 22 -54 -8 -4 -16 -14
-26 -28 -28 -14 -2 -22 -10 -22 -23 0 -10 -4 -19 -10 -19 -13 0 -13 37 1 45 7
5 3 14 -10 26 -26 25 -28 24 -36 -8 -3 -15 -12 -32 -18 -36 -8 -6 -6 -7 5 -3
19 6 33 -8 23 -24 -5 -8 -11 -7 -21 1 -8 6 -21 8 -31 4 -18 -8 -37 -8 -61 0
-9 4 -10 10 -3 24 8 14 7 22 -6 32 -15 12 -16 12 -10 -3 3 -10 2 -20 -3 -23
-6 -4 -10 -1 -10 4 0 6 -5 11 -10 11 -6 0 -8 -12 -5 -27 5 -27 5 -27 -6 -5
-13 24 -32 31 -23 7 7 -18 -7 -20 -25 -2 -10 10 -12 8 -9 -8 3 -17 -22 -55
-37 -55 -3 0 -3 16 0 35 2 19 0 35 -4 35 -12 0 -23 -29 -15 -41 3 -5 1 -9 -5
-9 -13 0 -24 37 -15 52 5 8 2 9 -9 5 -20 -8 -21 2 -3 26 11 14 18 16 41 7 15
-6 30 -8 33 -5 4 3 -4 8 -16 12 -12 3 -22 9 -22 14 0 18 63 124 81 137 11 7
19 18 19 24 0 7 -13 -1 -29 -16 -16 -15 -33 -28 -38 -28 -4 1 -7 -6 -5 -14 5
-24 -17 -43 -49 -42 -33 1 -38 21 -13 53 16 20 16 20 10 -1 -5 -15 -2 -24 9
-28 16 -6 19 12 9 52 -5 16 -14 22 -35 22 -18 0 -32 7 -39 20 -8 14 -8 20 0
20 6 0 8 5 4 11 -4 8 0 9 15 4 12 -4 21 -2 21 4 0 6 -15 14 -32 19 -27 7 -37
5 -55 -12 -26 -24 -30 -53 -8 -53 8 0 15 7 16 16 1 22 17 -17 18 -43 1 -13 -2
-16 -11 -9 -19 15 -78 24 -78 13 0 -5 12 -13 28 -16 45 -11 73 -44 36 -44 -15
0 -15 -2 0 -25 20 -30 20 -36 1 -29 -16 7 -21 -11 -6 -20 5 -3 7 -15 4 -27 -4
-14 -9 -17 -16 -10 -27 27 -81 -5 -58 -33 15 -18 3 -26 -46 -28 -21 -1 -32 -3
-25 -6 6 -2 12 -10 12 -17 0 -12 27 -30 43 -27 4 1 7 -3 7 -9 0 -17 -60 -2
-76 19 -22 29 -17 50 16 57 38 8 40 30 2 22 -35 -7 -57 6 -49 27 8 21 -19 34
-36 17 -8 -8 -8 -14 1 -23 18 -18 15 -27 -8 -21 -26 7 -37 43 -16 55 39 22 8
78 -42 78 -15 0 -19 5 -15 19 3 12 11 17 19 14 8 -3 14 0 14 6 0 7 -7 14 -15
17 -18 7 -20 34 -2 35 9 0 9 2 0 6 -9 3 -13 28 -13 73 l0 67 59 7 c69 8 106
35 50 37 -32 1 -32 2 -9 9 14 4 32 6 40 3 8 -3 39 -7 68 -9z m690 -6 c-3 -21
-8 -23 -73 -24 l-70 -1 63 4 c35 2 62 9 62 15 0 7 -21 9 -60 6 -33 -2 -57 -1
-53 3 10 9 47 16 96 18 34 1 38 -1 35 -21z m132 -3 c18 -2 24 -8 23 -21 -1
-11 -8 -58 -15 -106 -11 -86 -11 -88 11 -112 13 -13 37 -30 54 -36 51 -18 137
-64 137 -72 0 -5 -11 -8 -25 -8 -16 0 -25 6 -25 15 0 15 -22 20 -68 16 -13 -1
-30 3 -38 10 -11 9 -14 8 -14 -5 0 -9 -4 -16 -10 -16 -13 0 -13 6 2 30 7 10 9
22 5 26 -8 8 -39 -15 -33 -25 3 -4 1 -13 -5 -21 -7 -13 -9 -12 -9 3 0 24 -38
22 -65 -3 -32 -30 -59 -17 -51 23 4 17 12 35 19 39 9 6 8 8 -3 9 -11 0 -9 3 4
8 17 7 17 8 2 24 -10 9 -13 17 -8 17 13 0 10 33 -3 42 -6 5 -5 8 4 8 8 0 11 7
8 20 -4 17 -2 20 16 16 13 -4 9 0 -8 9 -27 13 -28 14 -7 15 13 0 20 4 17 10
-3 6 -1 10 4 10 19 0 12 29 -9 40 -11 6 -20 15 -20 21 0 6 7 3 16 -5 10 -11
24 -14 42 -10 38 9 38 10 -13 24 -57 16 -59 31 -2 18 23 -5 53 -11 67 -13z
m-1005 5 c3 -5 -1 -10 -10 -10 -9 0 -13 5 -10 10 3 6 8 10 10 10 2 0 7 -4 10
-10z m371 -16 c18 -14 18 -14 -6 -3 -31 14 -36 19 -24 19 6 0 19 -7 30 -16z
m161 10 c-3 -3 -12 -4 -19 -1 -8 3 -5 6 6 6 11 1 17 -2 13 -5z m1342 -5 c90
-1 44 -14 -74 -21 -49 -3 -76 -4 -60 -1 17 2 34 9 40 14 6 6 -4 7 -25 3 -27
-4 -32 -3 -20 5 8 7 28 9 44 6 16 -3 58 -5 95 -6z m-1379 -15 c0 -2 -9 -4 -21
-4 -11 0 -18 4 -14 10 5 8 35 3 35 -6z m70 -14 c0 -17 -7 -20 -53 -20 -33 0
-61 6 -73 16 -19 15 -19 15 1 10 11 -3 41 -8 67 -11 39 -4 46 -2 42 10 -4 8
-1 15 5 15 6 0 11 -9 11 -20z m310 -10 c0 -5 -6 -10 -14 -10 -8 0 -18 5 -21
10 -3 6 3 10 14 10 12 0 21 -4 21 -10z m316 1 c5 -5 41 -12 79 -16 39 -3 71
-9 73 -13 1 -4 22 -6 47 -4 30 3 45 0 45 -8 0 -8 -29 -10 -102 -7 -149 6 -288
28 -288 44 0 15 130 19 146 4z m-1 -56 c27 -12 24 -13 -43 -10 -48 3 -70 0
-66 -6 3 -6 15 -8 27 -5 25 6 78 -4 72 -14 -3 -4 23 -11 57 -14 43 -5 57 -10
47 -17 -17 -10 -20 -10 56 -15 33 -2 70 -6 81 -9 23 -5 39 -42 24 -59 -5 -7 4
-12 28 -14 21 -1 39 -7 40 -12 2 -6 8 -10 13 -10 6 0 7 5 4 10 -3 6 3 10 15
10 13 0 19 -4 14 -12 -5 -7 -3 -8 5 -4 16 10 83 -2 76 -14 -3 -5 -1 -11 4 -14
5 -4 12 -2 16 4 9 15 95 13 95 -2 0 -9 18 -12 62 -10 35 1 97 -1 138 -5 l75
-8 3 -34 c2 -21 0 -31 -7 -26 -6 3 -11 1 -11 -4 0 -6 -7 -11 -15 -11 -8 0 -15
5 -15 10 0 6 -13 10 -29 10 -16 0 -31 6 -34 13 -4 10 -7 10 -18 0 -7 -7 -26
-13 -41 -13 -38 0 -35 -19 5 -27 l32 -7 -33 -6 c-18 -3 -33 -9 -33 -15 0 -5
15 -13 33 -16 l33 -6 -33 -8 c-37 -9 -48 -20 -30 -31 6 -4 14 -2 16 4 7 21 42
14 42 -8 0 -11 7 -20 15 -20 8 0 15 9 15 20 0 18 7 20 55 20 49 0 55 -2 55
-21 0 -16 -5 -20 -25 -17 -13 2 -23 -1 -22 -7 1 -5 12 -10 24 -10 12 1 19 -3
17 -7 -8 -12 -52 -10 -59 3 -4 6 -13 8 -20 5 -8 -3 -105 -6 -217 -7 l-203 -1
-3 26 c-2 14 -6 26 -8 26 -12 0 -35 -31 -29 -40 3 -5 0 -7 -8 -4 -8 3 -18 1
-21 -4 -3 -5 -121 -10 -279 -11 -230 -2 -276 0 -286 13 -10 12 -8 16 9 21 12
4 26 2 33 -3 10 -9 26 -9 94 -3 7 1 10 8 7 16 -4 8 -1 15 5 15 6 0 11 -7 11
-15 0 -14 28 -20 74 -15 10 1 22 -4 27 -11 4 -8 12 -10 16 -5 4 5 2 11 -4 13
-19 7 -16 21 8 34 20 10 21 9 15 -15 -4 -15 -2 -26 4 -26 5 0 10 3 10 8 0 4 3
17 6 30 5 19 2 22 -20 22 -26 0 -35 13 -16 25 6 4 8 21 4 41 -4 22 -2 34 5 34
6 0 11 -4 11 -10 0 -5 5 -10 10 -10 6 0 10 6 10 14 0 18 27 29 33 13 3 -9 11
-9 33 -2 35 13 46 45 15 45 -12 0 -21 5 -21 10 0 6 5 10 10 10 6 0 10 9 10 20
0 14 -7 20 -23 20 -31 0 -40 -10 -25 -27 8 -10 8 -17 0 -25 -9 -9 -20 -8 -44
4 -23 12 -27 17 -14 17 11 1 16 6 13 15 -3 7 0 19 6 25 9 9 2 10 -28 6 -21 -2
-41 -9 -45 -15 -9 -14 -57 4 -87 32 -24 22 -28 52 -16 121 l6 39 61 -7 c34 -4
75 -13 91 -20z m711 -125 c48 -22 93 -48 100 -57 20 -28 8 -28 -25 0 -16 13
-65 39 -108 57 -86 36 -94 40 -70 40 9 0 56 -18 103 -40z m-167 15 c54 -19
191 -84 191 -90 0 -11 -58 9 -137 46 -45 22 -86 39 -92 39 -5 0 -13 5 -16 10
-8 14 5 13 54 -5z m197 -12 c-7 -7 -26 7 -26 19 0 6 6 6 15 -2 9 -7 13 -15 11
-17z m-289 -46 c4 -6 -5 -4 -20 6 -14 9 -34 17 -44 17 -10 0 -23 8 -29 18 -10
16 -5 15 37 -5 26 -13 51 -29 56 -36z m-117 37 c0 -2 -7 -4 -15 -4 -8 0 -15 4
-15 10 0 5 7 7 15 4 8 -4 15 -8 15 -10z m132 -4 c44 -19 81 -50 61 -50 -6 0
-27 12 -49 26 -21 14 -47 30 -59 34 -11 5 -15 9 -9 9 6 1 32 -8 56 -19z m33
10 c13 -6 15 -9 5 -9 -8 0 -22 4 -30 9 -18 12 -2 12 25 0z m238 -41 c15 -7 27
-16 27 -20 0 -8 -128 47 -145 63 -10 9 61 -17 118 -43z m-1592 -6 c-9 -15 -10
-12 -10 17 0 29 1 32 10 18 7 -12 7 -24 0 -35z m1439 7 c34 -18 34 -19 9 -20
-14 0 -34 9 -44 20 -23 25 -10 25 35 0z m-610 -20 c0 -5 -2 -10 -4 -10 -3 0
-8 5 -11 10 -3 6 -1 10 4 10 6 0 11 -4 11 -10z m110 0 c0 -5 -2 -10 -4 -10 -3
0 -8 5 -11 10 -3 6 -1 10 4 10 6 0 11 -4 11 -10z m-1252 -33 c4 -21 -25 -34
-40 -19 -8 8 -8 16 2 27 16 19 34 15 38 -8z m292 13 c0 -5 -2 -10 -4 -10 -3 0
-8 5 -11 10 -3 6 -1 10 4 10 6 0 11 -4 11 -10z m230 -21 c0 -4 -7 -6 -15 -3
-8 4 -15 10 -15 15 0 4 7 6 15 3 8 -4 15 -10 15 -15z m-146 2 c3 -5 -3 -20
-13 -32 -15 -18 -22 -21 -31 -13 -9 9 -9 17 -1 33 12 22 36 28 45 12z m726
-10 c0 -5 -7 -11 -15 -15 -15 -5 -20 5 -8 17 9 10 23 9 23 -2z m-110 -32 c0
-6 6 -9 14 -6 7 3 18 1 24 -5 7 -7 16 -8 24 -2 23 16 72 11 76 -8 2 -11 -3
-18 -12 -18 -9 0 -16 5 -16 10 0 6 -11 10 -25 10 -28 0 -44 -25 -26 -43 6 -6
11 -15 11 -21 0 -5 -3 -7 -6 -3 -4 3 -19 0 -35 -8 -38 -20 -49 -19 -49 5 0 21
15 27 25 10 9 -14 35 7 35 27 0 13 -3 13 -15 3 -12 -10 -16 -9 -22 6 -3 11
-13 23 -20 27 -7 5 -11 12 -8 18 8 13 25 11 25 -2z m-200 -9 c0 -5 -4 -10 -10
-10 -5 0 -10 5 -10 10 0 6 5 10 10 10 6 0 10 -4 10 -10z m-520 -37 c-11 -17
-11 -17 -6 0 3 10 6 24 7 30 0 9 2 9 5 0 3 -7 0 -20 -6 -30z m-307 12 c-3 -9
-8 -14 -10 -11 -3 3 -2 9 2 15 9 16 15 13 8 -4z m261 6 c3 -5 -1 -14 -8 -20
-16 -13 -32 2 -21 19 8 12 22 13 29 1z m668 -16 c0 -5 -5 -11 -11 -13 -6 -2
-11 4 -11 13 0 9 5 15 11 13 6 -2 11 -8 11 -13z m78 0 c0 -8 -6 -15 -14 -15
-17 0 -28 14 -19 24 12 12 33 6 33 -9z m111 -8 c-13 -13 -26 -3 -16 12 3 6 11
8 17 5 6 -4 6 -10 -1 -17z m852 16 c-7 -2 -19 -2 -25 0 -7 3 -2 5 12 5 14 0
19 -2 13 -5z m-1163 -28 c0 -14 -4 -25 -9 -25 -4 0 -6 11 -3 25 2 14 6 25 8
25 2 0 4 -11 4 -25z m1240 5 c0 -17 -3 -19 -19 -10 -11 5 -35 11 -53 12 -29 1
-28 2 12 8 25 4 48 8 53 8 4 1 7 -7 7 -18z m-870 0 c0 -5 -4 -10 -10 -10 -5 0
-10 5 -10 10 0 6 5 10 10 10 6 0 10 -4 10 -10z m-1070 -14 c0 -8 -4 -18 -10
-21 -5 -3 -10 3 -10 14 0 12 5 21 10 21 6 0 10 -6 10 -14z m170 -15 c0 -17 4
-32 9 -35 5 -3 11 -14 14 -25 3 -14 1 -18 -9 -14 -8 3 -16 16 -19 29 -3 13 -7
35 -10 49 -3 14 -1 25 5 25 5 0 10 -13 10 -29z m699 20 c10 -7 11 -13 2 -27
-9 -17 -10 -17 -11 -1 0 9 -7 17 -16 17 -8 0 -12 5 -9 10 8 12 16 12 34 1z
m-119 -11 c0 -5 -7 -7 -15 -4 -8 4 -15 8 -15 10 0 2 7 4 15 4 8 0 15 -4 15
-10z m295 0 c3 -5 -3 -10 -14 -10 -12 0 -21 5 -21 10 0 6 6 10 14 10 8 0 18
-4 21 -10z m-1095 -10 c9 -6 10 -10 3 -10 -6 0 -19 -3 -27 -6 -12 -5 -15 -2
-10 10 7 18 13 20 34 6z m1975 -10 c4 -6 -13 -10 -44 -10 -28 0 -51 5 -51 10
0 6 20 10 44 10 25 0 48 -4 51 -10z m-1520 -10 c3 -5 1 -10 -4 -10 -6 0 -11 5
-11 10 0 6 2 10 4 10 3 0 8 -4 11 -10z m295 -5 c-43 -17 -50 -17 -50 -6 0 10
28 18 65 19 12 0 5 -5 -15 -13z m280 5 c0 -5 -4 -10 -10 -10 -5 0 -10 5 -10
10 0 6 5 10 10 10 6 0 10 -4 10 -10z m-745 -20 c0 -7 -6 -15 -12 -17 -8 -3
-13 4 -13 17 0 13 5 20 13 18 6 -3 12 -11 12 -18z m255 10 c0 -5 -4 -10 -10
-10 -5 0 -10 5 -10 10 0 6 5 10 10 10 6 0 10 -4 10 -10z m110 -11 c0 -15 -4
-19 -16 -15 -9 3 -23 6 -32 6 -15 1 -14 3 2 15 28 21 46 19 46 -6z m450 0 c0
-6 -4 -7 -10 -4 -5 3 -10 11 -10 16 0 6 5 7 10 4 6 -3 10 -11 10 -16z m-1087
-12 c16 -6 17 -9 3 -22 -17 -17 -101 -21 -91 -4 4 6 20 7 38 3 28 -6 30 -5 18
9 -7 9 -10 21 -6 28 5 6 10 7 14 2 3 -5 14 -12 24 -16z m37 13 c0 -5 -2 -10
-4 -10 -3 0 -8 5 -11 10 -3 6 -1 10 4 10 6 0 11 -4 11 -10z m380 0 c0 -5 -7
-7 -15 -4 -8 4 -15 8 -15 10 0 2 7 4 15 4 8 0 15 -4 15 -10z m480 0 c0 -5 -7
-10 -15 -10 -8 0 -15 5 -15 10 0 6 7 10 15 10 8 0 15 -4 15 -10z m-713 -17 c5
-13 -37 -25 -99 -29 -34 -2 -48 1 -48 11 0 16 27 28 35 15 4 -6 24 -10 46 -10
29 0 39 4 39 16 0 17 21 15 27 -3z m309 2 c-4 -10 1 -14 16 -12 11 1 23 -4 25
-10 3 -9 -8 -13 -36 -13 -23 0 -44 0 -48 -1 -4 0 -9 4 -11 10 -2 6 6 11 17 11
12 0 21 6 21 15 0 8 5 15 11 15 6 0 9 -7 5 -15z m331 8 c-14 -4 -17 -11 -13
-29 5 -18 2 -24 -10 -24 -9 0 -18 9 -21 20 -7 27 -23 25 -23 -2 -1 -21 -2 -22
-14 -5 -7 9 -16 17 -20 17 -3 0 -6 -8 -6 -17 -1 -16 -2 -16 -16 2 -11 14 -18
16 -21 8 -3 -7 -19 -13 -36 -13 l-32 0 30 16 c17 9 48 16 70 16 28 -1 35 2 25
8 -10 7 5 9 45 9 33 -1 52 -3 42 -6z m-518 -32 c-8 -2 -17 -8 -20 -14 -4 -6
-15 -6 -25 -2 -17 8 -17 9 4 12 12 3 22 11 22 20 0 13 2 13 16 2 13 -11 13
-14 3 -18z m61 15 c0 -3 -4 -8 -10 -11 -5 -3 -10 -1 -10 4 0 6 5 11 10 11 6 0
10 -2 10 -4z m55 -6 c-3 -5 -10 -10 -16 -10 -5 0 -9 5 -9 10 0 6 7 10 16 10 8
0 12 -4 9 -10z m148 -4 c3 -8 0 -17 -8 -19 -7 -3 -15 3 -18 14 -6 22 18 27 26
5z m1390 -46 c15 0 17 -11 17 -84 0 -83 0 -84 -25 -82 -18 1 -25 7 -25 21 0
27 -11 42 -34 46 -11 2 -21 10 -24 18 -3 10 3 12 27 6 25 -5 31 -3 31 10 0 13
-9 16 -52 13 -49 -3 -53 -5 -53 -28 0 -19 6 -26 23 -28 26 -4 37 -24 28 -48
-6 -15 -8 -15 -25 0 -16 15 -19 15 -31 1 -19 -22 -8 -27 62 -30 35 -2 69 -3
76 -4 6 -1 12 -9 12 -19 0 -17 -23 -18 -412 -21 -449 -3 -763 -3 -1300 -2
l-348 1 0 118 0 117 1018 -2 c559 -1 1025 -3 1035 -3z"/>
<path d="M1101 3183 c0 -6 -4 -20 -7 -30 -5 -14 -4 -15 5 -7 7 7 11 20 8 30
-3 11 -5 14 -6 7z"/>
<path d="M1358 823 c7 -3 16 -2 19 1 4 3 -2 6 -13 5 -11 0 -14 -3 -6 -6z"/>
<path d="M1450 3238 c0 -7 -5 -29 -10 -49 -10 -34 -13 -37 -61 -43 -56 -8 -61
-23 -12 -40 44 -15 45 -18 29 -64 -18 -49 -8 -54 36 -17 34 29 46 30 95 10 20
-8 38 -13 40 -11 3 2 -3 21 -13 41 l-17 37 31 25 c45 35 41 47 -13 39 l-45 -7
-22 45 c-21 45 -38 59 -38 34z m40 -69 c0 -8 -37 -19 -44 -12 -2 3 0 16 7 30
10 23 12 24 24 7 7 -10 13 -21 13 -25z m60 -34 c-12 -15 -30 -12 -30 6 0 5 10
9 21 9 18 0 19 -2 9 -15z m-43 -11 c6 -17 -20 -44 -41 -44 -24 0 -38 18 -31
39 8 26 62 30 72 5z m-87 -4 c0 -13 -30 -13 -50 0 -11 7 -7 10 18 10 17 0 32
-4 32 -10z m114 -45 c4 -10 -1 -15 -14 -15 -20 0 -26 11 -13 23 10 11 20 8 27
-8z m-79 -4 c6 -10 -33 -36 -41 -28 -3 2 -2 12 2 21 7 18 29 22 39 7z"/>
<path d="M940 3119 c-12 -8 -9 -10 13 -6 15 2 30 0 33 -4 3 -5 -6 -9 -20 -9
-28 0 -35 -14 -11 -24 17 -6 48 21 42 38 -5 15 -39 18 -57 5z"/>
<path d="M1013 3002 c-29 -4 -30 -22 -2 -22 11 0 17 -4 14 -10 -3 -5 1 -10 9
-10 9 0 16 2 16 4 0 2 3 11 6 19 6 17 -11 24 -43 19z"/>
<path d="M654 2736 c-10 -8 -16 -18 -12 -21 4 -4 15 0 24 9 21 22 13 30 -12
12z"/>
<path d="M855 2690 c3 -5 10 -10 16 -10 5 0 9 5 9 10 0 6 -7 10 -16 10 -8 0
-12 -4 -9 -10z"/>
<path d="M820 2520 c0 -5 -3 -15 -6 -23 -3 -10 2 -18 15 -22 22 -7 54 -63 49
-86 -2 -10 10 -15 45 -17 37 -2 47 0 47 12 0 9 8 16 19 16 10 0 35 11 55 25
20 14 41 25 46 25 6 0 10 5 10 10 0 15 -26 12 -41 -6 -50 -60 -179 -60 -179 0
0 8 -12 22 -27 31 -28 16 -28 16 -3 11 14 -3 36 -9 50 -13 22 -6 24 -5 11 10
-7 9 -17 15 -21 12 -5 -3 -10 0 -12 6 -5 14 -58 22 -58 9z m113 -137 c-7 -2
-19 -2 -25 0 -7 3 -2 5 12 5 14 0 19 -2 13 -5z"/>
<path d="M988 2373 c7 -3 16 -2 19 1 4 3 -2 6 -13 5 -11 0 -14 -3 -6 -6z"/>
<path d="M742 2360 c0 -14 2 -19 5 -12 2 6 2 18 0 25 -3 6 -5 1 -5 -13z"/>
<path d="M760 2291 c0 -6 4 -13 10 -16 6 -3 7 1 4 9 -7 18 -14 21 -14 7z"/>
<path d="M800 2232 c6 -13 14 -21 18 -18 3 4 -2 14 -12 24 -18 16 -18 16 -6
-6z"/>
<path d="M1086 1949 c-14 -92 -16 -129 -8 -129 5 0 12 34 16 76 7 78 2 114 -8
53z"/>
<path d="M870 1204 c-6 -14 -10 -27 -10 -29 0 -2 -11 -21 -25 -41 -14 -20 -25
-42 -24 -48 0 -6 6 -3 12 8 7 10 22 30 33 45 21 25 42 91 30 91 -4 0 -11 -12
-16 -26z"/>
<path d="M331 1094 c0 -11 3 -14 6 -6 3 7 2 16 -1 19 -3 4 -6 -2 -5 -13z"/>
<path d="M350 1090 c0 -5 5 -10 11 -10 5 0 7 5 4 10 -3 6 -8 10 -11 10 -2 0
-4 -4 -4 -10z"/>
<path d="M215 1110 c-3 -5 1 -10 9 -10 9 0 16 5 16 10 0 6 -4 10 -9 10 -6 0
-13 -4 -16 -10z"/>
<path d="M200 1060 c0 -5 5 -10 10 -10 6 0 10 5 10 10 0 6 -4 10 -10 10 -5 0
-10 -4 -10 -10z"/>
<path d="M205 1020 c3 -5 8 -10 11 -10 2 0 4 5 4 10 0 6 -5 10 -11 10 -5 0 -7
-4 -4 -10z"/>
<path d="M400 1124 c0 -8 5 -12 10 -9 6 4 8 11 5 16 -9 14 -15 11 -15 -7z"/>
<path d="M1546 935 c-11 -8 -15 -15 -10 -15 6 0 19 7 30 15 10 8 15 14 9 14
-5 0 -19 -6 -29 -14z"/>
<path d="M1693 855 c-18 -8 -33 -17 -33 -20 0 -3 5 -3 11 1 7 4 30 13 53 20
23 7 32 13 21 13 -11 0 -35 -6 -52 -14z"/>
<path d="M218 833 c6 -2 18 -2 25 0 6 3 1 5 -13 5 -14 0 -19 -2 -12 -5z"/>
<path d="M792 651 c-13 -3 -23 -10 -22 -16 1 -11 40 -8 53 5 13 12 -5 18 -31
11z"/>
<path d="M80 624 c0 -8 5 -12 10 -9 6 4 8 11 5 16 -9 14 -15 11 -15 -7z"/>
<path d="M186 630 c5 -5 25 -13 44 -17 31 -6 33 -5 20 8 -8 8 -28 16 -45 17
-19 1 -26 -1 -19 -8z"/>
<path d="M835 630 c-3 -5 -1 -10 4 -10 6 0 11 5 11 10 0 6 -2 10 -4 10 -3 0
-8 -4 -11 -10z"/>
<path d="M85 590 c3 -5 8 -10 11 -10 2 0 4 5 4 10 0 6 -5 10 -11 10 -5 0 -7
-4 -4 -10z"/>
<path d="M710 590 c0 -5 5 -10 10 -10 6 0 10 5 10 10 0 6 -4 10 -10 10 -5 0
-10 -4 -10 -10z"/>
<path d="M858 593 c-27 -7 -21 -23 7 -23 14 0 25 4 25 9 0 13 -12 18 -32 14z"/>
<path d="M805 580 c-3 -5 -1 -10 4 -10 6 0 11 5 11 10 0 6 -2 10 -4 10 -3 0
-8 -4 -11 -10z"/>
<path d="M186 562 c-3 -6 -1 -14 5 -17 15 -10 25 3 12 16 -7 7 -13 7 -17 1z"/>
<path d="M670 547 c0 -19 35 -23 46 -5 5 7 2 9 -8 5 -9 -3 -21 0 -27 6 -8 8
-11 7 -11 -6z"/>
<path d="M780 527 c0 -34 34 -38 50 -6 14 25 6 36 -13 21 -10 -9 -17 -8 -25 0
-9 9 -12 6 -12 -15z"/>
<path d="M750 515 c7 -9 15 -13 17 -11 7 7 -7 26 -19 26 -6 0 -6 -6 2 -15z"/>
<path d="M840 520 c0 -5 4 -10 9 -10 6 0 13 5 16 10 3 6 -1 10 -9 10 -9 0 -16
-4 -16 -10z"/>
<path d="M268 513 c6 -2 18 -2 25 0 6 3 1 5 -13 5 -14 0 -19 -2 -12 -5z"/>
<path d="M505 510 c-4 -6 1 -10 9 -10 9 0 16 -7 16 -15 0 -8 -6 -15 -12 -15
-7 0 -2 -7 10 -16 28 -19 41 -12 35 20 -5 25 -48 52 -58 36z"/>
<path d="M695 510 c3 -5 8 -10 11 -10 2 0 4 5 4 10 0 6 -5 10 -11 10 -5 0 -7
-4 -4 -10z"/>
<path d="M170 497 c0 -9 13 -14 36 -15 31 -1 34 1 24 13 -16 19 -60 20 -60 2z"/>
<path d="M635 470 c-3 -5 -3 -20 1 -34 6 -25 7 -25 30 -8 13 9 24 23 24 31 0
11 -3 11 -15 1 -9 -7 -19 -10 -22 -6 -4 4 -1 11 7 16 13 8 12 10 -2 10 -9 0
-19 -4 -23 -10z"/>
<path d="M700 470 c0 -5 5 -10 10 -10 6 0 10 5 10 10 0 6 -4 10 -10 10 -5 0
-10 -4 -10 -10z"/>
<path d="M790 470 c0 -5 5 -10 10 -10 6 0 10 5 10 10 0 6 -4 10 -10 10 -5 0
-10 -4 -10 -10z"/>
<path d="M1095 651 c-3 -5 -1 -12 5 -16 5 -3 10 1 10 9 0 18 -6 21 -15 7z"/>
<path d="M1263 647 c5 -17 37 -21 37 -5 0 8 -9 14 -21 15 -12 1 -19 -3 -16
-10z"/>
<path d="M1235 640 c-3 -5 -1 -10 4 -10 6 0 11 5 11 10 0 6 -2 10 -4 10 -3 0
-8 -4 -11 -10z"/>
<path d="M1325 640 c-3 -5 -1 -10 4 -10 6 0 11 5 11 10 0 6 -2 10 -4 10 -3 0
-8 -4 -11 -10z"/>
<path d="M1130 630 c0 -5 5 -10 10 -10 6 0 10 5 10 10 0 6 -4 10 -10 10 -5 0
-10 -4 -10 -10z"/>
<path d="M1170 630 c0 -5 5 -10 11 -10 5 0 7 5 4 10 -3 6 -8 10 -11 10 -2 0
-4 -4 -4 -10z"/>
<path d="M1426 622 c-5 -8 -1 -21 9 -32 17 -19 18 -19 35 3 22 26 19 32 -8 18
-17 -9 -21 -8 -24 7 -3 13 -5 14 -12 4z"/>
<path d="M1383 613 c-20 -8 -15 -23 7 -23 11 0 20 7 20 15 0 15 -6 17 -27 8z"/>
<path d="M1165 590 c3 -5 8 -10 11 -10 2 0 4 5 4 10 0 6 -5 10 -11 10 -5 0 -7
-4 -4 -10z"/>
<path d="M1390 541 c0 -6 5 -13 10 -16 6 -3 10 1 10 9 0 9 -4 16 -10 16 -5 0
-10 -4 -10 -9z"/>
<path d="M1542 527 c-1 -18 3 -23 19 -22 24 2 45 30 29 40 -5 3 -10 -1 -10 -9
0 -9 -7 -16 -15 -16 -9 0 -12 6 -9 15 4 8 2 15 -3 15 -5 0 -10 -10 -11 -23z"/>
<path d="M1425 531 c-6 -11 9 -23 19 -14 9 9 7 23 -3 23 -6 0 -12 -4 -16 -9z"/>
<path d="M1474 525 c-10 -8 -14 -14 -9 -14 6 0 19 6 29 14 11 8 15 15 10 15
-6 0 -19 -7 -30 -15z"/>
<path d="M1615 529 c-4 -6 -5 -13 -2 -16 7 -7 27 6 27 18 0 12 -17 12 -25 -2z"/>
<path d="M1656 515 c-3 -8 -1 -15 4 -15 6 0 10 7 10 15 0 8 -2 15 -4 15 -2 0
-6 -7 -10 -15z"/>
<path d="M1765 510 c3 -5 8 -10 11 -10 2 0 4 5 4 10 0 6 -5 10 -11 10 -5 0 -7
-4 -4 -10z"/>
<path d="M1710 500 c0 -13 11 -13 30 0 12 8 11 10 -7 10 -13 0 -23 -4 -23 -10z"/>
<path d="M1850 500 c0 -5 9 -9 20 -7 31 5 36 17 7 17 -15 0 -27 -4 -27 -10z"/>
<path d="M1984 496 c20 -9 25 -15 15 -19 -8 -3 -2 -6 13 -6 31 -1 47 17 27 30
-8 5 -30 8 -49 8 l-35 -1 29 -12z"/>
<path d="M1410 486 c0 -2 7 -6 15 -10 8 -3 15 -1 15 4 0 6 -7 10 -15 10 -8 0
-15 -2 -15 -4z"/>
<path d="M1591 481 c-8 -5 -11 -16 -8 -24 3 -9 0 -14 -11 -13 -9 0 -17 -6 -17
-14 0 -9 10 -15 25 -16 14 0 31 -3 38 -8 18 -11 15 -26 -4 -19 -12 4 -15 2
-12 -8 7 -21 48 -24 48 -4 0 8 7 27 16 40 18 28 12 45 -15 38 -12 -3 -20 2
-24 16 -6 23 -14 26 -36 12z"/>
<path d="M1516 471 c-19 -7 -19 -8 2 -13 15 -4 22 -2 22 8 0 8 -1 14 -2 13 -2
0 -12 -4 -22 -8z"/>
<path d="M1380 456 c0 -15 24 -66 32 -66 5 0 7 4 3 9 -3 5 -1 12 5 16 17 11
11 25 -11 25 -11 0 -17 5 -14 10 3 6 1 10 -4 10 -6 0 -11 -2 -11 -4z"/>
<path d="M1743 448 c5 -13 1 -18 -14 -18 -11 0 -17 -4 -14 -10 7 -12 42 -13
49 -2 2 4 -3 16 -11 27 -13 16 -15 17 -10 3z"/>
<path d="M1840 450 c0 -5 5 -10 10 -10 6 0 10 5 10 10 0 6 -4 10 -10 10 -5 0
-10 -4 -10 -10z"/>
<path d="M1328 442 c-12 -5 -15 -11 -9 -21 8 -12 12 -12 25 2 26 26 20 33 -16
19z"/>
<path d="M1780 420 c0 -5 4 -10 9 -10 6 0 13 5 16 10 3 6 -1 10 -9 10 -9 0
-16 -4 -16 -10z"/>
<path d="M1250 395 c0 -8 5 -15 10 -15 6 0 10 7 10 15 0 8 -4 15 -10 15 -5 0
-10 -7 -10 -15z"/>
<path d="M1510 402 c0 -15 11 -21 27 -15 12 5 12 7 1 14 -17 11 -28 11 -28 1z"/>
<path d="M1840 400 c0 -5 -7 -7 -15 -4 -8 4 -15 1 -15 -5 0 -12 11 -14 34 -5
18 7 22 24 6 24 -5 0 -10 -4 -10 -10z"/>
<path d="M1455 390 c-3 -5 1 -10 10 -10 9 0 13 5 10 10 -3 6 -8 10 -10 10 -2
0 -7 -4 -10 -10z"/>
<path d="M1350 382 c0 -15 11 -21 27 -15 12 5 12 7 1 14 -17 11 -28 11 -28 1z"/>
<path d="M1555 380 c-3 -5 1 -10 10 -10 9 0 13 5 10 10 -3 6 -8 10 -10 10 -2
0 -7 -4 -10 -10z"/>
<path d="M1675 380 c-3 -5 1 -10 10 -10 9 0 13 5 10 10 -3 6 -8 10 -10 10 -2
0 -7 -4 -10 -10z"/>
<path d="M1285 370 c3 -5 12 -7 20 -3 21 7 19 13 -6 13 -11 0 -18 -4 -14 -10z"/>
<path d="M1720 370 c0 -5 5 -10 10 -10 6 0 10 5 10 10 0 6 -4 10 -10 10 -5 0
-10 -4 -10 -10z"/>
<path d="M1454 359 c-8 -14 26 -23 39 -10 6 6 9 11 7 12 -3 0 -13 2 -22 4 -10
2 -20 -1 -24 -6z"/>
<path d="M1515 350 c-3 -5 1 -10 9 -10 9 0 16 5 16 10 0 6 -4 10 -9 10 -6 0
-13 -4 -16 -10z"/>
<path d="M1786 351 c-4 -7 -5 -15 -2 -19 11 -10 50 -10 71 1 19 10 19 11 -5
17 -14 4 -30 3 -37 -2 -7 -5 -13 -4 -15 4 -3 9 -6 9 -12 -1z"/>
<path d="M1390 340 c0 -5 5 -10 10 -10 6 0 10 5 10 10 0 6 -4 10 -10 10 -5 0
-10 -4 -10 -10z"/>
<path d="M1990 340 c0 -5 4 -10 9 -10 6 0 13 5 16 10 3 6 -1 10 -9 10 -9 0
-16 -4 -16 -10z"/>
<path d="M1270 325 c0 -8 5 -15 10 -15 6 0 10 7 10 15 0 8 -4 15 -10 15 -5 0
-10 -7 -10 -15z"/>
<path d="M1310 331 c0 -15 16 -22 34 -15 25 9 19 24 -9 24 -14 0 -25 -4 -25
-9z"/>
<path d="M1605 330 c-3 -5 -1 -10 4 -10 6 0 11 5 11 10 0 6 -2 10 -4 10 -3 0
-8 -4 -11 -10z"/>
<path d="M1670 330 c0 -5 5 -10 10 -10 6 0 10 5 10 10 0 6 -4 10 -10 10 -5 0
-10 -4 -10 -10z"/>
<path d="M1470 320 c0 -5 5 -10 10 -10 6 0 10 5 10 10 0 6 -4 10 -10 10 -5 0
-10 -4 -10 -10z"/>
<path d="M1715 320 c3 -5 8 -10 11 -10 2 0 4 5 4 10 0 6 -5 10 -11 10 -5 0 -7
-4 -4 -10z"/>
<path d="M1745 320 c3 -5 8 -10 11 -10 2 0 4 5 4 10 0 6 -5 10 -11 10 -5 0 -7
-4 -4 -10z"/>
<path d="M878 233 c-24 -4 -26 -7 -16 -22 8 -13 8 -33 1 -70 -11 -56 -5 -67
34 -59 13 2 17 11 15 34 -3 26 2 32 30 44 43 19 49 52 13 68 -14 7 -31 11 -38
11 -7 -1 -24 -4 -39 -6z m62 -38 c0 -16 -6 -25 -15 -25 -9 0 -15 9 -15 25 0
16 6 25 15 25 9 0 15 -9 15 -25z"/>
<path d="M30 161 c0 -69 1 -71 25 -71 22 0 25 4 25 33 0 27 5 35 31 44 24 9
30 17 27 35 -3 20 -9 23 -55 26 l-53 3 0 -70z m68 37 c-2 -13 -7 -23 -13 -23
-5 0 -11 10 -13 23 -2 15 2 22 13 22 11 0 15 -7 13 -22z"/>
<path d="M152 188 c-2 -23 -9 -55 -17 -70 -15 -31 -10 -38 20 -29 14 4 20 15
20 36 0 23 5 31 22 33 18 3 23 -3 28 -31 5 -27 13 -36 32 -40 22 -4 24 -2 18
22 l-7 26 24 -22 c16 -15 37 -23 61 -23 34 0 37 2 37 30 0 28 -2 30 -40 30
-31 0 -40 4 -40 18 0 31 16 45 44 38 14 -3 26 -2 26 3 0 16 -27 20 -64 10 -30
-8 -36 -15 -42 -45 -7 -40 -18 -35 -31 16 -8 32 -13 35 -49 38 l-39 3 -3 -43z
m48 1 c0 -11 -4 -18 -10 -14 -5 3 -7 12 -3 20 7 21 13 19 13 -6z m160 -70 c0
-12 -37 -12 -44 0 -3 4 -3 11 0 14 8 7 44 -4 44 -14z"/>
<path d="M410 179 c4 -27 5 -62 4 -76 -2 -21 0 -24 19 -19 12 3 34 6 50 6 20
0 27 5 27 20 0 24 -25 27 -34 3 -6 -15 -8 -15 -16 -3 -14 21 -12 30 5 30 8 0
15 9 15 20 0 11 -7 20 -15 20 -8 0 -15 9 -15 20 0 21 15 27 25 10 9 -15 25
-12 25 5 0 11 -12 15 -48 15 l-48 0 6 -51z"/>
<path d="M992 163 l3 -68 48 -3 c41 -3 47 -1 47 17 0 25 -18 37 -26 17 -9 -22
-34 -20 -34 3 0 11 6 18 16 17 25 -2 29 24 5 31 -24 6 -29 43 -6 43 8 0 15 -7
15 -15 0 -8 7 -15 15 -15 8 0 15 9 15 20 0 17 -7 20 -50 20 l-51 0 3 -67z"/>
<path d="M1108 223 c15 -6 17 -123 1 -123 -5 0 -7 -4 -4 -10 3 -5 17 -10 29
-10 22 0 23 3 19 48 l-4 47 27 -43 c20 -32 32 -42 48 -40 19 3 21 8 18 59 -4
53 8 83 23 59 4 -6 15 -8 26 -5 17 6 19 1 19 -53 0 -55 2 -60 24 -64 23 -5 23
-4 18 59 -4 52 -2 63 11 63 8 0 17 -5 19 -12 2 -6 9 -8 16 -4 6 3 9 13 5 21
-4 12 -27 15 -106 15 -79 0 -98 -3 -89 -12 15 -15 16 -72 2 -63 -6 4 -17 22
-25 41 -13 31 -18 34 -52 33 -21 0 -32 -3 -25 -6z"/>
<path d="M1422 203 c0 -16 -5 -47 -10 -70 -9 -38 -8 -43 8 -43 10 0 18 6 17
13 -2 54 23 64 47 18 16 -30 41 -45 57 -35 5 3 0 17 -11 31 -11 14 -22 41 -26
62 -8 41 -18 51 -55 51 -21 0 -26 -5 -27 -27z m43 -22 c3 -5 1 -12 -5 -16 -5
-3 -10 1 -10 9 0 18 6 21 15 7z"/>
<path d="M1572 214 c-29 -20 -31 -83 -3 -108 22 -20 82 -19 89 2 3 9 -3 11
-21 7 -20 -5 -28 -2 -37 14 -6 12 -8 31 -5 41 7 22 21 26 27 9 2 -5 11 -7 20
-4 19 7 31 32 22 46 -9 15 -68 10 -92 -7z"/>
<path d="M1685 160 l0 -70 53 0 c38 0 54 4 58 15 9 21 23 19 17 -3 -4 -16 2
-18 44 -17 42 0 48 4 51 23 2 12 -1 22 -7 22 -6 0 -11 9 -11 20 0 11 -7 20
-15 20 -9 0 -15 9 -15 22 0 21 0 21 15 2 13 -16 16 -17 25 -4 13 20 13 30 -2
31 -7 0 -30 2 -50 5 -32 4 -38 2 -36 -13 4 -56 -2 -83 -21 -83 -11 0 -23 -4
-26 -10 -16 -27 -27 -6 -23 48 3 57 3 57 -27 60 l-30 3 0 -71z m195 -46 c0
-17 -22 -14 -28 4 -2 7 3 12 12 12 9 0 16 -7 16 -16z"/>
<path d="M662 198 c-16 -16 -15 -21 8 -48 22 -26 26 -60 8 -78 -20 -20 0 -26
27 -8 14 9 25 25 25 35 0 11 6 21 13 24 20 7 -7 42 -33 42 -13 0 -25 6 -28 13
-2 8 2 12 11 10 9 -2 17 2 19 7 5 15 -35 18 -50 3z"/>
<path d="M601 146 c-6 -7 -9 -21 -5 -29 12 -33 74 -31 74 2 0 36 -46 55 -69
27z m39 -16 c0 -5 -4 -10 -10 -10 -5 0 -10 5 -10 10 0 6 5 10 10 10 6 0 10 -4
10 -10z"/>
</g>
</svg>
