<?xml version="1.0" standalone="no"?>
<!DOCTYPE svg PUBLIC "-//W3C//DTD SVG 20010904//EN"
 "http://www.w3.org/TR/2001/REC-SVG-20010904/DTD/svg10.dtd">
<svg version="1.0" xmlns="http://www.w3.org/2000/svg"
 width="219.000000pt" height="379.000000pt" viewBox="0 0 219.000000 379.000000"
 preserveAspectRatio="xMidYMid meet">
<metadata>
Created by potrace 1.16, written by Peter Selinger 2001-2019
</metadata>
<g transform="translate(0.000000,379.000000) scale(0.100000,-0.100000)"
fill="#000000" stroke="none">
<path d="M186 3782 l-179 -2 8 -872 c4 -479 8 -894 10 -922 1 -28 3 -77 4
-108 1 -51 3 -58 21 -58 22 0 27 -15 8 -26 -7 -4 -8 -3 -4 4 4 7 1 12 -9 12
-9 0 -13 -4 -10 -10 3 -5 1 -10 -5 -10 -8 0 -9 -25 -5 -82 5 -69 8 -450 14
-1600 1 -80 4 -108 14 -108 9 0 11 30 9 124 l-3 124 1013 -6 c557 -3 1030 -5
1051 -4 l37 0 0 -109 0 -109 -92 -1 c-51 0 -396 -2 -767 -5 -371 -2 -676 -6
-679 -9 -3 -3 346 -5 776 -5 l782 0 1 633 c2 1408 -2 3140 -7 3149 -5 8 -1478
8 -1988 0z m1957 -12 c16 -18 19 -342 18 -1965 l-1 -909 -25 26 c-29 31 -47
28 -81 -11 -20 -23 -24 -24 -47 -12 -14 7 -28 22 -30 32 -7 27 -63 26 -70 -1
-3 -13 -11 -18 -20 -14 -18 7 -31 -12 -33 -48 -2 -28 3 -31 41 -29 31 1 10 -6
-130 -42 -71 -19 -166 -46 -210 -59 -44 -14 -101 -28 -126 -32 l-46 -7 9 58
c5 32 15 72 23 90 17 35 19 86 6 112 -6 11 -3 40 10 86 10 39 26 95 34 127 14
51 19 58 58 77 89 44 111 81 47 81 -15 0 -35 3 -44 6 -14 5 -14 9 -1 35 9 16
29 39 45 51 16 12 35 38 41 57 7 20 23 49 37 66 21 25 23 35 17 75 -4 25 -6
60 -6 79 1 19 -8 50 -20 70 -24 40 -51 112 -45 118 8 9 76 -60 76 -77 0 -11 5
-22 11 -26 6 -3 9 -17 6 -31 -4 -20 -1 -24 17 -21 15 2 21 10 21 28 0 14 3 30
6 35 3 6 9 23 13 39 4 15 14 39 23 52 15 23 16 23 44 7 24 -14 33 -15 49 -5
11 7 20 8 20 3 0 -12 31 -7 71 11 40 18 55 87 50 231 -1 9 -7 17 -15 17 -18 0
-45 113 -40 171 3 33 0 50 -11 59 -24 20 -19 58 8 62 15 2 21 9 20 23 -2 24
16 37 36 26 10 -6 25 1 48 24 38 37 45 70 13 60 -11 -3 -20 -2 -20 3 0 18 -65
8 -68 -11 -5 -26 -22 -20 -22 8 0 14 -5 25 -11 25 -7 0 -9 9 -6 23 8 29 -39
79 -54 56 -5 -8 -9 -19 -9 -25 0 -6 -7 -17 -15 -24 -12 -10 -13 -16 -3 -27 10
-13 9 -15 -7 -12 -14 3 -21 14 -23 34 -4 30 -18 55 -32 55 -4 0 -12 -11 -18
-25 -14 -30 -26 -31 -59 -5 -14 11 -34 20 -44 20 -20 0 -25 -20 -9 -36 22 -22
-13 -44 -80 -48 -58 -4 -63 -3 -46 10 11 7 26 14 33 14 24 0 82 61 99 105 24
65 16 144 -22 197 -102 145 -336 98 -374 -75 -13 -55 -9 -82 25 -159 7 -19 5
-20 -87 -53 -28 -10 -50 -24 -53 -36 -4 -10 -15 -19 -26 -19 -11 0 -30 -5 -41
-11 -15 -8 -22 -8 -28 1 -4 7 -19 13 -34 13 -27 2 -37 17 -11 17 8 0 15 3 15
6 0 21 -57 118 -95 159 -46 52 -61 105 -30 105 28 0 67 33 82 68 12 30 12 36
-1 51 -9 10 -13 20 -10 24 4 3 1 20 -5 38 -10 28 -8 35 14 61 51 60 20 108
-110 173 l-75 38 -23 -21 c-24 -23 -87 -31 -87 -12 0 16 -47 60 -63 60 -7 0
-22 7 -33 15 -26 19 -47 19 -62 -3 -10 -13 -23 -16 -53 -14 -24 3 -39 0 -39
-7 0 -6 -11 -16 -25 -21 -33 -13 -43 -39 -21 -55 12 -10 13 -14 4 -18 -7 -2
-20 -16 -27 -31 -13 -23 -12 -28 4 -46 11 -13 14 -20 6 -20 -7 0 -11 -8 -9
-17 2 -10 -3 -24 -12 -30 -13 -12 -13 -14 1 -25 9 -7 18 -18 20 -25 5 -16 69
23 69 42 0 11 30 31 34 23 1 -2 8 -16 14 -32 12 -27 14 -27 31 -12 10 9 20 16
23 16 3 0 9 -27 13 -59 5 -48 3 -68 -14 -106 -11 -26 -18 -51 -15 -56 11 -18
41 -8 69 21 16 17 34 30 39 30 6 0 3 -7 -6 -14 -10 -7 -18 -19 -18 -25 0 -7
-19 -38 -42 -69 l-43 -57 -3 -105 c-3 -88 1 -124 22 -212 30 -119 28 -213 -3
-221 -10 -2 6 -14 40 -30 31 -14 59 -33 62 -41 8 -20 11 -21 -71 14 -39 17
-78 30 -86 30 -9 0 -16 7 -16 16 0 8 -4 12 -10 9 -5 -3 -10 -36 -10 -72 0 -58
-2 -64 -18 -58 -9 4 -61 15 -114 24 -54 9 -103 22 -110 29 -15 15 -35 16 -40
2 -4 -13 -127 -40 -134 -29 -2 4 -3 88 -2 186 0 98 -2 469 -6 826 l-8 647 184
1 c100 1 329 5 508 8 390 7 1416 8 1423 1z m-1577 -436 c-4 -9 -9 -15 -11 -12
-3 3 -3 13 1 22 4 9 9 15 11 12 3 -3 3 -13 -1 -22z m34 -24 c0 -5 -5 -10 -11
-10 -5 0 -7 5 -4 10 3 6 8 10 11 10 2 0 4 -4 4 -10z m-96 -22 c22 -22 20 -31
-4 -23 -11 4 -20 2 -20 -4 0 -6 -5 -11 -11 -11 -6 0 -8 8 -5 18 5 14 3 13 -9
-3 -13 -16 -17 -17 -24 -6 -5 8 -14 10 -21 6 -8 -5 -11 -3 -8 6 3 8 13 14 23
14 10 0 20 5 22 11 5 15 38 11 57 -8z m52 14 c6 -4 14 -15 17 -26 4 -10 13
-16 21 -13 17 7 9 -38 -10 -54 -17 -14 -19 2 -2 19 10 10 8 14 -10 19 -17 4
-21 10 -17 24 4 13 1 19 -9 19 -9 0 -16 5 -16 10 0 12 11 13 26 2z m91 -16
c-8 -20 4 -28 20 -15 8 7 13 8 13 1 0 -5 -13 -15 -29 -20 -29 -10 -29 -10 -19
19 5 16 12 29 15 29 3 0 3 -6 0 -14z m219 -26 c15 0 -2 -24 -31 -42 -39 -26
-47 -39 -35 -58 7 -11 21 -4 63 28 29 23 58 42 64 42 11 0 49 -38 42 -43 -2
-2 -17 -11 -34 -22 -16 -10 -54 -38 -82 -63 -57 -48 -77 -49 -93 -7 -15 39
-39 30 -58 -20 l-12 -30 6 34 c4 19 12 41 19 48 29 28 55 82 49 99 -4 14 -3
16 4 5 8 -11 11 -11 18 0 4 7 3 14 -4 17 -9 3 -9 9 -2 23 10 18 13 18 47 4 19
-8 37 -15 39 -15z m-122 -8 c2 -4 -14 -34 -36 -66 -35 -52 -39 -64 -36 -107 1
-27 -1 -51 -7 -53 -5 -2 -6 -7 -2 -12 5 -5 13 -1 18 9 6 9 14 17 19 17 18 0
10 -18 -16 -35 -22 -14 -28 -15 -35 -4 -4 7 -11 10 -15 6 -4 -4 -3 -12 3 -18
9 -9 4 -18 -18 -37 -59 -49 -18 -33 56 23 42 32 78 55 80 53 3 -2 -36 -35 -85
-73 -50 -37 -90 -72 -90 -76 0 -5 -8 -9 -17 -9 -15 1 -14 4 6 21 17 14 21 23
13 27 -7 5 -8 13 -2 22 6 8 10 27 10 43 0 16 5 26 13 25 6 -2 11 3 10 9 -2 7
0 12 5 12 19 -3 22 3 12 22 -6 11 -13 50 -15 87 -3 62 -1 68 22 86 37 28 97
44 107 28z m-241 -31 c3 -11 2 -22 -1 -25 -7 -8 -72 -8 -72 0 0 13 29 34 35
24 10 -16 28 -12 21 5 -3 8 -2 15 3 15 5 0 11 -9 14 -19z m-99 -49 c-22 -5
-31 7 -14 18 9 6 17 5 22 -3 4 -7 1 -13 -8 -15z m156 -2 c0 -11 -2 -20 -4 -20
-2 0 -6 9 -9 20 -3 11 -1 20 4 20 5 0 9 -9 9 -20z m44 -32 c-4 -13 -7 -33 -5
-45 1 -13 -3 -23 -10 -23 -8 0 -10 12 -5 42 4 22 9 45 12 50 11 17 16 0 8 -24z
m336 -23 c0 -8 -9 -15 -20 -15 -20 0 -26 11 -13 23 12 13 33 7 33 -8z m-513
-21 c-3 -3 -12 -4 -19 -1 -8 3 -5 6 6 6 11 1 17 -2 13 -5z m469 -13 c-8 -12
21 -34 33 -27 6 4 15 -2 20 -13 14 -25 14 -31 1 -31 -6 0 -21 -11 -34 -24 -20
-23 -26 -24 -64 -14 -36 9 -40 12 -29 28 6 10 15 16 19 14 4 -3 8 2 8 10 0 9
5 16 10 16 6 0 10 11 10 25 0 16 6 25 16 25 8 0 13 -4 10 -9z m-136 -16 c0 -8
-9 -15 -20 -15 -25 0 -26 17 -2 23 9 3 18 5 20 6 1 0 2 -6 2 -14z m38 -96 c17
-6 52 -14 79 -19 l48 -8 -40 0 c-22 -1 -65 7 -95 18 -30 11 -48 19 -39 20 9 0
30 -5 47 -11z m782 -23 c73 -48 99 -150 59 -232 -28 -58 -39 -66 -113 -70 -66
-4 -96 9 -62 28 11 6 15 16 11 29 -8 23 13 25 41 4 17 -13 54 -21 54 -11 0 2
-7 20 -15 39 -15 36 -15 36 20 63 19 14 35 30 35 35 0 5 -23 9 -50 9 -46 0
-51 3 -61 28 -6 15 -13 42 -16 59 -7 41 -19 35 -28 -14 -11 -65 -30 -85 -77
-81 -55 4 -58 -13 -7 -41 36 -20 40 -26 34 -50 -8 -34 -13 -38 -56 -46 -34 -6
-37 -5 -48 26 -14 40 -14 109 0 146 39 103 182 144 279 79z m-643 18 c-3 -3
-12 -4 -19 -1 -8 3 -5 6 6 6 11 1 17 -2 13 -5z m-161 -29 c-3 -8 -1 -15 4 -15
6 0 10 4 10 10 0 5 7 7 15 4 8 -4 12 -10 9 -15 -3 -5 -1 -9 5 -9 5 0 13 5 16
10 10 16 35 12 35 -6 0 -13 3 -14 15 -4 8 6 23 9 35 5 11 -4 20 -2 20 4 0 6 5
11 11 11 24 0 0 -25 -27 -28 -126 -11 -214 -13 -214 -3 0 6 7 8 17 4 11 -4 14
-3 9 5 -4 7 -1 18 6 26 17 20 42 20 34 1z m201 9 c-3 -3 -12 -4 -19 -1 -8 3
-5 6 6 6 11 1 17 -2 13 -5z m507 -80 c9 -22 8 -24 -9 -24 -8 0 -15 9 -15 20 0
24 15 27 24 4z m-729 -4 c-3 -5 -22 -10 -41 -10 -19 0 -34 5 -34 10 0 6 18 10
41 10 24 0 38 -4 34 -10z m65 -35 c17 -9 30 -20 30 -26 0 -8 -4 -8 -13 -1 -7
7 -29 18 -48 26 -20 9 -27 15 -16 16 10 0 31 -7 47 -15z m-140 2 c0 -2 -15
-14 -32 -27 l-33 -23 24 26 c21 23 41 35 41 24z m828 -30 c5 -27 -27 -48 -50
-33 -21 13 -23 27 -6 44 18 18 52 11 56 -11z m44 11 c-9 -9 -15 -9 -24 0 -9 9
-7 12 12 12 19 0 21 -3 12 -12z m-135 -4 c-3 -3 -12 -4 -19 -1 -8 3 -5 6 6 6
11 1 17 -2 13 -5z m-599 -30 l23 -16 -31 -35 c-17 -19 -39 -51 -48 -69 -8 -19
-20 -34 -25 -34 -6 0 -5 5 0 13 6 6 13 37 17 69 10 93 20 103 64 72z m83 -11
l24 -28 -30 25 c-16 14 -32 26 -34 28 -2 1 0 2 6 2 5 0 20 -12 34 -27z m-192
-15 c-2 -36 -16 -87 -18 -63 -1 11 -5 27 -10 34 -6 10 -8 0 -5 -30 4 -33 3
-40 -5 -29 -16 23 -13 71 6 92 22 24 33 23 32 -4z m31 -15 c-15 -70 -19 -78
-15 -30 4 45 11 67 20 67 1 0 -1 -17 -5 -37z m702 -5 c-15 -15 -26 -4 -18 18
5 13 9 15 18 6 9 -9 9 -15 0 -24z m96 4 c2 -7 -2 -10 -12 -6 -9 3 -16 11 -16
16 0 13 23 5 28 -10z m-628 -60 c0 -4 -15 -16 -33 -25 -19 -10 -51 -42 -72
-70 -26 -34 -40 -46 -43 -37 -5 15 -21 30 -34 30 -4 0 -1 -12 7 -27 17 -33 9
-46 -11 -19 -34 47 2 90 37 45 l19 -24 -6 50 c-4 37 -3 46 5 35 6 -8 8 -23 5
-32 -3 -10 -1 -18 5 -18 6 0 11 8 11 18 0 9 11 34 25 54 14 20 25 39 25 41 0
11 -37 2 -48 -12 -11 -14 -12 -13 -2 6 5 12 20 29 33 38 21 15 23 14 50 -15
15 -17 27 -34 27 -38z m503 2 c-40 -17 -43 -33 -5 -33 15 0 52 -4 82 -9 l55
-8 -42 -8 c-24 -4 -56 -5 -73 -1 -18 4 -30 3 -30 -4 0 -13 64 -25 87 -17 12 5
15 4 8 -3 -5 -5 -36 -11 -67 -13 l-57 -3 4 28 c6 32 1 33 -32 7 -14 -11 -34
-20 -45 -20 -15 0 -17 -5 -12 -27 4 -22 3 -25 -5 -13 -9 13 -11 12 -11 -5 -1
-19 -1 -19 -11 -2 -6 9 -15 15 -20 11 -6 -4 -6 -11 2 -20 10 -12 9 -13 -4 -8
-12 4 -18 -2 -23 -21 -5 -19 -9 -24 -18 -15 -8 8 -7 13 4 20 11 7 12 10 2 10
-8 0 -12 9 -11 23 2 12 0 28 -5 36 -11 18 12 33 42 26 15 -4 22 -1 22 10 0 8
8 15 18 15 10 0 33 13 52 30 28 23 44 29 80 29 l45 -1 -32 -14z m-836 -26 c-3
-8 -6 -5 -6 6 -1 11 2 17 5 13 3 -3 4 -12 1 -19z m-20 -30 c-3 -8 -6 -5 -6 6
-1 11 2 17 5 13 3 -3 4 -12 1 -19z m123 -31 c0 -5 -9 -2 -20 8 -11 10 -20 25
-20 34 1 12 5 10 20 -8 11 -13 20 -28 20 -34z m1238 29 c-3 -17 0 -27 11 -31
14 -6 14 -7 -2 -16 -9 -6 -15 -14 -12 -20 4 -5 1 -9 -5 -9 -7 0 -9 8 -5 20 5
15 2 20 -12 21 -10 0 -13 3 -5 6 6 2 12 11 12 20 0 10 -7 13 -22 9 -15 -4 -12
-1 7 9 39 19 38 19 33 -9z m-1011 8 c-3 -3 -12 -4 -19 -1 -8 3 -5 6 6 6 11 1
17 -2 13 -5z m850 -51 c-3 -10 -5 -2 -5 17 0 19 2 27 5 18 2 -10 2 -26 0 -35z
m-897 30 c-1 -5 -12 -21 -25 -38 -30 -36 -34 -19 -4 19 21 26 29 32 29 19z
m60 -43 c5 0 12 5 15 10 10 17 35 11 35 -8 0 -9 -12 -35 -27 -57 -25 -37 -27
-37 -34 -17 -5 12 -13 22 -20 22 -6 0 -9 7 -5 15 8 22 -3 18 -25 -7 -20 -23
-20 -23 -10 -1 14 28 14 36 -1 27 -7 -4 -2 5 11 19 20 23 25 24 38 11 8 -7 18
-14 23 -14z m104 -9 c3 -5 -6 -30 -20 -57 -16 -30 -22 -50 -15 -52 20 -7 11
-20 -9 -15 -11 3 -20 0 -20 -6 0 -6 5 -11 12 -11 6 0 8 -3 5 -6 -4 -4 -13 -1
-21 5 -10 8 -16 9 -21 1 -6 -9 -1 -13 33 -22 10 -3 8 -10 -7 -30 -12 -14 -21
-34 -22 -45 0 -14 -2 -13 -10 6 -5 13 -7 26 -4 29 3 3 -4 11 -15 19 -11 8 -20
21 -20 29 0 17 107 164 120 164 5 0 11 -4 14 -9z m-368 -138 c-5 -5 -46 116
-45 131 0 6 11 -20 25 -58 13 -38 22 -71 20 -73z m1398 125 c-3 -5 -10 -6 -15
-2 -6 3 -13 -4 -16 -15 -4 -16 -9 -19 -18 -11 -7 6 -17 10 -21 9 -23 -4 -26 2
-8 16 19 15 87 18 78 3z m-694 -18 c-14 -10 -27 -17 -29 -15 -8 8 22 35 38 35
12 0 10 -5 -9 -20z m125 9 c4 -6 13 -8 20 -5 14 5 25 -14 25 -42 -1 -15 -3
-14 -16 3 -8 11 -19 19 -23 18 -4 -1 -12 7 -19 18 -7 10 -8 19 -3 19 6 0 13
-5 16 -11z m-797 -54 c0 -16 -2 -15 -8 5 -11 34 -11 60 0 35 5 -11 8 -29 8
-40z m112 30 c0 -9 -6 -12 -15 -9 -8 4 -12 10 -9 15 8 14 24 10 24 -6z m650 0
c8 -9 9 -15 2 -15 -6 0 -13 4 -17 10 -3 5 -13 6 -22 3 -11 -4 -14 -3 -9 5 10
16 31 15 46 -3z m-850 -48 c7 -21 10 -40 8 -42 -2 -3 -12 18 -21 47 -9 28 -12
47 -8 42 5 -5 14 -26 21 -47z m270 33 c-6 -11 -16 -20 -22 -20 -6 0 -3 9 7 20
10 11 20 20 22 20 2 0 -1 -9 -7 -20z m181 7 c-6 -8 -8 -17 -4 -20 3 -4 1 -7
-5 -7 -16 0 -15 27 1 33 19 8 20 8 8 -6z m-163 -26 c-7 -12 -16 -21 -21 -21
-4 0 0 11 9 25 20 30 31 26 12 -4z m369 -3 c-3 -7 -5 -2 -5 12 0 14 2 19 5 13
2 -7 2 -19 0 -25z m360 10 c-3 -8 -6 -5 -6 6 -1 11 2 17 5 13 3 -3 4 -12 1
-19z m-251 0 c5 -7 2 -9 -8 -5 -25 9 -36 -11 -32 -61 3 -43 3 -44 -5 -14 -5
19 -14 39 -20 45 -8 8 -3 16 17 29 32 21 38 22 48 6z m204 -17 c-12 -23 -29
-35 -37 -27 -3 3 5 14 18 25 30 25 32 26 19 2z m-170 -1 c0 -5 -5 -10 -11 -10
-5 0 -7 5 -4 10 3 6 8 10 11 10 2 0 4 -4 4 -10z m343 -9 c-3 -13 2 -23 16 -30
24 -13 18 -41 -9 -41 -16 0 -60 -47 -60 -64 0 -11 -68 -112 -84 -125 -31 -26
-16 8 42 95 79 120 82 127 76 146 -6 19 2 38 16 38 4 0 6 -9 3 -19z m141 4 c3
-9 0 -15 -10 -15 -8 0 -28 -7 -43 -15 -24 -12 -31 -12 -40 -1 -13 15 1 31 34
39 38 9 53 7 59 -8z m-755 -27 c9 -24 8 -34 -1 -40 -21 -13 -23 -10 -23 32 0
48 9 51 24 8z m-93 -26 c-12 -11 -18 7 -10 30 l8 23 4 -23 c2 -13 1 -26 -2
-30z m-209 -19 c-3 -10 -5 -2 -5 17 0 19 2 27 5 18 2 -10 2 -26 0 -35z m352
-40 c-24 -44 -33 -51 -44 -33 -3 6 -15 10 -26 10 -30 0 -22 16 13 26 20 6 34
17 37 29 2 11 8 26 14 33 8 11 12 10 20 -4 7 -13 3 -29 -14 -61z m452 40 c-12
-20 -14 -14 -5 12 4 9 9 14 11 11 3 -2 0 -13 -6 -23z m-984 -78 c10 -34 -13
-4 -26 34 -17 51 -13 72 5 26 8 -22 18 -49 21 -60z m953 88 c0 -5 -5 -15 -10
-23 -8 -12 -10 -11 -10 8 0 12 5 22 10 22 6 0 10 -3 10 -7z m-93 -55 c-2 -13
-4 -5 -4 17 -1 22 1 32 4 23 2 -10 2 -28 0 -40z m-367 32 c0 -5 -8 -10 -17
-10 -15 0 -16 2 -3 10 19 12 20 12 20 0z m648 -31 c1 -13 9 -40 17 -59 17 -43
54 -164 52 -167 -10 -10 -32 29 -70 122 -34 81 -43 113 -35 123 16 18 33 9 36
-19z m-768 6 c-7 -8 -10 -22 -6 -30 3 -8 1 -15 -4 -15 -11 0 -14 43 -3 53 13
14 25 7 13 -8z m60 11 c0 -2 -9 -6 -20 -9 -11 -3 -18 -1 -14 4 5 9 34 13 34 5z
m170 -28 c0 -16 -3 -19 -11 -11 -6 6 -8 16 -5 22 11 17 16 13 16 -11z m-263
-24 c-3 -3 -12 -4 -19 -1 -8 3 -5 6 6 6 11 1 17 -2 13 -5z m-270 -40 c-2 -2
-15 0 -28 5 -17 7 -19 10 -6 10 9 1 17 7 17 14 0 6 5 4 11 -6 6 -10 9 -21 6
-23z m386 22 c4 -10 1 -13 -9 -9 -15 6 -19 23 -5 23 5 0 11 -7 14 -14z m84 -8
c-3 -8 -6 -5 -6 6 -1 11 2 17 5 13 3 -3 4 -12 1 -19z m-577 -8 c0 -5 -5 -10
-11 -10 -5 0 -7 5 -4 10 3 6 8 10 11 10 2 0 4 -4 4 -10z m345 0 c22 -5 -84
-18 -145 -18 l-65 1 60 12 c53 10 120 13 150 5z m195 -15 c0 -8 -7 -15 -16
-15 -14 0 -14 3 -4 15 7 8 14 15 16 15 2 0 4 -7 4 -15z m-470 -17 c0 -13 -23
-5 -28 10 -2 7 2 10 12 6 9 -3 16 -11 16 -16z m117 -40 c-3 -7 -5 -2 -5 12 0
14 2 19 5 13 2 -7 2 -19 0 -25z m250 10 c-3 -8 -6 -5 -6 6 -1 11 2 17 5 13 3
-3 4 -12 1 -19z m-96 -5 c13 -17 13 -17 -6 -3 -11 8 -22 16 -24 17 -2 2 0 3 6
3 6 0 17 -8 24 -17z m195 8 c-7 -11 -56 -21 -56 -10 0 9 19 17 43 18 10 1 16
-3 13 -8z m184 -22 c87 -27 222 -81 216 -86 -7 -7 -268 87 -285 103 -7 7 2 4
69 -17z m-74 -26 c-8 -8 -36 5 -36 17 0 7 6 7 21 0 11 -7 18 -14 15 -17z
m-202 -14 c5 -4 -8 -4 -29 1 -20 4 -39 11 -43 14 -8 9 62 -5 72 -15z m-144 -9
c30 -10 48 -19 40 -19 -24 -1 -89 19 -95 29 -8 13 -10 13 55 -10z m-210 0 c0
-5 -2 -10 -4 -10 -3 0 -8 5 -11 10 -3 6 -1 10 4 10 6 0 11 -4 11 -10z m617
-16 c-9 -9 -28 6 -21 18 4 6 10 6 17 -1 6 -6 8 -13 4 -17z m-484 -4 c3 -11 1
-20 -4 -20 -5 0 -9 9 -9 20 0 11 2 20 4 20 2 0 6 -9 9 -20z m-86 -27 c-3 -10
-5 -4 -5 12 0 17 2 24 5 18 2 -7 2 -21 0 -30z m1226 22 c7 -17 5 -18 -47 -35
-32 -10 -40 -10 -47 1 -6 10 1 19 24 31 40 21 63 22 70 3z m-586 -10 c7 -20
-2 -29 -21 -22 -9 4 -13 13 -10 22 8 19 23 19 31 0z m-1164 -11 c4 -1 10 -2
13 -3 3 0 2 -6 -1 -11 -7 -12 -45 5 -45 21 0 6 5 7 13 2 6 -4 15 -8 20 -9z
m577 -10 c0 -8 -4 -12 -10 -9 -5 3 -10 13 -10 21 0 8 5 12 10 9 6 -3 10 -13
10 -21z m300 15 c16 -6 34 -28 50 -62 l25 -52 -29 -42 c-17 -24 -38 -43 -47
-43 -10 0 -19 -5 -21 -11 -2 -5 -11 -7 -21 -4 -15 7 -15 10 5 39 l22 31 -26
-23 c-22 -20 -26 -21 -32 -7 -3 9 -2 14 3 11 5 -3 11 1 15 9 3 8 1 15 -5 15
-6 0 -7 4 -4 10 3 6 -1 7 -10 4 -11 -4 -14 -2 -9 9 4 11 0 15 -12 13 -10 -2
-20 -9 -22 -17 -3 -11 -1 -11 7 1 6 8 11 10 11 4 0 -16 -10 -23 -26 -17 -9 3
-12 13 -9 27 6 21 6 21 -11 1 -16 -20 -16 -20 -9 4 5 16 4 21 -4 17 -6 -4 -11
-2 -11 4 0 6 -4 8 -10 5 -5 -3 -10 1 -10 10 0 10 -5 13 -12 9 -8 -5 -9 -2 -5
9 3 10 2 17 -3 17 -5 0 -7 8 -4 18 5 14 3 14 -10 -2 -9 -11 -16 -15 -16 -10 0
6 5 15 11 21 13 13 195 15 229 2z m565 -9 c3 -5 -4 -6 -15 -3 -11 3 -22 9 -25
13 -3 5 4 6 15 3 11 -3 22 -9 25 -13z m185 -1 c0 -6 -4 -7 -10 -4 -5 3 -10 11
-10 16 0 6 5 7 10 4 6 -3 10 -11 10 -16z m-1176 -20 c10 -50 7 -69 -9 -69 -11
0 -15 12 -15 50 0 56 14 67 24 19z m789 15 c7 -7 -13 -54 -24 -54 -6 0 -6 44
0 58 2 4 18 2 24 -4z m-626 -41 c-3 -10 -5 -4 -5 12 0 17 2 24 5 18 2 -7 2
-21 0 -30z m-577 -5 c0 -5 -7 -8 -15 -8 -17 0 -18 2 -9 25 5 13 8 14 15 3 5
-7 9 -16 9 -20z m1264 10 c-10 -32 -31 -61 -37 -51 -7 11 23 73 35 73 5 0 6
-10 2 -22z m-755 -43 c0 -5 -4 -3 -9 5 -5 8 -9 22 -9 30 0 16 17 -16 18 -35z
m831 30 l25 -15 -22 -6 c-21 -6 -27 -21 -26 -61 1 -7 -2 -13 -6 -13 -13 0 -51
31 -51 42 0 6 3 8 7 5 8 -9 32 24 33 46 0 20 7 21 40 2z m-1080 -5 c0 -5 -2
-10 -4 -10 -3 0 -8 5 -11 10 -3 6 -1 10 4 10 6 0 11 -4 11 -10z m-51 -19 c7
-5 9 -11 4 -14 -4 -3 -17 1 -28 9 -21 16 0 20 24 5z m136 -2 c16 -7 12 -8 -14
-4 -19 3 -40 0 -48 -6 -15 -13 -28 -6 -18 10 8 13 53 13 80 0z m715 -10 c0 -6
-4 -7 -10 -4 -5 3 -10 11 -10 16 0 6 5 7 10 4 6 -3 10 -11 10 -16z m360 -11
c0 -4 -6 -8 -14 -8 -16 0 -26 -21 -26 -56 0 -28 27 -33 37 -6 4 9 13 21 20 25
11 7 11 12 2 23 -9 11 -8 14 2 14 8 0 20 -4 28 -9 11 -7 8 -16 -17 -42 -27
-29 -33 -59 -11 -59 5 0 9 -15 9 -32 l-1 -33 -13 30 c-7 17 -33 44 -57 60 -24
16 -46 31 -49 33 -3 2 3 8 13 13 9 6 17 17 17 24 0 8 5 15 11 15 6 0 8 9 4 20
-6 19 -4 19 19 9 14 -7 26 -16 26 -21z m79 21 c17 -6 31 -15 31 -21 0 -10 -32
-3 -70 18 -31 17 -6 19 39 3z m-1485 -15 c9 -22 8 -24 -9 -24 -8 0 -15 9 -15
20 0 24 15 27 24 4z m471 -22 c-6 -7 -35 18 -35 31 0 5 9 2 20 -8 11 -10 18
-20 15 -23z m-190 -12 c-4 -12 -2 -20 6 -20 9 0 9 -3 0 -14 -9 -10 -8 -15 4
-20 19 -7 19 -32 0 -40 -10 -4 -15 1 -15 15 0 11 -6 35 -14 54 -15 35 -12 45
11 45 10 0 12 -6 8 -20z m149 4 c3 -8 2 -12 -4 -9 -6 3 -10 10 -10 16 0 14 7
11 14 -7z m522 -11 c3 -10 10 -26 15 -35 12 -24 13 -23 -23 -24 -29 -1 -30 0
-13 12 15 11 16 17 7 26 -9 9 -12 9 -12 -2 0 -13 -2 -13 -9 -1 -8 13 -12 13
-27 0 -16 -12 -15 -10 1 13 23 31 53 36 61 11z m571 -3 c-27 -22 -37 -25 -37
-12 0 5 10 14 23 20 35 17 42 14 14 -8z m-1498 -37 c6 -27 16 -97 22 -158 7
-60 15 -113 18 -117 10 -11 221 -21 221 -10 0 18 35 7 46 -13 8 -15 7 -26 -5
-45 -17 -27 -19 -52 -7 -87 4 -13 4 -28 0 -35 -5 -7 -7 -46 -5 -85 2 -61 0
-73 -13 -73 -19 0 -21 16 -3 23 10 4 10 7 0 18 -15 15 -18 33 -5 25 12 -7 3
213 -8 233 -6 10 -10 11 -10 4 0 -17 -18 -16 -36 2 -9 8 -22 15 -30 15 -8 0
-17 -7 -20 -15 -4 -8 -13 -15 -21 -15 -9 0 -13 6 -9 15 3 8 1 15 -4 15 -6 0
-10 -4 -10 -10 0 -5 -18 -10 -39 -10 -33 0 -40 4 -45 25 -4 14 -16 29 -27 33
-19 7 -19 9 -5 21 15 12 15 15 -1 26 -15 11 -15 15 -4 29 9 11 10 16 2 16 -6
0 -11 11 -11 25 0 14 5 25 10 25 6 0 10 5 10 10 0 6 -7 10 -15 10 -8 0 -15 7
-15 15 0 8 5 15 10 15 6 0 10 5 10 10 0 6 -7 10 -15 10 -8 0 -15 7 -15 15 0 8
5 15 10 15 15 0 12 19 -5 37 -8 8 -13 19 -10 24 13 20 24 7 34 -38z m-125 -6
c4 -19 3 -26 -4 -22 -5 3 -10 18 -10 32 0 32 5 28 14 -10z m601 6 c20 -21 25
-35 21 -57 -4 -16 -6 -62 -6 -104 0 -41 -2 -73 -6 -70 -3 3 -5 52 -6 108 0 97
-2 105 -26 127 -14 12 -20 23 -14 23 6 0 23 -12 37 -27z m-128 -15 c-3 -8 -6
-5 -6 6 -1 11 2 17 5 13 3 -3 4 -12 1 -19z m334 -4 l40 -17 -30 -18 c-40 -24
-50 -63 -24 -97 11 -15 32 -28 46 -30 15 -2 35 -15 46 -31 18 -25 20 -41 17
-147 -2 -66 -9 -132 -16 -149 -10 -27 -13 -29 -24 -12 -18 24 -36 21 -37 -5 0
-13 -3 -17 -6 -10 -9 22 -23 2 -24 -36 -1 -20 -6 4 -10 53 -5 50 -6 96 -4 103
2 6 1 12 -4 12 -4 0 -8 24 -9 53 -2 28 -7 76 -13 106 -10 49 -8 115 7 206 5
29 5 29 -10 11 -9 -11 -16 -39 -16 -63 0 -24 -4 -43 -10 -43 -6 0 -10 29 -10
66 0 58 -2 65 -15 54 -12 -10 -15 -9 -15 5 0 15 6 17 40 11 22 -3 58 -14 81
-22z m934 16 c3 -5 2 -10 -4 -10 -5 0 -13 5 -16 10 -3 6 -2 10 4 10 5 0 13 -4
16 -10z m-771 -12 c-3 -7 -17 -22 -32 -32 -27 -19 -27 -19 2 12 32 35 38 38
30 20z m276 -44 c0 -8 -4 -14 -8 -14 -4 0 -8 9 -8 19 0 11 4 17 8 15 4 -3 8
-12 8 -20z m-144 -34 c13 -53 11 -63 -21 -80 -20 -11 -27 -10 -53 9 -17 11
-47 25 -68 29 l-39 8 39 8 c28 5 41 4 47 -5 10 -17 23 -4 16 16 -4 9 -19 15
-37 15 -18 0 -30 5 -30 13 0 16 62 36 105 33 27 -1 31 -6 41 -46z m-696 21 c0
-6 -5 -13 -11 -17 -8 -5 -6 -10 5 -16 18 -10 22 -43 6 -53 -7 -4 -5 -14 5 -28
20 -28 19 -37 -2 -37 -17 -1 -17 -1 0 -14 21 -16 22 -26 3 -26 -20 0 -30 38
-16 55 10 12 10 15 0 15 -9 0 -11 9 -7 30 4 16 2 32 -3 35 -11 7 -13 48 -3 58
9 10 23 8 23 -2z m180 -1 c0 -5 -2 -10 -4 -10 -3 0 -8 5 -11 10 -3 6 -1 10 4
10 6 0 11 -4 11 -10z m87 -12 c-3 -8 -6 -5 -6 6 -1 11 2 17 5 13 3 -3 4 -12 1
-19z m-640 -30 c-3 -7 -5 -2 -5 12 0 14 2 19 5 13 2 -7 2 -19 0 -25z m673 -28
c0 -16 -5 -30 -11 -30 -6 0 -9 6 -6 14 3 7 0 19 -6 26 -9 10 -9 11 1 6 6 -4
12 -2 12 3 0 6 2 11 5 11 3 0 5 -13 5 -30z m-353 -2 c-3 -8 -6 -5 -6 6 -1 11
2 17 5 13 3 -3 4 -12 1 -19z m563 18 c0 -2 -7 -7 -16 -10 -8 -3 -12 -2 -9 4 6
10 25 14 25 6z m-322 -31 c-3 -3 -9 2 -12 12 -6 14 -5 15 5 6 7 -7 10 -15 7
-18z m242 19 c0 -8 -19 -13 -24 -6 -3 5 1 9 9 9 8 0 15 -2 15 -3z m145 -32
c-6 -7 -65 9 -65 17 0 5 15 3 34 -3 19 -6 33 -12 31 -14z m-296 -121 c7 -5 16
-31 18 -57 5 -47 4 -49 -25 -60 -17 -7 -33 -9 -36 -6 -8 8 -7 67 1 76 4 3 7
19 8 34 1 15 3 54 5 87 l3 60 6 -63 c4 -37 12 -66 20 -71z m250 101 c7 -14 6
-18 -10 -18 -19 0 -25 16 -12 29 9 10 11 9 22 -11z m181 -14 c0 -12 -3 -18 -7
-15 -10 11 -31 -12 -27 -31 6 -27 -21 -55 -46 -47 -16 5 -20 13 -17 34 4 23 0
29 -26 41 l-32 14 29 7 c16 5 41 6 56 2 15 -3 31 0 34 6 12 19 36 12 36 -11z
m-423 -20 c-3 -8 -6 -5 -6 6 -1 11 2 17 5 13 3 -3 4 -12 1 -19z m250 -20 c-3
-8 -6 -5 -6 6 -1 11 2 17 5 13 3 -3 4 -12 1 -19z m198 -72 c8 -31 15 -65 14
-74 -1 -18 -20 47 -32 107 -11 53 2 31 18 -33z m-1021 19 c-19 -14 -19 -14 1
-15 14 0 16 -3 7 -12 -9 -9 -16 -7 -32 7 -18 16 -24 14 -22 -6 2 -10 -93 -49
-117 -49 -10 0 -22 6 -24 13 -4 9 -8 8 -16 -3 -10 -13 -12 -13 -21 0 -9 13
-10 13 -10 0 0 -13 -2 -13 -9 0 -11 16 -5 31 12 29 35 -4 65 3 83 19 18 17 21
17 34 3 8 -8 14 -18 12 -21 -2 -2 2 -6 8 -8 8 -3 10 3 6 15 -5 17 0 22 36 30
64 16 75 15 52 -2z m463 -7 c-3 -8 -6 -5 -6 6 -1 11 2 17 5 13 3 -3 4 -12 1
-19z m398 12 c-3 -5 -11 -10 -16 -10 -6 0 -7 5 -4 10 3 6 11 10 16 10 6 0 7
-4 4 -10z m135 -20 c0 -17 11 -76 25 -132 21 -86 23 -106 13 -134 -13 -36 0
-64 29 -64 8 0 11 -5 8 -11 -4 -6 -14 -8 -22 -4 -13 4 -15 -1 -10 -31 5 -29 4
-34 -7 -24 -8 6 -12 20 -8 33 5 20 4 20 -11 8 -9 -7 -17 -21 -18 -30 0 -10 -2
-11 -6 -3 -2 6 -11 12 -19 12 -24 0 -15 26 14 40 25 12 26 13 7 21 -11 4 -15
8 -8 8 6 1 11 9 10 19 -1 14 -7 17 -26 14 -23 -5 -25 -3 -12 11 11 14 11 17 0
18 -10 0 -11 2 -1 6 19 7 14 23 -5 16 -16 -6 -16 -5 -4 10 11 14 11 17 -1 17
-23 0 -48 36 -35 50 9 10 8 12 -5 7 -25 -9 -54 58 -36 81 11 13 10 15 -4 9
-10 -3 -18 -2 -18 3 0 6 8 11 18 11 14 1 13 2 -3 7 l-20 5 20 8 c18 7 18 8 -5
9 l-25 1 23 10 c15 5 30 5 42 -1 29 -16 54 -12 68 10 18 29 32 25 32 -10z
m-785 -10 c3 -6 -4 -10 -17 -10 -18 0 -20 2 -8 10 19 12 18 12 25 0z m-179
-67 c9 -72 9 -66 -9 -77 -10 -7 -20 -5 -32 7 -14 15 -15 18 -1 23 11 4 13 14
9 35 -4 19 -1 29 6 29 8 0 10 8 6 20 -3 11 -2 20 4 20 5 0 13 -26 17 -57z
m471 -55 c-3 -7 -5 -2 -5 12 0 14 2 19 5 13 2 -7 2 -19 0 -25z m79 -29 c-20
-40 -20 -55 -2 -40 13 11 15 6 14 -29 l0 -41 -19 31 c-23 38 -24 50 -2 89 23
39 30 32 9 -10z m471 9 c-3 -8 -6 -5 -6 6 -1 11 2 17 5 13 3 -3 4 -12 1 -19z
m-529 -60 c0 -32 -3 -37 -10 -24 -9 16 -4 66 7 66 2 0 3 -19 3 -42z m544 17
c3 -13 1 -22 -3 -19 -9 5 -13 44 -5 44 2 0 6 -11 8 -25z m-925 -41 c18 -14 43
-27 54 -29 60 -12 59 -11 59 -98 0 -70 -3 -85 -20 -99 -19 -17 -19 -19 -2 -50
29 -55 62 -78 62 -43 0 8 5 15 11 15 6 0 9 7 5 15 -3 8 1 21 9 28 12 12 12 20
0 53 -8 21 -14 63 -15 93 l0 54 46 -7 c26 -3 57 -6 70 -6 20 0 23 -5 26 -47 3
-40 6 -48 24 -51 14 -2 22 -11 23 -25 4 -90 15 -133 37 -154 26 -24 26 -25 29
-124 1 -36 5 -70 9 -77 4 -6 30 -11 62 -11 42 1 58 5 67 19 10 17 12 17 22 3
8 -11 18 -14 31 -8 10 4 28 8 39 9 25 1 38 73 29 167 -4 46 -2 69 6 74 18 11
23 -1 10 -25 -9 -17 -8 -26 6 -47 13 -21 15 -39 10 -87 -8 -80 -37 -228 -47
-241 -4 -6 -59 -10 -131 -9 -96 0 -131 5 -160 18 -33 16 -44 16 -85 6 -38 -10
-73 -10 -168 0 -66 7 -146 14 -177 15 -33 2 -75 11 -101 24 -29 14 -54 20 -70
16 -21 -6 -28 -2 -39 19 l-14 26 -39 -35 c-22 -19 -46 -35 -52 -35 -10 0 -13
41 -13 171 0 191 2 198 80 285 21 22 39 45 41 51 2 6 38 31 79 56 41 25 91 62
109 81 19 20 37 36 40 36 2 0 19 -12 38 -26z m702 -72 c1 -27 -3 -41 -9 -37
-5 3 -9 36 -9 73 1 52 3 60 9 37 4 -16 8 -49 9 -73z m-342 21 c-3 -10 -5 -2
-5 17 0 19 2 27 5 18 2 -10 2 -26 0 -35z m265 22 c3 -14 1 -25 -3 -25 -5 0 -9
11 -9 25 0 14 2 25 4 25 2 0 6 -11 8 -25z m-245 -27 c-3 -8 -6 -5 -6 6 -1 11
2 17 5 13 3 -3 4 -12 1 -19z m758 3 c8 -14 -32 -33 -54 -26 -11 3 -25 0 -32
-7 -14 -13 -38 -19 -71 -19 -13 0 -18 -9 -19 -27 -1 -24 -2 -23 -9 8 -11 43
-5 49 62 65 65 16 115 18 123 6z m-688 -48 c-3 -10 -5 -2 -5 17 0 19 2 27 5
18 2 -10 2 -26 0 -35z m90 5 c-3 -7 -5 -2 -5 12 0 14 2 19 5 13 2 -7 2 -19 0
-25z m-220 -30 c-2 -13 -4 -5 -4 17 -1 22 1 32 4 23 2 -10 2 -28 0 -40z m-167
2 c0 -16 -5 -30 -11 -30 -6 0 -8 9 -4 20 4 12 2 20 -5 20 -6 0 -8 5 -5 10 12
20 25 9 25 -20z m397 -12 c-3 -8 -6 -5 -6 6 -1 11 2 17 5 13 3 -3 4 -12 1 -19z
m65 -51 c-8 -29 -32 -51 -32 -28 0 6 4 11 8 11 5 0 7 13 4 30 -2 16 -1 38 3
47 12 30 27 -23 17 -60z m318 53 c0 -5 -4 -10 -10 -10 -5 0 -10 5 -10 10 0 6
5 10 10 10 6 0 10 -4 10 -10z m-461 -115 c0 -11 -7 3 -14 30 -8 28 -14 59 -14
70 1 11 7 -2 15 -30 7 -27 13 -59 13 -70z m-322 63 c-3 -8 -6 -5 -6 6 -1 11 2
17 5 13 3 -3 4 -12 1 -19z m609 10 c3 -4 21 -8 40 -8 19 0 34 -4 34 -9 0 -4
-10 -6 -23 -4 -13 3 -29 -2 -36 -11 -15 -18 -51 -5 -51 19 0 8 -5 15 -11 15
-5 0 -8 -4 -5 -9 3 -5 -5 -11 -19 -13 -29 -6 -32 0 -7 18 19 14 70 16 78 2z
m184 2 c0 -5 -4 -10 -10 -10 -5 0 -10 -5 -10 -11 0 -6 9 -9 20 -6 11 3 18 2
15 -3 -9 -15 -41 -17 -53 -3 -8 7 -8 13 -2 13 5 0 10 7 10 15 0 8 7 15 15 15
8 0 15 -4 15 -10z m-253 -51 c-15 -4 -37 -4 -49 -1 -19 6 -16 8 17 12 48 7 70
-1 32 -11z m-544 -16 c-7 -2 -21 -2 -30 0 -10 3 -4 5 12 5 17 0 24 -2 18 -5z
m567 -13 c0 -5 -7 -7 -15 -4 -8 4 -12 10 -9 15 6 11 24 2 24 -11z m-52 -12
c-2 -13 -9 -22 -15 -21 -6 1 -13 -7 -16 -17 -3 -11 -1 -20 4 -20 10 0 12 -50
3 -74 -7 -18 -74 -23 -74 -6 0 6 14 10 30 10 38 0 40 20 3 21 -24 2 -25 2 -5
6 31 6 28 23 -5 24 l-28 2 28 4 c15 2 27 9 27 14 0 5 -12 10 -27 10 -21 1 -23
3 -8 6 45 10 48 12 34 29 -11 13 -9 14 14 9 16 -4 27 -3 27 3 0 6 -8 13 -17
15 -13 3 -12 5 5 6 19 1 23 -3 20 -21z m-248 -28 c0 -13 -1 -13 -10 0 -5 8
-10 22 -10 30 0 13 1 13 10 0 5 -8 10 -22 10 -30z m110 -35 c-10 -12 -10 -15
-1 -15 8 0 10 -8 6 -19 -3 -11 -1 -22 5 -26 12 -7 14 -131 2 -139 -5 -3 -26 1
-48 9 -28 10 -34 15 -23 20 9 3 22 5 29 3 7 -2 15 3 17 10 3 8 -8 13 -34 14
l-38 1 38 4 c45 5 46 29 1 26 -29 -2 -29 -2 4 8 17 5 32 14 32 19 0 6 -15 11
-32 12 l-33 1 33 4 c17 2 32 8 32 14 0 10 -9 12 -50 11 l-25 -1 28 11 c15 7
27 20 27 29 0 20 33 44 38 28 2 -5 -2 -16 -8 -24z m98 -112 c-10 -2 -26 -2
-35 0 -10 3 -2 5 17 5 19 0 27 -2 18 -5z m-3 -33 c-3 -5 -15 -10 -26 -10 -10
0 -19 5 -19 10 0 6 12 10 26 10 14 0 23 -4 19 -10z m1024 -56 c2 -2 -27 -4
-65 -3 -49 1 -62 3 -44 9 23 7 99 3 109 -6z m81 -9 c0 -8 -7 -15 -15 -15 -26
0 -18 20 13 29 1 1 2 -6 2 -14z m-905 -62 c-5 -27 -8 -56 -7 -65 0 -10 -3 -20
-9 -23 -11 -7 -12 23 -3 89 4 25 11 46 16 46 7 0 7 -18 3 -47z m682 36 c-38
-4 -127 -22 -198 -39 -72 -17 -133 -30 -135 -27 -4 4 173 57 231 70 11 3 54 5
95 5 l75 -1 -68 -8z m134 -20 c83 -14 93 -29 12 -18 -117 16 -233 -4 -448 -76
-133 -45 -250 -73 -260 -63 -3 3 -3 17 0 31 5 17 12 24 22 20 12 -5 12 -7 1
-15 -8 -6 3 -7 32 -3 25 3 50 11 55 17 7 7 -2 9 -30 4 -47 -8 -28 8 24 19 26
5 32 4 26 -6 -6 -9 -3 -11 11 -6 109 33 371 94 434 100 19 2 39 5 43 5 5 1 39
-3 78 -9z m75 -47 c19 -11 19 -11 -1 -11 -11 0 -44 4 -72 8 -66 9 -179 -3
-258 -29 -33 -10 -96 -29 -140 -40 -44 -12 -120 -32 -170 -45 -49 -14 -101
-24 -115 -24 -14 0 9 9 50 18 41 10 145 40 230 68 85 27 171 55 190 61 44 14
259 9 286 -6z m-1927 -27 c20 -1 54 -9 75 -19 26 -12 49 -16 72 -12 18 4 51 2
71 -3 44 -12 266 -16 303 -6 16 4 42 -1 69 -13 l45 -18 -260 2 c-142 2 -281 8
-308 14 -27 6 -68 8 -92 4 -24 -3 -66 -1 -94 6 -42 10 -49 15 -39 26 6 8 18
14 26 14 7 0 23 9 35 20 20 19 23 19 40 3 11 -9 36 -18 57 -18z m1921 -14 c15
-4 -9 -7 -60 -8 -87 0 -196 -19 -307 -53 -33 -10 -83 -21 -110 -24 -26 -4 -70
-12 -98 -20 -27 -8 -76 -18 -107 -21 -58 -7 -72 -17 -42 -29 15 -6 92 10 354
74 160 38 285 55 347 45 47 -8 47 -8 -54 -21 -56 -8 -166 -30 -245 -50 -78
-20 -199 -42 -268 -50 -69 -7 -126 -13 -127 -14 -2 0 -3 -7 -3 -16 0 -8 3 -13
8 -10 4 2 55 10 112 16 58 7 150 23 205 37 198 49 271 63 343 63 56 0 72 -3
72 -15 0 -8 -13 -16 -32 -19 -133 -19 -311 -51 -408 -71 -76 -16 -147 -25
-210 -25 -95 0 -96 0 -113 29 -24 41 -22 71 4 71 11 0 68 11 127 25 136 31
388 83 427 88 51 7 159 5 185 -2z m-1140 -51 c-14 -4 -50 -8 -80 -8 -53 1 -54
1 -15 8 22 4 58 7 80 8 34 0 36 -1 15 -8z m-723 -18 c22 -12 123 -17 308 -16
161 1 134 -11 -50 -21 -78 -5 -148 -3 -200 5 -44 7 -96 13 -115 15 -42 3 -151
23 -157 28 -8 9 197 -2 214 -11z m789 -21 c-12 -22 -24 -30 -53 -34 -21 -2
-85 -11 -143 -20 -135 -21 -360 -35 -430 -27 -45 5 -28 7 95 15 83 5 155 10
160 10 38 4 137 18 234 32 93 14 115 20 119 35 2 10 11 18 18 18 12 0 12 -4 0
-29z m231 -3 c-3 -7 -5 -2 -5 12 0 14 2 19 5 13 2 -7 2 -19 0 -25z m-57 12 c0
-5 -4 -10 -10 -10 -5 0 -10 5 -10 10 0 6 5 10 10 10 6 0 10 -4 10 -10z m-17
-33 c-7 -11 -23 2 -23 19 0 12 2 12 14 2 8 -7 12 -16 9 -21z m-1018 7 c124
-24 300 -28 465 -10 80 9 168 18 195 21 46 4 47 4 15 -5 -73 -20 -271 -39
-425 -41 -195 -2 -305 8 -353 33 l-36 18 29 -1 c17 0 66 -7 110 -15z m-36 -44
c31 0 108 -9 171 -21 85 -16 139 -20 205 -16 78 4 87 3 70 -9 -10 -8 -28 -15
-39 -15 -49 -3 -145 3 -191 11 -27 5 -88 14 -135 20 -47 6 -101 13 -120 16
-19 3 -32 3 -29 0 6 -6 143 -32 228 -42 29 -3 65 -10 80 -15 21 -7 18 -8 -14
-4 -22 3 -85 10 -139 15 -103 11 -160 23 -186 40 -12 8 -12 10 5 10 19 1 19 1
3 14 -10 7 -18 19 -18 25 0 8 10 4 26 -8 20 -16 41 -21 83 -21z m887 -21 l-11
-41 -45 7 c-25 4 -51 11 -57 17 -7 6 -27 8 -45 5 -18 -3 -51 -3 -73 1 -40 8
-39 8 35 21 41 7 89 17 105 21 17 5 46 9 66 9 l36 1 -11 -41z m1104 -108 c0
-133 -2 -149 -17 -153 -36 -9 -229 -1 -259 11 -25 10 -31 17 -26 33 4 18 3 19
-17 7 -11 -8 -21 -20 -21 -27 0 -9 -13 -3 -34 16 -51 45 -184 92 -261 92 -48
0 -68 5 -89 21 -48 38 -35 46 92 53 72 4 168 19 252 38 131 30 282 55 348 57
l32 1 0 -149z m-880 109 c0 -5 -5 -10 -11 -10 -5 0 -7 5 -4 10 3 6 8 10 11 10
2 0 4 -4 4 -10z m-597 -17 c-7 -2 -19 -2 -25 0 -7 3 -2 5 12 5 14 0 19 -2 13
-5z m-513 -38 c36 -8 112 -15 170 -16 68 0 98 -3 85 -9 -61 -26 -365 12 -365
46 0 2 10 2 23 -1 12 -3 51 -12 87 -20z m759 -27 l43 -25 -46 -7 c-25 -4 -46
-11 -46 -15 0 -5 31 -11 69 -13 48 -4 85 -13 119 -31 59 -31 168 -36 188 -8
17 22 44 -3 44 -40 l0 -29 -112 -1 c-62 0 -256 -3 -432 -5 -311 -5 -319 -5
-338 15 -10 12 -36 24 -57 27 -20 3 -42 13 -48 22 -9 15 -3 17 59 14 38 -2 77
0 86 4 9 4 22 8 27 9 6 1 27 9 49 18 21 9 49 17 61 17 25 0 85 30 85 43 0 4
-6 7 -12 5 -7 -1 -26 2 -43 6 -29 8 -29 9 -7 15 13 3 78 6 145 5 113 0 126 -2
166 -26z m141 7 c0 -8 -4 -15 -10 -15 -5 0 -10 7 -10 15 0 8 5 15 10 15 6 0
10 -7 10 -15z m-905 -15 c27 -7 25 -8 -17 -9 -27 0 -48 4 -48 9 0 11 21 11 65
0z m1071 -30 c-14 -17 -26 -29 -26 -25 0 12 42 66 47 61 3 -3 -6 -19 -21 -36z
m-639 24 c-3 -3 -12 -4 -19 -1 -8 3 -5 6 6 6 11 1 17 -2 13 -5z m-158 -30
c-10 -13 -10 -17 2 -25 20 -14 -109 -5 -196 14 l-70 15 121 -6 c85 -3 123 -2
128 7 4 6 12 11 18 11 6 0 5 -6 -3 -16z m85 7 c5 -7 -42 -31 -60 -31 -11 0 11
30 24 33 28 8 31 7 36 -2z m-362 -12 c4 -12 86 -32 105 -25 8 3 11 1 8 -4 -3
-6 -13 -10 -21 -10 -8 0 -14 -2 -14 -4 0 -2 -3 -11 -6 -20 -4 -11 0 -16 14
-16 12 0 24 -4 27 -10 3 -5 26 -10 50 -10 45 0 75 -19 33 -21 -108 -6 -130 -3
-147 16 -10 11 -22 30 -25 42 -4 12 -15 24 -24 27 -9 3 -23 15 -30 26 -11 17
-10 20 7 20 11 0 21 -5 23 -11z m1368 -19 c0 -5 -6 -10 -14 -10 -8 0 -18 5
-21 10 -3 6 3 10 14 10 12 0 21 -4 21 -10z m37 -6 c-3 -3 -12 -4 -19 -1 -8 3
-5 6 6 6 11 1 17 -2 13 -5z m-63 -55 c14 -23 24 -44 21 -47 -3 -3 -5 0 -5 7 0
9 -11 11 -39 6 -36 -6 -40 -5 -38 14 1 11 7 23 15 26 8 3 11 12 8 20 -11 30
11 14 38 -26z m173 20 c35 -11 83 -45 83 -60 0 -5 -47 -9 -105 -9 -69 0 -105
4 -105 11 0 6 -9 23 -20 39 -11 15 -17 29 -15 32 7 7 127 -3 162 -13z"/>
<path d="M600 2980 c0 -5 5 -10 10 -10 6 0 10 5 10 10 0 6 -4 10 -10 10 -5 0
-10 -4 -10 -10z"/>
<path d="M1320 2620 c0 -5 5 -10 10 -10 6 0 10 5 10 10 0 6 -4 10 -10 10 -5 0
-10 -4 -10 -10z"/>
<path d="M1200 2589 c0 -5 5 -7 10 -4 6 3 10 8 10 11 0 2 -4 4 -10 4 -5 0 -10
-5 -10 -11z"/>
<path d="M1230 2580 c-12 -8 -11 -10 8 -10 12 0 22 5 22 10 0 13 -11 13 -30 0z"/>
<path d="M920 2380 c0 -5 7 -10 16 -10 8 0 12 5 9 10 -3 6 -10 10 -16 10 -5 0
-9 -4 -9 -10z"/>
<path d="M1740 2400 c0 -5 5 -10 10 -10 6 0 10 5 10 10 0 6 -4 10 -10 10 -5 0
-10 -4 -10 -10z"/>
<path d="M1075 1920 c-10 -11 -16 -22 -13 -25 3 -3 13 4 23 15 10 11 16 22 13
25 -3 3 -13 -4 -23 -15z"/>
<path d="M390 1610 c0 -5 5 -10 11 -10 5 0 7 5 4 10 -3 6 -8 10 -11 10 -2 0
-4 -4 -4 -10z"/>
<path d="M588 1593 c7 -3 16 -2 19 1 4 3 -2 6 -13 5 -11 0 -14 -3 -6 -6z"/>
<path d="M140 1570 c0 -5 5 -10 10 -10 6 0 10 5 10 10 0 6 -4 10 -10 10 -5 0
-10 -4 -10 -10z"/>
<path d="M2025 521 c-3 -12 -15 -21 -25 -21 -27 0 -36 -21 -16 -35 15 -11 14
-13 -6 -19 -23 -6 -23 -7 -4 -21 17 -13 18 -15 3 -15 -19 0 -21 -8 -8 -28 7
-11 9 -11 14 2 4 9 13 16 21 16 11 0 13 -9 9 -39 -3 -21 0 -47 6 -57 9 -16 10
-11 11 26 0 63 10 74 54 66 45 -9 74 6 31 15 l-30 7 35 1 c31 1 33 3 17 15
-10 8 -15 20 -11 30 4 12 0 16 -15 16 -12 0 -21 5 -21 10 0 6 -12 11 -27 11
l-28 1 30 7 c39 8 38 25 -2 29 -24 2 -33 -1 -38 -17z m52 3 c-3 -3 -12 -4 -19
-1 -8 3 -5 6 6 6 11 1 17 -2 13 -5z m6 -91 c-7 -2 -21 -2 -30 0 -10 3 -4 5 12
5 17 0 24 -2 18 -5z"/>
<path d="M2056 383 c-11 -11 -6 -23 9 -23 8 0 15 4 15 9 0 13 -16 22 -24 14z"/>
<path d="M900 361 c0 -6 16 -11 39 -11 21 0 58 -7 81 -15 50 -18 50 -18 50 -7
0 15 -50 32 -111 39 -41 4 -59 2 -59 -6z"/>
<path d="M1005 312 c40 -19 57 -20 39 -2 -5 5 -25 12 -44 15 l-35 6 40 -19z"/>
<path d="M1085 300 c-4 -6 7 -10 27 -10 25 0 29 3 18 10 -19 13 -37 13 -45 0z"/>
<path d="M1435 200 c-27 -3 -41 -10 -43 -22 -4 -19 13 -25 23 -8 14 23 20 7
20 -52 0 -49 3 -63 15 -63 11 0 16 15 18 63 3 61 13 79 26 45 5 -11 10 -13 17
-6 13 13 2 40 -19 45 -9 2 -35 1 -57 -2z"/>
<path d="M78 188 c16 -16 16 -125 0 -131 -7 -3 -1 -6 15 -6 25 -1 27 2 27 42
1 39 2 41 16 22 8 -11 21 -27 28 -37 8 -9 12 -19 9 -22 -4 -3 6 -6 20 -6 l27
0 -35 46 c-19 25 -35 49 -35 54 0 5 14 14 30 22 17 7 30 16 30 20 0 16 -37 7
-55 -12 -10 -11 -22 -20 -27 -20 -13 0 -9 28 5 33 6 3 -6 6 -27 6 -31 1 -37
-2 -28 -11z"/>
<path d="M235 183 c3 -8 5 -41 5 -74 l0 -59 33 1 c17 0 26 3 20 6 -7 2 -13 21
-13 41 l0 37 31 -48 c44 -71 62 -62 63 30 1 44 -3 74 -10 77 -15 6 -39 -10
-27 -17 11 -7 16 -77 5 -77 -4 0 -18 20 -32 44 -18 33 -31 45 -52 48 -22 4
-28 1 -23 -9z"/>
<path d="M407 193 c-2 -5 -2 -39 1 -76 4 -56 7 -67 21 -65 11 2 15 12 13 33
-2 29 -2 29 12 10 32 -42 38 -46 74 -43 32 3 37 6 37 28 0 19 -6 26 -24 28
-19 3 -22 0 -17 -14 5 -14 4 -15 -9 -4 -10 8 -13 21 -9 39 9 37 23 49 34 31
12 -20 35 2 26 25 -8 22 -62 11 -93 -18 l-23 -20 0 20 c0 12 -7 24 -16 27 -20
8 -22 8 -27 -1z"/>
<path d="M600 198 c-1 -2 -2 -36 -3 -76 -2 -68 -1 -73 18 -70 14 2 21 12 23
36 5 46 32 43 32 -4 0 -24 4 -34 13 -32 8 3 13 30 15 76 3 67 1 72 -17 72 -17
0 -20 -5 -14 -30 4 -23 2 -30 -10 -30 -10 0 -17 11 -19 27 -2 17 -10 29 -20
31 -10 2 -18 2 -18 0z"/>
<path d="M723 192 c-7 -5 -9 -13 -3 -22 7 -11 11 -11 23 -1 13 10 15 4 16 -43
0 -31 -4 -58 -9 -61 -21 -13 -8 -21 26 -17 25 3 33 7 25 15 -14 14 -14 114 -1
122 6 3 10 1 10 -4 0 -6 7 -11 15 -11 8 0 15 7 15 15 0 11 -12 15 -52 15 -29
0 -58 -4 -65 -8z"/>
<path d="M1019 187 c6 -8 10 -41 8 -75 -2 -61 -2 -62 25 -62 25 0 27 2 22 40
-4 36 -2 40 20 46 26 6 42 36 31 54 -3 5 -31 10 -62 10 -45 0 -53 -2 -44 -13z
m66 -34 c-7 -17 -8 -17 -15 2 -9 24 -2 41 12 27 6 -6 7 -19 3 -29z"/>
<path d="M1140 141 c0 -33 -3 -66 -6 -75 -5 -12 2 -14 40 -11 52 4 66 10 66
31 0 19 -17 18 -29 -3 -9 -16 -12 -16 -21 -3 -15 22 -12 40 5 34 11 -4 15 0
15 16 0 15 -4 20 -15 17 -18 -7 -27 6 -19 27 4 11 13 14 30 10 15 -4 24 -2 24
5 0 6 -19 11 -45 11 l-45 0 0 -59z"/>
<path d="M1257 140 c4 -40 2 -65 -7 -75 -11 -13 -9 -15 13 -15 23 0 24 2 21
48 l-4 47 20 -43 c20 -43 44 -62 60 -46 4 5 10 39 12 77 l4 67 -30 0 c-23 0
-27 -3 -18 -12 7 -7 12 -23 12 -37 0 -24 -2 -23 -22 12 -15 25 -29 37 -44 37
-21 0 -22 -3 -17 -60z"/>
<path d="M1533 187 c3 -8 -8 -40 -24 -73 -16 -32 -29 -60 -29 -61 0 -2 14 -3
30 -3 17 0 30 5 30 10 0 6 -4 10 -10 10 -14 0 -13 13 3 34 19 26 54 13 62 -24
5 -23 12 -30 31 -30 20 0 23 3 15 17 -17 32 -41 115 -35 124 3 5 -14 9 -36 9
-31 0 -41 -4 -37 -13z m33 -54 c-11 -11 -19 6 -11 24 8 17 8 17 12 0 3 -10 2
-21 -1 -24z"/>
<path d="M1692 193 c-12 -2 -29 -18 -38 -34 -14 -28 -14 -33 3 -67 15 -32 23
-37 56 -40 21 -2 37 1 37 7 0 6 -8 11 -18 11 -27 0 -42 20 -42 56 0 40 22 61
40 39 17 -21 30 -19 30 5 0 11 -4 20 -9 20 -5 0 -15 2 -23 4 -7 2 -23 1 -36
-1z"/>
<path d="M1785 128 c0 -86 -2 -85 118 -78 68 4 82 8 85 22 4 19 -13 25 -23 8
-11 -18 -35 -11 -35 10 0 11 5 20 10 20 6 0 10 7 10 15 0 8 -4 15 -10 15 -5 0
-10 9 -10 20 0 11 5 20 10 20 6 0 10 -7 10 -15 0 -8 5 -15 10 -15 18 0 10 39
-9 45 -29 9 -75 -5 -62 -18 14 -14 14 -104 1 -112 -5 -3 -10 1 -10 9 0 9 -4
16 -10 16 -5 0 -10 -4 -10 -10 0 -5 -7 -10 -15 -10 -12 0 -15 14 -15 65 0 61
-1 65 -22 65 -22 0 -23 -4 -23 -72z"/>
<path d="M2008 175 c-14 -31 3 -55 39 -55 27 0 42 -25 25 -42 -9 -9 -16 -7
-30 5 -25 23 -32 21 -32 -7 0 -19 6 -25 29 -28 61 -9 91 23 68 70 -8 18 -22
28 -40 30 -28 3 -35 16 -17 27 6 4 17 2 24 -4 14 -12 26 -5 26 16 0 9 -13 13
-40 13 -33 0 -42 -4 -52 -25z"/>
<path d="M920 160 c-13 -8 -13 -14 4 -44 11 -20 16 -46 14 -60 -7 -36 20 -34
28 2 4 15 12 30 17 33 5 4 7 15 3 24 -5 13 -10 15 -19 6 -10 -8 -17 -7 -25 1
-17 17 -15 31 4 24 10 -4 14 -1 12 6 -6 16 -20 19 -38 8z"/>
<path d="M850 104 c-11 -13 -10 -18 7 -35 18 -18 23 -19 42 -8 26 17 27 35 2
49 -27 14 -36 13 -51 -6z m40 -20 c0 -8 -5 -12 -10 -9 -6 4 -8 11 -5 16 9 14
15 11 15 -7z"/>
<path d="M2130 60 c0 -5 5 -10 10 -10 6 0 10 5 10 10 0 6 -4 10 -10 10 -5 0
-10 -4 -10 -10z"/>
</g>
</svg>
