<?xml version="1.0" standalone="no"?>
<!DOCTYPE svg PUBLIC "-//W3C//DTD SVG 20010904//EN"
 "http://www.w3.org/TR/2001/REC-SVG-20010904/DTD/svg10.dtd">
<svg version="1.0" xmlns="http://www.w3.org/2000/svg"
 width="219.000000pt" height="380.000000pt" viewBox="0 0 219.000000 380.000000"
 preserveAspectRatio="xMidYMid meet">
<metadata>
Created by potrace 1.16, written by Peter Selinger 2001-2019
</metadata>
<g transform="translate(0.000000,380.000000) scale(0.100000,-0.100000)"
fill="#000000" stroke="none">
<path d="M23 3777 c-6 -10 -7 -3007 0 -3512 l3 -250 1068 0 c703 0 1070 3
1072 10 2 6 6 593 8 1305 2 712 6 1511 9 1775 3 264 3 525 -1 580 l-7 100
-1073 1 c-753 1 -1074 -1 -1079 -9z m1995 -13 l142 -6 0 -429 0 -429 -24 0
c-13 0 -31 -3 -39 -6 -11 -4 -13 1 -10 19 7 37 -15 48 -78 38 -32 -5 -55 -5
-57 0 -6 15 -22 10 -22 -6 0 -8 -4 -15 -8 -15 -4 0 -15 -12 -24 -27 -13 -24
-15 -53 -10 -192 4 -126 2 -162 -7 -157 -8 5 -11 29 -9 66 1 32 -1 62 -5 66
-4 4 -7 2 -7 -4 0 -22 -2 -27 -12 -40 -6 -7 -17 -11 -25 -8 -9 4 -13 -3 -13
-19 0 -20 5 -25 24 -25 22 0 23 -4 24 -55 0 -41 -3 -55 -14 -55 -8 0 -14 -4
-14 -9 0 -5 -3 -17 -7 -27 -5 -13 -3 -16 10 -11 11 4 17 1 17 -7 0 -8 -8 -16
-17 -20 -10 -3 -26 -11 -35 -18 -9 -7 -20 -9 -23 -6 -7 7 37 89 63 121 8 9 13
20 9 23 -3 3 -13 -7 -23 -23 -9 -15 -30 -47 -46 -71 -17 -25 -27 -49 -24 -59
5 -13 0 -14 -31 -8 -21 4 -41 11 -44 16 -11 18 -10 204 2 279 6 41 20 94 30
117 10 23 19 53 19 67 0 15 5 26 10 26 6 0 10 6 10 13 0 8 9 24 20 37 13 15
18 30 14 39 -4 9 -6 37 -5 64 1 31 -2 47 -10 47 -7 0 -3 10 10 24 23 24 41 96
24 96 -5 0 -29 -9 -53 -21 -38 -18 -54 -20 -127 -14 -46 4 -82 3 -81 -2 4 -13
-47 -62 -58 -55 -13 10 -36 53 -31 59 3 2 21 0 41 -5 21 -6 36 -7 36 -1 0 5
-9 9 -19 9 -11 0 -23 5 -26 10 -10 16 -43 12 -53 -7 -9 -14 -11 -14 -21 5 -13
24 -41 30 -41 8 0 -16 -31 -31 -39 -19 -3 5 -18 16 -33 25 -22 15 -32 16 -59
6 -25 -9 -34 -8 -37 0 -2 7 -11 12 -20 12 -9 0 -28 12 -43 26 -29 27 -49 25
-49 -5 0 -10 -12 -24 -27 -32 -15 -8 -35 -22 -45 -31 -10 -10 -29 -18 -42 -18
-14 0 -30 -10 -40 -25 -12 -19 -23 -24 -36 -20 -23 7 -93 -43 -85 -62 3 -8 -5
-13 -20 -13 -14 0 -25 4 -25 10 0 5 -10 18 -22 29 -21 20 -21 21 -3 41 18 20
25 73 12 87 -4 3 -17 -3 -30 -15 -18 -17 -36 -22 -80 -22 -35 0 -57 -4 -57
-11 0 -7 11 -9 27 -6 29 5 63 -7 63 -23 0 -5 -7 -16 -16 -25 -13 -12 -14 -19
-5 -28 18 -18 13 -34 -16 -45 -26 -8 -28 -13 -26 -57 2 -65 -11 -95 -39 -95
-34 1 -61 25 -54 48 4 11 0 24 -9 32 -22 19 -18 30 11 30 23 0 26 -3 22 -27
-3 -16 -7 -34 -9 -42 -2 -8 3 -16 12 -18 13 -3 15 7 15 57 0 47 -3 60 -14 60
-20 0 -52 29 -52 48 0 11 -8 13 -37 9 l-37 -6 31 19 c29 17 35 18 60 5 40 -21
63 -19 63 6 0 19 -2 20 -17 8 -15 -12 -16 -12 -10 4 3 9 4 17 0 17 -3 0 -12
-8 -20 -17 -13 -16 -14 -15 -9 16 7 42 13 48 28 33 17 -17 28 -15 22 3 -4 10
-20 15 -45 15 -22 0 -51 7 -64 16 -29 19 -65 10 -65 -15 0 -10 10 -31 22 -46
21 -27 21 -28 3 -41 -17 -12 -18 -19 -8 -44 6 -17 7 -30 3 -30 -15 0 -23 -41
-12 -64 26 -58 30 -73 20 -91 -8 -13 -7 -25 5 -44 8 -14 18 -42 22 -61 4 -19
14 -59 23 -88 l16 -52 -34 -35 c-18 -19 -36 -33 -38 -31 -11 12 -71 -66 -78
-99 -3 -20 -10 -33 -14 -28 -12 12 -42 124 -41 152 1 14 -5 29 -11 34 -10 7
-10 10 0 14 15 6 16 43 1 43 -5 0 -8 -4 -4 -9 3 -5 -2 -17 -12 -26 -16 -16
-16 -18 1 -31 23 -16 12 -34 -20 -34 -15 0 -24 6 -24 15 0 18 -21 20 -37 4 -6
-6 -16 -8 -22 -5 -18 11 -13 34 11 50 12 9 18 16 12 16 -17 0 -54 -31 -54 -45
0 -22 30 -46 50 -40 30 9 34 -14 4 -25 -32 -13 -86 4 -122 37 -29 27 -28 -13
-24 678 l2 530 918 2 c504 2 981 0 1060 -3z m-878 -575 c0 -7 8 -18 18 -25 16
-12 16 -13 0 -19 -10 -4 -18 -13 -18 -21 0 -18 -10 -18 -48 2 -30 15 -31 16
-16 39 14 21 28 29 57 34 4 0 7 -4 7 -10z m170 -40 c0 -4 -9 -9 -20 -12 -12
-3 -20 -14 -20 -26 0 -13 -6 -21 -16 -21 -11 0 -14 5 -10 16 8 21 -11 54 -32
55 -9 1 -1 4 18 8 33 6 80 -6 80 -20z m-838 4 c18 -10 34 -18 36 -19 1 -1 0
-8 -3 -16 -8 -21 -52 -11 -70 15 -29 41 -16 47 37 20z m264 -38 c-21 -31 -36
-32 -36 -2 0 15 8 28 23 34 28 13 34 0 13 -32z m1047 28 c-18 -52 -67 -72 -61
-26 2 19 10 29 28 34 38 11 40 10 33 -8z m-367 -14 c3 -5 -5 -8 -18 -6 -15 1
-23 -4 -26 -17 -3 -16 0 -18 22 -12 15 4 26 2 26 -4 0 -5 -6 -10 -14 -10 -8 0
-16 -5 -18 -12 -3 -7 -11 -5 -25 7 -17 15 -19 23 -12 45 8 22 15 26 35 22 13
-2 27 -8 30 -13z m192 6 c7 -13 14 -14 37 -5 30 12 55 7 55 -10 0 -5 -7 -10
-15 -10 -8 0 -15 -5 -15 -11 0 -5 -5 -7 -11 -3 -6 3 -15 0 -20 -7 -7 -11 -9
-10 -9 5 0 16 -2 17 -17 5 -15 -12 -16 -12 -10 4 3 9 2 17 -4 17 -6 0 -13 -9
-16 -20 -3 -11 -9 -20 -15 -20 -5 0 -3 10 4 23 7 12 11 28 10 35 -4 17 15 15
26 -3z m-601 -40 c0 -48 -7 -55 -27 -30 -7 8 -21 15 -31 15 -11 0 -19 5 -19
10 0 6 7 10 15 10 8 0 15 5 15 10 0 6 9 10 20 10 11 0 20 5 20 10 0 6 2 10 3
10 2 0 4 -20 4 -45z m223 31 c0 -8 -4 -18 -10 -21 -5 -3 -10 3 -10 14 0 12 5
21 10 21 6 0 10 -6 10 -14z m-184 -31 c0 -19 -3 -35 -7 -35 -10 0 -21 49 -14
60 12 19 20 9 21 -25z m258 10 c3 -8 1 -15 -4 -15 -6 0 -10 7 -10 15 0 8 2 15
4 15 2 0 6 -7 10 -15z m-113 -17 c24 -18 43 -23 84 -22 l53 2 6 -46 c8 -61 8
-82 -3 -82 -4 0 -6 10 -4 23 3 14 -2 29 -11 36 -21 17 -150 27 -179 14 -12 -6
-52 -25 -88 -42 -58 -28 -69 -31 -92 -20 -15 7 -27 15 -27 18 1 16 29 41 47
41 10 0 41 15 68 33 27 17 53 35 59 38 41 22 51 28 54 28 2 1 17 -9 33 -21z
m267 -10 c-6 -18 -28 -21 -28 -4 0 9 7 16 16 16 9 0 14 -5 12 -12z m-758 -18
c0 -5 -2 -10 -4 -10 -3 0 -8 5 -11 10 -3 6 -1 10 4 10 6 0 11 -4 11 -10z m270
-18 c0 -8 -1 -13 -3 -11 -1 2 -9 12 -16 22 -12 15 -12 17 3 11 9 -3 16 -13 16
-22z m626 7 c7 -6 19 -9 26 -6 7 2 21 0 31 -5 18 -9 18 -11 2 -28 -9 -10 -14
-24 -10 -30 4 -6 4 -36 0 -66 -5 -44 -10 -54 -26 -54 -13 0 -19 7 -19 23 -1
57 -13 126 -21 122 -13 -9 -49 14 -49 31 0 8 -10 19 -22 25 -18 7 -12 8 26 4
27 -3 55 -10 62 -16z m113 14 c0 -5 -4 -17 -9 -28 -8 -18 -9 -17 -9 8 -1 15 4
27 9 27 6 0 10 -3 9 -7z m-795 -18 c-4 -8 -1 -22 6 -30 6 -8 9 -19 5 -25 -9
-14 -48 -13 -64 3 -11 10 -12 7 -6 -13 9 -29 3 -25 -15 9 -8 15 -8 21 -1 17 7
-5 11 2 11 17 0 31 7 37 41 37 21 0 27 -4 23 -15z m474 -4 c9 -5 26 -13 37
-17 15 -6 8 -9 -29 -12 -54 -4 -59 -2 -50 22 7 18 17 20 42 7z m-178 -41 c0
-5 -2 -10 -4 -10 -3 0 -8 5 -11 10 -3 6 -1 10 4 10 6 0 11 -4 11 -10z m-43 -6
c-3 -3 -12 -4 -19 -1 -8 3 -5 6 6 6 11 1 17 -2 13 -5z m-462 -15 c-4 -6 1 -16
10 -23 10 -7 16 -19 13 -26 -3 -10 -10 -8 -26 8 -26 26 -29 52 -6 52 8 0 12
-5 9 -11z m405 1 c0 -5 -5 -10 -11 -10 -5 0 -7 5 -4 10 3 6 8 10 11 10 2 0 4
-4 4 -10z m55 -10 c3 -5 -1 -10 -9 -10 -9 0 -16 5 -16 10 0 6 4 10 9 10 6 0
13 -4 16 -10z m525 -11 c-7 -11 -14 -18 -17 -15 -8 8 5 36 17 36 7 0 7 -6 0
-21z m-1029 -7 c-7 -13 -6 -23 2 -31 9 -10 8 -11 -5 -6 -29 11 -22 45 10 54 1
1 -2 -7 -7 -17z m1076 -4 c-3 -8 -6 -5 -6 6 -1 11 2 17 5 13 3 -3 4 -12 1 -19z
m-806 2 c5 0 9 -4 9 -9 0 -12 -38 -2 -47 12 -4 7 0 8 11 4 10 -4 22 -7 27 -7z
m639 -10 c6 -11 7 -20 2 -20 -10 0 -32 21 -32 32 0 16 19 8 30 -12z m-533 -20
c2 -11 -2 -20 -7 -20 -6 0 -10 12 -10 27 0 29 12 24 17 -7z m480 24 c-3 -3
-12 -4 -19 -1 -8 3 -5 6 6 6 11 1 17 -2 13 -5z m-442 -14 c-3 -5 -11 -10 -16
-10 -6 0 -7 5 -4 10 3 6 11 10 16 10 6 0 7 -4 4 -10z m956 -8 c-14 -27 -121
-56 -121 -34 0 11 30 38 50 45 8 3 30 6 48 6 29 1 31 -1 23 -17z m-1028 -41
c-9 -12 -25 20 -18 36 7 16 9 15 15 -7 4 -14 5 -27 3 -29z m252 39 c3 -5 -4
-12 -16 -15 -22 -7 -21 -5 -7 -90 2 -14 -2 -19 -14 -17 -10 2 -18 -2 -18 -8 0
-6 4 -9 9 -6 5 3 11 0 14 -8 4 -10 -5 -16 -29 -20 -19 -4 -34 -12 -34 -18 0
-5 6 -8 14 -5 8 3 31 9 50 13 20 3 36 10 36 15 0 5 -4 9 -9 9 -15 0 -7 64 9
77 27 22 31 14 25 -58 -8 -105 -15 -113 -90 -110 -66 4 -90 23 -87 71 0 8 -6
19 -14 23 -18 10 -18 57 -1 81 8 10 28 19 47 20 18 1 35 7 38 14 4 14 5 14
-36 3 -20 -6 -32 -6 -32 0 0 5 7 9 15 9 9 0 18 6 21 13 6 15 100 21 109 7z
m-385 -4 c0 -2 -9 -6 -20 -9 -11 -3 -20 -1 -20 4 0 5 9 9 20 9 11 0 20 -2 20
-4z m35 -5 c3 -5 1 -12 -5 -16 -5 -3 -10 1 -10 9 0 18 6 21 15 7z m54 -36 c2
19 2 19 12 2 6 -10 9 -27 6 -38 -3 -10 -1 -19 5 -19 7 0 7 -14 3 -37 -5 -21
-9 -48 -10 -60 -1 -12 -6 -28 -11 -35 -6 -7 -18 -26 -28 -41 -17 -27 -16 -28
12 -56 23 -23 28 -36 24 -60 -5 -33 -27 -41 -51 -18 -11 10 -14 10 -18 0 -7
-18 -23 -16 -23 3 0 11 -6 13 -19 9 -11 -3 -22 -2 -25 4 -3 5 -16 7 -29 4 -21
-6 -20 -4 6 20 15 14 27 29 27 32 0 10 -34 -12 -55 -35 -15 -16 -16 -23 -7
-29 10 -6 9 -12 -5 -27 -10 -11 -14 -14 -10 -7 5 7 7 18 5 25 -3 8 -12 -1 -21
-19 -19 -37 -21 -47 -7 -38 6 3 10 1 10 -5 0 -7 -9 -14 -20 -17 -22 -6 -38
-42 -22 -52 7 -4 5 -13 -5 -26 -15 -19 -15 -19 -8 4 5 16 4 21 -4 17 -6 -4
-11 -16 -11 -27 0 -21 24 -33 103 -52 40 -9 50 -8 58 4 7 11 9 11 9 -3 0 -16
13 -18 133 -18 121 0 133 2 145 20 11 18 10 20 -8 20 -11 0 -20 -5 -20 -12 0
-6 -2 -9 -5 -6 -3 3 -3 13 1 22 9 24 47 19 79 -10 23 -21 34 -25 61 -19 25 4
34 11 34 26 0 26 18 59 32 59 7 0 6 -5 -2 -15 -9 -10 -9 -15 -1 -15 6 0 11 -4
11 -10 0 -5 -8 -10 -17 -10 -12 0 -14 -3 -7 -10 8 -8 26 -3 60 13 27 14 67 30
89 37 46 14 99 51 136 94 l26 30 17 -27 c21 -32 13 -76 -10 -56 -11 9 -17 9
-29 -1 -13 -11 -13 -15 1 -41 8 -16 12 -29 9 -29 -3 0 -8 0 -12 0 -5 0 -8 4
-8 10 0 26 -22 29 -63 10 -22 -11 -45 -20 -51 -20 -5 0 -11 -10 -13 -22 -2
-19 -9 -23 -37 -21 -23 1 -30 -2 -23 -9 6 -6 25 -11 43 -12 18 -1 34 -7 37
-15 3 -8 0 -11 -7 -7 -6 4 -16 -4 -23 -18 -14 -31 -36 -34 -46 -5 -7 19 -9 19
-21 5 -20 -24 -30 -19 -28 13 1 16 5 27 10 24 4 -2 7 3 7 12 0 12 -5 15 -17
10 -10 -4 -28 -10 -40 -12 -13 -3 -23 -14 -25 -27 -3 -21 -48 -38 -48 -17 0 5
-28 10 -64 10 -56 0 -65 -3 -69 -20 -4 -15 -12 -20 -29 -17 -13 2 -22 9 -20
16 1 7 -9 12 -25 12 -16 0 -52 3 -80 6 -45 6 -53 4 -53 -10 0 -11 -9 -16 -30
-16 -16 0 -30 5 -30 10 0 6 -4 10 -10 10 -16 0 -11 -28 6 -38 10 -5 12 -12 7
-15 -6 -4 -18 2 -27 12 -15 16 -15 23 -6 41 14 27 5 35 -48 45 -37 7 -54 -6
-45 -34 2 -9 -7 7 -21 34 -25 47 -28 95 -7 95 5 0 24 30 43 66 39 78 102 154
126 152 36 -3 72 2 72 11 0 4 -12 7 -27 4 -25 -3 -26 -2 -7 6 27 12 74 72 74
94 0 9 7 32 16 51 16 33 16 35 -5 64 -12 18 -20 44 -20 64 l2 33 7 -35 c4 -19
8 -26 9 -15z m356 -7 c9 -29 19 -59 22 -67 3 -8 0 -12 -8 -9 -14 5 -48 128
-35 128 3 0 12 -24 21 -52z m15 37 c0 -8 -2 -15 -4 -15 -2 0 -6 7 -10 15 -3 8
-1 15 4 15 6 0 10 -7 10 -15z m62 0 c0 -5 -5 -11 -10 -13 -5 -1 -9 4 -9 13 0
9 4 14 9 13 5 -2 10 -8 10 -13z m-590 -12 c21 -25 48 -79 48 -98 0 -25 -27
-17 -50 15 -12 17 -19 30 -15 30 3 0 -1 13 -10 30 -8 16 -15 31 -15 35 0 12
28 4 42 -12z m460 -15 c-6 -6 -15 -8 -19 -4 -4 4 -1 11 7 16 19 12 27 3 12
-12z m-412 2 c0 -5 -2 -10 -4 -10 -3 0 -8 5 -11 10 -3 6 -1 10 4 10 6 0 11 -4
11 -10z m188 -107 c-23 -47 -36 -39 -34 21 2 38 9 63 22 77 l19 21 3 -46 c2
-25 -3 -58 -10 -73z m482 102 c0 -8 -4 -15 -8 -15 -5 0 -9 7 -9 15 0 8 4 15 9
15 4 0 8 -7 8 -15z m500 -54 c0 -39 -4 -72 -9 -75 -5 -4 -26 -36 -46 -72 -32
-57 -36 -70 -26 -91 13 -27 15 -133 3 -133 -4 0 -15 13 -24 28 -14 23 -17 58
-17 205 0 178 1 182 35 178 6 -1 24 6 40 14 16 8 32 15 37 15 4 0 7 -31 7 -69z
m125 39 c18 -35 20 -70 3 -71 -78 -7 -79 -7 -73 9 3 8 1 18 -4 21 -11 7 34 71
49 71 5 0 16 -13 25 -30z m-808 -12 c-3 -7 -5 -2 -5 12 0 14 2 19 5 13 2 -7 2
-19 0 -25z m111 15 c-6 -8 -13 -11 -16 -8 -7 7 -32 -15 -32 -29 0 -6 7 -3 14
7 8 10 16 15 19 10 2 -4 -6 -19 -19 -33 l-24 -25 0 25 c0 34 23 66 49 66 15 0
17 -3 9 -13z m-758 -19 c0 -8 -4 -12 -10 -9 -5 3 -10 13 -10 21 0 8 5 12 10 9
6 -3 10 -13 10 -21z m37 20 c-3 -3 -12 -4 -19 -1 -8 3 -5 6 6 6 11 1 17 -2 13
-5z m-92 -24 c3 -5 1 -10 -4 -10 -6 0 -11 5 -11 10 0 6 2 10 4 10 3 0 8 -4 11
-10z m863 -3 c13 -16 4 -59 -10 -51 -6 4 -14 0 -19 -7 -8 -12 -11 -12 -19 1
-15 24 -12 32 11 25 19 -6 21 -4 17 19 -6 28 3 34 20 13z m-891 -30 c-7 -21
-32 -13 -35 11 -3 21 -1 22 18 12 12 -6 19 -17 17 -23z m337 17 c10 -26 7 -44
-8 -44 -20 0 -37 25 -30 44 8 20 30 21 38 0z m646 10 c0 -13 -21 -44 -30 -44
-6 0 -10 11 -10 25 0 18 5 25 20 25 11 0 20 -3 20 -6z m-1065 -13 c3 -5 1 -12
-5 -16 -5 -3 -10 1 -10 9 0 18 6 21 15 7z m1103 -9 c2 -7 -3 -12 -12 -12 -9 0
-16 7 -16 16 0 17 22 14 28 -4z m-849 -1 c2 -1 -4 -10 -14 -21 -13 -15 -22
-17 -36 -9 -41 21 -8 41 50 30z m125 -40 c-8 -9 -34 10 -34 25 0 16 2 16 19
-2 10 -10 17 -21 15 -23z m460 5 c-3 -14 1 -27 10 -35 9 -8 16 -18 16 -24 0
-5 -9 1 -19 15 -18 22 -25 82 -8 71 4 -2 5 -14 1 -27z m-879 -6 c3 -5 1 -10
-4 -10 -6 0 -11 5 -11 10 0 6 2 10 4 10 3 0 8 -4 11 -10z m1673 -181 c-2 -134
-6 -173 -17 -177 -11 -4 -11 -6 0 -13 10 -6 11 -9 2 -9 -7 0 -13 -6 -13 -13 0
-8 -9 -22 -20 -32 -17 -16 -20 -16 -20 -2 0 8 4 17 9 19 11 4 17 245 7 273 -4
11 -13 31 -20 45 -13 28 -10 90 5 90 5 0 9 -4 9 -10 0 -17 27 -11 34 7 5 11
10 13 17 6 7 -7 10 -71 7 -184z m-1578 172 c0 -5 8 -12 18 -15 10 -3 18 -15
19 -26 2 -25 1 -25 -27 0 -14 12 -31 18 -42 14 -21 -6 -23 1 -5 21 14 16 37
20 37 6z m716 -86 c-9 -14 -34 -29 -58 -36 -25 -7 -36 -14 -26 -16 20 -5 77
23 96 46 7 9 17 26 22 39 15 34 30 17 30 -34 0 -28 4 -44 13 -44 6 -1 -7 -18
-30 -39 -59 -53 -127 -69 -208 -47 -55 14 -89 14 -51 0 20 -8 66 -101 66 -134
0 -50 59 -80 80 -41 11 21 14 79 4 68 -4 -3 -15 -2 -26 4 -18 10 -18 11 6 30
15 11 26 27 26 34 0 8 21 23 47 35 26 11 56 28 67 38 18 17 19 16 5 -8 -7 -14
-14 -29 -14 -35 0 -5 -11 -9 -23 -7 -13 2 -34 -4 -48 -12 -20 -14 -24 -25 -24
-65 0 -81 -9 -110 -38 -118 -36 -9 -55 8 -68 59 -21 81 -60 135 -127 177 -47
29 -72 68 -57 87 14 16 31 9 24 -10 -3 -7 2 -19 11 -26 13 -11 14 -10 9 4 -5
13 2 11 31 -8 41 -28 64 -34 46 -12 -6 8 -10 19 -9 26 2 6 -12 17 -31 23 -34
12 -54 37 -30 37 8 0 38 -15 69 -34 40 -25 63 -33 83 -29 31 6 37 23 7 23 -11
0 -20 -4 -20 -10 0 -11 -80 41 -100 65 -10 12 -10 15 3 15 8 0 21 -7 28 -17
21 -24 73 -43 122 -43 57 0 96 29 99 73 l1 32 4 -33 c3 -20 -2 -43 -11 -57z
m-809 38 c-3 -10 -5 -4 -5 12 0 17 2 24 5 18 2 -7 2 -21 0 -30z m1540 3 c-7
-13 -16 -22 -22 -19 -5 2 -3 -2 7 -9 12 -10 14 -19 7 -31 -6 -9 -8 -21 -4 -26
3 -5 0 -13 -7 -17 -9 -6 -5 -10 12 -16 16 -4 7 -6 -25 -3 -27 2 -51 4 -53 4
-9 2 75 141 85 141 8 0 8 -6 0 -24z m-1487 -12 c0 -8 -5 -12 -10 -9 -6 4 -8
11 -5 16 9 14 15 11 15 -7z m60 -14 c0 -5 -4 -10 -10 -10 -5 0 -10 5 -10 10 0
6 5 10 10 10 6 0 10 -4 10 -10z m830 -12 c16 -11 27 -25 24 -30 -6 -10 37 -28
50 -20 5 3 6 0 2 -6 -3 -6 -2 -13 4 -17 5 -3 10 -16 9 -28 0 -12 -3 -16 -6 -9
-2 6 -12 12 -22 12 -22 0 -71 -23 -71 -32 0 -5 -4 -8 -9 -8 -14 0 -23 30 -26
85 -2 34 0 44 5 30 5 -11 9 -14 9 -6 1 9 8 11 23 8 19 -5 18 -3 -7 18 -37 30
-25 33 15 3z m210 -34 c0 -2 -10 -4 -21 -4 -17 0 -19 3 -10 14 8 10 9 16 1 21
-6 3 -8 11 -4 16 5 8 34 -32 34 -47z m-100 -45 c0 -6 -4 -7 -10 -4 -5 3 -10
11 -10 16 0 6 5 7 10 4 6 -3 10 -11 10 -16z m100 11 c0 -5 -7 -10 -15 -10 -8
0 -15 5 -15 10 0 6 7 10 15 10 8 0 15 -4 15 -10z m450 0 c0 -5 -8 -10 -17 -10
-15 0 -16 2 -3 10 19 12 20 12 20 0z m-497 -82 l19 -33 -21 25 c-12 14 -27 34
-33 45 -9 17 -9 18 3 8 8 -6 22 -26 32 -45z m477 42 l25 -7 -25 -11 c-14 -6
-18 -11 -10 -12 13 0 13 -1 0 -10 -12 -8 -10 -10 10 -11 14 0 19 -3 12 -6 -6
-2 -9 -9 -6 -15 4 -6 0 -14 -7 -19 -11 -7 -10 -9 3 -9 19 0 34 -41 23 -60 -4
-7 -16 -9 -27 -7 -14 4 -18 2 -14 -9 4 -10 -3 -14 -27 -14 -54 0 -75 30 -55
76 9 18 9 30 1 43 -13 20 9 57 26 46 7 -3 11 2 11 14 0 22 15 25 60 11z m-570
-4 c0 -3 -4 -8 -10 -11 -5 -3 -10 -1 -10 4 0 6 5 11 10 11 6 0 10 -2 10 -4z
m-1012 -33 c-3 -23 -8 -28 -42 -31 l-38 -4 33 31 c42 38 51 38 47 4z m-414
-11 c37 -20 36 -31 -6 -49 -25 -11 -26 -11 -30 28 -2 21 -2 39 -1 39 2 0 18
-8 37 -18z m201 7 c11 -17 0 -20 -21 -4 -17 13 -17 14 -2 15 9 0 20 -5 23 -11z
m1270 -8 c-3 -6 -14 -11 -24 -11 -9 0 -22 -5 -29 -12 -15 -15 -16 -42 -2 -33
6 4 17 4 25 1 22 -8 -5 -55 -35 -62 -14 -3 -32 -9 -41 -14 -14 -7 -18 -3 -21
28 -3 20 -1 40 4 43 5 3 8 10 7 15 -3 19 1 34 11 34 6 0 10 -7 10 -15 0 -21
12 -19 33 5 9 11 26 20 37 20 11 0 20 5 20 12 0 6 3 9 6 5 3 -3 3 -10 -1 -16z
m-1300 -11 c3 -6 -1 -7 -9 -4 -18 7 -21 14 -7 14 6 0 13 -4 16 -10z m962 -27
c-13 -13 -19 -14 -29 -5 -9 9 -7 12 10 12 12 0 22 5 22 12 0 6 3 8 7 4 4 -3
-1 -14 -10 -23z m-1026 3 c-8 -10 -9 -16 -1 -21 5 -3 10 -14 10 -24 0 -23 25
-45 40 -36 8 5 6 11 -6 19 -22 17 -30 76 -10 76 8 0 17 -4 20 -9 3 -5 15 -7
26 -4 25 7 27 -15 2 -33 -13 -10 -15 -17 -6 -31 17 -29 -16 -66 -50 -57 -15 3
-29 10 -32 15 -9 14 -72 10 -105 -7 l-30 -15 3 43 c3 39 6 44 38 54 19 6 36
19 38 28 2 11 14 16 39 16 29 0 33 -2 24 -14z m1129 4 c0 -5 -4 -10 -10 -10
-5 0 -10 5 -10 10 0 6 5 10 10 10 6 0 10 -4 10 -10z m-840 -21 c0 -21 -16 -34
-25 -19 -3 5 -15 10 -26 10 -21 0 -26 16 -6 23 30 10 57 4 57 -14z m-40 -27
c14 -6 32 -13 40 -16 8 -4 -3 -4 -25 -1 -64 7 -98 -43 -58 -87 15 -17 15 -18
-1 -18 -26 0 -35 39 -23 96 9 42 14 50 26 44 9 -4 27 -12 41 -18z m426 -2 c-3
-18 -1 -30 5 -30 6 0 9 -12 7 -27 -2 -19 -12 -32 -33 -42 -16 -8 -38 -18 -47
-22 -13 -6 -16 -5 -12 5 4 10 -2 12 -19 9 -16 -3 -26 1 -30 11 -4 9 -2 16 3
16 6 0 10 -4 10 -10 0 -5 5 -10 10 -10 6 0 9 6 8 13 -2 6 5 11 15 9 9 -2 17 1
17 5 -1 21 -18 31 -47 27 -18 -2 -33 -2 -33 0 0 1 15 19 33 38 27 29 39 35 76
36 43 1 43 1 37 -28z m1058 14 c8 -21 8 -24 -3 -24 -5 0 -11 9 -14 20 -6 24 8
27 17 4z m-904 -4 c0 -5 -5 -10 -11 -10 -5 0 -7 5 -4 10 3 6 8 10 11 10 2 0 4
-4 4 -10z m-710 -27 c0 -25 -1 -26 -16 -11 -9 9 -13 21 -10 27 13 20 26 11 26
-16z m647 7 c-3 -13 0 -20 9 -20 17 0 18 -12 2 -28 -9 -9 -8 -12 5 -12 10 0
17 -8 17 -17 0 -14 -2 -15 -9 -5 -4 7 -14 12 -22 10 -14 -3 -16 2 -18 52 -1
19 -4 21 -13 12 -15 -15 -38 -16 -38 -2 0 6 7 10 15 10 8 0 15 5 15 10 0 6 10
10 21 10 16 0 20 -5 16 -20z m103 10 c0 -5 -4 -10 -10 -10 -5 0 -10 5 -10 10
0 6 5 10 10 10 6 0 10 -4 10 -10z m35 1 c3 -5 1 -12 -5 -16 -5 -3 -10 1 -10 9
0 18 6 21 15 7z m145 -37 c0 -10 -20 -3 -41 16 l-24 20 33 -16 c17 -8 32 -17
32 -20z m-805 6 c4 -6 11 -8 16 -4 6 3 17 3 27 -1 14 -5 14 -7 2 -15 -8 -5
-15 -17 -15 -27 0 -14 -8 -17 -29 -16 -36 3 -47 19 -33 50 11 25 22 29 32 13z
m595 0 c0 -5 -5 -10 -11 -10 -5 0 -7 5 -4 10 3 6 8 10 11 10 2 0 4 -4 4 -10z
m320 -10 c-8 -5 -18 -6 -24 -3 -5 4 -1 10 10 13 24 9 34 2 14 -10z m580 -1 c0
-5 -4 -9 -10 -9 -5 0 -10 7 -10 16 0 8 5 12 10 9 6 -3 10 -10 10 -16z m-795
-9 c3 -5 2 -10 -4 -10 -5 0 -13 5 -16 10 -3 6 -2 10 4 10 5 0 13 -4 16 -10z
m86 0 c5 0 9 -4 9 -9 0 -4 -11 -6 -25 -3 -14 2 -25 9 -25 14 0 6 7 7 16 4 9
-3 20 -6 25 -6z m719 -10 c-24 -15 -36 -11 -14 4 10 8 21 12 24 10 2 -3 -2 -9
-10 -14z m-251 -22 c9 -15 12 -30 9 -34 -9 -9 -68 47 -61 58 9 16 37 3 52 -24z
m-1491 -5 c23 -10 32 -19 28 -30 -3 -8 -6 -19 -6 -25 0 -6 -9 -3 -19 6 -15 14
-24 15 -40 7 -24 -13 -81 -14 -100 -2 -19 12 -6 41 17 41 11 0 25 7 32 15 14
16 32 14 88 -12z m102 2 c5 -14 15 -25 21 -25 7 0 9 -3 6 -7 -4 -3 -2 -12 4
-19 11 -14 6 -18 -33 -28 -18 -4 -28 -2 -28 5 0 8 -4 8 -15 -1 -12 -10 -16 -9
-22 5 -4 12 0 23 13 32 10 7 19 19 20 26 3 32 5 37 14 37 6 0 15 -11 20 -25z
m48 -3 c3 -16 -1 -20 -12 -16 -19 7 -22 48 -3 42 6 -3 13 -14 15 -26z m682 18
c0 -5 -4 -10 -10 -10 -5 0 -10 5 -10 10 0 6 5 10 10 10 6 0 10 -4 10 -10z
m-543 -22 c-3 -8 -6 -5 -6 6 -1 11 2 17 5 13 3 -3 4 -12 1 -19z m134 -1 c53
-40 61 -124 15 -163 -34 -30 -33 -33 9 -29 35 3 49 -15 25 -30 -7 -4 -8 -11
-1 -18 6 -8 3 -19 -9 -34 -15 -19 -19 -20 -24 -7 -3 9 -6 29 -6 45 0 20 -5 29
-16 29 -11 0 -14 -5 -9 -17 4 -10 13 -54 20 -98 8 -44 19 -104 24 -134 14 -70
14 -88 0 -74 -5 5 -11 23 -11 39 -1 27 -3 29 -46 29 -43 1 -73 21 -71 49 0 6
3 6 5 -1 3 -7 11 -10 19 -7 7 3 27 -2 45 -11 31 -16 31 -16 20 5 -6 12 -13 60
-16 107 -4 91 -9 107 -28 100 -7 -3 -19 -1 -27 4 -10 6 -4 9 21 10 l35 1 -29
8 c-33 10 -76 48 -76 67 0 7 -4 13 -10 13 -14 0 -12 37 4 68 33 64 90 84 137
49z m1463 12 c-6 -11 -65 -12 -82 -1 -7 5 9 8 38 9 27 0 47 -3 44 -8z m-454
-9 c0 -5 -4 -10 -10 -10 -5 0 -10 5 -10 10 0 6 5 10 10 10 6 0 10 -4 10 -10z
m254 -6 c4 -10 13 -13 26 -9 18 6 19 3 13 -27 -9 -51 -19 -58 -72 -52 -53 6
-74 20 -51 34 13 9 13 10 0 11 -8 1 -1 5 15 9 29 7 29 8 5 10 -24 2 -23 3 5
10 l30 7 -25 11 c-24 10 -24 11 11 11 25 1 39 -4 43 -15z m-136 0 c16 -5 22
-14 22 -35 0 -16 9 -38 20 -49 19 -19 28 -70 13 -70 -8 0 -58 82 -81 133 -13
29 -11 30 26 21z m335 -14 c-17 -15 -61 -20 -71 -7 -8 9 0 12 34 13 25 1 41
-2 37 -6z m-1618 -36 c-8 -20 -15 -37 -15 -38 0 -1 -9 -2 -20 -2 -13 0 -20 7
-20 19 0 13 5 17 15 13 10 -3 15 1 15 13 0 21 8 31 27 31 11 0 10 -7 -2 -36z
m1025 25 c0 -5 -5 -7 -12 -3 -8 5 -9 2 -5 -9 3 -10 2 -17 -3 -17 -6 0 -10 9
-10 20 0 11 7 20 15 20 8 0 15 -5 15 -11z m-500 -9 c0 -5 -7 -7 -15 -4 -8 4
-15 8 -15 10 0 2 7 4 15 4 8 0 15 -4 15 -10z m1118 -2 c7 -7 12 -17 12 -22 0
-6 -5 -4 -10 4 -9 13 -11 13 -19 1 -5 -8 -7 -21 -4 -29 3 -8 0 -18 -8 -24 -11
-7 -11 -11 -1 -15 22 -9 13 -25 -10 -17 -21 6 -21 6 -4 -12 17 -16 17 -19 2
-29 -9 -7 -13 -14 -10 -17 3 -4 0 -9 -6 -13 -9 -5 -11 12 -8 64 2 41 -1 73 -7
75 -5 3 -2 5 7 5 9 1 19 5 22 10 3 4 -7 6 -22 4 -23 -3 -22 -1 8 11 44 18 44
18 58 4z m-566 -40 c22 -18 63 -53 89 -77 34 -30 49 -39 49 -27 0 9 -5 16 -11
16 -5 0 -7 5 -3 11 3 6 0 15 -7 20 -11 7 -11 9 3 9 9 0 21 -8 27 -17 7 -14 13
-15 21 -6 9 8 6 23 -15 60 -15 26 -20 40 -12 30 8 -10 23 -17 32 -15 26 5 43
-27 27 -52 -16 -26 -15 -28 6 -26 13 1 16 -5 14 -24 -5 -37 -22 -50 -22 -17 0
22 -5 27 -24 27 -16 0 -26 -7 -30 -22 -7 -29 1 -37 41 -40 30 -2 30 -3 15 -24
-14 -17 -22 -20 -46 -13 -38 11 -50 24 -51 53 -2 27 -37 73 -77 99 -34 21 -39
21 -31 0 4 -11 3 -14 -6 -9 -7 4 -10 13 -8 19 3 7 -5 22 -16 35 -30 32 -12 27
35 -10z m-1459 15 c9 -9 -13 -34 -24 -27 -14 8 -11 34 4 34 8 0 17 -3 20 -7z
m107 -5 c0 -6 6 -19 14 -27 13 -14 9 -16 -37 -17 -29 0 -60 -4 -69 -8 -15 -7
-16 -5 -5 18 16 35 97 64 97 34z m222 -69 c9 -6 9 -14 -2 -34 l-14 -27 -9 29
c-5 15 -13 38 -19 49 -7 16 -6 28 3 45 13 24 13 23 21 -16 5 -21 14 -42 20
-46z m-177 43 c-3 -3 -11 0 -18 7 -9 10 -8 11 6 5 10 -3 15 -9 12 -12z m115 8
c0 -5 -7 -10 -16 -10 -8 0 -12 5 -9 10 3 6 10 10 16 10 5 0 9 -4 9 -10z m445
0 c3 -5 1 -10 -4 -10 -6 0 -11 5 -11 10 0 6 2 10 4 10 3 0 8 -4 11 -10z m-520
-10 c-3 -5 -10 -10 -16 -10 -5 0 -9 5 -9 10 0 6 7 10 16 10 8 0 12 -4 9 -10z
m1046 -17 c-5 -18 -14 -27 -24 -25 -8 1 -18 -7 -22 -18 -6 -19 -25 -28 -25
-12 0 8 69 82 76 82 1 0 -1 -12 -5 -27z m682 7 c-3 -11 -9 -17 -15 -14 -5 3
-4 12 3 20 16 19 18 18 12 -6z m-1228 0 c3 -5 1 -10 -4 -10 -6 0 -11 5 -11 10
0 6 2 10 4 10 3 0 8 -4 11 -10z m154 -90 c-4 -47 -10 -102 -13 -123 -4 -32 -2
-36 10 -26 8 7 14 19 13 28 -3 29 1 41 12 41 7 0 17 7 24 16 9 13 10 10 7 -20
-2 -19 -10 -40 -17 -46 -7 -6 -10 -21 -7 -33 3 -12 2 -19 -3 -15 -9 8 -35 -15
-35 -31 0 -6 7 -11 16 -11 10 0 14 6 10 15 -3 8 -1 15 4 15 16 0 11 -30 -5
-36 -8 -4 -15 -12 -15 -19 0 -7 -6 -17 -13 -23 -10 -9 -12 -4 -9 25 3 25 1 34
-7 29 -12 -8 -15 6 -4 18 4 3 8 28 9 54 8 156 19 243 29 230 1 -2 -2 -41 -6
-88z m211 50 c0 -10 5 -20 12 -22 6 -2 13 -13 14 -24 2 -10 6 -32 9 -49 3 -16
8 -39 10 -51 4 -18 13 -32 55 -81 5 -7 10 -17 10 -22 0 -6 6 -8 14 -5 7 3 17
-3 20 -13 6 -14 4 -15 -5 -6 -6 6 -17 9 -24 6 -7 -2 -15 4 -18 14 -3 10 -4
-59 -4 -154 2 -159 0 -173 -19 -199 -11 -15 -26 -30 -34 -32 -7 -3 -4 6 8 18
15 16 20 31 16 49 -4 20 -3 23 5 11 9 -13 11 -13 11 3 0 9 -7 17 -16 17 -13 0
-15 7 -10 30 3 19 2 29 -4 25 -6 -3 -10 1 -10 9 0 10 6 13 16 9 11 -4 14 -13
10 -29 -4 -14 -2 -24 4 -24 6 0 10 44 10 117 0 97 -3 120 -17 136 -17 19 -17
20 0 14 15 -5 16 -2 10 20 -3 15 -15 36 -25 47 -12 13 -18 35 -18 63 0 30 -4
43 -14 43 -11 0 -14 -17 -15 -70 0 -53 3 -70 13 -70 8 0 17 6 19 13 3 6 6 1 6
-13 0 -14 -6 -34 -14 -44 -21 -28 -19 -39 6 -33 15 4 19 2 15 -9 -3 -8 -1 -25
4 -39 5 -13 5 -27 1 -30 -10 -5 -21 17 -21 42 0 9 -7 21 -16 28 -13 9 -14 16
-5 33 15 28 14 42 -4 42 -11 0 -15 12 -15 50 0 37 -3 48 -13 44 -10 -3 -14 5
-15 27 0 18 -8 36 -16 41 -9 5 -16 16 -16 23 0 8 -7 15 -15 15 -8 0 -15 7 -15
15 0 11 11 15 41 15 37 0 40 2 33 22 -6 20 -5 21 10 9 9 -7 16 -22 16 -31z
m734 30 c18 -6 29 -22 37 -52 7 -24 12 -46 11 -50 -1 -5 3 -8 9 -8 5 0 7 -4 4
-10 -3 -5 -1 -10 5 -10 6 0 8 -5 5 -10 -4 -6 -10 -8 -15 -5 -15 9 -40 -26 -40
-56 0 -19 -5 -29 -15 -29 -8 0 -15 6 -15 14 0 8 -3 23 -6 33 -6 16 -5 16 9 -2
16 -20 16 -20 17 3 0 15 -6 22 -19 22 -13 0 -21 9 -26 29 -5 22 -10 28 -26 24
-13 -4 -19 0 -19 10 0 9 8 17 17 19 14 3 17 12 15 46 -4 46 4 51 52 32z
m-1719 -10 c3 -6 17 -7 31 -4 18 5 24 2 24 -10 0 -9 -7 -16 -15 -16 -8 0 -15
-9 -15 -20 0 -11 -5 -20 -11 -20 -5 0 -7 5 -3 11 4 8 -1 9 -16 4 -19 -6 -21
-4 -15 14 5 16 3 20 -9 15 -10 -4 -16 -1 -16 9 0 22 34 35 45 17z m118 3 c-7
-2 -21 -2 -30 0 -10 3 -4 5 12 5 17 0 24 -2 18 -5z m187 -2 c0 -6 11 -22 25
-37 40 -43 30 -85 -20 -80 -16 2 -31 8 -33 14 -2 6 -10 8 -18 5 -20 -7 -18 4
7 38 12 17 19 39 16 49 -3 13 0 20 9 20 8 0 14 -4 14 -9z m240 -1 c0 -5 -2
-10 -4 -10 -3 0 -8 5 -11 10 -3 6 -1 10 4 10 6 0 11 -4 11 -10z m281 -24 c-14
-36 -22 -33 -9 5 6 16 12 28 14 26 3 -2 0 -16 -5 -31z m206 -33 c-2 -16 -4 -5
-4 22 0 28 2 40 4 28 2 -13 2 -35 0 -50z m973 46 c0 -6 -4 -7 -10 -4 -5 3 -10
11 -10 16 0 6 5 7 10 4 6 -3 10 -11 10 -16z m-1390 1 c0 -5 -5 -10 -11 -10 -5
0 -7 5 -4 10 3 6 8 10 11 10 2 0 4 -4 4 -10z m762 -1 c16 -8 19 -8 13 1 -5 8
-3 11 6 8 24 -8 21 -33 -10 -68 -16 -19 -28 -36 -26 -38 5 -5 38 13 34 19 -1
2 4 14 12 27 16 25 39 29 39 6 0 -8 4 -13 9 -9 16 9 22 -12 6 -25 -12 -10 -8
-16 21 -42 50 -44 67 -83 66 -152 -1 -77 -38 -139 -102 -174 -37 -19 -56 -23
-107 -20 -69 4 -97 20 -147 82 -28 34 -31 44 -31 110 0 62 4 78 27 113 16 25
43 48 71 61 32 15 46 29 52 49 6 25 31 63 42 63 2 0 14 -5 25 -11z m-1247 -17
c11 -2 30 -14 43 -25 12 -11 22 -16 22 -11 -1 14 -23 40 -40 47 -11 4 -9 6 6
6 33 1 55 -30 48 -67 -6 -29 -34 -46 -34 -21 0 7 -10 9 -25 5 -14 -4 -25 -2
-25 4 0 5 -7 10 -15 10 -18 0 -18 5 -5 31 7 13 7 19 1 19 -6 0 -13 -11 -17
-25 -5 -20 0 -30 20 -46 15 -12 25 -24 22 -27 -4 -3 1 -14 10 -23 14 -15 14
-19 3 -23 -8 -2 -22 -7 -32 -10 -9 -3 -22 -17 -27 -31 -10 -26 -12 -26 -100
-24 -71 1 -90 5 -90 16 0 10 6 12 23 8 36 -11 38 -11 50 10 7 11 17 23 22 27
6 5 3 8 -7 8 -9 0 -20 -9 -23 -20 -4 -11 -10 -18 -15 -15 -15 9 1 65 26 90 19
19 26 21 40 10 21 -15 12 -47 -11 -39 -8 3 -15 1 -15 -5 0 -16 50 -13 56 3 3
8 0 25 -7 37 -9 17 -9 24 0 27 6 2 11 8 11 13 0 21 35 58 50 53 8 -4 24 -9 35
-12z m609 9 c6 -9 -35 -24 -43 -15 -6 5 18 24 31 24 4 0 9 -4 12 -9z m462 -17
c-3 -7 -1 -16 4 -19 6 -4 10 -12 10 -18 0 -7 -4 -6 -10 3 -5 8 -10 11 -10 7 0
-5 -5 -5 -10 -2 -8 5 -7 11 0 20 7 8 8 20 4 26 -5 8 -3 9 5 5 7 -5 10 -14 7
-22z m105 17 c-7 -5 -11 -13 -7 -19 3 -5 -1 -15 -9 -22 -13 -11 -15 -10 -10 4
3 9 7 23 10 31 2 8 10 15 17 15 10 0 10 -2 -1 -9z m-1355 -26 c9 -14 22 -25
29 -25 9 0 6 -9 -8 -25 -20 -22 -23 -23 -34 -9 -6 9 -16 13 -22 9 -6 -3 -11 1
-11 9 0 8 5 18 10 21 6 4 8 11 4 16 -3 5 -10 7 -15 4 -10 -7 -12 8 -2 18 13
14 33 6 49 -18z m945 -40 c16 -9 29 -22 29 -29 0 -8 2 -20 5 -28 3 -7 -2 -22
-11 -33 -15 -20 -15 -20 -11 2 6 27 -13 73 -29 73 -17 0 -25 -27 -18 -58 5
-20 4 -24 -5 -16 -8 8 -10 31 -4 80 4 38 9 59 11 46 2 -12 16 -29 33 -37z
m270 -55 c-4 -3 -11 -18 -15 -33 -6 -25 -9 -27 -23 -15 -15 12 -15 13 1 16 10
2 15 10 12 18 -3 8 -1 14 4 14 5 0 9 8 8 18 -1 9 0 35 2 57 2 39 3 38 10 -15
5 -30 5 -57 1 -60z m-571 90 c0 -5 -2 -10 -4 -10 -3 0 -8 5 -11 10 -3 6 -1 10
4 10 6 0 11 -4 11 -10z m160 -6 c0 -2 -7 -4 -15 -4 -8 0 -15 4 -15 10 0 5 7 7
15 4 8 -4 15 -8 15 -10z m-109 -22 c-32 -45 -48 -56 -55 -36 -4 12 -2 15 9 10
14 -5 19 4 16 31 -1 7 5 10 13 7 8 -3 17 -1 21 5 3 6 8 11 11 11 3 0 -4 -13
-15 -28z m1358 -47 c1 -77 -5 -90 -26 -56 -9 15 -9 26 0 50 12 33 2 54 -14 31
-9 -12 -10 -12 -5 3 3 10 6 22 6 27 0 5 8 11 18 13 9 3 18 5 18 6 1 0 2 -33 3
-74z m-139 40 c23 -25 23 -25 2 -25 -17 0 -21 -7 -24 -37 -2 -29 -8 -39 -23
-41 -17 -2 -18 -1 -4 7 12 8 15 22 11 66 -5 61 3 67 38 30z m-1159 -16 c-9
-22 -10 -22 -10 -3 -1 11 2 24 6 27 12 12 14 0 4 -24z m388 -59 c0 -18 -5 -12
-15 20 -17 56 -17 75 1 35 8 -16 14 -41 14 -55z m167 65 c-11 -8 -25 -15 -30
-15 -6 1 0 7 14 15 32 19 40 18 16 0z m-1020 -53 c7 -37 -1 -40 -34 -12 -22
18 -22 20 -5 38 22 23 31 17 39 -26z m1393 18 c11 -24 11 -24 -3 -6 -9 11 -16
24 -16 30 0 12 5 7 19 -24z m-1709 5 c7 -8 10 -21 6 -30 -8 -22 -36 -6 -36 21
0 27 12 31 30 9z m240 -6 c0 -5 -4 -9 -10 -9 -5 0 -10 7 -10 16 0 8 5 12 10 9
6 -3 10 -10 10 -16z m570 17 c0 -3 -4 -8 -10 -11 -5 -3 -10 -1 -10 4 0 6 5 11
10 11 6 0 10 -2 10 -4z m-460 -27 c0 -6 -4 -7 -10 -4 -5 3 -10 11 -10 16 0 6
5 7 10 4 6 -3 10 -11 10 -16z m272 -32 c-20 -13 -24 -3 -11 29 l12 29 7 -25
c4 -17 2 -28 -8 -33z m-143 -19 c1 -19 -4 -28 -15 -28 -8 0 -12 5 -9 10 4 6
-7 10 -24 10 -28 0 -31 3 -31 30 0 17 4 30 9 30 12 0 23 -29 15 -41 -3 -5 7
-9 21 -9 24 0 26 3 21 33 -5 24 -4 27 3 12 5 -11 10 -32 10 -47z m281 41 c-7
-11 -14 -18 -17 -15 -3 3 0 12 7 21 18 21 23 19 10 -6z m390 -15 c0 -16 -26
-19 -35 -4 -4 6 -4 18 -1 27 5 12 9 13 21 3 8 -7 15 -19 15 -26z m-452 10 c12
-8 22 -20 22 -26 0 -6 -8 -4 -18 5 -10 10 -26 17 -36 17 -9 0 -14 5 -11 10 8
14 17 13 43 -6z m-328 -18 c0 -8 -4 -17 -9 -21 -12 -7 -24 12 -16 25 9 15 25
12 25 -4z m410 -151 c-18 -35 -19 -36 -14 -10 4 17 11 40 15 53 5 13 10 47 11
75 2 48 2 47 5 -13 3 -51 -1 -74 -17 -105z m975 33 c4 -10 3 -18 -3 -18 -5 0
-13 16 -16 35 -4 19 -12 35 -18 35 -5 0 -7 8 -4 17 4 9 1 20 -5 24 -9 5 -8 11
2 22 12 12 15 7 25 -42 7 -31 15 -64 19 -73z m-111 106 c13 -33 6 -49 -9 -20
-18 33 -18 36 -6 36 5 0 12 -7 15 -16z m-1352 -22 c13 -13 2 -32 -18 -32 -8 0
-14 -7 -12 -16 2 -10 -3 -19 -9 -21 -7 -3 -13 0 -13 6 0 6 -6 11 -14 11 -9 0
-12 7 -9 20 5 21 -11 28 -22 10 -8 -13 -25 -13 -25 -1 0 5 6 16 14 24 17 16
91 16 108 -1z m74 2 c14 5 15 4 4 -9 -17 -21 -27 -19 -41 8 -11 20 -11 21 4 8
9 -7 24 -10 33 -7z m322 4 c15 -15 16 -48 0 -48 -6 0 -8 3 -5 7 10 10 -13 33
-33 33 -25 0 -45 -26 -26 -33 21 -8 49 -54 41 -68 -6 -8 -10 -7 -16 2 -7 11
-9 10 -9 -5 0 -15 -3 -16 -15 -6 -8 7 -15 18 -15 24 0 8 2 8 8 0 5 -9 10 -9
18 0 8 9 4 20 -16 43 -15 17 -36 36 -46 42 -17 9 -17 10 -2 11 9 0 20 -5 23
-10 4 -6 12 -4 21 5 18 18 55 20 72 3z m1285 -5 c-7 -2 -21 -2 -30 0 -10 3 -4
5 12 5 17 0 24 -2 18 -5z m-1523 -33 c0 -5 -7 -13 -16 -18 -8 -5 -21 -20 -27
-33 -8 -15 -23 -25 -40 -27 -25 -3 -27 -7 -27 -46 0 -24 5 -57 11 -74 14 -41
8 -60 -13 -39 -21 22 -32 8 -11 -15 22 -24 8 -23 -24 2 -19 14 -21 20 -10 20
10 0 14 6 11 15 -4 10 0 15 14 15 15 0 19 5 15 20 -4 14 -11 19 -23 15 -10 -3
-21 -1 -25 5 -4 6 4 10 18 10 21 0 24 4 23 30 -1 17 -7 35 -15 39 -15 10 -51
3 -51 -10 0 -5 -4 -9 -10 -9 -5 0 -10 9 -10 20 0 12 7 20 16 20 9 0 18 8 21
19 7 26 52 46 59 26 7 -18 24 -20 24 -3 0 6 7 19 16 29 13 14 21 15 45 7 16
-5 29 -14 29 -18z m467 -17 c-3 -10 -5 -2 -5 17 0 19 2 27 5 18 2 -10 2 -26 0
-35z m293 37 c0 -5 -8 -10 -17 -10 -15 0 -16 2 -3 10 19 12 20 12 20 0z m490
-10 c0 -5 -2 -10 -4 -10 -3 0 -8 5 -11 10 -3 6 -1 10 4 10 6 0 11 -4 11 -10z
m275 2 c16 4 47 8 67 8 l38 0 0 -60 c0 -33 -4 -60 -10 -60 -10 0 -14 13 -11
43 2 12 -5 17 -23 17 -19 0 -24 4 -20 15 4 11 2 13 -9 9 -9 -3 -24 -1 -34 4
-13 7 -22 6 -31 -4 -11 -12 -8 -14 16 -14 18 0 38 -10 56 -29 39 -41 27 -55
-41 -46 -30 4 -59 3 -66 -2 -7 -5 -36 -7 -64 -5 l-53 4 0 36 c0 21 -3 47 -6
59 -7 27 8 30 96 22 36 -3 78 -2 95 3z m-1488 -34 c-3 -8 -6 -5 -6 6 -1 11 2
17 5 13 3 -3 4 -12 1 -19z m103 -10 c0 -17 7 -39 16 -49 12 -13 15 -28 10 -54
-10 -50 -22 -43 -30 18 -3 28 -9 67 -12 85 -4 20 -2 32 5 32 6 0 11 -14 11
-32z m-397 7 c36 -7 38 -9 35 -44 -2 -20 -8 -36 -15 -36 -7 0 -13 -4 -12 -10
0 -12 -59 -25 -79 -18 -11 5 -9 10 9 24 13 10 19 19 13 19 -6 0 -22 -11 -35
-24 -21 -20 -31 -23 -81 -18 l-58 4 0 49 c0 32 4 49 13 49 9 0 9 2 0 8 -16 10
159 8 210 -3z m557 11 c0 -3 -4 -8 -10 -11 -5 -3 -10 -1 -10 4 0 6 5 11 10 11
6 0 10 -2 10 -4z m920 -71 c1 -22 5 -51 10 -65 l7 -25 12 29 c11 27 13 28 28
13 16 -16 16 -18 -1 -30 -16 -12 -16 -13 3 -14 16 -1 21 6 24 35 2 20 3 13 2
-15 -1 -29 2 -53 7 -53 15 0 8 -27 -9 -41 -16 -13 -17 -12 -5 3 16 20 6 34
-36 57 -21 11 -24 9 -33 -18 -6 -17 -16 -31 -21 -31 -6 0 -6 6 2 15 8 10 10
31 5 66 -5 35 -10 47 -16 38 -7 -11 -9 -11 -9 3 0 9 5 20 10 23 6 3 8 25 5 48
-4 31 -3 37 4 22 5 -11 10 -38 11 -60z m-955 55 c3 -5 1 -10 -4 -10 -6 0 -11
5 -11 10 0 6 2 10 4 10 3 0 8 -4 11 -10z m58 -5 c-3 -9 -8 -14 -10 -11 -3 3
-2 9 2 15 9 16 15 13 8 -4z m34 -75 c-6 -29 5 -41 18 -20 10 17 63 11 74 -7 6
-10 11 -12 11 -5 0 21 20 13 20 -9 0 -12 9 -36 19 -53 20 -31 20 -31 -1 -56
-18 -23 -19 -23 -15 -4 5 24 -24 47 -48 38 -10 -4 -15 0 -15 10 0 9 -4 16 -10
16 -19 0 -10 29 12 41 22 12 22 12 3 19 -30 11 -50 -4 -63 -48 -15 -50 -15
-52 2 -52 17 0 30 -59 16 -75 -5 -6 -7 -15 -3 -18 3 -4 1 -7 -5 -7 -8 0 -10
15 -7 46 3 38 1 45 -12 40 -23 -9 -71 -49 -78 -65 -4 -11 -1 -10 13 2 10 9 26
17 36 17 14 0 16 -8 12 -50 -3 -27 -12 -60 -20 -72 -21 -29 -20 -39 1 -31 12
5 15 2 10 -10 -3 -9 -2 -17 3 -17 5 0 1 -21 -9 -47 -11 -27 -24 -47 -30 -45
-15 3 -14 -13 2 -27 17 -14 27 -4 27 25 0 41 31 91 70 113 21 12 44 21 51 20
8 0 3 -5 -10 -10 -19 -7 -21 -12 -11 -24 6 -7 18 -11 26 -8 8 3 20 0 28 -6 7
-6 16 -7 20 -3 4 4 58 7 119 7 104 0 115 2 159 28 26 15 52 35 57 45 9 14 10
14 11 2 0 -9 -5 -21 -12 -28 -9 -9 -7 -12 9 -12 12 0 25 5 28 10 3 6 14 10 24
10 10 0 35 14 56 30 21 17 45 30 53 30 13 0 12 -3 -4 -14 -18 -14 -18 -15 -1
-21 9 -4 17 -11 17 -16 0 -5 -9 -4 -20 3 -17 11 -23 9 -41 -8 l-21 -21 32 -7
c21 -4 39 -1 53 9 29 20 42 19 21 -2 -15 -16 -15 -17 2 -24 33 -13 57 -10 51
5 -4 10 -1 13 9 9 26 -10 9 -28 -32 -34 -65 -11 -99 -25 -98 -40 1 -10 -10
-16 -30 -17 -35 -3 -41 -8 -51 -40 -6 -21 -5 -22 13 -11 16 10 25 10 44 1 23
-12 23 -12 1 -6 -32 8 -48 -5 -27 -21 16 -11 16 -13 -5 -24 -13 -8 -20 -18
-17 -27 6 -17 -10 -19 -20 -3 -4 7 4 20 17 30 23 18 23 19 3 19 -16 0 -29 -20
-66 -107 -38 -92 -49 -108 -69 -110 -14 -1 -17 0 -7 3 10 3 20 20 24 39 3 18
12 36 19 38 7 3 15 15 18 26 4 18 3 19 -15 10 -11 -6 -23 -20 -25 -30 -3 -10
-9 -19 -14 -19 -19 0 -7 24 27 55 20 19 33 38 30 43 -3 6 0 37 8 71 8 33 11
62 8 65 -10 11 -21 6 -16 -7 3 -8 -1 -19 -8 -25 -10 -8 -14 -2 -16 28 -2 27 2
41 13 48 14 7 14 10 3 20 -22 18 -104 -10 -100 -34 3 -14 1 -15 -10 -7 -12 11
-108 29 -108 22 0 -2 4 -19 9 -37 10 -35 9 -37 -20 -22 -22 12 -25 36 -6 43 6
3 2 6 -11 6 -13 1 -20 5 -17 11 3 6 4 10 1 10 -16 0 -119 -52 -138 -70 -16
-15 -24 -17 -27 -8 -4 14 -21 28 -35 28 -4 0 -6 -6 -3 -14 3 -7 -8 -40 -24
-72 -16 -33 -29 -67 -29 -77 0 -10 -5 -15 -10 -12 -6 4 -7 13 -1 23 12 23 6
65 -18 142 -28 89 -28 102 4 90 20 -8 25 -6 25 6 0 9 8 29 17 45 9 15 13 32 9
36 -5 4 -11 2 -13 -4 -7 -20 -23 -15 -23 7 0 11 -4 20 -10 20 -19 0 -10 37 15
60 24 23 47 86 60 168 4 23 9 42 12 42 3 0 3 -13 0 -30z m-506 11 c-7 -5 -10
-14 -7 -20 4 -6 2 -11 -3 -11 -6 0 -11 9 -11 20 0 12 7 20 18 20 13 0 14 -2 3
-9z m239 -23 c0 -4 -10 -9 -22 -9 -21 -1 -21 -2 -3 -6 19 -5 45 -29 45 -44 0
-3 -14 -9 -30 -13 -39 -7 -40 -7 -42 2 -1 4 11 10 28 13 l29 7 -32 1 c-17 0
-35 -4 -38 -9 -7 -12 -25 -4 -25 11 0 5 10 13 22 18 20 7 19 8 -10 14 -22 4
-32 12 -32 25 0 16 5 17 55 8 30 -6 55 -14 55 -18z m136 -22 c-8 -48 -30 -86
-51 -86 -17 0 -19 18 -5 40 6 10 10 11 10 3 0 -19 18 -16 24 5 12 44 17 86 8
73 -6 -8 -12 -9 -16 -3 -7 11 14 22 28 14 4 -2 5 -23 2 -46z m273 -10 l-1 -31
-8 30 c-4 17 -11 39 -15 50 -7 20 -6 20 9 1 9 -11 16 -34 15 -50z m252 47 c13
-16 12 -17 -3 -4 -10 7 -18 15 -18 17 0 8 8 3 21 -13z m-797 -8 c6 -17 -9 -65
-22 -65 -4 0 -9 11 -10 24 -1 16 4 26 16 28 11 2 13 6 5 11 -6 4 -19 0 -27 -9
-9 -8 -16 -12 -16 -7 0 13 22 33 36 33 6 0 14 -7 18 -15z m656 -2 c0 -9 -3
-13 -7 -10 -7 8 -33 -11 -33 -23 0 -5 8 -11 18 -13 15 -4 15 -5 0 -6 -28 -2
-31 19 -7 45 27 29 29 29 29 7z m903 -5 c3 -7 2 -51 -1 -97 -4 -62 -2 -82 6
-77 7 4 13 39 14 89 1 75 2 78 8 32 l7 -50 1 47 c2 45 15 69 30 53 4 -4 2 -9
-4 -12 -7 -2 -9 -24 -6 -60 3 -40 2 -54 -7 -49 -7 5 -11 -3 -11 -22 0 -21 5
-29 18 -29 23 0 32 17 25 44 -3 14 -1 23 6 23 6 0 11 -16 11 -35 0 -34 13 -47
23 -22 3 6 6 3 6 -9 1 -17 -5 -20 -31 -20 -18 0 -50 -3 -70 -7 -35 -7 -38 -6
-39 15 -1 23 -1 23 -9 -2 -4 -14 -9 -20 -10 -15 -1 6 -3 15 -5 20 -1 6 -3 23
-3 38 -2 25 -4 27 -23 17 -16 -9 -18 -14 -8 -26 14 -17 -2 -19 -19 -2 -15 15
-16 48 -2 48 6 0 10 20 10 44 0 39 4 47 28 59 35 19 49 20 55 5z m118 -20 c0
-18 2 -42 3 -54 1 -11 -1 -29 -5 -40 -5 -14 -8 -8 -8 21 -1 29 -4 36 -11 25
-8 -13 -8 18 -1 73 1 4 6 7 11 7 6 0 10 -15 11 -32z m-1855 -13 c2 -28 -12
-34 -19 -7 -4 13 -5 11 -6 -5 0 -13 -3 -23 -5 -23 -16 0 -36 14 -36 26 0 17
17 18 23 2 4 -8 6 -7 6 4 1 14 12 24 31 27 3 1 6 -10 6 -24z m1588 5 l9 25 4
-23 c4 -19 7 -21 19 -11 11 9 15 8 20 -6 4 -9 2 -21 -5 -28 -6 -6 -11 -22 -11
-36 l0 -26 -20 25 c-11 14 -20 31 -20 39 0 11 -3 11 -15 1 -12 -10 -15 -9 -15
8 0 11 3 29 7 39 6 16 8 15 13 -7 l6 -25 8 25z m-1698 -27 c-11 -11 -19 6 -11
24 8 17 8 17 12 0 3 -10 2 -21 -1 -24z m1539 -4 c5 -18 2 -28 -8 -32 -11 -4
-13 0 -9 15 4 18 2 20 -16 16 -20 -6 -20 -5 -5 19 18 27 28 22 38 -18z m-1666
9 c1 26 21 30 21 5 0 -14 2 -15 9 -5 7 11 9 11 14 -2 8 -21 24 -20 30 2 3 9 6
-3 7 -28 l3 -45 7 35 c7 35 7 35 9 -11 3 -113 14 -199 26 -199 8 0 14 20 17
52 4 39 11 57 29 71 l24 19 6 -38 6 -39 2 43 c1 47 17 57 24 15 4 -25 4 -24 7
7 l2 35 8 -30 c7 -29 8 -29 10 10 2 35 3 37 10 15 6 -18 8 -20 9 -7 1 10 5 16
11 12 5 -3 7 -12 3 -20 -4 -11 0 -14 13 -9 11 3 1 -6 -21 -19 -69 -43 -85 -57
-86 -75 -1 -9 -5 1 -9 23 l-7 40 -2 -52 c0 -31 -6 -53 -12 -53 -6 0 -8 7 -5
16 3 8 2 12 -4 9 -6 -3 -10 -13 -10 -21 0 -14 -3 -15 -52 -18 -21 -1 -28 3
-28 16 0 10 7 18 15 18 12 0 13 12 8 68 -8 88 -13 92 -13 9 0 -36 -4 -69 -10
-72 -5 -3 -10 -17 -10 -30 0 -43 -19 -37 -23 7 -2 24 -5 -11 -7 -77 -3 -129
-5 -128 -15 8 -8 107 -20 106 -18 -1 l2 -77 -10 60 c-5 33 -8 77 -7 98 2 20 1
37 -2 37 -4 0 -4 85 0 190 2 32 3 33 10 10 8 -24 8 -24 9 -2z m161 12 c0 -5
-4 -10 -10 -10 -5 0 -10 5 -10 10 0 6 5 10 10 10 6 0 10 -4 10 -10z m123 -10
c9 -11 13 -20 7 -20 -5 0 -14 9 -20 20 -6 11 -9 20 -8 20 2 0 11 -9 21 -20z
m472 -1 c-5 -15 -4 -19 4 -15 7 5 4 -11 -5 -36 -22 -55 -28 -62 -19 -19 5 25
4 32 -5 26 -9 -6 -9 -3 -1 14 7 12 9 25 6 30 -4 8 5 16 23 20 2 1 0 -9 -3 -20z
m362 -36 c-3 -10 -5 -4 -5 12 0 17 2 24 5 18 2 -7 2 -21 0 -30z m-508 -51 c2
-35 -21 -22 -32 17 -5 23 -4 37 5 48 11 14 14 13 19 -13 4 -16 7 -39 8 -52z
m-398 56 c28 -8 39 -17 39 -30 0 -15 -5 -18 -20 -13 -11 3 -20 2 -20 -4 0 -5
-11 -8 -24 -5 -18 3 -26 -1 -31 -16 -11 -33 -24 -12 -23 35 1 51 9 54 79 33z
m192 -7 c-2 -6 4 -11 13 -11 11 0 14 -5 10 -17 -4 -9 -1 -20 6 -25 10 -6 10
-8 0 -8 -8 0 -16 9 -19 20 -3 11 -10 17 -16 13 -6 -3 -7 -1 -3 6 4 6 0 14 -8
17 -9 3 -13 10 -10 16 8 12 30 4 27 -11z m602 -46 c11 -110 11 -128 -5 -133
-13 -4 -13 -3 -2 11 10 12 11 24 3 54 -10 36 -16 141 -7 132 2 -2 7 -31 11
-64z m29 50 c-4 -8 -1 -15 5 -15 9 0 9 -5 1 -20 -8 -16 -8 -20 4 -20 8 0 17 8
19 18 3 9 5 0 6 -20 1 -41 -17 -62 -26 -29 -3 12 -9 21 -13 21 -6 0 -7 67 -1
78 5 9 9 -1 5 -13z m566 1 c0 -2 -8 -10 -17 -17 -16 -13 -17 -12 -4 4 13 16
21 21 21 13z m123 -20 c-3 -14 -12 -27 -22 -31 -13 -5 -14 -4 -3 6 6 7 12 21
12 31 0 10 4 18 9 18 4 0 6 -11 4 -24z m-1063 -36 c12 -8 11 -10 -7 -10 -13 0
-23 5 -23 10 0 13 11 13 30 0z m45 -19 c-3 -6 -11 -11 -16 -11 -5 0 -4 6 3 14
14 16 24 13 13 -3z m-285 -17 c0 -2 -9 0 -20 6 -11 6 -20 13 -20 16 0 2 9 0
20 -6 11 -6 20 -13 20 -16z m894 11 c-4 -8 -9 -15 -13 -15 -3 -1 -17 -10 -30
-21 -18 -15 -21 -23 -13 -31 17 -17 15 -36 -5 -57 -23 -23 -63 -44 -71 -37 -3
3 0 6 6 6 7 0 12 5 12 11 0 7 -10 9 -25 5 -14 -4 -25 -2 -25 3 0 17 18 21 45
11 23 -9 30 -7 47 12 11 13 15 24 9 26 -22 7 -10 41 27 71 43 36 43 35 36 16z
m-1192 -27 c-9 -9 -12 -7 -12 12 0 19 3 21 12 12 9 -9 9 -15 0 -24z m1423 22
c4 -6 -8 -10 -29 -10 -19 0 -43 -3 -53 -6 -12 -5 -15 -4 -8 4 19 19 80 28 90
12z m205 7 c0 -2 -10 -12 -21 -23 -22 -19 -22 -19 -10 4 10 18 31 31 31 19z
m-1237 -37 c9 -11 13 -20 8 -20 -5 0 -14 6 -21 14 -6 8 -26 17 -43 19 l-32 4
35 1 c25 2 41 -4 53 -18z m892 -13 c-16 -12 -39 -32 -52 -44 -15 -15 -23 -18
-23 -8 0 7 21 27 47 44 53 35 73 41 28 8z m-55 10 c0 -2 -11 -14 -25 -27 -14
-13 -25 -21 -25 -17 0 3 10 15 22 27 21 19 28 24 28 17z m190 -4 c-14 -2 -40
-8 -57 -13 -18 -5 -33 -6 -33 -4 0 10 47 23 80 22 26 -1 28 -2 10 -5z m125 -4
c3 -5 1 -18 -5 -30 l-12 -21 -22 21 c-12 12 -27 21 -34 21 -6 0 -13 3 -15 8
-3 4 15 8 39 9 24 1 46 -3 49 -8z m377 -11 c-13 -13 1 -38 22 -38 6 0 17 -9
23 -19 10 -16 9 -26 -3 -49 -8 -17 -21 -35 -29 -42 -12 -10 -10 -16 15 -42 33
-33 37 -50 15 -68 -20 -17 -35 -4 -35 30 0 20 -8 35 -25 46 -31 20 -32 40 -2
48 21 6 21 7 5 20 -24 18 -22 35 5 46 14 6 16 9 6 9 -37 2 -75 -94 -46 -117
15 -13 15 -64 0 -69 -13 -5 -24 35 -12 43 11 7 -8 44 -23 44 -7 0 -6 -5 2 -15
9 -11 10 -18 1 -28 -6 -8 -8 -17 -4 -20 3 -4 -2 -7 -12 -7 -15 0 -17 7 -12 58
13 131 35 178 86 184 32 4 38 1 23 -14z m-1915 -45 c-3 -10 -5 -2 -5 17 0 19
2 27 5 18 2 -10 2 -26 0 -35z m524 30 c12 -14 12 -15 0 -9 -10 7 -12 3 -7 -15
4 -20 3 -19 -6 3 -6 15 -19 29 -27 31 -11 3 -9 5 5 6 12 0 28 -7 35 -16z
m1434 -11 c-8 -8 -25 10 -19 20 4 6 9 5 15 -3 4 -7 6 -15 4 -17z m-1480 4 c11
-2 -41 -3 -115 -3 -100 0 -117 2 -65 6 66 6 134 4 180 -3z m465 -1 c11 -13 10
-14 -4 -9 -9 3 -16 10 -16 15 0 13 6 11 20 -6z m478 -2 c16 -16 16 -16 -1 -10
-10 4 -28 7 -40 7 -18 0 -19 2 -7 10 21 14 29 12 48 -7z m-1263 0 c-11 -2 -30
-6 -42 -8 -12 -3 -23 -15 -26 -28 -4 -19 -4 -19 -6 5 -1 30 9 37 59 36 19 0
26 -2 15 -5z m52 1 c-3 -3 -12 -4 -19 -1 -8 3 -5 6 6 6 11 1 17 -2 13 -5z
m537 0 c20 -8 21 -24 2 -24 -8 0 -16 7 -20 15 -6 17 -4 18 18 9z m778 -46 c50
-52 78 -118 78 -185 0 -21 3 -23 14 -14 10 8 16 9 21 2 4 -7 12 -7 25 1 24 15
30 10 36 -38 4 -35 3 -36 -7 -16 -12 23 -33 29 -44 12 -6 -10 -36 -2 -47 14
-4 6 -8 24 -8 39 0 16 -4 26 -10 22 -5 -3 -10 3 -10 13 0 11 -11 27 -25 36
-14 9 -23 21 -20 26 4 6 1 10 -4 10 -15 0 -14 27 1 32 20 7 1 36 -39 58 -21
12 -30 19 -20 16 25 -8 21 3 -5 14 -19 7 -20 9 -5 9 11 1 41 -22 69 -51z
m-932 -2 c-1 -6 -6 -2 -13 10 -7 12 -19 19 -27 17 -13 -4 -13 -3 0 6 11 8 18
6 28 -6 6 -9 12 -22 12 -27z m480 29 c0 -8 -5 -15 -11 -15 -5 0 -8 4 -5 9 4 5
0 12 -6 14 -8 3 -6 6 5 6 9 1 17 -6 17 -14z m190 6 c0 -5 -6 -14 -14 -20 -12
-10 -13 -8 -9 8 5 21 23 30 23 12z m-340 -25 c0 -8 -4 -17 -8 -20 -4 -2 -8 4
-8 15 0 10 4 19 8 19 4 0 8 -6 8 -14z m-842 -55 c-12 -4 -29 20 -21 32 3 4 11
0 18 -10 9 -12 10 -19 3 -22z m1237 21 c-3 -3 -11 0 -18 7 -9 10 -8 11 6 5 10
-3 15 -9 12 -12z m-472 1 c-7 -2 -19 -2 -25 0 -7 3 -2 5 12 5 14 0 19 -2 13
-5z m165 -19 c2 -15 1 -16 -6 -5 -6 8 -17 11 -27 7 -15 -5 -16 -4 -5 9 16 20
34 14 38 -11z m-1008 -6 c0 -5 -9 -18 -20 -30 -17 -19 -20 -19 -20 -5 0 9 -7
17 -15 17 -17 0 -19 12 -4 27 12 12 59 5 59 -9z m538 -45 c-3 -49 -1 -74 10
-91 11 -16 13 -38 9 -79 -4 -41 -2 -59 9 -70 17 -18 18 -50 0 -82 -17 -31 -30
-11 -15 23 12 26 7 56 -10 56 -13 0 -40 -85 -34 -109 3 -14 0 -19 -11 -17 -9
1 -17 4 -17 7 -2 13 16 69 33 103 13 25 18 49 14 67 -3 18 -1 29 5 29 7 0 6 6
-2 17 -13 15 -16 117 -5 168 2 11 5 26 5 33 1 6 4 12 7 12 4 0 4 -30 2 -67z
m-416 -486 c2 -81 0 -147 -3 -147 -7 0 -20 253 -19 358 2 90 -7 124 -30 117
-21 -7 -37 12 -22 27 7 7 17 6 31 -1 21 -11 21 -10 23 81 1 101 14 -179 20
-435z m356 434 c1 -44 -2 -83 -8 -86 -6 -3 -10 3 -10 14 0 26 -9 27 -26 4 -12
-17 -14 -17 -35 3 l-21 22 21 21 c12 12 21 28 21 36 0 29 18 15 28 -22 l10
-38 1 31 c1 31 12 94 16 94 1 0 3 -36 3 -79z m-548 23 c0 -19 -4 -34 -10 -34
-5 0 -9 18 -8 40 2 48 18 43 18 -6z m1490 6 c19 -16 29 -30 23 -30 -7 0 -27
13 -45 30 -43 38 -24 38 22 0z m-1458 -5 c0 -5 -5 -11 -11 -13 -6 -2 -11 4
-11 13 0 9 5 15 11 13 6 -2 11 -8 11 -13z m105 -17 c-3 -7 -5 -2 -5 12 0 14 2
19 5 13 2 -7 2 -19 0 -25z m1295 -38 c15 -25 36 -80 47 -124 24 -97 12 -88
-18 14 -29 96 -36 113 -69 148 -7 7 -9 19 -5 25 4 7 8 6 12 -4 3 -8 18 -34 33
-59z m14 43 c-7 -7 -26 7 -26 19 0 6 6 6 15 -2 9 -7 13 -15 11 -17z m147 -81
c5 -28 13 -43 26 -47 20 -6 36 -34 25 -44 -3 -3 -10 2 -15 12 -6 9 -14 17 -19
17 -19 0 -33 -245 -17 -323 6 -34 6 -52 -2 -60 -8 -8 -11 -5 -11 10 0 14 -6
20 -17 18 -10 -1 -12 0 -5 2 18 7 15 21 -8 28 -11 3 -20 11 -20 17 0 5 7 8 15
4 18 -6 21 25 5 53 -18 35 -36 32 -32 -5 2 -19 0 -34 -5 -34 -4 0 -8 -18 -8
-39 0 -22 3 -37 7 -35 5 3 11 -3 15 -12 4 -11 1 -20 -6 -22 -7 -2 -28 -17 -46
-33 -47 -42 -57 -38 -50 19 3 26 9 58 12 72 11 45 11 50 3 50 -5 0 -7 8 -5 18
2 9 4 17 5 17 1 0 3 12 4 28 1 15 -3 27 -9 27 -5 0 -4 4 3 9 11 7 11 11 -2 24
-12 11 -13 17 -3 20 9 4 8 8 -3 16 -10 7 -11 11 -2 11 6 0 12 6 12 14 0 8 -6
17 -12 19 -9 4 -8 6 3 6 8 1 25 -19 39 -46 22 -44 85 -111 95 -101 2 2 -6 25
-19 51 -23 44 -19 70 4 27 16 -30 27 -24 22 10 -2 17 0 49 6 73 16 63 1 172
-26 197 -12 12 -22 24 -22 28 0 4 13 -7 29 -24 16 -18 31 -48 34 -72z m17 54
c0 -18 -2 -17 -15 8 -19 36 -19 42 0 26 8 -7 15 -22 15 -34z m-1497 14 c-3
-11 -7 -20 -9 -20 -2 0 -4 9 -4 20 0 11 4 20 9 20 5 0 7 -9 4 -20z m150 -18
c9 -21 17 -47 17 -57 0 -39 58 -73 76 -44 4 8 9 7 14 -2 10 -16 41 -21 55 -9
6 5 30 13 54 19 39 8 46 7 66 -14 17 -16 27 -19 34 -12 8 8 11 8 11 0 0 -6 -7
-16 -15 -23 -8 -7 -15 -27 -15 -44 -1 -26 -2 -28 -11 -14 -7 12 -6 24 1 39 10
17 8 23 -7 35 -27 20 -39 17 -62 -13 -17 -25 -22 -26 -40 -15 -12 6 -23 12
-25 12 -8 0 -1 -65 8 -72 6 -4 4 -14 -5 -24 -9 -11 -9 -15 -1 -10 6 4 12 2 12
-3 0 -6 -7 -11 -15 -11 -9 0 -18 -7 -22 -17 -5 -13 -8 -12 -15 8 -7 17 -11 20
-17 10 -6 -9 -11 -10 -15 -2 -4 6 -3 11 3 11 6 0 10 23 9 56 -1 46 -4 53 -13
40 -16 -22 -22 -20 -51 11 -23 25 -28 26 -56 15 -18 -6 -34 -10 -36 -7 -9 9 9
37 28 42 24 6 24 7 5 36 -14 22 -11 97 4 97 4 0 15 -17 24 -38z m692 18 c45
-30 106 -45 117 -28 7 10 8 9 4 -4 -7 -24 33 -24 77 -1 30 15 31 15 18 0 -11
-15 -11 -17 2 -17 23 0 29 -16 12 -34 -10 -10 -12 -17 -5 -21 8 -5 8 -11 1
-19 -6 -7 -8 -16 -4 -19 3 -4 1 -7 -6 -7 -8 0 -11 6 -7 17 4 9 1 20 -6 25 -10
6 -9 11 5 19 33 19 17 29 -46 28 -35 -1 -74 4 -87 11 -18 10 -25 10 -28 1 -3
-9 -7 -9 -18 0 -8 6 -12 15 -9 19 5 8 -54 40 -74 40 -24 0 -9 -29 19 -39 17
-5 30 -12 30 -15 0 -3 -12 -1 -26 4 -34 13 -34 13 -34 -10 0 -13 7 -20 20 -20
12 0 20 -7 20 -17 0 -15 -2 -15 -9 -4 -5 8 -16 11 -25 8 -19 -7 -42 28 -26 38
6 4 8 15 5 26 -14 42 29 53 80 19z m-865 -11 c0 -18 -4 -20 -26 -15 -14 4 -31
3 -38 -1 -7 -4 -4 0 7 9 10 9 25 14 32 11 8 -3 15 0 15 6 0 6 2 11 5 11 3 0 5
-9 5 -21z m1736 -54 c-4 -16 -11 -22 -21 -19 -18 7 -19 34 -3 70 l12 26 9 -26
c5 -15 6 -38 3 -51z m-986 55 c0 -5 -4 -10 -10 -10 -5 0 -7 -7 -4 -15 5 -11 2
-13 -10 -9 -19 7 -20 16 -4 32 15 15 28 16 28 2z m-902 -65 c13 5 14 3 5 -6
-18 -18 -33 -1 -31 39 l1 37 4 -38 c4 -31 8 -37 21 -32z m1580 42 c6 -5 12
-19 12 -30 0 -11 -3 -17 -7 -13 -4 4 -8 15 -8 24 0 9 -8 18 -18 20 -15 3 -17
-1 -12 -25 7 -32 -8 -14 -19 24 -6 18 -4 21 16 16 13 -3 29 -10 36 -16z
m-1478 -47 c0 -22 -5 -40 -10 -40 -6 0 -9 16 -6 38 5 45 5 42 11 42 3 0 5 -18
5 -40z m100 30 c0 -5 -4 -10 -10 -10 -5 0 -10 5 -10 10 0 6 5 10 10 10 6 0 10
-4 10 -10z m304 -6 c32 -32 20 -42 -36 -32 -29 5 -59 15 -66 21 -10 8 -12 5
-9 -14 2 -13 2 -18 0 -11 -3 6 -14 12 -25 12 -11 0 -18 5 -16 13 3 7 25 13 57
14 29 1 56 4 59 7 9 10 20 7 36 -10z m347 -2 c8 -13 20 -17 40 -14 28 4 29 3
25 -29 -3 -19 -5 -36 -6 -39 -1 -3 -2 -13 -1 -22 1 -10 -3 -18 -9 -18 -6 0
-15 -12 -21 -27 -10 -27 -11 -27 -25 -9 -18 25 -32 11 -16 -15 10 -16 10 -24
1 -35 -9 -11 -9 -14 1 -14 8 0 9 -4 3 -12 -5 -7 -10 -24 -11 -37 0 -13 -5 -28
-10 -33 -10 -10 -16 41 -14 122 2 56 -5 90 -18 90 -11 0 -13 -111 -4 -212 4
-37 10 -65 15 -63 21 14 16 -16 -7 -39 -24 -23 -26 -31 -20 -75 4 -31 3 -52
-4 -56 -8 -5 -7 -11 1 -21 6 -8 9 -14 5 -14 -3 0 -9 0 -13 0 -5 0 -8 4 -8 9 0
5 -3 13 -7 17 -5 4 -8 -1 -8 -12 0 -10 -5 -26 -11 -34 -8 -12 -9 -10 -5 10 40
163 55 260 47 311 -9 57 -1 195 12 217 5 6 17 12 29 12 13 0 18 5 15 14 -4 11
-1 13 10 9 11 -4 14 -2 9 5 -4 7 -16 12 -27 12 -11 0 -17 5 -14 10 10 16 34
12 46 -8z m-734 -44 c-2 -13 -4 -5 -4 17 -1 22 1 32 4 23 2 -10 2 -28 0 -40z
m20 15 c-3 -10 -5 -4 -5 12 0 17 2 24 5 18 2 -7 2 -21 0 -30z m1555 28 c-10
-6 -8 -10 8 -14 15 -4 19 -10 14 -18 -6 -10 -9 -10 -12 -1 -2 7 -10 12 -18 12
-15 0 -19 12 -7 23 3 4 11 7 17 7 6 0 5 -4 -2 -9z m-1622 -11 c0 -5 -2 -10 -4
-10 -3 0 -8 5 -11 10 -3 6 -1 10 4 10 6 0 11 -4 11 -10z m1396 -18 c-4 -3 -14
2 -24 12 -16 18 -16 18 6 6 13 -6 21 -14 18 -18z m-341 -16 c10 -14 14 -14 34
1 31 21 44 6 29 -37 -24 -75 -31 -90 -38 -90 -5 0 -11 8 -13 18 -4 14 -5 13
-6 -4 0 -11 10 -43 24 -70 29 -56 28 -54 16 -54 -5 0 -17 20 -27 45 -15 41
-31 54 -46 39 -4 -3 0 -17 8 -32 8 -15 14 -37 14 -50 0 -12 7 -25 15 -27 53
-17 52 -15 25 -37 -14 -11 -24 -27 -22 -35 2 -8 -6 -17 -17 -20 -12 -3 -21
-12 -21 -19 0 -20 -9 -17 -36 9 -16 15 -24 33 -24 57 0 20 -5 41 -12 48 -17
17 18 28 37 12 17 -14 48 -5 43 12 -3 7 -13 13 -23 13 -10 0 -20 6 -22 13 -3
6 2 12 11 12 9 0 16 5 16 10 0 6 -4 10 -10 10 -17 0 -11 28 8 39 9 6 13 11 7
11 -5 0 -4 4 3 9 10 6 11 13 1 34 -12 27 -35 39 -27 15 3 -7 -3 -20 -13 -29
-15 -15 -18 -15 -33 2 -8 10 -13 25 -10 33 3 8 1 17 -5 21 -20 12 -11 25 15
25 23 0 25 2 14 15 -11 13 -15 13 -21 3 -5 -7 -9 -8 -9 -2 0 18 8 20 57 18 28
-2 52 -9 58 -18z m882 9 c27 -11 39 -12 49 -4 42 35 60 -37 19 -73 -18 -15
-23 -28 -19 -45 5 -18 2 -23 -14 -23 -11 0 -25 -7 -32 -15 -18 -22 -35 -18
-48 10 -16 34 -15 45 2 45 7 0 16 11 18 25 3 15 1 25 -6 25 -6 0 -17 12 -23
27 -10 21 -10 28 0 35 16 10 12 10 54 -7z m-1947 -4 c0 -5 -7 -11 -15 -15 -11
-4 -13 -14 -8 -38 6 -32 6 -33 -14 -16 -15 14 -22 15 -31 6 -9 -9 -12 -5 -12
20 0 24 6 35 23 42 29 12 57 12 57 1z m898 -10 c-2 -5 6 -16 16 -24 18 -14 19
-18 6 -56 -7 -22 -17 -41 -22 -41 -11 0 -10 27 3 51 8 16 7 25 -6 39 -9 10
-14 24 -10 29 8 13 16 14 13 2z m479 -6 c9 -25 -4 -29 -17 -6 -7 15 -7 21 0
21 6 0 13 -7 17 -15z m-1267 -10 c10 -12 10 -15 -4 -15 -9 0 -16 7 -16 15 0 8
2 15 4 15 2 0 9 -7 16 -15z m1300 -15 c0 -5 -4 -10 -10 -10 -5 0 -10 5 -10 10
0 6 5 10 10 10 6 0 10 -4 10 -10z m418 -23 c23 -21 30 -57 11 -57 -6 0 -13 9
-16 20 -6 23 -23 26 -41 8 -9 -9 -12 -8 -12 6 0 17 -1 17 -26 1 -22 -14 -28
-15 -36 -4 -5 9 -8 -8 -6 -46 2 -48 0 -60 -12 -60 -12 0 -16 16 -18 71 l-3 71
43 10 c53 12 86 7 116 -20z m-1721 -4 c10 -12 12 -12 15 4 2 10 5 -8 6 -39 1
-40 -2 -58 -11 -59 -6 0 -2 -4 11 -9 34 -14 29 -47 -7 -47 -28 0 -29 2 -24 31
3 17 10 33 15 34 4 2 8 16 8 31 0 21 -5 27 -22 26 -13 0 -29 -4 -35 -8 -9 -5
-13 -3 -13 7 0 9 -6 16 -14 16 -7 0 -16 9 -19 20 -5 18 -2 19 36 14 23 -4 47
-13 54 -21z m1193 -12 c5 -11 10 -28 9 -38 0 -12 -4 -10 -10 9 -6 14 -18 29
-27 33 -14 5 -15 4 -4 -6 20 -21 14 -33 -8 -14 -27 24 -25 35 5 35 14 0 29 -8
35 -19z m140 -12 c0 -5 -4 -9 -10 -9 -5 0 -10 7 -10 16 0 8 5 12 10 9 6 -3 10
-10 10 -16z m-1187 -9 c-3 -11 -9 -20 -14 -20 -10 0 -12 24 -2 33 13 13 21 7
16 -13z m67 -4 c6 -8 10 -25 8 -37 -3 -18 -5 -16 -19 15 -17 37 -11 48 11 22z
m149 -7 c-7 -14 -14 -18 -21 -11 -13 13 -2 32 18 32 12 0 13 -4 3 -21z m-429
-10 c0 -6 -4 -7 -10 -4 -5 3 -10 11 -10 16 0 6 5 7 10 4 6 -3 10 -11 10 -16z
m493 15 c9 -9 -4 -35 -14 -28 -5 3 -9 12 -9 20 0 14 12 19 23 8z m-587 -31
c-3 -8 -6 -21 -6 -29 0 -31 -17 -12 -18 21 -1 27 2 33 14 28 8 -3 13 -12 10
-20z m889 -17 c-4 -19 -13 -40 -21 -47 -19 -16 -18 0 2 51 19 48 28 46 19 -4z
m468 7 c44 -36 52 -63 18 -63 -14 0 -16 -18 -19 -133 -2 -72 -6 -134 -8 -136
-2 -2 -4 45 -4 105 -1 113 -10 144 -44 144 -24 0 -33 30 -12 45 14 11 15 13 1
19 -15 5 -21 37 -8 49 13 14 31 6 76 -30z m462 7 c-3 -5 -8 -33 -10 -61 -4
-52 -10 -68 -21 -56 -4 4 -2 13 5 20 8 11 8 23 -4 50 -20 49 -19 57 11 57 14
0 23 -4 19 -10z m-1687 -14 c16 -10 6 -27 -13 -20 -7 3 -18 -4 -25 -15 -15
-28 -54 -29 -45 -1 7 22 -5 26 -23 8 -9 -9 -12 -7 -12 8 0 12 3 24 6 27 9 9
96 3 112 -7z m362 -46 c-14 -10 -27 -17 -29 -14 -3 2 5 11 18 20 15 11 20 22
16 37 -5 20 -4 20 7 -1 10 -21 9 -26 -12 -42z m-214 27 c1 -7 5 -20 9 -29 4
-10 3 -18 -3 -18 -12 0 -22 24 -22 52 0 22 12 18 16 -5z m1804 13 c0 -5 -5
-10 -11 -10 -5 0 -7 5 -4 10 3 6 8 10 11 10 2 0 4 -4 4 -10z m-1760 -10 c0 -5
-2 -10 -4 -10 -3 0 -8 5 -11 10 -3 6 -1 10 4 10 6 0 11 -4 11 -10z m857 -12
c-3 -8 -6 -5 -6 6 -1 11 2 17 5 13 3 -3 4 -12 1 -19z m498 -37 c-8 -21 -7 -26
5 -27 6 -1 15 -2 20 -3 21 -2 9 -29 -17 -36 -20 -5 -23 -9 -14 -15 8 -4 11
-15 8 -24 -4 -9 -2 -16 3 -16 6 0 10 -8 9 -17 0 -11 -3 -13 -6 -5 -2 6 -9 10
-14 6 -5 -3 -9 6 -9 20 0 13 -6 26 -12 29 -18 5 8 37 31 38 13 0 14 2 1 6 -23
9 -26 18 -21 65 3 39 5 41 13 19 5 -14 6 -32 3 -40z m178 45 c3 -8 0 -17 -8
-19 -15 -7 -25 1 -25 20 0 17 26 17 33 -1z m-1503 -6 c0 -5 -5 -10 -11 -10 -5
0 -7 5 -4 10 3 6 8 10 11 10 2 0 4 -4 4 -10z m211 -37 c-9 -16 -10 -15 -11 8
0 14 3 29 8 33 12 12 14 -22 3 -41z m875 2 c4 -21 3 -27 -4 -20 -6 6 -14 24
-18 40 -4 21 -3 27 4 20 6 -5 14 -23 18 -40z m604 24 c0 -5 -4 -9 -10 -9 -5 0
-10 7 -10 16 0 8 5 12 10 9 6 -3 10 -10 10 -16z m-1920 -14 c0 -8 -4 -15 -10
-15 -5 0 -7 7 -4 15 4 8 8 15 10 15 2 0 4 -7 4 -15z m540 -1 c0 -8 -5 -12 -10
-9 -6 4 -8 11 -5 16 9 14 15 11 15 -7z m1318 -3 c3 -8 -1 -12 -9 -9 -7 2 -15
10 -17 17 -3 8 1 12 9 9 7 -2 15 -10 17 -17z m-1970 -3 c-6 -18 -28 -21 -28
-4 0 9 7 16 16 16 9 0 14 -5 12 -12z m407 2 c8 -13 -5 -13 -25 0 -13 8 -13 10
2 10 9 0 20 -4 23 -10z m315 0 c0 -5 -4 -10 -10 -10 -5 0 -10 5 -10 10 0 6 5
10 10 10 6 0 10 -4 10 -10z m173 -45 c17 -135 30 -203 42 -230 8 -16 24 -56
35 -87 20 -53 74 -117 88 -103 3 3 -3 11 -13 19 -10 7 -15 18 -11 24 4 7 1 12
-8 12 -9 0 -16 5 -16 10 0 15 60 12 61 -2 1 -7 0 -24 -1 -37 -1 -20 2 -23 19
-18 12 3 19 1 15 -4 -9 -15 9 -10 41 11 36 24 49 25 41 5 -3 -8 -9 -22 -12
-30 -4 -10 0 -15 10 -15 9 0 16 -4 16 -10 0 -5 -9 -10 -20 -10 -11 0 -20 -7
-20 -15 0 -10 10 -15 30 -15 17 0 30 -4 30 -9 0 -4 -12 -6 -26 -3 -16 3 -30
-1 -35 -9 -13 -22 -11 -29 9 -22 13 5 14 3 6 -6 -7 -7 -38 -14 -70 -16 -33 -2
-71 -6 -87 -10 -28 -7 -87 10 -87 26 0 5 7 6 15 3 10 -4 15 0 15 14 0 11 -5
22 -11 24 -12 4 -1 38 12 38 9 0 11 -15 13 -70 1 -19 7 -26 25 -28 23 -4 23
-3 8 13 -10 9 -17 24 -17 33 0 14 4 13 18 -5 12 -16 21 -20 31 -14 11 7 8 17
-18 50 -41 51 -30 53 19 4 64 -65 83 -76 93 -50 7 18 -7 39 -24 37 -30 -5 -39
1 -39 25 0 18 -5 25 -19 25 -24 0 -71 37 -71 56 0 8 -7 17 -15 20 -8 4 -15 13
-15 20 0 8 -9 41 -20 73 -10 32 -25 99 -31 150 -11 77 -15 91 -31 91 -10 0
-18 -5 -18 -11 0 -6 -7 -18 -16 -26 -9 -9 -13 -25 -10 -36 3 -12 1 -26 -5 -33
-5 -6 -10 -35 -10 -63 -1 -29 -5 -49 -10 -44 -9 9 15 210 31 258 l10 30 -5
-32 c-3 -25 -1 -33 11 -33 11 0 14 5 10 16 -5 12 -2 15 10 10 13 -5 14 -1 9
27 -5 21 -4 29 3 22 5 -5 12 -28 15 -50z m302 36 c3 -5 1 -12 -5 -16 -5 -3
-10 1 -10 9 0 18 6 21 15 7z m545 -11 c0 -11 -4 -20 -10 -20 -5 0 -10 9 -10
20 0 11 5 20 10 20 6 0 10 -9 10 -20z m120 10 c0 -5 -4 -10 -10 -10 -5 0 -10
5 -10 10 0 6 5 10 10 10 6 0 10 -4 10 -10z m-1546 -15 c3 -9 -1 -18 -10 -22
-19 -7 -28 2 -21 22 8 19 23 19 31 0z m192 0 c-8 -8 -18 -15 -22 -15 -3 0 -1
7 6 15 7 8 17 15 22 15 5 0 3 -7 -6 -15z m729 -35 c-9 -15 -38 -12 -61 5 -22
17 -12 20 17 5 17 -9 19 -7 19 17 l0 27 16 -22 c8 -12 12 -27 9 -32z m825 35
c0 -8 -4 -15 -10 -15 -5 0 -10 7 -10 15 0 8 5 15 10 15 6 0 10 -7 10 -15z
m-1430 -16 c0 -5 -4 -9 -10 -9 -5 0 -10 7 -10 16 0 8 5 12 10 9 6 -3 10 -10
10 -16z m75 12 c3 -5 1 -12 -5 -16 -5 -3 -10 1 -10 9 0 18 6 21 15 7z m695
-28 c0 -9 -1 -14 -3 -12 -1 2 -11 15 -22 28 l-20 24 23 -12 c12 -6 22 -19 22
-28z m600 21 c0 -8 -4 -12 -10 -9 -5 3 -10 10 -10 16 0 5 5 9 10 9 6 0 10 -7
10 -16z m-1833 -36 c2 -21 -1 -38 -6 -38 -21 0 -41 13 -41 26 0 16 -16 19 -25
4 -10 -16 -25 -11 -25 8 0 28 22 43 59 40 31 -3 34 -6 38 -40z m351 7 c-1 -20
-5 -32 -9 -28 -7 7 -1 63 7 63 2 0 3 -16 2 -35z m152 31 c0 -11 -19 -15 -25
-6 -3 5 1 10 9 10 9 0 16 -2 16 -4z m1178 -15 c3 -8 -1 -12 -9 -9 -7 2 -15 10
-17 17 -3 8 1 12 9 9 7 -2 15 -10 17 -17z m-1462 -17 c-5 -18 -3 -24 5 -18 8
4 9 3 5 -4 -5 -9 -13 -9 -27 -1 -26 13 -36 5 -19 -16 8 -9 8 -15 2 -15 -6 0
-14 5 -18 11 -5 8 -8 8 -13 0 -5 -8 -13 -6 -27 5 -15 12 -15 14 -2 11 25 -9
31 6 7 18 -19 11 -17 12 20 12 22 0 41 -4 41 -9 0 -5 5 -6 11 -3 6 4 8 13 5
21 -3 8 -1 14 5 14 7 0 9 -10 5 -26z m169 16 c3 -6 -1 -7 -9 -4 -18 7 -21 14
-7 14 6 0 13 -4 16 -10z m32 -37 c-3 -10 -5 -2 -5 17 0 19 2 27 5 18 2 -10 2
-26 0 -35z m-597 11 c0 -9 -5 -14 -12 -12 -18 6 -21 28 -4 28 9 0 16 -7 16
-16z m60 6 c0 -5 9 -19 20 -30 24 -24 17 -49 -7 -29 -11 10 -16 10 -23 0 -10
-17 -17 -3 -18 37 0 21 4 32 14 32 8 0 14 -4 14 -10z m584 -11 c-3 -5 -10 -7
-15 -3 -5 3 -7 10 -3 15 3 5 10 7 15 3 5 -3 7 -10 3 -15z m31 11 c3 -5 1 -10
-4 -10 -6 0 -11 5 -11 10 0 6 2 10 4 10 3 0 8 -4 11 -10z m1305 -11 c0 -11 -4
-17 -10 -14 -5 3 -10 13 -10 21 0 8 5 14 10 14 6 0 10 -9 10 -21z m-117 -2
c-2 -4 -14 -5 -26 -1 -18 5 -20 4 -10 -7 10 -10 8 -16 -9 -31 -12 -10 -22 -18
-24 -18 -5 0 9 45 18 56 10 13 59 14 51 1z m-1383 -6 c0 -11 -31 -24 -39 -16
-3 3 1 10 9 15 19 12 30 12 30 1z m828 -3 c17 -17 15 -65 -4 -76 -11 -6 -13
-11 -5 -16 6 -4 11 -17 10 -29 0 -12 -3 -16 -6 -9 -4 10 -8 10 -19 2 -19 -16
-39 -3 -23 16 9 11 9 14 -1 14 -7 0 -10 8 -8 18 3 10 -1 27 -8 37 -18 25 -18
45 1 45 8 0 15 -7 15 -15 0 -8 9 -15 21 -15 11 0 17 5 14 10 -4 6 -11 8 -16 5
-5 -4 -9 1 -9 9 0 19 21 21 38 4z m-817 -21 c-10 -9 -11 -8 -5 6 3 10 9 15 12
12 3 -3 0 -11 -7 -18z m717 -7 c-1 -31 -18 -32 -18 -1 0 15 8 31 16 31 1 0 2
-13 2 -30z m554 -2 c-9 -9 -12 -7 -12 12 0 19 3 21 12 12 9 -9 9 -15 0 -24z
m-1112 12 c0 -5 -4 -10 -10 -10 -5 0 -10 5 -10 10 0 6 5 10 10 10 6 0 10 -4
10 -10z m1078 -138 c13 -22 12 -22 -7 -10 -12 7 -21 18 -21 25 0 21 -17 15
-23 -7 -3 -11 0 -20 5 -20 6 0 -7 -12 -28 -26 -21 -14 -47 -35 -57 -46 -13
-15 -21 -18 -29 -10 -16 16 -2 43 19 35 10 -3 15 -3 11 1 -9 11 22 42 50 51
16 5 21 12 17 25 -4 13 0 20 15 25 16 5 20 16 22 58 l1 52 6 -65 c4 -36 12
-75 19 -88z m152 144 c0 -3 -4 -8 -10 -11 -5 -3 -10 -1 -10 4 0 6 5 11 10 11
6 0 10 -2 10 -4z m-1670 -37 c0 -24 -12 -24 -27 0 -10 15 -10 21 0 24 18 6 27
-2 27 -24z m396 -29 c8 0 14 -2 14 -4 0 -2 3 -13 7 -23 5 -14 1 -13 -20 6 -21
19 -27 21 -27 9 0 -16 56 -48 84 -48 21 0 20 -16 -1 -32 -10 -7 -18 -20 -18
-28 0 -8 -12 -21 -27 -28 -16 -7 -28 -17 -28 -23 0 -5 -4 -9 -8 -9 -11 0 -32
46 -31 68 0 14 2 14 10 -3 7 -16 8 -12 4 14 -3 18 1 63 7 100 10 53 14 59 16
34 2 -21 9 -33 18 -33z m1454 50 c0 -5 -4 -10 -10 -10 -5 0 -10 5 -10 10 0 6
5 10 10 10 6 0 10 -4 10 -10z m-1503 -6 c-3 -3 -12 -4 -19 -1 -8 3 -5 6 6 6
11 1 17 -2 13 -5z m330 -16 c-4 -12 -1 -28 5 -35 7 -9 7 -13 -1 -13 -6 0 -11
5 -11 11 0 5 -4 7 -10 4 -14 -9 -12 29 2 43 17 17 21 15 15 -10z m287 6 c9
-24 7 -54 -4 -54 -5 0 -10 9 -10 19 0 11 -3 26 -6 35 -3 9 -2 16 4 16 5 0 13
-7 16 -16z m-857 -9 c0 -8 -4 -12 -9 -9 -4 3 -8 9 -8 15 0 5 4 9 8 9 5 0 9 -7
9 -15z m398 6 c3 -5 1 -12 -5 -16 -5 -3 -10 1 -10 9 0 18 6 21 15 7z m732 -23
c-3 -7 -5 -2 -5 12 0 14 2 19 5 13 2 -7 2 -19 0 -25z m433 22 c0 -5 -4 -10
-10 -10 -5 0 -10 5 -10 10 0 6 5 10 10 10 6 0 10 -4 10 -10z m-1755 -10 c3 -5
2 -10 -4 -10 -5 0 -13 -9 -16 -21 -4 -12 -13 -18 -20 -15 -8 3 -17 -3 -20 -15
-8 -25 -18 -24 -41 6 -35 46 -30 49 83 63 6 1 15 -2 18 -8z m45 -10 c0 -11 -4
-20 -9 -20 -11 0 -22 26 -14 34 12 12 23 5 23 -14z m480 4 c0 -8 -4 -12 -10
-9 -5 3 -10 10 -10 16 0 5 5 9 10 9 6 0 10 -7 10 -16z m1130 -5 c0 -5 -7 -9
-15 -9 -15 0 -20 12 -9 23 8 8 24 -1 24 -14z m-1420 1 c0 -5 -4 -10 -10 -10
-5 0 -10 5 -10 10 0 6 5 10 10 10 6 0 10 -4 10 -10z m1634 -27 c-3 -21 -13
-43 -21 -50 -25 -19 -9 -41 26 -37 34 4 40 -6 16 -26 -15 -12 -92 -16 -103 -6
-3 3 -26 -6 -50 -20 -36 -21 -44 -23 -39 -10 4 9 0 28 -9 41 -17 26 -12 45 13
45 15 0 15 2 0 18 -8 9 -21 30 -26 46 -11 28 -11 28 16 21 16 -3 43 -18 61
-32 18 -14 34 -23 35 -22 18 35 28 46 48 56 36 19 40 16 33 -24z m80 28 c3 -5
-10 -9 -29 -8 -19 1 -35 5 -35 9 0 11 57 10 64 -1z m-1068 -36 c-3 -8 -1 -17
5 -21 6 -3 8 -11 6 -17 -2 -7 3 -18 12 -24 15 -12 14 -14 -2 -27 -18 -14 -17
-15 5 -18 32 -4 33 -57 1 -69 -13 -5 -23 -5 -23 0 0 5 9 11 20 14 25 6 27 37
3 37 -10 0 -24 4 -32 9 -12 8 -12 12 -2 25 11 14 11 16 -4 16 -13 0 -16 6 -12
21 4 15 2 19 -9 15 -20 -8 -18 21 3 33 15 8 14 10 -12 17 -26 6 -27 8 -10 14
25 9 58 -7 51 -25z m-321 -5 c-5 -8 -11 -8 -17 -2 -6 6 -7 16 -3 22 5 8 11 8
17 2 6 -6 7 -16 3 -22z m772 -32 c-3 -26 -1 -43 9 -53 9 -8 10 -16 4 -20 -21
-13 -30 8 -30 66 0 42 3 58 11 53 7 -4 9 -22 6 -46z m-1467 12 c0 -5 6 -7 14
-4 8 3 19 -3 26 -15 6 -12 9 -21 8 -22 -2 -1 -18 -2 -35 -4 -30 -2 -33 0 -33
26 0 16 5 29 10 29 6 0 10 -4 10 -10z m2085 0 c-3 -5 -13 -10 -22 -10 -9 0
-25 -7 -35 -17 -16 -15 -18 -15 -18 0 0 9 8 21 18 26 22 13 65 14 57 1z m-438
-15 c2 -6 -10 -16 -27 -22 -16 -6 -39 -27 -50 -46 -17 -28 -25 -33 -46 -29
-29 5 -30 36 -1 38 12 1 13 1 2 -3 -19 -6 -20 -23 -1 -23 18 0 27 25 15 37
-16 16 48 65 79 61 14 -2 27 -8 29 -13z m-1510 -25 c8 -12 9 -21 2 -25 -5 -4
-7 -15 -4 -26 4 -11 2 -19 -4 -19 -6 0 -11 5 -11 10 0 30 -38 -19 -46 -60 0
-3 -4 -12 -8 -21 -4 -9 -6 -22 -4 -29 2 -7 -5 -14 -14 -15 -10 -2 -18 1 -18 6
0 5 -7 9 -15 9 -27 0 -16 18 15 25 16 4 33 11 37 17 4 7 0 9 -10 5 -13 -5 -16
-1 -13 16 2 12 9 21 15 20 6 -2 11 3 11 10 0 7 11 21 25 31 19 14 23 25 19 42
-7 29 7 31 23 4z m62 3 c11 3 25 -1 32 -9 16 -19 21 -124 8 -141 -14 -16 -29
-7 -29 18 0 14 -7 19 -25 19 -16 0 -25 -6 -25 -16 0 -10 6 -14 15 -10 8 3 15
1 15 -5 0 -6 -10 -9 -22 -7 -18 2 -26 -4 -34 -26 -6 -17 -17 -32 -25 -34 -11
-3 -11 -1 1 7 13 10 13 12 0 20 -12 9 -12 11 3 17 24 9 21 27 -3 19 -27 -9
-26 13 1 23 11 5 20 12 19 17 -1 6 17 14 39 19 40 9 51 19 31 31 -5 3 -7 12
-4 20 4 9 -3 16 -20 21 -26 6 -32 15 -19 27 4 4 10 2 14 -4 4 -7 16 -9 28 -6z
m981 7 c0 -5 -4 -10 -10 -10 -5 0 -10 5 -10 10 0 6 5 10 10 10 6 0 10 -4 10
-10z m40 0 c0 -5 -4 -10 -10 -10 -5 0 -10 5 -10 10 0 6 5 10 10 10 6 0 10 -4
10 -10z m128 -38 c34 3 102 -22 102 -39 0 -7 -7 -10 -17 -6 -10 3 -15 3 -11
-2 8 -9 -13 -33 -33 -35 -51 -8 -84 15 -39 27 21 5 25 15 13 26 -10 11 -63
-44 -63 -66 0 -15 -3 -17 -14 -8 -11 9 -15 4 -20 -28 -3 -21 -13 -45 -23 -52
-15 -13 -15 -12 -4 8 12 24 5 103 -10 103 -5 0 -9 7 -9 15 0 8 4 15 9 15 6 0
7 16 4 35 -3 19 -3 35 0 35 3 0 22 -9 41 -21 l36 -21 1 29 c2 24 2 25 6 5 4
-18 10 -22 31 -20z m-933 -2 c-5 -15 -2 -17 15 -13 16 4 18 8 9 19 -6 8 -8 14
-3 14 5 0 19 3 32 6 18 5 22 2 22 -16 0 -16 -4 -20 -16 -16 -8 3 -12 2 -9 -4
8 -13 35 -13 35 0 0 13 37 13 45 0 3 -6 -4 -14 -16 -19 -23 -8 -23 -8 4 -15
32 -8 34 -20 7 -64 -23 -37 -19 -36 55 18 36 26 40 27 43 10 2 -10 11 -21 20
-23 13 -4 12 -5 -3 -6 -12 0 -25 3 -31 9 -6 6 -15 6 -24 0 -12 -8 -11 -11 8
-16 12 -4 22 -11 22 -16 0 -6 8 -7 18 -4 12 4 11 1 -5 -13 -19 -15 -22 -25
-16 -52 4 -23 3 -30 -5 -25 -7 4 -12 14 -12 22 0 11 -14 14 -59 14 -62 0 -89
-16 -77 -46 4 -12 1 -14 -14 -9 -12 4 -20 2 -20 -5 0 -7 -8 -9 -21 -5 -15 5
-20 3 -17 -6 3 -10 26 -15 70 -17 49 -2 68 -7 72 -18 14 -36 -20 -46 -47 -14
-11 14 -29 20 -57 20 -27 0 -42 5 -49 18 -13 25 10 75 48 103 23 17 28 26 20
35 -12 15 -42 7 -32 -9 3 -5 1 -7 -5 -3 -12 7 -65 -81 -56 -95 3 -5 0 -9 -7
-9 -7 0 -9 10 -6 30 6 28 5 29 -22 24 -29 -6 -50 9 -31 21 5 3 10 3 10 -2 0
-4 16 -8 35 -8 24 0 35 5 35 15 1 29 37 60 69 60 17 0 31 5 31 10 0 6 -5 10
-11 10 -7 0 -9 10 -5 25 4 14 4 25 2 25 -2 0 -13 3 -23 6 -15 5 -15 4 -3 -5
11 -7 12 -13 4 -21 -8 -8 -14 -7 -24 5 -7 8 -20 15 -29 15 -14 -1 -14 -2 2
-11 9 -5 17 -17 17 -24 0 -23 -30 -18 -39 7 -9 24 -15 17 -25 -25 -4 -18 -3
-26 3 -23 5 4 12 2 16 -4 3 -5 -1 -10 -9 -10 -19 0 -21 -17 -4 -22 7 -3 6 -7
-5 -11 -13 -5 -17 -1 -17 15 0 21 0 21 -15 2 -15 -18 -15 -18 -9 9 5 21 3 26
-8 22 -11 -4 -15 3 -16 30 -2 40 10 46 25 13 l10 -22 18 28 c15 22 16 29 5 36
-16 10 -5 43 13 37 6 -2 11 -11 9 -21 -4 -20 17 -21 23 -1 3 8 7 22 10 31 3 8
10 12 15 9 6 -4 8 -15 5 -25z m285 10 c0 -5 -5 -10 -11 -10 -5 0 -7 5 -4 10 3
6 8 10 11 10 2 0 4 -4 4 -10z m-534 -37 c-11 -11 -19 6 -11 24 8 17 8 17 12 0
3 -10 2 -21 -1 -24z m1014 27 c0 -5 -2 -10 -4 -10 -3 0 -8 5 -11 10 -3 6 -1
10 4 10 6 0 11 -4 11 -10z m550 6 c0 -6 -93 -76 -102 -76 -21 0 -4 32 29 55
32 21 73 33 73 21z m45 -25 c8 -14 -44 -51 -71 -51 -31 0 -30 14 2 39 28 22
59 27 69 12z m305 -1 c0 -5 -4 -10 -10 -10 -5 0 -10 5 -10 10 0 6 5 10 10 10
6 0 10 -4 10 -10z m-30 -16 c0 -10 -6 -14 -14 -11 -8 3 -16 0 -18 -8 -2 -10
-7 -12 -18 -5 -13 8 -12 11 5 24 26 20 45 20 45 0z m-1345 -4 c3 -5 2 -10 -4
-10 -5 0 -13 5 -16 10 -3 6 -2 10 4 10 5 0 13 -4 16 -10z m1110 -20 c19 -21
16 -24 -25 -20 -37 3 -43 10 -23 26 24 18 27 17 48 -6z m105 4 c0 -9 -5 -14
-12 -12 -18 6 -21 28 -4 28 9 0 16 -7 16 -16z m50 6 c0 -5 -4 -10 -9 -10 -6 0
-13 5 -16 10 -3 6 1 10 9 10 9 0 16 -4 16 -10z m-1126 -17 c4 -9 1 -20 -6 -25
-10 -6 -9 -8 4 -8 9 0 20 5 23 10 13 21 27 9 23 -20 -2 -16 0 -32 6 -34 7 -3
4 -9 -6 -16 -22 -13 -24 -34 -3 -26 10 4 15 -1 15 -14 0 -16 -6 -19 -36 -16
-20 1 -39 7 -42 13 -13 19 -43 10 -57 -17 -8 -15 -21 -30 -30 -33 -8 -4 -15
-17 -15 -30 0 -14 -6 -30 -14 -36 -15 -13 -92 -18 -103 -8 -10 11 5 35 29 47
l23 11 -22 -17 c-13 -9 -23 -20 -23 -25 0 -12 37 -11 45 1 3 6 17 10 31 10 20
0 24 4 20 18 -4 12 3 27 19 42 16 15 23 30 20 41 -4 12 2 23 19 34 15 10 32
37 41 66 17 51 28 60 39 32z m71 7 c3 -5 1 -10 -4 -10 -6 0 -11 5 -11 10 0 6
2 10 4 10 3 0 8 -4 11 -10z m-211 -43 c-3 -9 -10 -17 -15 -17 -6 0 -5 9 1 20
7 14 7 20 0 20 -5 0 -10 5 -10 12 0 8 5 7 15 -3 9 -9 13 -23 9 -32z m1170 37
c16 -6 23 -34 8 -34 -10 0 -32 22 -32 32 0 10 3 10 24 2z m96 -14 c0 -5 -4
-10 -9 -10 -6 0 -13 5 -16 10 -3 6 1 10 9 10 9 0 16 -4 16 -10z m65 -45 c-16
-45 -16 -47 1 -60 11 -8 15 -15 10 -15 -5 0 -4 -6 2 -12 5 -7 12 -35 13 -63
l4 -50 -37 -6 c-29 -4 -38 -3 -38 9 0 8 6 12 13 9 6 -2 21 -1 32 4 15 6 11 8
-20 10 -28 1 -33 3 -15 6 l24 5 -24 14 c-25 13 -25 13 -2 14 13 0 22 6 22 15
0 27 -49 18 -60 -10 -5 -14 -14 -25 -20 -25 -5 0 -10 -7 -10 -15 0 -8 7 -15
15 -15 18 0 20 -16 3 -23 -9 -4 -9 -8 -3 -14 18 -14 15 -32 -5 -43 -16 -9 -20
-8 -20 6 0 11 5 14 16 10 11 -4 8 3 -8 23 -13 17 -29 30 -36 30 -7 1 -23 6
-34 12 -20 11 -20 12 8 35 28 23 28 23 6 24 -13 0 -33 11 -45 23 -12 13 -29
26 -37 29 -10 4 -2 11 24 22 31 14 47 15 88 7 67 -15 71 -14 65 11 -8 30 8 56
46 72 18 7 34 12 36 10 2 -2 -4 -24 -14 -49z m-1316 1 c-9 -8 -10 -7 -5 7 3
10 7 24 7 30 1 7 3 4 6 -7 3 -10 -1 -23 -8 -30z m69 15 c-7 -12 -23 -24 -34
-27 -14 -4 -26 -20 -34 -45 -16 -46 -33 -64 -20 -21 12 45 29 72 45 72 8 0 22
11 31 25 20 31 31 26 12 -4z m169 7 c-3 -8 -6 -5 -6 6 -1 11 2 17 5 13 3 -3 4
-12 1 -19z m561 -5 c-9 -10 -13 -24 -11 -30 3 -7 -2 -13 -9 -13 -26 0 -28 13
-6 37 25 27 49 32 26 6z m-338 -3 c0 -5 -4 -10 -10 -10 -5 0 -10 5 -10 10 0 6
5 10 10 10 6 0 10 -4 10 -10z m270 -15 c0 -16 -6 -25 -15 -25 -18 0 -19 4 -3
30 16 26 18 25 18 -5z m371 2 c-13 -13 -26 -3 -16 12 3 6 11 8 17 5 6 -4 6
-10 -1 -17z m119 13 c0 -5 -7 -10 -15 -10 -8 0 -15 5 -15 10 0 6 7 10 15 10 8
0 15 -4 15 -10z m126 -38 c-11 -10 -15 4 -8 28 l7 25 3 -23 c2 -13 1 -26 -2
-30z m-679 16 c-3 -8 -6 -5 -6 6 -1 11 2 17 5 13 3 -3 4 -12 1 -19z m341 -3
c-6 -14 -18 -25 -26 -25 -8 0 -12 -6 -8 -15 3 -10 -1 -14 -12 -13 -39 3 -52
-3 -52 -22 0 -11 -7 -20 -15 -20 -9 0 -27 -7 -40 -16 -36 -23 -31 1 5 28 17
12 30 29 30 37 0 17 83 68 112 70 15 1 16 -2 6 -24z m132 10 c0 -8 -4 -15 -10
-15 -5 0 -10 7 -10 15 0 8 5 15 10 15 6 0 10 -7 10 -15z m40 -12 c0 -13 -3
-13 -15 -3 -8 7 -12 16 -9 21 8 13 24 1 24 -18z m-1610 -10 c0 -8 -4 -11 -10
-8 -9 5 -15 -15 -11 -37 0 -5 -4 -8 -9 -8 -6 0 -9 -22 -8 -49 2 -49 18 -62 18
-15 0 19 5 24 25 24 14 0 25 -4 25 -10 0 -5 -9 -10 -20 -10 -11 0 -20 -3 -20
-8 0 -4 19 -6 43 -5 l42 2 -45 -12 -45 -11 90 -7 c92 -6 125 -14 125 -31 0 -5
-33 -6 -85 -2 -61 5 -85 4 -85 -5 0 -17 -75 -14 -90 4 -12 14 -8 15 31 10 l44
-5 -30 14 c-16 9 -36 15 -42 16 -7 0 -13 4 -13 9 0 12 -39 21 -46 10 -8 -14
-24 0 -24 21 0 29 -19 34 -29 7 -6 -14 -15 -27 -21 -29 -6 -2 -14 -24 -17 -48
-3 -25 -2 -42 2 -38 4 4 8 20 9 34 1 31 25 50 50 41 28 -11 31 -38 7 -56 -17
-13 -23 -29 -24 -62 -2 -36 -6 -44 -22 -47 -34 -4 -50 13 -38 40 6 14 7 37 1
60 -6 30 -4 45 12 73 24 43 25 49 3 41 -10 -4 -14 -4 -10 0 4 4 1 14 -5 21
-10 12 -8 14 8 11 10 -1 22 -7 26 -13 4 -5 8 -1 8 10 0 14 3 16 9 7 4 -7 12
-12 17 -11 5 1 17 -1 26 -5 14 -6 15 -12 7 -27 -9 -19 -9 -19 23 0 21 11 33
26 32 39 0 13 4 18 13 15 8 -3 13 2 13 12 0 11 -5 15 -15 11 -8 -3 -15 -1 -15
5 0 6 9 13 20 16 11 3 20 9 20 12 0 4 7 8 15 8 8 0 15 -7 15 -14z m1283 0 c4
-3 5 -8 2 -13 -6 -10 -45 9 -45 22 0 7 22 2 43 -9z m-873 -3 c0 -5 -4 -10 -10
-10 -5 0 -10 5 -10 10 0 6 5 10 10 10 6 0 10 -4 10 -10z m274 -9 c3 -9 9 -22
12 -28 4 -8 -2 -13 -15 -13 -12 0 -25 8 -28 18 -4 9 -13 22 -21 28 -12 8 -8
11 16 11 19 0 33 -6 36 -16z m319 -59 c-10 -15 -20 -38 -23 -52 -3 -16 -13
-26 -28 -28 -12 -2 -22 1 -22 6 0 5 8 9 18 8 11 -1 16 5 14 16 -1 10 9 35 23
57 14 23 26 49 26 58 1 10 4 5 6 -10 3 -17 -3 -39 -14 -55z m492 69 c3 -5 1
-12 -4 -15 -5 -3 -11 1 -15 9 -6 16 9 21 19 6z m-1615 -16 c0 -8 -7 -15 -15
-15 -16 0 -20 12 -8 23 11 12 23 8 23 -8z m1230 -9 c0 -8 -4 -18 -10 -21 -5
-3 -10 3 -10 14 0 12 5 21 10 21 6 0 10 -6 10 -14z m120 4 c0 -5 -2 -10 -4
-10 -3 0 -8 5 -11 10 -3 6 -1 10 4 10 6 0 11 -4 11 -10z m-255 -40 c-9 -16
-20 -30 -25 -30 -5 0 -1 13 8 30 22 39 37 39 17 0z m291 -7 c-11 -11 -17 4 -9
23 7 18 8 18 11 1 2 -10 1 -21 -2 -24z m-1371 7 c3 -5 -1 -10 -9 -10 -9 0 -16
5 -16 10 0 6 4 10 9 10 6 0 13 -4 16 -10z m490 0 c3 -5 1 -10 -4 -10 -6 0 -11
5 -11 10 0 6 2 10 4 10 3 0 8 -4 11 -10z m1020 -8 c-12 -10 -19 -26 -17 -37
l4 -20 -16 20 c-15 19 -15 18 -16 -24 0 -51 -5 -51 -14 1 -6 35 -5 38 31 57
47 25 54 26 28 3z m-1189 -29 c-11 -11 -19 6 -11 24 8 17 8 17 12 0 3 -10 2
-21 -1 -24z m94 27 c0 -5 -4 -10 -10 -10 -5 0 -10 5 -10 10 0 6 5 10 10 10 6
0 10 -4 10 -10z m843 -13 c-2 -4 8 -12 23 -17 15 -6 25 -13 22 -16 -3 -2 -17
0 -32 5 -32 13 -35 -1 -3 -18 20 -11 20 -11 -10 -7 -22 4 -33 1 -37 -10 -4
-11 -1 -14 13 -9 18 5 19 3 8 -27 -7 -18 -18 -39 -24 -46 -7 -7 -13 -18 -13
-23 0 -14 -38 -11 -43 4 -2 6 3 22 11 34 8 13 12 30 8 38 -3 8 -1 15 4 15 6 0
9 3 9 8 -3 20 3 30 21 35 23 6 27 27 6 27 -8 0 -17 4 -20 8 -3 5 10 8 29 8 18
-1 31 -4 28 -9z m-579 -40 c-2 -7 6 -18 18 -26 19 -12 23 -11 35 5 12 17 13
17 13 -4 0 -40 40 -54 130 -48 44 4 80 4 80 1 0 -14 -30 -35 -49 -35 -15 0
-21 -6 -21 -21 0 -21 -4 -21 -89 -17 -92 4 -121 16 -121 48 0 19 19 30 51 30
10 0 19 4 19 9 0 5 -8 7 -18 4 -10 -2 -26 5 -36 16 -17 19 -21 19 -47 6 -39
-21 -45 -19 -23 6 19 22 19 22 -5 14 -17 -5 -22 -4 -19 6 3 8 18 13 37 12 28
-1 31 2 26 20 -6 21 -5 21 9 4 8 -11 13 -24 10 -30z m56 33 c0 -5 -4 -10 -10
-10 -5 0 -10 5 -10 10 0 6 5 10 10 10 6 0 10 -4 10 -10z m-871 -14 c9 -11 10
-20 1 -35 -7 -15 -8 -27 0 -40 5 -11 10 -30 9 -43 0 -17 -5 -11 -16 20 -10 30
-20 42 -34 42 -30 0 -36 30 -10 52 28 22 35 22 50 4z m611 10 c0 -3 -4 -8 -10
-11 -5 -3 -10 -1 -10 4 0 6 5 11 10 11 6 0 10 -2 10 -4z m1060 -6 c0 -5 -2
-10 -4 -10 -3 0 -8 5 -11 10 -3 6 -1 10 4 10 6 0 11 -4 11 -10z m-1156 -16
c10 -25 1 -27 -19 -4 -15 17 -16 20 -3 20 9 0 19 -7 22 -16z m116 6 c0 -5 -5
-10 -11 -10 -5 0 -7 5 -4 10 3 6 8 10 11 10 2 0 4 -4 4 -10z m80 -26 c-18 -21
-24 -10 -9 18 8 14 14 18 17 10 2 -7 -2 -19 -8 -28z m860 -24 c0 -5 -4 -10
-10 -10 -5 0 -11 -10 -11 -22 -1 -17 -2 -19 -6 -5 -5 18 -23 24 -23 6 0 -5 -5
-7 -12 -3 -8 5 -9 -3 -5 -30 3 -22 2 -34 -4 -31 -5 4 -9 17 -9 31 0 27 -20 34
-21 7 0 -11 -3 -13 -6 -5 -9 24 -20 12 -17 -20 2 -18 1 -24 -2 -13 -10 35 -24
41 -24 10 0 -35 -5 -30 -13 13 -5 24 -3 32 8 32 8 0 15 5 15 11 0 5 4 8 9 4 5
-3 12 -1 16 5 3 5 1 10 -6 10 -7 0 -10 3 -7 6 4 3 16 1 27 -5 15 -9 28 -8 53
3 41 18 48 19 48 6z m-1427 -26 c-5 -13 -2 -15 15 -9 16 5 22 2 22 -10 0 -9
-4 -13 -10 -10 -5 3 -10 2 -10 -3 0 -11 119 -4 146 9 13 7 43 7 79 2 l59 -8
-120 -27 c-150 -34 -184 -46 -164 -58 11 -7 12 -12 3 -21 -8 -8 -13 -6 -18 10
-3 12 -14 22 -23 22 -15 1 -15 2 -1 6 25 6 31 49 7 49 -10 0 -18 -6 -18 -13 0
-7 -4 -13 -10 -13 -16 0 -12 18 10 40 11 11 20 27 20 35 0 8 4 15 10 15 5 0 7
-7 3 -16z m618 -4 c-13 -11 -33 -20 -45 -20 -15 0 -10 6 19 19 51 25 55 25 26
1z m482 -10 c10 -10 6 -11 -17 -6 -15 4 -41 10 -57 13 -47 9 -33 20 16 13 26
-4 51 -13 58 -20z m32 20 c3 -5 2 -10 -4 -10 -5 0 -13 5 -16 10 -3 6 -2 10 4
10 5 0 13 -4 16 -10z m-1318 -6 c-3 -3 -12 -4 -19 -1 -8 3 -5 6 6 6 11 1 17
-2 13 -5z m723 -15 c-46 -28 -144 -38 -153 -15 -5 14 2 16 51 17 31 1 71 5 87
9 49 13 52 11 15 -11z m1060 8 c-93 -39 -121 -42 -81 -10 12 10 41 19 64 19
38 2 40 1 17 -9z m64 -2 c-6 -16 -24 -21 -24 -7 0 11 11 22 21 22 5 0 6 -7 3
-15z m178 -5 c-12 -5 -27 -20 -32 -32 -8 -21 -9 -20 -6 7 3 17 5 31 5 33 1 1
13 2 29 1 26 0 26 -1 4 -9z m-2004 -27 c11 -16 22 -46 26 -68 5 -29 4 -36 -3
-25 -6 8 -11 23 -11 33 0 13 -7 17 -27 15 -23 -2 -29 1 -31 20 -4 28 4 52 17
52 5 0 18 -12 29 -27z m1202 7 c-13 -9 -13 -11 0 -20 8 -5 20 -10 26 -10 12 0
28 -29 20 -37 -2 -2 -21 3 -41 11 -21 9 -50 16 -66 16 -21 0 -29 5 -29 18 0
27 9 32 59 32 34 0 42 -3 31 -10z m347 -12 c-3 -8 -6 -5 -6 6 -1 11 2 17 5 13
3 -3 4 -12 1 -19z m-287 2 c0 -13 -11 -13 -30 0 -12 8 -11 10 8 10 12 0 22 -4
22 -10z m-500 -15 c7 -9 21 -13 31 -10 9 3 20 1 24 -5 3 -5 -2 -10 -12 -10
-11 0 -23 -4 -28 -9 -6 -6 -32 -11 -60 -13 -55 -3 -66 -19 -19 -29 16 -4 -13
-7 -68 -8 -64 -1 -98 3 -100 10 -3 9 -17 9 -56 0 -66 -16 -93 -8 -29 9 55 15
70 30 30 31 -28 1 -28 1 7 16 24 10 53 14 92 10 35 -3 71 0 95 9 50 18 78 17
93 -1z m867 -22 c-3 -3 -11 -2 -17 2 -8 5 -7 11 2 22 12 15 13 14 16 -1 2 -10
1 -20 -1 -23z m-1170 21 c-3 -3 -12 -4 -19 -1 -8 3 -5 6 6 6 11 1 17 -2 13 -5z
m-87 -14 c0 -5 -4 -10 -9 -10 -5 0 -16 -3 -25 -6 -9 -3 -16 -1 -16 4 0 9 16
17 43 21 4 0 7 -3 7 -9z m1480 -6 c0 -9 -7 -14 -17 -12 -25 5 -28 28 -4 28 12
0 21 -6 21 -16z m-756 -22 c-29 -4 -39 2 -30 16 4 7 15 6 31 -1 l25 -12 -26
-3z m897 9 c-7 -5 -10 -14 -7 -20 4 -6 2 -11 -3 -11 -6 0 -11 9 -11 20 0 12 7
20 18 20 13 0 14 -2 3 -9z m-1605 -26 c-33 -13 -62 -22 -64 -20 -7 7 80 45
103 45 11 0 -7 -11 -39 -25z m1544 15 c0 -5 -2 -10 -4 -10 -3 0 -8 5 -11 10
-3 6 -1 10 4 10 6 0 11 -4 11 -10z m-1931 -42 c1 -5 -3 -8 -9 -8 -5 0 -10 12
-9 28 0 24 1 25 9 7 5 -11 9 -23 9 -27z m1026 32 c3 -6 -4 -10 -17 -10 -18 0
-20 2 -8 10 19 12 18 12 25 0z m170 -8 c-3 -3 -11 0 -18 7 -9 10 -8 11 6 5 10
-3 15 -9 12 -12z m415 -2 c0 -5 -2 -10 -4 -10 -3 0 -8 5 -11 10 -3 6 -1 10 4
10 6 0 11 -4 11 -10z m-1493 -22 c-3 -8 -6 -5 -6 6 -1 11 2 17 5 13 3 -3 4
-12 1 -19z m128 12 c3 -5 -3 -10 -14 -10 -12 0 -21 5 -21 10 0 6 6 10 14 10 8
0 18 -4 21 -10z m1145 6 c0 -2 -7 -6 -15 -10 -8 -3 -15 -1 -15 4 0 6 7 10 15
10 8 0 15 -2 15 -4z m-347 -68 l1017 1 0 -88 c0 -76 -2 -89 -16 -87 -9 0 -19
-5 -22 -13 -3 -10 1 -12 17 -8 20 5 22 2 19 -26 l-3 -32 -727 0 c-401 0 -728
3 -728 7 0 4 5 10 11 14 7 4 9 21 6 40 -5 32 6 48 16 22 2 -7 8 -10 12 -5 9 8
-14 57 -27 57 -4 0 -8 -7 -8 -15 0 -20 -14 -19 -31 2 -11 13 -11 17 -1 20 17
6 15 23 -3 23 -27 0 -27 -28 0 -64 21 -28 25 -41 20 -70 l-7 -35 -312 0 c-171
1 -314 3 -318 5 -13 8 4 34 23 34 16 0 19 8 19 43 1 40 1 41 16 22 8 -11 13
-30 11 -42 -4 -22 -1 -23 50 -23 l54 0 -3 82 c-3 70 -6 83 -20 86 -16 3 -18
-6 -18 -73 0 -42 -3 -74 -7 -71 -5 2 -17 21 -27 41 -19 34 -19 38 -3 65 19 32
21 40 8 40 -6 0 -18 -13 -28 -30 -21 -37 -33 -38 -33 -5 0 17 -5 25 -18 25
-16 0 -17 -6 -12 -52 6 -60 3 -88 -11 -88 -5 0 -8 32 -5 78 3 42 5 90 5 105 1
27 3 28 34 21 17 -4 490 -7 1050 -6z"/>
<path d="M620 3085 c0 -8 5 -15 10 -15 6 0 10 7 10 15 0 8 -4 15 -10 15 -5 0
-10 -7 -10 -15z"/>
<path d="M590 3075 c0 -8 5 -15 10 -15 6 0 10 7 10 15 0 8 -4 15 -10 15 -5 0
-10 -7 -10 -15z"/>
<path d="M263 2759 c-7 -17 -10 -36 -7 -43 2 -6 -7 -23 -21 -36 -27 -26 -34
-70 -10 -70 8 0 19 10 26 22 10 18 9 20 -5 15 -45 -17 9 41 57 61 15 7 30 19
33 27 4 9 19 15 41 15 20 0 32 4 28 10 -11 17 -42 11 -73 -15 -17 -14 -37 -25
-46 -25 -18 0 -22 25 -6 35 12 7 14 35 2 35 -4 0 -13 -14 -19 -31z"/>
<path d="M1100 3170 c-11 -7 -12 -12 -3 -21 14 -14 46 -4 41 13 -6 16 -20 19
-38 8z"/>
<path d="M860 3021 c0 -12 2 -21 4 -21 2 0 12 -3 21 -6 13 -5 16 -2 13 17 -4
31 -38 39 -38 10z"/>
<path d="M1103 2845 c5 -13 59 -13 64 1 2 6 -11 10 -32 10 -19 -1 -33 -5 -32
-11z"/>
<path d="M1220 2730 c-13 -8 -13 -10 2 -10 9 0 20 5 23 10 8 13 -5 13 -25 0z"/>
<path d="M797 2850 c9 -22 20 -40 25 -40 11 0 10 2 -7 44 -21 49 -37 46 -18
-4z"/>
<path d="M1955 2830 c-27 -7 -28 -8 -5 -8 14 0 34 3 45 8 25 11 2 11 -40 0z"/>
<path d="M1945 2800 c-3 -5 -1 -10 4 -10 6 0 11 5 11 10 0 6 -2 10 -4 10 -3 0
-8 -4 -11 -10z"/>
<path d="M2100 2840 c0 -5 7 -10 15 -10 8 0 15 5 15 10 0 6 -7 10 -15 10 -8 0
-15 -4 -15 -10z"/>
<path d="M2105 2711 c-3 -5 -1 -12 5 -16 5 -3 10 1 10 9 0 18 -6 21 -15 7z"/>
<path d="M1312 2645 c-31 -35 -66 -47 -142 -47 -45 1 -59 -2 -45 -8 34 -15 98
-11 140 9 39 18 98 71 79 71 -6 0 -20 -11 -32 -25z"/>
<path d="M1220 2465 c-10 -12 -10 -15 4 -15 9 0 16 7 16 15 0 8 -2 15 -4 15
-2 0 -9 -7 -16 -15z"/>
<path d="M1978 2623 c7 -3 16 -2 19 1 4 3 -2 6 -13 5 -11 0 -14 -3 -6 -6z"/>
<path d="M2021 2554 c0 -11 3 -14 6 -6 3 7 2 16 -1 19 -3 4 -6 -2 -5 -13z"/>
<path d="M626 2225 c-3 -8 -1 -15 4 -15 6 0 10 7 10 15 0 8 -2 15 -4 15 -2 0
-6 -7 -10 -15z"/>
<path d="M600 2190 c-9 -6 -10 -10 -3 -10 6 0 15 5 18 10 8 12 4 12 -15 0z"/>
<path d="M528 2173 c6 -2 18 -2 25 0 6 3 1 5 -13 5 -14 0 -19 -2 -12 -5z"/>
<path d="M1700 2250 c0 -5 5 -10 10 -10 6 0 10 5 10 10 0 6 -4 10 -10 10 -5 0
-10 -4 -10 -10z"/>
<path d="M1640 2144 c0 -6 7 -19 15 -30 8 -10 14 -14 14 -9 0 6 -6 19 -14 29
-8 11 -15 15 -15 10z"/>
<path d="M1700 2100 c0 -5 5 -10 11 -10 5 0 7 5 4 10 -3 6 -8 10 -11 10 -2 0
-4 -4 -4 -10z"/>
<path d="M1850 2166 c0 -9 5 -16 10 -16 6 0 10 4 10 9 0 6 -4 13 -10 16 -5 3
-10 -1 -10 -9z"/>
<path d="M433 2153 c9 -2 25 -2 35 0 9 3 1 5 -18 5 -19 0 -27 -2 -17 -5z"/>
<path d="M1474 2135 c-17 -19 -28 -35 -23 -35 20 0 39 14 39 29 0 9 5 22 12
29 7 7 10 12 8 12 -3 0 -19 -16 -36 -35z"/>
<path d="M1555 2130 c-3 -5 -2 -10 4 -10 5 0 13 5 16 10 3 6 2 10 -4 10 -5 0
-13 -4 -16 -10z"/>
<path d="M1470 2040 l-23 -50 -54 0 c-62 0 -72 -20 -24 -45 42 -21 44 -29 22
-81 -34 -76 -25 -82 52 -32 49 31 50 31 78 15 16 -9 42 -25 58 -34 16 -10 32
-15 36 -12 3 4 -3 30 -15 58 -11 28 -20 53 -20 55 0 2 18 15 41 30 53 35 46
51 -20 51 l-53 0 -18 45 c-9 24 -22 46 -27 47 -5 2 -20 -19 -33 -47z m44 -6
c11 -29 6 -44 -14 -44 -11 0 -20 6 -20 14 0 21 11 46 20 46 4 0 11 -7 14 -16z
m121 -62 c-13 -11 -65 -33 -65 -28 0 3 -3 11 -6 20 -5 13 2 16 37 16 24 0 39
-4 34 -8z m-205 -17 c0 -8 -6 -15 -14 -15 -7 0 -19 7 -26 15 -11 13 -8 15 14
15 16 0 26 -5 26 -15z m114 -1 c10 -25 8 -29 -24 -47 -28 -17 -31 -17 -55 -1
-29 19 -29 19 -15 45 14 25 85 27 94 3z m-86 -67 c9 -10 4 -17 -18 -31 -32
-18 -38 -10 -20 25 12 22 23 24 38 6z m112 -6 c21 -39 9 -52 -25 -27 -11 8
-16 19 -12 30 9 22 24 20 37 -3z"/>
<path d="M370 1945 c0 -8 4 -15 9 -15 5 0 11 7 15 15 3 9 0 15 -9 15 -8 0 -15
-7 -15 -15z"/>
<path d="M815 1630 c3 -5 8 -10 11 -10 2 0 4 5 4 10 0 6 -5 10 -11 10 -5 0 -7
-4 -4 -10z"/>
<path d="M1410 1488 c-37 -46 -41 -55 -56 -121 -19 -79 -3 -93 21 -19 10 31
28 73 41 92 25 40 39 80 27 79 -4 0 -19 -14 -33 -31z"/>
<path d="M2012 1835 c0 -16 2 -22 5 -12 2 9 2 23 0 30 -3 6 -5 -1 -5 -18z"/>
<path d="M1901 1784 c0 -11 3 -14 6 -6 3 7 2 16 -1 19 -3 4 -6 -2 -5 -13z"/>
<path d="M91 1699 c1 -52 4 -84 6 -71 2 12 9 20 14 17 16 -11 11 121 -6 135
-13 11 -15 1 -14 -81z m16 -16 c-2 -16 -4 -3 -4 27 0 30 2 43 4 28 2 -16 2
-40 0 -55z"/>
<path d="M63 1690 c0 -25 2 -35 4 -22 2 12 2 32 0 45 -2 12 -4 2 -4 -23z"/>
<path d="M223 1635 c0 -22 2 -30 4 -17 2 12 2 30 0 40 -3 9 -5 -1 -4 -23z"/>
<path d="M71 1614 c0 -11 3 -14 6 -6 3 7 2 16 -1 19 -3 4 -6 -2 -5 -13z"/>
<path d="M1691 1633 c7 -10 15 -20 16 -22 2 -2 3 3 3 11 0 9 -7 19 -16 22 -15
6 -15 4 -3 -11z"/>
<path d="M731 1354 c0 -11 3 -14 6 -6 3 7 2 16 -1 19 -3 4 -6 -2 -5 -13z"/>
<path d="M545 1350 c3 -5 8 -10 11 -10 2 0 4 5 4 10 0 6 -5 10 -11 10 -5 0 -7
-4 -4 -10z"/>
<path d="M811 844 c0 -11 3 -14 6 -6 3 7 2 16 -1 19 -3 4 -6 -2 -5 -13z"/>
<path d="M1140 1307 c0 -7 4 -18 9 -25 6 -11 9 -9 14 7 3 12 -1 22 -9 25 -8 3
-14 0 -14 -7z"/>
<path d="M1120 1295 c0 -8 4 -15 10 -15 5 0 7 7 4 15 -4 8 -8 15 -10 15 -2 0
-4 -7 -4 -15z"/>
<path d="M280 803 c0 -4 5 -15 10 -23 8 -13 10 -13 10 2 0 9 -4 20 -10 23 -5
3 -10 3 -10 -2z"/>
<path d="M546 755 c4 -8 8 -15 10 -15 2 0 4 7 4 15 0 8 -4 15 -10 15 -5 0 -7
-7 -4 -15z"/>
<path d="M590 750 c-13 -8 -12 -10 3 -10 9 0 17 5 17 10 0 12 -1 12 -20 0z"/>
<path d="M545 680 c-3 -5 -2 -10 4 -10 5 0 13 5 16 10 3 6 2 10 -4 10 -5 0
-13 -4 -16 -10z"/>
<path d="M640 660 c-12 -8 -11 -10 8 -10 12 0 22 5 22 10 0 13 -11 13 -30 0z"/>
<path d="M524 647 c-14 -8 -19 -18 -15 -30 6 -16 8 -16 24 3 10 12 29 20 49
20 25 0 29 3 18 10 -20 13 -50 12 -76 -3z"/>
<path d="M157 448 c-6 -21 -2 -36 7 -27 10 11 16 49 8 49 -5 0 -12 -10 -15
-22z"/>
<path d="M260 410 c0 -13 11 -13 30 0 12 8 11 10 -7 10 -13 0 -23 -4 -23 -10z"/>
<path d="M1583 249 c-65 -19 -79 -97 -25 -139 24 -20 75 -26 106 -14 28 11 17
24 -14 18 -47 -10 -80 17 -80 67 0 32 4 41 23 48 28 11 47 4 40 -15 -3 -9 1
-14 12 -14 12 0 16 7 13 28 -3 31 -23 36 -75 21z"/>
<path d="M1698 251 c10 -6 13 -29 10 -85 l-3 -76 48 0 c34 0 49 5 54 15 9 24
-5 30 -25 12 -10 -10 -22 -14 -25 -10 -4 3 -7 39 -7 80 l0 73 -32 0 c-22 0
-29 -3 -20 -9z"/>
<path d="M1841 193 c1 -38 -1 -78 -5 -90 -7 -21 -4 -22 41 -20 39 2 48 6 51
22 3 16 1 18 -9 8 -25 -24 -39 -15 -38 25 0 20 3 31 6 25 8 -22 23 -14 23 12
0 19 -5 25 -17 23 -12 -2 -19 4 -21 20 -3 16 2 22 16 22 11 0 22 -6 25 -12 2
-7 8 -10 12 -6 19 18 -6 38 -45 38 l-41 0 2 -67z"/>
<path d="M1979 239 c-19 -36 3 -67 48 -71 33 -3 38 -7 41 -30 3 -22 -1 -28
-17 -28 -11 0 -27 8 -36 17 -16 16 -18 15 -36 -8 -10 -13 -19 -26 -19 -29 0
-3 19 -4 42 -3 24 1 51 2 60 2 10 1 25 12 33 25 23 34 6 61 -47 78 -46 16 -65
48 -29 48 11 0 23 -5 26 -10 9 -15 25 -2 18 15 -9 24 -70 19 -84 -6z"/>
<path d="M805 240 c-22 -4 -34 -8 -27 -9 15 -1 17 -141 2 -141 -5 0 -10 -4
-10 -10 0 -5 13 -10 29 -10 17 0 33 5 36 10 3 6 1 10 -4 10 -6 0 -11 16 -11
36 0 20 4 33 10 29 15 -9 67 22 73 44 9 36 -32 53 -98 41z m65 -34 c0 -27 -35
-45 -52 -28 -17 17 1 52 28 52 19 0 24 -5 24 -24z"/>
<path d="M926 239 c-3 -8 -6 -48 -8 -90 l-3 -75 47 -1 c34 0 52 5 64 18 15 17
15 19 1 19 -9 0 -18 -4 -21 -8 -3 -5 -19 -7 -36 -4 -21 3 -30 10 -30 23 0 22
32 39 38 21 7 -23 22 -11 22 18 0 29 -13 40 -25 20 -12 -20 -25 -9 -25 20 0
25 4 30 24 30 14 0 28 -5 31 -10 4 -6 11 -7 17 -4 16 10 -4 23 -49 30 -32 5
-44 3 -47 -7z"/>
<path d="M1054 232 c9 -26 10 -114 2 -138 -4 -15 -1 -20 13 -20 17 0 19 6 14
48 -3 26 -3 48 0 48 3 0 20 -20 37 -45 19 -28 39 -45 51 -45 19 0 20 6 17 85
-2 58 -7 85 -15 85 -6 0 -15 -4 -18 -10 -3 -5 -1 -10 4 -10 6 0 11 -22 11 -51
0 -60 -9 -57 -51 17 -21 37 -37 54 -51 54 -14 0 -18 -5 -14 -18z"/>
<path d="M1210 230 c0 -11 5 -20 10 -20 6 0 10 7 10 16 0 9 7 14 18 12 14 -3
18 -16 20 -76 2 -47 -1 -72 -8 -72 -6 0 -9 -4 -6 -8 3 -5 19 -7 36 -4 23 3 28
8 21 15 -6 6 -11 39 -11 74 0 61 1 63 25 63 14 0 25 -5 25 -11 0 -5 5 -7 10
-4 6 3 10 13 10 21 0 11 -17 14 -80 14 -73 0 -80 -2 -80 -20z"/>
<path d="M1406 235 c8 -19 -33 -127 -53 -142 -15 -11 -13 -13 14 -13 31 0 53
15 32 22 -7 2 -7 12 0 31 8 21 17 27 40 27 24 0 31 -5 36 -30 4 -16 4 -34 0
-40 -4 -6 6 -10 24 -10 17 0 31 1 31 3 0 2 -11 32 -25 67 -14 35 -25 72 -25
82 0 14 -8 18 -40 18 -30 0 -38 -3 -34 -15z m48 -21 c11 -29 6 -44 -14 -44
-11 0 -20 6 -20 14 0 21 11 46 20 46 4 0 11 -7 14 -16z"/>
<path d="M340 230 c0 -5 5 -10 10 -10 6 0 10 -18 10 -40 0 -22 -2 -40 -5 -40
-8 0 -75 73 -75 82 0 4 -8 8 -17 8 -16 0 -18 -10 -18 -80 0 -78 1 -80 25 -80
19 0 21 3 12 12 -7 7 -12 30 -12 52 l0 41 41 -47 c60 -70 71 -65 67 32 -2 69
-5 80 -20 80 -10 0 -18 -4 -18 -10z"/>
<path d="M455 228 c-54 -14 -72 -72 -39 -123 14 -21 24 -25 65 -25 36 0 49 4
49 14 0 8 3 21 6 30 5 13 -2 16 -35 16 -23 0 -41 -4 -41 -10 0 -5 11 -10 25
-10 14 0 25 -4 25 -10 0 -15 -56 -12 -70 5 -16 20 -3 71 23 90 27 19 37 19 37
0 0 -20 16 -19 24 1 3 9 6 17 6 19 0 8 -49 10 -75 3z"/>
<path d="M601 127 c-25 -31 20 -71 48 -42 12 12 13 19 5 33 -15 22 -38 26 -53
9z m39 -15 c0 -13 -12 -22 -22 -16 -10 6 -1 24 13 24 5 0 9 -4 9 -8z"/>
</g>
</svg>
