<?xml version="1.0" standalone="no"?>
<!DOCTYPE svg PUBLIC "-//W3C//DTD SVG 20010904//EN"
 "http://www.w3.org/TR/2001/REC-SVG-20010904/DTD/svg10.dtd">
<svg version="1.0" xmlns="http://www.w3.org/2000/svg"
 width="221.000000pt" height="392.000000pt" viewBox="0 0 221.000000 392.000000"
 preserveAspectRatio="xMidYMid meet">
<metadata>
Created by potrace 1.16, written by Peter Selinger 2001-2019
</metadata>
<g transform="translate(0.000000,392.000000) scale(0.100000,-0.100000)"
fill="#000000" stroke="none">
<path d="M1838 3905 c-2 -3 -404 -6 -893 -7 l-889 -3 -8 -30 c-5 -16 -11 -232
-14 -480 -2 -247 -6 -610 -9 -805 -3 -195 -6 -854 -7 -1465 l-3 -1110 755 3
c937 4 1339 9 1385 18 31 5 35 10 35 36 0 17 -4 27 -10 23 -5 -3 -10 -1 -10 4
0 6 4 11 8 11 4 0 8 91 8 203 1 111 4 962 7 1891 5 1212 3 1693 -5 1703 -8 10
-52 13 -178 13 -91 0 -169 -2 -172 -5z m336 -685 c-2 -1602 -5 -1960 -15
-1960 -19 0 -59 53 -66 89 -4 20 -6 56 -5 81 1 25 2 99 3 165 2 167 -19 210
-126 261 -56 26 -98 29 -177 13 -100 -22 -151 -56 -194 -133 -25 -46 -31 -25
-37 116 -5 130 -8 153 -42 253 -20 61 -47 130 -61 154 -13 24 -24 56 -24 72 0
26 -9 34 -33 30 -18 -3 -37 29 -31 53 6 27 -16 45 -58 47 -23 1 -23 1 2 8 17
5 24 13 22 27 -2 10 -6 34 -9 52 -6 34 -10 37 -33 22 -10 -6 -11 -10 -2 -10 6
0 12 -7 12 -15 0 -8 -4 -15 -10 -15 -10 0 -14 20 -12 53 1 10 -3 15 -8 12 -6
-3 -14 5 -19 18 -6 14 -18 31 -29 38 -10 8 -34 42 -53 77 -18 35 -57 86 -86
113 -50 47 -54 49 -110 49 -32 0 -75 -4 -95 -9 -29 -7 -38 -6 -38 4 0 8 -7 20
-15 29 -25 24 -47 94 -26 81 5 -3 13 0 17 6 5 9 -2 10 -24 6 -17 -4 -34 -2
-37 4 -4 5 -1 8 6 7 6 -2 14 3 16 10 3 6 -2 12 -11 12 -9 0 -16 5 -16 10 0 6
-5 10 -11 10 -5 0 -7 -4 -4 -10 14 -23 -4 -8 -20 16 -14 22 -15 28 -4 35 10 7
11 11 3 17 -7 4 -14 18 -16 32 -4 23 -6 22 -23 -17 -15 -32 -22 -39 -32 -31
-10 8 -13 5 -13 -11 0 -15 -6 -21 -22 -21 -17 0 -19 -3 -10 -12 15 -15 16 -42
2 -33 -6 4 -8 10 -5 15 3 4 0 10 -6 12 -8 3 -7 13 3 33 8 17 18 43 22 58 4 15
11 25 16 22 6 -3 10 -1 10 4 0 6 -7 11 -16 11 -8 0 -13 4 -10 8 2 4 1 14 -5
22 -7 12 -9 11 -9 -5 0 -17 -2 -18 -10 -5 -8 11 -9 7 -4 -14 5 -21 4 -27 -5
-22 -6 4 -11 3 -11 -3 0 -5 7 -14 16 -19 21 -12 10 -50 -14 -48 -11 1 -16 -6
-16 -17 1 -13 -3 -16 -16 -12 -11 3 -20 -1 -24 -10 -5 -15 -9 -14 -34 4 l-29
20 -12 -50 c-9 -35 -17 -49 -27 -45 -7 3 -16 1 -19 -4 -4 -6 -1 -10 5 -10 6 0
9 -4 6 -9 -3 -5 -16 -7 -28 -3 -17 4 -20 2 -15 -11 7 -18 3 -20 -30 -11 -19 5
-22 11 -16 32 5 22 3 24 -14 20 -12 -3 -20 -1 -19 6 0 6 -3 11 -9 11 -5 0 -9
-7 -8 -15 1 -8 -3 -18 -9 -21 -16 -10 0 -29 24 -29 11 0 32 -8 46 -18 15 -10
35 -22 45 -25 9 -4 22 -18 29 -32 12 -26 31 -36 22 -10 -4 8 -1 15 5 15 15 0
14 -27 -1 -36 -6 -4 -17 1 -25 11 -12 17 -13 18 -13 1 0 -9 -4 -15 -10 -11 -5
3 -7 11 -5 18 3 7 1 17 -3 23 -10 16 -52 28 -52 15 0 -5 9 -13 20 -16 23 -7
27 -25 5 -25 -8 0 -15 -6 -15 -12 0 -9 -3 -9 -8 -2 -10 14 -71 38 -79 31 -3
-4 5 -22 18 -41 19 -28 29 -34 46 -30 18 5 23 2 23 -14 0 -11 7 -27 15 -36 8
-8 15 -21 15 -29 0 -10 7 -13 19 -10 10 3 22 0 25 -6 11 -16 36 -13 36 4 0 14
4 14 31 -1 17 -8 41 -13 54 -10 29 7 37 -2 23 -28 -7 -11 -13 -65 -14 -119 -2
-70 -7 -105 -18 -122 -21 -32 -22 -95 -1 -95 19 0 19 -9 -1 -31 -9 -10 -18
-36 -21 -58 -5 -33 -3 -41 11 -41 12 0 16 -9 16 -36 0 -21 7 -42 15 -48 12
-10 12 -23 -4 -103 -9 -50 -23 -98 -29 -106 -15 -17 2 -72 18 -62 5 3 10 -3
10 -14 0 -52 86 -201 116 -201 7 0 14 -5 14 -11 0 -14 -39 -69 -62 -89 -21
-17 -36 -80 -20 -80 6 0 14 5 17 10 12 19 22 10 17 -15 -2 -14 -13 -30 -23
-36 -25 -13 -24 -39 1 -39 11 0 20 -4 20 -9 0 -13 -27 -21 -47 -14 -16 6 -16
4 2 -16 14 -16 26 -21 45 -16 23 5 23 4 7 -9 -14 -11 -15 -19 -7 -40 6 -17 6
-26 0 -26 -6 0 -10 -5 -10 -11 0 -6 7 -8 16 -5 12 5 15 2 10 -9 -4 -11 0 -15
12 -13 13 2 18 -5 20 -28 l3 -32 -121 3 c-116 3 -122 5 -141 29 -11 13 -27 27
-37 30 -9 3 -23 19 -30 35 -7 16 -30 48 -51 70 -31 33 -46 41 -74 41 -31 0
-38 -6 -68 -51 -18 -29 -40 -66 -48 -82 -9 -17 -26 -37 -39 -45 l-22 -14 5
218 c2 121 7 611 10 1089 5 864 13 1396 19 1402 2 2 407 6 901 8 495 3 901 8
904 10 2 3 72 4 155 3 l151 -3 -1 -665z m-1502 -172 c-6 -6 -7 0 -4 19 5 21 7
23 10 9 2 -10 0 -22 -6 -28z m-32 8 c0 -3 -4 -8 -10 -11 -5 -3 -10 -1 -10 4 0
6 5 11 10 11 6 0 10 -2 10 -4z m-160 -29 c0 -7 -6 -21 -13 -31 -12 -17 -14
-17 -20 -2 -4 11 -1 16 9 16 10 0 14 6 10 15 -3 8 -1 15 4 15 6 0 10 -6 10
-13z m133 -60 c-9 -18 -16 -37 -15 -44 1 -6 -2 -14 -7 -17 -6 -4 -9 4 -7 16 5
35 29 87 38 82 4 -3 0 -20 -9 -37z m107 -2 c0 -13 -4 -26 -9 -29 -5 -3 -9 10
-8 28 1 38 17 39 17 1z m-137 11 c3 -8 -1 -17 -10 -20 -20 -8 -27 -1 -20 19 8
19 23 20 30 1z m83 -11 c-3 -8 -1 -15 4 -15 6 0 10 5 10 12 0 6 2 9 5 6 12
-12 -7 -36 -25 -31 -16 4 -17 8 -7 24 14 23 21 25 13 4z m96 -34 c2 -22 -2
-35 -10 -37 -7 -1 -8 0 -3 2 6 3 8 11 6 17 -12 41 -15 71 -7 62 6 -5 12 -25
14 -44z m-252 19 c0 -5 -9 -10 -20 -10 -11 0 -20 5 -20 10 0 6 9 10 20 10 11
0 20 -4 20 -10z m-90 -20 c0 -5 -2 -10 -4 -10 -3 0 -8 5 -11 10 -3 6 -1 10 4
10 6 0 11 -4 11 -10z m150 -43 c0 -16 -18 3 -23 25 -6 22 -5 22 8 4 8 -11 15
-24 15 -29z m240 18 c10 -12 10 -19 2 -27 -9 -9 -12 -7 -12 9 0 12 -6 24 -12
26 -8 4 -9 6 -2 6 6 1 17 -6 24 -14z m-370 -11 c0 -2 -7 -4 -15 -4 -8 0 -15 4
-15 10 0 5 7 7 15 4 8 -4 15 -8 15 -10z m255 -11 c13 -10 23 -22 21 -28 -2 -6
22 -11 58 -12 41 -1 55 1 41 7 -16 7 -13 9 17 9 47 1 52 -8 28 -47 -11 -18
-22 -51 -26 -75 -10 -76 -13 -84 -51 -121 -45 -43 -83 -47 -118 -11 -33 32
-32 55 0 55 32 0 65 33 65 64 0 13 3 31 6 40 3 9 1 16 -5 16 -6 0 -11 -11 -11
-24 0 -58 -31 -96 -66 -82 -15 6 -15 9 5 29 32 35 25 41 -12 13 -38 -29 -46
-31 -82 -14 -30 14 -32 24 -5 31 14 4 25 -1 33 -14 6 -10 16 -19 21 -19 6 0
-5 16 -24 35 -34 35 -67 44 -87 24 -15 -15 -32 -3 -30 22 1 13 16 31 37 44 19
13 48 37 64 54 24 25 35 30 63 26 18 -2 44 -12 58 -22z m-151 0 c4 -9 0 -23
-9 -32 -14 -14 -17 -14 -25 -1 -14 22 -12 30 5 24 11 -5 13 -2 9 10 -3 9 -2
16 4 16 5 0 13 -8 16 -17z m-44 -48 c0 -5 -5 -3 -10 5 -5 8 -10 20 -10 25 0 6
5 3 10 -5 5 -8 10 -19 10 -25z m576 -18 c28 -30 64 -76 80 -103 15 -27 41 -65
56 -85 16 -20 31 -53 35 -75 3 -21 9 -44 14 -50 4 -5 6 -20 3 -31 -8 -29 -31
-18 -39 18 -6 27 -25 41 -25 18 0 -31 -20 10 -35 71 -9 38 -22 70 -27 70 -16
0 14 -144 32 -155 5 -3 7 -18 4 -34 -4 -20 1 -35 21 -59 14 -17 31 -31 38 -29
18 3 14 -25 -9 -63 -11 -19 -27 -53 -34 -74 -7 -22 -28 -73 -47 -114 -28 -63
-36 -72 -48 -62 -8 7 -15 11 -16 9 -7 -32 -3 -48 13 -52 11 -3 18 -14 18 -31
0 -34 -10 -33 -35 4 -16 24 -27 30 -57 30 -54 0 -68 8 -68 42 0 29 45 118 60
118 14 0 -12 -84 -33 -107 -22 -25 -20 -27 46 -38 44 -7 51 10 8 20 l-29 6 23
86 c12 48 30 92 38 98 11 8 12 16 6 28 -12 20 -3 40 13 31 7 -4 6 -9 -2 -14
-7 -5 -2 -13 15 -24 15 -10 28 -16 30 -14 2 2 -2 20 -8 41 -9 29 -16 37 -29
33 -12 -3 -18 2 -18 14 0 11 10 20 25 24 71 18 81 77 35 196 -17 41 -30 81
-30 88 0 6 -3 11 -8 10 -4 -2 -8 2 -9 7 -1 6 7 9 18 8 14 -2 19 3 19 22 0 35
-18 40 -46 14 -27 -26 -29 -37 -12 -125 14 -78 34 -87 24 -12 -9 65 -5 61 28
-26 31 -81 33 -133 9 -152 -24 -18 -43 -17 -43 0 0 8 -12 38 -27 68 -24 45
-28 68 -31 151 -4 93 -2 100 23 139 15 22 21 38 14 36 -7 -2 -24 -24 -37 -49
-21 -39 -23 -55 -20 -136 2 -50 0 -86 -4 -80 -4 7 -8 25 -8 40 0 15 -7 44 -15
64 -8 19 -15 59 -16 87 0 45 -2 48 -12 28 -8 -17 -8 -38 0 -75 16 -76 8 -70
-17 13 -15 51 -19 84 -15 113 7 40 6 41 -10 22 -15 -19 -16 -19 -11 -1 6 16 4
17 -9 6 -14 -12 -15 -11 -4 13 14 30 25 34 93 36 48 1 52 -1 102 -52z m-656
-18 c0 -5 -4 -9 -10 -9 -5 0 -10 7 -10 16 0 8 5 12 10 9 6 -3 10 -10 10 -16z
m-32 -8 c3 -8 -1 -12 -9 -9 -7 2 -15 10 -17 17 -3 8 1 12 9 9 7 -2 15 -10 17
-17z m162 -40 c0 -6 -9 -9 -20 -8 -11 1 -20 5 -20 9 0 4 9 8 20 8 11 0 20 -4
20 -9z m307 -58 c-3 -10 -5 -4 -5 12 0 17 2 24 5 18 2 -7 2 -21 0 -30z m70
-70 c16 -44 27 -53 36 -30 3 6 6 -5 6 -25 1 -26 14 -55 46 -102 25 -37 45 -74
45 -84 0 -14 -2 -15 -10 -2 -8 12 -13 11 -33 -8 -13 -12 -28 -22 -35 -22 -6 0
-15 -8 -20 -17 -9 -15 -13 -14 -46 10 -39 30 -60 62 -51 77 3 5 -6 32 -20 59
-14 28 -25 56 -25 64 0 7 -7 22 -16 33 -15 18 -15 17 -10 -16 4 -31 4 -32 -6
-12 -11 21 -28 30 -28 15 0 -12 30 -93 41 -115 18 -33 29 -19 14 19 -8 20 -14
38 -12 39 7 7 47 -79 47 -100 0 -13 16 -39 35 -59 19 -20 31 -38 26 -41 -5 -3
-16 6 -25 20 -13 19 -22 23 -39 18 -12 -4 -25 -12 -29 -18 -6 -8 -8 -8 -8 0 0
7 -9 14 -20 17 -21 5 -28 -7 -10 -18 6 -3 10 -10 10 -16 0 -13 -38 9 -77 45
-37 33 -56 28 -27 -6 l18 -23 -23 22 c-21 18 -24 32 -26 100 -1 43 -5 96 -9
118 -6 37 -5 35 14 -15 35 -90 41 -100 35 -55 -4 22 -8 48 -11 58 -4 11 0 17
11 17 9 0 14 -4 11 -8 -7 -11 15 -82 25 -82 5 0 6 15 4 33 l-5 32 12 -32 c10
-30 28 -45 28 -24 0 27 -23 69 -36 64 -8 -3 -14 0 -14 6 0 6 8 11 18 11 10 0
38 19 62 43 24 23 40 36 35 28 -4 -7 -4 -16 1 -20 5 -3 15 -28 22 -56 14 -53
29 -78 43 -70 4 3 0 22 -11 43 -18 36 -23 63 -21 110 1 32 21 17 21 -16 0 -39
11 -72 22 -72 7 0 8 13 3 33 -8 40 -16 120 -9 92 3 -11 12 -39 21 -62z m-311
40 c15 -15 15 -18 3 -21 -11 -2 -14 -16 -12 -60 2 -49 0 -54 -11 -40 -14 20
-28 14 -19 -8 3 -8 1 -14 -5 -14 -17 0 -20 82 -4 123 16 42 23 45 48 20z m9
-252 c11 -50 44 -90 94 -116 28 -14 58 -25 68 -25 14 0 12 -3 -7 -13 -14 -7
-26 -21 -28 -32 -2 -11 -11 -26 -20 -34 -13 -10 -14 -15 -4 -18 6 -3 12 -17
12 -33 0 -16 5 -30 11 -32 5 -2 -2 -15 -17 -28 l-27 -25 7 28 c4 17 2 35 -5
43 -13 16 -104 20 -94 4 3 -5 22 -10 41 -10 33 0 45 -12 24 -25 -8 -5 -8 -11
-1 -19 7 -8 5 -29 -6 -66 -19 -66 -16 -63 -50 -64 -20 -1 -32 -9 -41 -29 -12
-25 -11 -31 4 -55 10 -15 17 -30 16 -34 -1 -5 6 -8 16 -8 11 0 29 -9 41 -19
12 -11 32 -26 44 -35 21 -14 21 -15 2 -15 -11 0 -29 6 -39 14 -41 31 -49 12
-11 -29 17 -19 35 -26 62 -27 37 -1 36 -2 -11 -10 -43 -7 -51 -5 -68 14 -11
12 -17 17 -14 12 2 -6 1 -17 -4 -25 -6 -10 -2 -23 13 -40 l22 -25 -26 23 c-31
27 -79 128 -86 181 -4 26 0 42 11 53 23 24 20 31 -11 24 -25 -5 -25 -4 7 14
32 17 33 19 11 20 -22 0 -23 2 -17 48 4 26 9 58 11 72 2 14 4 27 6 30 1 3 2
12 3 20 1 8 21 22 46 32 40 15 42 18 23 24 -26 7 -28 15 -11 32 26 26 -36 12
-64 -15 l-27 -26 6 36 c5 36 -9 53 -20 25 -3 -7 -6 -1 -6 13 -1 15 8 38 19 52
25 31 25 44 1 57 -19 10 -19 41 0 65 4 6 11 31 15 55 l7 44 33 -38 c18 -21 36
-50 39 -65z m588 45 c3 -8 16 -16 29 -18 l23 -3 -24 -14 c-22 -12 -26 -11 -38
5 -15 20 -17 44 -4 44 5 0 11 -6 14 -14z m87 -31 c0 -8 -4 -15 -10 -15 -5 0
-10 7 -10 15 0 8 5 15 10 15 6 0 10 -7 10 -15z m45 5 c3 -5 1 -10 -4 -10 -6 0
-11 5 -11 10 0 6 2 10 4 10 3 0 8 -4 11 -10z m-41 -61 c13 11 20 11 28 3 8 -8
7 -13 -5 -17 -28 -11 -62 -1 -65 20 -4 20 -4 20 11 0 13 -17 17 -17 31 -6z
m-269 -39 c-2 -27 -15 -38 -15 -13 0 16 8 33 15 33 1 0 1 -9 0 -20z m-37 -23
c2 -10 -3 -17 -12 -17 -10 0 -16 9 -16 21 0 24 23 21 28 -4z m292 2 c0 -11 -4
-17 -10 -14 -5 3 -10 13 -10 21 0 8 5 14 10 14 6 0 10 -9 10 -21z m-453 -15
c-3 -3 -12 -4 -19 -1 -8 3 -5 6 6 6 11 1 17 -2 13 -5z m529 -39 c25 -60 44
-173 44 -258 0 -95 -23 -258 -42 -304 -12 -29 -16 -31 -31 -20 -16 11 -16 19
-7 65 7 28 15 52 20 52 8 0 -5 -74 -16 -92 -3 -4 -1 -8 4 -8 11 0 35 87 27
100 -3 5 -1 27 4 49 5 24 5 41 0 41 -5 0 -9 5 -9 11 0 6 7 9 14 6 26 -10 30
32 6 58 -14 15 -17 24 -9 27 18 6 13 197 -6 219 -8 8 -12 18 -9 22 4 4 -1 18
-10 31 -19 30 -20 36 -5 36 5 0 17 -16 25 -35z m-482 11 c-5 -13 -44 -30 -44
-19 0 7 33 32 42 33 4 0 5 -6 2 -14z m396 4 c0 -5 -2 -10 -4 -10 -3 0 -8 5
-11 10 -3 6 -1 10 4 10 6 0 11 -4 11 -10z m165 -40 c34 -68 72 -234 80 -352 4
-54 10 -98 14 -98 3 0 5 -20 3 -44 -4 -47 -9 -52 -69 -66 -28 -7 -33 -5 -33
10 0 11 5 22 10 25 6 4 10 60 10 135 0 85 4 131 11 136 9 5 10 -34 7 -145 -2
-91 0 -147 5 -142 5 5 10 78 10 163 1 168 -14 265 -59 365 -25 59 -27 63 -19
63 2 0 16 -23 30 -50z m-115 9 c10 -18 9 -20 -12 -17 -12 2 -24 11 -26 21 -5
24 25 22 38 -4z m-320 1 c0 -5 -4 -10 -10 -10 -5 0 -10 5 -10 10 0 6 5 10 10
10 6 0 10 -4 10 -10z m-225 -10 c-3 -5 -11 -10 -16 -10 -6 0 -7 5 -4 10 3 6
11 10 16 10 6 0 7 -4 4 -10z m115 1 c0 -16 -28 -33 -35 -21 -5 8 -11 7 -23 -2
-13 -11 -14 -11 -10 2 2 8 12 15 21 15 8 0 19 4 23 8 10 10 24 9 24 -2z m326
-16 c-3 -9 -11 -13 -16 -10 -8 5 -7 11 1 21 14 18 24 11 15 -11z m44 15 c0 -5
-7 -10 -16 -10 -8 0 -12 5 -9 10 3 6 10 10 16 10 5 0 9 -4 9 -10z m164 -62
c33 -95 42 -154 25 -174 -8 -10 -14 -61 -16 -147 -5 -142 -19 -197 -52 -197
-17 0 -17 5 5 88 32 124 42 323 20 415 -9 38 -16 72 -16 78 0 22 10 4 34 -63z
m-500 37 c-7 -16 -24 -21 -24 -6 0 8 7 13 27 20 1 1 0 -6 -3 -14z m416 -21 c0
-3 -9 -2 -20 1 -17 5 -20 2 -20 -23 0 -16 -7 -36 -16 -43 -19 -16 -58 -23 -49
-9 3 5 12 10 18 10 7 0 20 20 30 45 17 39 21 43 38 35 10 -6 19 -13 19 -16z
m-577 10 c3 -3 3 -13 0 -21 -5 -12 -7 -12 -14 -1 -15 23 -4 40 14 22z m115
-41 c-4 -32 -38 -46 -38 -16 0 20 18 43 33 43 4 0 7 -12 5 -27z m80 -4 c-7
-20 -14 -27 -20 -21 -13 13 0 52 17 52 11 0 12 -6 3 -31z m275 1 c3 -11 1 -20
-4 -20 -5 0 -9 4 -9 9 0 5 -3 17 -7 27 -4 11 -3 15 4 11 6 -4 13 -16 16 -27z
m-413 -26 c0 -9 -5 -14 -12 -12 -18 6 -21 28 -4 28 9 0 16 -7 16 -16z m510
-24 c0 -5 -7 -7 -15 -4 -8 4 -12 10 -9 15 6 11 24 2 24 -11z m-512 -3 c7 3 12
-5 12 -20 0 -21 -7 -28 -37 -37 -63 -20 -97 -52 -113 -106 -18 -63 -27 -31
-11 42 10 42 17 54 40 63 15 7 35 25 45 41 13 23 21 28 34 21 9 -4 23 -6 30
-4z m109 -49 c-2 -13 -4 -3 -4 22 0 25 2 35 4 23 2 -13 2 -33 0 -45z m303 42
c19 -10 19 -11 0 -30 -24 -24 -30 -25 -30 -5 0 8 5 15 11 15 8 0 8 5 -1 15
-14 17 -7 19 20 5z m-295 -125 c27 -31 34 -35 33 -20 -4 57 1 66 30 59 37 -9
43 -23 22 -47 -10 -10 -24 -33 -31 -49 -11 -26 -16 -29 -43 -24 -17 4 -44 20
-61 36 -17 17 -40 30 -50 31 -20 0 -20 1 0 9 18 8 18 9 2 9 -11 1 -15 6 -11
12 4 7 21 9 40 6 21 -4 34 -2 34 5 0 7 -17 9 -50 5 -29 -4 -50 -2 -50 3 0 6
-12 10 -27 11 -23 1 -20 3 17 15 49 15 80 12 40 -4 -23 -9 -21 -10 15 -8 38 2
40 4 45 36 l4 35 4 -40 c2 -28 13 -52 37 -80z m230 105 c3 -5 -1 -10 -10 -10
-9 0 -13 5 -10 10 3 6 8 10 10 10 2 0 7 -4 10 -10z m195 0 c0 -5 -9 -10 -19
-10 -11 0 -23 5 -26 10 -4 6 5 10 19 10 14 0 26 -4 26 -10z m-490 -20 c0 -5
-7 -7 -15 -4 -8 4 -15 8 -15 10 0 2 7 4 15 4 8 0 15 -4 15 -10z m410 -25 c0
-33 -31 -49 -64 -33 -36 16 -32 29 6 26 28 -3 34 1 36 20 4 29 22 18 22 -13z
m-107 -7 c-3 -18 -9 -37 -13 -43 -4 -5 -10 -19 -13 -30 -2 -11 -5 6 -6 37 -1
53 4 64 31 67 4 1 5 -14 1 -31z m186 1 c4 -12 2 -12 -12 0 -12 9 -17 10 -17 2
0 -7 -5 -9 -11 -5 -8 4 -7 9 2 15 18 11 31 7 38 -12z m-578 -39 c10 -6 19 -17
19 -25 0 -9 9 -15 23 -15 12 0 42 -18 67 -40 35 -31 53 -40 82 -40 45 0 70
-29 61 -71 -10 -51 4 -78 51 -99 24 -10 46 -26 50 -35 23 -61 -29 -61 -58 0
-17 35 -20 38 -27 20 -8 -19 -8 -19 -15 3 -3 12 -11 22 -16 22 -5 0 -6 -9 -3
-21 9 -26 -2 -72 -15 -64 -6 3 -10 18 -10 33 0 28 -14 21 -23 -13 -4 -14 -6
-10 -5 10 1 66 -2 86 -12 80 -5 -3 -10 -19 -10 -36 0 -43 -20 -35 -21 9 l-1
37 -12 -37 c-6 -20 -26 -55 -45 -78 -25 -31 -29 -41 -16 -38 23 4 32 -20 11
-28 -19 -7 -46 12 -46 33 0 8 11 25 25 39 25 24 35 74 15 74 -5 0 -10 -11 -10
-24 0 -14 -4 -28 -10 -31 -6 -4 -10 5 -10 19 0 43 -19 29 -22 -16 -3 -36 -7
-44 -26 -46 -17 -3 -21 -8 -17 -23 7 -22 2 -24 -26 -6 -17 10 -22 9 -34 -7
-11 -15 -12 -23 -3 -33 6 -7 8 -17 4 -20 -4 -4 -11 -1 -17 7 -8 13 -10 13 -19
0 -9 -13 -11 -13 -19 -1 -11 18 -3 41 15 41 7 0 20 10 28 22 12 17 13 24 3 31
-7 5 4 6 27 2 36 -6 38 -5 33 14 -4 16 0 21 14 21 10 0 19 7 19 15 0 10 -10
15 -32 14 l-33 -1 30 -8 c29 -7 28 -8 -10 -8 -49 -1 -84 11 -66 22 6 4 19 5
27 2 18 -7 54 10 54 24 0 6 -17 10 -37 11 -21 0 -31 3 -23 6 8 3 20 12 27 20
10 13 16 13 46 -6 40 -25 63 -26 83 -7 22 23 16 55 -17 88 -26 27 -28 33 -15
40 9 5 16 16 16 24 0 14 -2 14 -16 0 -8 -9 -22 -16 -29 -16 -21 0 -45 29 -45
56 0 28 -8 30 -26 7 -7 -10 -14 -13 -14 -6 0 6 6 18 13 25 8 7 12 19 9 26 -5
15 32 16 59 2z m429 -10 c0 -5 -4 -10 -10 -10 -5 0 -10 5 -10 10 0 6 5 10 10
10 6 0 10 -4 10 -10z m117 -22 c-3 -7 -5 -2 -5 12 0 14 2 19 5 13 2 -7 2 -19
0 -25z m-267 7 c0 -8 -7 -15 -16 -15 -14 0 -14 3 -4 15 7 8 14 15 16 15 2 0 4
-7 4 -15z m58 -30 c-5 -43 -5 -45 18 -39 17 4 24 2 24 -9 0 -11 -7 -13 -32 -8
-34 7 -36 15 -22 79 8 39 17 23 12 -23z m122 25 c0 -5 -4 -10 -10 -10 -5 0
-10 5 -10 10 0 6 5 10 10 10 6 0 10 -4 10 -10z m46 -17 c-10 -10 -19 5 -10 18
6 11 8 11 12 0 2 -7 1 -15 -2 -18z m-81 -2 c3 -5 -4 -13 -16 -16 -23 -8 -34
-1 -24 14 8 13 32 14 40 2z m-585 -15 c0 -22 29 -46 56 -46 13 0 24 -4 24 -10
0 -11 -69 -14 -94 -4 -16 6 -22 54 -9 67 11 12 23 8 23 -7z m407 -8 c-3 -8 -6
-5 -6 6 -1 11 2 17 5 13 3 -3 4 -12 1 -19z m61 -84 c4 2 15 -7 25 -20 14 -19
15 -24 4 -24 -27 0 -47 46 -45 102 l2 53 3 -58 c2 -32 7 -56 11 -53z m242 71
c0 -14 -4 -25 -10 -25 -11 0 -14 33 -3 43 11 11 13 8 13 -18z m-109 2 c-1 -12
-15 -9 -19 4 -3 6 1 10 8 8 6 -3 11 -8 11 -12z m38 -18 c-13 -26 -23 -18 -14
10 3 12 11 19 16 16 5 -4 5 -14 -2 -26z m-212 -11 c-3 -7 -5 -2 -5 12 0 14 2
19 5 13 2 -7 2 -19 0 -25z m183 -8 c0 -5 -4 -10 -10 -10 -5 0 -10 5 -10 10 0
6 5 10 10 10 6 0 10 -4 10 -10z m695 -7 c29 -9 66 -33 91 -59 l43 -42 -2 -215
c-2 -204 -1 -217 19 -244 11 -15 35 -37 53 -48 l32 -20 -4 -88 c-2 -49 -8 -92
-14 -95 -9 -6 -20 -40 -27 -85 -1 -9 -8 -23 -14 -29 -7 -7 -12 -19 -12 -28 0
-9 -7 -25 -15 -36 -8 -10 -15 -30 -15 -44 0 -14 -7 -38 -15 -54 -8 -15 -15
-37 -15 -47 0 -23 -58 -55 -72 -41 -6 6 -2 17 13 31 13 11 18 21 13 21 -18 0
-55 -32 -64 -56 -5 -13 -14 -24 -20 -24 -17 0 -24 31 -12 51 15 24 15 32 1 23
-6 -3 -17 -22 -25 -41 -8 -18 -19 -31 -24 -28 -15 9 -12 36 7 59 10 12 3 8
-14 -8 -31 -28 -53 -28 -53 -1 0 21 49 55 79 55 35 0 73 41 96 105 10 28 31
78 46 112 16 34 29 70 29 81 0 10 6 24 12 30 10 10 10 17 0 33 -7 11 -10 23
-8 28 3 4 -28 11 -68 14 -55 4 -84 12 -114 31 -77 48 -117 130 -101 205 4 19
6 50 4 70 -2 20 2 42 7 49 7 8 7 12 -1 12 -25 0 -50 -67 -64 -175 -5 -31 -44
-97 -75 -125 -34 -31 -119 -89 -143 -98 -59 -22 -79 -23 -79 -4 0 10 7 27 15
38 20 26 19 34 -5 34 -22 0 -50 -46 -50 -82 0 -13 12 -43 25 -67 23 -39 24
-47 13 -72 -13 -29 -41 -39 -53 -19 -3 6 1 10 9 10 16 0 21 12 9 23 -10 10
-33 -13 -33 -33 0 -10 5 -20 12 -22 8 -3 5 -14 -10 -33 -15 -19 -22 -40 -21
-60 2 -16 -6 -48 -16 -70 -10 -22 -19 -59 -19 -81 -1 -30 -5 -40 -14 -37 -7 3
-21 -2 -30 -10 -10 -9 -40 -26 -67 -38 -28 -12 -60 -33 -72 -45 -23 -25 -43
-31 -43 -14 0 6 9 19 21 31 11 11 18 23 15 26 -10 10 -57 -27 -66 -53 -11 -28
-28 -31 -37 -7 -4 10 3 24 21 40 30 26 29 28 -8 11 -14 -6 -28 -19 -31 -30 -8
-24 -22 -23 -30 2 -8 27 9 47 46 55 16 4 29 11 29 16 0 15 -21 10 -67 -17
l-45 -26 4 23 c3 24 10 27 99 48 26 6 69 23 95 39 43 25 50 33 57 73 4 24 6
74 5 111 -3 48 0 69 9 72 35 14 -3 96 -43 96 -30 0 -89 24 -99 40 -15 24 5 22
35 -4 32 -27 83 -35 95 -15 5 7 14 4 27 -8 18 -16 22 -16 46 -2 15 8 33 27 42
42 14 25 13 30 -6 67 -19 33 -20 41 -8 51 16 13 19 39 4 39 -5 0 -10 -7 -10
-16 0 -18 -41 -16 -47 3 -7 20 35 53 66 53 37 0 45 12 37 56 -6 29 -11 34 -35
34 -27 0 -38 -10 -96 -96 -20 -29 -26 -33 -31 -20 -3 9 -1 22 5 30 9 11 -1 13
-61 8 l-73 -5 25 25 c22 22 27 23 47 11 12 -7 33 -13 46 -13 29 0 117 65 117
85 0 8 9 15 19 15 32 0 51 28 51 74 0 24 6 59 14 78 14 32 19 35 86 48 77 15
154 56 235 128 49 43 50 59 1 21 -15 -12 -29 -19 -32 -16 -12 12 81 67 129 76
86 18 91 19 108 20 8 0 37 -6 64 -16z m-790 -3 c3 -5 -3 -10 -15 -10 -12 0
-18 5 -15 10 3 6 10 10 15 10 5 0 12 -4 15 -10z m135 -20 c-12 -16 -24 -30
-26 -30 -7 0 5 20 24 43 24 27 25 20 2 -13z m60 20 c0 -5 -7 -10 -16 -10 -8 0
-12 5 -9 10 3 6 10 10 16 10 5 0 9 -4 9 -10z m-161 -24 c-7 -15 -17 -22 -26
-19 -11 5 -11 9 3 24 24 26 36 24 23 -5z m-364 -11 c14 -13 25 -34 25 -47 -1
-22 -2 -21 -28 10 -15 18 -33 32 -39 32 -14 0 -17 13 -6 23 11 12 23 8 48 -18z
m396 -8 c-13 -13 -26 -3 -16 12 3 6 11 8 17 5 6 -4 6 -10 -1 -17z m107 1 c-6
-16 -36 -34 -44 -25 -9 9 15 37 33 37 8 0 13 -5 11 -12z m-623 -9 c11 -17 -1
-21 -15 -4 -8 9 -8 15 -2 15 6 0 14 -5 17 -11z m45 1 c0 -5 -2 -10 -4 -10 -3
0 -8 5 -11 10 -3 6 -1 10 4 10 6 0 11 -4 11 -10z m395 -80 c8 0 21 -10 30 -22
11 -15 19 -19 22 -11 7 20 63 -13 63 -37 0 -11 -5 -20 -11 -20 -5 0 -8 4 -4 9
9 16 -12 22 -25 7 -9 -12 -6 -18 13 -31 34 -22 52 -67 37 -94 -13 -25 -33 -27
-50 -6 -14 17 -6 50 10 40 6 -4 7 -11 4 -17 -4 -6 -1 -9 7 -6 21 7 17 32 -5
36 -18 4 -46 -21 -46 -39 0 -4 14 -23 30 -41 30 -32 39 -71 20 -83 -5 -3 -10
0 -10 8 0 22 -30 77 -42 77 -38 0 -62 -66 -34 -89 17 -14 46 -4 46 17 0 8 3
13 6 9 13 -12 -7 -58 -29 -66 -32 -13 -74 12 -82 49 -9 39 0 65 30 84 14 9 25
21 25 25 0 5 14 23 30 39 28 28 43 71 20 57 -5 -3 -10 -12 -10 -19 0 -7 -8
-20 -19 -30 -33 -30 -73 -2 -95 67 -3 11 -2 16 4 12 6 -3 10 -13 10 -20 0 -19
36 -37 60 -30 25 8 35 42 20 69 -6 12 -30 31 -53 42 -30 13 -43 26 -45 43 l-4
24 32 -26 c17 -15 38 -27 45 -27z m48 32 c12 -13 13 -21 6 -32 -9 -13 -10 -12
-5 2 6 19 -9 34 -19 18 -8 -12 -16 -12 -35 0 -13 9 -13 11 0 20 22 14 35 12
53 -8z m98 -32 c7 0 18 8 26 18 14 16 14 16 9 -1 -3 -10 -6 -25 -6 -33 0 -9
-10 -14 -27 -14 -19 0 -24 3 -15 9 11 7 11 9 -2 14 -9 4 -16 17 -15 29 l0 23
9 -22 c5 -13 15 -23 21 -23z m-536 -91 c5 -5 -12 -2 -38 7 -26 9 -49 19 -52
24 -6 10 77 -18 90 -31z m567 19 c-1 -9 2 -19 8 -23 19 -12 10 -26 -12 -20
-15 6 -20 4 -16 -6 25 -67 13 -83 -16 -23 -23 48 -14 96 17 92 14 -2 21 -9 19
-20z m-401 -21 c-10 -9 -11 -8 -5 6 3 10 9 15 12 12 3 -3 0 -11 -7 -18z m34
-17 c3 -5 -1 -10 -9 -10 -9 0 -16 5 -16 10 0 6 4 10 9 10 6 0 13 -4 16 -10z
m113 -1 c-2 -6 -8 -10 -13 -10 -5 0 -11 4 -13 10 -2 6 4 11 13 11 9 0 15 -5
13 -11z m-78 -9 c0 -5 -4 -10 -10 -10 -5 0 -10 5 -10 10 0 6 5 10 10 10 6 0
10 -4 10 -10z m13 -27 c-7 -2 -19 -2 -25 0 -7 3 -2 5 12 5 14 0 19 -2 13 -5z
m-70 -26 c-20 -27 -45 -32 -41 -8 2 9 11 15 21 13 9 -2 17 2 17 8 0 5 5 10 10
10 6 0 3 -10 -7 -23z m117 13 c0 -5 -4 -10 -10 -10 -5 0 -10 5 -10 10 0 6 5
10 10 10 6 0 10 -4 10 -10z m-75 -20 c4 -6 1 -26 -5 -45 -9 -27 -17 -35 -36
-35 -13 0 -24 3 -24 8 1 13 27 42 39 42 6 0 11 5 11 10 0 6 -5 10 -11 10 -5 0
-7 5 -4 10 8 13 22 13 30 0z m-186 -50 c-11 -36 -15 -40 -24 -26 -7 9 -23 16
-36 16 -16 0 -20 3 -12 11 12 12 76 46 81 43 2 -1 -2 -21 -9 -44z m38 28 c-3
-8 -6 -5 -6 6 -1 11 2 17 5 13 3 -3 4 -12 1 -19z m295 -10 c-7 -7 -12 -8 -12
-2 0 14 12 26 19 19 2 -3 -1 -11 -7 -17z m-481 -5 c12 -15 12 -16 -2 -11 -9 4
-21 2 -27 -4 -8 -8 -9 -5 -5 11 6 25 16 27 34 4z m229 7 c0 -5 -2 -10 -4 -10
-3 0 -8 5 -11 10 -3 6 -1 10 4 10 6 0 11 -4 11 -10z m445 -1 c9 -13 -3 -59
-15 -59 -5 0 -7 7 -3 16 4 11 0 15 -13 14 -32 -4 -34 -1 -17 20 19 22 38 26
48 9z m-243 -21 c-7 -7 -12 -8 -12 -2 0 14 12 26 19 19 2 -3 -1 -11 -7 -17z
m-188 -12 c-10 -8 -23 -12 -27 -9 -5 3 2 11 15 17 29 16 38 10 12 -8z m186
-11 c10 6 12 4 7 -9 -4 -10 -7 -25 -7 -33 0 -9 -3 -13 -6 -10 -9 9 -44 -11
-44 -25 0 -5 9 -8 20 -5 15 4 20 0 20 -14 0 -23 -38 -26 -46 -4 -10 26 5 62
28 69 l23 6 -23 15 c-12 9 -20 21 -16 26 3 6 11 3 18 -7 8 -11 18 -14 26 -9z
m123 -2 c2 -5 -2 -19 -9 -33 -11 -21 -14 -22 -20 -7 -11 29 15 65 29 40z
m-530 -56 c-8 -15 -23 5 -23 31 l0 27 14 -25 c7 -14 11 -28 9 -33z m33 38 c8
-21 32 -19 37 3 4 13 5 12 6 -5 1 -28 -13 -37 -38 -24 -21 12 -36 41 -20 41 5
0 12 -7 15 -15z m85 -43 c-27 -18 -28 -59 -1 -67 11 -3 20 -15 20 -25 0 -14
-5 -18 -16 -13 -9 3 -20 0 -24 -7 -12 -19 -38 -5 -46 25 -8 30 12 75 33 75 8
0 22 13 31 30 13 23 18 26 21 13 2 -10 -6 -24 -18 -31z m69 -1 c0 -15 -5 -32
-12 -39 -17 -17 -48 -15 -55 3 -8 21 3 30 20 17 20 -17 27 -4 16 25 -5 14 -6
29 -3 34 10 17 34 -12 34 -40z m48 28 c-2 -6 -8 -10 -13 -10 -5 0 -11 4 -13
10 -2 6 4 11 13 11 9 0 15 -5 13 -11z m86 -14 c-4 -8 -14 -15 -24 -15 -20 0
-43 -23 -33 -33 11 -12 23 -7 23 9 0 8 5 12 10 9 16 -10 11 -52 -6 -59 -18 -7
-64 18 -64 35 0 21 22 50 43 59 35 14 57 12 51 -5z m-364 -19 c0 -3 -4 -8 -10
-11 -5 -3 -10 -1 -10 4 0 6 5 11 10 11 6 0 10 -2 10 -4z m262 -28 c-8 -53 55
-80 93 -38 20 22 35 18 35 -11 0 -16 -4 -19 -20 -14 -31 10 -73 -21 -66 -48 3
-11 0 -27 -6 -34 -6 -8 -7 -17 -3 -21 4 -4 10 -1 12 6 8 22 33 13 33 -12 0
-25 -16 -36 -53 -36 -46 0 -79 65 -36 72 32 5 48 34 28 53 -18 18 -49 10 -49
-12 0 -12 3 -13 14 -4 10 8 16 9 21 1 16 -26 -33 -43 -52 -17 -22 27 -21 47 3
79 13 18 27 41 30 51 10 29 21 19 16 -15z m420 -18 c3 -20 -3 -25 -30 -31 -19
-4 -39 -12 -45 -18 -26 -26 -28 -8 -2 19 16 17 37 30 47 30 10 0 18 5 18 10 0
6 -5 10 -11 10 -5 0 -7 5 -3 11 9 15 23 -1 26 -31z m-1062 -25 c17 -9 45 -38
64 -66 43 -64 101 -114 157 -134 48 -18 47 -17 132 -36 74 -16 77 -38 10 -69
-27 -12 -58 -27 -70 -33 -30 -14 -39 -3 -24 29 11 24 9 30 -16 54 -15 15 -38
32 -51 39 -27 15 -62 6 -62 -16 0 -10 -6 -13 -16 -9 -18 7 -74 -47 -74 -70 0
-8 -6 -25 -14 -37 -18 -28 -5 -67 23 -67 25 0 45 -32 29 -48 -6 -6 -30 -9 -57
-6 -39 5 -50 2 -75 -20 -16 -14 -39 -26 -51 -26 -12 0 -30 -9 -40 -20 -26 -29
-49 -26 -41 5 4 14 2 25 -3 25 -10 0 -21 47 -13 55 3 3 11 0 18 -6 9 -8 15 -5
23 10 12 22 0 37 -24 27 -15 -5 -25 29 -22 79 2 24 7 31 27 33 14 2 30 8 36
13 14 12 110 -6 140 -26 15 -10 25 -11 29 -4 4 5 -7 15 -24 22 -17 6 -31 17
-31 24 0 16 -16 17 -25 3 -5 -8 -11 -7 -20 0 -9 7 -27 9 -45 5 -24 -5 -29 -4
-24 8 9 23 -15 31 -37 11 -10 -9 -19 -12 -19 -7 0 6 -3 24 -6 40 -5 26 -1 32
34 56 22 14 44 36 48 49 7 23 74 128 81 128 2 0 17 -7 33 -15z m450 -50 c-14
-17 -5 -35 17 -35 13 0 13 2 2 17 -12 14 -12 16 1 11 21 -7 24 -34 5 -42 -45
-17 -83 56 -48 91 18 18 18 18 26 -4 6 -15 5 -29 -3 -38z m378 17 c2 -7 -2
-10 -12 -6 -9 3 -16 11 -16 16 0 13 23 5 28 -10z m-92 -39 c-5 -5 -11 -2 -13
5 -3 6 -9 10 -14 6 -10 -6 -12 9 -2 20 4 3 14 0 22 -9 8 -8 11 -18 7 -22z m48
31 c9 -3 16 -12 16 -20 0 -16 16 -19 23 -4 3 6 4 5 3 -2 -2 -7 -14 -12 -27
-12 -13 1 -27 -3 -30 -8 -4 -6 -8 4 -11 21 -5 32 -1 35 26 25z m141 -30 c34
-33 40 -59 11 -48 -17 7 -40 -22 -32 -41 3 -8 13 -15 23 -15 14 -1 12 -6 -12
-26 -27 -23 -28 -26 -7 -21 12 3 22 1 22 -4 0 -14 -56 -10 -69 5 -9 10 -9 20
0 39 18 39 5 59 -33 55 -25 -2 -33 -8 -33 -22 0 -23 14 -29 35 -16 13 9 13 11
0 21 -13 9 -13 10 0 6 8 -2 15 -15 15 -28 0 -35 -38 -37 -70 -5 -28 28 -33 56
-10 56 9 0 28 6 44 14 25 13 28 13 39 -5 15 -23 45 -25 62 -4 16 20 1 38 -20
25 -11 -7 -11 -10 -2 -10 7 0 10 -5 7 -10 -9 -15 -35 7 -35 29 0 14 17 41 27
41 1 0 18 -16 38 -36z m624 -10 c23 -32 50 -54 87 -71 30 -13 54 -29 54 -34 0
-25 -41 -123 -57 -135 -28 -21 -30 -17 -20 34 14 68 4 97 -54 150 -55 51 -73
77 -64 92 10 17 19 11 54 -36z m-990 -10 c-11 -14 -1 -24 17 -17 10 4 12 0 8
-11 -8 -21 -33 -17 -47 6 -8 12 -7 24 3 43 13 24 15 25 21 8 4 -10 3 -23 -2
-29z m1018 -92 c7 -8 10 -18 8 -22 -6 -10 -116 0 -143 12 -17 9 -25 9 -34 0
-7 -7 -18 -12 -26 -12 -26 0 -4 47 40 89 l43 39 50 -45 c27 -26 55 -53 62 -61z
m-1058 54 c8 -13 10 -29 7 -35 -4 -6 -7 -35 -7 -64 -1 -44 -4 -54 -17 -53 -12
1 -19 -10 -23 -34 -4 -24 -7 -10 -8 45 -1 59 3 87 15 103 17 25 11 43 -8 24
-6 -6 -14 -39 -16 -72 -3 -38 -9 -60 -16 -60 -17 0 15 148 34 160 22 14 25 13
39 -14z m480 2 c10 -28 4 -45 -20 -58 -16 -9 -18 -7 -14 27 2 21 4 41 4 46 2
16 22 6 30 -15z m-64 -18 c3 -5 1 -10 -4 -10 -6 0 -11 5 -11 10 0 6 2 10 4 10
3 0 8 -4 11 -10z m-352 -30 c6 -23 -3 -26 -21 -8 -16 16 -15 28 2 28 7 0 16
-9 19 -20z m457 -16 c0 -43 -56 -81 -68 -46 -2 7 2 10 11 6 8 -3 18 -1 21 5
10 16 -12 23 -34 11 -11 -6 -20 -7 -20 -1 0 5 11 12 25 15 14 4 30 15 37 26
15 24 28 16 28 -16z m-410 16 c13 -8 13 -10 -2 -10 -9 0 -20 5 -23 10 -8 13 5
13 25 0z m74 -14 c-3 -8 0 -24 6 -36 10 -18 9 -24 -1 -31 -7 -4 -10 -11 -7
-14 10 -10 28 4 28 21 0 23 27 16 49 -12 31 -39 23 -89 -10 -68 -8 4 -7 9 2
15 7 4 10 11 6 15 -10 10 -37 -16 -31 -31 9 -23 43 -25 59 -2 12 18 16 18 32
6 10 -7 20 -15 22 -16 9 -6 10 -74 1 -68 -4 3 -11 -9 -15 -25 -4 -17 -18 -38
-31 -46 -14 -10 -24 -26 -24 -40 0 -12 -4 -26 -10 -29 -5 -3 -10 -17 -10 -30
0 -18 -4 -23 -15 -19 -9 4 -15 0 -15 -8 0 -35 -118 -107 -185 -113 -36 -4 -57
-19 -68 -49 -3 -6 -11 -3 -20 9 -19 25 -14 33 31 52 26 11 32 17 22 23 -8 5
-22 4 -31 -1 -12 -6 -20 -5 -24 1 -4 6 -11 8 -16 4 -5 -3 -6 -10 -3 -16 4 -6
-1 -8 -15 -3 -22 7 -30 -10 -8 -18 7 -3 5 -6 -5 -6 -10 -1 -18 -5 -18 -11 0
-5 -4 -10 -10 -10 -5 0 -10 11 -10 25 0 19 8 29 30 39 22 9 27 15 19 23 -9 9
-2 12 28 11 118 -1 182 58 234 217 12 39 26 75 31 82 17 22 -2 51 -52 82 -28
17 -50 35 -50 40 0 5 17 18 38 29 47 24 53 25 46 8z m-392 -6 c24 -7 44 -7 56
-1 21 11 52 -3 52 -24 0 -17 -19 -19 -69 -5 -20 5 -48 12 -63 15 -16 3 -28 10
-28 15 0 12 6 12 52 0z m1418 7 c0 -2 -7 -26 -15 -53 -17 -57 -75 -120 -143
-154 -67 -33 -59 -19 14 25 55 34 69 49 94 99 17 33 30 65 30 73 0 7 5 13 10
13 6 0 10 -1 10 -3z m18 -79 c-27 -69 -58 -189 -58 -227 0 -38 -27 -61 -74
-61 -23 0 -48 -5 -56 -10 -13 -8 -12 -10 4 -10 20 0 20 0 1 -14 -11 -8 -23
-12 -27 -10 -13 8 -9 59 5 73 10 11 8 11 -11 2 -29 -15 -38 -37 -22 -56 7 -8
9 -15 4 -15 -5 0 -1 -7 9 -14 16 -12 15 -14 -17 -20 -22 -4 -33 -11 -30 -19 3
-9 -6 -13 -31 -13 -29 0 -34 3 -30 17 3 10 0 21 -8 26 -8 4 -14 19 -13 33 1
20 -6 27 -34 36 -19 6 -36 16 -38 23 -2 7 3 9 13 5 28 -11 55 24 55 74 l0 45
38 -8 c20 -4 55 -10 77 -14 42 -8 39 -11 -32 -30 -72 -20 -88 -53 -59 -121 10
-26 20 -34 44 -36 35 -4 49 10 32 31 -7 8 -10 26 -8 40 6 30 -7 33 -22 5 -16
-29 -33 -25 -26 6 5 17 3 23 -4 19 -5 -3 -10 -2 -10 4 0 17 43 41 73 41 18 0
39 11 59 30 16 17 40 36 53 43 39 20 111 93 123 124 6 15 13 41 17 57 4 21 9
26 17 18 8 -8 5 -28 -14 -74z m-1184 37 c-4 -15 -2 -25 4 -25 6 0 12 9 14 20
7 43 22 17 23 -38 0 -43 3 -57 15 -57 18 0 24 -26 16 -69 -4 -19 -12 -33 -21
-33 -11 0 -13 9 -9 39 4 25 3 38 -5 38 -6 0 -11 -16 -11 -36 0 -19 -11 -64
-25 -99 -14 -34 -23 -69 -20 -78 4 -9 -3 -21 -17 -31 -12 -9 -18 -16 -12 -16
13 0 64 53 64 67 0 6 6 15 13 21 9 8 12 3 11 -21 -1 -39 -47 -81 -81 -74 -13
2 -41 1 -63 -3 -51 -9 -52 3 -2 18 22 7 43 21 50 34 14 29 37 115 52 193 6 33
13 70 16 83 2 12 0 22 -5 22 -5 0 -13 -21 -16 -47 -17 -131 -45 -196 -96 -223
-27 -15 -92 -21 -109 -10 -12 8 -12 11 2 27 8 10 21 42 28 71 6 28 16 55 21
58 12 7 12 -13 -1 -35 -5 -10 -11 -34 -13 -54 -2 -20 -9 -43 -16 -51 -8 -9 -9
-16 -3 -16 5 0 15 6 22 14 6 8 21 16 33 18 13 2 37 25 61 60 37 53 40 66 50
158 7 71 14 100 23 100 9 0 11 -8 7 -25z m967 10 c57 -6 73 -20 62 -52 -6 -18
-23 -16 -23 1 0 21 -20 30 -33 17 -9 -9 -16 -6 -28 10 -15 21 -19 21 -49 9
-26 -11 -33 -11 -40 0 -5 8 -17 11 -31 7 -23 -6 -23 -6 -4 9 13 9 33 13 55 10
19 -3 60 -8 91 -11z m-251 -6 c0 -7 -5 -41 -12 -76 -8 -45 -17 -67 -31 -74
-16 -9 -17 -8 -9 8 5 10 15 48 23 86 7 37 16 67 21 67 4 0 8 -5 8 -11z m-1054
-26 c37 -31 42 -44 19 -63 -21 -18 -19 -29 10 -40 30 -11 30 -18 4 -49 -19
-23 -20 -23 -39 -6 -28 25 -50 12 -50 -29 0 -38 16 -48 70 -44 55 4 80 -2 80
-19 0 -18 -47 -73 -63 -73 -5 0 -23 -6 -40 -14 -37 -15 -120 -36 -125 -31 -10
9 12 25 34 25 25 0 33 15 12 23 -7 3 3 6 21 6 27 1 32 4 23 13 -9 9 -22 9 -59
0 -26 -7 -53 -18 -61 -24 -17 -15 -110 -20 -118 -7 -3 6 0 17 8 26 12 15 11
15 -9 5 -12 -7 -23 -17 -25 -24 -3 -9 -6 -9 -11 -1 -4 6 0 19 9 27 8 9 11 16
6 16 -5 0 -17 -9 -28 -21 -18 -20 -18 -22 -2 -33 24 -18 12 -26 -36 -25 -23 0
-35 3 -28 6 6 2 12 9 12 14 0 4 -6 6 -14 3 -8 -3 -17 0 -22 7 -5 9 1 11 24 6
28 -6 34 -3 47 23 13 24 22 30 49 30 25 0 38 7 50 25 16 25 61 35 68 15 5 -17
78 1 78 19 1 14 2 14 11 -2 15 -25 29 -11 29 29 0 27 -5 37 -25 46 -25 11 -33
32 -15 43 5 3 7 12 3 20 -3 8 0 15 6 15 6 0 11 12 11 26 0 34 17 64 36 64 8 0
31 -12 50 -27z m1004 8 c-5 -11 -10 -31 -10 -46 0 -15 -4 -24 -10 -20 -21 13
-3 85 21 85 6 0 6 -7 -1 -19z m69 -45 c-9 -8 -10 -5 -5 14 3 14 6 32 7 40 1 8
4 2 6 -14 3 -16 -1 -34 -8 -40z m38 27 c-3 -10 -5 -4 -5 12 0 17 2 24 5 18 2
-7 2 -21 0 -30z m-1224 -10 c-3 -10 -10 -23 -14 -28 -4 -6 -7 -32 -6 -58 2
-38 -1 -47 -15 -47 -10 0 -22 10 -29 22 -10 18 -8 24 10 37 15 11 20 23 15 34
-3 9 -2 17 4 17 5 0 12 9 15 20 3 11 10 20 16 20 6 0 8 -8 4 -17z m821 -46
c12 -34 -1 -48 -20 -22 -9 13 -25 19 -42 18 -15 -1 -19 1 -9 3 14 5 16 9 6 20
-13 16 -39 19 -39 3 0 -16 -17 -2 -22 19 -5 18 -3 18 56 3 50 -14 62 -21 70
-44z m-295 46 c-1 -16 -18 -48 -18 -36 -1 6 -4 18 -7 27 -4 11 -1 16 10 16 9
0 16 -3 15 -7z m816 -3 c-11 -17 5 -32 21 -20 9 8 31 10 64 5 51 -7 51 -7 44
-39 -3 -17 -12 -34 -18 -38 -16 -11 -54 -10 -77 3 -20 10 -20 11 -3 24 15 11
20 10 30 -3 10 -14 13 -13 23 6 7 13 9 27 6 32 -8 13 -38 13 -52 -1 -10 -10
-56 -14 -118 -10 -27 1 -28 3 -11 12 15 9 16 13 5 21 -10 7 -6 8 13 4 15 -3
30 -2 33 4 3 5 15 10 26 10 11 0 17 -4 14 -10z m-780 -9 c3 -5 1 -13 -5 -16
-7 -4 -8 -30 -4 -68 5 -50 2 -73 -16 -119 -12 -32 -25 -60 -30 -63 -9 -5 -6
12 16 89 8 27 14 80 14 118 0 62 9 84 25 59z m1109 -8 c-12 -37 -68 -163 -71
-160 -5 6 38 151 49 164 15 19 28 16 22 -4z m-1334 -43 c-16 -31 -23 -18 -8
15 7 15 14 23 16 17 2 -6 -2 -21 -8 -32z m65 -19 c-9 -65 -24 -76 -18 -13 5
56 11 77 19 69 3 -3 3 -29 -1 -56z m808 31 c-3 -15 -13 -22 -27 -21 -15 1 -16
3 -5 6 10 2 19 14 23 26 3 11 7 19 10 16 3 -3 3 -15 -1 -27z m-626 -4 c-3 -8
-6 -5 -6 6 -1 11 2 17 5 13 3 -3 4 -12 1 -19z m-307 0 c-1 -22 -39 -98 -49
-98 -22 0 -23 24 -3 38 12 8 22 24 22 37 0 12 3 25 7 28 10 11 23 8 23 -5z
m16 -35 c-8 -15 -15 -25 -16 -21 0 12 23 58 27 54 3 -2 -2 -17 -11 -33z m789
-18 c-8 -22 -14 -32 -15 -23 0 17 21 70 26 65 2 -1 -3 -21 -11 -42z m230 35
c4 -6 -5 -10 -20 -10 -15 0 -24 4 -20 10 3 6 12 10 20 10 8 0 17 -4 20 -10z
m-958 -122 c-20 -31 -35 -42 -57 -43 -14 -1 -14 5 2 53 10 30 18 61 18 68 0 7
5 16 12 20 11 7 9 -15 -8 -75 -5 -16 -4 -22 3 -18 6 4 17 31 24 59 l14 53 5
-45 c4 -34 1 -52 -13 -72z m865 82 c-12 -12 -22 -28 -21 -38 0 -12 3 -11 9 6
9 22 63 52 94 52 9 0 30 -9 48 -21 34 -22 29 -22 -37 -4 -33 10 -65 -28 -58
-69 6 -38 -9 -55 -33 -35 -20 16 -37 -1 -32 -32 2 -17 13 -27 35 -34 42 -14
51 -24 33 -35 -24 -15 -39 -12 -65 15 -27 26 -34 82 -13 103 9 9 9 12 0 12
-30 0 -42 -73 -17 -106 8 -10 15 -27 15 -36 0 -10 7 -18 15 -18 8 0 15 -7 15
-16 0 -13 -7 -15 -32 -10 -42 8 -56 21 -69 67 -10 32 -9 43 8 78 11 22 16 42
12 43 -14 5 78 98 97 98 16 0 15 -2 -4 -20z m-1012 -77 c0 -2 -4 -3 -10 -3 -5
0 -10 7 -10 15 0 8 -9 15 -20 15 -20 0 -20 1 -3 24 l18 23 12 -36 c7 -20 13
-37 13 -38z m934 52 c-9 -14 -20 -25 -24 -25 -4 0 -15 -17 -23 -37 -13 -30
-16 -33 -16 -15 -1 29 24 78 46 91 29 17 34 12 17 -14z m-1124 -5 c0 -5 -4
-10 -10 -10 -5 0 -10 5 -10 10 0 6 5 10 10 10 6 0 10 -4 10 -10z m1030 3 c0
-5 -4 -15 -10 -23 -11 -18 -25 -7 -17 15 6 15 27 21 27 8z m-273 -35 c-3 -8
-6 -5 -6 6 -1 11 2 17 5 13 3 -3 4 -12 1 -19z m287 0 c-3 -13 -13 -27 -20 -31
-8 -4 -14 -15 -14 -22 0 -17 -16 -20 -25 -5 -3 6 0 10 7 10 8 0 6 5 -4 11 -28
16 -21 29 11 23 23 -5 30 -2 36 15 3 12 9 21 11 21 3 0 2 -10 -2 -22z m-924
-2 c0 -9 -8 -12 -25 -8 -14 2 -25 8 -25 13 0 5 11 9 25 9 14 0 25 -6 25 -14z
m345 -46 c-23 -44 -29 -32 -9 16 9 21 19 34 21 27 2 -6 -3 -26 -12 -43z m1299
34 c3 -8 2 -12 -4 -9 -6 3 -10 10 -10 16 0 14 7 11 14 -7z m-1539 -34 c-4 -12
-9 -19 -12 -17 -3 3 -2 15 2 27 4 12 9 19 12 17 3 -3 2 -15 -2 -27z m1575 20
c0 -5 -5 -10 -11 -10 -5 0 -7 5 -4 10 3 6 8 10 11 10 2 0 4 -4 4 -10z m-1060
-41 c0 -4 -4 -10 -9 -13 -14 -9 -34 22 -26 41 6 17 7 17 21 -1 8 -11 14 -23
14 -27z m1010 27 c0 -3 -4 -8 -10 -11 -5 -3 -10 -1 -10 4 0 6 5 11 10 11 6 0
10 -2 10 -4z m-1053 -59 c-6 -19 -22 -6 -25 20 -2 27 -2 27 13 8 8 -10 14 -23
12 -28z m355 -27 c17 -21 18 -25 4 -28 -8 -2 -24 2 -35 8 -17 8 -19 15 -11 35
5 14 7 25 4 25 -3 0 -2 6 3 13 5 8 9 6 11 -8 3 -11 13 -31 24 -45z m758 50 c0
-5 -4 -10 -10 -10 -5 0 -10 5 -10 10 0 6 5 10 10 10 6 0 10 -4 10 -10z m-1443
-44 c-19 -29 -81 -41 -109 -22 -17 12 -15 14 23 19 23 3 54 14 68 25 30 23 39
11 18 -22z m390 -3 c-3 -10 -5 -2 -5 17 0 19 2 27 5 18 2 -10 2 -26 0 -35z
m243 43 c0 -15 -14 -35 -21 -30 -15 9 -10 34 6 34 8 0 15 -2 15 -4z m-800 -9
c0 -2 -10 -12 -21 -23 -22 -19 -22 -19 -10 4 10 18 31 31 31 19z m1605 -17 c4
-6 -7 -10 -27 -10 -25 0 -29 3 -18 10 19 13 37 13 45 0z m-1075 -27 c0 -20 -3
-24 -11 -16 -7 7 -9 19 -6 27 10 24 17 19 17 -11z m250 -27 c-15 -15 -34 9
-26 31 7 17 8 17 22 -1 9 -13 11 -23 4 -30z m825 24 c3 -6 -1 -7 -9 -4 -9 3
-16 2 -16 -4 0 -5 7 -12 15 -16 11 -4 15 -22 15 -76 l0 -72 -67 7 c-38 4 -72
11 -77 16 -15 13 14 39 43 38 25 -1 25 -2 -4 -9 -24 -5 -27 -8 -13 -14 20 -9
68 4 68 19 0 6 -23 10 -51 10 -41 0 -54 -4 -63 -20 -15 -28 -27 -35 -58 -35
-33 0 -37 -17 -6 -29 20 -7 18 -8 -13 -15 -32 -7 -33 -8 -15 -21 11 -8 27 -15
35 -15 12 0 11 -3 -3 -13 -11 -8 -15 -19 -10 -30 9 -24 22 -21 26 5 2 13 10
24 19 26 13 2 17 -11 23 -74 3 -43 4 -79 2 -82 -3 -2 -447 -5 -988 -7 -913 -4
-1003 -1 -769 19 54 5 83 16 43 16 -12 0 -22 3 -22 8 0 4 64 9 142 11 79 1
148 7 153 11 6 5 33 11 60 13 28 2 19 2 -20 0 -88 -5 -191 -9 -277 -11 -44 -1
-72 -7 -82 -17 -16 -17 -110 -32 -168 -27 -36 3 -36 4 -43 53 -4 30 -3 55 3
61 5 5 36 14 68 19 69 12 139 20 107 13 -13 -3 -23 -10 -23 -15 0 -5 -6 -9
-14 -9 -8 0 -18 -5 -21 -10 -10 -17 42 -11 60 6 12 13 32 15 95 12 44 -2 80 0
80 4 0 5 -10 8 -22 9 -21 1 -20 2 5 11 15 5 35 7 45 3 16 -6 16 -7 -1 -16 -26
-15 -21 -35 13 -49 28 -12 79 -10 180 4 134 20 181 22 192 9 13 -16 101 -17
131 -1 23 12 46 37 47 51 0 15 -18 6 -47 -22 -23 -22 -40 -29 -72 -29 -22 0
-41 2 -41 5 0 15 49 42 78 43 17 0 32 4 32 10 0 34 -158 43 -199 11 -14 -10
-32 -16 -40 -13 -12 3 -13 2 -6 -6 8 -9 19 -9 43 0 18 7 32 16 32 20 0 11 122
10 140 -2 11 -7 6 -10 -22 -10 -20 0 -40 -4 -43 -10 -3 -5 -16 -10 -29 -10
-12 0 -26 -4 -31 -9 -14 -12 -254 -33 -293 -25 -38 8 -50 22 -26 31 15 6 15 7
-2 21 -17 13 -14 14 33 8 67 -8 103 0 103 25 0 23 13 25 30 4 16 -20 36 -19
44 1 6 16 8 16 24 0 19 -16 53 -22 51 -8 -4 22 5 30 44 41 23 7 52 17 65 22
36 14 42 11 42 -21 0 -19 5 -30 14 -30 7 0 34 -11 61 -25 39 -21 50 -23 63
-13 12 10 16 10 19 1 8 -24 31 -13 70 31 l40 45 63 -4 c35 -2 68 -9 74 -15 5
-5 23 -10 38 -10 39 0 98 -32 127 -69 21 -28 27 -30 64 -26 57 7 59 15 4 15
-40 0 -48 4 -63 30 -10 16 -33 37 -51 45 -18 9 -33 17 -33 19 0 6 55 -7 66
-16 7 -4 36 -6 66 -2 36 4 75 1 117 -10 78 -20 99 -20 46 1 -22 8 -78 17 -125
19 -47 2 -103 8 -125 13 -22 6 -50 8 -63 4 -12 -3 -51 1 -87 8 -54 11 -62 14
-47 24 30 20 62 25 62 8 0 -8 5 -11 10 -8 6 3 10 15 10 26 0 20 10 23 48 12
15 -3 19 -8 12 -13 -23 -14 114 -42 239 -47 109 -5 129 -4 143 11 9 9 22 16
29 16 7 0 21 7 31 17 17 15 18 15 18 -1 0 -22 30 -33 41 -15 7 11 11 11 17 2
10 -16 85 -5 79 12 -3 6 11 20 30 30 48 26 76 52 69 64 -6 9 14 14 76 19 9 1
20 -2 23 -8z m-1645 -9 c0 -5 -6 -14 -14 -20 -11 -9 -16 -9 -21 0 -4 6 -1 15
6 20 18 11 29 11 29 0z m-60 -11 c0 -5 -5 -10 -11 -10 -5 0 -7 5 -4 10 3 6 8
10 11 10 2 0 4 -4 4 -10z m120 1 c0 -5 11 -12 25 -15 42 -11 18 -26 -41 -26
-58 0 -67 10 -32 34 25 18 48 21 48 7z m-390 -15 c-48 -13 -64 -11 -40 4 8 6
31 9 50 9 35 -1 35 -1 -10 -13z m1220 -2 c0 -2 -9 -4 -20 -4 -11 0 -20 4 -20
9 0 5 9 7 20 4 11 -3 20 -7 20 -9z m-915 -28 l30 -17 -42 6 c-23 4 -85 1 -138
-5 -90 -12 -94 -13 -69 -26 14 -8 37 -14 50 -14 13 0 24 -4 24 -8 0 -5 -55
-12 -122 -15 -92 -5 -126 -11 -134 -22 -12 -16 -39 -21 -29 -5 3 6 0 10 -8 10
-15 0 -29 34 -19 44 3 3 26 7 51 7 l46 2 -40 7 c-40 7 -40 7 14 9 68 1 58 14
-17 22 l-57 6 61 2 c34 0 75 6 93 12 24 9 43 8 77 -1 33 -10 51 -10 67 -2 47
24 106 19 162 -12z m570 24 c-3 -5 -15 -10 -26 -10 -10 0 -19 5 -19 10 0 6 12
10 26 10 14 0 23 -4 19 -10z m323 -11 c26 -6 61 -17 79 -25 54 -24 103 -16
103 18 0 17 3 18 14 9 10 -8 16 -9 21 -1 3 5 10 10 16 10 12 0 12 -30 -1 -31
-5 -1 -14 -2 -19 -3 -5 0 -13 -5 -18 -9 -4 -5 5 -7 21 -5 16 1 31 -2 33 -7 5
-17 -156 -6 -239 17 -43 11 -75 25 -72 29 7 11 6 11 62 -2z m387 -27 c1 -14
-5 -26 -14 -30 -9 -3 -21 -12 -27 -20 -9 -13 -32 -14 -139 -8 -70 3 -134 10
-141 14 -7 4 34 6 93 4 95 -4 108 -2 120 14 8 10 19 19 26 20 7 0 22 2 34 2
16 2 21 6 16 18 -4 12 -1 15 12 13 11 -3 19 -14 20 -27z m-1135 12 c0 -3 -11
-19 -25 -35 -13 -16 -22 -36 -19 -44 4 -8 2 -15 -4 -15 -5 0 -13 10 -17 23 -6
19 -8 19 -12 5 -3 -14 -15 -18 -45 -18 -25 0 -49 -7 -61 -17 -16 -15 -47 -19
-181 -25 -88 -3 -178 -9 -198 -13 -23 -4 -38 -3 -38 3 0 5 21 13 48 17 26 4
53 12 60 17 7 6 59 14 115 17 56 4 108 10 115 15 20 12 4 26 -31 27 -29 1 -28
2 13 12 53 12 202 10 211 -4 3 -5 15 2 27 16 20 23 42 33 42 19z m-85 -104 c7
-12 -22 -12 -50 0 -17 7 -15 9 12 9 17 1 35 -3 38 -9z m97 -12 c-7 -7 -12 -8
-12 -2 0 14 12 26 19 19 2 -3 -1 -11 -7 -17z m1341 5 c-7 -2 -21 -2 -30 0 -10
3 -4 5 12 5 17 0 24 -2 18 -5z m-1444 -19 c56 -12 -2 -17 -196 -18 -178 -1
-212 -4 -238 -18 -37 -22 -75 -23 -75 -3 0 11 11 15 39 15 22 0 43 5 46 10 4
6 68 10 158 10 84 0 159 4 167 9 13 9 36 8 99 -5z m1621 -4 c0 -11 -4 -20 -10
-20 -5 0 -10 5 -10 10 0 6 -28 11 -62 11 -50 1 -57 3 -33 9 17 4 49 8 73 9 36
1 42 -2 42 -19z m-180 -20 c0 -13 -20 -13 -40 0 -12 8 -9 10 13 10 15 0 27 -4
27 -10z m160 -20 c0 -6 -27 -9 -62 -9 -54 1 -58 3 -28 9 53 11 90 11 90 0z
m13 -95 l-1 -70 -65 -3 -65 -3 -4 53 c-7 97 -5 99 70 96 l66 -3 -1 -70z m-2
-225 c-1 -68 -4 -126 -5 -128 -5 -4 -111 -7 -171 -4 -27 2 -68 0 -90 -2 -43
-6 -1857 -29 -1859 -24 0 2 0 65 2 140 l3 138 637 2 c350 2 828 3 1061 3 l423
0 -1 -125z"/>
<path d="M963 3789 c17 -10 47 -70 47 -95 0 -8 -7 -14 -15 -14 -8 0 -15 -5
-15 -11 0 -9 22 -10 77 -5 42 3 108 6 146 6 39 0 67 3 63 8 -4 4 -12 7 -17 7
-5 0 -9 3 -9 8 0 4 0 25 0 47 0 33 3 40 20 40 11 0 20 4 20 9 0 4 -75 9 -167
9 -122 2 -163 -1 -150 -9z m87 -8 c0 -5 -5 -22 -11 -38 -10 -26 -12 -27 -19
-8 -15 35 -11 55 10 55 11 0 20 -4 20 -9z m70 -52 l0 -49 -35 0 c-39 0 -40 5
-24 61 11 35 32 52 52 42 4 -2 7 -26 7 -54z m50 7 c0 -25 -4 -47 -9 -50 -10
-6 -24 71 -16 85 14 22 25 6 25 -35z m45 -6 c0 -26 -5 -45 -12 -47 -9 -3 -13
10 -13 47 0 37 4 50 13 48 7 -3 12 -22 12 -48z"/>
<path d="M434 3305 c-18 -13 -41 -44 -52 -68 -19 -40 -23 -43 -51 -39 -65 9
-171 -55 -171 -104 0 -32 42 -74 73 -74 36 0 88 40 122 93 27 42 34 47 68 47
102 0 182 86 135 145 -26 34 -81 34 -124 0z m94 -7 c16 -16 15 -60 0 -80 -24
-29 -119 -50 -132 -29 -10 15 22 78 50 100 30 23 64 27 82 9z m-179 -144 c10
-9 -26 -58 -59 -80 -55 -38 -100 -28 -100 21 0 42 66 78 125 67 17 -3 32 -6
34 -8z"/>
<path d="M475 3100 c3 -5 8 -10 11 -10 2 0 4 5 4 10 0 6 -5 10 -11 10 -5 0 -7
-4 -4 -10z"/>
<path d="M420 3060 c0 -5 5 -10 11 -10 5 0 7 5 4 10 -3 6 -8 10 -11 10 -2 0
-4 -4 -4 -10z"/>
<path d="M575 1260 c-3 -5 1 -10 9 -10 9 0 16 5 16 10 0 6 -4 10 -9 10 -6 0
-13 -4 -16 -10z"/>
<path d="M620 1170 c0 -5 4 -10 9 -10 6 0 13 5 16 10 3 6 -1 10 -9 10 -9 0
-16 -4 -16 -10z"/>
<path d="M602 2834 c-12 -8 -22 -19 -22 -25 0 -5 9 0 20 11 23 23 40 26 40 6
0 -16 -24 -38 -34 -31 -3 3 -1 -1 5 -8 8 -9 14 -8 25 8 29 39 5 67 -34 39z"/>
<path d="M820 2585 c0 -20 22 -65 32 -65 11 0 10 2 -7 44 -16 38 -25 46 -25
21z"/>
<path d="M870 2469 c0 -21 61 -99 78 -99 8 0 -2 19 -24 48 -55 69 -54 68 -54
51z"/>
<path d="M880 1963 c8 -3 23 -12 33 -21 10 -9 17 -11 17 -4 0 13 -32 32 -52
31 -9 0 -8 -2 2 -6z"/>
<path d="M768 1953 c7 -3 16 -2 19 1 4 3 -2 6 -13 5 -11 0 -14 -3 -6 -6z"/>
<path d="M965 1831 c-3 -5 4 -12 15 -16 11 -4 20 -15 20 -27 0 -19 -1 -19 -20
3 l-20 24 12 -28 c14 -33 42 -32 46 1 6 37 -36 70 -53 43z"/>
<path d="M2076 1135 c10 -8 28 -14 39 -14 20 0 20 0 1 14 -11 8 -29 15 -40 15
-20 0 -20 0 0 -15z"/>
<path d="M1284 945 c-9 -37 2 -41 14 -6 7 18 7 31 2 31 -5 0 -12 -11 -16 -25z"/>
<path d="M1296 898 c-18 -25 -22 -78 -6 -78 6 0 8 10 4 24 -3 15 1 34 11 50
21 32 12 35 -9 4z"/>
<path d="M60 990 c0 -5 7 -10 15 -10 8 0 15 5 15 10 0 6 -7 10 -15 10 -8 0
-15 -4 -15 -10z"/>
<path d="M120 980 c0 -5 7 -10 15 -10 8 0 15 5 15 10 0 6 -7 10 -15 10 -8 0
-15 -4 -15 -10z"/>
<path d="M165 981 c-9 -16 3 -31 26 -31 14 0 19 6 17 17 -4 20 -33 29 -43 14z"/>
<path d="M135 950 c-3 -5 -1 -10 4 -10 6 0 11 5 11 10 0 6 -2 10 -4 10 -3 0
-8 -4 -11 -10z"/>
<path d="M110 910 c0 -5 5 -10 10 -10 6 0 10 5 10 10 0 6 -4 10 -10 10 -5 0
-10 -4 -10 -10z"/>
<path d="M200 895 c0 -8 9 -15 20 -15 11 0 20 7 20 15 0 8 -9 15 -20 15 -11 0
-20 -7 -20 -15z"/>
<path d="M1217 520 c-16 -5 -35 -14 -43 -21 -16 -13 -19 -39 -4 -39 6 0 10 7
10 15 0 17 38 35 75 35 13 0 27 5 30 10 7 12 -28 12 -68 0z"/>
<path d="M1310 520 c0 -5 7 -7 15 -4 21 8 83 -15 94 -34 5 -9 13 -14 16 -10
11 11 -5 29 -41 44 -38 16 -84 18 -84 4z"/>
<path d="M1776 519 c27 -5 63 -5 78 -1 20 5 4 8 -50 8 -75 1 -76 1 -28 -7z"/>
<path d="M630 500 c-21 -7 -21 -8 -5 -9 11 0 27 4 35 9 18 11 5 11 -30 0z"/>
<path d="M500 491 c0 -7 22 -11 52 -11 62 0 60 5 -4 14 -32 5 -48 4 -48 -3z"/>
<path d="M1037 456 c-30 -32 -47 -36 -212 -45 -122 -7 -129 -8 -50 -9 50 0
125 3 168 7 64 7 83 13 106 35 15 14 31 26 37 26 5 0 1 -5 -8 -11 -10 -5 -18
-18 -18 -28 0 -34 -69 -44 -277 -43 -106 1 -194 -2 -197 -6 -5 -9 355 -8 459
2 109 10 125 14 125 31 0 19 -16 19 -24 0 -3 -9 -18 -15 -40 -15 -29 0 -34 3
-29 18 3 9 13 23 22 30 14 11 14 14 1 22 -24 15 -39 12 -63 -14z"/>
<path d="M210 640 c20 -13 33 -13 25 0 -3 6 -14 10 -23 10 -15 0 -15 -2 -2
-10z"/>
<path d="M153 633 c9 -2 23 -2 30 0 6 3 -1 5 -18 5 -16 0 -22 -2 -12 -5z"/>
<path d="M2045 461 c-6 -11 9 -23 19 -14 9 9 7 23 -3 23 -6 0 -12 -4 -16 -9z"/>
<path d="M1575 237 c9 -33 0 -46 -25 -40 -13 3 -20 14 -20 29 0 18 -5 24 -22
24 -22 0 -23 -3 -21 -72 1 -45 6 -73 12 -72 6 1 17 2 24 2 9 1 12 12 9 31 -3
20 1 30 13 35 24 9 35 -1 35 -34 0 -28 14 -41 38 -33 6 3 9 10 5 15 -3 6 -5
37 -4 70 1 32 -2 58 -8 58 -5 0 -17 3 -26 6 -13 5 -15 2 -10 -19z"/>
<path d="M697 243 c-4 -3 -2 -12 4 -20 7 -8 10 -37 7 -73 -4 -57 -3 -60 19
-60 20 0 23 5 23 39 0 54 13 58 34 11 16 -38 39 -55 57 -44 5 3 -2 20 -16 38
-30 39 -30 44 -8 69 17 18 17 19 -2 33 -19 14 -106 20 -118 7z m86 -27 c7 -16
-1 -26 -20 -26 -7 0 -13 9 -13 20 0 23 25 27 33 6z"/>
<path d="M873 244 c-8 -4 -8 -15 -1 -41 5 -20 7 -53 4 -73 l-6 -37 53 5 c50 4
77 15 65 27 -3 3 -17 0 -31 -6 -34 -16 -59 -5 -55 23 2 16 9 22 21 20 12 -2
17 4 17 18 0 17 -4 20 -21 15 -17 -6 -20 -3 -17 12 4 22 47 30 59 12 10 -17
23 -4 16 16 -6 15 -75 21 -104 9z"/>
<path d="M1010 241 c0 -6 5 -13 10 -16 14 -9 12 -99 -2 -113 -9 -9 -6 -12 14
-12 25 0 26 2 21 43 l-5 42 44 -42 c24 -24 47 -43 52 -43 4 0 5 26 1 59 -4 38
-3 61 4 65 6 4 11 11 11 17 0 12 -37 12 -45 -1 -3 -5 -1 -10 4 -10 6 0 11 -17
11 -37 l-1 -38 -42 45 c-39 42 -77 62 -77 41z"/>
<path d="M1220 243 c-8 -3 -23 -15 -32 -27 -40 -48 -8 -107 60 -111 41 -2 42
-2 42 31 0 30 -3 34 -26 34 -22 0 -24 -2 -14 -15 10 -12 9 -16 -5 -22 -22 -8
-45 20 -45 54 0 29 44 50 66 32 11 -9 14 -8 14 4 0 22 -28 31 -60 20z"/>
<path d="M1315 240 c-11 -17 5 -32 20 -20 8 7 19 9 25 5 13 -8 13 -105 0 -105
-5 0 -10 -4 -10 -10 0 -5 14 -10 30 -10 l30 0 -6 55 c-6 47 -4 56 12 62 10 4
19 2 22 -5 7 -22 22 -13 22 13 0 24 -2 25 -69 25 -39 0 -73 -4 -76 -10z"/>
<path d="M420 233 c-44 -6 -60 -19 -60 -49 0 -18 7 -25 28 -30 46 -10 53 -14
47 -24 -9 -15 -61 -12 -75 5 -17 20 -44 20 -36 -1 3 -9 6 -22 6 -30 0 -18 110
-20 128 -2 30 30 -3 88 -50 88 -10 0 -18 5 -18 10 0 6 11 10 24 10 14 0 28 -4
31 -10 11 -18 25 -10 25 15 0 14 -3 24 -7 23 -5 0 -24 -3 -43 -5z"/>
<path d="M510 214 c0 -26 0 -26 25 -10 14 9 29 15 33 12 13 -8 15 -106 2 -106
-5 0 -10 -4 -10 -8 0 -4 16 -8 35 -8 29 0 34 3 28 16 -11 23 -9 105 2 103 6
-1 18 -5 28 -8 13 -5 17 -2 17 14 0 20 -5 21 -80 21 -80 0 -80 0 -80 -26z"/>
<path d="M1685 119 c-4 -6 -5 -13 -2 -16 7 -7 27 6 27 18 0 12 -17 12 -25 -2z"/>
</g>
</svg>
