<?xml version="1.0" standalone="no"?>
<!DOCTYPE svg PUBLIC "-//W3C//DTD SVG 20010904//EN"
 "http://www.w3.org/TR/2001/REC-SVG-20010904/DTD/svg10.dtd">
<svg version="1.0" xmlns="http://www.w3.org/2000/svg"
 width="221.000000pt" height="382.000000pt" viewBox="0 0 221.000000 382.000000"
 preserveAspectRatio="xMidYMid meet">
<metadata>
Created by potrace 1.16, written by Peter Selinger 2001-2019
</metadata>
<g transform="translate(0.000000,382.000000) scale(0.100000,-0.100000)"
fill="#000000" stroke="none">
<path d="M1347 3803 c-1 -1 -292 -4 -646 -7 -444 -4 -647 -9 -657 -17 -10 -8
-13 -113 -13 -537 -1 -290 -3 -657 -6 -817 -2 -159 -7 -695 -10 -1190 -3 -495
-8 -970 -11 -1056 -6 -141 -5 -157 11 -162 24 -10 2147 -9 2156 0 18 19 33
3762 16 3780 -7 6 -834 13 -840 6z m803 -33 c13 -8 15 -105 15 -772 0 -420 -3
-963 -7 -1208 -4 -245 -4 -483 0 -530 4 -47 4 -107 1 -135 -9 -67 -10 -178 -5
-432 5 -243 9 -235 -79 -183 -61 36 -85 37 -122 6 -36 -30 -98 -28 -190 6
l-62 23 -23 -22 c-21 -19 -49 -27 -88 -24 -12 1 -15 21 -16 108 -1 60 -7 419
-14 798 -6 380 -11 697 -11 705 0 8 3 213 7 454 3 242 9 448 13 459 12 33 -8
128 -37 172 -42 65 -100 105 -152 105 -37 0 -48 5 -80 40 -52 57 -65 86 -65
149 l0 56 -65 -2 c-154 -3 -208 -17 -277 -69 -18 -14 -33 -22 -33 -19 0 3 -9
1 -19 -5 -16 -8 -20 -6 -23 11 -4 30 -33 47 -55 33 -25 -15 -28 -110 -8 -215
21 -112 20 -116 -16 -80 -17 17 -34 31 -38 31 -4 0 -21 19 -38 43 -136 185
-147 197 -190 197 -19 0 -46 6 -61 14 -67 34 -158 27 -207 -16 -30 -26 -23
-43 9 -22 23 14 24 14 22 -11 -1 -23 -4 -26 -29 -21 l-28 6 28 -40 c15 -22 33
-40 40 -40 21 0 25 -21 9 -39 -9 -10 -16 -25 -14 -32 2 -8 -7 -15 -22 -17 -30
-4 -120 -96 -120 -123 0 -11 11 -28 24 -40 23 -20 24 -25 22 -140 -1 -65 -6
-122 -11 -126 -4 -5 -5 0 -2 10 9 25 -5 20 -26 -8 -14 -20 -15 -24 -2 -19 11
5 15 -1 16 -22 l2 -29 4 28 c6 38 21 34 19 -5 -1 -29 3 -34 39 -46 47 -16 178
-8 211 13 18 12 20 21 17 111 -1 55 -3 99 -4 99 0 0 -3 24 -4 54 -3 47 -1 56
23 76 23 20 25 26 15 46 -17 39 -91 116 -115 122 -19 5 -23 13 -23 43 0 27 5
38 16 39 9 2 30 6 46 9 28 7 30 5 26 -18 -3 -16 2 -31 15 -44 12 -12 26 -40
32 -63 6 -23 15 -49 20 -58 27 -54 34 -82 35 -136 2 -288 5 -326 22 -332 28
-10 43 -36 38 -60 -3 -14 1 -25 10 -31 13 -7 14 -17 6 -58 -6 -27 -9 -73 -8
-103 l2 -53 59 -19 c64 -19 72 -18 87 15 6 14 8 3 3 -39 -3 -33 -9 -170 -13
-305 -6 -229 -6 -246 11 -259 10 -7 18 -22 18 -32 0 -9 6 -24 13 -31 10 -9 17
-79 26 -243 7 -127 17 -242 22 -257 11 -28 39 -41 60 -27 26 16 38 9 48 -28
10 -39 36 -681 28 -690 -13 -12 -108 32 -142 67 -31 32 -42 37 -57 29 -10 -5
-18 -15 -18 -21 0 -19 -62 -78 -81 -78 -9 0 -43 -14 -75 -31 -49 -25 -66 -29
-99 -24 -22 4 -71 8 -110 9 -42 1 -86 9 -109 19 -59 26 -82 30 -97 15 -14 -13
-77 -38 -96 -38 -11 0 -11 11 2 560 3 140 6 599 6 1020 0 567 4 769 12 779 9
12 9 13 0 7 -10 -5 -13 15 -13 88 0 92 1 96 23 97 21 2 21 2 -2 6 l-24 5 7
366 c4 202 9 376 12 387 6 23 -61 22 1118 30 413 3 752 8 755 10 9 9 196 5
211 -5z m-972 -250 c17 0 32 -4 32 -10 0 -5 -9 -10 -20 -10 -11 0 -20 -4 -20
-10 0 -5 -17 -10 -37 -11 l-38 -1 35 -16 c26 -12 31 -16 17 -20 -10 -2 -32 1
-49 7 -17 6 -45 11 -62 11 -29 -1 -30 -1 -12 -15 11 -8 30 -15 43 -15 25 0 88
-28 80 -36 -2 -3 -39 7 -82 21 -43 14 -97 25 -121 25 -24 0 -44 4 -44 8 0 18
102 64 139 64 20 0 43 4 51 9 8 5 24 7 35 4 11 -2 35 -5 53 -5z m-863 -39 c-6
-5 -19 -12 -30 -15 -19 -5 11 -1 65 10 15 3 43 -4 70 -18 41 -21 45 -26 43
-57 -2 -45 -19 -61 -37 -36 -12 17 -18 18 -40 7 -30 -13 -70 -2 -79 22 -7 19
12 26 38 14 24 -11 80 7 70 22 -4 6 -15 6 -32 -1 -14 -5 -35 -6 -47 -3 -20 7
-45 11 -74 13 -26 2 -7 36 23 42 17 4 32 7 35 8 2 0 0 -3 -5 -8z m489 -54 c7
-50 26 -264 26 -289 0 -10 -7 -18 -15 -18 -11 0 -14 7 -11 25 3 13 0 28 -6 31
-6 4 -5 10 3 15 12 7 12 9 0 9 -7 0 -11 6 -7 15 3 8 0 15 -7 15 -7 0 -3 7 7
15 16 12 17 15 4 15 -21 0 -42 78 -26 97 7 9 7 13 -1 13 -6 0 -11 5 -11 11 0
5 5 7 11 3 8 -5 9 -2 1 12 -6 11 -7 27 -1 41 5 14 5 23 -1 23 -6 0 -10 7 -10
15 0 12 4 14 19 5 13 -6 22 -25 25 -53z m218 -22 c62 -17 75 -28 28 -25 -49 4
-70 1 -70 -8 0 -4 18 -7 40 -5 24 1 45 -4 54 -13 19 -18 26 -18 26 2 0 8 5 12
10 9 6 -3 10 -17 10 -30 0 -23 0 -23 -47 -8 -46 14 -78 13 -201 -4 l-43 -5 3
57 3 57 68 -7 c38 -4 91 -13 119 -20z m-531 -22 c-12 -20 -14 -14 -5 12 4 9 9
14 11 11 3 -2 0 -13 -6 -23z m744 17 c3 -5 1 -10 -4 -10 -6 0 -11 5 -11 10 0
6 2 10 4 10 3 0 8 -4 11 -10z m-23 -45 c-6 -13 -11 -14 -17 -6 -5 9 -12 7 -28
-6 -20 -18 -20 -18 -14 7 4 14 7 29 7 33 0 5 4 6 9 2 5 -3 13 0 16 6 13 19 39
-16 27 -36z m-918 2 c4 4 4 0 1 -10 -6 -14 -9 -14 -21 -2 -8 7 -14 22 -14 32
1 15 3 14 13 -5 7 -12 16 -19 21 -15z m221 -41 c-2 -19 -8 -43 -14 -54 -14
-27 -14 -32 3 -32 8 0 14 -6 13 -12 -1 -34 4 -48 18 -48 11 0 15 -12 15 -44 0
-24 3 -52 7 -62 4 -12 2 -15 -8 -12 -20 7 -57 78 -58 113 -1 17 -10 38 -21 48
-21 18 -27 47 -9 47 5 0 7 -4 4 -10 -3 -5 -1 -10 4 -10 11 0 15 19 13 53 -1 9
3 17 8 17 6 0 10 12 10 26 0 14 4 23 9 20 5 -3 8 -21 6 -40z m769 -7 c-3 -5
-16 -2 -29 7 -14 9 -22 20 -19 25 3 5 16 2 29 -7 14 -9 22 -20 19 -25z m-814
27 c0 -3 -4 -8 -10 -11 -5 -3 -10 -1 -10 4 0 6 5 11 10 11 6 0 10 -2 10 -4z
m602 -26 c13 -6 41 -21 62 -34 28 -17 48 -23 71 -19 19 3 35 0 39 -6 4 -7 1
-9 -7 -5 -8 3 -18 1 -21 -4 -3 -6 22 -19 56 -29 48 -15 63 -23 61 -37 -1 -12
4 -15 15 -11 40 17 54 15 22 -2 -19 -10 -38 -14 -41 -9 -10 13 -30 -3 -27 -22
2 -11 -5 -16 -22 -16 -18 -1 -29 8 -41 32 -22 42 -44 59 -164 122 -55 29 -102
55 -105 58 -8 8 77 -7 102 -18z m-482 -20 c6 -11 8 -20 6 -20 -3 0 -10 9 -16
20 -6 11 -8 20 -6 20 3 0 10 -9 16 -20z m400 3 c25 -9 52 -22 60 -28 8 -7 32
-18 52 -24 37 -12 55 -27 45 -38 -3 -3 -16 2 -29 11 -25 18 -48 21 -48 6 0 -5
10 -10 22 -10 12 0 30 -7 40 -17 22 -19 25 -41 3 -23 -8 7 -15 9 -15 5 0 -4
-7 -2 -15 5 -13 11 -14 10 -9 -5 7 -17 6 -17 -19 0 -14 9 -31 14 -37 10 -6 -4
-10 6 -10 25 0 22 -6 33 -22 40 -14 5 -17 9 -8 10 13 0 13 1 0 10 -20 13 -33
13 -25 0 3 -6 -1 -7 -10 -3 -12 4 -13 8 -5 13 6 4 -11 5 -39 2 -37 -3 -51 -1
-51 8 0 7 8 10 20 7 11 -3 20 -1 20 4 0 14 29 11 80 -8z m-525 -3 c-3 -5 -13
-10 -21 -10 -8 0 -14 5 -14 10 0 6 9 10 21 10 11 0 17 -4 14 -10z m738 3 c-7
-2 -21 -2 -30 0 -10 3 -4 5 12 5 17 0 24 -2 18 -5z m-244 -37 c7 -8 23 -17 36
-20 16 -4 22 -11 19 -21 -4 -8 -1 -22 6 -30 6 -8 9 -18 6 -24 -3 -5 1 -11 8
-14 9 -4 17 1 19 11 3 12 5 10 6 -6 0 -13 7 -22 14 -21 6 1 20 -1 30 -6 14 -6
15 -10 6 -22 -10 -11 -14 -11 -20 -1 -4 7 -11 9 -16 5 -4 -5 -1 -12 6 -16 7
-5 10 -14 6 -20 -4 -7 0 -23 9 -36 20 -31 20 -41 1 -25 -8 7 -15 19 -15 26 0
8 -4 14 -10 14 -14 0 -13 -23 2 -38 9 -9 9 -12 0 -12 -7 0 -12 5 -12 11 0 5
-4 8 -9 5 -4 -3 -16 3 -26 14 -11 13 -14 20 -6 20 7 0 9 5 6 10 -13 20 -27 10
-21 -15 4 -14 3 -25 -1 -26 -5 0 -18 -2 -31 -3 -14 -2 -27 4 -33 16 -11 21 9
26 29 6 16 -16 15 -7 -3 29 -8 16 -13 44 -10 61 2 18 -1 32 -6 32 -5 0 -9 -7
-9 -15 0 -25 -17 -17 -30 15 -7 17 -26 45 -41 61 -16 17 -29 35 -29 40 0 15
106 11 119 -5z m321 4 c0 -5 -2 -10 -4 -10 -3 0 -8 5 -11 10 -3 6 -1 10 4 10
6 0 11 -4 11 -10z m-990 -10 c0 -5 -7 -10 -15 -10 -8 0 -15 5 -15 10 0 6 7 10
15 10 8 0 15 -4 15 -10z m325 -20 c3 -5 1 -10 -4 -10 -6 0 -11 5 -11 10 0 6 2
10 4 10 3 0 8 -4 11 -10z m835 -20 c0 -5 -4 -10 -9 -10 -6 0 -13 5 -16 10 -3
6 1 10 9 10 9 0 16 -4 16 -10z m-1200 -19 c0 -8 -101 -23 -108 -16 -4 3 71 22
96 24 6 1 12 -3 12 -8z m99 -7 c2 -2 -14 -4 -37 -4 -23 0 -42 4 -42 9 0 9 69
4 79 -5z m48 -10 c-3 -3 -12 -4 -19 -1 -8 3 -5 6 6 6 11 1 17 -2 13 -5z m1113
-16 c0 -19 -2 -20 -10 -8 -13 19 -13 30 0 30 6 0 10 -10 10 -22z m-609 -46
c-17 -6 -61 26 -61 44 0 11 9 8 36 -13 20 -15 31 -29 25 -31z m585 15 c17 -23
35 -55 40 -72 6 -19 7 -156 1 -375 -4 -190 -8 -539 -8 -777 1 -379 -1 -432
-14 -427 -17 7 -20 -11 -4 -22 8 -4 7 -9 -2 -15 -8 -5 -20 -2 -29 6 -14 12
-56 19 -103 16 -28 -2 -9 -21 21 -21 43 0 72 -11 72 -27 0 -8 5 -11 10 -8 5 3
10 -1 10 -9 0 -9 -6 -16 -13 -16 -7 0 -14 -14 -15 -31 -2 -24 1 -30 12 -26 9
4 18 2 21 -3 4 -6 -7 -10 -23 -10 -30 0 -50 24 -32 35 16 10 11 25 -8 25 -45
0 -80 54 -148 228 -19 50 -32 71 -43 70 -16 -3 -37 58 -42 125 -2 17 -6 37
-10 42 -13 20 -39 152 -49 252 -6 56 -17 128 -25 158 -8 31 -14 66 -14 78 1
17 2 18 6 5 3 -11 14 -18 29 -18 24 0 33 15 13 22 -6 2 -11 20 -11 41 0 40
-15 58 -29 36 -6 -10 -9 -11 -9 -1 0 6 -11 12 -25 12 -25 0 -35 -15 -14 -22
10 -3 2 -38 -10 -38 -3 0 -19 12 -36 27 -19 17 -25 28 -17 31 18 6 4 22 -21
23 -20 1 -20 2 3 8 l25 8 -27 13 c-34 16 -36 27 -5 33 21 3 21 4 2 12 -26 11
-35 25 -35 56 0 14 -5 30 -10 35 -6 6 -12 59 -15 120 -3 60 -8 119 -11 132 -2
12 0 22 6 22 17 0 28 -41 35 -131 8 -93 28 -184 46 -205 18 -22 32 -17 24 9
-20 66 -25 107 -29 214 l-4 118 -36 8 c-22 6 -44 20 -57 38 -14 21 -29 29 -50
29 -31 0 -42 20 -11 21 13 0 12 2 -5 9 -34 14 -28 28 15 33 l37 4 -43 1 c-55
2 -52 24 4 33 l39 6 -47 2 c-66 2 -59 31 7 31 40 0 52 -10 91 -71 21 -32 46
-61 56 -65 15 -4 18 -17 19 -67 3 -101 6 -201 7 -223 1 -12 9 -21 20 -21 63 1
102 -4 102 -13 0 -6 -27 -10 -60 -10 -47 0 -60 -3 -60 -15 0 -11 13 -15 53
-15 62 0 92 17 83 47 -5 16 -19 22 -68 29 -86 13 -91 36 -6 28 43 -5 60 -3 53
4 -5 5 -19 12 -30 15 -15 3 -12 5 8 6 21 1 30 -5 34 -19 5 -20 23 -28 23 -10
0 6 3 10 8 10 4 0 6 -45 4 -100 -2 -55 1 -107 7 -117 7 -13 8 0 6 47 -4 60 -4
62 5 21 5 -24 12 -47 16 -50 3 -3 4 8 0 24 -3 17 -7 89 -8 160 -1 127 -9 172
-29 160 -5 -4 -10 -25 -10 -48 l-2 -42 -7 50 c-9 63 1 75 40 47 40 -30 59 -28
67 8 4 24 8 28 19 19 17 -14 29 28 20 73 -4 20 -1 39 9 54 9 14 11 24 4 26
-19 6 42 86 75 98 17 6 38 16 46 20 26 15 34 11 66 -33z m-899 -79 c-2 -24 -4
-7 -4 37 0 44 2 63 4 43 2 -21 2 -57 0 -80z m573 83 c0 -6 -4 -13 -10 -16 -5
-3 -10 1 -10 9 0 9 5 16 10 16 6 0 10 -4 10 -9z m40 -1 c0 -5 -2 -10 -4 -10
-3 0 -8 5 -11 10 -3 6 -1 10 4 10 6 0 11 -4 11 -10z m-960 -37 c0 -9 -6 -7
-18 5 -11 11 -14 20 -8 24 11 7 26 -9 26 -29z m40 12 c0 -29 -8 -32 -26 -7
-19 24 -17 32 6 32 15 0 20 -7 20 -25z m70 5 c11 -7 12 -12 3 -21 -13 -13 -33
-4 -33 17 0 16 9 18 30 4z m415 -9 c-3 -6 -14 -10 -23 -10 -15 1 -15 2 1 6 9
2 17 9 17 15 0 6 3 9 6 5 3 -3 3 -10 -1 -16z m413 -16 c-3 -3 -9 2 -12 12 -6
14 -5 15 5 6 7 -7 10 -15 7 -18z m37 5 c3 -5 1 -10 -4 -10 -6 0 -11 5 -11 10
0 6 2 10 4 10 3 0 8 -4 11 -10z m-101 -14 c-3 -9 6 -17 25 -24 35 -12 43 -27
10 -17 -15 5 -19 4 -15 -4 4 -6 3 -11 -2 -11 -13 0 -35 47 -28 59 10 16 16 14
10 -3z m-861 -20 c8 -21 -17 -50 -37 -43 -9 4 -16 12 -16 18 0 8 5 7 17 -2 15
-13 15 -12 5 8 -16 29 -15 33 7 33 10 0 21 -6 24 -14z m87 10 c0 -3 -4 -8 -10
-11 -5 -3 -10 -1 -10 4 0 6 5 11 10 11 6 0 10 -2 10 -4z m11 -24 c-11 -4 -11
-6 0 -13 10 -6 7 -9 -10 -9 -23 0 -24 1 -6 20 10 11 21 17 24 14 3 -4 0 -9 -8
-12z m341 -22 c-7 -12 -8 -20 -2 -20 5 0 10 -4 10 -9 0 -5 -19 -8 -42 -8 -24
0 -33 2 -20 4 26 5 29 28 5 42 -10 6 -13 11 -6 11 6 0 15 -4 18 -10 11 -18 25
-11 25 12 0 17 3 19 12 10 10 -10 10 -17 0 -32z m511 20 c3 -11 1 -23 -4 -26
-5 -3 -9 -1 -9 5 0 5 -3 16 -6 25 -3 9 -2 16 4 16 5 0 12 -9 15 -20z m-923
-107 c-1 -107 -1 -108 -19 -85 -11 12 -28 22 -39 22 -19 0 -21 6 -21 65 0 60
2 65 22 65 12 0 28 9 35 20 7 11 14 20 17 20 3 0 5 -48 5 -107z m252 -138 c-4
-5 -10 13 -14 40 -9 70 -9 190 0 199 9 10 23 -225 14 -239z m230 233 c0 -7 2
-17 2 -23 1 -5 5 -15 9 -22 4 -6 3 -14 -2 -17 -5 -4 -12 -2 -16 4 -3 5 -15 10
-26 10 -10 0 -19 7 -19 15 0 8 7 15 15 15 8 0 15 5 15 11 0 6 -7 9 -15 5 -8
-3 -15 -1 -15 4 0 15 50 12 52 -2z m378 -53 c-14 -27 -20 -33 -20 -19 0 19 29
69 36 61 2 -2 -5 -21 -16 -42z m-782 -35 c0 -52 -2 -60 -19 -60 -17 0 -19 8
-19 60 0 52 2 60 19 60 17 0 19 -8 19 -60z m652 50 c-13 -9 -13 -10 0 -10 8 0
33 -5 54 -11 29 -8 36 -13 25 -20 -12 -8 -11 -12 5 -24 19 -14 17 -15 -18 -15
-33 0 -37 2 -26 15 10 12 10 15 -1 15 -11 0 -11 2 1 10 12 8 12 10 -5 10 -17
0 -20 -8 -23 -48 -5 -73 -22 -76 -22 -4 0 52 -3 62 -17 62 -16 1 -16 2 1 15
11 8 25 15 30 15 6 0 4 -5 -4 -10z m210 -25 c0 -16 -6 -25 -15 -25 -18 0 -18
5 -5 31 14 26 20 24 20 -6z m-450 -23 c13 2 25 -3 27 -10 3 -7 -1 -13 -8 -11
-29 3 -49 -1 -49 -12 0 -7 12 -10 30 -7 19 3 29 1 27 -6 -2 -6 -13 -12 -25
-14 -27 -4 -19 -22 9 -22 10 0 19 -4 19 -10 0 -5 -14 -10 -31 -10 -17 0 -28
-4 -24 -10 3 -5 18 -10 32 -10 15 0 23 -3 19 -7 -4 -4 -14 -8 -22 -8 -24 0
-16 -20 11 -23 32 -4 23 -22 -11 -22 -14 0 -22 -4 -19 -10 3 -5 17 -10 31 -10
13 0 24 -4 24 -10 0 -5 -11 -10 -25 -10 -14 0 -25 -4 -25 -10 0 -5 11 -10 25
-10 14 0 25 -4 25 -10 0 -5 -13 -10 -30 -10 -16 0 -30 -4 -30 -10 0 -5 14 -10
30 -10 17 0 30 -4 30 -10 0 -5 -11 -10 -25 -10 -14 0 -25 -4 -25 -10 0 -5 8
-10 19 -10 10 0 24 -7 31 -15 10 -12 7 -17 -16 -26 l-29 -12 24 -6 c34 -9 39
-31 7 -31 -29 0 -33 -9 -13 -29 10 -11 10 -14 0 -18 -22 -8 -14 -23 12 -23 14
0 25 -4 25 -10 0 -5 -8 -10 -19 -10 -29 0 -25 -49 5 -56 32 -8 31 -24 -2 -24
-14 0 -23 -4 -19 -10 3 -5 15 -10 26 -10 10 0 19 -4 19 -10 0 -5 -12 -10 -26
-10 -14 0 -23 -4 -19 -10 3 -5 15 -10 26 -10 10 0 19 -5 19 -11 0 -6 -9 -9
-20 -6 -13 3 -20 0 -20 -9 0 -7 12 -17 26 -20 29 -7 21 -20 -16 -26 l-25 -5
25 -11 c24 -10 24 -11 3 -11 -27 -1 -30 -16 -5 -30 16 -10 16 -10 0 -11 -21 0
-24 -16 -5 -24 10 -5 10 -7 0 -12 -25 -11 -13 -24 23 -24 23 0 33 -4 28 -11
-3 -6 -19 -9 -35 -5 -15 3 -31 1 -34 -3 -6 -11 18 -21 51 -21 13 0 24 -4 24
-10 0 -5 -16 -10 -35 -10 -19 0 -35 -4 -35 -10 0 -9 23 -14 58 -13 6 1 12 -4
12 -9 0 -6 -12 -8 -30 -5 -33 7 -41 1 -30 -28 4 -13 20 -22 41 -26 l34 -6 -32
-2 c-41 -1 -43 -20 -3 -27 35 -8 39 -21 8 -27 l-23 -4 24 -8 23 -8 -23 -13
-24 -13 25 -10 c24 -9 24 -10 3 -10 -29 -1 -30 -21 -1 -29 19 -5 20 -6 4 -12
-24 -8 -22 -24 6 -32 21 -5 21 -6 -6 -7 -24 -1 -26 -3 -16 -15 6 -8 21 -17 33
-19 l22 -4 -22 -8 c-29 -9 -29 -23 0 -35 14 -6 17 -9 7 -11 -8 -1 -19 -3 -25
-4 -5 -2 -14 -3 -19 -4 -5 0 -4 -7 2 -13 5 -7 8 -30 7 -50 -3 -32 0 -38 23
-47 24 -8 25 -10 5 -10 -12 -1 -25 -6 -29 -12 -8 -14 14 -29 33 -22 7 3 13 0
13 -5 0 -6 -10 -12 -22 -14 -35 -5 -34 -28 2 -28 18 0 29 -4 25 -10 -3 -5 -15
-10 -25 -10 -19 0 -36 -17 -26 -27 3 -3 17 -5 31 -5 14 0 25 -4 25 -9 0 -5
-11 -9 -24 -9 -31 0 -44 -18 -19 -26 44 -14 47 -18 16 -22 -43 -4 -43 -29 0
-41 17 -5 24 -10 15 -10 -10 -1 -18 -8 -18 -16 0 -21 -16 -19 -41 6 -19 19
-20 19 -17 2 2 -10 18 -23 38 -30 33 -11 33 -12 8 -12 -43 -1 -58 22 -51 80 6
47 0 157 -31 574 -11 142 -15 166 -24 145 -9 -19 -10 45 -6 275 7 310 0 385
-31 385 -8 0 -15 5 -15 10 0 6 9 10 20 10 11 0 20 5 20 11 0 6 -9 9 -20 6 -13
-3 -20 0 -20 8 0 8 11 15 25 17 24 3 24 4 11 31 -8 15 -11 27 -7 27 5 0 7 39
4 88 -4 77 -3 85 10 69 8 -9 25 -16 37 -15z m-95 9 c-16 -14 -55 -23 -55 -12
0 5 12 12 28 14 15 2 29 5 32 6 2 0 0 -3 -5 -8z m476 -28 c-12 -20 -14 -14 -5
12 4 9 9 14 11 11 3 -2 0 -13 -6 -23z m-283 2 c2 -2 6 -40 9 -85 5 -64 3 -84
-8 -91 -12 -8 -12 -10 1 -19 8 -5 10 -10 4 -10 -7 0 -11 -11 -10 -25 0 -14 4
-25 7 -25 3 0 3 -14 1 -31 -3 -17 0 -34 5 -38 6 -3 12 -40 16 -81 3 -41 3 -69
0 -62 -9 22 -20 13 -18 -15 4 -61 8 -68 15 -33 5 20 7 -31 6 -122 -1 -87 2
-158 6 -158 5 0 6 -13 3 -30 -4 -20 -1 -30 7 -30 9 0 10 -2 2 -8 -6 -4 -10
-23 -8 -42 2 -19 5 -60 8 -90 3 -30 8 -75 11 -100 7 -60 14 -185 19 -355 7
-212 22 -478 30 -522 3 -14 0 -23 -7 -23 -8 0 -9 -2 -1 -8 6 -4 11 -14 11 -22
0 -8 4 -23 8 -33 5 -12 2 -17 -9 -17 -9 0 -16 -4 -16 -10 0 -5 5 -10 11 -10 5
0 7 -4 4 -10 -3 -5 0 -10 7 -11 10 0 11 -2 0 -6 -9 -3 -10 -9 -2 -18 7 -9 6
-16 -5 -25 -14 -11 -13 -14 2 -26 17 -13 17 -13 -2 -14 -19 -1 -19 -1 -2 -14
20 -15 22 -32 5 -39 -8 -3 -6 -6 5 -6 22 -1 23 -21 1 -21 -15 0 -15 -2 0 -25
12 -19 13 -25 4 -26 -10 0 -10 -2 -1 -6 9 -3 10 -10 3 -22 -6 -13 -4 -25 6
-40 15 -20 15 -23 -2 -36 -17 -13 -17 -16 -4 -25 12 -8 11 -10 -7 -10 -12 0
-27 8 -32 19 -6 10 -10 107 -10 225 0 114 -2 210 -5 214 -2 4 -5 70 -7 147 -2
77 -6 145 -10 150 -4 6 -9 84 -12 175 -7 222 -24 500 -42 700 -18 206 -33 434
-40 610 -3 74 -8 161 -11 194 l-6 59 28 -7 c16 -4 30 -9 32 -11z m-201 -25
c-1 -11 -4 -20 -8 -20 -4 0 -9 9 -12 20 -3 13 0 20 8 20 8 0 13 -9 12 -20z
m-80 -27 c-3 -10 -5 -4 -5 12 0 17 2 24 5 18 2 -7 2 -21 0 -30z m491 20 c-10
-2 -26 -2 -35 0 -10 3 -2 5 17 5 19 0 27 -2 18 -5z m-453 -43 c-3 -6 5 -10 19
-10 14 0 26 -5 26 -10 0 -6 -7 -10 -16 -8 -10 2 -19 -3 -21 -9 -3 -8 4 -13 16
-13 12 0 21 -4 21 -10 0 -5 -3 -9 -7 -8 -13 2 -43 -14 -43 -23 0 -5 8 -10 18
-10 16 -1 16 -2 0 -6 -21 -5 -23 -19 -5 -27 8 -3 7 -8 -5 -16 -10 -6 -18 -19
-18 -30 0 -10 8 -20 18 -22 10 -3 4 -6 -15 -9 -29 -5 -32 -3 -38 28 -3 19 -12
33 -20 33 -11 0 -15 11 -14 38 1 53 10 74 29 62 10 -7 11 -10 3 -10 -7 0 -13
-11 -13 -24 0 -30 9 -56 20 -56 11 0 30 90 30 143 1 34 3 38 11 24 5 -9 7 -22
4 -27z m-265 10 c0 -5 -8 -7 -17 -4 -17 5 -17 5 0 -9 9 -8 17 -19 17 -26 0 -6
-9 -2 -20 9 -11 11 -20 25 -20 30 0 6 9 10 20 10 11 0 20 -4 20 -10z m-116
-15 c3 -8 3 -15 0 -15 -3 0 -12 7 -20 15 -13 13 -13 15 -1 15 8 0 17 -7 21
-15z m846 11 c0 -3 -7 -12 -16 -20 -8 -9 -11 -17 -5 -17 6 -1 16 -2 23 -3 6 0
13 -8 15 -16 4 -13 3 -13 -6 0 -7 10 -11 11 -11 3 0 -8 -15 -14 -37 -15 l-38
-1 38 -4 c41 -5 51 -23 13 -23 -41 0 -56 11 -56 40 0 35 16 48 23 20 3 -11 13
-20 22 -20 15 0 15 2 4 16 -10 13 -10 17 1 24 10 6 7 9 -11 13 -19 3 -18 5 9
6 17 0 32 -1 32 -3z m-385 -226 c-3 -5 -10 -10 -16 -10 -5 0 -9 5 -9 10 0 6 7
10 16 10 8 0 12 -4 9 -10z m-71 -35 c19 -15 19 -15 -2 -15 -29 0 -28 -16 1
-24 l22 -7 -22 -9 c-28 -12 -30 -30 -3 -30 11 0 20 -4 20 -9 0 -5 -11 -8 -25
-6 -25 2 -34 -8 -16 -19 5 -3 7 -15 4 -26 -4 -15 0 -20 15 -20 12 0 24 -5 28
-12 5 -8 2 -9 -10 -5 -10 4 -27 7 -37 7 -18 0 -20 6 -19 63 2 74 10 127 19
127 3 0 15 -7 25 -15z m63 -22 c-11 -3 -16 -11 -13 -19 3 -8 -1 -14 -9 -14 -8
0 -15 6 -15 14 0 15 16 25 40 24 9 0 8 -2 -3 -5z m-62 -173 c3 -5 -3 -10 -15
-10 -12 0 -18 5 -15 10 3 6 10 10 15 10 5 0 12 -4 15 -10z m319 -82 c3 -13 7
-84 11 -158 5 -136 31 -386 41 -401 7 -11 44 -12 44 -1 0 4 -5 13 -10 18 -12
12 -40 234 -31 249 3 6 4 70 3 143 -2 108 1 132 12 132 8 0 16 6 19 13 10 28
16 -9 35 -222 19 -207 23 -228 50 -285 17 -33 36 -88 44 -121 10 -48 17 -61
34 -63 16 -2 25 -17 39 -60 29 -93 62 -149 113 -189 36 -29 46 -43 44 -62 -3
-21 0 -23 22 -19 14 3 26 1 26 -3 0 -5 9 -9 20 -9 11 0 20 -4 20 -10 0 -13
-37 -13 -45 0 -3 5 -15 10 -26 10 -24 0 -26 -30 -1 -31 12 -1 11 -3 -5 -7 -16
-5 -20 -11 -14 -20 7 -12 14 -11 39 2 34 18 52 20 52 8 0 -10 -70 -37 -87 -34
-13 3 -18 -20 -7 -31 3 -3 24 1 46 9 48 17 48 17 48 4 0 -5 -7 -10 -15 -10 -9
0 -18 -6 -20 -12 -3 -7 -17 -14 -31 -14 -30 -2 -38 -9 -29 -24 4 -6 15 -8 26
-5 11 4 19 2 19 -4 0 -6 -11 -11 -25 -11 -18 0 -23 -4 -18 -16 4 -10 13 -13
32 -9 22 5 27 2 27 -15 0 -11 -4 -20 -8 -20 -4 0 -8 5 -8 10 0 6 -9 10 -20 10
-11 0 -20 -7 -20 -15 0 -8 8 -15 18 -15 10 0 22 -4 28 -9 5 -5 18 -11 29 -14
15 -4 14 -5 -7 -6 -15 0 -30 4 -33 9 -10 15 -35 12 -35 -5 0 -8 9 -15 20 -15
11 0 20 -5 20 -11 0 -7 10 -9 26 -5 17 5 23 3 19 -4 -8 -13 -42 -13 -50 0 -14
22 -35 10 -35 -20 0 -24 4 -30 23 -31 21 -2 21 -2 1 -6 -17 -3 -21 -9 -16 -26
3 -12 10 -25 15 -29 7 -4 6 -12 -2 -22 -7 -8 -10 -20 -6 -27 4 -6 1 -16 -6
-21 -12 -8 -12 -10 0 -15 11 -5 11 -7 0 -14 -12 -8 -11 -11 1 -19 13 -8 12
-10 -5 -11 -17 -1 -17 -2 -2 -6 23 -6 22 -23 -3 -23 -17 0 -20 7 -20 53 -1
101 -12 292 -19 298 -3 3 -17 0 -31 -7 l-24 -13 24 -10 25 -9 -25 -10 c-14 -6
-19 -11 -10 -12 10 -1 9 -4 -5 -10 -19 -8 -19 -9 2 -9 30 -1 40 -21 14 -28
-11 -3 -18 -9 -15 -14 3 -5 -3 -9 -13 -9 -15 -1 -14 -3 6 -14 l23 -13 -23 -7
-24 -8 25 -8 c25 -8 25 -8 -5 -9 -29 -2 -29 -2 -11 -16 20 -15 20 -15 0 -16
-12 -1 -7 -5 14 -11 38 -13 43 -27 7 -20 -28 5 -35 -14 -7 -21 13 -4 11 -5 -5
-6 -31 -1 -29 -21 1 -21 14 0 27 -4 31 -9 3 -6 -8 -8 -28 -4 -28 4 -35 2 -39
-15 -5 -17 0 -22 33 -27 52 -9 50 -21 -3 -18 -24 1 -34 0 -23 -3 33 -9 42 -24
15 -25 -23 0 -23 -1 -5 -9 11 -5 14 -9 8 -9 -20 -1 -15 -21 5 -22 16 -1 16 -2
0 -6 -10 -2 -18 -9 -18 -14 0 -5 8 -10 18 -10 16 -1 16 -2 0 -6 -25 -6 -22
-17 7 -33 14 -7 25 -18 25 -23 0 -6 -8 -3 -18 6 -10 10 -29 17 -41 17 -12 0
-31 9 -43 20 -17 16 -18 20 -6 20 33 0 39 71 8 97 -21 18 -27 43 -10 43 6 0
10 14 10 30 0 17 -4 30 -10 30 -5 0 -7 7 -4 15 4 8 -1 17 -10 21 -9 3 -16 10
-16 16 0 5 5 6 11 2 30 -18 31 69 1 93 -13 11 -13 13 1 19 38 14 4 83 -43 85
-23 2 -23 2 -2 6 27 5 29 23 2 23 -25 0 -27 20 -2 20 16 1 16 2 -1 15 -18 13
-17 14 5 18 l23 4 -25 9 -25 8 25 7 25 6 -25 11 c-19 8 -21 11 -7 11 14 1 18
8 16 29 -2 15 0 32 4 39 9 14 -8 27 -23 18 -6 -4 -10 7 -9 27 0 31 1 32 10 9
12 -31 22 -21 13 13 -3 14 -12 26 -20 26 -8 0 -14 5 -14 10 0 6 7 10 15 10 8
0 15 5 15 11 0 6 -7 9 -15 5 -12 -4 -15 5 -15 49 0 30 -4 55 -10 55 -5 0 -10
-4 -10 -10 0 -5 -7 -10 -15 -10 -8 0 -15 -7 -15 -15 0 -8 4 -15 9 -15 5 0 8
-19 8 -42 0 -24 4 -87 8 -140 7 -85 6 -99 -9 -114 -16 -16 -16 -18 -2 -26 9
-5 16 -14 16 -21 0 -7 -4 -6 -10 3 -7 12 -12 12 -22 2 -11 -11 -15 39 -23 272
-6 157 -14 289 -18 293 -12 11 -25 -17 -22 -46 2 -14 6 -151 10 -304 6 -222
10 -280 21 -284 22 -8 16 -25 -6 -18 -15 5 -20 2 -20 -10 0 -9 9 -19 20 -22
18 -5 18 -7 4 -35 -12 -24 -13 -32 -3 -45 11 -13 9 -14 -11 -11 -25 3 -25 3
-32 158 -5 85 -12 223 -18 305 -5 83 -12 193 -15 245 -10 198 -15 277 -25 355
-15 125 -26 326 -18 332 5 2 8 20 8 39 0 38 17 46 24 12z m-210 -507 c-8 -9
-24 23 -19 37 3 8 6 41 6 75 2 61 2 61 10 -23 4 -46 6 -87 3 -89z m786 -621
c0 -5 -5 -10 -11 -10 -5 0 -7 5 -4 10 3 6 8 10 11 10 2 0 4 -4 4 -10z m-430
-150 c0 -5 -4 -10 -9 -10 -6 0 -13 5 -16 10 -3 6 1 10 9 10 9 0 16 -4 16 -10z
m82 -42 c-9 -9 -15 -9 -24 0 -9 9 -7 12 12 12 19 0 21 -3 12 -12z m3 -28 c8
-13 -5 -13 -25 0 -13 8 -13 10 2 10 9 0 20 -4 23 -10z m-8 -26 c-3 -3 -12 -4
-19 -1 -8 3 -5 6 6 6 11 1 17 -2 13 -5z m313 -44 c0 -5 -7 -10 -15 -10 -8 0
-15 5 -15 10 0 6 7 10 15 10 8 0 15 -4 15 -10z m-323 -36 c-3 -3 -12 -4 -19
-1 -8 3 -5 6 6 6 11 1 17 -2 13 -5z m323 -4 c0 -5 -9 -10 -19 -10 -11 0 -23 5
-26 10 -4 6 5 10 19 10 14 0 26 -4 26 -10z m-473 -127 c-2 -21 -4 -4 -4 37 0
41 2 58 4 38 2 -21 2 -55 0 -75z m60 101 c-3 -3 -12 -4 -19 -1 -8 3 -5 6 6 6
11 1 17 -2 13 -5z m98 -24 c19 -8 19 -9 -2 -9 -12 -1 -25 4 -28 9 -7 12 2 12
30 0z m5 -41 c0 -11 -27 -12 -34 0 -3 4 -3 11 0 14 8 8 34 -3 34 -14z m313
-16 c-7 -2 -19 -2 -25 0 -7 3 -2 5 12 5 14 0 19 -2 13 -5z m-328 -13 c3 -5 1
-10 -4 -10 -6 0 -11 5 -11 10 0 6 2 10 4 10 3 0 8 -4 11 -10z m15 -41 c0 -11
-27 -12 -34 0 -3 4 -3 11 0 14 8 8 34 -3 34 -14z m150 11 c11 -8 7 -9 -15 -4
-37 8 -45 14 -19 14 10 0 26 -5 34 -10z m160 0 c0 -5 -8 -10 -17 -10 -15 0
-16 2 -3 10 19 12 20 12 20 0z m-80 -30 c12 -8 11 -10 -7 -10 -13 0 -23 5 -23
10 0 13 11 13 30 0z m-240 -10 c0 -5 -7 -7 -15 -4 -8 4 -15 8 -15 10 0 2 7 4
15 4 8 0 15 -4 15 -10z m-128 -107 c6 -7 23 -13 38 -13 15 0 30 -6 33 -14 4
-9 18 -14 37 -14 46 2 45 -8 -4 -31 -62 -30 -96 -59 -96 -81 0 -29 24 -41 71
-35 95 14 265 59 285 77 12 11 28 18 35 17 8 -2 25 3 38 10 28 16 81 7 112
-18 23 -18 19 -41 -7 -41 -17 0 -18 -12 -2 -28 18 -18 8 -20 -57 -11 -64 9
-139 -5 -132 -25 2 -6 23 -16 48 -22 37 -10 5 -12 -211 -13 -140 -1 -265 -4
-277 -7 -14 -4 -23 -2 -23 5 0 6 11 11 24 11 14 0 28 5 31 10 7 12 -21 12 -50
1 -12 -5 -26 -4 -34 2 -7 6 -22 16 -34 22 -34 17 -31 32 12 61 35 23 44 25 71
16 35 -13 57 -7 83 20 10 10 29 18 42 18 14 0 25 4 25 9 0 5 -15 8 -34 5 -33
-4 -33 -3 -40 42 -3 26 -5 68 -4 93 l2 46 3 -50 c3 -27 9 -55 15 -62z m128 77
c13 -8 13 -10 -2 -10 -9 0 -20 5 -23 10 -8 13 5 13 25 0z m240 -13 c11 -5 9
-6 -4 -4 -11 1 -21 9 -23 17 -3 10 -2 11 4 4 4 -6 15 -14 23 -17z m-230 -27
c0 -21 -24 -28 -35 -10 -3 6 1 7 9 4 11 -4 16 0 16 10 0 9 2 16 5 16 3 0 5 -9
5 -20z m365 10 c3 -5 1 -10 -4 -10 -6 0 -11 5 -11 10 0 6 2 10 4 10 3 0 8 -4
11 -10z m-120 -20 c-3 -5 -15 -10 -26 -10 -10 0 -19 5 -19 10 0 6 12 10 26 10
14 0 23 -4 19 -10z m75 0 c0 -5 -7 -7 -15 -4 -8 4 -15 8 -15 10 0 2 7 4 15 4
8 0 15 -4 15 -10z m-75 -29 c16 -7 11 -9 -22 -12 -41 -4 -57 4 -30 14 17 7 29
7 52 -2z m72 -7 c-3 -3 -12 -4 -19 -1 -8 3 -5 6 6 6 11 1 17 -2 13 -5z m53
-14 c0 -5 -4 -10 -9 -10 -6 0 -13 5 -16 10 -3 6 1 10 9 10 9 0 16 -4 16 -10z
m-706 -67 c50 -8 52 -17 6 -39 -21 -10 -41 -27 -43 -36 -3 -10 -23 -25 -46
-34 -23 -9 -41 -20 -41 -24 0 -19 -65 -28 -195 -26 -77 1 -220 3 -318 4 l-178
2 3 37 c2 27 8 39 20 41 13 3 16 -1 12 -13 -6 -16 -5 -16 24 -1 17 9 38 16 47
16 9 0 19 9 23 20 7 19 8 19 52 -1 25 -12 63 -21 85 -21 22 0 54 0 70 -1 112
-6 174 1 209 21 21 12 48 22 61 22 15 0 38 16 67 49 l43 49 31 -29 c17 -17 47
-32 68 -36z m569 50 c-7 -2 -21 -2 -30 0 -10 3 -4 5 12 5 17 0 24 -2 18 -5z
m32 -3 c3 -5 1 -10 -4 -10 -6 0 -11 5 -11 10 0 6 2 10 4 10 3 0 8 -4 11 -10z
m292 -21 c16 -16 104 -35 156 -33 34 1 55 8 71 23 29 27 39 26 84 -4 21 -14
51 -25 69 -25 l33 0 0 -70 0 -70 -130 0 c-106 0 -138 4 -180 20 -28 11 -62 20
-76 20 -14 0 -45 14 -70 30 -52 36 -57 64 -16 97 30 25 43 28 59 12z m-523
-64 c-42 -36 -138 -50 -132 -18 4 21 87 70 125 75 39 4 43 -26 7 -57z m498
-93 c18 -6 42 -13 53 -15 11 -3 -31 -5 -93 -6 -86 -1 -117 2 -128 13 -22 22
-17 29 16 23 39 -8 60 1 60 25 0 19 2 18 30 -5 16 -14 44 -30 62 -35z m-212
18 c12 -8 10 -10 -10 -10 -14 0 -32 5 -40 10 -12 8 -10 10 10 10 14 0 32 -5
40 -10z m-700 -29 c0 -11 -40 -22 -53 -14 -5 3 -3 9 4 14 18 11 49 11 49 0z
m63 -8 c-7 -2 -21 -2 -30 0 -10 3 -4 5 12 5 17 0 24 -2 18 -5z m1160 -31 l128
-2 -3 -127 -3 -128 -35 2 c-19 2 -484 3 -1033 3 -549 0 -1010 3 -1023 6 -24 6
-24 8 -24 113 0 58 4 112 8 118 6 10 89 13 338 15 345 3 1428 3 1647 0z"/>
<path d="M1090 3721 c-63 -4 -104 -8 -90 -11 22 -4 26 -12 31 -55 6 -53 -1
-66 -32 -58 -10 3 -19 1 -19 -5 0 -8 48 -11 145 -9 80 1 145 5 145 9 0 4 -12
8 -27 8 -18 1 -35 10 -47 26 -18 25 -18 27 1 52 11 15 32 28 46 30 39 5 33 22
-5 20 -18 -1 -85 -4 -148 -7z m34 -38 c22 -24 24 -30 12 -47 -36 -55 -76 -46
-76 17 0 66 22 76 64 30z m54 16 c-2 -6 -8 -10 -13 -10 -5 0 -11 4 -13 10 -2
6 4 11 13 11 9 0 15 -5 13 -11z m-8 -89 c0 -5 -4 -10 -10 -10 -5 0 -10 5 -10
10 0 6 5 10 10 10 6 0 10 -4 10 -10z"/>
<path d="M446 3065 c-11 -8 -15 -15 -10 -15 6 0 19 7 30 15 10 8 15 14 9 14
-5 0 -19 -6 -29 -14z"/>
<path d="M448 2943 c6 -2 18 -2 25 0 6 3 1 5 -13 5 -14 0 -19 -2 -12 -5z"/>
<path d="M68 2933 c6 -2 18 -2 25 0 6 3 1 5 -13 5 -14 0 -19 -2 -12 -5z"/>
<path d="M435 2900 c3 -5 8 -10 11 -10 2 0 4 5 4 10 0 6 -5 10 -11 10 -5 0 -7
-4 -4 -10z"/>
<path d="M78 2893 c7 -3 16 -2 19 1 4 3 -2 6 -13 5 -11 0 -14 -3 -6 -6z"/>
<path d="M84 2834 c-18 -14 -18 -15 4 -4 12 6 22 13 22 15 0 8 -5 6 -26 -11z"/>
<path d="M440 2830 c12 -8 12 -10 1 -10 -10 0 -11 -3 -2 -14 9 -11 9 -15 -1
-19 -10 -3 -8 -9 6 -23 18 -19 18 -18 11 5 -6 20 -5 23 11 17 16 -6 16 -5 -2
15 -19 22 -19 22 1 16 20 -7 20 -7 1 8 -11 8 -25 15 -30 15 -6 0 -4 -5 4 -10z"/>
<path d="M95 2779 c-4 -6 -5 -12 -2 -15 2 -3 7 2 10 11 7 17 1 20 -8 4z"/>
<path d="M1998 979 c-10 -5 -18 -18 -18 -28 0 -10 -9 -21 -20 -24 -11 -3 -20
-10 -20 -16 0 -6 9 -11 20 -11 11 0 20 -5 20 -11 0 -5 -4 -8 -9 -5 -4 3 -16
-1 -26 -8 -22 -16 -11 -39 16 -31 10 4 19 2 19 -4 0 -5 -9 -13 -20 -16 -14 -4
-20 -15 -19 -33 l1 -27 7 25 c4 14 13 25 21 25 12 0 16 -20 18 -92 2 -58 7
-93 14 -93 7 0 8 29 3 94 l-7 93 32 7 c18 3 43 6 56 6 30 0 38 14 22 39 -10
17 -19 19 -60 14 -33 -4 -48 -2 -48 6 0 6 15 11 34 11 47 0 55 17 11 26 -39 7
-42 12 -18 29 9 7 13 17 9 23 -9 14 -16 15 -38 1z m-21 -115 c-3 -3 -12 -4
-19 -1 -8 3 -5 6 6 6 11 1 17 -2 13 -5z m123 -14 c0 -5 -24 -10 -52 -9 -39 0
-48 3 -33 9 28 12 85 12 85 0z"/>
<path d="M2030 790 c0 -5 5 -10 10 -10 6 0 10 5 10 10 0 6 -4 10 -10 10 -5 0
-10 -4 -10 -10z"/>
<path d="M776 3342 c-3 -6 -1 -14 5 -17 15 -10 25 3 12 16 -7 7 -13 7 -17 1z"/>
<path d="M1247 3174 c-3 -4 -2 -16 4 -26 13 -24 33 -10 23 15 -6 18 -16 21
-27 11z"/>
<path d="M1035 3240 c10 -11 20 -20 22 -20 2 0 -1 9 -7 20 -6 11 -16 20 -22
20 -6 0 -3 -9 7 -20z"/>
<path d="M901 3247 c-8 -11 -6 -18 10 -33 17 -16 22 -16 29 -4 14 22 12 34 -4
21 -9 -8 -16 -8 -20 -2 -4 5 2 14 11 20 16 9 16 10 2 11 -9 0 -22 -6 -28 -13z"/>
<path d="M985 3160 c-3 -5 1 -10 9 -10 9 0 16 5 16 10 0 6 -4 10 -9 10 -6 0
-13 -4 -16 -10z"/>
<path d="M976 3131 c-3 -5 4 -11 16 -14 25 -7 33 -3 23 12 -8 13 -32 14 -39 2z"/>
<path d="M1040 3105 c0 -8 5 -15 10 -15 6 0 10 7 10 15 0 8 -4 15 -10 15 -5 0
-10 -7 -10 -15z"/>
<path d="M985 3099 c-10 -15 3 -25 16 -12 7 7 7 13 1 17 -6 3 -14 1 -17 -5z"/>
<path d="M1037 3057 c-3 -8 -2 -19 3 -26 5 -9 9 -4 12 13 5 27 -6 36 -15 13z"/>
<path d="M845 2990 c3 -5 8 -10 11 -10 2 0 4 5 4 10 0 6 -5 10 -11 10 -5 0 -7
-4 -4 -10z"/>
<path d="M1215 2779 c4 -24 11 -66 14 -94 8 -63 25 -61 29 2 3 53 -17 124 -38
131 -10 4 -11 -5 -5 -39z"/>
<path d="M1020 2570 c0 -5 15 -10 34 -10 19 0 41 -3 50 -6 10 -4 16 -1 16 8 0
10 -14 15 -50 17 -30 1 -50 -2 -50 -9z"/>
<path d="M1030 2532 c0 -13 53 -23 65 -11 5 6 4 9 -5 9 -8 0 -25 3 -37 6 -13
4 -23 2 -23 -4z"/>
<path d="M1004 2498 c3 -13 6 -30 6 -39 0 -11 12 -16 43 -17 23 -2 50 -5 60
-8 9 -3 17 -1 17 5 0 6 -22 13 -50 17 -27 4 -50 11 -50 17 0 6 19 7 50 3 46
-6 50 -5 50 14 0 11 -4 20 -10 20 -5 0 -10 -3 -10 -8 0 -4 -20 -6 -45 -4 -25
2 -45 8 -45 13 0 5 -5 9 -11 9 -7 0 -9 -9 -5 -22z"/>
<path d="M1121 2281 c-19 -12 -6 -41 19 -41 11 0 20 5 20 10 0 6 -4 10 -9 10
-5 0 -11 7 -13 15 -2 10 -8 12 -17 6z"/>
<path d="M1130 2210 c0 -5 7 -10 15 -10 8 0 15 5 15 10 0 6 -7 10 -15 10 -8 0
-15 -4 -15 -10z"/>
<path d="M1140 2170 c0 -5 7 -10 15 -10 8 0 15 5 15 10 0 6 -7 10 -15 10 -8 0
-15 -4 -15 -10z"/>
<path d="M1150 2074 c0 -17 22 -14 28 4 2 7 -3 12 -12 12 -9 0 -16 -7 -16 -16z"/>
<path d="M1152 2038 c7 -20 48 -23 48 -4 0 11 -9 16 -26 16 -16 0 -24 -5 -22
-12z"/>
<path d="M1160 1995 c0 -17 2 -18 24 -9 23 9 20 24 -4 24 -11 0 -20 -7 -20
-15z"/>
<path d="M1164 1948 c3 -13 6 -31 6 -40 0 -11 8 -18 20 -18 24 0 38 26 22 42
-6 6 -8 17 -5 24 4 10 -3 14 -22 14 -23 0 -26 -3 -21 -22z"/>
<path d="M1180 1866 c0 -8 6 -16 13 -19 9 -3 14 -24 15 -53 2 -51 23 -84 54
-84 23 0 24 16 0 22 -17 5 -42 81 -42 129 0 12 -7 19 -20 19 -11 0 -20 -6 -20
-14z"/>
<path d="M1260 1775 c0 -9 9 -15 25 -15 28 0 34 15 9 24 -25 10 -34 7 -34 -9z"/>
<path d="M1295 1721 c-6 -11 63 -27 73 -17 9 10 -19 26 -45 26 -12 0 -24 -4
-28 -9z"/>
<path d="M1250 1686 c0 -12 10 -16 38 -17 31 -2 32 -3 9 -6 -37 -6 -29 -27 11
-31 18 -2 30 -7 27 -12 -3 -4 -14 -6 -25 -3 -14 4 -20 0 -20 -11 0 -24 198
-19 214 6 5 9 6 21 2 25 -5 4 -11 2 -13 -4 -3 -9 -27 -13 -76 -12 -66 1 -69 2
-37 11 61 18 66 22 28 26 -27 2 -35 7 -31 18 4 10 -3 14 -30 14 -19 0 -49 3
-66 6 -24 5 -31 3 -31 -10z"/>
<path d="M1300 1571 c0 -6 13 -11 30 -11 16 0 61 -5 99 -12 68 -12 95 -7 75
11 -15 15 -204 26 -204 12z"/>
<path d="M1310 1531 c0 -9 118 -21 134 -13 4 3 2 8 -5 13 -19 12 -129 11 -129
0z"/>
<path d="M1480 1510 c0 -11 7 -20 15 -20 17 0 18 2 9 24 -9 23 -24 20 -24 -4z"/>
<path d="M1349 1500 c-35 -8 -13 -17 65 -25 55 -5 67 -4 64 7 -5 15 -91 27
-129 18z"/>
<path d="M1390 1405 c0 -9 9 -15 24 -15 33 0 42 16 13 24 -33 9 -37 8 -37 -9z"/>
<path d="M840 2898 c0 -7 5 -20 10 -28 8 -12 10 -9 10 13 0 15 -4 27 -10 27
-5 0 -10 -6 -10 -12z"/>
<path d="M850 2793 c0 -5 5 -15 10 -23 8 -12 10 -11 10 8 0 12 -4 22 -10 22
-5 0 -10 -3 -10 -7z"/>
<path d="M871 2544 c0 -11 3 -14 6 -6 3 7 2 16 -1 19 -3 4 -6 -2 -5 -13z"/>
<path d="M952 515 c0 -16 2 -22 5 -12 2 9 2 23 0 30 -3 6 -5 -1 -5 -18z"/>
<path d="M1105 1740 c-3 -5 -4 -14 0 -19 3 -5 1 -12 -5 -16 -16 -10 -11 -25 8
-25 14 0 19 8 20 30 1 31 -12 48 -23 30z"/>
<path d="M1034 1705 c-6 -23 0 -45 10 -34 10 12 15 59 6 59 -5 0 -12 -11 -16
-25z"/>
<path d="M1097 1655 c-5 -10 0 -15 14 -15 12 0 19 5 17 12 -6 18 -25 20 -31 3z"/>
<path d="M1095 1620 c-3 -5 1 -10 9 -10 9 0 16 5 16 10 0 6 -4 10 -9 10 -6 0
-13 -4 -16 -10z"/>
<path d="M1095 1584 c-17 -13 -18 -16 -5 -24 11 -7 19 -5 28 7 24 33 11 43
-23 17z"/>
<path d="M1076 1543 c-3 -3 -3 -10 0 -14 7 -12 44 -12 44 0 0 10 -36 21 -44
14z"/>
<path d="M1180 1515 c0 -8 7 -15 15 -15 8 0 15 7 15 15 0 8 -7 15 -15 15 -8 0
-15 -7 -15 -15z"/>
<path d="M1080 1495 c0 -10 10 -15 28 -15 26 1 26 1 8 15 -25 19 -36 19 -36 0z"/>
<path d="M1186 1483 c-12 -12 -5 -23 14 -23 11 0 20 4 20 9 0 11 -26 22 -34
14z"/>
<path d="M1200 1430 c0 -5 5 -10 10 -10 6 0 10 5 10 10 0 6 -4 10 -10 10 -5 0
-10 -4 -10 -10z"/>
<path d="M1335 1171 c-9 -30 6 -50 17 -21 5 14 5 27 -1 33 -5 5 -12 1 -16 -12z"/>
<path d="M1330 1100 c0 -24 15 -27 24 -4 9 22 8 24 -9 24 -8 0 -15 -9 -15 -20z"/>
<path d="M368 249 c-13 -8 -3 -39 12 -39 5 0 10 5 10 10 0 6 5 10 10 10 14 0
12 -104 -2 -118 -9 -9 -1 -12 37 -12 38 0 46 3 37 12 -17 17 -16 118 1 118 7
0 18 -5 25 -12 9 -9 12 -7 12 9 0 19 -7 22 -66 25 -36 1 -71 0 -76 -3z"/>
<path d="M1036 251 c-4 -5 -1 -13 5 -16 6 -5 9 -31 7 -69 -3 -60 -1 -63 31
-57 5 0 8 15 7 32 -1 26 3 32 22 35 19 3 22 0 22 -31 0 -27 4 -35 18 -35 16 0
17 9 15 73 -1 51 -6 72 -15 72 -7 0 -15 -13 -18 -29 -3 -17 -8 -29 -12 -28 -5
1 -15 2 -23 2 -11 0 -15 8 -13 28 2 21 -2 28 -19 30 -11 2 -24 -1 -27 -7z"/>
<path d="M1199 253 c0 -5 -1 -38 -2 -75 l-2 -68 48 0 c34 0 49 4 54 15 9 24
-5 30 -25 12 -20 -19 -32 -13 -32 14 0 12 5 16 15 13 10 -4 15 0 15 16 0 17
-4 20 -20 15 -15 -5 -20 -2 -20 14 0 27 20 38 32 17 5 -9 13 -16 18 -16 16 0
11 37 -6 44 -22 8 -74 7 -75 -1z"/>
<path d="M1343 251 c-4 -3 -8 -36 -8 -73 0 -67 0 -68 27 -68 25 0 27 3 22 30
-8 38 4 38 38 0 14 -16 33 -30 42 -30 23 0 20 10 -11 42 -21 22 -24 31 -15 40
14 14 16 44 3 53 -14 8 -88 13 -98 6z m71 -27 c8 -20 -1 -34 -20 -34 -8 0 -14
10 -14 25 0 28 24 34 34 9z"/>
<path d="M525 175 c0 -75 0 -75 27 -75 25 0 26 2 21 41 -6 40 -5 41 23 37 23
-2 30 -9 32 -30 2 -16 -1 -28 -7 -28 -6 0 -11 -4 -11 -10 0 -5 15 -10 33 -10
l32 0 0 75 0 75 -28 0 c-24 0 -27 -3 -21 -25 6 -23 3 -25 -25 -25 -26 0 -31 4
-31 25 0 19 -5 25 -22 25 -22 0 -23 -4 -23 -75z"/>
<path d="M708 175 l4 -75 49 0 c36 0 51 4 56 15 9 24 -7 32 -22 11 -19 -26
-45 -13 -45 21 1 25 2 26 14 11 19 -25 26 -22 26 10 0 35 -9 45 -27 31 -10 -9
-13 -7 -13 10 0 23 28 29 48 9 15 -15 26 -4 19 17 -5 11 -21 15 -59 15 l-53 0
3 -75z"/>
<path d="M1490 236 c7 -9 10 -39 9 -73 -3 -53 -1 -58 19 -61 20 -3 22 0 17 25
-4 15 -8 34 -11 41 -7 23 11 12 28 -18 22 -39 33 -38 57 8 l20 37 1 -47 c0
-44 2 -48 25 -48 26 0 33 14 14 25 -6 4 -8 30 -5 66 5 57 4 59 -20 59 -16 0
-24 -6 -24 -17 0 -10 -8 -28 -18 -41 l-18 -23 -23 41 c-18 33 -28 40 -53 40
-25 0 -28 -2 -18 -14z"/>
<path d="M1708 239 c7 -8 12 -38 12 -71 0 -54 2 -58 23 -58 23 0 23 3 21 68
l-2 67 -33 3 c-28 3 -32 1 -21 -9z"/>
<path d="M1790 229 c0 -18 4 -20 26 -15 l26 7 -4 -60 c-4 -57 -3 -61 16 -60
24 1 67 17 49 18 -9 1 -13 18 -13 51 0 49 1 50 25 44 21 -5 25 -3 25 15 0 19
-5 21 -75 21 -70 0 -75 -2 -75 -21z"/>
<path d="M1950 124 c0 -17 22 -14 28 4 2 7 -3 12 -12 12 -9 0 -16 -7 -16 -16z"/>
</g>
</svg>
